# SM_JerusalemBuildings_Grid_N002_P001_PrecinctIn
o SM_JerusalemBuildings_Grid_N002_P001_PrecinctIn
v -13305.0150 -18640.4325 -1522.3400
v -13928.5150 -18756.9325 -1522.3400
v -14026.0150 -18194.9325 -1522.3400
v -14107.5150 -17750.4325 -1522.3400
v -13491.5150 -17642.4325 -1522.3400
v -13413.5150 -18060.4325 -1522.3400
v -13305.0150 -18640.4325 -1522.3400
v -14026.0150 -18194.9325 -1522.3400
v -14070.5150 -17948.9325 -1522.3400
v -14107.5150 -17750.4325 -1522.3400
v -13413.5150 -18060.4325 -1522.3400
v -13305.0150 -18640.4325 -1522.3400
v -13305.0150 -18640.4325 -1522.3400
v -14070.5150 -17948.9325 -1522.3400
v -14107.5150 -17750.4325 -1522.3400
v -14026.0150 -18194.9325 477.6600
v -13928.5150 -18756.9325 477.6600
v -13305.0150 -18640.4325 477.6600
v -13413.5150 -18060.4325 477.6600
v -13491.5150 -17642.4325 477.6600
v -14107.5150 -17750.4325 477.6600
v -14070.5150 -17948.9325 477.6600
v -14026.0150 -18194.9325 477.6600
v -13305.0150 -18640.4325 477.6600
v -13305.0150 -18640.4325 477.6600
v -13413.5150 -18060.4325 477.6600
v -14107.5150 -17750.4325 477.6600
v -14107.5150 -17750.4325 477.6600
v -14070.5150 -17948.9325 477.6600
v -13305.0150 -18640.4325 477.6600
v -13305.0150 -18640.4325 -1522.3400
v -13413.5150 -18060.4325 -1522.3400
v -13305.0150 -18640.4325 477.6600
v -13413.5150 -18060.4325 -1522.3400
v -13413.5150 -18060.4325 477.6600
v -13305.0150 -18640.4325 477.6600
v -13413.5150 -18060.4325 -1522.3400
v -13491.5150 -17642.4325 -1522.3400
v -13413.5150 -18060.4325 477.6600
v -13491.5150 -17642.4325 -1522.3400
v -13491.5150 -17642.4325 477.6600
v -13413.5150 -18060.4325 477.6600
v -13491.5150 -17642.4325 -1522.3400
v -14107.5150 -17750.4325 -1522.3400
v -13491.5150 -17642.4325 477.6600
v -14107.5150 -17750.4325 -1522.3400
v -14107.5150 -17750.4325 477.6600
v -13491.5150 -17642.4325 477.6600
v -14107.5150 -17750.4325 -1522.3400
v -14070.5150 -17948.9325 -1522.3400
v -14107.5150 -17750.4325 477.6600
v -14070.5150 -17948.9325 -1522.3400
v -14070.5150 -17948.9325 477.6600
v -14107.5150 -17750.4325 477.6600
v -14070.5150 -17948.9325 -1522.3400
v -14026.0150 -18194.9325 -1522.3400
v -14070.5150 -17948.9325 477.6600
v -14026.0150 -18194.9325 -1522.3400
v -14026.0150 -18194.9325 477.6600
v -14070.5150 -17948.9325 477.6600
v -14026.0150 -18194.9325 -1522.3400
v -13928.5150 -18756.9325 -1522.3400
v -14026.0150 -18194.9325 477.6600
v -13928.5150 -18756.9325 -1522.3400
v -13928.5150 -18756.9325 477.6600
v -14026.0150 -18194.9325 477.6600
v -13928.5150 -18756.9325 -1522.3400
v -13305.0150 -18640.4325 -1522.3400
v -13928.5150 -18756.9325 477.6600
v -13305.0150 -18640.4325 -1522.3400
v -13305.0150 -18640.4325 477.6600
v -13928.5150 -18756.9325 477.6600
v -11889.0150 -17261.4325 -1206.8600
v -11521.0150 -17206.9325 -1206.8600
v -11466.0150 -17576.9325 -1206.8600
v -11466.0150 -17576.9325 -1206.8600
v -11833.5150 -17632.4325 -1206.8600
v -11889.0150 -17261.4325 -1206.8600
v -11466.0150 -17576.9325 -306.8600
v -11521.0150 -17206.9325 -306.8600
v -11889.0150 -17261.4325 -306.8600
v -11889.0150 -17261.4325 -306.8600
v -11833.5150 -17632.4325 -306.8600
v -11466.0150 -17576.9325 -306.8600
v -11889.0150 -17261.4325 -1206.8600
v -11833.5150 -17632.4325 -1206.8600
v -11889.0150 -17261.4325 -306.8600
v -11833.5150 -17632.4325 -1206.8600
v -11833.5150 -17632.4325 -306.8600
v -11889.0150 -17261.4325 -306.8600
v -11833.5150 -17632.4325 -1206.8600
v -11466.0150 -17576.9325 -1206.8600
v -11833.5150 -17632.4325 -306.8600
v -11466.0150 -17576.9325 -1206.8600
v -11466.0150 -17576.9325 -306.8600
v -11833.5150 -17632.4325 -306.8600
v -11466.0150 -17576.9325 -1206.8600
v -11521.0150 -17206.9325 -1206.8600
v -11466.0150 -17576.9325 -306.8600
v -11521.0150 -17206.9325 -1206.8600
v -11521.0150 -17206.9325 -306.8600
v -11466.0150 -17576.9325 -306.8600
v -11521.0150 -17206.9325 -1206.8600
v -11889.0150 -17261.4325 -1206.8600
v -11521.0150 -17206.9325 -306.8600
v -11889.0150 -17261.4325 -1206.8600
v -11889.0150 -17261.4325 -306.8600
v -11521.0150 -17206.9325 -306.8600
v -15127.5150 -11907.9325 -1399.6950
v -15665.0150 -9170.9325 -1399.6950
v -15678.0150 -8845.4325 -1399.6950
v -14107.5150 -17750.4325 -1399.6950
v -14450.0150 -15836.4325 -1399.6950
v -15127.5150 -11907.9325 -1399.6950
v -14129.0150 -12644.9325 -1399.6950
v -13271.5150 -17604.4325 -1399.6950
v -13491.5150 -17642.4325 -1399.6950
v -14336.5150 -11384.4325 -1399.6950
v -14175.5150 -12362.4325 -1399.6950
v -14129.0150 -12644.9325 -1399.6950
v -14165.0150 -11144.4325 -1399.6950
v -14127.0150 -11344.4325 -1399.6950
v -14336.5150 -11384.4325 -1399.6950
v -14249.5150 -10729.9325 -1399.6950
v -14212.5150 -10922.4325 -1399.6950
v -14386.5150 -10954.4325 -1399.6950
v -14308.0150 -10334.4325 -1399.6950
v -14270.0150 -10530.9325 -1399.6950
v -14463.0150 -10567.9325 -1399.6950
v -14562.5150 -9419.9325 -1399.6950
v -14510.5150 -9699.9325 -1399.6950
v -14594.0150 -9715.4325 -1399.6950
v -15678.0150 -8845.4325 -1399.6950
v -14823.5150 -8682.9325 -1399.6950
v -14689.5150 -9445.4325 -1399.6950
v -13491.5150 -17642.4325 -1399.6950
v -14107.5150 -17750.4325 -1399.6950
v -15127.5150 -11907.9325 -1399.6950
v -14336.5150 -11384.4325 -1399.6950
v -14129.0150 -12644.9325 -1399.6950
v -13491.5150 -17642.4325 -1399.6950
v -14344.0150 -11178.9325 -1399.6950
v -14165.0150 -11144.4325 -1399.6950
v -14336.5150 -11384.4325 -1399.6950
v -14426.5150 -10763.4325 -1399.6950
v -14249.5150 -10729.9325 -1399.6950
v -14386.5150 -10954.4325 -1399.6950
v -14471.5150 -10365.4325 -1399.6950
v -14308.0150 -10334.4325 -1399.6950
v -14463.0150 -10567.9325 -1399.6950
v -14689.5150 -9445.4325 -1399.6950
v -14562.5150 -9419.9325 -1399.6950
v -14594.0150 -9715.4325 -1399.6950
v -15127.5150 -11907.9325 -1399.6950
v -15678.0150 -8845.4325 -1399.6950
v -14689.5150 -9445.4325 -1399.6950
v -14336.5150 -11384.4325 -1399.6950
v -13491.5150 -17642.4325 -1399.6950
v -15127.5150 -11907.9325 -1399.6950
v -14386.5150 -10954.4325 -1399.6950
v -14344.0150 -11178.9325 -1399.6950
v -14336.5150 -11384.4325 -1399.6950
v -14594.0150 -9715.4325 -1399.6950
v -14471.5150 -10365.4325 -1399.6950
v -14463.0150 -10567.9325 -1399.6950
v -15127.5150 -11907.9325 -1399.6950
v -14689.5150 -9445.4325 -1399.6950
v -14594.0150 -9715.4325 -1399.6950
v -14386.5150 -10954.4325 -1399.6950
v -14336.5150 -11384.4325 -1399.6950
v -15127.5150 -11907.9325 -1399.6950
v -15127.5150 -11907.9325 -1399.6950
v -14594.0150 -9715.4325 -1399.6950
v -14463.0150 -10567.9325 -1399.6950
v -14426.5150 -10763.4325 -1399.6950
v -14386.5150 -10954.4325 -1399.6950
v -15127.5150 -11907.9325 -1399.6950
v -15127.5150 -11907.9325 -1399.6950
v -14463.0150 -10567.9325 -1399.6950
v -14426.5150 -10763.4325 -1399.6950
v -15678.0150 -8845.4325 600.3050
v -15665.0150 -9170.9325 600.3050
v -15127.5150 -11907.9325 600.3050
v -15127.5150 -11907.9325 600.3050
v -14450.0150 -15836.4325 600.3050
v -14107.5150 -17750.4325 600.3050
v -13491.5150 -17642.4325 600.3050
v -13271.5150 -17604.4325 600.3050
v -14129.0150 -12644.9325 600.3050
v -14129.0150 -12644.9325 600.3050
v -14175.5150 -12362.4325 600.3050
v -14336.5150 -11384.4325 600.3050
v -14336.5150 -11384.4325 600.3050
v -14127.0150 -11344.4325 600.3050
v -14165.0150 -11144.4325 600.3050
v -14386.5150 -10954.4325 600.3050
v -14212.5150 -10922.4325 600.3050
v -14249.5150 -10729.9325 600.3050
v -14463.0150 -10567.9325 600.3050
v -14270.0150 -10530.9325 600.3050
v -14308.0150 -10334.4325 600.3050
v -14594.0150 -9715.4325 600.3050
v -14510.5150 -9699.9325 600.3050
v -14562.5150 -9419.9325 600.3050
v -14689.5150 -9445.4325 600.3050
v -14823.5150 -8682.9325 600.3050
v -15678.0150 -8845.4325 600.3050
v -15127.5150 -11907.9325 600.3050
v -14107.5150 -17750.4325 600.3050
v -13491.5150 -17642.4325 600.3050
v -13491.5150 -17642.4325 600.3050
v -14129.0150 -12644.9325 600.3050
v -14336.5150 -11384.4325 600.3050
v -14336.5150 -11384.4325 600.3050
v -14165.0150 -11144.4325 600.3050
v -14344.0150 -11178.9325 600.3050
v -14386.5150 -10954.4325 600.3050
v -14249.5150 -10729.9325 600.3050
v -14426.5150 -10763.4325 600.3050
v -14463.0150 -10567.9325 600.3050
v -14308.0150 -10334.4325 600.3050
v -14471.5150 -10365.4325 600.3050
v -14594.0150 -9715.4325 600.3050
v -14562.5150 -9419.9325 600.3050
v -14689.5150 -9445.4325 600.3050
v -14689.5150 -9445.4325 600.3050
v -15678.0150 -8845.4325 600.3050
v -15127.5150 -11907.9325 600.3050
v -15127.5150 -11907.9325 600.3050
v -13491.5150 -17642.4325 600.3050
v -14336.5150 -11384.4325 600.3050
v -14336.5150 -11384.4325 600.3050
v -14344.0150 -11178.9325 600.3050
v -14386.5150 -10954.4325 600.3050
v -14463.0150 -10567.9325 600.3050
v -14471.5150 -10365.4325 600.3050
v -14594.0150 -9715.4325 600.3050
v -14594.0150 -9715.4325 600.3050
v -14689.5150 -9445.4325 600.3050
v -15127.5150 -11907.9325 600.3050
v -15127.5150 -11907.9325 600.3050
v -14336.5150 -11384.4325 600.3050
v -14386.5150 -10954.4325 600.3050
v -14463.0150 -10567.9325 600.3050
v -14594.0150 -9715.4325 600.3050
v -15127.5150 -11907.9325 600.3050
v -15127.5150 -11907.9325 600.3050
v -14386.5150 -10954.4325 600.3050
v -14426.5150 -10763.4325 600.3050
v -14426.5150 -10763.4325 600.3050
v -14463.0150 -10567.9325 600.3050
v -15127.5150 -11907.9325 600.3050
v -15127.5150 -11907.9325 -1399.6950
v -14450.0150 -15836.4325 -1399.6950
v -15127.5150 -11907.9325 600.3050
v -14450.0150 -15836.4325 -1399.6950
v -14450.0150 -15836.4325 600.3050
v -15127.5150 -11907.9325 600.3050
v -14450.0150 -15836.4325 -1399.6950
v -14107.5150 -17750.4325 -1399.6950
v -14450.0150 -15836.4325 600.3050
v -14107.5150 -17750.4325 -1399.6950
v -14107.5150 -17750.4325 600.3050
v -14450.0150 -15836.4325 600.3050
v -14107.5150 -17750.4325 -1399.6950
v -13491.5150 -17642.4325 -1399.6950
v -14107.5150 -17750.4325 600.3050
v -13491.5150 -17642.4325 -1399.6950
v -13491.5150 -17642.4325 600.3050
v -14107.5150 -17750.4325 600.3050
v -13491.5150 -17642.4325 -1399.6950
v -13271.5150 -17604.4325 -1399.6950
v -13491.5150 -17642.4325 600.3050
v -13271.5150 -17604.4325 -1399.6950
v -13271.5150 -17604.4325 600.3050
v -13491.5150 -17642.4325 600.3050
v -13271.5150 -17604.4325 -1399.6950
v -14129.0150 -12644.9325 -1399.6950
v -13271.5150 -17604.4325 600.3050
v -14129.0150 -12644.9325 -1399.6950
v -14129.0150 -12644.9325 600.3050
v -13271.5150 -17604.4325 600.3050
v -14129.0150 -12644.9325 -1399.6950
v -14175.5150 -12362.4325 -1399.6950
v -14129.0150 -12644.9325 600.3050
v -14175.5150 -12362.4325 -1399.6950
v -14175.5150 -12362.4325 600.3050
v -14129.0150 -12644.9325 600.3050
v -14175.5150 -12362.4325 -1399.6950
v -14336.5150 -11384.4325 -1399.6950
v -14175.5150 -12362.4325 600.3050
v -14336.5150 -11384.4325 -1399.6950
v -14336.5150 -11384.4325 600.3050
v -14175.5150 -12362.4325 600.3050
v -14336.5150 -11384.4325 -1399.6950
v -14127.0150 -11344.4325 -1399.6950
v -14336.5150 -11384.4325 600.3050
v -14127.0150 -11344.4325 -1399.6950
v -14127.0150 -11344.4325 600.3050
v -14336.5150 -11384.4325 600.3050
v -14127.0150 -11344.4325 -1399.6950
v -14165.0150 -11144.4325 -1399.6950
v -14127.0150 -11344.4325 600.3050
v -14165.0150 -11144.4325 -1399.6950
v -14165.0150 -11144.4325 600.3050
v -14127.0150 -11344.4325 600.3050
v -14165.0150 -11144.4325 -1399.6950
v -14344.0150 -11178.9325 -1399.6950
v -14165.0150 -11144.4325 600.3050
v -14344.0150 -11178.9325 -1399.6950
v -14344.0150 -11178.9325 600.3050
v -14165.0150 -11144.4325 600.3050
v -14344.0150 -11178.9325 -1399.6950
v -14386.5150 -10954.4325 -1399.6950
v -14344.0150 -11178.9325 600.3050
v -14386.5150 -10954.4325 -1399.6950
v -14386.5150 -10954.4325 600.3050
v -14344.0150 -11178.9325 600.3050
v -14386.5150 -10954.4325 -1399.6950
v -14212.5150 -10922.4325 -1399.6950
v -14386.5150 -10954.4325 600.3050
v -14212.5150 -10922.4325 -1399.6950
v -14212.5150 -10922.4325 600.3050
v -14386.5150 -10954.4325 600.3050
v -14212.5150 -10922.4325 -1399.6950
v -14249.5150 -10729.9325 -1399.6950
v -14212.5150 -10922.4325 600.3050
v -14249.5150 -10729.9325 -1399.6950
v -14249.5150 -10729.9325 600.3050
v -14212.5150 -10922.4325 600.3050
v -14249.5150 -10729.9325 -1399.6950
v -14426.5150 -10763.4325 -1399.6950
v -14249.5150 -10729.9325 600.3050
v -14426.5150 -10763.4325 -1399.6950
v -14426.5150 -10763.4325 600.3050
v -14249.5150 -10729.9325 600.3050
v -14426.5150 -10763.4325 -1399.6950
v -14463.0150 -10567.9325 -1399.6950
v -14426.5150 -10763.4325 600.3050
v -14463.0150 -10567.9325 -1399.6950
v -14463.0150 -10567.9325 600.3050
v -14426.5150 -10763.4325 600.3050
v -14463.0150 -10567.9325 -1399.6950
v -14270.0150 -10530.9325 -1399.6950
v -14463.0150 -10567.9325 600.3050
v -14270.0150 -10530.9325 -1399.6950
v -14270.0150 -10530.9325 600.3050
v -14463.0150 -10567.9325 600.3050
v -14270.0150 -10530.9325 -1399.6950
v -14308.0150 -10334.4325 -1399.6950
v -14270.0150 -10530.9325 600.3050
v -14308.0150 -10334.4325 -1399.6950
v -14308.0150 -10334.4325 600.3050
v -14270.0150 -10530.9325 600.3050
v -14308.0150 -10334.4325 -1399.6950
v -14471.5150 -10365.4325 -1399.6950
v -14308.0150 -10334.4325 600.3050
v -14471.5150 -10365.4325 -1399.6950
v -14471.5150 -10365.4325 600.3050
v -14308.0150 -10334.4325 600.3050
v -14471.5150 -10365.4325 -1399.6950
v -14594.0150 -9715.4325 -1399.6950
v -14471.5150 -10365.4325 600.3050
v -14594.0150 -9715.4325 -1399.6950
v -14594.0150 -9715.4325 600.3050
v -14471.5150 -10365.4325 600.3050
v -14594.0150 -9715.4325 -1399.6950
v -14510.5150 -9699.9325 -1399.6950
v -14594.0150 -9715.4325 600.3050
v -14510.5150 -9699.9325 -1399.6950
v -14510.5150 -9699.9325 600.3050
v -14594.0150 -9715.4325 600.3050
v -14510.5150 -9699.9325 -1399.6950
v -14562.5150 -9419.9325 -1399.6950
v -14510.5150 -9699.9325 600.3050
v -14562.5150 -9419.9325 -1399.6950
v -14562.5150 -9419.9325 600.3050
v -14510.5150 -9699.9325 600.3050
v -14562.5150 -9419.9325 -1399.6950
v -14689.5150 -9445.4325 -1399.6950
v -14562.5150 -9419.9325 600.3050
v -14689.5150 -9445.4325 -1399.6950
v -14689.5150 -9445.4325 600.3050
v -14562.5150 -9419.9325 600.3050
v -14689.5150 -9445.4325 -1399.6950
v -14823.5150 -8682.9325 -1399.6950
v -14689.5150 -9445.4325 600.3050
v -14823.5150 -8682.9325 -1399.6950
v -14823.5150 -8682.9325 600.3050
v -14689.5150 -9445.4325 600.3050
v -14823.5150 -8682.9325 -1399.6950
v -15678.0150 -8845.4325 -1399.6950
v -14823.5150 -8682.9325 600.3050
v -15678.0150 -8845.4325 -1399.6950
v -15678.0150 -8845.4325 600.3050
v -14823.5150 -8682.9325 600.3050
v -15678.0150 -8845.4325 -1399.6950
v -15665.0150 -9170.9325 -1399.6950
v -15678.0150 -8845.4325 600.3050
v -15665.0150 -9170.9325 -1399.6950
v -15665.0150 -9170.9325 600.3050
v -15678.0150 -8845.4325 600.3050
v -15665.0150 -9170.9325 -1399.6950
v -15127.5150 -11907.9325 -1399.6950
v -15665.0150 -9170.9325 600.3050
v -15127.5150 -11907.9325 -1399.6950
v -15127.5150 -11907.9325 600.3050
v -15665.0150 -9170.9325 600.3050
f 3 2 1
f 6 5 4
f 9 8 7
f 12 11 10
f 15 14 13
f 18 17 16
f 21 20 19
f 24 23 22
f 27 26 25
f 30 29 28
f 33 32 31
f 36 35 34
f 39 38 37
f 42 41 40
f 45 44 43
f 48 47 46
f 51 50 49
f 54 53 52
f 57 56 55
f 60 59 58
f 63 62 61
f 66 65 64
f 69 68 67
f 72 71 70
f 75 74 73
f 78 77 76
f 81 80 79
f 84 83 82
f 87 86 85
f 90 89 88
f 93 92 91
f 96 95 94
f 99 98 97
f 102 101 100
f 105 104 103
f 108 107 106
f 111 110 109
f 114 113 112
f 117 116 115
f 120 119 118
f 123 122 121
f 126 125 124
f 129 128 127
f 132 131 130
f 135 134 133
f 138 137 136
f 141 140 139
f 144 143 142
f 147 146 145
f 150 149 148
f 153 152 151
f 156 155 154
f 159 158 157
f 162 161 160
f 165 164 163
f 168 167 166
f 171 170 169
f 174 173 172
f 177 176 175
f 180 179 178
f 183 182 181
f 186 185 184
f 189 188 187
f 192 191 190
f 195 194 193
f 198 197 196
f 201 200 199
f 204 203 202
f 207 206 205
f 210 209 208
f 213 212 211
f 216 215 214
f 219 218 217
f 222 221 220
f 225 224 223
f 228 227 226
f 231 230 229
f 234 233 232
f 237 236 235
f 240 239 238
f 243 242 241
f 246 245 244
f 249 248 247
f 252 251 250
f 255 254 253
f 258 257 256
f 261 260 259
f 264 263 262
f 267 266 265
f 270 269 268
f 273 272 271
f 276 275 274
f 279 278 277
f 282 281 280
f 285 284 283
f 288 287 286
f 291 290 289
f 294 293 292
f 297 296 295
f 300 299 298
f 303 302 301
f 306 305 304
f 309 308 307
f 312 311 310
f 315 314 313
f 318 317 316
f 321 320 319
f 324 323 322
f 327 326 325
f 330 329 328
f 333 332 331
f 336 335 334
f 339 338 337
f 342 341 340
f 345 344 343
f 348 347 346
f 351 350 349
f 354 353 352
f 357 356 355
f 360 359 358
f 363 362 361
f 366 365 364
f 369 368 367
f 372 371 370
f 375 374 373
f 378 377 376
f 381 380 379
f 384 383 382
f 387 386 385
f 390 389 388
f 393 392 391
f 396 395 394
f 399 398 397
f 402 401 400
f 405 404 403
f 408 407 406
