# SM_JerusalemBuildings_Grid_N001_N003_PrecinctOut
o SM_JerusalemBuildings_Grid_N001_N003_PrecinctOut
v -1478.5150 29073.0675 -640.5800
v -1374.5150 28460.5675 -640.5800
v -2435.5150 28280.5675 -640.5800
v -2085.0150 25654.5675 -640.5800
v -3134.0150 25564.5675 -640.5800
v -3499.0150 28829.5675 -640.5800
v -3499.0150 28829.5675 -640.5800
v -1478.5150 29073.0675 -640.5800
v -2435.5150 28280.5675 -640.5800
v -2435.5150 28280.5675 -640.5800
v -2085.0150 25654.5675 -640.5800
v -3499.0150 28829.5675 -640.5800
v -2435.5150 28280.5675 -40.5800
v -1374.5150 28460.5675 -40.5800
v -1478.5150 29073.0675 -40.5800
v -3499.0150 28829.5675 -40.5800
v -3134.0150 25564.5675 -40.5800
v -2085.0150 25654.5675 -40.5800
v -2435.5150 28280.5675 -40.5800
v -1478.5150 29073.0675 -40.5800
v -3499.0150 28829.5675 -40.5800
v -3499.0150 28829.5675 -40.5800
v -2085.0150 25654.5675 -40.5800
v -2435.5150 28280.5675 -40.5800
v -1478.5150 29073.0675 -640.5800
v -3499.0150 28829.5675 -640.5800
v -1478.5150 29073.0675 -40.5800
v -3499.0150 28829.5675 -640.5800
v -3499.0150 28829.5675 -40.5800
v -1478.5150 29073.0675 -40.5800
v -3499.0150 28829.5675 -640.5800
v -3134.0150 25564.5675 -640.5800
v -3499.0150 28829.5675 -40.5800
v -3134.0150 25564.5675 -640.5800
v -3134.0150 25564.5675 -40.5800
v -3499.0150 28829.5675 -40.5800
v -3134.0150 25564.5675 -640.5800
v -2085.0150 25654.5675 -640.5800
v -3134.0150 25564.5675 -40.5800
v -2085.0150 25654.5675 -640.5800
v -2085.0150 25654.5675 -40.5800
v -3134.0150 25564.5675 -40.5800
v -2085.0150 25654.5675 -640.5800
v -2435.5150 28280.5675 -640.5800
v -2085.0150 25654.5675 -40.5800
v -2435.5150 28280.5675 -640.5800
v -2435.5150 28280.5675 -40.5800
v -2085.0150 25654.5675 -40.5800
v -2435.5150 28280.5675 -640.5800
v -1374.5150 28460.5675 -640.5800
v -2435.5150 28280.5675 -40.5800
v -1374.5150 28460.5675 -640.5800
v -1374.5150 28460.5675 -40.5800
v -2435.5150 28280.5675 -40.5800
v -1374.5150 28460.5675 -640.5800
v -1478.5150 29073.0675 -640.5800
v -1374.5150 28460.5675 -40.5800
v -1478.5150 29073.0675 -640.5800
v -1478.5150 29073.0675 -40.5800
v -1374.5150 28460.5675 -40.5800
v -5356.5150 29636.5675 -171.7000
v -4162.5150 29881.0675 -171.7000
v -4040.5150 29288.5675 -171.7000
v -5489.0150 28999.5675 -171.7000
v -5549.5150 29241.0675 -171.7000
v -5289.5150 29296.5675 -171.7000
v -5289.5150 29296.5675 -171.7000
v -5356.5150 29636.5675 -171.7000
v -4040.5150 29288.5675 -171.7000
v -4040.5150 29288.5675 -171.7000
v -5489.0150 28999.5675 -171.7000
v -5289.5150 29296.5675 -171.7000
v -4040.5150 29288.5675 728.3000
v -4162.5150 29881.0675 728.3000
v -5356.5150 29636.5675 728.3000
v -5289.5150 29296.5675 728.3000
v -5549.5150 29241.0675 728.3000
v -5489.0150 28999.5675 728.3000
v -4040.5150 29288.5675 728.3000
v -5356.5150 29636.5675 728.3000
v -5289.5150 29296.5675 728.3000
v -5289.5150 29296.5675 728.3000
v -5489.0150 28999.5675 728.3000
v -4040.5150 29288.5675 728.3000
v -5356.5150 29636.5675 -171.7000
v -5289.5150 29296.5675 -171.7000
v -5356.5150 29636.5675 728.3000
v -5289.5150 29296.5675 -171.7000
v -5289.5150 29296.5675 728.3000
v -5356.5150 29636.5675 728.3000
v -5289.5150 29296.5675 -171.7000
v -5549.5150 29241.0675 -171.7000
v -5289.5150 29296.5675 728.3000
v -5549.5150 29241.0675 -171.7000
v -5549.5150 29241.0675 728.3000
v -5289.5150 29296.5675 728.3000
v -5549.5150 29241.0675 -171.7000
v -5489.0150 28999.5675 -171.7000
v -5549.5150 29241.0675 728.3000
v -5489.0150 28999.5675 -171.7000
v -5489.0150 28999.5675 728.3000
v -5549.5150 29241.0675 728.3000
v -5489.0150 28999.5675 -171.7000
v -4040.5150 29288.5675 -171.7000
v -5489.0150 28999.5675 728.3000
v -4040.5150 29288.5675 -171.7000
v -4040.5150 29288.5675 728.3000
v -5489.0150 28999.5675 728.3000
v -4040.5150 29288.5675 -171.7000
v -4162.5150 29881.0675 -171.7000
v -4040.5150 29288.5675 728.3000
v -4162.5150 29881.0675 -171.7000
v -4162.5150 29881.0675 728.3000
v -4040.5150 29288.5675 728.3000
v -4162.5150 29881.0675 -171.7000
v -5356.5150 29636.5675 -171.7000
v -4162.5150 29881.0675 728.3000
v -5356.5150 29636.5675 -171.7000
v -5356.5150 29636.5675 728.3000
v -4162.5150 29881.0675 728.3000
v -8015.0150 29336.5675 -61.8400
v -6876.5150 29528.5675 -61.8400
v -6742.0150 28736.0675 -61.8400
v -6742.0150 28736.0675 -61.8400
v -7880.5150 28544.0675 -61.8400
v -8015.0150 29336.5675 -61.8400
v -6742.0150 28736.0675 838.1600
v -6876.5150 29528.5675 838.1600
v -8015.0150 29336.5675 838.1600
v -8015.0150 29336.5675 838.1600
v -7880.5150 28544.0675 838.1600
v -6742.0150 28736.0675 838.1600
v -8015.0150 29336.5675 -61.8400
v -7880.5150 28544.0675 -61.8400
v -8015.0150 29336.5675 838.1600
v -7880.5150 28544.0675 -61.8400
v -7880.5150 28544.0675 838.1600
v -8015.0150 29336.5675 838.1600
v -7880.5150 28544.0675 -61.8400
v -6742.0150 28736.0675 -61.8400
v -7880.5150 28544.0675 838.1600
v -6742.0150 28736.0675 -61.8400
v -6742.0150 28736.0675 838.1600
v -7880.5150 28544.0675 838.1600
v -6742.0150 28736.0675 -61.8400
v -6876.5150 29528.5675 -61.8400
v -6742.0150 28736.0675 838.1600
v -6876.5150 29528.5675 -61.8400
v -6876.5150 29528.5675 838.1600
v -6742.0150 28736.0675 838.1600
v -6876.5150 29528.5675 -61.8400
v -8015.0150 29336.5675 -61.8400
v -6876.5150 29528.5675 838.1600
v -8015.0150 29336.5675 -61.8400
v -8015.0150 29336.5675 838.1600
v -6876.5150 29528.5675 838.1600
v -8614.0150 29158.5675 -60.2400
v -8116.0150 29193.0675 -60.2400
v -8062.0150 28584.0675 -60.2400
v -8062.0150 28584.0675 -60.2400
v -8594.0150 28567.5675 -60.2400
v -8614.0150 29158.5675 -60.2400
v -8062.0150 28584.0675 839.7600
v -8116.0150 29193.0675 839.7600
v -8614.0150 29158.5675 839.7600
v -8614.0150 29158.5675 839.7600
v -8594.0150 28567.5675 839.7600
v -8062.0150 28584.0675 839.7600
v -8614.0150 29158.5675 -60.2400
v -8594.0150 28567.5675 -60.2400
v -8614.0150 29158.5675 839.7600
v -8594.0150 28567.5675 -60.2400
v -8594.0150 28567.5675 839.7600
v -8614.0150 29158.5675 839.7600
v -8594.0150 28567.5675 -60.2400
v -8062.0150 28584.0675 -60.2400
v -8594.0150 28567.5675 839.7600
v -8062.0150 28584.0675 -60.2400
v -8062.0150 28584.0675 839.7600
v -8594.0150 28567.5675 839.7600
v -8062.0150 28584.0675 -60.2400
v -8116.0150 29193.0675 -60.2400
v -8062.0150 28584.0675 839.7600
v -8116.0150 29193.0675 -60.2400
v -8116.0150 29193.0675 839.7600
v -8062.0150 28584.0675 839.7600
v -8116.0150 29193.0675 -60.2400
v -8614.0150 29158.5675 -60.2400
v -8116.0150 29193.0675 839.7600
v -8614.0150 29158.5675 -60.2400
v -8614.0150 29158.5675 839.7600
v -8116.0150 29193.0675 839.7600
v -10556.0150 29551.0675 60.5200
v -9398.5150 29678.5675 60.5200
v -9394.5150 28796.0675 60.5200
v -10181.0150 29097.5675 60.5200
v -10545.5150 29042.0675 60.5200
v -10556.0150 29551.0675 60.5200
v -9394.5150 28796.0675 60.5200
v -10164.0150 28696.0675 60.5200
v -10181.0150 29097.5675 60.5200
v -10181.0150 29097.5675 60.5200
v -10556.0150 29551.0675 60.5200
v -9394.5150 28796.0675 60.5200
v -9394.5150 28796.0675 660.5200
v -9398.5150 29678.5675 660.5200
v -10556.0150 29551.0675 660.5200
v -10556.0150 29551.0675 660.5200
v -10545.5150 29042.0675 660.5200
v -10181.0150 29097.5675 660.5200
v -10181.0150 29097.5675 660.5200
v -10164.0150 28696.0675 660.5200
v -9394.5150 28796.0675 660.5200
v -9394.5150 28796.0675 660.5200
v -10556.0150 29551.0675 660.5200
v -10181.0150 29097.5675 660.5200
v -10556.0150 29551.0675 60.5200
v -10545.5150 29042.0675 60.5200
v -10556.0150 29551.0675 660.5200
v -10545.5150 29042.0675 60.5200
v -10545.5150 29042.0675 660.5200
v -10556.0150 29551.0675 660.5200
v -10545.5150 29042.0675 60.5200
v -10181.0150 29097.5675 60.5200
v -10545.5150 29042.0675 660.5200
v -10181.0150 29097.5675 60.5200
v -10181.0150 29097.5675 660.5200
v -10545.5150 29042.0675 660.5200
v -10181.0150 29097.5675 60.5200
v -10164.0150 28696.0675 60.5200
v -10181.0150 29097.5675 660.5200
v -10164.0150 28696.0675 60.5200
v -10164.0150 28696.0675 660.5200
v -10181.0150 29097.5675 660.5200
v -10164.0150 28696.0675 60.5200
v -9394.5150 28796.0675 60.5200
v -10164.0150 28696.0675 660.5200
v -9394.5150 28796.0675 60.5200
v -9394.5150 28796.0675 660.5200
v -10164.0150 28696.0675 660.5200
v -9394.5150 28796.0675 60.5200
v -9398.5150 29678.5675 60.5200
v -9394.5150 28796.0675 660.5200
v -9398.5150 29678.5675 60.5200
v -9398.5150 29678.5675 660.5200
v -9394.5150 28796.0675 660.5200
v -9398.5150 29678.5675 60.5200
v -10556.0150 29551.0675 60.5200
v -9398.5150 29678.5675 660.5200
v -10556.0150 29551.0675 60.5200
v -10556.0150 29551.0675 660.5200
v -9398.5150 29678.5675 660.5200
v -5740.0150 28410.5675 -280.9200
v -3972.0150 28605.0675 -280.9200
v -3923.0150 28099.5675 -280.9200
v -5182.5150 27759.5675 -280.9200
v -5655.0150 27742.5675 -280.9200
v -5740.0150 28410.5675 -280.9200
v -4410.5150 27617.0675 -280.9200
v -5161.5150 27546.0675 -280.9200
v -5182.5150 27759.5675 -280.9200
v -5740.0150 28410.5675 -280.9200
v -3923.0150 28099.5675 -280.9200
v -4451.0150 28049.5675 -280.9200
v -4410.5150 27617.0675 -280.9200
v -5182.5150 27759.5675 -280.9200
v -5740.0150 28410.5675 -280.9200
v -5740.0150 28410.5675 -280.9200
v -4451.0150 28049.5675 -280.9200
v -4410.5150 27617.0675 -280.9200
v -3923.0150 28099.5675 619.0800
v -3972.0150 28605.0675 619.0800
v -5740.0150 28410.5675 619.0800
v -5740.0150 28410.5675 619.0800
v -5655.0150 27742.5675 619.0800
v -5182.5150 27759.5675 619.0800
v -5182.5150 27759.5675 619.0800
v -5161.5150 27546.0675 619.0800
v -4410.5150 27617.0675 619.0800
v -4451.0150 28049.5675 619.0800
v -3923.0150 28099.5675 619.0800
v -5740.0150 28410.5675 619.0800
v -5740.0150 28410.5675 619.0800
v -5182.5150 27759.5675 619.0800
v -4410.5150 27617.0675 619.0800
v -4410.5150 27617.0675 619.0800
v -4451.0150 28049.5675 619.0800
v -5740.0150 28410.5675 619.0800
v -5740.0150 28410.5675 -280.9200
v -5655.0150 27742.5675 -280.9200
v -5740.0150 28410.5675 619.0800
v -5655.0150 27742.5675 -280.9200
v -5655.0150 27742.5675 619.0800
v -5740.0150 28410.5675 619.0800
v -5655.0150 27742.5675 -280.9200
v -5182.5150 27759.5675 -280.9200
v -5655.0150 27742.5675 619.0800
v -5182.5150 27759.5675 -280.9200
v -5182.5150 27759.5675 619.0800
v -5655.0150 27742.5675 619.0800
v -5182.5150 27759.5675 -280.9200
v -5161.5150 27546.0675 -280.9200
v -5182.5150 27759.5675 619.0800
v -5161.5150 27546.0675 -280.9200
v -5161.5150 27546.0675 619.0800
v -5182.5150 27759.5675 619.0800
v -5161.5150 27546.0675 -280.9200
v -4410.5150 27617.0675 -280.9200
v -5161.5150 27546.0675 619.0800
v -4410.5150 27617.0675 -280.9200
v -4410.5150 27617.0675 619.0800
v -5161.5150 27546.0675 619.0800
v -4410.5150 27617.0675 -280.9200
v -4451.0150 28049.5675 -280.9200
v -4410.5150 27617.0675 619.0800
v -4451.0150 28049.5675 -280.9200
v -4451.0150 28049.5675 619.0800
v -4410.5150 27617.0675 619.0800
v -4451.0150 28049.5675 -280.9200
v -3923.0150 28099.5675 -280.9200
v -4451.0150 28049.5675 619.0800
v -3923.0150 28099.5675 -280.9200
v -3923.0150 28099.5675 619.0800
v -4451.0150 28049.5675 619.0800
v -3923.0150 28099.5675 -280.9200
v -3972.0150 28605.0675 -280.9200
v -3923.0150 28099.5675 619.0800
v -3972.0150 28605.0675 -280.9200
v -3972.0150 28605.0675 619.0800
v -3923.0150 28099.5675 619.0800
v -3972.0150 28605.0675 -280.9200
v -5740.0150 28410.5675 -280.9200
v -3972.0150 28605.0675 619.0800
v -5740.0150 28410.5675 -280.9200
v -5740.0150 28410.5675 619.0800
v -3972.0150 28605.0675 619.0800
v -4399.0150 27396.0675 -378.9000
v -3827.5150 27466.0675 -378.9000
v -3772.5150 27100.5675 -378.9000
v -3772.5150 27100.5675 -378.9000
v -4389.5150 27050.5675 -378.9000
v -4399.0150 27396.0675 -378.9000
v -3772.5150 27100.5675 521.1000
v -3827.5150 27466.0675 521.1000
v -4399.0150 27396.0675 521.1000
v -4399.0150 27396.0675 521.1000
v -4389.5150 27050.5675 521.1000
v -3772.5150 27100.5675 521.1000
v -4399.0150 27396.0675 -378.9000
v -4389.5150 27050.5675 -378.9000
v -4399.0150 27396.0675 521.1000
v -4389.5150 27050.5675 -378.9000
v -4389.5150 27050.5675 521.1000
v -4399.0150 27396.0675 521.1000
v -4389.5150 27050.5675 -378.9000
v -3772.5150 27100.5675 -378.9000
v -4389.5150 27050.5675 521.1000
v -3772.5150 27100.5675 -378.9000
v -3772.5150 27100.5675 521.1000
v -4389.5150 27050.5675 521.1000
v -3772.5150 27100.5675 -378.9000
v -3827.5150 27466.0675 -378.9000
v -3772.5150 27100.5675 521.1000
v -3827.5150 27466.0675 -378.9000
v -3827.5150 27466.0675 521.1000
v -3772.5150 27100.5675 521.1000
v -3827.5150 27466.0675 -378.9000
v -4399.0150 27396.0675 -378.9000
v -3827.5150 27466.0675 521.1000
v -4399.0150 27396.0675 -378.9000
v -4399.0150 27396.0675 521.1000
v -3827.5150 27466.0675 521.1000
v -8993.5150 27859.5675 -154.8200
v -8510.0150 27940.5675 -154.8200
v -8380.0150 27172.5675 -154.8200
v -8380.0150 27172.5675 -154.8200
v -8864.0150 27091.5675 -154.8200
v -8993.5150 27859.5675 -154.8200
v -8380.0150 27172.5675 445.1800
v -8510.0150 27940.5675 445.1800
v -8993.5150 27859.5675 445.1800
v -8993.5150 27859.5675 445.1800
v -8864.0150 27091.5675 445.1800
v -8380.0150 27172.5675 445.1800
v -8993.5150 27859.5675 -154.8200
v -8864.0150 27091.5675 -154.8200
v -8993.5150 27859.5675 445.1800
v -8864.0150 27091.5675 -154.8200
v -8864.0150 27091.5675 445.1800
v -8993.5150 27859.5675 445.1800
v -8864.0150 27091.5675 -154.8200
v -8380.0150 27172.5675 -154.8200
v -8864.0150 27091.5675 445.1800
v -8380.0150 27172.5675 -154.8200
v -8380.0150 27172.5675 445.1800
v -8864.0150 27091.5675 445.1800
v -8380.0150 27172.5675 -154.8200
v -8510.0150 27940.5675 -154.8200
v -8380.0150 27172.5675 445.1800
v -8510.0150 27940.5675 -154.8200
v -8510.0150 27940.5675 445.1800
v -8380.0150 27172.5675 445.1800
v -8510.0150 27940.5675 -154.8200
v -8993.5150 27859.5675 -154.8200
v -8510.0150 27940.5675 445.1800
v -8993.5150 27859.5675 -154.8200
v -8993.5150 27859.5675 445.1800
v -8510.0150 27940.5675 445.1800
v -9744.0150 26214.5675 -326.0600
v -8752.0150 26351.5675 -326.0600
v -8660.5150 25921.5675 -326.0600
v -8940.5150 25664.5675 -326.0600
v -9702.0150 25582.5675 -326.0600
v -9744.0150 26214.5675 -326.0600
v -9744.0150 26214.5675 -326.0600
v -8660.5150 25921.5675 -326.0600
v -8940.5150 25664.5675 -326.0600
v -8660.5150 25921.5675 273.9400
v -8752.0150 26351.5675 273.9400
v -9744.0150 26214.5675 273.9400
v -9744.0150 26214.5675 273.9400
v -9702.0150 25582.5675 273.9400
v -8940.5150 25664.5675 273.9400
v -8940.5150 25664.5675 273.9400
v -8660.5150 25921.5675 273.9400
v -9744.0150 26214.5675 273.9400
v -9744.0150 26214.5675 -326.0600
v -9702.0150 25582.5675 -326.0600
v -9744.0150 26214.5675 273.9400
v -9702.0150 25582.5675 -326.0600
v -9702.0150 25582.5675 273.9400
v -9744.0150 26214.5675 273.9400
v -9702.0150 25582.5675 -326.0600
v -8940.5150 25664.5675 -326.0600
v -9702.0150 25582.5675 273.9400
v -8940.5150 25664.5675 -326.0600
v -8940.5150 25664.5675 273.9400
v -9702.0150 25582.5675 273.9400
v -8940.5150 25664.5675 -326.0600
v -8660.5150 25921.5675 -326.0600
v -8940.5150 25664.5675 273.9400
v -8660.5150 25921.5675 -326.0600
v -8660.5150 25921.5675 273.9400
v -8940.5150 25664.5675 273.9400
v -8660.5150 25921.5675 -326.0600
v -8752.0150 26351.5675 -326.0600
v -8660.5150 25921.5675 273.9400
v -8752.0150 26351.5675 -326.0600
v -8752.0150 26351.5675 273.9400
v -8660.5150 25921.5675 273.9400
v -8752.0150 26351.5675 -326.0600
v -9744.0150 26214.5675 -326.0600
v -8752.0150 26351.5675 273.9400
v -9744.0150 26214.5675 -326.0600
v -9744.0150 26214.5675 273.9400
v -8752.0150 26351.5675 273.9400
v -5536.5150 27634.0675 -295.9400
v -5262.0150 27650.5675 -295.9400
v -5250.5150 27458.0675 -295.9400
v -5062.5150 27163.5675 -295.9400
v -5506.0150 27137.0675 -295.9400
v -5536.5150 27634.0675 -295.9400
v -4697.0150 27037.0675 -295.9400
v -5054.0150 27016.0675 -295.9400
v -5062.5150 27163.5675 -295.9400
v -5250.5150 27458.0675 -295.9400
v -4724.5150 27489.5675 -295.9400
v -4697.0150 27037.0675 -295.9400
v -5062.5150 27163.5675 -295.9400
v -5536.5150 27634.0675 -295.9400
v -5250.5150 27458.0675 -295.9400
v -5250.5150 27458.0675 -295.9400
v -4697.0150 27037.0675 -295.9400
v -5062.5150 27163.5675 -295.9400
v -5250.5150 27458.0675 304.0600
v -5262.0150 27650.5675 304.0600
v -5536.5150 27634.0675 304.0600
v -5536.5150 27634.0675 304.0600
v -5506.0150 27137.0675 304.0600
v -5062.5150 27163.5675 304.0600
v -5062.5150 27163.5675 304.0600
v -5054.0150 27016.0675 304.0600
v -4697.0150 27037.0675 304.0600
v -4697.0150 27037.0675 304.0600
v -4724.5150 27489.5675 304.0600
v -5250.5150 27458.0675 304.0600
v -5250.5150 27458.0675 304.0600
v -5536.5150 27634.0675 304.0600
v -5062.5150 27163.5675 304.0600
v -5062.5150 27163.5675 304.0600
v -4697.0150 27037.0675 304.0600
v -5250.5150 27458.0675 304.0600
v -5536.5150 27634.0675 -295.9400
v -5506.0150 27137.0675 -295.9400
v -5536.5150 27634.0675 304.0600
v -5506.0150 27137.0675 -295.9400
v -5506.0150 27137.0675 304.0600
v -5536.5150 27634.0675 304.0600
v -5506.0150 27137.0675 -295.9400
v -5062.5150 27163.5675 -295.9400
v -5506.0150 27137.0675 304.0600
v -5062.5150 27163.5675 -295.9400
v -5062.5150 27163.5675 304.0600
v -5506.0150 27137.0675 304.0600
v -5062.5150 27163.5675 -295.9400
v -5054.0150 27016.0675 -295.9400
v -5062.5150 27163.5675 304.0600
v -5054.0150 27016.0675 -295.9400
v -5054.0150 27016.0675 304.0600
v -5062.5150 27163.5675 304.0600
v -5054.0150 27016.0675 -295.9400
v -4697.0150 27037.0675 -295.9400
v -5054.0150 27016.0675 304.0600
v -4697.0150 27037.0675 -295.9400
v -4697.0150 27037.0675 304.0600
v -5054.0150 27016.0675 304.0600
v -4697.0150 27037.0675 -295.9400
v -4724.5150 27489.5675 -295.9400
v -4697.0150 27037.0675 304.0600
v -4724.5150 27489.5675 -295.9400
v -4724.5150 27489.5675 304.0600
v -4697.0150 27037.0675 304.0600
v -4724.5150 27489.5675 -295.9400
v -5250.5150 27458.0675 -295.9400
v -4724.5150 27489.5675 304.0600
v -5250.5150 27458.0675 -295.9400
v -5250.5150 27458.0675 304.0600
v -4724.5150 27489.5675 304.0600
v -5250.5150 27458.0675 -295.9400
v -5262.0150 27650.5675 -295.9400
v -5250.5150 27458.0675 304.0600
v -5262.0150 27650.5675 -295.9400
v -5262.0150 27650.5675 304.0600
v -5250.5150 27458.0675 304.0600
v -5262.0150 27650.5675 -295.9400
v -5536.5150 27634.0675 -295.9400
v -5262.0150 27650.5675 304.0600
v -5536.5150 27634.0675 -295.9400
v -5536.5150 27634.0675 304.0600
v -5262.0150 27650.5675 304.0600
v -6875.5150 28187.0675 -159.0600
v -5800.5150 28385.0675 -159.0600
v -5721.0150 27724.0675 -159.0600
v -5721.0150 27724.0675 -159.0600
v -6767.5150 27530.5675 -159.0600
v -6875.5150 28187.0675 -159.0600
v -5721.0150 27724.0675 740.9400
v -5800.5150 28385.0675 740.9400
v -6875.5150 28187.0675 740.9400
v -6875.5150 28187.0675 740.9400
v -6767.5150 27530.5675 740.9400
v -5721.0150 27724.0675 740.9400
v -6875.5150 28187.0675 -159.0600
v -6767.5150 27530.5675 -159.0600
v -6875.5150 28187.0675 740.9400
v -6767.5150 27530.5675 -159.0600
v -6767.5150 27530.5675 740.9400
v -6875.5150 28187.0675 740.9400
v -6767.5150 27530.5675 -159.0600
v -5721.0150 27724.0675 -159.0600
v -6767.5150 27530.5675 740.9400
v -5721.0150 27724.0675 -159.0600
v -5721.0150 27724.0675 740.9400
v -6767.5150 27530.5675 740.9400
v -5721.0150 27724.0675 -159.0600
v -5800.5150 28385.0675 -159.0600
v -5721.0150 27724.0675 740.9400
v -5800.5150 28385.0675 -159.0600
v -5800.5150 28385.0675 740.9400
v -5721.0150 27724.0675 740.9400
v -5800.5150 28385.0675 -159.0600
v -6875.5150 28187.0675 -159.0600
v -5800.5150 28385.0675 740.9400
v -6875.5150 28187.0675 -159.0600
v -6875.5150 28187.0675 740.9400
v -5800.5150 28385.0675 740.9400
f 3 2 1
f 6 5 4
f 9 8 7
f 12 11 10
f 15 14 13
f 18 17 16
f 21 20 19
f 24 23 22
f 27 26 25
f 30 29 28
f 33 32 31
f 36 35 34
f 39 38 37
f 42 41 40
f 45 44 43
f 48 47 46
f 51 50 49
f 54 53 52
f 57 56 55
f 60 59 58
f 63 62 61
f 66 65 64
f 69 68 67
f 72 71 70
f 75 74 73
f 78 77 76
f 81 80 79
f 84 83 82
f 87 86 85
f 90 89 88
f 93 92 91
f 96 95 94
f 99 98 97
f 102 101 100
f 105 104 103
f 108 107 106
f 111 110 109
f 114 113 112
f 117 116 115
f 120 119 118
f 123 122 121
f 126 125 124
f 129 128 127
f 132 131 130
f 135 134 133
f 138 137 136
f 141 140 139
f 144 143 142
f 147 146 145
f 150 149 148
f 153 152 151
f 156 155 154
f 159 158 157
f 162 161 160
f 165 164 163
f 168 167 166
f 171 170 169
f 174 173 172
f 177 176 175
f 180 179 178
f 183 182 181
f 186 185 184
f 189 188 187
f 192 191 190
f 195 194 193
f 198 197 196
f 201 200 199
f 204 203 202
f 207 206 205
f 210 209 208
f 213 212 211
f 216 215 214
f 219 218 217
f 222 221 220
f 225 224 223
f 228 227 226
f 231 230 229
f 234 233 232
f 237 236 235
f 240 239 238
f 243 242 241
f 246 245 244
f 249 248 247
f 252 251 250
f 255 254 253
f 258 257 256
f 261 260 259
f 264 263 262
f 267 266 265
f 270 269 268
f 273 272 271
f 276 275 274
f 279 278 277
f 282 281 280
f 285 284 283
f 288 287 286
f 291 290 289
f 294 293 292
f 297 296 295
f 300 299 298
f 303 302 301
f 306 305 304
f 309 308 307
f 312 311 310
f 315 314 313
f 318 317 316
f 321 320 319
f 324 323 322
f 327 326 325
f 330 329 328
f 333 332 331
f 336 335 334
f 339 338 337
f 342 341 340
f 345 344 343
f 348 347 346
f 351 350 349
f 354 353 352
f 357 356 355
f 360 359 358
f 363 362 361
f 366 365 364
f 369 368 367
f 372 371 370
f 375 374 373
f 378 377 376
f 381 380 379
f 384 383 382
f 387 386 385
f 390 389 388
f 393 392 391
f 396 395 394
f 399 398 397
f 402 401 400
f 405 404 403
f 408 407 406
f 411 410 409
f 414 413 412
f 417 416 415
f 420 419 418
f 423 422 421
f 426 425 424
f 429 428 427
f 432 431 430
f 435 434 433
f 438 437 436
f 441 440 439
f 444 443 442
f 447 446 445
f 450 449 448
f 453 452 451
f 456 455 454
f 459 458 457
f 462 461 460
f 465 464 463
f 468 467 466
f 471 470 469
f 474 473 472
f 477 476 475
f 480 479 478
f 483 482 481
f 486 485 484
f 489 488 487
f 492 491 490
f 495 494 493
f 498 497 496
f 501 500 499
f 504 503 502
f 507 506 505
f 510 509 508
f 513 512 511
f 516 515 514
f 519 518 517
f 522 521 520
f 525 524 523
f 528 527 526
f 531 530 529
f 534 533 532
f 537 536 535
f 540 539 538
f 543 542 541
f 546 545 544
f 549 548 547
f 552 551 550
f 555 554 553
f 558 557 556
f 561 560 559
f 564 563 562
f 567 566 565
f 570 569 568
f 573 572 571
f 576 575 574
