# SM_JerusalemBuildings_Grid_N002_N001_PrecinctIn
o SM_JerusalemBuildings_Grid_N002_N001_PrecinctIn
v -10490.5150 2123.5675 -2.5000
v -10634.5150 2287.0675 -2.5000
v -10663.5150 2463.5675 -2.5000
v -10060.0150 2168.0675 -2.5000
v -10292.5150 2072.5675 -2.5000
v -10490.5150 2123.5675 -2.5000
v -9985.0150 2601.5675 -2.5000
v -9946.5150 2390.0675 -2.5000
v -10060.0150 2168.0675 -2.5000
v -10313.5150 2792.5675 -2.5000
v -10119.5150 2741.5675 -2.5000
v -9985.0150 2601.5675 -2.5000
v -10663.5150 2463.5675 -2.5000
v -10549.0150 2697.0675 -2.5000
v -10313.5150 2792.5675 -2.5000
v -10060.0150 2168.0675 -2.5000
v -10490.5150 2123.5675 -2.5000
v -10663.5150 2463.5675 -2.5000
v -10313.5150 2792.5675 -2.5000
v -9985.0150 2601.5675 -2.5000
v -10060.0150 2168.0675 -2.5000
v -10060.0150 2168.0675 -2.5000
v -10663.5150 2463.5675 -2.5000
v -10313.5150 2792.5675 -2.5000
v -10663.5150 2463.5675 897.5000
v -10634.5150 2287.0675 897.5000
v -10490.5150 2123.5675 897.5000
v -10490.5150 2123.5675 897.5000
v -10292.5150 2072.5675 897.5000
v -10060.0150 2168.0675 897.5000
v -10060.0150 2168.0675 897.5000
v -9946.5150 2390.0675 897.5000
v -9985.0150 2601.5675 897.5000
v -9985.0150 2601.5675 897.5000
v -10119.5150 2741.5675 897.5000
v -10313.5150 2792.5675 897.5000
v -10313.5150 2792.5675 897.5000
v -10549.0150 2697.0675 897.5000
v -10663.5150 2463.5675 897.5000
v -10663.5150 2463.5675 897.5000
v -10490.5150 2123.5675 897.5000
v -10060.0150 2168.0675 897.5000
v -10060.0150 2168.0675 897.5000
v -9985.0150 2601.5675 897.5000
v -10313.5150 2792.5675 897.5000
v -10313.5150 2792.5675 897.5000
v -10663.5150 2463.5675 897.5000
v -10060.0150 2168.0675 897.5000
v -10490.5150 2123.5675 -2.5000
v -10292.5150 2072.5675 -2.5000
v -10490.5150 2123.5675 897.5000
v -10292.5150 2072.5675 -2.5000
v -10292.5150 2072.5675 897.5000
v -10490.5150 2123.5675 897.5000
v -10292.5150 2072.5675 -2.5000
v -10060.0150 2168.0675 -2.5000
v -10292.5150 2072.5675 897.5000
v -10060.0150 2168.0675 -2.5000
v -10060.0150 2168.0675 897.5000
v -10292.5150 2072.5675 897.5000
v -10060.0150 2168.0675 -2.5000
v -9946.5150 2390.0675 -2.5000
v -10060.0150 2168.0675 897.5000
v -9946.5150 2390.0675 -2.5000
v -9946.5150 2390.0675 897.5000
v -10060.0150 2168.0675 897.5000
v -9946.5150 2390.0675 -2.5000
v -9985.0150 2601.5675 -2.5000
v -9946.5150 2390.0675 897.5000
v -9985.0150 2601.5675 -2.5000
v -9985.0150 2601.5675 897.5000
v -9946.5150 2390.0675 897.5000
v -9985.0150 2601.5675 -2.5000
v -10119.5150 2741.5675 -2.5000
v -9985.0150 2601.5675 897.5000
v -10119.5150 2741.5675 -2.5000
v -10119.5150 2741.5675 897.5000
v -9985.0150 2601.5675 897.5000
v -10119.5150 2741.5675 -2.5000
v -10313.5150 2792.5675 -2.5000
v -10119.5150 2741.5675 897.5000
v -10313.5150 2792.5675 -2.5000
v -10313.5150 2792.5675 897.5000
v -10119.5150 2741.5675 897.5000
v -10313.5150 2792.5675 -2.5000
v -10549.0150 2697.0675 -2.5000
v -10313.5150 2792.5675 897.5000
v -10549.0150 2697.0675 -2.5000
v -10549.0150 2697.0675 897.5000
v -10313.5150 2792.5675 897.5000
v -10549.0150 2697.0675 -2.5000
v -10663.5150 2463.5675 -2.5000
v -10549.0150 2697.0675 897.5000
v -10663.5150 2463.5675 -2.5000
v -10663.5150 2463.5675 897.5000
v -10549.0150 2697.0675 897.5000
v -10663.5150 2463.5675 -2.5000
v -10634.5150 2287.0675 -2.5000
v -10663.5150 2463.5675 897.5000
v -10634.5150 2287.0675 -2.5000
v -10634.5150 2287.0675 897.5000
v -10663.5150 2463.5675 897.5000
v -10634.5150 2287.0675 -2.5000
v -10490.5150 2123.5675 -2.5000
v -10634.5150 2287.0675 897.5000
v -10490.5150 2123.5675 -2.5000
v -10490.5150 2123.5675 897.5000
v -10634.5150 2287.0675 897.5000
v -10515.0150 8138.0675 -2.5000
v -10642.0150 8088.0675 -2.5000
v -10767.0150 8142.5675 -2.5000
v -10511.5150 8390.0675 -2.5000
v -10461.0150 8263.5675 -2.5000
v -10515.0150 8138.0675 -2.5000
v -10763.0150 8393.5675 -2.5000
v -10636.0150 8443.5675 -2.5000
v -10511.5150 8390.0675 -2.5000
v -10767.0150 8142.5675 -2.5000
v -10817.0150 8268.0675 -2.5000
v -10763.0150 8393.5675 -2.5000
v -10511.5150 8390.0675 -2.5000
v -10515.0150 8138.0675 -2.5000
v -10767.0150 8142.5675 -2.5000
v -10767.0150 8142.5675 -2.5000
v -10763.0150 8393.5675 -2.5000
v -10511.5150 8390.0675 -2.5000
v -10767.0150 8142.5675 897.5000
v -10642.0150 8088.0675 897.5000
v -10515.0150 8138.0675 897.5000
v -10515.0150 8138.0675 897.5000
v -10461.0150 8263.5675 897.5000
v -10511.5150 8390.0675 897.5000
v -10511.5150 8390.0675 897.5000
v -10636.0150 8443.5675 897.5000
v -10763.0150 8393.5675 897.5000
v -10763.0150 8393.5675 897.5000
v -10817.0150 8268.0675 897.5000
v -10767.0150 8142.5675 897.5000
v -10767.0150 8142.5675 897.5000
v -10515.0150 8138.0675 897.5000
v -10511.5150 8390.0675 897.5000
v -10511.5150 8390.0675 897.5000
v -10763.0150 8393.5675 897.5000
v -10767.0150 8142.5675 897.5000
v -10515.0150 8138.0675 -2.5000
v -10461.0150 8263.5675 -2.5000
v -10515.0150 8138.0675 897.5000
v -10461.0150 8263.5675 -2.5000
v -10461.0150 8263.5675 897.5000
v -10515.0150 8138.0675 897.5000
v -10461.0150 8263.5675 -2.5000
v -10511.5150 8390.0675 -2.5000
v -10461.0150 8263.5675 897.5000
v -10511.5150 8390.0675 -2.5000
v -10511.5150 8390.0675 897.5000
v -10461.0150 8263.5675 897.5000
v -10511.5150 8390.0675 -2.5000
v -10636.0150 8443.5675 -2.5000
v -10511.5150 8390.0675 897.5000
v -10636.0150 8443.5675 -2.5000
v -10636.0150 8443.5675 897.5000
v -10511.5150 8390.0675 897.5000
v -10636.0150 8443.5675 -2.5000
v -10763.0150 8393.5675 -2.5000
v -10636.0150 8443.5675 897.5000
v -10763.0150 8393.5675 -2.5000
v -10763.0150 8393.5675 897.5000
v -10636.0150 8443.5675 897.5000
v -10763.0150 8393.5675 -2.5000
v -10817.0150 8268.0675 -2.5000
v -10763.0150 8393.5675 897.5000
v -10817.0150 8268.0675 -2.5000
v -10817.0150 8268.0675 897.5000
v -10763.0150 8393.5675 897.5000
v -10817.0150 8268.0675 -2.5000
v -10767.0150 8142.5675 -2.5000
v -10817.0150 8268.0675 897.5000
v -10767.0150 8142.5675 -2.5000
v -10767.0150 8142.5675 897.5000
v -10817.0150 8268.0675 897.5000
v -10767.0150 8142.5675 -2.5000
v -10642.0150 8088.0675 -2.5000
v -10767.0150 8142.5675 897.5000
v -10642.0150 8088.0675 -2.5000
v -10642.0150 8088.0675 897.5000
v -10767.0150 8142.5675 897.5000
v -10642.0150 8088.0675 -2.5000
v -10515.0150 8138.0675 -2.5000
v -10642.0150 8088.0675 897.5000
v -10515.0150 8138.0675 -2.5000
v -10515.0150 8138.0675 897.5000
v -10642.0150 8088.0675 897.5000
v -17192.5150 4640.5675 -298.4700
v -17088.5150 4137.0675 -298.4700
v -17820.0150 3986.0675 -298.4700
v -17875.5150 4251.5675 -298.4700
v -17925.0150 4489.5675 -298.4700
v -17192.5150 4640.5675 -298.4700
v -17192.5150 4640.5675 -298.4700
v -17820.0150 3986.0675 -298.4700
v -17875.5150 4251.5675 -298.4700
v -17820.0150 3986.0675 1201.5300
v -17088.5150 4137.0675 1201.5300
v -17192.5150 4640.5675 1201.5300
v -17192.5150 4640.5675 1201.5300
v -17925.0150 4489.5675 1201.5300
v -17875.5150 4251.5675 1201.5300
v -17875.5150 4251.5675 1201.5300
v -17820.0150 3986.0675 1201.5300
v -17192.5150 4640.5675 1201.5300
v -17192.5150 4640.5675 -298.4700
v -17925.0150 4489.5675 -298.4700
v -17192.5150 4640.5675 1201.5300
v -17925.0150 4489.5675 -298.4700
v -17925.0150 4489.5675 1201.5300
v -17192.5150 4640.5675 1201.5300
v -17925.0150 4489.5675 -298.4700
v -17875.5150 4251.5675 -298.4700
v -17925.0150 4489.5675 1201.5300
v -17875.5150 4251.5675 -298.4700
v -17875.5150 4251.5675 1201.5300
v -17925.0150 4489.5675 1201.5300
v -17875.5150 4251.5675 -298.4700
v -17820.0150 3986.0675 -298.4700
v -17875.5150 4251.5675 1201.5300
v -17820.0150 3986.0675 -298.4700
v -17820.0150 3986.0675 1201.5300
v -17875.5150 4251.5675 1201.5300
v -17820.0150 3986.0675 -298.4700
v -17088.5150 4137.0675 -298.4700
v -17820.0150 3986.0675 1201.5300
v -17088.5150 4137.0675 -298.4700
v -17088.5150 4137.0675 1201.5300
v -17820.0150 3986.0675 1201.5300
v -17088.5150 4137.0675 -298.4700
v -17192.5150 4640.5675 -298.4700
v -17088.5150 4137.0675 1201.5300
v -17192.5150 4640.5675 -298.4700
v -17192.5150 4640.5675 1201.5300
v -17088.5150 4137.0675 1201.5300
v -17088.5150 4137.0675 -356.3650
v -16428.5150 551.0675 -356.3650
v -17173.5150 428.5675 -356.3650
v -17173.5150 428.5675 -356.3650
v -17820.0150 3986.0675 -356.3650
v -17088.5150 4137.0675 -356.3650
v -17173.5150 428.5675 1143.6350
v -16428.5150 551.0675 1143.6350
v -17088.5150 4137.0675 1143.6350
v -17088.5150 4137.0675 1143.6350
v -17820.0150 3986.0675 1143.6350
v -17173.5150 428.5675 1143.6350
v -17088.5150 4137.0675 -356.3650
v -17820.0150 3986.0675 -356.3650
v -17088.5150 4137.0675 1143.6350
v -17820.0150 3986.0675 -356.3650
v -17820.0150 3986.0675 1143.6350
v -17088.5150 4137.0675 1143.6350
v -17820.0150 3986.0675 -356.3650
v -17173.5150 428.5675 -356.3650
v -17820.0150 3986.0675 1143.6350
v -17173.5150 428.5675 -356.3650
v -17173.5150 428.5675 1143.6350
v -17820.0150 3986.0675 1143.6350
v -17173.5150 428.5675 -356.3650
v -16428.5150 551.0675 -356.3650
v -17173.5150 428.5675 1143.6350
v -16428.5150 551.0675 -356.3650
v -16428.5150 551.0675 1143.6350
v -17173.5150 428.5675 1143.6350
v -16428.5150 551.0675 -356.3650
v -17088.5150 4137.0675 -356.3650
v -16428.5150 551.0675 1143.6350
v -17088.5150 4137.0675 -356.3650
v -17088.5150 4137.0675 1143.6350
v -16428.5150 551.0675 1143.6350
v -11781.5150 4660.5675 -9.1300
v -10949.5150 4816.0675 -9.1300
v -10759.0150 3800.5675 -9.1300
v -10759.0150 3800.5675 -9.1300
v -11591.0150 3645.0675 -9.1300
v -11781.5150 4660.5675 -9.1300
v -10759.0150 3800.5675 590.8700
v -10949.5150 4816.0675 590.8700
v -11781.5150 4660.5675 590.8700
v -11781.5150 4660.5675 590.8700
v -11591.0150 3645.0675 590.8700
v -10759.0150 3800.5675 590.8700
v -11781.5150 4660.5675 -9.1300
v -11591.0150 3645.0675 -9.1300
v -11781.5150 4660.5675 590.8700
v -11591.0150 3645.0675 -9.1300
v -11591.0150 3645.0675 590.8700
v -11781.5150 4660.5675 590.8700
v -11591.0150 3645.0675 -9.1300
v -10759.0150 3800.5675 -9.1300
v -11591.0150 3645.0675 590.8700
v -10759.0150 3800.5675 -9.1300
v -10759.0150 3800.5675 590.8700
v -11591.0150 3645.0675 590.8700
v -10759.0150 3800.5675 -9.1300
v -10949.5150 4816.0675 -9.1300
v -10759.0150 3800.5675 590.8700
v -10949.5150 4816.0675 -9.1300
v -10949.5150 4816.0675 590.8700
v -10759.0150 3800.5675 590.8700
v -10949.5150 4816.0675 -9.1300
v -11781.5150 4660.5675 -9.1300
v -10949.5150 4816.0675 590.8700
v -11781.5150 4660.5675 -9.1300
v -11781.5150 4660.5675 590.8700
v -10949.5150 4816.0675 590.8700
v -12359.5150 1090.0675 -77.0400
v -12181.5150 183.0675 -77.0400
v -12759.0150 63.0675 -77.0400
v -12759.0150 63.0675 -77.0400
v -12948.0150 966.5675 -77.0400
v -12359.5150 1090.0675 -77.0400
v -12759.0150 63.0675 522.9600
v -12181.5150 183.0675 522.9600
v -12359.5150 1090.0675 522.9600
v -12359.5150 1090.0675 522.9600
v -12948.0150 966.5675 522.9600
v -12759.0150 63.0675 522.9600
v -12359.5150 1090.0675 -77.0400
v -12948.0150 966.5675 -77.0400
v -12359.5150 1090.0675 522.9600
v -12948.0150 966.5675 -77.0400
v -12948.0150 966.5675 522.9600
v -12359.5150 1090.0675 522.9600
v -12948.0150 966.5675 -77.0400
v -12759.0150 63.0675 -77.0400
v -12948.0150 966.5675 522.9600
v -12759.0150 63.0675 -77.0400
v -12759.0150 63.0675 522.9600
v -12948.0150 966.5675 522.9600
v -12759.0150 63.0675 -77.0400
v -12181.5150 183.0675 -77.0400
v -12759.0150 63.0675 522.9600
v -12181.5150 183.0675 -77.0400
v -12181.5150 183.0675 522.9600
v -12759.0150 63.0675 522.9600
v -12181.5150 183.0675 -77.0400
v -12359.5150 1090.0675 -77.0400
v -12181.5150 183.0675 522.9600
v -12359.5150 1090.0675 -77.0400
v -12359.5150 1090.0675 522.9600
v -12181.5150 183.0675 522.9600
v -18575.0150 12123.0675 -300.0400
v -17192.5150 4640.5675 -300.0400
v -17925.0150 4489.5675 -300.0400
v -18392.5150 7049.0675 -300.0400
v -19298.0150 12003.0675 -300.0400
v -18575.0150 12123.0675 -300.0400
v -18575.0150 12123.0675 -300.0400
v -17925.0150 4489.5675 -300.0400
v -18096.0150 5437.5675 -300.0400
v -18096.0150 5437.5675 -300.0400
v -18392.5150 7049.0675 -300.0400
v -18575.0150 12123.0675 -300.0400
v -17925.0150 4489.5675 1199.9600
v -17192.5150 4640.5675 1199.9600
v -18575.0150 12123.0675 1199.9600
v -18575.0150 12123.0675 1199.9600
v -19298.0150 12003.0675 1199.9600
v -18392.5150 7049.0675 1199.9600
v -18096.0150 5437.5675 1199.9600
v -17925.0150 4489.5675 1199.9600
v -18575.0150 12123.0675 1199.9600
v -18575.0150 12123.0675 1199.9600
v -18392.5150 7049.0675 1199.9600
v -18096.0150 5437.5675 1199.9600
v -18575.0150 12123.0675 -300.0400
v -19298.0150 12003.0675 -300.0400
v -18575.0150 12123.0675 1199.9600
v -19298.0150 12003.0675 -300.0400
v -19298.0150 12003.0675 1199.9600
v -18575.0150 12123.0675 1199.9600
v -19298.0150 12003.0675 -300.0400
v -18392.5150 7049.0675 -300.0400
v -19298.0150 12003.0675 1199.9600
v -18392.5150 7049.0675 -300.0400
v -18392.5150 7049.0675 1199.9600
v -19298.0150 12003.0675 1199.9600
v -18392.5150 7049.0675 -300.0400
v -18096.0150 5437.5675 -300.0400
v -18392.5150 7049.0675 1199.9600
v -18096.0150 5437.5675 -300.0400
v -18096.0150 5437.5675 1199.9600
v -18392.5150 7049.0675 1199.9600
v -18096.0150 5437.5675 -300.0400
v -17925.0150 4489.5675 -300.0400
v -18096.0150 5437.5675 1199.9600
v -17925.0150 4489.5675 -300.0400
v -17925.0150 4489.5675 1199.9600
v -18096.0150 5437.5675 1199.9600
v -17925.0150 4489.5675 -300.0400
v -17192.5150 4640.5675 -300.0400
v -17925.0150 4489.5675 1199.9600
v -17192.5150 4640.5675 -300.0400
v -17192.5150 4640.5675 1199.9600
v -17925.0150 4489.5675 1199.9600
v -17192.5150 4640.5675 -300.0400
v -18575.0150 12123.0675 -300.0400
v -17192.5150 4640.5675 1199.9600
v -18575.0150 12123.0675 -300.0400
v -18575.0150 12123.0675 1199.9600
v -17192.5150 4640.5675 1199.9600
v -13155.5150 2800.0675 -67.1700
v -12710.5150 2882.5675 -67.1700
v -12692.5150 2789.0675 -67.1700
v -12599.0150 2311.5675 -67.1700
v -13048.5150 2228.0675 -67.1700
v -13155.5150 2800.0675 -67.1700
v -12445.5150 2836.0675 -67.1700
v -12368.0150 2419.0675 -67.1700
v -12611.0150 2373.5675 -67.1700
v -12599.0150 2311.5675 -67.1700
v -13155.5150 2800.0675 -67.1700
v -12692.5150 2789.0675 -67.1700
v -12692.5150 2789.0675 -67.1700
v -12445.5150 2836.0675 -67.1700
v -12611.0150 2373.5675 -67.1700
v -12611.0150 2373.5675 -67.1700
v -12599.0150 2311.5675 -67.1700
v -12692.5150 2789.0675 -67.1700
v -12692.5150 2789.0675 532.8300
v -12710.5150 2882.5675 532.8300
v -13155.5150 2800.0675 532.8300
v -13155.5150 2800.0675 532.8300
v -13048.5150 2228.0675 532.8300
v -12599.0150 2311.5675 532.8300
v -12611.0150 2373.5675 532.8300
v -12368.0150 2419.0675 532.8300
v -12445.5150 2836.0675 532.8300
v -12692.5150 2789.0675 532.8300
v -13155.5150 2800.0675 532.8300
v -12599.0150 2311.5675 532.8300
v -12611.0150 2373.5675 532.8300
v -12445.5150 2836.0675 532.8300
v -12692.5150 2789.0675 532.8300
v -12692.5150 2789.0675 532.8300
v -12599.0150 2311.5675 532.8300
v -12611.0150 2373.5675 532.8300
v -13155.5150 2800.0675 -67.1700
v -13048.5150 2228.0675 -67.1700
v -13155.5150 2800.0675 532.8300
v -13048.5150 2228.0675 -67.1700
v -13048.5150 2228.0675 532.8300
v -13155.5150 2800.0675 532.8300
v -13048.5150 2228.0675 -67.1700
v -12599.0150 2311.5675 -67.1700
v -13048.5150 2228.0675 532.8300
v -12599.0150 2311.5675 -67.1700
v -12599.0150 2311.5675 532.8300
v -13048.5150 2228.0675 532.8300
v -12599.0150 2311.5675 -67.1700
v -12611.0150 2373.5675 -67.1700
v -12599.0150 2311.5675 532.8300
v -12611.0150 2373.5675 -67.1700
v -12611.0150 2373.5675 532.8300
v -12599.0150 2311.5675 532.8300
v -12611.0150 2373.5675 -67.1700
v -12368.0150 2419.0675 -67.1700
v -12611.0150 2373.5675 532.8300
v -12368.0150 2419.0675 -67.1700
v -12368.0150 2419.0675 532.8300
v -12611.0150 2373.5675 532.8300
v -12368.0150 2419.0675 -67.1700
v -12445.5150 2836.0675 -67.1700
v -12368.0150 2419.0675 532.8300
v -12445.5150 2836.0675 -67.1700
v -12445.5150 2836.0675 532.8300
v -12368.0150 2419.0675 532.8300
v -12445.5150 2836.0675 -67.1700
v -12692.5150 2789.0675 -67.1700
v -12445.5150 2836.0675 532.8300
v -12692.5150 2789.0675 -67.1700
v -12692.5150 2789.0675 532.8300
v -12445.5150 2836.0675 532.8300
v -12692.5150 2789.0675 -67.1700
v -12710.5150 2882.5675 -67.1700
v -12692.5150 2789.0675 532.8300
v -12710.5150 2882.5675 -67.1700
v -12710.5150 2882.5675 532.8300
v -12692.5150 2789.0675 532.8300
v -12710.5150 2882.5675 -67.1700
v -13155.5150 2800.0675 -67.1700
v -12710.5150 2882.5675 532.8300
v -13155.5150 2800.0675 -67.1700
v -13155.5150 2800.0675 532.8300
v -12710.5150 2882.5675 532.8300
v -12389.0150 9358.0675 -45.0800
v -12442.0150 9781.5675 -45.0800
v -12027.5150 9834.0675 -45.0800
v -10940.0150 9539.5675 -45.0800
v -12145.5150 9388.0675 -45.0800
v -12389.0150 9358.0675 -45.0800
v -11773.0150 9876.0675 -45.0800
v -10995.0150 9974.0675 -45.0800
v -10940.0150 9539.5675 -45.0800
v -12389.0150 9358.0675 -45.0800
v -12027.5150 9834.0675 -45.0800
v -12004.5150 9659.5675 -45.0800
v -11749.0150 9690.5675 -45.0800
v -11773.0150 9876.0675 -45.0800
v -10940.0150 9539.5675 -45.0800
v -12389.0150 9358.0675 -45.0800
v -12004.5150 9659.5675 -45.0800
v -11749.0150 9690.5675 -45.0800
v -11749.0150 9690.5675 -45.0800
v -10940.0150 9539.5675 -45.0800
v -12389.0150 9358.0675 -45.0800
v -12027.5150 9834.0675 554.9200
v -12442.0150 9781.5675 554.9200
v -12389.0150 9358.0675 554.9200
v -12389.0150 9358.0675 554.9200
v -12145.5150 9388.0675 554.9200
v -10940.0150 9539.5675 554.9200
v -10940.0150 9539.5675 554.9200
v -10995.0150 9974.0675 554.9200
v -11773.0150 9876.0675 554.9200
v -12004.5150 9659.5675 554.9200
v -12027.5150 9834.0675 554.9200
v -12389.0150 9358.0675 554.9200
v -10940.0150 9539.5675 554.9200
v -11773.0150 9876.0675 554.9200
v -11749.0150 9690.5675 554.9200
v -11749.0150 9690.5675 554.9200
v -12004.5150 9659.5675 554.9200
v -12389.0150 9358.0675 554.9200
v -12389.0150 9358.0675 554.9200
v -10940.0150 9539.5675 554.9200
v -11749.0150 9690.5675 554.9200
v -12389.0150 9358.0675 -45.0800
v -12145.5150 9388.0675 -45.0800
v -12389.0150 9358.0675 554.9200
v -12145.5150 9388.0675 -45.0800
v -12145.5150 9388.0675 554.9200
v -12389.0150 9358.0675 554.9200
v -12145.5150 9388.0675 -45.0800
v -10940.0150 9539.5675 -45.0800
v -12145.5150 9388.0675 554.9200
v -10940.0150 9539.5675 -45.0800
v -10940.0150 9539.5675 554.9200
v -12145.5150 9388.0675 554.9200
v -10940.0150 9539.5675 -45.0800
v -10995.0150 9974.0675 -45.0800
v -10940.0150 9539.5675 554.9200
v -10995.0150 9974.0675 -45.0800
v -10995.0150 9974.0675 554.9200
v -10940.0150 9539.5675 554.9200
v -10995.0150 9974.0675 -45.0800
v -11773.0150 9876.0675 -45.0800
v -10995.0150 9974.0675 554.9200
v -11773.0150 9876.0675 -45.0800
v -11773.0150 9876.0675 554.9200
v -10995.0150 9974.0675 554.9200
v -11773.0150 9876.0675 -45.0800
v -11749.0150 9690.5675 -45.0800
v -11773.0150 9876.0675 554.9200
v -11749.0150 9690.5675 -45.0800
v -11749.0150 9690.5675 554.9200
v -11773.0150 9876.0675 554.9200
v -11749.0150 9690.5675 -45.0800
v -12004.5150 9659.5675 -45.0800
v -11749.0150 9690.5675 554.9200
v -12004.5150 9659.5675 -45.0800
v -12004.5150 9659.5675 554.9200
v -11749.0150 9690.5675 554.9200
v -12004.5150 9659.5675 -45.0800
v -12027.5150 9834.0675 -45.0800
v -12004.5150 9659.5675 554.9200
v -12027.5150 9834.0675 -45.0800
v -12027.5150 9834.0675 554.9200
v -12004.5150 9659.5675 554.9200
v -12027.5150 9834.0675 -45.0800
v -12442.0150 9781.5675 -45.0800
v -12027.5150 9834.0675 554.9200
v -12442.0150 9781.5675 -45.0800
v -12442.0150 9781.5675 554.9200
v -12027.5150 9834.0675 554.9200
v -12442.0150 9781.5675 -45.0800
v -12389.0150 9358.0675 -45.0800
v -12442.0150 9781.5675 554.9200
v -12389.0150 9358.0675 -45.0800
v -12389.0150 9358.0675 554.9200
v -12442.0150 9781.5675 554.9200
v -13738.5150 7504.5675 -91.7950
v -13507.5150 7533.5675 -91.7950
v -13483.5150 7344.5675 -91.7950
v -13483.5150 7344.5675 -91.7950
v -13714.5150 7315.5675 -91.7950
v -13738.5150 7504.5675 -91.7950
v -13483.5150 7344.5675 508.2050
v -13507.5150 7533.5675 508.2050
v -13738.5150 7504.5675 508.2050
v -13738.5150 7504.5675 508.2050
v -13714.5150 7315.5675 508.2050
v -13483.5150 7344.5675 508.2050
v -13738.5150 7504.5675 -91.7950
v -13714.5150 7315.5675 -91.7950
v -13738.5150 7504.5675 508.2050
v -13714.5150 7315.5675 -91.7950
v -13714.5150 7315.5675 508.2050
v -13738.5150 7504.5675 508.2050
v -13714.5150 7315.5675 -91.7950
v -13483.5150 7344.5675 -91.7950
v -13714.5150 7315.5675 508.2050
v -13483.5150 7344.5675 -91.7950
v -13483.5150 7344.5675 508.2050
v -13714.5150 7315.5675 508.2050
v -13483.5150 7344.5675 -91.7950
v -13507.5150 7533.5675 -91.7950
v -13483.5150 7344.5675 508.2050
v -13507.5150 7533.5675 -91.7950
v -13507.5150 7533.5675 508.2050
v -13483.5150 7344.5675 508.2050
v -13507.5150 7533.5675 -91.7950
v -13738.5150 7504.5675 -91.7950
v -13507.5150 7533.5675 508.2050
v -13738.5150 7504.5675 -91.7950
v -13738.5150 7504.5675 508.2050
v -13507.5150 7533.5675 508.2050
v -11936.5150 7730.0675 -36.1300
v -12180.5150 7699.0675 -36.1300
v -12284.5150 8528.0675 -36.1300
v -12145.5150 9388.0675 -36.1300
v -12040.5150 8559.0675 -36.1300
v -11936.5150 7730.0675 -36.1300
v -12284.5150 8528.0675 -36.1300
v -12389.0150 9358.0675 -36.1300
v -12145.5150 9388.0675 -36.1300
v -12145.5150 9388.0675 -36.1300
v -11936.5150 7730.0675 -36.1300
v -12284.5150 8528.0675 -36.1300
v -12284.5150 8528.0675 863.8700
v -12180.5150 7699.0675 863.8700
v -11936.5150 7730.0675 863.8700
v -11936.5150 7730.0675 863.8700
v -12040.5150 8559.0675 863.8700
v -12145.5150 9388.0675 863.8700
v -12145.5150 9388.0675 863.8700
v -12389.0150 9358.0675 863.8700
v -12284.5150 8528.0675 863.8700
v -12284.5150 8528.0675 863.8700
v -11936.5150 7730.0675 863.8700
v -12145.5150 9388.0675 863.8700
v -11936.5150 7730.0675 -36.1300
v -12040.5150 8559.0675 -36.1300
v -11936.5150 7730.0675 863.8700
v -12040.5150 8559.0675 -36.1300
v -12040.5150 8559.0675 863.8700
v -11936.5150 7730.0675 863.8700
v -12040.5150 8559.0675 -36.1300
v -12145.5150 9388.0675 -36.1300
v -12040.5150 8559.0675 863.8700
v -12145.5150 9388.0675 -36.1300
v -12145.5150 9388.0675 863.8700
v -12040.5150 8559.0675 863.8700
v -12145.5150 9388.0675 -36.1300
v -12389.0150 9358.0675 -36.1300
v -12145.5150 9388.0675 863.8700
v -12389.0150 9358.0675 -36.1300
v -12389.0150 9358.0675 863.8700
v -12145.5150 9388.0675 863.8700
v -12389.0150 9358.0675 -36.1300
v -12284.5150 8528.0675 -36.1300
v -12389.0150 9358.0675 863.8700
v -12284.5150 8528.0675 -36.1300
v -12284.5150 8528.0675 863.8700
v -12389.0150 9358.0675 863.8700
v -12284.5150 8528.0675 -36.1300
v -12180.5150 7699.0675 -36.1300
v -12284.5150 8528.0675 863.8700
v -12180.5150 7699.0675 -36.1300
v -12180.5150 7699.0675 863.8700
v -12284.5150 8528.0675 863.8700
v -12180.5150 7699.0675 -36.1300
v -11936.5150 7730.0675 -36.1300
v -12180.5150 7699.0675 863.8700
v -11936.5150 7730.0675 -36.1300
v -11936.5150 7730.0675 863.8700
v -12180.5150 7699.0675 863.8700
f 3 2 1
f 6 5 4
f 9 8 7
f 12 11 10
f 15 14 13
f 18 17 16
f 21 20 19
f 24 23 22
f 27 26 25
f 30 29 28
f 33 32 31
f 36 35 34
f 39 38 37
f 42 41 40
f 45 44 43
f 48 47 46
f 51 50 49
f 54 53 52
f 57 56 55
f 60 59 58
f 63 62 61
f 66 65 64
f 69 68 67
f 72 71 70
f 75 74 73
f 78 77 76
f 81 80 79
f 84 83 82
f 87 86 85
f 90 89 88
f 93 92 91
f 96 95 94
f 99 98 97
f 102 101 100
f 105 104 103
f 108 107 106
f 111 110 109
f 114 113 112
f 117 116 115
f 120 119 118
f 123 122 121
f 126 125 124
f 129 128 127
f 132 131 130
f 135 134 133
f 138 137 136
f 141 140 139
f 144 143 142
f 147 146 145
f 150 149 148
f 153 152 151
f 156 155 154
f 159 158 157
f 162 161 160
f 165 164 163
f 168 167 166
f 171 170 169
f 174 173 172
f 177 176 175
f 180 179 178
f 183 182 181
f 186 185 184
f 189 188 187
f 192 191 190
f 195 194 193
f 198 197 196
f 201 200 199
f 204 203 202
f 207 206 205
f 210 209 208
f 213 212 211
f 216 215 214
f 219 218 217
f 222 221 220
f 225 224 223
f 228 227 226
f 231 230 229
f 234 233 232
f 237 236 235
f 240 239 238
f 243 242 241
f 246 245 244
f 249 248 247
f 252 251 250
f 255 254 253
f 258 257 256
f 261 260 259
f 264 263 262
f 267 266 265
f 270 269 268
f 273 272 271
f 276 275 274
f 279 278 277
f 282 281 280
f 285 284 283
f 288 287 286
f 291 290 289
f 294 293 292
f 297 296 295
f 300 299 298
f 303 302 301
f 306 305 304
f 309 308 307
f 312 311 310
f 315 314 313
f 318 317 316
f 321 320 319
f 324 323 322
f 327 326 325
f 330 329 328
f 333 332 331
f 336 335 334
f 339 338 337
f 342 341 340
f 345 344 343
f 348 347 346
f 351 350 349
f 354 353 352
f 357 356 355
f 360 359 358
f 363 362 361
f 366 365 364
f 369 368 367
f 372 371 370
f 375 374 373
f 378 377 376
f 381 380 379
f 384 383 382
f 387 386 385
f 390 389 388
f 393 392 391
f 396 395 394
f 399 398 397
f 402 401 400
f 405 404 403
f 408 407 406
f 411 410 409
f 414 413 412
f 417 416 415
f 420 419 418
f 423 422 421
f 426 425 424
f 429 428 427
f 432 431 430
f 435 434 433
f 438 437 436
f 441 440 439
f 444 443 442
f 447 446 445
f 450 449 448
f 453 452 451
f 456 455 454
f 459 458 457
f 462 461 460
f 465 464 463
f 468 467 466
f 471 470 469
f 474 473 472
f 477 476 475
f 480 479 478
f 483 482 481
f 486 485 484
f 489 488 487
f 492 491 490
f 495 494 493
f 498 497 496
f 501 500 499
f 504 503 502
f 507 506 505
f 510 509 508
f 513 512 511
f 516 515 514
f 519 518 517
f 522 521 520
f 525 524 523
f 528 527 526
f 531 530 529
f 534 533 532
f 537 536 535
f 540 539 538
f 543 542 541
f 546 545 544
f 549 548 547
f 552 551 550
f 555 554 553
f 558 557 556
f 561 560 559
f 564 563 562
f 567 566 565
f 570 569 568
f 573 572 571
f 576 575 574
f 579 578 577
f 582 581 580
f 585 584 583
f 588 587 586
f 591 590 589
f 594 593 592
f 597 596 595
f 600 599 598
f 603 602 601
f 606 605 604
f 609 608 607
f 612 611 610
f 615 614 613
f 618 617 616
f 621 620 619
f 624 623 622
f 627 626 625
f 630 629 628
f 633 632 631
f 636 635 634
f 639 638 637
f 642 641 640
f 645 644 643
f 648 647 646
f 651 650 649
f 654 653 652
f 657 656 655
f 660 659 658
f 663 662 661
f 666 665 664
f 669 668 667
f 672 671 670
f 675 674 673
f 678 677 676
f 681 680 679
f 684 683 682
