# SM_JerusalemBuildings_Grid_N003_N002_PrecinctIn
o SM_JerusalemBuildings_Grid_N003_N002_PrecinctIn
v -19369.0150 16401.5675 17.2000
v -20130.0150 16241.5675 17.2000
v -20695.5150 19239.0675 17.2000
v -20695.5150 19239.0675 17.2000
v -19977.5150 19314.5675 17.2000
v -19369.0150 16401.5675 17.2000
v -20695.5150 19239.0675 1517.2000
v -20130.0150 16241.5675 1517.2000
v -19369.0150 16401.5675 1517.2000
v -19369.0150 16401.5675 1517.2000
v -19977.5150 19314.5675 1517.2000
v -20695.5150 19239.0675 1517.2000
v -19369.0150 16401.5675 17.2000
v -19977.5150 19314.5675 17.2000
v -19369.0150 16401.5675 1517.2000
v -19977.5150 19314.5675 17.2000
v -19977.5150 19314.5675 1517.2000
v -19369.0150 16401.5675 1517.2000
v -19977.5150 19314.5675 17.2000
v -20695.5150 19239.0675 17.2000
v -19977.5150 19314.5675 1517.2000
v -20695.5150 19239.0675 17.2000
v -20695.5150 19239.0675 1517.2000
v -19977.5150 19314.5675 1517.2000
v -20695.5150 19239.0675 17.2000
v -20130.0150 16241.5675 17.2000
v -20695.5150 19239.0675 1517.2000
v -20130.0150 16241.5675 17.2000
v -20130.0150 16241.5675 1517.2000
v -20695.5150 19239.0675 1517.2000
v -20130.0150 16241.5675 17.2000
v -19369.0150 16401.5675 17.2000
v -20130.0150 16241.5675 1517.2000
v -19369.0150 16401.5675 17.2000
v -19369.0150 16401.5675 1517.2000
v -20130.0150 16241.5675 1517.2000
v -20059.5150 19829.0675 203.1000
v -20016.0150 19558.0675 203.1000
v -19977.5150 19314.5675 203.1000
v -20695.5150 19239.0675 203.1000
v -20783.5150 19759.0675 203.1000
v -20059.5150 19829.0675 203.1000
v -20059.5150 19829.0675 203.1000
v -19977.5150 19314.5675 203.1000
v -20695.5150 19239.0675 203.1000
v -19977.5150 19314.5675 1703.1000
v -20016.0150 19558.0675 1703.1000
v -20059.5150 19829.0675 1703.1000
v -20059.5150 19829.0675 1703.1000
v -20783.5150 19759.0675 1703.1000
v -20695.5150 19239.0675 1703.1000
v -20695.5150 19239.0675 1703.1000
v -19977.5150 19314.5675 1703.1000
v -20059.5150 19829.0675 1703.1000
v -20059.5150 19829.0675 203.1000
v -20783.5150 19759.0675 203.1000
v -20059.5150 19829.0675 1703.1000
v -20783.5150 19759.0675 203.1000
v -20783.5150 19759.0675 1703.1000
v -20059.5150 19829.0675 1703.1000
v -20783.5150 19759.0675 203.1000
v -20695.5150 19239.0675 203.1000
v -20783.5150 19759.0675 1703.1000
v -20695.5150 19239.0675 203.1000
v -20695.5150 19239.0675 1703.1000
v -20783.5150 19759.0675 1703.1000
v -20695.5150 19239.0675 203.1000
v -19977.5150 19314.5675 203.1000
v -20695.5150 19239.0675 1703.1000
v -19977.5150 19314.5675 203.1000
v -19977.5150 19314.5675 1703.1000
v -20695.5150 19239.0675 1703.1000
v -19977.5150 19314.5675 203.1000
v -20016.0150 19558.0675 203.1000
v -19977.5150 19314.5675 1703.1000
v -20016.0150 19558.0675 203.1000
v -20016.0150 19558.0675 1703.1000
v -19977.5150 19314.5675 1703.1000
v -20016.0150 19558.0675 203.1000
v -20059.5150 19829.0675 203.1000
v -20016.0150 19558.0675 1703.1000
v -20059.5150 19829.0675 203.1000
v -20059.5150 19829.0675 1703.1000
v -20016.0150 19558.0675 1703.1000
f 3 2 1
f 6 5 4
f 9 8 7
f 12 11 10
f 15 14 13
f 18 17 16
f 21 20 19
f 24 23 22
f 27 26 25
f 30 29 28
f 33 32 31
f 36 35 34
f 39 38 37
f 42 41 40
f 45 44 43
f 48 47 46
f 51 50 49
f 54 53 52
f 57 56 55
f 60 59 58
f 63 62 61
f 66 65 64
f 69 68 67
f 72 71 70
f 75 74 73
f 78 77 76
f 81 80 79
f 84 83 82
