# SM_JerusalemBuildings_Grid_N002_N003_PrecinctIn
o SM_JerusalemBuildings_Grid_N002_N003_PrecinctIn
v -7312.5150 23453.0675 -450.3200
v -7235.0150 22787.5675 -450.3200
v -7688.5150 22735.0675 -450.3200
v -7992.0150 22699.5675 -450.3200
v -8070.0150 23364.0675 -450.3200
v -7774.5150 23398.5675 -450.3200
v -7312.5150 23453.0675 -450.3200
v -7688.5150 22735.0675 -450.3200
v -7992.0150 22699.5675 -450.3200
v -7992.0150 22699.5675 -450.3200
v -7774.5150 23398.5675 -450.3200
v -7312.5150 23453.0675 -450.3200
v -7688.5150 22735.0675 1049.6800
v -7235.0150 22787.5675 1049.6800
v -7312.5150 23453.0675 1049.6800
v -7774.5150 23398.5675 1049.6800
v -8070.0150 23364.0675 1049.6800
v -7992.0150 22699.5675 1049.6800
v -7992.0150 22699.5675 1049.6800
v -7688.5150 22735.0675 1049.6800
v -7312.5150 23453.0675 1049.6800
v -7312.5150 23453.0675 1049.6800
v -7774.5150 23398.5675 1049.6800
v -7992.0150 22699.5675 1049.6800
v -7235.0150 22787.5675 -450.3200
v -7312.5150 23453.0675 -450.3200
v -7235.0150 22787.5675 1049.6800
v -7312.5150 23453.0675 -450.3200
v -7312.5150 23453.0675 1049.6800
v -7235.0150 22787.5675 1049.6800
v -7312.5150 23453.0675 -450.3200
v -7774.5150 23398.5675 -450.3200
v -7312.5150 23453.0675 1049.6800
v -7774.5150 23398.5675 -450.3200
v -7774.5150 23398.5675 1049.6800
v -7312.5150 23453.0675 1049.6800
v -7774.5150 23398.5675 -450.3200
v -8070.0150 23364.0675 -450.3200
v -7774.5150 23398.5675 1049.6800
v -8070.0150 23364.0675 -450.3200
v -8070.0150 23364.0675 1049.6800
v -7774.5150 23398.5675 1049.6800
v -8070.0150 23364.0675 -450.3200
v -7992.0150 22699.5675 -450.3200
v -8070.0150 23364.0675 1049.6800
v -7992.0150 22699.5675 -450.3200
v -7992.0150 22699.5675 1049.6800
v -8070.0150 23364.0675 1049.6800
v -7992.0150 22699.5675 -450.3200
v -7688.5150 22735.0675 -450.3200
v -7992.0150 22699.5675 1049.6800
v -7688.5150 22735.0675 -450.3200
v -7688.5150 22735.0675 1049.6800
v -7992.0150 22699.5675 1049.6800
v -7688.5150 22735.0675 -450.3200
v -7235.0150 22787.5675 -450.3200
v -7688.5150 22735.0675 1049.6800
v -7235.0150 22787.5675 -450.3200
v -7235.0150 22787.5675 1049.6800
v -7688.5150 22735.0675 1049.6800
v -7992.0150 22699.5675 -450.3200
v -13483.5150 22121.5675 -450.3200
v -13513.0150 22797.5675 -450.3200
v -10917.5150 23054.0675 -450.3200
v -8070.0150 23364.0675 -450.3200
v -7992.0150 22699.5675 -450.3200
v -7992.0150 22699.5675 -450.3200
v -13513.0150 22797.5675 -450.3200
v -12196.5150 22918.5675 -450.3200
v -12196.5150 22918.5675 -450.3200
v -10917.5150 23054.0675 -450.3200
v -7992.0150 22699.5675 -450.3200
v -13513.0150 22797.5675 1049.6800
v -13483.5150 22121.5675 1049.6800
v -7992.0150 22699.5675 1049.6800
v -7992.0150 22699.5675 1049.6800
v -8070.0150 23364.0675 1049.6800
v -10917.5150 23054.0675 1049.6800
v -12196.5150 22918.5675 1049.6800
v -13513.0150 22797.5675 1049.6800
v -7992.0150 22699.5675 1049.6800
v -7992.0150 22699.5675 1049.6800
v -10917.5150 23054.0675 1049.6800
v -12196.5150 22918.5675 1049.6800
v -7992.0150 22699.5675 -450.3200
v -8070.0150 23364.0675 -450.3200
v -7992.0150 22699.5675 1049.6800
v -8070.0150 23364.0675 -450.3200
v -8070.0150 23364.0675 1049.6800
v -7992.0150 22699.5675 1049.6800
v -8070.0150 23364.0675 -450.3200
v -10917.5150 23054.0675 -450.3200
v -8070.0150 23364.0675 1049.6800
v -10917.5150 23054.0675 -450.3200
v -10917.5150 23054.0675 1049.6800
v -8070.0150 23364.0675 1049.6800
v -10917.5150 23054.0675 -450.3200
v -12196.5150 22918.5675 -450.3200
v -10917.5150 23054.0675 1049.6800
v -12196.5150 22918.5675 -450.3200
v -12196.5150 22918.5675 1049.6800
v -10917.5150 23054.0675 1049.6800
v -12196.5150 22918.5675 -450.3200
v -13513.0150 22797.5675 -450.3200
v -12196.5150 22918.5675 1049.6800
v -13513.0150 22797.5675 -450.3200
v -13513.0150 22797.5675 1049.6800
v -12196.5150 22918.5675 1049.6800
v -13513.0150 22797.5675 -450.3200
v -13483.5150 22121.5675 -450.3200
v -13513.0150 22797.5675 1049.6800
v -13483.5150 22121.5675 -450.3200
v -13483.5150 22121.5675 1049.6800
v -13513.0150 22797.5675 1049.6800
v -13483.5150 22121.5675 -450.3200
v -7992.0150 22699.5675 -450.3200
v -13483.5150 22121.5675 1049.6800
v -7992.0150 22699.5675 -450.3200
v -7992.0150 22699.5675 1049.6800
v -13483.5150 22121.5675 1049.6800
v -13513.0150 22797.5675 -154.4600
v -13511.0150 22491.5675 -154.4600
v -18820.0150 21877.0675 -154.4600
v -20683.5150 21700.5675 -154.4600
v -20717.5150 22071.5675 -154.4600
v -13513.0150 22797.5675 -154.4600
v -13513.0150 22797.5675 -154.4600
v -18820.0150 21877.0675 -154.4600
v -20683.5150 21700.5675 -154.4600
v -18820.0150 21877.0675 1345.5400
v -13511.0150 22491.5675 1345.5400
v -13513.0150 22797.5675 1345.5400
v -13513.0150 22797.5675 1345.5400
v -20717.5150 22071.5675 1345.5400
v -20683.5150 21700.5675 1345.5400
v -20683.5150 21700.5675 1345.5400
v -18820.0150 21877.0675 1345.5400
v -13513.0150 22797.5675 1345.5400
v -13513.0150 22797.5675 -154.4600
v -20717.5150 22071.5675 -154.4600
v -13513.0150 22797.5675 1345.5400
v -20717.5150 22071.5675 -154.4600
v -20717.5150 22071.5675 1345.5400
v -13513.0150 22797.5675 1345.5400
v -20717.5150 22071.5675 -154.4600
v -20683.5150 21700.5675 -154.4600
v -20717.5150 22071.5675 1345.5400
v -20683.5150 21700.5675 -154.4600
v -20683.5150 21700.5675 1345.5400
v -20717.5150 22071.5675 1345.5400
v -20683.5150 21700.5675 -154.4600
v -18820.0150 21877.0675 -154.4600
v -20683.5150 21700.5675 1345.5400
v -18820.0150 21877.0675 -154.4600
v -18820.0150 21877.0675 1345.5400
v -20683.5150 21700.5675 1345.5400
v -18820.0150 21877.0675 -154.4600
v -13511.0150 22491.5675 -154.4600
v -18820.0150 21877.0675 1345.5400
v -13511.0150 22491.5675 -154.4600
v -13511.0150 22491.5675 1345.5400
v -18820.0150 21877.0675 1345.5400
v -13511.0150 22491.5675 -154.4600
v -13513.0150 22797.5675 -154.4600
v -13511.0150 22491.5675 1345.5400
v -13513.0150 22797.5675 -154.4600
v -13513.0150 22797.5675 1345.5400
v -13511.0150 22491.5675 1345.5400
f 3 2 1
f 6 5 4
f 9 8 7
f 12 11 10
f 15 14 13
f 18 17 16
f 21 20 19
f 24 23 22
f 27 26 25
f 30 29 28
f 33 32 31
f 36 35 34
f 39 38 37
f 42 41 40
f 45 44 43
f 48 47 46
f 51 50 49
f 54 53 52
f 57 56 55
f 60 59 58
f 63 62 61
f 66 65 64
f 69 68 67
f 72 71 70
f 75 74 73
f 78 77 76
f 81 80 79
f 84 83 82
f 87 86 85
f 90 89 88
f 93 92 91
f 96 95 94
f 99 98 97
f 102 101 100
f 105 104 103
f 108 107 106
f 111 110 109
f 114 113 112
f 117 116 115
f 120 119 118
f 123 122 121
f 126 125 124
f 129 128 127
f 132 131 130
f 135 134 133
f 138 137 136
f 141 140 139
f 144 143 142
f 147 146 145
f 150 149 148
f 153 152 151
f 156 155 154
f 159 158 157
f 162 161 160
f 165 164 163
f 168 167 166
