# SM_JerusalemBuildings_Grid_P000_P002_PrecinctIn
o SM_JerusalemBuildings_Grid_P000_P002_PrecinctIn
v 2622.4850 -23409.9325 -2078.0400
v 2466.4850 -22518.9325 -2078.0400
v 2417.4850 -22235.4325 -2078.0400
v 5295.9850 -22538.9325 -2078.0400
v 5364.9850 -22932.4325 -2078.0400
v 2622.4850 -23409.9325 -2078.0400
v 4274.9850 -21971.9325 -2078.0400
v 5169.4850 -21815.4325 -2078.0400
v 5295.9850 -22538.9325 -2078.0400
v 2417.4850 -22235.4325 -2078.0400
v 3800.9850 -21994.4325 -2078.0400
v 3845.4850 -22249.9325 -2078.0400
v 5295.9850 -22538.9325 -2078.0400
v 2622.4850 -23409.9325 -2078.0400
v 2417.4850 -22235.4325 -2078.0400
v 4308.9850 -22168.9325 -2078.0400
v 4274.9850 -21971.9325 -2078.0400
v 5295.9850 -22538.9325 -2078.0400
v 5295.9850 -22538.9325 -2078.0400
v 2417.4850 -22235.4325 -2078.0400
v 3845.4850 -22249.9325 -2078.0400
v 3845.4850 -22249.9325 -2078.0400
v 4308.9850 -22168.9325 -2078.0400
v 5295.9850 -22538.9325 -2078.0400
v 2417.4850 -22235.4325 -578.0400
v 2466.4850 -22518.9325 -578.0400
v 2622.4850 -23409.9325 -578.0400
v 2622.4850 -23409.9325 -578.0400
v 5364.9850 -22932.4325 -578.0400
v 5295.9850 -22538.9325 -578.0400
v 5295.9850 -22538.9325 -578.0400
v 5169.4850 -21815.4325 -578.0400
v 4274.9850 -21971.9325 -578.0400
v 3845.4850 -22249.9325 -578.0400
v 3800.9850 -21994.4325 -578.0400
v 2417.4850 -22235.4325 -578.0400
v 2417.4850 -22235.4325 -578.0400
v 2622.4850 -23409.9325 -578.0400
v 5295.9850 -22538.9325 -578.0400
v 5295.9850 -22538.9325 -578.0400
v 4274.9850 -21971.9325 -578.0400
v 4308.9850 -22168.9325 -578.0400
v 3845.4850 -22249.9325 -578.0400
v 2417.4850 -22235.4325 -578.0400
v 5295.9850 -22538.9325 -578.0400
v 5295.9850 -22538.9325 -578.0400
v 4308.9850 -22168.9325 -578.0400
v 3845.4850 -22249.9325 -578.0400
v 2622.4850 -23409.9325 -2078.0400
v 5364.9850 -22932.4325 -2078.0400
v 2622.4850 -23409.9325 -578.0400
v 5364.9850 -22932.4325 -2078.0400
v 5364.9850 -22932.4325 -578.0400
v 2622.4850 -23409.9325 -578.0400
v 5364.9850 -22932.4325 -2078.0400
v 5295.9850 -22538.9325 -2078.0400
v 5364.9850 -22932.4325 -578.0400
v 5295.9850 -22538.9325 -2078.0400
v 5295.9850 -22538.9325 -578.0400
v 5364.9850 -22932.4325 -578.0400
v 5295.9850 -22538.9325 -2078.0400
v 5169.4850 -21815.4325 -2078.0400
v 5295.9850 -22538.9325 -578.0400
v 5169.4850 -21815.4325 -2078.0400
v 5169.4850 -21815.4325 -578.0400
v 5295.9850 -22538.9325 -578.0400
v 5169.4850 -21815.4325 -2078.0400
v 4274.9850 -21971.9325 -2078.0400
v 5169.4850 -21815.4325 -578.0400
v 4274.9850 -21971.9325 -2078.0400
v 4274.9850 -21971.9325 -578.0400
v 5169.4850 -21815.4325 -578.0400
v 4274.9850 -21971.9325 -2078.0400
v 4308.9850 -22168.9325 -2078.0400
v 4274.9850 -21971.9325 -578.0400
v 4308.9850 -22168.9325 -2078.0400
v 4308.9850 -22168.9325 -578.0400
v 4274.9850 -21971.9325 -578.0400
v 4308.9850 -22168.9325 -2078.0400
v 3845.4850 -22249.9325 -2078.0400
v 4308.9850 -22168.9325 -578.0400
v 3845.4850 -22249.9325 -2078.0400
v 3845.4850 -22249.9325 -578.0400
v 4308.9850 -22168.9325 -578.0400
v 3845.4850 -22249.9325 -2078.0400
v 3800.9850 -21994.4325 -2078.0400
v 3845.4850 -22249.9325 -578.0400
v 3800.9850 -21994.4325 -2078.0400
v 3800.9850 -21994.4325 -578.0400
v 3845.4850 -22249.9325 -578.0400
v 3800.9850 -21994.4325 -2078.0400
v 2417.4850 -22235.4325 -2078.0400
v 3800.9850 -21994.4325 -578.0400
v 2417.4850 -22235.4325 -2078.0400
v 2417.4850 -22235.4325 -578.0400
v 3800.9850 -21994.4325 -578.0400
v 2417.4850 -22235.4325 -2078.0400
v 2466.4850 -22518.9325 -2078.0400
v 2417.4850 -22235.4325 -578.0400
v 2466.4850 -22518.9325 -2078.0400
v 2466.4850 -22518.9325 -578.0400
v 2417.4850 -22235.4325 -578.0400
v 2466.4850 -22518.9325 -2078.0400
v 2622.4850 -23409.9325 -2078.0400
v 2466.4850 -22518.9325 -578.0400
v 2622.4850 -23409.9325 -2078.0400
v 2622.4850 -23409.9325 -578.0400
v 2466.4850 -22518.9325 -578.0400
f 3 2 1
f 6 5 4
f 9 8 7
f 12 11 10
f 15 14 13
f 18 17 16
f 21 20 19
f 24 23 22
f 27 26 25
f 30 29 28
f 33 32 31
f 36 35 34
f 39 38 37
f 42 41 40
f 45 44 43
f 48 47 46
f 51 50 49
f 54 53 52
f 57 56 55
f 60 59 58
f 63 62 61
f 66 65 64
f 69 68 67
f 72 71 70
f 75 74 73
f 78 77 76
f 81 80 79
f 84 83 82
f 87 86 85
f 90 89 88
f 93 92 91
f 96 95 94
f 99 98 97
f 102 101 100
f 105 104 103
f 108 107 106
