# SM_JerusalemBuildings_Grid_P001_N003_PrecinctIn
o SM_JerusalemBuildings_Grid_P001_N003_PrecinctIn
v 10619.9850 23070.5675 -1629.6800
v 10274.4850 23026.5675 -1629.6800
v 10160.9850 23923.0675 -1629.6800
v 9510.9850 25240.0675 -1629.6800
v 10347.4850 25326.5675 -1629.6800
v 10619.9850 23070.5675 -1629.6800
v 10160.9850 23923.0675 -1629.6800
v 9623.4850 23878.5675 -1629.6800
v 9577.9850 24430.0675 -1629.6800
v 9510.9850 25240.0675 -1629.6800
v 10619.9850 23070.5675 -1629.6800
v 10160.9850 23923.0675 -1629.6800
v 10160.9850 23923.0675 -1629.6800
v 9577.9850 24430.0675 -1629.6800
v 9510.9850 25240.0675 -1629.6800
v 10160.9850 23923.0675 -729.6800
v 10274.4850 23026.5675 -729.6800
v 10619.9850 23070.5675 -729.6800
v 10619.9850 23070.5675 -729.6800
v 10347.4850 25326.5675 -729.6800
v 9510.9850 25240.0675 -729.6800
v 9577.9850 24430.0675 -729.6800
v 9623.4850 23878.5675 -729.6800
v 10160.9850 23923.0675 -729.6800
v 10160.9850 23923.0675 -729.6800
v 10619.9850 23070.5675 -729.6800
v 9510.9850 25240.0675 -729.6800
v 9510.9850 25240.0675 -729.6800
v 9577.9850 24430.0675 -729.6800
v 10160.9850 23923.0675 -729.6800
v 10619.9850 23070.5675 -1629.6800
v 10347.4850 25326.5675 -1629.6800
v 10619.9850 23070.5675 -729.6800
v 10347.4850 25326.5675 -1629.6800
v 10347.4850 25326.5675 -729.6800
v 10619.9850 23070.5675 -729.6800
v 10347.4850 25326.5675 -1629.6800
v 9510.9850 25240.0675 -1629.6800
v 10347.4850 25326.5675 -729.6800
v 9510.9850 25240.0675 -1629.6800
v 9510.9850 25240.0675 -729.6800
v 10347.4850 25326.5675 -729.6800
v 9510.9850 25240.0675 -1629.6800
v 9577.9850 24430.0675 -1629.6800
v 9510.9850 25240.0675 -729.6800
v 9577.9850 24430.0675 -1629.6800
v 9577.9850 24430.0675 -729.6800
v 9510.9850 25240.0675 -729.6800
v 9577.9850 24430.0675 -1629.6800
v 9623.4850 23878.5675 -1629.6800
v 9577.9850 24430.0675 -729.6800
v 9623.4850 23878.5675 -1629.6800
v 9623.4850 23878.5675 -729.6800
v 9577.9850 24430.0675 -729.6800
v 9623.4850 23878.5675 -1629.6800
v 10160.9850 23923.0675 -1629.6800
v 9623.4850 23878.5675 -729.6800
v 10160.9850 23923.0675 -1629.6800
v 10160.9850 23923.0675 -729.6800
v 9623.4850 23878.5675 -729.6800
v 10160.9850 23923.0675 -1629.6800
v 10274.4850 23026.5675 -1629.6800
v 10160.9850 23923.0675 -729.6800
v 10274.4850 23026.5675 -1629.6800
v 10274.4850 23026.5675 -729.6800
v 10160.9850 23923.0675 -729.6800
v 10274.4850 23026.5675 -1629.6800
v 10619.9850 23070.5675 -1629.6800
v 10274.4850 23026.5675 -729.6800
v 10619.9850 23070.5675 -1629.6800
v 10619.9850 23070.5675 -729.6800
v 10274.4850 23026.5675 -729.6800
f 3 2 1
f 6 5 4
f 9 8 7
f 12 11 10
f 15 14 13
f 18 17 16
f 21 20 19
f 24 23 22
f 27 26 25
f 30 29 28
f 33 32 31
f 36 35 34
f 39 38 37
f 42 41 40
f 45 44 43
f 48 47 46
f 51 50 49
f 54 53 52
f 57 56 55
f 60 59 58
f 63 62 61
f 66 65 64
f 69 68 67
f 72 71 70
