# SM_JerusalemBuildings_Grid_N003_N003_PrecinctOut
o SM_JerusalemBuildings_Grid_N003_N003_PrecinctOut
v -22157.5150 23723.0675 651.6200
v -21498.0150 23828.5675 651.6200
v -21271.0150 22417.5675 651.6200
v -21271.0150 22417.5675 651.6200
v -21930.5150 22310.5675 651.6200
v -22157.5150 23723.0675 651.6200
v -21271.0150 22417.5675 1551.6200
v -21498.0150 23828.5675 1551.6200
v -22157.5150 23723.0675 1551.6200
v -22157.5150 23723.0675 1551.6200
v -21930.5150 22310.5675 1551.6200
v -21271.0150 22417.5675 1551.6200
v -22157.5150 23723.0675 651.6200
v -21930.5150 22310.5675 651.6200
v -22157.5150 23723.0675 1551.6200
v -21930.5150 22310.5675 651.6200
v -21930.5150 22310.5675 1551.6200
v -22157.5150 23723.0675 1551.6200
v -21930.5150 22310.5675 651.6200
v -21271.0150 22417.5675 651.6200
v -21930.5150 22310.5675 1551.6200
v -21271.0150 22417.5675 651.6200
v -21271.0150 22417.5675 1551.6200
v -21930.5150 22310.5675 1551.6200
v -21271.0150 22417.5675 651.6200
v -21498.0150 23828.5675 651.6200
v -21271.0150 22417.5675 1551.6200
v -21498.0150 23828.5675 651.6200
v -21498.0150 23828.5675 1551.6200
v -21271.0150 22417.5675 1551.6200
v -21498.0150 23828.5675 651.6200
v -22157.5150 23723.0675 651.6200
v -21498.0150 23828.5675 1551.6200
v -22157.5150 23723.0675 651.6200
v -22157.5150 23723.0675 1551.6200
v -21498.0150 23828.5675 1551.6200
v -29407.5150 23065.0675 467.1000
v -29916.5150 22939.5675 467.1000
v -30042.5150 23445.0675 467.1000
v -30042.5150 23445.0675 467.1000
v -29533.5150 23572.0675 467.1000
v -29407.5150 23065.0675 467.1000
v -30042.5150 23445.0675 1067.1000
v -29916.5150 22939.5675 1067.1000
v -29407.5150 23065.0675 1067.1000
v -29407.5150 23065.0675 1067.1000
v -29533.5150 23572.0675 1067.1000
v -30042.5150 23445.0675 1067.1000
v -29407.5150 23065.0675 467.1000
v -29533.5150 23572.0675 467.1000
v -29407.5150 23065.0675 1067.1000
v -29533.5150 23572.0675 467.1000
v -29533.5150 23572.0675 1067.1000
v -29407.5150 23065.0675 1067.1000
v -29533.5150 23572.0675 467.1000
v -30042.5150 23445.0675 467.1000
v -29533.5150 23572.0675 1067.1000
v -30042.5150 23445.0675 467.1000
v -30042.5150 23445.0675 1067.1000
v -29533.5150 23572.0675 1067.1000
v -30042.5150 23445.0675 467.1000
v -29916.5150 22939.5675 467.1000
v -30042.5150 23445.0675 1067.1000
v -29916.5150 22939.5675 467.1000
v -29916.5150 22939.5675 1067.1000
v -30042.5150 23445.0675 1067.1000
v -29916.5150 22939.5675 467.1000
v -29407.5150 23065.0675 467.1000
v -29916.5150 22939.5675 1067.1000
v -29407.5150 23065.0675 467.1000
v -29407.5150 23065.0675 1067.1000
v -29916.5150 22939.5675 1067.1000
v -21543.5150 25680.0675 883.8800
v -21705.5150 26781.5675 883.8800
v -20544.5150 26995.0675 883.8800
v -20329.5150 25927.0675 883.8800
v -20324.0150 25892.5675 883.8800
v -21543.5150 25680.0675 883.8800
v -21543.5150 25680.0675 883.8800
v -20544.5150 26995.0675 883.8800
v -20455.5150 26498.0675 883.8800
v -20455.5150 26498.0675 883.8800
v -20329.5150 25927.0675 883.8800
v -21543.5150 25680.0675 883.8800
v -20544.5150 26995.0675 1483.8800
v -21705.5150 26781.5675 1483.8800
v -21543.5150 25680.0675 1483.8800
v -21543.5150 25680.0675 1483.8800
v -20324.0150 25892.5675 1483.8800
v -20329.5150 25927.0675 1483.8800
v -20455.5150 26498.0675 1483.8800
v -20544.5150 26995.0675 1483.8800
v -21543.5150 25680.0675 1483.8800
v -21543.5150 25680.0675 1483.8800
v -20329.5150 25927.0675 1483.8800
v -20455.5150 26498.0675 1483.8800
v -21543.5150 25680.0675 883.8800
v -20324.0150 25892.5675 883.8800
v -21543.5150 25680.0675 1483.8800
v -20324.0150 25892.5675 883.8800
v -20324.0150 25892.5675 1483.8800
v -21543.5150 25680.0675 1483.8800
v -20324.0150 25892.5675 883.8800
v -20329.5150 25927.0675 883.8800
v -20324.0150 25892.5675 1483.8800
v -20329.5150 25927.0675 883.8800
v -20329.5150 25927.0675 1483.8800
v -20324.0150 25892.5675 1483.8800
v -20329.5150 25927.0675 883.8800
v -20455.5150 26498.0675 883.8800
v -20329.5150 25927.0675 1483.8800
v -20455.5150 26498.0675 883.8800
v -20455.5150 26498.0675 1483.8800
v -20329.5150 25927.0675 1483.8800
v -20455.5150 26498.0675 883.8800
v -20544.5150 26995.0675 883.8800
v -20455.5150 26498.0675 1483.8800
v -20544.5150 26995.0675 883.8800
v -20544.5150 26995.0675 1483.8800
v -20455.5150 26498.0675 1483.8800
v -20544.5150 26995.0675 883.8800
v -21705.5150 26781.5675 883.8800
v -20544.5150 26995.0675 1483.8800
v -21705.5150 26781.5675 883.8800
v -21705.5150 26781.5675 1483.8800
v -20544.5150 26995.0675 1483.8800
v -21705.5150 26781.5675 883.8800
v -21543.5150 25680.0675 883.8800
v -21705.5150 26781.5675 1483.8800
v -21543.5150 25680.0675 883.8800
v -21543.5150 25680.0675 1483.8800
v -21705.5150 26781.5675 1483.8800
v -27065.5150 24481.0675 814.2800
v -27334.0150 25432.5675 814.2800
v -26856.0150 25553.5675 814.2800
v -24591.5150 26319.0675 814.2800
v -24302.0150 25174.5675 814.2800
v -24573.5150 25109.0675 814.2800
v -26856.0150 25553.5675 814.2800
v -26902.5150 25711.0675 814.2800
v -24591.5150 26319.0675 814.2800
v -24573.5150 25109.0675 814.2800
v -27065.5150 24481.0675 814.2800
v -26856.0150 25553.5675 814.2800
v -26856.0150 25553.5675 814.2800
v -24591.5150 26319.0675 814.2800
v -24573.5150 25109.0675 814.2800
v -26856.0150 25553.5675 1714.2800
v -27334.0150 25432.5675 1714.2800
v -27065.5150 24481.0675 1714.2800
v -24573.5150 25109.0675 1714.2800
v -24302.0150 25174.5675 1714.2800
v -24591.5150 26319.0675 1714.2800
v -24591.5150 26319.0675 1714.2800
v -26902.5150 25711.0675 1714.2800
v -26856.0150 25553.5675 1714.2800
v -26856.0150 25553.5675 1714.2800
v -27065.5150 24481.0675 1714.2800
v -24573.5150 25109.0675 1714.2800
v -24573.5150 25109.0675 1714.2800
v -24591.5150 26319.0675 1714.2800
v -26856.0150 25553.5675 1714.2800
v -27065.5150 24481.0675 814.2800
v -24573.5150 25109.0675 814.2800
v -27065.5150 24481.0675 1714.2800
v -24573.5150 25109.0675 814.2800
v -24573.5150 25109.0675 1714.2800
v -27065.5150 24481.0675 1714.2800
v -24573.5150 25109.0675 814.2800
v -24302.0150 25174.5675 814.2800
v -24573.5150 25109.0675 1714.2800
v -24302.0150 25174.5675 814.2800
v -24302.0150 25174.5675 1714.2800
v -24573.5150 25109.0675 1714.2800
v -24302.0150 25174.5675 814.2800
v -24591.5150 26319.0675 814.2800
v -24302.0150 25174.5675 1714.2800
v -24591.5150 26319.0675 814.2800
v -24591.5150 26319.0675 1714.2800
v -24302.0150 25174.5675 1714.2800
v -24591.5150 26319.0675 814.2800
v -26902.5150 25711.0675 814.2800
v -24591.5150 26319.0675 1714.2800
v -26902.5150 25711.0675 814.2800
v -26902.5150 25711.0675 1714.2800
v -24591.5150 26319.0675 1714.2800
v -26902.5150 25711.0675 814.2800
v -26856.0150 25553.5675 814.2800
v -26902.5150 25711.0675 1714.2800
v -26856.0150 25553.5675 814.2800
v -26856.0150 25553.5675 1714.2800
v -26902.5150 25711.0675 1714.2800
v -26856.0150 25553.5675 814.2800
v -27334.0150 25432.5675 814.2800
v -26856.0150 25553.5675 1714.2800
v -27334.0150 25432.5675 814.2800
v -27334.0150 25432.5675 1714.2800
v -26856.0150 25553.5675 1714.2800
v -27334.0150 25432.5675 814.2800
v -27065.5150 24481.0675 814.2800
v -27334.0150 25432.5675 1714.2800
v -27065.5150 24481.0675 814.2800
v -27065.5150 24481.0675 1714.2800
v -27334.0150 25432.5675 1714.2800
v -24302.0150 25174.5675 987.5400
v -24591.5150 26319.0675 987.5400
v -24235.0150 26427.0675 987.5400
v -23237.5150 25533.5675 987.5400
v -23215.0150 25420.0675 987.5400
v -24302.0150 25174.5675 987.5400
v -24379.0150 26876.0675 987.5400
v -23533.5150 27061.5675 987.5400
v -23294.5150 25778.0675 987.5400
v -23237.5150 25533.5675 987.5400
v -24302.0150 25174.5675 987.5400
v -24235.0150 26427.0675 987.5400
v -24379.0150 26876.0675 987.5400
v -23294.5150 25778.0675 987.5400
v -23237.5150 25533.5675 987.5400
v -23237.5150 25533.5675 987.5400
v -24235.0150 26427.0675 987.5400
v -24379.0150 26876.0675 987.5400
v -24235.0150 26427.0675 1887.5400
v -24591.5150 26319.0675 1887.5400
v -24302.0150 25174.5675 1887.5400
v -24302.0150 25174.5675 1887.5400
v -23215.0150 25420.0675 1887.5400
v -23237.5150 25533.5675 1887.5400
v -23294.5150 25778.0675 1887.5400
v -23533.5150 27061.5675 1887.5400
v -24379.0150 26876.0675 1887.5400
v -24235.0150 26427.0675 1887.5400
v -24302.0150 25174.5675 1887.5400
v -23237.5150 25533.5675 1887.5400
v -23237.5150 25533.5675 1887.5400
v -23294.5150 25778.0675 1887.5400
v -24379.0150 26876.0675 1887.5400
v -24379.0150 26876.0675 1887.5400
v -24235.0150 26427.0675 1887.5400
v -23237.5150 25533.5675 1887.5400
v -24591.5150 26319.0675 987.5400
v -24302.0150 25174.5675 987.5400
v -24591.5150 26319.0675 1887.5400
v -24302.0150 25174.5675 987.5400
v -24302.0150 25174.5675 1887.5400
v -24591.5150 26319.0675 1887.5400
v -24302.0150 25174.5675 987.5400
v -23215.0150 25420.0675 987.5400
v -24302.0150 25174.5675 1887.5400
v -23215.0150 25420.0675 987.5400
v -23215.0150 25420.0675 1887.5400
v -24302.0150 25174.5675 1887.5400
v -23215.0150 25420.0675 987.5400
v -23237.5150 25533.5675 987.5400
v -23215.0150 25420.0675 1887.5400
v -23237.5150 25533.5675 987.5400
v -23237.5150 25533.5675 1887.5400
v -23215.0150 25420.0675 1887.5400
v -23237.5150 25533.5675 987.5400
v -23294.5150 25778.0675 987.5400
v -23237.5150 25533.5675 1887.5400
v -23294.5150 25778.0675 987.5400
v -23294.5150 25778.0675 1887.5400
v -23237.5150 25533.5675 1887.5400
v -23294.5150 25778.0675 987.5400
v -23533.5150 27061.5675 987.5400
v -23294.5150 25778.0675 1887.5400
v -23533.5150 27061.5675 987.5400
v -23533.5150 27061.5675 1887.5400
v -23294.5150 25778.0675 1887.5400
v -23533.5150 27061.5675 987.5400
v -24379.0150 26876.0675 987.5400
v -23533.5150 27061.5675 1887.5400
v -24379.0150 26876.0675 987.5400
v -24379.0150 26876.0675 1887.5400
v -23533.5150 27061.5675 1887.5400
v -24379.0150 26876.0675 987.5400
v -24235.0150 26427.0675 987.5400
v -24379.0150 26876.0675 1887.5400
v -24235.0150 26427.0675 987.5400
v -24235.0150 26427.0675 1887.5400
v -24379.0150 26876.0675 1887.5400
v -24235.0150 26427.0675 987.5400
v -24591.5150 26319.0675 987.5400
v -24235.0150 26427.0675 1887.5400
v -24591.5150 26319.0675 987.5400
v -24591.5150 26319.0675 1887.5400
v -24235.0150 26427.0675 1887.5400
v -27334.0150 25432.5675 581.0200
v -27065.5150 24481.0675 581.0200
v -29593.0150 24040.0675 581.0200
v -29593.0150 24040.0675 581.0200
v -29798.5150 24834.5675 581.0200
v -27334.0150 25432.5675 581.0200
v -29593.0150 24040.0675 1481.0200
v -27065.5150 24481.0675 1481.0200
v -27334.0150 25432.5675 1481.0200
v -27334.0150 25432.5675 1481.0200
v -29798.5150 24834.5675 1481.0200
v -29593.0150 24040.0675 1481.0200
v -27334.0150 25432.5675 581.0200
v -29798.5150 24834.5675 581.0200
v -27334.0150 25432.5675 1481.0200
v -29798.5150 24834.5675 581.0200
v -29798.5150 24834.5675 1481.0200
v -27334.0150 25432.5675 1481.0200
v -29798.5150 24834.5675 581.0200
v -29593.0150 24040.0675 581.0200
v -29798.5150 24834.5675 1481.0200
v -29593.0150 24040.0675 581.0200
v -29593.0150 24040.0675 1481.0200
v -29798.5150 24834.5675 1481.0200
v -29593.0150 24040.0675 581.0200
v -27065.5150 24481.0675 581.0200
v -29593.0150 24040.0675 1481.0200
v -27065.5150 24481.0675 581.0200
v -27065.5150 24481.0675 1481.0200
v -29593.0150 24040.0675 1481.0200
v -27065.5150 24481.0675 581.0200
v -27334.0150 25432.5675 581.0200
v -27065.5150 24481.0675 1481.0200
v -27334.0150 25432.5675 581.0200
v -27334.0150 25432.5675 1481.0200
v -27065.5150 24481.0675 1481.0200
v -26250.5150 29770.0675 1316.6800
v -25980.0150 29983.0675 1316.6800
v -24813.0150 30526.5675 1316.6800
v -25578.0150 29405.0675 1316.6800
v -25892.0150 29317.5675 1316.6800
v -26250.5150 29770.0675 1316.6800
v -24358.0150 28900.5675 1316.6800
v -25244.5150 28659.5675 1316.6800
v -25578.0150 29405.0675 1316.6800
v -26250.5150 29770.0675 1316.6800
v -24813.0150 30526.5675 1316.6800
v -24549.0150 29505.5675 1316.6800
v -24358.0150 28900.5675 1316.6800
v -25578.0150 29405.0675 1316.6800
v -26250.5150 29770.0675 1316.6800
v -26250.5150 29770.0675 1316.6800
v -24549.0150 29505.5675 1316.6800
v -24358.0150 28900.5675 1316.6800
v -24813.0150 30526.5675 1916.6800
v -25980.0150 29983.0675 1916.6800
v -26250.5150 29770.0675 1916.6800
v -26250.5150 29770.0675 1916.6800
v -25892.0150 29317.5675 1916.6800
v -25578.0150 29405.0675 1916.6800
v -25578.0150 29405.0675 1916.6800
v -25244.5150 28659.5675 1916.6800
v -24358.0150 28900.5675 1916.6800
v -24549.0150 29505.5675 1916.6800
v -24813.0150 30526.5675 1916.6800
v -26250.5150 29770.0675 1916.6800
v -26250.5150 29770.0675 1916.6800
v -25578.0150 29405.0675 1916.6800
v -24358.0150 28900.5675 1916.6800
v -24358.0150 28900.5675 1916.6800
v -24549.0150 29505.5675 1916.6800
v -26250.5150 29770.0675 1916.6800
v -26250.5150 29770.0675 1316.6800
v -25892.0150 29317.5675 1316.6800
v -26250.5150 29770.0675 1916.6800
v -25892.0150 29317.5675 1316.6800
v -25892.0150 29317.5675 1916.6800
v -26250.5150 29770.0675 1916.6800
v -25892.0150 29317.5675 1316.6800
v -25578.0150 29405.0675 1316.6800
v -25892.0150 29317.5675 1916.6800
v -25578.0150 29405.0675 1316.6800
v -25578.0150 29405.0675 1916.6800
v -25892.0150 29317.5675 1916.6800
v -25578.0150 29405.0675 1316.6800
v -25244.5150 28659.5675 1316.6800
v -25578.0150 29405.0675 1916.6800
v -25244.5150 28659.5675 1316.6800
v -25244.5150 28659.5675 1916.6800
v -25578.0150 29405.0675 1916.6800
v -25244.5150 28659.5675 1316.6800
v -24358.0150 28900.5675 1316.6800
v -25244.5150 28659.5675 1916.6800
v -24358.0150 28900.5675 1316.6800
v -24358.0150 28900.5675 1916.6800
v -25244.5150 28659.5675 1916.6800
v -24358.0150 28900.5675 1316.6800
v -24549.0150 29505.5675 1316.6800
v -24358.0150 28900.5675 1916.6800
v -24549.0150 29505.5675 1316.6800
v -24549.0150 29505.5675 1916.6800
v -24358.0150 28900.5675 1916.6800
v -24549.0150 29505.5675 1316.6800
v -24813.0150 30526.5675 1316.6800
v -24549.0150 29505.5675 1916.6800
v -24813.0150 30526.5675 1316.6800
v -24813.0150 30526.5675 1916.6800
v -24549.0150 29505.5675 1916.6800
v -24813.0150 30526.5675 1316.6800
v -25980.0150 29983.0675 1316.6800
v -24813.0150 30526.5675 1916.6800
v -25980.0150 29983.0675 1316.6800
v -25980.0150 29983.0675 1916.6800
v -24813.0150 30526.5675 1916.6800
v -25980.0150 29983.0675 1316.6800
v -26250.5150 29770.0675 1316.6800
v -25980.0150 29983.0675 1916.6800
v -26250.5150 29770.0675 1316.6800
v -26250.5150 29770.0675 1916.6800
v -25980.0150 29983.0675 1916.6800
v -27764.5150 27837.0675 1149.9800
v -27450.5150 28069.5675 1149.9800
v -27124.0150 27730.5675 1149.9800
v -26841.0150 27016.0675 1149.9800
v -27205.5150 26896.0675 1149.9800
v -27764.5150 27837.0675 1149.9800
v -26539.0150 28076.0675 1149.9800
v -26231.5150 27630.5675 1149.9800
v -26841.0150 27016.0675 1149.9800
v -26841.0150 27016.0675 1149.9800
v -27764.5150 27837.0675 1149.9800
v -27124.0150 27730.5675 1149.9800
v -27124.0150 27730.5675 1149.9800
v -26539.0150 28076.0675 1149.9800
v -26841.0150 27016.0675 1149.9800
v -27124.0150 27730.5675 1749.9800
v -27450.5150 28069.5675 1749.9800
v -27764.5150 27837.0675 1749.9800
v -27764.5150 27837.0675 1749.9800
v -27205.5150 26896.0675 1749.9800
v -26841.0150 27016.0675 1749.9800
v -26841.0150 27016.0675 1749.9800
v -26231.5150 27630.5675 1749.9800
v -26539.0150 28076.0675 1749.9800
v -27124.0150 27730.5675 1749.9800
v -27764.5150 27837.0675 1749.9800
v -26841.0150 27016.0675 1749.9800
v -26841.0150 27016.0675 1749.9800
v -26539.0150 28076.0675 1749.9800
v -27124.0150 27730.5675 1749.9800
v -27764.5150 27837.0675 1149.9800
v -27205.5150 26896.0675 1149.9800
v -27764.5150 27837.0675 1749.9800
v -27205.5150 26896.0675 1149.9800
v -27205.5150 26896.0675 1749.9800
v -27764.5150 27837.0675 1749.9800
v -27205.5150 26896.0675 1149.9800
v -26841.0150 27016.0675 1149.9800
v -27205.5150 26896.0675 1749.9800
v -26841.0150 27016.0675 1149.9800
v -26841.0150 27016.0675 1749.9800
v -27205.5150 26896.0675 1749.9800
v -26841.0150 27016.0675 1149.9800
v -26231.5150 27630.5675 1149.9800
v -26841.0150 27016.0675 1749.9800
v -26231.5150 27630.5675 1149.9800
v -26231.5150 27630.5675 1749.9800
v -26841.0150 27016.0675 1749.9800
v -26231.5150 27630.5675 1149.9800
v -26539.0150 28076.0675 1149.9800
v -26231.5150 27630.5675 1749.9800
v -26539.0150 28076.0675 1149.9800
v -26539.0150 28076.0675 1749.9800
v -26231.5150 27630.5675 1749.9800
v -26539.0150 28076.0675 1149.9800
v -27124.0150 27730.5675 1149.9800
v -26539.0150 28076.0675 1749.9800
v -27124.0150 27730.5675 1149.9800
v -27124.0150 27730.5675 1749.9800
v -26539.0150 28076.0675 1749.9800
v -27124.0150 27730.5675 1149.9800
v -27450.5150 28069.5675 1149.9800
v -27124.0150 27730.5675 1749.9800
v -27450.5150 28069.5675 1149.9800
v -27450.5150 28069.5675 1749.9800
v -27124.0150 27730.5675 1749.9800
v -27450.5150 28069.5675 1149.9800
v -27764.5150 27837.0675 1149.9800
v -27450.5150 28069.5675 1749.9800
v -27764.5150 27837.0675 1149.9800
v -27764.5150 27837.0675 1749.9800
v -27450.5150 28069.5675 1749.9800
v -28788.5150 26701.5675 1042.2600
v -29247.5150 27668.5675 1042.2600
v -29040.5150 27887.0675 1042.2600
v -28116.0150 26799.0675 1042.2600
v -28603.0150 26647.0675 1042.2600
v -28788.5150 26701.5675 1042.2600
v -27991.0150 27724.0675 1042.2600
v -27913.5150 27570.5675 1042.2600
v -28363.0150 27197.0675 1042.2600
v -28091.0150 28233.0675 1042.2600
v -27884.0150 27925.0675 1042.2600
v -27991.0150 27724.0675 1042.2600
v -29342.0150 28283.0675 1042.2600
v -28593.5150 28715.0675 1042.2600
v -28091.0150 28233.0675 1042.2600
v -28116.0150 26799.0675 1042.2600
v -28788.5150 26701.5675 1042.2600
v -29040.5150 27887.0675 1042.2600
v -28091.0150 28233.0675 1042.2600
v -27991.0150 27724.0675 1042.2600
v -28363.0150 27197.0675 1042.2600
v -29040.5150 27887.0675 1042.2600
v -29342.0150 28283.0675 1042.2600
v -28091.0150 28233.0675 1042.2600
v -28363.0150 27197.0675 1042.2600
v -28116.0150 26799.0675 1042.2600
v -29040.5150 27887.0675 1042.2600
v -29040.5150 27887.0675 1042.2600
v -28091.0150 28233.0675 1042.2600
v -28363.0150 27197.0675 1042.2600
v -29040.5150 27887.0675 1642.2600
v -29247.5150 27668.5675 1642.2600
v -28788.5150 26701.5675 1642.2600
v -28788.5150 26701.5675 1642.2600
v -28603.0150 26647.0675 1642.2600
v -28116.0150 26799.0675 1642.2600
v -28363.0150 27197.0675 1642.2600
v -27913.5150 27570.5675 1642.2600
v -27991.0150 27724.0675 1642.2600
v -27991.0150 27724.0675 1642.2600
v -27884.0150 27925.0675 1642.2600
v -28091.0150 28233.0675 1642.2600
v -28091.0150 28233.0675 1642.2600
v -28593.5150 28715.0675 1642.2600
v -29342.0150 28283.0675 1642.2600
v -29040.5150 27887.0675 1642.2600
v -28788.5150 26701.5675 1642.2600
v -28116.0150 26799.0675 1642.2600
v -28363.0150 27197.0675 1642.2600
v -27991.0150 27724.0675 1642.2600
v -28091.0150 28233.0675 1642.2600
v -28091.0150 28233.0675 1642.2600
v -29342.0150 28283.0675 1642.2600
v -29040.5150 27887.0675 1642.2600
v -29040.5150 27887.0675 1642.2600
v -28116.0150 26799.0675 1642.2600
v -28363.0150 27197.0675 1642.2600
v -28363.0150 27197.0675 1642.2600
v -28091.0150 28233.0675 1642.2600
v -29040.5150 27887.0675 1642.2600
v -29247.5150 27668.5675 1042.2600
v -28788.5150 26701.5675 1042.2600
v -29247.5150 27668.5675 1642.2600
v -28788.5150 26701.5675 1042.2600
v -28788.5150 26701.5675 1642.2600
v -29247.5150 27668.5675 1642.2600
v -28788.5150 26701.5675 1042.2600
v -28603.0150 26647.0675 1042.2600
v -28788.5150 26701.5675 1642.2600
v -28603.0150 26647.0675 1042.2600
v -28603.0150 26647.0675 1642.2600
v -28788.5150 26701.5675 1642.2600
v -28603.0150 26647.0675 1042.2600
v -28116.0150 26799.0675 1042.2600
v -28603.0150 26647.0675 1642.2600
v -28116.0150 26799.0675 1042.2600
v -28116.0150 26799.0675 1642.2600
v -28603.0150 26647.0675 1642.2600
v -28116.0150 26799.0675 1042.2600
v -28363.0150 27197.0675 1042.2600
v -28116.0150 26799.0675 1642.2600
v -28363.0150 27197.0675 1042.2600
v -28363.0150 27197.0675 1642.2600
v -28116.0150 26799.0675 1642.2600
v -28363.0150 27197.0675 1042.2600
v -27913.5150 27570.5675 1042.2600
v -28363.0150 27197.0675 1642.2600
v -27913.5150 27570.5675 1042.2600
v -27913.5150 27570.5675 1642.2600
v -28363.0150 27197.0675 1642.2600
v -27913.5150 27570.5675 1042.2600
v -27991.0150 27724.0675 1042.2600
v -27913.5150 27570.5675 1642.2600
v -27991.0150 27724.0675 1042.2600
v -27991.0150 27724.0675 1642.2600
v -27913.5150 27570.5675 1642.2600
v -27991.0150 27724.0675 1042.2600
v -27884.0150 27925.0675 1042.2600
v -27991.0150 27724.0675 1642.2600
v -27884.0150 27925.0675 1042.2600
v -27884.0150 27925.0675 1642.2600
v -27991.0150 27724.0675 1642.2600
v -27884.0150 27925.0675 1042.2600
v -28091.0150 28233.0675 1042.2600
v -27884.0150 27925.0675 1642.2600
v -28091.0150 28233.0675 1042.2600
v -28091.0150 28233.0675 1642.2600
v -27884.0150 27925.0675 1642.2600
v -28091.0150 28233.0675 1042.2600
v -28593.5150 28715.0675 1042.2600
v -28091.0150 28233.0675 1642.2600
v -28593.5150 28715.0675 1042.2600
v -28593.5150 28715.0675 1642.2600
v -28091.0150 28233.0675 1642.2600
v -28593.5150 28715.0675 1042.2600
v -29342.0150 28283.0675 1042.2600
v -28593.5150 28715.0675 1642.2600
v -29342.0150 28283.0675 1042.2600
v -29342.0150 28283.0675 1642.2600
v -28593.5150 28715.0675 1642.2600
v -29342.0150 28283.0675 1042.2600
v -29040.5150 27887.0675 1042.2600
v -29342.0150 28283.0675 1642.2600
v -29040.5150 27887.0675 1042.2600
v -29040.5150 27887.0675 1642.2600
v -29342.0150 28283.0675 1642.2600
v -29040.5150 27887.0675 1042.2600
v -29247.5150 27668.5675 1042.2600
v -29040.5150 27887.0675 1642.2600
v -29247.5150 27668.5675 1042.2600
v -29247.5150 27668.5675 1642.2600
v -29040.5150 27887.0675 1642.2600
v -29517.5150 26497.0675 975.6800
v -29760.5150 27103.5675 975.6800
v -29542.0150 27181.5675 975.6800
v -29371.5150 27458.0675 975.6800
v -28963.0150 26687.0675 975.6800
v -29517.5150 26497.0675 975.6800
v -29542.0150 27181.5675 975.6800
v -29585.5150 27371.5675 975.6800
v -29371.5150 27458.0675 975.6800
v -29371.5150 27458.0675 975.6800
v -29517.5150 26497.0675 975.6800
v -29542.0150 27181.5675 975.6800
v -29542.0150 27181.5675 1575.6800
v -29760.5150 27103.5675 1575.6800
v -29517.5150 26497.0675 1575.6800
v -29517.5150 26497.0675 1575.6800
v -28963.0150 26687.0675 1575.6800
v -29371.5150 27458.0675 1575.6800
v -29371.5150 27458.0675 1575.6800
v -29585.5150 27371.5675 1575.6800
v -29542.0150 27181.5675 1575.6800
v -29542.0150 27181.5675 1575.6800
v -29517.5150 26497.0675 1575.6800
v -29371.5150 27458.0675 1575.6800
v -29760.5150 27103.5675 975.6800
v -29517.5150 26497.0675 975.6800
v -29760.5150 27103.5675 1575.6800
v -29517.5150 26497.0675 975.6800
v -29517.5150 26497.0675 1575.6800
v -29760.5150 27103.5675 1575.6800
v -29517.5150 26497.0675 975.6800
v -28963.0150 26687.0675 975.6800
v -29517.5150 26497.0675 1575.6800
v -28963.0150 26687.0675 975.6800
v -28963.0150 26687.0675 1575.6800
v -29517.5150 26497.0675 1575.6800
v -28963.0150 26687.0675 975.6800
v -29371.5150 27458.0675 975.6800
v -28963.0150 26687.0675 1575.6800
v -29371.5150 27458.0675 975.6800
v -29371.5150 27458.0675 1575.6800
v -28963.0150 26687.0675 1575.6800
v -29371.5150 27458.0675 975.6800
v -29585.5150 27371.5675 975.6800
v -29371.5150 27458.0675 1575.6800
v -29585.5150 27371.5675 975.6800
v -29585.5150 27371.5675 1575.6800
v -29371.5150 27458.0675 1575.6800
v -29585.5150 27371.5675 975.6800
v -29542.0150 27181.5675 975.6800
v -29585.5150 27371.5675 1575.6800
v -29542.0150 27181.5675 975.6800
v -29542.0150 27181.5675 1575.6800
v -29585.5150 27371.5675 1575.6800
v -29542.0150 27181.5675 975.6800
v -29760.5150 27103.5675 975.6800
v -29542.0150 27181.5675 1575.6800
v -29760.5150 27103.5675 975.6800
v -29760.5150 27103.5675 1575.6800
v -29542.0150 27181.5675 1575.6800
v -28892.5150 29159.5675 1372.2600
v -28345.0150 29611.0675 1372.2600
v -28017.5150 29189.5675 1372.2600
v -28017.5150 29189.5675 1372.2600
v -28591.0150 28806.0675 1372.2600
v -28892.5150 29159.5675 1372.2600
v -28017.5150 29189.5675 1972.2600
v -28345.0150 29611.0675 1972.2600
v -28892.5150 29159.5675 1972.2600
v -28892.5150 29159.5675 1972.2600
v -28591.0150 28806.0675 1972.2600
v -28017.5150 29189.5675 1972.2600
v -28892.5150 29159.5675 1372.2600
v -28591.0150 28806.0675 1372.2600
v -28892.5150 29159.5675 1972.2600
v -28591.0150 28806.0675 1372.2600
v -28591.0150 28806.0675 1972.2600
v -28892.5150 29159.5675 1972.2600
v -28591.0150 28806.0675 1372.2600
v -28017.5150 29189.5675 1372.2600
v -28591.0150 28806.0675 1972.2600
v -28017.5150 29189.5675 1372.2600
v -28017.5150 29189.5675 1972.2600
v -28591.0150 28806.0675 1972.2600
v -28017.5150 29189.5675 1372.2600
v -28345.0150 29611.0675 1372.2600
v -28017.5150 29189.5675 1972.2600
v -28345.0150 29611.0675 1372.2600
v -28345.0150 29611.0675 1972.2600
v -28017.5150 29189.5675 1972.2600
v -28345.0150 29611.0675 1372.2600
v -28892.5150 29159.5675 1372.2600
v -28345.0150 29611.0675 1972.2600
v -28892.5150 29159.5675 1372.2600
v -28892.5150 29159.5675 1972.2600
v -28345.0150 29611.0675 1972.2600
v -29957.5150 29485.5675 1330.8200
v -29279.0150 29977.5675 1330.8200
v -28923.0150 29495.5675 1330.8200
v -28923.0150 29495.5675 1330.8200
v -29547.5150 28920.5675 1330.8200
v -29957.5150 29485.5675 1330.8200
v -28923.0150 29495.5675 1930.8200
v -29279.0150 29977.5675 1930.8200
v -29957.5150 29485.5675 1930.8200
v -29957.5150 29485.5675 1930.8200
v -29547.5150 28920.5675 1930.8200
v -28923.0150 29495.5675 1930.8200
v -29957.5150 29485.5675 1330.8200
v -29547.5150 28920.5675 1330.8200
v -29957.5150 29485.5675 1930.8200
v -29547.5150 28920.5675 1330.8200
v -29547.5150 28920.5675 1930.8200
v -29957.5150 29485.5675 1930.8200
v -29547.5150 28920.5675 1330.8200
v -28923.0150 29495.5675 1330.8200
v -29547.5150 28920.5675 1930.8200
v -28923.0150 29495.5675 1330.8200
v -28923.0150 29495.5675 1930.8200
v -29547.5150 28920.5675 1930.8200
v -28923.0150 29495.5675 1330.8200
v -29279.0150 29977.5675 1330.8200
v -28923.0150 29495.5675 1930.8200
v -29279.0150 29977.5675 1330.8200
v -29279.0150 29977.5675 1930.8200
v -28923.0150 29495.5675 1930.8200
v -29279.0150 29977.5675 1330.8200
v -29957.5150 29485.5675 1330.8200
v -29279.0150 29977.5675 1930.8200
v -29957.5150 29485.5675 1330.8200
v -29957.5150 29485.5675 1930.8200
v -29279.0150 29977.5675 1930.8200
v -26821.0150 29571.0675 1381.0200
v -26512.5150 29833.0675 1381.0200
v -25594.0150 28910.5675 1381.0200
v -25594.0150 28910.5675 1381.0200
v -26170.0150 28730.5675 1381.0200
v -26821.0150 29571.0675 1381.0200
v -25594.0150 28910.5675 1981.0200
v -26512.5150 29833.0675 1981.0200
v -26821.0150 29571.0675 1981.0200
v -26821.0150 29571.0675 1981.0200
v -26170.0150 28730.5675 1981.0200
v -25594.0150 28910.5675 1981.0200
v -26821.0150 29571.0675 1381.0200
v -26170.0150 28730.5675 1381.0200
v -26821.0150 29571.0675 1981.0200
v -26170.0150 28730.5675 1381.0200
v -26170.0150 28730.5675 1981.0200
v -26821.0150 29571.0675 1981.0200
v -26170.0150 28730.5675 1381.0200
v -25594.0150 28910.5675 1381.0200
v -26170.0150 28730.5675 1981.0200
v -25594.0150 28910.5675 1381.0200
v -25594.0150 28910.5675 1981.0200
v -26170.0150 28730.5675 1981.0200
v -25594.0150 28910.5675 1381.0200
v -26512.5150 29833.0675 1381.0200
v -25594.0150 28910.5675 1981.0200
v -26512.5150 29833.0675 1381.0200
v -26512.5150 29833.0675 1981.0200
v -25594.0150 28910.5675 1981.0200
v -26512.5150 29833.0675 1381.0200
v -26821.0150 29571.0675 1381.0200
v -26512.5150 29833.0675 1981.0200
v -26821.0150 29571.0675 1381.0200
v -26821.0150 29571.0675 1981.0200
v -26512.5150 29833.0675 1981.0200
v -25285.5150 28498.5675 1237.9200
v -24057.0150 28908.5675 1237.9200
v -23831.0150 28179.5675 1237.9200
v -23831.0150 28179.5675 1237.9200
v -25102.5150 28008.5675 1237.9200
v -25285.5150 28498.5675 1237.9200
v -23831.0150 28179.5675 1837.9200
v -24057.0150 28908.5675 1837.9200
v -25285.5150 28498.5675 1837.9200
v -25285.5150 28498.5675 1837.9200
v -25102.5150 28008.5675 1837.9200
v -23831.0150 28179.5675 1837.9200
v -25285.5150 28498.5675 1237.9200
v -25102.5150 28008.5675 1237.9200
v -25285.5150 28498.5675 1837.9200
v -25102.5150 28008.5675 1237.9200
v -25102.5150 28008.5675 1837.9200
v -25285.5150 28498.5675 1837.9200
v -25102.5150 28008.5675 1237.9200
v -23831.0150 28179.5675 1237.9200
v -25102.5150 28008.5675 1837.9200
v -23831.0150 28179.5675 1237.9200
v -23831.0150 28179.5675 1837.9200
v -25102.5150 28008.5675 1837.9200
v -23831.0150 28179.5675 1237.9200
v -24057.0150 28908.5675 1237.9200
v -23831.0150 28179.5675 1837.9200
v -24057.0150 28908.5675 1237.9200
v -24057.0150 28908.5675 1837.9200
v -23831.0150 28179.5675 1837.9200
v -24057.0150 28908.5675 1237.9200
v -25285.5150 28498.5675 1237.9200
v -24057.0150 28908.5675 1837.9200
v -25285.5150 28498.5675 1237.9200
v -25285.5150 28498.5675 1837.9200
v -24057.0150 28908.5675 1837.9200
v -31133.5150 26051.5675 507.9600
v -30964.0150 26233.5675 507.9600
v -30577.0150 25982.5675 507.9600
v -29727.5150 24090.0675 507.9600
v -30560.0150 23926.5675 507.9600
v -31133.5150 26051.5675 507.9600
v -28739.5150 25528.0675 507.9600
v -29078.0150 25465.5675 507.9600
v -29127.5150 25654.5675 507.9600
v -29849.5150 26239.0675 507.9600
v -28939.0150 26448.0675 507.9600
v -28739.5150 25528.0675 507.9600
v -29727.5150 24090.0675 507.9600
v -31133.5150 26051.5675 507.9600
v -30577.0150 25982.5675 507.9600
v -29849.5150 26239.0675 507.9600
v -28739.5150 25528.0675 507.9600
v -29127.5150 25654.5675 507.9600
v -30030.0150 25401.0675 507.9600
v -29727.5150 24090.0675 507.9600
v -30577.0150 25982.5675 507.9600
v -29849.5150 26239.0675 507.9600
v -29127.5150 25654.5675 507.9600
v -30030.0150 25401.0675 507.9600
v -30030.0150 25401.0675 507.9600
v -30577.0150 25982.5675 507.9600
v -29849.5150 26239.0675 507.9600
v -30577.0150 25982.5675 1407.9600
v -30964.0150 26233.5675 1407.9600
v -31133.5150 26051.5675 1407.9600
v -31133.5150 26051.5675 1407.9600
v -30560.0150 23926.5675 1407.9600
v -29727.5150 24090.0675 1407.9600
v -29127.5150 25654.5675 1407.9600
v -29078.0150 25465.5675 1407.9600
v -28739.5150 25528.0675 1407.9600
v -28739.5150 25528.0675 1407.9600
v -28939.0150 26448.0675 1407.9600
v -29849.5150 26239.0675 1407.9600
v -30577.0150 25982.5675 1407.9600
v -31133.5150 26051.5675 1407.9600
v -29727.5150 24090.0675 1407.9600
v -29127.5150 25654.5675 1407.9600
v -28739.5150 25528.0675 1407.9600
v -29849.5150 26239.0675 1407.9600
v -30577.0150 25982.5675 1407.9600
v -29727.5150 24090.0675 1407.9600
v -30030.0150 25401.0675 1407.9600
v -30030.0150 25401.0675 1407.9600
v -29127.5150 25654.5675 1407.9600
v -29849.5150 26239.0675 1407.9600
v -29849.5150 26239.0675 1407.9600
v -30577.0150 25982.5675 1407.9600
v -30030.0150 25401.0675 1407.9600
v -31133.5150 26051.5675 507.9600
v -30560.0150 23926.5675 507.9600
v -31133.5150 26051.5675 1407.9600
v -30560.0150 23926.5675 507.9600
v -30560.0150 23926.5675 1407.9600
v -31133.5150 26051.5675 1407.9600
v -30560.0150 23926.5675 507.9600
v -29727.5150 24090.0675 507.9600
v -30560.0150 23926.5675 1407.9600
v -29727.5150 24090.0675 507.9600
v -29727.5150 24090.0675 1407.9600
v -30560.0150 23926.5675 1407.9600
v -29727.5150 24090.0675 507.9600
v -30030.0150 25401.0675 507.9600
v -29727.5150 24090.0675 1407.9600
v -30030.0150 25401.0675 507.9600
v -30030.0150 25401.0675 1407.9600
v -29727.5150 24090.0675 1407.9600
v -30030.0150 25401.0675 507.9600
v -29127.5150 25654.5675 507.9600
v -30030.0150 25401.0675 1407.9600
v -29127.5150 25654.5675 507.9600
v -29127.5150 25654.5675 1407.9600
v -30030.0150 25401.0675 1407.9600
v -29127.5150 25654.5675 507.9600
v -29078.0150 25465.5675 507.9600
v -29127.5150 25654.5675 1407.9600
v -29078.0150 25465.5675 507.9600
v -29078.0150 25465.5675 1407.9600
v -29127.5150 25654.5675 1407.9600
v -29078.0150 25465.5675 507.9600
v -28739.5150 25528.0675 507.9600
v -29078.0150 25465.5675 1407.9600
v -28739.5150 25528.0675 507.9600
v -28739.5150 25528.0675 1407.9600
v -29078.0150 25465.5675 1407.9600
v -28739.5150 25528.0675 507.9600
v -28939.0150 26448.0675 507.9600
v -28739.5150 25528.0675 1407.9600
v -28939.0150 26448.0675 507.9600
v -28939.0150 26448.0675 1407.9600
v -28739.5150 25528.0675 1407.9600
v -28939.0150 26448.0675 507.9600
v -29849.5150 26239.0675 507.9600
v -28939.0150 26448.0675 1407.9600
v -29849.5150 26239.0675 507.9600
v -29849.5150 26239.0675 1407.9600
v -28939.0150 26448.0675 1407.9600
v -29849.5150 26239.0675 507.9600
v -30577.0150 25982.5675 507.9600
v -29849.5150 26239.0675 1407.9600
v -30577.0150 25982.5675 507.9600
v -30577.0150 25982.5675 1407.9600
v -29849.5150 26239.0675 1407.9600
v -30577.0150 25982.5675 507.9600
v -30964.0150 26233.5675 507.9600
v -30577.0150 25982.5675 1407.9600
v -30964.0150 26233.5675 507.9600
v -30964.0150 26233.5675 1407.9600
v -30577.0150 25982.5675 1407.9600
v -30964.0150 26233.5675 507.9600
v -31133.5150 26051.5675 507.9600
v -30964.0150 26233.5675 1407.9600
v -31133.5150 26051.5675 507.9600
v -31133.5150 26051.5675 1407.9600
v -30964.0150 26233.5675 1407.9600
v -28753.5150 26287.0675 824.8600
v -27728.0150 26566.0675 824.8600
v -27526.0150 25768.0675 824.8600
v -27526.0150 25768.0675 824.8600
v -28582.5150 25552.5675 824.8600
v -28753.5150 26287.0675 824.8600
v -27526.0150 25768.0675 1424.8600
v -27728.0150 26566.0675 1424.8600
v -28753.5150 26287.0675 1424.8600
v -28753.5150 26287.0675 1424.8600
v -28582.5150 25552.5675 1424.8600
v -27526.0150 25768.0675 1424.8600
v -28753.5150 26287.0675 824.8600
v -28582.5150 25552.5675 824.8600
v -28753.5150 26287.0675 1424.8600
v -28582.5150 25552.5675 824.8600
v -28582.5150 25552.5675 1424.8600
v -28753.5150 26287.0675 1424.8600
v -28582.5150 25552.5675 824.8600
v -27526.0150 25768.0675 824.8600
v -28582.5150 25552.5675 1424.8600
v -27526.0150 25768.0675 824.8600
v -27526.0150 25768.0675 1424.8600
v -28582.5150 25552.5675 1424.8600
v -27526.0150 25768.0675 824.8600
v -27728.0150 26566.0675 824.8600
v -27526.0150 25768.0675 1424.8600
v -27728.0150 26566.0675 824.8600
v -27728.0150 26566.0675 1424.8600
v -27526.0150 25768.0675 1424.8600
v -27728.0150 26566.0675 824.8600
v -28753.5150 26287.0675 824.8600
v -27728.0150 26566.0675 1424.8600
v -28753.5150 26287.0675 824.8600
v -28753.5150 26287.0675 1424.8600
v -27728.0150 26566.0675 1424.8600
v -29960.0150 22770.5675 411.1400
v -29349.0150 22959.5675 411.1400
v -29214.5150 22527.5675 411.1400
v -29214.5150 22527.5675 411.1400
v -29826.0150 22338.5675 411.1400
v -29960.0150 22770.5675 411.1400
v -29214.5150 22527.5675 1011.1400
v -29349.0150 22959.5675 1011.1400
v -29960.0150 22770.5675 1011.1400
v -29960.0150 22770.5675 1011.1400
v -29826.0150 22338.5675 1011.1400
v -29214.5150 22527.5675 1011.1400
v -29960.0150 22770.5675 411.1400
v -29826.0150 22338.5675 411.1400
v -29960.0150 22770.5675 1011.1400
v -29826.0150 22338.5675 411.1400
v -29826.0150 22338.5675 1011.1400
v -29960.0150 22770.5675 1011.1400
v -29826.0150 22338.5675 411.1400
v -29214.5150 22527.5675 411.1400
v -29826.0150 22338.5675 1011.1400
v -29214.5150 22527.5675 411.1400
v -29214.5150 22527.5675 1011.1400
v -29826.0150 22338.5675 1011.1400
v -29214.5150 22527.5675 411.1400
v -29349.0150 22959.5675 411.1400
v -29214.5150 22527.5675 1011.1400
v -29349.0150 22959.5675 411.1400
v -29349.0150 22959.5675 1011.1400
v -29214.5150 22527.5675 1011.1400
v -29349.0150 22959.5675 411.1400
v -29960.0150 22770.5675 411.1400
v -29349.0150 22959.5675 1011.1400
v -29960.0150 22770.5675 411.1400
v -29960.0150 22770.5675 1011.1400
v -29349.0150 22959.5675 1011.1400
v -29746.5150 22240.5675 329.3800
v -28960.0150 22546.0675 329.3800
v -28741.5150 21985.0675 329.3800
v -28741.5150 21985.0675 329.3800
v -29527.0150 21678.0675 329.3800
v -29746.5150 22240.5675 329.3800
v -28741.5150 21985.0675 929.3800
v -28960.0150 22546.0675 929.3800
v -29746.5150 22240.5675 929.3800
v -29746.5150 22240.5675 929.3800
v -29527.0150 21678.0675 929.3800
v -28741.5150 21985.0675 929.3800
v -29746.5150 22240.5675 329.3800
v -29527.0150 21678.0675 329.3800
v -29746.5150 22240.5675 929.3800
v -29527.0150 21678.0675 329.3800
v -29527.0150 21678.0675 929.3800
v -29746.5150 22240.5675 929.3800
v -29527.0150 21678.0675 329.3800
v -28741.5150 21985.0675 329.3800
v -29527.0150 21678.0675 929.3800
v -28741.5150 21985.0675 329.3800
v -28741.5150 21985.0675 929.3800
v -29527.0150 21678.0675 929.3800
v -28741.5150 21985.0675 329.3800
v -28960.0150 22546.0675 329.3800
v -28741.5150 21985.0675 929.3800
v -28960.0150 22546.0675 329.3800
v -28960.0150 22546.0675 929.3800
v -28741.5150 21985.0675 929.3800
v -28960.0150 22546.0675 329.3800
v -29746.5150 22240.5675 329.3800
v -28960.0150 22546.0675 929.3800
v -29746.5150 22240.5675 329.3800
v -29746.5150 22240.5675 929.3800
v -28960.0150 22546.0675 929.3800
v -29057.5150 21760.5675 244.3000
v -28570.0150 21885.0675 244.3000
v -28436.5150 21437.0675 244.3000
v -28322.0150 20963.5675 244.3000
v -28871.0150 20896.0675 244.3000
v -29057.5150 21760.5675 244.3000
v -27393.0150 20820.5675 244.3000
v -28266.5150 20761.5675 244.3000
v -28322.0150 20963.5675 244.3000
v -28436.5150 21437.0675 244.3000
v -27586.0150 21558.0675 244.3000
v -27393.0150 20820.5675 244.3000
v -28322.0150 20963.5675 244.3000
v -29057.5150 21760.5675 244.3000
v -28436.5150 21437.0675 244.3000
v -28436.5150 21437.0675 244.3000
v -27393.0150 20820.5675 244.3000
v -28322.0150 20963.5675 244.3000
v -28436.5150 21437.0675 1144.3000
v -28570.0150 21885.0675 1144.3000
v -29057.5150 21760.5675 1144.3000
v -29057.5150 21760.5675 1144.3000
v -28871.0150 20896.0675 1144.3000
v -28322.0150 20963.5675 1144.3000
v -28322.0150 20963.5675 1144.3000
v -28266.5150 20761.5675 1144.3000
v -27393.0150 20820.5675 1144.3000
v -27393.0150 20820.5675 1144.3000
v -27586.0150 21558.0675 1144.3000
v -28436.5150 21437.0675 1144.3000
v -28436.5150 21437.0675 1144.3000
v -29057.5150 21760.5675 1144.3000
v -28322.0150 20963.5675 1144.3000
v -28322.0150 20963.5675 1144.3000
v -27393.0150 20820.5675 1144.3000
v -28436.5150 21437.0675 1144.3000
v -29057.5150 21760.5675 244.3000
v -28871.0150 20896.0675 244.3000
v -29057.5150 21760.5675 1144.3000
v -28871.0150 20896.0675 244.3000
v -28871.0150 20896.0675 1144.3000
v -29057.5150 21760.5675 1144.3000
v -28871.0150 20896.0675 244.3000
v -28322.0150 20963.5675 244.3000
v -28871.0150 20896.0675 1144.3000
v -28322.0150 20963.5675 244.3000
v -28322.0150 20963.5675 1144.3000
v -28871.0150 20896.0675 1144.3000
v -28322.0150 20963.5675 244.3000
v -28266.5150 20761.5675 244.3000
v -28322.0150 20963.5675 1144.3000
v -28266.5150 20761.5675 244.3000
v -28266.5150 20761.5675 1144.3000
v -28322.0150 20963.5675 1144.3000
v -28266.5150 20761.5675 244.3000
v -27393.0150 20820.5675 244.3000
v -28266.5150 20761.5675 1144.3000
v -27393.0150 20820.5675 244.3000
v -27393.0150 20820.5675 1144.3000
v -28266.5150 20761.5675 1144.3000
v -27393.0150 20820.5675 244.3000
v -27586.0150 21558.0675 244.3000
v -27393.0150 20820.5675 1144.3000
v -27586.0150 21558.0675 244.3000
v -27586.0150 21558.0675 1144.3000
v -27393.0150 20820.5675 1144.3000
v -27586.0150 21558.0675 244.3000
v -28436.5150 21437.0675 244.3000
v -27586.0150 21558.0675 1144.3000
v -28436.5150 21437.0675 244.3000
v -28436.5150 21437.0675 1144.3000
v -27586.0150 21558.0675 1144.3000
v -28436.5150 21437.0675 244.3000
v -28570.0150 21885.0675 244.3000
v -28436.5150 21437.0675 1144.3000
v -28570.0150 21885.0675 244.3000
v -28570.0150 21885.0675 1144.3000
v -28436.5150 21437.0675 1144.3000
v -28570.0150 21885.0675 244.3000
v -29057.5150 21760.5675 244.3000
v -28570.0150 21885.0675 1144.3000
v -29057.5150 21760.5675 244.3000
v -29057.5150 21760.5675 1144.3000
v -28570.0150 21885.0675 1144.3000
v -28810.5150 22549.5675 432.4400
v -27756.0150 22868.5675 432.4400
v -27588.5150 22319.5675 432.4400
v -27588.5150 22319.5675 432.4400
v -28643.0150 22000.5675 432.4400
v -28810.5150 22549.5675 432.4400
v -27588.5150 22319.5675 1032.4400
v -27756.0150 22868.5675 1032.4400
v -28810.5150 22549.5675 1032.4400
v -28810.5150 22549.5675 1032.4400
v -28643.0150 22000.5675 1032.4400
v -27588.5150 22319.5675 1032.4400
v -28810.5150 22549.5675 432.4400
v -28643.0150 22000.5675 432.4400
v -28810.5150 22549.5675 1032.4400
v -28643.0150 22000.5675 432.4400
v -28643.0150 22000.5675 1032.4400
v -28810.5150 22549.5675 1032.4400
v -28643.0150 22000.5675 432.4400
v -27588.5150 22319.5675 432.4400
v -28643.0150 22000.5675 1032.4400
v -27588.5150 22319.5675 432.4400
v -27588.5150 22319.5675 1032.4400
v -28643.0150 22000.5675 1032.4400
v -27588.5150 22319.5675 432.4400
v -27756.0150 22868.5675 432.4400
v -27588.5150 22319.5675 1032.4400
v -27756.0150 22868.5675 432.4400
v -27756.0150 22868.5675 1032.4400
v -27588.5150 22319.5675 1032.4400
v -27756.0150 22868.5675 432.4400
v -28810.5150 22549.5675 432.4400
v -27756.0150 22868.5675 1032.4400
v -28810.5150 22549.5675 432.4400
v -28810.5150 22549.5675 1032.4400
v -27756.0150 22868.5675 1032.4400
v -28439.5150 23814.0675 613.2400
v -27834.5150 23937.5675 613.2400
v -27712.5150 23346.5675 613.2400
v -27712.5150 23346.5675 613.2400
v -28317.5150 23223.0675 613.2400
v -28439.5150 23814.0675 613.2400
v -27712.5150 23346.5675 1213.2400
v -27834.5150 23937.5675 1213.2400
v -28439.5150 23814.0675 1213.2400
v -28439.5150 23814.0675 1213.2400
v -28317.5150 23223.0675 1213.2400
v -27712.5150 23346.5675 1213.2400
v -28439.5150 23814.0675 613.2400
v -28317.5150 23223.0675 613.2400
v -28439.5150 23814.0675 1213.2400
v -28317.5150 23223.0675 613.2400
v -28317.5150 23223.0675 1213.2400
v -28439.5150 23814.0675 1213.2400
v -28317.5150 23223.0675 613.2400
v -27712.5150 23346.5675 613.2400
v -28317.5150 23223.0675 1213.2400
v -27712.5150 23346.5675 613.2400
v -27712.5150 23346.5675 1213.2400
v -28317.5150 23223.0675 1213.2400
v -27712.5150 23346.5675 613.2400
v -27834.5150 23937.5675 613.2400
v -27712.5150 23346.5675 1213.2400
v -27834.5150 23937.5675 613.2400
v -27834.5150 23937.5675 1213.2400
v -27712.5150 23346.5675 1213.2400
v -27834.5150 23937.5675 613.2400
v -28439.5150 23814.0675 613.2400
v -27834.5150 23937.5675 1213.2400
v -28439.5150 23814.0675 613.2400
v -28439.5150 23814.0675 1213.2400
v -27834.5150 23937.5675 1213.2400
v -29450.0150 23544.0675 525.3400
v -29112.5150 23628.5675 525.3400
v -28998.0150 23169.5675 525.3400
v -28998.0150 23169.5675 525.3400
v -29335.5150 23086.5675 525.3400
v -29450.0150 23544.0675 525.3400
v -28998.0150 23169.5675 1125.3400
v -29112.5150 23628.5675 1125.3400
v -29450.0150 23544.0675 1125.3400
v -29450.0150 23544.0675 1125.3400
v -29335.5150 23086.5675 1125.3400
v -28998.0150 23169.5675 1125.3400
v -29450.0150 23544.0675 525.3400
v -29335.5150 23086.5675 525.3400
v -29450.0150 23544.0675 1125.3400
v -29335.5150 23086.5675 525.3400
v -29335.5150 23086.5675 1125.3400
v -29450.0150 23544.0675 1125.3400
v -29335.5150 23086.5675 525.3400
v -28998.0150 23169.5675 525.3400
v -29335.5150 23086.5675 1125.3400
v -28998.0150 23169.5675 525.3400
v -28998.0150 23169.5675 1125.3400
v -29335.5150 23086.5675 1125.3400
v -28998.0150 23169.5675 525.3400
v -29112.5150 23628.5675 525.3400
v -28998.0150 23169.5675 1125.3400
v -29112.5150 23628.5675 525.3400
v -29112.5150 23628.5675 1125.3400
v -28998.0150 23169.5675 1125.3400
v -29112.5150 23628.5675 525.3400
v -29450.0150 23544.0675 525.3400
v -29112.5150 23628.5675 1125.3400
v -29450.0150 23544.0675 525.3400
v -29450.0150 23544.0675 1125.3400
v -29112.5150 23628.5675 1125.3400
v -28997.0150 23673.0675 567.9000
v -28606.0150 23772.0675 567.9000
v -28472.5150 23244.0675 567.9000
v -28472.5150 23244.0675 567.9000
v -28863.5150 23146.5675 567.9000
v -28997.0150 23673.0675 567.9000
v -28472.5150 23244.0675 1167.9000
v -28606.0150 23772.0675 1167.9000
v -28997.0150 23673.0675 1167.9000
v -28997.0150 23673.0675 1167.9000
v -28863.5150 23146.5675 1167.9000
v -28472.5150 23244.0675 1167.9000
v -28997.0150 23673.0675 567.9000
v -28863.5150 23146.5675 567.9000
v -28997.0150 23673.0675 1167.9000
v -28863.5150 23146.5675 567.9000
v -28863.5150 23146.5675 1167.9000
v -28997.0150 23673.0675 1167.9000
v -28863.5150 23146.5675 567.9000
v -28472.5150 23244.0675 567.9000
v -28863.5150 23146.5675 1167.9000
v -28472.5150 23244.0675 567.9000
v -28472.5150 23244.0675 1167.9000
v -28863.5150 23146.5675 1167.9000
v -28472.5150 23244.0675 567.9000
v -28606.0150 23772.0675 567.9000
v -28472.5150 23244.0675 1167.9000
v -28606.0150 23772.0675 567.9000
v -28606.0150 23772.0675 1167.9000
v -28472.5150 23244.0675 1167.9000
v -28606.0150 23772.0675 567.9000
v -28997.0150 23673.0675 567.9000
v -28606.0150 23772.0675 1167.9000
v -28997.0150 23673.0675 567.9000
v -28997.0150 23673.0675 1167.9000
v -28606.0150 23772.0675 1167.9000
v -26876.0150 22744.0675 427.9400
v -26264.0150 22978.5675 427.9400
v -25842.5150 21879.5675 427.9400
v -25842.5150 21879.5675 427.9400
v -26456.0150 21646.0675 427.9400
v -26876.0150 22744.0675 427.9400
v -25842.5150 21879.5675 1327.9400
v -26264.0150 22978.5675 1327.9400
v -26876.0150 22744.0675 1327.9400
v -26876.0150 22744.0675 1327.9400
v -26456.0150 21646.0675 1327.9400
v -25842.5150 21879.5675 1327.9400
v -26876.0150 22744.0675 427.9400
v -26456.0150 21646.0675 427.9400
v -26876.0150 22744.0675 1327.9400
v -26456.0150 21646.0675 427.9400
v -26456.0150 21646.0675 1327.9400
v -26876.0150 22744.0675 1327.9400
v -26456.0150 21646.0675 427.9400
v -25842.5150 21879.5675 427.9400
v -26456.0150 21646.0675 1327.9400
v -25842.5150 21879.5675 427.9400
v -25842.5150 21879.5675 1327.9400
v -26456.0150 21646.0675 1327.9400
v -25842.5150 21879.5675 427.9400
v -26264.0150 22978.5675 427.9400
v -25842.5150 21879.5675 1327.9400
v -26264.0150 22978.5675 427.9400
v -26264.0150 22978.5675 1327.9400
v -25842.5150 21879.5675 1327.9400
v -26264.0150 22978.5675 427.9400
v -26876.0150 22744.0675 427.9400
v -26264.0150 22978.5675 1327.9400
v -26876.0150 22744.0675 427.9400
v -26876.0150 22744.0675 1327.9400
v -26264.0150 22978.5675 1327.9400
v -25948.5150 23735.5675 721.4000
v -25184.0150 23977.5675 721.4000
v -25041.0150 23531.0675 721.4000
v -25041.0150 23531.0675 721.4000
v -25807.0150 23287.5675 721.4000
v -25948.5150 23735.5675 721.4000
v -25041.0150 23531.0675 1321.4000
v -25184.0150 23977.5675 1321.4000
v -25948.5150 23735.5675 1321.4000
v -25948.5150 23735.5675 1321.4000
v -25807.0150 23287.5675 1321.4000
v -25041.0150 23531.0675 1321.4000
v -25948.5150 23735.5675 721.4000
v -25807.0150 23287.5675 721.4000
v -25948.5150 23735.5675 1321.4000
v -25807.0150 23287.5675 721.4000
v -25807.0150 23287.5675 1321.4000
v -25948.5150 23735.5675 1321.4000
v -25807.0150 23287.5675 721.4000
v -25041.0150 23531.0675 721.4000
v -25807.0150 23287.5675 1321.4000
v -25041.0150 23531.0675 721.4000
v -25041.0150 23531.0675 1321.4000
v -25807.0150 23287.5675 1321.4000
v -25041.0150 23531.0675 721.4000
v -25184.0150 23977.5675 721.4000
v -25041.0150 23531.0675 1321.4000
v -25184.0150 23977.5675 721.4000
v -25184.0150 23977.5675 1321.4000
v -25041.0150 23531.0675 1321.4000
v -25184.0150 23977.5675 721.4000
v -25948.5150 23735.5675 721.4000
v -25184.0150 23977.5675 1321.4000
v -25948.5150 23735.5675 721.4000
v -25948.5150 23735.5675 1321.4000
v -25184.0150 23977.5675 1321.4000
v -25538.0150 24401.0675 823.6200
v -24971.0150 24557.5675 823.6200
v -24864.0150 24171.0675 823.6200
v -24864.0150 24171.0675 823.6200
v -25431.0150 24014.0675 823.6200
v -25538.0150 24401.0675 823.6200
v -24864.0150 24171.0675 1423.6200
v -24971.0150 24557.5675 1423.6200
v -25538.0150 24401.0675 1423.6200
v -25538.0150 24401.0675 1423.6200
v -25431.0150 24014.0675 1423.6200
v -24864.0150 24171.0675 1423.6200
v -25538.0150 24401.0675 823.6200
v -25431.0150 24014.0675 823.6200
v -25538.0150 24401.0675 1423.6200
v -25431.0150 24014.0675 823.6200
v -25431.0150 24014.0675 1423.6200
v -25538.0150 24401.0675 1423.6200
v -25431.0150 24014.0675 823.6200
v -24864.0150 24171.0675 823.6200
v -25431.0150 24014.0675 1423.6200
v -24864.0150 24171.0675 823.6200
v -24864.0150 24171.0675 1423.6200
v -25431.0150 24014.0675 1423.6200
v -24864.0150 24171.0675 823.6200
v -24971.0150 24557.5675 823.6200
v -24864.0150 24171.0675 1423.6200
v -24971.0150 24557.5675 823.6200
v -24971.0150 24557.5675 1423.6200
v -24864.0150 24171.0675 1423.6200
v -24971.0150 24557.5675 823.6200
v -25538.0150 24401.0675 823.6200
v -24971.0150 24557.5675 1423.6200
v -25538.0150 24401.0675 823.6200
v -25538.0150 24401.0675 1423.6200
v -24971.0150 24557.5675 1423.6200
v -24529.0150 24677.5675 862.0800
v -24519.0150 24689.0675 862.0800
v -24206.5150 24744.5675 862.0800
v -23641.5150 24221.0675 862.0800
v -24449.0150 24078.5675 862.0800
v -24529.0150 24677.5675 862.0800
v -24206.5150 24744.5675 862.0800
v -23722.0150 24843.5675 862.0800
v -23641.5150 24221.0675 862.0800
v -23641.5150 24221.0675 862.0800
v -24529.0150 24677.5675 862.0800
v -24206.5150 24744.5675 862.0800
v -24206.5150 24744.5675 1462.0800
v -24519.0150 24689.0675 1462.0800
v -24529.0150 24677.5675 1462.0800
v -24529.0150 24677.5675 1462.0800
v -24449.0150 24078.5675 1462.0800
v -23641.5150 24221.0675 1462.0800
v -23641.5150 24221.0675 1462.0800
v -23722.0150 24843.5675 1462.0800
v -24206.5150 24744.5675 1462.0800
v -24206.5150 24744.5675 1462.0800
v -24529.0150 24677.5675 1462.0800
v -23641.5150 24221.0675 1462.0800
v -24529.0150 24677.5675 862.0800
v -24449.0150 24078.5675 862.0800
v -24529.0150 24677.5675 1462.0800
v -24449.0150 24078.5675 862.0800
v -24449.0150 24078.5675 1462.0800
v -24529.0150 24677.5675 1462.0800
v -24449.0150 24078.5675 862.0800
v -23641.5150 24221.0675 862.0800
v -24449.0150 24078.5675 1462.0800
v -23641.5150 24221.0675 862.0800
v -23641.5150 24221.0675 1462.0800
v -24449.0150 24078.5675 1462.0800
v -23641.5150 24221.0675 862.0800
v -23722.0150 24843.5675 862.0800
v -23641.5150 24221.0675 1462.0800
v -23722.0150 24843.5675 862.0800
v -23722.0150 24843.5675 1462.0800
v -23641.5150 24221.0675 1462.0800
v -23722.0150 24843.5675 862.0800
v -24206.5150 24744.5675 862.0800
v -23722.0150 24843.5675 1462.0800
v -24206.5150 24744.5675 862.0800
v -24206.5150 24744.5675 1462.0800
v -23722.0150 24843.5675 1462.0800
v -24206.5150 24744.5675 862.0800
v -24519.0150 24689.0675 862.0800
v -24206.5150 24744.5675 1462.0800
v -24519.0150 24689.0675 862.0800
v -24519.0150 24689.0675 1462.0800
v -24206.5150 24744.5675 1462.0800
v -24519.0150 24689.0675 862.0800
v -24529.0150 24677.5675 862.0800
v -24519.0150 24689.0675 1462.0800
v -24529.0150 24677.5675 862.0800
v -24529.0150 24677.5675 1462.0800
v -24519.0150 24689.0675 1462.0800
v -24573.5150 25109.0675 941.1000
v -24302.0150 25174.5675 941.1000
v -24206.5150 24744.5675 941.1000
v -24206.5150 24744.5675 941.1000
v -24519.0150 24689.0675 941.1000
v -24573.5150 25109.0675 941.1000
v -24206.5150 24744.5675 1541.1000
v -24302.0150 25174.5675 1541.1000
v -24573.5150 25109.0675 1541.1000
v -24573.5150 25109.0675 1541.1000
v -24519.0150 24689.0675 1541.1000
v -24206.5150 24744.5675 1541.1000
v -24573.5150 25109.0675 941.1000
v -24519.0150 24689.0675 941.1000
v -24573.5150 25109.0675 1541.1000
v -24519.0150 24689.0675 941.1000
v -24519.0150 24689.0675 1541.1000
v -24573.5150 25109.0675 1541.1000
v -24519.0150 24689.0675 941.1000
v -24206.5150 24744.5675 941.1000
v -24519.0150 24689.0675 1541.1000
v -24206.5150 24744.5675 941.1000
v -24206.5150 24744.5675 1541.1000
v -24519.0150 24689.0675 1541.1000
v -24206.5150 24744.5675 941.1000
v -24302.0150 25174.5675 941.1000
v -24206.5150 24744.5675 1541.1000
v -24302.0150 25174.5675 941.1000
v -24302.0150 25174.5675 1541.1000
v -24206.5150 24744.5675 1541.1000
v -24302.0150 25174.5675 941.1000
v -24573.5150 25109.0675 941.1000
v -24302.0150 25174.5675 1541.1000
v -24573.5150 25109.0675 941.1000
v -24573.5150 25109.0675 1541.1000
v -24302.0150 25174.5675 1541.1000
v -23620.0150 24962.0675 826.7800
v -22953.5150 25110.0675 826.7800
v -22818.5150 24475.5675 826.7800
v -22818.5150 24475.5675 826.7800
v -23516.5150 24357.5675 826.7800
v -23620.0150 24962.0675 826.7800
v -22818.5150 24475.5675 1426.7800
v -22953.5150 25110.0675 1426.7800
v -23620.0150 24962.0675 1426.7800
v -23620.0150 24962.0675 1426.7800
v -23516.5150 24357.5675 1426.7800
v -22818.5150 24475.5675 1426.7800
v -23620.0150 24962.0675 826.7800
v -23516.5150 24357.5675 826.7800
v -23620.0150 24962.0675 1426.7800
v -23516.5150 24357.5675 826.7800
v -23516.5150 24357.5675 1426.7800
v -23620.0150 24962.0675 1426.7800
v -23516.5150 24357.5675 826.7800
v -22818.5150 24475.5675 826.7800
v -23516.5150 24357.5675 1426.7800
v -22818.5150 24475.5675 826.7800
v -22818.5150 24475.5675 1426.7800
v -23516.5150 24357.5675 1426.7800
v -22818.5150 24475.5675 826.7800
v -22953.5150 25110.0675 826.7800
v -22818.5150 24475.5675 1426.7800
v -22953.5150 25110.0675 826.7800
v -22953.5150 25110.0675 1426.7800
v -22818.5150 24475.5675 1426.7800
v -22953.5150 25110.0675 826.7800
v -23620.0150 24962.0675 826.7800
v -22953.5150 25110.0675 1426.7800
v -23620.0150 24962.0675 826.7800
v -23620.0150 24962.0675 1426.7800
v -22953.5150 25110.0675 1426.7800
v -24134.5150 20959.0675 279.3000
v -22832.5150 21243.5675 279.3000
v -22622.5150 20283.5675 279.3000
v -22205.0150 19927.0675 279.3000
v -23831.0150 19572.5675 279.3000
v -24134.5150 20959.0675 279.3000
v -22622.5150 20283.5675 279.3000
v -22298.5150 20354.5675 279.3000
v -22205.0150 19927.0675 279.3000
v -22205.0150 19927.0675 279.3000
v -24134.5150 20959.0675 279.3000
v -22622.5150 20283.5675 279.3000
v -22622.5150 20283.5675 1179.3000
v -22832.5150 21243.5675 1179.3000
v -24134.5150 20959.0675 1179.3000
v -24134.5150 20959.0675 1179.3000
v -23831.0150 19572.5675 1179.3000
v -22205.0150 19927.0675 1179.3000
v -22205.0150 19927.0675 1179.3000
v -22298.5150 20354.5675 1179.3000
v -22622.5150 20283.5675 1179.3000
v -22622.5150 20283.5675 1179.3000
v -24134.5150 20959.0675 1179.3000
v -22205.0150 19927.0675 1179.3000
v -24134.5150 20959.0675 279.3000
v -23831.0150 19572.5675 279.3000
v -24134.5150 20959.0675 1179.3000
v -23831.0150 19572.5675 279.3000
v -23831.0150 19572.5675 1179.3000
v -24134.5150 20959.0675 1179.3000
v -23831.0150 19572.5675 279.3000
v -22205.0150 19927.0675 279.3000
v -23831.0150 19572.5675 1179.3000
v -22205.0150 19927.0675 279.3000
v -22205.0150 19927.0675 1179.3000
v -23831.0150 19572.5675 1179.3000
v -22205.0150 19927.0675 279.3000
v -22298.5150 20354.5675 279.3000
v -22205.0150 19927.0675 1179.3000
v -22298.5150 20354.5675 279.3000
v -22298.5150 20354.5675 1179.3000
v -22205.0150 19927.0675 1179.3000
v -22298.5150 20354.5675 279.3000
v -22622.5150 20283.5675 279.3000
v -22298.5150 20354.5675 1179.3000
v -22622.5150 20283.5675 279.3000
v -22622.5150 20283.5675 1179.3000
v -22298.5150 20354.5675 1179.3000
v -22622.5150 20283.5675 279.3000
v -22832.5150 21243.5675 279.3000
v -22622.5150 20283.5675 1179.3000
v -22832.5150 21243.5675 279.3000
v -22832.5150 21243.5675 1179.3000
v -22622.5150 20283.5675 1179.3000
v -22832.5150 21243.5675 279.3000
v -24134.5150 20959.0675 279.3000
v -22832.5150 21243.5675 1179.3000
v -24134.5150 20959.0675 279.3000
v -24134.5150 20959.0675 1179.3000
v -22832.5150 21243.5675 1179.3000
v -23496.0150 23023.0675 460.0600
v -22709.5150 23116.5675 460.0600
v -22487.0150 21576.0675 460.0600
v -24291.5150 21127.0675 460.0600
v -24564.0150 21931.5675 460.0600
v -23347.5150 22291.5675 460.0600
v -23347.5150 22291.5675 460.0600
v -23496.0150 23023.0675 460.0600
v -22487.0150 21576.0675 460.0600
v -22487.0150 21576.0675 460.0600
v -24291.5150 21127.0675 460.0600
v -23347.5150 22291.5675 460.0600
v -22487.0150 21576.0675 1360.0600
v -22709.5150 23116.5675 1360.0600
v -23496.0150 23023.0675 1360.0600
v -23347.5150 22291.5675 1360.0600
v -24564.0150 21931.5675 1360.0600
v -24291.5150 21127.0675 1360.0600
v -22487.0150 21576.0675 1360.0600
v -23496.0150 23023.0675 1360.0600
v -23347.5150 22291.5675 1360.0600
v -23347.5150 22291.5675 1360.0600
v -24291.5150 21127.0675 1360.0600
v -22487.0150 21576.0675 1360.0600
v -23496.0150 23023.0675 460.0600
v -23347.5150 22291.5675 460.0600
v -23496.0150 23023.0675 1360.0600
v -23347.5150 22291.5675 460.0600
v -23347.5150 22291.5675 1360.0600
v -23496.0150 23023.0675 1360.0600
v -23347.5150 22291.5675 460.0600
v -24564.0150 21931.5675 460.0600
v -23347.5150 22291.5675 1360.0600
v -24564.0150 21931.5675 460.0600
v -24564.0150 21931.5675 1360.0600
v -23347.5150 22291.5675 1360.0600
v -24564.0150 21931.5675 460.0600
v -24291.5150 21127.0675 460.0600
v -24564.0150 21931.5675 1360.0600
v -24291.5150 21127.0675 460.0600
v -24291.5150 21127.0675 1360.0600
v -24564.0150 21931.5675 1360.0600
v -24291.5150 21127.0675 460.0600
v -22487.0150 21576.0675 460.0600
v -24291.5150 21127.0675 1360.0600
v -22487.0150 21576.0675 460.0600
v -22487.0150 21576.0675 1360.0600
v -24291.5150 21127.0675 1360.0600
v -22487.0150 21576.0675 460.0600
v -22709.5150 23116.5675 460.0600
v -22487.0150 21576.0675 1360.0600
v -22709.5150 23116.5675 460.0600
v -22709.5150 23116.5675 1360.0600
v -22487.0150 21576.0675 1360.0600
v -22709.5150 23116.5675 460.0600
v -23496.0150 23023.0675 460.0600
v -22709.5150 23116.5675 1360.0600
v -23496.0150 23023.0675 460.0600
v -23496.0150 23023.0675 1360.0600
v -22709.5150 23116.5675 1360.0600
v -24979.5150 23807.5675 694.3800
v -24322.0150 23911.0675 694.3800
v -23975.5150 22855.0675 694.3800
v -23975.5150 22855.0675 694.3800
v -24682.5150 22687.5675 694.3800
v -24979.5150 23807.5675 694.3800
v -23975.5150 22855.0675 1294.3800
v -24322.0150 23911.0675 1294.3800
v -24979.5150 23807.5675 1294.3800
v -24979.5150 23807.5675 1294.3800
v -24682.5150 22687.5675 1294.3800
v -23975.5150 22855.0675 1294.3800
v -24979.5150 23807.5675 694.3800
v -24682.5150 22687.5675 694.3800
v -24979.5150 23807.5675 1294.3800
v -24682.5150 22687.5675 694.3800
v -24682.5150 22687.5675 1294.3800
v -24979.5150 23807.5675 1294.3800
v -24682.5150 22687.5675 694.3800
v -23975.5150 22855.0675 694.3800
v -24682.5150 22687.5675 1294.3800
v -23975.5150 22855.0675 694.3800
v -23975.5150 22855.0675 1294.3800
v -24682.5150 22687.5675 1294.3800
v -23975.5150 22855.0675 694.3800
v -24322.0150 23911.0675 694.3800
v -23975.5150 22855.0675 1294.3800
v -24322.0150 23911.0675 694.3800
v -24322.0150 23911.0675 1294.3800
v -23975.5150 22855.0675 1294.3800
v -24322.0150 23911.0675 694.3800
v -24979.5150 23807.5675 694.3800
v -24322.0150 23911.0675 1294.3800
v -24979.5150 23807.5675 694.3800
v -24979.5150 23807.5675 1294.3800
v -24322.0150 23911.0675 1294.3800
v -25844.5150 22261.5675 498.8600
v -24748.0150 22564.0675 498.8600
v -24635.0150 22158.5675 498.8600
v -24635.0150 22158.5675 498.8600
v -25733.0150 21856.0675 498.8600
v -25844.5150 22261.5675 498.8600
v -24635.0150 22158.5675 1398.8600
v -24748.0150 22564.0675 1398.8600
v -25844.5150 22261.5675 1398.8600
v -25844.5150 22261.5675 1398.8600
v -25733.0150 21856.0675 1398.8600
v -24635.0150 22158.5675 1398.8600
v -25844.5150 22261.5675 498.8600
v -25733.0150 21856.0675 498.8600
v -25844.5150 22261.5675 1398.8600
v -25733.0150 21856.0675 498.8600
v -25733.0150 21856.0675 1398.8600
v -25844.5150 22261.5675 1398.8600
v -25733.0150 21856.0675 498.8600
v -24635.0150 22158.5675 498.8600
v -25733.0150 21856.0675 1398.8600
v -24635.0150 22158.5675 498.8600
v -24635.0150 22158.5675 1398.8600
v -25733.0150 21856.0675 1398.8600
v -24635.0150 22158.5675 498.8600
v -24748.0150 22564.0675 498.8600
v -24635.0150 22158.5675 1398.8600
v -24748.0150 22564.0675 498.8600
v -24748.0150 22564.0675 1398.8600
v -24635.0150 22158.5675 1398.8600
v -24748.0150 22564.0675 498.8600
v -25844.5150 22261.5675 498.8600
v -24748.0150 22564.0675 1398.8600
v -25844.5150 22261.5675 498.8600
v -25844.5150 22261.5675 1398.8600
v -24748.0150 22564.0675 1398.8600
v -27100.5150 23717.5675 642.5400
v -26137.0150 23988.5675 642.5400
v -25919.5150 23202.0675 642.5400
v -25919.5150 23202.0675 642.5400
v -26808.0150 22964.0675 642.5400
v -27100.5150 23717.5675 642.5400
v -25919.5150 23202.0675 1242.5400
v -26137.0150 23988.5675 1242.5400
v -27100.5150 23717.5675 1242.5400
v -27100.5150 23717.5675 1242.5400
v -26808.0150 22964.0675 1242.5400
v -25919.5150 23202.0675 1242.5400
v -27100.5150 23717.5675 642.5400
v -26808.0150 22964.0675 642.5400
v -27100.5150 23717.5675 1242.5400
v -26808.0150 22964.0675 642.5400
v -26808.0150 22964.0675 1242.5400
v -27100.5150 23717.5675 1242.5400
v -26808.0150 22964.0675 642.5400
v -25919.5150 23202.0675 642.5400
v -26808.0150 22964.0675 1242.5400
v -25919.5150 23202.0675 642.5400
v -25919.5150 23202.0675 1242.5400
v -26808.0150 22964.0675 1242.5400
v -25919.5150 23202.0675 642.5400
v -26137.0150 23988.5675 642.5400
v -25919.5150 23202.0675 1242.5400
v -26137.0150 23988.5675 642.5400
v -26137.0150 23988.5675 1242.5400
v -25919.5150 23202.0675 1242.5400
v -26137.0150 23988.5675 642.5400
v -27100.5150 23717.5675 642.5400
v -26137.0150 23988.5675 1242.5400
v -27100.5150 23717.5675 642.5400
v -27100.5150 23717.5675 1242.5400
v -26137.0150 23988.5675 1242.5400
v -27339.0150 22958.5675 554.5400
v -27064.5150 23048.5675 554.5400
v -26876.0150 22481.5675 554.5400
v -26876.0150 22481.5675 554.5400
v -27150.5150 22390.5675 554.5400
v -27339.0150 22958.5675 554.5400
v -26876.0150 22481.5675 1454.5400
v -27064.5150 23048.5675 1454.5400
v -27339.0150 22958.5675 1454.5400
v -27339.0150 22958.5675 1454.5400
v -27150.5150 22390.5675 1454.5400
v -26876.0150 22481.5675 1454.5400
v -27339.0150 22958.5675 554.5400
v -27150.5150 22390.5675 554.5400
v -27339.0150 22958.5675 1454.5400
v -27150.5150 22390.5675 554.5400
v -27150.5150 22390.5675 1454.5400
v -27339.0150 22958.5675 1454.5400
v -27150.5150 22390.5675 554.5400
v -26876.0150 22481.5675 554.5400
v -27150.5150 22390.5675 1454.5400
v -26876.0150 22481.5675 554.5400
v -26876.0150 22481.5675 1454.5400
v -27150.5150 22390.5675 1454.5400
v -26876.0150 22481.5675 554.5400
v -27064.5150 23048.5675 554.5400
v -26876.0150 22481.5675 1454.5400
v -27064.5150 23048.5675 554.5400
v -27064.5150 23048.5675 1454.5400
v -26876.0150 22481.5675 1454.5400
v -27064.5150 23048.5675 554.5400
v -27339.0150 22958.5675 554.5400
v -27064.5150 23048.5675 1454.5400
v -27339.0150 22958.5675 554.5400
v -27339.0150 22958.5675 1454.5400
v -27064.5150 23048.5675 1454.5400
v -27164.0150 22147.0675 451.4000
v -26808.0150 22277.0675 451.4000
v -26679.5150 21928.5675 451.4000
v -26679.5150 21928.5675 451.4000
v -27035.0150 21797.0675 451.4000
v -27164.0150 22147.0675 451.4000
v -26679.5150 21928.5675 1051.4000
v -26808.0150 22277.0675 1051.4000
v -27164.0150 22147.0675 1051.4000
v -27164.0150 22147.0675 1051.4000
v -27035.0150 21797.0675 1051.4000
v -26679.5150 21928.5675 1051.4000
v -27164.0150 22147.0675 451.4000
v -27035.0150 21797.0675 451.4000
v -27164.0150 22147.0675 1051.4000
v -27035.0150 21797.0675 451.4000
v -27035.0150 21797.0675 1051.4000
v -27164.0150 22147.0675 1051.4000
v -27035.0150 21797.0675 451.4000
v -26679.5150 21928.5675 451.4000
v -27035.0150 21797.0675 1051.4000
v -26679.5150 21928.5675 451.4000
v -26679.5150 21928.5675 1051.4000
v -27035.0150 21797.0675 1051.4000
v -26679.5150 21928.5675 451.4000
v -26808.0150 22277.0675 451.4000
v -26679.5150 21928.5675 1051.4000
v -26808.0150 22277.0675 451.4000
v -26808.0150 22277.0675 1051.4000
v -26679.5150 21928.5675 1051.4000
v -26808.0150 22277.0675 451.4000
v -27164.0150 22147.0675 451.4000
v -26808.0150 22277.0675 1051.4000
v -27164.0150 22147.0675 451.4000
v -27164.0150 22147.0675 1051.4000
v -26808.0150 22277.0675 1051.4000
v -27487.5150 21605.0675 225.2000
v -26671.0150 21871.5675 225.2000
v -26363.0150 20932.5675 225.2000
v -26363.0150 20932.5675 225.2000
v -27179.0150 20666.0675 225.2000
v -27487.5150 21605.0675 225.2000
v -26363.0150 20932.5675 825.2000
v -26671.0150 21871.5675 825.2000
v -27487.5150 21605.0675 825.2000
v -27487.5150 21605.0675 825.2000
v -27179.0150 20666.0675 825.2000
v -26363.0150 20932.5675 825.2000
v -27487.5150 21605.0675 225.2000
v -27179.0150 20666.0675 225.2000
v -27487.5150 21605.0675 825.2000
v -27179.0150 20666.0675 225.2000
v -27179.0150 20666.0675 825.2000
v -27487.5150 21605.0675 825.2000
v -27179.0150 20666.0675 225.2000
v -26363.0150 20932.5675 225.2000
v -27179.0150 20666.0675 825.2000
v -26363.0150 20932.5675 225.2000
v -26363.0150 20932.5675 825.2000
v -27179.0150 20666.0675 825.2000
v -26363.0150 20932.5675 225.2000
v -26671.0150 21871.5675 225.2000
v -26363.0150 20932.5675 825.2000
v -26671.0150 21871.5675 225.2000
v -26671.0150 21871.5675 825.2000
v -26363.0150 20932.5675 825.2000
v -26671.0150 21871.5675 225.2000
v -27487.5150 21605.0675 225.2000
v -26671.0150 21871.5675 825.2000
v -27487.5150 21605.0675 225.2000
v -27487.5150 21605.0675 825.2000
v -26671.0150 21871.5675 825.2000
v -26358.5150 21452.5675 316.9800
v -25899.5150 21610.5675 316.9800
v -25758.5150 21201.5675 316.9800
v -25758.5150 21201.5675 316.9800
v -26217.5150 21043.5675 316.9800
v -26358.5150 21452.5675 316.9800
v -25758.5150 21201.5675 1216.9800
v -25899.5150 21610.5675 1216.9800
v -26358.5150 21452.5675 1216.9800
v -26358.5150 21452.5675 1216.9800
v -26217.5150 21043.5675 1216.9800
v -25758.5150 21201.5675 1216.9800
v -26358.5150 21452.5675 316.9800
v -26217.5150 21043.5675 316.9800
v -26358.5150 21452.5675 1216.9800
v -26217.5150 21043.5675 316.9800
v -26217.5150 21043.5675 1216.9800
v -26358.5150 21452.5675 1216.9800
v -26217.5150 21043.5675 316.9800
v -25758.5150 21201.5675 316.9800
v -26217.5150 21043.5675 1216.9800
v -25758.5150 21201.5675 316.9800
v -25758.5150 21201.5675 1216.9800
v -26217.5150 21043.5675 1216.9800
v -25758.5150 21201.5675 316.9800
v -25899.5150 21610.5675 316.9800
v -25758.5150 21201.5675 1216.9800
v -25899.5150 21610.5675 316.9800
v -25899.5150 21610.5675 1216.9800
v -25758.5150 21201.5675 1216.9800
v -25899.5150 21610.5675 316.9800
v -26358.5150 21452.5675 316.9800
v -25899.5150 21610.5675 1216.9800
v -26358.5150 21452.5675 316.9800
v -26358.5150 21452.5675 1216.9800
v -25899.5150 21610.5675 1216.9800
v -23615.0150 24094.0675 726.8400
v -22833.5150 24158.5675 726.8400
v -22757.5150 23261.0675 726.8400
v -22757.5150 23261.0675 726.8400
v -23539.5150 23195.0675 726.8400
v -23615.0150 24094.0675 726.8400
v -22757.5150 23261.0675 1626.8400
v -22833.5150 24158.5675 1626.8400
v -23615.0150 24094.0675 1626.8400
v -23615.0150 24094.0675 1626.8400
v -23539.5150 23195.0675 1626.8400
v -22757.5150 23261.0675 1626.8400
v -23615.0150 24094.0675 726.8400
v -23539.5150 23195.0675 726.8400
v -23615.0150 24094.0675 1626.8400
v -23539.5150 23195.0675 726.8400
v -23539.5150 23195.0675 1626.8400
v -23615.0150 24094.0675 1626.8400
v -23539.5150 23195.0675 726.8400
v -22757.5150 23261.0675 726.8400
v -23539.5150 23195.0675 1626.8400
v -22757.5150 23261.0675 726.8400
v -22757.5150 23261.0675 1626.8400
v -23539.5150 23195.0675 1626.8400
v -22757.5150 23261.0675 726.8400
v -22833.5150 24158.5675 726.8400
v -22757.5150 23261.0675 1626.8400
v -22833.5150 24158.5675 726.8400
v -22833.5150 24158.5675 1626.8400
v -22757.5150 23261.0675 1626.8400
v -22833.5150 24158.5675 726.8400
v -23615.0150 24094.0675 726.8400
v -22833.5150 24158.5675 1626.8400
v -23615.0150 24094.0675 726.8400
v -23615.0150 24094.0675 1626.8400
v -22833.5150 24158.5675 1626.8400
v -21866.5150 21159.0675 269.8200
v -21363.0150 21257.0675 269.8200
v -21091.0150 19869.0675 269.8200
v -21091.0150 19869.0675 269.8200
v -21594.5150 19771.0675 269.8200
v -21866.5150 21159.0675 269.8200
v -21091.0150 19869.0675 1169.8200
v -21363.0150 21257.0675 1169.8200
v -21866.5150 21159.0675 1169.8200
v -21866.5150 21159.0675 1169.8200
v -21594.5150 19771.0675 1169.8200
v -21091.0150 19869.0675 1169.8200
v -21866.5150 21159.0675 269.8200
v -21594.5150 19771.0675 269.8200
v -21866.5150 21159.0675 1169.8200
v -21594.5150 19771.0675 269.8200
v -21594.5150 19771.0675 1169.8200
v -21866.5150 21159.0675 1169.8200
v -21594.5150 19771.0675 269.8200
v -21091.0150 19869.0675 269.8200
v -21594.5150 19771.0675 1169.8200
v -21091.0150 19869.0675 269.8200
v -21091.0150 19869.0675 1169.8200
v -21594.5150 19771.0675 1169.8200
v -21091.0150 19869.0675 269.8200
v -21363.0150 21257.0675 269.8200
v -21091.0150 19869.0675 1169.8200
v -21363.0150 21257.0675 269.8200
v -21363.0150 21257.0675 1169.8200
v -21091.0150 19869.0675 1169.8200
v -21363.0150 21257.0675 269.8200
v -21866.5150 21159.0675 269.8200
v -21363.0150 21257.0675 1169.8200
v -21866.5150 21159.0675 269.8200
v -21866.5150 21159.0675 1169.8200
v -21363.0150 21257.0675 1169.8200
v -23946.5150 29603.0675 1232.9200
v -23388.0150 29762.0675 1232.9200
v -23018.0150 28413.0675 1232.9200
v -23760.0150 28986.5675 1232.9200
v -23832.0150 29222.0675 1232.9200
v -23946.5150 29603.0675 1232.9200
v -23018.0150 28413.0675 1232.9200
v -23549.0150 28285.0675 1232.9200
v -23760.0150 28986.5675 1232.9200
v -23760.0150 28986.5675 1232.9200
v -23946.5150 29603.0675 1232.9200
v -23018.0150 28413.0675 1232.9200
v -23018.0150 28413.0675 2132.9200
v -23388.0150 29762.0675 2132.9200
v -23946.5150 29603.0675 2132.9200
v -23946.5150 29603.0675 2132.9200
v -23832.0150 29222.0675 2132.9200
v -23760.0150 28986.5675 2132.9200
v -23760.0150 28986.5675 2132.9200
v -23549.0150 28285.0675 2132.9200
v -23018.0150 28413.0675 2132.9200
v -23018.0150 28413.0675 2132.9200
v -23946.5150 29603.0675 2132.9200
v -23760.0150 28986.5675 2132.9200
v -23946.5150 29603.0675 1232.9200
v -23832.0150 29222.0675 1232.9200
v -23946.5150 29603.0675 2132.9200
v -23832.0150 29222.0675 1232.9200
v -23832.0150 29222.0675 2132.9200
v -23946.5150 29603.0675 2132.9200
v -23832.0150 29222.0675 1232.9200
v -23760.0150 28986.5675 1232.9200
v -23832.0150 29222.0675 2132.9200
v -23760.0150 28986.5675 1232.9200
v -23760.0150 28986.5675 2132.9200
v -23832.0150 29222.0675 2132.9200
v -23760.0150 28986.5675 1232.9200
v -23549.0150 28285.0675 1232.9200
v -23760.0150 28986.5675 2132.9200
v -23549.0150 28285.0675 1232.9200
v -23549.0150 28285.0675 2132.9200
v -23760.0150 28986.5675 2132.9200
v -23549.0150 28285.0675 1232.9200
v -23018.0150 28413.0675 1232.9200
v -23549.0150 28285.0675 2132.9200
v -23018.0150 28413.0675 1232.9200
v -23018.0150 28413.0675 2132.9200
v -23549.0150 28285.0675 2132.9200
v -23018.0150 28413.0675 1232.9200
v -23388.0150 29762.0675 1232.9200
v -23018.0150 28413.0675 2132.9200
v -23388.0150 29762.0675 1232.9200
v -23388.0150 29762.0675 2132.9200
v -23018.0150 28413.0675 2132.9200
v -23388.0150 29762.0675 1232.9200
v -23946.5150 29603.0675 1232.9200
v -23388.0150 29762.0675 2132.9200
v -23946.5150 29603.0675 1232.9200
v -23946.5150 29603.0675 2132.9200
v -23388.0150 29762.0675 2132.9200
v -23211.0150 29762.0675 1237.1400
v -21775.5150 30133.0675 1237.1400
v -21473.5150 28969.5675 1237.1400
v -22452.0150 28630.5675 1237.1400
v -22889.0150 28518.5675 1237.1400
v -23211.0150 29762.0675 1237.1400
v -21473.5150 28969.5675 1237.1400
v -22075.5150 28814.0675 1237.1400
v -22149.0150 29097.5675 1237.1400
v -22545.5150 28995.0675 1237.1400
v -22452.0150 28630.5675 1237.1400
v -23211.0150 29762.0675 1237.1400
v -23211.0150 29762.0675 1237.1400
v -21473.5150 28969.5675 1237.1400
v -22149.0150 29097.5675 1237.1400
v -22149.0150 29097.5675 1237.1400
v -22545.5150 28995.0675 1237.1400
v -23211.0150 29762.0675 1237.1400
v -21473.5150 28969.5675 2137.1400
v -21775.5150 30133.0675 2137.1400
v -23211.0150 29762.0675 2137.1400
v -23211.0150 29762.0675 2137.1400
v -22889.0150 28518.5675 2137.1400
v -22452.0150 28630.5675 2137.1400
v -22149.0150 29097.5675 2137.1400
v -22075.5150 28814.0675 2137.1400
v -21473.5150 28969.5675 2137.1400
v -23211.0150 29762.0675 2137.1400
v -22452.0150 28630.5675 2137.1400
v -22545.5150 28995.0675 2137.1400
v -22149.0150 29097.5675 2137.1400
v -21473.5150 28969.5675 2137.1400
v -23211.0150 29762.0675 2137.1400
v -23211.0150 29762.0675 2137.1400
v -22545.5150 28995.0675 2137.1400
v -22149.0150 29097.5675 2137.1400
v -23211.0150 29762.0675 1237.1400
v -22889.0150 28518.5675 1237.1400
v -23211.0150 29762.0675 2137.1400
v -22889.0150 28518.5675 1237.1400
v -22889.0150 28518.5675 2137.1400
v -23211.0150 29762.0675 2137.1400
v -22889.0150 28518.5675 1237.1400
v -22452.0150 28630.5675 1237.1400
v -22889.0150 28518.5675 2137.1400
v -22452.0150 28630.5675 1237.1400
v -22452.0150 28630.5675 2137.1400
v -22889.0150 28518.5675 2137.1400
v -22452.0150 28630.5675 1237.1400
v -22545.5150 28995.0675 1237.1400
v -22452.0150 28630.5675 2137.1400
v -22545.5150 28995.0675 1237.1400
v -22545.5150 28995.0675 2137.1400
v -22452.0150 28630.5675 2137.1400
v -22545.5150 28995.0675 1237.1400
v -22149.0150 29097.5675 1237.1400
v -22545.5150 28995.0675 2137.1400
v -22149.0150 29097.5675 1237.1400
v -22149.0150 29097.5675 2137.1400
v -22545.5150 28995.0675 2137.1400
v -22149.0150 29097.5675 1237.1400
v -22075.5150 28814.0675 1237.1400
v -22149.0150 29097.5675 2137.1400
v -22075.5150 28814.0675 1237.1400
v -22075.5150 28814.0675 2137.1400
v -22149.0150 29097.5675 2137.1400
v -22075.5150 28814.0675 1237.1400
v -21473.5150 28969.5675 1237.1400
v -22075.5150 28814.0675 2137.1400
v -21473.5150 28969.5675 1237.1400
v -21473.5150 28969.5675 2137.1400
v -22075.5150 28814.0675 2137.1400
v -21473.5150 28969.5675 1237.1400
v -21775.5150 30133.0675 1237.1400
v -21473.5150 28969.5675 2137.1400
v -21775.5150 30133.0675 1237.1400
v -21775.5150 30133.0675 2137.1400
v -21473.5150 28969.5675 2137.1400
v -21775.5150 30133.0675 1237.1400
v -23211.0150 29762.0675 1237.1400
v -21775.5150 30133.0675 2137.1400
v -23211.0150 29762.0675 1237.1400
v -23211.0150 29762.0675 2137.1400
v -21775.5150 30133.0675 2137.1400
v -21583.5150 30291.0675 1258.6600
v -20536.5150 30324.5675 1258.6600
v -20526.5150 29279.5675 1258.6600
v -20526.5150 29279.5675 1258.6600
v -21385.5150 29056.5675 1258.6600
v -21583.5150 30291.0675 1258.6600
v -20526.5150 29279.5675 1858.6600
v -20536.5150 30324.5675 1858.6600
v -21583.5150 30291.0675 1858.6600
v -21583.5150 30291.0675 1858.6600
v -21385.5150 29056.5675 1858.6600
v -20526.5150 29279.5675 1858.6600
v -21583.5150 30291.0675 1258.6600
v -21385.5150 29056.5675 1258.6600
v -21583.5150 30291.0675 1858.6600
v -21385.5150 29056.5675 1258.6600
v -21385.5150 29056.5675 1858.6600
v -21583.5150 30291.0675 1858.6600
v -21385.5150 29056.5675 1258.6600
v -20526.5150 29279.5675 1258.6600
v -21385.5150 29056.5675 1858.6600
v -20526.5150 29279.5675 1258.6600
v -20526.5150 29279.5675 1858.6600
v -21385.5150 29056.5675 1858.6600
v -20526.5150 29279.5675 1258.6600
v -20536.5150 30324.5675 1258.6600
v -20526.5150 29279.5675 1858.6600
v -20536.5150 30324.5675 1258.6600
v -20536.5150 30324.5675 1858.6600
v -20526.5150 29279.5675 1858.6600
v -20536.5150 30324.5675 1258.6600
v -21583.5150 30291.0675 1258.6600
v -20536.5150 30324.5675 1858.6600
v -21583.5150 30291.0675 1258.6600
v -21583.5150 30291.0675 1858.6600
v -20536.5150 30324.5675 1858.6600
v -24084.5150 29168.5675 1299.6400
v -23832.0150 29222.0675 1299.6400
v -23760.0150 28986.5675 1299.6400
v -24009.5150 28908.5675 1299.6400
v -24044.5150 29010.5675 1299.6400
v -24084.5150 29168.5675 1299.6400
v -24084.5150 29168.5675 1299.6400
v -23760.0150 28986.5675 1299.6400
v -24009.5150 28908.5675 1299.6400
v -23760.0150 28986.5675 1899.6400
v -23832.0150 29222.0675 1899.6400
v -24084.5150 29168.5675 1899.6400
v -24084.5150 29168.5675 1899.6400
v -24044.5150 29010.5675 1899.6400
v -24009.5150 28908.5675 1899.6400
v -24009.5150 28908.5675 1899.6400
v -23760.0150 28986.5675 1899.6400
v -24084.5150 29168.5675 1899.6400
v -24084.5150 29168.5675 1299.6400
v -24044.5150 29010.5675 1299.6400
v -24084.5150 29168.5675 1899.6400
v -24044.5150 29010.5675 1299.6400
v -24044.5150 29010.5675 1899.6400
v -24084.5150 29168.5675 1899.6400
v -24044.5150 29010.5675 1299.6400
v -24009.5150 28908.5675 1299.6400
v -24044.5150 29010.5675 1899.6400
v -24009.5150 28908.5675 1299.6400
v -24009.5150 28908.5675 1899.6400
v -24044.5150 29010.5675 1899.6400
v -24009.5150 28908.5675 1299.6400
v -23760.0150 28986.5675 1299.6400
v -24009.5150 28908.5675 1899.6400
v -23760.0150 28986.5675 1299.6400
v -23760.0150 28986.5675 1899.6400
v -24009.5150 28908.5675 1899.6400
v -23760.0150 28986.5675 1299.6400
v -23832.0150 29222.0675 1299.6400
v -23760.0150 28986.5675 1899.6400
v -23832.0150 29222.0675 1299.6400
v -23832.0150 29222.0675 1899.6400
v -23760.0150 28986.5675 1899.6400
v -23832.0150 29222.0675 1299.6400
v -24084.5150 29168.5675 1299.6400
v -23832.0150 29222.0675 1899.6400
v -24084.5150 29168.5675 1299.6400
v -24084.5150 29168.5675 1899.6400
v -23832.0150 29222.0675 1899.6400
v -23294.5150 25778.0675 967.2600
v -22893.0150 25842.5675 967.2600
v -22796.5150 25502.5675 967.2600
v -22796.5150 25502.5675 967.2600
v -23215.0150 25420.0675 967.2600
v -23237.5150 25533.5675 967.2600
v -23237.5150 25533.5675 967.2600
v -23294.5150 25778.0675 967.2600
v -22796.5150 25502.5675 967.2600
v -22796.5150 25502.5675 1567.2600
v -22893.0150 25842.5675 1567.2600
v -23294.5150 25778.0675 1567.2600
v -23237.5150 25533.5675 1567.2600
v -23215.0150 25420.0675 1567.2600
v -22796.5150 25502.5675 1567.2600
v -22796.5150 25502.5675 1567.2600
v -23294.5150 25778.0675 1567.2600
v -23237.5150 25533.5675 1567.2600
v -23294.5150 25778.0675 967.2600
v -23237.5150 25533.5675 967.2600
v -23294.5150 25778.0675 1567.2600
v -23237.5150 25533.5675 967.2600
v -23237.5150 25533.5675 1567.2600
v -23294.5150 25778.0675 1567.2600
v -23237.5150 25533.5675 967.2600
v -23215.0150 25420.0675 967.2600
v -23237.5150 25533.5675 1567.2600
v -23215.0150 25420.0675 967.2600
v -23215.0150 25420.0675 1567.2600
v -23237.5150 25533.5675 1567.2600
v -23215.0150 25420.0675 967.2600
v -22796.5150 25502.5675 967.2600
v -23215.0150 25420.0675 1567.2600
v -22796.5150 25502.5675 967.2600
v -22796.5150 25502.5675 1567.2600
v -23215.0150 25420.0675 1567.2600
v -22796.5150 25502.5675 967.2600
v -22893.0150 25842.5675 967.2600
v -22796.5150 25502.5675 1567.2600
v -22893.0150 25842.5675 967.2600
v -22893.0150 25842.5675 1567.2600
v -22796.5150 25502.5675 1567.2600
v -22893.0150 25842.5675 967.2600
v -23294.5150 25778.0675 967.2600
v -22893.0150 25842.5675 1567.2600
v -23294.5150 25778.0675 967.2600
v -23294.5150 25778.0675 1567.2600
v -22893.0150 25842.5675 1567.2600
v -24432.0150 29471.0675 1312.9400
v -24165.0150 29532.0675 1312.9400
v -24084.5150 29168.5675 1312.9400
v -24044.5150 29010.5675 1312.9400
v -24288.0150 28936.5675 1312.9400
v -24432.0150 29471.0675 1312.9400
v -24432.0150 29471.0675 1312.9400
v -24084.5150 29168.5675 1312.9400
v -24044.5150 29010.5675 1312.9400
v -24084.5150 29168.5675 1912.9400
v -24165.0150 29532.0675 1912.9400
v -24432.0150 29471.0675 1912.9400
v -24432.0150 29471.0675 1912.9400
v -24288.0150 28936.5675 1912.9400
v -24044.5150 29010.5675 1912.9400
v -24044.5150 29010.5675 1912.9400
v -24084.5150 29168.5675 1912.9400
v -24432.0150 29471.0675 1912.9400
v -24432.0150 29471.0675 1312.9400
v -24288.0150 28936.5675 1312.9400
v -24432.0150 29471.0675 1912.9400
v -24288.0150 28936.5675 1312.9400
v -24288.0150 28936.5675 1912.9400
v -24432.0150 29471.0675 1912.9400
v -24288.0150 28936.5675 1312.9400
v -24044.5150 29010.5675 1312.9400
v -24288.0150 28936.5675 1912.9400
v -24044.5150 29010.5675 1312.9400
v -24044.5150 29010.5675 1912.9400
v -24288.0150 28936.5675 1912.9400
v -24044.5150 29010.5675 1312.9400
v -24084.5150 29168.5675 1312.9400
v -24044.5150 29010.5675 1912.9400
v -24084.5150 29168.5675 1312.9400
v -24084.5150 29168.5675 1912.9400
v -24044.5150 29010.5675 1912.9400
v -24084.5150 29168.5675 1312.9400
v -24165.0150 29532.0675 1312.9400
v -24084.5150 29168.5675 1912.9400
v -24165.0150 29532.0675 1312.9400
v -24165.0150 29532.0675 1912.9400
v -24084.5150 29168.5675 1912.9400
v -24165.0150 29532.0675 1312.9400
v -24432.0150 29471.0675 1312.9400
v -24165.0150 29532.0675 1912.9400
v -24432.0150 29471.0675 1312.9400
v -24432.0150 29471.0675 1912.9400
v -24165.0150 29532.0675 1912.9400
f 3 2 1
f 6 5 4
f 9 8 7
f 12 11 10
f 15 14 13
f 18 17 16
f 21 20 19
f 24 23 22
f 27 26 25
f 30 29 28
f 33 32 31
f 36 35 34
f 39 38 37
f 42 41 40
f 45 44 43
f 48 47 46
f 51 50 49
f 54 53 52
f 57 56 55
f 60 59 58
f 63 62 61
f 66 65 64
f 69 68 67
f 72 71 70
f 75 74 73
f 78 77 76
f 81 80 79
f 84 83 82
f 87 86 85
f 90 89 88
f 93 92 91
f 96 95 94
f 99 98 97
f 102 101 100
f 105 104 103
f 108 107 106
f 111 110 109
f 114 113 112
f 117 116 115
f 120 119 118
f 123 122 121
f 126 125 124
f 129 128 127
f 132 131 130
f 135 134 133
f 138 137 136
f 141 140 139
f 144 143 142
f 147 146 145
f 150 149 148
f 153 152 151
f 156 155 154
f 159 158 157
f 162 161 160
f 165 164 163
f 168 167 166
f 171 170 169
f 174 173 172
f 177 176 175
f 180 179 178
f 183 182 181
f 186 185 184
f 189 188 187
f 192 191 190
f 195 194 193
f 198 197 196
f 201 200 199
f 204 203 202
f 207 206 205
f 210 209 208
f 213 212 211
f 216 215 214
f 219 218 217
f 222 221 220
f 225 224 223
f 228 227 226
f 231 230 229
f 234 233 232
f 237 236 235
f 240 239 238
f 243 242 241
f 246 245 244
f 249 248 247
f 252 251 250
f 255 254 253
f 258 257 256
f 261 260 259
f 264 263 262
f 267 266 265
f 270 269 268
f 273 272 271
f 276 275 274
f 279 278 277
f 282 281 280
f 285 284 283
f 288 287 286
f 291 290 289
f 294 293 292
f 297 296 295
f 300 299 298
f 303 302 301
f 306 305 304
f 309 308 307
f 312 311 310
f 315 314 313
f 318 317 316
f 321 320 319
f 324 323 322
f 327 326 325
f 330 329 328
f 333 332 331
f 336 335 334
f 339 338 337
f 342 341 340
f 345 344 343
f 348 347 346
f 351 350 349
f 354 353 352
f 357 356 355
f 360 359 358
f 363 362 361
f 366 365 364
f 369 368 367
f 372 371 370
f 375 374 373
f 378 377 376
f 381 380 379
f 384 383 382
f 387 386 385
f 390 389 388
f 393 392 391
f 396 395 394
f 399 398 397
f 402 401 400
f 405 404 403
f 408 407 406
f 411 410 409
f 414 413 412
f 417 416 415
f 420 419 418
f 423 422 421
f 426 425 424
f 429 428 427
f 432 431 430
f 435 434 433
f 438 437 436
f 441 440 439
f 444 443 442
f 447 446 445
f 450 449 448
f 453 452 451
f 456 455 454
f 459 458 457
f 462 461 460
f 465 464 463
f 468 467 466
f 471 470 469
f 474 473 472
f 477 476 475
f 480 479 478
f 483 482 481
f 486 485 484
f 489 488 487
f 492 491 490
f 495 494 493
f 498 497 496
f 501 500 499
f 504 503 502
f 507 506 505
f 510 509 508
f 513 512 511
f 516 515 514
f 519 518 517
f 522 521 520
f 525 524 523
f 528 527 526
f 531 530 529
f 534 533 532
f 537 536 535
f 540 539 538
f 543 542 541
f 546 545 544
f 549 548 547
f 552 551 550
f 555 554 553
f 558 557 556
f 561 560 559
f 564 563 562
f 567 566 565
f 570 569 568
f 573 572 571
f 576 575 574
f 579 578 577
f 582 581 580
f 585 584 583
f 588 587 586
f 591 590 589
f 594 593 592
f 597 596 595
f 600 599 598
f 603 602 601
f 606 605 604
f 609 608 607
f 612 611 610
f 615 614 613
f 618 617 616
f 621 620 619
f 624 623 622
f 627 626 625
f 630 629 628
f 633 632 631
f 636 635 634
f 639 638 637
f 642 641 640
f 645 644 643
f 648 647 646
f 651 650 649
f 654 653 652
f 657 656 655
f 660 659 658
f 663 662 661
f 666 665 664
f 669 668 667
f 672 671 670
f 675 674 673
f 678 677 676
f 681 680 679
f 684 683 682
f 687 686 685
f 690 689 688
f 693 692 691
f 696 695 694
f 699 698 697
f 702 701 700
f 705 704 703
f 708 707 706
f 711 710 709
f 714 713 712
f 717 716 715
f 720 719 718
f 723 722 721
f 726 725 724
f 729 728 727
f 732 731 730
f 735 734 733
f 738 737 736
f 741 740 739
f 744 743 742
f 747 746 745
f 750 749 748
f 753 752 751
f 756 755 754
f 759 758 757
f 762 761 760
f 765 764 763
f 768 767 766
f 771 770 769
f 774 773 772
f 777 776 775
f 780 779 778
f 783 782 781
f 786 785 784
f 789 788 787
f 792 791 790
f 795 794 793
f 798 797 796
f 801 800 799
f 804 803 802
f 807 806 805
f 810 809 808
f 813 812 811
f 816 815 814
f 819 818 817
f 822 821 820
f 825 824 823
f 828 827 826
f 831 830 829
f 834 833 832
f 837 836 835
f 840 839 838
f 843 842 841
f 846 845 844
f 849 848 847
f 852 851 850
f 855 854 853
f 858 857 856
f 861 860 859
f 864 863 862
f 867 866 865
f 870 869 868
f 873 872 871
f 876 875 874
f 879 878 877
f 882 881 880
f 885 884 883
f 888 887 886
f 891 890 889
f 894 893 892
f 897 896 895
f 900 899 898
f 903 902 901
f 906 905 904
f 909 908 907
f 912 911 910
f 915 914 913
f 918 917 916
f 921 920 919
f 924 923 922
f 927 926 925
f 930 929 928
f 933 932 931
f 936 935 934
f 939 938 937
f 942 941 940
f 945 944 943
f 948 947 946
f 951 950 949
f 954 953 952
f 957 956 955
f 960 959 958
f 963 962 961
f 966 965 964
f 969 968 967
f 972 971 970
f 975 974 973
f 978 977 976
f 981 980 979
f 984 983 982
f 987 986 985
f 990 989 988
f 993 992 991
f 996 995 994
f 999 998 997
f 1002 1001 1000
f 1005 1004 1003
f 1008 1007 1006
f 1011 1010 1009
f 1014 1013 1012
f 1017 1016 1015
f 1020 1019 1018
f 1023 1022 1021
f 1026 1025 1024
f 1029 1028 1027
f 1032 1031 1030
f 1035 1034 1033
f 1038 1037 1036
f 1041 1040 1039
f 1044 1043 1042
f 1047 1046 1045
f 1050 1049 1048
f 1053 1052 1051
f 1056 1055 1054
f 1059 1058 1057
f 1062 1061 1060
f 1065 1064 1063
f 1068 1067 1066
f 1071 1070 1069
f 1074 1073 1072
f 1077 1076 1075
f 1080 1079 1078
f 1083 1082 1081
f 1086 1085 1084
f 1089 1088 1087
f 1092 1091 1090
f 1095 1094 1093
f 1098 1097 1096
f 1101 1100 1099
f 1104 1103 1102
f 1107 1106 1105
f 1110 1109 1108
f 1113 1112 1111
f 1116 1115 1114
f 1119 1118 1117
f 1122 1121 1120
f 1125 1124 1123
f 1128 1127 1126
f 1131 1130 1129
f 1134 1133 1132
f 1137 1136 1135
f 1140 1139 1138
f 1143 1142 1141
f 1146 1145 1144
f 1149 1148 1147
f 1152 1151 1150
f 1155 1154 1153
f 1158 1157 1156
f 1161 1160 1159
f 1164 1163 1162
f 1167 1166 1165
f 1170 1169 1168
f 1173 1172 1171
f 1176 1175 1174
f 1179 1178 1177
f 1182 1181 1180
f 1185 1184 1183
f 1188 1187 1186
f 1191 1190 1189
f 1194 1193 1192
f 1197 1196 1195
f 1200 1199 1198
f 1203 1202 1201
f 1206 1205 1204
f 1209 1208 1207
f 1212 1211 1210
f 1215 1214 1213
f 1218 1217 1216
f 1221 1220 1219
f 1224 1223 1222
f 1227 1226 1225
f 1230 1229 1228
f 1233 1232 1231
f 1236 1235 1234
f 1239 1238 1237
f 1242 1241 1240
f 1245 1244 1243
f 1248 1247 1246
f 1251 1250 1249
f 1254 1253 1252
f 1257 1256 1255
f 1260 1259 1258
f 1263 1262 1261
f 1266 1265 1264
f 1269 1268 1267
f 1272 1271 1270
f 1275 1274 1273
f 1278 1277 1276
f 1281 1280 1279
f 1284 1283 1282
f 1287 1286 1285
f 1290 1289 1288
f 1293 1292 1291
f 1296 1295 1294
f 1299 1298 1297
f 1302 1301 1300
f 1305 1304 1303
f 1308 1307 1306
f 1311 1310 1309
f 1314 1313 1312
f 1317 1316 1315
f 1320 1319 1318
f 1323 1322 1321
f 1326 1325 1324
f 1329 1328 1327
f 1332 1331 1330
f 1335 1334 1333
f 1338 1337 1336
f 1341 1340 1339
f 1344 1343 1342
f 1347 1346 1345
f 1350 1349 1348
f 1353 1352 1351
f 1356 1355 1354
f 1359 1358 1357
f 1362 1361 1360
f 1365 1364 1363
f 1368 1367 1366
f 1371 1370 1369
f 1374 1373 1372
f 1377 1376 1375
f 1380 1379 1378
f 1383 1382 1381
f 1386 1385 1384
f 1389 1388 1387
f 1392 1391 1390
f 1395 1394 1393
f 1398 1397 1396
f 1401 1400 1399
f 1404 1403 1402
f 1407 1406 1405
f 1410 1409 1408
f 1413 1412 1411
f 1416 1415 1414
f 1419 1418 1417
f 1422 1421 1420
f 1425 1424 1423
f 1428 1427 1426
f 1431 1430 1429
f 1434 1433 1432
f 1437 1436 1435
f 1440 1439 1438
f 1443 1442 1441
f 1446 1445 1444
f 1449 1448 1447
f 1452 1451 1450
f 1455 1454 1453
f 1458 1457 1456
f 1461 1460 1459
f 1464 1463 1462
f 1467 1466 1465
f 1470 1469 1468
f 1473 1472 1471
f 1476 1475 1474
f 1479 1478 1477
f 1482 1481 1480
f 1485 1484 1483
f 1488 1487 1486
f 1491 1490 1489
f 1494 1493 1492
f 1497 1496 1495
f 1500 1499 1498
f 1503 1502 1501
f 1506 1505 1504
f 1509 1508 1507
f 1512 1511 1510
f 1515 1514 1513
f 1518 1517 1516
f 1521 1520 1519
f 1524 1523 1522
f 1527 1526 1525
f 1530 1529 1528
f 1533 1532 1531
f 1536 1535 1534
f 1539 1538 1537
f 1542 1541 1540
f 1545 1544 1543
f 1548 1547 1546
f 1551 1550 1549
f 1554 1553 1552
f 1557 1556 1555
f 1560 1559 1558
f 1563 1562 1561
f 1566 1565 1564
f 1569 1568 1567
f 1572 1571 1570
f 1575 1574 1573
f 1578 1577 1576
f 1581 1580 1579
f 1584 1583 1582
f 1587 1586 1585
f 1590 1589 1588
f 1593 1592 1591
f 1596 1595 1594
f 1599 1598 1597
f 1602 1601 1600
f 1605 1604 1603
f 1608 1607 1606
f 1611 1610 1609
f 1614 1613 1612
f 1617 1616 1615
f 1620 1619 1618
f 1623 1622 1621
f 1626 1625 1624
f 1629 1628 1627
f 1632 1631 1630
f 1635 1634 1633
f 1638 1637 1636
f 1641 1640 1639
f 1644 1643 1642
f 1647 1646 1645
f 1650 1649 1648
f 1653 1652 1651
f 1656 1655 1654
f 1659 1658 1657
f 1662 1661 1660
f 1665 1664 1663
f 1668 1667 1666
f 1671 1670 1669
f 1674 1673 1672
f 1677 1676 1675
f 1680 1679 1678
f 1683 1682 1681
f 1686 1685 1684
f 1689 1688 1687
f 1692 1691 1690
f 1695 1694 1693
f 1698 1697 1696
f 1701 1700 1699
f 1704 1703 1702
f 1707 1706 1705
f 1710 1709 1708
f 1713 1712 1711
f 1716 1715 1714
f 1719 1718 1717
f 1722 1721 1720
f 1725 1724 1723
f 1728 1727 1726
f 1731 1730 1729
f 1734 1733 1732
f 1737 1736 1735
f 1740 1739 1738
f 1743 1742 1741
f 1746 1745 1744
f 1749 1748 1747
f 1752 1751 1750
f 1755 1754 1753
f 1758 1757 1756
f 1761 1760 1759
f 1764 1763 1762
f 1767 1766 1765
f 1770 1769 1768
f 1773 1772 1771
f 1776 1775 1774
f 1779 1778 1777
f 1782 1781 1780
f 1785 1784 1783
f 1788 1787 1786
f 1791 1790 1789
f 1794 1793 1792
f 1797 1796 1795
f 1800 1799 1798
f 1803 1802 1801
f 1806 1805 1804
f 1809 1808 1807
f 1812 1811 1810
f 1815 1814 1813
f 1818 1817 1816
f 1821 1820 1819
f 1824 1823 1822
f 1827 1826 1825
f 1830 1829 1828
f 1833 1832 1831
f 1836 1835 1834
f 1839 1838 1837
f 1842 1841 1840
f 1845 1844 1843
f 1848 1847 1846
f 1851 1850 1849
f 1854 1853 1852
f 1857 1856 1855
f 1860 1859 1858
f 1863 1862 1861
f 1866 1865 1864
f 1869 1868 1867
f 1872 1871 1870
f 1875 1874 1873
f 1878 1877 1876
f 1881 1880 1879
f 1884 1883 1882
f 1887 1886 1885
f 1890 1889 1888
f 1893 1892 1891
f 1896 1895 1894
f 1899 1898 1897
f 1902 1901 1900
f 1905 1904 1903
f 1908 1907 1906
f 1911 1910 1909
f 1914 1913 1912
f 1917 1916 1915
f 1920 1919 1918
f 1923 1922 1921
f 1926 1925 1924
f 1929 1928 1927
f 1932 1931 1930
f 1935 1934 1933
f 1938 1937 1936
f 1941 1940 1939
f 1944 1943 1942
f 1947 1946 1945
f 1950 1949 1948
f 1953 1952 1951
f 1956 1955 1954
f 1959 1958 1957
f 1962 1961 1960
f 1965 1964 1963
f 1968 1967 1966
f 1971 1970 1969
f 1974 1973 1972
f 1977 1976 1975
f 1980 1979 1978
f 1983 1982 1981
f 1986 1985 1984
f 1989 1988 1987
f 1992 1991 1990
f 1995 1994 1993
f 1998 1997 1996
f 2001 2000 1999
f 2004 2003 2002
f 2007 2006 2005
f 2010 2009 2008
f 2013 2012 2011
f 2016 2015 2014
f 2019 2018 2017
f 2022 2021 2020
f 2025 2024 2023
f 2028 2027 2026
f 2031 2030 2029
f 2034 2033 2032
f 2037 2036 2035
f 2040 2039 2038
f 2043 2042 2041
f 2046 2045 2044
f 2049 2048 2047
f 2052 2051 2050
f 2055 2054 2053
f 2058 2057 2056
f 2061 2060 2059
f 2064 2063 2062
f 2067 2066 2065
f 2070 2069 2068
f 2073 2072 2071
f 2076 2075 2074
f 2079 2078 2077
f 2082 2081 2080
f 2085 2084 2083
f 2088 2087 2086
f 2091 2090 2089
f 2094 2093 2092
f 2097 2096 2095
f 2100 2099 2098
f 2103 2102 2101
f 2106 2105 2104
f 2109 2108 2107
f 2112 2111 2110
f 2115 2114 2113
f 2118 2117 2116
f 2121 2120 2119
f 2124 2123 2122
f 2127 2126 2125
f 2130 2129 2128
f 2133 2132 2131
f 2136 2135 2134
f 2139 2138 2137
f 2142 2141 2140
f 2145 2144 2143
f 2148 2147 2146
f 2151 2150 2149
f 2154 2153 2152
f 2157 2156 2155
f 2160 2159 2158
f 2163 2162 2161
f 2166 2165 2164
f 2169 2168 2167
f 2172 2171 2170
f 2175 2174 2173
f 2178 2177 2176
f 2181 2180 2179
f 2184 2183 2182
f 2187 2186 2185
f 2190 2189 2188
f 2193 2192 2191
f 2196 2195 2194
f 2199 2198 2197
f 2202 2201 2200
f 2205 2204 2203
f 2208 2207 2206
f 2211 2210 2209
f 2214 2213 2212
f 2217 2216 2215
f 2220 2219 2218
f 2223 2222 2221
f 2226 2225 2224
f 2229 2228 2227
f 2232 2231 2230
f 2235 2234 2233
f 2238 2237 2236
f 2241 2240 2239
f 2244 2243 2242
f 2247 2246 2245
f 2250 2249 2248
f 2253 2252 2251
f 2256 2255 2254
f 2259 2258 2257
f 2262 2261 2260
f 2265 2264 2263
f 2268 2267 2266
f 2271 2270 2269
f 2274 2273 2272
f 2277 2276 2275
f 2280 2279 2278
