# Unreal legacy OBJ adapter: canonical vertices are UE cm; this file is written with Y reflected and triangle winding reversed. One object, no g groups, so the importer creates exactly one material slot.
# OldCityFacadesV1 20260908T024235646425Z
# source jerusalem.json sha256 76a2b76c0d97f45db7e532b3adbe8b58c02956fa0d3de73db71e31e097ea6463
# alignment UEcm = ((x+17.509700315687695)*50, (z-0.551349644938533)*50, y*50) - already baked, never reapplied
# shell standoff 6.0 cm outside every imported face
# AUTHORED detail: invented Old City massing, not survey
o SM_OldCityInfill_Grid_N008_N003
s off
v -71461.43 20321.65 2756.06
v -71880.30 20057.87 2756.06
v -72196.83 20560.51 2756.06
v -71777.96 20824.29 2756.06
v -71461.43 20321.65 3396.06
v -71880.30 20057.87 3396.06
v -72196.83 20560.51 3396.06
v -71777.96 20824.29 3396.06
v -71622.16 20206.25 2846.06
v -71706.78 20152.96 2846.06
v -71706.78 20152.96 3026.06
v -71622.16 20206.25 3026.06
v -71614.70 20194.40 2846.06
v -71699.32 20141.12 2846.06
v -71699.32 20141.12 3026.06
v -71614.70 20194.40 3026.06
v -71634.01 20198.79 2860.06
v -71694.93 20160.42 2860.06
v -71694.93 20160.42 3012.06
v -71634.01 20198.79 3012.06
v -71626.55 20186.94 2860.06
v -71687.47 20148.58 2860.06
v -71687.47 20148.58 3012.06
v -71626.55 20186.94 3012.06
v -71949.34 20144.98 2846.06
v -72002.62 20229.60 2846.06
v -72002.62 20229.60 3026.06
v -71949.34 20144.98 3026.06
v -71961.18 20137.52 2846.06
v -72014.47 20222.14 2846.06
v -72014.47 20222.14 3026.06
v -71961.18 20137.52 3026.06
v -71956.80 20156.83 2860.06
v -71995.16 20217.76 2860.06
v -71995.16 20217.76 3012.06
v -71956.80 20156.83 3012.06
v -71968.64 20149.37 2860.06
v -72007.01 20210.30 2860.06
v -72007.01 20210.30 3012.06
v -71968.64 20149.37 3012.06
v -72094.81 20376.00 2846.06
v -72148.10 20460.61 2846.06
v -72148.10 20460.61 3026.06
v -72094.81 20376.00 3026.06
v -72106.66 20368.54 2846.06
v -72159.95 20453.15 2846.06
v -72159.95 20453.15 3026.06
v -72106.66 20368.54 3026.06
v -72102.27 20387.84 2860.06
v -72140.64 20448.77 2860.06
v -72140.64 20448.77 3012.06
v -72102.27 20387.84 3012.06
v -72114.12 20380.38 2860.06
v -72152.49 20441.31 2860.06
v -72152.49 20441.31 3012.06
v -72114.12 20380.38 3012.06
v -72044.56 20670.58 2756.06
v -71943.02 20734.53 2756.06
v -71943.02 20734.53 2986.06
v -72044.56 20670.58 2986.06
v -72055.22 20687.51 2756.06
v -71953.67 20751.45 2756.06
v -71953.67 20751.45 2986.06
v -72055.22 20687.51 2986.06
v -72029.33 20680.17 2774.06
v -71958.25 20724.94 2774.06
v -71958.25 20724.94 2968.06
v -72029.33 20680.17 2968.06
v -72039.99 20697.10 2774.06
v -71968.91 20741.86 2774.06
v -71968.91 20741.86 2968.06
v -72039.99 20697.10 2968.06
v -72061.48 20659.92 2752.06
v -71926.09 20745.18 2752.06
v -71939.95 20767.19 2752.06
v -72075.34 20681.93 2752.06
v -72061.48 20659.92 2768.06
v -71926.09 20745.18 2768.06
v -71939.95 20767.19 2768.06
v -72075.34 20681.93 2768.06
v -71708.92 20737.18 2846.06
v -71655.64 20652.56 2846.06
v -71655.64 20652.56 3026.06
v -71708.92 20737.18 3026.06
v -71697.08 20744.64 2846.06
v -71643.79 20660.02 2846.06
v -71643.79 20660.02 3026.06
v -71697.08 20744.64 3026.06
v -71701.46 20725.33 2860.06
v -71663.10 20664.40 2860.06
v -71663.10 20664.40 3012.06
v -71701.46 20725.33 3012.06
v -71689.62 20732.79 2860.06
v -71651.25 20671.86 2860.06
v -71651.25 20671.86 3012.06
v -71689.62 20732.79 3012.06
v -71563.45 20506.17 2846.06
v -71510.16 20421.55 2846.06
v -71510.16 20421.55 3026.06
v -71563.45 20506.17 3026.06
v -71551.60 20513.63 2846.06
v -71498.32 20429.01 2846.06
v -71498.32 20429.01 3026.06
v -71551.60 20513.63 3026.06
v -71555.99 20494.32 2860.06
v -71517.62 20433.39 2860.06
v -71517.62 20433.39 3012.06
v -71555.99 20494.32 3012.06
v -71544.14 20501.78 2860.06
v -71505.78 20440.85 2860.06
v -71505.78 20440.85 3012.06
v -71544.14 20501.78 3012.06
v -71436.61 20316.01 3366.06
v -71885.94 20033.05 3366.06
v -72221.65 20566.15 3366.06
v -71772.32 20849.11 3366.06
v -71436.61 20316.01 3380.06
v -71885.94 20033.05 3380.06
v -72221.65 20566.15 3380.06
v -71772.32 20849.11 3380.06
v -71453.16 20319.77 3366.06
v -71882.18 20049.60 3366.06
v -72205.10 20562.39 3366.06
v -71776.08 20832.56 3366.06
v -71453.16 20319.77 3380.06
v -71882.18 20049.60 3380.06
v -72205.10 20562.39 3380.06
v -71776.08 20832.56 3380.06
v -71422.82 20312.88 3344.06
v -71889.07 20019.26 3344.06
v -72235.44 20569.29 3344.06
v -71769.19 20862.90 3344.06
v -71422.82 20312.88 3372.06
v -71889.07 20019.26 3372.06
v -72235.44 20569.29 3372.06
v -71769.19 20862.90 3372.06
v -71453.16 20319.77 3344.06
v -71882.18 20049.60 3344.06
v -72205.10 20562.39 3344.06
v -71776.08 20832.56 3344.06
v -71453.16 20319.77 3372.06
v -71882.18 20049.60 3372.06
v -72205.10 20562.39 3372.06
v -71776.08 20832.56 3372.06
v -71431.09 20314.76 3402.06
v -71887.19 20027.54 3402.06
v -72227.17 20567.41 3402.06
v -71771.07 20854.63 3402.06
v -71431.09 20314.76 3472.06
v -71887.19 20027.54 3472.06
v -72227.17 20567.41 3472.06
v -71771.07 20854.63 3472.06
v -71502.81 20331.05 3402.06
v -71870.90 20099.25 3402.06
v -72155.46 20551.11 3402.06
v -71787.36 20782.92 3402.06
v -71502.81 20331.05 3472.06
v -71870.90 20099.25 3472.06
v -72155.46 20551.11 3472.06
v -71787.36 20782.92 3472.06
v -71495.79 20387.46 2781.06
v -71453.16 20319.77 2781.06
v -71444.70 20325.10 2781.06
v -71487.33 20392.79 2781.06
v -71495.79 20387.46 2836.06
v -71453.16 20319.77 2836.06
v -71444.70 20325.10 2836.06
v -71487.33 20392.79 2836.06
v -71453.16 20319.77 2853.06
v -71500.55 20289.93 2853.06
v -71495.22 20281.47 2853.06
v -71447.83 20311.31 2853.06
v -71453.16 20319.77 2908.06
v -71500.55 20289.93 2908.06
v -71495.22 20281.47 2908.06
v -71447.83 20311.31 2908.06
v -71495.79 20387.46 2925.06
v -71453.16 20319.77 2925.06
v -71444.70 20325.10 2925.06
v -71487.33 20392.79 2925.06
v -71495.79 20387.46 2980.06
v -71453.16 20319.77 2980.06
v -71444.70 20325.10 2980.06
v -71487.33 20392.79 2980.06
v -71453.16 20319.77 2997.06
v -71500.55 20289.93 2997.06
v -71495.22 20281.47 2997.06
v -71447.83 20311.31 2997.06
v -71453.16 20319.77 3052.06
v -71500.55 20289.93 3052.06
v -71495.22 20281.47 3052.06
v -71447.83 20311.31 3052.06
v -72162.47 20494.70 2781.06
v -72205.10 20562.39 2781.06
v -72213.56 20557.06 2781.06
v -72170.93 20489.37 2781.06
v -72162.47 20494.70 2836.06
v -72205.10 20562.39 2836.06
v -72213.56 20557.06 2836.06
v -72170.93 20489.37 2836.06
v -72205.10 20562.39 2853.06
v -72157.71 20592.23 2853.06
v -72163.04 20600.70 2853.06
v -72210.43 20570.86 2853.06
v -72205.10 20562.39 2908.06
v -72157.71 20592.23 2908.06
v -72163.04 20600.70 2908.06
v -72210.43 20570.86 2908.06
v -72162.47 20494.70 2925.06
v -72205.10 20562.39 2925.06
v -72213.56 20557.06 2925.06
v -72170.93 20489.37 2925.06
v -72162.47 20494.70 2980.06
v -72205.10 20562.39 2980.06
v -72213.56 20557.06 2980.06
v -72170.93 20489.37 2980.06
v -72205.10 20562.39 2997.06
v -72157.71 20592.23 2997.06
v -72163.04 20600.70 2997.06
v -72210.43 20570.86 2997.06
v -72205.10 20562.39 3052.06
v -72157.71 20592.23 3052.06
v -72163.04 20600.70 3052.06
v -72210.43 20570.86 3052.06
v -71814.48 20092.23 2781.06
v -71882.18 20049.60 2781.06
v -71876.85 20041.14 2781.06
v -71809.15 20083.77 2781.06
v -71814.48 20092.23 2836.06
v -71882.18 20049.60 2836.06
v -71876.85 20041.14 2836.06
v -71809.15 20083.77 2836.06
v -71882.18 20049.60 2853.06
v -71912.02 20096.99 2853.06
v -71920.48 20091.66 2853.06
v -71890.64 20044.27 2853.06
v -71882.18 20049.60 2908.06
v -71912.02 20096.99 2908.06
v -71920.48 20091.66 2908.06
v -71890.64 20044.27 2908.06
v -71814.48 20092.23 2925.06
v -71882.18 20049.60 2925.06
v -71876.85 20041.14 2925.06
v -71809.15 20083.77 2925.06
v -71814.48 20092.23 2980.06
v -71882.18 20049.60 2980.06
v -71876.85 20041.14 2980.06
v -71809.15 20083.77 2980.06
v -71882.18 20049.60 2997.06
v -71912.02 20096.99 2997.06
v -71920.48 20091.66 2997.06
v -71890.64 20044.27 2997.06
v -71882.18 20049.60 3052.06
v -71912.02 20096.99 3052.06
v -71920.48 20091.66 3052.06
v -71890.64 20044.27 3052.06
v -71843.78 20789.93 2781.06
v -71776.08 20832.56 2781.06
v -71781.41 20841.02 2781.06
v -71849.11 20798.39 2781.06
v -71843.78 20789.93 2836.06
v -71776.08 20832.56 2836.06
v -71781.41 20841.02 2836.06
v -71849.11 20798.39 2836.06
v -71776.08 20832.56 2853.06
v -71746.24 20785.17 2853.06
v -71737.78 20790.50 2853.06
v -71767.62 20837.89 2853.06
v -71776.08 20832.56 2908.06
v -71746.24 20785.17 2908.06
v -71737.78 20790.50 2908.06
v -71767.62 20837.89 2908.06
v -71843.78 20789.93 2925.06
v -71776.08 20832.56 2925.06
v -71781.41 20841.02 2925.06
v -71849.11 20798.39 2925.06
v -71843.78 20789.93 2980.06
v -71776.08 20832.56 2980.06
v -71781.41 20841.02 2980.06
v -71849.11 20798.39 2980.06
v -71776.08 20832.56 2997.06
v -71746.24 20785.17 2997.06
v -71737.78 20790.50 2997.06
v -71767.62 20837.89 2997.06
v -71776.08 20832.56 3052.06
v -71746.24 20785.17 3052.06
v -71737.78 20790.50 3052.06
v -71767.62 20837.89 3052.06
vt -229.4577 6.8902
vt -229.8454 6.8902
vt -231.8933 6.8902
vt -231.5056 6.8902
vt -229.4577 8.4901
vt -229.8454 8.4901
vt -231.8933 8.4901
vt -231.5056 8.4901
vt -229.5710 7.1151
vt -229.6493 7.1151
vt -229.6493 7.5652
vt -229.5710 7.5652
vt -229.5228 7.1151
vt -229.6011 7.1151
vt -229.6011 7.5652
vt -229.5228 7.5652
vt -229.5820 7.1502
vt -229.6384 7.1502
vt -229.6384 7.5301
vt -229.5820 7.5301
vt -229.5337 7.1502
vt -229.5901 7.1502
vt -229.5901 7.5301
vt -229.5337 7.5301
vt -230.2358 7.1151
vt -230.5806 7.1151
vt -230.5806 7.5652
vt -230.2358 7.5652
vt -230.2467 7.1151
vt -230.5915 7.1151
vt -230.5915 7.5652
vt -230.2467 7.5652
vt -230.2841 7.1502
vt -230.5323 7.1502
vt -230.5323 7.5301
vt -230.2841 7.5301
vt -230.2950 7.1502
vt -230.5433 7.1502
vt -230.5433 7.5301
vt -230.2950 7.5301
vt -231.1770 7.1151
vt -231.5218 7.1151
vt -231.5218 7.5652
vt -231.1770 7.5652
vt -231.1880 7.1151
vt -231.5328 7.1151
vt -231.5328 7.5652
vt -231.1880 7.5652
vt -231.2253 7.1502
vt -231.4735 7.1502
vt -231.4735 7.5301
vt -231.2253 7.5301
vt -231.2363 7.1502
vt -231.4845 7.1502
vt -231.4845 7.5301
vt -231.2363 7.5301
vt -231.7878 6.8902
vt -231.6939 6.8902
vt -231.6939 7.4651
vt -231.7878 7.4651
vt -231.8568 6.8902
vt -231.7628 6.8902
vt -231.7628 7.4651
vt -231.8568 7.4651
vt -231.7738 6.9352
vt -231.7080 6.9352
vt -231.7080 7.4201
vt -231.7738 7.4201
vt -231.8427 6.9352
vt -231.7769 6.9352
vt -231.7769 7.4201
vt -231.8427 7.4201
vt -231.8035 6.8801
vt -231.6782 6.8801
vt -231.7679 6.8801
vt -231.8932 6.8801
vt -231.8035 6.9201
vt -231.6782 6.9201
vt -231.7679 6.9201
vt -231.8932 6.9201
vt -231.1153 7.1151
vt -230.7705 7.1151
vt -230.7705 7.5652
vt -231.1153 7.5652
vt -231.1043 7.1151
vt -230.7595 7.1151
vt -230.7595 7.5652
vt -231.1043 7.5652
vt -231.0670 7.1502
vt -230.8187 7.1502
vt -230.8187 7.5301
vt -231.0670 7.5301
vt -231.0560 7.1502
vt -230.8078 7.1502
vt -230.8078 7.5301
vt -231.0560 7.5301
vt -230.1740 7.1151
vt -229.8293 7.1151
vt -229.8293 7.5652
vt -230.1740 7.5652
vt -230.1631 7.1151
vt -229.8183 7.1151
vt -229.8183 7.5652
vt -230.1631 7.5652
vt -230.1258 7.1502
vt -229.8775 7.1502
vt -229.8775 7.5301
vt -230.1258 7.5301
vt -230.1148 7.1502
vt -229.8666 7.1502
vt -229.8666 7.5301
vt -230.1148 7.5301
vt -229.3815 8.4152
vt -229.7975 8.4152
vt -231.9695 8.4152
vt -231.5536 8.4152
vt -229.3815 8.4502
vt -229.7975 8.4502
vt -231.9695 8.4502
vt -231.5536 8.4502
vt -229.4323 8.4152
vt -229.8295 8.4152
vt -231.9187 8.4152
vt -231.5216 8.4152
vt -229.4323 8.4502
vt -229.8295 8.4502
vt -231.9187 8.4502
vt -231.5216 8.4502
vt -229.3393 8.3601
vt -229.7708 8.3601
vt -232.0118 8.3601
vt -231.5802 8.3601
vt -229.3393 8.4301
vt -229.7708 8.4301
vt -232.0118 8.4301
vt -231.5802 8.4301
vt -229.4323 8.3601
vt -229.8295 8.3601
vt -231.9187 8.3601
vt -231.5216 8.3601
vt -229.4323 8.4301
vt -229.8295 8.4301
vt -231.9187 8.4301
vt -231.5216 8.4301
vt -229.3646 8.5052
vt -229.7868 8.5052
vt -231.9864 8.5052
vt -231.5643 8.5052
vt -229.3646 8.6801
vt -229.7868 8.6801
vt -231.9864 8.6801
vt -231.5643 8.6801
vt -229.5847 8.5052
vt -229.9254 8.5052
vt -231.7664 8.5052
vt -231.4257 8.5052
vt -229.5847 8.6801
vt -229.9254 8.6801
vt -231.7664 8.6801
vt -231.4257 8.6801
vt -229.7081 6.9527
vt -229.4323 6.9527
vt -229.4245 6.9527
vt -229.7003 6.9527
vt -229.7081 7.0901
vt -229.4323 7.0901
vt -229.4245 7.0901
vt -229.7003 7.0901
vt -229.4323 7.1326
vt -229.4762 7.1326
vt -229.4417 7.1326
vt -229.3979 7.1326
vt -229.4323 7.2702
vt -229.4762 7.2702
vt -229.4417 7.2702
vt -229.3979 7.2702
vt -229.7081 7.3126
vt -229.4323 7.3126
vt -229.4245 7.3126
vt -229.7003 7.3126
vt -229.7081 7.4501
vt -229.4323 7.4501
vt -229.4245 7.4501
vt -229.7003 7.4501
vt -229.4323 7.4927
vt -229.4762 7.4927
vt -229.4417 7.4927
vt -229.3979 7.4927
vt -229.4323 7.6301
vt -229.4762 7.6301
vt -229.4417 7.6301
vt -229.3979 7.6301
vt -231.6429 6.9527
vt -231.9187 6.9527
vt -231.9265 6.9527
vt -231.6507 6.9527
vt -231.6429 7.0901
vt -231.9187 7.0901
vt -231.9265 7.0901
vt -231.6507 7.0901
vt -231.9187 7.1326
vt -231.8749 7.1326
vt -231.9093 7.1326
vt -231.9532 7.1326
vt -231.9187 7.2702
vt -231.8749 7.2702
vt -231.9093 7.2702
vt -231.9532 7.2702
vt -231.6429 7.3126
vt -231.9187 7.3126
vt -231.9265 7.3126
vt -231.6507 7.3126
vt -231.6429 7.4501
vt -231.9187 7.4501
vt -231.9265 7.4501
vt -231.6507 7.4501
vt -231.9187 7.4927
vt -231.8749 7.4927
vt -231.9093 7.4927
vt -231.9532 7.4927
vt -231.9187 7.6301
vt -231.8749 7.6301
vt -231.9093 7.6301
vt -231.9532 7.6301
vt -229.7668 6.9527
vt -229.8295 6.9527
vt -229.7950 6.9527
vt -229.7323 6.9527
vt -229.7668 7.0901
vt -229.8295 7.0901
vt -229.7950 7.0901
vt -229.7323 7.0901
vt -229.8295 7.1326
vt -230.0225 7.1326
vt -230.0303 7.1326
vt -229.8373 7.1326
vt -229.8295 7.2702
vt -230.0225 7.2702
vt -230.0303 7.2702
vt -229.8373 7.2702
vt -229.7668 7.3126
vt -229.8295 7.3126
vt -229.7950 7.3126
vt -229.7323 7.3126
vt -229.7668 7.4501
vt -229.8295 7.4501
vt -229.7950 7.4501
vt -229.7323 7.4501
vt -229.8295 7.4927
vt -230.0225 7.4927
vt -230.0303 7.4927
vt -229.8373 7.4927
vt -229.8295 7.6301
vt -230.0225 7.6301
vt -230.0303 7.6301
vt -229.8373 7.6301
vt -231.5843 6.9527
vt -231.5216 6.9527
vt -231.5561 6.9527
vt -231.6188 6.9527
vt -231.5843 7.0901
vt -231.5216 7.0901
vt -231.5561 7.0901
vt -231.6188 7.0901
vt -231.5216 7.1326
vt -231.3285 7.1326
vt -231.3207 7.1326
vt -231.5138 7.1326
vt -231.5216 7.2702
vt -231.3285 7.2702
vt -231.3207 7.2702
vt -231.5138 7.2702
vt -231.5843 7.3126
vt -231.5216 7.3126
vt -231.5561 7.3126
vt -231.6188 7.3126
vt -231.5843 7.4501
vt -231.5216 7.4501
vt -231.5561 7.4501
vt -231.6188 7.4501
vt -231.5216 7.4927
vt -231.3285 7.4927
vt -231.3207 7.4927
vt -231.5138 7.4927
vt -231.5216 7.6301
vt -231.3285 7.6301
vt -231.3207 7.6301
vt -231.5138 7.6301
vn 0.5329 -0.8462 0.0000
vn -0.8462 -0.5329 0.0000
vn -0.5329 0.8462 0.0000
vn 0.8462 0.5329 0.0000
vn 0.0000 -0.0000 1.0000
vn 0.0000 -0.0000 -1.0000
f 1/1/1 6/6/1 2/2/1
f 1/1/1 5/5/1 6/6/1
f 2/2/2 7/7/2 3/3/2
f 2/2/2 6/6/2 7/7/2
f 3/3/3 8/8/3 4/4/3
f 3/3/3 7/7/3 8/8/3
f 4/4/4 5/5/4 1/1/4
f 4/4/4 8/8/4 5/5/4
f 5/5/5 7/7/5 6/6/5
f 5/5/5 8/8/5 7/7/5
f 4/4/6 2/2/6 3/3/6
f 4/4/6 1/1/6 2/2/6
f 9/9/6 14/14/6 10/10/6
f 9/9/6 13/13/6 14/14/6
f 18/18/5 21/21/5 17/17/5
f 18/18/5 22/22/5 21/21/5
f 13/13/1 22/22/1 14/14/1
f 13/13/1 21/21/1 22/22/1
f 10/10/3 17/17/3 9/9/3
f 10/10/3 18/18/3 17/17/3
f 10/10/2 15/15/2 11/11/2
f 10/10/2 14/14/2 15/15/2
f 19/19/4 22/22/4 18/18/4
f 19/19/4 23/23/4 22/22/4
f 14/14/1 23/23/1 15/15/1
f 14/14/1 22/22/1 23/23/1
f 11/11/3 18/18/3 10/10/3
f 11/11/3 19/19/3 18/18/3
f 11/11/5 16/16/5 12/12/5
f 11/11/5 15/15/5 16/16/5
f 20/20/6 23/23/6 19/19/6
f 20/20/6 24/24/6 23/23/6
f 15/15/1 24/24/1 16/16/1
f 15/15/1 23/23/1 24/24/1
f 12/12/3 19/19/3 11/11/3
f 12/12/3 20/20/3 19/19/3
f 12/12/4 13/13/4 9/9/4
f 12/12/4 16/16/4 13/13/4
f 17/17/2 24/24/2 20/20/2
f 17/17/2 21/21/2 24/24/2
f 16/16/1 21/21/1 13/13/1
f 16/16/1 24/24/1 21/21/1
f 9/9/3 20/20/3 12/12/3
f 9/9/3 17/17/3 20/20/3
f 25/25/6 30/30/6 26/26/6
f 25/25/6 29/29/6 30/30/6
f 34/34/5 37/37/5 33/33/5
f 34/34/5 38/38/5 37/37/5
f 29/29/2 38/38/2 30/30/2
f 29/29/2 37/37/2 38/38/2
f 26/26/4 33/33/4 25/25/4
f 26/26/4 34/34/4 33/33/4
f 26/26/3 31/31/3 27/27/3
f 26/26/3 30/30/3 31/31/3
f 35/35/1 38/38/1 34/34/1
f 35/35/1 39/39/1 38/38/1
f 30/30/2 39/39/2 31/31/2
f 30/30/2 38/38/2 39/39/2
f 27/27/4 34/34/4 26/26/4
f 27/27/4 35/35/4 34/34/4
f 27/27/5 32/32/5 28/28/5
f 27/27/5 31/31/5 32/32/5
f 36/36/6 39/39/6 35/35/6
f 36/36/6 40/40/6 39/39/6
f 31/31/2 40/40/2 32/32/2
f 31/31/2 39/39/2 40/40/2
f 28/28/4 35/35/4 27/27/4
f 28/28/4 36/36/4 35/35/4
f 28/28/1 29/29/1 25/25/1
f 28/28/1 32/32/1 29/29/1
f 33/33/3 40/40/3 36/36/3
f 33/33/3 37/37/3 40/40/3
f 32/32/2 37/37/2 29/29/2
f 32/32/2 40/40/2 37/37/2
f 25/25/4 36/36/4 28/28/4
f 25/25/4 33/33/4 36/36/4
f 41/41/6 46/46/6 42/42/6
f 41/41/6 45/45/6 46/46/6
f 50/50/5 53/53/5 49/49/5
f 50/50/5 54/54/5 53/53/5
f 45/45/2 54/54/2 46/46/2
f 45/45/2 53/53/2 54/54/2
f 42/42/4 49/49/4 41/41/4
f 42/42/4 50/50/4 49/49/4
f 42/42/3 47/47/3 43/43/3
f 42/42/3 46/46/3 47/47/3
f 51/51/1 54/54/1 50/50/1
f 51/51/1 55/55/1 54/54/1
f 46/46/2 55/55/2 47/47/2
f 46/46/2 54/54/2 55/55/2
f 43/43/4 50/50/4 42/42/4
f 43/43/4 51/51/4 50/50/4
f 43/43/5 48/48/5 44/44/5
f 43/43/5 47/47/5 48/48/5
f 52/52/6 55/55/6 51/51/6
f 52/52/6 56/56/6 55/55/6
f 47/47/2 56/56/2 48/48/2
f 47/47/2 55/55/2 56/56/2
f 44/44/4 51/51/4 43/43/4
f 44/44/4 52/52/4 51/51/4
f 44/44/1 45/45/1 41/41/1
f 44/44/1 48/48/1 45/45/1
f 49/49/3 56/56/3 52/52/3
f 49/49/3 53/53/3 56/56/3
f 48/48/2 53/53/2 45/45/2
f 48/48/2 56/56/2 53/53/2
f 41/41/4 52/52/4 44/44/4
f 41/41/4 49/49/4 52/52/4
f 57/57/6 62/62/6 58/58/6
f 57/57/6 61/61/6 62/62/6
f 66/66/5 69/69/5 65/65/5
f 66/66/5 70/70/5 69/69/5
f 61/61/3 70/70/3 62/62/3
f 61/61/3 69/69/3 70/70/3
f 58/58/1 65/65/1 57/57/1
f 58/58/1 66/66/1 65/65/1
f 58/58/4 63/63/4 59/59/4
f 58/58/4 62/62/4 63/63/4
f 67/67/2 70/70/2 66/66/2
f 67/67/2 71/71/2 70/70/2
f 62/62/3 71/71/3 63/63/3
f 62/62/3 70/70/3 71/71/3
f 59/59/1 66/66/1 58/58/1
f 59/59/1 67/67/1 66/66/1
f 59/59/5 64/64/5 60/60/5
f 59/59/5 63/63/5 64/64/5
f 68/68/6 71/71/6 67/67/6
f 68/68/6 72/72/6 71/71/6
f 63/63/3 72/72/3 64/64/3
f 63/63/3 71/71/3 72/72/3
f 60/60/1 67/67/1 59/59/1
f 60/60/1 68/68/1 67/67/1
f 60/60/2 61/61/2 57/57/2
f 60/60/2 64/64/2 61/61/2
f 65/65/4 72/72/4 68/68/4
f 65/65/4 69/69/4 72/72/4
f 64/64/3 69/69/3 61/61/3
f 64/64/3 72/72/3 69/69/3
f 57/57/1 68/68/1 60/60/1
f 57/57/1 65/65/1 68/68/1
f 73/73/1 74/74/1 78/78/1
f 73/73/1 78/78/1 77/77/1
f 74/74/4 75/75/4 79/79/4
f 74/74/4 79/79/4 78/78/4
f 75/75/3 76/76/3 80/80/3
f 75/75/3 80/80/3 79/79/3
f 76/76/2 73/73/2 77/77/2
f 76/76/2 77/77/2 80/80/2
f 77/77/5 78/78/5 79/79/5
f 77/77/5 79/79/5 80/80/5
f 76/76/6 75/75/6 74/74/6
f 76/76/6 74/74/6 73/73/6
f 81/81/6 86/86/6 82/82/6
f 81/81/6 85/85/6 86/86/6
f 90/90/5 93/93/5 89/89/5
f 90/90/5 94/94/5 93/93/5
f 85/85/4 94/94/4 86/86/4
f 85/85/4 93/93/4 94/94/4
f 82/82/2 89/89/2 81/81/2
f 82/82/2 90/90/2 89/89/2
f 82/82/1 87/87/1 83/83/1
f 82/82/1 86/86/1 87/87/1
f 91/91/3 94/94/3 90/90/3
f 91/91/3 95/95/3 94/94/3
f 86/86/4 95/95/4 87/87/4
f 86/86/4 94/94/4 95/95/4
f 83/83/2 90/90/2 82/82/2
f 83/83/2 91/91/2 90/90/2
f 83/83/5 88/88/5 84/84/5
f 83/83/5 87/87/5 88/88/5
f 92/92/6 95/95/6 91/91/6
f 92/92/6 96/96/6 95/95/6
f 87/87/4 96/96/4 88/88/4
f 87/87/4 95/95/4 96/96/4
f 84/84/2 91/91/2 83/83/2
f 84/84/2 92/92/2 91/91/2
f 84/84/3 85/85/3 81/81/3
f 84/84/3 88/88/3 85/85/3
f 89/89/1 96/96/1 92/92/1
f 89/89/1 93/93/1 96/96/1
f 88/88/4 93/93/4 85/85/4
f 88/88/4 96/96/4 93/93/4
f 81/81/2 92/92/2 84/84/2
f 81/81/2 89/89/2 92/92/2
f 97/97/6 102/102/6 98/98/6
f 97/97/6 101/101/6 102/102/6
f 106/106/5 109/109/5 105/105/5
f 106/106/5 110/110/5 109/109/5
f 101/101/4 110/110/4 102/102/4
f 101/101/4 109/109/4 110/110/4
f 98/98/2 105/105/2 97/97/2
f 98/98/2 106/106/2 105/105/2
f 98/98/1 103/103/1 99/99/1
f 98/98/1 102/102/1 103/103/1
f 107/107/3 110/110/3 106/106/3
f 107/107/3 111/111/3 110/110/3
f 102/102/4 111/111/4 103/103/4
f 102/102/4 110/110/4 111/111/4
f 99/99/2 106/106/2 98/98/2
f 99/99/2 107/107/2 106/106/2
f 99/99/5 104/104/5 100/100/5
f 99/99/5 103/103/5 104/104/5
f 108/108/6 111/111/6 107/107/6
f 108/108/6 112/112/6 111/111/6
f 103/103/4 112/112/4 104/104/4
f 103/103/4 111/111/4 112/112/4
f 100/100/2 107/107/2 99/99/2
f 100/100/2 108/108/2 107/107/2
f 100/100/3 101/101/3 97/97/3
f 100/100/3 104/104/3 101/101/3
f 105/105/1 112/112/1 108/108/1
f 105/105/1 109/109/1 112/112/1
f 104/104/4 109/109/4 101/101/4
f 104/104/4 112/112/4 109/109/4
f 97/97/2 108/108/2 100/100/2
f 97/97/2 105/105/2 108/108/2
f 113/113/1 118/118/1 114/114/1
f 113/113/1 117/117/1 118/118/1
f 122/122/3 125/125/3 121/121/3
f 122/122/3 126/126/3 125/125/3
f 117/117/5 126/126/5 118/118/5
f 117/117/5 125/125/5 126/126/5
f 114/114/6 121/121/6 113/113/6
f 114/114/6 122/122/6 121/121/6
f 114/114/2 119/119/2 115/115/2
f 114/114/2 118/118/2 119/119/2
f 123/123/4 126/126/4 122/122/4
f 123/123/4 127/127/4 126/126/4
f 118/118/5 127/127/5 119/119/5
f 118/118/5 126/126/5 127/127/5
f 115/115/6 122/122/6 114/114/6
f 115/115/6 123/123/6 122/122/6
f 115/115/3 120/120/3 116/116/3
f 115/115/3 119/119/3 120/120/3
f 124/124/1 127/127/1 123/123/1
f 124/124/1 128/128/1 127/127/1
f 119/119/5 128/128/5 120/120/5
f 119/119/5 127/127/5 128/128/5
f 116/116/6 123/123/6 115/115/6
f 116/116/6 124/124/6 123/123/6
f 116/116/4 117/117/4 113/113/4
f 116/116/4 120/120/4 117/117/4
f 121/121/2 128/128/2 124/124/2
f 121/121/2 125/125/2 128/128/2
f 120/120/5 125/125/5 117/117/5
f 120/120/5 128/128/5 125/125/5
f 113/113/6 124/124/6 116/116/6
f 113/113/6 121/121/6 124/124/6
f 129/129/1 134/134/1 130/130/1
f 129/129/1 133/133/1 134/134/1
f 138/138/3 141/141/3 137/137/3
f 138/138/3 142/142/3 141/141/3
f 133/133/5 142/142/5 134/134/5
f 133/133/5 141/141/5 142/142/5
f 130/130/6 137/137/6 129/129/6
f 130/130/6 138/138/6 137/137/6
f 130/130/2 135/135/2 131/131/2
f 130/130/2 134/134/2 135/135/2
f 139/139/4 142/142/4 138/138/4
f 139/139/4 143/143/4 142/142/4
f 134/134/5 143/143/5 135/135/5
f 134/134/5 142/142/5 143/143/5
f 131/131/6 138/138/6 130/130/6
f 131/131/6 139/139/6 138/138/6
f 131/131/3 136/136/3 132/132/3
f 131/131/3 135/135/3 136/136/3
f 140/140/1 143/143/1 139/139/1
f 140/140/1 144/144/1 143/143/1
f 135/135/5 144/144/5 136/136/5
f 135/135/5 143/143/5 144/144/5
f 132/132/6 139/139/6 131/131/6
f 132/132/6 140/140/6 139/139/6
f 132/132/4 133/133/4 129/129/4
f 132/132/4 136/136/4 133/133/4
f 137/137/2 144/144/2 140/140/2
f 137/137/2 141/141/2 144/144/2
f 136/136/5 141/141/5 133/133/5
f 136/136/5 144/144/5 141/141/5
f 129/129/6 140/140/6 132/132/6
f 129/129/6 137/137/6 140/140/6
f 145/145/1 150/150/1 146/146/1
f 145/145/1 149/149/1 150/150/1
f 154/154/3 157/157/3 153/153/3
f 154/154/3 158/158/3 157/157/3
f 149/149/5 158/158/5 150/150/5
f 149/149/5 157/157/5 158/158/5
f 146/146/6 153/153/6 145/145/6
f 146/146/6 154/154/6 153/153/6
f 146/146/2 151/151/2 147/147/2
f 146/146/2 150/150/2 151/151/2
f 155/155/4 158/158/4 154/154/4
f 155/155/4 159/159/4 158/158/4
f 150/150/5 159/159/5 151/151/5
f 150/150/5 158/158/5 159/159/5
f 147/147/6 154/154/6 146/146/6
f 147/147/6 155/155/6 154/154/6
f 147/147/3 152/152/3 148/148/3
f 147/147/3 151/151/3 152/152/3
f 156/156/1 159/159/1 155/155/1
f 156/156/1 160/160/1 159/159/1
f 151/151/5 160/160/5 152/152/5
f 151/151/5 159/159/5 160/160/5
f 148/148/6 155/155/6 147/147/6
f 148/148/6 156/156/6 155/155/6
f 148/148/4 149/149/4 145/145/4
f 148/148/4 152/152/4 149/149/4
f 153/153/2 160/160/2 156/156/2
f 153/153/2 157/157/2 160/160/2
f 152/152/5 157/157/5 149/149/5
f 152/152/5 160/160/5 157/157/5
f 145/145/6 156/156/6 148/148/6
f 145/145/6 153/153/6 156/156/6
f 161/161/2 162/162/2 166/166/2
f 161/161/2 166/166/2 165/165/2
f 162/162/1 163/163/1 167/167/1
f 162/162/1 167/167/1 166/166/1
f 163/163/4 164/164/4 168/168/4
f 163/163/4 168/168/4 167/167/4
f 164/164/3 161/161/3 165/165/3
f 164/164/3 165/165/3 168/168/3
f 165/165/5 166/166/5 167/167/5
f 165/165/5 167/167/5 168/168/5
f 164/164/6 163/163/6 162/162/6
f 164/164/6 162/162/6 161/161/6
f 169/169/3 170/170/3 174/174/3
f 169/169/3 174/174/3 173/173/3
f 170/170/2 171/171/2 175/175/2
f 170/170/2 175/175/2 174/174/2
f 171/171/1 172/172/1 176/176/1
f 171/171/1 176/176/1 175/175/1
f 172/172/4 169/169/4 173/173/4
f 172/172/4 173/173/4 176/176/4
f 173/173/5 174/174/5 175/175/5
f 173/173/5 175/175/5 176/176/5
f 172/172/6 171/171/6 170/170/6
f 172/172/6 170/170/6 169/169/6
f 177/177/2 178/178/2 182/182/2
f 177/177/2 182/182/2 181/181/2
f 178/178/1 179/179/1 183/183/1
f 178/178/1 183/183/1 182/182/1
f 179/179/4 180/180/4 184/184/4
f 179/179/4 184/184/4 183/183/4
f 180/180/3 177/177/3 181/181/3
f 180/180/3 181/181/3 184/184/3
f 181/181/5 182/182/5 183/183/5
f 181/181/5 183/183/5 184/184/5
f 180/180/6 179/179/6 178/178/6
f 180/180/6 178/178/6 177/177/6
f 185/185/3 186/186/3 190/190/3
f 185/185/3 190/190/3 189/189/3
f 186/186/2 187/187/2 191/191/2
f 186/186/2 191/191/2 190/190/2
f 187/187/1 188/188/1 192/192/1
f 187/187/1 192/192/1 191/191/1
f 188/188/4 185/185/4 189/189/4
f 188/188/4 189/189/4 192/192/4
f 189/189/5 190/190/5 191/191/5
f 189/189/5 191/191/5 192/192/5
f 188/188/6 187/187/6 186/186/6
f 188/188/6 186/186/6 185/185/6
f 193/193/4 194/194/4 198/198/4
f 193/193/4 198/198/4 197/197/4
f 194/194/3 195/195/3 199/199/3
f 194/194/3 199/199/3 198/198/3
f 195/195/2 196/196/2 200/200/2
f 195/195/2 200/200/2 199/199/2
f 196/196/1 193/193/1 197/197/1
f 196/196/1 197/197/1 200/200/1
f 197/197/5 198/198/5 199/199/5
f 197/197/5 199/199/5 200/200/5
f 196/196/6 195/195/6 194/194/6
f 196/196/6 194/194/6 193/193/6
f 201/201/1 202/202/1 206/206/1
f 201/201/1 206/206/1 205/205/1
f 202/202/4 203/203/4 207/207/4
f 202/202/4 207/207/4 206/206/4
f 203/203/3 204/204/3 208/208/3
f 203/203/3 208/208/3 207/207/3
f 204/204/2 201/201/2 205/205/2
f 204/204/2 205/205/2 208/208/2
f 205/205/5 206/206/5 207/207/5
f 205/205/5 207/207/5 208/208/5
f 204/204/6 203/203/6 202/202/6
f 204/204/6 202/202/6 201/201/6
f 209/209/4 210/210/4 214/214/4
f 209/209/4 214/214/4 213/213/4
f 210/210/3 211/211/3 215/215/3
f 210/210/3 215/215/3 214/214/3
f 211/211/2 212/212/2 216/216/2
f 211/211/2 216/216/2 215/215/2
f 212/212/1 209/209/1 213/213/1
f 212/212/1 213/213/1 216/216/1
f 213/213/5 214/214/5 215/215/5
f 213/213/5 215/215/5 216/216/5
f 212/212/6 211/211/6 210/210/6
f 212/212/6 210/210/6 209/209/6
f 217/217/1 218/218/1 222/222/1
f 217/217/1 222/222/1 221/221/1
f 218/218/4 219/219/4 223/223/4
f 218/218/4 223/223/4 222/222/4
f 219/219/3 220/220/3 224/224/3
f 219/219/3 224/224/3 223/223/3
f 220/220/2 217/217/2 221/221/2
f 220/220/2 221/221/2 224/224/2
f 221/221/5 222/222/5 223/223/5
f 221/221/5 223/223/5 224/224/5
f 220/220/6 219/219/6 218/218/6
f 220/220/6 218/218/6 217/217/6
f 225/225/3 226/226/3 230/230/3
f 225/225/3 230/230/3 229/229/3
f 226/226/2 227/227/2 231/231/2
f 226/226/2 231/231/2 230/230/2
f 227/227/1 228/228/1 232/232/1
f 227/227/1 232/232/1 231/231/1
f 228/228/4 225/225/4 229/229/4
f 228/228/4 229/229/4 232/232/4
f 229/229/5 230/230/5 231/231/5
f 229/229/5 231/231/5 232/232/5
f 228/228/6 227/227/6 226/226/6
f 228/228/6 226/226/6 225/225/6
f 233/233/4 234/234/4 238/238/4
f 233/233/4 238/238/4 237/237/4
f 234/234/3 235/235/3 239/239/3
f 234/234/3 239/239/3 238/238/3
f 235/235/2 236/236/2 240/240/2
f 235/235/2 240/240/2 239/239/2
f 236/236/1 233/233/1 237/237/1
f 236/236/1 237/237/1 240/240/1
f 237/237/5 238/238/5 239/239/5
f 237/237/5 239/239/5 240/240/5
f 236/236/6 235/235/6 234/234/6
f 236/236/6 234/234/6 233/233/6
f 241/241/3 242/242/3 246/246/3
f 241/241/3 246/246/3 245/245/3
f 242/242/2 243/243/2 247/247/2
f 242/242/2 247/247/2 246/246/2
f 243/243/1 244/244/1 248/248/1
f 243/243/1 248/248/1 247/247/1
f 244/244/4 241/241/4 245/245/4
f 244/244/4 245/245/4 248/248/4
f 245/245/5 246/246/5 247/247/5
f 245/245/5 247/247/5 248/248/5
f 244/244/6 243/243/6 242/242/6
f 244/244/6 242/242/6 241/241/6
f 249/249/4 250/250/4 254/254/4
f 249/249/4 254/254/4 253/253/4
f 250/250/3 251/251/3 255/255/3
f 250/250/3 255/255/3 254/254/3
f 251/251/2 252/252/2 256/256/2
f 251/251/2 256/256/2 255/255/2
f 252/252/1 249/249/1 253/253/1
f 252/252/1 253/253/1 256/256/1
f 253/253/5 254/254/5 255/255/5
f 253/253/5 255/255/5 256/256/5
f 252/252/6 251/251/6 250/250/6
f 252/252/6 250/250/6 249/249/6
f 257/257/1 258/258/1 262/262/1
f 257/257/1 262/262/1 261/261/1
f 258/258/4 259/259/4 263/263/4
f 258/258/4 263/263/4 262/262/4
f 259/259/3 260/260/3 264/264/3
f 259/259/3 264/264/3 263/263/3
f 260/260/2 257/257/2 261/261/2
f 260/260/2 261/261/2 264/264/2
f 261/261/5 262/262/5 263/263/5
f 261/261/5 263/263/5 264/264/5
f 260/260/6 259/259/6 258/258/6
f 260/260/6 258/258/6 257/257/6
f 265/265/2 266/266/2 270/270/2
f 265/265/2 270/270/2 269/269/2
f 266/266/1 267/267/1 271/271/1
f 266/266/1 271/271/1 270/270/1
f 267/267/4 268/268/4 272/272/4
f 267/267/4 272/272/4 271/271/4
f 268/268/3 265/265/3 269/269/3
f 268/268/3 269/269/3 272/272/3
f 269/269/5 270/270/5 271/271/5
f 269/269/5 271/271/5 272/272/5
f 268/268/6 267/267/6 266/266/6
f 268/268/6 266/266/6 265/265/6
f 273/273/1 274/274/1 278/278/1
f 273/273/1 278/278/1 277/277/1
f 274/274/4 275/275/4 279/279/4
f 274/274/4 279/279/4 278/278/4
f 275/275/3 276/276/3 280/280/3
f 275/275/3 280/280/3 279/279/3
f 276/276/2 273/273/2 277/277/2
f 276/276/2 277/277/2 280/280/2
f 277/277/5 278/278/5 279/279/5
f 277/277/5 279/279/5 280/280/5
f 276/276/6 275/275/6 274/274/6
f 276/276/6 274/274/6 273/273/6
f 281/281/2 282/282/2 286/286/2
f 281/281/2 286/286/2 285/285/2
f 282/282/1 283/283/1 287/287/1
f 282/282/1 287/287/1 286/286/1
f 283/283/4 284/284/4 288/288/4
f 283/283/4 288/288/4 287/287/4
f 284/284/3 281/281/3 285/285/3
f 284/284/3 285/285/3 288/288/3
f 285/285/5 286/286/5 287/287/5
f 285/285/5 287/287/5 288/288/5
f 284/284/6 283/283/6 282/282/6
f 284/284/6 282/282/6 281/281/6
