# Unreal legacy OBJ adapter: canonical vertices are UE cm; this file is written with Y reflected and triangle winding reversed. One object, no g groups, so the importer creates exactly one material slot.
# OldCityFacadesV1 20260908T024235646425Z
# source jerusalem.json sha256 76a2b76c0d97f45db7e532b3adbe8b58c02956fa0d3de73db71e31e097ea6463
# alignment UEcm = ((x+17.509700315687695)*50, (z-0.551349644938533)*50, y*50) - already baked, never reapplied
# shell standoff 6.0 cm outside every imported face
# AUTHORED detail: invented Old City massing, not survey
o SM_OldCityFacades_Grid_P000_N007
s off
v 920.34 60679.21 933.62
v 1018.18 60699.91 933.62
v 1018.18 60699.91 1113.62
v 920.34 60679.21 1113.62
v 917.44 60692.91 933.62
v 1015.28 60713.60 933.62
v 1015.28 60713.60 1113.62
v 917.44 60692.91 1113.62
v 934.04 60682.11 947.62
v 1004.48 60697.01 947.62
v 1004.48 60697.01 1099.62
v 934.04 60682.11 1099.62
v 931.14 60695.81 947.62
v 1001.58 60710.71 947.62
v 1001.58 60710.71 1099.62
v 931.14 60695.81 1099.62
v 920.34 60679.21 1253.62
v 1018.18 60699.91 1253.62
v 1018.18 60699.91 1433.62
v 920.34 60679.21 1433.62
v 917.44 60692.91 1253.62
v 1015.28 60713.60 1253.62
v 1015.28 60713.60 1433.62
v 917.44 60692.91 1433.62
v 934.04 60682.11 1267.62
v 1004.48 60697.01 1267.62
v 1004.48 60697.01 1419.62
v 934.04 60682.11 1419.62
v 931.14 60695.81 1267.62
v 1001.58 60710.71 1267.62
v 1001.58 60710.71 1419.62
v 931.14 60695.81 1419.62
v 920.34 60679.21 1573.62
v 1018.18 60699.91 1573.62
v 1018.18 60699.91 1753.62
v 920.34 60679.21 1753.62
v 917.44 60692.91 1573.62
v 1015.28 60713.60 1573.62
v 1015.28 60713.60 1753.62
v 917.44 60692.91 1753.62
v 934.04 60682.11 1587.62
v 1004.48 60697.01 1587.62
v 1004.48 60697.01 1739.62
v 934.04 60682.11 1739.62
v 931.14 60695.81 1587.62
v 1001.58 60710.71 1587.62
v 1001.58 60710.71 1739.62
v 931.14 60695.81 1739.62
v 1189.07 60565.48 933.62
v 1209.63 60467.62 933.62
v 1209.63 60467.62 1113.62
v 1189.07 60565.48 1113.62
v 1202.77 60568.36 933.62
v 1223.33 60470.50 933.62
v 1223.33 60470.50 1113.62
v 1202.77 60568.36 1113.62
v 1191.95 60551.78 947.62
v 1206.75 60481.32 947.62
v 1206.75 60481.32 1099.62
v 1191.95 60551.78 1099.62
v 1205.65 60554.66 947.62
v 1220.45 60484.20 947.62
v 1220.45 60484.20 1099.62
v 1205.65 60554.66 1099.62
v 1189.07 60565.48 1253.62
v 1209.63 60467.62 1253.62
v 1209.63 60467.62 1433.62
v 1189.07 60565.48 1433.62
v 1202.77 60568.36 1253.62
v 1223.33 60470.50 1253.62
v 1223.33 60470.50 1433.62
v 1202.77 60568.36 1433.62
v 1191.95 60551.78 1267.62
v 1206.75 60481.32 1267.62
v 1206.75 60481.32 1419.62
v 1191.95 60551.78 1419.62
v 1205.65 60554.66 1267.62
v 1220.45 60484.20 1267.62
v 1220.45 60484.20 1419.62
v 1205.65 60554.66 1419.62
v 1189.07 60565.48 1573.62
v 1209.63 60467.62 1573.62
v 1209.63 60467.62 1753.62
v 1189.07 60565.48 1753.62
v 1202.77 60568.36 1573.62
v 1223.33 60470.50 1573.62
v 1223.33 60470.50 1753.62
v 1202.77 60568.36 1753.62
v 1191.95 60551.78 1587.62
v 1206.75 60481.32 1587.62
v 1206.75 60481.32 1739.62
v 1191.95 60551.78 1739.62
v 1205.65 60554.66 1587.62
v 1220.45 60484.20 1587.62
v 1220.45 60484.20 1739.62
v 1205.65 60554.66 1739.62
v 1263.45 60211.47 933.62
v 1284.01 60113.61 933.62
v 1284.01 60113.61 1113.62
v 1263.45 60211.47 1113.62
v 1277.15 60214.35 933.62
v 1297.71 60116.49 933.62
v 1297.71 60116.49 1113.62
v 1277.15 60214.35 1113.62
v 1266.32 60197.77 947.62
v 1281.13 60127.31 947.62
v 1281.13 60127.31 1099.62
v 1266.32 60197.77 1099.62
v 1280.03 60200.65 947.62
v 1294.83 60130.19 947.62
v 1294.83 60130.19 1099.62
v 1280.03 60200.65 1099.62
v 1263.45 60211.47 1253.62
v 1284.01 60113.61 1253.62
v 1284.01 60113.61 1433.62
v 1263.45 60211.47 1433.62
v 1277.15 60214.35 1253.62
v 1297.71 60116.49 1253.62
v 1297.71 60116.49 1433.62
v 1277.15 60214.35 1433.62
v 1266.32 60197.77 1267.62
v 1281.13 60127.31 1267.62
v 1281.13 60127.31 1419.62
v 1266.32 60197.77 1419.62
v 1280.03 60200.65 1267.62
v 1294.83 60130.19 1267.62
v 1294.83 60130.19 1419.62
v 1280.03 60200.65 1419.62
v 1263.45 60211.47 1573.62
v 1284.01 60113.61 1573.62
v 1284.01 60113.61 1703.62
v 1278.87 60138.08 1746.92
v 1268.59 60187.01 1746.92
v 1263.45 60211.47 1703.62
v 1277.15 60214.35 1573.62
v 1297.71 60116.49 1573.62
v 1297.71 60116.49 1703.62
v 1292.57 60140.96 1746.92
v 1282.29 60189.89 1746.92
v 1277.15 60214.35 1703.62
v 1266.32 60197.77 1587.62
v 1281.13 60127.31 1587.62
v 1281.13 60127.31 1703.62
v 1277.43 60144.93 1734.80
v 1270.03 60180.16 1734.80
v 1266.32 60197.77 1703.62
v 1280.03 60200.65 1587.62
v 1294.83 60130.19 1587.62
v 1294.83 60130.19 1703.62
v 1291.13 60147.81 1734.80
v 1283.73 60183.04 1734.80
v 1280.03 60200.65 1703.62
v 1337.82 59857.47 933.62
v 1358.38 59759.60 933.62
v 1358.38 59759.60 1113.62
v 1337.82 59857.47 1113.62
v 1351.52 59860.34 933.62
v 1372.09 59762.48 933.62
v 1372.09 59762.48 1113.62
v 1351.52 59860.34 1113.62
v 1340.70 59843.77 947.62
v 1355.51 59773.30 947.62
v 1355.51 59773.30 1099.62
v 1340.70 59843.77 1099.62
v 1354.40 59846.64 947.62
v 1369.21 59776.18 947.62
v 1369.21 59776.18 1099.62
v 1354.40 59846.64 1099.62
v 1337.82 59857.47 1253.62
v 1358.38 59759.60 1253.62
v 1358.38 59759.60 1433.62
v 1337.82 59857.47 1433.62
v 1351.52 59860.34 1253.62
v 1372.09 59762.48 1253.62
v 1372.09 59762.48 1433.62
v 1351.52 59860.34 1433.62
v 1340.70 59843.77 1267.62
v 1355.51 59773.30 1267.62
v 1355.51 59773.30 1419.62
v 1340.70 59843.77 1419.62
v 1354.40 59846.64 1267.62
v 1369.21 59776.18 1267.62
v 1369.21 59776.18 1419.62
v 1354.40 59846.64 1419.62
v 1337.82 59857.47 1573.62
v 1358.38 59759.60 1573.62
v 1358.38 59759.60 1753.62
v 1337.82 59857.47 1753.62
v 1351.52 59860.34 1573.62
v 1372.09 59762.48 1573.62
v 1372.09 59762.48 1753.62
v 1351.52 59860.34 1753.62
v 1340.70 59843.77 1587.62
v 1355.51 59773.30 1587.62
v 1355.51 59773.30 1739.62
v 1340.70 59843.77 1739.62
v 1354.40 59846.64 1587.62
v 1369.21 59776.18 1587.62
v 1369.21 59776.18 1739.62
v 1354.40 59846.64 1739.62
v 1256.13 59567.42 933.62
v 1158.29 59546.73 933.62
v 1158.29 59546.73 1113.62
v 1256.13 59567.42 1113.62
v 1259.03 59553.73 933.62
v 1161.19 59533.03 933.62
v 1161.19 59533.03 1113.62
v 1259.03 59553.73 1113.62
v 1242.43 59564.53 947.62
v 1171.99 59549.63 947.62
v 1171.99 59549.63 1099.62
v 1242.43 59564.53 1099.62
v 1245.33 59550.83 947.62
v 1174.89 59535.93 947.62
v 1174.89 59535.93 1099.62
v 1245.33 59550.83 1099.62
v 1256.13 59567.42 1253.62
v 1158.29 59546.73 1253.62
v 1158.29 59546.73 1433.62
v 1256.13 59567.42 1433.62
v 1259.03 59553.73 1253.62
v 1161.19 59533.03 1253.62
v 1161.19 59533.03 1433.62
v 1259.03 59553.73 1433.62
v 1242.43 59564.53 1267.62
v 1171.99 59549.63 1267.62
v 1171.99 59549.63 1419.62
v 1242.43 59564.53 1419.62
v 1245.33 59550.83 1267.62
v 1174.89 59535.93 1267.62
v 1174.89 59535.93 1419.62
v 1245.33 59550.83 1419.62
v 1256.13 59567.42 1573.62
v 1158.29 59546.73 1573.62
v 1158.29 59546.73 1703.62
v 1182.75 59551.90 1746.92
v 1231.67 59562.25 1746.92
v 1256.13 59567.42 1703.62
v 1259.03 59553.73 1573.62
v 1161.19 59533.03 1573.62
v 1161.19 59533.03 1703.62
v 1185.65 59538.21 1746.92
v 1234.57 59548.55 1746.92
v 1259.03 59553.73 1703.62
v 1242.43 59564.53 1587.62
v 1171.99 59549.63 1587.62
v 1171.99 59549.63 1703.62
v 1189.60 59553.35 1734.80
v 1224.82 59560.80 1734.80
v 1242.43 59564.53 1703.62
v 1245.33 59550.83 1587.62
v 1174.89 59535.93 1587.62
v 1174.89 59535.93 1703.62
v 1192.50 59539.65 1734.80
v 1227.72 59547.10 1734.80
v 1245.33 59550.83 1703.62
v 987.40 59681.15 933.62
v 966.84 59779.02 933.62
v 966.84 59779.02 1113.62
v 987.40 59681.15 1113.62
v 973.70 59678.27 933.62
v 953.14 59776.14 933.62
v 953.14 59776.14 1113.62
v 973.70 59678.27 1113.62
v 984.52 59694.85 947.62
v 969.72 59765.31 947.62
v 969.72 59765.31 1099.62
v 984.52 59694.85 1099.62
v 970.82 59691.97 947.62
v 956.02 59762.44 947.62
v 956.02 59762.44 1099.62
v 970.82 59691.97 1099.62
v 987.40 59681.15 1253.62
v 966.84 59779.02 1253.62
v 966.84 59779.02 1433.62
v 987.40 59681.15 1433.62
v 973.70 59678.27 1253.62
v 953.14 59776.14 1253.62
v 953.14 59776.14 1433.62
v 973.70 59678.27 1433.62
v 984.52 59694.85 1267.62
v 969.72 59765.31 1267.62
v 969.72 59765.31 1419.62
v 984.52 59694.85 1419.62
v 970.82 59691.97 1267.62
v 956.02 59762.44 1267.62
v 956.02 59762.44 1419.62
v 970.82 59691.97 1419.62
v 987.40 59681.15 1573.62
v 966.84 59779.02 1573.62
v 966.84 59779.02 1753.62
v 987.40 59681.15 1753.62
v 973.70 59678.27 1573.62
v 953.14 59776.14 1573.62
v 953.14 59776.14 1753.62
v 973.70 59678.27 1753.62
v 984.52 59694.85 1587.62
v 969.72 59765.31 1587.62
v 969.72 59765.31 1739.62
v 984.52 59694.85 1739.62
v 970.82 59691.97 1587.62
v 956.02 59762.44 1587.62
v 956.02 59762.44 1739.62
v 970.82 59691.97 1739.62
v 913.02 60035.16 1253.62
v 892.46 60133.02 1253.62
v 892.46 60133.02 1383.62
v 897.60 60108.56 1426.92
v 907.88 60059.63 1426.92
v 913.02 60035.16 1383.62
v 899.32 60032.28 1253.62
v 878.76 60130.15 1253.62
v 878.76 60130.15 1383.62
v 883.90 60105.68 1426.92
v 894.18 60056.75 1426.92
v 899.32 60032.28 1383.62
v 910.15 60048.86 1267.62
v 895.34 60119.32 1267.62
v 895.34 60119.32 1383.62
v 899.04 60101.71 1414.80
v 906.44 60066.48 1414.80
v 910.15 60048.86 1383.62
v 896.44 60045.98 1267.62
v 881.64 60116.44 1267.62
v 881.64 60116.44 1383.62
v 885.34 60098.83 1414.80
v 892.74 60063.60 1414.80
v 896.44 60045.98 1383.62
v 913.02 60035.16 1573.62
v 892.46 60133.02 1573.62
v 892.46 60133.02 1753.62
v 913.02 60035.16 1753.62
v 899.32 60032.28 1573.62
v 878.76 60130.15 1573.62
v 878.76 60130.15 1753.62
v 899.32 60032.28 1753.62
v 910.15 60048.86 1587.62
v 895.34 60119.32 1587.62
v 895.34 60119.32 1739.62
v 910.15 60048.86 1739.62
v 896.44 60045.98 1587.62
v 881.64 60116.44 1587.62
v 881.64 60116.44 1739.62
v 896.44 60045.98 1739.62
v 838.65 60389.17 933.62
v 818.09 60487.03 933.62
v 818.09 60487.03 1113.62
v 838.65 60389.17 1113.62
v 824.95 60386.29 933.62
v 804.38 60484.15 933.62
v 804.38 60484.15 1113.62
v 824.95 60386.29 1113.62
v 835.77 60402.87 947.62
v 820.96 60473.33 947.62
v 820.96 60473.33 1099.62
v 835.77 60402.87 1099.62
v 822.07 60399.99 947.62
v 807.26 60470.45 947.62
v 807.26 60470.45 1099.62
v 822.07 60399.99 1099.62
v 838.65 60389.17 1253.62
v 818.09 60487.03 1253.62
v 818.09 60487.03 1433.62
v 838.65 60389.17 1433.62
v 824.95 60386.29 1253.62
v 804.38 60484.15 1253.62
v 804.38 60484.15 1433.62
v 824.95 60386.29 1433.62
v 835.77 60402.87 1267.62
v 820.96 60473.33 1267.62
v 820.96 60473.33 1419.62
v 835.77 60402.87 1419.62
v 822.07 60399.99 1267.62
v 807.26 60470.45 1267.62
v 807.26 60470.45 1419.62
v 822.07 60399.99 1419.62
v 838.65 60389.17 1573.62
v 818.09 60487.03 1573.62
v 818.09 60487.03 1703.62
v 823.23 60462.57 1746.92
v 833.51 60413.63 1746.92
v 838.65 60389.17 1703.62
v 824.95 60386.29 1573.62
v 804.38 60484.15 1573.62
v 804.38 60484.15 1703.62
v 809.53 60459.69 1746.92
v 819.81 60410.76 1746.92
v 824.95 60386.29 1703.62
v 835.77 60402.87 1587.62
v 820.96 60473.33 1587.62
v 820.96 60473.33 1703.62
v 824.67 60455.72 1734.80
v 832.07 60420.49 1734.80
v 835.77 60402.87 1703.62
v 822.07 60399.99 1587.62
v 807.26 60470.45 1587.62
v 807.26 60470.45 1703.62
v 810.96 60452.84 1734.80
v 818.37 60417.61 1734.80
v 822.07 60399.99 1703.62
v 915.08 60025.37 843.62
v 890.41 60142.81 843.62
v 890.41 60142.81 1013.62
v 896.57 60113.45 1065.58
v 908.91 60054.73 1065.58
v 915.08 60025.37 1013.62
v 895.51 60021.26 843.62
v 870.83 60138.70 843.62
v 870.83 60138.70 1013.62
v 877.00 60109.34 1065.58
v 889.34 60050.62 1065.58
v 895.51 60021.26 1013.62
v 911.38 60042.99 861.62
v 894.11 60125.19 861.62
v 894.11 60125.19 1013.62
v 898.43 60104.64 1049.99
v 907.06 60063.54 1049.99
v 911.38 60042.99 1013.62
v 891.81 60038.88 861.62
v 874.53 60121.08 861.62
v 874.53 60121.08 1013.62
v 878.85 60100.53 1049.99
v 887.49 60059.43 1049.99
v 891.81 60038.88 1013.62
v 919.19 60005.80 839.62
v 886.29 60162.38 839.62
v 860.85 60157.04 839.62
v 893.75 60000.46 839.62
v 919.19 60005.80 855.62
v 886.29 60162.38 855.62
v 860.85 60157.04 855.62
v 893.75 60000.46 855.62
v 776.67 60654.96 2013.62
v 1159.39 60735.91 2013.62
v 1399.80 59591.68 2013.62
v 1017.08 59510.73 2013.62
v 776.67 60654.96 2027.62
v 1159.39 60735.91 2027.62
v 1399.80 59591.68 2027.62
v 1017.08 59510.73 2027.62
v 790.88 60645.70 2013.62
v 1150.12 60721.68 2013.62
v 1385.59 59600.94 2013.62
v 1026.35 59524.95 2013.62
v 790.88 60645.70 2027.62
v 1150.12 60721.68 2027.62
v 1385.59 59600.94 2027.62
v 1026.35 59524.95 2027.62
v 764.83 60662.68 1991.62
v 1167.12 60747.76 1991.62
v 1411.64 59583.96 1991.62
v 1009.35 59498.87 1991.62
v 764.83 60662.68 2019.62
v 1167.12 60747.76 2019.62
v 1411.64 59583.96 2019.62
v 1009.35 59498.87 2019.62
v 790.88 60645.70 1991.62
v 1150.12 60721.68 1991.62
v 1385.59 59600.94 1991.62
v 1026.35 59524.95 1991.62
v 790.88 60645.70 2019.62
v 1150.12 60721.68 2019.62
v 1385.59 59600.94 2019.62
v 1026.35 59524.95 2019.62
v 771.94 60658.04 2049.62
v 1162.49 60740.65 2049.62
v 1404.53 59588.59 2049.62
v 1013.98 59505.98 2049.62
v 771.94 60658.04 2119.62
v 1162.49 60740.65 2119.62
v 1404.53 59588.59 2119.62
v 1013.98 59505.98 2119.62
v 833.50 60617.92 2049.62
v 1122.30 60679.00 2049.62
v 1342.97 59628.72 2049.62
v 1054.17 59567.63 2049.62
v 833.50 60617.92 2119.62
v 1122.30 60679.00 2119.62
v 1342.97 59628.72 2119.62
v 1054.17 59567.63 2119.62
v 1071.85 60705.13 868.62
v 1150.12 60721.68 868.62
v 1148.05 60731.46 868.62
v 1069.78 60714.91 868.62
v 1071.85 60705.13 923.62
v 1150.12 60721.68 923.62
v 1148.05 60731.46 923.62
v 1069.78 60714.91 923.62
v 1150.12 60721.68 940.62
v 1161.64 60666.88 940.62
v 1171.42 60668.93 940.62
v 1159.91 60723.74 940.62
v 1150.12 60721.68 995.62
v 1161.64 60666.88 995.62
v 1171.42 60668.93 995.62
v 1159.91 60723.74 995.62
v 1071.85 60705.13 1012.62
v 1150.12 60721.68 1012.62
v 1148.05 60731.46 1012.62
v 1069.78 60714.91 1012.62
v 1071.85 60705.13 1067.62
v 1150.12 60721.68 1067.62
v 1148.05 60731.46 1067.62
v 1069.78 60714.91 1067.62
v 1150.12 60721.68 1084.62
v 1161.64 60666.88 1084.62
v 1171.42 60668.93 1084.62
v 1159.91 60723.74 1084.62
v 1150.12 60721.68 1139.62
v 1161.64 60666.88 1139.62
v 1171.42 60668.93 1139.62
v 1159.91 60723.74 1139.62
v 807.33 60567.41 868.62
v 790.88 60645.70 868.62
v 781.09 60643.64 868.62
v 797.54 60565.35 868.62
v 807.33 60567.41 923.62
v 790.88 60645.70 923.62
v 781.09 60643.64 923.62
v 797.54 60565.35 923.62
v 790.88 60645.70 940.62
v 845.67 60657.29 940.62
v 843.60 60667.07 940.62
v 788.81 60655.48 940.62
v 790.88 60645.70 995.62
v 845.67 60657.29 995.62
v 843.60 60667.07 995.62
v 788.81 60655.48 995.62
v 807.33 60567.41 1012.62
v 790.88 60645.70 1012.62
v 781.09 60643.64 1012.62
v 797.54 60565.35 1012.62
v 807.33 60567.41 1067.62
v 790.88 60645.70 1067.62
v 781.09 60643.64 1067.62
v 797.54 60565.35 1067.62
v 790.88 60645.70 1084.62
v 845.67 60657.29 1084.62
v 843.60 60667.07 1084.62
v 788.81 60655.48 1084.62
v 790.88 60645.70 1139.62
v 845.67 60657.29 1139.62
v 843.60 60667.07 1139.62
v 788.81 60655.48 1139.62
v 1369.14 59679.23 868.62
v 1385.59 59600.94 868.62
v 1395.38 59602.99 868.62
v 1378.93 59681.28 868.62
v 1369.14 59679.23 923.62
v 1385.59 59600.94 923.62
v 1395.38 59602.99 923.62
v 1378.93 59681.28 923.62
v 1385.59 59600.94 940.62
v 1330.80 59589.35 940.62
v 1332.87 59579.57 940.62
v 1387.66 59591.15 940.62
v 1385.59 59600.94 995.62
v 1330.80 59589.35 995.62
v 1332.87 59579.57 995.62
v 1387.66 59591.15 995.62
v 1369.14 59679.23 1012.62
v 1385.59 59600.94 1012.62
v 1395.38 59602.99 1012.62
v 1378.93 59681.28 1012.62
v 1369.14 59679.23 1067.62
v 1385.59 59600.94 1067.62
v 1395.38 59602.99 1067.62
v 1378.93 59681.28 1067.62
v 1385.59 59600.94 1084.62
v 1330.80 59589.35 1084.62
v 1332.87 59579.57 1084.62
v 1387.66 59591.15 1084.62
v 1385.59 59600.94 1139.62
v 1330.80 59589.35 1139.62
v 1332.87 59579.57 1139.62
v 1387.66 59591.15 1139.62
v 1104.62 59541.51 868.62
v 1026.35 59524.95 868.62
v 1028.42 59515.17 868.62
v 1106.69 59531.73 868.62
v 1104.62 59541.51 923.62
v 1026.35 59524.95 923.62
v 1028.42 59515.17 923.62
v 1106.69 59531.73 923.62
v 1026.35 59524.95 940.62
v 1014.83 59579.76 940.62
v 1005.05 59577.70 940.62
v 1016.56 59522.90 940.62
v 1026.35 59524.95 995.62
v 1014.83 59579.76 995.62
v 1005.05 59577.70 995.62
v 1016.56 59522.90 995.62
v 1104.62 59541.51 1012.62
v 1026.35 59524.95 1012.62
v 1028.42 59515.17 1012.62
v 1106.69 59531.73 1012.62
v 1104.62 59541.51 1067.62
v 1026.35 59524.95 1067.62
v 1028.42 59515.17 1067.62
v 1106.69 59531.73 1067.62
v 1026.35 59524.95 1084.62
v 1014.83 59579.76 1084.62
v 1005.05 59577.70 1084.62
v 1016.56 59522.90 1084.62
v 1026.35 59524.95 1139.62
v 1014.83 59579.76 1139.62
v 1005.05 59577.70 1139.62
v 1016.56 59522.90 1139.62
vt -149.3972 2.3340
vt -149.2043 2.3340
vt -149.2043 2.7840
vt -149.3972 2.7840
vt -149.4387 2.3340
vt -149.2458 2.3340
vt -149.2458 2.7840
vt -149.4387 2.7840
vt -149.3702 2.3691
vt -149.2313 2.3691
vt -149.2313 2.7490
vt -149.3702 2.7490
vt -149.4117 2.3691
vt -149.2728 2.3691
vt -149.2728 2.7490
vt -149.4117 2.7490
vt -149.3972 3.1340
vt -149.2043 3.1340
vt -149.2043 3.5840
vt -149.3972 3.5840
vt -149.4387 3.1340
vt -149.2458 3.1340
vt -149.2458 3.5840
vt -149.4387 3.5840
vt -149.3702 3.1690
vt -149.2313 3.1690
vt -149.2313 3.5490
vt -149.3702 3.5490
vt -149.4117 3.1690
vt -149.2728 3.1690
vt -149.2728 3.5490
vt -149.4117 3.5490
vt -149.3972 3.9340
vt -149.2043 3.9340
vt -149.2043 4.3840
vt -149.3972 4.3840
vt -149.4387 3.9340
vt -149.2458 3.9340
vt -149.2458 4.3840
vt -149.4387 4.3840
vt -149.3702 3.9690
vt -149.2313 3.9690
vt -149.2313 4.3491
vt -149.3702 4.3491
vt -149.4117 3.9690
vt -149.2728 3.9690
vt -149.2728 4.3491
vt -149.4117 4.3491
vt -148.4410 2.3340
vt -148.1450 2.3340
vt -148.1450 2.7840
vt -148.4410 2.7840
vt -148.4140 2.3340
vt -148.1179 2.3340
vt -148.1179 2.7840
vt -148.4140 2.7840
vt -148.3996 2.3691
vt -148.1864 2.3691
vt -148.1864 2.7490
vt -148.3996 2.7490
vt -148.3725 2.3691
vt -148.1594 2.3691
vt -148.1594 2.7490
vt -148.3725 2.7490
vt -148.4410 3.1340
vt -148.1450 3.1340
vt -148.1450 3.5840
vt -148.4410 3.5840
vt -148.4140 3.1340
vt -148.1179 3.1340
vt -148.1179 3.5840
vt -148.4140 3.5840
vt -148.3996 3.1690
vt -148.1864 3.1690
vt -148.1864 3.5490
vt -148.3996 3.5490
vt -148.3725 3.1690
vt -148.1594 3.1690
vt -148.1594 3.5490
vt -148.3725 3.5490
vt -148.4410 3.9340
vt -148.1450 3.9340
vt -148.1450 4.3840
vt -148.4410 4.3840
vt -148.4140 3.9340
vt -148.1179 3.9340
vt -148.1179 4.3840
vt -148.4140 4.3840
vt -148.3996 3.9690
vt -148.1864 3.9690
vt -148.1864 4.3491
vt -148.3996 4.3491
vt -148.3725 3.9690
vt -148.1594 3.9690
vt -148.1594 4.3491
vt -148.3725 4.3491
vt -147.3701 2.3340
vt -147.0740 2.3340
vt -147.0740 2.7840
vt -147.3701 2.7840
vt -147.3430 2.3340
vt -147.0470 2.3340
vt -147.0470 2.7840
vt -147.3430 2.7840
vt -147.3286 2.3691
vt -147.1155 2.3691
vt -147.1155 2.7490
vt -147.3286 2.7490
vt -147.3016 2.3691
vt -147.0884 2.3691
vt -147.0884 2.7490
vt -147.3016 2.7490
vt -147.3701 3.1340
vt -147.0740 3.1340
vt -147.0740 3.5840
vt -147.3701 3.5840
vt -147.3430 3.1340
vt -147.0470 3.1340
vt -147.0470 3.5840
vt -147.3430 3.5840
vt -147.3286 3.1690
vt -147.1155 3.1690
vt -147.1155 3.5490
vt -147.3286 3.5490
vt -147.3016 3.1690
vt -147.0884 3.1690
vt -147.0884 3.5490
vt -147.3016 3.5490
vt -147.3701 3.9340
vt -147.0740 3.9340
vt -147.0740 4.2590
vt -147.1480 4.3673
vt -147.2961 4.3673
vt -147.3701 4.2590
vt -147.3430 3.9340
vt -147.0470 3.9340
vt -147.0470 4.2590
vt -147.1210 4.3673
vt -147.2690 4.3673
vt -147.3430 4.2590
vt -147.3286 3.9690
vt -147.1155 3.9690
vt -147.1155 4.2590
vt -147.1687 4.3370
vt -147.2753 4.3370
vt -147.3286 4.2590
vt -147.3016 3.9690
vt -147.0884 3.9690
vt -147.0884 4.2590
vt -147.1417 4.3370
vt -147.2483 4.3370
vt -147.3016 4.2590
vt -146.2991 2.3340
vt -146.0031 2.3340
vt -146.0031 2.7840
vt -146.2991 2.7840
vt -146.2721 2.3340
vt -145.9760 2.3340
vt -145.9760 2.7840
vt -146.2721 2.7840
vt -146.2577 2.3691
vt -146.0445 2.3691
vt -146.0445 2.7490
vt -146.2577 2.7490
vt -146.2306 2.3691
vt -146.0174 2.3691
vt -146.0174 2.7490
vt -146.2306 2.7490
vt -146.2991 3.1340
vt -146.0031 3.1340
vt -146.0031 3.5840
vt -146.2991 3.5840
vt -146.2721 3.1340
vt -145.9760 3.1340
vt -145.9760 3.5840
vt -146.2721 3.5840
vt -146.2577 3.1690
vt -146.0445 3.1690
vt -146.0445 3.5490
vt -146.2577 3.5490
vt -146.2306 3.1690
vt -146.0174 3.1690
vt -146.0174 3.5490
vt -146.2306 3.5490
vt -146.2991 3.9340
vt -146.0031 3.9340
vt -146.0031 4.3840
vt -146.2991 4.3840
vt -146.2721 3.9340
vt -145.9760 3.9340
vt -145.9760 4.3840
vt -146.2721 4.3840
vt -146.2577 3.9690
vt -146.0445 3.9690
vt -146.0445 4.3491
vt -146.2577 4.3491
vt -146.2306 3.9690
vt -146.0174 3.9690
vt -146.0174 4.3491
vt -146.2306 4.3491
vt -145.7782 2.3340
vt -145.9711 2.3340
vt -145.9711 2.7840
vt -145.7782 2.7840
vt -145.7368 2.3340
vt -145.9296 2.3340
vt -145.9296 2.7840
vt -145.7368 2.7840
vt -145.8053 2.3691
vt -145.9441 2.3691
vt -145.9441 2.7490
vt -145.8053 2.7490
vt -145.7637 2.3691
vt -145.9026 2.3691
vt -145.9026 2.7490
vt -145.7637 2.7490
vt -145.7782 3.1340
vt -145.9711 3.1340
vt -145.9711 3.5840
vt -145.7782 3.5840
vt -145.7368 3.1340
vt -145.9296 3.1340
vt -145.9296 3.5840
vt -145.7368 3.5840
vt -145.8053 3.1690
vt -145.9441 3.1690
vt -145.9441 3.5490
vt -145.8053 3.5490
vt -145.7637 3.1690
vt -145.9026 3.1690
vt -145.9026 3.5490
vt -145.7637 3.5490
vt -145.7782 3.9340
vt -145.9711 3.9340
vt -145.9711 4.2590
vt -145.9229 4.3673
vt -145.8264 4.3673
vt -145.7782 4.2590
vt -145.7368 3.9340
vt -145.9296 3.9340
vt -145.9296 4.2590
vt -145.8814 4.3673
vt -145.7850 4.3673
vt -145.7368 4.2590
vt -145.8053 3.9690
vt -145.9441 3.9690
vt -145.9441 4.2590
vt -145.9094 4.3370
vt -145.8400 4.3370
vt -145.8053 4.2590
vt -145.7637 3.9690
vt -145.9026 3.9690
vt -145.9026 4.2590
vt -145.8679 4.3370
vt -145.7985 4.3370
vt -145.7637 4.2590
vt -146.7344 2.3340
vt -147.0305 2.3340
vt -147.0305 2.7840
vt -146.7344 2.7840
vt -146.7614 2.3340
vt -147.0575 2.3340
vt -147.0575 2.7840
vt -146.7614 2.7840
vt -146.7758 2.3691
vt -146.9890 2.3691
vt -146.9890 2.7490
vt -146.7758 2.7490
vt -146.8029 2.3691
vt -147.0161 2.3691
vt -147.0161 2.7490
vt -146.8029 2.7490
vt -146.7344 3.1340
vt -147.0305 3.1340
vt -147.0305 3.5840
vt -146.7344 3.5840
vt -146.7614 3.1340
vt -147.0575 3.1340
vt -147.0575 3.5840
vt -146.7614 3.5840
vt -146.7758 3.1690
vt -146.9890 3.1690
vt -146.9890 3.5490
vt -146.7758 3.5490
vt -146.8029 3.1690
vt -147.0161 3.1690
vt -147.0161 3.5490
vt -146.8029 3.5490
vt -146.7344 3.9340
vt -147.0305 3.9340
vt -147.0305 4.3840
vt -146.7344 4.3840
vt -146.7614 3.9340
vt -147.0575 3.9340
vt -147.0575 4.3840
vt -146.7614 4.3840
vt -146.7758 3.9690
vt -146.9890 3.9690
vt -146.9890 4.3491
vt -146.7758 4.3491
vt -146.8029 3.9690
vt -147.0161 3.9690
vt -147.0161 4.3491
vt -146.8029 4.3491
vt -147.8054 3.1340
vt -148.1014 3.1340
vt -148.1014 3.4590
vt -148.0274 3.5673
vt -147.8794 3.5673
vt -147.8054 3.4590
vt -147.8324 3.1340
vt -148.1285 3.1340
vt -148.1285 3.4590
vt -148.0545 3.5673
vt -147.9064 3.5673
vt -147.8324 3.4590
vt -147.8468 3.1690
vt -148.0600 3.1690
vt -148.0600 3.4590
vt -148.0067 3.5370
vt -147.9001 3.5370
vt -147.8468 3.4590
vt -147.8739 3.1690
vt -148.0870 3.1690
vt -148.0870 3.4590
vt -148.0337 3.5370
vt -147.9272 3.5370
vt -147.8739 3.4590
vt -147.8054 3.9340
vt -148.1014 3.9340
vt -148.1014 4.3840
vt -147.8054 4.3840
vt -147.8324 3.9340
vt -148.1285 3.9340
vt -148.1285 4.3840
vt -147.8324 4.3840
vt -147.8468 3.9690
vt -148.0600 3.9690
vt -148.0600 4.3491
vt -147.8468 4.3491
vt -147.8739 3.9690
vt -148.0870 3.9690
vt -148.0870 4.3491
vt -147.8739 4.3491
vt -148.8763 2.3340
vt -149.1723 2.3340
vt -149.1723 2.7840
vt -148.8763 2.7840
vt -148.9034 2.3340
vt -149.1994 2.3340
vt -149.1994 2.7840
vt -148.9034 2.7840
vt -148.9178 2.3691
vt -149.1309 2.3691
vt -149.1309 2.7490
vt -148.9178 2.7490
vt -148.9448 2.3691
vt -149.1580 2.3691
vt -149.1580 2.7490
vt -148.9448 2.7490
vt -148.8763 3.1340
vt -149.1723 3.1340
vt -149.1723 3.5840
vt -148.8763 3.5840
vt -148.9034 3.1340
vt -149.1994 3.1340
vt -149.1994 3.5840
vt -148.9034 3.5840
vt -148.9178 3.1690
vt -149.1309 3.1690
vt -149.1309 3.5490
vt -148.9178 3.5490
vt -148.9448 3.1690
vt -149.1580 3.1690
vt -149.1580 3.5490
vt -148.9448 3.5490
vt -148.8763 3.9340
vt -149.1723 3.9340
vt -149.1723 4.2590
vt -149.0983 4.3673
vt -148.9503 4.3673
vt -148.8763 4.2590
vt -148.9034 3.9340
vt -149.1994 3.9340
vt -149.1994 4.2590
vt -149.1254 4.3673
vt -148.9774 4.3673
vt -148.9034 4.2590
vt -148.9178 3.9690
vt -149.1309 3.9690
vt -149.1309 4.2590
vt -149.0776 4.3370
vt -148.9710 4.3370
vt -148.9178 4.2590
vt -148.9448 3.9690
vt -149.1580 3.9690
vt -149.1580 4.2590
vt -149.1047 4.3370
vt -148.9981 4.3370
vt -148.9448 4.2590
vt -147.7757 2.1090
vt -148.1310 2.1090
vt -148.1310 2.5341
vt -148.0422 2.6639
vt -147.8646 2.6639
vt -147.7757 2.5341
vt -147.8144 2.1090
vt -148.1697 2.1090
vt -148.1697 2.5341
vt -148.0808 2.6639
vt -147.9032 2.6639
vt -147.8144 2.5341
vt -147.8290 2.1540
vt -148.0777 2.1540
vt -148.0777 2.5341
vt -148.0155 2.6250
vt -147.8912 2.6250
vt -147.8290 2.5341
vt -147.8677 2.1540
vt -148.1164 2.1540
vt -148.1164 2.5341
vt -148.0542 2.6250
vt -147.9299 2.6250
vt -147.8677 2.5341
vt -147.7165 2.0991
vt -148.1902 2.0991
vt -148.2405 2.0991
vt -147.7668 2.0991
vt -147.7165 2.1391
vt -148.1902 2.1391
vt -148.2405 2.1391
vt -147.7668 2.1391
vt -149.6957 5.0340
vt -148.9413 5.0340
vt -145.4797 5.0340
vt -146.2341 5.0340
vt -149.6957 5.0690
vt -148.9413 5.0690
vt -145.4797 5.0690
vt -146.2341 5.0690
vt -149.6370 5.0340
vt -148.9289 5.0340
vt -145.5384 5.0340
vt -146.2465 5.0340
vt -149.6370 5.0690
vt -148.9289 5.0690
vt -145.5384 5.0690
vt -146.2465 5.0690
vt -149.7446 4.9790
vt -148.9516 4.9790
vt -145.4308 4.9790
vt -146.2238 4.9790
vt -149.7446 5.0490
vt -148.9516 5.0490
vt -145.4308 5.0490
vt -146.2238 5.0490
vt -149.6370 4.9790
vt -148.9289 4.9790
vt -145.5384 4.9790
vt -146.2465 4.9790
vt -149.6370 5.0490
vt -148.9289 5.0490
vt -145.5384 5.0490
vt -146.2465 5.0490
vt -149.7152 5.1240
vt -148.9454 5.1240
vt -145.4601 5.1240
vt -146.2300 5.1240
vt -149.7152 5.2990
vt -148.9454 5.2990
vt -145.4601 5.2990
vt -146.2300 5.2990
vt -149.4611 5.1240
vt -148.8918 5.1240
vt -145.7144 5.1240
vt -146.2836 5.1240
vt -149.4611 5.2990
vt -148.8918 5.2990
vt -145.7144 5.2990
vt -146.2836 5.2990
vt -149.0832 2.1715
vt -148.9289 2.1715
vt -148.9585 2.1715
vt -149.1128 2.1715
vt -149.0832 2.3091
vt -148.9289 2.3091
vt -148.9585 2.3091
vt -149.1128 2.3091
vt -148.9289 2.3516
vt -148.7631 2.3516
vt -148.7438 2.3516
vt -148.9096 2.3516
vt -148.9289 2.4891
vt -148.7631 2.4891
vt -148.7438 2.4891
vt -148.9096 2.4891
vt -149.0832 2.5316
vt -148.9289 2.5316
vt -148.9585 2.5316
vt -149.1128 2.5316
vt -149.0832 2.6690
vt -148.9289 2.6690
vt -148.9585 2.6690
vt -149.1128 2.6690
vt -148.9289 2.7115
vt -148.7631 2.7115
vt -148.7438 2.7115
vt -148.9096 2.7115
vt -148.9289 2.8490
vt -148.7631 2.8490
vt -148.7438 2.8490
vt -148.9096 2.8490
vt -149.4002 2.1715
vt -149.6370 2.1715
vt -149.6564 2.1715
vt -149.4195 2.1715
vt -149.4002 2.3091
vt -149.6370 2.3091
vt -149.6564 2.3091
vt -149.4195 2.3091
vt -149.6370 2.3516
vt -149.5291 2.3516
vt -149.5587 2.3516
vt -149.6667 2.3516
vt -149.6370 2.4891
vt -149.5291 2.4891
vt -149.5587 2.4891
vt -149.6667 2.4891
vt -149.4002 2.5316
vt -149.6370 2.5316
vt -149.6564 2.5316
vt -149.4195 2.5316
vt -149.4002 2.6690
vt -149.6370 2.6690
vt -149.6564 2.6690
vt -149.4195 2.6690
vt -149.6370 2.7115
vt -149.5291 2.7115
vt -149.5587 2.7115
vt -149.6667 2.7115
vt -149.6370 2.8490
vt -149.5291 2.8490
vt -149.5587 2.8490
vt -149.6667 2.8490
vt -145.7752 2.1715
vt -145.5384 2.1715
vt -145.5190 2.1715
vt -145.7559 2.1715
vt -145.7752 2.3091
vt -145.5384 2.3091
vt -145.5190 2.3091
vt -145.7559 2.3091
vt -145.5384 2.3516
vt -145.6464 2.3516
vt -145.6167 2.3516
vt -145.5087 2.3516
vt -145.5384 2.4891
vt -145.6464 2.4891
vt -145.6167 2.4891
vt -145.5087 2.4891
vt -145.7752 2.5316
vt -145.5384 2.5316
vt -145.5190 2.5316
vt -145.7559 2.5316
vt -145.7752 2.6690
vt -145.5384 2.6690
vt -145.5190 2.6690
vt -145.7559 2.6690
vt -145.5384 2.7115
vt -145.6464 2.7115
vt -145.6167 2.7115
vt -145.5087 2.7115
vt -145.5384 2.8490
vt -145.6464 2.8490
vt -145.6167 2.8490
vt -145.5087 2.8490
vt -146.0922 2.1715
vt -146.2465 2.1715
vt -146.2169 2.1715
vt -146.0626 2.1715
vt -146.0922 2.3091
vt -146.2465 2.3091
vt -146.2169 2.3091
vt -146.0626 2.3091
vt -146.2465 2.3516
vt -146.4123 2.3516
vt -146.4316 2.3516
vt -146.2659 2.3516
vt -146.2465 2.4891
vt -146.4123 2.4891
vt -146.4316 2.4891
vt -146.2659 2.4891
vt -146.0922 2.5316
vt -146.2465 2.5316
vt -146.2169 2.5316
vt -146.0626 2.5316
vt -146.0922 2.6690
vt -146.2465 2.6690
vt -146.2169 2.6690
vt -146.0626 2.6690
vt -146.2465 2.7115
vt -146.4123 2.7115
vt -146.4316 2.7115
vt -146.2659 2.7115
vt -146.2465 2.8490
vt -146.4123 2.8490
vt -146.4316 2.8490
vt -146.2659 2.8490
vn 0.0000 -0.0000 -1.0000
vn 0.0000 -0.0000 1.0000
vn -0.2069 0.9784 -0.0000
vn 0.2069 -0.9784 -0.0000
vn 0.9784 0.2069 0.0000
vn -0.9784 -0.2069 0.0000
vn 0.9786 0.2056 0.0000
vn -0.9786 -0.2056 0.0000
vn 0.2056 -0.9786 -0.0000
vn -0.2056 0.9786 -0.0000
vn 0.1781 -0.8475 0.5000
vn -0.1781 0.8475 -0.5000
vn -0.1781 0.8475 0.5000
vn 0.1781 -0.8475 -0.5000
vn -0.8473 -0.1792 0.5000
vn 0.8473 0.1792 -0.5000
vn 0.8473 0.1792 0.5000
vn -0.8473 -0.1792 -0.5000
f 1/1/1 6/6/1 2/2/1
f 1/1/1 5/5/1 6/6/1
f 10/10/2 13/13/2 9/9/2
f 10/10/2 14/14/2 13/13/2
f 5/5/3 14/14/3 6/6/3
f 5/5/3 13/13/3 14/14/3
f 2/2/4 9/9/4 1/1/4
f 2/2/4 10/10/4 9/9/4
f 2/2/5 7/7/5 3/3/5
f 2/2/5 6/6/5 7/7/5
f 11/11/6 14/14/6 10/10/6
f 11/11/6 15/15/6 14/14/6
f 6/6/3 15/15/3 7/7/3
f 6/6/3 14/14/3 15/15/3
f 3/3/4 10/10/4 2/2/4
f 3/3/4 11/11/4 10/10/4
f 3/3/2 8/8/2 4/4/2
f 3/3/2 7/7/2 8/8/2
f 12/12/1 15/15/1 11/11/1
f 12/12/1 16/16/1 15/15/1
f 7/7/3 16/16/3 8/8/3
f 7/7/3 15/15/3 16/16/3
f 4/4/4 11/11/4 3/3/4
f 4/4/4 12/12/4 11/11/4
f 4/4/6 5/5/6 1/1/6
f 4/4/6 8/8/6 5/5/6
f 9/9/5 16/16/5 12/12/5
f 9/9/5 13/13/5 16/16/5
f 8/8/3 13/13/3 5/5/3
f 8/8/3 16/16/3 13/13/3
f 1/1/4 12/12/4 4/4/4
f 1/1/4 9/9/4 12/12/4
f 17/17/1 22/22/1 18/18/1
f 17/17/1 21/21/1 22/22/1
f 26/26/2 29/29/2 25/25/2
f 26/26/2 30/30/2 29/29/2
f 21/21/3 30/30/3 22/22/3
f 21/21/3 29/29/3 30/30/3
f 18/18/4 25/25/4 17/17/4
f 18/18/4 26/26/4 25/25/4
f 18/18/5 23/23/5 19/19/5
f 18/18/5 22/22/5 23/23/5
f 27/27/6 30/30/6 26/26/6
f 27/27/6 31/31/6 30/30/6
f 22/22/3 31/31/3 23/23/3
f 22/22/3 30/30/3 31/31/3
f 19/19/4 26/26/4 18/18/4
f 19/19/4 27/27/4 26/26/4
f 19/19/2 24/24/2 20/20/2
f 19/19/2 23/23/2 24/24/2
f 28/28/1 31/31/1 27/27/1
f 28/28/1 32/32/1 31/31/1
f 23/23/3 32/32/3 24/24/3
f 23/23/3 31/31/3 32/32/3
f 20/20/4 27/27/4 19/19/4
f 20/20/4 28/28/4 27/27/4
f 20/20/6 21/21/6 17/17/6
f 20/20/6 24/24/6 21/21/6
f 25/25/5 32/32/5 28/28/5
f 25/25/5 29/29/5 32/32/5
f 24/24/3 29/29/3 21/21/3
f 24/24/3 32/32/3 29/29/3
f 17/17/4 28/28/4 20/20/4
f 17/17/4 25/25/4 28/28/4
f 33/33/1 38/38/1 34/34/1
f 33/33/1 37/37/1 38/38/1
f 42/42/2 45/45/2 41/41/2
f 42/42/2 46/46/2 45/45/2
f 37/37/3 46/46/3 38/38/3
f 37/37/3 45/45/3 46/46/3
f 34/34/4 41/41/4 33/33/4
f 34/34/4 42/42/4 41/41/4
f 34/34/5 39/39/5 35/35/5
f 34/34/5 38/38/5 39/39/5
f 43/43/6 46/46/6 42/42/6
f 43/43/6 47/47/6 46/46/6
f 38/38/3 47/47/3 39/39/3
f 38/38/3 46/46/3 47/47/3
f 35/35/4 42/42/4 34/34/4
f 35/35/4 43/43/4 42/42/4
f 35/35/2 40/40/2 36/36/2
f 35/35/2 39/39/2 40/40/2
f 44/44/1 47/47/1 43/43/1
f 44/44/1 48/48/1 47/47/1
f 39/39/3 48/48/3 40/40/3
f 39/39/3 47/47/3 48/48/3
f 36/36/4 43/43/4 35/35/4
f 36/36/4 44/44/4 43/43/4
f 36/36/6 37/37/6 33/33/6
f 36/36/6 40/40/6 37/37/6
f 41/41/5 48/48/5 44/44/5
f 41/41/5 45/45/5 48/48/5
f 40/40/3 45/45/3 37/37/3
f 40/40/3 48/48/3 45/45/3
f 33/33/4 44/44/4 36/36/4
f 33/33/4 41/41/4 44/44/4
f 49/49/1 54/54/1 50/50/1
f 49/49/1 53/53/1 54/54/1
f 58/58/2 61/61/2 57/57/2
f 58/58/2 62/62/2 61/61/2
f 53/53/7 62/62/7 54/54/7
f 53/53/7 61/61/7 62/62/7
f 50/50/8 57/57/8 49/49/8
f 50/50/8 58/58/8 57/57/8
f 50/50/9 55/55/9 51/51/9
f 50/50/9 54/54/9 55/55/9
f 59/59/10 62/62/10 58/58/10
f 59/59/10 63/63/10 62/62/10
f 54/54/7 63/63/7 55/55/7
f 54/54/7 62/62/7 63/63/7
f 51/51/8 58/58/8 50/50/8
f 51/51/8 59/59/8 58/58/8
f 51/51/2 56/56/2 52/52/2
f 51/51/2 55/55/2 56/56/2
f 60/60/1 63/63/1 59/59/1
f 60/60/1 64/64/1 63/63/1
f 55/55/7 64/64/7 56/56/7
f 55/55/7 63/63/7 64/64/7
f 52/52/8 59/59/8 51/51/8
f 52/52/8 60/60/8 59/59/8
f 52/52/10 53/53/10 49/49/10
f 52/52/10 56/56/10 53/53/10
f 57/57/9 64/64/9 60/60/9
f 57/57/9 61/61/9 64/64/9
f 56/56/7 61/61/7 53/53/7
f 56/56/7 64/64/7 61/61/7
f 49/49/8 60/60/8 52/52/8
f 49/49/8 57/57/8 60/60/8
f 65/65/1 70/70/1 66/66/1
f 65/65/1 69/69/1 70/70/1
f 74/74/2 77/77/2 73/73/2
f 74/74/2 78/78/2 77/77/2
f 69/69/7 78/78/7 70/70/7
f 69/69/7 77/77/7 78/78/7
f 66/66/8 73/73/8 65/65/8
f 66/66/8 74/74/8 73/73/8
f 66/66/9 71/71/9 67/67/9
f 66/66/9 70/70/9 71/71/9
f 75/75/10 78/78/10 74/74/10
f 75/75/10 79/79/10 78/78/10
f 70/70/7 79/79/7 71/71/7
f 70/70/7 78/78/7 79/79/7
f 67/67/8 74/74/8 66/66/8
f 67/67/8 75/75/8 74/74/8
f 67/67/2 72/72/2 68/68/2
f 67/67/2 71/71/2 72/72/2
f 76/76/1 79/79/1 75/75/1
f 76/76/1 80/80/1 79/79/1
f 71/71/7 80/80/7 72/72/7
f 71/71/7 79/79/7 80/80/7
f 68/68/8 75/75/8 67/67/8
f 68/68/8 76/76/8 75/75/8
f 68/68/10 69/69/10 65/65/10
f 68/68/10 72/72/10 69/69/10
f 73/73/9 80/80/9 76/76/9
f 73/73/9 77/77/9 80/80/9
f 72/72/7 77/77/7 69/69/7
f 72/72/7 80/80/7 77/77/7
f 65/65/8 76/76/8 68/68/8
f 65/65/8 73/73/8 76/76/8
f 81/81/1 86/86/1 82/82/1
f 81/81/1 85/85/1 86/86/1
f 90/90/2 93/93/2 89/89/2
f 90/90/2 94/94/2 93/93/2
f 85/85/7 94/94/7 86/86/7
f 85/85/7 93/93/7 94/94/7
f 82/82/8 89/89/8 81/81/8
f 82/82/8 90/90/8 89/89/8
f 82/82/9 87/87/9 83/83/9
f 82/82/9 86/86/9 87/87/9
f 91/91/10 94/94/10 90/90/10
f 91/91/10 95/95/10 94/94/10
f 86/86/7 95/95/7 87/87/7
f 86/86/7 94/94/7 95/95/7
f 83/83/8 90/90/8 82/82/8
f 83/83/8 91/91/8 90/90/8
f 83/83/2 88/88/2 84/84/2
f 83/83/2 87/87/2 88/88/2
f 92/92/1 95/95/1 91/91/1
f 92/92/1 96/96/1 95/95/1
f 87/87/7 96/96/7 88/88/7
f 87/87/7 95/95/7 96/96/7
f 84/84/8 91/91/8 83/83/8
f 84/84/8 92/92/8 91/91/8
f 84/84/10 85/85/10 81/81/10
f 84/84/10 88/88/10 85/85/10
f 89/89/9 96/96/9 92/92/9
f 89/89/9 93/93/9 96/96/9
f 88/88/7 93/93/7 85/85/7
f 88/88/7 96/96/7 93/93/7
f 81/81/8 92/92/8 84/84/8
f 81/81/8 89/89/8 92/92/8
f 97/97/1 102/102/1 98/98/1
f 97/97/1 101/101/1 102/102/1
f 106/106/2 109/109/2 105/105/2
f 106/106/2 110/110/2 109/109/2
f 101/101/7 110/110/7 102/102/7
f 101/101/7 109/109/7 110/110/7
f 98/98/8 105/105/8 97/97/8
f 98/98/8 106/106/8 105/105/8
f 98/98/9 103/103/9 99/99/9
f 98/98/9 102/102/9 103/103/9
f 107/107/10 110/110/10 106/106/10
f 107/107/10 111/111/10 110/110/10
f 102/102/7 111/111/7 103/103/7
f 102/102/7 110/110/7 111/111/7
f 99/99/8 106/106/8 98/98/8
f 99/99/8 107/107/8 106/106/8
f 99/99/2 104/104/2 100/100/2
f 99/99/2 103/103/2 104/104/2
f 108/108/1 111/111/1 107/107/1
f 108/108/1 112/112/1 111/111/1
f 103/103/7 112/112/7 104/104/7
f 103/103/7 111/111/7 112/112/7
f 100/100/8 107/107/8 99/99/8
f 100/100/8 108/108/8 107/107/8
f 100/100/10 101/101/10 97/97/10
f 100/100/10 104/104/10 101/101/10
f 105/105/9 112/112/9 108/108/9
f 105/105/9 109/109/9 112/112/9
f 104/104/7 109/109/7 101/101/7
f 104/104/7 112/112/7 109/109/7
f 97/97/8 108/108/8 100/100/8
f 97/97/8 105/105/8 108/108/8
f 113/113/1 118/118/1 114/114/1
f 113/113/1 117/117/1 118/118/1
f 122/122/2 125/125/2 121/121/2
f 122/122/2 126/126/2 125/125/2
f 117/117/7 126/126/7 118/118/7
f 117/117/7 125/125/7 126/126/7
f 114/114/8 121/121/8 113/113/8
f 114/114/8 122/122/8 121/121/8
f 114/114/9 119/119/9 115/115/9
f 114/114/9 118/118/9 119/119/9
f 123/123/10 126/126/10 122/122/10
f 123/123/10 127/127/10 126/126/10
f 118/118/7 127/127/7 119/119/7
f 118/118/7 126/126/7 127/127/7
f 115/115/8 122/122/8 114/114/8
f 115/115/8 123/123/8 122/122/8
f 115/115/2 120/120/2 116/116/2
f 115/115/2 119/119/2 120/120/2
f 124/124/1 127/127/1 123/123/1
f 124/124/1 128/128/1 127/127/1
f 119/119/7 128/128/7 120/120/7
f 119/119/7 127/127/7 128/128/7
f 116/116/8 123/123/8 115/115/8
f 116/116/8 124/124/8 123/123/8
f 116/116/10 117/117/10 113/113/10
f 116/116/10 120/120/10 117/117/10
f 121/121/9 128/128/9 124/124/9
f 121/121/9 125/125/9 128/128/9
f 120/120/7 125/125/7 117/117/7
f 120/120/7 128/128/7 125/125/7
f 113/113/8 124/124/8 116/116/8
f 113/113/8 121/121/8 124/124/8
f 129/129/1 136/136/1 130/130/1
f 129/129/1 135/135/1 136/136/1
f 142/142/2 147/147/2 141/141/2
f 142/142/2 148/148/2 147/147/2
f 135/135/7 148/148/7 136/136/7
f 135/135/7 147/147/7 148/148/7
f 130/130/8 141/141/8 129/129/8
f 130/130/8 142/142/8 141/141/8
f 130/130/9 137/137/9 131/131/9
f 130/130/9 136/136/9 137/137/9
f 143/143/10 148/148/10 142/142/10
f 143/143/10 149/149/10 148/148/10
f 136/136/7 149/149/7 137/137/7
f 136/136/7 148/148/7 149/149/7
f 131/131/8 142/142/8 130/130/8
f 131/131/8 143/143/8 142/142/8
f 131/131/11 138/138/11 132/132/11
f 131/131/11 137/137/11 138/138/11
f 144/144/12 149/149/12 143/143/12
f 144/144/12 150/150/12 149/149/12
f 137/137/7 150/150/7 138/138/7
f 137/137/7 149/149/7 150/150/7
f 132/132/8 143/143/8 131/131/8
f 132/132/8 144/144/8 143/143/8
f 132/132/2 139/139/2 133/133/2
f 132/132/2 138/138/2 139/139/2
f 145/145/1 150/150/1 144/144/1
f 145/145/1 151/151/1 150/150/1
f 138/138/7 151/151/7 139/139/7
f 138/138/7 150/150/7 151/151/7
f 133/133/8 144/144/8 132/132/8
f 133/133/8 145/145/8 144/144/8
f 133/133/13 140/140/13 134/134/13
f 133/133/13 139/139/13 140/140/13
f 146/146/14 151/151/14 145/145/14
f 146/146/14 152/152/14 151/151/14
f 139/139/7 152/152/7 140/140/7
f 139/139/7 151/151/7 152/152/7
f 134/134/8 145/145/8 133/133/8
f 134/134/8 146/146/8 145/145/8
f 134/134/10 135/135/10 129/129/10
f 134/134/10 140/140/10 135/135/10
f 141/141/9 152/152/9 146/146/9
f 141/141/9 147/147/9 152/152/9
f 140/140/7 147/147/7 135/135/7
f 140/140/7 152/152/7 147/147/7
f 129/129/8 146/146/8 134/134/8
f 129/129/8 141/141/8 146/146/8
f 153/153/1 158/158/1 154/154/1
f 153/153/1 157/157/1 158/158/1
f 162/162/2 165/165/2 161/161/2
f 162/162/2 166/166/2 165/165/2
f 157/157/7 166/166/7 158/158/7
f 157/157/7 165/165/7 166/166/7
f 154/154/8 161/161/8 153/153/8
f 154/154/8 162/162/8 161/161/8
f 154/154/9 159/159/9 155/155/9
f 154/154/9 158/158/9 159/159/9
f 163/163/10 166/166/10 162/162/10
f 163/163/10 167/167/10 166/166/10
f 158/158/7 167/167/7 159/159/7
f 158/158/7 166/166/7 167/167/7
f 155/155/8 162/162/8 154/154/8
f 155/155/8 163/163/8 162/162/8
f 155/155/2 160/160/2 156/156/2
f 155/155/2 159/159/2 160/160/2
f 164/164/1 167/167/1 163/163/1
f 164/164/1 168/168/1 167/167/1
f 159/159/7 168/168/7 160/160/7
f 159/159/7 167/167/7 168/168/7
f 156/156/8 163/163/8 155/155/8
f 156/156/8 164/164/8 163/163/8
f 156/156/10 157/157/10 153/153/10
f 156/156/10 160/160/10 157/157/10
f 161/161/9 168/168/9 164/164/9
f 161/161/9 165/165/9 168/168/9
f 160/160/7 165/165/7 157/157/7
f 160/160/7 168/168/7 165/165/7
f 153/153/8 164/164/8 156/156/8
f 153/153/8 161/161/8 164/164/8
f 169/169/1 174/174/1 170/170/1
f 169/169/1 173/173/1 174/174/1
f 178/178/2 181/181/2 177/177/2
f 178/178/2 182/182/2 181/181/2
f 173/173/7 182/182/7 174/174/7
f 173/173/7 181/181/7 182/182/7
f 170/170/8 177/177/8 169/169/8
f 170/170/8 178/178/8 177/177/8
f 170/170/9 175/175/9 171/171/9
f 170/170/9 174/174/9 175/175/9
f 179/179/10 182/182/10 178/178/10
f 179/179/10 183/183/10 182/182/10
f 174/174/7 183/183/7 175/175/7
f 174/174/7 182/182/7 183/183/7
f 171/171/8 178/178/8 170/170/8
f 171/171/8 179/179/8 178/178/8
f 171/171/2 176/176/2 172/172/2
f 171/171/2 175/175/2 176/176/2
f 180/180/1 183/183/1 179/179/1
f 180/180/1 184/184/1 183/183/1
f 175/175/7 184/184/7 176/176/7
f 175/175/7 183/183/7 184/184/7
f 172/172/8 179/179/8 171/171/8
f 172/172/8 180/180/8 179/179/8
f 172/172/10 173/173/10 169/169/10
f 172/172/10 176/176/10 173/173/10
f 177/177/9 184/184/9 180/180/9
f 177/177/9 181/181/9 184/184/9
f 176/176/7 181/181/7 173/173/7
f 176/176/7 184/184/7 181/181/7
f 169/169/8 180/180/8 172/172/8
f 169/169/8 177/177/8 180/180/8
f 185/185/1 190/190/1 186/186/1
f 185/185/1 189/189/1 190/190/1
f 194/194/2 197/197/2 193/193/2
f 194/194/2 198/198/2 197/197/2
f 189/189/7 198/198/7 190/190/7
f 189/189/7 197/197/7 198/198/7
f 186/186/8 193/193/8 185/185/8
f 186/186/8 194/194/8 193/193/8
f 186/186/9 191/191/9 187/187/9
f 186/186/9 190/190/9 191/191/9
f 195/195/10 198/198/10 194/194/10
f 195/195/10 199/199/10 198/198/10
f 190/190/7 199/199/7 191/191/7
f 190/190/7 198/198/7 199/199/7
f 187/187/8 194/194/8 186/186/8
f 187/187/8 195/195/8 194/194/8
f 187/187/2 192/192/2 188/188/2
f 187/187/2 191/191/2 192/192/2
f 196/196/1 199/199/1 195/195/1
f 196/196/1 200/200/1 199/199/1
f 191/191/7 200/200/7 192/192/7
f 191/191/7 199/199/7 200/200/7
f 188/188/8 195/195/8 187/187/8
f 188/188/8 196/196/8 195/195/8
f 188/188/10 189/189/10 185/185/10
f 188/188/10 192/192/10 189/189/10
f 193/193/9 200/200/9 196/196/9
f 193/193/9 197/197/9 200/200/9
f 192/192/7 197/197/7 189/189/7
f 192/192/7 200/200/7 197/197/7
f 185/185/8 196/196/8 188/188/8
f 185/185/8 193/193/8 196/196/8
f 201/201/1 206/206/1 202/202/1
f 201/201/1 205/205/1 206/206/1
f 210/210/2 213/213/2 209/209/2
f 210/210/2 214/214/2 213/213/2
f 205/205/4 214/214/4 206/206/4
f 205/205/4 213/213/4 214/214/4
f 202/202/3 209/209/3 201/201/3
f 202/202/3 210/210/3 209/209/3
f 202/202/6 207/207/6 203/203/6
f 202/202/6 206/206/6 207/207/6
f 211/211/5 214/214/5 210/210/5
f 211/211/5 215/215/5 214/214/5
f 206/206/4 215/215/4 207/207/4
f 206/206/4 214/214/4 215/215/4
f 203/203/3 210/210/3 202/202/3
f 203/203/3 211/211/3 210/210/3
f 203/203/2 208/208/2 204/204/2
f 203/203/2 207/207/2 208/208/2
f 212/212/1 215/215/1 211/211/1
f 212/212/1 216/216/1 215/215/1
f 207/207/4 216/216/4 208/208/4
f 207/207/4 215/215/4 216/216/4
f 204/204/3 211/211/3 203/203/3
f 204/204/3 212/212/3 211/211/3
f 204/204/5 205/205/5 201/201/5
f 204/204/5 208/208/5 205/205/5
f 209/209/6 216/216/6 212/212/6
f 209/209/6 213/213/6 216/216/6
f 208/208/4 213/213/4 205/205/4
f 208/208/4 216/216/4 213/213/4
f 201/201/3 212/212/3 204/204/3
f 201/201/3 209/209/3 212/212/3
f 217/217/1 222/222/1 218/218/1
f 217/217/1 221/221/1 222/222/1
f 226/226/2 229/229/2 225/225/2
f 226/226/2 230/230/2 229/229/2
f 221/221/4 230/230/4 222/222/4
f 221/221/4 229/229/4 230/230/4
f 218/218/3 225/225/3 217/217/3
f 218/218/3 226/226/3 225/225/3
f 218/218/6 223/223/6 219/219/6
f 218/218/6 222/222/6 223/223/6
f 227/227/5 230/230/5 226/226/5
f 227/227/5 231/231/5 230/230/5
f 222/222/4 231/231/4 223/223/4
f 222/222/4 230/230/4 231/231/4
f 219/219/3 226/226/3 218/218/3
f 219/219/3 227/227/3 226/226/3
f 219/219/2 224/224/2 220/220/2
f 219/219/2 223/223/2 224/224/2
f 228/228/1 231/231/1 227/227/1
f 228/228/1 232/232/1 231/231/1
f 223/223/4 232/232/4 224/224/4
f 223/223/4 231/231/4 232/232/4
f 220/220/3 227/227/3 219/219/3
f 220/220/3 228/228/3 227/227/3
f 220/220/5 221/221/5 217/217/5
f 220/220/5 224/224/5 221/221/5
f 225/225/6 232/232/6 228/228/6
f 225/225/6 229/229/6 232/232/6
f 224/224/4 229/229/4 221/221/4
f 224/224/4 232/232/4 229/229/4
f 217/217/3 228/228/3 220/220/3
f 217/217/3 225/225/3 228/228/3
f 233/233/1 240/240/1 234/234/1
f 233/233/1 239/239/1 240/240/1
f 246/246/2 251/251/2 245/245/2
f 246/246/2 252/252/2 251/251/2
f 239/239/4 252/252/4 240/240/4
f 239/239/4 251/251/4 252/252/4
f 234/234/3 245/245/3 233/233/3
f 234/234/3 246/246/3 245/245/3
f 234/234/6 241/241/6 235/235/6
f 234/234/6 240/240/6 241/241/6
f 247/247/5 252/252/5 246/246/5
f 247/247/5 253/253/5 252/252/5
f 240/240/4 253/253/4 241/241/4
f 240/240/4 252/252/4 253/253/4
f 235/235/3 246/246/3 234/234/3
f 235/235/3 247/247/3 246/246/3
f 235/235/15 242/242/15 236/236/15
f 235/235/15 241/241/15 242/242/15
f 248/248/16 253/253/16 247/247/16
f 248/248/16 254/254/16 253/253/16
f 241/241/4 254/254/4 242/242/4
f 241/241/4 253/253/4 254/254/4
f 236/236/3 247/247/3 235/235/3
f 236/236/3 248/248/3 247/247/3
f 236/236/2 243/243/2 237/237/2
f 236/236/2 242/242/2 243/243/2
f 249/249/1 254/254/1 248/248/1
f 249/249/1 255/255/1 254/254/1
f 242/242/4 255/255/4 243/243/4
f 242/242/4 254/254/4 255/255/4
f 237/237/3 248/248/3 236/236/3
f 237/237/3 249/249/3 248/248/3
f 237/237/17 244/244/17 238/238/17
f 237/237/17 243/243/17 244/244/17
f 250/250/18 255/255/18 249/249/18
f 250/250/18 256/256/18 255/255/18
f 243/243/4 256/256/4 244/244/4
f 243/243/4 255/255/4 256/256/4
f 238/238/3 249/249/3 237/237/3
f 238/238/3 250/250/3 249/249/3
f 238/238/5 239/239/5 233/233/5
f 238/238/5 244/244/5 239/239/5
f 245/245/6 256/256/6 250/250/6
f 245/245/6 251/251/6 256/256/6
f 244/244/4 251/251/4 239/239/4
f 244/244/4 256/256/4 251/251/4
f 233/233/3 250/250/3 238/238/3
f 233/233/3 245/245/3 250/250/3
f 257/257/1 262/262/1 258/258/1
f 257/257/1 261/261/1 262/262/1
f 266/266/2 269/269/2 265/265/2
f 266/266/2 270/270/2 269/269/2
f 261/261/8 270/270/8 262/262/8
f 261/261/8 269/269/8 270/270/8
f 258/258/7 265/265/7 257/257/7
f 258/258/7 266/266/7 265/265/7
f 258/258/10 263/263/10 259/259/10
f 258/258/10 262/262/10 263/263/10
f 267/267/9 270/270/9 266/266/9
f 267/267/9 271/271/9 270/270/9
f 262/262/8 271/271/8 263/263/8
f 262/262/8 270/270/8 271/271/8
f 259/259/7 266/266/7 258/258/7
f 259/259/7 267/267/7 266/266/7
f 259/259/2 264/264/2 260/260/2
f 259/259/2 263/263/2 264/264/2
f 268/268/1 271/271/1 267/267/1
f 268/268/1 272/272/1 271/271/1
f 263/263/8 272/272/8 264/264/8
f 263/263/8 271/271/8 272/272/8
f 260/260/7 267/267/7 259/259/7
f 260/260/7 268/268/7 267/267/7
f 260/260/9 261/261/9 257/257/9
f 260/260/9 264/264/9 261/261/9
f 265/265/10 272/272/10 268/268/10
f 265/265/10 269/269/10 272/272/10
f 264/264/8 269/269/8 261/261/8
f 264/264/8 272/272/8 269/269/8
f 257/257/7 268/268/7 260/260/7
f 257/257/7 265/265/7 268/268/7
f 273/273/1 278/278/1 274/274/1
f 273/273/1 277/277/1 278/278/1
f 282/282/2 285/285/2 281/281/2
f 282/282/2 286/286/2 285/285/2
f 277/277/8 286/286/8 278/278/8
f 277/277/8 285/285/8 286/286/8
f 274/274/7 281/281/7 273/273/7
f 274/274/7 282/282/7 281/281/7
f 274/274/10 279/279/10 275/275/10
f 274/274/10 278/278/10 279/279/10
f 283/283/9 286/286/9 282/282/9
f 283/283/9 287/287/9 286/286/9
f 278/278/8 287/287/8 279/279/8
f 278/278/8 286/286/8 287/287/8
f 275/275/7 282/282/7 274/274/7
f 275/275/7 283/283/7 282/282/7
f 275/275/2 280/280/2 276/276/2
f 275/275/2 279/279/2 280/280/2
f 284/284/1 287/287/1 283/283/1
f 284/284/1 288/288/1 287/287/1
f 279/279/8 288/288/8 280/280/8
f 279/279/8 287/287/8 288/288/8
f 276/276/7 283/283/7 275/275/7
f 276/276/7 284/284/7 283/283/7
f 276/276/9 277/277/9 273/273/9
f 276/276/9 280/280/9 277/277/9
f 281/281/10 288/288/10 284/284/10
f 281/281/10 285/285/10 288/288/10
f 280/280/8 285/285/8 277/277/8
f 280/280/8 288/288/8 285/285/8
f 273/273/7 284/284/7 276/276/7
f 273/273/7 281/281/7 284/284/7
f 289/289/1 294/294/1 290/290/1
f 289/289/1 293/293/1 294/294/1
f 298/298/2 301/301/2 297/297/2
f 298/298/2 302/302/2 301/301/2
f 293/293/8 302/302/8 294/294/8
f 293/293/8 301/301/8 302/302/8
f 290/290/7 297/297/7 289/289/7
f 290/290/7 298/298/7 297/297/7
f 290/290/10 295/295/10 291/291/10
f 290/290/10 294/294/10 295/295/10
f 299/299/9 302/302/9 298/298/9
f 299/299/9 303/303/9 302/302/9
f 294/294/8 303/303/8 295/295/8
f 294/294/8 302/302/8 303/303/8
f 291/291/7 298/298/7 290/290/7
f 291/291/7 299/299/7 298/298/7
f 291/291/2 296/296/2 292/292/2
f 291/291/2 295/295/2 296/296/2
f 300/300/1 303/303/1 299/299/1
f 300/300/1 304/304/1 303/303/1
f 295/295/8 304/304/8 296/296/8
f 295/295/8 303/303/8 304/304/8
f 292/292/7 299/299/7 291/291/7
f 292/292/7 300/300/7 299/299/7
f 292/292/9 293/293/9 289/289/9
f 292/292/9 296/296/9 293/293/9
f 297/297/10 304/304/10 300/300/10
f 297/297/10 301/301/10 304/304/10
f 296/296/8 301/301/8 293/293/8
f 296/296/8 304/304/8 301/301/8
f 289/289/7 300/300/7 292/292/7
f 289/289/7 297/297/7 300/300/7
f 305/305/1 312/312/1 306/306/1
f 305/305/1 311/311/1 312/312/1
f 318/318/2 323/323/2 317/317/2
f 318/318/2 324/324/2 323/323/2
f 311/311/8 324/324/8 312/312/8
f 311/311/8 323/323/8 324/324/8
f 306/306/7 317/317/7 305/305/7
f 306/306/7 318/318/7 317/317/7
f 306/306/10 313/313/10 307/307/10
f 306/306/10 312/312/10 313/313/10
f 319/319/9 324/324/9 318/318/9
f 319/319/9 325/325/9 324/324/9
f 312/312/8 325/325/8 313/313/8
f 312/312/8 324/324/8 325/325/8
f 307/307/7 318/318/7 306/306/7
f 307/307/7 319/319/7 318/318/7
f 307/307/13 314/314/13 308/308/13
f 307/307/13 313/313/13 314/314/13
f 320/320/14 325/325/14 319/319/14
f 320/320/14 326/326/14 325/325/14
f 313/313/8 326/326/8 314/314/8
f 313/313/8 325/325/8 326/326/8
f 308/308/7 319/319/7 307/307/7
f 308/308/7 320/320/7 319/319/7
f 308/308/2 315/315/2 309/309/2
f 308/308/2 314/314/2 315/315/2
f 321/321/1 326/326/1 320/320/1
f 321/321/1 327/327/1 326/326/1
f 314/314/8 327/327/8 315/315/8
f 314/314/8 326/326/8 327/327/8
f 309/309/7 320/320/7 308/308/7
f 309/309/7 321/321/7 320/320/7
f 309/309/11 316/316/11 310/310/11
f 309/309/11 315/315/11 316/316/11
f 322/322/12 327/327/12 321/321/12
f 322/322/12 328/328/12 327/327/12
f 315/315/8 328/328/8 316/316/8
f 315/315/8 327/327/8 328/328/8
f 310/310/7 321/321/7 309/309/7
f 310/310/7 322/322/7 321/321/7
f 310/310/9 311/311/9 305/305/9
f 310/310/9 316/316/9 311/311/9
f 317/317/10 328/328/10 322/322/10
f 317/317/10 323/323/10 328/328/10
f 316/316/8 323/323/8 311/311/8
f 316/316/8 328/328/8 323/323/8
f 305/305/7 322/322/7 310/310/7
f 305/305/7 317/317/7 322/322/7
f 329/329/1 334/334/1 330/330/1
f 329/329/1 333/333/1 334/334/1
f 338/338/2 341/341/2 337/337/2
f 338/338/2 342/342/2 341/341/2
f 333/333/8 342/342/8 334/334/8
f 333/333/8 341/341/8 342/342/8
f 330/330/7 337/337/7 329/329/7
f 330/330/7 338/338/7 337/337/7
f 330/330/10 335/335/10 331/331/10
f 330/330/10 334/334/10 335/335/10
f 339/339/9 342/342/9 338/338/9
f 339/339/9 343/343/9 342/342/9
f 334/334/8 343/343/8 335/335/8
f 334/334/8 342/342/8 343/343/8
f 331/331/7 338/338/7 330/330/7
f 331/331/7 339/339/7 338/338/7
f 331/331/2 336/336/2 332/332/2
f 331/331/2 335/335/2 336/336/2
f 340/340/1 343/343/1 339/339/1
f 340/340/1 344/344/1 343/343/1
f 335/335/8 344/344/8 336/336/8
f 335/335/8 343/343/8 344/344/8
f 332/332/7 339/339/7 331/331/7
f 332/332/7 340/340/7 339/339/7
f 332/332/9 333/333/9 329/329/9
f 332/332/9 336/336/9 333/333/9
f 337/337/10 344/344/10 340/340/10
f 337/337/10 341/341/10 344/344/10
f 336/336/8 341/341/8 333/333/8
f 336/336/8 344/344/8 341/341/8
f 329/329/7 340/340/7 332/332/7
f 329/329/7 337/337/7 340/340/7
f 345/345/1 350/350/1 346/346/1
f 345/345/1 349/349/1 350/350/1
f 354/354/2 357/357/2 353/353/2
f 354/354/2 358/358/2 357/357/2
f 349/349/8 358/358/8 350/350/8
f 349/349/8 357/357/8 358/358/8
f 346/346/7 353/353/7 345/345/7
f 346/346/7 354/354/7 353/353/7
f 346/346/10 351/351/10 347/347/10
f 346/346/10 350/350/10 351/351/10
f 355/355/9 358/358/9 354/354/9
f 355/355/9 359/359/9 358/358/9
f 350/350/8 359/359/8 351/351/8
f 350/350/8 358/358/8 359/359/8
f 347/347/7 354/354/7 346/346/7
f 347/347/7 355/355/7 354/354/7
f 347/347/2 352/352/2 348/348/2
f 347/347/2 351/351/2 352/352/2
f 356/356/1 359/359/1 355/355/1
f 356/356/1 360/360/1 359/359/1
f 351/351/8 360/360/8 352/352/8
f 351/351/8 359/359/8 360/360/8
f 348/348/7 355/355/7 347/347/7
f 348/348/7 356/356/7 355/355/7
f 348/348/9 349/349/9 345/345/9
f 348/348/9 352/352/9 349/349/9
f 353/353/10 360/360/10 356/356/10
f 353/353/10 357/357/10 360/360/10
f 352/352/8 357/357/8 349/349/8
f 352/352/8 360/360/8 357/357/8
f 345/345/7 356/356/7 348/348/7
f 345/345/7 353/353/7 356/356/7
f 361/361/1 366/366/1 362/362/1
f 361/361/1 365/365/1 366/366/1
f 370/370/2 373/373/2 369/369/2
f 370/370/2 374/374/2 373/373/2
f 365/365/8 374/374/8 366/366/8
f 365/365/8 373/373/8 374/374/8
f 362/362/7 369/369/7 361/361/7
f 362/362/7 370/370/7 369/369/7
f 362/362/10 367/367/10 363/363/10
f 362/362/10 366/366/10 367/367/10
f 371/371/9 374/374/9 370/370/9
f 371/371/9 375/375/9 374/374/9
f 366/366/8 375/375/8 367/367/8
f 366/366/8 374/374/8 375/375/8
f 363/363/7 370/370/7 362/362/7
f 363/363/7 371/371/7 370/370/7
f 363/363/2 368/368/2 364/364/2
f 363/363/2 367/367/2 368/368/2
f 372/372/1 375/375/1 371/371/1
f 372/372/1 376/376/1 375/375/1
f 367/367/8 376/376/8 368/368/8
f 367/367/8 375/375/8 376/376/8
f 364/364/7 371/371/7 363/363/7
f 364/364/7 372/372/7 371/371/7
f 364/364/9 365/365/9 361/361/9
f 364/364/9 368/368/9 365/365/9
f 369/369/10 376/376/10 372/372/10
f 369/369/10 373/373/10 376/376/10
f 368/368/8 373/373/8 365/365/8
f 368/368/8 376/376/8 373/373/8
f 361/361/7 372/372/7 364/364/7
f 361/361/7 369/369/7 372/372/7
f 377/377/1 384/384/1 378/378/1
f 377/377/1 383/383/1 384/384/1
f 390/390/2 395/395/2 389/389/2
f 390/390/2 396/396/2 395/395/2
f 383/383/8 396/396/8 384/384/8
f 383/383/8 395/395/8 396/396/8
f 378/378/7 389/389/7 377/377/7
f 378/378/7 390/390/7 389/389/7
f 378/378/10 385/385/10 379/379/10
f 378/378/10 384/384/10 385/385/10
f 391/391/9 396/396/9 390/390/9
f 391/391/9 397/397/9 396/396/9
f 384/384/8 397/397/8 385/385/8
f 384/384/8 396/396/8 397/397/8
f 379/379/7 390/390/7 378/378/7
f 379/379/7 391/391/7 390/390/7
f 379/379/13 386/386/13 380/380/13
f 379/379/13 385/385/13 386/386/13
f 392/392/14 397/397/14 391/391/14
f 392/392/14 398/398/14 397/397/14
f 385/385/8 398/398/8 386/386/8
f 385/385/8 397/397/8 398/398/8
f 380/380/7 391/391/7 379/379/7
f 380/380/7 392/392/7 391/391/7
f 380/380/2 387/387/2 381/381/2
f 380/380/2 386/386/2 387/387/2
f 393/393/1 398/398/1 392/392/1
f 393/393/1 399/399/1 398/398/1
f 386/386/8 399/399/8 387/387/8
f 386/386/8 398/398/8 399/399/8
f 381/381/7 392/392/7 380/380/7
f 381/381/7 393/393/7 392/392/7
f 381/381/11 388/388/11 382/382/11
f 381/381/11 387/387/11 388/388/11
f 394/394/12 399/399/12 393/393/12
f 394/394/12 400/400/12 399/399/12
f 387/387/8 400/400/8 388/388/8
f 387/387/8 399/399/8 400/400/8
f 382/382/7 393/393/7 381/381/7
f 382/382/7 394/394/7 393/393/7
f 382/382/9 383/383/9 377/377/9
f 382/382/9 388/388/9 383/383/9
f 389/389/10 400/400/10 394/394/10
f 389/389/10 395/395/10 400/400/10
f 388/388/8 395/395/8 383/383/8
f 388/388/8 400/400/8 395/395/8
f 377/377/7 394/394/7 382/382/7
f 377/377/7 389/389/7 394/394/7
f 401/401/1 408/408/1 402/402/1
f 401/401/1 407/407/1 408/408/1
f 414/414/2 419/419/2 413/413/2
f 414/414/2 420/420/2 419/419/2
f 407/407/8 420/420/8 408/408/8
f 407/407/8 419/419/8 420/420/8
f 402/402/7 413/413/7 401/401/7
f 402/402/7 414/414/7 413/413/7
f 402/402/10 409/409/10 403/403/10
f 402/402/10 408/408/10 409/409/10
f 415/415/9 420/420/9 414/414/9
f 415/415/9 421/421/9 420/420/9
f 408/408/8 421/421/8 409/409/8
f 408/408/8 420/420/8 421/421/8
f 403/403/7 414/414/7 402/402/7
f 403/403/7 415/415/7 414/414/7
f 403/403/13 410/410/13 404/404/13
f 403/403/13 409/409/13 410/410/13
f 416/416/14 421/421/14 415/415/14
f 416/416/14 422/422/14 421/421/14
f 409/409/8 422/422/8 410/410/8
f 409/409/8 421/421/8 422/422/8
f 404/404/7 415/415/7 403/403/7
f 404/404/7 416/416/7 415/415/7
f 404/404/2 411/411/2 405/405/2
f 404/404/2 410/410/2 411/411/2
f 417/417/1 422/422/1 416/416/1
f 417/417/1 423/423/1 422/422/1
f 410/410/8 423/423/8 411/411/8
f 410/410/8 422/422/8 423/423/8
f 405/405/7 416/416/7 404/404/7
f 405/405/7 417/417/7 416/416/7
f 405/405/11 412/412/11 406/406/11
f 405/405/11 411/411/11 412/412/11
f 418/418/12 423/423/12 417/417/12
f 418/418/12 424/424/12 423/423/12
f 411/411/8 424/424/8 412/412/8
f 411/411/8 423/423/8 424/424/8
f 406/406/7 417/417/7 405/405/7
f 406/406/7 418/418/7 417/417/7
f 406/406/9 407/407/9 401/401/9
f 406/406/9 412/412/9 407/407/9
f 413/413/10 424/424/10 418/418/10
f 413/413/10 419/419/10 424/424/10
f 412/412/8 419/419/8 407/407/8
f 412/412/8 424/424/8 419/419/8
f 401/401/7 418/418/7 406/406/7
f 401/401/7 413/413/7 418/418/7
f 425/425/7 426/426/7 430/430/7
f 425/425/7 430/430/7 429/429/7
f 426/426/10 427/427/10 431/431/10
f 426/426/10 431/431/10 430/430/10
f 427/427/8 428/428/8 432/432/8
f 427/427/8 432/432/8 431/431/8
f 428/428/9 425/425/9 429/429/9
f 428/428/9 429/429/9 432/432/9
f 429/429/2 430/430/2 431/431/2
f 429/429/2 431/431/2 432/432/2
f 428/428/1 427/427/1 426/426/1
f 428/428/1 426/426/1 425/425/1
f 433/433/3 438/438/3 434/434/3
f 433/433/3 437/437/3 438/438/3
f 442/442/4 445/445/4 441/441/4
f 442/442/4 446/446/4 445/445/4
f 437/437/2 446/446/2 438/438/2
f 437/437/2 445/445/2 446/446/2
f 434/434/1 441/441/1 433/433/1
f 434/434/1 442/442/1 441/441/1
f 434/434/7 439/439/7 435/435/7
f 434/434/7 438/438/7 439/439/7
f 443/443/8 446/446/8 442/442/8
f 443/443/8 447/447/8 446/446/8
f 438/438/2 447/447/2 439/439/2
f 438/438/2 446/446/2 447/447/2
f 435/435/1 442/442/1 434/434/1
f 435/435/1 443/443/1 442/442/1
f 435/435/4 440/440/4 436/436/4
f 435/435/4 439/439/4 440/440/4
f 444/444/3 447/447/3 443/443/3
f 444/444/3 448/448/3 447/447/3
f 439/439/2 448/448/2 440/440/2
f 439/439/2 447/447/2 448/448/2
f 436/436/1 443/443/1 435/435/1
f 436/436/1 444/444/1 443/443/1
f 436/436/8 437/437/8 433/433/8
f 436/436/8 440/440/8 437/437/8
f 441/441/7 448/448/7 444/444/7
f 441/441/7 445/445/7 448/448/7
f 440/440/2 445/445/2 437/437/2
f 440/440/2 448/448/2 445/445/2
f 433/433/1 444/444/1 436/436/1
f 433/433/1 441/441/1 444/444/1
f 449/449/3 454/454/3 450/450/3
f 449/449/3 453/453/3 454/454/3
f 458/458/4 461/461/4 457/457/4
f 458/458/4 462/462/4 461/461/4
f 453/453/2 462/462/2 454/454/2
f 453/453/2 461/461/2 462/462/2
f 450/450/1 457/457/1 449/449/1
f 450/450/1 458/458/1 457/457/1
f 450/450/7 455/455/7 451/451/7
f 450/450/7 454/454/7 455/455/7
f 459/459/8 462/462/8 458/458/8
f 459/459/8 463/463/8 462/462/8
f 454/454/2 463/463/2 455/455/2
f 454/454/2 462/462/2 463/463/2
f 451/451/1 458/458/1 450/450/1
f 451/451/1 459/459/1 458/458/1
f 451/451/4 456/456/4 452/452/4
f 451/451/4 455/455/4 456/456/4
f 460/460/3 463/463/3 459/459/3
f 460/460/3 464/464/3 463/463/3
f 455/455/2 464/464/2 456/456/2
f 455/455/2 463/463/2 464/464/2
f 452/452/1 459/459/1 451/451/1
f 452/452/1 460/460/1 459/459/1
f 452/452/8 453/453/8 449/449/8
f 452/452/8 456/456/8 453/453/8
f 457/457/7 464/464/7 460/460/7
f 457/457/7 461/461/7 464/464/7
f 456/456/2 461/461/2 453/453/2
f 456/456/2 464/464/2 461/461/2
f 449/449/1 460/460/1 452/452/1
f 449/449/1 457/457/1 460/460/1
f 465/465/3 470/470/3 466/466/3
f 465/465/3 469/469/3 470/470/3
f 474/474/4 477/477/4 473/473/4
f 474/474/4 478/478/4 477/477/4
f 469/469/2 478/478/2 470/470/2
f 469/469/2 477/477/2 478/478/2
f 466/466/1 473/473/1 465/465/1
f 466/466/1 474/474/1 473/473/1
f 466/466/7 471/471/7 467/467/7
f 466/466/7 470/470/7 471/471/7
f 475/475/8 478/478/8 474/474/8
f 475/475/8 479/479/8 478/478/8
f 470/470/2 479/479/2 471/471/2
f 470/470/2 478/478/2 479/479/2
f 467/467/1 474/474/1 466/466/1
f 467/467/1 475/475/1 474/474/1
f 467/467/4 472/472/4 468/468/4
f 467/467/4 471/471/4 472/472/4
f 476/476/3 479/479/3 475/475/3
f 476/476/3 480/480/3 479/479/3
f 471/471/2 480/480/2 472/472/2
f 471/471/2 479/479/2 480/480/2
f 468/468/1 475/475/1 467/467/1
f 468/468/1 476/476/1 475/475/1
f 468/468/8 469/469/8 465/465/8
f 468/468/8 472/472/8 469/469/8
f 473/473/7 480/480/7 476/476/7
f 473/473/7 477/477/7 480/480/7
f 472/472/2 477/477/2 469/469/2
f 472/472/2 480/480/2 477/477/2
f 465/465/1 476/476/1 468/468/1
f 465/465/1 473/473/1 476/476/1
f 481/481/4 482/482/4 486/486/4
f 481/481/4 486/486/4 485/485/4
f 482/482/5 483/483/5 487/487/5
f 482/482/5 487/487/5 486/486/5
f 483/483/3 484/484/3 488/488/3
f 483/483/3 488/488/3 487/487/3
f 484/484/6 481/481/6 485/485/6
f 484/484/6 485/485/6 488/488/6
f 485/485/2 486/486/2 487/487/2
f 485/485/2 487/487/2 488/488/2
f 484/484/1 483/483/1 482/482/1
f 484/484/1 482/482/1 481/481/1
f 489/489/8 490/490/8 494/494/8
f 489/489/8 494/494/8 493/493/8
f 490/490/9 491/491/9 495/495/9
f 490/490/9 495/495/9 494/494/9
f 491/491/7 492/492/7 496/496/7
f 491/491/7 496/496/7 495/495/7
f 492/492/10 489/489/10 493/493/10
f 492/492/10 493/493/10 496/496/10
f 493/493/2 494/494/2 495/495/2
f 493/493/2 495/495/2 496/496/2
f 492/492/1 491/491/1 490/490/1
f 492/492/1 490/490/1 489/489/1
f 497/497/4 498/498/4 502/502/4
f 497/497/4 502/502/4 501/501/4
f 498/498/5 499/499/5 503/503/5
f 498/498/5 503/503/5 502/502/5
f 499/499/3 500/500/3 504/504/3
f 499/499/3 504/504/3 503/503/3
f 500/500/6 497/497/6 501/501/6
f 500/500/6 501/501/6 504/504/6
f 501/501/2 502/502/2 503/503/2
f 501/501/2 503/503/2 504/504/2
f 500/500/1 499/499/1 498/498/1
f 500/500/1 498/498/1 497/497/1
f 505/505/8 506/506/8 510/510/8
f 505/505/8 510/510/8 509/509/8
f 506/506/9 507/507/9 511/511/9
f 506/506/9 511/511/9 510/510/9
f 507/507/7 508/508/7 512/512/7
f 507/507/7 512/512/7 511/511/7
f 508/508/10 505/505/10 509/509/10
f 508/508/10 509/509/10 512/512/10
f 509/509/2 510/510/2 511/511/2
f 509/509/2 511/511/2 512/512/2
f 508/508/1 507/507/1 506/506/1
f 508/508/1 506/506/1 505/505/1
f 513/513/7 514/514/7 518/518/7
f 513/513/7 518/518/7 517/517/7
f 514/514/10 515/515/10 519/519/10
f 514/514/10 519/519/10 518/518/10
f 515/515/8 516/516/8 520/520/8
f 515/515/8 520/520/8 519/519/8
f 516/516/9 513/513/9 517/517/9
f 516/516/9 517/517/9 520/520/9
f 517/517/2 518/518/2 519/519/2
f 517/517/2 519/519/2 520/520/2
f 516/516/1 515/515/1 514/514/1
f 516/516/1 514/514/1 513/513/1
f 521/521/4 522/522/4 526/526/4
f 521/521/4 526/526/4 525/525/4
f 522/522/5 523/523/5 527/527/5
f 522/522/5 527/527/5 526/526/5
f 523/523/3 524/524/3 528/528/3
f 523/523/3 528/528/3 527/527/3
f 524/524/6 521/521/6 525/525/6
f 524/524/6 525/525/6 528/528/6
f 525/525/2 526/526/2 527/527/2
f 525/525/2 527/527/2 528/528/2
f 524/524/1 523/523/1 522/522/1
f 524/524/1 522/522/1 521/521/1
f 529/529/7 530/530/7 534/534/7
f 529/529/7 534/534/7 533/533/7
f 530/530/10 531/531/10 535/535/10
f 530/530/10 535/535/10 534/534/10
f 531/531/8 532/532/8 536/536/8
f 531/531/8 536/536/8 535/535/8
f 532/532/9 529/529/9 533/533/9
f 532/532/9 533/533/9 536/536/9
f 533/533/2 534/534/2 535/535/2
f 533/533/2 535/535/2 536/536/2
f 532/532/1 531/531/1 530/530/1
f 532/532/1 530/530/1 529/529/1
f 537/537/4 538/538/4 542/542/4
f 537/537/4 542/542/4 541/541/4
f 538/538/5 539/539/5 543/543/5
f 538/538/5 543/543/5 542/542/5
f 539/539/3 540/540/3 544/544/3
f 539/539/3 544/544/3 543/543/3
f 540/540/6 537/537/6 541/541/6
f 540/540/6 541/541/6 544/544/6
f 541/541/2 542/542/2 543/543/2
f 541/541/2 543/543/2 544/544/2
f 540/540/1 539/539/1 538/538/1
f 540/540/1 538/538/1 537/537/1
f 545/545/8 546/546/8 550/550/8
f 545/545/8 550/550/8 549/549/8
f 546/546/9 547/547/9 551/551/9
f 546/546/9 551/551/9 550/550/9
f 547/547/7 548/548/7 552/552/7
f 547/547/7 552/552/7 551/551/7
f 548/548/10 545/545/10 549/549/10
f 548/548/10 549/549/10 552/552/10
f 549/549/2 550/550/2 551/551/2
f 549/549/2 551/551/2 552/552/2
f 548/548/1 547/547/1 546/546/1
f 548/548/1 546/546/1 545/545/1
f 553/553/3 554/554/3 558/558/3
f 553/553/3 558/558/3 557/557/3
f 554/554/6 555/555/6 559/559/6
f 554/554/6 559/559/6 558/558/6
f 555/555/4 556/556/4 560/560/4
f 555/555/4 560/560/4 559/559/4
f 556/556/5 553/553/5 557/557/5
f 556/556/5 557/557/5 560/560/5
f 557/557/2 558/558/2 559/559/2
f 557/557/2 559/559/2 560/560/2
f 556/556/1 555/555/1 554/554/1
f 556/556/1 554/554/1 553/553/1
f 561/561/8 562/562/8 566/566/8
f 561/561/8 566/566/8 565/565/8
f 562/562/9 563/563/9 567/567/9
f 562/562/9 567/567/9 566/566/9
f 563/563/7 564/564/7 568/568/7
f 563/563/7 568/568/7 567/567/7
f 564/564/10 561/561/10 565/565/10
f 564/564/10 565/565/10 568/568/10
f 565/565/2 566/566/2 567/567/2
f 565/565/2 567/567/2 568/568/2
f 564/564/1 563/563/1 562/562/1
f 564/564/1 562/562/1 561/561/1
f 569/569/3 570/570/3 574/574/3
f 569/569/3 574/574/3 573/573/3
f 570/570/6 571/571/6 575/575/6
f 570/570/6 575/575/6 574/574/6
f 571/571/4 572/572/4 576/576/4
f 571/571/4 576/576/4 575/575/4
f 572/572/5 569/569/5 573/573/5
f 572/572/5 573/573/5 576/576/5
f 573/573/2 574/574/2 575/575/2
f 573/573/2 575/575/2 576/576/2
f 572/572/1 571/571/1 570/570/1
f 572/572/1 570/570/1 569/569/1
f 577/577/3 578/578/3 582/582/3
f 577/577/3 582/582/3 581/581/3
f 578/578/6 579/579/6 583/583/6
f 578/578/6 583/583/6 582/582/6
f 579/579/4 580/580/4 584/584/4
f 579/579/4 584/584/4 583/583/4
f 580/580/5 577/577/5 581/581/5
f 580/580/5 581/581/5 584/584/5
f 581/581/2 582/582/2 583/583/2
f 581/581/2 583/583/2 584/584/2
f 580/580/1 579/579/1 578/578/1
f 580/580/1 578/578/1 577/577/1
f 585/585/7 586/586/7 590/590/7
f 585/585/7 590/590/7 589/589/7
f 586/586/10 587/587/10 591/591/10
f 586/586/10 591/591/10 590/590/10
f 587/587/8 588/588/8 592/592/8
f 587/587/8 592/592/8 591/591/8
f 588/588/9 585/585/9 589/589/9
f 588/588/9 589/589/9 592/592/9
f 589/589/2 590/590/2 591/591/2
f 589/589/2 591/591/2 592/592/2
f 588/588/1 587/587/1 586/586/1
f 588/588/1 586/586/1 585/585/1
f 593/593/3 594/594/3 598/598/3
f 593/593/3 598/598/3 597/597/3
f 594/594/6 595/595/6 599/599/6
f 594/594/6 599/599/6 598/598/6
f 595/595/4 596/596/4 600/600/4
f 595/595/4 600/600/4 599/599/4
f 596/596/5 593/593/5 597/597/5
f 596/596/5 597/597/5 600/600/5
f 597/597/2 598/598/2 599/599/2
f 597/597/2 599/599/2 600/600/2
f 596/596/1 595/595/1 594/594/1
f 596/596/1 594/594/1 593/593/1
f 601/601/7 602/602/7 606/606/7
f 601/601/7 606/606/7 605/605/7
f 602/602/10 603/603/10 607/607/10
f 602/602/10 607/607/10 606/606/10
f 603/603/8 604/604/8 608/608/8
f 603/603/8 608/608/8 607/607/8
f 604/604/9 601/601/9 605/605/9
f 604/604/9 605/605/9 608/608/9
f 605/605/2 606/606/2 607/607/2
f 605/605/2 607/607/2 608/608/2
f 604/604/1 603/603/1 602/602/1
f 604/604/1 602/602/1 601/601/1
