# Unreal legacy OBJ adapter: canonical vertices are UE cm; this file is written with Y reflected and triangle winding reversed. One object, no g groups, so the importer creates exactly one material slot.
# OldCityFacadesV1 20260908T024235646425Z
# source jerusalem.json sha256 76a2b76c0d97f45db7e532b3adbe8b58c02956fa0d3de73db71e31e097ea6463
# alignment UEcm = ((x+17.509700315687695)*50, (z-0.551349644938533)*50, y*50) - already baked, never reapplied
# shell standoff 6.0 cm outside every imported face
# AUTHORED detail: invented Old City massing, not survey
o SM_OldCityInfill_Grid_N006_N005
s off
v -50846.36 39961.74 981.83
v -50554.85 40276.48 981.83
v -50240.10 39984.97 981.83
v -50531.61 39670.23 981.83
v -50846.36 39961.74 1941.83
v -50554.85 40276.48 1941.83
v -50240.10 39984.97 1941.83
v -50531.61 39670.23 1941.83
v -50743.38 40090.58 1391.83
v -50675.43 40163.95 1391.83
v -50675.43 40163.95 1571.83
v -50743.38 40090.58 1571.83
v -50753.65 40100.09 1391.83
v -50685.70 40173.46 1391.83
v -50685.70 40173.46 1571.83
v -50753.65 40100.09 1571.83
v -50733.87 40100.85 1405.83
v -50684.94 40153.67 1405.83
v -50684.94 40153.67 1557.83
v -50733.87 40100.85 1557.83
v -50744.14 40110.36 1405.83
v -50695.21 40163.19 1405.83
v -50695.21 40163.19 1557.83
v -50744.14 40110.36 1557.83
v -50750.18 40083.24 981.83
v -50668.64 40171.28 981.83
v -50668.64 40171.28 1211.83
v -50750.18 40083.24 1211.83
v -50764.85 40096.83 981.83
v -50683.31 40184.87 981.83
v -50683.31 40184.87 1211.83
v -50764.85 40096.83 1211.83
v -50737.95 40096.45 999.83
v -50680.87 40158.08 999.83
v -50680.87 40158.08 1193.83
v -50737.95 40096.45 1193.83
v -50752.62 40110.04 999.83
v -50695.54 40171.67 999.83
v -50695.54 40171.67 1193.83
v -50752.62 40110.04 1193.83
v -50763.77 40068.57 977.83
v -50655.05 40185.96 977.83
v -50674.12 40203.62 977.83
v -50782.84 40086.24 977.83
v -50763.77 40068.57 993.83
v -50655.05 40185.96 993.83
v -50674.12 40203.62 993.83
v -50782.84 40086.24 993.83
v -50426.00 40173.50 1071.83
v -50352.64 40105.55 1071.83
v -50352.64 40105.55 1251.83
v -50426.00 40173.50 1251.83
v -50416.49 40183.78 1071.83
v -50343.12 40115.82 1071.83
v -50343.12 40115.82 1251.83
v -50416.49 40183.78 1251.83
v -50415.73 40163.99 1085.83
v -50362.91 40115.07 1085.83
v -50362.91 40115.07 1237.83
v -50415.73 40163.99 1237.83
v -50406.22 40174.26 1085.83
v -50353.40 40125.34 1085.83
v -50353.40 40125.34 1237.83
v -50406.22 40174.26 1237.83
v -50426.00 40173.50 1391.83
v -50352.64 40105.55 1391.83
v -50352.64 40105.55 1571.83
v -50426.00 40173.50 1571.83
v -50416.49 40183.78 1391.83
v -50343.12 40115.82 1391.83
v -50343.12 40115.82 1571.83
v -50416.49 40183.78 1571.83
v -50415.73 40163.99 1405.83
v -50362.91 40115.07 1405.83
v -50362.91 40115.07 1557.83
v -50415.73 40163.99 1557.83
v -50406.22 40174.26 1405.83
v -50353.40 40125.34 1405.83
v -50353.40 40125.34 1557.83
v -50406.22 40174.26 1557.83
v -50343.08 39856.13 1071.83
v -50411.03 39782.76 1071.83
v -50411.03 39782.76 1251.83
v -50343.08 39856.13 1251.83
v -50332.81 39846.61 1071.83
v -50400.76 39773.25 1071.83
v -50400.76 39773.25 1251.83
v -50332.81 39846.61 1251.83
v -50352.59 39845.86 1085.83
v -50401.52 39793.03 1085.83
v -50401.52 39793.03 1237.83
v -50352.59 39845.86 1237.83
v -50342.32 39836.34 1085.83
v -50391.25 39783.52 1085.83
v -50391.25 39783.52 1237.83
v -50342.32 39836.34 1237.83
v -50343.08 39856.13 1391.83
v -50411.03 39782.76 1391.83
v -50411.03 39782.76 1571.83
v -50343.08 39856.13 1571.83
v -50332.81 39846.61 1391.83
v -50400.76 39773.25 1391.83
v -50400.76 39773.25 1571.83
v -50332.81 39846.61 1571.83
v -50352.59 39845.86 1405.83
v -50401.52 39793.03 1405.83
v -50401.52 39793.03 1557.83
v -50352.59 39845.86 1557.83
v -50342.32 39836.34 1405.83
v -50391.25 39783.52 1405.83
v -50391.25 39783.52 1557.83
v -50342.32 39836.34 1557.83
v -50660.46 39773.20 1071.83
v -50733.82 39841.15 1071.83
v -50733.82 39841.15 1251.83
v -50660.46 39773.20 1251.83
v -50669.97 39762.93 1071.83
v -50743.34 39830.88 1071.83
v -50743.34 39830.88 1251.83
v -50669.97 39762.93 1251.83
v -50670.73 39782.72 1085.83
v -50723.55 39831.64 1085.83
v -50723.55 39831.64 1237.83
v -50670.73 39782.72 1237.83
v -50680.24 39772.44 1085.83
v -50733.06 39821.37 1085.83
v -50733.06 39821.37 1237.83
v -50680.24 39772.44 1237.83
v -50660.46 39773.20 1391.83
v -50733.82 39841.15 1391.83
v -50733.82 39841.15 1571.83
v -50660.46 39773.20 1571.83
v -50669.97 39762.93 1391.83
v -50743.34 39830.88 1391.83
v -50743.34 39830.88 1571.83
v -50669.97 39762.93 1571.83
v -50670.73 39782.72 1405.83
v -50723.55 39831.64 1405.83
v -50723.55 39831.64 1557.83
v -50670.73 39782.72 1557.83
v -50680.24 39772.44 1405.83
v -50733.06 39821.37 1405.83
v -50733.06 39821.37 1557.83
v -50680.24 39772.44 1557.83
v -50871.79 39960.76 1911.83
v -50555.82 40301.92 1911.83
v -50214.67 39985.94 1911.83
v -50530.64 39644.79 1911.83
v -50871.79 39960.76 1925.83
v -50555.82 40301.92 1925.83
v -50214.67 39985.94 1925.83
v -50530.64 39644.79 1925.83
v -50854.84 39961.41 1911.83
v -50555.17 40284.96 1911.83
v -50231.63 39985.29 1911.83
v -50531.29 39661.75 1911.83
v -50854.84 39961.41 1925.83
v -50555.17 40284.96 1925.83
v -50231.63 39985.29 1925.83
v -50531.29 39661.75 1925.83
v -50885.93 39960.22 1889.83
v -50556.36 40316.05 1889.83
v -50200.54 39986.49 1889.83
v -50530.10 39630.66 1889.83
v -50885.93 39960.22 1917.83
v -50556.36 40316.05 1917.83
v -50200.54 39986.49 1917.83
v -50530.10 39630.66 1917.83
v -50854.84 39961.41 1889.83
v -50555.17 40284.96 1889.83
v -50231.63 39985.29 1889.83
v -50531.29 39661.75 1889.83
v -50854.84 39961.41 1917.83
v -50555.17 40284.96 1917.83
v -50231.63 39985.29 1917.83
v -50531.29 39661.75 1917.83
v -50877.45 39960.54 1947.83
v -50556.04 40307.57 1947.83
v -50209.01 39986.16 1947.83
v -50530.42 39639.14 1947.83
v -50877.45 39960.54 2017.83
v -50556.04 40307.57 2017.83
v -50209.01 39986.16 2017.83
v -50530.42 39639.14 2017.83
v -50803.96 39963.36 1947.83
v -50553.22 40234.08 1947.83
v -50282.50 39983.34 1947.83
v -50533.24 39712.62 1947.83
v -50803.96 39963.36 2017.83
v -50553.22 40234.08 2017.83
v -50282.50 39983.34 2017.83
v -50533.24 39712.62 2017.83
v -50796.14 39907.05 1006.83
v -50854.84 39961.41 1006.83
v -50861.63 39954.07 1006.83
v -50802.94 39899.71 1006.83
v -50796.14 39907.05 1061.83
v -50854.84 39961.41 1061.83
v -50861.63 39954.07 1061.83
v -50802.94 39899.71 1061.83
v -50854.84 39961.41 1078.83
v -50816.78 40002.50 1078.83
v -50824.12 40009.29 1078.83
v -50862.17 39968.21 1078.83
v -50854.84 39961.41 1133.83
v -50816.78 40002.50 1133.83
v -50824.12 40009.29 1133.83
v -50862.17 39968.21 1133.83
v -50796.14 39907.05 1150.83
v -50854.84 39961.41 1150.83
v -50861.63 39954.07 1150.83
v -50802.94 39899.71 1150.83
v -50796.14 39907.05 1205.83
v -50854.84 39961.41 1205.83
v -50861.63 39954.07 1205.83
v -50802.94 39899.71 1205.83
v -50854.84 39961.41 1222.83
v -50816.78 40002.50 1222.83
v -50824.12 40009.29 1222.83
v -50862.17 39968.21 1222.83
v -50854.84 39961.41 1277.83
v -50816.78 40002.50 1277.83
v -50824.12 40009.29 1277.83
v -50862.17 39968.21 1277.83
v -50609.53 40226.27 1006.83
v -50555.17 40284.96 1006.83
v -50562.51 40291.75 1006.83
v -50616.87 40233.06 1006.83
v -50609.53 40226.27 1061.83
v -50555.17 40284.96 1061.83
v -50562.51 40291.75 1061.83
v -50616.87 40233.06 1061.83
v -50555.17 40284.96 1078.83
v -50514.09 40246.91 1078.83
v -50507.29 40254.24 1078.83
v -50548.38 40292.29 1078.83
v -50555.17 40284.96 1133.83
v -50514.09 40246.91 1133.83
v -50507.29 40254.24 1133.83
v -50548.38 40292.29 1133.83
v -50609.53 40226.27 1150.83
v -50555.17 40284.96 1150.83
v -50562.51 40291.75 1150.83
v -50616.87 40233.06 1150.83
v -50609.53 40226.27 1205.83
v -50555.17 40284.96 1205.83
v -50562.51 40291.75 1205.83
v -50616.87 40233.06 1205.83
v -50555.17 40284.96 1222.83
v -50514.09 40246.91 1222.83
v -50507.29 40254.24 1222.83
v -50548.38 40292.29 1222.83
v -50555.17 40284.96 1277.83
v -50514.09 40246.91 1277.83
v -50507.29 40254.24 1277.83
v -50548.38 40292.29 1277.83
v -50290.32 40039.66 1006.83
v -50231.63 39985.29 1006.83
v -50224.83 39992.63 1006.83
v -50283.52 40046.99 1006.83
v -50290.32 40039.66 1061.83
v -50231.63 39985.29 1061.83
v -50224.83 39992.63 1061.83
v -50283.52 40046.99 1061.83
v -50231.63 39985.29 1078.83
v -50269.68 39944.21 1078.83
v -50262.34 39937.41 1078.83
v -50224.29 39978.50 1078.83
v -50231.63 39985.29 1133.83
v -50269.68 39944.21 1133.83
v -50262.34 39937.41 1133.83
v -50224.29 39978.50 1133.83
v -50290.32 40039.66 1150.83
v -50231.63 39985.29 1150.83
v -50224.83 39992.63 1150.83
v -50283.52 40046.99 1150.83
v -50290.32 40039.66 1205.83
v -50231.63 39985.29 1205.83
v -50224.83 39992.63 1205.83
v -50283.52 40046.99 1205.83
v -50231.63 39985.29 1222.83
v -50269.68 39944.21 1222.83
v -50262.34 39937.41 1222.83
v -50224.29 39978.50 1222.83
v -50231.63 39985.29 1277.83
v -50269.68 39944.21 1277.83
v -50262.34 39937.41 1277.83
v -50224.29 39978.50 1277.83
v -50476.93 39720.44 1006.83
v -50531.29 39661.75 1006.83
v -50523.95 39654.95 1006.83
v -50469.59 39713.65 1006.83
v -50476.93 39720.44 1061.83
v -50531.29 39661.75 1061.83
v -50523.95 39654.95 1061.83
v -50469.59 39713.65 1061.83
v -50531.29 39661.75 1078.83
v -50572.37 39699.80 1078.83
v -50579.17 39692.46 1078.83
v -50538.08 39654.41 1078.83
v -50531.29 39661.75 1133.83
v -50572.37 39699.80 1133.83
v -50579.17 39692.46 1133.83
v -50538.08 39654.41 1133.83
v -50476.93 39720.44 1150.83
v -50531.29 39661.75 1150.83
v -50523.95 39654.95 1150.83
v -50469.59 39713.65 1150.83
v -50476.93 39720.44 1205.83
v -50531.29 39661.75 1205.83
v -50523.95 39654.95 1205.83
v -50469.59 39713.65 1205.83
v -50531.29 39661.75 1222.83
v -50572.37 39699.80 1222.83
v -50579.17 39692.46 1222.83
v -50538.08 39654.41 1222.83
v -50531.29 39661.75 1277.83
v -50572.37 39699.80 1277.83
v -50579.17 39692.46 1277.83
v -50538.08 39654.41 1277.83
vt -227.0203 2.4546
vt -227.0783 2.4546
vt -225.5627 2.4546
vt -225.5046 2.4546
vt -227.0203 4.8546
vt -227.0783 4.8546
vt -225.5627 4.8546
vt -225.5046 4.8546
vt -227.0849 3.4796
vt -227.0985 3.4796
vt -227.0985 3.9296
vt -227.0849 3.9296
vt -227.1343 3.4796
vt -227.1479 3.4796
vt -227.1479 3.9296
vt -227.1343 3.9296
vt -227.0868 3.5146
vt -227.0965 3.5146
vt -227.0965 3.8946
vt -227.0868 3.8946
vt -227.1362 3.5146
vt -227.1460 3.5146
vt -227.1460 3.8946
vt -227.1362 3.8946
vt -227.0836 2.4546
vt -227.0998 2.4546
vt -227.0998 3.0296
vt -227.0836 3.0296
vt -227.1542 2.4546
vt -227.1704 2.4546
vt -227.1704 3.0296
vt -227.1542 3.0296
vt -227.0860 2.4996
vt -227.0974 2.4996
vt -227.0974 2.9846
vt -227.0860 2.9846
vt -227.1567 2.4996
vt -227.1680 2.4996
vt -227.1680 2.9846
vt -227.1567 2.9846
vt -227.0808 2.4446
vt -227.1025 2.4446
vt -227.1944 2.4446
vt -227.1727 2.4446
vt -227.0808 2.4846
vt -227.1025 2.4846
vt -227.1944 2.4846
vt -227.1727 2.4846
vt -226.4988 2.6796
vt -226.1455 2.6796
vt -226.1455 3.1296
vt -226.4988 3.1296
vt -226.5007 2.6796
vt -226.1474 2.6796
vt -226.1474 3.1296
vt -226.5007 3.1296
vt -226.4493 2.7146
vt -226.1950 2.7146
vt -226.1950 3.0946
vt -226.4493 3.0946
vt -226.4512 2.7146
vt -226.1968 2.7146
vt -226.1968 3.0946
vt -226.4512 3.0946
vt -226.4988 3.4796
vt -226.1455 3.4796
vt -226.1455 3.9296
vt -226.4988 3.9296
vt -226.5007 3.4796
vt -226.1474 3.4796
vt -226.1474 3.9296
vt -226.5007 3.9296
vt -226.4493 3.5146
vt -226.1950 3.5146
vt -226.1950 3.8946
vt -226.4493 3.8946
vt -226.4512 3.5146
vt -226.1968 3.5146
vt -226.1968 3.8946
vt -226.4512 3.8946
vt -225.4980 2.6796
vt -225.4845 2.6796
vt -225.4845 3.1296
vt -225.4980 3.1296
vt -225.4485 2.6796
vt -225.4350 2.6796
vt -225.4350 3.1296
vt -225.4485 3.1296
vt -225.4961 2.7146
vt -225.4864 2.7146
vt -225.4864 3.0946
vt -225.4961 3.0946
vt -225.4467 2.7146
vt -225.4369 2.7146
vt -225.4369 3.0946
vt -225.4467 3.0946
vt -225.4980 3.4796
vt -225.4845 3.4796
vt -225.4845 3.9296
vt -225.4980 3.9296
vt -225.4485 3.4796
vt -225.4350 3.4796
vt -225.4350 3.9296
vt -225.4485 3.9296
vt -225.4961 3.5146
vt -225.4864 3.5146
vt -225.4864 3.8946
vt -225.4961 3.8946
vt -225.4467 3.5146
vt -225.4369 3.5146
vt -225.4369 3.8946
vt -225.4467 3.8946
vt -226.0842 2.6796
vt -226.4374 2.6796
vt -226.4374 3.1296
vt -226.0842 3.1296
vt -226.0822 2.6796
vt -226.4356 2.6796
vt -226.4356 3.1296
vt -226.0822 3.1296
vt -226.1336 2.7146
vt -226.3880 2.7146
vt -226.3880 3.0946
vt -226.1336 3.0946
vt -226.1317 2.7146
vt -226.3861 2.7146
vt -226.3861 3.0946
vt -226.1317 3.0946
vt -226.0842 3.4796
vt -226.4374 3.4796
vt -226.4374 3.9296
vt -226.0842 3.9296
vt -226.0822 3.4796
vt -226.4356 3.4796
vt -226.4356 3.9296
vt -226.0822 3.9296
vt -226.1336 3.5146
vt -226.3880 3.5146
vt -226.3880 3.8946
vt -226.1336 3.8946
vt -226.1317 3.5146
vt -226.3861 3.5146
vt -226.3861 3.8946
vt -226.1317 3.8946
vt -227.0814 4.7796
vt -227.1443 4.7796
vt -225.5015 4.7796
vt -225.4386 4.7796
vt -227.0814 4.8146
vt -227.1443 4.8146
vt -225.5015 4.8146
vt -225.4386 4.8146
vt -227.0406 4.7796
vt -227.1003 4.7796
vt -225.5423 4.7796
vt -225.4826 4.7796
vt -227.0406 4.8146
vt -227.1003 4.8146
vt -225.5423 4.8146
vt -225.4826 4.8146
vt -227.1154 4.7246
vt -227.1810 4.7246
vt -225.4676 4.7246
vt -225.4019 4.7246
vt -227.1154 4.7946
vt -227.1810 4.7946
vt -225.4676 4.7946
vt -225.4019 4.7946
vt -227.0406 4.7246
vt -227.1003 4.7246
vt -225.5423 4.7246
vt -225.4826 4.7246
vt -227.0406 4.7946
vt -227.1003 4.7946
vt -225.5423 4.7946
vt -225.4826 4.7946
vt -227.0950 4.8696
vt -227.1590 4.8696
vt -225.4879 4.8696
vt -225.4239 4.8696
vt -227.0950 5.0446
vt -227.1590 5.0446
vt -225.4879 5.0446
vt -225.4239 5.0446
vt -226.9183 4.8696
vt -226.9683 4.8696
vt -225.6646 4.8696
vt -225.6147 4.8696
vt -226.9183 5.0446
vt -226.9683 5.0446
vt -225.6646 5.0446
vt -225.6147 5.0446
vt -226.7580 2.5171
vt -227.0406 2.5171
vt -227.0392 2.5171
vt -226.7566 2.5171
vt -226.7580 2.6546
vt -227.0406 2.6546
vt -227.0392 2.6546
vt -226.7566 2.6546
vt -227.0406 2.6971
vt -227.0482 2.6971
vt -227.0835 2.6971
vt -227.0760 2.6971
vt -227.0406 2.8346
vt -227.0482 2.8346
vt -227.0835 2.8346
vt -227.0760 2.8346
vt -226.7580 2.8771
vt -227.0406 2.8771
vt -227.0392 2.8771
vt -226.7566 2.8771
vt -226.7580 3.0146
vt -227.0406 3.0146
vt -227.0392 3.0146
vt -226.7566 3.0146
vt -227.0406 3.0571
vt -227.0482 3.0571
vt -227.0835 3.0571
vt -227.0760 3.0571
vt -227.0406 3.1946
vt -227.0482 3.1946
vt -227.0835 3.1946
vt -227.0760 3.1946
vt -227.0895 2.5171
vt -227.1003 2.5171
vt -227.1357 2.5171
vt -227.1248 2.5171
vt -227.0895 2.6546
vt -227.1003 2.6546
vt -227.1357 2.6546
vt -227.1248 2.6546
vt -227.1003 2.6971
vt -226.9025 2.6971
vt -226.9038 2.6971
vt -227.1017 2.6971
vt -227.1003 2.8346
vt -226.9025 2.8346
vt -226.9038 2.8346
vt -227.1017 2.8346
vt -227.0895 2.8771
vt -227.1003 2.8771
vt -227.1357 2.8771
vt -227.1248 2.8771
vt -227.0895 3.0146
vt -227.1003 3.0146
vt -227.1357 3.0146
vt -227.1248 3.0146
vt -227.1003 3.0571
vt -226.9025 3.0571
vt -226.9038 3.0571
vt -227.1017 3.0571
vt -227.1003 3.1946
vt -226.9025 3.1946
vt -226.9038 3.1946
vt -227.1017 3.1946
vt -225.8250 2.5171
vt -225.5423 2.5171
vt -225.5436 2.5171
vt -225.8263 2.5171
vt -225.8250 2.6546
vt -225.5423 2.6546
vt -225.5436 2.6546
vt -225.8263 2.6546
vt -225.5423 2.6971
vt -225.5347 2.6971
vt -225.4994 2.6971
vt -225.5070 2.6971
vt -225.5423 2.8346
vt -225.5347 2.8346
vt -225.4994 2.8346
vt -225.5070 2.8346
vt -225.8250 2.8771
vt -225.5423 2.8771
vt -225.5436 2.8771
vt -225.8263 2.8771
vt -225.8250 3.0146
vt -225.5423 3.0146
vt -225.5436 3.0146
vt -225.8263 3.0146
vt -225.5423 3.0571
vt -225.5347 3.0571
vt -225.4994 3.0571
vt -225.5070 3.0571
vt -225.5423 3.1946
vt -225.5347 3.1946
vt -225.4994 3.1946
vt -225.5070 3.1946
vt -225.4934 2.5171
vt -225.4826 2.5171
vt -225.4472 2.5171
vt -225.4581 2.5171
vt -225.4934 2.6546
vt -225.4826 2.6546
vt -225.4472 2.6546
vt -225.4581 2.6546
vt -225.4826 2.6971
vt -225.6804 2.6971
vt -225.6791 2.6971
vt -225.4812 2.6971
vt -225.4826 2.8346
vt -225.6804 2.8346
vt -225.6791 2.8346
vt -225.4812 2.8346
vt -225.4934 2.8771
vt -225.4826 2.8771
vt -225.4472 2.8771
vt -225.4581 2.8771
vt -225.4934 3.0146
vt -225.4826 3.0146
vt -225.4472 3.0146
vt -225.4581 3.0146
vt -225.4826 3.0571
vt -225.6804 3.0571
vt -225.6791 3.0571
vt -225.4812 3.0571
vt -225.4826 3.1946
vt -225.6804 3.1946
vt -225.6791 3.1946
vt -225.4812 3.1946
vn -0.7337 0.6795 0.0000
vn 0.6795 0.7337 0.0000
vn 0.7337 -0.6795 0.0000
vn -0.6795 -0.7337 0.0000
vn 0.0000 -0.0000 1.0000
vn 0.0000 0.0000 -1.0000
f 1/1/1 6/6/1 2/2/1
f 1/1/1 5/5/1 6/6/1
f 2/2/2 7/7/2 3/3/2
f 2/2/2 6/6/2 7/7/2
f 3/3/3 8/8/3 4/4/3
f 3/3/3 7/7/3 8/8/3
f 4/4/4 5/5/4 1/1/4
f 4/4/4 8/8/4 5/5/4
f 5/5/5 7/7/5 6/6/5
f 5/5/5 8/8/5 7/7/5
f 4/4/6 2/2/6 3/3/6
f 4/4/6 1/1/6 2/2/6
f 9/9/6 14/14/6 10/10/6
f 9/9/6 13/13/6 14/14/6
f 18/18/5 21/21/5 17/17/5
f 18/18/5 22/22/5 21/21/5
f 13/13/1 22/22/1 14/14/1
f 13/13/1 21/21/1 22/22/1
f 10/10/3 17/17/3 9/9/3
f 10/10/3 18/18/3 17/17/3
f 10/10/2 15/15/2 11/11/2
f 10/10/2 14/14/2 15/15/2
f 19/19/4 22/22/4 18/18/4
f 19/19/4 23/23/4 22/22/4
f 14/14/1 23/23/1 15/15/1
f 14/14/1 22/22/1 23/23/1
f 11/11/3 18/18/3 10/10/3
f 11/11/3 19/19/3 18/18/3
f 11/11/5 16/16/5 12/12/5
f 11/11/5 15/15/5 16/16/5
f 20/20/6 23/23/6 19/19/6
f 20/20/6 24/24/6 23/23/6
f 15/15/1 24/24/1 16/16/1
f 15/15/1 23/23/1 24/24/1
f 12/12/3 19/19/3 11/11/3
f 12/12/3 20/20/3 19/19/3
f 12/12/4 13/13/4 9/9/4
f 12/12/4 16/16/4 13/13/4
f 17/17/2 24/24/2 20/20/2
f 17/17/2 21/21/2 24/24/2
f 16/16/1 21/21/1 13/13/1
f 16/16/1 24/24/1 21/21/1
f 9/9/3 20/20/3 12/12/3
f 9/9/3 17/17/3 20/20/3
f 25/25/6 30/30/6 26/26/6
f 25/25/6 29/29/6 30/30/6
f 34/34/5 37/37/5 33/33/5
f 34/34/5 38/38/5 37/37/5
f 29/29/1 38/38/1 30/30/1
f 29/29/1 37/37/1 38/38/1
f 26/26/3 33/33/3 25/25/3
f 26/26/3 34/34/3 33/33/3
f 26/26/2 31/31/2 27/27/2
f 26/26/2 30/30/2 31/31/2
f 35/35/4 38/38/4 34/34/4
f 35/35/4 39/39/4 38/38/4
f 30/30/1 39/39/1 31/31/1
f 30/30/1 38/38/1 39/39/1
f 27/27/3 34/34/3 26/26/3
f 27/27/3 35/35/3 34/34/3
f 27/27/5 32/32/5 28/28/5
f 27/27/5 31/31/5 32/32/5
f 36/36/6 39/39/6 35/35/6
f 36/36/6 40/40/6 39/39/6
f 31/31/1 40/40/1 32/32/1
f 31/31/1 39/39/1 40/40/1
f 28/28/3 35/35/3 27/27/3
f 28/28/3 36/36/3 35/35/3
f 28/28/4 29/29/4 25/25/4
f 28/28/4 32/32/4 29/29/4
f 33/33/2 40/40/2 36/36/2
f 33/33/2 37/37/2 40/40/2
f 32/32/1 37/37/1 29/29/1
f 32/32/1 40/40/1 37/37/1
f 25/25/3 36/36/3 28/28/3
f 25/25/3 33/33/3 36/36/3
f 41/41/3 42/42/3 46/46/3
f 41/41/3 46/46/3 45/45/3
f 42/42/2 43/43/2 47/47/2
f 42/42/2 47/47/2 46/46/2
f 43/43/1 44/44/1 48/48/1
f 43/43/1 48/48/1 47/47/1
f 44/44/4 41/41/4 45/45/4
f 44/44/4 45/45/4 48/48/4
f 45/45/5 46/46/5 47/47/5
f 45/45/5 47/47/5 48/48/5
f 44/44/6 43/43/6 42/42/6
f 44/44/6 42/42/6 41/41/6
f 49/49/6 54/54/6 50/50/6
f 49/49/6 53/53/6 54/54/6
f 58/58/5 61/61/5 57/57/5
f 58/58/5 62/62/5 61/61/5
f 53/53/2 62/62/2 54/54/2
f 53/53/2 61/61/2 62/62/2
f 50/50/4 57/57/4 49/49/4
f 50/50/4 58/58/4 57/57/4
f 50/50/3 55/55/3 51/51/3
f 50/50/3 54/54/3 55/55/3
f 59/59/1 62/62/1 58/58/1
f 59/59/1 63/63/1 62/62/1
f 54/54/2 63/63/2 55/55/2
f 54/54/2 62/62/2 63/63/2
f 51/51/4 58/58/4 50/50/4
f 51/51/4 59/59/4 58/58/4
f 51/51/5 56/56/5 52/52/5
f 51/51/5 55/55/5 56/56/5
f 60/60/6 63/63/6 59/59/6
f 60/60/6 64/64/6 63/63/6
f 55/55/2 64/64/2 56/56/2
f 55/55/2 63/63/2 64/64/2
f 52/52/4 59/59/4 51/51/4
f 52/52/4 60/60/4 59/59/4
f 52/52/1 53/53/1 49/49/1
f 52/52/1 56/56/1 53/53/1
f 57/57/3 64/64/3 60/60/3
f 57/57/3 61/61/3 64/64/3
f 56/56/2 61/61/2 53/53/2
f 56/56/2 64/64/2 61/61/2
f 49/49/4 60/60/4 52/52/4
f 49/49/4 57/57/4 60/60/4
f 65/65/6 70/70/6 66/66/6
f 65/65/6 69/69/6 70/70/6
f 74/74/5 77/77/5 73/73/5
f 74/74/5 78/78/5 77/77/5
f 69/69/2 78/78/2 70/70/2
f 69/69/2 77/77/2 78/78/2
f 66/66/4 73/73/4 65/65/4
f 66/66/4 74/74/4 73/73/4
f 66/66/3 71/71/3 67/67/3
f 66/66/3 70/70/3 71/71/3
f 75/75/1 78/78/1 74/74/1
f 75/75/1 79/79/1 78/78/1
f 70/70/2 79/79/2 71/71/2
f 70/70/2 78/78/2 79/79/2
f 67/67/4 74/74/4 66/66/4
f 67/67/4 75/75/4 74/74/4
f 67/67/5 72/72/5 68/68/5
f 67/67/5 71/71/5 72/72/5
f 76/76/6 79/79/6 75/75/6
f 76/76/6 80/80/6 79/79/6
f 71/71/2 80/80/2 72/72/2
f 71/71/2 79/79/2 80/80/2
f 68/68/4 75/75/4 67/67/4
f 68/68/4 76/76/4 75/75/4
f 68/68/1 69/69/1 65/65/1
f 68/68/1 72/72/1 69/69/1
f 73/73/3 80/80/3 76/76/3
f 73/73/3 77/77/3 80/80/3
f 72/72/2 77/77/2 69/69/2
f 72/72/2 80/80/2 77/77/2
f 65/65/4 76/76/4 68/68/4
f 65/65/4 73/73/4 76/76/4
f 81/81/6 86/86/6 82/82/6
f 81/81/6 85/85/6 86/86/6
f 90/90/5 93/93/5 89/89/5
f 90/90/5 94/94/5 93/93/5
f 85/85/3 94/94/3 86/86/3
f 85/85/3 93/93/3 94/94/3
f 82/82/1 89/89/1 81/81/1
f 82/82/1 90/90/1 89/89/1
f 82/82/4 87/87/4 83/83/4
f 82/82/4 86/86/4 87/87/4
f 91/91/2 94/94/2 90/90/2
f 91/91/2 95/95/2 94/94/2
f 86/86/3 95/95/3 87/87/3
f 86/86/3 94/94/3 95/95/3
f 83/83/1 90/90/1 82/82/1
f 83/83/1 91/91/1 90/90/1
f 83/83/5 88/88/5 84/84/5
f 83/83/5 87/87/5 88/88/5
f 92/92/6 95/95/6 91/91/6
f 92/92/6 96/96/6 95/95/6
f 87/87/3 96/96/3 88/88/3
f 87/87/3 95/95/3 96/96/3
f 84/84/1 91/91/1 83/83/1
f 84/84/1 92/92/1 91/91/1
f 84/84/2 85/85/2 81/81/2
f 84/84/2 88/88/2 85/85/2
f 89/89/4 96/96/4 92/92/4
f 89/89/4 93/93/4 96/96/4
f 88/88/3 93/93/3 85/85/3
f 88/88/3 96/96/3 93/93/3
f 81/81/1 92/92/1 84/84/1
f 81/81/1 89/89/1 92/92/1
f 97/97/6 102/102/6 98/98/6
f 97/97/6 101/101/6 102/102/6
f 106/106/5 109/109/5 105/105/5
f 106/106/5 110/110/5 109/109/5
f 101/101/3 110/110/3 102/102/3
f 101/101/3 109/109/3 110/110/3
f 98/98/1 105/105/1 97/97/1
f 98/98/1 106/106/1 105/105/1
f 98/98/4 103/103/4 99/99/4
f 98/98/4 102/102/4 103/103/4
f 107/107/2 110/110/2 106/106/2
f 107/107/2 111/111/2 110/110/2
f 102/102/3 111/111/3 103/103/3
f 102/102/3 110/110/3 111/111/3
f 99/99/1 106/106/1 98/98/1
f 99/99/1 107/107/1 106/106/1
f 99/99/5 104/104/5 100/100/5
f 99/99/5 103/103/5 104/104/5
f 108/108/6 111/111/6 107/107/6
f 108/108/6 112/112/6 111/111/6
f 103/103/3 112/112/3 104/104/3
f 103/103/3 111/111/3 112/112/3
f 100/100/1 107/107/1 99/99/1
f 100/100/1 108/108/1 107/107/1
f 100/100/2 101/101/2 97/97/2
f 100/100/2 104/104/2 101/101/2
f 105/105/4 112/112/4 108/108/4
f 105/105/4 109/109/4 112/112/4
f 104/104/3 109/109/3 101/101/3
f 104/104/3 112/112/3 109/109/3
f 97/97/1 108/108/1 100/100/1
f 97/97/1 105/105/1 108/108/1
f 113/113/6 118/118/6 114/114/6
f 113/113/6 117/117/6 118/118/6
f 122/122/5 125/125/5 121/121/5
f 122/122/5 126/126/5 125/125/5
f 117/117/4 126/126/4 118/118/4
f 117/117/4 125/125/4 126/126/4
f 114/114/2 121/121/2 113/113/2
f 114/114/2 122/122/2 121/121/2
f 114/114/1 119/119/1 115/115/1
f 114/114/1 118/118/1 119/119/1
f 123/123/3 126/126/3 122/122/3
f 123/123/3 127/127/3 126/126/3
f 118/118/4 127/127/4 119/119/4
f 118/118/4 126/126/4 127/127/4
f 115/115/2 122/122/2 114/114/2
f 115/115/2 123/123/2 122/122/2
f 115/115/5 120/120/5 116/116/5
f 115/115/5 119/119/5 120/120/5
f 124/124/6 127/127/6 123/123/6
f 124/124/6 128/128/6 127/127/6
f 119/119/4 128/128/4 120/120/4
f 119/119/4 127/127/4 128/128/4
f 116/116/2 123/123/2 115/115/2
f 116/116/2 124/124/2 123/123/2
f 116/116/3 117/117/3 113/113/3
f 116/116/3 120/120/3 117/117/3
f 121/121/1 128/128/1 124/124/1
f 121/121/1 125/125/1 128/128/1
f 120/120/4 125/125/4 117/117/4
f 120/120/4 128/128/4 125/125/4
f 113/113/2 124/124/2 116/116/2
f 113/113/2 121/121/2 124/124/2
f 129/129/6 134/134/6 130/130/6
f 129/129/6 133/133/6 134/134/6
f 138/138/5 141/141/5 137/137/5
f 138/138/5 142/142/5 141/141/5
f 133/133/4 142/142/4 134/134/4
f 133/133/4 141/141/4 142/142/4
f 130/130/2 137/137/2 129/129/2
f 130/130/2 138/138/2 137/137/2
f 130/130/1 135/135/1 131/131/1
f 130/130/1 134/134/1 135/135/1
f 139/139/3 142/142/3 138/138/3
f 139/139/3 143/143/3 142/142/3
f 134/134/4 143/143/4 135/135/4
f 134/134/4 142/142/4 143/143/4
f 131/131/2 138/138/2 130/130/2
f 131/131/2 139/139/2 138/138/2
f 131/131/5 136/136/5 132/132/5
f 131/131/5 135/135/5 136/136/5
f 140/140/6 143/143/6 139/139/6
f 140/140/6 144/144/6 143/143/6
f 135/135/4 144/144/4 136/136/4
f 135/135/4 143/143/4 144/144/4
f 132/132/2 139/139/2 131/131/2
f 132/132/2 140/140/2 139/139/2
f 132/132/3 133/133/3 129/129/3
f 132/132/3 136/136/3 133/133/3
f 137/137/1 144/144/1 140/140/1
f 137/137/1 141/141/1 144/144/1
f 136/136/4 141/141/4 133/133/4
f 136/136/4 144/144/4 141/141/4
f 129/129/2 140/140/2 132/132/2
f 129/129/2 137/137/2 140/140/2
f 145/145/1 150/150/1 146/146/1
f 145/145/1 149/149/1 150/150/1
f 154/154/3 157/157/3 153/153/3
f 154/154/3 158/158/3 157/157/3
f 149/149/5 158/158/5 150/150/5
f 149/149/5 157/157/5 158/158/5
f 146/146/6 153/153/6 145/145/6
f 146/146/6 154/154/6 153/153/6
f 146/146/2 151/151/2 147/147/2
f 146/146/2 150/150/2 151/151/2
f 155/155/4 158/158/4 154/154/4
f 155/155/4 159/159/4 158/158/4
f 150/150/5 159/159/5 151/151/5
f 150/150/5 158/158/5 159/159/5
f 147/147/6 154/154/6 146/146/6
f 147/147/6 155/155/6 154/154/6
f 147/147/3 152/152/3 148/148/3
f 147/147/3 151/151/3 152/152/3
f 156/156/1 159/159/1 155/155/1
f 156/156/1 160/160/1 159/159/1
f 151/151/5 160/160/5 152/152/5
f 151/151/5 159/159/5 160/160/5
f 148/148/6 155/155/6 147/147/6
f 148/148/6 156/156/6 155/155/6
f 148/148/4 149/149/4 145/145/4
f 148/148/4 152/152/4 149/149/4
f 153/153/2 160/160/2 156/156/2
f 153/153/2 157/157/2 160/160/2
f 152/152/5 157/157/5 149/149/5
f 152/152/5 160/160/5 157/157/5
f 145/145/6 156/156/6 148/148/6
f 145/145/6 153/153/6 156/156/6
f 161/161/1 166/166/1 162/162/1
f 161/161/1 165/165/1 166/166/1
f 170/170/3 173/173/3 169/169/3
f 170/170/3 174/174/3 173/173/3
f 165/165/5 174/174/5 166/166/5
f 165/165/5 173/173/5 174/174/5
f 162/162/6 169/169/6 161/161/6
f 162/162/6 170/170/6 169/169/6
f 162/162/2 167/167/2 163/163/2
f 162/162/2 166/166/2 167/167/2
f 171/171/4 174/174/4 170/170/4
f 171/171/4 175/175/4 174/174/4
f 166/166/5 175/175/5 167/167/5
f 166/166/5 174/174/5 175/175/5
f 163/163/6 170/170/6 162/162/6
f 163/163/6 171/171/6 170/170/6
f 163/163/3 168/168/3 164/164/3
f 163/163/3 167/167/3 168/168/3
f 172/172/1 175/175/1 171/171/1
f 172/172/1 176/176/1 175/175/1
f 167/167/5 176/176/5 168/168/5
f 167/167/5 175/175/5 176/176/5
f 164/164/6 171/171/6 163/163/6
f 164/164/6 172/172/6 171/171/6
f 164/164/4 165/165/4 161/161/4
f 164/164/4 168/168/4 165/165/4
f 169/169/2 176/176/2 172/172/2
f 169/169/2 173/173/2 176/176/2
f 168/168/5 173/173/5 165/165/5
f 168/168/5 176/176/5 173/173/5
f 161/161/6 172/172/6 164/164/6
f 161/161/6 169/169/6 172/172/6
f 177/177/1 182/182/1 178/178/1
f 177/177/1 181/181/1 182/182/1
f 186/186/3 189/189/3 185/185/3
f 186/186/3 190/190/3 189/189/3
f 181/181/5 190/190/5 182/182/5
f 181/181/5 189/189/5 190/190/5
f 178/178/6 185/185/6 177/177/6
f 178/178/6 186/186/6 185/185/6
f 178/178/2 183/183/2 179/179/2
f 178/178/2 182/182/2 183/183/2
f 187/187/4 190/190/4 186/186/4
f 187/187/4 191/191/4 190/190/4
f 182/182/5 191/191/5 183/183/5
f 182/182/5 190/190/5 191/191/5
f 179/179/6 186/186/6 178/178/6
f 179/179/6 187/187/6 186/186/6
f 179/179/3 184/184/3 180/180/3
f 179/179/3 183/183/3 184/184/3
f 188/188/1 191/191/1 187/187/1
f 188/188/1 192/192/1 191/191/1
f 183/183/5 192/192/5 184/184/5
f 183/183/5 191/191/5 192/192/5
f 180/180/6 187/187/6 179/179/6
f 180/180/6 188/188/6 187/187/6
f 180/180/4 181/181/4 177/177/4
f 180/180/4 184/184/4 181/181/4
f 185/185/2 192/192/2 188/188/2
f 185/185/2 189/189/2 192/192/2
f 184/184/5 189/189/5 181/181/5
f 184/184/5 192/192/5 189/189/5
f 177/177/6 188/188/6 180/180/6
f 177/177/6 185/185/6 188/188/6
f 193/193/2 194/194/2 198/198/2
f 193/193/2 198/198/2 197/197/2
f 194/194/1 195/195/1 199/199/1
f 194/194/1 199/199/1 198/198/1
f 195/195/4 196/196/4 200/200/4
f 195/195/4 200/200/4 199/199/4
f 196/196/3 193/193/3 197/197/3
f 196/196/3 197/197/3 200/200/3
f 197/197/5 198/198/5 199/199/5
f 197/197/5 199/199/5 200/200/5
f 196/196/6 195/195/6 194/194/6
f 196/196/6 194/194/6 193/193/6
f 201/201/3 202/202/3 206/206/3
f 201/201/3 206/206/3 205/205/3
f 202/202/2 203/203/2 207/207/2
f 202/202/2 207/207/2 206/206/2
f 203/203/1 204/204/1 208/208/1
f 203/203/1 208/208/1 207/207/1
f 204/204/4 201/201/4 205/205/4
f 204/204/4 205/205/4 208/208/4
f 205/205/5 206/206/5 207/207/5
f 205/205/5 207/207/5 208/208/5
f 204/204/6 203/203/6 202/202/6
f 204/204/6 202/202/6 201/201/6
f 209/209/2 210/210/2 214/214/2
f 209/209/2 214/214/2 213/213/2
f 210/210/1 211/211/1 215/215/1
f 210/210/1 215/215/1 214/214/1
f 211/211/4 212/212/4 216/216/4
f 211/211/4 216/216/4 215/215/4
f 212/212/3 209/209/3 213/213/3
f 212/212/3 213/213/3 216/216/3
f 213/213/5 214/214/5 215/215/5
f 213/213/5 215/215/5 216/216/5
f 212/212/6 211/211/6 210/210/6
f 212/212/6 210/210/6 209/209/6
f 217/217/3 218/218/3 222/222/3
f 217/217/3 222/222/3 221/221/3
f 218/218/2 219/219/2 223/223/2
f 218/218/2 223/223/2 222/222/2
f 219/219/1 220/220/1 224/224/1
f 219/219/1 224/224/1 223/223/1
f 220/220/4 217/217/4 221/221/4
f 220/220/4 221/221/4 224/224/4
f 221/221/5 222/222/5 223/223/5
f 221/221/5 223/223/5 224/224/5
f 220/220/6 219/219/6 218/218/6
f 220/220/6 218/218/6 217/217/6
f 225/225/3 226/226/3 230/230/3
f 225/225/3 230/230/3 229/229/3
f 226/226/2 227/227/2 231/231/2
f 226/226/2 231/231/2 230/230/2
f 227/227/1 228/228/1 232/232/1
f 227/227/1 232/232/1 231/231/1
f 228/228/4 225/225/4 229/229/4
f 228/228/4 229/229/4 232/232/4
f 229/229/5 230/230/5 231/231/5
f 229/229/5 231/231/5 232/232/5
f 228/228/6 227/227/6 226/226/6
f 228/228/6 226/226/6 225/225/6
f 233/233/4 234/234/4 238/238/4
f 233/233/4 238/238/4 237/237/4
f 234/234/3 235/235/3 239/239/3
f 234/234/3 239/239/3 238/238/3
f 235/235/2 236/236/2 240/240/2
f 235/235/2 240/240/2 239/239/2
f 236/236/1 233/233/1 237/237/1
f 236/236/1 237/237/1 240/240/1
f 237/237/5 238/238/5 239/239/5
f 237/237/5 239/239/5 240/240/5
f 236/236/6 235/235/6 234/234/6
f 236/236/6 234/234/6 233/233/6
f 241/241/3 242/242/3 246/246/3
f 241/241/3 246/246/3 245/245/3
f 242/242/2 243/243/2 247/247/2
f 242/242/2 247/247/2 246/246/2
f 243/243/1 244/244/1 248/248/1
f 243/243/1 248/248/1 247/247/1
f 244/244/4 241/241/4 245/245/4
f 244/244/4 245/245/4 248/248/4
f 245/245/5 246/246/5 247/247/5
f 245/245/5 247/247/5 248/248/5
f 244/244/6 243/243/6 242/242/6
f 244/244/6 242/242/6 241/241/6
f 249/249/4 250/250/4 254/254/4
f 249/249/4 254/254/4 253/253/4
f 250/250/3 251/251/3 255/255/3
f 250/250/3 255/255/3 254/254/3
f 251/251/2 252/252/2 256/256/2
f 251/251/2 256/256/2 255/255/2
f 252/252/1 249/249/1 253/253/1
f 252/252/1 253/253/1 256/256/1
f 253/253/5 254/254/5 255/255/5
f 253/253/5 255/255/5 256/256/5
f 252/252/6 251/251/6 250/250/6
f 252/252/6 250/250/6 249/249/6
f 257/257/4 258/258/4 262/262/4
f 257/257/4 262/262/4 261/261/4
f 258/258/3 259/259/3 263/263/3
f 258/258/3 263/263/3 262/262/3
f 259/259/2 260/260/2 264/264/2
f 259/259/2 264/264/2 263/263/2
f 260/260/1 257/257/1 261/261/1
f 260/260/1 261/261/1 264/264/1
f 261/261/5 262/262/5 263/263/5
f 261/261/5 263/263/5 264/264/5
f 260/260/6 259/259/6 258/258/6
f 260/260/6 258/258/6 257/257/6
f 265/265/1 266/266/1 270/270/1
f 265/265/1 270/270/1 269/269/1
f 266/266/4 267/267/4 271/271/4
f 266/266/4 271/271/4 270/270/4
f 267/267/3 268/268/3 272/272/3
f 267/267/3 272/272/3 271/271/3
f 268/268/2 265/265/2 269/269/2
f 268/268/2 269/269/2 272/272/2
f 269/269/5 270/270/5 271/271/5
f 269/269/5 271/271/5 272/272/5
f 268/268/6 267/267/6 266/266/6
f 268/268/6 266/266/6 265/265/6
f 273/273/4 274/274/4 278/278/4
f 273/273/4 278/278/4 277/277/4
f 274/274/3 275/275/3 279/279/3
f 274/274/3 279/279/3 278/278/3
f 275/275/2 276/276/2 280/280/2
f 275/275/2 280/280/2 279/279/2
f 276/276/1 273/273/1 277/277/1
f 276/276/1 277/277/1 280/280/1
f 277/277/5 278/278/5 279/279/5
f 277/277/5 279/279/5 280/280/5
f 276/276/6 275/275/6 274/274/6
f 276/276/6 274/274/6 273/273/6
f 281/281/1 282/282/1 286/286/1
f 281/281/1 286/286/1 285/285/1
f 282/282/4 283/283/4 287/287/4
f 282/282/4 287/287/4 286/286/4
f 283/283/3 284/284/3 288/288/3
f 283/283/3 288/288/3 287/287/3
f 284/284/2 281/281/2 285/285/2
f 284/284/2 285/285/2 288/288/2
f 285/285/5 286/286/5 287/287/5
f 285/285/5 287/287/5 288/288/5
f 284/284/6 283/283/6 282/282/6
f 284/284/6 282/282/6 281/281/6
f 289/289/1 290/290/1 294/294/1
f 289/289/1 294/294/1 293/293/1
f 290/290/4 291/291/4 295/295/4
f 290/290/4 295/295/4 294/294/4
f 291/291/3 292/292/3 296/296/3
f 291/291/3 296/296/3 295/295/3
f 292/292/2 289/289/2 293/293/2
f 292/292/2 293/293/2 296/296/2
f 293/293/5 294/294/5 295/295/5
f 293/293/5 295/295/5 296/296/5
f 292/292/6 291/291/6 290/290/6
f 292/292/6 290/290/6 289/289/6
f 297/297/2 298/298/2 302/302/2
f 297/297/2 302/302/2 301/301/2
f 298/298/1 299/299/1 303/303/1
f 298/298/1 303/303/1 302/302/1
f 299/299/4 300/300/4 304/304/4
f 299/299/4 304/304/4 303/303/4
f 300/300/3 297/297/3 301/301/3
f 300/300/3 301/301/3 304/304/3
f 301/301/5 302/302/5 303/303/5
f 301/301/5 303/303/5 304/304/5
f 300/300/6 299/299/6 298/298/6
f 300/300/6 298/298/6 297/297/6
f 305/305/1 306/306/1 310/310/1
f 305/305/1 310/310/1 309/309/1
f 306/306/4 307/307/4 311/311/4
f 306/306/4 311/311/4 310/310/4
f 307/307/3 308/308/3 312/312/3
f 307/307/3 312/312/3 311/311/3
f 308/308/2 305/305/2 309/309/2
f 308/308/2 309/309/2 312/312/2
f 309/309/5 310/310/5 311/311/5
f 309/309/5 311/311/5 312/312/5
f 308/308/6 307/307/6 306/306/6
f 308/308/6 306/306/6 305/305/6
f 313/313/2 314/314/2 318/318/2
f 313/313/2 318/318/2 317/317/2
f 314/314/1 315/315/1 319/319/1
f 314/314/1 319/319/1 318/318/1
f 315/315/4 316/316/4 320/320/4
f 315/315/4 320/320/4 319/319/4
f 316/316/3 313/313/3 317/317/3
f 316/316/3 317/317/3 320/320/3
f 317/317/5 318/318/5 319/319/5
f 317/317/5 319/319/5 320/320/5
f 316/316/6 315/315/6 314/314/6
f 316/316/6 314/314/6 313/313/6
