# Unreal legacy OBJ adapter: canonical vertices are UE cm; this file is written with Y reflected and triangle winding reversed. One object, no g groups, so the importer creates exactly one material slot.
# OldCityFacadesV1 20260908T024235646425Z
# source jerusalem.json sha256 76a2b76c0d97f45db7e532b3adbe8b58c02956fa0d3de73db71e31e097ea6463
# alignment UEcm = ((x+17.509700315687695)*50, (z-0.551349644938533)*50, y*50) - already baked, never reapplied
# shell standoff 6.0 cm outside every imported face
# AUTHORED detail: invented Old City massing, not survey
o SM_OldCityInfill_Grid_N001_N007
s off
v -1783.38 59097.13 721.02
v -3199.63 58754.94 721.02
v -3519.73 60079.82 721.02
v -2103.49 60422.00 721.02
v -1783.38 59097.13 1681.02
v -3199.63 58754.94 1681.02
v -3519.73 60079.82 1681.02
v -2103.49 60422.00 1681.02
v -1926.49 59050.20 811.02
v -2023.69 59026.72 811.02
v -2023.69 59026.72 991.02
v -1926.49 59050.20 991.02
v -1923.20 59036.60 811.02
v -2020.40 59013.11 811.02
v -2020.40 59013.11 991.02
v -1923.20 59036.60 991.02
v -1940.09 59046.92 825.02
v -2010.08 59030.01 825.02
v -2010.08 59030.01 977.02
v -1940.09 59046.92 977.02
v -1936.81 59033.31 825.02
v -2006.79 59016.40 825.02
v -2006.79 59016.40 977.02
v -1936.81 59033.31 977.02
v -1926.49 59050.20 1131.02
v -2023.69 59026.72 1131.02
v -2023.69 59026.72 1311.02
v -1926.49 59050.20 1311.02
v -1923.20 59036.60 1131.02
v -2020.40 59013.11 1131.02
v -2020.40 59013.11 1311.02
v -1923.20 59036.60 1311.02
v -1940.09 59046.92 1145.02
v -2010.08 59030.01 1145.02
v -2010.08 59030.01 1297.02
v -1940.09 59046.92 1297.02
v -1936.81 59033.31 1145.02
v -2006.79 59016.40 1145.02
v -2006.79 59016.40 1297.02
v -1936.81 59033.31 1297.02
v -2268.88 58967.48 811.02
v -2366.09 58943.99 811.02
v -2366.09 58943.99 991.02
v -2268.88 58967.48 991.02
v -2265.60 58953.87 811.02
v -2362.80 58930.38 811.02
v -2362.80 58930.38 991.02
v -2265.60 58953.87 991.02
v -2282.49 58964.19 825.02
v -2352.48 58947.28 825.02
v -2352.48 58947.28 977.02
v -2282.49 58964.19 977.02
v -2279.20 58950.58 825.02
v -2349.19 58933.67 825.02
v -2349.19 58933.67 977.02
v -2279.20 58950.58 977.02
v -2268.88 58967.48 1131.02
v -2366.09 58943.99 1131.02
v -2366.09 58943.99 1261.02
v -2341.79 58949.86 1304.32
v -2293.18 58961.60 1304.32
v -2268.88 58967.48 1261.02
v -2265.60 58953.87 1131.02
v -2362.80 58930.38 1131.02
v -2362.80 58930.38 1261.02
v -2338.50 58936.25 1304.32
v -2289.90 58948.00 1304.32
v -2265.60 58953.87 1261.02
v -2282.49 58964.19 1145.02
v -2352.48 58947.28 1145.02
v -2352.48 58947.28 1261.02
v -2334.98 58951.51 1292.19
v -2299.99 58959.96 1292.19
v -2282.49 58964.19 1261.02
v -2279.20 58950.58 1145.02
v -2349.19 58933.67 1145.02
v -2349.19 58933.67 1261.02
v -2331.69 58937.90 1292.19
v -2296.70 58946.35 1292.19
v -2279.20 58950.58 1261.02
v -2611.28 58884.75 811.02
v -2708.48 58861.26 811.02
v -2708.48 58861.26 991.02
v -2611.28 58884.75 991.02
v -2607.99 58871.14 811.02
v -2705.20 58847.65 811.02
v -2705.20 58847.65 991.02
v -2607.99 58871.14 991.02
v -2624.89 58881.46 825.02
v -2694.88 58864.55 825.02
v -2694.88 58864.55 977.02
v -2624.89 58881.46 977.02
v -2621.60 58867.85 825.02
v -2691.59 58850.94 825.02
v -2691.59 58850.94 977.02
v -2621.60 58867.85 977.02
v -2611.28 58884.75 1131.02
v -2708.48 58861.26 1131.02
v -2708.48 58861.26 1311.02
v -2611.28 58884.75 1311.02
v -2607.99 58871.14 1131.02
v -2705.20 58847.65 1131.02
v -2705.20 58847.65 1311.02
v -2607.99 58871.14 1311.02
v -2624.89 58881.46 1145.02
v -2694.88 58864.55 1145.02
v -2694.88 58864.55 1297.02
v -2624.89 58881.46 1297.02
v -2621.60 58867.85 1145.02
v -2691.59 58850.94 1145.02
v -2691.59 58850.94 1297.02
v -2621.60 58867.85 1297.02
v -2953.68 58802.02 811.02
v -3050.88 58778.53 811.02
v -3050.88 58778.53 991.02
v -2953.68 58802.02 991.02
v -2950.39 58788.41 811.02
v -3047.59 58764.93 811.02
v -3047.59 58764.93 991.02
v -2950.39 58788.41 991.02
v -2967.29 58798.73 825.02
v -3037.27 58781.82 825.02
v -3037.27 58781.82 977.02
v -2967.29 58798.73 977.02
v -2964.00 58785.12 825.02
v -3033.99 58768.21 825.02
v -3033.99 58768.21 977.02
v -2964.00 58785.12 977.02
v -2953.68 58802.02 1131.02
v -3050.88 58778.53 1131.02
v -3050.88 58778.53 1311.02
v -2953.68 58802.02 1311.02
v -2950.39 58788.41 1131.02
v -3047.59 58764.93 1131.02
v -3047.59 58764.93 1311.02
v -2950.39 58788.41 1311.02
v -2967.29 58798.73 1145.02
v -3037.27 58781.82 1145.02
v -3037.27 58781.82 1297.02
v -2967.29 58798.73 1297.02
v -2964.00 58785.12 1145.02
v -3033.99 58768.21 1145.02
v -3033.99 58768.21 1297.02
v -2964.00 58785.12 1297.02
v -2430.36 58928.46 721.02
v -2547.01 58900.28 721.02
v -2547.01 58900.28 891.02
v -2517.84 58907.32 942.98
v -2459.52 58921.41 942.98
v -2430.36 58928.46 891.02
v -2425.66 58909.02 721.02
v -2542.31 58880.84 721.02
v -2542.31 58880.84 891.02
v -2513.15 58887.88 942.98
v -2454.83 58901.97 942.98
v -2425.66 58909.02 891.02
v -2447.86 58924.23 739.02
v -2529.51 58904.51 739.02
v -2529.51 58904.51 891.02
v -2509.10 58909.44 927.39
v -2468.27 58919.30 927.39
v -2447.86 58924.23 891.02
v -2443.16 58904.79 739.02
v -2524.81 58885.06 739.02
v -2524.81 58885.06 891.02
v -2504.40 58890.00 927.39
v -2463.57 58899.86 927.39
v -2443.16 58904.79 891.02
v -2410.92 58933.16 717.02
v -2566.45 58895.58 717.02
v -2560.34 58870.31 717.02
v -2404.82 58907.88 717.02
v -2410.92 58933.16 733.02
v -2566.45 58895.58 733.02
v -2560.34 58870.31 733.02
v -2404.82 58907.88 733.02
v -3243.79 58886.63 811.02
v -3267.27 58983.83 811.02
v -3267.27 58983.83 991.02
v -3243.79 58886.63 991.02
v -3257.40 58883.34 811.02
v -3280.88 58980.54 811.02
v -3280.88 58980.54 991.02
v -3257.40 58883.34 991.02
v -3247.08 58900.24 825.02
v -3263.99 58970.22 825.02
v -3263.99 58970.22 977.02
v -3247.08 58900.24 977.02
v -3260.69 58896.95 825.02
v -3277.59 58966.93 825.02
v -3277.59 58966.93 977.02
v -3260.69 58896.95 977.02
v -3243.79 58886.63 1131.02
v -3267.27 58983.83 1131.02
v -3267.27 58983.83 1311.02
v -3243.79 58886.63 1311.02
v -3257.40 58883.34 1131.02
v -3280.88 58980.54 1131.02
v -3280.88 58980.54 1311.02
v -3257.40 58883.34 1311.02
v -3247.08 58900.24 1145.02
v -3263.99 58970.22 1145.02
v -3263.99 58970.22 1297.02
v -3247.08 58900.24 1297.02
v -3260.69 58896.95 1145.02
v -3277.59 58966.93 1145.02
v -3277.59 58966.93 1297.02
v -3260.69 58896.95 1297.02
v -3321.00 59206.18 811.02
v -3344.48 59303.39 811.02
v -3344.48 59303.39 991.02
v -3321.00 59206.18 991.02
v -3334.61 59202.89 811.02
v -3358.09 59300.10 811.02
v -3358.09 59300.10 991.02
v -3334.61 59202.89 991.02
v -3324.29 59219.79 825.02
v -3341.20 59289.78 825.02
v -3341.20 59289.78 977.02
v -3324.29 59219.79 977.02
v -3337.89 59216.50 825.02
v -3354.80 59286.49 825.02
v -3354.80 59286.49 977.02
v -3337.89 59216.50 977.02
v -3321.00 59206.18 1131.02
v -3344.48 59303.39 1131.02
v -3344.48 59303.39 1311.02
v -3321.00 59206.18 1311.02
v -3334.61 59202.89 1131.02
v -3358.09 59300.10 1131.02
v -3358.09 59300.10 1311.02
v -3334.61 59202.89 1311.02
v -3324.29 59219.79 1145.02
v -3341.20 59289.78 1145.02
v -3341.20 59289.78 1297.02
v -3324.29 59219.79 1297.02
v -3337.89 59216.50 1145.02
v -3354.80 59286.49 1145.02
v -3354.80 59286.49 1297.02
v -3337.89 59216.50 1297.02
v -3398.21 59525.74 811.02
v -3421.69 59622.94 811.02
v -3421.69 59622.94 991.02
v -3398.21 59525.74 991.02
v -3411.81 59522.45 811.02
v -3435.30 59619.65 811.02
v -3435.30 59619.65 991.02
v -3411.81 59522.45 991.02
v -3401.49 59539.35 825.02
v -3418.40 59609.33 825.02
v -3418.40 59609.33 977.02
v -3401.49 59539.35 977.02
v -3415.10 59536.06 825.02
v -3432.01 59606.04 825.02
v -3432.01 59606.04 977.02
v -3415.10 59536.06 977.02
v -3398.21 59525.74 1131.02
v -3421.69 59622.94 1131.02
v -3421.69 59622.94 1261.02
v -3415.82 59598.64 1304.32
v -3404.08 59550.04 1304.32
v -3398.21 59525.74 1261.02
v -3411.81 59522.45 1131.02
v -3435.30 59619.65 1131.02
v -3435.30 59619.65 1261.02
v -3429.43 59595.35 1304.32
v -3417.69 59546.75 1304.32
v -3411.81 59522.45 1261.02
v -3401.49 59539.35 1145.02
v -3418.40 59609.33 1145.02
v -3418.40 59609.33 1261.02
v -3414.18 59591.84 1292.19
v -3405.72 59556.84 1292.19
v -3401.49 59539.35 1261.02
v -3415.10 59536.06 1145.02
v -3432.01 59606.04 1145.02
v -3432.01 59606.04 1261.02
v -3427.79 59588.55 1292.19
v -3419.33 59553.55 1292.19
v -3415.10 59536.06 1261.02
v -3475.42 59845.29 811.02
v -3498.90 59942.50 811.02
v -3498.90 59942.50 991.02
v -3475.42 59845.29 991.02
v -3489.02 59842.00 811.02
v -3512.51 59939.21 811.02
v -3512.51 59939.21 991.02
v -3489.02 59842.00 991.02
v -3478.70 59858.90 825.02
v -3495.61 59928.89 825.02
v -3495.61 59928.89 977.02
v -3478.70 59858.90 977.02
v -3492.31 59855.61 825.02
v -3509.22 59925.60 825.02
v -3509.22 59925.60 977.02
v -3492.31 59855.61 977.02
v -3475.42 59845.29 1131.02
v -3498.90 59942.50 1131.02
v -3498.90 59942.50 1261.02
v -3493.03 59918.19 1304.32
v -3481.29 59869.59 1304.32
v -3475.42 59845.29 1261.02
v -3489.02 59842.00 1131.02
v -3512.51 59939.21 1131.02
v -3512.51 59939.21 1261.02
v -3506.64 59914.91 1304.32
v -3494.90 59866.30 1304.32
v -3489.02 59842.00 1261.02
v -3478.70 59858.90 1145.02
v -3495.61 59928.89 1145.02
v -3495.61 59928.89 1261.02
v -3491.39 59911.39 1292.19
v -3482.93 59876.40 1292.19
v -3478.70 59858.90 1261.02
v -3492.31 59855.61 1145.02
v -3509.22 59925.60 1145.02
v -3509.22 59925.60 1261.02
v -3504.99 59908.10 1292.19
v -3496.54 59873.11 1292.19
v -3492.31 59855.61 1261.02
v -3376.63 60126.74 811.02
v -3279.42 60150.23 811.02
v -3279.42 60150.23 991.02
v -3376.63 60126.74 991.02
v -3379.91 60140.35 811.02
v -3282.71 60163.83 811.02
v -3282.71 60163.83 991.02
v -3379.91 60140.35 991.02
v -3363.02 60130.03 825.02
v -3293.03 60146.94 825.02
v -3293.03 60146.94 977.02
v -3363.02 60130.03 977.02
v -3366.31 60143.64 825.02
v -3296.32 60160.55 825.02
v -3296.32 60160.55 977.02
v -3366.31 60143.64 977.02
v -3376.63 60126.74 1131.02
v -3279.42 60150.23 1131.02
v -3279.42 60150.23 1311.02
v -3376.63 60126.74 1311.02
v -3379.91 60140.35 1131.02
v -3282.71 60163.83 1131.02
v -3282.71 60163.83 1311.02
v -3379.91 60140.35 1311.02
v -3363.02 60130.03 1145.02
v -3293.03 60146.94 1145.02
v -3293.03 60146.94 1297.02
v -3363.02 60130.03 1297.02
v -3366.31 60143.64 1145.02
v -3296.32 60160.55 1145.02
v -3296.32 60160.55 1297.02
v -3366.31 60143.64 1297.02
v -3034.23 60209.47 811.02
v -2937.03 60232.95 811.02
v -2937.03 60232.95 991.02
v -3034.23 60209.47 991.02
v -3037.52 60223.08 811.02
v -2940.31 60246.56 811.02
v -2940.31 60246.56 991.02
v -3037.52 60223.08 991.02
v -3020.62 60212.76 825.02
v -2950.63 60229.67 825.02
v -2950.63 60229.67 977.02
v -3020.62 60212.76 977.02
v -3023.91 60226.36 825.02
v -2953.92 60243.27 825.02
v -2953.92 60243.27 977.02
v -3023.91 60226.36 977.02
v -3034.23 60209.47 1131.02
v -2937.03 60232.95 1131.02
v -2937.03 60232.95 1261.02
v -2961.33 60227.08 1304.32
v -3009.93 60215.34 1304.32
v -3034.23 60209.47 1261.02
v -3037.52 60223.08 1131.02
v -2940.31 60246.56 1131.02
v -2940.31 60246.56 1261.02
v -2964.61 60240.69 1304.32
v -3013.22 60228.95 1304.32
v -3037.52 60223.08 1261.02
v -3020.62 60212.76 1145.02
v -2950.63 60229.67 1145.02
v -2950.63 60229.67 1261.02
v -2968.13 60225.44 1292.19
v -3003.12 60216.98 1292.19
v -3020.62 60212.76 1261.02
v -3023.91 60226.36 1145.02
v -2953.92 60243.27 1145.02
v -2953.92 60243.27 1261.02
v -2971.42 60239.05 1292.19
v -3006.41 60230.59 1292.19
v -3023.91 60226.36 1261.02
v -2691.83 60292.20 811.02
v -2594.63 60315.68 811.02
v -2594.63 60315.68 991.02
v -2691.83 60292.20 991.02
v -2695.12 60305.80 811.02
v -2597.92 60329.29 811.02
v -2597.92 60329.29 991.02
v -2695.12 60305.80 991.02
v -2678.22 60295.48 825.02
v -2608.24 60312.39 825.02
v -2608.24 60312.39 977.02
v -2678.22 60295.48 977.02
v -2681.51 60309.09 825.02
v -2611.52 60326.00 825.02
v -2611.52 60326.00 977.02
v -2681.51 60309.09 977.02
v -2691.83 60292.20 1131.02
v -2594.63 60315.68 1131.02
v -2594.63 60315.68 1311.02
v -2691.83 60292.20 1311.02
v -2695.12 60305.80 1131.02
v -2597.92 60329.29 1131.02
v -2597.92 60329.29 1311.02
v -2695.12 60305.80 1311.02
v -2678.22 60295.48 1145.02
v -2608.24 60312.39 1145.02
v -2608.24 60312.39 1297.02
v -2678.22 60295.48 1297.02
v -2681.51 60309.09 1145.02
v -2611.52 60326.00 1145.02
v -2611.52 60326.00 1297.02
v -2681.51 60309.09 1297.02
v -2349.43 60374.92 811.02
v -2252.23 60398.41 811.02
v -2252.23 60398.41 991.02
v -2349.43 60374.92 991.02
v -2352.72 60388.53 811.02
v -2255.52 60412.02 811.02
v -2255.52 60412.02 991.02
v -2352.72 60388.53 991.02
v -2335.83 60378.21 825.02
v -2265.84 60395.12 825.02
v -2265.84 60395.12 977.02
v -2335.83 60378.21 977.02
v -2339.11 60391.82 825.02
v -2269.13 60408.73 825.02
v -2269.13 60408.73 977.02
v -2339.11 60391.82 977.02
v -2349.43 60374.92 1131.02
v -2252.23 60398.41 1131.02
v -2252.23 60398.41 1311.02
v -2349.43 60374.92 1311.02
v -2352.72 60388.53 1131.02
v -2255.52 60412.02 1131.02
v -2255.52 60412.02 1311.02
v -2352.72 60388.53 1311.02
v -2335.83 60378.21 1145.02
v -2265.84 60395.12 1145.02
v -2265.84 60395.12 1297.02
v -2335.83 60378.21 1297.02
v -2339.11 60391.82 1145.02
v -2269.13 60408.73 1145.02
v -2269.13 60408.73 1297.02
v -2339.11 60391.82 1297.02
v -2059.32 60290.32 811.02
v -2035.84 60193.11 811.02
v -2035.84 60193.11 991.02
v -2059.32 60290.32 991.02
v -2045.72 60293.60 811.02
v -2022.23 60196.40 811.02
v -2022.23 60196.40 991.02
v -2045.72 60293.60 991.02
v -2056.04 60276.71 825.02
v -2039.13 60206.72 825.02
v -2039.13 60206.72 977.02
v -2056.04 60276.71 977.02
v -2042.43 60280.00 825.02
v -2025.52 60210.01 825.02
v -2025.52 60210.01 977.02
v -2042.43 60280.00 977.02
v -2059.32 60290.32 1131.02
v -2035.84 60193.11 1131.02
v -2035.84 60193.11 1311.02
v -2059.32 60290.32 1311.02
v -2045.72 60293.60 1131.02
v -2022.23 60196.40 1131.02
v -2022.23 60196.40 1311.02
v -2045.72 60293.60 1311.02
v -2056.04 60276.71 1145.02
v -2039.13 60206.72 1145.02
v -2039.13 60206.72 1297.02
v -2056.04 60276.71 1297.02
v -2042.43 60280.00 1145.02
v -2025.52 60210.01 1145.02
v -2025.52 60210.01 1297.02
v -2042.43 60280.00 1297.02
v -1982.12 59970.76 811.02
v -1958.63 59873.56 811.02
v -1958.63 59873.56 991.02
v -1982.12 59970.76 991.02
v -1968.51 59974.05 811.02
v -1945.02 59876.85 811.02
v -1945.02 59876.85 991.02
v -1968.51 59974.05 991.02
v -1978.83 59957.15 825.02
v -1961.92 59887.17 825.02
v -1961.92 59887.17 977.02
v -1978.83 59957.15 977.02
v -1965.22 59960.44 825.02
v -1948.31 59890.45 825.02
v -1948.31 59890.45 977.02
v -1965.22 59960.44 977.02
v -1982.12 59970.76 1131.02
v -1958.63 59873.56 1131.02
v -1958.63 59873.56 1311.02
v -1982.12 59970.76 1311.02
v -1968.51 59974.05 1131.02
v -1945.02 59876.85 1131.02
v -1945.02 59876.85 1311.02
v -1968.51 59974.05 1311.02
v -1978.83 59957.15 1145.02
v -1961.92 59887.17 1145.02
v -1961.92 59887.17 1297.02
v -1978.83 59957.15 1297.02
v -1965.22 59960.44 1145.02
v -1948.31 59890.45 1145.02
v -1948.31 59890.45 1297.02
v -1965.22 59960.44 1297.02
v -1904.91 59651.21 811.02
v -1881.42 59554.00 811.02
v -1881.42 59554.00 991.02
v -1904.91 59651.21 991.02
v -1891.30 59654.49 811.02
v -1867.81 59557.29 811.02
v -1867.81 59557.29 991.02
v -1891.30 59654.49 991.02
v -1901.62 59637.60 825.02
v -1884.71 59567.61 825.02
v -1884.71 59567.61 977.02
v -1901.62 59637.60 977.02
v -1888.01 59640.89 825.02
v -1871.10 59570.90 825.02
v -1871.10 59570.90 977.02
v -1888.01 59640.89 977.02
v -1904.91 59651.21 1131.02
v -1881.42 59554.00 1131.02
v -1881.42 59554.00 1311.02
v -1904.91 59651.21 1311.02
v -1891.30 59654.49 1131.02
v -1867.81 59557.29 1131.02
v -1867.81 59557.29 1311.02
v -1891.30 59654.49 1311.02
v -1901.62 59637.60 1145.02
v -1884.71 59567.61 1145.02
v -1884.71 59567.61 1297.02
v -1901.62 59637.60 1297.02
v -1888.01 59640.89 1145.02
v -1871.10 59570.90 1145.02
v -1871.10 59570.90 1297.02
v -1888.01 59640.89 1297.02
v -1827.70 59331.65 811.02
v -1804.21 59234.45 811.02
v -1804.21 59234.45 991.02
v -1827.70 59331.65 991.02
v -1814.09 59334.94 811.02
v -1790.60 59237.74 811.02
v -1790.60 59237.74 991.02
v -1814.09 59334.94 991.02
v -1824.41 59318.04 825.02
v -1807.50 59248.06 825.02
v -1807.50 59248.06 977.02
v -1824.41 59318.04 977.02
v -1810.80 59321.33 825.02
v -1793.89 59251.35 825.02
v -1793.89 59251.35 977.02
v -1810.80 59321.33 977.02
v -1827.70 59331.65 1131.02
v -1804.21 59234.45 1131.02
v -1804.21 59234.45 1311.02
v -1827.70 59331.65 1311.02
v -1814.09 59334.94 1131.02
v -1790.60 59237.74 1131.02
v -1790.60 59237.74 1311.02
v -1814.09 59334.94 1311.02
v -1824.41 59318.04 1145.02
v -1807.50 59248.06 1145.02
v -1807.50 59248.06 1297.02
v -1824.41 59318.04 1297.02
v -1810.80 59321.33 1145.02
v -1793.89 59251.35 1145.02
v -1793.89 59251.35 1297.02
v -1810.80 59321.33 1297.02
v -1761.65 59083.86 1651.02
v -3212.90 58733.22 1651.02
v -3541.46 60093.09 1651.02
v -2090.22 60443.73 1651.02
v -1761.65 59083.86 1665.02
v -3212.90 58733.22 1665.02
v -3541.46 60093.09 1665.02
v -2090.22 60443.73 1665.02
v -1776.14 59092.70 1651.02
v -3204.05 58747.70 1651.02
v -3526.98 60084.24 1651.02
v -2099.06 60429.24 1651.02
v -1776.14 59092.70 1665.02
v -3204.05 58747.70 1665.02
v -3526.98 60084.24 1665.02
v -2099.06 60429.24 1665.02
v -1749.59 59076.48 1629.02
v -3220.27 58721.15 1629.02
v -3553.53 60100.46 1629.02
v -2082.85 60455.80 1629.02
v -1749.59 59076.48 1657.02
v -3220.27 58721.15 1657.02
v -3553.53 60100.46 1657.02
v -2082.85 60455.80 1657.02
v -1776.14 59092.70 1629.02
v -3204.05 58747.70 1629.02
v -3526.98 60084.24 1629.02
v -2099.06 60429.24 1629.02
v -1776.14 59092.70 1657.02
v -3204.05 58747.70 1657.02
v -3526.98 60084.24 1657.02
v -2099.06 60429.24 1657.02
v -1756.83 59080.91 1687.02
v -3215.84 58728.39 1687.02
v -3546.29 60096.04 1687.02
v -2087.27 60448.55 1687.02
v -1756.83 59080.91 1757.02
v -3215.84 58728.39 1757.02
v -3546.29 60096.04 1757.02
v -2087.27 60448.55 1757.02
v -1819.58 59119.24 1687.02
v -3177.51 58791.15 1687.02
v -3483.53 60057.70 1687.02
v -2125.60 60385.80 1687.02
v -1819.58 59119.24 1757.02
v -3177.51 58791.15 1757.02
v -3483.53 60057.70 1757.02
v -2125.60 60385.80 1757.02
v -1794.93 59170.47 746.02
v -1776.14 59092.70 746.02
v -1766.42 59095.05 746.02
v -1785.20 59172.81 746.02
v -1794.93 59170.47 801.02
v -1776.14 59092.70 801.02
v -1766.42 59095.05 801.02
v -1785.20 59172.81 801.02
v -1776.14 59092.70 818.02
v -1830.57 59079.55 818.02
v -1828.22 59069.83 818.02
v -1773.79 59082.98 818.02
v -1776.14 59092.70 873.02
v -1830.57 59079.55 873.02
v -1828.22 59069.83 873.02
v -1773.79 59082.98 873.02
v -1794.93 59170.47 890.02
v -1776.14 59092.70 890.02
v -1766.42 59095.05 890.02
v -1785.20 59172.81 890.02
v -1794.93 59170.47 945.02
v -1776.14 59092.70 945.02
v -1766.42 59095.05 945.02
v -1785.20 59172.81 945.02
v -1776.14 59092.70 962.02
v -1830.57 59079.55 962.02
v -1828.22 59069.83 962.02
v -1773.79 59082.98 962.02
v -1776.14 59092.70 1017.02
v -1830.57 59079.55 1017.02
v -1828.22 59069.83 1017.02
v -1773.79 59082.98 1017.02
v -3126.29 58766.49 746.02
v -3204.05 58747.70 746.02
v -3201.70 58737.98 746.02
v -3123.94 58756.77 746.02
v -3126.29 58766.49 801.02
v -3204.05 58747.70 801.02
v -3201.70 58737.98 801.02
v -3123.94 58756.77 801.02
v -3204.05 58747.70 818.02
v -3217.20 58802.13 818.02
v -3226.92 58799.78 818.02
v -3213.77 58745.35 818.02
v -3204.05 58747.70 873.02
v -3217.20 58802.13 873.02
v -3226.92 58799.78 873.02
v -3213.77 58745.35 873.02
v -3126.29 58766.49 890.02
v -3204.05 58747.70 890.02
v -3201.70 58737.98 890.02
v -3123.94 58756.77 890.02
v -3126.29 58766.49 945.02
v -3204.05 58747.70 945.02
v -3201.70 58737.98 945.02
v -3123.94 58756.77 945.02
v -3204.05 58747.70 962.02
v -3217.20 58802.13 962.02
v -3226.92 58799.78 962.02
v -3213.77 58745.35 962.02
v -3204.05 58747.70 1017.02
v -3217.20 58802.13 1017.02
v -3226.92 58799.78 1017.02
v -3213.77 58745.35 1017.02
v -3508.19 60006.48 746.02
v -3526.98 60084.24 746.02
v -3536.70 60081.89 746.02
v -3517.91 60004.13 746.02
v -3508.19 60006.48 801.02
v -3526.98 60084.24 801.02
v -3536.70 60081.89 801.02
v -3517.91 60004.13 801.02
v -3526.98 60084.24 818.02
v -3472.54 60097.39 818.02
v -3474.89 60107.11 818.02
v -3529.32 60093.96 818.02
v -3526.98 60084.24 873.02
v -3472.54 60097.39 873.02
v -3474.89 60107.11 873.02
v -3529.32 60093.96 873.02
v -3508.19 60006.48 890.02
v -3526.98 60084.24 890.02
v -3536.70 60081.89 890.02
v -3517.91 60004.13 890.02
v -3508.19 60006.48 945.02
v -3526.98 60084.24 945.02
v -3536.70 60081.89 945.02
v -3517.91 60004.13 945.02
v -3526.98 60084.24 962.02
v -3472.54 60097.39 962.02
v -3474.89 60107.11 962.02
v -3529.32 60093.96 962.02
v -3526.98 60084.24 1017.02
v -3472.54 60097.39 1017.02
v -3474.89 60107.11 1017.02
v -3529.32 60093.96 1017.02
v -2176.83 60410.46 746.02
v -2099.06 60429.24 746.02
v -2101.41 60438.96 746.02
v -2179.17 60420.18 746.02
v -2176.83 60410.46 801.02
v -2099.06 60429.24 801.02
v -2101.41 60438.96 801.02
v -2179.17 60420.18 801.02
v -2099.06 60429.24 818.02
v -2085.91 60374.81 818.02
v -2076.19 60377.16 818.02
v -2089.34 60431.59 818.02
v -2099.06 60429.24 873.02
v -2085.91 60374.81 873.02
v -2076.19 60377.16 873.02
v -2089.34 60431.59 873.02
v -2176.83 60410.46 890.02
v -2099.06 60429.24 890.02
v -2101.41 60438.96 890.02
v -2179.17 60420.18 890.02
v -2176.83 60410.46 945.02
v -2099.06 60429.24 945.02
v -2101.41 60438.96 945.02
v -2179.17 60420.18 945.02
v -2099.06 60429.24 962.02
v -2085.91 60374.81 962.02
v -2076.19 60377.16 962.02
v -2089.34 60431.59 962.02
v -2099.06 60429.24 1017.02
v -2085.91 60374.81 1017.02
v -2076.19 60377.16 1017.02
v -2089.34 60431.59 1017.02
vt -152.2013 1.8025
vt -154.8864 1.8025
vt -158.9989 1.8025
vt -156.3137 1.8025
vt -152.2013 4.2025
vt -154.8864 4.2025
vt -158.9989 4.2025
vt -156.3137 4.2025
vt -152.4417 2.0275
vt -152.6260 2.0275
vt -152.6260 2.4775
vt -152.4417 2.4775
vt -152.3995 2.0275
vt -152.5838 2.0275
vt -152.5838 2.4775
vt -152.3995 2.4775
vt -152.4675 2.0625
vt -152.6002 2.0625
vt -152.6002 2.4425
vt -152.4675 2.4425
vt -152.4253 2.0625
vt -152.5580 2.0625
vt -152.5580 2.4425
vt -152.4253 2.4425
vt -152.4417 2.8276
vt -152.6260 2.8276
vt -152.6260 3.2775
vt -152.4417 3.2775
vt -152.3995 2.8276
vt -152.5838 2.8276
vt -152.5838 3.2775
vt -152.3995 3.2775
vt -152.4675 2.8626
vt -152.6002 2.8626
vt -152.6002 3.2426
vt -152.4675 3.2426
vt -152.4253 2.8626
vt -152.5580 2.8626
vt -152.5580 3.2426
vt -152.4253 3.2426
vt -153.0909 2.0275
vt -153.2752 2.0275
vt -153.2752 2.4775
vt -153.0909 2.4775
vt -153.0487 2.0275
vt -153.2329 2.0275
vt -153.2329 2.4775
vt -153.0487 2.4775
vt -153.1167 2.0625
vt -153.2494 2.0625
vt -153.2494 2.4425
vt -153.1167 2.4425
vt -153.0744 2.0625
vt -153.2072 2.0625
vt -153.2072 2.4425
vt -153.0744 2.4425
vt -153.0909 2.8276
vt -153.2752 2.8276
vt -153.2752 3.1525
vt -153.2291 3.2608
vt -153.1369 3.2608
vt -153.0909 3.1525
vt -153.0487 2.8276
vt -153.2329 2.8276
vt -153.2329 3.1525
vt -153.1869 3.2608
vt -153.0948 3.2608
vt -153.0487 3.1525
vt -153.1167 2.8626
vt -153.2494 2.8626
vt -153.2494 3.1525
vt -153.2162 3.2305
vt -153.1499 3.2305
vt -153.1167 3.1525
vt -153.0744 2.8626
vt -153.2072 2.8626
vt -153.2072 3.1525
vt -153.1740 3.2305
vt -153.1076 3.2305
vt -153.0744 3.1525
vt -153.7401 2.0275
vt -153.9244 2.0275
vt -153.9244 2.4775
vt -153.7401 2.4775
vt -153.6978 2.0275
vt -153.8821 2.0275
vt -153.8821 2.4775
vt -153.6978 2.4775
vt -153.7659 2.0625
vt -153.8986 2.0625
vt -153.8986 2.4425
vt -153.7659 2.4425
vt -153.7236 2.0625
vt -153.8563 2.0625
vt -153.8563 2.4425
vt -153.7236 2.4425
vt -153.7401 2.8276
vt -153.9244 2.8276
vt -153.9244 3.2775
vt -153.7401 3.2775
vt -153.6978 2.8276
vt -153.8821 2.8276
vt -153.8821 3.2775
vt -153.6978 3.2775
vt -153.7659 2.8626
vt -153.8986 2.8626
vt -153.8986 3.2426
vt -153.7659 3.2426
vt -153.7236 2.8626
vt -153.8563 2.8626
vt -153.8563 3.2426
vt -153.7236 3.2426
vt -154.3893 2.0275
vt -154.5735 2.0275
vt -154.5735 2.4775
vt -154.3893 2.4775
vt -154.3470 2.0275
vt -154.5313 2.0275
vt -154.5313 2.4775
vt -154.3470 2.4775
vt -154.4151 2.0625
vt -154.5477 2.0625
vt -154.5477 2.4425
vt -154.4151 2.4425
vt -154.3728 2.0625
vt -154.5055 2.0625
vt -154.5055 2.4425
vt -154.3728 2.4425
vt -154.3893 2.8276
vt -154.5735 2.8276
vt -154.5735 3.2775
vt -154.3893 3.2775
vt -154.3470 2.8276
vt -154.5313 2.8276
vt -154.5313 3.2775
vt -154.3470 3.2775
vt -154.4151 2.8626
vt -154.5477 2.8626
vt -154.5477 3.2426
vt -154.4151 3.2426
vt -154.3728 2.8626
vt -154.5055 2.8626
vt -154.5055 3.2426
vt -154.3728 3.2426
vt -153.3971 1.8025
vt -153.6182 1.8025
vt -153.6182 2.2275
vt -153.5629 2.3575
vt -153.4523 2.3575
vt -153.3971 2.2275
vt -153.3367 1.8025
vt -153.5579 1.8025
vt -153.5579 2.2275
vt -153.5026 2.3575
vt -153.3920 2.3575
vt -153.3367 2.2275
vt -153.4302 1.8476
vt -153.5851 1.8476
vt -153.5851 2.2275
vt -153.5463 2.3185
vt -153.4689 2.3185
vt -153.4302 2.2275
vt -153.3699 1.8476
vt -153.5247 1.8476
vt -153.5247 2.2275
vt -153.4860 2.3185
vt -153.4086 2.3185
vt -153.3699 2.2275
vt -153.3602 1.7925
vt -153.6551 1.7925
vt -153.5766 1.7925
vt -153.2817 1.7925
vt -153.3602 1.8325
vt -153.6551 1.8325
vt -153.5766 1.8325
vt -153.2817 1.8325
vt -155.3261 2.0275
vt -155.6277 2.0275
vt -155.6277 2.4775
vt -155.3261 2.4775
vt -155.3518 2.0275
vt -155.6535 2.0275
vt -155.6535 2.4775
vt -155.3518 2.4775
vt -155.3683 2.0625
vt -155.5855 2.0625
vt -155.5855 2.4425
vt -155.3683 2.4425
vt -155.3941 2.0625
vt -155.6113 2.0625
vt -155.6113 2.4425
vt -155.3941 2.4425
vt -155.3261 2.8276
vt -155.6277 2.8276
vt -155.6277 3.2775
vt -155.3261 3.2775
vt -155.3518 2.8276
vt -155.6535 2.8276
vt -155.6535 3.2775
vt -155.3518 3.2775
vt -155.3683 2.8626
vt -155.5855 2.8626
vt -155.5855 3.2426
vt -155.3683 3.2426
vt -155.3941 2.8626
vt -155.6113 2.8626
vt -155.6113 3.2426
vt -155.3941 3.2426
vt -156.3179 2.0275
vt -156.6197 2.0275
vt -156.6197 2.4775
vt -156.3179 2.4775
vt -156.3438 2.0275
vt -156.6455 2.0275
vt -156.6455 2.4775
vt -156.3438 2.4775
vt -156.3602 2.0625
vt -156.5774 2.0625
vt -156.5774 2.4425
vt -156.3602 2.4425
vt -156.3860 2.0625
vt -156.6032 2.0625
vt -156.6032 2.4425
vt -156.3860 2.4425
vt -156.3179 2.8276
vt -156.6197 2.8276
vt -156.6197 3.2775
vt -156.3179 3.2775
vt -156.3438 2.8276
vt -156.6455 2.8276
vt -156.6455 3.2775
vt -156.3438 3.2775
vt -156.3602 2.8626
vt -156.5774 2.8626
vt -156.5774 3.2426
vt -156.3602 3.2426
vt -156.3860 2.8626
vt -156.6032 2.8626
vt -156.6032 3.2426
vt -156.3860 3.2426
vt -157.3099 2.0275
vt -157.6116 2.0275
vt -157.6116 2.4775
vt -157.3099 2.4775
vt -157.3356 2.0275
vt -157.6374 2.0275
vt -157.6374 2.4775
vt -157.3356 2.4775
vt -157.3521 2.0625
vt -157.5693 2.0625
vt -157.5693 2.4425
vt -157.3521 2.4425
vt -157.3779 2.0625
vt -157.5951 2.0625
vt -157.5951 2.4425
vt -157.3779 2.4425
vt -157.3099 2.8276
vt -157.6116 2.8276
vt -157.6116 3.1525
vt -157.5361 3.2608
vt -157.3853 3.2608
vt -157.3099 3.1525
vt -157.3356 2.8276
vt -157.6374 2.8276
vt -157.6374 3.1525
vt -157.5619 3.2608
vt -157.4111 3.2608
vt -157.3356 3.1525
vt -157.3521 2.8626
vt -157.5693 2.8626
vt -157.5693 3.1525
vt -157.5151 3.2305
vt -157.4064 3.2305
vt -157.3521 3.1525
vt -157.3779 2.8626
vt -157.5951 2.8626
vt -157.5951 3.1525
vt -157.5409 3.2305
vt -157.4322 3.2305
vt -157.3779 3.1525
vt -158.3018 2.0275
vt -158.6035 2.0275
vt -158.6035 2.4775
vt -158.3018 2.4775
vt -158.3276 2.0275
vt -158.6293 2.0275
vt -158.6293 2.4775
vt -158.3276 2.4775
vt -158.3440 2.0625
vt -158.5613 2.0625
vt -158.5613 2.4425
vt -158.3440 2.4425
vt -158.3698 2.0625
vt -158.5871 2.0625
vt -158.5871 2.4425
vt -158.3698 2.4425
vt -158.3018 2.8276
vt -158.6035 2.8276
vt -158.6035 3.1525
vt -158.5281 3.2608
vt -158.3772 3.2608
vt -158.3018 3.1525
vt -158.3276 2.8276
vt -158.6293 2.8276
vt -158.6293 3.1525
vt -158.5539 3.2608
vt -158.4030 3.2608
vt -158.3276 3.1525
vt -158.3440 2.8626
vt -158.5613 2.8626
vt -158.5613 3.1525
vt -158.5069 3.2305
vt -158.3983 3.2305
vt -158.3440 3.1525
vt -158.3698 2.8626
vt -158.5871 2.8626
vt -158.5871 3.1525
vt -158.5327 3.2305
vt -158.4241 3.2305
vt -158.3698 3.1525
vt -158.7584 2.0275
vt -158.5741 2.0275
vt -158.5741 2.4775
vt -158.7584 2.4775
vt -158.8006 2.0275
vt -158.6164 2.0275
vt -158.6164 2.4775
vt -158.8006 2.4775
vt -158.7326 2.0625
vt -158.5999 2.0625
vt -158.5999 2.4425
vt -158.7326 2.4425
vt -158.7749 2.0625
vt -158.6422 2.0625
vt -158.6422 2.4425
vt -158.7749 2.4425
vt -158.7584 2.8276
vt -158.5741 2.8276
vt -158.5741 3.2775
vt -158.7584 3.2775
vt -158.8006 2.8276
vt -158.6164 2.8276
vt -158.6164 3.2775
vt -158.8006 3.2775
vt -158.7326 2.8626
vt -158.5999 2.8626
vt -158.5999 3.2426
vt -158.7326 3.2426
vt -158.7749 2.8626
vt -158.6422 2.8626
vt -158.6422 3.2426
vt -158.7749 3.2426
vt -158.1093 2.0275
vt -157.9249 2.0275
vt -157.9249 2.4775
vt -158.1093 2.4775
vt -158.1515 2.0275
vt -157.9672 2.0275
vt -157.9672 2.4775
vt -158.1515 2.4775
vt -158.0834 2.0625
vt -157.9507 2.0625
vt -157.9507 2.4425
vt -158.0834 2.4425
vt -158.1257 2.0625
vt -157.9930 2.0625
vt -157.9930 2.4425
vt -158.1257 2.4425
vt -158.1093 2.8276
vt -157.9249 2.8276
vt -157.9249 3.1525
vt -157.9710 3.2608
vt -158.0632 3.2608
vt -158.1093 3.1525
vt -158.1515 2.8276
vt -157.9672 2.8276
vt -157.9672 3.1525
vt -158.0132 3.2608
vt -158.1054 3.2608
vt -158.1515 3.1525
vt -158.0834 2.8626
vt -157.9507 2.8626
vt -157.9507 3.1525
vt -157.9839 3.2305
vt -158.0503 3.2305
vt -158.0834 3.1525
vt -158.1257 2.8626
vt -157.9930 2.8626
vt -157.9930 3.1525
vt -158.0262 3.2305
vt -158.0925 3.2305
vt -158.1257 3.1525
vt -157.4601 2.0275
vt -157.2758 2.0275
vt -157.2758 2.4775
vt -157.4601 2.4775
vt -157.5023 2.0275
vt -157.3180 2.0275
vt -157.3180 2.4775
vt -157.5023 2.4775
vt -157.4343 2.0625
vt -157.3016 2.0625
vt -157.3016 2.4425
vt -157.4343 2.4425
vt -157.4765 2.0625
vt -157.3438 2.0625
vt -157.3438 2.4425
vt -157.4765 2.4425
vt -157.4601 2.8276
vt -157.2758 2.8276
vt -157.2758 3.2775
vt -157.4601 3.2775
vt -157.5023 2.8276
vt -157.3180 2.8276
vt -157.3180 3.2775
vt -157.5023 3.2775
vt -157.4343 2.8626
vt -157.3016 2.8626
vt -157.3016 3.2426
vt -157.4343 3.2426
vt -157.4765 2.8626
vt -157.3438 2.8626
vt -157.3438 3.2426
vt -157.4765 3.2426
vt -156.8109 2.0275
vt -156.6266 2.0275
vt -156.6266 2.4775
vt -156.8109 2.4775
vt -156.8531 2.0275
vt -156.6688 2.0275
vt -156.6688 2.4775
vt -156.8531 2.4775
vt -156.7851 2.0625
vt -156.6524 2.0625
vt -156.6524 2.4425
vt -156.7851 2.4425
vt -156.8273 2.0625
vt -156.6946 2.0625
vt -156.6946 2.4425
vt -156.8273 2.4425
vt -156.8109 2.8276
vt -156.6266 2.8276
vt -156.6266 3.2775
vt -156.8109 3.2775
vt -156.8531 2.8276
vt -156.6688 2.8276
vt -156.6688 3.2775
vt -156.8531 3.2775
vt -156.7851 2.8626
vt -156.6524 2.8626
vt -156.6524 3.2426
vt -156.7851 3.2426
vt -156.8273 2.8626
vt -156.6946 2.8626
vt -156.6946 3.2426
vt -156.8273 3.2426
vt -155.8741 2.0275
vt -155.5724 2.0275
vt -155.5724 2.4775
vt -155.8741 2.4775
vt -155.8483 2.0275
vt -155.5466 2.0275
vt -155.5466 2.4775
vt -155.8483 2.4775
vt -155.8319 2.0625
vt -155.6146 2.0625
vt -155.6146 2.4425
vt -155.8319 2.4425
vt -155.8061 2.0625
vt -155.5888 2.0625
vt -155.5888 2.4425
vt -155.8061 2.4425
vt -155.8741 2.8276
vt -155.5724 2.8276
vt -155.5724 3.2775
vt -155.8741 3.2775
vt -155.8483 2.8276
vt -155.5466 2.8276
vt -155.5466 3.2775
vt -155.8483 3.2775
vt -155.8319 2.8626
vt -155.6146 2.8626
vt -155.6146 3.2426
vt -155.8319 3.2426
vt -155.8061 2.8626
vt -155.5888 2.8626
vt -155.5888 3.2426
vt -155.8061 3.2426
vt -154.8822 2.0275
vt -154.5805 2.0275
vt -154.5805 2.4775
vt -154.8822 2.4775
vt -154.8564 2.0275
vt -154.5547 2.0275
vt -154.5547 2.4775
vt -154.8564 2.4775
vt -154.8400 2.0625
vt -154.6227 2.0625
vt -154.6227 2.4425
vt -154.8400 2.4425
vt -154.8142 2.0625
vt -154.5969 2.0625
vt -154.5969 2.4425
vt -154.8142 2.4425
vt -154.8822 2.8276
vt -154.5805 2.8276
vt -154.5805 3.2775
vt -154.8822 3.2775
vt -154.8564 2.8276
vt -154.5547 2.8276
vt -154.5547 3.2775
vt -154.8564 3.2775
vt -154.8400 2.8626
vt -154.6227 2.8626
vt -154.6227 3.2426
vt -154.8400 3.2426
vt -154.8142 2.8626
vt -154.5969 2.8626
vt -154.5969 3.2426
vt -154.8142 3.2426
vt -153.8903 2.0275
vt -153.5885 2.0275
vt -153.5885 2.4775
vt -153.8903 2.4775
vt -153.8645 2.0275
vt -153.5627 2.0275
vt -153.5627 2.4775
vt -153.8645 2.4775
vt -153.8481 2.0625
vt -153.6308 2.0625
vt -153.6308 2.4425
vt -153.8481 2.4425
vt -153.8222 2.0625
vt -153.6050 2.0625
vt -153.6050 2.4425
vt -153.8222 2.4425
vt -153.8903 2.8276
vt -153.5885 2.8276
vt -153.5885 3.2775
vt -153.8903 3.2775
vt -153.8645 2.8276
vt -153.5627 2.8276
vt -153.5627 3.2775
vt -153.8645 3.2775
vt -153.8481 2.8626
vt -153.6308 2.8626
vt -153.6308 3.2426
vt -153.8481 3.2426
vt -153.8222 2.8626
vt -153.6050 2.8626
vt -153.6050 3.2426
vt -153.8222 3.2426
vt -152.8984 2.0275
vt -152.5966 2.0275
vt -152.5966 2.4775
vt -152.8984 2.4775
vt -152.8726 2.0275
vt -152.5708 2.0275
vt -152.5708 2.4775
vt -152.8726 2.4775
vt -152.8561 2.0625
vt -152.6389 2.0625
vt -152.6389 2.4425
vt -152.8561 2.4425
vt -152.8303 2.0625
vt -152.6131 2.0625
vt -152.6131 2.4425
vt -152.8303 2.4425
vt -152.8984 2.8276
vt -152.5966 2.8276
vt -152.5966 3.2775
vt -152.8984 3.2775
vt -152.8726 2.8276
vt -152.5708 2.8276
vt -152.5708 3.2775
vt -152.8726 3.2775
vt -152.8561 2.8626
vt -152.6389 2.8626
vt -152.6389 3.2426
vt -152.8561 3.2426
vt -152.8303 2.8626
vt -152.6131 2.8626
vt -152.6131 3.2426
vt -152.8303 3.2426
vt -152.1138 4.1276
vt -154.8653 4.1276
vt -159.0864 4.1276
vt -156.3349 4.1276
vt -152.1138 4.1625
vt -154.8653 4.1625
vt -159.0864 4.1625
vt -156.3349 4.1625
vt -152.1721 4.1276
vt -154.8794 4.1276
vt -159.0281 4.1276
vt -156.3207 4.1276
vt -152.1721 4.1625
vt -154.8794 4.1625
vt -159.0281 4.1625
vt -156.3207 4.1625
vt -152.0652 4.0725
vt -154.8535 4.0725
vt -159.1350 4.0725
vt -156.3466 4.0725
vt -152.0652 4.1425
vt -154.8535 4.1425
vt -159.1350 4.1425
vt -156.3466 4.1425
vt -152.1721 4.0725
vt -154.8794 4.0725
vt -159.0281 4.0725
vt -156.3207 4.0725
vt -152.1721 4.1425
vt -154.8794 4.1425
vt -159.0281 4.1425
vt -156.3207 4.1425
vt -152.0944 4.2176
vt -154.8606 4.2176
vt -159.1058 4.2176
vt -156.3396 4.2176
vt -152.0944 4.3925
vt -154.8606 4.3925
vt -159.1058 4.3925
vt -156.3396 4.3925
vt -152.3470 4.2176
vt -154.9216 4.2176
vt -158.8531 4.2176
vt -156.2785 4.2176
vt -152.3470 4.3925
vt -154.9216 4.3925
vt -158.8531 4.3925
vt -156.2785 4.3925
vt -152.4135 1.8650
vt -152.1721 1.8650
vt -152.1537 1.8650
vt -152.3950 1.8650
vt -152.4135 2.0025
vt -152.1721 2.0025
vt -152.1537 2.0025
vt -152.3950 2.0025
vt -152.1721 2.0450
vt -152.2753 2.0450
vt -152.2451 2.0450
vt -152.1419 2.0450
vt -152.1721 2.1825
vt -152.2753 2.1825
vt -152.2451 2.1825
vt -152.1419 2.1825
vt -152.4135 2.2250
vt -152.1721 2.2250
vt -152.1537 2.2250
vt -152.3950 2.2250
vt -152.4135 2.3626
vt -152.1721 2.3626
vt -152.1537 2.3626
vt -152.3950 2.3626
vt -152.1721 2.4051
vt -152.2753 2.4051
vt -152.2451 2.4051
vt -152.1419 2.4051
vt -152.1721 2.5425
vt -152.2753 2.5425
vt -152.2451 2.5425
vt -152.1419 2.5425
vt -154.7319 1.8650
vt -154.8794 1.8650
vt -154.8492 1.8650
vt -154.7018 1.8650
vt -154.7319 2.0025
vt -154.8794 2.0025
vt -154.8492 2.0025
vt -154.7018 2.0025
vt -154.8794 2.0450
vt -155.0483 2.0450
vt -155.0667 2.0450
vt -154.8978 2.0450
vt -154.8794 2.1825
vt -155.0483 2.1825
vt -155.0667 2.1825
vt -154.8978 2.1825
vt -154.7319 2.2250
vt -154.8794 2.2250
vt -154.8492 2.2250
vt -154.7018 2.2250
vt -154.7319 2.3626
vt -154.8794 2.3626
vt -154.8492 2.3626
vt -154.7018 2.3626
vt -154.8794 2.4051
vt -155.0483 2.4051
vt -155.0667 2.4051
vt -154.8978 2.4051
vt -154.8794 2.5425
vt -155.0483 2.5425
vt -155.0667 2.5425
vt -154.8978 2.5425
vt -158.7867 1.8650
vt -159.0281 1.8650
vt -159.0465 1.8650
vt -158.8051 1.8650
vt -158.7867 2.0025
vt -159.0281 2.0025
vt -159.0465 2.0025
vt -158.8051 2.0025
vt -159.0281 2.0450
vt -158.9248 2.0450
vt -158.9550 2.0450
vt -159.0582 2.0450
vt -159.0281 2.1825
vt -158.9248 2.1825
vt -158.9550 2.1825
vt -159.0582 2.1825
vt -158.7867 2.2250
vt -159.0281 2.2250
vt -159.0465 2.2250
vt -158.8051 2.2250
vt -158.7867 2.3626
vt -159.0281 2.3626
vt -159.0465 2.3626
vt -158.8051 2.3626
vt -159.0281 2.4051
vt -158.9248 2.4051
vt -158.9550 2.4051
vt -159.0582 2.4051
vt -159.0281 2.5425
vt -158.9248 2.5425
vt -158.9550 2.5425
vt -159.0582 2.5425
vt -156.4682 1.8650
vt -156.3207 1.8650
vt -156.3509 1.8650
vt -156.4984 1.8650
vt -156.4682 2.0025
vt -156.3207 2.0025
vt -156.3509 2.0025
vt -156.4984 2.0025
vt -156.3207 2.0450
vt -156.1518 2.0450
vt -156.1334 2.0450
vt -156.3023 2.0450
vt -156.3207 2.1825
vt -156.1518 2.1825
vt -156.1334 2.1825
vt -156.3023 2.1825
vt -156.4682 2.2250
vt -156.3207 2.2250
vt -156.3509 2.2250
vt -156.4984 2.2250
vt -156.4682 2.3626
vt -156.3207 2.3626
vt -156.3509 2.3626
vt -156.4984 2.3626
vt -156.3207 2.4051
vt -156.1518 2.4051
vt -156.1334 2.4051
vt -156.3023 2.4051
vt -156.3207 2.5425
vt -156.1518 2.5425
vt -156.1334 2.5425
vt -156.3023 2.5425
vn 0.2349 -0.9720 0.0000
vn -0.9720 -0.2349 0.0000
vn -0.2349 0.9720 0.0000
vn 0.9720 0.2349 0.0000
vn 0.0000 -0.0000 1.0000
vn 0.0000 -0.0000 -1.0000
vn -0.8418 -0.2034 0.5000
vn 0.8418 0.2034 -0.5000
vn 0.8418 0.2034 0.5000
vn -0.8418 -0.2034 -0.5000
vn -0.2034 0.8418 0.5000
vn 0.2034 -0.8418 -0.5000
vn 0.2034 -0.8418 0.5000
vn -0.2034 0.8418 -0.5000
f 1/1/1 6/6/1 2/2/1
f 1/1/1 5/5/1 6/6/1
f 2/2/2 7/7/2 3/3/2
f 2/2/2 6/6/2 7/7/2
f 3/3/3 8/8/3 4/4/3
f 3/3/3 7/7/3 8/8/3
f 4/4/4 5/5/4 1/1/4
f 4/4/4 8/8/4 5/5/4
f 5/5/5 7/7/5 6/6/5
f 5/5/5 8/8/5 7/7/5
f 4/4/6 2/2/6 3/3/6
f 4/4/6 1/1/6 2/2/6
f 9/9/6 14/14/6 10/10/6
f 9/9/6 13/13/6 14/14/6
f 18/18/5 21/21/5 17/17/5
f 18/18/5 22/22/5 21/21/5
f 13/13/1 22/22/1 14/14/1
f 13/13/1 21/21/1 22/22/1
f 10/10/3 17/17/3 9/9/3
f 10/10/3 18/18/3 17/17/3
f 10/10/2 15/15/2 11/11/2
f 10/10/2 14/14/2 15/15/2
f 19/19/4 22/22/4 18/18/4
f 19/19/4 23/23/4 22/22/4
f 14/14/1 23/23/1 15/15/1
f 14/14/1 22/22/1 23/23/1
f 11/11/3 18/18/3 10/10/3
f 11/11/3 19/19/3 18/18/3
f 11/11/5 16/16/5 12/12/5
f 11/11/5 15/15/5 16/16/5
f 20/20/6 23/23/6 19/19/6
f 20/20/6 24/24/6 23/23/6
f 15/15/1 24/24/1 16/16/1
f 15/15/1 23/23/1 24/24/1
f 12/12/3 19/19/3 11/11/3
f 12/12/3 20/20/3 19/19/3
f 12/12/4 13/13/4 9/9/4
f 12/12/4 16/16/4 13/13/4
f 17/17/2 24/24/2 20/20/2
f 17/17/2 21/21/2 24/24/2
f 16/16/1 21/21/1 13/13/1
f 16/16/1 24/24/1 21/21/1
f 9/9/3 20/20/3 12/12/3
f 9/9/3 17/17/3 20/20/3
f 25/25/6 30/30/6 26/26/6
f 25/25/6 29/29/6 30/30/6
f 34/34/5 37/37/5 33/33/5
f 34/34/5 38/38/5 37/37/5
f 29/29/1 38/38/1 30/30/1
f 29/29/1 37/37/1 38/38/1
f 26/26/3 33/33/3 25/25/3
f 26/26/3 34/34/3 33/33/3
f 26/26/2 31/31/2 27/27/2
f 26/26/2 30/30/2 31/31/2
f 35/35/4 38/38/4 34/34/4
f 35/35/4 39/39/4 38/38/4
f 30/30/1 39/39/1 31/31/1
f 30/30/1 38/38/1 39/39/1
f 27/27/3 34/34/3 26/26/3
f 27/27/3 35/35/3 34/34/3
f 27/27/5 32/32/5 28/28/5
f 27/27/5 31/31/5 32/32/5
f 36/36/6 39/39/6 35/35/6
f 36/36/6 40/40/6 39/39/6
f 31/31/1 40/40/1 32/32/1
f 31/31/1 39/39/1 40/40/1
f 28/28/3 35/35/3 27/27/3
f 28/28/3 36/36/3 35/35/3
f 28/28/4 29/29/4 25/25/4
f 28/28/4 32/32/4 29/29/4
f 33/33/2 40/40/2 36/36/2
f 33/33/2 37/37/2 40/40/2
f 32/32/1 37/37/1 29/29/1
f 32/32/1 40/40/1 37/37/1
f 25/25/3 36/36/3 28/28/3
f 25/25/3 33/33/3 36/36/3
f 41/41/6 46/46/6 42/42/6
f 41/41/6 45/45/6 46/46/6
f 50/50/5 53/53/5 49/49/5
f 50/50/5 54/54/5 53/53/5
f 45/45/1 54/54/1 46/46/1
f 45/45/1 53/53/1 54/54/1
f 42/42/3 49/49/3 41/41/3
f 42/42/3 50/50/3 49/49/3
f 42/42/2 47/47/2 43/43/2
f 42/42/2 46/46/2 47/47/2
f 51/51/4 54/54/4 50/50/4
f 51/51/4 55/55/4 54/54/4
f 46/46/1 55/55/1 47/47/1
f 46/46/1 54/54/1 55/55/1
f 43/43/3 50/50/3 42/42/3
f 43/43/3 51/51/3 50/50/3
f 43/43/5 48/48/5 44/44/5
f 43/43/5 47/47/5 48/48/5
f 52/52/6 55/55/6 51/51/6
f 52/52/6 56/56/6 55/55/6
f 47/47/1 56/56/1 48/48/1
f 47/47/1 55/55/1 56/56/1
f 44/44/3 51/51/3 43/43/3
f 44/44/3 52/52/3 51/51/3
f 44/44/4 45/45/4 41/41/4
f 44/44/4 48/48/4 45/45/4
f 49/49/2 56/56/2 52/52/2
f 49/49/2 53/53/2 56/56/2
f 48/48/1 53/53/1 45/45/1
f 48/48/1 56/56/1 53/53/1
f 41/41/3 52/52/3 44/44/3
f 41/41/3 49/49/3 52/52/3
f 57/57/6 64/64/6 58/58/6
f 57/57/6 63/63/6 64/64/6
f 70/70/5 75/75/5 69/69/5
f 70/70/5 76/76/5 75/75/5
f 63/63/1 76/76/1 64/64/1
f 63/63/1 75/75/1 76/76/1
f 58/58/3 69/69/3 57/57/3
f 58/58/3 70/70/3 69/69/3
f 58/58/2 65/65/2 59/59/2
f 58/58/2 64/64/2 65/65/2
f 71/71/4 76/76/4 70/70/4
f 71/71/4 77/77/4 76/76/4
f 64/64/1 77/77/1 65/65/1
f 64/64/1 76/76/1 77/77/1
f 59/59/3 70/70/3 58/58/3
f 59/59/3 71/71/3 70/70/3
f 59/59/7 66/66/7 60/60/7
f 59/59/7 65/65/7 66/66/7
f 72/72/8 77/77/8 71/71/8
f 72/72/8 78/78/8 77/77/8
f 65/65/1 78/78/1 66/66/1
f 65/65/1 77/77/1 78/78/1
f 60/60/3 71/71/3 59/59/3
f 60/60/3 72/72/3 71/71/3
f 60/60/5 67/67/5 61/61/5
f 60/60/5 66/66/5 67/67/5
f 73/73/6 78/78/6 72/72/6
f 73/73/6 79/79/6 78/78/6
f 66/66/1 79/79/1 67/67/1
f 66/66/1 78/78/1 79/79/1
f 61/61/3 72/72/3 60/60/3
f 61/61/3 73/73/3 72/72/3
f 61/61/9 68/68/9 62/62/9
f 61/61/9 67/67/9 68/68/9
f 74/74/10 79/79/10 73/73/10
f 74/74/10 80/80/10 79/79/10
f 67/67/1 80/80/1 68/68/1
f 67/67/1 79/79/1 80/80/1
f 62/62/3 73/73/3 61/61/3
f 62/62/3 74/74/3 73/73/3
f 62/62/4 63/63/4 57/57/4
f 62/62/4 68/68/4 63/63/4
f 69/69/2 80/80/2 74/74/2
f 69/69/2 75/75/2 80/80/2
f 68/68/1 75/75/1 63/63/1
f 68/68/1 80/80/1 75/75/1
f 57/57/3 74/74/3 62/62/3
f 57/57/3 69/69/3 74/74/3
f 81/81/6 86/86/6 82/82/6
f 81/81/6 85/85/6 86/86/6
f 90/90/5 93/93/5 89/89/5
f 90/90/5 94/94/5 93/93/5
f 85/85/1 94/94/1 86/86/1
f 85/85/1 93/93/1 94/94/1
f 82/82/3 89/89/3 81/81/3
f 82/82/3 90/90/3 89/89/3
f 82/82/2 87/87/2 83/83/2
f 82/82/2 86/86/2 87/87/2
f 91/91/4 94/94/4 90/90/4
f 91/91/4 95/95/4 94/94/4
f 86/86/1 95/95/1 87/87/1
f 86/86/1 94/94/1 95/95/1
f 83/83/3 90/90/3 82/82/3
f 83/83/3 91/91/3 90/90/3
f 83/83/5 88/88/5 84/84/5
f 83/83/5 87/87/5 88/88/5
f 92/92/6 95/95/6 91/91/6
f 92/92/6 96/96/6 95/95/6
f 87/87/1 96/96/1 88/88/1
f 87/87/1 95/95/1 96/96/1
f 84/84/3 91/91/3 83/83/3
f 84/84/3 92/92/3 91/91/3
f 84/84/4 85/85/4 81/81/4
f 84/84/4 88/88/4 85/85/4
f 89/89/2 96/96/2 92/92/2
f 89/89/2 93/93/2 96/96/2
f 88/88/1 93/93/1 85/85/1
f 88/88/1 96/96/1 93/93/1
f 81/81/3 92/92/3 84/84/3
f 81/81/3 89/89/3 92/92/3
f 97/97/6 102/102/6 98/98/6
f 97/97/6 101/101/6 102/102/6
f 106/106/5 109/109/5 105/105/5
f 106/106/5 110/110/5 109/109/5
f 101/101/1 110/110/1 102/102/1
f 101/101/1 109/109/1 110/110/1
f 98/98/3 105/105/3 97/97/3
f 98/98/3 106/106/3 105/105/3
f 98/98/2 103/103/2 99/99/2
f 98/98/2 102/102/2 103/103/2
f 107/107/4 110/110/4 106/106/4
f 107/107/4 111/111/4 110/110/4
f 102/102/1 111/111/1 103/103/1
f 102/102/1 110/110/1 111/111/1
f 99/99/3 106/106/3 98/98/3
f 99/99/3 107/107/3 106/106/3
f 99/99/5 104/104/5 100/100/5
f 99/99/5 103/103/5 104/104/5
f 108/108/6 111/111/6 107/107/6
f 108/108/6 112/112/6 111/111/6
f 103/103/1 112/112/1 104/104/1
f 103/103/1 111/111/1 112/112/1
f 100/100/3 107/107/3 99/99/3
f 100/100/3 108/108/3 107/107/3
f 100/100/4 101/101/4 97/97/4
f 100/100/4 104/104/4 101/101/4
f 105/105/2 112/112/2 108/108/2
f 105/105/2 109/109/2 112/112/2
f 104/104/1 109/109/1 101/101/1
f 104/104/1 112/112/1 109/109/1
f 97/97/3 108/108/3 100/100/3
f 97/97/3 105/105/3 108/108/3
f 113/113/6 118/118/6 114/114/6
f 113/113/6 117/117/6 118/118/6
f 122/122/5 125/125/5 121/121/5
f 122/122/5 126/126/5 125/125/5
f 117/117/1 126/126/1 118/118/1
f 117/117/1 125/125/1 126/126/1
f 114/114/3 121/121/3 113/113/3
f 114/114/3 122/122/3 121/121/3
f 114/114/2 119/119/2 115/115/2
f 114/114/2 118/118/2 119/119/2
f 123/123/4 126/126/4 122/122/4
f 123/123/4 127/127/4 126/126/4
f 118/118/1 127/127/1 119/119/1
f 118/118/1 126/126/1 127/127/1
f 115/115/3 122/122/3 114/114/3
f 115/115/3 123/123/3 122/122/3
f 115/115/5 120/120/5 116/116/5
f 115/115/5 119/119/5 120/120/5
f 124/124/6 127/127/6 123/123/6
f 124/124/6 128/128/6 127/127/6
f 119/119/1 128/128/1 120/120/1
f 119/119/1 127/127/1 128/128/1
f 116/116/3 123/123/3 115/115/3
f 116/116/3 124/124/3 123/123/3
f 116/116/4 117/117/4 113/113/4
f 116/116/4 120/120/4 117/117/4
f 121/121/2 128/128/2 124/124/2
f 121/121/2 125/125/2 128/128/2
f 120/120/1 125/125/1 117/117/1
f 120/120/1 128/128/1 125/125/1
f 113/113/3 124/124/3 116/116/3
f 113/113/3 121/121/3 124/124/3
f 129/129/6 134/134/6 130/130/6
f 129/129/6 133/133/6 134/134/6
f 138/138/5 141/141/5 137/137/5
f 138/138/5 142/142/5 141/141/5
f 133/133/1 142/142/1 134/134/1
f 133/133/1 141/141/1 142/142/1
f 130/130/3 137/137/3 129/129/3
f 130/130/3 138/138/3 137/137/3
f 130/130/2 135/135/2 131/131/2
f 130/130/2 134/134/2 135/135/2
f 139/139/4 142/142/4 138/138/4
f 139/139/4 143/143/4 142/142/4
f 134/134/1 143/143/1 135/135/1
f 134/134/1 142/142/1 143/143/1
f 131/131/3 138/138/3 130/130/3
f 131/131/3 139/139/3 138/138/3
f 131/131/5 136/136/5 132/132/5
f 131/131/5 135/135/5 136/136/5
f 140/140/6 143/143/6 139/139/6
f 140/140/6 144/144/6 143/143/6
f 135/135/1 144/144/1 136/136/1
f 135/135/1 143/143/1 144/144/1
f 132/132/3 139/139/3 131/131/3
f 132/132/3 140/140/3 139/139/3
f 132/132/4 133/133/4 129/129/4
f 132/132/4 136/136/4 133/133/4
f 137/137/2 144/144/2 140/140/2
f 137/137/2 141/141/2 144/144/2
f 136/136/1 141/141/1 133/133/1
f 136/136/1 144/144/1 141/141/1
f 129/129/3 140/140/3 132/132/3
f 129/129/3 137/137/3 140/140/3
f 145/145/6 152/152/6 146/146/6
f 145/145/6 151/151/6 152/152/6
f 158/158/5 163/163/5 157/157/5
f 158/158/5 164/164/5 163/163/5
f 151/151/1 164/164/1 152/152/1
f 151/151/1 163/163/1 164/164/1
f 146/146/3 157/157/3 145/145/3
f 146/146/3 158/158/3 157/157/3
f 146/146/2 153/153/2 147/147/2
f 146/146/2 152/152/2 153/153/2
f 159/159/4 164/164/4 158/158/4
f 159/159/4 165/165/4 164/164/4
f 152/152/1 165/165/1 153/153/1
f 152/152/1 164/164/1 165/165/1
f 147/147/3 158/158/3 146/146/3
f 147/147/3 159/159/3 158/158/3
f 147/147/7 154/154/7 148/148/7
f 147/147/7 153/153/7 154/154/7
f 160/160/8 165/165/8 159/159/8
f 160/160/8 166/166/8 165/165/8
f 153/153/1 166/166/1 154/154/1
f 153/153/1 165/165/1 166/166/1
f 148/148/3 159/159/3 147/147/3
f 148/148/3 160/160/3 159/159/3
f 148/148/5 155/155/5 149/149/5
f 148/148/5 154/154/5 155/155/5
f 161/161/6 166/166/6 160/160/6
f 161/161/6 167/167/6 166/166/6
f 154/154/1 167/167/1 155/155/1
f 154/154/1 166/166/1 167/167/1
f 149/149/3 160/160/3 148/148/3
f 149/149/3 161/161/3 160/160/3
f 149/149/9 156/156/9 150/150/9
f 149/149/9 155/155/9 156/156/9
f 162/162/10 167/167/10 161/161/10
f 162/162/10 168/168/10 167/167/10
f 155/155/1 168/168/1 156/156/1
f 155/155/1 167/167/1 168/168/1
f 150/150/3 161/161/3 149/149/3
f 150/150/3 162/162/3 161/161/3
f 150/150/4 151/151/4 145/145/4
f 150/150/4 156/156/4 151/151/4
f 157/157/2 168/168/2 162/162/2
f 157/157/2 163/163/2 168/168/2
f 156/156/1 163/163/1 151/151/1
f 156/156/1 168/168/1 163/163/1
f 145/145/3 162/162/3 150/150/3
f 145/145/3 157/157/3 162/162/3
f 169/169/3 170/170/3 174/174/3
f 169/169/3 174/174/3 173/173/3
f 170/170/2 171/171/2 175/175/2
f 170/170/2 175/175/2 174/174/2
f 171/171/1 172/172/1 176/176/1
f 171/171/1 176/176/1 175/175/1
f 172/172/4 169/169/4 173/173/4
f 172/172/4 173/173/4 176/176/4
f 173/173/5 174/174/5 175/175/5
f 173/173/5 175/175/5 176/176/5
f 172/172/6 171/171/6 170/170/6
f 172/172/6 170/170/6 169/169/6
f 177/177/6 182/182/6 178/178/6
f 177/177/6 181/181/6 182/182/6
f 186/186/5 189/189/5 185/185/5
f 186/186/5 190/190/5 189/189/5
f 181/181/2 190/190/2 182/182/2
f 181/181/2 189/189/2 190/190/2
f 178/178/4 185/185/4 177/177/4
f 178/178/4 186/186/4 185/185/4
f 178/178/3 183/183/3 179/179/3
f 178/178/3 182/182/3 183/183/3
f 187/187/1 190/190/1 186/186/1
f 187/187/1 191/191/1 190/190/1
f 182/182/2 191/191/2 183/183/2
f 182/182/2 190/190/2 191/191/2
f 179/179/4 186/186/4 178/178/4
f 179/179/4 187/187/4 186/186/4
f 179/179/5 184/184/5 180/180/5
f 179/179/5 183/183/5 184/184/5
f 188/188/6 191/191/6 187/187/6
f 188/188/6 192/192/6 191/191/6
f 183/183/2 192/192/2 184/184/2
f 183/183/2 191/191/2 192/192/2
f 180/180/4 187/187/4 179/179/4
f 180/180/4 188/188/4 187/187/4
f 180/180/1 181/181/1 177/177/1
f 180/180/1 184/184/1 181/181/1
f 185/185/3 192/192/3 188/188/3
f 185/185/3 189/189/3 192/192/3
f 184/184/2 189/189/2 181/181/2
f 184/184/2 192/192/2 189/189/2
f 177/177/4 188/188/4 180/180/4
f 177/177/4 185/185/4 188/188/4
f 193/193/6 198/198/6 194/194/6
f 193/193/6 197/197/6 198/198/6
f 202/202/5 205/205/5 201/201/5
f 202/202/5 206/206/5 205/205/5
f 197/197/2 206/206/2 198/198/2
f 197/197/2 205/205/2 206/206/2
f 194/194/4 201/201/4 193/193/4
f 194/194/4 202/202/4 201/201/4
f 194/194/3 199/199/3 195/195/3
f 194/194/3 198/198/3 199/199/3
f 203/203/1 206/206/1 202/202/1
f 203/203/1 207/207/1 206/206/1
f 198/198/2 207/207/2 199/199/2
f 198/198/2 206/206/2 207/207/2
f 195/195/4 202/202/4 194/194/4
f 195/195/4 203/203/4 202/202/4
f 195/195/5 200/200/5 196/196/5
f 195/195/5 199/199/5 200/200/5
f 204/204/6 207/207/6 203/203/6
f 204/204/6 208/208/6 207/207/6
f 199/199/2 208/208/2 200/200/2
f 199/199/2 207/207/2 208/208/2
f 196/196/4 203/203/4 195/195/4
f 196/196/4 204/204/4 203/203/4
f 196/196/1 197/197/1 193/193/1
f 196/196/1 200/200/1 197/197/1
f 201/201/3 208/208/3 204/204/3
f 201/201/3 205/205/3 208/208/3
f 200/200/2 205/205/2 197/197/2
f 200/200/2 208/208/2 205/205/2
f 193/193/4 204/204/4 196/196/4
f 193/193/4 201/201/4 204/204/4
f 209/209/6 214/214/6 210/210/6
f 209/209/6 213/213/6 214/214/6
f 218/218/5 221/221/5 217/217/5
f 218/218/5 222/222/5 221/221/5
f 213/213/2 222/222/2 214/214/2
f 213/213/2 221/221/2 222/222/2
f 210/210/4 217/217/4 209/209/4
f 210/210/4 218/218/4 217/217/4
f 210/210/3 215/215/3 211/211/3
f 210/210/3 214/214/3 215/215/3
f 219/219/1 222/222/1 218/218/1
f 219/219/1 223/223/1 222/222/1
f 214/214/2 223/223/2 215/215/2
f 214/214/2 222/222/2 223/223/2
f 211/211/4 218/218/4 210/210/4
f 211/211/4 219/219/4 218/218/4
f 211/211/5 216/216/5 212/212/5
f 211/211/5 215/215/5 216/216/5
f 220/220/6 223/223/6 219/219/6
f 220/220/6 224/224/6 223/223/6
f 215/215/2 224/224/2 216/216/2
f 215/215/2 223/223/2 224/224/2
f 212/212/4 219/219/4 211/211/4
f 212/212/4 220/220/4 219/219/4
f 212/212/1 213/213/1 209/209/1
f 212/212/1 216/216/1 213/213/1
f 217/217/3 224/224/3 220/220/3
f 217/217/3 221/221/3 224/224/3
f 216/216/2 221/221/2 213/213/2
f 216/216/2 224/224/2 221/221/2
f 209/209/4 220/220/4 212/212/4
f 209/209/4 217/217/4 220/220/4
f 225/225/6 230/230/6 226/226/6
f 225/225/6 229/229/6 230/230/6
f 234/234/5 237/237/5 233/233/5
f 234/234/5 238/238/5 237/237/5
f 229/229/2 238/238/2 230/230/2
f 229/229/2 237/237/2 238/238/2
f 226/226/4 233/233/4 225/225/4
f 226/226/4 234/234/4 233/233/4
f 226/226/3 231/231/3 227/227/3
f 226/226/3 230/230/3 231/231/3
f 235/235/1 238/238/1 234/234/1
f 235/235/1 239/239/1 238/238/1
f 230/230/2 239/239/2 231/231/2
f 230/230/2 238/238/2 239/239/2
f 227/227/4 234/234/4 226/226/4
f 227/227/4 235/235/4 234/234/4
f 227/227/5 232/232/5 228/228/5
f 227/227/5 231/231/5 232/232/5
f 236/236/6 239/239/6 235/235/6
f 236/236/6 240/240/6 239/239/6
f 231/231/2 240/240/2 232/232/2
f 231/231/2 239/239/2 240/240/2
f 228/228/4 235/235/4 227/227/4
f 228/228/4 236/236/4 235/235/4
f 228/228/1 229/229/1 225/225/1
f 228/228/1 232/232/1 229/229/1
f 233/233/3 240/240/3 236/236/3
f 233/233/3 237/237/3 240/240/3
f 232/232/2 237/237/2 229/229/2
f 232/232/2 240/240/2 237/237/2
f 225/225/4 236/236/4 228/228/4
f 225/225/4 233/233/4 236/236/4
f 241/241/6 246/246/6 242/242/6
f 241/241/6 245/245/6 246/246/6
f 250/250/5 253/253/5 249/249/5
f 250/250/5 254/254/5 253/253/5
f 245/245/2 254/254/2 246/246/2
f 245/245/2 253/253/2 254/254/2
f 242/242/4 249/249/4 241/241/4
f 242/242/4 250/250/4 249/249/4
f 242/242/3 247/247/3 243/243/3
f 242/242/3 246/246/3 247/247/3
f 251/251/1 254/254/1 250/250/1
f 251/251/1 255/255/1 254/254/1
f 246/246/2 255/255/2 247/247/2
f 246/246/2 254/254/2 255/255/2
f 243/243/4 250/250/4 242/242/4
f 243/243/4 251/251/4 250/250/4
f 243/243/5 248/248/5 244/244/5
f 243/243/5 247/247/5 248/248/5
f 252/252/6 255/255/6 251/251/6
f 252/252/6 256/256/6 255/255/6
f 247/247/2 256/256/2 248/248/2
f 247/247/2 255/255/2 256/256/2
f 244/244/4 251/251/4 243/243/4
f 244/244/4 252/252/4 251/251/4
f 244/244/1 245/245/1 241/241/1
f 244/244/1 248/248/1 245/245/1
f 249/249/3 256/256/3 252/252/3
f 249/249/3 253/253/3 256/256/3
f 248/248/2 253/253/2 245/245/2
f 248/248/2 256/256/2 253/253/2
f 241/241/4 252/252/4 244/244/4
f 241/241/4 249/249/4 252/252/4
f 257/257/6 264/264/6 258/258/6
f 257/257/6 263/263/6 264/264/6
f 270/270/5 275/275/5 269/269/5
f 270/270/5 276/276/5 275/275/5
f 263/263/2 276/276/2 264/264/2
f 263/263/2 275/275/2 276/276/2
f 258/258/4 269/269/4 257/257/4
f 258/258/4 270/270/4 269/269/4
f 258/258/3 265/265/3 259/259/3
f 258/258/3 264/264/3 265/265/3
f 271/271/1 276/276/1 270/270/1
f 271/271/1 277/277/1 276/276/1
f 264/264/2 277/277/2 265/265/2
f 264/264/2 276/276/2 277/277/2
f 259/259/4 270/270/4 258/258/4
f 259/259/4 271/271/4 270/270/4
f 259/259/11 266/266/11 260/260/11
f 259/259/11 265/265/11 266/266/11
f 272/272/12 277/277/12 271/271/12
f 272/272/12 278/278/12 277/277/12
f 265/265/2 278/278/2 266/266/2
f 265/265/2 277/277/2 278/278/2
f 260/260/4 271/271/4 259/259/4
f 260/260/4 272/272/4 271/271/4
f 260/260/5 267/267/5 261/261/5
f 260/260/5 266/266/5 267/267/5
f 273/273/6 278/278/6 272/272/6
f 273/273/6 279/279/6 278/278/6
f 266/266/2 279/279/2 267/267/2
f 266/266/2 278/278/2 279/279/2
f 261/261/4 272/272/4 260/260/4
f 261/261/4 273/273/4 272/272/4
f 261/261/13 268/268/13 262/262/13
f 261/261/13 267/267/13 268/268/13
f 274/274/14 279/279/14 273/273/14
f 274/274/14 280/280/14 279/279/14
f 267/267/2 280/280/2 268/268/2
f 267/267/2 279/279/2 280/280/2
f 262/262/4 273/273/4 261/261/4
f 262/262/4 274/274/4 273/273/4
f 262/262/1 263/263/1 257/257/1
f 262/262/1 268/268/1 263/263/1
f 269/269/3 280/280/3 274/274/3
f 269/269/3 275/275/3 280/280/3
f 268/268/2 275/275/2 263/263/2
f 268/268/2 280/280/2 275/275/2
f 257/257/4 274/274/4 262/262/4
f 257/257/4 269/269/4 274/274/4
f 281/281/6 286/286/6 282/282/6
f 281/281/6 285/285/6 286/286/6
f 290/290/5 293/293/5 289/289/5
f 290/290/5 294/294/5 293/293/5
f 285/285/2 294/294/2 286/286/2
f 285/285/2 293/293/2 294/294/2
f 282/282/4 289/289/4 281/281/4
f 282/282/4 290/290/4 289/289/4
f 282/282/3 287/287/3 283/283/3
f 282/282/3 286/286/3 287/287/3
f 291/291/1 294/294/1 290/290/1
f 291/291/1 295/295/1 294/294/1
f 286/286/2 295/295/2 287/287/2
f 286/286/2 294/294/2 295/295/2
f 283/283/4 290/290/4 282/282/4
f 283/283/4 291/291/4 290/290/4
f 283/283/5 288/288/5 284/284/5
f 283/283/5 287/287/5 288/288/5
f 292/292/6 295/295/6 291/291/6
f 292/292/6 296/296/6 295/295/6
f 287/287/2 296/296/2 288/288/2
f 287/287/2 295/295/2 296/296/2
f 284/284/4 291/291/4 283/283/4
f 284/284/4 292/292/4 291/291/4
f 284/284/1 285/285/1 281/281/1
f 284/284/1 288/288/1 285/285/1
f 289/289/3 296/296/3 292/292/3
f 289/289/3 293/293/3 296/296/3
f 288/288/2 293/293/2 285/285/2
f 288/288/2 296/296/2 293/293/2
f 281/281/4 292/292/4 284/284/4
f 281/281/4 289/289/4 292/292/4
f 297/297/6 304/304/6 298/298/6
f 297/297/6 303/303/6 304/304/6
f 310/310/5 315/315/5 309/309/5
f 310/310/5 316/316/5 315/315/5
f 303/303/2 316/316/2 304/304/2
f 303/303/2 315/315/2 316/316/2
f 298/298/4 309/309/4 297/297/4
f 298/298/4 310/310/4 309/309/4
f 298/298/3 305/305/3 299/299/3
f 298/298/3 304/304/3 305/305/3
f 311/311/1 316/316/1 310/310/1
f 311/311/1 317/317/1 316/316/1
f 304/304/2 317/317/2 305/305/2
f 304/304/2 316/316/2 317/317/2
f 299/299/4 310/310/4 298/298/4
f 299/299/4 311/311/4 310/310/4
f 299/299/11 306/306/11 300/300/11
f 299/299/11 305/305/11 306/306/11
f 312/312/12 317/317/12 311/311/12
f 312/312/12 318/318/12 317/317/12
f 305/305/2 318/318/2 306/306/2
f 305/305/2 317/317/2 318/318/2
f 300/300/4 311/311/4 299/299/4
f 300/300/4 312/312/4 311/311/4
f 300/300/5 307/307/5 301/301/5
f 300/300/5 306/306/5 307/307/5
f 313/313/6 318/318/6 312/312/6
f 313/313/6 319/319/6 318/318/6
f 306/306/2 319/319/2 307/307/2
f 306/306/2 318/318/2 319/319/2
f 301/301/4 312/312/4 300/300/4
f 301/301/4 313/313/4 312/312/4
f 301/301/13 308/308/13 302/302/13
f 301/301/13 307/307/13 308/308/13
f 314/314/14 319/319/14 313/313/14
f 314/314/14 320/320/14 319/319/14
f 307/307/2 320/320/2 308/308/2
f 307/307/2 319/319/2 320/320/2
f 302/302/4 313/313/4 301/301/4
f 302/302/4 314/314/4 313/313/4
f 302/302/1 303/303/1 297/297/1
f 302/302/1 308/308/1 303/303/1
f 309/309/3 320/320/3 314/314/3
f 309/309/3 315/315/3 320/320/3
f 308/308/2 315/315/2 303/303/2
f 308/308/2 320/320/2 315/315/2
f 297/297/4 314/314/4 302/302/4
f 297/297/4 309/309/4 314/314/4
f 321/321/6 326/326/6 322/322/6
f 321/321/6 325/325/6 326/326/6
f 330/330/5 333/333/5 329/329/5
f 330/330/5 334/334/5 333/333/5
f 325/325/3 334/334/3 326/326/3
f 325/325/3 333/333/3 334/334/3
f 322/322/1 329/329/1 321/321/1
f 322/322/1 330/330/1 329/329/1
f 322/322/4 327/327/4 323/323/4
f 322/322/4 326/326/4 327/327/4
f 331/331/2 334/334/2 330/330/2
f 331/331/2 335/335/2 334/334/2
f 326/326/3 335/335/3 327/327/3
f 326/326/3 334/334/3 335/335/3
f 323/323/1 330/330/1 322/322/1
f 323/323/1 331/331/1 330/330/1
f 323/323/5 328/328/5 324/324/5
f 323/323/5 327/327/5 328/328/5
f 332/332/6 335/335/6 331/331/6
f 332/332/6 336/336/6 335/335/6
f 327/327/3 336/336/3 328/328/3
f 327/327/3 335/335/3 336/336/3
f 324/324/1 331/331/1 323/323/1
f 324/324/1 332/332/1 331/331/1
f 324/324/2 325/325/2 321/321/2
f 324/324/2 328/328/2 325/325/2
f 329/329/4 336/336/4 332/332/4
f 329/329/4 333/333/4 336/336/4
f 328/328/3 333/333/3 325/325/3
f 328/328/3 336/336/3 333/333/3
f 321/321/1 332/332/1 324/324/1
f 321/321/1 329/329/1 332/332/1
f 337/337/6 342/342/6 338/338/6
f 337/337/6 341/341/6 342/342/6
f 346/346/5 349/349/5 345/345/5
f 346/346/5 350/350/5 349/349/5
f 341/341/3 350/350/3 342/342/3
f 341/341/3 349/349/3 350/350/3
f 338/338/1 345/345/1 337/337/1
f 338/338/1 346/346/1 345/345/1
f 338/338/4 343/343/4 339/339/4
f 338/338/4 342/342/4 343/343/4
f 347/347/2 350/350/2 346/346/2
f 347/347/2 351/351/2 350/350/2
f 342/342/3 351/351/3 343/343/3
f 342/342/3 350/350/3 351/351/3
f 339/339/1 346/346/1 338/338/1
f 339/339/1 347/347/1 346/346/1
f 339/339/5 344/344/5 340/340/5
f 339/339/5 343/343/5 344/344/5
f 348/348/6 351/351/6 347/347/6
f 348/348/6 352/352/6 351/351/6
f 343/343/3 352/352/3 344/344/3
f 343/343/3 351/351/3 352/352/3
f 340/340/1 347/347/1 339/339/1
f 340/340/1 348/348/1 347/347/1
f 340/340/2 341/341/2 337/337/2
f 340/340/2 344/344/2 341/341/2
f 345/345/4 352/352/4 348/348/4
f 345/345/4 349/349/4 352/352/4
f 344/344/3 349/349/3 341/341/3
f 344/344/3 352/352/3 349/349/3
f 337/337/1 348/348/1 340/340/1
f 337/337/1 345/345/1 348/348/1
f 353/353/6 358/358/6 354/354/6
f 353/353/6 357/357/6 358/358/6
f 362/362/5 365/365/5 361/361/5
f 362/362/5 366/366/5 365/365/5
f 357/357/3 366/366/3 358/358/3
f 357/357/3 365/365/3 366/366/3
f 354/354/1 361/361/1 353/353/1
f 354/354/1 362/362/1 361/361/1
f 354/354/4 359/359/4 355/355/4
f 354/354/4 358/358/4 359/359/4
f 363/363/2 366/366/2 362/362/2
f 363/363/2 367/367/2 366/366/2
f 358/358/3 367/367/3 359/359/3
f 358/358/3 366/366/3 367/367/3
f 355/355/1 362/362/1 354/354/1
f 355/355/1 363/363/1 362/362/1
f 355/355/5 360/360/5 356/356/5
f 355/355/5 359/359/5 360/360/5
f 364/364/6 367/367/6 363/363/6
f 364/364/6 368/368/6 367/367/6
f 359/359/3 368/368/3 360/360/3
f 359/359/3 367/367/3 368/368/3
f 356/356/1 363/363/1 355/355/1
f 356/356/1 364/364/1 363/363/1
f 356/356/2 357/357/2 353/353/2
f 356/356/2 360/360/2 357/357/2
f 361/361/4 368/368/4 364/364/4
f 361/361/4 365/365/4 368/368/4
f 360/360/3 365/365/3 357/357/3
f 360/360/3 368/368/3 365/365/3
f 353/353/1 364/364/1 356/356/1
f 353/353/1 361/361/1 364/364/1
f 369/369/6 376/376/6 370/370/6
f 369/369/6 375/375/6 376/376/6
f 382/382/5 387/387/5 381/381/5
f 382/382/5 388/388/5 387/387/5
f 375/375/3 388/388/3 376/376/3
f 375/375/3 387/387/3 388/388/3
f 370/370/1 381/381/1 369/369/1
f 370/370/1 382/382/1 381/381/1
f 370/370/4 377/377/4 371/371/4
f 370/370/4 376/376/4 377/377/4
f 383/383/2 388/388/2 382/382/2
f 383/383/2 389/389/2 388/388/2
f 376/376/3 389/389/3 377/377/3
f 376/376/3 388/388/3 389/389/3
f 371/371/1 382/382/1 370/370/1
f 371/371/1 383/383/1 382/382/1
f 371/371/9 378/378/9 372/372/9
f 371/371/9 377/377/9 378/378/9
f 384/384/10 389/389/10 383/383/10
f 384/384/10 390/390/10 389/389/10
f 377/377/3 390/390/3 378/378/3
f 377/377/3 389/389/3 390/390/3
f 372/372/1 383/383/1 371/371/1
f 372/372/1 384/384/1 383/383/1
f 372/372/5 379/379/5 373/373/5
f 372/372/5 378/378/5 379/379/5
f 385/385/6 390/390/6 384/384/6
f 385/385/6 391/391/6 390/390/6
f 378/378/3 391/391/3 379/379/3
f 378/378/3 390/390/3 391/391/3
f 373/373/1 384/384/1 372/372/1
f 373/373/1 385/385/1 384/384/1
f 373/373/7 380/380/7 374/374/7
f 373/373/7 379/379/7 380/380/7
f 386/386/8 391/391/8 385/385/8
f 386/386/8 392/392/8 391/391/8
f 379/379/3 392/392/3 380/380/3
f 379/379/3 391/391/3 392/392/3
f 374/374/1 385/385/1 373/373/1
f 374/374/1 386/386/1 385/385/1
f 374/374/2 375/375/2 369/369/2
f 374/374/2 380/380/2 375/375/2
f 381/381/4 392/392/4 386/386/4
f 381/381/4 387/387/4 392/392/4
f 380/380/3 387/387/3 375/375/3
f 380/380/3 392/392/3 387/387/3
f 369/369/1 386/386/1 374/374/1
f 369/369/1 381/381/1 386/386/1
f 393/393/6 398/398/6 394/394/6
f 393/393/6 397/397/6 398/398/6
f 402/402/5 405/405/5 401/401/5
f 402/402/5 406/406/5 405/405/5
f 397/397/3 406/406/3 398/398/3
f 397/397/3 405/405/3 406/406/3
f 394/394/1 401/401/1 393/393/1
f 394/394/1 402/402/1 401/401/1
f 394/394/4 399/399/4 395/395/4
f 394/394/4 398/398/4 399/399/4
f 403/403/2 406/406/2 402/402/2
f 403/403/2 407/407/2 406/406/2
f 398/398/3 407/407/3 399/399/3
f 398/398/3 406/406/3 407/407/3
f 395/395/1 402/402/1 394/394/1
f 395/395/1 403/403/1 402/402/1
f 395/395/5 400/400/5 396/396/5
f 395/395/5 399/399/5 400/400/5
f 404/404/6 407/407/6 403/403/6
f 404/404/6 408/408/6 407/407/6
f 399/399/3 408/408/3 400/400/3
f 399/399/3 407/407/3 408/408/3
f 396/396/1 403/403/1 395/395/1
f 396/396/1 404/404/1 403/403/1
f 396/396/2 397/397/2 393/393/2
f 396/396/2 400/400/2 397/397/2
f 401/401/4 408/408/4 404/404/4
f 401/401/4 405/405/4 408/408/4
f 400/400/3 405/405/3 397/397/3
f 400/400/3 408/408/3 405/405/3
f 393/393/1 404/404/1 396/396/1
f 393/393/1 401/401/1 404/404/1
f 409/409/6 414/414/6 410/410/6
f 409/409/6 413/413/6 414/414/6
f 418/418/5 421/421/5 417/417/5
f 418/418/5 422/422/5 421/421/5
f 413/413/3 422/422/3 414/414/3
f 413/413/3 421/421/3 422/422/3
f 410/410/1 417/417/1 409/409/1
f 410/410/1 418/418/1 417/417/1
f 410/410/4 415/415/4 411/411/4
f 410/410/4 414/414/4 415/415/4
f 419/419/2 422/422/2 418/418/2
f 419/419/2 423/423/2 422/422/2
f 414/414/3 423/423/3 415/415/3
f 414/414/3 422/422/3 423/423/3
f 411/411/1 418/418/1 410/410/1
f 411/411/1 419/419/1 418/418/1
f 411/411/5 416/416/5 412/412/5
f 411/411/5 415/415/5 416/416/5
f 420/420/6 423/423/6 419/419/6
f 420/420/6 424/424/6 423/423/6
f 415/415/3 424/424/3 416/416/3
f 415/415/3 423/423/3 424/424/3
f 412/412/1 419/419/1 411/411/1
f 412/412/1 420/420/1 419/419/1
f 412/412/2 413/413/2 409/409/2
f 412/412/2 416/416/2 413/413/2
f 417/417/4 424/424/4 420/420/4
f 417/417/4 421/421/4 424/424/4
f 416/416/3 421/421/3 413/413/3
f 416/416/3 424/424/3 421/421/3
f 409/409/1 420/420/1 412/412/1
f 409/409/1 417/417/1 420/420/1
f 425/425/6 430/430/6 426/426/6
f 425/425/6 429/429/6 430/430/6
f 434/434/5 437/437/5 433/433/5
f 434/434/5 438/438/5 437/437/5
f 429/429/3 438/438/3 430/430/3
f 429/429/3 437/437/3 438/438/3
f 426/426/1 433/433/1 425/425/1
f 426/426/1 434/434/1 433/433/1
f 426/426/4 431/431/4 427/427/4
f 426/426/4 430/430/4 431/431/4
f 435/435/2 438/438/2 434/434/2
f 435/435/2 439/439/2 438/438/2
f 430/430/3 439/439/3 431/431/3
f 430/430/3 438/438/3 439/439/3
f 427/427/1 434/434/1 426/426/1
f 427/427/1 435/435/1 434/434/1
f 427/427/5 432/432/5 428/428/5
f 427/427/5 431/431/5 432/432/5
f 436/436/6 439/439/6 435/435/6
f 436/436/6 440/440/6 439/439/6
f 431/431/3 440/440/3 432/432/3
f 431/431/3 439/439/3 440/440/3
f 428/428/1 435/435/1 427/427/1
f 428/428/1 436/436/1 435/435/1
f 428/428/2 429/429/2 425/425/2
f 428/428/2 432/432/2 429/429/2
f 433/433/4 440/440/4 436/436/4
f 433/433/4 437/437/4 440/440/4
f 432/432/3 437/437/3 429/429/3
f 432/432/3 440/440/3 437/437/3
f 425/425/1 436/436/1 428/428/1
f 425/425/1 433/433/1 436/436/1
f 441/441/6 446/446/6 442/442/6
f 441/441/6 445/445/6 446/446/6
f 450/450/5 453/453/5 449/449/5
f 450/450/5 454/454/5 453/453/5
f 445/445/3 454/454/3 446/446/3
f 445/445/3 453/453/3 454/454/3
f 442/442/1 449/449/1 441/441/1
f 442/442/1 450/450/1 449/449/1
f 442/442/4 447/447/4 443/443/4
f 442/442/4 446/446/4 447/447/4
f 451/451/2 454/454/2 450/450/2
f 451/451/2 455/455/2 454/454/2
f 446/446/3 455/455/3 447/447/3
f 446/446/3 454/454/3 455/455/3
f 443/443/1 450/450/1 442/442/1
f 443/443/1 451/451/1 450/450/1
f 443/443/5 448/448/5 444/444/5
f 443/443/5 447/447/5 448/448/5
f 452/452/6 455/455/6 451/451/6
f 452/452/6 456/456/6 455/455/6
f 447/447/3 456/456/3 448/448/3
f 447/447/3 455/455/3 456/456/3
f 444/444/1 451/451/1 443/443/1
f 444/444/1 452/452/1 451/451/1
f 444/444/2 445/445/2 441/441/2
f 444/444/2 448/448/2 445/445/2
f 449/449/4 456/456/4 452/452/4
f 449/449/4 453/453/4 456/456/4
f 448/448/3 453/453/3 445/445/3
f 448/448/3 456/456/3 453/453/3
f 441/441/1 452/452/1 444/444/1
f 441/441/1 449/449/1 452/452/1
f 457/457/6 462/462/6 458/458/6
f 457/457/6 461/461/6 462/462/6
f 466/466/5 469/469/5 465/465/5
f 466/466/5 470/470/5 469/469/5
f 461/461/4 470/470/4 462/462/4
f 461/461/4 469/469/4 470/470/4
f 458/458/2 465/465/2 457/457/2
f 458/458/2 466/466/2 465/465/2
f 458/458/1 463/463/1 459/459/1
f 458/458/1 462/462/1 463/463/1
f 467/467/3 470/470/3 466/466/3
f 467/467/3 471/471/3 470/470/3
f 462/462/4 471/471/4 463/463/4
f 462/462/4 470/470/4 471/471/4
f 459/459/2 466/466/2 458/458/2
f 459/459/2 467/467/2 466/466/2
f 459/459/5 464/464/5 460/460/5
f 459/459/5 463/463/5 464/464/5
f 468/468/6 471/471/6 467/467/6
f 468/468/6 472/472/6 471/471/6
f 463/463/4 472/472/4 464/464/4
f 463/463/4 471/471/4 472/472/4
f 460/460/2 467/467/2 459/459/2
f 460/460/2 468/468/2 467/467/2
f 460/460/3 461/461/3 457/457/3
f 460/460/3 464/464/3 461/461/3
f 465/465/1 472/472/1 468/468/1
f 465/465/1 469/469/1 472/472/1
f 464/464/4 469/469/4 461/461/4
f 464/464/4 472/472/4 469/469/4
f 457/457/2 468/468/2 460/460/2
f 457/457/2 465/465/2 468/468/2
f 473/473/6 478/478/6 474/474/6
f 473/473/6 477/477/6 478/478/6
f 482/482/5 485/485/5 481/481/5
f 482/482/5 486/486/5 485/485/5
f 477/477/4 486/486/4 478/478/4
f 477/477/4 485/485/4 486/486/4
f 474/474/2 481/481/2 473/473/2
f 474/474/2 482/482/2 481/481/2
f 474/474/1 479/479/1 475/475/1
f 474/474/1 478/478/1 479/479/1
f 483/483/3 486/486/3 482/482/3
f 483/483/3 487/487/3 486/486/3
f 478/478/4 487/487/4 479/479/4
f 478/478/4 486/486/4 487/487/4
f 475/475/2 482/482/2 474/474/2
f 475/475/2 483/483/2 482/482/2
f 475/475/5 480/480/5 476/476/5
f 475/475/5 479/479/5 480/480/5
f 484/484/6 487/487/6 483/483/6
f 484/484/6 488/488/6 487/487/6
f 479/479/4 488/488/4 480/480/4
f 479/479/4 487/487/4 488/488/4
f 476/476/2 483/483/2 475/475/2
f 476/476/2 484/484/2 483/483/2
f 476/476/3 477/477/3 473/473/3
f 476/476/3 480/480/3 477/477/3
f 481/481/1 488/488/1 484/484/1
f 481/481/1 485/485/1 488/488/1
f 480/480/4 485/485/4 477/477/4
f 480/480/4 488/488/4 485/485/4
f 473/473/2 484/484/2 476/476/2
f 473/473/2 481/481/2 484/484/2
f 489/489/6 494/494/6 490/490/6
f 489/489/6 493/493/6 494/494/6
f 498/498/5 501/501/5 497/497/5
f 498/498/5 502/502/5 501/501/5
f 493/493/4 502/502/4 494/494/4
f 493/493/4 501/501/4 502/502/4
f 490/490/2 497/497/2 489/489/2
f 490/490/2 498/498/2 497/497/2
f 490/490/1 495/495/1 491/491/1
f 490/490/1 494/494/1 495/495/1
f 499/499/3 502/502/3 498/498/3
f 499/499/3 503/503/3 502/502/3
f 494/494/4 503/503/4 495/495/4
f 494/494/4 502/502/4 503/503/4
f 491/491/2 498/498/2 490/490/2
f 491/491/2 499/499/2 498/498/2
f 491/491/5 496/496/5 492/492/5
f 491/491/5 495/495/5 496/496/5
f 500/500/6 503/503/6 499/499/6
f 500/500/6 504/504/6 503/503/6
f 495/495/4 504/504/4 496/496/4
f 495/495/4 503/503/4 504/504/4
f 492/492/2 499/499/2 491/491/2
f 492/492/2 500/500/2 499/499/2
f 492/492/3 493/493/3 489/489/3
f 492/492/3 496/496/3 493/493/3
f 497/497/1 504/504/1 500/500/1
f 497/497/1 501/501/1 504/504/1
f 496/496/4 501/501/4 493/493/4
f 496/496/4 504/504/4 501/501/4
f 489/489/2 500/500/2 492/492/2
f 489/489/2 497/497/2 500/500/2
f 505/505/6 510/510/6 506/506/6
f 505/505/6 509/509/6 510/510/6
f 514/514/5 517/517/5 513/513/5
f 514/514/5 518/518/5 517/517/5
f 509/509/4 518/518/4 510/510/4
f 509/509/4 517/517/4 518/518/4
f 506/506/2 513/513/2 505/505/2
f 506/506/2 514/514/2 513/513/2
f 506/506/1 511/511/1 507/507/1
f 506/506/1 510/510/1 511/511/1
f 515/515/3 518/518/3 514/514/3
f 515/515/3 519/519/3 518/518/3
f 510/510/4 519/519/4 511/511/4
f 510/510/4 518/518/4 519/519/4
f 507/507/2 514/514/2 506/506/2
f 507/507/2 515/515/2 514/514/2
f 507/507/5 512/512/5 508/508/5
f 507/507/5 511/511/5 512/512/5
f 516/516/6 519/519/6 515/515/6
f 516/516/6 520/520/6 519/519/6
f 511/511/4 520/520/4 512/512/4
f 511/511/4 519/519/4 520/520/4
f 508/508/2 515/515/2 507/507/2
f 508/508/2 516/516/2 515/515/2
f 508/508/3 509/509/3 505/505/3
f 508/508/3 512/512/3 509/509/3
f 513/513/1 520/520/1 516/516/1
f 513/513/1 517/517/1 520/520/1
f 512/512/4 517/517/4 509/509/4
f 512/512/4 520/520/4 517/517/4
f 505/505/2 516/516/2 508/508/2
f 505/505/2 513/513/2 516/516/2
f 521/521/6 526/526/6 522/522/6
f 521/521/6 525/525/6 526/526/6
f 530/530/5 533/533/5 529/529/5
f 530/530/5 534/534/5 533/533/5
f 525/525/4 534/534/4 526/526/4
f 525/525/4 533/533/4 534/534/4
f 522/522/2 529/529/2 521/521/2
f 522/522/2 530/530/2 529/529/2
f 522/522/1 527/527/1 523/523/1
f 522/522/1 526/526/1 527/527/1
f 531/531/3 534/534/3 530/530/3
f 531/531/3 535/535/3 534/534/3
f 526/526/4 535/535/4 527/527/4
f 526/526/4 534/534/4 535/535/4
f 523/523/2 530/530/2 522/522/2
f 523/523/2 531/531/2 530/530/2
f 523/523/5 528/528/5 524/524/5
f 523/523/5 527/527/5 528/528/5
f 532/532/6 535/535/6 531/531/6
f 532/532/6 536/536/6 535/535/6
f 527/527/4 536/536/4 528/528/4
f 527/527/4 535/535/4 536/536/4
f 524/524/2 531/531/2 523/523/2
f 524/524/2 532/532/2 531/531/2
f 524/524/3 525/525/3 521/521/3
f 524/524/3 528/528/3 525/525/3
f 529/529/1 536/536/1 532/532/1
f 529/529/1 533/533/1 536/536/1
f 528/528/4 533/533/4 525/525/4
f 528/528/4 536/536/4 533/533/4
f 521/521/2 532/532/2 524/524/2
f 521/521/2 529/529/2 532/532/2
f 537/537/6 542/542/6 538/538/6
f 537/537/6 541/541/6 542/542/6
f 546/546/5 549/549/5 545/545/5
f 546/546/5 550/550/5 549/549/5
f 541/541/4 550/550/4 542/542/4
f 541/541/4 549/549/4 550/550/4
f 538/538/2 545/545/2 537/537/2
f 538/538/2 546/546/2 545/545/2
f 538/538/1 543/543/1 539/539/1
f 538/538/1 542/542/1 543/543/1
f 547/547/3 550/550/3 546/546/3
f 547/547/3 551/551/3 550/550/3
f 542/542/4 551/551/4 543/543/4
f 542/542/4 550/550/4 551/551/4
f 539/539/2 546/546/2 538/538/2
f 539/539/2 547/547/2 546/546/2
f 539/539/5 544/544/5 540/540/5
f 539/539/5 543/543/5 544/544/5
f 548/548/6 551/551/6 547/547/6
f 548/548/6 552/552/6 551/551/6
f 543/543/4 552/552/4 544/544/4
f 543/543/4 551/551/4 552/552/4
f 540/540/2 547/547/2 539/539/2
f 540/540/2 548/548/2 547/547/2
f 540/540/3 541/541/3 537/537/3
f 540/540/3 544/544/3 541/541/3
f 545/545/1 552/552/1 548/548/1
f 545/545/1 549/549/1 552/552/1
f 544/544/4 549/549/4 541/541/4
f 544/544/4 552/552/4 549/549/4
f 537/537/2 548/548/2 540/540/2
f 537/537/2 545/545/2 548/548/2
f 553/553/6 558/558/6 554/554/6
f 553/553/6 557/557/6 558/558/6
f 562/562/5 565/565/5 561/561/5
f 562/562/5 566/566/5 565/565/5
f 557/557/4 566/566/4 558/558/4
f 557/557/4 565/565/4 566/566/4
f 554/554/2 561/561/2 553/553/2
f 554/554/2 562/562/2 561/561/2
f 554/554/1 559/559/1 555/555/1
f 554/554/1 558/558/1 559/559/1
f 563/563/3 566/566/3 562/562/3
f 563/563/3 567/567/3 566/566/3
f 558/558/4 567/567/4 559/559/4
f 558/558/4 566/566/4 567/567/4
f 555/555/2 562/562/2 554/554/2
f 555/555/2 563/563/2 562/562/2
f 555/555/5 560/560/5 556/556/5
f 555/555/5 559/559/5 560/560/5
f 564/564/6 567/567/6 563/563/6
f 564/564/6 568/568/6 567/567/6
f 559/559/4 568/568/4 560/560/4
f 559/559/4 567/567/4 568/568/4
f 556/556/2 563/563/2 555/555/2
f 556/556/2 564/564/2 563/563/2
f 556/556/3 557/557/3 553/553/3
f 556/556/3 560/560/3 557/557/3
f 561/561/1 568/568/1 564/564/1
f 561/561/1 565/565/1 568/568/1
f 560/560/4 565/565/4 557/557/4
f 560/560/4 568/568/4 565/565/4
f 553/553/2 564/564/2 556/556/2
f 553/553/2 561/561/2 564/564/2
f 569/569/6 574/574/6 570/570/6
f 569/569/6 573/573/6 574/574/6
f 578/578/5 581/581/5 577/577/5
f 578/578/5 582/582/5 581/581/5
f 573/573/4 582/582/4 574/574/4
f 573/573/4 581/581/4 582/582/4
f 570/570/2 577/577/2 569/569/2
f 570/570/2 578/578/2 577/577/2
f 570/570/1 575/575/1 571/571/1
f 570/570/1 574/574/1 575/575/1
f 579/579/3 582/582/3 578/578/3
f 579/579/3 583/583/3 582/582/3
f 574/574/4 583/583/4 575/575/4
f 574/574/4 582/582/4 583/583/4
f 571/571/2 578/578/2 570/570/2
f 571/571/2 579/579/2 578/578/2
f 571/571/5 576/576/5 572/572/5
f 571/571/5 575/575/5 576/576/5
f 580/580/6 583/583/6 579/579/6
f 580/580/6 584/584/6 583/583/6
f 575/575/4 584/584/4 576/576/4
f 575/575/4 583/583/4 584/584/4
f 572/572/2 579/579/2 571/571/2
f 572/572/2 580/580/2 579/579/2
f 572/572/3 573/573/3 569/569/3
f 572/572/3 576/576/3 573/573/3
f 577/577/1 584/584/1 580/580/1
f 577/577/1 581/581/1 584/584/1
f 576/576/4 581/581/4 573/573/4
f 576/576/4 584/584/4 581/581/4
f 569/569/2 580/580/2 572/572/2
f 569/569/2 577/577/2 580/580/2
f 585/585/1 590/590/1 586/586/1
f 585/585/1 589/589/1 590/590/1
f 594/594/3 597/597/3 593/593/3
f 594/594/3 598/598/3 597/597/3
f 589/589/5 598/598/5 590/590/5
f 589/589/5 597/597/5 598/598/5
f 586/586/6 593/593/6 585/585/6
f 586/586/6 594/594/6 593/593/6
f 586/586/2 591/591/2 587/587/2
f 586/586/2 590/590/2 591/591/2
f 595/595/4 598/598/4 594/594/4
f 595/595/4 599/599/4 598/598/4
f 590/590/5 599/599/5 591/591/5
f 590/590/5 598/598/5 599/599/5
f 587/587/6 594/594/6 586/586/6
f 587/587/6 595/595/6 594/594/6
f 587/587/3 592/592/3 588/588/3
f 587/587/3 591/591/3 592/592/3
f 596/596/1 599/599/1 595/595/1
f 596/596/1 600/600/1 599/599/1
f 591/591/5 600/600/5 592/592/5
f 591/591/5 599/599/5 600/600/5
f 588/588/6 595/595/6 587/587/6
f 588/588/6 596/596/6 595/595/6
f 588/588/4 589/589/4 585/585/4
f 588/588/4 592/592/4 589/589/4
f 593/593/2 600/600/2 596/596/2
f 593/593/2 597/597/2 600/600/2
f 592/592/5 597/597/5 589/589/5
f 592/592/5 600/600/5 597/597/5
f 585/585/6 596/596/6 588/588/6
f 585/585/6 593/593/6 596/596/6
f 601/601/1 606/606/1 602/602/1
f 601/601/1 605/605/1 606/606/1
f 610/610/3 613/613/3 609/609/3
f 610/610/3 614/614/3 613/613/3
f 605/605/5 614/614/5 606/606/5
f 605/605/5 613/613/5 614/614/5
f 602/602/6 609/609/6 601/601/6
f 602/602/6 610/610/6 609/609/6
f 602/602/2 607/607/2 603/603/2
f 602/602/2 606/606/2 607/607/2
f 611/611/4 614/614/4 610/610/4
f 611/611/4 615/615/4 614/614/4
f 606/606/5 615/615/5 607/607/5
f 606/606/5 614/614/5 615/615/5
f 603/603/6 610/610/6 602/602/6
f 603/603/6 611/611/6 610/610/6
f 603/603/3 608/608/3 604/604/3
f 603/603/3 607/607/3 608/608/3
f 612/612/1 615/615/1 611/611/1
f 612/612/1 616/616/1 615/615/1
f 607/607/5 616/616/5 608/608/5
f 607/607/5 615/615/5 616/616/5
f 604/604/6 611/611/6 603/603/6
f 604/604/6 612/612/6 611/611/6
f 604/604/4 605/605/4 601/601/4
f 604/604/4 608/608/4 605/605/4
f 609/609/2 616/616/2 612/612/2
f 609/609/2 613/613/2 616/616/2
f 608/608/5 613/613/5 605/605/5
f 608/608/5 616/616/5 613/613/5
f 601/601/6 612/612/6 604/604/6
f 601/601/6 609/609/6 612/612/6
f 617/617/1 622/622/1 618/618/1
f 617/617/1 621/621/1 622/622/1
f 626/626/3 629/629/3 625/625/3
f 626/626/3 630/630/3 629/629/3
f 621/621/5 630/630/5 622/622/5
f 621/621/5 629/629/5 630/630/5
f 618/618/6 625/625/6 617/617/6
f 618/618/6 626/626/6 625/625/6
f 618/618/2 623/623/2 619/619/2
f 618/618/2 622/622/2 623/623/2
f 627/627/4 630/630/4 626/626/4
f 627/627/4 631/631/4 630/630/4
f 622/622/5 631/631/5 623/623/5
f 622/622/5 630/630/5 631/631/5
f 619/619/6 626/626/6 618/618/6
f 619/619/6 627/627/6 626/626/6
f 619/619/3 624/624/3 620/620/3
f 619/619/3 623/623/3 624/624/3
f 628/628/1 631/631/1 627/627/1
f 628/628/1 632/632/1 631/631/1
f 623/623/5 632/632/5 624/624/5
f 623/623/5 631/631/5 632/632/5
f 620/620/6 627/627/6 619/619/6
f 620/620/6 628/628/6 627/627/6
f 620/620/4 621/621/4 617/617/4
f 620/620/4 624/624/4 621/621/4
f 625/625/2 632/632/2 628/628/2
f 625/625/2 629/629/2 632/632/2
f 624/624/5 629/629/5 621/621/5
f 624/624/5 632/632/5 629/629/5
f 617/617/6 628/628/6 620/620/6
f 617/617/6 625/625/6 628/628/6
f 633/633/2 634/634/2 638/638/2
f 633/633/2 638/638/2 637/637/2
f 634/634/1 635/635/1 639/639/1
f 634/634/1 639/639/1 638/638/1
f 635/635/4 636/636/4 640/640/4
f 635/635/4 640/640/4 639/639/4
f 636/636/3 633/633/3 637/637/3
f 636/636/3 637/637/3 640/640/3
f 637/637/5 638/638/5 639/639/5
f 637/637/5 639/639/5 640/640/5
f 636/636/6 635/635/6 634/634/6
f 636/636/6 634/634/6 633/633/6
f 641/641/3 642/642/3 646/646/3
f 641/641/3 646/646/3 645/645/3
f 642/642/2 643/643/2 647/647/2
f 642/642/2 647/647/2 646/646/2
f 643/643/1 644/644/1 648/648/1
f 643/643/1 648/648/1 647/647/1
f 644/644/4 641/641/4 645/645/4
f 644/644/4 645/645/4 648/648/4
f 645/645/5 646/646/5 647/647/5
f 645/645/5 647/647/5 648/648/5
f 644/644/6 643/643/6 642/642/6
f 644/644/6 642/642/6 641/641/6
f 649/649/2 650/650/2 654/654/2
f 649/649/2 654/654/2 653/653/2
f 650/650/1 651/651/1 655/655/1
f 650/650/1 655/655/1 654/654/1
f 651/651/4 652/652/4 656/656/4
f 651/651/4 656/656/4 655/655/4
f 652/652/3 649/649/3 653/653/3
f 652/652/3 653/653/3 656/656/3
f 653/653/5 654/654/5 655/655/5
f 653/653/5 655/655/5 656/656/5
f 652/652/6 651/651/6 650/650/6
f 652/652/6 650/650/6 649/649/6
f 657/657/3 658/658/3 662/662/3
f 657/657/3 662/662/3 661/661/3
f 658/658/2 659/659/2 663/663/2
f 658/658/2 663/663/2 662/662/2
f 659/659/1 660/660/1 664/664/1
f 659/659/1 664/664/1 663/663/1
f 660/660/4 657/657/4 661/661/4
f 660/660/4 661/661/4 664/664/4
f 661/661/5 662/662/5 663/663/5
f 661/661/5 663/663/5 664/664/5
f 660/660/6 659/659/6 658/658/6
f 660/660/6 658/658/6 657/657/6
f 665/665/3 666/666/3 670/670/3
f 665/665/3 670/670/3 669/669/3
f 666/666/2 667/667/2 671/671/2
f 666/666/2 671/671/2 670/670/2
f 667/667/1 668/668/1 672/672/1
f 667/667/1 672/672/1 671/671/1
f 668/668/4 665/665/4 669/669/4
f 668/668/4 669/669/4 672/672/4
f 669/669/5 670/670/5 671/671/5
f 669/669/5 671/671/5 672/672/5
f 668/668/6 667/667/6 666/666/6
f 668/668/6 666/666/6 665/665/6
f 673/673/4 674/674/4 678/678/4
f 673/673/4 678/678/4 677/677/4
f 674/674/3 675/675/3 679/679/3
f 674/674/3 679/679/3 678/678/3
f 675/675/2 676/676/2 680/680/2
f 675/675/2 680/680/2 679/679/2
f 676/676/1 673/673/1 677/677/1
f 676/676/1 677/677/1 680/680/1
f 677/677/5 678/678/5 679/679/5
f 677/677/5 679/679/5 680/680/5
f 676/676/6 675/675/6 674/674/6
f 676/676/6 674/674/6 673/673/6
f 681/681/3 682/682/3 686/686/3
f 681/681/3 686/686/3 685/685/3
f 682/682/2 683/683/2 687/687/2
f 682/682/2 687/687/2 686/686/2
f 683/683/1 684/684/1 688/688/1
f 683/683/1 688/688/1 687/687/1
f 684/684/4 681/681/4 685/685/4
f 684/684/4 685/685/4 688/688/4
f 685/685/5 686/686/5 687/687/5
f 685/685/5 687/687/5 688/688/5
f 684/684/6 683/683/6 682/682/6
f 684/684/6 682/682/6 681/681/6
f 689/689/4 690/690/4 694/694/4
f 689/689/4 694/694/4 693/693/4
f 690/690/3 691/691/3 695/695/3
f 690/690/3 695/695/3 694/694/3
f 691/691/2 692/692/2 696/696/2
f 691/691/2 696/696/2 695/695/2
f 692/692/1 689/689/1 693/693/1
f 692/692/1 693/693/1 696/696/1
f 693/693/5 694/694/5 695/695/5
f 693/693/5 695/695/5 696/696/5
f 692/692/6 691/691/6 690/690/6
f 692/692/6 690/690/6 689/689/6
f 697/697/4 698/698/4 702/702/4
f 697/697/4 702/702/4 701/701/4
f 698/698/3 699/699/3 703/703/3
f 698/698/3 703/703/3 702/702/3
f 699/699/2 700/700/2 704/704/2
f 699/699/2 704/704/2 703/703/2
f 700/700/1 697/697/1 701/701/1
f 700/700/1 701/701/1 704/704/1
f 701/701/5 702/702/5 703/703/5
f 701/701/5 703/703/5 704/704/5
f 700/700/6 699/699/6 698/698/6
f 700/700/6 698/698/6 697/697/6
f 705/705/1 706/706/1 710/710/1
f 705/705/1 710/710/1 709/709/1
f 706/706/4 707/707/4 711/711/4
f 706/706/4 711/711/4 710/710/4
f 707/707/3 708/708/3 712/712/3
f 707/707/3 712/712/3 711/711/3
f 708/708/2 705/705/2 709/709/2
f 708/708/2 709/709/2 712/712/2
f 709/709/5 710/710/5 711/711/5
f 709/709/5 711/711/5 712/712/5
f 708/708/6 707/707/6 706/706/6
f 708/708/6 706/706/6 705/705/6
f 713/713/4 714/714/4 718/718/4
f 713/713/4 718/718/4 717/717/4
f 714/714/3 715/715/3 719/719/3
f 714/714/3 719/719/3 718/718/3
f 715/715/2 716/716/2 720/720/2
f 715/715/2 720/720/2 719/719/2
f 716/716/1 713/713/1 717/717/1
f 716/716/1 717/717/1 720/720/1
f 717/717/5 718/718/5 719/719/5
f 717/717/5 719/719/5 720/720/5
f 716/716/6 715/715/6 714/714/6
f 716/716/6 714/714/6 713/713/6
f 721/721/1 722/722/1 726/726/1
f 721/721/1 726/726/1 725/725/1
f 722/722/4 723/723/4 727/727/4
f 722/722/4 727/727/4 726/726/4
f 723/723/3 724/724/3 728/728/3
f 723/723/3 728/728/3 727/727/3
f 724/724/2 721/721/2 725/725/2
f 724/724/2 725/725/2 728/728/2
f 725/725/5 726/726/5 727/727/5
f 725/725/5 727/727/5 728/728/5
f 724/724/6 723/723/6 722/722/6
f 724/724/6 722/722/6 721/721/6
f 729/729/1 730/730/1 734/734/1
f 729/729/1 734/734/1 733/733/1
f 730/730/4 731/731/4 735/735/4
f 730/730/4 735/735/4 734/734/4
f 731/731/3 732/732/3 736/736/3
f 731/731/3 736/736/3 735/735/3
f 732/732/2 729/729/2 733/733/2
f 732/732/2 733/733/2 736/736/2
f 733/733/5 734/734/5 735/735/5
f 733/733/5 735/735/5 736/736/5
f 732/732/6 731/731/6 730/730/6
f 732/732/6 730/730/6 729/729/6
f 737/737/2 738/738/2 742/742/2
f 737/737/2 742/742/2 741/741/2
f 738/738/1 739/739/1 743/743/1
f 738/738/1 743/743/1 742/742/1
f 739/739/4 740/740/4 744/744/4
f 739/739/4 744/744/4 743/743/4
f 740/740/3 737/737/3 741/741/3
f 740/740/3 741/741/3 744/744/3
f 741/741/5 742/742/5 743/743/5
f 741/741/5 743/743/5 744/744/5
f 740/740/6 739/739/6 738/738/6
f 740/740/6 738/738/6 737/737/6
f 745/745/1 746/746/1 750/750/1
f 745/745/1 750/750/1 749/749/1
f 746/746/4 747/747/4 751/751/4
f 746/746/4 751/751/4 750/750/4
f 747/747/3 748/748/3 752/752/3
f 747/747/3 752/752/3 751/751/3
f 748/748/2 745/745/2 749/749/2
f 748/748/2 749/749/2 752/752/2
f 749/749/5 750/750/5 751/751/5
f 749/749/5 751/751/5 752/752/5
f 748/748/6 747/747/6 746/746/6
f 748/748/6 746/746/6 745/745/6
f 753/753/2 754/754/2 758/758/2
f 753/753/2 758/758/2 757/757/2
f 754/754/1 755/755/1 759/759/1
f 754/754/1 759/759/1 758/758/1
f 755/755/4 756/756/4 760/760/4
f 755/755/4 760/760/4 759/759/4
f 756/756/3 753/753/3 757/757/3
f 756/756/3 757/757/3 760/760/3
f 757/757/5 758/758/5 759/759/5
f 757/757/5 759/759/5 760/760/5
f 756/756/6 755/755/6 754/754/6
f 756/756/6 754/754/6 753/753/6
