# Unreal legacy OBJ adapter: canonical vertices are UE cm; this file is written with Y reflected and triangle winding reversed. One object, no g groups, so the importer creates exactly one material slot.
# OldCityFacadesV1 20260908T024235646425Z
# source jerusalem.json sha256 76a2b76c0d97f45db7e532b3adbe8b58c02956fa0d3de73db71e31e097ea6463
# alignment UEcm = ((x+17.509700315687695)*50, (z-0.551349644938533)*50, y*50) - already baked, never reapplied
# shell standoff 6.0 cm outside every imported face
# AUTHORED detail: invented Old City massing, not survey
o SM_OldCityInfill_Grid_N010_P000
s off
v -91449.88 -236.30 3277.58
v -89819.83 -1795.93 3277.58
v -90892.08 -2916.59 3277.58
v -92522.13 -1356.96 3277.58
v -91449.88 -236.30 3917.58
v -89819.83 -1795.93 3917.58
v -90892.08 -2916.59 3917.58
v -92522.13 -1356.96 3917.58
v -91346.42 -318.68 3367.58
v -91274.17 -387.82 3367.58
v -91274.17 -387.82 3547.58
v -91346.42 -318.68 3547.58
v -91336.74 -308.57 3367.58
v -91264.49 -377.70 3367.58
v -91264.49 -377.70 3547.58
v -91336.74 -308.57 3547.58
v -91336.30 -328.36 3381.58
v -91284.28 -378.14 3381.58
v -91284.28 -378.14 3533.58
v -91336.30 -328.36 3533.58
v -91326.63 -318.25 3381.58
v -91274.60 -368.02 3381.58
v -91274.60 -368.02 3533.58
v -91326.63 -318.25 3533.58
v -91118.51 -536.75 3367.58
v -91046.26 -605.88 3367.58
v -91046.26 -605.88 3547.58
v -91118.51 -536.75 3547.58
v -91108.83 -526.63 3367.58
v -91036.58 -595.77 3367.58
v -91036.58 -595.77 3547.58
v -91108.83 -526.63 3547.58
v -91108.39 -546.43 3381.58
v -91056.37 -596.20 3381.58
v -91056.37 -596.20 3533.58
v -91108.39 -546.43 3533.58
v -91098.72 -536.31 3381.58
v -91046.69 -586.09 3381.58
v -91046.69 -586.09 3533.58
v -91098.72 -536.31 3533.58
v -90890.60 -754.81 3367.58
v -90818.34 -823.95 3367.58
v -90818.34 -823.95 3547.58
v -90890.60 -754.81 3547.58
v -90880.92 -744.70 3367.58
v -90808.67 -813.83 3367.58
v -90808.67 -813.83 3547.58
v -90880.92 -744.70 3547.58
v -90880.48 -764.49 3381.58
v -90828.46 -814.27 3381.58
v -90828.46 -814.27 3533.58
v -90880.48 -764.49 3533.58
v -90870.80 -754.38 3381.58
v -90818.78 -804.15 3381.58
v -90818.78 -804.15 3533.58
v -90870.80 -754.38 3533.58
v -90662.69 -972.88 3367.58
v -90590.43 -1042.01 3367.58
v -90590.43 -1042.01 3547.58
v -90662.69 -972.88 3547.58
v -90653.01 -962.76 3367.58
v -90580.76 -1031.89 3367.58
v -90580.76 -1031.89 3547.58
v -90653.01 -962.76 3547.58
v -90652.57 -982.56 3381.58
v -90600.55 -1032.33 3381.58
v -90600.55 -1032.33 3533.58
v -90652.57 -982.56 3533.58
v -90642.89 -972.44 3381.58
v -90590.87 -1022.22 3381.58
v -90590.87 -1022.22 3533.58
v -90642.89 -972.44 3533.58
v -90434.78 -1190.94 3367.58
v -90362.52 -1260.07 3367.58
v -90362.52 -1260.07 3547.58
v -90434.78 -1190.94 3547.58
v -90425.10 -1180.83 3367.58
v -90352.85 -1249.96 3367.58
v -90352.85 -1249.96 3547.58
v -90425.10 -1180.83 3547.58
v -90424.66 -1200.62 3381.58
v -90372.64 -1250.40 3381.58
v -90372.64 -1250.40 3533.58
v -90424.66 -1200.62 3533.58
v -90414.98 -1190.50 3381.58
v -90362.96 -1240.28 3381.58
v -90362.96 -1240.28 3533.58
v -90414.98 -1190.50 3533.58
v -90206.87 -1409.01 3367.58
v -90134.61 -1478.14 3367.58
v -90134.61 -1478.14 3547.58
v -90206.87 -1409.01 3547.58
v -90197.19 -1398.89 3367.58
v -90124.94 -1468.02 3367.58
v -90124.94 -1468.02 3547.58
v -90197.19 -1398.89 3547.58
v -90196.75 -1418.68 3381.58
v -90144.73 -1468.46 3381.58
v -90144.73 -1468.46 3533.58
v -90196.75 -1418.68 3533.58
v -90187.07 -1408.57 3381.58
v -90135.05 -1458.34 3381.58
v -90135.05 -1458.34 3533.58
v -90187.07 -1408.57 3533.58
v -89978.96 -1627.07 3367.58
v -89906.70 -1696.20 3367.58
v -89906.70 -1696.20 3547.58
v -89978.96 -1627.07 3547.58
v -89969.28 -1616.96 3367.58
v -89897.03 -1686.09 3367.58
v -89897.03 -1686.09 3547.58
v -89969.28 -1616.96 3547.58
v -89968.84 -1636.75 3381.58
v -89916.82 -1686.52 3381.58
v -89916.82 -1686.52 3533.58
v -89968.84 -1636.75 3533.58
v -89959.16 -1626.63 3381.58
v -89907.14 -1676.41 3381.58
v -89907.14 -1676.41 3533.58
v -89959.16 -1626.63 3533.58
v -89897.09 -1894.04 3367.58
v -89966.23 -1966.29 3367.58
v -89966.23 -1966.29 3547.58
v -89897.09 -1894.04 3547.58
v -89886.98 -1903.72 3367.58
v -89956.11 -1975.97 3367.58
v -89956.11 -1975.97 3547.58
v -89886.98 -1903.72 3547.58
v -89906.77 -1904.16 3381.58
v -89956.55 -1956.18 3381.58
v -89956.55 -1956.18 3533.58
v -89906.77 -1904.16 3533.58
v -89896.66 -1913.83 3381.58
v -89946.43 -1965.86 3381.58
v -89946.43 -1965.86 3533.58
v -89896.66 -1913.83 3533.58
v -90104.91 -2111.24 3367.58
v -90174.04 -2183.49 3367.58
v -90174.04 -2183.49 3547.58
v -90104.91 -2111.24 3547.58
v -90094.79 -2120.91 3367.58
v -90163.92 -2193.17 3367.58
v -90163.92 -2193.17 3547.58
v -90094.79 -2120.91 3547.58
v -90114.58 -2121.35 3381.58
v -90164.36 -2173.37 3381.58
v -90164.36 -2173.37 3533.58
v -90114.58 -2121.35 3533.58
v -90104.47 -2131.03 3381.58
v -90154.24 -2183.05 3381.58
v -90154.24 -2183.05 3533.58
v -90104.47 -2131.03 3533.58
v -90312.72 -2328.43 3367.58
v -90381.85 -2400.69 3367.58
v -90381.85 -2400.69 3547.58
v -90312.72 -2328.43 3547.58
v -90302.60 -2338.11 3367.58
v -90371.74 -2410.36 3367.58
v -90371.74 -2410.36 3547.58
v -90302.60 -2338.11 3547.58
v -90322.40 -2338.55 3381.58
v -90372.17 -2390.57 3381.58
v -90372.17 -2390.57 3533.58
v -90322.40 -2338.55 3533.58
v -90312.28 -2348.23 3381.58
v -90362.06 -2400.25 3381.58
v -90362.06 -2400.25 3533.58
v -90312.28 -2348.23 3533.58
v -90520.53 -2545.63 3367.58
v -90589.66 -2617.88 3367.58
v -90589.66 -2617.88 3547.58
v -90520.53 -2545.63 3547.58
v -90510.42 -2555.31 3367.58
v -90579.55 -2627.56 3367.58
v -90579.55 -2627.56 3547.58
v -90510.42 -2555.31 3547.58
v -90530.21 -2555.74 3381.58
v -90579.99 -2607.77 3381.58
v -90579.99 -2607.77 3533.58
v -90530.21 -2555.74 3533.58
v -90520.10 -2565.42 3381.58
v -90569.87 -2617.44 3381.58
v -90569.87 -2617.44 3533.58
v -90520.10 -2565.42 3533.58
v -90728.35 -2762.82 3367.58
v -90797.48 -2835.08 3367.58
v -90797.48 -2835.08 3547.58
v -90728.35 -2762.82 3547.58
v -90718.23 -2772.50 3367.58
v -90787.36 -2844.76 3367.58
v -90787.36 -2844.76 3547.58
v -90718.23 -2772.50 3547.58
v -90738.02 -2772.94 3381.58
v -90787.80 -2824.96 3381.58
v -90787.80 -2824.96 3533.58
v -90738.02 -2772.94 3533.58
v -90727.91 -2782.62 3381.58
v -90777.68 -2834.64 3381.58
v -90777.68 -2834.64 3533.58
v -90727.91 -2782.62 3533.58
v -90995.55 -2834.21 3367.58
v -91067.80 -2765.07 3367.58
v -91067.80 -2765.07 3547.58
v -90995.55 -2834.21 3547.58
v -91005.22 -2844.32 3367.58
v -91077.48 -2775.19 3367.58
v -91077.48 -2775.19 3547.58
v -91005.22 -2844.32 3547.58
v -91005.66 -2824.53 3381.58
v -91057.68 -2774.75 3381.58
v -91057.68 -2774.75 3533.58
v -91005.66 -2824.53 3533.58
v -91015.34 -2834.64 3381.58
v -91067.36 -2784.87 3381.58
v -91067.36 -2784.87 3533.58
v -91015.34 -2834.64 3533.58
v -91223.46 -2616.14 3367.58
v -91295.71 -2547.01 3367.58
v -91295.71 -2547.01 3547.58
v -91223.46 -2616.14 3547.58
v -91233.13 -2626.26 3367.58
v -91305.39 -2557.12 3367.58
v -91305.39 -2557.12 3547.58
v -91233.13 -2626.26 3547.58
v -91233.57 -2606.46 3381.58
v -91285.59 -2556.69 3381.58
v -91285.59 -2556.69 3533.58
v -91233.57 -2606.46 3533.58
v -91243.25 -2616.58 3381.58
v -91295.27 -2566.80 3381.58
v -91295.27 -2566.80 3533.58
v -91243.25 -2616.58 3533.58
v -91451.37 -2398.08 3367.58
v -91523.62 -2328.94 3367.58
v -91523.62 -2328.94 3547.58
v -91451.37 -2398.08 3547.58
v -91461.04 -2408.19 3367.58
v -91533.30 -2339.06 3367.58
v -91533.30 -2339.06 3547.58
v -91461.04 -2408.19 3547.58
v -91461.48 -2388.40 3381.58
v -91513.50 -2338.62 3381.58
v -91513.50 -2338.62 3533.58
v -91461.48 -2388.40 3533.58
v -91471.16 -2398.51 3381.58
v -91523.18 -2348.74 3381.58
v -91523.18 -2348.74 3533.58
v -91471.16 -2398.51 3533.58
v -91907.19 -1961.95 3367.58
v -91979.44 -1892.82 3367.58
v -91979.44 -1892.82 3547.58
v -91907.19 -1961.95 3547.58
v -91916.86 -1972.06 3367.58
v -91989.12 -1902.93 3367.58
v -91989.12 -1902.93 3547.58
v -91916.86 -1972.06 3547.58
v -91917.30 -1952.27 3381.58
v -91969.32 -1902.49 3381.58
v -91969.32 -1902.49 3533.58
v -91917.30 -1952.27 3533.58
v -91926.98 -1962.38 3381.58
v -91979.00 -1912.61 3381.58
v -91979.00 -1912.61 3533.58
v -91926.98 -1962.38 3533.58
v -92135.10 -1743.88 3367.58
v -92207.35 -1674.75 3367.58
v -92207.35 -1674.75 3547.58
v -92135.10 -1743.88 3547.58
v -92144.77 -1754.00 3367.58
v -92217.03 -1684.87 3367.58
v -92217.03 -1684.87 3547.58
v -92144.77 -1754.00 3547.58
v -92145.21 -1734.20 3381.58
v -92197.23 -1684.43 3381.58
v -92197.23 -1684.43 3533.58
v -92145.21 -1734.20 3533.58
v -92154.89 -1744.32 3381.58
v -92206.91 -1694.54 3381.58
v -92206.91 -1694.54 3533.58
v -92154.89 -1744.32 3533.58
v -92363.01 -1525.82 3367.58
v -92435.26 -1456.69 3367.58
v -92435.26 -1456.69 3547.58
v -92363.01 -1525.82 3547.58
v -92372.69 -1535.93 3367.58
v -92444.94 -1466.80 3367.58
v -92444.94 -1466.80 3547.58
v -92372.69 -1535.93 3547.58
v -92373.12 -1516.14 3381.58
v -92425.14 -1466.36 3381.58
v -92425.14 -1466.36 3533.58
v -92373.12 -1516.14 3533.58
v -92382.80 -1526.26 3381.58
v -92434.82 -1476.48 3381.58
v -92434.82 -1476.48 3533.58
v -92382.80 -1526.26 3533.58
v -91672.05 -2186.93 3277.58
v -91758.76 -2103.97 3277.58
v -91758.76 -2103.97 3507.58
v -91672.05 -2186.93 3507.58
v -91685.88 -2201.38 3277.58
v -91772.58 -2118.42 3277.58
v -91772.58 -2118.42 3507.58
v -91685.88 -2201.38 3507.58
v -91685.06 -2174.48 3295.58
v -91745.75 -2116.41 3295.58
v -91745.75 -2116.41 3489.58
v -91685.06 -2174.48 3489.58
v -91698.88 -2188.93 3295.58
v -91759.58 -2130.86 3295.58
v -91759.58 -2130.86 3489.58
v -91698.88 -2188.93 3489.58
v -91657.60 -2200.75 3273.58
v -91773.21 -2090.14 3273.58
v -91791.18 -2108.93 3273.58
v -91675.57 -2219.54 3273.58
v -91657.60 -2200.75 3289.58
v -91773.21 -2090.14 3289.58
v -91791.18 -2108.93 3289.58
v -91675.57 -2219.54 3289.58
v -92444.87 -1258.85 3367.58
v -92375.74 -1186.60 3367.58
v -92375.74 -1186.60 3547.58
v -92444.87 -1258.85 3547.58
v -92454.99 -1249.17 3367.58
v -92385.85 -1176.92 3367.58
v -92385.85 -1176.92 3547.58
v -92454.99 -1249.17 3547.58
v -92435.19 -1248.73 3381.58
v -92385.42 -1196.71 3381.58
v -92385.42 -1196.71 3533.58
v -92435.19 -1248.73 3533.58
v -92445.31 -1239.06 3381.58
v -92395.53 -1187.03 3381.58
v -92395.53 -1187.03 3533.58
v -92445.31 -1239.06 3533.58
v -92237.06 -1041.65 3367.58
v -92167.93 -969.40 3367.58
v -92167.93 -969.40 3547.58
v -92237.06 -1041.65 3547.58
v -92247.17 -1031.98 3367.58
v -92178.04 -959.72 3367.58
v -92178.04 -959.72 3547.58
v -92247.17 -1031.98 3547.58
v -92227.38 -1031.54 3381.58
v -92177.60 -979.52 3381.58
v -92177.60 -979.52 3533.58
v -92227.38 -1031.54 3533.58
v -92237.50 -1021.86 3381.58
v -92187.72 -969.84 3381.58
v -92187.72 -969.84 3533.58
v -92237.50 -1021.86 3533.58
v -92029.25 -824.46 3367.58
v -91960.11 -752.20 3367.58
v -91960.11 -752.20 3547.58
v -92029.25 -824.46 3547.58
v -92039.36 -814.78 3367.58
v -91970.23 -742.53 3367.58
v -91970.23 -742.53 3547.58
v -92039.36 -814.78 3547.58
v -92019.57 -814.34 3381.58
v -91969.79 -762.32 3381.58
v -91969.79 -762.32 3533.58
v -92019.57 -814.34 3533.58
v -92029.68 -804.66 3381.58
v -91979.91 -752.64 3381.58
v -91979.91 -752.64 3533.58
v -92029.68 -804.66 3533.58
v -91821.43 -607.26 3367.58
v -91752.30 -535.01 3367.58
v -91752.30 -535.01 3547.58
v -91821.43 -607.26 3547.58
v -91831.55 -597.58 3367.58
v -91762.42 -525.33 3367.58
v -91762.42 -525.33 3547.58
v -91831.55 -597.58 3547.58
v -91811.75 -597.15 3381.58
v -91761.98 -545.12 3381.58
v -91761.98 -545.12 3533.58
v -91811.75 -597.15 3533.58
v -91821.87 -587.47 3381.58
v -91772.09 -535.45 3381.58
v -91772.09 -535.45 3533.58
v -91821.87 -587.47 3533.58
v -91613.62 -390.07 3367.58
v -91544.49 -317.81 3367.58
v -91544.49 -317.81 3547.58
v -91613.62 -390.07 3547.58
v -91623.74 -380.39 3367.58
v -91554.60 -308.13 3367.58
v -91554.60 -308.13 3547.58
v -91623.74 -380.39 3547.58
v -91603.94 -379.95 3381.58
v -91554.17 -327.93 3381.58
v -91554.17 -327.93 3533.58
v -91603.94 -379.95 3533.58
v -91614.06 -370.27 3381.58
v -91564.28 -318.25 3381.58
v -91564.28 -318.25 3533.58
v -91614.06 -370.27 3533.58
v -91450.45 -210.85 3887.58
v -89794.38 -1795.37 3887.58
v -90891.52 -2942.04 3887.58
v -92547.58 -1357.52 3887.58
v -91450.45 -210.85 3901.58
v -89794.38 -1795.37 3901.58
v -90891.52 -2942.04 3901.58
v -92547.58 -1357.52 3901.58
v -91450.07 -227.81 3887.58
v -89811.35 -1795.74 3887.58
v -90891.89 -2925.08 3887.58
v -92530.62 -1357.15 3887.58
v -91450.07 -227.81 3901.58
v -89811.35 -1795.74 3901.58
v -90891.89 -2925.08 3901.58
v -92530.62 -1357.15 3901.58
v -91450.76 -196.71 3865.58
v -89780.24 -1795.06 3865.58
v -90891.21 -2956.18 3865.58
v -92561.72 -1357.83 3865.58
v -91450.76 -196.71 3893.58
v -89780.24 -1795.06 3893.58
v -90891.21 -2956.18 3893.58
v -92561.72 -1357.83 3893.58
v -91450.07 -227.81 3865.58
v -89811.35 -1795.74 3865.58
v -90891.89 -2925.08 3865.58
v -92530.62 -1357.15 3865.58
v -91450.07 -227.81 3893.58
v -89811.35 -1795.74 3893.58
v -90891.89 -2925.08 3893.58
v -92530.62 -1357.15 3893.58
v -91450.57 -205.19 3923.58
v -89788.73 -1795.24 3923.58
v -90891.39 -2947.70 3923.58
v -92553.24 -1357.64 3923.58
v -91450.57 -205.19 3993.58
v -89788.73 -1795.24 3993.58
v -90891.39 -2947.70 3993.58
v -92553.24 -1357.64 3993.58
v -91448.95 -278.71 3923.58
v -89862.25 -1796.87 3923.58
v -90893.02 -2874.18 3923.58
v -92479.72 -1356.02 3923.58
v -91448.95 -278.71 3993.58
v -89862.25 -1796.87 3993.58
v -90893.02 -2874.18 3993.58
v -92479.72 -1356.02 3993.58
v -90836.59 -2867.27 3302.58
v -90891.89 -2925.08 3302.58
v -90884.67 -2931.99 3302.58
v -90829.36 -2874.19 3302.58
v -90836.59 -2867.27 3357.58
v -90891.89 -2925.08 3357.58
v -90884.67 -2931.99 3357.58
v -90829.36 -2874.19 3357.58
v -90891.89 -2925.08 3374.58
v -90932.36 -2886.36 3374.58
v -90939.27 -2893.59 3374.58
v -90898.81 -2932.30 3374.58
v -90891.89 -2925.08 3429.58
v -90932.36 -2886.36 3429.58
v -90939.27 -2893.59 3429.58
v -90898.81 -2932.30 3429.58
v -90836.59 -2867.27 3446.58
v -90891.89 -2925.08 3446.58
v -90884.67 -2931.99 3446.58
v -90829.36 -2874.19 3446.58
v -90836.59 -2867.27 3501.58
v -90891.89 -2925.08 3501.58
v -90884.67 -2931.99 3501.58
v -90829.36 -2874.19 3501.58
v -90891.89 -2925.08 3518.58
v -90932.36 -2886.36 3518.58
v -90939.27 -2893.59 3518.58
v -90898.81 -2932.30 3518.58
v -90891.89 -2925.08 3573.58
v -90932.36 -2886.36 3573.58
v -90939.27 -2893.59 3573.58
v -90898.81 -2932.30 3573.58
v -89869.15 -1740.44 3302.58
v -89811.35 -1795.74 3302.58
v -89804.43 -1788.52 3302.58
v -89862.24 -1733.21 3302.58
v -89869.15 -1740.44 3357.58
v -89811.35 -1795.74 3357.58
v -89804.43 -1788.52 3357.58
v -89862.24 -1733.21 3357.58
v -89811.35 -1795.74 3374.58
v -89850.06 -1836.21 3374.58
v -89842.84 -1843.12 3374.58
v -89804.12 -1802.66 3374.58
v -89811.35 -1795.74 3429.58
v -89850.06 -1836.21 3429.58
v -89842.84 -1843.12 3429.58
v -89804.12 -1802.66 3429.58
v -89869.15 -1740.44 3446.58
v -89811.35 -1795.74 3446.58
v -89804.43 -1788.52 3446.58
v -89862.24 -1733.21 3446.58
v -89869.15 -1740.44 3501.58
v -89811.35 -1795.74 3501.58
v -89804.43 -1788.52 3501.58
v -89862.24 -1733.21 3501.58
v -89811.35 -1795.74 3518.58
v -89850.06 -1836.21 3518.58
v -89842.84 -1843.12 3518.58
v -89804.12 -1802.66 3518.58
v -89811.35 -1795.74 3573.58
v -89850.06 -1836.21 3573.58
v -89842.84 -1843.12 3573.58
v -89804.12 -1802.66 3573.58
v -92472.81 -1412.45 3302.58
v -92530.62 -1357.15 3302.58
v -92537.53 -1364.37 3302.58
v -92479.73 -1419.68 3302.58
v -92472.81 -1412.45 3357.58
v -92530.62 -1357.15 3357.58
v -92537.53 -1364.37 3357.58
v -92479.73 -1419.68 3357.58
v -92530.62 -1357.15 3374.58
v -92491.90 -1316.68 3374.58
v -92499.13 -1309.77 3374.58
v -92537.84 -1350.23 3374.58
v -92530.62 -1357.15 3429.58
v -92491.90 -1316.68 3429.58
v -92499.13 -1309.77 3429.58
v -92537.84 -1350.23 3429.58
v -92472.81 -1412.45 3446.58
v -92530.62 -1357.15 3446.58
v -92537.53 -1364.37 3446.58
v -92479.73 -1419.68 3446.58
v -92472.81 -1412.45 3501.58
v -92530.62 -1357.15 3501.58
v -92537.53 -1364.37 3501.58
v -92479.73 -1419.68 3501.58
v -92530.62 -1357.15 3518.58
v -92491.90 -1316.68 3518.58
v -92499.13 -1309.77 3518.58
v -92537.84 -1350.23 3518.58
v -92530.62 -1357.15 3573.58
v -92491.90 -1316.68 3573.58
v -92499.13 -1309.77 3573.58
v -92537.84 -1350.23 3573.58
v -91505.38 -285.62 3302.58
v -91450.07 -227.81 3302.58
v -91457.30 -220.90 3302.58
v -91512.60 -278.70 3302.58
v -91505.38 -285.62 3357.58
v -91450.07 -227.81 3357.58
v -91457.30 -220.90 3357.58
v -91512.60 -278.70 3357.58
v -91450.07 -227.81 3374.58
v -91409.61 -266.53 3374.58
v -91402.70 -259.30 3374.58
v -91443.16 -220.59 3374.58
v -91450.07 -227.81 3429.58
v -91409.61 -266.53 3429.58
v -91402.70 -259.30 3429.58
v -91443.16 -220.59 3429.58
v -91505.38 -285.62 3446.58
v -91450.07 -227.81 3446.58
v -91457.30 -220.90 3446.58
v -91512.60 -278.70 3446.58
v -91505.38 -285.62 3501.58
v -91450.07 -227.81 3501.58
v -91457.30 -220.90 3501.58
v -91512.60 -278.70 3501.58
v -91450.07 -227.81 3518.58
v -91409.61 -266.53 3518.58
v -91402.70 -259.30 3518.58
v -91443.16 -220.59 3518.58
v -91450.07 -227.81 3573.58
v -91409.61 -266.53 3573.58
v -91402.70 -259.30 3573.58
v -91443.16 -220.59 3573.58
vt -228.0340 8.1939
vt -220.0598 8.1939
vt -219.9387 8.1939
vt -227.9129 8.1939
vt -228.0340 9.7940
vt -220.0598 9.7940
vt -219.9387 9.7940
vt -227.9129 9.7940
vt -227.5694 8.4190
vt -227.2159 8.4190
vt -227.2159 8.8689
vt -227.5694 8.8689
vt -227.5704 8.4190
vt -227.2170 8.4190
vt -227.2170 8.8689
vt -227.5704 8.8689
vt -227.5199 8.4539
vt -227.2654 8.4539
vt -227.2654 8.8339
vt -227.5199 8.8339
vt -227.5209 8.4539
vt -227.2664 8.4539
vt -227.2664 8.8339
vt -227.5209 8.8339
vt -226.4544 8.4190
vt -226.1009 8.4190
vt -226.1009 8.8689
vt -226.4544 8.8689
vt -226.4555 8.4190
vt -226.1020 8.4190
vt -226.1020 8.8689
vt -226.4555 8.8689
vt -226.4049 8.4539
vt -226.1504 8.4539
vt -226.1504 8.8339
vt -226.4049 8.8339
vt -226.4060 8.4539
vt -226.1515 8.4539
vt -226.1515 8.8339
vt -226.4060 8.8339
vt -225.3395 8.4190
vt -224.9860 8.4190
vt -224.9860 8.8689
vt -225.3395 8.8689
vt -225.3406 8.4190
vt -224.9871 8.4190
vt -224.9871 8.8689
vt -225.3406 8.8689
vt -225.2900 8.4539
vt -225.0355 8.4539
vt -225.0355 8.8339
vt -225.2900 8.8339
vt -225.2910 8.4539
vt -225.0366 8.4539
vt -225.0366 8.8339
vt -225.2910 8.8339
vt -224.2245 8.4190
vt -223.8710 8.4190
vt -223.8710 8.8689
vt -224.2245 8.8689
vt -224.2256 8.4190
vt -223.8722 8.4190
vt -223.8722 8.8689
vt -224.2256 8.8689
vt -224.1750 8.4539
vt -223.9205 8.4539
vt -223.9205 8.8339
vt -224.1750 8.8339
vt -224.1761 8.4539
vt -223.9216 8.4539
vt -223.9216 8.8339
vt -224.1761 8.8339
vt -223.1096 8.4190
vt -222.7561 8.4190
vt -222.7561 8.8689
vt -223.1096 8.8689
vt -223.1107 8.4190
vt -222.7572 8.4190
vt -222.7572 8.8689
vt -223.1107 8.8689
vt -223.0601 8.4539
vt -222.8056 8.4539
vt -222.8056 8.8339
vt -223.0601 8.8339
vt -223.0612 8.4539
vt -222.8067 8.4539
vt -222.8067 8.8339
vt -223.0612 8.8339
vt -221.9947 8.4190
vt -221.6412 8.4190
vt -221.6412 8.8689
vt -221.9947 8.8689
vt -221.9958 8.4190
vt -221.6423 8.4190
vt -221.6423 8.8689
vt -221.9958 8.8689
vt -221.9452 8.4539
vt -221.6907 8.4539
vt -221.6907 8.8339
vt -221.9452 8.8339
vt -221.9462 8.4539
vt -221.6918 8.4539
vt -221.6918 8.8339
vt -221.9462 8.8339
vt -220.8797 8.4190
vt -220.5263 8.4190
vt -220.5263 8.8689
vt -220.8797 8.8689
vt -220.8808 8.4190
vt -220.5274 8.4190
vt -220.5274 8.8689
vt -220.8808 8.8689
vt -220.8302 8.4539
vt -220.5757 8.4539
vt -220.5757 8.8339
vt -220.8302 8.8339
vt -220.8313 8.4539
vt -220.5768 8.4539
vt -220.5768 8.8339
vt -220.8313 8.8339
vt -220.0076 8.4190
vt -219.9999 8.4190
vt -219.9999 8.8689
vt -220.0076 8.8689
vt -219.9581 8.4190
vt -219.9503 8.4190
vt -219.9503 8.8689
vt -219.9581 8.8689
vt -220.0065 8.4539
vt -220.0009 8.4539
vt -220.0009 8.8339
vt -220.0065 8.8339
vt -219.9571 8.4539
vt -219.9514 8.4539
vt -219.9514 8.8339
vt -219.9571 8.8339
vt -219.9842 8.4190
vt -219.9764 8.4190
vt -219.9764 8.8689
vt -219.9842 8.8689
vt -219.9347 8.4190
vt -219.9269 8.4190
vt -219.9269 8.8689
vt -219.9347 8.8689
vt -219.9831 8.4539
vt -219.9775 8.4539
vt -219.9775 8.8339
vt -219.9831 8.8339
vt -219.9336 8.4539
vt -219.9280 8.4539
vt -219.9280 8.8339
vt -219.9336 8.8339
vt -219.9607 8.4190
vt -219.9529 8.4190
vt -219.9529 8.8689
vt -219.9607 8.8689
vt -219.9112 8.4190
vt -219.9035 8.4190
vt -219.9035 8.8689
vt -219.9112 8.8689
vt -219.9596 8.4539
vt -219.9540 8.4539
vt -219.9540 8.8339
vt -219.9596 8.8339
vt -219.9101 8.4539
vt -219.9045 8.4539
vt -219.9045 8.8339
vt -219.9101 8.8339
vt -219.9372 8.4190
vt -219.9295 8.4190
vt -219.9295 8.8689
vt -219.9372 8.8689
vt -219.8878 8.4190
vt -219.8800 8.4190
vt -219.8800 8.8689
vt -219.8878 8.8689
vt -219.9362 8.4539
vt -219.9306 8.4539
vt -219.9306 8.8339
vt -219.9362 8.8339
vt -219.8867 8.4539
vt -219.8811 8.4539
vt -219.8811 8.8339
vt -219.8867 8.8339
vt -219.9138 8.4190
vt -219.9060 8.4190
vt -219.9060 8.8689
vt -219.9138 8.8689
vt -219.8643 8.4190
vt -219.8565 8.4190
vt -219.8565 8.8689
vt -219.8643 8.8689
vt -219.9127 8.4539
vt -219.9071 8.4539
vt -219.9071 8.8339
vt -219.9127 8.8339
vt -219.8632 8.4539
vt -219.8576 8.4539
vt -219.8576 8.8339
vt -219.8632 8.8339
vt -220.4033 8.4190
vt -220.7568 8.4190
vt -220.7568 8.8689
vt -220.4033 8.8689
vt -220.4022 8.4190
vt -220.7557 8.4190
vt -220.7557 8.8689
vt -220.4022 8.8689
vt -220.4528 8.4539
vt -220.7073 8.4539
vt -220.7073 8.8339
vt -220.4528 8.8339
vt -220.4518 8.4539
vt -220.7062 8.4539
vt -220.7062 8.8339
vt -220.4518 8.8339
vt -221.5183 8.4190
vt -221.8718 8.4190
vt -221.8718 8.8689
vt -221.5183 8.8689
vt -221.5172 8.4190
vt -221.8707 8.4190
vt -221.8707 8.8689
vt -221.5172 8.8689
vt -221.5678 8.4539
vt -221.8222 8.4539
vt -221.8222 8.8339
vt -221.5678 8.8339
vt -221.5667 8.4539
vt -221.8212 8.4539
vt -221.8212 8.8339
vt -221.5667 8.8339
vt -222.6332 8.4190
vt -222.9867 8.4190
vt -222.9867 8.8689
vt -222.6332 8.8689
vt -222.6321 8.4190
vt -222.9856 8.4190
vt -222.9856 8.8689
vt -222.6321 8.8689
vt -222.6827 8.4539
vt -222.9372 8.4539
vt -222.9372 8.8339
vt -222.6827 8.8339
vt -222.6816 8.4539
vt -222.9361 8.4539
vt -222.9361 8.8339
vt -222.6816 8.8339
vt -224.8631 8.4190
vt -225.2165 8.4190
vt -225.2165 8.8689
vt -224.8631 8.8689
vt -224.8620 8.4190
vt -225.2155 8.4190
vt -225.2155 8.8689
vt -224.8620 8.8689
vt -224.9126 8.4539
vt -225.1671 8.4539
vt -225.1671 8.8339
vt -224.9126 8.8339
vt -224.9115 8.4539
vt -225.1660 8.4539
vt -225.1660 8.8339
vt -224.9115 8.8339
vt -225.9780 8.4190
vt -226.3315 8.4190
vt -226.3315 8.8689
vt -225.9780 8.8689
vt -225.9769 8.4190
vt -226.3304 8.4190
vt -226.3304 8.8689
vt -225.9769 8.8689
vt -226.0275 8.4539
vt -226.2820 8.4539
vt -226.2820 8.8339
vt -226.0275 8.8339
vt -226.0264 8.4539
vt -226.2809 8.4539
vt -226.2809 8.8339
vt -226.0264 8.8339
vt -227.0930 8.4190
vt -227.4464 8.4190
vt -227.4464 8.8689
vt -227.0930 8.8689
vt -227.0919 8.4190
vt -227.4453 8.4190
vt -227.4453 8.8689
vt -227.0919 8.8689
vt -227.1424 8.4539
vt -227.3970 8.4539
vt -227.3970 8.8339
vt -227.1424 8.8339
vt -227.1414 8.4539
vt -227.3959 8.4539
vt -227.3959 8.8339
vt -227.1414 8.8339
vt -223.7128 8.1939
vt -224.1370 8.1939
vt -224.1370 8.7690
vt -223.7128 8.7690
vt -223.7113 8.1939
vt -224.1354 8.1939
vt -224.1354 8.7690
vt -223.7113 8.7690
vt -223.7765 8.2389
vt -224.0734 8.2389
vt -224.0734 8.7240
vt -223.7765 8.7240
vt -223.7749 8.2389
vt -224.0718 8.2389
vt -224.0718 8.7240
vt -223.7749 8.7240
vt -223.6421 8.1839
vt -224.2077 8.1839
vt -224.2056 8.1839
vt -223.6401 8.1839
vt -223.6421 8.2240
vt -224.2077 8.2240
vt -224.2056 8.2240
vt -223.6401 8.2240
vt -227.9650 8.4190
vt -227.9728 8.4190
vt -227.9728 8.8689
vt -227.9650 8.8689
vt -228.0146 8.4190
vt -228.0223 8.4190
vt -228.0223 8.8689
vt -228.0146 8.8689
vt -227.9662 8.4539
vt -227.9718 8.4539
vt -227.9718 8.8339
vt -227.9662 8.8339
vt -228.0156 8.4539
vt -228.0213 8.4539
vt -228.0213 8.8339
vt -228.0156 8.8339
vt -227.9885 8.4190
vt -227.9963 8.4190
vt -227.9963 8.8689
vt -227.9885 8.8689
vt -228.0380 8.4190
vt -228.0458 8.4190
vt -228.0458 8.8689
vt -228.0380 8.8689
vt -227.9896 8.4539
vt -227.9952 8.4539
vt -227.9952 8.8339
vt -227.9896 8.8339
vt -228.0391 8.4539
vt -228.0447 8.4539
vt -228.0447 8.8339
vt -228.0391 8.8339
vt -228.0120 8.4190
vt -228.0198 8.4190
vt -228.0198 8.8689
vt -228.0120 8.8689
vt -228.0615 8.4190
vt -228.0692 8.4190
vt -228.0692 8.8689
vt -228.0615 8.8689
vt -228.0131 8.4539
vt -228.0187 8.4539
vt -228.0187 8.8339
vt -228.0131 8.8339
vt -228.0625 8.4539
vt -228.0682 8.4539
vt -228.0682 8.8339
vt -228.0625 8.8339
vt -228.0354 8.4190
vt -228.0432 8.4190
vt -228.0432 8.8689
vt -228.0354 8.8689
vt -228.0849 8.4190
vt -228.0927 8.4190
vt -228.0927 8.8689
vt -228.0849 8.8689
vt -228.0365 8.4539
vt -228.0421 8.4539
vt -228.0421 8.8339
vt -228.0365 8.8339
vt -228.0860 8.4539
vt -228.0916 8.4539
vt -228.0916 8.8339
vt -228.0860 8.8339
vt -228.0589 8.4190
vt -228.0667 8.4190
vt -228.0667 8.8689
vt -228.0589 8.8689
vt -228.1084 8.4190
vt -228.1162 8.4190
vt -228.1162 8.8689
vt -228.1084 8.8689
vt -228.0600 8.4539
vt -228.0656 8.4539
vt -228.0656 8.8339
vt -228.0600 8.8339
vt -228.1095 8.4539
vt -228.1151 8.4539
vt -228.1151 8.8339
vt -228.1095 8.8339
vt -228.0990 9.7189
vt -219.9975 9.7189
vt -219.8737 9.7189
vt -227.9751 9.7189
vt -228.0990 9.7539
vt -219.9975 9.7539
vt -219.8737 9.7539
vt -227.9751 9.7539
vt -228.0557 9.7189
vt -220.0390 9.7189
vt -219.9170 9.7189
vt -227.9337 9.7189
vt -228.0557 9.7539
vt -220.0390 9.7539
vt -219.9170 9.7539
vt -227.9337 9.7539
vt -228.1351 9.6639
vt -219.9630 9.6639
vt -219.8376 9.6639
vt -228.0097 9.6639
vt -228.1351 9.7340
vt -219.9630 9.7340
vt -219.8376 9.7340
vt -228.0097 9.7340
vt -228.0557 9.6639
vt -220.0390 9.6639
vt -219.9170 9.6639
vt -227.9337 9.6639
vt -228.0557 9.7340
vt -220.0390 9.7340
vt -219.9170 9.7340
vt -227.9337 9.7340
vt -228.1135 9.8089
vt -219.9837 9.8089
vt -219.8592 9.8089
vt -227.9890 9.8089
vt -228.1135 9.9840
vt -219.9837 9.9840
vt -219.8592 9.9840
vt -227.9890 9.9840
vt -227.9256 9.8089
vt -220.1635 9.8089
vt -220.0471 9.8089
vt -227.8092 9.8089
vt -227.9256 9.9840
vt -220.1635 9.9840
vt -220.0471 9.9840
vt -227.8092 9.9840
vt -219.9233 8.2564
vt -219.9170 8.2564
vt -219.8817 8.2564
vt -219.8879 8.2564
vt -219.9233 8.3940
vt -219.9170 8.3940
vt -219.8817 8.3940
vt -219.8879 8.3940
vt -219.9170 8.4365
vt -220.1150 8.4365
vt -220.1142 8.4365
vt -219.9163 8.4365
vt -219.9170 8.5739
vt -220.1150 8.5739
vt -220.1142 8.5739
vt -219.9163 8.5739
vt -219.9233 8.6165
vt -219.9170 8.6165
vt -219.8817 8.6165
vt -219.8879 8.6165
vt -219.9233 8.7539
vt -219.9170 8.7539
vt -219.8817 8.7539
vt -219.8879 8.7539
vt -219.9170 8.7965
vt -220.1150 8.7965
vt -220.1142 8.7965
vt -219.9163 8.7965
vt -219.9170 8.9339
vt -220.1150 8.9339
vt -220.1142 8.9339
vt -219.9163 8.9339
vt -220.3218 8.2564
vt -220.0390 8.2564
vt -220.0398 8.2564
vt -220.3226 8.2564
vt -220.3218 8.3940
vt -220.0390 8.3940
vt -220.0398 8.3940
vt -220.3226 8.3940
vt -220.0390 8.4365
vt -220.0346 8.4365
vt -219.9993 8.4365
vt -220.0036 8.4365
vt -220.0390 8.5739
vt -220.0346 8.5739
vt -219.9993 8.5739
vt -220.0036 8.5739
vt -220.3218 8.6165
vt -220.0390 8.6165
vt -220.0398 8.6165
vt -220.3226 8.6165
vt -220.3218 8.7539
vt -220.0390 8.7539
vt -220.0398 8.7539
vt -220.3226 8.7539
vt -220.0390 8.7965
vt -220.0346 8.7965
vt -219.9993 8.7965
vt -220.0036 8.7965
vt -220.0390 8.9339
vt -220.0346 8.9339
vt -219.9993 8.9339
vt -220.0036 8.9339
vt -227.6509 8.2564
vt -227.9337 8.2564
vt -227.9329 8.2564
vt -227.6501 8.2564
vt -227.6509 8.3940
vt -227.9337 8.3940
vt -227.9329 8.3940
vt -227.6501 8.3940
vt -227.9337 8.4365
vt -227.9381 8.4365
vt -227.9734 8.4365
vt -227.9690 8.4365
vt -227.9337 8.5739
vt -227.9381 8.5739
vt -227.9734 8.5739
vt -227.9690 8.5739
vt -227.6509 8.6165
vt -227.9337 8.6165
vt -227.9329 8.6165
vt -227.6501 8.6165
vt -227.6509 8.7539
vt -227.9337 8.7539
vt -227.9329 8.7539
vt -227.6501 8.7539
vt -227.9337 8.7965
vt -227.9381 8.7965
vt -227.9734 8.7965
vt -227.9690 8.7965
vt -227.9337 8.9339
vt -227.9381 8.9339
vt -227.9734 8.9339
vt -227.9690 8.9339
vt -228.0494 8.2564
vt -228.0557 8.2564
vt -228.0910 8.2564
vt -228.0848 8.2564
vt -228.0494 8.3940
vt -228.0557 8.3940
vt -228.0910 8.3940
vt -228.0848 8.3940
vt -228.0557 8.4365
vt -227.8577 8.4365
vt -227.8585 8.4365
vt -228.0564 8.4365
vt -228.0557 8.5739
vt -227.8577 8.5739
vt -227.8585 8.5739
vt -228.0564 8.5739
vt -228.0494 8.6165
vt -228.0557 8.6165
vt -228.0910 8.6165
vt -228.0848 8.6165
vt -228.0494 8.7539
vt -228.0557 8.7539
vt -228.0910 8.7539
vt -228.0848 8.7539
vt -228.0557 8.7965
vt -227.8577 8.7965
vt -227.8585 8.7965
vt -228.0564 8.7965
vt -228.0557 8.9339
vt -227.8577 8.9339
vt -227.8585 8.9339
vt -228.0564 8.9339
vn 0.6913 0.7225 0.0000
vn 0.7225 -0.6913 0.0000
vn -0.6913 -0.7225 0.0000
vn -0.7225 0.6913 0.0000
vn 0.0000 -0.0000 1.0000
vn 0.0000 -0.0000 -1.0000
f 1/1/1 6/6/1 2/2/1
f 1/1/1 5/5/1 6/6/1
f 2/2/2 7/7/2 3/3/2
f 2/2/2 6/6/2 7/7/2
f 3/3/3 8/8/3 4/4/3
f 3/3/3 7/7/3 8/8/3
f 4/4/4 5/5/4 1/1/4
f 4/4/4 8/8/4 5/5/4
f 5/5/5 7/7/5 6/6/5
f 5/5/5 8/8/5 7/7/5
f 4/4/6 2/2/6 3/3/6
f 4/4/6 1/1/6 2/2/6
f 9/9/6 14/14/6 10/10/6
f 9/9/6 13/13/6 14/14/6
f 18/18/5 21/21/5 17/17/5
f 18/18/5 22/22/5 21/21/5
f 13/13/1 22/22/1 14/14/1
f 13/13/1 21/21/1 22/22/1
f 10/10/3 17/17/3 9/9/3
f 10/10/3 18/18/3 17/17/3
f 10/10/2 15/15/2 11/11/2
f 10/10/2 14/14/2 15/15/2
f 19/19/4 22/22/4 18/18/4
f 19/19/4 23/23/4 22/22/4
f 14/14/1 23/23/1 15/15/1
f 14/14/1 22/22/1 23/23/1
f 11/11/3 18/18/3 10/10/3
f 11/11/3 19/19/3 18/18/3
f 11/11/5 16/16/5 12/12/5
f 11/11/5 15/15/5 16/16/5
f 20/20/6 23/23/6 19/19/6
f 20/20/6 24/24/6 23/23/6
f 15/15/1 24/24/1 16/16/1
f 15/15/1 23/23/1 24/24/1
f 12/12/3 19/19/3 11/11/3
f 12/12/3 20/20/3 19/19/3
f 12/12/4 13/13/4 9/9/4
f 12/12/4 16/16/4 13/13/4
f 17/17/2 24/24/2 20/20/2
f 17/17/2 21/21/2 24/24/2
f 16/16/1 21/21/1 13/13/1
f 16/16/1 24/24/1 21/21/1
f 9/9/3 20/20/3 12/12/3
f 9/9/3 17/17/3 20/20/3
f 25/25/6 30/30/6 26/26/6
f 25/25/6 29/29/6 30/30/6
f 34/34/5 37/37/5 33/33/5
f 34/34/5 38/38/5 37/37/5
f 29/29/1 38/38/1 30/30/1
f 29/29/1 37/37/1 38/38/1
f 26/26/3 33/33/3 25/25/3
f 26/26/3 34/34/3 33/33/3
f 26/26/2 31/31/2 27/27/2
f 26/26/2 30/30/2 31/31/2
f 35/35/4 38/38/4 34/34/4
f 35/35/4 39/39/4 38/38/4
f 30/30/1 39/39/1 31/31/1
f 30/30/1 38/38/1 39/39/1
f 27/27/3 34/34/3 26/26/3
f 27/27/3 35/35/3 34/34/3
f 27/27/5 32/32/5 28/28/5
f 27/27/5 31/31/5 32/32/5
f 36/36/6 39/39/6 35/35/6
f 36/36/6 40/40/6 39/39/6
f 31/31/1 40/40/1 32/32/1
f 31/31/1 39/39/1 40/40/1
f 28/28/3 35/35/3 27/27/3
f 28/28/3 36/36/3 35/35/3
f 28/28/4 29/29/4 25/25/4
f 28/28/4 32/32/4 29/29/4
f 33/33/2 40/40/2 36/36/2
f 33/33/2 37/37/2 40/40/2
f 32/32/1 37/37/1 29/29/1
f 32/32/1 40/40/1 37/37/1
f 25/25/3 36/36/3 28/28/3
f 25/25/3 33/33/3 36/36/3
f 41/41/6 46/46/6 42/42/6
f 41/41/6 45/45/6 46/46/6
f 50/50/5 53/53/5 49/49/5
f 50/50/5 54/54/5 53/53/5
f 45/45/1 54/54/1 46/46/1
f 45/45/1 53/53/1 54/54/1
f 42/42/3 49/49/3 41/41/3
f 42/42/3 50/50/3 49/49/3
f 42/42/2 47/47/2 43/43/2
f 42/42/2 46/46/2 47/47/2
f 51/51/4 54/54/4 50/50/4
f 51/51/4 55/55/4 54/54/4
f 46/46/1 55/55/1 47/47/1
f 46/46/1 54/54/1 55/55/1
f 43/43/3 50/50/3 42/42/3
f 43/43/3 51/51/3 50/50/3
f 43/43/5 48/48/5 44/44/5
f 43/43/5 47/47/5 48/48/5
f 52/52/6 55/55/6 51/51/6
f 52/52/6 56/56/6 55/55/6
f 47/47/1 56/56/1 48/48/1
f 47/47/1 55/55/1 56/56/1
f 44/44/3 51/51/3 43/43/3
f 44/44/3 52/52/3 51/51/3
f 44/44/4 45/45/4 41/41/4
f 44/44/4 48/48/4 45/45/4
f 49/49/2 56/56/2 52/52/2
f 49/49/2 53/53/2 56/56/2
f 48/48/1 53/53/1 45/45/1
f 48/48/1 56/56/1 53/53/1
f 41/41/3 52/52/3 44/44/3
f 41/41/3 49/49/3 52/52/3
f 57/57/6 62/62/6 58/58/6
f 57/57/6 61/61/6 62/62/6
f 66/66/5 69/69/5 65/65/5
f 66/66/5 70/70/5 69/69/5
f 61/61/1 70/70/1 62/62/1
f 61/61/1 69/69/1 70/70/1
f 58/58/3 65/65/3 57/57/3
f 58/58/3 66/66/3 65/65/3
f 58/58/2 63/63/2 59/59/2
f 58/58/2 62/62/2 63/63/2
f 67/67/4 70/70/4 66/66/4
f 67/67/4 71/71/4 70/70/4
f 62/62/1 71/71/1 63/63/1
f 62/62/1 70/70/1 71/71/1
f 59/59/3 66/66/3 58/58/3
f 59/59/3 67/67/3 66/66/3
f 59/59/5 64/64/5 60/60/5
f 59/59/5 63/63/5 64/64/5
f 68/68/6 71/71/6 67/67/6
f 68/68/6 72/72/6 71/71/6
f 63/63/1 72/72/1 64/64/1
f 63/63/1 71/71/1 72/72/1
f 60/60/3 67/67/3 59/59/3
f 60/60/3 68/68/3 67/67/3
f 60/60/4 61/61/4 57/57/4
f 60/60/4 64/64/4 61/61/4
f 65/65/2 72/72/2 68/68/2
f 65/65/2 69/69/2 72/72/2
f 64/64/1 69/69/1 61/61/1
f 64/64/1 72/72/1 69/69/1
f 57/57/3 68/68/3 60/60/3
f 57/57/3 65/65/3 68/68/3
f 73/73/6 78/78/6 74/74/6
f 73/73/6 77/77/6 78/78/6
f 82/82/5 85/85/5 81/81/5
f 82/82/5 86/86/5 85/85/5
f 77/77/1 86/86/1 78/78/1
f 77/77/1 85/85/1 86/86/1
f 74/74/3 81/81/3 73/73/3
f 74/74/3 82/82/3 81/81/3
f 74/74/2 79/79/2 75/75/2
f 74/74/2 78/78/2 79/79/2
f 83/83/4 86/86/4 82/82/4
f 83/83/4 87/87/4 86/86/4
f 78/78/1 87/87/1 79/79/1
f 78/78/1 86/86/1 87/87/1
f 75/75/3 82/82/3 74/74/3
f 75/75/3 83/83/3 82/82/3
f 75/75/5 80/80/5 76/76/5
f 75/75/5 79/79/5 80/80/5
f 84/84/6 87/87/6 83/83/6
f 84/84/6 88/88/6 87/87/6
f 79/79/1 88/88/1 80/80/1
f 79/79/1 87/87/1 88/88/1
f 76/76/3 83/83/3 75/75/3
f 76/76/3 84/84/3 83/83/3
f 76/76/4 77/77/4 73/73/4
f 76/76/4 80/80/4 77/77/4
f 81/81/2 88/88/2 84/84/2
f 81/81/2 85/85/2 88/88/2
f 80/80/1 85/85/1 77/77/1
f 80/80/1 88/88/1 85/85/1
f 73/73/3 84/84/3 76/76/3
f 73/73/3 81/81/3 84/84/3
f 89/89/6 94/94/6 90/90/6
f 89/89/6 93/93/6 94/94/6
f 98/98/5 101/101/5 97/97/5
f 98/98/5 102/102/5 101/101/5
f 93/93/1 102/102/1 94/94/1
f 93/93/1 101/101/1 102/102/1
f 90/90/3 97/97/3 89/89/3
f 90/90/3 98/98/3 97/97/3
f 90/90/2 95/95/2 91/91/2
f 90/90/2 94/94/2 95/95/2
f 99/99/4 102/102/4 98/98/4
f 99/99/4 103/103/4 102/102/4
f 94/94/1 103/103/1 95/95/1
f 94/94/1 102/102/1 103/103/1
f 91/91/3 98/98/3 90/90/3
f 91/91/3 99/99/3 98/98/3
f 91/91/5 96/96/5 92/92/5
f 91/91/5 95/95/5 96/96/5
f 100/100/6 103/103/6 99/99/6
f 100/100/6 104/104/6 103/103/6
f 95/95/1 104/104/1 96/96/1
f 95/95/1 103/103/1 104/104/1
f 92/92/3 99/99/3 91/91/3
f 92/92/3 100/100/3 99/99/3
f 92/92/4 93/93/4 89/89/4
f 92/92/4 96/96/4 93/93/4
f 97/97/2 104/104/2 100/100/2
f 97/97/2 101/101/2 104/104/2
f 96/96/1 101/101/1 93/93/1
f 96/96/1 104/104/1 101/101/1
f 89/89/3 100/100/3 92/92/3
f 89/89/3 97/97/3 100/100/3
f 105/105/6 110/110/6 106/106/6
f 105/105/6 109/109/6 110/110/6
f 114/114/5 117/117/5 113/113/5
f 114/114/5 118/118/5 117/117/5
f 109/109/1 118/118/1 110/110/1
f 109/109/1 117/117/1 118/118/1
f 106/106/3 113/113/3 105/105/3
f 106/106/3 114/114/3 113/113/3
f 106/106/2 111/111/2 107/107/2
f 106/106/2 110/110/2 111/111/2
f 115/115/4 118/118/4 114/114/4
f 115/115/4 119/119/4 118/118/4
f 110/110/1 119/119/1 111/111/1
f 110/110/1 118/118/1 119/119/1
f 107/107/3 114/114/3 106/106/3
f 107/107/3 115/115/3 114/114/3
f 107/107/5 112/112/5 108/108/5
f 107/107/5 111/111/5 112/112/5
f 116/116/6 119/119/6 115/115/6
f 116/116/6 120/120/6 119/119/6
f 111/111/1 120/120/1 112/112/1
f 111/111/1 119/119/1 120/120/1
f 108/108/3 115/115/3 107/107/3
f 108/108/3 116/116/3 115/115/3
f 108/108/4 109/109/4 105/105/4
f 108/108/4 112/112/4 109/109/4
f 113/113/2 120/120/2 116/116/2
f 113/113/2 117/117/2 120/120/2
f 112/112/1 117/117/1 109/109/1
f 112/112/1 120/120/1 117/117/1
f 105/105/3 116/116/3 108/108/3
f 105/105/3 113/113/3 116/116/3
f 121/121/6 126/126/6 122/122/6
f 121/121/6 125/125/6 126/126/6
f 130/130/5 133/133/5 129/129/5
f 130/130/5 134/134/5 133/133/5
f 125/125/2 134/134/2 126/126/2
f 125/125/2 133/133/2 134/134/2
f 122/122/4 129/129/4 121/121/4
f 122/122/4 130/130/4 129/129/4
f 122/122/3 127/127/3 123/123/3
f 122/122/3 126/126/3 127/127/3
f 131/131/1 134/134/1 130/130/1
f 131/131/1 135/135/1 134/134/1
f 126/126/2 135/135/2 127/127/2
f 126/126/2 134/134/2 135/135/2
f 123/123/4 130/130/4 122/122/4
f 123/123/4 131/131/4 130/130/4
f 123/123/5 128/128/5 124/124/5
f 123/123/5 127/127/5 128/128/5
f 132/132/6 135/135/6 131/131/6
f 132/132/6 136/136/6 135/135/6
f 127/127/2 136/136/2 128/128/2
f 127/127/2 135/135/2 136/136/2
f 124/124/4 131/131/4 123/123/4
f 124/124/4 132/132/4 131/131/4
f 124/124/1 125/125/1 121/121/1
f 124/124/1 128/128/1 125/125/1
f 129/129/3 136/136/3 132/132/3
f 129/129/3 133/133/3 136/136/3
f 128/128/2 133/133/2 125/125/2
f 128/128/2 136/136/2 133/133/2
f 121/121/4 132/132/4 124/124/4
f 121/121/4 129/129/4 132/132/4
f 137/137/6 142/142/6 138/138/6
f 137/137/6 141/141/6 142/142/6
f 146/146/5 149/149/5 145/145/5
f 146/146/5 150/150/5 149/149/5
f 141/141/2 150/150/2 142/142/2
f 141/141/2 149/149/2 150/150/2
f 138/138/4 145/145/4 137/137/4
f 138/138/4 146/146/4 145/145/4
f 138/138/3 143/143/3 139/139/3
f 138/138/3 142/142/3 143/143/3
f 147/147/1 150/150/1 146/146/1
f 147/147/1 151/151/1 150/150/1
f 142/142/2 151/151/2 143/143/2
f 142/142/2 150/150/2 151/151/2
f 139/139/4 146/146/4 138/138/4
f 139/139/4 147/147/4 146/146/4
f 139/139/5 144/144/5 140/140/5
f 139/139/5 143/143/5 144/144/5
f 148/148/6 151/151/6 147/147/6
f 148/148/6 152/152/6 151/151/6
f 143/143/2 152/152/2 144/144/2
f 143/143/2 151/151/2 152/152/2
f 140/140/4 147/147/4 139/139/4
f 140/140/4 148/148/4 147/147/4
f 140/140/1 141/141/1 137/137/1
f 140/140/1 144/144/1 141/141/1
f 145/145/3 152/152/3 148/148/3
f 145/145/3 149/149/3 152/152/3
f 144/144/2 149/149/2 141/141/2
f 144/144/2 152/152/2 149/149/2
f 137/137/4 148/148/4 140/140/4
f 137/137/4 145/145/4 148/148/4
f 153/153/6 158/158/6 154/154/6
f 153/153/6 157/157/6 158/158/6
f 162/162/5 165/165/5 161/161/5
f 162/162/5 166/166/5 165/165/5
f 157/157/2 166/166/2 158/158/2
f 157/157/2 165/165/2 166/166/2
f 154/154/4 161/161/4 153/153/4
f 154/154/4 162/162/4 161/161/4
f 154/154/3 159/159/3 155/155/3
f 154/154/3 158/158/3 159/159/3
f 163/163/1 166/166/1 162/162/1
f 163/163/1 167/167/1 166/166/1
f 158/158/2 167/167/2 159/159/2
f 158/158/2 166/166/2 167/167/2
f 155/155/4 162/162/4 154/154/4
f 155/155/4 163/163/4 162/162/4
f 155/155/5 160/160/5 156/156/5
f 155/155/5 159/159/5 160/160/5
f 164/164/6 167/167/6 163/163/6
f 164/164/6 168/168/6 167/167/6
f 159/159/2 168/168/2 160/160/2
f 159/159/2 167/167/2 168/168/2
f 156/156/4 163/163/4 155/155/4
f 156/156/4 164/164/4 163/163/4
f 156/156/1 157/157/1 153/153/1
f 156/156/1 160/160/1 157/157/1
f 161/161/3 168/168/3 164/164/3
f 161/161/3 165/165/3 168/168/3
f 160/160/2 165/165/2 157/157/2
f 160/160/2 168/168/2 165/165/2
f 153/153/4 164/164/4 156/156/4
f 153/153/4 161/161/4 164/164/4
f 169/169/6 174/174/6 170/170/6
f 169/169/6 173/173/6 174/174/6
f 178/178/5 181/181/5 177/177/5
f 178/178/5 182/182/5 181/181/5
f 173/173/2 182/182/2 174/174/2
f 173/173/2 181/181/2 182/182/2
f 170/170/4 177/177/4 169/169/4
f 170/170/4 178/178/4 177/177/4
f 170/170/3 175/175/3 171/171/3
f 170/170/3 174/174/3 175/175/3
f 179/179/1 182/182/1 178/178/1
f 179/179/1 183/183/1 182/182/1
f 174/174/2 183/183/2 175/175/2
f 174/174/2 182/182/2 183/183/2
f 171/171/4 178/178/4 170/170/4
f 171/171/4 179/179/4 178/178/4
f 171/171/5 176/176/5 172/172/5
f 171/171/5 175/175/5 176/176/5
f 180/180/6 183/183/6 179/179/6
f 180/180/6 184/184/6 183/183/6
f 175/175/2 184/184/2 176/176/2
f 175/175/2 183/183/2 184/184/2
f 172/172/4 179/179/4 171/171/4
f 172/172/4 180/180/4 179/179/4
f 172/172/1 173/173/1 169/169/1
f 172/172/1 176/176/1 173/173/1
f 177/177/3 184/184/3 180/180/3
f 177/177/3 181/181/3 184/184/3
f 176/176/2 181/181/2 173/173/2
f 176/176/2 184/184/2 181/181/2
f 169/169/4 180/180/4 172/172/4
f 169/169/4 177/177/4 180/180/4
f 185/185/6 190/190/6 186/186/6
f 185/185/6 189/189/6 190/190/6
f 194/194/5 197/197/5 193/193/5
f 194/194/5 198/198/5 197/197/5
f 189/189/2 198/198/2 190/190/2
f 189/189/2 197/197/2 198/198/2
f 186/186/4 193/193/4 185/185/4
f 186/186/4 194/194/4 193/193/4
f 186/186/3 191/191/3 187/187/3
f 186/186/3 190/190/3 191/191/3
f 195/195/1 198/198/1 194/194/1
f 195/195/1 199/199/1 198/198/1
f 190/190/2 199/199/2 191/191/2
f 190/190/2 198/198/2 199/199/2
f 187/187/4 194/194/4 186/186/4
f 187/187/4 195/195/4 194/194/4
f 187/187/5 192/192/5 188/188/5
f 187/187/5 191/191/5 192/192/5
f 196/196/6 199/199/6 195/195/6
f 196/196/6 200/200/6 199/199/6
f 191/191/2 200/200/2 192/192/2
f 191/191/2 199/199/2 200/200/2
f 188/188/4 195/195/4 187/187/4
f 188/188/4 196/196/4 195/195/4
f 188/188/1 189/189/1 185/185/1
f 188/188/1 192/192/1 189/189/1
f 193/193/3 200/200/3 196/196/3
f 193/193/3 197/197/3 200/200/3
f 192/192/2 197/197/2 189/189/2
f 192/192/2 200/200/2 197/197/2
f 185/185/4 196/196/4 188/188/4
f 185/185/4 193/193/4 196/196/4
f 201/201/6 206/206/6 202/202/6
f 201/201/6 205/205/6 206/206/6
f 210/210/5 213/213/5 209/209/5
f 210/210/5 214/214/5 213/213/5
f 205/205/3 214/214/3 206/206/3
f 205/205/3 213/213/3 214/214/3
f 202/202/1 209/209/1 201/201/1
f 202/202/1 210/210/1 209/209/1
f 202/202/4 207/207/4 203/203/4
f 202/202/4 206/206/4 207/207/4
f 211/211/2 214/214/2 210/210/2
f 211/211/2 215/215/2 214/214/2
f 206/206/3 215/215/3 207/207/3
f 206/206/3 214/214/3 215/215/3
f 203/203/1 210/210/1 202/202/1
f 203/203/1 211/211/1 210/210/1
f 203/203/5 208/208/5 204/204/5
f 203/203/5 207/207/5 208/208/5
f 212/212/6 215/215/6 211/211/6
f 212/212/6 216/216/6 215/215/6
f 207/207/3 216/216/3 208/208/3
f 207/207/3 215/215/3 216/216/3
f 204/204/1 211/211/1 203/203/1
f 204/204/1 212/212/1 211/211/1
f 204/204/2 205/205/2 201/201/2
f 204/204/2 208/208/2 205/205/2
f 209/209/4 216/216/4 212/212/4
f 209/209/4 213/213/4 216/216/4
f 208/208/3 213/213/3 205/205/3
f 208/208/3 216/216/3 213/213/3
f 201/201/1 212/212/1 204/204/1
f 201/201/1 209/209/1 212/212/1
f 217/217/6 222/222/6 218/218/6
f 217/217/6 221/221/6 222/222/6
f 226/226/5 229/229/5 225/225/5
f 226/226/5 230/230/5 229/229/5
f 221/221/3 230/230/3 222/222/3
f 221/221/3 229/229/3 230/230/3
f 218/218/1 225/225/1 217/217/1
f 218/218/1 226/226/1 225/225/1
f 218/218/4 223/223/4 219/219/4
f 218/218/4 222/222/4 223/223/4
f 227/227/2 230/230/2 226/226/2
f 227/227/2 231/231/2 230/230/2
f 222/222/3 231/231/3 223/223/3
f 222/222/3 230/230/3 231/231/3
f 219/219/1 226/226/1 218/218/1
f 219/219/1 227/227/1 226/226/1
f 219/219/5 224/224/5 220/220/5
f 219/219/5 223/223/5 224/224/5
f 228/228/6 231/231/6 227/227/6
f 228/228/6 232/232/6 231/231/6
f 223/223/3 232/232/3 224/224/3
f 223/223/3 231/231/3 232/232/3
f 220/220/1 227/227/1 219/219/1
f 220/220/1 228/228/1 227/227/1
f 220/220/2 221/221/2 217/217/2
f 220/220/2 224/224/2 221/221/2
f 225/225/4 232/232/4 228/228/4
f 225/225/4 229/229/4 232/232/4
f 224/224/3 229/229/3 221/221/3
f 224/224/3 232/232/3 229/229/3
f 217/217/1 228/228/1 220/220/1
f 217/217/1 225/225/1 228/228/1
f 233/233/6 238/238/6 234/234/6
f 233/233/6 237/237/6 238/238/6
f 242/242/5 245/245/5 241/241/5
f 242/242/5 246/246/5 245/245/5
f 237/237/3 246/246/3 238/238/3
f 237/237/3 245/245/3 246/246/3
f 234/234/1 241/241/1 233/233/1
f 234/234/1 242/242/1 241/241/1
f 234/234/4 239/239/4 235/235/4
f 234/234/4 238/238/4 239/239/4
f 243/243/2 246/246/2 242/242/2
f 243/243/2 247/247/2 246/246/2
f 238/238/3 247/247/3 239/239/3
f 238/238/3 246/246/3 247/247/3
f 235/235/1 242/242/1 234/234/1
f 235/235/1 243/243/1 242/242/1
f 235/235/5 240/240/5 236/236/5
f 235/235/5 239/239/5 240/240/5
f 244/244/6 247/247/6 243/243/6
f 244/244/6 248/248/6 247/247/6
f 239/239/3 248/248/3 240/240/3
f 239/239/3 247/247/3 248/248/3
f 236/236/1 243/243/1 235/235/1
f 236/236/1 244/244/1 243/243/1
f 236/236/2 237/237/2 233/233/2
f 236/236/2 240/240/2 237/237/2
f 241/241/4 248/248/4 244/244/4
f 241/241/4 245/245/4 248/248/4
f 240/240/3 245/245/3 237/237/3
f 240/240/3 248/248/3 245/245/3
f 233/233/1 244/244/1 236/236/1
f 233/233/1 241/241/1 244/244/1
f 249/249/6 254/254/6 250/250/6
f 249/249/6 253/253/6 254/254/6
f 258/258/5 261/261/5 257/257/5
f 258/258/5 262/262/5 261/261/5
f 253/253/3 262/262/3 254/254/3
f 253/253/3 261/261/3 262/262/3
f 250/250/1 257/257/1 249/249/1
f 250/250/1 258/258/1 257/257/1
f 250/250/4 255/255/4 251/251/4
f 250/250/4 254/254/4 255/255/4
f 259/259/2 262/262/2 258/258/2
f 259/259/2 263/263/2 262/262/2
f 254/254/3 263/263/3 255/255/3
f 254/254/3 262/262/3 263/263/3
f 251/251/1 258/258/1 250/250/1
f 251/251/1 259/259/1 258/258/1
f 251/251/5 256/256/5 252/252/5
f 251/251/5 255/255/5 256/256/5
f 260/260/6 263/263/6 259/259/6
f 260/260/6 264/264/6 263/263/6
f 255/255/3 264/264/3 256/256/3
f 255/255/3 263/263/3 264/264/3
f 252/252/1 259/259/1 251/251/1
f 252/252/1 260/260/1 259/259/1
f 252/252/2 253/253/2 249/249/2
f 252/252/2 256/256/2 253/253/2
f 257/257/4 264/264/4 260/260/4
f 257/257/4 261/261/4 264/264/4
f 256/256/3 261/261/3 253/253/3
f 256/256/3 264/264/3 261/261/3
f 249/249/1 260/260/1 252/252/1
f 249/249/1 257/257/1 260/260/1
f 265/265/6 270/270/6 266/266/6
f 265/265/6 269/269/6 270/270/6
f 274/274/5 277/277/5 273/273/5
f 274/274/5 278/278/5 277/277/5
f 269/269/3 278/278/3 270/270/3
f 269/269/3 277/277/3 278/278/3
f 266/266/1 273/273/1 265/265/1
f 266/266/1 274/274/1 273/273/1
f 266/266/4 271/271/4 267/267/4
f 266/266/4 270/270/4 271/271/4
f 275/275/2 278/278/2 274/274/2
f 275/275/2 279/279/2 278/278/2
f 270/270/3 279/279/3 271/271/3
f 270/270/3 278/278/3 279/279/3
f 267/267/1 274/274/1 266/266/1
f 267/267/1 275/275/1 274/274/1
f 267/267/5 272/272/5 268/268/5
f 267/267/5 271/271/5 272/272/5
f 276/276/6 279/279/6 275/275/6
f 276/276/6 280/280/6 279/279/6
f 271/271/3 280/280/3 272/272/3
f 271/271/3 279/279/3 280/280/3
f 268/268/1 275/275/1 267/267/1
f 268/268/1 276/276/1 275/275/1
f 268/268/2 269/269/2 265/265/2
f 268/268/2 272/272/2 269/269/2
f 273/273/4 280/280/4 276/276/4
f 273/273/4 277/277/4 280/280/4
f 272/272/3 277/277/3 269/269/3
f 272/272/3 280/280/3 277/277/3
f 265/265/1 276/276/1 268/268/1
f 265/265/1 273/273/1 276/276/1
f 281/281/6 286/286/6 282/282/6
f 281/281/6 285/285/6 286/286/6
f 290/290/5 293/293/5 289/289/5
f 290/290/5 294/294/5 293/293/5
f 285/285/3 294/294/3 286/286/3
f 285/285/3 293/293/3 294/294/3
f 282/282/1 289/289/1 281/281/1
f 282/282/1 290/290/1 289/289/1
f 282/282/4 287/287/4 283/283/4
f 282/282/4 286/286/4 287/287/4
f 291/291/2 294/294/2 290/290/2
f 291/291/2 295/295/2 294/294/2
f 286/286/3 295/295/3 287/287/3
f 286/286/3 294/294/3 295/295/3
f 283/283/1 290/290/1 282/282/1
f 283/283/1 291/291/1 290/290/1
f 283/283/5 288/288/5 284/284/5
f 283/283/5 287/287/5 288/288/5
f 292/292/6 295/295/6 291/291/6
f 292/292/6 296/296/6 295/295/6
f 287/287/3 296/296/3 288/288/3
f 287/287/3 295/295/3 296/296/3
f 284/284/1 291/291/1 283/283/1
f 284/284/1 292/292/1 291/291/1
f 284/284/2 285/285/2 281/281/2
f 284/284/2 288/288/2 285/285/2
f 289/289/4 296/296/4 292/292/4
f 289/289/4 293/293/4 296/296/4
f 288/288/3 293/293/3 285/285/3
f 288/288/3 296/296/3 293/293/3
f 281/281/1 292/292/1 284/284/1
f 281/281/1 289/289/1 292/292/1
f 297/297/6 302/302/6 298/298/6
f 297/297/6 301/301/6 302/302/6
f 306/306/5 309/309/5 305/305/5
f 306/306/5 310/310/5 309/309/5
f 301/301/3 310/310/3 302/302/3
f 301/301/3 309/309/3 310/310/3
f 298/298/1 305/305/1 297/297/1
f 298/298/1 306/306/1 305/305/1
f 298/298/4 303/303/4 299/299/4
f 298/298/4 302/302/4 303/303/4
f 307/307/2 310/310/2 306/306/2
f 307/307/2 311/311/2 310/310/2
f 302/302/3 311/311/3 303/303/3
f 302/302/3 310/310/3 311/311/3
f 299/299/1 306/306/1 298/298/1
f 299/299/1 307/307/1 306/306/1
f 299/299/5 304/304/5 300/300/5
f 299/299/5 303/303/5 304/304/5
f 308/308/6 311/311/6 307/307/6
f 308/308/6 312/312/6 311/311/6
f 303/303/3 312/312/3 304/304/3
f 303/303/3 311/311/3 312/312/3
f 300/300/1 307/307/1 299/299/1
f 300/300/1 308/308/1 307/307/1
f 300/300/2 301/301/2 297/297/2
f 300/300/2 304/304/2 301/301/2
f 305/305/4 312/312/4 308/308/4
f 305/305/4 309/309/4 312/312/4
f 304/304/3 309/309/3 301/301/3
f 304/304/3 312/312/3 309/309/3
f 297/297/1 308/308/1 300/300/1
f 297/297/1 305/305/1 308/308/1
f 313/313/1 314/314/1 318/318/1
f 313/313/1 318/318/1 317/317/1
f 314/314/4 315/315/4 319/319/4
f 314/314/4 319/319/4 318/318/4
f 315/315/3 316/316/3 320/320/3
f 315/315/3 320/320/3 319/319/3
f 316/316/2 313/313/2 317/317/2
f 316/316/2 317/317/2 320/320/2
f 317/317/5 318/318/5 319/319/5
f 317/317/5 319/319/5 320/320/5
f 316/316/6 315/315/6 314/314/6
f 316/316/6 314/314/6 313/313/6
f 321/321/6 326/326/6 322/322/6
f 321/321/6 325/325/6 326/326/6
f 330/330/5 333/333/5 329/329/5
f 330/330/5 334/334/5 333/333/5
f 325/325/4 334/334/4 326/326/4
f 325/325/4 333/333/4 334/334/4
f 322/322/2 329/329/2 321/321/2
f 322/322/2 330/330/2 329/329/2
f 322/322/1 327/327/1 323/323/1
f 322/322/1 326/326/1 327/327/1
f 331/331/3 334/334/3 330/330/3
f 331/331/3 335/335/3 334/334/3
f 326/326/4 335/335/4 327/327/4
f 326/326/4 334/334/4 335/335/4
f 323/323/2 330/330/2 322/322/2
f 323/323/2 331/331/2 330/330/2
f 323/323/5 328/328/5 324/324/5
f 323/323/5 327/327/5 328/328/5
f 332/332/6 335/335/6 331/331/6
f 332/332/6 336/336/6 335/335/6
f 327/327/4 336/336/4 328/328/4
f 327/327/4 335/335/4 336/336/4
f 324/324/2 331/331/2 323/323/2
f 324/324/2 332/332/2 331/331/2
f 324/324/3 325/325/3 321/321/3
f 324/324/3 328/328/3 325/325/3
f 329/329/1 336/336/1 332/332/1
f 329/329/1 333/333/1 336/336/1
f 328/328/4 333/333/4 325/325/4
f 328/328/4 336/336/4 333/333/4
f 321/321/2 332/332/2 324/324/2
f 321/321/2 329/329/2 332/332/2
f 337/337/6 342/342/6 338/338/6
f 337/337/6 341/341/6 342/342/6
f 346/346/5 349/349/5 345/345/5
f 346/346/5 350/350/5 349/349/5
f 341/341/4 350/350/4 342/342/4
f 341/341/4 349/349/4 350/350/4
f 338/338/2 345/345/2 337/337/2
f 338/338/2 346/346/2 345/345/2
f 338/338/1 343/343/1 339/339/1
f 338/338/1 342/342/1 343/343/1
f 347/347/3 350/350/3 346/346/3
f 347/347/3 351/351/3 350/350/3
f 342/342/4 351/351/4 343/343/4
f 342/342/4 350/350/4 351/351/4
f 339/339/2 346/346/2 338/338/2
f 339/339/2 347/347/2 346/346/2
f 339/339/5 344/344/5 340/340/5
f 339/339/5 343/343/5 344/344/5
f 348/348/6 351/351/6 347/347/6
f 348/348/6 352/352/6 351/351/6
f 343/343/4 352/352/4 344/344/4
f 343/343/4 351/351/4 352/352/4
f 340/340/2 347/347/2 339/339/2
f 340/340/2 348/348/2 347/347/2
f 340/340/3 341/341/3 337/337/3
f 340/340/3 344/344/3 341/341/3
f 345/345/1 352/352/1 348/348/1
f 345/345/1 349/349/1 352/352/1
f 344/344/4 349/349/4 341/341/4
f 344/344/4 352/352/4 349/349/4
f 337/337/2 348/348/2 340/340/2
f 337/337/2 345/345/2 348/348/2
f 353/353/6 358/358/6 354/354/6
f 353/353/6 357/357/6 358/358/6
f 362/362/5 365/365/5 361/361/5
f 362/362/5 366/366/5 365/365/5
f 357/357/4 366/366/4 358/358/4
f 357/357/4 365/365/4 366/366/4
f 354/354/2 361/361/2 353/353/2
f 354/354/2 362/362/2 361/361/2
f 354/354/1 359/359/1 355/355/1
f 354/354/1 358/358/1 359/359/1
f 363/363/3 366/366/3 362/362/3
f 363/363/3 367/367/3 366/366/3
f 358/358/4 367/367/4 359/359/4
f 358/358/4 366/366/4 367/367/4
f 355/355/2 362/362/2 354/354/2
f 355/355/2 363/363/2 362/362/2
f 355/355/5 360/360/5 356/356/5
f 355/355/5 359/359/5 360/360/5
f 364/364/6 367/367/6 363/363/6
f 364/364/6 368/368/6 367/367/6
f 359/359/4 368/368/4 360/360/4
f 359/359/4 367/367/4 368/368/4
f 356/356/2 363/363/2 355/355/2
f 356/356/2 364/364/2 363/363/2
f 356/356/3 357/357/3 353/353/3
f 356/356/3 360/360/3 357/357/3
f 361/361/1 368/368/1 364/364/1
f 361/361/1 365/365/1 368/368/1
f 360/360/4 365/365/4 357/357/4
f 360/360/4 368/368/4 365/365/4
f 353/353/2 364/364/2 356/356/2
f 353/353/2 361/361/2 364/364/2
f 369/369/6 374/374/6 370/370/6
f 369/369/6 373/373/6 374/374/6
f 378/378/5 381/381/5 377/377/5
f 378/378/5 382/382/5 381/381/5
f 373/373/4 382/382/4 374/374/4
f 373/373/4 381/381/4 382/382/4
f 370/370/2 377/377/2 369/369/2
f 370/370/2 378/378/2 377/377/2
f 370/370/1 375/375/1 371/371/1
f 370/370/1 374/374/1 375/375/1
f 379/379/3 382/382/3 378/378/3
f 379/379/3 383/383/3 382/382/3
f 374/374/4 383/383/4 375/375/4
f 374/374/4 382/382/4 383/383/4
f 371/371/2 378/378/2 370/370/2
f 371/371/2 379/379/2 378/378/2
f 371/371/5 376/376/5 372/372/5
f 371/371/5 375/375/5 376/376/5
f 380/380/6 383/383/6 379/379/6
f 380/380/6 384/384/6 383/383/6
f 375/375/4 384/384/4 376/376/4
f 375/375/4 383/383/4 384/384/4
f 372/372/2 379/379/2 371/371/2
f 372/372/2 380/380/2 379/379/2
f 372/372/3 373/373/3 369/369/3
f 372/372/3 376/376/3 373/373/3
f 377/377/1 384/384/1 380/380/1
f 377/377/1 381/381/1 384/384/1
f 376/376/4 381/381/4 373/373/4
f 376/376/4 384/384/4 381/381/4
f 369/369/2 380/380/2 372/372/2
f 369/369/2 377/377/2 380/380/2
f 385/385/6 390/390/6 386/386/6
f 385/385/6 389/389/6 390/390/6
f 394/394/5 397/397/5 393/393/5
f 394/394/5 398/398/5 397/397/5
f 389/389/4 398/398/4 390/390/4
f 389/389/4 397/397/4 398/398/4
f 386/386/2 393/393/2 385/385/2
f 386/386/2 394/394/2 393/393/2
f 386/386/1 391/391/1 387/387/1
f 386/386/1 390/390/1 391/391/1
f 395/395/3 398/398/3 394/394/3
f 395/395/3 399/399/3 398/398/3
f 390/390/4 399/399/4 391/391/4
f 390/390/4 398/398/4 399/399/4
f 387/387/2 394/394/2 386/386/2
f 387/387/2 395/395/2 394/394/2
f 387/387/5 392/392/5 388/388/5
f 387/387/5 391/391/5 392/392/5
f 396/396/6 399/399/6 395/395/6
f 396/396/6 400/400/6 399/399/6
f 391/391/4 400/400/4 392/392/4
f 391/391/4 399/399/4 400/400/4
f 388/388/2 395/395/2 387/387/2
f 388/388/2 396/396/2 395/395/2
f 388/388/3 389/389/3 385/385/3
f 388/388/3 392/392/3 389/389/3
f 393/393/1 400/400/1 396/396/1
f 393/393/1 397/397/1 400/400/1
f 392/392/4 397/397/4 389/389/4
f 392/392/4 400/400/4 397/397/4
f 385/385/2 396/396/2 388/388/2
f 385/385/2 393/393/2 396/396/2
f 401/401/1 406/406/1 402/402/1
f 401/401/1 405/405/1 406/406/1
f 410/410/3 413/413/3 409/409/3
f 410/410/3 414/414/3 413/413/3
f 405/405/5 414/414/5 406/406/5
f 405/405/5 413/413/5 414/414/5
f 402/402/6 409/409/6 401/401/6
f 402/402/6 410/410/6 409/409/6
f 402/402/2 407/407/2 403/403/2
f 402/402/2 406/406/2 407/407/2
f 411/411/4 414/414/4 410/410/4
f 411/411/4 415/415/4 414/414/4
f 406/406/5 415/415/5 407/407/5
f 406/406/5 414/414/5 415/415/5
f 403/403/6 410/410/6 402/402/6
f 403/403/6 411/411/6 410/410/6
f 403/403/3 408/408/3 404/404/3
f 403/403/3 407/407/3 408/408/3
f 412/412/1 415/415/1 411/411/1
f 412/412/1 416/416/1 415/415/1
f 407/407/5 416/416/5 408/408/5
f 407/407/5 415/415/5 416/416/5
f 404/404/6 411/411/6 403/403/6
f 404/404/6 412/412/6 411/411/6
f 404/404/4 405/405/4 401/401/4
f 404/404/4 408/408/4 405/405/4
f 409/409/2 416/416/2 412/412/2
f 409/409/2 413/413/2 416/416/2
f 408/408/5 413/413/5 405/405/5
f 408/408/5 416/416/5 413/413/5
f 401/401/6 412/412/6 404/404/6
f 401/401/6 409/409/6 412/412/6
f 417/417/1 422/422/1 418/418/1
f 417/417/1 421/421/1 422/422/1
f 426/426/3 429/429/3 425/425/3
f 426/426/3 430/430/3 429/429/3
f 421/421/5 430/430/5 422/422/5
f 421/421/5 429/429/5 430/430/5
f 418/418/6 425/425/6 417/417/6
f 418/418/6 426/426/6 425/425/6
f 418/418/2 423/423/2 419/419/2
f 418/418/2 422/422/2 423/423/2
f 427/427/4 430/430/4 426/426/4
f 427/427/4 431/431/4 430/430/4
f 422/422/5 431/431/5 423/423/5
f 422/422/5 430/430/5 431/431/5
f 419/419/6 426/426/6 418/418/6
f 419/419/6 427/427/6 426/426/6
f 419/419/3 424/424/3 420/420/3
f 419/419/3 423/423/3 424/424/3
f 428/428/1 431/431/1 427/427/1
f 428/428/1 432/432/1 431/431/1
f 423/423/5 432/432/5 424/424/5
f 423/423/5 431/431/5 432/432/5
f 420/420/6 427/427/6 419/419/6
f 420/420/6 428/428/6 427/427/6
f 420/420/4 421/421/4 417/417/4
f 420/420/4 424/424/4 421/421/4
f 425/425/2 432/432/2 428/428/2
f 425/425/2 429/429/2 432/432/2
f 424/424/5 429/429/5 421/421/5
f 424/424/5 432/432/5 429/429/5
f 417/417/6 428/428/6 420/420/6
f 417/417/6 425/425/6 428/428/6
f 433/433/1 438/438/1 434/434/1
f 433/433/1 437/437/1 438/438/1
f 442/442/3 445/445/3 441/441/3
f 442/442/3 446/446/3 445/445/3
f 437/437/5 446/446/5 438/438/5
f 437/437/5 445/445/5 446/446/5
f 434/434/6 441/441/6 433/433/6
f 434/434/6 442/442/6 441/441/6
f 434/434/2 439/439/2 435/435/2
f 434/434/2 438/438/2 439/439/2
f 443/443/4 446/446/4 442/442/4
f 443/443/4 447/447/4 446/446/4
f 438/438/5 447/447/5 439/439/5
f 438/438/5 446/446/5 447/447/5
f 435/435/6 442/442/6 434/434/6
f 435/435/6 443/443/6 442/442/6
f 435/435/3 440/440/3 436/436/3
f 435/435/3 439/439/3 440/440/3
f 444/444/1 447/447/1 443/443/1
f 444/444/1 448/448/1 447/447/1
f 439/439/5 448/448/5 440/440/5
f 439/439/5 447/447/5 448/448/5
f 436/436/6 443/443/6 435/435/6
f 436/436/6 444/444/6 443/443/6
f 436/436/4 437/437/4 433/433/4
f 436/436/4 440/440/4 437/437/4
f 441/441/2 448/448/2 444/444/2
f 441/441/2 445/445/2 448/448/2
f 440/440/5 445/445/5 437/437/5
f 440/440/5 448/448/5 445/445/5
f 433/433/6 444/444/6 436/436/6
f 433/433/6 441/441/6 444/444/6
f 449/449/4 450/450/4 454/454/4
f 449/449/4 454/454/4 453/453/4
f 450/450/3 451/451/3 455/455/3
f 450/450/3 455/455/3 454/454/3
f 451/451/2 452/452/2 456/456/2
f 451/451/2 456/456/2 455/455/2
f 452/452/1 449/449/1 453/453/1
f 452/452/1 453/453/1 456/456/1
f 453/453/5 454/454/5 455/455/5
f 453/453/5 455/455/5 456/456/5
f 452/452/6 451/451/6 450/450/6
f 452/452/6 450/450/6 449/449/6
f 457/457/1 458/458/1 462/462/1
f 457/457/1 462/462/1 461/461/1
f 458/458/4 459/459/4 463/463/4
f 458/458/4 463/463/4 462/462/4
f 459/459/3 460/460/3 464/464/3
f 459/459/3 464/464/3 463/463/3
f 460/460/2 457/457/2 461/461/2
f 460/460/2 461/461/2 464/464/2
f 461/461/5 462/462/5 463/463/5
f 461/461/5 463/463/5 464/464/5
f 460/460/6 459/459/6 458/458/6
f 460/460/6 458/458/6 457/457/6
f 465/465/4 466/466/4 470/470/4
f 465/465/4 470/470/4 469/469/4
f 466/466/3 467/467/3 471/471/3
f 466/466/3 471/471/3 470/470/3
f 467/467/2 468/468/2 472/472/2
f 467/467/2 472/472/2 471/471/2
f 468/468/1 465/465/1 469/469/1
f 468/468/1 469/469/1 472/472/1
f 469/469/5 470/470/5 471/471/5
f 469/469/5 471/471/5 472/472/5
f 468/468/6 467/467/6 466/466/6
f 468/468/6 466/466/6 465/465/6
f 473/473/1 474/474/1 478/478/1
f 473/473/1 478/478/1 477/477/1
f 474/474/4 475/475/4 479/479/4
f 474/474/4 479/479/4 478/478/4
f 475/475/3 476/476/3 480/480/3
f 475/475/3 480/480/3 479/479/3
f 476/476/2 473/473/2 477/477/2
f 476/476/2 477/477/2 480/480/2
f 477/477/5 478/478/5 479/479/5
f 477/477/5 479/479/5 480/480/5
f 476/476/6 475/475/6 474/474/6
f 476/476/6 474/474/6 473/473/6
f 481/481/3 482/482/3 486/486/3
f 481/481/3 486/486/3 485/485/3
f 482/482/2 483/483/2 487/487/2
f 482/482/2 487/487/2 486/486/2
f 483/483/1 484/484/1 488/488/1
f 483/483/1 488/488/1 487/487/1
f 484/484/4 481/481/4 485/485/4
f 484/484/4 485/485/4 488/488/4
f 485/485/5 486/486/5 487/487/5
f 485/485/5 487/487/5 488/488/5
f 484/484/6 483/483/6 482/482/6
f 484/484/6 482/482/6 481/481/6
f 489/489/4 490/490/4 494/494/4
f 489/489/4 494/494/4 493/493/4
f 490/490/3 491/491/3 495/495/3
f 490/490/3 495/495/3 494/494/3
f 491/491/2 492/492/2 496/496/2
f 491/491/2 496/496/2 495/495/2
f 492/492/1 489/489/1 493/493/1
f 492/492/1 493/493/1 496/496/1
f 493/493/5 494/494/5 495/495/5
f 493/493/5 495/495/5 496/496/5
f 492/492/6 491/491/6 490/490/6
f 492/492/6 490/490/6 489/489/6
f 497/497/3 498/498/3 502/502/3
f 497/497/3 502/502/3 501/501/3
f 498/498/2 499/499/2 503/503/2
f 498/498/2 503/503/2 502/502/2
f 499/499/1 500/500/1 504/504/1
f 499/499/1 504/504/1 503/503/1
f 500/500/4 497/497/4 501/501/4
f 500/500/4 501/501/4 504/504/4
f 501/501/5 502/502/5 503/503/5
f 501/501/5 503/503/5 504/504/5
f 500/500/6 499/499/6 498/498/6
f 500/500/6 498/498/6 497/497/6
f 505/505/4 506/506/4 510/510/4
f 505/505/4 510/510/4 509/509/4
f 506/506/3 507/507/3 511/511/3
f 506/506/3 511/511/3 510/510/3
f 507/507/2 508/508/2 512/512/2
f 507/507/2 512/512/2 511/511/2
f 508/508/1 505/505/1 509/509/1
f 508/508/1 509/509/1 512/512/1
f 509/509/5 510/510/5 511/511/5
f 509/509/5 511/511/5 512/512/5
f 508/508/6 507/507/6 506/506/6
f 508/508/6 506/506/6 505/505/6
f 513/513/1 514/514/1 518/518/1
f 513/513/1 518/518/1 517/517/1
f 514/514/4 515/515/4 519/519/4
f 514/514/4 519/519/4 518/518/4
f 515/515/3 516/516/3 520/520/3
f 515/515/3 520/520/3 519/519/3
f 516/516/2 513/513/2 517/517/2
f 516/516/2 517/517/2 520/520/2
f 517/517/5 518/518/5 519/519/5
f 517/517/5 519/519/5 520/520/5
f 516/516/6 515/515/6 514/514/6
f 516/516/6 514/514/6 513/513/6
f 521/521/2 522/522/2 526/526/2
f 521/521/2 526/526/2 525/525/2
f 522/522/1 523/523/1 527/527/1
f 522/522/1 527/527/1 526/526/1
f 523/523/4 524/524/4 528/528/4
f 523/523/4 528/528/4 527/527/4
f 524/524/3 521/521/3 525/525/3
f 524/524/3 525/525/3 528/528/3
f 525/525/5 526/526/5 527/527/5
f 525/525/5 527/527/5 528/528/5
f 524/524/6 523/523/6 522/522/6
f 524/524/6 522/522/6 521/521/6
f 529/529/1 530/530/1 534/534/1
f 529/529/1 534/534/1 533/533/1
f 530/530/4 531/531/4 535/535/4
f 530/530/4 535/535/4 534/534/4
f 531/531/3 532/532/3 536/536/3
f 531/531/3 536/536/3 535/535/3
f 532/532/2 529/529/2 533/533/2
f 532/532/2 533/533/2 536/536/2
f 533/533/5 534/534/5 535/535/5
f 533/533/5 535/535/5 536/536/5
f 532/532/6 531/531/6 530/530/6
f 532/532/6 530/530/6 529/529/6
f 537/537/2 538/538/2 542/542/2
f 537/537/2 542/542/2 541/541/2
f 538/538/1 539/539/1 543/543/1
f 538/538/1 543/543/1 542/542/1
f 539/539/4 540/540/4 544/544/4
f 539/539/4 544/544/4 543/543/4
f 540/540/3 537/537/3 541/541/3
f 540/540/3 541/541/3 544/544/3
f 541/541/5 542/542/5 543/543/5
f 541/541/5 543/543/5 544/544/5
f 540/540/6 539/539/6 538/538/6
f 540/540/6 538/538/6 537/537/6
f 545/545/2 546/546/2 550/550/2
f 545/545/2 550/550/2 549/549/2
f 546/546/1 547/547/1 551/551/1
f 546/546/1 551/551/1 550/550/1
f 547/547/4 548/548/4 552/552/4
f 547/547/4 552/552/4 551/551/4
f 548/548/3 545/545/3 549/549/3
f 548/548/3 549/549/3 552/552/3
f 549/549/5 550/550/5 551/551/5
f 549/549/5 551/551/5 552/552/5
f 548/548/6 547/547/6 546/546/6
f 548/548/6 546/546/6 545/545/6
f 553/553/3 554/554/3 558/558/3
f 553/553/3 558/558/3 557/557/3
f 554/554/2 555/555/2 559/559/2
f 554/554/2 559/559/2 558/558/2
f 555/555/1 556/556/1 560/560/1
f 555/555/1 560/560/1 559/559/1
f 556/556/4 553/553/4 557/557/4
f 556/556/4 557/557/4 560/560/4
f 557/557/5 558/558/5 559/559/5
f 557/557/5 559/559/5 560/560/5
f 556/556/6 555/555/6 554/554/6
f 556/556/6 554/554/6 553/553/6
f 561/561/2 562/562/2 566/566/2
f 561/561/2 566/566/2 565/565/2
f 562/562/1 563/563/1 567/567/1
f 562/562/1 567/567/1 566/566/1
f 563/563/4 564/564/4 568/568/4
f 563/563/4 568/568/4 567/567/4
f 564/564/3 561/561/3 565/565/3
f 564/564/3 565/565/3 568/568/3
f 565/565/5 566/566/5 567/567/5
f 565/565/5 567/567/5 568/568/5
f 564/564/6 563/563/6 562/562/6
f 564/564/6 562/562/6 561/561/6
f 569/569/3 570/570/3 574/574/3
f 569/569/3 574/574/3 573/573/3
f 570/570/2 571/571/2 575/575/2
f 570/570/2 575/575/2 574/574/2
f 571/571/1 572/572/1 576/576/1
f 571/571/1 576/576/1 575/575/1
f 572/572/4 569/569/4 573/573/4
f 572/572/4 573/573/4 576/576/4
f 573/573/5 574/574/5 575/575/5
f 573/573/5 575/575/5 576/576/5
f 572/572/6 571/571/6 570/570/6
f 572/572/6 570/570/6 569/569/6
