# GateSecurityV1 SM_GateSecurityV1_SignPostFace; Unreal legacy OBJ adapter (Y reflected, winding reversed)
o SM_GateSecurityV1_SignPostFace
g Face
v -3.600000 42.000000 118.000000
v -3.600000 -42.000000 244.000000
v -3.600000 42.000000 244.000000
vt 1.000000 1.000000
vt 0.000000 0.000000
vt 1.000000 0.000000
vn -1.000000 0.000000 0.000000
vn -1.000000 0.000000 0.000000
vn -1.000000 0.000000 0.000000
f 1/1/1 2/2/2 3/3/3
v -3.600000 42.000000 118.000000
v -3.600000 -42.000000 118.000000
v -3.600000 -42.000000 244.000000
vt 1.000000 1.000000
vt 0.000000 1.000000
vt 0.000000 0.000000
vn -1.000000 0.000000 0.000000
vn -1.000000 0.000000 0.000000
vn -1.000000 0.000000 0.000000
f 4/4/4 5/5/5 6/6/6
v -2.600000 42.000000 118.000000
v -2.600000 -42.000000 244.000000
v -2.600000 -42.000000 118.000000
vt 1.000000 1.000000
vt 0.000000 0.000000
vt 0.000000 1.000000
vn 1.000000 0.000000 0.000000
vn 1.000000 0.000000 0.000000
vn 1.000000 0.000000 0.000000
f 7/7/7 8/8/8 9/9/9
v -2.600000 42.000000 118.000000
v -2.600000 42.000000 244.000000
v -2.600000 -42.000000 244.000000
vt 1.000000 1.000000
vt 1.000000 0.000000
vt 0.000000 0.000000
vn 1.000000 0.000000 -0.000000
vn 1.000000 0.000000 -0.000000
vn 1.000000 0.000000 -0.000000
f 10/10/10 11/11/11 12/12/12
v -3.600000 42.000000 118.000000
v -2.600000 42.000000 244.000000
v -2.600000 42.000000 118.000000
vt 1.000000 1.000000
vt 1.000000 0.000000
vt 1.000000 1.000000
vn 0.000000 1.000000 0.000000
vn 0.000000 1.000000 0.000000
vn 0.000000 1.000000 0.000000
f 13/13/13 14/14/14 15/15/15
v -3.600000 42.000000 118.000000
v -3.600000 42.000000 244.000000
v -2.600000 42.000000 244.000000
vt 1.000000 1.000000
vt 1.000000 0.000000
vt 1.000000 0.000000
vn 0.000000 1.000000 0.000000
vn 0.000000 1.000000 0.000000
vn 0.000000 1.000000 0.000000
f 16/16/16 17/17/17 18/18/18
v -3.600000 -42.000000 118.000000
v -2.600000 -42.000000 244.000000
v -3.600000 -42.000000 244.000000
vt 0.000000 1.000000
vt 0.000000 0.000000
vt 0.000000 0.000000
vn 0.000000 -1.000000 0.000000
vn 0.000000 -1.000000 0.000000
vn 0.000000 -1.000000 0.000000
f 19/19/19 20/20/20 21/21/21
v -3.600000 -42.000000 118.000000
v -2.600000 -42.000000 118.000000
v -2.600000 -42.000000 244.000000
vt 0.000000 1.000000
vt 0.000000 1.000000
vt 0.000000 0.000000
vn 0.000000 -1.000000 0.000000
vn 0.000000 -1.000000 0.000000
vn 0.000000 -1.000000 0.000000
f 22/22/22 23/23/23 24/24/24
v -3.600000 42.000000 118.000000
v -2.600000 -42.000000 118.000000
v -3.600000 -42.000000 118.000000
vt 1.000000 1.000000
vt 0.000000 1.000000
vt 0.000000 1.000000
vn 0.000000 0.000000 -1.000000
vn 0.000000 0.000000 -1.000000
vn 0.000000 0.000000 -1.000000
f 25/25/25 26/26/26 27/27/27
v -3.600000 42.000000 118.000000
v -2.600000 42.000000 118.000000
v -2.600000 -42.000000 118.000000
vt 1.000000 1.000000
vt 1.000000 1.000000
vt 0.000000 1.000000
vn 0.000000 0.000000 -1.000000
vn 0.000000 0.000000 -1.000000
vn 0.000000 0.000000 -1.000000
f 28/28/28 29/29/29 30/30/30
v -3.600000 42.000000 244.000000
v -2.600000 -42.000000 244.000000
v -2.600000 42.000000 244.000000
vt 1.000000 0.000000
vt 0.000000 0.000000
vt 1.000000 0.000000
vn -0.000000 0.000000 1.000000
vn -0.000000 0.000000 1.000000
vn -0.000000 0.000000 1.000000
f 31/31/31 32/32/32 33/33/33
v -3.600000 42.000000 244.000000
v -3.600000 -42.000000 244.000000
v -2.600000 -42.000000 244.000000
vt 1.000000 0.000000
vt 0.000000 0.000000
vt 0.000000 0.000000
vn 0.000000 0.000000 1.000000
vn 0.000000 0.000000 1.000000
vn 0.000000 0.000000 1.000000
f 34/34/34 35/35/35 36/36/36
