# SM_Haram_Wall_2_4
o SM_Haram_Wall_2_4
v 14859.7759 -21492.4532 288.0000
v 15000.0000 -21289.5403 288.0000
v 15000.0000 -21472.0816 288.0000
v 15000.0000 -21472.0816 0.0000
v 15000.0000 -21289.5403 0.0000
v 14859.7759 -21492.4532 0.0000
v 14703.6168 -21224.2377 288.0000
v 14575.8023 -20000.0000 288.0000
v 14865.3676 -20000.0000 288.0000
v 14865.3676 -20000.0000 0.0000
v 14575.8023 -20000.0000 0.0000
v 14703.6168 -21224.2377 0.0000
v 14703.6168 -21224.2377 288.0000
v 10000.0000 -22203.6212 288.0000
v 10000.0000 -21912.5538 288.0000
v 10000.0000 -21912.5538 0.0000
v 10000.0000 -22203.6212 0.0000
v 14703.6168 -21224.2377 0.0000
v 14703.6168 -21224.2377 288.0000
v 15000.0000 -21289.5403 288.0000
v 14859.7759 -21492.4532 288.0000
v 14859.7759 -21492.4532 0.0000
v 15000.0000 -21289.5403 0.0000
v 14703.6168 -21224.2377 0.0000
v 14865.3676 -20000.0000 288.0000
v 15000.0000 -21289.5403 288.0000
v 14703.6168 -21224.2377 288.0000
v 14703.6168 -21224.2377 0.0000
v 15000.0000 -21289.5403 0.0000
v 14865.3676 -20000.0000 0.0000
v 14859.7759 -21492.4532 288.0000
v 10000.0000 -22203.6212 288.0000
v 14703.6168 -21224.2377 288.0000
v 14703.6168 -21224.2377 0.0000
v 10000.0000 -22203.6212 0.0000
v 14859.7759 -21492.4532 0.0000
v 14859.7759 -21492.4532 0.0000
v 10000.0000 -22203.6212 0.0000
v 10000.0000 -22203.6212 288.0000
v 14859.7759 -21492.4532 0.0000
v 10000.0000 -22203.6212 288.0000
v 14859.7759 -21492.4532 288.0000
v 10000.0000 -22203.6212 0.0000
v 10000.0000 -21912.5538 0.0000
v 10000.0000 -21912.5538 288.0000
v 10000.0000 -22203.6212 0.0000
v 10000.0000 -21912.5538 288.0000
v 10000.0000 -22203.6212 288.0000
v 10000.0000 -21912.5538 0.0000
v 14703.6168 -21224.2377 0.0000
v 14703.6168 -21224.2377 288.0000
v 10000.0000 -21912.5538 0.0000
v 14703.6168 -21224.2377 288.0000
v 10000.0000 -21912.5538 288.0000
v 14703.6168 -21224.2377 0.0000
v 14575.8023 -20000.0000 0.0000
v 14575.8023 -20000.0000 288.0000
v 14703.6168 -21224.2377 0.0000
v 14575.8023 -20000.0000 288.0000
v 14703.6168 -21224.2377 288.0000
v 14575.8023 -20000.0000 0.0000
v 14865.3676 -20000.0000 0.0000
v 14865.3676 -20000.0000 288.0000
v 14575.8023 -20000.0000 0.0000
v 14865.3676 -20000.0000 288.0000
v 14575.8023 -20000.0000 288.0000
v 14865.3676 -20000.0000 0.0000
v 15000.0000 -21289.5403 0.0000
v 15000.0000 -21289.5403 288.0000
v 14865.3676 -20000.0000 0.0000
v 15000.0000 -21289.5403 288.0000
v 14865.3676 -20000.0000 288.0000
v 15000.0000 -21289.5403 0.0000
v 15000.0000 -21472.0816 0.0000
v 15000.0000 -21472.0816 288.0000
v 15000.0000 -21289.5403 0.0000
v 15000.0000 -21472.0816 288.0000
v 15000.0000 -21289.5403 288.0000
v 15000.0000 -21472.0816 0.0000
v 14859.7759 -21492.4532 0.0000
v 14859.7759 -21492.4532 288.0000
v 15000.0000 -21472.0816 0.0000
v 14859.7759 -21492.4532 288.0000
v 15000.0000 -21472.0816 288.0000
f 3 2 1
f 6 5 4
f 9 8 7
f 12 11 10
f 15 14 13
f 18 17 16
f 21 20 19
f 24 23 22
f 27 26 25
f 30 29 28
f 33 32 31
f 36 35 34
f 39 38 37
f 42 41 40
f 45 44 43
f 48 47 46
f 51 50 49
f 54 53 52
f 57 56 55
f 60 59 58
f 63 62 61
f 66 65 64
f 69 68 67
f 72 71 70
f 75 74 73
f 78 77 76
f 81 80 79
f 84 83 82
