# SM_Haram_Deck_2_-5
o SM_Haram_Deck_2_-5
v 10000.0000 24950.8348 0.5000
v 10051.7713 24956.1883 0.5000
v 10271.1873 23139.6653 0.5000
v 10271.1873 23139.6653 -19.5000
v 10051.7713 24956.1883 -19.5000
v 10000.0000 24950.8348 -19.5000
v 10000.0000 20000.0000 0.5000
v 10029.5227 23115.5970 0.5000
v 10369.0297 20000.0000 0.5000
v 10369.0297 20000.0000 -19.5000
v 10029.5227 23115.5970 -19.5000
v 10000.0000 20000.0000 -19.5000
v 10271.1873 23139.6653 0.5000
v 10029.5227 23115.5970 0.5000
v 10000.0000 24950.8348 0.5000
v 10000.0000 24950.8348 -19.5000
v 10029.5227 23115.5970 -19.5000
v 10271.1873 23139.6653 -19.5000
v 10000.0000 24950.8348 0.5000
v 10029.5227 23115.5970 0.5000
v 10000.0000 20000.0000 0.5000
v 10000.0000 20000.0000 -19.5000
v 10029.5227 23115.5970 -19.5000
v 10000.0000 24950.8348 -19.5000
v 10029.5227 23115.5970 -19.5000
v 10369.0297 20000.0000 -19.5000
v 10369.0297 20000.0000 0.5000
v 10029.5227 23115.5970 -19.5000
v 10369.0297 20000.0000 0.5000
v 10029.5227 23115.5970 0.5000
v 10369.0297 20000.0000 -19.5000
v 10000.0000 20000.0000 -19.5000
v 10000.0000 20000.0000 0.5000
v 10369.0297 20000.0000 -19.5000
v 10000.0000 20000.0000 0.5000
v 10369.0297 20000.0000 0.5000
v 10000.0000 20000.0000 -19.5000
v 10000.0000 24950.8348 -19.5000
v 10000.0000 24950.8348 0.5000
v 10000.0000 20000.0000 -19.5000
v 10000.0000 24950.8348 0.5000
v 10000.0000 20000.0000 0.5000
v 10000.0000 24950.8348 -19.5000
v 10051.7713 24956.1883 -19.5000
v 10051.7713 24956.1883 0.5000
v 10000.0000 24950.8348 -19.5000
v 10051.7713 24956.1883 0.5000
v 10000.0000 24950.8348 0.5000
v 10051.7713 24956.1883 -19.5000
v 10271.1873 23139.6653 -19.5000
v 10271.1873 23139.6653 0.5000
v 10051.7713 24956.1883 -19.5000
v 10271.1873 23139.6653 0.5000
v 10051.7713 24956.1883 0.5000
v 10271.1873 23139.6653 -19.5000
v 10029.5227 23115.5970 -19.5000
v 10029.5227 23115.5970 0.5000
v 10271.1873 23139.6653 -19.5000
v 10029.5227 23115.5970 0.5000
v 10271.1873 23139.6653 0.5000
f 3 2 1
f 6 5 4
f 9 8 7
f 12 11 10
f 15 14 13
f 18 17 16
f 21 20 19
f 24 23 22
f 27 26 25
f 30 29 28
f 33 32 31
f 36 35 34
f 39 38 37
f 42 41 40
f 45 44 43
f 48 47 46
f 51 50 49
f 54 53 52
f 57 56 55
f 60 59 58
