# SM_Haram_Deck_-5_-4
o SM_Haram_Deck_-5_-4
v -20446.8182 19809.8536 0.5000
v -20000.0000 19853.4456 0.5000
v -20000.0000 19702.8901 0.5000
v -20000.0000 19702.8901 -19.5000
v -20000.0000 19853.4456 -19.5000
v -20446.8182 19809.8536 -19.5000
v -20446.8182 19809.8536 0.5000
v -20572.4919 20000.0000 0.5000
v -20465.3690 20000.0000 0.5000
v -20465.3690 20000.0000 -19.5000
v -20572.4919 20000.0000 -19.5000
v -20446.8182 19809.8536 -19.5000
v -20446.8182 19809.8536 0.5000
v -20497.4370 19597.1994 0.5000
v -20517.2398 19690.4021 0.5000
v -20517.2398 19690.4021 -19.5000
v -20497.4370 19597.1994 -19.5000
v -20446.8182 19809.8536 -19.5000
v -20000.0000 19702.8901 0.5000
v -20497.4370 19597.1994 0.5000
v -20446.8182 19809.8536 0.5000
v -20446.8182 19809.8536 -19.5000
v -20497.4370 19597.1994 -19.5000
v -20000.0000 19702.8901 -19.5000
v -20517.2398 19690.4021 0.5000
v -20572.4919 20000.0000 0.5000
v -20446.8182 19809.8536 0.5000
v -20446.8182 19809.8536 -19.5000
v -20572.4919 20000.0000 -19.5000
v -20517.2398 19690.4021 -19.5000
v -20497.4370 19597.1994 -19.5000
v -20517.2398 19690.4021 -19.5000
v -20517.2398 19690.4021 0.5000
v -20497.4370 19597.1994 -19.5000
v -20517.2398 19690.4021 0.5000
v -20497.4370 19597.1994 0.5000
v -20517.2398 19690.4021 -19.5000
v -20572.4919 20000.0000 -19.5000
v -20572.4919 20000.0000 0.5000
v -20517.2398 19690.4021 -19.5000
v -20572.4919 20000.0000 0.5000
v -20517.2398 19690.4021 0.5000
v -20572.4919 20000.0000 -19.5000
v -20465.3690 20000.0000 -19.5000
v -20465.3690 20000.0000 0.5000
v -20572.4919 20000.0000 -19.5000
v -20465.3690 20000.0000 0.5000
v -20572.4919 20000.0000 0.5000
v -20465.3690 20000.0000 -19.5000
v -20446.8182 19809.8536 -19.5000
v -20446.8182 19809.8536 0.5000
v -20465.3690 20000.0000 -19.5000
v -20446.8182 19809.8536 0.5000
v -20465.3690 20000.0000 0.5000
v -20446.8182 19809.8536 -19.5000
v -20000.0000 19853.4456 -19.5000
v -20000.0000 19853.4456 0.5000
v -20446.8182 19809.8536 -19.5000
v -20000.0000 19853.4456 0.5000
v -20446.8182 19809.8536 0.5000
v -20000.0000 19853.4456 -19.5000
v -20000.0000 19702.8901 -19.5000
v -20000.0000 19702.8901 0.5000
v -20000.0000 19853.4456 -19.5000
v -20000.0000 19702.8901 0.5000
v -20000.0000 19853.4456 0.5000
v -20000.0000 19702.8901 -19.5000
v -20497.4370 19597.1994 -19.5000
v -20497.4370 19597.1994 0.5000
v -20000.0000 19702.8901 -19.5000
v -20497.4370 19597.1994 0.5000
v -20000.0000 19702.8901 0.5000
v -20397.6781 19127.6804 0.5000
v -20000.0000 19212.1752 0.5000
v -20000.0000 17255.9938 0.5000
v -20000.0000 17255.9938 -19.5000
v -20000.0000 19212.1752 -19.5000
v -20397.6781 19127.6804 -19.5000
v -20397.6781 19127.6804 -19.5000
v -20000.0000 19212.1752 -19.5000
v -20000.0000 19212.1752 0.5000
v -20397.6781 19127.6804 -19.5000
v -20000.0000 19212.1752 0.5000
v -20397.6781 19127.6804 0.5000
v -20000.0000 19212.1752 -19.5000
v -20000.0000 17255.9938 -19.5000
v -20000.0000 17255.9938 0.5000
v -20000.0000 19212.1752 -19.5000
v -20000.0000 17255.9938 0.5000
v -20000.0000 19212.1752 0.5000
v -20000.0000 17255.9938 -19.5000
v -20397.6781 19127.6804 -19.5000
v -20397.6781 19127.6804 0.5000
v -20000.0000 17255.9938 -19.5000
v -20397.6781 19127.6804 0.5000
v -20000.0000 17255.9938 0.5000
f 3 2 1
f 6 5 4
f 9 8 7
f 12 11 10
f 15 14 13
f 18 17 16
f 21 20 19
f 24 23 22
f 27 26 25
f 30 29 28
f 33 32 31
f 36 35 34
f 39 38 37
f 42 41 40
f 45 44 43
f 48 47 46
f 51 50 49
f 54 53 52
f 57 56 55
f 60 59 58
f 63 62 61
f 66 65 64
f 69 68 67
f 72 71 70
f 75 74 73
f 78 77 76
f 81 80 79
f 84 83 82
f 87 86 85
f 90 89 88
f 93 92 91
f 96 95 94
