# SM_Haram_Wall_2_-5
o SM_Haram_Wall_2_-5
v 10347.3173 22857.8225 288.0000
v 10369.0297 20000.0000 288.0000
v 10029.5227 23115.5970 288.0000
v 10029.5227 23115.5970 0.0000
v 10369.0297 20000.0000 0.0000
v 10347.3173 22857.8225 0.0000
v 10369.0297 20000.0000 288.0000
v 10347.3173 22857.8225 288.0000
v 10658.7345 20000.0000 288.0000
v 10658.7345 20000.0000 0.0000
v 10347.3173 22857.8225 0.0000
v 10369.0297 20000.0000 0.0000
v 10347.3173 22857.8225 288.0000
v 10570.3553 23064.5367 288.0000
v 10592.6514 22882.2562 288.0000
v 10592.6514 22882.2562 0.0000
v 10570.3553 23064.5367 0.0000
v 10347.3173 22857.8225 0.0000
v 10051.7713 24956.1883 288.0000
v 10000.0000 24950.8348 288.0000
v 10000.0000 25000.0000 288.0000
v 10000.0000 25000.0000 0.0000
v 10000.0000 24950.8348 0.0000
v 10051.7713 24956.1883 0.0000
v 10029.5227 23115.5970 288.0000
v 10271.1873 23139.6653 288.0000
v 10347.3173 22857.8225 288.0000
v 10347.3173 22857.8225 0.0000
v 10271.1873 23139.6653 0.0000
v 10029.5227 23115.5970 0.0000
v 10271.1873 23139.6653 288.0000
v 10051.7713 24956.1883 288.0000
v 10336.5726 25000.0000 288.0000
v 10336.5726 25000.0000 0.0000
v 10051.7713 24956.1883 0.0000
v 10271.1873 23139.6653 0.0000
v 10000.0000 25000.0000 288.0000
v 10336.5726 25000.0000 288.0000
v 10051.7713 24956.1883 288.0000
v 10051.7713 24956.1883 0.0000
v 10336.5726 25000.0000 0.0000
v 10000.0000 25000.0000 0.0000
v 10570.3553 23064.5367 288.0000
v 10347.3173 22857.8225 288.0000
v 10271.1873 23139.6653 288.0000
v 10271.1873 23139.6653 0.0000
v 10347.3173 22857.8225 0.0000
v 10570.3553 23064.5367 0.0000
v 10336.5726 25000.0000 288.0000
v 10570.3553 23064.5367 288.0000
v 10271.1873 23139.6653 288.0000
v 10271.1873 23139.6653 0.0000
v 10570.3553 23064.5367 0.0000
v 10336.5726 25000.0000 0.0000
v 10051.7713 24956.1883 0.0000
v 10000.0000 24950.8348 0.0000
v 10000.0000 24950.8348 288.0000
v 10051.7713 24956.1883 0.0000
v 10000.0000 24950.8348 288.0000
v 10051.7713 24956.1883 288.0000
v 10000.0000 24950.8348 0.0000
v 10000.0000 25000.0000 0.0000
v 10000.0000 25000.0000 288.0000
v 10000.0000 24950.8348 0.0000
v 10000.0000 25000.0000 288.0000
v 10000.0000 24950.8348 288.0000
v 10000.0000 25000.0000 0.0000
v 10336.5726 25000.0000 0.0000
v 10336.5726 25000.0000 288.0000
v 10000.0000 25000.0000 0.0000
v 10336.5726 25000.0000 288.0000
v 10000.0000 25000.0000 288.0000
v 10336.5726 25000.0000 0.0000
v 10570.3553 23064.5367 0.0000
v 10570.3553 23064.5367 288.0000
v 10336.5726 25000.0000 0.0000
v 10570.3553 23064.5367 288.0000
v 10336.5726 25000.0000 288.0000
v 10570.3553 23064.5367 0.0000
v 10592.6514 22882.2562 0.0000
v 10592.6514 22882.2562 288.0000
v 10570.3553 23064.5367 0.0000
v 10592.6514 22882.2562 288.0000
v 10570.3553 23064.5367 288.0000
v 10592.6514 22882.2562 0.0000
v 10347.3173 22857.8225 0.0000
v 10347.3173 22857.8225 288.0000
v 10592.6514 22882.2562 0.0000
v 10347.3173 22857.8225 288.0000
v 10592.6514 22882.2562 288.0000
v 10347.3173 22857.8225 0.0000
v 10658.7345 20000.0000 0.0000
v 10658.7345 20000.0000 288.0000
v 10347.3173 22857.8225 0.0000
v 10658.7345 20000.0000 288.0000
v 10347.3173 22857.8225 288.0000
v 10658.7345 20000.0000 0.0000
v 10369.0297 20000.0000 0.0000
v 10369.0297 20000.0000 288.0000
v 10658.7345 20000.0000 0.0000
v 10369.0297 20000.0000 288.0000
v 10658.7345 20000.0000 288.0000
v 10369.0297 20000.0000 0.0000
v 10029.5227 23115.5970 0.0000
v 10029.5227 23115.5970 288.0000
v 10369.0297 20000.0000 0.0000
v 10029.5227 23115.5970 288.0000
v 10369.0297 20000.0000 288.0000
v 10029.5227 23115.5970 0.0000
v 10271.1873 23139.6653 0.0000
v 10271.1873 23139.6653 288.0000
v 10029.5227 23115.5970 0.0000
v 10271.1873 23139.6653 288.0000
v 10029.5227 23115.5970 288.0000
v 10271.1873 23139.6653 0.0000
v 10051.7713 24956.1883 0.0000
v 10051.7713 24956.1883 288.0000
v 10271.1873 23139.6653 0.0000
v 10051.7713 24956.1883 288.0000
v 10271.1873 23139.6653 288.0000
f 3 2 1
f 6 5 4
f 9 8 7
f 12 11 10
f 15 14 13
f 18 17 16
f 21 20 19
f 24 23 22
f 27 26 25
f 30 29 28
f 33 32 31
f 36 35 34
f 39 38 37
f 42 41 40
f 45 44 43
f 48 47 46
f 51 50 49
f 54 53 52
f 57 56 55
f 60 59 58
f 63 62 61
f 66 65 64
f 69 68 67
f 72 71 70
f 75 74 73
f 78 77 76
f 81 80 79
f 84 83 82
f 87 86 85
f 90 89 88
f 93 92 91
f 96 95 94
f 99 98 97
f 102 101 100
f 105 104 103
f 108 107 106
f 111 110 109
f 114 113 112
f 117 116 115
f 120 119 118
