# SM_Haram_Wall_-4_0
o SM_Haram_Wall_-4_0
v -16556.9576 -1076.4906 288.0000
v -16471.6449 -1545.4847 288.0000
v -16754.9951 -1597.0277 288.0000
v -16754.9951 -1597.0277 0.0000
v -16471.6449 -1545.4847 0.0000
v -16556.9576 -1076.4906 0.0000
v -16696.9383 -305.5968 288.0000
v -16998.1471 -258.6081 288.0000
v -16714.7640 -207.2460 288.0000
v -16714.7640 -207.2460 0.0000
v -16998.1471 -258.6081 0.0000
v -16696.9383 -305.5968 0.0000
v -16696.9383 -305.5968 288.0000
v -16556.9576 -1076.4906 288.0000
v -16840.3159 -1127.9893 288.0000
v -16840.3159 -1127.9893 0.0000
v -16556.9576 -1076.4906 0.0000
v -16696.9383 -305.5968 0.0000
v -16754.9951 -1597.0277 288.0000
v -16840.3159 -1127.9893 288.0000
v -16556.9576 -1076.4906 288.0000
v -16556.9576 -1076.4906 0.0000
v -16840.3159 -1127.9893 0.0000
v -16754.9951 -1597.0277 0.0000
v -16980.3130 -357.0050 288.0000
v -16998.1471 -258.6081 288.0000
v -16696.9383 -305.5968 288.0000
v -16696.9383 -305.5968 0.0000
v -16998.1471 -258.6081 0.0000
v -16980.3130 -357.0050 0.0000
v -16840.3159 -1127.9893 288.0000
v -16980.3130 -357.0050 288.0000
v -16696.9383 -305.5968 288.0000
v -16696.9383 -305.5968 0.0000
v -16980.3130 -357.0050 0.0000
v -16840.3159 -1127.9893 0.0000
v -16840.3159 -1127.9893 0.0000
v -16980.3130 -357.0050 0.0000
v -16980.3130 -357.0050 288.0000
v -16840.3159 -1127.9893 0.0000
v -16980.3130 -357.0050 288.0000
v -16840.3159 -1127.9893 288.0000
v -16980.3130 -357.0050 0.0000
v -16998.1471 -258.6081 0.0000
v -16998.1471 -258.6081 288.0000
v -16980.3130 -357.0050 0.0000
v -16998.1471 -258.6081 288.0000
v -16980.3130 -357.0050 288.0000
v -16998.1471 -258.6081 0.0000
v -16714.7640 -207.2460 0.0000
v -16714.7640 -207.2460 288.0000
v -16998.1471 -258.6081 0.0000
v -16714.7640 -207.2460 288.0000
v -16998.1471 -258.6081 288.0000
v -16714.7640 -207.2460 0.0000
v -16696.9383 -305.5968 0.0000
v -16696.9383 -305.5968 288.0000
v -16714.7640 -207.2460 0.0000
v -16696.9383 -305.5968 288.0000
v -16714.7640 -207.2460 288.0000
v -16696.9383 -305.5968 0.0000
v -16556.9576 -1076.4906 0.0000
v -16556.9576 -1076.4906 288.0000
v -16696.9383 -305.5968 0.0000
v -16556.9576 -1076.4906 288.0000
v -16696.9383 -305.5968 288.0000
v -16556.9576 -1076.4906 0.0000
v -16471.6449 -1545.4847 0.0000
v -16471.6449 -1545.4847 288.0000
v -16556.9576 -1076.4906 0.0000
v -16471.6449 -1545.4847 288.0000
v -16556.9576 -1076.4906 288.0000
v -16471.6449 -1545.4847 0.0000
v -16754.9951 -1597.0277 0.0000
v -16754.9951 -1597.0277 288.0000
v -16471.6449 -1545.4847 0.0000
v -16754.9951 -1597.0277 288.0000
v -16471.6449 -1545.4847 288.0000
v -16754.9951 -1597.0277 0.0000
v -16840.3159 -1127.9893 0.0000
v -16840.3159 -1127.9893 288.0000
v -16754.9951 -1597.0277 0.0000
v -16840.3159 -1127.9893 288.0000
v -16754.9951 -1597.0277 288.0000
v -16216.6994 -5000.0000 288.0000
v -16367.1286 -2120.0479 288.0000
v -15925.3303 -5000.0000 288.0000
v -15925.3303 -5000.0000 0.0000
v -16367.1286 -2120.0479 0.0000
v -16216.6994 -5000.0000 0.0000
v -16651.1932 -2167.6634 288.0000
v -16669.0901 -2069.2779 288.0000
v -16385.7399 -2017.7349 288.0000
v -16385.7399 -2017.7349 0.0000
v -16669.0901 -2069.2779 0.0000
v -16651.1932 -2167.6634 0.0000
v -16651.1932 -2167.6634 288.0000
v -16367.1286 -2120.0479 288.0000
v -16216.6994 -5000.0000 288.0000
v -16216.6994 -5000.0000 0.0000
v -16367.1286 -2120.0479 0.0000
v -16651.1932 -2167.6634 0.0000
v -16385.7399 -2017.7349 288.0000
v -16367.1286 -2120.0479 288.0000
v -16651.1932 -2167.6634 288.0000
v -16651.1932 -2167.6634 0.0000
v -16367.1286 -2120.0479 0.0000
v -16385.7399 -2017.7349 0.0000
v -16216.6994 -5000.0000 0.0000
v -16651.1932 -2167.6634 0.0000
v -16651.1932 -2167.6634 288.0000
v -16216.6994 -5000.0000 0.0000
v -16651.1932 -2167.6634 288.0000
v -16216.6994 -5000.0000 288.0000
v -16651.1932 -2167.6634 0.0000
v -16669.0901 -2069.2779 0.0000
v -16669.0901 -2069.2779 288.0000
v -16651.1932 -2167.6634 0.0000
v -16669.0901 -2069.2779 288.0000
v -16651.1932 -2167.6634 288.0000
v -16669.0901 -2069.2779 0.0000
v -16385.7399 -2017.7349 0.0000
v -16385.7399 -2017.7349 288.0000
v -16669.0901 -2069.2779 0.0000
v -16385.7399 -2017.7349 288.0000
v -16669.0901 -2069.2779 288.0000
v -16385.7399 -2017.7349 0.0000
v -16367.1286 -2120.0479 0.0000
v -16367.1286 -2120.0479 288.0000
v -16385.7399 -2017.7349 0.0000
v -16367.1286 -2120.0479 288.0000
v -16385.7399 -2017.7349 288.0000
v -16367.1286 -2120.0479 0.0000
v -15925.3303 -5000.0000 0.0000
v -15925.3303 -5000.0000 288.0000
v -16367.1286 -2120.0479 0.0000
v -15925.3303 -5000.0000 288.0000
v -16367.1286 -2120.0479 288.0000
v -15925.3303 -5000.0000 0.0000
v -16216.6994 -5000.0000 0.0000
v -16216.6994 -5000.0000 288.0000
v -15925.3303 -5000.0000 0.0000
v -16216.6994 -5000.0000 288.0000
v -15925.3303 -5000.0000 288.0000
f 3 2 1
f 6 5 4
f 9 8 7
f 12 11 10
f 15 14 13
f 18 17 16
f 21 20 19
f 24 23 22
f 27 26 25
f 30 29 28
f 33 32 31
f 36 35 34
f 39 38 37
f 42 41 40
f 45 44 43
f 48 47 46
f 51 50 49
f 54 53 52
f 57 56 55
f 60 59 58
f 63 62 61
f 66 65 64
f 69 68 67
f 72 71 70
f 75 74 73
f 78 77 76
f 81 80 79
f 84 83 82
f 87 86 85
f 90 89 88
f 93 92 91
f 96 95 94
f 99 98 97
f 102 101 100
f 105 104 103
f 108 107 106
f 111 110 109
f 114 113 112
f 117 116 115
f 120 119 118
f 123 122 121
f 126 125 124
f 129 128 127
f 132 131 130
f 135 134 133
f 138 137 136
f 141 140 139
f 144 143 142
