# SM_Haram_Wall_-3_3
o SM_Haram_Wall_-3_3
v -13774.9220 -17690.1825 288.0000
v -13976.7867 -18186.1478 288.0000
v -14058.3106 -17741.5177 288.0000
v -14058.3106 -17741.5177 0.0000
v -13976.7867 -18186.1478 0.0000
v -13774.9220 -17690.1825 0.0000
v -13595.6801 -18698.0269 288.0000
v -13861.5147 -18846.6268 288.0000
v -13879.2748 -18748.2165 288.0000
v -13879.2748 -18748.2165 0.0000
v -13861.5147 -18846.6268 0.0000
v -13595.6801 -18698.0269 0.0000
v -13861.5147 -18846.6268 288.0000
v -13595.6801 -18698.0269 288.0000
v -13578.0932 -18795.4777 288.0000
v -13578.0932 -18795.4777 0.0000
v -13595.6801 -18698.0269 0.0000
v -13861.5147 -18846.6268 0.0000
v -13976.7867 -18186.1478 288.0000
v -13774.9220 -17690.1825 288.0000
v -13693.2607 -18135.5623 288.0000
v -13693.2607 -18135.5623 0.0000
v -13774.9220 -17690.1825 0.0000
v -13976.7867 -18186.1478 0.0000
v -14400.7641 -15827.7775 288.0000
v -14543.5207 -15000.0000 288.0000
v -14251.2693 -15000.0000 288.0000
v -14251.2693 -15000.0000 0.0000
v -14543.5207 -15000.0000 0.0000
v -14400.7641 -15827.7775 0.0000
v -14117.1077 -15777.9393 288.0000
v -14058.3106 -17741.5177 288.0000
v -14400.7641 -15827.7775 288.0000
v -14400.7641 -15827.7775 0.0000
v -14058.3106 -17741.5177 0.0000
v -14117.1077 -15777.9393 0.0000
v -13879.2748 -18748.2165 288.0000
v -13976.7867 -18186.1478 288.0000
v -13595.6801 -18698.0269 288.0000
v -13595.6801 -18698.0269 0.0000
v -13976.7867 -18186.1478 0.0000
v -13879.2748 -18748.2165 0.0000
v -14058.3106 -17741.5177 288.0000
v -14117.1077 -15777.9393 288.0000
v -13774.9220 -17690.1825 288.0000
v -13774.9220 -17690.1825 0.0000
v -14117.1077 -15777.9393 0.0000
v -14058.3106 -17741.5177 0.0000
v -14251.2693 -15000.0000 288.0000
v -14117.1077 -15777.9393 288.0000
v -14400.7641 -15827.7775 288.0000
v -14400.7641 -15827.7775 0.0000
v -14117.1077 -15777.9393 0.0000
v -14251.2693 -15000.0000 0.0000
v -13693.2607 -18135.5623 288.0000
v -13595.6801 -18698.0269 288.0000
v -13976.7867 -18186.1478 288.0000
v -13976.7867 -18186.1478 0.0000
v -13595.6801 -18698.0269 0.0000
v -13693.2607 -18135.5623 0.0000
v -14400.7641 -15827.7775 0.0000
v -14543.5207 -15000.0000 0.0000
v -14543.5207 -15000.0000 288.0000
v -14400.7641 -15827.7775 0.0000
v -14543.5207 -15000.0000 288.0000
v -14400.7641 -15827.7775 288.0000
v -14543.5207 -15000.0000 0.0000
v -14251.2693 -15000.0000 0.0000
v -14251.2693 -15000.0000 288.0000
v -14543.5207 -15000.0000 0.0000
v -14251.2693 -15000.0000 288.0000
v -14543.5207 -15000.0000 288.0000
v -14251.2693 -15000.0000 0.0000
v -14117.1077 -15777.9393 0.0000
v -14117.1077 -15777.9393 288.0000
v -14251.2693 -15000.0000 0.0000
v -14117.1077 -15777.9393 288.0000
v -14251.2693 -15000.0000 288.0000
v -14117.1077 -15777.9393 0.0000
v -13774.9220 -17690.1825 0.0000
v -13774.9220 -17690.1825 288.0000
v -14117.1077 -15777.9393 0.0000
v -13774.9220 -17690.1825 288.0000
v -14117.1077 -15777.9393 288.0000
v -13774.9220 -17690.1825 0.0000
v -13693.2607 -18135.5623 0.0000
v -13693.2607 -18135.5623 288.0000
v -13774.9220 -17690.1825 0.0000
v -13693.2607 -18135.5623 288.0000
v -13774.9220 -17690.1825 288.0000
v -13693.2607 -18135.5623 0.0000
v -13595.6801 -18698.0269 0.0000
v -13595.6801 -18698.0269 288.0000
v -13693.2607 -18135.5623 0.0000
v -13595.6801 -18698.0269 288.0000
v -13693.2607 -18135.5623 288.0000
v -13595.6801 -18698.0269 0.0000
v -13578.0932 -18795.4777 0.0000
v -13578.0932 -18795.4777 288.0000
v -13595.6801 -18698.0269 0.0000
v -13578.0932 -18795.4777 288.0000
v -13595.6801 -18698.0269 288.0000
v -13578.0932 -18795.4777 0.0000
v -13861.5147 -18846.6268 0.0000
v -13861.5147 -18846.6268 288.0000
v -13578.0932 -18795.4777 0.0000
v -13861.5147 -18846.6268 288.0000
v -13578.0932 -18795.4777 288.0000
v -13861.5147 -18846.6268 0.0000
v -13879.2748 -18748.2165 0.0000
v -13879.2748 -18748.2165 288.0000
v -13861.5147 -18846.6268 0.0000
v -13879.2748 -18748.2165 288.0000
v -13861.5147 -18846.6268 288.0000
v -13879.2748 -18748.2165 0.0000
v -13976.7867 -18186.1478 0.0000
v -13976.7867 -18186.1478 288.0000
v -13879.2748 -18748.2165 0.0000
v -13976.7867 -18186.1478 288.0000
v -13879.2748 -18748.2165 288.0000
v -13976.7867 -18186.1478 0.0000
v -14058.3106 -17741.5177 0.0000
v -14058.3106 -17741.5177 288.0000
v -13976.7867 -18186.1478 0.0000
v -14058.3106 -17741.5177 288.0000
v -13976.7867 -18186.1478 288.0000
v -14058.3106 -17741.5177 0.0000
v -14400.7641 -15827.7775 0.0000
v -14400.7641 -15827.7775 288.0000
v -14058.3106 -17741.5177 0.0000
v -14400.7641 -15827.7775 288.0000
v -14058.3106 -17741.5177 288.0000
v -13492.8446 -19267.8469 288.0000
v -13653.3653 -20000.0000 288.0000
v -13776.2662 -19318.9960 288.0000
v -13776.2662 -19318.9960 0.0000
v -13653.3653 -20000.0000 0.0000
v -13492.8446 -19267.8469 0.0000
v -13653.3653 -20000.0000 288.0000
v -13492.8446 -19267.8469 288.0000
v -13360.7129 -20000.0000 288.0000
v -13360.7129 -20000.0000 0.0000
v -13492.8446 -19267.8469 0.0000
v -13653.3653 -20000.0000 0.0000
v -13492.8446 -19267.8469 0.0000
v -13360.7129 -20000.0000 0.0000
v -13360.7129 -20000.0000 288.0000
v -13492.8446 -19267.8469 0.0000
v -13360.7129 -20000.0000 288.0000
v -13492.8446 -19267.8469 288.0000
v -13360.7129 -20000.0000 0.0000
v -13653.3653 -20000.0000 0.0000
v -13653.3653 -20000.0000 288.0000
v -13360.7129 -20000.0000 0.0000
v -13653.3653 -20000.0000 288.0000
v -13360.7129 -20000.0000 288.0000
v -13653.3653 -20000.0000 0.0000
v -13776.2662 -19318.9960 0.0000
v -13776.2662 -19318.9960 288.0000
v -13653.3653 -20000.0000 0.0000
v -13776.2662 -19318.9960 288.0000
v -13653.3653 -20000.0000 288.0000
v -13776.2662 -19318.9960 0.0000
v -13492.8446 -19267.8469 0.0000
v -13492.8446 -19267.8469 288.0000
v -13776.2662 -19318.9960 0.0000
v -13492.8446 -19267.8469 288.0000
v -13776.2662 -19318.9960 288.0000
f 3 2 1
f 6 5 4
f 9 8 7
f 12 11 10
f 15 14 13
f 18 17 16
f 21 20 19
f 24 23 22
f 27 26 25
f 30 29 28
f 33 32 31
f 36 35 34
f 39 38 37
f 42 41 40
f 45 44 43
f 48 47 46
f 51 50 49
f 54 53 52
f 57 56 55
f 60 59 58
f 63 62 61
f 66 65 64
f 69 68 67
f 72 71 70
f 75 74 73
f 78 77 76
f 81 80 79
f 84 83 82
f 87 86 85
f 90 89 88
f 93 92 91
f 96 95 94
f 99 98 97
f 102 101 100
f 105 104 103
f 108 107 106
f 111 110 109
f 114 113 112
f 117 116 115
f 120 119 118
f 123 122 121
f 126 125 124
f 129 128 127
f 132 131 130
f 135 134 133
f 138 137 136
f 141 140 139
f 144 143 142
f 147 146 145
f 150 149 148
f 153 152 151
f 156 155 154
f 159 158 157
f 162 161 160
f 165 164 163
f 168 167 166
