# SM_Haram_Wall_1_-6
o SM_Haram_Wall_1_-6
v 9015.9469 25142.3679 288.0000
v 8930.2617 25000.0000 288.0000
v 8916.4870 25131.9880 288.0000
v 8916.4870 25131.9880 0.0000
v 8930.2617 25000.0000 0.0000
v 9015.9469 25142.3679 0.0000
v 9515.4981 25190.2696 288.0000
v 10000.0000 25240.3705 288.0000
v 10000.0000 25000.0000 288.0000
v 10000.0000 25000.0000 0.0000
v 10000.0000 25240.3705 0.0000
v 9515.4981 25190.2696 0.0000
v 8930.2617 25000.0000 288.0000
v 9015.9469 25142.3679 288.0000
v 9258.2893 25170.2922 288.0000
v 9258.2893 25170.2922 0.0000
v 9015.9469 25142.3679 0.0000
v 8930.2617 25000.0000 0.0000
v 10000.0000 25000.0000 288.0000
v 8930.2617 25000.0000 288.0000
v 9515.4981 25190.2696 288.0000
v 9515.4981 25190.2696 0.0000
v 8930.2617 25000.0000 0.0000
v 10000.0000 25000.0000 0.0000
v 9258.2893 25170.2922 288.0000
v 9515.4981 25190.2696 288.0000
v 8930.2617 25000.0000 288.0000
v 8930.2617 25000.0000 0.0000
v 9515.4981 25190.2696 0.0000
v 9258.2893 25170.2922 0.0000
v 9015.9469 25142.3679 0.0000
v 9258.2893 25170.2922 0.0000
v 9258.2893 25170.2922 288.0000
v 9015.9469 25142.3679 0.0000
v 9258.2893 25170.2922 288.0000
v 9015.9469 25142.3679 288.0000
v 9258.2893 25170.2922 0.0000
v 9515.4981 25190.2696 0.0000
v 9515.4981 25190.2696 288.0000
v 9258.2893 25170.2922 0.0000
v 9515.4981 25190.2696 288.0000
v 9258.2893 25170.2922 288.0000
v 9515.4981 25190.2696 0.0000
v 10000.0000 25240.3705 0.0000
v 10000.0000 25240.3705 288.0000
v 9515.4981 25190.2696 0.0000
v 10000.0000 25240.3705 288.0000
v 9515.4981 25190.2696 288.0000
v 10000.0000 25240.3705 0.0000
v 10000.0000 25000.0000 0.0000
v 10000.0000 25000.0000 288.0000
v 10000.0000 25240.3705 0.0000
v 10000.0000 25000.0000 288.0000
v 10000.0000 25240.3705 288.0000
v 10000.0000 25000.0000 0.0000
v 8930.2617 25000.0000 0.0000
v 8930.2617 25000.0000 288.0000
v 10000.0000 25000.0000 0.0000
v 8930.2617 25000.0000 288.0000
v 10000.0000 25000.0000 288.0000
v 8930.2617 25000.0000 0.0000
v 8916.4870 25131.9880 0.0000
v 8916.4870 25131.9880 288.0000
v 8930.2617 25000.0000 0.0000
v 8916.4870 25131.9880 288.0000
v 8930.2617 25000.0000 288.0000
v 8916.4870 25131.9880 0.0000
v 9015.9469 25142.3679 0.0000
v 9015.9469 25142.3679 288.0000
v 8916.4870 25131.9880 0.0000
v 9015.9469 25142.3679 288.0000
v 8916.4870 25131.9880 288.0000
v 8439.0799 25082.1644 288.0000
v 8447.6548 25000.0000 288.0000
v 7651.7852 25000.0000 288.0000
v 7651.7852 25000.0000 0.0000
v 8447.6548 25000.0000 0.0000
v 8439.0799 25082.1644 0.0000
v 8439.0799 25082.1644 0.0000
v 8447.6548 25000.0000 0.0000
v 8447.6548 25000.0000 288.0000
v 8439.0799 25082.1644 0.0000
v 8447.6548 25000.0000 288.0000
v 8439.0799 25082.1644 288.0000
v 8447.6548 25000.0000 0.0000
v 7651.7852 25000.0000 0.0000
v 7651.7852 25000.0000 288.0000
v 8447.6548 25000.0000 0.0000
v 7651.7852 25000.0000 288.0000
v 8447.6548 25000.0000 288.0000
v 7651.7852 25000.0000 0.0000
v 8439.0799 25082.1644 0.0000
v 8439.0799 25082.1644 288.0000
v 7651.7852 25000.0000 0.0000
v 8439.0799 25082.1644 288.0000
v 7651.7852 25000.0000 288.0000
f 3 2 1
f 6 5 4
f 9 8 7
f 12 11 10
f 15 14 13
f 18 17 16
f 21 20 19
f 24 23 22
f 27 26 25
f 30 29 28
f 33 32 31
f 36 35 34
f 39 38 37
f 42 41 40
f 45 44 43
f 48 47 46
f 51 50 49
f 54 53 52
f 57 56 55
f 60 59 58
f 63 62 61
f 66 65 64
f 69 68 67
f 72 71 70
f 75 74 73
f 78 77 76
f 81 80 79
f 84 83 82
f 87 86 85
f 90 89 88
f 93 92 91
f 96 95 94
