# SM_Haram_Wall_-1_-5
o SM_Haram_Wall_-1_-5
v -1240.9480 24040.3233 288.0000
v -2265.0605 23659.2377 288.0000
v -2290.8088 23946.0844 288.0000
v -2290.8088 23946.0844 0.0000
v -2265.0605 23659.2377 0.0000
v -1240.9480 24040.3233 0.0000
v -1240.9480 24040.3233 288.0000
v 0.0000 23891.6543 288.0000
v -1211.7912 23753.7826 288.0000
v -1211.7912 23753.7826 0.0000
v 0.0000 23891.6543 0.0000
v -1240.9480 24040.3233 0.0000
v 0.0000 23891.6543 288.0000
v -1240.9480 24040.3233 288.0000
v 0.0000 24181.5124 288.0000
v 0.0000 24181.5124 0.0000
v -1240.9480 24040.3233 0.0000
v 0.0000 23891.6543 0.0000
v -1211.7912 23753.7826 288.0000
v -2265.0605 23659.2377 288.0000
v -1240.9480 24040.3233 288.0000
v -1240.9480 24040.3233 0.0000
v -2265.0605 23659.2377 0.0000
v -1211.7912 23753.7826 0.0000
v -1240.9480 24040.3233 0.0000
v 0.0000 24181.5124 0.0000
v 0.0000 24181.5124 288.0000
v -1240.9480 24040.3233 0.0000
v 0.0000 24181.5124 288.0000
v -1240.9480 24040.3233 288.0000
v 0.0000 24181.5124 0.0000
v 0.0000 23891.6543 0.0000
v 0.0000 23891.6543 288.0000
v 0.0000 24181.5124 0.0000
v 0.0000 23891.6543 288.0000
v 0.0000 24181.5124 288.0000
v 0.0000 23891.6543 0.0000
v -1211.7912 23753.7826 0.0000
v -1211.7912 23753.7826 288.0000
v 0.0000 23891.6543 0.0000
v -1211.7912 23753.7826 288.0000
v 0.0000 23891.6543 288.0000
v -1211.7912 23753.7826 0.0000
v -2265.0605 23659.2377 0.0000
v -2265.0605 23659.2377 288.0000
v -1211.7912 23753.7826 0.0000
v -2265.0605 23659.2377 288.0000
v -1211.7912 23753.7826 288.0000
v -2265.0605 23659.2377 0.0000
v -2290.8088 23946.0844 0.0000
v -2290.8088 23946.0844 288.0000
v -2265.0605 23659.2377 0.0000
v -2290.8088 23946.0844 288.0000
v -2265.0605 23659.2377 288.0000
v -2290.8088 23946.0844 0.0000
v -1240.9480 24040.3233 0.0000
v -1240.9480 24040.3233 288.0000
v -2290.8088 23946.0844 0.0000
v -1240.9480 24040.3233 288.0000
v -2290.8088 23946.0844 288.0000
v -3284.9903 23575.4680 288.0000
v -5000.0000 23668.3674 288.0000
v -3311.8473 23862.2768 288.0000
v -3311.8473 23862.2768 0.0000
v -5000.0000 23668.3674 0.0000
v -3284.9903 23575.4680 0.0000
v -5000.0000 23668.3674 288.0000
v -3284.9903 23575.4680 288.0000
v -5000.0000 23378.4737 288.0000
v -5000.0000 23378.4737 0.0000
v -3284.9903 23575.4680 0.0000
v -5000.0000 23668.3674 0.0000
v -2868.4861 23894.2302 288.0000
v -2743.1383 23616.3239 288.0000
v -2845.3087 23607.1527 288.0000
v -2845.3087 23607.1527 0.0000
v -2743.1383 23616.3239 0.0000
v -2868.4861 23894.2302 0.0000
v -2743.1383 23616.3239 288.0000
v -2868.4861 23894.2302 288.0000
v -2768.8866 23903.1705 288.0000
v -2768.8866 23903.1705 0.0000
v -2868.4861 23894.2302 0.0000
v -2743.1383 23616.3239 0.0000
v -3311.8473 23862.2768 288.0000
v -3112.9138 23876.6995 288.0000
v -3284.9903 23575.4680 288.0000
v -3284.9903 23575.4680 0.0000
v -3112.9138 23876.6995 0.0000
v -3311.8473 23862.2768 0.0000
v -3112.9138 23876.6995 288.0000
v -3092.1997 23589.4454 288.0000
v -3284.9903 23575.4680 288.0000
v -3284.9903 23575.4680 0.0000
v -3092.1997 23589.4454 0.0000
v -3112.9138 23876.6995 0.0000
v -2845.3087 23607.1527 288.0000
v -3092.1997 23589.4454 288.0000
v -2868.4861 23894.2302 288.0000
v -2868.4861 23894.2302 0.0000
v -3092.1997 23589.4454 0.0000
v -2845.3087 23607.1527 0.0000
v -3112.9138 23876.6995 288.0000
v -2868.4861 23894.2302 288.0000
v -3092.1997 23589.4454 288.0000
v -3092.1997 23589.4454 0.0000
v -2868.4861 23894.2302 0.0000
v -3112.9138 23876.6995 0.0000
v -3112.9138 23876.6995 0.0000
v -2868.4861 23894.2302 0.0000
v -2868.4861 23894.2302 288.0000
v -3112.9138 23876.6995 0.0000
v -2868.4861 23894.2302 288.0000
v -3112.9138 23876.6995 288.0000
v -2868.4861 23894.2302 0.0000
v -2768.8866 23903.1705 0.0000
v -2768.8866 23903.1705 288.0000
v -2868.4861 23894.2302 0.0000
v -2768.8866 23903.1705 288.0000
v -2868.4861 23894.2302 288.0000
v -2768.8866 23903.1705 0.0000
v -2743.1383 23616.3239 0.0000
v -2743.1383 23616.3239 288.0000
v -2768.8866 23903.1705 0.0000
v -2743.1383 23616.3239 288.0000
v -2768.8866 23903.1705 288.0000
v -2743.1383 23616.3239 0.0000
v -2845.3087 23607.1527 0.0000
v -2845.3087 23607.1527 288.0000
v -2743.1383 23616.3239 0.0000
v -2845.3087 23607.1527 288.0000
v -2743.1383 23616.3239 288.0000
v -2845.3087 23607.1527 0.0000
v -3092.1997 23589.4454 0.0000
v -3092.1997 23589.4454 288.0000
v -2845.3087 23607.1527 0.0000
v -3092.1997 23589.4454 288.0000
v -2845.3087 23607.1527 288.0000
v -3092.1997 23589.4454 0.0000
v -3284.9903 23575.4680 0.0000
v -3284.9903 23575.4680 288.0000
v -3092.1997 23589.4454 0.0000
v -3284.9903 23575.4680 288.0000
v -3092.1997 23589.4454 288.0000
v -3284.9903 23575.4680 0.0000
v -5000.0000 23378.4737 0.0000
v -5000.0000 23378.4737 288.0000
v -3284.9903 23575.4680 0.0000
v -5000.0000 23378.4737 288.0000
v -3284.9903 23575.4680 288.0000
v -5000.0000 23378.4737 0.0000
v -5000.0000 23668.3674 0.0000
v -5000.0000 23668.3674 288.0000
v -5000.0000 23378.4737 0.0000
v -5000.0000 23668.3674 288.0000
v -5000.0000 23378.4737 288.0000
v -5000.0000 23668.3674 0.0000
v -3311.8473 23862.2768 0.0000
v -3311.8473 23862.2768 288.0000
v -5000.0000 23668.3674 0.0000
v -3311.8473 23862.2768 288.0000
v -5000.0000 23668.3674 288.0000
v -3311.8473 23862.2768 0.0000
v -3112.9138 23876.6995 0.0000
v -3112.9138 23876.6995 288.0000
v -3311.8473 23862.2768 0.0000
v -3112.9138 23876.6995 288.0000
v -3311.8473 23862.2768 288.0000
f 3 2 1
f 6 5 4
f 9 8 7
f 12 11 10
f 15 14 13
f 18 17 16
f 21 20 19
f 24 23 22
f 27 26 25
f 30 29 28
f 33 32 31
f 36 35 34
f 39 38 37
f 42 41 40
f 45 44 43
f 48 47 46
f 51 50 49
f 54 53 52
f 57 56 55
f 60 59 58
f 63 62 61
f 66 65 64
f 69 68 67
f 72 71 70
f 75 74 73
f 78 77 76
f 81 80 79
f 84 83 82
f 87 86 85
f 90 89 88
f 93 92 91
f 96 95 94
f 99 98 97
f 102 101 100
f 105 104 103
f 108 107 106
f 111 110 109
f 114 113 112
f 117 116 115
f 120 119 118
f 123 122 121
f 126 125 124
f 129 128 127
f 132 131 130
f 135 134 133
f 138 137 136
f 141 140 139
f 144 143 142
f 147 146 145
f 150 149 148
f 153 152 151
f 156 155 154
f 159 158 157
f 162 161 160
f 165 164 163
f 168 167 166
