# SM_Haram_Wall_-4_1
o SM_Haram_Wall_-4_1
v -15564.3881 -7352.8757 288.0000
v -15516.9976 -7663.0202 288.0000
v -15801.6932 -7706.5220 288.0000
v -15801.6932 -7706.5220 0.0000
v -15516.9976 -7663.0202 0.0000
v -15564.3881 -7352.8757 0.0000
v -15849.0837 -7396.3776 288.0000
v -15925.3303 -5000.0000 288.0000
v -15564.3881 -7352.8757 288.0000
v -15564.3881 -7352.8757 0.0000
v -15925.3303 -5000.0000 0.0000
v -15849.0837 -7396.3776 0.0000
v -15925.3303 -5000.0000 288.0000
v -15849.0837 -7396.3776 288.0000
v -16216.6994 -5000.0000 288.0000
v -16216.6994 -5000.0000 0.0000
v -15849.0837 -7396.3776 0.0000
v -15925.3303 -5000.0000 0.0000
v -15801.6932 -7706.5220 288.0000
v -15849.0837 -7396.3776 288.0000
v -15564.3881 -7352.8757 288.0000
v -15564.3881 -7352.8757 0.0000
v -15849.0837 -7396.3776 0.0000
v -15801.6932 -7706.5220 0.0000
v -15849.0837 -7396.3776 0.0000
v -16216.6994 -5000.0000 0.0000
v -16216.6994 -5000.0000 288.0000
v -15849.0837 -7396.3776 0.0000
v -16216.6994 -5000.0000 288.0000
v -15849.0837 -7396.3776 288.0000
v -16216.6994 -5000.0000 0.0000
v -15925.3303 -5000.0000 0.0000
v -15925.3303 -5000.0000 288.0000
v -16216.6994 -5000.0000 0.0000
v -15925.3303 -5000.0000 288.0000
v -16216.6994 -5000.0000 288.0000
v -15925.3303 -5000.0000 0.0000
v -15564.3881 -7352.8757 0.0000
v -15564.3881 -7352.8757 288.0000
v -15925.3303 -5000.0000 0.0000
v -15564.3881 -7352.8757 288.0000
v -15925.3303 -5000.0000 288.0000
v -15564.3881 -7352.8757 0.0000
v -15516.9976 -7663.0202 0.0000
v -15516.9976 -7663.0202 288.0000
v -15564.3881 -7352.8757 0.0000
v -15516.9976 -7663.0202 288.0000
v -15564.3881 -7352.8757 288.0000
v -15516.9976 -7663.0202 0.0000
v -15801.6932 -7706.5220 0.0000
v -15801.6932 -7706.5220 288.0000
v -15516.9976 -7663.0202 0.0000
v -15801.6932 -7706.5220 288.0000
v -15516.9976 -7663.0202 288.0000
v -15801.6932 -7706.5220 0.0000
v -15849.0837 -7396.3776 0.0000
v -15849.0837 -7396.3776 288.0000
v -15801.6932 -7706.5220 0.0000
v -15849.0837 -7396.3776 288.0000
v -15801.6932 -7706.5220 288.0000
v -15328.3199 -9131.3851 288.0000
v -15451.2398 -10000.0000 288.0000
v -15615.2038 -9165.0802 288.0000
v -15615.2038 -9165.0802 0.0000
v -15451.2398 -10000.0000 0.0000
v -15328.3199 -9131.3851 0.0000
v -15451.2398 -10000.0000 288.0000
v -15328.3199 -9131.3851 288.0000
v -15157.7388 -10000.0000 288.0000
v -15157.7388 -10000.0000 0.0000
v -15328.3199 -9131.3851 0.0000
v -15451.2398 -10000.0000 0.0000
v -15714.0852 -8279.8673 288.0000
v -15729.1901 -8181.0147 288.0000
v -15429.3987 -8236.3064 288.0000
v -15429.3987 -8236.3064 0.0000
v -15729.1901 -8181.0147 0.0000
v -15714.0852 -8279.8673 0.0000
v -15429.3987 -8236.3064 288.0000
v -15729.1901 -8181.0147 288.0000
v -15444.4945 -8137.5128 288.0000
v -15444.4945 -8137.5128 0.0000
v -15729.1901 -8181.0147 0.0000
v -15429.3987 -8236.3064 0.0000
v -15341.0362 -8812.9875 288.0000
v -15328.3199 -9131.3851 288.0000
v -15628.1618 -8840.6308 288.0000
v -15628.1618 -8840.6308 0.0000
v -15328.3199 -9131.3851 0.0000
v -15341.0362 -8812.9875 0.0000
v -15615.2038 -9165.0802 288.0000
v -15628.1618 -8840.6308 288.0000
v -15328.3199 -9131.3851 288.0000
v -15328.3199 -9131.3851 0.0000
v -15628.1618 -8840.6308 0.0000
v -15615.2038 -9165.0802 0.0000
v -15628.1618 -8840.6308 288.0000
v -15714.0852 -8279.8673 288.0000
v -15429.3987 -8236.3064 288.0000
v -15429.3987 -8236.3064 0.0000
v -15714.0852 -8279.8673 0.0000
v -15628.1618 -8840.6308 0.0000
v -15429.3987 -8236.3064 288.0000
v -15341.0362 -8812.9875 288.0000
v -15628.1618 -8840.6308 288.0000
v -15628.1618 -8840.6308 0.0000
v -15341.0362 -8812.9875 0.0000
v -15429.3987 -8236.3064 0.0000
v -15628.1618 -8840.6308 0.0000
v -15714.0852 -8279.8673 0.0000
v -15714.0852 -8279.8673 288.0000
v -15628.1618 -8840.6308 0.0000
v -15714.0852 -8279.8673 288.0000
v -15628.1618 -8840.6308 288.0000
v -15714.0852 -8279.8673 0.0000
v -15729.1901 -8181.0147 0.0000
v -15729.1901 -8181.0147 288.0000
v -15714.0852 -8279.8673 0.0000
v -15729.1901 -8181.0147 288.0000
v -15714.0852 -8279.8673 288.0000
v -15729.1901 -8181.0147 0.0000
v -15444.4945 -8137.5128 0.0000
v -15444.4945 -8137.5128 288.0000
v -15729.1901 -8181.0147 0.0000
v -15444.4945 -8137.5128 288.0000
v -15729.1901 -8181.0147 288.0000
v -15444.4945 -8137.5128 0.0000
v -15429.3987 -8236.3064 0.0000
v -15429.3987 -8236.3064 288.0000
v -15444.4945 -8137.5128 0.0000
v -15429.3987 -8236.3064 288.0000
v -15444.4945 -8137.5128 288.0000
v -15429.3987 -8236.3064 0.0000
v -15341.0362 -8812.9875 0.0000
v -15341.0362 -8812.9875 288.0000
v -15429.3987 -8236.3064 0.0000
v -15341.0362 -8812.9875 288.0000
v -15429.3987 -8236.3064 288.0000
v -15341.0362 -8812.9875 0.0000
v -15328.3199 -9131.3851 0.0000
v -15328.3199 -9131.3851 288.0000
v -15341.0362 -8812.9875 0.0000
v -15328.3199 -9131.3851 288.0000
v -15341.0362 -8812.9875 288.0000
v -15328.3199 -9131.3851 0.0000
v -15157.7388 -10000.0000 0.0000
v -15157.7388 -10000.0000 288.0000
v -15328.3199 -9131.3851 0.0000
v -15157.7388 -10000.0000 288.0000
v -15328.3199 -9131.3851 288.0000
v -15157.7388 -10000.0000 0.0000
v -15451.2398 -10000.0000 0.0000
v -15451.2398 -10000.0000 288.0000
v -15157.7388 -10000.0000 0.0000
v -15451.2398 -10000.0000 288.0000
v -15157.7388 -10000.0000 288.0000
v -15451.2398 -10000.0000 0.0000
v -15615.2038 -9165.0802 0.0000
v -15615.2038 -9165.0802 288.0000
v -15451.2398 -10000.0000 0.0000
v -15615.2038 -9165.0802 288.0000
v -15451.2398 -10000.0000 288.0000
v -15615.2038 -9165.0802 0.0000
v -15628.1618 -8840.6308 0.0000
v -15628.1618 -8840.6308 288.0000
v -15615.2038 -9165.0802 0.0000
v -15628.1618 -8840.6308 288.0000
v -15615.2038 -9165.0802 288.0000
f 3 2 1
f 6 5 4
f 9 8 7
f 12 11 10
f 15 14 13
f 18 17 16
f 21 20 19
f 24 23 22
f 27 26 25
f 30 29 28
f 33 32 31
f 36 35 34
f 39 38 37
f 42 41 40
f 45 44 43
f 48 47 46
f 51 50 49
f 54 53 52
f 57 56 55
f 60 59 58
f 63 62 61
f 66 65 64
f 69 68 67
f 72 71 70
f 75 74 73
f 78 77 76
f 81 80 79
f 84 83 82
f 87 86 85
f 90 89 88
f 93 92 91
f 96 95 94
f 99 98 97
f 102 101 100
f 105 104 103
f 108 107 106
f 111 110 109
f 114 113 112
f 117 116 115
f 120 119 118
f 123 122 121
f 126 125 124
f 129 128 127
f 132 131 130
f 135 134 133
f 138 137 136
f 141 140 139
f 144 143 142
f 147 146 145
f 150 149 148
f 153 152 151
f 156 155 154
f 159 158 157
f 162 161 160
f 165 164 163
f 168 167 166
