# Table Of Showbread from Tabernacle | SoxfanJr (Printables user) | Creative Commons Zero 1.0 Universal / Public Domain Dedication (CC0 1.0) - Printables label "Creative Commons - Public Domain"
# converted from table-of-showbread.stl, units unchanged
o table-of-showbread
v -15.348963 0.000000 0.001522
v -15.348963 5.000000 0.001522
v -15.348963 55.000000 0.001522
v -15.348963 60.000000 0.001522
v -15.089538 5.000000 29.737106
v -15.089538 55.000000 29.737106
v -15.000000 0.000000 40.000000
v -15.000000 60.000000 40.000000
v -14.142134 0.000000 39.992516
v -14.142134 60.000000 39.992516
v -13.933170 -10.000000 34.956020
v -13.933170 -5.000000 34.956020
v -13.933170 0.000000 34.956020
v -13.933170 60.000000 34.956020
v -13.933170 65.000000 34.956020
v -13.933170 70.000000 34.956020
v -13.899096 -10.000000 34.697201
v -13.899096 -10.000000 35.214840
v -13.899096 -5.000000 34.697201
v -13.899096 -5.000000 35.214840
v -13.899096 0.000000 34.697201
v -13.899096 0.000000 35.214840
v -13.899096 60.000000 34.697201
v -13.899096 60.000000 35.214840
v -13.899096 65.000000 34.697201
v -13.899096 65.000000 35.214840
v -13.899096 70.000000 34.697201
v -13.899096 70.000000 35.214840
v -13.799195 -10.000000 34.456020
v -13.799195 -10.000000 35.456020
v -13.799195 -5.000000 34.456020
v -13.799195 -5.000000 35.456020
v -13.799195 0.000000 34.456020
v -13.799195 0.000000 35.456020
v -13.799195 60.000000 34.456020
v -13.799195 60.000000 35.456020
v -13.799195 65.000000 34.456020
v -13.799195 65.000000 35.456020
v -13.799195 70.000000 34.456020
v -13.799195 70.000000 35.456020
v -13.640277 -10.000000 34.248913
v -13.640277 -10.000000 35.663128
v -13.640277 -5.000000 34.248913
v -13.640277 -5.000000 35.663128
v -13.640277 0.000000 34.248913
v -13.640277 0.000000 35.663128
v -13.640277 60.000000 34.248913
v -13.640277 60.000000 35.663128
v -13.640277 65.000000 34.248913
v -13.640277 65.000000 35.663128
v -13.640277 70.000000 34.248913
v -13.640277 70.000000 35.663128
v -13.433170 -10.000000 34.089993
v -13.433170 -10.000000 35.822044
v -13.433170 -5.000000 34.089993
v -13.433170 -5.000000 35.822044
v -13.433170 0.000000 34.089993
v -13.433170 0.000000 35.822044
v -13.433170 60.000000 34.089993
v -13.433170 60.000000 35.822044
v -13.433170 65.000000 34.089993
v -13.433170 65.000000 35.822044
v -13.433170 70.000000 34.089993
v -13.433170 70.000000 35.822044
v -13.191989 -10.000000 33.990093
v -13.191989 -10.000000 35.921944
v -13.191989 -5.000000 33.990093
v -13.191989 -5.000000 35.921944
v -13.191989 0.000000 33.990093
v -13.191989 0.000000 35.921944
v -13.191989 60.000000 33.990093
v -13.191989 60.000000 35.921944
v -13.191989 65.000000 33.990093
v -13.191989 65.000000 35.921944
v -13.191989 70.000000 33.990093
v -13.191989 70.000000 35.921944
v -12.933170 -10.000000 33.956020
v -12.933170 -10.000000 35.956020
v -12.933170 -5.000000 33.956020
v -12.933170 -5.000000 35.956020
v -12.933170 0.000000 33.956020
v -12.933170 0.000000 35.956020
v -12.933170 60.000000 33.956020
v -12.933170 60.000000 35.956020
v -12.933170 65.000000 33.956020
v -12.933170 65.000000 35.956020
v -12.933170 70.000000 33.956020
v -12.933170 70.000000 35.956020
v -12.841962 2.498881 35.000000
v -12.841962 2.498881 38.693718
v -12.841962 57.489471 35.000000
v -12.841962 57.489471 38.693718
v -12.674351 -10.000000 33.990093
v -12.674351 -10.000000 35.921944
v -12.674351 -5.000000 33.990093
v -12.674351 -5.000000 35.921944
v -12.674351 0.000000 33.990093
v -12.674351 0.000000 35.921944
v -12.674351 60.000000 33.990093
v -12.674351 60.000000 35.921944
v -12.674351 65.000000 33.990093
v -12.674351 65.000000 35.921944
v -12.674351 70.000000 33.990093
v -12.674351 70.000000 35.921944
v -12.433170 -10.000000 34.089993
v -12.433170 -10.000000 35.822044
v -12.433170 -5.000000 34.089993
v -12.433170 -5.000000 35.822044
v -12.433170 0.000000 34.089993
v -12.433170 0.000000 35.822044
v -12.433170 60.000000 34.089993
v -12.433170 60.000000 35.822044
v -12.433170 65.000000 34.089993
v -12.433170 65.000000 35.822044
v -12.433170 70.000000 34.089993
v -12.433170 70.000000 35.822044
v -12.226064 -10.000000 34.248913
v -12.226064 -10.000000 35.663128
v -12.226064 -5.000000 34.248913
v -12.226064 -5.000000 35.663128
v -12.226064 0.000000 34.248913
v -12.226064 0.000000 35.663128
v -12.226064 60.000000 34.248913
v -12.226064 60.000000 35.663128
v -12.226064 65.000000 34.248913
v -12.226064 65.000000 35.663128
v -12.226064 70.000000 34.248913
v -12.226064 70.000000 35.663128
v -12.067144 -10.000000 34.456020
v -12.067144 -10.000000 35.456020
v -12.067144 -5.000000 34.456020
v -12.067144 -5.000000 35.456020
v -12.067144 0.000000 34.456020
v -12.067144 0.000000 35.456020
v -12.067144 60.000000 34.456020
v -12.067144 60.000000 35.456020
v -12.067144 65.000000 34.456020
v -12.067144 65.000000 35.456020
v -12.067144 70.000000 34.456020
v -12.067144 70.000000 35.456020
v -11.967244 -10.000000 34.697201
v -11.967244 -10.000000 35.214840
v -11.967244 -5.000000 34.697201
v -11.967244 -5.000000 35.214840
v -11.967244 0.000000 34.697201
v -11.967244 0.000000 35.214840
v -11.967244 60.000000 34.697201
v -11.967244 60.000000 35.214840
v -11.967244 65.000000 34.697201
v -11.967244 65.000000 35.214840
v -11.967244 70.000000 34.697201
v -11.967244 70.000000 35.214840
v -11.933170 -10.000000 34.956020
v -11.933170 -5.000000 34.956020
v -11.933170 0.000000 34.956020
v -11.933170 60.000000 34.956020
v -11.933170 65.000000 34.956020
v -11.933170 70.000000 34.956020
v -10.604729 0.000000 36.458855
v -10.604729 2.498881 36.458855
v -10.604729 57.489471 36.458855
v -10.604729 60.000000 36.458855
v -10.349154 0.000000 -0.042098
v -10.349154 5.000000 -0.042098
v -10.349154 55.000000 -0.042098
v -10.349154 60.000000 -0.042098
v -10.088966 5.000000 29.780733
v -10.088966 55.000000 29.780733
v -10.087431 0.000000 29.956760
v -10.087431 60.000000 29.956760
v -7.071067 0.000000 39.996258
v -7.071067 2.498881 39.996258
v -7.071067 57.489471 39.996258
v -7.071067 60.000000 39.996258
v -3.533662 0.000000 36.462597
v -3.533662 2.498881 36.462597
v -3.533662 57.489471 36.462597
v -3.533662 60.000000 36.462597
v 0.000000 0.000000 40.000000
v 0.000000 2.498881 40.000000
v 0.000000 57.489471 40.000000
v 0.000000 60.000000 40.000000
v 3.533662 0.000000 36.462597
v 3.533662 2.498881 36.462597
v 3.533662 57.489471 36.462597
v 3.533662 60.000000 36.462597
v 7.071067 0.000000 39.996258
v 7.071067 2.498881 39.996258
v 7.071067 57.489471 39.996258
v 7.071067 60.000000 39.996258
v 10.087431 0.000000 29.956760
v 10.087431 5.000000 29.956760
v 10.087431 55.000000 29.956760
v 10.087431 60.000000 29.956760
v 10.349154 0.000000 -0.042098
v 10.349154 5.000000 -0.042098
v 10.349154 55.000000 -0.042098
v 10.349154 60.000000 -0.042098
v 10.604729 0.000000 36.458855
v 10.604729 2.498881 36.458855
v 10.604729 57.489471 36.458855
v 10.604729 60.000000 36.458855
v 11.933170 -10.000000 34.956020
v 11.933170 -5.000000 34.956020
v 11.933170 0.000000 34.956020
v 11.933170 60.000000 34.956020
v 11.933170 65.000000 34.956020
v 11.933170 70.000000 34.956020
v 11.967244 -10.000000 34.697201
v 11.967244 -10.000000 35.214840
v 11.967244 -5.000000 34.697201
v 11.967244 -5.000000 35.214840
v 11.967244 0.000000 34.697201
v 11.967244 0.000000 35.214840
v 11.967244 60.000000 34.697201
v 11.967244 60.000000 35.214840
v 11.967244 65.000000 34.697201
v 11.967244 65.000000 35.214840
v 11.967244 70.000000 34.697201
v 11.967244 70.000000 35.214840
v 12.067144 -10.000000 34.456020
v 12.067144 -10.000000 35.456020
v 12.067144 -5.000000 34.456020
v 12.067144 -5.000000 35.456020
v 12.067144 0.000000 34.456020
v 12.067144 0.000000 35.456020
v 12.067144 60.000000 34.456020
v 12.067144 60.000000 35.456020
v 12.067144 65.000000 34.456020
v 12.067144 65.000000 35.456020
v 12.067144 70.000000 34.456020
v 12.067144 70.000000 35.456020
v 12.226064 -10.000000 34.248913
v 12.226064 -10.000000 35.663128
v 12.226064 -5.000000 34.248913
v 12.226064 -5.000000 35.663128
v 12.226064 0.000000 34.248913
v 12.226064 0.000000 35.663128
v 12.226064 60.000000 34.248913
v 12.226064 60.000000 35.663128
v 12.226064 65.000000 34.248913
v 12.226064 65.000000 35.663128
v 12.226064 70.000000 34.248913
v 12.226064 70.000000 35.663128
v 12.433170 -10.000000 34.089993
v 12.433170 -10.000000 35.822044
v 12.433170 -5.000000 34.089993
v 12.433170 -5.000000 35.822044
v 12.433170 0.000000 34.089993
v 12.433170 0.000000 35.822044
v 12.433170 60.000000 34.089993
v 12.433170 60.000000 35.822044
v 12.433170 65.000000 34.089993
v 12.433170 65.000000 35.822044
v 12.433170 70.000000 34.089993
v 12.433170 70.000000 35.822044
v 12.674351 -10.000000 33.990093
v 12.674351 -10.000000 35.921944
v 12.674351 -5.000000 33.990093
v 12.674351 -5.000000 35.921944
v 12.674351 0.000000 33.990093
v 12.674351 0.000000 35.921944
v 12.674351 60.000000 33.990093
v 12.674351 60.000000 35.921944
v 12.674351 65.000000 33.990093
v 12.674351 65.000000 35.921944
v 12.674351 70.000000 33.990093
v 12.674351 70.000000 35.921944
v 12.860172 2.498881 35.000000
v 12.860172 2.498881 38.711910
v 12.860172 57.489471 35.000000
v 12.860172 57.489471 38.711910
v 12.933170 -10.000000 33.956020
v 12.933170 -10.000000 35.956020
v 12.933170 -5.000000 33.956020
v 12.933170 -5.000000 35.956020
v 12.933170 0.000000 33.956020
v 12.933170 0.000000 35.956020
v 12.933170 60.000000 33.956020
v 12.933170 60.000000 35.956020
v 12.933170 65.000000 33.956020
v 12.933170 65.000000 35.956020
v 12.933170 70.000000 33.956020
v 12.933170 70.000000 35.956020
v 13.191989 -10.000000 33.990093
v 13.191989 -10.000000 35.921944
v 13.191989 -5.000000 33.990093
v 13.191989 -5.000000 35.921944
v 13.191989 0.000000 33.990093
v 13.191989 0.000000 35.921944
v 13.191989 60.000000 33.990093
v 13.191989 60.000000 35.921944
v 13.191989 65.000000 33.990093
v 13.191989 65.000000 35.921944
v 13.191989 70.000000 33.990093
v 13.191989 70.000000 35.921944
v 13.433170 -10.000000 34.089993
v 13.433170 -10.000000 35.822044
v 13.433170 -5.000000 34.089993
v 13.433170 -5.000000 35.822044
v 13.433170 0.000000 34.089993
v 13.433170 0.000000 35.822044
v 13.433170 60.000000 34.089993
v 13.433170 60.000000 35.822044
v 13.433170 65.000000 34.089993
v 13.433170 65.000000 35.822044
v 13.433170 70.000000 34.089993
v 13.433170 70.000000 35.822044
v 13.640277 -10.000000 34.248913
v 13.640277 -10.000000 35.663128
v 13.640277 -5.000000 34.248913
v 13.640277 -5.000000 35.663128
v 13.640277 0.000000 34.248913
v 13.640277 0.000000 35.663128
v 13.640277 60.000000 34.248913
v 13.640277 60.000000 35.663128
v 13.640277 65.000000 34.248913
v 13.640277 65.000000 35.663128
v 13.640277 70.000000 34.248913
v 13.640277 70.000000 35.663128
v 13.799195 -10.000000 34.456020
v 13.799195 -10.000000 35.456020
v 13.799195 -5.000000 34.456020
v 13.799195 -5.000000 35.456020
v 13.799195 0.000000 34.456020
v 13.799195 0.000000 35.456020
v 13.799195 60.000000 34.456020
v 13.799195 60.000000 35.456020
v 13.799195 65.000000 34.456020
v 13.799195 65.000000 35.456020
v 13.799195 70.000000 34.456020
v 13.799195 70.000000 35.456020
v 13.899096 -10.000000 34.697201
v 13.899096 -10.000000 35.214840
v 13.899096 -5.000000 34.697201
v 13.899096 -5.000000 35.214840
v 13.899096 0.000000 34.697201
v 13.899096 0.000000 35.214840
v 13.899096 60.000000 34.697201
v 13.899096 60.000000 35.214840
v 13.899096 65.000000 34.697201
v 13.899096 65.000000 35.214840
v 13.899096 70.000000 34.697201
v 13.899096 70.000000 35.214840
v 13.933170 -10.000000 34.956020
v 13.933170 -5.000000 34.956020
v 13.933170 0.000000 34.956020
v 13.933170 60.000000 34.956020
v 13.933170 65.000000 34.956020
v 13.933170 70.000000 34.956020
v 14.142134 0.000000 39.992516
v 14.142134 60.000000 39.992516
v 15.000000 0.000000 40.000000
v 15.000000 60.000000 40.000000
v 15.087241 5.000000 30.000381
v 15.087241 55.000000 30.000381
v 15.348963 0.000000 0.001522
v 15.348963 5.000000 0.001522
v 15.348963 55.000000 0.001522
v 15.348963 60.000000 0.001522
vn -0.000000 1.000000 0.000000
vn 0.000000 1.000000 -0.000000
vn 0.000000 1.000000 -0.000000
vn 0.000000 1.000000 0.000000
vn 0.000000 -1.000000 0.000000
vn 0.000000 -1.000000 0.000000
vn 0.008724 0.000000 -0.999962
vn 0.008724 0.000000 -0.999962
vn 0.008724 0.000000 -0.999962
vn 0.008724 0.000000 -0.999962
vn 0.000000 -1.000000 0.000000
vn 0.000000 -1.000000 -0.000000
vn -0.999962 -0.000000 -0.008724
vn -0.999962 0.000000 -0.008724
vn 0.008724 0.000000 -0.999962
vn 0.008724 0.000000 -0.999962
vn 0.999962 0.000000 0.008724
vn 0.999962 -0.000000 0.008724
vn 0.999962 0.000000 0.008724
vn 0.999962 -0.000000 0.008724
vn 0.999962 0.000000 0.008724
vn 0.999962 0.000000 0.008724
vn 0.999962 0.000000 -0.008724
vn 0.999962 -0.000000 -0.008724
vn 0.999962 0.000000 -0.008722
vn 0.999962 0.000000 -0.008722
vn 0.999962 0.000000 -0.008724
vn 0.999962 0.000000 -0.008724
vn -0.008724 0.000000 -0.999962
vn -0.008724 0.000000 -0.999962
vn -0.008724 -0.000000 -0.999962
vn -0.008724 0.000000 -0.999962
vn 1.000000 0.000000 0.000000
vn 1.000000 0.000000 0.000000
vn 0.000000 -1.000000 0.000000
vn 0.000000 -1.000000 -0.000000
vn 0.000000 -1.000000 0.000000
vn 0.000000 -1.000000 -0.000000
vn 0.000000 -1.000000 -0.000000
vn 0.000000 -1.000000 0.000000
vn 0.000000 -1.000000 0.000000
vn 0.000000 -1.000000 0.000000
vn 0.000000 -1.000000 0.000000
vn -1.000000 0.000000 0.000000
vn -1.000000 0.000000 0.000000
vn 0.000000 1.000000 0.000000
vn 0.000000 1.000000 0.000000
vn 0.000000 1.000000 0.000000
vn 0.000000 1.000000 0.000000
vn 0.000000 1.000000 0.000000
vn 0.000000 1.000000 0.000000
vn 0.000000 1.000000 0.000000
vn 0.000000 1.000000 0.000000
vn -0.000000 1.000000 0.000000
vn 0.000000 0.000000 1.000000
vn -0.000000 0.000000 1.000000
vn 0.706732 0.000000 0.707481
vn 0.706732 0.000001 0.707481
vn 0.706733 0.000000 0.707481
vn 0.706733 -0.000000 0.707481
vn 0.706732 -0.000001 0.707481
vn 0.706732 0.000000 0.707481
vn -0.707481 0.000000 0.706733
vn -0.707481 0.000000 0.706733
vn 0.706732 -0.000000 0.707481
vn 0.706732 0.000000 0.707481
vn -0.707481 0.000000 0.706733
vn -0.707481 0.000000 0.706733
vn 0.707481 -0.000000 0.706733
vn 0.707481 0.000000 0.706733
vn -0.706732 0.000000 0.707481
vn -0.706732 0.000000 0.707481
vn 0.707481 -0.000000 0.706733
vn 0.707481 0.000000 0.706733
vn 0.991445 0.000000 -0.130525
vn 0.991445 0.000000 -0.130525
vn 0.991445 -0.000000 0.130525
vn 0.991445 -0.000000 0.130525
vn 0.923879 -0.000000 0.382684
vn 0.923879 -0.000000 0.382684
vn 0.793353 -0.000000 0.608762
vn 0.793353 -0.000000 0.608762
vn 0.608757 -0.000000 0.793357
vn 0.608757 -0.000000 0.793357
vn 0.382680 -0.000000 0.923881
vn 0.382680 -0.000000 0.923881
vn 0.130535 -0.000000 0.991444
vn 0.130535 -0.000000 0.991444
vn -0.130536 0.000000 0.991444
vn -0.130536 0.000000 0.991444
vn -0.382679 0.000000 0.923881
vn -0.382679 0.000000 0.923881
vn -0.608757 0.000000 0.793357
vn -0.608757 0.000000 0.793357
vn -0.793355 0.000000 0.608759
vn -0.793355 0.000000 0.608759
vn -0.923878 0.000000 0.382687
vn -0.923878 0.000000 0.382687
vn -0.991445 0.000000 0.130525
vn -0.991445 0.000000 0.130525
vn -0.991445 0.000000 -0.130525
vn -0.991445 0.000000 -0.130525
vn -0.923878 0.000000 -0.382687
vn -0.923878 0.000000 -0.382687
vn -0.793355 0.000000 -0.608759
vn -0.793355 0.000000 -0.608759
vn -0.608766 0.000000 -0.793350
vn -0.608766 0.000000 -0.793350
vn -0.382679 0.000000 -0.923881
vn -0.382679 0.000000 -0.923881
vn -0.130522 0.000000 -0.991445
vn -0.130522 0.000000 -0.991445
vn 0.130521 0.000000 -0.991446
vn 0.130521 0.000000 -0.991446
vn 0.382680 0.000000 -0.923881
vn 0.382680 0.000000 -0.923881
vn 0.608766 0.000000 -0.793350
vn 0.608766 0.000000 -0.793350
vn 0.793353 0.000000 -0.608762
vn 0.793353 0.000000 -0.608762
vn 0.923879 0.000000 -0.382684
vn 0.923879 0.000000 -0.382684
vn 0.991445 0.000000 0.130525
vn 0.991445 0.000000 0.130525
vn 0.991445 0.000000 -0.130525
vn 0.991445 0.000000 -0.130525
vn 0.923879 0.000000 -0.382684
vn 0.923879 0.000000 -0.382684
vn 0.793353 0.000000 -0.608762
vn 0.793353 0.000000 -0.608762
vn 0.608766 0.000000 -0.793350
vn 0.608766 0.000000 -0.793350
vn 0.382680 0.000000 -0.923881
vn 0.382680 0.000000 -0.923881
vn 0.130521 0.000000 -0.991446
vn 0.130521 0.000000 -0.991446
vn -0.130522 -0.000000 -0.991445
vn -0.130522 -0.000000 -0.991445
vn -0.382679 -0.000000 -0.923881
vn -0.382679 -0.000000 -0.923881
vn -0.608766 -0.000000 -0.793350
vn -0.608766 -0.000000 -0.793350
vn -0.793355 -0.000000 -0.608759
vn -0.793355 -0.000000 -0.608759
vn -0.923878 -0.000000 -0.382687
vn -0.923878 -0.000000 -0.382687
vn -0.991445 -0.000000 -0.130525
vn -0.991445 -0.000000 -0.130525
vn -0.991445 0.000000 0.130525
vn -0.991445 0.000000 0.130525
vn -0.923878 0.000000 0.382687
vn -0.923878 0.000000 0.382687
vn -0.793355 0.000000 0.608759
vn -0.793355 0.000000 0.608759
vn -0.608757 0.000000 0.793357
vn -0.608757 0.000000 0.793357
vn -0.382679 0.000000 0.923881
vn -0.382679 0.000000 0.923881
vn -0.130536 0.000000 0.991444
vn -0.130536 0.000000 0.991444
vn 0.130535 0.000000 0.991444
vn 0.130535 0.000000 0.991444
vn 0.382680 0.000000 0.923881
vn 0.382680 0.000000 0.923881
vn 0.608757 0.000000 0.793357
vn 0.608757 0.000000 0.793357
vn 0.793353 0.000000 0.608762
vn 0.793353 0.000000 0.608762
vn 0.923879 0.000000 0.382684
vn 0.923879 0.000000 0.382684
vn 0.991445 0.000000 0.130525
vn 0.991445 0.000000 0.130525
vn 0.991445 0.000000 -0.130525
vn 0.991445 0.000000 -0.130525
vn 0.923879 0.000000 -0.382684
vn 0.923879 0.000000 -0.382684
vn 0.793353 0.000000 -0.608762
vn 0.793353 0.000000 -0.608762
vn 0.608766 0.000000 -0.793350
vn 0.608766 0.000000 -0.793350
vn 0.382680 0.000000 -0.923881
vn 0.382680 0.000000 -0.923881
vn 0.130521 0.000000 -0.991446
vn 0.130521 0.000000 -0.991446
vn -0.130522 -0.000000 -0.991445
vn -0.130522 -0.000000 -0.991445
vn -0.382679 -0.000000 -0.923881
vn -0.382679 -0.000000 -0.923881
vn -0.608766 -0.000000 -0.793350
vn -0.608766 -0.000000 -0.793350
vn -0.793355 -0.000000 -0.608759
vn -0.793355 -0.000000 -0.608759
vn -0.923878 -0.000000 -0.382687
vn -0.923878 -0.000000 -0.382687
vn -0.991445 -0.000000 -0.130525
vn -0.991445 -0.000000 -0.130525
vn -0.991445 0.000000 0.130525
vn -0.991445 0.000000 0.130525
vn -0.923878 0.000000 0.382687
vn -0.923878 0.000000 0.382687
vn -0.793355 0.000000 0.608759
vn -0.793355 0.000000 0.608759
vn -0.608757 0.000000 0.793357
vn -0.608757 0.000000 0.793357
vn -0.382679 0.000000 0.923881
vn -0.382679 0.000000 0.923881
vn -0.130536 0.000000 0.991444
vn -0.130536 0.000000 0.991444
vn 0.130535 0.000000 0.991444
vn 0.130535 0.000000 0.991444
vn 0.382680 0.000000 0.923881
vn 0.382680 0.000000 0.923881
vn 0.608757 0.000000 0.793357
vn 0.608757 0.000000 0.793357
vn 0.793353 0.000000 0.608762
vn 0.793353 0.000000 0.608762
vn 0.923879 0.000000 0.382684
vn 0.923879 0.000000 0.382684
vn 0.991445 0.000000 -0.130525
vn 0.991445 0.000000 -0.130525
vn 0.991445 -0.000000 0.130525
vn 0.991445 -0.000000 0.130525
vn 0.923879 -0.000000 0.382684
vn 0.923879 -0.000000 0.382684
vn 0.793353 -0.000000 0.608762
vn 0.793353 -0.000000 0.608762
vn 0.608757 -0.000000 0.793357
vn 0.608757 -0.000000 0.793357
vn 0.382680 -0.000000 0.923881
vn 0.382680 -0.000000 0.923881
vn 0.130535 -0.000000 0.991444
vn 0.130535 -0.000000 0.991444
vn -0.130536 0.000000 0.991444
vn -0.130536 0.000000 0.991444
vn -0.382679 0.000000 0.923881
vn -0.382679 0.000000 0.923881
vn -0.608757 0.000000 0.793357
vn -0.608757 0.000000 0.793357
vn -0.793355 0.000000 0.608759
vn -0.793355 0.000000 0.608759
vn -0.923878 0.000000 0.382687
vn -0.923878 0.000000 0.382687
vn -0.991445 0.000000 0.130525
vn -0.991445 0.000000 0.130525
vn -0.991445 0.000000 -0.130525
vn -0.991445 0.000000 -0.130525
vn -0.923878 0.000000 -0.382687
vn -0.923878 0.000000 -0.382687
vn -0.793355 0.000000 -0.608759
vn -0.793355 0.000000 -0.608759
vn -0.608766 0.000000 -0.793350
vn -0.608766 0.000000 -0.793350
vn -0.382679 0.000000 -0.923881
vn -0.382679 0.000000 -0.923881
vn -0.130522 0.000000 -0.991445
vn -0.130522 0.000000 -0.991445
vn 0.130521 0.000000 -0.991446
vn 0.130521 0.000000 -0.991446
vn 0.382680 0.000000 -0.923881
vn 0.382680 0.000000 -0.923881
vn 0.608766 0.000000 -0.793350
vn 0.608766 0.000000 -0.793350
vn 0.793353 0.000000 -0.608762
vn 0.793353 0.000000 -0.608762
vn 0.923879 0.000000 -0.382684
vn 0.923879 0.000000 -0.382684
vn 0.000000 1.000000 -0.000000
vn 0.000000 1.000000 0.000000
vn 0.000000 1.000000 0.000000
vn 0.000000 1.000000 0.000000
vn 0.000000 1.000000 0.000000
vn 0.000000 1.000000 0.000000
vn 0.000000 1.000000 0.000000
vn 0.000000 1.000000 0.000000
vn 0.000000 1.000000 0.000000
vn 0.000000 1.000000 0.000000
vn 0.000000 1.000000 0.000000
vn 0.000000 1.000000 0.000000
vn 0.000000 1.000000 0.000000
vn -0.000000 1.000000 0.000000
vn 0.000000 1.000000 0.000000
vn -0.000000 1.000000 0.000000
vn 0.000000 1.000000 0.000000
vn -0.000000 1.000000 0.000000
vn 0.000000 1.000000 0.000000
vn -0.000000 1.000000 0.000000
vn 0.000000 1.000000 0.000000
vn -0.000000 1.000000 0.000000
vn -0.000000 -1.000000 -0.000000
vn 0.000000 -1.000000 0.000000
vn -0.000000 -1.000000 0.000000
vn 0.000000 -1.000000 0.000000
vn -0.000000 -1.000000 0.000000
vn 0.000000 -1.000000 0.000000
vn -0.000000 -1.000000 0.000000
vn 0.000000 -1.000000 0.000000
vn -0.000000 -1.000000 0.000000
vn 0.000000 -1.000000 0.000000
vn -0.000000 -1.000000 0.000000
vn 0.000000 -1.000000 0.000000
vn -0.000000 -1.000000 0.000000
vn 0.000000 -1.000000 0.000000
vn 0.000000 -1.000000 0.000000
vn 0.000000 -1.000000 0.000000
vn 0.000000 -1.000000 0.000000
vn 0.000000 -1.000000 0.000000
vn 0.000000 -1.000000 0.000000
vn 0.000000 -1.000000 0.000000
vn 0.000000 -1.000000 0.000000
vn 0.000000 -1.000000 0.000000
vn -0.999962 0.000000 0.008724
vn -0.999962 -0.000000 0.008724
vn -0.999962 0.000000 0.008724
vn -0.999962 0.000000 0.008724
vn -0.999962 0.000000 0.008724
vn -0.999962 0.000000 0.008724
vn 0.008724 -0.000000 0.999962
vn 0.008724 0.000000 0.999962
vn -0.707481 0.000000 0.706733
vn -0.707481 0.000000 0.706733
vn 0.706732 0.000000 0.707481
vn 0.706732 0.000000 0.707481
vn -0.707481 0.000000 0.706733
vn -0.707481 0.000000 0.706733
vn -0.991445 0.000000 0.130525
vn -0.991445 0.000000 0.130525
vn -0.991445 0.000000 -0.130525
vn -0.991445 0.000000 -0.130525
vn -0.923879 0.000000 -0.382684
vn -0.923879 0.000000 -0.382684
vn -0.793353 0.000000 -0.608762
vn -0.793353 0.000000 -0.608762
vn -0.608766 0.000000 -0.793350
vn -0.608766 0.000000 -0.793350
vn -0.382680 0.000000 -0.923881
vn -0.382680 0.000000 -0.923881
vn -0.130521 0.000000 -0.991446
vn -0.130521 0.000000 -0.991446
vn 0.130522 0.000000 -0.991445
vn 0.130522 0.000000 -0.991445
vn 0.382679 0.000000 -0.923881
vn 0.382679 0.000000 -0.923881
vn 0.608766 0.000000 -0.793350
vn 0.608766 0.000000 -0.793350
vn 0.793355 0.000000 -0.608759
vn 0.793355 0.000000 -0.608759
vn 0.923878 0.000000 -0.382687
vn 0.923878 0.000000 -0.382687
vn 0.991445 0.000000 -0.130525
vn 0.991445 0.000000 -0.130525
vn 0.991445 -0.000000 0.130525
vn 0.991445 -0.000000 0.130525
vn 0.923878 -0.000000 0.382687
vn 0.923878 -0.000000 0.382687
vn 0.793355 -0.000000 0.608759
vn 0.793355 -0.000000 0.608759
vn 0.608757 -0.000000 0.793357
vn 0.608757 -0.000000 0.793357
vn 0.382679 -0.000000 0.923881
vn 0.382679 -0.000000 0.923881
vn 0.130536 -0.000000 0.991444
vn 0.130536 -0.000000 0.991444
vn -0.130535 0.000000 0.991444
vn -0.130535 0.000000 0.991444
vn -0.382680 0.000000 0.923881
vn -0.382680 0.000000 0.923881
vn -0.608757 0.000000 0.793357
vn -0.608757 0.000000 0.793357
vn -0.793353 0.000000 0.608762
vn -0.793353 0.000000 0.608762
vn -0.923879 0.000000 0.382684
vn -0.923879 0.000000 0.382684
vn -0.991445 -0.000000 -0.130525
vn -0.991445 -0.000000 -0.130525
vn -0.991445 0.000000 0.130525
vn -0.991445 0.000000 0.130525
vn -0.923879 0.000000 0.382684
vn -0.923879 0.000000 0.382684
vn -0.793353 0.000000 0.608762
vn -0.793353 0.000000 0.608762
vn -0.608757 0.000000 0.793357
vn -0.608757 0.000000 0.793357
vn -0.382680 0.000000 0.923881
vn -0.382680 0.000000 0.923881
vn -0.130535 0.000000 0.991444
vn -0.130535 0.000000 0.991444
vn 0.130536 0.000000 0.991444
vn 0.130536 0.000000 0.991444
vn 0.382679 0.000000 0.923881
vn 0.382679 0.000000 0.923881
vn 0.608757 0.000000 0.793357
vn 0.608757 0.000000 0.793357
vn 0.793355 0.000000 0.608759
vn 0.793355 0.000000 0.608759
vn 0.923878 0.000000 0.382687
vn 0.923878 0.000000 0.382687
vn 0.991445 0.000000 0.130525
vn 0.991445 0.000000 0.130525
vn 0.991445 0.000000 -0.130525
vn 0.991445 0.000000 -0.130525
vn 0.923878 0.000000 -0.382687
vn 0.923878 0.000000 -0.382687
vn 0.793355 0.000000 -0.608759
vn 0.793355 0.000000 -0.608759
vn 0.608766 0.000000 -0.793350
vn 0.608766 0.000000 -0.793350
vn 0.382679 0.000000 -0.923881
vn 0.382679 0.000000 -0.923881
vn 0.130522 0.000000 -0.991445
vn 0.130522 0.000000 -0.991445
vn -0.130521 -0.000000 -0.991446
vn -0.130521 -0.000000 -0.991446
vn -0.382680 -0.000000 -0.923881
vn -0.382680 -0.000000 -0.923881
vn -0.608766 -0.000000 -0.793350
vn -0.608766 -0.000000 -0.793350
vn -0.793353 -0.000000 -0.608762
vn -0.793353 -0.000000 -0.608762
vn -0.923879 -0.000000 -0.382684
vn -0.923879 -0.000000 -0.382684
vn -0.991445 -0.000000 -0.130525
vn -0.991445 -0.000000 -0.130525
vn -0.991445 0.000000 0.130525
vn -0.991445 0.000000 0.130525
vn -0.923879 0.000000 0.382684
vn -0.923879 0.000000 0.382684
vn -0.793353 0.000000 0.608762
vn -0.793353 0.000000 0.608762
vn -0.608757 0.000000 0.793357
vn -0.608757 0.000000 0.793357
vn -0.382680 0.000000 0.923881
vn -0.382680 0.000000 0.923881
vn -0.130535 0.000000 0.991444
vn -0.130535 0.000000 0.991444
vn 0.130536 0.000000 0.991444
vn 0.130536 0.000000 0.991444
vn 0.382679 0.000000 0.923881
vn 0.382679 0.000000 0.923881
vn 0.608757 0.000000 0.793357
vn 0.608757 0.000000 0.793357
vn 0.793355 0.000000 0.608759
vn 0.793355 0.000000 0.608759
vn 0.923878 0.000000 0.382687
vn 0.923878 0.000000 0.382687
vn 0.991445 0.000000 0.130525
vn 0.991445 0.000000 0.130525
vn 0.991445 0.000000 -0.130525
vn 0.991445 0.000000 -0.130525
vn 0.923878 0.000000 -0.382687
vn 0.923878 0.000000 -0.382687
vn 0.793355 0.000000 -0.608759
vn 0.793355 0.000000 -0.608759
vn 0.608766 0.000000 -0.793350
vn 0.608766 0.000000 -0.793350
vn 0.382679 0.000000 -0.923881
vn 0.382679 0.000000 -0.923881
vn 0.130522 0.000000 -0.991445
vn 0.130522 0.000000 -0.991445
vn -0.130521 -0.000000 -0.991446
vn -0.130521 -0.000000 -0.991446
vn -0.382680 -0.000000 -0.923881
vn -0.382680 -0.000000 -0.923881
vn -0.608766 -0.000000 -0.793350
vn -0.608766 -0.000000 -0.793350
vn -0.793353 -0.000000 -0.608762
vn -0.793353 -0.000000 -0.608762
vn -0.923879 -0.000000 -0.382684
vn -0.923879 -0.000000 -0.382684
vn -0.991445 0.000000 0.130525
vn -0.991445 0.000000 0.130525
vn -0.991445 0.000000 -0.130525
vn -0.991445 0.000000 -0.130525
vn -0.923879 0.000000 -0.382684
vn -0.923879 0.000000 -0.382684
vn -0.793353 0.000000 -0.608762
vn -0.793353 0.000000 -0.608762
vn -0.608766 0.000000 -0.793350
vn -0.608766 0.000000 -0.793350
vn -0.382680 0.000000 -0.923881
vn -0.382680 0.000000 -0.923881
vn -0.130521 0.000000 -0.991446
vn -0.130521 0.000000 -0.991446
vn 0.130522 0.000000 -0.991445
vn 0.130522 0.000000 -0.991445
vn 0.382679 0.000000 -0.923881
vn 0.382679 0.000000 -0.923881
vn 0.608766 0.000000 -0.793350
vn 0.608766 0.000000 -0.793350
vn 0.793355 0.000000 -0.608759
vn 0.793355 0.000000 -0.608759
vn 0.923878 0.000000 -0.382687
vn 0.923878 0.000000 -0.382687
vn 0.991445 0.000000 -0.130525
vn 0.991445 0.000000 -0.130525
vn 0.991445 -0.000000 0.130525
vn 0.991445 -0.000000 0.130525
vn 0.923878 -0.000000 0.382687
vn 0.923878 -0.000000 0.382687
vn 0.793355 -0.000000 0.608759
vn 0.793355 -0.000000 0.608759
vn 0.608757 -0.000000 0.793357
vn 0.608757 -0.000000 0.793357
vn 0.382679 -0.000000 0.923881
vn 0.382679 -0.000000 0.923881
vn 0.130536 -0.000000 0.991444
vn 0.130536 -0.000000 0.991444
vn -0.130535 0.000000 0.991444
vn -0.130535 0.000000 0.991444
vn -0.382680 0.000000 0.923881
vn -0.382680 0.000000 0.923881
vn -0.608757 0.000000 0.793357
vn -0.608757 0.000000 0.793357
vn -0.793353 0.000000 0.608762
vn -0.793353 0.000000 0.608762
vn -0.923879 0.000000 0.382684
vn -0.923879 0.000000 0.382684
vn -0.000000 1.000000 0.000000
vn 0.000000 1.000000 0.000000
vn -0.000000 1.000000 0.000000
vn 0.000000 1.000000 0.000000
vn -0.000000 1.000000 0.000000
vn 0.000000 1.000000 0.000000
vn -0.000000 1.000000 0.000000
vn 0.000000 1.000000 0.000000
vn -0.000000 1.000000 0.000000
vn 0.000000 1.000000 0.000000
vn -0.000000 1.000000 0.000000
vn 0.000000 1.000000 0.000000
vn -0.000000 1.000000 0.000000
vn 0.000000 1.000000 0.000000
vn 0.000000 1.000000 0.000000
vn 0.000000 1.000000 0.000000
vn 0.000000 1.000000 0.000000
vn 0.000000 1.000000 0.000000
vn 0.000000 1.000000 0.000000
vn 0.000000 1.000000 0.000000
vn 0.000000 1.000000 0.000000
vn 0.000000 1.000000 0.000000
vn 0.000000 -1.000000 0.000000
vn 0.000000 -1.000000 0.000000
vn 0.000000 -1.000000 0.000000
vn 0.000000 -1.000000 0.000000
vn 0.000000 -1.000000 0.000000
vn 0.000000 -1.000000 0.000000
vn 0.000000 -1.000000 0.000000
vn 0.000000 -1.000000 0.000000
vn 0.000000 -1.000000 0.000000
vn 0.000000 -1.000000 0.000000
vn 0.000000 -1.000000 0.000000
vn 0.000000 -1.000000 0.000000
vn 0.000000 -1.000000 0.000000
vn -0.000000 -1.000000 0.000000
vn 0.000000 -1.000000 0.000000
vn -0.000000 -1.000000 0.000000
vn 0.000000 -1.000000 0.000000
vn -0.000000 -1.000000 0.000000
vn 0.000000 -1.000000 0.000000
vn -0.000000 -1.000000 0.000000
vn 0.000000 -1.000000 0.000000
vn -0.000000 -1.000000 0.000000
vn -0.999962 0.000000 -0.008724
vn -0.999962 0.000000 -0.008724
vn 0.008724 0.000000 -0.999962
vn 0.008724 0.000000 -0.999962
vn -0.008724 0.000000 0.999962
vn -0.008724 0.000000 0.999962
vn -0.706732 0.000000 0.707481
vn -0.706732 0.000000 0.707481
vn -0.706732 0.000000 0.707481
vn -0.706732 0.000000 0.707481
vn -0.706732 -0.000000 0.707481
vn -0.706732 0.000000 0.707481
vn 0.707481 0.000000 0.706733
vn 0.707481 0.000000 0.706733
vn -0.706732 0.000000 0.707481
vn -0.706732 0.000000 0.707481
vn 0.707481 0.000000 0.706733
vn 0.707481 0.000000 0.706733
vn 0.000000 0.000000 -1.000000
vn -0.000000 0.000000 -1.000000
vn -0.000000 0.000000 -1.000000
vn 0.000000 0.000000 -1.000000
vn 0.000000 1.000000 0.000000
vn 0.000000 1.000000 0.000000
vn 0.000000 1.000000 0.000000
vn 0.000000 1.000000 -0.000000
vn 0.000000 1.000000 0.000000
vn 0.000000 1.000000 0.000000
vn 0.000000 1.000000 0.000000
vn 0.000000 1.000000 0.000000
vn 0.000000 1.000000 0.000000
vn 0.000000 1.000000 0.000000
vn 0.000000 1.000000 0.000000
vn 0.000000 1.000000 0.000000
vn 0.000000 1.000000 0.000000
vn 0.000000 1.000000 0.000000
vn 0.000000 1.000000 0.000000
vn 0.000000 1.000000 0.000000
vn 0.000000 1.000000 0.000000
vn 0.000000 1.000000 0.000000
vn 0.000000 1.000000 0.000000
vn 0.000000 1.000000 0.000000
vn 0.000000 1.000000 0.000000
vn 0.000000 1.000000 0.000000
vn 0.000000 1.000000 0.000000
vn 0.000000 1.000000 0.000000
vn 0.000000 1.000000 0.000000
vn -0.000000 1.000000 0.000000
vn 0.000000 1.000000 0.000000
vn 0.000000 1.000000 0.000000
vn 0.000000 1.000000 0.000000
vn 0.000000 1.000000 0.000000
vn 0.000000 1.000000 0.000000
vn 0.000000 1.000000 0.000000
vn 0.000000 1.000000 0.000000
vn 0.000000 1.000000 0.000000
vn 0.000000 1.000000 0.000000
vn 0.000000 1.000000 0.000000
vn 0.000000 1.000000 0.000000
vn -0.000000 1.000000 0.000000
vn 0.000000 1.000000 0.000000
vn 0.000000 1.000000 0.000000
vn -0.000000 1.000000 0.000000
vn 0.000000 1.000000 0.000000
vn 0.000000 1.000000 0.000000
vn 0.000000 1.000000 0.000000
vn 0.000000 1.000000 0.000000
vn 0.000000 1.000000 0.000000
vn 0.000000 1.000000 -0.000000
vn 0.000000 1.000000 0.000000
vn 0.000000 1.000000 0.000000
vn 0.000000 1.000000 0.000000
vn 0.000000 1.000000 0.000000
vn 0.000000 1.000000 -0.000000
vn 0.000000 1.000000 0.000000
vn 0.000000 1.000000 0.000000
vn 0.000000 1.000000 0.000000
vn 0.000000 1.000000 0.000000
vn 0.000000 1.000000 0.000000
vn 0.000000 1.000000 0.000000
vn 0.000000 1.000000 0.000000
vn 0.000000 1.000000 0.000000
vn 0.000000 1.000000 0.000000
vn 0.000000 1.000000 0.000000
vn 0.000000 1.000000 0.000000
vn 0.000000 1.000000 0.000000
vn 0.000000 1.000000 0.000000
vn -0.000000 1.000000 0.000000
vn 0.000000 1.000000 0.000000
vn 0.000000 -1.000000 0.000000
vn 0.000000 -1.000000 0.000000
vn 0.000000 -1.000000 -0.000000
vn 0.000000 -1.000000 0.000000
vn 0.000000 -1.000000 0.000000
vn 0.000000 -1.000000 -0.000000
vn 0.000000 -1.000000 0.000000
vn 0.000000 -1.000000 0.000000
vn -0.000000 -1.000000 -0.000000
vn 0.000000 -1.000000 0.000000
vn 0.000000 -1.000000 0.000000
vn -0.000000 -1.000000 0.000000
vn 0.000000 -1.000000 0.000000
vn 0.000000 -1.000000 0.000000
vn 0.000000 -1.000000 0.000000
vn 0.000000 -1.000000 0.000000
vn 0.000000 -1.000000 0.000000
vn 0.000000 -1.000000 0.000000
vn 0.000000 -1.000000 0.000000
vn 0.000000 -1.000000 0.000000
vn 0.000000 -1.000000 0.000000
vn 0.000000 -1.000000 0.000000
vn 0.000000 -1.000000 0.000000
vn 0.000000 -1.000000 0.000000
vn 0.000000 -1.000000 0.000000
vn 0.000000 -1.000000 0.000000
vn 0.000000 -1.000000 0.000000
vn 0.000000 -1.000000 0.000000
vn 0.000000 -1.000000 0.000000
vn 0.000000 -1.000000 0.000000
vn 0.000000 -1.000000 0.000000
vn 0.000000 -1.000000 0.000000
vn 0.000000 -1.000000 0.000000
vn 0.000000 -1.000000 0.000000
vn 0.000000 -1.000000 0.000000
vn 0.000000 -1.000000 0.000000
vn 0.000000 -1.000000 0.000000
vn 0.000000 -1.000000 0.000000
vn 0.000000 -1.000000 0.000000
vn 0.000000 -1.000000 0.000000
vn 0.000000 -1.000000 -0.000000
vn 0.000000 -1.000000 0.000000
vn 0.000000 -1.000000 0.000000
vn 0.000000 -1.000000 0.000000
vn 0.000000 -1.000000 0.000000
vn 0.000000 -1.000000 -0.000000
vn 0.000000 -1.000000 0.000000
vn 0.000000 -1.000000 0.000000
vn 0.000000 -1.000000 0.000000
vn 0.000000 -1.000000 0.000000
vn 0.000000 -1.000000 0.000000
vn 0.000000 -1.000000 0.000000
vn 0.000000 -1.000000 0.000000
vn 0.000000 -1.000000 0.000000
vn -0.000000 -1.000000 0.000000
vn 0.000000 -1.000000 0.000000
vn 0.000000 -1.000000 0.000000
vn 0.000000 -1.000000 0.000000
vn 0.000000 -1.000000 0.000000
vn 0.000000 -1.000000 -0.000000
vn 0.000000 -1.000000 0.000000
vn 0.000000 -1.000000 0.000000
vn 0.000000 -1.000000 0.000000
vn 0.000000 -1.000000 0.000000
vn 0.000000 -1.000000 0.000000
vn -0.000000 -1.000000 0.000000
vn 0.000000 -1.000000 0.000000
f 2//1 5//1 164//1
f 164//2 5//2 167//2
f 196//3 192//3 358//3
f 358//4 192//4 355//4
f 3//5 165//5 6//5
f 6//6 165//6 168//6
f 5//7 6//7 167//7
f 167//8 6//8 168//8
f 192//9 193//9 355//9
f 355//10 193//10 356//10
f 193//11 197//11 356//11
f 356//12 197//12 359//12
f 192//13 196//13 191//13
f 191//14 196//14 195//14
f 196//15 358//15 195//15
f 195//16 358//16 357//16
f 358//17 355//17 357//17
f 357//18 355//18 353//18
f 353//19 355//19 356//19
f 353//20 356//20 354//20
f 354//21 356//21 360//21
f 360//22 356//22 359//22
f 164//23 167//23 163//23
f 163//24 167//24 169//24
f 169//25 167//25 168//25
f 169//26 168//26 170//26
f 170//27 168//27 166//27
f 166//28 168//28 165//28
f 165//29 3//29 166//29
f 166//30 3//30 4//30
f 2//31 164//31 1//31
f 1//32 164//32 163//32
f 92//33 90//33 91//33
f 91//34 90//34 89//34
f 92//35 91//35 161//35
f 161//36 91//36 177//36
f 161//37 177//37 173//37
f 177//38 91//38 185//38
f 185//39 91//39 271//39
f 185//40 271//40 201//40
f 201//41 271//41 272//41
f 201//42 189//42 185//42
f 185//43 181//43 177//43
f 270//44 272//44 269//44
f 269//45 272//45 271//45
f 90//46 160//46 89//46
f 89//47 160//47 176//47
f 89//48 176//48 184//48
f 184//49 176//49 180//49
f 160//50 172//50 176//50
f 188//51 200//51 184//51
f 184//52 200//52 269//52
f 184//53 269//53 89//53
f 200//54 270//54 269//54
f 89//55 269//55 91//55
f 91//56 269//56 271//56
f 160//57 90//57 159//57
f 159//58 90//58 9//58
f 9//59 90//59 92//59
f 9//60 92//60 10//60
f 10//61 92//61 162//61
f 162//62 92//62 161//62
f 161//63 173//63 162//63
f 162//64 173//64 174//64
f 173//65 177//65 174//65
f 174//66 177//66 178//66
f 177//67 181//67 178//67
f 178//68 181//68 182//68
f 181//69 185//69 182//69
f 182//70 185//70 186//70
f 185//71 189//71 186//71
f 186//72 189//72 190//72
f 189//73 201//73 190//73
f 190//74 201//74 202//74
f 141//75 143//75 153//75
f 153//76 143//76 154//76
f 153//77 154//77 142//77
f 142//78 154//78 144//78
f 142//79 144//79 130//79
f 130//80 144//80 132//80
f 130//81 132//81 118//81
f 118//82 132//82 120//82
f 118//83 120//83 106//83
f 106//84 120//84 108//84
f 106//85 108//85 94//85
f 94//86 108//86 96//86
f 94//87 96//87 78//87
f 78//88 96//88 80//88
f 78//89 80//89 66//89
f 66//90 80//90 68//90
f 66//91 68//91 54//91
f 54//92 68//92 56//92
f 54//93 56//93 42//93
f 42//94 56//94 44//94
f 42//95 44//95 30//95
f 30//96 44//96 32//96
f 30//97 32//97 18//97
f 18//98 32//98 20//98
f 18//99 20//99 11//99
f 11//100 20//100 12//100
f 11//101 12//101 17//101
f 17//102 12//102 19//102
f 17//103 19//103 29//103
f 29//104 19//104 31//104
f 29//105 31//105 41//105
f 41//106 31//106 43//106
f 41//107 43//107 53//107
f 53//108 43//108 55//108
f 53//109 55//109 65//109
f 65//110 55//110 67//110
f 65//111 67//111 77//111
f 77//112 67//112 79//112
f 77//113 79//113 93//113
f 93//114 79//114 95//114
f 93//115 95//115 105//115
f 105//116 95//116 107//116
f 105//117 107//117 117//117
f 117//118 107//118 119//118
f 117//119 119//119 129//119
f 129//120 119//120 131//120
f 129//121 131//121 141//121
f 141//122 131//122 143//122
f 146//123 144//123 155//123
f 155//124 144//124 154//124
f 155//125 154//125 145//125
f 145//126 154//126 143//126
f 145//127 143//127 133//127
f 133//128 143//128 131//128
f 133//129 131//129 121//129
f 121//130 131//130 119//130
f 121//131 119//131 109//131
f 109//132 119//132 107//132
f 109//133 107//133 97//133
f 97//134 107//134 95//134
f 97//135 95//135 81//135
f 81//136 95//136 79//136
f 81//137 79//137 69//137
f 69//138 79//138 67//138
f 69//139 67//139 57//139
f 57//140 67//140 55//140
f 57//141 55//141 45//141
f 45//142 55//142 43//142
f 45//143 43//143 33//143
f 33//144 43//144 31//144
f 33//145 31//145 21//145
f 21//146 31//146 19//146
f 21//147 19//147 13//147
f 13//148 19//148 12//148
f 13//149 12//149 22//149
f 22//150 12//150 20//150
f 22//151 20//151 34//151
f 34//152 20//152 32//152
f 34//153 32//153 46//153
f 46//154 32//154 44//154
f 46//155 44//155 58//155
f 58//156 44//156 56//156
f 58//157 56//157 70//157
f 70//158 56//158 68//158
f 70//159 68//159 82//159
f 82//160 68//160 80//160
f 82//161 80//161 98//161
f 98//162 80//162 96//162
f 98//163 96//163 110//163
f 110//164 96//164 108//164
f 110//165 108//165 122//165
f 122//166 108//166 120//166
f 122//167 120//167 134//167
f 134//168 120//168 132//168
f 134//169 132//169 146//169
f 146//170 132//170 144//170
f 152//171 150//171 158//171
f 158//172 150//172 157//172
f 158//173 157//173 151//173
f 151//174 157//174 149//174
f 151//175 149//175 139//175
f 139//176 149//176 137//176
f 139//177 137//177 127//177
f 127//178 137//178 125//178
f 127//179 125//179 115//179
f 115//180 125//180 113//180
f 115//181 113//181 103//181
f 103//182 113//182 101//182
f 103//183 101//183 87//183
f 87//184 101//184 85//184
f 87//185 85//185 75//185
f 75//186 85//186 73//186
f 75//187 73//187 63//187
f 63//188 73//188 61//188
f 63//189 61//189 51//189
f 51//190 61//190 49//190
f 51//191 49//191 39//191
f 39//192 49//192 37//192
f 39//193 37//193 27//193
f 27//194 37//194 25//194
f 27//195 25//195 16//195
f 16//196 25//196 15//196
f 16//197 15//197 28//197
f 28//198 15//198 26//198
f 28//199 26//199 40//199
f 40//200 26//200 38//200
f 40//201 38//201 52//201
f 52//202 38//202 50//202
f 52//203 50//203 64//203
f 64//204 50//204 62//204
f 64//205 62//205 76//205
f 76//206 62//206 74//206
f 76//207 74//207 88//207
f 88//208 74//208 86//208
f 88//209 86//209 104//209
f 104//210 86//210 102//210
f 104//211 102//211 116//211
f 116//212 102//212 114//212
f 116//213 114//213 128//213
f 128//214 114//214 126//214
f 128//215 126//215 140//215
f 140//216 126//216 138//216
f 140//217 138//217 152//217
f 152//218 138//218 150//218
f 147//219 149//219 156//219
f 156//220 149//220 157//220
f 156//221 157//221 148//221
f 148//222 157//222 150//222
f 148//223 150//223 136//223
f 136//224 150//224 138//224
f 136//225 138//225 124//225
f 124//226 138//226 126//226
f 124//227 126//227 112//227
f 112//228 126//228 114//228
f 112//229 114//229 100//229
f 100//230 114//230 102//230
f 100//231 102//231 84//231
f 84//232 102//232 86//232
f 84//233 86//233 72//233
f 72//234 86//234 74//234
f 72//235 74//235 60//235
f 60//236 74//236 62//236
f 60//237 62//237 48//237
f 48//238 62//238 50//238
f 48//239 50//239 36//239
f 36//240 50//240 38//240
f 36//241 38//241 24//241
f 24//242 38//242 26//242
f 24//243 26//243 14//243
f 14//244 26//244 15//244
f 14//245 15//245 23//245
f 23//246 15//246 25//246
f 23//247 25//247 35//247
f 35//248 25//248 37//248
f 35//249 37//249 47//249
f 47//250 37//250 49//250
f 47//251 49//251 59//251
f 59//252 49//252 61//252
f 59//253 61//253 71//253
f 71//254 61//254 73//254
f 71//255 73//255 83//255
f 83//256 73//256 85//256
f 83//257 85//257 99//257
f 99//258 85//258 101//258
f 99//259 101//259 111//259
f 111//260 101//260 113//260
f 111//261 113//261 123//261
f 123//262 113//262 125//262
f 123//263 125//263 135//263
f 135//264 125//264 137//264
f 135//265 137//265 147//265
f 147//266 137//266 149//266
f 151//267 27//267 158//267
f 158//268 27//268 16//268
f 158//269 16//269 152//269
f 152//270 16//270 28//270
f 152//271 28//271 140//271
f 140//272 28//272 40//272
f 140//273 40//273 128//273
f 128//274 40//274 52//274
f 128//275 52//275 116//275
f 116//276 52//276 64//276
f 116//277 64//277 104//277
f 104//278 64//278 76//278
f 104//279 76//279 88//279
f 27//280 151//280 39//280
f 39//281 151//281 139//281
f 39//282 139//282 51//282
f 51//283 139//283 127//283
f 51//284 127//284 63//284
f 63//285 127//285 115//285
f 63//286 115//286 75//286
f 75//287 115//287 103//287
f 75//288 103//288 87//288
f 142//289 18//289 153//289
f 153//290 18//290 11//290
f 153//291 11//291 141//291
f 141//292 11//292 17//292
f 141//293 17//293 129//293
f 129//294 17//294 29//294
f 129//295 29//295 117//295
f 117//296 29//296 41//296
f 117//297 41//297 105//297
f 105//298 41//298 53//298
f 105//299 53//299 93//299
f 93//300 53//300 65//300
f 93//301 65//301 77//301
f 18//302 142//302 30//302
f 30//303 142//303 130//303
f 30//304 130//304 42//304
f 42//305 130//305 118//305
f 42//306 118//306 54//306
f 54//307 118//307 106//307
f 54//308 106//308 66//308
f 66//309 106//309 94//309
f 66//310 94//310 78//310
f 2//311 1//311 5//311
f 5//312 1//312 7//312
f 5//313 7//313 6//313
f 6//314 7//314 8//314
f 6//315 8//315 4//315
f 4//316 3//316 6//316
f 7//317 9//317 8//317
f 8//318 9//318 10//318
f 172//319 160//319 171//319
f 171//320 160//320 159//320
f 176//321 172//321 175//321
f 175//322 172//322 171//322
f 180//323 176//323 179//323
f 179//324 176//324 175//324
f 210//325 212//325 203//325
f 203//326 212//326 204//326
f 203//327 204//327 209//327
f 209//328 204//328 211//328
f 209//329 211//329 221//329
f 221//330 211//330 223//330
f 221//331 223//331 233//331
f 233//332 223//332 235//332
f 233//333 235//333 245//333
f 245//334 235//334 247//334
f 245//335 247//335 257//335
f 257//336 247//336 259//336
f 257//337 259//337 273//337
f 273//338 259//338 275//338
f 273//339 275//339 285//339
f 285//340 275//340 287//340
f 285//341 287//341 297//341
f 297//342 287//342 299//342
f 297//343 299//343 309//343
f 309//344 299//344 311//344
f 309//345 311//345 321//345
f 321//346 311//346 323//346
f 321//347 323//347 333//347
f 333//348 323//348 335//348
f 333//349 335//349 345//349
f 345//350 335//350 346//350
f 345//351 346//351 334//351
f 334//352 346//352 336//352
f 334//353 336//353 322//353
f 322//354 336//354 324//354
f 322//355 324//355 310//355
f 310//356 324//356 312//356
f 310//357 312//357 298//357
f 298//358 312//358 300//358
f 298//359 300//359 286//359
f 286//360 300//360 288//360
f 286//361 288//361 274//361
f 274//362 288//362 276//362
f 274//363 276//363 258//363
f 258//364 276//364 260//364
f 258//365 260//365 246//365
f 246//366 260//366 248//366
f 246//367 248//367 234//367
f 234//368 248//368 236//368
f 234//369 236//369 222//369
f 222//370 236//370 224//370
f 222//371 224//371 210//371
f 210//372 224//372 212//372
f 213//373 211//373 205//373
f 205//374 211//374 204//374
f 205//375 204//375 214//375
f 214//376 204//376 212//376
f 214//377 212//377 226//377
f 226//378 212//378 224//378
f 226//379 224//379 238//379
f 238//380 224//380 236//380
f 238//381 236//381 250//381
f 250//382 236//382 248//382
f 250//383 248//383 262//383
f 262//384 248//384 260//384
f 262//385 260//385 278//385
f 278//386 260//386 276//386
f 278//387 276//387 290//387
f 290//388 276//388 288//388
f 290//389 288//389 302//389
f 302//390 288//390 300//390
f 302//391 300//391 314//391
f 314//392 300//392 312//392
f 314//393 312//393 326//393
f 326//394 312//394 324//394
f 326//395 324//395 338//395
f 338//396 324//396 336//396
f 338//397 336//397 347//397
f 347//398 336//398 346//398
f 347//399 346//399 337//399
f 337//400 346//400 335//400
f 337//401 335//401 325//401
f 325//402 335//402 323//402
f 325//403 323//403 313//403
f 313//404 323//404 311//404
f 313//405 311//405 301//405
f 301//406 311//406 299//406
f 301//407 299//407 289//407
f 289//408 299//408 287//408
f 289//409 287//409 277//409
f 277//410 287//410 275//410
f 277//411 275//411 261//411
f 261//412 275//412 259//412
f 261//413 259//413 249//413
f 249//414 259//414 247//414
f 249//415 247//415 237//415
f 237//416 247//416 235//416
f 237//417 235//417 225//417
f 225//418 235//418 223//418
f 225//419 223//419 213//419
f 213//420 223//420 211//420
f 219//421 217//421 208//421
f 208//422 217//422 207//422
f 208//423 207//423 220//423
f 220//424 207//424 218//424
f 220//425 218//425 232//425
f 232//426 218//426 230//426
f 232//427 230//427 244//427
f 244//428 230//428 242//428
f 244//429 242//429 256//429
f 256//430 242//430 254//430
f 256//431 254//431 268//431
f 268//432 254//432 266//432
f 268//433 266//433 284//433
f 284//434 266//434 282//434
f 284//435 282//435 296//435
f 296//436 282//436 294//436
f 296//437 294//437 308//437
f 308//438 294//438 306//438
f 308//439 306//439 320//439
f 320//440 306//440 318//440
f 320//441 318//441 332//441
f 332//442 318//442 330//442
f 332//443 330//443 344//443
f 344//444 330//444 342//444
f 344//445 342//445 350//445
f 350//446 342//446 349//446
f 350//447 349//447 343//447
f 343//448 349//448 341//448
f 343//449 341//449 331//449
f 331//450 341//450 329//450
f 331//451 329//451 319//451
f 319//452 329//452 317//452
f 319//453 317//453 307//453
f 307//454 317//454 305//454
f 307//455 305//455 295//455
f 295//456 305//456 293//456
f 295//457 293//457 283//457
f 283//458 293//458 281//458
f 283//459 281//459 267//459
f 267//460 281//460 265//460
f 267//461 265//461 255//461
f 255//462 265//462 253//462
f 255//463 253//463 243//463
f 243//464 253//464 241//464
f 243//465 241//465 231//465
f 231//466 241//466 229//466
f 231//467 229//467 219//467
f 219//468 229//468 217//468
f 216//469 218//469 206//469
f 206//470 218//470 207//470
f 206//471 207//471 215//471
f 215//472 207//472 217//472
f 215//473 217//473 227//473
f 227//474 217//474 229//474
f 227//475 229//475 239//475
f 239//476 229//476 241//476
f 239//477 241//477 251//477
f 251//478 241//478 253//478
f 251//479 253//479 263//479
f 263//480 253//480 265//480
f 263//481 265//481 279//481
f 279//482 265//482 281//482
f 279//483 281//483 291//483
f 291//484 281//484 293//484
f 291//485 293//485 303//485
f 303//486 293//486 305//486
f 303//487 305//487 315//487
f 315//488 305//488 317//488
f 315//489 317//489 327//489
f 327//490 317//490 329//490
f 327//491 329//491 339//491
f 339//492 329//492 341//492
f 339//493 341//493 348//493
f 348//494 341//494 349//494
f 348//495 349//495 340//495
f 340//496 349//496 342//496
f 340//497 342//497 328//497
f 328//498 342//498 330//498
f 328//499 330//499 316//499
f 316//500 330//500 318//500
f 316//501 318//501 304//501
f 304//502 318//502 306//502
f 304//503 306//503 292//503
f 292//504 306//504 294//504
f 292//505 294//505 280//505
f 280//506 294//506 282//506
f 280//507 282//507 264//507
f 264//508 282//508 266//508
f 264//509 266//509 252//509
f 252//510 266//510 254//510
f 252//511 254//511 240//511
f 240//512 254//512 242//512
f 240//513 242//513 228//513
f 228//514 242//514 230//514
f 228//515 230//515 216//515
f 216//516 230//516 218//516
f 220//517 344//517 208//517
f 208//518 344//518 350//518
f 208//519 350//519 219//519
f 219//520 350//520 343//520
f 219//521 343//521 231//521
f 231//522 343//522 331//522
f 231//523 331//523 243//523
f 243//524 331//524 319//524
f 243//525 319//525 255//525
f 255//526 319//526 307//526
f 255//527 307//527 267//527
f 267//528 307//528 295//528
f 267//529 295//529 283//529
f 344//530 220//530 332//530
f 332//531 220//531 232//531
f 332//532 232//532 320//532
f 320//533 232//533 244//533
f 320//534 244//534 308//534
f 308//535 244//535 256//535
f 308//536 256//536 296//536
f 296//537 256//537 268//537
f 296//538 268//538 284//538
f 209//539 333//539 203//539
f 203//540 333//540 345//540
f 203//541 345//541 210//541
f 210//542 345//542 334//542
f 210//543 334//543 222//543
f 222//544 334//544 322//544
f 222//545 322//545 234//545
f 234//546 322//546 310//546
f 234//547 310//547 246//547
f 246//548 310//548 298//548
f 246//549 298//549 258//549
f 258//550 298//550 286//550
f 258//551 286//551 274//551
f 333//552 209//552 321//552
f 321//553 209//553 221//553
f 321//554 221//554 309//554
f 309//555 221//555 233//555
f 309//556 233//556 297//556
f 297//557 233//557 245//557
f 297//558 245//558 285//558
f 285//559 245//559 257//559
f 285//560 257//560 273//560
f 197//561 193//561 198//561
f 198//562 193//562 194//562
f 359//563 197//563 360//563
f 360//564 197//564 198//564
f 351//565 353//565 352//565
f 352//566 353//566 354//566
f 200//567 199//567 270//567
f 270//568 199//568 351//568
f 270//569 351//569 272//569
f 272//570 351//570 352//570
f 272//571 352//571 202//571
f 202//572 201//572 272//572
f 200//573 188//573 199//573
f 199//574 188//574 187//574
f 188//575 184//575 187//575
f 187//576 184//576 183//576
f 184//577 180//577 183//577
f 183//578 180//578 179//578
f 191//579 169//579 192//579
f 192//580 169//580 193//580
f 193//581 169//581 170//581
f 193//582 170//582 194//582
f 147//583 156//583 162//583
f 162//584 156//584 148//584
f 162//585 148//585 136//585
f 136//586 124//586 162//586
f 162//587 124//587 112//587
f 162//588 112//588 100//588
f 162//589 100//589 10//589
f 10//590 100//590 84//590
f 10//591 84//591 72//591
f 72//592 60//592 10//592
f 10//593 60//593 48//593
f 10//594 48//594 8//594
f 8//595 48//595 36//595
f 8//596 36//596 24//596
f 24//597 14//597 8//597
f 8//598 14//598 23//598
f 8//599 23//599 4//599
f 4//600 23//600 35//600
f 4//601 35//601 47//601
f 4//602 47//602 170//602
f 170//603 47//603 59//603
f 170//604 59//604 71//604
f 71//605 83//605 170//605
f 170//606 83//606 99//606
f 170//607 99//607 111//607
f 111//608 123//608 170//608
f 170//609 123//609 135//609
f 170//610 135//610 147//610
f 170//611 147//611 162//611
f 216//612 206//612 202//612
f 202//613 206//613 215//613
f 202//614 215//614 194//614
f 194//615 215//615 227//615
f 194//616 227//616 239//616
f 239//617 251//617 194//617
f 194//618 251//618 263//618
f 194//619 263//619 279//619
f 279//620 291//620 194//620
f 194//621 291//621 303//621
f 194//622 303//622 315//622
f 194//623 315//623 360//623
f 360//624 315//624 327//624
f 360//625 327//625 339//625
f 360//626 339//626 354//626
f 354//627 339//627 348//627
f 354//628 348//628 340//628
f 340//629 328//629 354//629
f 354//630 328//630 316//630
f 354//631 316//631 352//631
f 352//632 316//632 304//632
f 352//633 304//633 292//633
f 292//634 280//634 352//634
f 352//635 280//635 264//635
f 352//636 264//636 202//636
f 202//637 264//637 252//637
f 202//638 252//638 240//638
f 240//639 228//639 202//639
f 202//640 228//640 216//640
f 202//641 194//641 186//641
f 186//642 194//642 170//642
f 186//643 170//643 178//643
f 178//644 170//644 162//644
f 178//645 162//645 174//645
f 170//646 166//646 4//646
f 178//647 182//647 186//647
f 186//648 190//648 202//648
f 360//649 198//649 194//649
f 146//650 155//650 159//650
f 159//651 155//651 145//651
f 159//652 145//652 169//652
f 169//653 145//653 133//653
f 169//654 133//654 121//654
f 121//655 109//655 169//655
f 169//656 109//656 97//656
f 169//657 97//657 81//657
f 81//658 69//658 169//658
f 169//659 69//659 57//659
f 169//660 57//660 45//660
f 169//661 45//661 1//661
f 1//662 45//662 33//662
f 1//663 33//663 21//663
f 1//664 21//664 7//664
f 7//665 21//665 13//665
f 7//666 13//666 22//666
f 22//667 34//667 7//667
f 7//668 34//668 46//668
f 7//669 46//669 9//669
f 9//670 46//670 58//670
f 9//671 58//671 70//671
f 70//672 82//672 9//672
f 9//673 82//673 98//673
f 9//674 98//674 159//674
f 159//675 98//675 110//675
f 159//676 110//676 122//676
f 122//677 134//677 159//677
f 159//678 134//678 146//678
f 213//679 205//679 199//679
f 199//680 205//680 214//680
f 199//681 214//681 226//681
f 226//682 238//682 199//682
f 199//683 238//683 250//683
f 199//684 250//684 262//684
f 199//685 262//685 351//685
f 351//686 262//686 278//686
f 351//687 278//687 290//687
f 290//688 302//688 351//688
f 351//689 302//689 314//689
f 351//690 314//690 353//690
f 353//691 314//691 326//691
f 353//692 326//692 338//692
f 338//693 347//693 353//693
f 353//694 347//694 337//694
f 353//695 337//695 357//695
f 357//696 337//696 325//696
f 357//697 325//697 313//697
f 357//698 313//698 191//698
f 191//699 313//699 301//699
f 191//700 301//700 289//700
f 289//701 277//701 191//701
f 191//702 277//702 261//702
f 191//703 261//703 249//703
f 249//704 237//704 191//704
f 191//705 237//705 225//705
f 191//706 225//706 213//706
f 191//707 213//707 199//707
f 159//708 169//708 175//708
f 175//709 169//709 191//709
f 175//710 191//710 183//710
f 183//711 191//711 199//711
f 183//712 199//712 187//712
f 191//713 195//713 357//713
f 183//714 179//714 175//714
f 175//715 171//715 159//715
f 1//716 163//716 169//716
