# VehiclesV3 BusDoorLeaf; centimetres; canonical Unreal XYZ, no adapter
o BusDoorLeaf
g LeafFrame
s off
v -26.000000 -3.500000 -95.000000
v 29.000000 -0.500000 -95.000000
v 26.000000 -3.500000 -95.000000
vt 0.000000 0.000000
vt 0.550818 0.000000
vt 0.519228 0.028322
vn 0.000000 0.000000 -1.000000
vn 0.000000 0.000000 -1.000000
vn 0.000000 0.000000 -1.000000
f 1/1/1 2/2/2 3/3/3
v -26.000000 -3.500000 95.000000
v 26.000000 -3.500000 95.000000
v 29.000000 -0.500000 95.000000
vt 0.000000 0.000000
vt 0.520000 0.000000
vt 0.550000 0.030000
vn 0.000000 0.000000 1.000000
vn 0.000000 0.000000 1.000000
vn 0.000000 0.000000 1.000000
f 4/4/4 5/5/5 6/6/6
v -26.000000 -3.500000 -95.000000
v 29.000000 0.500000 -95.000000
v 29.000000 -0.500000 -95.000000
vt 0.000000 0.000000
vt 0.551453 0.000000
vt 0.550727 0.009974
vn 0.000000 0.000000 -1.000000
vn 0.000000 0.000000 -1.000000
vn 0.000000 0.000000 -1.000000
f 7/7/7 8/8/8 9/9/9
v -26.000000 -3.500000 95.000000
v 29.000000 -0.500000 95.000000
v 29.000000 0.500000 95.000000
vt 0.000000 0.000000
vt 0.550818 0.000000
vt 0.551362 0.009985
vn 0.000000 0.000000 1.000000
vn 0.000000 0.000000 1.000000
vn 0.000000 0.000000 1.000000
f 10/10/10 11/11/11 12/12/12
v -26.000000 -3.500000 -95.000000
v 26.000000 3.500000 -95.000000
v 29.000000 0.500000 -95.000000
vt 0.000000 0.000000
vt 0.524690 0.000000
vt 0.550420 0.033734
vn 0.000000 0.000000 -1.000000
vn 0.000000 0.000000 -1.000000
vn 0.000000 0.000000 -1.000000
f 13/13/13 14/14/14 15/15/15
v -26.000000 -3.500000 95.000000
v 29.000000 0.500000 95.000000
v 26.000000 3.500000 95.000000
vt 0.000000 0.000000
vt 0.551453 0.000000
vt 0.523708 0.032097
vn 0.000000 0.000000 1.000000
vn 0.000000 0.000000 1.000000
vn 0.000000 0.000000 1.000000
f 16/16/16 17/17/17 18/18/18
v -26.000000 -3.500000 -95.000000
v -26.000000 3.500000 -95.000000
v 26.000000 3.500000 -95.000000
vt 0.000000 0.000000
vt 0.070000 0.000000
vt 0.070000 0.520000
vn 0.000000 0.000000 -1.000000
vn 0.000000 0.000000 -1.000000
vn 0.000000 0.000000 -1.000000
f 19/19/19 20/20/20 21/21/21
v -26.000000 -3.500000 95.000000
v 26.000000 3.500000 95.000000
v -26.000000 3.500000 95.000000
vt 0.000000 0.000000
vt 0.524690 0.000000
vt 0.009339 0.069374
vn 0.000000 0.000000 1.000000
vn 0.000000 0.000000 1.000000
vn 0.000000 0.000000 1.000000
f 22/22/22 23/23/23 24/24/24
v -26.000000 -3.500000 -95.000000
v -29.000000 0.500000 -95.000000
v -26.000000 3.500000 -95.000000
vt 0.000000 0.000000
vt 0.050000 0.000000
vt 0.056000 0.042000
vn 0.000000 0.000000 -1.000000
vn 0.000000 0.000000 -1.000000
vn 0.000000 0.000000 -1.000000
f 25/25/25 26/26/26 27/27/27
v -26.000000 -3.500000 95.000000
v -26.000000 3.500000 95.000000
v -29.000000 0.500000 95.000000
vt 0.000000 0.000000
vt 0.070000 0.000000
vt 0.040000 0.030000
vn 0.000000 -0.000000 1.000000
vn 0.000000 -0.000000 1.000000
vn 0.000000 -0.000000 1.000000
f 28/28/28 29/29/29 30/30/30
v -26.000000 -3.500000 -95.000000
v -29.000000 -0.500000 -95.000000
v -29.000000 0.500000 -95.000000
vt 0.000000 0.000000
vt 0.042426 0.000000
vt 0.049497 0.007071
vn 0.000000 0.000000 -1.000000
vn 0.000000 0.000000 -1.000000
vn 0.000000 0.000000 -1.000000
f 31/31/31 32/32/32 33/33/33
v -26.000000 -3.500000 95.000000
v -29.000000 0.500000 95.000000
v -29.000000 -0.500000 95.000000
vt 0.000000 0.000000
vt 0.050000 0.000000
vt 0.042000 0.006000
vn 0.000000 0.000000 1.000000
vn 0.000000 0.000000 1.000000
vn 0.000000 0.000000 1.000000
f 34/34/34 35/35/35 36/36/36
v -26.000000 -3.500000 -95.000000
v 26.000000 -3.500000 -95.000000
v 26.000000 -3.500000 95.000000
vt 0.000000 0.000000
vt 0.520000 0.000000
vt 0.520000 1.900000
vn 0.000000 -1.000000 0.000000
vn 0.000000 -1.000000 0.000000
vn 0.000000 -1.000000 0.000000
f 37/37/37 38/38/38 39/39/39
v -26.000000 -3.500000 -95.000000
v 26.000000 -3.500000 95.000000
v -26.000000 -3.500000 95.000000
vt 0.000000 0.000000
vt 1.969873 0.000000
vt 1.832605 0.501555
vn 0.000000 -1.000000 0.000000
vn 0.000000 -1.000000 0.000000
vn 0.000000 -1.000000 0.000000
f 40/40/40 41/41/41 42/42/42
v 26.000000 -3.500000 -95.000000
v 29.000000 -0.500000 -95.000000
v 29.000000 -0.500000 95.000000
vt 0.000000 0.000000
vt 0.042426 0.000000
vt 0.042426 1.900000
vn 0.707107 -0.707107 0.000000
vn 0.707107 -0.707107 0.000000
vn 0.707107 -0.707107 0.000000
f 43/43/43 44/44/44 45/45/45
v 26.000000 -3.500000 -95.000000
v 29.000000 -0.500000 95.000000
v 26.000000 -3.500000 95.000000
vt 0.000000 0.000000
vt 1.900474 0.000000
vt 1.899526 0.042416
vn 0.707107 -0.707107 0.000000
vn 0.707107 -0.707107 0.000000
vn 0.707107 -0.707107 0.000000
f 46/46/46 47/47/47 48/48/48
v 29.000000 -0.500000 -95.000000
v 29.000000 0.500000 -95.000000
v 29.000000 0.500000 95.000000
vt 0.000000 0.000000
vt 0.010000 0.000000
vt 0.010000 1.900000
vn 1.000000 0.000000 0.000000
vn 1.000000 0.000000 0.000000
vn 1.000000 0.000000 0.000000
f 49/49/49 50/50/50 51/51/51
v 29.000000 -0.500000 -95.000000
v 29.000000 0.500000 95.000000
v 29.000000 -0.500000 95.000000
vt 0.000000 0.000000
vt 1.900026 0.000000
vt 1.899974 0.010000
vn 1.000000 0.000000 0.000000
vn 1.000000 0.000000 0.000000
vn 1.000000 0.000000 0.000000
f 52/52/52 53/53/53 54/54/54
v 29.000000 0.500000 -95.000000
v 26.000000 3.500000 -95.000000
v 26.000000 3.500000 95.000000
vt 0.000000 0.000000
vt 0.042426 0.000000
vt 0.042426 1.900000
vn 0.707107 0.707107 0.000000
vn 0.707107 0.707107 0.000000
vn 0.707107 0.707107 0.000000
f 55/55/55 56/56/56 57/57/57
v 29.000000 0.500000 -95.000000
v 26.000000 3.500000 95.000000
v 29.000000 0.500000 95.000000
vt 0.000000 0.000000
vt 1.900474 0.000000
vt 1.899526 0.042416
vn 0.707107 0.707107 -0.000000
vn 0.707107 0.707107 -0.000000
vn 0.707107 0.707107 -0.000000
f 58/58/58 59/59/59 60/60/60
v 26.000000 3.500000 -95.000000
v -26.000000 3.500000 -95.000000
v -26.000000 3.500000 95.000000
vt 0.000000 0.000000
vt 0.520000 0.000000
vt 0.520000 1.900000
vn 0.000000 1.000000 0.000000
vn 0.000000 1.000000 0.000000
vn 0.000000 1.000000 0.000000
f 61/61/61 62/62/62 63/63/63
v 26.000000 3.500000 -95.000000
v -26.000000 3.500000 95.000000
v 26.000000 3.500000 95.000000
vt 0.000000 0.000000
vt 1.969873 0.000000
vt 1.832605 0.501555
vn 0.000000 1.000000 -0.000000
vn 0.000000 1.000000 -0.000000
vn 0.000000 1.000000 -0.000000
f 64/64/64 65/65/65 66/66/66
v -26.000000 3.500000 -95.000000
v -29.000000 0.500000 -95.000000
v -29.000000 0.500000 95.000000
vt 0.000000 0.000000
vt 0.042426 0.000000
vt 0.042426 1.900000
vn -0.707107 0.707107 0.000000
vn -0.707107 0.707107 0.000000
vn -0.707107 0.707107 0.000000
f 67/67/67 68/68/68 69/69/69
v -26.000000 3.500000 -95.000000
v -29.000000 0.500000 95.000000
v -26.000000 3.500000 95.000000
vt 0.000000 0.000000
vt 1.900474 0.000000
vt 1.899526 0.042416
vn -0.707107 0.707107 0.000000
vn -0.707107 0.707107 0.000000
vn -0.707107 0.707107 0.000000
f 70/70/70 71/71/71 72/72/72
v -29.000000 0.500000 -95.000000
v -29.000000 -0.500000 -95.000000
v -29.000000 -0.500000 95.000000
vt 0.000000 0.000000
vt 0.010000 0.000000
vt 0.010000 1.900000
vn -1.000000 0.000000 0.000000
vn -1.000000 0.000000 0.000000
vn -1.000000 0.000000 0.000000
f 73/73/73 74/74/74 75/75/75
v -29.000000 0.500000 -95.000000
v -29.000000 -0.500000 95.000000
v -29.000000 0.500000 95.000000
vt 0.000000 0.000000
vt 1.900026 0.000000
vt 1.899974 0.010000
vn -1.000000 0.000000 0.000000
vn -1.000000 0.000000 0.000000
vn -1.000000 0.000000 0.000000
f 76/76/76 77/77/77 78/78/78
v -29.000000 -0.500000 -95.000000
v -26.000000 -3.500000 -95.000000
v -26.000000 -3.500000 95.000000
vt 0.000000 0.000000
vt 0.042426 0.000000
vt 0.042426 1.900000
vn -0.707107 -0.707107 0.000000
vn -0.707107 -0.707107 0.000000
vn -0.707107 -0.707107 0.000000
f 79/79/79 80/80/80 81/81/81
v -29.000000 -0.500000 -95.000000
v -26.000000 -3.500000 95.000000
v -29.000000 -0.500000 95.000000
vt 0.000000 0.000000
vt 1.900474 0.000000
vt 1.899526 0.042416
vn -0.707107 -0.707107 0.000000
vn -0.707107 -0.707107 0.000000
vn -0.707107 -0.707107 0.000000
f 82/82/82 83/83/83 84/84/84
g LeafGlass
s off
v -21.000000 -4.500000 -54.000000
v 21.000000 4.500000 -54.000000
v 21.000000 -4.500000 -54.000000
vt 0.000000 0.000000
vt 0.429535 0.000000
vt 0.410677 0.088002
vn 0.000000 0.000000 -1.000000
vn 0.000000 0.000000 -1.000000
vn 0.000000 0.000000 -1.000000
f 85/85/85 86/86/86 87/87/87
v -21.000000 -4.500000 92.000000
v 21.000000 -4.500000 92.000000
v 21.000000 4.500000 92.000000
vt 0.000000 0.000000
vt 0.420000 0.000000
vt 0.420000 0.090000
vn 0.000000 0.000000 1.000000
vn 0.000000 0.000000 1.000000
vn 0.000000 0.000000 1.000000
f 88/88/88 89/89/89 90/90/90
v -21.000000 -4.500000 -54.000000
v -21.000000 4.500000 -54.000000
v 21.000000 4.500000 -54.000000
vt 0.000000 0.000000
vt 0.090000 0.000000
vt 0.090000 0.420000
vn 0.000000 0.000000 -1.000000
vn 0.000000 0.000000 -1.000000
vn 0.000000 0.000000 -1.000000
f 91/91/91 92/92/92 93/93/93
v -21.000000 -4.500000 92.000000
v 21.000000 4.500000 92.000000
v -21.000000 4.500000 92.000000
vt 0.000000 0.000000
vt 0.429535 0.000000
vt 0.018858 0.088002
vn 0.000000 0.000000 1.000000
vn 0.000000 0.000000 1.000000
vn 0.000000 0.000000 1.000000
f 94/94/94 95/95/95 96/96/96
v -21.000000 -4.500000 -54.000000
v 21.000000 -4.500000 -54.000000
v 21.000000 -4.500000 92.000000
vt 0.000000 0.000000
vt 0.420000 0.000000
vt 0.420000 1.460000
vn 0.000000 -1.000000 0.000000
vn 0.000000 -1.000000 0.000000
vn 0.000000 -1.000000 0.000000
f 97/97/97 98/98/98 99/99/99
v -21.000000 -4.500000 -54.000000
v 21.000000 -4.500000 92.000000
v -21.000000 -4.500000 92.000000
vt 0.000000 0.000000
vt 1.519210 0.000000
vt 1.403097 0.403631
vn 0.000000 -1.000000 0.000000
vn 0.000000 -1.000000 0.000000
vn 0.000000 -1.000000 0.000000
f 100/100/100 101/101/101 102/102/102
v 21.000000 -4.500000 -54.000000
v 21.000000 4.500000 -54.000000
v 21.000000 4.500000 92.000000
vt 0.000000 0.000000
vt 0.090000 0.000000
vt 0.090000 1.460000
vn 1.000000 0.000000 0.000000
vn 1.000000 0.000000 0.000000
vn 1.000000 0.000000 0.000000
f 103/103/103 104/104/104 105/105/105
v 21.000000 -4.500000 -54.000000
v 21.000000 4.500000 92.000000
v 21.000000 -4.500000 92.000000
vt 0.000000 0.000000
vt 1.462771 0.000000
vt 1.457234 0.089829
vn 1.000000 0.000000 0.000000
vn 1.000000 0.000000 0.000000
vn 1.000000 0.000000 0.000000
f 106/106/106 107/107/107 108/108/108
v 21.000000 4.500000 -54.000000
v -21.000000 4.500000 -54.000000
v -21.000000 4.500000 92.000000
vt 0.000000 0.000000
vt 0.420000 0.000000
vt 0.420000 1.460000
vn 0.000000 1.000000 0.000000
vn 0.000000 1.000000 0.000000
vn 0.000000 1.000000 0.000000
f 109/109/109 110/110/110 111/111/111
v 21.000000 4.500000 -54.000000
v -21.000000 4.500000 92.000000
v 21.000000 4.500000 92.000000
vt 0.000000 0.000000
vt 1.519210 0.000000
vt 1.403097 0.403631
vn 0.000000 1.000000 -0.000000
vn 0.000000 1.000000 -0.000000
vn 0.000000 1.000000 -0.000000
f 112/112/112 113/113/113 114/114/114
v -21.000000 4.500000 -54.000000
v -21.000000 -4.500000 -54.000000
v -21.000000 -4.500000 92.000000
vt 0.000000 0.000000
vt 0.090000 0.000000
vt 0.090000 1.460000
vn -1.000000 0.000000 0.000000
vn -1.000000 0.000000 0.000000
vn -1.000000 0.000000 0.000000
f 115/115/115 116/116/116 117/117/117
v -21.000000 4.500000 -54.000000
v -21.000000 -4.500000 92.000000
v -21.000000 4.500000 92.000000
vt 0.000000 0.000000
vt 1.462771 0.000000
vt 1.457234 0.089829
vn -1.000000 0.000000 0.000000
vn -1.000000 0.000000 0.000000
vn -1.000000 0.000000 0.000000
f 118/118/118 119/119/119 120/120/120
