# VehiclesV3 CarHatchback; centimetres; canonical Unreal XYZ, no adapter
o CarHatchback
g BodyFront
s off
v 140.500000 -87.500000 22.000000
v 140.500000 87.500000 96.000000
v 140.500000 87.500000 22.000000
vt 0.000000 0.000000
vt 1.900026 0.000000
vt 1.611820 0.681570
vn -1.000000 0.000000 0.000000
vn -1.000000 0.000000 0.000000
vn -1.000000 0.000000 0.000000
f 1/1/1 2/2/2 3/3/3
v 202.500000 -75.250000 26.000000
v 202.500000 75.250000 26.000000
v 202.500000 75.250000 90.000000
vt 0.000000 0.000000
vt 1.505000 0.000000
vt 1.505000 0.640000
vn 1.000000 0.000000 0.000000
vn 1.000000 0.000000 0.000000
vn 1.000000 0.000000 0.000000
f 4/4/4 5/5/5 6/6/6
v 140.500000 -87.500000 22.000000
v 140.500000 -87.500000 96.000000
v 140.500000 87.500000 96.000000
vt 0.000000 0.000000
vt 0.740000 0.000000
vt 0.740000 1.750000
vn -1.000000 0.000000 0.000000
vn -1.000000 0.000000 0.000000
vn -1.000000 0.000000 0.000000
f 7/7/7 8/8/8 9/9/9
v 202.500000 -75.250000 26.000000
v 202.500000 75.250000 90.000000
v 202.500000 -75.250000 90.000000
vt 0.000000 0.000000
vt 1.635428 0.000000
vt 0.250454 0.588959
vn 1.000000 0.000000 0.000000
vn 1.000000 0.000000 0.000000
vn 1.000000 0.000000 0.000000
f 10/10/10 11/11/11 12/12/12
v 140.500000 -87.500000 22.000000
v 140.500000 87.500000 22.000000
v 202.500000 75.250000 26.000000
vt 0.000000 0.000000
vt 1.750000 0.000000
vt 1.627500 0.621289
vn 0.064382 0.000000 -0.997925
vn 0.064382 0.000000 -0.997925
vn 0.064382 0.000000 -0.997925
f 13/13/13 14/14/14 15/15/15
v 140.500000 -87.500000 22.000000
v 202.500000 75.250000 26.000000
v 202.500000 -75.250000 26.000000
vt 0.000000 0.000000
vt 1.742055 0.000000
vt 0.336022 0.536745
vn 0.064382 0.000000 -0.997925
vn 0.064382 0.000000 -0.997925
vn 0.064382 0.000000 -0.997925
f 16/16/16 17/17/17 18/18/18
v 140.500000 87.500000 22.000000
v 140.500000 87.500000 96.000000
v 202.500000 75.250000 90.000000
vt 0.000000 0.000000
vt 0.740000 0.000000
vt 0.680000 0.631986
vn 0.193833 0.981034 -0.000000
vn 0.193833 0.981034 -0.000000
vn 0.193833 0.981034 -0.000000
f 19/19/19 20/20/20 21/21/21
v 140.500000 87.500000 22.000000
v 202.500000 75.250000 90.000000
v 202.500000 75.250000 26.000000
vt 0.000000 0.000000
vt 0.928335 0.000000
vt 0.459539 0.435695
vn 0.193833 0.981034 0.000000
vn 0.193833 0.981034 0.000000
vn 0.193833 0.981034 0.000000
f 22/22/22 23/23/23 24/24/24
v 140.500000 87.500000 96.000000
v 140.500000 -87.500000 96.000000
v 202.500000 -75.250000 90.000000
vt 0.000000 0.000000
vt 1.750000 0.000000
vt 1.627500 0.622896
vn 0.096324 0.000000 0.995350
vn 0.096324 0.000000 0.995350
vn 0.096324 0.000000 0.995350
f 25/25/25 26/26/26 27/27/27
v 140.500000 87.500000 96.000000
v 202.500000 -75.250000 90.000000
v 202.500000 75.250000 90.000000
vt 0.000000 0.000000
vt 1.742629 0.000000
vt 0.337059 0.537957
vn 0.096324 0.000000 0.995350
vn 0.096324 0.000000 0.995350
vn 0.096324 0.000000 0.995350
f 28/28/28 29/29/29 30/30/30
v 140.500000 -87.500000 96.000000
v 140.500000 -87.500000 22.000000
v 202.500000 -75.250000 26.000000
vt 0.000000 0.000000
vt 0.740000 0.000000
vt 0.700000 0.631986
vn 0.193833 -0.981034 0.000000
vn 0.193833 -0.981034 0.000000
vn 0.193833 -0.981034 0.000000
f 31/31/31 32/32/32 33/33/33
v 140.500000 -87.500000 96.000000
v 202.500000 -75.250000 26.000000
v 202.500000 -75.250000 90.000000
vt 0.000000 0.000000
vt 0.943083 0.000000
vt 0.468046 0.428882
vn 0.193833 -0.981034 0.000000
vn 0.193833 -0.981034 0.000000
vn 0.193833 -0.981034 0.000000
f 34/34/34 35/35/35 36/36/36
g BodyCentre
s off
v -150.500000 -87.500000 22.000000
v -150.500000 87.500000 96.000000
v -150.500000 87.500000 22.000000
vt 0.000000 0.000000
vt 1.900026 0.000000
vt 1.611820 0.681570
vn -1.000000 0.000000 0.000000
vn -1.000000 0.000000 0.000000
vn -1.000000 0.000000 0.000000
f 37/37/37 38/38/38 39/39/39
v 140.500000 -87.500000 22.000000
v 140.500000 87.500000 22.000000
v 140.500000 87.500000 96.000000
vt 0.000000 0.000000
vt 1.750000 0.000000
vt 1.750000 0.740000
vn 1.000000 0.000000 0.000000
vn 1.000000 0.000000 0.000000
vn 1.000000 0.000000 0.000000
f 40/40/40 41/41/41 42/42/42
v -150.500000 -87.500000 22.000000
v -150.500000 -87.500000 96.000000
v -150.500000 87.500000 96.000000
vt 0.000000 0.000000
vt 0.740000 0.000000
vt 0.740000 1.750000
vn -1.000000 0.000000 0.000000
vn -1.000000 0.000000 0.000000
vn -1.000000 0.000000 0.000000
f 43/43/43 44/44/44 45/45/45
v 140.500000 -87.500000 22.000000
v 140.500000 87.500000 96.000000
v 140.500000 -87.500000 96.000000
vt 0.000000 0.000000
vt 1.900026 0.000000
vt 0.288207 0.681570
vn 1.000000 0.000000 0.000000
vn 1.000000 0.000000 0.000000
vn 1.000000 0.000000 0.000000
f 46/46/46 47/47/47 48/48/48
v -150.500000 -87.500000 22.000000
v -150.500000 87.500000 22.000000
v 140.500000 87.500000 22.000000
vt 0.000000 0.000000
vt 1.750000 0.000000
vt 1.750000 2.910000
vn 0.000000 0.000000 -1.000000
vn 0.000000 0.000000 -1.000000
vn 0.000000 0.000000 -1.000000
f 49/49/49 50/50/50 51/51/51
v -150.500000 -87.500000 22.000000
v 140.500000 87.500000 22.000000
v 140.500000 -87.500000 22.000000
vt 0.000000 0.000000
vt 3.395674 0.000000
vt 2.493791 1.499702
vn 0.000000 0.000000 -1.000000
vn 0.000000 0.000000 -1.000000
vn 0.000000 0.000000 -1.000000
f 52/52/52 53/53/53 54/54/54
v -150.500000 87.500000 22.000000
v -150.500000 87.500000 96.000000
v 140.500000 87.500000 96.000000
vt 0.000000 0.000000
vt 0.740000 0.000000
vt 0.740000 2.910000
vn 0.000000 1.000000 0.000000
vn 0.000000 1.000000 0.000000
vn 0.000000 1.000000 0.000000
f 55/55/55 56/56/56 57/57/57
v -150.500000 87.500000 22.000000
v 140.500000 87.500000 96.000000
v 140.500000 87.500000 22.000000
vt 0.000000 0.000000
vt 3.002616 0.000000
vt 2.820241 0.717175
vn 0.000000 1.000000 0.000000
vn 0.000000 1.000000 0.000000
vn 0.000000 1.000000 0.000000
f 58/58/58 59/59/59 60/60/60
v -150.500000 87.500000 96.000000
v -150.500000 -87.500000 96.000000
v 140.500000 -87.500000 96.000000
vt 0.000000 0.000000
vt 1.750000 0.000000
vt 1.750000 2.910000
vn 0.000000 0.000000 1.000000
vn 0.000000 0.000000 1.000000
vn 0.000000 0.000000 1.000000
f 61/61/61 62/62/62 63/63/63
v -150.500000 87.500000 96.000000
v 140.500000 -87.500000 96.000000
v 140.500000 87.500000 96.000000
vt 0.000000 0.000000
vt 3.395674 0.000000
vt 2.493791 1.499702
vn -0.000000 0.000000 1.000000
vn -0.000000 0.000000 1.000000
vn -0.000000 0.000000 1.000000
f 64/64/64 65/65/65 66/66/66
v -150.500000 -87.500000 96.000000
v -150.500000 -87.500000 22.000000
v 140.500000 -87.500000 22.000000
vt 0.000000 0.000000
vt 0.740000 0.000000
vt 0.740000 2.910000
vn 0.000000 -1.000000 0.000000
vn 0.000000 -1.000000 0.000000
vn 0.000000 -1.000000 0.000000
f 67/67/67 68/68/68 69/69/69
v -150.500000 -87.500000 96.000000
v 140.500000 -87.500000 22.000000
v 140.500000 -87.500000 96.000000
vt 0.000000 0.000000
vt 3.002616 0.000000
vt 2.820241 0.717175
vn 0.000000 -1.000000 0.000000
vn 0.000000 -1.000000 0.000000
vn 0.000000 -1.000000 0.000000
f 70/70/70 71/71/71 72/72/72
g BodyRear
s off
v -202.500000 -75.250000 26.000000
v -202.500000 75.250000 90.000000
v -202.500000 75.250000 26.000000
vt 0.000000 0.000000
vt 1.635428 0.000000
vt 1.384974 0.588959
vn -1.000000 0.000000 0.000000
vn -1.000000 0.000000 0.000000
vn -1.000000 0.000000 0.000000
f 73/73/73 74/74/74 75/75/75
v -150.500000 -87.500000 22.000000
v -150.500000 87.500000 22.000000
v -150.500000 87.500000 96.000000
vt 0.000000 0.000000
vt 1.750000 0.000000
vt 1.750000 0.740000
vn 1.000000 0.000000 0.000000
vn 1.000000 0.000000 0.000000
vn 1.000000 0.000000 0.000000
f 76/76/76 77/77/77 78/78/78
v -202.500000 -75.250000 26.000000
v -202.500000 -75.250000 90.000000
v -202.500000 75.250000 90.000000
vt 0.000000 0.000000
vt 0.640000 0.000000
vt 0.640000 1.505000
vn -1.000000 0.000000 0.000000
vn -1.000000 0.000000 0.000000
vn -1.000000 0.000000 0.000000
f 79/79/79 80/80/80 81/81/81
v -150.500000 -87.500000 22.000000
v -150.500000 87.500000 96.000000
v -150.500000 -87.500000 96.000000
vt 0.000000 0.000000
vt 1.900026 0.000000
vt 0.288207 0.681570
vn 1.000000 0.000000 0.000000
vn 1.000000 0.000000 0.000000
vn 1.000000 0.000000 0.000000
f 82/82/82 83/83/83 84/84/84
v -202.500000 -75.250000 26.000000
v -202.500000 75.250000 26.000000
v -150.500000 87.500000 22.000000
vt 0.000000 0.000000
vt 1.505000 0.000000
vt 1.627500 0.521536
vn -0.076696 0.000000 -0.997054
vn -0.076696 0.000000 -0.997054
vn -0.076696 0.000000 -0.997054
f 85/85/85 86/86/86 87/87/87
v -202.500000 -75.250000 26.000000
v -150.500000 87.500000 22.000000
v -150.500000 -87.500000 22.000000
vt 0.000000 0.000000
vt 1.709022 0.000000
vt 0.042499 0.534041
vn -0.076696 0.000000 -0.997054
vn -0.076696 0.000000 -0.997054
vn -0.076696 0.000000 -0.997054
f 88/88/88 89/89/89 90/90/90
v -202.500000 75.250000 26.000000
v -202.500000 75.250000 90.000000
v -150.500000 87.500000 96.000000
vt 0.000000 0.000000
vt 0.640000 0.000000
vt 0.700000 0.534234
vn -0.229300 0.973356 0.000000
vn -0.229300 0.973356 0.000000
vn -0.229300 0.973356 0.000000
f 91/91/91 92/92/92 93/93/93
v -202.500000 75.250000 26.000000
v -150.500000 87.500000 96.000000
v -150.500000 87.500000 22.000000
vt 0.000000 0.000000
vt 0.880572 0.000000
vt 0.292317 0.448951
vn -0.229300 0.973356 0.000000
vn -0.229300 0.973356 0.000000
vn -0.229300 0.973356 0.000000
f 94/94/94 95/95/95 96/96/96
v -202.500000 75.250000 90.000000
v -202.500000 -75.250000 90.000000
v -150.500000 -87.500000 96.000000
vt 0.000000 0.000000
vt 1.505000 0.000000
vt 1.627500 0.523450
vn -0.114624 0.000000 0.993409
vn -0.114624 0.000000 0.993409
vn -0.114624 0.000000 0.993409
f 97/97/97 98/98/98 99/99/99
v -202.500000 75.250000 90.000000
v -150.500000 -87.500000 96.000000
v -150.500000 87.500000 96.000000
vt 0.000000 0.000000
vt 1.709607 0.000000
vt 0.043654 0.535818
vn -0.114624 0.000000 0.993409
vn -0.114624 0.000000 0.993409
vn -0.114624 0.000000 0.993409
f 100/100/100 101/101/101 102/102/102
v -202.500000 -75.250000 90.000000
v -202.500000 -75.250000 26.000000
v -150.500000 -87.500000 22.000000
vt 0.000000 0.000000
vt 0.640000 0.000000
vt 0.680000 0.534234
vn -0.229300 -0.973356 -0.000000
vn -0.229300 -0.973356 -0.000000
vn -0.229300 -0.973356 -0.000000
f 103/103/103 104/104/104 105/105/105
v -202.500000 -75.250000 90.000000
v -150.500000 -87.500000 22.000000
v -150.500000 -87.500000 96.000000
vt 0.000000 0.000000
vt 0.864758 0.000000
vt 0.282861 0.457161
vn -0.229300 -0.973356 0.000000
vn -0.229300 -0.973356 0.000000
vn -0.229300 -0.973356 0.000000
f 106/106/106 107/107/107 108/108/108
g CabinFront
s off
v 38.000000 -78.750000 96.000000
v 38.000000 78.750000 148.000000
v 38.000000 78.750000 96.000000
vt 0.000000 0.000000
vt 1.658621 0.000000
vt 1.495594 0.493784
vn -1.000000 0.000000 0.000000
vn -1.000000 0.000000 0.000000
vn -1.000000 0.000000 0.000000
f 109/109/109 110/110/110 111/111/111
v 68.000000 -67.725000 96.000000
v 68.000000 67.725000 96.000000
v 68.000000 56.700000 132.000000
vt 0.000000 0.000000
vt 1.354500 0.000000
vt 1.244250 0.360000
vn 1.000000 0.000000 0.000000
vn 1.000000 0.000000 0.000000
vn 1.000000 0.000000 0.000000
f 112/112/112 113/113/113 114/114/114
v 38.000000 -78.750000 96.000000
v 38.000000 -78.750000 148.000000
v 38.000000 78.750000 148.000000
vt 0.000000 0.000000
vt 0.520000 0.000000
vt 0.520000 1.575000
vn -1.000000 0.000000 0.000000
vn -1.000000 0.000000 0.000000
vn -1.000000 0.000000 0.000000
f 115/115/115 116/116/116 117/117/117
v 68.000000 -67.725000 96.000000
v 68.000000 56.700000 132.000000
v 68.000000 -56.700000 132.000000
vt 0.000000 0.000000
vt 1.295283 0.000000
vt 0.205962 0.315174
vn 1.000000 0.000000 0.000000
vn 1.000000 0.000000 0.000000
vn 1.000000 0.000000 0.000000
f 118/118/118 119/119/119 120/120/120
v 38.000000 -78.750000 96.000000
v 38.000000 78.750000 96.000000
v 68.000000 67.725000 96.000000
vt 0.000000 0.000000
vt 1.575000 0.000000
vt 1.464750 0.300000
vn 0.000000 0.000000 -1.000000
vn 0.000000 0.000000 -1.000000
vn 0.000000 0.000000 -1.000000
f 121/121/121 122/122/122 123/123/123
v 38.000000 -78.750000 96.000000
v 68.000000 67.725000 96.000000
v 68.000000 -67.725000 96.000000
vt 0.000000 0.000000
vt 1.495156 0.000000
vt 0.168202 0.271778
vn 0.000000 0.000000 -1.000000
vn 0.000000 0.000000 -1.000000
vn 0.000000 0.000000 -1.000000
f 124/124/124 125/125/125 126/126/126
v 38.000000 78.750000 96.000000
v 38.000000 78.750000 148.000000
v 68.000000 56.700000 132.000000
vt 0.000000 0.000000
vt 0.520000 0.000000
vt 0.360000 0.372317
vn 0.592237 0.805764 -0.000000
vn 0.592237 0.805764 -0.000000
vn 0.592237 0.805764 -0.000000
f 127/127/127 128/128/128 129/129/129
v 38.000000 78.750000 96.000000
v 68.000000 56.700000 132.000000
v 68.000000 67.725000 96.000000
vt 0.000000 0.000000
vt 0.517900 0.000000
vt 0.220719 0.231167
vn 0.331519 0.902093 0.276266
vn 0.331519 0.902093 0.276266
vn 0.331519 0.902093 0.276266
f 130/130/130 131/131/131 132/132/132
v 38.000000 78.750000 148.000000
v 38.000000 -78.750000 148.000000
v 68.000000 -56.700000 132.000000
vt 0.000000 0.000000
vt 1.575000 0.000000
vt 1.354500 0.340000
vn 0.470588 0.000000 0.882353
vn 0.470588 0.000000 0.882353
vn 0.470588 0.000000 0.882353
f 133/133/133 134/134/134 135/135/135
v 38.000000 78.750000 148.000000
v 68.000000 -56.700000 132.000000
v 68.000000 56.700000 132.000000
vt 0.000000 0.000000
vt 1.396521 0.000000
vt 0.296642 0.276086
vn 0.470588 0.000000 0.882353
vn 0.470588 0.000000 0.882353
vn 0.470588 0.000000 0.882353
f 136/136/136 137/137/137 138/138/138
v 38.000000 -78.750000 148.000000
v 38.000000 -78.750000 96.000000
v 68.000000 -67.725000 96.000000
vt 0.000000 0.000000
vt 0.520000 0.000000
vt 0.520000 0.319617
vn 0.344944 -0.938623 0.000000
vn 0.344944 -0.938623 0.000000
vn 0.344944 -0.938623 0.000000
f 139/139/139 140/140/140 141/141/141
v 38.000000 -78.750000 148.000000
v 68.000000 -67.725000 96.000000
v 68.000000 -56.700000 132.000000
vt 0.000000 0.000000
vt 0.610373 0.000000
vt 0.323589 0.243947
vn 0.651584 -0.725325 0.222131
vn 0.651584 -0.725325 0.222131
vn 0.651584 -0.725325 0.222131
f 142/142/142 143/143/143 144/144/144
g CabinCentre
s off
v -88.000000 -78.750000 96.000000
v -88.000000 78.750000 148.000000
v -88.000000 78.750000 96.000000
vt 0.000000 0.000000
vt 1.658621 0.000000
vt 1.495594 0.493784
vn -1.000000 0.000000 0.000000
vn -1.000000 0.000000 0.000000
vn -1.000000 0.000000 0.000000
f 145/145/145 146/146/146 147/147/147
v 38.000000 -78.750000 96.000000
v 38.000000 78.750000 96.000000
v 38.000000 78.750000 148.000000
vt 0.000000 0.000000
vt 1.575000 0.000000
vt 1.575000 0.520000
vn 1.000000 0.000000 0.000000
vn 1.000000 0.000000 0.000000
vn 1.000000 0.000000 0.000000
f 148/148/148 149/149/149 150/150/150
v -88.000000 -78.750000 96.000000
v -88.000000 -78.750000 148.000000
v -88.000000 78.750000 148.000000
vt 0.000000 0.000000
vt 0.520000 0.000000
vt 0.520000 1.575000
vn -1.000000 0.000000 0.000000
vn -1.000000 0.000000 0.000000
vn -1.000000 0.000000 0.000000
f 151/151/151 152/152/152 153/153/153
v 38.000000 -78.750000 96.000000
v 38.000000 78.750000 148.000000
v 38.000000 -78.750000 148.000000
vt 0.000000 0.000000
vt 1.658621 0.000000
vt 0.163027 0.493784
vn 1.000000 0.000000 0.000000
vn 1.000000 0.000000 0.000000
vn 1.000000 0.000000 0.000000
f 154/154/154 155/155/155 156/156/156
v -88.000000 -78.750000 96.000000
v -88.000000 78.750000 96.000000
v 38.000000 78.750000 96.000000
vt 0.000000 0.000000
vt 1.575000 0.000000
vt 1.575000 1.260000
vn 0.000000 0.000000 -1.000000
vn 0.000000 0.000000 -1.000000
vn 0.000000 0.000000 -1.000000
f 157/157/157 158/158/158 159/159/159
v -88.000000 -78.750000 96.000000
v 38.000000 78.750000 96.000000
v 38.000000 -78.750000 96.000000
vt 0.000000 0.000000
vt 2.016984 0.000000
vt 0.787116 0.983895
vn 0.000000 0.000000 -1.000000
vn 0.000000 0.000000 -1.000000
vn 0.000000 0.000000 -1.000000
f 160/160/160 161/161/161 162/162/162
v -88.000000 78.750000 96.000000
v -88.000000 78.750000 148.000000
v 38.000000 78.750000 148.000000
vt 0.000000 0.000000
vt 0.520000 0.000000
vt 0.520000 1.260000
vn 0.000000 1.000000 0.000000
vn 0.000000 1.000000 0.000000
vn 0.000000 1.000000 0.000000
f 163/163/163 164/164/164 165/165/165
v -88.000000 78.750000 96.000000
v 38.000000 78.750000 148.000000
v 38.000000 78.750000 96.000000
vt 0.000000 0.000000
vt 1.363085 0.000000
vt 1.164711 0.480674
vn 0.000000 1.000000 0.000000
vn 0.000000 1.000000 0.000000
vn 0.000000 1.000000 0.000000
f 166/166/166 167/167/167 168/168/168
v -88.000000 78.750000 148.000000
v -88.000000 -78.750000 148.000000
v 38.000000 -78.750000 148.000000
vt 0.000000 0.000000
vt 1.575000 0.000000
vt 1.575000 1.260000
vn 0.000000 0.000000 1.000000
vn 0.000000 0.000000 1.000000
vn 0.000000 0.000000 1.000000
f 169/169/169 170/170/170 171/171/171
v -88.000000 78.750000 148.000000
v 38.000000 -78.750000 148.000000
v 38.000000 78.750000 148.000000
vt 0.000000 0.000000
vt 2.016984 0.000000
vt 0.787116 0.983895
vn -0.000000 0.000000 1.000000
vn -0.000000 0.000000 1.000000
vn -0.000000 0.000000 1.000000
f 172/172/172 173/173/173 174/174/174
v -88.000000 -78.750000 148.000000
v -88.000000 -78.750000 96.000000
v 38.000000 -78.750000 96.000000
vt 0.000000 0.000000
vt 0.520000 0.000000
vt 0.520000 1.260000
vn 0.000000 -1.000000 0.000000
vn 0.000000 -1.000000 0.000000
vn 0.000000 -1.000000 0.000000
f 175/175/175 176/176/176 177/177/177
v -88.000000 -78.750000 148.000000
v 38.000000 -78.750000 96.000000
v 38.000000 -78.750000 148.000000
vt 0.000000 0.000000
vt 1.363085 0.000000
vt 1.164711 0.480674
vn 0.000000 -1.000000 0.000000
vn 0.000000 -1.000000 0.000000
vn 0.000000 -1.000000 0.000000
f 178/178/178 179/179/179 180/180/180
g CabinRear
s off
v -118.000000 -67.725000 96.000000
v -118.000000 56.700000 132.000000
v -118.000000 67.725000 96.000000
vt 0.000000 0.000000
vt 1.295283 0.000000
vt 1.301134 0.376458
vn -1.000000 0.000000 0.000000
vn -1.000000 0.000000 0.000000
vn -1.000000 0.000000 0.000000
f 181/181/181 182/182/182 183/183/183
v -88.000000 -78.750000 96.000000
v -88.000000 78.750000 96.000000
v -88.000000 78.750000 148.000000
vt 0.000000 0.000000
vt 1.575000 0.000000
vt 1.575000 0.520000
vn 1.000000 0.000000 0.000000
vn 1.000000 0.000000 0.000000
vn 1.000000 0.000000 0.000000
f 184/184/184 185/185/185 186/186/186
v -118.000000 -67.725000 96.000000
v -118.000000 -56.700000 132.000000
v -118.000000 56.700000 132.000000
vt 0.000000 0.000000
vt 0.376504 0.000000
vt 0.708568 1.084292
vn -1.000000 0.000000 0.000000
vn -1.000000 0.000000 0.000000
vn -1.000000 0.000000 0.000000
f 187/187/187 188/188/188 189/189/189
v -88.000000 -78.750000 96.000000
v -88.000000 78.750000 148.000000
v -88.000000 -78.750000 148.000000
vt 0.000000 0.000000
vt 1.658621 0.000000
vt 0.163027 0.493784
vn 1.000000 0.000000 0.000000
vn 1.000000 0.000000 0.000000
vn 1.000000 0.000000 0.000000
f 190/190/190 191/191/191 192/192/192
v -118.000000 -67.725000 96.000000
v -118.000000 67.725000 96.000000
v -88.000000 78.750000 96.000000
vt 0.000000 0.000000
vt 1.354500 0.000000
vt 1.464750 0.300000
vn 0.000000 0.000000 -1.000000
vn 0.000000 0.000000 -1.000000
vn 0.000000 0.000000 -1.000000
f 193/193/193 194/194/194 195/195/195
v -118.000000 -67.725000 96.000000
v -88.000000 78.750000 96.000000
v -88.000000 -78.750000 96.000000
vt 0.000000 0.000000
vt 1.495156 0.000000
vt -0.047814 0.316020
vn 0.000000 0.000000 -1.000000
vn 0.000000 0.000000 -1.000000
vn 0.000000 0.000000 -1.000000
f 196/196/196 197/197/197 198/198/198
v -118.000000 67.725000 96.000000
v -118.000000 56.700000 132.000000
v -88.000000 78.750000 148.000000
vt 0.000000 0.000000
vt 0.376504 0.000000
vt 0.464922 0.395477
vn -0.651584 0.725325 0.222131
vn -0.651584 0.725325 0.222131
vn -0.651584 0.725325 0.222131
f 199/199/199 200/200/200 201/201/201
v -118.000000 67.725000 96.000000
v -88.000000 78.750000 148.000000
v -88.000000 78.750000 96.000000
vt 0.000000 0.000000
vt 0.610373 0.000000
vt 0.167365 0.272294
vn -0.344944 0.938623 0.000000
vn -0.344944 0.938623 0.000000
vn -0.344944 0.938623 0.000000
f 202/202/202 203/203/203 204/204/204
v -118.000000 56.700000 132.000000
v -118.000000 -56.700000 132.000000
v -88.000000 -78.750000 148.000000
vt 0.000000 0.000000
vt 1.134000 0.000000
vt 1.354500 0.340000
vn -0.470588 0.000000 0.882353
vn -0.470588 0.000000 0.882353
vn -0.470588 0.000000 0.882353
f 205/205/205 206/206/206 207/207/207
v -118.000000 56.700000 132.000000
v -88.000000 -78.750000 148.000000
v -88.000000 78.750000 148.000000
vt 0.000000 0.000000
vt 1.396521 0.000000
vt -0.131088 0.383453
vn -0.470588 0.000000 0.882353
vn -0.470588 0.000000 0.882353
vn -0.470588 0.000000 0.882353
f 208/208/208 209/209/209 210/210/210
v -118.000000 -56.700000 132.000000
v -118.000000 -67.725000 96.000000
v -88.000000 -78.750000 96.000000
vt 0.000000 0.000000
vt 0.376504 0.000000
vt 0.408788 0.317982
vn -0.331519 -0.902093 0.276266
vn -0.331519 -0.902093 0.276266
vn -0.331519 -0.902093 0.276266
f 211/211/211 212/212/212 213/213/213
v -118.000000 -56.700000 132.000000
v -88.000000 -78.750000 96.000000
v -88.000000 -78.750000 148.000000
vt 0.000000 0.000000
vt 0.517900 0.000000
vt 0.156440 0.373827
vn -0.592237 -0.805764 0.000000
vn -0.592237 -0.805764 0.000000
vn -0.592237 -0.805764 0.000000
f 214/214/214 215/215/215 216/216/216
g Roof
s off
v -115.000000 -80.750000 147.500000
v 71.000000 -74.750000 147.500000
v 65.000000 -80.750000 147.500000
vt 0.000000 0.000000
vt 1.860967 0.000000
vt 1.799064 0.058034
vn 0.000000 0.000000 -1.000000
vn 0.000000 0.000000 -1.000000
vn 0.000000 0.000000 -1.000000
f 217/217/217 218/218/218 219/219/219
v -115.000000 -80.750000 152.500000
v 65.000000 -80.750000 152.500000
v 71.000000 -74.750000 152.500000
vt 0.000000 0.000000
vt 1.800000 0.000000
vt 1.860000 0.060000
vn 0.000000 0.000000 1.000000
vn 0.000000 0.000000 1.000000
vn 0.000000 0.000000 1.000000
f 220/220/220 221/221/221 222/222/222
v -115.000000 -80.750000 147.500000
v 71.000000 74.750000 147.500000
v 71.000000 -74.750000 147.500000
vt 0.000000 0.000000
vt 2.424381 0.000000
vt 1.465487 1.146973
vn 0.000000 0.000000 -1.000000
vn 0.000000 0.000000 -1.000000
vn 0.000000 0.000000 -1.000000
f 223/223/223 224/224/224 225/225/225
v -115.000000 -80.750000 152.500000
v 71.000000 -74.750000 152.500000
v 71.000000 74.750000 152.500000
vt 0.000000 0.000000
vt 1.860967 0.000000
vt 1.909168 1.494223
vn 0.000000 0.000000 1.000000
vn 0.000000 0.000000 1.000000
vn 0.000000 0.000000 1.000000
f 226/226/226 227/227/227 228/228/228
v -115.000000 -80.750000 147.500000
v 65.000000 80.750000 147.500000
v 71.000000 74.750000 147.500000
vt 0.000000 0.000000
vt 2.418310 0.000000
vt 2.422900 0.084729
vn 0.000000 0.000000 -1.000000
vn 0.000000 0.000000 -1.000000
vn 0.000000 0.000000 -1.000000
f 229/229/229 230/230/230 231/231/231
v -115.000000 -80.750000 152.500000
v 71.000000 74.750000 152.500000
v 65.000000 80.750000 152.500000
vt 0.000000 0.000000
vt 2.424381 0.000000
vt 2.416833 0.084516
vn 0.000000 0.000000 1.000000
vn 0.000000 0.000000 1.000000
vn 0.000000 0.000000 1.000000
f 232/232/232 233/233/233 234/234/234
v -115.000000 -80.750000 147.500000
v -115.000000 80.750000 147.500000
v 65.000000 80.750000 147.500000
vt 0.000000 0.000000
vt 1.615000 0.000000
vt 1.615000 1.800000
vn 0.000000 0.000000 -1.000000
vn 0.000000 0.000000 -1.000000
vn 0.000000 0.000000 -1.000000
f 235/235/235 236/236/236 237/237/237
v -115.000000 -80.750000 152.500000
v 65.000000 80.750000 152.500000
v -115.000000 80.750000 152.500000
vt 0.000000 0.000000
vt 2.418310 0.000000
vt 1.078532 1.202079
vn 0.000000 0.000000 1.000000
vn 0.000000 0.000000 1.000000
vn 0.000000 0.000000 1.000000
f 238/238/238 239/239/239 240/240/240
v -115.000000 -80.750000 147.500000
v -121.000000 74.750000 147.500000
v -115.000000 80.750000 147.500000
vt 0.000000 0.000000
vt 1.556157 0.000000
vt 1.613799 0.062269
vn 0.000000 0.000000 -1.000000
vn 0.000000 0.000000 -1.000000
vn 0.000000 0.000000 -1.000000
f 241/241/241 242/242/242 243/243/243
v -115.000000 -80.750000 152.500000
v -115.000000 80.750000 152.500000
v -121.000000 74.750000 152.500000
vt 0.000000 0.000000
vt 1.615000 0.000000
vt 1.555000 0.060000
vn 0.000000 -0.000000 1.000000
vn 0.000000 -0.000000 1.000000
vn 0.000000 -0.000000 1.000000
f 244/244/244 245/245/245 246/246/246
v -115.000000 -80.750000 147.500000
v -121.000000 -74.750000 147.500000
v -121.000000 74.750000 147.500000
vt 0.000000 0.000000
vt 0.084853 0.000000
vt 1.141977 1.057125
vn 0.000000 0.000000 -1.000000
vn 0.000000 0.000000 -1.000000
vn 0.000000 0.000000 -1.000000
f 247/247/247 248/248/248 249/249/249
v -115.000000 -80.750000 152.500000
v -121.000000 74.750000 152.500000
v -121.000000 -74.750000 152.500000
vt 0.000000 0.000000
vt 1.556157 0.000000
vt 0.062269 0.057642
vn 0.000000 0.000000 1.000000
vn 0.000000 0.000000 1.000000
vn 0.000000 0.000000 1.000000
f 250/250/250 251/251/251 252/252/252
v -115.000000 -80.750000 147.500000
v 65.000000 -80.750000 147.500000
v 65.000000 -80.750000 152.500000
vt 0.000000 0.000000
vt 1.800000 0.000000
vt 1.800000 0.050000
vn 0.000000 -1.000000 0.000000
vn 0.000000 -1.000000 0.000000
vn 0.000000 -1.000000 0.000000
f 253/253/253 254/254/254 255/255/255
v -115.000000 -80.750000 147.500000
v 65.000000 -80.750000 152.500000
v -115.000000 -80.750000 152.500000
vt 0.000000 0.000000
vt 1.800694 0.000000
vt 0.001388 0.049981
vn 0.000000 -1.000000 0.000000
vn 0.000000 -1.000000 0.000000
vn 0.000000 -1.000000 0.000000
f 256/256/256 257/257/257 258/258/258
v 65.000000 -80.750000 147.500000
v 71.000000 -74.750000 147.500000
v 71.000000 -74.750000 152.500000
vt 0.000000 0.000000
vt 0.084853 0.000000
vt 0.084853 0.050000
vn 0.707107 -0.707107 0.000000
vn 0.707107 -0.707107 0.000000
vn 0.707107 -0.707107 0.000000
f 259/259/259 260/260/260 261/261/261
v 65.000000 -80.750000 147.500000
v 71.000000 -74.750000 152.500000
v 65.000000 -80.750000 152.500000
vt 0.000000 0.000000
vt 0.098489 0.000000
vt 0.025384 0.043077
vn 0.707107 -0.707107 0.000000
vn 0.707107 -0.707107 0.000000
vn 0.707107 -0.707107 0.000000
f 262/262/262 263/263/263 264/264/264
v 71.000000 -74.750000 147.500000
v 71.000000 74.750000 147.500000
v 71.000000 74.750000 152.500000
vt 0.000000 0.000000
vt 1.495000 0.000000
vt 1.495000 0.050000
vn 1.000000 0.000000 0.000000
vn 1.000000 0.000000 0.000000
vn 1.000000 0.000000 0.000000
f 265/265/265 266/266/266 267/267/267
v 71.000000 -74.750000 147.500000
v 71.000000 74.750000 152.500000
v 71.000000 -74.750000 152.500000
vt 0.000000 0.000000
vt 1.495836 0.000000
vt 0.001671 0.049972
vn 1.000000 0.000000 0.000000
vn 1.000000 0.000000 0.000000
vn 1.000000 0.000000 0.000000
f 268/268/268 269/269/269 270/270/270
v 71.000000 74.750000 147.500000
v 65.000000 80.750000 147.500000
v 65.000000 80.750000 152.500000
vt 0.000000 0.000000
vt 0.084853 0.000000
vt 0.084853 0.050000
vn 0.707107 0.707107 0.000000
vn 0.707107 0.707107 0.000000
vn 0.707107 0.707107 0.000000
f 271/271/271 272/272/272 273/273/273
v 71.000000 74.750000 147.500000
v 65.000000 80.750000 152.500000
v 71.000000 74.750000 152.500000
vt 0.000000 0.000000
vt 0.098489 0.000000
vt 0.025384 0.043077
vn 0.707107 0.707107 -0.000000
vn 0.707107 0.707107 -0.000000
vn 0.707107 0.707107 -0.000000
f 274/274/274 275/275/275 276/276/276
v 65.000000 80.750000 147.500000
v -115.000000 80.750000 147.500000
v -115.000000 80.750000 152.500000
vt 0.000000 0.000000
vt 1.800000 0.000000
vt 1.800000 0.050000
vn 0.000000 1.000000 0.000000
vn 0.000000 1.000000 0.000000
vn 0.000000 1.000000 0.000000
f 277/277/277 278/278/278 279/279/279
v 65.000000 80.750000 147.500000
v -115.000000 80.750000 152.500000
v 65.000000 80.750000 152.500000
vt 0.000000 0.000000
vt 1.800694 0.000000
vt 0.001388 0.049981
vn 0.000000 1.000000 -0.000000
vn 0.000000 1.000000 -0.000000
vn 0.000000 1.000000 -0.000000
f 280/280/280 281/281/281 282/282/282
v -115.000000 80.750000 147.500000
v -121.000000 74.750000 147.500000
v -121.000000 74.750000 152.500000
vt 0.000000 0.000000
vt 0.084853 0.000000
vt 0.084853 0.050000
vn -0.707107 0.707107 0.000000
vn -0.707107 0.707107 0.000000
vn -0.707107 0.707107 0.000000
f 283/283/283 284/284/284 285/285/285
v -115.000000 80.750000 147.500000
v -121.000000 74.750000 152.500000
v -115.000000 80.750000 152.500000
vt 0.000000 0.000000
vt 0.098489 0.000000
vt 0.025384 0.043077
vn -0.707107 0.707107 0.000000
vn -0.707107 0.707107 0.000000
vn -0.707107 0.707107 0.000000
f 286/286/286 287/287/287 288/288/288
v -121.000000 74.750000 147.500000
v -121.000000 -74.750000 147.500000
v -121.000000 -74.750000 152.500000
vt 0.000000 0.000000
vt 1.495000 0.000000
vt 1.495000 0.050000
vn -1.000000 0.000000 0.000000
vn -1.000000 0.000000 0.000000
vn -1.000000 0.000000 0.000000
f 289/289/289 290/290/290 291/291/291
v -121.000000 74.750000 147.500000
v -121.000000 -74.750000 152.500000
v -121.000000 74.750000 152.500000
vt 0.000000 0.000000
vt 1.495836 0.000000
vt 0.001671 0.049972
vn -1.000000 0.000000 0.000000
vn -1.000000 0.000000 0.000000
vn -1.000000 0.000000 0.000000
f 292/292/292 293/293/293 294/294/294
v -121.000000 -74.750000 147.500000
v -115.000000 -80.750000 147.500000
v -115.000000 -80.750000 152.500000
vt 0.000000 0.000000
vt 0.084853 0.000000
vt 0.084853 0.050000
vn -0.707107 -0.707107 0.000000
vn -0.707107 -0.707107 0.000000
vn -0.707107 -0.707107 0.000000
f 295/295/295 296/296/296 297/297/297
v -121.000000 -74.750000 147.500000
v -115.000000 -80.750000 152.500000
v -121.000000 -74.750000 152.500000
vt 0.000000 0.000000
vt 0.098489 0.000000
vt 0.025384 0.043077
vn -0.707107 -0.707107 0.000000
vn -0.707107 -0.707107 0.000000
vn -0.707107 -0.707107 0.000000
f 298/298/298 299/299/299 300/300/300
g SillKerb
s off
v -145.800000 83.000000 23.000000
v 145.800000 88.000000 23.000000
v 145.800000 83.000000 23.000000
vt 0.000000 0.000000
vt 2.916429 0.000000
vt 2.915571 0.049993
vn 0.000000 0.000000 -1.000000
vn 0.000000 0.000000 -1.000000
vn 0.000000 0.000000 -1.000000
f 301/301/301 302/302/302 303/303/303
v -145.800000 83.000000 33.000000
v 145.800000 83.000000 33.000000
v 145.800000 88.000000 33.000000
vt 0.000000 0.000000
vt 2.916000 0.000000
vt 2.916000 0.050000
vn 0.000000 0.000000 1.000000
vn 0.000000 0.000000 1.000000
vn 0.000000 0.000000 1.000000
f 304/304/304 305/305/305 306/306/306
v -145.800000 83.000000 23.000000
v -145.800000 88.000000 23.000000
v 145.800000 88.000000 23.000000
vt 0.000000 0.000000
vt 0.050000 0.000000
vt 0.050000 2.916000
vn 0.000000 0.000000 -1.000000
vn 0.000000 0.000000 -1.000000
vn 0.000000 0.000000 -1.000000
f 307/307/307 308/308/308 309/309/309
v -145.800000 83.000000 33.000000
v 145.800000 88.000000 33.000000
v -145.800000 88.000000 33.000000
vt 0.000000 0.000000
vt 2.916429 0.000000
vt 0.000857 0.049993
vn 0.000000 0.000000 1.000000
vn 0.000000 0.000000 1.000000
vn 0.000000 0.000000 1.000000
f 310/310/310 311/311/311 312/312/312
v -145.800000 83.000000 23.000000
v 145.800000 83.000000 23.000000
v 145.800000 83.000000 33.000000
vt 0.000000 0.000000
vt 2.916000 0.000000
vt 2.916000 0.100000
vn 0.000000 -1.000000 0.000000
vn 0.000000 -1.000000 0.000000
vn 0.000000 -1.000000 0.000000
f 313/313/313 314/314/314 315/315/315
v -145.800000 83.000000 23.000000
v 145.800000 83.000000 33.000000
v -145.800000 83.000000 33.000000
vt 0.000000 0.000000
vt 2.917714 0.000000
vt 0.003427 0.099941
vn 0.000000 -1.000000 0.000000
vn 0.000000 -1.000000 0.000000
vn 0.000000 -1.000000 0.000000
f 316/316/316 317/317/317 318/318/318
v 145.800000 83.000000 23.000000
v 145.800000 88.000000 23.000000
v 145.800000 88.000000 33.000000
vt 0.000000 0.000000
vt 0.050000 0.000000
vt 0.050000 0.100000
vn 1.000000 0.000000 0.000000
vn 1.000000 0.000000 0.000000
vn 1.000000 0.000000 0.000000
f 319/319/319 320/320/320 321/321/321
v 145.800000 83.000000 23.000000
v 145.800000 88.000000 33.000000
v 145.800000 83.000000 33.000000
vt 0.000000 0.000000
vt 0.111803 0.000000
vt 0.089443 0.044721
vn 1.000000 0.000000 0.000000
vn 1.000000 0.000000 0.000000
vn 1.000000 0.000000 0.000000
f 322/322/322 323/323/323 324/324/324
v 145.800000 88.000000 23.000000
v -145.800000 88.000000 23.000000
v -145.800000 88.000000 33.000000
vt 0.000000 0.000000
vt 2.916000 0.000000
vt 2.916000 0.100000
vn 0.000000 1.000000 0.000000
vn 0.000000 1.000000 0.000000
vn 0.000000 1.000000 0.000000
f 325/325/325 326/326/326 327/327/327
v 145.800000 88.000000 23.000000
v -145.800000 88.000000 33.000000
v 145.800000 88.000000 33.000000
vt 0.000000 0.000000
vt 2.917714 0.000000
vt 0.003427 0.099941
vn 0.000000 1.000000 -0.000000
vn 0.000000 1.000000 -0.000000
vn 0.000000 1.000000 -0.000000
f 328/328/328 329/329/329 330/330/330
v -145.800000 88.000000 23.000000
v -145.800000 83.000000 23.000000
v -145.800000 83.000000 33.000000
vt 0.000000 0.000000
vt 0.050000 0.000000
vt 0.050000 0.100000
vn -1.000000 0.000000 0.000000
vn -1.000000 0.000000 0.000000
vn -1.000000 0.000000 0.000000
f 331/331/331 332/332/332 333/333/333
v -145.800000 88.000000 23.000000
v -145.800000 83.000000 33.000000
v -145.800000 88.000000 33.000000
vt 0.000000 0.000000
vt 0.111803 0.000000
vt 0.089443 0.044721
vn -1.000000 0.000000 0.000000
vn -1.000000 0.000000 0.000000
vn -1.000000 0.000000 0.000000
f 334/334/334 335/335/335 336/336/336
g SillRoad
s off
v -145.800000 -88.000000 23.000000
v 145.800000 -83.000000 23.000000
v 145.800000 -88.000000 23.000000
vt 0.000000 0.000000
vt 2.916429 0.000000
vt 2.915571 0.049993
vn 0.000000 0.000000 -1.000000
vn 0.000000 0.000000 -1.000000
vn 0.000000 0.000000 -1.000000
f 337/337/337 338/338/338 339/339/339
v -145.800000 -88.000000 33.000000
v 145.800000 -88.000000 33.000000
v 145.800000 -83.000000 33.000000
vt 0.000000 0.000000
vt 2.916000 0.000000
vt 2.916000 0.050000
vn 0.000000 0.000000 1.000000
vn 0.000000 0.000000 1.000000
vn 0.000000 0.000000 1.000000
f 340/340/340 341/341/341 342/342/342
v -145.800000 -88.000000 23.000000
v -145.800000 -83.000000 23.000000
v 145.800000 -83.000000 23.000000
vt 0.000000 0.000000
vt 0.050000 0.000000
vt 0.050000 2.916000
vn 0.000000 0.000000 -1.000000
vn 0.000000 0.000000 -1.000000
vn 0.000000 0.000000 -1.000000
f 343/343/343 344/344/344 345/345/345
v -145.800000 -88.000000 33.000000
v 145.800000 -83.000000 33.000000
v -145.800000 -83.000000 33.000000
vt 0.000000 0.000000
vt 2.916429 0.000000
vt 0.000857 0.049993
vn 0.000000 0.000000 1.000000
vn 0.000000 0.000000 1.000000
vn 0.000000 0.000000 1.000000
f 346/346/346 347/347/347 348/348/348
v -145.800000 -88.000000 23.000000
v 145.800000 -88.000000 23.000000
v 145.800000 -88.000000 33.000000
vt 0.000000 0.000000
vt 2.916000 0.000000
vt 2.916000 0.100000
vn 0.000000 -1.000000 0.000000
vn 0.000000 -1.000000 0.000000
vn 0.000000 -1.000000 0.000000
f 349/349/349 350/350/350 351/351/351
v -145.800000 -88.000000 23.000000
v 145.800000 -88.000000 33.000000
v -145.800000 -88.000000 33.000000
vt 0.000000 0.000000
vt 2.917714 0.000000
vt 0.003427 0.099941
vn 0.000000 -1.000000 0.000000
vn 0.000000 -1.000000 0.000000
vn 0.000000 -1.000000 0.000000
f 352/352/352 353/353/353 354/354/354
v 145.800000 -88.000000 23.000000
v 145.800000 -83.000000 23.000000
v 145.800000 -83.000000 33.000000
vt 0.000000 0.000000
vt 0.050000 0.000000
vt 0.050000 0.100000
vn 1.000000 0.000000 0.000000
vn 1.000000 0.000000 0.000000
vn 1.000000 0.000000 0.000000
f 355/355/355 356/356/356 357/357/357
v 145.800000 -88.000000 23.000000
v 145.800000 -83.000000 33.000000
v 145.800000 -88.000000 33.000000
vt 0.000000 0.000000
vt 0.111803 0.000000
vt 0.089443 0.044721
vn 1.000000 0.000000 0.000000
vn 1.000000 0.000000 0.000000
vn 1.000000 0.000000 0.000000
f 358/358/358 359/359/359 360/360/360
v 145.800000 -83.000000 23.000000
v -145.800000 -83.000000 23.000000
v -145.800000 -83.000000 33.000000
vt 0.000000 0.000000
vt 2.916000 0.000000
vt 2.916000 0.100000
vn 0.000000 1.000000 0.000000
vn 0.000000 1.000000 0.000000
vn 0.000000 1.000000 0.000000
f 361/361/361 362/362/362 363/363/363
v 145.800000 -83.000000 23.000000
v -145.800000 -83.000000 33.000000
v 145.800000 -83.000000 33.000000
vt 0.000000 0.000000
vt 2.917714 0.000000
vt 0.003427 0.099941
vn 0.000000 1.000000 -0.000000
vn 0.000000 1.000000 -0.000000
vn 0.000000 1.000000 -0.000000
f 364/364/364 365/365/365 366/366/366
v -145.800000 -83.000000 23.000000
v -145.800000 -88.000000 23.000000
v -145.800000 -88.000000 33.000000
vt 0.000000 0.000000
vt 0.050000 0.000000
vt 0.050000 0.100000
vn -1.000000 0.000000 0.000000
vn -1.000000 0.000000 0.000000
vn -1.000000 0.000000 0.000000
f 367/367/367 368/368/368 369/369/369
v -145.800000 -83.000000 23.000000
v -145.800000 -88.000000 33.000000
v -145.800000 -83.000000 33.000000
vt 0.000000 0.000000
vt 0.111803 0.000000
vt 0.089443 0.044721
vn -1.000000 0.000000 0.000000
vn -1.000000 0.000000 0.000000
vn -1.000000 0.000000 0.000000
f 370/370/370 371/371/371 372/372/372
g LampFront
s off
v 200.000000 -64.750000 74.000000
v 203.000000 -62.750000 74.000000
v 201.000000 -64.750000 74.000000
vt 0.000000 0.000000
vt 0.036056 0.000000
vt 0.008321 0.005547
vn 0.000000 0.000000 -1.000000
vn 0.000000 0.000000 -1.000000
vn 0.000000 0.000000 -1.000000
f 373/373/373 374/374/374 375/375/375
v 200.000000 -64.750000 86.000000
v 201.000000 -64.750000 86.000000
v 203.000000 -62.750000 86.000000
vt 0.000000 0.000000
vt 0.010000 0.000000
vt 0.030000 0.020000
vn 0.000000 0.000000 1.000000
vn 0.000000 0.000000 1.000000
vn 0.000000 0.000000 1.000000
f 376/376/376 377/377/377 378/378/378
v 200.000000 -64.750000 74.000000
v 203.000000 62.750000 74.000000
v 203.000000 -62.750000 74.000000
vt 0.000000 0.000000
vt 1.275353 0.000000
vt 0.020700 0.029521
vn 0.000000 0.000000 -1.000000
vn 0.000000 0.000000 -1.000000
vn 0.000000 0.000000 -1.000000
f 379/379/379 380/380/380 381/381/381
v 200.000000 -64.750000 86.000000
v 203.000000 -62.750000 86.000000
v 203.000000 62.750000 86.000000
vt 0.000000 0.000000
vt 0.036056 0.000000
vt 0.732204 1.044223
vn 0.000000 0.000000 1.000000
vn 0.000000 0.000000 1.000000
vn 0.000000 0.000000 1.000000
f 382/382/382 383/383/383 384/384/384
v 200.000000 -64.750000 74.000000
v 201.000000 64.750000 74.000000
v 203.000000 62.750000 74.000000
vt 0.000000 0.000000
vt 1.295039 0.000000
vt 1.275194 0.020154
vn 0.000000 0.000000 -1.000000
vn 0.000000 0.000000 -1.000000
vn 0.000000 0.000000 -1.000000
f 385/385/385 386/386/386 387/387/387
v 200.000000 -64.750000 86.000000
v 203.000000 62.750000 86.000000
v 201.000000 64.750000 86.000000
vt 0.000000 0.000000
vt 1.275353 0.000000
vt 1.294877 0.020465
vn 0.000000 0.000000 1.000000
vn 0.000000 0.000000 1.000000
vn 0.000000 0.000000 1.000000
f 388/388/388 389/389/389 390/390/390
v 200.000000 -64.750000 74.000000
v 200.000000 64.750000 74.000000
v 201.000000 64.750000 74.000000
vt 0.000000 0.000000
vt 1.295000 0.000000
vt 1.295000 0.010000
vn 0.000000 0.000000 -1.000000
vn 0.000000 0.000000 -1.000000
vn 0.000000 0.000000 -1.000000
f 391/391/391 392/392/392 393/393/393
v 200.000000 -64.750000 86.000000
v 201.000000 64.750000 86.000000
v 200.000000 64.750000 86.000000
vt 0.000000 0.000000
vt 1.295039 0.000000
vt 1.294961 0.010000
vn 0.000000 0.000000 1.000000
vn 0.000000 0.000000 1.000000
vn 0.000000 0.000000 1.000000
f 394/394/394 395/395/395 396/396/396
v 200.000000 -64.750000 74.000000
v 198.000000 62.750000 74.000000
v 200.000000 64.750000 74.000000
vt 0.000000 0.000000
vt 1.275157 0.000000
vt 1.294841 0.020311
vn 0.000000 0.000000 -1.000000
vn 0.000000 0.000000 -1.000000
vn 0.000000 0.000000 -1.000000
f 397/397/397 398/398/398 399/399/399
v 200.000000 -64.750000 86.000000
v 200.000000 64.750000 86.000000
v 198.000000 62.750000 86.000000
vt 0.000000 0.000000
vt 1.295000 0.000000
vt 1.275000 0.020000
vn 0.000000 -0.000000 1.000000
vn 0.000000 -0.000000 1.000000
vn 0.000000 -0.000000 1.000000
f 400/400/400 401/401/401 402/402/402
v 200.000000 -64.750000 74.000000
v 198.000000 -62.750000 74.000000
v 198.000000 62.750000 74.000000
vt 0.000000 0.000000
vt 0.028284 0.000000
vt 0.915703 0.887419
vn 0.000000 0.000000 -1.000000
vn 0.000000 0.000000 -1.000000
vn 0.000000 0.000000 -1.000000
f 403/403/403 404/404/404 405/405/405
v 200.000000 -64.750000 86.000000
v 198.000000 62.750000 86.000000
v 198.000000 -62.750000 86.000000
vt 0.000000 0.000000
vt 1.275157 0.000000
vt 0.020311 0.019684
vn 0.000000 0.000000 1.000000
vn 0.000000 0.000000 1.000000
vn 0.000000 0.000000 1.000000
f 406/406/406 407/407/407 408/408/408
v 200.000000 -64.750000 74.000000
v 201.000000 -64.750000 74.000000
v 201.000000 -64.750000 86.000000
vt 0.000000 0.000000
vt 0.010000 0.000000
vt 0.010000 0.120000
vn 0.000000 -1.000000 0.000000
vn 0.000000 -1.000000 0.000000
vn 0.000000 -1.000000 0.000000
f 409/409/409 410/410/410 411/411/411
v 200.000000 -64.750000 74.000000
v 201.000000 -64.750000 86.000000
v 200.000000 -64.750000 86.000000
vt 0.000000 0.000000
vt 0.120416 0.000000
vt 0.119585 0.009965
vn 0.000000 -1.000000 0.000000
vn 0.000000 -1.000000 0.000000
vn 0.000000 -1.000000 0.000000
f 412/412/412 413/413/413 414/414/414
v 201.000000 -64.750000 74.000000
v 203.000000 -62.750000 74.000000
v 203.000000 -62.750000 86.000000
vt 0.000000 0.000000
vt 0.028284 0.000000
vt 0.028284 0.120000
vn 0.707107 -0.707107 0.000000
vn 0.707107 -0.707107 0.000000
vn 0.707107 -0.707107 0.000000
f 415/415/415 416/416/416 417/417/417
v 201.000000 -64.750000 74.000000
v 203.000000 -62.750000 86.000000
v 201.000000 -64.750000 86.000000
vt 0.000000 0.000000
vt 0.123288 0.000000
vt 0.116799 0.027530
vn 0.707107 -0.707107 0.000000
vn 0.707107 -0.707107 0.000000
vn 0.707107 -0.707107 0.000000
f 418/418/418 419/419/419 420/420/420
v 203.000000 -62.750000 74.000000
v 203.000000 62.750000 74.000000
v 203.000000 62.750000 86.000000
vt 0.000000 0.000000
vt 1.255000 0.000000
vt 1.255000 0.120000
vn 1.000000 0.000000 0.000000
vn 1.000000 0.000000 0.000000
vn 1.000000 0.000000 0.000000
f 421/421/421 422/422/422 423/423/423
v 203.000000 -62.750000 74.000000
v 203.000000 62.750000 86.000000
v 203.000000 -62.750000 86.000000
vt 0.000000 0.000000
vt 1.260724 0.000000
vt 0.011422 0.119455
vn 1.000000 0.000000 0.000000
vn 1.000000 0.000000 0.000000
vn 1.000000 0.000000 0.000000
f 424/424/424 425/425/425 426/426/426
v 203.000000 62.750000 74.000000
v 201.000000 64.750000 74.000000
v 201.000000 64.750000 86.000000
vt 0.000000 0.000000
vt 0.028284 0.000000
vt 0.028284 0.120000
vn 0.707107 0.707107 0.000000
vn 0.707107 0.707107 0.000000
vn 0.707107 0.707107 0.000000
f 427/427/427 428/428/428 429/429/429
v 203.000000 62.750000 74.000000
v 201.000000 64.750000 86.000000
v 203.000000 62.750000 86.000000
vt 0.000000 0.000000
vt 0.123288 0.000000
vt 0.116799 0.027530
vn 0.707107 0.707107 -0.000000
vn 0.707107 0.707107 -0.000000
vn 0.707107 0.707107 -0.000000
f 430/430/430 431/431/431 432/432/432
v 201.000000 64.750000 74.000000
v 200.000000 64.750000 74.000000
v 200.000000 64.750000 86.000000
vt 0.000000 0.000000
vt 0.010000 0.000000
vt 0.010000 0.120000
vn 0.000000 1.000000 0.000000
vn 0.000000 1.000000 0.000000
vn 0.000000 1.000000 0.000000
f 433/433/433 434/434/434 435/435/435
v 201.000000 64.750000 74.000000
v 200.000000 64.750000 86.000000
v 201.000000 64.750000 86.000000
vt 0.000000 0.000000
vt 0.120416 0.000000
vt 0.119585 0.009965
vn 0.000000 1.000000 -0.000000
vn 0.000000 1.000000 -0.000000
vn 0.000000 1.000000 -0.000000
f 436/436/436 437/437/437 438/438/438
v 200.000000 64.750000 74.000000
v 198.000000 62.750000 74.000000
v 198.000000 62.750000 86.000000
vt 0.000000 0.000000
vt 0.028284 0.000000
vt 0.028284 0.120000
vn -0.707107 0.707107 0.000000
vn -0.707107 0.707107 0.000000
vn -0.707107 0.707107 0.000000
f 439/439/439 440/440/440 441/441/441
v 200.000000 64.750000 74.000000
v 198.000000 62.750000 86.000000
v 200.000000 64.750000 86.000000
vt 0.000000 0.000000
vt 0.123288 0.000000
vt 0.116799 0.027530
vn -0.707107 0.707107 0.000000
vn -0.707107 0.707107 0.000000
vn -0.707107 0.707107 0.000000
f 442/442/442 443/443/443 444/444/444
v 198.000000 62.750000 74.000000
v 198.000000 -62.750000 74.000000
v 198.000000 -62.750000 86.000000
vt 0.000000 0.000000
vt 1.255000 0.000000
vt 1.255000 0.120000
vn -1.000000 0.000000 0.000000
vn -1.000000 0.000000 0.000000
vn -1.000000 0.000000 0.000000
f 445/445/445 446/446/446 447/447/447
v 198.000000 62.750000 74.000000
v 198.000000 -62.750000 86.000000
v 198.000000 62.750000 86.000000
vt 0.000000 0.000000
vt 1.260724 0.000000
vt 0.011422 0.119455
vn -1.000000 0.000000 0.000000
vn -1.000000 0.000000 0.000000
vn -1.000000 0.000000 0.000000
f 448/448/448 449/449/449 450/450/450
v 198.000000 -62.750000 74.000000
v 200.000000 -64.750000 74.000000
v 200.000000 -64.750000 86.000000
vt 0.000000 0.000000
vt 0.028284 0.000000
vt 0.028284 0.120000
vn -0.707107 -0.707107 0.000000
vn -0.707107 -0.707107 0.000000
vn -0.707107 -0.707107 0.000000
f 451/451/451 452/452/452 453/453/453
v 198.000000 -62.750000 74.000000
v 200.000000 -64.750000 86.000000
v 198.000000 -62.750000 86.000000
vt 0.000000 0.000000
vt 0.123288 0.000000
vt 0.116799 0.027530
vn -0.707107 -0.707107 0.000000
vn -0.707107 -0.707107 0.000000
vn -0.707107 -0.707107 0.000000
f 454/454/454 455/455/455 456/456/456
g LampRear
s off
v -201.000000 -61.250000 76.500000
v -198.000000 -59.250000 76.500000
v -200.000000 -61.250000 76.500000
vt 0.000000 0.000000
vt 0.036056 0.000000
vt 0.008321 0.005547
vn 0.000000 0.000000 -1.000000
vn 0.000000 0.000000 -1.000000
vn 0.000000 0.000000 -1.000000
f 457/457/457 458/458/458 459/459/459
v -201.000000 -61.250000 87.500000
v -200.000000 -61.250000 87.500000
v -198.000000 -59.250000 87.500000
vt 0.000000 0.000000
vt 0.010000 0.000000
vt 0.030000 0.020000
vn 0.000000 0.000000 1.000000
vn 0.000000 0.000000 1.000000
vn 0.000000 0.000000 1.000000
f 460/460/460 461/461/461 462/462/462
v -201.000000 -61.250000 76.500000
v -198.000000 59.250000 76.500000
v -198.000000 -59.250000 76.500000
vt 0.000000 0.000000
vt 1.205373 0.000000
vt 0.020740 0.029493
vn 0.000000 0.000000 -1.000000
vn 0.000000 0.000000 -1.000000
vn 0.000000 0.000000 -1.000000
f 463/463/463 464/464/464 465/465/465
v -201.000000 -61.250000 87.500000
v -198.000000 -59.250000 87.500000
v -198.000000 59.250000 87.500000
vt 0.000000 0.000000
vt 0.036056 0.000000
vt 0.693375 0.985980
vn 0.000000 0.000000 1.000000
vn 0.000000 0.000000 1.000000
vn 0.000000 0.000000 1.000000
f 466/466/466 467/467/467 468/468/468
v -201.000000 -61.250000 76.500000
v -200.000000 61.250000 76.500000
v -198.000000 59.250000 76.500000
vt 0.000000 0.000000
vt 1.225041 0.000000
vt 1.205205 0.020163
vn 0.000000 0.000000 -1.000000
vn 0.000000 0.000000 -1.000000
vn 0.000000 0.000000 -1.000000
f 469/469/469 470/470/470 471/471/471
v -201.000000 -61.250000 87.500000
v -198.000000 59.250000 87.500000
v -200.000000 61.250000 87.500000
vt 0.000000 0.000000
vt 1.205373 0.000000
vt 1.224869 0.020492
vn 0.000000 0.000000 1.000000
vn 0.000000 0.000000 1.000000
vn 0.000000 0.000000 1.000000
f 472/472/472 473/473/473 474/474/474
v -201.000000 -61.250000 76.500000
v -201.000000 61.250000 76.500000
v -200.000000 61.250000 76.500000
vt 0.000000 0.000000
vt 1.225000 0.000000
vt 1.225000 0.010000
vn 0.000000 0.000000 -1.000000
vn 0.000000 0.000000 -1.000000
vn 0.000000 0.000000 -1.000000
f 475/475/475 476/476/476 477/477/477
v -201.000000 -61.250000 87.500000
v -200.000000 61.250000 87.500000
v -201.000000 61.250000 87.500000
vt 0.000000 0.000000
vt 1.225041 0.000000
vt 1.224959 0.010000
vn 0.000000 0.000000 1.000000
vn 0.000000 0.000000 1.000000
vn 0.000000 0.000000 1.000000
f 478/478/478 479/479/479 480/480/480
v -201.000000 -61.250000 76.500000
v -203.000000 59.250000 76.500000
v -201.000000 61.250000 76.500000
vt 0.000000 0.000000
vt 1.205166 0.000000
vt 1.224831 0.020329
vn 0.000000 0.000000 -1.000000
vn 0.000000 0.000000 -1.000000
vn 0.000000 0.000000 -1.000000
f 481/481/481 482/482/482 483/483/483
v -201.000000 -61.250000 87.500000
v -201.000000 61.250000 87.500000
v -203.000000 59.250000 87.500000
vt 0.000000 0.000000
vt 1.225000 0.000000
vt 1.205000 0.020000
vn 0.000000 -0.000000 1.000000
vn 0.000000 -0.000000 1.000000
vn 0.000000 -0.000000 1.000000
f 484/484/484 485/485/485 486/486/486
v -201.000000 -61.250000 76.500000
v -203.000000 -59.250000 76.500000
v -203.000000 59.250000 76.500000
vt 0.000000 0.000000
vt 0.028284 0.000000
vt 0.866206 0.837922
vn 0.000000 0.000000 -1.000000
vn 0.000000 0.000000 -1.000000
vn 0.000000 0.000000 -1.000000
f 487/487/487 488/488/488 489/489/489
v -201.000000 -61.250000 87.500000
v -203.000000 59.250000 87.500000
v -203.000000 -59.250000 87.500000
vt 0.000000 0.000000
vt 1.205166 0.000000
vt 0.020329 0.019665
vn 0.000000 0.000000 1.000000
vn 0.000000 0.000000 1.000000
vn 0.000000 0.000000 1.000000
f 490/490/490 491/491/491 492/492/492
v -201.000000 -61.250000 76.500000
v -200.000000 -61.250000 76.500000
v -200.000000 -61.250000 87.500000
vt 0.000000 0.000000
vt 0.010000 0.000000
vt 0.010000 0.110000
vn 0.000000 -1.000000 0.000000
vn 0.000000 -1.000000 0.000000
vn 0.000000 -1.000000 0.000000
f 493/493/493 494/494/494 495/495/495
v -201.000000 -61.250000 76.500000
v -200.000000 -61.250000 87.500000
v -201.000000 -61.250000 87.500000
vt 0.000000 0.000000
vt 0.110454 0.000000
vt 0.109548 0.009959
vn 0.000000 -1.000000 0.000000
vn 0.000000 -1.000000 0.000000
vn 0.000000 -1.000000 0.000000
f 496/496/496 497/497/497 498/498/498
v -200.000000 -61.250000 76.500000
v -198.000000 -59.250000 76.500000
v -198.000000 -59.250000 87.500000
vt 0.000000 0.000000
vt 0.028284 0.000000
vt 0.028284 0.110000
vn 0.707107 -0.707107 0.000000
vn 0.707107 -0.707107 0.000000
vn 0.707107 -0.707107 0.000000
f 499/499/499 500/500/500 501/501/501
v -200.000000 -61.250000 76.500000
v -198.000000 -59.250000 87.500000
v -200.000000 -61.250000 87.500000
vt 0.000000 0.000000
vt 0.113578 0.000000
vt 0.106535 0.027393
vn 0.707107 -0.707107 0.000000
vn 0.707107 -0.707107 0.000000
vn 0.707107 -0.707107 0.000000
f 502/502/502 503/503/503 504/504/504
v -198.000000 -59.250000 76.500000
v -198.000000 59.250000 76.500000
v -198.000000 59.250000 87.500000
vt 0.000000 0.000000
vt 1.185000 0.000000
vt 1.185000 0.110000
vn 1.000000 0.000000 0.000000
vn 1.000000 0.000000 0.000000
vn 1.000000 0.000000 0.000000
f 505/505/505 506/506/506 507/507/507
v -198.000000 -59.250000 76.500000
v -198.000000 59.250000 87.500000
v -198.000000 -59.250000 87.500000
vt 0.000000 0.000000
vt 1.190095 0.000000
vt 0.010167 0.109529
vn 1.000000 0.000000 0.000000
vn 1.000000 0.000000 0.000000
vn 1.000000 0.000000 0.000000
f 508/508/508 509/509/509 510/510/510
v -198.000000 59.250000 76.500000
v -200.000000 61.250000 76.500000
v -200.000000 61.250000 87.500000
vt 0.000000 0.000000
vt 0.028284 0.000000
vt 0.028284 0.110000
vn 0.707107 0.707107 0.000000
vn 0.707107 0.707107 0.000000
vn 0.707107 0.707107 0.000000
f 511/511/511 512/512/512 513/513/513
v -198.000000 59.250000 76.500000
v -200.000000 61.250000 87.500000
v -198.000000 59.250000 87.500000
vt 0.000000 0.000000
vt 0.113578 0.000000
vt 0.106535 0.027393
vn 0.707107 0.707107 -0.000000
vn 0.707107 0.707107 -0.000000
vn 0.707107 0.707107 -0.000000
f 514/514/514 515/515/515 516/516/516
v -200.000000 61.250000 76.500000
v -201.000000 61.250000 76.500000
v -201.000000 61.250000 87.500000
vt 0.000000 0.000000
vt 0.010000 0.000000
vt 0.010000 0.110000
vn 0.000000 1.000000 0.000000
vn 0.000000 1.000000 0.000000
vn 0.000000 1.000000 0.000000
f 517/517/517 518/518/518 519/519/519
v -200.000000 61.250000 76.500000
v -201.000000 61.250000 87.500000
v -200.000000 61.250000 87.500000
vt 0.000000 0.000000
vt 0.110454 0.000000
vt 0.109548 0.009959
vn 0.000000 1.000000 -0.000000
vn 0.000000 1.000000 -0.000000
vn 0.000000 1.000000 -0.000000
f 520/520/520 521/521/521 522/522/522
v -201.000000 61.250000 76.500000
v -203.000000 59.250000 76.500000
v -203.000000 59.250000 87.500000
vt 0.000000 0.000000
vt 0.028284 0.000000
vt 0.028284 0.110000
vn -0.707107 0.707107 0.000000
vn -0.707107 0.707107 0.000000
vn -0.707107 0.707107 0.000000
f 523/523/523 524/524/524 525/525/525
v -201.000000 61.250000 76.500000
v -203.000000 59.250000 87.500000
v -201.000000 61.250000 87.500000
vt 0.000000 0.000000
vt 0.113578 0.000000
vt 0.106535 0.027393
vn -0.707107 0.707107 0.000000
vn -0.707107 0.707107 0.000000
vn -0.707107 0.707107 0.000000
f 526/526/526 527/527/527 528/528/528
v -203.000000 59.250000 76.500000
v -203.000000 -59.250000 76.500000
v -203.000000 -59.250000 87.500000
vt 0.000000 0.000000
vt 1.185000 0.000000
vt 1.185000 0.110000
vn -1.000000 0.000000 0.000000
vn -1.000000 0.000000 0.000000
vn -1.000000 0.000000 0.000000
f 529/529/529 530/530/530 531/531/531
v -203.000000 59.250000 76.500000
v -203.000000 -59.250000 87.500000
v -203.000000 59.250000 87.500000
vt 0.000000 0.000000
vt 1.190095 0.000000
vt 0.010167 0.109529
vn -1.000000 0.000000 0.000000
vn -1.000000 0.000000 0.000000
vn -1.000000 0.000000 0.000000
f 532/532/532 533/533/533 534/534/534
v -203.000000 -59.250000 76.500000
v -201.000000 -61.250000 76.500000
v -201.000000 -61.250000 87.500000
vt 0.000000 0.000000
vt 0.028284 0.000000
vt 0.028284 0.110000
vn -0.707107 -0.707107 0.000000
vn -0.707107 -0.707107 0.000000
vn -0.707107 -0.707107 0.000000
f 535/535/535 536/536/536 537/537/537
v -203.000000 -59.250000 76.500000
v -201.000000 -61.250000 87.500000
v -203.000000 -59.250000 87.500000
vt 0.000000 0.000000
vt 0.113578 0.000000
vt 0.106535 0.027393
vn -0.707107 -0.707107 0.000000
vn -0.707107 -0.707107 0.000000
vn -0.707107 -0.707107 0.000000
f 538/538/538 539/539/539 540/540/540
g Wheel_0_R
s off
v 114.500000 -91.500000 30.000000
v 108.770510 -91.500000 47.633558
v 93.770510 -91.500000 58.531695
vt 0.000000 0.000000
vt 0.185410 0.000000
vt 0.335410 0.108981
vn 0.000000 -1.000000 0.000000
vn 0.000000 -1.000000 0.000000
vn 0.000000 -1.000000 0.000000
f 541/541/541 542/542/542 543/543/543
v 114.500000 -71.500000 30.000000
v 93.770510 -71.500000 58.531695
v 108.770510 -71.500000 47.633558
vt 0.000000 0.000000
vt 0.352671 0.000000
vt 0.176336 0.057295
vn 0.000000 1.000000 0.000000
vn 0.000000 1.000000 0.000000
vn 0.000000 1.000000 0.000000
f 544/544/544 545/545/545 546/546/546
v 114.500000 -91.500000 30.000000
v 93.770510 -91.500000 58.531695
v 75.229490 -91.500000 58.531695
vt 0.000000 0.000000
vt 0.352671 0.000000
vt 0.461653 0.150000
vn 0.000000 -1.000000 0.000000
vn 0.000000 -1.000000 0.000000
vn 0.000000 -1.000000 0.000000
f 547/547/547 548/548/548 549/549/549
v 114.500000 -71.500000 30.000000
v 75.229490 -71.500000 58.531695
v 93.770510 -71.500000 58.531695
vt 0.000000 0.000000
vt 0.485410 0.000000
vt 0.335410 0.108981
vn 0.000000 1.000000 0.000000
vn 0.000000 1.000000 0.000000
vn 0.000000 1.000000 0.000000
f 550/550/550 551/551/551 552/552/552
v 114.500000 -91.500000 30.000000
v 75.229490 -91.500000 58.531695
v 60.229490 -91.500000 47.633558
vt 0.000000 0.000000
vt 0.485410 0.000000
vt 0.542705 0.176336
vn 0.000000 -1.000000 0.000000
vn 0.000000 -1.000000 0.000000
vn 0.000000 -1.000000 0.000000
f 553/553/553 554/554/554 555/555/555
v 114.500000 -71.500000 30.000000
v 60.229490 -71.500000 47.633558
v 75.229490 -71.500000 58.531695
vt 0.000000 0.000000
vt 0.570634 0.000000
vt 0.461653 0.150000
vn 0.000000 1.000000 0.000000
vn 0.000000 1.000000 0.000000
vn 0.000000 1.000000 0.000000
f 556/556/556 557/557/557 558/558/558
v 114.500000 -91.500000 30.000000
v 60.229490 -91.500000 47.633558
v 54.500000 -91.500000 30.000000
vt 0.000000 0.000000
vt 0.570634 0.000000
vt 0.570634 0.185410
vn 0.000000 -1.000000 0.000000
vn 0.000000 -1.000000 0.000000
vn 0.000000 -1.000000 0.000000
f 559/559/559 560/560/560 561/561/561
v 114.500000 -71.500000 30.000000
v 54.500000 -71.500000 30.000000
v 60.229490 -71.500000 47.633558
vt 0.000000 0.000000
vt 0.600000 0.000000
vt 0.542705 0.176336
vn 0.000000 1.000000 0.000000
vn 0.000000 1.000000 0.000000
vn 0.000000 1.000000 0.000000
f 562/562/562 563/563/563 564/564/564
v 114.500000 -91.500000 30.000000
v 54.500000 -91.500000 30.000000
v 60.229490 -91.500000 12.366442
vt 0.000000 0.000000
vt 0.600000 0.000000
vt 0.542705 0.176336
vn -0.000000 -1.000000 0.000000
vn -0.000000 -1.000000 0.000000
vn -0.000000 -1.000000 0.000000
f 565/565/565 566/566/566 567/567/567
v 114.500000 -71.500000 30.000000
v 60.229490 -71.500000 12.366442
v 54.500000 -71.500000 30.000000
vt 0.000000 0.000000
vt 0.570634 0.000000
vt 0.570634 0.185410
vn 0.000000 1.000000 0.000000
vn 0.000000 1.000000 0.000000
vn 0.000000 1.000000 0.000000
f 568/568/568 569/569/569 570/570/570
v 114.500000 -91.500000 30.000000
v 60.229490 -91.500000 12.366442
v 75.229490 -91.500000 1.468305
vt 0.000000 0.000000
vt 0.570634 0.000000
vt 0.461653 0.150000
vn 0.000000 -1.000000 0.000000
vn 0.000000 -1.000000 0.000000
vn 0.000000 -1.000000 0.000000
f 571/571/571 572/572/572 573/573/573
v 114.500000 -71.500000 30.000000
v 75.229490 -71.500000 1.468305
v 60.229490 -71.500000 12.366442
vt 0.000000 0.000000
vt 0.485410 0.000000
vt 0.542705 0.176336
vn 0.000000 1.000000 0.000000
vn 0.000000 1.000000 0.000000
vn 0.000000 1.000000 0.000000
f 574/574/574 575/575/575 576/576/576
v 114.500000 -91.500000 30.000000
v 75.229490 -91.500000 1.468305
v 93.770510 -91.500000 1.468305
vt 0.000000 0.000000
vt 0.485410 0.000000
vt 0.335410 0.108981
vn 0.000000 -1.000000 0.000000
vn 0.000000 -1.000000 0.000000
vn 0.000000 -1.000000 0.000000
f 577/577/577 578/578/578 579/579/579
v 114.500000 -71.500000 30.000000
v 93.770510 -71.500000 1.468305
v 75.229490 -71.500000 1.468305
vt 0.000000 0.000000
vt 0.352671 0.000000
vt 0.461653 0.150000
vn 0.000000 1.000000 0.000000
vn 0.000000 1.000000 0.000000
vn 0.000000 1.000000 0.000000
f 580/580/580 581/581/581 582/582/582
v 114.500000 -91.500000 30.000000
v 93.770510 -91.500000 1.468305
v 108.770510 -91.500000 12.366442
vt 0.000000 0.000000
vt 0.352671 0.000000
vt 0.176336 0.057295
vn 0.000000 -1.000000 0.000000
vn 0.000000 -1.000000 0.000000
vn 0.000000 -1.000000 0.000000
f 583/583/583 584/584/584 585/585/585
v 114.500000 -71.500000 30.000000
v 108.770510 -71.500000 12.366442
v 93.770510 -71.500000 1.468305
vt 0.000000 0.000000
vt 0.185410 0.000000
vt 0.335410 0.108981
vn 0.000000 1.000000 0.000000
vn 0.000000 1.000000 0.000000
vn 0.000000 1.000000 0.000000
f 586/586/586 587/587/587 588/588/588
v 114.500000 -91.500000 30.000000
v 108.770510 -71.500000 47.633558
v 108.770510 -91.500000 47.633558
vt 0.000000 0.000000
vt 0.272721 0.000000
vt 0.126052 0.135970
vn 0.951057 0.000000 0.309017
vn 0.951057 0.000000 0.309017
vn 0.951057 0.000000 0.309017
f 589/589/589 590/590/590 591/591/591
v 114.500000 -91.500000 30.000000
v 114.500000 -71.500000 30.000000
v 108.770510 -71.500000 47.633558
vt 0.000000 0.000000
vt 0.200000 0.000000
vt 0.200000 0.185410
vn 0.951057 -0.000000 0.309017
vn 0.951057 -0.000000 0.309017
vn 0.951057 -0.000000 0.309017
f 592/592/592 593/593/593 594/594/594
v 108.770510 -91.500000 47.633558
v 93.770510 -71.500000 58.531695
v 93.770510 -91.500000 58.531695
vt 0.000000 0.000000
vt 0.272721 0.000000
vt 0.126052 0.135970
vn 0.587785 0.000000 0.809017
vn 0.587785 0.000000 0.809017
vn 0.587785 0.000000 0.809017
f 595/595/595 596/596/596 597/597/597
v 108.770510 -91.500000 47.633558
v 108.770510 -71.500000 47.633558
v 93.770510 -71.500000 58.531695
vt 0.000000 0.000000
vt 0.200000 0.000000
vt 0.200000 0.185410
vn 0.587785 -0.000000 0.809017
vn 0.587785 -0.000000 0.809017
vn 0.587785 -0.000000 0.809017
f 598/598/598 599/599/599 600/600/600
v 93.770510 -91.500000 58.531695
v 75.229490 -71.500000 58.531695
v 75.229490 -91.500000 58.531695
vt 0.000000 0.000000
vt 0.272721 0.000000
vt 0.126052 0.135970
vn 0.000000 0.000000 1.000000
vn 0.000000 0.000000 1.000000
vn 0.000000 0.000000 1.000000
f 601/601/601 602/602/602 603/603/603
v 93.770510 -91.500000 58.531695
v 93.770510 -71.500000 58.531695
v 75.229490 -71.500000 58.531695
vt 0.000000 0.000000
vt 0.200000 0.000000
vt 0.200000 0.185410
vn 0.000000 -0.000000 1.000000
vn 0.000000 -0.000000 1.000000
vn 0.000000 -0.000000 1.000000
f 604/604/604 605/605/605 606/606/606
v 75.229490 -91.500000 58.531695
v 60.229490 -71.500000 47.633558
v 60.229490 -91.500000 47.633558
vt 0.000000 0.000000
vt 0.272721 0.000000
vt 0.126052 0.135970
vn -0.587785 0.000000 0.809017
vn -0.587785 0.000000 0.809017
vn -0.587785 0.000000 0.809017
f 607/607/607 608/608/608 609/609/609
v 75.229490 -91.500000 58.531695
v 75.229490 -71.500000 58.531695
v 60.229490 -71.500000 47.633558
vt 0.000000 0.000000
vt 0.200000 0.000000
vt 0.200000 0.185410
vn -0.587785 0.000000 0.809017
vn -0.587785 0.000000 0.809017
vn -0.587785 0.000000 0.809017
f 610/610/610 611/611/611 612/612/612
v 60.229490 -91.500000 47.633558
v 54.500000 -71.500000 30.000000
v 54.500000 -91.500000 30.000000
vt 0.000000 0.000000
vt 0.272721 0.000000
vt 0.126052 0.135970
vn -0.951057 0.000000 0.309017
vn -0.951057 0.000000 0.309017
vn -0.951057 0.000000 0.309017
f 613/613/613 614/614/614 615/615/615
v 60.229490 -91.500000 47.633558
v 60.229490 -71.500000 47.633558
v 54.500000 -71.500000 30.000000
vt 0.000000 0.000000
vt 0.200000 0.000000
vt 0.200000 0.185410
vn -0.951057 0.000000 0.309017
vn -0.951057 0.000000 0.309017
vn -0.951057 0.000000 0.309017
f 616/616/616 617/617/617 618/618/618
v 54.500000 -91.500000 30.000000
v 60.229490 -71.500000 12.366442
v 60.229490 -91.500000 12.366442
vt 0.000000 0.000000
vt 0.272721 0.000000
vt 0.126052 0.135970
vn -0.951057 0.000000 -0.309017
vn -0.951057 0.000000 -0.309017
vn -0.951057 0.000000 -0.309017
f 619/619/619 620/620/620 621/621/621
v 54.500000 -91.500000 30.000000
v 54.500000 -71.500000 30.000000
v 60.229490 -71.500000 12.366442
vt 0.000000 0.000000
vt 0.200000 0.000000
vt 0.200000 0.185410
vn -0.951057 0.000000 -0.309017
vn -0.951057 0.000000 -0.309017
vn -0.951057 0.000000 -0.309017
f 622/622/622 623/623/623 624/624/624
v 60.229490 -91.500000 12.366442
v 75.229490 -71.500000 1.468305
v 75.229490 -91.500000 1.468305
vt 0.000000 0.000000
vt 0.272721 0.000000
vt 0.126052 0.135970
vn -0.587785 0.000000 -0.809017
vn -0.587785 0.000000 -0.809017
vn -0.587785 0.000000 -0.809017
f 625/625/625 626/626/626 627/627/627
v 60.229490 -91.500000 12.366442
v 60.229490 -71.500000 12.366442
v 75.229490 -71.500000 1.468305
vt 0.000000 0.000000
vt 0.200000 0.000000
vt 0.200000 0.185410
vn -0.587785 0.000000 -0.809017
vn -0.587785 0.000000 -0.809017
vn -0.587785 0.000000 -0.809017
f 628/628/628 629/629/629 630/630/630
v 75.229490 -91.500000 1.468305
v 93.770510 -71.500000 1.468305
v 93.770510 -91.500000 1.468305
vt 0.000000 0.000000
vt 0.272721 0.000000
vt 0.126052 0.135970
vn -0.000000 0.000000 -1.000000
vn -0.000000 0.000000 -1.000000
vn -0.000000 0.000000 -1.000000
f 631/631/631 632/632/632 633/633/633
v 75.229490 -91.500000 1.468305
v 75.229490 -71.500000 1.468305
v 93.770510 -71.500000 1.468305
vt 0.000000 0.000000
vt 0.200000 0.000000
vt 0.200000 0.185410
vn -0.000000 0.000000 -1.000000
vn -0.000000 0.000000 -1.000000
vn -0.000000 0.000000 -1.000000
f 634/634/634 635/635/635 636/636/636
v 93.770510 -91.500000 1.468305
v 108.770510 -71.500000 12.366442
v 108.770510 -91.500000 12.366442
vt 0.000000 0.000000
vt 0.272721 0.000000
vt 0.126052 0.135970
vn 0.587785 0.000000 -0.809017
vn 0.587785 0.000000 -0.809017
vn 0.587785 0.000000 -0.809017
f 637/637/637 638/638/638 639/639/639
v 93.770510 -91.500000 1.468305
v 93.770510 -71.500000 1.468305
v 108.770510 -71.500000 12.366442
vt 0.000000 0.000000
vt 0.200000 0.000000
vt 0.200000 0.185410
vn 0.587785 0.000000 -0.809017
vn 0.587785 0.000000 -0.809017
vn 0.587785 0.000000 -0.809017
f 640/640/640 641/641/641 642/642/642
v 108.770510 -91.500000 12.366442
v 114.500000 -71.500000 30.000000
v 114.500000 -91.500000 30.000000
vt 0.000000 0.000000
vt 0.272721 0.000000
vt 0.126052 0.135970
vn 0.951057 0.000000 -0.309017
vn 0.951057 0.000000 -0.309017
vn 0.951057 0.000000 -0.309017
f 643/643/643 644/644/644 645/645/645
v 108.770510 -91.500000 12.366442
v 108.770510 -71.500000 12.366442
v 114.500000 -71.500000 30.000000
vt 0.000000 0.000000
vt 0.200000 0.000000
vt 0.200000 0.185410
vn 0.951057 0.000000 -0.309017
vn 0.951057 0.000000 -0.309017
vn 0.951057 0.000000 -0.309017
f 646/646/646 647/647/647 648/648/648
g Wheel_0_L
s off
v 114.500000 71.500000 30.000000
v 108.770510 71.500000 47.633558
v 93.770510 71.500000 58.531695
vt 0.000000 0.000000
vt 0.185410 0.000000
vt 0.335410 0.108981
vn 0.000000 -1.000000 0.000000
vn 0.000000 -1.000000 0.000000
vn 0.000000 -1.000000 0.000000
f 649/649/649 650/650/650 651/651/651
v 114.500000 91.500000 30.000000
v 93.770510 91.500000 58.531695
v 108.770510 91.500000 47.633558
vt 0.000000 0.000000
vt 0.352671 0.000000
vt 0.176336 0.057295
vn 0.000000 1.000000 0.000000
vn 0.000000 1.000000 0.000000
vn 0.000000 1.000000 0.000000
f 652/652/652 653/653/653 654/654/654
v 114.500000 71.500000 30.000000
v 93.770510 71.500000 58.531695
v 75.229490 71.500000 58.531695
vt 0.000000 0.000000
vt 0.352671 0.000000
vt 0.461653 0.150000
vn 0.000000 -1.000000 0.000000
vn 0.000000 -1.000000 0.000000
vn 0.000000 -1.000000 0.000000
f 655/655/655 656/656/656 657/657/657
v 114.500000 91.500000 30.000000
v 75.229490 91.500000 58.531695
v 93.770510 91.500000 58.531695
vt 0.000000 0.000000
vt 0.485410 0.000000
vt 0.335410 0.108981
vn 0.000000 1.000000 0.000000
vn 0.000000 1.000000 0.000000
vn 0.000000 1.000000 0.000000
f 658/658/658 659/659/659 660/660/660
v 114.500000 71.500000 30.000000
v 75.229490 71.500000 58.531695
v 60.229490 71.500000 47.633558
vt 0.000000 0.000000
vt 0.485410 0.000000
vt 0.542705 0.176336
vn 0.000000 -1.000000 0.000000
vn 0.000000 -1.000000 0.000000
vn 0.000000 -1.000000 0.000000
f 661/661/661 662/662/662 663/663/663
v 114.500000 91.500000 30.000000
v 60.229490 91.500000 47.633558
v 75.229490 91.500000 58.531695
vt 0.000000 0.000000
vt 0.570634 0.000000
vt 0.461653 0.150000
vn 0.000000 1.000000 0.000000
vn 0.000000 1.000000 0.000000
vn 0.000000 1.000000 0.000000
f 664/664/664 665/665/665 666/666/666
v 114.500000 71.500000 30.000000
v 60.229490 71.500000 47.633558
v 54.500000 71.500000 30.000000
vt 0.000000 0.000000
vt 0.570634 0.000000
vt 0.570634 0.185410
vn 0.000000 -1.000000 0.000000
vn 0.000000 -1.000000 0.000000
vn 0.000000 -1.000000 0.000000
f 667/667/667 668/668/668 669/669/669
v 114.500000 91.500000 30.000000
v 54.500000 91.500000 30.000000
v 60.229490 91.500000 47.633558
vt 0.000000 0.000000
vt 0.600000 0.000000
vt 0.542705 0.176336
vn 0.000000 1.000000 0.000000
vn 0.000000 1.000000 0.000000
vn 0.000000 1.000000 0.000000
f 670/670/670 671/671/671 672/672/672
v 114.500000 71.500000 30.000000
v 54.500000 71.500000 30.000000
v 60.229490 71.500000 12.366442
vt 0.000000 0.000000
vt 0.600000 0.000000
vt 0.542705 0.176336
vn -0.000000 -1.000000 0.000000
vn -0.000000 -1.000000 0.000000
vn -0.000000 -1.000000 0.000000
f 673/673/673 674/674/674 675/675/675
v 114.500000 91.500000 30.000000
v 60.229490 91.500000 12.366442
v 54.500000 91.500000 30.000000
vt 0.000000 0.000000
vt 0.570634 0.000000
vt 0.570634 0.185410
vn 0.000000 1.000000 0.000000
vn 0.000000 1.000000 0.000000
vn 0.000000 1.000000 0.000000
f 676/676/676 677/677/677 678/678/678
v 114.500000 71.500000 30.000000
v 60.229490 71.500000 12.366442
v 75.229490 71.500000 1.468305
vt 0.000000 0.000000
vt 0.570634 0.000000
vt 0.461653 0.150000
vn 0.000000 -1.000000 0.000000
vn 0.000000 -1.000000 0.000000
vn 0.000000 -1.000000 0.000000
f 679/679/679 680/680/680 681/681/681
v 114.500000 91.500000 30.000000
v 75.229490 91.500000 1.468305
v 60.229490 91.500000 12.366442
vt 0.000000 0.000000
vt 0.485410 0.000000
vt 0.542705 0.176336
vn 0.000000 1.000000 0.000000
vn 0.000000 1.000000 0.000000
vn 0.000000 1.000000 0.000000
f 682/682/682 683/683/683 684/684/684
v 114.500000 71.500000 30.000000
v 75.229490 71.500000 1.468305
v 93.770510 71.500000 1.468305
vt 0.000000 0.000000
vt 0.485410 0.000000
vt 0.335410 0.108981
vn 0.000000 -1.000000 0.000000
vn 0.000000 -1.000000 0.000000
vn 0.000000 -1.000000 0.000000
f 685/685/685 686/686/686 687/687/687
v 114.500000 91.500000 30.000000
v 93.770510 91.500000 1.468305
v 75.229490 91.500000 1.468305
vt 0.000000 0.000000
vt 0.352671 0.000000
vt 0.461653 0.150000
vn 0.000000 1.000000 0.000000
vn 0.000000 1.000000 0.000000
vn 0.000000 1.000000 0.000000
f 688/688/688 689/689/689 690/690/690
v 114.500000 71.500000 30.000000
v 93.770510 71.500000 1.468305
v 108.770510 71.500000 12.366442
vt 0.000000 0.000000
vt 0.352671 0.000000
vt 0.176336 0.057295
vn 0.000000 -1.000000 0.000000
vn 0.000000 -1.000000 0.000000
vn 0.000000 -1.000000 0.000000
f 691/691/691 692/692/692 693/693/693
v 114.500000 91.500000 30.000000
v 108.770510 91.500000 12.366442
v 93.770510 91.500000 1.468305
vt 0.000000 0.000000
vt 0.185410 0.000000
vt 0.335410 0.108981
vn 0.000000 1.000000 0.000000
vn 0.000000 1.000000 0.000000
vn 0.000000 1.000000 0.000000
f 694/694/694 695/695/695 696/696/696
v 114.500000 71.500000 30.000000
v 108.770510 91.500000 47.633558
v 108.770510 71.500000 47.633558
vt 0.000000 0.000000
vt 0.272721 0.000000
vt 0.126052 0.135970
vn 0.951057 0.000000 0.309017
vn 0.951057 0.000000 0.309017
vn 0.951057 0.000000 0.309017
f 697/697/697 698/698/698 699/699/699
v 114.500000 71.500000 30.000000
v 114.500000 91.500000 30.000000
v 108.770510 91.500000 47.633558
vt 0.000000 0.000000
vt 0.200000 0.000000
vt 0.200000 0.185410
vn 0.951057 -0.000000 0.309017
vn 0.951057 -0.000000 0.309017
vn 0.951057 -0.000000 0.309017
f 700/700/700 701/701/701 702/702/702
v 108.770510 71.500000 47.633558
v 93.770510 91.500000 58.531695
v 93.770510 71.500000 58.531695
vt 0.000000 0.000000
vt 0.272721 0.000000
vt 0.126052 0.135970
vn 0.587785 0.000000 0.809017
vn 0.587785 0.000000 0.809017
vn 0.587785 0.000000 0.809017
f 703/703/703 704/704/704 705/705/705
v 108.770510 71.500000 47.633558
v 108.770510 91.500000 47.633558
v 93.770510 91.500000 58.531695
vt 0.000000 0.000000
vt 0.200000 0.000000
vt 0.200000 0.185410
vn 0.587785 -0.000000 0.809017
vn 0.587785 -0.000000 0.809017
vn 0.587785 -0.000000 0.809017
f 706/706/706 707/707/707 708/708/708
v 93.770510 71.500000 58.531695
v 75.229490 91.500000 58.531695
v 75.229490 71.500000 58.531695
vt 0.000000 0.000000
vt 0.272721 0.000000
vt 0.126052 0.135970
vn 0.000000 0.000000 1.000000
vn 0.000000 0.000000 1.000000
vn 0.000000 0.000000 1.000000
f 709/709/709 710/710/710 711/711/711
v 93.770510 71.500000 58.531695
v 93.770510 91.500000 58.531695
v 75.229490 91.500000 58.531695
vt 0.000000 0.000000
vt 0.200000 0.000000
vt 0.200000 0.185410
vn 0.000000 -0.000000 1.000000
vn 0.000000 -0.000000 1.000000
vn 0.000000 -0.000000 1.000000
f 712/712/712 713/713/713 714/714/714
v 75.229490 71.500000 58.531695
v 60.229490 91.500000 47.633558
v 60.229490 71.500000 47.633558
vt 0.000000 0.000000
vt 0.272721 0.000000
vt 0.126052 0.135970
vn -0.587785 0.000000 0.809017
vn -0.587785 0.000000 0.809017
vn -0.587785 0.000000 0.809017
f 715/715/715 716/716/716 717/717/717
v 75.229490 71.500000 58.531695
v 75.229490 91.500000 58.531695
v 60.229490 91.500000 47.633558
vt 0.000000 0.000000
vt 0.200000 0.000000
vt 0.200000 0.185410
vn -0.587785 0.000000 0.809017
vn -0.587785 0.000000 0.809017
vn -0.587785 0.000000 0.809017
f 718/718/718 719/719/719 720/720/720
v 60.229490 71.500000 47.633558
v 54.500000 91.500000 30.000000
v 54.500000 71.500000 30.000000
vt 0.000000 0.000000
vt 0.272721 0.000000
vt 0.126052 0.135970
vn -0.951057 0.000000 0.309017
vn -0.951057 0.000000 0.309017
vn -0.951057 0.000000 0.309017
f 721/721/721 722/722/722 723/723/723
v 60.229490 71.500000 47.633558
v 60.229490 91.500000 47.633558
v 54.500000 91.500000 30.000000
vt 0.000000 0.000000
vt 0.200000 0.000000
vt 0.200000 0.185410
vn -0.951057 0.000000 0.309017
vn -0.951057 0.000000 0.309017
vn -0.951057 0.000000 0.309017
f 724/724/724 725/725/725 726/726/726
v 54.500000 71.500000 30.000000
v 60.229490 91.500000 12.366442
v 60.229490 71.500000 12.366442
vt 0.000000 0.000000
vt 0.272721 0.000000
vt 0.126052 0.135970
vn -0.951057 0.000000 -0.309017
vn -0.951057 0.000000 -0.309017
vn -0.951057 0.000000 -0.309017
f 727/727/727 728/728/728 729/729/729
v 54.500000 71.500000 30.000000
v 54.500000 91.500000 30.000000
v 60.229490 91.500000 12.366442
vt 0.000000 0.000000
vt 0.200000 0.000000
vt 0.200000 0.185410
vn -0.951057 0.000000 -0.309017
vn -0.951057 0.000000 -0.309017
vn -0.951057 0.000000 -0.309017
f 730/730/730 731/731/731 732/732/732
v 60.229490 71.500000 12.366442
v 75.229490 91.500000 1.468305
v 75.229490 71.500000 1.468305
vt 0.000000 0.000000
vt 0.272721 0.000000
vt 0.126052 0.135970
vn -0.587785 0.000000 -0.809017
vn -0.587785 0.000000 -0.809017
vn -0.587785 0.000000 -0.809017
f 733/733/733 734/734/734 735/735/735
v 60.229490 71.500000 12.366442
v 60.229490 91.500000 12.366442
v 75.229490 91.500000 1.468305
vt 0.000000 0.000000
vt 0.200000 0.000000
vt 0.200000 0.185410
vn -0.587785 0.000000 -0.809017
vn -0.587785 0.000000 -0.809017
vn -0.587785 0.000000 -0.809017
f 736/736/736 737/737/737 738/738/738
v 75.229490 71.500000 1.468305
v 93.770510 91.500000 1.468305
v 93.770510 71.500000 1.468305
vt 0.000000 0.000000
vt 0.272721 0.000000
vt 0.126052 0.135970
vn -0.000000 0.000000 -1.000000
vn -0.000000 0.000000 -1.000000
vn -0.000000 0.000000 -1.000000
f 739/739/739 740/740/740 741/741/741
v 75.229490 71.500000 1.468305
v 75.229490 91.500000 1.468305
v 93.770510 91.500000 1.468305
vt 0.000000 0.000000
vt 0.200000 0.000000
vt 0.200000 0.185410
vn -0.000000 0.000000 -1.000000
vn -0.000000 0.000000 -1.000000
vn -0.000000 0.000000 -1.000000
f 742/742/742 743/743/743 744/744/744
v 93.770510 71.500000 1.468305
v 108.770510 91.500000 12.366442
v 108.770510 71.500000 12.366442
vt 0.000000 0.000000
vt 0.272721 0.000000
vt 0.126052 0.135970
vn 0.587785 0.000000 -0.809017
vn 0.587785 0.000000 -0.809017
vn 0.587785 0.000000 -0.809017
f 745/745/745 746/746/746 747/747/747
v 93.770510 71.500000 1.468305
v 93.770510 91.500000 1.468305
v 108.770510 91.500000 12.366442
vt 0.000000 0.000000
vt 0.200000 0.000000
vt 0.200000 0.185410
vn 0.587785 0.000000 -0.809017
vn 0.587785 0.000000 -0.809017
vn 0.587785 0.000000 -0.809017
f 748/748/748 749/749/749 750/750/750
v 108.770510 71.500000 12.366442
v 114.500000 91.500000 30.000000
v 114.500000 71.500000 30.000000
vt 0.000000 0.000000
vt 0.272721 0.000000
vt 0.126052 0.135970
vn 0.951057 0.000000 -0.309017
vn 0.951057 0.000000 -0.309017
vn 0.951057 0.000000 -0.309017
f 751/751/751 752/752/752 753/753/753
v 108.770510 71.500000 12.366442
v 108.770510 91.500000 12.366442
v 114.500000 91.500000 30.000000
vt 0.000000 0.000000
vt 0.200000 0.000000
vt 0.200000 0.185410
vn 0.951057 0.000000 -0.309017
vn 0.951057 0.000000 -0.309017
vn 0.951057 0.000000 -0.309017
f 754/754/754 755/755/755 756/756/756
g Wheel_1_R
s off
v -76.500000 -91.500000 30.000000
v -82.229490 -91.500000 47.633558
v -97.229490 -91.500000 58.531695
vt 0.000000 0.000000
vt 0.185410 0.000000
vt 0.335410 0.108981
vn 0.000000 -1.000000 0.000000
vn 0.000000 -1.000000 0.000000
vn 0.000000 -1.000000 0.000000
f 757/757/757 758/758/758 759/759/759
v -76.500000 -71.500000 30.000000
v -97.229490 -71.500000 58.531695
v -82.229490 -71.500000 47.633558
vt 0.000000 0.000000
vt 0.352671 0.000000
vt 0.176336 0.057295
vn 0.000000 1.000000 0.000000
vn 0.000000 1.000000 0.000000
vn 0.000000 1.000000 0.000000
f 760/760/760 761/761/761 762/762/762
v -76.500000 -91.500000 30.000000
v -97.229490 -91.500000 58.531695
v -115.770510 -91.500000 58.531695
vt 0.000000 0.000000
vt 0.352671 0.000000
vt 0.461653 0.150000
vn 0.000000 -1.000000 0.000000
vn 0.000000 -1.000000 0.000000
vn 0.000000 -1.000000 0.000000
f 763/763/763 764/764/764 765/765/765
v -76.500000 -71.500000 30.000000
v -115.770510 -71.500000 58.531695
v -97.229490 -71.500000 58.531695
vt 0.000000 0.000000
vt 0.485410 0.000000
vt 0.335410 0.108981
vn 0.000000 1.000000 0.000000
vn 0.000000 1.000000 0.000000
vn 0.000000 1.000000 0.000000
f 766/766/766 767/767/767 768/768/768
v -76.500000 -91.500000 30.000000
v -115.770510 -91.500000 58.531695
v -130.770510 -91.500000 47.633558
vt 0.000000 0.000000
vt 0.485410 0.000000
vt 0.542705 0.176336
vn 0.000000 -1.000000 0.000000
vn 0.000000 -1.000000 0.000000
vn 0.000000 -1.000000 0.000000
f 769/769/769 770/770/770 771/771/771
v -76.500000 -71.500000 30.000000
v -130.770510 -71.500000 47.633558
v -115.770510 -71.500000 58.531695
vt 0.000000 0.000000
vt 0.570634 0.000000
vt 0.461653 0.150000
vn 0.000000 1.000000 0.000000
vn 0.000000 1.000000 0.000000
vn 0.000000 1.000000 0.000000
f 772/772/772 773/773/773 774/774/774
v -76.500000 -91.500000 30.000000
v -130.770510 -91.500000 47.633558
v -136.500000 -91.500000 30.000000
vt 0.000000 0.000000
vt 0.570634 0.000000
vt 0.570634 0.185410
vn 0.000000 -1.000000 0.000000
vn 0.000000 -1.000000 0.000000
vn 0.000000 -1.000000 0.000000
f 775/775/775 776/776/776 777/777/777
v -76.500000 -71.500000 30.000000
v -136.500000 -71.500000 30.000000
v -130.770510 -71.500000 47.633558
vt 0.000000 0.000000
vt 0.600000 0.000000
vt 0.542705 0.176336
vn 0.000000 1.000000 0.000000
vn 0.000000 1.000000 0.000000
vn 0.000000 1.000000 0.000000
f 778/778/778 779/779/779 780/780/780
v -76.500000 -91.500000 30.000000
v -136.500000 -91.500000 30.000000
v -130.770510 -91.500000 12.366442
vt 0.000000 0.000000
vt 0.600000 0.000000
vt 0.542705 0.176336
vn -0.000000 -1.000000 0.000000
vn -0.000000 -1.000000 0.000000
vn -0.000000 -1.000000 0.000000
f 781/781/781 782/782/782 783/783/783
v -76.500000 -71.500000 30.000000
v -130.770510 -71.500000 12.366442
v -136.500000 -71.500000 30.000000
vt 0.000000 0.000000
vt 0.570634 0.000000
vt 0.570634 0.185410
vn 0.000000 1.000000 0.000000
vn 0.000000 1.000000 0.000000
vn 0.000000 1.000000 0.000000
f 784/784/784 785/785/785 786/786/786
v -76.500000 -91.500000 30.000000
v -130.770510 -91.500000 12.366442
v -115.770510 -91.500000 1.468305
vt 0.000000 0.000000
vt 0.570634 0.000000
vt 0.461653 0.150000
vn 0.000000 -1.000000 0.000000
vn 0.000000 -1.000000 0.000000
vn 0.000000 -1.000000 0.000000
f 787/787/787 788/788/788 789/789/789
v -76.500000 -71.500000 30.000000
v -115.770510 -71.500000 1.468305
v -130.770510 -71.500000 12.366442
vt 0.000000 0.000000
vt 0.485410 0.000000
vt 0.542705 0.176336
vn 0.000000 1.000000 0.000000
vn 0.000000 1.000000 0.000000
vn 0.000000 1.000000 0.000000
f 790/790/790 791/791/791 792/792/792
v -76.500000 -91.500000 30.000000
v -115.770510 -91.500000 1.468305
v -97.229490 -91.500000 1.468305
vt 0.000000 0.000000
vt 0.485410 0.000000
vt 0.335410 0.108981
vn 0.000000 -1.000000 0.000000
vn 0.000000 -1.000000 0.000000
vn 0.000000 -1.000000 0.000000
f 793/793/793 794/794/794 795/795/795
v -76.500000 -71.500000 30.000000
v -97.229490 -71.500000 1.468305
v -115.770510 -71.500000 1.468305
vt 0.000000 0.000000
vt 0.352671 0.000000
vt 0.461653 0.150000
vn 0.000000 1.000000 0.000000
vn 0.000000 1.000000 0.000000
vn 0.000000 1.000000 0.000000
f 796/796/796 797/797/797 798/798/798
v -76.500000 -91.500000 30.000000
v -97.229490 -91.500000 1.468305
v -82.229490 -91.500000 12.366442
vt 0.000000 0.000000
vt 0.352671 0.000000
vt 0.176336 0.057295
vn 0.000000 -1.000000 0.000000
vn 0.000000 -1.000000 0.000000
vn 0.000000 -1.000000 0.000000
f 799/799/799 800/800/800 801/801/801
v -76.500000 -71.500000 30.000000
v -82.229490 -71.500000 12.366442
v -97.229490 -71.500000 1.468305
vt 0.000000 0.000000
vt 0.185410 0.000000
vt 0.335410 0.108981
vn 0.000000 1.000000 0.000000
vn 0.000000 1.000000 0.000000
vn 0.000000 1.000000 0.000000
f 802/802/802 803/803/803 804/804/804
v -76.500000 -91.500000 30.000000
v -82.229490 -71.500000 47.633558
v -82.229490 -91.500000 47.633558
vt 0.000000 0.000000
vt 0.272721 0.000000
vt 0.126052 0.135970
vn 0.951057 0.000000 0.309017
vn 0.951057 0.000000 0.309017
vn 0.951057 0.000000 0.309017
f 805/805/805 806/806/806 807/807/807
v -76.500000 -91.500000 30.000000
v -76.500000 -71.500000 30.000000
v -82.229490 -71.500000 47.633558
vt 0.000000 0.000000
vt 0.200000 0.000000
vt 0.200000 0.185410
vn 0.951057 -0.000000 0.309017
vn 0.951057 -0.000000 0.309017
vn 0.951057 -0.000000 0.309017
f 808/808/808 809/809/809 810/810/810
v -82.229490 -91.500000 47.633558
v -97.229490 -71.500000 58.531695
v -97.229490 -91.500000 58.531695
vt 0.000000 0.000000
vt 0.272721 0.000000
vt 0.126052 0.135970
vn 0.587785 0.000000 0.809017
vn 0.587785 0.000000 0.809017
vn 0.587785 0.000000 0.809017
f 811/811/811 812/812/812 813/813/813
v -82.229490 -91.500000 47.633558
v -82.229490 -71.500000 47.633558
v -97.229490 -71.500000 58.531695
vt 0.000000 0.000000
vt 0.200000 0.000000
vt 0.200000 0.185410
vn 0.587785 -0.000000 0.809017
vn 0.587785 -0.000000 0.809017
vn 0.587785 -0.000000 0.809017
f 814/814/814 815/815/815 816/816/816
v -97.229490 -91.500000 58.531695
v -115.770510 -71.500000 58.531695
v -115.770510 -91.500000 58.531695
vt 0.000000 0.000000
vt 0.272721 0.000000
vt 0.126052 0.135970
vn 0.000000 0.000000 1.000000
vn 0.000000 0.000000 1.000000
vn 0.000000 0.000000 1.000000
f 817/817/817 818/818/818 819/819/819
v -97.229490 -91.500000 58.531695
v -97.229490 -71.500000 58.531695
v -115.770510 -71.500000 58.531695
vt 0.000000 0.000000
vt 0.200000 0.000000
vt 0.200000 0.185410
vn 0.000000 -0.000000 1.000000
vn 0.000000 -0.000000 1.000000
vn 0.000000 -0.000000 1.000000
f 820/820/820 821/821/821 822/822/822
v -115.770510 -91.500000 58.531695
v -130.770510 -71.500000 47.633558
v -130.770510 -91.500000 47.633558
vt 0.000000 0.000000
vt 0.272721 0.000000
vt 0.126052 0.135970
vn -0.587785 0.000000 0.809017
vn -0.587785 0.000000 0.809017
vn -0.587785 0.000000 0.809017
f 823/823/823 824/824/824 825/825/825
v -115.770510 -91.500000 58.531695
v -115.770510 -71.500000 58.531695
v -130.770510 -71.500000 47.633558
vt 0.000000 0.000000
vt 0.200000 0.000000
vt 0.200000 0.185410
vn -0.587785 0.000000 0.809017
vn -0.587785 0.000000 0.809017
vn -0.587785 0.000000 0.809017
f 826/826/826 827/827/827 828/828/828
v -130.770510 -91.500000 47.633558
v -136.500000 -71.500000 30.000000
v -136.500000 -91.500000 30.000000
vt 0.000000 0.000000
vt 0.272721 0.000000
vt 0.126052 0.135970
vn -0.951057 0.000000 0.309017
vn -0.951057 0.000000 0.309017
vn -0.951057 0.000000 0.309017
f 829/829/829 830/830/830 831/831/831
v -130.770510 -91.500000 47.633558
v -130.770510 -71.500000 47.633558
v -136.500000 -71.500000 30.000000
vt 0.000000 0.000000
vt 0.200000 0.000000
vt 0.200000 0.185410
vn -0.951057 0.000000 0.309017
vn -0.951057 0.000000 0.309017
vn -0.951057 0.000000 0.309017
f 832/832/832 833/833/833 834/834/834
v -136.500000 -91.500000 30.000000
v -130.770510 -71.500000 12.366442
v -130.770510 -91.500000 12.366442
vt 0.000000 0.000000
vt 0.272721 0.000000
vt 0.126052 0.135970
vn -0.951057 0.000000 -0.309017
vn -0.951057 0.000000 -0.309017
vn -0.951057 0.000000 -0.309017
f 835/835/835 836/836/836 837/837/837
v -136.500000 -91.500000 30.000000
v -136.500000 -71.500000 30.000000
v -130.770510 -71.500000 12.366442
vt 0.000000 0.000000
vt 0.200000 0.000000
vt 0.200000 0.185410
vn -0.951057 0.000000 -0.309017
vn -0.951057 0.000000 -0.309017
vn -0.951057 0.000000 -0.309017
f 838/838/838 839/839/839 840/840/840
v -130.770510 -91.500000 12.366442
v -115.770510 -71.500000 1.468305
v -115.770510 -91.500000 1.468305
vt 0.000000 0.000000
vt 0.272721 0.000000
vt 0.126052 0.135970
vn -0.587785 0.000000 -0.809017
vn -0.587785 0.000000 -0.809017
vn -0.587785 0.000000 -0.809017
f 841/841/841 842/842/842 843/843/843
v -130.770510 -91.500000 12.366442
v -130.770510 -71.500000 12.366442
v -115.770510 -71.500000 1.468305
vt 0.000000 0.000000
vt 0.200000 0.000000
vt 0.200000 0.185410
vn -0.587785 0.000000 -0.809017
vn -0.587785 0.000000 -0.809017
vn -0.587785 0.000000 -0.809017
f 844/844/844 845/845/845 846/846/846
v -115.770510 -91.500000 1.468305
v -97.229490 -71.500000 1.468305
v -97.229490 -91.500000 1.468305
vt 0.000000 0.000000
vt 0.272721 0.000000
vt 0.126052 0.135970
vn -0.000000 0.000000 -1.000000
vn -0.000000 0.000000 -1.000000
vn -0.000000 0.000000 -1.000000
f 847/847/847 848/848/848 849/849/849
v -115.770510 -91.500000 1.468305
v -115.770510 -71.500000 1.468305
v -97.229490 -71.500000 1.468305
vt 0.000000 0.000000
vt 0.200000 0.000000
vt 0.200000 0.185410
vn -0.000000 0.000000 -1.000000
vn -0.000000 0.000000 -1.000000
vn -0.000000 0.000000 -1.000000
f 850/850/850 851/851/851 852/852/852
v -97.229490 -91.500000 1.468305
v -82.229490 -71.500000 12.366442
v -82.229490 -91.500000 12.366442
vt 0.000000 0.000000
vt 0.272721 0.000000
vt 0.126052 0.135970
vn 0.587785 0.000000 -0.809017
vn 0.587785 0.000000 -0.809017
vn 0.587785 0.000000 -0.809017
f 853/853/853 854/854/854 855/855/855
v -97.229490 -91.500000 1.468305
v -97.229490 -71.500000 1.468305
v -82.229490 -71.500000 12.366442
vt 0.000000 0.000000
vt 0.200000 0.000000
vt 0.200000 0.185410
vn 0.587785 0.000000 -0.809017
vn 0.587785 0.000000 -0.809017
vn 0.587785 0.000000 -0.809017
f 856/856/856 857/857/857 858/858/858
v -82.229490 -91.500000 12.366442
v -76.500000 -71.500000 30.000000
v -76.500000 -91.500000 30.000000
vt 0.000000 0.000000
vt 0.272721 0.000000
vt 0.126052 0.135970
vn 0.951057 0.000000 -0.309017
vn 0.951057 0.000000 -0.309017
vn 0.951057 0.000000 -0.309017
f 859/859/859 860/860/860 861/861/861
v -82.229490 -91.500000 12.366442
v -82.229490 -71.500000 12.366442
v -76.500000 -71.500000 30.000000
vt 0.000000 0.000000
vt 0.200000 0.000000
vt 0.200000 0.185410
vn 0.951057 0.000000 -0.309017
vn 0.951057 0.000000 -0.309017
vn 0.951057 0.000000 -0.309017
f 862/862/862 863/863/863 864/864/864
g Wheel_1_L
s off
v -76.500000 71.500000 30.000000
v -82.229490 71.500000 47.633558
v -97.229490 71.500000 58.531695
vt 0.000000 0.000000
vt 0.185410 0.000000
vt 0.335410 0.108981
vn 0.000000 -1.000000 0.000000
vn 0.000000 -1.000000 0.000000
vn 0.000000 -1.000000 0.000000
f 865/865/865 866/866/866 867/867/867
v -76.500000 91.500000 30.000000
v -97.229490 91.500000 58.531695
v -82.229490 91.500000 47.633558
vt 0.000000 0.000000
vt 0.352671 0.000000
vt 0.176336 0.057295
vn 0.000000 1.000000 0.000000
vn 0.000000 1.000000 0.000000
vn 0.000000 1.000000 0.000000
f 868/868/868 869/869/869 870/870/870
v -76.500000 71.500000 30.000000
v -97.229490 71.500000 58.531695
v -115.770510 71.500000 58.531695
vt 0.000000 0.000000
vt 0.352671 0.000000
vt 0.461653 0.150000
vn 0.000000 -1.000000 0.000000
vn 0.000000 -1.000000 0.000000
vn 0.000000 -1.000000 0.000000
f 871/871/871 872/872/872 873/873/873
v -76.500000 91.500000 30.000000
v -115.770510 91.500000 58.531695
v -97.229490 91.500000 58.531695
vt 0.000000 0.000000
vt 0.485410 0.000000
vt 0.335410 0.108981
vn 0.000000 1.000000 0.000000
vn 0.000000 1.000000 0.000000
vn 0.000000 1.000000 0.000000
f 874/874/874 875/875/875 876/876/876
v -76.500000 71.500000 30.000000
v -115.770510 71.500000 58.531695
v -130.770510 71.500000 47.633558
vt 0.000000 0.000000
vt 0.485410 0.000000
vt 0.542705 0.176336
vn 0.000000 -1.000000 0.000000
vn 0.000000 -1.000000 0.000000
vn 0.000000 -1.000000 0.000000
f 877/877/877 878/878/878 879/879/879
v -76.500000 91.500000 30.000000
v -130.770510 91.500000 47.633558
v -115.770510 91.500000 58.531695
vt 0.000000 0.000000
vt 0.570634 0.000000
vt 0.461653 0.150000
vn 0.000000 1.000000 0.000000
vn 0.000000 1.000000 0.000000
vn 0.000000 1.000000 0.000000
f 880/880/880 881/881/881 882/882/882
v -76.500000 71.500000 30.000000
v -130.770510 71.500000 47.633558
v -136.500000 71.500000 30.000000
vt 0.000000 0.000000
vt 0.570634 0.000000
vt 0.570634 0.185410
vn 0.000000 -1.000000 0.000000
vn 0.000000 -1.000000 0.000000
vn 0.000000 -1.000000 0.000000
f 883/883/883 884/884/884 885/885/885
v -76.500000 91.500000 30.000000
v -136.500000 91.500000 30.000000
v -130.770510 91.500000 47.633558
vt 0.000000 0.000000
vt 0.600000 0.000000
vt 0.542705 0.176336
vn 0.000000 1.000000 0.000000
vn 0.000000 1.000000 0.000000
vn 0.000000 1.000000 0.000000
f 886/886/886 887/887/887 888/888/888
v -76.500000 71.500000 30.000000
v -136.500000 71.500000 30.000000
v -130.770510 71.500000 12.366442
vt 0.000000 0.000000
vt 0.600000 0.000000
vt 0.542705 0.176336
vn -0.000000 -1.000000 0.000000
vn -0.000000 -1.000000 0.000000
vn -0.000000 -1.000000 0.000000
f 889/889/889 890/890/890 891/891/891
v -76.500000 91.500000 30.000000
v -130.770510 91.500000 12.366442
v -136.500000 91.500000 30.000000
vt 0.000000 0.000000
vt 0.570634 0.000000
vt 0.570634 0.185410
vn 0.000000 1.000000 0.000000
vn 0.000000 1.000000 0.000000
vn 0.000000 1.000000 0.000000
f 892/892/892 893/893/893 894/894/894
v -76.500000 71.500000 30.000000
v -130.770510 71.500000 12.366442
v -115.770510 71.500000 1.468305
vt 0.000000 0.000000
vt 0.570634 0.000000
vt 0.461653 0.150000
vn 0.000000 -1.000000 0.000000
vn 0.000000 -1.000000 0.000000
vn 0.000000 -1.000000 0.000000
f 895/895/895 896/896/896 897/897/897
v -76.500000 91.500000 30.000000
v -115.770510 91.500000 1.468305
v -130.770510 91.500000 12.366442
vt 0.000000 0.000000
vt 0.485410 0.000000
vt 0.542705 0.176336
vn 0.000000 1.000000 0.000000
vn 0.000000 1.000000 0.000000
vn 0.000000 1.000000 0.000000
f 898/898/898 899/899/899 900/900/900
v -76.500000 71.500000 30.000000
v -115.770510 71.500000 1.468305
v -97.229490 71.500000 1.468305
vt 0.000000 0.000000
vt 0.485410 0.000000
vt 0.335410 0.108981
vn 0.000000 -1.000000 0.000000
vn 0.000000 -1.000000 0.000000
vn 0.000000 -1.000000 0.000000
f 901/901/901 902/902/902 903/903/903
v -76.500000 91.500000 30.000000
v -97.229490 91.500000 1.468305
v -115.770510 91.500000 1.468305
vt 0.000000 0.000000
vt 0.352671 0.000000
vt 0.461653 0.150000
vn 0.000000 1.000000 0.000000
vn 0.000000 1.000000 0.000000
vn 0.000000 1.000000 0.000000
f 904/904/904 905/905/905 906/906/906
v -76.500000 71.500000 30.000000
v -97.229490 71.500000 1.468305
v -82.229490 71.500000 12.366442
vt 0.000000 0.000000
vt 0.352671 0.000000
vt 0.176336 0.057295
vn 0.000000 -1.000000 0.000000
vn 0.000000 -1.000000 0.000000
vn 0.000000 -1.000000 0.000000
f 907/907/907 908/908/908 909/909/909
v -76.500000 91.500000 30.000000
v -82.229490 91.500000 12.366442
v -97.229490 91.500000 1.468305
vt 0.000000 0.000000
vt 0.185410 0.000000
vt 0.335410 0.108981
vn 0.000000 1.000000 0.000000
vn 0.000000 1.000000 0.000000
vn 0.000000 1.000000 0.000000
f 910/910/910 911/911/911 912/912/912
v -76.500000 71.500000 30.000000
v -82.229490 91.500000 47.633558
v -82.229490 71.500000 47.633558
vt 0.000000 0.000000
vt 0.272721 0.000000
vt 0.126052 0.135970
vn 0.951057 0.000000 0.309017
vn 0.951057 0.000000 0.309017
vn 0.951057 0.000000 0.309017
f 913/913/913 914/914/914 915/915/915
v -76.500000 71.500000 30.000000
v -76.500000 91.500000 30.000000
v -82.229490 91.500000 47.633558
vt 0.000000 0.000000
vt 0.200000 0.000000
vt 0.200000 0.185410
vn 0.951057 -0.000000 0.309017
vn 0.951057 -0.000000 0.309017
vn 0.951057 -0.000000 0.309017
f 916/916/916 917/917/917 918/918/918
v -82.229490 71.500000 47.633558
v -97.229490 91.500000 58.531695
v -97.229490 71.500000 58.531695
vt 0.000000 0.000000
vt 0.272721 0.000000
vt 0.126052 0.135970
vn 0.587785 0.000000 0.809017
vn 0.587785 0.000000 0.809017
vn 0.587785 0.000000 0.809017
f 919/919/919 920/920/920 921/921/921
v -82.229490 71.500000 47.633558
v -82.229490 91.500000 47.633558
v -97.229490 91.500000 58.531695
vt 0.000000 0.000000
vt 0.200000 0.000000
vt 0.200000 0.185410
vn 0.587785 -0.000000 0.809017
vn 0.587785 -0.000000 0.809017
vn 0.587785 -0.000000 0.809017
f 922/922/922 923/923/923 924/924/924
v -97.229490 71.500000 58.531695
v -115.770510 91.500000 58.531695
v -115.770510 71.500000 58.531695
vt 0.000000 0.000000
vt 0.272721 0.000000
vt 0.126052 0.135970
vn 0.000000 0.000000 1.000000
vn 0.000000 0.000000 1.000000
vn 0.000000 0.000000 1.000000
f 925/925/925 926/926/926 927/927/927
v -97.229490 71.500000 58.531695
v -97.229490 91.500000 58.531695
v -115.770510 91.500000 58.531695
vt 0.000000 0.000000
vt 0.200000 0.000000
vt 0.200000 0.185410
vn 0.000000 -0.000000 1.000000
vn 0.000000 -0.000000 1.000000
vn 0.000000 -0.000000 1.000000
f 928/928/928 929/929/929 930/930/930
v -115.770510 71.500000 58.531695
v -130.770510 91.500000 47.633558
v -130.770510 71.500000 47.633558
vt 0.000000 0.000000
vt 0.272721 0.000000
vt 0.126052 0.135970
vn -0.587785 0.000000 0.809017
vn -0.587785 0.000000 0.809017
vn -0.587785 0.000000 0.809017
f 931/931/931 932/932/932 933/933/933
v -115.770510 71.500000 58.531695
v -115.770510 91.500000 58.531695
v -130.770510 91.500000 47.633558
vt 0.000000 0.000000
vt 0.200000 0.000000
vt 0.200000 0.185410
vn -0.587785 0.000000 0.809017
vn -0.587785 0.000000 0.809017
vn -0.587785 0.000000 0.809017
f 934/934/934 935/935/935 936/936/936
v -130.770510 71.500000 47.633558
v -136.500000 91.500000 30.000000
v -136.500000 71.500000 30.000000
vt 0.000000 0.000000
vt 0.272721 0.000000
vt 0.126052 0.135970
vn -0.951057 0.000000 0.309017
vn -0.951057 0.000000 0.309017
vn -0.951057 0.000000 0.309017
f 937/937/937 938/938/938 939/939/939
v -130.770510 71.500000 47.633558
v -130.770510 91.500000 47.633558
v -136.500000 91.500000 30.000000
vt 0.000000 0.000000
vt 0.200000 0.000000
vt 0.200000 0.185410
vn -0.951057 0.000000 0.309017
vn -0.951057 0.000000 0.309017
vn -0.951057 0.000000 0.309017
f 940/940/940 941/941/941 942/942/942
v -136.500000 71.500000 30.000000
v -130.770510 91.500000 12.366442
v -130.770510 71.500000 12.366442
vt 0.000000 0.000000
vt 0.272721 0.000000
vt 0.126052 0.135970
vn -0.951057 0.000000 -0.309017
vn -0.951057 0.000000 -0.309017
vn -0.951057 0.000000 -0.309017
f 943/943/943 944/944/944 945/945/945
v -136.500000 71.500000 30.000000
v -136.500000 91.500000 30.000000
v -130.770510 91.500000 12.366442
vt 0.000000 0.000000
vt 0.200000 0.000000
vt 0.200000 0.185410
vn -0.951057 0.000000 -0.309017
vn -0.951057 0.000000 -0.309017
vn -0.951057 0.000000 -0.309017
f 946/946/946 947/947/947 948/948/948
v -130.770510 71.500000 12.366442
v -115.770510 91.500000 1.468305
v -115.770510 71.500000 1.468305
vt 0.000000 0.000000
vt 0.272721 0.000000
vt 0.126052 0.135970
vn -0.587785 0.000000 -0.809017
vn -0.587785 0.000000 -0.809017
vn -0.587785 0.000000 -0.809017
f 949/949/949 950/950/950 951/951/951
v -130.770510 71.500000 12.366442
v -130.770510 91.500000 12.366442
v -115.770510 91.500000 1.468305
vt 0.000000 0.000000
vt 0.200000 0.000000
vt 0.200000 0.185410
vn -0.587785 0.000000 -0.809017
vn -0.587785 0.000000 -0.809017
vn -0.587785 0.000000 -0.809017
f 952/952/952 953/953/953 954/954/954
v -115.770510 71.500000 1.468305
v -97.229490 91.500000 1.468305
v -97.229490 71.500000 1.468305
vt 0.000000 0.000000
vt 0.272721 0.000000
vt 0.126052 0.135970
vn -0.000000 0.000000 -1.000000
vn -0.000000 0.000000 -1.000000
vn -0.000000 0.000000 -1.000000
f 955/955/955 956/956/956 957/957/957
v -115.770510 71.500000 1.468305
v -115.770510 91.500000 1.468305
v -97.229490 91.500000 1.468305
vt 0.000000 0.000000
vt 0.200000 0.000000
vt 0.200000 0.185410
vn -0.000000 0.000000 -1.000000
vn -0.000000 0.000000 -1.000000
vn -0.000000 0.000000 -1.000000
f 958/958/958 959/959/959 960/960/960
v -97.229490 71.500000 1.468305
v -82.229490 91.500000 12.366442
v -82.229490 71.500000 12.366442
vt 0.000000 0.000000
vt 0.272721 0.000000
vt 0.126052 0.135970
vn 0.587785 0.000000 -0.809017
vn 0.587785 0.000000 -0.809017
vn 0.587785 0.000000 -0.809017
f 961/961/961 962/962/962 963/963/963
v -97.229490 71.500000 1.468305
v -97.229490 91.500000 1.468305
v -82.229490 91.500000 12.366442
vt 0.000000 0.000000
vt 0.200000 0.000000
vt 0.200000 0.185410
vn 0.587785 0.000000 -0.809017
vn 0.587785 0.000000 -0.809017
vn 0.587785 0.000000 -0.809017
f 964/964/964 965/965/965 966/966/966
v -82.229490 71.500000 12.366442
v -76.500000 91.500000 30.000000
v -76.500000 71.500000 30.000000
vt 0.000000 0.000000
vt 0.272721 0.000000
vt 0.126052 0.135970
vn 0.951057 0.000000 -0.309017
vn 0.951057 0.000000 -0.309017
vn 0.951057 0.000000 -0.309017
f 967/967/967 968/968/968 969/969/969
v -82.229490 71.500000 12.366442
v -82.229490 91.500000 12.366442
v -76.500000 91.500000 30.000000
vt 0.000000 0.000000
vt 0.200000 0.000000
vt 0.200000 0.185410
vn 0.951057 0.000000 -0.309017
vn 0.951057 0.000000 -0.309017
vn 0.951057 0.000000 -0.309017
f 970/970/970 971/971/971 972/972/972
