# VehiclesV3 SM_VehiclesV3_CarCrossover_Paint; centimetres; Unreal legacy OBJ adapter: canonical vertices are UE cm; this file is written with Y reflected and triangle winding reversed, and the importer reflects Y back. Reflection and winding reversal each negate the signed volume, so the two cancel and the file-space signed volume stays POSITIVE; the self-test asserts that on a unit cube rather than asserting a sign from memory. Never apply a second reflection or unit conversion.
o SM_VehiclesV3_CarCrossover_Paint
g BodyFront
s off
v 147.500000 91.000000 28.000000
v 147.500000 -91.000000 28.000000
v 147.500000 -91.000000 110.000000
vt 0.000000 0.000000
vt 1.820000 0.000000
vt 1.820000 0.820000
vn -1.000000 0.000000 0.000000
vn -1.000000 0.000000 0.000000
vn -1.000000 0.000000 0.000000
f 1/1/1 2/2/2 3/3/3
v 217.500000 80.080000 32.000000
v 217.500000 -80.080000 104.000000
v 217.500000 -80.080000 32.000000
vt 0.000000 0.000000
vt 1.755996 0.000000
vt 1.460779 0.656694
vn 1.000000 0.000000 0.000000
vn 1.000000 0.000000 0.000000
vn 1.000000 0.000000 0.000000
f 4/4/4 5/5/5 6/6/6
v 147.500000 91.000000 28.000000
v 147.500000 -91.000000 110.000000
v 147.500000 91.000000 110.000000
vt 0.000000 0.000000
vt 1.996196 0.000000
vt 0.336841 0.747622
vn -1.000000 0.000000 0.000000
vn -1.000000 0.000000 0.000000
vn -1.000000 0.000000 0.000000
f 7/7/7 8/8/8 9/9/9
v 217.500000 80.080000 32.000000
v 217.500000 80.080000 104.000000
v 217.500000 -80.080000 104.000000
vt 0.000000 0.000000
vt 0.720000 0.000000
vt 0.720000 1.601600
vn 1.000000 0.000000 -0.000000
vn 1.000000 0.000000 -0.000000
vn 1.000000 0.000000 -0.000000
f 10/10/10 11/11/11 12/12/12
v 147.500000 91.000000 28.000000
v 217.500000 -80.080000 32.000000
v 147.500000 -91.000000 28.000000
vt 0.000000 0.000000
vt 1.848901 0.000000
vt 1.684057 0.690182
vn 0.057050 0.000000 -0.998371
vn 0.057050 0.000000 -0.998371
vn 0.057050 0.000000 -0.998371
f 13/13/13 14/14/14 15/15/15
v 147.500000 91.000000 28.000000
v 217.500000 80.080000 32.000000
v 217.500000 -80.080000 32.000000
vt 0.000000 0.000000
vt 0.709595 0.000000
vt 0.956066 1.582522
vn 0.057050 0.000000 -0.998371
vn 0.057050 0.000000 -0.998371
vn 0.057050 0.000000 -0.998371
f 16/16/16 17/17/17 18/18/18
v 147.500000 -91.000000 28.000000
v 217.500000 -80.080000 104.000000
v 147.500000 -91.000000 110.000000
vt 0.000000 0.000000
vt 1.039002 0.000000
vt 0.599806 0.559135
vn 0.154136 -0.988050 0.000000
vn 0.154136 -0.988050 0.000000
vn 0.154136 -0.988050 0.000000
f 19/19/19 20/20/20 21/21/21
v 147.500000 -91.000000 28.000000
v 217.500000 -80.080000 32.000000
v 217.500000 -80.080000 104.000000
vt 0.000000 0.000000
vt 0.709595 0.000000
vt 0.750181 0.718855
vn 0.154136 -0.988050 0.000000
vn 0.154136 -0.988050 0.000000
vn 0.154136 -0.988050 0.000000
f 22/22/22 23/23/23 24/24/24
v 147.500000 -91.000000 110.000000
v 217.500000 80.080000 104.000000
v 147.500000 91.000000 110.000000
vt 0.000000 0.000000
vt 1.849442 0.000000
vt 1.683565 0.691382
vn 0.085401 -0.000000 0.996347
vn 0.085401 -0.000000 0.996347
vn 0.085401 -0.000000 0.996347
f 25/25/25 26/26/26 27/27/27
v 147.500000 -91.000000 110.000000
v 217.500000 -80.080000 104.000000
v 217.500000 80.080000 104.000000
vt 0.000000 0.000000
vt 0.711003 0.000000
vt 0.956986 1.582597
vn 0.085401 0.000000 0.996347
vn 0.085401 0.000000 0.996347
vn 0.085401 0.000000 0.996347
f 28/28/28 29/29/29 30/30/30
v 147.500000 91.000000 110.000000
v 217.500000 80.080000 32.000000
v 147.500000 91.000000 28.000000
vt 0.000000 0.000000
vt 1.053719 0.000000
vt 0.606993 0.551326
vn 0.154136 0.988050 0.000000
vn 0.154136 0.988050 0.000000
vn 0.154136 0.988050 0.000000
f 31/31/31 32/32/32 33/33/33
v 147.500000 91.000000 110.000000
v 217.500000 80.080000 104.000000
v 217.500000 80.080000 32.000000
vt 0.000000 0.000000
vt 0.711003 0.000000
vt 0.771762 0.717432
vn 0.154136 0.988050 0.000000
vn 0.154136 0.988050 0.000000
vn 0.154136 0.988050 0.000000
f 34/34/34 35/35/35 36/36/36
g BodyCentre
s off
v -159.500000 91.000000 28.000000
v -159.500000 -91.000000 28.000000
v -159.500000 -91.000000 110.000000
vt 0.000000 0.000000
vt 1.820000 0.000000
vt 1.820000 0.820000
vn -1.000000 0.000000 0.000000
vn -1.000000 0.000000 0.000000
vn -1.000000 0.000000 0.000000
f 37/37/37 38/38/38 39/39/39
v 147.500000 91.000000 28.000000
v 147.500000 -91.000000 110.000000
v 147.500000 -91.000000 28.000000
vt 0.000000 0.000000
vt 1.996196 0.000000
vt 1.659356 0.747622
vn 1.000000 0.000000 0.000000
vn 1.000000 0.000000 0.000000
vn 1.000000 0.000000 0.000000
f 40/40/40 41/41/41 42/42/42
v -159.500000 91.000000 28.000000
v -159.500000 -91.000000 110.000000
v -159.500000 91.000000 110.000000
vt 0.000000 0.000000
vt 1.996196 0.000000
vt 0.336841 0.747622
vn -1.000000 0.000000 0.000000
vn -1.000000 0.000000 0.000000
vn -1.000000 0.000000 0.000000
f 43/43/43 44/44/44 45/45/45
v 147.500000 91.000000 28.000000
v 147.500000 91.000000 110.000000
v 147.500000 -91.000000 110.000000
vt 0.000000 0.000000
vt 0.820000 0.000000
vt 0.820000 1.820000
vn 1.000000 0.000000 -0.000000
vn 1.000000 0.000000 -0.000000
vn 1.000000 0.000000 -0.000000
f 46/46/46 47/47/47 48/48/48
v -159.500000 91.000000 28.000000
v 147.500000 -91.000000 28.000000
v -159.500000 -91.000000 28.000000
vt 0.000000 0.000000
vt 3.568935 0.000000
vt 0.928120 1.565565
vn 0.000000 0.000000 -1.000000
vn 0.000000 0.000000 -1.000000
vn 0.000000 0.000000 -1.000000
f 49/49/49 50/50/50 51/51/51
v -159.500000 91.000000 28.000000
v 147.500000 91.000000 28.000000
v 147.500000 -91.000000 28.000000
vt 0.000000 0.000000
vt 3.070000 0.000000
vt 3.070000 1.820000
vn 0.000000 0.000000 -1.000000
vn 0.000000 0.000000 -1.000000
vn 0.000000 0.000000 -1.000000
f 52/52/52 53/53/53 54/54/54
v -159.500000 -91.000000 28.000000
v 147.500000 -91.000000 110.000000
v -159.500000 -91.000000 110.000000
vt 0.000000 0.000000
vt 3.177625 0.000000
vt 0.211605 0.792227
vn 0.000000 -1.000000 0.000000
vn 0.000000 -1.000000 0.000000
vn 0.000000 -1.000000 0.000000
f 55/55/55 56/56/56 57/57/57
v -159.500000 -91.000000 28.000000
v 147.500000 -91.000000 28.000000
v 147.500000 -91.000000 110.000000
vt 0.000000 0.000000
vt 3.070000 0.000000
vt 3.070000 0.820000
vn 0.000000 -1.000000 0.000000
vn 0.000000 -1.000000 0.000000
vn 0.000000 -1.000000 0.000000
f 58/58/58 59/59/59 60/60/60
v -159.500000 -91.000000 110.000000
v 147.500000 91.000000 110.000000
v -159.500000 91.000000 110.000000
vt 0.000000 0.000000
vt 3.568935 0.000000
vt 0.928120 1.565565
vn 0.000000 0.000000 1.000000
vn 0.000000 0.000000 1.000000
vn 0.000000 0.000000 1.000000
f 61/61/61 62/62/62 63/63/63
v -159.500000 -91.000000 110.000000
v 147.500000 -91.000000 110.000000
v 147.500000 91.000000 110.000000
vt 0.000000 0.000000
vt 3.070000 0.000000
vt 3.070000 1.820000
vn 0.000000 0.000000 1.000000
vn 0.000000 0.000000 1.000000
vn 0.000000 0.000000 1.000000
f 64/64/64 65/65/65 66/66/66
v -159.500000 91.000000 110.000000
v 147.500000 91.000000 28.000000
v -159.500000 91.000000 28.000000
vt 0.000000 0.000000
vt 3.177625 0.000000
vt 0.211605 0.792227
vn 0.000000 1.000000 0.000000
vn 0.000000 1.000000 0.000000
vn 0.000000 1.000000 0.000000
f 67/67/67 68/68/68 69/69/69
v -159.500000 91.000000 110.000000
v 147.500000 91.000000 110.000000
v 147.500000 91.000000 28.000000
vt 0.000000 0.000000
vt 3.070000 0.000000
vt 3.070000 0.820000
vn -0.000000 1.000000 0.000000
vn -0.000000 1.000000 0.000000
vn -0.000000 1.000000 0.000000
f 70/70/70 71/71/71 72/72/72
g BodyRear
s off
v -217.500000 80.080000 32.000000
v -217.500000 -80.080000 32.000000
v -217.500000 -80.080000 104.000000
vt 0.000000 0.000000
vt 1.601600 0.000000
vt 1.601600 0.720000
vn -1.000000 0.000000 0.000000
vn -1.000000 0.000000 0.000000
vn -1.000000 0.000000 0.000000
f 73/73/73 74/74/74 75/75/75
v -159.500000 91.000000 28.000000
v -159.500000 -91.000000 110.000000
v -159.500000 -91.000000 28.000000
vt 0.000000 0.000000
vt 1.996196 0.000000
vt 1.659356 0.747622
vn 1.000000 0.000000 0.000000
vn 1.000000 0.000000 0.000000
vn 1.000000 0.000000 0.000000
f 76/76/76 77/77/77 78/78/78
v -217.500000 80.080000 32.000000
v -217.500000 -80.080000 104.000000
v -217.500000 80.080000 104.000000
vt 0.000000 0.000000
vt 1.755996 0.000000
vt 0.295217 0.656694
vn -1.000000 0.000000 0.000000
vn -1.000000 0.000000 0.000000
vn -1.000000 0.000000 0.000000
f 79/79/79 80/80/80 81/81/81
v -159.500000 91.000000 28.000000
v -159.500000 91.000000 110.000000
v -159.500000 -91.000000 110.000000
vt 0.000000 0.000000
vt 0.820000 0.000000
vt 0.820000 1.820000
vn 1.000000 0.000000 -0.000000
vn 1.000000 0.000000 -0.000000
vn 1.000000 0.000000 -0.000000
f 82/82/82 83/83/83 84/84/84
v -217.500000 80.080000 32.000000
v -159.500000 -91.000000 28.000000
v -217.500000 -80.080000 32.000000
vt 0.000000 0.000000
vt 1.806886 0.000000
vt 1.516431 0.515326
vn -0.068802 -0.000000 -0.997630
vn -0.068802 -0.000000 -0.997630
vn -0.068802 -0.000000 -0.997630
f 85/85/85 86/86/86 87/87/87
v -217.500000 80.080000 32.000000
v -159.500000 91.000000 28.000000
v -159.500000 -91.000000 28.000000
vt 0.000000 0.000000
vt 0.591544 0.000000
vt 0.255569 1.788720
vn -0.068802 0.000000 -0.997630
vn -0.068802 0.000000 -0.997630
vn -0.068802 0.000000 -0.997630
f 88/88/88 89/89/89 90/90/90
v -217.500000 -80.080000 32.000000
v -159.500000 -91.000000 110.000000
v -217.500000 -80.080000 104.000000
vt 0.000000 0.000000
vt 0.978123 0.000000
vt 0.574161 0.434441
vn -0.185025 -0.982734 0.000000
vn -0.185025 -0.982734 0.000000
vn -0.185025 -0.982734 0.000000
f 91/91/91 92/92/92 93/93/93
v -217.500000 -80.080000 32.000000
v -159.500000 -91.000000 28.000000
v -159.500000 -91.000000 110.000000
vt 0.000000 0.000000
vt 0.591544 0.000000
vt 0.536096 0.818123
vn -0.185025 -0.982734 0.000000
vn -0.185025 -0.982734 0.000000
vn -0.185025 -0.982734 0.000000
f 94/94/94 95/95/95 96/96/96
v -217.500000 -80.080000 104.000000
v -159.500000 91.000000 110.000000
v -217.500000 80.080000 104.000000
vt 0.000000 0.000000
vt 1.807439 0.000000
vt 1.515966 0.516690
vn -0.102899 0.000000 0.994692
vn -0.102899 0.000000 0.994692
vn -0.102899 0.000000 0.994692
f 97/97/97 98/98/98 99/99/99
v -217.500000 -80.080000 104.000000
v -159.500000 -91.000000 110.000000
v -159.500000 91.000000 110.000000
vt 0.000000 0.000000
vt 0.593232 0.000000
vt 0.258214 1.788900
vn -0.102899 0.000000 0.994692
vn -0.102899 0.000000 0.994692
vn -0.102899 0.000000 0.994692
f 100/100/100 101/101/101 102/102/102
v -217.500000 80.080000 104.000000
v -159.500000 91.000000 28.000000
v -217.500000 80.080000 32.000000
vt 0.000000 0.000000
vt 0.962250 0.000000
vt 0.568667 0.441608
vn -0.185025 0.982734 0.000000
vn -0.185025 0.982734 0.000000
vn -0.185025 0.982734 0.000000
f 103/103/103 104/104/104 105/105/105
v -217.500000 80.080000 104.000000
v -159.500000 91.000000 110.000000
v -159.500000 91.000000 28.000000
vt 0.000000 0.000000
vt 0.593232 0.000000
vt 0.510297 0.815795
vn -0.185025 0.982734 0.000000
vn -0.185025 0.982734 0.000000
vn -0.185025 0.982734 0.000000
f 106/106/106 107/107/107 108/108/108
g Roof
s off
v -133.000000 83.900000 167.500000
v 55.000000 83.900000 167.500000
v 61.000000 77.900000 167.500000
vt 0.000000 0.000000
vt 1.880000 0.000000
vt 1.940000 0.060000
vn 0.000000 0.000000 -1.000000
vn 0.000000 0.000000 -1.000000
vn 0.000000 0.000000 -1.000000
f 109/109/109 110/110/110 111/111/111
v -133.000000 83.900000 172.500000
v 61.000000 77.900000 172.500000
v 55.000000 83.900000 172.500000
vt 0.000000 0.000000
vt 1.940928 0.000000
vt 1.879102 0.058117
vn -0.000000 0.000000 1.000000
vn -0.000000 0.000000 1.000000
vn -0.000000 0.000000 1.000000
f 112/112/112 113/113/113 114/114/114
v -133.000000 83.900000 167.500000
v 61.000000 77.900000 167.500000
v 61.000000 -77.900000 167.500000
vt 0.000000 0.000000
vt 1.940928 0.000000
vt 1.989090 1.557255
vn 0.000000 0.000000 -1.000000
vn 0.000000 0.000000 -1.000000
vn 0.000000 0.000000 -1.000000
f 115/115/115 116/116/116 117/117/117
v -133.000000 83.900000 172.500000
v 61.000000 -77.900000 172.500000
v 61.000000 77.900000 172.500000
vt 0.000000 0.000000
vt 2.526168 0.000000
vt 1.528275 1.196484
vn 0.000000 0.000000 1.000000
vn 0.000000 0.000000 1.000000
vn 0.000000 0.000000 1.000000
f 118/118/118 119/119/119 120/120/120
v -133.000000 83.900000 167.500000
v 61.000000 -77.900000 167.500000
v 55.000000 -83.900000 167.500000
vt 0.000000 0.000000
vt 2.526168 0.000000
vt 2.518520 0.084507
vn 0.000000 0.000000 -1.000000
vn 0.000000 0.000000 -1.000000
vn 0.000000 0.000000 -1.000000
f 121/121/121 122/122/122 123/123/123
v -133.000000 83.900000 172.500000
v 55.000000 -83.900000 172.500000
v 61.000000 -77.900000 172.500000
vt 0.000000 0.000000
vt 2.519937 0.000000
vt 2.524747 0.084716
vn 0.000000 0.000000 1.000000
vn 0.000000 0.000000 1.000000
vn 0.000000 0.000000 1.000000
f 124/124/124 125/125/125 126/126/126
v -133.000000 83.900000 167.500000
v 55.000000 -83.900000 167.500000
v -133.000000 -83.900000 167.500000
vt 0.000000 0.000000
vt 2.519937 0.000000
vt 1.117363 1.251872
vn 0.000000 0.000000 -1.000000
vn 0.000000 0.000000 -1.000000
vn 0.000000 0.000000 -1.000000
f 127/127/127 128/128/128 129/129/129
v -133.000000 83.900000 172.500000
v -133.000000 -83.900000 172.500000
v 55.000000 -83.900000 172.500000
vt 0.000000 0.000000
vt 1.678000 0.000000
vt 1.678000 1.880000
vn 0.000000 0.000000 1.000000
vn 0.000000 0.000000 1.000000
vn 0.000000 0.000000 1.000000
f 130/130/130 131/131/131 132/132/132
v -133.000000 83.900000 167.500000
v -133.000000 -83.900000 167.500000
v -139.000000 -77.900000 167.500000
vt 0.000000 0.000000
vt 1.678000 0.000000
vt 1.618000 0.060000
vn 0.000000 -0.000000 -1.000000
vn 0.000000 -0.000000 -1.000000
vn 0.000000 -0.000000 -1.000000
f 133/133/133 134/134/134 135/135/135
v -133.000000 83.900000 172.500000
v -139.000000 -77.900000 172.500000
v -133.000000 -83.900000 172.500000
vt 0.000000 0.000000
vt 1.619112 0.000000
vt 1.676847 0.062182
vn 0.000000 0.000000 1.000000
vn 0.000000 0.000000 1.000000
vn 0.000000 0.000000 1.000000
f 136/136/136 137/137/137 138/138/138
v -133.000000 83.900000 167.500000
v -139.000000 -77.900000 167.500000
v -139.000000 77.900000 167.500000
vt 0.000000 0.000000
vt 1.619112 0.000000
vt 0.062182 0.057735
vn 0.000000 0.000000 -1.000000
vn 0.000000 0.000000 -1.000000
vn 0.000000 0.000000 -1.000000
f 139/139/139 140/140/140 141/141/141
v -133.000000 83.900000 172.500000
v -139.000000 77.900000 172.500000
v -139.000000 -77.900000 172.500000
vt 0.000000 0.000000
vt 0.084853 0.000000
vt 1.186525 1.101672
vn 0.000000 0.000000 1.000000
vn 0.000000 0.000000 1.000000
vn 0.000000 0.000000 1.000000
f 142/142/142 143/143/143 144/144/144
v -133.000000 83.900000 167.500000
v 55.000000 83.900000 172.500000
v 55.000000 83.900000 167.500000
vt 0.000000 0.000000
vt 1.880665 0.000000
vt 1.879335 0.049982
vn 0.000000 1.000000 0.000000
vn 0.000000 1.000000 0.000000
vn 0.000000 1.000000 0.000000
f 145/145/145 146/146/146 147/147/147
v -133.000000 83.900000 167.500000
v -133.000000 83.900000 172.500000
v 55.000000 83.900000 172.500000
vt 0.000000 0.000000
vt 0.050000 0.000000
vt 0.050000 1.880000
vn 0.000000 1.000000 0.000000
vn 0.000000 1.000000 0.000000
vn 0.000000 1.000000 0.000000
f 148/148/148 149/149/149 150/150/150
v 55.000000 83.900000 167.500000
v 61.000000 77.900000 172.500000
v 61.000000 77.900000 167.500000
vt 0.000000 0.000000
vt 0.098489 0.000000
vt 0.073105 0.043077
vn 0.707107 0.707107 0.000000
vn 0.707107 0.707107 0.000000
vn 0.707107 0.707107 0.000000
f 151/151/151 152/152/152 153/153/153
v 55.000000 83.900000 167.500000
v 55.000000 83.900000 172.500000
v 61.000000 77.900000 172.500000
vt 0.000000 0.000000
vt 0.050000 0.000000
vt 0.050000 0.084853
vn 0.707107 0.707107 -0.000000
vn 0.707107 0.707107 -0.000000
vn 0.707107 0.707107 -0.000000
f 154/154/154 155/155/155 156/156/156
v 61.000000 77.900000 167.500000
v 61.000000 -77.900000 172.500000
v 61.000000 -77.900000 167.500000
vt 0.000000 0.000000
vt 1.558802 0.000000
vt 1.557198 0.049974
vn 1.000000 0.000000 0.000000
vn 1.000000 0.000000 0.000000
vn 1.000000 0.000000 0.000000
f 157/157/157 158/158/158 159/159/159
v 61.000000 77.900000 167.500000
v 61.000000 77.900000 172.500000
v 61.000000 -77.900000 172.500000
vt 0.000000 0.000000
vt 0.050000 0.000000
vt 0.050000 1.558000
vn 1.000000 0.000000 -0.000000
vn 1.000000 0.000000 -0.000000
vn 1.000000 0.000000 -0.000000
f 160/160/160 161/161/161 162/162/162
v 61.000000 -77.900000 167.500000
v 55.000000 -83.900000 172.500000
v 55.000000 -83.900000 167.500000
vt 0.000000 0.000000
vt 0.098489 0.000000
vt 0.073105 0.043077
vn 0.707107 -0.707107 0.000000
vn 0.707107 -0.707107 0.000000
vn 0.707107 -0.707107 0.000000
f 163/163/163 164/164/164 165/165/165
v 61.000000 -77.900000 167.500000
v 61.000000 -77.900000 172.500000
v 55.000000 -83.900000 172.500000
vt 0.000000 0.000000
vt 0.050000 0.000000
vt 0.050000 0.084853
vn 0.707107 -0.707107 0.000000
vn 0.707107 -0.707107 0.000000
vn 0.707107 -0.707107 0.000000
f 166/166/166 167/167/167 168/168/168
v 55.000000 -83.900000 167.500000
v -133.000000 -83.900000 172.500000
v -133.000000 -83.900000 167.500000
vt 0.000000 0.000000
vt 1.880665 0.000000
vt 1.879335 0.049982
vn 0.000000 -1.000000 0.000000
vn 0.000000 -1.000000 0.000000
vn 0.000000 -1.000000 0.000000
f 169/169/169 170/170/170 171/171/171
v 55.000000 -83.900000 167.500000
v 55.000000 -83.900000 172.500000
v -133.000000 -83.900000 172.500000
vt 0.000000 0.000000
vt 0.050000 0.000000
vt 0.050000 1.880000
vn 0.000000 -1.000000 0.000000
vn 0.000000 -1.000000 0.000000
vn 0.000000 -1.000000 0.000000
f 172/172/172 173/173/173 174/174/174
v -133.000000 -83.900000 167.500000
v -139.000000 -77.900000 172.500000
v -139.000000 -77.900000 167.500000
vt 0.000000 0.000000
vt 0.098489 0.000000
vt 0.073105 0.043077
vn -0.707107 -0.707107 0.000000
vn -0.707107 -0.707107 0.000000
vn -0.707107 -0.707107 0.000000
f 175/175/175 176/176/176 177/177/177
v -133.000000 -83.900000 167.500000
v -133.000000 -83.900000 172.500000
v -139.000000 -77.900000 172.500000
vt 0.000000 0.000000
vt 0.050000 0.000000
vt 0.050000 0.084853
vn -0.707107 -0.707107 0.000000
vn -0.707107 -0.707107 0.000000
vn -0.707107 -0.707107 0.000000
f 178/178/178 179/179/179 180/180/180
v -139.000000 -77.900000 167.500000
v -139.000000 77.900000 172.500000
v -139.000000 77.900000 167.500000
vt 0.000000 0.000000
vt 1.558802 0.000000
vt 1.557198 0.049974
vn -1.000000 0.000000 0.000000
vn -1.000000 0.000000 0.000000
vn -1.000000 0.000000 0.000000
f 181/181/181 182/182/182 183/183/183
v -139.000000 -77.900000 167.500000
v -139.000000 -77.900000 172.500000
v -139.000000 77.900000 172.500000
vt 0.000000 0.000000
vt 0.050000 0.000000
vt 0.050000 1.558000
vn -1.000000 0.000000 0.000000
vn -1.000000 0.000000 0.000000
vn -1.000000 0.000000 0.000000
f 184/184/184 185/185/185 186/186/186
v -139.000000 77.900000 167.500000
v -133.000000 83.900000 172.500000
v -133.000000 83.900000 167.500000
vt 0.000000 0.000000
vt 0.098489 0.000000
vt 0.073105 0.043077
vn -0.707107 0.707107 0.000000
vn -0.707107 0.707107 0.000000
vn -0.707107 0.707107 0.000000
f 187/187/187 188/188/188 189/189/189
v -139.000000 77.900000 167.500000
v -139.000000 77.900000 172.500000
v -133.000000 83.900000 172.500000
vt 0.000000 0.000000
vt 0.050000 0.000000
vt 0.050000 0.084853
vn -0.707107 0.707107 0.000000
vn -0.707107 0.707107 0.000000
vn -0.707107 0.707107 0.000000
f 190/190/190 191/191/191 192/192/192
