# VehiclesV3 SM_VehiclesV3_CarHatchback_Paint; centimetres; Unreal legacy OBJ adapter: canonical vertices are UE cm; this file is written with Y reflected and triangle winding reversed, and the importer reflects Y back. Reflection and winding reversal each negate the signed volume, so the two cancel and the file-space signed volume stays POSITIVE; the self-test asserts that on a unit cube rather than asserting a sign from memory. Never apply a second reflection or unit conversion.
o SM_VehiclesV3_CarHatchback_Paint
g BodyFront
s off
v 140.500000 87.500000 22.000000
v 140.500000 -87.500000 22.000000
v 140.500000 -87.500000 96.000000
vt 0.000000 0.000000
vt 1.750000 0.000000
vt 1.750000 0.740000
vn -1.000000 0.000000 0.000000
vn -1.000000 0.000000 0.000000
vn -1.000000 0.000000 0.000000
f 1/1/1 2/2/2 3/3/3
v 202.500000 75.250000 26.000000
v 202.500000 -75.250000 90.000000
v 202.500000 -75.250000 26.000000
vt 0.000000 0.000000
vt 1.635428 0.000000
vt 1.384974 0.588959
vn 1.000000 0.000000 0.000000
vn 1.000000 0.000000 0.000000
vn 1.000000 0.000000 0.000000
f 4/4/4 5/5/5 6/6/6
v 140.500000 87.500000 22.000000
v 140.500000 -87.500000 96.000000
v 140.500000 87.500000 96.000000
vt 0.000000 0.000000
vt 1.900026 0.000000
vt 0.288207 0.681570
vn -1.000000 0.000000 0.000000
vn -1.000000 0.000000 0.000000
vn -1.000000 0.000000 0.000000
f 7/7/7 8/8/8 9/9/9
v 202.500000 75.250000 26.000000
v 202.500000 75.250000 90.000000
v 202.500000 -75.250000 90.000000
vt 0.000000 0.000000
vt 0.640000 0.000000
vt 0.640000 1.505000
vn 1.000000 0.000000 -0.000000
vn 1.000000 0.000000 -0.000000
vn 1.000000 0.000000 -0.000000
f 10/10/10 11/11/11 12/12/12
v 140.500000 87.500000 22.000000
v 202.500000 -75.250000 26.000000
v 140.500000 -87.500000 22.000000
vt 0.000000 0.000000
vt 1.742055 0.000000
vt 1.634922 0.624122
vn 0.064382 0.000000 -0.997925
vn 0.064382 0.000000 -0.997925
vn 0.064382 0.000000 -0.997925
f 13/13/13 14/14/14 15/15/15
v 140.500000 87.500000 22.000000
v 202.500000 75.250000 26.000000
v 202.500000 -75.250000 26.000000
vt 0.000000 0.000000
vt 0.633251 0.000000
vt 0.924387 1.476572
vn 0.064382 0.000000 -0.997925
vn 0.064382 0.000000 -0.997925
vn 0.064382 0.000000 -0.997925
f 16/16/16 17/17/17 18/18/18
v 140.500000 -87.500000 22.000000
v 202.500000 -75.250000 90.000000
v 140.500000 -87.500000 96.000000
vt 0.000000 0.000000
vt 0.928335 0.000000
vt 0.542046 0.503772
vn 0.193833 -0.981034 0.000000
vn 0.193833 -0.981034 0.000000
vn 0.193833 -0.981034 0.000000
f 19/19/19 20/20/20 21/21/21
v 140.500000 -87.500000 22.000000
v 202.500000 -75.250000 26.000000
v 202.500000 -75.250000 90.000000
vt 0.000000 0.000000
vt 0.633251 0.000000
vt 0.673677 0.638722
vn 0.193833 -0.981034 0.000000
vn 0.193833 -0.981034 0.000000
vn 0.193833 -0.981034 0.000000
f 22/22/22 23/23/23 24/24/24
v 140.500000 -87.500000 96.000000
v 202.500000 75.250000 90.000000
v 140.500000 87.500000 96.000000
vt 0.000000 0.000000
vt 1.742629 0.000000
vt 1.634384 0.625531
vn 0.096324 -0.000000 0.995350
vn 0.096324 -0.000000 0.995350
vn 0.096324 -0.000000 0.995350
f 25/25/25 26/26/26 27/27/27
v 140.500000 -87.500000 96.000000
v 202.500000 -75.250000 90.000000
v 202.500000 75.250000 90.000000
vt 0.000000 0.000000
vt 0.634828 0.000000
vt 0.925241 1.476714
vn 0.096324 0.000000 0.995350
vn 0.096324 0.000000 0.995350
vn 0.096324 0.000000 0.995350
f 28/28/28 29/29/29 30/30/30
v 140.500000 87.500000 96.000000
v 202.500000 75.250000 26.000000
v 140.500000 87.500000 22.000000
vt 0.000000 0.000000
vt 0.943083 0.000000
vt 0.549262 0.495894
vn 0.193833 0.981034 0.000000
vn 0.193833 0.981034 0.000000
vn 0.193833 0.981034 0.000000
f 31/31/31 32/32/32 33/33/33
v 140.500000 87.500000 96.000000
v 202.500000 75.250000 90.000000
v 202.500000 75.250000 26.000000
vt 0.000000 0.000000
vt 0.634828 0.000000
vt 0.695317 0.637135
vn 0.193833 0.981034 0.000000
vn 0.193833 0.981034 0.000000
vn 0.193833 0.981034 0.000000
f 34/34/34 35/35/35 36/36/36
g BodyCentre
s off
v -150.500000 87.500000 22.000000
v -150.500000 -87.500000 22.000000
v -150.500000 -87.500000 96.000000
vt 0.000000 0.000000
vt 1.750000 0.000000
vt 1.750000 0.740000
vn -1.000000 0.000000 0.000000
vn -1.000000 0.000000 0.000000
vn -1.000000 0.000000 0.000000
f 37/37/37 38/38/38 39/39/39
v 140.500000 87.500000 22.000000
v 140.500000 -87.500000 96.000000
v 140.500000 -87.500000 22.000000
vt 0.000000 0.000000
vt 1.900026 0.000000
vt 1.611820 0.681570
vn 1.000000 0.000000 0.000000
vn 1.000000 0.000000 0.000000
vn 1.000000 0.000000 0.000000
f 40/40/40 41/41/41 42/42/42
v -150.500000 87.500000 22.000000
v -150.500000 -87.500000 96.000000
v -150.500000 87.500000 96.000000
vt 0.000000 0.000000
vt 1.900026 0.000000
vt 0.288207 0.681570
vn -1.000000 0.000000 0.000000
vn -1.000000 0.000000 0.000000
vn -1.000000 0.000000 0.000000
f 43/43/43 44/44/44 45/45/45
v 140.500000 87.500000 22.000000
v 140.500000 87.500000 96.000000
v 140.500000 -87.500000 96.000000
vt 0.000000 0.000000
vt 0.740000 0.000000
vt 0.740000 1.750000
vn 1.000000 0.000000 -0.000000
vn 1.000000 0.000000 -0.000000
vn 1.000000 0.000000 -0.000000
f 46/46/46 47/47/47 48/48/48
v -150.500000 87.500000 22.000000
v 140.500000 -87.500000 22.000000
v -150.500000 -87.500000 22.000000
vt 0.000000 0.000000
vt 3.395674 0.000000
vt 0.901883 1.499702
vn 0.000000 0.000000 -1.000000
vn 0.000000 0.000000 -1.000000
vn 0.000000 0.000000 -1.000000
f 49/49/49 50/50/50 51/51/51
v -150.500000 87.500000 22.000000
v 140.500000 87.500000 22.000000
v 140.500000 -87.500000 22.000000
vt 0.000000 0.000000
vt 2.910000 0.000000
vt 2.910000 1.750000
vn 0.000000 0.000000 -1.000000
vn 0.000000 0.000000 -1.000000
vn 0.000000 0.000000 -1.000000
f 52/52/52 53/53/53 54/54/54
v -150.500000 -87.500000 22.000000
v 140.500000 -87.500000 96.000000
v -150.500000 -87.500000 96.000000
vt 0.000000 0.000000
vt 3.002616 0.000000
vt 0.182374 0.717175
vn 0.000000 -1.000000 0.000000
vn 0.000000 -1.000000 0.000000
vn 0.000000 -1.000000 0.000000
f 55/55/55 56/56/56 57/57/57
v -150.500000 -87.500000 22.000000
v 140.500000 -87.500000 22.000000
v 140.500000 -87.500000 96.000000
vt 0.000000 0.000000
vt 2.910000 0.000000
vt 2.910000 0.740000
vn 0.000000 -1.000000 0.000000
vn 0.000000 -1.000000 0.000000
vn 0.000000 -1.000000 0.000000
f 58/58/58 59/59/59 60/60/60
v -150.500000 -87.500000 96.000000
v 140.500000 87.500000 96.000000
v -150.500000 87.500000 96.000000
vt 0.000000 0.000000
vt 3.395674 0.000000
vt 0.901883 1.499702
vn 0.000000 0.000000 1.000000
vn 0.000000 0.000000 1.000000
vn 0.000000 0.000000 1.000000
f 61/61/61 62/62/62 63/63/63
v -150.500000 -87.500000 96.000000
v 140.500000 -87.500000 96.000000
v 140.500000 87.500000 96.000000
vt 0.000000 0.000000
vt 2.910000 0.000000
vt 2.910000 1.750000
vn 0.000000 0.000000 1.000000
vn 0.000000 0.000000 1.000000
vn 0.000000 0.000000 1.000000
f 64/64/64 65/65/65 66/66/66
v -150.500000 87.500000 96.000000
v 140.500000 87.500000 22.000000
v -150.500000 87.500000 22.000000
vt 0.000000 0.000000
vt 3.002616 0.000000
vt 0.182374 0.717175
vn 0.000000 1.000000 0.000000
vn 0.000000 1.000000 0.000000
vn 0.000000 1.000000 0.000000
f 67/67/67 68/68/68 69/69/69
v -150.500000 87.500000 96.000000
v 140.500000 87.500000 96.000000
v 140.500000 87.500000 22.000000
vt 0.000000 0.000000
vt 2.910000 0.000000
vt 2.910000 0.740000
vn -0.000000 1.000000 0.000000
vn -0.000000 1.000000 0.000000
vn -0.000000 1.000000 0.000000
f 70/70/70 71/71/71 72/72/72
g BodyRear
s off
v -202.500000 75.250000 26.000000
v -202.500000 -75.250000 26.000000
v -202.500000 -75.250000 90.000000
vt 0.000000 0.000000
vt 1.505000 0.000000
vt 1.505000 0.640000
vn -1.000000 0.000000 0.000000
vn -1.000000 0.000000 0.000000
vn -1.000000 0.000000 0.000000
f 73/73/73 74/74/74 75/75/75
v -150.500000 87.500000 22.000000
v -150.500000 -87.500000 96.000000
v -150.500000 -87.500000 22.000000
vt 0.000000 0.000000
vt 1.900026 0.000000
vt 1.611820 0.681570
vn 1.000000 0.000000 0.000000
vn 1.000000 0.000000 0.000000
vn 1.000000 0.000000 0.000000
f 76/76/76 77/77/77 78/78/78
v -202.500000 75.250000 26.000000
v -202.500000 -75.250000 90.000000
v -202.500000 75.250000 90.000000
vt 0.000000 0.000000
vt 1.635428 0.000000
vt 0.250454 0.588959
vn -1.000000 0.000000 0.000000
vn -1.000000 0.000000 0.000000
vn -1.000000 0.000000 0.000000
f 79/79/79 80/80/80 81/81/81
v -150.500000 87.500000 22.000000
v -150.500000 87.500000 96.000000
v -150.500000 -87.500000 96.000000
vt 0.000000 0.000000
vt 0.740000 0.000000
vt 0.740000 1.750000
vn 1.000000 0.000000 -0.000000
vn 1.000000 0.000000 -0.000000
vn 1.000000 0.000000 -0.000000
f 82/82/82 83/83/83 84/84/84
v -202.500000 75.250000 26.000000
v -150.500000 -87.500000 22.000000
v -202.500000 -75.250000 26.000000
vt 0.000000 0.000000
vt 1.709022 0.000000
vt 1.433210 0.459276
vn -0.076696 -0.000000 -0.997054
vn -0.076696 -0.000000 -0.997054
vn -0.076696 -0.000000 -0.997054
f 85/85/85 86/86/86 87/87/87
v -202.500000 75.250000 26.000000
v -150.500000 87.500000 22.000000
v -150.500000 -87.500000 22.000000
vt 0.000000 0.000000
vt 0.535730 0.000000
vt 0.135574 1.703636
vn -0.076696 0.000000 -0.997054
vn -0.076696 0.000000 -0.997054
vn -0.076696 0.000000 -0.997054
f 88/88/88 89/89/89 90/90/90
v -202.500000 -75.250000 26.000000
v -150.500000 -87.500000 96.000000
v -202.500000 -75.250000 90.000000
vt 0.000000 0.000000
vt 0.880572 0.000000
vt 0.508760 0.388282
vn -0.229300 -0.973356 0.000000
vn -0.229300 -0.973356 0.000000
vn -0.229300 -0.973356 0.000000
f 91/91/91 92/92/92 93/93/93
v -202.500000 -75.250000 26.000000
v -150.500000 -87.500000 22.000000
v -150.500000 -87.500000 96.000000
vt 0.000000 0.000000
vt 0.535730 0.000000
vt 0.480478 0.737934
vn -0.229300 -0.973356 0.000000
vn -0.229300 -0.973356 0.000000
vn -0.229300 -0.973356 0.000000
f 94/94/94 95/95/95 96/96/96
v -202.500000 -75.250000 90.000000
v -150.500000 87.500000 96.000000
v -202.500000 75.250000 90.000000
vt 0.000000 0.000000
vt 1.709607 0.000000
vt 1.432720 0.460803
vn -0.114624 0.000000 0.993409
vn -0.114624 0.000000 0.993409
vn -0.114624 0.000000 0.993409
f 97/97/97 98/98/98 99/99/99
v -202.500000 -75.250000 90.000000
v -150.500000 -87.500000 96.000000
v -150.500000 87.500000 96.000000
vt 0.000000 0.000000
vt 0.537593 0.000000
vt 0.138825 1.703961
vn -0.114624 0.000000 0.993409
vn -0.114624 0.000000 0.993409
vn -0.114624 0.000000 0.993409
f 100/100/100 101/101/101 102/102/102
v -202.500000 75.250000 90.000000
v -150.500000 87.500000 22.000000
v -202.500000 75.250000 26.000000
vt 0.000000 0.000000
vt 0.864758 0.000000
vt 0.503262 0.395382
vn -0.229300 0.973356 0.000000
vn -0.229300 0.973356 0.000000
vn -0.229300 0.973356 0.000000
f 103/103/103 104/104/104 105/105/105
v -202.500000 75.250000 90.000000
v -150.500000 87.500000 96.000000
v -150.500000 87.500000 22.000000
vt 0.000000 0.000000
vt 0.537593 0.000000
vt 0.455003 0.735377
vn -0.229300 0.973356 0.000000
vn -0.229300 0.973356 0.000000
vn -0.229300 0.973356 0.000000
f 106/106/106 107/107/107 108/108/108
g Roof
s off
v -115.000000 80.750000 147.500000
v 65.000000 80.750000 147.500000
v 71.000000 74.750000 147.500000
vt 0.000000 0.000000
vt 1.800000 0.000000
vt 1.860000 0.060000
vn 0.000000 0.000000 -1.000000
vn 0.000000 0.000000 -1.000000
vn 0.000000 0.000000 -1.000000
f 109/109/109 110/110/110 111/111/111
v -115.000000 80.750000 152.500000
v 71.000000 74.750000 152.500000
v 65.000000 80.750000 152.500000
vt 0.000000 0.000000
vt 1.860967 0.000000
vt 1.799064 0.058034
vn -0.000000 0.000000 1.000000
vn -0.000000 0.000000 1.000000
vn -0.000000 0.000000 1.000000
f 112/112/112 113/113/113 114/114/114
v -115.000000 80.750000 147.500000
v 71.000000 74.750000 147.500000
v 71.000000 -74.750000 147.500000
vt 0.000000 0.000000
vt 1.860967 0.000000
vt 1.909168 1.494223
vn 0.000000 0.000000 -1.000000
vn 0.000000 0.000000 -1.000000
vn 0.000000 0.000000 -1.000000
f 115/115/115 116/116/116 117/117/117
v -115.000000 80.750000 152.500000
v 71.000000 -74.750000 152.500000
v 71.000000 74.750000 152.500000
vt 0.000000 0.000000
vt 2.424381 0.000000
vt 1.465487 1.146973
vn 0.000000 0.000000 1.000000
vn 0.000000 0.000000 1.000000
vn 0.000000 0.000000 1.000000
f 118/118/118 119/119/119 120/120/120
v -115.000000 80.750000 147.500000
v 71.000000 -74.750000 147.500000
v 65.000000 -80.750000 147.500000
vt 0.000000 0.000000
vt 2.424381 0.000000
vt 2.416833 0.084516
vn 0.000000 0.000000 -1.000000
vn 0.000000 0.000000 -1.000000
vn 0.000000 0.000000 -1.000000
f 121/121/121 122/122/122 123/123/123
v -115.000000 80.750000 152.500000
v 65.000000 -80.750000 152.500000
v 71.000000 -74.750000 152.500000
vt 0.000000 0.000000
vt 2.418310 0.000000
vt 2.422900 0.084729
vn 0.000000 0.000000 1.000000
vn 0.000000 0.000000 1.000000
vn 0.000000 0.000000 1.000000
f 124/124/124 125/125/125 126/126/126
v -115.000000 80.750000 147.500000
v 65.000000 -80.750000 147.500000
v -115.000000 -80.750000 147.500000
vt 0.000000 0.000000
vt 2.418310 0.000000
vt 1.078532 1.202079
vn 0.000000 0.000000 -1.000000
vn 0.000000 0.000000 -1.000000
vn 0.000000 0.000000 -1.000000
f 127/127/127 128/128/128 129/129/129
v -115.000000 80.750000 152.500000
v -115.000000 -80.750000 152.500000
v 65.000000 -80.750000 152.500000
vt 0.000000 0.000000
vt 1.615000 0.000000
vt 1.615000 1.800000
vn 0.000000 0.000000 1.000000
vn 0.000000 0.000000 1.000000
vn 0.000000 0.000000 1.000000
f 130/130/130 131/131/131 132/132/132
v -115.000000 80.750000 147.500000
v -115.000000 -80.750000 147.500000
v -121.000000 -74.750000 147.500000
vt 0.000000 0.000000
vt 1.615000 0.000000
vt 1.555000 0.060000
vn 0.000000 -0.000000 -1.000000
vn 0.000000 -0.000000 -1.000000
vn 0.000000 -0.000000 -1.000000
f 133/133/133 134/134/134 135/135/135
v -115.000000 80.750000 152.500000
v -121.000000 -74.750000 152.500000
v -115.000000 -80.750000 152.500000
vt 0.000000 0.000000
vt 1.556157 0.000000
vt 1.613799 0.062269
vn 0.000000 0.000000 1.000000
vn 0.000000 0.000000 1.000000
vn 0.000000 0.000000 1.000000
f 136/136/136 137/137/137 138/138/138
v -115.000000 80.750000 147.500000
v -121.000000 -74.750000 147.500000
v -121.000000 74.750000 147.500000
vt 0.000000 0.000000
vt 1.556157 0.000000
vt 0.062269 0.057642
vn 0.000000 0.000000 -1.000000
vn 0.000000 0.000000 -1.000000
vn 0.000000 0.000000 -1.000000
f 139/139/139 140/140/140 141/141/141
v -115.000000 80.750000 152.500000
v -121.000000 74.750000 152.500000
v -121.000000 -74.750000 152.500000
vt 0.000000 0.000000
vt 0.084853 0.000000
vt 1.141977 1.057125
vn 0.000000 0.000000 1.000000
vn 0.000000 0.000000 1.000000
vn 0.000000 0.000000 1.000000
f 142/142/142 143/143/143 144/144/144
v -115.000000 80.750000 147.500000
v 65.000000 80.750000 152.500000
v 65.000000 80.750000 147.500000
vt 0.000000 0.000000
vt 1.800694 0.000000
vt 1.799306 0.049981
vn 0.000000 1.000000 0.000000
vn 0.000000 1.000000 0.000000
vn 0.000000 1.000000 0.000000
f 145/145/145 146/146/146 147/147/147
v -115.000000 80.750000 147.500000
v -115.000000 80.750000 152.500000
v 65.000000 80.750000 152.500000
vt 0.000000 0.000000
vt 0.050000 0.000000
vt 0.050000 1.800000
vn 0.000000 1.000000 0.000000
vn 0.000000 1.000000 0.000000
vn 0.000000 1.000000 0.000000
f 148/148/148 149/149/149 150/150/150
v 65.000000 80.750000 147.500000
v 71.000000 74.750000 152.500000
v 71.000000 74.750000 147.500000
vt 0.000000 0.000000
vt 0.098489 0.000000
vt 0.073105 0.043077
vn 0.707107 0.707107 0.000000
vn 0.707107 0.707107 0.000000
vn 0.707107 0.707107 0.000000
f 151/151/151 152/152/152 153/153/153
v 65.000000 80.750000 147.500000
v 65.000000 80.750000 152.500000
v 71.000000 74.750000 152.500000
vt 0.000000 0.000000
vt 0.050000 0.000000
vt 0.050000 0.084853
vn 0.707107 0.707107 -0.000000
vn 0.707107 0.707107 -0.000000
vn 0.707107 0.707107 -0.000000
f 154/154/154 155/155/155 156/156/156
v 71.000000 74.750000 147.500000
v 71.000000 -74.750000 152.500000
v 71.000000 -74.750000 147.500000
vt 0.000000 0.000000
vt 1.495836 0.000000
vt 1.494165 0.049972
vn 1.000000 0.000000 0.000000
vn 1.000000 0.000000 0.000000
vn 1.000000 0.000000 0.000000
f 157/157/157 158/158/158 159/159/159
v 71.000000 74.750000 147.500000
v 71.000000 74.750000 152.500000
v 71.000000 -74.750000 152.500000
vt 0.000000 0.000000
vt 0.050000 0.000000
vt 0.050000 1.495000
vn 1.000000 0.000000 -0.000000
vn 1.000000 0.000000 -0.000000
vn 1.000000 0.000000 -0.000000
f 160/160/160 161/161/161 162/162/162
v 71.000000 -74.750000 147.500000
v 65.000000 -80.750000 152.500000
v 65.000000 -80.750000 147.500000
vt 0.000000 0.000000
vt 0.098489 0.000000
vt 0.073105 0.043077
vn 0.707107 -0.707107 0.000000
vn 0.707107 -0.707107 0.000000
vn 0.707107 -0.707107 0.000000
f 163/163/163 164/164/164 165/165/165
v 71.000000 -74.750000 147.500000
v 71.000000 -74.750000 152.500000
v 65.000000 -80.750000 152.500000
vt 0.000000 0.000000
vt 0.050000 0.000000
vt 0.050000 0.084853
vn 0.707107 -0.707107 0.000000
vn 0.707107 -0.707107 0.000000
vn 0.707107 -0.707107 0.000000
f 166/166/166 167/167/167 168/168/168
v 65.000000 -80.750000 147.500000
v -115.000000 -80.750000 152.500000
v -115.000000 -80.750000 147.500000
vt 0.000000 0.000000
vt 1.800694 0.000000
vt 1.799306 0.049981
vn 0.000000 -1.000000 0.000000
vn 0.000000 -1.000000 0.000000
vn 0.000000 -1.000000 0.000000
f 169/169/169 170/170/170 171/171/171
v 65.000000 -80.750000 147.500000
v 65.000000 -80.750000 152.500000
v -115.000000 -80.750000 152.500000
vt 0.000000 0.000000
vt 0.050000 0.000000
vt 0.050000 1.800000
vn 0.000000 -1.000000 0.000000
vn 0.000000 -1.000000 0.000000
vn 0.000000 -1.000000 0.000000
f 172/172/172 173/173/173 174/174/174
v -115.000000 -80.750000 147.500000
v -121.000000 -74.750000 152.500000
v -121.000000 -74.750000 147.500000
vt 0.000000 0.000000
vt 0.098489 0.000000
vt 0.073105 0.043077
vn -0.707107 -0.707107 0.000000
vn -0.707107 -0.707107 0.000000
vn -0.707107 -0.707107 0.000000
f 175/175/175 176/176/176 177/177/177
v -115.000000 -80.750000 147.500000
v -115.000000 -80.750000 152.500000
v -121.000000 -74.750000 152.500000
vt 0.000000 0.000000
vt 0.050000 0.000000
vt 0.050000 0.084853
vn -0.707107 -0.707107 0.000000
vn -0.707107 -0.707107 0.000000
vn -0.707107 -0.707107 0.000000
f 178/178/178 179/179/179 180/180/180
v -121.000000 -74.750000 147.500000
v -121.000000 74.750000 152.500000
v -121.000000 74.750000 147.500000
vt 0.000000 0.000000
vt 1.495836 0.000000
vt 1.494165 0.049972
vn -1.000000 0.000000 0.000000
vn -1.000000 0.000000 0.000000
vn -1.000000 0.000000 0.000000
f 181/181/181 182/182/182 183/183/183
v -121.000000 -74.750000 147.500000
v -121.000000 -74.750000 152.500000
v -121.000000 74.750000 152.500000
vt 0.000000 0.000000
vt 0.050000 0.000000
vt 0.050000 1.495000
vn -1.000000 0.000000 0.000000
vn -1.000000 0.000000 0.000000
vn -1.000000 0.000000 0.000000
f 184/184/184 185/185/185 186/186/186
v -121.000000 74.750000 147.500000
v -115.000000 80.750000 152.500000
v -115.000000 80.750000 147.500000
vt 0.000000 0.000000
vt 0.098489 0.000000
vt 0.073105 0.043077
vn -0.707107 0.707107 0.000000
vn -0.707107 0.707107 0.000000
vn -0.707107 0.707107 0.000000
f 187/187/187 188/188/188 189/189/189
v -121.000000 74.750000 147.500000
v -121.000000 74.750000 152.500000
v -115.000000 80.750000 152.500000
vt 0.000000 0.000000
vt 0.050000 0.000000
vt 0.050000 0.084853
vn -0.707107 0.707107 0.000000
vn -0.707107 0.707107 0.000000
vn -0.707107 0.707107 0.000000
f 190/190/190 191/191/191 192/192/192
