# VehiclesV3 SM_VehiclesV3_Bus_Paint; centimetres; Unreal legacy OBJ adapter: canonical vertices are UE cm; this file is written with Y reflected and triangle winding reversed, and the importer reflects Y back. Reflection and winding reversal each negate the signed volume, so the two cancel and the file-space signed volume stays POSITIVE; the self-test asserts that on a unit cube rather than asserting a sign from memory. Never apply a second reflection or unit conversion.
o SM_VehiclesV3_Bus_Paint
g BodyLower
s off
v -586.000000 127.500000 34.000000
v 586.000000 127.500000 34.000000
v 600.000000 113.500000 34.000000
vt 0.000000 0.000000
vt 11.720000 0.000000
vt 11.860000 0.140000
vn 0.000000 0.000000 -1.000000
vn 0.000000 0.000000 -1.000000
vn 0.000000 0.000000 -1.000000
f 1/1/1 2/2/2 3/3/3
v -586.000000 127.500000 132.000000
v 600.000000 113.500000 132.000000
v 586.000000 127.500000 132.000000
vt 0.000000 0.000000
vt 11.860826 0.000000
vt 11.719184 0.138338
vn -0.000000 0.000000 1.000000
vn -0.000000 0.000000 1.000000
vn -0.000000 0.000000 1.000000
f 4/4/4 5/5/5 6/6/6
v -586.000000 127.500000 34.000000
v 600.000000 113.500000 34.000000
v 600.000000 -113.500000 34.000000
vt 0.000000 0.000000
vt 11.860826 0.000000
vt 11.887620 2.269842
vn 0.000000 0.000000 -1.000000
vn 0.000000 0.000000 -1.000000
vn 0.000000 0.000000 -1.000000
f 7/7/7 8/8/8 9/9/9
v -586.000000 127.500000 132.000000
v 600.000000 -113.500000 132.000000
v 600.000000 113.500000 132.000000
vt 0.000000 0.000000
vt 12.102384 0.000000
vt 11.650349 2.224537
vn 0.000000 0.000000 1.000000
vn 0.000000 0.000000 1.000000
vn 0.000000 0.000000 1.000000
f 10/10/10 11/11/11 12/12/12
v -586.000000 127.500000 34.000000
v 600.000000 -113.500000 34.000000
v 586.000000 -127.500000 34.000000
vt 0.000000 0.000000
vt 12.102384 0.000000
vt 11.993067 0.165075
vn 0.000000 0.000000 -1.000000
vn 0.000000 0.000000 -1.000000
vn 0.000000 0.000000 -1.000000
f 13/13/13 14/14/14 15/15/15
v -586.000000 127.500000 132.000000
v 586.000000 -127.500000 132.000000
v 600.000000 -113.500000 132.000000
vt 0.000000 0.000000
vt 11.994203 0.000000
vt 12.101238 0.166564
vn 0.000000 0.000000 1.000000
vn 0.000000 0.000000 1.000000
vn 0.000000 0.000000 1.000000
f 16/16/16 17/17/17 18/18/18
v -586.000000 127.500000 34.000000
v 586.000000 -127.500000 34.000000
v -586.000000 -127.500000 34.000000
vt 0.000000 0.000000
vt 11.994203 0.000000
vt 0.542137 2.491704
vn 0.000000 0.000000 -1.000000
vn 0.000000 0.000000 -1.000000
vn 0.000000 0.000000 -1.000000
f 19/19/19 20/20/20 21/21/21
v -586.000000 127.500000 132.000000
v -586.000000 -127.500000 132.000000
v 586.000000 -127.500000 132.000000
vt 0.000000 0.000000
vt 2.550000 0.000000
vt 2.550000 11.720000
vn 0.000000 0.000000 1.000000
vn 0.000000 0.000000 1.000000
vn 0.000000 0.000000 1.000000
f 22/22/22 23/23/23 24/24/24
v -586.000000 127.500000 34.000000
v -586.000000 -127.500000 34.000000
v -600.000000 -113.500000 34.000000
vt 0.000000 0.000000
vt 2.550000 0.000000
vt 2.410000 0.140000
vn 0.000000 -0.000000 -1.000000
vn 0.000000 -0.000000 -1.000000
vn 0.000000 -0.000000 -1.000000
f 25/25/25 26/26/26 27/27/27
v -586.000000 127.500000 132.000000
v -600.000000 -113.500000 132.000000
v -586.000000 -127.500000 132.000000
vt 0.000000 0.000000
vt 2.414063 0.000000
vt 2.545708 0.147883
vn 0.000000 0.000000 1.000000
vn 0.000000 0.000000 1.000000
vn 0.000000 0.000000 1.000000
f 28/28/28 29/29/29 30/30/30
v -586.000000 127.500000 34.000000
v -600.000000 -113.500000 34.000000
v -600.000000 113.500000 34.000000
vt 0.000000 0.000000
vt 2.414063 0.000000
vt 0.147883 0.131645
vn 0.000000 0.000000 -1.000000
vn 0.000000 0.000000 -1.000000
vn 0.000000 0.000000 -1.000000
f 31/31/31 32/32/32 33/33/33
v -586.000000 127.500000 132.000000
v -600.000000 113.500000 132.000000
v -600.000000 -113.500000 132.000000
vt 0.000000 0.000000
vt 0.197990 0.000000
vt 1.803122 1.605132
vn 0.000000 0.000000 1.000000
vn 0.000000 0.000000 1.000000
vn 0.000000 0.000000 1.000000
f 34/34/34 35/35/35 36/36/36
v -586.000000 127.500000 34.000000
v 586.000000 127.500000 132.000000
v 586.000000 127.500000 34.000000
vt 0.000000 0.000000
vt 11.760901 0.000000
vt 11.679241 0.976592
vn 0.000000 1.000000 0.000000
vn 0.000000 1.000000 0.000000
vn 0.000000 1.000000 0.000000
f 37/37/37 38/38/38 39/39/39
v -586.000000 127.500000 34.000000
v -586.000000 127.500000 132.000000
v 586.000000 127.500000 132.000000
vt 0.000000 0.000000
vt 0.980000 0.000000
vt 0.980000 11.720000
vn 0.000000 1.000000 0.000000
vn 0.000000 1.000000 0.000000
vn 0.000000 1.000000 0.000000
f 40/40/40 41/41/41 42/42/42
v 586.000000 127.500000 34.000000
v 600.000000 113.500000 132.000000
v 600.000000 113.500000 34.000000
vt 0.000000 0.000000
vt 0.999800 0.000000
vt 0.039208 0.194069
vn 0.707107 0.707107 0.000000
vn 0.707107 0.707107 0.000000
vn 0.707107 0.707107 0.000000
f 43/43/43 44/44/44 45/45/45
v 586.000000 127.500000 34.000000
v 586.000000 127.500000 132.000000
v 600.000000 113.500000 132.000000
vt 0.000000 0.000000
vt 0.980000 0.000000
vt 0.980000 0.197990
vn 0.707107 0.707107 -0.000000
vn 0.707107 0.707107 -0.000000
vn 0.707107 0.707107 -0.000000
f 46/46/46 47/47/47 48/48/48
v 600.000000 113.500000 34.000000
v 600.000000 -113.500000 132.000000
v 600.000000 -113.500000 34.000000
vt 0.000000 0.000000
vt 2.472509 0.000000
vt 2.084077 0.899734
vn 1.000000 0.000000 0.000000
vn 1.000000 0.000000 0.000000
vn 1.000000 0.000000 0.000000
f 49/49/49 50/50/50 51/51/51
v 600.000000 113.500000 34.000000
v 600.000000 113.500000 132.000000
v 600.000000 -113.500000 132.000000
vt 0.000000 0.000000
vt 0.980000 0.000000
vt 0.980000 2.270000
vn 1.000000 0.000000 -0.000000
vn 1.000000 0.000000 -0.000000
vn 1.000000 0.000000 -0.000000
f 52/52/52 53/53/53 54/54/54
v 600.000000 -113.500000 34.000000
v 586.000000 -127.500000 132.000000
v 586.000000 -127.500000 34.000000
vt 0.000000 0.000000
vt 0.999800 0.000000
vt 0.039208 0.194069
vn 0.707107 -0.707107 0.000000
vn 0.707107 -0.707107 0.000000
vn 0.707107 -0.707107 0.000000
f 55/55/55 56/56/56 57/57/57
v 600.000000 -113.500000 34.000000
v 600.000000 -113.500000 132.000000
v 586.000000 -127.500000 132.000000
vt 0.000000 0.000000
vt 0.980000 0.000000
vt 0.980000 0.197990
vn 0.707107 -0.707107 0.000000
vn 0.707107 -0.707107 0.000000
vn 0.707107 -0.707107 0.000000
f 58/58/58 59/59/59 60/60/60
v 586.000000 -127.500000 34.000000
v -586.000000 -127.500000 132.000000
v -586.000000 -127.500000 34.000000
vt 0.000000 0.000000
vt 11.760901 0.000000
vt 11.679241 0.976592
vn 0.000000 -1.000000 0.000000
vn 0.000000 -1.000000 0.000000
vn 0.000000 -1.000000 0.000000
f 61/61/61 62/62/62 63/63/63
v 586.000000 -127.500000 34.000000
v 586.000000 -127.500000 132.000000
v -586.000000 -127.500000 132.000000
vt 0.000000 0.000000
vt 0.980000 0.000000
vt 0.980000 11.720000
vn 0.000000 -1.000000 0.000000
vn 0.000000 -1.000000 0.000000
vn 0.000000 -1.000000 0.000000
f 64/64/64 65/65/65 66/66/66
v -586.000000 -127.500000 34.000000
v -600.000000 -113.500000 132.000000
v -600.000000 -113.500000 34.000000
vt 0.000000 0.000000
vt 0.999800 0.000000
vt 0.039208 0.194069
vn -0.707107 -0.707107 0.000000
vn -0.707107 -0.707107 0.000000
vn -0.707107 -0.707107 0.000000
f 67/67/67 68/68/68 69/69/69
v -586.000000 -127.500000 34.000000
v -586.000000 -127.500000 132.000000
v -600.000000 -113.500000 132.000000
vt 0.000000 0.000000
vt 0.980000 0.000000
vt 0.980000 0.197990
vn -0.707107 -0.707107 0.000000
vn -0.707107 -0.707107 0.000000
vn -0.707107 -0.707107 0.000000
f 70/70/70 71/71/71 72/72/72
v -600.000000 -113.500000 34.000000
v -600.000000 113.500000 132.000000
v -600.000000 113.500000 34.000000
vt 0.000000 0.000000
vt 2.472509 0.000000
vt 2.084077 0.899734
vn -1.000000 0.000000 0.000000
vn -1.000000 0.000000 0.000000
vn -1.000000 0.000000 0.000000
f 73/73/73 74/74/74 75/75/75
v -600.000000 -113.500000 34.000000
v -600.000000 -113.500000 132.000000
v -600.000000 113.500000 132.000000
vt 0.000000 0.000000
vt 0.980000 0.000000
vt 0.980000 2.270000
vn -1.000000 0.000000 0.000000
vn -1.000000 0.000000 0.000000
vn -1.000000 0.000000 0.000000
f 76/76/76 77/77/77 78/78/78
v -600.000000 113.500000 34.000000
v -586.000000 127.500000 132.000000
v -586.000000 127.500000 34.000000
vt 0.000000 0.000000
vt 0.999800 0.000000
vt 0.039208 0.194069
vn -0.707107 0.707107 0.000000
vn -0.707107 0.707107 0.000000
vn -0.707107 0.707107 0.000000
f 79/79/79 80/80/80 81/81/81
v -600.000000 113.500000 34.000000
v -600.000000 113.500000 132.000000
v -586.000000 127.500000 132.000000
vt 0.000000 0.000000
vt 0.980000 0.000000
vt 0.980000 0.197990
vn -0.707107 0.707107 0.000000
vn -0.707107 0.707107 0.000000
vn -0.707107 0.707107 0.000000
f 82/82/82 83/83/83 84/84/84
g BodyUpper
s off
v -579.000000 124.500000 132.000000
v 579.000000 124.500000 132.000000
v 595.000000 108.500000 132.000000
vt 0.000000 0.000000
vt 11.580000 0.000000
vt 11.740000 0.160000
vn 0.000000 0.000000 -1.000000
vn 0.000000 0.000000 -1.000000
vn 0.000000 0.000000 -1.000000
f 85/85/85 86/86/86 87/87/87
v -579.000000 124.500000 320.000000
v 595.000000 108.500000 320.000000
v 579.000000 124.500000 320.000000
vt 0.000000 0.000000
vt 11.741090 0.000000
vt 11.578925 0.157805
vn -0.000000 0.000000 1.000000
vn -0.000000 0.000000 1.000000
vn -0.000000 0.000000 1.000000
f 88/88/88 89/89/89 90/90/90
v -579.000000 124.500000 132.000000
v 595.000000 108.500000 132.000000
v 595.000000 -108.500000 132.000000
vt 0.000000 0.000000
vt 11.741090 0.000000
vt 11.770662 2.169799
vn 0.000000 0.000000 -1.000000
vn 0.000000 0.000000 -1.000000
vn 0.000000 0.000000 -1.000000
f 91/91/91 92/92/92 93/93/93
v -579.000000 124.500000 320.000000
v 595.000000 -108.500000 320.000000
v 595.000000 108.500000 320.000000
vt 0.000000 0.000000
vt 11.968981 0.000000
vt 11.546547 2.128485
vn 0.000000 0.000000 1.000000
vn 0.000000 0.000000 1.000000
vn 0.000000 0.000000 1.000000
f 94/94/94 95/95/95 96/96/96
v -579.000000 124.500000 132.000000
v 595.000000 -108.500000 132.000000
v 579.000000 -124.500000 132.000000
vt 0.000000 0.000000
vt 11.968981 0.000000
vt 11.843189 0.188086
vn 0.000000 0.000000 -1.000000
vn 0.000000 0.000000 -1.000000
vn 0.000000 0.000000 -1.000000
f 97/97/97 98/98/98 99/99/99
v -579.000000 124.500000 320.000000
v 579.000000 -124.500000 320.000000
v 595.000000 -108.500000 320.000000
vt 0.000000 0.000000
vt 11.844682 0.000000
vt 11.967472 0.190060
vn 0.000000 0.000000 1.000000
vn 0.000000 0.000000 1.000000
vn 0.000000 0.000000 1.000000
f 100/100/100 101/101/101 102/102/102
v -579.000000 124.500000 132.000000
v 579.000000 -124.500000 132.000000
v -579.000000 -124.500000 132.000000
vt 0.000000 0.000000
vt 11.844682 0.000000
vt 0.523450 2.434358
vn 0.000000 0.000000 -1.000000
vn 0.000000 0.000000 -1.000000
vn 0.000000 0.000000 -1.000000
f 103/103/103 104/104/104 105/105/105
v -579.000000 124.500000 320.000000
v -579.000000 -124.500000 320.000000
v 579.000000 -124.500000 320.000000
vt 0.000000 0.000000
vt 2.490000 0.000000
vt 2.490000 11.580000
vn 0.000000 0.000000 1.000000
vn 0.000000 0.000000 1.000000
vn 0.000000 0.000000 1.000000
f 106/106/106 107/107/107 108/108/108
v -579.000000 124.500000 132.000000
v -579.000000 -124.500000 132.000000
v -595.000000 -108.500000 132.000000
vt 0.000000 0.000000
vt 2.490000 0.000000
vt 2.330000 0.160000
vn 0.000000 -0.000000 -1.000000
vn 0.000000 -0.000000 -1.000000
vn 0.000000 -0.000000 -1.000000
f 109/109/109 110/110/110 111/111/111
v -579.000000 124.500000 320.000000
v -595.000000 -108.500000 320.000000
v -579.000000 -124.500000 320.000000
vt 0.000000 0.000000
vt 2.335487 0.000000
vt 2.484150 0.170585
vn 0.000000 0.000000 1.000000
vn 0.000000 0.000000 1.000000
vn 0.000000 0.000000 1.000000
f 112/112/112 113/113/113 114/114/114
v -579.000000 124.500000 132.000000
v -595.000000 -108.500000 132.000000
v -595.000000 108.500000 132.000000
vt 0.000000 0.000000
vt 2.335487 0.000000
vt 0.170585 0.148663
vn 0.000000 0.000000 -1.000000
vn 0.000000 0.000000 -1.000000
vn 0.000000 0.000000 -1.000000
f 115/115/115 116/116/116 117/117/117
v -579.000000 124.500000 320.000000
v -595.000000 108.500000 320.000000
v -595.000000 -108.500000 320.000000
vt 0.000000 0.000000
vt 0.226274 0.000000
vt 1.760696 1.534422
vn 0.000000 0.000000 1.000000
vn 0.000000 0.000000 1.000000
vn 0.000000 0.000000 1.000000
f 118/118/118 119/119/119 120/120/120
v -579.000000 124.500000 132.000000
v 579.000000 124.500000 320.000000
v 579.000000 124.500000 132.000000
vt 0.000000 0.000000
vt 11.731615 0.000000
vt 11.430344 1.855704
vn 0.000000 1.000000 0.000000
vn 0.000000 1.000000 0.000000
vn 0.000000 1.000000 0.000000
f 121/121/121 122/122/122 123/123/123
v -579.000000 124.500000 132.000000
v -579.000000 124.500000 320.000000
v 579.000000 124.500000 320.000000
vt 0.000000 0.000000
vt 1.880000 0.000000
vt 1.880000 11.580000
vn 0.000000 1.000000 0.000000
vn 0.000000 1.000000 0.000000
vn 0.000000 1.000000 0.000000
f 124/124/124 125/125/125 126/126/126
v 579.000000 124.500000 132.000000
v 595.000000 108.500000 320.000000
v 595.000000 108.500000 132.000000
vt 0.000000 0.000000
vt 1.893568 0.000000
vt 0.027039 0.224653
vn 0.707107 0.707107 0.000000
vn 0.707107 0.707107 0.000000
vn 0.707107 0.707107 0.000000
f 127/127/127 128/128/128 129/129/129
v 579.000000 124.500000 132.000000
v 579.000000 124.500000 320.000000
v 595.000000 108.500000 320.000000
vt 0.000000 0.000000
vt 1.880000 0.000000
vt 1.880000 0.226274
vn 0.707107 0.707107 -0.000000
vn 0.707107 0.707107 -0.000000
vn 0.707107 0.707107 -0.000000
f 130/130/130 131/131/131 132/132/132
v 595.000000 108.500000 132.000000
v 595.000000 -108.500000 320.000000
v 595.000000 -108.500000 132.000000
vt 0.000000 0.000000
vt 2.871115 0.000000
vt 1.640095 1.420912
vn 1.000000 0.000000 0.000000
vn 1.000000 0.000000 0.000000
vn 1.000000 0.000000 0.000000
f 133/133/133 134/134/134 135/135/135
v 595.000000 108.500000 132.000000
v 595.000000 108.500000 320.000000
v 595.000000 -108.500000 320.000000
vt 0.000000 0.000000
vt 1.880000 0.000000
vt 1.880000 2.170000
vn 1.000000 0.000000 -0.000000
vn 1.000000 0.000000 -0.000000
vn 1.000000 0.000000 -0.000000
f 136/136/136 137/137/137 138/138/138
v 595.000000 -108.500000 132.000000
v 579.000000 -124.500000 320.000000
v 579.000000 -124.500000 132.000000
vt 0.000000 0.000000
vt 1.893568 0.000000
vt 0.027039 0.224653
vn 0.707107 -0.707107 0.000000
vn 0.707107 -0.707107 0.000000
vn 0.707107 -0.707107 0.000000
f 139/139/139 140/140/140 141/141/141
v 595.000000 -108.500000 132.000000
v 595.000000 -108.500000 320.000000
v 579.000000 -124.500000 320.000000
vt 0.000000 0.000000
vt 1.880000 0.000000
vt 1.880000 0.226274
vn 0.707107 -0.707107 0.000000
vn 0.707107 -0.707107 0.000000
vn 0.707107 -0.707107 0.000000
f 142/142/142 143/143/143 144/144/144
v 579.000000 -124.500000 132.000000
v -579.000000 -124.500000 320.000000
v -579.000000 -124.500000 132.000000
vt 0.000000 0.000000
vt 11.731615 0.000000
vt 11.430344 1.855704
vn 0.000000 -1.000000 0.000000
vn 0.000000 -1.000000 0.000000
vn 0.000000 -1.000000 0.000000
f 145/145/145 146/146/146 147/147/147
v 579.000000 -124.500000 132.000000
v 579.000000 -124.500000 320.000000
v -579.000000 -124.500000 320.000000
vt 0.000000 0.000000
vt 1.880000 0.000000
vt 1.880000 11.580000
vn 0.000000 -1.000000 0.000000
vn 0.000000 -1.000000 0.000000
vn 0.000000 -1.000000 0.000000
f 148/148/148 149/149/149 150/150/150
v -579.000000 -124.500000 132.000000
v -595.000000 -108.500000 320.000000
v -595.000000 -108.500000 132.000000
vt 0.000000 0.000000
vt 1.893568 0.000000
vt 0.027039 0.224653
vn -0.707107 -0.707107 0.000000
vn -0.707107 -0.707107 0.000000
vn -0.707107 -0.707107 0.000000
f 151/151/151 152/152/152 153/153/153
v -579.000000 -124.500000 132.000000
v -579.000000 -124.500000 320.000000
v -595.000000 -108.500000 320.000000
vt 0.000000 0.000000
vt 1.880000 0.000000
vt 1.880000 0.226274
vn -0.707107 -0.707107 0.000000
vn -0.707107 -0.707107 0.000000
vn -0.707107 -0.707107 0.000000
f 154/154/154 155/155/155 156/156/156
v -595.000000 -108.500000 132.000000
v -595.000000 108.500000 320.000000
v -595.000000 108.500000 132.000000
vt 0.000000 0.000000
vt 2.871115 0.000000
vt 1.640095 1.420912
vn -1.000000 0.000000 0.000000
vn -1.000000 0.000000 0.000000
vn -1.000000 0.000000 0.000000
f 157/157/157 158/158/158 159/159/159
v -595.000000 -108.500000 132.000000
v -595.000000 -108.500000 320.000000
v -595.000000 108.500000 320.000000
vt 0.000000 0.000000
vt 1.880000 0.000000
vt 1.880000 2.170000
vn -1.000000 0.000000 0.000000
vn -1.000000 0.000000 0.000000
vn -1.000000 0.000000 0.000000
f 160/160/160 161/161/161 162/162/162
v -595.000000 108.500000 132.000000
v -579.000000 124.500000 320.000000
v -579.000000 124.500000 132.000000
vt 0.000000 0.000000
vt 1.893568 0.000000
vt 0.027039 0.224653
vn -0.707107 0.707107 0.000000
vn -0.707107 0.707107 0.000000
vn -0.707107 0.707107 0.000000
f 163/163/163 164/164/164 165/165/165
v -595.000000 108.500000 132.000000
v -595.000000 108.500000 320.000000
v -579.000000 124.500000 320.000000
vt 0.000000 0.000000
vt 1.880000 0.000000
vt 1.880000 0.226274
vn -0.707107 0.707107 0.000000
vn -0.707107 0.707107 0.000000
vn -0.707107 0.707107 0.000000
f 166/166/166 167/167/167 168/168/168
g Roof
s off
v -560.000000 116.500000 319.500000
v 560.000000 116.500000 319.500000
v 580.000000 96.500000 319.500000
vt 0.000000 0.000000
vt 11.200000 0.000000
vt 11.400000 0.200000
vn 0.000000 0.000000 -1.000000
vn 0.000000 0.000000 -1.000000
vn 0.000000 0.000000 -1.000000
f 169/169/169 170/170/170 171/171/171
v -560.000000 116.500000 328.500000
v 580.000000 96.500000 328.500000
v 560.000000 116.500000 328.500000
vt 0.000000 0.000000
vt 11.401754 0.000000
vt 11.198277 0.196461
vn -0.000000 0.000000 1.000000
vn -0.000000 0.000000 1.000000
vn -0.000000 0.000000 1.000000
f 172/172/172 173/173/173 174/174/174
v -560.000000 116.500000 319.500000
v 580.000000 96.500000 319.500000
v 580.000000 -96.500000 319.500000
vt 0.000000 0.000000
vt 11.401754 0.000000
vt 11.435609 1.929703
vn 0.000000 0.000000 -1.000000
vn 0.000000 0.000000 -1.000000
vn 0.000000 0.000000 -1.000000
f 175/175/175 176/176/176 177/177/177
v -560.000000 116.500000 328.500000
v 580.000000 -96.500000 328.500000
v 580.000000 96.500000 328.500000
vt 0.000000 0.000000
vt 11.597280 0.000000
vt 11.242809 1.897169
vn 0.000000 0.000000 1.000000
vn 0.000000 0.000000 1.000000
vn 0.000000 0.000000 1.000000
f 178/178/178 179/179/179 180/180/180
v -560.000000 116.500000 319.500000
v 580.000000 -96.500000 319.500000
v 560.000000 -116.500000 319.500000
vt 0.000000 0.000000
vt 11.597280 0.000000
vt 11.437415 0.233331
vn 0.000000 0.000000 -1.000000
vn 0.000000 0.000000 -1.000000
vn 0.000000 0.000000 -1.000000
f 181/181/181 182/182/182 183/183/183
v -560.000000 116.500000 328.500000
v 560.000000 -116.500000 328.500000
v 580.000000 -96.500000 328.500000
vt 0.000000 0.000000
vt 11.439795 0.000000
vt 11.594867 0.236543
vn 0.000000 0.000000 1.000000
vn 0.000000 0.000000 1.000000
vn 0.000000 0.000000 1.000000
f 184/184/184 185/185/185 186/186/186
v -560.000000 116.500000 319.500000
v 560.000000 -116.500000 319.500000
v -560.000000 -116.500000 319.500000
vt 0.000000 0.000000
vt 11.439795 0.000000
vt 0.474563 2.281160
vn 0.000000 0.000000 -1.000000
vn 0.000000 0.000000 -1.000000
vn 0.000000 0.000000 -1.000000
f 187/187/187 188/188/188 189/189/189
v -560.000000 116.500000 328.500000
v -560.000000 -116.500000 328.500000
v 560.000000 -116.500000 328.500000
vt 0.000000 0.000000
vt 2.330000 0.000000
vt 2.330000 11.200000
vn 0.000000 0.000000 1.000000
vn 0.000000 0.000000 1.000000
vn 0.000000 0.000000 1.000000
f 190/190/190 191/191/191 192/192/192
v -560.000000 116.500000 319.500000
v -560.000000 -116.500000 319.500000
v -580.000000 -96.500000 319.500000
vt 0.000000 0.000000
vt 2.330000 0.000000
vt 2.130000 0.200000
vn 0.000000 -0.000000 -1.000000
vn 0.000000 -0.000000 -1.000000
vn 0.000000 -0.000000 -1.000000
f 193/193/193 194/194/194 195/195/195
v -560.000000 116.500000 328.500000
v -580.000000 -96.500000 328.500000
v -560.000000 -116.500000 328.500000
vt 0.000000 0.000000
vt 2.139369 0.000000
vt 2.319796 0.217821
vn 0.000000 0.000000 1.000000
vn 0.000000 0.000000 1.000000
vn 0.000000 0.000000 1.000000
f 196/196/196 197/197/197 198/198/198
v -560.000000 116.500000 319.500000
v -580.000000 -96.500000 319.500000
v -580.000000 96.500000 319.500000
vt 0.000000 0.000000
vt 2.139369 0.000000
vt 0.217821 0.180427
vn 0.000000 0.000000 -1.000000
vn 0.000000 0.000000 -1.000000
vn 0.000000 0.000000 -1.000000
f 199/199/199 200/200/200 201/201/201
v -560.000000 116.500000 328.500000
v -580.000000 96.500000 328.500000
v -580.000000 -96.500000 328.500000
vt 0.000000 0.000000
vt 0.282843 0.000000
vt 1.647559 1.364716
vn 0.000000 0.000000 1.000000
vn 0.000000 0.000000 1.000000
vn 0.000000 0.000000 1.000000
f 202/202/202 203/203/203 204/204/204
v -560.000000 116.500000 319.500000
v 560.000000 116.500000 328.500000
v 560.000000 116.500000 319.500000
vt 0.000000 0.000000
vt 11.200362 0.000000
vt 11.199638 0.089997
vn 0.000000 1.000000 0.000000
vn 0.000000 1.000000 0.000000
vn 0.000000 1.000000 0.000000
f 205/205/205 206/206/206 207/207/207
v -560.000000 116.500000 319.500000
v -560.000000 116.500000 328.500000
v 560.000000 116.500000 328.500000
vt 0.000000 0.000000
vt 0.090000 0.000000
vt 0.090000 11.200000
vn 0.000000 1.000000 0.000000
vn 0.000000 1.000000 0.000000
vn 0.000000 1.000000 0.000000
f 208/208/208 209/209/209 210/210/210
v 560.000000 116.500000 319.500000
v 580.000000 96.500000 328.500000
v 580.000000 96.500000 319.500000
vt 0.000000 0.000000
vt 0.296816 0.000000
vt 0.269527 0.085763
vn 0.707107 0.707107 0.000000
vn 0.707107 0.707107 0.000000
vn 0.707107 0.707107 0.000000
f 211/211/211 212/212/212 213/213/213
v 560.000000 116.500000 319.500000
v 560.000000 116.500000 328.500000
v 580.000000 96.500000 328.500000
vt 0.000000 0.000000
vt 0.090000 0.000000
vt 0.090000 0.282843
vn 0.707107 0.707107 -0.000000
vn 0.707107 0.707107 -0.000000
vn 0.707107 0.707107 -0.000000
f 214/214/214 215/215/215 216/216/216
v 580.000000 96.500000 319.500000
v 580.000000 -96.500000 328.500000
v 580.000000 -96.500000 319.500000
vt 0.000000 0.000000
vt 1.932097 0.000000
vt 1.927905 0.089902
vn 1.000000 0.000000 0.000000
vn 1.000000 0.000000 0.000000
vn 1.000000 0.000000 0.000000
f 217/217/217 218/218/218 219/219/219
v 580.000000 96.500000 319.500000
v 580.000000 96.500000 328.500000
v 580.000000 -96.500000 328.500000
vt 0.000000 0.000000
vt 0.090000 0.000000
vt 0.090000 1.930000
vn 1.000000 0.000000 -0.000000
vn 1.000000 0.000000 -0.000000
vn 1.000000 0.000000 -0.000000
f 220/220/220 221/221/221 222/222/222
v 580.000000 -96.500000 319.500000
v 560.000000 -116.500000 328.500000
v 560.000000 -116.500000 319.500000
vt 0.000000 0.000000
vt 0.296816 0.000000
vt 0.269527 0.085763
vn 0.707107 -0.707107 0.000000
vn 0.707107 -0.707107 0.000000
vn 0.707107 -0.707107 0.000000
f 223/223/223 224/224/224 225/225/225
v 580.000000 -96.500000 319.500000
v 580.000000 -96.500000 328.500000
v 560.000000 -116.500000 328.500000
vt 0.000000 0.000000
vt 0.090000 0.000000
vt 0.090000 0.282843
vn 0.707107 -0.707107 0.000000
vn 0.707107 -0.707107 0.000000
vn 0.707107 -0.707107 0.000000
f 226/226/226 227/227/227 228/228/228
v 560.000000 -116.500000 319.500000
v -560.000000 -116.500000 328.500000
v -560.000000 -116.500000 319.500000
vt 0.000000 0.000000
vt 11.200362 0.000000
vt 11.199638 0.089997
vn 0.000000 -1.000000 0.000000
vn 0.000000 -1.000000 0.000000
vn 0.000000 -1.000000 0.000000
f 229/229/229 230/230/230 231/231/231
v 560.000000 -116.500000 319.500000
v 560.000000 -116.500000 328.500000
v -560.000000 -116.500000 328.500000
vt 0.000000 0.000000
vt 0.090000 0.000000
vt 0.090000 11.200000
vn 0.000000 -1.000000 0.000000
vn 0.000000 -1.000000 0.000000
vn 0.000000 -1.000000 0.000000
f 232/232/232 233/233/233 234/234/234
v -560.000000 -116.500000 319.500000
v -580.000000 -96.500000 328.500000
v -580.000000 -96.500000 319.500000
vt 0.000000 0.000000
vt 0.296816 0.000000
vt 0.269527 0.085763
vn -0.707107 -0.707107 0.000000
vn -0.707107 -0.707107 0.000000
vn -0.707107 -0.707107 0.000000
f 235/235/235 236/236/236 237/237/237
v -560.000000 -116.500000 319.500000
v -560.000000 -116.500000 328.500000
v -580.000000 -96.500000 328.500000
vt 0.000000 0.000000
vt 0.090000 0.000000
vt 0.090000 0.282843
vn -0.707107 -0.707107 0.000000
vn -0.707107 -0.707107 0.000000
vn -0.707107 -0.707107 0.000000
f 238/238/238 239/239/239 240/240/240
v -580.000000 -96.500000 319.500000
v -580.000000 96.500000 328.500000
v -580.000000 96.500000 319.500000
vt 0.000000 0.000000
vt 1.932097 0.000000
vt 1.927905 0.089902
vn -1.000000 0.000000 0.000000
vn -1.000000 0.000000 0.000000
vn -1.000000 0.000000 0.000000
f 241/241/241 242/242/242 243/243/243
v -580.000000 -96.500000 319.500000
v -580.000000 -96.500000 328.500000
v -580.000000 96.500000 328.500000
vt 0.000000 0.000000
vt 0.090000 0.000000
vt 0.090000 1.930000
vn -1.000000 0.000000 0.000000
vn -1.000000 0.000000 0.000000
vn -1.000000 0.000000 0.000000
f 244/244/244 245/245/245 246/246/246
v -580.000000 96.500000 319.500000
v -560.000000 116.500000 328.500000
v -560.000000 116.500000 319.500000
vt 0.000000 0.000000
vt 0.296816 0.000000
vt 0.269527 0.085763
vn -0.707107 0.707107 0.000000
vn -0.707107 0.707107 0.000000
vn -0.707107 0.707107 0.000000
f 247/247/247 248/248/248 249/249/249
v -580.000000 96.500000 319.500000
v -580.000000 96.500000 328.500000
v -560.000000 116.500000 328.500000
vt 0.000000 0.000000
vt 0.090000 0.000000
vt 0.090000 0.282843
vn -0.707107 0.707107 0.000000
vn -0.707107 0.707107 0.000000
vn -0.707107 0.707107 0.000000
f 250/250/250 251/251/251 252/252/252
