# VehiclesV3 SM_VehiclesV3_TramMid_Paint; centimetres; Unreal legacy OBJ adapter: canonical vertices are UE cm; this file is written with Y reflected and triangle winding reversed, and the importer reflects Y back. Reflection and winding reversal each negate the signed volume, so the two cancel and the file-space signed volume stays POSITIVE; the self-test asserts that on a unit cube rather than asserting a sign from memory. Never apply a second reflection or unit conversion.
o SM_VehiclesV3_TramMid_Paint
g BodyLower
s off
v -310.000000 120.000000 35.000000
v 310.000000 120.000000 35.000000
v 320.000000 110.000000 35.000000
vt 0.000000 0.000000
vt 6.200000 0.000000
vt 6.300000 0.100000
vn 0.000000 0.000000 -1.000000
vn 0.000000 0.000000 -1.000000
vn 0.000000 0.000000 -1.000000
f 1/1/1 2/2/2 3/3/3
v -310.000000 120.000000 118.000000
v 320.000000 110.000000 118.000000
v 310.000000 120.000000 118.000000
vt 0.000000 0.000000
vt 6.300794 0.000000
vt 6.199219 0.098400
vn -0.000000 0.000000 1.000000
vn -0.000000 0.000000 1.000000
vn -0.000000 0.000000 1.000000
f 4/4/4 5/5/5 6/6/6
v -310.000000 120.000000 35.000000
v 320.000000 110.000000 35.000000
v 320.000000 -110.000000 35.000000
vt 0.000000 0.000000
vt 6.300794 0.000000
vt 6.335710 2.199723
vn 0.000000 0.000000 -1.000000
vn 0.000000 0.000000 -1.000000
vn 0.000000 0.000000 -1.000000
f 7/7/7 8/8/8 9/9/9
v -310.000000 120.000000 118.000000
v 320.000000 -110.000000 118.000000
v 320.000000 110.000000 118.000000
vt 0.000000 0.000000
vt 6.706713 0.000000
vt 5.952245 2.066586
vn 0.000000 0.000000 1.000000
vn 0.000000 0.000000 1.000000
vn 0.000000 0.000000 1.000000
f 10/10/10 11/11/11 12/12/12
v -310.000000 120.000000 35.000000
v 320.000000 -110.000000 35.000000
v 310.000000 -120.000000 35.000000
vt 0.000000 0.000000
vt 6.706713 0.000000
vt 6.647071 0.128230
vn 0.000000 0.000000 -1.000000
vn 0.000000 0.000000 -1.000000
vn 0.000000 0.000000 -1.000000
f 13/13/13 14/14/14 15/15/15
v -310.000000 120.000000 118.000000
v 310.000000 -120.000000 118.000000
v 320.000000 -110.000000 118.000000
vt 0.000000 0.000000
vt 6.648308 0.000000
vt 6.705465 0.129356
vn 0.000000 0.000000 1.000000
vn 0.000000 0.000000 1.000000
vn 0.000000 0.000000 1.000000
f 16/16/16 17/17/17 18/18/18
v -310.000000 120.000000 35.000000
v 310.000000 -120.000000 35.000000
v -310.000000 -120.000000 35.000000
vt 0.000000 0.000000
vt 6.648308 0.000000
vt 0.866386 2.238163
vn 0.000000 0.000000 -1.000000
vn 0.000000 0.000000 -1.000000
vn 0.000000 0.000000 -1.000000
f 19/19/19 20/20/20 21/21/21
v -310.000000 120.000000 118.000000
v -310.000000 -120.000000 118.000000
v 310.000000 -120.000000 118.000000
vt 0.000000 0.000000
vt 2.400000 0.000000
vt 2.400000 6.200000
vn 0.000000 0.000000 1.000000
vn 0.000000 0.000000 1.000000
vn 0.000000 0.000000 1.000000
f 22/22/22 23/23/23 24/24/24
v -310.000000 120.000000 35.000000
v -310.000000 -120.000000 35.000000
v -320.000000 -110.000000 35.000000
vt 0.000000 0.000000
vt 2.400000 0.000000
vt 2.300000 0.100000
vn 0.000000 -0.000000 -1.000000
vn 0.000000 -0.000000 -1.000000
vn 0.000000 -0.000000 -1.000000
f 25/25/25 26/26/26 27/27/27
v -310.000000 120.000000 118.000000
v -320.000000 -110.000000 118.000000
v -310.000000 -120.000000 118.000000
vt 0.000000 0.000000
vt 2.302173 0.000000
vt 2.397735 0.104249
vn 0.000000 0.000000 1.000000
vn 0.000000 0.000000 1.000000
vn 0.000000 0.000000 1.000000
f 28/28/28 29/29/29 30/30/30
v -310.000000 120.000000 35.000000
v -320.000000 -110.000000 35.000000
v -320.000000 110.000000 35.000000
vt 0.000000 0.000000
vt 2.302173 0.000000
vt 0.104249 0.095562
vn 0.000000 0.000000 -1.000000
vn 0.000000 0.000000 -1.000000
vn 0.000000 0.000000 -1.000000
f 31/31/31 32/32/32 33/33/33
v -310.000000 120.000000 118.000000
v -320.000000 110.000000 118.000000
v -320.000000 -110.000000 118.000000
vt 0.000000 0.000000
vt 0.141421 0.000000
vt 1.697056 1.555635
vn 0.000000 0.000000 1.000000
vn 0.000000 0.000000 1.000000
vn 0.000000 0.000000 1.000000
f 34/34/34 35/35/35 36/36/36
v -310.000000 120.000000 35.000000
v 310.000000 120.000000 118.000000
v 310.000000 120.000000 35.000000
vt 0.000000 0.000000
vt 6.255310 0.000000
vt 6.145179 0.822661
vn 0.000000 1.000000 0.000000
vn 0.000000 1.000000 0.000000
vn 0.000000 1.000000 0.000000
f 37/37/37 38/38/38 39/39/39
v -310.000000 120.000000 35.000000
v -310.000000 120.000000 118.000000
v 310.000000 120.000000 118.000000
vt 0.000000 0.000000
vt 0.830000 0.000000
vt 0.830000 6.200000
vn 0.000000 1.000000 0.000000
vn 0.000000 1.000000 0.000000
vn 0.000000 1.000000 0.000000
f 40/40/40 41/41/41 42/42/42
v 310.000000 120.000000 35.000000
v 320.000000 110.000000 118.000000
v 320.000000 110.000000 35.000000
vt 0.000000 0.000000
vt 0.841962 0.000000
vt 0.023754 0.139412
vn 0.707107 0.707107 0.000000
vn 0.707107 0.707107 0.000000
vn 0.707107 0.707107 0.000000
f 43/43/43 44/44/44 45/45/45
v 310.000000 120.000000 35.000000
v 310.000000 120.000000 118.000000
v 320.000000 110.000000 118.000000
vt 0.000000 0.000000
vt 0.830000 0.000000
vt 0.830000 0.141421
vn 0.707107 0.707107 -0.000000
vn 0.707107 0.707107 -0.000000
vn 0.707107 0.707107 -0.000000
f 46/46/46 47/47/47 48/48/48
v 320.000000 110.000000 35.000000
v 320.000000 -110.000000 118.000000
v 320.000000 -110.000000 35.000000
vt 0.000000 0.000000
vt 2.351361 0.000000
vt 2.058382 0.776571
vn 1.000000 0.000000 0.000000
vn 1.000000 0.000000 0.000000
vn 1.000000 0.000000 0.000000
f 49/49/49 50/50/50 51/51/51
v 320.000000 110.000000 35.000000
v 320.000000 110.000000 118.000000
v 320.000000 -110.000000 118.000000
vt 0.000000 0.000000
vt 0.830000 0.000000
vt 0.830000 2.200000
vn 1.000000 0.000000 -0.000000
vn 1.000000 0.000000 -0.000000
vn 1.000000 0.000000 -0.000000
f 52/52/52 53/53/53 54/54/54
v 320.000000 -110.000000 35.000000
v 310.000000 -120.000000 118.000000
v 310.000000 -120.000000 35.000000
vt 0.000000 0.000000
vt 0.841962 0.000000
vt 0.023754 0.139412
vn 0.707107 -0.707107 0.000000
vn 0.707107 -0.707107 0.000000
vn 0.707107 -0.707107 0.000000
f 55/55/55 56/56/56 57/57/57
v 320.000000 -110.000000 35.000000
v 320.000000 -110.000000 118.000000
v 310.000000 -120.000000 118.000000
vt 0.000000 0.000000
vt 0.830000 0.000000
vt 0.830000 0.141421
vn 0.707107 -0.707107 0.000000
vn 0.707107 -0.707107 0.000000
vn 0.707107 -0.707107 0.000000
f 58/58/58 59/59/59 60/60/60
v 310.000000 -120.000000 35.000000
v -310.000000 -120.000000 118.000000
v -310.000000 -120.000000 35.000000
vt 0.000000 0.000000
vt 6.255310 0.000000
vt 6.145179 0.822661
vn 0.000000 -1.000000 0.000000
vn 0.000000 -1.000000 0.000000
vn 0.000000 -1.000000 0.000000
f 61/61/61 62/62/62 63/63/63
v 310.000000 -120.000000 35.000000
v 310.000000 -120.000000 118.000000
v -310.000000 -120.000000 118.000000
vt 0.000000 0.000000
vt 0.830000 0.000000
vt 0.830000 6.200000
vn 0.000000 -1.000000 0.000000
vn 0.000000 -1.000000 0.000000
vn 0.000000 -1.000000 0.000000
f 64/64/64 65/65/65 66/66/66
v -310.000000 -120.000000 35.000000
v -320.000000 -110.000000 118.000000
v -320.000000 -110.000000 35.000000
vt 0.000000 0.000000
vt 0.841962 0.000000
vt 0.023754 0.139412
vn -0.707107 -0.707107 0.000000
vn -0.707107 -0.707107 0.000000
vn -0.707107 -0.707107 0.000000
f 67/67/67 68/68/68 69/69/69
v -310.000000 -120.000000 35.000000
v -310.000000 -120.000000 118.000000
v -320.000000 -110.000000 118.000000
vt 0.000000 0.000000
vt 0.830000 0.000000
vt 0.830000 0.141421
vn -0.707107 -0.707107 0.000000
vn -0.707107 -0.707107 0.000000
vn -0.707107 -0.707107 0.000000
f 70/70/70 71/71/71 72/72/72
v -320.000000 -110.000000 35.000000
v -320.000000 110.000000 118.000000
v -320.000000 110.000000 35.000000
vt 0.000000 0.000000
vt 2.351361 0.000000
vt 2.058382 0.776571
vn -1.000000 0.000000 0.000000
vn -1.000000 0.000000 0.000000
vn -1.000000 0.000000 0.000000
f 73/73/73 74/74/74 75/75/75
v -320.000000 -110.000000 35.000000
v -320.000000 -110.000000 118.000000
v -320.000000 110.000000 118.000000
vt 0.000000 0.000000
vt 0.830000 0.000000
vt 0.830000 2.200000
vn -1.000000 0.000000 0.000000
vn -1.000000 0.000000 0.000000
vn -1.000000 0.000000 0.000000
f 76/76/76 77/77/77 78/78/78
v -320.000000 110.000000 35.000000
v -310.000000 120.000000 118.000000
v -310.000000 120.000000 35.000000
vt 0.000000 0.000000
vt 0.841962 0.000000
vt 0.023754 0.139412
vn -0.707107 0.707107 0.000000
vn -0.707107 0.707107 0.000000
vn -0.707107 0.707107 0.000000
f 79/79/79 80/80/80 81/81/81
v -320.000000 110.000000 35.000000
v -320.000000 110.000000 118.000000
v -310.000000 120.000000 118.000000
vt 0.000000 0.000000
vt 0.830000 0.000000
vt 0.830000 0.141421
vn -0.707107 0.707107 0.000000
vn -0.707107 0.707107 0.000000
vn -0.707107 0.707107 0.000000
f 82/82/82 83/83/83 84/84/84
g BodyUpper
s off
v -306.000000 118.000000 118.000000
v 306.000000 118.000000 118.000000
v 318.000000 106.000000 118.000000
vt 0.000000 0.000000
vt 6.120000 0.000000
vt 6.240000 0.120000
vn 0.000000 0.000000 -1.000000
vn 0.000000 0.000000 -1.000000
vn 0.000000 0.000000 -1.000000
f 85/85/85 86/86/86 87/87/87
v -306.000000 118.000000 335.000000
v 318.000000 106.000000 335.000000
v 306.000000 118.000000 335.000000
vt 0.000000 0.000000
vt 6.241154 0.000000
vt 6.118869 0.117671
vn -0.000000 0.000000 1.000000
vn -0.000000 0.000000 1.000000
vn -0.000000 0.000000 1.000000
f 88/88/88 89/89/89 90/90/90
v -306.000000 118.000000 118.000000
v 318.000000 106.000000 118.000000
v 318.000000 -106.000000 118.000000
vt 0.000000 0.000000
vt 6.241154 0.000000
vt 6.281915 2.119608
vn 0.000000 0.000000 -1.000000
vn 0.000000 0.000000 -1.000000
vn 0.000000 0.000000 -1.000000
f 91/91/91 92/92/92 93/93/93
v -306.000000 118.000000 335.000000
v 318.000000 -106.000000 335.000000
v 318.000000 106.000000 335.000000
vt 0.000000 0.000000
vt 6.629872 0.000000
vt 5.913599 1.995333
vn 0.000000 0.000000 1.000000
vn 0.000000 0.000000 1.000000
vn 0.000000 0.000000 1.000000
f 94/94/94 95/95/95 96/96/96
v -306.000000 118.000000 118.000000
v 318.000000 -106.000000 118.000000
v 306.000000 -118.000000 118.000000
vt 0.000000 0.000000
vt 6.629872 0.000000
vt 6.557472 0.153487
vn 0.000000 0.000000 -1.000000
vn 0.000000 0.000000 -1.000000
vn 0.000000 0.000000 -1.000000
f 97/97/97 98/98/98 99/99/99
v -306.000000 118.000000 335.000000
v 306.000000 -118.000000 335.000000
v 318.000000 -106.000000 335.000000
vt 0.000000 0.000000
vt 6.559268 0.000000
vt 6.628056 0.155139
vn 0.000000 0.000000 1.000000
vn 0.000000 0.000000 1.000000
vn 0.000000 0.000000 1.000000
f 100/100/100 101/101/101 102/102/102
v -306.000000 118.000000 118.000000
v 306.000000 -118.000000 118.000000
v -306.000000 -118.000000 118.000000
vt 0.000000 0.000000
vt 6.559268 0.000000
vt 0.849119 2.201953
vn 0.000000 0.000000 -1.000000
vn 0.000000 0.000000 -1.000000
vn 0.000000 0.000000 -1.000000
f 103/103/103 104/104/104 105/105/105
v -306.000000 118.000000 335.000000
v -306.000000 -118.000000 335.000000
v 306.000000 -118.000000 335.000000
vt 0.000000 0.000000
vt 2.360000 0.000000
vt 2.360000 6.120000
vn 0.000000 0.000000 1.000000
vn 0.000000 0.000000 1.000000
vn 0.000000 0.000000 1.000000
f 106/106/106 107/107/107 108/108/108
v -306.000000 118.000000 118.000000
v -306.000000 -118.000000 118.000000
v -318.000000 -106.000000 118.000000
vt 0.000000 0.000000
vt 2.360000 0.000000
vt 2.240000 0.120000
vn 0.000000 -0.000000 -1.000000
vn 0.000000 -0.000000 -1.000000
vn 0.000000 -0.000000 -1.000000
f 109/109/109 110/110/110 111/111/111
v -306.000000 118.000000 335.000000
v -318.000000 -106.000000 335.000000
v -306.000000 -118.000000 335.000000
vt 0.000000 0.000000
vt 2.243212 0.000000
vt 2.356621 0.126248
vn 0.000000 0.000000 1.000000
vn 0.000000 0.000000 1.000000
vn 0.000000 0.000000 1.000000
f 112/112/112 113/113/113 114/114/114
v -306.000000 118.000000 118.000000
v -318.000000 -106.000000 118.000000
v -318.000000 106.000000 118.000000
vt 0.000000 0.000000
vt 2.243212 0.000000
vt 0.126248 0.113409
vn 0.000000 0.000000 -1.000000
vn 0.000000 0.000000 -1.000000
vn 0.000000 0.000000 -1.000000
f 115/115/115 116/116/116 117/117/117
v -306.000000 118.000000 335.000000
v -318.000000 106.000000 335.000000
v -318.000000 -106.000000 335.000000
vt 0.000000 0.000000
vt 0.169706 0.000000
vt 1.668772 1.499066
vn 0.000000 0.000000 1.000000
vn 0.000000 0.000000 1.000000
vn 0.000000 0.000000 1.000000
f 118/118/118 119/119/119 120/120/120
v -306.000000 118.000000 118.000000
v 306.000000 118.000000 335.000000
v 306.000000 118.000000 118.000000
vt 0.000000 0.000000
vt 6.493327 0.000000
vt 5.768137 2.045238
vn 0.000000 1.000000 0.000000
vn 0.000000 1.000000 0.000000
vn 0.000000 1.000000 0.000000
f 121/121/121 122/122/122 123/123/123
v -306.000000 118.000000 118.000000
v -306.000000 118.000000 335.000000
v 306.000000 118.000000 335.000000
vt 0.000000 0.000000
vt 2.170000 0.000000
vt 2.170000 6.120000
vn 0.000000 1.000000 0.000000
vn 0.000000 1.000000 0.000000
vn 0.000000 1.000000 0.000000
f 124/124/124 125/125/125 126/126/126
v 306.000000 118.000000 118.000000
v 318.000000 106.000000 335.000000
v 318.000000 106.000000 118.000000
vt 0.000000 0.000000
vt 2.176626 0.000000
vt 0.013231 0.169189
vn 0.707107 0.707107 0.000000
vn 0.707107 0.707107 0.000000
vn 0.707107 0.707107 0.000000
f 127/127/127 128/128/128 129/129/129
v 306.000000 118.000000 118.000000
v 306.000000 118.000000 335.000000
v 318.000000 106.000000 335.000000
vt 0.000000 0.000000
vt 2.170000 0.000000
vt 2.170000 0.169706
vn 0.707107 0.707107 -0.000000
vn 0.707107 0.707107 -0.000000
vn 0.707107 0.707107 -0.000000
f 130/130/130 131/131/131 132/132/132
v 318.000000 106.000000 118.000000
v 318.000000 -106.000000 335.000000
v 318.000000 -106.000000 118.000000
vt 0.000000 0.000000
vt 3.033694 0.000000
vt 1.481494 1.516435
vn 1.000000 0.000000 0.000000
vn 1.000000 0.000000 0.000000
vn 1.000000 0.000000 0.000000
f 133/133/133 134/134/134 135/135/135
v 318.000000 106.000000 118.000000
v 318.000000 106.000000 335.000000
v 318.000000 -106.000000 335.000000
vt 0.000000 0.000000
vt 2.170000 0.000000
vt 2.170000 2.120000
vn 1.000000 0.000000 -0.000000
vn 1.000000 0.000000 -0.000000
vn 1.000000 0.000000 -0.000000
f 136/136/136 137/137/137 138/138/138
v 318.000000 -106.000000 118.000000
v 306.000000 -118.000000 335.000000
v 306.000000 -118.000000 118.000000
vt 0.000000 0.000000
vt 2.176626 0.000000
vt 0.013231 0.169189
vn 0.707107 -0.707107 0.000000
vn 0.707107 -0.707107 0.000000
vn 0.707107 -0.707107 0.000000
f 139/139/139 140/140/140 141/141/141
v 318.000000 -106.000000 118.000000
v 318.000000 -106.000000 335.000000
v 306.000000 -118.000000 335.000000
vt 0.000000 0.000000
vt 2.170000 0.000000
vt 2.170000 0.169706
vn 0.707107 -0.707107 0.000000
vn 0.707107 -0.707107 0.000000
vn 0.707107 -0.707107 0.000000
f 142/142/142 143/143/143 144/144/144
v 306.000000 -118.000000 118.000000
v -306.000000 -118.000000 335.000000
v -306.000000 -118.000000 118.000000
vt 0.000000 0.000000
vt 6.493327 0.000000
vt 5.768137 2.045238
vn 0.000000 -1.000000 0.000000
vn 0.000000 -1.000000 0.000000
vn 0.000000 -1.000000 0.000000
f 145/145/145 146/146/146 147/147/147
v 306.000000 -118.000000 118.000000
v 306.000000 -118.000000 335.000000
v -306.000000 -118.000000 335.000000
vt 0.000000 0.000000
vt 2.170000 0.000000
vt 2.170000 6.120000
vn 0.000000 -1.000000 0.000000
vn 0.000000 -1.000000 0.000000
vn 0.000000 -1.000000 0.000000
f 148/148/148 149/149/149 150/150/150
v -306.000000 -118.000000 118.000000
v -318.000000 -106.000000 335.000000
v -318.000000 -106.000000 118.000000
vt 0.000000 0.000000
vt 2.176626 0.000000
vt 0.013231 0.169189
vn -0.707107 -0.707107 0.000000
vn -0.707107 -0.707107 0.000000
vn -0.707107 -0.707107 0.000000
f 151/151/151 152/152/152 153/153/153
v -306.000000 -118.000000 118.000000
v -306.000000 -118.000000 335.000000
v -318.000000 -106.000000 335.000000
vt 0.000000 0.000000
vt 2.170000 0.000000
vt 2.170000 0.169706
vn -0.707107 -0.707107 0.000000
vn -0.707107 -0.707107 0.000000
vn -0.707107 -0.707107 0.000000
f 154/154/154 155/155/155 156/156/156
v -318.000000 -106.000000 118.000000
v -318.000000 106.000000 335.000000
v -318.000000 106.000000 118.000000
vt 0.000000 0.000000
vt 3.033694 0.000000
vt 1.481494 1.516435
vn -1.000000 0.000000 0.000000
vn -1.000000 0.000000 0.000000
vn -1.000000 0.000000 0.000000
f 157/157/157 158/158/158 159/159/159
v -318.000000 -106.000000 118.000000
v -318.000000 -106.000000 335.000000
v -318.000000 106.000000 335.000000
vt 0.000000 0.000000
vt 2.170000 0.000000
vt 2.170000 2.120000
vn -1.000000 0.000000 0.000000
vn -1.000000 0.000000 0.000000
vn -1.000000 0.000000 0.000000
f 160/160/160 161/161/161 162/162/162
v -318.000000 106.000000 118.000000
v -306.000000 118.000000 335.000000
v -306.000000 118.000000 118.000000
vt 0.000000 0.000000
vt 2.176626 0.000000
vt 0.013231 0.169189
vn -0.707107 0.707107 0.000000
vn -0.707107 0.707107 0.000000
vn -0.707107 0.707107 0.000000
f 163/163/163 164/164/164 165/165/165
v -318.000000 106.000000 118.000000
v -318.000000 106.000000 335.000000
v -306.000000 118.000000 335.000000
vt 0.000000 0.000000
vt 2.170000 0.000000
vt 2.170000 0.169706
vn -0.707107 0.707107 0.000000
vn -0.707107 0.707107 0.000000
vn -0.707107 0.707107 0.000000
f 166/166/166 167/167/167 168/168/168
g Roof
s off
v -292.000000 111.000000 334.500000
v 292.000000 111.000000 334.500000
v 308.000000 95.000000 334.500000
vt 0.000000 0.000000
vt 5.840000 0.000000
vt 6.000000 0.160000
vn 0.000000 0.000000 -1.000000
vn 0.000000 0.000000 -1.000000
vn 0.000000 0.000000 -1.000000
f 169/169/169 170/170/170 171/171/171
v -292.000000 111.000000 341.500000
v 308.000000 95.000000 341.500000
v 292.000000 111.000000 341.500000
vt 0.000000 0.000000
vt 6.002133 0.000000
vt 5.837925 0.155678
vn -0.000000 0.000000 1.000000
vn -0.000000 0.000000 1.000000
vn -0.000000 0.000000 1.000000
f 172/172/172 173/173/173 174/174/174
v -292.000000 111.000000 334.500000
v 308.000000 95.000000 334.500000
v 308.000000 -95.000000 334.500000
vt 0.000000 0.000000
vt 6.002133 0.000000
vt 6.052782 1.899325
vn 0.000000 0.000000 -1.000000
vn 0.000000 0.000000 -1.000000
vn 0.000000 0.000000 -1.000000
f 175/175/175 176/176/176 177/177/177
v -292.000000 111.000000 341.500000
v 308.000000 -95.000000 341.500000
v 308.000000 95.000000 341.500000
vt 0.000000 0.000000
vt 6.343784 0.000000
vt 5.726802 1.797035
vn 0.000000 0.000000 1.000000
vn 0.000000 0.000000 1.000000
vn 0.000000 0.000000 1.000000
f 178/178/178 179/179/179 180/180/180
v -292.000000 111.000000 334.500000
v 308.000000 -95.000000 334.500000
v 292.000000 -111.000000 334.500000
vt 0.000000 0.000000
vt 6.343784 0.000000
vt 6.244411 0.203286
vn 0.000000 0.000000 -1.000000
vn 0.000000 0.000000 -1.000000
vn 0.000000 0.000000 -1.000000
f 181/181/181 182/182/182 183/183/183
v -292.000000 111.000000 341.500000
v 292.000000 -111.000000 341.500000
v 308.000000 -95.000000 341.500000
vt 0.000000 0.000000
vt 6.247720 0.000000
vt 6.340425 0.206411
vn 0.000000 0.000000 1.000000
vn 0.000000 0.000000 1.000000
vn 0.000000 0.000000 1.000000
f 184/184/184 185/185/185 186/186/186
v -292.000000 111.000000 334.500000
v 292.000000 -111.000000 334.500000
v -292.000000 -111.000000 334.500000
vt 0.000000 0.000000
vt 6.247720 0.000000
vt 0.788832 2.075125
vn 0.000000 0.000000 -1.000000
vn 0.000000 0.000000 -1.000000
vn 0.000000 0.000000 -1.000000
f 187/187/187 188/188/188 189/189/189
v -292.000000 111.000000 341.500000
v -292.000000 -111.000000 341.500000
v 292.000000 -111.000000 341.500000
vt 0.000000 0.000000
vt 2.220000 0.000000
vt 2.220000 5.840000
vn 0.000000 0.000000 1.000000
vn 0.000000 0.000000 1.000000
vn 0.000000 0.000000 1.000000
f 190/190/190 191/191/191 192/192/192
v -292.000000 111.000000 334.500000
v -292.000000 -111.000000 334.500000
v -308.000000 -95.000000 334.500000
vt 0.000000 0.000000
vt 2.220000 0.000000
vt 2.060000 0.160000
vn 0.000000 -0.000000 -1.000000
vn 0.000000 -0.000000 -1.000000
vn 0.000000 -0.000000 -1.000000
f 193/193/193 194/194/194 195/195/195
v -292.000000 111.000000 341.500000
v -308.000000 -95.000000 341.500000
v -292.000000 -111.000000 341.500000
vt 0.000000 0.000000
vt 2.066204 0.000000
vt 2.213334 0.171909
vn 0.000000 0.000000 1.000000
vn 0.000000 0.000000 1.000000
vn 0.000000 0.000000 1.000000
f 196/196/196 197/197/197 198/198/198
v -292.000000 111.000000 334.500000
v -308.000000 -95.000000 334.500000
v -308.000000 95.000000 334.500000
vt 0.000000 0.000000
vt 2.066204 0.000000
vt 0.171909 0.147130
vn 0.000000 0.000000 -1.000000
vn 0.000000 0.000000 -1.000000
vn 0.000000 0.000000 -1.000000
f 199/199/199 200/200/200 201/201/201
v -292.000000 111.000000 341.500000
v -308.000000 95.000000 341.500000
v -308.000000 -95.000000 341.500000
vt 0.000000 0.000000
vt 0.226274 0.000000
vt 1.569777 1.343503
vn 0.000000 0.000000 1.000000
vn 0.000000 0.000000 1.000000
vn 0.000000 0.000000 1.000000
f 202/202/202 203/203/203 204/204/204
v -292.000000 111.000000 334.500000
v 292.000000 111.000000 341.500000
v 292.000000 111.000000 334.500000
vt 0.000000 0.000000
vt 5.840420 0.000000
vt 5.839581 0.069995
vn 0.000000 1.000000 0.000000
vn 0.000000 1.000000 0.000000
vn 0.000000 1.000000 0.000000
f 205/205/205 206/206/206 207/207/207
v -292.000000 111.000000 334.500000
v -292.000000 111.000000 341.500000
v 292.000000 111.000000 341.500000
vt 0.000000 0.000000
vt 0.070000 0.000000
vt 0.070000 5.840000
vn 0.000000 1.000000 0.000000
vn 0.000000 1.000000 0.000000
vn 0.000000 1.000000 0.000000
f 208/208/208 209/209/209 210/210/210
v 292.000000 111.000000 334.500000
v 308.000000 95.000000 341.500000
v 308.000000 95.000000 334.500000
vt 0.000000 0.000000
vt 0.236854 0.000000
vt 0.216167 0.066873
vn 0.707107 0.707107 0.000000
vn 0.707107 0.707107 0.000000
vn 0.707107 0.707107 0.000000
f 211/211/211 212/212/212 213/213/213
v 292.000000 111.000000 334.500000
v 292.000000 111.000000 341.500000
v 308.000000 95.000000 341.500000
vt 0.000000 0.000000
vt 0.070000 0.000000
vt 0.070000 0.226274
vn 0.707107 0.707107 -0.000000
vn 0.707107 0.707107 -0.000000
vn 0.707107 0.707107 -0.000000
f 214/214/214 215/215/215 216/216/216
v 308.000000 95.000000 334.500000
v 308.000000 -95.000000 341.500000
v 308.000000 -95.000000 334.500000
vt 0.000000 0.000000
vt 1.901289 0.000000
vt 1.898712 0.069953
vn 1.000000 0.000000 0.000000
vn 1.000000 0.000000 0.000000
vn 1.000000 0.000000 0.000000
f 217/217/217 218/218/218 219/219/219
v 308.000000 95.000000 334.500000
v 308.000000 95.000000 341.500000
v 308.000000 -95.000000 341.500000
vt 0.000000 0.000000
vt 0.070000 0.000000
vt 0.070000 1.900000
vn 1.000000 0.000000 -0.000000
vn 1.000000 0.000000 -0.000000
vn 1.000000 0.000000 -0.000000
f 220/220/220 221/221/221 222/222/222
v 308.000000 -95.000000 334.500000
v 292.000000 -111.000000 341.500000
v 292.000000 -111.000000 334.500000
vt 0.000000 0.000000
vt 0.236854 0.000000
vt 0.216167 0.066873
vn 0.707107 -0.707107 0.000000
vn 0.707107 -0.707107 0.000000
vn 0.707107 -0.707107 0.000000
f 223/223/223 224/224/224 225/225/225
v 308.000000 -95.000000 334.500000
v 308.000000 -95.000000 341.500000
v 292.000000 -111.000000 341.500000
vt 0.000000 0.000000
vt 0.070000 0.000000
vt 0.070000 0.226274
vn 0.707107 -0.707107 0.000000
vn 0.707107 -0.707107 0.000000
vn 0.707107 -0.707107 0.000000
f 226/226/226 227/227/227 228/228/228
v 292.000000 -111.000000 334.500000
v -292.000000 -111.000000 341.500000
v -292.000000 -111.000000 334.500000
vt 0.000000 0.000000
vt 5.840420 0.000000
vt 5.839581 0.069995
vn 0.000000 -1.000000 0.000000
vn 0.000000 -1.000000 0.000000
vn 0.000000 -1.000000 0.000000
f 229/229/229 230/230/230 231/231/231
v 292.000000 -111.000000 334.500000
v 292.000000 -111.000000 341.500000
v -292.000000 -111.000000 341.500000
vt 0.000000 0.000000
vt 0.070000 0.000000
vt 0.070000 5.840000
vn 0.000000 -1.000000 0.000000
vn 0.000000 -1.000000 0.000000
vn 0.000000 -1.000000 0.000000
f 232/232/232 233/233/233 234/234/234
v -292.000000 -111.000000 334.500000
v -308.000000 -95.000000 341.500000
v -308.000000 -95.000000 334.500000
vt 0.000000 0.000000
vt 0.236854 0.000000
vt 0.216167 0.066873
vn -0.707107 -0.707107 0.000000
vn -0.707107 -0.707107 0.000000
vn -0.707107 -0.707107 0.000000
f 235/235/235 236/236/236 237/237/237
v -292.000000 -111.000000 334.500000
v -292.000000 -111.000000 341.500000
v -308.000000 -95.000000 341.500000
vt 0.000000 0.000000
vt 0.070000 0.000000
vt 0.070000 0.226274
vn -0.707107 -0.707107 0.000000
vn -0.707107 -0.707107 0.000000
vn -0.707107 -0.707107 0.000000
f 238/238/238 239/239/239 240/240/240
v -308.000000 -95.000000 334.500000
v -308.000000 95.000000 341.500000
v -308.000000 95.000000 334.500000
vt 0.000000 0.000000
vt 1.901289 0.000000
vt 1.898712 0.069953
vn -1.000000 0.000000 0.000000
vn -1.000000 0.000000 0.000000
vn -1.000000 0.000000 0.000000
f 241/241/241 242/242/242 243/243/243
v -308.000000 -95.000000 334.500000
v -308.000000 -95.000000 341.500000
v -308.000000 95.000000 341.500000
vt 0.000000 0.000000
vt 0.070000 0.000000
vt 0.070000 1.900000
vn -1.000000 0.000000 0.000000
vn -1.000000 0.000000 0.000000
vn -1.000000 0.000000 0.000000
f 244/244/244 245/245/245 246/246/246
v -308.000000 95.000000 334.500000
v -292.000000 111.000000 341.500000
v -292.000000 111.000000 334.500000
vt 0.000000 0.000000
vt 0.236854 0.000000
vt 0.216167 0.066873
vn -0.707107 0.707107 0.000000
vn -0.707107 0.707107 0.000000
vn -0.707107 0.707107 0.000000
f 247/247/247 248/248/248 249/249/249
v -308.000000 95.000000 334.500000
v -308.000000 95.000000 341.500000
v -292.000000 111.000000 341.500000
vt 0.000000 0.000000
vt 0.070000 0.000000
vt 0.070000 0.226274
vn -0.707107 0.707107 0.000000
vn -0.707107 0.707107 0.000000
vn -0.707107 0.707107 0.000000
f 250/250/250 251/251/251 252/252/252
