# VehiclesV3 SM_VehiclesV3_CarVan_Paint; centimetres; Unreal legacy OBJ adapter: canonical vertices are UE cm; this file is written with Y reflected and triangle winding reversed, and the importer reflects Y back. Reflection and winding reversal each negate the signed volume, so the two cancel and the file-space signed volume stays POSITIVE; the self-test asserts that on a unit cube rather than asserting a sign from memory. Never apply a second reflection or unit conversion.
o SM_VehiclesV3_CarVan_Paint
g BodyFront
s off
v 191.000000 95.000000 24.000000
v 191.000000 -95.000000 24.000000
v 191.000000 -95.000000 104.000000
vt 0.000000 0.000000
vt 1.900000 0.000000
vt 1.900000 0.800000
vn -1.000000 0.000000 0.000000
vn -1.000000 0.000000 0.000000
vn -1.000000 0.000000 0.000000
f 1/1/1 2/2/2 3/3/3
v 245.000000 85.500000 28.000000
v 245.000000 -85.500000 98.000000
v 245.000000 -85.500000 28.000000
vt 0.000000 0.000000
vt 1.847728 0.000000
vt 1.582538 0.647823
vn 1.000000 0.000000 0.000000
vn 1.000000 0.000000 0.000000
vn 1.000000 0.000000 0.000000
f 4/4/4 5/5/5 6/6/6
v 191.000000 95.000000 24.000000
v 191.000000 -95.000000 104.000000
v 191.000000 95.000000 104.000000
vt 0.000000 0.000000
vt 2.061553 0.000000
vt 0.310446 0.737308
vn -1.000000 0.000000 0.000000
vn -1.000000 0.000000 0.000000
vn -1.000000 0.000000 0.000000
f 7/7/7 8/8/8 9/9/9
v 245.000000 85.500000 28.000000
v 245.000000 85.500000 98.000000
v 245.000000 -85.500000 98.000000
vt 0.000000 0.000000
vt 0.700000 0.000000
vt 0.700000 1.710000
vn 1.000000 0.000000 -0.000000
vn 1.000000 0.000000 -0.000000
vn 1.000000 0.000000 -0.000000
f 10/10/10 11/11/11 12/12/12
v 191.000000 95.000000 24.000000
v 245.000000 -85.500000 28.000000
v 191.000000 -95.000000 24.000000
vt 0.000000 0.000000
vt 1.884469 0.000000
vt 1.819876 0.545942
vn 0.073872 0.000000 -0.997268
vn 0.073872 0.000000 -0.997268
vn 0.073872 0.000000 -0.997268
f 13/13/13 14/14/14 15/15/15
v 191.000000 95.000000 24.000000
v 245.000000 85.500000 28.000000
v 245.000000 -85.500000 28.000000
vt 0.000000 0.000000
vt 0.549750 0.000000
vt 0.845248 1.684275
vn 0.073872 0.000000 -0.997268
vn 0.073872 0.000000 -0.997268
vn 0.073872 0.000000 -0.997268
f 16/16/16 17/17/17 18/18/18
v 191.000000 -95.000000 24.000000
v 245.000000 -85.500000 98.000000
v 191.000000 -95.000000 104.000000
vt 0.000000 0.000000
vt 0.920991 0.000000
vt 0.642786 0.476263
vn 0.173265 -0.984875 0.000000
vn 0.173265 -0.984875 0.000000
vn 0.173265 -0.984875 0.000000
f 19/19/19 20/20/20 21/21/21
v 191.000000 -95.000000 24.000000
v 245.000000 -85.500000 28.000000
v 245.000000 -85.500000 98.000000
vt 0.000000 0.000000
vt 0.549750 0.000000
vt 0.600682 0.698145
vn 0.173265 -0.984875 0.000000
vn 0.173265 -0.984875 0.000000
vn 0.173265 -0.984875 0.000000
f 22/22/22 23/23/23 24/24/24
v 191.000000 -95.000000 104.000000
v 245.000000 85.500000 98.000000
v 191.000000 95.000000 104.000000
vt 0.000000 0.000000
vt 1.885000 0.000000
vt 1.819363 0.547647
vn 0.110432 -0.000000 0.993884
vn 0.110432 -0.000000 0.993884
vn 0.110432 -0.000000 0.993884
f 25/25/25 26/26/26 27/27/27
v 191.000000 -95.000000 104.000000
v 245.000000 -85.500000 98.000000
v 245.000000 85.500000 98.000000
vt 0.000000 0.000000
vt 0.551566 0.000000
vt 0.846091 1.684445
vn 0.110432 0.000000 0.993884
vn 0.110432 0.000000 0.993884
vn 0.110432 0.000000 0.993884
f 28/28/28 29/29/29 30/30/30
v 191.000000 95.000000 104.000000
v 245.000000 85.500000 28.000000
v 191.000000 95.000000 24.000000
vt 0.000000 0.000000
vt 0.937137 0.000000
vt 0.648785 0.468058
vn 0.173265 0.984875 0.000000
vn 0.173265 0.984875 0.000000
vn 0.173265 0.984875 0.000000
f 31/31/31 32/32/32 33/33/33
v 191.000000 95.000000 104.000000
v 245.000000 85.500000 98.000000
v 245.000000 85.500000 28.000000
vt 0.000000 0.000000
vt 0.551566 0.000000
vt 0.627713 0.695846
vn 0.173265 0.984875 0.000000
vn 0.173265 0.984875 0.000000
vn 0.173265 0.984875 0.000000
f 34/34/34 35/35/35 36/36/36
g BodyCentre
s off
v -215.000000 95.000000 24.000000
v -215.000000 -95.000000 24.000000
v -215.000000 -95.000000 104.000000
vt 0.000000 0.000000
vt 1.900000 0.000000
vt 1.900000 0.800000
vn -1.000000 0.000000 0.000000
vn -1.000000 0.000000 0.000000
vn -1.000000 0.000000 0.000000
f 37/37/37 38/38/38 39/39/39
v 191.000000 95.000000 24.000000
v 191.000000 -95.000000 104.000000
v 191.000000 -95.000000 24.000000
vt 0.000000 0.000000
vt 2.061553 0.000000
vt 1.751107 0.737308
vn 1.000000 0.000000 0.000000
vn 1.000000 0.000000 0.000000
vn 1.000000 0.000000 0.000000
f 40/40/40 41/41/41 42/42/42
v -215.000000 95.000000 24.000000
v -215.000000 -95.000000 104.000000
v -215.000000 95.000000 104.000000
vt 0.000000 0.000000
vt 2.061553 0.000000
vt 0.310446 0.737308
vn -1.000000 0.000000 0.000000
vn -1.000000 0.000000 0.000000
vn -1.000000 0.000000 0.000000
f 43/43/43 44/44/44 45/45/45
v 191.000000 95.000000 24.000000
v 191.000000 95.000000 104.000000
v 191.000000 -95.000000 104.000000
vt 0.000000 0.000000
vt 0.800000 0.000000
vt 0.800000 1.900000
vn 1.000000 0.000000 -0.000000
vn 1.000000 0.000000 -0.000000
vn 1.000000 0.000000 -0.000000
f 46/46/46 47/47/47 48/48/48
v -215.000000 95.000000 24.000000
v 191.000000 -95.000000 24.000000
v -215.000000 -95.000000 24.000000
vt 0.000000 0.000000
vt 4.482589 0.000000
vt 0.805338 1.720881
vn 0.000000 0.000000 -1.000000
vn 0.000000 0.000000 -1.000000
vn 0.000000 0.000000 -1.000000
f 49/49/49 50/50/50 51/51/51
v -215.000000 95.000000 24.000000
v 191.000000 95.000000 24.000000
v 191.000000 -95.000000 24.000000
vt 0.000000 0.000000
vt 4.060000 0.000000
vt 4.060000 1.900000
vn 0.000000 0.000000 -1.000000
vn 0.000000 0.000000 -1.000000
vn 0.000000 0.000000 -1.000000
f 52/52/52 53/53/53 54/54/54
v -215.000000 -95.000000 24.000000
v 191.000000 -95.000000 104.000000
v -215.000000 -95.000000 104.000000
vt 0.000000 0.000000
vt 4.138067 0.000000
vt 0.154662 0.784908
vn 0.000000 -1.000000 0.000000
vn 0.000000 -1.000000 0.000000
vn 0.000000 -1.000000 0.000000
f 55/55/55 56/56/56 57/57/57
v -215.000000 -95.000000 24.000000
v 191.000000 -95.000000 24.000000
v 191.000000 -95.000000 104.000000
vt 0.000000 0.000000
vt 4.060000 0.000000
vt 4.060000 0.800000
vn 0.000000 -1.000000 0.000000
vn 0.000000 -1.000000 0.000000
vn 0.000000 -1.000000 0.000000
f 58/58/58 59/59/59 60/60/60
v -215.000000 -95.000000 104.000000
v 191.000000 95.000000 104.000000
v -215.000000 95.000000 104.000000
vt 0.000000 0.000000
vt 4.482589 0.000000
vt 0.805338 1.720881
vn 0.000000 0.000000 1.000000
vn 0.000000 0.000000 1.000000
vn 0.000000 0.000000 1.000000
f 61/61/61 62/62/62 63/63/63
v -215.000000 -95.000000 104.000000
v 191.000000 -95.000000 104.000000
v 191.000000 95.000000 104.000000
vt 0.000000 0.000000
vt 4.060000 0.000000
vt 4.060000 1.900000
vn 0.000000 0.000000 1.000000
vn 0.000000 0.000000 1.000000
vn 0.000000 0.000000 1.000000
f 64/64/64 65/65/65 66/66/66
v -215.000000 95.000000 104.000000
v 191.000000 95.000000 24.000000
v -215.000000 95.000000 24.000000
vt 0.000000 0.000000
vt 4.138067 0.000000
vt 0.154662 0.784908
vn 0.000000 1.000000 0.000000
vn 0.000000 1.000000 0.000000
vn 0.000000 1.000000 0.000000
f 67/67/67 68/68/68 69/69/69
v -215.000000 95.000000 104.000000
v 191.000000 95.000000 104.000000
v 191.000000 95.000000 24.000000
vt 0.000000 0.000000
vt 4.060000 0.000000
vt 4.060000 0.800000
vn -0.000000 1.000000 0.000000
vn -0.000000 1.000000 0.000000
vn -0.000000 1.000000 0.000000
f 70/70/70 71/71/71 72/72/72
g BodyRear
s off
v -245.000000 85.500000 28.000000
v -245.000000 -85.500000 28.000000
v -245.000000 -85.500000 98.000000
vt 0.000000 0.000000
vt 1.710000 0.000000
vt 1.710000 0.700000
vn -1.000000 0.000000 0.000000
vn -1.000000 0.000000 0.000000
vn -1.000000 0.000000 0.000000
f 73/73/73 74/74/74 75/75/75
v -215.000000 95.000000 24.000000
v -215.000000 -95.000000 104.000000
v -215.000000 -95.000000 24.000000
vt 0.000000 0.000000
vt 2.061553 0.000000
vt 1.751107 0.737308
vn 1.000000 0.000000 0.000000
vn 1.000000 0.000000 0.000000
vn 1.000000 0.000000 0.000000
f 76/76/76 77/77/77 78/78/78
v -245.000000 85.500000 28.000000
v -245.000000 -85.500000 98.000000
v -245.000000 85.500000 98.000000
vt 0.000000 0.000000
vt 1.847728 0.000000
vt 0.265190 0.647823
vn -1.000000 0.000000 0.000000
vn -1.000000 0.000000 0.000000
vn -1.000000 0.000000 0.000000
f 79/79/79 80/80/80 81/81/81
v -215.000000 95.000000 24.000000
v -215.000000 95.000000 104.000000
v -215.000000 -95.000000 104.000000
vt 0.000000 0.000000
vt 0.800000 0.000000
vt 0.800000 1.900000
vn 1.000000 0.000000 -0.000000
vn 1.000000 0.000000 -0.000000
vn 1.000000 0.000000 -0.000000
f 82/82/82 83/83/83 84/84/84
v -245.000000 85.500000 28.000000
v -215.000000 -95.000000 24.000000
v -245.000000 -85.500000 28.000000
vt 0.000000 0.000000
vt 1.830198 0.000000
vt 1.686457 0.282778
vn -0.132164 -0.000000 -0.991228
vn -0.132164 -0.000000 -0.991228
vn -0.132164 -0.000000 -0.991228
f 85/85/85 86/86/86 87/87/87
v -245.000000 85.500000 28.000000
v -215.000000 95.000000 24.000000
v -215.000000 -95.000000 24.000000
vt 0.000000 0.000000
vt 0.317214 0.000000
vt -0.251801 1.812794
vn -0.132164 0.000000 -0.991228
vn -0.132164 0.000000 -0.991228
vn -0.132164 0.000000 -0.991228
f 88/88/88 89/89/89 90/90/90
v -245.000000 -85.500000 28.000000
v -215.000000 -95.000000 104.000000
v -245.000000 -85.500000 98.000000
vt 0.000000 0.000000
vt 0.822572 0.000000
vt 0.646752 0.267791
vn -0.301892 -0.953342 0.000000
vn -0.301892 -0.953342 0.000000
vn -0.301892 -0.953342 0.000000
f 91/91/91 92/92/92 93/93/93
v -245.000000 -85.500000 28.000000
v -215.000000 -95.000000 24.000000
v -215.000000 -95.000000 104.000000
vt 0.000000 0.000000
vt 0.317214 0.000000
vt 0.216336 0.793614
vn -0.301892 -0.953342 0.000000
vn -0.301892 -0.953342 0.000000
vn -0.301892 -0.953342 0.000000
f 94/94/94 95/95/95 96/96/96
v -245.000000 -85.500000 98.000000
v -215.000000 95.000000 104.000000
v -245.000000 85.500000 98.000000
vt 0.000000 0.000000
vt 1.830744 0.000000
vt 1.685954 0.285763
vn -0.196116 0.000000 0.980581
vn -0.196116 0.000000 0.980581
vn -0.196116 0.000000 0.980581
f 97/97/97 98/98/98 99/99/99
v -245.000000 -85.500000 98.000000
v -215.000000 -95.000000 104.000000
v -215.000000 95.000000 104.000000
vt 0.000000 0.000000
vt 0.320351 0.000000
vt -0.243092 1.814533
vn -0.196116 0.000000 0.980581
vn -0.196116 0.000000 0.980581
vn -0.196116 0.000000 0.980581
f 100/100/100 101/101/101 102/102/102
v -245.000000 85.500000 98.000000
v -215.000000 95.000000 24.000000
v -245.000000 85.500000 28.000000
vt 0.000000 0.000000
vt 0.804130 0.000000
vt 0.644174 0.273933
vn -0.301892 0.953342 0.000000
vn -0.301892 0.953342 0.000000
vn -0.301892 0.953342 0.000000
f 103/103/103 104/104/104 105/105/105
v -245.000000 85.500000 98.000000
v -215.000000 95.000000 104.000000
v -215.000000 95.000000 24.000000
vt 0.000000 0.000000
vt 0.320351 0.000000
vt 0.170516 0.785843
vn -0.301892 0.953342 0.000000
vn -0.301892 0.953342 0.000000
vn -0.301892 0.953342 0.000000
f 106/106/106 107/107/107 108/108/108
g Roof
s off
v -207.000000 91.300000 195.500000
v 97.000000 91.300000 195.500000
v 103.000000 85.300000 195.500000
vt 0.000000 0.000000
vt 3.040000 0.000000
vt 3.100000 0.060000
vn 0.000000 0.000000 -1.000000
vn 0.000000 0.000000 -1.000000
vn 0.000000 0.000000 -1.000000
f 109/109/109 110/110/110 111/111/111
v -207.000000 91.300000 200.500000
v 103.000000 85.300000 200.500000
v 97.000000 91.300000 200.500000
vt 0.000000 0.000000
vt 3.100581 0.000000
vt 3.039431 0.058828
vn -0.000000 0.000000 1.000000
vn -0.000000 0.000000 1.000000
vn -0.000000 0.000000 1.000000
f 112/112/112 113/113/113 114/114/114
v -207.000000 91.300000 195.500000
v 103.000000 85.300000 195.500000
v 103.000000 -85.300000 195.500000
vt 0.000000 0.000000
vt 3.100581 0.000000
vt 3.133594 1.705681
vn 0.000000 0.000000 -1.000000
vn 0.000000 0.000000 -1.000000
vn 0.000000 0.000000 -1.000000
f 115/115/115 116/116/116 117/117/117
v -207.000000 91.300000 200.500000
v 103.000000 -85.300000 200.500000
v 103.000000 85.300000 200.500000
vt 0.000000 0.000000
vt 3.567738 0.000000
vt 2.723283 1.482340
vn 0.000000 0.000000 1.000000
vn 0.000000 0.000000 1.000000
vn 0.000000 0.000000 1.000000
f 118/118/118 119/119/119 120/120/120
v -207.000000 91.300000 195.500000
v 103.000000 -85.300000 195.500000
v 97.000000 -91.300000 195.500000
vt 0.000000 0.000000
vt 3.567738 0.000000
vt 3.545304 0.081833
vn 0.000000 0.000000 -1.000000
vn 0.000000 0.000000 -1.000000
vn 0.000000 0.000000 -1.000000
f 121/121/121 122/122/122 123/123/123
v -207.000000 91.300000 200.500000
v 97.000000 -91.300000 200.500000
v 103.000000 -85.300000 200.500000
vt 0.000000 0.000000
vt 3.546248 0.000000
vt 3.566788 0.082329
vn 0.000000 0.000000 1.000000
vn 0.000000 0.000000 1.000000
vn 0.000000 0.000000 1.000000
f 124/124/124 125/125/125 126/126/126
v -207.000000 91.300000 195.500000
v 97.000000 -91.300000 195.500000
v -207.000000 -91.300000 195.500000
vt 0.000000 0.000000
vt 3.546248 0.000000
vt 0.940226 1.565328
vn 0.000000 0.000000 -1.000000
vn 0.000000 0.000000 -1.000000
vn 0.000000 0.000000 -1.000000
f 127/127/127 128/128/128 129/129/129
v -207.000000 91.300000 200.500000
v -207.000000 -91.300000 200.500000
v 97.000000 -91.300000 200.500000
vt 0.000000 0.000000
vt 1.826000 0.000000
vt 1.826000 3.040000
vn 0.000000 0.000000 1.000000
vn 0.000000 0.000000 1.000000
vn 0.000000 0.000000 1.000000
f 130/130/130 131/131/131 132/132/132
v -207.000000 91.300000 195.500000
v -207.000000 -91.300000 195.500000
v -213.000000 -85.300000 195.500000
vt 0.000000 0.000000
vt 1.826000 0.000000
vt 1.766000 0.060000
vn 0.000000 -0.000000 -1.000000
vn 0.000000 -0.000000 -1.000000
vn 0.000000 -0.000000 -1.000000
f 133/133/133 134/134/134 135/135/135
v -207.000000 91.300000 200.500000
v -213.000000 -85.300000 200.500000
v -207.000000 -91.300000 200.500000
vt 0.000000 0.000000
vt 1.767019 0.000000
vt 1.824947 0.062003
vn 0.000000 0.000000 1.000000
vn 0.000000 0.000000 1.000000
vn 0.000000 0.000000 1.000000
f 136/136/136 137/137/137 138/138/138
v -207.000000 91.300000 195.500000
v -213.000000 -85.300000 195.500000
v -213.000000 85.300000 195.500000
vt 0.000000 0.000000
vt 1.767019 0.000000
vt 0.062003 0.057928
vn 0.000000 0.000000 -1.000000
vn 0.000000 0.000000 -1.000000
vn 0.000000 0.000000 -1.000000
f 139/139/139 140/140/140 141/141/141
v -207.000000 91.300000 200.500000
v -213.000000 85.300000 200.500000
v -213.000000 -85.300000 200.500000
vt 0.000000 0.000000
vt 0.084853 0.000000
vt 1.291177 1.206324
vn 0.000000 0.000000 1.000000
vn 0.000000 0.000000 1.000000
vn 0.000000 0.000000 1.000000
f 142/142/142 143/143/143 144/144/144
v -207.000000 91.300000 195.500000
v 97.000000 91.300000 200.500000
v 97.000000 91.300000 195.500000
vt 0.000000 0.000000
vt 3.040411 0.000000
vt 3.039589 0.049993
vn 0.000000 1.000000 0.000000
vn 0.000000 1.000000 0.000000
vn 0.000000 1.000000 0.000000
f 145/145/145 146/146/146 147/147/147
v -207.000000 91.300000 195.500000
v -207.000000 91.300000 200.500000
v 97.000000 91.300000 200.500000
vt 0.000000 0.000000
vt 0.050000 0.000000
vt 0.050000 3.040000
vn 0.000000 1.000000 0.000000
vn 0.000000 1.000000 0.000000
vn 0.000000 1.000000 0.000000
f 148/148/148 149/149/149 150/150/150
v 97.000000 91.300000 195.500000
v 103.000000 85.300000 200.500000
v 103.000000 85.300000 195.500000
vt 0.000000 0.000000
vt 0.098489 0.000000
vt 0.073105 0.043077
vn 0.707107 0.707107 0.000000
vn 0.707107 0.707107 0.000000
vn 0.707107 0.707107 0.000000
f 151/151/151 152/152/152 153/153/153
v 97.000000 91.300000 195.500000
v 97.000000 91.300000 200.500000
v 103.000000 85.300000 200.500000
vt 0.000000 0.000000
vt 0.050000 0.000000
vt 0.050000 0.084853
vn 0.707107 0.707107 -0.000000
vn 0.707107 0.707107 -0.000000
vn 0.707107 0.707107 -0.000000
f 154/154/154 155/155/155 156/156/156
v 103.000000 85.300000 195.500000
v 103.000000 -85.300000 200.500000
v 103.000000 -85.300000 195.500000
vt 0.000000 0.000000
vt 1.706733 0.000000
vt 1.705268 0.049979
vn 1.000000 0.000000 0.000000
vn 1.000000 0.000000 0.000000
vn 1.000000 0.000000 0.000000
f 157/157/157 158/158/158 159/159/159
v 103.000000 85.300000 195.500000
v 103.000000 85.300000 200.500000
v 103.000000 -85.300000 200.500000
vt 0.000000 0.000000
vt 0.050000 0.000000
vt 0.050000 1.706000
vn 1.000000 0.000000 -0.000000
vn 1.000000 0.000000 -0.000000
vn 1.000000 0.000000 -0.000000
f 160/160/160 161/161/161 162/162/162
v 103.000000 -85.300000 195.500000
v 97.000000 -91.300000 200.500000
v 97.000000 -91.300000 195.500000
vt 0.000000 0.000000
vt 0.098489 0.000000
vt 0.073105 0.043077
vn 0.707107 -0.707107 0.000000
vn 0.707107 -0.707107 0.000000
vn 0.707107 -0.707107 0.000000
f 163/163/163 164/164/164 165/165/165
v 103.000000 -85.300000 195.500000
v 103.000000 -85.300000 200.500000
v 97.000000 -91.300000 200.500000
vt 0.000000 0.000000
vt 0.050000 0.000000
vt 0.050000 0.084853
vn 0.707107 -0.707107 0.000000
vn 0.707107 -0.707107 0.000000
vn 0.707107 -0.707107 0.000000
f 166/166/166 167/167/167 168/168/168
v 97.000000 -91.300000 195.500000
v -207.000000 -91.300000 200.500000
v -207.000000 -91.300000 195.500000
vt 0.000000 0.000000
vt 3.040411 0.000000
vt 3.039589 0.049993
vn 0.000000 -1.000000 0.000000
vn 0.000000 -1.000000 0.000000
vn 0.000000 -1.000000 0.000000
f 169/169/169 170/170/170 171/171/171
v 97.000000 -91.300000 195.500000
v 97.000000 -91.300000 200.500000
v -207.000000 -91.300000 200.500000
vt 0.000000 0.000000
vt 0.050000 0.000000
vt 0.050000 3.040000
vn 0.000000 -1.000000 0.000000
vn 0.000000 -1.000000 0.000000
vn 0.000000 -1.000000 0.000000
f 172/172/172 173/173/173 174/174/174
v -207.000000 -91.300000 195.500000
v -213.000000 -85.300000 200.500000
v -213.000000 -85.300000 195.500000
vt 0.000000 0.000000
vt 0.098489 0.000000
vt 0.073105 0.043077
vn -0.707107 -0.707107 0.000000
vn -0.707107 -0.707107 0.000000
vn -0.707107 -0.707107 0.000000
f 175/175/175 176/176/176 177/177/177
v -207.000000 -91.300000 195.500000
v -207.000000 -91.300000 200.500000
v -213.000000 -85.300000 200.500000
vt 0.000000 0.000000
vt 0.050000 0.000000
vt 0.050000 0.084853
vn -0.707107 -0.707107 0.000000
vn -0.707107 -0.707107 0.000000
vn -0.707107 -0.707107 0.000000
f 178/178/178 179/179/179 180/180/180
v -213.000000 -85.300000 195.500000
v -213.000000 85.300000 200.500000
v -213.000000 85.300000 195.500000
vt 0.000000 0.000000
vt 1.706733 0.000000
vt 1.705268 0.049979
vn -1.000000 0.000000 0.000000
vn -1.000000 0.000000 0.000000
vn -1.000000 0.000000 0.000000
f 181/181/181 182/182/182 183/183/183
v -213.000000 -85.300000 195.500000
v -213.000000 -85.300000 200.500000
v -213.000000 85.300000 200.500000
vt 0.000000 0.000000
vt 0.050000 0.000000
vt 0.050000 1.706000
vn -1.000000 0.000000 0.000000
vn -1.000000 0.000000 0.000000
vn -1.000000 0.000000 0.000000
f 184/184/184 185/185/185 186/186/186
v -213.000000 85.300000 195.500000
v -207.000000 91.300000 200.500000
v -207.000000 91.300000 195.500000
vt 0.000000 0.000000
vt 0.098489 0.000000
vt 0.073105 0.043077
vn -0.707107 0.707107 0.000000
vn -0.707107 0.707107 0.000000
vn -0.707107 0.707107 0.000000
f 187/187/187 188/188/188 189/189/189
v -213.000000 85.300000 195.500000
v -213.000000 85.300000 200.500000
v -207.000000 91.300000 200.500000
vt 0.000000 0.000000
vt 0.050000 0.000000
vt 0.050000 0.084853
vn -0.707107 0.707107 0.000000
vn -0.707107 0.707107 0.000000
vn -0.707107 0.707107 0.000000
f 190/190/190 191/191/191 192/192/192
