# VehiclesV3 SM_VehiclesV3_TramMid_Glass; centimetres; Unreal legacy OBJ adapter: canonical vertices are UE cm; this file is written with Y reflected and triangle winding reversed, and the importer reflects Y back. Reflection and winding reversal each negate the signed volume, so the two cancel and the file-space signed volume stays POSITIVE; the self-test asserts that on a unit cube rather than asserting a sign from memory. Never apply a second reflection or unit conversion.
o SM_VehiclesV3_TramMid_Glass
g GlassKerb
s off
v -272.000000 -114.000000 153.000000
v 272.000000 -114.000000 153.000000
v 272.000000 -120.000000 153.000000
vt 0.000000 0.000000
vt 5.440000 0.000000
vt 5.440000 0.060000
vn 0.000000 0.000000 -1.000000
vn 0.000000 0.000000 -1.000000
vn 0.000000 0.000000 -1.000000
f 1/1/1 2/2/2 3/3/3
v -272.000000 -114.000000 308.000000
v 272.000000 -120.000000 308.000000
v 272.000000 -114.000000 308.000000
vt 0.000000 0.000000
vt 5.440331 0.000000
vt 5.439669 0.059996
vn -0.000000 0.000000 1.000000
vn -0.000000 0.000000 1.000000
vn -0.000000 0.000000 1.000000
f 4/4/4 5/5/5 6/6/6
v -272.000000 -114.000000 153.000000
v 272.000000 -120.000000 153.000000
v -272.000000 -120.000000 153.000000
vt 0.000000 0.000000
vt 5.440331 0.000000
vt 0.000662 0.059996
vn 0.000000 0.000000 -1.000000
vn 0.000000 0.000000 -1.000000
vn 0.000000 0.000000 -1.000000
f 7/7/7 8/8/8 9/9/9
v -272.000000 -114.000000 308.000000
v -272.000000 -120.000000 308.000000
v 272.000000 -120.000000 308.000000
vt 0.000000 0.000000
vt 0.060000 0.000000
vt 0.060000 5.440000
vn 0.000000 0.000000 1.000000
vn 0.000000 0.000000 1.000000
vn 0.000000 0.000000 1.000000
f 10/10/10 11/11/11 12/12/12
v -272.000000 -114.000000 153.000000
v 272.000000 -114.000000 308.000000
v 272.000000 -114.000000 153.000000
vt 0.000000 0.000000
vt 5.656510 0.000000
vt 5.231778 1.490672
vn 0.000000 1.000000 0.000000
vn 0.000000 1.000000 0.000000
vn 0.000000 1.000000 0.000000
f 13/13/13 14/14/14 15/15/15
v -272.000000 -114.000000 153.000000
v -272.000000 -114.000000 308.000000
v 272.000000 -114.000000 308.000000
vt 0.000000 0.000000
vt 1.550000 0.000000
vt 1.550000 5.440000
vn 0.000000 1.000000 0.000000
vn 0.000000 1.000000 0.000000
vn 0.000000 1.000000 0.000000
f 16/16/16 17/17/17 18/18/18
v 272.000000 -114.000000 153.000000
v 272.000000 -120.000000 308.000000
v 272.000000 -120.000000 153.000000
vt 0.000000 0.000000
vt 1.551161 0.000000
vt 0.002321 0.059955
vn 1.000000 0.000000 0.000000
vn 1.000000 0.000000 0.000000
vn 1.000000 0.000000 0.000000
f 19/19/19 20/20/20 21/21/21
v 272.000000 -114.000000 153.000000
v 272.000000 -114.000000 308.000000
v 272.000000 -120.000000 308.000000
vt 0.000000 0.000000
vt 1.550000 0.000000
vt 1.550000 0.060000
vn 1.000000 0.000000 -0.000000
vn 1.000000 0.000000 -0.000000
vn 1.000000 0.000000 -0.000000
f 22/22/22 23/23/23 24/24/24
v 272.000000 -120.000000 153.000000
v -272.000000 -120.000000 308.000000
v -272.000000 -120.000000 153.000000
vt 0.000000 0.000000
vt 5.656510 0.000000
vt 5.231778 1.490672
vn 0.000000 -1.000000 0.000000
vn 0.000000 -1.000000 0.000000
vn 0.000000 -1.000000 0.000000
f 25/25/25 26/26/26 27/27/27
v 272.000000 -120.000000 153.000000
v 272.000000 -120.000000 308.000000
v -272.000000 -120.000000 308.000000
vt 0.000000 0.000000
vt 1.550000 0.000000
vt 1.550000 5.440000
vn 0.000000 -1.000000 0.000000
vn 0.000000 -1.000000 0.000000
vn 0.000000 -1.000000 0.000000
f 28/28/28 29/29/29 30/30/30
v -272.000000 -120.000000 153.000000
v -272.000000 -114.000000 308.000000
v -272.000000 -114.000000 153.000000
vt 0.000000 0.000000
vt 1.551161 0.000000
vt 0.002321 0.059955
vn -1.000000 0.000000 0.000000
vn -1.000000 0.000000 0.000000
vn -1.000000 0.000000 0.000000
f 31/31/31 32/32/32 33/33/33
v -272.000000 -120.000000 153.000000
v -272.000000 -120.000000 308.000000
v -272.000000 -114.000000 308.000000
vt 0.000000 0.000000
vt 1.550000 0.000000
vt 1.550000 0.060000
vn -1.000000 0.000000 0.000000
vn -1.000000 0.000000 0.000000
vn -1.000000 0.000000 0.000000
f 34/34/34 35/35/35 36/36/36
g GlassRoad
s off
v -272.000000 120.000000 153.000000
v 272.000000 120.000000 153.000000
v 272.000000 114.000000 153.000000
vt 0.000000 0.000000
vt 5.440000 0.000000
vt 5.440000 0.060000
vn 0.000000 0.000000 -1.000000
vn 0.000000 0.000000 -1.000000
vn 0.000000 0.000000 -1.000000
f 37/37/37 38/38/38 39/39/39
v -272.000000 120.000000 308.000000
v 272.000000 114.000000 308.000000
v 272.000000 120.000000 308.000000
vt 0.000000 0.000000
vt 5.440331 0.000000
vt 5.439669 0.059996
vn -0.000000 0.000000 1.000000
vn -0.000000 0.000000 1.000000
vn -0.000000 0.000000 1.000000
f 40/40/40 41/41/41 42/42/42
v -272.000000 120.000000 153.000000
v 272.000000 114.000000 153.000000
v -272.000000 114.000000 153.000000
vt 0.000000 0.000000
vt 5.440331 0.000000
vt 0.000662 0.059996
vn 0.000000 0.000000 -1.000000
vn 0.000000 0.000000 -1.000000
vn 0.000000 0.000000 -1.000000
f 43/43/43 44/44/44 45/45/45
v -272.000000 120.000000 308.000000
v -272.000000 114.000000 308.000000
v 272.000000 114.000000 308.000000
vt 0.000000 0.000000
vt 0.060000 0.000000
vt 0.060000 5.440000
vn 0.000000 0.000000 1.000000
vn 0.000000 0.000000 1.000000
vn 0.000000 0.000000 1.000000
f 46/46/46 47/47/47 48/48/48
v -272.000000 120.000000 153.000000
v 272.000000 120.000000 308.000000
v 272.000000 120.000000 153.000000
vt 0.000000 0.000000
vt 5.656510 0.000000
vt 5.231778 1.490672
vn 0.000000 1.000000 0.000000
vn 0.000000 1.000000 0.000000
vn 0.000000 1.000000 0.000000
f 49/49/49 50/50/50 51/51/51
v -272.000000 120.000000 153.000000
v -272.000000 120.000000 308.000000
v 272.000000 120.000000 308.000000
vt 0.000000 0.000000
vt 1.550000 0.000000
vt 1.550000 5.440000
vn 0.000000 1.000000 0.000000
vn 0.000000 1.000000 0.000000
vn 0.000000 1.000000 0.000000
f 52/52/52 53/53/53 54/54/54
v 272.000000 120.000000 153.000000
v 272.000000 114.000000 308.000000
v 272.000000 114.000000 153.000000
vt 0.000000 0.000000
vt 1.551161 0.000000
vt 0.002321 0.059955
vn 1.000000 0.000000 0.000000
vn 1.000000 0.000000 0.000000
vn 1.000000 0.000000 0.000000
f 55/55/55 56/56/56 57/57/57
v 272.000000 120.000000 153.000000
v 272.000000 120.000000 308.000000
v 272.000000 114.000000 308.000000
vt 0.000000 0.000000
vt 1.550000 0.000000
vt 1.550000 0.060000
vn 1.000000 0.000000 -0.000000
vn 1.000000 0.000000 -0.000000
vn 1.000000 0.000000 -0.000000
f 58/58/58 59/59/59 60/60/60
v 272.000000 114.000000 153.000000
v -272.000000 114.000000 308.000000
v -272.000000 114.000000 153.000000
vt 0.000000 0.000000
vt 5.656510 0.000000
vt 5.231778 1.490672
vn 0.000000 -1.000000 0.000000
vn 0.000000 -1.000000 0.000000
vn 0.000000 -1.000000 0.000000
f 61/61/61 62/62/62 63/63/63
v 272.000000 114.000000 153.000000
v 272.000000 114.000000 308.000000
v -272.000000 114.000000 308.000000
vt 0.000000 0.000000
vt 1.550000 0.000000
vt 1.550000 5.440000
vn 0.000000 -1.000000 0.000000
vn 0.000000 -1.000000 0.000000
vn 0.000000 -1.000000 0.000000
f 64/64/64 65/65/65 66/66/66
v -272.000000 114.000000 153.000000
v -272.000000 120.000000 308.000000
v -272.000000 120.000000 153.000000
vt 0.000000 0.000000
vt 1.551161 0.000000
vt 0.002321 0.059955
vn -1.000000 0.000000 0.000000
vn -1.000000 0.000000 0.000000
vn -1.000000 0.000000 0.000000
f 67/67/67 68/68/68 69/69/69
v -272.000000 114.000000 153.000000
v -272.000000 114.000000 308.000000
v -272.000000 120.000000 308.000000
vt 0.000000 0.000000
vt 1.550000 0.000000
vt 1.550000 0.060000
vn -1.000000 0.000000 0.000000
vn -1.000000 0.000000 0.000000
vn -1.000000 0.000000 0.000000
f 70/70/70 71/71/71 72/72/72
