# VehiclesV3 SM_VehiclesV3_TramDoorLeaf_Glass; centimetres; Unreal legacy OBJ adapter: canonical vertices are UE cm; this file is written with Y reflected and triangle winding reversed, and the importer reflects Y back. Reflection and winding reversal each negate the signed volume, so the two cancel and the file-space signed volume stays POSITIVE; the self-test asserts that on a unit cube rather than asserting a sign from memory. Never apply a second reflection or unit conversion.
o SM_VehiclesV3_TramDoorLeaf_Glass
g LeafGlass
s off
v -22.500000 4.500000 -56.400000
v 22.500000 4.500000 -56.400000
v 22.500000 -4.500000 -56.400000
vt 0.000000 0.000000
vt 0.450000 0.000000
vt 0.450000 0.090000
vn 0.000000 0.000000 -1.000000
vn 0.000000 0.000000 -1.000000
vn 0.000000 0.000000 -1.000000
f 1/1/1 2/2/2 3/3/3
v -22.500000 4.500000 95.600000
v 22.500000 -4.500000 95.600000
v 22.500000 4.500000 95.600000
vt 0.000000 0.000000
vt 0.458912 0.000000
vt 0.441261 0.088252
vn -0.000000 0.000000 1.000000
vn -0.000000 0.000000 1.000000
vn -0.000000 0.000000 1.000000
f 4/4/4 5/5/5 6/6/6
v -22.500000 4.500000 -56.400000
v 22.500000 -4.500000 -56.400000
v -22.500000 -4.500000 -56.400000
vt 0.000000 0.000000
vt 0.458912 0.000000
vt 0.017650 0.088252
vn 0.000000 0.000000 -1.000000
vn 0.000000 0.000000 -1.000000
vn 0.000000 0.000000 -1.000000
f 7/7/7 8/8/8 9/9/9
v -22.500000 4.500000 95.600000
v -22.500000 -4.500000 95.600000
v 22.500000 -4.500000 95.600000
vt 0.000000 0.000000
vt 0.090000 0.000000
vt 0.090000 0.450000
vn 0.000000 0.000000 1.000000
vn 0.000000 0.000000 1.000000
vn 0.000000 0.000000 1.000000
f 10/10/10 11/11/11 12/12/12
v -22.500000 4.500000 -56.400000
v 22.500000 4.500000 95.600000
v 22.500000 4.500000 -56.400000
vt 0.000000 0.000000
vt 1.585213 0.000000
vt 0.127743 0.431488
vn 0.000000 1.000000 0.000000
vn 0.000000 1.000000 0.000000
vn 0.000000 1.000000 0.000000
f 13/13/13 14/14/14 15/15/15
v -22.500000 4.500000 -56.400000
v -22.500000 4.500000 95.600000
v 22.500000 4.500000 95.600000
vt 0.000000 0.000000
vt 1.520000 0.000000
vt 1.520000 0.450000
vn 0.000000 1.000000 0.000000
vn 0.000000 1.000000 0.000000
vn 0.000000 1.000000 0.000000
f 16/16/16 17/17/17 18/18/18
v 22.500000 4.500000 -56.400000
v 22.500000 -4.500000 95.600000
v 22.500000 -4.500000 -56.400000
vt 0.000000 0.000000
vt 1.522662 0.000000
vt 0.005320 0.089843
vn 1.000000 0.000000 0.000000
vn 1.000000 0.000000 0.000000
vn 1.000000 0.000000 0.000000
f 19/19/19 20/20/20 21/21/21
v 22.500000 4.500000 -56.400000
v 22.500000 4.500000 95.600000
v 22.500000 -4.500000 95.600000
vt 0.000000 0.000000
vt 1.520000 0.000000
vt 1.520000 0.090000
vn 1.000000 0.000000 -0.000000
vn 1.000000 0.000000 -0.000000
vn 1.000000 0.000000 -0.000000
f 22/22/22 23/23/23 24/24/24
v 22.500000 -4.500000 -56.400000
v -22.500000 -4.500000 95.600000
v -22.500000 -4.500000 -56.400000
vt 0.000000 0.000000
vt 1.585213 0.000000
vt 0.127743 0.431488
vn 0.000000 -1.000000 0.000000
vn 0.000000 -1.000000 0.000000
vn 0.000000 -1.000000 0.000000
f 25/25/25 26/26/26 27/27/27
v 22.500000 -4.500000 -56.400000
v 22.500000 -4.500000 95.600000
v -22.500000 -4.500000 95.600000
vt 0.000000 0.000000
vt 1.520000 0.000000
vt 1.520000 0.450000
vn 0.000000 -1.000000 0.000000
vn 0.000000 -1.000000 0.000000
vn 0.000000 -1.000000 0.000000
f 28/28/28 29/29/29 30/30/30
v -22.500000 -4.500000 -56.400000
v -22.500000 4.500000 95.600000
v -22.500000 4.500000 -56.400000
vt 0.000000 0.000000
vt 1.522662 0.000000
vt 0.005320 0.089843
vn -1.000000 0.000000 0.000000
vn -1.000000 0.000000 0.000000
vn -1.000000 0.000000 0.000000
f 31/31/31 32/32/32 33/33/33
v -22.500000 -4.500000 -56.400000
v -22.500000 -4.500000 95.600000
v -22.500000 4.500000 95.600000
vt 0.000000 0.000000
vt 1.520000 0.000000
vt 1.520000 0.090000
vn -1.000000 0.000000 0.000000
vn -1.000000 0.000000 0.000000
vn -1.000000 0.000000 0.000000
f 34/34/34 35/35/35 36/36/36
