# Original illustrative access study; OBJ metres east/north/up
mtllib mount-access.mtl
o KotelApproach_AboveWallPortal_V2
usemtl Limestone
v -134.400000000 -198.224325180 -0.450000000
v -132.600000000 -198.224325180 -0.450000000
v -132.600000000 -197.324325180 -0.450000000
v -134.400000000 -198.224325180 -0.450000000
v -132.600000000 -197.324325180 -0.450000000
v -134.400000000 -197.324325180 -0.450000000
v -134.400000000 -197.324325180 3.200000000
v -132.600000000 -197.324325180 3.200000000
v -132.600000000 -198.224325180 3.200000000
v -134.400000000 -197.324325180 3.200000000
v -132.600000000 -198.224325180 3.200000000
v -134.400000000 -198.224325180 3.200000000
v -134.400000000 -197.324325180 -0.450000000
v -132.600000000 -197.324325180 -0.450000000
v -132.600000000 -197.324325180 3.200000000
v -134.400000000 -197.324325180 -0.450000000
v -132.600000000 -197.324325180 3.200000000
v -134.400000000 -197.324325180 3.200000000
v -132.600000000 -197.324325180 -0.450000000
v -132.600000000 -198.224325180 -0.450000000
v -132.600000000 -198.224325180 3.200000000
v -132.600000000 -197.324325180 -0.450000000
v -132.600000000 -198.224325180 3.200000000
v -132.600000000 -197.324325180 3.200000000
v -132.600000000 -198.224325180 -0.450000000
v -134.400000000 -198.224325180 -0.450000000
v -134.400000000 -198.224325180 3.200000000
v -132.600000000 -198.224325180 -0.450000000
v -134.400000000 -198.224325180 3.200000000
v -132.600000000 -198.224325180 3.200000000
v -134.400000000 -198.224325180 -0.450000000
v -134.400000000 -197.324325180 -0.450000000
v -134.400000000 -197.324325180 3.200000000
v -134.400000000 -198.224325180 -0.450000000
v -134.400000000 -197.324325180 3.200000000
v -134.400000000 -198.224325180 3.200000000
v -134.600000000 -198.224325180 3.000000000
v -132.400000000 -198.224325180 3.000000000
v -132.400000000 -197.224325180 3.000000000
v -134.600000000 -198.224325180 3.000000000
v -132.400000000 -197.224325180 3.000000000
v -134.600000000 -197.224325180 3.000000000
v -134.600000000 -197.224325180 3.400000000
v -132.400000000 -197.224325180 3.400000000
v -132.400000000 -198.224325180 3.400000000
v -134.600000000 -197.224325180 3.400000000
v -132.400000000 -198.224325180 3.400000000
v -134.600000000 -198.224325180 3.400000000
v -134.600000000 -197.224325180 3.000000000
v -132.400000000 -197.224325180 3.000000000
v -132.400000000 -197.224325180 3.400000000
v -134.600000000 -197.224325180 3.000000000
v -132.400000000 -197.224325180 3.400000000
v -134.600000000 -197.224325180 3.400000000
v -132.400000000 -197.224325180 3.000000000
v -132.400000000 -198.224325180 3.000000000
v -132.400000000 -198.224325180 3.400000000
v -132.400000000 -197.224325180 3.000000000
v -132.400000000 -198.224325180 3.400000000
v -132.400000000 -197.224325180 3.400000000
v -132.400000000 -198.224325180 3.000000000
v -134.600000000 -198.224325180 3.000000000
v -134.600000000 -198.224325180 3.400000000
v -132.400000000 -198.224325180 3.000000000
v -134.600000000 -198.224325180 3.400000000
v -132.400000000 -198.224325180 3.400000000
v -134.600000000 -198.224325180 3.000000000
v -134.600000000 -197.224325180 3.000000000
v -134.600000000 -197.224325180 3.400000000
v -134.600000000 -198.224325180 3.000000000
v -134.600000000 -197.224325180 3.400000000
v -134.600000000 -198.224325180 3.400000000
v -134.400000000 -202.124325180 -0.450000000
v -132.600000000 -202.124325180 -0.450000000
v -132.600000000 -201.224325180 -0.450000000
v -134.400000000 -202.124325180 -0.450000000
v -132.600000000 -201.224325180 -0.450000000
v -134.400000000 -201.224325180 -0.450000000
v -134.400000000 -201.224325180 3.200000000
v -132.600000000 -201.224325180 3.200000000
v -132.600000000 -202.124325180 3.200000000
v -134.400000000 -201.224325180 3.200000000
v -132.600000000 -202.124325180 3.200000000
v -134.400000000 -202.124325180 3.200000000
v -134.400000000 -201.224325180 -0.450000000
v -132.600000000 -201.224325180 -0.450000000
v -132.600000000 -201.224325180 3.200000000
v -134.400000000 -201.224325180 -0.450000000
v -132.600000000 -201.224325180 3.200000000
v -134.400000000 -201.224325180 3.200000000
v -132.600000000 -201.224325180 -0.450000000
v -132.600000000 -202.124325180 -0.450000000
v -132.600000000 -202.124325180 3.200000000
v -132.600000000 -201.224325180 -0.450000000
v -132.600000000 -202.124325180 3.200000000
v -132.600000000 -201.224325180 3.200000000
v -132.600000000 -202.124325180 -0.450000000
v -134.400000000 -202.124325180 -0.450000000
v -134.400000000 -202.124325180 3.200000000
v -132.600000000 -202.124325180 -0.450000000
v -134.400000000 -202.124325180 3.200000000
v -132.600000000 -202.124325180 3.200000000
v -134.400000000 -202.124325180 -0.450000000
v -134.400000000 -201.224325180 -0.450000000
v -134.400000000 -201.224325180 3.200000000
v -134.400000000 -202.124325180 -0.450000000
v -134.400000000 -201.224325180 3.200000000
v -134.400000000 -202.124325180 3.200000000
v -134.600000000 -202.224325180 3.000000000
v -132.400000000 -202.224325180 3.000000000
v -132.400000000 -201.224325180 3.000000000
v -134.600000000 -202.224325180 3.000000000
v -132.400000000 -201.224325180 3.000000000
v -134.600000000 -201.224325180 3.000000000
v -134.600000000 -201.224325180 3.400000000
v -132.400000000 -201.224325180 3.400000000
v -132.400000000 -202.224325180 3.400000000
v -134.600000000 -201.224325180 3.400000000
v -132.400000000 -202.224325180 3.400000000
v -134.600000000 -202.224325180 3.400000000
v -134.600000000 -201.224325180 3.000000000
v -132.400000000 -201.224325180 3.000000000
v -132.400000000 -201.224325180 3.400000000
v -134.600000000 -201.224325180 3.000000000
v -132.400000000 -201.224325180 3.400000000
v -134.600000000 -201.224325180 3.400000000
v -132.400000000 -201.224325180 3.000000000
v -132.400000000 -202.224325180 3.000000000
v -132.400000000 -202.224325180 3.400000000
v -132.400000000 -201.224325180 3.000000000
v -132.400000000 -202.224325180 3.400000000
v -132.400000000 -201.224325180 3.400000000
v -132.400000000 -202.224325180 3.000000000
v -134.600000000 -202.224325180 3.000000000
v -134.600000000 -202.224325180 3.400000000
v -132.400000000 -202.224325180 3.000000000
v -134.600000000 -202.224325180 3.400000000
v -132.400000000 -202.224325180 3.400000000
v -134.600000000 -202.224325180 3.000000000
v -134.600000000 -201.224325180 3.000000000
v -134.600000000 -201.224325180 3.400000000
v -134.600000000 -202.224325180 3.000000000
v -134.600000000 -201.224325180 3.400000000
v -134.600000000 -202.224325180 3.400000000
v -134.600000000 -202.224325180 3.200000000
v -132.400000000 -202.224325180 3.200000000
v -132.400000000 -197.224325180 3.200000000
v -134.600000000 -202.224325180 3.200000000
v -132.400000000 -197.224325180 3.200000000
v -134.600000000 -197.224325180 3.200000000
v -134.600000000 -197.224325180 4.000000000
v -132.400000000 -197.224325180 4.000000000
v -132.400000000 -202.224325180 4.000000000
v -134.600000000 -197.224325180 4.000000000
v -132.400000000 -202.224325180 4.000000000
v -134.600000000 -202.224325180 4.000000000
v -134.600000000 -197.224325180 3.200000000
v -132.400000000 -197.224325180 3.200000000
v -132.400000000 -197.224325180 4.000000000
v -134.600000000 -197.224325180 3.200000000
v -132.400000000 -197.224325180 4.000000000
v -134.600000000 -197.224325180 4.000000000
v -132.400000000 -197.224325180 3.200000000
v -132.400000000 -202.224325180 3.200000000
v -132.400000000 -202.224325180 4.000000000
v -132.400000000 -197.224325180 3.200000000
v -132.400000000 -202.224325180 4.000000000
v -132.400000000 -197.224325180 4.000000000
v -132.400000000 -202.224325180 3.200000000
v -134.600000000 -202.224325180 3.200000000
v -134.600000000 -202.224325180 4.000000000
v -132.400000000 -202.224325180 3.200000000
v -134.600000000 -202.224325180 4.000000000
v -132.400000000 -202.224325180 4.000000000
v -134.600000000 -202.224325180 3.200000000
v -134.600000000 -197.224325180 3.200000000
v -134.600000000 -197.224325180 4.000000000
v -134.600000000 -202.224325180 3.200000000
v -134.600000000 -197.224325180 4.000000000
v -134.600000000 -202.224325180 4.000000000
vt -134.400000000 -198.224325180
vt -132.600000000 -197.324325180
vt -132.600000000 -198.224325180
vt -134.400000000 -198.224325180
vt -134.400000000 -197.324325180
vt -132.600000000 -197.324325180
vt -134.400000000 -197.324325180
vt -132.600000000 -198.224325180
vt -132.600000000 -197.324325180
vt -134.400000000 -197.324325180
vt -134.400000000 -198.224325180
vt -132.600000000 -198.224325180
vt -134.400000000 -0.450000000
vt -132.600000000 3.200000000
vt -132.600000000 -0.450000000
vt -134.400000000 -0.450000000
vt -134.400000000 3.200000000
vt -132.600000000 3.200000000
vt -197.324325180 -0.450000000
vt -198.224325180 3.200000000
vt -198.224325180 -0.450000000
vt -197.324325180 -0.450000000
vt -197.324325180 3.200000000
vt -198.224325180 3.200000000
vt -132.600000000 -0.450000000
vt -134.400000000 3.200000000
vt -134.400000000 -0.450000000
vt -132.600000000 -0.450000000
vt -132.600000000 3.200000000
vt -134.400000000 3.200000000
vt -198.224325180 -0.450000000
vt -197.324325180 3.200000000
vt -197.324325180 -0.450000000
vt -198.224325180 -0.450000000
vt -198.224325180 3.200000000
vt -197.324325180 3.200000000
vt -134.600000000 -198.224325180
vt -132.400000000 -197.224325180
vt -132.400000000 -198.224325180
vt -134.600000000 -198.224325180
vt -134.600000000 -197.224325180
vt -132.400000000 -197.224325180
vt -134.600000000 -197.224325180
vt -132.400000000 -198.224325180
vt -132.400000000 -197.224325180
vt -134.600000000 -197.224325180
vt -134.600000000 -198.224325180
vt -132.400000000 -198.224325180
vt -134.600000000 3.000000000
vt -132.400000000 3.400000000
vt -132.400000000 3.000000000
vt -134.600000000 3.000000000
vt -134.600000000 3.400000000
vt -132.400000000 3.400000000
vt -197.224325180 3.000000000
vt -198.224325180 3.400000000
vt -198.224325180 3.000000000
vt -197.224325180 3.000000000
vt -197.224325180 3.400000000
vt -198.224325180 3.400000000
vt -132.400000000 3.000000000
vt -134.600000000 3.400000000
vt -134.600000000 3.000000000
vt -132.400000000 3.000000000
vt -132.400000000 3.400000000
vt -134.600000000 3.400000000
vt -198.224325180 3.000000000
vt -197.224325180 3.400000000
vt -197.224325180 3.000000000
vt -198.224325180 3.000000000
vt -198.224325180 3.400000000
vt -197.224325180 3.400000000
vt -134.400000000 -202.124325180
vt -132.600000000 -201.224325180
vt -132.600000000 -202.124325180
vt -134.400000000 -202.124325180
vt -134.400000000 -201.224325180
vt -132.600000000 -201.224325180
vt -134.400000000 -201.224325180
vt -132.600000000 -202.124325180
vt -132.600000000 -201.224325180
vt -134.400000000 -201.224325180
vt -134.400000000 -202.124325180
vt -132.600000000 -202.124325180
vt -134.400000000 -0.450000000
vt -132.600000000 3.200000000
vt -132.600000000 -0.450000000
vt -134.400000000 -0.450000000
vt -134.400000000 3.200000000
vt -132.600000000 3.200000000
vt -201.224325180 -0.450000000
vt -202.124325180 3.200000000
vt -202.124325180 -0.450000000
vt -201.224325180 -0.450000000
vt -201.224325180 3.200000000
vt -202.124325180 3.200000000
vt -132.600000000 -0.450000000
vt -134.400000000 3.200000000
vt -134.400000000 -0.450000000
vt -132.600000000 -0.450000000
vt -132.600000000 3.200000000
vt -134.400000000 3.200000000
vt -202.124325180 -0.450000000
vt -201.224325180 3.200000000
vt -201.224325180 -0.450000000
vt -202.124325180 -0.450000000
vt -202.124325180 3.200000000
vt -201.224325180 3.200000000
vt -134.600000000 -202.224325180
vt -132.400000000 -201.224325180
vt -132.400000000 -202.224325180
vt -134.600000000 -202.224325180
vt -134.600000000 -201.224325180
vt -132.400000000 -201.224325180
vt -134.600000000 -201.224325180
vt -132.400000000 -202.224325180
vt -132.400000000 -201.224325180
vt -134.600000000 -201.224325180
vt -134.600000000 -202.224325180
vt -132.400000000 -202.224325180
vt -134.600000000 3.000000000
vt -132.400000000 3.400000000
vt -132.400000000 3.000000000
vt -134.600000000 3.000000000
vt -134.600000000 3.400000000
vt -132.400000000 3.400000000
vt -201.224325180 3.000000000
vt -202.224325180 3.400000000
vt -202.224325180 3.000000000
vt -201.224325180 3.000000000
vt -201.224325180 3.400000000
vt -202.224325180 3.400000000
vt -132.400000000 3.000000000
vt -134.600000000 3.400000000
vt -134.600000000 3.000000000
vt -132.400000000 3.000000000
vt -132.400000000 3.400000000
vt -134.600000000 3.400000000
vt -202.224325180 3.000000000
vt -201.224325180 3.400000000
vt -201.224325180 3.000000000
vt -202.224325180 3.000000000
vt -202.224325180 3.400000000
vt -201.224325180 3.400000000
vt -134.600000000 -202.224325180
vt -132.400000000 -197.224325180
vt -132.400000000 -202.224325180
vt -134.600000000 -202.224325180
vt -134.600000000 -197.224325180
vt -132.400000000 -197.224325180
vt -134.600000000 -197.224325180
vt -132.400000000 -202.224325180
vt -132.400000000 -197.224325180
vt -134.600000000 -197.224325180
vt -134.600000000 -202.224325180
vt -132.400000000 -202.224325180
vt -134.600000000 3.200000000
vt -132.400000000 4.000000000
vt -132.400000000 3.200000000
vt -134.600000000 3.200000000
vt -134.600000000 4.000000000
vt -132.400000000 4.000000000
vt -197.224325180 3.200000000
vt -202.224325180 4.000000000
vt -202.224325180 3.200000000
vt -197.224325180 3.200000000
vt -197.224325180 4.000000000
vt -202.224325180 4.000000000
vt -132.400000000 3.200000000
vt -134.600000000 4.000000000
vt -134.600000000 3.200000000
vt -132.400000000 3.200000000
vt -132.400000000 4.000000000
vt -134.600000000 4.000000000
vt -202.224325180 3.200000000
vt -197.224325180 4.000000000
vt -197.224325180 3.200000000
vt -202.224325180 3.200000000
vt -202.224325180 4.000000000
vt -197.224325180 4.000000000
vn 0.000000000 0.000000000 -1.000000000
vn 0.000000000 0.000000000 -1.000000000
vn -0.000000000 0.000000000 1.000000000
vn 0.000000000 0.000000000 1.000000000
vn 0.000000000 1.000000000 0.000000000
vn 0.000000000 1.000000000 0.000000000
vn 1.000000000 0.000000000 0.000000000
vn 1.000000000 0.000000000 -0.000000000
vn 0.000000000 -1.000000000 0.000000000
vn 0.000000000 -1.000000000 0.000000000
vn -1.000000000 0.000000000 0.000000000
vn -1.000000000 0.000000000 0.000000000
vn 0.000000000 0.000000000 -1.000000000
vn 0.000000000 0.000000000 -1.000000000
vn -0.000000000 0.000000000 1.000000000
vn 0.000000000 0.000000000 1.000000000
vn 0.000000000 1.000000000 0.000000000
vn 0.000000000 1.000000000 0.000000000
vn 1.000000000 0.000000000 0.000000000
vn 1.000000000 0.000000000 -0.000000000
vn 0.000000000 -1.000000000 0.000000000
vn 0.000000000 -1.000000000 0.000000000
vn -1.000000000 0.000000000 0.000000000
vn -1.000000000 0.000000000 0.000000000
vn 0.000000000 0.000000000 -1.000000000
vn 0.000000000 0.000000000 -1.000000000
vn -0.000000000 0.000000000 1.000000000
vn 0.000000000 0.000000000 1.000000000
vn 0.000000000 1.000000000 0.000000000
vn 0.000000000 1.000000000 0.000000000
vn 1.000000000 0.000000000 0.000000000
vn 1.000000000 0.000000000 -0.000000000
vn 0.000000000 -1.000000000 0.000000000
vn 0.000000000 -1.000000000 0.000000000
vn -1.000000000 0.000000000 0.000000000
vn -1.000000000 0.000000000 0.000000000
vn 0.000000000 0.000000000 -1.000000000
vn 0.000000000 0.000000000 -1.000000000
vn -0.000000000 0.000000000 1.000000000
vn 0.000000000 0.000000000 1.000000000
vn 0.000000000 1.000000000 0.000000000
vn 0.000000000 1.000000000 0.000000000
vn 1.000000000 0.000000000 0.000000000
vn 1.000000000 0.000000000 -0.000000000
vn 0.000000000 -1.000000000 0.000000000
vn 0.000000000 -1.000000000 0.000000000
vn -1.000000000 0.000000000 0.000000000
vn -1.000000000 0.000000000 0.000000000
vn 0.000000000 0.000000000 -1.000000000
vn 0.000000000 0.000000000 -1.000000000
vn -0.000000000 0.000000000 1.000000000
vn 0.000000000 0.000000000 1.000000000
vn 0.000000000 1.000000000 0.000000000
vn 0.000000000 1.000000000 0.000000000
vn 1.000000000 0.000000000 0.000000000
vn 1.000000000 0.000000000 -0.000000000
vn 0.000000000 -1.000000000 0.000000000
vn 0.000000000 -1.000000000 0.000000000
vn -1.000000000 0.000000000 0.000000000
vn -1.000000000 0.000000000 0.000000000
f 1/1/1 3/2/1 2/3/1
f 4/4/2 6/5/2 5/6/2
f 7/7/3 9/8/3 8/9/3
f 10/10/4 12/11/4 11/12/4
f 13/13/5 15/14/5 14/15/5
f 16/16/6 18/17/6 17/18/6
f 19/19/7 21/20/7 20/21/7
f 22/22/8 24/23/8 23/24/8
f 25/25/9 27/26/9 26/27/9
f 28/28/10 30/29/10 29/30/10
f 31/31/11 33/32/11 32/33/11
f 34/34/12 36/35/12 35/36/12
f 37/37/13 39/38/13 38/39/13
f 40/40/14 42/41/14 41/42/14
f 43/43/15 45/44/15 44/45/15
f 46/46/16 48/47/16 47/48/16
f 49/49/17 51/50/17 50/51/17
f 52/52/18 54/53/18 53/54/18
f 55/55/19 57/56/19 56/57/19
f 58/58/20 60/59/20 59/60/20
f 61/61/21 63/62/21 62/63/21
f 64/64/22 66/65/22 65/66/22
f 67/67/23 69/68/23 68/69/23
f 70/70/24 72/71/24 71/72/24
f 73/73/25 75/74/25 74/75/25
f 76/76/26 78/77/26 77/78/26
f 79/79/27 81/80/27 80/81/27
f 82/82/28 84/83/28 83/84/28
f 85/85/29 87/86/29 86/87/29
f 88/88/30 90/89/30 89/90/30
f 91/91/31 93/92/31 92/93/31
f 94/94/32 96/95/32 95/96/32
f 97/97/33 99/98/33 98/99/33
f 100/100/34 102/101/34 101/102/34
f 103/103/35 105/104/35 104/105/35
f 106/106/36 108/107/36 107/108/36
f 109/109/37 111/110/37 110/111/37
f 112/112/38 114/113/38 113/114/38
f 115/115/39 117/116/39 116/117/39
f 118/118/40 120/119/40 119/120/40
f 121/121/41 123/122/41 122/123/41
f 124/124/42 126/125/42 125/126/42
f 127/127/43 129/128/43 128/129/43
f 130/130/44 132/131/44 131/132/44
f 133/133/45 135/134/45 134/135/45
f 136/136/46 138/137/46 137/138/46
f 139/139/47 141/140/47 140/141/47
f 142/142/48 144/143/48 143/144/48
f 145/145/49 147/146/49 146/147/49
f 148/148/50 150/149/50 149/150/50
f 151/151/51 153/152/51 152/153/51
f 154/154/52 156/155/52 155/156/52
f 157/157/53 159/158/53 158/159/53
f 160/160/54 162/161/54 161/162/54
f 163/163/55 165/164/55 164/165/55
f 166/166/56 168/167/56 167/168/56
f 169/169/57 171/170/57 170/171/57
f 172/172/58 174/173/58 173/174/58
f 175/175/59 177/176/59 176/177/59
f 178/178/60 180/179/60 179/180/60
