# Unreal legacy OBJ adapter: canonical vertices are centimetres in the bird frame (+X forward, +Y right, +Z up, origin at the body centre); this file is written with Y reflected and triangle winding reversed. One object, exactly two g groups (plumage_main, plumage_hood), so the importer creates exactly two material slots.
# Common kestrel (Falco tinnunculus), pose perched
# wingspan 75.0 cm, body length 33.0 cm; Collins Bird Guide 2nd ed., Falco tinnunculus: length 32-35 cm, wingspan 71-80 cm. Mid-points used: 33 cm and 75 cm.
# AUTHORED low-poly silhouette in those published proportions. Not a scan, not photogrammetry, not a claim about an individual bird.
o SM_BirdsV1_CommonKestrel_Perched
s off
v -9.6860 -0.3170 -2.0750
v -9.7500 -0.2240 -1.8170
v -9.7770 -0.0000 -1.7100
v -9.7500 0.2240 -1.8170
v -9.6860 0.3170 -2.0750
v -9.6210 0.2240 -2.3330
v -9.5950 0.0000 -2.4400
v -9.6210 -0.2240 -2.3330
v -6.5000 -2.7460 -1.2120
v -7.0900 -1.9410 1.1540
v -7.3340 -0.0000 2.1340
v -7.0900 1.9410 1.1540
v -6.5000 2.7460 -1.2120
v -5.9100 1.9410 -3.5780
v -5.6650 0.0000 -4.5590
v -5.9100 -1.9410 -3.5780
v -2.0330 -4.7520 -0.0310
v -3.0410 -3.3600 4.0130
v -3.4590 -0.0000 5.6880
v -3.0410 3.3600 4.0130
v -2.0330 4.7520 -0.0310
v -1.0250 3.3600 -4.0740
v -0.6070 0.0000 -5.7490
v -1.0250 -3.3600 -4.0740
v 2.4820 -5.2800 0.9590
v 1.4090 -3.7340 5.2610
v 0.9650 -0.0000 7.0430
v 1.4090 3.7340 5.2610
v 2.4820 5.2800 0.9590
v 3.5540 3.7340 -3.3430
v 3.9990 0.0000 -5.1250
v 3.5540 -3.7340 -3.3430
v 6.3720 -4.5410 1.7250
v 5.4070 -3.2110 5.5960
v 5.0070 -0.0000 7.2000
v 5.4070 3.2110 5.5960
v 6.3720 4.5410 1.7250
v 7.3370 3.2110 -2.1470
v 7.7370 0.0000 -3.7510
v 7.3370 -3.2110 -2.1470
v 9.6220 -3.0620 2.3310
v 8.9350 -2.1650 5.0840
v 8.6510 -0.0000 6.2250
v 8.9350 2.1650 5.0840
v 9.6220 3.0620 2.3310
v 10.3080 2.1650 -0.4220
v 10.5930 0.0000 -1.5630
v 10.3080 -2.1650 -0.4220
v 11.5750 -1.0560 2.6820
v 11.3180 -0.7470 3.7140
v 11.2110 -0.0000 4.1420
v 11.3180 0.7470 3.7140
v 11.5750 1.0560 2.6820
v 11.8320 0.7470 1.6490
v 11.9390 0.0000 1.2220
v 11.8320 -0.7470 1.6490
v -7.6450 -1.4850 -2.0760
v -12.1280 -4.5540 -3.1940
v -20.4530 -3.5640 -5.2690
v -20.8370 -0.0000 -5.3650
v -20.4530 3.5640 -5.2690
v -12.1280 4.5540 -3.1940
v -7.6450 1.4850 -2.0760
v -7.7250 -1.4850 -1.7560
v -12.2070 -4.5540 -2.8740
v -20.5330 -3.5640 -4.9490
v -20.9170 -0.0000 -5.0450
v -20.5330 3.5640 -4.9490
v -12.2070 4.5540 -2.8740
v -7.7250 1.4850 -1.7560
v 6.2370 0.3080 4.3860
v 7.0850 -2.6270 4.2790
v 5.5850 -7.2130 3.4090
v 2.6040 -11.3290 2.2200
v -0.8420 -14.7630 0.9880
v -1.8850 -15.4970 0.6490
v -2.3510 -14.8160 0.6070
v -2.7610 -13.0860 0.6920
v -2.8250 -9.6010 1.0530
v -1.5860 -5.1980 1.8390
v 6.1260 0.2590 4.8320
v 6.9730 -2.6750 4.7250
v 5.4740 -7.2620 3.8540
v 2.4930 -11.3770 2.6650
v -0.9530 -14.8110 1.4340
v -1.9960 -15.5450 1.0950
v -2.4620 -14.8640 1.0520
v -2.8720 -13.1350 1.1380
v -2.9370 -9.6490 1.4990
v -1.6970 -5.2460 2.2850
v 6.2370 -0.3080 4.3860
v 7.0850 2.6270 4.2790
v 5.5850 7.2130 3.4090
v 2.6040 11.3290 2.2200
v -0.8420 14.7630 0.9880
v -1.8850 15.4970 0.6490
v -2.3510 14.8160 0.6070
v -2.7610 13.0860 0.6920
v -2.8250 9.6010 1.0530
v -1.5860 5.1980 1.8390
v 6.1260 -0.2590 4.8320
v 6.9730 2.6750 4.7250
v 5.4740 7.2620 3.8540
v 2.4930 11.3770 2.6650
v -0.9530 14.8110 1.4340
v -1.9960 15.5450 1.0950
v -2.4620 14.8640 1.0520
v -2.8720 13.1350 1.1380
v -2.9370 9.6490 1.4990
v -1.6970 5.2460 2.2850
v 3.2740 -2.8050 -12.4480
v 1.6770 -2.8050 -6.0440
v 3.2740 -3.7950 -12.4480
v 1.6770 -3.7950 -6.0440
v 4.2340 -2.8050 -12.2080
v 2.6380 -2.8050 -5.8040
v 4.2340 -3.7950 -12.2080
v 2.6380 -3.7950 -5.8040
v 3.0490 -2.6070 -12.9120
v 2.8580 -2.6070 -12.1430
v 3.0490 -3.9930 -12.9120
v 2.8580 -3.9930 -12.1430
v 6.5710 -2.6070 -12.0340
v 6.3800 -2.6070 -11.2650
v 6.5710 -3.9930 -12.0340
v 6.3800 -3.9930 -11.2650
v 3.2740 3.7950 -12.4480
v 1.6770 3.7950 -6.0440
v 3.2740 2.8050 -12.4480
v 1.6770 2.8050 -6.0440
v 4.2340 3.7950 -12.2080
v 2.6380 3.7950 -5.8040
v 4.2340 2.8050 -12.2080
v 2.6380 2.8050 -5.8040
v 3.0490 3.9930 -12.9120
v 2.8580 3.9930 -12.1430
v 3.0490 2.6070 -12.9120
v 2.8580 2.6070 -12.1430
v 6.5710 3.9930 -12.0340
v 6.3800 3.9930 -11.2650
v 6.5710 2.6070 -12.0340
v 6.3800 2.6070 -11.2650
v 6.1640 -0.3040 2.5570
v 6.1080 -0.2150 2.7840
v 6.0850 -0.0000 2.8770
v 6.1080 0.2150 2.7840
v 6.1640 0.3040 2.5570
v 6.2210 0.2150 2.3310
v 6.2440 0.0000 2.2370
v 6.2210 -0.2150 2.3310
v 7.4450 -2.0040 2.8770
v 7.0730 -1.4170 4.3710
v 6.9180 -0.0000 4.9900
v 7.0730 1.4170 4.3710
v 7.4450 2.0040 2.8770
v 7.8180 1.4170 1.3820
v 7.9720 0.0000 0.7630
v 7.8180 -1.4170 1.3820
v 9.2060 -3.0360 3.3160
v 8.6420 -2.1470 5.5800
v 8.4080 -0.0000 6.5180
v 8.6420 2.1470 5.5800
v 9.2060 3.0360 3.3160
v 9.7710 2.1470 1.0520
v 10.0050 0.0000 0.1140
v 9.7710 -2.1470 1.0520
v 10.9670 -2.1860 3.7550
v 10.5610 -1.5460 5.3850
v 10.3930 -0.0000 6.0600
v 10.5610 1.5460 5.3850
v 10.9670 2.1860 3.7550
v 11.3740 1.5460 2.1250
v 11.5420 0.0000 1.4490
v 11.3740 -1.5460 2.1250
v 12.2480 -0.5460 4.0740
v 12.1470 -0.3860 4.4820
v 12.1050 -0.0000 4.6500
v 12.1470 0.3860 4.4820
v 12.2480 0.5460 4.0740
v 12.3500 0.3860 3.6670
v 12.3920 0.0000 3.4980
v 12.3500 -0.3860 3.6670
v 11.8000 -0.9900 3.8260
v 11.5920 -0.4950 4.6580
v 11.5920 0.4950 4.6580
v 11.8000 0.9900 3.8260
v 12.0070 0.4950 2.9940
v 12.0070 -0.4950 2.9940
v 12.8880 -0.6140 3.9620
v 12.7520 -0.3070 4.5110
v 12.7520 0.3070 4.5110
v 12.8880 0.6140 3.9620
v 13.0250 0.3070 3.4130
v 13.0250 -0.3070 3.4130
v 13.7930 -0.0990 4.0170
v 13.7720 -0.0500 4.1000
v 13.7720 0.0490 4.1000
v 13.7930 0.0990 4.0170
v 13.8140 0.0500 3.9340
v 13.8140 -0.0500 3.9340
vt 0.45157 0.48962
vt 0.45125 0.49091
vt 0.45111 0.49145
vt 0.45125 0.49091
vt 0.45157 0.48962
vt 0.45189 0.48834
vt 0.45203 0.48780
vt 0.45189 0.48834
vt 0.46750 0.49394
vt 0.46455 0.50577
vt 0.46333 0.51067
vt 0.46455 0.50577
vt 0.46750 0.49394
vt 0.47045 0.48211
vt 0.47168 0.47720
vt 0.47045 0.48211
vt 0.48984 0.49984
vt 0.48479 0.52006
vt 0.48270 0.52844
vt 0.48479 0.52006
vt 0.48984 0.49984
vt 0.49488 0.47963
vt 0.49696 0.47125
vt 0.49488 0.47963
vt 0.51241 0.50479
vt 0.50704 0.52631
vt 0.50482 0.53521
vt 0.50704 0.52631
vt 0.51241 0.50479
vt 0.51777 0.48329
vt 0.51999 0.47437
vt 0.51777 0.48329
vt 0.53186 0.50862
vt 0.52704 0.52798
vt 0.52504 0.53600
vt 0.52704 0.52798
vt 0.53186 0.50862
vt 0.53668 0.48927
vt 0.53868 0.48124
vt 0.53668 0.48927
vt 0.54811 0.51165
vt 0.54468 0.52542
vt 0.54326 0.53112
vt 0.54468 0.52542
vt 0.54811 0.51165
vt 0.55154 0.49789
vt 0.55297 0.49218
vt 0.55154 0.49789
vt 0.55788 0.51341
vt 0.55659 0.51857
vt 0.55605 0.52071
vt 0.55659 0.51857
vt 0.55788 0.51341
vt 0.55916 0.50824
vt 0.55970 0.50611
vt 0.55916 0.50824
vt 0.46177 0.48962
vt 0.43936 0.48403
vt 0.39774 0.47365
vt 0.39582 0.47318
vt 0.39774 0.47365
vt 0.43936 0.48403
vt 0.46177 0.48962
vt 0.46137 0.49122
vt 0.43896 0.48563
vt 0.39733 0.47525
vt 0.39541 0.47478
vt 0.39733 0.47525
vt 0.43896 0.48563
vt 0.46137 0.49122
vt 0.53119 0.52193
vt 0.53543 0.52140
vt 0.52792 0.51704
vt 0.51302 0.51110
vt 0.49579 0.50494
vt 0.49057 0.50325
vt 0.48824 0.50304
vt 0.48619 0.50346
vt 0.48588 0.50526
vt 0.49207 0.50919
vt 0.53063 0.52416
vt 0.53487 0.52363
vt 0.52737 0.51927
vt 0.51246 0.51333
vt 0.49523 0.50717
vt 0.49002 0.50548
vt 0.48769 0.50526
vt 0.48564 0.50569
vt 0.48531 0.50750
vt 0.49151 0.51143
vt 0.53119 0.52193
vt 0.53543 0.52140
vt 0.52792 0.51704
vt 0.51302 0.51110
vt 0.49579 0.50494
vt 0.49057 0.50325
vt 0.48824 0.50304
vt 0.48619 0.50346
vt 0.48588 0.50526
vt 0.49207 0.50919
vt 0.53063 0.52416
vt 0.53487 0.52363
vt 0.52737 0.51927
vt 0.51246 0.51333
vt 0.49523 0.50717
vt 0.49002 0.50548
vt 0.48769 0.50526
vt 0.48564 0.50569
vt 0.48531 0.50750
vt 0.49151 0.51143
vt 0.51637 0.43776
vt 0.50838 0.46978
vt 0.51637 0.43776
vt 0.50838 0.46978
vt 0.52117 0.43896
vt 0.51319 0.47098
vt 0.52117 0.43896
vt 0.51319 0.47098
vt 0.51524 0.43544
vt 0.51429 0.43928
vt 0.51524 0.43544
vt 0.51429 0.43928
vt 0.53285 0.43983
vt 0.53190 0.44367
vt 0.53285 0.43983
vt 0.53190 0.44367
vt 0.51637 0.43776
vt 0.50838 0.46978
vt 0.51637 0.43776
vt 0.50838 0.46978
vt 0.52117 0.43896
vt 0.51319 0.47098
vt 0.52117 0.43896
vt 0.51319 0.47098
vt 0.51524 0.43544
vt 0.51429 0.43928
vt 0.51524 0.43544
vt 0.51429 0.43928
vt 0.53285 0.43983
vt 0.53190 0.44367
vt 0.53285 0.43983
vt 0.53190 0.44367
vt 0.53082 0.51279
vt 0.53054 0.51392
vt 0.53043 0.51438
vt 0.53054 0.51392
vt 0.53082 0.51279
vt 0.53111 0.51165
vt 0.53122 0.51119
vt 0.53111 0.51165
vt 0.53722 0.51438
vt 0.53536 0.52185
vt 0.53459 0.52495
vt 0.53536 0.52185
vt 0.53722 0.51438
vt 0.53909 0.50691
vt 0.53986 0.50382
vt 0.53909 0.50691
vt 0.54603 0.51658
vt 0.54321 0.52790
vt 0.54204 0.53259
vt 0.54321 0.52790
vt 0.54603 0.51658
vt 0.54885 0.50526
vt 0.55002 0.50057
vt 0.54885 0.50526
vt 0.55483 0.51877
vt 0.55280 0.52692
vt 0.55197 0.53030
vt 0.55280 0.52692
vt 0.55483 0.51877
vt 0.55687 0.51062
vt 0.55771 0.50724
vt 0.55687 0.51062
vt 0.56124 0.52037
vt 0.56073 0.52241
vt 0.56053 0.52325
vt 0.56073 0.52241
vt 0.56124 0.52037
vt 0.56175 0.51833
vt 0.56196 0.51749
vt 0.56175 0.51833
vt 0.55900 0.51913
vt 0.55796 0.52329
vt 0.55796 0.52329
vt 0.55900 0.51913
vt 0.56003 0.51497
vt 0.56003 0.51497
vt 0.56444 0.51981
vt 0.56376 0.52255
vt 0.56376 0.52255
vt 0.56444 0.51981
vt 0.56512 0.51706
vt 0.56512 0.51706
vt 0.56896 0.52009
vt 0.56886 0.52050
vt 0.56886 0.52050
vt 0.56896 0.52009
vt 0.56907 0.51967
vt 0.56907 0.51967
vn -0.6291 -0.7681 0.1193
vn -0.6211 -0.7761 0.1089
vn -0.7950 -0.3357 0.5053
vn -0.7891 -0.3531 0.5027
vn -0.7897 0.3382 0.5118
vn -0.7897 0.3528 0.5019
vn -0.6225 0.7730 0.1227
vn -0.6219 0.7756 0.1086
vn -0.4921 0.7729 -0.4005
vn -0.4902 0.7807 -0.3876
vn -0.4460 0.3417 -0.8272
vn -0.4421 0.3593 -0.8219
vn -0.4380 -0.3442 -0.8305
vn -0.4430 -0.3590 -0.8215
vn -0.4845 -0.7778 -0.4004
vn -0.4911 -0.7801 -0.3876
vn -0.4407 -0.8777 0.1884
vn -0.4438 -0.8756 0.1907
vn -0.6148 -0.4157 0.6703
vn -0.6176 -0.4110 0.6705
vn -0.6174 0.4150 0.6682
vn -0.6161 0.4114 0.6717
vn -0.4433 0.8766 0.1874
vn -0.4422 0.8763 0.1913
vn -0.2935 0.8804 -0.3724
vn -0.2951 0.8784 -0.3759
vn -0.2080 0.4198 -0.8835
vn -0.2104 0.4151 -0.8851
vn -0.2114 -0.4191 -0.8830
vn -0.2085 -0.4154 -0.8854
vn -0.2964 -0.8793 -0.3728
vn -0.2934 -0.8790 -0.3757
vn -0.1593 -0.9450 0.2855
vn -0.1744 -0.9397 0.2943
vn -0.2605 -0.4565 0.8507
vn -0.2764 -0.4405 0.8541
vn -0.2755 0.4561 0.8462
vn -0.2628 0.4409 0.8582
vn -0.1722 0.9439 0.2819
vn -0.1624 0.9407 0.2977
vn -0.0241 0.9434 -0.3307
vn -0.0339 0.9378 -0.3456
vn 0.1197 0.4548 -0.8825
vn 0.1068 0.4386 -0.8923
vn 0.1043 -0.4540 -0.8848
vn 0.1207 -0.4392 -0.8902
vn -0.0371 -0.9420 -0.3335
vn -0.0218 -0.9391 -0.3430
vn 0.0916 -0.9296 0.3570
vn 0.1087 -0.9315 0.3471
vn -0.0351 -0.4339 0.9003
vn -0.0164 -0.4484 0.8937
vn -0.0191 0.4325 0.9014
vn -0.0348 0.4500 0.8923
vn 0.1054 0.9271 0.3596
vn 0.0933 0.9343 0.3442
vn 0.2181 0.9344 -0.2815
vn 0.2300 0.9366 -0.2644
vn 0.3099 0.4393 -0.8432
vn 0.3250 0.4547 -0.8293
vn 0.3255 -0.4385 -0.8377
vn 0.3071 -0.4556 -0.8355
vn 0.2318 -0.9324 -0.2774
vn 0.2148 -0.9389 -0.2690
vn 0.3130 -0.8715 0.3774
vn 0.3281 -0.8711 0.3656
vn 0.2358 -0.4106 0.8808
vn 0.2521 -0.4248 0.8695
vn 0.2484 0.4079 0.8786
vn 0.2336 0.4289 0.8726
vn 0.3238 0.8671 0.3786
vn 0.3127 0.8774 0.3638
vn 0.4253 0.8832 -0.1974
vn 0.4349 0.8825 -0.1791
vn 0.5500 0.4270 -0.7178
vn 0.5616 0.4421 -0.6994
vn 0.5616 -0.4246 -0.7101
vn 0.5445 -0.4457 -0.7106
vn 0.4359 -0.8790 -0.1933
vn 0.4199 -0.8886 -0.1848
vn 0.6245 -0.6833 0.3783
vn 0.6353 -0.6818 0.3627
vn 0.6001 -0.3097 0.7376
vn 0.6098 -0.3265 0.7222
vn 0.6053 0.3073 0.7343
vn 0.5949 0.3338 0.7312
vn 0.6294 0.6789 0.3781
vn 0.6219 0.6939 0.3629
vn 0.7153 0.6971 -0.0488
vn 0.7188 0.6946 -0.0289
vn 0.8504 0.3282 -0.4112
vn 0.8531 0.3457 -0.3909
vn 0.8542 -0.3257 -0.4054
vn 0.8422 -0.3535 -0.4072
vn 0.7198 -0.6926 -0.0462
vn 0.7064 -0.7069 -0.0356
vn -0.9703 0.0000 -0.2419
vn 0.9703 -0.0000 0.2419
vn 0.5369 -0.8330 0.1339
vn -0.1112 -0.9934 -0.0277
vn -0.9644 -0.1104 -0.2404
vn -0.9644 0.1104 -0.2404
vn -0.1112 0.9934 -0.0277
vn 0.5369 0.8330 0.1339
vn -0.2419 -0.0000 0.9703
vn 0.2419 0.0000 -0.9703
vn 0.9302 0.2591 0.2600
vn 0.9212 -0.3379 0.1931
vn 0.7848 -0.6060 0.1300
vn 0.6860 -0.7217 0.0929
vn 0.5635 -0.8245 0.0512
vn -0.7903 -0.5561 -0.2573
vn -0.9429 -0.2106 -0.2579
vn -0.9704 0.0069 -0.2412
vn -0.9332 0.2984 -0.2003
vn -0.5635 0.8245 -0.0512
vn -0.2406 -0.1045 0.9650
vn 0.2406 0.1045 -0.9650
vn 0.9302 -0.2591 0.2600
vn 0.9212 0.3379 0.1931
vn 0.7848 0.6060 0.1300
vn 0.6860 0.7217 0.0929
vn 0.5635 0.8245 0.0512
vn -0.7903 0.5561 -0.2573
vn -0.9429 0.2106 -0.2579
vn -0.9704 -0.0069 -0.2412
vn -0.9332 -0.2984 -0.2003
vn -0.5635 -0.8245 -0.0512
vn -0.2406 0.1045 0.9650
vn 0.2406 -0.1045 -0.9650
vn 0.0000 1.0000 0.0000
vn 0.0000 -1.0000 0.0000
vn -0.8014 -0.5972 0.0347
vn -0.8999 -0.2532 0.3552
vn -0.8999 0.2532 0.3552
vn -0.8014 0.5972 0.0347
vn -0.6913 0.5972 -0.4069
vn -0.6278 0.2532 -0.7360
vn -0.6278 -0.2532 -0.7360
vn -0.6913 -0.5972 -0.4069
vn -0.5314 -0.8252 0.1916
vn -0.6686 -0.3576 0.6519
vn -0.6686 0.3576 0.6519
vn -0.5314 0.8252 0.1916
vn -0.3793 0.8252 -0.4186
vn -0.2843 0.3576 -0.8895
vn -0.2843 -0.3576 -0.8895
vn -0.3793 -0.8252 -0.4186
vn 0.3101 -0.8561 0.4135
vn 0.2085 -0.3724 0.9044
vn 0.2085 0.3724 0.9044
vn 0.3101 0.8561 0.4135
vn 0.4680 0.8561 -0.2195
vn 0.6086 0.3724 -0.7006
vn 0.6086 -0.3724 -0.7006
vn 0.4680 -0.8561 -0.2195
vn 0.6788 -0.6100 0.4088
vn 0.6140 -0.2589 0.7456
vn 0.6140 0.2589 0.7456
vn 0.6788 0.6100 0.4088
vn 0.7913 0.6100 -0.0423
vn 0.8922 0.2589 -0.3701
vn 0.8922 -0.2589 -0.3701
vn 0.7913 -0.6100 -0.0423
vn 0.2013 -0.8189 0.5375
vn 0.2214 -0.8267 0.5173
vn 0.1262 -0.0000 0.9920
vn 0.2147 0.8149 0.5384
vn 0.2008 0.8329 0.5156
vn 0.3291 0.8453 -0.4209
vn 0.3437 0.8536 -0.3914
vn 0.3800 0.0000 -0.9250
vn 0.3428 -0.8424 -0.4158
vn 0.3226 -0.8582 -0.3993
vn 0.3997 -0.7541 0.5212
vn 0.3908 -0.7449 0.5407
vn 0.3731 -0.0000 0.9278
vn 0.3978 0.7550 0.5212
vn 0.4035 0.7386 0.5401
vn 0.4839 0.8097 -0.3319
vn 0.4784 0.8019 -0.3579
vn 0.5516 0.0000 -0.8341
vn 0.4818 -0.8106 -0.3330
vn 0.4923 -0.7964 -0.3512
g plumage_main
f 1/1/1 10/10/1 2/2/1
f 1/1/2 9/9/2 10/10/2
f 2/2/3 11/11/3 3/3/3
f 2/2/4 10/10/4 11/11/4
f 3/3/5 12/12/5 4/4/5
f 3/3/6 11/11/6 12/12/6
f 4/4/7 13/13/7 5/5/7
f 4/4/8 12/12/8 13/13/8
f 5/5/9 14/14/9 6/6/9
f 5/5/10 13/13/10 14/14/10
f 6/6/11 15/15/11 7/7/11
f 6/6/12 14/14/12 15/15/12
f 7/7/13 16/16/13 8/8/13
f 7/7/14 15/15/14 16/16/14
f 8/8/15 9/9/15 1/1/15
f 8/8/16 16/16/16 9/9/16
f 9/9/17 18/18/17 10/10/17
f 9/9/18 17/17/18 18/18/18
f 10/10/19 19/19/19 11/11/19
f 10/10/20 18/18/20 19/19/20
f 11/11/21 20/20/21 12/12/21
f 11/11/22 19/19/22 20/20/22
f 12/12/23 21/21/23 13/13/23
f 12/12/24 20/20/24 21/21/24
f 13/13/25 22/22/25 14/14/25
f 13/13/26 21/21/26 22/22/26
f 14/14/27 23/23/27 15/15/27
f 14/14/28 22/22/28 23/23/28
f 15/15/29 24/24/29 16/16/29
f 15/15/30 23/23/30 24/24/30
f 16/16/31 17/17/31 9/9/31
f 16/16/32 24/24/32 17/17/32
f 17/17/33 26/26/33 18/18/33
f 17/17/34 25/25/34 26/26/34
f 18/18/35 27/27/35 19/19/35
f 18/18/36 26/26/36 27/27/36
f 19/19/37 28/28/37 20/20/37
f 19/19/38 27/27/38 28/28/38
f 20/20/39 29/29/39 21/21/39
f 20/20/40 28/28/40 29/29/40
f 21/21/41 30/30/41 22/22/41
f 21/21/42 29/29/42 30/30/42
f 22/22/43 31/31/43 23/23/43
f 22/22/44 30/30/44 31/31/44
f 23/23/45 32/32/45 24/24/45
f 23/23/46 31/31/46 32/32/46
f 24/24/47 25/25/47 17/17/47
f 24/24/48 32/32/48 25/25/48
f 25/25/49 34/34/49 26/26/49
f 25/25/50 33/33/50 34/34/50
f 26/26/51 35/35/51 27/27/51
f 26/26/52 34/34/52 35/35/52
f 27/27/53 36/36/53 28/28/53
f 27/27/54 35/35/54 36/36/54
f 28/28/55 37/37/55 29/29/55
f 28/28/56 36/36/56 37/37/56
f 29/29/57 38/38/57 30/30/57
f 29/29/58 37/37/58 38/38/58
f 30/30/59 39/39/59 31/31/59
f 30/30/60 38/38/60 39/39/60
f 31/31/61 40/40/61 32/32/61
f 31/31/62 39/39/62 40/40/62
f 32/32/63 33/33/63 25/25/63
f 32/32/64 40/40/64 33/33/64
f 33/33/65 42/42/65 34/34/65
f 33/33/66 41/41/66 42/42/66
f 34/34/67 43/43/67 35/35/67
f 34/34/68 42/42/68 43/43/68
f 35/35/69 44/44/69 36/36/69
f 35/35/70 43/43/70 44/44/70
f 36/36/71 45/45/71 37/37/71
f 36/36/72 44/44/72 45/45/72
f 37/37/73 46/46/73 38/38/73
f 37/37/74 45/45/74 46/46/74
f 38/38/75 47/47/75 39/39/75
f 38/38/76 46/46/76 47/47/76
f 39/39/77 48/48/77 40/40/77
f 39/39/78 47/47/78 48/48/78
f 40/40/79 41/41/79 33/33/79
f 40/40/80 48/48/80 41/41/80
f 41/41/81 50/50/81 42/42/81
f 41/41/82 49/49/82 50/50/82
f 42/42/83 51/51/83 43/43/83
f 42/42/84 50/50/84 51/51/84
f 43/43/85 52/52/85 44/44/85
f 43/43/86 51/51/86 52/52/86
f 44/44/87 53/53/87 45/45/87
f 44/44/88 52/52/88 53/53/88
f 45/45/89 54/54/89 46/46/89
f 45/45/90 53/53/90 54/54/90
f 46/46/91 55/55/91 47/47/91
f 46/46/92 54/54/92 55/55/92
f 47/47/93 56/56/93 48/48/93
f 47/47/94 55/55/94 56/56/94
f 48/48/95 49/49/95 41/41/95
f 48/48/96 56/56/96 49/49/96
f 1/1/97 2/2/97 3/3/97
f 49/49/98 51/51/98 50/50/98
f 1/1/97 3/3/97 4/4/97
f 49/49/98 52/52/98 51/51/98
f 1/1/97 4/4/97 5/5/97
f 49/49/98 53/53/98 52/52/98
f 1/1/97 5/5/97 6/6/97
f 49/49/98 54/54/98 53/53/98
f 1/1/97 6/6/97 7/7/97
f 49/49/98 55/55/98 54/54/98
f 1/1/97 7/7/97 8/8/97
f 49/49/98 56/56/98 55/55/98
f 57/57/99 65/65/99 58/58/99
f 57/57/99 64/64/99 65/65/99
f 58/58/100 66/66/100 59/59/100
f 58/58/100 65/65/100 66/66/100
f 59/59/101 67/67/101 60/60/101
f 59/59/101 66/66/101 67/67/101
f 60/60/102 68/68/102 61/61/102
f 60/60/102 67/67/102 68/68/102
f 61/61/103 69/69/103 62/62/103
f 61/61/103 68/68/103 69/69/103
f 62/62/104 70/70/104 63/63/104
f 62/62/104 69/69/104 70/70/104
f 63/63/98 64/64/98 57/57/98
f 63/63/98 70/70/98 64/64/98
f 57/57/105 59/59/105 58/58/105
f 64/64/106 65/65/106 66/66/106
f 57/57/105 60/60/105 59/59/105
f 64/64/106 66/66/106 67/67/106
f 57/57/105 61/61/105 60/60/105
f 64/64/106 67/67/106 68/68/106
f 57/57/105 62/62/105 61/61/105
f 64/64/106 68/68/106 69/69/106
f 57/57/105 63/63/105 62/62/105
f 64/64/106 69/69/106 70/70/106
f 71/71/107 82/82/107 72/72/107
f 71/71/107 81/81/107 82/82/107
f 72/72/108 83/83/108 73/73/108
f 72/72/108 82/82/108 83/83/108
f 73/73/109 84/84/109 74/74/109
f 73/73/109 83/83/109 84/84/109
f 74/74/110 85/85/110 75/75/110
f 74/74/110 84/84/110 85/85/110
f 75/75/111 86/86/111 76/76/111
f 75/75/111 85/85/111 86/86/111
f 76/76/112 87/87/112 77/77/112
f 76/76/112 86/86/112 87/87/112
f 77/77/113 88/88/113 78/78/113
f 77/77/113 87/87/113 88/88/113
f 78/78/114 89/89/114 79/79/114
f 78/78/114 88/88/114 89/89/114
f 79/79/115 90/90/115 80/80/115
f 79/79/115 89/89/115 90/90/115
f 80/80/116 81/81/116 71/71/116
f 80/80/116 90/90/116 81/81/116
f 71/71/117 73/73/117 72/72/117
f 81/81/118 82/82/118 83/83/118
f 71/71/117 74/74/117 73/73/117
f 81/81/118 83/83/118 84/84/118
f 71/71/117 75/75/117 74/74/117
f 81/81/118 84/84/118 85/85/118
f 71/71/117 76/76/117 75/75/117
f 81/81/118 85/85/118 86/86/118
f 71/71/117 77/77/117 76/76/117
f 81/81/118 86/86/118 87/87/118
f 71/71/117 78/78/117 77/77/117
f 81/81/118 87/87/118 88/88/118
f 71/71/117 79/79/117 78/78/117
f 81/81/118 88/88/118 89/89/118
f 71/71/117 80/80/117 79/79/117
f 81/81/118 89/89/118 90/90/118
f 91/91/119 92/92/119 102/102/119
f 91/91/119 102/102/119 101/101/119
f 92/92/120 93/93/120 103/103/120
f 92/92/120 103/103/120 102/102/120
f 93/93/121 94/94/121 104/104/121
f 93/93/121 104/104/121 103/103/121
f 94/94/122 95/95/122 105/105/122
f 94/94/122 105/105/122 104/104/122
f 95/95/123 96/96/123 106/106/123
f 95/95/123 106/106/123 105/105/123
f 96/96/124 97/97/124 107/107/124
f 96/96/124 107/107/124 106/106/124
f 97/97/125 98/98/125 108/108/125
f 97/97/125 108/108/125 107/107/125
f 98/98/126 99/99/126 109/109/126
f 98/98/126 109/109/126 108/108/126
f 99/99/127 100/100/127 110/110/127
f 99/99/127 110/110/127 109/109/127
f 100/100/128 91/91/128 101/101/128
f 100/100/128 101/101/128 110/110/128
f 91/91/129 92/92/129 93/93/129
f 101/101/130 103/103/130 102/102/130
f 91/91/129 93/93/129 94/94/129
f 101/101/130 104/104/130 103/103/130
f 91/91/129 94/94/129 95/95/129
f 101/101/130 105/105/130 104/104/130
f 91/91/129 95/95/129 96/96/129
f 101/101/130 106/106/130 105/105/130
f 91/91/129 96/96/129 97/97/129
f 101/101/130 107/107/130 106/106/130
f 91/91/129 97/97/129 98/98/129
f 101/101/130 108/108/130 107/107/130
f 91/91/129 98/98/129 99/99/129
f 101/101/130 109/109/130 108/108/130
f 91/91/129 99/99/129 100/100/129
f 101/101/130 110/110/130 109/109/130
f 111/111/97 114/114/97 112/112/97
f 111/111/97 113/113/97 114/114/97
f 115/115/98 118/118/98 117/117/98
f 115/115/98 116/116/98 118/118/98
f 111/111/131 116/116/131 115/115/131
f 111/111/131 112/112/131 116/116/131
f 113/113/132 118/118/132 114/114/132
f 113/113/132 117/117/132 118/118/132
f 111/111/106 117/117/106 113/113/106
f 111/111/106 115/115/106 117/117/106
f 112/112/105 118/118/105 116/116/105
f 112/112/105 114/114/105 118/118/105
f 119/119/97 122/122/97 120/120/97
f 119/119/97 121/121/97 122/122/97
f 123/123/98 126/126/98 125/125/98
f 123/123/98 124/124/98 126/126/98
f 119/119/131 124/124/131 123/123/131
f 119/119/131 120/120/131 124/124/131
f 121/121/132 126/126/132 122/122/132
f 121/121/132 125/125/132 126/126/132
f 119/119/106 125/125/106 121/121/106
f 119/119/106 123/123/106 125/125/106
f 120/120/105 126/126/105 124/124/105
f 120/120/105 122/122/105 126/126/105
f 127/127/97 130/130/97 128/128/97
f 127/127/97 129/129/97 130/130/97
f 131/131/98 134/134/98 133/133/98
f 131/131/98 132/132/98 134/134/98
f 127/127/131 132/132/131 131/131/131
f 127/127/131 128/128/131 132/132/131
f 129/129/132 134/134/132 130/130/132
f 129/129/132 133/133/132 134/134/132
f 127/127/106 133/133/106 129/129/106
f 127/127/106 131/131/106 133/133/106
f 128/128/105 134/134/105 132/132/105
f 128/128/105 130/130/105 134/134/105
f 135/135/97 138/138/97 136/136/97
f 135/135/97 137/137/97 138/138/97
f 139/139/98 142/142/98 141/141/98
f 139/139/98 140/140/98 142/142/98
f 135/135/131 140/140/131 139/139/131
f 135/135/131 136/136/131 140/140/131
f 137/137/132 142/142/132 138/138/132
f 137/137/132 141/141/132 142/142/132
f 135/135/106 141/141/106 137/137/106
f 135/135/106 139/139/106 141/141/106
f 136/136/105 142/142/105 140/140/105
f 136/136/105 138/138/105 142/142/105
g plumage_hood
f 143/143/133 152/152/133 144/144/133
f 143/143/133 151/151/133 152/152/133
f 144/144/134 153/153/134 145/145/134
f 144/144/134 152/152/134 153/153/134
f 145/145/135 154/154/135 146/146/135
f 145/145/135 153/153/135 154/154/135
f 146/146/136 155/155/136 147/147/136
f 146/146/136 154/154/136 155/155/136
f 147/147/137 156/156/137 148/148/137
f 147/147/137 155/155/137 156/156/137
f 148/148/138 157/157/138 149/149/138
f 148/148/138 156/156/138 157/157/138
f 149/149/139 158/158/139 150/150/139
f 149/149/139 157/157/139 158/158/139
f 150/150/140 151/151/140 143/143/140
f 150/150/140 158/158/140 151/151/140
f 151/151/141 160/160/141 152/152/141
f 151/151/141 159/159/141 160/160/141
f 152/152/142 161/161/142 153/153/142
f 152/152/142 160/160/142 161/161/142
f 153/153/143 162/162/143 154/154/143
f 153/153/143 161/161/143 162/162/143
f 154/154/144 163/163/144 155/155/144
f 154/154/144 162/162/144 163/163/144
f 155/155/145 164/164/145 156/156/145
f 155/155/145 163/163/145 164/164/145
f 156/156/146 165/165/146 157/157/146
f 156/156/146 164/164/146 165/165/146
f 157/157/147 166/166/147 158/158/147
f 157/157/147 165/165/147 166/166/147
f 158/158/148 159/159/148 151/151/148
f 158/158/148 166/166/148 159/159/148
f 159/159/149 168/168/149 160/160/149
f 159/159/149 167/167/149 168/168/149
f 160/160/150 169/169/150 161/161/150
f 160/160/150 168/168/150 169/169/150
f 161/161/151 170/170/151 162/162/151
f 161/161/151 169/169/151 170/170/151
f 162/162/152 171/171/152 163/163/152
f 162/162/152 170/170/152 171/171/152
f 163/163/153 172/172/153 164/164/153
f 163/163/153 171/171/153 172/172/153
f 164/164/154 173/173/154 165/165/154
f 164/164/154 172/172/154 173/173/154
f 165/165/155 174/174/155 166/166/155
f 165/165/155 173/173/155 174/174/155
f 166/166/156 167/167/156 159/159/156
f 166/166/156 174/174/156 167/167/156
f 167/167/157 176/176/157 168/168/157
f 167/167/157 175/175/157 176/176/157
f 168/168/158 177/177/158 169/169/158
f 168/168/158 176/176/158 177/177/158
f 169/169/159 178/178/159 170/170/159
f 169/169/159 177/177/159 178/178/159
f 170/170/160 179/179/160 171/171/160
f 170/170/160 178/178/160 179/179/160
f 171/171/161 180/180/161 172/172/161
f 171/171/161 179/179/161 180/180/161
f 172/172/162 181/181/162 173/173/162
f 172/172/162 180/180/162 181/181/162
f 173/173/163 182/182/163 174/174/163
f 173/173/163 181/181/163 182/182/163
f 174/174/164 175/175/164 167/167/164
f 174/174/164 182/182/164 175/175/164
f 143/143/97 144/144/97 145/145/97
f 175/175/98 177/177/98 176/176/98
f 143/143/97 145/145/97 146/146/97
f 175/175/98 178/178/98 177/177/98
f 143/143/97 146/146/97 147/147/97
f 175/175/98 179/179/98 178/178/98
f 143/143/97 147/147/97 148/148/97
f 175/175/98 180/180/98 179/179/98
f 143/143/97 148/148/97 149/149/97
f 175/175/98 181/181/98 180/180/98
f 143/143/97 149/149/97 150/150/97
f 175/175/98 182/182/98 181/181/98
f 183/183/165 190/190/165 184/184/165
f 183/183/166 189/189/166 190/190/166
f 184/184/167 191/191/167 185/185/167
f 184/184/167 190/190/167 191/191/167
f 185/185/168 192/192/168 186/186/168
f 185/185/169 191/191/169 192/192/169
f 186/186/170 193/193/170 187/187/170
f 186/186/171 192/192/171 193/193/171
f 187/187/172 194/194/172 188/188/172
f 187/187/172 193/193/172 194/194/172
f 188/188/173 189/189/173 183/183/173
f 188/188/174 194/194/174 189/189/174
f 189/189/175 196/196/175 190/190/175
f 189/189/176 195/195/176 196/196/176
f 190/190/177 197/197/177 191/191/177
f 190/190/177 196/196/177 197/197/177
f 191/191/178 198/198/178 192/192/178
f 191/191/179 197/197/179 198/198/179
f 192/192/180 199/199/180 193/193/180
f 192/192/181 198/198/181 199/199/181
f 193/193/182 200/200/182 194/194/182
f 193/193/182 199/199/182 200/200/182
f 194/194/183 195/195/183 189/189/183
f 194/194/184 200/200/184 195/195/184
f 183/183/97 184/184/97 185/185/97
f 195/195/98 197/197/98 196/196/98
f 183/183/97 185/185/97 186/186/97
f 195/195/98 198/198/98 197/197/98
f 183/183/97 186/186/97 187/187/97
f 195/195/98 199/199/98 198/198/98
f 183/183/97 187/187/97 188/188/97
f 195/195/98 200/200/98 199/199/98
