# Unreal legacy OBJ adapter: canonical vertices are centimetres in the bird frame (+X forward, +Y right, +Z up, origin at the body centre); this file is written with Y reflected and triangle winding reversed. One object, exactly two g groups (plumage_main, plumage_hood), so the importer creates exactly two material slots.
# Rock dove (feral pigeon) (Columba livia), pose perched
# wingspan 67.0 cm, body length 33.0 cm; Collins Bird Guide 2nd ed. (Svensson, Mullarney & Zetterstrom, 2009), Columba livia: length 30-35 cm, wingspan 62-72 cm; same range in Cramp (ed.), Birds of the Western Palearctic vol. IV. Mid-points used: 33 cm and 67 cm.
# AUTHORED low-poly silhouette in those published proportions. Not a scan, not photogrammetry, not a claim about an individual bird.
o SM_BirdsV1_RockDove_Perched
s off
v -9.6860 -0.3370 -2.0750
v -9.7540 -0.2380 -1.8030
v -9.7820 -0.0000 -1.6910
v -9.7540 0.2380 -1.8030
v -9.6860 0.3370 -2.0750
v -9.6180 0.2380 -2.3470
v -9.5900 0.0000 -2.4590
v -9.6180 -0.2380 -2.3470
v -6.5000 -2.9170 -1.2120
v -7.1210 -2.0630 1.2780
v -7.3780 -0.0000 2.3100
v -7.1210 2.0630 1.2780
v -6.5000 2.9170 -1.2120
v -5.8790 2.0630 -3.7030
v -5.6220 0.0000 -4.7350
v -5.8790 -2.0630 -3.7030
v -2.0330 -5.0490 -0.0310
v -3.0940 -3.5700 4.2260
v -3.5340 -0.0000 5.9890
v -3.0940 3.5700 4.2260
v -2.0330 5.0490 -0.0310
v -0.9720 3.5700 -4.2870
v -0.5320 0.0000 -6.0500
v -0.9720 -3.5700 -4.2870
v 2.4820 -5.6100 0.9590
v 1.3530 -3.9670 5.4870
v 0.8850 -0.0000 7.3630
v 1.3530 3.9670 5.4870
v 2.4820 5.6100 0.9590
v 3.6110 3.9670 -3.5690
v 4.0780 0.0000 -5.4450
v 3.6110 -3.9670 -3.5690
v 6.3720 -4.8250 1.7250
v 5.3560 -3.4120 5.8000
v 4.9350 -0.0000 7.4880
v 5.3560 3.4120 5.8000
v 6.3720 4.8250 1.7250
v 7.3880 3.4120 -2.3510
v 7.8090 0.0000 -4.0390
v 7.3880 -3.4120 -2.3510
v 9.6220 -3.2540 2.3310
v 8.8990 -2.3010 5.2290
v 8.6000 -0.0000 6.4300
v 8.8990 2.3010 5.2290
v 9.6220 3.2540 2.3310
v 10.3440 2.3010 -0.5670
v 10.6440 0.0000 -1.7680
v 10.3440 -2.3010 -0.5670
v 11.5750 -1.1220 2.6820
v 11.3040 -0.7930 3.7690
v 11.1920 -0.0000 4.2190
v 11.3040 0.7930 3.7690
v 11.5750 1.1220 2.6820
v 11.8460 0.7930 1.5950
v 11.9580 0.0000 1.1450
v 11.8460 -0.7930 1.5950
v -7.8040 -1.5840 -1.4360
v -11.8390 -4.8580 -2.4420
v -19.3320 -3.8020 -4.3100
v -19.6770 -0.0000 -4.3960
v -19.3320 3.8020 -4.3100
v -11.8390 4.8580 -2.4420
v -7.8040 1.5840 -1.4360
v -7.8840 -1.5840 -1.1160
v -11.9190 -4.8580 -2.1210
v -19.4110 -3.8020 -3.9900
v -19.7570 -0.0000 -4.0760
v -19.4110 3.8020 -3.9900
v -11.9190 4.8580 -2.1210
v -7.8840 1.5840 -1.1160
v 6.2450 0.0310 4.3540
v 7.2910 -2.0640 4.3880
v 6.5100 -5.4430 3.8270
v 4.6490 -8.3700 3.0460
v 2.6750 -10.5670 2.3160
v 1.8920 -11.1180 2.0610
v -0.5670 -12.0400 1.3480
v -2.3570 -11.6820 0.9410
v -3.1410 -9.4050 0.9920
v -2.1000 -5.8420 1.6370
v 6.1180 -0.0250 4.8640
v 7.1630 -2.1190 4.8970
v 6.3830 -5.4980 4.3370
v 4.5220 -8.4250 3.5560
v 2.5480 -10.6230 2.8250
v 1.7650 -11.1730 2.5710
v -0.6940 -12.0950 1.8580
v -2.4840 -11.7380 1.4500
v -3.2680 -9.4600 1.5010
v -2.2270 -5.8970 2.1470
v 6.2450 -0.0310 4.3540
v 7.2910 2.0640 4.3880
v 6.5100 5.4430 3.8270
v 4.6490 8.3700 3.0460
v 2.6750 10.5670 2.3160
v 1.8920 11.1180 2.0610
v -0.5670 12.0400 1.3480
v -2.3570 11.6820 0.9410
v -3.1410 9.4050 0.9920
v -2.1000 5.8420 1.6370
v 6.1180 0.0250 4.8640
v 7.1630 2.1190 4.8970
v 6.3830 5.4980 4.3370
v 4.5220 8.4250 3.5560
v 2.5480 10.6230 2.8250
v 1.7650 11.1730 2.5710
v -0.6940 12.0950 1.8580
v -2.4840 11.7380 1.4500
v -3.2680 9.4600 1.5010
v -2.2270 5.8970 2.1470
v 3.3530 -2.8050 -12.7680
v 1.7570 -2.8050 -6.3640
v 3.3530 -3.7950 -12.7680
v 1.7570 -3.7950 -6.3640
v 4.3140 -2.8050 -12.5280
v 2.7170 -2.8050 -6.1250
v 4.3140 -3.7950 -12.5280
v 2.7170 -3.7950 -6.1250
v 3.1290 -2.6070 -13.2320
v 2.9370 -2.6070 -12.4640
v 3.1290 -3.9930 -13.2320
v 2.9370 -3.9930 -12.4640
v 6.6510 -2.6070 -12.3540
v 6.4600 -2.6070 -11.5850
v 6.6510 -3.9930 -12.3540
v 6.4600 -3.9930 -11.5850
v 3.3530 3.7950 -12.7680
v 1.7570 3.7950 -6.3640
v 3.3530 2.8050 -12.7680
v 1.7570 2.8050 -6.3640
v 4.3140 3.7950 -12.5280
v 2.7170 3.7950 -6.1250
v 4.3140 2.8050 -12.5280
v 2.7170 2.8050 -6.1250
v 3.1290 3.9930 -13.2320
v 2.9370 3.9930 -12.4640
v 3.1290 2.6070 -13.2320
v 2.9370 2.6070 -12.4640
v 6.6510 3.9930 -12.3540
v 6.4600 3.9930 -11.5850
v 6.6510 2.6070 -12.3540
v 6.4600 2.6070 -11.5850
v 8.0860 -0.3040 3.0360
v 8.0290 -0.2150 3.2630
v 8.0060 -0.0000 3.3560
v 8.0290 0.2150 3.2630
v 8.0860 0.3040 3.0360
v 8.1420 0.2150 2.8100
v 8.1650 0.0000 2.7160
v 8.1420 -0.2150 2.8100
v 9.3660 -2.0040 3.3560
v 8.9940 -1.4170 4.8500
v 8.8400 -0.0000 5.4690
v 8.9940 1.4170 4.8500
v 9.3660 2.0040 3.3560
v 9.7390 1.4170 1.8610
v 9.8930 0.0000 1.2420
v 9.7390 -1.4170 1.8610
v 11.1280 -3.0360 3.7950
v 10.5630 -2.1470 6.0590
v 10.3290 -0.0000 6.9970
v 10.5630 2.1470 6.0590
v 11.1280 3.0360 3.7950
v 11.6920 2.1470 1.5310
v 11.9260 0.0000 0.5930
v 11.6920 -2.1470 1.5310
v 12.8890 -2.1860 4.2340
v 12.4820 -1.5460 5.8640
v 12.3140 -0.0000 6.5390
v 12.4820 1.5460 5.8640
v 12.8890 2.1860 4.2340
v 13.2950 1.5460 2.6040
v 13.4630 0.0000 1.9280
v 13.2950 -1.5460 2.6040
v 14.1690 -0.5460 4.5530
v 14.0680 -0.3860 4.9610
v 14.0260 -0.0000 5.1290
v 14.0680 0.3860 4.9610
v 14.1690 0.5460 4.5530
v 14.2710 0.3860 4.1460
v 14.3130 0.0000 3.9770
v 14.2710 -0.3860 4.1460
v 13.7210 -0.9070 4.3050
v 13.5310 -0.4540 5.0680
v 13.5310 0.4540 5.0680
v 13.7210 0.9070 4.3050
v 13.9110 0.4540 3.5430
v 13.9110 -0.4540 3.5430
v 15.0740 -0.5630 4.5070
v 14.9480 -0.2810 5.0100
v 14.9480 0.2810 5.0100
v 15.0740 0.5630 4.5070
v 15.1990 0.2810 4.0030
v 15.1990 -0.2810 4.0030
v 16.1940 -0.0910 4.6160
v 16.1750 -0.0450 4.6920
v 16.1750 0.0450 4.6920
v 16.1940 0.0910 4.6160
v 16.2130 0.0450 4.5400
v 16.2130 -0.0450 4.5400
vt 0.45157 0.48962
vt 0.45123 0.49099
vt 0.45109 0.49155
vt 0.45123 0.49099
vt 0.45157 0.48962
vt 0.45191 0.48827
vt 0.45205 0.48770
vt 0.45191 0.48827
vt 0.46750 0.49394
vt 0.46440 0.50639
vt 0.46311 0.51155
vt 0.46440 0.50639
vt 0.46750 0.49394
vt 0.47060 0.48148
vt 0.47189 0.47632
vt 0.47060 0.48148
vt 0.48984 0.49984
vt 0.48453 0.52113
vt 0.48233 0.52994
vt 0.48453 0.52113
vt 0.48984 0.49984
vt 0.49514 0.47857
vt 0.49734 0.46975
vt 0.49514 0.47857
vt 0.51241 0.50479
vt 0.50677 0.52743
vt 0.50443 0.53682
vt 0.50677 0.52743
vt 0.51241 0.50479
vt 0.51806 0.48216
vt 0.52039 0.47278
vt 0.51806 0.48216
vt 0.53186 0.50862
vt 0.52678 0.52900
vt 0.52468 0.53744
vt 0.52678 0.52900
vt 0.53186 0.50862
vt 0.53694 0.48824
vt 0.53904 0.47980
vt 0.53694 0.48824
vt 0.54811 0.51165
vt 0.54449 0.52614
vt 0.54300 0.53215
vt 0.54449 0.52614
vt 0.54811 0.51165
vt 0.55172 0.49717
vt 0.55322 0.49116
vt 0.55172 0.49717
vt 0.55788 0.51341
vt 0.55652 0.51885
vt 0.55596 0.52109
vt 0.55652 0.51885
vt 0.55788 0.51341
vt 0.55923 0.50797
vt 0.55979 0.50572
vt 0.55923 0.50797
vt 0.46098 0.49282
vt 0.44081 0.48779
vt 0.40334 0.47845
vt 0.40161 0.47802
vt 0.40334 0.47845
vt 0.44081 0.48779
vt 0.46098 0.49282
vt 0.46058 0.49442
vt 0.44040 0.48940
vt 0.40294 0.48005
vt 0.40121 0.47962
vt 0.40294 0.48005
vt 0.44040 0.48940
vt 0.46058 0.49442
vt 0.53122 0.52177
vt 0.53646 0.52194
vt 0.53255 0.51914
vt 0.52324 0.51523
vt 0.51338 0.51158
vt 0.50946 0.51031
vt 0.49717 0.50674
vt 0.48822 0.50470
vt 0.48429 0.50496
vt 0.48950 0.50818
vt 0.53059 0.52432
vt 0.53582 0.52448
vt 0.53192 0.52168
vt 0.52261 0.51778
vt 0.51274 0.51413
vt 0.50882 0.51285
vt 0.49653 0.50929
vt 0.48758 0.50725
vt 0.48366 0.50750
vt 0.48886 0.51074
vt 0.53122 0.52177
vt 0.53646 0.52194
vt 0.53255 0.51914
vt 0.52324 0.51523
vt 0.51338 0.51158
vt 0.50946 0.51031
vt 0.49717 0.50674
vt 0.48822 0.50470
vt 0.48429 0.50496
vt 0.48950 0.50818
vt 0.53059 0.52432
vt 0.53582 0.52448
vt 0.53192 0.52168
vt 0.52261 0.51778
vt 0.51274 0.51413
vt 0.50882 0.51285
vt 0.49653 0.50929
vt 0.48758 0.50725
vt 0.48366 0.50750
vt 0.48886 0.51074
vt 0.51677 0.43616
vt 0.50879 0.46818
vt 0.51677 0.43616
vt 0.50879 0.46818
vt 0.52157 0.43736
vt 0.51358 0.46937
vt 0.52157 0.43736
vt 0.51358 0.46937
vt 0.51565 0.43384
vt 0.51468 0.43768
vt 0.51565 0.43384
vt 0.51468 0.43768
vt 0.53326 0.43823
vt 0.53230 0.44207
vt 0.53326 0.43823
vt 0.53230 0.44207
vt 0.51677 0.43616
vt 0.50879 0.46818
vt 0.51677 0.43616
vt 0.50879 0.46818
vt 0.52157 0.43736
vt 0.51358 0.46937
vt 0.52157 0.43736
vt 0.51358 0.46937
vt 0.51565 0.43384
vt 0.51468 0.43768
vt 0.51565 0.43384
vt 0.51468 0.43768
vt 0.53326 0.43823
vt 0.53230 0.44207
vt 0.53326 0.43823
vt 0.53230 0.44207
vt 0.54043 0.51518
vt 0.54014 0.51631
vt 0.54003 0.51678
vt 0.54014 0.51631
vt 0.54043 0.51518
vt 0.54071 0.51405
vt 0.54083 0.51358
vt 0.54071 0.51405
vt 0.54683 0.51678
vt 0.54497 0.52425
vt 0.54420 0.52734
vt 0.54497 0.52425
vt 0.54683 0.51678
vt 0.54870 0.50931
vt 0.54946 0.50621
vt 0.54870 0.50931
vt 0.55564 0.51897
vt 0.55282 0.53029
vt 0.55165 0.53499
vt 0.55282 0.53029
vt 0.55564 0.51897
vt 0.55846 0.50765
vt 0.55963 0.50296
vt 0.55846 0.50765
vt 0.56444 0.52117
vt 0.56241 0.52932
vt 0.56157 0.53270
vt 0.56241 0.52932
vt 0.56444 0.52117
vt 0.56648 0.51302
vt 0.56732 0.50964
vt 0.56648 0.51302
vt 0.57085 0.52277
vt 0.57034 0.52480
vt 0.57013 0.52565
vt 0.57034 0.52480
vt 0.57085 0.52277
vt 0.57136 0.52073
vt 0.57156 0.51989
vt 0.57136 0.52073
vt 0.56861 0.52153
vt 0.56766 0.52534
vt 0.56766 0.52534
vt 0.56861 0.52153
vt 0.56956 0.51772
vt 0.56956 0.51772
vt 0.57537 0.52253
vt 0.57474 0.52505
vt 0.57474 0.52505
vt 0.57537 0.52253
vt 0.57600 0.52002
vt 0.57600 0.52002
vt 0.58097 0.52308
vt 0.58088 0.52346
vt 0.58088 0.52346
vt 0.58097 0.52308
vt 0.58106 0.52270
vt 0.58106 0.52270
vn -0.6503 -0.7516 0.1106
vn -0.6425 -0.7597 0.1004
vn -0.8104 -0.3258 0.4869
vn -0.8048 -0.3427 0.4847
vn -0.8053 0.3283 0.4936
vn -0.8053 0.3424 0.4839
vn -0.6438 0.7567 0.1141
vn -0.6432 0.7591 0.1001
vn -0.5153 0.7564 -0.4029
vn -0.5134 0.7643 -0.3902
vn -0.4693 0.3316 -0.8184
vn -0.4653 0.3488 -0.8135
vn -0.4613 -0.3342 -0.8219
vn -0.4663 -0.3485 -0.8131
vn -0.5077 -0.7615 -0.4029
vn -0.5143 -0.7637 -0.3902
vn -0.4596 -0.8689 0.1835
vn -0.4628 -0.8668 0.1857
vn -0.6311 -0.4085 0.6594
vn -0.6340 -0.4038 0.6595
vn -0.6338 0.4077 0.6573
vn -0.6324 0.4042 0.6608
vn -0.4624 0.8677 0.1824
vn -0.4612 0.8675 0.1864
vn -0.3127 0.8718 -0.3771
vn -0.3144 0.8697 -0.3805
vn -0.2280 0.4126 -0.8819
vn -0.2305 0.4079 -0.8834
vn -0.2315 -0.4119 -0.8813
vn -0.2285 -0.4083 -0.8838
vn -0.3157 -0.8706 -0.3774
vn -0.3127 -0.8704 -0.3803
vn -0.1655 -0.9437 0.2866
vn -0.1813 -0.9381 0.2952
vn -0.2647 -0.4530 0.8513
vn -0.2813 -0.4371 0.8543
vn -0.2805 0.4526 0.8465
vn -0.2670 0.4375 0.8587
vn -0.1791 0.9423 0.2827
vn -0.1685 0.9393 0.2988
vn -0.0291 0.9419 -0.3345
vn -0.0397 0.9361 -0.3496
vn 0.1162 0.4513 -0.8848
vn 0.1025 0.4351 -0.8946
vn 0.1000 -0.4504 -0.8872
vn 0.1172 -0.4358 -0.8924
vn -0.0429 -0.9404 -0.3374
vn -0.0268 -0.9375 -0.3469
vn 0.1003 -0.9270 0.3614
vn 0.1183 -0.9287 0.3515
vn -0.0280 -0.4300 0.9024
vn -0.0084 -0.4443 0.8958
vn -0.0112 0.4285 0.9035
vn -0.0277 0.4461 0.8946
vn 0.1149 0.9243 0.3640
vn 0.1020 0.9317 0.3485
vn 0.2278 0.9321 -0.2814
vn 0.2405 0.9341 -0.2639
vn 0.3175 0.4357 -0.8422
vn 0.3334 0.4508 -0.8280
vn 0.3338 -0.4348 -0.8364
vn 0.3147 -0.4519 -0.8347
vn 0.2423 -0.9298 -0.2770
vn 0.2244 -0.9367 -0.2688
vn 0.3319 -0.8626 0.3818
vn 0.3474 -0.8616 0.3700
vn 0.2539 -0.4036 0.8790
vn 0.2707 -0.4174 0.8675
vn 0.2669 0.4008 0.8764
vn 0.2517 0.4218 0.8711
vn 0.3431 0.8577 0.3829
vn 0.3316 0.8686 0.3683
vn 0.4447 0.8747 -0.1924
vn 0.4547 0.8735 -0.1739
vn 0.5673 0.4204 -0.7081
vn 0.5793 0.4350 -0.6893
vn 0.5792 -0.4178 -0.6999
vn 0.5618 -0.4389 -0.7012
vn 0.4556 -0.8701 -0.1881
vn 0.4392 -0.8802 -0.1799
vn 0.6457 -0.6629 0.3790
vn 0.6563 -0.6611 0.3636
vn 0.6194 -0.2983 0.7262
vn 0.6289 -0.3145 0.7110
vn 0.6245 0.2959 0.7228
vn 0.6144 0.3218 0.7204
vn 0.6505 0.6583 0.3787
vn 0.6433 0.6735 0.3641
vn 0.7354 0.6765 -0.0391
vn 0.7388 0.6737 -0.0195
vn 0.8647 0.3161 -0.3903
vn 0.8673 0.3328 -0.3703
vn 0.8683 -0.3135 -0.3844
vn 0.8570 -0.3407 -0.3868
vn 0.7398 -0.6718 -0.0365
vn 0.7269 -0.6863 -0.0263
vn -0.9703 0.0000 -0.2419
vn 0.9703 0.0000 0.2419
vn 0.6002 -0.7857 0.1497
vn -0.1315 -0.9908 -0.0328
vn -0.9661 -0.0933 -0.2409
vn -0.9661 0.0933 -0.2409
vn -0.1315 0.9908 -0.0328
vn 0.6002 0.7857 0.1497
vn -0.2419 -0.0000 0.9703
vn 0.2419 0.0000 -0.9703
vn 0.8618 0.4343 0.2619
vn 0.9449 -0.2527 0.2082
vn 0.8173 -0.5581 0.1433
vn 0.7220 -0.6837 0.1060
vn 0.5635 -0.8245 0.0512
vn 0.3544 -0.9350 -0.0129
vn -0.1619 -0.9759 -0.1461
vn -0.9144 -0.3090 -0.2615
vn -0.9305 0.3079 -0.1986
vn -0.5635 0.8245 -0.0512
vn -0.2406 -0.1045 0.9650
vn 0.2406 0.1045 -0.9650
vn 0.8618 -0.4343 0.2619
vn 0.9449 0.2527 0.2082
vn 0.8173 0.5581 0.1433
vn 0.7220 0.6837 0.1060
vn 0.5635 0.8245 0.0512
vn 0.3544 0.9350 -0.0129
vn -0.1619 0.9759 -0.1461
vn -0.9144 0.3090 -0.2615
vn -0.9305 -0.3079 -0.1986
vn -0.5635 -0.8245 -0.0512
vn -0.2406 0.1045 0.9650
vn 0.2406 -0.1045 -0.9650
vn 0.0000 1.0000 0.0000
vn 0.0000 -1.0000 0.0000
vn -0.8014 -0.5972 0.0347
vn -0.8999 -0.2532 0.3552
vn -0.8999 0.2532 0.3552
vn -0.8014 0.5972 0.0347
vn -0.6913 0.5972 -0.4069
vn -0.6278 0.2532 -0.7360
vn -0.6278 -0.2532 -0.7360
vn -0.6913 -0.5972 -0.4069
vn -0.5314 -0.8252 0.1916
vn -0.6686 -0.3576 0.6519
vn -0.6686 0.3576 0.6519
vn -0.5314 0.8252 0.1916
vn -0.3793 0.8252 -0.4186
vn -0.2843 0.3576 -0.8895
vn -0.2843 -0.3576 -0.8895
vn -0.3793 -0.8252 -0.4186
vn 0.3101 -0.8561 0.4135
vn 0.2085 -0.3724 0.9044
vn 0.2085 0.3724 0.9044
vn 0.3101 0.8561 0.4135
vn 0.4680 0.8561 -0.2195
vn 0.6086 0.3724 -0.7006
vn 0.6086 -0.3724 -0.7006
vn 0.4680 -0.8561 -0.2195
vn 0.6788 -0.6100 0.4088
vn 0.6140 -0.2589 0.7456
vn 0.6140 0.2589 0.7456
vn 0.6788 0.6100 0.4088
vn 0.7913 0.6100 -0.0423
vn 0.8922 0.2589 -0.3701
vn 0.8922 -0.2589 -0.3701
vn 0.7913 -0.6100 -0.0423
vn 0.1238 -0.8389 0.5300
vn 0.1406 -0.8489 0.5095
vn 0.0409 -0.0000 0.9992
vn 0.1342 0.8365 0.5312
vn 0.1245 0.8526 0.5076
vn 0.2722 0.8552 -0.4410
vn 0.2822 0.8657 -0.4135
vn 0.3366 -0.0000 -0.9416
vn 0.2827 -0.8536 -0.4375
vn 0.2660 -0.8682 -0.4190
vn 0.2893 -0.8030 0.5210
vn 0.2809 -0.7924 0.5415
vn 0.2506 -0.0000 0.9681
vn 0.2876 0.8037 0.5209
vn 0.2918 0.7882 0.5418
vn 0.3926 0.8410 -0.3722
vn 0.3888 0.8311 -0.3976
vn 0.4675 -0.0000 -0.8840
vn 0.3908 -0.8415 -0.3730
vn 0.4004 -0.8279 -0.3928
g plumage_main
f 1/1/1 10/10/1 2/2/1
f 1/1/2 9/9/2 10/10/2
f 2/2/3 11/11/3 3/3/3
f 2/2/4 10/10/4 11/11/4
f 3/3/5 12/12/5 4/4/5
f 3/3/6 11/11/6 12/12/6
f 4/4/7 13/13/7 5/5/7
f 4/4/8 12/12/8 13/13/8
f 5/5/9 14/14/9 6/6/9
f 5/5/10 13/13/10 14/14/10
f 6/6/11 15/15/11 7/7/11
f 6/6/12 14/14/12 15/15/12
f 7/7/13 16/16/13 8/8/13
f 7/7/14 15/15/14 16/16/14
f 8/8/15 9/9/15 1/1/15
f 8/8/16 16/16/16 9/9/16
f 9/9/17 18/18/17 10/10/17
f 9/9/18 17/17/18 18/18/18
f 10/10/19 19/19/19 11/11/19
f 10/10/20 18/18/20 19/19/20
f 11/11/21 20/20/21 12/12/21
f 11/11/22 19/19/22 20/20/22
f 12/12/23 21/21/23 13/13/23
f 12/12/24 20/20/24 21/21/24
f 13/13/25 22/22/25 14/14/25
f 13/13/26 21/21/26 22/22/26
f 14/14/27 23/23/27 15/15/27
f 14/14/28 22/22/28 23/23/28
f 15/15/29 24/24/29 16/16/29
f 15/15/30 23/23/30 24/24/30
f 16/16/31 17/17/31 9/9/31
f 16/16/32 24/24/32 17/17/32
f 17/17/33 26/26/33 18/18/33
f 17/17/34 25/25/34 26/26/34
f 18/18/35 27/27/35 19/19/35
f 18/18/36 26/26/36 27/27/36
f 19/19/37 28/28/37 20/20/37
f 19/19/38 27/27/38 28/28/38
f 20/20/39 29/29/39 21/21/39
f 20/20/40 28/28/40 29/29/40
f 21/21/41 30/30/41 22/22/41
f 21/21/42 29/29/42 30/30/42
f 22/22/43 31/31/43 23/23/43
f 22/22/44 30/30/44 31/31/44
f 23/23/45 32/32/45 24/24/45
f 23/23/46 31/31/46 32/32/46
f 24/24/47 25/25/47 17/17/47
f 24/24/48 32/32/48 25/25/48
f 25/25/49 34/34/49 26/26/49
f 25/25/50 33/33/50 34/34/50
f 26/26/51 35/35/51 27/27/51
f 26/26/52 34/34/52 35/35/52
f 27/27/53 36/36/53 28/28/53
f 27/27/54 35/35/54 36/36/54
f 28/28/55 37/37/55 29/29/55
f 28/28/56 36/36/56 37/37/56
f 29/29/57 38/38/57 30/30/57
f 29/29/58 37/37/58 38/38/58
f 30/30/59 39/39/59 31/31/59
f 30/30/60 38/38/60 39/39/60
f 31/31/61 40/40/61 32/32/61
f 31/31/62 39/39/62 40/40/62
f 32/32/63 33/33/63 25/25/63
f 32/32/64 40/40/64 33/33/64
f 33/33/65 42/42/65 34/34/65
f 33/33/66 41/41/66 42/42/66
f 34/34/67 43/43/67 35/35/67
f 34/34/68 42/42/68 43/43/68
f 35/35/69 44/44/69 36/36/69
f 35/35/70 43/43/70 44/44/70
f 36/36/71 45/45/71 37/37/71
f 36/36/72 44/44/72 45/45/72
f 37/37/73 46/46/73 38/38/73
f 37/37/74 45/45/74 46/46/74
f 38/38/75 47/47/75 39/39/75
f 38/38/76 46/46/76 47/47/76
f 39/39/77 48/48/77 40/40/77
f 39/39/78 47/47/78 48/48/78
f 40/40/79 41/41/79 33/33/79
f 40/40/80 48/48/80 41/41/80
f 41/41/81 50/50/81 42/42/81
f 41/41/82 49/49/82 50/50/82
f 42/42/83 51/51/83 43/43/83
f 42/42/84 50/50/84 51/51/84
f 43/43/85 52/52/85 44/44/85
f 43/43/86 51/51/86 52/52/86
f 44/44/87 53/53/87 45/45/87
f 44/44/88 52/52/88 53/53/88
f 45/45/89 54/54/89 46/46/89
f 45/45/90 53/53/90 54/54/90
f 46/46/91 55/55/91 47/47/91
f 46/46/92 54/54/92 55/55/92
f 47/47/93 56/56/93 48/48/93
f 47/47/94 55/55/94 56/56/94
f 48/48/95 49/49/95 41/41/95
f 48/48/96 56/56/96 49/49/96
f 1/1/97 2/2/97 3/3/97
f 49/49/98 51/51/98 50/50/98
f 1/1/97 3/3/97 4/4/97
f 49/49/98 52/52/98 51/51/98
f 1/1/97 4/4/97 5/5/97
f 49/49/98 53/53/98 52/52/98
f 1/1/97 5/5/97 6/6/97
f 49/49/98 54/54/98 53/53/98
f 1/1/97 6/6/97 7/7/97
f 49/49/98 55/55/98 54/54/98
f 1/1/97 7/7/97 8/8/97
f 49/49/98 56/56/98 55/55/98
f 57/57/99 65/65/99 58/58/99
f 57/57/99 64/64/99 65/65/99
f 58/58/100 66/66/100 59/59/100
f 58/58/100 65/65/100 66/66/100
f 59/59/101 67/67/101 60/60/101
f 59/59/101 66/66/101 67/67/101
f 60/60/102 68/68/102 61/61/102
f 60/60/102 67/67/102 68/68/102
f 61/61/103 69/69/103 62/62/103
f 61/61/103 68/68/103 69/69/103
f 62/62/104 70/70/104 63/63/104
f 62/62/104 69/69/104 70/70/104
f 63/63/98 64/64/98 57/57/98
f 63/63/98 70/70/98 64/64/98
f 57/57/105 59/59/105 58/58/105
f 64/64/106 65/65/106 66/66/106
f 57/57/105 60/60/105 59/59/105
f 64/64/106 66/66/106 67/67/106
f 57/57/105 61/61/105 60/60/105
f 64/64/106 67/67/106 68/68/106
f 57/57/105 62/62/105 61/61/105
f 64/64/106 68/68/106 69/69/106
f 57/57/105 63/63/105 62/62/105
f 64/64/106 69/69/106 70/70/106
f 71/71/107 82/82/107 72/72/107
f 71/71/107 81/81/107 82/82/107
f 72/72/108 83/83/108 73/73/108
f 72/72/108 82/82/108 83/83/108
f 73/73/109 84/84/109 74/74/109
f 73/73/109 83/83/109 84/84/109
f 74/74/110 85/85/110 75/75/110
f 74/74/110 84/84/110 85/85/110
f 75/75/111 86/86/111 76/76/111
f 75/75/111 85/85/111 86/86/111
f 76/76/112 87/87/112 77/77/112
f 76/76/112 86/86/112 87/87/112
f 77/77/113 88/88/113 78/78/113
f 77/77/113 87/87/113 88/88/113
f 78/78/114 89/89/114 79/79/114
f 78/78/114 88/88/114 89/89/114
f 79/79/115 90/90/115 80/80/115
f 79/79/115 89/89/115 90/90/115
f 80/80/116 81/81/116 71/71/116
f 80/80/116 90/90/116 81/81/116
f 71/71/117 73/73/117 72/72/117
f 81/81/118 82/82/118 83/83/118
f 71/71/117 74/74/117 73/73/117
f 81/81/118 83/83/118 84/84/118
f 71/71/117 75/75/117 74/74/117
f 81/81/118 84/84/118 85/85/118
f 71/71/117 76/76/117 75/75/117
f 81/81/118 85/85/118 86/86/118
f 71/71/117 77/77/117 76/76/117
f 81/81/118 86/86/118 87/87/118
f 71/71/117 78/78/117 77/77/117
f 81/81/118 87/87/118 88/88/118
f 71/71/117 79/79/117 78/78/117
f 81/81/118 88/88/118 89/89/118
f 71/71/117 80/80/117 79/79/117
f 81/81/118 89/89/118 90/90/118
f 91/91/119 92/92/119 102/102/119
f 91/91/119 102/102/119 101/101/119
f 92/92/120 93/93/120 103/103/120
f 92/92/120 103/103/120 102/102/120
f 93/93/121 94/94/121 104/104/121
f 93/93/121 104/104/121 103/103/121
f 94/94/122 95/95/122 105/105/122
f 94/94/122 105/105/122 104/104/122
f 95/95/123 96/96/123 106/106/123
f 95/95/123 106/106/123 105/105/123
f 96/96/124 97/97/124 107/107/124
f 96/96/124 107/107/124 106/106/124
f 97/97/125 98/98/125 108/108/125
f 97/97/125 108/108/125 107/107/125
f 98/98/126 99/99/126 109/109/126
f 98/98/126 109/109/126 108/108/126
f 99/99/127 100/100/127 110/110/127
f 99/99/127 110/110/127 109/109/127
f 100/100/128 91/91/128 101/101/128
f 100/100/128 101/101/128 110/110/128
f 91/91/129 92/92/129 93/93/129
f 101/101/130 103/103/130 102/102/130
f 91/91/129 93/93/129 94/94/129
f 101/101/130 104/104/130 103/103/130
f 91/91/129 94/94/129 95/95/129
f 101/101/130 105/105/130 104/104/130
f 91/91/129 95/95/129 96/96/129
f 101/101/130 106/106/130 105/105/130
f 91/91/129 96/96/129 97/97/129
f 101/101/130 107/107/130 106/106/130
f 91/91/129 97/97/129 98/98/129
f 101/101/130 108/108/130 107/107/130
f 91/91/129 98/98/129 99/99/129
f 101/101/130 109/109/130 108/108/130
f 91/91/129 99/99/129 100/100/129
f 101/101/130 110/110/130 109/109/130
f 111/111/97 114/114/97 112/112/97
f 111/111/97 113/113/97 114/114/97
f 115/115/98 118/118/98 117/117/98
f 115/115/98 116/116/98 118/118/98
f 111/111/131 116/116/131 115/115/131
f 111/111/131 112/112/131 116/116/131
f 113/113/132 118/118/132 114/114/132
f 113/113/132 117/117/132 118/118/132
f 111/111/106 117/117/106 113/113/106
f 111/111/106 115/115/106 117/117/106
f 112/112/105 118/118/105 116/116/105
f 112/112/105 114/114/105 118/118/105
f 119/119/97 122/122/97 120/120/97
f 119/119/97 121/121/97 122/122/97
f 123/123/98 126/126/98 125/125/98
f 123/123/98 124/124/98 126/126/98
f 119/119/131 124/124/131 123/123/131
f 119/119/131 120/120/131 124/124/131
f 121/121/132 126/126/132 122/122/132
f 121/121/132 125/125/132 126/126/132
f 119/119/106 125/125/106 121/121/106
f 119/119/106 123/123/106 125/125/106
f 120/120/105 126/126/105 124/124/105
f 120/120/105 122/122/105 126/126/105
f 127/127/97 130/130/97 128/128/97
f 127/127/97 129/129/97 130/130/97
f 131/131/98 134/134/98 133/133/98
f 131/131/98 132/132/98 134/134/98
f 127/127/131 132/132/131 131/131/131
f 127/127/131 128/128/131 132/132/131
f 129/129/132 134/134/132 130/130/132
f 129/129/132 133/133/132 134/134/132
f 127/127/106 133/133/106 129/129/106
f 127/127/106 131/131/106 133/133/106
f 128/128/105 134/134/105 132/132/105
f 128/128/105 130/130/105 134/134/105
f 135/135/97 138/138/97 136/136/97
f 135/135/97 137/137/97 138/138/97
f 139/139/98 142/142/98 141/141/98
f 139/139/98 140/140/98 142/142/98
f 135/135/131 140/140/131 139/139/131
f 135/135/131 136/136/131 140/140/131
f 137/137/132 142/142/132 138/138/132
f 137/137/132 141/141/132 142/142/132
f 135/135/106 141/141/106 137/137/106
f 135/135/106 139/139/106 141/141/106
f 136/136/105 142/142/105 140/140/105
f 136/136/105 138/138/105 142/142/105
g plumage_hood
f 143/143/133 152/152/133 144/144/133
f 143/143/133 151/151/133 152/152/133
f 144/144/134 153/153/134 145/145/134
f 144/144/134 152/152/134 153/153/134
f 145/145/135 154/154/135 146/146/135
f 145/145/135 153/153/135 154/154/135
f 146/146/136 155/155/136 147/147/136
f 146/146/136 154/154/136 155/155/136
f 147/147/137 156/156/137 148/148/137
f 147/147/137 155/155/137 156/156/137
f 148/148/138 157/157/138 149/149/138
f 148/148/138 156/156/138 157/157/138
f 149/149/139 158/158/139 150/150/139
f 149/149/139 157/157/139 158/158/139
f 150/150/140 151/151/140 143/143/140
f 150/150/140 158/158/140 151/151/140
f 151/151/141 160/160/141 152/152/141
f 151/151/141 159/159/141 160/160/141
f 152/152/142 161/161/142 153/153/142
f 152/152/142 160/160/142 161/161/142
f 153/153/143 162/162/143 154/154/143
f 153/153/143 161/161/143 162/162/143
f 154/154/144 163/163/144 155/155/144
f 154/154/144 162/162/144 163/163/144
f 155/155/145 164/164/145 156/156/145
f 155/155/145 163/163/145 164/164/145
f 156/156/146 165/165/146 157/157/146
f 156/156/146 164/164/146 165/165/146
f 157/157/147 166/166/147 158/158/147
f 157/157/147 165/165/147 166/166/147
f 158/158/148 159/159/148 151/151/148
f 158/158/148 166/166/148 159/159/148
f 159/159/149 168/168/149 160/160/149
f 159/159/149 167/167/149 168/168/149
f 160/160/150 169/169/150 161/161/150
f 160/160/150 168/168/150 169/169/150
f 161/161/151 170/170/151 162/162/151
f 161/161/151 169/169/151 170/170/151
f 162/162/152 171/171/152 163/163/152
f 162/162/152 170/170/152 171/171/152
f 163/163/153 172/172/153 164/164/153
f 163/163/153 171/171/153 172/172/153
f 164/164/154 173/173/154 165/165/154
f 164/164/154 172/172/154 173/173/154
f 165/165/155 174/174/155 166/166/155
f 165/165/155 173/173/155 174/174/155
f 166/166/156 167/167/156 159/159/156
f 166/166/156 174/174/156 167/167/156
f 167/167/157 176/176/157 168/168/157
f 167/167/157 175/175/157 176/176/157
f 168/168/158 177/177/158 169/169/158
f 168/168/158 176/176/158 177/177/158
f 169/169/159 178/178/159 170/170/159
f 169/169/159 177/177/159 178/178/159
f 170/170/160 179/179/160 171/171/160
f 170/170/160 178/178/160 179/179/160
f 171/171/161 180/180/161 172/172/161
f 171/171/161 179/179/161 180/180/161
f 172/172/162 181/181/162 173/173/162
f 172/172/162 180/180/162 181/181/162
f 173/173/163 182/182/163 174/174/163
f 173/173/163 181/181/163 182/182/163
f 174/174/164 175/175/164 167/167/164
f 174/174/164 182/182/164 175/175/164
f 143/143/97 144/144/97 145/145/97
f 175/175/98 177/177/98 176/176/98
f 143/143/97 145/145/97 146/146/97
f 175/175/98 178/178/98 177/177/98
f 143/143/97 146/146/97 147/147/97
f 175/175/98 179/179/98 178/178/98
f 143/143/97 147/147/97 148/148/97
f 175/175/98 180/180/98 179/179/98
f 143/143/97 148/148/97 149/149/97
f 175/175/98 181/181/98 180/180/98
f 143/143/97 149/149/97 150/150/97
f 175/175/98 182/182/98 181/181/98
f 183/183/165 190/190/165 184/184/165
f 183/183/166 189/189/166 190/190/166
f 184/184/167 191/191/167 185/185/167
f 184/184/167 190/190/167 191/191/167
f 185/185/168 192/192/168 186/186/168
f 185/185/169 191/191/169 192/192/169
f 186/186/170 193/193/170 187/187/170
f 186/186/171 192/192/171 193/193/171
f 187/187/172 194/194/172 188/188/172
f 187/187/172 193/193/172 194/194/172
f 188/188/173 189/189/173 183/183/173
f 188/188/174 194/194/174 189/189/174
f 189/189/175 196/196/175 190/190/175
f 189/189/176 195/195/176 196/196/176
f 190/190/177 197/197/177 191/191/177
f 190/190/177 196/196/177 197/197/177
f 191/191/178 198/198/178 192/192/178
f 191/191/179 197/197/179 198/198/179
f 192/192/180 199/199/180 193/193/180
f 192/192/181 198/198/181 199/199/181
f 193/193/182 200/200/182 194/194/182
f 193/193/182 199/199/182 200/200/182
f 194/194/183 195/195/183 189/189/183
f 194/194/184 200/200/184 195/195/184
f 183/183/97 184/184/97 185/185/97
f 195/195/98 197/197/98 196/196/98
f 183/183/97 185/185/97 186/186/97
f 195/195/98 198/198/98 197/197/98
f 183/183/97 186/186/97 187/187/97
f 195/195/98 199/199/98 198/198/98
f 183/183/97 187/187/97 188/188/97
f 195/195/98 200/200/98 199/199/98
