# Unreal legacy OBJ adapter: canonical vertices are centimetres in the bird frame (+X forward, +Y right, +Z up, origin at the body centre); this file is written with Y reflected and triangle winding reversed. One object, exactly two g groups (plumage_main, plumage_hood), so the importer creates exactly two material slots.
# Common kestrel (Falco tinnunculus), pose down_stroke
# wingspan 75.0 cm, body length 33.0 cm; Collins Bird Guide 2nd ed., Falco tinnunculus: length 32-35 cm, wingspan 71-80 cm. Mid-points used: 33 cm and 75 cm.
# AUTHORED low-poly silhouette in those published proportions. Not a scan, not photogrammetry, not a claim about an individual bird.
o SM_BirdsV1_CommonKestrel_DownStroke
s off
v -9.9050 -0.3170 -0.0160
v -9.9150 -0.2240 0.2500
v -9.9190 -0.0000 0.3600
v -9.9150 0.2240 0.2500
v -9.9050 0.3170 -0.0160
v -9.8960 0.2240 -0.2820
v -9.8920 0.0000 -0.3920
v -9.8960 -0.2240 -0.2820
v -6.6100 -2.7460 0.1650
v -6.6950 -1.9410 2.6020
v -6.7300 -0.0000 3.6120
v -6.6950 1.9410 2.6020
v -6.6100 2.7460 0.1650
v -6.5250 1.9410 -2.2720
v -6.4890 0.0000 -3.2810
v -6.5250 -1.9410 -2.2720
v -1.9950 -4.7520 0.3930
v -2.1400 -3.3600 4.5580
v -2.2010 -0.0000 6.2830
v -2.1400 3.3600 4.5580
v -1.9950 4.7520 0.3930
v -1.8490 3.3600 -3.7720
v -1.7890 0.0000 -5.4980
v -1.8490 -3.3600 -3.7720
v 2.6270 -5.2800 0.4220
v 2.4720 -3.7340 4.8530
v 2.4080 -0.0000 6.6880
v 2.4720 3.7340 4.8530
v 2.6270 5.2800 0.4220
v 2.7820 3.7340 -4.0090
v 2.8460 0.0000 -5.8440
v 2.7820 -3.7340 -4.0090
v 6.5910 -4.5410 0.3620
v 6.4520 -3.2110 4.3500
v 6.3940 -0.0000 6.0020
v 6.4520 3.2110 4.3500
v 6.5910 4.5410 0.3620
v 6.7310 3.2110 -3.6260
v 6.7880 0.0000 -5.2770
v 6.7310 -3.2110 -3.6260
v 9.8960 -3.0620 0.2800
v 9.7970 -2.1650 3.1150
v 9.7560 -0.0000 4.2900
v 9.7970 2.1650 3.1150
v 9.8960 3.0620 0.2800
v 9.9950 2.1650 -2.5560
v 10.0360 0.0000 -3.7310
v 9.9950 -2.1650 -2.5560
v 11.8800 -1.0560 0.2170
v 11.8430 -0.7470 1.2800
v 11.8270 -0.0000 1.7210
v 11.8430 0.7470 1.2800
v 11.8800 1.0560 0.2170
v 11.9170 0.7470 -0.8470
v 11.9320 0.0000 -1.2870
v 11.9170 -0.7470 -0.8470
v -7.9090 -1.4850 -0.4410
v -12.5270 -4.5540 -0.6030
v -21.1010 -3.5640 -0.9020
v -21.4970 -0.0000 -0.9160
v -21.1010 3.5640 -0.9020
v -12.5270 4.5540 -0.6030
v -7.9090 1.4850 -0.4410
v -7.9210 -1.4850 -0.1120
v -12.5380 -4.5540 -0.2730
v -21.1130 -3.5640 -0.5720
v -21.5090 -0.0000 -0.5860
v -21.1130 3.5640 -0.5720
v -12.5380 4.5540 -0.2730
v -7.9210 1.4850 -0.1120
v 10.0530 -3.4920 2.8660
v 10.7820 -10.4840 -5.0190
v 8.5720 -18.1110 -12.9680
v 4.6930 -23.1830 -17.4220
v 0.3560 -26.3540 -19.5870
v -0.9310 -26.6440 -19.6030
v -1.4380 -24.4870 -17.5750
v -1.7960 -20.0500 -13.4850
v -1.5800 -12.2440 -6.1730
v 0.2900 -4.4490 1.5330
v 10.0410 -3.8250 3.1870
v 10.7980 -10.8130 -4.6950
v 8.6160 -18.4350 -12.6420
v 4.7530 -23.5040 -17.0950
v 0.4240 -26.6730 -19.2600
v -0.8630 -26.9640 -19.2760
v -1.3780 -24.8080 -17.2480
v -1.7520 -20.3740 -13.1590
v -1.5640 -12.5730 -5.8490
v 0.2780 -4.7820 1.8540
v 10.0530 3.4920 2.8660
v 10.7820 10.4840 -5.0190
v 8.5720 18.1110 -12.9680
v 4.6930 23.1830 -17.4220
v 0.3560 26.3540 -19.5870
v -0.9310 26.6440 -19.6030
v -1.4380 24.4870 -17.5750
v -1.7960 20.0500 -13.4850
v -1.5800 12.2440 -6.1730
v 0.2900 4.4490 1.5330
v 10.0410 3.8250 3.1870
v 10.7980 10.8130 -4.6950
v 8.6160 18.4350 -12.6420
v 4.7530 23.5040 -17.0950
v 0.4240 26.6730 -19.2600
v -0.8630 26.9640 -19.2760
v -1.3780 24.8080 -17.2480
v -1.7520 20.3740 -13.1590
v -1.5640 12.5730 -5.8490
v 0.2780 4.7820 1.8540
v 6.5610 -0.3040 1.2200
v 6.5530 -0.2150 1.4530
v 6.5500 -0.0000 1.5500
v 6.5530 0.2150 1.4530
v 6.5610 0.3040 1.2200
v 6.5700 0.2150 0.9870
v 6.5730 0.0000 0.8900
v 6.5700 -0.2150 0.9870
v 7.8810 -2.0040 1.2660
v 7.8270 -1.4170 2.8050
v 7.8050 -0.0000 3.4420
v 7.8270 1.4170 2.8050
v 7.8810 2.0040 1.2660
v 7.9340 1.4170 -0.2730
v 7.9570 0.0000 -0.9110
v 7.9340 -1.4170 -0.2730
v 9.6950 -3.0360 1.3290
v 9.6130 -2.1470 3.6610
v 9.5790 -0.0000 4.6270
v 9.6130 2.1470 3.6610
v 9.6950 3.0360 1.3290
v 9.7760 2.1470 -1.0030
v 9.8100 0.0000 -1.9690
v 9.7760 -2.1470 -1.0030
v 11.5080 -2.1860 1.3920
v 11.4500 -1.5460 3.0720
v 11.4250 -0.0000 3.7670
v 11.4500 1.5460 3.0720
v 11.5080 2.1860 1.3920
v 11.5670 1.5460 -0.2870
v 11.5910 0.0000 -0.9820
v 11.5670 -1.5460 -0.2870
v 12.8280 -0.5460 1.4390
v 12.8130 -0.3860 1.8580
v 12.8070 -0.0000 2.0320
v 12.8130 0.3860 1.8580
v 12.8280 0.5460 1.4390
v 12.8420 0.3860 1.0190
v 12.8480 0.0000 0.8450
v 12.8420 -0.3860 1.0190
v 12.3380 -0.9900 1.2890
v 12.3080 -0.4950 2.1460
v 12.3080 0.4950 2.1460
v 12.3380 0.9900 1.2890
v 12.3670 0.4950 0.4330
v 12.3670 -0.4950 0.4330
v 13.4300 -0.6140 1.1950
v 13.4110 -0.3070 1.7610
v 13.4110 0.3070 1.7610
v 13.4300 0.6140 1.1950
v 13.4500 0.3070 0.6300
v 13.4500 -0.3070 0.6300
v 14.3270 -0.0990 1.0620
v 14.3240 -0.0500 1.1470
v 14.3240 0.0490 1.1470
v 14.3270 0.0990 1.0620
v 14.3300 0.0500 0.9760
v 14.3300 -0.0500 0.9760
vt 0.45048 0.49992
vt 0.45043 0.50125
vt 0.45040 0.50180
vt 0.45043 0.50125
vt 0.45048 0.49992
vt 0.45052 0.49859
vt 0.45054 0.49804
vt 0.45052 0.49859
vt 0.46695 0.50082
vt 0.46652 0.51301
vt 0.46635 0.51806
vt 0.46652 0.51301
vt 0.46695 0.50082
vt 0.46737 0.48864
vt 0.46755 0.48359
vt 0.46737 0.48864
vt 0.49002 0.50196
vt 0.48930 0.52279
vt 0.48900 0.53141
vt 0.48930 0.52279
vt 0.49002 0.50196
vt 0.49075 0.48114
vt 0.49106 0.47251
vt 0.49075 0.48114
vt 0.51314 0.50211
vt 0.51236 0.52426
vt 0.51204 0.53344
vt 0.51236 0.52426
vt 0.51314 0.50211
vt 0.51391 0.47996
vt 0.51423 0.47078
vt 0.51391 0.47996
vt 0.53295 0.50181
vt 0.53226 0.52175
vt 0.53197 0.53001
vt 0.53226 0.52175
vt 0.53295 0.50181
vt 0.53365 0.48187
vt 0.53394 0.47362
vt 0.53365 0.48187
vt 0.54948 0.50140
vt 0.54899 0.51558
vt 0.54878 0.52145
vt 0.54899 0.51558
vt 0.54948 0.50140
vt 0.54997 0.48722
vt 0.55018 0.48135
vt 0.54997 0.48722
vt 0.55940 0.50109
vt 0.55922 0.50640
vt 0.55914 0.50860
vt 0.55922 0.50640
vt 0.55940 0.50109
vt 0.55958 0.49577
vt 0.55966 0.49356
vt 0.55958 0.49577
vt 0.46046 0.49779
vt 0.43737 0.49699
vt 0.39449 0.49549
vt 0.39252 0.49542
vt 0.39449 0.49549
vt 0.43737 0.49699
vt 0.46046 0.49779
vt 0.46039 0.49944
vt 0.43731 0.49863
vt 0.39443 0.49714
vt 0.39245 0.49707
vt 0.39443 0.49714
vt 0.43731 0.49863
vt 0.46039 0.49944
vt 0.55027 0.51433
vt 0.55391 0.47491
vt 0.54286 0.43516
vt 0.52346 0.41289
vt 0.50178 0.40207
vt 0.49534 0.40198
vt 0.49281 0.41213
vt 0.49102 0.43257
vt 0.49210 0.46914
vt 0.50145 0.50767
vt 0.55021 0.51594
vt 0.55399 0.47652
vt 0.54308 0.43679
vt 0.52377 0.41453
vt 0.50212 0.40370
vt 0.49568 0.40362
vt 0.49311 0.41376
vt 0.49124 0.43421
vt 0.49218 0.47075
vt 0.50139 0.50927
vt 0.55027 0.51433
vt 0.55391 0.47491
vt 0.54286 0.43516
vt 0.52346 0.41289
vt 0.50178 0.40207
vt 0.49534 0.40198
vt 0.49281 0.41213
vt 0.49102 0.43257
vt 0.49210 0.46914
vt 0.50145 0.50767
vt 0.55021 0.51594
vt 0.55399 0.47652
vt 0.54308 0.43679
vt 0.52377 0.41453
vt 0.50212 0.40370
vt 0.49568 0.40362
vt 0.49311 0.41376
vt 0.49124 0.43421
vt 0.49218 0.47075
vt 0.50139 0.50927
vt 0.53280 0.50610
vt 0.53277 0.50726
vt 0.53275 0.50775
vt 0.53277 0.50726
vt 0.53280 0.50610
vt 0.53285 0.50494
vt 0.53287 0.50445
vt 0.53285 0.50494
vt 0.53941 0.50633
vt 0.53914 0.51402
vt 0.53902 0.51721
vt 0.53914 0.51402
vt 0.53941 0.50633
vt 0.53967 0.49863
vt 0.53978 0.49545
vt 0.53967 0.49863
vt 0.54848 0.50665
vt 0.54807 0.51831
vt 0.54790 0.52314
vt 0.54807 0.51831
vt 0.54848 0.50665
vt 0.54888 0.49499
vt 0.54905 0.49016
vt 0.54888 0.49499
vt 0.55754 0.50696
vt 0.55725 0.51536
vt 0.55712 0.51884
vt 0.55725 0.51536
vt 0.55754 0.50696
vt 0.55783 0.49856
vt 0.55795 0.49509
vt 0.55783 0.49856
vt 0.56414 0.50719
vt 0.56407 0.50929
vt 0.56404 0.51016
vt 0.56407 0.50929
vt 0.56414 0.50719
vt 0.56421 0.50509
vt 0.56424 0.50423
vt 0.56421 0.50509
vt 0.56169 0.50645
vt 0.56154 0.51073
vt 0.56154 0.51073
vt 0.56169 0.50645
vt 0.56183 0.50216
vt 0.56183 0.50216
vt 0.56715 0.50597
vt 0.56705 0.50880
vt 0.56705 0.50880
vt 0.56715 0.50597
vt 0.56725 0.50315
vt 0.56725 0.50315
vt 0.57164 0.50531
vt 0.57162 0.50574
vt 0.57162 0.50574
vt 0.57164 0.50531
vt 0.57165 0.50488
vt 0.57165 0.50488
vn -0.5905 -0.7681 0.2475
vn -0.5849 -0.7761 0.2357
vn -0.6726 -0.3357 0.6595
vn -0.6674 -0.3531 0.6557
vn -0.6661 0.3382 0.6648
vn -0.6681 0.3528 0.6551
vn -0.5834 0.7730 0.2494
vn -0.5857 0.7756 0.2355
vn -0.5646 0.7729 -0.2895
vn -0.5601 0.7807 -0.2772
vn -0.6083 0.3417 -0.7164
vn -0.6033 0.3593 -0.7120
vn -0.6011 -0.3442 -0.7213
vn -0.6041 -0.3590 -0.7115
vn -0.5572 -0.7778 -0.2909
vn -0.5609 -0.7801 -0.2770
vn -0.3919 -0.8777 0.2759
vn -0.3944 -0.8756 0.2788
vn -0.4620 -0.4157 0.7834
vn -0.4647 -0.4110 0.7843
vn -0.4650 0.4150 0.7820
vn -0.4630 0.4114 0.7851
vn -0.3947 0.8766 0.2755
vn -0.3928 0.8763 0.2791
vn -0.3645 0.8804 -0.3033
vn -0.3668 0.8784 -0.3063
vn -0.3871 0.4198 -0.8209
vn -0.3898 0.4151 -0.8220
vn -0.3903 -0.4191 -0.8197
vn -0.3880 -0.4154 -0.8227
vn -0.3674 -0.8793 -0.3030
vn -0.3651 -0.8790 -0.3065
vn -0.0965 -0.9450 0.3124
vn -0.1094 -0.9397 0.3241
vn -0.0779 -0.4565 0.8863
vn -0.0928 -0.4405 0.8929
vn -0.0936 0.4561 0.8850
vn -0.0786 0.4409 0.8941
vn -0.1098 0.9439 0.3116
vn -0.0969 0.9407 0.3250
vn -0.0923 0.9434 -0.3185
vn -0.1050 0.9378 -0.3310
vn -0.0664 0.4548 -0.8881
vn -0.0811 0.4386 -0.8950
vn -0.0819 -0.4540 -0.8872
vn -0.0670 -0.4392 -0.8959
vn -0.1056 -0.9420 -0.3185
vn -0.0926 -0.9391 -0.3310
vn 0.1638 -0.9296 0.3302
vn 0.1785 -0.9315 0.3169
vn 0.1529 -0.4339 0.8879
vn 0.1697 -0.4484 0.8776
vn 0.1687 0.4325 0.8857
vn 0.1515 0.4500 0.8801
vn 0.1778 0.9271 0.3298
vn 0.1628 0.9343 0.3173
vn 0.1548 0.9344 -0.3207
vn 0.1700 0.9366 -0.3064
vn 0.1279 0.4393 -0.8892
vn 0.1455 0.4547 -0.8787
vn 0.1442 -0.4385 -0.8871
vn 0.1267 -0.4556 -0.8811
vn 0.1690 -0.9324 -0.3195
vn 0.1542 -0.9389 -0.3078
vn 0.3846 -0.8715 0.3041
vn 0.3969 -0.8711 0.2894
vn 0.4138 -0.4106 0.8125
vn 0.4273 -0.4248 0.7981
vn 0.4256 0.4079 0.8078
vn 0.4099 0.4289 0.8050
vn 0.3955 0.8671 0.3030
vn 0.3816 0.8774 0.2908
vn 0.3750 0.8832 -0.2815
vn 0.3881 0.8825 -0.2656
vn 0.3887 0.4270 -0.8164
vn 0.4039 0.4421 -0.8009
vn 0.4017 -0.4246 -0.8114
vn 0.3848 -0.4457 -0.8082
vn 0.3862 -0.8790 -0.2797
vn 0.3723 -0.8886 -0.2681
vn 0.6895 -0.6833 0.2402
vn 0.6968 -0.6818 0.2226
vn 0.7403 -0.3097 0.5967
vn 0.7466 -0.3265 0.5796
vn 0.7447 0.3073 0.5924
vn 0.7339 0.3338 0.5916
vn 0.6943 0.6789 0.2390
vn 0.6838 0.6939 0.2257
vn 0.6895 0.6971 -0.1964
vn 0.6971 0.6946 -0.1777
vn 0.7463 0.3282 -0.5790
vn 0.7532 0.3457 -0.5597
vn 0.7512 -0.3257 -0.5741
vn 0.7391 -0.3535 -0.5734
vn 0.6945 -0.6926 -0.1948
vn 0.6836 -0.7069 -0.1817
vn -0.9994 -0.0000 -0.0349
vn 0.9994 0.0000 0.0349
vn 0.5530 -0.8330 0.0193
vn -0.1146 -0.9934 -0.0040
vn -0.9933 -0.1104 -0.0347
vn -0.9933 0.1104 -0.0347
vn -0.1146 0.9934 -0.0040
vn 0.5530 0.8330 0.0193
vn -0.0349 -0.0000 0.9994
vn 0.0349 -0.0000 -0.9994
vn 0.9968 0.0754 0.0254
vn 0.9972 0.0317 0.0677
vn 0.9765 -0.0708 -0.2036
vn 0.9804 -0.1109 -0.1629
vn 0.8584 -0.2776 -0.4314
vn 0.8622 -0.2954 -0.4115
vn 0.6456 -0.4743 -0.5985
vn 0.6475 -0.4801 -0.5918
vn 0.1639 -0.6879 -0.7070
vn -0.9780 -0.2074 -0.0237
vn -0.9752 -0.2208 -0.0127
vn -0.9938 -0.1069 0.0290
vn -0.9898 -0.1320 0.0526
vn -0.9991 -0.0105 0.0407
vn -0.9952 -0.0533 0.0825
vn -0.9856 0.1336 0.1040
vn -0.9855 0.0913 0.1433
vn -0.1639 0.6879 0.7070
vn 0.1446 -0.7337 0.6639
vn -0.1440 0.7336 -0.6642
vn 0.2020 -0.7289 0.6541
vn -0.2016 0.7287 -0.6545
vn 0.2070 -0.7288 0.6527
vn -0.2068 0.7286 -0.6530
vn 0.1553 -0.7250 0.6710
vn -0.1553 0.7248 -0.6712
vn -0.0309 -0.6885 0.7245
vn 0.0304 0.6888 -0.7243
vn -0.0605 -0.6791 0.7315
vn 0.0601 0.6794 -0.7313
vn -0.0538 -0.6819 0.7295
vn 0.0536 0.6821 -0.7293
vn -0.0290 -0.6992 0.7143
vn 0.0289 0.6993 -0.7143
vn 0.9968 -0.0754 0.0254
vn 0.9972 -0.0317 0.0677
vn 0.9765 0.0708 -0.2036
vn 0.9804 0.1109 -0.1629
vn 0.8584 0.2776 -0.4314
vn 0.8622 0.2954 -0.4115
vn 0.6456 0.4743 -0.5985
vn 0.6475 0.4801 -0.5918
vn 0.1639 0.6879 -0.7070
vn -0.9780 0.2074 -0.0237
vn -0.9752 0.2208 -0.0127
vn -0.9938 0.1069 0.0290
vn -0.9898 0.1320 0.0526
vn -0.9991 0.0105 0.0407
vn -0.9952 0.0533 0.0825
vn -0.9856 -0.1336 0.1040
vn -0.9855 -0.0913 0.1433
vn -0.1639 -0.6879 0.7070
vn 0.1446 0.7337 0.6639
vn -0.1440 -0.7336 -0.6642
vn 0.2020 0.7289 0.6541
vn -0.2016 -0.7287 -0.6545
vn 0.2070 0.7288 0.6527
vn -0.2068 -0.7286 -0.6530
vn 0.1553 0.7250 0.6710
vn -0.1553 -0.7248 -0.6712
vn -0.0309 0.6885 0.7245
vn 0.0304 -0.6888 -0.7243
vn -0.0605 0.6791 0.7315
vn 0.0601 -0.6794 -0.7313
vn -0.0538 0.6819 0.7295
vn 0.0536 -0.6821 -0.7293
vn -0.0290 0.6992 0.7143
vn 0.0289 -0.6993 -0.7143
vn -0.7766 -0.5972 0.2006
vn -0.8064 -0.2532 0.5345
vn -0.8064 0.2532 0.5345
vn -0.7766 0.5972 0.2006
vn -0.7607 0.5972 -0.2543
vn -0.7671 0.2532 -0.5894
vn -0.7671 -0.2532 -0.5894
vn -0.7607 -0.5972 -0.2543
vn -0.4800 -0.8252 0.2979
vn -0.5185 -0.3576 0.7767
vn -0.5185 0.3576 0.7767
vn -0.4800 0.8252 0.2979
vn -0.4580 0.8252 -0.3306
vn -0.4630 0.3576 -0.8110
vn -0.4630 -0.3576 -0.8110
vn -0.4580 -0.8252 -0.3306
vn 0.3893 -0.8561 0.3400
vn 0.3919 -0.3724 0.8413
vn 0.3919 0.3724 0.8413
vn 0.3893 0.8561 0.3400
vn 0.4121 0.8561 -0.3120
vn 0.4497 0.3724 -0.8119
vn 0.4497 -0.3724 -0.8119
vn 0.4121 -0.8561 -0.3120
vn 0.7490 -0.6100 0.2587
vn 0.7556 -0.2589 0.6017
vn 0.7556 0.2589 0.6017
vn 0.7490 0.6100 0.2587
vn 0.7652 0.6100 -0.2059
vn 0.7958 0.2589 -0.5475
vn 0.7958 -0.2589 -0.5475
vn 0.7652 -0.6100 -0.2059
vn 0.3086 -0.8189 0.4839
vn 0.3241 -0.8267 0.4600
vn 0.3297 -0.0000 0.9441
vn 0.3219 0.8149 0.4820
vn 0.3036 0.8329 0.4626
vn 0.2344 0.8453 -0.4801
vn 0.2548 0.8536 -0.4543
vn 0.1794 0.0000 -0.9838
vn 0.2489 -0.8424 -0.4780
vn 0.2325 -0.8582 -0.4576
vn 0.4994 -0.7541 0.4267
vn 0.4947 -0.7449 0.4476
vn 0.5578 -0.0000 0.8300
vn 0.4975 0.7550 0.4271
vn 0.5069 0.7386 0.4444
vn 0.4043 0.8097 -0.4253
vn 0.3935 0.8019 -0.4495
vn 0.3661 0.0000 -0.9306
vn 0.4020 -0.8106 -0.4259
vn 0.4085 -0.7964 -0.4458
g plumage_main
f 1/1/1 10/10/1 2/2/1
f 1/1/2 9/9/2 10/10/2
f 2/2/3 11/11/3 3/3/3
f 2/2/4 10/10/4 11/11/4
f 3/3/5 12/12/5 4/4/5
f 3/3/6 11/11/6 12/12/6
f 4/4/7 13/13/7 5/5/7
f 4/4/8 12/12/8 13/13/8
f 5/5/9 14/14/9 6/6/9
f 5/5/10 13/13/10 14/14/10
f 6/6/11 15/15/11 7/7/11
f 6/6/12 14/14/12 15/15/12
f 7/7/13 16/16/13 8/8/13
f 7/7/14 15/15/14 16/16/14
f 8/8/15 9/9/15 1/1/15
f 8/8/16 16/16/16 9/9/16
f 9/9/17 18/18/17 10/10/17
f 9/9/18 17/17/18 18/18/18
f 10/10/19 19/19/19 11/11/19
f 10/10/20 18/18/20 19/19/20
f 11/11/21 20/20/21 12/12/21
f 11/11/22 19/19/22 20/20/22
f 12/12/23 21/21/23 13/13/23
f 12/12/24 20/20/24 21/21/24
f 13/13/25 22/22/25 14/14/25
f 13/13/26 21/21/26 22/22/26
f 14/14/27 23/23/27 15/15/27
f 14/14/28 22/22/28 23/23/28
f 15/15/29 24/24/29 16/16/29
f 15/15/30 23/23/30 24/24/30
f 16/16/31 17/17/31 9/9/31
f 16/16/32 24/24/32 17/17/32
f 17/17/33 26/26/33 18/18/33
f 17/17/34 25/25/34 26/26/34
f 18/18/35 27/27/35 19/19/35
f 18/18/36 26/26/36 27/27/36
f 19/19/37 28/28/37 20/20/37
f 19/19/38 27/27/38 28/28/38
f 20/20/39 29/29/39 21/21/39
f 20/20/40 28/28/40 29/29/40
f 21/21/41 30/30/41 22/22/41
f 21/21/42 29/29/42 30/30/42
f 22/22/43 31/31/43 23/23/43
f 22/22/44 30/30/44 31/31/44
f 23/23/45 32/32/45 24/24/45
f 23/23/46 31/31/46 32/32/46
f 24/24/47 25/25/47 17/17/47
f 24/24/48 32/32/48 25/25/48
f 25/25/49 34/34/49 26/26/49
f 25/25/50 33/33/50 34/34/50
f 26/26/51 35/35/51 27/27/51
f 26/26/52 34/34/52 35/35/52
f 27/27/53 36/36/53 28/28/53
f 27/27/54 35/35/54 36/36/54
f 28/28/55 37/37/55 29/29/55
f 28/28/56 36/36/56 37/37/56
f 29/29/57 38/38/57 30/30/57
f 29/29/58 37/37/58 38/38/58
f 30/30/59 39/39/59 31/31/59
f 30/30/60 38/38/60 39/39/60
f 31/31/61 40/40/61 32/32/61
f 31/31/62 39/39/62 40/40/62
f 32/32/63 33/33/63 25/25/63
f 32/32/64 40/40/64 33/33/64
f 33/33/65 42/42/65 34/34/65
f 33/33/66 41/41/66 42/42/66
f 34/34/67 43/43/67 35/35/67
f 34/34/68 42/42/68 43/43/68
f 35/35/69 44/44/69 36/36/69
f 35/35/70 43/43/70 44/44/70
f 36/36/71 45/45/71 37/37/71
f 36/36/72 44/44/72 45/45/72
f 37/37/73 46/46/73 38/38/73
f 37/37/74 45/45/74 46/46/74
f 38/38/75 47/47/75 39/39/75
f 38/38/76 46/46/76 47/47/76
f 39/39/77 48/48/77 40/40/77
f 39/39/78 47/47/78 48/48/78
f 40/40/79 41/41/79 33/33/79
f 40/40/80 48/48/80 41/41/80
f 41/41/81 50/50/81 42/42/81
f 41/41/82 49/49/82 50/50/82
f 42/42/83 51/51/83 43/43/83
f 42/42/84 50/50/84 51/51/84
f 43/43/85 52/52/85 44/44/85
f 43/43/86 51/51/86 52/52/86
f 44/44/87 53/53/87 45/45/87
f 44/44/88 52/52/88 53/53/88
f 45/45/89 54/54/89 46/46/89
f 45/45/90 53/53/90 54/54/90
f 46/46/91 55/55/91 47/47/91
f 46/46/92 54/54/92 55/55/92
f 47/47/93 56/56/93 48/48/93
f 47/47/94 55/55/94 56/56/94
f 48/48/95 49/49/95 41/41/95
f 48/48/96 56/56/96 49/49/96
f 1/1/97 2/2/97 3/3/97
f 49/49/98 51/51/98 50/50/98
f 1/1/97 3/3/97 4/4/97
f 49/49/98 52/52/98 51/51/98
f 1/1/97 4/4/97 5/5/97
f 49/49/98 53/53/98 52/52/98
f 1/1/97 5/5/97 6/6/97
f 49/49/98 54/54/98 53/53/98
f 1/1/97 6/6/97 7/7/97
f 49/49/98 55/55/98 54/54/98
f 1/1/97 7/7/97 8/8/97
f 49/49/98 56/56/98 55/55/98
f 57/57/99 65/65/99 58/58/99
f 57/57/99 64/64/99 65/65/99
f 58/58/100 66/66/100 59/59/100
f 58/58/100 65/65/100 66/66/100
f 59/59/101 67/67/101 60/60/101
f 59/59/101 66/66/101 67/67/101
f 60/60/102 68/68/102 61/61/102
f 60/60/102 67/67/102 68/68/102
f 61/61/103 69/69/103 62/62/103
f 61/61/103 68/68/103 69/69/103
f 62/62/104 70/70/104 63/63/104
f 62/62/104 69/69/104 70/70/104
f 63/63/98 64/64/98 57/57/98
f 63/63/98 70/70/98 64/64/98
f 57/57/105 59/59/105 58/58/105
f 64/64/106 65/65/106 66/66/106
f 57/57/105 60/60/105 59/59/105
f 64/64/106 66/66/106 67/67/106
f 57/57/105 61/61/105 60/60/105
f 64/64/106 67/67/106 68/68/106
f 57/57/105 62/62/105 61/61/105
f 64/64/106 68/68/106 69/69/106
f 57/57/105 63/63/105 62/62/105
f 64/64/106 69/69/106 70/70/106
f 71/71/107 82/82/107 72/72/107
f 71/71/108 81/81/108 82/82/108
f 72/72/109 83/83/109 73/73/109
f 72/72/110 82/82/110 83/83/110
f 73/73/111 84/84/111 74/74/111
f 73/73/112 83/83/112 84/84/112
f 74/74/113 85/85/113 75/75/113
f 74/74/114 84/84/114 85/85/114
f 75/75/115 86/86/115 76/76/115
f 75/75/115 85/85/115 86/86/115
f 76/76/116 87/87/116 77/77/116
f 76/76/117 86/86/117 87/87/117
f 77/77/118 88/88/118 78/78/118
f 77/77/119 87/87/119 88/88/119
f 78/78/120 89/89/120 79/79/120
f 78/78/121 88/88/121 89/89/121
f 79/79/122 90/90/122 80/80/122
f 79/79/123 89/89/123 90/90/123
f 80/80/124 81/81/124 71/71/124
f 80/80/124 90/90/124 81/81/124
f 71/71/125 73/73/125 72/72/125
f 81/81/126 82/82/126 83/83/126
f 71/71/127 74/74/127 73/73/127
f 81/81/128 83/83/128 84/84/128
f 71/71/129 75/75/129 74/74/129
f 81/81/130 84/84/130 85/85/130
f 71/71/131 76/76/131 75/75/131
f 81/81/132 85/85/132 86/86/132
f 71/71/133 77/77/133 76/76/133
f 81/81/134 86/86/134 87/87/134
f 71/71/135 78/78/135 77/77/135
f 81/81/136 87/87/136 88/88/136
f 71/71/137 79/79/137 78/78/137
f 81/81/138 88/88/138 89/89/138
f 71/71/139 80/80/139 79/79/139
f 81/81/140 89/89/140 90/90/140
f 91/91/141 92/92/141 102/102/141
f 91/91/142 102/102/142 101/101/142
f 92/92/143 93/93/143 103/103/143
f 92/92/144 103/103/144 102/102/144
f 93/93/145 94/94/145 104/104/145
f 93/93/146 104/104/146 103/103/146
f 94/94/147 95/95/147 105/105/147
f 94/94/148 105/105/148 104/104/148
f 95/95/149 96/96/149 106/106/149
f 95/95/149 106/106/149 105/105/149
f 96/96/150 97/97/150 107/107/150
f 96/96/151 107/107/151 106/106/151
f 97/97/152 98/98/152 108/108/152
f 97/97/153 108/108/153 107/107/153
f 98/98/154 99/99/154 109/109/154
f 98/98/155 109/109/155 108/108/155
f 99/99/156 100/100/156 110/110/156
f 99/99/157 110/110/157 109/109/157
f 100/100/158 91/91/158 101/101/158
f 100/100/158 101/101/158 110/110/158
f 91/91/159 92/92/159 93/93/159
f 101/101/160 103/103/160 102/102/160
f 91/91/161 93/93/161 94/94/161
f 101/101/162 104/104/162 103/103/162
f 91/91/163 94/94/163 95/95/163
f 101/101/164 105/105/164 104/104/164
f 91/91/165 95/95/165 96/96/165
f 101/101/166 106/106/166 105/105/166
f 91/91/167 96/96/167 97/97/167
f 101/101/168 107/107/168 106/106/168
f 91/91/169 97/97/169 98/98/169
f 101/101/170 108/108/170 107/107/170
f 91/91/171 98/98/171 99/99/171
f 101/101/172 109/109/172 108/108/172
f 91/91/173 99/99/173 100/100/173
f 101/101/174 110/110/174 109/109/174
g plumage_hood
f 111/111/175 120/120/175 112/112/175
f 111/111/175 119/119/175 120/120/175
f 112/112/176 121/121/176 113/113/176
f 112/112/176 120/120/176 121/121/176
f 113/113/177 122/122/177 114/114/177
f 113/113/177 121/121/177 122/122/177
f 114/114/178 123/123/178 115/115/178
f 114/114/178 122/122/178 123/123/178
f 115/115/179 124/124/179 116/116/179
f 115/115/179 123/123/179 124/124/179
f 116/116/180 125/125/180 117/117/180
f 116/116/180 124/124/180 125/125/180
f 117/117/181 126/126/181 118/118/181
f 117/117/181 125/125/181 126/126/181
f 118/118/182 119/119/182 111/111/182
f 118/118/182 126/126/182 119/119/182
f 119/119/183 128/128/183 120/120/183
f 119/119/183 127/127/183 128/128/183
f 120/120/184 129/129/184 121/121/184
f 120/120/184 128/128/184 129/129/184
f 121/121/185 130/130/185 122/122/185
f 121/121/185 129/129/185 130/130/185
f 122/122/186 131/131/186 123/123/186
f 122/122/186 130/130/186 131/131/186
f 123/123/187 132/132/187 124/124/187
f 123/123/187 131/131/187 132/132/187
f 124/124/188 133/133/188 125/125/188
f 124/124/188 132/132/188 133/133/188
f 125/125/189 134/134/189 126/126/189
f 125/125/189 133/133/189 134/134/189
f 126/126/190 127/127/190 119/119/190
f 126/126/190 134/134/190 127/127/190
f 127/127/191 136/136/191 128/128/191
f 127/127/191 135/135/191 136/136/191
f 128/128/192 137/137/192 129/129/192
f 128/128/192 136/136/192 137/137/192
f 129/129/193 138/138/193 130/130/193
f 129/129/193 137/137/193 138/138/193
f 130/130/194 139/139/194 131/131/194
f 130/130/194 138/138/194 139/139/194
f 131/131/195 140/140/195 132/132/195
f 131/131/195 139/139/195 140/140/195
f 132/132/196 141/141/196 133/133/196
f 132/132/196 140/140/196 141/141/196
f 133/133/197 142/142/197 134/134/197
f 133/133/197 141/141/197 142/142/197
f 134/134/198 135/135/198 127/127/198
f 134/134/198 142/142/198 135/135/198
f 135/135/199 144/144/199 136/136/199
f 135/135/199 143/143/199 144/144/199
f 136/136/200 145/145/200 137/137/200
f 136/136/200 144/144/200 145/145/200
f 137/137/201 146/146/201 138/138/201
f 137/137/201 145/145/201 146/146/201
f 138/138/202 147/147/202 139/139/202
f 138/138/202 146/146/202 147/147/202
f 139/139/203 148/148/203 140/140/203
f 139/139/203 147/147/203 148/148/203
f 140/140/204 149/149/204 141/141/204
f 140/140/204 148/148/204 149/149/204
f 141/141/205 150/150/205 142/142/205
f 141/141/205 149/149/205 150/150/205
f 142/142/206 143/143/206 135/135/206
f 142/142/206 150/150/206 143/143/206
f 111/111/97 112/112/97 113/113/97
f 143/143/98 145/145/98 144/144/98
f 111/111/97 113/113/97 114/114/97
f 143/143/98 146/146/98 145/145/98
f 111/111/97 114/114/97 115/115/97
f 143/143/98 147/147/98 146/146/98
f 111/111/97 115/115/97 116/116/97
f 143/143/98 148/148/98 147/147/98
f 111/111/97 116/116/97 117/117/97
f 143/143/98 149/149/98 148/148/98
f 111/111/97 117/117/97 118/118/97
f 143/143/98 150/150/98 149/149/98
f 151/151/207 158/158/207 152/152/207
f 151/151/208 157/157/208 158/158/208
f 152/152/209 159/159/209 153/153/209
f 152/152/209 158/158/209 159/159/209
f 153/153/210 160/160/210 154/154/210
f 153/153/211 159/159/211 160/160/211
f 154/154/212 161/161/212 155/155/212
f 154/154/213 160/160/213 161/161/213
f 155/155/214 162/162/214 156/156/214
f 155/155/214 161/161/214 162/162/214
f 156/156/215 157/157/215 151/151/215
f 156/156/216 162/162/216 157/157/216
f 157/157/217 164/164/217 158/158/217
f 157/157/218 163/163/218 164/164/218
f 158/158/219 165/165/219 159/159/219
f 158/158/219 164/164/219 165/165/219
f 159/159/220 166/166/220 160/160/220
f 159/159/221 165/165/221 166/166/221
f 160/160/222 167/167/222 161/161/222
f 160/160/223 166/166/223 167/167/223
f 161/161/224 168/168/224 162/162/224
f 161/161/224 167/167/224 168/168/224
f 162/162/225 163/163/225 157/157/225
f 162/162/226 168/168/226 163/163/226
f 151/151/97 152/152/97 153/153/97
f 163/163/98 165/165/98 164/164/98
f 151/151/97 153/153/97 154/154/97
f 163/163/98 166/166/98 165/165/98
f 151/151/97 154/154/97 155/155/97
f 163/163/98 167/167/98 166/166/98
f 151/151/97 155/155/97 156/156/97
f 163/163/98 168/168/98 167/167/98
