# Unreal legacy OBJ adapter: canonical vertices are centimetres in the bird frame (+X forward, +Y right, +Z up, origin at the body centre); this file is written with Y reflected and triangle winding reversed. One object, exactly two g groups (plumage_main, plumage_hood), so the importer creates exactly two material slots.
# Rock dove (feral pigeon) (Columba livia), pose level
# wingspan 67.0 cm, body length 33.0 cm; Collins Bird Guide 2nd ed. (Svensson, Mullarney & Zetterstrom, 2009), Columba livia: length 30-35 cm, wingspan 62-72 cm; same range in Cramp (ed.), Birds of the Western Palearctic vol. IV. Mid-points used: 33 cm and 67 cm.
# AUTHORED low-poly silhouette in those published proportions. Not a scan, not photogrammetry, not a claim about an individual bird.
o SM_BirdsV1_RockDove_Level
s off
v -9.9000 -0.3370 0.3300
v -9.9000 -0.2380 0.6100
v -9.9000 -0.0000 0.7260
v -9.9000 0.2380 0.6100
v -9.9000 0.3370 0.3300
v -9.9000 0.2380 0.0500
v -9.9000 0.0000 -0.0660
v -9.9000 -0.2380 0.0500
v -6.6000 -2.9170 0.3960
v -6.6000 -2.0630 2.9630
v -6.6000 -0.0000 4.0260
v -6.6000 2.0630 2.9630
v -6.6000 2.9170 0.3960
v -6.6000 2.0630 -2.1710
v -6.6000 0.0000 -3.2340
v -6.6000 -2.0630 -2.1710
v -1.9800 -5.0490 0.4620
v -1.9800 -3.5700 4.8490
v -1.9800 -0.0000 6.6660
v -1.9800 3.5700 4.8490
v -1.9800 5.0490 0.4620
v -1.9800 3.5700 -3.9250
v -1.9800 0.0000 -5.7420
v -1.9800 -3.5700 -3.9250
v 2.6400 -5.6100 0.3300
v 2.6400 -3.9670 4.9970
v 2.6400 -0.0000 6.9300
v 2.6400 3.9670 4.9970
v 2.6400 5.6100 0.3300
v 2.6400 3.9670 -4.3370
v 2.6400 0.0000 -6.2700
v 2.6400 -3.9670 -4.3370
v 6.6000 -4.8250 0.1320
v 6.6000 -3.4120 4.3320
v 6.6000 -0.0000 6.0720
v 6.6000 3.4120 4.3320
v 6.6000 4.8250 0.1320
v 6.6000 3.4120 -4.0680
v 6.6000 0.0000 -5.8080
v 6.6000 -3.4120 -4.0680
v 9.9000 -3.2540 -0.0660
v 9.9000 -2.3010 2.9210
v 9.9000 -0.0000 4.1580
v 9.9000 2.3010 2.9210
v 9.9000 3.2540 -0.0660
v 9.9000 2.3010 -3.0530
v 9.9000 0.0000 -4.2900
v 9.9000 -2.3010 -3.0530
v 11.8800 -1.1220 -0.1980
v 11.8800 -0.7930 0.9220
v 11.8800 -0.0000 1.3860
v 11.8800 0.7930 0.9220
v 11.8800 1.1220 -0.1980
v 11.8800 0.7930 -1.3180
v 11.8800 0.0000 -1.7820
v 11.8800 -0.7930 -1.3180
v -7.9200 -1.5840 0.4950
v -12.0780 -4.8580 0.4950
v -19.8000 -3.8020 0.4950
v -20.1560 -0.0000 0.4950
v -19.8000 3.8020 0.4950
v -12.0780 4.8580 0.4950
v -7.9200 1.5840 0.4950
v -7.9200 -1.5840 0.8250
v -12.0780 -4.8580 0.8250
v -19.8000 -3.8020 0.8250
v -20.1560 -0.0000 0.8250
v -19.8000 3.8020 0.8250
v -12.0780 4.8580 0.8250
v -7.9200 1.5840 0.8250
v 10.2300 -4.7870 1.5520
v 9.9030 -14.8080 2.4040
v 7.2660 -24.8360 3.1600
v 3.9700 -30.5750 3.4640
v 1.0050 -33.4510 3.5220
v 0.0160 -33.4540 3.4700
v -2.6230 -30.5960 3.1540
v -3.9470 -24.8640 2.7500
v -3.2940 -14.8250 2.1630
v -0.3300 -4.7870 1.5520
v 10.2300 -4.7500 2.0780
v 9.8940 -14.7710 2.9310
v 7.2470 -24.7990 3.6860
v 3.9450 -30.5380 3.9900
v 0.9770 -33.4140 4.0480
v -0.0120 -33.4180 3.9960
v -2.6480 -30.5600 3.6800
v -3.9660 -24.8270 3.2760
v -3.3040 -14.7880 2.6890
v -0.3300 -4.7500 2.0780
v 10.2300 4.7870 1.5520
v 9.9030 14.8080 2.4040
v 7.2660 24.8360 3.1600
v 3.9700 30.5750 3.4640
v 1.0050 33.4510 3.5220
v 0.0160 33.4540 3.4700
v -2.6230 30.5960 3.1540
v -3.9470 24.8640 2.7500
v -3.2940 14.8250 2.1630
v -0.3300 4.7870 1.5520
v 10.2300 4.7500 2.0780
v 9.8940 14.7710 2.9310
v 7.2470 24.7990 3.6860
v 3.9450 30.5380 3.9900
v 0.9770 33.4140 4.0480
v -0.0120 33.4180 3.9960
v -2.6480 30.5600 3.6800
v -3.9660 24.8270 3.2760
v -3.3040 14.7880 2.6890
v -0.3300 4.7500 2.0780
v 8.5800 -0.3040 0.9900
v 8.5800 -0.2150 1.2230
v 8.5800 -0.0000 1.3200
v 8.5800 0.2150 1.2230
v 8.5800 0.3040 0.9900
v 8.5800 0.2150 0.7570
v 8.5800 0.0000 0.6600
v 8.5800 -0.2150 0.7570
v 9.9000 -2.0040 0.9900
v 9.9000 -1.4170 2.5300
v 9.9000 -0.0000 3.1680
v 9.9000 1.4170 2.5300
v 9.9000 2.0040 0.9900
v 9.9000 1.4170 -0.5500
v 9.9000 0.0000 -1.1880
v 9.9000 -1.4170 -0.5500
v 11.7150 -3.0360 0.9900
v 11.7150 -2.1470 3.3230
v 11.7150 -0.0000 4.2900
v 11.7150 2.1470 3.3230
v 11.7150 3.0360 0.9900
v 11.7150 2.1470 -1.3430
v 11.7150 0.0000 -2.3100
v 11.7150 -2.1470 -1.3430
v 13.5300 -2.1860 0.9900
v 13.5300 -1.5460 2.6700
v 13.5300 -0.0000 3.3660
v 13.5300 1.5460 2.6700
v 13.5300 2.1860 0.9900
v 13.5300 1.5460 -0.6900
v 13.5300 0.0000 -1.3860
v 13.5300 -1.5460 -0.6900
v 14.8500 -0.5460 0.9900
v 14.8500 -0.3860 1.4100
v 14.8500 -0.0000 1.5840
v 14.8500 0.3860 1.4100
v 14.8500 0.5460 0.9900
v 14.8500 0.3860 0.5700
v 14.8500 0.0000 0.3960
v 14.8500 -0.3860 0.5700
v 14.3550 -0.9070 0.8580
v 14.3550 -0.4540 1.6440
v 14.3550 0.4540 1.6440
v 14.3550 0.9070 0.8580
v 14.3550 0.4540 0.0720
v 14.3550 -0.4540 0.0720
v 15.7160 -0.5630 0.7260
v 15.7160 -0.2810 1.2450
v 15.7160 0.2810 1.2450
v 15.7160 0.5630 0.7260
v 15.7160 0.2810 0.2070
v 15.7160 -0.2810 0.2070
v 16.8300 -0.0910 0.5610
v 16.8300 -0.0450 0.6400
v 16.8300 0.0450 0.6400
v 16.8300 0.0910 0.5610
v 16.8300 0.0450 0.4820
v 16.8300 -0.0450 0.4820
vt 0.45050 0.50165
vt 0.45050 0.50305
vt 0.45050 0.50363
vt 0.45050 0.50305
vt 0.45050 0.50165
vt 0.45050 0.50025
vt 0.45050 0.49967
vt 0.45050 0.50025
vt 0.46700 0.50198
vt 0.46700 0.51482
vt 0.46700 0.52013
vt 0.46700 0.51482
vt 0.46700 0.50198
vt 0.46700 0.48914
vt 0.46700 0.48383
vt 0.46700 0.48914
vt 0.49010 0.50231
vt 0.49010 0.52424
vt 0.49010 0.53333
vt 0.49010 0.52424
vt 0.49010 0.50231
vt 0.49010 0.48037
vt 0.49010 0.47129
vt 0.49010 0.48037
vt 0.51320 0.50165
vt 0.51320 0.52499
vt 0.51320 0.53465
vt 0.51320 0.52499
vt 0.51320 0.50165
vt 0.51320 0.47831
vt 0.51320 0.46865
vt 0.51320 0.47831
vt 0.53300 0.50066
vt 0.53300 0.52166
vt 0.53300 0.53036
vt 0.53300 0.52166
vt 0.53300 0.50066
vt 0.53300 0.47966
vt 0.53300 0.47096
vt 0.53300 0.47966
vt 0.54950 0.49967
vt 0.54950 0.51460
vt 0.54950 0.52079
vt 0.54950 0.51460
vt 0.54950 0.49967
vt 0.54950 0.48474
vt 0.54950 0.47855
vt 0.54950 0.48474
vt 0.55940 0.49901
vt 0.55940 0.50461
vt 0.55940 0.50693
vt 0.55940 0.50461
vt 0.55940 0.49901
vt 0.55940 0.49341
vt 0.55940 0.49109
vt 0.55940 0.49341
vt 0.46040 0.50248
vt 0.43961 0.50248
vt 0.40100 0.50248
vt 0.39922 0.50248
vt 0.40100 0.50248
vt 0.43961 0.50248
vt 0.46040 0.50248
vt 0.46040 0.50413
vt 0.43961 0.50413
vt 0.40100 0.50413
vt 0.39922 0.50413
vt 0.40100 0.50413
vt 0.43961 0.50413
vt 0.46040 0.50413
vt 0.55115 0.50776
vt 0.54951 0.51202
vt 0.53633 0.51580
vt 0.51985 0.51732
vt 0.50502 0.51761
vt 0.50008 0.51735
vt 0.48689 0.51577
vt 0.48026 0.51375
vt 0.48353 0.51082
vt 0.49835 0.50776
vt 0.55115 0.51039
vt 0.54947 0.51465
vt 0.53624 0.51843
vt 0.51972 0.51995
vt 0.50489 0.52024
vt 0.49994 0.51998
vt 0.48676 0.51840
vt 0.48017 0.51638
vt 0.48348 0.51345
vt 0.49835 0.51039
vt 0.55115 0.50776
vt 0.54951 0.51202
vt 0.53633 0.51580
vt 0.51985 0.51732
vt 0.50502 0.51761
vt 0.50008 0.51735
vt 0.48689 0.51577
vt 0.48026 0.51375
vt 0.48353 0.51082
vt 0.49835 0.50776
vt 0.55115 0.51039
vt 0.54947 0.51465
vt 0.53624 0.51843
vt 0.51972 0.51995
vt 0.50489 0.52024
vt 0.49994 0.51998
vt 0.48676 0.51840
vt 0.48017 0.51638
vt 0.48348 0.51345
vt 0.49835 0.51039
vt 0.54290 0.50495
vt 0.54290 0.50611
vt 0.54290 0.50660
vt 0.54290 0.50611
vt 0.54290 0.50495
vt 0.54290 0.50379
vt 0.54290 0.50330
vt 0.54290 0.50379
vt 0.54950 0.50495
vt 0.54950 0.51265
vt 0.54950 0.51584
vt 0.54950 0.51265
vt 0.54950 0.50495
vt 0.54950 0.49725
vt 0.54950 0.49406
vt 0.54950 0.49725
vt 0.55858 0.50495
vt 0.55858 0.51662
vt 0.55858 0.52145
vt 0.55858 0.51662
vt 0.55858 0.50495
vt 0.55858 0.49328
vt 0.55858 0.48845
vt 0.55858 0.49328
vt 0.56765 0.50495
vt 0.56765 0.51335
vt 0.56765 0.51683
vt 0.56765 0.51335
vt 0.56765 0.50495
vt 0.56765 0.49655
vt 0.56765 0.49307
vt 0.56765 0.49655
vt 0.57425 0.50495
vt 0.57425 0.50705
vt 0.57425 0.50792
vt 0.57425 0.50705
vt 0.57425 0.50495
vt 0.57425 0.50285
vt 0.57425 0.50198
vt 0.57425 0.50285
vt 0.57178 0.50429
vt 0.57178 0.50822
vt 0.57178 0.50822
vt 0.57178 0.50429
vt 0.57178 0.50036
vt 0.57178 0.50036
vt 0.57858 0.50363
vt 0.57858 0.50623
vt 0.57858 0.50623
vt 0.57858 0.50363
vt 0.57858 0.50104
vt 0.57858 0.50104
vt 0.58415 0.50280
vt 0.58415 0.50320
vt 0.58415 0.50320
vt 0.58415 0.50280
vt 0.58415 0.50241
vt 0.58415 0.50241
vn -0.6042 -0.7516 0.2646
vn -0.5991 -0.7597 0.2529
vn -0.6685 -0.3258 0.6685
vn -0.6636 -0.3427 0.6650
vn -0.6620 0.3283 0.6738
vn -0.6644 0.3424 0.6644
vn -0.5970 0.7567 0.2664
vn -0.5999 0.7591 0.2527
vn -0.5975 0.7564 -0.2663
vn -0.5926 0.7643 -0.2544
vn -0.6533 0.3316 -0.6806
vn -0.6483 0.3488 -0.6768
vn -0.6464 -0.3342 -0.6859
vn -0.6491 -0.3485 -0.6762
vn -0.5901 -0.7615 -0.2681
vn -0.5934 -0.7637 -0.2542
vn -0.4016 -0.8689 0.2892
vn -0.4041 -0.8668 0.2922
vn -0.4529 -0.4085 0.7925
vn -0.4556 -0.4038 0.7933
vn -0.4560 0.4077 0.7911
vn -0.4538 0.4042 0.7942
vn -0.4045 0.8677 0.2888
vn -0.4024 0.8675 0.2924
vn -0.3946 0.8718 -0.2902
vn -0.3971 0.8697 -0.2932
vn -0.4346 0.4126 -0.8005
vn -0.4374 0.4079 -0.8014
vn -0.4378 -0.4119 -0.7992
vn -0.4355 -0.4083 -0.8023
vn -0.3976 -0.8706 -0.2898
vn -0.3954 -0.8704 -0.2934
vn -0.0912 -0.9437 0.3181
vn -0.1045 -0.9381 0.3303
vn -0.0509 -0.4530 0.8901
vn -0.0663 -0.4371 0.8970
vn -0.0673 0.4526 0.8892
vn -0.0513 0.4375 0.8978
vn -0.1054 0.9423 0.3177
vn -0.0912 0.9393 0.3307
vn -0.1092 0.9419 -0.3175
vn -0.1231 0.9361 -0.3296
vn -0.1013 0.4513 -0.8866
vn -0.1170 0.4351 -0.8928
vn -0.1176 -0.4504 -0.8850
vn -0.1022 -0.4358 -0.8942
vn -0.1232 -0.9404 -0.3170
vn -0.1099 -0.9375 -0.3301
vn 0.1848 -0.9270 0.3264
vn 0.1998 -0.9287 0.3124
vn 0.1912 -0.4300 0.8824
vn 0.2086 -0.4443 0.8713
vn 0.2077 0.4285 0.8793
vn 0.1895 0.4461 0.8747
vn 0.1996 0.9243 0.3254
vn 0.1833 0.9317 0.3135
vn 0.1530 0.9321 -0.3282
vn 0.1695 0.9341 -0.3143
vn 0.1043 0.4357 -0.8940
vn 0.1232 0.4508 -0.8841
vn 0.1215 -0.4348 -0.8923
vn 0.1034 -0.4519 -0.8861
vn 0.1680 -0.9298 -0.3274
vn 0.1527 -0.9367 -0.3151
vn 0.4144 -0.8626 0.2902
vn 0.4266 -0.8616 0.2749
vn 0.4590 -0.4036 0.7914
vn 0.4725 -0.4174 0.7762
vn 0.4710 0.4008 0.7858
vn 0.4549 0.4218 0.7843
vn 0.4256 0.8577 0.2886
vn 0.4109 0.8686 0.2771
vn 0.3850 0.8747 -0.2943
vn 0.3991 0.8735 -0.2787
vn 0.3792 0.4204 -0.8243
vn 0.3953 0.4350 -0.8090
vn 0.3927 -0.4178 -0.8193
vn 0.3755 -0.4389 -0.8163
vn 0.3966 -0.8701 -0.2927
vn 0.3827 -0.8802 -0.2808
vn 0.7182 -0.6629 0.2115
vn 0.7248 -0.6611 0.1940
vn 0.7767 -0.2983 0.5548
vn 0.7823 -0.3145 0.5378
vn 0.7808 0.2959 0.5503
vn 0.7704 0.3218 0.5503
vn 0.7228 0.6583 0.2101
vn 0.7123 0.6735 0.1976
vn 0.7041 0.6765 -0.2158
vn 0.7121 0.6737 -0.1977
vn 0.7446 0.3161 -0.5879
vn 0.7519 0.3328 -0.5691
vn 0.7495 -0.3135 -0.5830
vn 0.7379 -0.3407 -0.5826
vn 0.7090 -0.6718 -0.2144
vn 0.6989 -0.6863 -0.2014
vn -1.0000 -0.0000 0.0000
vn 1.0000 -0.0000 0.0000
vn 0.6186 -0.7857 0.0000
vn -0.1355 -0.9908 0.0000
vn -0.9956 -0.0933 0.0000
vn -0.9956 0.0933 0.0000
vn -0.1355 0.9908 0.0000
vn 0.6186 0.7857 0.0000
vn 0.0000 -0.0000 1.0000
vn 0.0000 -0.0000 -1.0000
vn 0.9993 -0.0308 0.0205
vn 0.9994 -0.0333 0.0023
vn 0.9667 -0.2503 0.0530
vn 0.9669 -0.2526 0.0354
vn 0.8664 -0.4936 0.0755
vn 0.8664 -0.4949 0.0665
vn 0.6945 -0.7143 0.0864
vn 0.6944 -0.7149 0.0828
vn -0.0000 -0.9976 0.0698
vn -0.7354 -0.6776 0.0126
vn -0.7355 -0.6774 0.0087
vn -0.9739 -0.2263 -0.0200
vn -0.9736 -0.2260 -0.0302
vn -0.9977 0.0635 -0.0228
vn -0.9971 0.0633 -0.0411
vn -0.9592 0.2821 -0.0197
vn -0.9588 0.2818 -0.0373
vn 0.0000 0.9976 -0.0698
vn -0.0418 0.0860 0.9954
vn 0.0419 -0.0861 -0.9954
vn -0.0633 0.0891 0.9940
vn 0.0634 -0.0891 -0.9940
vn -0.0683 0.0903 0.9936
vn 0.0683 -0.0903 -0.9936
vn -0.0523 0.0852 0.9950
vn 0.0523 -0.0853 -0.9950
vn -0.0340 0.0788 0.9963
vn 0.0339 -0.0788 -0.9963
vn -0.0116 0.0677 0.9976
vn 0.0116 -0.0677 -0.9976
vn 0.0019 0.0583 0.9983
vn -0.0019 -0.0582 -0.9983
vn 0.0000 0.0608 0.9982
vn 0.0000 -0.0608 -0.9982
vn 0.9993 0.0308 0.0205
vn 0.9994 0.0333 0.0023
vn 0.9667 0.2503 0.0530
vn 0.9669 0.2526 0.0354
vn 0.8664 0.4936 0.0755
vn 0.8664 0.4949 0.0665
vn 0.6945 0.7143 0.0864
vn 0.6944 0.7149 0.0828
vn -0.0000 0.9976 0.0698
vn -0.7354 0.6776 0.0126
vn -0.7355 0.6774 0.0087
vn -0.9739 0.2263 -0.0200
vn -0.9736 0.2260 -0.0302
vn -0.9977 -0.0635 -0.0228
vn -0.9971 -0.0633 -0.0411
vn -0.9592 -0.2821 -0.0197
vn -0.9588 -0.2818 -0.0373
vn 0.0000 -0.9976 -0.0698
vn -0.0418 -0.0860 0.9954
vn 0.0419 0.0861 -0.9954
vn -0.0633 -0.0891 0.9940
vn 0.0634 0.0891 -0.9940
vn -0.0683 -0.0903 0.9936
vn 0.0683 0.0903 -0.9936
vn -0.0523 -0.0852 0.9950
vn 0.0523 0.0853 -0.9950
vn -0.0340 -0.0788 0.9963
vn 0.0339 0.0788 -0.9963
vn -0.0116 -0.0677 0.9976
vn 0.0116 0.0677 -0.9976
vn 0.0019 -0.0583 0.9983
vn -0.0019 0.0582 -0.9983
vn 0.0000 -0.0608 0.9982
vn -0.0000 0.0608 -0.9982
vn -0.7692 -0.5972 0.2276
vn -0.7872 -0.2532 0.5623
vn -0.7872 0.2532 0.5623
vn -0.7692 0.5972 0.2276
vn -0.7692 0.5972 -0.2276
vn -0.7872 0.2532 -0.5623
vn -0.7872 -0.2532 -0.5623
vn -0.7692 -0.5972 -0.2276
vn -0.4693 -0.8252 0.3144
vn -0.4910 -0.3576 0.7943
vn -0.4910 0.3576 0.7943
vn -0.4693 0.8252 0.3144
vn -0.4693 0.8252 -0.3144
vn -0.4910 0.3576 -0.7943
vn -0.4910 -0.3576 -0.7943
vn -0.4693 -0.8252 -0.3144
vn 0.4009 -0.8561 0.3262
vn 0.4211 -0.3724 0.8271
vn 0.4211 0.3724 0.8271
vn 0.4009 0.8561 0.3262
vn 0.4009 0.8561 -0.3262
vn 0.4211 0.3724 -0.8271
vn 0.4211 -0.3724 -0.8271
vn 0.4009 -0.8561 -0.3262
vn 0.7576 -0.6100 0.2324
vn 0.7762 -0.2589 0.5749
vn 0.7762 0.2589 0.5749
vn 0.7576 0.6100 0.2324
vn 0.7576 0.6100 -0.2324
vn 0.7762 0.2589 -0.5749
vn 0.7762 -0.2589 -0.5749
vn 0.7576 -0.6100 -0.2324
vn 0.2483 -0.8389 0.4843
vn 0.2597 -0.8489 0.4604
vn 0.2814 -0.0000 0.9596
vn 0.2588 0.8365 0.4830
vn 0.2436 0.8526 0.4624
vn 0.1574 0.8552 -0.4938
vn 0.1738 0.8657 -0.4695
vn 0.0988 0.0000 -0.9951
vn 0.1685 -0.8536 -0.4929
vn 0.1567 -0.8682 -0.4709
vn 0.4068 -0.8030 0.4355
vn 0.4035 -0.7924 0.4575
vn 0.4774 -0.0000 0.8787
vn 0.4051 0.8037 0.4359
vn 0.4142 0.7882 0.4551
vn 0.2908 0.8410 -0.4561
vn 0.2811 0.8311 -0.4798
vn 0.2398 0.0000 -0.9708
vn 0.2889 -0.8415 -0.4564
vn 0.2935 -0.8279 -0.4780
g plumage_main
f 1/1/1 10/10/1 2/2/1
f 1/1/2 9/9/2 10/10/2
f 2/2/3 11/11/3 3/3/3
f 2/2/4 10/10/4 11/11/4
f 3/3/5 12/12/5 4/4/5
f 3/3/6 11/11/6 12/12/6
f 4/4/7 13/13/7 5/5/7
f 4/4/8 12/12/8 13/13/8
f 5/5/9 14/14/9 6/6/9
f 5/5/10 13/13/10 14/14/10
f 6/6/11 15/15/11 7/7/11
f 6/6/12 14/14/12 15/15/12
f 7/7/13 16/16/13 8/8/13
f 7/7/14 15/15/14 16/16/14
f 8/8/15 9/9/15 1/1/15
f 8/8/16 16/16/16 9/9/16
f 9/9/17 18/18/17 10/10/17
f 9/9/18 17/17/18 18/18/18
f 10/10/19 19/19/19 11/11/19
f 10/10/20 18/18/20 19/19/20
f 11/11/21 20/20/21 12/12/21
f 11/11/22 19/19/22 20/20/22
f 12/12/23 21/21/23 13/13/23
f 12/12/24 20/20/24 21/21/24
f 13/13/25 22/22/25 14/14/25
f 13/13/26 21/21/26 22/22/26
f 14/14/27 23/23/27 15/15/27
f 14/14/28 22/22/28 23/23/28
f 15/15/29 24/24/29 16/16/29
f 15/15/30 23/23/30 24/24/30
f 16/16/31 17/17/31 9/9/31
f 16/16/32 24/24/32 17/17/32
f 17/17/33 26/26/33 18/18/33
f 17/17/34 25/25/34 26/26/34
f 18/18/35 27/27/35 19/19/35
f 18/18/36 26/26/36 27/27/36
f 19/19/37 28/28/37 20/20/37
f 19/19/38 27/27/38 28/28/38
f 20/20/39 29/29/39 21/21/39
f 20/20/40 28/28/40 29/29/40
f 21/21/41 30/30/41 22/22/41
f 21/21/42 29/29/42 30/30/42
f 22/22/43 31/31/43 23/23/43
f 22/22/44 30/30/44 31/31/44
f 23/23/45 32/32/45 24/24/45
f 23/23/46 31/31/46 32/32/46
f 24/24/47 25/25/47 17/17/47
f 24/24/48 32/32/48 25/25/48
f 25/25/49 34/34/49 26/26/49
f 25/25/50 33/33/50 34/34/50
f 26/26/51 35/35/51 27/27/51
f 26/26/52 34/34/52 35/35/52
f 27/27/53 36/36/53 28/28/53
f 27/27/54 35/35/54 36/36/54
f 28/28/55 37/37/55 29/29/55
f 28/28/56 36/36/56 37/37/56
f 29/29/57 38/38/57 30/30/57
f 29/29/58 37/37/58 38/38/58
f 30/30/59 39/39/59 31/31/59
f 30/30/60 38/38/60 39/39/60
f 31/31/61 40/40/61 32/32/61
f 31/31/62 39/39/62 40/40/62
f 32/32/63 33/33/63 25/25/63
f 32/32/64 40/40/64 33/33/64
f 33/33/65 42/42/65 34/34/65
f 33/33/66 41/41/66 42/42/66
f 34/34/67 43/43/67 35/35/67
f 34/34/68 42/42/68 43/43/68
f 35/35/69 44/44/69 36/36/69
f 35/35/70 43/43/70 44/44/70
f 36/36/71 45/45/71 37/37/71
f 36/36/72 44/44/72 45/45/72
f 37/37/73 46/46/73 38/38/73
f 37/37/74 45/45/74 46/46/74
f 38/38/75 47/47/75 39/39/75
f 38/38/76 46/46/76 47/47/76
f 39/39/77 48/48/77 40/40/77
f 39/39/78 47/47/78 48/48/78
f 40/40/79 41/41/79 33/33/79
f 40/40/80 48/48/80 41/41/80
f 41/41/81 50/50/81 42/42/81
f 41/41/82 49/49/82 50/50/82
f 42/42/83 51/51/83 43/43/83
f 42/42/84 50/50/84 51/51/84
f 43/43/85 52/52/85 44/44/85
f 43/43/86 51/51/86 52/52/86
f 44/44/87 53/53/87 45/45/87
f 44/44/88 52/52/88 53/53/88
f 45/45/89 54/54/89 46/46/89
f 45/45/90 53/53/90 54/54/90
f 46/46/91 55/55/91 47/47/91
f 46/46/92 54/54/92 55/55/92
f 47/47/93 56/56/93 48/48/93
f 47/47/94 55/55/94 56/56/94
f 48/48/95 49/49/95 41/41/95
f 48/48/96 56/56/96 49/49/96
f 1/1/97 2/2/97 3/3/97
f 49/49/98 51/51/98 50/50/98
f 1/1/97 3/3/97 4/4/97
f 49/49/98 52/52/98 51/51/98
f 1/1/97 4/4/97 5/5/97
f 49/49/98 53/53/98 52/52/98
f 1/1/97 5/5/97 6/6/97
f 49/49/98 54/54/98 53/53/98
f 1/1/97 6/6/97 7/7/97
f 49/49/98 55/55/98 54/54/98
f 1/1/97 7/7/97 8/8/97
f 49/49/98 56/56/98 55/55/98
f 57/57/99 65/65/99 58/58/99
f 57/57/99 64/64/99 65/65/99
f 58/58/100 66/66/100 59/59/100
f 58/58/100 65/65/100 66/66/100
f 59/59/101 67/67/101 60/60/101
f 59/59/101 66/66/101 67/67/101
f 60/60/102 68/68/102 61/61/102
f 60/60/102 67/67/102 68/68/102
f 61/61/103 69/69/103 62/62/103
f 61/61/103 68/68/103 69/69/103
f 62/62/104 70/70/104 63/63/104
f 62/62/104 69/69/104 70/70/104
f 63/63/98 64/64/98 57/57/98
f 63/63/98 70/70/98 64/64/98
f 57/57/105 59/59/105 58/58/105
f 64/64/106 65/65/106 66/66/106
f 57/57/105 60/60/105 59/59/105
f 64/64/106 66/66/106 67/67/106
f 57/57/105 61/61/105 60/60/105
f 64/64/106 67/67/106 68/68/106
f 57/57/105 62/62/105 61/61/105
f 64/64/106 68/68/106 69/69/106
f 57/57/105 63/63/105 62/62/105
f 64/64/106 69/69/106 70/70/106
f 71/71/107 82/82/107 72/72/107
f 71/71/108 81/81/108 82/82/108
f 72/72/109 83/83/109 73/73/109
f 72/72/110 82/82/110 83/83/110
f 73/73/111 84/84/111 74/74/111
f 73/73/112 83/83/112 84/84/112
f 74/74/113 85/85/113 75/75/113
f 74/74/114 84/84/114 85/85/114
f 75/75/115 86/86/115 76/76/115
f 75/75/115 85/85/115 86/86/115
f 76/76/116 87/87/116 77/77/116
f 76/76/117 86/86/117 87/87/117
f 77/77/118 88/88/118 78/78/118
f 77/77/119 87/87/119 88/88/119
f 78/78/120 89/89/120 79/79/120
f 78/78/121 88/88/121 89/89/121
f 79/79/122 90/90/122 80/80/122
f 79/79/123 89/89/123 90/90/123
f 80/80/124 81/81/124 71/71/124
f 80/80/124 90/90/124 81/81/124
f 71/71/125 73/73/125 72/72/125
f 81/81/126 82/82/126 83/83/126
f 71/71/127 74/74/127 73/73/127
f 81/81/128 83/83/128 84/84/128
f 71/71/129 75/75/129 74/74/129
f 81/81/130 84/84/130 85/85/130
f 71/71/131 76/76/131 75/75/131
f 81/81/132 85/85/132 86/86/132
f 71/71/133 77/77/133 76/76/133
f 81/81/134 86/86/134 87/87/134
f 71/71/135 78/78/135 77/77/135
f 81/81/136 87/87/136 88/88/136
f 71/71/137 79/79/137 78/78/137
f 81/81/138 88/88/138 89/89/138
f 71/71/139 80/80/139 79/79/139
f 81/81/140 89/89/140 90/90/140
f 91/91/141 92/92/141 102/102/141
f 91/91/142 102/102/142 101/101/142
f 92/92/143 93/93/143 103/103/143
f 92/92/144 103/103/144 102/102/144
f 93/93/145 94/94/145 104/104/145
f 93/93/146 104/104/146 103/103/146
f 94/94/147 95/95/147 105/105/147
f 94/94/148 105/105/148 104/104/148
f 95/95/149 96/96/149 106/106/149
f 95/95/149 106/106/149 105/105/149
f 96/96/150 97/97/150 107/107/150
f 96/96/151 107/107/151 106/106/151
f 97/97/152 98/98/152 108/108/152
f 97/97/153 108/108/153 107/107/153
f 98/98/154 99/99/154 109/109/154
f 98/98/155 109/109/155 108/108/155
f 99/99/156 100/100/156 110/110/156
f 99/99/157 110/110/157 109/109/157
f 100/100/158 91/91/158 101/101/158
f 100/100/158 101/101/158 110/110/158
f 91/91/159 92/92/159 93/93/159
f 101/101/160 103/103/160 102/102/160
f 91/91/161 93/93/161 94/94/161
f 101/101/162 104/104/162 103/103/162
f 91/91/163 94/94/163 95/95/163
f 101/101/164 105/105/164 104/104/164
f 91/91/165 95/95/165 96/96/165
f 101/101/166 106/106/166 105/105/166
f 91/91/167 96/96/167 97/97/167
f 101/101/168 107/107/168 106/106/168
f 91/91/169 97/97/169 98/98/169
f 101/101/170 108/108/170 107/107/170
f 91/91/171 98/98/171 99/99/171
f 101/101/172 109/109/172 108/108/172
f 91/91/173 99/99/173 100/100/173
f 101/101/174 110/110/174 109/109/174
g plumage_hood
f 111/111/175 120/120/175 112/112/175
f 111/111/175 119/119/175 120/120/175
f 112/112/176 121/121/176 113/113/176
f 112/112/176 120/120/176 121/121/176
f 113/113/177 122/122/177 114/114/177
f 113/113/177 121/121/177 122/122/177
f 114/114/178 123/123/178 115/115/178
f 114/114/178 122/122/178 123/123/178
f 115/115/179 124/124/179 116/116/179
f 115/115/179 123/123/179 124/124/179
f 116/116/180 125/125/180 117/117/180
f 116/116/180 124/124/180 125/125/180
f 117/117/181 126/126/181 118/118/181
f 117/117/181 125/125/181 126/126/181
f 118/118/182 119/119/182 111/111/182
f 118/118/182 126/126/182 119/119/182
f 119/119/183 128/128/183 120/120/183
f 119/119/183 127/127/183 128/128/183
f 120/120/184 129/129/184 121/121/184
f 120/120/184 128/128/184 129/129/184
f 121/121/185 130/130/185 122/122/185
f 121/121/185 129/129/185 130/130/185
f 122/122/186 131/131/186 123/123/186
f 122/122/186 130/130/186 131/131/186
f 123/123/187 132/132/187 124/124/187
f 123/123/187 131/131/187 132/132/187
f 124/124/188 133/133/188 125/125/188
f 124/124/188 132/132/188 133/133/188
f 125/125/189 134/134/189 126/126/189
f 125/125/189 133/133/189 134/134/189
f 126/126/190 127/127/190 119/119/190
f 126/126/190 134/134/190 127/127/190
f 127/127/191 136/136/191 128/128/191
f 127/127/191 135/135/191 136/136/191
f 128/128/192 137/137/192 129/129/192
f 128/128/192 136/136/192 137/137/192
f 129/129/193 138/138/193 130/130/193
f 129/129/193 137/137/193 138/138/193
f 130/130/194 139/139/194 131/131/194
f 130/130/194 138/138/194 139/139/194
f 131/131/195 140/140/195 132/132/195
f 131/131/195 139/139/195 140/140/195
f 132/132/196 141/141/196 133/133/196
f 132/132/196 140/140/196 141/141/196
f 133/133/197 142/142/197 134/134/197
f 133/133/197 141/141/197 142/142/197
f 134/134/198 135/135/198 127/127/198
f 134/134/198 142/142/198 135/135/198
f 135/135/199 144/144/199 136/136/199
f 135/135/199 143/143/199 144/144/199
f 136/136/200 145/145/200 137/137/200
f 136/136/200 144/144/200 145/145/200
f 137/137/201 146/146/201 138/138/201
f 137/137/201 145/145/201 146/146/201
f 138/138/202 147/147/202 139/139/202
f 138/138/202 146/146/202 147/147/202
f 139/139/203 148/148/203 140/140/203
f 139/139/203 147/147/203 148/148/203
f 140/140/204 149/149/204 141/141/204
f 140/140/204 148/148/204 149/149/204
f 141/141/205 150/150/205 142/142/205
f 141/141/205 149/149/205 150/150/205
f 142/142/206 143/143/206 135/135/206
f 142/142/206 150/150/206 143/143/206
f 111/111/97 112/112/97 113/113/97
f 143/143/98 145/145/98 144/144/98
f 111/111/97 113/113/97 114/114/97
f 143/143/98 146/146/98 145/145/98
f 111/111/97 114/114/97 115/115/97
f 143/143/98 147/147/98 146/146/98
f 111/111/97 115/115/97 116/116/97
f 143/143/98 148/148/98 147/147/98
f 111/111/97 116/116/97 117/117/97
f 143/143/98 149/149/98 148/148/98
f 111/111/97 117/117/97 118/118/97
f 143/143/98 150/150/98 149/149/98
f 151/151/207 158/158/207 152/152/207
f 151/151/208 157/157/208 158/158/208
f 152/152/209 159/159/209 153/153/209
f 152/152/209 158/158/209 159/159/209
f 153/153/210 160/160/210 154/154/210
f 153/153/211 159/159/211 160/160/211
f 154/154/212 161/161/212 155/155/212
f 154/154/213 160/160/213 161/161/213
f 155/155/214 162/162/214 156/156/214
f 155/155/214 161/161/214 162/162/214
f 156/156/215 157/157/215 151/151/215
f 156/156/216 162/162/216 157/157/216
f 157/157/217 164/164/217 158/158/217
f 157/157/218 163/163/218 164/164/218
f 158/158/219 165/165/219 159/159/219
f 158/158/219 164/164/219 165/165/219
f 159/159/220 166/166/220 160/160/220
f 159/159/221 165/165/221 166/166/221
f 160/160/222 167/167/222 161/161/222
f 160/160/223 166/166/223 167/167/223
f 161/161/224 168/168/224 162/162/224
f 161/161/224 167/167/224 168/168/224
f 162/162/225 163/163/225 157/157/225
f 162/162/226 168/168/226 163/163/226
f 151/151/97 152/152/97 153/153/97
f 163/163/98 165/165/98 164/164/98
f 151/151/97 153/153/97 154/154/97
f 163/163/98 166/166/98 165/165/98
f 151/151/97 154/154/97 155/155/97
f 163/163/98 167/167/98 166/166/98
f 151/151/97 155/155/97 156/156/97
f 163/163/98 168/168/98 167/167/98
