# Unreal legacy OBJ adapter: canonical vertices are centimetres in the bird frame (+X forward, +Y right, +Z up, origin at the body centre); this file is written with Y reflected and triangle winding reversed. One object, exactly two g groups (plumage_main, plumage_hood), so the importer creates exactly two material slots.
# Rock dove (feral pigeon) (Columba livia), pose up_stroke
# wingspan 67.0 cm, body length 33.0 cm; Collins Bird Guide 2nd ed. (Svensson, Mullarney & Zetterstrom, 2009), Columba livia: length 30-35 cm, wingspan 62-72 cm; same range in Cramp (ed.), Birds of the Western Palearctic vol. IV. Mid-points used: 33 cm and 67 cm.
# AUTHORED low-poly silhouette in those published proportions. Not a scan, not photogrammetry, not a claim about an individual bird.
o SM_BirdsV1_RockDove_UpStroke
s off
v -9.8820 -0.3370 0.6750
v -9.8730 -0.2380 0.9550
v -9.8690 -0.0000 1.0710
v -9.8730 0.2380 0.9550
v -9.8820 0.3370 0.6750
v -9.8920 0.2380 0.3950
v -9.8960 0.0000 0.2800
v -9.8920 -0.2380 0.3950
v -6.5820 -2.9170 0.6260
v -6.4930 -2.0630 3.1910
v -6.4550 -0.0000 4.2540
v -6.4930 2.0630 3.1910
v -6.5820 2.9170 0.6260
v -6.6720 2.0630 -1.9390
v -6.7090 0.0000 -3.0020
v -6.6720 -2.0630 -1.9390
v -1.9630 -5.0490 0.5310
v -1.8100 -3.5700 4.9150
v -1.7460 -0.0000 6.7310
v -1.8100 3.5700 4.9150
v -1.9630 5.0490 0.5310
v -2.1160 3.5700 -3.8530
v -2.1790 0.0000 -5.6690
v -2.1160 -3.5700 -3.8530
v 2.6500 -5.6100 0.2380
v 2.8130 -3.9670 4.9020
v 2.8800 -0.0000 6.8340
v 2.8130 3.9670 4.9020
v 2.6500 5.6100 0.2380
v 2.4870 3.9670 -4.4260
v 2.4200 0.0000 -6.3580
v 2.4870 -3.9670 -4.4260
v 6.6010 -4.8250 -0.0980
v 6.7470 -3.4120 4.0990
v 6.8080 -0.0000 5.8380
v 6.7470 3.4120 4.0990
v 6.6010 4.8250 -0.0980
v 6.4540 3.4120 -4.2960
v 6.3930 0.0000 -6.0350
v 6.4540 -3.4120 -4.2960
v 9.8920 -3.2540 -0.4110
v 9.9960 -2.3010 2.5740
v 10.0390 -0.0000 3.8100
v 9.9960 2.3010 2.5740
v 9.8920 3.2540 -0.4110
v 9.7870 2.3010 -3.3960
v 9.7440 0.0000 -4.6330
v 9.7870 -2.3010 -3.3960
v 11.8660 -1.1220 -0.6120
v 11.9050 -0.7930 0.5070
v 11.9210 -0.0000 0.9710
v 11.9050 0.7930 0.5070
v 11.8660 1.1220 -0.6120
v 11.8270 0.7930 -1.7320
v 11.8110 0.0000 -2.1960
v 11.8270 -0.7930 -1.7320
v -7.8980 -1.5840 0.7710
v -12.0530 -4.8580 0.9160
v -19.7710 -3.8020 1.1860
v -20.1270 -0.0000 1.1980
v -19.7710 3.8020 1.1860
v -12.0530 4.8580 0.9160
v -7.8980 1.5840 0.7710
v -7.8860 -1.5840 1.1010
v -12.0420 -4.8580 1.2460
v -19.7590 -3.8020 1.5160
v -20.1150 -0.0000 1.5280
v -19.7590 3.8020 1.5160
v -12.0420 4.8580 1.2460
v -7.8860 1.5840 1.1010
v 10.2610 -5.4890 2.0540
v 9.2350 -10.3370 10.0030
v 5.8940 -15.2630 17.6880
v 2.2100 -18.2560 21.7970
v -0.9320 -19.8860 23.6430
v -1.9120 -19.9430 23.5150
v -4.3340 -18.5590 20.9950
v -5.2600 -15.5180 16.4960
v -3.9220 -10.1010 8.9580
v -0.2670 -4.8720 1.5060
v 10.2710 -5.0510 2.3490
v 9.2200 -9.8980 10.2960
v 5.8530 -14.8240 17.9790
v 2.1550 -17.8180 22.0860
v -0.9950 -19.4480 23.9310
v -1.9750 -19.5050 23.8030
v -4.3890 -18.1210 21.2840
v -5.3010 -15.0790 16.7870
v -3.9370 -9.6620 9.2520
v -0.2560 -4.4340 1.8010
v 10.2610 5.4890 2.0540
v 9.2350 10.3370 10.0030
v 5.8940 15.2630 17.6880
v 2.2100 18.2560 21.7970
v -0.9320 19.8860 23.6430
v -1.9120 19.9430 23.5150
v -4.3340 18.5590 20.9950
v -5.2600 15.5180 16.4960
v -3.9220 10.1010 8.9580
v -0.2670 4.8720 1.5060
v 10.2710 5.0510 2.3490
v 9.2200 9.8980 10.2960
v 5.8530 14.8240 17.9790
v 2.1550 17.8180 22.0860
v -0.9950 19.4480 23.9310
v -1.9750 19.5050 23.8030
v -4.3890 18.1210 21.2840
v -5.3010 15.0790 16.7870
v -3.9370 9.6620 9.2520
v -0.2560 4.4340 1.8010
v 8.6090 -0.3040 0.6900
v 8.6170 -0.2150 0.9230
v 8.6210 -0.0000 1.0200
v 8.6170 0.2150 0.9230
v 8.6090 0.3040 0.6900
v 8.6010 0.2150 0.4570
v 8.5980 0.0000 0.3600
v 8.6010 -0.2150 0.4570
v 9.9290 -2.0040 0.6440
v 9.9820 -1.4170 2.1830
v 10.0050 -0.0000 2.8210
v 9.9820 1.4170 2.1830
v 9.9290 2.0040 0.6440
v 9.8750 1.4170 -0.8950
v 9.8530 0.0000 -1.5330
v 9.8750 -1.4170 -0.8950
v 11.7420 -3.0360 0.5810
v 11.8240 -2.1470 2.9130
v 11.8580 -0.0000 3.8790
v 11.8240 2.1470 2.9130
v 11.7420 3.0360 0.5810
v 11.6610 2.1470 -1.7510
v 11.6270 0.0000 -2.7170
v 11.6610 -2.1470 -1.7510
v 13.5560 -2.1860 0.5170
v 13.6150 -1.5460 2.1960
v 13.6390 -0.0000 2.8920
v 13.6150 1.5460 2.1960
v 13.5560 2.1860 0.5170
v 13.4980 1.5460 -1.1620
v 13.4730 0.0000 -1.8570
v 13.4980 -1.5460 -1.1620
v 14.8760 -0.5460 0.4710
v 14.8900 -0.3860 0.8910
v 14.8960 -0.0000 1.0650
v 14.8900 0.3860 0.8910
v 14.8760 0.5460 0.4710
v 14.8610 0.3860 0.0510
v 14.8550 0.0000 -0.1220
v 14.8610 -0.3860 0.0510
v 14.3760 -0.9070 0.3560
v 14.4040 -0.4540 1.1420
v 14.4040 0.4540 1.1420
v 14.3760 0.9070 0.3560
v 14.3490 0.4540 -0.4290
v 14.3490 -0.4540 -0.4290
v 15.7320 -0.5630 0.1770
v 15.7500 -0.2810 0.6950
v 15.7500 0.2810 0.6950
v 15.7320 0.5630 0.1770
v 15.7140 0.2810 -0.3410
v 15.7140 -0.2810 -0.3410
v 16.8390 -0.0910 -0.0270
v 16.8420 -0.0450 0.0520
v 16.8420 0.0450 0.0520
v 16.8390 0.0910 -0.0270
v 16.8370 0.0450 -0.1050
v 16.8370 -0.0450 -0.1050
vt 0.45059 0.50338
vt 0.45064 0.50477
vt 0.45066 0.50535
vt 0.45064 0.50477
vt 0.45059 0.50338
vt 0.45054 0.50197
vt 0.45052 0.50140
vt 0.45054 0.50197
vt 0.46709 0.50313
vt 0.46753 0.51596
vt 0.46773 0.52127
vt 0.46753 0.51596
vt 0.46709 0.50313
vt 0.46664 0.49030
vt 0.46646 0.48499
vt 0.46664 0.49030
vt 0.49018 0.50265
vt 0.49095 0.52458
vt 0.49127 0.53365
vt 0.49095 0.52458
vt 0.49018 0.50265
vt 0.48942 0.48074
vt 0.48911 0.47165
vt 0.48942 0.48074
vt 0.51325 0.50119
vt 0.51406 0.52451
vt 0.51440 0.53417
vt 0.51406 0.52451
vt 0.51325 0.50119
vt 0.51243 0.47787
vt 0.51210 0.46821
vt 0.51243 0.47787
vt 0.53300 0.49951
vt 0.53373 0.52050
vt 0.53404 0.52919
vt 0.53373 0.52050
vt 0.53300 0.49951
vt 0.53227 0.47852
vt 0.53197 0.46982
vt 0.53227 0.47852
vt 0.54946 0.49795
vt 0.54998 0.51287
vt 0.55019 0.51905
vt 0.54998 0.51287
vt 0.54946 0.49795
vt 0.54893 0.48302
vt 0.54872 0.47684
vt 0.54893 0.48302
vt 0.55933 0.49694
vt 0.55953 0.50253
vt 0.55961 0.50486
vt 0.55953 0.50253
vt 0.55933 0.49694
vt 0.55914 0.49134
vt 0.55905 0.48902
vt 0.55914 0.49134
vt 0.46051 0.50386
vt 0.43973 0.50458
vt 0.40114 0.50593
vt 0.39937 0.50599
vt 0.40114 0.50593
vt 0.43973 0.50458
vt 0.46051 0.50386
vt 0.46057 0.50550
vt 0.43979 0.50623
vt 0.40120 0.50758
vt 0.39943 0.50764
vt 0.40120 0.50758
vt 0.43979 0.50623
vt 0.46057 0.50550
vt 0.55131 0.51027
vt 0.54617 0.55002
vt 0.52947 0.58844
vt 0.51105 0.60898
vt 0.49534 0.61821
vt 0.49044 0.61757
vt 0.47833 0.60498
vt 0.47370 0.58248
vt 0.48039 0.54479
vt 0.49867 0.50753
vt 0.55136 0.51175
vt 0.54610 0.55148
vt 0.52926 0.58990
vt 0.51077 0.61043
vt 0.49502 0.61966
vt 0.49012 0.61901
vt 0.47806 0.60642
vt 0.47349 0.58393
vt 0.48031 0.54626
vt 0.49872 0.50901
vt 0.55131 0.51027
vt 0.54617 0.55002
vt 0.52947 0.58844
vt 0.51105 0.60898
vt 0.49534 0.61821
vt 0.49044 0.61757
vt 0.47833 0.60498
vt 0.47370 0.58248
vt 0.48039 0.54479
vt 0.49867 0.50753
vt 0.55136 0.51175
vt 0.54610 0.55148
vt 0.52926 0.58990
vt 0.51077 0.61043
vt 0.49502 0.61966
vt 0.49012 0.61901
vt 0.47806 0.60642
vt 0.47349 0.58393
vt 0.48031 0.54626
vt 0.49872 0.50901
vt 0.54304 0.50345
vt 0.54309 0.50462
vt 0.54310 0.50510
vt 0.54309 0.50462
vt 0.54304 0.50345
vt 0.54300 0.50228
vt 0.54299 0.50180
vt 0.54300 0.50228
vt 0.54965 0.50322
vt 0.54991 0.51092
vt 0.55002 0.51411
vt 0.54991 0.51092
vt 0.54965 0.50322
vt 0.54937 0.49552
vt 0.54927 0.49234
vt 0.54937 0.49552
vt 0.55871 0.50291
vt 0.55912 0.51457
vt 0.55929 0.51940
vt 0.55912 0.51457
vt 0.55871 0.50291
vt 0.55831 0.49124
vt 0.55814 0.48641
vt 0.55831 0.49124
vt 0.56778 0.50258
vt 0.56807 0.51098
vt 0.56820 0.51446
vt 0.56807 0.51098
vt 0.56778 0.50258
vt 0.56749 0.49419
vt 0.56737 0.49072
vt 0.56749 0.49419
vt 0.57438 0.50235
vt 0.57445 0.50445
vt 0.57448 0.50533
vt 0.57445 0.50445
vt 0.57438 0.50235
vt 0.57431 0.50026
vt 0.57427 0.49939
vt 0.57431 0.50026
vt 0.57188 0.50178
vt 0.57202 0.50571
vt 0.57202 0.50571
vt 0.57188 0.50178
vt 0.57174 0.49785
vt 0.57174 0.49785
vt 0.57866 0.50089
vt 0.57875 0.50348
vt 0.57875 0.50348
vt 0.57866 0.50089
vt 0.57857 0.49829
vt 0.57857 0.49829
vt 0.58420 0.49987
vt 0.58421 0.50026
vt 0.58421 0.50026
vt 0.58420 0.49987
vt 0.58418 0.49948
vt 0.58418 0.49948
vn -0.5946 -0.7516 0.2855
vn -0.5899 -0.7597 0.2736
vn -0.6448 -0.3258 0.6915
vn -0.6400 -0.3427 0.6877
vn -0.6380 0.3283 0.6965
vn -0.6408 0.3424 0.6871
vn -0.5874 0.7567 0.2871
vn -0.5907 0.7591 0.2735
vn -0.6064 0.7564 -0.2453
vn -0.6011 0.7643 -0.2336
vn -0.6767 0.3316 -0.6573
vn -0.6715 0.3488 -0.6537
vn -0.6699 -0.3342 -0.6629
vn -0.6723 -0.3485 -0.6531
vn -0.5991 -0.7615 -0.2473
vn -0.6019 -0.7637 -0.2334
vn -0.3913 -0.8689 0.3031
vn -0.3937 -0.8668 0.3061
vn -0.4249 -0.4085 0.8078
vn -0.4277 -0.4038 0.8087
vn -0.4281 0.4077 0.8065
vn -0.4258 0.4042 0.8095
vn -0.3942 0.8677 0.3028
vn -0.3920 0.8675 0.3063
vn -0.4045 0.8718 -0.2763
vn -0.4071 0.8697 -0.2791
vn -0.4623 0.4126 -0.7849
vn -0.4651 0.4079 -0.7857
vn -0.4654 -0.4119 -0.7834
vn -0.4632 -0.4083 -0.7866
vn -0.4075 -0.8706 -0.2758
vn -0.4054 -0.8704 -0.2794
vn -0.0801 -0.9437 0.3211
vn -0.0929 -0.9381 0.3337
vn -0.0198 -0.4530 0.8913
vn -0.0349 -0.4371 0.8987
vn -0.0363 0.4526 0.8910
vn -0.0199 0.4375 0.8990
vn -0.0942 0.9423 0.3211
vn -0.0796 0.9393 0.3337
vn -0.1202 0.9419 -0.3135
vn -0.1345 0.9361 -0.3251
vn -0.1322 0.4513 -0.8825
vn -0.1481 0.4351 -0.8881
vn -0.1484 -0.4504 -0.8804
vn -0.1333 -0.4358 -0.8901
vn -0.1342 -0.9404 -0.3125
vn -0.1214 -0.9375 -0.3260
vn 0.1961 -0.9270 0.3197
vn 0.2106 -0.9287 0.3053
vn 0.2219 -0.4300 0.8752
vn 0.2388 -0.4443 0.8634
vn 0.2383 0.4285 0.8716
vn 0.2199 0.4461 0.8676
vn 0.2108 0.9243 0.3183
vn 0.1941 0.9317 0.3069
vn 0.1414 0.9321 -0.3333
vn 0.1585 0.9341 -0.3200
vn 0.0730 0.4357 -0.8971
vn 0.0923 0.4508 -0.8878
vn 0.0903 -0.4348 -0.8960
vn 0.0724 -0.4519 -0.8891
vn 0.1565 -0.9298 -0.3330
vn 0.1417 -0.9367 -0.3203
vn 0.4243 -0.8626 0.2756
vn 0.4360 -0.8616 0.2599
vn 0.4864 -0.4036 0.7749
vn 0.4993 -0.4174 0.7593
vn 0.4981 0.4008 0.7689
vn 0.4820 0.4218 0.7680
vn 0.4354 0.8577 0.2735
vn 0.4203 0.8686 0.2626
vn 0.3745 0.8747 -0.3076
vn 0.3891 0.8735 -0.2925
vn 0.3502 0.4204 -0.8370
vn 0.3669 0.4350 -0.8223
vn 0.3639 -0.4178 -0.8325
vn 0.3468 -0.4389 -0.8289
vn 0.3861 -0.8701 -0.3064
vn 0.3726 -0.8802 -0.2940
vn 0.7251 -0.6629 0.1863
vn 0.7311 -0.6611 0.1686
vn 0.7956 -0.2983 0.5273
vn 0.8006 -0.3145 0.5101
vn 0.7995 0.2959 0.5227
vn 0.7892 0.3218 0.5231
vn 0.7297 0.6583 0.1847
vn 0.7187 0.6735 0.1726
vn 0.6962 0.6765 -0.2403
vn 0.7048 0.6737 -0.2224
vn 0.7237 0.3161 -0.6135
vn 0.7316 0.3328 -0.5950
vn 0.7287 -0.3135 -0.6088
vn 0.7172 -0.3407 -0.6080
vn 0.7011 -0.6718 -0.2390
vn 0.6914 -0.6863 -0.2256
vn -0.9994 0.0000 0.0349
vn 0.9994 -0.0000 -0.0349
vn 0.6182 -0.7857 -0.0216
vn -0.1354 -0.9908 0.0047
vn -0.9950 -0.0933 0.0347
vn -0.9950 0.0933 0.0347
vn -0.1354 0.9908 0.0047
vn 0.6182 0.7857 -0.0216
vn 0.0349 -0.0000 0.9994
vn -0.0349 -0.0000 -0.9994
vn 0.9937 -0.0361 0.1062
vn 0.9934 -0.0794 0.0831
vn 0.9369 -0.1280 0.3253
vn 0.9380 -0.1693 0.3025
vn 0.8046 -0.2525 0.5374
vn 0.8054 -0.2734 0.5259
vn 0.6064 -0.3747 0.7014
vn 0.6064 -0.3830 0.6968
vn -0.0757 -0.5561 0.8276
vn -0.7581 -0.4238 0.4957
vn -0.7579 -0.4315 0.4893
vn -0.9830 -0.1563 0.0967
vn -0.9810 -0.1770 0.0791
vn -0.9892 0.0558 -0.1355
vn -0.9860 0.0176 -0.1658
vn -0.9280 0.2231 -0.2985
vn -0.9265 0.1861 -0.3271
vn 0.0757 0.5561 -0.8276
vn -0.0873 0.8555 0.5104
vn 0.0878 -0.8556 -0.5102
vn -0.1434 0.8567 0.4955
vn 0.1437 -0.8568 -0.4951
vn -0.1564 0.8572 0.4906
vn 0.1566 -0.8574 -0.4902
vn -0.1159 0.8531 0.5088
vn 0.1159 -0.8532 -0.5086
vn -0.0688 0.8451 0.5301
vn 0.0687 -0.8451 -0.5301
vn -0.0118 0.8272 0.5617
vn 0.0117 -0.8271 -0.5619
vn 0.0219 0.8100 0.5860
vn -0.0220 -0.8099 -0.5862
vn 0.0176 0.8144 0.5800
vn -0.0176 -0.8144 -0.5801
vn 0.9937 0.0361 0.1062
vn 0.9934 0.0794 0.0831
vn 0.9369 0.1280 0.3253
vn 0.9380 0.1693 0.3025
vn 0.8046 0.2525 0.5374
vn 0.8054 0.2734 0.5259
vn 0.6064 0.3747 0.7014
vn 0.6064 0.3830 0.6968
vn -0.0757 0.5561 0.8276
vn -0.7581 0.4238 0.4957
vn -0.7579 0.4315 0.4893
vn -0.9830 0.1563 0.0967
vn -0.9810 0.1770 0.0791
vn -0.9892 -0.0558 -0.1355
vn -0.9860 -0.0176 -0.1658
vn -0.9280 -0.2231 -0.2985
vn -0.9265 -0.1861 -0.3271
vn 0.0757 -0.5561 -0.8276
vn -0.0873 -0.8555 0.5104
vn 0.0878 0.8556 -0.5102
vn -0.1434 -0.8567 0.4955
vn 0.1437 0.8568 -0.4951
vn -0.1564 -0.8572 0.4906
vn 0.1566 0.8574 -0.4902
vn -0.1159 -0.8531 0.5088
vn 0.1159 0.8532 -0.5086
vn -0.0688 -0.8451 0.5301
vn 0.0687 0.8451 -0.5301
vn -0.0118 -0.8272 0.5617
vn 0.0117 0.8271 -0.5619
vn 0.0219 -0.8100 0.5860
vn -0.0220 0.8099 -0.5862
vn 0.0176 -0.8144 0.5800
vn -0.0176 0.8144 -0.5801
vn -0.7607 -0.5972 0.2543
vn -0.7671 -0.2532 0.5894
vn -0.7671 0.2532 0.5894
vn -0.7607 0.5972 0.2543
vn -0.7766 0.5972 -0.2006
vn -0.8064 0.2532 -0.5345
vn -0.8064 -0.2532 -0.5345
vn -0.7766 -0.5972 -0.2006
vn -0.4580 -0.8252 0.3306
vn -0.4630 -0.3576 0.8110
vn -0.4630 0.3576 0.8110
vn -0.4580 0.8252 0.3306
vn -0.4800 0.8252 -0.2979
vn -0.5185 0.3576 -0.7767
vn -0.5185 -0.3576 -0.7767
vn -0.4800 -0.8252 -0.2979
vn 0.4121 -0.8561 0.3120
vn 0.4497 -0.3724 0.8119
vn 0.4497 0.3724 0.8119
vn 0.4121 0.8561 0.3120
vn 0.3893 0.8561 -0.3400
vn 0.3919 0.3724 -0.8413
vn 0.3919 -0.3724 -0.8413
vn 0.3893 -0.8561 -0.3400
vn 0.7652 -0.6100 0.2059
vn 0.7958 -0.2589 0.5475
vn 0.7958 0.2589 0.5475
vn 0.7652 0.6100 0.2059
vn 0.7490 0.6100 -0.2587
vn 0.7556 0.2589 -0.6017
vn 0.7556 -0.2589 -0.6017
vn 0.7490 -0.6100 -0.2587
vn 0.2651 -0.8389 0.4754
vn 0.2756 -0.8489 0.4511
vn 0.3147 -0.0000 0.9492
vn 0.2755 0.8365 0.4736
vn 0.2596 0.8526 0.4536
vn 0.1400 0.8552 -0.4990
vn 0.1573 0.8657 -0.4753
vn 0.0641 0.0000 -0.9979
vn 0.1512 -0.8536 -0.4984
vn 0.1402 -0.8682 -0.4760
vn 0.4217 -0.8030 0.4211
vn 0.4192 -0.7924 0.4431
vn 0.5078 -0.0000 0.8615
vn 0.4201 0.8037 0.4215
vn 0.4299 0.7882 0.4403
vn 0.2748 0.8410 -0.4660
vn 0.2641 0.8311 -0.4894
vn 0.2058 -0.0000 -0.9786
vn 0.2728 -0.8415 -0.4662
vn 0.2766 -0.8279 -0.4879
g plumage_main
f 1/1/1 10/10/1 2/2/1
f 1/1/2 9/9/2 10/10/2
f 2/2/3 11/11/3 3/3/3
f 2/2/4 10/10/4 11/11/4
f 3/3/5 12/12/5 4/4/5
f 3/3/6 11/11/6 12/12/6
f 4/4/7 13/13/7 5/5/7
f 4/4/8 12/12/8 13/13/8
f 5/5/9 14/14/9 6/6/9
f 5/5/10 13/13/10 14/14/10
f 6/6/11 15/15/11 7/7/11
f 6/6/12 14/14/12 15/15/12
f 7/7/13 16/16/13 8/8/13
f 7/7/14 15/15/14 16/16/14
f 8/8/15 9/9/15 1/1/15
f 8/8/16 16/16/16 9/9/16
f 9/9/17 18/18/17 10/10/17
f 9/9/18 17/17/18 18/18/18
f 10/10/19 19/19/19 11/11/19
f 10/10/20 18/18/20 19/19/20
f 11/11/21 20/20/21 12/12/21
f 11/11/22 19/19/22 20/20/22
f 12/12/23 21/21/23 13/13/23
f 12/12/24 20/20/24 21/21/24
f 13/13/25 22/22/25 14/14/25
f 13/13/26 21/21/26 22/22/26
f 14/14/27 23/23/27 15/15/27
f 14/14/28 22/22/28 23/23/28
f 15/15/29 24/24/29 16/16/29
f 15/15/30 23/23/30 24/24/30
f 16/16/31 17/17/31 9/9/31
f 16/16/32 24/24/32 17/17/32
f 17/17/33 26/26/33 18/18/33
f 17/17/34 25/25/34 26/26/34
f 18/18/35 27/27/35 19/19/35
f 18/18/36 26/26/36 27/27/36
f 19/19/37 28/28/37 20/20/37
f 19/19/38 27/27/38 28/28/38
f 20/20/39 29/29/39 21/21/39
f 20/20/40 28/28/40 29/29/40
f 21/21/41 30/30/41 22/22/41
f 21/21/42 29/29/42 30/30/42
f 22/22/43 31/31/43 23/23/43
f 22/22/44 30/30/44 31/31/44
f 23/23/45 32/32/45 24/24/45
f 23/23/46 31/31/46 32/32/46
f 24/24/47 25/25/47 17/17/47
f 24/24/48 32/32/48 25/25/48
f 25/25/49 34/34/49 26/26/49
f 25/25/50 33/33/50 34/34/50
f 26/26/51 35/35/51 27/27/51
f 26/26/52 34/34/52 35/35/52
f 27/27/53 36/36/53 28/28/53
f 27/27/54 35/35/54 36/36/54
f 28/28/55 37/37/55 29/29/55
f 28/28/56 36/36/56 37/37/56
f 29/29/57 38/38/57 30/30/57
f 29/29/58 37/37/58 38/38/58
f 30/30/59 39/39/59 31/31/59
f 30/30/60 38/38/60 39/39/60
f 31/31/61 40/40/61 32/32/61
f 31/31/62 39/39/62 40/40/62
f 32/32/63 33/33/63 25/25/63
f 32/32/64 40/40/64 33/33/64
f 33/33/65 42/42/65 34/34/65
f 33/33/66 41/41/66 42/42/66
f 34/34/67 43/43/67 35/35/67
f 34/34/68 42/42/68 43/43/68
f 35/35/69 44/44/69 36/36/69
f 35/35/70 43/43/70 44/44/70
f 36/36/71 45/45/71 37/37/71
f 36/36/72 44/44/72 45/45/72
f 37/37/73 46/46/73 38/38/73
f 37/37/74 45/45/74 46/46/74
f 38/38/75 47/47/75 39/39/75
f 38/38/76 46/46/76 47/47/76
f 39/39/77 48/48/77 40/40/77
f 39/39/78 47/47/78 48/48/78
f 40/40/79 41/41/79 33/33/79
f 40/40/80 48/48/80 41/41/80
f 41/41/81 50/50/81 42/42/81
f 41/41/82 49/49/82 50/50/82
f 42/42/83 51/51/83 43/43/83
f 42/42/84 50/50/84 51/51/84
f 43/43/85 52/52/85 44/44/85
f 43/43/86 51/51/86 52/52/86
f 44/44/87 53/53/87 45/45/87
f 44/44/88 52/52/88 53/53/88
f 45/45/89 54/54/89 46/46/89
f 45/45/90 53/53/90 54/54/90
f 46/46/91 55/55/91 47/47/91
f 46/46/92 54/54/92 55/55/92
f 47/47/93 56/56/93 48/48/93
f 47/47/94 55/55/94 56/56/94
f 48/48/95 49/49/95 41/41/95
f 48/48/96 56/56/96 49/49/96
f 1/1/97 2/2/97 3/3/97
f 49/49/98 51/51/98 50/50/98
f 1/1/97 3/3/97 4/4/97
f 49/49/98 52/52/98 51/51/98
f 1/1/97 4/4/97 5/5/97
f 49/49/98 53/53/98 52/52/98
f 1/1/97 5/5/97 6/6/97
f 49/49/98 54/54/98 53/53/98
f 1/1/97 6/6/97 7/7/97
f 49/49/98 55/55/98 54/54/98
f 1/1/97 7/7/97 8/8/97
f 49/49/98 56/56/98 55/55/98
f 57/57/99 65/65/99 58/58/99
f 57/57/99 64/64/99 65/65/99
f 58/58/100 66/66/100 59/59/100
f 58/58/100 65/65/100 66/66/100
f 59/59/101 67/67/101 60/60/101
f 59/59/101 66/66/101 67/67/101
f 60/60/102 68/68/102 61/61/102
f 60/60/102 67/67/102 68/68/102
f 61/61/103 69/69/103 62/62/103
f 61/61/103 68/68/103 69/69/103
f 62/62/104 70/70/104 63/63/104
f 62/62/104 69/69/104 70/70/104
f 63/63/98 64/64/98 57/57/98
f 63/63/98 70/70/98 64/64/98
f 57/57/105 59/59/105 58/58/105
f 64/64/106 65/65/106 66/66/106
f 57/57/105 60/60/105 59/59/105
f 64/64/106 66/66/106 67/67/106
f 57/57/105 61/61/105 60/60/105
f 64/64/106 67/67/106 68/68/106
f 57/57/105 62/62/105 61/61/105
f 64/64/106 68/68/106 69/69/106
f 57/57/105 63/63/105 62/62/105
f 64/64/106 69/69/106 70/70/106
f 71/71/107 82/82/107 72/72/107
f 71/71/108 81/81/108 82/82/108
f 72/72/109 83/83/109 73/73/109
f 72/72/110 82/82/110 83/83/110
f 73/73/111 84/84/111 74/74/111
f 73/73/112 83/83/112 84/84/112
f 74/74/113 85/85/113 75/75/113
f 74/74/114 84/84/114 85/85/114
f 75/75/115 86/86/115 76/76/115
f 75/75/115 85/85/115 86/86/115
f 76/76/116 87/87/116 77/77/116
f 76/76/117 86/86/117 87/87/117
f 77/77/118 88/88/118 78/78/118
f 77/77/119 87/87/119 88/88/119
f 78/78/120 89/89/120 79/79/120
f 78/78/121 88/88/121 89/89/121
f 79/79/122 90/90/122 80/80/122
f 79/79/123 89/89/123 90/90/123
f 80/80/124 81/81/124 71/71/124
f 80/80/124 90/90/124 81/81/124
f 71/71/125 73/73/125 72/72/125
f 81/81/126 82/82/126 83/83/126
f 71/71/127 74/74/127 73/73/127
f 81/81/128 83/83/128 84/84/128
f 71/71/129 75/75/129 74/74/129
f 81/81/130 84/84/130 85/85/130
f 71/71/131 76/76/131 75/75/131
f 81/81/132 85/85/132 86/86/132
f 71/71/133 77/77/133 76/76/133
f 81/81/134 86/86/134 87/87/134
f 71/71/135 78/78/135 77/77/135
f 81/81/136 87/87/136 88/88/136
f 71/71/137 79/79/137 78/78/137
f 81/81/138 88/88/138 89/89/138
f 71/71/139 80/80/139 79/79/139
f 81/81/140 89/89/140 90/90/140
f 91/91/141 92/92/141 102/102/141
f 91/91/142 102/102/142 101/101/142
f 92/92/143 93/93/143 103/103/143
f 92/92/144 103/103/144 102/102/144
f 93/93/145 94/94/145 104/104/145
f 93/93/146 104/104/146 103/103/146
f 94/94/147 95/95/147 105/105/147
f 94/94/148 105/105/148 104/104/148
f 95/95/149 96/96/149 106/106/149
f 95/95/149 106/106/149 105/105/149
f 96/96/150 97/97/150 107/107/150
f 96/96/151 107/107/151 106/106/151
f 97/97/152 98/98/152 108/108/152
f 97/97/153 108/108/153 107/107/153
f 98/98/154 99/99/154 109/109/154
f 98/98/155 109/109/155 108/108/155
f 99/99/156 100/100/156 110/110/156
f 99/99/157 110/110/157 109/109/157
f 100/100/158 91/91/158 101/101/158
f 100/100/158 101/101/158 110/110/158
f 91/91/159 92/92/159 93/93/159
f 101/101/160 103/103/160 102/102/160
f 91/91/161 93/93/161 94/94/161
f 101/101/162 104/104/162 103/103/162
f 91/91/163 94/94/163 95/95/163
f 101/101/164 105/105/164 104/104/164
f 91/91/165 95/95/165 96/96/165
f 101/101/166 106/106/166 105/105/166
f 91/91/167 96/96/167 97/97/167
f 101/101/168 107/107/168 106/106/168
f 91/91/169 97/97/169 98/98/169
f 101/101/170 108/108/170 107/107/170
f 91/91/171 98/98/171 99/99/171
f 101/101/172 109/109/172 108/108/172
f 91/91/173 99/99/173 100/100/173
f 101/101/174 110/110/174 109/109/174
g plumage_hood
f 111/111/175 120/120/175 112/112/175
f 111/111/175 119/119/175 120/120/175
f 112/112/176 121/121/176 113/113/176
f 112/112/176 120/120/176 121/121/176
f 113/113/177 122/122/177 114/114/177
f 113/113/177 121/121/177 122/122/177
f 114/114/178 123/123/178 115/115/178
f 114/114/178 122/122/178 123/123/178
f 115/115/179 124/124/179 116/116/179
f 115/115/179 123/123/179 124/124/179
f 116/116/180 125/125/180 117/117/180
f 116/116/180 124/124/180 125/125/180
f 117/117/181 126/126/181 118/118/181
f 117/117/181 125/125/181 126/126/181
f 118/118/182 119/119/182 111/111/182
f 118/118/182 126/126/182 119/119/182
f 119/119/183 128/128/183 120/120/183
f 119/119/183 127/127/183 128/128/183
f 120/120/184 129/129/184 121/121/184
f 120/120/184 128/128/184 129/129/184
f 121/121/185 130/130/185 122/122/185
f 121/121/185 129/129/185 130/130/185
f 122/122/186 131/131/186 123/123/186
f 122/122/186 130/130/186 131/131/186
f 123/123/187 132/132/187 124/124/187
f 123/123/187 131/131/187 132/132/187
f 124/124/188 133/133/188 125/125/188
f 124/124/188 132/132/188 133/133/188
f 125/125/189 134/134/189 126/126/189
f 125/125/189 133/133/189 134/134/189
f 126/126/190 127/127/190 119/119/190
f 126/126/190 134/134/190 127/127/190
f 127/127/191 136/136/191 128/128/191
f 127/127/191 135/135/191 136/136/191
f 128/128/192 137/137/192 129/129/192
f 128/128/192 136/136/192 137/137/192
f 129/129/193 138/138/193 130/130/193
f 129/129/193 137/137/193 138/138/193
f 130/130/194 139/139/194 131/131/194
f 130/130/194 138/138/194 139/139/194
f 131/131/195 140/140/195 132/132/195
f 131/131/195 139/139/195 140/140/195
f 132/132/196 141/141/196 133/133/196
f 132/132/196 140/140/196 141/141/196
f 133/133/197 142/142/197 134/134/197
f 133/133/197 141/141/197 142/142/197
f 134/134/198 135/135/198 127/127/198
f 134/134/198 142/142/198 135/135/198
f 135/135/199 144/144/199 136/136/199
f 135/135/199 143/143/199 144/144/199
f 136/136/200 145/145/200 137/137/200
f 136/136/200 144/144/200 145/145/200
f 137/137/201 146/146/201 138/138/201
f 137/137/201 145/145/201 146/146/201
f 138/138/202 147/147/202 139/139/202
f 138/138/202 146/146/202 147/147/202
f 139/139/203 148/148/203 140/140/203
f 139/139/203 147/147/203 148/148/203
f 140/140/204 149/149/204 141/141/204
f 140/140/204 148/148/204 149/149/204
f 141/141/205 150/150/205 142/142/205
f 141/141/205 149/149/205 150/150/205
f 142/142/206 143/143/206 135/135/206
f 142/142/206 150/150/206 143/143/206
f 111/111/97 112/112/97 113/113/97
f 143/143/98 145/145/98 144/144/98
f 111/111/97 113/113/97 114/114/97
f 143/143/98 146/146/98 145/145/98
f 111/111/97 114/114/97 115/115/97
f 143/143/98 147/147/98 146/146/98
f 111/111/97 115/115/97 116/116/97
f 143/143/98 148/148/98 147/147/98
f 111/111/97 116/116/97 117/117/97
f 143/143/98 149/149/98 148/148/98
f 111/111/97 117/117/97 118/118/97
f 143/143/98 150/150/98 149/149/98
f 151/151/207 158/158/207 152/152/207
f 151/151/208 157/157/208 158/158/208
f 152/152/209 159/159/209 153/153/209
f 152/152/209 158/158/209 159/159/209
f 153/153/210 160/160/210 154/154/210
f 153/153/211 159/159/211 160/160/211
f 154/154/212 161/161/212 155/155/212
f 154/154/213 160/160/213 161/161/213
f 155/155/214 162/162/214 156/156/214
f 155/155/214 161/161/214 162/162/214
f 156/156/215 157/157/215 151/151/215
f 156/156/216 162/162/216 157/157/216
f 157/157/217 164/164/217 158/158/217
f 157/157/218 163/163/218 164/164/218
f 158/158/219 165/165/219 159/159/219
f 158/158/219 164/164/219 165/165/219
f 159/159/220 166/166/220 160/160/220
f 159/159/221 165/165/221 166/166/221
f 160/160/222 167/167/222 161/161/222
f 160/160/223 166/166/223 167/167/223
f 161/161/224 168/168/224 162/162/224
f 161/161/224 167/167/224 168/168/224
f 162/162/225 163/163/225 157/157/225
f 162/162/226 168/168/226 163/163/226
f 151/151/97 152/152/97 153/153/97
f 163/163/98 165/165/98 164/164/98
f 151/151/97 153/153/97 154/154/97
f 163/163/98 166/166/98 165/165/98
f 151/151/97 154/154/97 155/155/97
f 163/163/98 167/167/98 166/166/98
f 151/151/97 155/155/97 156/156/97
f 163/163/98 168/168/98 167/167/98
