# Unreal legacy OBJ adapter: canonical vertices are centimetres in the bird frame (+X forward, +Y right, +Z up, origin at the body centre); this file is written with Y reflected and triangle winding reversed. One object, exactly two g groups (plumage_main, plumage_hood), so the importer creates exactly two material slots.
# Hooded crow (Corvus cornix), pose down_stroke
# wingspan 98.0 cm, body length 46.0 cm; Collins Bird Guide 2nd ed., Corvus cornix: length 45-47 cm, wingspan 93-104 cm. Mid-points used: 46 cm and 98 cm.
# AUTHORED low-poly silhouette in those published proportions. Not a scan, not photogrammetry, not a claim about an individual bird.
o SM_BirdsV1_HoodedCrow_DownStroke
s off
v -13.8080 -0.4970 -0.0220
v -13.8220 -0.3510 0.3880
v -13.8280 -0.0000 0.5570
v -13.8220 0.3510 0.3880
v -13.8080 0.4970 -0.0220
v -13.7930 0.3510 -0.4310
v -13.7870 0.0000 -0.6010
v -13.7930 -0.3510 -0.4310
v -9.2140 -4.3060 0.2310
v -9.3450 -3.0450 3.9850
v -9.3990 -0.0000 5.5400
v -9.3450 3.0450 3.9850
v -9.2140 4.3060 0.2310
v -9.0830 3.0450 -3.5240
v -9.0280 0.0000 -5.0790
v -9.0830 -3.0450 -3.5240
v -2.7810 -7.4520 0.5470
v -3.0050 -5.2690 6.9640
v -3.0980 -0.0000 9.6220
v -3.0050 5.2690 6.9640
v -2.7810 7.4520 0.5470
v -2.5570 5.2690 -5.8700
v -2.4640 0.0000 -8.5280
v -2.5570 -5.2690 -5.8700
v 3.6620 -8.2800 0.5880
v 3.4230 -5.8550 7.4150
v 3.3250 -0.0000 10.2420
v 3.4230 5.8550 7.4150
v 3.6620 8.2800 0.5880
v 3.9000 5.8550 -6.2380
v 3.9990 0.0000 -9.0660
v 3.9000 -5.8550 -6.2380
v 9.1880 -7.1210 0.5050
v 8.9730 -5.0350 6.6490
v 8.8850 -0.0000 9.1940
v 8.9730 5.0350 6.6490
v 9.1880 7.1210 0.5050
v 9.4030 5.0350 -5.6390
v 9.4910 0.0000 -8.1840
v 9.4030 -5.0350 -5.6390
v 13.7950 -4.8020 0.3900
v 13.6420 -3.3960 4.7590
v 13.5790 -0.0000 6.5680
v 13.6420 3.3960 4.7590
v 13.7950 4.8020 0.3900
v 13.9470 3.3960 -3.9790
v 14.0110 0.0000 -5.7890
v 13.9470 -3.3960 -3.9790
v 16.5600 -1.6560 0.3020
v 16.5020 -1.1710 1.9400
v 16.4790 -0.0000 2.6190
v 16.5020 1.1710 1.9400
v 16.5600 1.6560 0.3020
v 16.6170 1.1710 -1.3360
v 16.6400 0.0000 -2.0150
v 16.6170 -1.1710 -1.3360
v -11.0410 -2.4840 -0.1550
v -17.1560 -7.6180 -0.3690
v -28.5110 -5.9620 -0.7650
v -29.0350 -0.0000 -0.7840
v -28.5110 5.9620 -0.7650
v -17.1560 7.6180 -0.3690
v -11.0410 2.4840 -0.1550
v -11.0570 -2.4840 0.3040
v -17.1720 -7.6180 0.0910
v -28.5270 -5.9620 -0.3060
v -29.0510 -0.0000 -0.3240
v -28.5270 5.9620 -0.3060
v -17.1720 7.6180 0.0910
v -11.0570 2.4840 0.3040
v 15.8270 -5.4720 4.2430
v 17.5320 -14.0950 -5.8040
v 15.7280 -22.1070 -14.5690
v 11.5250 -28.2210 -20.3550
v 5.7080 -33.5920 -24.5500
v 2.1180 -34.4020 -24.5940
v -3.7850 -31.3800 -20.8330
v -5.9670 -26.0260 -15.7870
v -6.0480 -17.4530 -8.0040
v -2.3180 -7.2510 1.7660
v 15.8120 -5.9350 4.6900
v 17.5560 -14.5530 -5.3530
v 15.7840 -22.5600 -14.1150
v 11.6040 -28.6700 -19.9000
v 5.8030 -34.0370 -24.0940
v 2.2130 -34.8470 -24.1380
v -3.7070 -31.8280 -20.3780
v -5.9110 -26.4790 -15.3330
v -6.0250 -17.9120 -7.5530
v -2.3340 -7.7140 2.2130
v 15.8270 5.4720 4.2430
v 17.5320 14.0950 -5.8040
v 15.7280 22.1070 -14.5690
v 11.5250 28.2210 -20.3550
v 5.7080 33.5920 -24.5500
v 2.1180 34.4020 -24.5940
v -3.7850 31.3800 -20.8330
v -5.9670 26.0260 -15.7870
v -6.0480 17.4530 -8.0040
v -2.3180 7.2510 1.7660
v 15.8120 5.9350 4.6900
v 17.5560 14.5530 -5.3530
v 15.7840 22.5600 -14.1150
v 11.6040 28.6700 -19.9000
v 5.8030 34.0370 -24.0940
v 2.2130 34.8470 -24.1380
v -3.7070 31.8280 -20.3780
v -5.9110 26.4790 -15.3330
v -6.0250 17.9120 -7.5530
v -2.3340 7.7140 2.2130
v 9.8820 -0.4660 1.7260
v 9.8690 -0.3290 2.0830
v 9.8640 -0.0000 2.2320
v 9.8690 0.3290 2.0830
v 9.8820 0.4660 1.7260
v 9.8940 0.3290 1.3680
v 9.8990 0.0000 1.2200
v 9.8940 -0.3290 1.3680
v 11.9050 -3.0720 1.7970
v 11.8220 -2.1730 4.1570
v 11.7880 -0.0000 5.1340
v 11.8220 2.1730 4.1570
v 11.9050 3.0720 1.7970
v 11.9870 2.1730 -0.5630
v 12.0210 0.0000 -1.5410
v 11.9870 -2.1730 -0.5630
v 14.6860 -4.6550 1.8940
v 14.5610 -3.2920 5.4690
v 14.5090 -0.0000 6.9510
v 14.5610 3.2920 5.4690
v 14.6860 4.6550 1.8940
v 14.8110 3.2920 -1.6820
v 14.8620 0.0000 -3.1630
v 14.8110 -3.2920 -1.6820
v 17.4670 -3.3520 1.9910
v 17.3770 -2.3700 4.5650
v 17.3400 -0.0000 5.6320
v 17.3770 2.3700 4.5650
v 17.4670 3.3520 1.9910
v 17.5570 2.3700 -0.5840
v 17.5940 0.0000 -1.6500
v 17.5570 -2.3700 -0.5840
v 19.4900 -0.8380 2.0610
v 19.4670 -0.5930 2.7050
v 19.4580 -0.0000 2.9720
v 19.4670 0.5930 2.7050
v 19.4900 0.8380 2.0610
v 19.5120 0.5930 1.4180
v 19.5220 0.0000 1.1510
v 19.5120 -0.5930 1.4180
v 18.7380 -1.6100 1.8510
v 18.6890 -0.8050 3.2450
v 18.6890 0.8050 3.2450
v 18.7380 1.6100 1.8510
v 18.7860 0.8050 0.4580
v 18.7860 -0.8050 0.4580
v 22.0310 -0.9980 1.7820
v 21.9990 -0.4990 2.7020
v 21.9990 0.4990 2.7020
v 22.0310 0.9980 1.7820
v 22.0630 0.4990 0.8620
v 22.0630 -0.4990 0.8620
v 24.7290 -0.1610 1.6460
v 24.7240 -0.0810 1.7850
v 24.7240 0.0800 1.7850
v 24.7290 0.1610 1.6460
v 24.7330 0.0810 1.5070
v 24.7330 -0.0810 1.5070
vt 0.43096 0.49989
vt 0.43089 0.50194
vt 0.43086 0.50279
vt 0.43089 0.50194
vt 0.43096 0.49989
vt 0.43104 0.49784
vt 0.43106 0.49700
vt 0.43104 0.49784
vt 0.45393 0.50116
vt 0.45327 0.51992
vt 0.45300 0.52770
vt 0.45327 0.51992
vt 0.45393 0.50116
vt 0.45459 0.48238
vt 0.45486 0.47460
vt 0.45459 0.48238
vt 0.48609 0.50274
vt 0.48497 0.53482
vt 0.48451 0.54811
vt 0.48497 0.53482
vt 0.48609 0.50274
vt 0.48722 0.47065
vt 0.48768 0.45736
vt 0.48722 0.47065
vt 0.51831 0.50294
vt 0.51711 0.53707
vt 0.51663 0.55121
vt 0.51711 0.53707
vt 0.51831 0.50294
vt 0.51950 0.46881
vt 0.51999 0.45467
vt 0.51950 0.46881
vt 0.54594 0.50252
vt 0.54487 0.53324
vt 0.54443 0.54597
vt 0.54487 0.53324
vt 0.54594 0.50252
vt 0.54702 0.47180
vt 0.54746 0.45908
vt 0.54702 0.47180
vt 0.56898 0.50195
vt 0.56821 0.52380
vt 0.56790 0.53284
vt 0.56821 0.52380
vt 0.56898 0.50195
vt 0.56973 0.48011
vt 0.57005 0.47106
vt 0.56973 0.48011
vt 0.58280 0.50151
vt 0.58251 0.50970
vt 0.58239 0.51309
vt 0.58251 0.50970
vt 0.58280 0.50151
vt 0.58308 0.49332
vt 0.58320 0.48992
vt 0.58308 0.49332
vt 0.44479 0.49922
vt 0.41422 0.49816
vt 0.35745 0.49617
vt 0.35483 0.49608
vt 0.35745 0.49617
vt 0.41422 0.49816
vt 0.44479 0.49922
vt 0.44471 0.50152
vt 0.41414 0.50045
vt 0.35736 0.49847
vt 0.35474 0.49838
vt 0.35736 0.49847
vt 0.41414 0.50045
vt 0.44471 0.50152
vt 0.57913 0.52121
vt 0.58766 0.47098
vt 0.57864 0.42716
vt 0.55763 0.39822
vt 0.52854 0.37725
vt 0.51059 0.37703
vt 0.48107 0.39583
vt 0.47016 0.42107
vt 0.46976 0.45998
vt 0.48841 0.50883
vt 0.57906 0.52345
vt 0.58778 0.47324
vt 0.57892 0.42943
vt 0.55802 0.40050
vt 0.52902 0.37953
vt 0.51106 0.37931
vt 0.48146 0.39811
vt 0.47045 0.42334
vt 0.46987 0.46224
vt 0.48833 0.51106
vt 0.57913 0.52121
vt 0.58766 0.47098
vt 0.57864 0.42716
vt 0.55763 0.39822
vt 0.52854 0.37725
vt 0.51059 0.37703
vt 0.48107 0.39583
vt 0.47016 0.42107
vt 0.46976 0.45998
vt 0.48841 0.50883
vt 0.57906 0.52345
vt 0.58778 0.47324
vt 0.57892 0.42943
vt 0.55802 0.40050
vt 0.52902 0.37953
vt 0.51106 0.37931
vt 0.48146 0.39811
vt 0.47045 0.42334
vt 0.46987 0.46224
vt 0.48833 0.51106
vt 0.54941 0.50863
vt 0.54934 0.51041
vt 0.54932 0.51116
vt 0.54934 0.51041
vt 0.54941 0.50863
vt 0.54947 0.50684
vt 0.54949 0.50610
vt 0.54947 0.50684
vt 0.55953 0.50899
vt 0.55911 0.52079
vt 0.55894 0.52567
vt 0.55911 0.52079
vt 0.55953 0.50899
vt 0.55993 0.49718
vt 0.56010 0.49229
vt 0.55993 0.49718
vt 0.57343 0.50947
vt 0.57281 0.52734
vt 0.57254 0.53475
vt 0.57281 0.52734
vt 0.57343 0.50947
vt 0.57405 0.49159
vt 0.57431 0.48418
vt 0.57405 0.49159
vt 0.58733 0.50996
vt 0.58688 0.52282
vt 0.58670 0.52816
vt 0.58688 0.52282
vt 0.58733 0.50996
vt 0.58779 0.49708
vt 0.58797 0.49175
vt 0.58779 0.49708
vt 0.59745 0.51031
vt 0.59733 0.51353
vt 0.59729 0.51486
vt 0.59733 0.51353
vt 0.59745 0.51031
vt 0.59756 0.50709
vt 0.59761 0.50575
vt 0.59756 0.50709
vt 0.59369 0.50926
vt 0.59345 0.51623
vt 0.59345 0.51623
vt 0.59369 0.50926
vt 0.59393 0.50229
vt 0.59393 0.50229
vt 0.61016 0.50891
vt 0.60999 0.51351
vt 0.60999 0.51351
vt 0.61016 0.50891
vt 0.61031 0.50431
vt 0.61031 0.50431
vt 0.62365 0.50823
vt 0.62362 0.50892
vt 0.62362 0.50892
vt 0.62365 0.50823
vt 0.62367 0.50753
vt 0.62367 0.50753
vn -0.6343 -0.7352 0.2390
vn -0.6289 -0.7434 0.2277
vn -0.7091 -0.3163 0.6302
vn -0.7042 -0.3329 0.6271
vn -0.7028 0.3190 0.6359
vn -0.7049 0.3326 0.6265
vn -0.6272 0.7405 0.2412
vn -0.6296 0.7428 0.2275
vn -0.6096 0.7400 -0.2842
vn -0.6052 0.7480 -0.2724
vn -0.6488 0.3221 -0.6895
vn -0.6440 0.3389 -0.6859
vn -0.6417 -0.3247 -0.6948
vn -0.6448 -0.3386 -0.6853
vn -0.6023 -0.7454 -0.2858
vn -0.6060 -0.7474 -0.2722
vn -0.4305 -0.8601 0.2738
vn -0.4332 -0.8578 0.2766
vn -0.4979 -0.4015 0.7687
vn -0.5007 -0.3969 0.7693
vn -0.5011 0.4008 0.7670
vn -0.4989 0.3973 0.7702
vn -0.4335 0.8587 0.2733
vn -0.4314 0.8586 0.2770
vn -0.4035 0.8630 -0.3040
vn -0.4059 0.8608 -0.3070
vn -0.4251 0.4057 -0.8091
vn -0.4279 0.4010 -0.8100
vn -0.4284 -0.4050 -0.8078
vn -0.4259 -0.4015 -0.8108
vn -0.4065 -0.8617 -0.3036
vn -0.4041 -0.8616 -0.3072
vn -0.1080 -0.9423 0.3168
vn -0.1225 -0.9366 0.3284
vn -0.0858 -0.4499 0.8889
vn -0.1023 -0.4340 0.8951
vn -0.1031 0.4494 0.8874
vn -0.0866 0.4344 0.8965
vn -0.1229 0.9409 0.3157
vn -0.1085 0.9379 0.3294
vn -0.1038 0.9405 -0.3235
vn -0.1180 0.9344 -0.3361
vn -0.0742 0.4481 -0.8909
vn -0.0904 0.4319 -0.8974
vn -0.0914 -0.4472 -0.8898
vn -0.0748 -0.4326 -0.8985
vn -0.1186 -0.9388 -0.3235
vn -0.1041 -0.9360 -0.3362
vn 0.1827 -0.9244 0.3348
vn 0.1990 -0.9258 0.3212
vn 0.1676 -0.4264 0.8888
vn 0.1862 -0.4406 0.8782
vn 0.1850 0.4249 0.8862
vn 0.1662 0.4425 0.8812
vn 0.1983 0.9214 0.3343
vn 0.1816 0.9292 0.3218
vn 0.1738 0.9299 -0.3243
vn 0.1907 0.9315 -0.3096
vn 0.1430 0.4324 -0.8903
vn 0.1625 0.4474 -0.8795
vn 0.1610 -0.4314 -0.8877
vn 0.1417 -0.4485 -0.8825
vn 0.1896 -0.9273 -0.3228
vn 0.1731 -0.9345 -0.3112
vn 0.4230 -0.8535 0.3045
vn 0.4361 -0.8521 0.2896
vn 0.4480 -0.3970 0.8011
vn 0.4623 -0.4103 0.7861
vn 0.4604 0.3939 0.7955
vn 0.4441 0.4149 0.7941
vn 0.4344 0.8482 0.3031
vn 0.4198 0.8596 0.2914
vn 0.4145 0.8661 -0.2795
vn 0.4284 0.8644 -0.2633
vn 0.4262 0.4140 -0.8043
vn 0.4422 0.4282 -0.7881
vn 0.4399 -0.4113 -0.7984
vn 0.4222 -0.4324 -0.7967
vn 0.4263 -0.8610 -0.2774
vn 0.4116 -0.8716 -0.2662
vn 0.7295 -0.6432 0.2326
vn 0.7365 -0.6412 0.2155
vn 0.7720 -0.2877 0.5668
vn 0.7780 -0.3032 0.5503
vn 0.7761 0.2853 0.5624
vn 0.7662 0.3105 0.5626
vn 0.7340 0.6386 0.2312
vn 0.7243 0.6539 0.2189
vn 0.7311 0.6565 -0.1858
vn 0.7382 0.6534 -0.1676
vn 0.7814 0.3047 -0.5445
vn 0.7879 0.3207 -0.5258
vn 0.7859 -0.3021 -0.5395
vn 0.7749 -0.3286 -0.5400
vn 0.7358 -0.6517 -0.1841
vn 0.7256 -0.6663 -0.1719
vn -0.9994 -0.0000 -0.0349
vn 0.9994 0.0000 0.0349
vn 0.6424 -0.7660 0.0224
vn -0.1441 -0.9895 -0.0050
vn -0.9955 -0.0876 -0.0348
vn -0.9955 0.0876 -0.0348
vn -0.1441 0.9895 -0.0050
vn 0.6424 0.7660 0.0224
vn -0.0349 -0.0000 0.9994
vn 0.0349 0.0000 -0.9994
vn 0.9908 0.1169 0.0678
vn 0.9913 0.0726 0.1098
vn 0.9855 -0.0421 -0.1644
vn 0.9886 -0.0773 -0.1292
vn 0.8884 -0.2408 -0.3908
vn 0.8919 -0.2598 -0.3701
vn 0.7476 -0.3901 -0.5374
vn 0.7506 -0.4010 -0.5251
vn 0.1639 -0.6879 -0.7070
vn -0.6241 -0.6073 -0.4916
vn -0.6207 -0.6213 -0.4783
vn -0.9559 -0.2584 -0.1393
vn -0.9520 -0.2834 -0.1155
vn -0.9993 -0.0291 0.0217
vn -0.9961 -0.0659 0.0579
vn -0.9668 0.1936 0.1669
vn -0.9666 0.1533 0.2053
vn -0.1639 0.6879 0.7070
vn 0.1108 -0.7448 0.6580
vn -0.1102 0.7447 -0.6582
vn 0.1764 -0.7378 0.6515
vn -0.1760 0.7376 -0.6519
vn 0.2158 -0.7354 0.6424
vn -0.2154 0.7351 -0.6428
vn 0.1574 -0.7336 0.6611
vn -0.1574 0.7334 -0.6613
vn 0.0704 -0.7207 0.6896
vn -0.0705 0.7208 -0.6896
vn -0.0158 -0.6892 0.7244
vn 0.0156 0.6894 -0.7242
vn -0.0461 -0.6717 0.7394
vn 0.0459 0.6719 -0.7392
vn -0.0322 -0.6851 0.7277
vn 0.0322 0.6852 -0.7276
vn 0.9908 -0.1169 0.0678
vn 0.9913 -0.0726 0.1098
vn 0.9855 0.0421 -0.1644
vn 0.9886 0.0773 -0.1292
vn 0.8884 0.2408 -0.3908
vn 0.8919 0.2598 -0.3701
vn 0.7476 0.3901 -0.5374
vn 0.7506 0.4010 -0.5251
vn 0.1639 0.6879 -0.7070
vn -0.6241 0.6073 -0.4916
vn -0.6207 0.6213 -0.4783
vn -0.9559 0.2584 -0.1393
vn -0.9520 0.2834 -0.1155
vn -0.9993 0.0291 0.0217
vn -0.9961 0.0659 0.0579
vn -0.9668 -0.1936 0.1669
vn -0.9666 -0.1533 0.2053
vn -0.1639 -0.6879 0.7070
vn 0.1108 0.7448 0.6580
vn -0.1102 -0.7447 -0.6582
vn 0.1764 0.7378 0.6515
vn -0.1760 -0.7376 -0.6519
vn 0.2158 0.7354 0.6424
vn -0.2154 -0.7351 -0.6428
vn 0.1574 0.7336 0.6611
vn -0.1574 -0.7334 -0.6613
vn 0.0704 0.7207 0.6896
vn -0.0705 -0.7208 -0.6896
vn -0.0158 0.6892 0.7244
vn 0.0156 -0.6894 -0.7242
vn -0.0461 0.6717 0.7394
vn 0.0459 -0.6719 -0.7392
vn -0.0322 0.6851 0.7277
vn 0.0322 -0.6852 -0.7276
vn -0.7766 -0.5972 0.2006
vn -0.8064 -0.2532 0.5345
vn -0.8064 0.2532 0.5345
vn -0.7766 0.5972 0.2006
vn -0.7607 0.5972 -0.2543
vn -0.7671 0.2532 -0.5894
vn -0.7671 -0.2532 -0.5894
vn -0.7607 -0.5972 -0.2543
vn -0.4800 -0.8252 0.2979
vn -0.5185 -0.3576 0.7767
vn -0.5185 0.3576 0.7767
vn -0.4800 0.8252 0.2979
vn -0.4580 0.8252 -0.3306
vn -0.4630 0.3576 -0.8110
vn -0.4630 -0.3576 -0.8110
vn -0.4580 -0.8252 -0.3306
vn 0.3893 -0.8561 0.3400
vn 0.3919 -0.3724 0.8413
vn 0.3919 0.3724 0.8413
vn 0.3893 0.8561 0.3400
vn 0.4121 0.8561 -0.3120
vn 0.4497 0.3724 -0.8119
vn 0.4497 -0.3724 -0.8119
vn 0.4121 -0.8561 -0.3120
vn 0.7490 -0.6100 0.2587
vn 0.7556 -0.2589 0.6017
vn 0.7556 0.2589 0.6017
vn 0.7490 0.6100 0.2587
vn 0.7652 0.6100 -0.2059
vn 0.7958 0.2589 -0.5475
vn 0.7958 -0.2589 -0.5475
vn 0.7652 -0.6100 -0.2059
vn 0.1604 -0.8522 0.4979
vn 0.1704 -0.8636 0.4746
vn 0.1619 -0.0000 0.9868
vn 0.1685 0.8510 0.4975
vn 0.1579 0.8656 0.4752
vn 0.1409 0.8594 -0.4915
vn 0.1520 0.8709 -0.4673
vn 0.1226 0.0000 -0.9925
vn 0.1492 -0.8585 -0.4907
vn 0.1393 -0.8724 -0.4686
vn 0.2851 -0.8382 0.4649
vn 0.2811 -0.8267 0.4874
vn 0.3188 -0.0000 0.9478
vn 0.2837 0.8386 0.4650
vn 0.2902 0.8242 0.4863
vn 0.2442 0.8559 -0.4559
vn 0.2380 0.8446 -0.4796
vn 0.2346 0.0000 -0.9721
vn 0.2427 -0.8562 -0.4562
vn 0.2475 -0.8427 -0.4782
g plumage_main
f 1/1/1 10/10/1 2/2/1
f 1/1/2 9/9/2 10/10/2
f 2/2/3 11/11/3 3/3/3
f 2/2/4 10/10/4 11/11/4
f 3/3/5 12/12/5 4/4/5
f 3/3/6 11/11/6 12/12/6
f 4/4/7 13/13/7 5/5/7
f 4/4/8 12/12/8 13/13/8
f 5/5/9 14/14/9 6/6/9
f 5/5/10 13/13/10 14/14/10
f 6/6/11 15/15/11 7/7/11
f 6/6/12 14/14/12 15/15/12
f 7/7/13 16/16/13 8/8/13
f 7/7/14 15/15/14 16/16/14
f 8/8/15 9/9/15 1/1/15
f 8/8/16 16/16/16 9/9/16
f 9/9/17 18/18/17 10/10/17
f 9/9/18 17/17/18 18/18/18
f 10/10/19 19/19/19 11/11/19
f 10/10/20 18/18/20 19/19/20
f 11/11/21 20/20/21 12/12/21
f 11/11/22 19/19/22 20/20/22
f 12/12/23 21/21/23 13/13/23
f 12/12/24 20/20/24 21/21/24
f 13/13/25 22/22/25 14/14/25
f 13/13/26 21/21/26 22/22/26
f 14/14/27 23/23/27 15/15/27
f 14/14/28 22/22/28 23/23/28
f 15/15/29 24/24/29 16/16/29
f 15/15/30 23/23/30 24/24/30
f 16/16/31 17/17/31 9/9/31
f 16/16/32 24/24/32 17/17/32
f 17/17/33 26/26/33 18/18/33
f 17/17/34 25/25/34 26/26/34
f 18/18/35 27/27/35 19/19/35
f 18/18/36 26/26/36 27/27/36
f 19/19/37 28/28/37 20/20/37
f 19/19/38 27/27/38 28/28/38
f 20/20/39 29/29/39 21/21/39
f 20/20/40 28/28/40 29/29/40
f 21/21/41 30/30/41 22/22/41
f 21/21/42 29/29/42 30/30/42
f 22/22/43 31/31/43 23/23/43
f 22/22/44 30/30/44 31/31/44
f 23/23/45 32/32/45 24/24/45
f 23/23/46 31/31/46 32/32/46
f 24/24/47 25/25/47 17/17/47
f 24/24/48 32/32/48 25/25/48
f 25/25/49 34/34/49 26/26/49
f 25/25/50 33/33/50 34/34/50
f 26/26/51 35/35/51 27/27/51
f 26/26/52 34/34/52 35/35/52
f 27/27/53 36/36/53 28/28/53
f 27/27/54 35/35/54 36/36/54
f 28/28/55 37/37/55 29/29/55
f 28/28/56 36/36/56 37/37/56
f 29/29/57 38/38/57 30/30/57
f 29/29/58 37/37/58 38/38/58
f 30/30/59 39/39/59 31/31/59
f 30/30/60 38/38/60 39/39/60
f 31/31/61 40/40/61 32/32/61
f 31/31/62 39/39/62 40/40/62
f 32/32/63 33/33/63 25/25/63
f 32/32/64 40/40/64 33/33/64
f 33/33/65 42/42/65 34/34/65
f 33/33/66 41/41/66 42/42/66
f 34/34/67 43/43/67 35/35/67
f 34/34/68 42/42/68 43/43/68
f 35/35/69 44/44/69 36/36/69
f 35/35/70 43/43/70 44/44/70
f 36/36/71 45/45/71 37/37/71
f 36/36/72 44/44/72 45/45/72
f 37/37/73 46/46/73 38/38/73
f 37/37/74 45/45/74 46/46/74
f 38/38/75 47/47/75 39/39/75
f 38/38/76 46/46/76 47/47/76
f 39/39/77 48/48/77 40/40/77
f 39/39/78 47/47/78 48/48/78
f 40/40/79 41/41/79 33/33/79
f 40/40/80 48/48/80 41/41/80
f 41/41/81 50/50/81 42/42/81
f 41/41/82 49/49/82 50/50/82
f 42/42/83 51/51/83 43/43/83
f 42/42/84 50/50/84 51/51/84
f 43/43/85 52/52/85 44/44/85
f 43/43/86 51/51/86 52/52/86
f 44/44/87 53/53/87 45/45/87
f 44/44/88 52/52/88 53/53/88
f 45/45/89 54/54/89 46/46/89
f 45/45/90 53/53/90 54/54/90
f 46/46/91 55/55/91 47/47/91
f 46/46/92 54/54/92 55/55/92
f 47/47/93 56/56/93 48/48/93
f 47/47/94 55/55/94 56/56/94
f 48/48/95 49/49/95 41/41/95
f 48/48/96 56/56/96 49/49/96
f 1/1/97 2/2/97 3/3/97
f 49/49/98 51/51/98 50/50/98
f 1/1/97 3/3/97 4/4/97
f 49/49/98 52/52/98 51/51/98
f 1/1/97 4/4/97 5/5/97
f 49/49/98 53/53/98 52/52/98
f 1/1/97 5/5/97 6/6/97
f 49/49/98 54/54/98 53/53/98
f 1/1/97 6/6/97 7/7/97
f 49/49/98 55/55/98 54/54/98
f 1/1/97 7/7/97 8/8/97
f 49/49/98 56/56/98 55/55/98
f 57/57/99 65/65/99 58/58/99
f 57/57/99 64/64/99 65/65/99
f 58/58/100 66/66/100 59/59/100
f 58/58/100 65/65/100 66/66/100
f 59/59/101 67/67/101 60/60/101
f 59/59/101 66/66/101 67/67/101
f 60/60/102 68/68/102 61/61/102
f 60/60/102 67/67/102 68/68/102
f 61/61/103 69/69/103 62/62/103
f 61/61/103 68/68/103 69/69/103
f 62/62/104 70/70/104 63/63/104
f 62/62/104 69/69/104 70/70/104
f 63/63/98 64/64/98 57/57/98
f 63/63/98 70/70/98 64/64/98
f 57/57/105 59/59/105 58/58/105
f 64/64/106 65/65/106 66/66/106
f 57/57/105 60/60/105 59/59/105
f 64/64/106 66/66/106 67/67/106
f 57/57/105 61/61/105 60/60/105
f 64/64/106 67/67/106 68/68/106
f 57/57/105 62/62/105 61/61/105
f 64/64/106 68/68/106 69/69/106
f 57/57/105 63/63/105 62/62/105
f 64/64/106 69/69/106 70/70/106
f 71/71/107 82/82/107 72/72/107
f 71/71/108 81/81/108 82/82/108
f 72/72/109 83/83/109 73/73/109
f 72/72/110 82/82/110 83/83/110
f 73/73/111 84/84/111 74/74/111
f 73/73/112 83/83/112 84/84/112
f 74/74/113 85/85/113 75/75/113
f 74/74/114 84/84/114 85/85/114
f 75/75/115 86/86/115 76/76/115
f 75/75/115 85/85/115 86/86/115
f 76/76/116 87/87/116 77/77/116
f 76/76/117 86/86/117 87/87/117
f 77/77/118 88/88/118 78/78/118
f 77/77/119 87/87/119 88/88/119
f 78/78/120 89/89/120 79/79/120
f 78/78/121 88/88/121 89/89/121
f 79/79/122 90/90/122 80/80/122
f 79/79/123 89/89/123 90/90/123
f 80/80/124 81/81/124 71/71/124
f 80/80/124 90/90/124 81/81/124
f 71/71/125 73/73/125 72/72/125
f 81/81/126 82/82/126 83/83/126
f 71/71/127 74/74/127 73/73/127
f 81/81/128 83/83/128 84/84/128
f 71/71/129 75/75/129 74/74/129
f 81/81/130 84/84/130 85/85/130
f 71/71/131 76/76/131 75/75/131
f 81/81/132 85/85/132 86/86/132
f 71/71/133 77/77/133 76/76/133
f 81/81/134 86/86/134 87/87/134
f 71/71/135 78/78/135 77/77/135
f 81/81/136 87/87/136 88/88/136
f 71/71/137 79/79/137 78/78/137
f 81/81/138 88/88/138 89/89/138
f 71/71/139 80/80/139 79/79/139
f 81/81/140 89/89/140 90/90/140
f 91/91/141 92/92/141 102/102/141
f 91/91/142 102/102/142 101/101/142
f 92/92/143 93/93/143 103/103/143
f 92/92/144 103/103/144 102/102/144
f 93/93/145 94/94/145 104/104/145
f 93/93/146 104/104/146 103/103/146
f 94/94/147 95/95/147 105/105/147
f 94/94/148 105/105/148 104/104/148
f 95/95/149 96/96/149 106/106/149
f 95/95/149 106/106/149 105/105/149
f 96/96/150 97/97/150 107/107/150
f 96/96/151 107/107/151 106/106/151
f 97/97/152 98/98/152 108/108/152
f 97/97/153 108/108/153 107/107/153
f 98/98/154 99/99/154 109/109/154
f 98/98/155 109/109/155 108/108/155
f 99/99/156 100/100/156 110/110/156
f 99/99/157 110/110/157 109/109/157
f 100/100/158 91/91/158 101/101/158
f 100/100/158 101/101/158 110/110/158
f 91/91/159 92/92/159 93/93/159
f 101/101/160 103/103/160 102/102/160
f 91/91/161 93/93/161 94/94/161
f 101/101/162 104/104/162 103/103/162
f 91/91/163 94/94/163 95/95/163
f 101/101/164 105/105/164 104/104/164
f 91/91/165 95/95/165 96/96/165
f 101/101/166 106/106/166 105/105/166
f 91/91/167 96/96/167 97/97/167
f 101/101/168 107/107/168 106/106/168
f 91/91/169 97/97/169 98/98/169
f 101/101/170 108/108/170 107/107/170
f 91/91/171 98/98/171 99/99/171
f 101/101/172 109/109/172 108/108/172
f 91/91/173 99/99/173 100/100/173
f 101/101/174 110/110/174 109/109/174
g plumage_hood
f 111/111/175 120/120/175 112/112/175
f 111/111/175 119/119/175 120/120/175
f 112/112/176 121/121/176 113/113/176
f 112/112/176 120/120/176 121/121/176
f 113/113/177 122/122/177 114/114/177
f 113/113/177 121/121/177 122/122/177
f 114/114/178 123/123/178 115/115/178
f 114/114/178 122/122/178 123/123/178
f 115/115/179 124/124/179 116/116/179
f 115/115/179 123/123/179 124/124/179
f 116/116/180 125/125/180 117/117/180
f 116/116/180 124/124/180 125/125/180
f 117/117/181 126/126/181 118/118/181
f 117/117/181 125/125/181 126/126/181
f 118/118/182 119/119/182 111/111/182
f 118/118/182 126/126/182 119/119/182
f 119/119/183 128/128/183 120/120/183
f 119/119/183 127/127/183 128/128/183
f 120/120/184 129/129/184 121/121/184
f 120/120/184 128/128/184 129/129/184
f 121/121/185 130/130/185 122/122/185
f 121/121/185 129/129/185 130/130/185
f 122/122/186 131/131/186 123/123/186
f 122/122/186 130/130/186 131/131/186
f 123/123/187 132/132/187 124/124/187
f 123/123/187 131/131/187 132/132/187
f 124/124/188 133/133/188 125/125/188
f 124/124/188 132/132/188 133/133/188
f 125/125/189 134/134/189 126/126/189
f 125/125/189 133/133/189 134/134/189
f 126/126/190 127/127/190 119/119/190
f 126/126/190 134/134/190 127/127/190
f 127/127/191 136/136/191 128/128/191
f 127/127/191 135/135/191 136/136/191
f 128/128/192 137/137/192 129/129/192
f 128/128/192 136/136/192 137/137/192
f 129/129/193 138/138/193 130/130/193
f 129/129/193 137/137/193 138/138/193
f 130/130/194 139/139/194 131/131/194
f 130/130/194 138/138/194 139/139/194
f 131/131/195 140/140/195 132/132/195
f 131/131/195 139/139/195 140/140/195
f 132/132/196 141/141/196 133/133/196
f 132/132/196 140/140/196 141/141/196
f 133/133/197 142/142/197 134/134/197
f 133/133/197 141/141/197 142/142/197
f 134/134/198 135/135/198 127/127/198
f 134/134/198 142/142/198 135/135/198
f 135/135/199 144/144/199 136/136/199
f 135/135/199 143/143/199 144/144/199
f 136/136/200 145/145/200 137/137/200
f 136/136/200 144/144/200 145/145/200
f 137/137/201 146/146/201 138/138/201
f 137/137/201 145/145/201 146/146/201
f 138/138/202 147/147/202 139/139/202
f 138/138/202 146/146/202 147/147/202
f 139/139/203 148/148/203 140/140/203
f 139/139/203 147/147/203 148/148/203
f 140/140/204 149/149/204 141/141/204
f 140/140/204 148/148/204 149/149/204
f 141/141/205 150/150/205 142/142/205
f 141/141/205 149/149/205 150/150/205
f 142/142/206 143/143/206 135/135/206
f 142/142/206 150/150/206 143/143/206
f 111/111/97 112/112/97 113/113/97
f 143/143/98 145/145/98 144/144/98
f 111/111/97 113/113/97 114/114/97
f 143/143/98 146/146/98 145/145/98
f 111/111/97 114/114/97 115/115/97
f 143/143/98 147/147/98 146/146/98
f 111/111/97 115/115/97 116/116/97
f 143/143/98 148/148/98 147/147/98
f 111/111/97 116/116/97 117/117/97
f 143/143/98 149/149/98 148/148/98
f 111/111/97 117/117/97 118/118/97
f 143/143/98 150/150/98 149/149/98
f 151/151/207 158/158/207 152/152/207
f 151/151/208 157/157/208 158/158/208
f 152/152/209 159/159/209 153/153/209
f 152/152/209 158/158/209 159/159/209
f 153/153/210 160/160/210 154/154/210
f 153/153/211 159/159/211 160/160/211
f 154/154/212 161/161/212 155/155/212
f 154/154/213 160/160/213 161/161/213
f 155/155/214 162/162/214 156/156/214
f 155/155/214 161/161/214 162/162/214
f 156/156/215 157/157/215 151/151/215
f 156/156/216 162/162/216 157/157/216
f 157/157/217 164/164/217 158/158/217
f 157/157/218 163/163/218 164/164/218
f 158/158/219 165/165/219 159/159/219
f 158/158/219 164/164/219 165/165/219
f 159/159/220 166/166/220 160/160/220
f 159/159/221 165/165/221 166/166/221
f 160/160/222 167/167/222 161/161/222
f 160/160/223 166/166/223 167/167/223
f 161/161/224 168/168/224 162/162/224
f 161/161/224 167/167/224 168/168/224
f 162/162/225 163/163/225 157/157/225
f 162/162/226 168/168/226 163/163/226
f 151/151/97 152/152/97 153/153/97
f 163/163/98 165/165/98 164/164/98
f 151/151/97 153/153/97 154/154/97
f 163/163/98 166/166/98 165/165/98
f 151/151/97 154/154/97 155/155/97
f 163/163/98 167/167/98 166/166/98
f 151/151/97 155/155/97 156/156/97
f 163/163/98 168/168/98 167/167/98
