# Unreal legacy OBJ adapter: canonical vertices are centimetres in the bird frame (+X forward, +Y right, +Z up, origin at the body centre); this file is written with Y reflected and triangle winding reversed. One object, exactly two g groups (plumage_main, plumage_hood), so the importer creates exactly two material slots.
# Griffon vulture (Gyps fulvus), pose down_stroke
# wingspan 260.0 cm, body length 102.0 cm; Collins Bird Guide 2nd ed., Gyps fulvus: length 95-110 cm, wingspan 240-280 cm. Mid-points used: 102 cm and 260 cm.
# AUTHORED low-poly silhouette in those published proportions. Not a scan, not photogrammetry, not a claim about an individual bird.
o SM_BirdsV1_GriffonVulture_DownStroke
s off
v -30.6170 -1.1630 -0.0490
v -30.6500 -0.8220 0.9030
v -30.6640 -0.0000 1.2970
v -30.6500 0.8220 0.9030
v -30.6170 1.1630 -0.0490
v -30.5840 0.8220 -1.0000
v -30.5700 0.0000 -1.3940
v -30.5840 -0.8220 -1.0000
v -20.4300 -10.0780 0.5110
v -20.7350 -7.1260 9.2330
v -20.8610 -0.0000 12.8460
v -20.7350 7.1260 9.2330
v -20.4300 10.0780 0.5110
v -20.1260 7.1260 -8.2100
v -20.0000 0.0000 -11.8230
v -20.1260 -7.1260 -8.2100
v -6.1660 -17.4420 1.2140
v -6.6870 -12.3330 16.1200
v -6.9020 -0.0000 22.2940
v -6.6870 12.3330 16.1200
v -6.1660 17.4420 1.2140
v -5.6460 12.3330 -13.6930
v -5.4300 0.0000 -19.8670
v -5.6460 -12.3330 -13.6930
v 8.1190 -19.3800 1.3040
v 7.5660 -13.7040 17.1620
v 7.3360 -0.0000 23.7300
v 7.5660 13.7040 17.1620
v 8.1190 19.3800 1.3040
v 8.6730 13.7040 -14.5540
v 8.9030 0.0000 -21.1220
v 8.6730 -13.7040 -14.5540
v 20.3730 -16.6670 1.1200
v 19.8750 -11.7850 15.3920
v 19.6690 -0.0000 21.3030
v 19.8750 11.7850 15.3920
v 20.3730 16.6670 1.1200
v 20.8720 11.7850 -13.1520
v 21.0780 0.0000 -19.0640
v 20.8720 -11.7850 -13.1520
v 30.5880 -11.2400 0.8640
v 30.2340 -7.9480 11.0130
v 30.0870 -0.0000 15.2170
v 30.2340 7.9480 11.0130
v 30.5880 11.2400 0.8640
v 30.9430 7.9480 -9.2850
v 31.0900 0.0000 -13.4890
v 30.9430 -7.9480 -9.2850
v 36.7190 -3.8760 0.6700
v 36.5860 -2.7410 4.4760
v 36.5310 -0.0000 6.0520
v 36.5860 2.7410 4.4760
v 36.7190 3.8760 0.6700
v 36.8520 2.7410 -3.1360
v 36.9070 0.0000 -4.7120
v 36.8520 -2.7410 -3.1360
v -24.4470 -5.2020 -1.3640
v -33.7240 -15.9530 -1.6880
v -50.9510 -12.4850 -2.2900
v -51.7460 -0.0000 -2.3170
v -50.9510 12.4850 -2.2900
v -33.7240 15.9530 -1.6880
v -24.4470 5.2020 -1.3640
v -24.4830 -5.2020 -0.3450
v -33.7590 -15.9530 -0.6690
v -50.9870 -12.4850 -1.2700
v -51.7820 -0.0000 -1.2980
v -50.9870 12.4850 -1.2700
v -33.7590 15.9530 -0.6690
v -24.4830 5.2020 -0.3450
v 39.1160 -12.6800 10.0280
v 43.9790 -36.1400 -17.0690
v 42.8980 -57.2660 -40.5230
v 34.1750 -73.2560 -56.1590
v 21.7180 -86.9910 -67.5640
v 3.8100 -91.0320 -67.7840
v -11.7560 -82.7310 -57.5910
v -19.2410 -68.4900 -44.0110
v -20.3750 -45.3060 -23.0730
v -9.1670 -17.4130 3.4370
v 39.0870 -13.5600 10.8780
v 44.0230 -37.0120 -16.2110
v 43.0050 -58.1270 -39.6600
v 34.3250 -74.1100 -55.2950
v 21.8990 -87.8370 -66.6980
v 3.9910 -91.8790 -66.9190
v -11.6060 -83.5850 -56.7260
v -19.1330 -69.3520 -43.1480
v -20.3310 -46.1780 -22.2150
v -9.1960 -18.2940 4.2870
v 39.1160 12.6800 10.0280
v 43.9790 36.1400 -17.0690
v 42.8980 57.2660 -40.5230
v 34.1750 73.2560 -56.1590
v 21.7180 86.9910 -67.5640
v 3.8100 91.0320 -67.7840
v -11.7560 82.7310 -57.5910
v -19.2410 68.4900 -44.0110
v -20.3750 45.3060 -23.0730
v -9.1670 17.4130 3.4370
v 39.0870 13.5600 10.8780
v 44.0230 37.0120 -16.2110
v 43.0050 58.1270 -39.6600
v 34.3250 74.1100 -55.2950
v 21.8990 87.8370 -66.6980
v 3.9910 91.8790 -66.9190
v -11.6060 83.5850 -56.7260
v -19.1330 69.3520 -43.1480
v -20.3310 46.1780 -22.2150
v -9.1960 18.2940 4.2870
v 27.2130 -0.7510 4.0120
v 27.1920 -0.5310 4.5890
v 27.1840 -0.0000 4.8280
v 27.1920 0.5310 4.5890
v 27.2130 0.7510 4.0120
v 27.2330 0.5310 3.4360
v 27.2410 0.0000 3.1970
v 27.2330 -0.5310 3.4360
v 30.4750 -4.9550 4.1260
v 30.3420 -3.5040 7.9320
v 30.2870 -0.0000 9.5080
v 30.3420 3.5040 7.9320
v 30.4750 4.9550 4.1260
v 30.6070 3.5040 0.3200
v 30.6630 0.0000 -1.2560
v 30.6070 -3.5040 0.3200
v 34.9600 -7.5070 4.2830
v 34.7580 -5.3080 10.0490
v 34.6750 -0.0000 12.4380
v 34.7580 5.3080 10.0490
v 34.9600 7.5070 4.2830
v 35.1610 5.3080 -1.4840
v 35.2450 0.0000 -3.8720
v 35.1610 -5.3080 -1.4840
v 39.4450 -5.4050 4.4390
v 39.3000 -3.8220 8.5910
v 39.2400 -0.0000 10.3110
v 39.3000 3.8220 8.5910
v 39.4450 5.4050 4.4390
v 39.5900 3.8220 0.2870
v 39.6500 0.0000 -1.4320
v 39.5900 -3.8220 0.2870
v 42.7070 -1.3510 4.5530
v 42.6710 -0.9560 5.5910
v 42.6560 -0.0000 6.0210
v 42.6710 0.9560 5.5910
v 42.7070 1.3510 4.5530
v 42.7430 0.9560 3.5150
v 42.7580 0.0000 3.0850
v 42.7430 -0.9560 3.5150
v 41.4980 -3.8250 4.1030
v 41.3820 -1.9130 7.4130
v 41.3820 1.9120 7.4130
v 41.4980 3.8250 4.1030
v 41.6140 1.9130 0.7920
v 41.6140 -1.9130 0.7920
v 46.2780 -2.3710 3.8610
v 46.2020 -1.1860 6.0460
v 46.2020 1.1860 6.0460
v 46.2780 2.3710 3.8610
v 46.3540 1.1860 1.6760
v 46.3540 -1.1860 1.6760
v 50.1950 -0.3830 3.4880
v 50.1830 -0.1910 3.8190
v 50.1830 0.1910 3.8190
v 50.1950 0.3830 3.4880
v 50.2060 0.1910 3.1570
v 50.2060 -0.1910 3.1570
vt 0.34691 0.49976
vt 0.34675 0.50452
vt 0.34668 0.50648
vt 0.34675 0.50452
vt 0.34691 0.49976
vt 0.34708 0.49500
vt 0.34715 0.49303
vt 0.34708 0.49500
vt 0.39785 0.50255
vt 0.39632 0.54617
vt 0.39570 0.56423
vt 0.39632 0.54617
vt 0.39785 0.50255
vt 0.39937 0.45895
vt 0.40000 0.44088
vt 0.39937 0.45895
vt 0.46917 0.50607
vt 0.46657 0.58060
vt 0.46549 0.61147
vt 0.46657 0.58060
vt 0.46917 0.50607
vt 0.47177 0.43154
vt 0.47285 0.40066
vt 0.47177 0.43154
vt 0.54060 0.50652
vt 0.53783 0.58581
vt 0.53668 0.61865
vt 0.53783 0.58581
vt 0.54060 0.50652
vt 0.54336 0.42723
vt 0.54451 0.39439
vt 0.54336 0.42723
vt 0.60186 0.50560
vt 0.59937 0.57696
vt 0.59835 0.60652
vt 0.59937 0.57696
vt 0.60186 0.50560
vt 0.60436 0.43424
vt 0.60539 0.40468
vt 0.60436 0.43424
vt 0.65294 0.50432
vt 0.65117 0.55507
vt 0.65043 0.57608
vt 0.65117 0.55507
vt 0.65294 0.50432
vt 0.65472 0.45358
vt 0.65545 0.43256
vt 0.65472 0.45358
vt 0.68359 0.50335
vt 0.68293 0.52238
vt 0.68266 0.53026
vt 0.68293 0.52238
vt 0.68359 0.50335
vt 0.68426 0.48432
vt 0.68454 0.47644
vt 0.68426 0.48432
vt 0.37777 0.49318
vt 0.33138 0.49156
vt 0.24524 0.48855
vt 0.24127 0.48841
vt 0.24524 0.48855
vt 0.33138 0.49156
vt 0.37777 0.49318
vt 0.37759 0.49828
vt 0.33120 0.49666
vt 0.24506 0.49365
vt 0.24109 0.49351
vt 0.24506 0.49365
vt 0.33120 0.49666
vt 0.37759 0.49828
vt 0.69558 0.55014
vt 0.71989 0.41465
vt 0.71449 0.29739
vt 0.67087 0.21920
vt 0.60859 0.16218
vt 0.51905 0.16108
vt 0.44122 0.21204
vt 0.40380 0.27994
vt 0.39813 0.38464
vt 0.45416 0.51719
vt 0.69544 0.55439
vt 0.72012 0.41895
vt 0.71503 0.30170
vt 0.67163 0.22352
vt 0.60950 0.16651
vt 0.51995 0.16541
vt 0.44197 0.21637
vt 0.40433 0.28426
vt 0.39835 0.38893
vt 0.45402 0.52143
vt 0.69558 0.55014
vt 0.71989 0.41465
vt 0.71449 0.29739
vt 0.67087 0.21920
vt 0.60859 0.16218
vt 0.51905 0.16108
vt 0.44122 0.21204
vt 0.40380 0.27994
vt 0.39813 0.38464
vt 0.45416 0.51719
vt 0.69544 0.55439
vt 0.72012 0.41895
vt 0.71503 0.30170
vt 0.67163 0.22352
vt 0.60950 0.16651
vt 0.51995 0.16541
vt 0.44197 0.21637
vt 0.40433 0.28426
vt 0.39835 0.38893
vt 0.45402 0.52143
vt 0.63606 0.52006
vt 0.63596 0.52294
vt 0.63592 0.52414
vt 0.63596 0.52294
vt 0.63606 0.52006
vt 0.63616 0.51718
vt 0.63621 0.51599
vt 0.63616 0.51718
vt 0.65238 0.52063
vt 0.65171 0.53966
vt 0.65143 0.54754
vt 0.65171 0.53966
vt 0.65238 0.52063
vt 0.65304 0.50160
vt 0.65331 0.49372
vt 0.65304 0.50160
vt 0.67480 0.52141
vt 0.67379 0.55024
vt 0.67337 0.56219
vt 0.67379 0.55024
vt 0.67480 0.52141
vt 0.67580 0.49258
vt 0.67622 0.48064
vt 0.67580 0.49258
vt 0.69722 0.52219
vt 0.69650 0.54295
vt 0.69620 0.55156
vt 0.69650 0.54295
vt 0.69722 0.52219
vt 0.69795 0.50143
vt 0.69825 0.49284
vt 0.69795 0.50143
vt 0.71354 0.52277
vt 0.71335 0.52795
vt 0.71328 0.53011
vt 0.71335 0.52795
vt 0.71354 0.52277
vt 0.71371 0.51758
vt 0.71379 0.51543
vt 0.71371 0.51758
vt 0.70749 0.52051
vt 0.70691 0.53707
vt 0.70691 0.53707
vt 0.70749 0.52051
vt 0.70807 0.50396
vt 0.70807 0.50396
vt 0.73139 0.51931
vt 0.73101 0.53023
vt 0.73101 0.53023
vt 0.73139 0.51931
vt 0.73177 0.50838
vt 0.73177 0.50838
vt 0.75097 0.51744
vt 0.75091 0.51909
vt 0.75091 0.51909
vt 0.75097 0.51744
vt 0.75103 0.51579
vt 0.75103 0.51579
vn -0.6542 -0.7191 0.2345
vn -0.6488 -0.7274 0.2235
vn -0.7255 -0.3073 0.6158
vn -0.7207 -0.3236 0.6130
vn -0.7193 0.3100 0.6216
vn -0.7215 0.3232 0.6124
vn -0.6472 0.7246 0.2368
vn -0.6496 0.7267 0.2233
vn -0.6301 0.7238 -0.2811
vn -0.6258 0.7320 -0.2696
vn -0.6671 0.3129 -0.6761
vn -0.6624 0.3294 -0.6728
vn -0.6602 -0.3156 -0.6816
vn -0.6632 -0.3291 -0.6722
vn -0.6228 -0.7294 -0.2829
vn -0.6266 -0.7313 -0.2694
vn -0.4490 -0.8510 0.2723
vn -0.4517 -0.8487 0.2751
vn -0.5150 -0.3948 0.7608
vn -0.5178 -0.3902 0.7613
vn -0.5182 0.3940 0.7591
vn -0.5160 0.3907 0.7623
vn -0.4520 0.8496 0.2717
vn -0.4499 0.8495 0.2754
vn -0.4222 0.8541 -0.3038
vn -0.4247 0.8518 -0.3068
vn -0.4432 0.3991 -0.8027
vn -0.4460 0.3944 -0.8034
vn -0.4466 -0.3983 -0.8012
vn -0.4441 -0.3949 -0.8043
vn -0.4253 -0.8527 -0.3034
vn -0.4228 -0.8526 -0.3070
vn -0.1138 -0.9411 0.3185
vn -0.1289 -0.9351 0.3302
vn -0.0898 -0.4471 0.8900
vn -0.1070 -0.4312 0.8959
vn -0.1079 0.4466 0.8882
vn -0.0905 0.4317 0.8975
vn -0.1295 0.9394 0.3174
vn -0.1143 0.9366 0.3313
vn -0.1095 0.9391 -0.3257
vn -0.1244 0.9328 -0.3382
vn -0.0781 0.4452 -0.8920
vn -0.0951 0.4290 -0.8983
vn -0.0961 -0.4442 -0.8907
vn -0.0788 -0.4298 -0.8995
vn -0.1251 -0.9372 -0.3256
vn -0.1098 -0.9346 -0.3384
vn 0.1921 -0.9218 0.3367
vn 0.2092 -0.9230 0.3230
vn 0.1750 -0.4232 0.8890
vn 0.1944 -0.4371 0.8782
vn 0.1931 0.4215 0.8860
vn 0.1735 0.4391 0.8815
vn 0.2084 0.9185 0.3361
vn 0.1910 0.9267 0.3236
vn 0.1833 0.9276 -0.3256
vn 0.2010 0.9290 -0.3107
vn 0.1505 0.4294 -0.8905
vn 0.1709 0.4442 -0.8795
vn 0.1693 -0.4283 -0.8876
vn 0.1492 -0.4454 -0.8828
vn 0.1999 -0.9247 -0.3240
vn 0.1825 -0.9322 -0.3125
vn 0.4413 -0.8442 0.3042
vn 0.4547 -0.8424 0.2891
vn 0.4644 -0.3906 0.7949
vn 0.4790 -0.4035 0.7796
vn 0.4770 0.3874 0.7889
vn 0.4604 0.4084 0.7882
vn 0.4530 0.8386 0.3026
vn 0.4381 0.8505 0.2912
vn 0.4334 0.8572 -0.2781
vn 0.4477 0.8550 -0.2617
vn 0.4442 0.4079 -0.7977
vn 0.4606 0.4216 -0.7811
vn 0.4581 -0.4049 -0.7913
vn 0.4401 -0.4262 -0.7904
vn 0.4455 -0.8517 -0.2758
vn 0.4305 -0.8629 -0.2649
vn 0.7470 -0.6243 0.2286
vn 0.7538 -0.6220 0.2118
vn 0.7859 -0.2777 0.5525
vn 0.7917 -0.2925 0.5363
vn 0.7898 0.2753 0.5481
vn 0.7804 0.2999 0.5487
vn 0.7514 0.6195 0.2272
vn 0.7420 0.6349 0.2153
vn 0.7493 0.6371 -0.1805
vn 0.7562 0.6338 -0.1626
vn 0.7967 0.2940 -0.5281
vn 0.8029 0.3093 -0.5096
vn 0.8010 -0.2914 -0.5230
vn 0.7905 -0.3172 -0.5239
vn 0.7539 -0.6323 -0.1788
vn 0.7440 -0.6470 -0.1670
vn -0.9994 0.0000 -0.0349
vn 0.9994 0.0000 0.0349
vn 0.7565 -0.6535 0.0264
vn -0.1971 -0.9804 -0.0069
vn -0.9974 -0.0636 -0.0348
vn -0.9974 0.0636 -0.0348
vn -0.1971 0.9804 -0.0069
vn 0.7565 0.6535 0.0264
vn -0.0349 -0.0000 0.9994
vn 0.0349 -0.0000 -0.9994
vn 0.9899 0.1214 0.0725
vn 0.9905 0.0767 0.1141
vn 0.9957 0.0409 -0.0828
vn 0.9989 0.0041 -0.0471
vn 0.9255 -0.1775 -0.3347
vn 0.9288 -0.1981 -0.3131
vn 0.8086 -0.3275 -0.4888
vn 0.8116 -0.3398 -0.4752
vn 0.1639 -0.6879 -0.7070
vn -0.6368 -0.6009 -0.4831
vn -0.6337 -0.6149 -0.4694
vn -0.9321 -0.3075 -0.1912
vn -0.9285 -0.3316 -0.1671
vn -0.9988 -0.0496 0.0009
vn -0.9956 -0.0858 0.0380
vn -0.9600 0.2104 0.1845
vn -0.9597 0.1712 0.2231
vn -0.1639 0.6879 0.7070
vn 0.1147 -0.7407 0.6619
vn -0.1140 0.7407 -0.6621
vn 0.1632 -0.7338 0.6594
vn -0.1628 0.7337 -0.6597
vn 0.2072 -0.7293 0.6520
vn -0.2069 0.7292 -0.6523
vn 0.1567 -0.7306 0.6646
vn -0.1567 0.7305 -0.6647
vn 0.0699 -0.7186 0.6919
vn -0.0700 0.7186 -0.6919
vn -0.0068 -0.6919 0.7219
vn 0.0066 0.6921 -0.7218
vn -0.0441 -0.6708 0.7403
vn 0.0440 0.6709 -0.7402
vn -0.0330 -0.6816 0.7310
vn 0.0330 0.6816 -0.7310
vn 0.9899 -0.1214 0.0725
vn 0.9905 -0.0767 0.1141
vn 0.9957 -0.0409 -0.0828
vn 0.9989 -0.0041 -0.0471
vn 0.9255 0.1775 -0.3347
vn 0.9288 0.1981 -0.3131
vn 0.8086 0.3275 -0.4888
vn 0.8116 0.3398 -0.4752
vn 0.1639 0.6879 -0.7070
vn -0.6368 0.6009 -0.4831
vn -0.6337 0.6149 -0.4694
vn -0.9321 0.3075 -0.1912
vn -0.9285 0.3316 -0.1671
vn -0.9988 0.0496 0.0009
vn -0.9956 0.0858 0.0380
vn -0.9600 -0.2104 0.1845
vn -0.9597 -0.1712 0.2231
vn -0.1639 -0.6879 0.7070
vn 0.1147 0.7407 0.6619
vn -0.1140 -0.7407 -0.6621
vn 0.1632 0.7338 0.6594
vn -0.1628 -0.7337 -0.6597
vn 0.2072 0.7293 0.6520
vn -0.2069 -0.7292 -0.6523
vn 0.1567 0.7306 0.6646
vn -0.1567 -0.7305 -0.6647
vn 0.0699 0.7186 0.6919
vn -0.0700 -0.7186 -0.6919
vn -0.0068 0.6919 0.7219
vn 0.0066 -0.6921 -0.7218
vn -0.0441 0.6708 0.7403
vn 0.0440 -0.6709 -0.7402
vn -0.0330 0.6816 0.7310
vn 0.0330 -0.6816 -0.7310
vn -0.7766 -0.5972 0.2006
vn -0.8064 -0.2532 0.5345
vn -0.8064 0.2532 0.5345
vn -0.7766 0.5972 0.2006
vn -0.7607 0.5972 -0.2543
vn -0.7671 0.2532 -0.5894
vn -0.7671 -0.2532 -0.5894
vn -0.7607 -0.5972 -0.2543
vn -0.4800 -0.8252 0.2979
vn -0.5185 -0.3576 0.7767
vn -0.5185 0.3576 0.7767
vn -0.4800 0.8252 0.2979
vn -0.4580 0.8252 -0.3306
vn -0.4630 0.3576 -0.8110
vn -0.4630 -0.3576 -0.8110
vn -0.4580 -0.8252 -0.3306
vn 0.3893 -0.8561 0.3400
vn 0.3919 -0.3724 0.8413
vn 0.3919 0.3724 0.8413
vn 0.3893 0.8561 0.3400
vn 0.4121 0.8561 -0.3120
vn 0.4497 0.3724 -0.8119
vn 0.4497 -0.3724 -0.8119
vn 0.4121 -0.8561 -0.3120
vn 0.7490 -0.6100 0.2587
vn 0.7556 -0.2589 0.6017
vn 0.7556 0.2589 0.6017
vn 0.7490 0.6100 0.2587
vn 0.7652 0.6100 -0.2059
vn 0.7958 0.2589 -0.5475
vn 0.7958 -0.2589 -0.5475
vn 0.7652 -0.6100 -0.2059
vn 0.2641 -0.8311 0.4894
vn 0.2789 -0.8399 0.4656
vn 0.2729 -0.0000 0.9620
vn 0.2764 0.8279 0.4880
vn 0.2600 0.8448 0.4676
vn 0.2199 0.8480 -0.4822
vn 0.2376 0.8572 -0.4569
vn 0.1834 0.0000 -0.9830
vn 0.2329 -0.8456 -0.4804
vn 0.2177 -0.8610 -0.4597
vn 0.4414 -0.7821 0.4399
vn 0.4363 -0.7725 0.4615
vn 0.4882 -0.0000 0.8727
vn 0.4396 0.7829 0.4402
vn 0.4483 0.7671 0.4588
vn 0.3774 0.8194 -0.4315
vn 0.3682 0.8106 -0.4554
vn 0.3587 0.0000 -0.9334
vn 0.3753 -0.8201 -0.4320
vn 0.3819 -0.8060 -0.4523
g plumage_main
f 1/1/1 10/10/1 2/2/1
f 1/1/2 9/9/2 10/10/2
f 2/2/3 11/11/3 3/3/3
f 2/2/4 10/10/4 11/11/4
f 3/3/5 12/12/5 4/4/5
f 3/3/6 11/11/6 12/12/6
f 4/4/7 13/13/7 5/5/7
f 4/4/8 12/12/8 13/13/8
f 5/5/9 14/14/9 6/6/9
f 5/5/10 13/13/10 14/14/10
f 6/6/11 15/15/11 7/7/11
f 6/6/12 14/14/12 15/15/12
f 7/7/13 16/16/13 8/8/13
f 7/7/14 15/15/14 16/16/14
f 8/8/15 9/9/15 1/1/15
f 8/8/16 16/16/16 9/9/16
f 9/9/17 18/18/17 10/10/17
f 9/9/18 17/17/18 18/18/18
f 10/10/19 19/19/19 11/11/19
f 10/10/20 18/18/20 19/19/20
f 11/11/21 20/20/21 12/12/21
f 11/11/22 19/19/22 20/20/22
f 12/12/23 21/21/23 13/13/23
f 12/12/24 20/20/24 21/21/24
f 13/13/25 22/22/25 14/14/25
f 13/13/26 21/21/26 22/22/26
f 14/14/27 23/23/27 15/15/27
f 14/14/28 22/22/28 23/23/28
f 15/15/29 24/24/29 16/16/29
f 15/15/30 23/23/30 24/24/30
f 16/16/31 17/17/31 9/9/31
f 16/16/32 24/24/32 17/17/32
f 17/17/33 26/26/33 18/18/33
f 17/17/34 25/25/34 26/26/34
f 18/18/35 27/27/35 19/19/35
f 18/18/36 26/26/36 27/27/36
f 19/19/37 28/28/37 20/20/37
f 19/19/38 27/27/38 28/28/38
f 20/20/39 29/29/39 21/21/39
f 20/20/40 28/28/40 29/29/40
f 21/21/41 30/30/41 22/22/41
f 21/21/42 29/29/42 30/30/42
f 22/22/43 31/31/43 23/23/43
f 22/22/44 30/30/44 31/31/44
f 23/23/45 32/32/45 24/24/45
f 23/23/46 31/31/46 32/32/46
f 24/24/47 25/25/47 17/17/47
f 24/24/48 32/32/48 25/25/48
f 25/25/49 34/34/49 26/26/49
f 25/25/50 33/33/50 34/34/50
f 26/26/51 35/35/51 27/27/51
f 26/26/52 34/34/52 35/35/52
f 27/27/53 36/36/53 28/28/53
f 27/27/54 35/35/54 36/36/54
f 28/28/55 37/37/55 29/29/55
f 28/28/56 36/36/56 37/37/56
f 29/29/57 38/38/57 30/30/57
f 29/29/58 37/37/58 38/38/58
f 30/30/59 39/39/59 31/31/59
f 30/30/60 38/38/60 39/39/60
f 31/31/61 40/40/61 32/32/61
f 31/31/62 39/39/62 40/40/62
f 32/32/63 33/33/63 25/25/63
f 32/32/64 40/40/64 33/33/64
f 33/33/65 42/42/65 34/34/65
f 33/33/66 41/41/66 42/42/66
f 34/34/67 43/43/67 35/35/67
f 34/34/68 42/42/68 43/43/68
f 35/35/69 44/44/69 36/36/69
f 35/35/70 43/43/70 44/44/70
f 36/36/71 45/45/71 37/37/71
f 36/36/72 44/44/72 45/45/72
f 37/37/73 46/46/73 38/38/73
f 37/37/74 45/45/74 46/46/74
f 38/38/75 47/47/75 39/39/75
f 38/38/76 46/46/76 47/47/76
f 39/39/77 48/48/77 40/40/77
f 39/39/78 47/47/78 48/48/78
f 40/40/79 41/41/79 33/33/79
f 40/40/80 48/48/80 41/41/80
f 41/41/81 50/50/81 42/42/81
f 41/41/82 49/49/82 50/50/82
f 42/42/83 51/51/83 43/43/83
f 42/42/84 50/50/84 51/51/84
f 43/43/85 52/52/85 44/44/85
f 43/43/86 51/51/86 52/52/86
f 44/44/87 53/53/87 45/45/87
f 44/44/88 52/52/88 53/53/88
f 45/45/89 54/54/89 46/46/89
f 45/45/90 53/53/90 54/54/90
f 46/46/91 55/55/91 47/47/91
f 46/46/92 54/54/92 55/55/92
f 47/47/93 56/56/93 48/48/93
f 47/47/94 55/55/94 56/56/94
f 48/48/95 49/49/95 41/41/95
f 48/48/96 56/56/96 49/49/96
f 1/1/97 2/2/97 3/3/97
f 49/49/98 51/51/98 50/50/98
f 1/1/97 3/3/97 4/4/97
f 49/49/98 52/52/98 51/51/98
f 1/1/97 4/4/97 5/5/97
f 49/49/98 53/53/98 52/52/98
f 1/1/97 5/5/97 6/6/97
f 49/49/98 54/54/98 53/53/98
f 1/1/97 6/6/97 7/7/97
f 49/49/98 55/55/98 54/54/98
f 1/1/97 7/7/97 8/8/97
f 49/49/98 56/56/98 55/55/98
f 57/57/99 65/65/99 58/58/99
f 57/57/99 64/64/99 65/65/99
f 58/58/100 66/66/100 59/59/100
f 58/58/100 65/65/100 66/66/100
f 59/59/101 67/67/101 60/60/101
f 59/59/101 66/66/101 67/67/101
f 60/60/102 68/68/102 61/61/102
f 60/60/102 67/67/102 68/68/102
f 61/61/103 69/69/103 62/62/103
f 61/61/103 68/68/103 69/69/103
f 62/62/104 70/70/104 63/63/104
f 62/62/104 69/69/104 70/70/104
f 63/63/98 64/64/98 57/57/98
f 63/63/98 70/70/98 64/64/98
f 57/57/105 59/59/105 58/58/105
f 64/64/106 65/65/106 66/66/106
f 57/57/105 60/60/105 59/59/105
f 64/64/106 66/66/106 67/67/106
f 57/57/105 61/61/105 60/60/105
f 64/64/106 67/67/106 68/68/106
f 57/57/105 62/62/105 61/61/105
f 64/64/106 68/68/106 69/69/106
f 57/57/105 63/63/105 62/62/105
f 64/64/106 69/69/106 70/70/106
f 71/71/107 82/82/107 72/72/107
f 71/71/108 81/81/108 82/82/108
f 72/72/109 83/83/109 73/73/109
f 72/72/110 82/82/110 83/83/110
f 73/73/111 84/84/111 74/74/111
f 73/73/112 83/83/112 84/84/112
f 74/74/113 85/85/113 75/75/113
f 74/74/114 84/84/114 85/85/114
f 75/75/115 86/86/115 76/76/115
f 75/75/115 85/85/115 86/86/115
f 76/76/116 87/87/116 77/77/116
f 76/76/117 86/86/117 87/87/117
f 77/77/118 88/88/118 78/78/118
f 77/77/119 87/87/119 88/88/119
f 78/78/120 89/89/120 79/79/120
f 78/78/121 88/88/121 89/89/121
f 79/79/122 90/90/122 80/80/122
f 79/79/123 89/89/123 90/90/123
f 80/80/124 81/81/124 71/71/124
f 80/80/124 90/90/124 81/81/124
f 71/71/125 73/73/125 72/72/125
f 81/81/126 82/82/126 83/83/126
f 71/71/127 74/74/127 73/73/127
f 81/81/128 83/83/128 84/84/128
f 71/71/129 75/75/129 74/74/129
f 81/81/130 84/84/130 85/85/130
f 71/71/131 76/76/131 75/75/131
f 81/81/132 85/85/132 86/86/132
f 71/71/133 77/77/133 76/76/133
f 81/81/134 86/86/134 87/87/134
f 71/71/135 78/78/135 77/77/135
f 81/81/136 87/87/136 88/88/136
f 71/71/137 79/79/137 78/78/137
f 81/81/138 88/88/138 89/89/138
f 71/71/139 80/80/139 79/79/139
f 81/81/140 89/89/140 90/90/140
f 91/91/141 92/92/141 102/102/141
f 91/91/142 102/102/142 101/101/142
f 92/92/143 93/93/143 103/103/143
f 92/92/144 103/103/144 102/102/144
f 93/93/145 94/94/145 104/104/145
f 93/93/146 104/104/146 103/103/146
f 94/94/147 95/95/147 105/105/147
f 94/94/148 105/105/148 104/104/148
f 95/95/149 96/96/149 106/106/149
f 95/95/149 106/106/149 105/105/149
f 96/96/150 97/97/150 107/107/150
f 96/96/151 107/107/151 106/106/151
f 97/97/152 98/98/152 108/108/152
f 97/97/153 108/108/153 107/107/153
f 98/98/154 99/99/154 109/109/154
f 98/98/155 109/109/155 108/108/155
f 99/99/156 100/100/156 110/110/156
f 99/99/157 110/110/157 109/109/157
f 100/100/158 91/91/158 101/101/158
f 100/100/158 101/101/158 110/110/158
f 91/91/159 92/92/159 93/93/159
f 101/101/160 103/103/160 102/102/160
f 91/91/161 93/93/161 94/94/161
f 101/101/162 104/104/162 103/103/162
f 91/91/163 94/94/163 95/95/163
f 101/101/164 105/105/164 104/104/164
f 91/91/165 95/95/165 96/96/165
f 101/101/166 106/106/166 105/105/166
f 91/91/167 96/96/167 97/97/167
f 101/101/168 107/107/168 106/106/168
f 91/91/169 97/97/169 98/98/169
f 101/101/170 108/108/170 107/107/170
f 91/91/171 98/98/171 99/99/171
f 101/101/172 109/109/172 108/108/172
f 91/91/173 99/99/173 100/100/173
f 101/101/174 110/110/174 109/109/174
g plumage_hood
f 111/111/175 120/120/175 112/112/175
f 111/111/175 119/119/175 120/120/175
f 112/112/176 121/121/176 113/113/176
f 112/112/176 120/120/176 121/121/176
f 113/113/177 122/122/177 114/114/177
f 113/113/177 121/121/177 122/122/177
f 114/114/178 123/123/178 115/115/178
f 114/114/178 122/122/178 123/123/178
f 115/115/179 124/124/179 116/116/179
f 115/115/179 123/123/179 124/124/179
f 116/116/180 125/125/180 117/117/180
f 116/116/180 124/124/180 125/125/180
f 117/117/181 126/126/181 118/118/181
f 117/117/181 125/125/181 126/126/181
f 118/118/182 119/119/182 111/111/182
f 118/118/182 126/126/182 119/119/182
f 119/119/183 128/128/183 120/120/183
f 119/119/183 127/127/183 128/128/183
f 120/120/184 129/129/184 121/121/184
f 120/120/184 128/128/184 129/129/184
f 121/121/185 130/130/185 122/122/185
f 121/121/185 129/129/185 130/130/185
f 122/122/186 131/131/186 123/123/186
f 122/122/186 130/130/186 131/131/186
f 123/123/187 132/132/187 124/124/187
f 123/123/187 131/131/187 132/132/187
f 124/124/188 133/133/188 125/125/188
f 124/124/188 132/132/188 133/133/188
f 125/125/189 134/134/189 126/126/189
f 125/125/189 133/133/189 134/134/189
f 126/126/190 127/127/190 119/119/190
f 126/126/190 134/134/190 127/127/190
f 127/127/191 136/136/191 128/128/191
f 127/127/191 135/135/191 136/136/191
f 128/128/192 137/137/192 129/129/192
f 128/128/192 136/136/192 137/137/192
f 129/129/193 138/138/193 130/130/193
f 129/129/193 137/137/193 138/138/193
f 130/130/194 139/139/194 131/131/194
f 130/130/194 138/138/194 139/139/194
f 131/131/195 140/140/195 132/132/195
f 131/131/195 139/139/195 140/140/195
f 132/132/196 141/141/196 133/133/196
f 132/132/196 140/140/196 141/141/196
f 133/133/197 142/142/197 134/134/197
f 133/133/197 141/141/197 142/142/197
f 134/134/198 135/135/198 127/127/198
f 134/134/198 142/142/198 135/135/198
f 135/135/199 144/144/199 136/136/199
f 135/135/199 143/143/199 144/144/199
f 136/136/200 145/145/200 137/137/200
f 136/136/200 144/144/200 145/145/200
f 137/137/201 146/146/201 138/138/201
f 137/137/201 145/145/201 146/146/201
f 138/138/202 147/147/202 139/139/202
f 138/138/202 146/146/202 147/147/202
f 139/139/203 148/148/203 140/140/203
f 139/139/203 147/147/203 148/148/203
f 140/140/204 149/149/204 141/141/204
f 140/140/204 148/148/204 149/149/204
f 141/141/205 150/150/205 142/142/205
f 141/141/205 149/149/205 150/150/205
f 142/142/206 143/143/206 135/135/206
f 142/142/206 150/150/206 143/143/206
f 111/111/97 112/112/97 113/113/97
f 143/143/98 145/145/98 144/144/98
f 111/111/97 113/113/97 114/114/97
f 143/143/98 146/146/98 145/145/98
f 111/111/97 114/114/97 115/115/97
f 143/143/98 147/147/98 146/146/98
f 111/111/97 115/115/97 116/116/97
f 143/143/98 148/148/98 147/147/98
f 111/111/97 116/116/97 117/117/97
f 143/143/98 149/149/98 148/148/98
f 111/111/97 117/117/97 118/118/97
f 143/143/98 150/150/98 149/149/98
f 151/151/207 158/158/207 152/152/207
f 151/151/208 157/157/208 158/158/208
f 152/152/209 159/159/209 153/153/209
f 152/152/209 158/158/209 159/159/209
f 153/153/210 160/160/210 154/154/210
f 153/153/211 159/159/211 160/160/211
f 154/154/212 161/161/212 155/155/212
f 154/154/213 160/160/213 161/161/213
f 155/155/214 162/162/214 156/156/214
f 155/155/214 161/161/214 162/162/214
f 156/156/215 157/157/215 151/151/215
f 156/156/216 162/162/216 157/157/216
f 157/157/217 164/164/217 158/158/217
f 157/157/218 163/163/218 164/164/218
f 158/158/219 165/165/219 159/159/219
f 158/158/219 164/164/219 165/165/219
f 159/159/220 166/166/220 160/160/220
f 159/159/221 165/165/221 166/166/221
f 160/160/222 167/167/222 161/161/222
f 160/160/223 166/166/223 167/167/223
f 161/161/224 168/168/224 162/162/224
f 161/161/224 167/167/224 168/168/224
f 162/162/225 163/163/225 157/157/225
f 162/162/226 168/168/226 163/163/226
f 151/151/97 152/152/97 153/153/97
f 163/163/98 165/165/98 164/164/98
f 151/151/97 153/153/97 154/154/97
f 163/163/98 166/166/98 165/165/98
f 151/151/97 154/154/97 155/155/97
f 163/163/98 167/167/98 166/166/98
f 151/151/97 155/155/97 156/156/97
f 163/163/98 168/168/98 167/167/98
