# Original BusStudyV1; cm; Unreal legacy reflected-Y adapter
g CabinFloor
s off
v -562.00000000 113.00000000 89.00000000
v 562.00000000 113.00000000 89.00000000
v 565.00000000 110.00000000 89.00000000
vt 0.00000000 0.00000000
vt 11.24000000 0.00000000
vt 11.27000000 0.03000000
vn 0.000000000 0.000000000 -1.000000000
vn 0.000000000 0.000000000 -1.000000000
vn 0.000000000 0.000000000 -1.000000000
f 1/1/1 2/2/2 3/3/3
v -562.00000000 113.00000000 93.00000000
v 565.00000000 110.00000000 93.00000000
v 562.00000000 113.00000000 93.00000000
vt 0.00000000 0.00000000
vt 11.27003993 0.00000000
vt 11.23996018 0.02992004
vn -0.000000000 0.000000000 1.000000000
vn -0.000000000 0.000000000 1.000000000
vn -0.000000000 0.000000000 1.000000000
f 4/4/4 5/5/5 6/6/6
v -562.00000000 113.00000000 89.00000000
v 565.00000000 110.00000000 89.00000000
v 565.00000000 -110.00000000 89.00000000
vt 0.00000000 0.00000000
vt 11.27003993 0.00000000
vt 11.27589616 2.19999221
vn 0.000000000 0.000000000 -1.000000000
vn 0.000000000 0.000000000 -1.000000000
vn 0.000000000 0.000000000 -1.000000000
f 7/7/7 8/8/8 9/9/9
v -562.00000000 113.00000000 93.00000000
v 565.00000000 -110.00000000 93.00000000
v 565.00000000 110.00000000 93.00000000
vt 0.00000000 0.00000000
vt 11.48850730 0.00000000
vt 11.06147184 2.15815679
vn 0.000000000 0.000000000 1.000000000
vn 0.000000000 0.000000000 1.000000000
vn 0.000000000 0.000000000 1.000000000
f 10/10/10 11/11/11 12/12/12
v -562.00000000 113.00000000 89.00000000
v 565.00000000 -110.00000000 89.00000000
v 562.00000000 -113.00000000 89.00000000
vt 0.00000000 0.00000000
vt 11.48850730 0.00000000
vt 11.46490110 0.03525262
vn 0.000000000 0.000000000 -1.000000000
vn 0.000000000 0.000000000 -1.000000000
vn 0.000000000 0.000000000 -1.000000000
f 13/13/13 14/14/14 15/15/15
v -562.00000000 113.00000000 93.00000000
v 562.00000000 -113.00000000 93.00000000
v 565.00000000 -110.00000000 93.00000000
vt 0.00000000 0.00000000
vt 11.46495530 0.00000000
vt 11.48845299 0.03532504
vn 0.000000000 0.000000000 1.000000000
vn 0.000000000 0.000000000 1.000000000
vn 0.000000000 0.000000000 1.000000000
f 16/16/16 17/17/17 18/18/18
v -562.00000000 113.00000000 89.00000000
v 562.00000000 -113.00000000 89.00000000
v -562.00000000 -113.00000000 89.00000000
vt 0.00000000 0.00000000
vt 11.46495530 0.00000000
vt 0.44549672 2.21565626
vn 0.000000000 0.000000000 -1.000000000
vn 0.000000000 0.000000000 -1.000000000
vn 0.000000000 0.000000000 -1.000000000
f 19/19/19 20/20/20 21/21/21
v -562.00000000 113.00000000 93.00000000
v -562.00000000 -113.00000000 93.00000000
v 562.00000000 -113.00000000 93.00000000
vt 0.00000000 0.00000000
vt 2.26000000 0.00000000
vt 2.26000000 11.24000000
vn 0.000000000 0.000000000 1.000000000
vn 0.000000000 0.000000000 1.000000000
vn 0.000000000 0.000000000 1.000000000
f 22/22/22 23/23/23 24/24/24
v -562.00000000 113.00000000 89.00000000
v -562.00000000 -113.00000000 89.00000000
v -565.00000000 -110.00000000 89.00000000
vt 0.00000000 0.00000000
vt 2.26000000 0.00000000
vt 2.23000000 0.03000000
vn 0.000000000 -0.000000000 -1.000000000
vn 0.000000000 -0.000000000 -1.000000000
vn 0.000000000 -0.000000000 -1.000000000
f 25/25/25 26/26/26 27/27/27
v -562.00000000 113.00000000 93.00000000
v -565.00000000 -110.00000000 93.00000000
v -562.00000000 -113.00000000 93.00000000
vt 0.00000000 0.00000000
vt 2.23020178 0.00000000
vt 2.25979552 0.03040084
vn 0.000000000 0.000000000 1.000000000
vn 0.000000000 0.000000000 1.000000000
vn 0.000000000 0.000000000 1.000000000
f 28/28/28 29/29/29 30/30/30
v -562.00000000 113.00000000 89.00000000
v -565.00000000 -110.00000000 89.00000000
v -565.00000000 110.00000000 89.00000000
vt 0.00000000 0.00000000
vt 2.23020178 0.00000000
vt 0.03040084 0.02959373
vn 0.000000000 0.000000000 -1.000000000
vn 0.000000000 0.000000000 -1.000000000
vn 0.000000000 0.000000000 -1.000000000
f 31/31/31 32/32/32 33/33/33
v -562.00000000 113.00000000 93.00000000
v -565.00000000 110.00000000 93.00000000
v -565.00000000 -110.00000000 93.00000000
vt 0.00000000 0.00000000
vt 0.04242641 0.00000000
vt 1.59806133 1.55563492
vn 0.000000000 0.000000000 1.000000000
vn 0.000000000 0.000000000 1.000000000
vn 0.000000000 0.000000000 1.000000000
f 34/34/34 35/35/35 36/36/36
v -562.00000000 113.00000000 89.00000000
v 562.00000000 113.00000000 93.00000000
v 562.00000000 113.00000000 89.00000000
vt 0.00000000 0.00000000
vt 11.24007117 0.00000000
vt 11.23992883 0.03999975
vn 0.000000000 1.000000000 0.000000000
vn 0.000000000 1.000000000 0.000000000
vn 0.000000000 1.000000000 0.000000000
f 37/37/37 38/38/38 39/39/39
v -562.00000000 113.00000000 89.00000000
v -562.00000000 113.00000000 93.00000000
v 562.00000000 113.00000000 93.00000000
vt 0.00000000 0.00000000
vt 0.04000000 0.00000000
vt 0.04000000 11.24000000
vn 0.000000000 1.000000000 0.000000000
vn 0.000000000 1.000000000 0.000000000
vn 0.000000000 1.000000000 0.000000000
f 40/40/40 41/41/41 42/42/42
v 562.00000000 113.00000000 89.00000000
v 565.00000000 110.00000000 93.00000000
v 565.00000000 110.00000000 89.00000000
vt 0.00000000 0.00000000
vt 0.05830952 0.00000000
vt 0.03086975 0.02910428
vn 0.707106781 0.707106781 0.000000000
vn 0.707106781 0.707106781 0.000000000
vn 0.707106781 0.707106781 0.000000000
f 43/43/43 44/44/44 45/45/45
v 562.00000000 113.00000000 89.00000000
v 562.00000000 113.00000000 93.00000000
v 565.00000000 110.00000000 93.00000000
vt 0.00000000 0.00000000
vt 0.04000000 0.00000000
vt 0.04000000 0.04242641
vn 0.707106781 0.707106781 -0.000000000
vn 0.707106781 0.707106781 -0.000000000
vn 0.707106781 0.707106781 -0.000000000
f 46/46/46 47/47/47 48/48/48
v 565.00000000 110.00000000 89.00000000
v 565.00000000 -110.00000000 93.00000000
v 565.00000000 -110.00000000 89.00000000
vt 0.00000000 0.00000000
vt 2.20036361 0.00000000
vt 2.19963645 0.03999339
vn 1.000000000 0.000000000 0.000000000
vn 1.000000000 0.000000000 0.000000000
vn 1.000000000 0.000000000 0.000000000
f 49/49/49 50/50/50 51/51/51
v 565.00000000 110.00000000 89.00000000
v 565.00000000 110.00000000 93.00000000
v 565.00000000 -110.00000000 93.00000000
vt 0.00000000 0.00000000
vt 0.04000000 0.00000000
vt 0.04000000 2.20000000
vn 1.000000000 0.000000000 -0.000000000
vn 1.000000000 0.000000000 -0.000000000
vn 1.000000000 0.000000000 -0.000000000
f 52/52/52 53/53/53 54/54/54
v 565.00000000 -110.00000000 89.00000000
v 562.00000000 -113.00000000 93.00000000
v 562.00000000 -113.00000000 89.00000000
vt 0.00000000 0.00000000
vt 0.05830952 0.00000000
vt 0.03086975 0.02910428
vn 0.707106781 -0.707106781 0.000000000
vn 0.707106781 -0.707106781 0.000000000
vn 0.707106781 -0.707106781 0.000000000
f 55/55/55 56/56/56 57/57/57
v 565.00000000 -110.00000000 89.00000000
v 565.00000000 -110.00000000 93.00000000
v 562.00000000 -113.00000000 93.00000000
vt 0.00000000 0.00000000
vt 0.04000000 0.00000000
vt 0.04000000 0.04242641
vn 0.707106781 -0.707106781 0.000000000
vn 0.707106781 -0.707106781 0.000000000
vn 0.707106781 -0.707106781 0.000000000
f 58/58/58 59/59/59 60/60/60
v 562.00000000 -113.00000000 89.00000000
v -562.00000000 -113.00000000 93.00000000
v -562.00000000 -113.00000000 89.00000000
vt 0.00000000 0.00000000
vt 11.24007117 0.00000000
vt 11.23992883 0.03999975
vn 0.000000000 -1.000000000 0.000000000
vn 0.000000000 -1.000000000 0.000000000
vn 0.000000000 -1.000000000 0.000000000
f 61/61/61 62/62/62 63/63/63
v 562.00000000 -113.00000000 89.00000000
v 562.00000000 -113.00000000 93.00000000
v -562.00000000 -113.00000000 93.00000000
vt 0.00000000 0.00000000
vt 0.04000000 0.00000000
vt 0.04000000 11.24000000
vn 0.000000000 -1.000000000 0.000000000
vn 0.000000000 -1.000000000 0.000000000
vn 0.000000000 -1.000000000 0.000000000
f 64/64/64 65/65/65 66/66/66
v -562.00000000 -113.00000000 89.00000000
v -565.00000000 -110.00000000 93.00000000
v -565.00000000 -110.00000000 89.00000000
vt 0.00000000 0.00000000
vt 0.05830952 0.00000000
vt 0.03086975 0.02910428
vn -0.707106781 -0.707106781 0.000000000
vn -0.707106781 -0.707106781 0.000000000
vn -0.707106781 -0.707106781 0.000000000
f 67/67/67 68/68/68 69/69/69
v -562.00000000 -113.00000000 89.00000000
v -562.00000000 -113.00000000 93.00000000
v -565.00000000 -110.00000000 93.00000000
vt 0.00000000 0.00000000
vt 0.04000000 0.00000000
vt 0.04000000 0.04242641
vn -0.707106781 -0.707106781 0.000000000
vn -0.707106781 -0.707106781 0.000000000
vn -0.707106781 -0.707106781 0.000000000
f 70/70/70 71/71/71 72/72/72
v -565.00000000 -110.00000000 89.00000000
v -565.00000000 110.00000000 93.00000000
v -565.00000000 110.00000000 89.00000000
vt 0.00000000 0.00000000
vt 2.20036361 0.00000000
vt 2.19963645 0.03999339
vn -1.000000000 0.000000000 0.000000000
vn -1.000000000 0.000000000 0.000000000
vn -1.000000000 0.000000000 0.000000000
f 73/73/73 74/74/74 75/75/75
v -565.00000000 -110.00000000 89.00000000
v -565.00000000 -110.00000000 93.00000000
v -565.00000000 110.00000000 93.00000000
vt 0.00000000 0.00000000
vt 0.04000000 0.00000000
vt 0.04000000 2.20000000
vn -1.000000000 0.000000000 0.000000000
vn -1.000000000 0.000000000 0.000000000
vn -1.000000000 0.000000000 0.000000000
f 76/76/76 77/77/77 78/78/78
v -565.00000000 110.00000000 89.00000000
v -562.00000000 113.00000000 93.00000000
v -562.00000000 113.00000000 89.00000000
vt 0.00000000 0.00000000
vt 0.05830952 0.00000000
vt 0.03086975 0.02910428
vn -0.707106781 0.707106781 0.000000000
vn -0.707106781 0.707106781 0.000000000
vn -0.707106781 0.707106781 0.000000000
f 79/79/79 80/80/80 81/81/81
v -565.00000000 110.00000000 89.00000000
v -565.00000000 110.00000000 93.00000000
v -562.00000000 113.00000000 93.00000000
vt 0.00000000 0.00000000
vt 0.04000000 0.00000000
vt 0.04000000 0.04242641
vn -0.707106781 0.707106781 0.000000000
vn -0.707106781 0.707106781 0.000000000
vn -0.707106781 0.707106781 0.000000000
f 82/82/82 83/83/83 84/84/84
