# Original BusStudyV1; cm; Unreal legacy reflected-Y adapter
g InfoPanelBlank_-2300
s off
v -2349.25000000 -476.50000000 201.50000000
v -2250.75000000 -476.50000000 201.50000000
v -2250.50000000 -476.75000000 201.50000000
vt 0.00000000 0.00000000
vt 0.98500000 0.00000000
vt 0.98750000 0.00250000
vn 0.000000000 0.000000000 -1.000000000
vn 0.000000000 0.000000000 -1.000000000
vn 0.000000000 0.000000000 -1.000000000
f 1/1/1 2/2/2 3/3/3
v -2349.25000000 -476.50000000 274.50000000
v -2250.50000000 -476.75000000 274.50000000
v -2250.75000000 -476.50000000 274.50000000
vt 0.00000000 0.00000000
vt 0.98750316 0.00000000
vt 0.98499684 0.00249366
vn -0.000000000 0.000000000 1.000000000
vn -0.000000000 0.000000000 1.000000000
vn -0.000000000 0.000000000 1.000000000
f 4/4/4 5/5/5 6/6/6
v -2349.25000000 -476.50000000 201.50000000
v -2250.50000000 -476.75000000 201.50000000
v -2250.50000000 -477.25000000 201.50000000
vt 0.00000000 0.00000000
vt 0.98750316 0.00000000
vt 0.98751582 0.00499998
vn 0.000000000 0.000000000 -1.000000000
vn 0.000000000 0.000000000 -1.000000000
vn 0.000000000 0.000000000 -1.000000000
f 7/7/7 8/8/8 9/9/9
v -2349.25000000 -476.50000000 274.50000000
v -2250.50000000 -477.25000000 274.50000000
v -2250.50000000 -476.75000000 274.50000000
vt 0.00000000 0.00000000
vt 0.98752848 0.00000000
vt 0.98749051 0.00499986
vn 0.000000000 0.000000000 1.000000000
vn 0.000000000 0.000000000 1.000000000
vn 0.000000000 0.000000000 1.000000000
f 10/10/10 11/11/11 12/12/12
v -2349.25000000 -476.50000000 201.50000000
v -2250.50000000 -477.25000000 201.50000000
v -2250.75000000 -477.50000000 201.50000000
vt 0.00000000 0.00000000
vt 0.98752848 0.00000000
vt 0.98504754 0.00251891
vn 0.000000000 0.000000000 -1.000000000
vn 0.000000000 0.000000000 -1.000000000
vn 0.000000000 0.000000000 -1.000000000
f 13/13/13 14/14/14 15/15/15
v -2349.25000000 -476.50000000 274.50000000
v -2250.75000000 -477.50000000 274.50000000
v -2250.50000000 -477.25000000 274.50000000
vt 0.00000000 0.00000000
vt 0.98505076 0.00000000
vt 0.98752525 0.00252525
vn 0.000000000 0.000000000 1.000000000
vn 0.000000000 0.000000000 1.000000000
vn 0.000000000 0.000000000 1.000000000
f 16/16/16 17/17/17 18/18/18
v -2349.25000000 -476.50000000 201.50000000
v -2250.75000000 -477.50000000 201.50000000
v -2349.25000000 -477.50000000 201.50000000
vt 0.00000000 0.00000000
vt 0.98505076 0.00000000
vt 0.00010152 0.00999948
vn 0.000000000 0.000000000 -1.000000000
vn 0.000000000 0.000000000 -1.000000000
vn 0.000000000 0.000000000 -1.000000000
f 19/19/19 20/20/20 21/21/21
v -2349.25000000 -476.50000000 274.50000000
v -2349.25000000 -477.50000000 274.50000000
v -2250.75000000 -477.50000000 274.50000000
vt 0.00000000 0.00000000
vt 0.01000000 0.00000000
vt 0.01000000 0.98500000
vn 0.000000000 0.000000000 1.000000000
vn 0.000000000 0.000000000 1.000000000
vn 0.000000000 0.000000000 1.000000000
f 22/22/22 23/23/23 24/24/24
v -2349.25000000 -476.50000000 201.50000000
v -2349.25000000 -477.50000000 201.50000000
v -2349.50000000 -477.25000000 201.50000000
vt 0.00000000 0.00000000
vt 0.01000000 0.00000000
vt 0.00750000 0.00250000
vn 0.000000000 -0.000000000 -1.000000000
vn 0.000000000 -0.000000000 -1.000000000
vn 0.000000000 -0.000000000 -1.000000000
f 25/25/25 26/26/26 27/27/27
v -2349.25000000 -476.50000000 274.50000000
v -2349.50000000 -477.25000000 274.50000000
v -2349.25000000 -477.50000000 274.50000000
vt 0.00000000 0.00000000
vt 0.00790569 0.00000000
vt 0.00948683 0.00316228
vn 0.000000000 0.000000000 1.000000000
vn 0.000000000 0.000000000 1.000000000
vn 0.000000000 0.000000000 1.000000000
f 28/28/28 29/29/29 30/30/30
v -2349.25000000 -476.50000000 201.50000000
v -2349.50000000 -477.25000000 201.50000000
v -2349.50000000 -476.75000000 201.50000000
vt 0.00000000 0.00000000
vt 0.00790569 0.00000000
vt 0.00316228 0.00158114
vn 0.000000000 0.000000000 -1.000000000
vn 0.000000000 0.000000000 -1.000000000
vn 0.000000000 0.000000000 -1.000000000
f 31/31/31 32/32/32 33/33/33
v -2349.25000000 -476.50000000 274.50000000
v -2349.50000000 -476.75000000 274.50000000
v -2349.50000000 -477.25000000 274.50000000
vt 0.00000000 0.00000000
vt 0.00353553 0.00000000
vt 0.00707107 0.00353553
vn 0.000000000 0.000000000 1.000000000
vn 0.000000000 0.000000000 1.000000000
vn 0.000000000 0.000000000 1.000000000
f 34/34/34 35/35/35 36/36/36
v -2349.25000000 -476.50000000 201.50000000
v -2250.75000000 -476.50000000 274.50000000
v -2250.75000000 -476.50000000 201.50000000
vt 0.00000000 0.00000000
vt 1.22601998 0.00000000
vt 0.79136149 0.58649126
vn 0.000000000 1.000000000 0.000000000
vn 0.000000000 1.000000000 0.000000000
vn 0.000000000 1.000000000 0.000000000
f 37/37/37 38/38/38 39/39/39
v -2349.25000000 -476.50000000 201.50000000
v -2349.25000000 -476.50000000 274.50000000
v -2250.75000000 -476.50000000 274.50000000
vt 0.00000000 0.00000000
vt 0.73000000 0.00000000
vt 0.73000000 0.98500000
vn 0.000000000 1.000000000 0.000000000
vn 0.000000000 1.000000000 0.000000000
vn 0.000000000 1.000000000 0.000000000
f 40/40/40 41/41/41 42/42/42
v -2250.75000000 -476.50000000 201.50000000
v -2250.50000000 -476.75000000 274.50000000
v -2250.50000000 -476.75000000 201.50000000
vt 0.00000000 0.00000000
vt 0.73000856 0.00000000
vt 0.00001712 0.00353549
vn 0.707106781 0.707106781 0.000000000
vn 0.707106781 0.707106781 0.000000000
vn 0.707106781 0.707106781 0.000000000
f 43/43/43 44/44/44 45/45/45
v -2250.75000000 -476.50000000 201.50000000
v -2250.75000000 -476.50000000 274.50000000
v -2250.50000000 -476.75000000 274.50000000
vt 0.00000000 0.00000000
vt 0.73000000 0.00000000
vt 0.73000000 0.00353553
vn 0.707106781 0.707106781 -0.000000000
vn 0.707106781 0.707106781 -0.000000000
vn 0.707106781 0.707106781 -0.000000000
f 46/46/46 47/47/47 48/48/48
v -2250.50000000 -476.75000000 201.50000000
v -2250.50000000 -477.25000000 274.50000000
v -2250.50000000 -477.25000000 201.50000000
vt 0.00000000 0.00000000
vt 0.73001712 0.00000000
vt 0.00003425 0.00499988
vn 1.000000000 0.000000000 0.000000000
vn 1.000000000 0.000000000 0.000000000
vn 1.000000000 0.000000000 0.000000000
f 49/49/49 50/50/50 51/51/51
v -2250.50000000 -476.75000000 201.50000000
v -2250.50000000 -476.75000000 274.50000000
v -2250.50000000 -477.25000000 274.50000000
vt 0.00000000 0.00000000
vt 0.73000000 0.00000000
vt 0.73000000 0.00500000
vn 1.000000000 0.000000000 -0.000000000
vn 1.000000000 0.000000000 -0.000000000
vn 1.000000000 0.000000000 -0.000000000
f 52/52/52 53/53/53 54/54/54
v -2250.50000000 -477.25000000 201.50000000
v -2250.75000000 -477.50000000 274.50000000
v -2250.75000000 -477.50000000 201.50000000
vt 0.00000000 0.00000000
vt 0.73000856 0.00000000
vt 0.00001712 0.00353549
vn 0.707106781 -0.707106781 0.000000000
vn 0.707106781 -0.707106781 0.000000000
vn 0.707106781 -0.707106781 0.000000000
f 55/55/55 56/56/56 57/57/57
v -2250.50000000 -477.25000000 201.50000000
v -2250.50000000 -477.25000000 274.50000000
v -2250.75000000 -477.50000000 274.50000000
vt 0.00000000 0.00000000
vt 0.73000000 0.00000000
vt 0.73000000 0.00353553
vn 0.707106781 -0.707106781 0.000000000
vn 0.707106781 -0.707106781 0.000000000
vn 0.707106781 -0.707106781 0.000000000
f 58/58/58 59/59/59 60/60/60
v -2250.75000000 -477.50000000 201.50000000
v -2349.25000000 -477.50000000 274.50000000
v -2349.25000000 -477.50000000 201.50000000
vt 0.00000000 0.00000000
vt 1.22601998 0.00000000
vt 0.79136149 0.58649126
vn 0.000000000 -1.000000000 0.000000000
vn 0.000000000 -1.000000000 0.000000000
vn 0.000000000 -1.000000000 0.000000000
f 61/61/61 62/62/62 63/63/63
v -2250.75000000 -477.50000000 201.50000000
v -2250.75000000 -477.50000000 274.50000000
v -2349.25000000 -477.50000000 274.50000000
vt 0.00000000 0.00000000
vt 0.73000000 0.00000000
vt 0.73000000 0.98500000
vn 0.000000000 -1.000000000 0.000000000
vn 0.000000000 -1.000000000 0.000000000
vn 0.000000000 -1.000000000 0.000000000
f 64/64/64 65/65/65 66/66/66
v -2349.25000000 -477.50000000 201.50000000
v -2349.50000000 -477.25000000 274.50000000
v -2349.50000000 -477.25000000 201.50000000
vt 0.00000000 0.00000000
vt 0.73000856 0.00000000
vt 0.00001712 0.00353549
vn -0.707106781 -0.707106781 0.000000000
vn -0.707106781 -0.707106781 0.000000000
vn -0.707106781 -0.707106781 0.000000000
f 67/67/67 68/68/68 69/69/69
v -2349.25000000 -477.50000000 201.50000000
v -2349.25000000 -477.50000000 274.50000000
v -2349.50000000 -477.25000000 274.50000000
vt 0.00000000 0.00000000
vt 0.73000000 0.00000000
vt 0.73000000 0.00353553
vn -0.707106781 -0.707106781 0.000000000
vn -0.707106781 -0.707106781 0.000000000
vn -0.707106781 -0.707106781 0.000000000
f 70/70/70 71/71/71 72/72/72
v -2349.50000000 -477.25000000 201.50000000
v -2349.50000000 -476.75000000 274.50000000
v -2349.50000000 -476.75000000 201.50000000
vt 0.00000000 0.00000000
vt 0.73001712 0.00000000
vt 0.00003425 0.00499988
vn -1.000000000 0.000000000 0.000000000
vn -1.000000000 0.000000000 0.000000000
vn -1.000000000 0.000000000 0.000000000
f 73/73/73 74/74/74 75/75/75
v -2349.50000000 -477.25000000 201.50000000
v -2349.50000000 -477.25000000 274.50000000
v -2349.50000000 -476.75000000 274.50000000
vt 0.00000000 0.00000000
vt 0.73000000 0.00000000
vt 0.73000000 0.00500000
vn -1.000000000 0.000000000 0.000000000
vn -1.000000000 0.000000000 0.000000000
vn -1.000000000 0.000000000 0.000000000
f 76/76/76 77/77/77 78/78/78
v -2349.50000000 -476.75000000 201.50000000
v -2349.25000000 -476.50000000 274.50000000
v -2349.25000000 -476.50000000 201.50000000
vt 0.00000000 0.00000000
vt 0.73000856 0.00000000
vt 0.00001712 0.00353549
vn -0.707106781 0.707106781 0.000000000
vn -0.707106781 0.707106781 0.000000000
vn -0.707106781 0.707106781 0.000000000
f 79/79/79 80/80/80 81/81/81
v -2349.50000000 -476.75000000 201.50000000
v -2349.50000000 -476.75000000 274.50000000
v -2349.25000000 -476.50000000 274.50000000
vt 0.00000000 0.00000000
vt 0.73000000 0.00000000
vt 0.73000000 0.00353553
vn -0.707106781 0.707106781 0.000000000
vn -0.707106781 0.707106781 0.000000000
vn -0.707106781 0.707106781 0.000000000
f 82/82/82 83/83/83 84/84/84
g InfoPanelBlank_2300
s off
v 2250.75000000 -476.50000000 201.50000000
v 2349.25000000 -476.50000000 201.50000000
v 2349.50000000 -476.75000000 201.50000000
vt 0.00000000 0.00000000
vt 0.98500000 0.00000000
vt 0.98750000 0.00250000
vn 0.000000000 0.000000000 -1.000000000
vn 0.000000000 0.000000000 -1.000000000
vn 0.000000000 0.000000000 -1.000000000
f 85/85/85 86/86/86 87/87/87
v 2250.75000000 -476.50000000 274.50000000
v 2349.50000000 -476.75000000 274.50000000
v 2349.25000000 -476.50000000 274.50000000
vt 0.00000000 0.00000000
vt 0.98750316 0.00000000
vt 0.98499684 0.00249366
vn -0.000000000 0.000000000 1.000000000
vn -0.000000000 0.000000000 1.000000000
vn -0.000000000 0.000000000 1.000000000
f 88/88/88 89/89/89 90/90/90
v 2250.75000000 -476.50000000 201.50000000
v 2349.50000000 -476.75000000 201.50000000
v 2349.50000000 -477.25000000 201.50000000
vt 0.00000000 0.00000000
vt 0.98750316 0.00000000
vt 0.98751582 0.00499998
vn 0.000000000 0.000000000 -1.000000000
vn 0.000000000 0.000000000 -1.000000000
vn 0.000000000 0.000000000 -1.000000000
f 91/91/91 92/92/92 93/93/93
v 2250.75000000 -476.50000000 274.50000000
v 2349.50000000 -477.25000000 274.50000000
v 2349.50000000 -476.75000000 274.50000000
vt 0.00000000 0.00000000
vt 0.98752848 0.00000000
vt 0.98749051 0.00499986
vn 0.000000000 0.000000000 1.000000000
vn 0.000000000 0.000000000 1.000000000
vn 0.000000000 0.000000000 1.000000000
f 94/94/94 95/95/95 96/96/96
v 2250.75000000 -476.50000000 201.50000000
v 2349.50000000 -477.25000000 201.50000000
v 2349.25000000 -477.50000000 201.50000000
vt 0.00000000 0.00000000
vt 0.98752848 0.00000000
vt 0.98504754 0.00251891
vn 0.000000000 0.000000000 -1.000000000
vn 0.000000000 0.000000000 -1.000000000
vn 0.000000000 0.000000000 -1.000000000
f 97/97/97 98/98/98 99/99/99
v 2250.75000000 -476.50000000 274.50000000
v 2349.25000000 -477.50000000 274.50000000
v 2349.50000000 -477.25000000 274.50000000
vt 0.00000000 0.00000000
vt 0.98505076 0.00000000
vt 0.98752525 0.00252525
vn 0.000000000 0.000000000 1.000000000
vn 0.000000000 0.000000000 1.000000000
vn 0.000000000 0.000000000 1.000000000
f 100/100/100 101/101/101 102/102/102
v 2250.75000000 -476.50000000 201.50000000
v 2349.25000000 -477.50000000 201.50000000
v 2250.75000000 -477.50000000 201.50000000
vt 0.00000000 0.00000000
vt 0.98505076 0.00000000
vt 0.00010152 0.00999948
vn 0.000000000 0.000000000 -1.000000000
vn 0.000000000 0.000000000 -1.000000000
vn 0.000000000 0.000000000 -1.000000000
f 103/103/103 104/104/104 105/105/105
v 2250.75000000 -476.50000000 274.50000000
v 2250.75000000 -477.50000000 274.50000000
v 2349.25000000 -477.50000000 274.50000000
vt 0.00000000 0.00000000
vt 0.01000000 0.00000000
vt 0.01000000 0.98500000
vn 0.000000000 0.000000000 1.000000000
vn 0.000000000 0.000000000 1.000000000
vn 0.000000000 0.000000000 1.000000000
f 106/106/106 107/107/107 108/108/108
v 2250.75000000 -476.50000000 201.50000000
v 2250.75000000 -477.50000000 201.50000000
v 2250.50000000 -477.25000000 201.50000000
vt 0.00000000 0.00000000
vt 0.01000000 0.00000000
vt 0.00750000 0.00250000
vn 0.000000000 -0.000000000 -1.000000000
vn 0.000000000 -0.000000000 -1.000000000
vn 0.000000000 -0.000000000 -1.000000000
f 109/109/109 110/110/110 111/111/111
v 2250.75000000 -476.50000000 274.50000000
v 2250.50000000 -477.25000000 274.50000000
v 2250.75000000 -477.50000000 274.50000000
vt 0.00000000 0.00000000
vt 0.00790569 0.00000000
vt 0.00948683 0.00316228
vn 0.000000000 0.000000000 1.000000000
vn 0.000000000 0.000000000 1.000000000
vn 0.000000000 0.000000000 1.000000000
f 112/112/112 113/113/113 114/114/114
v 2250.75000000 -476.50000000 201.50000000
v 2250.50000000 -477.25000000 201.50000000
v 2250.50000000 -476.75000000 201.50000000
vt 0.00000000 0.00000000
vt 0.00790569 0.00000000
vt 0.00316228 0.00158114
vn 0.000000000 0.000000000 -1.000000000
vn 0.000000000 0.000000000 -1.000000000
vn 0.000000000 0.000000000 -1.000000000
f 115/115/115 116/116/116 117/117/117
v 2250.75000000 -476.50000000 274.50000000
v 2250.50000000 -476.75000000 274.50000000
v 2250.50000000 -477.25000000 274.50000000
vt 0.00000000 0.00000000
vt 0.00353553 0.00000000
vt 0.00707107 0.00353553
vn 0.000000000 0.000000000 1.000000000
vn 0.000000000 0.000000000 1.000000000
vn 0.000000000 0.000000000 1.000000000
f 118/118/118 119/119/119 120/120/120
v 2250.75000000 -476.50000000 201.50000000
v 2349.25000000 -476.50000000 274.50000000
v 2349.25000000 -476.50000000 201.50000000
vt 0.00000000 0.00000000
vt 1.22601998 0.00000000
vt 0.79136149 0.58649126
vn 0.000000000 1.000000000 0.000000000
vn 0.000000000 1.000000000 0.000000000
vn 0.000000000 1.000000000 0.000000000
f 121/121/121 122/122/122 123/123/123
v 2250.75000000 -476.50000000 201.50000000
v 2250.75000000 -476.50000000 274.50000000
v 2349.25000000 -476.50000000 274.50000000
vt 0.00000000 0.00000000
vt 0.73000000 0.00000000
vt 0.73000000 0.98500000
vn 0.000000000 1.000000000 0.000000000
vn 0.000000000 1.000000000 0.000000000
vn 0.000000000 1.000000000 0.000000000
f 124/124/124 125/125/125 126/126/126
v 2349.25000000 -476.50000000 201.50000000
v 2349.50000000 -476.75000000 274.50000000
v 2349.50000000 -476.75000000 201.50000000
vt 0.00000000 0.00000000
vt 0.73000856 0.00000000
vt 0.00001712 0.00353549
vn 0.707106781 0.707106781 0.000000000
vn 0.707106781 0.707106781 0.000000000
vn 0.707106781 0.707106781 0.000000000
f 127/127/127 128/128/128 129/129/129
v 2349.25000000 -476.50000000 201.50000000
v 2349.25000000 -476.50000000 274.50000000
v 2349.50000000 -476.75000000 274.50000000
vt 0.00000000 0.00000000
vt 0.73000000 0.00000000
vt 0.73000000 0.00353553
vn 0.707106781 0.707106781 -0.000000000
vn 0.707106781 0.707106781 -0.000000000
vn 0.707106781 0.707106781 -0.000000000
f 130/130/130 131/131/131 132/132/132
v 2349.50000000 -476.75000000 201.50000000
v 2349.50000000 -477.25000000 274.50000000
v 2349.50000000 -477.25000000 201.50000000
vt 0.00000000 0.00000000
vt 0.73001712 0.00000000
vt 0.00003425 0.00499988
vn 1.000000000 0.000000000 0.000000000
vn 1.000000000 0.000000000 0.000000000
vn 1.000000000 0.000000000 0.000000000
f 133/133/133 134/134/134 135/135/135
v 2349.50000000 -476.75000000 201.50000000
v 2349.50000000 -476.75000000 274.50000000
v 2349.50000000 -477.25000000 274.50000000
vt 0.00000000 0.00000000
vt 0.73000000 0.00000000
vt 0.73000000 0.00500000
vn 1.000000000 0.000000000 -0.000000000
vn 1.000000000 0.000000000 -0.000000000
vn 1.000000000 0.000000000 -0.000000000
f 136/136/136 137/137/137 138/138/138
v 2349.50000000 -477.25000000 201.50000000
v 2349.25000000 -477.50000000 274.50000000
v 2349.25000000 -477.50000000 201.50000000
vt 0.00000000 0.00000000
vt 0.73000856 0.00000000
vt 0.00001712 0.00353549
vn 0.707106781 -0.707106781 0.000000000
vn 0.707106781 -0.707106781 0.000000000
vn 0.707106781 -0.707106781 0.000000000
f 139/139/139 140/140/140 141/141/141
v 2349.50000000 -477.25000000 201.50000000
v 2349.50000000 -477.25000000 274.50000000
v 2349.25000000 -477.50000000 274.50000000
vt 0.00000000 0.00000000
vt 0.73000000 0.00000000
vt 0.73000000 0.00353553
vn 0.707106781 -0.707106781 0.000000000
vn 0.707106781 -0.707106781 0.000000000
vn 0.707106781 -0.707106781 0.000000000
f 142/142/142 143/143/143 144/144/144
v 2349.25000000 -477.50000000 201.50000000
v 2250.75000000 -477.50000000 274.50000000
v 2250.75000000 -477.50000000 201.50000000
vt 0.00000000 0.00000000
vt 1.22601998 0.00000000
vt 0.79136149 0.58649126
vn 0.000000000 -1.000000000 0.000000000
vn 0.000000000 -1.000000000 0.000000000
vn 0.000000000 -1.000000000 0.000000000
f 145/145/145 146/146/146 147/147/147
v 2349.25000000 -477.50000000 201.50000000
v 2349.25000000 -477.50000000 274.50000000
v 2250.75000000 -477.50000000 274.50000000
vt 0.00000000 0.00000000
vt 0.73000000 0.00000000
vt 0.73000000 0.98500000
vn 0.000000000 -1.000000000 0.000000000
vn 0.000000000 -1.000000000 0.000000000
vn 0.000000000 -1.000000000 0.000000000
f 148/148/148 149/149/149 150/150/150
v 2250.75000000 -477.50000000 201.50000000
v 2250.50000000 -477.25000000 274.50000000
v 2250.50000000 -477.25000000 201.50000000
vt 0.00000000 0.00000000
vt 0.73000856 0.00000000
vt 0.00001712 0.00353549
vn -0.707106781 -0.707106781 0.000000000
vn -0.707106781 -0.707106781 0.000000000
vn -0.707106781 -0.707106781 0.000000000
f 151/151/151 152/152/152 153/153/153
v 2250.75000000 -477.50000000 201.50000000
v 2250.75000000 -477.50000000 274.50000000
v 2250.50000000 -477.25000000 274.50000000
vt 0.00000000 0.00000000
vt 0.73000000 0.00000000
vt 0.73000000 0.00353553
vn -0.707106781 -0.707106781 0.000000000
vn -0.707106781 -0.707106781 0.000000000
vn -0.707106781 -0.707106781 0.000000000
f 154/154/154 155/155/155 156/156/156
v 2250.50000000 -477.25000000 201.50000000
v 2250.50000000 -476.75000000 274.50000000
v 2250.50000000 -476.75000000 201.50000000
vt 0.00000000 0.00000000
vt 0.73001712 0.00000000
vt 0.00003425 0.00499988
vn -1.000000000 0.000000000 0.000000000
vn -1.000000000 0.000000000 0.000000000
vn -1.000000000 0.000000000 0.000000000
f 157/157/157 158/158/158 159/159/159
v 2250.50000000 -477.25000000 201.50000000
v 2250.50000000 -477.25000000 274.50000000
v 2250.50000000 -476.75000000 274.50000000
vt 0.00000000 0.00000000
vt 0.73000000 0.00000000
vt 0.73000000 0.00500000
vn -1.000000000 0.000000000 0.000000000
vn -1.000000000 0.000000000 0.000000000
vn -1.000000000 0.000000000 0.000000000
f 160/160/160 161/161/161 162/162/162
v 2250.50000000 -476.75000000 201.50000000
v 2250.75000000 -476.50000000 274.50000000
v 2250.75000000 -476.50000000 201.50000000
vt 0.00000000 0.00000000
vt 0.73000856 0.00000000
vt 0.00001712 0.00353549
vn -0.707106781 0.707106781 0.000000000
vn -0.707106781 0.707106781 0.000000000
vn -0.707106781 0.707106781 0.000000000
f 163/163/163 164/164/164 165/165/165
v 2250.50000000 -476.75000000 201.50000000
v 2250.50000000 -476.75000000 274.50000000
v 2250.75000000 -476.50000000 274.50000000
vt 0.00000000 0.00000000
vt 0.73000000 0.00000000
vt 0.73000000 0.00353553
vn -0.707106781 0.707106781 0.000000000
vn -0.707106781 0.707106781 0.000000000
vn -0.707106781 0.707106781 0.000000000
f 166/166/166 167/167/167 168/168/168
