# Original BusStudyV1; cm; Unreal legacy reflected-Y adapter
g InteriorCeiling
s off
v -561.00000000 109.00000000 291.00000000
v 561.00000000 109.00000000 291.00000000
v 565.00000000 105.00000000 291.00000000
vt 0.00000000 0.00000000
vt 11.22000000 0.00000000
vt 11.26000000 0.04000000
vn 0.000000000 0.000000000 -1.000000000
vn 0.000000000 0.000000000 -1.000000000
vn 0.000000000 0.000000000 -1.000000000
f 1/1/1 2/2/2 3/3/3
v -561.00000000 109.00000000 295.00000000
v 565.00000000 105.00000000 295.00000000
v 561.00000000 109.00000000 295.00000000
vt 0.00000000 0.00000000
vt 11.26007105 0.00000000
vt 11.21992921 0.03985765
vn -0.000000000 0.000000000 1.000000000
vn -0.000000000 0.000000000 1.000000000
vn -0.000000000 0.000000000 1.000000000
f 4/4/4 5/5/5 6/6/6
v -561.00000000 109.00000000 291.00000000
v 565.00000000 105.00000000 291.00000000
v 565.00000000 -105.00000000 291.00000000
vt 0.00000000 0.00000000
vt 11.26007105 0.00000000
vt 11.26753104 2.09998675
vn 0.000000000 0.000000000 -1.000000000
vn 0.000000000 0.000000000 -1.000000000
vn 0.000000000 0.000000000 -1.000000000
f 7/7/7 8/8/8 9/9/9
v -561.00000000 109.00000000 295.00000000
v 565.00000000 -105.00000000 295.00000000
v 565.00000000 105.00000000 295.00000000
vt 0.00000000 0.00000000
vt 11.46155312 0.00000000
vt 11.06945967 2.06307119
vn 0.000000000 0.000000000 1.000000000
vn 0.000000000 0.000000000 1.000000000
vn 0.000000000 0.000000000 1.000000000
f 10/10/10 11/11/11 12/12/12
v -561.00000000 109.00000000 291.00000000
v 565.00000000 -105.00000000 291.00000000
v 561.00000000 -109.00000000 291.00000000
vt 0.00000000 0.00000000
vt 11.46155312 0.00000000
vt 11.42972498 0.04676504
vn 0.000000000 0.000000000 -1.000000000
vn 0.000000000 0.000000000 -1.000000000
vn 0.000000000 0.000000000 -1.000000000
f 13/13/13 14/14/14 15/15/15
v -561.00000000 109.00000000 295.00000000
v 561.00000000 -109.00000000 295.00000000
v 565.00000000 -105.00000000 295.00000000
vt 0.00000000 0.00000000
vt 11.42982065 0.00000000
vt 11.46145719 0.04689487
vn 0.000000000 0.000000000 1.000000000
vn 0.000000000 0.000000000 1.000000000
vn 0.000000000 0.000000000 1.000000000
f 16/16/16 17/17/17 18/18/18
v -561.00000000 109.00000000 291.00000000
v 561.00000000 -109.00000000 291.00000000
v -561.00000000 -109.00000000 291.00000000
vt 0.00000000 0.00000000
vt 11.42982065 0.00000000
vt 0.41578955 2.13998109
vn 0.000000000 0.000000000 -1.000000000
vn 0.000000000 0.000000000 -1.000000000
vn 0.000000000 0.000000000 -1.000000000
f 19/19/19 20/20/20 21/21/21
v -561.00000000 109.00000000 295.00000000
v -561.00000000 -109.00000000 295.00000000
v 561.00000000 -109.00000000 295.00000000
vt 0.00000000 0.00000000
vt 2.18000000 0.00000000
vt 2.18000000 11.22000000
vn 0.000000000 0.000000000 1.000000000
vn 0.000000000 0.000000000 1.000000000
vn 0.000000000 0.000000000 1.000000000
f 22/22/22 23/23/23 24/24/24
v -561.00000000 109.00000000 291.00000000
v -561.00000000 -109.00000000 291.00000000
v -565.00000000 -105.00000000 291.00000000
vt 0.00000000 0.00000000
vt 2.18000000 0.00000000
vt 2.14000000 0.04000000
vn 0.000000000 -0.000000000 -1.000000000
vn 0.000000000 -0.000000000 -1.000000000
vn 0.000000000 -0.000000000 -1.000000000
f 25/25/25 26/26/26 27/27/27
v -561.00000000 109.00000000 295.00000000
v -565.00000000 -105.00000000 295.00000000
v -561.00000000 -109.00000000 295.00000000
vt 0.00000000 0.00000000
vt 2.14037380 0.00000000
vt 2.17961928 0.04074055
vn 0.000000000 0.000000000 1.000000000
vn 0.000000000 0.000000000 1.000000000
vn 0.000000000 0.000000000 1.000000000
f 28/28/28 29/29/29 30/30/30
v -561.00000000 109.00000000 291.00000000
v -565.00000000 -105.00000000 291.00000000
v -565.00000000 105.00000000 291.00000000
vt 0.00000000 0.00000000
vt 2.14037380 0.00000000
vt 0.04074055 0.03924548
vn 0.000000000 0.000000000 -1.000000000
vn 0.000000000 0.000000000 -1.000000000
vn 0.000000000 0.000000000 -1.000000000
f 31/31/31 32/32/32 33/33/33
v -561.00000000 109.00000000 295.00000000
v -565.00000000 105.00000000 295.00000000
v -565.00000000 -105.00000000 295.00000000
vt 0.00000000 0.00000000
vt 0.05656854 0.00000000
vt 1.54149278 1.48492424
vn 0.000000000 0.000000000 1.000000000
vn 0.000000000 0.000000000 1.000000000
vn 0.000000000 0.000000000 1.000000000
f 34/34/34 35/35/35 36/36/36
v -561.00000000 109.00000000 291.00000000
v 561.00000000 109.00000000 295.00000000
v 561.00000000 109.00000000 291.00000000
vt 0.00000000 0.00000000
vt 11.22007130 0.00000000
vt 11.21992870 0.03999975
vn 0.000000000 1.000000000 0.000000000
vn 0.000000000 1.000000000 0.000000000
vn 0.000000000 1.000000000 0.000000000
f 37/37/37 38/38/38 39/39/39
v -561.00000000 109.00000000 291.00000000
v -561.00000000 109.00000000 295.00000000
v 561.00000000 109.00000000 295.00000000
vt 0.00000000 0.00000000
vt 0.04000000 0.00000000
vt 0.04000000 11.22000000
vn 0.000000000 1.000000000 0.000000000
vn 0.000000000 1.000000000 0.000000000
vn 0.000000000 1.000000000 0.000000000
f 40/40/40 41/41/41 42/42/42
v 561.00000000 109.00000000 291.00000000
v 565.00000000 105.00000000 295.00000000
v 565.00000000 105.00000000 291.00000000
vt 0.00000000 0.00000000
vt 0.06928203 0.00000000
vt 0.04618802 0.03265986
vn 0.707106781 0.707106781 0.000000000
vn 0.707106781 0.707106781 0.000000000
vn 0.707106781 0.707106781 0.000000000
f 43/43/43 44/44/44 45/45/45
v 561.00000000 109.00000000 291.00000000
v 561.00000000 109.00000000 295.00000000
v 565.00000000 105.00000000 295.00000000
vt 0.00000000 0.00000000
vt 0.04000000 0.00000000
vt 0.04000000 0.05656854
vn 0.707106781 0.707106781 -0.000000000
vn 0.707106781 0.707106781 -0.000000000
vn 0.707106781 0.707106781 -0.000000000
f 46/46/46 47/47/47 48/48/48
v 565.00000000 105.00000000 291.00000000
v 565.00000000 -105.00000000 295.00000000
v 565.00000000 -105.00000000 291.00000000
vt 0.00000000 0.00000000
vt 2.10038092 0.00000000
vt 2.09961915 0.03999275
vn 1.000000000 0.000000000 0.000000000
vn 1.000000000 0.000000000 0.000000000
vn 1.000000000 0.000000000 0.000000000
f 49/49/49 50/50/50 51/51/51
v 565.00000000 105.00000000 291.00000000
v 565.00000000 105.00000000 295.00000000
v 565.00000000 -105.00000000 295.00000000
vt 0.00000000 0.00000000
vt 0.04000000 0.00000000
vt 0.04000000 2.10000000
vn 1.000000000 0.000000000 -0.000000000
vn 1.000000000 0.000000000 -0.000000000
vn 1.000000000 0.000000000 -0.000000000
f 52/52/52 53/53/53 54/54/54
v 565.00000000 -105.00000000 291.00000000
v 561.00000000 -109.00000000 295.00000000
v 561.00000000 -109.00000000 291.00000000
vt 0.00000000 0.00000000
vt 0.06928203 0.00000000
vt 0.04618802 0.03265986
vn 0.707106781 -0.707106781 0.000000000
vn 0.707106781 -0.707106781 0.000000000
vn 0.707106781 -0.707106781 0.000000000
f 55/55/55 56/56/56 57/57/57
v 565.00000000 -105.00000000 291.00000000
v 565.00000000 -105.00000000 295.00000000
v 561.00000000 -109.00000000 295.00000000
vt 0.00000000 0.00000000
vt 0.04000000 0.00000000
vt 0.04000000 0.05656854
vn 0.707106781 -0.707106781 0.000000000
vn 0.707106781 -0.707106781 0.000000000
vn 0.707106781 -0.707106781 0.000000000
f 58/58/58 59/59/59 60/60/60
v 561.00000000 -109.00000000 291.00000000
v -561.00000000 -109.00000000 295.00000000
v -561.00000000 -109.00000000 291.00000000
vt 0.00000000 0.00000000
vt 11.22007130 0.00000000
vt 11.21992870 0.03999975
vn 0.000000000 -1.000000000 0.000000000
vn 0.000000000 -1.000000000 0.000000000
vn 0.000000000 -1.000000000 0.000000000
f 61/61/61 62/62/62 63/63/63
v 561.00000000 -109.00000000 291.00000000
v 561.00000000 -109.00000000 295.00000000
v -561.00000000 -109.00000000 295.00000000
vt 0.00000000 0.00000000
vt 0.04000000 0.00000000
vt 0.04000000 11.22000000
vn 0.000000000 -1.000000000 0.000000000
vn 0.000000000 -1.000000000 0.000000000
vn 0.000000000 -1.000000000 0.000000000
f 64/64/64 65/65/65 66/66/66
v -561.00000000 -109.00000000 291.00000000
v -565.00000000 -105.00000000 295.00000000
v -565.00000000 -105.00000000 291.00000000
vt 0.00000000 0.00000000
vt 0.06928203 0.00000000
vt 0.04618802 0.03265986
vn -0.707106781 -0.707106781 0.000000000
vn -0.707106781 -0.707106781 0.000000000
vn -0.707106781 -0.707106781 0.000000000
f 67/67/67 68/68/68 69/69/69
v -561.00000000 -109.00000000 291.00000000
v -561.00000000 -109.00000000 295.00000000
v -565.00000000 -105.00000000 295.00000000
vt 0.00000000 0.00000000
vt 0.04000000 0.00000000
vt 0.04000000 0.05656854
vn -0.707106781 -0.707106781 0.000000000
vn -0.707106781 -0.707106781 0.000000000
vn -0.707106781 -0.707106781 0.000000000
f 70/70/70 71/71/71 72/72/72
v -565.00000000 -105.00000000 291.00000000
v -565.00000000 105.00000000 295.00000000
v -565.00000000 105.00000000 291.00000000
vt 0.00000000 0.00000000
vt 2.10038092 0.00000000
vt 2.09961915 0.03999275
vn -1.000000000 0.000000000 0.000000000
vn -1.000000000 0.000000000 0.000000000
vn -1.000000000 0.000000000 0.000000000
f 73/73/73 74/74/74 75/75/75
v -565.00000000 -105.00000000 291.00000000
v -565.00000000 -105.00000000 295.00000000
v -565.00000000 105.00000000 295.00000000
vt 0.00000000 0.00000000
vt 0.04000000 0.00000000
vt 0.04000000 2.10000000
vn -1.000000000 0.000000000 0.000000000
vn -1.000000000 0.000000000 0.000000000
vn -1.000000000 0.000000000 0.000000000
f 76/76/76 77/77/77 78/78/78
v -565.00000000 105.00000000 291.00000000
v -561.00000000 109.00000000 295.00000000
v -561.00000000 109.00000000 291.00000000
vt 0.00000000 0.00000000
vt 0.06928203 0.00000000
vt 0.04618802 0.03265986
vn -0.707106781 0.707106781 0.000000000
vn -0.707106781 0.707106781 0.000000000
vn -0.707106781 0.707106781 0.000000000
f 79/79/79 80/80/80 81/81/81
v -565.00000000 105.00000000 291.00000000
v -565.00000000 105.00000000 295.00000000
v -561.00000000 109.00000000 295.00000000
vt 0.00000000 0.00000000
vt 0.04000000 0.00000000
vt 0.04000000 0.05656854
vn -0.707106781 0.707106781 0.000000000
vn -0.707106781 0.707106781 0.000000000
vn -0.707106781 0.707106781 0.000000000
f 82/82/82 83/83/83 84/84/84
g InteriorLowerSide_-1
s off
v -564.25000000 116.50000000 94.50000000
v 564.25000000 116.50000000 94.50000000
v 565.00000000 115.75000000 94.50000000
vt 0.00000000 0.00000000
vt 11.28500000 0.00000000
vt 11.29250000 0.00750000
vn 0.000000000 0.000000000 -1.000000000
vn 0.000000000 0.000000000 -1.000000000
vn 0.000000000 0.000000000 -1.000000000
f 85/85/85 86/86/86 87/87/87
v -564.25000000 116.50000000 155.50000000
v 565.00000000 115.75000000 155.50000000
v 564.25000000 116.50000000 155.50000000
vt 0.00000000 0.00000000
vt 11.29250249 0.00000000
vt 11.28499751 0.00749502
vn -0.000000000 0.000000000 1.000000000
vn -0.000000000 0.000000000 1.000000000
vn -0.000000000 0.000000000 1.000000000
f 88/88/88 89/89/89 90/90/90
v -564.25000000 116.50000000 94.50000000
v 565.00000000 115.75000000 94.50000000
v 565.00000000 114.25000000 94.50000000
vt 0.00000000 0.00000000
vt 11.29250249 0.00000000
vt 11.29251245 0.01500000
vn 0.000000000 0.000000000 -1.000000000
vn 0.000000000 0.000000000 -1.000000000
vn 0.000000000 0.000000000 -1.000000000
f 91/91/91 92/92/92 93/93/93
v -564.25000000 116.50000000 155.50000000
v 565.00000000 114.25000000 155.50000000
v 565.00000000 115.75000000 155.50000000
vt 0.00000000 0.00000000
vt 11.29252242 0.00000000
vt 11.29249253 0.01499997
vn 0.000000000 0.000000000 1.000000000
vn 0.000000000 0.000000000 1.000000000
vn 0.000000000 0.000000000 1.000000000
f 94/94/94 95/95/95 96/96/96
v -564.25000000 116.50000000 94.50000000
v 565.00000000 114.25000000 94.50000000
v 564.25000000 113.50000000 94.50000000
vt 0.00000000 0.00000000
vt 11.29252242 0.00000000
vt 11.28503737 0.00751493
vn 0.000000000 0.000000000 -1.000000000
vn 0.000000000 0.000000000 -1.000000000
vn 0.000000000 0.000000000 -1.000000000
f 97/97/97 98/98/98 99/99/99
v -564.25000000 116.50000000 155.50000000
v 564.25000000 113.50000000 155.50000000
v 565.00000000 114.25000000 155.50000000
vt 0.00000000 0.00000000
vt 11.28503988 0.00000000
vt 11.29251991 0.00751991
vn 0.000000000 0.000000000 1.000000000
vn 0.000000000 0.000000000 1.000000000
vn 0.000000000 0.000000000 1.000000000
f 100/100/100 101/101/101 102/102/102
v -564.25000000 116.50000000 94.50000000
v 564.25000000 113.50000000 94.50000000
v -564.25000000 113.50000000 94.50000000
vt 0.00000000 0.00000000
vt 11.28503988 0.00000000
vt 0.00007975 0.02999989
vn 0.000000000 0.000000000 -1.000000000
vn 0.000000000 0.000000000 -1.000000000
vn 0.000000000 0.000000000 -1.000000000
f 103/103/103 104/104/104 105/105/105
v -564.25000000 116.50000000 155.50000000
v -564.25000000 113.50000000 155.50000000
v 564.25000000 113.50000000 155.50000000
vt 0.00000000 0.00000000
vt 0.03000000 0.00000000
vt 0.03000000 11.28500000
vn 0.000000000 0.000000000 1.000000000
vn 0.000000000 0.000000000 1.000000000
vn 0.000000000 0.000000000 1.000000000
f 106/106/106 107/107/107 108/108/108
v -564.25000000 116.50000000 94.50000000
v -564.25000000 113.50000000 94.50000000
v -565.00000000 114.25000000 94.50000000
vt 0.00000000 0.00000000
vt 0.03000000 0.00000000
vt 0.02250000 0.00750000
vn 0.000000000 -0.000000000 -1.000000000
vn 0.000000000 -0.000000000 -1.000000000
vn 0.000000000 -0.000000000 -1.000000000
f 109/109/109 110/110/110 111/111/111
v -564.25000000 116.50000000 155.50000000
v -565.00000000 114.25000000 155.50000000
v -564.25000000 113.50000000 155.50000000
vt 0.00000000 0.00000000
vt 0.02371708 0.00000000
vt 0.02846050 0.00948683
vn 0.000000000 0.000000000 1.000000000
vn 0.000000000 0.000000000 1.000000000
vn 0.000000000 0.000000000 1.000000000
f 112/112/112 113/113/113 114/114/114
v -564.25000000 116.50000000 94.50000000
v -565.00000000 114.25000000 94.50000000
v -565.00000000 115.75000000 94.50000000
vt 0.00000000 0.00000000
vt 0.02371708 0.00000000
vt 0.00948683 0.00474342
vn 0.000000000 0.000000000 -1.000000000
vn 0.000000000 0.000000000 -1.000000000
vn 0.000000000 0.000000000 -1.000000000
f 115/115/115 116/116/116 117/117/117
v -564.25000000 116.50000000 155.50000000
v -565.00000000 115.75000000 155.50000000
v -565.00000000 114.25000000 155.50000000
vt 0.00000000 0.00000000
vt 0.01060660 0.00000000
vt 0.02121320 0.01060660
vn 0.000000000 0.000000000 1.000000000
vn 0.000000000 0.000000000 1.000000000
vn 0.000000000 0.000000000 1.000000000
f 118/118/118 119/119/119 120/120/120
v -564.25000000 116.50000000 94.50000000
v 564.25000000 116.50000000 155.50000000
v 564.25000000 116.50000000 94.50000000
vt 0.00000000 0.00000000
vt 11.30147446 0.00000000
vt 11.26854955 0.60911079
vn 0.000000000 1.000000000 0.000000000
vn 0.000000000 1.000000000 0.000000000
vn 0.000000000 1.000000000 0.000000000
f 121/121/121 122/122/122 123/123/123
v -564.25000000 116.50000000 94.50000000
v -564.25000000 116.50000000 155.50000000
v 564.25000000 116.50000000 155.50000000
vt 0.00000000 0.00000000
vt 0.61000000 0.00000000
vt 0.61000000 11.28500000
vn 0.000000000 1.000000000 0.000000000
vn 0.000000000 1.000000000 0.000000000
vn 0.000000000 1.000000000 0.000000000
f 124/124/124 125/125/125 126/126/126
v 564.25000000 116.50000000 94.50000000
v 565.00000000 115.75000000 155.50000000
v 565.00000000 115.75000000 94.50000000
vt 0.00000000 0.00000000
vt 0.61009221 0.00000000
vt 0.00018440 0.01060500
vn 0.707106781 0.707106781 0.000000000
vn 0.707106781 0.707106781 0.000000000
vn 0.707106781 0.707106781 0.000000000
f 127/127/127 128/128/128 129/129/129
v 564.25000000 116.50000000 94.50000000
v 564.25000000 116.50000000 155.50000000
v 565.00000000 115.75000000 155.50000000
vt 0.00000000 0.00000000
vt 0.61000000 0.00000000
vt 0.61000000 0.01060660
vn 0.707106781 0.707106781 -0.000000000
vn 0.707106781 0.707106781 -0.000000000
vn 0.707106781 0.707106781 -0.000000000
f 130/130/130 131/131/131 132/132/132
v 565.00000000 115.75000000 94.50000000
v 565.00000000 114.25000000 155.50000000
v 565.00000000 114.25000000 94.50000000
vt 0.00000000 0.00000000
vt 0.61018440 0.00000000
vt 0.00036874 0.01499547
vn 1.000000000 0.000000000 0.000000000
vn 1.000000000 0.000000000 0.000000000
vn 1.000000000 0.000000000 0.000000000
f 133/133/133 134/134/134 135/135/135
v 565.00000000 115.75000000 94.50000000
v 565.00000000 115.75000000 155.50000000
v 565.00000000 114.25000000 155.50000000
vt 0.00000000 0.00000000
vt 0.61000000 0.00000000
vt 0.61000000 0.01500000
vn 1.000000000 0.000000000 -0.000000000
vn 1.000000000 0.000000000 -0.000000000
vn 1.000000000 0.000000000 -0.000000000
f 136/136/136 137/137/137 138/138/138
v 565.00000000 114.25000000 94.50000000
v 564.25000000 113.50000000 155.50000000
v 564.25000000 113.50000000 94.50000000
vt 0.00000000 0.00000000
vt 0.61009221 0.00000000
vt 0.00018440 0.01060500
vn 0.707106781 -0.707106781 0.000000000
vn 0.707106781 -0.707106781 0.000000000
vn 0.707106781 -0.707106781 0.000000000
f 139/139/139 140/140/140 141/141/141
v 565.00000000 114.25000000 94.50000000
v 565.00000000 114.25000000 155.50000000
v 564.25000000 113.50000000 155.50000000
vt 0.00000000 0.00000000
vt 0.61000000 0.00000000
vt 0.61000000 0.01060660
vn 0.707106781 -0.707106781 0.000000000
vn 0.707106781 -0.707106781 0.000000000
vn 0.707106781 -0.707106781 0.000000000
f 142/142/142 143/143/143 144/144/144
v 564.25000000 113.50000000 94.50000000
v -564.25000000 113.50000000 155.50000000
v -564.25000000 113.50000000 94.50000000
vt 0.00000000 0.00000000
vt 11.30147446 0.00000000
vt 11.26854955 0.60911079
vn 0.000000000 -1.000000000 0.000000000
vn 0.000000000 -1.000000000 0.000000000
vn 0.000000000 -1.000000000 0.000000000
f 145/145/145 146/146/146 147/147/147
v 564.25000000 113.50000000 94.50000000
v 564.25000000 113.50000000 155.50000000
v -564.25000000 113.50000000 155.50000000
vt 0.00000000 0.00000000
vt 0.61000000 0.00000000
vt 0.61000000 11.28500000
vn 0.000000000 -1.000000000 0.000000000
vn 0.000000000 -1.000000000 0.000000000
vn 0.000000000 -1.000000000 0.000000000
f 148/148/148 149/149/149 150/150/150
v -564.25000000 113.50000000 94.50000000
v -565.00000000 114.25000000 155.50000000
v -565.00000000 114.25000000 94.50000000
vt 0.00000000 0.00000000
vt 0.61009221 0.00000000
vt 0.00018440 0.01060500
vn -0.707106781 -0.707106781 0.000000000
vn -0.707106781 -0.707106781 0.000000000
vn -0.707106781 -0.707106781 0.000000000
f 151/151/151 152/152/152 153/153/153
v -564.25000000 113.50000000 94.50000000
v -564.25000000 113.50000000 155.50000000
v -565.00000000 114.25000000 155.50000000
vt 0.00000000 0.00000000
vt 0.61000000 0.00000000
vt 0.61000000 0.01060660
vn -0.707106781 -0.707106781 0.000000000
vn -0.707106781 -0.707106781 0.000000000
vn -0.707106781 -0.707106781 0.000000000
f 154/154/154 155/155/155 156/156/156
v -565.00000000 114.25000000 94.50000000
v -565.00000000 115.75000000 155.50000000
v -565.00000000 115.75000000 94.50000000
vt 0.00000000 0.00000000
vt 0.61018440 0.00000000
vt 0.00036874 0.01499547
vn -1.000000000 0.000000000 0.000000000
vn -1.000000000 0.000000000 0.000000000
vn -1.000000000 0.000000000 0.000000000
f 157/157/157 158/158/158 159/159/159
v -565.00000000 114.25000000 94.50000000
v -565.00000000 114.25000000 155.50000000
v -565.00000000 115.75000000 155.50000000
vt 0.00000000 0.00000000
vt 0.61000000 0.00000000
vt 0.61000000 0.01500000
vn -1.000000000 0.000000000 0.000000000
vn -1.000000000 0.000000000 0.000000000
vn -1.000000000 0.000000000 0.000000000
f 160/160/160 161/161/161 162/162/162
v -565.00000000 115.75000000 94.50000000
v -564.25000000 116.50000000 155.50000000
v -564.25000000 116.50000000 94.50000000
vt 0.00000000 0.00000000
vt 0.61009221 0.00000000
vt 0.00018440 0.01060500
vn -0.707106781 0.707106781 0.000000000
vn -0.707106781 0.707106781 0.000000000
vn -0.707106781 0.707106781 0.000000000
f 163/163/163 164/164/164 165/165/165
v -565.00000000 115.75000000 94.50000000
v -565.00000000 115.75000000 155.50000000
v -564.25000000 116.50000000 155.50000000
vt 0.00000000 0.00000000
vt 0.61000000 0.00000000
vt 0.61000000 0.01060660
vn -0.707106781 0.707106781 0.000000000
vn -0.707106781 0.707106781 0.000000000
vn -0.707106781 0.707106781 0.000000000
f 166/166/166 167/167/167 168/168/168
g Wheelhouse_-1_-360
s off
v -420.00000000 116.50000000 93.00000000
v -300.00000000 116.50000000 93.00000000
v -292.00000000 108.50000000 93.00000000
vt 0.00000000 0.00000000
vt 1.20000000 0.00000000
vt 1.28000000 0.08000000
vn 0.000000000 0.000000000 -1.000000000
vn 0.000000000 0.000000000 -1.000000000
vn 0.000000000 0.000000000 -1.000000000
f 169/169/169 170/170/170 171/171/171
v -420.00000000 116.50000000 127.00000000
v -292.00000000 108.50000000 127.00000000
v -300.00000000 116.50000000 127.00000000
vt 0.00000000 0.00000000
vt 1.28249756 0.00000000
vt 1.19766309 0.07485394
vn -0.000000000 0.000000000 1.000000000
vn -0.000000000 0.000000000 1.000000000
vn -0.000000000 0.000000000 1.000000000
f 172/172/172 173/173/173 174/174/174
v -420.00000000 116.50000000 93.00000000
v -292.00000000 108.50000000 93.00000000
v -292.00000000 83.50000000 93.00000000
vt 0.00000000 0.00000000
vt 1.28249756 0.00000000
vt 1.29809213 0.24951314
vn 0.000000000 0.000000000 -1.000000000
vn 0.000000000 0.000000000 -1.000000000
vn 0.000000000 0.000000000 -1.000000000
f 175/175/175 176/176/176 177/177/177
v -420.00000000 116.50000000 127.00000000
v -292.00000000 83.50000000 127.00000000
v -292.00000000 108.50000000 127.00000000
vt 0.00000000 0.00000000
vt 1.32185476 0.00000000
vt 1.25944245 0.24208409
vn 0.000000000 0.000000000 1.000000000
vn 0.000000000 0.000000000 1.000000000
vn 0.000000000 0.000000000 1.000000000
f 178/178/178 179/179/179 180/180/180
v -420.00000000 116.50000000 93.00000000
v -292.00000000 83.50000000 93.00000000
v -300.00000000 75.50000000 93.00000000
vt 0.00000000 0.00000000
vt 1.32185476 0.00000000
vt 1.26435979 0.09743884
vn 0.000000000 0.000000000 -1.000000000
vn 0.000000000 0.000000000 -1.000000000
vn 0.000000000 0.000000000 -1.000000000
f 181/181/181 182/182/182 183/183/183
v -420.00000000 116.50000000 127.00000000
v -300.00000000 75.50000000 127.00000000
v -292.00000000 83.50000000 127.00000000
vt 0.00000000 0.00000000
vt 1.26810883 0.00000000
vt 1.31794682 0.10156857
vn 0.000000000 0.000000000 1.000000000
vn 0.000000000 0.000000000 1.000000000
vn 0.000000000 0.000000000 1.000000000
f 184/184/184 185/185/185 186/186/186
v -420.00000000 116.50000000 93.00000000
v -300.00000000 75.50000000 93.00000000
v -420.00000000 75.50000000 93.00000000
vt 0.00000000 0.00000000
vt 1.26810883 0.00000000
vt 0.13255960 0.38797932
vn 0.000000000 0.000000000 -1.000000000
vn 0.000000000 0.000000000 -1.000000000
vn 0.000000000 0.000000000 -1.000000000
f 187/187/187 188/188/188 189/189/189
v -420.00000000 116.50000000 127.00000000
v -420.00000000 75.50000000 127.00000000
v -300.00000000 75.50000000 127.00000000
vt 0.00000000 0.00000000
vt 0.41000000 0.00000000
vt 0.41000000 1.20000000
vn 0.000000000 0.000000000 1.000000000
vn 0.000000000 0.000000000 1.000000000
vn 0.000000000 0.000000000 1.000000000
f 190/190/190 191/191/191 192/192/192
v -420.00000000 116.50000000 93.00000000
v -420.00000000 75.50000000 93.00000000
v -428.00000000 83.50000000 93.00000000
vt 0.00000000 0.00000000
vt 0.41000000 0.00000000
vt 0.33000000 0.08000000
vn 0.000000000 -0.000000000 -1.000000000
vn 0.000000000 -0.000000000 -1.000000000
vn 0.000000000 -0.000000000 -1.000000000
f 193/193/193 194/194/194 195/195/195
v -420.00000000 116.50000000 127.00000000
v -428.00000000 83.50000000 127.00000000
v -420.00000000 75.50000000 127.00000000
vt 0.00000000 0.00000000
vt 0.33955854 0.00000000
vt 0.39845854 0.09659601
vn 0.000000000 0.000000000 1.000000000
vn 0.000000000 0.000000000 1.000000000
vn 0.000000000 0.000000000 1.000000000
f 196/196/196 197/197/197 198/198/198
v -420.00000000 116.50000000 93.00000000
v -428.00000000 83.50000000 93.00000000
v -428.00000000 108.50000000 93.00000000
vt 0.00000000 0.00000000
vt 0.33955854 0.00000000
vt 0.09659601 0.05890001
vn 0.000000000 0.000000000 -1.000000000
vn 0.000000000 0.000000000 -1.000000000
vn 0.000000000 0.000000000 -1.000000000
f 199/199/199 200/200/200 201/201/201
v -420.00000000 116.50000000 127.00000000
v -428.00000000 108.50000000 127.00000000
v -428.00000000 83.50000000 127.00000000
vt 0.00000000 0.00000000
vt 0.11313708 0.00000000
vt 0.28991378 0.17677670
vn 0.000000000 0.000000000 1.000000000
vn 0.000000000 0.000000000 1.000000000
vn 0.000000000 0.000000000 1.000000000
f 202/202/202 203/203/203 204/204/204
v -420.00000000 116.50000000 93.00000000
v -300.00000000 116.50000000 127.00000000
v -300.00000000 116.50000000 93.00000000
vt 0.00000000 0.00000000
vt 1.24723695 0.00000000
vt 1.15455207 0.32712309
vn 0.000000000 1.000000000 0.000000000
vn 0.000000000 1.000000000 0.000000000
vn 0.000000000 1.000000000 0.000000000
f 205/205/205 206/206/206 207/207/207
v -420.00000000 116.50000000 93.00000000
v -420.00000000 116.50000000 127.00000000
v -300.00000000 116.50000000 127.00000000
vt 0.00000000 0.00000000
vt 0.34000000 0.00000000
vt 0.34000000 1.20000000
vn 0.000000000 1.000000000 0.000000000
vn 0.000000000 1.000000000 0.000000000
vn 0.000000000 1.000000000 0.000000000
f 208/208/208 209/209/209 210/210/210
v -300.00000000 116.50000000 93.00000000
v -292.00000000 108.50000000 127.00000000
v -292.00000000 108.50000000 93.00000000
vt 0.00000000 0.00000000
vt 0.35832946 0.00000000
vt 0.03572132 0.10734984
vn 0.707106781 0.707106781 0.000000000
vn 0.707106781 0.707106781 0.000000000
vn 0.707106781 0.707106781 0.000000000
f 211/211/211 212/212/212 213/213/213
v -300.00000000 116.50000000 93.00000000
v -300.00000000 116.50000000 127.00000000
v -292.00000000 108.50000000 127.00000000
vt 0.00000000 0.00000000
vt 0.34000000 0.00000000
vt 0.34000000 0.11313708
vn 0.707106781 0.707106781 -0.000000000
vn 0.707106781 0.707106781 -0.000000000
vn 0.707106781 0.707106781 -0.000000000
f 214/214/214 215/215/215 216/216/216
v -292.00000000 108.50000000 93.00000000
v -292.00000000 83.50000000 127.00000000
v -292.00000000 83.50000000 93.00000000
vt 0.00000000 0.00000000
vt 0.42201896 0.00000000
vt 0.14809761 0.20141275
vn 1.000000000 0.000000000 0.000000000
vn 1.000000000 0.000000000 0.000000000
vn 1.000000000 0.000000000 0.000000000
f 217/217/217 218/218/218 219/219/219
v -292.00000000 108.50000000 93.00000000
v -292.00000000 108.50000000 127.00000000
v -292.00000000 83.50000000 127.00000000
vt 0.00000000 0.00000000
vt 0.34000000 0.00000000
vt 0.34000000 0.25000000
vn 1.000000000 0.000000000 -0.000000000
vn 1.000000000 0.000000000 -0.000000000
vn 1.000000000 0.000000000 -0.000000000
f 220/220/220 221/221/221 222/222/222
v -292.00000000 83.50000000 93.00000000
v -300.00000000 75.50000000 127.00000000
v -300.00000000 75.50000000 93.00000000
vt 0.00000000 0.00000000
vt 0.35832946 0.00000000
vt 0.03572132 0.10734984
vn 0.707106781 -0.707106781 0.000000000
vn 0.707106781 -0.707106781 0.000000000
vn 0.707106781 -0.707106781 0.000000000
f 223/223/223 224/224/224 225/225/225
v -292.00000000 83.50000000 93.00000000
v -292.00000000 83.50000000 127.00000000
v -300.00000000 75.50000000 127.00000000
vt 0.00000000 0.00000000
vt 0.34000000 0.00000000
vt 0.34000000 0.11313708
vn 0.707106781 -0.707106781 0.000000000
vn 0.707106781 -0.707106781 0.000000000
vn 0.707106781 -0.707106781 0.000000000
f 226/226/226 227/227/227 228/228/228
v -300.00000000 75.50000000 93.00000000
v -420.00000000 75.50000000 127.00000000
v -420.00000000 75.50000000 93.00000000
vt 0.00000000 0.00000000
vt 1.24723695 0.00000000
vt 1.15455207 0.32712309
vn 0.000000000 -1.000000000 0.000000000
vn 0.000000000 -1.000000000 0.000000000
vn 0.000000000 -1.000000000 0.000000000
f 229/229/229 230/230/230 231/231/231
v -300.00000000 75.50000000 93.00000000
v -300.00000000 75.50000000 127.00000000
v -420.00000000 75.50000000 127.00000000
vt 0.00000000 0.00000000
vt 0.34000000 0.00000000
vt 0.34000000 1.20000000
vn 0.000000000 -1.000000000 0.000000000
vn 0.000000000 -1.000000000 0.000000000
vn 0.000000000 -1.000000000 0.000000000
f 232/232/232 233/233/233 234/234/234
v -420.00000000 75.50000000 93.00000000
v -428.00000000 83.50000000 127.00000000
v -428.00000000 83.50000000 93.00000000
vt 0.00000000 0.00000000
vt 0.35832946 0.00000000
vt 0.03572132 0.10734984
vn -0.707106781 -0.707106781 0.000000000
vn -0.707106781 -0.707106781 0.000000000
vn -0.707106781 -0.707106781 0.000000000
f 235/235/235 236/236/236 237/237/237
v -420.00000000 75.50000000 93.00000000
v -420.00000000 75.50000000 127.00000000
v -428.00000000 83.50000000 127.00000000
vt 0.00000000 0.00000000
vt 0.34000000 0.00000000
vt 0.34000000 0.11313708
vn -0.707106781 -0.707106781 0.000000000
vn -0.707106781 -0.707106781 0.000000000
vn -0.707106781 -0.707106781 0.000000000
f 238/238/238 239/239/239 240/240/240
v -428.00000000 83.50000000 93.00000000
v -428.00000000 108.50000000 127.00000000
v -428.00000000 108.50000000 93.00000000
vt 0.00000000 0.00000000
vt 0.42201896 0.00000000
vt 0.14809761 0.20141275
vn -1.000000000 0.000000000 0.000000000
vn -1.000000000 0.000000000 0.000000000
vn -1.000000000 0.000000000 0.000000000
f 241/241/241 242/242/242 243/243/243
v -428.00000000 83.50000000 93.00000000
v -428.00000000 83.50000000 127.00000000
v -428.00000000 108.50000000 127.00000000
vt 0.00000000 0.00000000
vt 0.34000000 0.00000000
vt 0.34000000 0.25000000
vn -1.000000000 0.000000000 0.000000000
vn -1.000000000 0.000000000 0.000000000
vn -1.000000000 0.000000000 0.000000000
f 244/244/244 245/245/245 246/246/246
v -428.00000000 108.50000000 93.00000000
v -420.00000000 116.50000000 127.00000000
v -420.00000000 116.50000000 93.00000000
vt 0.00000000 0.00000000
vt 0.35832946 0.00000000
vt 0.03572132 0.10734984
vn -0.707106781 0.707106781 0.000000000
vn -0.707106781 0.707106781 0.000000000
vn -0.707106781 0.707106781 0.000000000
f 247/247/247 248/248/248 249/249/249
v -428.00000000 108.50000000 93.00000000
v -428.00000000 108.50000000 127.00000000
v -420.00000000 116.50000000 127.00000000
vt 0.00000000 0.00000000
vt 0.34000000 0.00000000
vt 0.34000000 0.11313708
vn -0.707106781 0.707106781 0.000000000
vn -0.707106781 0.707106781 0.000000000
vn -0.707106781 0.707106781 0.000000000
f 250/250/250 251/251/251 252/252/252
g Wheelhouse_-1_360
s off
v 300.00000000 116.50000000 93.00000000
v 420.00000000 116.50000000 93.00000000
v 428.00000000 108.50000000 93.00000000
vt 0.00000000 0.00000000
vt 1.20000000 0.00000000
vt 1.28000000 0.08000000
vn 0.000000000 0.000000000 -1.000000000
vn 0.000000000 0.000000000 -1.000000000
vn 0.000000000 0.000000000 -1.000000000
f 253/253/253 254/254/254 255/255/255
v 300.00000000 116.50000000 127.00000000
v 428.00000000 108.50000000 127.00000000
v 420.00000000 116.50000000 127.00000000
vt 0.00000000 0.00000000
vt 1.28249756 0.00000000
vt 1.19766309 0.07485394
vn -0.000000000 0.000000000 1.000000000
vn -0.000000000 0.000000000 1.000000000
vn -0.000000000 0.000000000 1.000000000
f 256/256/256 257/257/257 258/258/258
v 300.00000000 116.50000000 93.00000000
v 428.00000000 108.50000000 93.00000000
v 428.00000000 83.50000000 93.00000000
vt 0.00000000 0.00000000
vt 1.28249756 0.00000000
vt 1.29809213 0.24951314
vn 0.000000000 0.000000000 -1.000000000
vn 0.000000000 0.000000000 -1.000000000
vn 0.000000000 0.000000000 -1.000000000
f 259/259/259 260/260/260 261/261/261
v 300.00000000 116.50000000 127.00000000
v 428.00000000 83.50000000 127.00000000
v 428.00000000 108.50000000 127.00000000
vt 0.00000000 0.00000000
vt 1.32185476 0.00000000
vt 1.25944245 0.24208409
vn 0.000000000 0.000000000 1.000000000
vn 0.000000000 0.000000000 1.000000000
vn 0.000000000 0.000000000 1.000000000
f 262/262/262 263/263/263 264/264/264
v 300.00000000 116.50000000 93.00000000
v 428.00000000 83.50000000 93.00000000
v 420.00000000 75.50000000 93.00000000
vt 0.00000000 0.00000000
vt 1.32185476 0.00000000
vt 1.26435979 0.09743884
vn 0.000000000 0.000000000 -1.000000000
vn 0.000000000 0.000000000 -1.000000000
vn 0.000000000 0.000000000 -1.000000000
f 265/265/265 266/266/266 267/267/267
v 300.00000000 116.50000000 127.00000000
v 420.00000000 75.50000000 127.00000000
v 428.00000000 83.50000000 127.00000000
vt 0.00000000 0.00000000
vt 1.26810883 0.00000000
vt 1.31794682 0.10156857
vn 0.000000000 0.000000000 1.000000000
vn 0.000000000 0.000000000 1.000000000
vn 0.000000000 0.000000000 1.000000000
f 268/268/268 269/269/269 270/270/270
v 300.00000000 116.50000000 93.00000000
v 420.00000000 75.50000000 93.00000000
v 300.00000000 75.50000000 93.00000000
vt 0.00000000 0.00000000
vt 1.26810883 0.00000000
vt 0.13255960 0.38797932
vn 0.000000000 0.000000000 -1.000000000
vn 0.000000000 0.000000000 -1.000000000
vn 0.000000000 0.000000000 -1.000000000
f 271/271/271 272/272/272 273/273/273
v 300.00000000 116.50000000 127.00000000
v 300.00000000 75.50000000 127.00000000
v 420.00000000 75.50000000 127.00000000
vt 0.00000000 0.00000000
vt 0.41000000 0.00000000
vt 0.41000000 1.20000000
vn 0.000000000 0.000000000 1.000000000
vn 0.000000000 0.000000000 1.000000000
vn 0.000000000 0.000000000 1.000000000
f 274/274/274 275/275/275 276/276/276
v 300.00000000 116.50000000 93.00000000
v 300.00000000 75.50000000 93.00000000
v 292.00000000 83.50000000 93.00000000
vt 0.00000000 0.00000000
vt 0.41000000 0.00000000
vt 0.33000000 0.08000000
vn 0.000000000 -0.000000000 -1.000000000
vn 0.000000000 -0.000000000 -1.000000000
vn 0.000000000 -0.000000000 -1.000000000
f 277/277/277 278/278/278 279/279/279
v 300.00000000 116.50000000 127.00000000
v 292.00000000 83.50000000 127.00000000
v 300.00000000 75.50000000 127.00000000
vt 0.00000000 0.00000000
vt 0.33955854 0.00000000
vt 0.39845854 0.09659601
vn 0.000000000 0.000000000 1.000000000
vn 0.000000000 0.000000000 1.000000000
vn 0.000000000 0.000000000 1.000000000
f 280/280/280 281/281/281 282/282/282
v 300.00000000 116.50000000 93.00000000
v 292.00000000 83.50000000 93.00000000
v 292.00000000 108.50000000 93.00000000
vt 0.00000000 0.00000000
vt 0.33955854 0.00000000
vt 0.09659601 0.05890001
vn 0.000000000 0.000000000 -1.000000000
vn 0.000000000 0.000000000 -1.000000000
vn 0.000000000 0.000000000 -1.000000000
f 283/283/283 284/284/284 285/285/285
v 300.00000000 116.50000000 127.00000000
v 292.00000000 108.50000000 127.00000000
v 292.00000000 83.50000000 127.00000000
vt 0.00000000 0.00000000
vt 0.11313708 0.00000000
vt 0.28991378 0.17677670
vn 0.000000000 0.000000000 1.000000000
vn 0.000000000 0.000000000 1.000000000
vn 0.000000000 0.000000000 1.000000000
f 286/286/286 287/287/287 288/288/288
v 300.00000000 116.50000000 93.00000000
v 420.00000000 116.50000000 127.00000000
v 420.00000000 116.50000000 93.00000000
vt 0.00000000 0.00000000
vt 1.24723695 0.00000000
vt 1.15455207 0.32712309
vn 0.000000000 1.000000000 0.000000000
vn 0.000000000 1.000000000 0.000000000
vn 0.000000000 1.000000000 0.000000000
f 289/289/289 290/290/290 291/291/291
v 300.00000000 116.50000000 93.00000000
v 300.00000000 116.50000000 127.00000000
v 420.00000000 116.50000000 127.00000000
vt 0.00000000 0.00000000
vt 0.34000000 0.00000000
vt 0.34000000 1.20000000
vn 0.000000000 1.000000000 0.000000000
vn 0.000000000 1.000000000 0.000000000
vn 0.000000000 1.000000000 0.000000000
f 292/292/292 293/293/293 294/294/294
v 420.00000000 116.50000000 93.00000000
v 428.00000000 108.50000000 127.00000000
v 428.00000000 108.50000000 93.00000000
vt 0.00000000 0.00000000
vt 0.35832946 0.00000000
vt 0.03572132 0.10734984
vn 0.707106781 0.707106781 0.000000000
vn 0.707106781 0.707106781 0.000000000
vn 0.707106781 0.707106781 0.000000000
f 295/295/295 296/296/296 297/297/297
v 420.00000000 116.50000000 93.00000000
v 420.00000000 116.50000000 127.00000000
v 428.00000000 108.50000000 127.00000000
vt 0.00000000 0.00000000
vt 0.34000000 0.00000000
vt 0.34000000 0.11313708
vn 0.707106781 0.707106781 -0.000000000
vn 0.707106781 0.707106781 -0.000000000
vn 0.707106781 0.707106781 -0.000000000
f 298/298/298 299/299/299 300/300/300
v 428.00000000 108.50000000 93.00000000
v 428.00000000 83.50000000 127.00000000
v 428.00000000 83.50000000 93.00000000
vt 0.00000000 0.00000000
vt 0.42201896 0.00000000
vt 0.14809761 0.20141275
vn 1.000000000 0.000000000 0.000000000
vn 1.000000000 0.000000000 0.000000000
vn 1.000000000 0.000000000 0.000000000
f 301/301/301 302/302/302 303/303/303
v 428.00000000 108.50000000 93.00000000
v 428.00000000 108.50000000 127.00000000
v 428.00000000 83.50000000 127.00000000
vt 0.00000000 0.00000000
vt 0.34000000 0.00000000
vt 0.34000000 0.25000000
vn 1.000000000 0.000000000 -0.000000000
vn 1.000000000 0.000000000 -0.000000000
vn 1.000000000 0.000000000 -0.000000000
f 304/304/304 305/305/305 306/306/306
v 428.00000000 83.50000000 93.00000000
v 420.00000000 75.50000000 127.00000000
v 420.00000000 75.50000000 93.00000000
vt 0.00000000 0.00000000
vt 0.35832946 0.00000000
vt 0.03572132 0.10734984
vn 0.707106781 -0.707106781 0.000000000
vn 0.707106781 -0.707106781 0.000000000
vn 0.707106781 -0.707106781 0.000000000
f 307/307/307 308/308/308 309/309/309
v 428.00000000 83.50000000 93.00000000
v 428.00000000 83.50000000 127.00000000
v 420.00000000 75.50000000 127.00000000
vt 0.00000000 0.00000000
vt 0.34000000 0.00000000
vt 0.34000000 0.11313708
vn 0.707106781 -0.707106781 0.000000000
vn 0.707106781 -0.707106781 0.000000000
vn 0.707106781 -0.707106781 0.000000000
f 310/310/310 311/311/311 312/312/312
v 420.00000000 75.50000000 93.00000000
v 300.00000000 75.50000000 127.00000000
v 300.00000000 75.50000000 93.00000000
vt 0.00000000 0.00000000
vt 1.24723695 0.00000000
vt 1.15455207 0.32712309
vn 0.000000000 -1.000000000 0.000000000
vn 0.000000000 -1.000000000 0.000000000
vn 0.000000000 -1.000000000 0.000000000
f 313/313/313 314/314/314 315/315/315
v 420.00000000 75.50000000 93.00000000
v 420.00000000 75.50000000 127.00000000
v 300.00000000 75.50000000 127.00000000
vt 0.00000000 0.00000000
vt 0.34000000 0.00000000
vt 0.34000000 1.20000000
vn 0.000000000 -1.000000000 0.000000000
vn 0.000000000 -1.000000000 0.000000000
vn 0.000000000 -1.000000000 0.000000000
f 316/316/316 317/317/317 318/318/318
v 300.00000000 75.50000000 93.00000000
v 292.00000000 83.50000000 127.00000000
v 292.00000000 83.50000000 93.00000000
vt 0.00000000 0.00000000
vt 0.35832946 0.00000000
vt 0.03572132 0.10734984
vn -0.707106781 -0.707106781 0.000000000
vn -0.707106781 -0.707106781 0.000000000
vn -0.707106781 -0.707106781 0.000000000
f 319/319/319 320/320/320 321/321/321
v 300.00000000 75.50000000 93.00000000
v 300.00000000 75.50000000 127.00000000
v 292.00000000 83.50000000 127.00000000
vt 0.00000000 0.00000000
vt 0.34000000 0.00000000
vt 0.34000000 0.11313708
vn -0.707106781 -0.707106781 0.000000000
vn -0.707106781 -0.707106781 0.000000000
vn -0.707106781 -0.707106781 0.000000000
f 322/322/322 323/323/323 324/324/324
v 292.00000000 83.50000000 93.00000000
v 292.00000000 108.50000000 127.00000000
v 292.00000000 108.50000000 93.00000000
vt 0.00000000 0.00000000
vt 0.42201896 0.00000000
vt 0.14809761 0.20141275
vn -1.000000000 0.000000000 0.000000000
vn -1.000000000 0.000000000 0.000000000
vn -1.000000000 0.000000000 0.000000000
f 325/325/325 326/326/326 327/327/327
v 292.00000000 83.50000000 93.00000000
v 292.00000000 83.50000000 127.00000000
v 292.00000000 108.50000000 127.00000000
vt 0.00000000 0.00000000
vt 0.34000000 0.00000000
vt 0.34000000 0.25000000
vn -1.000000000 0.000000000 0.000000000
vn -1.000000000 0.000000000 0.000000000
vn -1.000000000 0.000000000 0.000000000
f 328/328/328 329/329/329 330/330/330
v 292.00000000 108.50000000 93.00000000
v 300.00000000 116.50000000 127.00000000
v 300.00000000 116.50000000 93.00000000
vt 0.00000000 0.00000000
vt 0.35832946 0.00000000
vt 0.03572132 0.10734984
vn -0.707106781 0.707106781 0.000000000
vn -0.707106781 0.707106781 0.000000000
vn -0.707106781 0.707106781 0.000000000
f 331/331/331 332/332/332 333/333/333
v 292.00000000 108.50000000 93.00000000
v 292.00000000 108.50000000 127.00000000
v 300.00000000 116.50000000 127.00000000
vt 0.00000000 0.00000000
vt 0.34000000 0.00000000
vt 0.34000000 0.11313708
vn -0.707106781 0.707106781 0.000000000
vn -0.707106781 0.707106781 0.000000000
vn -0.707106781 0.707106781 0.000000000
f 334/334/334 335/335/335 336/336/336
g InteriorLowerSide_1
s off
v -564.25000000 -113.50000000 94.50000000
v 564.25000000 -113.50000000 94.50000000
v 565.00000000 -114.25000000 94.50000000
vt 0.00000000 0.00000000
vt 11.28500000 0.00000000
vt 11.29250000 0.00750000
vn 0.000000000 0.000000000 -1.000000000
vn 0.000000000 0.000000000 -1.000000000
vn 0.000000000 0.000000000 -1.000000000
f 337/337/337 338/338/338 339/339/339
v -564.25000000 -113.50000000 155.50000000
v 565.00000000 -114.25000000 155.50000000
v 564.25000000 -113.50000000 155.50000000
vt 0.00000000 0.00000000
vt 11.29250249 0.00000000
vt 11.28499751 0.00749502
vn -0.000000000 0.000000000 1.000000000
vn -0.000000000 0.000000000 1.000000000
vn -0.000000000 0.000000000 1.000000000
f 340/340/340 341/341/341 342/342/342
v -564.25000000 -113.50000000 94.50000000
v 565.00000000 -114.25000000 94.50000000
v 565.00000000 -115.75000000 94.50000000
vt 0.00000000 0.00000000
vt 11.29250249 0.00000000
vt 11.29251245 0.01500000
vn 0.000000000 0.000000000 -1.000000000
vn 0.000000000 0.000000000 -1.000000000
vn 0.000000000 0.000000000 -1.000000000
f 343/343/343 344/344/344 345/345/345
v -564.25000000 -113.50000000 155.50000000
v 565.00000000 -115.75000000 155.50000000
v 565.00000000 -114.25000000 155.50000000
vt 0.00000000 0.00000000
vt 11.29252242 0.00000000
vt 11.29249253 0.01499997
vn 0.000000000 0.000000000 1.000000000
vn 0.000000000 0.000000000 1.000000000
vn 0.000000000 0.000000000 1.000000000
f 346/346/346 347/347/347 348/348/348
v -564.25000000 -113.50000000 94.50000000
v 565.00000000 -115.75000000 94.50000000
v 564.25000000 -116.50000000 94.50000000
vt 0.00000000 0.00000000
vt 11.29252242 0.00000000
vt 11.28503737 0.00751493
vn 0.000000000 0.000000000 -1.000000000
vn 0.000000000 0.000000000 -1.000000000
vn 0.000000000 0.000000000 -1.000000000
f 349/349/349 350/350/350 351/351/351
v -564.25000000 -113.50000000 155.50000000
v 564.25000000 -116.50000000 155.50000000
v 565.00000000 -115.75000000 155.50000000
vt 0.00000000 0.00000000
vt 11.28503988 0.00000000
vt 11.29251991 0.00751991
vn 0.000000000 0.000000000 1.000000000
vn 0.000000000 0.000000000 1.000000000
vn 0.000000000 0.000000000 1.000000000
f 352/352/352 353/353/353 354/354/354
v -564.25000000 -113.50000000 94.50000000
v 564.25000000 -116.50000000 94.50000000
v -564.25000000 -116.50000000 94.50000000
vt 0.00000000 0.00000000
vt 11.28503988 0.00000000
vt 0.00007975 0.02999989
vn 0.000000000 0.000000000 -1.000000000
vn 0.000000000 0.000000000 -1.000000000
vn 0.000000000 0.000000000 -1.000000000
f 355/355/355 356/356/356 357/357/357
v -564.25000000 -113.50000000 155.50000000
v -564.25000000 -116.50000000 155.50000000
v 564.25000000 -116.50000000 155.50000000
vt 0.00000000 0.00000000
vt 0.03000000 0.00000000
vt 0.03000000 11.28500000
vn 0.000000000 0.000000000 1.000000000
vn 0.000000000 0.000000000 1.000000000
vn 0.000000000 0.000000000 1.000000000
f 358/358/358 359/359/359 360/360/360
v -564.25000000 -113.50000000 94.50000000
v -564.25000000 -116.50000000 94.50000000
v -565.00000000 -115.75000000 94.50000000
vt 0.00000000 0.00000000
vt 0.03000000 0.00000000
vt 0.02250000 0.00750000
vn 0.000000000 -0.000000000 -1.000000000
vn 0.000000000 -0.000000000 -1.000000000
vn 0.000000000 -0.000000000 -1.000000000
f 361/361/361 362/362/362 363/363/363
v -564.25000000 -113.50000000 155.50000000
v -565.00000000 -115.75000000 155.50000000
v -564.25000000 -116.50000000 155.50000000
vt 0.00000000 0.00000000
vt 0.02371708 0.00000000
vt 0.02846050 0.00948683
vn 0.000000000 0.000000000 1.000000000
vn 0.000000000 0.000000000 1.000000000
vn 0.000000000 0.000000000 1.000000000
f 364/364/364 365/365/365 366/366/366
v -564.25000000 -113.50000000 94.50000000
v -565.00000000 -115.75000000 94.50000000
v -565.00000000 -114.25000000 94.50000000
vt 0.00000000 0.00000000
vt 0.02371708 0.00000000
vt 0.00948683 0.00474342
vn 0.000000000 0.000000000 -1.000000000
vn 0.000000000 0.000000000 -1.000000000
vn 0.000000000 0.000000000 -1.000000000
f 367/367/367 368/368/368 369/369/369
v -564.25000000 -113.50000000 155.50000000
v -565.00000000 -114.25000000 155.50000000
v -565.00000000 -115.75000000 155.50000000
vt 0.00000000 0.00000000
vt 0.01060660 0.00000000
vt 0.02121320 0.01060660
vn 0.000000000 0.000000000 1.000000000
vn 0.000000000 0.000000000 1.000000000
vn 0.000000000 0.000000000 1.000000000
f 370/370/370 371/371/371 372/372/372
v -564.25000000 -113.50000000 94.50000000
v 564.25000000 -113.50000000 155.50000000
v 564.25000000 -113.50000000 94.50000000
vt 0.00000000 0.00000000
vt 11.30147446 0.00000000
vt 11.26854955 0.60911079
vn 0.000000000 1.000000000 0.000000000
vn 0.000000000 1.000000000 0.000000000
vn 0.000000000 1.000000000 0.000000000
f 373/373/373 374/374/374 375/375/375
v -564.25000000 -113.50000000 94.50000000
v -564.25000000 -113.50000000 155.50000000
v 564.25000000 -113.50000000 155.50000000
vt 0.00000000 0.00000000
vt 0.61000000 0.00000000
vt 0.61000000 11.28500000
vn 0.000000000 1.000000000 0.000000000
vn 0.000000000 1.000000000 0.000000000
vn 0.000000000 1.000000000 0.000000000
f 376/376/376 377/377/377 378/378/378
v 564.25000000 -113.50000000 94.50000000
v 565.00000000 -114.25000000 155.50000000
v 565.00000000 -114.25000000 94.50000000
vt 0.00000000 0.00000000
vt 0.61009221 0.00000000
vt 0.00018440 0.01060500
vn 0.707106781 0.707106781 0.000000000
vn 0.707106781 0.707106781 0.000000000
vn 0.707106781 0.707106781 0.000000000
f 379/379/379 380/380/380 381/381/381
v 564.25000000 -113.50000000 94.50000000
v 564.25000000 -113.50000000 155.50000000
v 565.00000000 -114.25000000 155.50000000
vt 0.00000000 0.00000000
vt 0.61000000 0.00000000
vt 0.61000000 0.01060660
vn 0.707106781 0.707106781 -0.000000000
vn 0.707106781 0.707106781 -0.000000000
vn 0.707106781 0.707106781 -0.000000000
f 382/382/382 383/383/383 384/384/384
v 565.00000000 -114.25000000 94.50000000
v 565.00000000 -115.75000000 155.50000000
v 565.00000000 -115.75000000 94.50000000
vt 0.00000000 0.00000000
vt 0.61018440 0.00000000
vt 0.00036874 0.01499547
vn 1.000000000 0.000000000 0.000000000
vn 1.000000000 0.000000000 0.000000000
vn 1.000000000 0.000000000 0.000000000
f 385/385/385 386/386/386 387/387/387
v 565.00000000 -114.25000000 94.50000000
v 565.00000000 -114.25000000 155.50000000
v 565.00000000 -115.75000000 155.50000000
vt 0.00000000 0.00000000
vt 0.61000000 0.00000000
vt 0.61000000 0.01500000
vn 1.000000000 0.000000000 -0.000000000
vn 1.000000000 0.000000000 -0.000000000
vn 1.000000000 0.000000000 -0.000000000
f 388/388/388 389/389/389 390/390/390
v 565.00000000 -115.75000000 94.50000000
v 564.25000000 -116.50000000 155.50000000
v 564.25000000 -116.50000000 94.50000000
vt 0.00000000 0.00000000
vt 0.61009221 0.00000000
vt 0.00018440 0.01060500
vn 0.707106781 -0.707106781 0.000000000
vn 0.707106781 -0.707106781 0.000000000
vn 0.707106781 -0.707106781 0.000000000
f 391/391/391 392/392/392 393/393/393
v 565.00000000 -115.75000000 94.50000000
v 565.00000000 -115.75000000 155.50000000
v 564.25000000 -116.50000000 155.50000000
vt 0.00000000 0.00000000
vt 0.61000000 0.00000000
vt 0.61000000 0.01060660
vn 0.707106781 -0.707106781 0.000000000
vn 0.707106781 -0.707106781 0.000000000
vn 0.707106781 -0.707106781 0.000000000
f 394/394/394 395/395/395 396/396/396
v 564.25000000 -116.50000000 94.50000000
v -564.25000000 -116.50000000 155.50000000
v -564.25000000 -116.50000000 94.50000000
vt 0.00000000 0.00000000
vt 11.30147446 0.00000000
vt 11.26854955 0.60911079
vn 0.000000000 -1.000000000 0.000000000
vn 0.000000000 -1.000000000 0.000000000
vn 0.000000000 -1.000000000 0.000000000
f 397/397/397 398/398/398 399/399/399
v 564.25000000 -116.50000000 94.50000000
v 564.25000000 -116.50000000 155.50000000
v -564.25000000 -116.50000000 155.50000000
vt 0.00000000 0.00000000
vt 0.61000000 0.00000000
vt 0.61000000 11.28500000
vn 0.000000000 -1.000000000 0.000000000
vn 0.000000000 -1.000000000 0.000000000
vn 0.000000000 -1.000000000 0.000000000
f 400/400/400 401/401/401 402/402/402
v -564.25000000 -116.50000000 94.50000000
v -565.00000000 -115.75000000 155.50000000
v -565.00000000 -115.75000000 94.50000000
vt 0.00000000 0.00000000
vt 0.61009221 0.00000000
vt 0.00018440 0.01060500
vn -0.707106781 -0.707106781 0.000000000
vn -0.707106781 -0.707106781 0.000000000
vn -0.707106781 -0.707106781 0.000000000
f 403/403/403 404/404/404 405/405/405
v -564.25000000 -116.50000000 94.50000000
v -564.25000000 -116.50000000 155.50000000
v -565.00000000 -115.75000000 155.50000000
vt 0.00000000 0.00000000
vt 0.61000000 0.00000000
vt 0.61000000 0.01060660
vn -0.707106781 -0.707106781 0.000000000
vn -0.707106781 -0.707106781 0.000000000
vn -0.707106781 -0.707106781 0.000000000
f 406/406/406 407/407/407 408/408/408
v -565.00000000 -115.75000000 94.50000000
v -565.00000000 -114.25000000 155.50000000
v -565.00000000 -114.25000000 94.50000000
vt 0.00000000 0.00000000
vt 0.61018440 0.00000000
vt 0.00036874 0.01499547
vn -1.000000000 0.000000000 0.000000000
vn -1.000000000 0.000000000 0.000000000
vn -1.000000000 0.000000000 0.000000000
f 409/409/409 410/410/410 411/411/411
v -565.00000000 -115.75000000 94.50000000
v -565.00000000 -115.75000000 155.50000000
v -565.00000000 -114.25000000 155.50000000
vt 0.00000000 0.00000000
vt 0.61000000 0.00000000
vt 0.61000000 0.01500000
vn -1.000000000 0.000000000 0.000000000
vn -1.000000000 0.000000000 0.000000000
vn -1.000000000 0.000000000 0.000000000
f 412/412/412 413/413/413 414/414/414
v -565.00000000 -114.25000000 94.50000000
v -564.25000000 -113.50000000 155.50000000
v -564.25000000 -113.50000000 94.50000000
vt 0.00000000 0.00000000
vt 0.61009221 0.00000000
vt 0.00018440 0.01060500
vn -0.707106781 0.707106781 0.000000000
vn -0.707106781 0.707106781 0.000000000
vn -0.707106781 0.707106781 0.000000000
f 415/415/415 416/416/416 417/417/417
v -565.00000000 -114.25000000 94.50000000
v -565.00000000 -114.25000000 155.50000000
v -564.25000000 -113.50000000 155.50000000
vt 0.00000000 0.00000000
vt 0.61000000 0.00000000
vt 0.61000000 0.01060660
vn -0.707106781 0.707106781 0.000000000
vn -0.707106781 0.707106781 0.000000000
vn -0.707106781 0.707106781 0.000000000
f 418/418/418 419/419/419 420/420/420
g Wheelhouse_1_-360
s off
v -420.00000000 -75.50000000 93.00000000
v -300.00000000 -75.50000000 93.00000000
v -292.00000000 -83.50000000 93.00000000
vt 0.00000000 0.00000000
vt 1.20000000 0.00000000
vt 1.28000000 0.08000000
vn 0.000000000 0.000000000 -1.000000000
vn 0.000000000 0.000000000 -1.000000000
vn 0.000000000 0.000000000 -1.000000000
f 421/421/421 422/422/422 423/423/423
v -420.00000000 -75.50000000 127.00000000
v -292.00000000 -83.50000000 127.00000000
v -300.00000000 -75.50000000 127.00000000
vt 0.00000000 0.00000000
vt 1.28249756 0.00000000
vt 1.19766309 0.07485394
vn -0.000000000 0.000000000 1.000000000
vn -0.000000000 0.000000000 1.000000000
vn -0.000000000 0.000000000 1.000000000
f 424/424/424 425/425/425 426/426/426
v -420.00000000 -75.50000000 93.00000000
v -292.00000000 -83.50000000 93.00000000
v -292.00000000 -108.50000000 93.00000000
vt 0.00000000 0.00000000
vt 1.28249756 0.00000000
vt 1.29809213 0.24951314
vn 0.000000000 0.000000000 -1.000000000
vn 0.000000000 0.000000000 -1.000000000
vn 0.000000000 0.000000000 -1.000000000
f 427/427/427 428/428/428 429/429/429
v -420.00000000 -75.50000000 127.00000000
v -292.00000000 -108.50000000 127.00000000
v -292.00000000 -83.50000000 127.00000000
vt 0.00000000 0.00000000
vt 1.32185476 0.00000000
vt 1.25944245 0.24208409
vn 0.000000000 0.000000000 1.000000000
vn 0.000000000 0.000000000 1.000000000
vn 0.000000000 0.000000000 1.000000000
f 430/430/430 431/431/431 432/432/432
v -420.00000000 -75.50000000 93.00000000
v -292.00000000 -108.50000000 93.00000000
v -300.00000000 -116.50000000 93.00000000
vt 0.00000000 0.00000000
vt 1.32185476 0.00000000
vt 1.26435979 0.09743884
vn 0.000000000 0.000000000 -1.000000000
vn 0.000000000 0.000000000 -1.000000000
vn 0.000000000 0.000000000 -1.000000000
f 433/433/433 434/434/434 435/435/435
v -420.00000000 -75.50000000 127.00000000
v -300.00000000 -116.50000000 127.00000000
v -292.00000000 -108.50000000 127.00000000
vt 0.00000000 0.00000000
vt 1.26810883 0.00000000
vt 1.31794682 0.10156857
vn 0.000000000 0.000000000 1.000000000
vn 0.000000000 0.000000000 1.000000000
vn 0.000000000 0.000000000 1.000000000
f 436/436/436 437/437/437 438/438/438
v -420.00000000 -75.50000000 93.00000000
v -300.00000000 -116.50000000 93.00000000
v -420.00000000 -116.50000000 93.00000000
vt 0.00000000 0.00000000
vt 1.26810883 0.00000000
vt 0.13255960 0.38797932
vn 0.000000000 0.000000000 -1.000000000
vn 0.000000000 0.000000000 -1.000000000
vn 0.000000000 0.000000000 -1.000000000
f 439/439/439 440/440/440 441/441/441
v -420.00000000 -75.50000000 127.00000000
v -420.00000000 -116.50000000 127.00000000
v -300.00000000 -116.50000000 127.00000000
vt 0.00000000 0.00000000
vt 0.41000000 0.00000000
vt 0.41000000 1.20000000
vn 0.000000000 0.000000000 1.000000000
vn 0.000000000 0.000000000 1.000000000
vn 0.000000000 0.000000000 1.000000000
f 442/442/442 443/443/443 444/444/444
v -420.00000000 -75.50000000 93.00000000
v -420.00000000 -116.50000000 93.00000000
v -428.00000000 -108.50000000 93.00000000
vt 0.00000000 0.00000000
vt 0.41000000 0.00000000
vt 0.33000000 0.08000000
vn 0.000000000 -0.000000000 -1.000000000
vn 0.000000000 -0.000000000 -1.000000000
vn 0.000000000 -0.000000000 -1.000000000
f 445/445/445 446/446/446 447/447/447
v -420.00000000 -75.50000000 127.00000000
v -428.00000000 -108.50000000 127.00000000
v -420.00000000 -116.50000000 127.00000000
vt 0.00000000 0.00000000
vt 0.33955854 0.00000000
vt 0.39845854 0.09659601
vn 0.000000000 0.000000000 1.000000000
vn 0.000000000 0.000000000 1.000000000
vn 0.000000000 0.000000000 1.000000000
f 448/448/448 449/449/449 450/450/450
v -420.00000000 -75.50000000 93.00000000
v -428.00000000 -108.50000000 93.00000000
v -428.00000000 -83.50000000 93.00000000
vt 0.00000000 0.00000000
vt 0.33955854 0.00000000
vt 0.09659601 0.05890001
vn 0.000000000 0.000000000 -1.000000000
vn 0.000000000 0.000000000 -1.000000000
vn 0.000000000 0.000000000 -1.000000000
f 451/451/451 452/452/452 453/453/453
v -420.00000000 -75.50000000 127.00000000
v -428.00000000 -83.50000000 127.00000000
v -428.00000000 -108.50000000 127.00000000
vt 0.00000000 0.00000000
vt 0.11313708 0.00000000
vt 0.28991378 0.17677670
vn 0.000000000 0.000000000 1.000000000
vn 0.000000000 0.000000000 1.000000000
vn 0.000000000 0.000000000 1.000000000
f 454/454/454 455/455/455 456/456/456
v -420.00000000 -75.50000000 93.00000000
v -300.00000000 -75.50000000 127.00000000
v -300.00000000 -75.50000000 93.00000000
vt 0.00000000 0.00000000
vt 1.24723695 0.00000000
vt 1.15455207 0.32712309
vn 0.000000000 1.000000000 0.000000000
vn 0.000000000 1.000000000 0.000000000
vn 0.000000000 1.000000000 0.000000000
f 457/457/457 458/458/458 459/459/459
v -420.00000000 -75.50000000 93.00000000
v -420.00000000 -75.50000000 127.00000000
v -300.00000000 -75.50000000 127.00000000
vt 0.00000000 0.00000000
vt 0.34000000 0.00000000
vt 0.34000000 1.20000000
vn 0.000000000 1.000000000 0.000000000
vn 0.000000000 1.000000000 0.000000000
vn 0.000000000 1.000000000 0.000000000
f 460/460/460 461/461/461 462/462/462
v -300.00000000 -75.50000000 93.00000000
v -292.00000000 -83.50000000 127.00000000
v -292.00000000 -83.50000000 93.00000000
vt 0.00000000 0.00000000
vt 0.35832946 0.00000000
vt 0.03572132 0.10734984
vn 0.707106781 0.707106781 0.000000000
vn 0.707106781 0.707106781 0.000000000
vn 0.707106781 0.707106781 0.000000000
f 463/463/463 464/464/464 465/465/465
v -300.00000000 -75.50000000 93.00000000
v -300.00000000 -75.50000000 127.00000000
v -292.00000000 -83.50000000 127.00000000
vt 0.00000000 0.00000000
vt 0.34000000 0.00000000
vt 0.34000000 0.11313708
vn 0.707106781 0.707106781 -0.000000000
vn 0.707106781 0.707106781 -0.000000000
vn 0.707106781 0.707106781 -0.000000000
f 466/466/466 467/467/467 468/468/468
v -292.00000000 -83.50000000 93.00000000
v -292.00000000 -108.50000000 127.00000000
v -292.00000000 -108.50000000 93.00000000
vt 0.00000000 0.00000000
vt 0.42201896 0.00000000
vt 0.14809761 0.20141275
vn 1.000000000 0.000000000 0.000000000
vn 1.000000000 0.000000000 0.000000000
vn 1.000000000 0.000000000 0.000000000
f 469/469/469 470/470/470 471/471/471
v -292.00000000 -83.50000000 93.00000000
v -292.00000000 -83.50000000 127.00000000
v -292.00000000 -108.50000000 127.00000000
vt 0.00000000 0.00000000
vt 0.34000000 0.00000000
vt 0.34000000 0.25000000
vn 1.000000000 0.000000000 -0.000000000
vn 1.000000000 0.000000000 -0.000000000
vn 1.000000000 0.000000000 -0.000000000
f 472/472/472 473/473/473 474/474/474
v -292.00000000 -108.50000000 93.00000000
v -300.00000000 -116.50000000 127.00000000
v -300.00000000 -116.50000000 93.00000000
vt 0.00000000 0.00000000
vt 0.35832946 0.00000000
vt 0.03572132 0.10734984
vn 0.707106781 -0.707106781 0.000000000
vn 0.707106781 -0.707106781 0.000000000
vn 0.707106781 -0.707106781 0.000000000
f 475/475/475 476/476/476 477/477/477
v -292.00000000 -108.50000000 93.00000000
v -292.00000000 -108.50000000 127.00000000
v -300.00000000 -116.50000000 127.00000000
vt 0.00000000 0.00000000
vt 0.34000000 0.00000000
vt 0.34000000 0.11313708
vn 0.707106781 -0.707106781 0.000000000
vn 0.707106781 -0.707106781 0.000000000
vn 0.707106781 -0.707106781 0.000000000
f 478/478/478 479/479/479 480/480/480
v -300.00000000 -116.50000000 93.00000000
v -420.00000000 -116.50000000 127.00000000
v -420.00000000 -116.50000000 93.00000000
vt 0.00000000 0.00000000
vt 1.24723695 0.00000000
vt 1.15455207 0.32712309
vn 0.000000000 -1.000000000 0.000000000
vn 0.000000000 -1.000000000 0.000000000
vn 0.000000000 -1.000000000 0.000000000
f 481/481/481 482/482/482 483/483/483
v -300.00000000 -116.50000000 93.00000000
v -300.00000000 -116.50000000 127.00000000
v -420.00000000 -116.50000000 127.00000000
vt 0.00000000 0.00000000
vt 0.34000000 0.00000000
vt 0.34000000 1.20000000
vn 0.000000000 -1.000000000 0.000000000
vn 0.000000000 -1.000000000 0.000000000
vn 0.000000000 -1.000000000 0.000000000
f 484/484/484 485/485/485 486/486/486
v -420.00000000 -116.50000000 93.00000000
v -428.00000000 -108.50000000 127.00000000
v -428.00000000 -108.50000000 93.00000000
vt 0.00000000 0.00000000
vt 0.35832946 0.00000000
vt 0.03572132 0.10734984
vn -0.707106781 -0.707106781 0.000000000
vn -0.707106781 -0.707106781 0.000000000
vn -0.707106781 -0.707106781 0.000000000
f 487/487/487 488/488/488 489/489/489
v -420.00000000 -116.50000000 93.00000000
v -420.00000000 -116.50000000 127.00000000
v -428.00000000 -108.50000000 127.00000000
vt 0.00000000 0.00000000
vt 0.34000000 0.00000000
vt 0.34000000 0.11313708
vn -0.707106781 -0.707106781 0.000000000
vn -0.707106781 -0.707106781 0.000000000
vn -0.707106781 -0.707106781 0.000000000
f 490/490/490 491/491/491 492/492/492
v -428.00000000 -108.50000000 93.00000000
v -428.00000000 -83.50000000 127.00000000
v -428.00000000 -83.50000000 93.00000000
vt 0.00000000 0.00000000
vt 0.42201896 0.00000000
vt 0.14809761 0.20141275
vn -1.000000000 0.000000000 0.000000000
vn -1.000000000 0.000000000 0.000000000
vn -1.000000000 0.000000000 0.000000000
f 493/493/493 494/494/494 495/495/495
v -428.00000000 -108.50000000 93.00000000
v -428.00000000 -108.50000000 127.00000000
v -428.00000000 -83.50000000 127.00000000
vt 0.00000000 0.00000000
vt 0.34000000 0.00000000
vt 0.34000000 0.25000000
vn -1.000000000 0.000000000 0.000000000
vn -1.000000000 0.000000000 0.000000000
vn -1.000000000 0.000000000 0.000000000
f 496/496/496 497/497/497 498/498/498
v -428.00000000 -83.50000000 93.00000000
v -420.00000000 -75.50000000 127.00000000
v -420.00000000 -75.50000000 93.00000000
vt 0.00000000 0.00000000
vt 0.35832946 0.00000000
vt 0.03572132 0.10734984
vn -0.707106781 0.707106781 0.000000000
vn -0.707106781 0.707106781 0.000000000
vn -0.707106781 0.707106781 0.000000000
f 499/499/499 500/500/500 501/501/501
v -428.00000000 -83.50000000 93.00000000
v -428.00000000 -83.50000000 127.00000000
v -420.00000000 -75.50000000 127.00000000
vt 0.00000000 0.00000000
vt 0.34000000 0.00000000
vt 0.34000000 0.11313708
vn -0.707106781 0.707106781 0.000000000
vn -0.707106781 0.707106781 0.000000000
vn -0.707106781 0.707106781 0.000000000
f 502/502/502 503/503/503 504/504/504
g Wheelhouse_1_360
s off
v 300.00000000 -75.50000000 93.00000000
v 420.00000000 -75.50000000 93.00000000
v 428.00000000 -83.50000000 93.00000000
vt 0.00000000 0.00000000
vt 1.20000000 0.00000000
vt 1.28000000 0.08000000
vn 0.000000000 0.000000000 -1.000000000
vn 0.000000000 0.000000000 -1.000000000
vn 0.000000000 0.000000000 -1.000000000
f 505/505/505 506/506/506 507/507/507
v 300.00000000 -75.50000000 127.00000000
v 428.00000000 -83.50000000 127.00000000
v 420.00000000 -75.50000000 127.00000000
vt 0.00000000 0.00000000
vt 1.28249756 0.00000000
vt 1.19766309 0.07485394
vn -0.000000000 0.000000000 1.000000000
vn -0.000000000 0.000000000 1.000000000
vn -0.000000000 0.000000000 1.000000000
f 508/508/508 509/509/509 510/510/510
v 300.00000000 -75.50000000 93.00000000
v 428.00000000 -83.50000000 93.00000000
v 428.00000000 -108.50000000 93.00000000
vt 0.00000000 0.00000000
vt 1.28249756 0.00000000
vt 1.29809213 0.24951314
vn 0.000000000 0.000000000 -1.000000000
vn 0.000000000 0.000000000 -1.000000000
vn 0.000000000 0.000000000 -1.000000000
f 511/511/511 512/512/512 513/513/513
v 300.00000000 -75.50000000 127.00000000
v 428.00000000 -108.50000000 127.00000000
v 428.00000000 -83.50000000 127.00000000
vt 0.00000000 0.00000000
vt 1.32185476 0.00000000
vt 1.25944245 0.24208409
vn 0.000000000 0.000000000 1.000000000
vn 0.000000000 0.000000000 1.000000000
vn 0.000000000 0.000000000 1.000000000
f 514/514/514 515/515/515 516/516/516
v 300.00000000 -75.50000000 93.00000000
v 428.00000000 -108.50000000 93.00000000
v 420.00000000 -116.50000000 93.00000000
vt 0.00000000 0.00000000
vt 1.32185476 0.00000000
vt 1.26435979 0.09743884
vn 0.000000000 0.000000000 -1.000000000
vn 0.000000000 0.000000000 -1.000000000
vn 0.000000000 0.000000000 -1.000000000
f 517/517/517 518/518/518 519/519/519
v 300.00000000 -75.50000000 127.00000000
v 420.00000000 -116.50000000 127.00000000
v 428.00000000 -108.50000000 127.00000000
vt 0.00000000 0.00000000
vt 1.26810883 0.00000000
vt 1.31794682 0.10156857
vn 0.000000000 0.000000000 1.000000000
vn 0.000000000 0.000000000 1.000000000
vn 0.000000000 0.000000000 1.000000000
f 520/520/520 521/521/521 522/522/522
v 300.00000000 -75.50000000 93.00000000
v 420.00000000 -116.50000000 93.00000000
v 300.00000000 -116.50000000 93.00000000
vt 0.00000000 0.00000000
vt 1.26810883 0.00000000
vt 0.13255960 0.38797932
vn 0.000000000 0.000000000 -1.000000000
vn 0.000000000 0.000000000 -1.000000000
vn 0.000000000 0.000000000 -1.000000000
f 523/523/523 524/524/524 525/525/525
v 300.00000000 -75.50000000 127.00000000
v 300.00000000 -116.50000000 127.00000000
v 420.00000000 -116.50000000 127.00000000
vt 0.00000000 0.00000000
vt 0.41000000 0.00000000
vt 0.41000000 1.20000000
vn 0.000000000 0.000000000 1.000000000
vn 0.000000000 0.000000000 1.000000000
vn 0.000000000 0.000000000 1.000000000
f 526/526/526 527/527/527 528/528/528
v 300.00000000 -75.50000000 93.00000000
v 300.00000000 -116.50000000 93.00000000
v 292.00000000 -108.50000000 93.00000000
vt 0.00000000 0.00000000
vt 0.41000000 0.00000000
vt 0.33000000 0.08000000
vn 0.000000000 -0.000000000 -1.000000000
vn 0.000000000 -0.000000000 -1.000000000
vn 0.000000000 -0.000000000 -1.000000000
f 529/529/529 530/530/530 531/531/531
v 300.00000000 -75.50000000 127.00000000
v 292.00000000 -108.50000000 127.00000000
v 300.00000000 -116.50000000 127.00000000
vt 0.00000000 0.00000000
vt 0.33955854 0.00000000
vt 0.39845854 0.09659601
vn 0.000000000 0.000000000 1.000000000
vn 0.000000000 0.000000000 1.000000000
vn 0.000000000 0.000000000 1.000000000
f 532/532/532 533/533/533 534/534/534
v 300.00000000 -75.50000000 93.00000000
v 292.00000000 -108.50000000 93.00000000
v 292.00000000 -83.50000000 93.00000000
vt 0.00000000 0.00000000
vt 0.33955854 0.00000000
vt 0.09659601 0.05890001
vn 0.000000000 0.000000000 -1.000000000
vn 0.000000000 0.000000000 -1.000000000
vn 0.000000000 0.000000000 -1.000000000
f 535/535/535 536/536/536 537/537/537
v 300.00000000 -75.50000000 127.00000000
v 292.00000000 -83.50000000 127.00000000
v 292.00000000 -108.50000000 127.00000000
vt 0.00000000 0.00000000
vt 0.11313708 0.00000000
vt 0.28991378 0.17677670
vn 0.000000000 0.000000000 1.000000000
vn 0.000000000 0.000000000 1.000000000
vn 0.000000000 0.000000000 1.000000000
f 538/538/538 539/539/539 540/540/540
v 300.00000000 -75.50000000 93.00000000
v 420.00000000 -75.50000000 127.00000000
v 420.00000000 -75.50000000 93.00000000
vt 0.00000000 0.00000000
vt 1.24723695 0.00000000
vt 1.15455207 0.32712309
vn 0.000000000 1.000000000 0.000000000
vn 0.000000000 1.000000000 0.000000000
vn 0.000000000 1.000000000 0.000000000
f 541/541/541 542/542/542 543/543/543
v 300.00000000 -75.50000000 93.00000000
v 300.00000000 -75.50000000 127.00000000
v 420.00000000 -75.50000000 127.00000000
vt 0.00000000 0.00000000
vt 0.34000000 0.00000000
vt 0.34000000 1.20000000
vn 0.000000000 1.000000000 0.000000000
vn 0.000000000 1.000000000 0.000000000
vn 0.000000000 1.000000000 0.000000000
f 544/544/544 545/545/545 546/546/546
v 420.00000000 -75.50000000 93.00000000
v 428.00000000 -83.50000000 127.00000000
v 428.00000000 -83.50000000 93.00000000
vt 0.00000000 0.00000000
vt 0.35832946 0.00000000
vt 0.03572132 0.10734984
vn 0.707106781 0.707106781 0.000000000
vn 0.707106781 0.707106781 0.000000000
vn 0.707106781 0.707106781 0.000000000
f 547/547/547 548/548/548 549/549/549
v 420.00000000 -75.50000000 93.00000000
v 420.00000000 -75.50000000 127.00000000
v 428.00000000 -83.50000000 127.00000000
vt 0.00000000 0.00000000
vt 0.34000000 0.00000000
vt 0.34000000 0.11313708
vn 0.707106781 0.707106781 -0.000000000
vn 0.707106781 0.707106781 -0.000000000
vn 0.707106781 0.707106781 -0.000000000
f 550/550/550 551/551/551 552/552/552
v 428.00000000 -83.50000000 93.00000000
v 428.00000000 -108.50000000 127.00000000
v 428.00000000 -108.50000000 93.00000000
vt 0.00000000 0.00000000
vt 0.42201896 0.00000000
vt 0.14809761 0.20141275
vn 1.000000000 0.000000000 0.000000000
vn 1.000000000 0.000000000 0.000000000
vn 1.000000000 0.000000000 0.000000000
f 553/553/553 554/554/554 555/555/555
v 428.00000000 -83.50000000 93.00000000
v 428.00000000 -83.50000000 127.00000000
v 428.00000000 -108.50000000 127.00000000
vt 0.00000000 0.00000000
vt 0.34000000 0.00000000
vt 0.34000000 0.25000000
vn 1.000000000 0.000000000 -0.000000000
vn 1.000000000 0.000000000 -0.000000000
vn 1.000000000 0.000000000 -0.000000000
f 556/556/556 557/557/557 558/558/558
v 428.00000000 -108.50000000 93.00000000
v 420.00000000 -116.50000000 127.00000000
v 420.00000000 -116.50000000 93.00000000
vt 0.00000000 0.00000000
vt 0.35832946 0.00000000
vt 0.03572132 0.10734984
vn 0.707106781 -0.707106781 0.000000000
vn 0.707106781 -0.707106781 0.000000000
vn 0.707106781 -0.707106781 0.000000000
f 559/559/559 560/560/560 561/561/561
v 428.00000000 -108.50000000 93.00000000
v 428.00000000 -108.50000000 127.00000000
v 420.00000000 -116.50000000 127.00000000
vt 0.00000000 0.00000000
vt 0.34000000 0.00000000
vt 0.34000000 0.11313708
vn 0.707106781 -0.707106781 0.000000000
vn 0.707106781 -0.707106781 0.000000000
vn 0.707106781 -0.707106781 0.000000000
f 562/562/562 563/563/563 564/564/564
v 420.00000000 -116.50000000 93.00000000
v 300.00000000 -116.50000000 127.00000000
v 300.00000000 -116.50000000 93.00000000
vt 0.00000000 0.00000000
vt 1.24723695 0.00000000
vt 1.15455207 0.32712309
vn 0.000000000 -1.000000000 0.000000000
vn 0.000000000 -1.000000000 0.000000000
vn 0.000000000 -1.000000000 0.000000000
f 565/565/565 566/566/566 567/567/567
v 420.00000000 -116.50000000 93.00000000
v 420.00000000 -116.50000000 127.00000000
v 300.00000000 -116.50000000 127.00000000
vt 0.00000000 0.00000000
vt 0.34000000 0.00000000
vt 0.34000000 1.20000000
vn 0.000000000 -1.000000000 0.000000000
vn 0.000000000 -1.000000000 0.000000000
vn 0.000000000 -1.000000000 0.000000000
f 568/568/568 569/569/569 570/570/570
v 300.00000000 -116.50000000 93.00000000
v 292.00000000 -108.50000000 127.00000000
v 292.00000000 -108.50000000 93.00000000
vt 0.00000000 0.00000000
vt 0.35832946 0.00000000
vt 0.03572132 0.10734984
vn -0.707106781 -0.707106781 0.000000000
vn -0.707106781 -0.707106781 0.000000000
vn -0.707106781 -0.707106781 0.000000000
f 571/571/571 572/572/572 573/573/573
v 300.00000000 -116.50000000 93.00000000
v 300.00000000 -116.50000000 127.00000000
v 292.00000000 -108.50000000 127.00000000
vt 0.00000000 0.00000000
vt 0.34000000 0.00000000
vt 0.34000000 0.11313708
vn -0.707106781 -0.707106781 0.000000000
vn -0.707106781 -0.707106781 0.000000000
vn -0.707106781 -0.707106781 0.000000000
f 574/574/574 575/575/575 576/576/576
v 292.00000000 -108.50000000 93.00000000
v 292.00000000 -83.50000000 127.00000000
v 292.00000000 -83.50000000 93.00000000
vt 0.00000000 0.00000000
vt 0.42201896 0.00000000
vt 0.14809761 0.20141275
vn -1.000000000 0.000000000 0.000000000
vn -1.000000000 0.000000000 0.000000000
vn -1.000000000 0.000000000 0.000000000
f 577/577/577 578/578/578 579/579/579
v 292.00000000 -108.50000000 93.00000000
v 292.00000000 -108.50000000 127.00000000
v 292.00000000 -83.50000000 127.00000000
vt 0.00000000 0.00000000
vt 0.34000000 0.00000000
vt 0.34000000 0.25000000
vn -1.000000000 0.000000000 0.000000000
vn -1.000000000 0.000000000 0.000000000
vn -1.000000000 0.000000000 0.000000000
f 580/580/580 581/581/581 582/582/582
v 292.00000000 -83.50000000 93.00000000
v 300.00000000 -75.50000000 127.00000000
v 300.00000000 -75.50000000 93.00000000
vt 0.00000000 0.00000000
vt 0.35832946 0.00000000
vt 0.03572132 0.10734984
vn -0.707106781 0.707106781 0.000000000
vn -0.707106781 0.707106781 0.000000000
vn -0.707106781 0.707106781 0.000000000
f 583/583/583 584/584/584 585/585/585
v 292.00000000 -83.50000000 93.00000000
v 292.00000000 -83.50000000 127.00000000
v 300.00000000 -75.50000000 127.00000000
vt 0.00000000 0.00000000
vt 0.34000000 0.00000000
vt 0.34000000 0.11313708
vn -0.707106781 0.707106781 0.000000000
vn -0.707106781 0.707106781 0.000000000
vn -0.707106781 0.707106781 0.000000000
f 586/586/586 587/587/587 588/588/588
g DriverPartitionLower
s off
v 415.00000000 115.00000000 94.50000000
v 417.00000000 115.00000000 94.50000000
v 418.00000000 114.00000000 94.50000000
vt 0.00000000 0.00000000
vt 0.02000000 0.00000000
vt 0.03000000 0.01000000
vn 0.000000000 0.000000000 -1.000000000
vn 0.000000000 0.000000000 -1.000000000
vn 0.000000000 0.000000000 -1.000000000
f 589/589/589 590/590/590 591/591/591
v 415.00000000 115.00000000 169.50000000
v 418.00000000 114.00000000 169.50000000
v 417.00000000 115.00000000 169.50000000
vt 0.00000000 0.00000000
vt 0.03162278 0.00000000
vt 0.01897367 0.00632456
vn -0.000000000 0.000000000 1.000000000
vn -0.000000000 0.000000000 1.000000000
vn -0.000000000 0.000000000 1.000000000
f 592/592/592 593/593/593 594/594/594
v 415.00000000 115.00000000 94.50000000
v 418.00000000 114.00000000 94.50000000
v 418.00000000 26.00000000 94.50000000
vt 0.00000000 0.00000000
vt 0.03162278 0.00000000
vt 0.30990321 0.83484130
vn 0.000000000 0.000000000 -1.000000000
vn 0.000000000 0.000000000 -1.000000000
vn 0.000000000 0.000000000 -1.000000000
f 595/595/595 596/596/596 597/597/597
v 415.00000000 115.00000000 169.50000000
v 418.00000000 26.00000000 169.50000000
v 418.00000000 114.00000000 169.50000000
vt 0.00000000 0.00000000
vt 0.89050547 0.00000000
vt 0.01100499 0.02964608
vn 0.000000000 0.000000000 1.000000000
vn 0.000000000 0.000000000 1.000000000
vn 0.000000000 0.000000000 1.000000000
f 598/598/598 599/599/599 600/600/600
v 415.00000000 115.00000000 94.50000000
v 418.00000000 26.00000000 94.50000000
v 417.00000000 25.00000000 94.50000000
vt 0.00000000 0.00000000
vt 0.89050547 0.00000000
vt 0.90016291 0.01033121
vn 0.000000000 0.000000000 -1.000000000
vn 0.000000000 0.000000000 -1.000000000
vn 0.000000000 0.000000000 -1.000000000
f 601/601/601 602/602/602 603/603/603
v 415.00000000 115.00000000 169.50000000
v 417.00000000 25.00000000 169.50000000
v 418.00000000 26.00000000 169.50000000
vt 0.00000000 0.00000000
vt 0.90022219 0.00000000
vt 0.89044683 0.01021970
vn 0.000000000 0.000000000 1.000000000
vn 0.000000000 0.000000000 1.000000000
vn 0.000000000 0.000000000 1.000000000
f 604/604/604 605/605/605 606/606/606
v 415.00000000 115.00000000 94.50000000
v 417.00000000 25.00000000 94.50000000
v 415.00000000 25.00000000 94.50000000
vt 0.00000000 0.00000000
vt 0.90022219 0.00000000
vt 0.89977786 0.01999506
vn 0.000000000 0.000000000 -1.000000000
vn 0.000000000 0.000000000 -1.000000000
vn 0.000000000 0.000000000 -1.000000000
f 607/607/607 608/608/608 609/609/609
v 415.00000000 115.00000000 169.50000000
v 415.00000000 25.00000000 169.50000000
v 417.00000000 25.00000000 169.50000000
vt 0.00000000 0.00000000
vt 0.90000000 0.00000000
vt 0.90000000 0.02000000
vn 0.000000000 0.000000000 1.000000000
vn 0.000000000 0.000000000 1.000000000
vn 0.000000000 0.000000000 1.000000000
f 610/610/610 611/611/611 612/612/612
v 415.00000000 115.00000000 94.50000000
v 415.00000000 25.00000000 94.50000000
v 414.00000000 26.00000000 94.50000000
vt 0.00000000 0.00000000
vt 0.90000000 0.00000000
vt 0.89000000 0.01000000
vn 0.000000000 -0.000000000 -1.000000000
vn 0.000000000 -0.000000000 -1.000000000
vn 0.000000000 -0.000000000 -1.000000000
f 613/613/613 614/614/614 615/615/615
v 415.00000000 115.00000000 169.50000000
v 414.00000000 26.00000000 169.50000000
v 415.00000000 25.00000000 169.50000000
vt 0.00000000 0.00000000
vt 0.89005618 0.00000000
vt 0.89994319 0.01011172
vn 0.000000000 0.000000000 1.000000000
vn 0.000000000 0.000000000 1.000000000
vn 0.000000000 0.000000000 1.000000000
f 616/616/616 617/617/617 618/618/618
v 415.00000000 115.00000000 94.50000000
v 414.00000000 26.00000000 94.50000000
v 414.00000000 114.00000000 94.50000000
vt 0.00000000 0.00000000
vt 0.89005618 0.00000000
vt 0.01011172 0.00988702
vn 0.000000000 0.000000000 -1.000000000
vn 0.000000000 0.000000000 -1.000000000
vn 0.000000000 0.000000000 -1.000000000
f 619/619/619 620/620/620 621/621/621
v 415.00000000 115.00000000 169.50000000
v 414.00000000 114.00000000 169.50000000
v 414.00000000 26.00000000 169.50000000
vt 0.00000000 0.00000000
vt 0.01414214 0.00000000
vt 0.63639610 0.62225397
vn 0.000000000 0.000000000 1.000000000
vn 0.000000000 0.000000000 1.000000000
vn 0.000000000 0.000000000 1.000000000
f 622/622/622 623/623/623 624/624/624
v 415.00000000 115.00000000 94.50000000
v 417.00000000 115.00000000 169.50000000
v 417.00000000 115.00000000 94.50000000
vt 0.00000000 0.00000000
vt 0.75026662 0.00000000
vt 0.00053314 0.01999289
vn 0.000000000 1.000000000 0.000000000
vn 0.000000000 1.000000000 0.000000000
vn 0.000000000 1.000000000 0.000000000
f 625/625/625 626/626/626 627/627/627
v 415.00000000 115.00000000 94.50000000
v 415.00000000 115.00000000 169.50000000
v 417.00000000 115.00000000 169.50000000
vt 0.00000000 0.00000000
vt 0.75000000 0.00000000
vt 0.75000000 0.02000000
vn 0.000000000 1.000000000 0.000000000
vn 0.000000000 1.000000000 0.000000000
vn 0.000000000 1.000000000 0.000000000
f 628/628/628 629/629/629 630/630/630
v 417.00000000 115.00000000 94.50000000
v 418.00000000 114.00000000 169.50000000
v 418.00000000 114.00000000 94.50000000
vt 0.00000000 0.00000000
vt 0.75013332 0.00000000
vt 0.00026662 0.01413962
vn 0.707106781 0.707106781 0.000000000
vn 0.707106781 0.707106781 0.000000000
vn 0.707106781 0.707106781 0.000000000
f 631/631/631 632/632/632 633/633/633
v 417.00000000 115.00000000 94.50000000
v 417.00000000 115.00000000 169.50000000
v 418.00000000 114.00000000 169.50000000
vt 0.00000000 0.00000000
vt 0.75000000 0.00000000
vt 0.75000000 0.01414214
vn 0.707106781 0.707106781 -0.000000000
vn 0.707106781 0.707106781 -0.000000000
vn 0.707106781 0.707106781 -0.000000000
f 634/634/634 635/635/635 636/636/636
v 418.00000000 114.00000000 94.50000000
v 418.00000000 26.00000000 169.50000000
v 418.00000000 26.00000000 94.50000000
vt 0.00000000 0.00000000
vt 1.15624392 0.00000000
vt 0.66975487 0.57081381
vn 1.000000000 0.000000000 0.000000000
vn 1.000000000 0.000000000 0.000000000
vn 1.000000000 0.000000000 0.000000000
f 637/637/637 638/638/638 639/639/639
v 418.00000000 114.00000000 94.50000000
v 418.00000000 114.00000000 169.50000000
v 418.00000000 26.00000000 169.50000000
vt 0.00000000 0.00000000
vt 0.75000000 0.00000000
vt 0.75000000 0.88000000
vn 1.000000000 0.000000000 -0.000000000
vn 1.000000000 0.000000000 -0.000000000
vn 1.000000000 0.000000000 -0.000000000
f 640/640/640 641/641/641 642/642/642
v 418.00000000 26.00000000 94.50000000
v 417.00000000 25.00000000 169.50000000
v 417.00000000 25.00000000 94.50000000
vt 0.00000000 0.00000000
vt 0.75013332 0.00000000
vt 0.00026662 0.01413962
vn 0.707106781 -0.707106781 0.000000000
vn 0.707106781 -0.707106781 0.000000000
vn 0.707106781 -0.707106781 0.000000000
f 643/643/643 644/644/644 645/645/645
v 418.00000000 26.00000000 94.50000000
v 418.00000000 26.00000000 169.50000000
v 417.00000000 25.00000000 169.50000000
vt 0.00000000 0.00000000
vt 0.75000000 0.00000000
vt 0.75000000 0.01414214
vn 0.707106781 -0.707106781 0.000000000
vn 0.707106781 -0.707106781 0.000000000
vn 0.707106781 -0.707106781 0.000000000
f 646/646/646 647/647/647 648/648/648
v 417.00000000 25.00000000 94.50000000
v 415.00000000 25.00000000 169.50000000
v 415.00000000 25.00000000 94.50000000
vt 0.00000000 0.00000000
vt 0.75026662 0.00000000
vt 0.00053314 0.01999289
vn 0.000000000 -1.000000000 0.000000000
vn 0.000000000 -1.000000000 0.000000000
vn 0.000000000 -1.000000000 0.000000000
f 649/649/649 650/650/650 651/651/651
v 417.00000000 25.00000000 94.50000000
v 417.00000000 25.00000000 169.50000000
v 415.00000000 25.00000000 169.50000000
vt 0.00000000 0.00000000
vt 0.75000000 0.00000000
vt 0.75000000 0.02000000
vn 0.000000000 -1.000000000 0.000000000
vn 0.000000000 -1.000000000 0.000000000
vn 0.000000000 -1.000000000 0.000000000
f 652/652/652 653/653/653 654/654/654
v 415.00000000 25.00000000 94.50000000
v 414.00000000 26.00000000 169.50000000
v 414.00000000 26.00000000 94.50000000
vt 0.00000000 0.00000000
vt 0.75013332 0.00000000
vt 0.00026662 0.01413962
vn -0.707106781 -0.707106781 0.000000000
vn -0.707106781 -0.707106781 0.000000000
vn -0.707106781 -0.707106781 0.000000000
f 655/655/655 656/656/656 657/657/657
v 415.00000000 25.00000000 94.50000000
v 415.00000000 25.00000000 169.50000000
v 414.00000000 26.00000000 169.50000000
vt 0.00000000 0.00000000
vt 0.75000000 0.00000000
vt 0.75000000 0.01414214
vn -0.707106781 -0.707106781 0.000000000
vn -0.707106781 -0.707106781 0.000000000
vn -0.707106781 -0.707106781 0.000000000
f 658/658/658 659/659/659 660/660/660
v 414.00000000 26.00000000 94.50000000
v 414.00000000 114.00000000 169.50000000
v 414.00000000 114.00000000 94.50000000
vt 0.00000000 0.00000000
vt 1.15624392 0.00000000
vt 0.66975487 0.57081381
vn -1.000000000 0.000000000 0.000000000
vn -1.000000000 0.000000000 0.000000000
vn -1.000000000 0.000000000 0.000000000
f 661/661/661 662/662/662 663/663/663
v 414.00000000 26.00000000 94.50000000
v 414.00000000 26.00000000 169.50000000
v 414.00000000 114.00000000 169.50000000
vt 0.00000000 0.00000000
vt 0.75000000 0.00000000
vt 0.75000000 0.88000000
vn -1.000000000 0.000000000 0.000000000
vn -1.000000000 0.000000000 0.000000000
vn -1.000000000 0.000000000 0.000000000
f 664/664/664 665/665/665 666/666/666
v 414.00000000 114.00000000 94.50000000
v 415.00000000 115.00000000 169.50000000
v 415.00000000 115.00000000 94.50000000
vt 0.00000000 0.00000000
vt 0.75013332 0.00000000
vt 0.00026662 0.01413962
vn -0.707106781 0.707106781 0.000000000
vn -0.707106781 0.707106781 0.000000000
vn -0.707106781 0.707106781 0.000000000
f 667/667/667 668/668/668 669/669/669
v 414.00000000 114.00000000 94.50000000
v 414.00000000 114.00000000 169.50000000
v 415.00000000 115.00000000 169.50000000
vt 0.00000000 0.00000000
vt 0.75000000 0.00000000
vt 0.75000000 0.01414214
vn -0.707106781 0.707106781 0.000000000
vn -0.707106781 0.707106781 0.000000000
vn -0.707106781 0.707106781 0.000000000
f 670/670/670 671/671/671 672/672/672
