# SM_Haram_Deck_0_4
o SM_Haram_Deck_0_4
v 2563.6343 -23077.0925 0.5000
v 5000.0000 -20000.0000 0.5000
v 5000.0000 -22652.8939 0.5000
v 5000.0000 -22652.8939 -19.5000
v 5000.0000 -20000.0000 -19.5000
v 2563.6343 -23077.0925 -19.5000
v 2563.6343 -23077.0925 0.5000
v 0.0000 -23537.3967 0.5000
v 0.0000 -20000.0000 0.5000
v 0.0000 -20000.0000 -19.5000
v 0.0000 -23537.3967 -19.5000
v 2563.6343 -23077.0925 -19.5000
v 0.0000 -20000.0000 0.5000
v 5000.0000 -20000.0000 0.5000
v 2563.6343 -23077.0925 0.5000
v 2563.6343 -23077.0925 -19.5000
v 5000.0000 -20000.0000 -19.5000
v 0.0000 -20000.0000 -19.5000
v 2563.6343 -23077.0925 -19.5000
v 0.0000 -23537.3967 -19.5000
v 0.0000 -23537.3967 0.5000
v 2563.6343 -23077.0925 -19.5000
v 0.0000 -23537.3967 0.5000
v 2563.6343 -23077.0925 0.5000
v 0.0000 -23537.3967 -19.5000
v 0.0000 -20000.0000 -19.5000
v 0.0000 -20000.0000 0.5000
v 0.0000 -23537.3967 -19.5000
v 0.0000 -20000.0000 0.5000
v 0.0000 -23537.3967 0.5000
v 0.0000 -20000.0000 -19.5000
v 5000.0000 -20000.0000 -19.5000
v 5000.0000 -20000.0000 0.5000
v 0.0000 -20000.0000 -19.5000
v 5000.0000 -20000.0000 0.5000
v 0.0000 -20000.0000 0.5000
v 5000.0000 -20000.0000 -19.5000
v 5000.0000 -22652.8939 -19.5000
v 5000.0000 -22652.8939 0.5000
v 5000.0000 -20000.0000 -19.5000
v 5000.0000 -22652.8939 0.5000
v 5000.0000 -20000.0000 0.5000
v 5000.0000 -22652.8939 -19.5000
v 2563.6343 -23077.0925 -19.5000
v 2563.6343 -23077.0925 0.5000
v 5000.0000 -22652.8939 -19.5000
v 2563.6343 -23077.0925 0.5000
v 5000.0000 -22652.8939 0.5000
vn 0.000000000 -0.000000000 1.000000000
vn -0.000000000 0.000000000 -1.000000000
vn 0.000000000 -0.000000000 1.000000000
vn 0.000000000 -0.000000000 -1.000000000
vn 0.000000000 -0.000000000 1.000000000
vn 0.000000000 0.000000000 -1.000000000
vn 0.176725318 -0.984260210 0.000000000
vn 0.176725318 -0.984260210 -0.000000000
vn -1.000000000 -0.000000000 0.000000000
vn -1.000000000 -0.000000000 0.000000000
vn 0.000000000 1.000000000 0.000000000
vn 0.000000000 1.000000000 0.000000000
vn 1.000000000 -0.000000000 0.000000000
vn 1.000000000 -0.000000000 0.000000000
vn 0.171530672 -0.985178780 0.000000000
vn 0.171530672 -0.985178780 -0.000000000
f 3//1 2//1 1//1
f 6//2 5//2 4//2
f 9//3 8//3 7//3
f 12//4 11//4 10//4
f 15//5 14//5 13//5
f 18//6 17//6 16//6
f 21//7 20//7 19//7
f 24//8 23//8 22//8
f 27//9 26//9 25//9
f 30//10 29//10 28//10
f 33//11 32//11 31//11
f 36//12 35//12 34//12
f 39//13 38//13 37//13
f 42//14 41//14 40//14
f 45//15 44//15 43//15
f 48//16 47//16 46//16
