# SM_Haram_Deck_-4_-1
o SM_Haram_Deck_-4_-1
v -17649.3225 4884.1274 0.5000
v -17670.8654 5000.0000 0.5000
v -17026.0802 5000.0000 0.5000
v -17026.0802 5000.0000 -19.5000
v -17670.8654 5000.0000 -19.5000
v -17649.3225 4884.1274 -19.5000
v -17649.3225 4884.1274 -19.5000
v -17670.8654 5000.0000 -19.5000
v -17670.8654 5000.0000 0.5000
v -17649.3225 4884.1274 -19.5000
v -17670.8654 5000.0000 0.5000
v -17649.3225 4884.1274 0.5000
v -17670.8654 5000.0000 -19.5000
v -17026.0802 5000.0000 -19.5000
v -17026.0802 5000.0000 0.5000
v -17670.8654 5000.0000 -19.5000
v -17026.0802 5000.0000 0.5000
v -17670.8654 5000.0000 0.5000
v -17026.0802 5000.0000 -19.5000
v -17649.3225 4884.1274 -19.5000
v -17649.3225 4884.1274 0.5000
v -17026.0802 5000.0000 -19.5000
v -17649.3225 4884.1274 0.5000
v -17026.0802 5000.0000 0.5000
v -16381.2120 4631.6679 0.5000
v -17543.8918 4317.0493 0.5000
v -17561.5848 4412.2141 0.5000
v -17561.5848 4412.2141 -19.5000
v -17543.8918 4317.0493 -19.5000
v -16381.2120 4631.6679 -19.5000
v -16840.9285 488.8491 0.5000
v -15413.7056 516.3860 0.5000
v -16800.3675 265.0590 0.5000
v -16800.3675 265.0590 -19.5000
v -15413.7056 516.3860 -19.5000
v -16840.9285 488.8491 -19.5000
v -15328.1022 44.0810 0.5000
v -15000.0000 -0.0000 0.5000
v -15571.3129 -0.0000 0.5000
v -15571.3129 -0.0000 -19.5000
v -15000.0000 -0.0000 -19.5000
v -15328.1022 44.0810 -19.5000
v -16381.2120 4631.6679 0.5000
v -16449.6920 5000.0000 0.5000
v -15000.0000 5000.0000 0.5000
v -15000.0000 5000.0000 -19.5000
v -16449.6920 5000.0000 -19.5000
v -16381.2120 4631.6679 -19.5000
v -16381.2120 4631.6679 0.5000
v -17488.2517 4050.8787 0.5000
v -17543.8918 4317.0493 0.5000
v -17543.8918 4317.0493 -19.5000
v -17488.2517 4050.8787 -19.5000
v -16381.2120 4631.6679 -19.5000
v -17488.2517 4050.8787 0.5000
v -15413.7056 516.3860 0.5000
v -16840.9285 488.8491 0.5000
v -16840.9285 488.8491 -19.5000
v -15413.7056 516.3860 -19.5000
v -17488.2517 4050.8787 -19.5000
v -15413.7056 516.3860 0.5000
v -15000.0000 -0.0000 0.5000
v -15328.1022 44.0810 0.5000
v -15328.1022 44.0810 -19.5000
v -15000.0000 -0.0000 -19.5000
v -15413.7056 516.3860 -19.5000
v -15413.7056 516.3860 0.5000
v -16381.2120 4631.6679 0.5000
v -15000.0000 5000.0000 0.5000
v -15000.0000 5000.0000 -19.5000
v -16381.2120 4631.6679 -19.5000
v -15413.7056 516.3860 -19.5000
v -16381.2120 4631.6679 0.5000
v -15413.7056 516.3860 0.5000
v -17488.2517 4050.8787 0.5000
v -17488.2517 4050.8787 -19.5000
v -15413.7056 516.3860 -19.5000
v -16381.2120 4631.6679 -19.5000
v -15000.0000 5000.0000 0.5000
v -15000.0000 -0.0000 0.5000
v -15413.7056 516.3860 0.5000
v -15413.7056 516.3860 -19.5000
v -15000.0000 -0.0000 -19.5000
v -15000.0000 5000.0000 -19.5000
v -16381.2120 4631.6679 -19.5000
v -16449.6920 5000.0000 -19.5000
v -16449.6920 5000.0000 0.5000
v -16381.2120 4631.6679 -19.5000
v -16449.6920 5000.0000 0.5000
v -16381.2120 4631.6679 0.5000
v -16449.6920 5000.0000 -19.5000
v -15000.0000 5000.0000 -19.5000
v -15000.0000 5000.0000 0.5000
v -16449.6920 5000.0000 -19.5000
v -15000.0000 5000.0000 0.5000
v -16449.6920 5000.0000 0.5000
v -15000.0000 5000.0000 -19.5000
v -15000.0000 -0.0000 -19.5000
v -15000.0000 -0.0000 0.5000
v -15000.0000 5000.0000 -19.5000
v -15000.0000 -0.0000 0.5000
v -15000.0000 5000.0000 0.5000
v -15000.0000 -0.0000 -19.5000
v -15571.3129 -0.0000 -19.5000
v -15571.3129 -0.0000 0.5000
v -15000.0000 -0.0000 -19.5000
v -15571.3129 -0.0000 0.5000
v -15000.0000 -0.0000 0.5000
v -15571.3129 -0.0000 -19.5000
v -15328.1022 44.0810 -19.5000
v -15328.1022 44.0810 0.5000
v -15571.3129 -0.0000 -19.5000
v -15328.1022 44.0810 0.5000
v -15571.3129 -0.0000 0.5000
v -15328.1022 44.0810 -19.5000
v -15413.7056 516.3860 -19.5000
v -15413.7056 516.3860 0.5000
v -15328.1022 44.0810 -19.5000
v -15413.7056 516.3860 0.5000
v -15328.1022 44.0810 0.5000
v -15413.7056 516.3860 -19.5000
v -16800.3675 265.0590 -19.5000
v -16800.3675 265.0590 0.5000
v -15413.7056 516.3860 -19.5000
v -16800.3675 265.0590 0.5000
v -15413.7056 516.3860 0.5000
v -16800.3675 265.0590 -19.5000
v -16840.9285 488.8491 -19.5000
v -16840.9285 488.8491 0.5000
v -16800.3675 265.0590 -19.5000
v -16840.9285 488.8491 0.5000
v -16800.3675 265.0590 0.5000
v -16840.9285 488.8491 -19.5000
v -17488.2517 4050.8787 -19.5000
v -17488.2517 4050.8787 0.5000
v -16840.9285 488.8491 -19.5000
v -17488.2517 4050.8787 0.5000
v -16840.9285 488.8491 0.5000
v -17488.2517 4050.8787 -19.5000
v -17543.8918 4317.0493 -19.5000
v -17543.8918 4317.0493 0.5000
v -17488.2517 4050.8787 -19.5000
v -17543.8918 4317.0493 0.5000
v -17488.2517 4050.8787 0.5000
v -17543.8918 4317.0493 -19.5000
v -17561.5848 4412.2141 -19.5000
v -17561.5848 4412.2141 0.5000
v -17543.8918 4317.0493 -19.5000
v -17561.5848 4412.2141 0.5000
v -17543.8918 4317.0493 0.5000
v -17561.5848 4412.2141 -19.5000
v -16381.2120 4631.6679 -19.5000
v -16381.2120 4631.6679 0.5000
v -17561.5848 4412.2141 -19.5000
v -16381.2120 4631.6679 0.5000
v -17561.5848 4412.2141 0.5000
vn 0.000000000 -0.000000000 1.000000000
vn 0.000000000 -0.000000000 -1.000000000
vn -0.983152575 -0.182786798 0.000000000
vn -0.983152575 -0.182786798 0.000000000
vn 0.000000000 1.000000000 0.000000000
vn 0.000000000 1.000000000 0.000000000
vn 0.182786798 -0.983152575 0.000000000
vn 0.182786798 -0.983152575 -0.000000000
vn 0.000000000 -0.000000000 1.000000000
vn 0.000000000 -0.000000000 -1.000000000
vn -0.000000000 -0.000000000 1.000000000
vn 0.000000000 0.000000000 -1.000000000
vn 0.000000000 0.000000000 1.000000000
vn 0.000000000 -0.000000000 -1.000000000
vn 0.000000000 -0.000000000 1.000000000
vn 0.000000000 -0.000000000 -1.000000000
vn 0.000000000 -0.000000000 1.000000000
vn 0.000000000 -0.000000000 -1.000000000
vn 0.000000000 -0.000000000 1.000000000
vn 0.000000000 0.000000000 -1.000000000
vn 0.000000000 -0.000000000 1.000000000
vn 0.000000000 0.000000000 -1.000000000
vn 0.000000000 -0.000000000 1.000000000
vn 0.000000000 -0.000000000 -1.000000000
vn 0.000000000 0.000000000 1.000000000
vn 0.000000000 -0.000000000 -1.000000000
vn 0.000000000 0.000000000 1.000000000
vn 0.000000000 -0.000000000 -1.000000000
vn -0.983152575 -0.182786798 0.000000000
vn -0.983152575 -0.182786798 0.000000000
vn 0.000000000 1.000000000 0.000000000
vn 0.000000000 1.000000000 0.000000000
vn 1.000000000 -0.000000000 0.000000000
vn 1.000000000 -0.000000000 0.000000000
vn 0.000000000 -1.000000000 0.000000000
vn 0.000000000 -1.000000000 -0.000000000
vn -0.178340482 0.983968837 0.000000000
vn -0.178340482 0.983968837 0.000000000
vn -0.983968837 -0.178340482 0.000000000
vn -0.983968837 -0.178340482 0.000000000
vn 0.178340482 -0.983968837 0.000000000
vn 0.178340482 -0.983968837 -0.000000000
vn -0.983968837 -0.178340482 0.000000000
vn -0.983968837 -0.178340482 0.000000000
vn -0.983885396 -0.178800245 0.000000000
vn -0.983885396 -0.178800245 0.000000000
vn -0.978842171 -0.204616725 0.000000000
vn -0.978842171 -0.204616725 0.000000000
vn -0.983152575 -0.182786798 0.000000000
vn -0.983152575 -0.182786798 0.000000000
vn -0.182786798 0.983152575 0.000000000
vn -0.182786798 0.983152575 0.000000000
f 3//1 2//1 1//1
f 6//2 5//2 4//2
f 9//3 8//3 7//3
f 12//4 11//4 10//4
f 15//5 14//5 13//5
f 18//6 17//6 16//6
f 21//7 20//7 19//7
f 24//8 23//8 22//8
f 27//9 26//9 25//9
f 30//10 29//10 28//10
f 33//11 32//11 31//11
f 36//12 35//12 34//12
f 39//13 38//13 37//13
f 42//14 41//14 40//14
f 45//15 44//15 43//15
f 48//16 47//16 46//16
f 51//17 50//17 49//17
f 54//18 53//18 52//18
f 57//19 56//19 55//19
f 60//20 59//20 58//20
f 63//21 62//21 61//21
f 66//22 65//22 64//22
f 69//23 68//23 67//23
f 72//24 71//24 70//24
f 75//25 74//25 73//25
f 78//26 77//26 76//26
f 81//27 80//27 79//27
f 84//28 83//28 82//28
f 87//29 86//29 85//29
f 90//30 89//30 88//30
f 93//31 92//31 91//31
f 96//32 95//32 94//32
f 99//33 98//33 97//33
f 102//34 101//34 100//34
f 105//35 104//35 103//35
f 108//36 107//36 106//36
f 111//37 110//37 109//37
f 114//38 113//38 112//38
f 117//39 116//39 115//39
f 120//40 119//40 118//40
f 123//41 122//41 121//41
f 126//42 125//42 124//42
f 129//43 128//43 127//43
f 132//44 131//44 130//44
f 135//45 134//45 133//45
f 138//46 137//46 136//46
f 141//47 140//47 139//47
f 144//48 143//48 142//48
f 147//49 146//49 145//49
f 150//50 149//50 148//50
f 153//51 152//51 151//51
f 156//52 155//52 154//52
