# SM_Haram_Wall_2_1
o SM_Haram_Wall_2_1
v 13299.3170 -5000.0000 288.0000
v 13531.7685 -10000.0000 288.0000
v 13009.7516 -5000.0000 288.0000
v 13009.7516 -5000.0000 0.0000
v 13531.7685 -10000.0000 0.0000
v 13299.3170 -5000.0000 0.0000
v 13531.7685 -10000.0000 288.0000
v 13299.3170 -5000.0000 288.0000
v 13821.3339 -10000.0000 288.0000
v 13821.3339 -10000.0000 0.0000
v 13299.3170 -5000.0000 0.0000
v 13531.7685 -10000.0000 0.0000
v 13299.3170 -5000.0000 0.0000
v 13821.3339 -10000.0000 0.0000
v 13821.3339 -10000.0000 288.0000
v 13299.3170 -5000.0000 0.0000
v 13821.3339 -10000.0000 288.0000
v 13299.3170 -5000.0000 288.0000
v 13821.3339 -10000.0000 0.0000
v 13531.7685 -10000.0000 0.0000
v 13531.7685 -10000.0000 288.0000
v 13821.3339 -10000.0000 0.0000
v 13531.7685 -10000.0000 288.0000
v 13821.3339 -10000.0000 288.0000
v 13531.7685 -10000.0000 0.0000
v 13009.7516 -5000.0000 0.0000
v 13009.7516 -5000.0000 288.0000
v 13531.7685 -10000.0000 0.0000
v 13009.7516 -5000.0000 288.0000
v 13531.7685 -10000.0000 288.0000
v 13009.7516 -5000.0000 0.0000
v 13299.3170 -5000.0000 0.0000
v 13299.3170 -5000.0000 288.0000
v 13009.7516 -5000.0000 0.0000
v 13299.3170 -5000.0000 288.0000
v 13009.7516 -5000.0000 288.0000
vn 0.000000000 0.000000000 1.000000000
vn 0.000000000 -0.000000000 -1.000000000
vn -0.000000000 -0.000000000 1.000000000
vn -0.000000000 -0.000000000 -1.000000000
vn 0.994594121 0.103838987 0.000000000
vn 0.994594121 0.103838987 0.000000000
vn 0.000000000 -1.000000000 0.000000000
vn 0.000000000 -1.000000000 -0.000000000
vn -0.994594121 -0.103838987 0.000000000
vn -0.994594121 -0.103838987 0.000000000
vn 0.000000000 1.000000000 0.000000000
vn 0.000000000 1.000000000 0.000000000
f 3//1 2//1 1//1
f 6//2 5//2 4//2
f 9//3 8//3 7//3
f 12//4 11//4 10//4
f 15//5 14//5 13//5
f 18//6 17//6 16//6
f 21//7 20//7 19//7
f 24//8 23//8 22//8
f 27//9 26//9 25//9
f 30//10 29//10 28//10
f 33//11 32//11 31//11
f 36//12 35//12 34//12
