# SM_Haram_Wall_-2_-5
o SM_Haram_Wall_-2_-5
v -6730.5171 23469.5918 288.0000
v -5000.0000 23378.4737 288.0000
v -6697.6521 23183.4731 288.0000
v -6697.6521 23183.4731 0.0000
v -5000.0000 23378.4737 0.0000
v -6730.5171 23469.5918 0.0000
v -5000.0000 23378.4737 288.0000
v -6730.5171 23469.5918 288.0000
v -5000.0000 23668.3674 288.0000
v -5000.0000 23668.3674 0.0000
v -6730.5171 23469.5918 0.0000
v -5000.0000 23378.4737 0.0000
v -6730.5171 23469.5918 0.0000
v -5000.0000 23668.3674 0.0000
v -5000.0000 23668.3674 288.0000
v -6730.5171 23469.5918 0.0000
v -5000.0000 23668.3674 288.0000
v -6730.5171 23469.5918 288.0000
v -5000.0000 23668.3674 0.0000
v -5000.0000 23378.4737 0.0000
v -5000.0000 23378.4737 288.0000
v -5000.0000 23668.3674 0.0000
v -5000.0000 23378.4737 288.0000
v -5000.0000 23668.3674 288.0000
v -5000.0000 23378.4737 0.0000
v -6697.6521 23183.4731 0.0000
v -6697.6521 23183.4731 288.0000
v -5000.0000 23378.4737 0.0000
v -6697.6521 23183.4731 288.0000
v -5000.0000 23378.4737 288.0000
v -6697.6521 23183.4731 0.0000
v -6730.5171 23469.5918 0.0000
v -6730.5171 23469.5918 288.0000
v -6697.6521 23183.4731 0.0000
v -6730.5171 23469.5918 288.0000
v -6697.6521 23183.4731 288.0000
v -8032.1211 23028.1978 288.0000
v -10000.0000 22813.9598 288.0000
v -10000.0000 23103.6615 288.0000
v -10000.0000 23103.6615 0.0000
v -10000.0000 22813.9598 0.0000
v -8032.1211 23028.1978 0.0000
v -8064.4051 23314.3848 288.0000
v -7735.1133 23062.8738 288.0000
v -8032.1211 23028.1978 288.0000
v -8032.1211 23028.1978 0.0000
v -7735.1133 23062.8738 0.0000
v -8064.4051 23314.3848 0.0000
v -7273.4257 23117.3369 288.0000
v -7207.3815 23414.8168 288.0000
v -7174.5166 23128.6981 288.0000
v -7174.5166 23128.6981 0.0000
v -7207.3815 23414.8168 0.0000
v -7273.4257 23117.3369 0.0000
v -7273.4257 23117.3369 288.0000
v -7768.6821 23348.9108 288.0000
v -7306.7283 23403.4053 288.0000
v -7306.7283 23403.4053 0.0000
v -7768.6821 23348.9108 0.0000
v -7273.4257 23117.3369 0.0000
v -10000.0000 23103.6615 288.0000
v -8064.4051 23314.3848 288.0000
v -8032.1211 23028.1978 288.0000
v -8032.1211 23028.1978 0.0000
v -8064.4051 23314.3848 0.0000
v -10000.0000 23103.6615 0.0000
v -7768.6821 23348.9108 288.0000
v -7273.4257 23117.3369 288.0000
v -7735.1133 23062.8738 288.0000
v -7735.1133 23062.8738 0.0000
v -7273.4257 23117.3369 0.0000
v -7768.6821 23348.9108 0.0000
v -7306.7283 23403.4053 288.0000
v -7207.3815 23414.8168 288.0000
v -7273.4257 23117.3369 288.0000
v -7273.4257 23117.3369 0.0000
v -7207.3815 23414.8168 0.0000
v -7306.7283 23403.4053 0.0000
v -7735.1133 23062.8738 288.0000
v -8064.4051 23314.3848 288.0000
v -7768.6821 23348.9108 288.0000
v -7768.6821 23348.9108 0.0000
v -8064.4051 23314.3848 0.0000
v -7735.1133 23062.8738 0.0000
v -7768.6821 23348.9108 0.0000
v -7306.7283 23403.4053 0.0000
v -7306.7283 23403.4053 288.0000
v -7768.6821 23348.9108 0.0000
v -7306.7283 23403.4053 288.0000
v -7768.6821 23348.9108 288.0000
v -7306.7283 23403.4053 0.0000
v -7207.3815 23414.8168 0.0000
v -7207.3815 23414.8168 288.0000
v -7306.7283 23403.4053 0.0000
v -7207.3815 23414.8168 288.0000
v -7306.7283 23403.4053 288.0000
v -7207.3815 23414.8168 0.0000
v -7174.5166 23128.6981 0.0000
v -7174.5166 23128.6981 288.0000
v -7207.3815 23414.8168 0.0000
v -7174.5166 23128.6981 288.0000
v -7207.3815 23414.8168 288.0000
v -7174.5166 23128.6981 0.0000
v -7273.4257 23117.3369 0.0000
v -7273.4257 23117.3369 288.0000
v -7174.5166 23128.6981 0.0000
v -7273.4257 23117.3369 288.0000
v -7174.5166 23128.6981 288.0000
v -7273.4257 23117.3369 0.0000
v -7735.1133 23062.8738 0.0000
v -7735.1133 23062.8738 288.0000
v -7273.4257 23117.3369 0.0000
v -7735.1133 23062.8738 288.0000
v -7273.4257 23117.3369 288.0000
v -7735.1133 23062.8738 0.0000
v -8032.1211 23028.1978 0.0000
v -8032.1211 23028.1978 288.0000
v -7735.1133 23062.8738 0.0000
v -8032.1211 23028.1978 288.0000
v -7735.1133 23062.8738 288.0000
v -8032.1211 23028.1978 0.0000
v -10000.0000 22813.9598 0.0000
v -10000.0000 22813.9598 288.0000
v -8032.1211 23028.1978 0.0000
v -10000.0000 22813.9598 288.0000
v -8032.1211 23028.1978 288.0000
v -10000.0000 22813.9598 0.0000
v -10000.0000 23103.6615 0.0000
v -10000.0000 23103.6615 288.0000
v -10000.0000 22813.9598 0.0000
v -10000.0000 23103.6615 288.0000
v -10000.0000 22813.9598 288.0000
v -10000.0000 23103.6615 0.0000
v -8064.4051 23314.3848 0.0000
v -8064.4051 23314.3848 288.0000
v -10000.0000 23103.6615 0.0000
v -8064.4051 23314.3848 288.0000
v -10000.0000 23103.6615 288.0000
v -8064.4051 23314.3848 0.0000
v -7768.6821 23348.9108 0.0000
v -7768.6821 23348.9108 288.0000
v -8064.4051 23314.3848 0.0000
v -7768.6821 23348.9108 288.0000
v -8064.4051 23314.3848 288.0000
vn 0.000000000 -0.000000000 1.000000000
vn 0.000000000 0.000000000 -1.000000000
vn 0.000000000 -0.000000000 1.000000000
vn 0.000000000 -0.000000000 -1.000000000
vn -0.114114522 0.993467602 0.000000000
vn -0.114114522 0.993467602 0.000000000
vn 1.000000000 -0.000000000 0.000000000
vn 1.000000000 -0.000000000 0.000000000
vn 0.114114522 -0.993467602 0.000000000
vn 0.114114522 -0.993467602 -0.000000000
vn -0.993467602 -0.114114522 0.000000000
vn -0.993467602 -0.114114522 0.000000000
vn 0.000000000 -0.000000000 1.000000000
vn 0.000000000 -0.000000000 -1.000000000
vn 0.000000000 -0.000000000 1.000000000
vn 0.000000000 0.000000000 -1.000000000
vn 0.000000000 -0.000000000 1.000000000
vn -0.000000000 -0.000000000 -1.000000000
vn 0.000000000 -0.000000000 1.000000000
vn 0.000000000 -0.000000000 -1.000000000
vn -0.000000000 -0.000000000 1.000000000
vn 0.000000000 -0.000000000 -1.000000000
vn 0.000000000 -0.000000000 1.000000000
vn 0.000000000 0.000000000 -1.000000000
vn -0.000000000 -0.000000000 1.000000000
vn 0.000000000 0.000000000 -1.000000000
vn 0.000000000 -0.000000000 1.000000000
vn 0.000000000 -0.000000000 -1.000000000
vn -0.117153043 0.993113873 0.000000000
vn -0.117153043 0.993113873 0.000000000
vn -0.114114522 0.993467602 0.000000000
vn -0.114114522 0.993467602 0.000000000
vn 0.993467602 0.114114522 0.000000000
vn 0.993467602 0.114114522 0.000000000
vn 0.114114522 -0.993467602 0.000000000
vn 0.114114522 -0.993467602 -0.000000000
vn 0.117153043 -0.993113873 0.000000000
vn 0.117153043 -0.993113873 -0.000000000
vn 0.115963602 -0.993253464 0.000000000
vn 0.115963602 -0.993253464 -0.000000000
vn 0.108227952 -0.994126104 0.000000000
vn 0.108227952 -0.994126104 -0.000000000
vn -1.000000000 -0.000000000 0.000000000
vn -1.000000000 -0.000000000 0.000000000
vn -0.108227952 0.994126104 0.000000000
vn -0.108227952 0.994126104 0.000000000
vn -0.115963602 0.993253464 0.000000000
vn -0.115963602 0.993253464 0.000000000
f 3//1 2//1 1//1
f 6//2 5//2 4//2
f 9//3 8//3 7//3
f 12//4 11//4 10//4
f 15//5 14//5 13//5
f 18//6 17//6 16//6
f 21//7 20//7 19//7
f 24//8 23//8 22//8
f 27//9 26//9 25//9
f 30//10 29//10 28//10
f 33//11 32//11 31//11
f 36//12 35//12 34//12
f 39//13 38//13 37//13
f 42//14 41//14 40//14
f 45//15 44//15 43//15
f 48//16 47//16 46//16
f 51//17 50//17 49//17
f 54//18 53//18 52//18
f 57//19 56//19 55//19
f 60//20 59//20 58//20
f 63//21 62//21 61//21
f 66//22 65//22 64//22
f 69//23 68//23 67//23
f 72//24 71//24 70//24
f 75//25 74//25 73//25
f 78//26 77//26 76//26
f 81//27 80//27 79//27
f 84//28 83//28 82//28
f 87//29 86//29 85//29
f 90//30 89//30 88//30
f 93//31 92//31 91//31
f 96//32 95//32 94//32
f 99//33 98//33 97//33
f 102//34 101//34 100//34
f 105//35 104//35 103//35
f 108//36 107//36 106//36
f 111//37 110//37 109//37
f 114//38 113//38 112//38
f 117//39 116//39 115//39
f 120//40 119//40 118//40
f 123//41 122//41 121//41
f 126//42 125//42 124//42
f 129//43 128//43 127//43
f 132//44 131//44 130//44
f 135//45 134//45 133//45
f 138//46 137//46 136//46
f 141//47 140//47 139//47
f 144//48 143//48 142//48
