# SM_Haram_Deck_-3_3
o SM_Haram_Deck_-3_3
v -10000.0000 -18149.7387 0.5000
v -13693.2607 -18135.5623 0.5000
v -13774.9220 -17690.1825 0.5000
v -13774.9220 -17690.1825 -19.5000
v -13693.2607 -18135.5623 -19.5000
v -10000.0000 -18149.7387 -19.5000
v -10000.0000 -18149.7387 0.5000
v -13578.0932 -18795.4777 0.5000
v -13595.6801 -18698.0269 0.5000
v -13595.6801 -18698.0269 -19.5000
v -13578.0932 -18795.4777 -19.5000
v -10000.0000 -18149.7387 -19.5000
v -13774.9220 -17690.1825 0.5000
v -10000.0000 -15000.0000 0.5000
v -10000.0000 -18149.7387 0.5000
v -10000.0000 -18149.7387 -19.5000
v -10000.0000 -15000.0000 -19.5000
v -13774.9220 -17690.1825 -19.5000
v -10000.0000 -15000.0000 0.5000
v -14117.1077 -15777.9393 0.5000
v -14251.2693 -15000.0000 0.5000
v -14251.2693 -15000.0000 -19.5000
v -14117.1077 -15777.9393 -19.5000
v -10000.0000 -15000.0000 -19.5000
v -10000.0000 -18149.7387 0.5000
v -13595.6801 -18698.0269 0.5000
v -13693.2607 -18135.5623 0.5000
v -13693.2607 -18135.5623 -19.5000
v -13595.6801 -18698.0269 -19.5000
v -10000.0000 -18149.7387 -19.5000
v -13774.9220 -17690.1825 0.5000
v -14117.1077 -15777.9393 0.5000
v -10000.0000 -15000.0000 0.5000
v -10000.0000 -15000.0000 -19.5000
v -14117.1077 -15777.9393 -19.5000
v -13774.9220 -17690.1825 -19.5000
v -14117.1077 -15777.9393 -19.5000
v -14251.2693 -15000.0000 -19.5000
v -14251.2693 -15000.0000 0.5000
v -14117.1077 -15777.9393 -19.5000
v -14251.2693 -15000.0000 0.5000
v -14117.1077 -15777.9393 0.5000
v -14251.2693 -15000.0000 -19.5000
v -10000.0000 -15000.0000 -19.5000
v -10000.0000 -15000.0000 0.5000
v -14251.2693 -15000.0000 -19.5000
v -10000.0000 -15000.0000 0.5000
v -14251.2693 -15000.0000 0.5000
v -10000.0000 -15000.0000 -19.5000
v -10000.0000 -18149.7387 -19.5000
v -10000.0000 -18149.7387 0.5000
v -10000.0000 -15000.0000 -19.5000
v -10000.0000 -18149.7387 0.5000
v -10000.0000 -15000.0000 0.5000
v -10000.0000 -18149.7387 -19.5000
v -13578.0932 -18795.4777 -19.5000
v -13578.0932 -18795.4777 0.5000
v -10000.0000 -18149.7387 -19.5000
v -13578.0932 -18795.4777 0.5000
v -10000.0000 -18149.7387 0.5000
v -13578.0932 -18795.4777 -19.5000
v -13595.6801 -18698.0269 -19.5000
v -13595.6801 -18698.0269 0.5000
v -13578.0932 -18795.4777 -19.5000
v -13595.6801 -18698.0269 0.5000
v -13578.0932 -18795.4777 0.5000
v -13595.6801 -18698.0269 -19.5000
v -13693.2607 -18135.5623 -19.5000
v -13693.2607 -18135.5623 0.5000
v -13595.6801 -18698.0269 -19.5000
v -13693.2607 -18135.5623 0.5000
v -13595.6801 -18698.0269 0.5000
v -13693.2607 -18135.5623 -19.5000
v -13774.9220 -17690.1825 -19.5000
v -13774.9220 -17690.1825 0.5000
v -13693.2607 -18135.5623 -19.5000
v -13774.9220 -17690.1825 0.5000
v -13693.2607 -18135.5623 0.5000
v -13774.9220 -17690.1825 -19.5000
v -14117.1077 -15777.9393 -19.5000
v -14117.1077 -15777.9393 0.5000
v -13774.9220 -17690.1825 -19.5000
v -14117.1077 -15777.9393 0.5000
v -13774.9220 -17690.1825 0.5000
v -13492.8446 -19267.8469 0.5000
v -10000.0000 -20000.0000 0.5000
v -13360.7129 -20000.0000 0.5000
v -13360.7129 -20000.0000 -19.5000
v -10000.0000 -20000.0000 -19.5000
v -13492.8446 -19267.8469 -19.5000
v -10000.0000 -20000.0000 0.5000
v -13492.8446 -19267.8469 0.5000
v -10000.0000 -18637.4928 0.5000
v -10000.0000 -18637.4928 -19.5000
v -13492.8446 -19267.8469 -19.5000
v -10000.0000 -20000.0000 -19.5000
v -13492.8446 -19267.8469 -19.5000
v -10000.0000 -18637.4928 -19.5000
v -10000.0000 -18637.4928 0.5000
v -13492.8446 -19267.8469 -19.5000
v -10000.0000 -18637.4928 0.5000
v -13492.8446 -19267.8469 0.5000
v -10000.0000 -18637.4928 -19.5000
v -10000.0000 -20000.0000 -19.5000
v -10000.0000 -20000.0000 0.5000
v -10000.0000 -18637.4928 -19.5000
v -10000.0000 -20000.0000 0.5000
v -10000.0000 -18637.4928 0.5000
v -10000.0000 -20000.0000 -19.5000
v -13360.7129 -20000.0000 -19.5000
v -13360.7129 -20000.0000 0.5000
v -10000.0000 -20000.0000 -19.5000
v -13360.7129 -20000.0000 0.5000
v -10000.0000 -20000.0000 0.5000
v -13360.7129 -20000.0000 -19.5000
v -13492.8446 -19267.8469 -19.5000
v -13492.8446 -19267.8469 0.5000
v -13360.7129 -20000.0000 -19.5000
v -13492.8446 -19267.8469 0.5000
v -13360.7129 -20000.0000 0.5000
vn 0.000000000 -0.000000000 1.000000000
vn 0.000000000 -0.000000000 -1.000000000
vn 0.000000000 -0.000000000 1.000000000
vn 0.000000000 -0.000000000 -1.000000000
vn -0.000000000 -0.000000000 1.000000000
vn 0.000000000 0.000000000 -1.000000000
vn 0.000000000 -0.000000000 1.000000000
vn 0.000000000 -0.000000000 -1.000000000
vn 0.000000000 -0.000000000 1.000000000
vn 0.000000000 -0.000000000 -1.000000000
vn 0.000000000 -0.000000000 1.000000000
vn 0.000000000 -0.000000000 -1.000000000
vn -0.985452873 -0.169948917 0.000000000
vn -0.985452873 -0.169948917 0.000000000
vn 0.000000000 1.000000000 0.000000000
vn 0.000000000 1.000000000 0.000000000
vn 1.000000000 -0.000000000 0.000000000
vn 1.000000000 -0.000000000 0.000000000
vn 0.177601110 -0.984102559 0.000000000
vn 0.177601110 -0.984102559 -0.000000000
vn -0.984102559 -0.177601110 0.000000000
vn -0.984102559 -0.177601110 0.000000000
vn -0.985282441 -0.170934231 0.000000000
vn -0.985282441 -0.170934231 0.000000000
vn -0.983603286 -0.180345709 0.000000000
vn -0.983603286 -0.180345709 0.000000000
vn -0.984363939 -0.176146630 0.000000000
vn -0.984363939 -0.176146630 0.000000000
vn 0.000000000 -0.000000000 1.000000000
vn 0.000000000 0.000000000 -1.000000000
vn 0.000000000 -0.000000000 1.000000000
vn 0.000000000 -0.000000000 -1.000000000
vn -0.177601110 0.984102559 0.000000000
vn -0.177601110 0.984102559 0.000000000
vn 1.000000000 -0.000000000 0.000000000
vn 1.000000000 -0.000000000 0.000000000
vn 0.000000000 -1.000000000 0.000000000
vn 0.000000000 -1.000000000 -0.000000000
vn -0.984102559 -0.177601110 0.000000000
vn -0.984102559 -0.177601110 0.000000000
f 3//1 2//1 1//1
f 6//2 5//2 4//2
f 9//3 8//3 7//3
f 12//4 11//4 10//4
f 15//5 14//5 13//5
f 18//6 17//6 16//6
f 21//7 20//7 19//7
f 24//8 23//8 22//8
f 27//9 26//9 25//9
f 30//10 29//10 28//10
f 33//11 32//11 31//11
f 36//12 35//12 34//12
f 39//13 38//13 37//13
f 42//14 41//14 40//14
f 45//15 44//15 43//15
f 48//16 47//16 46//16
f 51//17 50//17 49//17
f 54//18 53//18 52//18
f 57//19 56//19 55//19
f 60//20 59//20 58//20
f 63//21 62//21 61//21
f 66//22 65//22 64//22
f 69//23 68//23 67//23
f 72//24 71//24 70//24
f 75//25 74//25 73//25
f 78//26 77//26 76//26
f 81//27 80//27 79//27
f 84//28 83//28 82//28
f 87//29 86//29 85//29
f 90//30 89//30 88//30
f 93//31 92//31 91//31
f 96//32 95//32 94//32
f 99//33 98//33 97//33
f 102//34 101//34 100//34
f 105//35 104//35 103//35
f 108//36 107//36 106//36
f 111//37 110//37 109//37
f 114//38 113//38 112//38
f 117//39 116//39 115//39
f 120//40 119//40 118//40
