# SM_Haram_Deck_-3_0
o SM_Haram_Deck_-3_0
v -14929.1438 -1752.7718 0.5000
v -15000.0000 -5000.0000 0.5000
v -15000.0000 -1765.6610 0.5000
v -15000.0000 -1765.6610 -19.5000
v -15000.0000 -5000.0000 -19.5000
v -14929.1438 -1752.7718 -19.5000
v -14929.1438 -1752.7718 0.5000
v -10000.0000 -0.0000 0.5000
v -10000.0000 -5000.0000 0.5000
v -10000.0000 -5000.0000 -19.5000
v -10000.0000 -0.0000 -19.5000
v -14929.1438 -1752.7718 -19.5000
v -10000.0000 -0.0000 0.5000
v -15000.0000 -1363.2503 0.5000
v -15000.0000 -0.0000 0.5000
v -15000.0000 -0.0000 -19.5000
v -15000.0000 -1363.2503 -19.5000
v -10000.0000 -0.0000 -19.5000
v -10000.0000 -5000.0000 0.5000
v -15000.0000 -5000.0000 0.5000
v -14929.1438 -1752.7718 0.5000
v -14929.1438 -1752.7718 -19.5000
v -15000.0000 -5000.0000 -19.5000
v -10000.0000 -5000.0000 -19.5000
v -10000.0000 -0.0000 0.5000
v -14929.1438 -1752.7718 0.5000
v -15000.0000 -1363.2503 0.5000
v -15000.0000 -1363.2503 -19.5000
v -14929.1438 -1752.7718 -19.5000
v -10000.0000 -0.0000 -19.5000
v -14929.1438 -1752.7718 -19.5000
v -15000.0000 -1363.2503 -19.5000
v -15000.0000 -1363.2503 0.5000
v -14929.1438 -1752.7718 -19.5000
v -15000.0000 -1363.2503 0.5000
v -14929.1438 -1752.7718 0.5000
v -15000.0000 -1363.2503 -19.5000
v -15000.0000 -0.0000 -19.5000
v -15000.0000 -0.0000 0.5000
v -15000.0000 -1363.2503 -19.5000
v -15000.0000 -0.0000 0.5000
v -15000.0000 -1363.2503 0.5000
v -15000.0000 -0.0000 -19.5000
v -10000.0000 -0.0000 -19.5000
v -10000.0000 -0.0000 0.5000
v -15000.0000 -0.0000 -19.5000
v -10000.0000 -0.0000 0.5000
v -15000.0000 -0.0000 0.5000
v -10000.0000 -0.0000 -19.5000
v -10000.0000 -5000.0000 -19.5000
v -10000.0000 -5000.0000 0.5000
v -10000.0000 -0.0000 -19.5000
v -10000.0000 -5000.0000 0.5000
v -10000.0000 -0.0000 0.5000
v -10000.0000 -5000.0000 -19.5000
v -15000.0000 -5000.0000 -19.5000
v -15000.0000 -5000.0000 0.5000
v -10000.0000 -5000.0000 -19.5000
v -15000.0000 -5000.0000 0.5000
v -10000.0000 -5000.0000 0.5000
v -15000.0000 -5000.0000 -19.5000
v -15000.0000 -1765.6610 -19.5000
v -15000.0000 -1765.6610 0.5000
v -15000.0000 -5000.0000 -19.5000
v -15000.0000 -1765.6610 0.5000
v -15000.0000 -5000.0000 0.5000
v -15000.0000 -1765.6610 -19.5000
v -14929.1438 -1752.7718 -19.5000
v -14929.1438 -1752.7718 0.5000
v -15000.0000 -1765.6610 -19.5000
v -14929.1438 -1752.7718 0.5000
v -15000.0000 -1765.6610 0.5000
vn 0.000000000 -0.000000000 1.000000000
vn 0.000000000 -0.000000000 -1.000000000
vn -0.000000000 -0.000000000 1.000000000
vn 0.000000000 0.000000000 -1.000000000
vn 0.000000000 -0.000000000 1.000000000
vn 0.000000000 -0.000000000 -1.000000000
vn 0.000000000 -0.000000000 1.000000000
vn 0.000000000 -0.000000000 -1.000000000
vn 0.000000000 -0.000000000 1.000000000
vn 0.000000000 -0.000000000 -1.000000000
vn -0.983854756 -0.178968767 0.000000000
vn -0.983854756 -0.178968767 0.000000000
vn -1.000000000 -0.000000000 0.000000000
vn -1.000000000 -0.000000000 0.000000000
vn 0.000000000 1.000000000 0.000000000
vn 0.000000000 1.000000000 0.000000000
vn 1.000000000 -0.000000000 0.000000000
vn 1.000000000 -0.000000000 0.000000000
vn 0.000000000 -1.000000000 0.000000000
vn 0.000000000 -1.000000000 -0.000000000
vn -1.000000000 -0.000000000 0.000000000
vn -1.000000000 -0.000000000 0.000000000
vn -0.178968767 0.983854756 0.000000000
vn -0.178968767 0.983854756 0.000000000
f 3//1 2//1 1//1
f 6//2 5//2 4//2
f 9//3 8//3 7//3
f 12//4 11//4 10//4
f 15//5 14//5 13//5
f 18//6 17//6 16//6
f 21//7 20//7 19//7
f 24//8 23//8 22//8
f 27//9 26//9 25//9
f 30//10 29//10 28//10
f 33//11 32//11 31//11
f 36//12 35//12 34//12
f 39//13 38//13 37//13
f 42//14 41//14 40//14
f 45//15 44//15 43//15
f 48//16 47//16 46//16
f 51//17 50//17 49//17
f 54//18 53//18 52//18
f 57//19 56//19 55//19
f 60//20 59//20 58//20
f 63//21 62//21 61//21
f 66//22 65//22 64//22
f 69//23 68//23 67//23
f 72//24 71//24 70//24
