# Original TransitSystemV1; cm; Unreal legacy reflected-Y adapter; vertex colour r g b on each v line
g LowerBody
s off
v -198.74000000 94.00000000 40.00000000 1.000000 0.470000 0.000000
v 198.74000000 94.00000000 40.00000000 1.000000 0.470000 0.000000
v 207.74000000 85.00000000 40.00000000 1.000000 0.470000 0.000000
vt 0.00000000 0.00000000
vt 3.97480000 0.00000000
vt 4.06480000 0.09000000
vn 0.000000000 0.000000000 -1.000000000
vn 0.000000000 0.000000000 -1.000000000
vn 0.000000000 0.000000000 -1.000000000
f 1/1/1 2/2/2 3/3/3
v -198.74000000 94.00000000 88.00000000 1.000000 0.470000 0.000000
v 207.74000000 85.00000000 88.00000000 1.000000 0.470000 0.000000
v 198.74000000 94.00000000 88.00000000 1.000000 0.470000 0.000000
vt 0.00000000 0.00000000
vt 4.06579624 0.00000000
vt 3.97382606 0.08798572
vn -0.000000000 0.000000000 1.000000000
vn -0.000000000 0.000000000 1.000000000
vn -0.000000000 0.000000000 1.000000000
f 4/4/4 5/5/5 6/6/6
v -198.74000000 94.00000000 40.00000000 1.000000 0.470000 0.000000
v 207.74000000 85.00000000 40.00000000 1.000000 0.470000 0.000000
v 207.74000000 -85.00000000 40.00000000 1.000000 0.470000 0.000000
vt 0.00000000 0.00000000
vt 4.06579624 0.00000000
vt 4.10342724 1.69958345
vn 0.000000000 0.000000000 -1.000000000
vn 0.000000000 0.000000000 -1.000000000
vn 0.000000000 0.000000000 -1.000000000
f 7/7/7 8/8/8 9/9/9
v -198.74000000 94.00000000 88.00000000 1.000000 0.470000 0.000000
v 207.74000000 -85.00000000 88.00000000 1.000000 0.470000 0.000000
v 207.74000000 85.00000000 88.00000000 1.000000 0.470000 0.000000
vt 0.00000000 0.00000000
vt 4.44147487 0.00000000
vt 3.75634210 1.55582553
vn 0.000000000 0.000000000 1.000000000
vn 0.000000000 0.000000000 1.000000000
vn 0.000000000 0.000000000 1.000000000
f 10/10/10 11/11/11 12/12/12
v -198.74000000 94.00000000 40.00000000 1.000000 0.470000 0.000000
v 207.74000000 -85.00000000 40.00000000 1.000000 0.470000 0.000000
v 198.74000000 -94.00000000 40.00000000 1.000000 0.470000 0.000000
vt 0.00000000 0.00000000
vt 4.44147487 0.00000000
vt 4.39537937 0.11863897
vn 0.000000000 0.000000000 -1.000000000
vn 0.000000000 0.000000000 -1.000000000
vn 0.000000000 0.000000000 -1.000000000
f 13/13/13 14/14/14 15/15/15
v -198.74000000 94.00000000 88.00000000 1.000000 0.470000 0.000000
v 198.74000000 -94.00000000 88.00000000 1.000000 0.470000 0.000000
v 207.74000000 -85.00000000 88.00000000 1.000000 0.470000 0.000000
vt 0.00000000 0.00000000
vt 4.39698022 0.00000000
vt 4.43985783 0.11983952
vn 0.000000000 0.000000000 1.000000000
vn 0.000000000 0.000000000 1.000000000
vn 0.000000000 0.000000000 1.000000000
f 16/16/16 17/17/17 18/18/18
v -198.74000000 94.00000000 40.00000000 1.000000 0.470000 0.000000
v 198.74000000 -94.00000000 40.00000000 1.000000 0.470000 0.000000
v -198.74000000 -94.00000000 40.00000000 1.000000 0.470000 0.000000
vt 0.00000000 0.00000000
vt 4.39698022 0.00000000
vt 0.80382440 1.69949002
vn 0.000000000 0.000000000 -1.000000000
vn 0.000000000 0.000000000 -1.000000000
vn 0.000000000 0.000000000 -1.000000000
f 19/19/19 20/20/20 21/21/21
v -198.74000000 94.00000000 88.00000000 1.000000 0.470000 0.000000
v -198.74000000 -94.00000000 88.00000000 1.000000 0.470000 0.000000
v 198.74000000 -94.00000000 88.00000000 1.000000 0.470000 0.000000
vt 0.00000000 0.00000000
vt 1.88000000 0.00000000
vt 1.88000000 3.97480000
vn 0.000000000 0.000000000 1.000000000
vn 0.000000000 0.000000000 1.000000000
vn 0.000000000 0.000000000 1.000000000
f 22/22/22 23/23/23 24/24/24
v -198.74000000 94.00000000 40.00000000 1.000000 0.470000 0.000000
v -198.74000000 -94.00000000 40.00000000 1.000000 0.470000 0.000000
v -207.74000000 -85.00000000 40.00000000 1.000000 0.470000 0.000000
vt 0.00000000 0.00000000
vt 1.88000000 0.00000000
vt 1.79000000 0.09000000
vn 0.000000000 -0.000000000 -1.000000000
vn 0.000000000 -0.000000000 -1.000000000
vn 0.000000000 -0.000000000 -1.000000000
f 25/25/25 26/26/26 27/27/27
v -198.74000000 94.00000000 88.00000000 1.000000 0.470000 0.000000
v -207.74000000 -85.00000000 88.00000000 1.000000 0.470000 0.000000
v -198.74000000 -94.00000000 88.00000000 1.000000 0.470000 0.000000
vt 0.00000000 0.00000000
vt 1.79226114 0.00000000
vt 1.87762817 0.09440589
vn 0.000000000 0.000000000 1.000000000
vn 0.000000000 0.000000000 1.000000000
vn 0.000000000 0.000000000 1.000000000
f 28/28/28 29/29/29 30/30/30
v -198.74000000 94.00000000 40.00000000 1.000000 0.470000 0.000000
v -207.74000000 -85.00000000 40.00000000 1.000000 0.470000 0.000000
v -207.74000000 85.00000000 40.00000000 1.000000 0.470000 0.000000
vt 0.00000000 0.00000000
vt 1.79226114 0.00000000
vt 0.09440589 0.08536702
vn 0.000000000 0.000000000 -1.000000000
vn 0.000000000 0.000000000 -1.000000000
vn 0.000000000 0.000000000 -1.000000000
f 31/31/31 32/32/32 33/33/33
v -198.74000000 94.00000000 88.00000000 1.000000 0.470000 0.000000
v -207.74000000 85.00000000 88.00000000 1.000000 0.470000 0.000000
v -207.74000000 -85.00000000 88.00000000 1.000000 0.470000 0.000000
vt 0.00000000 0.00000000
vt 0.12727922 0.00000000
vt 1.32936075 1.20208153
vn 0.000000000 0.000000000 1.000000000
vn 0.000000000 0.000000000 1.000000000
vn 0.000000000 0.000000000 1.000000000
f 34/34/34 35/35/35 36/36/36
v -198.74000000 94.00000000 40.00000000 1.000000 0.470000 0.000000
v 198.74000000 94.00000000 88.00000000 1.000000 0.470000 0.000000
v 198.74000000 94.00000000 40.00000000 1.000000 0.470000 0.000000
vt 0.00000000 0.00000000
vt 4.00367769 0.00000000
vt 3.94613060 0.47653786
vn 0.000000000 1.000000000 0.000000000
vn 0.000000000 1.000000000 0.000000000
vn 0.000000000 1.000000000 0.000000000
f 37/37/37 38/38/38 39/39/39
v -198.74000000 94.00000000 40.00000000 1.000000 0.470000 0.000000
v -198.74000000 94.00000000 88.00000000 1.000000 0.470000 0.000000
v 198.74000000 94.00000000 88.00000000 1.000000 0.470000 0.000000
vt 0.00000000 0.00000000
vt 0.48000000 0.00000000
vt 0.48000000 3.97480000
vn 0.000000000 1.000000000 0.000000000
vn 0.000000000 1.000000000 0.000000000
vn 0.000000000 1.000000000 0.000000000
f 40/40/40 41/41/41 42/42/42
v 198.74000000 94.00000000 40.00000000 1.000000 0.470000 0.000000
v 207.74000000 85.00000000 88.00000000 1.000000 0.470000 0.000000
v 207.74000000 85.00000000 40.00000000 1.000000 0.470000 0.000000
vt 0.00000000 0.00000000
vt 0.49658836 0.00000000
vt 0.03262259 0.12302750
vn 0.707106781 0.707106781 0.000000000
vn 0.707106781 0.707106781 0.000000000
vn 0.707106781 0.707106781 0.000000000
f 43/43/43 44/44/44 45/45/45
v 198.74000000 94.00000000 40.00000000 1.000000 0.470000 0.000000
v 198.74000000 94.00000000 88.00000000 1.000000 0.470000 0.000000
v 207.74000000 85.00000000 88.00000000 1.000000 0.470000 0.000000
vt 0.00000000 0.00000000
vt 0.48000000 0.00000000
vt 0.48000000 0.12727922
vn 0.707106781 0.707106781 -0.000000000
vn 0.707106781 0.707106781 -0.000000000
vn 0.707106781 0.707106781 -0.000000000
f 46/46/46 47/47/47 48/48/48
v 207.74000000 85.00000000 40.00000000 1.000000 0.470000 0.000000
v 207.74000000 -85.00000000 88.00000000 1.000000 0.470000 0.000000
v 207.74000000 -85.00000000 40.00000000 1.000000 0.470000 0.000000
vt 0.00000000 0.00000000
vt 1.76646540 0.00000000
vt 1.63603544 0.46193942
vn 1.000000000 0.000000000 0.000000000
vn 1.000000000 0.000000000 0.000000000
vn 1.000000000 0.000000000 0.000000000
f 49/49/49 50/50/50 51/51/51
v 207.74000000 85.00000000 40.00000000 1.000000 0.470000 0.000000
v 207.74000000 85.00000000 88.00000000 1.000000 0.470000 0.000000
v 207.74000000 -85.00000000 88.00000000 1.000000 0.470000 0.000000
vt 0.00000000 0.00000000
vt 0.48000000 0.00000000
vt 0.48000000 1.70000000
vn 1.000000000 0.000000000 -0.000000000
vn 1.000000000 0.000000000 -0.000000000
vn 1.000000000 0.000000000 -0.000000000
f 52/52/52 53/53/53 54/54/54
v 207.74000000 -85.00000000 40.00000000 1.000000 0.470000 0.000000
v 198.74000000 -94.00000000 88.00000000 1.000000 0.470000 0.000000
v 198.74000000 -94.00000000 40.00000000 1.000000 0.470000 0.000000
vt 0.00000000 0.00000000
vt 0.49658836 0.00000000
vt 0.03262259 0.12302750
vn 0.707106781 -0.707106781 0.000000000
vn 0.707106781 -0.707106781 0.000000000
vn 0.707106781 -0.707106781 0.000000000
f 55/55/55 56/56/56 57/57/57
v 207.74000000 -85.00000000 40.00000000 1.000000 0.470000 0.000000
v 207.74000000 -85.00000000 88.00000000 1.000000 0.470000 0.000000
v 198.74000000 -94.00000000 88.00000000 1.000000 0.470000 0.000000
vt 0.00000000 0.00000000
vt 0.48000000 0.00000000
vt 0.48000000 0.12727922
vn 0.707106781 -0.707106781 0.000000000
vn 0.707106781 -0.707106781 0.000000000
vn 0.707106781 -0.707106781 0.000000000
f 58/58/58 59/59/59 60/60/60
v 198.74000000 -94.00000000 40.00000000 1.000000 0.470000 0.000000
v -198.74000000 -94.00000000 88.00000000 1.000000 0.470000 0.000000
v -198.74000000 -94.00000000 40.00000000 1.000000 0.470000 0.000000
vt 0.00000000 0.00000000
vt 4.00367769 0.00000000
vt 3.94613060 0.47653786
vn 0.000000000 -1.000000000 0.000000000
vn 0.000000000 -1.000000000 0.000000000
vn 0.000000000 -1.000000000 0.000000000
f 61/61/61 62/62/62 63/63/63
v 198.74000000 -94.00000000 40.00000000 1.000000 0.470000 0.000000
v 198.74000000 -94.00000000 88.00000000 1.000000 0.470000 0.000000
v -198.74000000 -94.00000000 88.00000000 1.000000 0.470000 0.000000
vt 0.00000000 0.00000000
vt 0.48000000 0.00000000
vt 0.48000000 3.97480000
vn 0.000000000 -1.000000000 0.000000000
vn 0.000000000 -1.000000000 0.000000000
vn 0.000000000 -1.000000000 0.000000000
f 64/64/64 65/65/65 66/66/66
v -198.74000000 -94.00000000 40.00000000 1.000000 0.470000 0.000000
v -207.74000000 -85.00000000 88.00000000 1.000000 0.470000 0.000000
v -207.74000000 -85.00000000 40.00000000 1.000000 0.470000 0.000000
vt 0.00000000 0.00000000
vt 0.49658836 0.00000000
vt 0.03262259 0.12302750
vn -0.707106781 -0.707106781 0.000000000
vn -0.707106781 -0.707106781 0.000000000
vn -0.707106781 -0.707106781 0.000000000
f 67/67/67 68/68/68 69/69/69
v -198.74000000 -94.00000000 40.00000000 1.000000 0.470000 0.000000
v -198.74000000 -94.00000000 88.00000000 1.000000 0.470000 0.000000
v -207.74000000 -85.00000000 88.00000000 1.000000 0.470000 0.000000
vt 0.00000000 0.00000000
vt 0.48000000 0.00000000
vt 0.48000000 0.12727922
vn -0.707106781 -0.707106781 0.000000000
vn -0.707106781 -0.707106781 0.000000000
vn -0.707106781 -0.707106781 0.000000000
f 70/70/70 71/71/71 72/72/72
v -207.74000000 -85.00000000 40.00000000 1.000000 0.470000 0.000000
v -207.74000000 85.00000000 88.00000000 1.000000 0.470000 0.000000
v -207.74000000 85.00000000 40.00000000 1.000000 0.470000 0.000000
vt 0.00000000 0.00000000
vt 1.76646540 0.00000000
vt 1.63603544 0.46193942
vn -1.000000000 0.000000000 0.000000000
vn -1.000000000 0.000000000 0.000000000
vn -1.000000000 0.000000000 0.000000000
f 73/73/73 74/74/74 75/75/75
v -207.74000000 -85.00000000 40.00000000 1.000000 0.470000 0.000000
v -207.74000000 -85.00000000 88.00000000 1.000000 0.470000 0.000000
v -207.74000000 85.00000000 88.00000000 1.000000 0.470000 0.000000
vt 0.00000000 0.00000000
vt 0.48000000 0.00000000
vt 0.48000000 1.70000000
vn -1.000000000 0.000000000 0.000000000
vn -1.000000000 0.000000000 0.000000000
vn -1.000000000 0.000000000 0.000000000
f 76/76/76 77/77/77 78/78/78
v -207.74000000 85.00000000 40.00000000 1.000000 0.470000 0.000000
v -198.74000000 94.00000000 88.00000000 1.000000 0.470000 0.000000
v -198.74000000 94.00000000 40.00000000 1.000000 0.470000 0.000000
vt 0.00000000 0.00000000
vt 0.49658836 0.00000000
vt 0.03262259 0.12302750
vn -0.707106781 0.707106781 0.000000000
vn -0.707106781 0.707106781 0.000000000
vn -0.707106781 0.707106781 0.000000000
f 79/79/79 80/80/80 81/81/81
v -207.74000000 85.00000000 40.00000000 1.000000 0.470000 0.000000
v -207.74000000 85.00000000 88.00000000 1.000000 0.470000 0.000000
v -198.74000000 94.00000000 88.00000000 1.000000 0.470000 0.000000
vt 0.00000000 0.00000000
vt 0.48000000 0.00000000
vt 0.48000000 0.12727922
vn -0.707106781 0.707106781 0.000000000
vn -0.707106781 0.707106781 0.000000000
vn -0.707106781 0.707106781 0.000000000
f 82/82/82 83/83/83 84/84/84
g Cabin
s off
v -176.80000000 80.84000000 88.00000000 1.000000 0.950000 0.000000
v 75.14000000 80.84000000 170.00000000 1.000000 0.950000 0.000000
v 114.92000000 80.84000000 88.00000000 1.000000 0.950000 0.000000
vt 0.00000000 0.00000000
vt 2.64948606 0.00000000
vt 2.77396956 0.90285586
vn 0.000000000 1.000000000 0.000000000
vn 0.000000000 1.000000000 0.000000000
vn 0.000000000 1.000000000 0.000000000
f 85/85/85 86/86/86 87/87/87
v -176.80000000 -80.84000000 88.00000000 1.000000 0.950000 0.000000
v 114.92000000 -80.84000000 88.00000000 1.000000 0.950000 0.000000
v 75.14000000 -80.84000000 170.00000000 1.000000 0.950000 0.000000
vt 0.00000000 0.00000000
vt 2.91720000 0.00000000
vt 2.51940000 0.82000000
vn 0.000000000 -1.000000000 0.000000000
vn 0.000000000 -1.000000000 0.000000000
vn 0.000000000 -1.000000000 0.000000000
f 88/88/88 89/89/89 90/90/90
v -176.80000000 80.84000000 88.00000000 1.000000 0.950000 0.000000
v -132.60000000 80.84000000 170.00000000 1.000000 0.950000 0.000000
v 75.14000000 80.84000000 170.00000000 1.000000 0.950000 0.000000
vt 0.00000000 0.00000000
vt 0.93153851 0.00000000
vt 1.91723131 1.82866084
vn 0.000000000 1.000000000 0.000000000
vn 0.000000000 1.000000000 0.000000000
vn 0.000000000 1.000000000 0.000000000
f 91/91/91 92/92/92 93/93/93
v -176.80000000 -80.84000000 88.00000000 1.000000 0.950000 0.000000
v 75.14000000 -80.84000000 170.00000000 1.000000 0.950000 0.000000
v -132.60000000 -80.84000000 170.00000000 1.000000 0.950000 0.000000
vt 0.00000000 0.00000000
vt 2.64948606 0.00000000
vt 0.67408349 0.64294281
vn 0.000000000 -1.000000000 0.000000000
vn 0.000000000 -1.000000000 0.000000000
vn 0.000000000 -1.000000000 0.000000000
f 94/94/94 95/95/95 96/96/96
v -176.80000000 80.84000000 88.00000000 1.000000 0.950000 0.000000
v 114.92000000 80.84000000 88.00000000 1.000000 0.950000 0.000000
v 114.92000000 -80.84000000 88.00000000 1.000000 0.950000 0.000000
vt 0.00000000 0.00000000
vt 2.91720000 0.00000000
vt 2.91720000 1.61680000
vn 0.000000000 0.000000000 -1.000000000
vn 0.000000000 0.000000000 -1.000000000
vn 0.000000000 0.000000000 -1.000000000
f 97/97/97 98/98/98 99/99/99
v -176.80000000 80.84000000 88.00000000 1.000000 0.950000 0.000000
v 114.92000000 -80.84000000 88.00000000 1.000000 0.950000 0.000000
v -176.80000000 -80.84000000 88.00000000 1.000000 0.950000 0.000000
vt 0.00000000 0.00000000
vt 3.33528081 0.00000000
vt 0.78375477 1.41413249
vn 0.000000000 0.000000000 -1.000000000
vn 0.000000000 0.000000000 -1.000000000
vn 0.000000000 0.000000000 -1.000000000
f 100/100/100 101/101/101 102/102/102
v 114.92000000 80.84000000 88.00000000 1.000000 0.950000 0.000000
v 75.14000000 80.84000000 170.00000000 1.000000 0.950000 0.000000
v 75.14000000 -80.84000000 170.00000000 1.000000 0.950000 0.000000
vt 0.00000000 0.00000000
vt 0.91139719 0.00000000
vt 0.91139719 1.61680000
vn 0.899717497 0.000000000 0.436472708
vn 0.899717497 0.000000000 0.436472708
vn 0.899717497 0.000000000 0.436472708
f 103/103/103 104/104/104 105/105/105
v 114.92000000 80.84000000 88.00000000 1.000000 0.950000 0.000000
v 75.14000000 -80.84000000 170.00000000 1.000000 0.950000 0.000000
v 114.92000000 -80.84000000 88.00000000 1.000000 0.950000 0.000000
vt 0.00000000 0.00000000
vt 1.85598682 0.00000000
vt 1.40843793 0.79394259
vn 0.899717497 0.000000000 0.436472708
vn 0.899717497 0.000000000 0.436472708
vn 0.899717497 0.000000000 0.436472708
f 106/106/106 107/107/107 108/108/108
v 75.14000000 80.84000000 170.00000000 1.000000 0.950000 0.000000
v -132.60000000 80.84000000 170.00000000 1.000000 0.950000 0.000000
v -132.60000000 -80.84000000 170.00000000 1.000000 0.950000 0.000000
vt 0.00000000 0.00000000
vt 2.07740000 0.00000000
vt 2.07740000 1.61680000
vn 0.000000000 0.000000000 1.000000000
vn 0.000000000 0.000000000 1.000000000
vn 0.000000000 0.000000000 1.000000000
f 109/109/109 110/110/110 111/111/111
v 75.14000000 80.84000000 170.00000000 1.000000 0.950000 0.000000
v -132.60000000 -80.84000000 170.00000000 1.000000 0.950000 0.000000
v 75.14000000 -80.84000000 170.00000000 1.000000 0.950000 0.000000
vt 0.00000000 0.00000000
vt 2.63241961 0.00000000
vt 0.99301883 1.27591373
vn 0.000000000 0.000000000 1.000000000
vn 0.000000000 0.000000000 1.000000000
vn 0.000000000 0.000000000 1.000000000
f 112/112/112 113/113/113 114/114/114
v -132.60000000 80.84000000 170.00000000 1.000000 0.950000 0.000000
v -176.80000000 80.84000000 88.00000000 1.000000 0.950000 0.000000
v -176.80000000 -80.84000000 88.00000000 1.000000 0.950000 0.000000
vt 0.00000000 0.00000000
vt 0.93153851 0.00000000
vt 0.93153851 1.61680000
vn -0.880264196 0.000000000 0.474483872
vn -0.880264196 0.000000000 0.474483872
vn -0.880264196 0.000000000 0.474483872
f 115/115/115 116/116/116 117/117/117
v -132.60000000 80.84000000 170.00000000 1.000000 0.950000 0.000000
v -176.80000000 -80.84000000 88.00000000 1.000000 0.950000 0.000000
v -132.60000000 -80.84000000 170.00000000 1.000000 0.950000 0.000000
vt 0.00000000 0.00000000
vt 1.86595987 0.00000000
vt 1.40091021 0.80715105
vn -0.880264196 0.000000000 0.474483872
vn -0.880264196 0.000000000 0.474483872
vn -0.880264196 0.000000000 0.474483872
f 118/118/118 119/119/119 120/120/120
g RoofPanel
s off
v -89.82000000 75.20000000 167.00000000 1.000000 1.000000 0.000000
v 36.78000000 75.20000000 167.00000000 1.000000 1.000000 0.000000
v 39.78000000 72.20000000 167.00000000 1.000000 1.000000 0.000000
vt 0.00000000 0.00000000
vt 1.26600000 0.00000000
vt 1.29600000 0.03000000
vn 0.000000000 0.000000000 -1.000000000
vn 0.000000000 0.000000000 -1.000000000
vn 0.000000000 0.000000000 -1.000000000
f 121/121/121 122/122/122 123/123/123
v -89.82000000 75.20000000 173.00000000 1.000000 1.000000 0.000000
v 39.78000000 72.20000000 173.00000000 1.000000 1.000000 0.000000
v 36.78000000 75.20000000 173.00000000 1.000000 1.000000 0.000000
vt 0.00000000 0.00000000
vt 1.29634718 0.00000000
vt 1.26566095 0.02929771
vn -0.000000000 0.000000000 1.000000000
vn -0.000000000 0.000000000 1.000000000
vn -0.000000000 0.000000000 1.000000000
f 124/124/124 125/125/125 126/126/126
v -89.82000000 75.20000000 167.00000000 1.000000 1.000000 0.000000
v 39.78000000 72.20000000 167.00000000 1.000000 1.000000 0.000000
v 39.78000000 -72.20000000 167.00000000 1.000000 1.000000 0.000000
vt 0.00000000 0.00000000
vt 1.29634718 0.00000000
vt 1.32976415 1.44361328
vn 0.000000000 0.000000000 -1.000000000
vn 0.000000000 0.000000000 -1.000000000
vn 0.000000000 0.000000000 -1.000000000
f 127/127/127 128/128/128 129/129/129
v -89.82000000 75.20000000 173.00000000 1.000000 1.000000 0.000000
v 39.78000000 -72.20000000 173.00000000 1.000000 1.000000 0.000000
v 39.78000000 72.20000000 173.00000000 1.000000 1.000000 0.000000
vt 0.00000000 0.00000000
vt 1.96272566 0.00000000
vt 0.87828678 0.95348221
vn 0.000000000 0.000000000 1.000000000
vn 0.000000000 0.000000000 1.000000000
vn 0.000000000 0.000000000 1.000000000
f 130/130/130 131/131/131 132/132/132
v -89.82000000 75.20000000 167.00000000 1.000000 1.000000 0.000000
v 39.78000000 -72.20000000 167.00000000 1.000000 1.000000 0.000000
v 36.78000000 -75.20000000 167.00000000 1.000000 1.000000 0.000000
vt 0.00000000 0.00000000
vt 1.96272566 0.00000000
vt 1.96544636 0.04233908
vn 0.000000000 0.000000000 -1.000000000
vn 0.000000000 0.000000000 -1.000000000
vn 0.000000000 0.000000000 -1.000000000
f 133/133/133 134/134/134 135/135/135
v -89.82000000 75.20000000 173.00000000 1.000000 1.000000 0.000000
v 36.78000000 -75.20000000 173.00000000 1.000000 1.000000 0.000000
v 39.78000000 -72.20000000 173.00000000 1.000000 1.000000 0.000000
vt 0.00000000 0.00000000
vt 1.96590234 0.00000000
vt 1.96227042 0.04227067
vn 0.000000000 0.000000000 1.000000000
vn 0.000000000 0.000000000 1.000000000
vn 0.000000000 0.000000000 1.000000000
f 136/136/136 137/137/137 138/138/138
v -89.82000000 75.20000000 167.00000000 1.000000 1.000000 0.000000
v 36.78000000 -75.20000000 167.00000000 1.000000 1.000000 0.000000
v -89.82000000 -75.20000000 167.00000000 1.000000 1.000000 0.000000
vt 0.00000000 0.00000000
vt 1.96590234 0.00000000
vt 1.15062481 0.96854455
vn 0.000000000 0.000000000 -1.000000000
vn 0.000000000 0.000000000 -1.000000000
vn 0.000000000 0.000000000 -1.000000000
f 139/139/139 140/140/140 141/141/141
v -89.82000000 75.20000000 173.00000000 1.000000 1.000000 0.000000
v -89.82000000 -75.20000000 173.00000000 1.000000 1.000000 0.000000
v 36.78000000 -75.20000000 173.00000000 1.000000 1.000000 0.000000
vt 0.00000000 0.00000000
vt 1.50400000 0.00000000
vt 1.50400000 1.26600000
vn 0.000000000 0.000000000 1.000000000
vn 0.000000000 0.000000000 1.000000000
vn 0.000000000 0.000000000 1.000000000
f 142/142/142 143/143/143 144/144/144
v -89.82000000 75.20000000 167.00000000 1.000000 1.000000 0.000000
v -89.82000000 -75.20000000 167.00000000 1.000000 1.000000 0.000000
v -92.82000000 -72.20000000 167.00000000 1.000000 1.000000 0.000000
vt 0.00000000 0.00000000
vt 1.50400000 0.00000000
vt 1.47400000 0.03000000
vn 0.000000000 -0.000000000 -1.000000000
vn 0.000000000 -0.000000000 -1.000000000
vn 0.000000000 -0.000000000 -1.000000000
f 145/145/145 146/146/146 147/147/147
v -89.82000000 75.20000000 173.00000000 1.000000 1.000000 0.000000
v -92.82000000 -72.20000000 173.00000000 1.000000 1.000000 0.000000
v -89.82000000 -75.20000000 173.00000000 1.000000 1.000000 0.000000
vt 0.00000000 0.00000000
vt 1.47430526 0.00000000
vt 1.50368859 0.03060425
vn 0.000000000 0.000000000 1.000000000
vn 0.000000000 0.000000000 1.000000000
vn 0.000000000 0.000000000 1.000000000
f 148/148/148 149/149/149 150/150/150
v -89.82000000 75.20000000 167.00000000 1.000000 1.000000 0.000000
v -92.82000000 -72.20000000 167.00000000 1.000000 1.000000 0.000000
v -92.82000000 72.20000000 167.00000000 1.000000 1.000000 0.000000
vt 0.00000000 0.00000000
vt 1.47430526 0.00000000
vt 0.03060425 0.02938333
vn 0.000000000 0.000000000 -1.000000000
vn 0.000000000 0.000000000 -1.000000000
vn 0.000000000 0.000000000 -1.000000000
f 151/151/151 152/152/152 153/153/153
v -89.82000000 75.20000000 173.00000000 1.000000 1.000000 0.000000
v -92.82000000 72.20000000 173.00000000 1.000000 1.000000 0.000000
v -92.82000000 -72.20000000 173.00000000 1.000000 1.000000 0.000000
vt 0.00000000 0.00000000
vt 0.04242641 0.00000000
vt 1.06348860 1.02106219
vn 0.000000000 0.000000000 1.000000000
vn 0.000000000 0.000000000 1.000000000
vn 0.000000000 0.000000000 1.000000000
f 154/154/154 155/155/155 156/156/156
v -89.82000000 75.20000000 167.00000000 1.000000 1.000000 0.000000
v 36.78000000 75.20000000 173.00000000 1.000000 1.000000 0.000000
v 36.78000000 75.20000000 167.00000000 1.000000 1.000000 0.000000
vt 0.00000000 0.00000000
vt 1.26742100 0.00000000
vt 1.26458059 0.05993273
vn 0.000000000 1.000000000 0.000000000
vn 0.000000000 1.000000000 0.000000000
vn 0.000000000 1.000000000 0.000000000
f 157/157/157 158/158/158 159/159/159
v -89.82000000 75.20000000 167.00000000 1.000000 1.000000 0.000000
v -89.82000000 75.20000000 173.00000000 1.000000 1.000000 0.000000
v 36.78000000 75.20000000 173.00000000 1.000000 1.000000 0.000000
vt 0.00000000 0.00000000
vt 0.06000000 0.00000000
vt 0.06000000 1.26600000
vn 0.000000000 1.000000000 0.000000000
vn 0.000000000 1.000000000 0.000000000
vn 0.000000000 1.000000000 0.000000000
f 160/160/160 161/161/161 162/162/162
v 36.78000000 75.20000000 167.00000000 1.000000 1.000000 0.000000
v 39.78000000 72.20000000 173.00000000 1.000000 1.000000 0.000000
v 39.78000000 72.20000000 167.00000000 1.000000 1.000000 0.000000
vt 0.00000000 0.00000000
vt 0.07348469 0.00000000
vt 0.02449490 0.03464102
vn 0.707106781 0.707106781 0.000000000
vn 0.707106781 0.707106781 0.000000000
vn 0.707106781 0.707106781 0.000000000
f 163/163/163 164/164/164 165/165/165
v 36.78000000 75.20000000 167.00000000 1.000000 1.000000 0.000000
v 36.78000000 75.20000000 173.00000000 1.000000 1.000000 0.000000
v 39.78000000 72.20000000 173.00000000 1.000000 1.000000 0.000000
vt 0.00000000 0.00000000
vt 0.06000000 0.00000000
vt 0.06000000 0.04242641
vn 0.707106781 0.707106781 -0.000000000
vn 0.707106781 0.707106781 -0.000000000
vn 0.707106781 0.707106781 -0.000000000
f 166/166/166 167/167/167 168/168/168
v 39.78000000 72.20000000 167.00000000 1.000000 1.000000 0.000000
v 39.78000000 -72.20000000 173.00000000 1.000000 1.000000 0.000000
v 39.78000000 -72.20000000 167.00000000 1.000000 1.000000 0.000000
vt 0.00000000 0.00000000
vt 1.44524600 0.00000000
vt 1.44275507 0.05994827
vn 1.000000000 0.000000000 0.000000000
vn 1.000000000 0.000000000 0.000000000
vn 1.000000000 0.000000000 0.000000000
f 169/169/169 170/170/170 171/171/171
v 39.78000000 72.20000000 167.00000000 1.000000 1.000000 0.000000
v 39.78000000 72.20000000 173.00000000 1.000000 1.000000 0.000000
v 39.78000000 -72.20000000 173.00000000 1.000000 1.000000 0.000000
vt 0.00000000 0.00000000
vt 0.06000000 0.00000000
vt 0.06000000 1.44400000
vn 1.000000000 0.000000000 -0.000000000
vn 1.000000000 0.000000000 -0.000000000
vn 1.000000000 0.000000000 -0.000000000
f 172/172/172 173/173/173 174/174/174
v 39.78000000 -72.20000000 167.00000000 1.000000 1.000000 0.000000
v 36.78000000 -75.20000000 173.00000000 1.000000 1.000000 0.000000
v 36.78000000 -75.20000000 167.00000000 1.000000 1.000000 0.000000
vt 0.00000000 0.00000000
vt 0.07348469 0.00000000
vt 0.02449490 0.03464102
vn 0.707106781 -0.707106781 0.000000000
vn 0.707106781 -0.707106781 0.000000000
vn 0.707106781 -0.707106781 0.000000000
f 175/175/175 176/176/176 177/177/177
v 39.78000000 -72.20000000 167.00000000 1.000000 1.000000 0.000000
v 39.78000000 -72.20000000 173.00000000 1.000000 1.000000 0.000000
v 36.78000000 -75.20000000 173.00000000 1.000000 1.000000 0.000000
vt 0.00000000 0.00000000
vt 0.06000000 0.00000000
vt 0.06000000 0.04242641
vn 0.707106781 -0.707106781 0.000000000
vn 0.707106781 -0.707106781 0.000000000
vn 0.707106781 -0.707106781 0.000000000
f 178/178/178 179/179/179 180/180/180
v 36.78000000 -75.20000000 167.00000000 1.000000 1.000000 0.000000
v -89.82000000 -75.20000000 173.00000000 1.000000 1.000000 0.000000
v -89.82000000 -75.20000000 167.00000000 1.000000 1.000000 0.000000
vt 0.00000000 0.00000000
vt 1.26742100 0.00000000
vt 1.26458059 0.05993273
vn 0.000000000 -1.000000000 0.000000000
vn 0.000000000 -1.000000000 0.000000000
vn 0.000000000 -1.000000000 0.000000000
f 181/181/181 182/182/182 183/183/183
v 36.78000000 -75.20000000 167.00000000 1.000000 1.000000 0.000000
v 36.78000000 -75.20000000 173.00000000 1.000000 1.000000 0.000000
v -89.82000000 -75.20000000 173.00000000 1.000000 1.000000 0.000000
vt 0.00000000 0.00000000
vt 0.06000000 0.00000000
vt 0.06000000 1.26600000
vn 0.000000000 -1.000000000 0.000000000
vn 0.000000000 -1.000000000 0.000000000
vn 0.000000000 -1.000000000 0.000000000
f 184/184/184 185/185/185 186/186/186
v -89.82000000 -75.20000000 167.00000000 1.000000 1.000000 0.000000
v -92.82000000 -72.20000000 173.00000000 1.000000 1.000000 0.000000
v -92.82000000 -72.20000000 167.00000000 1.000000 1.000000 0.000000
vt 0.00000000 0.00000000
vt 0.07348469 0.00000000
vt 0.02449490 0.03464102
vn -0.707106781 -0.707106781 0.000000000
vn -0.707106781 -0.707106781 0.000000000
vn -0.707106781 -0.707106781 0.000000000
f 187/187/187 188/188/188 189/189/189
v -89.82000000 -75.20000000 167.00000000 1.000000 1.000000 0.000000
v -89.82000000 -75.20000000 173.00000000 1.000000 1.000000 0.000000
v -92.82000000 -72.20000000 173.00000000 1.000000 1.000000 0.000000
vt 0.00000000 0.00000000
vt 0.06000000 0.00000000
vt 0.06000000 0.04242641
vn -0.707106781 -0.707106781 0.000000000
vn -0.707106781 -0.707106781 0.000000000
vn -0.707106781 -0.707106781 0.000000000
f 190/190/190 191/191/191 192/192/192
v -92.82000000 -72.20000000 167.00000000 1.000000 1.000000 0.000000
v -92.82000000 72.20000000 173.00000000 1.000000 1.000000 0.000000
v -92.82000000 72.20000000 167.00000000 1.000000 1.000000 0.000000
vt 0.00000000 0.00000000
vt 1.44524600 0.00000000
vt 1.44275507 0.05994827
vn -1.000000000 0.000000000 0.000000000
vn -1.000000000 0.000000000 0.000000000
vn -1.000000000 0.000000000 0.000000000
f 193/193/193 194/194/194 195/195/195
v -92.82000000 -72.20000000 167.00000000 1.000000 1.000000 0.000000
v -92.82000000 -72.20000000 173.00000000 1.000000 1.000000 0.000000
v -92.82000000 72.20000000 173.00000000 1.000000 1.000000 0.000000
vt 0.00000000 0.00000000
vt 0.06000000 0.00000000
vt 0.06000000 1.44400000
vn -1.000000000 0.000000000 0.000000000
vn -1.000000000 0.000000000 0.000000000
vn -1.000000000 0.000000000 0.000000000
f 196/196/196 197/197/197 198/198/198
v -92.82000000 72.20000000 167.00000000 1.000000 1.000000 0.000000
v -89.82000000 75.20000000 173.00000000 1.000000 1.000000 0.000000
v -89.82000000 75.20000000 167.00000000 1.000000 1.000000 0.000000
vt 0.00000000 0.00000000
vt 0.07348469 0.00000000
vt 0.02449490 0.03464102
vn -0.707106781 0.707106781 0.000000000
vn -0.707106781 0.707106781 0.000000000
vn -0.707106781 0.707106781 0.000000000
f 199/199/199 200/200/200 201/201/201
v -92.82000000 72.20000000 167.00000000 1.000000 1.000000 0.000000
v -92.82000000 72.20000000 173.00000000 1.000000 1.000000 0.000000
v -89.82000000 75.20000000 173.00000000 1.000000 1.000000 0.000000
vt 0.00000000 0.00000000
vt 0.06000000 0.00000000
vt 0.06000000 0.04242641
vn -0.707106781 0.707106781 0.000000000
vn -0.707106781 0.707106781 0.000000000
vn -0.707106781 0.707106781 0.000000000
f 202/202/202 203/203/203 204/204/204
g Hood
s off
v 80.14000000 88.36000000 77.00000000 1.000000 0.590000 0.000000
v 202.74000000 88.36000000 77.00000000 1.000000 0.590000 0.000000
v 207.74000000 83.36000000 77.00000000 1.000000 0.590000 0.000000
vt 0.00000000 0.00000000
vt 1.22600000 0.00000000
vt 1.27600000 0.05000000
vn 0.000000000 0.000000000 -1.000000000
vn 0.000000000 0.000000000 -1.000000000
vn 0.000000000 0.000000000 -1.000000000
f 205/205/205 206/206/206 207/207/207
v 80.14000000 88.36000000 89.00000000 1.000000 0.590000 0.000000
v 207.74000000 83.36000000 89.00000000 1.000000 0.590000 0.000000
v 202.74000000 88.36000000 89.00000000 1.000000 0.590000 0.000000
vt 0.00000000 0.00000000
vt 1.27697925 0.00000000
vt 1.22505985 0.04800391
vn -0.000000000 0.000000000 1.000000000
vn -0.000000000 0.000000000 1.000000000
vn -0.000000000 0.000000000 1.000000000
f 208/208/208 209/209/209 210/210/210
v 80.14000000 88.36000000 77.00000000 1.000000 0.590000 0.000000
v 207.74000000 83.36000000 77.00000000 1.000000 0.590000 0.000000
v 207.74000000 -83.36000000 77.00000000 1.000000 0.590000 0.000000
vt 0.00000000 0.00000000
vt 1.27697925 0.00000000
vt 1.34225830 1.66592151
vn 0.000000000 0.000000000 -1.000000000
vn 0.000000000 0.000000000 -1.000000000
vn 0.000000000 0.000000000 -1.000000000
f 211/211/211 212/212/212 213/213/213
v 80.14000000 88.36000000 89.00000000 1.000000 0.590000 0.000000
v 207.74000000 -83.36000000 89.00000000 1.000000 0.590000 0.000000
v 207.74000000 83.36000000 89.00000000 1.000000 0.590000 0.000000
vt 0.00000000 0.00000000
vt 2.13938118 0.00000000
vt 0.80118308 0.99437502
vn 0.000000000 0.000000000 1.000000000
vn 0.000000000 0.000000000 1.000000000
vn 0.000000000 0.000000000 1.000000000
f 214/214/214 215/215/215 216/216/216
v 80.14000000 88.36000000 77.00000000 1.000000 0.590000 0.000000
v 207.74000000 -83.36000000 77.00000000 1.000000 0.590000 0.000000
v 202.74000000 -88.36000000 77.00000000 1.000000 0.590000 0.000000
vt 0.00000000 0.00000000
vt 2.13938118 0.00000000
vt 2.14969257 0.06995481
vn 0.000000000 0.000000000 -1.000000000
vn 0.000000000 0.000000000 -1.000000000
vn 0.000000000 0.000000000 -1.000000000
f 217/217/217 218/218/218 219/219/219
v 80.14000000 88.36000000 89.00000000 1.000000 0.590000 0.000000
v 202.74000000 -88.36000000 89.00000000 1.000000 0.590000 0.000000
v 207.74000000 -83.36000000 89.00000000 1.000000 0.590000 0.000000
vt 0.00000000 0.00000000
vt 2.15083050 0.00000000
vt 2.13824931 0.06958242
vn 0.000000000 0.000000000 1.000000000
vn 0.000000000 0.000000000 1.000000000
vn 0.000000000 0.000000000 1.000000000
f 220/220/220 221/221/221 222/222/222
v 80.14000000 88.36000000 77.00000000 1.000000 0.590000 0.000000
v 202.74000000 -88.36000000 77.00000000 1.000000 0.590000 0.000000
v 80.14000000 -88.36000000 77.00000000 1.000000 0.590000 0.000000
vt 0.00000000 0.00000000
vt 2.15083050 0.00000000
vt 1.45199533 1.00732587
vn 0.000000000 0.000000000 -1.000000000
vn 0.000000000 0.000000000 -1.000000000
vn 0.000000000 0.000000000 -1.000000000
f 223/223/223 224/224/224 225/225/225
v 80.14000000 88.36000000 89.00000000 1.000000 0.590000 0.000000
v 80.14000000 -88.36000000 89.00000000 1.000000 0.590000 0.000000
v 202.74000000 -88.36000000 89.00000000 1.000000 0.590000 0.000000
vt 0.00000000 0.00000000
vt 1.76720000 0.00000000
vt 1.76720000 1.22600000
vn 0.000000000 0.000000000 1.000000000
vn 0.000000000 0.000000000 1.000000000
vn 0.000000000 0.000000000 1.000000000
f 226/226/226 227/227/227 228/228/228
v 80.14000000 88.36000000 77.00000000 1.000000 0.590000 0.000000
v 80.14000000 -88.36000000 77.00000000 1.000000 0.590000 0.000000
v 75.14000000 -83.36000000 77.00000000 1.000000 0.590000 0.000000
vt 0.00000000 0.00000000
vt 1.76720000 0.00000000
vt 1.71720000 0.05000000
vn 0.000000000 -0.000000000 -1.000000000
vn 0.000000000 -0.000000000 -1.000000000
vn 0.000000000 -0.000000000 -1.000000000
f 229/229/229 230/230/230 231/231/231
v 80.14000000 88.36000000 89.00000000 1.000000 0.590000 0.000000
v 75.14000000 -83.36000000 89.00000000 1.000000 0.590000 0.000000
v 80.14000000 -88.36000000 89.00000000 1.000000 0.590000 0.000000
vt 0.00000000 0.00000000
vt 1.71792777 0.00000000
vt 1.76645135 0.05143406
vn 0.000000000 0.000000000 1.000000000
vn 0.000000000 0.000000000 1.000000000
vn 0.000000000 0.000000000 1.000000000
f 232/232/232 233/233/233 234/234/234
v 80.14000000 88.36000000 77.00000000 1.000000 0.590000 0.000000
v 75.14000000 -83.36000000 77.00000000 1.000000 0.590000 0.000000
v 75.14000000 83.36000000 77.00000000 1.000000 0.590000 0.000000
vt 0.00000000 0.00000000
vt 1.71792777 0.00000000
vt 0.05143406 0.04852358
vn 0.000000000 0.000000000 -1.000000000
vn 0.000000000 0.000000000 -1.000000000
vn 0.000000000 0.000000000 -1.000000000
f 235/235/235 236/236/236 237/237/237
v 80.14000000 88.36000000 89.00000000 1.000000 0.590000 0.000000
v 75.14000000 83.36000000 89.00000000 1.000000 0.590000 0.000000
v 75.14000000 -83.36000000 89.00000000 1.000000 0.590000 0.000000
vt 0.00000000 0.00000000
vt 0.07071068 0.00000000
vt 1.24959910 1.17888843
vn 0.000000000 0.000000000 1.000000000
vn 0.000000000 0.000000000 1.000000000
vn 0.000000000 0.000000000 1.000000000
f 238/238/238 239/239/239 240/240/240
v 80.14000000 88.36000000 77.00000000 1.000000 0.590000 0.000000
v 202.74000000 88.36000000 89.00000000 1.000000 0.590000 0.000000
v 202.74000000 88.36000000 77.00000000 1.000000 0.590000 0.000000
vt 0.00000000 0.00000000
vt 1.23185876 0.00000000
vt 1.22016911 0.11942928
vn 0.000000000 1.000000000 0.000000000
vn 0.000000000 1.000000000 0.000000000
vn 0.000000000 1.000000000 0.000000000
f 241/241/241 242/242/242 243/243/243
v 80.14000000 88.36000000 77.00000000 1.000000 0.590000 0.000000
v 80.14000000 88.36000000 89.00000000 1.000000 0.590000 0.000000
v 202.74000000 88.36000000 89.00000000 1.000000 0.590000 0.000000
vt 0.00000000 0.00000000
vt 0.12000000 0.00000000
vt 0.12000000 1.22600000
vn 0.000000000 1.000000000 0.000000000
vn 0.000000000 1.000000000 0.000000000
vn 0.000000000 1.000000000 0.000000000
f 244/244/244 245/245/245 246/246/246
v 202.74000000 88.36000000 77.00000000 1.000000 0.590000 0.000000
v 207.74000000 83.36000000 89.00000000 1.000000 0.590000 0.000000
v 207.74000000 83.36000000 77.00000000 1.000000 0.590000 0.000000
vt 0.00000000 0.00000000
vt 0.13928388 0.00000000
vt 0.03589791 0.06092077
vn 0.707106781 0.707106781 0.000000000
vn 0.707106781 0.707106781 0.000000000
vn 0.707106781 0.707106781 0.000000000
f 247/247/247 248/248/248 249/249/249
v 202.74000000 88.36000000 77.00000000 1.000000 0.590000 0.000000
v 202.74000000 88.36000000 89.00000000 1.000000 0.590000 0.000000
v 207.74000000 83.36000000 89.00000000 1.000000 0.590000 0.000000
vt 0.00000000 0.00000000
vt 0.12000000 0.00000000
vt 0.12000000 0.07071068
vn 0.707106781 0.707106781 -0.000000000
vn 0.707106781 0.707106781 -0.000000000
vn 0.707106781 0.707106781 -0.000000000
f 250/250/250 251/251/251 252/252/252
v 207.74000000 83.36000000 77.00000000 1.000000 0.590000 0.000000
v 207.74000000 -83.36000000 89.00000000 1.000000 0.590000 0.000000
v 207.74000000 -83.36000000 77.00000000 1.000000 0.590000 0.000000
vt 0.00000000 0.00000000
vt 1.67151304 0.00000000
vt 1.66289809 0.11969036
vn 1.000000000 0.000000000 0.000000000
vn 1.000000000 0.000000000 0.000000000
vn 1.000000000 0.000000000 0.000000000
f 253/253/253 254/254/254 255/255/255
v 207.74000000 83.36000000 77.00000000 1.000000 0.590000 0.000000
v 207.74000000 83.36000000 89.00000000 1.000000 0.590000 0.000000
v 207.74000000 -83.36000000 89.00000000 1.000000 0.590000 0.000000
vt 0.00000000 0.00000000
vt 0.12000000 0.00000000
vt 0.12000000 1.66720000
vn 1.000000000 0.000000000 -0.000000000
vn 1.000000000 0.000000000 -0.000000000
vn 1.000000000 0.000000000 -0.000000000
f 256/256/256 257/257/257 258/258/258
v 207.74000000 -83.36000000 77.00000000 1.000000 0.590000 0.000000
v 202.74000000 -88.36000000 89.00000000 1.000000 0.590000 0.000000
v 202.74000000 -88.36000000 77.00000000 1.000000 0.590000 0.000000
vt 0.00000000 0.00000000
vt 0.13928388 0.00000000
vt 0.03589791 0.06092077
vn 0.707106781 -0.707106781 0.000000000
vn 0.707106781 -0.707106781 0.000000000
vn 0.707106781 -0.707106781 0.000000000
f 259/259/259 260/260/260 261/261/261
v 207.74000000 -83.36000000 77.00000000 1.000000 0.590000 0.000000
v 207.74000000 -83.36000000 89.00000000 1.000000 0.590000 0.000000
v 202.74000000 -88.36000000 89.00000000 1.000000 0.590000 0.000000
vt 0.00000000 0.00000000
vt 0.12000000 0.00000000
vt 0.12000000 0.07071068
vn 0.707106781 -0.707106781 0.000000000
vn 0.707106781 -0.707106781 0.000000000
vn 0.707106781 -0.707106781 0.000000000
f 262/262/262 263/263/263 264/264/264
v 202.74000000 -88.36000000 77.00000000 1.000000 0.590000 0.000000
v 80.14000000 -88.36000000 89.00000000 1.000000 0.590000 0.000000
v 80.14000000 -88.36000000 77.00000000 1.000000 0.590000 0.000000
vt 0.00000000 0.00000000
vt 1.23185876 0.00000000
vt 1.22016911 0.11942928
vn 0.000000000 -1.000000000 0.000000000
vn 0.000000000 -1.000000000 0.000000000
vn 0.000000000 -1.000000000 0.000000000
f 265/265/265 266/266/266 267/267/267
v 202.74000000 -88.36000000 77.00000000 1.000000 0.590000 0.000000
v 202.74000000 -88.36000000 89.00000000 1.000000 0.590000 0.000000
v 80.14000000 -88.36000000 89.00000000 1.000000 0.590000 0.000000
vt 0.00000000 0.00000000
vt 0.12000000 0.00000000
vt 0.12000000 1.22600000
vn 0.000000000 -1.000000000 0.000000000
vn 0.000000000 -1.000000000 0.000000000
vn 0.000000000 -1.000000000 0.000000000
f 268/268/268 269/269/269 270/270/270
v 80.14000000 -88.36000000 77.00000000 1.000000 0.590000 0.000000
v 75.14000000 -83.36000000 89.00000000 1.000000 0.590000 0.000000
v 75.14000000 -83.36000000 77.00000000 1.000000 0.590000 0.000000
vt 0.00000000 0.00000000
vt 0.13928388 0.00000000
vt 0.03589791 0.06092077
vn -0.707106781 -0.707106781 0.000000000
vn -0.707106781 -0.707106781 0.000000000
vn -0.707106781 -0.707106781 0.000000000
f 271/271/271 272/272/272 273/273/273
v 80.14000000 -88.36000000 77.00000000 1.000000 0.590000 0.000000
v 80.14000000 -88.36000000 89.00000000 1.000000 0.590000 0.000000
v 75.14000000 -83.36000000 89.00000000 1.000000 0.590000 0.000000
vt 0.00000000 0.00000000
vt 0.12000000 0.00000000
vt 0.12000000 0.07071068
vn -0.707106781 -0.707106781 0.000000000
vn -0.707106781 -0.707106781 0.000000000
vn -0.707106781 -0.707106781 0.000000000
f 274/274/274 275/275/275 276/276/276
v 75.14000000 -83.36000000 77.00000000 1.000000 0.590000 0.000000
v 75.14000000 83.36000000 89.00000000 1.000000 0.590000 0.000000
v 75.14000000 83.36000000 77.00000000 1.000000 0.590000 0.000000
vt 0.00000000 0.00000000
vt 1.67151304 0.00000000
vt 1.66289809 0.11969036
vn -1.000000000 0.000000000 0.000000000
vn -1.000000000 0.000000000 0.000000000
vn -1.000000000 0.000000000 0.000000000
f 277/277/277 278/278/278 279/279/279
v 75.14000000 -83.36000000 77.00000000 1.000000 0.590000 0.000000
v 75.14000000 -83.36000000 89.00000000 1.000000 0.590000 0.000000
v 75.14000000 83.36000000 89.00000000 1.000000 0.590000 0.000000
vt 0.00000000 0.00000000
vt 0.12000000 0.00000000
vt 0.12000000 1.66720000
vn -1.000000000 0.000000000 0.000000000
vn -1.000000000 0.000000000 0.000000000
vn -1.000000000 0.000000000 0.000000000
f 280/280/280 281/281/281 282/282/282
v 75.14000000 83.36000000 77.00000000 1.000000 0.590000 0.000000
v 80.14000000 88.36000000 89.00000000 1.000000 0.590000 0.000000
v 80.14000000 88.36000000 77.00000000 1.000000 0.590000 0.000000
vt 0.00000000 0.00000000
vt 0.13928388 0.00000000
vt 0.03589791 0.06092077
vn -0.707106781 0.707106781 0.000000000
vn -0.707106781 0.707106781 0.000000000
vn -0.707106781 0.707106781 0.000000000
f 283/283/283 284/284/284 285/285/285
v 75.14000000 83.36000000 77.00000000 1.000000 0.590000 0.000000
v 75.14000000 83.36000000 89.00000000 1.000000 0.590000 0.000000
v 80.14000000 88.36000000 89.00000000 1.000000 0.590000 0.000000
vt 0.00000000 0.00000000
vt 0.12000000 0.00000000
vt 0.12000000 0.07071068
vn -0.707106781 0.707106781 0.000000000
vn -0.707106781 0.707106781 0.000000000
vn -0.707106781 0.707106781 0.000000000
f 286/286/286 287/287/287 288/288/288
g Boot
s off
v -207.16000000 88.36000000 78.00000000 1.000000 0.590000 0.000000
v -146.44000000 88.36000000 78.00000000 1.000000 0.590000 0.000000
v -141.44000000 83.36000000 78.00000000 1.000000 0.590000 0.000000
vt 0.00000000 0.00000000
vt 0.60720000 0.00000000
vt 0.65720000 0.05000000
vn 0.000000000 0.000000000 -1.000000000
vn 0.000000000 0.000000000 -1.000000000
vn 0.000000000 0.000000000 -1.000000000
f 289/289/289 290/290/290 291/291/291
v -207.16000000 88.36000000 92.00000000 1.000000 0.590000 0.000000
v -141.44000000 83.36000000 92.00000000 1.000000 0.590000 0.000000
v -146.44000000 88.36000000 92.00000000 1.000000 0.590000 0.000000
vt 0.00000000 0.00000000
vt 0.65909926 0.00000000
vt 0.60545029 0.04606286
vn -0.000000000 0.000000000 1.000000000
vn -0.000000000 0.000000000 1.000000000
vn -0.000000000 0.000000000 1.000000000
f 292/292/292 293/293/293 294/294/294
v -207.16000000 88.36000000 78.00000000 1.000000 0.590000 0.000000
v -141.44000000 83.36000000 78.00000000 1.000000 0.590000 0.000000
v -141.44000000 -83.36000000 78.00000000 1.000000 0.590000 0.000000
vt 0.00000000 0.00000000
vt 0.65909926 0.00000000
vt 0.78557490 1.66239579
vn 0.000000000 0.000000000 -1.000000000
vn 0.000000000 0.000000000 -1.000000000
vn 0.000000000 0.000000000 -1.000000000
f 295/295/295 296/296/296 297/297/297
v -207.16000000 88.36000000 92.00000000 1.000000 0.590000 0.000000
v -141.44000000 -83.36000000 92.00000000 1.000000 0.590000 0.000000
v -141.44000000 83.36000000 92.00000000 1.000000 0.590000 0.000000
vt 0.00000000 0.00000000
vt 1.83866465 0.00000000
vt 0.28160211 0.59591282
vn 0.000000000 0.000000000 1.000000000
vn 0.000000000 0.000000000 1.000000000
vn 0.000000000 0.000000000 1.000000000
f 298/298/298 299/299/299 300/300/300
v -207.16000000 88.36000000 78.00000000 1.000000 0.590000 0.000000
v -141.44000000 -83.36000000 78.00000000 1.000000 0.590000 0.000000
v -146.44000000 -88.36000000 78.00000000 1.000000 0.590000 0.000000
vt 0.00000000 0.00000000
vt 1.83866465 0.00000000
vt 1.86748991 0.06456860
vn 0.000000000 0.000000000 -1.000000000
vn 0.000000000 0.000000000 -1.000000000
vn 0.000000000 0.000000000 -1.000000000
f 301/301/301 302/302/302 303/303/303
v -207.16000000 88.36000000 92.00000000 1.000000 0.590000 0.000000
v -146.44000000 -88.36000000 92.00000000 1.000000 0.590000 0.000000
v -141.44000000 -83.36000000 92.00000000 1.000000 0.590000 0.000000
vt 0.00000000 0.00000000
vt 1.86860581 0.00000000
vt 1.83756663 0.06353400
vn 0.000000000 0.000000000 1.000000000
vn 0.000000000 0.000000000 1.000000000
vn 0.000000000 0.000000000 1.000000000
f 304/304/304 305/305/305 306/306/306
v -207.16000000 88.36000000 78.00000000 1.000000 0.590000 0.000000
v -146.44000000 -88.36000000 78.00000000 1.000000 0.590000 0.000000
v -207.16000000 -88.36000000 78.00000000 1.000000 0.590000 0.000000
vt 0.00000000 0.00000000
vt 1.86860581 0.00000000
vt 1.67129730 0.57424837
vn 0.000000000 0.000000000 -1.000000000
vn 0.000000000 0.000000000 -1.000000000
vn 0.000000000 0.000000000 -1.000000000
f 307/307/307 308/308/308 309/309/309
v -207.16000000 88.36000000 92.00000000 1.000000 0.590000 0.000000
v -207.16000000 -88.36000000 92.00000000 1.000000 0.590000 0.000000
v -146.44000000 -88.36000000 92.00000000 1.000000 0.590000 0.000000
vt 0.00000000 0.00000000
vt 1.76720000 0.00000000
vt 1.76720000 0.60720000
vn 0.000000000 0.000000000 1.000000000
vn 0.000000000 0.000000000 1.000000000
vn 0.000000000 0.000000000 1.000000000
f 310/310/310 311/311/311 312/312/312
v -207.16000000 88.36000000 78.00000000 1.000000 0.590000 0.000000
v -207.16000000 -88.36000000 78.00000000 1.000000 0.590000 0.000000
v -212.16000000 -83.36000000 78.00000000 1.000000 0.590000 0.000000
vt 0.00000000 0.00000000
vt 1.76720000 0.00000000
vt 1.71720000 0.05000000
vn 0.000000000 -0.000000000 -1.000000000
vn 0.000000000 -0.000000000 -1.000000000
vn 0.000000000 -0.000000000 -1.000000000
f 313/313/313 314/314/314 315/315/315
v -207.16000000 88.36000000 92.00000000 1.000000 0.590000 0.000000
v -212.16000000 -83.36000000 92.00000000 1.000000 0.590000 0.000000
v -207.16000000 -88.36000000 92.00000000 1.000000 0.590000 0.000000
vt 0.00000000 0.00000000
vt 1.71792777 0.00000000
vt 1.76645135 0.05143406
vn 0.000000000 0.000000000 1.000000000
vn 0.000000000 0.000000000 1.000000000
vn 0.000000000 0.000000000 1.000000000
f 316/316/316 317/317/317 318/318/318
v -207.16000000 88.36000000 78.00000000 1.000000 0.590000 0.000000
v -212.16000000 -83.36000000 78.00000000 1.000000 0.590000 0.000000
v -212.16000000 83.36000000 78.00000000 1.000000 0.590000 0.000000
vt 0.00000000 0.00000000
vt 1.71792777 0.00000000
vt 0.05143406 0.04852358
vn 0.000000000 0.000000000 -1.000000000
vn 0.000000000 0.000000000 -1.000000000
vn 0.000000000 0.000000000 -1.000000000
f 319/319/319 320/320/320 321/321/321
v -207.16000000 88.36000000 92.00000000 1.000000 0.590000 0.000000
v -212.16000000 83.36000000 92.00000000 1.000000 0.590000 0.000000
v -212.16000000 -83.36000000 92.00000000 1.000000 0.590000 0.000000
vt 0.00000000 0.00000000
vt 0.07071068 0.00000000
vt 1.24959910 1.17888843
vn 0.000000000 0.000000000 1.000000000
vn 0.000000000 0.000000000 1.000000000
vn 0.000000000 0.000000000 1.000000000
f 322/322/322 323/323/323 324/324/324
v -207.16000000 88.36000000 78.00000000 1.000000 0.590000 0.000000
v -146.44000000 88.36000000 92.00000000 1.000000 0.590000 0.000000
v -146.44000000 88.36000000 78.00000000 1.000000 0.590000 0.000000
vt 0.00000000 0.00000000
vt 0.62313068 0.00000000
vt 0.59167660 0.13642082
vn 0.000000000 1.000000000 0.000000000
vn 0.000000000 1.000000000 0.000000000
vn 0.000000000 1.000000000 0.000000000
f 325/325/325 326/326/326 327/327/327
v -207.16000000 88.36000000 78.00000000 1.000000 0.590000 0.000000
v -207.16000000 88.36000000 92.00000000 1.000000 0.590000 0.000000
v -146.44000000 88.36000000 92.00000000 1.000000 0.590000 0.000000
vt 0.00000000 0.00000000
vt 0.14000000 0.00000000
vt 0.14000000 0.60720000
vn 0.000000000 1.000000000 0.000000000
vn 0.000000000 1.000000000 0.000000000
vn 0.000000000 1.000000000 0.000000000
f 328/328/328 329/329/329 330/330/330
v -146.44000000 88.36000000 78.00000000 1.000000 0.590000 0.000000
v -141.44000000 83.36000000 92.00000000 1.000000 0.590000 0.000000
v -141.44000000 83.36000000 78.00000000 1.000000 0.590000 0.000000
vt 0.00000000 0.00000000
vt 0.15684387 0.00000000
vt 0.03187884 0.06311687
vn 0.707106781 0.707106781 0.000000000
vn 0.707106781 0.707106781 0.000000000
vn 0.707106781 0.707106781 0.000000000
f 331/331/331 332/332/332 333/333/333
v -146.44000000 88.36000000 78.00000000 1.000000 0.590000 0.000000
v -146.44000000 88.36000000 92.00000000 1.000000 0.590000 0.000000
v -141.44000000 83.36000000 92.00000000 1.000000 0.590000 0.000000
vt 0.00000000 0.00000000
vt 0.14000000 0.00000000
vt 0.14000000 0.07071068
vn 0.707106781 0.707106781 -0.000000000
vn 0.707106781 0.707106781 -0.000000000
vn 0.707106781 0.707106781 -0.000000000
f 334/334/334 335/335/335 336/336/336
v -141.44000000 83.36000000 78.00000000 1.000000 0.590000 0.000000
v -141.44000000 -83.36000000 92.00000000 1.000000 0.590000 0.000000
v -141.44000000 -83.36000000 78.00000000 1.000000 0.590000 0.000000
vt 0.00000000 0.00000000
vt 1.67306779 0.00000000
vt 1.66135279 0.13950899
vn 1.000000000 0.000000000 0.000000000
vn 1.000000000 0.000000000 0.000000000
vn 1.000000000 0.000000000 0.000000000
f 337/337/337 338/338/338 339/339/339
v -141.44000000 83.36000000 78.00000000 1.000000 0.590000 0.000000
v -141.44000000 83.36000000 92.00000000 1.000000 0.590000 0.000000
v -141.44000000 -83.36000000 92.00000000 1.000000 0.590000 0.000000
vt 0.00000000 0.00000000
vt 0.14000000 0.00000000
vt 0.14000000 1.66720000
vn 1.000000000 0.000000000 -0.000000000
vn 1.000000000 0.000000000 -0.000000000
vn 1.000000000 0.000000000 -0.000000000
f 340/340/340 341/341/341 342/342/342
v -141.44000000 -83.36000000 78.00000000 1.000000 0.590000 0.000000
v -146.44000000 -88.36000000 92.00000000 1.000000 0.590000 0.000000
v -146.44000000 -88.36000000 78.00000000 1.000000 0.590000 0.000000
vt 0.00000000 0.00000000
vt 0.15684387 0.00000000
vt 0.03187884 0.06311687
vn 0.707106781 -0.707106781 0.000000000
vn 0.707106781 -0.707106781 0.000000000
vn 0.707106781 -0.707106781 0.000000000
f 343/343/343 344/344/344 345/345/345
v -141.44000000 -83.36000000 78.00000000 1.000000 0.590000 0.000000
v -141.44000000 -83.36000000 92.00000000 1.000000 0.590000 0.000000
v -146.44000000 -88.36000000 92.00000000 1.000000 0.590000 0.000000
vt 0.00000000 0.00000000
vt 0.14000000 0.00000000
vt 0.14000000 0.07071068
vn 0.707106781 -0.707106781 0.000000000
vn 0.707106781 -0.707106781 0.000000000
vn 0.707106781 -0.707106781 0.000000000
f 346/346/346 347/347/347 348/348/348
v -146.44000000 -88.36000000 78.00000000 1.000000 0.590000 0.000000
v -207.16000000 -88.36000000 92.00000000 1.000000 0.590000 0.000000
v -207.16000000 -88.36000000 78.00000000 1.000000 0.590000 0.000000
vt 0.00000000 0.00000000
vt 0.62313068 0.00000000
vt 0.59167660 0.13642082
vn 0.000000000 -1.000000000 0.000000000
vn 0.000000000 -1.000000000 0.000000000
vn 0.000000000 -1.000000000 0.000000000
f 349/349/349 350/350/350 351/351/351
v -146.44000000 -88.36000000 78.00000000 1.000000 0.590000 0.000000
v -146.44000000 -88.36000000 92.00000000 1.000000 0.590000 0.000000
v -207.16000000 -88.36000000 92.00000000 1.000000 0.590000 0.000000
vt 0.00000000 0.00000000
vt 0.14000000 0.00000000
vt 0.14000000 0.60720000
vn 0.000000000 -1.000000000 0.000000000
vn 0.000000000 -1.000000000 0.000000000
vn 0.000000000 -1.000000000 0.000000000
f 352/352/352 353/353/353 354/354/354
v -207.16000000 -88.36000000 78.00000000 1.000000 0.590000 0.000000
v -212.16000000 -83.36000000 92.00000000 1.000000 0.590000 0.000000
v -212.16000000 -83.36000000 78.00000000 1.000000 0.590000 0.000000
vt 0.00000000 0.00000000
vt 0.15684387 0.00000000
vt 0.03187884 0.06311687
vn -0.707106781 -0.707106781 0.000000000
vn -0.707106781 -0.707106781 0.000000000
vn -0.707106781 -0.707106781 0.000000000
f 355/355/355 356/356/356 357/357/357
v -207.16000000 -88.36000000 78.00000000 1.000000 0.590000 0.000000
v -207.16000000 -88.36000000 92.00000000 1.000000 0.590000 0.000000
v -212.16000000 -83.36000000 92.00000000 1.000000 0.590000 0.000000
vt 0.00000000 0.00000000
vt 0.14000000 0.00000000
vt 0.14000000 0.07071068
vn -0.707106781 -0.707106781 0.000000000
vn -0.707106781 -0.707106781 0.000000000
vn -0.707106781 -0.707106781 0.000000000
f 358/358/358 359/359/359 360/360/360
v -212.16000000 -83.36000000 78.00000000 1.000000 0.590000 0.000000
v -212.16000000 83.36000000 92.00000000 1.000000 0.590000 0.000000
v -212.16000000 83.36000000 78.00000000 1.000000 0.590000 0.000000
vt 0.00000000 0.00000000
vt 1.67306779 0.00000000
vt 1.66135279 0.13950899
vn -1.000000000 0.000000000 0.000000000
vn -1.000000000 0.000000000 0.000000000
vn -1.000000000 0.000000000 0.000000000
f 361/361/361 362/362/362 363/363/363
v -212.16000000 -83.36000000 78.00000000 1.000000 0.590000 0.000000
v -212.16000000 -83.36000000 92.00000000 1.000000 0.590000 0.000000
v -212.16000000 83.36000000 92.00000000 1.000000 0.590000 0.000000
vt 0.00000000 0.00000000
vt 0.14000000 0.00000000
vt 0.14000000 1.66720000
vn -1.000000000 0.000000000 0.000000000
vn -1.000000000 0.000000000 0.000000000
vn -1.000000000 0.000000000 0.000000000
f 364/364/364 365/365/365 366/366/366
v -212.16000000 83.36000000 78.00000000 1.000000 0.590000 0.000000
v -207.16000000 88.36000000 92.00000000 1.000000 0.590000 0.000000
v -207.16000000 88.36000000 78.00000000 1.000000 0.590000 0.000000
vt 0.00000000 0.00000000
vt 0.15684387 0.00000000
vt 0.03187884 0.06311687
vn -0.707106781 0.707106781 0.000000000
vn -0.707106781 0.707106781 0.000000000
vn -0.707106781 0.707106781 0.000000000
f 367/367/367 368/368/368 369/369/369
v -212.16000000 83.36000000 78.00000000 1.000000 0.590000 0.000000
v -212.16000000 83.36000000 92.00000000 1.000000 0.590000 0.000000
v -207.16000000 88.36000000 92.00000000 1.000000 0.590000 0.000000
vt 0.00000000 0.00000000
vt 0.14000000 0.00000000
vt 0.14000000 0.07071068
vn -0.707106781 0.707106781 0.000000000
vn -0.707106781 0.707106781 0.000000000
vn -0.707106781 0.707106781 0.000000000
f 370/370/370 371/371/371 372/372/372
