# Original TransitSystemV1; cm; Unreal legacy reflected-Y adapter; vertex colour r g b on each v line
g SignBand
s off
v 231.50000000 20.00000000 213.00000000 0.000000 0.000000 0.000000
v 232.50000000 20.00000000 213.00000000 0.000000 0.000000 0.000000
v 233.00000000 19.50000000 213.00000000 0.000000 0.000000 0.000000
vt 0.00000000 0.00000000
vt 0.01000000 0.00000000
vt 0.01500000 0.00500000
vn 0.000000000 0.000000000 -1.000000000
vn 0.000000000 0.000000000 -1.000000000
vn 0.000000000 0.000000000 -1.000000000
f 1/1/1 2/2/2 3/3/3
v 231.50000000 20.00000000 223.00000000 0.000000 0.000000 0.000000
v 233.00000000 19.50000000 223.00000000 0.000000 0.000000 0.000000
v 232.50000000 20.00000000 223.00000000 0.000000 0.000000 0.000000
vt 0.00000000 0.00000000
vt 0.01581139 0.00000000
vt 0.00948683 0.00316228
vn -0.000000000 0.000000000 1.000000000
vn -0.000000000 0.000000000 1.000000000
vn -0.000000000 0.000000000 1.000000000
f 4/4/4 5/5/5 6/6/6
v 231.50000000 20.00000000 213.00000000 0.000000 0.000000 0.000000
v 233.00000000 19.50000000 213.00000000 0.000000 0.000000 0.000000
v 233.00000000 -19.50000000 213.00000000 0.000000 0.000000 0.000000
vt 0.00000000 0.00000000
vt 0.01581139 0.00000000
vt 0.13914022 0.36998649
vn 0.000000000 0.000000000 -1.000000000
vn 0.000000000 0.000000000 -1.000000000
vn 0.000000000 0.000000000 -1.000000000
f 7/7/7 8/8/8 9/9/9
v 231.50000000 20.00000000 223.00000000 0.000000 0.000000 0.000000
v 233.00000000 -19.50000000 223.00000000 0.000000 0.000000 0.000000
v 233.00000000 19.50000000 223.00000000 0.000000 0.000000 0.000000
vt 0.00000000 0.00000000
vt 0.39528471 0.00000000
vt 0.00556561 0.01479946
vn 0.000000000 0.000000000 1.000000000
vn 0.000000000 0.000000000 1.000000000
vn 0.000000000 0.000000000 1.000000000
f 10/10/10 11/11/11 12/12/12
v 231.50000000 20.00000000 213.00000000 0.000000 0.000000 0.000000
v 233.00000000 -19.50000000 213.00000000 0.000000 0.000000 0.000000
v 232.50000000 -20.00000000 213.00000000 0.000000 0.000000 0.000000
vt 0.00000000 0.00000000
vt 0.39528471 0.00000000
vt 0.40009137 0.00518614
vn 0.000000000 0.000000000 -1.000000000
vn 0.000000000 0.000000000 -1.000000000
vn 0.000000000 0.000000000 -1.000000000
f 13/13/13 14/14/14 15/15/15
v 231.50000000 20.00000000 223.00000000 0.000000 0.000000 0.000000
v 232.50000000 -20.00000000 223.00000000 0.000000 0.000000 0.000000
v 233.00000000 -19.50000000 223.00000000 0.000000 0.000000 0.000000
vt 0.00000000 0.00000000
vt 0.40012498 0.00000000
vt 0.39525150 0.00512340
vn 0.000000000 0.000000000 1.000000000
vn 0.000000000 0.000000000 1.000000000
vn 0.000000000 0.000000000 1.000000000
f 16/16/16 17/17/17 18/18/18
v 231.50000000 20.00000000 213.00000000 0.000000 0.000000 0.000000
v 232.50000000 -20.00000000 213.00000000 0.000000 0.000000 0.000000
v 231.50000000 -20.00000000 213.00000000 0.000000 0.000000 0.000000
vt 0.00000000 0.00000000
vt 0.40012498 0.00000000
vt 0.39987506 0.00999688
vn 0.000000000 0.000000000 -1.000000000
vn 0.000000000 0.000000000 -1.000000000
vn 0.000000000 0.000000000 -1.000000000
f 19/19/19 20/20/20 21/21/21
v 231.50000000 20.00000000 223.00000000 0.000000 0.000000 0.000000
v 231.50000000 -20.00000000 223.00000000 0.000000 0.000000 0.000000
v 232.50000000 -20.00000000 223.00000000 0.000000 0.000000 0.000000
vt 0.00000000 0.00000000
vt 0.40000000 0.00000000
vt 0.40000000 0.01000000
vn 0.000000000 0.000000000 1.000000000
vn 0.000000000 0.000000000 1.000000000
vn 0.000000000 0.000000000 1.000000000
f 22/22/22 23/23/23 24/24/24
v 231.50000000 20.00000000 213.00000000 0.000000 0.000000 0.000000
v 231.50000000 -20.00000000 213.00000000 0.000000 0.000000 0.000000
v 231.00000000 -19.50000000 213.00000000 0.000000 0.000000 0.000000
vt 0.00000000 0.00000000
vt 0.40000000 0.00000000
vt 0.39500000 0.00500000
vn 0.000000000 -0.000000000 -1.000000000
vn 0.000000000 -0.000000000 -1.000000000
vn 0.000000000 -0.000000000 -1.000000000
f 25/25/25 26/26/26 27/27/27
v 231.50000000 20.00000000 223.00000000 0.000000 0.000000 0.000000
v 231.00000000 -19.50000000 223.00000000 0.000000 0.000000 0.000000
v 231.50000000 -20.00000000 223.00000000 0.000000 0.000000 0.000000
vt 0.00000000 0.00000000
vt 0.39503164 0.00000000
vt 0.39996796 0.00506289
vn 0.000000000 0.000000000 1.000000000
vn 0.000000000 0.000000000 1.000000000
vn 0.000000000 0.000000000 1.000000000
f 28/28/28 29/29/29 30/30/30
v 231.50000000 20.00000000 213.00000000 0.000000 0.000000 0.000000
v 231.00000000 -19.50000000 213.00000000 0.000000 0.000000 0.000000
v 231.00000000 19.50000000 213.00000000 0.000000 0.000000 0.000000
vt 0.00000000 0.00000000
vt 0.39503164 0.00000000
vt 0.00506289 0.00493631
vn 0.000000000 0.000000000 -1.000000000
vn 0.000000000 0.000000000 -1.000000000
vn 0.000000000 0.000000000 -1.000000000
f 31/31/31 32/32/32 33/33/33
v 231.50000000 20.00000000 223.00000000 0.000000 0.000000 0.000000
v 231.00000000 19.50000000 223.00000000 0.000000 0.000000 0.000000
v 231.00000000 -19.50000000 223.00000000 0.000000 0.000000 0.000000
vt 0.00000000 0.00000000
vt 0.00707107 0.00000000
vt 0.28284271 0.27577164
vn 0.000000000 0.000000000 1.000000000
vn 0.000000000 0.000000000 1.000000000
vn 0.000000000 0.000000000 1.000000000
f 34/34/34 35/35/35 36/36/36
v 231.50000000 20.00000000 213.00000000 0.000000 0.000000 0.000000
v 232.50000000 20.00000000 223.00000000 0.000000 0.000000 0.000000
v 232.50000000 20.00000000 213.00000000 0.000000 0.000000 0.000000
vt 0.00000000 0.00000000
vt 0.10049876 0.00000000
vt 0.00099504 0.00995037
vn 0.000000000 1.000000000 0.000000000
vn 0.000000000 1.000000000 0.000000000
vn 0.000000000 1.000000000 0.000000000
f 37/37/37 38/38/38 39/39/39
v 231.50000000 20.00000000 213.00000000 0.000000 0.000000 0.000000
v 231.50000000 20.00000000 223.00000000 0.000000 0.000000 0.000000
v 232.50000000 20.00000000 223.00000000 0.000000 0.000000 0.000000
vt 0.00000000 0.00000000
vt 0.10000000 0.00000000
vt 0.10000000 0.01000000
vn 0.000000000 1.000000000 0.000000000
vn 0.000000000 1.000000000 0.000000000
vn 0.000000000 1.000000000 0.000000000
f 40/40/40 41/41/41 42/42/42
v 232.50000000 20.00000000 213.00000000 0.000000 0.000000 0.000000
v 233.00000000 19.50000000 223.00000000 0.000000 0.000000 0.000000
v 233.00000000 19.50000000 213.00000000 0.000000 0.000000 0.000000
vt 0.00000000 0.00000000
vt 0.10024969 0.00000000
vt 0.00049875 0.00705346
vn 0.707106781 0.707106781 0.000000000
vn 0.707106781 0.707106781 0.000000000
vn 0.707106781 0.707106781 0.000000000
f 43/43/43 44/44/44 45/45/45
v 232.50000000 20.00000000 213.00000000 0.000000 0.000000 0.000000
v 232.50000000 20.00000000 223.00000000 0.000000 0.000000 0.000000
v 233.00000000 19.50000000 223.00000000 0.000000 0.000000 0.000000
vt 0.00000000 0.00000000
vt 0.10000000 0.00000000
vt 0.10000000 0.00707107
vn 0.707106781 0.707106781 -0.000000000
vn 0.707106781 0.707106781 -0.000000000
vn 0.707106781 0.707106781 -0.000000000
f 46/46/46 47/47/47 48/48/48
v 233.00000000 19.50000000 213.00000000 0.000000 0.000000 0.000000
v 233.00000000 -19.50000000 223.00000000 0.000000 0.000000 0.000000
v 233.00000000 -19.50000000 213.00000000 0.000000 0.000000 0.000000
vt 0.00000000 0.00000000
vt 0.40261644 0.00000000
vt 0.37777891 0.09686639
vn 1.000000000 0.000000000 0.000000000
vn 1.000000000 0.000000000 0.000000000
vn 1.000000000 0.000000000 0.000000000
f 49/49/49 50/50/50 51/51/51
v 233.00000000 19.50000000 213.00000000 0.000000 0.000000 0.000000
v 233.00000000 19.50000000 223.00000000 0.000000 0.000000 0.000000
v 233.00000000 -19.50000000 223.00000000 0.000000 0.000000 0.000000
vt 0.00000000 0.00000000
vt 0.10000000 0.00000000
vt 0.10000000 0.39000000
vn 1.000000000 0.000000000 -0.000000000
vn 1.000000000 0.000000000 -0.000000000
vn 1.000000000 0.000000000 -0.000000000
f 52/52/52 53/53/53 54/54/54
v 233.00000000 -19.50000000 213.00000000 0.000000 0.000000 0.000000
v 232.50000000 -20.00000000 223.00000000 0.000000 0.000000 0.000000
v 232.50000000 -20.00000000 213.00000000 0.000000 0.000000 0.000000
vt 0.00000000 0.00000000
vt 0.10024969 0.00000000
vt 0.00049875 0.00705346
vn 0.707106781 -0.707106781 0.000000000
vn 0.707106781 -0.707106781 0.000000000
vn 0.707106781 -0.707106781 0.000000000
f 55/55/55 56/56/56 57/57/57
v 233.00000000 -19.50000000 213.00000000 0.000000 0.000000 0.000000
v 233.00000000 -19.50000000 223.00000000 0.000000 0.000000 0.000000
v 232.50000000 -20.00000000 223.00000000 0.000000 0.000000 0.000000
vt 0.00000000 0.00000000
vt 0.10000000 0.00000000
vt 0.10000000 0.00707107
vn 0.707106781 -0.707106781 0.000000000
vn 0.707106781 -0.707106781 0.000000000
vn 0.707106781 -0.707106781 0.000000000
f 58/58/58 59/59/59 60/60/60
v 232.50000000 -20.00000000 213.00000000 0.000000 0.000000 0.000000
v 231.50000000 -20.00000000 223.00000000 0.000000 0.000000 0.000000
v 231.50000000 -20.00000000 213.00000000 0.000000 0.000000 0.000000
vt 0.00000000 0.00000000
vt 0.10049876 0.00000000
vt 0.00099504 0.00995037
vn 0.000000000 -1.000000000 0.000000000
vn 0.000000000 -1.000000000 0.000000000
vn 0.000000000 -1.000000000 0.000000000
f 61/61/61 62/62/62 63/63/63
v 232.50000000 -20.00000000 213.00000000 0.000000 0.000000 0.000000
v 232.50000000 -20.00000000 223.00000000 0.000000 0.000000 0.000000
v 231.50000000 -20.00000000 223.00000000 0.000000 0.000000 0.000000
vt 0.00000000 0.00000000
vt 0.10000000 0.00000000
vt 0.10000000 0.01000000
vn 0.000000000 -1.000000000 0.000000000
vn 0.000000000 -1.000000000 0.000000000
vn 0.000000000 -1.000000000 0.000000000
f 64/64/64 65/65/65 66/66/66
v 231.50000000 -20.00000000 213.00000000 0.000000 0.000000 0.000000
v 231.00000000 -19.50000000 223.00000000 0.000000 0.000000 0.000000
v 231.00000000 -19.50000000 213.00000000 0.000000 0.000000 0.000000
vt 0.00000000 0.00000000
vt 0.10024969 0.00000000
vt 0.00049875 0.00705346
vn -0.707106781 -0.707106781 0.000000000
vn -0.707106781 -0.707106781 0.000000000
vn -0.707106781 -0.707106781 0.000000000
f 67/67/67 68/68/68 69/69/69
v 231.50000000 -20.00000000 213.00000000 0.000000 0.000000 0.000000
v 231.50000000 -20.00000000 223.00000000 0.000000 0.000000 0.000000
v 231.00000000 -19.50000000 223.00000000 0.000000 0.000000 0.000000
vt 0.00000000 0.00000000
vt 0.10000000 0.00000000
vt 0.10000000 0.00707107
vn -0.707106781 -0.707106781 0.000000000
vn -0.707106781 -0.707106781 0.000000000
vn -0.707106781 -0.707106781 0.000000000
f 70/70/70 71/71/71 72/72/72
v 231.00000000 -19.50000000 213.00000000 0.000000 0.000000 0.000000
v 231.00000000 19.50000000 223.00000000 0.000000 0.000000 0.000000
v 231.00000000 19.50000000 213.00000000 0.000000 0.000000 0.000000
vt 0.00000000 0.00000000
vt 0.40261644 0.00000000
vt 0.37777891 0.09686639
vn -1.000000000 0.000000000 0.000000000
vn -1.000000000 0.000000000 0.000000000
vn -1.000000000 0.000000000 0.000000000
f 73/73/73 74/74/74 75/75/75
v 231.00000000 -19.50000000 213.00000000 0.000000 0.000000 0.000000
v 231.00000000 -19.50000000 223.00000000 0.000000 0.000000 0.000000
v 231.00000000 19.50000000 223.00000000 0.000000 0.000000 0.000000
vt 0.00000000 0.00000000
vt 0.10000000 0.00000000
vt 0.10000000 0.39000000
vn -1.000000000 0.000000000 0.000000000
vn -1.000000000 0.000000000 0.000000000
vn -1.000000000 0.000000000 0.000000000
f 76/76/76 77/77/77 78/78/78
v 231.00000000 19.50000000 213.00000000 0.000000 0.000000 0.000000
v 231.50000000 20.00000000 223.00000000 0.000000 0.000000 0.000000
v 231.50000000 20.00000000 213.00000000 0.000000 0.000000 0.000000
vt 0.00000000 0.00000000
vt 0.10024969 0.00000000
vt 0.00049875 0.00705346
vn -0.707106781 0.707106781 0.000000000
vn -0.707106781 0.707106781 0.000000000
vn -0.707106781 0.707106781 0.000000000
f 79/79/79 80/80/80 81/81/81
v 231.00000000 19.50000000 213.00000000 0.000000 0.000000 0.000000
v 231.00000000 19.50000000 223.00000000 0.000000 0.000000 0.000000
v 231.50000000 20.00000000 223.00000000 0.000000 0.000000 0.000000
vt 0.00000000 0.00000000
vt 0.10000000 0.00000000
vt 0.10000000 0.00707107
vn -0.707106781 0.707106781 0.000000000
vn -0.707106781 0.707106781 0.000000000
vn -0.707106781 0.707106781 0.000000000
f 82/82/82 83/83/83 84/84/84
