# Original TransitSystemV1; cm; Unreal legacy reflected-Y adapter; vertex colour r g b on each v line
g Slab
s off
v -1794.00000000 -0.00000000 0.00000000 0.000000 0.000000 0.000000
v 1794.00000000 -0.00000000 0.00000000 0.000000 0.000000 0.000000
v 1800.00000000 -6.00000000 0.00000000 0.000000 0.000000 0.000000
vt 0.00000000 0.00000000
vt 35.88000000 0.00000000
vt 35.94000000 0.06000000
vn 0.000000000 0.000000000 -1.000000000
vn 0.000000000 0.000000000 -1.000000000
vn 0.000000000 0.000000000 -1.000000000
f 1/1/1 2/2/2 3/3/3
v -1794.00000000 -0.00000000 96.00000000 0.000000 0.000000 0.000000
v 1800.00000000 -6.00000000 96.00000000 0.000000 0.000000 0.000000
v 1794.00000000 -0.00000000 96.00000000 0.000000 0.000000 0.000000
vt 0.00000000 0.00000000
vt 35.94005008 0.00000000
vt 35.87995000 0.05989975
vn -0.000000000 0.000000000 1.000000000
vn -0.000000000 0.000000000 1.000000000
vn -0.000000000 0.000000000 1.000000000
f 4/4/4 5/5/5 6/6/6
v -1794.00000000 -0.00000000 0.00000000 0.000000 0.000000 0.000000
v 1800.00000000 -6.00000000 0.00000000 0.000000 0.000000 0.000000
v 1800.00000000 -414.00000000 0.00000000 0.000000 0.000000 0.000000
vt 0.00000000 0.00000000
vt 35.94005008 0.00000000
vt 35.94686143 4.07999431
vn 0.000000000 0.000000000 -1.000000000
vn 0.000000000 0.000000000 -1.000000000
vn 0.000000000 0.000000000 -1.000000000
f 7/7/7 8/8/8 9/9/9
v -1794.00000000 -0.00000000 96.00000000 0.000000 0.000000 0.000000
v 1800.00000000 -414.00000000 96.00000000 0.000000 0.000000 0.000000
v 1800.00000000 -6.00000000 96.00000000 0.000000 0.000000 0.000000
vt 0.00000000 0.00000000
vt 36.17766162 0.00000000
vt 35.71076577 4.05319729
vn 0.000000000 0.000000000 1.000000000
vn 0.000000000 0.000000000 1.000000000
vn 0.000000000 0.000000000 1.000000000
f 10/10/10 11/11/11 12/12/12
v -1794.00000000 -0.00000000 0.00000000 0.000000 0.000000 0.000000
v 1800.00000000 -414.00000000 0.00000000 0.000000 0.000000 0.000000
v 1794.00000000 -420.00000000 0.00000000 0.000000 0.000000 0.000000
vt 0.00000000 0.00000000
vt 36.17766162 0.00000000
vt 36.12492189 0.06647196
vn 0.000000000 0.000000000 -1.000000000
vn 0.000000000 0.000000000 -1.000000000
vn 0.000000000 0.000000000 -1.000000000
f 13/13/13 14/14/14 15/15/15
v -1794.00000000 -0.00000000 96.00000000 0.000000 0.000000 0.000000
v 1794.00000000 -420.00000000 96.00000000 0.000000 0.000000 0.000000
v 1800.00000000 -414.00000000 96.00000000 0.000000 0.000000 0.000000
vt 0.00000000 0.00000000
vt 36.12498304 0.00000000
vt 36.17760037 0.06656889
vn 0.000000000 0.000000000 1.000000000
vn 0.000000000 0.000000000 1.000000000
vn 0.000000000 0.000000000 1.000000000
f 16/16/16 17/17/17 18/18/18
v -1794.00000000 -0.00000000 0.00000000 0.000000 0.000000 0.000000
v 1794.00000000 -420.00000000 0.00000000 0.000000 0.000000 0.000000
v -1794.00000000 -420.00000000 0.00000000 0.000000 0.000000 0.000000
vt 0.00000000 0.00000000
vt 36.12498304 0.00000000
vt 0.48830473 4.17151753
vn 0.000000000 0.000000000 -1.000000000
vn 0.000000000 0.000000000 -1.000000000
vn 0.000000000 0.000000000 -1.000000000
f 19/19/19 20/20/20 21/21/21
v -1794.00000000 -0.00000000 96.00000000 0.000000 0.000000 0.000000
v -1794.00000000 -420.00000000 96.00000000 0.000000 0.000000 0.000000
v 1794.00000000 -420.00000000 96.00000000 0.000000 0.000000 0.000000
vt 0.00000000 0.00000000
vt 4.20000000 0.00000000
vt 4.20000000 35.88000000
vn 0.000000000 0.000000000 1.000000000
vn 0.000000000 0.000000000 1.000000000
vn 0.000000000 0.000000000 1.000000000
f 22/22/22 23/23/23 24/24/24
v -1794.00000000 -0.00000000 0.00000000 0.000000 0.000000 0.000000
v -1794.00000000 -420.00000000 0.00000000 0.000000 0.000000 0.000000
v -1800.00000000 -414.00000000 0.00000000 0.000000 0.000000 0.000000
vt 0.00000000 0.00000000
vt 4.20000000 0.00000000
vt 4.14000000 0.06000000
vn 0.000000000 -0.000000000 -1.000000000
vn 0.000000000 -0.000000000 -1.000000000
vn 0.000000000 -0.000000000 -1.000000000
f 25/25/25 26/26/26 27/27/27
v -1794.00000000 -0.00000000 96.00000000 0.000000 0.000000 0.000000
v -1800.00000000 -414.00000000 96.00000000 0.000000 0.000000 0.000000
v -1794.00000000 -420.00000000 96.00000000 0.000000 0.000000 0.000000
vt 0.00000000 0.00000000
vt 4.14043476 0.00000000
vt 4.19955899 0.06086317
vn 0.000000000 0.000000000 1.000000000
vn 0.000000000 0.000000000 1.000000000
vn 0.000000000 0.000000000 1.000000000
f 28/28/28 29/29/29 30/30/30
v -1794.00000000 -0.00000000 0.00000000 0.000000 0.000000 0.000000
v -1800.00000000 -414.00000000 0.00000000 0.000000 0.000000 0.000000
v -1800.00000000 -6.00000000 0.00000000 0.000000 0.000000 0.000000
vt 0.00000000 0.00000000
vt 4.14043476 0.00000000
vt 0.06086317 0.05912423
vn 0.000000000 0.000000000 -1.000000000
vn 0.000000000 0.000000000 -1.000000000
vn 0.000000000 0.000000000 -1.000000000
f 31/31/31 32/32/32 33/33/33
v -1794.00000000 -0.00000000 96.00000000 0.000000 0.000000 0.000000
v -1800.00000000 -6.00000000 96.00000000 0.000000 0.000000 0.000000
v -1800.00000000 -414.00000000 96.00000000 0.000000 0.000000 0.000000
vt 0.00000000 0.00000000
vt 0.08485281 0.00000000
vt 2.96984848 2.88499567
vn 0.000000000 0.000000000 1.000000000
vn 0.000000000 0.000000000 1.000000000
vn 0.000000000 0.000000000 1.000000000
f 34/34/34 35/35/35 36/36/36
v -1794.00000000 -0.00000000 0.00000000 0.000000 0.000000 0.000000
v 1794.00000000 -0.00000000 96.00000000 0.000000 0.000000 0.000000
v 1794.00000000 -0.00000000 0.00000000 0.000000 0.000000 0.000000
vt 0.00000000 0.00000000
vt 35.89284051 0.00000000
vt 35.86716408 0.95965656
vn 0.000000000 1.000000000 0.000000000
vn 0.000000000 1.000000000 0.000000000
vn 0.000000000 1.000000000 0.000000000
f 37/37/37 38/38/38 39/39/39
v -1794.00000000 -0.00000000 0.00000000 0.000000 0.000000 0.000000
v -1794.00000000 -0.00000000 96.00000000 0.000000 0.000000 0.000000
v 1794.00000000 -0.00000000 96.00000000 0.000000 0.000000 0.000000
vt 0.00000000 0.00000000
vt 0.96000000 0.00000000
vt 0.96000000 35.88000000
vn 0.000000000 1.000000000 0.000000000
vn 0.000000000 1.000000000 0.000000000
vn 0.000000000 1.000000000 0.000000000
f 40/40/40 41/41/41 42/42/42
v 1794.00000000 -0.00000000 0.00000000 0.000000 0.000000 0.000000
v 1800.00000000 -6.00000000 96.00000000 0.000000 0.000000 0.000000
v 1800.00000000 -6.00000000 0.00000000 0.000000 0.000000 0.000000
vt 0.00000000 0.00000000
vt 0.96374270 0.00000000
vt 0.00747087 0.08452329
vn 0.707106781 0.707106781 0.000000000
vn 0.707106781 0.707106781 0.000000000
vn 0.707106781 0.707106781 0.000000000
f 43/43/43 44/44/44 45/45/45
v 1794.00000000 -0.00000000 0.00000000 0.000000 0.000000 0.000000
v 1794.00000000 -0.00000000 96.00000000 0.000000 0.000000 0.000000
v 1800.00000000 -6.00000000 96.00000000 0.000000 0.000000 0.000000
vt 0.00000000 0.00000000
vt 0.96000000 0.00000000
vt 0.96000000 0.08485281
vn 0.707106781 0.707106781 -0.000000000
vn 0.707106781 0.707106781 -0.000000000
vn 0.707106781 0.707106781 -0.000000000
f 46/46/46 47/47/47 48/48/48
v 1800.00000000 -6.00000000 0.00000000 0.000000 0.000000 0.000000
v 1800.00000000 -414.00000000 96.00000000 0.000000 0.000000 0.000000
v 1800.00000000 -414.00000000 0.00000000 0.000000 0.000000 0.000000
vt 0.00000000 0.00000000
vt 4.19141981 0.00000000
vt 3.97154205 0.93448048
vn 1.000000000 0.000000000 0.000000000
vn 1.000000000 0.000000000 0.000000000
vn 1.000000000 0.000000000 0.000000000
f 49/49/49 50/50/50 51/51/51
v 1800.00000000 -6.00000000 0.00000000 0.000000 0.000000 0.000000
v 1800.00000000 -6.00000000 96.00000000 0.000000 0.000000 0.000000
v 1800.00000000 -414.00000000 96.00000000 0.000000 0.000000 0.000000
vt 0.00000000 0.00000000
vt 0.96000000 0.00000000
vt 0.96000000 4.08000000
vn 1.000000000 0.000000000 -0.000000000
vn 1.000000000 0.000000000 -0.000000000
vn 1.000000000 0.000000000 -0.000000000
f 52/52/52 53/53/53 54/54/54
v 1800.00000000 -414.00000000 0.00000000 0.000000 0.000000 0.000000
v 1794.00000000 -420.00000000 96.00000000 0.000000 0.000000 0.000000
v 1794.00000000 -420.00000000 0.00000000 0.000000 0.000000 0.000000
vt 0.00000000 0.00000000
vt 0.96374270 0.00000000
vt 0.00747087 0.08452329
vn 0.707106781 -0.707106781 0.000000000
vn 0.707106781 -0.707106781 0.000000000
vn 0.707106781 -0.707106781 0.000000000
f 55/55/55 56/56/56 57/57/57
v 1800.00000000 -414.00000000 0.00000000 0.000000 0.000000 0.000000
v 1800.00000000 -414.00000000 96.00000000 0.000000 0.000000 0.000000
v 1794.00000000 -420.00000000 96.00000000 0.000000 0.000000 0.000000
vt 0.00000000 0.00000000
vt 0.96000000 0.00000000
vt 0.96000000 0.08485281
vn 0.707106781 -0.707106781 0.000000000
vn 0.707106781 -0.707106781 0.000000000
vn 0.707106781 -0.707106781 0.000000000
f 58/58/58 59/59/59 60/60/60
v 1794.00000000 -420.00000000 0.00000000 0.000000 0.000000 0.000000
v -1794.00000000 -420.00000000 96.00000000 0.000000 0.000000 0.000000
v -1794.00000000 -420.00000000 0.00000000 0.000000 0.000000 0.000000
vt 0.00000000 0.00000000
vt 35.89284051 0.00000000
vt 35.86716408 0.95965656
vn 0.000000000 -1.000000000 0.000000000
vn 0.000000000 -1.000000000 0.000000000
vn 0.000000000 -1.000000000 0.000000000
f 61/61/61 62/62/62 63/63/63
v 1794.00000000 -420.00000000 0.00000000 0.000000 0.000000 0.000000
v 1794.00000000 -420.00000000 96.00000000 0.000000 0.000000 0.000000
v -1794.00000000 -420.00000000 96.00000000 0.000000 0.000000 0.000000
vt 0.00000000 0.00000000
vt 0.96000000 0.00000000
vt 0.96000000 35.88000000
vn 0.000000000 -1.000000000 0.000000000
vn 0.000000000 -1.000000000 0.000000000
vn 0.000000000 -1.000000000 0.000000000
f 64/64/64 65/65/65 66/66/66
v -1794.00000000 -420.00000000 0.00000000 0.000000 0.000000 0.000000
v -1800.00000000 -414.00000000 96.00000000 0.000000 0.000000 0.000000
v -1800.00000000 -414.00000000 0.00000000 0.000000 0.000000 0.000000
vt 0.00000000 0.00000000
vt 0.96374270 0.00000000
vt 0.00747087 0.08452329
vn -0.707106781 -0.707106781 0.000000000
vn -0.707106781 -0.707106781 0.000000000
vn -0.707106781 -0.707106781 0.000000000
f 67/67/67 68/68/68 69/69/69
v -1794.00000000 -420.00000000 0.00000000 0.000000 0.000000 0.000000
v -1794.00000000 -420.00000000 96.00000000 0.000000 0.000000 0.000000
v -1800.00000000 -414.00000000 96.00000000 0.000000 0.000000 0.000000
vt 0.00000000 0.00000000
vt 0.96000000 0.00000000
vt 0.96000000 0.08485281
vn -0.707106781 -0.707106781 0.000000000
vn -0.707106781 -0.707106781 0.000000000
vn -0.707106781 -0.707106781 0.000000000
f 70/70/70 71/71/71 72/72/72
v -1800.00000000 -414.00000000 0.00000000 0.000000 0.000000 0.000000
v -1800.00000000 -6.00000000 96.00000000 0.000000 0.000000 0.000000
v -1800.00000000 -6.00000000 0.00000000 0.000000 0.000000 0.000000
vt 0.00000000 0.00000000
vt 4.19141981 0.00000000
vt 3.97154205 0.93448048
vn -1.000000000 0.000000000 0.000000000
vn -1.000000000 0.000000000 0.000000000
vn -1.000000000 0.000000000 0.000000000
f 73/73/73 74/74/74 75/75/75
v -1800.00000000 -414.00000000 0.00000000 0.000000 0.000000 0.000000
v -1800.00000000 -414.00000000 96.00000000 0.000000 0.000000 0.000000
v -1800.00000000 -6.00000000 96.00000000 0.000000 0.000000 0.000000
vt 0.00000000 0.00000000
vt 0.96000000 0.00000000
vt 0.96000000 4.08000000
vn -1.000000000 0.000000000 0.000000000
vn -1.000000000 0.000000000 0.000000000
vn -1.000000000 0.000000000 0.000000000
f 76/76/76 77/77/77 78/78/78
v -1800.00000000 -6.00000000 0.00000000 0.000000 0.000000 0.000000
v -1794.00000000 -0.00000000 96.00000000 0.000000 0.000000 0.000000
v -1794.00000000 -0.00000000 0.00000000 0.000000 0.000000 0.000000
vt 0.00000000 0.00000000
vt 0.96374270 0.00000000
vt 0.00747087 0.08452329
vn -0.707106781 0.707106781 0.000000000
vn -0.707106781 0.707106781 0.000000000
vn -0.707106781 0.707106781 0.000000000
f 79/79/79 80/80/80 81/81/81
v -1800.00000000 -6.00000000 0.00000000 0.000000 0.000000 0.000000
v -1800.00000000 -6.00000000 96.00000000 0.000000 0.000000 0.000000
v -1794.00000000 -0.00000000 96.00000000 0.000000 0.000000 0.000000
vt 0.00000000 0.00000000
vt 0.96000000 0.00000000
vt 0.96000000 0.08485281
vn -0.707106781 0.707106781 0.000000000
vn -0.707106781 0.707106781 0.000000000
vn -0.707106781 0.707106781 0.000000000
f 82/82/82 83/83/83 84/84/84
g EdgeCoping
s off
v -1798.00000000 -0.00000000 96.00000000 0.000000 0.000000 0.000000
v 1798.00000000 -0.00000000 96.00000000 0.000000 0.000000 0.000000
v 1800.00000000 -2.00000000 96.00000000 0.000000 0.000000 0.000000
vt 0.00000000 0.00000000
vt 35.96000000 0.00000000
vt 35.98000000 0.02000000
vn 0.000000000 0.000000000 -1.000000000
vn 0.000000000 0.000000000 -1.000000000
vn 0.000000000 0.000000000 -1.000000000
f 85/85/85 86/86/86 87/87/87
v -1798.00000000 -0.00000000 102.00000000 0.000000 0.000000 0.000000
v 1800.00000000 -2.00000000 102.00000000 0.000000 0.000000 0.000000
v 1798.00000000 -0.00000000 102.00000000 0.000000 0.000000 0.000000
vt 0.00000000 0.00000000
vt 35.98000556 0.00000000
vt 35.95999444 0.01998888
vn -0.000000000 0.000000000 1.000000000
vn -0.000000000 0.000000000 1.000000000
vn -0.000000000 0.000000000 1.000000000
f 88/88/88 89/89/89 90/90/90
v -1798.00000000 -0.00000000 96.00000000 0.000000 0.000000 0.000000
v 1800.00000000 -2.00000000 96.00000000 0.000000 0.000000 0.000000
v 1800.00000000 -26.00000000 96.00000000 0.000000 0.000000 0.000000
vt 0.00000000 0.00000000
vt 35.98000556 0.00000000
vt 35.98013897 0.23999996
vn 0.000000000 0.000000000 -1.000000000
vn 0.000000000 0.000000000 -1.000000000
vn 0.000000000 0.000000000 -1.000000000
f 91/91/91 92/92/92 93/93/93
v -1798.00000000 -0.00000000 102.00000000 0.000000 0.000000 0.000000
v 1800.00000000 -26.00000000 102.00000000 0.000000 0.000000 0.000000
v 1800.00000000 -2.00000000 102.00000000 0.000000 0.000000 0.000000
vt 0.00000000 0.00000000
vt 35.98093940 0.00000000
vt 35.97920515 0.23999373
vn 0.000000000 0.000000000 1.000000000
vn 0.000000000 0.000000000 1.000000000
vn 0.000000000 0.000000000 1.000000000
f 94/94/94 95/95/95 96/96/96
v -1798.00000000 -0.00000000 96.00000000 0.000000 0.000000 0.000000
v 1800.00000000 -26.00000000 96.00000000 0.000000 0.000000 0.000000
v 1798.00000000 -28.00000000 96.00000000 0.000000 0.000000 0.000000
vt 0.00000000 0.00000000
vt 35.98093940 0.00000000
vt 35.96108444 0.02014400
vn 0.000000000 0.000000000 -1.000000000
vn 0.000000000 0.000000000 -1.000000000
vn 0.000000000 0.000000000 -1.000000000
f 97/97/97 98/98/98 99/99/99
v -1798.00000000 -0.00000000 102.00000000 0.000000 0.000000 0.000000
v 1798.00000000 -28.00000000 102.00000000 0.000000 0.000000 0.000000
v 1800.00000000 -26.00000000 102.00000000 0.000000 0.000000 0.000000
vt 0.00000000 0.00000000
vt 35.96109008 0.00000000
vt 35.98093375 0.02015512
vn 0.000000000 0.000000000 1.000000000
vn 0.000000000 0.000000000 1.000000000
vn 0.000000000 0.000000000 1.000000000
f 100/100/100 101/101/101 102/102/102
v -1798.00000000 -0.00000000 96.00000000 0.000000 0.000000 0.000000
v 1798.00000000 -28.00000000 96.00000000 0.000000 0.000000 0.000000
v -1798.00000000 -28.00000000 96.00000000 0.000000 0.000000 0.000000
vt 0.00000000 0.00000000
vt 35.96109008 0.00000000
vt 0.00218013 0.27999151
vn 0.000000000 0.000000000 -1.000000000
vn 0.000000000 0.000000000 -1.000000000
vn 0.000000000 0.000000000 -1.000000000
f 103/103/103 104/104/104 105/105/105
v -1798.00000000 -0.00000000 102.00000000 0.000000 0.000000 0.000000
v -1798.00000000 -28.00000000 102.00000000 0.000000 0.000000 0.000000
v 1798.00000000 -28.00000000 102.00000000 0.000000 0.000000 0.000000
vt 0.00000000 0.00000000
vt 0.28000000 0.00000000
vt 0.28000000 35.96000000
vn 0.000000000 0.000000000 1.000000000
vn 0.000000000 0.000000000 1.000000000
vn 0.000000000 0.000000000 1.000000000
f 106/106/106 107/107/107 108/108/108
v -1798.00000000 -0.00000000 96.00000000 0.000000 0.000000 0.000000
v -1798.00000000 -28.00000000 96.00000000 0.000000 0.000000 0.000000
v -1800.00000000 -26.00000000 96.00000000 0.000000 0.000000 0.000000
vt 0.00000000 0.00000000
vt 0.28000000 0.00000000
vt 0.26000000 0.02000000
vn 0.000000000 -0.000000000 -1.000000000
vn 0.000000000 -0.000000000 -1.000000000
vn 0.000000000 -0.000000000 -1.000000000
f 109/109/109 110/110/110 111/111/111
v -1798.00000000 -0.00000000 102.00000000 0.000000 0.000000 0.000000
v -1800.00000000 -26.00000000 102.00000000 0.000000 0.000000 0.000000
v -1798.00000000 -28.00000000 102.00000000 0.000000 0.000000 0.000000
vt 0.00000000 0.00000000
vt 0.26076810 0.00000000
vt 0.27917526 0.02147502
vn 0.000000000 0.000000000 1.000000000
vn 0.000000000 0.000000000 1.000000000
vn 0.000000000 0.000000000 1.000000000
f 112/112/112 113/113/113 114/114/114
v -1798.00000000 -0.00000000 96.00000000 0.000000 0.000000 0.000000
v -1800.00000000 -26.00000000 96.00000000 0.000000 0.000000 0.000000
v -1800.00000000 -2.00000000 96.00000000 0.000000 0.000000 0.000000
vt 0.00000000 0.00000000
vt 0.26076810 0.00000000
vt 0.02147502 0.01840716
vn 0.000000000 0.000000000 -1.000000000
vn 0.000000000 0.000000000 -1.000000000
vn 0.000000000 0.000000000 -1.000000000
f 115/115/115 116/116/116 117/117/117
v -1798.00000000 -0.00000000 102.00000000 0.000000 0.000000 0.000000
v -1800.00000000 -2.00000000 102.00000000 0.000000 0.000000 0.000000
v -1800.00000000 -26.00000000 102.00000000 0.000000 0.000000 0.000000
vt 0.00000000 0.00000000
vt 0.02828427 0.00000000
vt 0.19798990 0.16970563
vn 0.000000000 0.000000000 1.000000000
vn 0.000000000 0.000000000 1.000000000
vn 0.000000000 0.000000000 1.000000000
f 118/118/118 119/119/119 120/120/120
v -1798.00000000 -0.00000000 96.00000000 0.000000 0.000000 0.000000
v 1798.00000000 -0.00000000 102.00000000 0.000000 0.000000 0.000000
v 1798.00000000 -0.00000000 96.00000000 0.000000 0.000000 0.000000
vt 0.00000000 0.00000000
vt 35.96005006 0.00000000
vt 35.95994994 0.05999992
vn 0.000000000 1.000000000 0.000000000
vn 0.000000000 1.000000000 0.000000000
vn 0.000000000 1.000000000 0.000000000
f 121/121/121 122/122/122 123/123/123
v -1798.00000000 -0.00000000 96.00000000 0.000000 0.000000 0.000000
v -1798.00000000 -0.00000000 102.00000000 0.000000 0.000000 0.000000
v 1798.00000000 -0.00000000 102.00000000 0.000000 0.000000 0.000000
vt 0.00000000 0.00000000
vt 0.06000000 0.00000000
vt 0.06000000 35.96000000
vn 0.000000000 1.000000000 0.000000000
vn 0.000000000 1.000000000 0.000000000
vn 0.000000000 1.000000000 0.000000000
f 124/124/124 125/125/125 126/126/126
v 1798.00000000 -0.00000000 96.00000000 0.000000 0.000000 0.000000
v 1800.00000000 -2.00000000 102.00000000 0.000000 0.000000 0.000000
v 1800.00000000 -2.00000000 96.00000000 0.000000 0.000000 0.000000
vt 0.00000000 0.00000000
vt 0.06633250 0.00000000
vt 0.01206045 0.02558409
vn 0.707106781 0.707106781 0.000000000
vn 0.707106781 0.707106781 0.000000000
vn 0.707106781 0.707106781 0.000000000
f 127/127/127 128/128/128 129/129/129
v 1798.00000000 -0.00000000 96.00000000 0.000000 0.000000 0.000000
v 1798.00000000 -0.00000000 102.00000000 0.000000 0.000000 0.000000
v 1800.00000000 -2.00000000 102.00000000 0.000000 0.000000 0.000000
vt 0.00000000 0.00000000
vt 0.06000000 0.00000000
vt 0.06000000 0.02828427
vn 0.707106781 0.707106781 -0.000000000
vn 0.707106781 0.707106781 -0.000000000
vn 0.707106781 0.707106781 -0.000000000
f 130/130/130 131/131/131 132/132/132
v 1800.00000000 -2.00000000 96.00000000 0.000000 0.000000 0.000000
v 1800.00000000 -26.00000000 102.00000000 0.000000 0.000000 0.000000
v 1800.00000000 -26.00000000 96.00000000 0.000000 0.000000 0.000000
vt 0.00000000 0.00000000
vt 0.24738634 0.00000000
vt 0.23283420 0.05820855
vn 1.000000000 0.000000000 0.000000000
vn 1.000000000 0.000000000 0.000000000
vn 1.000000000 0.000000000 0.000000000
f 133/133/133 134/134/134 135/135/135
v 1800.00000000 -2.00000000 96.00000000 0.000000 0.000000 0.000000
v 1800.00000000 -2.00000000 102.00000000 0.000000 0.000000 0.000000
v 1800.00000000 -26.00000000 102.00000000 0.000000 0.000000 0.000000
vt 0.00000000 0.00000000
vt 0.06000000 0.00000000
vt 0.06000000 0.24000000
vn 1.000000000 0.000000000 -0.000000000
vn 1.000000000 0.000000000 -0.000000000
vn 1.000000000 0.000000000 -0.000000000
f 136/136/136 137/137/137 138/138/138
v 1800.00000000 -26.00000000 96.00000000 0.000000 0.000000 0.000000
v 1798.00000000 -28.00000000 102.00000000 0.000000 0.000000 0.000000
v 1798.00000000 -28.00000000 96.00000000 0.000000 0.000000 0.000000
vt 0.00000000 0.00000000
vt 0.06633250 0.00000000
vt 0.01206045 0.02558409
vn 0.707106781 -0.707106781 0.000000000
vn 0.707106781 -0.707106781 0.000000000
vn 0.707106781 -0.707106781 0.000000000
f 139/139/139 140/140/140 141/141/141
v 1800.00000000 -26.00000000 96.00000000 0.000000 0.000000 0.000000
v 1800.00000000 -26.00000000 102.00000000 0.000000 0.000000 0.000000
v 1798.00000000 -28.00000000 102.00000000 0.000000 0.000000 0.000000
vt 0.00000000 0.00000000
vt 0.06000000 0.00000000
vt 0.06000000 0.02828427
vn 0.707106781 -0.707106781 0.000000000
vn 0.707106781 -0.707106781 0.000000000
vn 0.707106781 -0.707106781 0.000000000
f 142/142/142 143/143/143 144/144/144
v 1798.00000000 -28.00000000 96.00000000 0.000000 0.000000 0.000000
v -1798.00000000 -28.00000000 102.00000000 0.000000 0.000000 0.000000
v -1798.00000000 -28.00000000 96.00000000 0.000000 0.000000 0.000000
vt 0.00000000 0.00000000
vt 35.96005006 0.00000000
vt 35.95994994 0.05999992
vn 0.000000000 -1.000000000 0.000000000
vn 0.000000000 -1.000000000 0.000000000
vn 0.000000000 -1.000000000 0.000000000
f 145/145/145 146/146/146 147/147/147
v 1798.00000000 -28.00000000 96.00000000 0.000000 0.000000 0.000000
v 1798.00000000 -28.00000000 102.00000000 0.000000 0.000000 0.000000
v -1798.00000000 -28.00000000 102.00000000 0.000000 0.000000 0.000000
vt 0.00000000 0.00000000
vt 0.06000000 0.00000000
vt 0.06000000 35.96000000
vn 0.000000000 -1.000000000 0.000000000
vn 0.000000000 -1.000000000 0.000000000
vn 0.000000000 -1.000000000 0.000000000
f 148/148/148 149/149/149 150/150/150
v -1798.00000000 -28.00000000 96.00000000 0.000000 0.000000 0.000000
v -1800.00000000 -26.00000000 102.00000000 0.000000 0.000000 0.000000
v -1800.00000000 -26.00000000 96.00000000 0.000000 0.000000 0.000000
vt 0.00000000 0.00000000
vt 0.06633250 0.00000000
vt 0.01206045 0.02558409
vn -0.707106781 -0.707106781 0.000000000
vn -0.707106781 -0.707106781 0.000000000
vn -0.707106781 -0.707106781 0.000000000
f 151/151/151 152/152/152 153/153/153
v -1798.00000000 -28.00000000 96.00000000 0.000000 0.000000 0.000000
v -1798.00000000 -28.00000000 102.00000000 0.000000 0.000000 0.000000
v -1800.00000000 -26.00000000 102.00000000 0.000000 0.000000 0.000000
vt 0.00000000 0.00000000
vt 0.06000000 0.00000000
vt 0.06000000 0.02828427
vn -0.707106781 -0.707106781 0.000000000
vn -0.707106781 -0.707106781 0.000000000
vn -0.707106781 -0.707106781 0.000000000
f 154/154/154 155/155/155 156/156/156
v -1800.00000000 -26.00000000 96.00000000 0.000000 0.000000 0.000000
v -1800.00000000 -2.00000000 102.00000000 0.000000 0.000000 0.000000
v -1800.00000000 -2.00000000 96.00000000 0.000000 0.000000 0.000000
vt 0.00000000 0.00000000
vt 0.24738634 0.00000000
vt 0.23283420 0.05820855
vn -1.000000000 0.000000000 0.000000000
vn -1.000000000 0.000000000 0.000000000
vn -1.000000000 0.000000000 0.000000000
f 157/157/157 158/158/158 159/159/159
v -1800.00000000 -26.00000000 96.00000000 0.000000 0.000000 0.000000
v -1800.00000000 -26.00000000 102.00000000 0.000000 0.000000 0.000000
v -1800.00000000 -2.00000000 102.00000000 0.000000 0.000000 0.000000
vt 0.00000000 0.00000000
vt 0.06000000 0.00000000
vt 0.06000000 0.24000000
vn -1.000000000 0.000000000 0.000000000
vn -1.000000000 0.000000000 0.000000000
vn -1.000000000 0.000000000 0.000000000
f 160/160/160 161/161/161 162/162/162
v -1800.00000000 -2.00000000 96.00000000 0.000000 0.000000 0.000000
v -1798.00000000 -0.00000000 102.00000000 0.000000 0.000000 0.000000
v -1798.00000000 -0.00000000 96.00000000 0.000000 0.000000 0.000000
vt 0.00000000 0.00000000
vt 0.06633250 0.00000000
vt 0.01206045 0.02558409
vn -0.707106781 0.707106781 0.000000000
vn -0.707106781 0.707106781 0.000000000
vn -0.707106781 0.707106781 0.000000000
f 163/163/163 164/164/164 165/165/165
v -1800.00000000 -2.00000000 96.00000000 0.000000 0.000000 0.000000
v -1800.00000000 -2.00000000 102.00000000 0.000000 0.000000 0.000000
v -1798.00000000 -0.00000000 102.00000000 0.000000 0.000000 0.000000
vt 0.00000000 0.00000000
vt 0.06000000 0.00000000
vt 0.06000000 0.02828427
vn -0.707106781 0.707106781 0.000000000
vn -0.707106781 0.707106781 0.000000000
vn -0.707106781 0.707106781 0.000000000
f 166/166/166 167/167/167 168/168/168
