# Original TransitSystemV1; cm; canonical Unreal XYZ; vertex colour r g b on each v line
g LeafFrame
s off
v -60.25000000 -3.50000000 -105.00000000 1.000000 0.720000 0.000000
v 62.00000000 -1.75000000 -105.00000000 1.000000 0.720000 0.000000
v 60.25000000 -3.50000000 -105.00000000 1.000000 0.720000 0.000000
vt 0.00000000 0.00000000
vt 1.22262525 0.00000000
vt 1.20487656 0.01724772
vn 0.000000000 0.000000000 -1.000000000
vn 0.000000000 0.000000000 -1.000000000
vn 0.000000000 0.000000000 -1.000000000
f 1/1/1 2/2/2 3/3/3
v -60.25000000 -3.50000000 105.00000000 1.000000 0.720000 0.000000
v 60.25000000 -3.50000000 105.00000000 1.000000 0.720000 0.000000
v 62.00000000 -1.75000000 105.00000000 1.000000 0.720000 0.000000
vt 0.00000000 0.00000000
vt 1.20500000 0.00000000
vt 1.22250000 0.01750000
vn 0.000000000 0.000000000 1.000000000
vn 0.000000000 0.000000000 1.000000000
vn 0.000000000 0.000000000 1.000000000
f 4/4/4 5/5/5 6/6/6
v -60.25000000 -3.50000000 -105.00000000 1.000000 0.720000 0.000000
v 62.00000000 1.75000000 -105.00000000 1.000000 0.720000 0.000000
v 62.00000000 -1.75000000 -105.00000000 1.000000 0.720000 0.000000
vt 0.00000000 0.00000000
vt 1.22362678 0.00000000
vt 1.22212510 0.03496777
vn 0.000000000 0.000000000 -1.000000000
vn 0.000000000 0.000000000 -1.000000000
vn 0.000000000 0.000000000 -1.000000000
f 7/7/7 8/8/8 9/9/9
v -60.25000000 -3.50000000 105.00000000 1.000000 0.720000 0.000000
v 62.00000000 -1.75000000 105.00000000 1.000000 0.720000 0.000000
v 62.00000000 1.75000000 105.00000000 1.000000 0.720000 0.000000
vt 0.00000000 0.00000000
vt 1.22262525 0.00000000
vt 1.22312622 0.03499641
vn 0.000000000 0.000000000 1.000000000
vn 0.000000000 0.000000000 1.000000000
vn 0.000000000 0.000000000 1.000000000
f 10/10/10 11/11/11 12/12/12
v -60.25000000 -3.50000000 -105.00000000 1.000000 0.720000 0.000000
v 60.25000000 3.50000000 -105.00000000 1.000000 0.720000 0.000000
v 62.00000000 1.75000000 -105.00000000 1.000000 0.720000 0.000000
vt 0.00000000 0.00000000
vt 1.20703148 0.00000000
vt 1.22348714 0.01848543
vn 0.000000000 0.000000000 -1.000000000
vn 0.000000000 0.000000000 -1.000000000
vn 0.000000000 0.000000000 -1.000000000
f 13/13/13 14/14/14 15/15/15
v -60.25000000 -3.50000000 105.00000000 1.000000 0.720000 0.000000
v 62.00000000 1.75000000 105.00000000 1.000000 0.720000 0.000000
v 60.25000000 3.50000000 105.00000000 1.000000 0.720000 0.000000
vt 0.00000000 0.00000000
vt 1.22362678 0.00000000
vt 1.20689374 0.01823473
vn 0.000000000 0.000000000 1.000000000
vn 0.000000000 0.000000000 1.000000000
vn 0.000000000 0.000000000 1.000000000
f 16/16/16 17/17/17 18/18/18
v -60.25000000 -3.50000000 -105.00000000 1.000000 0.720000 0.000000
v -60.25000000 3.50000000 -105.00000000 1.000000 0.720000 0.000000
v 60.25000000 3.50000000 -105.00000000 1.000000 0.720000 0.000000
vt 0.00000000 0.00000000
vt 0.07000000 0.00000000
vt 0.07000000 1.20500000
vn 0.000000000 0.000000000 -1.000000000
vn 0.000000000 0.000000000 -1.000000000
vn 0.000000000 0.000000000 -1.000000000
f 19/19/19 20/20/20 21/21/21
v -60.25000000 -3.50000000 105.00000000 1.000000 0.720000 0.000000
v 60.25000000 3.50000000 105.00000000 1.000000 0.720000 0.000000
v -60.25000000 3.50000000 105.00000000 1.000000 0.720000 0.000000
vt 0.00000000 0.00000000
vt 1.20703148 0.00000000
vt 0.00405955 0.06988219
vn 0.000000000 0.000000000 1.000000000
vn 0.000000000 0.000000000 1.000000000
vn 0.000000000 0.000000000 1.000000000
f 22/22/22 23/23/23 24/24/24
v -60.25000000 -3.50000000 -105.00000000 1.000000 0.720000 0.000000
v -62.00000000 1.75000000 -105.00000000 1.000000 0.720000 0.000000
v -60.25000000 3.50000000 -105.00000000 1.000000 0.720000 0.000000
vt 0.00000000 0.00000000
vt 0.05533986 0.00000000
vt 0.06640783 0.02213594
vn 0.000000000 0.000000000 -1.000000000
vn 0.000000000 0.000000000 -1.000000000
vn 0.000000000 0.000000000 -1.000000000
f 25/25/25 26/26/26 27/27/27
v -60.25000000 -3.50000000 105.00000000 1.000000 0.720000 0.000000
v -60.25000000 3.50000000 105.00000000 1.000000 0.720000 0.000000
v -62.00000000 1.75000000 105.00000000 1.000000 0.720000 0.000000
vt 0.00000000 0.00000000
vt 0.07000000 0.00000000
vt 0.05250000 0.01750000
vn 0.000000000 -0.000000000 1.000000000
vn 0.000000000 -0.000000000 1.000000000
vn 0.000000000 -0.000000000 1.000000000
f 28/28/28 29/29/29 30/30/30
v -60.25000000 -3.50000000 -105.00000000 1.000000 0.720000 0.000000
v -62.00000000 -1.75000000 -105.00000000 1.000000 0.720000 0.000000
v -62.00000000 1.75000000 -105.00000000 1.000000 0.720000 0.000000
vt 0.00000000 0.00000000
vt 0.02474874 0.00000000
vt 0.04949747 0.02474874
vn 0.000000000 0.000000000 -1.000000000
vn 0.000000000 0.000000000 -1.000000000
vn 0.000000000 0.000000000 -1.000000000
f 31/31/31 32/32/32 33/33/33
v -60.25000000 -3.50000000 105.00000000 1.000000 0.720000 0.000000
v -62.00000000 1.75000000 105.00000000 1.000000 0.720000 0.000000
v -62.00000000 -1.75000000 105.00000000 1.000000 0.720000 0.000000
vt 0.00000000 0.00000000
vt 0.05533986 0.00000000
vt 0.02213594 0.01106797
vn 0.000000000 0.000000000 1.000000000
vn 0.000000000 0.000000000 1.000000000
vn 0.000000000 0.000000000 1.000000000
f 34/34/34 35/35/35 36/36/36
v -60.25000000 -3.50000000 -105.00000000 1.000000 0.720000 0.000000
v 60.25000000 -3.50000000 -105.00000000 1.000000 0.720000 0.000000
v 60.25000000 -3.50000000 105.00000000 1.000000 0.720000 0.000000
vt 0.00000000 0.00000000
vt 1.20500000 0.00000000
vt 1.20500000 2.10000000
vn 0.000000000 -1.000000000 0.000000000
vn 0.000000000 -1.000000000 0.000000000
vn 0.000000000 -1.000000000 0.000000000
f 37/37/37 38/38/38 39/39/39
v -60.25000000 -3.50000000 -105.00000000 1.000000 0.720000 0.000000
v 60.25000000 -3.50000000 105.00000000 1.000000 0.720000 0.000000
v -60.25000000 -3.50000000 105.00000000 1.000000 0.720000 0.000000
vt 0.00000000 0.00000000
vt 2.42116191 0.00000000
vt 1.82143952 1.04515935
vn 0.000000000 -1.000000000 0.000000000
vn 0.000000000 -1.000000000 0.000000000
vn 0.000000000 -1.000000000 0.000000000
f 40/40/40 41/41/41 42/42/42
v 60.25000000 -3.50000000 -105.00000000 1.000000 0.720000 0.000000
v 62.00000000 -1.75000000 -105.00000000 1.000000 0.720000 0.000000
v 62.00000000 -1.75000000 105.00000000 1.000000 0.720000 0.000000
vt 0.00000000 0.00000000
vt 0.02474874 0.00000000
vt 0.02474874 2.10000000
vn 0.707106781 -0.707106781 0.000000000
vn 0.707106781 -0.707106781 0.000000000
vn 0.707106781 -0.707106781 0.000000000
f 43/43/43 44/44/44 45/45/45
v 60.25000000 -3.50000000 -105.00000000 1.000000 0.720000 0.000000
v 62.00000000 -1.75000000 105.00000000 1.000000 0.720000 0.000000
v 60.25000000 -3.50000000 105.00000000 1.000000 0.720000 0.000000
vt 0.00000000 0.00000000
vt 2.10014583 0.00000000
vt 2.09985418 0.02474702
vn 0.707106781 -0.707106781 0.000000000
vn 0.707106781 -0.707106781 0.000000000
vn 0.707106781 -0.707106781 0.000000000
f 46/46/46 47/47/47 48/48/48
v 62.00000000 -1.75000000 -105.00000000 1.000000 0.720000 0.000000
v 62.00000000 1.75000000 -105.00000000 1.000000 0.720000 0.000000
v 62.00000000 1.75000000 105.00000000 1.000000 0.720000 0.000000
vt 0.00000000 0.00000000
vt 0.03500000 0.00000000
vt 0.03500000 2.10000000
vn 1.000000000 0.000000000 0.000000000
vn 1.000000000 0.000000000 0.000000000
vn 1.000000000 0.000000000 0.000000000
f 49/49/49 50/50/50 51/51/51
v 62.00000000 -1.75000000 -105.00000000 1.000000 0.720000 0.000000
v 62.00000000 1.75000000 105.00000000 1.000000 0.720000 0.000000
v 62.00000000 -1.75000000 105.00000000 1.000000 0.720000 0.000000
vt 0.00000000 0.00000000
vt 2.10029165 0.00000000
vt 2.09970839 0.03499514
vn 1.000000000 0.000000000 0.000000000
vn 1.000000000 0.000000000 0.000000000
vn 1.000000000 0.000000000 0.000000000
f 52/52/52 53/53/53 54/54/54
v 62.00000000 1.75000000 -105.00000000 1.000000 0.720000 0.000000
v 60.25000000 3.50000000 -105.00000000 1.000000 0.720000 0.000000
v 60.25000000 3.50000000 105.00000000 1.000000 0.720000 0.000000
vt 0.00000000 0.00000000
vt 0.02474874 0.00000000
vt 0.02474874 2.10000000
vn 0.707106781 0.707106781 0.000000000
vn 0.707106781 0.707106781 0.000000000
vn 0.707106781 0.707106781 0.000000000
f 55/55/55 56/56/56 57/57/57
v 62.00000000 1.75000000 -105.00000000 1.000000 0.720000 0.000000
v 60.25000000 3.50000000 105.00000000 1.000000 0.720000 0.000000
v 62.00000000 1.75000000 105.00000000 1.000000 0.720000 0.000000
vt 0.00000000 0.00000000
vt 2.10014583 0.00000000
vt 2.09985418 0.02474702
vn 0.707106781 0.707106781 -0.000000000
vn 0.707106781 0.707106781 -0.000000000
vn 0.707106781 0.707106781 -0.000000000
f 58/58/58 59/59/59 60/60/60
v 60.25000000 3.50000000 -105.00000000 1.000000 0.720000 0.000000
v -60.25000000 3.50000000 -105.00000000 1.000000 0.720000 0.000000
v -60.25000000 3.50000000 105.00000000 1.000000 0.720000 0.000000
vt 0.00000000 0.00000000
vt 1.20500000 0.00000000
vt 1.20500000 2.10000000
vn 0.000000000 1.000000000 0.000000000
vn 0.000000000 1.000000000 0.000000000
vn 0.000000000 1.000000000 0.000000000
f 61/61/61 62/62/62 63/63/63
v 60.25000000 3.50000000 -105.00000000 1.000000 0.720000 0.000000
v -60.25000000 3.50000000 105.00000000 1.000000 0.720000 0.000000
v 60.25000000 3.50000000 105.00000000 1.000000 0.720000 0.000000
vt 0.00000000 0.00000000
vt 2.42116191 0.00000000
vt 1.82143952 1.04515935
vn 0.000000000 1.000000000 -0.000000000
vn 0.000000000 1.000000000 -0.000000000
vn 0.000000000 1.000000000 -0.000000000
f 64/64/64 65/65/65 66/66/66
v -60.25000000 3.50000000 -105.00000000 1.000000 0.720000 0.000000
v -62.00000000 1.75000000 -105.00000000 1.000000 0.720000 0.000000
v -62.00000000 1.75000000 105.00000000 1.000000 0.720000 0.000000
vt 0.00000000 0.00000000
vt 0.02474874 0.00000000
vt 0.02474874 2.10000000
vn -0.707106781 0.707106781 0.000000000
vn -0.707106781 0.707106781 0.000000000
vn -0.707106781 0.707106781 0.000000000
f 67/67/67 68/68/68 69/69/69
v -60.25000000 3.50000000 -105.00000000 1.000000 0.720000 0.000000
v -62.00000000 1.75000000 105.00000000 1.000000 0.720000 0.000000
v -60.25000000 3.50000000 105.00000000 1.000000 0.720000 0.000000
vt 0.00000000 0.00000000
vt 2.10014583 0.00000000
vt 2.09985418 0.02474702
vn -0.707106781 0.707106781 0.000000000
vn -0.707106781 0.707106781 0.000000000
vn -0.707106781 0.707106781 0.000000000
f 70/70/70 71/71/71 72/72/72
v -62.00000000 1.75000000 -105.00000000 1.000000 0.720000 0.000000
v -62.00000000 -1.75000000 -105.00000000 1.000000 0.720000 0.000000
v -62.00000000 -1.75000000 105.00000000 1.000000 0.720000 0.000000
vt 0.00000000 0.00000000
vt 0.03500000 0.00000000
vt 0.03500000 2.10000000
vn -1.000000000 0.000000000 0.000000000
vn -1.000000000 0.000000000 0.000000000
vn -1.000000000 0.000000000 0.000000000
f 73/73/73 74/74/74 75/75/75
v -62.00000000 1.75000000 -105.00000000 1.000000 0.720000 0.000000
v -62.00000000 -1.75000000 105.00000000 1.000000 0.720000 0.000000
v -62.00000000 1.75000000 105.00000000 1.000000 0.720000 0.000000
vt 0.00000000 0.00000000
vt 2.10029165 0.00000000
vt 2.09970839 0.03499514
vn -1.000000000 0.000000000 0.000000000
vn -1.000000000 0.000000000 0.000000000
vn -1.000000000 0.000000000 0.000000000
f 76/76/76 77/77/77 78/78/78
v -62.00000000 -1.75000000 -105.00000000 1.000000 0.720000 0.000000
v -60.25000000 -3.50000000 -105.00000000 1.000000 0.720000 0.000000
v -60.25000000 -3.50000000 105.00000000 1.000000 0.720000 0.000000
vt 0.00000000 0.00000000
vt 0.02474874 0.00000000
vt 0.02474874 2.10000000
vn -0.707106781 -0.707106781 0.000000000
vn -0.707106781 -0.707106781 0.000000000
vn -0.707106781 -0.707106781 0.000000000
f 79/79/79 80/80/80 81/81/81
v -62.00000000 -1.75000000 -105.00000000 1.000000 0.720000 0.000000
v -60.25000000 -3.50000000 105.00000000 1.000000 0.720000 0.000000
v -62.00000000 -1.75000000 105.00000000 1.000000 0.720000 0.000000
vt 0.00000000 0.00000000
vt 2.10014583 0.00000000
vt 2.09985418 0.02474702
vn -0.707106781 -0.707106781 0.000000000
vn -0.707106781 -0.707106781 0.000000000
vn -0.707106781 -0.707106781 0.000000000
f 82/82/82 83/83/83 84/84/84
g LeafGlass
s off
v -52.25000000 0.00000000 -86.00000000 0.000000 0.000000 0.000000
v 53.00000000 0.75000000 -86.00000000 0.000000 0.000000 0.000000
v 52.25000000 0.00000000 -86.00000000 0.000000 0.000000 0.000000
vt 0.00000000 0.00000000
vt 1.05252672 0.00000000
vt 1.04497347 0.00744637
vn 0.000000000 0.000000000 -1.000000000
vn 0.000000000 0.000000000 -1.000000000
vn 0.000000000 0.000000000 -1.000000000
f 85/85/85 86/86/86 87/87/87
v -52.25000000 0.00000000 98.00000000 0.000000 0.000000 0.000000
v 52.25000000 0.00000000 98.00000000 0.000000 0.000000 0.000000
v 53.00000000 0.75000000 98.00000000 0.000000 0.000000 0.000000
vt 0.00000000 0.00000000
vt 1.04500000 0.00000000
vt 1.05250000 0.00750000
vn 0.000000000 0.000000000 1.000000000
vn 0.000000000 0.000000000 1.000000000
vn 0.000000000 0.000000000 1.000000000
f 88/88/88 89/89/89 90/90/90
v -52.25000000 0.00000000 -86.00000000 0.000000 0.000000 0.000000
v 53.00000000 2.25000000 -86.00000000 0.000000 0.000000 0.000000
v 53.00000000 0.75000000 -86.00000000 0.000000 0.000000 0.000000
vt 0.00000000 0.00000000
vt 1.05274047 0.00000000
vt 1.05241988 0.01499657
vn 0.000000000 0.000000000 -1.000000000
vn 0.000000000 0.000000000 -1.000000000
vn 0.000000000 0.000000000 -1.000000000
f 91/91/91 92/92/92 93/93/93
v -52.25000000 0.00000000 98.00000000 0.000000 0.000000 0.000000
v 53.00000000 0.75000000 98.00000000 0.000000 0.000000 0.000000
v 53.00000000 2.25000000 98.00000000 0.000000 0.000000 0.000000
vt 0.00000000 0.00000000
vt 1.05252672 0.00000000
vt 1.05263361 0.01499962
vn 0.000000000 0.000000000 1.000000000
vn 0.000000000 0.000000000 1.000000000
vn 0.000000000 0.000000000 1.000000000
f 94/94/94 95/95/95 96/96/96
v -52.25000000 0.00000000 -86.00000000 0.000000 0.000000 0.000000
v 52.25000000 3.00000000 -86.00000000 0.000000 0.000000 0.000000
v 53.00000000 2.25000000 -86.00000000 0.000000 0.000000 0.000000
vt 0.00000000 0.00000000
vt 1.04543053 0.00000000
vt 1.05271222 0.00771213
vn 0.000000000 0.000000000 -1.000000000
vn 0.000000000 0.000000000 -1.000000000
vn 0.000000000 0.000000000 -1.000000000
f 97/97/97 98/98/98 99/99/99
v -52.25000000 0.00000000 98.00000000 0.000000 0.000000 0.000000
v 53.00000000 2.25000000 98.00000000 0.000000 0.000000 0.000000
v 52.25000000 3.00000000 98.00000000 0.000000 0.000000 0.000000
vt 0.00000000 0.00000000
vt 1.05274047 0.00000000
vt 1.04540248 0.00765858
vn 0.000000000 0.000000000 1.000000000
vn 0.000000000 0.000000000 1.000000000
vn 0.000000000 0.000000000 1.000000000
f 100/100/100 101/101/101 102/102/102
v -52.25000000 0.00000000 -86.00000000 0.000000 0.000000 0.000000
v -52.25000000 3.00000000 -86.00000000 0.000000 0.000000 0.000000
v 52.25000000 3.00000000 -86.00000000 0.000000 0.000000 0.000000
vt 0.00000000 0.00000000
vt 0.03000000 0.00000000
vt 0.03000000 1.04500000
vn 0.000000000 0.000000000 -1.000000000
vn 0.000000000 0.000000000 -1.000000000
vn 0.000000000 0.000000000 -1.000000000
f 103/103/103 104/104/104 105/105/105
v -52.25000000 0.00000000 98.00000000 0.000000 0.000000 0.000000
v 52.25000000 3.00000000 98.00000000 0.000000 0.000000 0.000000
v -52.25000000 3.00000000 98.00000000 0.000000 0.000000 0.000000
vt 0.00000000 0.00000000
vt 1.04543053 0.00000000
vt 0.00086089 0.02998765
vn 0.000000000 0.000000000 1.000000000
vn 0.000000000 0.000000000 1.000000000
vn 0.000000000 0.000000000 1.000000000
f 106/106/106 107/107/107 108/108/108
v -52.25000000 0.00000000 -86.00000000 0.000000 0.000000 0.000000
v -53.00000000 2.25000000 -86.00000000 0.000000 0.000000 0.000000
v -52.25000000 3.00000000 -86.00000000 0.000000 0.000000 0.000000
vt 0.00000000 0.00000000
vt 0.02371708 0.00000000
vt 0.02846050 0.00948683
vn 0.000000000 0.000000000 -1.000000000
vn 0.000000000 0.000000000 -1.000000000
vn 0.000000000 0.000000000 -1.000000000
f 109/109/109 110/110/110 111/111/111
v -52.25000000 0.00000000 98.00000000 0.000000 0.000000 0.000000
v -52.25000000 3.00000000 98.00000000 0.000000 0.000000 0.000000
v -53.00000000 2.25000000 98.00000000 0.000000 0.000000 0.000000
vt 0.00000000 0.00000000
vt 0.03000000 0.00000000
vt 0.02250000 0.00750000
vn 0.000000000 -0.000000000 1.000000000
vn 0.000000000 -0.000000000 1.000000000
vn 0.000000000 -0.000000000 1.000000000
f 112/112/112 113/113/113 114/114/114
v -52.25000000 0.00000000 -86.00000000 0.000000 0.000000 0.000000
v -53.00000000 0.75000000 -86.00000000 0.000000 0.000000 0.000000
v -53.00000000 2.25000000 -86.00000000 0.000000 0.000000 0.000000
vt 0.00000000 0.00000000
vt 0.01060660 0.00000000
vt 0.02121320 0.01060660
vn 0.000000000 0.000000000 -1.000000000
vn 0.000000000 0.000000000 -1.000000000
vn 0.000000000 0.000000000 -1.000000000
f 115/115/115 116/116/116 117/117/117
v -52.25000000 0.00000000 98.00000000 0.000000 0.000000 0.000000
v -53.00000000 2.25000000 98.00000000 0.000000 0.000000 0.000000
v -53.00000000 0.75000000 98.00000000 0.000000 0.000000 0.000000
vt 0.00000000 0.00000000
vt 0.02371708 0.00000000
vt 0.00948683 0.00474342
vn 0.000000000 0.000000000 1.000000000
vn 0.000000000 0.000000000 1.000000000
vn 0.000000000 0.000000000 1.000000000
f 118/118/118 119/119/119 120/120/120
v -52.25000000 0.00000000 -86.00000000 0.000000 0.000000 0.000000
v 52.25000000 0.00000000 -86.00000000 0.000000 0.000000 0.000000
v 52.25000000 0.00000000 98.00000000 0.000000 0.000000 0.000000
vt 0.00000000 0.00000000
vt 1.04500000 0.00000000
vt 1.04500000 1.84000000
vn 0.000000000 -1.000000000 0.000000000
vn 0.000000000 -1.000000000 0.000000000
vn 0.000000000 -1.000000000 0.000000000
f 121/121/121 122/122/122 123/123/123
v -52.25000000 0.00000000 -86.00000000 0.000000 0.000000 0.000000
v 52.25000000 0.00000000 98.00000000 0.000000 0.000000 0.000000
v -52.25000000 0.00000000 98.00000000 0.000000 0.000000 0.000000
vt 0.00000000 0.00000000
vt 2.11603993 0.00000000
vt 1.59996981 0.90867850
vn 0.000000000 -1.000000000 0.000000000
vn 0.000000000 -1.000000000 0.000000000
vn 0.000000000 -1.000000000 0.000000000
f 124/124/124 125/125/125 126/126/126
v 52.25000000 0.00000000 -86.00000000 0.000000 0.000000 0.000000
v 53.00000000 0.75000000 -86.00000000 0.000000 0.000000 0.000000
v 53.00000000 0.75000000 98.00000000 0.000000 0.000000 0.000000
vt 0.00000000 0.00000000
vt 0.01060660 0.00000000
vt 0.01060660 1.84000000
vn 0.707106781 -0.707106781 0.000000000
vn 0.707106781 -0.707106781 0.000000000
vn 0.707106781 -0.707106781 0.000000000
f 127/127/127 128/128/128 129/129/129
v 52.25000000 0.00000000 -86.00000000 0.000000 0.000000 0.000000
v 53.00000000 0.75000000 98.00000000 0.000000 0.000000 0.000000
v 52.25000000 0.00000000 98.00000000 0.000000 0.000000 0.000000
vt 0.00000000 0.00000000
vt 1.84003057 0.00000000
vt 1.83996943 0.01060643
vn 0.707106781 -0.707106781 0.000000000
vn 0.707106781 -0.707106781 0.000000000
vn 0.707106781 -0.707106781 0.000000000
f 130/130/130 131/131/131 132/132/132
v 53.00000000 0.75000000 -86.00000000 0.000000 0.000000 0.000000
v 53.00000000 2.25000000 -86.00000000 0.000000 0.000000 0.000000
v 53.00000000 2.25000000 98.00000000 0.000000 0.000000 0.000000
vt 0.00000000 0.00000000
vt 0.01500000 0.00000000
vt 0.01500000 1.84000000
vn 1.000000000 0.000000000 0.000000000
vn 1.000000000 0.000000000 0.000000000
vn 1.000000000 0.000000000 0.000000000
f 133/133/133 134/134/134 135/135/135
v 53.00000000 0.75000000 -86.00000000 0.000000 0.000000 0.000000
v 53.00000000 2.25000000 98.00000000 0.000000 0.000000 0.000000
v 53.00000000 0.75000000 98.00000000 0.000000 0.000000 0.000000
vt 0.00000000 0.00000000
vt 1.84006114 0.00000000
vt 1.83993886 0.01499950
vn 1.000000000 0.000000000 0.000000000
vn 1.000000000 0.000000000 0.000000000
vn 1.000000000 0.000000000 0.000000000
f 136/136/136 137/137/137 138/138/138
v 53.00000000 2.25000000 -86.00000000 0.000000 0.000000 0.000000
v 52.25000000 3.00000000 -86.00000000 0.000000 0.000000 0.000000
v 52.25000000 3.00000000 98.00000000 0.000000 0.000000 0.000000
vt 0.00000000 0.00000000
vt 0.01060660 0.00000000
vt 0.01060660 1.84000000
vn 0.707106781 0.707106781 0.000000000
vn 0.707106781 0.707106781 0.000000000
vn 0.707106781 0.707106781 0.000000000
f 139/139/139 140/140/140 141/141/141
v 53.00000000 2.25000000 -86.00000000 0.000000 0.000000 0.000000
v 52.25000000 3.00000000 98.00000000 0.000000 0.000000 0.000000
v 53.00000000 2.25000000 98.00000000 0.000000 0.000000 0.000000
vt 0.00000000 0.00000000
vt 1.84003057 0.00000000
vt 1.83996943 0.01060643
vn 0.707106781 0.707106781 -0.000000000
vn 0.707106781 0.707106781 -0.000000000
vn 0.707106781 0.707106781 -0.000000000
f 142/142/142 143/143/143 144/144/144
v 52.25000000 3.00000000 -86.00000000 0.000000 0.000000 0.000000
v -52.25000000 3.00000000 -86.00000000 0.000000 0.000000 0.000000
v -52.25000000 3.00000000 98.00000000 0.000000 0.000000 0.000000
vt 0.00000000 0.00000000
vt 1.04500000 0.00000000
vt 1.04500000 1.84000000
vn 0.000000000 1.000000000 0.000000000
vn 0.000000000 1.000000000 0.000000000
vn 0.000000000 1.000000000 0.000000000
f 145/145/145 146/146/146 147/147/147
v 52.25000000 3.00000000 -86.00000000 0.000000 0.000000 0.000000
v -52.25000000 3.00000000 98.00000000 0.000000 0.000000 0.000000
v 52.25000000 3.00000000 98.00000000 0.000000 0.000000 0.000000
vt 0.00000000 0.00000000
vt 2.11603993 0.00000000
vt 1.59996981 0.90867850
vn 0.000000000 1.000000000 -0.000000000
vn 0.000000000 1.000000000 -0.000000000
vn 0.000000000 1.000000000 -0.000000000
f 148/148/148 149/149/149 150/150/150
v -52.25000000 3.00000000 -86.00000000 0.000000 0.000000 0.000000
v -53.00000000 2.25000000 -86.00000000 0.000000 0.000000 0.000000
v -53.00000000 2.25000000 98.00000000 0.000000 0.000000 0.000000
vt 0.00000000 0.00000000
vt 0.01060660 0.00000000
vt 0.01060660 1.84000000
vn -0.707106781 0.707106781 0.000000000
vn -0.707106781 0.707106781 0.000000000
vn -0.707106781 0.707106781 0.000000000
f 151/151/151 152/152/152 153/153/153
v -52.25000000 3.00000000 -86.00000000 0.000000 0.000000 0.000000
v -53.00000000 2.25000000 98.00000000 0.000000 0.000000 0.000000
v -52.25000000 3.00000000 98.00000000 0.000000 0.000000 0.000000
vt 0.00000000 0.00000000
vt 1.84003057 0.00000000
vt 1.83996943 0.01060643
vn -0.707106781 0.707106781 0.000000000
vn -0.707106781 0.707106781 0.000000000
vn -0.707106781 0.707106781 0.000000000
f 154/154/154 155/155/155 156/156/156
v -53.00000000 2.25000000 -86.00000000 0.000000 0.000000 0.000000
v -53.00000000 0.75000000 -86.00000000 0.000000 0.000000 0.000000
v -53.00000000 0.75000000 98.00000000 0.000000 0.000000 0.000000
vt 0.00000000 0.00000000
vt 0.01500000 0.00000000
vt 0.01500000 1.84000000
vn -1.000000000 0.000000000 0.000000000
vn -1.000000000 0.000000000 0.000000000
vn -1.000000000 0.000000000 0.000000000
f 157/157/157 158/158/158 159/159/159
v -53.00000000 2.25000000 -86.00000000 0.000000 0.000000 0.000000
v -53.00000000 0.75000000 98.00000000 0.000000 0.000000 0.000000
v -53.00000000 2.25000000 98.00000000 0.000000 0.000000 0.000000
vt 0.00000000 0.00000000
vt 1.84006114 0.00000000
vt 1.83993886 0.01499950
vn -1.000000000 0.000000000 0.000000000
vn -1.000000000 0.000000000 0.000000000
vn -1.000000000 0.000000000 0.000000000
f 160/160/160 161/161/161 162/162/162
v -53.00000000 0.75000000 -86.00000000 0.000000 0.000000 0.000000
v -52.25000000 0.00000000 -86.00000000 0.000000 0.000000 0.000000
v -52.25000000 0.00000000 98.00000000 0.000000 0.000000 0.000000
vt 0.00000000 0.00000000
vt 0.01060660 0.00000000
vt 0.01060660 1.84000000
vn -0.707106781 -0.707106781 0.000000000
vn -0.707106781 -0.707106781 0.000000000
vn -0.707106781 -0.707106781 0.000000000
f 163/163/163 164/164/164 165/165/165
v -53.00000000 0.75000000 -86.00000000 0.000000 0.000000 0.000000
v -52.25000000 0.00000000 98.00000000 0.000000 0.000000 0.000000
v -53.00000000 0.75000000 98.00000000 0.000000 0.000000 0.000000
vt 0.00000000 0.00000000
vt 1.84003057 0.00000000
vt 1.83996943 0.01060643
vn -0.707106781 -0.707106781 0.000000000
vn -0.707106781 -0.707106781 0.000000000
vn -0.707106781 -0.707106781 0.000000000
f 166/166/166 167/167/167 168/168/168
