# Original BusStudyV1; cm; Unreal legacy reflected-Y adapter
g BeltRail_-1
s off
v -572.75000000 124.50000000 136.00000000
v 572.75000000 124.50000000 136.00000000
v 575.00000000 122.25000000 136.00000000
vt 0.00000000 0.00000000
vt 11.45500000 0.00000000
vt 11.47750000 0.02250000
vn 0.000000000 0.000000000 -1.000000000
vn 0.000000000 0.000000000 -1.000000000
vn 0.000000000 0.000000000 -1.000000000
f 1/1/1 2/2/2 3/3/3
v -572.75000000 124.50000000 158.00000000
v 575.00000000 122.25000000 158.00000000
v 572.75000000 124.50000000 158.00000000
vt 0.00000000 0.00000000
vt 11.47752205 0.00000000
vt 11.45497799 0.02245585
vn -0.000000000 0.000000000 1.000000000
vn -0.000000000 0.000000000 1.000000000
vn -0.000000000 0.000000000 1.000000000
f 4/4/4 5/5/5 6/6/6
v -572.75000000 124.50000000 136.00000000
v 575.00000000 122.25000000 136.00000000
v 575.00000000 117.75000000 136.00000000
vt 0.00000000 0.00000000
vt 11.47752205 0.00000000
vt 11.47761027 0.04499991
vn 0.000000000 0.000000000 -1.000000000
vn 0.000000000 0.000000000 -1.000000000
vn 0.000000000 0.000000000 -1.000000000
f 7/7/7 8/8/8 9/9/9
v -572.75000000 124.50000000 158.00000000
v 575.00000000 117.75000000 158.00000000
v 575.00000000 122.25000000 158.00000000
vt 0.00000000 0.00000000
vt 11.47769848 0.00000000
vt 11.47743384 0.04499922
vn 0.000000000 0.000000000 1.000000000
vn 0.000000000 0.000000000 1.000000000
vn 0.000000000 0.000000000 1.000000000
f 10/10/10 11/11/11 12/12/12
v -572.75000000 124.50000000 136.00000000
v 575.00000000 117.75000000 136.00000000
v 572.75000000 115.50000000 136.00000000
vt 0.00000000 0.00000000
vt 11.47769848 0.00000000
vt 11.45533120 0.02263193
vn 0.000000000 0.000000000 -1.000000000
vn 0.000000000 0.000000000 -1.000000000
vn 0.000000000 0.000000000 -1.000000000
f 13/13/13 14/14/14 15/15/15
v -572.75000000 124.50000000 158.00000000
v 572.75000000 115.50000000 158.00000000
v 575.00000000 117.75000000 158.00000000
vt 0.00000000 0.00000000
vt 11.45535355 0.00000000
vt 11.47767608 0.02267608
vn 0.000000000 0.000000000 1.000000000
vn 0.000000000 0.000000000 1.000000000
vn 0.000000000 0.000000000 1.000000000
f 16/16/16 17/17/17 18/18/18
v -572.75000000 124.50000000 136.00000000
v 572.75000000 115.50000000 136.00000000
v -572.75000000 115.50000000 136.00000000
vt 0.00000000 0.00000000
vt 11.45535355 0.00000000
vt 0.00070709 0.08999722
vn 0.000000000 0.000000000 -1.000000000
vn 0.000000000 0.000000000 -1.000000000
vn 0.000000000 0.000000000 -1.000000000
f 19/19/19 20/20/20 21/21/21
v -572.75000000 124.50000000 158.00000000
v -572.75000000 115.50000000 158.00000000
v 572.75000000 115.50000000 158.00000000
vt 0.00000000 0.00000000
vt 0.09000000 0.00000000
vt 0.09000000 11.45500000
vn 0.000000000 0.000000000 1.000000000
vn 0.000000000 0.000000000 1.000000000
vn 0.000000000 0.000000000 1.000000000
f 22/22/22 23/23/23 24/24/24
v -572.75000000 124.50000000 136.00000000
v -572.75000000 115.50000000 136.00000000
v -575.00000000 117.75000000 136.00000000
vt 0.00000000 0.00000000
vt 0.09000000 0.00000000
vt 0.06750000 0.02250000
vn 0.000000000 -0.000000000 -1.000000000
vn 0.000000000 -0.000000000 -1.000000000
vn 0.000000000 -0.000000000 -1.000000000
f 25/25/25 26/26/26 27/27/27
v -572.75000000 124.50000000 158.00000000
v -575.00000000 117.75000000 158.00000000
v -572.75000000 115.50000000 158.00000000
vt 0.00000000 0.00000000
vt 0.07115125 0.00000000
vt 0.08538150 0.02846050
vn 0.000000000 0.000000000 1.000000000
vn 0.000000000 0.000000000 1.000000000
vn 0.000000000 0.000000000 1.000000000
f 28/28/28 29/29/29 30/30/30
v -572.75000000 124.50000000 136.00000000
v -575.00000000 117.75000000 136.00000000
v -575.00000000 122.25000000 136.00000000
vt 0.00000000 0.00000000
vt 0.07115125 0.00000000
vt 0.02846050 0.01423025
vn 0.000000000 0.000000000 -1.000000000
vn 0.000000000 0.000000000 -1.000000000
vn 0.000000000 0.000000000 -1.000000000
f 31/31/31 32/32/32 33/33/33
v -572.75000000 124.50000000 158.00000000
v -575.00000000 122.25000000 158.00000000
v -575.00000000 117.75000000 158.00000000
vt 0.00000000 0.00000000
vt 0.03181981 0.00000000
vt 0.06363961 0.03181981
vn 0.000000000 0.000000000 1.000000000
vn 0.000000000 0.000000000 1.000000000
vn 0.000000000 0.000000000 1.000000000
f 34/34/34 35/35/35 36/36/36
v -572.75000000 124.50000000 136.00000000
v 572.75000000 124.50000000 158.00000000
v 572.75000000 124.50000000 136.00000000
vt 0.00000000 0.00000000
vt 11.45711242 0.00000000
vt 11.45288797 0.21995944
vn 0.000000000 1.000000000 0.000000000
vn 0.000000000 1.000000000 0.000000000
vn 0.000000000 1.000000000 0.000000000
f 37/37/37 38/38/38 39/39/39
v -572.75000000 124.50000000 136.00000000
v -572.75000000 124.50000000 158.00000000
v 572.75000000 124.50000000 158.00000000
vt 0.00000000 0.00000000
vt 0.22000000 0.00000000
vt 0.22000000 11.45500000
vn 0.000000000 1.000000000 0.000000000
vn 0.000000000 1.000000000 0.000000000
vn 0.000000000 1.000000000 0.000000000
f 40/40/40 41/41/41 42/42/42
v 572.75000000 124.50000000 136.00000000
v 575.00000000 122.25000000 158.00000000
v 575.00000000 122.25000000 136.00000000
vt 0.00000000 0.00000000
vt 0.22228923 0.00000000
vt 0.00455488 0.03149211
vn 0.707106781 0.707106781 0.000000000
vn 0.707106781 0.707106781 0.000000000
vn 0.707106781 0.707106781 0.000000000
f 43/43/43 44/44/44 45/45/45
v 572.75000000 124.50000000 136.00000000
v 572.75000000 124.50000000 158.00000000
v 575.00000000 122.25000000 158.00000000
vt 0.00000000 0.00000000
vt 0.22000000 0.00000000
vt 0.22000000 0.03181981
vn 0.707106781 0.707106781 -0.000000000
vn 0.707106781 0.707106781 -0.000000000
vn 0.707106781 0.707106781 -0.000000000
f 46/46/46 47/47/47 48/48/48
v 575.00000000 122.25000000 136.00000000
v 575.00000000 117.75000000 158.00000000
v 575.00000000 117.75000000 136.00000000
vt 0.00000000 0.00000000
vt 0.22455512 0.00000000
vt 0.00901783 0.04408717
vn 1.000000000 0.000000000 0.000000000
vn 1.000000000 0.000000000 0.000000000
vn 1.000000000 0.000000000 0.000000000
f 49/49/49 50/50/50 51/51/51
v 575.00000000 122.25000000 136.00000000
v 575.00000000 122.25000000 158.00000000
v 575.00000000 117.75000000 158.00000000
vt 0.00000000 0.00000000
vt 0.22000000 0.00000000
vt 0.22000000 0.04500000
vn 1.000000000 0.000000000 -0.000000000
vn 1.000000000 0.000000000 -0.000000000
vn 1.000000000 0.000000000 -0.000000000
f 52/52/52 53/53/53 54/54/54
v 575.00000000 117.75000000 136.00000000
v 572.75000000 115.50000000 158.00000000
v 572.75000000 115.50000000 136.00000000
vt 0.00000000 0.00000000
vt 0.22228923 0.00000000
vt 0.00455488 0.03149211
vn 0.707106781 -0.707106781 0.000000000
vn 0.707106781 -0.707106781 0.000000000
vn 0.707106781 -0.707106781 0.000000000
f 55/55/55 56/56/56 57/57/57
v 575.00000000 117.75000000 136.00000000
v 575.00000000 117.75000000 158.00000000
v 572.75000000 115.50000000 158.00000000
vt 0.00000000 0.00000000
vt 0.22000000 0.00000000
vt 0.22000000 0.03181981
vn 0.707106781 -0.707106781 0.000000000
vn 0.707106781 -0.707106781 0.000000000
vn 0.707106781 -0.707106781 0.000000000
f 58/58/58 59/59/59 60/60/60
v 572.75000000 115.50000000 136.00000000
v -572.75000000 115.50000000 158.00000000
v -572.75000000 115.50000000 136.00000000
vt 0.00000000 0.00000000
vt 11.45711242 0.00000000
vt 11.45288797 0.21995944
vn 0.000000000 -1.000000000 0.000000000
vn 0.000000000 -1.000000000 0.000000000
vn 0.000000000 -1.000000000 0.000000000
f 61/61/61 62/62/62 63/63/63
v 572.75000000 115.50000000 136.00000000
v 572.75000000 115.50000000 158.00000000
v -572.75000000 115.50000000 158.00000000
vt 0.00000000 0.00000000
vt 0.22000000 0.00000000
vt 0.22000000 11.45500000
vn 0.000000000 -1.000000000 0.000000000
vn 0.000000000 -1.000000000 0.000000000
vn 0.000000000 -1.000000000 0.000000000
f 64/64/64 65/65/65 66/66/66
v -572.75000000 115.50000000 136.00000000
v -575.00000000 117.75000000 158.00000000
v -575.00000000 117.75000000 136.00000000
vt 0.00000000 0.00000000
vt 0.22228923 0.00000000
vt 0.00455488 0.03149211
vn -0.707106781 -0.707106781 0.000000000
vn -0.707106781 -0.707106781 0.000000000
vn -0.707106781 -0.707106781 0.000000000
f 67/67/67 68/68/68 69/69/69
v -572.75000000 115.50000000 136.00000000
v -572.75000000 115.50000000 158.00000000
v -575.00000000 117.75000000 158.00000000
vt 0.00000000 0.00000000
vt 0.22000000 0.00000000
vt 0.22000000 0.03181981
vn -0.707106781 -0.707106781 0.000000000
vn -0.707106781 -0.707106781 0.000000000
vn -0.707106781 -0.707106781 0.000000000
f 70/70/70 71/71/71 72/72/72
v -575.00000000 117.75000000 136.00000000
v -575.00000000 122.25000000 158.00000000
v -575.00000000 122.25000000 136.00000000
vt 0.00000000 0.00000000
vt 0.22455512 0.00000000
vt 0.00901783 0.04408717
vn -1.000000000 0.000000000 0.000000000
vn -1.000000000 0.000000000 0.000000000
vn -1.000000000 0.000000000 0.000000000
f 73/73/73 74/74/74 75/75/75
v -575.00000000 117.75000000 136.00000000
v -575.00000000 117.75000000 158.00000000
v -575.00000000 122.25000000 158.00000000
vt 0.00000000 0.00000000
vt 0.22000000 0.00000000
vt 0.22000000 0.04500000
vn -1.000000000 0.000000000 0.000000000
vn -1.000000000 0.000000000 0.000000000
vn -1.000000000 0.000000000 0.000000000
f 76/76/76 77/77/77 78/78/78
v -575.00000000 122.25000000 136.00000000
v -572.75000000 124.50000000 158.00000000
v -572.75000000 124.50000000 136.00000000
vt 0.00000000 0.00000000
vt 0.22228923 0.00000000
vt 0.00455488 0.03149211
vn -0.707106781 0.707106781 0.000000000
vn -0.707106781 0.707106781 0.000000000
vn -0.707106781 0.707106781 0.000000000
f 79/79/79 80/80/80 81/81/81
v -575.00000000 122.25000000 136.00000000
v -575.00000000 122.25000000 158.00000000
v -572.75000000 124.50000000 158.00000000
vt 0.00000000 0.00000000
vt 0.22000000 0.00000000
vt 0.22000000 0.03181981
vn -0.707106781 0.707106781 0.000000000
vn -0.707106781 0.707106781 0.000000000
vn -0.707106781 0.707106781 0.000000000
f 82/82/82 83/83/83 84/84/84
g UpperFascia_-1
s off
v -572.00000000 124.00000000 265.00000000
v 572.00000000 124.00000000 265.00000000
v 575.00000000 121.00000000 265.00000000
vt 0.00000000 0.00000000
vt 11.44000000 0.00000000
vt 11.47000000 0.03000000
vn 0.000000000 0.000000000 -1.000000000
vn 0.000000000 0.000000000 -1.000000000
vn 0.000000000 0.000000000 -1.000000000
f 85/85/85 86/86/86 87/87/87
v -572.00000000 124.00000000 301.00000000
v 575.00000000 121.00000000 301.00000000
v 572.00000000 124.00000000 301.00000000
vt 0.00000000 0.00000000
vt 11.47003923 0.00000000
vt 11.43996087 0.02992143
vn -0.000000000 0.000000000 1.000000000
vn -0.000000000 0.000000000 1.000000000
vn -0.000000000 0.000000000 1.000000000
f 88/88/88 89/89/89 90/90/90
v -572.00000000 124.00000000 265.00000000
v 575.00000000 121.00000000 265.00000000
v 575.00000000 115.00000000 265.00000000
vt 0.00000000 0.00000000
vt 11.47003923 0.00000000
vt 11.47019616 0.05999979
vn 0.000000000 0.000000000 -1.000000000
vn 0.000000000 0.000000000 -1.000000000
vn 0.000000000 0.000000000 -1.000000000
f 91/91/91 92/92/92 93/93/93
v -572.00000000 124.00000000 301.00000000
v 575.00000000 115.00000000 301.00000000
v 575.00000000 121.00000000 301.00000000
vt 0.00000000 0.00000000
vt 11.47035309 0.00000000
vt 11.46988231 0.05999815
vn 0.000000000 0.000000000 1.000000000
vn 0.000000000 0.000000000 1.000000000
vn 0.000000000 0.000000000 1.000000000
f 94/94/94 95/95/95 96/96/96
v -572.00000000 124.00000000 265.00000000
v 575.00000000 115.00000000 265.00000000
v 572.00000000 112.00000000 265.00000000
vt 0.00000000 0.00000000
vt 11.47035309 0.00000000
vt 11.44058940 0.03023447
vn 0.000000000 0.000000000 -1.000000000
vn 0.000000000 0.000000000 -1.000000000
vn 0.000000000 0.000000000 -1.000000000
f 97/97/97 98/98/98 99/99/99
v -572.00000000 124.00000000 301.00000000
v 572.00000000 112.00000000 301.00000000
v 575.00000000 115.00000000 301.00000000
vt 0.00000000 0.00000000
vt 11.44062935 0.00000000
vt 11.47031304 0.03031302
vn 0.000000000 0.000000000 1.000000000
vn 0.000000000 0.000000000 1.000000000
vn 0.000000000 0.000000000 1.000000000
f 100/100/100 101/101/101 102/102/102
v -572.00000000 124.00000000 265.00000000
v 572.00000000 112.00000000 265.00000000
v -572.00000000 112.00000000 265.00000000
vt 0.00000000 0.00000000
vt 11.44062935 0.00000000
vt 0.00125867 0.11999340
vn 0.000000000 0.000000000 -1.000000000
vn 0.000000000 0.000000000 -1.000000000
vn 0.000000000 0.000000000 -1.000000000
f 103/103/103 104/104/104 105/105/105
v -572.00000000 124.00000000 301.00000000
v -572.00000000 112.00000000 301.00000000
v 572.00000000 112.00000000 301.00000000
vt 0.00000000 0.00000000
vt 0.12000000 0.00000000
vt 0.12000000 11.44000000
vn 0.000000000 0.000000000 1.000000000
vn 0.000000000 0.000000000 1.000000000
vn 0.000000000 0.000000000 1.000000000
f 106/106/106 107/107/107 108/108/108
v -572.00000000 124.00000000 265.00000000
v -572.00000000 112.00000000 265.00000000
v -575.00000000 115.00000000 265.00000000
vt 0.00000000 0.00000000
vt 0.12000000 0.00000000
vt 0.09000000 0.03000000
vn 0.000000000 -0.000000000 -1.000000000
vn 0.000000000 -0.000000000 -1.000000000
vn 0.000000000 -0.000000000 -1.000000000
f 109/109/109 110/110/110 111/111/111
v -572.00000000 124.00000000 301.00000000
v -575.00000000 115.00000000 301.00000000
v -572.00000000 112.00000000 301.00000000
vt 0.00000000 0.00000000
vt 0.09486833 0.00000000
vt 0.11384200 0.03794733
vn 0.000000000 0.000000000 1.000000000
vn 0.000000000 0.000000000 1.000000000
vn 0.000000000 0.000000000 1.000000000
f 112/112/112 113/113/113 114/114/114
v -572.00000000 124.00000000 265.00000000
v -575.00000000 115.00000000 265.00000000
v -575.00000000 121.00000000 265.00000000
vt 0.00000000 0.00000000
vt 0.09486833 0.00000000
vt 0.03794733 0.01897367
vn 0.000000000 0.000000000 -1.000000000
vn 0.000000000 0.000000000 -1.000000000
vn 0.000000000 0.000000000 -1.000000000
f 115/115/115 116/116/116 117/117/117
v -572.00000000 124.00000000 301.00000000
v -575.00000000 121.00000000 301.00000000
v -575.00000000 115.00000000 301.00000000
vt 0.00000000 0.00000000
vt 0.04242641 0.00000000
vt 0.08485281 0.04242641
vn 0.000000000 0.000000000 1.000000000
vn 0.000000000 0.000000000 1.000000000
vn 0.000000000 0.000000000 1.000000000
f 118/118/118 119/119/119 120/120/120
v -572.00000000 124.00000000 265.00000000
v 572.00000000 124.00000000 301.00000000
v 572.00000000 124.00000000 265.00000000
vt 0.00000000 0.00000000
vt 11.44566293 0.00000000
vt 11.43433987 0.35982188
vn 0.000000000 1.000000000 0.000000000
vn 0.000000000 1.000000000 0.000000000
vn 0.000000000 1.000000000 0.000000000
f 121/121/121 122/122/122 123/123/123
v -572.00000000 124.00000000 265.00000000
v -572.00000000 124.00000000 301.00000000
v 572.00000000 124.00000000 301.00000000
vt 0.00000000 0.00000000
vt 0.36000000 0.00000000
vt 0.36000000 11.44000000
vn 0.000000000 1.000000000 0.000000000
vn 0.000000000 1.000000000 0.000000000
vn 0.000000000 1.000000000 0.000000000
f 124/124/124 125/125/125 126/126/126
v 572.00000000 124.00000000 265.00000000
v 575.00000000 121.00000000 301.00000000
v 575.00000000 121.00000000 265.00000000
vt 0.00000000 0.00000000
vt 0.36249138 0.00000000
vt 0.00496564 0.04213481
vn 0.707106781 0.707106781 0.000000000
vn 0.707106781 0.707106781 0.000000000
vn 0.707106781 0.707106781 0.000000000
f 127/127/127 128/128/128 129/129/129
v 572.00000000 124.00000000 265.00000000
v 572.00000000 124.00000000 301.00000000
v 575.00000000 121.00000000 301.00000000
vt 0.00000000 0.00000000
vt 0.36000000 0.00000000
vt 0.36000000 0.04242641
vn 0.707106781 0.707106781 -0.000000000
vn 0.707106781 0.707106781 -0.000000000
vn 0.707106781 0.707106781 -0.000000000
f 130/130/130 131/131/131 132/132/132
v 575.00000000 121.00000000 265.00000000
v 575.00000000 115.00000000 301.00000000
v 575.00000000 115.00000000 265.00000000
vt 0.00000000 0.00000000
vt 0.36496575 0.00000000
vt 0.00986394 0.05918364
vn 1.000000000 0.000000000 0.000000000
vn 1.000000000 0.000000000 0.000000000
vn 1.000000000 0.000000000 0.000000000
f 133/133/133 134/134/134 135/135/135
v 575.00000000 121.00000000 265.00000000
v 575.00000000 121.00000000 301.00000000
v 575.00000000 115.00000000 301.00000000
vt 0.00000000 0.00000000
vt 0.36000000 0.00000000
vt 0.36000000 0.06000000
vn 1.000000000 0.000000000 -0.000000000
vn 1.000000000 0.000000000 -0.000000000
vn 1.000000000 0.000000000 -0.000000000
f 136/136/136 137/137/137 138/138/138
v 575.00000000 115.00000000 265.00000000
v 572.00000000 112.00000000 301.00000000
v 572.00000000 112.00000000 265.00000000
vt 0.00000000 0.00000000
vt 0.36249138 0.00000000
vt 0.00496564 0.04213481
vn 0.707106781 -0.707106781 0.000000000
vn 0.707106781 -0.707106781 0.000000000
vn 0.707106781 -0.707106781 0.000000000
f 139/139/139 140/140/140 141/141/141
v 575.00000000 115.00000000 265.00000000
v 575.00000000 115.00000000 301.00000000
v 572.00000000 112.00000000 301.00000000
vt 0.00000000 0.00000000
vt 0.36000000 0.00000000
vt 0.36000000 0.04242641
vn 0.707106781 -0.707106781 0.000000000
vn 0.707106781 -0.707106781 0.000000000
vn 0.707106781 -0.707106781 0.000000000
f 142/142/142 143/143/143 144/144/144
v 572.00000000 112.00000000 265.00000000
v -572.00000000 112.00000000 301.00000000
v -572.00000000 112.00000000 265.00000000
vt 0.00000000 0.00000000
vt 11.44566293 0.00000000
vt 11.43433987 0.35982188
vn 0.000000000 -1.000000000 0.000000000
vn 0.000000000 -1.000000000 0.000000000
vn 0.000000000 -1.000000000 0.000000000
f 145/145/145 146/146/146 147/147/147
v 572.00000000 112.00000000 265.00000000
v 572.00000000 112.00000000 301.00000000
v -572.00000000 112.00000000 301.00000000
vt 0.00000000 0.00000000
vt 0.36000000 0.00000000
vt 0.36000000 11.44000000
vn 0.000000000 -1.000000000 0.000000000
vn 0.000000000 -1.000000000 0.000000000
vn 0.000000000 -1.000000000 0.000000000
f 148/148/148 149/149/149 150/150/150
v -572.00000000 112.00000000 265.00000000
v -575.00000000 115.00000000 301.00000000
v -575.00000000 115.00000000 265.00000000
vt 0.00000000 0.00000000
vt 0.36249138 0.00000000
vt 0.00496564 0.04213481
vn -0.707106781 -0.707106781 0.000000000
vn -0.707106781 -0.707106781 0.000000000
vn -0.707106781 -0.707106781 0.000000000
f 151/151/151 152/152/152 153/153/153
v -572.00000000 112.00000000 265.00000000
v -572.00000000 112.00000000 301.00000000
v -575.00000000 115.00000000 301.00000000
vt 0.00000000 0.00000000
vt 0.36000000 0.00000000
vt 0.36000000 0.04242641
vn -0.707106781 -0.707106781 0.000000000
vn -0.707106781 -0.707106781 0.000000000
vn -0.707106781 -0.707106781 0.000000000
f 154/154/154 155/155/155 156/156/156
v -575.00000000 115.00000000 265.00000000
v -575.00000000 121.00000000 301.00000000
v -575.00000000 121.00000000 265.00000000
vt 0.00000000 0.00000000
vt 0.36496575 0.00000000
vt 0.00986394 0.05918364
vn -1.000000000 0.000000000 0.000000000
vn -1.000000000 0.000000000 0.000000000
vn -1.000000000 0.000000000 0.000000000
f 157/157/157 158/158/158 159/159/159
v -575.00000000 115.00000000 265.00000000
v -575.00000000 115.00000000 301.00000000
v -575.00000000 121.00000000 301.00000000
vt 0.00000000 0.00000000
vt 0.36000000 0.00000000
vt 0.36000000 0.06000000
vn -1.000000000 0.000000000 0.000000000
vn -1.000000000 0.000000000 0.000000000
vn -1.000000000 0.000000000 0.000000000
f 160/160/160 161/161/161 162/162/162
v -575.00000000 121.00000000 265.00000000
v -572.00000000 124.00000000 301.00000000
v -572.00000000 124.00000000 265.00000000
vt 0.00000000 0.00000000
vt 0.36249138 0.00000000
vt 0.00496564 0.04213481
vn -0.707106781 0.707106781 0.000000000
vn -0.707106781 0.707106781 0.000000000
vn -0.707106781 0.707106781 0.000000000
f 163/163/163 164/164/164 165/165/165
v -575.00000000 121.00000000 265.00000000
v -575.00000000 121.00000000 301.00000000
v -572.00000000 124.00000000 301.00000000
vt 0.00000000 0.00000000
vt 0.36000000 0.00000000
vt 0.36000000 0.04242641
vn -0.707106781 0.707106781 0.000000000
vn -0.707106781 0.707106781 0.000000000
vn -0.707106781 0.707106781 0.000000000
f 166/166/166 167/167/167 168/168/168
g BeltRail_1
s off
v -572.75000000 -115.50000000 136.00000000
v 572.75000000 -115.50000000 136.00000000
v 575.00000000 -117.75000000 136.00000000
vt 0.00000000 0.00000000
vt 11.45500000 0.00000000
vt 11.47750000 0.02250000
vn 0.000000000 0.000000000 -1.000000000
vn 0.000000000 0.000000000 -1.000000000
vn 0.000000000 0.000000000 -1.000000000
f 169/169/169 170/170/170 171/171/171
v -572.75000000 -115.50000000 158.00000000
v 575.00000000 -117.75000000 158.00000000
v 572.75000000 -115.50000000 158.00000000
vt 0.00000000 0.00000000
vt 11.47752205 0.00000000
vt 11.45497799 0.02245585
vn -0.000000000 0.000000000 1.000000000
vn -0.000000000 0.000000000 1.000000000
vn -0.000000000 0.000000000 1.000000000
f 172/172/172 173/173/173 174/174/174
v -572.75000000 -115.50000000 136.00000000
v 575.00000000 -117.75000000 136.00000000
v 575.00000000 -122.25000000 136.00000000
vt 0.00000000 0.00000000
vt 11.47752205 0.00000000
vt 11.47761027 0.04499991
vn 0.000000000 0.000000000 -1.000000000
vn 0.000000000 0.000000000 -1.000000000
vn 0.000000000 0.000000000 -1.000000000
f 175/175/175 176/176/176 177/177/177
v -572.75000000 -115.50000000 158.00000000
v 575.00000000 -122.25000000 158.00000000
v 575.00000000 -117.75000000 158.00000000
vt 0.00000000 0.00000000
vt 11.47769848 0.00000000
vt 11.47743384 0.04499922
vn 0.000000000 0.000000000 1.000000000
vn 0.000000000 0.000000000 1.000000000
vn 0.000000000 0.000000000 1.000000000
f 178/178/178 179/179/179 180/180/180
v -572.75000000 -115.50000000 136.00000000
v 575.00000000 -122.25000000 136.00000000
v 572.75000000 -124.50000000 136.00000000
vt 0.00000000 0.00000000
vt 11.47769848 0.00000000
vt 11.45533120 0.02263193
vn 0.000000000 0.000000000 -1.000000000
vn 0.000000000 0.000000000 -1.000000000
vn 0.000000000 0.000000000 -1.000000000
f 181/181/181 182/182/182 183/183/183
v -572.75000000 -115.50000000 158.00000000
v 572.75000000 -124.50000000 158.00000000
v 575.00000000 -122.25000000 158.00000000
vt 0.00000000 0.00000000
vt 11.45535355 0.00000000
vt 11.47767608 0.02267608
vn 0.000000000 0.000000000 1.000000000
vn 0.000000000 0.000000000 1.000000000
vn 0.000000000 0.000000000 1.000000000
f 184/184/184 185/185/185 186/186/186
v -572.75000000 -115.50000000 136.00000000
v 572.75000000 -124.50000000 136.00000000
v -572.75000000 -124.50000000 136.00000000
vt 0.00000000 0.00000000
vt 11.45535355 0.00000000
vt 0.00070709 0.08999722
vn 0.000000000 0.000000000 -1.000000000
vn 0.000000000 0.000000000 -1.000000000
vn 0.000000000 0.000000000 -1.000000000
f 187/187/187 188/188/188 189/189/189
v -572.75000000 -115.50000000 158.00000000
v -572.75000000 -124.50000000 158.00000000
v 572.75000000 -124.50000000 158.00000000
vt 0.00000000 0.00000000
vt 0.09000000 0.00000000
vt 0.09000000 11.45500000
vn 0.000000000 0.000000000 1.000000000
vn 0.000000000 0.000000000 1.000000000
vn 0.000000000 0.000000000 1.000000000
f 190/190/190 191/191/191 192/192/192
v -572.75000000 -115.50000000 136.00000000
v -572.75000000 -124.50000000 136.00000000
v -575.00000000 -122.25000000 136.00000000
vt 0.00000000 0.00000000
vt 0.09000000 0.00000000
vt 0.06750000 0.02250000
vn 0.000000000 -0.000000000 -1.000000000
vn 0.000000000 -0.000000000 -1.000000000
vn 0.000000000 -0.000000000 -1.000000000
f 193/193/193 194/194/194 195/195/195
v -572.75000000 -115.50000000 158.00000000
v -575.00000000 -122.25000000 158.00000000
v -572.75000000 -124.50000000 158.00000000
vt 0.00000000 0.00000000
vt 0.07115125 0.00000000
vt 0.08538150 0.02846050
vn 0.000000000 0.000000000 1.000000000
vn 0.000000000 0.000000000 1.000000000
vn 0.000000000 0.000000000 1.000000000
f 196/196/196 197/197/197 198/198/198
v -572.75000000 -115.50000000 136.00000000
v -575.00000000 -122.25000000 136.00000000
v -575.00000000 -117.75000000 136.00000000
vt 0.00000000 0.00000000
vt 0.07115125 0.00000000
vt 0.02846050 0.01423025
vn 0.000000000 0.000000000 -1.000000000
vn 0.000000000 0.000000000 -1.000000000
vn 0.000000000 0.000000000 -1.000000000
f 199/199/199 200/200/200 201/201/201
v -572.75000000 -115.50000000 158.00000000
v -575.00000000 -117.75000000 158.00000000
v -575.00000000 -122.25000000 158.00000000
vt 0.00000000 0.00000000
vt 0.03181981 0.00000000
vt 0.06363961 0.03181981
vn 0.000000000 0.000000000 1.000000000
vn 0.000000000 0.000000000 1.000000000
vn 0.000000000 0.000000000 1.000000000
f 202/202/202 203/203/203 204/204/204
v -572.75000000 -115.50000000 136.00000000
v 572.75000000 -115.50000000 158.00000000
v 572.75000000 -115.50000000 136.00000000
vt 0.00000000 0.00000000
vt 11.45711242 0.00000000
vt 11.45288797 0.21995944
vn 0.000000000 1.000000000 0.000000000
vn 0.000000000 1.000000000 0.000000000
vn 0.000000000 1.000000000 0.000000000
f 205/205/205 206/206/206 207/207/207
v -572.75000000 -115.50000000 136.00000000
v -572.75000000 -115.50000000 158.00000000
v 572.75000000 -115.50000000 158.00000000
vt 0.00000000 0.00000000
vt 0.22000000 0.00000000
vt 0.22000000 11.45500000
vn 0.000000000 1.000000000 0.000000000
vn 0.000000000 1.000000000 0.000000000
vn 0.000000000 1.000000000 0.000000000
f 208/208/208 209/209/209 210/210/210
v 572.75000000 -115.50000000 136.00000000
v 575.00000000 -117.75000000 158.00000000
v 575.00000000 -117.75000000 136.00000000
vt 0.00000000 0.00000000
vt 0.22228923 0.00000000
vt 0.00455488 0.03149211
vn 0.707106781 0.707106781 0.000000000
vn 0.707106781 0.707106781 0.000000000
vn 0.707106781 0.707106781 0.000000000
f 211/211/211 212/212/212 213/213/213
v 572.75000000 -115.50000000 136.00000000
v 572.75000000 -115.50000000 158.00000000
v 575.00000000 -117.75000000 158.00000000
vt 0.00000000 0.00000000
vt 0.22000000 0.00000000
vt 0.22000000 0.03181981
vn 0.707106781 0.707106781 -0.000000000
vn 0.707106781 0.707106781 -0.000000000
vn 0.707106781 0.707106781 -0.000000000
f 214/214/214 215/215/215 216/216/216
v 575.00000000 -117.75000000 136.00000000
v 575.00000000 -122.25000000 158.00000000
v 575.00000000 -122.25000000 136.00000000
vt 0.00000000 0.00000000
vt 0.22455512 0.00000000
vt 0.00901783 0.04408717
vn 1.000000000 0.000000000 0.000000000
vn 1.000000000 0.000000000 0.000000000
vn 1.000000000 0.000000000 0.000000000
f 217/217/217 218/218/218 219/219/219
v 575.00000000 -117.75000000 136.00000000
v 575.00000000 -117.75000000 158.00000000
v 575.00000000 -122.25000000 158.00000000
vt 0.00000000 0.00000000
vt 0.22000000 0.00000000
vt 0.22000000 0.04500000
vn 1.000000000 0.000000000 -0.000000000
vn 1.000000000 0.000000000 -0.000000000
vn 1.000000000 0.000000000 -0.000000000
f 220/220/220 221/221/221 222/222/222
v 575.00000000 -122.25000000 136.00000000
v 572.75000000 -124.50000000 158.00000000
v 572.75000000 -124.50000000 136.00000000
vt 0.00000000 0.00000000
vt 0.22228923 0.00000000
vt 0.00455488 0.03149211
vn 0.707106781 -0.707106781 0.000000000
vn 0.707106781 -0.707106781 0.000000000
vn 0.707106781 -0.707106781 0.000000000
f 223/223/223 224/224/224 225/225/225
v 575.00000000 -122.25000000 136.00000000
v 575.00000000 -122.25000000 158.00000000
v 572.75000000 -124.50000000 158.00000000
vt 0.00000000 0.00000000
vt 0.22000000 0.00000000
vt 0.22000000 0.03181981
vn 0.707106781 -0.707106781 0.000000000
vn 0.707106781 -0.707106781 0.000000000
vn 0.707106781 -0.707106781 0.000000000
f 226/226/226 227/227/227 228/228/228
v 572.75000000 -124.50000000 136.00000000
v -572.75000000 -124.50000000 158.00000000
v -572.75000000 -124.50000000 136.00000000
vt 0.00000000 0.00000000
vt 11.45711242 0.00000000
vt 11.45288797 0.21995944
vn 0.000000000 -1.000000000 0.000000000
vn 0.000000000 -1.000000000 0.000000000
vn 0.000000000 -1.000000000 0.000000000
f 229/229/229 230/230/230 231/231/231
v 572.75000000 -124.50000000 136.00000000
v 572.75000000 -124.50000000 158.00000000
v -572.75000000 -124.50000000 158.00000000
vt 0.00000000 0.00000000
vt 0.22000000 0.00000000
vt 0.22000000 11.45500000
vn 0.000000000 -1.000000000 0.000000000
vn 0.000000000 -1.000000000 0.000000000
vn 0.000000000 -1.000000000 0.000000000
f 232/232/232 233/233/233 234/234/234
v -572.75000000 -124.50000000 136.00000000
v -575.00000000 -122.25000000 158.00000000
v -575.00000000 -122.25000000 136.00000000
vt 0.00000000 0.00000000
vt 0.22228923 0.00000000
vt 0.00455488 0.03149211
vn -0.707106781 -0.707106781 0.000000000
vn -0.707106781 -0.707106781 0.000000000
vn -0.707106781 -0.707106781 0.000000000
f 235/235/235 236/236/236 237/237/237
v -572.75000000 -124.50000000 136.00000000
v -572.75000000 -124.50000000 158.00000000
v -575.00000000 -122.25000000 158.00000000
vt 0.00000000 0.00000000
vt 0.22000000 0.00000000
vt 0.22000000 0.03181981
vn -0.707106781 -0.707106781 0.000000000
vn -0.707106781 -0.707106781 0.000000000
vn -0.707106781 -0.707106781 0.000000000
f 238/238/238 239/239/239 240/240/240
v -575.00000000 -122.25000000 136.00000000
v -575.00000000 -117.75000000 158.00000000
v -575.00000000 -117.75000000 136.00000000
vt 0.00000000 0.00000000
vt 0.22455512 0.00000000
vt 0.00901783 0.04408717
vn -1.000000000 0.000000000 0.000000000
vn -1.000000000 0.000000000 0.000000000
vn -1.000000000 0.000000000 0.000000000
f 241/241/241 242/242/242 243/243/243
v -575.00000000 -122.25000000 136.00000000
v -575.00000000 -122.25000000 158.00000000
v -575.00000000 -117.75000000 158.00000000
vt 0.00000000 0.00000000
vt 0.22000000 0.00000000
vt 0.22000000 0.04500000
vn -1.000000000 0.000000000 0.000000000
vn -1.000000000 0.000000000 0.000000000
vn -1.000000000 0.000000000 0.000000000
f 244/244/244 245/245/245 246/246/246
v -575.00000000 -117.75000000 136.00000000
v -572.75000000 -115.50000000 158.00000000
v -572.75000000 -115.50000000 136.00000000
vt 0.00000000 0.00000000
vt 0.22228923 0.00000000
vt 0.00455488 0.03149211
vn -0.707106781 0.707106781 0.000000000
vn -0.707106781 0.707106781 0.000000000
vn -0.707106781 0.707106781 0.000000000
f 247/247/247 248/248/248 249/249/249
v -575.00000000 -117.75000000 136.00000000
v -575.00000000 -117.75000000 158.00000000
v -572.75000000 -115.50000000 158.00000000
vt 0.00000000 0.00000000
vt 0.22000000 0.00000000
vt 0.22000000 0.03181981
vn -0.707106781 0.707106781 0.000000000
vn -0.707106781 0.707106781 0.000000000
vn -0.707106781 0.707106781 0.000000000
f 250/250/250 251/251/251 252/252/252
g UpperFascia_1
s off
v -572.00000000 -112.00000000 265.00000000
v 572.00000000 -112.00000000 265.00000000
v 575.00000000 -115.00000000 265.00000000
vt 0.00000000 0.00000000
vt 11.44000000 0.00000000
vt 11.47000000 0.03000000
vn 0.000000000 0.000000000 -1.000000000
vn 0.000000000 0.000000000 -1.000000000
vn 0.000000000 0.000000000 -1.000000000
f 253/253/253 254/254/254 255/255/255
v -572.00000000 -112.00000000 301.00000000
v 575.00000000 -115.00000000 301.00000000
v 572.00000000 -112.00000000 301.00000000
vt 0.00000000 0.00000000
vt 11.47003923 0.00000000
vt 11.43996087 0.02992143
vn -0.000000000 0.000000000 1.000000000
vn -0.000000000 0.000000000 1.000000000
vn -0.000000000 0.000000000 1.000000000
f 256/256/256 257/257/257 258/258/258
v -572.00000000 -112.00000000 265.00000000
v 575.00000000 -115.00000000 265.00000000
v 575.00000000 -121.00000000 265.00000000
vt 0.00000000 0.00000000
vt 11.47003923 0.00000000
vt 11.47019616 0.05999979
vn 0.000000000 0.000000000 -1.000000000
vn 0.000000000 0.000000000 -1.000000000
vn 0.000000000 0.000000000 -1.000000000
f 259/259/259 260/260/260 261/261/261
v -572.00000000 -112.00000000 301.00000000
v 575.00000000 -121.00000000 301.00000000
v 575.00000000 -115.00000000 301.00000000
vt 0.00000000 0.00000000
vt 11.47035309 0.00000000
vt 11.46988231 0.05999815
vn 0.000000000 0.000000000 1.000000000
vn 0.000000000 0.000000000 1.000000000
vn 0.000000000 0.000000000 1.000000000
f 262/262/262 263/263/263 264/264/264
v -572.00000000 -112.00000000 265.00000000
v 575.00000000 -121.00000000 265.00000000
v 572.00000000 -124.00000000 265.00000000
vt 0.00000000 0.00000000
vt 11.47035309 0.00000000
vt 11.44058940 0.03023447
vn 0.000000000 0.000000000 -1.000000000
vn 0.000000000 0.000000000 -1.000000000
vn 0.000000000 0.000000000 -1.000000000
f 265/265/265 266/266/266 267/267/267
v -572.00000000 -112.00000000 301.00000000
v 572.00000000 -124.00000000 301.00000000
v 575.00000000 -121.00000000 301.00000000
vt 0.00000000 0.00000000
vt 11.44062935 0.00000000
vt 11.47031304 0.03031302
vn 0.000000000 0.000000000 1.000000000
vn 0.000000000 0.000000000 1.000000000
vn 0.000000000 0.000000000 1.000000000
f 268/268/268 269/269/269 270/270/270
v -572.00000000 -112.00000000 265.00000000
v 572.00000000 -124.00000000 265.00000000
v -572.00000000 -124.00000000 265.00000000
vt 0.00000000 0.00000000
vt 11.44062935 0.00000000
vt 0.00125867 0.11999340
vn 0.000000000 0.000000000 -1.000000000
vn 0.000000000 0.000000000 -1.000000000
vn 0.000000000 0.000000000 -1.000000000
f 271/271/271 272/272/272 273/273/273
v -572.00000000 -112.00000000 301.00000000
v -572.00000000 -124.00000000 301.00000000
v 572.00000000 -124.00000000 301.00000000
vt 0.00000000 0.00000000
vt 0.12000000 0.00000000
vt 0.12000000 11.44000000
vn 0.000000000 0.000000000 1.000000000
vn 0.000000000 0.000000000 1.000000000
vn 0.000000000 0.000000000 1.000000000
f 274/274/274 275/275/275 276/276/276
v -572.00000000 -112.00000000 265.00000000
v -572.00000000 -124.00000000 265.00000000
v -575.00000000 -121.00000000 265.00000000
vt 0.00000000 0.00000000
vt 0.12000000 0.00000000
vt 0.09000000 0.03000000
vn 0.000000000 -0.000000000 -1.000000000
vn 0.000000000 -0.000000000 -1.000000000
vn 0.000000000 -0.000000000 -1.000000000
f 277/277/277 278/278/278 279/279/279
v -572.00000000 -112.00000000 301.00000000
v -575.00000000 -121.00000000 301.00000000
v -572.00000000 -124.00000000 301.00000000
vt 0.00000000 0.00000000
vt 0.09486833 0.00000000
vt 0.11384200 0.03794733
vn 0.000000000 0.000000000 1.000000000
vn 0.000000000 0.000000000 1.000000000
vn 0.000000000 0.000000000 1.000000000
f 280/280/280 281/281/281 282/282/282
v -572.00000000 -112.00000000 265.00000000
v -575.00000000 -121.00000000 265.00000000
v -575.00000000 -115.00000000 265.00000000
vt 0.00000000 0.00000000
vt 0.09486833 0.00000000
vt 0.03794733 0.01897367
vn 0.000000000 0.000000000 -1.000000000
vn 0.000000000 0.000000000 -1.000000000
vn 0.000000000 0.000000000 -1.000000000
f 283/283/283 284/284/284 285/285/285
v -572.00000000 -112.00000000 301.00000000
v -575.00000000 -115.00000000 301.00000000
v -575.00000000 -121.00000000 301.00000000
vt 0.00000000 0.00000000
vt 0.04242641 0.00000000
vt 0.08485281 0.04242641
vn 0.000000000 0.000000000 1.000000000
vn 0.000000000 0.000000000 1.000000000
vn 0.000000000 0.000000000 1.000000000
f 286/286/286 287/287/287 288/288/288
v -572.00000000 -112.00000000 265.00000000
v 572.00000000 -112.00000000 301.00000000
v 572.00000000 -112.00000000 265.00000000
vt 0.00000000 0.00000000
vt 11.44566293 0.00000000
vt 11.43433987 0.35982188
vn 0.000000000 1.000000000 0.000000000
vn 0.000000000 1.000000000 0.000000000
vn 0.000000000 1.000000000 0.000000000
f 289/289/289 290/290/290 291/291/291
v -572.00000000 -112.00000000 265.00000000
v -572.00000000 -112.00000000 301.00000000
v 572.00000000 -112.00000000 301.00000000
vt 0.00000000 0.00000000
vt 0.36000000 0.00000000
vt 0.36000000 11.44000000
vn 0.000000000 1.000000000 0.000000000
vn 0.000000000 1.000000000 0.000000000
vn 0.000000000 1.000000000 0.000000000
f 292/292/292 293/293/293 294/294/294
v 572.00000000 -112.00000000 265.00000000
v 575.00000000 -115.00000000 301.00000000
v 575.00000000 -115.00000000 265.00000000
vt 0.00000000 0.00000000
vt 0.36249138 0.00000000
vt 0.00496564 0.04213481
vn 0.707106781 0.707106781 0.000000000
vn 0.707106781 0.707106781 0.000000000
vn 0.707106781 0.707106781 0.000000000
f 295/295/295 296/296/296 297/297/297
v 572.00000000 -112.00000000 265.00000000
v 572.00000000 -112.00000000 301.00000000
v 575.00000000 -115.00000000 301.00000000
vt 0.00000000 0.00000000
vt 0.36000000 0.00000000
vt 0.36000000 0.04242641
vn 0.707106781 0.707106781 -0.000000000
vn 0.707106781 0.707106781 -0.000000000
vn 0.707106781 0.707106781 -0.000000000
f 298/298/298 299/299/299 300/300/300
v 575.00000000 -115.00000000 265.00000000
v 575.00000000 -121.00000000 301.00000000
v 575.00000000 -121.00000000 265.00000000
vt 0.00000000 0.00000000
vt 0.36496575 0.00000000
vt 0.00986394 0.05918364
vn 1.000000000 0.000000000 0.000000000
vn 1.000000000 0.000000000 0.000000000
vn 1.000000000 0.000000000 0.000000000
f 301/301/301 302/302/302 303/303/303
v 575.00000000 -115.00000000 265.00000000
v 575.00000000 -115.00000000 301.00000000
v 575.00000000 -121.00000000 301.00000000
vt 0.00000000 0.00000000
vt 0.36000000 0.00000000
vt 0.36000000 0.06000000
vn 1.000000000 0.000000000 -0.000000000
vn 1.000000000 0.000000000 -0.000000000
vn 1.000000000 0.000000000 -0.000000000
f 304/304/304 305/305/305 306/306/306
v 575.00000000 -121.00000000 265.00000000
v 572.00000000 -124.00000000 301.00000000
v 572.00000000 -124.00000000 265.00000000
vt 0.00000000 0.00000000
vt 0.36249138 0.00000000
vt 0.00496564 0.04213481
vn 0.707106781 -0.707106781 0.000000000
vn 0.707106781 -0.707106781 0.000000000
vn 0.707106781 -0.707106781 0.000000000
f 307/307/307 308/308/308 309/309/309
v 575.00000000 -121.00000000 265.00000000
v 575.00000000 -121.00000000 301.00000000
v 572.00000000 -124.00000000 301.00000000
vt 0.00000000 0.00000000
vt 0.36000000 0.00000000
vt 0.36000000 0.04242641
vn 0.707106781 -0.707106781 0.000000000
vn 0.707106781 -0.707106781 0.000000000
vn 0.707106781 -0.707106781 0.000000000
f 310/310/310 311/311/311 312/312/312
v 572.00000000 -124.00000000 265.00000000
v -572.00000000 -124.00000000 301.00000000
v -572.00000000 -124.00000000 265.00000000
vt 0.00000000 0.00000000
vt 11.44566293 0.00000000
vt 11.43433987 0.35982188
vn 0.000000000 -1.000000000 0.000000000
vn 0.000000000 -1.000000000 0.000000000
vn 0.000000000 -1.000000000 0.000000000
f 313/313/313 314/314/314 315/315/315
v 572.00000000 -124.00000000 265.00000000
v 572.00000000 -124.00000000 301.00000000
v -572.00000000 -124.00000000 301.00000000
vt 0.00000000 0.00000000
vt 0.36000000 0.00000000
vt 0.36000000 11.44000000
vn 0.000000000 -1.000000000 0.000000000
vn 0.000000000 -1.000000000 0.000000000
vn 0.000000000 -1.000000000 0.000000000
f 316/316/316 317/317/317 318/318/318
v -572.00000000 -124.00000000 265.00000000
v -575.00000000 -121.00000000 301.00000000
v -575.00000000 -121.00000000 265.00000000
vt 0.00000000 0.00000000
vt 0.36249138 0.00000000
vt 0.00496564 0.04213481
vn -0.707106781 -0.707106781 0.000000000
vn -0.707106781 -0.707106781 0.000000000
vn -0.707106781 -0.707106781 0.000000000
f 319/319/319 320/320/320 321/321/321
v -572.00000000 -124.00000000 265.00000000
v -572.00000000 -124.00000000 301.00000000
v -575.00000000 -121.00000000 301.00000000
vt 0.00000000 0.00000000
vt 0.36000000 0.00000000
vt 0.36000000 0.04242641
vn -0.707106781 -0.707106781 0.000000000
vn -0.707106781 -0.707106781 0.000000000
vn -0.707106781 -0.707106781 0.000000000
f 322/322/322 323/323/323 324/324/324
v -575.00000000 -121.00000000 265.00000000
v -575.00000000 -115.00000000 301.00000000
v -575.00000000 -115.00000000 265.00000000
vt 0.00000000 0.00000000
vt 0.36496575 0.00000000
vt 0.00986394 0.05918364
vn -1.000000000 0.000000000 0.000000000
vn -1.000000000 0.000000000 0.000000000
vn -1.000000000 0.000000000 0.000000000
f 325/325/325 326/326/326 327/327/327
v -575.00000000 -121.00000000 265.00000000
v -575.00000000 -121.00000000 301.00000000
v -575.00000000 -115.00000000 301.00000000
vt 0.00000000 0.00000000
vt 0.36000000 0.00000000
vt 0.36000000 0.06000000
vn -1.000000000 0.000000000 0.000000000
vn -1.000000000 0.000000000 0.000000000
vn -1.000000000 0.000000000 0.000000000
f 328/328/328 329/329/329 330/330/330
v -575.00000000 -115.00000000 265.00000000
v -572.00000000 -112.00000000 301.00000000
v -572.00000000 -112.00000000 265.00000000
vt 0.00000000 0.00000000
vt 0.36249138 0.00000000
vt 0.00496564 0.04213481
vn -0.707106781 0.707106781 0.000000000
vn -0.707106781 0.707106781 0.000000000
vn -0.707106781 0.707106781 0.000000000
f 331/331/331 332/332/332 333/333/333
v -575.00000000 -115.00000000 265.00000000
v -575.00000000 -115.00000000 301.00000000
v -572.00000000 -112.00000000 301.00000000
vt 0.00000000 0.00000000
vt 0.36000000 0.00000000
vt 0.36000000 0.04242641
vn -0.707106781 0.707106781 0.000000000
vn -0.707106781 0.707106781 0.000000000
vn -0.707106781 0.707106781 0.000000000
f 334/334/334 335/335/335 336/336/336
g RoofCrown
s off
v -580.00000000 123.00000000 296.00000000
v -580.00000000 85.00000000 314.00000000
v -580.00000000 115.00000000 308.00000000
vt 0.00000000 0.00000000
vt 0.42047592 0.00000000
vt 0.12366939 0.07420163
vn -1.000000000 0.000000000 0.000000000
vn -1.000000000 0.000000000 0.000000000
vn -1.000000000 0.000000000 0.000000000
f 337/337/337 338/338/338 339/339/339
v 580.00000000 123.00000000 296.00000000
v 580.00000000 115.00000000 308.00000000
v 580.00000000 85.00000000 314.00000000
vt 0.00000000 0.00000000
vt 0.14422205 0.00000000
vt 0.36055513 0.21633308
vn 1.000000000 0.000000000 0.000000000
vn 1.000000000 0.000000000 0.000000000
vn 1.000000000 0.000000000 0.000000000
f 340/340/340 341/341/341 342/342/342
v -580.00000000 123.00000000 296.00000000
v -580.00000000 -85.00000000 314.00000000
v -580.00000000 85.00000000 314.00000000
vt 0.00000000 0.00000000
vt 2.08777393 0.00000000
vt 0.39410397 0.14656759
vn -1.000000000 0.000000000 0.000000000
vn -1.000000000 0.000000000 0.000000000
vn -1.000000000 0.000000000 0.000000000
f 343/343/343 344/344/344 345/345/345
v 580.00000000 123.00000000 296.00000000
v 580.00000000 85.00000000 314.00000000
v 580.00000000 -85.00000000 314.00000000
vt 0.00000000 0.00000000
vt 0.42047592 0.00000000
vt 1.95683025 0.72774679
vn 1.000000000 0.000000000 0.000000000
vn 1.000000000 0.000000000 0.000000000
vn 1.000000000 0.000000000 0.000000000
f 346/346/346 347/347/347 348/348/348
v -580.00000000 123.00000000 296.00000000
v -580.00000000 -115.00000000 308.00000000
v -580.00000000 -85.00000000 314.00000000
vt 0.00000000 0.00000000
vt 2.38302329 0.00000000
vt 2.08642527 0.07503074
vn -1.000000000 0.000000000 0.000000000
vn -1.000000000 0.000000000 0.000000000
vn -1.000000000 0.000000000 0.000000000
f 349/349/349 350/350/350 351/351/351
v 580.00000000 123.00000000 296.00000000
v 580.00000000 -85.00000000 314.00000000
v 580.00000000 -115.00000000 308.00000000
vt 0.00000000 0.00000000
vt 2.08777393 0.00000000
vt 2.38148389 0.08564146
vn 1.000000000 0.000000000 0.000000000
vn 1.000000000 0.000000000 0.000000000
vn 1.000000000 0.000000000 0.000000000
f 352/352/352 353/353/353 354/354/354
v -580.00000000 123.00000000 296.00000000
v -580.00000000 -123.00000000 296.00000000
v -580.00000000 -115.00000000 308.00000000
vt 0.00000000 0.00000000
vt 2.46000000 0.00000000
vt 2.38000000 0.12000000
vn -1.000000000 0.000000000 0.000000000
vn -1.000000000 0.000000000 0.000000000
vn -1.000000000 0.000000000 0.000000000
f 355/355/355 356/356/356 357/357/357
v 580.00000000 123.00000000 296.00000000
v 580.00000000 -115.00000000 308.00000000
v 580.00000000 -123.00000000 296.00000000
vt 0.00000000 0.00000000
vt 2.38302329 0.00000000
vt 2.45687905 0.12387625
vn 1.000000000 0.000000000 0.000000000
vn 1.000000000 0.000000000 0.000000000
vn 1.000000000 0.000000000 0.000000000
f 358/358/358 359/359/359 360/360/360
v -580.00000000 123.00000000 296.00000000
v -580.00000000 115.00000000 308.00000000
v 580.00000000 115.00000000 308.00000000
vt 0.00000000 0.00000000
vt 0.14422205 0.00000000
vt 0.14422205 11.60000000
vn 0.000000000 0.832050294 0.554700196
vn 0.000000000 0.832050294 0.554700196
vn 0.000000000 0.832050294 0.554700196
f 361/361/361 362/362/362 363/363/363
v -580.00000000 123.00000000 296.00000000
v 580.00000000 115.00000000 308.00000000
v 580.00000000 123.00000000 296.00000000
vt 0.00000000 0.00000000
vt 11.60089652 0.00000000
vt 11.59910355 0.14421091
vn 0.000000000 0.832050294 0.554700196
vn 0.000000000 0.832050294 0.554700196
vn 0.000000000 0.832050294 0.554700196
f 364/364/364 365/365/365 366/366/366
v -580.00000000 115.00000000 308.00000000
v -580.00000000 85.00000000 314.00000000
v 580.00000000 85.00000000 314.00000000
vt 0.00000000 0.00000000
vt 0.30594117 0.00000000
vt 0.30594117 11.60000000
vn 0.000000000 0.196116135 0.980580676
vn 0.000000000 0.196116135 0.980580676
vn 0.000000000 0.196116135 0.980580676
f 367/367/367 368/368/368 369/369/369
v -580.00000000 115.00000000 308.00000000
v 580.00000000 85.00000000 314.00000000
v 580.00000000 115.00000000 308.00000000
vt 0.00000000 0.00000000
vt 11.60403378 0.00000000
vt 11.59596762 0.30583482
vn 0.000000000 0.196116135 0.980580676
vn 0.000000000 0.196116135 0.980580676
vn 0.000000000 0.196116135 0.980580676
f 370/370/370 371/371/371 372/372/372
v -580.00000000 85.00000000 314.00000000
v -580.00000000 -85.00000000 314.00000000
v 580.00000000 -85.00000000 314.00000000
vt 0.00000000 0.00000000
vt 1.70000000 0.00000000
vt 1.70000000 11.60000000
vn 0.000000000 0.000000000 1.000000000
vn 0.000000000 0.000000000 1.000000000
vn 0.000000000 0.000000000 1.000000000
f 373/373/373 374/374/374 375/375/375
v -580.00000000 85.00000000 314.00000000
v 580.00000000 -85.00000000 314.00000000
v 580.00000000 85.00000000 314.00000000
vt 0.00000000 0.00000000
vt 11.72390720 0.00000000
vt 11.47740235 1.68203310
vn 0.000000000 0.000000000 1.000000000
vn 0.000000000 0.000000000 1.000000000
vn 0.000000000 0.000000000 1.000000000
f 376/376/376 377/377/377 378/378/378
v -580.00000000 -85.00000000 314.00000000
v -580.00000000 -115.00000000 308.00000000
v 580.00000000 -115.00000000 308.00000000
vt 0.00000000 0.00000000
vt 0.30594117 0.00000000
vt 0.30594117 11.60000000
vn 0.000000000 -0.196116135 0.980580676
vn 0.000000000 -0.196116135 0.980580676
vn 0.000000000 -0.196116135 0.980580676
f 379/379/379 380/380/380 381/381/381
v -580.00000000 -85.00000000 314.00000000
v 580.00000000 -115.00000000 308.00000000
v 580.00000000 -85.00000000 314.00000000
vt 0.00000000 0.00000000
vt 11.60403378 0.00000000
vt 11.59596762 0.30583482
vn 0.000000000 -0.196116135 0.980580676
vn 0.000000000 -0.196116135 0.980580676
vn 0.000000000 -0.196116135 0.980580676
f 382/382/382 383/383/383 384/384/384
v -580.00000000 -115.00000000 308.00000000
v -580.00000000 -123.00000000 296.00000000
v 580.00000000 -123.00000000 296.00000000
vt 0.00000000 0.00000000
vt 0.14422205 0.00000000
vt 0.14422205 11.60000000
vn 0.000000000 -0.832050294 0.554700196
vn 0.000000000 -0.832050294 0.554700196
vn 0.000000000 -0.832050294 0.554700196
f 385/385/385 386/386/386 387/387/387
v -580.00000000 -115.00000000 308.00000000
v 580.00000000 -123.00000000 296.00000000
v 580.00000000 -115.00000000 308.00000000
vt 0.00000000 0.00000000
vt 11.60089652 0.00000000
vt 11.59910355 0.14421091
vn 0.000000000 -0.832050294 0.554700196
vn 0.000000000 -0.832050294 0.554700196
vn 0.000000000 -0.832050294 0.554700196
f 388/388/388 389/389/389 390/390/390
v -580.00000000 -123.00000000 296.00000000
v -580.00000000 123.00000000 296.00000000
v 580.00000000 123.00000000 296.00000000
vt 0.00000000 0.00000000
vt 2.46000000 0.00000000
vt 2.46000000 11.60000000
vn 0.000000000 0.000000000 -1.000000000
vn 0.000000000 0.000000000 -1.000000000
vn 0.000000000 0.000000000 -1.000000000
f 391/391/391 392/392/392 393/393/393
v -580.00000000 -123.00000000 296.00000000
v 580.00000000 123.00000000 296.00000000
v 580.00000000 -123.00000000 296.00000000
vt 0.00000000 0.00000000
vt 11.85797622 0.00000000
vt 11.34763618 2.40648147
vn 0.000000000 0.000000000 -1.000000000
vn 0.000000000 0.000000000 -1.000000000
vn 0.000000000 0.000000000 -1.000000000
f 394/394/394 395/395/395 396/396/396
g RoofHVAC
s off
v -215.00000000 82.50000000 312.00000000
v 75.00000000 82.50000000 312.00000000
v 95.00000000 62.50000000 312.00000000
vt 0.00000000 0.00000000
vt 2.90000000 0.00000000
vt 3.10000000 0.20000000
vn 0.000000000 0.000000000 -1.000000000
vn 0.000000000 0.000000000 -1.000000000
vn 0.000000000 0.000000000 -1.000000000
f 397/397/397 398/398/398 399/399/399
v -215.00000000 82.50000000 330.00000000
v 95.00000000 62.50000000 330.00000000
v 75.00000000 82.50000000 330.00000000
vt 0.00000000 0.00000000
vt 3.10644491 0.00000000
vt 2.89398340 0.18670861
vn -0.000000000 0.000000000 1.000000000
vn -0.000000000 0.000000000 1.000000000
vn -0.000000000 0.000000000 1.000000000
f 400/400/400 401/401/401 402/402/402
v -215.00000000 82.50000000 312.00000000
v 95.00000000 62.50000000 312.00000000
v 95.00000000 -62.50000000 312.00000000
vt 0.00000000 0.00000000
vt 3.10644491 0.00000000
vt 3.18692276 1.24740664
vn 0.000000000 0.000000000 -1.000000000
vn 0.000000000 0.000000000 -1.000000000
vn 0.000000000 0.000000000 -1.000000000
f 403/403/403 404/404/404 405/405/405
v -215.00000000 82.50000000 330.00000000
v 95.00000000 -62.50000000 330.00000000
v 95.00000000 62.50000000 330.00000000
vt 0.00000000 0.00000000
vt 3.42235299 0.00000000
vt 2.89274661 1.13226193
vn 0.000000000 0.000000000 1.000000000
vn 0.000000000 0.000000000 1.000000000
vn 0.000000000 0.000000000 1.000000000
f 406/406/406 407/407/407 408/408/408
v -215.00000000 82.50000000 312.00000000
v 95.00000000 -62.50000000 312.00000000
v 75.00000000 -82.50000000 312.00000000
vt 0.00000000 0.00000000
vt 3.42235299 0.00000000
vt 3.32592810 0.26589893
vn 0.000000000 0.000000000 -1.000000000
vn 0.000000000 0.000000000 -1.000000000
vn 0.000000000 0.000000000 -1.000000000
f 409/409/409 410/410/410 411/411/411
v -215.00000000 82.50000000 330.00000000
v 75.00000000 -82.50000000 330.00000000
v 95.00000000 -62.50000000 330.00000000
vt 0.00000000 0.00000000
vt 3.33654012 0.00000000
vt 3.41146804 0.27273762
vn 0.000000000 0.000000000 1.000000000
vn 0.000000000 0.000000000 1.000000000
vn 0.000000000 0.000000000 1.000000000
f 412/412/412 413/413/413 414/414/414
v -215.00000000 82.50000000 312.00000000
v 75.00000000 -82.50000000 312.00000000
v -215.00000000 -82.50000000 312.00000000
vt 0.00000000 0.00000000
vt 3.33654012 0.00000000
vt 0.81596501 1.43412032
vn 0.000000000 0.000000000 -1.000000000
vn 0.000000000 0.000000000 -1.000000000
vn 0.000000000 0.000000000 -1.000000000
f 415/415/415 416/416/416 417/417/417
v -215.00000000 82.50000000 330.00000000
v -215.00000000 -82.50000000 330.00000000
v 75.00000000 -82.50000000 330.00000000
vt 0.00000000 0.00000000
vt 1.65000000 0.00000000
vt 1.65000000 2.90000000
vn 0.000000000 0.000000000 1.000000000
vn 0.000000000 0.000000000 1.000000000
vn 0.000000000 0.000000000 1.000000000
f 418/418/418 419/419/419 420/420/420
v -215.00000000 82.50000000 312.00000000
v -215.00000000 -82.50000000 312.00000000
v -235.00000000 -62.50000000 312.00000000
vt 0.00000000 0.00000000
vt 1.65000000 0.00000000
vt 1.45000000 0.20000000
vn 0.000000000 -0.000000000 -1.000000000
vn 0.000000000 -0.000000000 -1.000000000
vn 0.000000000 -0.000000000 -1.000000000
f 421/421/421 422/422/422 423/423/423
v -215.00000000 82.50000000 330.00000000
v -235.00000000 -62.50000000 330.00000000
v -215.00000000 -82.50000000 330.00000000
vt 0.00000000 0.00000000
vt 1.46372812 0.00000000
vt 1.63452486 0.22545171
vn 0.000000000 0.000000000 1.000000000
vn 0.000000000 0.000000000 1.000000000
vn 0.000000000 0.000000000 1.000000000
f 424/424/424 425/425/425 426/426/426
v -215.00000000 82.50000000 312.00000000
v -235.00000000 -62.50000000 312.00000000
v -235.00000000 62.50000000 312.00000000
vt 0.00000000 0.00000000
vt 1.46372812 0.00000000
vt 0.22545171 0.17079675
vn 0.000000000 0.000000000 -1.000000000
vn 0.000000000 0.000000000 -1.000000000
vn 0.000000000 0.000000000 -1.000000000
f 427/427/427 428/428/428 429/429/429
v -215.00000000 82.50000000 330.00000000
v -235.00000000 62.50000000 330.00000000
v -235.00000000 -62.50000000 330.00000000
vt 0.00000000 0.00000000
vt 0.28284271 0.00000000
vt 1.16672619 0.88388348
vn 0.000000000 0.000000000 1.000000000
vn 0.000000000 0.000000000 1.000000000
vn 0.000000000 0.000000000 1.000000000
f 430/430/430 431/431/431 432/432/432
v -215.00000000 82.50000000 312.00000000
v 75.00000000 82.50000000 330.00000000
v 75.00000000 82.50000000 312.00000000
vt 0.00000000 0.00000000
vt 2.90558084 0.00000000
vt 2.89442988 0.17965427
vn 0.000000000 1.000000000 0.000000000
vn 0.000000000 1.000000000 0.000000000
vn 0.000000000 1.000000000 0.000000000
f 433/433/433 434/434/434 435/435/435
v -215.00000000 82.50000000 312.00000000
v -215.00000000 82.50000000 330.00000000
v 75.00000000 82.50000000 330.00000000
vt 0.00000000 0.00000000
vt 0.18000000 0.00000000
vt 0.18000000 2.90000000
vn 0.000000000 1.000000000 0.000000000
vn 0.000000000 1.000000000 0.000000000
vn 0.000000000 1.000000000 0.000000000
f 436/436/436 437/437/437 438/438/438
v 75.00000000 82.50000000 312.00000000
v 95.00000000 62.50000000 330.00000000
v 95.00000000 62.50000000 312.00000000
vt 0.00000000 0.00000000
vt 0.33526109 0.00000000
vt 0.23861999 0.15185683
vn 0.707106781 0.707106781 0.000000000
vn 0.707106781 0.707106781 0.000000000
vn 0.707106781 0.707106781 0.000000000
f 439/439/439 440/440/440 441/441/441
v 75.00000000 82.50000000 312.00000000
v 75.00000000 82.50000000 330.00000000
v 95.00000000 62.50000000 330.00000000
vt 0.00000000 0.00000000
vt 0.18000000 0.00000000
vt 0.18000000 0.28284271
vn 0.707106781 0.707106781 -0.000000000
vn 0.707106781 0.707106781 -0.000000000
vn 0.707106781 0.707106781 -0.000000000
f 442/442/442 443/443/443 444/444/444
v 95.00000000 62.50000000 312.00000000
v 95.00000000 -62.50000000 330.00000000
v 95.00000000 -62.50000000 312.00000000
vt 0.00000000 0.00000000
vt 1.26289350 0.00000000
vt 1.23723813 0.17816229
vn 1.000000000 0.000000000 0.000000000
vn 1.000000000 0.000000000 0.000000000
vn 1.000000000 0.000000000 0.000000000
f 445/445/445 446/446/446 447/447/447
v 95.00000000 62.50000000 312.00000000
v 95.00000000 62.50000000 330.00000000
v 95.00000000 -62.50000000 330.00000000
vt 0.00000000 0.00000000
vt 0.18000000 0.00000000
vt 0.18000000 1.25000000
vn 1.000000000 0.000000000 -0.000000000
vn 1.000000000 0.000000000 -0.000000000
vn 1.000000000 0.000000000 -0.000000000
f 448/448/448 449/449/449 450/450/450
v 95.00000000 -62.50000000 312.00000000
v 75.00000000 -82.50000000 330.00000000
v 75.00000000 -82.50000000 312.00000000
vt 0.00000000 0.00000000
vt 0.33526109 0.00000000
vt 0.23861999 0.15185683
vn 0.707106781 -0.707106781 0.000000000
vn 0.707106781 -0.707106781 0.000000000
vn 0.707106781 -0.707106781 0.000000000
f 451/451/451 452/452/452 453/453/453
v 95.00000000 -62.50000000 312.00000000
v 95.00000000 -62.50000000 330.00000000
v 75.00000000 -82.50000000 330.00000000
vt 0.00000000 0.00000000
vt 0.18000000 0.00000000
vt 0.18000000 0.28284271
vn 0.707106781 -0.707106781 0.000000000
vn 0.707106781 -0.707106781 0.000000000
vn 0.707106781 -0.707106781 0.000000000
f 454/454/454 455/455/455 456/456/456
v 75.00000000 -82.50000000 312.00000000
v -215.00000000 -82.50000000 330.00000000
v -215.00000000 -82.50000000 312.00000000
vt 0.00000000 0.00000000
vt 2.90558084 0.00000000
vt 2.89442988 0.17965427
vn 0.000000000 -1.000000000 0.000000000
vn 0.000000000 -1.000000000 0.000000000
vn 0.000000000 -1.000000000 0.000000000
f 457/457/457 458/458/458 459/459/459
v 75.00000000 -82.50000000 312.00000000
v 75.00000000 -82.50000000 330.00000000
v -215.00000000 -82.50000000 330.00000000
vt 0.00000000 0.00000000
vt 0.18000000 0.00000000
vt 0.18000000 2.90000000
vn 0.000000000 -1.000000000 0.000000000
vn 0.000000000 -1.000000000 0.000000000
vn 0.000000000 -1.000000000 0.000000000
f 460/460/460 461/461/461 462/462/462
v -215.00000000 -82.50000000 312.00000000
v -235.00000000 -62.50000000 330.00000000
v -235.00000000 -62.50000000 312.00000000
vt 0.00000000 0.00000000
vt 0.33526109 0.00000000
vt 0.23861999 0.15185683
vn -0.707106781 -0.707106781 0.000000000
vn -0.707106781 -0.707106781 0.000000000
vn -0.707106781 -0.707106781 0.000000000
f 463/463/463 464/464/464 465/465/465
v -215.00000000 -82.50000000 312.00000000
v -215.00000000 -82.50000000 330.00000000
v -235.00000000 -62.50000000 330.00000000
vt 0.00000000 0.00000000
vt 0.18000000 0.00000000
vt 0.18000000 0.28284271
vn -0.707106781 -0.707106781 0.000000000
vn -0.707106781 -0.707106781 0.000000000
vn -0.707106781 -0.707106781 0.000000000
f 466/466/466 467/467/467 468/468/468
v -235.00000000 -62.50000000 312.00000000
v -235.00000000 62.50000000 330.00000000
v -235.00000000 62.50000000 312.00000000
vt 0.00000000 0.00000000
vt 1.26289350 0.00000000
vt 1.23723813 0.17816229
vn -1.000000000 0.000000000 0.000000000
vn -1.000000000 0.000000000 0.000000000
vn -1.000000000 0.000000000 0.000000000
f 469/469/469 470/470/470 471/471/471
v -235.00000000 -62.50000000 312.00000000
v -235.00000000 -62.50000000 330.00000000
v -235.00000000 62.50000000 330.00000000
vt 0.00000000 0.00000000
vt 0.18000000 0.00000000
vt 0.18000000 1.25000000
vn -1.000000000 0.000000000 0.000000000
vn -1.000000000 0.000000000 0.000000000
vn -1.000000000 0.000000000 0.000000000
f 472/472/472 473/473/473 474/474/474
v -235.00000000 62.50000000 312.00000000
v -215.00000000 82.50000000 330.00000000
v -215.00000000 82.50000000 312.00000000
vt 0.00000000 0.00000000
vt 0.33526109 0.00000000
vt 0.23861999 0.15185683
vn -0.707106781 0.707106781 0.000000000
vn -0.707106781 0.707106781 0.000000000
vn -0.707106781 0.707106781 0.000000000
f 475/475/475 476/476/476 477/477/477
v -235.00000000 62.50000000 312.00000000
v -235.00000000 62.50000000 330.00000000
v -215.00000000 82.50000000 330.00000000
vt 0.00000000 0.00000000
vt 0.18000000 0.00000000
vt 0.18000000 0.28284271
vn -0.707106781 0.707106781 0.000000000
vn -0.707106781 0.707106781 0.000000000
vn -0.707106781 0.707106781 0.000000000
f 478/478/478 479/479/479 480/480/480
g EndLower_-1
s off
v -597.00000000 120.00000000 66.00000000
v -597.00000000 -120.00000000 66.00000000
v -597.00000000 -124.00000000 80.00000000
vt 0.00000000 0.00000000
vt 2.40000000 0.00000000
vt 2.44000000 0.14000000
vn -1.000000000 0.000000000 0.000000000
vn -1.000000000 0.000000000 0.000000000
vn -1.000000000 0.000000000 0.000000000
f 481/481/481 482/482/482 483/483/483
v -569.00000000 120.00000000 66.00000000
v -569.00000000 -124.00000000 80.00000000
v -569.00000000 -120.00000000 66.00000000
vt 0.00000000 0.00000000
vt 2.44401309 0.00000000
vt 2.39605918 0.13747881
vn 1.000000000 0.000000000 0.000000000
vn 1.000000000 0.000000000 0.000000000
vn 1.000000000 0.000000000 0.000000000
f 484/484/484 485/485/485 486/486/486
v -597.00000000 120.00000000 66.00000000
v -597.00000000 -124.00000000 80.00000000
v -597.00000000 -124.00000000 157.00000000
vt 0.00000000 0.00000000
vt 2.44401309 0.00000000
vt 2.48812088 0.76873565
vn -1.000000000 0.000000000 0.000000000
vn -1.000000000 0.000000000 0.000000000
vn -1.000000000 0.000000000 0.000000000
f 487/487/487 488/488/488 489/489/489
v -569.00000000 120.00000000 66.00000000
v -569.00000000 -124.00000000 157.00000000
v -569.00000000 -124.00000000 80.00000000
vt 0.00000000 0.00000000
vt 2.60416973 0.00000000
vt 2.33510125 0.72145835
vn 1.000000000 0.000000000 0.000000000
vn 1.000000000 0.000000000 0.000000000
vn 1.000000000 0.000000000 0.000000000
f 490/490/490 491/491/491 492/492/492
v -597.00000000 120.00000000 66.00000000
v -597.00000000 -124.00000000 157.00000000
v -597.00000000 124.00000000 157.00000000
vt 0.00000000 0.00000000
vt 2.60416973 0.00000000
vt 0.28051167 0.86661018
vn -1.000000000 0.000000000 0.000000000
vn -1.000000000 0.000000000 0.000000000
vn -1.000000000 0.000000000 0.000000000
f 493/493/493 494/494/494 495/495/495
v -569.00000000 120.00000000 66.00000000
v -569.00000000 124.00000000 157.00000000
v -569.00000000 -124.00000000 157.00000000
vt 0.00000000 0.00000000
vt 0.91087870 0.00000000
vt 0.80197287 2.47760762
vn 1.000000000 0.000000000 -0.000000000
vn 1.000000000 0.000000000 -0.000000000
vn 1.000000000 0.000000000 -0.000000000
f 496/496/496 497/497/497 498/498/498
v -597.00000000 120.00000000 66.00000000
v -597.00000000 124.00000000 157.00000000
v -597.00000000 124.00000000 80.00000000
vt 0.00000000 0.00000000
vt 0.91087870 0.00000000
vt 0.14162149 0.03381350
vn -1.000000000 0.000000000 0.000000000
vn -1.000000000 0.000000000 0.000000000
vn -1.000000000 0.000000000 0.000000000
f 499/499/499 500/500/500 501/501/501
v -569.00000000 120.00000000 66.00000000
v -569.00000000 124.00000000 80.00000000
v -569.00000000 124.00000000 157.00000000
vt 0.00000000 0.00000000
vt 0.14560220 0.00000000
vt 0.88597564 0.21153527
vn 1.000000000 0.000000000 0.000000000
vn 1.000000000 0.000000000 0.000000000
vn 1.000000000 0.000000000 0.000000000
f 502/502/502 503/503/503 504/504/504
v -597.00000000 120.00000000 66.00000000
v -569.00000000 -120.00000000 66.00000000
v -597.00000000 -120.00000000 66.00000000
vt 0.00000000 0.00000000
vt 2.41627813 0.00000000
vt 2.38383153 0.27811368
vn 0.000000000 0.000000000 -1.000000000
vn 0.000000000 0.000000000 -1.000000000
vn 0.000000000 0.000000000 -1.000000000
f 505/505/505 506/506/506 507/507/507
v -597.00000000 120.00000000 66.00000000
v -569.00000000 120.00000000 66.00000000
v -569.00000000 -120.00000000 66.00000000
vt 0.00000000 0.00000000
vt 0.28000000 0.00000000
vt 0.28000000 2.40000000
vn 0.000000000 0.000000000 -1.000000000
vn 0.000000000 0.000000000 -1.000000000
vn 0.000000000 0.000000000 -1.000000000
f 508/508/508 509/509/509 510/510/510
v -597.00000000 -120.00000000 66.00000000
v -569.00000000 -124.00000000 80.00000000
v -597.00000000 -124.00000000 80.00000000
vt 0.00000000 0.00000000
vt 0.31559468 0.00000000
vt 0.06717477 0.12918030
vn 0.000000000 -0.961523948 -0.274721128
vn 0.000000000 -0.961523948 -0.274721128
vn 0.000000000 -0.961523948 -0.274721128
f 511/511/511 512/512/512 513/513/513
v -597.00000000 -120.00000000 66.00000000
v -569.00000000 -120.00000000 66.00000000
v -569.00000000 -124.00000000 80.00000000
vt 0.00000000 0.00000000
vt 0.28000000 0.00000000
vt 0.28000000 0.14560220
vn 0.000000000 -0.961523948 -0.274721128
vn 0.000000000 -0.961523948 -0.274721128
vn 0.000000000 -0.961523948 -0.274721128
f 514/514/514 515/515/515 516/516/516
v -597.00000000 -124.00000000 80.00000000
v -569.00000000 -124.00000000 157.00000000
v -597.00000000 -124.00000000 157.00000000
vt 0.00000000 0.00000000
vt 0.81932899 0.00000000
vt 0.72364094 0.26314216
vn 0.000000000 -1.000000000 0.000000000
vn 0.000000000 -1.000000000 0.000000000
vn 0.000000000 -1.000000000 0.000000000
f 517/517/517 518/518/518 519/519/519
v -597.00000000 -124.00000000 80.00000000
v -569.00000000 -124.00000000 80.00000000
v -569.00000000 -124.00000000 157.00000000
vt 0.00000000 0.00000000
vt 0.28000000 0.00000000
vt 0.28000000 0.77000000
vn 0.000000000 -1.000000000 0.000000000
vn 0.000000000 -1.000000000 0.000000000
vn 0.000000000 -1.000000000 0.000000000
f 520/520/520 521/521/521 522/522/522
v -597.00000000 -124.00000000 157.00000000
v -569.00000000 124.00000000 157.00000000
v -597.00000000 124.00000000 157.00000000
vt 0.00000000 0.00000000
vt 2.49575640 0.00000000
vt 2.46434308 0.27823228
vn 0.000000000 0.000000000 1.000000000
vn 0.000000000 0.000000000 1.000000000
vn 0.000000000 0.000000000 1.000000000
f 523/523/523 524/524/524 525/525/525
v -597.00000000 -124.00000000 157.00000000
v -569.00000000 -124.00000000 157.00000000
v -569.00000000 124.00000000 157.00000000
vt 0.00000000 0.00000000
vt 0.28000000 0.00000000
vt 0.28000000 2.48000000
vn 0.000000000 0.000000000 1.000000000
vn 0.000000000 0.000000000 1.000000000
vn 0.000000000 0.000000000 1.000000000
f 526/526/526 527/527/527 528/528/528
v -597.00000000 124.00000000 157.00000000
v -569.00000000 124.00000000 80.00000000
v -597.00000000 124.00000000 80.00000000
vt 0.00000000 0.00000000
vt 0.81932899 0.00000000
vt 0.72364094 0.26314216
vn 0.000000000 1.000000000 0.000000000
vn 0.000000000 1.000000000 0.000000000
vn 0.000000000 1.000000000 0.000000000
f 529/529/529 530/530/530 531/531/531
v -597.00000000 124.00000000 157.00000000
v -569.00000000 124.00000000 157.00000000
v -569.00000000 124.00000000 80.00000000
vt 0.00000000 0.00000000
vt 0.28000000 0.00000000
vt 0.28000000 0.77000000
vn 0.000000000 1.000000000 0.000000000
vn 0.000000000 1.000000000 0.000000000
vn 0.000000000 1.000000000 0.000000000
f 532/532/532 533/533/533 534/534/534
v -597.00000000 124.00000000 80.00000000
v -569.00000000 120.00000000 66.00000000
v -597.00000000 120.00000000 66.00000000
vt 0.00000000 0.00000000
vt 0.31559468 0.00000000
vt 0.06717477 0.12918030
vn 0.000000000 0.961523948 -0.274721128
vn 0.000000000 0.961523948 -0.274721128
vn 0.000000000 0.961523948 -0.274721128
f 535/535/535 536/536/536 537/537/537
v -597.00000000 124.00000000 80.00000000
v -569.00000000 124.00000000 80.00000000
v -569.00000000 120.00000000 66.00000000
vt 0.00000000 0.00000000
vt 0.28000000 0.00000000
vt 0.28000000 0.14560220
vn 0.000000000 0.961523948 -0.274721128
vn 0.000000000 0.961523948 -0.274721128
vn 0.000000000 0.961523948 -0.274721128
f 538/538/538 539/539/539 540/540/540
g EndLower_1
s off
v 569.00000000 120.00000000 66.00000000
v 569.00000000 -120.00000000 66.00000000
v 569.00000000 -124.00000000 80.00000000
vt 0.00000000 0.00000000
vt 2.40000000 0.00000000
vt 2.44000000 0.14000000
vn -1.000000000 0.000000000 0.000000000
vn -1.000000000 0.000000000 0.000000000
vn -1.000000000 0.000000000 0.000000000
f 541/541/541 542/542/542 543/543/543
v 597.00000000 120.00000000 66.00000000
v 597.00000000 -124.00000000 80.00000000
v 597.00000000 -120.00000000 66.00000000
vt 0.00000000 0.00000000
vt 2.44401309 0.00000000
vt 2.39605918 0.13747881
vn 1.000000000 0.000000000 0.000000000
vn 1.000000000 0.000000000 0.000000000
vn 1.000000000 0.000000000 0.000000000
f 544/544/544 545/545/545 546/546/546
v 569.00000000 120.00000000 66.00000000
v 569.00000000 -124.00000000 80.00000000
v 569.00000000 -124.00000000 157.00000000
vt 0.00000000 0.00000000
vt 2.44401309 0.00000000
vt 2.48812088 0.76873565
vn -1.000000000 0.000000000 0.000000000
vn -1.000000000 0.000000000 0.000000000
vn -1.000000000 0.000000000 0.000000000
f 547/547/547 548/548/548 549/549/549
v 597.00000000 120.00000000 66.00000000
v 597.00000000 -124.00000000 157.00000000
v 597.00000000 -124.00000000 80.00000000
vt 0.00000000 0.00000000
vt 2.60416973 0.00000000
vt 2.33510125 0.72145835
vn 1.000000000 0.000000000 0.000000000
vn 1.000000000 0.000000000 0.000000000
vn 1.000000000 0.000000000 0.000000000
f 550/550/550 551/551/551 552/552/552
v 569.00000000 120.00000000 66.00000000
v 569.00000000 -124.00000000 157.00000000
v 569.00000000 124.00000000 157.00000000
vt 0.00000000 0.00000000
vt 2.60416973 0.00000000
vt 0.28051167 0.86661018
vn -1.000000000 0.000000000 0.000000000
vn -1.000000000 0.000000000 0.000000000
vn -1.000000000 0.000000000 0.000000000
f 553/553/553 554/554/554 555/555/555
v 597.00000000 120.00000000 66.00000000
v 597.00000000 124.00000000 157.00000000
v 597.00000000 -124.00000000 157.00000000
vt 0.00000000 0.00000000
vt 0.91087870 0.00000000
vt 0.80197287 2.47760762
vn 1.000000000 0.000000000 -0.000000000
vn 1.000000000 0.000000000 -0.000000000
vn 1.000000000 0.000000000 -0.000000000
f 556/556/556 557/557/557 558/558/558
v 569.00000000 120.00000000 66.00000000
v 569.00000000 124.00000000 157.00000000
v 569.00000000 124.00000000 80.00000000
vt 0.00000000 0.00000000
vt 0.91087870 0.00000000
vt 0.14162149 0.03381350
vn -1.000000000 0.000000000 0.000000000
vn -1.000000000 0.000000000 0.000000000
vn -1.000000000 0.000000000 0.000000000
f 559/559/559 560/560/560 561/561/561
v 597.00000000 120.00000000 66.00000000
v 597.00000000 124.00000000 80.00000000
v 597.00000000 124.00000000 157.00000000
vt 0.00000000 0.00000000
vt 0.14560220 0.00000000
vt 0.88597564 0.21153527
vn 1.000000000 0.000000000 0.000000000
vn 1.000000000 0.000000000 0.000000000
vn 1.000000000 0.000000000 0.000000000
f 562/562/562 563/563/563 564/564/564
v 569.00000000 120.00000000 66.00000000
v 597.00000000 -120.00000000 66.00000000
v 569.00000000 -120.00000000 66.00000000
vt 0.00000000 0.00000000
vt 2.41627813 0.00000000
vt 2.38383153 0.27811368
vn 0.000000000 0.000000000 -1.000000000
vn 0.000000000 0.000000000 -1.000000000
vn 0.000000000 0.000000000 -1.000000000
f 565/565/565 566/566/566 567/567/567
v 569.00000000 120.00000000 66.00000000
v 597.00000000 120.00000000 66.00000000
v 597.00000000 -120.00000000 66.00000000
vt 0.00000000 0.00000000
vt 0.28000000 0.00000000
vt 0.28000000 2.40000000
vn 0.000000000 0.000000000 -1.000000000
vn 0.000000000 0.000000000 -1.000000000
vn 0.000000000 0.000000000 -1.000000000
f 568/568/568 569/569/569 570/570/570
v 569.00000000 -120.00000000 66.00000000
v 597.00000000 -124.00000000 80.00000000
v 569.00000000 -124.00000000 80.00000000
vt 0.00000000 0.00000000
vt 0.31559468 0.00000000
vt 0.06717477 0.12918030
vn 0.000000000 -0.961523948 -0.274721128
vn 0.000000000 -0.961523948 -0.274721128
vn 0.000000000 -0.961523948 -0.274721128
f 571/571/571 572/572/572 573/573/573
v 569.00000000 -120.00000000 66.00000000
v 597.00000000 -120.00000000 66.00000000
v 597.00000000 -124.00000000 80.00000000
vt 0.00000000 0.00000000
vt 0.28000000 0.00000000
vt 0.28000000 0.14560220
vn 0.000000000 -0.961523948 -0.274721128
vn 0.000000000 -0.961523948 -0.274721128
vn 0.000000000 -0.961523948 -0.274721128
f 574/574/574 575/575/575 576/576/576
v 569.00000000 -124.00000000 80.00000000
v 597.00000000 -124.00000000 157.00000000
v 569.00000000 -124.00000000 157.00000000
vt 0.00000000 0.00000000
vt 0.81932899 0.00000000
vt 0.72364094 0.26314216
vn 0.000000000 -1.000000000 0.000000000
vn 0.000000000 -1.000000000 0.000000000
vn 0.000000000 -1.000000000 0.000000000
f 577/577/577 578/578/578 579/579/579
v 569.00000000 -124.00000000 80.00000000
v 597.00000000 -124.00000000 80.00000000
v 597.00000000 -124.00000000 157.00000000
vt 0.00000000 0.00000000
vt 0.28000000 0.00000000
vt 0.28000000 0.77000000
vn 0.000000000 -1.000000000 0.000000000
vn 0.000000000 -1.000000000 0.000000000
vn 0.000000000 -1.000000000 0.000000000
f 580/580/580 581/581/581 582/582/582
v 569.00000000 -124.00000000 157.00000000
v 597.00000000 124.00000000 157.00000000
v 569.00000000 124.00000000 157.00000000
vt 0.00000000 0.00000000
vt 2.49575640 0.00000000
vt 2.46434308 0.27823228
vn 0.000000000 0.000000000 1.000000000
vn 0.000000000 0.000000000 1.000000000
vn 0.000000000 0.000000000 1.000000000
f 583/583/583 584/584/584 585/585/585
v 569.00000000 -124.00000000 157.00000000
v 597.00000000 -124.00000000 157.00000000
v 597.00000000 124.00000000 157.00000000
vt 0.00000000 0.00000000
vt 0.28000000 0.00000000
vt 0.28000000 2.48000000
vn 0.000000000 0.000000000 1.000000000
vn 0.000000000 0.000000000 1.000000000
vn 0.000000000 0.000000000 1.000000000
f 586/586/586 587/587/587 588/588/588
v 569.00000000 124.00000000 157.00000000
v 597.00000000 124.00000000 80.00000000
v 569.00000000 124.00000000 80.00000000
vt 0.00000000 0.00000000
vt 0.81932899 0.00000000
vt 0.72364094 0.26314216
vn 0.000000000 1.000000000 0.000000000
vn 0.000000000 1.000000000 0.000000000
vn 0.000000000 1.000000000 0.000000000
f 589/589/589 590/590/590 591/591/591
v 569.00000000 124.00000000 157.00000000
v 597.00000000 124.00000000 157.00000000
v 597.00000000 124.00000000 80.00000000
vt 0.00000000 0.00000000
vt 0.28000000 0.00000000
vt 0.28000000 0.77000000
vn 0.000000000 1.000000000 0.000000000
vn 0.000000000 1.000000000 0.000000000
vn 0.000000000 1.000000000 0.000000000
f 592/592/592 593/593/593 594/594/594
v 569.00000000 124.00000000 80.00000000
v 597.00000000 120.00000000 66.00000000
v 569.00000000 120.00000000 66.00000000
vt 0.00000000 0.00000000
vt 0.31559468 0.00000000
vt 0.06717477 0.12918030
vn 0.000000000 0.961523948 -0.274721128
vn 0.000000000 0.961523948 -0.274721128
vn 0.000000000 0.961523948 -0.274721128
f 595/595/595 596/596/596 597/597/597
v 569.00000000 124.00000000 80.00000000
v 597.00000000 124.00000000 80.00000000
v 597.00000000 120.00000000 66.00000000
vt 0.00000000 0.00000000
vt 0.28000000 0.00000000
vt 0.28000000 0.14560220
vn 0.000000000 0.961523948 -0.274721128
vn 0.000000000 0.961523948 -0.274721128
vn 0.000000000 0.961523948 -0.274721128
f 598/598/598 599/599/599 600/600/600
