# Unreal legacy OBJ adapter: canonical vertices are UE cm; this file is written with Y reflected and triangle winding reversed. One object, no g groups, so the importer creates exactly one material slot.
# OldCityFoundationV2 foundations (plinth + stepped footing); generator 463404ba754c804f514fe655944ece4eb51a92e1273fec326ad5c2ebfbb18f24
# AUTHORED detail in the style of Old City stone foundations, not survey
o SM_OldCityFoundationV2_PrecinctMainOnly_P000_P002
s off
v 40116.49 -114836.70 -2828.77
v 40112.98 -114816.72 -2822.90
v 40112.98 -114816.72 -2797.90
v 40116.49 -114836.70 -2797.90
v 40122.99 -114827.44 -2797.90
v 40119.51 -114807.67 -2797.90
v 41404.78 -114449.43 -2822.90
v 41432.25 -114605.93 -2854.20
v 41432.25 -114605.93 -2797.90
v 41404.78 -114449.43 -2797.90
v 41395.82 -114444.62 -2797.90
v 41422.99 -114599.43 -2797.90
v 41201.52 -114646.40 -2862.29
v 41201.52 -114646.40 -2797.90
v 41195.02 -114639.41 -2797.90
v 40875.49 -114703.58 -2852.22
v 40875.49 -114703.58 -2797.90
v 40872.89 -114695.91 -2797.90
v 40646.75 -114743.70 -2845.16
v 40646.75 -114743.70 -2797.90
v 40646.89 -114735.55 -2797.90
v 41352.57 -116967.93 -3326.60
v 41354.86 -116993.06 -3331.63
v 41354.86 -116993.06 -3301.60
v 41352.57 -116967.93 -3301.60
v 41344.20 -116964.19 -3301.60
v 41346.45 -116988.96 -3301.60
v 41375.18 -117216.18 -3356.77
v 41375.18 -117216.18 -3301.60
v 41366.49 -117208.93 -3301.60
v 41107.43 -117240.49 -3381.11
v 41107.43 -117240.49 -3301.60
v 41101.76 -117232.97 -3301.60
v 40875.49 -117261.55 -3385.32
v 40875.49 -117261.55 -3301.60
v 40872.44 -117253.80 -3301.60
v 40682.16 -117279.11 -3365.64
v 40682.16 -117279.11 -3301.60
v 40681.30 -117271.15 -3301.60
v 40298.84 -117313.92 -3326.60
v 40298.84 -117313.92 -3301.60
v 40302.31 -117305.57 -3301.60
v 43465.63 -113899.79 -2716.58
v 43436.47 -113747.74 -2685.00
v 43436.47 -113747.74 -2660.00
v 43465.63 -113899.79 -2660.00
v 43471.99 -113890.44 -2660.00
v 43443.16 -113740.17 -2660.00
v 45186.10 -113456.81 -2685.00
v 45207.35 -113567.79 -2702.76
v 45207.35 -113567.79 -2660.00
v 45186.10 -113456.81 -2660.00
v 45176.99 -113451.75 -2660.00
v 45197.99 -113561.43 -2660.00
v 44679.51 -113668.41 -2718.86
v 44679.51 -113668.41 -2660.00
v 44674.91 -113661.14 -2660.00
v 44588.76 -113685.71 -2718.69
v 44588.76 -113685.71 -2660.00
v 44584.98 -113678.28 -2660.00
vt 387.3830 -7.0719
vt 387.3243 -7.0572
vt 387.3243 -6.9947
vt 387.3830 -6.9947
vt 387.3761 -6.9947
vt 387.3179 -6.9947
vt 389.6355 -7.0572
vt 390.0954 -7.1355
vt 390.0954 -6.9947
vt 389.6355 -6.9947
vt 389.6011 -6.9947
vt 390.0560 -6.9947
vt 389.6198 -7.1557
vt 389.6198 -6.9947
vt 389.5861 -6.9947
vt 388.9477 -7.1305
vt 388.9477 -6.9947
vt 388.9220 -6.9947
vt 388.4761 -7.1129
vt 388.4761 -6.9947
vt 388.4561 -6.9947
vt 395.8012 -8.3165
vt 395.8698 -8.3291
vt 395.8698 -8.2540
vt 395.8012 -8.2540
vt 395.7710 -8.2540
vt 395.8385 -8.2540
vt 396.4784 -8.3919
vt 396.4784 -8.2540
vt 396.4385 -8.2540
vt 395.8698 -8.4528
vt 395.8698 -8.2540
vt 395.8368 -8.2540
vt 395.3426 -8.4633
vt 395.3426 -8.2540
vt 395.3156 -8.2540
vt 394.9032 -8.4141
vt 394.9032 -8.2540
vt 394.8811 -8.2540
vt 394.0319 -8.3165
vt 394.0319 -8.2540
vt 394.0197 -8.2540
vt 393.4135 -6.7915
vt 392.9605 -6.7125
vt 392.9605 -6.6500
vt 393.4135 -6.6500
vt 393.4061 -6.6500
vt 392.9583 -6.6500
vt 396.6073 -6.7125
vt 396.9378 -6.7569
vt 396.9378 -6.6500
vt 396.6073 -6.6500
vt 396.5718 -6.6500
vt 396.8985 -6.6500
vt 395.8698 -6.7972
vt 395.8698 -6.6500
vt 395.8401 -6.6500
vt 395.6862 -6.7967
vt 395.6862 -6.6500
vt 395.6582 -6.6500
vn -0.9849 -0.1731 0.0000
vn 0.0000 -0.0000 1.0000
vn 0.9849 0.1729 0.0000
vn 0.1728 -0.9850 0.0000
vn 0.9959 0.0907 0.0000
vn 0.0904 -0.9959 0.0000
vn -0.9821 -0.1884 0.0000
vn 0.9822 0.1880 0.0000
vn 0.1872 -0.9823 0.0000
f 1/1/1 3/3/1 2/2/1
f 1/1/1 4/4/1 3/3/1
f 5/5/2 6/6/2 3/3/2
f 5/5/2 3/3/2 4/4/2
f 7/7/3 9/9/3 8/8/3
f 7/7/3 10/10/3 9/9/3
f 11/11/2 12/12/2 9/9/2
f 11/11/2 9/9/2 10/10/2
f 8/8/4 14/14/4 13/13/4
f 8/8/4 9/9/4 14/14/4
f 12/12/2 15/15/2 14/14/2
f 12/12/2 14/14/2 9/9/2
f 13/13/4 17/17/4 16/16/4
f 13/13/4 14/14/4 17/17/4
f 15/15/2 18/18/2 17/17/2
f 15/15/2 17/17/2 14/14/2
f 16/16/4 20/20/4 19/19/4
f 16/16/4 17/17/4 20/20/4
f 18/18/2 21/21/2 20/20/2
f 18/18/2 20/20/2 17/17/2
f 19/19/4 4/4/4 1/1/4
f 19/19/4 20/20/4 4/4/4
f 21/21/2 5/5/2 4/4/2
f 21/21/2 4/4/2 20/20/2
f 22/22/5 24/24/5 23/23/5
f 22/22/5 25/25/5 24/24/5
f 26/26/2 27/27/2 24/24/2
f 26/26/2 24/24/2 25/25/2
f 23/23/5 29/29/5 28/28/5
f 23/23/5 24/24/5 29/29/5
f 27/27/2 30/30/2 29/29/2
f 27/27/2 29/29/2 24/24/2
f 28/28/6 32/32/6 31/31/6
f 28/28/6 29/29/6 32/32/6
f 30/30/2 33/33/2 32/32/2
f 30/30/2 32/32/2 29/29/2
f 31/31/6 35/35/6 34/34/6
f 31/31/6 32/32/6 35/35/6
f 33/33/2 36/36/2 35/35/2
f 33/33/2 35/35/2 32/32/2
f 34/34/6 38/38/6 37/37/6
f 34/34/6 35/35/6 38/38/6
f 36/36/2 39/39/2 38/38/2
f 36/36/2 38/38/2 35/35/2
f 37/37/6 41/41/6 40/40/6
f 37/37/6 38/38/6 41/41/6
f 39/39/2 42/42/2 41/41/2
f 39/39/2 41/41/2 38/38/2
f 43/43/7 45/45/7 44/44/7
f 43/43/7 46/46/7 45/45/7
f 47/47/2 48/48/2 45/45/2
f 47/47/2 45/45/2 46/46/2
f 49/49/8 51/51/8 50/50/8
f 49/49/8 52/52/8 51/51/8
f 53/53/2 54/54/2 51/51/2
f 53/53/2 51/51/2 52/52/2
f 50/50/9 56/56/9 55/55/9
f 50/50/9 51/51/9 56/56/9
f 54/54/2 57/57/2 56/56/2
f 54/54/2 56/56/2 51/51/2
f 55/55/9 59/59/9 58/58/9
f 55/55/9 56/56/9 59/59/9
f 57/57/2 60/60/2 59/59/2
f 57/57/2 59/59/2 56/56/2
f 58/58/9 46/46/9 43/43/9
f 58/58/9 59/59/9 46/46/9
f 60/60/2 47/47/2 46/46/2
f 60/60/2 46/46/2 59/59/2
