# Unreal legacy OBJ adapter: canonical vertices are UE cm; this file is written with Y reflected and triangle winding reversed. One object, no g groups, so the importer creates exactly one material slot.
# OldCityFoundationV2 foundations (plinth + stepped footing); generator 463404ba754c804f514fe655944ece4eb51a92e1273fec326ad5c2ebfbb18f24
# AUTHORED detail in the style of Old City stone foundations, not survey
o SM_OldCityFoundationV2_Kept_N005_N001
s off
v -246474.85 33456.08 3627.60
v -246624.51 33535.39 3612.81
v -246624.51 33535.39 3652.60
v -246474.85 33456.08 3652.60
v -246475.33 33465.39 3652.60
v -246623.41 33543.86 3652.60
v -246874.77 33668.00 3608.11
v -246874.77 33668.00 3652.60
v -246871.02 33675.07 3652.60
v -247599.70 34052.38 3594.49
v -247599.70 34052.38 3652.60
v -247595.95 34059.45 3652.60
v -247660.27 34084.50 3597.05
v -247660.27 34084.50 3652.60
v -247656.52 34091.57 3652.60
v -248007.34 34268.25 3611.75
v -248007.34 34268.25 3652.60
v -247996.51 34271.57 3652.60
v -247902.02 34466.32 3627.60
v -247902.02 34466.32 3652.60
v -247892.28 34467.59 3652.60
v -246785.57 36528.35 3732.53
v -246641.01 36797.57 3743.30
v -246641.01 36797.57 3768.30
v -246785.57 36528.35 3768.30
v -246778.52 36524.57 3768.30
v -246636.59 36788.88 3768.30
v -246034.51 35503.92 3743.30
v -246108.61 35543.47 3734.41
v -246108.61 35543.47 3768.30
v -246034.51 35503.92 3768.30
v -246031.47 35511.36 3768.30
v -246104.99 35550.61 3768.30
v -246624.51 35818.89 3704.15
v -246624.51 35818.89 3768.30
v -246616.92 35823.91 3768.30
v -247044.84 36043.28 3713.13
v -247044.84 36043.28 3768.30
v -247034.01 36046.57 3768.30
v -243650.25 5409.18 4022.00
v -243636.43 5027.57 3992.02
v -243636.43 5027.57 4047.00
v -243650.25 5409.18 4047.00
v -243658.25 5409.01 4047.00
v -243644.62 5032.58 4047.00
v -243629.22 4828.35 3992.31
v -243629.22 4828.35 4047.00
v -243637.50 4836.07 4047.00
v -243915.30 4818.36 3980.87
v -243915.30 4818.36 4047.00
v -243922.00 4826.13 4047.00
v -244124.51 4811.05 3972.50
v -244124.51 4811.05 4047.00
v -244130.04 4818.86 4047.00
v -244348.88 4803.21 3972.50
v -244348.88 4803.21 4047.00
v -244353.16 4811.06 4047.00
v -244990.03 4780.80 4022.00
v -244990.03 4780.80 4047.00
v -244990.74 4788.78 4047.00
v -246135.19 41407.33 4241.60
v -246488.37 41636.36 4217.54
v -246488.37 41636.36 4266.60
v -246135.19 41407.33 4266.60
v -246134.71 41416.55 4266.60
v -246484.01 41643.07 4266.60
v -246624.51 41724.93 4208.29
v -246624.51 41724.93 4266.60
v -246617.61 41729.98 4266.60
v -246847.09 41869.73 4210.97
v -246847.09 41869.73 4266.60
v -246836.01 41872.07 4266.60
v -246659.00 42158.56 4241.60
v -246659.00 42158.56 4266.60
v -246649.82 42157.99 4266.60
v -242727.82 16848.82 3326.80
v -242737.84 16875.22 3324.69
v -242737.84 16875.22 3351.80
v -242727.82 16848.82 3351.80
v -242717.63 16844.50 3351.80
v -242727.52 16870.57 3351.80
v -241996.16 17155.92 3302.23
v -241996.16 17155.92 3351.80
v -241991.74 17149.04 3351.80
v -241796.34 17231.55 3296.18
v -241796.34 17231.55 3351.80
v -241793.51 17224.07 3351.80
v -241624.51 17296.57 3290.98
v -241624.51 17296.57 3351.80
v -241623.85 17288.27 3351.80
v -241456.94 17359.99 3312.72
v -241456.94 17359.99 3351.80
v -241458.40 17350.89 3351.80
v -241348.39 17401.07 3326.80
v -241348.39 17401.07 3351.80
v -241351.22 17391.45 3351.80
v -240556.62 38140.53 4392.40
v -240848.87 38303.21 4358.66
v -240848.87 38303.21 4417.40
v -240556.62 38140.53 4417.40
v -240558.59 38150.78 4417.40
v -240847.72 38311.73 4417.40
v -241106.41 38446.58 4360.99
v -241106.41 38446.58 4417.40
v -241102.52 38453.57 4417.40
v -241624.51 38734.79 4365.66
v -241624.51 38734.79 4417.40
v -241614.02 38738.11 4417.40
v -241655.40 38751.97 4365.93
v -241655.40 38751.97 4417.40
v -241644.51 38755.07 4417.40
v -241624.51 38807.29 4377.26
v -241624.51 38807.29 4417.40
v -241613.90 38809.89 4417.40
v -241583.20 38881.28 4392.40
v -241583.20 38881.28 4417.40
v -241572.96 38883.22 4417.40
v -238575.02 19451.49 3639.50
v -238582.99 19486.04 3637.48
v -238582.99 19486.04 3694.60
v -238575.02 19451.49 3694.60
v -238569.02 19461.07 3694.60
v -238576.92 19495.31 3694.60
v -238707.83 20027.57 3605.83
v -238707.83 20027.57 3694.60
v -238700.65 20032.04 3694.60
v -238785.90 20366.18 3613.13
v -238785.90 20366.18 3694.60
v -238778.03 20367.65 3694.60
v -238969.82 21163.97 3669.60
v -238969.82 21163.97 3694.60
v -238960.32 21158.36 3694.60
v -238150.18 19548.74 3669.60
v -238553.39 19456.44 3641.04
v -238553.39 19456.44 3694.60
v -238150.18 19548.74 3694.60
v -238150.22 19556.94 3694.60
v -238547.69 19465.95 3694.60
v -235826.66 26792.21 4277.50
v -235962.06 26865.11 4272.50
v -235962.06 26865.11 4302.50
v -235826.66 26792.21 4302.50
v -235822.87 26799.26 4302.50
v -235958.27 26872.16 4302.50
v -236607.31 27212.52 4248.67
v -236607.31 27212.52 4302.50
v -236603.52 27219.57 4302.50
v -236624.51 27221.78 4248.04
v -236624.51 27221.78 4302.50
v -236620.43 27228.67 4302.50
v -236823.31 27328.78 4240.69
v -236823.31 27328.78 4302.50
v -236815.84 27333.84 4302.50
v -237066.61 27459.73 4246.68
v -237066.61 27459.73 4302.50
v -237055.01 27462.57 4302.50
v -237020.55 27527.57 4256.66
v -237020.55 27527.57 4302.50
v -237009.93 27528.97 4302.50
v -236860.39 27763.44 4272.50
v -236860.39 27763.44 4302.50
v -236853.17 27759.83 4302.50
v -236809.84 27837.89 4277.50
v -236809.84 27837.89 4302.50
v -236803.70 27832.70 4302.50
v -233496.60 1175.57 5064.34
v -232976.51 1175.57 5064.34
v -232976.51 1175.57 5118.70
v -233496.60 1175.57 5118.70
v -233488.50 1167.57 5118.70
v -232983.39 1167.57 5118.70
v -232943.17 1175.57 5065.67
v -232943.17 1175.57 5118.70
v -232951.00 1167.57 5118.70
v -232919.42 27.57 5020.70
v -232919.42 27.57 5118.70
v -232927.41 27.12 5118.70
v -232900.74 -875.55 5093.70
v -232900.74 -875.55 5118.70
v -232908.86 -870.04 5118.70
v -233468.82 -1159.58 5093.70
v -233475.22 -621.73 5050.42
v -233475.22 -621.73 5118.70
v -233468.82 -1159.58 5118.70
v -233460.90 -1152.19 5118.70
v -233467.26 -617.88 5118.70
v -233482.94 27.57 4998.16
v -233482.94 27.57 5118.70
v -233474.94 27.14 5118.70
v -233490.49 661.60 5023.22
v -233490.49 661.60 5118.70
v -233482.43 656.99 5118.70
v -233496.78 13.93 4998.70
v -233496.94 27.57 4997.60
v -233496.94 27.57 5043.70
v -233496.78 13.93 5043.70
v -233482.77 13.34 5043.70
v -233482.93 26.82 5043.70
v -233497.27 55.33 4998.70
v -233497.27 55.33 5043.70
v -233483.26 54.26 5043.70
v -233482.77 13.34 4998.70
v -233483.26 54.26 4998.70
v -232959.17 1175.37 5065.03
v -232776.82 1179.88 5072.50
v -232776.82 1179.88 5120.00
v -232959.17 1175.37 5120.00
v -232951.00 1167.57 5120.00
v -232773.87 1171.95 5120.00
v -232397.12 1189.26 5088.06
v -232397.12 1189.26 5120.00
v -232405.01 1181.07 5120.00
v -232391.76 794.81 5072.50
v -232391.76 794.81 5120.00
v -232399.68 789.25 5120.00
v -232381.32 27.57 5042.23
v -232381.32 27.57 5120.00
v -232389.32 27.15 5120.00
v -232372.41 -627.63 5095.00
v -232372.41 -627.63 5120.00
v -232380.47 -623.66 5120.00
v -232916.25 -899.55 5095.00
v -232935.43 27.57 5020.06
v -232935.43 27.57 5120.00
v -232916.25 -899.55 5120.00
v -232908.37 -893.39 5120.00
v -232927.42 27.49 5120.00
v -232542.28 33657.04 4816.51
v -232511.92 33716.92 4827.30
v -232511.92 33716.92 4852.30
v -232542.28 33657.04 4852.30
v -232531.52 33660.57 4852.30
v -232501.53 33719.72 4852.30
v -230970.03 33125.13 4827.30
v -231076.49 32915.32 4797.61
v -231076.49 32915.32 4852.30
v -230970.03 33125.13 4852.30
v -230974.82 33133.35 4852.30
v -231080.01 32926.07 4852.30
v -231182.91 32969.17 4778.49
v -231182.91 32969.17 4852.30
v -231185.39 32979.39 4852.30
v -231624.51 33192.63 4778.91
v -231624.51 33192.63 4852.30
v -231622.70 33200.68 4852.30
v -231859.58 1199.22 5109.96
v -231851.27 254.32 5072.50
v -231851.27 254.32 5142.40
v -231859.58 1199.22 5142.40
v -231867.51 1191.07 5142.40
v -231859.26 252.49 5142.40
v -231849.28 27.57 5063.51
v -231849.28 27.57 5142.40
v -231857.28 27.25 5142.40
v -231847.32 -195.24 5081.41
v -231847.32 -195.24 5142.40
v -231855.33 -194.06 5142.40
v -231843.38 -643.11 5117.40
v -231843.38 -643.11 5142.40
v -231851.42 -638.95 5142.40
v -232384.52 -913.69 5117.40
v -232386.96 -734.87 5103.00
v -232386.96 -734.87 5142.40
v -232384.52 -913.69 5142.40
v -232376.61 -907.44 5142.40
v -232379.02 -729.83 5142.40
v -232397.32 27.57 5041.59
v -232397.32 27.57 5142.40
v -232389.32 27.50 5142.40
v -232407.98 811.03 5072.50
v -232407.98 811.03 5142.40
v -232399.91 805.71 5142.40
v -232413.12 1188.92 5087.41
v -232413.12 1188.92 5142.40
v -232405.01 1181.07 5142.40
v -231875.58 1198.92 5109.31
v -231624.51 1203.65 5119.54
v -231624.51 1203.65 5164.30
v -231875.58 1198.92 5164.30
v -231867.51 1191.07 5164.30
v -231622.36 1195.69 5164.30
v -231379.87 1208.27 5139.30
v -231379.87 1208.27 5164.30
v -231383.48 1200.20 5164.30
v -231193.49 835.51 5139.30
v -231189.91 462.17 5124.65
v -231189.91 462.17 5164.30
v -231193.49 835.51 5164.30
v -231201.43 829.86 5164.30
v -231197.88 459.00 5164.30
v -231185.75 27.57 5125.15
v -231185.75 27.57 5164.30
v -231193.75 27.29 5164.30
v -231184.08 -146.79 5139.30
v -231184.08 -146.79 5164.30
v -231192.09 -145.91 5164.30
v -231856.91 -923.63 5139.30
v -231863.18 -211.10 5082.05
v -231863.18 -211.10 5164.30
v -231856.91 -923.63 5164.30
v -231848.97 -917.60 5164.30
v -231855.19 -209.73 5164.30
v -231865.28 27.57 5062.87
v -231865.28 27.57 5164.30
v -231857.28 27.38 5164.30
v -231867.41 270.47 5072.50
v -231867.41 270.47 5164.30
v -231859.40 268.69 5164.30
v -230570.80 4024.36 5298.95
v -230597.06 5027.57 5295.80
v -230597.06 5027.57 5354.90
v -230570.80 4024.36 5354.90
v -230563.01 4032.57 5354.90
v -230589.08 5028.71 5354.90
v -230608.67 5471.30 5329.90
v -230608.67 5471.30 5354.90
v -230600.61 5469.31 5354.90
v -230312.85 4031.03 5329.90
v -230312.85 4031.03 5354.90
v -230307.54 4039.17 5354.90
v -230328.57 21266.86 4931.69
v -230336.81 21315.27 4930.04
v -230336.81 21315.27 4988.00
v -230328.57 21266.86 4988.00
v -230322.02 21276.07 4988.00
v -230330.18 21324.00 4988.00
v -230431.00 21868.54 4963.00
v -230431.00 21868.54 4988.00
v -230423.43 21871.74 4988.00
v -230172.01 21293.13 4963.00
v -230172.01 21293.13 4988.00
v -230168.29 21301.87 4988.00
v -231213.09 1211.39 5152.77
v -230837.98 1219.51 5183.10
v -230837.98 1219.51 5208.10
v -231213.09 1211.39 5208.10
v -231205.01 1203.57 5208.10
v -230838.98 1211.48 5208.10
v -231194.69 -710.20 5183.10
v -231197.67 -399.28 5157.87
v -231197.67 -399.28 5208.10
v -231194.69 -710.20 5208.10
v -231186.74 -705.41 5208.10
v -231189.69 -396.53 5208.10
v -231201.75 27.57 5123.23
v -231201.75 27.57 5208.10
v -231193.75 27.51 5208.10
v -231205.76 446.32 5122.75
v -231205.76 446.32 5208.10
v -231197.74 443.52 5208.10
v -229098.70 1203.48 5375.60
v -228840.35 1206.18 5406.60
v -228840.35 1206.18 5431.60
v -229098.70 1203.48 5431.60
v -229090.50 1195.57 5431.60
v -228838.64 1198.19 5431.60
v -228441.37 112.24 5406.60
v -228440.00 27.57 5399.88
v -228440.00 27.57 5431.60
v -228441.37 112.24 5431.60
v -228449.41 114.75 5431.60
v -228448.05 30.89 5431.60
v -228437.32 -137.74 5406.60
v -228437.32 -137.74 5431.60
v -228445.40 -132.82 5431.60
v -228747.91 -448.33 5406.60
v -228753.65 -448.43 5406.37
v -228753.65 -448.43 5431.60
v -228747.91 -448.33 5431.60
v -228748.40 -440.33 5431.60
v -228754.00 -440.43 5431.60
v -229057.80 -470.01 5395.07
v -229057.80 -470.01 5431.60
v -229050.00 -461.43 5431.60
v -229068.59 -28.35 5376.97
v -229068.59 -28.35 5431.60
v -229060.69 -24.13 5431.60
v -229069.96 27.57 5374.68
v -229069.96 27.57 5431.60
v -229062.05 31.24 5431.60
v -229071.26 80.82 5378.89
v -229071.26 80.82 5431.60
v -229063.34 83.97 5431.60
v -227908.60 368.36 5448.40
v -227906.41 27.57 5421.22
v -227906.41 27.57 5473.40
v -227908.60 368.36 5473.40
v -227916.60 368.52 5473.40
v -227914.43 31.06 5473.40
v -227903.47 -429.38 5439.62
v -227903.47 -429.38 5473.40
v -227911.52 -421.43 5473.40
v -228207.79 -431.43 5427.53
v -228207.79 -431.43 5473.40
v -228208.01 -423.43 5473.40
v -228448.37 -443.33 5418.38
v -228448.37 -443.33 5473.40
v -228440.50 -434.93 5473.40
v -228456.00 27.57 5399.24
v -228456.00 27.57 5473.40
v -228448.06 31.34 5473.40
v -228466.03 647.08 5448.40
v -228466.03 647.08 5473.40
v -228457.99 644.76 5473.40
v -227805.02 3413.18 5566.26
v -227809.41 3504.75 5569.40
v -227809.41 3504.75 5594.40
v -227805.02 3413.18 5594.40
v -227797.02 3413.57 5594.40
v -227801.39 3504.49 5594.40
v -227483.68 2093.98 5569.40
v -227741.13 2081.70 5538.51
v -227741.13 2081.70 5594.40
v -227483.68 2093.98 5594.40
v -227478.51 2102.24 5594.40
v -227733.52 2090.07 5594.40
v -227762.52 2527.57 5535.94
v -227762.52 2527.57 5594.40
v -227754.79 2533.26 5594.40
v -227784.99 6757.05 5664.44
v -227788.58 6812.10 5668.70
v -227788.58 6812.10 5693.70
v -227784.99 6757.05 5693.70
v -227777.00 6757.57 5693.70
v -227780.54 6811.75 5693.70
v -227489.51 6171.97 5668.70
v -227746.98 6155.57 5637.80
v -227746.98 6155.57 5693.70
v -227489.51 6171.97 5693.70
v -227484.52 6180.31 5693.70
v -227739.50 6164.07 5693.70
v -227761.81 6390.27 5636.02
v -227761.81 6390.27 5693.70
v -227754.14 6395.65 5693.70
v -226862.01 46100.97 5863.00
v -227746.42 46405.66 5827.62
v -227746.42 46405.66 5888.00
v -226862.01 46100.97 5888.00
v -226856.80 46107.64 5888.00
v -227737.79 46411.16 5888.00
v -228120.59 46534.57 5832.78
v -228120.59 46534.57 5888.00
v -228110.52 46539.57 5888.00
v -227871.91 47290.07 5863.00
v -227871.91 47290.07 5888.00
v -227864.05 47288.36 5888.00
v -227324.64 333.88 5469.00
v -227317.93 27.57 5444.76
v -227317.93 27.57 5494.00
v -227324.64 333.88 5494.00
v -227332.66 334.52 5494.00
v -227326.01 31.16 5494.00
v -227308.33 -410.26 5462.66
v -227308.33 -410.26 5494.00
v -227316.50 -402.43 5494.00
v -227531.77 -414.93 5453.91
v -227531.77 -414.93 5494.00
v -227532.01 -406.93 5494.00
v -227919.47 -429.74 5438.99
v -227919.47 -429.74 5494.00
v -227911.52 -421.43 5494.00
v -227922.41 27.57 5420.58
v -227922.41 27.57 5494.00
v -227914.44 31.29 5494.00
v -227926.31 634.72 5469.00
v -227926.31 634.72 5494.00
v -227918.30 632.34 5494.00
v -225445.68 48517.59 6006.41
v -225590.47 48561.62 5996.59
v -225590.47 48561.62 6048.40
v -225445.68 48517.59 6048.40
v -225451.00 48527.57 6048.40
v -225594.49 48571.20 6048.40
v -226624.51 48876.07 5980.38
v -226624.51 48876.07 6048.40
v -226619.20 48882.82 6048.40
v -227143.00 49033.74 5992.99
v -227143.00 49033.74 6048.40
v -227133.01 49039.07 6048.40
v -227027.00 49413.82 6023.40
v -227027.00 49413.82 6048.40
v -227019.40 49411.32 6048.40
v -225365.40 48781.83 6023.40
v -225368.52 48771.57 6022.74
v -225368.52 48771.57 6048.40
v -225365.40 48781.83 6048.40
v -225372.50 48785.98 6048.40
v -225375.55 48775.94 6048.40
v -226756.93 337.52 5492.00
v -226751.39 154.44 5477.58
v -226751.39 154.44 5517.00
v -226756.93 337.52 5517.00
v -226764.95 338.05 5517.00
v -226759.46 156.78 5517.00
v -226747.55 27.57 5467.58
v -226747.55 27.57 5517.00
v -226755.67 31.16 5517.00
v -226743.94 -91.86 5472.50
v -226743.94 -91.86 5517.00
v -226752.09 -87.09 5517.00
v -226734.78 -394.69 5484.98
v -226734.78 -394.69 5517.00
v -226743.02 -386.93 5517.00
v -226964.29 -401.43 5476.07
v -226964.29 -401.43 5517.00
v -226964.50 -393.43 5517.00
v -227055.85 -403.77 5472.50
v -227055.85 -403.77 5517.00
v -227054.03 -395.72 5517.00
v -227324.33 -410.64 5462.04
v -227324.33 -410.64 5517.00
v -227316.50 -402.43 5517.00
v -227333.93 27.57 5444.12
v -227333.93 27.57 5517.00
v -227326.02 31.39 5517.00
v -227347.20 632.66 5492.00
v -227347.20 632.66 5517.00
v -227339.15 630.43 5517.00
v -226414.11 -386.23 5514.30
v -226624.51 -391.80 5489.27
v -226624.51 -391.80 5539.30
v -226414.11 -386.23 5539.30
v -226414.11 -378.23 5539.30
v -226619.67 -383.67 5539.30
v -226750.78 -395.14 5484.36
v -226750.78 -395.14 5539.30
v -226743.02 -386.93 5539.30
v -226759.48 -107.40 5472.50
v -226759.48 -107.40 5539.30
v -226751.64 -102.09 5539.30
v -226763.56 27.57 5466.94
v -226763.56 27.57 5539.30
v -226755.68 31.51 5539.30
v -226767.90 170.95 5478.24
v -226767.90 170.95 5539.30
v -226759.97 173.44 5539.30
v -226781.74 628.68 5514.30
v -226781.74 628.68 5539.30
v -226773.67 626.56 5539.30
v -225165.76 31965.28 5489.20
v -225548.02 31920.19 5458.62
v -225548.02 31920.19 5514.20
v -225165.76 31965.28 5514.20
v -225161.68 31973.82 5514.20
v -225541.02 31929.07 5514.20
v -225619.94 32527.57 5452.87
v -225619.94 32527.57 5514.20
v -225612.51 32532.83 5514.20
v -225680.94 33042.74 5489.20
v -225680.94 33042.74 5514.20
v -225673.15 33044.94 5514.20
v -225480.48 3354.06 5764.02
v -225500.30 3651.79 5762.44
v -225500.30 3651.79 5819.60
v -225480.48 3354.06 5819.60
v -225473.02 3362.57 5819.60
v -225492.57 3656.21 5819.60
v -225518.24 3921.29 5772.50
v -225518.24 3921.29 5819.60
v -225510.27 3922.03 5819.60
v -225557.64 4513.19 5794.60
v -225557.64 4513.19 5819.60
v -225549.13 4505.82 5819.60
v -225098.26 3379.16 5794.60
v -225098.26 3379.16 5819.60
v -225093.98 3387.45 5819.60
v -225987.40 -591.08 5573.70
v -226005.35 -591.60 5571.57
v -226005.35 -591.60 5598.70
v -225987.40 -591.08 5598.70
v -225983.26 -582.96 5598.70
v -226000.85 -583.46 5598.70
v -226163.75 -596.16 5552.74
v -226163.75 -596.16 5598.70
v -226156.01 -587.93 5598.70
v -226169.14 -427.81 5545.36
v -226169.14 -427.81 5598.70
v -226161.21 -425.51 5598.70
v -226171.01 -369.18 5542.79
v -226171.01 -369.18 5598.70
v -226163.01 -368.93 5598.70
v -226182.63 27.57 5525.53
v -226182.63 27.57 5598.70
v -226174.57 25.80 5598.70
v -226195.20 456.89 5541.19
v -226195.20 456.89 5598.70
v -226187.08 452.94 5598.70
v -226207.45 875.50 5573.70
v -226207.45 875.50 5598.70
v -226199.27 869.44 5598.70
v -221408.58 16762.99 5998.80
v -221472.20 16796.10 5984.65
v -221472.20 16796.10 6023.80
v -221408.58 16762.99 6023.80
v -221398.62 16766.82 6023.80
v -221461.52 16799.57 6023.80
v -221279.33 17182.38 5969.15
v -221279.33 17182.38 6023.80
v -221269.97 17183.23 6023.80
v -221106.99 17527.57 5955.30
v -221106.99 17527.57 6023.80
v -221098.79 17526.07 6023.80
v -220953.67 17834.64 5967.55
v -220953.67 17834.64 6023.80
v -220946.51 17831.07 6023.80
v -220590.28 18561.80 5996.61
v -220590.28 18561.80 6023.80
v -220584.91 18554.65 6023.80
v -220535.37 18671.69 5998.80
v -220535.37 18671.69 6023.80
v -220530.26 18664.00 6023.80
v -221141.00 12703.21 6242.84
v -221093.60 13058.48 6236.21
v -221093.60 13058.48 6299.00
v -221141.00 12703.21 6299.00
v -221132.01 12710.07 6299.00
v -221085.02 13062.32 6299.00
v -220924.33 14327.38 6256.52
v -220924.33 14327.38 6299.00
v -220917.18 14320.45 6299.00
v -220891.89 14570.56 6260.42
v -220891.89 14570.56 6299.00
v -220885.01 14561.57 6299.00
v -220778.68 14555.40 6274.00
v -220778.68 14555.40 6299.00
v -220773.31 14546.61 6299.00
v -220952.59 12677.78 6274.00
v -220952.59 12677.78 6299.00
v -220946.15 12684.99 6299.00
v -218167.60 42886.05 6201.18
v -217996.79 43265.07 6231.50
v -217996.79 43265.07 6256.50
v -218167.60 42886.05 6256.50
v -218157.01 42890.07 6256.50
v -217989.46 43261.86 6256.50
v -216963.19 43265.07 6231.50
v -216624.51 43113.20 6219.35
v -216624.51 43113.20 6256.50
v -216963.19 43265.07 6256.50
v -216961.91 43255.72 6256.50
v -216624.31 43104.34 6256.50
v -216349.18 42989.73 6231.50
v -216349.18 42989.73 6256.50
v -216349.84 42981.26 6256.50
v -215887.01 41862.89 6231.50
v -216019.10 41922.15 6220.93
v -216019.10 41922.15 6256.50
v -215887.01 41862.89 6256.50
v -215883.67 41870.16 6256.50
v -216015.33 41929.23 6256.50
v -216624.51 42193.76 6172.50
v -216624.51 42193.76 6256.50
v -216618.83 42199.98 6256.50
v -216854.94 42297.14 6172.50
v -216854.94 42297.14 6256.50
v -216848.52 42303.03 6256.50
v -217368.55 42527.57 6172.50
v -217368.55 42527.57 6256.50
v -217360.50 42532.72 6256.50
v -218253.62 40389.10 6172.50
v -217856.49 41259.54 6172.50
v -217856.49 41259.54 6227.50
v -218253.62 40389.10 6227.50
v -218243.02 40393.07 6227.50
v -217850.62 41253.13 6227.50
v -217826.24 41325.84 6172.50
v -217826.24 41325.84 6227.50
v -217820.74 41318.63 6227.50
v -217696.98 41609.15 6172.50
v -217696.98 41609.15 6227.50
v -217693.02 41598.57 6227.50
v -217591.03 41561.06 6172.50
v -217591.03 41561.06 6227.50
v -217587.77 41550.79 6227.50
v -216624.51 41122.35 6172.50
v -216624.51 41122.35 6227.50
v -216627.73 41115.02 6227.50
v -216610.20 41115.85 6173.65
v -216610.20 41115.85 6227.50
v -216613.50 41108.57 6227.50
v -216249.51 40952.10 6202.50
v -216249.51 40952.10 6227.50
v -216252.82 40944.82 6227.50
v -216626.25 39649.96 6202.50
v -216884.72 39767.36 6162.09
v -216884.72 39767.36 6227.50
v -216626.25 39649.96 6227.50
v -216620.54 39656.16 6227.50
v -216878.23 39773.20 6227.50
v -217457.63 40027.57 6172.50
v -217457.63 40027.57 6227.50
v -217449.42 40032.62 6227.50
v -217193.09 43851.93 6278.45
v -217069.29 44232.57 6308.90
v -217069.29 44232.57 6333.90
v -217193.09 43851.93 6333.90
v -217183.01 43857.07 6333.90
v -217060.79 44232.84 6333.90
v -215788.16 43396.22 6308.90
v -216624.51 43667.50 6263.69
v -216624.51 43667.50 6333.90
v -215788.16 43396.22 6333.90
v -215783.49 43403.11 6333.90
v -216616.62 43673.35 6333.90
v -215127.70 16180.44 6532.37
v -215174.07 16478.02 6530.52
v -215174.07 16478.02 6587.60
v -215127.70 16180.44 6587.60
v -215121.02 16189.57 6587.60
v -215166.94 16484.24 6587.60
v -215299.03 17280.07 6562.60
v -215299.03 17280.07 6587.60
v -215290.69 17278.47 6587.60
v -214372.01 16297.23 6562.60
v -214372.01 16297.23 6587.60
v -214369.13 16305.77 6587.60
v -214659.65 29665.86 6394.50
v -214502.38 30027.57 6357.39
v -214502.38 30027.57 6419.50
v -214659.65 29665.86 6419.50
v -214651.95 29663.50 6419.50
v -214496.36 30021.33 6419.50
v -214387.87 30290.92 6361.97
v -214387.87 30290.92 6419.50
v -214383.09 30281.86 6419.50
v -214328.66 30427.09 6364.33
v -214328.66 30427.09 6419.50
v -214324.51 30416.57 6419.50
v -214124.51 30338.42 6372.50
v -214124.51 30338.42 6419.50
v -214122.65 30328.89 6419.50
v -213907.80 30244.28 6372.50
v -213907.80 30244.28 6419.50
v -213908.37 30235.81 6419.50
v -213408.87 30027.57 6372.50
v -213408.87 30027.57 6419.50
v -213415.03 30021.52 6419.50
v -213018.99 29858.22 6392.82
v -213018.99 29858.22 6419.50
v -213029.52 29854.07 6419.50
v -213025.07 29844.23 6394.50
v -213025.07 29844.23 6419.50
v -213035.53 29840.23 6419.50
v -205407.79 12490.84 6425.30
v -205247.25 12527.57 6417.41
v -205247.25 12527.57 6450.30
v -205407.79 12490.84 6450.30
v -205408.58 12482.46 6450.30
v -205249.20 12518.91 6450.30
v -204689.50 12655.15 6395.10
v -204689.50 12655.15 6450.30
v -204695.51 12645.57 6450.30
v -204660.27 12527.57 6393.93
v -204660.27 12527.57 6450.30
v -204666.60 12519.37 6450.30
v -204560.42 12091.66 6407.37
v -204560.42 12091.66 6450.30
v -204567.83 12088.19 6450.30
v -204524.73 11935.85 6419.84
v -204524.73 11935.85 6450.30
v -204532.52 11934.07 6450.30
v -204509.06 11867.57 6425.30
v -204509.06 11867.57 6450.30
v -204517.05 11866.62 6450.30
v -208549.51 32841.43 6441.50
v -208775.95 32876.14 6414.33
v -208775.95 32876.14 6466.50
v -208549.51 32841.43 6466.50
v -208548.49 32849.37 6466.50
v -208773.24 32883.82 6466.50
v -209124.51 32929.57 6404.66
v -209124.51 32929.57 6466.50
v -209119.22 32936.85 6466.50
v -209599.29 33002.34 6410.48
v -209599.29 33002.34 6466.50
v -209590.46 33009.08 6466.50
v -209638.64 33008.37 6410.96
v -209638.64 33008.37 6466.50
v -209629.52 33015.07 6466.50
v -209634.21 33037.27 6413.28
v -209634.21 33037.27 6466.50
v -209625.16 33043.51 6466.50
v -209580.17 33390.07 6441.50
v -209580.17 33390.07 6466.50
v -209571.98 33390.74 6466.50
v -207597.68 34100.40 6559.40
v -207614.02 34038.06 6553.76
v -207614.02 34038.06 6584.40
v -207597.68 34100.40 6584.40
v -207603.72 34108.93 6584.40
v -207619.80 34047.55 6584.40
v -207618.80 34019.80 6553.19
v -207618.80 34019.80 6584.40
v -207624.51 34029.57 6584.40
v -207629.48 34022.60 6551.90
v -207629.48 34022.60 6584.40
v -207635.10 34032.34 6584.40
v -208293.18 34196.23 6539.25
v -208293.18 34196.23 6584.40
v -208292.99 34204.45 6584.40
v -209124.51 34413.72 6523.39
v -209124.51 34413.72 6584.40
v -209117.06 34420.04 6584.40
v -209388.77 34482.85 6528.92
v -209388.77 34482.85 6584.40
v -209379.00 34488.57 6584.40
v -209289.03 34863.05 6559.34
v -209289.03 34863.05 6584.40
v -209280.63 34863.54 6584.40
v -209288.83 34863.82 6559.40
v -209288.83 34863.82 6584.40
v -209280.43 34864.30 6584.40
v -208867.74 36443.13 6629.12
v -208816.06 36637.57 6636.90
v -208816.06 36637.57 6661.90
v -208867.74 36443.13 6661.90
v -208860.01 36441.07 6661.90
v -208809.19 36632.29 6661.90
v -207718.89 36637.57 6636.90
v -207557.42 36594.67 6635.18
v -207557.42 36594.67 6661.90
v -207718.89 36637.57 6661.90
v -207721.87 36630.08 6661.90
v -207561.76 36587.54 6661.90
v -207514.51 36583.27 6636.90
v -207514.51 36583.27 6661.90
v -207519.22 36576.24 6661.90
v -207514.51 35481.21 6636.90
v -208428.13 35723.95 6600.36
v -208428.13 35723.95 6661.90
v -207514.51 35481.21 6661.90
v -207517.42 35490.26 6661.90
v -208423.31 35730.95 6661.90
v -209018.82 35880.90 6606.63
v -209018.82 35880.90 6661.90
v -209009.01 35886.57 6661.90
v -201659.73 1022.35 6313.70
v -201624.51 957.46 6309.70
v -201624.51 957.46 6338.70
v -201659.73 1022.35 6338.70
v -201663.48 1012.49 6338.70
v -201628.08 947.25 6338.70
v -201561.80 841.91 6305.07
v -201561.80 841.91 6338.70
v -201565.02 831.07 6338.70
v -201163.84 1057.57 6313.70
v -201163.84 1057.57 6338.70
v -201167.05 1046.72 6338.70
v -200057.39 1057.57 6313.70
v -199942.18 845.24 6305.21
v -199942.18 845.24 6338.70
v -200057.39 1057.57 6338.70
v -200063.52 1052.08 6338.70
v -199949.64 842.20 6338.70
v -199648.16 303.34 6283.53
v -199648.16 303.34 6338.70
v -199659.01 306.57 6338.70
v -200158.29 27.57 6272.50
v -200158.29 27.57 6338.70
v -200169.14 30.79 6338.70
v -200910.65 -379.16 6288.77
v -200910.65 -379.16 6338.70
v -200921.51 -375.93 6338.70
v -200572.13 -1002.43 6313.70
v -200572.13 -1002.43 6338.70
v -200580.92 -1003.02 6338.70
v -201777.43 -1002.43 6313.70
v -202086.07 -433.99 6290.96
v -202086.07 -433.99 6338.70
v -201777.43 -1002.43 6338.70
v -201770.15 -999.09 6338.70
v -202079.74 -428.88 6338.70
v -202336.67 27.57 6300.99
v -202336.67 27.57 6338.70
v -202331.12 34.10 6338.70
v -202448.52 233.56 6313.70
v -202448.52 233.56 6338.70
v -202443.31 240.74 6338.70
v -208267.35 38078.74 6672.50
v -208184.26 38467.82 6672.50
v -208184.26 38467.82 6727.50
v -208267.35 38078.74 6727.50
v -208259.52 38077.07 6727.50
v -208177.44 38461.42 6727.50
v -208130.18 38721.05 6672.50
v -208130.18 38721.05 6727.50
v -208124.02 38711.57 6727.50
v -207965.86 38686.22 6672.50
v -207965.86 38686.22 6727.50
v -207960.95 38677.00 6727.50
v -207734.02 38637.08 6672.50
v -207734.02 38637.08 6727.50
v -207730.86 38628.23 6727.50
v -206624.51 38401.89 6672.50
v -206624.51 38401.89 6727.50
v -206629.74 38394.82 6727.50
v -206060.02 38282.23 6695.08
v -206060.02 38282.23 6727.50
v -206069.51 38276.07 6727.50
v -206111.26 38040.83 6693.03
v -206111.26 38040.83 6727.50
v -206120.05 38037.92 6727.50
v -206220.18 37527.57 6688.67
v -206220.18 37527.57 6727.50
v -206227.51 37531.58 6727.50
v -206290.97 37194.02 6685.84
v -206290.97 37194.02 6727.50
v -206297.34 37202.53 6727.50
v -206306.34 37121.58 6685.23
v -206306.34 37121.58 6727.50
v -206312.50 37131.07 6727.50
v -206624.51 37189.07 6672.50
v -206624.51 37189.07 6727.50
v -206628.28 37198.05 6727.50
v -206903.78 37248.31 6661.33
v -206903.78 37248.31 6727.50
v -206905.43 37256.83 6727.50
v -208220.35 37527.57 6672.50
v -208220.35 37527.57 6727.50
v -208212.05 37533.98 6727.50
v -208377.51 37560.90 6672.50
v -208377.51 37560.90 6727.50
v -208368.02 37567.07 6727.50
v -208164.23 17240.90 6738.10
v -208656.52 17059.57 6716.34
v -208656.52 17059.57 6763.10
v -208164.23 17240.90 6763.10
v -208171.44 17246.77 6763.10
v -208659.79 17066.90 6763.10
v -208865.43 16982.63 6707.11
v -208865.43 16982.63 6763.10
v -208867.02 16990.57 6763.10
v -209124.51 16971.80 6705.81
v -209124.51 16971.80 6763.10
v -209124.19 16979.82 6763.10
v -209704.51 16947.57 6726.10
v -209704.51 16947.57 6763.10
v -209699.92 16955.77 6763.10
v -209962.50 16936.79 6725.24
v -209962.50 16936.79 6763.10
v -209956.01 16945.07 6763.10
v -209994.89 17097.57 6738.10
v -209994.89 17097.57 6763.10
v -209987.91 17103.42 6763.10
v -205091.17 32388.03 6739.42
v -204997.45 32527.57 6737.58
v -204997.45 32527.57 6794.90
v -205091.17 32388.03 6794.90
v -205084.52 32383.57 6794.90
v -204992.09 32521.21 6794.90
v -204790.57 32835.61 6745.86
v -204790.57 32835.61 6794.90
v -204788.01 32825.07 6794.90
v -204232.04 32527.57 6768.20
v -204232.04 32527.57 6794.90
v -204234.81 32519.96 6794.90
v -204204.63 32512.45 6769.90
v -204204.63 32512.45 6794.90
v -204207.66 32504.98 6794.90
v -205489.21 31227.87 6769.90
v -205716.30 31458.10 6751.61
v -205716.30 31458.10 6794.90
v -205489.21 31227.87 6794.90
v -205483.84 31233.82 6794.90
v -205706.01 31459.07 6794.90
v -205651.48 31554.53 6750.34
v -205651.48 31554.53 6794.90
v -205641.57 31554.93 6794.90
v -205241.40 23576.57 7114.46
v -205222.12 23625.17 7116.40
v -205222.12 23625.17 7156.90
v -205241.40 23576.57 7156.90
v -205231.01 23581.07 7156.90
v -205211.94 23629.13 7156.90
v -205068.38 24012.57 7131.90
v -205068.38 24012.57 7156.90
v -205059.91 24012.23 7156.90
v -203338.40 23270.07 7131.90
v -203491.02 22884.69 7101.07
v -203491.02 22884.69 7156.90
v -203338.40 23270.07 7156.90
v -203345.75 23273.24 7156.90
v -203495.51 22895.07 7156.90
v -203689.10 22962.99 7107.33
v -203689.10 22962.99 7156.90
v -203691.91 22972.70 7156.90
v -204124.51 23135.10 7096.80
v -204124.51 23135.10 7156.90
v -204123.62 23143.34 7156.90
v -205129.15 23532.20 7112.69
v -205129.15 23532.20 7156.90
v -205119.71 23537.07 7156.90
v -202972.81 43667.87 6726.89
v -202966.01 43686.07 6726.16
v -202966.01 43686.07 6769.00
v -202972.81 43667.87 6769.00
v -202962.51 43672.57 6769.00
v -202955.84 43690.44 6769.00
v -202916.25 43819.30 6724.17
v -202916.25 43819.30 6769.00
v -202906.99 43821.23 6769.00
v -202666.71 44487.36 6714.19
v -202666.71 44487.36 6769.00
v -202662.01 44477.07 6769.00
v -202301.21 44350.87 6699.57
v -202301.21 44350.87 6769.00
v -202298.29 44341.24 6769.00
v -201624.51 44098.16 6709.68
v -201624.51 44098.16 6769.00
v -201624.86 44089.75 6769.00
v -200480.97 43671.12 6681.02
v -200480.97 43671.12 6769.00
v -200486.84 43664.77 6769.00
v -200141.17 43544.22 6709.84
v -200141.17 43544.22 6769.00
v -200148.69 43538.49 6769.00
v -199738.34 43393.79 6744.00
v -199738.34 43393.79 6769.00
v -199747.81 43388.79 6769.00
v -201058.84 42953.62 6744.00
v -201160.52 42991.57 6735.38
v -201160.52 42991.57 6769.00
v -201058.84 42953.62 6769.00
v -201057.80 42961.77 6769.00
v -201158.98 42999.53 6769.00
v -201504.31 43119.86 6744.00
v -201504.31 43119.86 6769.00
v -201501.11 43127.21 6769.00
v -201826.43 43240.07 6744.00
v -202640.99 43544.04 6731.84
v -202640.99 43544.04 6769.00
v -201826.43 43240.07 6769.00
v -201821.67 43246.83 6769.00
v -202632.30 43549.34 6769.00
vt -699.8273 9.0690
vt -700.3998 9.0320
vt -700.3998 9.1315
vt -699.8273 9.1315
vt -699.8518 9.1315
vt -700.4182 9.1315
vt -701.3569 9.0203
vt -701.3569 9.1315
vt -701.3652 9.1315
vt -704.1302 8.9862
vt -704.1302 9.1315
vt -704.1385 9.1315
vt -704.3619 8.9926
vt -704.3619 9.1315
vt -704.3702 9.1315
vt -705.6890 9.0294
vt -705.6890 9.1315
vt -705.6702 9.1315
vt -705.9208 9.0690
vt -705.9208 9.1315
vt -705.8997 9.1315
vt -708.2848 9.3313
vt -708.5965 9.3582
vt -708.5965 9.4207
vt -708.2848 9.4207
vt -708.2577 9.4207
vt -708.5637 9.4207
vt -703.8461 9.3582
vt -704.1302 9.3360
vt -704.1302 9.4207
vt -703.8461 9.4207
vt -703.8571 9.4207
vt -704.1390 9.4207
vt -706.1085 9.2604
vt -706.1085 9.4207
vt -706.1021 9.4207
vt -707.7203 9.2828
vt -707.7203 9.4207
vt -707.7015 9.4207
vt -622.6486 10.0550
vt -621.6600 9.9801
vt -621.6600 10.1175
vt -622.6486 10.1175
vt -622.6681 10.1175
vt -621.6930 10.1175
vt -621.1439 9.9808
vt -621.1439 10.1175
vt -621.1839 10.1175
vt -621.8341 9.9522
vt -621.8341 10.1175
vt -621.8703 10.1175
vt -622.3389 9.9313
vt -622.3389 10.1175
vt -622.3723 10.1175
vt -622.8802 9.9313
vt -622.8802 10.1175
vt -622.9106 10.1175
vt -624.4271 10.0550
vt -624.4271 10.1175
vt -624.4488 10.1175
vt -718.8563 10.6040
vt -720.3118 10.5438
vt -720.3118 10.6665
vt -718.8563 10.6665
vt -718.8782 10.6665
vt -720.3177 10.6665
vt -720.8736 10.5207
vt -720.8736 10.6665
vt -720.8690 10.6665
vt -721.7921 10.5274
vt -721.7921 10.6665
vt -721.7702 10.6665
vt -722.0439 10.6040
vt -722.0439 10.6665
vt -722.0195 10.6665
vt -648.9416 8.3170
vt -649.0326 8.3117
vt -649.0326 8.3795
vt -648.9416 8.3795
vt -648.9053 8.3795
vt -648.9952 8.3795
vt -647.8802 8.2556
vt -647.8802 8.3795
vt -647.8519 8.3795
vt -647.5697 8.2404
vt -647.5697 8.3795
vt -647.5439 8.3795
vt -647.3027 8.2274
vt -647.3027 8.3795
vt -647.2803 8.3795
vt -647.0423 8.2818
vt -647.0423 8.3795
vt -647.0232 8.3795
vt -646.8736 8.3170
vt -646.8736 8.3795
vt -646.8567 8.3795
vt -696.7429 10.9810
vt -697.8802 10.8966
vt -697.8802 11.0435
vt -696.7429 11.0435
vt -696.7734 11.0435
vt -697.8986 11.0435
vt -698.8825 10.9025
vt -698.8825 11.0435
vt -698.8902 11.0435
vt -700.8982 10.9141
vt -700.8982 11.0435
vt -700.8803 11.0435
vt -701.0184 10.9148
vt -701.0184 11.0435
vt -700.9990 11.0435
vt -701.0795 10.9432
vt -701.0795 11.0435
vt -701.0595 11.0435
vt -701.1612 10.9810
vt -701.1612 11.0435
vt -701.1404 11.0435
vt -645.0663 9.0988
vt -645.1726 9.0937
vt -645.1726 9.2365
vt -645.0663 9.2365
vt -645.0752 9.2365
vt -645.1806 9.2365
vt -646.8385 9.0146
vt -646.8385 9.2365
vt -646.8317 9.2365
vt -647.8802 9.0328
vt -647.8802 9.2365
vt -647.8642 9.2365
vt -650.3345 9.1740
vt -650.3345 9.2365
vt -650.2967 9.2365
vt -644.2473 9.1740
vt -645.0246 9.1026
vt -645.0246 9.2365
vt -644.2473 9.2365
vt -644.2679 9.2365
vt -645.0341 9.2365
vt -656.5472 10.6937
vt -657.0679 10.6813
vt -657.0679 10.7562
vt -656.5472 10.7562
vt -656.5553 10.7562
vt -657.0761 10.7562
vt -659.5496 10.6217
vt -659.5496 10.7562
vt -659.5577 10.7562
vt -659.6157 10.6201
vt -659.6157 10.7562
vt -659.6227 10.7562
vt -660.3802 10.6017
vt -660.3802 10.7562
vt -660.3742 10.7562
vt -661.3158 10.6167
vt -661.3158 10.7562
vt -661.2939 10.7562
vt -661.3703 10.6417
vt -661.3703 10.7562
vt -661.3473 10.7562
vt -661.5596 10.6813
vt -661.5596 10.7562
vt -661.5325 10.7562
vt -661.6193 10.6937
vt -661.6193 10.7562
vt -661.5910 10.7562
vt -586.6804 12.6608
vt -585.3802 12.6608
vt -585.3802 12.7967
vt -586.6804 12.7967
vt -586.6402 12.7967
vt -585.3774 12.7967
vt -585.2969 12.6642
vt -585.2969 12.7967
vt -585.2964 12.7967
vt -582.3675 12.5518
vt -582.3675 12.7967
vt -582.3863 12.7967
vt -580.0630 12.7342
vt -580.0630 12.7967
vt -580.0970 12.7967
vt -580.7731 12.7342
vt -582.1337 12.6260
vt -582.1337 12.7967
vt -580.7731 12.7967
vt -580.7718 12.7967
vt -582.1235 12.7967
vt -583.7763 12.4954
vt -583.7763 12.7967
vt -583.7552 12.7967
vt -585.3802 12.5581
vt -585.3802 12.7967
vt -585.3485 12.7967
vt -583.7768 12.4967
vt -583.8113 12.4940
vt -583.8113 12.6092
vt -583.7768 12.6092
vt -583.7403 12.6092
vt -583.7744 12.6092
vt -583.8815 12.4967
vt -583.8815 12.6092
vt -583.8438 12.6092
vt -583.7403 12.4967
vt -583.8438 12.4967
vt -585.3364 12.6626
vt -584.8918 12.6813
vt -584.8918 12.8000
vt -585.3364 12.8000
vt -585.2964 12.8000
vt -584.8646 12.8000
vt -583.9660 12.7202
vt -583.9660 12.8000
vt -583.9652 12.8000
vt -582.9664 12.6813
vt -582.9664 12.8000
vt -582.9723 12.8000
vt -581.0222 12.6056
vt -581.0222 12.8000
vt -581.0412 12.8000
vt -579.3619 12.7375
vt -579.3619 12.8000
vt -579.3920 12.8000
vt -580.0417 12.7375
vt -582.4075 12.5502
vt -582.4075 12.8000
vt -580.0417 12.8000
vt -580.0374 12.8000
vt -582.3873 12.8000
vt -665.4983 12.0413
vt -665.5721 12.0683
vt -665.5721 12.1308
vt -665.4983 12.1308
vt -665.4802 12.1308
vt -665.5531 12.1308
vt -660.2379 12.0683
vt -659.9795 11.9940
vt -659.9795 12.1308
vt -660.2379 12.1308
vt -660.2704 12.1308
vt -660.0152 12.1308
vt -660.3802 11.9462
vt -660.3802 12.1308
vt -660.4120 12.1308
vt -662.0429 11.9473
vt -662.0429 12.1308
vt -662.0584 12.1308
vt -582.6470 12.7749
vt -580.2640 12.6813
vt -580.2640 12.8560
vt -582.6470 12.8560
vt -582.6465 12.8560
vt -580.2794 12.8560
vt -579.6921 12.6588
vt -579.6921 12.8560
vt -579.7113 12.8560
vt -579.1302 12.7035
vt -579.1302 12.8560
vt -579.1532 12.8560
vt -578.0007 12.7935
vt -578.0007 12.8560
vt -578.0312 12.8560
vt -578.6771 12.7935
vt -579.1302 12.7575
vt -579.1302 12.8560
vt -578.6771 12.8560
vt -578.6729 12.8560
vt -579.1230 12.8560
vt -581.0622 12.6040
vt -581.0622 12.8560
vt -581.0421 12.8560
vt -583.0475 12.6813
vt -583.0475 12.8560
vt -583.0140 12.8560
vt -584.0051 12.7185
vt -584.0051 12.8560
vt -583.9652 12.8560
vt -582.6862 12.7733
vt -582.0704 12.7988
vt -582.0704 12.9108
vt -582.6862 12.9108
vt -582.6465 12.9108
vt -582.0451 12.9108
vt -581.4703 12.8483
vt -581.4703 12.9108
vt -581.4592 12.9108
vt -580.0725 12.8483
vt -579.1302 12.8116
vt -579.1302 12.9108
vt -580.0725 12.9108
vt -580.0782 12.9108
vt -579.1422 12.9108
vt -578.0333 12.8129
vt -578.0333 12.9108
vt -578.0526 12.9108
vt -577.5932 12.8483
vt -577.5932 12.9108
vt -577.6155 12.9108
vt -577.3332 12.8483
vt -579.1302 12.7051
vt -579.1302 12.9108
vt -577.3332 12.9108
vt -577.3284 12.9108
vt -579.1137 12.9108
vt -579.7321 12.6572
vt -579.7321 12.9108
vt -579.7116 12.9108
vt -580.3447 12.6813
vt -580.3447 12.9108
vt -580.3202 12.9108
vt -586.4879 13.2474
vt -589.0616 13.2395
vt -589.0616 13.3872
vt -586.4879 13.3872
vt -586.4890 13.3872
vt -589.0445 13.3872
vt -590.1999 13.3247
vt -590.1999 13.3872
vt -590.1748 13.3872
vt -585.8597 13.3247
vt -585.8597 13.3872
vt -585.8668 13.3872
vt -628.9886 12.3292
vt -629.1302 12.3251
vt -629.1302 12.4700
vt -628.9886 12.4700
vt -628.9952 12.4700
vt -629.1354 12.4700
vt -630.7489 12.4075
vt -630.7489 12.4700
vt -630.7379 12.4700
vt -628.6629 12.4075
vt -628.6629 12.4700
vt -628.6754 12.4700
vt -581.0612 12.8819
vt -580.1437 12.9578
vt -580.1437 13.0203
vt -581.0612 13.0203
vt -581.0215 13.0203
vt -580.1262 13.0203
vt -576.2112 12.9578
vt -576.9960 12.8947
vt -576.9960 13.0203
vt -576.2112 13.0203
vt -576.2033 13.0203
vt -576.9829 13.0203
vt -578.0733 12.8081
vt -578.0733 13.0203
vt -578.0532 13.0203
vt -579.1302 12.8069
vt -579.1302 13.0203
vt -579.1031 13.0203
vt -575.7555 13.4390
vt -575.1163 13.5165
vt -575.1163 13.5790
vt -575.7555 13.5790
vt -575.7152 13.5790
vt -575.0921 13.5790
vt -571.3840 13.5165
vt -571.1689 13.4997
vt -571.1689 13.5790
vt -571.3840 13.5790
vt -571.4104 13.5790
vt -571.1974 13.5790
vt -570.7490 13.5165
vt -570.7490 13.5790
vt -570.7814 13.5790
vt -570.7490 13.5165
vt -570.7631 13.5159
vt -570.7631 13.5790
vt -570.7490 13.5790
vt -570.7702 13.5790
vt -570.7839 13.5790
vt -571.4695 13.4877
vt -571.4695 13.5790
vt -571.4714 13.5790
vt -572.6006 13.4424
vt -572.6006 13.5790
vt -572.5914 13.5790
vt -572.7438 13.4367
vt -572.7438 13.5790
vt -572.7332 13.5790
vt -572.8802 13.4472
vt -572.8802 13.5790
vt -572.8683 13.5790
vt -570.6924 13.6210
vt -569.8350 13.5531
vt -569.8350 13.6835
vt -570.6924 13.6835
vt -570.7128 13.6835
vt -569.8637 13.6835
vt -568.6852 13.5991
vt -568.6852 13.6835
vt -568.7252 13.6835
vt -569.4409 13.5688
vt -569.4409 13.6835
vt -569.4615 13.6835
vt -570.0126 13.5459
vt -570.0126 13.6835
vt -570.0139 13.6835
vt -571.2089 13.4981
vt -571.2089 13.6835
vt -571.1985 13.6835
vt -572.7828 13.6210
vt -572.7828 13.6835
vt -572.7569 13.6835
vt -578.0455 13.9157
vt -578.2854 13.9235
vt -578.2854 13.9860
vt -578.0455 13.9860
vt -578.0265 13.9860
vt -578.2647 13.9860
vt -573.9442 13.9235
vt -574.5571 13.8463
vt -574.5571 13.9860
vt -573.9442 13.9860
vt -573.9519 13.9860
vt -574.5590 13.9860
vt -575.7252 13.8398
vt -575.7252 13.9860
vt -575.7201 13.9860
vt -586.3551 14.1611
vt -586.5017 14.1717
vt -586.5017 14.2342
vt -586.3551 14.2342
vt -586.3364 14.2342
vt -586.4807 14.2342
vt -584.1537 14.1717
vt -584.7564 14.0945
vt -584.7564 14.2342
vt -584.1537 14.2342
vt -584.1621 14.2342
vt -584.7589 14.2342
vt -585.3802 14.0901
vt -585.3802 14.2342
vt -585.3745 14.2342
vt -682.4074 14.6575
vt -685.3802 14.5690
vt -685.3802 14.7200
vt -682.4074 14.7200
vt -682.4111 14.7200
vt -685.3724 14.7200
vt -686.6379 14.5819
vt -686.6379 14.7200
vt -686.6252 14.7200
vt -687.9049 14.6575
vt -687.9049 14.7200
vt -687.8810 14.7200
vt -569.1463 13.6725
vt -568.3637 13.6119
vt -568.3637 13.7350
vt -569.1463 13.7350
vt -569.1680 13.7350
vt -568.3929 13.7350
vt -567.2452 13.6566
vt -567.2452 13.7350
vt -567.2852 13.7350
vt -567.7921 13.6348
vt -567.7921 13.7350
vt -567.8127 13.7350
vt -568.7243 13.5975
vt -568.7243 13.7350
vt -568.7252 13.7350
vt -569.8750 13.5514
vt -569.8750 13.7350
vt -569.8643 13.7350
vt -571.4026 13.6725
vt -571.4026 13.7350
vt -571.3766 13.7350
vt -684.9082 15.0160
vt -685.3802 14.9915
vt -685.3802 15.1210
vt -684.9082 15.1210
vt -684.9464 15.1210
vt -685.4142 15.1210
vt -688.7515 14.9510
vt -688.7515 15.1210
vt -688.7551 15.1210
vt -690.4418 14.9825
vt -690.4418 15.1210
vt -690.4302 15.1210
vt -691.1020 15.0585
vt -691.1020 15.1210
vt -691.0768 15.1210
vt -685.3681 15.0585
vt -685.3502 15.0568
vt -685.3502 15.1210
vt -685.3681 15.1210
vt -685.3962 15.1210
vt -685.3787 15.1210
vt -567.7361 13.7300
vt -567.2646 13.6939
vt -567.2646 13.7925
vt -567.7361 13.7925
vt -567.7575 13.7925
vt -567.2906 13.7925
vt -566.9378 13.6690
vt -566.9378 13.7925
vt -566.9671 13.7925
vt -566.6302 13.6813
vt -566.6302 13.7925
vt -566.6625 13.7925
vt -565.8502 13.7124
vt -565.8502 13.7925
vt -565.8902 13.7925
vt -566.4072 13.6902
vt -566.4072 13.7925
vt -566.4277 13.7925
vt -566.6302 13.6813
vt -566.6302 13.7925
vt -566.6458 13.7925
vt -567.2842 13.6551
vt -567.2842 13.7925
vt -567.2852 13.7925
vt -568.4037 13.6103
vt -568.4037 13.7925
vt -568.3935 13.7925
vt -569.9497 13.7300
vt -569.9497 13.7925
vt -569.9239 13.7925
vt -565.0697 13.7858
vt -565.5818 13.7232
vt -565.5818 13.8483
vt -565.0697 13.8483
vt -565.0897 13.8483
vt -565.5900 13.8483
vt -565.8891 13.7109
vt -565.8891 13.8483
vt -565.8902 13.8483
vt -566.6302 13.6813
vt -566.6302 13.8483
vt -566.6239 13.8483
vt -566.9778 13.6673
vt -566.9778 13.8483
vt -566.9680 13.8483
vt -567.3471 13.6956
vt -567.3471 13.8483
vt -567.3335 13.8483
vt -568.5260 13.7858
vt -568.5260 13.8483
vt -568.5006 13.8483
vt -642.8276 13.7230
vt -643.6705 13.6465
vt -643.6705 13.7855
vt -642.8276 13.7855
vt -642.8388 13.7855
vt -643.6752 13.7855
vt -645.3688 13.6322
vt -645.3688 13.7855
vt -645.3634 13.7855
vt -646.8092 13.7230
vt -646.8092 13.7855
vt -646.7952 13.7855
vt -572.0864 14.4101
vt -572.8802 14.4061
vt -572.8802 14.5490
vt -572.0864 14.5490
vt -572.0890 14.5490
vt -572.8719 14.5490
vt -573.5988 14.4313
vt -573.5988 14.5490
vt -573.5807 14.5490
vt -575.1771 14.4865
vt -575.1771 14.5490
vt -575.1374 14.5490
vt -571.1936 14.4865
vt -571.1936 14.5490
vt -571.2036 14.5490
vt -563.4908 13.9342
vt -563.5344 13.9289
vt -563.5344 13.9967
vt -563.4908 13.9967
vt -563.5008 13.9967
vt -563.5435 13.9967
vt -563.9190 13.8819
vt -563.9190 13.9967
vt -563.9202 13.9967
vt -564.3533 13.8634
vt -564.3533 13.9967
vt -564.3392 13.9967
vt -564.5046 13.8570
vt -564.5046 13.9967
vt -564.4852 13.9967
vt -565.5255 13.8138
vt -565.5255 13.9967
vt -565.5009 13.9967
vt -566.6302 13.8530
vt -566.6302 13.9967
vt -566.6001 13.9967
vt -567.7074 13.9342
vt -567.7074 13.9967
vt -567.6718 13.9967
vt -595.4289 14.9970
vt -595.6707 14.9616
vt -595.6707 15.0595
vt -595.4289 15.0595
vt -595.4136 15.0595
vt -595.6527 15.0595
vt -596.1543 14.9229
vt -596.1543 15.0595
vt -596.1330 15.0595
vt -596.5864 14.8883
vt -596.5864 15.0595
vt -596.5622 15.0595
vt -596.9708 14.9189
vt -596.9708 15.0595
vt -596.9440 15.0595
vt -597.8802 14.9915
vt -597.8802 15.0595
vt -597.8489 15.0595
vt -598.0177 14.9970
vt -598.0177 15.0595
vt -597.9857 15.0595
vt -584.6105 15.6071
vt -585.3802 15.5905
vt -585.3802 15.7475
vt -584.6105 15.7475
vt -584.6052 15.7475
vt -585.3683 15.7475
vt -588.1293 15.6413
vt -588.1293 15.7475
vt -588.0941 15.7475
vt -588.6561 15.6510
vt -588.6561 15.7475
vt -588.6164 15.7475
vt -588.3352 15.6850
vt -588.3352 15.7475
vt -588.2998 15.7475
vt -584.0759 15.6850
vt -584.0759 15.7475
vt -584.0779 15.7475
vt -652.6341 15.5030
vt -653.1547 15.5787
vt -653.1547 15.6412
vt -652.6341 15.6412
vt -652.6177 15.6412
vt -653.1283 15.6412
vt -650.5707 15.5787
vt -649.3443 15.5484
vt -649.3443 15.6412
vt -650.5707 15.6412
vt -650.5441 15.6412
vt -649.3216 15.6412
vt -648.3473 15.5787
vt -648.3473 15.6412
vt -648.3278 15.6412
vt -644.3748 15.5787
vt -644.8531 15.5523
vt -644.8531 15.6412
vt -644.3748 15.6412
vt -644.3846 15.6412
vt -644.8614 15.6412
vt -647.0457 15.4313
vt -647.0457 15.6412
vt -647.0470 15.6412
vt -647.8802 15.4313
vt -647.8802 15.6412
vt -647.8789 15.6412
vt -649.7403 15.4313
vt -649.7403 15.6412
vt -649.7331 15.6412
vt -646.6068 15.4313
vt -647.7901 15.4313
vt -647.7901 15.5687
vt -646.6068 15.5687
vt -646.5902 15.5687
vt -647.7594 15.5687
vt -647.8802 15.4313
vt -647.8802 15.5687
vt -647.8484 15.5687
vt -648.2653 15.4313
vt -648.2653 15.5687
vt -648.2290 15.5687
vt -647.8802 15.4313
vt -647.8802 15.5687
vt -647.8464 15.5687
vt -644.3672 15.4313
vt -644.3672 15.5687
vt -644.3569 15.5687
vt -644.3151 15.4341
vt -644.3151 15.5687
vt -644.3052 15.5687
vt -643.0040 15.5062
vt -643.0040 15.5687
vt -642.9941 15.5687
vt -640.6905 15.5062
vt -641.6302 15.4052
vt -641.6302 15.5687
vt -640.6905 15.5687
vt -640.6918 15.5687
vt -641.6286 15.5687
vt -643.7130 15.4313
vt -643.7130 15.5687
vt -643.7051 15.5687
vt -652.6125 15.6961
vt -653.2547 15.7722
vt -653.2547 15.8347
vt -652.6125 15.8347
vt -652.6002 15.8347
vt -653.2341 15.8347
vt -647.9610 15.7722
vt -650.7300 15.6592
vt -650.7300 15.8347
vt -647.9610 15.8347
vt -647.9665 15.8347
vt -650.7249 15.8347
vt -578.2704 16.3309
vt -579.1302 16.3263
vt -579.1302 16.4690
vt -578.2704 16.4690
vt -578.2765 16.4690
vt -579.1279 16.4690
vt -581.4478 16.4065
vt -581.4478 16.4690
vt -581.4229 16.4690
vt -576.6731 16.4065
vt -576.6731 16.4690
vt -576.6872 16.4690
vt -610.8138 15.9863
vt -611.3249 15.8935
vt -611.3249 16.0487
vt -610.8138 16.0487
vt -610.7886 16.0487
vt -611.2942 16.0487
vt -611.6970 15.9049
vt -611.6970 16.0487
vt -611.6624 16.0487
vt -611.8894 15.9108
vt -611.8894 16.0487
vt -611.8527 16.0487
vt -611.1573 15.9313
vt -611.1573 16.0487
vt -611.1288 16.0487
vt -610.3802 15.9313
vt -610.3802 16.0487
vt -610.3605 16.0487
vt -608.5911 15.9313
vt -608.5911 16.0487
vt -608.5914 16.0487
vt -607.1930 15.9820
vt -607.1930 16.0487
vt -607.2090 16.0487
vt -607.1733 15.9863
vt -607.1733 16.0487
vt -607.1894 16.0487
vt -544.7466 16.0633
vt -544.4370 16.0435
vt -544.4370 16.1258
vt -544.7466 16.1258
vt -544.7276 16.1258
vt -544.4203 16.1258
vt -543.3616 15.9878
vt -543.3616 16.1258
vt -543.3527 16.1258
vt -542.9696 15.9848
vt -542.9696 16.1258
vt -542.9649 16.1258
vt -541.6302 16.0184
vt -541.6302 16.1258
vt -541.6400 16.1258
vt -541.1515 16.0496
vt -541.1515 16.1258
vt -541.1665 16.1258
vt -540.9416 16.0633
vt -540.9416 16.1258
vt -540.9592 16.1258
vt -603.4774 16.1038
vt -604.1302 16.0358
vt -604.1302 16.1663
vt -603.4774 16.1663
vt -603.4946 16.1663
vt -604.1427 16.1663
vt -605.1352 16.0116
vt -605.1352 16.1663
vt -605.1402 16.1663
vt -606.5041 16.0262
vt -606.5041 16.1663
vt -606.4988 16.1663
vt -606.6175 16.0274
vt -606.6175 16.1663
vt -606.6115 16.1663
vt -606.6787 16.0332
vt -606.6787 16.1663
vt -606.6717 16.1663
vt -607.4256 16.1038
vt -607.4256 16.1663
vt -607.4068 16.1663
vt -604.2452 16.3985
vt -604.1302 16.3844
vt -604.1302 16.4610
vt -604.2452 16.4610
vt -604.2816 16.4610
vt -604.1684 16.4610
vt -604.0965 16.3830
vt -604.0965 16.4610
vt -604.1352 16.4610
vt -604.1302 16.3797
vt -604.1302 16.4610
vt -604.1686 16.4610
vt -606.2235 16.3481
vt -606.2235 16.4610
vt -606.2436 16.4610
vt -608.8456 16.3085
vt -608.8456 16.4610
vt -608.8428 16.4610
vt -609.6790 16.3223
vt -609.6790 16.4610
vt -609.6689 16.4610
vt -610.3802 16.3984
vt -610.3802 16.4610
vt -610.3604 16.4610
vt -610.3816 16.3985
vt -610.3816 16.4610
vt -610.3618 16.4610
vt -613.2772 16.5728
vt -613.6341 16.5922
vt -613.6341 16.6547
vt -613.2772 16.6547
vt -613.2527 16.6547
vt -613.6037 16.6547
vt -610.8912 16.5922
vt -610.3802 16.5879
vt -610.3802 16.6547
vt -610.8912 16.6547
vt -610.8799 16.6547
vt -610.3733 16.6547
vt -610.2445 16.5922
vt -610.2445 16.6547
vt -610.2387 16.6547
vt -607.4893 16.5922
vt -610.3802 16.5009
vt -610.3802 16.6547
vt -607.4893 16.6547
vt -607.5192 16.6547
vt -610.3857 16.6547
vt -612.2493 16.5166
vt -612.2493 16.6547
vt -612.2390 16.6547
vt -506.7052 15.7843
vt -506.4549 15.7743
vt -506.4549 15.8468
vt -506.7052 15.8468
vt -506.6899 15.8468
vt -506.4383 15.8468
vt -506.0093 15.7627
vt -506.0093 15.8468
vt -505.9902 15.8468
vt -505.5535 15.7843
vt -505.5535 15.8468
vt -505.5344 15.8468
vt -502.7874 15.7843
vt -501.9685 15.7630
vt -501.9685 15.8468
vt -502.7874 15.8468
vt -502.7890 15.8468
vt -501.9796 15.8468
vt -499.8788 15.7088
vt -499.8788 15.8468
vt -499.9140 15.8468
vt -500.4647 15.6813
vt -500.4647 15.8468
vt -500.4998 15.8468
vt -501.3287 15.7219
vt -501.3287 15.8468
vt -501.3640 15.8468
vt -498.9243 15.7843
vt -498.9243 15.8468
vt -498.9448 15.8468
vt -501.9375 15.7843
vt -504.1302 15.7274
vt -504.1302 15.8468
vt -501.9375 15.8468
vt -501.9276 15.8468
vt -504.1271 15.8468
vt -505.9106 15.7525
vt -505.9106 15.8468
vt -505.9130 15.8468
vt -506.7052 15.7843
vt -506.7052 15.8468
vt -506.7101 15.8468
vt -615.8652 16.6812
vt -616.6302 16.6812
vt -616.6302 16.8188
vt -615.8652 16.8188
vt -615.8415 16.8188
vt -616.5971 16.8188
vt -617.1281 16.6812
vt -617.1281 16.8188
vt -617.0890 16.8188
vt -616.6302 16.6812
vt -616.6302 16.8188
vt -616.5949 16.8188
vt -615.9277 16.6812
vt -615.9277 16.8188
vt -615.8977 16.8188
vt -612.5660 16.6812
vt -612.5660 16.8188
vt -612.5614 16.8188
vt -610.8556 16.7377
vt -610.8556 16.8188
vt -610.8640 16.8188
vt -610.3802 16.7326
vt -610.3802 16.8188
vt -610.3949 16.8188
vt -609.3694 16.7217
vt -609.3694 16.8188
vt -609.3977 16.8188
vt -608.7125 16.7146
vt -608.7125 16.8188
vt -608.7497 16.8188
vt -608.5698 16.7131
vt -608.5698 16.8188
vt -608.6089 16.8188
vt -609.5340 16.6812
vt -609.5340 16.8188
vt -609.5658 16.8188
vt -610.3802 16.6533
vt -610.3802 16.8188
vt -610.4057 16.8188
vt -614.3698 16.6812
vt -614.3698 16.8188
vt -614.3651 16.8188
vt -614.8460 16.6812
vt -614.8460 16.8188
vt -614.8377 16.8188
vt -563.5128 16.8453
vt -564.2902 16.7908
vt -564.2902 16.9078
vt -563.5128 16.9078
vt -563.5455 16.9078
vt -564.3167 16.9078
vt -564.6201 16.7678
vt -564.6201 16.9078
vt -564.6440 16.9078
vt -565.2408 16.7645
vt -565.2408 16.9078
vt -565.2600 16.9078
vt -566.6302 16.8153
vt -566.6302 16.9078
vt -566.6392 16.9078
vt -567.2482 16.8131
vt -567.2482 16.9078
vt -567.2527 16.9078
vt -567.7312 16.8453
vt -567.7312 16.9078
vt -567.7283 16.9078
vt -593.6980 16.8485
vt -593.8126 16.8439
vt -593.8126 16.9872
vt -593.6980 16.9872
vt -593.6702 16.9872
vt -593.7832 16.9872
vt -594.0654 16.8646
vt -594.0654 16.9872
vt -594.0327 16.9872
vt -591.8990 16.9205
vt -591.8990 16.9872
vt -591.8869 16.9872
vt -591.7927 16.9247
vt -591.7927 16.9872
vt -591.7816 16.9872
vt -591.7927 16.9247
vt -592.9360 16.8790
vt -592.9360 16.9872
vt -591.7927 16.9872
vt -591.7942 16.9872
vt -592.9127 16.9872
vt -593.0150 16.8758
vt -593.0150 16.9872
vt -592.9913 16.9872
vt -572.0449 17.7861
vt -572.1182 17.7910
vt -572.1182 17.8923
vt -572.0449 17.8923
vt -572.0302 17.8923
vt -572.1027 17.8923
vt -572.7024 17.8298
vt -572.7024 17.8923
vt -572.6804 17.8923
vt -566.5212 17.8298
vt -565.9393 17.7527
vt -565.9393 17.8923
vt -566.5212 17.8923
vt -566.5475 17.8923
vt -565.9764 17.8923
vt -566.6302 17.7683
vt -566.6302 17.8923
vt -566.6615 17.8923
vt -568.1490 17.7420
vt -568.1490 17.8923
vt -568.1674 17.8923
vt -571.6534 17.7817
vt -571.6534 17.8923
vt -571.6419 17.8923
vt -616.6017 16.8172
vt -616.6302 16.8154
vt -616.6302 16.9225
vt -616.6017 16.9225
vt -616.5877 16.9225
vt -616.6157 16.9225
vt -616.8389 16.8104
vt -616.8389 16.9225
vt -616.8206 16.9225
vt -617.8852 16.7855
vt -617.8852 16.9225
vt -617.8477 16.9225
vt -616.6302 16.7489
vt -616.6302 16.9225
vt -616.5988 16.9225
vt -614.3067 16.7742
vt -614.3067 16.9225
vt -614.2865 16.9225
vt -610.3802 16.7026
vt -610.3802 16.9225
vt -610.3790 16.9225
vt -609.2135 16.7746
vt -609.2135 16.9225
vt -609.2179 16.9225
vt -607.8303 16.8600
vt -607.8303 16.9225
vt -607.8415 16.9225
vt -610.0312 16.8600
vt -610.3802 16.8385
vt -610.3802 16.9225
vt -610.0312 16.9225
vt -610.0489 16.9225
vt -610.3963 16.9225
vt -611.5604 16.8600
vt -611.5604 16.9225
vt -611.5708 16.9225
vt -612.6662 16.8600
vt -615.4626 16.8296
vt -615.4626 16.9225
vt -612.6662 16.9225
vt -612.6712 16.9225
vt -615.4541 16.9225
vn -0.4682 -0.8836 0.0000
vn 0.0000 -0.0000 1.0000
vn -0.4685 -0.8835 0.0000
vn -0.4679 -0.8838 0.0000
vn -0.8829 0.4695 0.0000
vn -0.8810 0.4731 0.0000
vn -0.4709 -0.8822 0.0000
vn -0.8819 0.4714 0.0000
vn 0.9993 0.0362 0.0000
vn 0.0349 -0.9994 0.0000
vn -0.5441 -0.8390 0.0000
vn -0.5453 -0.8382 0.0000
vn -0.8380 0.5457 0.0000
vn -0.9349 -0.3548 0.0000
vn -0.3540 0.9353 0.0000
vn -0.3539 0.9353 0.0000
vn -0.4864 -0.8737 0.0000
vn -0.4861 -0.8739 0.0000
vn -0.8731 0.4875 0.0000
vn -0.9744 -0.2246 0.0000
vn 0.2231 -0.9748 0.0000
vn -0.4741 -0.8805 0.0000
vn -0.4739 -0.8806 0.0000
vn -0.8273 0.5617 0.0000
vn 0.0000 1.0000 0.0000
vn 0.9998 0.0207 0.0000
vn -0.9999 -0.0119 0.0000
vn -0.0421 -0.9991 0.0000
vn 0.0756 0.9971 0.0000
vn -0.0247 0.9997 0.0000
vn 0.9999 0.0136 0.0000
vn -0.9998 -0.0207 0.0000
vn -0.8919 0.4522 0.0000
vn 0.8918 -0.4525 0.0000
vn -0.4515 -0.8923 0.0000
vn 1.0000 0.0088 0.0000
vn -0.9999 -0.0136 0.0000
vn -0.0186 0.9998 0.0000
vn -0.0189 0.9998 0.0000
vn 1.0000 0.0096 0.0000
vn -1.0000 -0.0088 0.0000
vn -0.9997 -0.0262 0.0000
vn 0.0258 -0.9997 0.0000
vn -0.9858 -0.1678 0.0000
vn 0.1655 -0.9862 0.0000
vn -0.0216 0.9998 0.0000
vn -1.0000 -0.0096 0.0000
vn -0.0104 0.9999 0.0000
vn 0.9999 0.0162 0.0000
vn 0.0175 -0.9998 0.0000
vn 0.0708 -0.9975 0.0000
vn -0.9997 -0.0244 0.0000
vn 1.0000 0.0064 0.0000
vn 0.0067 -1.0000 0.0000
vn 0.0494 -0.9988 0.0000
vn -0.9999 -0.0162 0.0000
vn -0.9989 -0.0479 0.0000
vn 0.0477 -0.9989 0.0000
vn -0.9979 -0.0652 0.0000
vn 0.0636 -0.9980 0.0000
vn -0.9980 -0.0631 0.0000
vn -0.3257 -0.9455 0.0000
vn -0.9499 0.3127 0.0000
vn 0.9998 0.0219 0.0000
vn 0.0209 -0.9998 0.0000
vn 0.0382 -0.9993 0.0000
vn -1.0000 -0.0064 0.0000
vn -0.2909 -0.9567 0.0000
vn -0.9564 0.2919 0.0000
vn 0.9568 -0.2907 0.0000
vn 0.9995 0.0302 0.0000
vn 0.0293 -0.9996 0.0000
vn 0.0256 -0.9997 0.0000
vn -0.9998 -0.0219 0.0000
vn 0.0265 -0.9996 0.0000
vn -0.9995 -0.0302 0.0000
vn 0.1172 -0.9931 0.0000
vn -0.9931 -0.1176 0.0000
vn -0.9978 -0.0664 0.0000
vn 0.0655 -0.9979 0.0000
vn 0.0288 -0.9996 0.0000
vn -0.9995 -0.0320 0.0000
vn -0.9996 -0.0293 0.0000
vn -0.4617 -0.8870 0.0000
vn -0.8947 0.4467 0.0000
vn -0.8945 0.4470 0.0000
vn -0.9912 0.1322 0.0000
vn 0.1327 0.9912 0.0000
vn -0.1337 -0.9910 0.0000
vn -0.9117 0.4109 0.0000
vn 0.4092 0.9125 0.0000
vn -0.4093 -0.9124 0.0000
vn -0.9098 0.4151 0.0000
vn 0.4133 0.9106 0.0000
vn 0.4134 0.9106 0.0000
vn -0.4135 -0.9105 0.0000
vn -0.9510 0.3093 0.0000
vn -0.3085 -0.9512 0.0000
vn -0.9881 -0.1540 0.0000
vn 0.1527 -0.9883 0.0000
vn -0.9171 0.3987 0.0000
vn 0.3984 0.9172 0.0000
vn 0.9171 -0.3987 0.0000
vn -0.2230 0.9748 0.0000
vn 0.9748 0.2233 0.0000
vn 0.9747 0.2236 0.0000
vn -0.1515 -0.9885 0.0000
vn -0.9885 0.1514 0.0000
vn 0.9673 -0.2535 0.0000
vn -0.2531 -0.9674 0.0000
vn -0.9673 0.2538 0.0000
vn -0.9664 0.2569 0.0000
vn 0.2568 0.9665 0.0000
vn -0.2568 -0.9665 0.0000
vn -0.9657 0.2595 0.0000
vn 0.8789 0.4770 0.0000
vn -0.4764 0.8792 0.0000
vn 0.8790 0.4769 0.0000
vn 0.4756 -0.8797 0.0000
vn 0.8788 0.4773 0.0000
vn -0.8788 -0.4772 0.0000
vn -0.9779 0.2088 0.0000
vn 0.2074 0.9783 0.0000
vn 0.9782 -0.2076 0.0000
vn -0.2075 -0.9782 0.0000
vn -0.9781 0.2081 0.0000
vn 0.3456 -0.9384 0.0000
vn 0.0417 -0.9991 0.0000
vn -0.9803 -0.1975 0.0000
vn -0.8302 0.5575 0.0000
vn 0.4829 0.8756 0.0000
vn -0.7120 -0.7022 0.0000
vn -0.8299 0.5579 0.0000
vn -0.9295 0.3689 0.0000
vn 0.9297 -0.3682 0.0000
vn -0.3676 -0.9300 0.0000
vn -0.9368 0.3499 0.0000
vn 0.3498 0.9368 0.0000
vn -0.3496 -0.9369 0.0000
f 1/1/1 3/3/1 2/2/1
f 1/1/1 4/4/1 3/3/1
f 5/5/2 6/6/2 3/3/2
f 5/5/2 3/3/2 4/4/2
f 2/2/1 8/8/1 7/7/1
f 2/2/1 3/3/1 8/8/1
f 6/6/2 9/9/2 8/8/2
f 6/6/2 8/8/2 3/3/2
f 7/7/3 11/11/3 10/10/3
f 7/7/3 8/8/3 11/11/3
f 9/9/2 12/12/2 11/11/2
f 9/9/2 11/11/2 8/8/2
f 10/10/3 14/14/3 13/13/3
f 10/10/3 11/11/3 14/14/3
f 12/12/2 15/15/2 14/14/2
f 12/12/2 14/14/2 11/11/2
f 13/13/4 17/17/4 16/16/4
f 13/13/4 14/14/4 17/17/4
f 15/15/2 18/18/2 17/17/2
f 15/15/2 17/17/2 14/14/2
f 16/16/5 20/20/5 19/19/5
f 16/16/5 17/17/5 20/20/5
f 18/18/2 21/21/2 20/20/2
f 18/18/2 20/20/2 17/17/2
f 22/22/6 24/24/6 23/23/6
f 22/22/6 25/25/6 24/24/6
f 26/26/2 27/27/2 24/24/2
f 26/26/2 24/24/2 25/25/2
f 28/28/7 30/30/7 29/29/7
f 28/28/7 31/31/7 30/30/7
f 32/32/2 33/33/2 30/30/2
f 32/32/2 30/30/2 31/31/2
f 29/29/7 35/35/7 34/34/7
f 29/29/7 30/30/7 35/35/7
f 33/33/2 36/36/2 35/35/2
f 33/33/2 35/35/2 30/30/2
f 34/34/7 38/38/7 37/37/7
f 34/34/7 35/35/7 38/38/7
f 36/36/2 39/39/2 38/38/2
f 36/36/2 38/38/2 35/35/2
f 37/37/8 25/25/8 22/22/8
f 37/37/8 38/38/8 25/25/8
f 39/39/2 26/26/2 25/25/2
f 39/39/2 25/25/2 38/38/2
f 40/40/9 42/42/9 41/41/9
f 40/40/9 43/43/9 42/42/9
f 44/44/2 45/45/2 42/42/2
f 44/44/2 42/42/2 43/43/2
f 41/41/9 47/47/9 46/46/9
f 41/41/9 42/42/9 47/47/9
f 45/45/2 48/48/2 47/47/2
f 45/45/2 47/47/2 42/42/2
f 46/46/10 50/50/10 49/49/10
f 46/46/10 47/47/10 50/50/10
f 48/48/2 51/51/2 50/50/2
f 48/48/2 50/50/2 47/47/2
f 49/49/10 53/53/10 52/52/10
f 49/49/10 50/50/10 53/53/10
f 51/51/2 54/54/2 53/53/2
f 51/51/2 53/53/2 50/50/2
f 52/52/10 56/56/10 55/55/10
f 52/52/10 53/53/10 56/56/10
f 54/54/2 57/57/2 56/56/2
f 54/54/2 56/56/2 53/53/2
f 55/55/10 59/59/10 58/58/10
f 55/55/10 56/56/10 59/59/10
f 57/57/2 60/60/2 59/59/2
f 57/57/2 59/59/2 56/56/2
f 61/61/11 63/63/11 62/62/11
f 61/61/11 64/64/11 63/63/11
f 65/65/2 66/66/2 63/63/2
f 65/65/2 63/63/2 64/64/2
f 62/62/12 68/68/12 67/67/12
f 62/62/12 63/63/12 68/68/12
f 66/66/2 69/69/2 68/68/2
f 66/66/2 68/68/2 63/63/2
f 67/67/12 71/71/12 70/70/12
f 67/67/12 68/68/12 71/71/12
f 69/69/2 72/72/2 71/71/2
f 69/69/2 71/71/2 68/68/2
f 70/70/13 74/74/13 73/73/13
f 70/70/13 71/71/13 74/74/13
f 72/72/2 75/75/2 74/74/2
f 72/72/2 74/74/2 71/71/2
f 76/76/14 78/78/14 77/77/14
f 76/76/14 79/79/14 78/78/14
f 80/80/2 81/81/2 78/78/2
f 80/80/2 78/78/2 79/79/2
f 77/77/15 83/83/15 82/82/15
f 77/77/15 78/78/15 83/83/15
f 81/81/2 84/84/2 83/83/2
f 81/81/2 83/83/2 78/78/2
f 82/82/15 86/86/15 85/85/15
f 82/82/15 83/83/15 86/86/15
f 84/84/2 87/87/2 86/86/2
f 84/84/2 86/86/2 83/83/2
f 85/85/16 89/89/16 88/88/16
f 85/85/16 86/86/16 89/89/16
f 87/87/2 90/90/2 89/89/2
f 87/87/2 89/89/2 86/86/2
f 88/88/16 92/92/16 91/91/16
f 88/88/16 89/89/16 92/92/16
f 90/90/2 93/93/2 92/92/2
f 90/90/2 92/92/2 89/89/2
f 91/91/16 95/95/16 94/94/16
f 91/91/16 92/92/16 95/95/16
f 93/93/2 96/96/2 95/95/2
f 93/93/2 95/95/2 92/92/2
f 97/97/17 99/99/17 98/98/17
f 97/97/17 100/100/17 99/99/17
f 101/101/2 102/102/2 99/99/2
f 101/101/2 99/99/2 100/100/2
f 98/98/17 104/104/17 103/103/17
f 98/98/17 99/99/17 104/104/17
f 102/102/2 105/105/2 104/104/2
f 102/102/2 104/104/2 99/99/2
f 103/103/18 107/107/18 106/106/18
f 103/103/18 104/104/18 107/107/18
f 105/105/2 108/108/2 107/107/2
f 105/105/2 107/107/2 104/104/2
f 106/106/18 110/110/18 109/109/18
f 106/106/18 107/107/18 110/110/18
f 108/108/2 111/111/2 110/110/2
f 108/108/2 110/110/2 107/107/2
f 109/109/19 113/113/19 112/112/19
f 109/109/19 110/110/19 113/113/19
f 111/111/2 114/114/2 113/113/2
f 111/111/2 113/113/2 110/110/2
f 112/112/19 116/116/19 115/115/19
f 112/112/19 113/113/19 116/116/19
f 114/114/2 117/117/2 116/116/2
f 114/114/2 116/116/2 113/113/2
f 118/118/20 120/120/20 119/119/20
f 118/118/20 121/121/20 120/120/20
f 122/122/2 123/123/2 120/120/2
f 122/122/2 120/120/2 121/121/2
f 119/119/20 125/125/20 124/124/20
f 119/119/20 120/120/20 125/125/20
f 123/123/2 126/126/2 125/125/2
f 123/123/2 125/125/2 120/120/2
f 124/124/20 128/128/20 127/127/20
f 124/124/20 125/125/20 128/128/20
f 126/126/2 129/129/2 128/128/2
f 126/126/2 128/128/2 125/125/2
f 127/127/20 131/131/20 130/130/20
f 127/127/20 128/128/20 131/131/20
f 129/129/2 132/132/2 131/131/2
f 129/129/2 131/131/2 128/128/2
f 133/133/21 135/135/21 134/134/21
f 133/133/21 136/136/21 135/135/21
f 137/137/2 138/138/2 135/135/2
f 137/137/2 135/135/2 136/136/2
f 134/134/21 121/121/21 118/118/21
f 134/134/21 135/135/21 121/121/21
f 138/138/2 122/122/2 121/121/2
f 138/138/2 121/121/2 135/135/2
f 139/139/22 141/141/22 140/140/22
f 139/139/22 142/142/22 141/141/22
f 143/143/2 144/144/2 141/141/2
f 143/143/2 141/141/2 142/142/2
f 140/140/22 146/146/22 145/145/22
f 140/140/22 141/141/22 146/146/22
f 144/144/2 147/147/2 146/146/2
f 144/144/2 146/146/2 141/141/2
f 145/145/23 149/149/23 148/148/23
f 145/145/23 146/146/23 149/149/23
f 147/147/2 150/150/2 149/149/2
f 147/147/2 149/149/2 146/146/2
f 148/148/23 152/152/23 151/151/23
f 148/148/23 149/149/23 152/152/23
f 150/150/2 153/153/2 152/152/2
f 150/150/2 152/152/2 149/149/2
f 151/151/23 155/155/23 154/154/23
f 151/151/23 152/152/23 155/155/23
f 153/153/2 156/156/2 155/155/2
f 153/153/2 155/155/2 152/152/2
f 154/154/24 158/158/24 157/157/24
f 154/154/24 155/155/24 158/158/24
f 156/156/2 159/159/2 158/158/2
f 156/156/2 158/158/2 155/155/2
f 157/157/24 161/161/24 160/160/24
f 157/157/24 158/158/24 161/161/24
f 159/159/2 162/162/2 161/161/2
f 159/159/2 161/161/2 158/158/2
f 160/160/24 164/164/24 163/163/24
f 160/160/24 161/161/24 164/164/24
f 162/162/2 165/165/2 164/164/2
f 162/162/2 164/164/2 161/161/2
f 166/166/25 168/168/25 167/167/25
f 166/166/25 169/169/25 168/168/25
f 170/170/2 171/171/2 168/168/2
f 170/170/2 168/168/2 169/169/2
f 167/167/25 173/173/25 172/172/25
f 167/167/25 168/168/25 173/173/25
f 171/171/2 174/174/2 173/173/2
f 171/171/2 173/173/2 168/168/2
f 172/172/26 176/176/26 175/175/26
f 172/172/26 173/173/26 176/176/26
f 174/174/2 177/177/2 176/176/2
f 174/174/2 176/176/2 173/173/2
f 175/175/26 179/179/26 178/178/26
f 175/175/26 176/176/26 179/179/26
f 177/177/2 180/180/2 179/179/2
f 177/177/2 179/179/2 176/176/2
f 181/181/27 183/183/27 182/182/27
f 181/181/27 184/184/27 183/183/27
f 185/185/2 186/186/2 183/183/2
f 185/185/2 183/183/2 184/184/2
f 182/182/27 188/188/27 187/187/27
f 182/182/27 183/183/27 188/188/27
f 186/186/2 189/189/2 188/188/2
f 186/186/2 188/188/2 183/183/2
f 187/187/27 191/191/27 190/190/27
f 187/187/27 188/188/27 191/191/27
f 189/189/2 192/192/2 191/191/2
f 189/189/2 191/191/2 188/188/2
f 190/190/27 169/169/27 166/166/27
f 190/190/27 191/191/27 169/169/27
f 192/192/2 170/170/2 169/169/2
f 192/192/2 169/169/2 191/191/2
f 193/193/27 195/195/27 194/194/27
f 193/193/27 196/196/27 195/195/27
f 197/197/2 198/198/2 195/195/2
f 197/197/2 195/195/2 196/196/2
f 194/194/27 200/200/27 199/199/27
f 194/194/27 195/195/27 200/200/27
f 198/198/2 201/201/2 200/200/2
f 198/198/2 200/200/2 195/195/2
f 193/193/28 202/202/28 197/197/28
f 193/193/28 197/197/28 196/196/28
f 199/199/29 201/201/29 203/203/29
f 199/199/29 200/200/29 201/201/29
f 204/204/30 206/206/30 205/205/30
f 204/204/30 207/207/30 206/206/30
f 208/208/2 209/209/2 206/206/2
f 208/208/2 206/206/2 207/207/2
f 205/205/30 211/211/30 210/210/30
f 205/205/30 206/206/30 211/211/30
f 209/209/2 212/212/2 211/211/2
f 209/209/2 211/211/2 206/206/2
f 210/210/31 214/214/31 213/213/31
f 210/210/31 211/211/31 214/214/31
f 212/212/2 215/215/2 214/214/2
f 212/212/2 214/214/2 211/211/2
f 213/213/31 217/217/31 216/216/31
f 213/213/31 214/214/31 217/217/31
f 215/215/2 218/218/2 217/217/2
f 215/215/2 217/217/2 214/214/2
f 216/216/31 220/220/31 219/219/31
f 216/216/31 217/217/31 220/220/31
f 218/218/2 221/221/2 220/220/2
f 218/218/2 220/220/2 217/217/2
f 222/222/32 224/224/32 223/223/32
f 222/222/32 225/225/32 224/224/32
f 226/226/2 227/227/2 224/224/2
f 226/226/2 224/224/2 225/225/2
f 223/223/32 207/207/32 204/204/32
f 223/223/32 224/224/32 207/207/32
f 227/227/2 208/208/2 207/207/2
f 227/227/2 207/207/2 224/224/2
f 228/228/33 230/230/33 229/229/33
f 228/228/33 231/231/33 230/230/33
f 232/232/2 233/233/2 230/230/2
f 232/232/2 230/230/2 231/231/2
f 234/234/34 236/236/34 235/235/34
f 234/234/34 237/237/34 236/236/34
f 238/238/2 239/239/2 236/236/2
f 238/238/2 236/236/2 237/237/2
f 235/235/35 241/241/35 240/240/35
f 235/235/35 236/236/35 241/241/35
f 239/239/2 242/242/2 241/241/2
f 239/239/2 241/241/2 236/236/2
f 240/240/35 244/244/35 243/243/35
f 240/240/35 241/241/35 244/244/35
f 242/242/2 245/245/2 244/244/2
f 242/242/2 244/244/2 241/241/2
f 243/243/35 231/231/35 228/228/35
f 243/243/35 244/244/35 231/231/35
f 245/245/2 232/232/2 231/231/2
f 245/245/2 231/231/2 244/244/2
f 246/246/36 248/248/36 247/247/36
f 246/246/36 249/249/36 248/248/36
f 250/250/2 251/251/2 248/248/2
f 250/250/2 248/248/2 249/249/2
f 247/247/36 253/253/36 252/252/36
f 247/247/36 248/248/36 253/253/36
f 251/251/2 254/254/2 253/253/2
f 251/251/2 253/253/2 248/248/2
f 252/252/36 256/256/36 255/255/36
f 252/252/36 253/253/36 256/256/36
f 254/254/2 257/257/2 256/256/2
f 254/254/2 256/256/2 253/253/2
f 255/255/36 259/259/36 258/258/36
f 255/255/36 256/256/36 259/259/36
f 257/257/2 260/260/2 259/259/2
f 257/257/2 259/259/2 256/256/2
f 261/261/37 263/263/37 262/262/37
f 261/261/37 264/264/37 263/263/37
f 265/265/2 266/266/2 263/263/2
f 265/265/2 263/263/2 264/264/2
f 262/262/37 268/268/37 267/267/37
f 262/262/37 263/263/37 268/268/37
f 266/266/2 269/269/2 268/268/2
f 266/266/2 268/268/2 263/263/2
f 267/267/37 271/271/37 270/270/37
f 267/267/37 268/268/37 271/271/37
f 269/269/2 272/272/2 271/271/2
f 269/269/2 271/271/2 268/268/2
f 270/270/37 274/274/37 273/273/37
f 270/270/37 271/271/37 274/274/37
f 272/272/2 275/275/2 274/274/2
f 272/272/2 274/274/2 271/271/2
f 273/273/38 249/249/38 246/246/38
f 273/273/38 274/274/38 249/249/38
f 275/275/2 250/250/2 249/249/2
f 275/275/2 249/249/2 274/274/2
f 276/276/39 278/278/39 277/277/39
f 276/276/39 279/279/39 278/278/39
f 280/280/2 281/281/2 278/278/2
f 280/280/2 278/278/2 279/279/2
f 277/277/39 283/283/39 282/282/39
f 277/277/39 278/278/39 283/283/39
f 281/281/2 284/284/2 283/283/2
f 281/281/2 283/283/2 278/278/2
f 285/285/40 287/287/40 286/286/40
f 285/285/40 288/288/40 287/287/40
f 289/289/2 290/290/2 287/287/2
f 289/289/2 287/287/2 288/288/2
f 286/286/40 292/292/40 291/291/40
f 286/286/40 287/287/40 292/292/40
f 290/290/2 293/293/2 292/292/2
f 290/290/2 292/292/2 287/287/2
f 291/291/40 295/295/40 294/294/40
f 291/291/40 292/292/40 295/295/40
f 293/293/2 296/296/2 295/295/2
f 293/293/2 295/295/2 292/292/2
f 297/297/41 299/299/41 298/298/41
f 297/297/41 300/300/41 299/299/41
f 301/301/2 302/302/2 299/299/2
f 301/301/2 299/299/2 300/300/2
f 298/298/41 304/304/41 303/303/41
f 298/298/41 299/299/41 304/304/41
f 302/302/2 305/305/2 304/304/2
f 302/302/2 304/304/2 299/299/2
f 303/303/41 307/307/41 306/306/41
f 303/303/41 304/304/41 307/307/41
f 305/305/2 308/308/2 307/307/2
f 305/305/2 307/307/2 304/304/2
f 306/306/41 279/279/41 276/276/41
f 306/306/41 307/307/41 279/279/41
f 308/308/2 280/280/2 279/279/2
f 308/308/2 279/279/2 307/307/2
f 309/309/42 311/311/42 310/310/42
f 309/309/42 312/312/42 311/311/42
f 313/313/2 314/314/2 311/311/2
f 313/313/2 311/311/2 312/312/2
f 310/310/42 316/316/42 315/315/42
f 310/310/42 311/311/42 316/316/42
f 314/314/2 317/317/2 316/316/2
f 314/314/2 316/316/2 311/311/2
f 318/318/43 312/312/43 309/309/43
f 318/318/43 319/319/43 312/312/43
f 320/320/2 313/313/2 312/312/2
f 320/320/2 312/312/2 319/319/2
f 321/321/44 323/323/44 322/322/44
f 321/321/44 324/324/44 323/323/44
f 325/325/2 326/326/2 323/323/2
f 325/325/2 323/323/2 324/324/2
f 322/322/44 328/328/44 327/327/44
f 322/322/44 323/323/44 328/328/44
f 326/326/2 329/329/2 328/328/2
f 326/326/2 328/328/2 323/323/2
f 330/330/45 324/324/45 321/321/45
f 330/330/45 331/331/45 324/324/45
f 332/332/2 325/325/2 324/324/2
f 332/332/2 324/324/2 331/331/2
f 333/333/46 335/335/46 334/334/46
f 333/333/46 336/336/46 335/335/46
f 337/337/2 338/338/2 335/335/2
f 337/337/2 335/335/2 336/336/2
f 339/339/47 341/341/47 340/340/47
f 339/339/47 342/342/47 341/341/47
f 343/343/2 344/344/2 341/341/2
f 343/343/2 341/341/2 342/342/2
f 340/340/47 346/346/47 345/345/47
f 340/340/47 341/341/47 346/346/47
f 344/344/2 347/347/2 346/346/2
f 344/344/2 346/346/2 341/341/2
f 345/345/47 349/349/47 348/348/47
f 345/345/47 346/346/47 349/349/47
f 347/347/2 350/350/2 349/349/2
f 347/347/2 349/349/2 346/346/2
f 348/348/47 336/336/47 333/333/47
f 348/348/47 349/349/47 336/336/47
f 350/350/2 337/337/2 336/336/2
f 350/350/2 336/336/2 349/349/2
f 351/351/48 353/353/48 352/352/48
f 351/351/48 354/354/48 353/353/48
f 355/355/2 356/356/2 353/353/2
f 355/355/2 353/353/2 354/354/2
f 357/357/49 359/359/49 358/358/49
f 357/357/49 360/360/49 359/359/49
f 361/361/2 362/362/2 359/359/2
f 361/361/2 359/359/2 360/360/2
f 358/358/49 364/364/49 363/363/49
f 358/358/49 359/359/49 364/364/49
f 362/362/2 365/365/2 364/364/2
f 362/362/2 364/364/2 359/359/2
f 366/366/50 368/368/50 367/367/50
f 366/366/50 369/369/50 368/368/50
f 370/370/2 371/371/2 368/368/2
f 370/370/2 368/368/2 369/369/2
f 367/367/51 373/373/51 372/372/51
f 367/367/51 368/368/51 373/373/51
f 371/371/2 374/374/2 373/373/2
f 371/371/2 373/373/2 368/368/2
f 372/372/52 376/376/52 375/375/52
f 372/372/52 373/373/52 376/376/52
f 374/374/2 377/377/2 376/376/2
f 374/374/2 376/376/2 373/373/2
f 375/375/52 379/379/52 378/378/52
f 375/375/52 376/376/52 379/379/52
f 377/377/2 380/380/2 379/379/2
f 377/377/2 379/379/2 376/376/2
f 378/378/52 382/382/52 381/381/52
f 378/378/52 379/379/52 382/382/52
f 380/380/2 383/383/2 382/382/2
f 380/380/2 382/382/2 379/379/2
f 381/381/52 354/354/52 351/351/52
f 381/381/52 382/382/52 354/354/52
f 383/383/2 355/355/2 354/354/2
f 383/383/2 354/354/2 382/382/2
f 384/384/53 386/386/53 385/385/53
f 384/384/53 387/387/53 386/386/53
f 388/388/2 389/389/2 386/386/2
f 388/388/2 386/386/2 387/387/2
f 385/385/53 391/391/53 390/390/53
f 385/385/53 386/386/53 391/391/53
f 389/389/2 392/392/2 391/391/2
f 389/389/2 391/391/2 386/386/2
f 390/390/54 394/394/54 393/393/54
f 390/390/54 391/391/54 394/394/54
f 392/392/2 395/395/2 394/394/2
f 392/392/2 394/394/2 391/391/2
f 393/393/55 397/397/55 396/396/55
f 393/393/55 394/394/55 397/397/55
f 395/395/2 398/398/2 397/397/2
f 395/395/2 397/397/2 394/394/2
f 396/396/56 400/400/56 399/399/56
f 396/396/56 397/397/56 400/400/56
f 398/398/2 401/401/2 400/400/2
f 398/398/2 400/400/2 397/397/2
f 399/399/56 403/403/56 402/402/56
f 399/399/56 400/400/56 403/403/56
f 401/401/2 404/404/2 403/403/2
f 401/401/2 403/403/2 400/400/2
f 405/405/57 407/407/57 406/406/57
f 405/405/57 408/408/57 407/407/57
f 409/409/2 410/410/2 407/407/2
f 409/409/2 407/407/2 408/408/2
f 411/411/58 413/413/58 412/412/58
f 411/411/58 414/414/58 413/413/58
f 415/415/2 416/416/2 413/413/2
f 415/415/2 413/413/2 414/414/2
f 412/412/57 418/418/57 417/417/57
f 412/412/57 413/413/57 418/418/57
f 416/416/2 419/419/2 418/418/2
f 416/416/2 418/418/2 413/413/2
f 417/417/57 408/408/57 405/405/57
f 417/417/57 418/418/57 408/408/57
f 419/419/2 409/409/2 408/408/2
f 419/419/2 408/408/2 418/418/2
f 420/420/59 422/422/59 421/421/59
f 420/420/59 423/423/59 422/422/59
f 424/424/2 425/425/2 422/422/2
f 424/424/2 422/422/2 423/423/2
f 426/426/60 428/428/60 427/427/60
f 426/426/60 429/429/60 428/428/60
f 430/430/2 431/431/2 428/428/2
f 430/430/2 428/428/2 429/429/2
f 427/427/61 433/433/61 432/432/61
f 427/427/61 428/428/61 433/433/61
f 431/431/2 434/434/2 433/433/2
f 431/431/2 433/433/2 428/428/2
f 432/432/61 423/423/61 420/420/61
f 432/432/61 433/433/61 423/423/61
f 434/434/2 424/424/2 423/423/2
f 434/434/2 423/423/2 433/433/2
f 435/435/62 437/437/62 436/436/62
f 435/435/62 438/438/62 437/437/62
f 439/439/2 440/440/2 437/437/2
f 439/439/2 437/437/2 438/438/2
f 436/436/62 442/442/62 441/441/62
f 436/436/62 437/437/62 442/442/62
f 440/440/2 443/443/2 442/442/2
f 440/440/2 442/442/2 437/437/2
f 441/441/63 445/445/63 444/444/63
f 441/441/63 442/442/63 445/445/63
f 443/443/2 446/446/2 445/445/2
f 443/443/2 445/445/2 442/442/2
f 447/447/64 449/449/64 448/448/64
f 447/447/64 450/450/64 449/449/64
f 451/451/2 452/452/2 449/449/2
f 451/451/2 449/449/2 450/450/2
f 448/448/64 454/454/64 453/453/64
f 448/448/64 449/449/64 454/454/64
f 452/452/2 455/455/2 454/454/2
f 452/452/2 454/454/2 449/449/2
f 453/453/65 457/457/65 456/456/65
f 453/453/65 454/454/65 457/457/65
f 455/455/2 458/458/2 457/457/2
f 455/455/2 457/457/2 454/454/2
f 456/456/66 460/460/66 459/459/66
f 456/456/66 457/457/66 460/460/66
f 458/458/2 461/461/2 460/460/2
f 458/458/2 460/460/2 457/457/2
f 459/459/67 463/463/67 462/462/67
f 459/459/67 460/460/67 463/463/67
f 461/461/2 464/464/2 463/463/2
f 461/461/2 463/463/2 460/460/2
f 462/462/67 466/466/67 465/465/67
f 462/462/67 463/463/67 466/466/67
f 464/464/2 467/467/2 466/466/2
f 464/464/2 466/466/2 463/463/2
f 468/468/68 470/470/68 469/469/68
f 468/468/68 471/471/68 470/470/68
f 472/472/2 473/473/2 470/470/2
f 472/472/2 470/470/2 471/471/2
f 469/469/68 475/475/68 474/474/68
f 469/469/68 470/470/68 475/475/68
f 473/473/2 476/476/2 475/475/2
f 473/473/2 475/475/2 470/470/2
f 474/474/68 478/478/68 477/477/68
f 474/474/68 475/475/68 478/478/68
f 476/476/2 479/479/2 478/478/2
f 476/476/2 478/478/2 475/475/2
f 477/477/69 481/481/69 480/480/69
f 477/477/69 478/478/69 481/481/69
f 479/479/2 482/482/2 481/481/2
f 479/479/2 481/481/2 478/478/2
f 483/483/70 485/485/70 484/484/70
f 483/483/70 486/486/70 485/485/70
f 487/487/2 488/488/2 485/485/2
f 487/487/2 485/485/2 486/486/2
f 484/484/70 471/471/70 468/468/70
f 484/484/70 485/485/70 471/471/70
f 488/488/2 472/472/2 471/471/2
f 488/488/2 471/471/2 485/485/2
f 489/489/71 491/491/71 490/490/71
f 489/489/71 492/492/71 491/491/71
f 493/493/2 494/494/2 491/491/2
f 493/493/2 491/491/2 492/492/2
f 490/490/71 496/496/71 495/495/71
f 490/490/71 491/491/71 496/496/71
f 494/494/2 497/497/2 496/496/2
f 494/494/2 496/496/2 491/491/2
f 495/495/71 499/499/71 498/498/71
f 495/495/71 496/496/71 499/499/71
f 497/497/2 500/500/2 499/499/2
f 497/497/2 499/499/2 496/496/2
f 498/498/71 502/502/71 501/501/71
f 498/498/71 499/499/71 502/502/71
f 500/500/2 503/503/2 502/502/2
f 500/500/2 502/502/2 499/499/2
f 501/501/72 505/505/72 504/504/72
f 501/501/72 502/502/72 505/505/72
f 503/503/2 506/506/2 505/505/2
f 503/503/2 505/505/2 502/502/2
f 504/504/73 508/508/73 507/507/73
f 504/504/73 505/505/73 508/508/73
f 506/506/2 509/509/2 508/508/2
f 506/506/2 508/508/2 505/505/2
f 507/507/73 511/511/73 510/510/73
f 507/507/73 508/508/73 511/511/73
f 509/509/2 512/512/2 511/511/2
f 509/509/2 511/511/2 508/508/2
f 510/510/74 514/514/74 513/513/74
f 510/510/74 511/511/74 514/514/74
f 512/512/2 515/515/2 514/514/2
f 512/512/2 514/514/2 511/511/2
f 513/513/74 517/517/74 516/516/74
f 513/513/74 514/514/74 517/517/74
f 515/515/2 518/518/2 517/517/2
f 515/515/2 517/517/2 514/514/2
f 519/519/75 521/521/75 520/520/75
f 519/519/75 522/522/75 521/521/75
f 523/523/2 524/524/2 521/521/2
f 523/523/2 521/521/2 522/522/2
f 520/520/75 526/526/75 525/525/75
f 520/520/75 521/521/75 526/526/75
f 524/524/2 527/527/2 526/526/2
f 524/524/2 526/526/2 521/521/2
f 525/525/76 529/529/76 528/528/76
f 525/525/76 526/526/76 529/529/76
f 527/527/2 530/530/2 529/529/2
f 527/527/2 529/529/2 526/526/2
f 528/528/76 532/532/76 531/531/76
f 528/528/76 529/529/76 532/532/76
f 530/530/2 533/533/2 532/532/2
f 530/530/2 532/532/2 529/529/2
f 531/531/76 535/535/76 534/534/76
f 531/531/76 532/532/76 535/535/76
f 533/533/2 536/536/2 535/535/2
f 533/533/2 535/535/2 532/532/2
f 534/534/76 538/538/76 537/537/76
f 534/534/76 535/535/76 538/538/76
f 536/536/2 539/539/2 538/538/2
f 536/536/2 538/538/2 535/535/2
f 540/540/77 542/542/77 541/541/77
f 540/540/77 543/543/77 542/542/77
f 544/544/2 545/545/2 542/542/2
f 544/544/2 542/542/2 543/543/2
f 541/541/78 547/547/78 546/546/78
f 541/541/78 542/542/78 547/547/78
f 545/545/2 548/548/2 547/547/2
f 545/545/2 547/547/2 542/542/2
f 546/546/78 550/550/78 549/549/78
f 546/546/78 547/547/78 550/550/78
f 548/548/2 551/551/2 550/550/2
f 548/548/2 550/550/2 547/547/2
f 552/552/79 554/554/79 553/553/79
f 552/552/79 555/555/79 554/554/79
f 556/556/2 557/557/2 554/554/2
f 556/556/2 554/554/2 555/555/2
f 553/553/79 559/559/79 558/558/79
f 553/553/79 554/554/79 559/559/79
f 557/557/2 560/560/2 559/559/2
f 557/557/2 559/559/2 554/554/2
f 558/558/79 562/562/79 561/561/79
f 558/558/79 559/559/79 562/562/79
f 560/560/2 563/563/2 562/562/2
f 560/560/2 562/562/2 559/559/2
f 564/564/80 555/555/80 552/552/80
f 564/564/80 565/565/80 555/555/80
f 566/566/2 556/556/2 555/555/2
f 566/566/2 555/555/2 565/565/2
f 567/567/81 569/569/81 568/568/81
f 567/567/81 570/570/81 569/569/81
f 571/571/2 572/572/2 569/569/2
f 571/571/2 569/569/2 570/570/2
f 568/568/81 574/574/81 573/573/81
f 568/568/81 569/569/81 574/574/81
f 572/572/2 575/575/2 574/574/2
f 572/572/2 574/574/2 569/569/2
f 573/573/82 577/577/82 576/576/82
f 573/573/82 574/574/82 577/577/82
f 575/575/2 578/578/2 577/577/2
f 575/575/2 577/577/2 574/574/2
f 576/576/82 580/580/82 579/579/82
f 576/576/82 577/577/82 580/580/82
f 578/578/2 581/581/2 580/580/2
f 578/578/2 580/580/2 577/577/2
f 579/579/83 583/583/83 582/582/83
f 579/579/83 580/580/83 583/583/83
f 581/581/2 584/584/2 583/583/2
f 581/581/2 583/583/2 580/580/2
f 582/582/83 586/586/83 585/585/83
f 582/582/83 583/583/83 586/586/83
f 584/584/2 587/587/2 586/586/2
f 584/584/2 586/586/2 583/583/2
f 585/585/83 589/589/83 588/588/83
f 585/585/83 586/586/83 589/589/83
f 587/587/2 590/590/2 589/589/2
f 587/587/2 589/589/2 586/586/2
f 591/591/84 593/593/84 592/592/84
f 591/591/84 594/594/84 593/593/84
f 595/595/2 596/596/2 593/593/2
f 595/595/2 593/593/2 594/594/2
f 592/592/85 598/598/85 597/597/85
f 592/592/85 593/593/85 598/598/85
f 596/596/2 599/599/2 598/598/2
f 596/596/2 598/598/2 593/593/2
f 597/597/85 601/601/85 600/600/85
f 597/597/85 598/598/85 601/601/85
f 599/599/2 602/602/2 601/601/2
f 599/599/2 601/601/2 598/598/2
f 600/600/85 604/604/85 603/603/85
f 600/600/85 601/601/85 604/604/85
f 602/602/2 605/605/2 604/604/2
f 602/602/2 604/604/2 601/601/2
f 603/603/86 607/607/86 606/606/86
f 603/603/86 604/604/86 607/607/86
f 605/605/2 608/608/2 607/607/2
f 605/605/2 607/607/2 604/604/2
f 606/606/86 610/610/86 609/609/86
f 606/606/86 607/607/86 610/610/86
f 608/608/2 611/611/2 610/610/2
f 608/608/2 610/610/2 607/607/2
f 612/612/87 614/614/87 613/613/87
f 612/612/87 615/615/87 614/614/87
f 616/616/2 617/617/2 614/614/2
f 616/616/2 614/614/2 615/615/2
f 613/613/87 619/619/87 618/618/87
f 613/613/87 614/614/87 619/619/87
f 617/617/2 620/620/2 619/619/2
f 617/617/2 619/619/2 614/614/2
f 618/618/87 622/622/87 621/621/87
f 618/618/87 619/619/87 622/622/87
f 620/620/2 623/623/2 622/622/2
f 620/620/2 622/622/2 619/619/2
f 621/621/88 625/625/88 624/624/88
f 621/621/88 622/622/88 625/625/88
f 623/623/2 626/626/2 625/625/2
f 623/623/2 625/625/2 622/622/2
f 627/627/89 615/615/89 612/612/89
f 627/627/89 628/628/89 615/615/89
f 629/629/2 616/616/2 615/615/2
f 629/629/2 615/615/2 628/628/2
f 630/630/90 632/632/90 631/631/90
f 630/630/90 633/633/90 632/632/90
f 634/634/2 635/635/2 632/632/2
f 634/634/2 632/632/2 633/633/2
f 636/636/91 638/638/91 637/637/91
f 636/636/91 639/639/91 638/638/91
f 640/640/2 641/641/2 638/638/2
f 640/640/2 638/638/2 639/639/2
f 637/637/91 643/643/91 642/642/91
f 637/637/91 638/638/91 643/643/91
f 641/641/2 644/644/2 643/643/2
f 641/641/2 643/643/2 638/638/2
f 645/645/92 647/647/92 646/646/92
f 645/645/92 648/648/92 647/647/92
f 649/649/2 650/650/2 647/647/2
f 649/649/2 647/647/2 648/648/2
f 646/646/92 652/652/92 651/651/92
f 646/646/92 647/647/92 652/652/92
f 650/650/2 653/653/2 652/652/2
f 650/650/2 652/652/2 647/647/2
f 651/651/92 655/655/92 654/654/92
f 651/651/92 652/652/92 655/655/92
f 653/653/2 656/656/2 655/655/2
f 653/653/2 655/655/2 652/652/2
f 654/654/92 658/658/92 657/657/92
f 654/654/92 655/655/92 658/658/92
f 656/656/2 659/659/2 658/658/2
f 656/656/2 658/658/2 655/655/2
f 657/657/92 633/633/92 630/630/92
f 657/657/92 658/658/92 633/633/92
f 659/659/2 634/634/2 633/633/2
f 659/659/2 633/633/2 658/658/2
f 660/660/93 662/662/93 661/661/93
f 660/660/93 663/663/93 662/662/93
f 664/664/2 665/665/2 662/662/2
f 664/664/2 662/662/2 663/663/2
f 661/661/93 667/667/93 666/666/93
f 661/661/93 662/662/93 667/667/93
f 665/665/2 668/668/2 667/667/2
f 665/665/2 667/667/2 662/662/2
f 666/666/93 670/670/93 669/669/93
f 666/666/93 667/667/93 670/670/93
f 668/668/2 671/671/2 670/670/2
f 668/668/2 670/670/2 667/667/2
f 669/669/94 673/673/94 672/672/94
f 669/669/94 670/670/94 673/673/94
f 671/671/2 674/674/2 673/673/2
f 671/671/2 673/673/2 670/670/2
f 672/672/94 676/676/94 675/675/94
f 672/672/94 673/673/94 676/676/94
f 674/674/2 677/677/2 676/676/2
f 674/674/2 676/676/2 673/673/2
f 675/675/94 679/679/94 678/678/94
f 675/675/94 676/676/94 679/679/94
f 677/677/2 680/680/2 679/679/2
f 677/677/2 679/679/2 676/676/2
f 678/678/95 682/682/95 681/681/95
f 678/678/95 679/679/95 682/682/95
f 680/680/2 683/683/2 682/682/2
f 680/680/2 682/682/2 679/679/2
f 684/684/96 686/686/96 685/685/96
f 684/684/96 687/687/96 686/686/96
f 688/688/2 689/689/2 686/686/2
f 688/688/2 686/686/2 687/687/2
f 685/685/96 691/691/96 690/690/96
f 685/685/96 686/686/96 691/691/96
f 689/689/2 692/692/2 691/691/2
f 689/689/2 691/691/2 686/686/2
f 690/690/96 663/663/96 660/660/96
f 690/690/96 691/691/96 663/663/96
f 692/692/2 664/664/2 663/663/2
f 692/692/2 663/663/2 691/691/2
f 693/693/97 695/695/97 694/694/97
f 693/693/97 696/696/97 695/695/97
f 697/697/2 698/698/2 695/695/2
f 697/697/2 695/695/2 696/696/2
f 699/699/98 701/701/98 700/700/98
f 699/699/98 702/702/98 701/701/98
f 703/703/2 704/704/2 701/701/2
f 703/703/2 701/701/2 702/702/2
f 700/700/98 696/696/98 693/693/98
f 700/700/98 701/701/98 696/696/98
f 704/704/2 697/697/2 696/696/2
f 704/704/2 696/696/2 701/701/2
f 705/705/99 707/707/99 706/706/99
f 705/705/99 708/708/99 707/707/99
f 709/709/2 710/710/2 707/707/2
f 709/709/2 707/707/2 708/708/2
f 706/706/99 712/712/99 711/711/99
f 706/706/99 707/707/99 712/712/99
f 710/710/2 713/713/2 712/712/2
f 710/710/2 712/712/2 707/707/2
f 714/714/100 708/708/100 705/705/100
f 714/714/100 715/715/100 708/708/100
f 716/716/2 709/709/2 708/708/2
f 716/716/2 708/708/2 715/715/2
f 717/717/101 719/719/101 718/718/101
f 717/717/101 720/720/101 719/719/101
f 721/721/2 722/722/2 719/719/2
f 721/721/2 719/719/2 720/720/2
f 718/718/101 724/724/101 723/723/101
f 718/718/101 719/719/101 724/724/101
f 722/722/2 725/725/2 724/724/2
f 722/722/2 724/724/2 719/719/2
f 723/723/101 727/727/101 726/726/101
f 723/723/101 724/724/101 727/727/101
f 725/725/2 728/728/2 727/727/2
f 725/725/2 727/727/2 724/724/2
f 726/726/102 730/730/102 729/729/102
f 726/726/102 727/727/102 730/730/102
f 728/728/2 731/731/2 730/730/2
f 728/728/2 730/730/2 727/727/2
f 729/729/102 733/733/102 732/732/102
f 729/729/102 730/730/102 733/733/102
f 731/731/2 734/734/2 733/733/2
f 731/731/2 733/733/2 730/730/2
f 732/732/102 736/736/102 735/735/102
f 732/732/102 733/733/102 736/736/102
f 734/734/2 737/737/2 736/736/2
f 734/734/2 736/736/2 733/733/2
f 735/735/102 739/739/102 738/738/102
f 735/735/102 736/736/102 739/739/102
f 737/737/2 740/740/2 739/739/2
f 737/737/2 739/739/2 736/736/2
f 738/738/103 742/742/103 741/741/103
f 738/738/103 739/739/103 742/742/103
f 740/740/2 743/743/2 742/742/2
f 740/740/2 742/742/2 739/739/2
f 744/744/104 746/746/104 745/745/104
f 744/744/104 747/747/104 746/746/104
f 748/748/2 749/749/2 746/746/2
f 748/748/2 746/746/2 747/747/2
f 745/745/104 751/751/104 750/750/104
f 745/745/104 746/746/104 751/751/104
f 749/749/2 752/752/2 751/751/2
f 749/749/2 751/751/2 746/746/2
f 750/750/105 754/754/105 753/753/105
f 750/750/105 751/751/105 754/754/105
f 752/752/2 755/755/2 754/754/2
f 752/752/2 754/754/2 751/751/2
f 753/753/105 757/757/105 756/756/105
f 753/753/105 754/754/105 757/757/105
f 755/755/2 758/758/2 757/757/2
f 755/755/2 757/757/2 754/754/2
f 756/756/105 760/760/105 759/759/105
f 756/756/105 757/757/105 760/760/105
f 758/758/2 761/761/2 760/760/2
f 758/758/2 760/760/2 757/757/2
f 759/759/106 763/763/106 762/762/106
f 759/759/106 760/760/106 763/763/106
f 761/761/2 764/764/2 763/763/2
f 761/761/2 763/763/2 760/760/2
f 765/765/107 767/767/107 766/766/107
f 765/765/107 768/768/107 767/767/107
f 769/769/2 770/770/2 767/767/2
f 769/769/2 767/767/2 768/768/2
f 766/766/107 772/772/107 771/771/107
f 766/766/107 767/767/107 772/772/107
f 770/770/2 773/773/2 772/772/2
f 770/770/2 772/772/2 767/767/2
f 771/771/107 775/775/107 774/774/107
f 771/771/107 772/772/107 775/775/107
f 773/773/2 776/776/2 775/775/2
f 773/773/2 775/775/2 772/772/2
f 774/774/107 778/778/107 777/777/107
f 774/774/107 775/775/107 778/778/107
f 776/776/2 779/779/2 778/778/2
f 776/776/2 778/778/2 775/775/2
f 777/777/108 781/781/108 780/780/108
f 777/777/108 778/778/108 781/781/108
f 779/779/2 782/782/2 781/781/2
f 779/779/2 781/781/2 778/778/2
f 780/780/108 784/784/108 783/783/108
f 780/780/108 781/781/108 784/784/108
f 782/782/2 785/785/2 784/784/2
f 782/782/2 784/784/2 781/781/2
f 786/786/109 788/788/109 787/787/109
f 786/786/109 789/789/109 788/788/109
f 790/790/2 791/791/2 788/788/2
f 790/790/2 788/788/2 789/789/2
f 787/787/109 793/793/109 792/792/109
f 787/787/109 788/788/109 793/793/109
f 791/791/2 794/794/2 793/793/2
f 791/791/2 793/793/2 788/788/2
f 792/792/110 796/796/110 795/795/110
f 792/792/110 793/793/110 796/796/110
f 794/794/2 797/797/2 796/796/2
f 794/794/2 796/796/2 793/793/2
f 795/795/110 799/799/110 798/798/110
f 795/795/110 796/796/110 799/799/110
f 797/797/2 800/800/2 799/799/2
f 797/797/2 799/799/2 796/796/2
f 798/798/110 802/802/110 801/801/110
f 798/798/110 799/799/110 802/802/110
f 800/800/2 803/803/2 802/802/2
f 800/800/2 802/802/2 799/799/2
f 801/801/110 805/805/110 804/804/110
f 801/801/110 802/802/110 805/805/110
f 803/803/2 806/806/2 805/805/2
f 803/803/2 805/805/2 802/802/2
f 804/804/111 808/808/111 807/807/111
f 804/804/111 805/805/111 808/808/111
f 806/806/2 809/809/2 808/808/2
f 806/806/2 808/808/2 805/805/2
f 807/807/111 811/811/111 810/810/111
f 807/807/111 808/808/111 811/811/111
f 809/809/2 812/812/2 811/811/2
f 809/809/2 811/811/2 808/808/2
f 813/813/112 815/815/112 814/814/112
f 813/813/112 816/816/112 815/815/112
f 817/817/2 818/818/2 815/815/2
f 817/817/2 815/815/2 816/816/2
f 819/819/113 821/821/113 820/820/113
f 819/819/113 822/822/113 821/821/113
f 823/823/2 824/824/2 821/821/2
f 823/823/2 821/821/2 822/822/2
f 820/820/113 826/826/113 825/825/113
f 820/820/113 821/821/113 826/826/113
f 824/824/2 827/827/2 826/826/2
f 824/824/2 826/826/2 821/821/2
f 828/828/114 830/830/114 829/829/114
f 828/828/114 831/831/114 830/830/114
f 832/832/2 833/833/2 830/830/2
f 832/832/2 830/830/2 831/831/2
f 829/829/114 835/835/114 834/834/114
f 829/829/114 830/830/114 835/835/114
f 833/833/2 836/836/2 835/835/2
f 833/833/2 835/835/2 830/830/2
f 834/834/115 816/816/115 813/813/115
f 834/834/115 835/835/115 816/816/115
f 836/836/2 817/817/2 816/816/2
f 836/836/2 816/816/2 835/835/2
f 837/837/116 839/839/116 838/838/116
f 837/837/116 840/840/116 839/839/116
f 841/841/2 842/842/2 839/839/2
f 841/841/2 839/839/2 840/840/2
f 838/838/116 844/844/116 843/843/116
f 838/838/116 839/839/116 844/844/116
f 842/842/2 845/845/2 844/844/2
f 842/842/2 844/844/2 839/839/2
f 843/843/117 847/847/117 846/846/117
f 843/843/117 844/844/117 847/847/117
f 845/845/2 848/848/2 847/847/2
f 845/845/2 847/847/2 844/844/2
f 849/849/118 851/851/118 850/850/118
f 849/849/118 852/852/118 851/851/118
f 853/853/2 854/854/2 851/851/2
f 853/853/2 851/851/2 852/852/2
f 850/850/118 856/856/118 855/855/118
f 850/850/118 851/851/118 856/856/118
f 854/854/2 857/857/2 856/856/2
f 854/854/2 856/856/2 851/851/2
f 855/855/119 859/859/119 858/858/119
f 855/855/119 856/856/119 859/859/119
f 857/857/2 860/860/2 859/859/2
f 857/857/2 859/859/2 856/856/2
f 858/858/119 862/862/119 861/861/119
f 858/858/119 859/859/119 862/862/119
f 860/860/2 863/863/2 862/862/2
f 860/860/2 862/862/2 859/859/2
f 861/861/120 865/865/120 864/864/120
f 861/861/120 862/862/120 865/865/120
f 863/863/2 866/866/2 865/865/2
f 863/863/2 865/865/2 862/862/2
f 867/867/121 869/869/121 868/868/121
f 867/867/121 870/870/121 869/869/121
f 871/871/2 872/872/2 869/869/2
f 871/871/2 869/869/2 870/870/2
f 868/868/121 874/874/121 873/873/121
f 868/868/121 869/869/121 874/874/121
f 872/872/2 875/875/2 874/874/2
f 872/872/2 874/874/2 869/869/2
f 873/873/121 877/877/121 876/876/121
f 873/873/121 874/874/121 877/877/121
f 875/875/2 878/878/2 877/877/2
f 875/875/2 877/877/2 874/874/2
f 879/879/122 881/881/122 880/880/122
f 879/879/122 882/882/122 881/881/122
f 883/883/2 884/884/2 881/881/2
f 883/883/2 881/881/2 882/882/2
f 880/880/122 886/886/122 885/885/122
f 880/880/122 881/881/122 886/886/122
f 884/884/2 887/887/2 886/886/2
f 884/884/2 886/886/2 881/881/2
f 885/885/123 889/889/123 888/888/123
f 885/885/123 886/886/123 889/889/123
f 887/887/2 890/890/2 889/889/2
f 887/887/2 889/889/2 886/886/2
f 888/888/123 892/892/123 891/891/123
f 888/888/123 889/889/123 892/892/123
f 890/890/2 893/893/2 892/892/2
f 890/890/2 892/892/2 889/889/2
f 891/891/123 895/895/123 894/894/123
f 891/891/123 892/892/123 895/895/123
f 893/893/2 896/896/2 895/895/2
f 893/893/2 895/895/2 892/892/2
f 894/894/123 898/898/123 897/897/123
f 894/894/123 895/895/123 898/898/123
f 896/896/2 899/899/2 898/898/2
f 896/896/2 898/898/2 895/895/2
f 897/897/124 901/901/124 900/900/124
f 897/897/124 898/898/124 901/901/124
f 899/899/2 902/902/2 901/901/2
f 899/899/2 901/901/2 898/898/2
f 900/900/124 904/904/124 903/903/124
f 900/900/124 901/901/124 904/904/124
f 902/902/2 905/905/2 904/904/2
f 902/902/2 904/904/2 901/901/2
f 903/903/124 907/907/124 906/906/124
f 903/903/124 904/904/124 907/907/124
f 905/905/2 908/908/2 907/907/2
f 905/905/2 907/907/2 904/904/2
f 906/906/124 910/910/124 909/909/124
f 906/906/124 907/907/124 910/910/124
f 908/908/2 911/911/2 910/910/2
f 908/908/2 910/910/2 907/907/2
f 909/909/125 913/913/125 912/912/125
f 909/909/125 910/910/125 913/913/125
f 911/911/2 914/914/2 913/913/2
f 911/911/2 913/913/2 910/910/2
f 912/912/125 916/916/125 915/915/125
f 912/912/125 913/913/125 916/916/125
f 914/914/2 917/917/2 916/916/2
f 914/914/2 916/916/2 913/913/2
f 915/915/125 919/919/125 918/918/125
f 915/915/125 916/916/125 919/919/125
f 917/917/2 920/920/2 919/919/2
f 917/917/2 919/919/2 916/916/2
f 918/918/125 922/922/125 921/921/125
f 918/918/125 919/919/125 922/922/125
f 920/920/2 923/923/2 922/922/2
f 920/920/2 922/922/2 919/919/2
f 921/921/126 882/882/126 879/879/126
f 921/921/126 922/922/126 882/882/126
f 923/923/2 883/883/2 882/882/2
f 923/923/2 882/882/2 922/922/2
f 924/924/127 926/926/127 925/925/127
f 924/924/127 927/927/127 926/926/127
f 928/928/2 929/929/2 926/926/2
f 928/928/2 926/926/2 927/927/2
f 925/925/127 931/931/127 930/930/127
f 925/925/127 926/926/127 931/931/127
f 929/929/2 932/932/2 931/931/2
f 929/929/2 931/931/2 926/926/2
f 930/930/128 934/934/128 933/933/128
f 930/930/128 931/931/128 934/934/128
f 932/932/2 935/935/2 934/934/2
f 932/932/2 934/934/2 931/931/2
f 933/933/128 937/937/128 936/936/128
f 933/933/128 934/934/128 937/937/128
f 935/935/2 938/938/2 937/937/2
f 935/935/2 937/937/2 934/934/2
f 936/936/128 940/940/128 939/939/128
f 936/936/128 937/937/128 940/940/128
f 938/938/2 941/941/2 940/940/2
f 938/938/2 940/940/2 937/937/2
f 939/939/129 943/943/129 942/942/129
f 939/939/129 940/940/129 943/943/129
f 941/941/2 944/944/2 943/943/2
f 941/941/2 943/943/2 940/940/2
f 945/945/130 947/947/130 946/946/130
f 945/945/130 948/948/130 947/947/130
f 949/949/2 950/950/2 947/947/2
f 949/949/2 947/947/2 948/948/2
f 946/946/130 952/952/130 951/951/130
f 946/946/130 947/947/130 952/952/130
f 950/950/2 953/953/2 952/952/2
f 950/950/2 952/952/2 947/947/2
f 951/951/131 955/955/131 954/954/131
f 951/951/131 952/952/131 955/955/131
f 953/953/2 956/956/2 955/955/2
f 953/953/2 955/955/2 952/952/2
f 954/954/131 958/958/131 957/957/131
f 954/954/131 955/955/131 958/958/131
f 956/956/2 959/959/2 958/958/2
f 956/956/2 958/958/2 955/955/2
f 960/960/132 962/962/132 961/961/132
f 960/960/132 963/963/132 962/962/132
f 964/964/2 965/965/2 962/962/2
f 964/964/2 962/962/2 963/963/2
f 961/961/133 967/967/133 966/966/133
f 961/961/133 962/962/133 967/967/133
f 965/965/2 968/968/2 967/967/2
f 965/965/2 967/967/2 962/962/2
f 966/966/133 948/948/133 945/945/133
f 966/966/133 967/967/133 948/948/133
f 968/968/2 949/949/2 948/948/2
f 968/968/2 948/948/2 967/967/2
f 969/969/134 971/971/134 970/970/134
f 969/969/134 972/972/134 971/971/134
f 973/973/2 974/974/2 971/971/2
f 973/973/2 971/971/2 972/972/2
f 970/970/134 976/976/134 975/975/134
f 970/970/134 971/971/134 976/976/134
f 974/974/2 977/977/2 976/976/2
f 974/974/2 976/976/2 971/971/2
f 978/978/135 980/980/135 979/979/135
f 978/978/135 981/981/135 980/980/135
f 982/982/2 983/983/2 980/980/2
f 982/982/2 980/980/2 981/981/2
f 979/979/136 985/985/136 984/984/136
f 979/979/136 980/980/136 985/985/136
f 983/983/2 986/986/2 985/985/2
f 983/983/2 985/985/2 980/980/2
f 984/984/136 988/988/136 987/987/136
f 984/984/136 985/985/136 988/988/136
f 986/986/2 989/989/2 988/988/2
f 986/986/2 988/988/2 985/985/2
f 987/987/136 991/991/136 990/990/136
f 987/987/136 988/988/136 991/991/136
f 989/989/2 992/992/2 991/991/2
f 989/989/2 991/991/2 988/988/2
f 990/990/136 972/972/136 969/969/136
f 990/990/136 991/991/136 972/972/136
f 992/992/2 973/973/2 972/972/2
f 992/992/2 972/972/2 991/991/2
f 993/993/137 995/995/137 994/994/137
f 993/993/137 996/996/137 995/995/137
f 997/997/2 998/998/2 995/995/2
f 997/997/2 995/995/2 996/996/2
f 994/994/137 1000/1000/137 999/999/137
f 994/994/137 995/995/137 1000/1000/137
f 998/998/2 1001/1001/2 1000/1000/2
f 998/998/2 1000/1000/2 995/995/2
f 999/999/137 1003/1003/137 1002/1002/137
f 999/999/137 1000/1000/137 1003/1003/137
f 1001/1001/2 1004/1004/2 1003/1003/2
f 1001/1001/2 1003/1003/2 1000/1000/2
f 1002/1002/138 1006/1006/138 1005/1005/138
f 1002/1002/138 1003/1003/138 1006/1006/138
f 1004/1004/2 1007/1007/2 1006/1006/2
f 1004/1004/2 1006/1006/2 1003/1003/2
f 1005/1005/138 1009/1009/138 1008/1008/138
f 1005/1005/138 1006/1006/138 1009/1009/138
f 1007/1007/2 1010/1010/2 1009/1009/2
f 1007/1007/2 1009/1009/2 1006/1006/2
f 1008/1008/138 1012/1012/138 1011/1011/138
f 1008/1008/138 1009/1009/138 1012/1012/138
f 1010/1010/2 1013/1013/2 1012/1012/2
f 1010/1010/2 1012/1012/2 1009/1009/2
f 1011/1011/138 1015/1015/138 1014/1014/138
f 1011/1011/138 1012/1012/138 1015/1015/138
f 1013/1013/2 1016/1016/2 1015/1015/2
f 1013/1013/2 1015/1015/2 1012/1012/2
f 1014/1014/138 1018/1018/138 1017/1017/138
f 1014/1014/138 1015/1015/138 1018/1018/138
f 1016/1016/2 1019/1019/2 1018/1018/2
f 1016/1016/2 1018/1018/2 1015/1015/2
f 1020/1020/139 1022/1022/139 1021/1021/139
f 1020/1020/139 1023/1023/139 1022/1022/139
f 1024/1024/2 1025/1025/2 1022/1022/2
f 1024/1024/2 1022/1022/2 1023/1023/2
f 1021/1021/139 1027/1027/139 1026/1026/139
f 1021/1021/139 1022/1022/139 1027/1027/139
f 1025/1025/2 1028/1028/2 1027/1027/2
f 1025/1025/2 1027/1027/2 1022/1022/2
f 1029/1029/139 1031/1031/139 1030/1030/139
f 1029/1029/139 1032/1032/139 1031/1031/139
f 1033/1033/2 1034/1034/2 1031/1031/2
f 1033/1033/2 1031/1031/2 1032/1032/2
f 1030/1030/139 996/996/139 993/993/139
f 1030/1030/139 1031/1031/139 996/996/139
f 1034/1034/2 997/997/2 996/996/2
f 1034/1034/2 996/996/2 1031/1031/2
