# Unreal legacy OBJ adapter: canonical vertices are UE cm; this file is written with Y reflected and triangle winding reversed. One object, no g groups, so the importer creates exactly one material slot.
# OldCityFoundationV2 foundations (plinth + stepped footing); generator 463404ba754c804f514fe655944ece4eb51a92e1273fec326ad5c2ebfbb18f24
# AUTHORED detail in the style of Old City stone foundations, not survey
o SM_OldCityFoundationV2_Kept_P001_N005
s off
v 72427.15 203375.07 5113.90
v 72448.49 203375.07 5106.22
v 72448.49 203375.07 5138.90
v 72427.15 203375.07 5138.90
v 72419.40 203367.07 5138.90
v 72440.49 203367.07 5138.90
v 72448.49 202527.57 5106.22
v 72448.49 202527.57 5138.90
v 72440.49 202526.04 5138.90
v 72448.49 201600.57 5069.14
v 72448.49 201600.57 5138.90
v 72440.49 201606.12 5138.90
v 72448.49 201280.57 5081.94
v 72448.49 201280.57 5138.90
v 72440.49 201288.57 5138.90
v 72334.34 201280.57 5113.90
v 72334.34 201280.57 5138.90
v 72327.66 201288.57 5138.90
v 75273.06 208131.72 3785.90
v 75287.19 208131.35 3779.65
v 75287.19 208131.35 3810.90
v 75273.06 208131.72 3810.90
v 75264.94 208123.93 3810.90
v 75278.98 208123.56 3810.90
v 75286.79 208116.26 3778.62
v 75286.79 208116.26 3810.90
v 75278.59 208108.80 3810.90
v 75271.05 207527.57 3738.45
v 75271.05 207527.57 3810.90
v 75263.18 207532.43 3810.90
v 75266.77 207367.36 3753.15
v 75266.77 207367.36 3810.90
v 75258.99 207375.57 3810.90
v 75191.98 207369.37 3785.90
v 75191.98 207369.37 3810.90
v 75184.70 207377.57 3810.90
v 86560.85 210919.02 598.50
v 86752.79 210911.75 567.50
v 86752.79 210911.75 623.50
v 86560.85 210919.02 623.50
v 86554.84 210911.24 623.50
v 86744.49 210904.06 623.50
v 86752.51 210904.59 567.26
v 86752.51 210904.59 623.50
v 86744.21 210896.99 623.50
v 86718.27 210027.57 537.65
v 86718.27 210027.57 623.50
v 86710.40 210030.89 623.50
v 86702.67 209627.76 588.13
v 86702.67 209627.76 623.50
v 86694.99 209636.06 623.50
v 86635.91 209630.34 598.50
v 86635.91 209630.34 623.50
v 86629.02 209638.61 623.50
v 90722.53 206855.09 -433.30
v 90875.49 206001.34 -466.45
v 90875.49 206001.34 -408.30
v 90722.53 206855.09 -408.30
v 90715.72 206847.74 -408.30
v 90866.60 206005.56 -408.30
v 90905.27 205835.09 -464.57
v 90905.27 205835.09 -408.30
v 90895.99 205841.56 -408.30
v 90875.49 205829.78 -459.59
v 90875.49 205829.78 -408.30
v 90866.56 205836.31 -408.30
v 90816.69 205819.29 -433.30
v 90816.69 205819.29 -408.30
v 90808.48 205825.96 -408.30
v 93231.14 210629.54 -786.10
v 93375.49 210559.08 -806.24
v 93375.49 210559.08 -761.10
v 93231.14 210629.54 -761.10
v 93224.22 210624.02 -761.10
v 93366.82 210554.41 -761.10
v 93545.20 210476.24 -816.34
v 93545.20 210476.24 -761.10
v 93534.49 210472.56 -761.10
v 93375.49 210129.82 -823.41
v 93375.49 210129.82 -761.10
v 93366.94 210130.55 -761.10
v 93341.86 210061.19 -822.12
v 93341.86 210061.19 -761.10
v 93333.74 210062.80 -761.10
v 93325.39 210027.57 -821.49
v 93325.39 210027.57 -761.10
v 93317.48 210029.60 -761.10
v 93277.28 209929.36 -815.72
v 93277.28 209929.36 -761.10
v 93269.98 209932.64 -761.10
v 92992.16 209347.38 -793.38
v 92992.16 209347.38 -761.10
v 92988.49 209358.06 -761.10
v 92951.62 209367.12 -786.10
v 92951.62 209367.12 -761.10
v 92948.44 209377.57 -761.10
v 93731.36 203553.19 -839.70
v 93883.14 203585.56 -871.35
v 93883.14 203585.56 -814.70
v 93731.36 203553.19 -814.70
v 93727.00 203544.08 -814.70
v 93876.99 203576.07 -814.70
v 93979.92 203132.01 -872.57
v 93979.92 203132.01 -814.70
v 93972.60 203128.01 -814.70
v 94108.90 202527.57 -844.85
v 94108.90 202527.57 -814.70
v 94100.02 202530.89 -814.70
v 94115.53 202496.53 -839.70
v 94115.53 202496.53 -814.70
v 94106.56 202500.23 -814.70
v 95130.10 204676.97 -1164.40
v 95277.59 204725.15 -1195.82
v 95277.59 204725.15 -1139.40
v 95130.10 204676.97 -1139.40
v 95126.63 204667.42 -1139.40
v 95272.48 204715.07 -1139.40
v 95350.60 204502.68 -1201.53
v 95350.60 204502.68 -1139.40
v 95344.49 204495.64 -1139.40
v 95642.58 203612.95 -1177.07
v 95642.58 203612.95 -1139.40
v 95632.49 203618.07 -1139.40
v 95574.53 203590.73 -1164.40
v 95574.53 203590.73 -1139.40
v 95565.18 203596.09 -1139.40
v 99696.31 206142.48 -1677.76
v 99465.24 206117.32 -1658.27
v 99465.24 206117.32 -1622.30
v 99696.31 206142.48 -1622.30
v 99687.49 206149.56 -1622.30
v 99459.07 206124.69 -1622.30
v 99407.89 206111.07 -1647.30
v 99407.89 206111.07 -1622.30
v 99402.38 206118.52 -1622.30
v 99637.05 206683.97 -1647.30
v 99676.00 206328.08 -1683.56
v 99676.00 206328.08 -1622.30
v 99637.05 206683.97 -1622.30
v 99628.89 206684.95 -1622.30
v 99667.40 206333.07 -1622.30
v 99688.41 206214.64 -1680.02
v 99688.41 206214.64 -1622.30
v 99679.68 206220.91 -1622.30
vt -327.3698 12.7847
vt -327.3165 12.7656
vt -327.3165 12.8472
vt -327.3698 12.8472
vt -327.3692 12.8472
vt -327.3165 12.8472
vt -325.1977 12.7656
vt -325.1977 12.8472
vt -325.2139 12.8472
vt -322.8802 12.6729
vt -322.8802 12.8472
vt -322.9141 12.8472
vt -322.0802 12.7048
vt -322.0802 12.8472
vt -322.1202 12.8472
vt -322.3656 12.7847
vt -322.3656 12.8472
vt -322.4023 12.8472
vt -332.1467 9.4648
vt -332.1104 9.4491
vt -332.1104 9.5273
vt -332.1467 9.5273
vt -332.1475 9.5273
vt -332.1115 9.5273
vt -332.0737 9.4466
vt -332.0737 9.5273
vt -332.0755 9.5273
vt -330.6413 9.3461
vt -330.6413 9.5273
vt -330.6731 9.5273
vt -330.2515 9.3829
vt -330.2515 9.5273
vt -330.2915 9.5273
vt -330.4435 9.4648
vt -330.4435 9.5273
vt -330.4822 9.5273
vt -310.8954 1.4963
vt -310.3974 1.4187
vt -310.3974 1.5588
vt -310.8954 1.5588
vt -310.8910 1.5588
vt -310.3989 1.5588
vt -310.3802 1.4182
vt -310.3802 1.5588
vt -310.3819 1.5588
vt -308.2733 1.3441
vt -308.2733 1.5588
vt -308.3012 1.5588
vt -307.3127 1.4703
vt -307.3127 1.5588
vt -307.3527 1.5588
vt -307.4861 1.4963
vt -307.4861 1.5588
vt -307.5240 1.5588
vt -290.3314 -1.0833
vt -287.8146 -1.1661
vt -287.8146 -1.0208
vt -290.3314 -1.0208
vt -290.3300 -1.0208
vt -287.8474 -1.0208
vt -287.3245 -1.1614
vt -287.3245 -1.0208
vt -287.3639 -1.0208
vt -287.3857 -1.1490
vt -287.3857 -1.0208
vt -287.4244 -1.0208
vt -287.5065 -1.0833
vt -287.5065 -1.0208
vt -287.5437 -1.0208
vt -293.4960 -1.9653
vt -292.9590 -2.0156
vt -292.9590 -1.9028
vt -293.4960 -1.9028
vt -293.4995 -1.9028
vt -292.9690 -1.9028
vt -292.3276 -2.0409
vt -292.3276 -1.9028
vt -292.3452 -1.9028
vt -291.8858 -2.0585
vt -291.8858 -1.9028
vt -291.9090 -1.9028
vt -291.7983 -2.0553
vt -291.7983 -1.9028
vt -291.8226 -1.9028
vt -291.7554 -2.0537
vt -291.7554 -1.9028
vt -291.7803 -1.9028
vt -291.6302 -2.0393
vt -291.6302 -1.9028
vt -291.6567 -1.9028
vt -290.8881 -1.9834
vt -290.8881 -1.9028
vt -290.9239 -1.9028
vt -291.0387 -1.9653
vt -291.0387 -1.9028
vt -291.0728 -1.9028
vt -274.5546 -2.0993
vt -274.2561 -2.1784
vt -274.2561 -2.0368
vt -274.5546 -2.0368
vt -274.5427 -2.0368
vt -274.2477 -2.0368
vt -272.8802 -2.1814
vt -272.8802 -2.0368
vt -272.8885 -2.0368
vt -271.0467 -2.1121
vt -271.0467 -2.0368
vt -271.0772 -2.0368
vt -270.9525 -2.0993
vt -270.9525 -2.0368
vt -270.9842 -2.0368
vt -273.8672 -2.9110
vt -273.6189 -2.9895
vt -273.6189 -2.8485
vt -273.8672 -2.8485
vt -273.8520 -2.8485
vt -273.6065 -2.8485
vt -272.8802 -3.0038
vt -272.8802 -2.8485
vt -272.8779 -2.8485
vt -269.9259 -2.9427
vt -269.9259 -2.8485
vt -269.9640 -2.8485
vt -270.0405 -2.9110
vt -270.0405 -2.8485
vt -270.0773 -2.8485
vt -266.1154 -4.1944
vt -266.6302 -4.1457
vt -266.6302 -4.0557
vt -266.1154 -4.0557
vt -266.1552 -4.0557
vt -266.6640 -4.0557
vt -266.7579 -4.1182
vt -266.7579 -4.0557
vt -266.7903 -4.0557
vt -267.6173 -4.1182
vt -266.6302 -4.2089
vt -266.6302 -4.0557
vt -267.6173 -4.0557
vt -267.6402 -4.0557
vt -266.6642 -4.0557
vt -266.3156 -4.2001
vt -266.3156 -4.0557
vt -266.3531 -4.0557
vn 0.0000 1.0000 0.0000
vn -0.0000 -0.0000 1.0000
vn 1.0000 -0.0000 0.0000
vn 0.0000 -1.0000 0.0000
vn 0.0265 0.9996 0.0000
vn 0.9996 -0.0267 0.0000
vn -0.0269 -0.9996 0.0000
vn 0.0379 0.9993 0.0000
vn 0.9992 -0.0390 0.0000
vn -0.0386 -0.9993 0.0000
vn 0.9843 0.1764 0.0000
vn 0.1755 -0.9845 0.0000
vn 0.4387 0.8987 0.0000
vn 0.8980 -0.4400 0.0000
vn -0.4379 -0.8990 0.0000
vn -0.2086 0.9780 0.0000
vn 0.9780 0.2087 0.0000
vn -0.3106 0.9506 0.0000
vn 0.9501 0.3118 0.0000
vn 0.3105 -0.9506 0.0000
vn 0.1082 -0.9941 0.0000
vn 0.9941 0.1088 0.0000
f 1/1/1 3/3/1 2/2/1
f 1/1/1 4/4/1 3/3/1
f 5/5/2 6/6/2 3/3/2
f 5/5/2 3/3/2 4/4/2
f 2/2/3 8/8/3 7/7/3
f 2/2/3 3/3/3 8/8/3
f 6/6/2 9/9/2 8/8/2
f 6/6/2 8/8/2 3/3/2
f 7/7/3 11/11/3 10/10/3
f 7/7/3 8/8/3 11/11/3
f 9/9/2 12/12/2 11/11/2
f 9/9/2 11/11/2 8/8/2
f 10/10/3 14/14/3 13/13/3
f 10/10/3 11/11/3 14/14/3
f 12/12/2 15/15/2 14/14/2
f 12/12/2 14/14/2 11/11/2
f 13/13/4 17/17/4 16/16/4
f 13/13/4 14/14/4 17/17/4
f 15/15/2 18/18/2 17/17/2
f 15/15/2 17/17/2 14/14/2
f 19/19/5 21/21/5 20/20/5
f 19/19/5 22/22/5 21/21/5
f 23/23/2 24/24/2 21/21/2
f 23/23/2 21/21/2 22/22/2
f 20/20/6 26/26/6 25/25/6
f 20/20/6 21/21/6 26/26/6
f 24/24/2 27/27/2 26/26/2
f 24/24/2 26/26/2 21/21/2
f 25/25/6 29/29/6 28/28/6
f 25/25/6 26/26/6 29/29/6
f 27/27/2 30/30/2 29/29/2
f 27/27/2 29/29/2 26/26/2
f 28/28/6 32/32/6 31/31/6
f 28/28/6 29/29/6 32/32/6
f 30/30/2 33/33/2 32/32/2
f 30/30/2 32/32/2 29/29/2
f 31/31/7 35/35/7 34/34/7
f 31/31/7 32/32/7 35/35/7
f 33/33/2 36/36/2 35/35/2
f 33/33/2 35/35/2 32/32/2
f 37/37/8 39/39/8 38/38/8
f 37/37/8 40/40/8 39/39/8
f 41/41/2 42/42/2 39/39/2
f 41/41/2 39/39/2 40/40/2
f 38/38/9 44/44/9 43/43/9
f 38/38/9 39/39/9 44/44/9
f 42/42/2 45/45/2 44/44/2
f 42/42/2 44/44/2 39/39/2
f 43/43/9 47/47/9 46/46/9
f 43/43/9 44/44/9 47/47/9
f 45/45/2 48/48/2 47/47/2
f 45/45/2 47/47/2 44/44/2
f 46/46/9 50/50/9 49/49/9
f 46/46/9 47/47/9 50/50/9
f 48/48/2 51/51/2 50/50/2
f 48/48/2 50/50/2 47/47/2
f 49/49/10 53/53/10 52/52/10
f 49/49/10 50/50/10 53/53/10
f 51/51/2 54/54/2 53/53/2
f 51/51/2 53/53/2 50/50/2
f 55/55/11 57/57/11 56/56/11
f 55/55/11 58/58/11 57/57/11
f 59/59/2 60/60/2 57/57/2
f 59/59/2 57/57/2 58/58/2
f 56/56/11 62/62/11 61/61/11
f 56/56/11 57/57/11 62/62/11
f 60/60/2 63/63/2 62/62/2
f 60/60/2 62/62/2 57/57/2
f 61/61/12 65/65/12 64/64/12
f 61/61/12 62/62/12 65/65/12
f 63/63/2 66/66/2 65/65/2
f 63/63/2 65/65/2 62/62/2
f 64/64/12 68/68/12 67/67/12
f 64/64/12 65/65/12 68/68/12
f 66/66/2 69/69/2 68/68/2
f 66/66/2 68/68/2 65/65/2
f 70/70/13 72/72/13 71/71/13
f 70/70/13 73/73/13 72/72/13
f 74/74/2 75/75/2 72/72/2
f 74/74/2 72/72/2 73/73/2
f 71/71/13 77/77/13 76/76/13
f 71/71/13 72/72/13 77/77/13
f 75/75/2 78/78/2 77/77/2
f 75/75/2 77/77/2 72/72/2
f 76/76/14 80/80/14 79/79/14
f 76/76/14 77/77/14 80/80/14
f 78/78/2 81/81/2 80/80/2
f 78/78/2 80/80/2 77/77/2
f 79/79/14 83/83/14 82/82/14
f 79/79/14 80/80/14 83/83/14
f 81/81/2 84/84/2 83/83/2
f 81/81/2 83/83/2 80/80/2
f 82/82/14 86/86/14 85/85/14
f 82/82/14 83/83/14 86/86/14
f 84/84/2 87/87/2 86/86/2
f 84/84/2 86/86/2 83/83/2
f 85/85/14 89/89/14 88/88/14
f 85/85/14 86/86/14 89/89/14
f 87/87/2 90/90/2 89/89/2
f 87/87/2 89/89/2 86/86/2
f 88/88/14 92/92/14 91/91/14
f 88/88/14 89/89/14 92/92/14
f 90/90/2 93/93/2 92/92/2
f 90/90/2 92/92/2 89/89/2
f 91/91/15 95/95/15 94/94/15
f 91/91/15 92/92/15 95/95/15
f 93/93/2 96/96/2 95/95/2
f 93/93/2 95/95/2 92/92/2
f 97/97/16 99/99/16 98/98/16
f 97/97/16 100/100/16 99/99/16
f 101/101/2 102/102/2 99/99/2
f 101/101/2 99/99/2 100/100/2
f 98/98/17 104/104/17 103/103/17
f 98/98/17 99/99/17 104/104/17
f 102/102/2 105/105/2 104/104/2
f 102/102/2 104/104/2 99/99/2
f 103/103/17 107/107/17 106/106/17
f 103/103/17 104/104/17 107/107/17
f 105/105/2 108/108/2 107/107/2
f 105/105/2 107/107/2 104/104/2
f 106/106/17 110/110/17 109/109/17
f 106/106/17 107/107/17 110/110/17
f 108/108/2 111/111/2 110/110/2
f 108/108/2 110/110/2 107/107/2
f 112/112/18 114/114/18 113/113/18
f 112/112/18 115/115/18 114/114/18
f 116/116/2 117/117/2 114/114/2
f 116/116/2 114/114/2 115/115/2
f 113/113/19 119/119/19 118/118/19
f 113/113/19 114/114/19 119/119/19
f 117/117/2 120/120/2 119/119/2
f 117/117/2 119/119/2 114/114/2
f 118/118/19 122/122/19 121/121/19
f 118/118/19 119/119/19 122/122/19
f 120/120/2 123/123/2 122/122/2
f 120/120/2 122/122/2 119/119/2
f 121/121/20 125/125/20 124/124/20
f 121/121/20 122/122/20 125/125/20
f 123/123/2 126/126/2 125/125/2
f 123/123/2 125/125/2 122/122/2
f 127/127/21 129/129/21 128/128/21
f 127/127/21 130/130/21 129/129/21
f 131/131/2 132/132/2 129/129/2
f 131/131/2 129/129/2 130/130/2
f 128/128/21 134/134/21 133/133/21
f 128/128/21 129/129/21 134/134/21
f 132/132/2 135/135/2 134/134/2
f 132/132/2 134/134/2 129/129/2
f 136/136/22 138/138/22 137/137/22
f 136/136/22 139/139/22 138/138/22
f 140/140/2 141/141/2 138/138/2
f 140/140/2 138/138/2 139/139/2
f 137/137/22 143/143/22 142/142/22
f 137/137/22 138/138/22 143/143/22
f 141/141/2 144/144/2 143/143/2
f 141/141/2 143/143/2 138/138/2
f 142/142/22 130/130/22 127/127/22
f 142/142/22 143/143/22 130/130/22
f 144/144/2 131/131/2 130/130/2
f 144/144/2 130/130/2 143/143/2
