# Unreal legacy OBJ adapter: canonical vertices are UE cm; this file is written with Y reflected and triangle winding reversed. One object, no g groups, so the importer creates exactly one material slot.
# OldCityFoundationV2 foundations (plinth + stepped footing); generator 463404ba754c804f514fe655944ece4eb51a92e1273fec326ad5c2ebfbb18f24
# AUTHORED detail in the style of Old City stone foundations, not survey
o SM_OldCityFoundationV2_Kept_P002_P000
s off
v 120419.24 -46381.21 -7491.00
v 120799.69 -46281.16 -7521.44
v 120799.69 -46281.16 -7466.00
v 120419.24 -46381.21 -7466.00
v 120418.36 -46389.71 -7466.00
v 120793.99 -46290.93 -7466.00
v 120875.49 -46569.27 -7527.50
v 120875.49 -46569.27 -7466.00
v 120868.60 -46574.54 -7466.00
v 121060.26 -47271.64 -7520.11
v 121060.26 -47271.64 -7466.00
v 121050.49 -47265.93 -7466.00
v 120875.49 -47320.15 -7527.50
v 120875.49 -47320.15 -7466.00
v 120868.05 -47313.83 -7466.00
v 120754.87 -47351.82 -7517.85
v 120754.87 -47351.82 -7466.00
v 120748.97 -47345.09 -7466.00
v 120419.24 -47439.94 -7491.00
v 120419.24 -47439.94 -7466.00
v 120417.59 -47432.10 -7466.00
v 120868.24 -15747.23 -2868.70
v 120069.44 -15778.48 -2914.40
v 120069.44 -15778.48 -2843.70
v 120868.24 -15747.23 -2843.70
v 120866.69 -15739.28 -2843.70
v 120073.65 -15770.31 -2843.70
v 119473.98 -15801.77 -2902.70
v 119473.98 -15801.77 -2843.70
v 119482.48 -15793.43 -2843.70
v 119477.81 -15736.10 -2868.70
v 119477.81 -15736.10 -2843.70
v 119486.27 -15728.46 -2843.70
v 126078.06 -50620.37 -7404.80
v 125875.49 -50350.14 -7442.61
v 125875.49 -50350.14 -7379.80
v 126078.06 -50620.37 -7379.80
v 126085.01 -50616.31 -7379.80
v 125883.57 -50347.59 -7379.80
v 125713.66 -50134.26 -7440.45
v 125713.66 -50134.26 -7379.80
v 125722.66 -50132.92 -7379.80
v 125592.35 -49972.43 -7438.83
v 125592.35 -49972.43 -7379.80
v 125602.03 -49972.00 -7379.80
v 125319.78 -49608.82 -7435.18
v 125319.78 -49608.82 -7379.80
v 125330.99 -49610.43 -7379.80
v 125429.72 -49526.67 -7427.50
v 125429.72 -49526.67 -7379.80
v 125439.69 -49529.21 -7379.80
v 125754.53 -49283.97 -7404.80
v 125754.53 -49283.97 -7379.80
v 125760.81 -49289.26 -7379.80
v 125506.58 -12863.06 -2190.00
v 125524.17 -13057.68 -2221.14
v 125524.17 -13057.68 -2165.00
v 125506.58 -12863.06 -2165.00
v 125498.12 -12858.23 -2165.00
v 125515.49 -13050.43 -2165.00
v 125267.04 -13080.88 -2224.85
v 125267.04 -13080.88 -2165.00
v 125263.38 -13073.18 -2165.00
v 124710.24 -13131.12 -2212.63
v 124710.24 -13131.12 -2165.00
v 124717.49 -13122.43 -2165.00
v 124700.20 -13019.99 -2190.00
v 124700.20 -13019.99 -2165.00
v 124707.57 -13012.68 -2165.00
v 125669.52 -17868.97 -3175.70
v 125492.94 -18049.93 -3204.30
v 125492.94 -18049.93 -3150.70
v 125669.52 -17868.97 -3150.70
v 125668.31 -17858.75 -3150.70
v 125492.49 -18038.93 -3150.70
v 125388.73 -17959.19 -3205.38
v 125388.73 -17959.19 -3150.70
v 125390.08 -17949.76 -3150.70
v 124829.75 -17472.43 -3211.16
v 124829.75 -17472.43 -3150.70
v 124840.76 -17471.41 -3150.70
v 124795.89 -17442.94 -3206.79
v 124795.89 -17442.94 -3150.70
v 124807.48 -17442.43 -3150.70
v 124890.26 -17344.86 -3175.70
v 124890.26 -17344.86 -3150.70
v 124901.46 -17344.76 -3150.70
v 123942.99 -47967.79 -7482.10
v 123902.97 -47999.91 -7485.30
v 123902.97 -47999.91 -7457.10
v 123942.99 -47967.79 -7457.10
v 123943.71 -47956.95 -7457.10
v 123903.96 -47988.86 -7457.10
v 123870.26 -48026.17 -7487.92
v 123870.26 -48026.17 -7457.10
v 123871.48 -48014.93 -7457.10
v 123626.08 -47723.03 -7507.45
v 123626.08 -47723.03 -7457.10
v 123630.54 -47715.81 -7457.10
v 123424.23 -47472.43 -7523.60
v 123424.23 -47472.43 -7457.10
v 123431.36 -47468.53 -7457.10
v 123402.48 -47445.43 -7524.26
v 123402.48 -47445.43 -7457.10
v 123409.90 -47441.89 -7457.10
v 123375.49 -47411.92 -7525.08
v 123375.49 -47411.92 -7457.10
v 123383.26 -47408.82 -7457.10
v 123112.73 -47085.71 -7512.03
v 123112.73 -47085.71 -7457.10
v 123123.99 -47086.93 -7457.10
v 123375.49 -46874.78 -7503.59
v 123375.49 -46874.78 -7457.10
v 123384.95 -46877.44 -7457.10
v 123567.21 -46720.88 -7482.10
v 123567.21 -46720.88 -7457.10
v 123575.36 -46724.59 -7457.10
v 124855.93 -33953.00 -5127.52
v 124856.01 -33952.96 -5127.50
v 124856.01 -33952.96 -5071.10
v 124855.93 -33953.00 -5071.10
v 124866.99 -33955.43 -5071.10
v 124867.07 -33955.38 -5071.10
v 124975.75 -33876.44 -5096.10
v 124975.75 -33876.44 -5071.10
v 124985.96 -33879.41 -5071.10
v 126106.69 -35851.56 -5096.10
v 126082.55 -35866.97 -5107.95
v 126082.55 -35866.97 -5071.10
v 126106.69 -35851.56 -5071.10
v 126108.95 -35840.63 -5071.10
v 126084.98 -35855.93 -5071.10
v 125875.49 -35543.87 -5173.22
v 125875.49 -35543.87 -5071.10
v 125879.37 -35535.10 -5071.10
v 125652.30 -35195.62 -5181.06
v 125652.30 -35195.62 -5071.10
v 125657.75 -35189.30 -5071.10
v 125509.26 -34972.43 -5186.10
v 125509.26 -34972.43 -5071.10
v 125515.72 -34967.69 -5071.10
v 128048.84 -7530.32 -699.88
v 128036.54 -7472.43 -686.83
v 128036.54 -7472.43 -643.20
v 128048.84 -7530.32 -643.20
v 128054.49 -7518.43 -643.20
v 128042.30 -7461.03 -643.20
v 128026.28 -7424.11 -668.20
v 128026.28 -7424.11 -643.20
v 128032.12 -7413.12 -643.20
v 128512.43 -7292.49 -668.20
v 128375.49 -7362.75 -688.01
v 128375.49 -7362.75 -643.20
v 128512.43 -7292.49 -643.20
v 128514.85 -7282.26 -643.20
v 128378.86 -7352.02 -643.20
v 128302.99 -7399.94 -692.70
v 128302.99 -7399.94 -643.20
v 128306.87 -7388.96 -643.20
v 128161.68 -7472.43 -701.84
v 128161.68 -7472.43 -643.20
v 128166.55 -7460.94 -643.20
v 128921.00 -2834.60 707.40
v 128927.88 -2967.01 675.90
v 128927.88 -2967.01 732.40
v 128921.00 -2834.60 732.40
v 128912.69 -2828.83 732.40
v 128919.48 -2959.43 732.40
v 128872.90 -2969.85 673.02
v 128872.90 -2969.85 732.40
v 128865.09 -2962.24 732.40
v 128375.49 -2995.54 646.95
v 128375.49 -2995.54 732.40
v 128373.01 -2987.66 732.40
v 127823.89 -3024.03 684.24
v 127823.89 -3024.03 732.40
v 127827.34 -3015.84 732.40
v 127481.38 -3041.72 707.40
v 127481.38 -3041.72 732.40
v 127488.51 -3033.34 732.40
v 129059.43 -1265.21 1207.10
v 128375.49 -1384.00 1164.33
v 128375.49 -1384.00 1232.10
v 129059.43 -1265.21 1232.10
v 129052.52 -1258.29 1232.10
v 128375.89 -1375.81 1232.10
v 127804.48 -1483.18 1174.31
v 127804.48 -1483.18 1232.10
v 127810.99 -1473.93 1232.10
v 127789.18 -1395.50 1207.10
v 127789.18 -1395.50 1232.10
v 127795.87 -1387.33 1232.10
v 131758.64 -14428.04 -1950.87
v 131733.87 -14114.05 -1955.82
v 131733.87 -14114.05 -1894.40
v 131758.64 -14428.04 -1894.40
v 131765.99 -14419.43 -1894.40
v 131741.56 -14109.82 -1894.40
v 131715.54 -13881.82 -1919.40
v 131715.54 -13881.82 -1894.40
v 131723.49 -13880.84 -1894.40
v 131915.99 -14415.56 -1919.40
v 131915.99 -14415.56 -1894.40
v 131920.31 -14407.20 -1894.40
v 134957.15 -13126.21 -1374.43
v 134392.65 -12472.43 -1464.75
v 134392.65 -12472.43 -1319.30
v 134957.15 -13126.21 -1319.30
v 134957.98 -13114.93 -1319.30
v 134397.01 -12465.24 -1319.30
v 133921.33 -11926.58 -1452.83
v 133921.33 -11926.58 -1319.30
v 133928.64 -11922.81 -1319.30
v 133375.49 -11294.41 -1391.90
v 133375.49 -11294.41 -1319.30
v 133386.20 -11294.58 -1319.30
v 133283.69 -11188.10 -1374.30
v 133283.69 -11188.10 -1319.30
v 133294.98 -11188.93 -1319.30
v 133375.49 -11109.10 -1354.83
v 133375.49 -11109.10 -1319.30
v 133385.69 -11110.88 -1319.30
v 133411.55 -11078.07 -1344.30
v 133411.55 -11078.07 -1319.30
v 133421.32 -11080.21 -1319.30
v 135145.49 -12964.06 -1344.30
v 135145.49 -12964.06 -1319.30
v 135144.09 -12954.70 -1319.30
v 134551.74 -12678.10 -1439.30
v 134374.15 -12472.43 -1467.71
v 134374.15 -12472.43 -1394.30
v 134551.74 -12678.10 -1394.30
v 134557.56 -12663.43 -1394.30
v 134381.90 -12459.99 -1394.30
v 133911.41 -11936.51 -1456.00
v 133911.41 -11936.51 -1394.30
v 133924.16 -11929.86 -1394.30
v 133761.76 -11763.20 -1439.30
v 133761.76 -11763.20 -1394.30
v 133776.14 -11758.43 -1394.30
v 134557.56 -12663.43 -1439.30
v 133776.14 -11758.43 -1439.30
v 136974.46 -1042.39 784.99
v 136967.96 -930.65 816.80
v 136967.96 -930.65 841.80
v 136974.46 -1042.39 841.80
v 136981.98 -1033.93 841.80
v 136975.53 -923.11 841.80
v 138862.05 -848.25 816.80
v 138866.94 -931.45 800.35
v 138866.94 -931.45 841.80
v 138862.05 -848.25 841.80
v 138853.64 -841.40 841.80
v 138858.48 -923.93 841.80
v 138375.49 -960.26 774.93
v 138375.49 -960.26 841.80
v 138371.18 -952.50 841.80
v 137326.15 -1021.77 762.63
v 137326.15 -1021.77 841.80
v 137330.70 -1013.49 841.80
v 136859.82 -2987.43 410.70
v 136850.70 -3245.71 379.71
v 136850.70 -3245.71 435.70
v 136859.82 -2987.43 435.70
v 136852.03 -2981.43 435.70
v 136842.99 -3237.43 435.70
v 136641.45 -3238.40 380.58
v 136641.45 -3238.40 435.70
v 136635.31 -3230.18 435.70
v 135875.49 -3211.64 383.80
v 135875.49 -3211.64 435.70
v 135875.13 -3203.62 435.70
v 135161.23 -3186.69 358.22
v 135161.23 -3186.69 435.70
v 135166.26 -3178.86 435.70
v 134730.71 -3171.65 396.27
v 134730.71 -3171.65 435.70
v 134738.99 -3163.93 435.70
v 134732.86 -3110.81 410.70
v 134732.86 -3110.81 435.70
v 134741.11 -3103.63 435.70
v 136930.26 -34187.92 -1644.02
v 137013.34 -34079.65 -1612.40
v 137013.34 -34079.65 -1587.40
v 136930.26 -34187.92 -1587.40
v 136941.49 -34186.43 -1587.40
v 137023.82 -34079.13 -1587.40
v 138508.77 -35394.65 -1612.40
v 138375.49 -35292.76 -1640.31
v 138375.49 -35292.76 -1587.40
v 138508.77 -35394.65 -1587.40
v 138508.11 -35384.08 -1587.40
v 138375.82 -35282.95 -1587.40
v 138193.94 -35153.97 -1671.07
v 138193.94 -35153.97 -1587.40
v 138195.65 -35145.21 -1587.40
v 137956.47 -34972.43 -1677.78
v 137956.47 -34972.43 -1587.40
v 137959.97 -34965.03 -1587.40
v 137883.25 -19603.28 195.30
v 137925.04 -19521.99 192.32
v 137925.04 -19521.99 220.30
v 137883.25 -19603.28 220.30
v 137893.61 -19600.63 220.30
v 137935.02 -19520.09 220.30
v 138375.49 -18645.82 160.24
v 138375.49 -18645.82 220.30
v 138381.29 -18652.03 220.30
v 138629.02 -18152.67 162.47
v 138629.02 -18152.67 220.30
v 138632.48 -18163.43 220.30
v 138710.68 -18194.54 195.30
v 138710.68 -18194.54 220.30
v 138713.22 -18204.84 220.30
v 147381.52 -47021.51 -586.53
v 147341.73 -46438.68 -592.90
v 147341.73 -46438.68 -536.60
v 147381.52 -47021.51 -536.60
v 147388.99 -47013.43 -536.60
v 147349.75 -46438.69 -536.60
v 147314.10 -46033.82 -597.32
v 147314.10 -46033.82 -536.60
v 147322.50 -46039.44 -536.60
v 147303.43 -45877.65 -592.35
v 147303.43 -45877.65 -536.60
v 147311.99 -45885.43 -536.60
v 147474.59 -45873.33 -571.64
v 147474.59 -45873.33 -536.60
v 147482.46 -45881.14 -536.60
v 147537.36 -45871.75 -561.60
v 147537.36 -45871.75 -536.60
v 147544.98 -45879.56 -536.60
v 147537.36 -47019.92 -561.60
v 147537.36 -47019.92 -536.60
v 147544.60 -47011.85 -536.60
vt 417.0011 -18.7275
vt 417.7021 -18.8036
vt 417.7021 -18.6650
vt 417.0011 -18.6650
vt 417.0202 -18.6650
vt 417.7123 -18.6650
vt 418.6119 -18.8188
vt 418.6119 -18.6650
vt 418.6079 -18.6650
vt 420.8297 -18.8003
vt 420.8297 -18.6650
vt 420.7911 -18.6650
vt 420.4891 -18.8188
vt 420.4891 -18.6650
vt 420.4547 -18.6650
vt 420.2667 -18.7946
vt 420.2667 -18.6650
vt 420.2351 -18.6650
vt 419.6479 -18.7275
vt 419.6479 -18.6650
vt 419.6242 -18.6650
vt 341.5387 -7.1717
vt 339.6198 -7.2860
vt 339.6198 -7.1092
vt 341.5387 -7.1092
vt 341.5149 -7.1092
vt 339.6099 -7.1092
vt 338.1894 -7.2567
vt 338.1894 -7.1092
vt 338.1898 -7.1092
vt 338.0348 -7.1717
vt 338.0348 -7.1092
vt 338.0368 -7.1092
vt 441.7461 -18.5120
vt 440.5641 -18.6065
vt 440.5641 -18.4495
vt 441.7461 -18.4495
vt 441.7533 -18.4495
vt 440.5779 -18.4495
vt 439.6198 -18.6011
vt 439.6198 -18.4495
vt 439.6390 -18.4495
vt 438.9119 -18.5971
vt 438.9119 -18.4495
vt 438.9351 -18.4495
vt 437.3215 -18.5879
vt 437.3215 -18.4495
vt 437.3536 -18.4495
vt 437.3910 -18.5688
vt 437.3910 -18.4495
vt 437.4222 -18.4495
vt 437.5962 -18.5120
vt 437.5962 -18.4495
vt 437.6252 -18.4495
vt 345.9241 -5.4750
vt 346.4546 -5.5528
vt 346.4546 -5.4125
vt 345.9241 -5.4125
vt 345.8909 -5.4125
vt 346.4148 -5.4125
vt 345.8698 -5.5621
vt 345.8698 -5.4125
vt 345.8414 -5.4125
vt 344.6034 -5.5316
vt 344.6034 -5.4125
vt 344.5998 -5.4125
vt 344.3005 -5.4750
vt 344.3005 -5.4125
vt 344.3006 -5.4125
vt 358.8462 -7.9392
vt 358.8572 -8.0107
vt 358.8572 -7.8767
vt 358.8462 -7.8767
vt 358.8177 -7.8767
vt 358.8286 -7.8767
vt 358.3698 -8.0135
vt 358.3698 -7.8767
vt 358.3496 -7.8767
vt 355.7554 -8.0279
vt 355.7554 -7.8767
vt 355.7804 -7.8767
vt 355.5971 -8.0170
vt 355.5971 -7.8767
vt 355.6248 -7.8767
vt 355.5878 -7.9392
vt 355.5878 -7.8767
vt 355.6155 -7.8767
vt 429.7769 -18.7052
vt 429.7572 -18.7133
vt 429.7572 -18.6427
vt 429.7769 -18.6427
vt 429.7516 -18.6427
vt 429.7321 -18.6427
vt 429.7411 -18.7198
vt 429.7411 -18.6427
vt 429.7160 -18.6427
vt 428.3728 -18.7686
vt 428.3728 -18.6427
vt 428.3659 -18.6427
vt 427.2416 -18.8090
vt 427.2416 -18.6427
vt 427.2497 -18.6427
vt 427.1198 -18.8106
vt 427.1198 -18.6427
vt 427.1295 -18.6427
vt 426.9685 -18.8127
vt 426.9685 -18.6427
vt 426.9802 -18.6427
vt 425.4961 -18.7801
vt 425.4961 -18.6427
vt 425.5273 -18.6427
vt 425.6257 -18.7590
vt 425.6257 -18.6427
vt 425.6560 -18.6427
vt 425.7202 -18.7052
vt 425.7202 -18.6427
vt 425.7499 -18.6427
vt 397.0223 -12.8188
vt 397.0224 -12.8187
vt 397.0224 -12.6778
vt 397.0223 -12.6778
vt 397.0561 -12.6778
vt 397.0561 -12.6778
vt 397.1305 -12.7403
vt 397.1305 -12.6778
vt 397.1634 -12.6778
vt 404.8956 -12.7403
vt 404.8738 -12.7699
vt 404.8738 -12.6778
vt 404.8956 -12.6778
vt 404.8739 -12.6778
vt 404.8523 -12.6778
vt 403.5484 -12.9331
vt 403.5484 -12.6778
vt 403.5362 -12.6778
vt 402.1198 -12.9527
vt 402.1198 -12.6778
vt 402.1176 -12.6778
vt 401.2042 -12.9653
vt 401.2042 -12.6778
vt 401.2085 -12.6778
vt 338.9479 -1.7497
vt 338.7724 -1.7171
vt 338.7724 -1.6080
vt 338.9479 -1.6080
vt 338.9323 -1.6080
vt 338.7583 -1.6080
vt 338.6260 -1.6705
vt 338.6260 -1.6080
vt 338.6131 -1.6080
vt 339.5123 -1.6705
vt 339.3456 -1.7200
vt 339.3456 -1.6080
vt 339.5123 -1.6080
vt 339.4928 -1.6080
vt 339.3272 -1.6080
vt 339.2573 -1.7318
vt 339.2573 -1.6080
vt 339.2396 -1.6080
vt 339.0853 -1.7546
vt 339.0853 -1.6080
vt 339.0687 -1.6080
vt 329.3890 1.7685
vt 329.7372 1.6897
vt 329.7372 1.8310
vt 329.3890 1.8310
vt 329.3538 1.8310
vt 329.6973 1.8310
vt 329.6069 1.6825
vt 329.6069 1.8310
vt 329.5683 1.8310
vt 328.4276 1.6174
vt 328.4276 1.8310
vt 328.4017 1.8310
vt 327.1198 1.7106
vt 327.1198 1.8310
vt 327.1079 1.8310
vt 326.3077 1.7685
vt 326.3077 1.8310
vt 326.3046 1.8310
vt 325.8116 3.0177
vt 324.3987 2.9108
vt 324.3987 3.0802
vt 325.8116 3.0802
vt 325.7770 3.0802
vt 324.3793 3.0802
vt 323.2191 2.9358
vt 323.2191 3.0802
vt 323.2123 3.0802
vt 322.9617 3.0177
vt 322.9617 3.0802
vt 322.9580 3.0802
vt 365.4667 -4.8772
vt 364.6198 -4.8895
vt 364.6198 -4.7360
vt 365.4667 -4.7360
vt 365.4635 -4.7360
vt 364.6284 -4.7360
vt 363.9934 -4.7985
vt 363.9934 -4.7360
vt 364.0108 -4.7360
vt 365.8289 -4.7985
vt 365.8289 -4.7360
vt 365.8188 -4.7360
vt 370.2084 -3.4361
vt 367.1627 -3.6619
vt 367.1627 -3.2982
vt 370.2084 -3.2982
vt 370.1823 -3.2982
vt 367.1556 -3.2982
vt 364.6198 -3.6321
vt 364.6198 -3.2982
vt 364.6286 -3.2982
vt 361.6747 -3.4798
vt 361.6747 -3.2982
vt 361.7020 -3.2982
vt 361.1795 -3.4358
vt 361.1795 -3.2982
vt 361.2098 -3.2982
vt 361.2115 -3.3871
vt 361.2115 -3.2982
vt 361.2414 -3.2982
vt 361.2240 -3.3607
vt 361.2240 -3.2982
vt 361.2538 -3.2982
vt 370.2739 -3.3607
vt 370.2739 -3.2982
vt 370.2470 -3.2982
vt 368.0746 -3.5982
vt 367.1164 -3.6693
vt 367.1164 -3.4857
vt 368.0746 -3.4857
vt 368.0525 -3.4857
vt 367.1047 -3.4857
vt 364.6198 -3.6400
vt 364.6198 -3.4857
vt 364.6351 -3.4857
vt 363.8124 -3.5982
vt 363.8124 -3.4857
vt 363.8364 -3.4857
vt 368.0525 -3.5982
vt 363.8364 -3.5982
vt 345.0421 1.9625
vt 344.7465 2.0420
vt 344.7465 2.1045
vt 345.0421 2.1045
vt 345.0398 2.1045
vt 344.7466 2.1045
vt 349.2757 2.0420
vt 349.4960 2.0009
vt 349.4960 2.1045
vt 349.2757 2.1045
vt 349.2376 2.1045
vt 349.4560 2.1045
vt 348.3394 1.9373
vt 348.3394 2.1045
vt 348.3092 2.1045
vt 345.8698 1.9066
vt 345.8698 2.1045
vt 345.8605 2.1045
vt 349.6181 1.0268
vt 350.2410 0.9493
vt 350.2410 1.0893
vt 349.6181 1.0893
vt 349.5836 1.0893
vt 350.2010 1.0893
vt 349.6996 0.9514
vt 349.6996 1.0893
vt 349.6637 1.0893
vt 347.7178 0.9595
vt 347.7178 1.0893
vt 347.6969 1.0893
vt 345.8698 0.8956
vt 345.8698 1.0893
vt 345.8628 1.0893
vt 344.7559 0.9907
vt 344.7559 1.0893
vt 344.7573 1.0893
vt 344.6092 1.0268
vt 344.6092 1.0893
vt 344.6119 1.0893
vt 427.7954 -4.1101
vt 427.7325 -4.0310
vt 427.7325 -3.9685
vt 427.7954 -3.9685
vt 427.8198 -3.9685
vt 427.7574 -3.9685
vt 434.7585 -4.0310
vt 434.1706 -4.1008
vt 434.1706 -3.9685
vt 434.7585 -3.9685
vt 434.7305 -3.9685
vt 434.1469 -3.9685
vt 433.3698 -4.1777
vt 433.3698 -3.9685
vt 433.3521 -3.9685
vt 432.3222 -4.1944
vt 432.3222 -3.9685
vt 432.3125 -3.9685
vt 393.7163 0.4883
vt 393.6176 0.4808
vt 393.6176 0.5508
vt 393.7163 0.5508
vt 393.7356 0.5508
vt 393.6378 0.5508
vt 392.5533 0.4006
vt 392.5533 0.5508
vt 392.5833 0.5508
vt 391.9542 0.4062
vt 391.9542 0.5508
vt 391.9898 0.5508
vt 392.2631 0.4883
vt 392.2631 0.5508
vt 392.2951 0.5508
vt 486.0076 -1.4663
vt 484.4510 -1.4822
vt 484.4510 -1.3415
vt 486.0076 -1.3415
vt 486.0060 -1.3415
vt 484.4711 -1.3415
vt 483.3698 -1.4933
vt 483.3698 -1.3415
vt 483.4049 -1.3415
vt 482.9527 -1.4809
vt 482.9527 -1.3415
vt 482.9935 -1.3415
vt 483.3698 -1.4291
vt 483.3698 -1.3415
vt 483.4090 -1.3415
vt 483.5228 -1.4040
vt 483.5228 -1.3415
vt 483.5614 -1.3415
vt 486.3932 -1.4040
vt 486.3932 -1.3415
vt 486.3911 -1.3415
vn -0.2543 0.9671 0.0000
vn 0.0000 -0.0000 1.0000
vn 0.9671 0.2544 0.0000
vn 0.2539 -0.9672 0.0000
vn 0.0391 -0.9992 0.0000
vn -0.9983 0.0582 0.0000
vn -0.8001 -0.5998 0.0000
vn -0.5986 0.8011 0.0000
vn 0.9959 0.0900 0.0000
vn 0.0899 -0.9960 0.0000
vn -0.9959 -0.0900 0.0000
vn 0.7157 -0.6984 0.0000
vn -0.6567 -0.7541 0.0000
vn -0.7206 0.6934 0.0000
vn 0.6260 -0.7798 0.0000
vn -0.7788 -0.6273 0.0000
vn -0.6260 0.7798 0.0000
vn -0.5385 0.8427 0.0000
vn 0.5381 -0.8429 0.0000
vn -0.8419 -0.5396 0.0000
vn -0.9782 -0.2078 0.0000
vn 0.4565 -0.8897 0.0000
vn 0.9986 0.0519 0.0000
vn 0.0516 -0.9987 0.0000
vn 0.1711 -0.9852 0.0000
vn -0.9851 -0.1719 0.0000
vn -0.9969 -0.0787 0.0000
vn 0.0790 -0.9969 0.0000
vn -0.7569 -0.6535 0.0000
vn -0.6523 0.7580 0.0000
vn 0.6525 -0.7578 0.0000
vn 0.9293 -0.3693 0.0000
vn -0.3151 0.9491 0.0000
vn -0.9983 -0.0581 0.0000
vn 0.9983 0.0586 0.0000
vn 0.0585 -0.9983 0.0000
vn 0.9994 -0.0353 0.0000
vn -0.0349 -0.9994 0.0000
vn -0.9994 0.0353 0.0000
vn -0.7934 0.6088 0.0000
vn -0.6073 -0.7944 0.0000
vn -0.8894 0.4572 0.0000
vn 0.4563 0.8898 0.0000
vn -0.9977 -0.0681 0.0000
vn -0.0252 0.9997 0.0000
vn 0.0102 -0.9999 0.0000
f 1/1/1 3/3/1 2/2/1
f 1/1/1 4/4/1 3/3/1
f 5/5/2 6/6/2 3/3/2
f 5/5/2 3/3/2 4/4/2
f 2/2/3 8/8/3 7/7/3
f 2/2/3 3/3/3 8/8/3
f 6/6/2 9/9/2 8/8/2
f 6/6/2 8/8/2 3/3/2
f 7/7/3 11/11/3 10/10/3
f 7/7/3 8/8/3 11/11/3
f 9/9/2 12/12/2 11/11/2
f 9/9/2 11/11/2 8/8/2
f 10/10/4 14/14/4 13/13/4
f 10/10/4 11/11/4 14/14/4
f 12/12/2 15/15/2 14/14/2
f 12/12/2 14/14/2 11/11/2
f 13/13/4 17/17/4 16/16/4
f 13/13/4 14/14/4 17/17/4
f 15/15/2 18/18/2 17/17/2
f 15/15/2 17/17/2 14/14/2
f 16/16/4 20/20/4 19/19/4
f 16/16/4 17/17/4 20/20/4
f 18/18/2 21/21/2 20/20/2
f 18/18/2 20/20/2 17/17/2
f 22/22/5 24/24/5 23/23/5
f 22/22/5 25/25/5 24/24/5
f 26/26/2 27/27/2 24/24/2
f 26/26/2 24/24/2 25/25/2
f 23/23/5 29/29/5 28/28/5
f 23/23/5 24/24/5 29/29/5
f 27/27/2 30/30/2 29/29/2
f 27/27/2 29/29/2 24/24/2
f 28/28/6 32/32/6 31/31/6
f 28/28/6 29/29/6 32/32/6
f 30/30/2 33/33/2 32/32/2
f 30/30/2 32/32/2 29/29/2
f 34/34/7 36/36/7 35/35/7
f 34/34/7 37/37/7 36/36/7
f 38/38/2 39/39/2 36/36/2
f 38/38/2 36/36/2 37/37/2
f 35/35/7 41/41/7 40/40/7
f 35/35/7 36/36/7 41/41/7
f 39/39/2 42/42/2 41/41/2
f 39/39/2 41/41/2 36/36/2
f 40/40/7 44/44/7 43/43/7
f 40/40/7 41/41/7 44/44/7
f 42/42/2 45/45/2 44/44/2
f 42/42/2 44/44/2 41/41/2
f 43/43/7 47/47/7 46/46/7
f 43/43/7 44/44/7 47/47/7
f 45/45/2 48/48/2 47/47/2
f 45/45/2 47/47/2 44/44/2
f 46/46/8 50/50/8 49/49/8
f 46/46/8 47/47/8 50/50/8
f 48/48/2 51/51/2 50/50/2
f 48/48/2 50/50/2 47/47/2
f 49/49/8 53/53/8 52/52/8
f 49/49/8 50/50/8 53/53/8
f 51/51/2 54/54/2 53/53/2
f 51/51/2 53/53/2 50/50/2
f 55/55/9 57/57/9 56/56/9
f 55/55/9 58/58/9 57/57/9
f 59/59/2 60/60/2 57/57/2
f 59/59/2 57/57/2 58/58/2
f 56/56/10 62/62/10 61/61/10
f 56/56/10 57/57/10 62/62/10
f 60/60/2 63/63/2 62/62/2
f 60/60/2 62/62/2 57/57/2
f 61/61/10 65/65/10 64/64/10
f 61/61/10 62/62/10 65/65/10
f 63/63/2 66/66/2 65/65/2
f 63/63/2 65/65/2 62/62/2
f 64/64/11 68/68/11 67/67/11
f 64/64/11 65/65/11 68/68/11
f 66/66/2 69/69/2 68/68/2
f 66/66/2 68/68/2 65/65/2
f 70/70/12 72/72/12 71/71/12
f 70/70/12 73/73/12 72/72/12
f 74/74/2 75/75/2 72/72/2
f 74/74/2 72/72/2 73/73/2
f 71/71/13 77/77/13 76/76/13
f 71/71/13 72/72/13 77/77/13
f 75/75/2 78/78/2 77/77/2
f 75/75/2 77/77/2 72/72/2
f 76/76/13 80/80/13 79/79/13
f 76/76/13 77/77/13 80/80/13
f 78/78/2 81/81/2 80/80/2
f 78/78/2 80/80/2 77/77/2
f 79/79/13 83/83/13 82/82/13
f 79/79/13 80/80/13 83/83/13
f 81/81/2 84/84/2 83/83/2
f 81/81/2 83/83/2 80/80/2
f 82/82/14 86/86/14 85/85/14
f 82/82/14 83/83/14 86/86/14
f 84/84/2 87/87/2 86/86/2
f 84/84/2 86/86/2 83/83/2
f 88/88/15 90/90/15 89/89/15
f 88/88/15 91/91/15 90/90/15
f 92/92/2 93/93/2 90/90/2
f 92/92/2 90/90/2 91/91/2
f 89/89/15 95/95/15 94/94/15
f 89/89/15 90/90/15 95/95/15
f 93/93/2 96/96/2 95/95/2
f 93/93/2 95/95/2 90/90/2
f 94/94/16 98/98/16 97/97/16
f 94/94/16 95/95/16 98/98/16
f 96/96/2 99/99/2 98/98/2
f 96/96/2 98/98/2 95/95/2
f 97/97/16 101/101/16 100/100/16
f 97/97/16 98/98/16 101/101/16
f 99/99/2 102/102/2 101/101/2
f 99/99/2 101/101/2 98/98/2
f 100/100/16 104/104/16 103/103/16
f 100/100/16 101/101/16 104/104/16
f 102/102/2 105/105/2 104/104/2
f 102/102/2 104/104/2 101/101/2
f 103/103/16 107/107/16 106/106/16
f 103/103/16 104/104/16 107/107/16
f 105/105/2 108/108/2 107/107/2
f 105/105/2 107/107/2 104/104/2
f 106/106/16 110/110/16 109/109/16
f 106/106/16 107/107/16 110/110/16
f 108/108/2 111/111/2 110/110/2
f 108/108/2 110/110/2 107/107/2
f 109/109/17 113/113/17 112/112/17
f 109/109/17 110/110/17 113/113/17
f 111/111/2 114/114/2 113/113/2
f 111/111/2 113/113/2 110/110/2
f 112/112/17 116/116/17 115/115/17
f 112/112/17 113/113/17 116/116/17
f 114/114/2 117/117/2 116/116/2
f 114/114/2 116/116/2 113/113/2
f 118/118/18 120/120/18 119/119/18
f 118/118/18 121/121/18 120/120/18
f 122/122/2 123/123/2 120/120/2
f 122/122/2 120/120/2 121/121/2
f 119/119/18 125/125/18 124/124/18
f 119/119/18 120/120/18 125/125/18
f 123/123/2 126/126/2 125/125/2
f 123/123/2 125/125/2 120/120/2
f 127/127/19 129/129/19 128/128/19
f 127/127/19 130/130/19 129/129/19
f 131/131/2 132/132/2 129/129/2
f 131/131/2 129/129/2 130/130/2
f 128/128/20 134/134/20 133/133/20
f 128/128/20 129/129/20 134/134/20
f 132/132/2 135/135/2 134/134/2
f 132/132/2 134/134/2 129/129/2
f 133/133/20 137/137/20 136/136/20
f 133/133/20 134/134/20 137/137/20
f 135/135/2 138/138/2 137/137/2
f 135/135/2 137/137/2 134/134/2
f 136/136/20 140/140/20 139/139/20
f 136/136/20 137/137/20 140/140/20
f 138/138/2 141/141/2 140/140/2
f 138/138/2 140/140/2 137/137/2
f 139/139/20 121/121/20 118/118/20
f 139/139/20 140/140/20 121/121/20
f 141/141/2 122/122/2 121/121/2
f 141/141/2 121/121/2 140/140/2
f 142/142/21 144/144/21 143/143/21
f 142/142/21 145/145/21 144/144/21
f 146/146/2 147/147/2 144/144/2
f 146/146/2 144/144/2 145/145/2
f 143/143/21 149/149/21 148/148/21
f 143/143/21 144/144/21 149/149/21
f 147/147/2 150/150/2 149/149/2
f 147/147/2 149/149/2 144/144/2
f 151/151/22 153/153/22 152/152/22
f 151/151/22 154/154/22 153/153/22
f 155/155/2 156/156/2 153/153/2
f 155/155/2 153/153/2 154/154/2
f 152/152/22 158/158/22 157/157/22
f 152/152/22 153/153/22 158/158/22
f 156/156/2 159/159/2 158/158/2
f 156/156/2 158/158/2 153/153/2
f 157/157/22 161/161/22 160/160/22
f 157/157/22 158/158/22 161/161/22
f 159/159/2 162/162/2 161/161/2
f 159/159/2 161/161/2 158/158/2
f 160/160/22 145/145/22 142/142/22
f 160/160/22 161/161/22 145/145/22
f 162/162/2 146/146/2 145/145/2
f 162/162/2 145/145/2 161/161/2
f 163/163/23 165/165/23 164/164/23
f 163/163/23 166/166/23 165/165/23
f 167/167/2 168/168/2 165/165/2
f 167/167/2 165/165/2 166/166/2
f 164/164/24 170/170/24 169/169/24
f 164/164/24 165/165/24 170/170/24
f 168/168/2 171/171/2 170/170/2
f 168/168/2 170/170/2 165/165/2
f 169/169/24 173/173/24 172/172/24
f 169/169/24 170/170/24 173/173/24
f 171/171/2 174/174/2 173/173/2
f 171/171/2 173/173/2 170/170/2
f 172/172/24 176/176/24 175/175/24
f 172/172/24 173/173/24 176/176/24
f 174/174/2 177/177/2 176/176/2
f 174/174/2 176/176/2 173/173/2
f 175/175/24 179/179/24 178/178/24
f 175/175/24 176/176/24 179/179/24
f 177/177/2 180/180/2 179/179/2
f 177/177/2 179/179/2 176/176/2
f 181/181/25 183/183/25 182/182/25
f 181/181/25 184/184/25 183/183/25
f 185/185/2 186/186/2 183/183/2
f 185/185/2 183/183/2 184/184/2
f 182/182/25 188/188/25 187/187/25
f 182/182/25 183/183/25 188/188/25
f 186/186/2 189/189/2 188/188/2
f 186/186/2 188/188/2 183/183/2
f 187/187/26 191/191/26 190/190/26
f 187/187/26 188/188/26 191/191/26
f 189/189/2 192/192/2 191/191/2
f 189/189/2 191/191/2 188/188/2
f 193/193/27 195/195/27 194/194/27
f 193/193/27 196/196/27 195/195/27
f 197/197/2 198/198/2 195/195/2
f 197/197/2 195/195/2 196/196/2
f 194/194/27 200/200/27 199/199/27
f 194/194/27 195/195/27 200/200/27
f 198/198/2 201/201/2 200/200/2
f 198/198/2 200/200/2 195/195/2
f 202/202/28 196/196/28 193/193/28
f 202/202/28 203/203/28 196/196/28
f 204/204/2 197/197/2 196/196/2
f 204/204/2 196/196/2 203/203/2
f 205/205/29 207/207/29 206/206/29
f 205/205/29 208/208/29 207/207/29
f 209/209/2 210/210/2 207/207/2
f 209/209/2 207/207/2 208/208/2
f 206/206/29 212/212/29 211/211/29
f 206/206/29 207/207/29 212/212/29
f 210/210/2 213/213/2 212/212/2
f 210/210/2 212/212/2 207/207/2
f 211/211/29 215/215/29 214/214/29
f 211/211/29 212/212/29 215/215/29
f 213/213/2 216/216/2 215/215/2
f 213/213/2 215/215/2 212/212/2
f 214/214/29 218/218/29 217/217/29
f 214/214/29 215/215/29 218/218/29
f 216/216/2 219/219/2 218/218/2
f 216/216/2 218/218/2 215/215/2
f 217/217/30 221/221/30 220/220/30
f 217/217/30 218/218/30 221/221/30
f 219/219/2 222/222/2 221/221/2
f 219/219/2 221/221/2 218/218/2
f 220/220/30 224/224/30 223/223/30
f 220/220/30 221/221/30 224/224/30
f 222/222/2 225/225/2 224/224/2
f 222/222/2 224/224/2 221/221/2
f 226/226/31 208/208/31 205/205/31
f 226/226/31 227/227/31 208/208/31
f 228/228/2 209/209/2 208/208/2
f 228/228/2 208/208/2 227/227/2
f 229/229/29 231/231/29 230/230/29
f 229/229/29 232/232/29 231/231/29
f 233/233/2 234/234/2 231/231/2
f 233/233/2 231/231/2 232/232/2
f 230/230/29 236/236/29 235/235/29
f 230/230/29 231/231/29 236/236/29
f 234/234/2 237/237/2 236/236/2
f 234/234/2 236/236/2 231/231/2
f 235/235/29 239/239/29 238/238/29
f 235/235/29 236/236/29 239/239/29
f 237/237/2 240/240/2 239/239/2
f 237/237/2 239/239/2 236/236/2
f 229/229/32 241/241/32 233/233/32
f 229/229/32 233/233/32 232/232/32
f 238/238/33 240/240/33 242/242/33
f 238/238/33 239/239/33 240/240/33
f 243/243/34 245/245/34 244/244/34
f 243/243/34 246/246/34 245/245/34
f 247/247/2 248/248/2 245/245/2
f 247/247/2 245/245/2 246/246/2
f 249/249/35 251/251/35 250/250/35
f 249/249/35 252/252/35 251/251/35
f 253/253/2 254/254/2 251/251/2
f 253/253/2 251/251/2 252/252/2
f 250/250/36 256/256/36 255/255/36
f 250/250/36 251/251/36 256/256/36
f 254/254/2 257/257/2 256/256/2
f 254/254/2 256/256/2 251/251/2
f 255/255/36 259/259/36 258/258/36
f 255/255/36 256/256/36 259/259/36
f 257/257/2 260/260/2 259/259/2
f 257/257/2 259/259/2 256/256/2
f 258/258/36 246/246/36 243/243/36
f 258/258/36 259/259/36 246/246/36
f 260/260/2 247/247/2 246/246/2
f 260/260/2 246/246/2 259/259/2
f 261/261/37 263/263/37 262/262/37
f 261/261/37 264/264/37 263/263/37
f 265/265/2 266/266/2 263/263/2
f 265/265/2 263/263/2 264/264/2
f 262/262/38 268/268/38 267/267/38
f 262/262/38 263/263/38 268/268/38
f 266/266/2 269/269/2 268/268/2
f 266/266/2 268/268/2 263/263/2
f 267/267/38 271/271/38 270/270/38
f 267/267/38 268/268/38 271/271/38
f 269/269/2 272/272/2 271/271/2
f 269/269/2 271/271/2 268/268/2
f 270/270/38 274/274/38 273/273/38
f 270/270/38 271/271/38 274/274/38
f 272/272/2 275/275/2 274/274/2
f 272/272/2 274/274/2 271/271/2
f 273/273/38 277/277/38 276/276/38
f 273/273/38 274/274/38 277/277/38
f 275/275/2 278/278/2 277/277/2
f 275/275/2 277/277/2 274/274/2
f 276/276/39 280/280/39 279/279/39
f 276/276/39 277/277/39 280/280/39
f 278/278/2 281/281/2 280/280/2
f 278/278/2 280/280/2 277/277/2
f 282/282/40 284/284/40 283/283/40
f 282/282/40 285/285/40 284/284/40
f 286/286/2 287/287/2 284/284/2
f 286/286/2 284/284/2 285/285/2
f 288/288/41 290/290/41 289/289/41
f 288/288/41 291/291/41 290/290/41
f 292/292/2 293/293/2 290/290/2
f 292/292/2 290/290/2 291/291/2
f 289/289/41 295/295/41 294/294/41
f 289/289/41 290/290/41 295/295/41
f 293/293/2 296/296/2 295/295/2
f 293/293/2 295/295/2 290/290/2
f 294/294/41 298/298/41 297/297/41
f 294/294/41 295/295/41 298/298/41
f 296/296/2 299/299/2 298/298/2
f 296/296/2 298/298/2 295/295/2
f 297/297/41 285/285/41 282/282/41
f 297/297/41 298/298/41 285/285/41
f 299/299/2 286/286/2 285/285/2
f 299/299/2 285/285/2 298/298/2
f 300/300/42 302/302/42 301/301/42
f 300/300/42 303/303/42 302/302/42
f 304/304/2 305/305/2 302/302/2
f 304/304/2 302/302/2 303/303/2
f 301/301/42 307/307/42 306/306/42
f 301/301/42 302/302/42 307/307/42
f 305/305/2 308/308/2 307/307/2
f 305/305/2 307/307/2 302/302/2
f 306/306/42 310/310/42 309/309/42
f 306/306/42 307/307/42 310/310/42
f 308/308/2 311/311/2 310/310/2
f 308/308/2 310/310/2 307/307/2
f 309/309/43 313/313/43 312/312/43
f 309/309/43 310/310/43 313/313/43
f 311/311/2 314/314/2 313/313/2
f 311/311/2 313/313/2 310/310/2
f 315/315/44 317/317/44 316/316/44
f 315/315/44 318/318/44 317/317/44
f 319/319/2 320/320/2 317/317/2
f 319/319/2 317/317/2 318/318/2
f 316/316/44 322/322/44 321/321/44
f 316/316/44 317/317/44 322/322/44
f 320/320/2 323/323/2 322/322/2
f 320/320/2 322/322/2 317/317/2
f 321/321/44 325/325/44 324/324/44
f 321/321/44 322/322/44 325/325/44
f 323/323/2 326/326/2 325/325/2
f 323/323/2 325/325/2 322/322/2
f 324/324/45 328/328/45 327/327/45
f 324/324/45 325/325/45 328/328/45
f 326/326/2 329/329/2 328/328/2
f 326/326/2 328/328/2 325/325/2
f 327/327/45 331/331/45 330/330/45
f 327/327/45 328/328/45 331/331/45
f 329/329/2 332/332/2 331/331/2
f 329/329/2 331/331/2 328/328/2
f 333/333/46 318/318/46 315/315/46
f 333/333/46 334/334/46 318/318/46
f 335/335/2 319/319/2 318/318/2
f 335/335/2 318/318/2 334/334/2
