# Unreal legacy OBJ adapter: canonical vertices are UE cm; this file is written with Y reflected and triangle winding reversed. One object, no g groups, so the importer creates exactly one material slot.
# OldCityFoundationV2 foundations (plinth + stepped footing); generator 463404ba754c804f514fe655944ece4eb51a92e1273fec326ad5c2ebfbb18f24
# AUTHORED detail in the style of Old City stone foundations, not survey
o SM_OldCityFoundationV2_Kept_P001_N003
s off
v 92619.00 136401.57 6072.00
v 92440.15 136298.30 6040.06
v 92440.15 136298.30 6097.00
v 92619.00 136401.57 6097.00
v 92616.07 136409.11 6097.00
v 92438.49 136306.57 6097.00
v 92179.36 136331.44 6037.58
v 92179.36 136331.44 6097.00
v 92178.34 136339.64 6097.00
v 92055.92 136347.13 6047.54
v 92055.92 136347.13 6097.00
v 92055.21 136355.28 6097.00
v 91752.73 136385.66 6072.00
v 91752.73 136385.66 6097.00
v 91752.76 136393.72 6097.00
vt -109.4564 15.1800
vt -109.6454 15.1002
vt -109.6454 15.2425
vt -109.4564 15.2425
vt -109.4826 15.2425
vt -109.6702 15.2425
vt -110.3802 15.0939
vt -110.3802 15.2425
vt -110.4033 15.2425
vt -110.7280 15.1189
vt -110.7280 15.2425
vt -110.7502 15.2425
vt -111.5823 15.1800
vt -111.5823 15.2425
vt -111.6024 15.2425
vn 0.5000 -0.8660 0.0000
vn 0.0000 -0.0000 1.0000
vn -0.1261 -0.9920 0.0000
f 1/1/1 3/3/1 2/2/1
f 1/1/1 4/4/1 3/3/1
f 5/5/2 6/6/2 3/3/2
f 5/5/2 3/3/2 4/4/2
f 2/2/3 8/8/3 7/7/3
f 2/2/3 3/3/3 8/8/3
f 6/6/2 9/9/2 8/8/2
f 6/6/2 8/8/2 3/3/2
f 7/7/3 11/11/3 10/10/3
f 7/7/3 8/8/3 11/11/3
f 9/9/2 12/12/2 11/11/2
f 9/9/2 11/11/2 8/8/2
f 10/10/3 14/14/3 13/13/3
f 10/10/3 11/11/3 14/14/3
f 12/12/2 15/15/2 14/14/2
f 12/12/2 14/14/2 11/11/2
