# Unreal legacy OBJ adapter: canonical vertices are UE cm; this file is written with Y reflected and triangle winding reversed. One object, no g groups, so the importer creates exactly one material slot.
# OldCityFoundationV2 foundations (plinth + stepped footing); generator 463404ba754c804f514fe655944ece4eb51a92e1273fec326ad5c2ebfbb18f24
# AUTHORED detail in the style of Old City stone foundations, not survey
o SM_OldCityFoundationV2_Kept_N004_N004
s off
v -200133.51 197849.12 4345.00
v -200128.82 198531.87 4372.50
v -200128.82 198531.87 4400.30
v -200133.51 197849.12 4400.30
v -200125.51 197849.06 4400.30
v -200120.87 198525.05 4400.30
v -200128.34 198601.39 4375.30
v -200128.34 198601.39 4400.30
v -200120.39 198593.89 4400.30
v -199722.35 196859.74 4375.30
v -199791.78 196860.30 4372.50
v -199791.78 196860.30 4400.30
v -199722.35 196859.74 4400.30
v -199716.15 196867.69 4400.30
v -199785.28 196868.25 4400.30
v -200141.07 196863.14 4358.41
v -200141.07 196863.14 4400.30
v -200133.01 196871.07 4400.30
v -200135.98 197527.57 4332.04
v -200135.98 197527.57 4400.30
v -200127.96 197530.12 4400.30
v -199165.67 180119.11 5359.50
v -199124.51 180135.03 5355.31
v -199124.51 180135.03 5384.50
v -199165.67 180119.11 5384.50
v -199167.72 180109.74 5384.50
v -199126.95 180125.51 5384.50
v -198949.20 180202.89 5337.44
v -198949.20 180202.89 5384.50
v -198953.28 180192.73 5384.50
v -198897.44 180222.91 5328.35
v -198897.44 180222.91 5384.50
v -198902.01 180212.57 5384.50
v -198821.79 180027.57 5324.06
v -198821.79 180027.57 5384.50
v -198827.64 180020.53 5384.50
v -198727.06 179782.96 5338.26
v -198727.06 179782.96 5384.50
v -198734.51 179780.07 5384.50
v -198629.93 179532.98 5352.72
v -198629.93 179532.98 5384.50
v -198638.87 179533.92 5384.50
v -198584.36 179415.69 5359.50
v -198584.36 179415.69 5384.50
v -198594.00 179418.42 5384.50
v -198153.94 184997.28 4736.10
v -198070.19 185027.57 4730.33
v -198070.19 185027.57 4761.10
v -198153.94 184997.28 4761.10
v -198150.32 184990.09 4761.10
v -198067.58 185020.00 4761.10
v -197459.73 185248.31 4705.91
v -197459.73 185248.31 4761.10
v -197464.51 185238.07 4761.10
v -197379.47 185027.57 4702.70
v -197379.47 185027.57 4761.10
v -197385.75 185021.43 4761.10
v -197193.94 184517.28 4736.10
v -197193.94 184517.28 4761.10
v -197203.67 184520.64 4761.10
v -196660.38 182398.52 4883.40
v -196624.51 182413.52 4877.06
v -196624.51 182413.52 4908.40
v -196660.38 182398.52 4908.40
v -196659.51 182390.22 4908.40
v -196624.01 182405.06 4908.40
v -196544.09 182447.14 4872.50
v -196544.09 182447.14 4908.40
v -196544.39 182438.35 4908.40
v -196351.73 182527.57 4861.59
v -196351.73 182527.57 4908.40
v -196353.94 182517.97 4908.40
v -196143.73 182614.53 4853.27
v -196143.73 182614.53 4908.40
v -196148.01 182604.07 4908.40
v -196107.29 182527.57 4851.81
v -196107.29 182527.57 4908.40
v -196112.17 182518.52 4908.40
v -195765.04 181710.78 4870.79
v -195765.04 181710.78 4908.40
v -195775.51 181715.07 4908.40
v -195795.12 181698.18 4872.50
v -195795.12 181698.18 4908.40
v -195805.29 181702.59 4908.40
v -195987.15 181617.71 4883.40
v -195987.15 181617.71 4908.40
v -195995.41 181622.92 4908.40
v -194822.01 183344.23 4800.40
v -194344.75 183544.53 4781.31
v -194344.75 183544.53 4825.40
v -194822.01 183344.23 4825.40
v -194820.48 183336.20 4825.40
v -194349.01 183534.06 4825.40
v -194124.51 183022.48 4772.50
v -194124.51 183022.48 4825.40
v -194131.21 183017.78 4825.40
v -194063.64 182878.18 4770.06
v -194063.64 182878.18 4825.40
v -194071.01 182875.07 4825.40
v -193977.62 182674.46 4766.62
v -193977.62 182674.46 4825.40
v -193985.64 182672.88 4825.40
v -193915.59 182527.57 4772.50
v -193915.59 182527.57 4825.40
v -193924.07 182527.09 4825.40
v -193762.89 182165.94 4786.97
v -193762.89 182165.94 4825.40
v -193772.52 182168.18 4825.40
v -193649.03 181896.30 4797.75
v -193649.03 181896.30 4825.40
v -193659.51 181900.57 4825.40
v -193806.61 181830.07 4800.40
v -193806.61 181830.07 4825.40
v -193815.18 181835.14 4825.40
v -192992.20 180589.69 4804.40
v -192787.96 180027.57 4765.58
v -192787.96 180027.57 4829.40
v -192992.20 180589.69 4829.40
v -192999.72 180586.96 4829.40
v -192795.48 180024.84 4829.40
v -192731.00 179870.80 4773.56
v -192731.00 179870.80 4829.40
v -192738.51 179868.07 4829.40
v -192511.54 179265.85 4804.40
v -192511.54 179265.85 4829.40
v -192521.05 179268.58 4829.40
v -193869.51 188383.46 4662.30
v -193115.52 188680.95 4632.14
v -193115.52 188680.95 4687.30
v -193869.51 188383.46 4687.30
v -193865.59 188376.41 4687.30
v -193120.01 188670.57 4687.30
v -193074.54 188577.55 4630.50
v -193074.54 188577.55 4687.30
v -193079.19 188567.57 4687.30
v -192759.46 187782.57 4662.30
v -192759.46 187782.57 4687.30
v -192765.33 187775.66 4687.30
v -192257.01 189933.26 4597.80
v -191939.55 190027.57 4585.10
v -191939.55 190027.57 4622.80
v -192257.01 189933.26 4622.80
v -192255.83 189925.27 4622.80
v -191941.12 190018.76 4622.80
v -191696.67 190099.72 4575.39
v -191696.67 190099.72 4622.80
v -191700.34 190090.28 4622.80
v -191624.51 190121.15 4572.50
v -191624.51 190121.15 4622.80
v -191628.82 190111.53 4622.80
v -191502.14 190157.50 4567.61
v -191502.14 190157.50 4622.80
v -191507.51 190147.56 4622.80
v -191500.40 190151.69 4567.54
v -191500.40 190151.69 4622.80
v -191505.78 190141.80 4622.80
v -191463.08 190027.57 4566.04
v -191463.08 190027.57 4622.80
v -191468.79 190018.76 4622.80
v -191393.69 189796.74 4572.50
v -191393.69 189796.74 4622.80
v -191400.00 189789.96 4622.80
v -191239.35 189283.36 4586.86
v -191239.35 189283.36 4622.80
v -191247.01 189281.07 4622.80
v -191123.53 188894.08 4597.80
v -191123.53 188894.08 4622.80
v -191132.21 188895.19 4622.80
v -190627.01 187684.38 4592.70
v -190562.66 187527.57 4587.55
v -190562.66 187527.57 4617.70
v -190627.01 187684.38 4617.70
v -190631.99 187675.44 4617.70
v -190568.36 187520.38 4617.70
v -190410.62 187157.11 4575.39
v -190410.62 187157.11 4617.70
v -190418.02 187154.07 4617.70
v -190144.03 186508.06 4554.06
v -190144.03 186508.06 4617.70
v -190153.39 186509.81 4617.70
v -189998.07 186152.70 4562.44
v -189998.07 186152.70 4617.70
v -190008.51 186157.07 4617.70
v -190176.59 186079.64 4572.50
v -190176.59 186079.64 4617.70
v -190185.45 186084.65 4617.70
v -190534.93 185932.98 4592.70
v -190534.93 185932.98 4617.70
v -190540.63 185939.29 4617.70
v -190693.26 182732.58 4698.00
v -190530.70 182790.79 4685.00
v -190530.70 182790.79 4723.00
v -190693.26 182732.58 4723.00
v -190698.07 182722.36 4723.00
v -190535.51 182780.57 4723.00
v -190435.49 182527.57 4677.38
v -190435.49 182527.57 4723.00
v -190440.62 182518.22 4723.00
v -190087.26 181564.83 4611.01
v -190087.26 181564.83 4723.00
v -190093.54 181558.67 4723.00
v -189761.68 180664.73 4647.01
v -189761.68 180664.73 4723.00
v -189769.04 180661.56 4723.00
v -189531.21 180027.57 4672.50
v -189531.21 180027.57 4723.00
v -189539.33 180026.51 4723.00
v -189423.18 179728.90 4684.45
v -189423.18 179728.90 4723.00
v -189431.66 179728.84 4723.00
v -189300.62 179390.07 4698.00
v -189300.62 179390.07 4723.00
v -189309.51 179391.12 4723.00
v -191052.16 179390.07 4698.00
v -191089.21 179492.26 4693.91
v -191089.21 179492.26 4723.00
v -191052.16 179390.07 4723.00
v -191044.64 179392.79 4723.00
v -191081.68 179494.98 4723.00
v -191283.25 180027.57 4672.50
v -191283.25 180027.57 4723.00
v -191275.73 180030.29 4723.00
v -191323.04 180137.35 4668.11
v -191323.04 180137.35 4723.00
v -191315.52 180140.07 4723.00
v -191373.91 180278.17 4662.48
v -191373.91 180278.17 4723.00
v -191366.39 180280.89 4723.00
v -191560.17 180793.76 4698.00
v -191560.17 180793.76 4723.00
v -191552.65 180796.48 4723.00
v -192540.47 154573.53 6327.30
v -192250.05 154955.77 6300.39
v -192250.05 154955.77 6352.30
v -192540.47 154573.53 6352.30
v -192535.98 154566.21 6352.30
v -192248.51 154944.57 6352.30
v -191934.93 154717.15 6297.33
v -191934.93 154717.15 6352.30
v -191938.83 154710.07 6352.30
v -191881.19 154676.45 6296.81
v -191881.19 154676.45 6352.30
v -191886.01 154670.07 6352.30
v -191624.51 154482.14 6294.32
v -191624.51 154482.14 6352.30
v -191632.60 154478.23 6352.30
v -191376.80 154294.61 6301.82
v -191376.80 154294.61 6352.30
v -191388.01 154293.07 6352.30
v -191624.51 153968.53 6314.86
v -191624.51 153968.53 6352.30
v -191633.21 153970.31 6352.30
v -191758.76 153791.82 6327.30
v -191758.76 153791.82 6352.30
v -191766.10 153795.39 6352.30
v -188399.51 183587.95 4456.50
v -188294.64 183357.44 4439.72
v -188294.64 183357.44 4481.50
v -188399.51 183587.95 4481.50
v -188404.67 183579.97 4481.50
v -188300.20 183350.36 4481.50
v -187917.06 182527.57 4427.61
v -187917.06 182527.57 4481.50
v -187924.09 182523.69 4481.50
v -187851.23 182382.88 4425.49
v -187851.23 182382.88 4481.50
v -187858.51 182379.57 4481.50
v -187512.66 181639.42 4414.60
v -187512.66 181639.42 4481.50
v -187522.38 181641.47 4481.50
v -187390.91 181372.09 4426.25
v -187390.91 181372.09 4481.50
v -187401.51 181376.07 4481.50
v -187651.09 181254.15 4456.50
v -187651.09 181254.15 4481.50
v -187659.16 181259.28 4481.50
v -188960.92 171142.72 5170.20
v -188769.63 171337.87 5139.29
v -188769.63 171337.87 5195.20
v -188960.92 171142.72 5195.20
v -188958.21 171134.06 5195.20
v -188769.51 171326.57 5195.20
v -188286.38 170865.70 5138.40
v -188286.38 170865.70 5195.20
v -188289.86 170857.92 5195.20
v -187428.56 170027.57 5136.82
v -187428.56 170027.57 5195.20
v -187438.43 170026.02 5195.20
v -187232.68 169836.18 5159.43
v -187232.68 169836.18 5195.20
v -187244.01 169836.06 5195.20
v -187270.65 169797.52 5170.20
v -187270.65 169797.52 5195.20
v -187281.46 169797.93 5195.20
v -187547.12 159390.39 6008.70
v -187407.68 159578.75 5984.43
v -187407.68 159578.75 6033.70
v -187547.12 159390.39 6033.70
v -187544.21 159380.88 6033.70
v -187406.01 159567.57 6033.70
v -187215.41 159436.67 5967.04
v -187215.41 159436.67 6033.70
v -187216.73 159427.70 6033.70
v -186995.26 159274.00 5977.76
v -186995.26 159274.00 6033.70
v -187000.01 159267.57 6033.70
v -186624.51 159000.75 5995.72
v -186624.51 159000.75 6033.70
v -186635.36 158998.80 6033.70
v -186602.82 158984.76 5995.03
v -186602.82 158984.76 6033.70
v -186614.01 158983.07 6033.70
v -186624.51 158955.42 6001.16
v -186624.51 158955.42 6033.70
v -186635.52 158954.00 6033.70
v -186661.81 158905.00 6008.70
v -186661.81 158905.00 6033.70
v -186672.48 158904.02 6033.70
v -185761.96 190458.90 3903.50
v -185760.08 190443.01 3902.00
v -185760.08 190443.01 3928.50
v -185761.96 190458.90 3928.50
v -185769.91 190457.95 3928.50
v -185768.02 190442.07 3928.50
v -185710.60 190027.57 3862.83
v -185710.60 190027.57 3928.50
v -185719.02 190030.67 3928.50
v -185664.64 189641.70 3872.75
v -185664.64 189641.70 3928.50
v -185673.51 189648.56 3928.50
v -185909.69 189608.09 3903.50
v -185909.69 189608.09 3928.50
v -185916.08 189615.29 3928.50
v -184527.70 174005.75 4586.50
v -184369.48 174231.20 4555.81
v -184369.48 174231.20 4611.50
v -184527.70 174005.75 4611.50
v -184524.18 173996.85 4611.50
v -184367.52 174220.07 4611.50
v -184124.51 174060.11 4549.90
v -184124.51 174060.11 4611.50
v -184125.56 174051.08 4611.50
v -183301.86 173485.54 4562.96
v -183301.86 173485.54 4611.50
v -183313.01 173483.57 4611.50
v -183454.77 173267.69 4586.50
v -183454.77 173267.69 4611.50
v -183464.41 173267.87 4611.50
v -183541.62 163594.76 5321.12
v -183284.23 163425.81 5331.10
v -183284.23 163425.81 5356.10
v -183541.62 163594.76 5356.10
v -183546.01 163588.07 5356.10
v -183292.11 163421.41 5356.10
v -184260.42 163841.80 5331.10
v -184157.82 163998.13 5300.03
v -184157.82 163998.13 5356.10
v -184260.42 163841.80 5356.10
v -184256.02 163833.93 5356.10
v -184155.52 163987.06 5356.10
v -184124.51 163976.33 5298.65
v -184124.51 163976.33 5356.10
v -184122.57 163965.49 5356.10
v -181786.53 149808.43 5772.50
v -181695.02 149957.06 5772.50
v -181695.02 149957.06 5808.70
v -181786.53 149808.43 5808.70
v -181775.51 149811.06 5808.70
v -181684.94 149958.18 5808.70
v -181651.61 150027.57 5773.58
v -181651.61 150027.57 5808.70
v -181641.97 150027.97 5808.70
v -181641.29 150044.34 5773.84
v -181641.29 150044.34 5808.70
v -181631.75 150044.57 5808.70
v -181624.51 150071.58 5774.26
v -181624.51 150071.58 5808.70
v -181615.15 150071.53 5808.70
v -180961.13 151149.07 5764.29
v -180961.13 151149.07 5808.70
v -180958.51 151138.07 5808.70
v -180677.28 150974.80 5734.61
v -180677.28 150974.80 5808.70
v -180678.32 150966.05 5808.70
v -179905.01 150500.69 5753.58
v -179905.01 150500.69 5808.70
v -179916.02 150498.06 5808.70
v -180196.47 150027.57 5772.50
v -180196.47 150027.57 5808.70
v -180204.52 150029.75 5808.70
v -180730.89 149160.07 5772.50
v -180730.89 149160.07 5808.70
v -180733.51 149171.07 5808.70
v -180798.75 149201.80 5772.50
v -180798.75 149201.80 5808.70
v -180800.42 149212.22 5808.70
v -181218.20 149459.75 5772.50
v -181218.20 149459.75 5808.70
v -181214.01 149466.57 5808.70
v -181624.51 149709.03 5772.50
v -181624.51 149709.03 5808.70
v -181615.45 149712.86 5808.70
v -179682.99 154444.79 5563.80
v -179628.23 154523.85 5553.09
v -179628.23 154523.85 5588.80
v -179682.99 154444.79 5588.80
v -179680.97 154433.65 5588.80
v -179626.21 154512.72 5588.80
v -179567.04 154612.20 5542.22
v -179567.04 154612.20 5588.80
v -179565.02 154601.07 5588.80
v -179551.00 154601.08 5540.74
v -179551.00 154601.08 5588.80
v -179549.31 154590.18 5588.80
v -179245.97 154389.66 5533.25
v -179245.97 154389.66 5588.80
v -179250.51 154383.07 5588.80
v -179124.51 154306.18 5530.21
v -179124.51 154306.18 5588.80
v -179131.55 154301.31 5588.80
v -178924.37 154168.61 5533.21
v -178924.37 154168.61 5588.80
v -178935.51 154166.57 5588.80
v -179120.96 153884.54 5563.80
v -179120.96 153884.54 5588.80
v -179131.02 153884.07 5588.80
v -179714.90 177234.20 4043.20
v -179543.25 177447.80 4012.38
v -179543.25 177447.80 4068.20
v -179714.90 177234.20 4068.20
v -179712.17 177224.83 4068.20
v -179542.02 177436.56 4068.20
v -179354.99 177297.09 4009.38
v -179354.99 177297.09 4068.20
v -179356.05 177287.69 4068.20
v -179124.51 177112.60 4005.70
v -179124.51 177112.60 4068.20
v -179128.38 177105.45 4068.20
v -178518.26 176627.30 4020.27
v -178518.26 176627.30 4068.20
v -178529.52 176626.07 4068.20
v -178682.57 176422.84 4043.20
v -178682.57 176422.84 4068.20
v -178692.39 176423.39 4068.20
v -174388.61 163235.31 4368.70
v -174124.51 163067.65 4329.29
v -174124.51 163067.65 4393.70
v -174388.61 163235.31 4393.70
v -174395.52 163230.22 4393.70
v -174133.88 163064.12 4393.70
v -173943.96 162953.02 4338.46
v -173943.96 162953.02 4393.70
v -173955.02 162950.57 4393.70
v -174124.51 162669.92 4361.11
v -174124.51 162669.92 4393.70
v -174133.50 162670.71 4393.70
v -174147.83 162633.36 4368.70
v -174147.83 162633.36 4393.70
v -174156.55 162634.56 4393.70
v -174489.36 156443.50 4917.60
v -174124.51 156198.38 4878.84
v -174124.51 156198.38 4942.60
v -174489.36 156443.50 4942.60
v -174488.28 156433.14 4942.60
v -174128.10 156191.15 4942.60
v -173534.90 155802.24 4886.94
v -173534.90 155802.24 4942.60
v -173546.01 155800.07 4942.60
v -173728.20 155515.66 4917.60
v -173728.20 155515.66 4942.60
v -173736.54 155517.60 4942.60
v -174083.30 150225.13 5461.30
v -173934.52 150486.96 5438.92
v -173934.52 150486.96 5486.30
v -174083.30 150225.13 5486.30
v -174079.49 150215.64 5486.30
v -173931.51 150476.07 5486.30
v -173762.50 150389.58 5429.06
v -173762.50 150389.58 5486.30
v -173762.07 150380.14 5486.30
v -173470.07 150224.03 5430.61
v -173470.07 150224.03 5486.30
v -173474.01 150217.07 5486.30
v -173124.10 150027.57 5432.48
v -173124.10 150027.57 5486.30
v -173133.20 150023.53 5486.30
v -173002.61 149958.58 5433.14
v -173002.61 149958.58 5486.30
v -173013.51 149955.57 5486.30
v -173158.37 149684.50 5461.30
v -173158.37 149684.50 5486.30
v -173168.45 149682.96 5486.30
v -168877.01 189140.60 2962.60
v -168476.06 189379.11 2946.56
v -168476.06 189379.11 2987.60
v -168877.01 189140.60 2987.60
v -168879.79 189129.63 2987.60
v -168478.84 189368.15 2987.60
v -168304.73 189481.03 2939.71
v -168304.73 189481.03 2987.60
v -168307.51 189470.07 2987.60
v -167901.30 188804.36 2923.57
v -167901.30 188804.36 2987.60
v -167909.86 188803.09 2987.60
v -167881.29 188770.79 2922.77
v -167881.29 188770.79 2987.60
v -167890.14 188770.00 2987.60
v -167732.54 188521.28 2932.75
v -167732.54 188521.28 2987.60
v -167743.51 188524.06 2987.60
v -168713.69 187938.39 2956.07
v -168713.69 187938.39 2987.60
v -168718.27 187944.97 2987.60
v -168788.93 187893.69 2959.08
v -168788.93 187893.69 2987.60
v -168793.02 187900.57 2987.60
v -168877.01 187841.31 2962.60
v -168877.01 187841.31 2987.60
v -168881.10 187848.18 2987.60
v -168064.51 192530.88 2730.10
v -167309.36 192676.21 2699.89
v -167309.36 192676.21 2755.10
v -168064.51 192530.88 2755.10
v -168064.72 192522.70 2755.10
v -167314.51 192667.07 2755.10
v -167254.57 192527.57 2697.70
v -167254.57 192527.57 2755.10
v -167260.56 192520.69 2755.10
v -167141.30 192220.26 2717.76
v -167141.30 192220.26 2755.10
v -167149.01 192218.07 2755.10
v -167106.49 192048.55 2730.10
v -167106.49 192048.55 2755.10
v -167114.28 192046.74 2755.10
v -169373.89 159898.04 4203.20
v -169285.67 160027.57 4178.95
v -169285.67 160027.57 4228.20
v -169373.89 159898.04 4228.20
v -169370.30 159889.08 4228.20
v -169282.95 160017.36 4228.20
v -169223.63 160118.67 4172.82
v -169223.63 160118.67 4228.20
v -169221.51 160107.57 4228.20
v -169198.87 160101.93 4172.50
v -169198.87 160101.93 4228.20
v -169197.14 160091.10 4228.20
v -169124.51 160051.66 4171.54
v -169124.51 160051.66 4228.20
v -169123.97 160041.63 4228.20
v -169110.14 160041.94 4171.93
v -169110.14 160041.94 4228.20
v -169109.82 160032.07 4228.20
v -169088.88 160027.57 4171.07
v -169088.88 160027.57 4228.20
v -169088.90 160017.92 4228.20
v -168808.02 159837.69 4175.03
v -168808.02 159837.69 4228.20
v -168812.51 159831.07 4228.20
v -168340.90 159519.68 4181.79
v -168340.90 159519.68 4228.20
v -168352.01 159517.57 4228.20
v -168452.57 159355.62 4199.38
v -168452.57 159355.62 4228.20
v -168462.60 159355.10 4228.20
v -168476.83 159319.97 4203.20
v -168476.83 159319.97 4228.20
v -168486.62 159319.80 4228.20
v -169334.55 157012.61 4438.90
v -169201.29 157196.23 4408.22
v -169201.29 157196.23 4463.90
v -169334.55 157012.61 4463.90
v -169331.08 157003.77 4463.90
v -169199.51 157185.06 4463.90
v -169124.51 157140.57 4403.46
v -169124.51 157140.57 4463.90
v -169123.90 157130.24 4463.90
v -168513.47 156697.57 4438.90
v -168513.47 156697.57 4463.90
v -168522.14 156693.97 4463.90
v -168468.26 170985.03 3620.00
v -168284.17 170867.91 3605.27
v -168284.17 170867.91 3645.00
v -168468.26 170985.03 3645.00
v -168466.15 170974.21 3645.00
v -168283.58 170858.05 3645.00
v -166963.27 170027.57 3586.05
v -166963.27 170027.57 3645.00
v -166973.61 170024.66 3645.00
v -166875.96 169972.02 3589.22
v -166875.96 169972.02 3645.00
v -166887.01 169969.57 3645.00
v -167011.08 169760.59 3620.00
v -167011.08 169760.59 3645.00
v -167020.82 169760.19 3645.00
v -165798.30 196466.22 2630.90
v -165627.37 196024.71 2592.73
v -165627.37 196024.71 2655.90
v -165798.30 196466.22 2655.90
v -165806.35 196464.87 2655.90
v -165636.75 196026.77 2655.90
v -165501.66 195699.99 2600.69
v -165501.66 195699.99 2655.90
v -165512.01 195704.57 2655.90
v -166046.44 195489.50 2630.90
v -166046.44 195489.50 2655.90
v -166049.95 195496.72 2655.90
v -164562.93 167963.49 3672.70
v -164561.88 167964.93 3672.50
v -164561.88 167964.93 3697.70
v -164562.93 167963.49 3697.70
v -164559.80 167954.21 3697.70
v -164558.75 167955.65 3697.70
v -164400.77 168185.73 3641.95
v -164400.77 168185.73 3697.70
v -164399.01 168174.56 3697.70
v -164124.51 167985.05 3635.90
v -164124.51 167985.05 3697.70
v -164125.60 167975.94 3697.70
v -163859.53 167792.55 3651.30
v -163859.53 167792.55 3697.70
v -163863.34 167785.43 3697.70
v -163494.75 167527.57 3647.31
v -163494.75 167527.57 3697.70
v -163502.31 167523.17 3697.70
v -163141.33 167270.83 3643.44
v -163141.33 167270.83 3697.70
v -163152.52 167269.07 3697.70
v -163447.81 166850.86 3672.50
v -163447.81 166850.86 3697.70
v -163456.39 166852.67 3697.70
v -163449.91 166847.97 3672.70
v -163449.91 166847.97 3697.70
v -163458.48 166849.81 3697.70
v -162940.35 155539.24 4057.30
v -162358.00 155141.17 4026.63
v -162358.00 155141.17 4082.30
v -162940.35 155539.24 4082.30
v -162942.14 155530.77 4082.30
v -162362.51 155134.56 4082.30
v -162192.00 155027.57 4017.90
v -162192.00 155027.57 4082.30
v -162197.37 155021.54 4082.30
v -161855.08 154797.00 4027.84
v -161855.08 154797.00 4082.30
v -161862.16 154792.15 4082.30
v -161624.51 154639.21 4050.17
v -161624.51 154639.21 4082.30
v -161632.77 154635.16 4082.30
v -161499.17 154553.43 4057.30
v -161499.17 154553.43 4082.30
v -161508.06 154549.82 4082.30
v -164046.23 173936.00 3209.90
v -163823.36 174247.21 3179.62
v -163823.36 174247.21 3234.90
v -164046.23 173936.00 3234.90
v -164040.92 173929.67 3234.90
v -163821.51 174236.06 3234.90
v -162995.55 173656.53 3137.02
v -162995.55 173656.53 3234.90
v -163000.17 173650.00 3234.90
v -162157.34 173058.43 3208.80
v -162157.34 173058.43 3234.90
v -162168.51 173056.57 3234.90
v -162163.92 173049.23 3209.90
v -162163.92 173049.23 3234.90
v -162174.99 173047.52 3234.90
v -160964.41 198467.46 2308.50
v -160709.00 198553.71 2294.83
v -160709.00 198553.71 2333.50
v -160964.41 198467.46 2333.50
v -160966.86 198458.19 2333.50
v -160714.01 198543.57 2333.50
v -160681.01 198471.07 2297.02
v -160681.01 198471.07 2333.50
v -160686.39 198462.02 2333.50
v -160361.39 197527.57 2271.45
v -160361.39 197527.57 2333.50
v -160370.98 197530.94 2333.50
v -160318.87 197402.05 2278.09
v -160318.87 197402.05 2333.50
v -160329.02 197407.07 2333.50
v -160603.14 197306.19 2308.50
v -160603.14 197306.19 2333.50
v -160610.65 197312.10 2333.50
v -161257.14 173618.44 3126.90
v -161122.36 173825.62 3096.65
v -161122.36 173825.62 3151.90
v -161257.14 173618.44 3151.90
v -161253.48 173609.39 3151.90
v -161120.01 173814.57 3151.90
v -160639.18 173512.90 3114.85
v -160639.18 173512.90 3151.90
v -160638.21 173502.74 3151.90
v -159138.76 172541.82 3072.50
v -159138.76 172541.82 3151.90
v -159142.08 172534.43 3151.90
v -159124.51 172532.59 3072.10
v -159124.51 172532.59 3151.90
v -159127.87 172525.24 3151.90
v -159121.46 172530.62 3072.13
v -159121.46 172530.62 3151.90
v -159124.83 172523.27 3151.90
v -159116.75 172527.57 3072.19
v -159116.75 172527.57 3151.90
v -159120.13 172520.23 3151.90
v -157603.74 171548.34 3090.01
v -157603.74 171548.34 3151.90
v -157611.45 171543.79 3151.90
v -156624.51 170914.57 3101.54
v -156624.51 170914.57 3151.90
v -156635.02 170911.84 3151.90
v -156423.44 170784.43 3095.86
v -156423.44 170784.43 3151.90
v -156434.51 170782.07 3151.90
v -156576.30 170549.35 3126.90
v -156576.30 170549.35 3151.90
v -156586.08 170548.99 3151.90
v -159810.67 154008.27 4004.60
v -159782.80 154046.73 3995.53
v -159782.80 154046.73 4029.60
v -159810.67 154008.27 4029.60
v -159808.49 153997.63 4029.60
v -159781.01 154035.56 4029.60
v -159124.51 153571.13 3947.27
v -159124.51 153571.13 4029.60
v -159127.14 153563.16 4029.60
v -158817.83 153349.56 3973.86
v -158817.83 153349.56 4029.60
v -158822.51 153343.07 4029.60
v -158518.69 153133.39 3999.80
v -158518.69 153133.39 4029.60
v -158525.54 153128.47 4029.60
v -158249.27 152938.69 4004.60
v -158249.27 152938.69 4029.60
v -158258.07 152935.18 4029.60
v -155866.71 161707.57 3405.30
v -155841.19 161744.24 3403.83
v -155841.19 161744.24 3430.30
v -155866.71 161707.57 3430.30
v -155861.66 161700.82 3430.30
v -155836.30 161737.26 3430.30
v -155391.02 162391.19 3377.96
v -155391.02 162391.19 3430.30
v -155389.01 162380.07 3430.30
v -154723.51 161928.57 3396.46
v -154723.51 161928.57 3430.30
v -154728.77 161922.49 3430.30
v -154183.87 161554.58 3374.87
v -154183.87 161554.58 3430.30
v -154195.01 161552.57 3430.30
v -154785.57 160688.62 3398.94
v -154785.57 160688.62 3430.30
v -154796.71 160686.61 3430.30
v -154923.87 160489.59 3404.47
v -154923.87 160489.59 3430.30
v -154935.01 160487.57 3430.30
v -154460.02 160168.69 3385.92
v -154460.02 160168.69 3430.30
v -154458.01 160157.57 3430.30
v -154380.20 160283.26 3382.73
v -154380.20 160283.26 3430.30
v -154378.20 160272.14 3430.30
v -154282.03 160424.18 3378.80
v -154282.03 160424.18 3430.30
v -154280.02 160413.07 3430.30
v -154124.51 160315.16 3372.50
v -154124.51 160315.16 3430.30
v -154124.36 160305.33 3430.30
v -153954.56 160197.52 3365.70
v -153954.56 160197.52 3430.30
v -153956.41 160189.07 3430.30
v -153709.02 160027.57 3355.88
v -153709.02 160027.57 3430.30
v -153713.76 160021.12 3430.30
v -153164.37 159650.57 3379.33
v -153164.37 159650.57 3430.30
v -153175.51 159648.56 3430.30
v -153286.67 159474.95 3405.30
v -153286.67 159474.95 3430.30
v -153296.41 159474.96 3430.30
v -155542.75 168882.27 3088.50
v -155516.27 168919.32 3083.84
v -155516.27 168919.32 3113.50
v -155542.75 168882.27 3113.50
v -155538.10 168875.02 3113.50
v -155512.05 168911.47 3113.50
v -155370.87 169122.71 3058.26
v -155370.87 169122.71 3113.50
v -155369.01 169111.56 3113.50
v -155171.49 168980.60 3040.02
v -155171.49 168980.60 3113.50
v -155172.10 168971.21 3113.50
v -154323.85 168376.43 3078.61
v -154323.85 168376.43 3113.50
v -154335.01 168374.56 3113.50
v -154371.44 168309.88 3088.50
v -154371.44 168309.88 3113.50
v -154381.95 168308.94 3113.50
v -155438.54 166115.20 3228.99
v -154961.39 165793.21 3241.87
v -154961.39 165793.21 3284.30
v -155438.54 166115.20 3284.30
v -155443.02 166108.57 3284.30
v -154972.51 165791.07 3284.30
v -155257.02 165357.57 3259.30
v -155257.02 165357.57 3284.30
v -155262.95 165363.08 3284.30
v -155943.00 165357.57 3259.30
v -156152.65 165499.43 3253.63
v -156152.65 165499.43 3284.30
v -155943.00 165357.57 3284.30
v -155945.13 165368.67 3284.30
v -156154.79 165510.53 3284.30
v -156294.51 165595.42 3259.30
v -156294.51 165595.42 3284.30
v -156296.65 165606.52 3284.30
v -156294.51 166693.40 3259.30
v -155497.23 166154.85 3227.41
v -155497.23 166154.85 3284.30
v -156294.51 166693.40 3284.30
v -156299.00 166686.78 3284.30
v -155501.71 166148.22 3284.30
v -152639.98 190818.36 1917.00
v -152415.84 190658.43 1886.28
v -152415.84 190658.43 1942.00
v -152639.98 190818.36 1942.00
v -152649.38 190815.24 1942.00
v -152427.01 190656.57 1942.00
v -152867.74 190027.57 1871.96
v -152867.74 190027.57 1942.00
v -152872.81 190034.22 1942.00
v -153105.65 189695.43 1890.99
v -153105.65 189695.43 1942.00
v -153107.51 189706.57 1942.00
v -153396.15 189901.93 1914.23
v -153396.15 189901.93 1942.00
v -153398.01 189913.07 1942.00
v -153430.76 189853.58 1917.00
v -153430.76 189853.58 1942.00
v -153432.63 189864.72 1942.00
v -154429.51 182972.74 1996.90
v -154124.51 183479.94 1972.50
v -154124.51 183479.94 2021.90
v -154429.51 182972.74 2021.90
v -154422.57 182968.76 2021.90
v -154120.48 183471.13 2021.90
v -153988.25 183706.54 1967.05
v -153988.25 183706.54 2021.90
v -153985.51 183695.57 2021.90
v -153336.22 183315.86 1940.97
v -153336.22 183315.86 2021.90
v -153337.81 183307.48 2021.90
v -152020.60 182527.57 1972.50
v -152020.60 182527.57 2021.90
v -152030.90 182524.41 2021.90
v -151917.54 182465.81 1979.91
v -151917.54 182465.81 2021.90
v -151928.52 182463.07 2021.90
v -152002.62 182324.23 1996.90
v -152002.62 182324.23 2021.90
v -152012.80 182322.84 2021.90
v -153234.36 172039.76 2720.80
v -152566.49 171585.59 2685.54
v -152566.49 171585.59 2745.80
v -153234.36 172039.76 2745.80
v -153235.65 172030.96 2745.80
v -152574.39 171581.29 2745.80
v -152240.89 171364.17 2690.23
v -152240.89 171364.17 2745.80
v -152252.01 171362.06 2745.80
v -152435.34 171079.23 2720.80
v -152435.34 171079.23 2745.80
v -152445.26 171078.88 2745.80
v -151888.37 151260.72 3933.73
v -151758.86 151441.73 3921.31
v -151758.86 151441.73 3976.70
v -151888.37 151260.72 3976.70
v -151886.51 151249.56 3976.70
v -151757.01 151430.57 3976.70
v -151624.51 151345.76 3919.77
v -151624.51 151345.76 3976.70
v -151627.67 151338.19 3976.70
v -151409.84 151192.42 3925.91
v -151409.84 151192.42 3976.70
v -151421.01 151190.57 3976.70
v -151624.51 150892.74 3937.89
v -151624.51 150892.74 3976.70
v -151633.12 150894.47 3976.70
v -151768.58 150691.63 3951.70
v -151768.58 150691.63 3976.70
v -151775.47 150695.76 3976.70
v -152569.36 151492.42 3951.70
v -152448.87 151660.71 3940.15
v -152448.87 151660.71 3976.70
v -152569.36 151492.42 3976.70
v -152565.79 151483.67 3976.70
v -152447.01 151649.56 3976.70
v -153005.72 186031.28 1887.60
v -152847.56 186250.61 1872.50
v -152847.56 186250.61 1912.60
v -153005.72 186031.28 1912.60
v -152994.80 186032.75 1912.60
v -152837.09 186251.46 1912.60
v -152708.19 186443.89 1859.19
v -152708.19 186443.89 1912.60
v -152698.12 186444.18 1912.60
v -151926.76 187527.57 1796.68
v -151926.76 187527.57 1912.60
v -151918.95 187524.71 1912.60
v -151800.13 187703.18 1786.55
v -151800.13 187703.18 1912.60
v -151792.69 187699.81 1912.60
v -151624.51 187946.71 1772.50
v -151624.51 187946.71 1912.60
v -151617.59 187942.64 1912.60
v -150752.69 189155.74 1807.37
v -150752.69 189155.74 1912.60
v -150748.28 189148.17 1912.60
v -150124.02 190027.57 1832.52
v -150124.02 190027.57 1912.60
v -150121.44 190017.48 1912.60
v -149857.82 190396.72 1857.93
v -149857.82 190396.72 1912.60
v -149856.01 190385.56 1912.60
v -149344.74 190027.57 1863.69
v -149344.74 190027.57 1912.60
v -149347.74 190019.87 1912.60
v -149216.67 189935.42 1868.81
v -149216.67 189935.42 1912.60
v -149220.87 189928.58 1912.60
v -149166.84 189899.57 1867.38
v -149166.84 189899.57 1912.60
v -149171.51 189893.07 1912.60
v -149124.51 189869.18 1866.16
v -149124.51 189869.18 1912.60
v -149129.53 189862.93 1912.60
v -148706.50 189569.04 1887.60
v -148706.50 189569.04 1912.60
v -148714.94 189565.25 1912.60
v -148498.20 189152.45 1887.60
v -149124.51 188283.89 1802.75
v -149124.51 188283.89 1912.60
v -148498.20 189152.45 1912.60
v -148509.01 189151.13 1912.60
v -149133.51 188285.09 1912.60
v -149441.39 187844.45 1785.18
v -149441.39 187844.45 1912.60
v -149449.47 187846.92 1912.60
v -149669.89 187527.57 1772.50
v -149669.89 187527.57 1912.60
v -149677.31 187530.96 1912.60
v -150488.83 186391.88 1817.93
v -150488.83 186391.88 1912.60
v -150493.88 186398.56 1912.60
v -151079.92 185572.16 1850.72
v -151079.92 185572.16 1912.60
v -151083.25 185581.22 1912.60
v -151472.62 185027.57 1872.50
v -151472.62 185027.57 1912.60
v -151474.82 185038.20 1912.60
v -151536.26 184939.31 1876.03
v -151536.26 184939.31 1912.60
v -151538.28 184950.20 1912.60
v -151604.69 184844.41 1879.83
v -151604.69 184844.41 1912.60
v -151606.51 184855.57 1912.60
v -151624.51 184858.66 1879.26
v -151624.51 184858.66 1912.60
v -151626.16 184869.69 1912.60
v -151722.79 184929.29 1876.43
v -151722.79 184929.29 1912.60
v -151723.58 184939.71 1912.60
v -151859.54 185027.57 1881.90
v -151859.54 185027.57 1912.60
v -151859.13 185037.12 1912.60
v -152366.02 185391.57 1887.60
v -152366.02 185391.57 1912.60
v -152361.18 185397.95 1912.60
v -151875.76 187622.22 1792.60
v -151810.15 187713.21 1787.35
v -151810.15 187713.21 1837.60
v -151875.76 187622.22 1837.60
v -151862.43 187616.77 1837.60
v -151797.15 187707.30 1837.60
v -151624.51 187970.65 1772.50
v -151624.51 187970.65 1837.60
v -151612.45 187963.44 1837.60
v -151122.01 188667.51 1792.60
v -151122.01 188667.51 1837.60
v -151112.48 188656.79 1837.60
v -149290.28 188030.07 1792.60
v -149431.36 187834.42 1784.77
v -149431.36 187834.42 1837.60
v -149290.28 188030.07 1837.60
v -149305.11 188033.44 1837.60
v -149445.48 187838.77 1837.60
v -149652.63 187527.57 1772.50
v -149652.63 187527.57 1837.60
v -149665.64 187533.47 1837.60
v -150014.98 187025.07 1792.60
v -150014.98 187025.07 1837.60
v -150026.16 187033.50 1837.60
v -151862.43 187616.77 1792.60
v -151112.48 188656.79 1792.60
v -149305.11 188033.44 1792.60
v -150026.16 187033.50 1792.60
vt -994.9566 10.8625
vt -996.6517 10.9313
vt -996.6517 11.0008
vt -994.9566 11.0008
vt -994.9364 11.0008
vt -996.6148 11.0008
vt -996.8243 10.9383
vt -996.8243 11.0008
vt -996.7857 11.0008
vt -991.4552 10.9383
vt -991.6302 10.9313
vt -991.6302 11.0008
vt -991.4552 11.0008
vt -991.4596 11.0008
vt -991.6338 11.0008
vt -992.5105 10.8960
vt -992.5105 11.0008
vt -992.5102 11.0008
vt -994.1589 10.8301
vt -994.1589 11.0008
vt -994.1452 11.0008
vt -948.2120 13.3987
vt -948.1489 13.3883
vt -948.1489 13.4612
vt -948.2120 13.4612
vt -948.1936 13.4612
vt -948.1312 13.4612
vt -947.8802 13.3436
vt -947.8802 13.4612
vt -947.8650 13.4612
vt -947.8009 13.3209
vt -947.8009 13.4612
vt -947.7865 13.4612
vt -947.1234 13.3102
vt -947.1234 13.4612
vt -947.1204 13.4612
vt -946.2751 13.3457
vt -946.2751 13.4612
vt -946.2865 13.4612
vt -945.4073 13.3818
vt -945.4073 13.4612
vt -945.4320 13.4612
vt -945.0001 13.3987
vt -945.0001 13.4612
vt -945.0311 13.4612
vt -957.8780 11.8403
vt -957.7444 11.8258
vt -957.7444 11.9028
vt -957.8780 11.9028
vt -957.8510 11.9028
vt -957.7189 11.9028
vt -956.7701 11.7648
vt -956.7701 11.9028
vt -956.7565 11.9028
vt -956.0176 11.7568
vt -956.0176 11.9028
vt -956.0179 11.9028
vt -954.2780 11.8403
vt -954.2780 11.9028
vt -954.3108 11.9028
vt -947.6473 12.2085
vt -947.5951 12.1927
vt -947.5951 12.2710
vt -947.6473 12.2710
vt -947.6243 12.2710
vt -947.5727 12.2710
vt -947.4781 12.1813
vt -947.4781 12.2710
vt -947.4569 12.2710
vt -947.1983 12.1540
vt -947.1983 12.2710
vt -947.1798 12.2710
vt -946.8957 12.1332
vt -946.8957 12.2710
vt -946.8802 12.2710
vt -946.5871 12.1295
vt -946.5871 12.2710
vt -946.5767 12.2710
vt -943.6896 12.1770
vt -943.6896 12.2710
vt -943.7264 12.2710
vt -943.7332 12.1813
vt -943.7332 12.2710
vt -943.7697 12.2710
vt -944.0122 12.2085
vt -944.0122 12.2710
vt -944.0458 12.2710
vt -945.4156 12.0010
vt -944.7232 11.9533
vt -944.7232 12.0635
vt -945.4156 12.0635
vt -945.3917 12.0635
vt -944.7077 12.0635
vt -942.8675 11.9313
vt -942.8675 12.0635
vt -942.8725 12.0635
vt -942.3546 11.9252
vt -942.3546 12.0635
vt -942.3652 12.0635
vt -941.6302 11.9165
vt -941.6302 12.0635
vt -941.6463 12.0635
vt -941.1079 11.9313
vt -941.1079 12.0635
vt -941.1279 12.0635
vt -939.8221 11.9674
vt -939.8221 12.0635
vt -939.8517 12.0635
vt -938.8633 11.9944
vt -938.8633 12.0635
vt -938.9002 12.0635
vt -939.0917 12.0010
vt -939.0917 12.0635
vt -939.1258 12.0635
vt -933.9547 12.0110
vt -932.0388 11.9139
vt -932.0388 12.0735
vt -933.9547 12.0735
vt -933.9667 12.0735
vt -932.0508 12.0735
vt -931.5045 11.9339
vt -931.5045 12.0735
vt -931.5165 12.0735
vt -929.4435 12.0110
vt -929.4435 12.0735
vt -929.4741 12.0735
vt -955.6324 11.6558
vt -954.4912 11.5804
vt -954.4912 11.7183
vt -955.6324 11.7183
vt -955.6050 11.7183
vt -954.4764 11.7183
vt -954.1302 11.5762
vt -954.1302 11.7183
vt -954.1169 11.7183
vt -951.3551 11.6558
vt -951.3551 11.7183
vt -951.3525 11.7183
vt -955.4757 11.4945
vt -954.9178 11.4628
vt -954.9178 11.5570
vt -955.4757 11.5570
vt -955.4527 11.5570
vt -954.8997 11.5570
vt -954.4910 11.4385
vt -954.4910 11.5570
vt -954.4765 11.5570
vt -954.3642 11.4313
vt -954.3642 11.5570
vt -954.3509 11.5570
vt -954.1491 11.4190
vt -954.1491 11.5570
vt -954.1377 11.5570
vt -954.1302 11.4188
vt -954.1302 11.5570
vt -954.1189 11.5570
vt -953.7266 11.4151
vt -953.7266 11.5570
vt -953.7189 11.5570
vt -952.9761 11.4313
vt -952.9761 11.5570
vt -952.9749 11.5570
vt -951.3068 11.4671
vt -951.3068 11.5570
vt -951.3202 11.5570
vt -950.0440 11.4945
vt -950.0440 11.5570
vt -950.0685 11.5570
vt -945.7785 11.4817
vt -945.2256 11.4689
vt -945.2256 11.5442
vt -945.7785 11.5442
vt -945.7686 11.5442
vt -945.2219 11.5442
vt -943.9193 11.4385
vt -943.9193 11.5442
vt -943.9302 11.5442
vt -941.6302 11.3852
vt -941.6302 11.5442
vt -941.6580 11.5442
vt -940.3769 11.4061
vt -940.3769 11.5442
vt -940.4139 11.5442
vt -940.6406 11.4313
vt -940.6406 11.5442
vt -940.6752 11.5442
vt -941.1698 11.4817
vt -941.1698 11.5442
vt -941.1998 11.5442
vt -933.5646 11.7450
vt -933.3037 11.7125
vt -933.3037 11.8075
vt -933.5646 11.8075
vt -933.5511 11.8075
vt -933.2902 11.8075
vt -932.4076 11.6935
vt -932.4076 11.8075
vt -932.3971 11.8075
vt -929.1302 11.5275
vt -929.1302 11.8075
vt -929.1305 11.8075
vt -926.0660 11.6175
vt -926.0660 11.8075
vt -926.0765 11.8075
vt -923.8970 11.6813
vt -923.8970 11.8075
vt -923.9146 11.8075
vt -922.8802 11.7111
vt -922.8802 11.8075
vt -922.9013 11.8075
vt -921.7267 11.7450
vt -921.7267 11.8075
vt -921.7516 11.8075
vt -926.1056 11.7450
vt -926.4537 11.7348
vt -926.4537 11.8075
vt -926.1056 11.8075
vt -926.0936 11.8075
vt -926.4417 11.8075
vt -928.2771 11.6813
vt -928.2771 11.8075
vt -928.2651 11.8075
vt -928.6510 11.6703
vt -928.6510 11.8075
vt -928.6390 11.8075
vt -929.1302 11.6562
vt -929.1302 11.8075
vt -929.1182 11.8075
vt -930.8848 11.7450
vt -930.8848 11.8075
vt -930.8728 11.8075
vt -867.7850 15.8183
vt -868.0145 15.7510
vt -868.0145 15.8808
vt -867.7850 15.8808
vt -867.7555 15.8808
vt -867.9827 15.8808
vt -866.6302 15.7433
vt -866.6302 15.8808
vt -866.6223 15.8808
vt -866.3941 15.7420
vt -866.3941 15.8808
vt -866.3902 15.8808
vt -865.2666 15.7358
vt -865.2666 15.8808
vt -865.2771 15.8808
vt -864.1785 15.7546
vt -864.1785 15.8808
vt -864.2027 15.8808
vt -863.9826 15.7871
vt -863.9826 15.8808
vt -864.0088 15.8808
vt -863.8765 15.8183
vt -863.8765 15.8808
vt -863.9037 15.8808
vt -929.9687 11.1412
vt -929.1302 11.0993
vt -929.1302 11.2037
vt -929.9687 11.2037
vt -929.9616 11.2037
vt -929.1264 11.2037
vt -926.1116 11.0690
vt -926.1116 11.2037
vt -926.1195 11.2037
vt -925.5853 11.0637
vt -925.5853 11.2037
vt -925.5952 11.2037
vt -922.8802 11.0365
vt -922.8802 11.2037
vt -922.9096 11.2037
vt -921.9075 11.0656
vt -921.9075 11.2037
vt -921.9440 11.2037
vt -922.2631 11.1412
vt -922.2631 11.2037
vt -922.2961 11.2037
vt -900.2591 12.9255
vt -900.2687 12.8482
vt -900.2687 12.9880
vt -900.2591 12.9880
vt -900.2307 12.9880
vt -900.2402 12.9880
vt -897.8802 12.8460
vt -897.8802 12.9880
vt -897.8695 12.9880
vt -893.6403 12.8420
vt -893.6403 12.9880
vt -893.6611 12.9880
vt -892.6721 12.8986
vt -892.6721 12.9880
vt -892.7002 12.9880
vt -892.6704 12.9255
vt -892.6704 12.9880
vt -892.6985 12.9880
vt -867.3438 15.0217
vt -867.4661 14.9611
vt -867.4661 15.0842
vt -867.3438 15.0842
vt -867.3127 15.0842
vt -867.4340 15.0842
vt -866.6302 14.9176
vt -866.6302 15.0842
vt -866.6111 15.0842
vt -865.6732 14.9444
vt -865.6732 15.0842
vt -865.6689 15.0842
vt -864.0632 14.9893
vt -864.0632 15.0842
vt -864.0854 15.0842
vt -863.9690 14.9876
vt -863.9690 15.0842
vt -863.9927 15.0842
vt -863.9498 15.0029
vt -863.9498 15.0842
vt -863.9738 15.0842
vt -863.9170 15.0217
vt -863.9170 15.0842
vt -863.9412 15.0842
vt -940.5521 9.7587
vt -940.5077 9.7550
vt -940.5077 9.8212
vt -940.5521 9.8212
vt -940.5696 9.8212
vt -940.5252 9.8212
vt -939.3454 9.6571
vt -939.3454 9.8212
vt -939.3742 9.8212
vt -938.2659 9.6819
vt -938.2659 9.8212
vt -938.3052 9.8212
vt -938.7945 9.7587
vt -938.7945 9.8212
vt -938.8284 9.8212
vt -896.3336 11.4663
vt -896.5017 11.3895
vt -896.5017 11.5288
vt -896.3336 11.5288
vt -896.3026 11.5288
vt -896.4690 11.5288
vt -895.4615 11.3747
vt -895.4615 11.5288
vt -895.4416 11.5288
vt -891.9685 11.4074
vt -891.9685 11.5288
vt -891.9914 11.5288
vt -891.8061 11.4663
vt -891.8061 11.5288
vt -891.8307 11.5288
vt -867.8410 13.3028
vt -866.7751 13.3278
vt -866.7751 13.3903
vt -867.8410 13.3903
vt -867.8352 13.3903
vt -866.7838 13.3903
vt -870.2555 13.3278
vt -870.3899 13.2501
vt -870.3899 13.3903
vt -870.2555 13.3903
vt -870.2249 13.3903
vt -870.3564 13.3903
vt -870.2521 13.2466
vt -870.2521 13.3903
vt -870.2201 13.3903
vt -828.9874 14.4313
vt -829.1302 14.4313
vt -829.1302 14.5217
vt -828.9874 14.5217
vt -828.9664 14.5217
vt -829.1078 14.5217
vt -829.1979 14.4339
vt -829.1979 14.5217
vt -829.1748 14.5217
vt -829.2141 14.4346
vt -829.2141 14.5217
vt -829.1908 14.5217
vt -829.2402 14.4357
vt -829.2402 14.5217
vt -829.2167 14.5217
vt -830.2755 14.4107
vt -830.2755 14.5217
vt -830.2414 14.5217
vt -829.1302 14.3365
vt -829.1302 14.5217
vt -829.1109 14.5217
vt -826.0143 14.3840
vt -826.0143 14.5217
vt -826.0352 14.5217
vt -825.5601 14.4313
vt -825.5601 14.5217
vt -825.5857 14.5217
vt -824.7274 14.4313
vt -824.7274 14.5217
vt -824.7615 14.5217
vt -825.0014 14.4313
vt -825.0014 14.5217
vt -825.0316 14.5217
vt -826.6949 14.4313
vt -826.6949 14.5217
vt -826.7015 14.5217
vt -828.3339 14.4313
vt -828.3339 14.5217
vt -828.3208 14.5217
vt -835.3195 13.9095
vt -835.3802 13.8827
vt -835.3802 13.9720
vt -835.3195 13.9720
vt -835.2866 13.9720
vt -835.3473 13.9720
vt -835.4481 13.8556
vt -835.4481 13.9720
vt -835.4152 13.9720
vt -835.3802 13.8518
vt -835.3802 13.9720
vt -835.3487 13.9720
vt -834.0891 13.8331
vt -834.0891 13.9720
vt -834.0840 13.9720
vt -833.5767 13.8255
vt -833.5767 13.9720
vt -833.5821 13.9720
vt -832.7324 13.8330
vt -832.7324 13.9720
vt -832.7552 13.9720
vt -832.5137 13.9095
vt -832.5137 13.9720
vt -832.5377 13.9720
vt -892.3727 10.1080
vt -892.4776 10.0310
vt -892.4776 10.1705
vt -892.3727 10.1705
vt -892.3425 10.1705
vt -892.4464 10.1705
vt -891.6302 10.0235
vt -891.6302 10.1705
vt -891.6093 10.1705
vt -890.5928 10.0142
vt -890.5928 10.1705
vt -890.5846 10.1705
vt -887.8639 10.0507
vt -887.8639 10.1705
vt -887.8890 10.1705
vt -887.7635 10.1080
vt -887.7635 10.1705
vt -887.7895 10.1705
vt -844.0598 10.9217
vt -842.9804 10.8232
vt -842.9804 10.9842
vt -844.0598 10.9842
vt -844.0643 10.9842
vt -842.9950 10.9842
vt -842.2424 10.8461
vt -842.2424 10.9842
vt -842.2640 10.9842
vt -841.9861 10.9028
vt -841.9861 10.9842
vt -842.0105 10.9842
vt -841.9530 10.9217
vt -841.9530 10.9842
vt -841.9778 10.9842
vt -827.3321 12.2940
vt -825.8072 12.1971
vt -825.8072 12.3565
vt -827.3321 12.3565
vt -827.3036 12.3565
vt -825.7981 12.3565
vt -823.3428 12.2173
vt -823.3428 12.3565
vt -823.3652 12.3565
vt -823.1096 12.2940
vt -823.1096 12.3565
vt -823.1354 12.3565
vt -810.7711 13.6532
vt -811.0537 13.5973
vt -811.0537 13.7157
vt -810.7711 13.7157
vt -810.7378 13.7157
vt -811.0190 13.7157
vt -810.3802 13.5727
vt -810.3802 13.7157
vt -810.3555 13.7157
vt -809.2352 13.5765
vt -809.2352 13.7157
vt -809.2277 13.7157
vt -807.8792 13.5812
vt -807.8792 13.7157
vt -807.8918 13.7157
vt -807.4030 13.5829
vt -807.4030 13.7157
vt -807.4227 13.7157
vt -807.1072 13.6532
vt -807.1072 13.7157
vt -807.1285 13.7157
vt -895.0440 7.4065
vt -894.6379 7.3664
vt -894.6379 7.4690
vt -895.0440 7.4690
vt -895.0236 7.4690
vt -894.6175 7.4690
vt -894.4644 7.3493
vt -894.4644 7.4690
vt -894.4440 7.4690
vt -891.7641 7.3089
vt -891.7641 7.4690
vt -891.7824 7.4690
vt -891.6302 7.3069
vt -891.6302 7.4690
vt -891.6504 7.4690
vt -890.6345 7.3319
vt -890.6345 7.4690
vt -890.6689 7.4690
vt -891.6302 7.3902
vt -891.6302 7.4690
vt -891.6581 7.4690
vt -891.7065 7.3977
vt -891.7065 7.4690
vt -891.7340 7.4690
vt -891.7958 7.4065
vt -891.7958 7.4690
vt -891.8232 7.4690
vt -901.4885 6.8252
vt -899.9639 6.7497
vt -899.9639 6.8877
vt -901.4885 6.8877
vt -901.4686 6.8877
vt -899.9540 6.8877
vt -899.4554 6.7442
vt -899.4554 6.8877
vt -899.4531 6.8877
vt -898.4039 6.7944
vt -898.4039 6.8877
vt -898.4177 6.8877
vt -897.8876 6.8252
vt -897.8876 6.8877
vt -897.9026 6.8877
vt -823.1798 10.5080
vt -823.2831 10.4474
vt -823.2831 10.5705
vt -823.1798 10.5705
vt -823.1485 10.5705
vt -823.2508 10.5705
vt -823.3558 10.4320
vt -823.3558 10.5705
vt -823.3227 10.5705
vt -823.2520 10.4313
vt -823.2520 10.5705
vt -823.2206 10.5705
vt -822.9404 10.4289
vt -822.9404 10.5705
vt -822.9140 10.5705
vt -822.8802 10.4298
vt -822.8802 10.5705
vt -822.8547 10.5705
vt -822.7911 10.4277
vt -822.7911 10.5705
vt -822.7671 10.5705
vt -821.6143 10.4376
vt -821.6143 10.5705
vt -821.6090 10.5705
vt -819.6514 10.4545
vt -819.6514 10.5705
vt -819.6739 10.5705
vt -819.5205 10.4985
vt -819.5205 10.5705
vt -819.5443 10.5705
vt -819.4920 10.5080
vt -819.4920 10.5705
vt -819.5160 10.5705
vt -815.8679 11.0972
vt -815.9938 11.0206
vt -815.9938 11.1597
vt -815.8679 11.1597
vt -815.8371 11.1597
vt -815.9614 11.1597
vt -815.6627 11.0086
vt -815.6627 11.1597
vt -815.6354 11.1597
vt -813.0276 11.0972
vt -813.0276 11.1597
vt -813.0403 11.1597
vt -848.6332 9.0500
vt -847.8802 9.0132
vt -847.8802 9.1125
vt -848.6332 9.1125
vt -848.6009 9.1125
vt -847.8541 9.1125
vt -842.4771 8.9651
vt -842.4771 9.1125
vt -842.4957 9.1125
vt -842.1199 8.9730
vt -842.1199 9.1125
vt -842.1415 9.1125
vt -841.9292 9.0500
vt -841.9292 9.1125
vt -841.9525 9.1125
vt -905.6613 6.5773
vt -904.1302 6.4818
vt -904.1302 6.6398
vt -905.6613 6.6398
vt -905.6780 6.6398
vt -904.1588 6.6398
vt -903.0041 6.5017
vt -903.0041 6.6398
vt -903.0415 6.6398
vt -903.8398 6.5773
vt -903.8398 6.6398
vt -903.8667 6.6398
vt -831.3160 9.1817
vt -831.3170 9.1813
vt -831.3170 9.2442
vt -831.3160 9.2442
vt -831.2850 9.2442
vt -831.2860 9.2442
vt -831.4662 9.1049
vt -831.4662 9.2442
vt -831.4339 9.2442
vt -830.2739 9.0898
vt -830.2739 9.2442
vt -830.2539 9.2442
vt -829.1302 9.1283
vt -829.1302 9.2442
vt -829.1219 9.2442
vt -827.5558 9.1183
vt -827.5558 9.2442
vt -827.5637 9.2442
vt -826.0304 9.1086
vt -826.0304 9.2442
vt -826.0540 9.2442
vt -825.7467 9.1813
vt -825.7467 9.2442
vt -825.7727 9.2442
vt -825.7447 9.1817
vt -825.7447 9.2442
vt -825.7707 9.2442
vt -796.1990 10.1433
vt -793.7479 10.0666
vt -793.7479 10.2058
vt -796.1990 10.2058
vt -796.1823 10.2058
vt -793.7427 10.2058
vt -793.0489 10.0448
vt -793.0489 10.2058
vt -793.0473 10.2058
vt -791.6302 10.0696
vt -791.6302 10.2058
vt -791.6358 10.2058
vt -790.6593 10.1254
vt -790.6593 10.2058
vt -790.6698 10.2058
vt -790.1315 10.1433
vt -790.1315 10.2058
vt -790.1447 10.2058
vt -844.9556 8.0248
vt -845.1764 7.9490
vt -845.1764 8.0873
vt -844.9556 8.0873
vt -844.9265 8.0873
vt -845.1439 8.0873
vt -841.6302 7.8426
vt -841.6302 8.0873
vt -841.6254 8.0873
vt -838.0394 8.0220
vt -838.0394 8.0873
vt -838.0627 8.0873
vt -838.0329 8.0248
vt -838.0329 8.0873
vt -838.0563 8.0873
vt -898.5797 5.7713
vt -898.1568 5.7371
vt -898.1568 5.8338
vt -898.5797 5.8338
vt -898.5626 5.8338
vt -898.1440 5.8338
vt -897.8802 5.7425
vt -897.8802 5.8338
vt -897.8710 5.8338
vt -894.7224 5.6786
vt -894.7224 5.8338
vt -894.7548 5.8338
vt -894.3023 5.6952
vt -894.3023 5.8338
vt -894.3402 5.8338
vt -894.7733 5.7713
vt -894.7733 5.8338
vt -894.8069 5.8338
vt -837.1890 7.8173
vt -837.3699 7.7416
vt -837.3699 7.8798
vt -837.1890 7.8798
vt -837.1572 7.8798
vt -837.3365 7.8798
vt -835.3802 7.7871
vt -835.3802 7.8798
vt -835.3524 7.8798
vt -829.2015 7.6813
vt -829.2015 7.8798
vt -829.1913 7.8798
vt -829.1427 7.6803
vt -829.1427 7.8798
vt -829.1328 7.8798
vt -829.1302 7.6803
vt -829.1302 7.8798
vt -829.1202 7.8798
vt -829.1108 7.6805
vt -829.1108 7.8798
vt -829.1009 7.8798
vt -822.8802 7.7250
vt -822.8802 7.8798
vt -822.8881 7.8798
vt -818.8477 7.7538
vt -818.8477 7.8798
vt -818.8671 7.8798
vt -818.0197 7.7397
vt -818.0197 7.8798
vt -818.0415 7.8798
vt -817.8141 7.8173
vt -817.8141 7.8798
vt -817.8377 7.8798
vt -784.5474 10.0115
vt -784.5738 9.9888
vt -784.5738 10.0740
vt -784.5474 10.0740
vt -784.5153 10.0740
vt -784.5414 10.0740
vt -781.7391 9.8682
vt -781.7391 10.0740
vt -781.7258 10.0740
vt -780.4185 9.9346
vt -780.4185 10.0740
vt -780.4139 10.0740
vt -779.1302 9.9995
vt -779.1302 10.0740
vt -779.1350 10.0740
vt -777.9699 10.0115
vt -777.9699 10.0740
vt -777.9831 10.0740
vt -793.9357 8.5133
vt -793.9636 8.5096
vt -793.9636 8.5758
vt -793.9357 8.5758
vt -793.9062 8.5758
vt -793.9339 8.5758
vt -794.4555 8.4449
vt -794.4555 8.5758
vt -794.4227 8.5758
vt -791.6302 8.4911
vt -791.6302 8.5758
vt -791.6282 8.5758
vt -789.3461 8.4372
vt -789.3461 8.5758
vt -789.3690 8.5758
vt -788.6855 8.4974
vt -788.6855 8.5758
vt -788.7083 8.5758
vt -788.5336 8.5112
vt -788.5336 8.5758
vt -788.5565 8.5758
vt -786.5718 8.4648
vt -786.5718 8.5758
vt -786.5389 8.5758
vt -786.6587 8.4568
vt -786.6587 8.5758
vt -786.6259 8.5758
vt -786.7655 8.4470
vt -786.7655 8.5758
vt -786.7327 8.5758
vt -786.0992 8.4313
vt -786.0992 8.5758
vt -786.0742 8.5758
vt -785.3802 8.4142
vt -785.3802 8.5758
vt -785.3637 8.5758
vt -784.3415 8.3897
vt -784.3415 8.5758
vt -784.3372 8.5758
vt -782.0374 8.4483
vt -782.0374 8.5758
vt -782.0602 8.5758
vt -781.9040 8.5133
vt -781.9040 8.5758
vt -781.9284 8.5758
vt -811.0626 7.7213
vt -811.0890 7.7096
vt -811.0890 7.7838
vt -811.0626 7.7838
vt -811.0328 7.7838
vt -811.0588 7.7838
vt -811.2339 7.6457
vt -811.2339 7.7838
vt -811.2014 7.7838
vt -810.3802 7.6000
vt -810.3802 7.7838
vt -810.3583 7.7838
vt -806.7507 7.6965
vt -806.7507 7.7838
vt -806.7739 7.7838
vt -806.7033 7.7213
vt -806.7033 7.7838
vt -806.7272 7.7838
vt -803.8843 8.0725
vt -801.8865 8.1047
vt -801.8865 8.2108
vt -803.8843 8.2108
vt -803.8790 8.2108
vt -801.9090 8.2108
vt -801.5365 8.1483
vt -801.5365 8.2108
vt -801.5651 8.2108
vt -803.2514 8.1483
vt -804.1302 8.1341
vt -804.1302 8.2108
vt -803.2514 8.2108
vt -803.2845 8.2108
vt -804.1633 8.2108
vt -804.7248 8.1483
vt -804.7248 8.2108
vt -804.7579 8.2108
vt -807.4698 8.1483
vt -804.1302 8.0685
vt -804.1302 8.2108
vt -807.4698 8.2108
vt -807.4645 8.2108
vt -804.1248 8.2108
vt -858.6458 4.7925
vt -857.6857 4.7157
vt -857.6857 4.8550
vt -858.6458 4.8550
vt -858.6616 4.8550
vt -857.7090 4.8550
vt -857.2383 4.6799
vt -857.2383 4.8550
vt -857.2676 4.8550
vt -857.0027 4.7275
vt -857.0027 4.8550
vt -857.0352 4.8550
vt -858.2452 4.7856
vt -858.2452 4.8550
vt -858.2777 4.8550
vt -858.2108 4.7925
vt -858.2108 4.8550
vt -858.2434 4.8550
vt -843.5056 4.9923
vt -844.0111 4.9313
vt -844.0111 5.0548
vt -843.5056 5.0548
vt -843.4783 5.0548
vt -843.9790 5.0548
vt -844.2370 4.9176
vt -844.2370 5.0548
vt -844.2027 5.0548
vt -841.6302 4.8524
vt -841.6302 5.0548
vt -841.6132 5.0548
vt -836.3704 4.9313
vt -836.3704 5.0548
vt -836.3883 5.0548
vt -835.9584 4.9498
vt -835.9584 5.0548
vt -835.9790 5.0548
vt -835.8171 4.9923
vt -835.8171 5.0548
vt -835.8391 5.0548
vt -813.1853 6.8020
vt -810.3802 6.7138
vt -810.3802 6.8645
vt -813.1853 6.8645
vt -813.1665 6.8645
vt -810.3892 6.8645
vt -809.0127 6.7256
vt -809.0127 6.8645
vt -809.0352 6.8645
vt -808.7864 6.8020
vt -808.7864 6.8645
vt -808.8104 6.8645
vt -757.8727 9.8343
vt -758.0015 9.8033
vt -758.0015 9.9417
vt -757.8727 9.9417
vt -757.8402 9.9417
vt -757.9690 9.9417
vt -757.4257 9.7994
vt -757.4257 9.9417
vt -757.4146 9.9417
vt -756.5057 9.8148
vt -756.5057 9.9417
vt -756.5290 9.9417
vt -756.2931 9.8447
vt -756.2931 9.9417
vt -756.3190 9.9417
vt -756.1505 9.8792
vt -756.1505 9.9417
vt -756.1781 9.9417
vt -760.1545 9.8792
vt -760.2739 9.8504
vt -760.2739 9.9417
vt -760.1545 9.9417
vt -760.1236 9.9417
vt -760.2414 9.9417
vt -847.5925 4.7190
vt -847.7454 4.6813
vt -847.7454 4.7815
vt -847.5925 4.7815
vt -847.5689 4.7815
vt -847.7214 4.7815
vt -847.8802 4.6480
vt -847.8802 4.7815
vt -847.8557 4.7815
vt -848.6358 4.4917
vt -848.6358 4.7815
vt -848.6092 4.7815
vt -848.7583 4.4664
vt -848.7583 4.7815
vt -848.7313 4.7815
vt -848.9280 4.4313
vt -848.9280 4.7815
vt -848.9006 4.7815
vt -849.7711 4.5184
vt -849.7711 4.7815
vt -849.7411 4.7815
vt -850.3790 4.5813
vt -850.3790 4.7815
vt -850.3473 4.7815
vt -850.6364 4.6448
vt -850.6364 4.7815
vt -850.6039 4.7815
vt -848.4308 4.6592
vt -848.4308 4.7815
vt -848.4190 4.7815
vt -847.8802 4.6720
vt -847.8802 4.7815
vt -847.8736 4.7815
vt -847.6660 4.6684
vt -847.6660 4.7815
vt -847.6615 4.7815
vt -847.4842 4.6654
vt -847.4842 4.7815
vt -847.4811 4.7815
vt -845.6889 4.7190
vt -845.6889 4.7815
vt -845.7005 4.7815
vt -844.1266 4.7190
vt -843.5210 4.5069
vt -843.5210 4.7815
vt -844.1266 4.7815
vt -844.1504 4.7815
vt -843.5465 4.7815
vt -843.2146 4.4630
vt -843.2146 4.7815
vt -843.2410 4.7815
vt -842.9937 4.4313
vt -842.9937 4.7815
vt -843.0207 4.7815
vt -842.2018 4.5448
vt -842.2018 4.7815
vt -842.2311 4.7815
vt -841.6302 4.6268
vt -841.6302 4.7815
vt -841.6612 4.7815
vt -841.2505 4.6813
vt -841.2505 4.7815
vt -841.2826 4.7815
vt -841.1889 4.6901
vt -841.1889 4.7815
vt -841.2212 4.7815
vt -841.1227 4.6996
vt -841.1227 4.7815
vt -841.1552 4.7815
vt -841.2079 4.6982
vt -841.2079 4.7815
vt -841.2396 4.7815
vt -841.6302 4.6911
vt -841.6302 4.7815
vt -841.6582 4.7815
vt -842.2178 4.7048
vt -842.2178 4.7815
vt -842.2406 4.7815
vt -844.3940 4.7190
vt -844.3940 4.7815
vt -844.3978 4.7815
vt -848.7449 4.4815
vt -848.8084 4.4684
vt -848.8084 4.5940
vt -848.7449 4.5940
vt -848.6980 4.5940
vt -848.7611 4.5940
vt -848.9879 4.4313
vt -848.9879 4.5940
vt -848.9397 4.5940
vt -849.4738 4.4815
vt -849.4738 4.5940
vt -849.4232 4.5940
vt -843.3009 4.4815
vt -843.1645 4.4619
vt -843.1645 4.5940
vt -843.3009 4.5940
vt -843.3464 4.5940
vt -843.2106 4.5940
vt -842.9505 4.4313
vt -842.9505 4.5940
vt -842.9978 4.5940
vt -842.6001 4.4815
vt -842.6001 4.5940
vt -842.6492 4.5940
vt -848.6980 4.4815
vt -849.4232 4.4815
vt -843.3464 4.4815
vt -842.6492 4.4815
vn -1.0000 0.0069 0.0000
vn 0.0000 -0.0000 1.0000
vn -0.0081 -1.0000 0.0000
vn -1.0000 0.0077 0.0000
vn -0.3609 0.9326 0.0000
vn 0.9325 0.3611 0.0000
vn 0.9321 0.3622 0.0000
vn -0.3400 0.9404 0.0000
vn 0.9398 0.3417 0.0000
vn -0.3857 0.9226 0.0000
vn 0.9223 0.3865 0.0000
vn 0.3865 -0.9223 0.0000
vn -0.3870 0.9221 0.0000
vn 0.9214 0.3887 0.0000
vn 0.9212 0.3890 0.0000
vn 0.3875 -0.9219 0.0000
vn 0.9399 0.3415 0.0000
vn 0.9401 0.3410 0.0000
vn -0.3670 0.9302 0.0000
vn 0.9296 0.3684 0.0000
vn -0.2848 0.9586 0.0000
vn 0.9577 0.2879 0.0000
vn 0.9585 0.2852 0.0000
vn 0.9251 0.3797 0.0000
vn 0.9250 0.3799 0.0000
vn 0.3788 -0.9255 0.0000
vn -0.3371 0.9415 0.0000
vn 0.9404 0.3401 0.0000
vn -0.9401 -0.3408 0.0000
vn -0.9405 -0.3398 0.0000
vn -0.7962 0.6050 0.0000
vn 0.6037 0.7972 0.0000
vn 0.6036 0.7973 0.0000
vn 0.7963 -0.6049 0.0000
vn 0.9102 0.4141 0.0000
vn 0.9101 0.4144 0.0000
vn 0.4129 -0.9108 0.0000
vn -0.7141 0.7000 0.0000
vn 0.6989 0.7153 0.0000
vn 0.7135 -0.7006 0.0000
vn -0.8037 0.5950 0.0000
vn 0.5943 0.8043 0.0000
vn 0.5933 0.8050 0.0000
vn 0.8040 -0.5946 0.0000
vn 0.9930 0.1180 0.0000
vn 0.9930 0.1183 0.0000
vn 0.1359 -0.9907 0.0000
vn -0.8185 0.5744 0.0000
vn 0.5726 0.8198 0.0000
vn 0.8185 -0.5745 0.0000
vn 0.5487 0.8360 0.0000
vn -0.8360 0.5487 0.0000
vn 0.5477 0.8367 0.0000
vn -0.8515 0.5243 0.0000
vn 0.5232 0.8522 0.0000
vn 0.8514 -0.5245 0.0000
vn -0.5238 -0.8518 0.0000
vn -0.5229 -0.8524 0.0000
vn -0.8221 0.5694 0.0000
vn 0.5697 0.8219 0.0000
vn 0.5664 0.8241 0.0000
vn 0.8223 -0.5691 0.0000
vn -0.7795 0.6264 0.0000
vn 0.6249 0.7807 0.0000
vn 0.7795 -0.6264 0.0000
vn 0.5360 0.8442 0.0000
vn 0.8431 -0.5377 0.0000
vn 0.5577 0.8301 0.0000
vn 0.8290 -0.5592 0.0000
vn -0.8694 0.4940 0.0000
vn 0.4927 0.8702 0.0000
vn 0.4938 0.8696 0.0000
vn 0.8694 -0.4941 0.0000
vn -0.5113 0.8594 0.0000
vn 0.8589 0.5121 0.0000
vn 0.5107 -0.8597 0.0000
vn 0.5111 -0.8595 0.0000
vn -0.1890 0.9820 0.0000
vn 0.9383 0.3459 0.0000
vn 0.9801 0.1987 0.0000
vn -0.8265 0.5629 0.0000
vn 0.5601 0.8284 0.0000
vn 0.5628 0.8266 0.0000
vn 0.8267 -0.5627 0.0000
vn -0.8093 0.5873 0.0000
vn 0.5870 0.8096 0.0000
vn 0.5368 0.8437 0.0000
vn 0.8426 -0.5385 0.0000
vn 0.9326 0.3610 0.0000
vn 0.3604 -0.9328 0.0000
vn -0.8078 0.5894 0.0000
vn 0.5877 0.8091 0.0000
vn 0.8078 -0.5895 0.0000
vn 0.5643 0.8256 0.0000
vn 0.5648 0.8253 0.0000
vn -0.8130 0.5822 0.0000
vn 0.5808 0.8140 0.0000
vn 0.8132 -0.5820 0.0000
vn -0.3199 0.9474 0.0000
vn 0.9471 0.3208 0.0000
vn 0.3196 -0.9476 0.0000
vn -0.8382 0.5453 0.0000
vn 0.5433 0.8395 0.0000
vn 0.8383 -0.5451 0.0000
vn -0.8098 0.5868 0.0000
vn 0.5856 0.8106 0.0000
vn 0.5857 0.8105 0.0000
vn -0.8208 0.5712 0.0000
vn 0.5696 0.8219 0.0000
vn 0.8212 -0.5706 0.0000
vn 0.5689 0.8224 0.0000
vn -0.8205 0.5716 0.0000
vn 0.5691 0.8222 0.0000
vn 0.8206 -0.5715 0.0000
vn -0.8135 0.5815 0.0000
vn 0.5804 0.8143 0.0000
vn 0.8134 -0.5817 0.0000
vn 0.5594 0.8289 0.0000
vn 0.8275 -0.5615 0.0000
vn -0.5604 -0.8282 0.0000
vn 0.5598 0.8287 0.0000
vn 0.8130 -0.5823 0.0000
vn -0.5794 -0.8151 0.0000
vn 0.8131 -0.5821 0.0000
vn -0.8570 0.5153 0.0000
vn 0.5140 0.8578 0.0000
vn 0.8571 -0.5151 0.0000
vn 0.5623 0.8269 0.0000
vn 0.8260 -0.5637 0.0000
vn -0.8133 0.5819 0.0000
vn 0.5812 0.8137 0.0000
vn 0.8129 -0.5823 0.0000
vn -0.8131 0.5821 0.0000
vn 0.5809 0.8140 0.0000
vn -0.8111 0.5849 0.0000
vn 0.5840 0.8117 0.0000
vn 0.5832 0.8123 0.0000
vn 0.8111 -0.5849 0.0000
vn -0.5836 -0.8120 0.0000
vn -0.3783 -0.9257 0.0000
vn 0.7472 0.6646 0.0000
vn 0.2216 0.9751 0.0000
vn -0.6024 -0.7982 0.0000
f 1/1/1 3/3/1 2/2/1
f 1/1/1 4/4/1 3/3/1
f 5/5/2 6/6/2 3/3/2
f 5/5/2 3/3/2 4/4/2
f 2/2/1 8/8/1 7/7/1
f 2/2/1 3/3/1 8/8/1
f 6/6/2 9/9/2 8/8/2
f 6/6/2 8/8/2 3/3/2
f 10/10/3 12/12/3 11/11/3
f 10/10/3 13/13/3 12/12/3
f 14/14/2 15/15/2 12/12/2
f 14/14/2 12/12/2 13/13/2
f 11/11/3 17/17/3 16/16/3
f 11/11/3 12/12/3 17/17/3
f 15/15/2 18/18/2 17/17/2
f 15/15/2 17/17/2 12/12/2
f 16/16/4 20/20/4 19/19/4
f 16/16/4 17/17/4 20/20/4
f 18/18/2 21/21/2 20/20/2
f 18/18/2 20/20/2 17/17/2
f 19/19/4 4/4/4 1/1/4
f 19/19/4 20/20/4 4/4/4
f 21/21/2 5/5/2 4/4/2
f 21/21/2 4/4/2 20/20/2
f 22/22/5 24/24/5 23/23/5
f 22/22/5 25/25/5 24/24/5
f 26/26/2 27/27/2 24/24/2
f 26/26/2 24/24/2 25/25/2
f 23/23/5 29/29/5 28/28/5
f 23/23/5 24/24/5 29/29/5
f 27/27/2 30/30/2 29/29/2
f 27/27/2 29/29/2 24/24/2
f 28/28/5 32/32/5 31/31/5
f 28/28/5 29/29/5 32/32/5
f 30/30/2 33/33/2 32/32/2
f 30/30/2 32/32/2 29/29/2
f 31/31/6 35/35/6 34/34/6
f 31/31/6 32/32/6 35/35/6
f 33/33/2 36/36/2 35/35/2
f 33/33/2 35/35/2 32/32/2
f 34/34/6 38/38/6 37/37/6
f 34/34/6 35/35/6 38/38/6
f 36/36/2 39/39/2 38/38/2
f 36/36/2 38/38/2 35/35/2
f 37/37/7 41/41/7 40/40/7
f 37/37/7 38/38/7 41/41/7
f 39/39/2 42/42/2 41/41/2
f 39/39/2 41/41/2 38/38/2
f 40/40/7 44/44/7 43/43/7
f 40/40/7 41/41/7 44/44/7
f 42/42/2 45/45/2 44/44/2
f 42/42/2 44/44/2 41/41/2
f 46/46/8 48/48/8 47/47/8
f 46/46/8 49/49/8 48/48/8
f 50/50/2 51/51/2 48/48/2
f 50/50/2 48/48/2 49/49/2
f 47/47/8 53/53/8 52/52/8
f 47/47/8 48/48/8 53/53/8
f 51/51/2 54/54/2 53/53/2
f 51/51/2 53/53/2 48/48/2
f 52/52/9 56/56/9 55/55/9
f 52/52/9 53/53/9 56/56/9
f 54/54/2 57/57/2 56/56/2
f 54/54/2 56/56/2 53/53/2
f 55/55/9 59/59/9 58/58/9
f 55/55/9 56/56/9 59/59/9
f 57/57/2 60/60/2 59/59/2
f 57/57/2 59/59/2 56/56/2
f 61/61/10 63/63/10 62/62/10
f 61/61/10 64/64/10 63/63/10
f 65/65/2 66/66/2 63/63/2
f 65/65/2 63/63/2 64/64/2
f 62/62/10 68/68/10 67/67/10
f 62/62/10 63/63/10 68/68/10
f 66/66/2 69/69/2 68/68/2
f 66/66/2 68/68/2 63/63/2
f 67/67/10 71/71/10 70/70/10
f 67/67/10 68/68/10 71/71/10
f 69/69/2 72/72/2 71/71/2
f 69/69/2 71/71/2 68/68/2
f 70/70/10 74/74/10 73/73/10
f 70/70/10 71/71/10 74/74/10
f 72/72/2 75/75/2 74/74/2
f 72/72/2 74/74/2 71/71/2
f 73/73/11 77/77/11 76/76/11
f 73/73/11 74/74/11 77/77/11
f 75/75/2 78/78/2 77/77/2
f 75/75/2 77/77/2 74/74/2
f 76/76/11 80/80/11 79/79/11
f 76/76/11 77/77/11 80/80/11
f 78/78/2 81/81/2 80/80/2
f 78/78/2 80/80/2 77/77/2
f 79/79/12 83/83/12 82/82/12
f 79/79/12 80/80/12 83/83/12
f 81/81/2 84/84/2 83/83/2
f 81/81/2 83/83/2 80/80/2
f 82/82/12 86/86/12 85/85/12
f 82/82/12 83/83/12 86/86/12
f 84/84/2 87/87/2 86/86/2
f 84/84/2 86/86/2 83/83/2
f 88/88/13 90/90/13 89/89/13
f 88/88/13 91/91/13 90/90/13
f 92/92/2 93/93/2 90/90/2
f 92/92/2 90/90/2 91/91/2
f 89/89/14 95/95/14 94/94/14
f 89/89/14 90/90/14 95/95/14
f 93/93/2 96/96/2 95/95/2
f 93/93/2 95/95/2 90/90/2
f 94/94/14 98/98/14 97/97/14
f 94/94/14 95/95/14 98/98/14
f 96/96/2 99/99/2 98/98/2
f 96/96/2 98/98/2 95/95/2
f 97/97/15 101/101/15 100/100/15
f 97/97/15 98/98/15 101/101/15
f 99/99/2 102/102/2 101/101/2
f 99/99/2 101/101/2 98/98/2
f 100/100/15 104/104/15 103/103/15
f 100/100/15 101/101/15 104/104/15
f 102/102/2 105/105/2 104/104/2
f 102/102/2 104/104/2 101/101/2
f 103/103/15 107/107/15 106/106/15
f 103/103/15 104/104/15 107/107/15
f 105/105/2 108/108/2 107/107/2
f 105/105/2 107/107/2 104/104/2
f 106/106/15 110/110/15 109/109/15
f 106/106/15 107/107/15 110/110/15
f 108/108/2 111/111/2 110/110/2
f 108/108/2 110/110/2 107/107/2
f 109/109/16 113/113/16 112/112/16
f 109/109/16 110/110/16 113/113/16
f 111/111/2 114/114/2 113/113/2
f 111/111/2 113/113/2 110/110/2
f 115/115/17 117/117/17 116/116/17
f 115/115/17 118/118/17 117/117/17
f 119/119/2 120/120/2 117/117/2
f 119/119/2 117/117/2 118/118/2
f 116/116/17 122/122/17 121/121/17
f 116/116/17 117/117/17 122/122/17
f 120/120/2 123/123/2 122/122/2
f 120/120/2 122/122/2 117/117/2
f 121/121/18 125/125/18 124/124/18
f 121/121/18 122/122/18 125/125/18
f 123/123/2 126/126/2 125/125/2
f 123/123/2 125/125/2 122/122/2
f 127/127/19 129/129/19 128/128/19
f 127/127/19 130/130/19 129/129/19
f 131/131/2 132/132/2 129/129/2
f 131/131/2 129/129/2 130/130/2
f 128/128/20 134/134/20 133/133/20
f 128/128/20 129/129/20 134/134/20
f 132/132/2 135/135/2 134/134/2
f 132/132/2 134/134/2 129/129/2
f 133/133/20 137/137/20 136/136/20
f 133/133/20 134/134/20 137/137/20
f 135/135/2 138/138/2 137/137/2
f 135/135/2 137/137/2 134/134/2
f 139/139/21 141/141/21 140/140/21
f 139/139/21 142/142/21 141/141/21
f 143/143/2 144/144/2 141/141/2
f 143/143/2 141/141/2 142/142/2
f 140/140/21 146/146/21 145/145/21
f 140/140/21 141/141/21 146/146/21
f 144/144/2 147/147/2 146/146/2
f 144/144/2 146/146/2 141/141/2
f 145/145/21 149/149/21 148/148/21
f 145/145/21 146/146/21 149/149/21
f 147/147/2 150/150/2 149/149/2
f 147/147/2 149/149/2 146/146/2
f 148/148/21 152/152/21 151/151/21
f 148/148/21 149/149/21 152/152/21
f 150/150/2 153/153/2 152/152/2
f 150/150/2 152/152/2 149/149/2
f 151/151/22 155/155/22 154/154/22
f 151/151/22 152/152/22 155/155/22
f 153/153/2 156/156/2 155/155/2
f 153/153/2 155/155/2 152/152/2
f 154/154/22 158/158/22 157/157/22
f 154/154/22 155/155/22 158/158/22
f 156/156/2 159/159/2 158/158/2
f 156/156/2 158/158/2 155/155/2
f 157/157/22 161/161/22 160/160/22
f 157/157/22 158/158/22 161/161/22
f 159/159/2 162/162/2 161/161/2
f 159/159/2 161/161/2 158/158/2
f 160/160/22 164/164/22 163/163/22
f 160/160/22 161/161/22 164/164/22
f 162/162/2 165/165/2 164/164/2
f 162/162/2 164/164/2 161/161/2
f 163/163/23 167/167/23 166/166/23
f 163/163/23 164/164/23 167/167/23
f 165/165/2 168/168/2 167/167/2
f 165/165/2 167/167/2 164/164/2
f 169/169/24 171/171/24 170/170/24
f 169/169/24 172/172/24 171/171/24
f 173/173/2 174/174/2 171/171/2
f 173/173/2 171/171/2 172/172/2
f 170/170/24 176/176/24 175/175/24
f 170/170/24 171/171/24 176/176/24
f 174/174/2 177/177/2 176/176/2
f 174/174/2 176/176/2 171/171/2
f 175/175/25 179/179/25 178/178/25
f 175/175/25 176/176/25 179/179/25
f 177/177/2 180/180/2 179/179/2
f 177/177/2 179/179/2 176/176/2
f 178/178/25 182/182/25 181/181/25
f 178/178/25 179/179/25 182/182/25
f 180/180/2 183/183/2 182/182/2
f 180/180/2 182/182/2 179/179/2
f 181/181/26 185/185/26 184/184/26
f 181/181/26 182/182/26 185/185/26
f 183/183/2 186/186/2 185/185/2
f 183/183/2 185/185/2 182/182/2
f 184/184/26 188/188/26 187/187/26
f 184/184/26 185/185/26 188/188/26
f 186/186/2 189/189/2 188/188/2
f 186/186/2 188/188/2 185/185/2
f 190/190/27 192/192/27 191/191/27
f 190/190/27 193/193/27 192/192/27
f 194/194/2 195/195/2 192/192/2
f 194/194/2 192/192/2 193/193/2
f 191/191/28 197/197/28 196/196/28
f 191/191/28 192/192/28 197/197/28
f 195/195/2 198/198/2 197/197/2
f 195/195/2 197/197/2 192/192/2
f 196/196/28 200/200/28 199/199/28
f 196/196/28 197/197/28 200/200/28
f 198/198/2 201/201/2 200/200/2
f 198/198/2 200/200/2 197/197/2
f 199/199/28 203/203/28 202/202/28
f 199/199/28 200/200/28 203/203/28
f 201/201/2 204/204/2 203/203/2
f 201/201/2 203/203/2 200/200/2
f 202/202/28 206/206/28 205/205/28
f 202/202/28 203/203/28 206/206/28
f 204/204/2 207/207/2 206/206/2
f 204/204/2 206/206/2 203/203/2
f 205/205/28 209/209/28 208/208/28
f 205/205/28 206/206/28 209/209/28
f 207/207/2 210/210/2 209/209/2
f 207/207/2 209/209/2 206/206/2
f 208/208/28 212/212/28 211/211/28
f 208/208/28 209/209/28 212/212/28
f 210/210/2 213/213/2 212/212/2
f 210/210/2 212/212/2 209/209/2
f 214/214/29 216/216/29 215/215/29
f 214/214/29 217/217/29 216/216/29
f 218/218/2 219/219/2 216/216/2
f 218/218/2 216/216/2 217/217/2
f 215/215/29 221/221/29 220/220/29
f 215/215/29 216/216/29 221/221/29
f 219/219/2 222/222/2 221/221/2
f 219/219/2 221/221/2 216/216/2
f 220/220/29 224/224/29 223/223/29
f 220/220/29 221/221/29 224/224/29
f 222/222/2 225/225/2 224/224/2
f 222/222/2 224/224/2 221/221/2
f 223/223/30 227/227/30 226/226/30
f 223/223/30 224/224/30 227/227/30
f 225/225/2 228/228/2 227/227/2
f 225/225/2 227/227/2 224/224/2
f 226/226/30 230/230/30 229/229/30
f 226/226/30 227/227/30 230/230/30
f 228/228/2 231/231/2 230/230/2
f 228/228/2 230/230/2 227/227/2
f 232/232/31 234/234/31 233/233/31
f 232/232/31 235/235/31 234/234/31
f 236/236/2 237/237/2 234/234/2
f 236/236/2 234/234/2 235/235/2
f 233/233/32 239/239/32 238/238/32
f 233/233/32 234/234/32 239/239/32
f 237/237/2 240/240/2 239/239/2
f 237/237/2 239/239/2 234/234/2
f 238/238/32 242/242/32 241/241/32
f 238/238/32 239/239/32 242/242/32
f 240/240/2 243/243/2 242/242/2
f 240/240/2 242/242/2 239/239/2
f 241/241/33 245/245/33 244/244/33
f 241/241/33 242/242/33 245/245/33
f 243/243/2 246/246/2 245/245/2
f 243/243/2 245/245/2 242/242/2
f 244/244/33 248/248/33 247/247/33
f 244/244/33 245/245/33 248/248/33
f 246/246/2 249/249/2 248/248/2
f 246/246/2 248/248/2 245/245/2
f 247/247/34 251/251/34 250/250/34
f 247/247/34 248/248/34 251/251/34
f 249/249/2 252/252/2 251/251/2
f 249/249/2 251/251/2 248/248/2
f 250/250/34 254/254/34 253/253/34
f 250/250/34 251/251/34 254/254/34
f 252/252/2 255/255/2 254/254/2
f 252/252/2 254/254/2 251/251/2
f 256/256/35 258/258/35 257/257/35
f 256/256/35 259/259/35 258/258/35
f 260/260/2 261/261/2 258/258/2
f 260/260/2 258/258/2 259/259/2
f 257/257/35 263/263/35 262/262/35
f 257/257/35 258/258/35 263/263/35
f 261/261/2 264/264/2 263/263/2
f 261/261/2 263/263/2 258/258/2
f 262/262/35 266/266/35 265/265/35
f 262/262/35 263/263/35 266/266/35
f 264/264/2 267/267/2 266/266/2
f 264/264/2 266/266/2 263/263/2
f 265/265/36 269/269/36 268/268/36
f 265/265/36 266/266/36 269/269/36
f 267/267/2 270/270/2 269/269/2
f 267/267/2 269/269/2 266/266/2
f 268/268/36 272/272/36 271/271/36
f 268/268/36 269/269/36 272/272/36
f 270/270/2 273/273/2 272/272/2
f 270/270/2 272/272/2 269/269/2
f 271/271/37 275/275/37 274/274/37
f 271/271/37 272/272/37 275/275/37
f 273/273/2 276/276/2 275/275/2
f 273/273/2 275/275/2 272/272/2
f 277/277/38 279/279/38 278/278/38
f 277/277/38 280/280/38 279/279/38
f 281/281/2 282/282/2 279/279/2
f 281/281/2 279/279/2 280/280/2
f 278/278/39 284/284/39 283/283/39
f 278/278/39 279/279/39 284/284/39
f 282/282/2 285/285/2 284/284/2
f 282/282/2 284/284/2 279/279/2
f 283/283/39 287/287/39 286/286/39
f 283/283/39 284/284/39 287/287/39
f 285/285/2 288/288/2 287/287/2
f 285/285/2 287/287/2 284/284/2
f 286/286/39 290/290/39 289/289/39
f 286/286/39 287/287/39 290/290/39
f 288/288/2 291/291/2 290/290/2
f 288/288/2 290/290/2 287/287/2
f 289/289/40 293/293/40 292/292/40
f 289/289/40 290/290/40 293/293/40
f 291/291/2 294/294/2 293/293/2
f 291/291/2 293/293/2 290/290/2
f 295/295/41 297/297/41 296/296/41
f 295/295/41 298/298/41 297/297/41
f 299/299/2 300/300/2 297/297/2
f 299/299/2 297/297/2 298/298/2
f 296/296/42 302/302/42 301/301/42
f 296/296/42 297/297/42 302/302/42
f 300/300/2 303/303/2 302/302/2
f 300/300/2 302/302/2 297/297/2
f 301/301/42 305/305/42 304/304/42
f 301/301/42 302/302/42 305/305/42
f 303/303/2 306/306/2 305/305/2
f 303/303/2 305/305/2 302/302/2
f 304/304/43 308/308/43 307/307/43
f 304/304/43 305/305/43 308/308/43
f 306/306/2 309/309/2 308/308/2
f 306/306/2 308/308/2 305/305/2
f 307/307/43 311/311/43 310/310/43
f 307/307/43 308/308/43 311/311/43
f 309/309/2 312/312/2 311/311/2
f 309/309/2 311/311/2 308/308/2
f 310/310/44 314/314/44 313/313/44
f 310/310/44 311/311/44 314/314/44
f 312/312/2 315/315/2 314/314/2
f 312/312/2 314/314/2 311/311/2
f 313/313/44 317/317/44 316/316/44
f 313/313/44 314/314/44 317/317/44
f 315/315/2 318/318/2 317/317/2
f 315/315/2 317/317/2 314/314/2
f 319/319/45 321/321/45 320/320/45
f 319/319/45 322/322/45 321/321/45
f 323/323/2 324/324/2 321/321/2
f 323/323/2 321/321/2 322/322/2
f 320/320/46 326/326/46 325/325/46
f 320/320/46 321/321/46 326/326/46
f 324/324/2 327/327/2 326/326/2
f 324/324/2 326/326/2 321/321/2
f 325/325/46 329/329/46 328/328/46
f 325/325/46 326/326/46 329/329/46
f 327/327/2 330/330/2 329/329/2
f 327/327/2 329/329/2 326/326/2
f 328/328/47 332/332/47 331/331/47
f 328/328/47 329/329/47 332/332/47
f 330/330/2 333/333/2 332/332/2
f 330/330/2 332/332/2 329/329/2
f 334/334/48 336/336/48 335/335/48
f 334/334/48 337/337/48 336/336/48
f 338/338/2 339/339/2 336/336/2
f 338/338/2 336/336/2 337/337/2
f 335/335/49 341/341/49 340/340/49
f 335/335/49 336/336/49 341/341/49
f 339/339/2 342/342/2 341/341/2
f 339/339/2 341/341/2 336/336/2
f 340/340/49 344/344/49 343/343/49
f 340/340/49 341/341/49 344/344/49
f 342/342/2 345/345/2 344/344/2
f 342/342/2 344/344/2 341/341/2
f 343/343/50 347/347/50 346/346/50
f 343/343/50 344/344/50 347/347/50
f 345/345/2 348/348/2 347/347/2
f 345/345/2 347/347/2 344/344/2
f 349/349/51 351/351/51 350/350/51
f 349/349/51 352/352/51 351/351/51
f 353/353/2 354/354/2 351/351/2
f 353/353/2 351/351/2 352/352/2
f 355/355/52 357/357/52 356/356/52
f 355/355/52 358/358/52 357/357/52
f 359/359/2 360/360/2 357/357/2
f 359/359/2 357/357/2 358/358/2
f 356/356/53 362/362/53 361/361/53
f 356/356/53 357/357/53 362/362/53
f 360/360/2 363/363/2 362/362/2
f 360/360/2 362/362/2 357/357/2
f 361/361/53 352/352/53 349/349/53
f 361/361/53 362/362/53 352/352/53
f 363/363/2 353/353/2 352/352/2
f 363/363/2 352/352/2 362/362/2
f 364/364/54 366/366/54 365/365/54
f 364/364/54 367/367/54 366/366/54
f 368/368/2 369/369/2 366/366/2
f 368/368/2 366/366/2 367/367/2
f 365/365/54 371/371/54 370/370/54
f 365/365/54 366/366/54 371/371/54
f 369/369/2 372/372/2 371/371/2
f 369/369/2 371/371/2 366/366/2
f 370/370/54 374/374/54 373/373/54
f 370/370/54 371/371/54 374/374/54
f 372/372/2 375/375/2 374/374/2
f 372/372/2 374/374/2 371/371/2
f 373/373/54 377/377/54 376/376/54
f 373/373/54 374/374/54 377/377/54
f 375/375/2 378/378/2 377/377/2
f 375/375/2 377/377/2 374/374/2
f 376/376/54 380/380/54 379/379/54
f 376/376/54 377/377/54 380/380/54
f 378/378/2 381/381/2 380/380/2
f 378/378/2 380/380/2 377/377/2
f 379/379/55 383/383/55 382/382/55
f 379/379/55 380/380/55 383/383/55
f 381/381/2 384/384/2 383/383/2
f 381/381/2 383/383/2 380/380/2
f 382/382/55 386/386/55 385/385/55
f 382/382/55 383/383/55 386/386/55
f 384/384/2 387/387/2 386/386/2
f 384/384/2 386/386/2 383/383/2
f 385/385/56 389/389/56 388/388/56
f 385/385/56 386/386/56 389/389/56
f 387/387/2 390/390/2 389/389/2
f 387/387/2 389/389/2 386/386/2
f 388/388/56 392/392/56 391/391/56
f 388/388/56 389/389/56 392/392/56
f 390/390/2 393/393/2 392/392/2
f 390/390/2 392/392/2 389/389/2
f 391/391/57 395/395/57 394/394/57
f 391/391/57 392/392/57 395/395/57
f 393/393/2 396/396/2 395/395/2
f 393/393/2 395/395/2 392/392/2
f 394/394/57 398/398/57 397/397/57
f 394/394/57 395/395/57 398/398/57
f 396/396/2 399/399/2 398/398/2
f 396/396/2 398/398/2 395/395/2
f 397/397/58 401/401/58 400/400/58
f 397/397/58 398/398/58 401/401/58
f 399/399/2 402/402/2 401/401/2
f 399/399/2 401/401/2 398/398/2
f 400/400/58 367/367/58 364/364/58
f 400/400/58 401/401/58 367/367/58
f 402/402/2 368/368/2 367/367/2
f 402/402/2 367/367/2 401/401/2
f 403/403/59 405/405/59 404/404/59
f 403/403/59 406/406/59 405/405/59
f 407/407/2 408/408/2 405/405/2
f 407/407/2 405/405/2 406/406/2
f 404/404/59 410/410/59 409/409/59
f 404/404/59 405/405/59 410/410/59
f 408/408/2 411/411/2 410/410/2
f 408/408/2 410/410/2 405/405/2
f 409/409/60 413/413/60 412/412/60
f 409/409/60 410/410/60 413/413/60
f 411/411/2 414/414/2 413/413/2
f 411/411/2 413/413/2 410/410/2
f 412/412/60 416/416/60 415/415/60
f 412/412/60 413/413/60 416/416/60
f 414/414/2 417/417/2 416/416/2
f 414/414/2 416/416/2 413/413/2
f 415/415/61 419/419/61 418/418/61
f 415/415/61 416/416/61 419/419/61
f 417/417/2 420/420/2 419/419/2
f 417/417/2 419/419/2 416/416/2
f 418/418/61 422/422/61 421/421/61
f 418/418/61 419/419/61 422/422/61
f 420/420/2 423/423/2 422/422/2
f 420/420/2 422/422/2 419/419/2
f 421/421/62 425/425/62 424/424/62
f 421/421/62 422/422/62 425/425/62
f 423/423/2 426/426/2 425/425/2
f 423/423/2 425/425/2 422/422/2
f 427/427/63 429/429/63 428/428/63
f 427/427/63 430/430/63 429/429/63
f 431/431/2 432/432/2 429/429/2
f 431/431/2 429/429/2 430/430/2
f 428/428/64 434/434/64 433/433/64
f 428/428/64 429/429/64 434/434/64
f 432/432/2 435/435/2 434/434/2
f 432/432/2 434/434/2 429/429/2
f 433/433/64 437/437/64 436/436/64
f 433/433/64 434/434/64 437/437/64
f 435/435/2 438/438/2 437/437/2
f 435/435/2 437/437/2 434/434/2
f 436/436/64 440/440/64 439/439/64
f 436/436/64 437/437/64 440/440/64
f 438/438/2 441/441/2 440/440/2
f 438/438/2 440/440/2 437/437/2
f 439/439/65 443/443/65 442/442/65
f 439/439/65 440/440/65 443/443/65
f 441/441/2 444/444/2 443/443/2
f 441/441/2 443/443/2 440/440/2
f 445/445/66 447/447/66 446/446/66
f 445/445/66 448/448/66 447/447/66
f 449/449/2 450/450/2 447/447/2
f 449/449/2 447/447/2 448/448/2
f 446/446/66 452/452/66 451/451/66
f 446/446/66 447/447/66 452/452/66
f 450/450/2 453/453/2 452/452/2
f 450/450/2 452/452/2 447/447/2
f 451/451/67 455/455/67 454/454/67
f 451/451/67 452/452/67 455/455/67
f 453/453/2 456/456/2 455/455/2
f 453/453/2 455/455/2 452/452/2
f 454/454/67 458/458/67 457/457/67
f 454/454/67 455/455/67 458/458/67
f 456/456/2 459/459/2 458/458/2
f 456/456/2 458/458/2 455/455/2
f 460/460/68 462/462/68 461/461/68
f 460/460/68 463/463/68 462/462/68
f 464/464/2 465/465/2 462/462/2
f 464/464/2 462/462/2 463/463/2
f 461/461/68 467/467/68 466/466/68
f 461/461/68 462/462/68 467/467/68
f 465/465/2 468/468/2 467/467/2
f 465/465/2 467/467/2 462/462/2
f 466/466/69 470/470/69 469/469/69
f 466/466/69 467/467/69 470/470/69
f 468/468/2 471/471/2 470/470/2
f 468/468/2 470/470/2 467/467/2
f 472/472/70 474/474/70 473/473/70
f 472/472/70 475/475/70 474/474/70
f 476/476/2 477/477/2 474/474/2
f 476/476/2 474/474/2 475/475/2
f 473/473/71 479/479/71 478/478/71
f 473/473/71 474/474/71 479/479/71
f 477/477/2 480/480/2 479/479/2
f 477/477/2 479/479/2 474/474/2
f 478/478/71 482/482/71 481/481/71
f 478/478/71 479/479/71 482/482/71
f 480/480/2 483/483/2 482/482/2
f 480/480/2 482/482/2 479/479/2
f 481/481/72 485/485/72 484/484/72
f 481/481/72 482/482/72 485/485/72
f 483/483/2 486/486/2 485/485/2
f 483/483/2 485/485/2 482/482/2
f 484/484/72 488/488/72 487/487/72
f 484/484/72 485/485/72 488/488/72
f 486/486/2 489/489/2 488/488/2
f 486/486/2 488/488/2 485/485/2
f 487/487/73 491/491/73 490/490/73
f 487/487/73 488/488/73 491/491/73
f 489/489/2 492/492/2 491/491/2
f 489/489/2 491/491/2 488/488/2
f 493/493/74 495/495/74 494/494/74
f 493/493/74 496/496/74 495/495/74
f 497/497/2 498/498/2 495/495/2
f 497/497/2 495/495/2 496/496/2
f 494/494/74 500/500/74 499/499/74
f 494/494/74 495/495/74 500/500/74
f 498/498/2 501/501/2 500/500/2
f 498/498/2 500/500/2 495/495/2
f 499/499/75 503/503/75 502/502/75
f 499/499/75 500/500/75 503/503/75
f 501/501/2 504/504/2 503/503/2
f 501/501/2 503/503/2 500/500/2
f 502/502/75 506/506/75 505/505/75
f 502/502/75 503/503/75 506/506/75
f 504/504/2 507/507/2 506/506/2
f 504/504/2 506/506/2 503/503/2
f 505/505/75 509/509/75 508/508/75
f 505/505/75 506/506/75 509/509/75
f 507/507/2 510/510/2 509/509/2
f 507/507/2 509/509/2 506/506/2
f 508/508/76 512/512/76 511/511/76
f 508/508/76 509/509/76 512/512/76
f 510/510/2 513/513/2 512/512/2
f 510/510/2 512/512/2 509/509/2
f 511/511/76 515/515/76 514/514/76
f 511/511/76 512/512/76 515/515/76
f 513/513/2 516/516/2 515/515/2
f 513/513/2 515/515/2 512/512/2
f 514/514/77 518/518/77 517/517/77
f 514/514/77 515/515/77 518/518/77
f 516/516/2 519/519/2 518/518/2
f 516/516/2 518/518/2 515/515/2
f 520/520/78 522/522/78 521/521/78
f 520/520/78 523/523/78 522/522/78
f 524/524/2 525/525/2 522/522/2
f 524/524/2 522/522/2 523/523/2
f 521/521/79 527/527/79 526/526/79
f 521/521/79 522/522/79 527/527/79
f 525/525/2 528/528/2 527/527/2
f 525/525/2 527/527/2 522/522/2
f 526/526/79 530/530/79 529/529/79
f 526/526/79 527/527/79 530/530/79
f 528/528/2 531/531/2 530/530/2
f 528/528/2 530/530/2 527/527/2
f 529/529/80 533/533/80 532/532/80
f 529/529/80 530/530/80 533/533/80
f 531/531/2 534/534/2 533/533/2
f 531/531/2 533/533/2 530/530/2
f 535/535/81 537/537/81 536/536/81
f 535/535/81 538/538/81 537/537/81
f 539/539/2 540/540/2 537/537/2
f 539/539/2 537/537/2 538/538/2
f 536/536/81 542/542/81 541/541/81
f 536/536/81 537/537/81 542/542/81
f 540/540/2 543/543/2 542/542/2
f 540/540/2 542/542/2 537/537/2
f 541/541/82 545/545/82 544/544/82
f 541/541/82 542/542/82 545/545/82
f 543/543/2 546/546/2 545/545/2
f 543/543/2 545/545/2 542/542/2
f 544/544/82 548/548/82 547/547/82
f 544/544/82 545/545/82 548/548/82
f 546/546/2 549/549/2 548/548/2
f 546/546/2 548/548/2 545/545/2
f 547/547/82 551/551/82 550/550/82
f 547/547/82 548/548/82 551/551/82
f 549/549/2 552/552/2 551/551/2
f 549/549/2 551/551/2 548/548/2
f 550/550/82 554/554/82 553/553/82
f 550/550/82 551/551/82 554/554/82
f 552/552/2 555/555/2 554/554/2
f 552/552/2 554/554/2 551/551/2
f 553/553/82 557/557/82 556/556/82
f 553/553/82 554/554/82 557/557/82
f 555/555/2 558/558/2 557/557/2
f 555/555/2 557/557/2 554/554/2
f 556/556/83 560/560/83 559/559/83
f 556/556/83 557/557/83 560/560/83
f 558/558/2 561/561/2 560/560/2
f 558/558/2 560/560/2 557/557/2
f 559/559/84 563/563/84 562/562/84
f 559/559/84 560/560/84 563/563/84
f 561/561/2 564/564/2 563/563/2
f 561/561/2 563/563/2 560/560/2
f 562/562/84 566/566/84 565/565/84
f 562/562/84 563/563/84 566/566/84
f 564/564/2 567/567/2 566/566/2
f 564/564/2 566/566/2 563/563/2
f 568/568/85 570/570/85 569/569/85
f 568/568/85 571/571/85 570/570/85
f 572/572/2 573/573/2 570/570/2
f 572/572/2 570/570/2 571/571/2
f 569/569/86 575/575/86 574/574/86
f 569/569/86 570/570/86 575/575/86
f 573/573/2 576/576/2 575/575/2
f 573/573/2 575/575/2 570/570/2
f 574/574/86 578/578/86 577/577/86
f 574/574/86 575/575/86 578/578/86
f 576/576/2 579/579/2 578/578/2
f 576/576/2 578/578/2 575/575/2
f 580/580/87 582/582/87 581/581/87
f 580/580/87 583/583/87 582/582/87
f 584/584/2 585/585/2 582/582/2
f 584/584/2 582/582/2 583/583/2
f 581/581/87 587/587/87 586/586/87
f 581/581/87 582/582/87 587/587/87
f 585/585/2 588/588/2 587/587/2
f 585/585/2 587/587/2 582/582/2
f 586/586/87 590/590/87 589/589/87
f 586/586/87 587/587/87 590/590/87
f 588/588/2 591/591/2 590/590/2
f 588/588/2 590/590/2 587/587/2
f 589/589/88 593/593/88 592/592/88
f 589/589/88 590/590/88 593/593/88
f 591/591/2 594/594/2 593/593/2
f 591/591/2 593/593/2 590/590/2
f 595/595/89 597/597/89 596/596/89
f 595/595/89 598/598/89 597/597/89
f 599/599/2 600/600/2 597/597/2
f 599/599/2 597/597/2 598/598/2
f 596/596/89 602/602/89 601/601/89
f 596/596/89 597/597/89 602/602/89
f 600/600/2 603/603/2 602/602/2
f 600/600/2 602/602/2 597/597/2
f 601/601/90 605/605/90 604/604/90
f 601/601/90 602/602/90 605/605/90
f 603/603/2 606/606/2 605/605/2
f 603/603/2 605/605/2 602/602/2
f 607/607/91 609/609/91 608/608/91
f 607/607/91 610/610/91 609/609/91
f 611/611/2 612/612/2 609/609/2
f 611/611/2 609/609/2 610/610/2
f 608/608/91 614/614/91 613/613/91
f 608/608/91 609/609/91 614/614/91
f 612/612/2 615/615/2 614/614/2
f 612/612/2 614/614/2 609/609/2
f 613/613/92 617/617/92 616/616/92
f 613/613/92 614/614/92 617/617/92
f 615/615/2 618/618/2 617/617/2
f 615/615/2 617/617/2 614/614/2
f 616/616/92 620/620/92 619/619/92
f 616/616/92 617/617/92 620/620/92
f 618/618/2 621/621/2 620/620/2
f 618/618/2 620/620/2 617/617/2
f 619/619/92 623/623/92 622/622/92
f 619/619/92 620/620/92 623/623/92
f 621/621/2 624/624/2 623/623/2
f 621/621/2 623/623/2 620/620/2
f 622/622/92 626/626/92 625/625/92
f 622/622/92 623/623/92 626/626/92
f 624/624/2 627/627/2 626/626/2
f 624/624/2 626/626/2 623/623/2
f 625/625/93 629/629/93 628/628/93
f 625/625/93 626/626/93 629/629/93
f 627/627/2 630/630/2 629/629/2
f 627/627/2 629/629/2 626/626/2
f 628/628/93 632/632/93 631/631/93
f 628/628/93 629/629/93 632/632/93
f 630/630/2 633/633/2 632/632/2
f 630/630/2 632/632/2 629/629/2
f 634/634/94 636/636/94 635/635/94
f 634/634/94 637/637/94 636/636/94
f 638/638/2 639/639/2 636/636/2
f 638/638/2 636/636/2 637/637/2
f 635/635/95 641/641/95 640/640/95
f 635/635/95 636/636/95 641/641/95
f 639/639/2 642/642/2 641/641/2
f 639/639/2 641/641/2 636/636/2
f 640/640/95 644/644/95 643/643/95
f 640/640/95 641/641/95 644/644/95
f 642/642/2 645/645/2 644/644/2
f 642/642/2 644/644/2 641/641/2
f 643/643/95 647/647/95 646/646/95
f 643/643/95 644/644/95 647/647/95
f 645/645/2 648/648/2 647/647/2
f 645/645/2 647/647/2 644/644/2
f 646/646/95 650/650/95 649/649/95
f 646/646/95 647/647/95 650/650/95
f 648/648/2 651/651/2 650/650/2
f 648/648/2 650/650/2 647/647/2
f 652/652/96 654/654/96 653/653/96
f 652/652/96 655/655/96 654/654/96
f 656/656/2 657/657/2 654/654/2
f 656/656/2 654/654/2 655/655/2
f 653/653/97 659/659/97 658/658/97
f 653/653/97 654/654/97 659/659/97
f 657/657/2 660/660/2 659/659/2
f 657/657/2 659/659/2 654/654/2
f 658/658/97 662/662/97 661/661/97
f 658/658/97 659/659/97 662/662/97
f 660/660/2 663/663/2 662/662/2
f 660/660/2 662/662/2 659/659/2
f 661/661/98 665/665/98 664/664/98
f 661/661/98 662/662/98 665/665/98
f 663/663/2 666/666/2 665/665/2
f 663/663/2 665/665/2 662/662/2
f 667/667/99 669/669/99 668/668/99
f 667/667/99 670/670/99 669/669/99
f 671/671/2 672/672/2 669/669/2
f 671/671/2 669/669/2 670/670/2
f 668/668/100 674/674/100 673/673/100
f 668/668/100 669/669/100 674/674/100
f 672/672/2 675/675/2 674/674/2
f 672/672/2 674/674/2 669/669/2
f 673/673/100 677/677/100 676/676/100
f 673/673/100 674/674/100 677/677/100
f 675/675/2 678/678/2 677/677/2
f 675/675/2 677/677/2 674/674/2
f 676/676/100 680/680/100 679/679/100
f 676/676/100 677/677/100 680/680/100
f 678/678/2 681/681/2 680/680/2
f 678/678/2 680/680/2 677/677/2
f 679/679/101 683/683/101 682/682/101
f 679/679/101 680/680/101 683/683/101
f 681/681/2 684/684/2 683/683/2
f 681/681/2 683/683/2 680/680/2
f 685/685/102 687/687/102 686/686/102
f 685/685/102 688/688/102 687/687/102
f 689/689/2 690/690/2 687/687/2
f 689/689/2 687/687/2 688/688/2
f 686/686/103 692/692/103 691/691/103
f 686/686/103 687/687/103 692/692/103
f 690/690/2 693/693/2 692/692/2
f 690/690/2 692/692/2 687/687/2
f 691/691/103 695/695/103 694/694/103
f 691/691/103 692/692/103 695/695/103
f 693/693/2 696/696/2 695/695/2
f 693/693/2 695/695/2 692/692/2
f 694/694/103 698/698/103 697/697/103
f 694/694/103 695/695/103 698/698/103
f 696/696/2 699/699/2 698/698/2
f 696/696/2 698/698/2 695/695/2
f 697/697/103 701/701/103 700/700/103
f 697/697/103 698/698/103 701/701/103
f 699/699/2 702/702/2 701/701/2
f 699/699/2 701/701/2 698/698/2
f 700/700/103 704/704/103 703/703/103
f 700/700/103 701/701/103 704/704/103
f 702/702/2 705/705/2 704/704/2
f 702/702/2 704/704/2 701/701/2
f 703/703/103 707/707/103 706/706/103
f 703/703/103 704/704/103 707/707/103
f 705/705/2 708/708/2 707/707/2
f 705/705/2 707/707/2 704/704/2
f 706/706/103 710/710/103 709/709/103
f 706/706/103 707/707/103 710/710/103
f 708/708/2 711/711/2 710/710/2
f 708/708/2 710/710/2 707/707/2
f 709/709/103 713/713/103 712/712/103
f 709/709/103 710/710/103 713/713/103
f 711/711/2 714/714/2 713/713/2
f 711/711/2 713/713/2 710/710/2
f 712/712/104 716/716/104 715/715/104
f 712/712/104 713/713/104 716/716/104
f 714/714/2 717/717/2 716/716/2
f 714/714/2 716/716/2 713/713/2
f 718/718/105 720/720/105 719/719/105
f 718/718/105 721/721/105 720/720/105
f 722/722/2 723/723/2 720/720/2
f 722/722/2 720/720/2 721/721/2
f 719/719/106 725/725/106 724/724/106
f 719/719/106 720/720/106 725/725/106
f 723/723/2 726/726/2 725/725/2
f 723/723/2 725/725/2 720/720/2
f 724/724/106 728/728/106 727/727/106
f 724/724/106 725/725/106 728/728/106
f 726/726/2 729/729/2 728/728/2
f 726/726/2 728/728/2 725/725/2
f 727/727/107 731/731/107 730/730/107
f 727/727/107 728/728/107 731/731/107
f 729/729/2 732/732/2 731/731/2
f 729/729/2 731/731/2 728/728/2
f 730/730/107 734/734/107 733/733/107
f 730/730/107 731/731/107 734/734/107
f 732/732/2 735/735/2 734/734/2
f 732/732/2 734/734/2 731/731/2
f 736/736/108 738/738/108 737/737/108
f 736/736/108 739/739/108 738/738/108
f 740/740/2 741/741/2 738/738/2
f 740/740/2 738/738/2 739/739/2
f 737/737/108 743/743/108 742/742/108
f 737/737/108 738/738/108 743/743/108
f 741/741/2 744/744/2 743/743/2
f 741/741/2 743/743/2 738/738/2
f 742/742/109 746/746/109 745/745/109
f 742/742/109 743/743/109 746/746/109
f 744/744/2 747/747/2 746/746/2
f 744/744/2 746/746/2 743/743/2
f 745/745/109 749/749/109 748/748/109
f 745/745/109 746/746/109 749/749/109
f 747/747/2 750/750/2 749/749/2
f 747/747/2 749/749/2 746/746/2
f 748/748/110 752/752/110 751/751/110
f 748/748/110 749/749/110 752/752/110
f 750/750/2 753/753/2 752/752/2
f 750/750/2 752/752/2 749/749/2
f 751/751/110 755/755/110 754/754/110
f 751/751/110 752/752/110 755/755/110
f 753/753/2 756/756/2 755/755/2
f 753/753/2 755/755/2 752/752/2
f 754/754/111 758/758/111 757/757/111
f 754/754/111 755/755/111 758/758/111
f 756/756/2 759/759/2 758/758/2
f 756/756/2 758/758/2 755/755/2
f 757/757/112 761/761/112 760/760/112
f 757/757/112 758/758/112 761/761/112
f 759/759/2 762/762/2 761/761/2
f 759/759/2 761/761/2 758/758/2
f 760/760/112 764/764/112 763/763/112
f 760/760/112 761/761/112 764/764/112
f 762/762/2 765/765/2 764/764/2
f 762/762/2 764/764/2 761/761/2
f 763/763/113 767/767/113 766/766/113
f 763/763/113 764/764/113 767/767/113
f 765/765/2 768/768/2 767/767/2
f 765/765/2 767/767/2 764/764/2
f 766/766/113 770/770/113 769/769/113
f 766/766/113 767/767/113 770/770/113
f 768/768/2 771/771/2 770/770/2
f 768/768/2 770/770/2 767/767/2
f 769/769/113 773/773/113 772/772/113
f 769/769/113 770/770/113 773/773/113
f 771/771/2 774/774/2 773/773/2
f 771/771/2 773/773/2 770/770/2
f 772/772/113 776/776/113 775/775/113
f 772/772/113 773/773/113 776/776/113
f 774/774/2 777/777/2 776/776/2
f 774/774/2 776/776/2 773/773/2
f 775/775/114 779/779/114 778/778/114
f 775/775/114 776/776/114 779/779/114
f 777/777/2 780/780/2 779/779/2
f 777/777/2 779/779/2 776/776/2
f 781/781/115 783/783/115 782/782/115
f 781/781/115 784/784/115 783/783/115
f 785/785/2 786/786/2 783/783/2
f 785/785/2 783/783/2 784/784/2
f 782/782/115 788/788/115 787/787/115
f 782/782/115 783/783/115 788/788/115
f 786/786/2 789/789/2 788/788/2
f 786/786/2 788/788/2 783/783/2
f 787/787/116 791/791/116 790/790/116
f 787/787/116 788/788/116 791/791/116
f 789/789/2 792/792/2 791/791/2
f 789/789/2 791/791/2 788/788/2
f 790/790/116 794/794/116 793/793/116
f 790/790/116 791/791/116 794/794/116
f 792/792/2 795/795/2 794/794/2
f 792/792/2 794/794/2 791/791/2
f 793/793/117 797/797/117 796/796/117
f 793/793/117 794/794/117 797/797/117
f 795/795/2 798/798/2 797/797/2
f 795/795/2 797/797/2 794/794/2
f 799/799/118 801/801/118 800/800/118
f 799/799/118 802/802/118 801/801/118
f 803/803/2 804/804/2 801/801/2
f 803/803/2 801/801/2 802/802/2
f 800/800/119 806/806/119 805/805/119
f 800/800/119 801/801/119 806/806/119
f 804/804/2 807/807/2 806/806/2
f 804/804/2 806/806/2 801/801/2
f 808/808/120 810/810/120 809/809/120
f 808/808/120 811/811/120 810/810/120
f 812/812/2 813/813/2 810/810/2
f 812/812/2 810/810/2 811/811/2
f 809/809/120 815/815/120 814/814/120
f 809/809/120 810/810/120 815/815/120
f 813/813/2 816/816/2 815/815/2
f 813/813/2 815/815/2 810/810/2
f 817/817/121 819/819/121 818/818/121
f 817/817/121 820/820/121 819/819/121
f 821/821/2 822/822/2 819/819/2
f 821/821/2 819/819/2 820/820/2
f 818/818/121 802/802/121 799/799/121
f 818/818/121 819/819/121 802/802/121
f 822/822/2 803/803/2 802/802/2
f 822/822/2 802/802/2 819/819/2
f 823/823/97 825/825/97 824/824/97
f 823/823/97 826/826/97 825/825/97
f 827/827/2 828/828/2 825/825/2
f 827/827/2 825/825/2 826/826/2
f 824/824/122 830/830/122 829/829/122
f 824/824/122 825/825/122 830/830/122
f 828/828/2 831/831/2 830/830/2
f 828/828/2 830/830/2 825/825/2
f 829/829/122 833/833/122 832/832/122
f 829/829/122 830/830/122 833/833/122
f 831/831/2 834/834/2 833/833/2
f 831/831/2 833/833/2 830/830/2
f 832/832/123 836/836/123 835/835/123
f 832/832/123 833/833/123 836/836/123
f 834/834/2 837/837/2 836/836/2
f 834/834/2 836/836/2 833/833/2
f 835/835/124 839/839/124 838/838/124
f 835/835/124 836/836/124 839/839/124
f 837/837/2 840/840/2 839/839/2
f 837/837/2 839/839/2 836/836/2
f 841/841/125 843/843/125 842/842/125
f 841/841/125 844/844/125 843/843/125
f 845/845/2 846/846/2 843/843/2
f 845/845/2 843/843/2 844/844/2
f 842/842/125 848/848/125 847/847/125
f 842/842/125 843/843/125 848/848/125
f 846/846/2 849/849/2 848/848/2
f 846/846/2 848/848/2 843/843/2
f 847/847/126 851/851/126 850/850/126
f 847/847/126 848/848/126 851/851/126
f 849/849/2 852/852/2 851/851/2
f 849/849/2 851/851/2 848/848/2
f 850/850/126 854/854/126 853/853/126
f 850/850/126 851/851/126 854/854/126
f 852/852/2 855/855/2 854/854/2
f 852/852/2 854/854/2 851/851/2
f 853/853/126 857/857/126 856/856/126
f 853/853/126 854/854/126 857/857/126
f 855/855/2 858/858/2 857/857/2
f 855/855/2 857/857/2 854/854/2
f 856/856/127 860/860/127 859/859/127
f 856/856/127 857/857/127 860/860/127
f 858/858/2 861/861/2 860/860/2
f 858/858/2 860/860/2 857/857/2
f 862/862/128 864/864/128 863/863/128
f 862/862/128 865/865/128 864/864/128
f 866/866/2 867/867/2 864/864/2
f 866/866/2 864/864/2 865/865/2
f 863/863/128 869/869/128 868/868/128
f 863/863/128 864/864/128 869/869/128
f 867/867/2 870/870/2 869/869/2
f 867/867/2 869/869/2 864/864/2
f 868/868/129 872/872/129 871/871/129
f 868/868/129 869/869/129 872/872/129
f 870/870/2 873/873/2 872/872/2
f 870/870/2 872/872/2 869/869/2
f 874/874/130 876/876/130 875/875/130
f 874/874/130 877/877/130 876/876/130
f 878/878/2 879/879/2 876/876/2
f 878/878/2 876/876/2 877/877/2
f 875/875/131 881/881/131 880/880/131
f 875/875/131 876/876/131 881/881/131
f 879/879/2 882/882/2 881/881/2
f 879/879/2 881/881/2 876/876/2
f 880/880/131 884/884/131 883/883/131
f 880/880/131 881/881/131 884/884/131
f 882/882/2 885/885/2 884/884/2
f 882/882/2 884/884/2 881/881/2
f 883/883/132 887/887/132 886/886/132
f 883/883/132 884/884/132 887/887/132
f 885/885/2 888/888/2 887/887/2
f 885/885/2 887/887/2 884/884/2
f 886/886/132 890/890/132 889/889/132
f 886/886/132 887/887/132 890/890/132
f 888/888/2 891/891/2 890/890/2
f 888/888/2 890/890/2 887/887/2
f 892/892/133 894/894/133 893/893/133
f 892/892/133 895/895/133 894/894/133
f 896/896/2 897/897/2 894/894/2
f 896/896/2 894/894/2 895/895/2
f 893/893/134 877/877/134 874/874/134
f 893/893/134 894/894/134 877/877/134
f 897/897/2 878/878/2 877/877/2
f 897/897/2 877/877/2 894/894/2
f 898/898/135 900/900/135 899/899/135
f 898/898/135 901/901/135 900/900/135
f 902/902/2 903/903/2 900/900/2
f 902/902/2 900/900/2 901/901/2
f 899/899/135 905/905/135 904/904/135
f 899/899/135 900/900/135 905/905/135
f 903/903/2 906/906/2 905/905/2
f 903/903/2 905/905/2 900/900/2
f 904/904/135 908/908/135 907/907/135
f 904/904/135 905/905/135 908/908/135
f 906/906/2 909/909/2 908/908/2
f 906/906/2 908/908/2 905/905/2
f 907/907/135 911/911/135 910/910/135
f 907/907/135 908/908/135 911/911/135
f 909/909/2 912/912/2 911/911/2
f 909/909/2 911/911/2 908/908/2
f 910/910/135 914/914/135 913/913/135
f 910/910/135 911/911/135 914/914/135
f 912/912/2 915/915/2 914/914/2
f 912/912/2 914/914/2 911/911/2
f 913/913/135 917/917/135 916/916/135
f 913/913/135 914/914/135 917/917/135
f 915/915/2 918/918/2 917/917/2
f 915/915/2 917/917/2 914/914/2
f 916/916/135 920/920/135 919/919/135
f 916/916/135 917/917/135 920/920/135
f 918/918/2 921/921/2 920/920/2
f 918/918/2 920/920/2 917/917/2
f 919/919/135 923/923/135 922/922/135
f 919/919/135 920/920/135 923/923/135
f 921/921/2 924/924/2 923/923/2
f 921/921/2 923/923/2 920/920/2
f 922/922/136 926/926/136 925/925/136
f 922/922/136 923/923/136 926/926/136
f 924/924/2 927/927/2 926/926/2
f 924/924/2 926/926/2 923/923/2
f 925/925/136 929/929/136 928/928/136
f 925/925/136 926/926/136 929/929/136
f 927/927/2 930/930/2 929/929/2
f 927/927/2 929/929/2 926/926/2
f 928/928/136 932/932/136 931/931/136
f 928/928/136 929/929/136 932/932/136
f 930/930/2 933/933/2 932/932/2
f 930/930/2 932/932/2 929/929/2
f 931/931/137 935/935/137 934/934/137
f 931/931/137 932/932/137 935/935/137
f 933/933/2 936/936/2 935/935/2
f 933/933/2 935/935/2 932/932/2
f 934/934/137 938/938/137 937/937/137
f 934/934/137 935/935/137 938/938/137
f 936/936/2 939/939/2 938/938/2
f 936/936/2 938/938/2 935/935/2
f 940/940/138 942/942/138 941/941/138
f 940/940/138 943/943/138 942/942/138
f 944/944/2 945/945/2 942/942/2
f 944/944/2 942/942/2 943/943/2
f 941/941/138 947/947/138 946/946/138
f 941/941/138 942/942/138 947/947/138
f 945/945/2 948/948/2 947/947/2
f 945/945/2 947/947/2 942/942/2
f 946/946/138 950/950/138 949/949/138
f 946/946/138 947/947/138 950/950/138
f 948/948/2 951/951/2 950/950/2
f 948/948/2 950/950/2 947/947/2
f 949/949/138 953/953/138 952/952/138
f 949/949/138 950/950/138 953/953/138
f 951/951/2 954/954/2 953/953/2
f 951/951/2 953/953/2 950/950/2
f 952/952/138 956/956/138 955/955/138
f 952/952/138 953/953/138 956/956/138
f 954/954/2 957/957/2 956/956/2
f 954/954/2 956/956/2 953/953/2
f 955/955/138 959/959/138 958/958/138
f 955/955/138 956/956/138 959/959/138
f 957/957/2 960/960/2 959/959/2
f 957/957/2 959/959/2 956/956/2
f 958/958/138 962/962/138 961/961/138
f 958/958/138 959/959/138 962/962/138
f 960/960/2 963/963/2 962/962/2
f 960/960/2 962/962/2 959/959/2
f 961/961/138 965/965/138 964/964/138
f 961/961/138 962/962/138 965/965/138
f 963/963/2 966/966/2 965/965/2
f 963/963/2 965/965/2 962/962/2
f 964/964/139 968/968/139 967/967/139
f 964/964/139 965/965/139 968/968/139
f 966/966/2 969/969/2 968/968/2
f 966/966/2 968/968/2 965/965/2
f 967/967/139 971/971/139 970/970/139
f 967/967/139 968/968/139 971/971/139
f 969/969/2 972/972/2 971/971/2
f 969/969/2 971/971/2 968/968/2
f 970/970/139 974/974/139 973/973/139
f 970/970/139 971/971/139 974/974/139
f 972/972/2 975/975/2 974/974/2
f 972/972/2 974/974/2 971/971/2
f 973/973/139 977/977/139 976/976/139
f 973/973/139 974/974/139 977/977/139
f 975/975/2 978/978/2 977/977/2
f 975/975/2 977/977/2 974/974/2
f 979/979/135 981/981/135 980/980/135
f 979/979/135 982/982/135 981/981/135
f 983/983/2 984/984/2 981/981/2
f 983/983/2 981/981/2 982/982/2
f 980/980/135 986/986/135 985/985/135
f 980/980/135 981/981/135 986/986/135
f 984/984/2 987/987/2 986/986/2
f 984/984/2 986/986/2 981/981/2
f 985/985/135 989/989/135 988/988/135
f 985/985/135 986/986/135 989/989/135
f 987/987/2 990/990/2 989/989/2
f 987/987/2 989/989/2 986/986/2
f 991/991/138 993/993/138 992/992/138
f 991/991/138 994/994/138 993/993/138
f 995/995/2 996/996/2 993/993/2
f 995/995/2 993/993/2 994/994/2
f 992/992/138 998/998/138 997/997/138
f 992/992/138 993/993/138 998/998/138
f 996/996/2 999/999/2 998/998/2
f 996/996/2 998/998/2 993/993/2
f 997/997/138 1001/1001/138 1000/1000/138
f 997/997/138 998/998/138 1001/1001/138
f 999/999/2 1002/1002/2 1001/1001/2
f 999/999/2 1001/1001/2 998/998/2
f 979/979/140 1003/1003/140 983/983/140
f 979/979/140 983/983/140 982/982/140
f 988/988/141 990/990/141 1004/1004/141
f 988/988/141 989/989/141 990/990/141
f 991/991/142 1005/1005/142 995/995/142
f 991/991/142 995/995/142 994/994/142
f 1000/1000/143 1002/1002/143 1006/1006/143
f 1000/1000/143 1001/1001/143 1002/1002/143
