# Unreal legacy OBJ adapter: canonical vertices are UE cm; this file is written with Y reflected and triangle winding reversed. One object, no g groups, so the importer creates exactly one material slot.
# OldCityFoundationV2 foundations (plinth + stepped footing); generator 463404ba754c804f514fe655944ece4eb51a92e1273fec326ad5c2ebfbb18f24
# AUTHORED detail in the style of Old City stone foundations, not survey
o SM_OldCityFoundationV2_Kept_N001_N003
s off
v -46514.49 120250.07 1490.30
v -46478.85 120173.23 1484.15
v -46478.85 120173.23 1515.30
v -46514.49 120250.07 1515.30
v -46518.39 120239.45 1515.30
v -46482.75 120162.62 1515.30
v -46427.12 120061.68 1468.70
v -46427.12 120061.68 1515.30
v -46431.01 120051.07 1515.30
v -46008.13 120255.18 1475.16
v -46008.13 120255.18 1515.30
v -46012.01 120244.57 1515.30
v -45902.04 120027.57 1443.60
v -45902.04 120027.57 1515.30
v -45907.47 120020.28 1515.30
v -45543.87 119259.17 1460.01
v -45543.87 119259.17 1515.30
v -45554.51 119263.07 1515.30
v -45757.60 119160.65 1472.50
v -45757.60 119160.65 1515.30
v -45768.24 119164.55 1515.30
v -45863.88 119111.66 1478.71
v -45863.88 119111.66 1515.30
v -45874.51 119115.57 1515.30
v -45711.38 118783.68 1485.73
v -45711.38 118783.68 1515.30
v -45722.01 118787.57 1515.30
v -45789.45 118747.51 1490.30
v -45789.45 118747.51 1515.30
v -45798.63 118752.07 1515.30
v -46008.68 116598.76 1498.60
v -45778.85 116681.90 1471.02
v -45778.85 116681.90 1523.60
v -46008.68 116598.76 1523.60
v -46013.47 116588.52 1523.60
v -45783.64 116671.67 1523.60
v -45754.23 116690.81 1468.07
v -45754.23 116690.81 1523.60
v -45759.01 116680.57 1523.60
v -45735.01 116638.06 1465.76
v -45735.01 116638.06 1523.60
v -45740.07 116628.58 1523.60
v -45542.43 116109.65 1442.65
v -45542.43 116109.65 1523.60
v -45550.28 116107.82 1523.60
v -45375.76 115652.29 1472.57
v -45375.76 115652.29 1523.60
v -45386.01 115657.07 1523.60
v -45752.75 115515.44 1498.60
v -45752.75 115515.44 1523.60
v -45760.27 115521.22 1523.60
v -46704.51 110535.94 1775.70
v -46624.51 110578.76 1772.50
v -46624.51 110578.76 1800.70
v -46704.51 110535.94 1800.70
v -46699.31 110529.66 1800.70
v -46620.21 110571.99 1800.70
v -45950.75 110939.39 1745.55
v -45950.75 110939.39 1800.70
v -45954.01 110928.57 1800.70
v -45867.53 110784.55 1742.22
v -45867.53 110784.55 1800.70
v -45871.23 110774.54 1800.70
v -45460.68 110027.57 1725.95
v -45460.68 110027.57 1800.70
v -45466.51 110021.51 1800.70
v -44993.59 109158.49 1742.03
v -44993.59 109158.49 1800.70
v -45001.86 109156.98 1800.70
v -44501.18 108242.30 1758.98
v -44501.18 108242.30 1800.70
v -44512.01 108245.57 1800.70
v -44721.35 108124.41 1772.50
v -44721.35 108124.41 1800.70
v -44731.20 108128.21 1800.70
v -44773.46 108096.51 1775.70
v -44773.46 108096.51 1800.70
v -44783.07 108100.44 1800.70
v -47235.93 148103.65 -580.00
v -47193.54 148096.59 -581.98
v -47193.54 148096.59 -555.00
v -47235.93 148103.65 -555.00
v -47239.02 148096.05 -555.00
v -47196.95 148089.05 -555.00
v -46624.51 148001.82 -608.53
v -46624.51 148001.82 -555.00
v -46632.34 147995.02 -555.00
v -46446.31 147972.14 -609.72
v -46446.31 147972.14 -555.00
v -46455.51 147965.57 -555.00
v -46499.66 147652.42 -622.51
v -46499.66 147652.42 -555.00
v -46508.35 147648.98 -555.00
v -46520.50 147527.57 -631.66
v -46520.50 147527.57 -555.00
v -46528.98 147525.35 -555.00
v -46535.37 147438.42 -623.93
v -46535.37 147438.42 -555.00
v -46543.71 147437.08 -555.00
v -46619.96 146931.54 -580.00
v -46619.96 146931.54 -555.00
v -46627.46 146935.16 -555.00
v -41307.01 108010.22 1659.80
v -41066.44 108085.64 1650.18
v -41066.44 108085.64 1684.80
v -41307.01 108010.22 1684.80
v -41312.25 108000.20 1684.80
v -41071.67 108075.62 1684.80
v -40725.28 108192.60 1636.53
v -40725.28 108192.60 1684.80
v -40730.51 108182.57 1684.80
v -40515.90 107527.57 1628.16
v -40515.90 107527.57 1684.80
v -40525.57 107531.66 1684.80
v -40498.98 107473.84 1629.63
v -40498.98 107473.84 1684.80
v -40509.01 107479.07 1684.80
v -40711.97 107406.83 1640.83
v -40711.97 107406.83 1684.80
v -40722.01 107412.06 1684.80
v -40492.94 106713.50 1659.80
v -40492.94 106713.50 1684.80
v -40502.99 106718.73 1684.80
v -41112.02 132523.19 791.20
v -41106.62 132527.57 789.64
v -41106.62 132527.57 816.20
v -41112.02 132523.19 816.20
v -41111.98 132512.92 816.20
v -41106.63 132517.26 816.20
v -40955.36 132650.31 760.53
v -40955.36 132650.31 816.20
v -40956.51 132639.07 816.20
v -40855.29 132527.57 749.42
v -40855.29 132527.57 816.20
v -40857.60 132517.74 816.20
v -40080.25 131576.91 777.52
v -40080.25 131576.91 816.20
v -40091.51 131578.07 816.20
v -40127.43 131538.61 791.20
v -40127.43 131538.61 816.20
v -40138.34 131540.06 816.20
v -34952.01 118698.33 1205.60
v -34344.77 118989.23 1181.31
v -34344.77 118989.23 1230.60
v -34952.01 118698.33 1230.60
v -34950.12 118690.37 1230.60
v -34348.51 118978.57 1230.60
v -34124.51 118531.35 1172.50
v -34124.51 118531.35 1230.60
v -34130.70 118525.74 1230.60
v -33798.50 117853.59 1159.46
v -33798.50 117853.59 1230.60
v -33808.28 117855.47 1230.60
v -33716.83 117683.81 1176.31
v -33716.83 117683.81 1230.60
v -33727.51 117687.57 1230.60
v -34043.21 117527.57 1175.75
v -34043.21 117527.57 1230.60
v -34050.86 117532.77 1230.60
v -34098.19 117501.24 1175.66
v -34098.19 117501.24 1230.60
v -34105.33 117506.70 1230.60
v -34124.51 117488.64 1175.61
v -34124.51 117488.64 1230.60
v -34131.41 117494.21 1230.60
v -34199.19 117452.90 1178.47
v -34199.19 117452.90 1230.60
v -34205.39 117458.80 1230.60
v -34657.80 117233.35 1205.60
v -34657.80 117233.35 1230.60
v -34659.74 117241.29 1230.60
v -34289.16 127754.71 670.00
v -34124.51 127846.58 659.74
v -34124.51 127846.58 695.00
v -34289.16 127754.71 695.00
v -34287.00 127746.76 695.00
v -34124.11 127837.64 695.00
v -33799.43 128027.95 639.48
v -33799.43 128027.95 695.00
v -33802.51 128017.07 695.00
v -33736.55 127915.53 641.46
v -33736.55 127915.53 695.00
v -33740.31 127905.86 695.00
v -33519.52 127527.57 624.10
v -33519.52 127527.57 695.00
v -33525.61 127522.06 695.00
v -33071.12 126725.98 652.36
v -33071.12 126725.98 695.00
v -33082.01 126729.07 695.00
v -33212.73 126647.04 670.00
v -33212.73 126647.04 695.00
v -33222.49 126650.76 695.00
v -32713.38 100483.93 1997.80
v -32681.19 100486.82 1996.40
v -32681.19 100486.82 2022.80
v -32713.38 100483.93 2022.80
v -32704.70 100476.68 2022.80
v -32672.51 100479.57 2022.80
v -32739.81 101142.86 1972.50
v -32739.81 101142.86 2022.80
v -32731.13 101135.60 2022.80
v -32751.20 101270.33 1967.86
v -32751.20 101270.33 2022.80
v -32742.51 101263.07 2022.80
v -31624.51 101370.73 1918.77
v -31624.51 101370.73 2022.80
v -31625.75 101362.58 2022.80
v -30939.76 101431.75 1971.11
v -30939.76 101431.75 2022.80
v -30947.01 101423.07 2022.80
v -30889.04 100866.02 1997.80
v -30889.04 100866.02 2022.80
v -30896.69 100861.74 2022.80
v -32929.51 119523.00 1124.70
v -32176.26 119840.54 1094.57
v -32176.26 119840.54 1149.70
v -32929.51 119523.00 1149.70
v -32923.80 119516.73 1149.70
v -32180.51 119830.07 1149.70
v -32067.77 119584.31 1090.23
v -32067.77 119584.31 1149.70
v -32072.03 119573.84 1149.70
v -31917.22 119228.72 1124.70
v -31917.22 119228.72 1149.70
v -31921.47 119218.25 1149.70
v -25369.30 110724.44 1694.00
v -24995.12 110350.98 1664.04
v -24995.12 110350.98 1719.00
v -25369.30 110724.44 1719.00
v -25373.84 110717.66 1719.00
v -25002.51 110347.06 1719.00
v -24933.54 110027.57 1669.58
v -24933.54 110027.57 1719.00
v -24941.11 110024.55 1719.00
v -24804.15 109347.93 1654.06
v -24804.15 109347.93 1719.00
v -24812.08 109346.80 1719.00
v -24732.89 108973.66 1663.33
v -24732.89 108973.66 1719.00
v -24741.01 108973.56 1719.00
v -24828.80 108398.64 1694.00
v -24828.80 108398.64 1719.00
v -24836.08 108403.59 1719.00
v -24977.01 141279.34 -1393.40
v -24459.84 141388.04 -1414.09
v -24459.84 141388.04 -1368.40
v -24977.01 141279.34 -1368.40
v -24977.06 141271.15 -1368.40
v -24466.01 141378.57 -1368.40
v -24220.34 140258.03 -1423.67
v -24220.34 140258.03 -1368.40
v -24226.51 140248.56 -1368.40
v -24124.51 140278.11 -1427.50
v -24124.51 140278.11 -1368.40
v -24130.69 140268.64 -1368.40
v -24029.79 140297.95 -1393.40
v -24029.79 140297.95 -1368.40
v -24035.97 140288.49 -1368.40
v -24002.73 138827.15 -1393.40
v -24124.51 138801.51 -1427.50
v -24124.51 138801.51 -1368.40
v -24002.73 138827.15 -1368.40
v -23998.88 138836.14 -1368.40
v -24119.28 138810.78 -1368.40
v -24207.19 138784.10 -1420.89
v -24207.19 138784.10 -1368.40
v -24201.01 138793.57 -1368.40
v -24312.19 139282.09 -1412.49
v -24312.19 139282.09 -1368.40
v -24306.01 139291.57 -1368.40
v -24550.76 139231.87 -1393.40
v -24550.76 139231.87 -1368.40
v -24544.59 139241.34 -1368.40
v -24962.62 140013.17 -1393.40
v -24965.66 140027.57 -1393.85
v -24965.66 140027.57 -1368.40
v -24962.62 140013.17 -1368.40
v -24956.44 140022.65 -1368.40
v -24959.48 140037.05 -1368.40
v -24977.01 140081.37 -1393.40
v -24977.01 140081.37 -1368.40
v -24970.84 140090.85 -1368.40
v -22096.51 120855.29 -312.20
v -22082.99 120894.71 -329.64
v -22082.99 120894.71 -287.20
v -22096.51 120855.29 -287.20
v -22091.54 120845.14 -287.20
v -22078.01 120884.56 -287.20
v -21624.51 120738.24 -383.34
v -21624.51 120738.24 -287.20
v -21625.28 120730.05 -287.20
v -21094.67 120557.41 -339.44
v -21094.67 120557.41 -287.20
v -21102.08 120551.49 -287.20
v -20873.84 120482.05 -344.84
v -20873.84 120482.05 -287.20
v -20884.01 120477.07 -287.20
v -20908.79 120380.47 -312.20
v -20908.79 120380.47 -287.20
v -20918.24 120377.59 -287.20
v -21928.50 117739.49 561.80
v -21812.54 117715.59 549.94
v -21812.54 117715.59 586.80
v -21928.50 117739.49 586.80
v -21930.77 117731.79 586.80
v -21816.18 117708.17 586.80
v -21624.51 117676.84 530.70
v -21624.51 117676.84 586.80
v -21630.36 117669.88 586.80
v -21500.75 117651.34 522.99
v -21500.75 117651.34 586.80
v -21508.05 117644.67 586.80
v -21318.56 117613.79 529.22
v -21318.56 117613.79 586.80
v -21328.01 117607.57 586.80
v -21336.35 117527.57 560.97
v -21336.35 117527.57 586.80
v -21345.80 117521.35 586.80
v -21338.28 117518.20 561.80
v -21338.28 117518.20 586.80
v -21347.73 117511.98 586.80
v -21362.58 107737.57 1538.90
v -21343.74 107808.35 1527.58
v -21343.74 107808.35 1563.90
v -21362.58 107737.57 1563.90
v -21355.45 107733.24 1563.90
v -21337.01 107802.53 1563.90
v -21293.69 107996.35 1508.53
v -21293.69 107996.35 1563.90
v -21288.01 107986.56 1563.90
v -21184.73 107967.36 1502.13
v -21184.73 107967.36 1563.90
v -21180.13 107957.86 1563.90
v -20321.19 107737.57 1538.90
v -20321.19 107737.57 1563.90
v -20325.16 107730.35 1563.90
v -19728.39 120290.30 -428.60
v -19695.22 120379.35 -457.52
v -19695.22 120379.35 -403.60
v -19728.39 120290.30 -403.60
v -19723.32 120281.01 -403.60
v -19690.51 120369.07 -403.60
v -19347.00 120250.05 -463.10
v -19347.00 120250.05 -403.60
v -19345.25 120240.87 -403.60
v -19124.51 120167.44 -466.66
v -19124.51 120167.44 -403.60
v -19124.66 120158.96 -403.60
v -19022.52 120129.56 -464.22
v -19022.52 120129.56 -403.60
v -19023.53 120121.40 -403.60
v -18747.83 120027.57 -472.70
v -18747.83 120027.57 -403.60
v -18751.18 120020.27 -403.60
v -17929.72 119723.78 -461.51
v -17929.72 119723.78 -403.60
v -17940.01 119719.07 -403.60
v -17960.01 119642.46 -428.60
v -17960.01 119642.46 -403.60
v -17969.86 119638.92 -403.60
v -15607.29 103914.42 1724.70
v -15578.02 103981.08 1714.36
v -15578.02 103981.08 1749.70
v -15607.29 103914.42 1749.70
v -15601.71 103907.21 1749.70
v -15572.94 103972.76 1749.70
v -15519.63 104114.10 1693.72
v -15519.63 104114.10 1749.70
v -15515.51 104103.57 1749.70
v -15184.67 103967.41 1684.53
v -15184.67 103967.41 1749.70
v -15183.65 103958.23 1749.70
v -14726.09 103766.57 1724.70
v -14726.09 103766.57 1749.70
v -14729.29 103759.24 1749.70
v -11881.20 106770.09 585.60
v -11624.51 106652.49 547.52
v -11624.51 106652.49 610.60
v -11881.20 106770.09 610.60
v -11889.24 106764.97 610.60
v -11634.25 106648.15 610.60
v -11491.40 106591.50 554.39
v -11491.40 106591.50 610.60
v -11502.01 106587.57 610.60
v -11557.11 106448.59 585.60
v -11557.11 106448.59 610.60
v -11567.73 106444.65 610.60
v -6605.00 115264.06 -1247.20
v -6563.60 115357.61 -1256.34
v -6563.60 115357.61 -1222.20
v -6605.00 115264.06 -1222.20
v -6600.63 115254.17 -1222.20
v -6559.51 115347.06 -1222.20
v -6376.87 115275.22 -1257.22
v -6376.87 115275.22 -1222.20
v -6373.91 115265.17 -1222.20
v -5815.60 115027.57 -1292.21
v -5815.60 115027.57 -1222.20
v -5816.01 115019.01 -1222.20
v -4642.24 114509.85 -1303.25
v -4642.24 114509.85 -1222.20
v -4649.70 114504.40 -1222.20
v -4128.46 114283.15 -1278.46
v -4128.46 114283.15 -1222.20
v -4139.01 114279.07 -1222.20
v -4192.00 114139.57 -1247.20
v -4192.00 114139.57 -1222.20
v -4201.97 114136.81 -1222.20
v -4594.19 111035.90 -748.50
v -4556.00 111131.94 -760.02
v -4556.00 111131.94 -723.50
v -4594.19 111035.90 -723.50
v -4589.31 111026.53 -723.50
v -4551.51 111121.56 -723.50
v -4313.42 111035.90 -748.50
v -4313.42 111035.90 -723.50
v -4311.02 111026.35 -723.50
v -4044.73 110929.52 -748.50
v -3455.75 110696.33 -814.75
v -3455.75 110696.33 -723.50
v -4044.73 110929.52 -723.50
v -4044.64 110920.88 -723.50
v -3460.72 110689.69 -723.50
v -2823.62 110446.06 -779.97
v -2823.62 110446.06 -723.50
v -2834.01 110441.57 -723.50
v -2872.53 110323.07 -748.50
v -2872.53 110323.07 -723.50
v -2882.42 110319.87 -723.50
v -4269.42 119862.54 -1895.30
v -4262.88 119889.20 -1899.83
v -4262.88 119889.20 -1870.30
v -4269.42 119862.54 -1870.30
v -4259.74 119868.41 -1870.30
v -4253.21 119895.07 -1870.30
v -4228.95 120027.57 -1923.32
v -4228.95 120027.57 -1870.30
v -4219.28 120033.43 -1870.30
v -4208.38 120111.44 -1924.15
v -4208.38 120111.44 -1870.30
v -4198.71 120117.30 -1870.30
v -4124.51 120453.45 -1927.50
v -4124.51 120453.45 -1870.30
v -4114.84 120459.31 -1870.30
v -4080.19 120634.21 -1925.73
v -4080.19 120634.21 -1870.30
v -4070.51 120640.07 -1870.30
v -4124.51 120645.09 -1927.50
v -4124.51 120645.09 -1870.30
v -4114.84 120650.95 -1870.30
v -4564.69 120753.20 -1909.89
v -4564.69 120753.20 -1870.30
v -4555.01 120759.06 -1870.30
v -4132.20 122519.89 -1927.19
v -4132.20 122519.89 -1870.30
v -4126.17 122510.87 -1870.30
v -4130.32 122527.57 -1927.73
v -4130.32 122527.57 -1870.30
v -4124.30 122518.48 -1870.30
v -4129.17 122532.23 -1927.31
v -4129.17 122532.23 -1870.30
v -4123.17 122523.10 -1870.30
v -4124.51 122551.26 -1925.60
v -4124.51 122551.26 -1870.30
v -4118.55 122541.98 -1870.30
v -4113.38 122596.73 -1922.41
v -4113.38 122596.73 -1870.30
v -4107.51 122587.06 -1870.30
v -4066.74 122585.34 -1925.19
v -4066.74 122585.34 -1870.30
v -4061.06 122575.72 -1870.30
v -3830.04 122527.57 -1915.72
v -3830.04 122527.57 -1870.30
v -3825.34 122518.18 -1870.30
v -3319.51 122402.95 -1895.30
v -3319.51 122402.95 -1870.30
v -3316.91 122394.08 -1870.30
v -2149.73 137884.29 -1085.48
v -2155.90 138058.96 -1084.99
v -2155.90 138058.96 -1057.20
v -2149.73 137884.29 -1057.20
v -2142.01 137892.57 -1057.20
v -2148.00 138061.91 -1057.20
v -2168.29 138409.29 -1084.00
v -2168.29 138409.29 -1057.20
v -2160.01 138401.57 -1057.20
v -1624.51 138428.03 -1127.50
v -1624.51 138428.03 -1057.20
v -1616.25 138420.31 -1057.20
v -1239.78 138441.29 -1112.11
v -1239.78 138441.29 -1057.20
v -1231.51 138433.57 -1057.20
v -1249.28 138726.79 -1112.49
v -1249.28 138726.79 -1057.20
v -1241.01 138719.07 -1057.20
v -492.01 138753.32 -1082.20
v -492.01 138753.32 -1057.20
v -489.22 138745.42 -1057.20
v -857.47 137929.15 -1082.20
v -1236.07 137916.01 -1111.96
v -1236.07 137916.01 -1057.20
v -857.47 137929.15 -1057.20
v -856.33 137937.20 -1057.20
v -1233.01 137924.12 -1057.20
v -1624.51 137902.53 -1127.50
v -1624.51 137902.53 -1057.20
v -1619.47 137910.71 -1057.20
v -1986.90 137889.95 -1098.51
v -1986.90 137889.95 -1057.20
v -1980.01 137898.19 -1057.20
v -1937.42 140949.27 -1065.60
v -1975.51 140378.56 -1085.38
v -1975.51 140378.56 -1040.60
v -1937.42 140949.27 -1040.60
v -1945.65 140946.08 -1040.60
v -1983.32 140381.71 -1040.60
v -1998.94 140027.57 -1097.55
v -1998.94 140027.57 -1040.60
v -2006.49 140034.61 -1040.60
v -2015.65 139777.24 -1096.21
v -2015.65 139777.24 -1040.60
v -2023.01 139787.06 -1040.60
v -2398.26 139861.81 -1065.60
v -2398.26 139861.81 -1040.60
v -2404.38 139871.35 -1040.60
v -989.32 134710.26 -1065.60
v -957.29 134360.35 -1080.88
v -957.29 134360.35 -1040.60
v -989.32 134710.26 -1040.60
v -997.42 134711.01 -1040.60
v -965.82 134365.73 -1040.60
v -947.86 134257.31 -1085.38
v -947.86 134257.31 -1040.60
v -956.51 134264.07 -1040.60
v -1533.10 134166.48 -1065.60
v -1533.10 134166.48 -1040.60
v -1538.57 134173.73 -1040.60
v -1354.98 104572.57 281.70
v -1349.06 104679.00 256.16
v -1349.06 104679.00 306.70
v -1354.98 104572.57 306.70
v -1347.36 104565.55 306.70
v -1341.51 104670.57 306.70
v -1271.68 104674.73 257.18
v -1271.68 104674.73 306.70
v -1264.63 104666.33 306.70
v 428.89 104580.98 279.68
v 428.89 104580.98 306.70
v 425.16 104573.17 306.70
v 875.49 104556.35 247.89
v 875.49 104556.35 306.70
v 868.93 104548.70 306.70
v 1169.91 104540.12 250.49
v 1169.91 104540.12 306.70
v 1161.49 104532.57 306.70
v 1159.22 104345.07 281.70
v 1159.22 104345.07 306.70
v 1150.94 104340.11 306.70
vt -416.9114 3.7257
vt -416.6302 3.7104
vt -416.6302 3.7882
vt -416.9114 3.7882
vt -416.8946 3.7882
vt -416.6134 3.7882
vt -416.2220 3.6718
vt -416.2220 3.7882
vt -416.2052 3.7882
vt -415.6583 3.6879
vt -415.6583 3.7882
vt -415.6415 3.7882
vt -414.8240 3.6090
vt -414.8240 3.7882
vt -414.8194 3.7882
vt -412.0076 3.6500
vt -412.0076 3.7882
vt -412.0440 3.7882
vt -412.2956 3.6812
vt -412.2956 3.7882
vt -412.3320 3.7882
vt -412.4389 3.6968
vt -412.4389 3.7882
vt -412.4752 3.7882
vt -411.2376 3.7143
vt -411.2376 3.7882
vt -411.2740 3.7882
vt -411.3424 3.7257
vt -411.3424 3.7882
vt -411.3768 3.7882
vt -406.5186 3.7465
vt -406.1519 3.6776
vt -406.1519 3.8090
vt -406.5186 3.8090
vt -406.5050 3.8090
vt -406.1383 3.8090
vt -406.1126 3.6702
vt -406.1126 3.8090
vt -406.0990 3.8090
vt -405.9327 3.6644
vt -405.9327 3.8090
vt -405.9216 3.8090
vt -404.1302 3.6066
vt -404.1302 3.8090
vt -404.1453 3.8090
vt -402.5701 3.6814
vt -402.5701 3.8090
vt -402.6077 3.8090
vt -403.1705 3.7465
vt -403.1705 3.8090
vt -403.2037 3.8090
vt -393.1011 4.4393
vt -393.0082 4.4313
vt -393.0082 4.5018
vt -393.1011 4.5018
vt -393.0724 4.5018
vt -392.9805 4.5018
vt -392.2254 4.3639
vt -392.2254 4.5018
vt -392.2065 4.5018
vt -391.6302 4.3556
vt -391.6302 4.5018
vt -391.6144 4.5018
vt -388.7206 4.3149
vt -388.7206 4.5018
vt -388.7200 4.5018
vt -385.3802 4.3551
vt -385.3802 4.5018
vt -385.3971 4.5018
vt -381.8587 4.3975
vt -381.8587 4.5018
vt -381.8940 4.5018
vt -382.1144 4.4313
vt -382.1144 4.5018
vt -382.1485 4.5018
vt -382.1749 4.4393
vt -382.1749 4.5018
vt -382.2088 4.5018
vt -488.3489 -1.4500
vt -488.2253 -1.4549
vt -488.2253 -1.3875
vt -488.3489 -1.3875
vt -488.3377 -1.3875
vt -488.2150 -1.3875
vt -486.5658 -1.5213
vt -486.5658 -1.3875
vt -486.5684 -1.3875
vt -486.0461 -1.5243
vt -486.0461 -1.3875
vt -486.0527 -1.3875
vt -485.3802 -1.5563
vt -485.3802 -1.3875
vt -485.3933 -1.3875
vt -485.1202 -1.5791
vt -485.1202 -1.3875
vt -485.1358 -1.3875
vt -484.9345 -1.5598
vt -484.9345 -1.3875
vt -484.9520 -1.3875
vt -483.8788 -1.4500
vt -483.8788 -1.3875
vt -483.9065 -1.3875
vt -373.2931 4.1495
vt -372.8802 4.1254
vt -372.8802 4.2120
vt -373.2931 4.2120
vt -373.2811 4.2120
vt -372.8682 4.2120
vt -372.2947 4.0913
vt -372.2947 4.2120
vt -372.2827 4.2120
vt -370.1087 4.0704
vt -370.1087 4.2120
vt -370.1431 4.2120
vt -369.9321 4.0741
vt -369.9321 4.2120
vt -369.9702 4.2120
vt -370.2970 4.1021
vt -370.2970 4.2120
vt -370.3352 4.2120
vt -368.0161 4.1495
vt -368.0161 4.2120
vt -368.0543 4.2120
vt -434.0880 1.9780
vt -434.0855 1.9741
vt -434.0855 2.0405
vt -434.0880 2.0405
vt -434.0623 2.0405
vt -434.0597 2.0405
vt -434.0142 1.9013
vt -434.0142 2.0405
vt -433.9890 2.0405
vt -433.4572 1.8735
vt -433.4572 2.0405
vt -433.4384 2.0405
vt -429.1429 1.9438
vt -429.1429 2.0405
vt -429.1740 2.0405
vt -429.1651 1.9780
vt -429.1651 2.0405
vt -429.1960 2.0405
vt -384.1259 3.0140
vt -383.3350 2.9533
vt -383.3350 3.0765
vt -384.1259 3.0765
vt -384.1012 3.0765
vt -383.3177 3.0765
vt -381.6397 2.9312
vt -381.6397 3.0765
vt -381.6411 3.0765
vt -379.1302 2.8986
vt -379.1302 3.0765
vt -379.1594 3.0765
vt -378.5016 2.9408
vt -378.5016 3.0765
vt -378.5377 3.0765
vt -378.9269 2.9394
vt -378.9269 3.0765
vt -378.9591 3.0765
vt -378.9986 2.9392
vt -378.9986 3.0765
vt -379.0301 3.0765
vt -379.0329 2.9390
vt -379.0329 3.0765
vt -379.0641 3.0765
vt -379.1302 2.9462
vt -379.1302 3.0765
vt -379.1605 3.0765
vt -379.7279 3.0140
vt -379.7279 3.0765
vt -379.7526 3.0765
vt -405.1097 1.6750
vt -404.9277 1.6494
vt -404.9277 1.7375
vt -405.1097 1.7375
vt -405.0844 1.7375
vt -404.9044 1.7375
vt -404.5684 1.5987
vt -404.5684 1.7375
vt -404.5490 1.7375
vt -404.1302 1.6037
vt -404.1302 1.7375
vt -404.1154 1.7375
vt -402.6177 1.5603
vt -402.6177 1.7375
vt -402.6192 1.7375
vt -399.4928 1.6309
vt -399.4928 1.7375
vt -399.5277 1.7375
vt -399.6494 1.6750
vt -399.6494 1.7375
vt -399.6831 1.7375
vt -332.9933 4.9945
vt -332.9200 4.9910
vt -332.9200 5.0570
vt -332.9933 5.0570
vt -332.9535 5.0570
vt -332.8802 5.0570
vt -334.7067 4.9313
vt -334.7067 5.0570
vt -334.6668 5.0570
vt -335.0538 4.9196
vt -335.0538 5.0570
vt -335.0140 5.0570
vt -332.4881 4.7969
vt -332.4881 5.0570
vt -332.4708 5.0570
vt -330.9288 4.9278
vt -330.9288 5.0570
vt -330.9252 5.0570
vt -329.3877 4.9945
vt -329.3877 5.0570
vt -329.3961 5.0570
vt -381.1313 2.8117
vt -380.0420 2.7364
vt -380.0420 2.8742
vt -381.1313 2.8742
vt -381.1013 2.8742
vt -380.0265 2.8742
vt -379.1302 2.7256
vt -379.1302 2.8742
vt -379.1147 2.8742
vt -377.8648 2.8117
vt -377.8648 2.8742
vt -377.8493 2.8742
vt -340.2343 4.2350
vt -338.3653 4.1601
vt -338.3653 4.2975
vt -340.2343 4.2975
vt -340.2287 4.2975
vt -338.3739 4.2975
vt -337.4028 4.1739
vt -337.4028 4.2975
vt -337.4142 4.2975
vt -335.3802 4.1351
vt -335.3802 4.2975
vt -335.3972 4.2975
vt -334.2664 4.1583
vt -334.2664 4.2975
vt -334.2864 4.2975
vt -333.0686 4.2350
vt -333.0686 4.2975
vt -333.0992 4.2975
vt -415.6409 -3.4835
vt -414.6197 -3.5352
vt -414.6197 -3.4210
vt -415.6409 -3.4210
vt -415.6205 -3.4210
vt -414.6115 -3.4210
vt -411.1959 -3.5592
vt -411.1959 -3.4210
vt -411.1877 -3.4210
vt -411.0066 -3.5688
vt -411.0066 -3.4210
vt -410.9983 -3.4210
vt -410.8194 -3.4835
vt -410.8194 -3.4210
vt -410.8111 -3.4210
vt -407.0747 -3.4835
vt -407.3151 -3.5688
vt -407.3151 -3.4210
vt -407.0747 -3.4210
vt -407.0876 -3.4210
vt -407.3252 -3.4210
vt -407.4782 -3.5522
vt -407.4782 -3.4210
vt -407.4865 -3.4210
vt -408.9857 -3.5312
vt -408.9857 -3.4210
vt -408.9940 -3.4210
vt -409.4566 -3.4835
vt -409.4566 -3.4210
vt -409.4648 -3.4210
vt -412.4395 -3.4835
vt -412.4831 -3.4846
vt -412.4831 -3.4210
vt -412.4395 -3.4210
vt -412.4477 -3.4210
vt -412.4913 -3.4210
vt -412.6460 -3.4835
vt -412.6460 -3.4210
vt -412.6542 -3.4210
vt -357.3795 -0.7805
vt -357.4443 -0.8241
vt -357.4443 -0.7180
vt -357.3795 -0.7180
vt -357.3417 -0.7180
vt -357.4064 -0.7180
vt -355.9069 -0.9583
vt -355.9069 -0.7180
vt -355.8883 -0.7180
vt -354.1302 -0.8486
vt -354.1302 -0.7180
vt -354.1339 -0.7180
vt -353.3897 -0.8621
vt -353.3897 -0.7180
vt -353.4027 -0.7180
vt -353.2232 -0.7805
vt -353.2232 -0.7180
vt -353.2396 -0.7180
vt -349.1700 1.4045
vt -348.8203 1.3749
vt -348.8203 1.4670
vt -349.1700 1.4670
vt -349.1564 1.4670
vt -348.8109 1.4670
vt -348.2534 1.3268
vt -348.2534 1.4670
vt -348.2506 1.4670
vt -347.8802 1.3075
vt -347.8802 1.4670
vt -347.8818 1.4670
vt -347.3309 1.3231
vt -347.3309 1.4670
vt -347.3390 1.4670
vt -347.1598 1.4024
vt -347.1598 1.4670
vt -347.1679 1.4670
vt -347.1412 1.4045
vt -347.1412 1.4670
vt -347.1493 1.4670
vt -322.7504 3.8473
vt -322.8802 3.8189
vt -322.8802 3.9098
vt -322.7504 3.9098
vt -322.7217 3.9098
vt -322.8488 3.9098
vt -323.2251 3.7713
vt -323.2251 3.9098
vt -323.1864 3.9098
vt -322.8802 3.7553
vt -322.8802 3.9098
vt -322.8450 3.9098
vt -320.1469 3.8473
vt -320.1469 3.9098
vt -320.1388 3.9098
vt -350.0467 -1.0715
vt -350.1864 -1.1438
vt -350.1864 -1.0090
vt -350.0467 -1.0090
vt -350.0108 -1.0090
vt -350.1490 -1.0090
vt -348.9926 -1.1578
vt -348.9926 -1.0090
vt -348.9653 -1.0090
vt -348.2299 -1.1666
vt -348.2299 -1.0090
vt -348.2090 -1.0090
vt -347.8802 -1.1605
vt -347.8802 -1.0090
vt -347.8623 -1.0090
vt -346.9385 -1.1818
vt -346.9385 -1.0090
vt -346.9286 -1.0090
vt -344.1338 -1.1538
vt -344.1338 -1.0090
vt -344.1477 -1.0090
vt -344.0062 -1.0715
vt -344.0062 -1.0090
vt -344.0220 -1.0090
vt -298.8043 4.3117
vt -298.8978 4.2859
vt -298.8978 4.3742
vt -298.8043 4.3742
vt -298.7723 4.3742
vt -298.8642 4.3742
vt -299.0843 4.2343
vt -299.0843 4.3742
vt -299.0477 4.3742
vt -297.8802 4.2113
vt -297.8802 4.3742
vt -297.8547 4.3742
vt -296.2317 4.3117
vt -296.2317 4.3742
vt -296.2213 4.3742
vt -296.6282 1.4640
vt -295.6925 1.3688
vt -295.6925 1.5265
vt -296.6282 1.5265
vt -296.6355 1.5265
vt -295.7060 1.5265
vt -295.2072 1.3860
vt -295.2072 1.5265
vt -295.2240 1.5265
vt -295.0143 1.4640
vt -295.0143 1.5265
vt -295.0309 1.5265
vt -304.6726 -3.1180
vt -304.8030 -3.1408
vt -304.8030 -3.0555
vt -304.6726 -3.0555
vt -304.6370 -3.0555
vt -304.7664 -3.0555
vt -304.1302 -3.1431
vt -304.1302 -3.0555
vt -304.0977 -3.0555
vt -302.1079 -3.2305
vt -302.1079 -3.0555
vt -302.0875 -3.0555
vt -297.8802 -3.2581
vt -297.8802 -3.0555
vt -297.8852 -3.0555
vt -296.0290 -3.1962
vt -296.0290 -3.0555
vt -296.0452 -3.0555
vt -295.8289 -3.1180
vt -295.8289 -3.0555
vt -295.8469 -3.0555
vt -289.0752 -1.8713
vt -289.2199 -1.9001
vt -289.2199 -1.8088
vt -289.0752 -1.8088
vt -289.0396 -1.8088
vt -289.1827 -1.8088
vt -288.3733 -1.8713
vt -288.3733 -1.8088
vt -288.3434 -1.8088
vt -287.4356 -1.8713
vt -285.3802 -2.0369
vt -285.3802 -1.8088
vt -287.4356 -1.8088
vt -287.4138 -1.8088
vt -285.3760 -1.8088
vt -283.1742 -1.9499
vt -283.1742 -1.8088
vt -283.1889 -1.8088
vt -282.9890 -1.8713
vt -282.9890 -1.8088
vt -283.0057 -1.8088
vt -310.3299 -4.7382
vt -310.3802 -4.7496
vt -310.3802 -4.6757
vt -310.3299 -4.6757
vt -310.3204 -4.6757
vt -310.3707 -4.6757
vt -310.6413 -4.8083
vt -310.6413 -4.6757
vt -310.6318 -4.6757
vt -310.7996 -4.8104
vt -310.7996 -4.6757
vt -310.7900 -4.6757
vt -311.4449 -4.8187
vt -311.4449 -4.6757
vt -311.4354 -4.6757
vt -311.7860 -4.8143
vt -311.7860 -4.6757
vt -311.7765 -4.6757
vt -311.9240 -4.8187
vt -311.9240 -4.6757
vt -311.9145 -4.6757
vt -313.2947 -4.7747
vt -313.2947 -4.6757
vt -313.2852 -4.6757
vt -316.6302 -4.8180
vt -316.6302 -4.6757
vt -316.5926 -4.6757
vt -316.6447 -4.8193
vt -316.6447 -4.6757
vt -316.6069 -4.6757
vt -316.6535 -4.8183
vt -316.6535 -4.6757
vt -316.6157 -4.6757
vt -316.6894 -4.8140
vt -316.6894 -4.6757
vt -316.6513 -4.6757
vt -316.7753 -4.8060
vt -316.7753 -4.6757
vt -316.7364 -4.6757
vt -316.6302 -4.8130
vt -316.6302 -4.6757
vt -316.5919 -4.6757
vt -315.8940 -4.7893
vt -315.8940 -4.6757
vt -315.8588 -4.6757
vt -314.3062 -4.7382
vt -314.3062 -4.6757
vt -314.2775 -4.6757
vt -350.0851 -2.7137
vt -350.5371 -2.7125
vt -350.5371 -2.6430
vt -350.0851 -2.6430
vt -350.0865 -2.6430
vt -350.5248 -2.6430
vt -351.4440 -2.7100
vt -351.4440 -2.6430
vt -351.4040 -2.6430
vt -350.1313 -2.8188
vt -350.1313 -2.6430
vt -350.0914 -2.6430
vt -349.2027 -2.7803
vt -349.2027 -2.6430
vt -349.1627 -2.6430
vt -349.9402 -2.7812
vt -349.9402 -2.6430
vt -349.9002 -2.6430
vt -348.1133 -2.7055
vt -348.1133 -2.6430
vt -348.0866 -2.6430
vt -346.9665 -2.7055
vt -347.8802 -2.7799
vt -347.8802 -2.6430
vt -346.9665 -2.6430
vt -346.9838 -2.6430
vt -347.8928 -2.6430
vt -348.8176 -2.8188
vt -348.8176 -2.6430
vt -348.8254 -2.6430
vt -349.6921 -2.7463
vt -349.6921 -2.6430
vt -349.6955 -2.6430
vt -357.2167 -2.6640
vt -355.8852 -2.7135
vt -355.8852 -2.6015
vt -357.2167 -2.6015
vt -357.2293 -2.6015
vt -355.9126 -2.6015
vt -355.0663 -2.7439
vt -355.0663 -2.6015
vt -355.1027 -2.6015
vt -354.4822 -2.7405
vt -354.4822 -2.6015
vt -354.5252 -2.6015
vt -355.6502 -2.6640
vt -355.6502 -2.6015
vt -355.6893 -2.6015
vt -339.2490 -2.6640
vt -338.2941 -2.7022
vt -338.2941 -2.6015
vt -339.2490 -2.6015
vt -339.2711 -2.6015
vt -338.3289 -2.6015
vt -338.0129 -2.7135
vt -338.0129 -2.6015
vt -338.0515 -2.6015
vt -339.2490 -2.6640
vt -339.2490 -2.6015
vt -339.2808 -2.6015
vt -264.8189 0.7042
vt -265.0702 0.6404
vt -265.0702 0.7667
vt -264.8189 0.7667
vt -264.7823 0.7667
vt -265.0302 0.7667
vt -264.8660 0.6430
vt -264.8660 0.7667
vt -264.8274 0.7667
vt -260.3802 0.6992
vt -260.3802 0.7667
vt -260.3700 0.7667
vt -259.2022 0.6197
vt -259.2022 0.7667
vt -259.1994 0.7667
vt -258.4255 0.6262
vt -258.4255 0.7667
vt -258.4277 0.7667
vt -257.9646 0.7042
vt -257.9646 0.7667
vt -257.9729 0.7667
vn 0.9072 0.4207 0.0000
vn 0.0000 -0.0000 1.0000
vn -0.4193 0.9079 0.0000
vn 0.9064 0.4225 0.0000
vn 0.4186 -0.9082 0.0000
vn 0.9068 0.4216 0.0000
vn 0.4204 -0.9073 0.0000
vn -0.3402 0.9404 0.0000
vn 0.9396 0.3424 0.0000
vn 0.3412 -0.9400 0.0000
vn -0.4719 0.8817 0.0000
vn 0.8808 0.4734 0.0000
vn 0.4720 -0.8816 0.0000
vn 0.1643 0.9864 0.0000
vn 0.9864 -0.1646 0.0000
vn -0.2991 0.9542 0.0000
vn 0.9538 0.3003 0.0000
vn 0.3001 -0.9539 0.0000
vn 0.9536 0.3012 0.0000
vn -0.6301 0.7765 0.0000
vn 0.7751 0.6319 0.0000
vn 0.6302 -0.7764 0.0000
vn -0.4320 0.9019 0.0000
vn 0.9012 0.4335 0.0000
vn 0.4318 -0.9020 0.0000
vn -0.4872 0.8733 0.0000
vn 0.8727 0.4882 0.0000
vn 0.4869 -0.8735 0.0000
vn -0.0894 0.9960 0.0000
vn -0.9960 -0.0890 0.0000
vn -0.0888 0.9961 0.0000
vn 0.9960 0.0893 0.0000
vn -0.3885 0.9215 0.0000
vn 0.9209 0.3899 0.0000
vn 0.7064 0.7078 0.0000
vn 0.9824 0.1870 0.0000
vn 0.9864 -0.1645 0.0000
vn -0.2057 0.9786 0.0000
vn 0.9783 0.2073 0.0000
vn -0.2051 0.9787 0.0000
vn 0.2060 -0.9785 0.0000
vn -0.9785 -0.2063 0.0000
vn -0.9784 -0.2065 0.0000
vn -0.9459 0.3245 0.0000
vn 0.3230 0.9464 0.0000
vn 0.9456 -0.3253 0.0000
vn 0.2018 0.9794 0.0000
vn 0.9794 -0.2020 0.0000
vn -0.9663 0.2572 0.0000
vn 0.2572 0.9664 0.0000
vn -0.9371 0.3490 0.0000
vn 0.3481 0.9375 0.0000
vn 0.9371 -0.3490 0.0000
vn -0.9157 0.4020 0.0000
vn 0.4012 0.9160 0.0000
vn 0.4165 0.9091 0.0000
vn 0.9086 -0.4177 0.0000
vn -0.9144 0.4048 0.0000
vn 0.4037 0.9149 0.0000
vn 0.9145 -0.4047 0.0000
vn -0.9292 0.3696 0.0000
vn 0.3681 0.9298 0.0000
vn 0.9292 -0.3696 0.0000
vn -0.9712 0.2382 0.0000
vn -0.2385 -0.9711 0.0000
vn -0.9713 0.2378 0.0000
vn 0.2371 0.9715 0.0000
vn -0.9994 -0.0353 0.0000
vn -0.0344 0.9994 0.0000
vn -0.9994 -0.0333 0.0000
vn -0.0350 0.9994 0.0000
vn 0.0347 -0.9994 0.0000
vn 0.9978 -0.0666 0.0000
vn -0.2158 -0.9764 0.0000
vn 0.9958 0.0911 0.0000
vn 0.1534 -0.9882 0.0000
vn -0.9985 0.0556 0.0000
vn 0.0551 0.9985 0.0000
vn 0.9985 -0.0547 0.0000
f 1/1/1 3/3/1 2/2/1
f 1/1/1 4/4/1 3/3/1
f 5/5/2 6/6/2 3/3/2
f 5/5/2 3/3/2 4/4/2
f 2/2/1 8/8/1 7/7/1
f 2/2/1 3/3/1 8/8/1
f 6/6/2 9/9/2 8/8/2
f 6/6/2 8/8/2 3/3/2
f 7/7/3 11/11/3 10/10/3
f 7/7/3 8/8/3 11/11/3
f 9/9/2 12/12/2 11/11/2
f 9/9/2 11/11/2 8/8/2
f 10/10/4 14/14/4 13/13/4
f 10/10/4 11/11/4 14/14/4
f 12/12/2 15/15/2 14/14/2
f 12/12/2 14/14/2 11/11/2
f 13/13/4 17/17/4 16/16/4
f 13/13/4 14/14/4 17/17/4
f 15/15/2 18/18/2 17/17/2
f 15/15/2 17/17/2 14/14/2
f 16/16/5 20/20/5 19/19/5
f 16/16/5 17/17/5 20/20/5
f 18/18/2 21/21/2 20/20/2
f 18/18/2 20/20/2 17/17/2
f 19/19/5 23/23/5 22/22/5
f 19/19/5 20/20/5 23/23/5
f 21/21/2 24/24/2 23/23/2
f 21/21/2 23/23/2 20/20/2
f 22/22/6 26/26/6 25/25/6
f 22/22/6 23/23/6 26/26/6
f 24/24/2 27/27/2 26/26/2
f 24/24/2 26/26/2 23/23/2
f 25/25/7 29/29/7 28/28/7
f 25/25/7 26/26/7 29/29/7
f 27/27/2 30/30/2 29/29/2
f 27/27/2 29/29/2 26/26/2
f 31/31/8 33/33/8 32/32/8
f 31/31/8 34/34/8 33/33/8
f 35/35/2 36/36/2 33/33/2
f 35/35/2 33/33/2 34/34/2
f 32/32/8 38/38/8 37/37/8
f 32/32/8 33/33/8 38/38/8
f 36/36/2 39/39/2 38/38/2
f 36/36/2 38/38/2 33/33/2
f 37/37/9 41/41/9 40/40/9
f 37/37/9 38/38/9 41/41/9
f 39/39/2 42/42/2 41/41/2
f 39/39/2 41/41/2 38/38/2
f 40/40/9 44/44/9 43/43/9
f 40/40/9 41/41/9 44/44/9
f 42/42/2 45/45/2 44/44/2
f 42/42/2 44/44/2 41/41/2
f 43/43/9 47/47/9 46/46/9
f 43/43/9 44/44/9 47/47/9
f 45/45/2 48/48/2 47/47/2
f 45/45/2 47/47/2 44/44/2
f 46/46/10 50/50/10 49/49/10
f 46/46/10 47/47/10 50/50/10
f 48/48/2 51/51/2 50/50/2
f 48/48/2 50/50/2 47/47/2
f 52/52/11 54/54/11 53/53/11
f 52/52/11 55/55/11 54/54/11
f 56/56/2 57/57/2 54/54/2
f 56/56/2 54/54/2 55/55/2
f 53/53/11 59/59/11 58/58/11
f 53/53/11 54/54/11 59/59/11
f 57/57/2 60/60/2 59/59/2
f 57/57/2 59/59/2 54/54/2
f 58/58/12 62/62/12 61/61/12
f 58/58/12 59/59/12 62/62/12
f 60/60/2 63/63/2 62/62/2
f 60/60/2 62/62/2 59/59/2
f 61/61/12 65/65/12 64/64/12
f 61/61/12 62/62/12 65/65/12
f 63/63/2 66/66/2 65/65/2
f 63/63/2 65/65/2 62/62/2
f 64/64/12 68/68/12 67/67/12
f 64/64/12 65/65/12 68/68/12
f 66/66/2 69/69/2 68/68/2
f 66/66/2 68/68/2 65/65/2
f 67/67/12 71/71/12 70/70/12
f 67/67/12 68/68/12 71/71/12
f 69/69/2 72/72/2 71/71/2
f 69/69/2 71/71/2 68/68/2
f 70/70/13 74/74/13 73/73/13
f 70/70/13 71/71/13 74/74/13
f 72/72/2 75/75/2 74/74/2
f 72/72/2 74/74/2 71/71/2
f 73/73/13 77/77/13 76/76/13
f 73/73/13 74/74/13 77/77/13
f 75/75/2 78/78/2 77/77/2
f 75/75/2 77/77/2 74/74/2
f 79/79/14 81/81/14 80/80/14
f 79/79/14 82/82/14 81/81/14
f 83/83/2 84/84/2 81/81/2
f 83/83/2 81/81/2 82/82/2
f 80/80/14 86/86/14 85/85/14
f 80/80/14 81/81/14 86/86/14
f 84/84/2 87/87/2 86/86/2
f 84/84/2 86/86/2 81/81/2
f 85/85/14 89/89/14 88/88/14
f 85/85/14 86/86/14 89/89/14
f 87/87/2 90/90/2 89/89/2
f 87/87/2 89/89/2 86/86/2
f 88/88/15 92/92/15 91/91/15
f 88/88/15 89/89/15 92/92/15
f 90/90/2 93/93/2 92/92/2
f 90/90/2 92/92/2 89/89/2
f 91/91/15 95/95/15 94/94/15
f 91/91/15 92/92/15 95/95/15
f 93/93/2 96/96/2 95/95/2
f 93/93/2 95/95/2 92/92/2
f 94/94/15 98/98/15 97/97/15
f 94/94/15 95/95/15 98/98/15
f 96/96/2 99/99/2 98/98/2
f 96/96/2 98/98/2 95/95/2
f 97/97/15 101/101/15 100/100/15
f 97/97/15 98/98/15 101/101/15
f 99/99/2 102/102/2 101/101/2
f 99/99/2 101/101/2 98/98/2
f 103/103/16 105/105/16 104/104/16
f 103/103/16 106/106/16 105/105/16
f 107/107/2 108/108/2 105/105/2
f 107/107/2 105/105/2 106/106/2
f 104/104/16 110/110/16 109/109/16
f 104/104/16 105/105/16 110/110/16
f 108/108/2 111/111/2 110/110/2
f 108/108/2 110/110/2 105/105/2
f 109/109/17 113/113/17 112/112/17
f 109/109/17 110/110/17 113/113/17
f 111/111/2 114/114/2 113/113/2
f 111/111/2 113/113/2 110/110/2
f 112/112/17 116/116/17 115/115/17
f 112/112/17 113/113/17 116/116/17
f 114/114/2 117/117/2 116/116/2
f 114/114/2 116/116/2 113/113/2
f 115/115/18 119/119/18 118/118/18
f 115/115/18 116/116/18 119/119/18
f 117/117/2 120/120/2 119/119/2
f 117/117/2 119/119/2 116/116/2
f 118/118/19 122/122/19 121/121/19
f 118/118/19 119/119/19 122/122/19
f 120/120/2 123/123/2 122/122/2
f 120/120/2 122/122/2 119/119/2
f 124/124/20 126/126/20 125/125/20
f 124/124/20 127/127/20 126/126/20
f 128/128/2 129/129/2 126/126/2
f 128/128/2 126/126/2 127/127/2
f 125/125/20 131/131/20 130/130/20
f 125/125/20 126/126/20 131/131/20
f 129/129/2 132/132/2 131/131/2
f 129/129/2 131/131/2 126/126/2
f 130/130/21 134/134/21 133/133/21
f 130/130/21 131/131/21 134/134/21
f 132/132/2 135/135/2 134/134/2
f 132/132/2 134/134/2 131/131/2
f 133/133/21 137/137/21 136/136/21
f 133/133/21 134/134/21 137/137/21
f 135/135/2 138/138/2 137/137/2
f 135/135/2 137/137/2 134/134/2
f 136/136/22 140/140/22 139/139/22
f 136/136/22 137/137/22 140/140/22
f 138/138/2 141/141/2 140/140/2
f 138/138/2 140/140/2 137/137/2
f 142/142/23 144/144/23 143/143/23
f 142/142/23 145/145/23 144/144/23
f 146/146/2 147/147/2 144/144/2
f 146/146/2 144/144/2 145/145/2
f 143/143/24 149/149/24 148/148/24
f 143/143/24 144/144/24 149/149/24
f 147/147/2 150/150/2 149/149/2
f 147/147/2 149/149/2 144/144/2
f 148/148/24 152/152/24 151/151/24
f 148/148/24 149/149/24 152/152/24
f 150/150/2 153/153/2 152/152/2
f 150/150/2 152/152/2 149/149/2
f 151/151/24 155/155/24 154/154/24
f 151/151/24 152/152/24 155/155/24
f 153/153/2 156/156/2 155/155/2
f 153/153/2 155/155/2 152/152/2
f 154/154/25 158/158/25 157/157/25
f 154/154/25 155/155/25 158/158/25
f 156/156/2 159/159/2 158/158/2
f 156/156/2 158/158/2 155/155/2
f 157/157/25 161/161/25 160/160/25
f 157/157/25 158/158/25 161/161/25
f 159/159/2 162/162/2 161/161/2
f 159/159/2 161/161/2 158/158/2
f 160/160/25 164/164/25 163/163/25
f 160/160/25 161/161/25 164/164/25
f 162/162/2 165/165/2 164/164/2
f 162/162/2 164/164/2 161/161/2
f 163/163/25 167/167/25 166/166/25
f 163/163/25 164/164/25 167/167/25
f 165/165/2 168/168/2 167/167/2
f 165/165/2 167/167/2 164/164/2
f 166/166/25 170/170/25 169/169/25
f 166/166/25 167/167/25 170/170/25
f 168/168/2 171/171/2 170/170/2
f 168/168/2 170/170/2 167/167/2
f 172/172/26 174/174/26 173/173/26
f 172/172/26 175/175/26 174/174/26
f 176/176/2 177/177/2 174/174/2
f 176/176/2 174/174/2 175/175/2
f 173/173/26 179/179/26 178/178/26
f 173/173/26 174/174/26 179/179/26
f 177/177/2 180/180/2 179/179/2
f 177/177/2 179/179/2 174/174/2
f 178/178/27 182/182/27 181/181/27
f 178/178/27 179/179/27 182/182/27
f 180/180/2 183/183/2 182/182/2
f 180/180/2 182/182/2 179/179/2
f 181/181/27 185/185/27 184/184/27
f 181/181/27 182/182/27 185/185/27
f 183/183/2 186/186/2 185/185/2
f 183/183/2 185/185/2 182/182/2
f 184/184/27 188/188/27 187/187/27
f 184/184/27 185/185/27 188/188/27
f 186/186/2 189/189/2 188/188/2
f 186/186/2 188/188/2 185/185/2
f 187/187/28 191/191/28 190/190/28
f 187/187/28 188/188/28 191/191/28
f 189/189/2 192/192/2 191/191/2
f 189/189/2 191/191/2 188/188/2
f 193/193/29 195/195/29 194/194/29
f 193/193/29 196/196/29 195/195/29
f 197/197/2 198/198/2 195/195/2
f 197/197/2 195/195/2 196/196/2
f 194/194/30 200/200/30 199/199/30
f 194/194/30 195/195/30 200/200/30
f 198/198/2 201/201/2 200/200/2
f 198/198/2 200/200/2 195/195/2
f 199/199/30 203/203/30 202/202/30
f 199/199/30 200/200/30 203/203/30
f 201/201/2 204/204/2 203/203/2
f 201/201/2 203/203/2 200/200/2
f 202/202/31 206/206/31 205/205/31
f 202/202/31 203/203/31 206/206/31
f 204/204/2 207/207/2 206/206/2
f 204/204/2 206/206/2 203/203/2
f 205/205/31 209/209/31 208/208/31
f 205/205/31 206/206/31 209/209/31
f 207/207/2 210/210/2 209/209/2
f 207/207/2 209/209/2 206/206/2
f 208/208/32 212/212/32 211/211/32
f 208/208/32 209/209/32 212/212/32
f 210/210/2 213/213/2 212/212/2
f 210/210/2 212/212/2 209/209/2
f 214/214/33 216/216/33 215/215/33
f 214/214/33 217/217/33 216/216/33
f 218/218/2 219/219/2 216/216/2
f 218/218/2 216/216/2 217/217/2
f 215/215/34 221/221/34 220/220/34
f 215/215/34 216/216/34 221/221/34
f 219/219/2 222/222/2 221/221/2
f 219/219/2 221/221/2 216/216/2
f 220/220/34 224/224/34 223/223/34
f 220/220/34 221/221/34 224/224/34
f 222/222/2 225/225/2 224/224/2
f 222/222/2 224/224/2 221/221/2
f 226/226/35 228/228/35 227/227/35
f 226/226/35 229/229/35 228/228/35
f 230/230/2 231/231/2 228/228/2
f 230/230/2 228/228/2 229/229/2
f 227/227/36 233/233/36 232/232/36
f 227/227/36 228/228/36 233/233/36
f 231/231/2 234/234/2 233/233/2
f 231/231/2 233/233/2 228/228/2
f 232/232/36 236/236/36 235/235/36
f 232/232/36 233/233/36 236/236/36
f 234/234/2 237/237/2 236/236/2
f 234/234/2 236/236/2 233/233/2
f 235/235/36 239/239/36 238/238/36
f 235/235/36 236/236/36 239/239/36
f 237/237/2 240/240/2 239/239/2
f 237/237/2 239/239/2 236/236/2
f 238/238/37 242/242/37 241/241/37
f 238/238/37 239/239/37 242/242/37
f 240/240/2 243/243/2 242/242/2
f 240/240/2 242/242/2 239/239/2
f 244/244/38 246/246/38 245/245/38
f 244/244/38 247/247/38 246/246/38
f 248/248/2 249/249/2 246/246/2
f 248/248/2 246/246/2 247/247/2
f 245/245/39 251/251/39 250/250/39
f 245/245/39 246/246/39 251/251/39
f 249/249/2 252/252/2 251/251/2
f 249/249/2 251/251/2 246/246/2
f 250/250/40 254/254/40 253/253/40
f 250/250/40 251/251/40 254/254/40
f 252/252/2 255/255/2 254/254/2
f 252/252/2 254/254/2 251/251/2
f 253/253/40 257/257/40 256/256/40
f 253/253/40 254/254/40 257/257/40
f 255/255/2 258/258/2 257/257/2
f 255/255/2 257/257/2 254/254/2
f 259/259/41 261/261/41 260/260/41
f 259/259/41 262/262/41 261/261/41
f 263/263/2 264/264/2 261/261/2
f 263/263/2 261/261/2 262/262/2
f 260/260/41 266/266/41 265/265/41
f 260/260/41 261/261/41 266/266/41
f 264/264/2 267/267/2 266/266/2
f 264/264/2 266/266/2 261/261/2
f 265/265/42 269/269/42 268/268/42
f 265/265/42 266/266/42 269/269/42
f 267/267/2 270/270/2 269/269/2
f 267/267/2 269/269/2 266/266/2
f 268/268/41 272/272/41 271/271/41
f 268/268/41 269/269/41 272/272/41
f 270/270/2 273/273/2 272/272/2
f 270/270/2 272/272/2 269/269/2
f 274/274/43 276/276/43 275/275/43
f 274/274/43 277/277/43 276/276/43
f 278/278/2 279/279/2 276/276/2
f 278/278/2 276/276/2 277/277/2
f 275/275/43 281/281/43 280/280/43
f 275/275/43 276/276/43 281/281/43
f 279/279/2 282/282/2 281/281/2
f 279/279/2 281/281/2 276/276/2
f 283/283/44 285/285/44 284/284/44
f 283/283/44 286/286/44 285/285/44
f 287/287/2 288/288/2 285/285/2
f 287/287/2 285/285/2 286/286/2
f 284/284/45 290/290/45 289/289/45
f 284/284/45 285/285/45 290/290/45
f 288/288/2 291/291/2 290/290/2
f 288/288/2 290/290/2 285/285/2
f 289/289/45 293/293/45 292/292/45
f 289/289/45 290/290/45 293/293/45
f 291/291/2 294/294/2 293/293/2
f 291/291/2 293/293/2 290/290/2
f 292/292/45 296/296/45 295/295/45
f 292/292/45 293/293/45 296/296/45
f 294/294/2 297/297/2 296/296/2
f 294/294/2 296/296/2 293/293/2
f 295/295/46 299/299/46 298/298/46
f 295/295/46 296/296/46 299/299/46
f 297/297/2 300/300/2 299/299/2
f 297/297/2 299/299/2 296/296/2
f 301/301/47 303/303/47 302/302/47
f 301/301/47 304/304/47 303/303/47
f 305/305/2 306/306/2 303/303/2
f 305/305/2 303/303/2 304/304/2
f 302/302/47 308/308/47 307/307/47
f 302/302/47 303/303/47 308/308/47
f 306/306/2 309/309/2 308/308/2
f 306/306/2 308/308/2 303/303/2
f 307/307/47 311/311/47 310/310/47
f 307/307/47 308/308/47 311/311/47
f 309/309/2 312/312/2 311/311/2
f 309/309/2 311/311/2 308/308/2
f 310/310/47 314/314/47 313/313/47
f 310/310/47 311/311/47 314/314/47
f 312/312/2 315/315/2 314/314/2
f 312/312/2 314/314/2 311/311/2
f 313/313/48 317/317/48 316/316/48
f 313/313/48 314/314/48 317/317/48
f 315/315/2 318/318/2 317/317/2
f 315/315/2 317/317/2 314/314/2
f 316/316/48 320/320/48 319/319/48
f 316/316/48 317/317/48 320/320/48
f 318/318/2 321/321/2 320/320/2
f 318/318/2 320/320/2 317/317/2
f 322/322/49 324/324/49 323/323/49
f 322/322/49 325/325/49 324/324/49
f 326/326/2 327/327/2 324/324/2
f 326/326/2 324/324/2 325/325/2
f 323/323/49 329/329/49 328/328/49
f 323/323/49 324/324/49 329/329/49
f 327/327/2 330/330/2 329/329/2
f 327/327/2 329/329/2 324/324/2
f 328/328/50 332/332/50 331/331/50
f 328/328/50 329/329/50 332/332/50
f 330/330/2 333/333/2 332/332/2
f 330/330/2 332/332/2 329/329/2
f 331/331/50 335/335/50 334/334/50
f 331/331/50 332/332/50 335/335/50
f 333/333/2 336/336/2 335/335/2
f 333/333/2 335/335/2 332/332/2
f 337/337/51 339/339/51 338/338/51
f 337/337/51 340/340/51 339/339/51
f 341/341/2 342/342/2 339/339/2
f 341/341/2 339/339/2 340/340/2
f 338/338/52 344/344/52 343/343/52
f 338/338/52 339/339/52 344/344/52
f 342/342/2 345/345/2 344/344/2
f 342/342/2 344/344/2 339/339/2
f 343/343/52 347/347/52 346/346/52
f 343/343/52 344/344/52 347/347/52
f 345/345/2 348/348/2 347/347/2
f 345/345/2 347/347/2 344/344/2
f 346/346/52 350/350/52 349/349/52
f 346/346/52 347/347/52 350/350/52
f 348/348/2 351/351/2 350/350/2
f 348/348/2 350/350/2 347/347/2
f 349/349/52 353/353/52 352/352/52
f 349/349/52 350/350/52 353/353/52
f 351/351/2 354/354/2 353/353/2
f 351/351/2 353/353/2 350/350/2
f 352/352/52 356/356/52 355/355/52
f 352/352/52 353/353/52 356/356/52
f 354/354/2 357/357/2 356/356/2
f 354/354/2 356/356/2 353/353/2
f 355/355/53 359/359/53 358/358/53
f 355/355/53 356/356/53 359/359/53
f 357/357/2 360/360/2 359/359/2
f 357/357/2 359/359/2 356/356/2
f 361/361/54 363/363/54 362/362/54
f 361/361/54 364/364/54 363/363/54
f 365/365/2 366/366/2 363/363/2
f 365/365/2 363/363/2 364/364/2
f 362/362/54 368/368/54 367/367/54
f 362/362/54 363/363/54 368/368/54
f 366/366/2 369/369/2 368/368/2
f 366/366/2 368/368/2 363/363/2
f 367/367/55 371/371/55 370/370/55
f 367/367/55 368/368/55 371/371/55
f 369/369/2 372/372/2 371/371/2
f 369/369/2 371/371/2 368/368/2
f 370/370/55 374/374/55 373/373/55
f 370/370/55 371/371/55 374/374/55
f 372/372/2 375/375/2 374/374/2
f 372/372/2 374/374/2 371/371/2
f 376/376/56 378/378/56 377/377/56
f 376/376/56 379/379/56 378/378/56
f 380/380/2 381/381/2 378/378/2
f 380/380/2 378/378/2 379/379/2
f 377/377/56 383/383/56 382/382/56
f 377/377/56 378/378/56 383/383/56
f 381/381/2 384/384/2 383/383/2
f 381/381/2 383/383/2 378/378/2
f 382/382/57 386/386/57 385/385/57
f 382/382/57 383/383/57 386/386/57
f 384/384/2 387/387/2 386/386/2
f 384/384/2 386/386/2 383/383/2
f 388/388/58 390/390/58 389/389/58
f 388/388/58 391/391/58 390/390/58
f 392/392/2 393/393/2 390/390/2
f 392/392/2 390/390/2 391/391/2
f 389/389/59 395/395/59 394/394/59
f 389/389/59 390/390/59 395/395/59
f 393/393/2 396/396/2 395/395/2
f 393/393/2 395/395/2 390/390/2
f 394/394/59 398/398/59 397/397/59
f 394/394/59 395/395/59 398/398/59
f 396/396/2 399/399/2 398/398/2
f 396/396/2 398/398/2 395/395/2
f 397/397/59 401/401/59 400/400/59
f 397/397/59 398/398/59 401/401/59
f 399/399/2 402/402/2 401/401/2
f 399/399/2 401/401/2 398/398/2
f 400/400/59 404/404/59 403/403/59
f 400/400/59 401/401/59 404/404/59
f 402/402/2 405/405/2 404/404/2
f 402/402/2 404/404/2 401/401/2
f 403/403/60 407/407/60 406/406/60
f 403/403/60 404/404/60 407/407/60
f 405/405/2 408/408/2 407/407/2
f 405/405/2 407/407/2 404/404/2
f 409/409/61 411/411/61 410/410/61
f 409/409/61 412/412/61 411/411/61
f 413/413/2 414/414/2 411/411/2
f 413/413/2 411/411/2 412/412/2
f 410/410/62 416/416/62 415/415/62
f 410/410/62 411/411/62 416/416/62
f 414/414/2 417/417/2 416/416/2
f 414/414/2 416/416/2 411/411/2
f 418/418/62 420/420/62 419/419/62
f 418/418/62 421/421/62 420/420/62
f 422/422/2 423/423/2 420/420/2
f 422/422/2 420/420/2 421/421/2
f 419/419/62 425/425/62 424/424/62
f 419/419/62 420/420/62 425/425/62
f 423/423/2 426/426/2 425/425/2
f 423/423/2 425/425/2 420/420/2
f 424/424/63 428/428/63 427/427/63
f 424/424/63 425/425/63 428/428/63
f 426/426/2 429/429/2 428/428/2
f 426/426/2 428/428/2 425/425/2
f 430/430/64 432/432/64 431/431/64
f 430/430/64 433/433/64 432/432/64
f 434/434/2 435/435/2 432/432/2
f 434/434/2 432/432/2 433/433/2
f 431/431/64 437/437/64 436/436/64
f 431/431/64 432/432/64 437/437/64
f 435/435/2 438/438/2 437/437/2
f 435/435/2 437/437/2 432/432/2
f 436/436/64 440/440/64 439/439/64
f 436/436/64 437/437/64 440/440/64
f 438/438/2 441/441/2 440/440/2
f 438/438/2 440/440/2 437/437/2
f 439/439/64 443/443/64 442/442/64
f 439/439/64 440/440/64 443/443/64
f 441/441/2 444/444/2 443/443/2
f 441/441/2 443/443/2 440/440/2
f 442/442/64 446/446/64 445/445/64
f 442/442/64 443/443/64 446/446/64
f 444/444/2 447/447/2 446/446/2
f 444/444/2 446/446/2 443/443/2
f 445/445/65 449/449/65 448/448/65
f 445/445/65 446/446/65 449/449/65
f 447/447/2 450/450/2 449/449/2
f 447/447/2 449/449/2 446/446/2
f 448/448/65 452/452/65 451/451/65
f 448/448/65 449/449/65 452/452/65
f 450/450/2 453/453/2 452/452/2
f 450/450/2 452/452/2 449/449/2
f 451/451/66 455/455/66 454/454/66
f 451/451/66 452/452/66 455/455/66
f 453/453/2 456/456/2 455/455/2
f 453/453/2 455/455/2 452/452/2
f 454/454/66 458/458/66 457/457/66
f 454/454/66 455/455/66 458/458/66
f 456/456/2 459/459/2 458/458/2
f 456/456/2 458/458/2 455/455/2
f 457/457/66 461/461/66 460/460/66
f 457/457/66 458/458/66 461/461/66
f 459/459/2 462/462/2 461/461/2
f 459/459/2 461/461/2 458/458/2
f 460/460/66 464/464/66 463/463/66
f 460/460/66 461/461/66 464/464/66
f 462/462/2 465/465/2 464/464/2
f 462/462/2 464/464/2 461/461/2
f 463/463/66 467/467/66 466/466/66
f 463/463/66 464/464/66 467/467/66
f 465/465/2 468/468/2 467/467/2
f 465/465/2 467/467/2 464/464/2
f 466/466/67 470/470/67 469/469/67
f 466/466/67 467/467/67 470/470/67
f 468/468/2 471/471/2 470/470/2
f 468/468/2 470/470/2 467/467/2
f 469/469/67 473/473/67 472/472/67
f 469/469/67 470/470/67 473/473/67
f 471/471/2 474/474/2 473/473/2
f 471/471/2 473/473/2 470/470/2
f 472/472/67 476/476/67 475/475/67
f 472/472/67 473/473/67 476/476/67
f 474/474/2 477/477/2 476/476/2
f 474/474/2 476/476/2 473/473/2
f 478/478/68 480/480/68 479/479/68
f 478/478/68 481/481/68 480/480/68
f 482/482/2 483/483/2 480/480/2
f 482/482/2 480/480/2 481/481/2
f 479/479/68 485/485/68 484/484/68
f 479/479/68 480/480/68 485/485/68
f 483/483/2 486/486/2 485/485/2
f 483/483/2 485/485/2 480/480/2
f 484/484/69 488/488/69 487/487/69
f 484/484/69 485/485/69 488/488/69
f 486/486/2 489/489/2 488/488/2
f 486/486/2 488/488/2 485/485/2
f 487/487/69 491/491/69 490/490/69
f 487/487/69 488/488/69 491/491/69
f 489/489/2 492/492/2 491/491/2
f 489/489/2 491/491/2 488/488/2
f 490/490/70 494/494/70 493/493/70
f 490/490/70 491/491/70 494/494/70
f 492/492/2 495/495/2 494/494/2
f 492/492/2 494/494/2 491/491/2
f 493/493/71 497/497/71 496/496/71
f 493/493/71 494/494/71 497/497/71
f 495/495/2 498/498/2 497/497/2
f 495/495/2 497/497/2 494/494/2
f 499/499/72 501/501/72 500/500/72
f 499/499/72 502/502/72 501/501/72
f 503/503/2 504/504/2 501/501/2
f 503/503/2 501/501/2 502/502/2
f 500/500/72 506/506/72 505/505/72
f 500/500/72 501/501/72 506/506/72
f 504/504/2 507/507/2 506/506/2
f 504/504/2 506/506/2 501/501/2
f 505/505/72 509/509/72 508/508/72
f 505/505/72 506/506/72 509/509/72
f 507/507/2 510/510/2 509/509/2
f 507/507/2 509/509/2 506/506/2
f 508/508/72 481/481/72 478/478/72
f 508/508/72 509/509/72 481/481/72
f 510/510/2 482/482/2 481/481/2
f 510/510/2 481/481/2 509/509/2
f 511/511/73 513/513/73 512/512/73
f 511/511/73 514/514/73 513/513/73
f 515/515/2 516/516/2 513/513/2
f 515/515/2 513/513/2 514/514/2
f 512/512/73 518/518/73 517/517/73
f 512/512/73 513/513/73 518/518/73
f 516/516/2 519/519/2 518/518/2
f 516/516/2 518/518/2 513/513/2
f 517/517/73 521/521/73 520/520/73
f 517/517/73 518/518/73 521/521/73
f 519/519/2 522/522/2 521/521/2
f 519/519/2 521/521/2 518/518/2
f 520/520/74 524/524/74 523/523/74
f 520/520/74 521/521/74 524/524/74
f 522/522/2 525/525/2 524/524/2
f 522/522/2 524/524/2 521/521/2
f 526/526/75 528/528/75 527/527/75
f 526/526/75 529/529/75 528/528/75
f 530/530/2 531/531/2 528/528/2
f 530/530/2 528/528/2 529/529/2
f 527/527/75 533/533/75 532/532/75
f 527/527/75 528/528/75 533/533/75
f 531/531/2 534/534/2 533/533/2
f 531/531/2 533/533/2 528/528/2
f 532/532/76 536/536/76 535/535/76
f 532/532/76 533/533/76 536/536/76
f 534/534/2 537/537/2 536/536/2
f 534/534/2 536/536/2 533/533/2
f 538/538/77 540/540/77 539/539/77
f 538/538/77 541/541/77 540/540/77
f 542/542/2 543/543/2 540/540/2
f 542/542/2 540/540/2 541/541/2
f 539/539/78 545/545/78 544/544/78
f 539/539/78 540/540/78 545/545/78
f 543/543/2 546/546/2 545/545/2
f 543/543/2 545/545/2 540/540/2
f 544/544/78 548/548/78 547/547/78
f 544/544/78 545/545/78 548/548/78
f 546/546/2 549/549/2 548/548/2
f 546/546/2 548/548/2 545/545/2
f 547/547/78 551/551/78 550/550/78
f 547/547/78 548/548/78 551/551/78
f 549/549/2 552/552/2 551/551/2
f 549/549/2 551/551/2 548/548/2
f 550/550/78 554/554/78 553/553/78
f 550/550/78 551/551/78 554/554/78
f 552/552/2 555/555/2 554/554/2
f 552/552/2 554/554/2 551/551/2
f 553/553/79 557/557/79 556/556/79
f 553/553/79 554/554/79 557/557/79
f 555/555/2 558/558/2 557/557/2
f 555/555/2 557/557/2 554/554/2
