# Unreal legacy OBJ adapter: canonical vertices are UE cm; this file is written with Y reflected and triangle winding reversed. One object, no g groups, so the importer creates exactly one material slot.
# OldCityFoundationV2 foundations (plinth + stepped footing); generator 463404ba754c804f514fe655944ece4eb51a92e1273fec326ad5c2ebfbb18f24
# AUTHORED detail in the style of Old City stone foundations, not survey
o SM_OldCityFoundationV2_Kept_N004_P001
s off
v -199688.26 -61666.18 3627.30
v -199391.65 -61749.39 3612.11
v -199391.65 -61749.39 3652.30
v -199688.26 -61666.18 3652.30
v -199691.89 -61673.47 3652.30
v -199401.51 -61754.93 3652.30
v -199491.72 -62105.22 3601.88
v -199491.72 -62105.22 3652.30
v -199500.34 -62106.31 3652.30
v -199595.00 -62472.43 3591.32
v -199595.00 -62472.43 3652.30
v -199602.32 -62468.92 3652.30
v -199737.98 -62980.80 3597.04
v -199737.98 -62980.80 3652.30
v -199743.51 -62970.93 3652.30
v -200099.99 -62878.81 3611.52
v -200099.99 -62878.81 3652.30
v -200105.52 -62868.94 3652.30
v -200245.82 -63396.60 3617.35
v -200245.82 -63396.60 3652.30
v -200253.52 -63394.43 3652.30
v -200323.34 -63671.25 3620.45
v -200323.34 -63671.25 3652.30
v -200330.22 -63666.19 3652.30
v -200345.87 -63751.08 3623.65
v -200345.87 -63751.08 3652.30
v -200352.51 -63745.17 3652.30
v -200371.65 -63842.43 3627.30
v -200371.65 -63842.43 3652.30
v -200378.02 -63835.56 3652.30
v -191556.29 -56589.91 4307.80
v -191169.46 -55837.43 4337.90
v -191169.46 -55837.43 4362.90
v -191556.29 -56589.91 4362.90
v -191545.51 -56586.43 4362.90
v -191164.34 -55844.97 4362.90
v -190626.67 -55837.43 4337.90
v -190205.07 -56052.99 4329.28
v -190205.07 -56052.99 4362.90
v -190626.67 -55837.43 4362.90
v -190629.13 -55845.16 4362.90
v -190213.34 -56057.74 4362.90
v -190023.23 -56145.96 4336.55
v -190023.23 -56145.96 4362.90
v -190034.01 -56149.43 4362.90
v -190168.38 -56428.57 4330.75
v -190168.38 -56428.57 4362.90
v -190177.03 -56427.91 4362.90
v -190522.55 -57118.19 4316.58
v -190522.55 -57118.19 4362.90
v -190526.01 -57107.43 4362.90
v -191017.39 -56865.31 4296.79
v -191017.39 -56865.31 4362.90
v -191014.04 -56858.04 4362.90
v -191004.64 -68437.80 4211.11
v -190999.02 -68097.93 4197.52
v -190999.02 -68097.93 4265.80
v -191004.64 -68437.80 4265.80
v -190996.51 -68429.93 4265.80
v -190990.94 -68093.19 4265.80
v -190988.67 -67472.43 4172.50
v -190988.67 -67472.43 4265.80
v -190980.69 -67473.45 4265.80
v -190977.98 -66825.90 4224.22
v -190977.98 -66825.90 4265.80
v -190970.09 -66832.87 4265.80
v -190975.89 -66699.30 4229.37
v -190975.89 -66699.30 4265.80
v -190968.02 -66707.43 4265.80
v -190853.44 -66701.36 4234.19
v -190853.44 -66701.36 4265.80
v -190846.28 -66709.48 4265.80
v -189879.21 -66717.74 4232.88
v -189879.21 -66717.74 4265.80
v -189877.65 -66725.76 4265.80
v -189124.51 -66730.42 4231.86
v -189124.51 -66730.42 4265.80
v -189127.30 -66738.38 4265.80
v -189010.86 -66732.33 4240.80
v -189010.86 -66732.33 4265.80
v -189014.30 -66740.28 4265.80
v -188888.99 -68473.37 4240.80
v -189124.51 -68469.41 4212.38
v -189124.51 -68469.41 4265.80
v -188888.99 -68473.37 4265.80
v -188893.03 -68465.30 4265.80
v -189127.20 -68461.36 4265.80
v -190105.01 -68452.92 4211.72
v -190105.01 -68452.92 4265.80
v -190102.05 -68444.97 4265.80
v -190653.24 -68443.71 4211.35
v -190653.24 -68443.71 4265.80
v -190647.13 -68435.81 4265.80
v -181210.21 -52903.54 4888.40
v -181624.51 -52889.62 4855.81
v -181624.51 -52889.62 4913.40
v -181210.21 -52903.54 4913.40
v -181201.94 -52895.82 4913.40
v -181616.25 -52881.89 4913.40
v -182028.13 -52876.05 4856.36
v -182028.13 -52876.05 4913.40
v -182019.86 -52868.32 4913.40
v -183289.27 -52833.65 4858.05
v -183289.27 -52833.65 4913.40
v -183281.01 -52825.93 4913.40
v -183277.12 -52472.43 4872.50
v -183277.12 -52472.43 4913.40
v -183269.07 -52470.87 4913.40
v -183263.75 -52074.93 4888.40
v -183263.75 -52074.93 4913.40
v -183255.93 -52080.15 4913.40
v -175932.47 -59656.51 4840.50
v -176283.28 -59631.20 4813.45
v -176283.28 -59631.20 4865.50
v -175932.47 -59656.51 4865.50
v -175933.22 -59648.44 4865.50
v -176282.47 -59623.23 4865.50
v -176624.51 -59606.57 4801.77
v -176624.51 -59606.57 4865.50
v -176622.21 -59598.72 4865.50
v -177018.84 -59578.11 4804.05
v -177018.84 -59578.11 4865.50
v -177014.79 -59570.38 4865.50
v -178041.07 -59504.34 4809.95
v -178041.07 -59504.34 4865.50
v -178032.51 -59496.93 4865.50
v -178013.41 -59122.43 4840.50
v -178013.41 -59122.43 4865.50
v -178005.16 -59119.23 4865.50
v -175297.40 -52978.20 4946.10
v -174643.46 -52991.38 4893.26
v -174643.46 -52991.38 4971.10
v -175297.40 -52978.20 4971.10
v -175299.04 -52986.17 4971.10
v -174647.80 -52999.30 4971.10
v -174124.51 -53001.84 4914.85
v -174124.51 -53001.84 4971.10
v -174130.99 -53009.71 4971.10
v -173714.86 -53010.10 4915.51
v -173714.86 -53010.10 4971.10
v -173723.01 -53017.93 4971.10
v -173722.47 -53392.43 4946.10
v -173722.47 -53392.43 4971.10
v -173730.53 -53395.56 4971.10
v -175869.05 -54264.70 4946.10
v -175915.84 -54263.76 4944.15
v -175915.84 -54263.76 4971.10
v -175869.05 -54264.70 4971.10
v -175868.13 -54256.72 4971.10
v -175914.73 -54255.78 4971.10
v -175939.93 -54263.27 4946.10
v -175939.93 -54263.27 4971.10
v -175938.72 -54255.29 4971.10
v -174965.43 -80828.33 4739.77
v -174979.69 -80827.60 4740.91
v -174979.69 -80827.60 4795.40
v -174965.43 -80828.33 4795.40
v -174973.01 -80819.93 4795.40
v -174987.11 -80819.22 4795.40
v -175348.26 -80808.86 4770.40
v -175348.26 -80808.86 4795.40
v -175351.52 -80800.68 4795.40
v -174968.07 -79212.04 4770.40
v -174883.62 -79216.35 4763.47
v -174883.62 -79216.35 4795.40
v -174968.07 -79212.04 4795.40
v -174975.36 -79219.67 4795.40
v -174892.02 -79223.93 4795.40
v -174922.00 -79972.43 4736.30
v -174922.00 -79972.43 4795.40
v -174930.01 -79972.52 4795.40
v -174964.63 -80812.55 4739.71
v -174964.63 -80812.55 4795.40
v -174972.22 -80804.31 4795.40
v -170775.05 -89609.40 4121.00
v -170784.80 -89894.20 4109.22
v -170784.80 -89894.20 4146.00
v -170775.05 -89609.40 4146.00
v -170782.85 -89603.39 4146.00
v -170792.52 -89885.93 4146.00
v -171521.39 -89869.31 4080.75
v -171521.39 -89869.31 4146.00
v -171523.55 -89861.23 4146.00
v -171624.51 -89865.83 4081.03
v -171624.51 -89865.83 4146.00
v -171625.90 -89857.77 4146.00
v -171734.85 -89862.10 4085.74
v -171734.85 -89862.10 4146.00
v -171735.40 -89854.07 4146.00
v -171843.29 -89858.43 4090.37
v -171843.29 -89858.43 4146.00
v -171843.02 -89850.44 4146.00
v -172561.31 -89834.58 4121.00
v -172561.31 -89834.58 4146.00
v -172561.05 -89826.59 4146.00
v -173347.78 -86637.18 4344.00
v -173353.39 -86450.62 4374.30
v -173353.39 -86450.62 4399.30
v -173347.78 -86637.18 4399.30
v -173340.02 -86628.93 4399.30
v -173345.57 -86444.74 4399.30
v -171629.48 -86199.93 4374.30
v -171624.51 -86362.44 4361.30
v -171624.51 -86362.44 4399.30
v -171629.48 -86199.93 4399.30
v -171637.57 -86197.05 4399.30
v -171632.67 -86357.49 4399.30
v -171617.77 -86583.18 4343.10
v -171617.77 -86583.18 4399.30
v -171626.01 -86575.44 4399.30
v -171624.51 -86583.39 4343.62
v -171624.51 -86583.39 4399.30
v -171632.69 -86575.65 4399.30
v -172486.65 -86610.30 4341.47
v -172486.65 -86610.30 4399.30
v -172486.85 -86602.30 4399.30
v -173287.38 -86635.29 4339.47
v -173287.38 -86635.29 4399.30
v -173280.18 -86627.06 4399.30
v -171246.88 -59712.21 4828.20
v -171127.16 -59777.22 4796.45
v -171127.16 -59777.22 4853.20
v -171246.88 -59712.21 4853.20
v -171256.99 -59715.82 4853.20
v -171138.01 -59780.43 4853.20
v -171233.39 -59972.43 4794.28
v -171233.39 -59972.43 4853.20
v -171242.81 -59973.00 4853.20
v -171371.23 -60225.71 4801.58
v -171371.23 -60225.71 4853.20
v -171378.78 -60222.85 4853.20
v -171624.51 -60691.13 4815.00
v -171624.51 -60691.13 4853.20
v -171628.63 -60681.96 4853.20
v -171691.80 -60814.77 4810.50
v -171691.80 -60814.77 4853.20
v -171695.01 -60803.93 4853.20
v -171835.26 -60736.93 4828.20
v -171835.26 -60736.93 4853.20
v -171838.47 -60726.08 4853.20
v -172918.95 -92862.50 3646.26
v -172919.14 -92839.86 3650.80
v -172919.14 -92839.86 3675.80
v -172918.95 -92862.50 3675.80
v -172911.01 -92854.43 3675.80
v -172911.21 -92832.04 3675.80
v -171433.13 -92655.90 3650.80
v -171433.06 -92663.89 3649.52
v -171433.06 -92663.89 3675.80
v -171433.13 -92655.90 3675.80
v -171441.18 -92650.10 3675.80
v -171441.11 -92658.00 3675.80
v -171431.45 -92849.86 3619.83
v -171431.45 -92849.86 3675.80
v -171439.51 -92841.93 3675.80
v -171624.51 -92851.50 3611.85
v -171624.51 -92851.50 3675.80
v -171630.51 -92843.55 3675.80
v -172006.83 -92854.75 3611.33
v -172006.83 -92854.75 3675.80
v -172008.71 -92846.77 3675.80
v -171082.80 -95358.20 3322.07
v -171418.93 -94972.43 3297.17
v -171418.93 -94972.43 3377.60
v -171082.80 -95358.20 3377.60
v -171082.01 -95346.93 3377.60
v -171415.48 -94964.21 3377.60
v -171514.65 -94862.57 3294.47
v -171514.65 -94862.57 3377.60
v -171510.45 -94855.22 3377.60
v -171624.51 -94736.49 3310.25
v -171624.51 -94736.49 3377.60
v -171619.44 -94730.14 3377.60
v -171855.14 -94471.81 3352.60
v -171855.14 -94471.81 3377.60
v -171848.24 -94467.55 3377.60
v -170885.43 -95187.18 3352.60
v -170885.43 -95187.18 3377.60
v -170886.86 -95177.82 3377.60
v -168852.30 -83175.63 4272.50
v -168836.76 -82760.19 4272.50
v -168836.76 -82760.19 4302.70
v -168852.30 -83175.63 4302.70
v -168844.01 -83167.93 4302.70
v -168828.64 -82757.31 4302.70
v -168825.99 -82472.43 4272.50
v -168825.99 -82472.43 4302.70
v -168818.00 -82472.89 4302.70
v -168814.38 -82162.30 4260.09
v -168814.38 -82162.30 4302.70
v -168806.53 -82166.36 4302.70
v -168800.71 -81797.13 4273.61
v -168800.71 -81797.13 4302.70
v -168793.02 -81805.43 4302.70
v -168462.13 -81810.05 4246.00
v -168462.13 -81810.05 4302.70
v -168458.69 -81818.19 4302.70
v -167526.72 -81845.74 4247.43
v -167526.72 -81845.74 4302.70
v -167535.01 -81853.43 4302.70
v -167549.97 -82472.43 4272.50
v -167549.97 -82472.43 4302.70
v -167557.99 -82472.85 4302.70
v -167577.82 -83223.23 4272.50
v -167577.82 -83223.23 4302.70
v -167585.51 -83214.93 4302.70
v -168235.81 -83198.43 4272.50
v -168235.81 -83198.43 4302.70
v -168235.51 -83190.43 4302.70
v -168404.77 -83192.18 4272.50
v -168404.77 -83192.18 4302.70
v -168402.28 -83184.27 4302.70
v -165199.75 -61942.10 3772.40
v -165075.86 -61982.32 3741.19
v -165075.86 -61982.32 3797.40
v -165199.75 -61942.10 3797.40
v -165208.85 -61947.55 3797.40
v -165086.01 -61987.43 3797.40
v -165240.05 -62472.43 3695.61
v -165240.05 -62472.43 3797.40
v -165249.33 -62474.94 3797.40
v -165415.05 -62994.84 3772.40
v -165415.05 -62994.84 3797.40
v -165423.40 -62994.57 3797.40
v -164179.91 -51075.63 4574.72
v -164778.87 -50626.79 4598.67
v -164778.87 -50626.79 4629.80
v -164179.91 -51075.63 4629.80
v -164181.51 -51064.43 4629.80
v -164774.19 -50620.29 4629.80
v -164932.01 -50512.02 4604.80
v -164932.01 -50512.02 4629.80
v -164925.74 -50506.73 4629.80
v -163317.01 -50794.50 4604.80
v -163734.91 -50482.12 4588.08
v -163734.91 -50482.12 4629.80
v -163317.01 -50794.50 4629.80
v -163318.63 -50783.31 4629.80
v -163736.51 -50470.93 4629.80
v -164124.51 -51001.75 4572.50
v -164124.51 -51001.75 4629.80
v -164126.12 -50990.56 4629.80
v -164213.42 -62132.31 3544.70
v -164124.51 -62155.66 3523.18
v -164124.51 -62155.66 3569.70
v -164213.42 -62132.31 3569.70
v -164211.21 -62141.17 3569.70
v -164122.84 -62164.37 3569.70
v -163873.62 -62221.54 3512.64
v -163873.62 -62221.54 3569.70
v -163873.48 -62229.85 3569.70
v -163516.98 -62315.19 3515.67
v -163516.98 -62315.19 3569.70
v -163519.01 -62322.93 3569.70
v -162917.59 -62472.43 3520.78
v -162917.59 -62472.43 3569.70
v -162923.79 -62479.08 3569.70
v -162443.80 -62596.72 3544.70
v -162443.80 -62596.72 3569.70
v -162453.30 -62602.50 3569.70
v -155795.79 -69762.55 3248.30
v -155614.77 -69814.99 3217.24
v -155614.77 -69814.99 3273.30
v -155795.79 -69762.55 3273.30
v -155803.03 -69768.78 3273.30
v -155623.01 -69820.93 3273.30
v -155621.01 -69972.43 3211.94
v -155621.01 -69972.43 3273.30
v -155629.17 -69976.38 3273.30
v -155637.69 -70393.59 3248.30
v -155637.69 -70393.59 3273.30
v -155645.64 -70392.21 3273.30
v -152886.26 -92087.67 3139.30
v -152638.79 -92079.16 3109.94
v -152638.79 -92079.16 3164.30
v -152886.26 -92087.67 3164.30
v -152892.62 -92095.90 3164.30
v -152646.51 -92087.43 3164.30
v -152625.36 -92472.43 3092.60
v -152625.36 -92472.43 3164.30
v -152633.16 -92478.63 3164.30
v -152592.33 -93440.25 3049.93
v -152592.33 -93440.25 3164.30
v -152600.30 -93441.34 3164.30
v -152572.38 -94024.56 3072.50
v -152572.38 -94024.56 3164.30
v -152580.46 -94022.58 3164.30
v -152540.03 -94972.43 3109.12
v -152540.03 -94972.43 3164.30
v -152548.27 -94965.45 3164.30
v -152535.24 -95112.65 3108.93
v -152535.24 -95112.65 3164.30
v -152543.51 -95104.93 3164.30
v -153294.51 -95138.64 3139.30
v -153294.51 -95138.64 3164.30
v -153298.59 -95130.78 3164.30
v -152041.03 -49509.27 3961.40
v -151854.10 -49640.53 3930.70
v -151854.10 -49640.53 3986.40
v -152041.03 -49509.27 3986.40
v -152053.12 -49510.56 3986.40
v -151866.02 -49641.93 3986.40
v -151902.09 -49694.86 3928.02
v -151902.09 -49694.86 3986.40
v -151913.30 -49695.47 3986.40
v -152147.27 -49972.43 3914.32
v -152147.27 -49972.43 3986.40
v -152154.88 -49968.97 3986.40
v -152625.92 -50514.35 3930.94
v -152625.92 -50514.35 3986.40
v -152626.51 -50502.93 3986.40
v -152886.75 -50274.41 3961.40
v -152886.75 -50274.41 3986.40
v -152883.48 -50266.55 3986.40
v -152774.84 -53427.76 3788.10
v -152734.85 -53456.02 3782.64
v -152734.85 -53456.02 3813.10
v -152774.84 -53427.76 3813.10
v -152785.56 -53429.97 3813.10
v -152746.01 -53457.93 3813.10
v -152903.18 -53693.77 3777.09
v -152903.18 -53693.77 3813.10
v -152913.03 -53693.84 3813.10
v -153042.18 -53890.10 3772.50
v -153042.18 -53890.10 3813.10
v -153050.96 -53888.65 3813.10
v -153333.49 -54301.56 3767.69
v -153333.49 -54301.56 3813.10
v -153340.02 -54296.93 3813.10
v -153809.36 -54972.43 3759.89
v -153809.36 -54972.43 3813.10
v -153813.25 -54964.08 3813.10
v -153940.14 -55156.81 3757.75
v -153940.14 -55156.81 3813.10
v -153943.30 -55147.43 3813.10
v -154124.51 -55416.74 3754.73
v -154124.51 -55416.74 3813.10
v -154126.65 -55405.92 3813.10
v -154166.61 -55476.08 3757.41
v -154166.61 -55476.08 3813.10
v -154168.51 -55464.93 3813.10
v -154373.60 -55329.69 3788.10
v -154373.60 -55329.69 3813.10
v -154373.30 -55320.10 3813.10
v -150728.61 -82381.07 3025.50
v -150541.72 -82376.23 2995.41
v -150541.72 -82376.23 3050.50
v -150728.61 -82381.07 3050.50
v -150735.12 -82389.24 3050.50
v -150549.51 -82384.43 3050.50
v -150539.23 -82472.43 2998.85
v -150539.23 -82472.43 3050.50
v -150547.05 -82479.63 3050.50
v -150510.36 -83586.59 2994.24
v -150510.36 -83586.59 3050.50
v -150518.48 -83582.06 3050.50
v -150503.50 -83851.42 2993.14
v -150503.50 -83851.42 3050.50
v -150511.69 -83844.10 3050.50
v -150502.31 -83897.23 2994.83
v -150502.31 -83897.23 3050.50
v -150510.51 -83889.43 3050.50
v -150550.54 -83898.46 3000.66
v -150550.54 -83898.46 3050.50
v -150558.42 -83890.66 3050.50
v -150705.76 -83902.43 3025.50
v -150705.76 -83902.43 3050.50
v -150712.59 -83894.60 3050.50
v -151070.35 -79554.60 2906.00
v -150812.18 -79549.27 2875.02
v -150812.18 -79549.27 2931.00
v -151070.35 -79554.60 2931.00
v -151075.95 -79562.72 2931.00
v -150820.01 -79557.43 2931.00
v -150803.11 -79972.43 2873.93
v -150803.11 -79972.43 2931.00
v -150811.02 -79976.60 2931.00
v -150794.23 -80386.61 2906.00
v -150794.23 -80386.61 2931.00
v -150802.23 -80386.87 2931.00
vt -345.0552 9.0683
vt -344.1057 9.0303
vt -344.1057 9.1308
vt -345.0552 9.1308
vt -345.0461 9.1308
vt -344.1165 9.1308
vt -343.4663 9.0047
vt -343.4663 9.1308
vt -343.4851 9.1308
vt -342.8064 8.9783
vt -342.8064 9.1308
vt -342.8335 9.1308
vt -341.8929 8.9926
vt -341.8929 9.1308
vt -341.9315 9.1308
vt -343.0530 9.0288
vt -343.0530 9.1308
vt -343.0914 9.1308
vt -342.1230 9.0434
vt -342.1230 9.1308
vt -342.1477 9.1308
vt -341.6302 9.0511
vt -341.6302 9.1308
vt -341.6601 9.1308
vt -341.4870 9.0591
vt -341.4870 9.1308
vt -341.5184 9.1308
vt -341.3231 9.0683
vt -341.3231 9.1308
vt -341.3561 9.1308
vt -337.4160 10.7695
vt -338.3301 10.8447
vt -338.3301 10.9072
vt -337.4160 10.9072
vt -337.3977 10.9072
vt -338.2984 10.9072
vt -336.9731 10.8447
vt -335.3802 10.8232
vt -335.3802 10.9072
vt -336.9731 10.9072
vt -336.9599 10.9072
vt -335.3890 10.9072
vt -334.6932 10.8414
vt -334.6932 10.9072
vt -334.7115 10.9072
vt -334.3495 10.8269
vt -334.3495 10.9072
vt -334.3728 10.9072
vt -333.5109 10.7914
vt -333.5109 10.9072
vt -333.5465 10.9072
vt -335.3802 10.7420
vt -335.3802 10.9072
vt -335.3900 10.9072
vt -306.4171 10.5278
vt -307.2527 10.4938
vt -307.2527 10.6645
vt -306.4171 10.6645
vt -306.4165 10.6645
vt -307.2444 10.6645
vt -308.7906 10.4313
vt -308.7906 10.6645
vt -308.7681 10.6645
vt -310.3802 10.5606
vt -310.3802 10.6645
vt -310.3431 10.6645
vt -310.6915 10.5734
vt -310.6915 10.6645
vt -310.6515 10.6645
vt -310.3802 10.5855
vt -310.3802 10.6645
vt -310.3420 10.6645
vt -307.9037 10.5822
vt -307.9037 10.6645
vt -307.8797 10.6645
vt -305.9852 10.5796
vt -305.9852 10.6645
vt -305.9723 10.6645
vt -305.6963 10.6020
vt -305.6963 10.6645
vt -305.6850 10.6645
vt -301.0390 10.6020
vt -301.6378 10.5310
vt -301.6378 10.6645
vt -301.0390 10.6645
vt -301.0693 10.6645
vt -301.6646 10.6645
vt -304.1302 10.5293
vt -304.1302 10.6645
vt -304.1427 10.6645
vt -305.5238 10.5284
vt -305.5238 10.6645
vt -305.5283 10.6645
vt -320.7667 12.2210
vt -321.8372 12.1395
vt -321.8372 12.2835
vt -320.7667 12.2835
vt -320.7653 12.2835
vt -321.8359 12.2835
vt -322.8802 12.1409
vt -322.8802 12.2835
vt -322.8788 12.2835
vt -326.1390 12.1451
vt -326.1390 12.2835
vt -326.1377 12.2835
vt -327.0117 12.1813
vt -327.0117 12.2835
vt -326.9955 12.2835
vt -327.9721 12.2210
vt -327.9721 12.2835
vt -327.9395 12.2835
vt -290.6899 12.1013
vt -291.6302 12.0336
vt -291.6302 12.1638
vt -290.6899 12.1638
vt -290.7120 12.1638
vt -291.6481 12.1638
vt -292.5448 12.0044
vt -292.5448 12.1638
vt -292.5587 12.1638
vt -293.6018 12.0101
vt -293.6018 12.1638
vt -293.6110 12.1638
vt -296.3418 12.0249
vt -296.3418 12.1638
vt -296.3390 12.1638
vt -297.2275 12.1013
vt -297.2275 12.1638
vt -297.2148 12.1638
vt -305.7980 12.3653
vt -304.1302 12.2332
vt -304.1302 12.4278
vt -305.7980 12.4278
vt -305.7822 12.4278
vt -304.1212 12.4278
vt -302.8067 12.2871
vt -302.8067 12.4278
vt -302.8032 12.4278
vt -301.7619 12.2888
vt -301.7619 12.4278
vt -301.7627 12.4278
vt -300.8251 12.3653
vt -300.8251 12.4278
vt -300.8374 12.4278
vt -304.0109 12.3653
vt -304.1302 12.3604
vt -304.1302 12.4278
vt -304.0109 12.4278
vt -304.0285 12.4278
vt -304.1474 12.4278
vt -304.1916 12.3653
vt -304.1916 12.4278
vt -304.2086 12.4278
vt -235.3427 11.8494
vt -235.3802 11.8523
vt -235.3802 11.9885
vt -235.3427 11.9885
vt -235.3827 11.9885
vt -235.4197 11.9885
vt -236.3485 11.9260
vt -236.3485 11.9885
vt -236.3771 11.9885
vt -239.3901 11.9260
vt -239.1682 11.9087
vt -239.1682 11.9885
vt -239.3901 11.9885
vt -239.3892 11.9885
vt -239.1702 11.9885
vt -237.3739 11.8407
vt -237.3739 11.9885
vt -237.3937 11.9885
vt -235.3802 11.8493
vt -235.3802 11.9885
vt -235.4198 11.9885
vt -202.9141 10.3025
vt -202.2265 10.2731
vt -202.2265 10.3650
vt -202.9141 10.3650
vt -202.9487 10.3650
vt -202.2665 10.3650
vt -204.1302 10.2019
vt -204.1302 10.3650
vt -204.1558 10.3650
vt -204.3967 10.2026
vt -204.3967 10.3650
vt -204.4203 10.3650
vt -204.6819 10.2143
vt -204.6819 10.3650
vt -204.7033 10.3650
vt -204.9622 10.2259
vt -204.9622 10.3650
vt -204.9814 10.3650
vt -206.8168 10.3025
vt -206.8168 10.3650
vt -206.8361 10.3650
vt -216.7765 10.8600
vt -217.2569 10.9358
vt -217.2569 10.9983
vt -216.7765 10.9983
vt -216.7777 10.9983
vt -217.2521 10.9983
vt -213.5739 10.9358
vt -213.1552 10.9032
vt -213.1552 10.9983
vt -213.5739 10.9983
vt -213.6013 10.9983
vt -213.1880 10.9983
vt -212.5865 10.8578
vt -212.5865 10.9983
vt -212.6264 10.9983
vt -212.6028 10.8590
vt -212.6028 10.9983
vt -212.6426 10.9983
vt -214.6909 10.8537
vt -214.6909 10.9983
vt -214.7114 10.9983
vt -216.6302 10.8487
vt -216.6302 10.9983
vt -216.6328 10.9983
vt -278.8367 12.0705
vt -278.3748 11.9911
vt -278.3748 12.1330
vt -278.8367 12.1330
vt -278.8529 12.1330
vt -278.3940 12.1330
vt -278.1524 11.9857
vt -278.1524 12.1330
vt -278.1745 12.1330
vt -277.8638 12.0039
vt -277.8638 12.1330
vt -277.8898 12.1330
vt -277.3335 12.0375
vt -277.3335 12.1330
vt -277.3667 12.1330
vt -277.1926 12.0262
vt -277.1926 12.1330
vt -277.2277 12.1330
vt -277.7458 12.0705
vt -277.7458 12.1330
vt -277.7810 12.1330
vt -200.1411 9.1157
vt -200.1982 9.1270
vt -200.1982 9.1895
vt -200.1411 9.1895
vt -200.1415 9.1895
vt -200.1979 9.1895
vt -196.9431 9.1270
vt -196.9229 9.1238
vt -196.9229 9.1895
vt -196.9431 9.1895
vt -196.9777 9.1895
vt -196.9578 9.1895
vt -196.4540 9.0496
vt -196.4540 9.1895
vt -196.4940 9.1895
vt -196.9325 9.0296
vt -196.9325 9.1895
vt -196.9674 9.1895
vt -197.8802 9.0283
vt -197.8802 9.1895
vt -197.9048 9.1895
vt -189.3115 8.3052
vt -191.1163 8.2429
vt -191.1163 8.4440
vt -189.3115 8.4440
vt -189.3377 8.4440
vt -191.1282 8.4440
vt -191.6302 8.2362
vt -191.6302 8.4440
vt -191.6381 8.4440
vt -192.2201 8.2756
vt -192.2201 8.4440
vt -192.2233 8.4440
vt -193.4583 8.3815
vt -193.4583 8.4440
vt -193.4517 8.4440
vt -189.2456 8.3815
vt -189.2456 8.4440
vt -189.2726 8.4440
vt -214.1917 10.6813
vt -215.1914 10.6813
vt -215.1914 10.7568
vt -214.1917 10.7568
vt -214.1902 10.7568
vt -215.1783 10.7568
vt -215.8839 10.6813
vt -215.8839 10.7568
vt -215.8628 10.7568
vt -216.6302 10.6502
vt -216.6302 10.7568
vt -216.6004 10.7568
vt -217.5089 10.6840
vt -217.5089 10.7568
vt -217.4690 10.7568
vt -216.6302 10.6150
vt -216.6302 10.7568
vt -216.6012 10.7568
vt -214.2024 10.6186
vt -214.2024 10.7568
vt -214.2040 10.7568
vt -212.6939 10.6813
vt -212.6939 10.7568
vt -212.7128 10.7568
vt -210.8865 10.6813
vt -210.8865 10.7568
vt -210.9265 10.7568
vt -212.5935 10.6813
vt -212.5935 10.7568
vt -212.6127 10.7568
vt -213.0315 10.6813
vt -213.0315 10.7568
vt -213.0450 10.7568
vt -258.1441 9.4310
vt -257.7338 9.3530
vt -257.7338 9.4935
vt -258.1441 9.4935
vt -258.1533 9.4935
vt -257.7465 9.4935
vt -256.9190 9.2390
vt -256.9190 9.4935
vt -256.9360 9.4935
vt -256.0505 9.4310
vt -256.0505 9.4935
vt -256.0721 9.4935
vt -282.7607 11.4368
vt -285.3802 11.4967
vt -285.3802 11.5745
vt -282.7607 11.5745
vt -282.7927 11.5745
vt -285.3847 11.5745
vt -286.0500 11.5120
vt -286.0500 11.5745
vt -286.0475 11.5745
vt -281.3063 11.5120
vt -283.1320 11.4702
vt -283.1320 11.5745
vt -281.3063 11.5745
vt -281.3383 11.5745
vt -283.1640 11.5745
vt -282.8069 11.4313
vt -282.8069 11.5745
vt -282.8389 11.5745
vt -255.2028 8.8617
vt -254.9221 8.8079
vt -254.9221 8.9242
vt -255.2028 8.9242
vt -255.1751 8.9242
vt -254.8962 8.9242
vt -254.1302 8.7816
vt -254.1302 8.9242
vt -254.1091 8.9242
vt -253.0045 8.7892
vt -253.0045 8.9242
vt -252.9902 8.9242
vt -251.1129 8.8019
vt -251.1129 8.9242
vt -251.1118 8.9242
vt -249.6177 8.8617
vt -249.6177 8.9242
vt -249.6270 8.9242
vt -215.0831 8.1208
vt -214.4994 8.0431
vt -214.4994 8.1833
vt -215.0831 8.1833
vt -215.0856 8.1833
vt -214.5052 8.1833
vt -214.1215 8.0298
vt -214.1215 8.1833
vt -214.1320 8.1833
vt -213.1103 8.1208
vt -213.1103 8.1833
vt -213.1336 8.1833
vt -151.9965 7.8483
vt -151.3991 7.7748
vt -151.3991 7.9108
vt -151.9965 7.9108
vt -151.9918 7.9108
vt -151.3977 7.9108
vt -150.3823 7.7315
vt -150.3823 7.9108
vt -150.3863 7.9108
vt -147.8802 7.6248
vt -147.8802 7.9108
vt -147.8974 7.9108
vt -146.3696 7.6813
vt -146.3696 7.9108
vt -146.3947 7.9108
vt -143.9190 7.7728
vt -143.9190 7.9108
vt -143.9570 7.9108
vt -143.5565 7.7723
vt -143.5565 7.9108
vt -143.5965 7.9108
vt -145.3897 7.8483
vt -145.3897 7.9108
vt -145.4195 7.9108
vt -256.3294 9.9035
vt -255.5339 9.8267
vt -255.5339 9.9660
vt -256.3294 9.9660
vt -256.3564 9.9660
vt -255.5602 9.9660
vt -255.5181 9.8201
vt -255.5181 9.9660
vt -255.5446 9.9660
vt -255.4371 9.7858
vt -255.4371 9.9660
vt -255.4648 9.9660
vt -255.2789 9.8274
vt -255.2789 9.9660
vt -255.3090 9.9660
vt -256.5308 9.9035
vt -256.5308 9.9660
vt -256.5423 9.9660
vt -248.3677 9.4703
vt -248.1971 9.4566
vt -248.1971 9.5328
vt -248.3677 9.5328
vt -248.3890 9.5328
vt -248.2202 9.5328
vt -248.0235 9.4427
vt -248.0235 9.5328
vt -248.0480 9.5328
vt -247.8802 9.4313
vt -247.8802 9.5328
vt -247.9058 9.5328
vt -247.5798 9.4192
vt -247.5798 9.5328
vt -247.6077 9.5328
vt -247.0923 9.3997
vt -247.0923 9.5328
vt -247.1229 9.5328
vt -246.9583 9.3944
vt -246.9583 9.5328
vt -246.9897 9.5328
vt -246.7694 9.3868
vt -246.7694 9.5328
vt -246.8018 9.5328
vt -246.7263 9.3935
vt -246.7263 9.5328
vt -246.7590 9.5328
vt -247.6098 9.4703
vt -247.6098 9.5328
vt -247.6330 9.5328
vt -170.8688 7.5637
vt -170.4137 7.4885
vt -170.4137 7.6262
vt -170.8688 7.6262
vt -170.8647 7.6262
vt -170.4127 7.6262
vt -170.1670 7.4971
vt -170.1670 7.6262
vt -170.1685 7.6262
vt -167.3094 7.4856
vt -167.3094 7.6262
vt -167.3411 7.6262
vt -166.6302 7.4829
vt -166.6302 7.6262
vt -166.6690 7.6262
vt -166.5127 7.4871
vt -166.5127 7.6262
vt -166.5527 7.6262
vt -166.6302 7.5016
vt -166.6302 7.6262
vt -166.6694 7.6262
vt -167.0083 7.5637
vt -167.0083 7.6262
vt -167.0450 7.6262
vt -178.7894 7.2650
vt -178.1573 7.1875
vt -178.1573 7.3275
vt -178.7894 7.3275
vt -178.7831 7.3275
vt -178.1565 7.3275
vt -177.0767 7.1848
vt -177.0767 7.3275
vt -177.0860 7.3275
vt -176.0191 7.2650
vt -176.0191 7.3275
vt -176.0384 7.3275
vn 0.2701 0.9628 0.0000
vn 0.0000 -0.0000 1.0000
vn 0.9627 -0.2707 0.0000
vn -0.2712 -0.9625 0.0000
vn 0.9626 -0.2711 0.0000
vn 0.9624 -0.2716 0.0000
vn -0.8894 0.4572 0.0000
vn 0.4552 0.8904 0.0000
vn 0.8895 -0.4568 0.0000
vn -0.4551 -0.8905 0.0000
vn -0.9999 0.0165 0.0000
vn 0.0168 0.9999 0.0000
vn -0.0168 -0.9999 0.0000
vn -0.0336 -0.9994 0.0000
vn -0.9994 0.0336 0.0000
vn -0.0720 -0.9974 0.0000
vn -0.9974 0.0722 0.0000
vn 0.0201 0.9998 0.0000
vn 0.9998 -0.0199 0.0000
vn -0.0201 -0.9998 0.0000
vn -0.0508 -0.9987 0.0000
vn 0.0510 0.9987 0.0000
vn 0.9987 -0.0507 0.0000
vn 0.9994 -0.0342 0.0000
vn -0.0338 -0.9994 0.0000
vn -0.0332 -0.9994 0.0000
vn -0.9995 -0.0301 0.0000
vn 0.9995 0.0305 0.0000
vn 0.0312 -0.9995 0.0000
vn 0.4772 0.8788 0.0000
vn 0.8784 -0.4780 0.0000
vn -0.4770 -0.8789 0.0000
vn -1.0000 -0.0087 0.0000
vn 1.0000 0.0087 0.0000
vn 0.0085 -1.0000 0.0000
vn -0.7539 -0.6569 0.0000
vn 0.6549 -0.7557 0.0000
vn -0.9993 0.0374 0.0000
vn 0.0381 0.9993 0.0000
vn 0.9993 -0.0371 0.0000
vn -0.0377 -0.9993 0.0000
vn -0.0370 -0.9993 0.0000
vn 0.3088 0.9511 0.0000
vn 0.9482 -0.3176 0.0000
vn -0.5997 -0.8002 0.0000
vn -0.5987 -0.8010 0.0000
vn 0.8001 -0.5999 0.0000
vn 0.2540 0.9672 0.0000
vn 0.2537 0.9673 0.0000
vn 0.2783 0.9605 0.0000
vn 0.9992 -0.0396 0.0000
vn -0.0344 0.9994 0.0000
vn 0.9994 0.0341 0.0000
vn 0.0342 -0.9994 0.0000
vn 0.5747 0.8184 0.0000
vn 0.7495 -0.6620 0.0000
vn -0.6770 -0.7360 0.0000
vn 0.5772 0.8166 0.0000
vn 0.8162 -0.5778 0.0000
vn 0.8156 -0.5786 0.0000
vn -0.5774 -0.8164 0.0000
vn -0.0259 0.9997 0.0000
vn 0.9997 0.0259 0.0000
vn 0.0256 -0.9997 0.0000
vn -0.0206 0.9998 0.0000
vn 0.9998 0.0214 0.0000
f 1/1/1 3/3/1 2/2/1
f 1/1/1 4/4/1 3/3/1
f 5/5/2 6/6/2 3/3/2
f 5/5/2 3/3/2 4/4/2
f 2/2/3 8/8/3 7/7/3
f 2/2/3 3/3/3 8/8/3
f 6/6/2 9/9/2 8/8/2
f 6/6/2 8/8/2 3/3/2
f 7/7/3 11/11/3 10/10/3
f 7/7/3 8/8/3 11/11/3
f 9/9/2 12/12/2 11/11/2
f 9/9/2 11/11/2 8/8/2
f 10/10/3 14/14/3 13/13/3
f 10/10/3 11/11/3 14/14/3
f 12/12/2 15/15/2 14/14/2
f 12/12/2 14/14/2 11/11/2
f 13/13/4 17/17/4 16/16/4
f 13/13/4 14/14/4 17/17/4
f 15/15/2 18/18/2 17/17/2
f 15/15/2 17/17/2 14/14/2
f 16/16/5 20/20/5 19/19/5
f 16/16/5 17/17/5 20/20/5
f 18/18/2 21/21/2 20/20/2
f 18/18/2 20/20/2 17/17/2
f 19/19/6 23/23/6 22/22/6
f 19/19/6 20/20/6 23/23/6
f 21/21/2 24/24/2 23/23/2
f 21/21/2 23/23/2 20/20/2
f 22/22/6 26/26/6 25/25/6
f 22/22/6 23/23/6 26/26/6
f 24/24/2 27/27/2 26/26/2
f 24/24/2 26/26/2 23/23/2
f 25/25/6 29/29/6 28/28/6
f 25/25/6 26/26/6 29/29/6
f 27/27/2 30/30/2 29/29/2
f 27/27/2 29/29/2 26/26/2
f 31/31/7 33/33/7 32/32/7
f 31/31/7 34/34/7 33/33/7
f 35/35/2 36/36/2 33/33/2
f 35/35/2 33/33/2 34/34/2
f 37/37/8 39/39/8 38/38/8
f 37/37/8 40/40/8 39/39/8
f 41/41/2 42/42/2 39/39/2
f 41/41/2 39/39/2 40/40/2
f 38/38/8 44/44/8 43/43/8
f 38/38/8 39/39/8 44/44/8
f 42/42/2 45/45/2 44/44/2
f 42/42/2 44/44/2 39/39/2
f 43/43/9 47/47/9 46/46/9
f 43/43/9 44/44/9 47/47/9
f 45/45/2 48/48/2 47/47/2
f 45/45/2 47/47/2 44/44/2
f 46/46/9 50/50/9 49/49/9
f 46/46/9 47/47/9 50/50/9
f 48/48/2 51/51/2 50/50/2
f 48/48/2 50/50/2 47/47/2
f 49/49/10 53/53/10 52/52/10
f 49/49/10 50/50/10 53/53/10
f 51/51/2 54/54/2 53/53/2
f 51/51/2 53/53/2 50/50/2
f 52/52/10 34/34/10 31/31/10
f 52/52/10 53/53/10 34/34/10
f 54/54/2 35/35/2 34/34/2
f 54/54/2 34/34/2 53/53/2
f 55/55/11 57/57/11 56/56/11
f 55/55/11 58/58/11 57/57/11
f 59/59/2 60/60/2 57/57/2
f 59/59/2 57/57/2 58/58/2
f 56/56/11 62/62/11 61/61/11
f 56/56/11 57/57/11 62/62/11
f 60/60/2 63/63/2 62/62/2
f 60/60/2 62/62/2 57/57/2
f 61/61/11 65/65/11 64/64/11
f 61/61/11 62/62/11 65/65/11
f 63/63/2 66/66/2 65/65/2
f 63/63/2 65/65/2 62/62/2
f 64/64/11 68/68/11 67/67/11
f 64/64/11 65/65/11 68/68/11
f 66/66/2 69/69/2 68/68/2
f 66/66/2 68/68/2 65/65/2
f 67/67/12 71/71/12 70/70/12
f 67/67/12 68/68/12 71/71/12
f 69/69/2 72/72/2 71/71/2
f 69/69/2 71/71/2 68/68/2
f 70/70/12 74/74/12 73/73/12
f 70/70/12 71/71/12 74/74/12
f 72/72/2 75/75/2 74/74/2
f 72/72/2 74/74/2 71/71/2
f 73/73/12 77/77/12 76/76/12
f 73/73/12 74/74/12 77/77/12
f 75/75/2 78/78/2 77/77/2
f 75/75/2 77/77/2 74/74/2
f 76/76/12 80/80/12 79/79/12
f 76/76/12 77/77/12 80/80/12
f 78/78/2 81/81/2 80/80/2
f 78/78/2 80/80/2 77/77/2
f 82/82/13 84/84/13 83/83/13
f 82/82/13 85/85/13 84/84/13
f 86/86/2 87/87/2 84/84/2
f 86/86/2 84/84/2 85/85/2
f 83/83/13 89/89/13 88/88/13
f 83/83/13 84/84/13 89/89/13
f 87/87/2 90/90/2 89/89/2
f 87/87/2 89/89/2 84/84/2
f 88/88/13 92/92/13 91/91/13
f 88/88/13 89/89/13 92/92/13
f 90/90/2 93/93/2 92/92/2
f 90/90/2 92/92/2 89/89/2
f 91/91/13 58/58/13 55/55/13
f 91/91/13 92/92/13 58/58/13
f 93/93/2 59/59/2 58/58/2
f 93/93/2 58/58/2 92/92/2
f 94/94/14 96/96/14 95/95/14
f 94/94/14 97/97/14 96/96/14
f 98/98/2 99/99/2 96/96/2
f 98/98/2 96/96/2 97/97/2
f 95/95/14 101/101/14 100/100/14
f 95/95/14 96/96/14 101/101/14
f 99/99/2 102/102/2 101/101/2
f 99/99/2 101/101/2 96/96/2
f 100/100/14 104/104/14 103/103/14
f 100/100/14 101/101/14 104/104/14
f 102/102/2 105/105/2 104/104/2
f 102/102/2 104/104/2 101/101/2
f 103/103/15 107/107/15 106/106/15
f 103/103/15 104/104/15 107/107/15
f 105/105/2 108/108/2 107/107/2
f 105/105/2 107/107/2 104/104/2
f 106/106/15 110/110/15 109/109/15
f 106/106/15 107/107/15 110/110/15
f 108/108/2 111/111/2 110/110/2
f 108/108/2 110/110/2 107/107/2
f 112/112/16 114/114/16 113/113/16
f 112/112/16 115/115/16 114/114/16
f 116/116/2 117/117/2 114/114/2
f 116/116/2 114/114/2 115/115/2
f 113/113/16 119/119/16 118/118/16
f 113/113/16 114/114/16 119/119/16
f 117/117/2 120/120/2 119/119/2
f 117/117/2 119/119/2 114/114/2
f 118/118/16 122/122/16 121/121/16
f 118/118/16 119/119/16 122/122/16
f 120/120/2 123/123/2 122/122/2
f 120/120/2 122/122/2 119/119/2
f 121/121/16 125/125/16 124/124/16
f 121/121/16 122/122/16 125/125/16
f 123/123/2 126/126/2 125/125/2
f 123/123/2 125/125/2 122/122/2
f 124/124/17 128/128/17 127/127/17
f 124/124/17 125/125/17 128/128/17
f 126/126/2 129/129/2 128/128/2
f 126/126/2 128/128/2 125/125/2
f 130/130/18 132/132/18 131/131/18
f 130/130/18 133/133/18 132/132/18
f 134/134/2 135/135/2 132/132/2
f 134/134/2 132/132/2 133/133/2
f 131/131/18 137/137/18 136/136/18
f 131/131/18 132/132/18 137/137/18
f 135/135/2 138/138/2 137/137/2
f 135/135/2 137/137/2 132/132/2
f 136/136/18 140/140/18 139/139/18
f 136/136/18 137/137/18 140/140/18
f 138/138/2 141/141/2 140/140/2
f 138/138/2 140/140/2 137/137/2
f 139/139/19 143/143/19 142/142/19
f 139/139/19 140/140/19 143/143/19
f 141/141/2 144/144/2 143/143/2
f 141/141/2 143/143/2 140/140/2
f 145/145/20 147/147/20 146/146/20
f 145/145/20 148/148/20 147/147/20
f 149/149/2 150/150/2 147/147/2
f 149/149/2 147/147/2 148/148/2
f 146/146/20 152/152/20 151/151/20
f 146/146/20 147/147/20 152/152/20
f 150/150/2 153/153/2 152/152/2
f 150/150/2 152/152/2 147/147/2
f 154/154/21 156/156/21 155/155/21
f 154/154/21 157/157/21 156/156/21
f 158/158/2 159/159/2 156/156/2
f 158/158/2 156/156/2 157/157/2
f 155/155/21 161/161/21 160/160/21
f 155/155/21 156/156/21 161/161/21
f 159/159/2 162/162/2 161/161/2
f 159/159/2 161/161/2 156/156/2
f 163/163/22 165/165/22 164/164/22
f 163/163/22 166/166/22 165/165/22
f 167/167/2 168/168/2 165/165/2
f 167/167/2 165/165/2 166/166/2
f 164/164/23 170/170/23 169/169/23
f 164/164/23 165/165/23 170/170/23
f 168/168/2 171/171/2 170/170/2
f 168/168/2 170/170/2 165/165/2
f 169/169/23 173/173/23 172/172/23
f 169/169/23 170/170/23 173/173/23
f 171/171/2 174/174/2 173/173/2
f 171/171/2 173/173/2 170/170/2
f 172/172/23 157/157/23 154/154/23
f 172/172/23 173/173/23 157/157/23
f 174/174/2 158/158/2 157/157/2
f 174/174/2 157/157/2 173/173/2
f 175/175/24 177/177/24 176/176/24
f 175/175/24 178/178/24 177/177/24
f 179/179/2 180/180/2 177/177/2
f 179/179/2 177/177/2 178/178/2
f 176/176/25 182/182/25 181/181/25
f 176/176/25 177/177/25 182/182/25
f 180/180/2 183/183/2 182/182/2
f 180/180/2 182/182/2 177/177/2
f 181/181/25 185/185/25 184/184/25
f 181/181/25 182/182/25 185/185/25
f 183/183/2 186/186/2 185/185/2
f 183/183/2 185/185/2 182/182/2
f 184/184/25 188/188/25 187/187/25
f 184/184/25 185/185/25 188/188/25
f 186/186/2 189/189/2 188/188/2
f 186/186/2 188/188/2 185/185/2
f 187/187/25 191/191/25 190/190/25
f 187/187/25 188/188/25 191/191/25
f 189/189/2 192/192/2 191/191/2
f 189/189/2 191/191/2 188/188/2
f 190/190/26 194/194/26 193/193/26
f 190/190/26 191/191/26 194/194/26
f 192/192/2 195/195/2 194/194/2
f 192/192/2 194/194/2 191/191/2
f 196/196/27 198/198/27 197/197/27
f 196/196/27 199/199/27 198/198/27
f 200/200/2 201/201/2 198/198/2
f 200/200/2 198/198/2 199/199/2
f 202/202/28 204/204/28 203/203/28
f 202/202/28 205/205/28 204/204/28
f 206/206/2 207/207/2 204/204/2
f 206/206/2 204/204/2 205/205/2
f 203/203/28 209/209/28 208/208/28
f 203/203/28 204/204/28 209/209/28
f 207/207/2 210/210/2 209/209/2
f 207/207/2 209/209/2 204/204/2
f 208/208/29 212/212/29 211/211/29
f 208/208/29 209/209/29 212/212/29
f 210/210/2 213/213/2 212/212/2
f 210/210/2 212/212/2 209/209/2
f 211/211/29 215/215/29 214/214/29
f 211/211/29 212/212/29 215/215/29
f 213/213/2 216/216/2 215/215/2
f 213/213/2 215/215/2 212/212/2
f 214/214/29 218/218/29 217/217/29
f 214/214/29 215/215/29 218/218/29
f 216/216/2 219/219/2 218/218/2
f 216/216/2 218/218/2 215/215/2
f 217/217/29 199/199/29 196/196/29
f 217/217/29 218/218/29 199/199/29
f 219/219/2 200/200/2 199/199/2
f 219/219/2 199/199/2 218/218/2
f 220/220/30 222/222/30 221/221/30
f 220/220/30 223/223/30 222/222/30
f 224/224/2 225/225/2 222/222/2
f 224/224/2 222/222/2 223/223/2
f 221/221/31 227/227/31 226/226/31
f 221/221/31 222/222/31 227/227/31
f 225/225/2 228/228/2 227/227/2
f 225/225/2 227/227/2 222/222/2
f 226/226/31 230/230/31 229/229/31
f 226/226/31 227/227/31 230/230/31
f 228/228/2 231/231/2 230/230/2
f 228/228/2 230/230/2 227/227/2
f 229/229/31 233/233/31 232/232/31
f 229/229/31 230/230/31 233/233/31
f 231/231/2 234/234/2 233/233/2
f 231/231/2 233/233/2 230/230/2
f 232/232/31 236/236/31 235/235/31
f 232/232/31 233/233/31 236/236/31
f 234/234/2 237/237/2 236/236/2
f 234/234/2 236/236/2 233/233/2
f 235/235/32 239/239/32 238/238/32
f 235/235/32 236/236/32 239/239/32
f 237/237/2 240/240/2 239/239/2
f 237/237/2 239/239/2 236/236/2
f 241/241/33 243/243/33 242/242/33
f 241/241/33 244/244/33 243/243/33
f 245/245/2 246/246/2 243/243/2
f 245/245/2 243/243/2 244/244/2
f 247/247/34 249/249/34 248/248/34
f 247/247/34 250/250/34 249/249/34
f 251/251/2 252/252/2 249/249/2
f 251/251/2 249/249/2 250/250/2
f 248/248/34 254/254/34 253/253/34
f 248/248/34 249/249/34 254/254/34
f 252/252/2 255/255/2 254/254/2
f 252/252/2 254/254/2 249/249/2
f 253/253/35 257/257/35 256/256/35
f 253/253/35 254/254/35 257/257/35
f 255/255/2 258/258/2 257/257/2
f 255/255/2 257/257/2 254/254/2
f 256/256/35 260/260/35 259/259/35
f 256/256/35 257/257/35 260/260/35
f 258/258/2 261/261/2 260/260/2
f 258/258/2 260/260/2 257/257/2
f 259/259/35 244/244/35 241/241/35
f 259/259/35 260/260/35 244/244/35
f 261/261/2 245/245/2 244/244/2
f 261/261/2 244/244/2 260/260/2
f 262/262/36 264/264/36 263/263/36
f 262/262/36 265/265/36 264/264/36
f 266/266/2 267/267/2 264/264/2
f 266/266/2 264/264/2 265/265/2
f 263/263/36 269/269/36 268/268/36
f 263/263/36 264/264/36 269/269/36
f 267/267/2 270/270/2 269/269/2
f 267/267/2 269/269/2 264/264/2
f 268/268/36 272/272/36 271/271/36
f 268/268/36 269/269/36 272/272/36
f 270/270/2 273/273/2 272/272/2
f 270/270/2 272/272/2 269/269/2
f 271/271/36 275/275/36 274/274/36
f 271/271/36 272/272/36 275/275/36
f 273/273/2 276/276/2 275/275/2
f 273/273/2 275/275/2 272/272/2
f 277/277/37 265/265/37 262/262/37
f 277/277/37 278/278/37 265/265/37
f 279/279/2 266/266/2 265/265/2
f 279/279/2 265/265/2 278/278/2
f 280/280/38 282/282/38 281/281/38
f 280/280/38 283/283/38 282/282/38
f 284/284/2 285/285/2 282/282/2
f 284/284/2 282/282/2 283/283/2
f 281/281/38 287/287/38 286/286/38
f 281/281/38 282/282/38 287/287/38
f 285/285/2 288/288/2 287/287/2
f 285/285/2 287/287/2 282/282/2
f 286/286/38 290/290/38 289/289/38
f 286/286/38 287/287/38 290/290/38
f 288/288/2 291/291/2 290/290/2
f 288/288/2 290/290/2 287/287/2
f 289/289/38 293/293/38 292/292/38
f 289/289/38 290/290/38 293/293/38
f 291/291/2 294/294/2 293/293/2
f 291/291/2 293/293/2 290/290/2
f 292/292/39 296/296/39 295/295/39
f 292/292/39 293/293/39 296/296/39
f 294/294/2 297/297/2 296/296/2
f 294/294/2 296/296/2 293/293/2
f 295/295/39 299/299/39 298/298/39
f 295/295/39 296/296/39 299/299/39
f 297/297/2 300/300/2 299/299/2
f 297/297/2 299/299/2 296/296/2
f 298/298/40 302/302/40 301/301/40
f 298/298/40 299/299/40 302/302/40
f 300/300/2 303/303/2 302/302/2
f 300/300/2 302/302/2 299/299/2
f 301/301/40 305/305/40 304/304/40
f 301/301/40 302/302/40 305/305/40
f 303/303/2 306/306/2 305/305/2
f 303/303/2 305/305/2 302/302/2
f 304/304/41 308/308/41 307/307/41
f 304/304/41 305/305/41 308/308/41
f 306/306/2 309/309/2 308/308/2
f 306/306/2 308/308/2 305/305/2
f 307/307/42 311/311/42 310/310/42
f 307/307/42 308/308/42 311/311/42
f 309/309/2 312/312/2 311/311/2
f 309/309/2 311/311/2 308/308/2
f 310/310/42 283/283/42 280/280/42
f 310/310/42 311/311/42 283/283/42
f 312/312/2 284/284/2 283/283/2
f 312/312/2 283/283/2 311/311/2
f 313/313/43 315/315/43 314/314/43
f 313/313/43 316/316/43 315/315/43
f 317/317/2 318/318/2 315/315/2
f 317/317/2 315/315/2 316/316/2
f 314/314/44 320/320/44 319/319/44
f 314/314/44 315/315/44 320/320/44
f 318/318/2 321/321/2 320/320/2
f 318/318/2 320/320/2 315/315/2
f 319/319/44 323/323/44 322/322/44
f 319/319/44 320/320/44 323/323/44
f 321/321/2 324/324/2 323/323/2
f 321/321/2 323/323/2 320/320/2
f 325/325/45 327/327/45 326/326/45
f 325/325/45 328/328/45 327/327/45
f 329/329/2 330/330/2 327/327/2
f 329/329/2 327/327/2 328/328/2
f 326/326/45 332/332/45 331/331/45
f 326/326/45 327/327/45 332/332/45
f 330/330/2 333/333/2 332/332/2
f 330/330/2 332/332/2 327/327/2
f 334/334/46 336/336/46 335/335/46
f 334/334/46 337/337/46 336/336/46
f 338/338/2 339/339/2 336/336/2
f 338/338/2 336/336/2 337/337/2
f 335/335/47 341/341/47 340/340/47
f 335/335/47 336/336/47 341/341/47
f 339/339/2 342/342/2 341/341/2
f 339/339/2 341/341/2 336/336/2
f 340/340/47 328/328/47 325/325/47
f 340/340/47 341/341/47 328/328/47
f 342/342/2 329/329/2 328/328/2
f 342/342/2 328/328/2 341/341/2
f 343/343/48 345/345/48 344/344/48
f 343/343/48 346/346/48 345/345/48
f 347/347/2 348/348/2 345/345/2
f 347/347/2 345/345/2 346/346/2
f 344/344/48 350/350/48 349/349/48
f 344/344/48 345/345/48 350/350/48
f 348/348/2 351/351/2 350/350/2
f 348/348/2 350/350/2 345/345/2
f 349/349/48 353/353/48 352/352/48
f 349/349/48 350/350/48 353/353/48
f 351/351/2 354/354/2 353/353/2
f 351/351/2 353/353/2 350/350/2
f 352/352/49 356/356/49 355/355/49
f 352/352/49 353/353/49 356/356/49
f 354/354/2 357/357/2 356/356/2
f 354/354/2 356/356/2 353/353/2
f 355/355/49 359/359/49 358/358/49
f 355/355/49 356/356/49 359/359/49
f 357/357/2 360/360/2 359/359/2
f 357/357/2 359/359/2 356/356/2
f 361/361/50 363/363/50 362/362/50
f 361/361/50 364/364/50 363/363/50
f 365/365/2 366/366/2 363/363/2
f 365/365/2 363/363/2 364/364/2
f 362/362/51 368/368/51 367/367/51
f 362/362/51 363/363/51 368/368/51
f 366/366/2 369/369/2 368/368/2
f 366/366/2 368/368/2 363/363/2
f 367/367/51 371/371/51 370/370/51
f 367/367/51 368/368/51 371/371/51
f 369/369/2 372/372/2 371/371/2
f 369/369/2 371/371/2 368/368/2
f 373/373/52 375/375/52 374/374/52
f 373/373/52 376/376/52 375/375/52
f 377/377/2 378/378/2 375/375/2
f 377/377/2 375/375/2 376/376/2
f 374/374/53 380/380/53 379/379/53
f 374/374/53 375/375/53 380/380/53
f 378/378/2 381/381/2 380/380/2
f 378/378/2 380/380/2 375/375/2
f 379/379/53 383/383/53 382/382/53
f 379/379/53 380/380/53 383/383/53
f 381/381/2 384/384/2 383/383/2
f 381/381/2 383/383/2 380/380/2
f 382/382/53 386/386/53 385/385/53
f 382/382/53 383/383/53 386/386/53
f 384/384/2 387/387/2 386/386/2
f 384/384/2 386/386/2 383/383/2
f 385/385/53 389/389/53 388/388/53
f 385/385/53 386/386/53 389/389/53
f 387/387/2 390/390/2 389/389/2
f 387/387/2 389/389/2 386/386/2
f 388/388/53 392/392/53 391/391/53
f 388/388/53 389/389/53 392/392/53
f 390/390/2 393/393/2 392/392/2
f 390/390/2 392/392/2 389/389/2
f 391/391/54 395/395/54 394/394/54
f 391/391/54 392/392/54 395/395/54
f 393/393/2 396/396/2 395/395/2
f 393/393/2 395/395/2 392/392/2
f 397/397/55 399/399/55 398/398/55
f 397/397/55 400/400/55 399/399/55
f 401/401/2 402/402/2 399/399/2
f 401/401/2 399/399/2 400/400/2
f 398/398/56 404/404/56 403/403/56
f 398/398/56 399/399/56 404/404/56
f 402/402/2 405/405/2 404/404/2
f 402/402/2 404/404/2 399/399/2
f 403/403/56 407/407/56 406/406/56
f 403/403/56 404/404/56 407/407/56
f 405/405/2 408/408/2 407/407/2
f 405/405/2 407/407/2 404/404/2
f 406/406/56 410/410/56 409/409/56
f 406/406/56 407/407/56 410/410/56
f 408/408/2 411/411/2 410/410/2
f 408/408/2 410/410/2 407/407/2
f 409/409/57 413/413/57 412/412/57
f 409/409/57 410/410/57 413/413/57
f 411/411/2 414/414/2 413/413/2
f 411/411/2 413/413/2 410/410/2
f 415/415/58 417/417/58 416/416/58
f 415/415/58 418/418/58 417/417/58
f 419/419/2 420/420/2 417/417/2
f 419/419/2 417/417/2 418/418/2
f 416/416/59 422/422/59 421/421/59
f 416/416/59 417/417/59 422/422/59
f 420/420/2 423/423/2 422/422/2
f 420/420/2 422/422/2 417/417/2
f 421/421/59 425/425/59 424/424/59
f 421/421/59 422/422/59 425/425/59
f 423/423/2 426/426/2 425/425/2
f 423/423/2 425/425/2 422/422/2
f 424/424/59 428/428/59 427/427/59
f 424/424/59 425/425/59 428/428/59
f 426/426/2 429/429/2 428/428/2
f 426/426/2 428/428/2 425/425/2
f 427/427/60 431/431/60 430/430/60
f 427/427/60 428/428/60 431/431/60
f 429/429/2 432/432/2 431/431/2
f 429/429/2 431/431/2 428/428/2
f 430/430/60 434/434/60 433/433/60
f 430/430/60 431/431/60 434/434/60
f 432/432/2 435/435/2 434/434/2
f 432/432/2 434/434/2 431/431/2
f 433/433/60 437/437/60 436/436/60
f 433/433/60 434/434/60 437/437/60
f 435/435/2 438/438/2 437/437/2
f 435/435/2 437/437/2 434/434/2
f 436/436/60 440/440/60 439/439/60
f 436/436/60 437/437/60 440/440/60
f 438/438/2 441/441/2 440/440/2
f 438/438/2 440/440/2 437/437/2
f 439/439/61 443/443/61 442/442/61
f 439/439/61 440/440/61 443/443/61
f 441/441/2 444/444/2 443/443/2
f 441/441/2 443/443/2 440/440/2
f 445/445/62 447/447/62 446/446/62
f 445/445/62 448/448/62 447/447/62
f 449/449/2 450/450/2 447/447/2
f 449/449/2 447/447/2 448/448/2
f 446/446/63 452/452/63 451/451/63
f 446/446/63 447/447/63 452/452/63
f 450/450/2 453/453/2 452/452/2
f 450/450/2 452/452/2 447/447/2
f 451/451/63 455/455/63 454/454/63
f 451/451/63 452/452/63 455/455/63
f 453/453/2 456/456/2 455/455/2
f 453/453/2 455/455/2 452/452/2
f 454/454/63 458/458/63 457/457/63
f 454/454/63 455/455/63 458/458/63
f 456/456/2 459/459/2 458/458/2
f 456/456/2 458/458/2 455/455/2
f 457/457/63 461/461/63 460/460/63
f 457/457/63 458/458/63 461/461/63
f 459/459/2 462/462/2 461/461/2
f 459/459/2 461/461/2 458/458/2
f 460/460/64 464/464/64 463/463/64
f 460/460/64 461/461/64 464/464/64
f 462/462/2 465/465/2 464/464/2
f 462/462/2 464/464/2 461/461/2
f 463/463/64 467/467/64 466/466/64
f 463/463/64 464/464/64 467/467/64
f 465/465/2 468/468/2 467/467/2
f 465/465/2 467/467/2 464/464/2
f 469/469/65 471/471/65 470/470/65
f 469/469/65 472/472/65 471/471/65
f 473/473/2 474/474/2 471/471/2
f 473/473/2 471/471/2 472/472/2
f 470/470/66 476/476/66 475/475/66
f 470/470/66 471/471/66 476/476/66
f 474/474/2 477/477/2 476/476/2
f 474/474/2 476/476/2 471/471/2
f 475/475/66 479/479/66 478/478/66
f 475/475/66 476/476/66 479/479/66
f 477/477/2 480/480/2 479/479/2
f 477/477/2 479/479/2 476/476/2
