# Unreal legacy OBJ adapter: canonical vertices are UE cm; this file is written with Y reflected and triangle winding reversed. One object, no g groups, so the importer creates exactly one material slot.
# OldCityFoundationV2 foundations (plinth + stepped footing); generator 463404ba754c804f514fe655944ece4eb51a92e1273fec326ad5c2ebfbb18f24
# AUTHORED detail in the style of Old City stone foundations, not survey
o SM_OldCityFoundationV2_Kept_N002_N004
s off
v -92630.29 193063.30 3053.70
v -92524.24 193352.29 3069.50
v -92524.24 193352.29 3094.50
v -92630.29 193063.30 3094.50
v -92620.01 193068.07 3094.50
v -92516.67 193349.70 3094.50
v -91083.73 191371.01 3069.50
v -91624.51 191568.03 3034.12
v -91624.51 191568.03 3094.50
v -91083.73 191371.01 3094.50
v -91083.93 191379.59 3094.50
v -91615.90 191573.41 3094.50
v -91726.79 191605.29 3039.70
v -91726.79 191605.29 3094.50
v -91716.51 191610.06 3094.50
v -91624.51 191883.53 3046.74
v -91624.51 191883.53 3094.50
v -91614.24 191888.30 3094.50
v -91531.79 192135.80 3064.25
v -91531.79 192135.80 3094.50
v -91521.51 192140.57 3094.50
v -91624.51 192169.65 3058.18
v -91624.51 192169.65 3094.50
v -91614.24 192174.41 3094.50
v -91831.79 192245.30 3069.50
v -91831.79 192245.30 3094.50
v -91821.51 192250.06 3094.50
v -91941.68 192285.40 3069.50
v -92174.29 192370.30 3056.80
v -92174.29 192370.30 3094.50
v -91941.68 192285.40 3094.50
v -91931.41 192290.17 3094.50
v -92164.01 192375.07 3094.50
v -92116.56 192527.57 3052.82
v -92116.56 192527.57 3094.50
v -92106.29 192532.34 3094.50
v -92004.58 192832.63 3069.50
v -92004.58 192832.63 3094.50
v -91994.31 192837.40 3094.50
v -92008.44 192836.50 3069.50
v -92008.44 192836.50 3094.50
v -91998.17 192841.27 3094.50
v -94553.62 174855.60 1834.70
v -94601.67 174721.37 1816.67
v -94601.67 174721.37 1859.70
v -94553.62 174855.60 1859.70
v -94558.46 174865.81 1859.70
v -94606.51 174731.57 1859.70
v -95218.74 174940.21 1818.25
v -95218.74 174940.21 1859.70
v -95208.52 174945.07 1859.70
v -95187.64 175027.57 1829.98
v -95187.64 175027.57 1859.70
v -95177.41 175032.43 1859.70
v -95069.51 175359.32 1834.70
v -95069.51 175359.32 1859.70
v -95059.29 175364.19 1859.70
v -95069.51 175366.50 1834.70
v -95628.65 175563.86 1812.33
v -95628.65 175563.86 1859.70
v -95069.51 175366.50 1859.70
v -95059.35 175371.40 1859.70
v -95633.52 175574.06 1859.70
v -95792.15 175103.35 1805.79
v -95792.15 175103.35 1859.70
v -95797.01 175113.57 1859.70
v -96350.57 175301.51 1783.46
v -96350.57 175301.51 1859.70
v -96346.14 175308.43 1859.70
v -96624.51 175398.72 1802.19
v -96624.51 175398.72 1859.70
v -96615.53 175404.02 1859.70
v -96697.72 175424.70 1804.27
v -96697.72 175424.70 1859.70
v -96687.51 175429.57 1859.70
v -96644.72 175574.70 1816.27
v -96644.72 175574.70 1859.70
v -96634.51 175579.57 1859.70
v -97182.24 175765.72 1831.55
v -97182.24 175765.72 1859.70
v -97172.01 175770.57 1859.70
v -97168.22 175805.07 1834.70
v -97168.22 175805.07 1859.70
v -97158.00 175809.92 1859.70
v -95565.10 176334.77 1834.70
v -95644.80 176109.94 1819.90
v -95644.80 176109.94 1859.70
v -95565.10 176334.77 1859.70
v -95575.31 176329.91 1859.70
v -95655.01 176105.07 1859.70
v -95568.97 176083.11 1814.72
v -95568.97 176083.11 1859.70
v -95577.57 176077.67 1859.70
v -95069.51 175906.40 1834.70
v -95069.51 175906.40 1859.70
v -95067.50 175897.21 1859.70
v -83032.97 187604.44 2275.57
v -83209.50 187527.57 2272.50
v -83209.50 187527.57 2303.70
v -83032.97 187604.44 2303.70
v -83043.51 187608.57 2303.70
v -83219.02 187532.15 2303.70
v -83846.94 187249.99 2250.29
v -83846.94 187249.99 2303.70
v -83852.74 187256.20 2303.70
v -84124.51 187129.12 2240.62
v -84124.51 187129.12 2303.70
v -84128.69 187136.03 2303.70
v -84830.29 186821.79 2244.27
v -84830.29 186821.79 2303.70
v -84830.35 186830.49 2303.70
v -85549.65 186508.55 2247.98
v -85549.65 186508.55 2303.70
v -85545.51 186519.07 2303.70
v -85687.16 186823.75 2278.70
v -85687.16 186823.75 2303.70
v -85681.42 186830.61 2303.70
v -83067.19 187682.57 2278.70
v -83067.19 187682.57 2303.70
v -83077.13 187685.34 2303.70
v -83670.05 173684.28 1440.20
v -84124.51 173686.97 1404.38
v -84124.51 173686.97 1465.20
v -83670.05 173684.28 1465.20
v -83669.32 173692.28 1465.20
v -84117.28 173694.93 1465.20
v -84235.34 173687.62 1408.94
v -84235.34 173687.62 1465.20
v -84226.51 173695.57 1465.20
v -84219.58 173847.05 1440.20
v -84219.58 173847.05 1465.20
v -84211.04 173852.14 1465.20
v -80561.57 155853.46 -79.50
v -80285.59 155856.14 -101.47
v -80285.59 155856.14 -54.50
v -80561.57 155853.46 -54.50
v -80566.75 155845.41 -54.50
v -80293.51 155848.06 -54.50
v -80277.38 155027.57 -135.27
v -80277.38 155027.57 -54.50
v -80285.39 155028.46 -54.50
v -80270.94 154377.64 -109.79
v -80270.94 154377.64 -54.50
v -80279.01 154385.56 -54.50
v -80647.84 154374.22 -79.50
v -80647.84 154374.22 -54.50
v -80652.18 154382.18 -54.50
v -78366.32 154224.38 -225.70
v -78318.97 154222.02 -227.50
v -78318.97 154222.02 -200.70
v -78366.32 154224.38 -200.70
v -78359.74 154216.04 -200.70
v -78312.59 154213.69 -200.70
v -77472.17 154179.91 -259.69
v -77472.17 154179.91 -200.70
v -77469.47 154171.77 -200.70
v -76630.06 154138.03 -256.34
v -76630.06 154138.03 -200.70
v -76631.01 154130.07 -200.70
v -76624.51 154136.97 -256.25
v -76624.51 154136.97 -200.70
v -76625.51 154129.01 -200.70
v -76072.04 154031.31 -225.70
v -76072.04 154031.31 -200.70
v -76077.01 154024.11 -200.70
v -75365.90 185369.05 2263.82
v -75275.76 185597.15 2294.80
v -75275.76 185597.15 2319.80
v -75365.90 185369.05 2319.80
v -75355.51 185373.56 2319.80
v -75267.55 185596.15 2319.80
v -73846.27 185166.86 2294.80
v -73901.41 185027.57 2263.58
v -73901.41 185027.57 2319.80
v -73846.27 185166.86 2319.80
v -73854.05 185168.96 2319.80
v -73907.85 185033.04 2319.80
v -73964.68 184867.73 2266.11
v -73964.68 184867.73 2319.80
v -73969.59 184877.07 2319.80
v -73981.51 184825.20 2266.78
v -73981.51 184825.20 2319.80
v -73986.01 184835.56 2319.80
v -74124.51 184881.38 2272.50
v -74124.51 184881.38 2319.80
v -74127.48 184891.14 2319.80
v -74229.47 184922.61 2268.30
v -74229.47 184922.61 2319.80
v -74231.31 184931.92 2319.80
v -74496.65 185027.57 2257.61
v -74496.65 185027.57 2319.80
v -74495.61 185035.75 2319.80
v -72699.51 150435.31 15.50
v -71945.13 150348.19 -14.68
v -71945.13 150348.19 40.50
v -72699.51 150435.31 40.50
v -72700.54 150427.38 40.50
v -71950.36 150340.74 40.50
v -71624.51 150311.16 -27.50
v -71624.51 150311.16 40.50
v -71631.52 150303.91 40.50
v -71370.29 150281.79 -17.33
v -71370.29 150281.79 40.50
v -71378.71 150274.71 40.50
v -71290.65 150272.60 -14.15
v -71290.65 150272.60 40.50
v -71299.51 150265.57 40.50
v -71319.03 150027.57 -15.28
v -71319.03 150027.57 40.50
v -71327.68 150022.45 40.50
v -71349.93 149760.76 15.50
v -71349.93 149760.76 40.50
v -71358.34 149757.72 40.50
v -71037.09 149756.71 28.50
v -71009.07 150027.57 -2.88
v -71009.07 150027.57 53.50
v -71037.09 149756.71 53.50
v -71029.66 149750.84 53.50
v -71001.79 150020.21 53.50
v -70982.15 150287.85 -1.81
v -70982.15 150287.85 53.50
v -70975.01 150279.07 53.50
v -70224.51 150209.71 28.50
v -70224.51 150209.71 53.50
v -70223.11 150201.52 53.50
v -63999.92 177515.89 1882.00
v -64041.56 177444.61 1875.82
v -64041.56 177444.61 1907.00
v -63999.92 177515.89 1907.00
v -64004.96 177523.12 1907.00
v -64046.21 177452.50 1907.00
v -64124.51 177302.59 1863.50
v -64124.51 177302.59 1907.00
v -64128.40 177311.80 1907.00
v -64233.14 177116.63 1851.72
v -64233.14 177116.63 1907.00
v -64236.01 177127.57 1907.00
v -64424.19 177227.90 1848.53
v -64424.19 177227.90 1907.00
v -64425.47 177237.90 1907.00
v -64938.76 177527.57 1839.93
v -64938.76 177527.57 1907.00
v -64935.73 177535.06 1907.00
v -65729.85 177988.28 1882.00
v -65729.85 177988.28 1907.00
v -65720.21 177991.92 1907.00
v -66158.98 167899.53 939.50
v -66214.18 167907.65 935.73
v -66214.18 167907.65 964.50
v -66158.98 167899.53 964.50
v -66158.85 167907.60 964.50
v -66213.01 167915.57 964.50
v -66240.57 167911.51 933.93
v -66240.57 167911.51 964.50
v -66239.00 167919.37 964.50
v -66624.51 167967.71 907.71
v -66624.51 167967.71 964.50
v -66617.07 167974.71 964.50
v -66731.09 167983.31 908.96
v -66731.09 167983.31 964.50
v -66722.01 167990.07 964.50
v -66675.13 168365.07 939.50
v -66675.13 168365.07 964.50
v -66666.40 168369.41 964.50
v -58874.13 174934.29 2188.80
v -58966.54 174869.59 2178.82
v -58966.54 174869.59 2213.80
v -58874.13 174934.29 2213.80
v -58877.62 174941.61 2213.80
v -58968.26 174878.16 2213.80
v -59124.51 174759.00 2161.76
v -59124.51 174759.00 2213.80
v -59123.19 174769.69 2213.80
v -59157.47 174735.93 2158.20
v -59157.47 174735.93 2213.80
v -59155.51 174747.06 2213.80
v -59264.12 174887.96 2155.75
v -59264.12 174887.96 2213.80
v -59261.13 174897.63 2213.80
v -59362.06 175027.57 2163.00
v -59362.06 175027.57 2213.80
v -59358.12 175035.89 2213.80
v -59632.06 175412.47 2167.59
v -59632.06 175412.47 2213.80
v -59625.51 175417.07 2213.80
v -59922.42 175825.47 2172.50
v -59922.42 175825.47 2213.80
v -59912.51 175825.28 2213.80
v -60029.67 175978.02 2174.31
v -60029.67 175978.02 2213.80
v -60018.51 175976.07 2213.80
v -59816.63 176127.18 2188.80
v -59816.63 176127.18 2213.80
v -59807.72 176123.65 2213.80
v -56264.62 185248.92 3319.00
v -56127.00 185462.56 3347.10
v -56127.00 185462.56 3372.10
v -56264.62 185248.92 3372.10
v -56255.01 185249.06 3372.10
v -56119.55 185459.36 3372.10
v -55688.21 185019.96 3347.10
v -55973.09 184824.44 3316.49
v -55973.09 184824.44 3372.10
v -55688.21 185019.96 3372.10
v -55690.67 185027.98 3372.10
v -55971.02 184835.56 3372.10
v -56112.60 185027.57 3313.45
v -56112.60 185027.57 3372.10
v -56106.92 185033.43 3372.10
v -52099.88 160671.98 811.80
v -52368.78 160771.83 802.27
v -52368.78 160771.83 836.80
v -52099.88 160671.98 836.80
v -52101.51 160681.12 836.80
v -52367.75 160779.98 836.80
v -53106.36 161045.72 776.13
v -53106.36 161045.72 836.80
v -53098.04 161051.17 836.80
v -53338.63 161131.97 780.64
v -53338.63 161131.97 836.80
v -53328.01 161136.56 836.80
v -53264.30 161308.14 811.80
v -53264.30 161308.14 836.80
v -53253.58 161312.97 836.80
v -54312.72 152028.97 -392.50
v -54198.13 152453.96 -418.67
v -54198.13 152453.96 -367.50
v -54312.72 152028.97 -367.50
v -54303.79 152031.35 -367.50
v -54189.92 152453.67 -367.50
v -54178.28 152527.57 -423.20
v -54178.28 152527.57 -367.50
v -54170.19 152526.82 -367.50
v -54166.86 152569.91 -422.42
v -54166.86 152569.91 -367.50
v -54158.85 152568.90 -367.50
v -54124.51 152726.96 -419.52
v -54124.51 152726.96 -367.50
v -54116.77 152724.96 -367.50
v -53981.03 153259.09 -392.50
v -53981.03 153259.09 -367.50
v -53974.19 153253.75 -367.50
v -52636.43 152965.07 -392.50
v -52674.03 152584.99 -422.91
v -52674.03 152584.99 -367.50
v -52636.43 152965.07 -367.50
v -52644.21 152967.62 -367.50
v -52681.51 152590.57 -367.50
v -52814.01 152527.57 -427.50
v -52814.01 152527.57 -367.50
v -52821.12 152533.30 -367.50
v -53154.32 152387.97 -421.92
v -53154.32 152387.97 -367.50
v -53160.51 152394.07 -367.50
v -53388.89 151791.94 -398.08
v -53388.89 151791.94 -367.50
v -53394.46 151799.65 -367.50
v -53443.75 151652.57 -392.50
v -53443.75 151652.57 -367.50
v -53449.16 151660.65 -367.50
v -52594.17 151576.08 -389.44
v -52440.57 152527.57 -427.50
v -52440.57 152527.57 -334.70
v -52594.17 151576.08 -334.70
v -52585.01 151582.57 -334.70
v -52432.65 152526.43 -334.70
v -52327.15 153230.20 -371.29
v -52327.15 153230.20 -334.70
v -52320.14 153223.42 -334.70
v -52303.76 153375.07 -359.70
v -52303.76 153375.07 -334.70
v -52296.94 153367.13 -334.70
v -51047.59 152981.95 -359.70
v -51141.12 152527.57 -446.84
v -51141.12 152527.57 -334.70
v -51047.59 152981.95 -334.70
v -51056.68 152977.48 -334.70
v -51149.74 152525.33 -334.70
v -51223.63 152126.68 -427.50
v -51223.63 152126.68 -334.70
v -51231.85 152126.42 -334.70
v -51512.96 150721.01 -359.70
v -51512.96 150721.01 -334.70
v -51519.75 150727.68 -334.70
v -52119.35 150832.57 -359.70
v -51977.65 151466.15 -385.04
v -51977.65 151466.15 -334.70
v -52119.35 150832.57 -334.70
v -52109.38 150840.50 -334.70
v -51968.01 151472.56 -334.70
v -52578.75 151573.33 -389.33
v -52578.75 151573.33 -334.70
v -52569.59 151579.82 -334.70
vt -714.2340 7.6342
vt -714.6913 7.6738
vt -714.6913 7.7363
vt -714.2340 7.7363
vt -714.2202 7.7363
vt -714.6659 7.7363
vt -706.1368 7.6738
vt -707.9813 7.5853
vt -707.9813 7.7363
vt -706.1368 7.7363
vt -706.1588 7.7363
vt -707.9733 7.7363
vt -708.3302 7.5992
vt -708.3302 7.7363
vt -708.3164 7.7363
vt -708.7701 7.6168
vt -708.7701 7.7363
vt -708.7563 7.7363
vt -709.1690 7.6606
vt -709.1690 7.7363
vt -709.1552 7.7363
vt -709.4854 7.6454
vt -709.4854 7.7363
vt -709.4716 7.7363
vt -710.1927 7.6738
vt -710.1927 7.7363
vt -710.1789 7.7363
vt -710.5677 7.6738
vt -711.3615 7.6420
vt -711.3615 7.7363
vt -710.5677 7.7363
vt -710.5539 7.7363
vt -711.3477 7.7363
vt -711.6103 7.6321
vt -711.6103 7.7363
vt -711.5966 7.7363
vt -712.0930 7.6738
vt -712.0930 7.7363
vt -712.0793 7.7363
vt -712.1123 7.6738
vt -712.1123 7.7363
vt -712.0986 7.7363
vt -673.5230 4.5868
vt -673.3076 4.5417
vt -673.3076 4.6493
vt -673.5230 4.6493
vt -673.5607 4.6493
vt -673.3452 4.6493
vt -675.3974 4.5456
vt -675.3974 4.6493
vt -675.3840 4.6493
vt -675.5380 4.5750
vt -675.5380 4.6493
vt -675.5246 4.6493
vt -676.0721 4.5868
vt -676.0721 4.6493
vt -676.0587 4.6493
vt -676.0900 4.5868
vt -677.9813 4.5308
vt -677.9813 4.6493
vt -676.0900 4.6493
vt -676.0769 4.6493
vt -678.0190 4.6493
vt -677.2387 4.5145
vt -677.2387 4.6493
vt -677.2765 4.6493
vt -679.1302 4.4587
vt -679.1302 4.6493
vt -679.1364 4.6493
vt -680.0581 4.5055
vt -680.0581 4.6493
vt -680.0489 4.6493
vt -680.3061 4.5107
vt -680.3061 4.6493
vt -680.2927 4.6493
vt -680.5486 4.5407
vt -680.5486 4.6493
vt -680.5352 4.6493
vt -682.3699 4.5789
vt -682.3699 4.6493
vt -682.3564 4.6493
vt -682.4332 4.5868
vt -682.4332 4.6493
vt -682.4198 4.6493
vt -679.7497 4.5868
vt -679.3868 4.5498
vt -679.3868 4.6493
vt -679.7497 4.6493
vt -679.7630 4.6493
vt -679.4002 4.6493
vt -679.1302 4.5368
vt -679.1302 4.6493
vt -679.1381 4.6493
vt -677.4398 4.5868
vt -677.4398 4.6493
vt -677.4118 4.6493
vt -676.5935 5.6889
vt -676.8427 5.6813
vt -676.8427 5.7592
vt -676.5935 5.7592
vt -676.6302 5.7592
vt -676.8779 5.7592
vt -677.7423 5.6257
vt -677.7423 5.7592
vt -677.7723 5.7592
vt -678.1341 5.6015
vt -678.1341 5.7592
vt -678.1618 5.7592
vt -679.1302 5.6107
vt -679.1302 5.7592
vt -679.1521 5.7592
vt -680.1455 5.6200
vt -680.1455 5.7592
vt -680.1615 5.7592
vt -681.2773 5.6967
vt -681.2773 5.7592
vt -681.2801 5.7592
vt -676.8744 5.6967
vt -676.8744 5.7592
vt -676.9062 5.7592
vt -643.3858 3.6005
vt -644.5287 3.5110
vt -644.5287 3.6630
vt -643.3858 3.6630
vt -643.4040 3.6630
vt -644.5305 3.6630
vt -644.8074 3.5224
vt -644.8074 3.6630
vt -644.8052 3.6630
vt -645.1666 3.6005
vt -645.1666 3.6630
vt -645.1580 3.6630
vt -591.0376 -0.1988
vt -590.3543 -0.2537
vt -590.3543 -0.1363
vt -591.0376 -0.1363
vt -591.0304 -0.1363
vt -590.3539 -0.1363
vt -588.2624 -0.3382
vt -588.2624 -0.1363
vt -588.2846 -0.1363
vt -586.6215 -0.2745
vt -586.6215 -0.1363
vt -586.6614 -0.1363
vt -587.5552 -0.1988
vt -587.5552 -0.1363
vt -587.5859 -0.1363
vt -581.4768 -0.5642
vt -581.3525 -0.5687
vt -581.3525 -0.5017
vt -581.4768 -0.5017
vt -581.4395 -0.5017
vt -581.3157 -0.5017
vt -579.1302 -0.6492
vt -579.1302 -0.5017
vt -579.1031 -0.5017
vt -576.9202 -0.6408
vt -576.9202 -0.5017
vt -576.9027 -0.5017
vt -576.9037 -0.6406
vt -576.9037 -0.5017
vt -576.8863 -0.5017
vt -575.2584 -0.5642
vt -575.2584 -0.5017
vt -575.2528 -0.5017
vt -651.8374 5.6596
vt -652.1823 5.7370
vt -652.1823 5.7995
vt -651.8374 5.7995
vt -651.8227 5.7995
vt -652.1593 5.7995
vt -647.5328 5.7370
vt -647.3225 5.6589
vt -647.3225 5.7995
vt -647.5328 5.7995
vt -647.5575 5.7995
vt -647.3522 5.7995
vt -647.0810 5.6653
vt -647.0810 5.7995
vt -647.1167 5.7995
vt -647.0168 5.6670
vt -647.0168 5.7995
vt -647.0539 5.7995
vt -647.5147 5.6813
vt -647.5147 5.7995
vt -647.5466 5.7995
vt -647.8802 5.6708
vt -647.8802 5.7995
vt -647.9081 5.7995
vt -648.8106 5.6440
vt -648.8106 5.7995
vt -648.8284 5.7995
vt -557.8370 0.0387
vt -555.7333 -0.0367
vt -555.7333 0.1013
vt -557.8370 0.1013
vt -557.8198 0.1013
vt -555.7277 0.1013
vt -554.8392 -0.0688
vt -554.8392 0.1013
vt -554.8386 0.1013
vt -554.1302 -0.0433
vt -554.1302 0.1013
vt -554.1336 0.1013
vt -553.9081 -0.0354
vt -553.9081 0.1013
vt -553.9127 0.1013
vt -553.3665 -0.0382
vt -553.3665 0.1013
vt -553.3753 0.1013
vt -552.7767 0.0387
vt -552.7767 0.1013
vt -552.7902 0.1013
vt -551.9845 0.0712
vt -552.5916 -0.0072
vt -552.5916 0.1338
vt -551.9845 0.1338
vt -551.9512 0.1338
vt -552.5550 0.1338
vt -553.1750 -0.0045
vt -553.1750 0.1338
vt -553.1352 0.1338
vt -551.0855 0.0712
vt -551.0855 0.1338
vt -551.0616 0.1338
vt -603.7895 4.7050
vt -603.7154 4.6895
vt -603.7154 4.7675
vt -603.7895 4.7675
vt -603.8202 4.7675
vt -603.7468 4.7675
vt -603.5678 4.6588
vt -603.5678 4.7675
vt -603.6005 4.7675
vt -603.3744 4.6293
vt -603.3744 4.7675
vt -603.4090 4.7675
vt -604.1302 4.6213
vt -604.1302 4.7675
vt -604.1584 4.7675
vt -606.1658 4.5998
vt -606.1658 4.7675
vt -606.1770 4.7675
vt -609.2953 4.7050
vt -609.2953 4.7675
vt -609.2803 4.7675
vt -585.1463 2.3487
vt -585.3046 2.3393
vt -585.3046 2.4112
vt -585.1463 2.4112
vt -585.1661 2.4112
vt -585.3215 2.4112
vt -585.3802 2.3348
vt -585.3802 2.4112
vt -585.3959 2.4112
vt -586.4805 2.2693
vt -586.4805 2.4112
vt -586.4795 2.4112
vt -586.7860 2.2724
vt -586.7860 2.4112
vt -586.7802 2.4112
vt -587.6005 2.3487
vt -587.6005 2.4112
vt -587.5895 2.4112
vt -584.5211 5.4720
vt -584.5903 5.4471
vt -584.5903 5.5345
vt -584.5211 5.5345
vt -584.5481 5.5345
vt -584.6161 5.5345
vt -584.7088 5.4044
vt -584.7088 5.5345
vt -584.7322 5.5345
vt -584.7335 5.3955
vt -584.7335 5.5345
vt -584.7564 5.5345
vt -585.3802 5.3894
vt -585.3802 5.5345
vt -585.3969 5.5345
vt -585.9741 5.4075
vt -585.9741 5.5345
vt -585.9850 5.5345
vt -587.6113 5.4190
vt -587.6113 5.5345
vt -587.6064 5.5345
vt -589.3697 5.4313
vt -589.3697 5.5345
vt -589.3445 5.5345
vt -590.0192 5.4358
vt -590.0192 5.5345
vt -589.9864 5.5345
vt -589.8595 5.4720
vt -589.8595 5.5345
vt -589.8284 5.5345
vt -603.7839 8.2975
vt -603.9739 8.3677
vt -603.9739 8.4302
vt -603.7839 8.4302
vt -603.7602 8.4302
vt -603.9473 8.4302
vt -601.7704 8.3677
vt -601.9938 8.2912
vt -601.9938 8.4302
vt -601.7704 8.4302
vt -601.7966 8.4302
vt -602.0164 8.4302
vt -602.8504 8.2836
vt -602.8504 8.4302
vt -602.8509 8.4302
vt -531.9297 2.0295
vt -532.8515 2.0057
vt -532.8515 2.0920
vt -531.9297 2.0920
vt -531.9566 2.0920
vt -532.8693 2.0920
vt -535.3802 1.9403
vt -535.3802 2.0920
vt -535.3730 2.0920
vt -536.1765 1.9516
vt -536.1765 2.0920
vt -536.1614 2.0920
vt -536.4311 2.0295
vt -536.4311 2.0920
vt -536.4164 2.0920
vt -515.8542 -0.9812
vt -516.6302 -1.0467
vt -516.6302 -0.9187
vt -515.8542 -0.9187
vt -515.8379 -0.9187
vt -516.6090 -0.9187
vt -516.7646 -1.0580
vt -516.7646 -0.9187
vt -516.7425 -0.9187
vt -516.8419 -1.0560
vt -516.8419 -0.9187
vt -516.8194 -0.9187
vt -517.1287 -1.0488
vt -517.1287 -0.9187
vt -517.1043 -0.9187
vt -518.1003 -0.9812
vt -518.1003 -0.9187
vt -518.0698 -0.9187
vt -514.0037 -0.9812
vt -513.1476 -1.0573
vt -513.1476 -0.9187
vt -514.0037 -0.9187
vt -514.0296 -0.9187
vt -513.1802 -0.9187
vt -513.3540 -1.0688
vt -513.3540 -0.9187
vt -513.3860 -0.9187
vt -513.8557 -1.0548
vt -513.8557 -0.9187
vt -513.8865 -0.9187
vt -512.9521 -0.9952
vt -512.9521 -0.9187
vt -512.9853 -0.9187
vt -512.7408 -0.9812
vt -512.7408 -0.9187
vt -512.7745 -0.9187
vt -510.4256 -0.9736
vt -512.4203 -1.0688
vt -512.4203 -0.8367
vt -510.4256 -0.8367
vt -510.4190 -0.8367
vt -512.3977 -0.8367
vt -513.8934 -0.9282
vt -513.8934 -0.8367
vt -513.8589 -0.8367
vt -514.1971 -0.8992
vt -514.1971 -0.8367
vt -514.1602 -0.8367
vt -510.0738 -0.8992
vt -509.1717 -1.1171
vt -509.1717 -0.8367
vt -510.0738 -0.8367
vt -510.0854 -0.8367
vt -509.1877 -0.8367
vt -508.3758 -1.0688
vt -508.3758 -0.8367
vt -508.3957 -0.8367
vt -505.5849 -0.8992
vt -505.5849 -0.8367
vt -505.6186 -0.8367
vt -507.3798 -0.8992
vt -508.6095 -0.9626
vt -508.6095 -0.8367
vt -507.3798 -0.8367
vt -507.3747 -0.8367
vt -508.6014 -0.8367
vt -510.3802 -0.9733
vt -510.3802 -0.8367
vt -510.3735 -0.8367
vn -0.9388 0.3445 0.0000
vn 0.0000 -0.0000 1.0000
vn -0.3423 -0.9396 0.0000
vn -0.9386 0.3450 0.0000
vn -0.3429 -0.9394 0.0000
vn -0.9388 0.3446 0.0000
vn -0.3427 -0.9395 0.0000
vn 0.9415 -0.3370 0.0000
vn -0.3343 -0.9425 0.0000
vn -0.9421 0.3354 0.0000
vn -0.3328 -0.9430 0.0000
vn 0.9424 -0.3346 0.0000
vn -0.3344 -0.9424 0.0000
vn -0.9429 0.3331 0.0000
vn -0.3348 -0.9423 0.0000
vn -0.9420 0.3355 0.0000
vn 0.9425 -0.3341 0.0000
vn 0.3335 0.9427 0.0000
vn 0.3992 -0.9168 0.0000
vn -0.9166 -0.3999 0.0000
vn 0.9160 0.4011 0.0000
vn -0.0059 -1.0000 0.0000
vn -0.9952 0.0984 0.0000
vn -0.0097 1.0000 0.0000
vn 1.0000 0.0099 0.0000
vn 0.0091 -1.0000 0.0000
vn 0.0497 0.9988 0.0000
vn 0.1878 0.9822 0.0000
vn -0.9300 0.3675 0.0000
vn 0.9298 -0.3680 0.0000
vn -0.3656 -0.9308 0.0000
vn 0.1147 0.9934 0.0000
vn 0.9934 -0.1151 0.0000
vn -0.9947 0.1029 0.0000
vn 0.1026 0.9947 0.0000
vn 0.8635 -0.5044 0.0000
vn -0.5033 -0.8641 0.0000
vn -0.1456 -0.9893 0.0000
vn -0.1448 -0.9895 0.0000
vn -0.9894 0.1450 0.0000
vn 0.5735 -0.8192 0.0000
vn -0.8187 -0.5743 0.0000
vn -0.8181 -0.5751 0.0000
vn -0.5735 0.8192 0.0000
vn -0.8407 0.5415 0.0000
vn 0.5659 -0.8245 0.0000
vn -0.8243 -0.5661 0.0000
vn -0.3481 -0.9375 0.0000
vn -0.9214 0.3887 0.0000
vn -0.9655 0.2603 0.0000
vn 0.9951 -0.0984 0.0000
vn 0.3795 -0.9252 0.0000
vn 0.9305 -0.3662 0.0000
vn -0.9872 0.1594 0.0000
vn 0.9795 -0.2016 0.0000
vn -0.9759 0.2183 0.0000
vn -0.1755 -0.9845 0.0000
f 1/1/1 3/3/1 2/2/1
f 1/1/1 4/4/1 3/3/1
f 5/5/2 6/6/2 3/3/2
f 5/5/2 3/3/2 4/4/2
f 7/7/3 9/9/3 8/8/3
f 7/7/3 10/10/3 9/9/3
f 11/11/2 12/12/2 9/9/2
f 11/11/2 9/9/2 10/10/2
f 8/8/3 14/14/3 13/13/3
f 8/8/3 9/9/3 14/14/3
f 12/12/2 15/15/2 14/14/2
f 12/12/2 14/14/2 9/9/2
f 13/13/4 17/17/4 16/16/4
f 13/13/4 14/14/4 17/17/4
f 15/15/2 18/18/2 17/17/2
f 15/15/2 17/17/2 14/14/2
f 16/16/4 20/20/4 19/19/4
f 16/16/4 17/17/4 20/20/4
f 18/18/2 21/21/2 20/20/2
f 18/18/2 20/20/2 17/17/2
f 19/19/5 23/23/5 22/22/5
f 19/19/5 20/20/5 23/23/5
f 21/21/2 24/24/2 23/23/2
f 21/21/2 23/23/2 20/20/2
f 22/22/5 26/26/5 25/25/5
f 22/22/5 23/23/5 26/26/5
f 24/24/2 27/27/2 26/26/2
f 24/24/2 26/26/2 23/23/2
f 28/28/5 30/30/5 29/29/5
f 28/28/5 31/31/5 30/30/5
f 32/32/2 33/33/2 30/30/2
f 32/32/2 30/30/2 31/31/2
f 29/29/6 35/35/6 34/34/6
f 29/29/6 30/30/6 35/35/6
f 33/33/2 36/36/2 35/35/2
f 33/33/2 35/35/2 30/30/2
f 34/34/6 38/38/6 37/37/6
f 34/34/6 35/35/6 38/38/6
f 36/36/2 39/39/2 38/38/2
f 36/36/2 38/38/2 35/35/2
f 40/40/7 4/4/7 1/1/7
f 40/40/7 41/41/7 4/4/7
f 42/42/2 5/5/2 4/4/2
f 42/42/2 4/4/2 41/41/2
f 43/43/8 45/45/8 44/44/8
f 43/43/8 46/46/8 45/45/8
f 47/47/2 48/48/2 45/45/2
f 47/47/2 45/45/2 46/46/2
f 44/44/9 50/50/9 49/49/9
f 44/44/9 45/45/9 50/50/9
f 48/48/2 51/51/2 50/50/2
f 48/48/2 50/50/2 45/45/2
f 49/49/10 53/53/10 52/52/10
f 49/49/10 50/50/10 53/53/10
f 51/51/2 54/54/2 53/53/2
f 51/51/2 53/53/2 50/50/2
f 52/52/10 56/56/10 55/55/10
f 52/52/10 53/53/10 56/56/10
f 54/54/2 57/57/2 56/56/2
f 54/54/2 56/56/2 53/53/2
f 58/58/11 60/60/11 59/59/11
f 58/58/11 61/61/11 60/60/11
f 62/62/2 63/63/2 60/60/2
f 62/62/2 60/60/2 61/61/2
f 59/59/12 65/65/12 64/64/12
f 59/59/12 60/60/12 65/65/12
f 63/63/2 66/66/2 65/65/2
f 63/63/2 65/65/2 60/60/2
f 64/64/13 68/68/13 67/67/13
f 64/64/13 65/65/13 68/68/13
f 66/66/2 69/69/2 68/68/2
f 66/66/2 68/68/2 65/65/2
f 67/67/13 71/71/13 70/70/13
f 67/67/13 68/68/13 71/71/13
f 69/69/2 72/72/2 71/71/2
f 69/69/2 71/71/2 68/68/2
f 70/70/13 74/74/13 73/73/13
f 70/70/13 71/71/13 74/74/13
f 72/72/2 75/75/2 74/74/2
f 72/72/2 74/74/2 71/71/2
f 73/73/14 77/77/14 76/76/14
f 73/73/14 74/74/14 77/77/14
f 75/75/2 78/78/2 77/77/2
f 75/75/2 77/77/2 74/74/2
f 76/76/15 80/80/15 79/79/15
f 76/76/15 77/77/15 80/80/15
f 78/78/2 81/81/2 80/80/2
f 78/78/2 80/80/2 77/77/2
f 79/79/16 83/83/16 82/82/16
f 79/79/16 80/80/16 83/83/16
f 81/81/2 84/84/2 83/83/2
f 81/81/2 83/83/2 80/80/2
f 85/85/17 87/87/17 86/86/17
f 85/85/17 88/88/17 87/87/17
f 89/89/2 90/90/2 87/87/2
f 89/89/2 87/87/2 88/88/2
f 86/86/18 92/92/18 91/91/18
f 86/86/18 87/87/18 92/92/18
f 90/90/2 93/93/2 92/92/2
f 90/90/2 92/92/2 87/87/2
f 91/91/18 95/95/18 94/94/18
f 91/91/18 92/92/18 95/95/18
f 93/93/2 96/96/2 95/95/2
f 93/93/2 95/95/2 92/92/2
f 97/97/19 99/99/19 98/98/19
f 97/97/19 100/100/19 99/99/19
f 101/101/2 102/102/2 99/99/2
f 101/101/2 99/99/2 100/100/2
f 98/98/19 104/104/19 103/103/19
f 98/98/19 99/99/19 104/104/19
f 102/102/2 105/105/2 104/104/2
f 102/102/2 104/104/2 99/99/2
f 103/103/19 107/107/19 106/106/19
f 103/103/19 104/104/19 107/107/19
f 105/105/2 108/108/2 107/107/2
f 105/105/2 107/107/2 104/104/2
f 106/106/19 110/110/19 109/109/19
f 106/106/19 107/107/19 110/110/19
f 108/108/2 111/111/2 110/110/2
f 108/108/2 110/110/2 107/107/2
f 109/109/19 113/113/19 112/112/19
f 109/109/19 110/110/19 113/113/19
f 111/111/2 114/114/2 113/113/2
f 111/111/2 113/113/2 110/110/2
f 112/112/20 116/116/20 115/115/20
f 112/112/20 113/113/20 116/116/20
f 114/114/2 117/117/2 116/116/2
f 114/114/2 116/116/2 113/113/2
f 118/118/21 100/100/21 97/97/21
f 118/118/21 119/119/21 100/100/21
f 120/120/2 101/101/2 100/100/2
f 120/120/2 100/100/2 119/119/2
f 121/121/22 123/123/22 122/122/22
f 121/121/22 124/124/22 123/123/22
f 125/125/2 126/126/2 123/123/2
f 125/125/2 123/123/2 124/124/2
f 122/122/22 128/128/22 127/127/22
f 122/122/22 123/123/22 128/128/22
f 126/126/2 129/129/2 128/128/2
f 126/126/2 128/128/2 123/123/2
f 127/127/23 131/131/23 130/130/23
f 127/127/23 128/128/23 131/131/23
f 129/129/2 132/132/2 131/131/2
f 129/129/2 131/131/2 128/128/2
f 133/133/24 135/135/24 134/134/24
f 133/133/24 136/136/24 135/135/24
f 137/137/2 138/138/2 135/135/2
f 137/137/2 135/135/2 136/136/2
f 134/134/25 140/140/25 139/139/25
f 134/134/25 135/135/25 140/140/25
f 138/138/2 141/141/2 140/140/2
f 138/138/2 140/140/2 135/135/2
f 139/139/25 143/143/25 142/142/25
f 139/139/25 140/140/25 143/143/25
f 141/141/2 144/144/2 143/143/2
f 141/141/2 143/143/2 140/140/2
f 142/142/26 146/146/26 145/145/26
f 142/142/26 143/143/26 146/146/26
f 144/144/2 147/147/2 146/146/2
f 144/144/2 146/146/2 143/143/2
f 148/148/27 150/150/27 149/149/27
f 148/148/27 151/151/27 150/150/27
f 152/152/2 153/153/2 150/150/2
f 152/152/2 150/150/2 151/151/2
f 149/149/27 155/155/27 154/154/27
f 149/149/27 150/150/27 155/155/27
f 153/153/2 156/156/2 155/155/2
f 153/153/2 155/155/2 150/150/2
f 154/154/27 158/158/27 157/157/27
f 154/154/27 155/155/27 158/158/27
f 156/156/2 159/159/2 158/158/2
f 156/156/2 158/158/2 155/155/2
f 157/157/28 161/161/28 160/160/28
f 157/157/28 158/158/28 161/161/28
f 159/159/2 162/162/2 161/161/2
f 159/159/2 161/161/2 158/158/2
f 160/160/28 164/164/28 163/163/28
f 160/160/28 161/161/28 164/164/28
f 162/162/2 165/165/2 164/164/2
f 162/162/2 164/164/2 161/161/2
f 166/166/29 168/168/29 167/167/29
f 166/166/29 169/169/29 168/168/29
f 170/170/2 171/171/2 168/168/2
f 170/170/2 168/168/2 169/169/2
f 172/172/30 174/174/30 173/173/30
f 172/172/30 175/175/30 174/174/30
f 176/176/2 177/177/2 174/174/2
f 176/176/2 174/174/2 175/175/2
f 173/173/30 179/179/30 178/178/30
f 173/173/30 174/174/30 179/179/30
f 177/177/2 180/180/2 179/179/2
f 177/177/2 179/179/2 174/174/2
f 178/178/30 182/182/30 181/181/30
f 178/178/30 179/179/30 182/182/30
f 180/180/2 183/183/2 182/182/2
f 180/180/2 182/182/2 179/179/2
f 181/181/31 185/185/31 184/184/31
f 181/181/31 182/182/31 185/185/31
f 183/183/2 186/186/2 185/185/2
f 183/183/2 185/185/2 182/182/2
f 184/184/31 188/188/31 187/187/31
f 184/184/31 185/185/31 188/188/31
f 186/186/2 189/189/2 188/188/2
f 186/186/2 188/188/2 185/185/2
f 187/187/31 191/191/31 190/190/31
f 187/187/31 188/188/31 191/191/31
f 189/189/2 192/192/2 191/191/2
f 189/189/2 191/191/2 188/188/2
f 190/190/31 169/169/31 166/166/31
f 190/190/31 191/191/31 169/169/31
f 192/192/2 170/170/2 169/169/2
f 192/192/2 169/169/2 191/191/2
f 193/193/32 195/195/32 194/194/32
f 193/193/32 196/196/32 195/195/32
f 197/197/2 198/198/2 195/195/2
f 197/197/2 195/195/2 196/196/2
f 194/194/32 200/200/32 199/199/32
f 194/194/32 195/195/32 200/200/32
f 198/198/2 201/201/2 200/200/2
f 198/198/2 200/200/2 195/195/2
f 199/199/32 203/203/32 202/202/32
f 199/199/32 200/200/32 203/203/32
f 201/201/2 204/204/2 203/203/2
f 201/201/2 203/203/2 200/200/2
f 202/202/32 206/206/32 205/205/32
f 202/202/32 203/203/32 206/206/32
f 204/204/2 207/207/2 206/206/2
f 204/204/2 206/206/2 203/203/2
f 205/205/33 209/209/33 208/208/33
f 205/205/33 206/206/33 209/209/33
f 207/207/2 210/210/2 209/209/2
f 207/207/2 209/209/2 206/206/2
f 208/208/33 212/212/33 211/211/33
f 208/208/33 209/209/33 212/212/33
f 210/210/2 213/213/2 212/212/2
f 210/210/2 212/212/2 209/209/2
f 214/214/34 216/216/34 215/215/34
f 214/214/34 217/217/34 216/216/34
f 218/218/2 219/219/2 216/216/2
f 218/218/2 216/216/2 217/217/2
f 215/215/34 221/221/34 220/220/34
f 215/215/34 216/216/34 221/221/34
f 219/219/2 222/222/2 221/221/2
f 219/219/2 221/221/2 216/216/2
f 220/220/35 224/224/35 223/223/35
f 220/220/35 221/221/35 224/224/35
f 222/222/2 225/225/2 224/224/2
f 222/222/2 224/224/2 221/221/2
f 226/226/36 228/228/36 227/227/36
f 226/226/36 229/229/36 228/228/36
f 230/230/2 231/231/2 228/228/2
f 230/230/2 228/228/2 229/229/2
f 227/227/36 233/233/36 232/232/36
f 227/227/36 228/228/36 233/233/36
f 231/231/2 234/234/2 233/233/2
f 231/231/2 233/233/2 228/228/2
f 232/232/36 236/236/36 235/235/36
f 232/232/36 233/233/36 236/236/36
f 234/234/2 237/237/2 236/236/2
f 234/234/2 236/236/2 233/233/2
f 235/235/37 239/239/37 238/238/37
f 235/235/37 236/236/37 239/239/37
f 237/237/2 240/240/2 239/239/2
f 237/237/2 239/239/2 236/236/2
f 238/238/37 242/242/37 241/241/37
f 238/238/37 239/239/37 242/242/37
f 240/240/2 243/243/2 242/242/2
f 240/240/2 242/242/2 239/239/2
f 241/241/37 245/245/37 244/244/37
f 241/241/37 242/242/37 245/245/37
f 243/243/2 246/246/2 245/245/2
f 243/243/2 245/245/2 242/242/2
f 247/247/38 249/249/38 248/248/38
f 247/247/38 250/250/38 249/249/38
f 251/251/2 252/252/2 249/249/2
f 251/251/2 249/249/2 250/250/2
f 248/248/39 254/254/39 253/253/39
f 248/248/39 249/249/39 254/254/39
f 252/252/2 255/255/2 254/254/2
f 252/252/2 254/254/2 249/249/2
f 253/253/39 257/257/39 256/256/39
f 253/253/39 254/254/39 257/257/39
f 255/255/2 258/258/2 257/257/2
f 255/255/2 257/257/2 254/254/2
f 256/256/39 260/260/39 259/259/39
f 256/256/39 257/257/39 260/260/39
f 258/258/2 261/261/2 260/260/2
f 258/258/2 260/260/2 257/257/2
f 259/259/40 263/263/40 262/262/40
f 259/259/40 260/260/40 263/263/40
f 261/261/2 264/264/2 263/263/2
f 261/261/2 263/263/2 260/260/2
f 265/265/41 267/267/41 266/266/41
f 265/265/41 268/268/41 267/267/41
f 269/269/2 270/270/2 267/267/2
f 269/269/2 267/267/2 268/268/2
f 266/266/41 272/272/41 271/271/41
f 266/266/41 267/267/41 272/272/41
f 270/270/2 273/273/2 272/272/2
f 270/270/2 272/272/2 267/267/2
f 271/271/41 275/275/41 274/274/41
f 271/271/41 272/272/41 275/275/41
f 273/273/2 276/276/2 275/275/2
f 273/273/2 275/275/2 272/272/2
f 274/274/42 278/278/42 277/277/42
f 274/274/42 275/275/42 278/278/42
f 276/276/2 279/279/2 278/278/2
f 276/276/2 278/278/2 275/275/2
f 277/277/42 281/281/42 280/280/42
f 277/277/42 278/278/42 281/281/42
f 279/279/2 282/282/2 281/281/2
f 279/279/2 281/281/2 278/278/2
f 280/280/42 284/284/42 283/283/42
f 280/280/42 281/281/42 284/284/42
f 282/282/2 285/285/2 284/284/2
f 282/282/2 284/284/2 281/281/2
f 283/283/43 287/287/43 286/286/43
f 283/283/43 284/284/43 287/287/43
f 285/285/2 288/288/2 287/287/2
f 285/285/2 287/287/2 284/284/2
f 286/286/43 290/290/43 289/289/43
f 286/286/43 287/287/43 290/290/43
f 288/288/2 291/291/2 290/290/2
f 288/288/2 290/290/2 287/287/2
f 289/289/44 293/293/44 292/292/44
f 289/289/44 290/290/44 293/293/44
f 291/291/2 294/294/2 293/293/2
f 291/291/2 293/293/2 290/290/2
f 295/295/45 297/297/45 296/296/45
f 295/295/45 298/298/45 297/297/45
f 299/299/2 300/300/2 297/297/2
f 299/299/2 297/297/2 298/298/2
f 301/301/46 303/303/46 302/302/46
f 301/301/46 304/304/46 303/303/46
f 305/305/2 306/306/2 303/303/2
f 305/305/2 303/303/2 304/304/2
f 302/302/47 308/308/47 307/307/47
f 302/302/47 303/303/47 308/308/47
f 306/306/2 309/309/2 308/308/2
f 306/306/2 308/308/2 303/303/2
f 307/307/47 298/298/47 295/295/47
f 307/307/47 308/308/47 298/298/47
f 309/309/2 299/299/2 298/298/2
f 309/309/2 298/298/2 308/308/2
f 310/310/48 312/312/48 311/311/48
f 310/310/48 313/313/48 312/312/48
f 314/314/2 315/315/2 312/312/2
f 314/314/2 312/312/2 313/313/2
f 311/311/48 317/317/48 316/316/48
f 311/311/48 312/312/48 317/317/48
f 315/315/2 318/318/2 317/317/2
f 315/315/2 317/317/2 312/312/2
f 316/316/48 320/320/48 319/319/48
f 316/316/48 317/317/48 320/320/48
f 318/318/2 321/321/2 320/320/2
f 318/318/2 320/320/2 317/317/2
f 319/319/49 323/323/49 322/322/49
f 319/319/49 320/320/49 323/323/49
f 321/321/2 324/324/2 323/323/2
f 321/321/2 323/323/2 320/320/2
f 325/325/50 327/327/50 326/326/50
f 325/325/50 328/328/50 327/327/50
f 329/329/2 330/330/2 327/327/2
f 329/329/2 327/327/2 328/328/2
f 326/326/50 332/332/50 331/331/50
f 326/326/50 327/327/50 332/332/50
f 330/330/2 333/333/2 332/332/2
f 330/330/2 332/332/2 327/327/2
f 331/331/50 335/335/50 334/334/50
f 331/331/50 332/332/50 335/335/50
f 333/333/2 336/336/2 335/335/2
f 333/333/2 335/335/2 332/332/2
f 334/334/50 338/338/50 337/337/50
f 334/334/50 335/335/50 338/338/50
f 336/336/2 339/339/2 338/338/2
f 336/336/2 338/338/2 335/335/2
f 337/337/50 341/341/50 340/340/50
f 337/337/50 338/338/50 341/341/50
f 339/339/2 342/342/2 341/341/2
f 339/339/2 341/341/2 338/338/2
f 343/343/51 345/345/51 344/344/51
f 343/343/51 346/346/51 345/345/51
f 347/347/2 348/348/2 345/345/2
f 347/347/2 345/345/2 346/346/2
f 344/344/52 350/350/52 349/349/52
f 344/344/52 345/345/52 350/350/52
f 348/348/2 351/351/2 350/350/2
f 348/348/2 350/350/2 345/345/2
f 349/349/52 353/353/52 352/352/52
f 349/349/52 350/350/52 353/353/52
f 351/351/2 354/354/2 353/353/2
f 351/351/2 353/353/2 350/350/2
f 352/352/53 356/356/53 355/355/53
f 352/352/53 353/353/53 356/356/53
f 354/354/2 357/357/2 356/356/2
f 354/354/2 356/356/2 353/353/2
f 355/355/53 359/359/53 358/358/53
f 355/355/53 356/356/53 359/359/53
f 357/357/2 360/360/2 359/359/2
f 357/357/2 359/359/2 356/356/2
f 361/361/54 363/363/54 362/362/54
f 361/361/54 364/364/54 363/363/54
f 365/365/2 366/366/2 363/363/2
f 365/365/2 363/363/2 364/364/2
f 362/362/54 368/368/54 367/367/54
f 362/362/54 363/363/54 368/368/54
f 366/366/2 369/369/2 368/368/2
f 366/366/2 368/368/2 363/363/2
f 367/367/54 371/371/54 370/370/54
f 367/367/54 368/368/54 371/371/54
f 369/369/2 372/372/2 371/371/2
f 369/369/2 371/371/2 368/368/2
f 373/373/55 375/375/55 374/374/55
f 373/373/55 376/376/55 375/375/55
f 377/377/2 378/378/2 375/375/2
f 377/377/2 375/375/2 376/376/2
f 374/374/55 380/380/55 379/379/55
f 374/374/55 375/375/55 380/380/55
f 378/378/2 381/381/2 380/380/2
f 378/378/2 380/380/2 375/375/2
f 379/379/55 383/383/55 382/382/55
f 379/379/55 380/380/55 383/383/55
f 381/381/2 384/384/2 383/383/2
f 381/381/2 383/383/2 380/380/2
f 385/385/56 387/387/56 386/386/56
f 385/385/56 388/388/56 387/387/56
f 389/389/2 390/390/2 387/387/2
f 389/389/2 387/387/2 388/388/2
f 386/386/57 392/392/57 391/391/57
f 386/386/57 387/387/57 392/392/57
f 390/390/2 393/393/2 392/392/2
f 390/390/2 392/392/2 387/387/2
f 391/391/57 364/364/57 361/361/57
f 391/391/57 392/392/57 364/364/57
f 393/393/2 365/365/2 364/364/2
f 393/393/2 364/364/2 392/392/2
