# Unreal legacy OBJ adapter: canonical vertices are UE cm; this file is written with Y reflected and triangle winding reversed. One object, no g groups, so the importer creates exactly one material slot.
# OldCityFoundationV2 foundations (plinth + stepped footing); generator 463404ba754c804f514fe655944ece4eb51a92e1273fec326ad5c2ebfbb18f24
# AUTHORED detail in the style of Old City stone foundations, not survey
o SM_OldCityFoundationV2_PrecinctMainOnly_N001_P000
s off
v -24806.67 -38342.99 -860.50
v -25182.26 -38914.69 -908.23
v -25182.26 -38914.69 -835.50
v -24806.67 -38342.99 -835.50
v -24817.39 -38344.73 -835.50
v -25191.80 -38914.64 -835.50
v -25877.16 -39972.43 -996.55
v -25877.16 -39972.43 -835.50
v -25884.52 -39969.07 -835.50
v -26173.48 -40423.47 -944.00
v -26173.48 -40423.47 -835.50
v -26179.91 -40418.70 -835.50
v -26459.98 -40859.57 -893.19
v -26459.98 -40859.57 -835.50
v -26465.51 -40853.43 -835.50
v -26569.75 -40916.48 -860.50
v -26569.75 -40916.48 -835.50
v -26575.26 -40910.32 -835.50
v -25489.97 -39408.57 -955.50
v -25844.05 -39947.54 -1000.50
v -25844.05 -39947.54 -910.50
v -25489.97 -39408.57 -910.50
v -25504.90 -39405.80 -910.50
v -25857.05 -39941.83 -910.50
v -25860.41 -39972.43 -1002.58
v -25860.41 -39972.43 -955.50
v -25844.05 -39947.54 -955.50
v -25857.05 -39941.83 -955.50
v -25873.32 -39966.58 -955.50
v -25872.13 -39990.27 -1000.50
v -25872.13 -39990.27 -955.50
v -25884.97 -39984.33 -955.50
v -26125.88 -40376.52 -955.50
v -26125.88 -40376.52 -910.50
v -25872.13 -39990.27 -910.50
v -25884.97 -39984.33 -910.50
v -26137.34 -40368.46 -910.50
v -25504.90 -39405.80 -955.50
v -26137.34 -40368.46 -955.50
vt 33.8408 -2.1513
vt 34.3311 -2.2706
vt 34.3311 -2.0888
vt 33.8408 -2.0888
vt 33.8184 -2.0888
vt 34.3071 -2.0888
vt 35.2382 -2.4914
vt 35.2382 -2.0888
vt 35.2114 -2.0888
vt 35.6250 -2.3600
vt 35.6250 -2.0888
vt 35.5970 -2.0888
vt 35.9990 -2.2330
vt 35.9990 -2.0888
vt 35.9698 -2.0888
vt 35.8668 -2.1513
vt 35.8668 -2.0888
vt 35.8377 -2.0888
vt 34.7965 -2.3887
vt 35.2587 -2.5013
vt 35.2587 -2.2763
vt 34.7965 -2.2763
vt 34.7523 -2.2763
vt 35.2120 -2.2763
vt 35.2801 -2.5065
vt 35.2801 -2.3887
vt 35.2587 -2.3887
vt 35.2120 -2.3887
vt 35.2332 -2.3887
vt 35.2953 -2.5013
vt 35.2953 -2.3887
vt 35.2484 -2.3887
vt 35.6266 -2.3887
vt 35.6266 -2.2763
vt 35.2953 -2.2763
vt 35.2484 -2.2763
vt 35.5778 -2.2763
vt 34.7523 -2.3887
vt 35.5778 -2.3887
vn 0.8358 -0.5491 0.0000
vn 0.0000 -0.0000 1.0000
vn 0.4602 -0.8878 0.0000
vn 0.1827 0.9832 0.0000
vn -0.4024 -0.9155 0.0000
vn 0.4201 0.9075 0.0000
vn -0.5749 -0.8182 0.0000
f 1/1/1 3/3/1 2/2/1
f 1/1/1 4/4/1 3/3/1
f 5/5/2 6/6/2 3/3/2
f 5/5/2 3/3/2 4/4/2
f 2/2/1 8/8/1 7/7/1
f 2/2/1 3/3/1 8/8/1
f 6/6/2 9/9/2 8/8/2
f 6/6/2 8/8/2 3/3/2
f 7/7/1 11/11/1 10/10/1
f 7/7/1 8/8/1 11/11/1
f 9/9/2 12/12/2 11/11/2
f 9/9/2 11/11/2 8/8/2
f 10/10/1 14/14/1 13/13/1
f 10/10/1 11/11/1 14/14/1
f 12/12/2 15/15/2 14/14/2
f 12/12/2 14/14/2 11/11/2
f 13/13/3 17/17/3 16/16/3
f 13/13/3 14/14/3 17/17/3
f 15/15/2 18/18/2 17/17/2
f 15/15/2 17/17/2 14/14/2
f 19/19/1 21/21/1 20/20/1
f 19/19/1 22/22/1 21/21/1
f 23/23/2 24/24/2 21/21/2
f 23/23/2 21/21/2 22/22/2
f 20/20/1 26/26/1 25/25/1
f 20/20/1 27/27/1 26/26/1
f 28/28/2 29/29/2 26/26/2
f 28/28/2 26/26/2 27/27/2
f 25/25/1 31/31/1 30/30/1
f 25/25/1 26/26/1 31/31/1
f 29/29/2 32/32/2 31/31/2
f 29/29/2 31/31/2 26/26/2
f 30/30/1 34/34/1 33/33/1
f 30/30/1 35/35/1 34/34/1
f 36/36/2 37/37/2 34/34/2
f 36/36/2 34/34/2 35/35/2
f 19/19/4 38/38/4 23/23/4
f 19/19/4 23/23/4 22/22/4
f 27/27/5 24/24/5 28/28/5
f 27/27/5 21/21/5 24/24/5
f 31/31/6 32/32/6 36/36/6
f 31/31/6 36/36/6 35/35/6
f 33/33/7 37/37/7 39/39/7
f 33/33/7 34/34/7 37/37/7
