# Unreal legacy OBJ adapter: canonical vertices are UE cm; this file is written with Y reflected and triangle winding reversed. One object, no g groups, so the importer creates exactly one material slot.
# OldCityFoundationV2 foundations (plinth + stepped footing); generator 463404ba754c804f514fe655944ece4eb51a92e1273fec326ad5c2ebfbb18f24
# AUTHORED detail in the style of Old City stone foundations, not survey
o SM_OldCityFoundationV2_Kept_N003_P000
s off
v -143719.96 -15129.71 3068.90
v -143429.05 -14972.43 3044.68
v -143429.05 -14972.43 3093.90
v -143719.96 -15129.71 3093.90
v -143715.28 -15136.27 3093.90
v -143428.26 -14981.10 3093.90
v -143128.79 -14810.10 3039.16
v -143128.79 -14810.10 3093.90
v -143132.01 -14820.93 3093.90
v -143040.66 -14972.43 3029.15
v -143040.66 -14972.43 3093.90
v -143045.54 -14980.23 3093.90
v -142925.48 -15184.61 3041.51
v -142925.48 -15184.61 3093.90
v -142932.51 -15188.43 3093.90
v -142670.11 -15654.63 3068.90
v -142670.11 -15654.63 3093.90
v -142680.59 -15652.10 3093.90
v -142448.94 -28653.59 3985.70
v -142316.41 -28368.32 3963.69
v -142316.41 -28368.32 4010.70
v -142448.94 -28653.59 4010.70
v -142443.60 -28661.08 4010.70
v -142312.51 -28378.93 4010.70
v -141624.51 -28687.84 3921.12
v -141624.51 -28687.84 4010.70
v -141624.56 -28696.63 4010.70
v -140745.74 -29093.65 3937.35
v -140745.74 -29093.65 4010.70
v -140750.77 -29100.14 4010.70
v -139762.89 -29547.53 3955.50
v -139762.89 -29547.53 4010.70
v -139773.51 -29551.43 4010.70
v -139959.73 -29972.43 3972.50
v -139959.73 -29972.43 4010.70
v -139969.09 -29973.61 4010.70
v -140036.16 -30137.43 3985.70
v -140036.16 -30137.43 4010.70
v -140045.04 -30137.56 4010.70
v -139004.63 -13952.55 3008.50
v -138872.56 -14272.79 2990.41
v -138872.56 -14272.79 3033.50
v -139004.63 -13952.55 3033.50
v -139013.95 -13950.95 3033.50
v -138883.01 -14268.43 3033.50
v -139124.51 -14376.15 2996.35
v -139124.51 -14376.15 3033.50
v -139134.96 -14371.79 3033.50
v -139351.57 -14469.30 2992.63
v -139351.57 -14469.30 3033.50
v -139362.01 -14464.93 3033.50
v -139158.86 -14938.09 2973.87
v -139158.86 -14938.09 3033.50
v -139169.30 -14933.73 3033.50
v -139144.74 -14972.43 2972.50
v -139144.74 -14972.43 3033.50
v -139155.18 -14968.07 3033.50
v -139138.85 -14986.76 2973.65
v -139138.85 -14986.76 3033.50
v -139149.29 -14982.40 3033.50
v -139124.51 -15021.63 2974.47
v -139124.51 -15021.63 3033.50
v -139134.96 -15017.27 3033.50
v -139081.08 -15127.29 2978.69
v -139081.08 -15127.29 3033.50
v -139091.52 -15122.93 3033.50
v -139124.51 -15145.12 2979.41
v -139124.51 -15145.12 3033.50
v -139134.14 -15140.42 3033.50
v -139417.36 -15265.27 2995.93
v -139417.36 -15265.27 3033.50
v -139421.43 -15258.30 3033.50
v -139800.38 -15422.43 3008.50
v -139800.38 -15422.43 3033.50
v -139797.20 -15412.48 3033.50
v -139872.85 -15422.43 3008.50
v -140058.32 -14972.43 2972.50
v -140058.32 -14972.43 3033.50
v -139872.85 -15422.43 3033.50
v -139868.44 -15412.13 3033.50
v -140052.93 -14964.51 3033.50
v -140429.26 -14072.43 3008.50
v -140429.26 -14072.43 3033.50
v -140421.91 -14069.28 3033.50
v -131067.83 -48962.43 3453.30
v -131249.74 -49344.96 3422.70
v -131249.74 -49344.96 3478.30
v -131067.83 -48962.43 3478.30
v -131075.25 -48959.41 3478.30
v -131255.02 -49337.43 3478.30
v -131624.51 -49381.16 3419.80
v -131624.51 -49381.16 3478.30
v -131630.69 -49373.72 3478.30
v -131922.88 -49409.99 3453.30
v -131922.88 -49409.99 3478.30
v -131929.77 -49402.61 3478.30
v -135772.15 -31025.07 3896.30
v -135589.40 -31007.54 3889.69
v -135589.40 -31007.54 3921.30
v -135772.15 -31025.07 3921.30
v -135777.48 -31033.62 3921.30
v -135595.66 -31016.18 3921.30
v -135377.18 -30987.19 3882.02
v -135377.18 -30987.19 3921.30
v -135384.51 -30995.93 3921.30
v -135359.84 -31207.76 3872.50
v -135359.84 -31207.76 3921.30
v -135367.28 -31215.20 3921.30
v -135357.33 -31239.61 3871.13
v -135357.33 -31239.61 3921.30
v -135364.79 -31246.87 3921.30
v -135260.42 -32472.43 3817.94
v -135260.42 -32472.43 3921.30
v -135268.45 -32472.47 3921.30
v -135177.64 -33525.56 3856.75
v -135177.64 -33525.56 3921.30
v -135186.14 -33519.42 3921.30
v -135157.39 -33783.07 3866.24
v -135157.39 -33783.07 3921.30
v -135166.02 -33775.43 3921.30
v -135307.48 -33789.47 3872.50
v -135307.48 -33789.47 3921.30
v -135314.13 -33781.74 3921.30
v -135447.52 -33795.43 3878.34
v -135447.52 -33795.43 3921.30
v -135452.33 -33787.63 3921.30
v -135787.67 -33809.93 3892.53
v -135787.67 -33809.93 3921.30
v -135788.01 -33801.93 3921.30
v -135878.12 -33813.83 3896.30
v -135878.12 -33813.83 3921.30
v -135878.46 -33805.84 3921.30
v -121425.01 -29387.93 3787.90
v -121040.01 -29387.93 3772.50
v -121040.01 -29387.93 3812.90
v -121425.01 -29387.93 3812.90
v -121427.60 -29395.93 3812.90
v -121044.16 -29395.93 3812.90
v -120655.01 -29387.93 3787.90
v -120655.01 -29387.93 3812.90
v -120660.71 -29395.93 3812.90
v -120414.51 -30797.43 3787.90
v -120799.51 -30797.43 3772.50
v -120799.51 -30797.43 3812.90
v -120414.51 -30797.43 3812.90
v -120420.84 -30789.43 3812.90
v -120804.32 -30789.43 3812.90
v -121624.51 -30797.43 3739.50
v -121624.51 -30797.43 3812.90
v -121626.06 -30789.43 3812.90
v -122449.51 -30797.43 3772.50
v -122449.51 -30797.43 3812.90
v -122447.80 -30789.43 3812.90
v -122642.01 -30797.43 3787.90
v -122642.01 -30797.43 3812.90
v -122639.54 -30789.43 3812.90
v -114323.55 -16240.32 2121.70
v -114124.51 -16455.30 2091.13
v -114124.51 -16455.30 2146.70
v -114323.55 -16240.32 2146.70
v -114333.22 -16241.65 2146.70
v -114134.33 -16456.47 2146.70
v -113635.52 -16983.44 2074.70
v -113635.52 -16983.44 2146.70
v -113645.69 -16984.23 2146.70
v -113182.78 -17472.43 2097.16
v -113182.78 -17472.43 2146.70
v -113193.28 -17472.86 2146.70
v -113010.38 -17658.64 2090.82
v -113010.38 -17658.64 2146.70
v -113021.01 -17658.93 2146.70
v -113251.03 -17949.40 2121.70
v -113251.03 -17949.40 2146.70
v -113258.96 -17946.43 2146.70
v -118455.29 -34358.30 3348.40
v -118453.48 -34737.90 3318.10
v -118453.48 -34737.90 3373.40
v -118455.29 -34358.30 3373.40
v -118463.28 -34359.75 3373.40
v -118461.51 -34729.93 3373.40
v -118892.03 -34739.94 3300.40
v -118892.03 -34739.94 3373.40
v -118897.46 -34731.97 3373.40
v -119124.51 -34741.03 3300.27
v -119124.51 -34741.03 3373.40
v -119128.56 -34733.05 3373.40
v -119354.84 -34742.11 3309.35
v -119354.84 -34742.11 3373.40
v -119357.52 -34734.12 3373.40
v -120344.92 -34746.74 3348.40
v -120344.92 -34746.74 3373.40
v -120341.71 -34738.72 3373.40
v -118053.85 -245.85 2307.80
v -117142.15 -490.07 2251.79
v -117142.15 -490.07 2332.80
v -118053.85 -245.85 2332.80
v -118050.17 -255.12 2332.80
v -117142.87 -498.15 2332.80
v -116624.51 -628.72 2246.25
v -116624.51 -628.72 2332.80
v -116627.74 -636.14 2332.80
v -115736.14 -866.69 2307.80
v -115736.14 -866.69 2332.80
v -115743.65 -872.96 2332.80
v -115356.06 -1344.93 2307.80
v -115425.86 -1604.73 2276.62
v -115425.86 -1604.73 2332.80
v -115356.06 -1344.93 2332.80
v -115363.47 -1341.71 2332.80
v -115431.51 -1594.93 2332.80
v -115686.92 -1534.84 2285.01
v -115686.92 -1534.84 2332.80
v -115691.32 -1525.38 2332.80
v -116624.51 -1283.84 2220.04
v -116624.51 -1283.84 2332.80
v -116624.43 -1275.58 2332.80
v -117658.99 -1006.90 2231.12
v -117658.99 -1006.90 2332.80
v -117653.94 -999.97 2332.80
v -118247.62 -849.32 2267.27
v -118247.62 -849.32 2332.80
v -118239.76 -843.15 2332.80
v -118646.29 -742.60 2291.76
v -118646.29 -742.60 2332.80
v -118636.51 -736.93 2332.80
v -118614.29 -621.59 2300.16
v -118614.29 -621.59 2332.80
v -118604.52 -615.93 2332.80
v -118738.59 -588.22 2307.80
v -118738.59 -588.22 2332.80
v -118728.81 -582.56 2332.80
v -112549.95 -18921.57 2104.50
v -112296.01 -18668.13 2074.05
v -112296.01 -18668.13 2129.50
v -112549.95 -18921.57 2129.50
v -112547.15 -18930.08 2129.50
v -112296.01 -18679.43 2129.50
v -111624.51 -19338.82 2047.16
v -111624.51 -19338.82 2129.50
v -111624.52 -19350.12 2129.50
v -111307.52 -19655.44 2047.14
v -111307.52 -19655.44 2129.50
v -111307.52 -19666.74 2129.50
v -110990.15 -19972.43 2072.50
v -110990.15 -19972.43 2129.50
v -110990.15 -19983.74 2129.50
v -110875.72 -20086.72 2104.50
v -110875.72 -20086.72 2129.50
v -110875.73 -20098.02 2129.50
v -99789.23 -9834.29 1635.90
v -99909.44 -9972.43 1609.71
v -99909.44 -9972.43 1660.90
v -99789.23 -9834.29 1660.90
v -99791.39 -9824.58 1660.90
v -99911.93 -9963.11 1660.90
v -99934.45 -10001.18 1605.41
v -99934.45 -10001.18 1660.90
v -99937.01 -9991.93 1660.90
v -100022.85 -9972.43 1600.63
v -100022.85 -9972.43 1660.90
v -100025.30 -9963.22 1660.90
v -101231.48 -9579.40 1551.11
v -101231.48 -9579.40 1660.90
v -101232.37 -9570.70 1660.90
v -101624.51 -9451.59 1514.17
v -101624.51 -9451.59 1660.90
v -101624.90 -9443.05 1660.90
v -102396.35 -9200.60 1503.37
v -102396.35 -9200.60 1660.90
v -102395.74 -9192.39 1660.90
v -103118.01 -8965.93 1493.28
v -103118.01 -8965.93 1660.90
v -103116.47 -8958.01 1660.90
v -104124.51 -8638.62 1479.20
v -104124.51 -8638.62 1660.90
v -104121.68 -8631.13 1660.90
v -105004.53 -8352.45 1572.50
v -105004.53 -8352.45 1660.90
v -105000.57 -8345.33 1660.90
v -106101.08 -7995.87 1630.63
v -106101.08 -7995.87 1660.90
v -106095.70 -7989.20 1660.90
v -106200.59 -7963.51 1635.90
v -106200.59 -7963.51 1660.90
v -106195.09 -7956.89 1660.90
v -101327.55 -9562.88 1540.90
v -101624.51 -9466.31 1512.99
v -101624.51 -9466.31 1585.90
v -101327.55 -9562.88 1585.90
v -101328.89 -9547.73 1585.90
v -101625.19 -9451.37 1585.90
v -102374.53 -9222.42 1502.50
v -102374.53 -9222.42 1585.90
v -102373.52 -9208.02 1585.90
v -102846.51 -9068.94 1495.90
v -102846.51 -9068.94 1585.90
v -102844.44 -9054.89 1585.90
v -103129.12 -8977.03 1491.95
v -103129.12 -8977.03 1540.90
v -102846.51 -9068.94 1540.90
v -102844.44 -9054.89 1540.90
v -103126.41 -8963.19 1540.90
v -104124.51 -8653.34 1478.03
v -104124.51 -8653.34 1540.90
v -104119.57 -8640.23 1540.90
v -104293.10 -8598.52 1495.90
v -104293.10 -8598.52 1540.90
v -104287.78 -8585.53 1540.90
v -104717.57 -8460.49 1540.90
v -104717.57 -8460.49 1585.90
v -104293.10 -8598.52 1585.90
v -104287.78 -8585.53 1585.90
v -104711.29 -8447.81 1585.90
v -101328.89 -9547.73 1540.90
v -104711.29 -8447.81 1540.90
vt -321.4756 7.6723
vt -321.1415 7.6117
vt -321.1415 7.7348
vt -321.4756 7.7348
vt -321.4475 7.7348
vt -321.1179 7.7348
vt -320.7967 7.5979
vt -320.7967 7.7348
vt -320.7777 7.7348
vt -320.1706 7.5729
vt -320.1706 7.7348
vt -320.1633 7.7348
vt -319.3522 7.6038
vt -319.3522 7.7348
vt -319.3602 7.7348
vt -317.5387 7.6723
vt -317.5387 7.7348
vt -317.5712 7.7348
vt -284.4884 9.9642
vt -284.8702 9.9092
vt -284.8702 10.0267
vt -284.4884 10.0267
vt -284.4563 10.0267
vt -284.8340 10.0267
vt -282.3417 9.8028
vt -282.3417 10.0267
vt -282.3198 10.0267
vt -279.1302 9.8434
vt -279.1302 10.0267
vt -279.1266 10.0267
vt -275.5384 9.8887
vt -275.5384 10.0267
vt -275.5552 10.0267
vt -274.9683 9.9313
vt -274.9683 10.0267
vt -274.9887 10.0267
vt -274.7468 9.9642
vt -274.7468 10.0267
vt -274.7687 10.0267
vt -312.6302 7.5213
vt -311.4994 7.4760
vt -311.4994 7.5838
vt -312.6302 7.5838
vt -312.6575 7.5838
vt -311.5365 7.5838
vt -311.8709 7.4909
vt -311.8709 7.5838
vt -311.9079 7.5838
vt -312.2057 7.4816
vt -312.2057 7.5838
vt -312.2427 7.5838
vt -310.5519 7.4347
vt -310.5519 7.5838
vt -310.5889 7.5838
vt -310.4308 7.4313
vt -310.4308 7.5838
vt -310.4678 7.5838
vt -310.3802 7.4341
vt -310.3802 7.5838
vt -310.4172 7.5838
vt -310.2572 7.4362
vt -310.2572 7.5838
vt -310.2942 7.5838
vt -309.8845 7.4467
vt -309.8845 7.5838
vt -309.9215 7.5838
vt -309.9485 7.4485
vt -309.9485 7.5838
vt -309.9843 7.5838
vt -310.3802 7.4898
vt -310.3802 7.5838
vt -310.4078 7.5838
vt -310.9449 7.5213
vt -310.9449 7.5838
vt -310.9618 7.5838
vt -311.1261 7.5213
vt -312.7147 7.4313
vt -312.7147 7.5838
vt -311.1261 7.5838
vt -311.1408 7.5838
vt -312.7210 7.5838
vt -315.8921 7.5213
vt -315.8921 7.5838
vt -315.8816 7.5838
vt -205.2635 8.6333
vt -204.7619 8.5567
vt -204.7619 8.6958
vt -205.2635 8.6958
vt -205.2896 8.6958
vt -204.7940 8.6958
vt -205.6084 8.5495
vt -205.6084 8.6958
vt -205.6424 8.6958
vt -206.2822 8.6333
vt -206.2822 8.6958
vt -206.3179 8.6958
vt -261.8677 9.7408
vt -261.4546 9.7242
vt -261.4546 9.8033
vt -261.8677 9.8033
vt -261.8597 9.8033
vt -261.4487 9.8033
vt -260.9750 9.7050
vt -260.9750 9.8033
vt -260.9715 9.8033
vt -260.3802 9.6813
vt -260.3802 9.8033
vt -260.3802 9.8033
vt -260.2943 9.6778
vt -260.2943 9.8033
vt -260.2948 9.8033
vt -256.9700 9.5449
vt -256.9700 9.8033
vt -256.9900 9.8033
vt -254.1302 9.6419
vt -254.1302 9.8033
vt -254.1668 9.8033
vt -253.4358 9.6656
vt -253.4358 9.8033
vt -253.4765 9.8033
vt -253.7950 9.6813
vt -253.7950 9.8033
vt -253.8310 9.8033
vt -254.1302 9.6959
vt -254.1302 9.8033
vt -254.1617 9.8033
vt -254.9444 9.7313
vt -254.9444 9.8033
vt -254.9652 9.8033
vt -255.1607 9.7408
vt -255.1607 9.8033
vt -255.1815 9.8033
vt -230.0927 9.4697
vt -229.1302 9.4313
vt -229.1302 9.5322
vt -230.0927 9.5322
vt -230.0792 9.5322
vt -229.1206 9.5322
vt -228.1677 9.4697
vt -228.1677 9.5322
vt -228.1619 9.5322
vt -224.0427 9.4697
vt -225.0052 9.4313
vt -225.0052 9.5322
vt -224.0427 9.5322
vt -224.0785 9.5322
vt -225.0372 9.5322
vt -227.0677 9.3488
vt -227.0677 9.5322
vt -227.0916 9.5322
vt -229.1302 9.4313
vt -229.1302 9.5322
vt -229.1459 9.5322
vt -229.6114 9.4697
vt -229.6114 9.5322
vt -229.6253 9.5322
vt -245.2081 5.3042
vt -244.1730 5.2278
vt -244.1730 5.3667
vt -245.2081 5.3667
vt -245.2289 5.3667
vt -244.1946 5.3667
vt -241.6302 5.1867
vt -241.6302 5.3667
vt -241.6537 5.3667
vt -239.2759 5.2429
vt -239.2759 5.3667
vt -239.3011 5.3667
vt -238.3794 5.2271
vt -238.3794 5.3667
vt -238.4052 5.3667
vt -238.2541 5.3042
vt -238.2541 5.3667
vt -238.2813 5.3667
vt -210.2425 8.3710
vt -209.2889 8.2952
vt -209.2889 8.4335
vt -210.2425 8.4335
vt -210.2588 8.4335
vt -209.3289 8.4335
vt -210.3802 8.2510
vt -210.3802 8.4335
vt -210.4137 8.4335
vt -210.9587 8.2507
vt -210.9587 8.4335
vt -210.9888 8.4335
vt -211.5318 8.2734
vt -211.5318 8.4335
vt -211.5585 8.4335
vt -213.9954 8.3710
vt -213.9954 8.4335
vt -214.0075 8.4335
vt -294.5200 5.7695
vt -291.6302 5.6295
vt -291.6302 5.8320
vt -294.5200 5.8320
vt -294.4876 5.8320
vt -291.6118 5.8320
vt -289.9895 5.6156
vt -289.9895 5.8320
vt -289.9790 5.8320
vt -287.1736 5.7695
vt -287.1736 5.8320
vt -287.1767 5.8320
vt -285.0278 5.7695
vt -284.5528 5.6915
vt -284.5528 5.8320
vt -285.0278 5.8320
vt -285.0544 5.8320
vt -284.5915 5.8320
vt -285.3802 5.7125
vt -285.3802 5.8320
vt -285.4149 5.8320
vt -288.3517 5.5501
vt -288.3517 5.8320
vt -288.3721 5.8320
vt -291.6302 5.5778
vt -291.6302 5.8320
vt -291.6349 5.8320
vt -293.4957 5.6682
vt -293.4957 5.8320
vt -293.4915 5.8320
vt -294.7592 5.7294
vt -294.7592 5.8320
vt -294.7489 5.8320
vt -294.9817 5.7504
vt -294.9817 5.8320
vt -294.9715 5.8320
vt -295.3759 5.7695
vt -295.3759 5.8320
vt -295.3656 5.8320
vt -234.0710 5.2613
vt -234.0697 5.1851
vt -234.0697 5.3238
vt -234.0710 5.3238
vt -234.0427 5.3238
vt -234.0414 5.3238
vt -230.7142 5.1179
vt -230.7142 5.3238
vt -230.6860 5.3238
vt -229.1302 5.1179
vt -229.1302 5.3238
vt -229.1019 5.3238
vt -227.5443 5.1813
vt -227.5443 5.3238
vt -227.5160 5.3238
vt -226.9725 5.2613
vt -226.9725 5.3238
vt -226.9443 5.3238
vt -224.8873 4.0898
vt -224.8425 4.0243
vt -224.8425 4.1523
vt -224.8873 4.1523
vt -224.9170 4.1523
vt -224.8720 4.1523
vt -224.8332 4.0135
vt -224.8332 4.1523
vt -224.8627 4.1523
vt -225.1261 4.0016
vt -225.1261 4.1523
vt -225.1552 4.1523
vt -229.1302 3.8778
vt -229.1302 4.1523
vt -229.1542 4.1523
vt -230.4323 3.7854
vt -230.4323 4.1523
vt -230.4546 4.1523
vt -232.9894 3.7584
vt -232.9894 4.1523
vt -233.0084 4.1523
vt -235.3802 3.7332
vt -235.3802 4.1523
vt -235.3962 4.1523
vt -238.7147 3.6980
vt -238.7147 4.1523
vt -238.7264 4.1523
vt -241.6302 3.9312
vt -241.6302 4.1523
vt -241.6381 4.1523
vt -245.2630 4.0766
vt -245.2630 4.1523
vt -245.2663 4.1523
vt -245.5927 4.0898
vt -245.5927 4.1523
vt -245.5955 4.1523
vt -229.4117 3.8523
vt -230.3955 3.7825
vt -230.3955 3.9648
vt -229.4117 3.9648
vt -229.4529 3.9648
vt -230.4346 3.9648
vt -232.8803 3.7563
vt -232.8803 3.9648
vt -232.9137 3.9648
vt -234.4439 3.7398
vt -234.4439 3.9648
vt -234.4739 3.9648
vt -235.3802 3.7299
vt -235.3802 3.8523
vt -234.4439 3.8523
vt -234.4739 3.8523
vt -235.4081 3.8523
vt -238.6779 3.6951
vt -238.6779 3.8523
vt -238.6984 3.8523
vt -239.2364 3.7398
vt -239.2364 3.8523
vt -239.2556 3.8523
vt -240.6427 3.8523
vt -240.6427 3.9648
vt -239.2364 3.9648
vt -239.2556 3.9648
vt -240.6587 3.9648
vt -229.4529 3.8523
vt -240.6587 3.8523
vn -0.4756 0.8797 0.0000
vn 0.0000 -0.0000 1.0000
vn 0.8789 0.4771 0.0000
vn 0.8787 0.4774 0.0000
vn -0.9069 0.4213 0.0000
vn 0.4193 0.9079 0.0000
vn 0.9074 -0.4203 0.0000
vn 0.9245 0.3813 0.0000
vn 0.3795 -0.9252 0.0000
vn 0.9249 0.3802 0.0000
vn 0.3796 -0.9252 0.0000
vn -0.9245 -0.3811 0.0000
vn 0.9031 -0.4295 0.0000
vn 0.0962 -0.9954 0.0000
vn -0.0955 0.9954 0.0000
vn 0.9969 0.0784 0.0000
vn 0.0426 -0.9991 0.0000
vn 0.0431 -0.9991 0.0000
vn 0.0000 1.0000 0.0000
vn 0.0000 -1.0000 0.0000
vn 0.7338 0.6794 0.0000
vn 0.7704 -0.6376 0.0000
vn 1.0000 0.0048 0.0000
vn 0.0047 -1.0000 0.0000
vn 0.2587 0.9659 0.0000
vn 0.9657 -0.2595 0.0000
vn -0.2586 -0.9660 0.0000
vn -0.9668 0.2556 0.0000
vn -0.2593 -0.9658 0.0000
vn -0.7064 0.7078 0.0000
vn 0.7067 0.7075 0.0000
vn 0.7544 -0.6564 0.0000
vn -0.3092 -0.9510 0.0000
vn 0.9961 0.0880 0.0000
vn -0.9893 0.1461 0.0000
vn 0.9253 -0.3793 0.0000
vn -0.8961 0.4438 0.0000
f 1/1/1 3/3/1 2/2/1
f 1/1/1 4/4/1 3/3/1
f 5/5/2 6/6/2 3/3/2
f 5/5/2 3/3/2 4/4/2
f 2/2/1 8/8/1 7/7/1
f 2/2/1 3/3/1 8/8/1
f 6/6/2 9/9/2 8/8/2
f 6/6/2 8/8/2 3/3/2
f 7/7/3 11/11/3 10/10/3
f 7/7/3 8/8/3 11/11/3
f 9/9/2 12/12/2 11/11/2
f 9/9/2 11/11/2 8/8/2
f 10/10/3 14/14/3 13/13/3
f 10/10/3 11/11/3 14/14/3
f 12/12/2 15/15/2 14/14/2
f 12/12/2 14/14/2 11/11/2
f 13/13/4 17/17/4 16/16/4
f 13/13/4 14/14/4 17/17/4
f 15/15/2 18/18/2 17/17/2
f 15/15/2 17/17/2 14/14/2
f 19/19/5 21/21/5 20/20/5
f 19/19/5 22/22/5 21/21/5
f 23/23/2 24/24/2 21/21/2
f 23/23/2 21/21/2 22/22/2
f 20/20/6 26/26/6 25/25/6
f 20/20/6 21/21/6 26/26/6
f 24/24/2 27/27/2 26/26/2
f 24/24/2 26/26/2 21/21/2
f 25/25/6 29/29/6 28/28/6
f 25/25/6 26/26/6 29/29/6
f 27/27/2 30/30/2 29/29/2
f 27/27/2 29/29/2 26/26/2
f 28/28/6 32/32/6 31/31/6
f 28/28/6 29/29/6 32/32/6
f 30/30/2 33/33/2 32/32/2
f 30/30/2 32/32/2 29/29/2
f 31/31/7 35/35/7 34/34/7
f 31/31/7 32/32/7 35/35/7
f 33/33/2 36/36/2 35/35/2
f 33/33/2 35/35/2 32/32/2
f 34/34/7 38/38/7 37/37/7
f 34/34/7 35/35/7 38/38/7
f 36/36/2 39/39/2 38/38/2
f 36/36/2 38/38/2 35/35/2
f 40/40/8 42/42/8 41/41/8
f 40/40/8 43/43/8 42/42/8
f 44/44/2 45/45/2 42/42/2
f 44/44/2 42/42/2 43/43/2
f 41/41/9 47/47/9 46/46/9
f 41/41/9 42/42/9 47/47/9
f 45/45/2 48/48/2 47/47/2
f 45/45/2 47/47/2 42/42/2
f 46/46/9 50/50/9 49/49/9
f 46/46/9 47/47/9 50/50/9
f 48/48/2 51/51/2 50/50/2
f 48/48/2 50/50/2 47/47/2
f 49/49/10 53/53/10 52/52/10
f 49/49/10 50/50/10 53/53/10
f 51/51/2 54/54/2 53/53/2
f 51/51/2 53/53/2 50/50/2
f 52/52/10 56/56/10 55/55/10
f 52/52/10 53/53/10 56/56/10
f 54/54/2 57/57/2 56/56/2
f 54/54/2 56/56/2 53/53/2
f 55/55/10 59/59/10 58/58/10
f 55/55/10 56/56/10 59/59/10
f 57/57/2 60/60/2 59/59/2
f 57/57/2 59/59/2 56/56/2
f 58/58/10 62/62/10 61/61/10
f 58/58/10 59/59/10 62/62/10
f 60/60/2 63/63/2 62/62/2
f 60/60/2 62/62/2 59/59/2
f 61/61/10 65/65/10 64/64/10
f 61/61/10 62/62/10 65/65/10
f 63/63/2 66/66/2 65/65/2
f 63/63/2 65/65/2 62/62/2
f 64/64/11 68/68/11 67/67/11
f 64/64/11 65/65/11 68/68/11
f 66/66/2 69/69/2 68/68/2
f 66/66/2 68/68/2 65/65/2
f 67/67/11 71/71/11 70/70/11
f 67/67/11 68/68/11 71/71/11
f 69/69/2 72/72/2 71/71/2
f 69/69/2 71/71/2 68/68/2
f 70/70/11 74/74/11 73/73/11
f 70/70/11 71/71/11 74/74/11
f 72/72/2 75/75/2 74/74/2
f 72/72/2 74/74/2 71/71/2
f 76/76/12 78/78/12 77/77/12
f 76/76/12 79/79/12 78/78/12
f 80/80/2 81/81/2 78/78/2
f 80/80/2 78/78/2 79/79/2
f 77/77/12 83/83/12 82/82/12
f 77/77/12 78/78/12 83/83/12
f 81/81/2 84/84/2 83/83/2
f 81/81/2 83/83/2 78/78/2
f 85/85/13 87/87/13 86/86/13
f 85/85/13 88/88/13 87/87/13
f 89/89/2 90/90/2 87/87/2
f 89/89/2 87/87/2 88/88/2
f 86/86/14 92/92/14 91/91/14
f 86/86/14 87/87/14 92/92/14
f 90/90/2 93/93/2 92/92/2
f 90/90/2 92/92/2 87/87/2
f 91/91/14 95/95/14 94/94/14
f 91/91/14 92/92/14 95/95/14
f 93/93/2 96/96/2 95/95/2
f 93/93/2 95/95/2 92/92/2
f 97/97/15 99/99/15 98/98/15
f 97/97/15 100/100/15 99/99/15
f 101/101/2 102/102/2 99/99/2
f 101/101/2 99/99/2 100/100/2
f 98/98/15 104/104/15 103/103/15
f 98/98/15 99/99/15 104/104/15
f 102/102/2 105/105/2 104/104/2
f 102/102/2 104/104/2 99/99/2
f 103/103/16 107/107/16 106/106/16
f 103/103/16 104/104/16 107/107/16
f 105/105/2 108/108/2 107/107/2
f 105/105/2 107/107/2 104/104/2
f 106/106/16 110/110/16 109/109/16
f 106/106/16 107/107/16 110/110/16
f 108/108/2 111/111/2 110/110/2
f 108/108/2 110/110/2 107/107/2
f 109/109/16 113/113/16 112/112/16
f 109/109/16 110/110/16 113/113/16
f 111/111/2 114/114/2 113/113/2
f 111/111/2 113/113/2 110/110/2
f 112/112/16 116/116/16 115/115/16
f 112/112/16 113/113/16 116/116/16
f 114/114/2 117/117/2 116/116/2
f 114/114/2 116/116/2 113/113/2
f 115/115/16 119/119/16 118/118/16
f 115/115/16 116/116/16 119/119/16
f 117/117/2 120/120/2 119/119/2
f 117/117/2 119/119/2 116/116/2
f 118/118/17 122/122/17 121/121/17
f 118/118/17 119/119/17 122/122/17
f 120/120/2 123/123/2 122/122/2
f 120/120/2 122/122/2 119/119/2
f 121/121/17 125/125/17 124/124/17
f 121/121/17 122/122/17 125/125/17
f 123/123/2 126/126/2 125/125/2
f 123/123/2 125/125/2 122/122/2
f 124/124/17 128/128/17 127/127/17
f 124/124/17 125/125/17 128/128/17
f 126/126/2 129/129/2 128/128/2
f 126/126/2 128/128/2 125/125/2
f 127/127/18 131/131/18 130/130/18
f 127/127/18 128/128/18 131/131/18
f 129/129/2 132/132/2 131/131/2
f 129/129/2 131/131/2 128/128/2
f 133/133/19 135/135/19 134/134/19
f 133/133/19 136/136/19 135/135/19
f 137/137/2 138/138/2 135/135/2
f 137/137/2 135/135/2 136/136/2
f 134/134/19 140/140/19 139/139/19
f 134/134/19 135/135/19 140/140/19
f 138/138/2 141/141/2 140/140/2
f 138/138/2 140/140/2 135/135/2
f 142/142/20 144/144/20 143/143/20
f 142/142/20 145/145/20 144/144/20
f 146/146/2 147/147/2 144/144/2
f 146/146/2 144/144/2 145/145/2
f 143/143/20 149/149/20 148/148/20
f 143/143/20 144/144/20 149/149/20
f 147/147/2 150/150/2 149/149/2
f 147/147/2 149/149/2 144/144/2
f 148/148/20 152/152/20 151/151/20
f 148/148/20 149/149/20 152/152/20
f 150/150/2 153/153/2 152/152/2
f 150/150/2 152/152/2 149/149/2
f 151/151/20 155/155/20 154/154/20
f 151/151/20 152/152/20 155/155/20
f 153/153/2 156/156/2 155/155/2
f 153/153/2 155/155/2 152/152/2
f 157/157/21 159/159/21 158/158/21
f 157/157/21 160/160/21 159/159/21
f 161/161/2 162/162/2 159/159/2
f 161/161/2 159/159/2 160/160/2
f 158/158/21 164/164/21 163/163/21
f 158/158/21 159/159/21 164/164/21
f 162/162/2 165/165/2 164/164/2
f 162/162/2 164/164/2 159/159/2
f 163/163/21 167/167/21 166/166/21
f 163/163/21 164/164/21 167/167/21
f 165/165/2 168/168/2 167/167/2
f 165/165/2 167/167/2 164/164/2
f 166/166/21 170/170/21 169/169/21
f 166/166/21 167/167/21 170/170/21
f 168/168/2 171/171/2 170/170/2
f 168/168/2 170/170/2 167/167/2
f 169/169/22 173/173/22 172/172/22
f 169/169/22 170/170/22 173/173/22
f 171/171/2 174/174/2 173/173/2
f 171/171/2 173/173/2 170/170/2
f 175/175/23 177/177/23 176/176/23
f 175/175/23 178/178/23 177/177/23
f 179/179/2 180/180/2 177/177/2
f 179/179/2 177/177/2 178/178/2
f 176/176/24 182/182/24 181/181/24
f 176/176/24 177/177/24 182/182/24
f 180/180/2 183/183/2 182/182/2
f 180/180/2 182/182/2 177/177/2
f 181/181/24 185/185/24 184/184/24
f 181/181/24 182/182/24 185/185/24
f 183/183/2 186/186/2 185/185/2
f 183/183/2 185/185/2 182/182/2
f 184/184/24 188/188/24 187/187/24
f 184/184/24 185/185/24 188/188/24
f 186/186/2 189/189/2 188/188/2
f 186/186/2 188/188/2 185/185/2
f 187/187/24 191/191/24 190/190/24
f 187/187/24 188/188/24 191/191/24
f 189/189/2 192/192/2 191/191/2
f 189/189/2 191/191/2 188/188/2
f 193/193/25 195/195/25 194/194/25
f 193/193/25 196/196/25 195/195/25
f 197/197/2 198/198/2 195/195/2
f 197/197/2 195/195/2 196/196/2
f 194/194/25 200/200/25 199/199/25
f 194/194/25 195/195/25 200/200/25
f 198/198/2 201/201/2 200/200/2
f 198/198/2 200/200/2 195/195/2
f 199/199/25 203/203/25 202/202/25
f 199/199/25 200/200/25 203/203/25
f 201/201/2 204/204/2 203/203/2
f 201/201/2 203/203/2 200/200/2
f 205/205/26 207/207/26 206/206/26
f 205/205/26 208/208/26 207/207/26
f 209/209/2 210/210/2 207/207/2
f 209/209/2 207/207/2 208/208/2
f 206/206/27 212/212/27 211/211/27
f 206/206/27 207/207/27 212/212/27
f 210/210/2 213/213/2 212/212/2
f 210/210/2 212/212/2 207/207/2
f 211/211/27 215/215/27 214/214/27
f 211/211/27 212/212/27 215/215/27
f 213/213/2 216/216/2 215/215/2
f 213/213/2 215/215/2 212/212/2
f 214/214/27 218/218/27 217/217/27
f 214/214/27 215/215/27 218/218/27
f 216/216/2 219/219/2 218/218/2
f 216/216/2 218/218/2 215/215/2
f 217/217/27 221/221/27 220/220/27
f 217/217/27 218/218/27 221/221/27
f 219/219/2 222/222/2 221/221/2
f 219/219/2 221/221/2 218/218/2
f 220/220/27 224/224/27 223/223/27
f 220/220/27 221/221/27 224/224/27
f 222/222/2 225/225/2 224/224/2
f 222/222/2 224/224/2 221/221/2
f 223/223/28 227/227/28 226/226/28
f 223/223/28 224/224/28 227/227/28
f 225/225/2 228/228/2 227/227/2
f 225/225/2 227/227/2 224/224/2
f 226/226/29 230/230/29 229/229/29
f 226/226/29 227/227/29 230/230/29
f 228/228/2 231/231/2 230/230/2
f 228/228/2 230/230/2 227/227/2
f 232/232/30 234/234/30 233/233/30
f 232/232/30 235/235/30 234/234/30
f 236/236/2 237/237/2 234/234/2
f 236/236/2 234/234/2 235/235/2
f 233/233/31 239/239/31 238/238/31
f 233/233/31 234/234/31 239/239/31
f 237/237/2 240/240/2 239/239/2
f 237/237/2 239/239/2 234/234/2
f 238/238/31 242/242/31 241/241/31
f 238/238/31 239/239/31 242/242/31
f 240/240/2 243/243/2 242/242/2
f 240/240/2 242/242/2 239/239/2
f 241/241/31 245/245/31 244/244/31
f 241/241/31 242/242/31 245/245/31
f 243/243/2 246/246/2 245/245/2
f 243/243/2 245/245/2 242/242/2
f 244/244/31 248/248/31 247/247/31
f 244/244/31 245/245/31 248/248/31
f 246/246/2 249/249/2 248/248/2
f 246/246/2 248/248/2 245/245/2
f 250/250/32 252/252/32 251/251/32
f 250/250/32 253/253/32 252/252/32
f 254/254/2 255/255/2 252/252/2
f 254/254/2 252/252/2 253/253/2
f 251/251/32 257/257/32 256/256/32
f 251/251/32 252/252/32 257/257/32
f 255/255/2 258/258/2 257/257/2
f 255/255/2 257/257/2 252/252/2
f 256/256/33 260/260/33 259/259/33
f 256/256/33 257/257/33 260/260/33
f 258/258/2 261/261/2 260/260/2
f 258/258/2 260/260/2 257/257/2
f 259/259/33 263/263/33 262/262/33
f 259/259/33 260/260/33 263/263/33
f 261/261/2 264/264/2 263/263/2
f 261/261/2 263/263/2 260/260/2
f 262/262/33 266/266/33 265/265/33
f 262/262/33 263/263/33 266/266/33
f 264/264/2 267/267/2 266/266/2
f 264/264/2 266/266/2 263/263/2
f 265/265/33 269/269/33 268/268/33
f 265/265/33 266/266/33 269/269/33
f 267/267/2 270/270/2 269/269/2
f 267/267/2 269/269/2 266/266/2
f 268/268/33 272/272/33 271/271/33
f 268/268/33 269/269/33 272/272/33
f 270/270/2 273/273/2 272/272/2
f 270/270/2 272/272/2 269/269/2
f 271/271/33 275/275/33 274/274/33
f 271/271/33 272/272/33 275/275/33
f 273/273/2 276/276/2 275/275/2
f 273/273/2 275/275/2 272/272/2
f 274/274/33 278/278/33 277/277/33
f 274/274/33 275/275/33 278/278/33
f 276/276/2 279/279/2 278/278/2
f 276/276/2 278/278/2 275/275/2
f 277/277/33 281/281/33 280/280/33
f 277/277/33 278/278/33 281/281/33
f 279/279/2 282/282/2 281/281/2
f 279/279/2 281/281/2 278/278/2
f 280/280/33 284/284/33 283/283/33
f 280/280/33 281/281/33 284/284/33
f 282/282/2 285/285/2 284/284/2
f 282/282/2 284/284/2 281/281/2
f 286/286/33 288/288/33 287/287/33
f 286/286/33 289/289/33 288/288/33
f 290/290/2 291/291/2 288/288/2
f 290/290/2 288/288/2 289/289/2
f 287/287/33 293/293/33 292/292/33
f 287/287/33 288/288/33 293/293/33
f 291/291/2 294/294/2 293/293/2
f 291/291/2 293/293/2 288/288/2
f 292/292/33 296/296/33 295/295/33
f 292/292/33 293/293/33 296/296/33
f 294/294/2 297/297/2 296/296/2
f 294/294/2 296/296/2 293/293/2
f 295/295/33 299/299/33 298/298/33
f 295/295/33 300/300/33 299/299/33
f 301/301/2 302/302/2 299/299/2
f 301/301/2 299/299/2 300/300/2
f 298/298/33 304/304/33 303/303/33
f 298/298/33 299/299/33 304/304/33
f 302/302/2 305/305/2 304/304/2
f 302/302/2 304/304/2 299/299/2
f 303/303/33 307/307/33 306/306/33
f 303/303/33 304/304/33 307/307/33
f 305/305/2 308/308/2 307/307/2
f 305/305/2 307/307/2 304/304/2
f 306/306/33 310/310/33 309/309/33
f 306/306/33 311/311/33 310/310/33
f 312/312/2 313/313/2 310/310/2
f 312/312/2 310/310/2 311/311/2
f 286/286/34 314/314/34 290/290/34
f 286/286/34 290/290/34 289/289/34
f 300/300/35 297/297/35 301/301/35
f 300/300/35 296/296/35 297/297/35
f 307/307/36 308/308/36 312/312/36
f 307/307/36 312/312/36 311/311/36
f 309/309/37 313/313/37 315/315/37
f 309/309/37 310/310/37 313/313/37
