# Unreal legacy OBJ adapter: canonical vertices are UE cm; this file is written with Y reflected and triangle winding reversed. One object, no g groups, so the importer creates exactly one material slot.
# OldCityFoundationV2 foundations (plinth + stepped footing); generator 463404ba754c804f514fe655944ece4eb51a92e1273fec326ad5c2ebfbb18f24
# AUTHORED detail in the style of Old City stone foundations, not survey
o SM_OldCityFoundationV2_Kept_P000_N002
s off
v 5994.36 50295.15 573.69
v 5991.96 50310.52 574.50
v 5991.96 50310.52 599.50
v 5994.36 50295.15 599.50
v 6000.99 50304.57 599.50
v 5998.63 50319.64 599.50
v 6448.02 51222.63 574.50
v 6853.84 51278.59 544.27
v 6853.84 51278.59 599.50
v 6448.02 51222.63 599.50
v 6447.72 51214.52 599.50
v 6846.99 51269.57 599.50
v 6886.37 51038.45 532.06
v 6886.37 51038.45 599.50
v 6878.89 51034.08 599.50
v 6961.93 50480.64 554.38
v 6961.93 50480.64 599.50
v 6952.99 50487.07 599.50
v 6178.34 50330.42 560.39
v 6178.34 50330.42 599.50
v 6182.01 50339.27 599.50
v 8049.46 77821.89 188.60
v 8116.56 77527.57 155.35
v 8116.56 77527.57 213.60
v 8049.46 77821.89 213.60
v 8041.77 77819.66 213.60
v 8108.61 77526.49 213.60
v 8164.64 77316.72 139.97
v 8164.64 77316.72 213.60
v 8156.49 77316.46 213.60
v 8375.49 76391.91 163.35
v 8375.49 76391.91 213.60
v 8366.51 76395.26 213.60
v 8540.10 75669.89 155.27
v 8540.10 75669.89 213.60
v 8530.49 75676.07 213.60
v 8460.09 75653.31 188.60
v 8460.09 75653.31 213.60
v 8452.07 75659.82 213.60
v 10712.79 75998.54 -740.10
v 10770.92 76018.75 -764.97
v 10770.92 76018.75 -715.10
v 10712.79 75998.54 -715.10
v 10707.86 75988.35 -715.10
v 10765.99 76008.57 -715.10
v 10875.49 75717.17 -782.67
v 10875.49 75717.17 -715.10
v 10868.47 75712.97 -715.10
v 11035.16 75256.64 -771.37
v 11035.16 75256.64 -715.10
v 11024.99 75261.57 -715.10
v 10875.49 75201.23 -741.39
v 10875.49 75201.23 -715.10
v 10870.21 75207.87 -715.10
v 10872.46 75200.18 -740.10
v 10872.46 75200.18 -715.10
v 10867.28 75206.85 -715.10
v 12753.35 80382.35 -1160.50
v 12720.90 80027.57 -1196.58
v 12720.90 80027.57 -1135.50
v 12753.35 80382.35 -1135.50
v 12744.69 80375.50 -1135.50
v 12712.44 80022.90 -1135.50
v 12654.99 79307.07 -1212.22
v 12654.99 79307.07 -1135.50
v 12646.94 79306.83 -1135.50
v 12566.24 78336.82 -1198.02
v 12566.24 78336.82 -1135.50
v 12558.72 78342.52 -1135.50
v 12526.75 77905.21 -1191.70
v 12526.75 77905.21 -1135.50
v 12519.49 77913.57 -1135.50
v 12331.74 77914.47 -1160.50
v 12331.74 77914.47 -1135.50
v 12326.84 77922.72 -1135.50
v 13982.52 87770.96 -919.70
v 14107.54 87716.17 -951.28
v 14107.54 87716.17 -894.70
v 13982.52 87770.96 -894.70
v 13973.28 87766.28 -894.70
v 14096.99 87712.06 -894.70
v 14024.49 87527.57 -957.30
v 14024.49 87527.57 -894.70
v 14014.81 87525.45 -894.70
v 13826.08 87076.97 -953.67
v 13826.08 87076.97 -894.70
v 13818.50 87079.61 -894.70
v 13496.08 86327.52 -947.62
v 13496.08 86327.52 -894.70
v 13491.99 86338.07 -894.70
v 13377.36 86379.76 -919.70
v 13377.36 86379.76 -894.70
v 13373.26 86390.30 -894.70
v 15829.40 84511.27 -1555.90
v 15875.49 84497.30 -1569.92
v 15875.49 84497.30 -1530.90
v 15829.40 84511.27 -1530.90
v 15821.23 84505.38 -1530.90
v 15866.60 84491.64 -1530.90
v 15944.45 84476.41 -1577.11
v 15944.45 84476.41 -1530.90
v 15934.49 84471.07 -1530.90
v 15875.49 84247.90 -1589.87
v 15875.49 84247.90 -1530.90
v 15867.30 84248.47 -1530.90
v 15765.83 83884.60 -1588.23
v 15765.83 83884.60 -1530.90
v 15760.49 83894.57 -1530.90
v 15659.50 83916.61 -1555.90
v 15659.50 83916.61 -1530.90
v 15654.15 83926.58 -1530.90
v 16374.51 67926.45 -1323.30
v 16554.10 67988.29 -1354.51
v 16554.10 67988.29 -1298.30
v 16374.51 67926.45 -1298.30
v 16370.84 67916.73 -1298.30
v 16548.99 67978.07 -1298.30
v 16702.65 67527.57 -1359.85
v 16702.65 67527.57 -1298.30
v 16693.80 67528.94 -1298.30
v 16756.69 67359.97 -1348.38
v 16756.69 67359.97 -1298.30
v 16746.49 67365.57 -1298.30
v 16625.68 67325.64 -1323.30
v 16625.68 67325.64 -1298.30
v 16615.74 67331.30 -1298.30
v 20668.41 63154.91 -1944.80
v 20775.01 63176.13 -1977.19
v 20775.01 63176.13 -1919.80
v 20668.41 63154.91 -1919.80
v 20664.75 63146.02 -1919.80
v 20770.49 63167.07 -1919.80
v 20875.49 62966.64 -1980.19
v 20875.49 62966.64 -1919.80
v 20869.64 62960.33 -1919.80
v 21017.81 62669.89 -1961.66
v 21017.81 62669.89 -1919.80
v 21010.09 62667.48 -1919.80
v 21086.06 62527.57 -1952.77
v 21086.06 62527.57 -1919.80
v 21077.45 62527.03 -1919.80
v 21147.27 62399.95 -1944.80
v 21147.27 62399.95 -1919.80
v 21137.85 62401.08 -1919.80
v 23261.74 73232.06 -3400.20
v 23375.49 73233.46 -3427.50
v 23375.49 73233.46 -3375.20
v 23261.74 73232.06 -3375.20
v 23256.36 73223.99 -3375.20
v 23367.90 73225.37 -3375.20
v 23391.89 73233.67 -3432.75
v 23391.89 73233.67 -3375.20
v 23383.99 73225.57 -3375.20
v 23400.22 72552.30 -3435.42
v 23400.22 72552.30 -3375.20
v 23392.21 72553.28 -3375.20
v 23400.52 72527.57 -3435.51
v 23400.52 72527.57 -3375.20
v 23392.51 72528.87 -3375.20
v 23400.83 72502.22 -3432.57
v 23400.83 72502.22 -3375.20
v 23392.81 72503.86 -3375.20
v 23404.24 72223.38 -3400.20
v 23404.24 72223.38 -3375.20
v 23396.18 72228.73 -3375.20
v 24277.94 67741.49 -3233.40
v 24371.54 67772.68 -3265.85
v 24371.54 67772.68 -3208.40
v 24277.94 67741.49 -3208.40
v 24274.41 67731.88 -3208.40
v 24366.49 67762.57 -3208.40
v 24453.45 67527.57 -3272.45
v 24453.45 67527.57 -3208.40
v 24447.15 67521.19 -3208.40
v 24699.39 66791.63 -3233.40
v 24699.39 66791.63 -3208.40
v 24689.34 66796.47 -3208.40
v 31994.02 74526.91 -4017.99
v 31963.81 75027.57 -4040.43
v 31963.81 75027.57 -3962.80
v 31994.02 74526.91 -3962.80
v 32001.49 74536.07 -3962.80
v 31971.79 75028.16 -3962.80
v 31936.03 75487.85 -4005.83
v 31936.03 75487.85 -3962.80
v 31944.49 75480.57 -3962.80
v 32143.10 75506.20 -3987.80
v 32143.10 75506.20 -3962.80
v 32150.09 75498.79 -3962.80
v 32400.79 74585.68 -3987.80
v 32400.79 74585.68 -3962.80
v 32407.87 74594.78 -3962.80
v -379.79 51619.41 449.64
v 74.59 51726.68 476.39
v 74.59 51726.68 518.57
v -379.79 51619.41 518.57
v -370.17 51613.46 518.57
v 76.61 51718.93 518.57
v 366.29 51795.54 493.57
v 366.29 51795.54 518.57
v 363.43 51786.64 518.57
v 586.95 51685.21 493.57
v 640.69 51457.53 477.51
v 640.69 51457.53 518.57
v 586.95 51685.21 518.57
v 579.52 51681.87 518.57
v 631.07 51463.48 518.57
v -289.74 51237.90 422.72
v -289.74 51237.90 518.57
v -283.79 51247.52 518.57
v -313.50 51338.58 429.82
v -313.50 51338.58 518.57
v -306.59 51344.09 518.57
v 2639.16 61289.00 852.41
v 3010.93 61367.75 840.69
v 3010.93 61367.75 877.41
v 2639.16 61289.00 877.41
v 2636.30 61280.21 877.41
v 3004.76 61358.27 877.41
v 3116.22 60870.79 816.60
v 3116.22 60870.79 877.41
v 3108.39 60869.13 877.41
v 3273.18 60129.88 780.68
v 3273.18 60129.88 877.41
v 3265.35 60128.22 877.41
v 3294.85 60027.57 775.73
v 3294.85 60027.57 877.41
v 3287.02 60025.91 877.41
v 3308.34 59963.91 770.09
v 3308.34 59963.91 877.41
v 3300.51 59962.25 877.41
v 3308.95 59961.03 769.84
v 3308.95 59961.03 877.41
v 3301.11 59959.42 877.41
v 3375.49 59646.96 787.72
v 3375.49 59646.96 877.41
v 3366.60 59650.30 877.41
v 3413.62 59466.94 793.40
v 3413.62 59466.94 877.41
v 3404.14 59473.11 877.41
v 3375.49 59458.86 795.25
v 3375.49 59458.86 877.41
v 3366.34 59465.10 877.41
v 2653.91 59306.00 743.64
v 2653.91 59306.00 877.41
v 2651.18 59313.59 877.41
v 1781.81 59121.24 763.74
v 1781.81 59121.24 877.41
v 1786.82 59130.48 877.41
v 1650.75 59093.48 766.76
v 1650.75 59093.48 877.41
v 1656.92 59102.96 877.41
v 1608.06 59294.99 784.59
v 1608.06 59294.99 877.41
v 1614.90 59301.31 877.41
v 1545.46 59590.44 810.73
v 1545.46 59590.44 877.41
v 1553.29 59592.10 877.41
v 1452.86 60027.57 849.41
v 1452.86 60027.57 877.41
v 1460.69 60029.23 877.41
v 1439.73 60089.56 852.41
v 1439.73 60089.56 877.41
v 1447.55 60091.22 877.41
v 2838.47 59330.78 757.41
v 2635.76 59287.84 742.91
v 2635.76 59287.84 802.41
v 2838.47 59330.78 802.41
v 2830.92 59343.50 802.41
v 2631.31 59301.21 802.41
v 2006.78 59154.59 757.41
v 2006.78 59154.59 802.41
v 2011.96 59170.00 802.41
v 2830.92 59343.50 757.41
v 2011.96 59170.00 757.41
v 2613.08 60756.02 832.13
v 1969.93 60619.76 852.41
v 1969.93 60619.76 877.41
v 2613.08 60756.02 877.41
v 2619.25 60765.50 877.41
v 1962.73 60626.42 877.41
v 1874.97 60524.80 852.41
v 1980.31 60027.57 828.31
v 1980.31 60027.57 877.41
v 1874.97 60524.80 877.41
v 1865.75 60529.71 877.41
v 1972.95 60023.74 877.41
v 2048.61 59705.21 799.79
v 2048.61 59705.21 877.41
v 2042.44 59695.73 877.41
v 2801.89 59864.79 782.42
v 2801.89 59864.79 877.41
v 2811.37 59858.63 877.41
v 2767.40 60027.57 796.82
v 2767.40 60027.57 877.41
v 2776.28 60024.26 877.41
v 3683.94 61224.99 795.72
v 3840.99 60493.07 753.88
v 3840.99 60493.07 820.72
v 3683.94 61224.99 820.72
v 3677.69 61216.02 820.72
v 3833.35 60490.55 820.72
v 3940.88 60027.57 749.88
v 3940.88 60027.57 820.72
v 3932.35 60029.15 820.72
v 4052.05 59509.44 766.16
v 4052.05 59509.44 820.72
v 4042.55 59515.58 820.72
v 3921.61 59481.45 772.50
v 3921.61 59481.45 820.72
v 3916.31 59488.49 820.72
v 3567.09 59405.38 789.72
v 3567.09 59405.38 820.72
v 3573.23 59414.88 820.72
v 3449.46 59953.60 772.50
v 3449.46 59953.60 820.72
v 3456.64 59958.27 820.72
v 3433.58 60027.57 770.18
v 3433.58 60027.57 820.72
v 3440.90 60031.59 820.72
v 3423.32 60075.40 770.59
v 3423.32 60075.40 820.72
v 3430.73 60079.00 820.72
v 3375.49 60298.34 783.33
v 3375.49 60298.34 820.72
v 3383.32 60299.97 820.72
v 3320.77 60553.35 795.72
v 3320.77 60553.35 820.72
v 3329.08 60552.74 820.72
v 4991.29 61581.36 707.87
v 5789.13 61752.56 675.95
v 5789.13 61752.56 740.47
v 4991.29 61581.36 740.47
v 5000.79 61575.22 740.47
v 5782.99 61743.06 740.47
v 5875.49 61350.12 672.50
v 5875.49 61350.12 740.47
v 5868.44 61344.82 740.47
v 6109.13 60261.22 635.12
v 6109.13 60261.22 740.47
v 6099.66 60267.25 740.47
v 6111.38 60250.75 635.77
v 6111.38 60250.75 740.47
v 6101.88 60256.89 740.47
v 6095.19 60247.27 637.35
v 6095.19 60247.27 740.47
v 6086.01 60253.48 740.47
v 5875.49 60200.13 672.50
v 5875.49 60200.13 740.47
v 5870.61 60207.27 740.47
v 5733.41 60169.64 678.18
v 5733.41 60169.64 740.47
v 5731.32 60177.38 740.47
v 5313.54 60079.55 694.98
v 5313.54 60079.55 740.47
v 5319.68 60089.05 740.47
v 5174.22 60728.83 700.55
v 5174.22 60728.83 740.47
v 5181.81 60731.57 740.47
v 2025.35 60506.74 845.67
v 2546.77 60617.20 829.23
v 2546.77 60617.20 876.47
v 2025.35 60506.74 876.47
v 2034.83 60500.57 876.47
v 2540.60 60607.72 876.47
v 2671.69 60027.57 800.65
v 2671.69 60027.57 876.47
v 2662.56 60032.08 876.47
v 2686.46 59957.83 794.48
v 2686.46 59957.83 876.47
v 2676.98 59964.00 876.47
v 2165.03 59847.37 806.50
v 2165.03 59847.37 876.47
v 2171.20 59856.85 876.47
v 2126.86 60027.57 822.45
v 2126.86 60027.57 876.47
v 2133.93 60032.77 876.47
v 5297.40 59956.76 698.46
v 5754.78 60027.57 677.33
v 5754.78 60027.57 753.14
v 5297.40 59956.76 753.14
v 5306.53 59950.08 753.14
v 5754.94 60019.50 753.14
v 5859.30 60043.75 673.15
v 5859.30 60043.75 753.14
v 5857.42 60035.36 753.14
v 5875.49 60046.25 672.50
v 5875.49 60046.25 753.14
v 5873.28 60037.82 753.14
v 5897.59 60049.68 668.96
v 5897.59 60049.68 753.14
v 5894.96 60041.17 753.14
v 6103.80 60081.60 649.91
v 6103.80 60081.60 753.14
v 6097.12 60072.47 753.14
v 6112.17 60027.57 653.57
v 6112.17 60027.57 753.14
v 6105.36 60019.23 753.14
v 6155.52 59747.53 661.30
v 6155.52 59747.53 753.14
v 6148.08 59743.28 753.14
v 6271.48 58998.51 681.98
v 6271.48 58998.51 753.14
v 6262.35 59005.19 753.14
v 5875.49 58937.20 716.11
v 5875.49 58937.20 753.14
v 5874.12 58945.08 753.14
v 5615.16 58896.90 728.14
v 5615.16 58896.90 753.14
v 5618.90 58905.57 753.14
v 5433.33 59078.72 728.14
v 5365.41 59517.49 713.31
v 5365.41 59517.49 753.14
v 5433.33 59078.72 753.14
v 5440.48 59084.86 753.14
v 5373.54 59517.22 753.14
v 5677.31 58637.62 736.02
v 5875.49 58660.18 727.20
v 5875.49 58660.18 792.84
v 5677.31 58637.62 792.84
v 5686.16 58630.58 792.84
v 5880.03 58652.65 792.84
v 6408.58 58720.85 682.12
v 6408.58 58720.85 792.84
v 6401.54 58712.00 792.84
v 6476.05 58128.13 700.43
v 6476.05 58128.13 792.84
v 6468.33 58125.14 792.84
v 6544.40 57527.57 718.99
v 6544.40 57527.57 792.84
v 6536.01 57530.53 792.84
v 6591.33 57115.22 715.23
v 6591.33 57115.22 792.84
v 6582.48 57122.26 792.84
v 6318.85 57084.20 737.03
v 6318.85 57084.20 792.84
v 6315.92 57091.92 792.84
v 5933.74 57040.37 767.84
v 5933.74 57040.37 792.84
v 5939.18 57049.04 792.84
v 5779.46 57740.09 767.84
v 5779.46 57740.09 792.84
v 5787.30 57741.93 792.84
v 4183.49 55525.80 840.18
v 5383.16 55519.90 792.19
v 5383.16 55519.90 865.18
v 4183.49 55525.80 865.18
v 4189.14 55517.77 865.18
v 5378.25 55511.92 865.18
v 5738.26 55518.15 777.99
v 5738.26 55518.15 865.18
v 5730.22 55510.19 865.18
v 5736.53 55166.52 778.06
v 5736.53 55166.52 865.18
v 5728.52 55163.69 865.18
v 5735.85 55027.57 778.09
v 5735.85 55027.57 865.18
v 5727.84 55026.77 865.18
v 5735.16 54887.24 766.89
v 5735.16 54887.24 865.18
v 5727.16 54888.49 865.18
v 5732.87 54422.17 748.28
v 5732.87 54422.17 865.18
v 5724.91 54430.21 865.18
v 5272.35 54424.44 748.37
v 5272.35 54424.44 865.18
v 5268.45 54432.45 865.18
v 3972.23 54430.83 800.89
v 3972.23 54430.83 865.18
v 3979.78 54438.79 865.18
v 3916.90 54431.10 803.13
v 3916.90 54431.10 865.18
v 3924.94 54439.06 865.18
v 3917.17 54485.88 807.50
v 3917.17 54485.88 865.18
v 3925.21 54493.04 865.18
v 3919.18 54895.42 840.18
v 3919.18 54895.42 865.18
v 3927.19 54896.60 865.18
v 2529.92 58335.63 772.53
v 2562.74 58340.31 774.97
v 2562.74 58340.31 910.57
v 2529.92 58335.63 910.57
v 2538.97 58328.84 910.57
v 2571.42 58333.47 910.57
v 3375.49 58456.16 835.36
v 3375.49 58456.16 910.57
v 3374.88 58448.00 910.57
v 3917.89 58533.48 810.57
v 3917.89 58533.48 910.57
v 3911.10 58524.43 910.57
v 3975.72 58127.80 824.48
v 3975.72 58127.80 910.57
v 3968.18 58124.00 910.57
v 4061.28 57527.57 845.07
v 4061.28 57527.57 910.57
v 4052.64 57531.53 910.57
v 4092.46 57308.86 843.82
v 4092.46 57308.86 910.57
v 4083.41 57315.65 910.57
v 3656.36 57246.70 861.27
v 3656.36 57246.70 910.57
v 3652.29 57254.20 910.57
v 3375.49 57206.66 872.50
v 3375.49 57206.66 910.57
v 3374.62 57214.62 910.57
v 3001.23 57153.31 842.56
v 3001.23 57153.31 910.57
v 3004.63 57161.88 910.57
v 2704.49 57111.01 818.82
v 2704.49 57111.01 910.57
v 2711.28 57120.06 910.57
v 2645.11 57527.57 814.07
v 2645.11 57527.57 910.57
v 2652.67 57531.23 910.57
v 2514.09 58347.52 770.79
v 2550.37 58352.69 773.49
v 2550.37 58352.69 835.57
v 2514.09 58347.52 835.57
v 2529.92 58335.63 835.57
v 2565.49 58340.70 835.57
v 2780.31 58385.46 790.57
v 2780.31 58385.46 835.57
v 2790.93 58372.84 835.57
v 2568.94 57962.72 790.57
v 2568.94 57962.72 835.57
v 2583.56 57959.35 835.57
v 2790.93 58372.84 790.57
v 2583.56 57959.35 790.57
v 2874.76 50495.79 551.17
v 2905.05 50498.00 553.68
v 2905.05 50498.00 631.18
v 2874.76 50495.79 631.18
v 2883.32 50488.39 631.18
v 2913.29 50490.58 631.18
v 3375.49 50532.35 592.69
v 3375.49 50532.35 631.18
v 3378.61 50524.56 631.18
v 3920.04 50572.12 594.28
v 3920.04 50572.12 631.18
v 3917.25 50563.90 631.18
v 4343.85 50603.07 595.52
v 4343.85 50603.07 631.18
v 4336.45 50594.51 631.18
v 4385.88 50027.57 572.50
v 4385.88 50027.57 631.18
v 4377.70 50029.69 631.18
v 4406.63 49743.36 538.40
v 4406.63 49743.36 631.18
v 4398.07 49750.76 631.18
v 3710.52 49692.53 532.30
v 3710.52 49692.53 631.18
v 3709.52 49700.48 631.18
v 3375.49 49668.06 529.36
v 3375.49 49668.06 631.18
v 3378.12 49676.27 631.18
v 2987.66 49639.74 510.45
v 2987.66 49639.74 631.18
v 2994.51 49648.26 631.18
v 2937.54 49636.08 506.15
v 2937.54 49636.08 631.18
v 2944.94 49644.64 631.18
v 2908.95 50027.57 535.18
v 2908.95 50027.57 631.18
v 2916.88 50028.86 631.18
v 3037.22 49629.32 511.18
v 2972.51 49624.59 508.02
v 2972.51 49624.59 556.18
v 3037.22 49629.32 556.18
v 3048.07 49644.15 556.18
v 2984.56 49639.51 556.18
v 2924.60 49621.10 503.91
v 2924.60 49621.10 556.18
v 2937.54 49636.08 556.18
v 2917.44 49719.11 511.18
v 2917.44 49719.11 556.18
v 2930.61 49731.01 556.18
v 3048.07 49644.15 511.18
v 2930.61 49731.01 511.18
v 2752.33 59098.80 759.80
v 3375.49 59232.51 804.30
v 3375.49 59232.51 871.72
v 2752.33 59098.80 871.72
v 2761.83 59092.66 871.72
v 3376.51 59224.55 871.72
v 3902.16 59345.52 778.71
v 3902.16 59345.52 871.72
v 3896.02 59336.02 871.72
v 4039.79 58704.12 798.87
v 4039.79 58704.12 871.72
v 4030.29 58710.26 871.72
v 3375.49 58561.58 831.14
v 3375.49 58561.58 871.72
v 3375.02 58569.66 871.72
v 2889.96 58457.40 796.46
v 2889.96 58457.40 871.72
v 2896.10 58466.90 871.72
v 828.80 51991.39 527.74
v 875.49 51997.36 530.08
v 875.49 51997.36 596.68
v 828.80 51991.39 596.68
v 837.75 51984.47 596.68
v 883.78 51990.35 596.68
v 1345.59 52057.46 553.70
v 1345.59 52057.46 596.68
v 1347.32 52049.61 596.68
v 1703.66 52103.23 571.68
v 1703.66 52103.23 596.68
v 1700.37 52094.75 596.68
v 1985.86 51962.13 571.68
v 2013.28 51747.63 555.62
v 2013.28 51747.63 596.68
v 1985.86 51962.13 596.68
v 1978.03 51960.30 596.68
v 2004.33 51754.55 596.68
v 1695.99 51707.07 539.68
v 1695.99 51707.07 596.68
v 1691.47 51714.55 596.68
v 878.51 51602.56 498.62
v 878.51 51602.56 596.68
v 885.43 51611.51 596.68
v 875.49 51626.21 500.39
v 875.49 51626.21 596.68
v 882.53 51634.20 596.68
v 623.35 53047.53 583.21
v 875.49 53105.24 595.61
v 875.49 53105.24 639.14
v 623.35 53047.53 639.14
v 632.93 53041.52 639.14
v 876.77 53097.33 639.14
v 1083.36 53152.82 614.14
v 1083.36 53152.82 639.14
v 1077.80 53143.34 639.14
v 1110.03 53099.47 614.14
v 1172.87 52824.95 608.19
v 1172.87 52824.95 639.14
v 1110.03 53099.47 639.14
v 1103.80 53090.83 639.14
v 1165.58 52820.90 639.14
v 1240.93 52527.57 587.12
v 1240.93 52527.57 639.14
v 1232.51 52528.50 639.14
v 1310.39 52224.07 565.62
v 1310.39 52224.07 639.14
v 1300.81 52230.08 639.14
v 1203.46 52199.59 559.38
v 1203.46 52199.59 639.14
v 1197.40 52206.41 639.14
v 875.49 52124.53 540.26
v 875.49 52124.53 639.14
v 880.22 52133.82 639.14
v 836.65 52115.64 537.99
v 836.65 52115.64 639.14
v 842.66 52125.22 639.14
v 767.16 52419.24 559.50
v 767.16 52419.24 639.14
v 774.33 52423.74 639.14
v 742.36 52527.57 567.18
v 742.36 52527.57 639.14
v 749.95 52530.26 639.14
v 702.85 52700.21 572.50
v 702.85 52700.21 639.14
v 711.10 52700.01 639.14
v 1144.20 54236.26 662.34
v 1530.24 54015.56 684.40
v 1530.24 54015.56 709.40
v 1144.20 54236.26 709.40
v 1147.17 54225.34 709.40
v 1523.56 54010.17 709.40
v 1635.21 53805.62 684.40
v 1382.17 53363.00 646.45
v 1382.17 53363.00 709.40
v 1635.21 53805.62 709.40
v 1625.91 53805.47 709.40
v 1379.20 53373.92 709.40
v 875.49 53652.68 617.50
v 875.49 53652.68 709.40
v 885.18 53656.35 709.40
v 826.56 53680.65 616.67
v 826.56 53680.65 709.40
v 837.48 53683.62 709.40
v 875.49 53766.22 622.05
v 875.49 53766.22 709.40
v 885.18 53767.05 709.40
v 5081.04 50553.42 593.53
v 5331.36 50571.70 594.27
v 5331.36 50571.70 627.74
v 5081.04 50553.42 627.74
v 5089.60 50546.02 627.74
v 5334.48 50563.90 627.74
v 5815.09 50607.02 595.68
v 5815.09 50607.02 627.74
v 5807.69 50598.46 627.74
v 5855.98 50047.07 573.28
v 5855.98 50047.07 627.74
v 5847.98 50046.69 627.74
v 5857.40 50027.57 572.50
v 5857.40 50027.57 627.74
v 5849.39 50027.47 627.74
v 5858.63 50010.72 570.48
v 5858.63 50010.72 627.74
v 5850.60 50010.86 627.74
v 5875.49 49779.95 552.69
v 5875.49 49779.95 627.74
v 5867.21 49783.46 627.74
v 5894.91 49513.93 531.41
v 5894.91 49513.93 627.74
v 5886.35 49521.33 627.74
v 5875.49 49512.52 531.30
v 5875.49 49512.52 627.74
v 5867.35 49519.94 627.74
v 5319.86 49471.94 505.82
v 5319.86 49471.94 627.74
v 5323.80 49480.25 627.74
v 5160.86 49460.33 504.43
v 5160.86 49460.33 627.74
v 5168.26 49468.89 627.74
v 5119.44 50027.57 572.50
v 5119.44 50027.57 627.74
v 5127.44 50027.85 627.74
v 5386.14 49462.74 507.74
v 5304.71 49456.80 504.01
v 5304.71 49456.80 552.74
v 5386.14 49462.74 552.74
v 5390.35 49477.09 552.74
v 5311.91 49471.36 552.74
v 5147.92 49445.35 502.63
v 5147.92 49445.35 552.74
v 5160.86 49460.33 552.74
v 5144.81 49487.90 507.74
v 5144.81 49487.90 552.74
v 5157.83 49501.82 552.74
v 5390.35 49477.09 507.74
v 5157.83 49501.82 507.74
v 1736.16 58803.32 740.13
v 1959.87 58943.18 742.37
v 1959.87 58943.18 787.52
v 1736.16 58803.32 787.52
v 1747.18 58800.78 787.52
v 1966.03 58937.60 787.52
v 2360.24 59193.47 746.38
v 2360.24 59193.47 787.52
v 2357.70 59182.45 787.52
v 2429.93 59082.01 734.68
v 2429.93 59082.01 787.52
v 2425.68 59073.70 787.52
v 2623.30 58772.69 762.52
v 2623.30 58772.69 787.52
v 2614.34 58771.93 787.52
v 2486.26 58498.61 762.52
v 2435.91 58467.14 759.75
v 2435.91 58467.14 787.52
v 2486.26 58498.61 787.52
v 2480.05 58504.17 787.52
v 2430.80 58473.38 787.52
v 2083.90 58247.08 740.39
v 2083.90 58247.08 787.52
v 2086.44 58258.10 787.52
v 1895.83 58547.91 713.31
v 1895.83 58547.91 787.52
v 1902.96 58551.60 787.52
v 6993.93 50786.28 542.15
v 7384.89 50814.83 541.01
v 7384.89 50814.83 608.15
v 6993.93 50786.28 608.15
v 7002.49 50778.88 608.15
v 7377.49 50806.27 608.15
v 7427.13 50236.37 564.15
v 7427.13 50236.37 608.15
v 7418.57 50243.77 608.15
v 7036.17 50207.82 565.29
v 7036.17 50207.82 608.15
v 7043.57 50216.38 608.15
v 2091.03 52090.46 586.15
v 2872.61 52190.38 625.41
v 2872.61 52190.38 650.41
v 2091.03 52090.46 650.41
v 2099.98 52083.54 650.41
v 2868.48 52181.79 650.41
v 3071.78 51957.73 625.41
v 3089.02 51822.86 621.39
v 3089.02 51822.86 650.41
v 3071.78 51957.73 650.41
v 3063.53 51959.15 650.41
v 3080.07 51829.78 650.41
v 2609.47 51761.55 580.58
v 2609.47 51761.55 650.41
v 2608.55 51769.50 650.41
v 2140.74 51701.63 557.04
v 2140.74 51701.63 650.41
v 2147.66 51710.58 650.41
v 5836.74 55410.20 774.05
v 5875.49 55415.56 772.50
v 5875.49 55415.56 799.05
v 5836.74 55410.20 799.05
v 5845.25 55403.30 799.05
v 5882.21 55408.41 799.05
v 6168.53 55456.05 749.06
v 6168.53 55456.05 799.05
v 6161.70 55447.03 799.05
v 6184.97 55337.06 747.74
v 6184.97 55337.06 799.05
v 6177.90 55329.81 799.05
v 6227.74 55027.57 730.23
v 6227.74 55027.57 799.05
v 6220.03 55024.94 799.05
v 6284.23 54618.82 707.10
v 6284.23 54618.82 799.05
v 6275.67 54622.30 799.05
v 6315.28 54394.14 694.39
v 6315.28 54394.14 799.05
v 6306.26 54400.97 799.05
v 5972.53 54346.78 733.62
v 5972.53 54346.78 799.05
v 5979.36 54355.80 799.05
v 5878.93 55024.12 771.95
v 5878.93 55024.12 799.05
v 5887.16 55023.03 799.05
v 5878.46 55027.57 772.14
v 5878.46 55027.57 799.05
v 5886.69 55026.43 799.05
v 5878.10 55030.18 772.29
v 5878.10 55030.18 799.05
v 5886.33 55029.00 799.05
v 5875.49 55049.07 772.50
v 5875.49 55049.07 799.05
v 5883.76 55047.60 799.05
v 5836.74 55329.49 774.05
v 5836.74 55329.49 799.05
v 5845.59 55323.84 799.05
v 3130.29 52547.36 664.28
v 3340.36 52562.70 673.91
v 3340.36 52562.70 719.12
v 3130.29 52547.36 719.12
v 3138.85 52539.96 719.12
v 3342.14 52554.81 719.12
v 3375.49 52565.26 675.52
v 3375.49 52565.26 719.12
v 3376.14 52557.29 719.12
v 3416.15 52568.23 674.13
v 3416.15 52568.23 719.12
v 3415.49 52560.16 719.12
v 3624.98 52583.48 674.74
v 3624.98 52583.48 719.12
v 3617.58 52574.92 719.12
v 3629.06 52527.57 672.50
v 3629.06 52527.57 719.12
v 3621.53 52520.81 719.12
v 3649.04 52254.02 661.56
v 3649.04 52254.02 719.12
v 3640.86 52256.08 719.12
v 3661.10 52088.79 654.95
v 3661.10 52088.79 719.12
v 3652.54 52096.19 719.12
v 3375.49 52067.94 654.11
v 3375.49 52067.94 719.12
v 3376.14 52076.01 719.12
v 3166.41 52052.67 636.78
v 3166.41 52052.67 719.12
v 3173.81 52061.23 719.12
v 3148.32 52300.41 645.24
v 3148.32 52300.41 719.12
v 3156.30 52300.98 719.12
v 3131.73 52527.57 662.75
v 3131.73 52527.57 719.12
v 3140.25 52520.81 719.12
v 3710.23 52796.69 683.26
v 4290.22 52793.84 683.15
v 4290.22 52793.84 730.37
v 3710.23 52796.69 730.37
v 3718.19 52788.65 730.37
v 4282.18 52785.88 730.37
v 4288.91 52527.57 672.50
v 4288.91 52527.57 730.37
v 4280.92 52530.48 730.37
v 4288.29 52401.84 667.47
v 4288.29 52401.84 730.37
v 4280.33 52409.88 730.37
v 3708.30 52404.69 667.58
v 3708.30 52404.69 730.37
v 3716.34 52412.65 730.37
v 3708.91 52527.57 672.50
v 3708.91 52527.57 730.37
v 3716.92 52530.51 730.37
v 1883.67 54717.81 740.76
v 2197.43 54538.43 758.69
v 2197.43 54538.43 783.69
v 1883.67 54717.81 783.69
v 1886.64 54706.89 783.69
v 2187.16 54535.09 783.69
v 2206.88 54519.53 758.69
v 1926.32 54028.78 716.62
v 1926.32 54028.78 783.69
v 2206.88 54519.53 783.69
v 2196.12 54516.84 783.69
v 1923.35 54039.70 783.69
v 1804.78 54098.27 709.67
v 1804.78 54098.27 783.69
v 1806.94 54106.25 783.69
v 1597.30 54216.89 697.82
v 1597.30 54216.89 783.69
v 1608.22 54219.86 783.69
v 1629.63 54273.43 702.67
v 1629.63 54273.43 783.69
v 1639.65 54274.83 783.69
v 669.68 55160.58 672.50
v 839.65 55063.40 672.50
v 839.65 55063.40 713.95
v 669.68 55160.58 713.95
v 672.65 55149.66 713.95
v 836.51 55055.98 713.95
v 875.49 55042.92 672.50
v 875.49 55042.92 713.95
v 871.06 55036.23 713.95
v 885.25 55037.33 673.28
v 885.25 55037.33 713.95
v 880.47 55030.85 713.95
v 902.33 55027.57 674.65
v 902.33 55027.57 713.95
v 896.94 55021.43 713.95
v 1056.01 54939.71 683.43
v 1056.01 54939.71 713.95
v 1045.09 54936.74 713.95
v 1022.30 54880.75 678.37
v 1022.30 54880.75 713.95
v 1012.44 54879.63 713.95
v 875.49 54623.95 656.36
v 875.49 54623.95 713.95
v 870.22 54630.86 713.95
v 802.39 54496.09 648.32
v 802.39 54496.09 713.95
v 799.42 54507.01 713.95
v 510.74 54662.83 643.32
v 510.74 54662.83 713.95
v 518.26 54667.75 713.95
v 416.06 54716.96 647.65
v 416.06 54716.96 713.95
v 426.98 54719.93 713.95
v 593.64 55027.57 672.50
v 593.64 55027.57 713.95
v 598.99 55020.82 713.95
vt -110.7520 1.4342
vt -110.7964 1.4363
vt -110.7964 1.4988
vt -110.7520 1.4988
vt -110.7589 1.4988
vt -110.8025 1.4988
vt -111.9365 1.4363
vt -111.0619 1.3607
vt -111.0619 1.4988
vt -111.9365 1.4988
vt -111.9170 1.4988
vt -111.0564 1.4988
vt -110.3802 1.3301
vt -110.3802 1.4988
vt -110.3880 1.4988
vt -108.7968 1.3860
vt -108.7968 1.4988
vt -108.8352 1.4988
vt -110.3802 1.4010
vt -110.3802 1.4988
vt -110.3931 1.4988
vt -174.4311 0.4715
vt -173.5275 0.3884
vt -173.5275 0.5340
vt -174.4311 0.5340
vt -174.4447 0.5340
vt -173.5447 0.5340
vt -172.8802 0.3499
vt -172.8802 0.5340
vt -172.8999 0.5340
vt -170.0410 0.4084
vt -170.0410 0.5340
vt -170.0719 0.5340
vt -167.8245 0.3882
vt -167.8245 0.5340
vt -167.8640 0.5340
vt -167.9830 0.4715
vt -167.9830 0.5340
vt -168.0194 0.5340
vt -163.2144 -1.8502
vt -163.1196 -1.9124
vt -163.1196 -1.7877
vt -163.2144 -1.7877
vt -163.2012 -1.7877
vt -163.1065 -1.7877
vt -162.1042 -1.9567
vt -162.1042 -1.7877
vt -162.1113 -1.7877
vt -160.5537 -1.9284
vt -160.5537 -1.7877
vt -160.5915 -1.7877
vt -160.8143 -1.8535
vt -160.8143 -1.7877
vt -160.8441 -1.7877
vt -160.8193 -1.8502
vt -160.8193 -1.7877
vt -160.8489 -1.7877
vt -169.0725 -2.9013
vt -168.2667 -2.9914
vt -168.2667 -2.8388
vt -169.0725 -2.8388
vt -169.0770 -2.8388
vt -168.2761 -2.8388
vt -166.6302 -3.0305
vt -166.6302 -2.8388
vt -166.6497 -2.8388
vt -164.4265 -2.9950
vt -164.4265 -2.8388
vt -164.4595 -2.8388
vt -163.4462 -2.9792
vt -163.4462 -2.8388
vt -163.4852 -2.8388
vt -163.9568 -2.9013
vt -163.9568 -2.8388
vt -163.9897 -2.8388
vt -184.4711 -2.2993
vt -184.0216 -2.3782
vt -184.0216 -2.2368
vt -184.4711 -2.2368
vt -184.4825 -2.2368
vt -184.0377 -2.2368
vt -183.7577 -2.3933
vt -183.7577 -2.2368
vt -183.7766 -2.2368
vt -183.1272 -2.3842
vt -183.1272 -2.2368
vt -183.1528 -2.2368
vt -182.0786 -2.3691
vt -182.0786 -2.2368
vt -182.1152 -2.2368
vt -182.5060 -2.2993
vt -182.5060 -2.2368
vt -182.5426 -2.2368
vt -171.7047 -3.8898
vt -171.5545 -3.9248
vt -171.5545 -3.8273
vt -171.7047 -3.8273
vt -171.7104 -3.8273
vt -171.5626 -3.8273
vt -171.3299 -3.9428
vt -171.3299 -3.8273
vt -171.3415 -3.8273
vt -170.9310 -3.9747
vt -170.9310 -3.8273
vt -170.9529 -3.8273
vt -170.2969 -3.9706
vt -170.2969 -3.8273
vt -170.3352 -3.8273
vt -170.6428 -3.8898
vt -170.6428 -3.8273
vt -170.6811 -3.8273
vt -128.8798 -3.3082
vt -128.5855 -3.3863
vt -128.5855 -3.2457
vt -128.8798 -3.2457
vt -128.8647 -3.2457
vt -128.5727 -3.2457
vt -127.0623 -3.3996
vt -127.0623 -3.2457
vt -127.0879 -3.2457
vt -126.5082 -3.3710
vt -126.5082 -3.2457
vt -126.5477 -3.2457
vt -126.7499 -3.3082
vt -126.7499 -3.2457
vt -126.7889 -3.2457
vt -106.2163 -4.8620
vt -106.0028 -4.9430
vt -106.0028 -4.7995
vt -106.2163 -4.7995
vt -106.2032 -4.7995
vt -105.9915 -4.7995
vt -105.2279 -4.9505
vt -105.2279 -4.7995
vt -105.2267 -4.7995
vt -104.1302 -4.9042
vt -104.1302 -4.7995
vt -104.1435 -4.7995
vt -103.6038 -4.8819
vt -103.6038 -4.7995
vt -103.6240 -4.7995
vt -103.1317 -4.8620
vt -103.1317 -4.7995
vt -103.1581 -4.7995
vt -124.9258 -8.5005
vt -124.6449 -8.5687
vt -124.6449 -8.4380
vt -124.9258 -8.4380
vt -124.9191 -8.4380
vt -124.6437 -8.4380
vt -124.6044 -8.5819
vt -124.6044 -8.4380
vt -124.6039 -8.4380
vt -122.8802 -8.5885
vt -122.8802 -8.4380
vt -122.9027 -8.4380
vt -122.8176 -8.5888
vt -122.8176 -8.4380
vt -122.8409 -8.4380
vt -122.7535 -8.5814
vt -122.7535 -8.4380
vt -122.7776 -8.4380
vt -122.0478 -8.5005
vt -122.0478 -8.4380
vt -122.0814 -8.4380
vt -108.6589 -8.0835
vt -108.5028 -8.1646
vt -108.5028 -8.0210
vt -108.6589 -8.0210
vt -108.6437 -8.0210
vt -108.4902 -8.0210
vt -107.6853 -8.1811
vt -107.6853 -8.0210
vt -107.6851 -8.0210
vt -105.2306 -8.0835
vt -105.2306 -8.0210
vt -105.2678 -8.0210
vt -106.3322 -10.0450
vt -107.6594 -10.1011
vt -107.6594 -9.9070
vt -106.3322 -9.9070
vt -106.3364 -9.9070
vt -107.6409 -9.9070
vt -108.8796 -10.0146
vt -108.8796 -9.9070
vt -108.8402 -9.9070
vt -108.4077 -9.9695
vt -108.4077 -9.9070
vt -108.3717 -9.9070
vt -105.4622 -9.9695
vt -105.4622 -9.9070
vt -105.4673 -9.9070
vt -129.9980 1.1241
vt -129.1302 1.1910
vt -129.1302 1.2964
vt -129.9980 1.2964
vt -129.9591 1.2964
vt -129.1058 1.2964
vt -128.5731 1.2339
vt -128.5731 1.2964
vt -128.5580 1.2964
vt -127.7457 1.2339
vt -127.0421 1.1938
vt -127.0421 1.2964
vt -127.7457 1.2964
vt -127.7559 1.2964
vt -127.0810 1.2964
vt -128.8191 1.0568
vt -128.8191 1.2964
vt -128.8283 1.2964
vt -129.1302 1.0745
vt -129.1302 1.2964
vt -129.1267 1.2964
vt -146.6246 2.1310
vt -145.8921 2.1017
vt -145.8921 2.1935
vt -146.6246 2.1935
vt -146.6098 2.1935
vt -145.8838 2.1935
vt -144.3864 2.0415
vt -144.3864 2.1935
vt -144.4018 2.1935
vt -142.1418 1.9517
vt -142.1418 2.1935
vt -142.1572 2.1935
vt -141.8318 1.9393
vt -141.8318 2.1935
vt -141.8472 2.1935
vt -141.6389 1.9252
vt -141.6389 2.1935
vt -141.6543 2.1935
vt -141.6302 1.9246
vt -141.6302 2.1935
vt -141.6458 2.1935
vt -140.6787 1.9693
vt -140.6787 2.1935
vt -140.7092 2.1935
vt -140.1333 1.9835
vt -140.1333 2.1935
vt -140.1724 2.1935
vt -140.2084 1.9881
vt -140.2084 2.1935
vt -140.2469 2.1935
vt -141.6302 1.8591
vt -141.6302 2.1935
vt -141.6560 2.1935
vt -143.3486 1.9094
vt -143.3486 2.1935
vt -143.3591 2.1935
vt -143.6068 1.9169
vt -143.6068 2.1935
vt -143.6151 2.1935
vt -144.2173 1.9615
vt -144.2173 2.1935
vt -144.2160 2.1935
vt -145.1124 2.0268
vt -145.1124 2.1935
vt -145.0970 2.1935
vt -146.4368 2.1235
vt -146.4368 2.1935
vt -146.4213 2.1935
vt -146.6246 2.1310
vt -146.6246 2.1935
vt -146.6092 2.1935
vt -141.2308 1.8935
vt -141.6302 1.8573
vt -141.6302 2.0060
vt -141.2308 2.0060
vt -141.2815 2.0060
vt -141.6748 2.0060
vt -142.8695 1.8935
vt -142.8695 2.0060
vt -142.8951 2.0060
vt -141.2815 1.8935
vt -142.8951 1.8935
vt -145.3573 2.0803
vt -146.6246 2.1310
vt -146.6246 2.1935
vt -145.3573 2.1935
vt -145.3656 2.1935
vt -146.6592 2.1935
vt -146.6246 2.1310
vt -145.1182 2.0708
vt -145.1182 2.1935
vt -146.6246 2.1935
vt -146.6599 2.1935
vt -145.1270 2.1935
vt -144.1415 1.9995
vt -144.1415 2.1935
vt -144.1332 2.1935
vt -142.6573 1.9560
vt -142.6573 2.1935
vt -142.6181 2.1935
vt -143.1504 1.9921
vt -143.1504 2.1935
vt -143.1200 2.1935
vt -143.8526 1.9893
vt -141.6302 1.8847
vt -141.6302 2.0518
vt -143.8526 2.0518
vt -143.8458 2.0518
vt -141.6430 2.0518
vt -140.2167 1.8747
vt -140.2167 2.0518
vt -140.2420 2.0518
vt -138.6435 1.9154
vt -138.6435 2.0518
vt -138.6826 2.0518
vt -138.8996 1.9312
vt -138.8996 2.0518
vt -138.9305 2.0518
vt -139.5957 1.9743
vt -139.5957 2.0518
vt -139.6041 2.0518
vt -141.2603 1.9312
vt -141.2603 2.0518
vt -141.2541 2.0518
vt -141.4850 1.9254
vt -141.4850 2.0518
vt -141.4767 2.0518
vt -141.6302 1.9265
vt -141.6302 2.0518
vt -141.6207 2.0518
vt -142.3071 1.9583
vt -142.3071 2.0518
vt -142.2916 2.0518
vt -143.0815 1.9893
vt -143.0815 2.0518
vt -143.0591 2.0518
vt -141.4752 1.7697
vt -139.9086 1.6899
vt -139.9086 1.8512
vt -141.4752 1.8512
vt -141.4361 1.8512
vt -139.9002 1.8512
vt -138.6866 1.6812
vt -138.6866 1.8512
vt -138.6909 1.8512
vt -135.3802 1.5878
vt -135.3802 1.8512
vt -135.4190 1.8512
vt -135.3484 1.5894
vt -135.3484 1.8512
vt -135.3875 1.8512
vt -135.3802 1.5934
vt -135.3802 1.8512
vt -135.4187 1.8512
vt -135.8116 1.6812
vt -135.8116 1.8512
vt -135.8416 1.8512
vt -136.0906 1.6954
vt -136.0906 1.8512
vt -136.1151 1.8512
vt -136.9150 1.7374
vt -136.9150 1.8512
vt -136.9234 1.8512
vt -138.8865 1.7514
vt -138.8865 1.8512
vt -138.8744 1.8512
vt -146.2035 2.1142
vt -145.1761 2.0731
vt -145.1761 2.1912
vt -146.2035 2.1912
vt -146.1643 2.1912
vt -145.1678 2.1912
vt -143.3897 2.0016
vt -143.3897 2.1912
vt -143.4238 2.1912
vt -143.1784 1.9862
vt -143.1784 2.1912
vt -143.2175 2.1912
vt -144.2058 2.0162
vt -144.2058 2.1912
vt -144.2141 2.1912
vt -144.7518 2.0561
vt -144.7518 2.1912
vt -144.7471 2.1912
vt -136.6484 1.7462
vt -135.6820 1.6933
vt -135.6820 1.8828
vt -136.6484 1.8828
vt -136.6089 1.8828
vt -135.6614 1.8828
vt -135.4611 1.6829
vt -135.4611 1.8828
vt -135.4449 1.8828
vt -135.4269 1.6812
vt -135.4269 1.8828
vt -135.4113 1.8828
vt -135.3802 1.6724
vt -135.3802 1.8828
vt -135.3655 1.8828
vt -134.9445 1.6248
vt -134.9445 1.8828
vt -134.9384 1.8828
vt -134.7885 1.6339
vt -134.7885 1.8828
vt -134.7847 1.8828
vt -133.9800 1.6532
vt -133.9800 1.8828
vt -133.9880 1.8828
vt -131.8176 1.7049
vt -131.8176 1.8828
vt -131.8571 1.8828
vt -132.6543 1.7903
vt -132.6543 1.8828
vt -132.6774 1.8828
vt -133.2044 1.8203
vt -133.2044 1.8828
vt -133.2167 1.8828
vt -134.1135 1.8203
vt -135.3802 1.7833
vt -135.3802 1.8828
vt -134.1135 1.8828
vt -134.1110 1.8828
vt -135.3592 1.8828
vt -132.4008 1.8400
vt -131.9617 1.8180
vt -131.9617 1.9821
vt -132.4008 1.9821
vt -132.3611 1.9821
vt -131.9316 1.9821
vt -130.7807 1.7053
vt -130.7807 1.9821
vt -130.7762 1.9821
vt -129.1302 1.7511
vt -129.1302 1.9821
vt -129.1420 1.9821
vt -127.4579 1.7975
vt -127.4579 1.9821
vt -127.4863 1.9821
vt -126.3097 1.7881
vt -126.3097 1.9821
vt -126.3494 1.9821
vt -126.9134 1.8426
vt -126.9134 1.9821
vt -126.9400 1.9821
vt -127.7666 1.9196
vt -127.7666 1.9821
vt -127.7747 1.9821
vt -129.9016 1.9196
vt -129.9016 1.9821
vt -129.8866 1.9821
vt -128.3558 2.1004
vt -125.3419 1.9805
vt -125.3419 2.1629
vt -128.3558 2.1629
vt -128.3216 2.1629
vt -125.3342 2.1629
vt -124.4497 1.9450
vt -124.4497 2.1629
vt -124.4499 2.1629
vt -123.5750 1.9451
vt -123.5750 2.1629
vt -123.5879 2.1629
vt -123.2293 1.9452
vt -123.2293 2.1629
vt -123.2473 2.1629
vt -122.8802 1.9172
vt -122.8802 2.1629
vt -122.9033 2.1629
vt -121.7232 1.8707
vt -121.7232 2.1629
vt -121.7633 2.1629
vt -122.8802 1.8709
vt -122.8802 2.1629
vt -122.9100 2.1629
vt -126.1465 2.0022
vt -126.1465 2.1629
vt -126.1475 2.1629
vt -126.2855 2.0078
vt -126.2855 2.1629
vt -126.2853 2.1629
vt -126.4218 2.0187
vt -126.4218 2.1629
vt -126.4196 2.1629
vt -127.4406 2.1004
vt -127.4406 2.1629
vt -127.4235 2.1629
vt -139.5143 1.9313
vt -139.4439 1.9374
vt -139.4439 2.2764
vt -139.5143 2.2764
vt -139.4747 2.2764
vt -139.4051 2.2764
vt -137.7017 2.0884
vt -137.7017 2.2764
vt -137.6828 2.2764
vt -136.5390 2.0264
vt -136.5390 2.2764
vt -136.5333 2.2764
vt -135.3802 2.0612
vt -135.3802 2.2764
vt -135.3895 2.2764
vt -133.6657 2.1127
vt -133.6657 2.2764
vt -133.6972 2.2764
vt -133.0410 2.1096
vt -133.0410 2.2764
vt -133.0806 2.2764
vt -133.9758 2.1532
vt -133.9758 2.2764
vt -134.0048 2.2764
vt -134.5779 2.1812
vt -134.5779 2.2764
vt -134.6000 2.2764
vt -135.3802 2.1064
vt -135.3802 2.2764
vt -135.3931 2.2764
vt -136.0163 2.0471
vt -136.0163 2.2764
vt -136.0220 2.2764
vt -137.2062 2.0352
vt -137.2062 2.2764
vt -137.1964 2.2764
vt -139.5836 1.9270
vt -139.5058 1.9337
vt -139.5058 2.0889
vt -139.5836 2.0889
vt -139.5143 2.0889
vt -139.4380 2.0889
vt -139.0129 1.9764
vt -139.0129 2.0889
vt -138.9548 2.0889
vt -138.4845 1.9764
vt -138.4845 2.0889
vt -138.4395 2.0889
vt -138.9548 1.9764
vt -138.4395 1.9764
vt -119.0526 1.3779
vt -118.9824 1.3842
vt -118.9824 1.5779
vt -119.0526 1.5779
vt -119.0127 1.5779
vt -118.9432 1.5779
vt -117.8922 1.4817
vt -117.8922 1.5779
vt -117.8649 1.5779
vt -116.6302 1.4857
vt -116.6302 1.5779
vt -116.6166 1.5779
vt -115.6480 1.4888
vt -115.6480 1.5779
vt -115.6452 1.5779
vt -114.1042 1.4312
vt -114.1042 1.5779
vt -114.1300 1.5779
vt -113.3418 1.3460
vt -113.3418 1.5779
vt -113.3817 1.5779
vt -114.9550 1.3307
vt -114.9550 1.5779
vt -114.9774 1.5779
vt -115.7314 1.3234
vt -115.7314 1.5779
vt -115.7454 1.5779
vt -116.6302 1.2761
vt -116.6302 1.5779
vt -116.6344 1.5779
vt -116.7464 1.2654
vt -116.7464 1.5779
vt -116.7492 1.5779
vt -117.7966 1.3379
vt -117.7966 1.5779
vt -117.7800 1.5779
vt -116.4802 1.2779
vt -116.6302 1.2700
vt -116.6302 1.3904
vt -116.4802 1.3904
vt -116.4902 1.3904
vt -116.6374 1.3904
vt -116.7412 1.2598
vt -116.7412 1.3904
vt -116.7464 1.3904
vt -117.0042 1.2779
vt -117.0042 1.3904
vt -117.0010 1.3904
vt -116.4902 1.2779
vt -117.0010 1.2779
vt -140.8662 1.8995
vt -139.6425 2.0107
vt -139.6425 2.1793
vt -140.8662 2.1793
vt -140.8271 2.1793
vt -139.6201 2.1793
vt -138.6084 1.9468
vt -138.6084 2.1793
vt -138.6000 2.1793
vt -136.6608 1.9972
vt -136.6608 2.1793
vt -136.6999 2.1793
vt -137.9652 2.0778
vt -137.9652 2.1793
vt -137.9866 2.1793
vt -138.9186 1.9912
vt -138.9186 2.1793
vt -138.9270 2.1793
vt -127.9065 1.3194
vt -127.8047 1.3252
vt -127.8047 1.4917
vt -127.9065 1.4917
vt -127.8668 1.4917
vt -127.7664 1.4917
vt -126.7797 1.3843
vt -126.7797 1.4917
vt -126.7557 1.4917
vt -125.9989 1.4292
vt -125.9989 1.4917
vt -125.9859 1.4917
vt -124.9407 1.4292
vt -124.3359 1.3891
vt -124.3359 1.4917
vt -124.9407 1.4917
vt -124.9557 1.4917
vt -124.3756 1.4917
vt -125.0277 1.3492
vt -125.0277 1.4917
vt -125.0577 1.4917
vt -126.8101 1.2466
vt -126.8101 1.4917
vt -126.8152 1.4917
vt -126.8768 1.2510
vt -126.8768 1.4917
vt -126.8792 1.4917
vt -131.0605 1.4580
vt -130.5744 1.4890
vt -130.5744 1.5978
vt -131.0605 1.5978
vt -131.0215 1.5978
vt -130.5514 1.5978
vt -130.1737 1.5353
vt -130.1737 1.5978
vt -130.1638 1.5978
vt -129.9736 1.5353
vt -129.1302 1.5205
vt -129.1302 1.5978
vt -129.9736 1.5978
vt -129.9676 1.5978
vt -129.1383 1.5978
vt -128.2166 1.4678
vt -128.2166 1.5978
vt -128.2400 1.5978
vt -127.2842 1.4141
vt -127.2842 1.5978
vt -127.3232 1.5978
vt -127.4903 1.3984
vt -127.4903 1.5978
vt -127.5225 1.5978
vt -128.1226 1.3506
vt -128.1226 1.5978
vt -128.1340 1.5978
vt -128.1975 1.3450
vt -128.1975 1.5978
vt -128.2064 1.5978
vt -129.1302 1.3987
vt -129.1302 1.5978
vt -129.1235 1.5978
vt -129.4630 1.4179
vt -129.4630 1.5978
vt -129.4508 1.5978
vt -129.9934 1.4312
vt -129.9934 1.5978
vt -129.9723 1.5978
vt -132.7302 1.6559
vt -131.2133 1.7110
vt -131.2133 1.7735
vt -132.7302 1.7735
vt -132.6954 1.7735
vt -131.2165 1.7735
vt -130.4260 1.7110
vt -129.9521 1.6161
vt -129.9521 1.7735
vt -130.4260 1.7735
vt -130.4489 1.7735
vt -129.9868 1.7735
vt -131.9430 1.5437
vt -131.9430 1.7735
vt -131.9279 1.7735
vt -132.1352 1.5417
vt -132.1352 1.7735
vt -132.1154 1.7735
vt -132.2268 1.5551
vt -132.2268 1.7735
vt -132.2047 1.7735
vt -113.6809 1.4838
vt -113.1008 1.4857
vt -113.1008 1.5694
vt -113.6809 1.5694
vt -113.6410 1.5694
vt -113.0735 1.5694
vt -111.9798 1.4892
vt -111.9798 1.5694
vt -111.9769 1.5694
vt -110.4777 1.4332
vt -110.4777 1.5694
vt -110.4968 1.5694
vt -110.4254 1.4312
vt -110.4254 1.5694
vt -110.4452 1.5694
vt -110.3802 1.4262
vt -110.3802 1.5694
vt -110.4006 1.5694
vt -109.7612 1.3817
vt -109.7612 1.5694
vt -109.7906 1.5694
vt -109.0476 1.3285
vt -109.0476 1.5694
vt -109.0875 1.5694
vt -109.0926 1.3282
vt -109.0926 1.5694
vt -109.1315 1.5694
vt -110.3802 1.2646
vt -110.3802 1.5694
vt -110.3911 1.5694
vt -110.7487 1.2611
vt -110.7487 1.5694
vt -110.7516 1.5694
vt -112.2703 1.4312
vt -112.2703 1.5694
vt -112.2510 1.5694
vt -110.1915 1.2693
vt -110.3802 1.2600
vt -110.3802 1.3819
vt -110.1915 1.3819
vt -110.2168 1.3819
vt -110.3986 1.3819
vt -110.7436 1.2566
vt -110.7436 1.3819
vt -110.7487 1.3819
vt -110.8577 1.2693
vt -110.8577 1.3819
vt -110.8600 1.3819
vt -110.2168 1.2693
vt -110.8600 1.2693
vt -142.6679 1.8503
vt -142.4583 1.8559
vt -142.4583 1.9688
vt -142.6679 1.9688
vt -142.6340 1.9688
vt -142.4289 1.9688
vt -142.0831 1.8659
vt -142.0831 1.9688
vt -142.0619 1.9688
vt -141.6302 1.8367
vt -141.6302 1.9688
vt -141.6200 1.9688
vt -140.3735 1.9063
vt -140.3735 1.9688
vt -140.3940 1.9688
vt -140.0309 1.9063
vt -140.0781 1.8994
vt -140.0781 1.9688
vt -140.0309 1.9688
vt -140.0603 1.9688
vt -140.1064 1.9688
vt -140.4079 1.8510
vt -140.4079 1.9688
vt -140.4291 1.9688
vt -141.6302 1.7833
vt -141.6302 1.9688
vt -141.6216 1.9688
vt -109.4809 1.3554
vt -108.5749 1.3525
vt -108.5749 1.5204
vt -109.4809 1.5204
vt -109.4410 1.5204
vt -108.5720 1.5204
vt -107.0231 1.4104
vt -107.0231 1.5204
vt -107.0630 1.5204
vt -107.9291 1.4132
vt -107.9291 1.5204
vt -107.9320 1.5204
vt -124.9986 1.4654
vt -123.2944 1.5635
vt -123.2944 1.6260
vt -124.9986 1.6260
vt -124.9589 1.6260
vt -123.2833 1.6260
vt -122.2149 1.5635
vt -121.8346 1.5535
vt -121.8346 1.6260
vt -122.2149 1.6260
vt -122.2391 1.6260
vt -121.8743 1.6260
vt -122.8802 1.4515
vt -122.8802 1.6260
vt -122.9024 1.6260
vt -123.9022 1.3926
vt -123.9022 1.6260
vt -123.9073 1.6260
vt -123.9337 1.9351
vt -123.8502 1.9312
vt -123.8502 1.9976
vt -123.9337 1.9976
vt -123.8951 1.9976
vt -123.8155 1.9976
vt -123.2188 1.8726
vt -123.2188 1.9976
vt -123.2133 1.9976
vt -122.8802 1.8694
vt -122.8802 1.9976
vt -122.8798 1.9976
vt -121.9996 1.8256
vt -121.9996 1.9976
vt -122.0123 1.9976
vt -120.8365 1.7678
vt -120.8365 1.9976
vt -120.8666 1.9976
vt -120.1972 1.7360
vt -120.1972 1.9976
vt -120.2368 1.9976
vt -120.9356 1.8340
vt -120.9356 1.9976
vt -120.9411 1.9976
vt -122.8630 1.9299
vt -122.8630 1.9976
vt -122.8397 1.9976
vt -122.8728 1.9304
vt -122.8728 1.9976
vt -122.8494 1.9976
vt -122.8802 1.9307
vt -122.8802 1.9976
vt -122.8567 1.9976
vt -122.9340 1.9312
vt -122.9340 1.9976
vt -122.9096 1.9976
vt -123.7319 1.9351
vt -123.7319 1.9976
vt -123.6956 1.9976
vt -123.5427 1.6607
vt -123.0558 1.6848
vt -123.0558 1.7978
vt -123.5427 1.7978
vt -123.5028 1.7978
vt -123.0317 1.7978
vt -122.9744 1.6888
vt -122.9744 1.7978
vt -122.9529 1.7978
vt -122.8802 1.6853
vt -122.8802 1.7978
vt -122.8617 1.7978
vt -122.3962 1.6868
vt -122.3962 1.7978
vt -122.3933 1.7978
vt -122.2463 1.6812
vt -122.2463 1.7978
vt -122.2482 1.7978
vt -121.5124 1.6539
vt -121.5124 1.7978
vt -121.5380 1.7978
vt -121.0692 1.6374
vt -121.0692 1.7978
vt -121.1091 1.7978
vt -121.7311 1.6353
vt -121.7311 1.7978
vt -121.7497 1.7978
vt -122.2156 1.5919
vt -122.2156 1.7978
vt -122.2186 1.7978
vt -122.8802 1.6131
vt -122.8802 1.7978
vt -122.8617 1.7978
vt -123.4896 1.6569
vt -123.4896 1.7978
vt -123.4514 1.7978
vt -122.7161 1.7082
vt -121.2590 1.7079
vt -121.2590 1.8259
vt -122.7161 1.8259
vt -122.6761 1.8259
vt -121.2592 1.8259
vt -120.5967 1.6812
vt -120.5967 1.8259
vt -120.6239 1.8259
vt -120.2839 1.6687
vt -120.2839 1.8259
vt -120.3239 1.8259
vt -121.7410 1.6690
vt -121.7410 1.8259
vt -121.7408 1.8259
vt -122.0467 1.6812
vt -122.0467 1.8259
vt -122.0340 1.8259
vt -132.0854 1.8519
vt -130.8525 1.8967
vt -130.8525 1.9592
vt -132.0854 1.9592
vt -132.0506 1.9592
vt -130.8698 1.9592
vt -130.7816 1.8967
vt -130.2561 1.7915
vt -130.2561 1.9592
vt -130.7816 1.9592
vt -130.8018 1.9592
vt -130.2909 1.9592
vt -130.7337 1.7742
vt -130.7337 1.9592
vt -130.7483 1.9592
vt -131.5490 1.7446
vt -131.5490 1.9592
vt -131.5291 1.9592
vt -131.6095 1.7567
vt -131.6095 1.9592
vt -131.5880 1.9592
vt -136.2272 1.6812
vt -135.5594 1.6812
vt -135.5594 1.7849
vt -136.2272 1.7849
vt -136.1925 1.7849
vt -135.5487 1.7849
vt -135.4186 1.6812
vt -135.4186 1.7849
vt -135.4129 1.7849
vt -135.3802 1.6832
vt -135.3802 1.7849
vt -135.3759 1.7849
vt -135.3131 1.6866
vt -135.3131 1.7849
vt -135.3112 1.7849
vt -134.7092 1.7086
vt -134.7092 1.7849
vt -134.7291 1.7849
vt -134.6461 1.6959
vt -134.6461 1.7849
vt -134.6680 1.7849
vt -134.3712 1.6409
vt -134.3712 1.7849
vt -134.4016 1.7849
vt -134.2343 1.6208
vt -134.2343 1.7849
vt -134.2690 1.7849
vt -135.3802 1.6083
vt -135.3802 1.7849
vt -135.3737 1.7849
vt -135.7523 1.6191
vt -135.7523 1.7849
vt -135.7324 1.7849
vt -136.0848 1.6812
vt -136.0848 1.7849
vt -136.0546 1.7849
vn -0.9881 -0.1541 0.0000
vn 0.0000 -0.0000 1.0000
vn -0.1366 0.9906 0.0000
vn 0.9909 0.1342 0.0000
vn 0.1883 -0.9821 0.0000
vn 0.9750 0.2223 0.0000
vn 0.2029 -0.9792 0.0000
vn -0.3284 0.9445 0.0000
vn 0.9448 0.3276 0.0000
vn 0.3278 -0.9447 0.0000
vn 0.9958 -0.0911 0.0000
vn -0.0474 -0.9989 0.0000
vn 0.4014 0.9159 0.0000
vn 0.9152 -0.4030 0.0000
vn -0.4027 -0.9153 0.0000
vn 0.2900 0.9570 0.0000
vn 0.9573 -0.2889 0.0000
vn -0.2883 -0.9576 0.0000
vn -0.3256 0.9455 0.0000
vn 0.9517 0.3069 0.0000
vn 0.2535 -0.9673 0.0000
vn -0.1952 0.9808 0.0000
vn 0.9017 0.4324 0.0000
vn -0.0124 0.9999 0.0000
vn 0.9999 0.0122 0.0000
vn -0.3162 0.9487 0.0000
vn 0.9484 0.3170 0.0000
vn -0.9982 -0.0602 0.0000
vn -0.0882 0.9961 0.0000
vn 0.1430 -0.9897 0.0000
vn -0.2298 0.9732 0.0000
vn 0.9732 0.2298 0.0000
vn 0.2297 -0.9733 0.0000
vn -0.9733 -0.2297 0.0000
vn -0.2073 0.9783 0.0000
vn 0.9783 0.2073 0.0000
vn 0.9783 0.2072 0.0000
vn 0.2073 -0.9783 0.0000
vn -0.9783 -0.2073 0.0000
vn -0.9783 -0.2072 0.0000
vn 0.8600 0.5103 0.0000
vn -0.9478 0.3188 0.0000
vn 0.9777 0.2098 0.0000
vn 0.2098 -0.9777 0.0000
vn -0.9777 -0.2098 0.0000
vn -0.2098 0.9777 0.0000
vn -0.1530 0.9882 0.0000
vn 0.9882 0.1530 0.0000
vn 0.1530 -0.9882 0.0000
vn -0.9882 -0.1530 0.0000
vn -0.1131 0.9936 0.0000
vn 0.9936 0.1131 0.0000
vn 0.1131 -0.9936 0.0000
vn -0.9936 -0.1131 0.0000
vn 0.0049 1.0000 0.0000
vn 1.0000 -0.0049 0.0000
vn -0.0049 -1.0000 0.0000
vn -1.0000 0.0049 0.0000
vn -0.1411 0.9900 0.0000
vn 0.9900 0.1411 0.0000
vn 0.1411 -0.9900 0.0000
vn -0.9900 -0.1411 0.0000
vn 0.7652 0.6438 0.0000
vn -0.2244 -0.9745 0.0000
vn -0.0728 0.9973 0.0000
vn 0.9973 0.0728 0.0000
vn 0.0728 -0.9973 0.0000
vn -0.9973 -0.0728 0.0000
vn 0.8072 -0.5902 0.0000
vn -0.6704 0.7420 0.0000
vn -0.1268 0.9919 0.0000
vn 0.9919 0.1268 0.0000
vn 0.1268 -0.9919 0.0000
vn -0.9919 -0.1268 0.0000
vn -0.2231 0.9748 0.0000
vn 0.9748 0.2231 0.0000
vn 0.2231 -0.9748 0.0000
vn -0.9748 -0.2231 0.0000
vn 0.4963 0.8681 0.0000
vn 0.8682 -0.4963 0.0000
vn -0.4963 -0.8681 0.0000
vn -0.8681 0.4963 0.0000
vn 0.9595 -0.2818 0.0000
vn -0.7304 0.6831 0.0000
vn -0.5301 0.8479 0.0000
vn 0.8479 0.5301 0.0000
vn 0.5301 -0.8479 0.0000
vn -0.8479 -0.5301 0.0000
vn -0.1369 0.9906 0.0000
vn 0.9906 0.1369 0.0000
vn 0.1369 -0.9906 0.0000
vn -0.9906 -0.1369 0.0000
vn 0.8681 -0.4963 0.0000
vn -0.8682 0.4963 0.0000
f 1/1/1 3/3/1 2/2/1
f 1/1/1 4/4/1 3/3/1
f 5/5/2 6/6/2 3/3/2
f 5/5/2 3/3/2 4/4/2
f 7/7/3 9/9/3 8/8/3
f 7/7/3 10/10/3 9/9/3
f 11/11/2 12/12/2 9/9/2
f 11/11/2 9/9/2 10/10/2
f 8/8/4 14/14/4 13/13/4
f 8/8/4 9/9/4 14/14/4
f 12/12/2 15/15/2 14/14/2
f 12/12/2 14/14/2 9/9/2
f 13/13/4 17/17/4 16/16/4
f 13/13/4 14/14/4 17/17/4
f 15/15/2 18/18/2 17/17/2
f 15/15/2 17/17/2 14/14/2
f 16/16/5 20/20/5 19/19/5
f 16/16/5 17/17/5 20/20/5
f 18/18/2 21/21/2 20/20/2
f 18/18/2 20/20/2 17/17/2
f 19/19/5 4/4/5 1/1/5
f 19/19/5 20/20/5 4/4/5
f 21/21/2 5/5/2 4/4/2
f 21/21/2 4/4/2 20/20/2
f 22/22/6 24/24/6 23/23/6
f 22/22/6 25/25/6 24/24/6
f 26/26/2 27/27/2 24/24/2
f 26/26/2 24/24/2 25/25/2
f 23/23/6 29/29/6 28/28/6
f 23/23/6 24/24/6 29/29/6
f 27/27/2 30/30/2 29/29/2
f 27/27/2 29/29/2 24/24/2
f 28/28/6 32/32/6 31/31/6
f 28/28/6 29/29/6 32/32/6
f 30/30/2 33/33/2 32/32/2
f 30/30/2 32/32/2 29/29/2
f 31/31/6 35/35/6 34/34/6
f 31/31/6 32/32/6 35/35/6
f 33/33/2 36/36/2 35/35/2
f 33/33/2 35/35/2 32/32/2
f 34/34/7 38/38/7 37/37/7
f 34/34/7 35/35/7 38/38/7
f 36/36/2 39/39/2 38/38/2
f 36/36/2 38/38/2 35/35/2
f 40/40/8 42/42/8 41/41/8
f 40/40/8 43/43/8 42/42/8
f 44/44/2 45/45/2 42/42/2
f 44/44/2 42/42/2 43/43/2
f 41/41/9 47/47/9 46/46/9
f 41/41/9 42/42/9 47/47/9
f 45/45/2 48/48/2 47/47/2
f 45/45/2 47/47/2 42/42/2
f 46/46/9 50/50/9 49/49/9
f 46/46/9 47/47/9 50/50/9
f 48/48/2 51/51/2 50/50/2
f 48/48/2 50/50/2 47/47/2
f 49/49/10 53/53/10 52/52/10
f 49/49/10 50/50/10 53/53/10
f 51/51/2 54/54/2 53/53/2
f 51/51/2 53/53/2 50/50/2
f 52/52/10 56/56/10 55/55/10
f 52/52/10 53/53/10 56/56/10
f 54/54/2 57/57/2 56/56/2
f 54/54/2 56/56/2 53/53/2
f 58/58/11 60/60/11 59/59/11
f 58/58/11 61/61/11 60/60/11
f 62/62/2 63/63/2 60/60/2
f 62/62/2 60/60/2 61/61/2
f 59/59/11 65/65/11 64/64/11
f 59/59/11 60/60/11 65/65/11
f 63/63/2 66/66/2 65/65/2
f 63/63/2 65/65/2 60/60/2
f 64/64/11 68/68/11 67/67/11
f 64/64/11 65/65/11 68/68/11
f 66/66/2 69/69/2 68/68/2
f 66/66/2 68/68/2 65/65/2
f 67/67/11 71/71/11 70/70/11
f 67/67/11 68/68/11 71/71/11
f 69/69/2 72/72/2 71/71/2
f 69/69/2 71/71/2 68/68/2
f 70/70/12 74/74/12 73/73/12
f 70/70/12 71/71/12 74/74/12
f 72/72/2 75/75/2 74/74/2
f 72/72/2 74/74/2 71/71/2
f 76/76/13 78/78/13 77/77/13
f 76/76/13 79/79/13 78/78/13
f 80/80/2 81/81/2 78/78/2
f 80/80/2 78/78/2 79/79/2
f 77/77/14 83/83/14 82/82/14
f 77/77/14 78/78/14 83/83/14
f 81/81/2 84/84/2 83/83/2
f 81/81/2 83/83/2 78/78/2
f 82/82/14 86/86/14 85/85/14
f 82/82/14 83/83/14 86/86/14
f 84/84/2 87/87/2 86/86/2
f 84/84/2 86/86/2 83/83/2
f 85/85/14 89/89/14 88/88/14
f 85/85/14 86/86/14 89/89/14
f 87/87/2 90/90/2 89/89/2
f 87/87/2 89/89/2 86/86/2
f 88/88/15 92/92/15 91/91/15
f 88/88/15 89/89/15 92/92/15
f 90/90/2 93/93/2 92/92/2
f 90/90/2 92/92/2 89/89/2
f 94/94/16 96/96/16 95/95/16
f 94/94/16 97/97/16 96/96/16
f 98/98/2 99/99/2 96/96/2
f 98/98/2 96/96/2 97/97/2
f 95/95/16 101/101/16 100/100/16
f 95/95/16 96/96/16 101/101/16
f 99/99/2 102/102/2 101/101/2
f 99/99/2 101/101/2 96/96/2
f 100/100/17 104/104/17 103/103/17
f 100/100/17 101/101/17 104/104/17
f 102/102/2 105/105/2 104/104/2
f 102/102/2 104/104/2 101/101/2
f 103/103/17 107/107/17 106/106/17
f 103/103/17 104/104/17 107/107/17
f 105/105/2 108/108/2 107/107/2
f 105/105/2 107/107/2 104/104/2
f 106/106/18 110/110/18 109/109/18
f 106/106/18 107/107/18 110/110/18
f 108/108/2 111/111/2 110/110/2
f 108/108/2 110/110/2 107/107/2
f 112/112/19 114/114/19 113/113/19
f 112/112/19 115/115/19 114/114/19
f 116/116/2 117/117/2 114/114/2
f 116/116/2 114/114/2 115/115/2
f 113/113/20 119/119/20 118/118/20
f 113/113/20 114/114/20 119/119/20
f 117/117/2 120/120/2 119/119/2
f 117/117/2 119/119/2 114/114/2
f 118/118/20 122/122/20 121/121/20
f 118/118/20 119/119/20 122/122/20
f 120/120/2 123/123/2 122/122/2
f 120/120/2 122/122/2 119/119/2
f 121/121/21 125/125/21 124/124/21
f 121/121/21 122/122/21 125/125/21
f 123/123/2 126/126/2 125/125/2
f 123/123/2 125/125/2 122/122/2
f 127/127/22 129/129/22 128/128/22
f 127/127/22 130/130/22 129/129/22
f 131/131/2 132/132/2 129/129/2
f 131/131/2 129/129/2 130/130/2
f 128/128/23 134/134/23 133/133/23
f 128/128/23 129/129/23 134/134/23
f 132/132/2 135/135/2 134/134/2
f 132/132/2 134/134/2 129/129/2
f 133/133/23 137/137/23 136/136/23
f 133/133/23 134/134/23 137/137/23
f 135/135/2 138/138/2 137/137/2
f 135/135/2 137/137/2 134/134/2
f 136/136/23 140/140/23 139/139/23
f 136/136/23 137/137/23 140/140/23
f 138/138/2 141/141/2 140/140/2
f 138/138/2 140/140/2 137/137/2
f 139/139/23 143/143/23 142/142/23
f 139/139/23 140/140/23 143/143/23
f 141/141/2 144/144/2 143/143/2
f 141/141/2 143/143/2 140/140/2
f 145/145/24 147/147/24 146/146/24
f 145/145/24 148/148/24 147/147/24
f 149/149/2 150/150/2 147/147/2
f 149/149/2 147/147/2 148/148/2
f 146/146/24 152/152/24 151/151/24
f 146/146/24 147/147/24 152/152/24
f 150/150/2 153/153/2 152/152/2
f 150/150/2 152/152/2 147/147/2
f 151/151/25 155/155/25 154/154/25
f 151/151/25 152/152/25 155/155/25
f 153/153/2 156/156/2 155/155/2
f 153/153/2 155/155/2 152/152/2
f 154/154/25 158/158/25 157/157/25
f 154/154/25 155/155/25 158/158/25
f 156/156/2 159/159/2 158/158/2
f 156/156/2 158/158/2 155/155/2
f 157/157/25 161/161/25 160/160/25
f 157/157/25 158/158/25 161/161/25
f 159/159/2 162/162/2 161/161/2
f 159/159/2 161/161/2 158/158/2
f 160/160/25 164/164/25 163/163/25
f 160/160/25 161/161/25 164/164/25
f 162/162/2 165/165/2 164/164/2
f 162/162/2 164/164/2 161/161/2
f 166/166/26 168/168/26 167/167/26
f 166/166/26 169/169/26 168/168/26
f 170/170/2 171/171/2 168/168/2
f 170/170/2 168/168/2 169/169/2
f 167/167/27 173/173/27 172/172/27
f 167/167/27 168/168/27 173/173/27
f 171/171/2 174/174/2 173/173/2
f 171/171/2 173/173/2 168/168/2
f 172/172/27 176/176/27 175/175/27
f 172/172/27 173/173/27 176/176/27
f 174/174/2 177/177/2 176/176/2
f 174/174/2 176/176/2 173/173/2
f 178/178/28 180/180/28 179/179/28
f 178/178/28 181/181/28 180/180/28
f 182/182/2 183/183/2 180/180/2
f 182/182/2 180/180/2 181/181/2
f 179/179/28 185/185/28 184/184/28
f 179/179/28 180/180/28 185/185/28
f 183/183/2 186/186/2 185/185/2
f 183/183/2 185/185/2 180/180/2
f 184/184/29 188/188/29 187/187/29
f 184/184/29 185/185/29 188/188/29
f 186/186/2 189/189/2 188/188/2
f 186/186/2 188/188/2 185/185/2
f 190/190/30 181/181/30 178/178/30
f 190/190/30 191/191/30 181/181/30
f 192/192/2 182/182/2 181/181/2
f 192/192/2 181/181/2 191/191/2
f 193/193/31 195/195/31 194/194/31
f 193/193/31 196/196/31 195/195/31
f 197/197/2 198/198/2 195/195/2
f 197/197/2 195/195/2 196/196/2
f 194/194/31 200/200/31 199/199/31
f 194/194/31 195/195/31 200/200/31
f 198/198/2 201/201/2 200/200/2
f 198/198/2 200/200/2 195/195/2
f 202/202/32 204/204/32 203/203/32
f 202/202/32 205/205/32 204/204/32
f 206/206/2 207/207/2 204/204/2
f 206/206/2 204/204/2 205/205/2
f 203/203/33 209/209/33 208/208/33
f 203/203/33 204/204/33 209/209/33
f 207/207/2 210/210/2 209/209/2
f 207/207/2 209/209/2 204/204/2
f 208/208/34 212/212/34 211/211/34
f 208/208/34 209/209/34 212/212/34
f 210/210/2 213/213/2 212/212/2
f 210/210/2 212/212/2 209/209/2
f 211/211/34 196/196/34 193/193/34
f 211/211/34 212/212/34 196/196/34
f 213/213/2 197/197/2 196/196/2
f 213/213/2 196/196/2 212/212/2
f 214/214/35 216/216/35 215/215/35
f 214/214/35 217/217/35 216/216/35
f 218/218/2 219/219/2 216/216/2
f 218/218/2 216/216/2 217/217/2
f 215/215/36 221/221/36 220/220/36
f 215/215/36 216/216/36 221/221/36
f 219/219/2 222/222/2 221/221/2
f 219/219/2 221/221/2 216/216/2
f 220/220/37 224/224/37 223/223/37
f 220/220/37 221/221/37 224/224/37
f 222/222/2 225/225/2 224/224/2
f 222/222/2 224/224/2 221/221/2
f 223/223/37 227/227/37 226/226/37
f 223/223/37 224/224/37 227/227/37
f 225/225/2 228/228/2 227/227/2
f 225/225/2 227/227/2 224/224/2
f 226/226/37 230/230/37 229/229/37
f 226/226/37 227/227/37 230/230/37
f 228/228/2 231/231/2 230/230/2
f 228/228/2 230/230/2 227/227/2
f 229/229/36 233/233/36 232/232/36
f 229/229/36 230/230/36 233/233/36
f 231/231/2 234/234/2 233/233/2
f 231/231/2 233/233/2 230/230/2
f 232/232/36 236/236/36 235/235/36
f 232/232/36 233/233/36 236/236/36
f 234/234/2 237/237/2 236/236/2
f 234/234/2 236/236/2 233/233/2
f 235/235/36 239/239/36 238/238/36
f 235/235/36 236/236/36 239/239/36
f 237/237/2 240/240/2 239/239/2
f 237/237/2 239/239/2 236/236/2
f 238/238/38 242/242/38 241/241/38
f 238/238/38 239/239/38 242/242/38
f 240/240/2 243/243/2 242/242/2
f 240/240/2 242/242/2 239/239/2
f 241/241/38 245/245/38 244/244/38
f 241/241/38 242/242/38 245/245/38
f 243/243/2 246/246/2 245/245/2
f 243/243/2 245/245/2 242/242/2
f 244/244/38 248/248/38 247/247/38
f 244/244/38 245/245/38 248/248/38
f 246/246/2 249/249/2 248/248/2
f 246/246/2 248/248/2 245/245/2
f 247/247/38 251/251/38 250/250/38
f 247/247/38 248/248/38 251/251/38
f 249/249/2 252/252/2 251/251/2
f 249/249/2 251/251/2 248/248/2
f 250/250/39 254/254/39 253/253/39
f 250/250/39 251/251/39 254/254/39
f 252/252/2 255/255/2 254/254/2
f 252/252/2 254/254/2 251/251/2
f 253/253/39 257/257/39 256/256/39
f 253/253/39 254/254/39 257/257/39
f 255/255/2 258/258/2 257/257/2
f 255/255/2 257/257/2 254/254/2
f 256/256/40 260/260/40 259/259/40
f 256/256/40 257/257/40 260/260/40
f 258/258/2 261/261/2 260/260/2
f 258/258/2 260/260/2 257/257/2
f 259/259/40 263/263/40 262/262/40
f 259/259/40 260/260/40 263/263/40
f 261/261/2 264/264/2 263/263/2
f 261/261/2 263/263/2 260/260/2
f 265/265/38 267/267/38 266/266/38
f 265/265/38 268/268/38 267/267/38
f 269/269/2 270/270/2 267/267/2
f 269/269/2 267/267/2 268/268/2
f 266/266/38 272/272/38 271/271/38
f 266/266/38 267/267/38 272/272/38
f 270/270/2 273/273/2 272/272/2
f 270/270/2 272/272/2 267/267/2
f 265/265/41 274/274/41 269/269/41
f 265/265/41 269/269/41 268/268/41
f 271/271/42 273/273/42 275/275/42
f 271/271/42 272/272/42 273/273/42
f 276/276/38 278/278/38 277/277/38
f 276/276/38 279/279/38 278/278/38
f 280/280/2 281/281/2 278/278/2
f 280/280/2 278/278/2 279/279/2
f 282/282/36 284/284/36 283/283/36
f 282/282/36 285/285/36 284/284/36
f 286/286/2 287/287/2 284/284/2
f 286/286/2 284/284/2 285/285/2
f 283/283/36 289/289/36 288/288/36
f 283/283/36 284/284/36 289/289/36
f 287/287/2 290/290/2 289/289/2
f 287/287/2 289/289/2 284/284/2
f 288/288/35 292/292/35 291/291/35
f 288/288/35 289/289/35 292/292/35
f 290/290/2 293/293/2 292/292/2
f 290/290/2 292/292/2 289/289/2
f 291/291/40 295/295/40 294/294/40
f 291/291/40 292/292/40 295/295/40
f 293/293/2 296/296/2 295/295/2
f 293/293/2 295/295/2 292/292/2
f 294/294/40 279/279/40 276/276/40
f 294/294/40 295/295/40 279/279/40
f 296/296/2 280/280/2 279/279/2
f 296/296/2 279/279/2 295/295/2
f 297/297/43 299/299/43 298/298/43
f 297/297/43 300/300/43 299/299/43
f 301/301/2 302/302/2 299/299/2
f 301/301/2 299/299/2 300/300/2
f 298/298/43 304/304/43 303/303/43
f 298/298/43 299/299/43 304/304/43
f 302/302/2 305/305/2 304/304/2
f 302/302/2 304/304/2 299/299/2
f 303/303/43 307/307/43 306/306/43
f 303/303/43 304/304/43 307/307/43
f 305/305/2 308/308/2 307/307/2
f 305/305/2 307/307/2 304/304/2
f 306/306/44 310/310/44 309/309/44
f 306/306/44 307/307/44 310/310/44
f 308/308/2 311/311/2 310/310/2
f 308/308/2 310/310/2 307/307/2
f 309/309/44 313/313/44 312/312/44
f 309/309/44 310/310/44 313/313/44
f 311/311/2 314/314/2 313/313/2
f 311/311/2 313/313/2 310/310/2
f 312/312/45 316/316/45 315/315/45
f 312/312/45 313/313/45 316/316/45
f 314/314/2 317/317/2 316/316/2
f 314/314/2 316/316/2 313/313/2
f 315/315/45 319/319/45 318/318/45
f 315/315/45 316/316/45 319/319/45
f 317/317/2 320/320/2 319/319/2
f 317/317/2 319/319/2 316/316/2
f 318/318/45 322/322/45 321/321/45
f 318/318/45 319/319/45 322/322/45
f 320/320/2 323/323/2 322/322/2
f 320/320/2 322/322/2 319/319/2
f 321/321/45 325/325/45 324/324/45
f 321/321/45 322/322/45 325/325/45
f 323/323/2 326/326/2 325/325/2
f 323/323/2 325/325/2 322/322/2
f 324/324/45 328/328/45 327/327/45
f 324/324/45 325/325/45 328/328/45
f 326/326/2 329/329/2 328/328/2
f 326/326/2 328/328/2 325/325/2
f 330/330/46 332/332/46 331/331/46
f 330/330/46 333/333/46 332/332/46
f 334/334/2 335/335/2 332/332/2
f 334/334/2 332/332/2 333/333/2
f 331/331/43 337/337/43 336/336/43
f 331/331/43 332/332/43 337/337/43
f 335/335/2 338/338/2 337/337/2
f 335/335/2 337/337/2 332/332/2
f 336/336/43 340/340/43 339/339/43
f 336/336/43 337/337/43 340/340/43
f 338/338/2 341/341/2 340/340/2
f 338/338/2 340/340/2 337/337/2
f 339/339/43 343/343/43 342/342/43
f 339/339/43 340/340/43 343/343/43
f 341/341/2 344/344/2 343/343/2
f 341/341/2 343/343/2 340/340/2
f 342/342/44 346/346/44 345/345/44
f 342/342/44 343/343/44 346/346/44
f 344/344/2 347/347/2 346/346/2
f 344/344/2 346/346/2 343/343/2
f 345/345/44 349/349/44 348/348/44
f 345/345/44 346/346/44 349/349/44
f 347/347/2 350/350/2 349/349/2
f 347/347/2 349/349/2 346/346/2
f 348/348/44 352/352/44 351/351/44
f 348/348/44 349/349/44 352/352/44
f 350/350/2 353/353/2 352/352/2
f 350/350/2 352/352/2 349/349/2
f 351/351/44 355/355/44 354/354/44
f 351/351/44 352/352/44 355/355/44
f 353/353/2 356/356/2 355/355/2
f 353/353/2 355/355/2 352/352/2
f 354/354/45 358/358/45 357/357/45
f 354/354/45 355/355/45 358/358/45
f 356/356/2 359/359/2 358/358/2
f 356/356/2 358/358/2 355/355/2
f 357/357/45 333/333/45 330/330/45
f 357/357/45 358/358/45 333/333/45
f 359/359/2 334/334/2 333/333/2
f 359/359/2 333/333/2 358/358/2
f 360/360/35 362/362/35 361/361/35
f 360/360/35 363/363/35 362/362/35
f 364/364/2 365/365/2 362/362/2
f 364/364/2 362/362/2 363/363/2
f 361/361/36 367/367/36 366/366/36
f 361/361/36 362/362/36 367/367/36
f 365/365/2 368/368/2 367/367/2
f 365/365/2 367/367/2 362/362/2
f 366/366/36 370/370/36 369/369/36
f 366/366/36 367/367/36 370/370/36
f 368/368/2 371/371/2 370/370/2
f 368/368/2 370/370/2 367/367/2
f 369/369/38 373/373/38 372/372/38
f 369/369/38 370/370/38 373/373/38
f 371/371/2 374/374/2 373/373/2
f 371/371/2 373/373/2 370/370/2
f 372/372/40 376/376/40 375/375/40
f 372/372/40 373/373/40 376/376/40
f 374/374/2 377/377/2 376/376/2
f 374/374/2 376/376/2 373/373/2
f 375/375/40 363/363/40 360/360/40
f 375/375/40 376/376/40 363/363/40
f 377/377/2 364/364/2 363/363/2
f 377/377/2 363/363/2 376/376/2
f 378/378/47 380/380/47 379/379/47
f 378/378/47 381/381/47 380/380/47
f 382/382/2 383/383/2 380/380/2
f 382/382/2 380/380/2 381/381/2
f 379/379/47 385/385/47 384/384/47
f 379/379/47 380/380/47 385/385/47
f 383/383/2 386/386/2 385/385/2
f 383/383/2 385/385/2 380/380/2
f 384/384/47 388/388/47 387/387/47
f 384/384/47 385/385/47 388/388/47
f 386/386/2 389/389/2 388/388/2
f 386/386/2 388/388/2 385/385/2
f 387/387/47 391/391/47 390/390/47
f 387/387/47 388/388/47 391/391/47
f 389/389/2 392/392/2 391/391/2
f 389/389/2 391/391/2 388/388/2
f 390/390/47 394/394/47 393/393/47
f 390/390/47 391/391/47 394/394/47
f 392/392/2 395/395/2 394/394/2
f 392/392/2 394/394/2 391/391/2
f 393/393/48 397/397/48 396/396/48
f 393/393/48 394/394/48 397/397/48
f 395/395/2 398/398/2 397/397/2
f 395/395/2 397/397/2 394/394/2
f 396/396/48 400/400/48 399/399/48
f 396/396/48 397/397/48 400/400/48
f 398/398/2 401/401/2 400/400/2
f 398/398/2 400/400/2 397/397/2
f 399/399/48 403/403/48 402/402/48
f 399/399/48 400/400/48 403/403/48
f 401/401/2 404/404/2 403/403/2
f 401/401/2 403/403/2 400/400/2
f 402/402/49 406/406/49 405/405/49
f 402/402/49 403/403/49 406/406/49
f 404/404/2 407/407/2 406/406/2
f 404/404/2 406/406/2 403/403/2
f 405/405/49 409/409/49 408/408/49
f 405/405/49 406/406/49 409/409/49
f 407/407/2 410/410/2 409/409/2
f 407/407/2 409/409/2 406/406/2
f 411/411/50 413/413/50 412/412/50
f 411/411/50 414/414/50 413/413/50
f 415/415/2 416/416/2 413/413/2
f 415/415/2 413/413/2 414/414/2
f 412/412/50 381/381/50 378/378/50
f 412/412/50 413/413/50 381/381/50
f 416/416/2 382/382/2 381/381/2
f 416/416/2 381/381/2 413/413/2
f 417/417/51 419/419/51 418/418/51
f 417/417/51 420/420/51 419/419/51
f 421/421/2 422/422/2 419/419/2
f 421/421/2 419/419/2 420/420/2
f 418/418/51 424/424/51 423/423/51
f 418/418/51 419/419/51 424/424/51
f 422/422/2 425/425/2 424/424/2
f 422/422/2 424/424/2 419/419/2
f 423/423/52 427/427/52 426/426/52
f 423/423/52 424/424/52 427/427/52
f 425/425/2 428/428/2 427/427/2
f 425/425/2 427/427/2 424/424/2
f 426/426/52 430/430/52 429/429/52
f 426/426/52 427/427/52 430/430/52
f 428/428/2 431/431/2 430/430/2
f 428/428/2 430/430/2 427/427/2
f 429/429/52 433/433/52 432/432/52
f 429/429/52 430/430/52 433/433/52
f 431/431/2 434/434/2 433/433/2
f 431/431/2 433/433/2 430/430/2
f 432/432/53 436/436/53 435/435/53
f 432/432/53 433/433/53 436/436/53
f 434/434/2 437/437/2 436/436/2
f 434/434/2 436/436/2 433/433/2
f 435/435/53 439/439/53 438/438/53
f 435/435/53 436/436/53 439/439/53
f 437/437/2 440/440/2 439/439/2
f 437/437/2 439/439/2 436/436/2
f 441/441/54 420/420/54 417/417/54
f 441/441/54 442/442/54 420/420/54
f 443/443/2 421/421/2 420/420/2
f 443/443/2 420/420/2 442/442/2
f 444/444/55 446/446/55 445/445/55
f 444/444/55 447/447/55 446/446/55
f 448/448/2 449/449/2 446/446/2
f 448/448/2 446/446/2 447/447/2
f 445/445/55 451/451/55 450/450/55
f 445/445/55 446/446/55 451/451/55
f 449/449/2 452/452/2 451/451/2
f 449/449/2 451/451/2 446/446/2
f 450/450/56 454/454/56 453/453/56
f 450/450/56 451/451/56 454/454/56
f 452/452/2 455/455/2 454/454/2
f 452/452/2 454/454/2 451/451/2
f 453/453/56 457/457/56 456/456/56
f 453/453/56 454/454/56 457/457/56
f 455/455/2 458/458/2 457/457/2
f 455/455/2 457/457/2 454/454/2
f 456/456/56 460/460/56 459/459/56
f 456/456/56 457/457/56 460/460/56
f 458/458/2 461/461/2 460/460/2
f 458/458/2 460/460/2 457/457/2
f 459/459/56 463/463/56 462/462/56
f 459/459/56 460/460/56 463/463/56
f 461/461/2 464/464/2 463/463/2
f 461/461/2 463/463/2 460/460/2
f 462/462/57 466/466/57 465/465/57
f 462/462/57 463/463/57 466/466/57
f 464/464/2 467/467/2 466/466/2
f 464/464/2 466/466/2 463/463/2
f 465/465/57 469/469/57 468/468/57
f 465/465/57 466/466/57 469/469/57
f 467/467/2 470/470/2 469/469/2
f 467/467/2 469/469/2 466/466/2
f 468/468/57 472/472/57 471/471/57
f 468/468/57 469/469/57 472/472/57
f 470/470/2 473/473/2 472/472/2
f 470/470/2 472/472/2 469/469/2
f 471/471/58 475/475/58 474/474/58
f 471/471/58 472/472/58 475/475/58
f 473/473/2 476/476/2 475/475/2
f 473/473/2 475/475/2 472/472/2
f 474/474/58 478/478/58 477/477/58
f 474/474/58 475/475/58 478/478/58
f 476/476/2 479/479/2 478/478/2
f 476/476/2 478/478/2 475/475/2
f 480/480/59 482/482/59 481/481/59
f 480/480/59 483/483/59 482/482/59
f 484/484/2 485/485/2 482/482/2
f 484/484/2 482/482/2 483/483/2
f 481/481/59 487/487/59 486/486/59
f 481/481/59 482/482/59 487/487/59
f 485/485/2 488/488/2 487/487/2
f 485/485/2 487/487/2 482/482/2
f 486/486/59 490/490/59 489/489/59
f 486/486/59 487/487/59 490/490/59
f 488/488/2 491/491/2 490/490/2
f 488/488/2 490/490/2 487/487/2
f 489/489/60 493/493/60 492/492/60
f 489/489/60 490/490/60 493/493/60
f 491/491/2 494/494/2 493/493/2
f 491/491/2 493/493/2 490/490/2
f 492/492/60 496/496/60 495/495/60
f 492/492/60 493/493/60 496/496/60
f 494/494/2 497/497/2 496/496/2
f 494/494/2 496/496/2 493/493/2
f 495/495/60 499/499/60 498/498/60
f 495/495/60 496/496/60 499/499/60
f 497/497/2 500/500/2 499/499/2
f 497/497/2 499/499/2 496/496/2
f 498/498/61 502/502/61 501/501/61
f 498/498/61 499/499/61 502/502/61
f 500/500/2 503/503/2 502/502/2
f 500/500/2 502/502/2 499/499/2
f 501/501/61 505/505/61 504/504/61
f 501/501/61 502/502/61 505/505/61
f 503/503/2 506/506/2 505/505/2
f 503/503/2 505/505/2 502/502/2
f 504/504/61 508/508/61 507/507/61
f 504/504/61 505/505/61 508/508/61
f 506/506/2 509/509/2 508/508/2
f 506/506/2 508/508/2 505/505/2
f 507/507/61 511/511/61 510/510/61
f 507/507/61 508/508/61 511/511/61
f 509/509/2 512/512/2 511/511/2
f 509/509/2 511/511/2 508/508/2
f 510/510/62 514/514/62 513/513/62
f 510/510/62 511/511/62 514/514/62
f 512/512/2 515/515/2 514/514/2
f 512/512/2 514/514/2 511/511/2
f 513/513/62 483/483/62 480/480/62
f 513/513/62 514/514/62 483/483/62
f 515/515/2 484/484/2 483/483/2
f 515/515/2 483/483/2 514/514/2
f 516/516/59 518/518/59 517/517/59
f 516/516/59 519/519/59 518/518/59
f 520/520/2 521/521/2 518/518/2
f 520/520/2 518/518/2 519/519/2
f 517/517/59 523/523/59 522/522/59
f 517/517/59 518/518/59 523/523/59
f 521/521/2 524/524/2 523/523/2
f 521/521/2 523/523/2 518/518/2
f 525/525/62 519/519/62 516/516/62
f 525/525/62 526/526/62 519/519/62
f 527/527/2 520/520/2 519/519/2
f 527/527/2 519/519/2 526/526/2
f 522/522/63 524/524/63 528/528/63
f 522/522/63 523/523/63 524/524/63
f 525/525/64 529/529/64 527/527/64
f 525/525/64 527/527/64 526/526/64
f 530/530/65 532/532/65 531/531/65
f 530/530/65 533/533/65 532/532/65
f 534/534/2 535/535/2 532/532/2
f 534/534/2 532/532/2 533/533/2
f 531/531/65 537/537/65 536/536/65
f 531/531/65 532/532/65 537/537/65
f 535/535/2 538/538/2 537/537/2
f 535/535/2 537/537/2 532/532/2
f 536/536/65 540/540/65 539/539/65
f 536/536/65 537/537/65 540/540/65
f 538/538/2 541/541/2 540/540/2
f 538/538/2 540/540/2 537/537/2
f 539/539/65 543/543/65 542/542/65
f 539/539/65 540/540/65 543/543/65
f 541/541/2 544/544/2 543/543/2
f 541/541/2 543/543/2 540/540/2
f 542/542/66 546/546/66 545/545/66
f 542/542/66 543/543/66 546/546/66
f 544/544/2 547/547/2 546/546/2
f 544/544/2 546/546/2 543/543/2
f 545/545/66 549/549/66 548/548/66
f 545/545/66 546/546/66 549/549/66
f 547/547/2 550/550/2 549/549/2
f 547/547/2 549/549/2 546/546/2
f 548/548/67 552/552/67 551/551/67
f 548/548/67 549/549/67 552/552/67
f 550/550/2 553/553/2 552/552/2
f 550/550/2 552/552/2 549/549/2
f 551/551/67 555/555/67 554/554/67
f 551/551/67 552/552/67 555/555/67
f 553/553/2 556/556/2 555/555/2
f 553/553/2 555/555/2 552/552/2
f 554/554/67 558/558/67 557/557/67
f 554/554/67 555/555/67 558/558/67
f 556/556/2 559/559/2 558/558/2
f 556/556/2 558/558/2 555/555/2
f 557/557/67 561/561/67 560/560/67
f 557/557/67 558/558/67 561/561/67
f 559/559/2 562/562/2 561/561/2
f 559/559/2 561/561/2 558/558/2
f 560/560/68 564/564/68 563/563/68
f 560/560/68 561/561/68 564/564/68
f 562/562/2 565/565/2 564/564/2
f 562/562/2 564/564/2 561/561/2
f 563/563/68 533/533/68 530/530/68
f 563/563/68 564/564/68 533/533/68
f 565/565/2 534/534/2 533/533/2
f 565/565/2 533/533/2 564/564/2
f 566/566/67 568/568/67 567/567/67
f 566/566/67 569/569/67 568/568/67
f 570/570/2 571/571/2 568/568/2
f 570/570/2 568/568/2 569/569/2
f 567/567/67 573/573/67 572/572/67
f 567/567/67 568/568/67 573/573/67
f 571/571/2 574/574/2 573/573/2
f 571/571/2 573/573/2 568/568/2
f 572/572/68 576/576/68 575/575/68
f 572/572/68 573/573/68 576/576/68
f 574/574/2 577/577/2 576/576/2
f 574/574/2 576/576/2 573/573/2
f 566/566/69 578/578/69 570/570/69
f 566/566/69 570/570/69 569/569/69
f 575/575/70 577/577/70 579/579/70
f 575/575/70 576/576/70 577/577/70
f 580/580/46 582/582/46 581/581/46
f 580/580/46 583/583/46 582/582/46
f 584/584/2 585/585/2 582/582/2
f 584/584/2 582/582/2 583/583/2
f 581/581/46 587/587/46 586/586/46
f 581/581/46 582/582/46 587/587/46
f 585/585/2 588/588/2 587/587/2
f 585/585/2 587/587/2 582/582/2
f 586/586/43 590/590/43 589/589/43
f 586/586/43 587/587/43 590/590/43
f 588/588/2 591/591/2 590/590/2
f 588/588/2 590/590/2 587/587/2
f 589/589/44 593/593/44 592/592/44
f 589/589/44 590/590/44 593/593/44
f 591/591/2 594/594/2 593/593/2
f 591/591/2 593/593/2 590/590/2
f 592/592/44 596/596/44 595/595/44
f 592/592/44 593/593/44 596/596/44
f 594/594/2 597/597/2 596/596/2
f 594/594/2 596/596/2 593/593/2
f 595/595/45 583/583/45 580/580/45
f 595/595/45 596/596/45 583/583/45
f 597/597/2 584/584/2 583/583/2
f 597/597/2 583/583/2 596/596/2
f 598/598/71 600/600/71 599/599/71
f 598/598/71 601/601/71 600/600/71
f 602/602/2 603/603/2 600/600/2
f 602/602/2 600/600/2 601/601/2
f 599/599/71 605/605/71 604/604/71
f 599/599/71 600/600/71 605/605/71
f 603/603/2 606/606/2 605/605/2
f 603/603/2 605/605/2 600/600/2
f 604/604/71 608/608/71 607/607/71
f 604/604/71 605/605/71 608/608/71
f 606/606/2 609/609/2 608/608/2
f 606/606/2 608/608/2 605/605/2
f 610/610/72 612/612/72 611/611/72
f 610/610/72 613/613/72 612/612/72
f 614/614/2 615/615/2 612/612/2
f 614/614/2 612/612/2 613/613/2
f 611/611/73 617/617/73 616/616/73
f 611/611/73 612/612/73 617/617/73
f 615/615/2 618/618/2 617/617/2
f 615/615/2 617/617/2 612/612/2
f 616/616/73 620/620/73 619/619/73
f 616/616/73 617/617/73 620/620/73
f 618/618/2 621/621/2 620/620/2
f 618/618/2 620/620/2 617/617/2
f 619/619/74 623/623/74 622/622/74
f 619/619/74 620/620/74 623/623/74
f 621/621/2 624/624/2 623/623/2
f 621/621/2 623/623/2 620/620/2
f 622/622/74 601/601/74 598/598/74
f 622/622/74 623/623/74 601/601/74
f 624/624/2 602/602/2 601/601/2
f 624/624/2 601/601/2 623/623/2
f 625/625/75 627/627/75 626/626/75
f 625/625/75 628/628/75 627/627/75
f 629/629/2 630/630/2 627/627/2
f 629/629/2 627/627/2 628/628/2
f 626/626/75 632/632/75 631/631/75
f 626/626/75 627/627/75 632/632/75
f 630/630/2 633/633/2 632/632/2
f 630/630/2 632/632/2 627/627/2
f 634/634/76 636/636/76 635/635/76
f 634/634/76 637/637/76 636/636/76
f 638/638/2 639/639/2 636/636/2
f 638/638/2 636/636/2 637/637/2
f 635/635/76 641/641/76 640/640/76
f 635/635/76 636/636/76 641/641/76
f 639/639/2 642/642/2 641/641/2
f 639/639/2 641/641/2 636/636/2
f 640/640/76 644/644/76 643/643/76
f 640/640/76 641/641/76 644/644/76
f 642/642/2 645/645/2 644/644/2
f 642/642/2 644/644/2 641/641/2
f 643/643/77 647/647/77 646/646/77
f 643/643/77 644/644/77 647/647/77
f 645/645/2 648/648/2 647/647/2
f 645/645/2 647/647/2 644/644/2
f 646/646/77 650/650/77 649/649/77
f 646/646/77 647/647/77 650/650/77
f 648/648/2 651/651/2 650/650/2
f 648/648/2 650/650/2 647/647/2
f 649/649/77 653/653/77 652/652/77
f 649/649/77 650/650/77 653/653/77
f 651/651/2 654/654/2 653/653/2
f 651/651/2 653/653/2 650/650/2
f 652/652/78 656/656/78 655/655/78
f 652/652/78 653/653/78 656/656/78
f 654/654/2 657/657/2 656/656/2
f 654/654/2 656/656/2 653/653/2
f 655/655/78 659/659/78 658/658/78
f 655/655/78 656/656/78 659/659/78
f 657/657/2 660/660/2 659/659/2
f 657/657/2 659/659/2 656/656/2
f 658/658/78 662/662/78 661/661/78
f 658/658/78 659/659/78 662/662/78
f 660/660/2 663/663/2 662/662/2
f 660/660/2 662/662/2 659/659/2
f 661/661/78 628/628/78 625/625/78
f 661/661/78 662/662/78 628/628/78
f 663/663/2 629/629/2 628/628/2
f 663/663/2 628/628/2 662/662/2
f 664/664/79 666/666/79 665/665/79
f 664/664/79 667/667/79 666/666/79
f 668/668/2 669/669/2 666/666/2
f 668/668/2 666/666/2 667/667/2
f 670/670/80 672/672/80 671/671/80
f 670/670/80 673/673/80 672/672/80
f 674/674/2 675/675/2 672/672/2
f 674/674/2 672/672/2 673/673/2
f 671/671/81 677/677/81 676/676/81
f 671/671/81 672/672/81 677/677/81
f 675/675/2 678/678/2 677/677/2
f 675/675/2 677/677/2 672/672/2
f 676/676/81 680/680/81 679/679/81
f 676/676/81 677/677/81 680/680/81
f 678/678/2 681/681/2 680/680/2
f 678/678/2 680/680/2 677/677/2
f 679/679/82 683/683/82 682/682/82
f 679/679/82 680/680/82 683/683/82
f 681/681/2 684/684/2 683/683/2
f 681/681/2 683/683/2 680/680/2
f 682/682/82 667/667/82 664/664/82
f 682/682/82 683/683/82 667/667/82
f 684/684/2 668/668/2 667/667/2
f 684/684/2 667/667/2 683/683/2
f 685/685/65 687/687/65 686/686/65
f 685/685/65 688/688/65 687/687/65
f 689/689/2 690/690/2 687/687/2
f 689/689/2 687/687/2 688/688/2
f 686/686/65 692/692/65 691/691/65
f 686/686/65 687/687/65 692/692/65
f 690/690/2 693/693/2 692/692/2
f 690/690/2 692/692/2 687/687/2
f 691/691/66 695/695/66 694/694/66
f 691/691/66 692/692/66 695/695/66
f 693/693/2 696/696/2 695/695/2
f 693/693/2 695/695/2 692/692/2
f 694/694/66 698/698/66 697/697/66
f 694/694/66 695/695/66 698/698/66
f 696/696/2 699/699/2 698/698/2
f 696/696/2 698/698/2 695/695/2
f 697/697/66 701/701/66 700/700/66
f 697/697/66 698/698/66 701/701/66
f 699/699/2 702/702/2 701/701/2
f 699/699/2 701/701/2 698/698/2
f 700/700/66 704/704/66 703/703/66
f 700/700/66 701/701/66 704/704/66
f 702/702/2 705/705/2 704/704/2
f 702/702/2 704/704/2 701/701/2
f 703/703/66 707/707/66 706/706/66
f 703/703/66 704/704/66 707/707/66
f 705/705/2 708/708/2 707/707/2
f 705/705/2 707/707/2 704/704/2
f 706/706/67 710/710/67 709/709/67
f 706/706/67 707/707/67 710/710/67
f 708/708/2 711/711/2 710/710/2
f 708/708/2 710/710/2 707/707/2
f 709/709/67 713/713/67 712/712/67
f 709/709/67 710/710/67 713/713/67
f 711/711/2 714/714/2 713/713/2
f 711/711/2 713/713/2 710/710/2
f 712/712/67 716/716/67 715/715/67
f 712/712/67 713/713/67 716/716/67
f 714/714/2 717/717/2 716/716/2
f 714/714/2 716/716/2 713/713/2
f 715/715/68 719/719/68 718/718/68
f 715/715/68 716/716/68 719/719/68
f 717/717/2 720/720/2 719/719/2
f 717/717/2 719/719/2 716/716/2
f 718/718/68 688/688/68 685/685/68
f 718/718/68 719/719/68 688/688/68
f 720/720/2 689/689/2 688/688/2
f 720/720/2 688/688/2 719/719/2
f 721/721/67 723/723/67 722/722/67
f 721/721/67 724/724/67 723/723/67
f 725/725/2 726/726/2 723/723/2
f 725/725/2 723/723/2 724/724/2
f 722/722/67 728/728/67 727/727/67
f 722/722/67 723/723/67 728/728/67
f 726/726/2 729/729/2 728/728/2
f 726/726/2 728/728/2 723/723/2
f 727/727/68 731/731/68 730/730/68
f 727/727/68 728/728/68 731/731/68
f 729/729/2 732/732/2 731/731/2
f 729/729/2 731/731/2 728/728/2
f 721/721/83 733/733/83 725/725/83
f 721/721/83 725/725/83 724/724/83
f 730/730/84 732/732/84 734/734/84
f 730/730/84 731/731/84 732/732/84
f 735/735/85 737/737/85 736/736/85
f 735/735/85 738/738/85 737/737/85
f 739/739/2 740/740/2 737/737/2
f 739/739/2 737/737/2 738/738/2
f 736/736/85 742/742/85 741/741/85
f 736/736/85 737/737/85 742/742/85
f 740/740/2 743/743/2 742/742/2
f 740/740/2 742/742/2 737/737/2
f 741/741/86 745/745/86 744/744/86
f 741/741/86 742/742/86 745/745/86
f 743/743/2 746/746/2 745/745/2
f 743/743/2 745/745/2 742/742/2
f 744/744/86 748/748/86 747/747/86
f 744/744/86 745/745/86 748/748/86
f 746/746/2 749/749/2 748/748/2
f 746/746/2 748/748/2 745/745/2
f 750/750/87 752/752/87 751/751/87
f 750/750/87 753/753/87 752/752/87
f 754/754/2 755/755/2 752/752/2
f 754/754/2 752/752/2 753/753/2
f 751/751/87 757/757/87 756/756/87
f 751/751/87 752/752/87 757/757/87
f 755/755/2 758/758/2 757/757/2
f 755/755/2 757/757/2 752/752/2
f 756/756/88 760/760/88 759/759/88
f 756/756/88 757/757/88 760/760/88
f 758/758/2 761/761/2 760/760/2
f 758/758/2 760/760/2 757/757/2
f 759/759/88 738/738/88 735/735/88
f 759/759/88 760/760/88 738/738/88
f 761/761/2 739/739/2 738/738/2
f 761/761/2 738/738/2 760/760/2
f 762/762/65 764/764/65 763/763/65
f 762/762/65 765/765/65 764/764/65
f 766/766/2 767/767/2 764/764/2
f 766/766/2 764/764/2 765/765/2
f 763/763/66 769/769/66 768/768/66
f 763/763/66 764/764/66 769/769/66
f 767/767/2 770/770/2 769/769/2
f 767/767/2 769/769/2 764/764/2
f 768/768/67 772/772/67 771/771/67
f 768/768/67 769/769/67 772/772/67
f 770/770/2 773/773/2 772/772/2
f 770/770/2 772/772/2 769/769/2
f 771/771/68 765/765/68 762/762/68
f 771/771/68 772/772/68 765/765/68
f 773/773/2 766/766/2 765/765/2
f 773/773/2 765/765/2 772/772/2
f 774/774/71 776/776/71 775/775/71
f 774/774/71 777/777/71 776/776/71
f 778/778/2 779/779/2 776/776/2
f 778/778/2 776/776/2 777/777/2
f 780/780/72 782/782/72 781/781/72
f 780/780/72 783/783/72 782/782/72
f 784/784/2 785/785/2 782/782/2
f 784/784/2 782/782/2 783/783/2
f 781/781/73 787/787/73 786/786/73
f 781/781/73 782/782/73 787/787/73
f 785/785/2 788/788/2 787/787/2
f 785/785/2 787/787/2 782/782/2
f 786/786/73 790/790/73 789/789/73
f 786/786/73 787/787/73 790/790/73
f 788/788/2 791/791/2 790/790/2
f 788/788/2 790/790/2 787/787/2
f 789/789/74 777/777/74 774/774/74
f 789/789/74 790/790/74 777/777/74
f 791/791/2 778/778/2 777/777/2
f 791/791/2 777/777/2 790/790/2
f 792/792/89 794/794/89 793/793/89
f 792/792/89 795/795/89 794/794/89
f 796/796/2 797/797/2 794/794/2
f 796/796/2 794/794/2 795/795/2
f 793/793/89 799/799/89 798/798/89
f 793/793/89 794/794/89 799/799/89
f 797/797/2 800/800/2 799/799/2
f 797/797/2 799/799/2 794/794/2
f 798/798/90 802/802/90 801/801/90
f 798/798/90 799/799/90 802/802/90
f 800/800/2 803/803/2 802/802/2
f 800/800/2 802/802/2 799/799/2
f 801/801/90 805/805/90 804/804/90
f 801/801/90 802/802/90 805/805/90
f 803/803/2 806/806/2 805/805/2
f 803/803/2 805/805/2 802/802/2
f 804/804/90 808/808/90 807/807/90
f 804/804/90 805/805/90 808/808/90
f 806/806/2 809/809/2 808/808/2
f 806/806/2 808/808/2 805/805/2
f 807/807/90 811/811/90 810/810/90
f 807/807/90 808/808/90 811/811/90
f 809/809/2 812/812/2 811/811/2
f 809/809/2 811/811/2 808/808/2
f 810/810/91 814/814/91 813/813/91
f 810/810/91 811/811/91 814/814/91
f 812/812/2 815/815/2 814/814/2
f 812/812/2 814/814/2 811/811/2
f 813/813/92 817/817/92 816/816/92
f 813/813/92 814/814/92 817/817/92
f 815/815/2 818/818/2 817/817/2
f 815/815/2 817/817/2 814/814/2
f 816/816/92 820/820/92 819/819/92
f 816/816/92 817/817/92 820/820/92
f 818/818/2 821/821/2 820/820/2
f 818/818/2 820/820/2 817/817/2
f 819/819/92 823/823/92 822/822/92
f 819/819/92 820/820/92 823/823/92
f 821/821/2 824/824/2 823/823/2
f 821/821/2 823/823/2 820/820/2
f 822/822/92 826/826/92 825/825/92
f 822/822/92 823/823/92 826/826/92
f 824/824/2 827/827/2 826/826/2
f 824/824/2 826/826/2 823/823/2
f 825/825/92 829/829/92 828/828/92
f 825/825/92 826/826/92 829/829/92
f 827/827/2 830/830/2 829/829/2
f 827/827/2 829/829/2 826/826/2
f 831/831/65 833/833/65 832/832/65
f 831/831/65 834/834/65 833/833/65
f 835/835/2 836/836/2 833/833/2
f 835/835/2 833/833/2 834/834/2
f 832/832/65 838/838/65 837/837/65
f 832/832/65 833/833/65 838/838/65
f 836/836/2 839/839/2 838/838/2
f 836/836/2 838/838/2 833/833/2
f 837/837/65 841/841/65 840/840/65
f 837/837/65 838/838/65 841/841/65
f 839/839/2 842/842/2 841/841/2
f 839/839/2 841/841/2 838/838/2
f 840/840/65 844/844/65 843/843/65
f 840/840/65 841/841/65 844/844/65
f 842/842/2 845/845/2 844/844/2
f 842/842/2 844/844/2 841/841/2
f 843/843/66 847/847/66 846/846/66
f 843/843/66 844/844/66 847/847/66
f 845/845/2 848/848/2 847/847/2
f 845/845/2 847/847/2 844/844/2
f 846/846/66 850/850/66 849/849/66
f 846/846/66 847/847/66 850/850/66
f 848/848/2 851/851/2 850/850/2
f 848/848/2 850/850/2 847/847/2
f 849/849/66 853/853/66 852/852/66
f 849/849/66 850/850/66 853/853/66
f 851/851/2 854/854/2 853/853/2
f 851/851/2 853/853/2 850/850/2
f 852/852/67 856/856/67 855/855/67
f 852/852/67 853/853/67 856/856/67
f 854/854/2 857/857/2 856/856/2
f 854/854/2 856/856/2 853/853/2
f 855/855/67 859/859/67 858/858/67
f 855/855/67 856/856/67 859/859/67
f 857/857/2 860/860/2 859/859/2
f 857/857/2 859/859/2 856/856/2
f 858/858/68 862/862/68 861/861/68
f 858/858/68 859/859/68 862/862/68
f 860/860/2 863/863/2 862/862/2
f 860/860/2 862/862/2 859/859/2
f 861/861/68 865/865/68 864/864/68
f 861/861/68 862/862/68 865/865/68
f 863/863/2 866/866/2 865/865/2
f 863/863/2 865/865/2 862/862/2
f 864/864/68 834/834/68 831/831/68
f 864/864/68 865/865/68 834/834/68
f 866/866/2 835/835/2 834/834/2
f 866/866/2 834/834/2 865/865/2
f 867/867/55 869/869/55 868/868/55
f 867/867/55 870/870/55 869/869/55
f 871/871/2 872/872/2 869/869/2
f 871/871/2 869/869/2 870/870/2
f 868/868/56 874/874/56 873/873/56
f 868/868/56 869/869/56 874/874/56
f 872/872/2 875/875/2 874/874/2
f 872/872/2 874/874/2 869/869/2
f 873/873/56 877/877/56 876/876/56
f 873/873/56 874/874/56 877/877/56
f 875/875/2 878/878/2 877/877/2
f 875/875/2 877/877/2 874/874/2
f 876/876/57 880/880/57 879/879/57
f 876/876/57 877/877/57 880/880/57
f 878/878/2 881/881/2 880/880/2
f 878/878/2 880/880/2 877/877/2
f 879/879/58 883/883/58 882/882/58
f 879/879/58 880/880/58 883/883/58
f 881/881/2 884/884/2 883/883/2
f 881/881/2 883/883/2 880/880/2
f 882/882/58 870/870/58 867/867/58
f 882/882/58 883/883/58 870/870/58
f 884/884/2 871/871/2 870/870/2
f 884/884/2 870/870/2 883/883/2
f 885/885/79 887/887/79 886/886/79
f 885/885/79 888/888/79 887/887/79
f 889/889/2 890/890/2 887/887/2
f 889/889/2 887/887/2 888/888/2
f 891/891/93 893/893/93 892/892/93
f 891/891/93 894/894/93 893/893/93
f 895/895/2 896/896/2 893/893/2
f 895/895/2 893/893/2 894/894/2
f 892/892/81 898/898/81 897/897/81
f 892/892/81 893/893/81 898/898/81
f 896/896/2 899/899/2 898/898/2
f 896/896/2 898/898/2 893/893/2
f 897/897/81 901/901/81 900/900/81
f 897/897/81 898/898/81 901/901/81
f 899/899/2 902/902/2 901/901/2
f 899/899/2 901/901/2 898/898/2
f 900/900/94 904/904/94 903/903/94
f 900/900/94 901/901/94 904/904/94
f 902/902/2 905/905/2 904/904/2
f 902/902/2 904/904/2 901/901/2
f 903/903/94 888/888/94 885/885/94
f 903/903/94 904/904/94 888/888/94
f 905/905/2 889/889/2 888/888/2
f 905/905/2 888/888/2 904/904/2
f 906/906/79 908/908/79 907/907/79
f 906/906/79 909/909/79 908/908/79
f 910/910/2 911/911/2 908/908/2
f 910/910/2 908/908/2 909/909/2
f 907/907/79 913/913/79 912/912/79
f 907/907/79 908/908/79 913/913/79
f 911/911/2 914/914/2 913/913/2
f 911/911/2 913/913/2 908/908/2
f 912/912/79 916/916/79 915/915/79
f 912/912/79 913/913/79 916/916/79
f 914/914/2 917/917/2 916/916/2
f 914/914/2 916/916/2 913/913/2
f 915/915/79 919/919/79 918/918/79
f 915/915/79 916/916/79 919/919/79
f 917/917/2 920/920/2 919/919/2
f 917/917/2 919/919/2 916/916/2
f 918/918/79 922/922/79 921/921/79
f 918/918/79 919/919/79 922/922/79
f 920/920/2 923/923/2 922/922/2
f 920/920/2 922/922/2 919/919/2
f 921/921/93 925/925/93 924/924/93
f 921/921/93 922/922/93 925/925/93
f 923/923/2 926/926/2 925/925/2
f 923/923/2 925/925/2 922/922/2
f 924/924/93 928/928/93 927/927/93
f 924/924/93 925/925/93 928/928/93
f 926/926/2 929/929/2 928/928/2
f 926/926/2 928/928/2 925/925/2
f 927/927/93 931/931/93 930/930/93
f 927/927/93 928/928/93 931/931/93
f 929/929/2 932/932/2 931/931/2
f 929/929/2 931/931/2 928/928/2
f 930/930/81 934/934/81 933/933/81
f 930/930/81 931/931/81 934/934/81
f 932/932/2 935/935/2 934/934/2
f 932/932/2 934/934/2 931/931/2
f 933/933/81 937/937/81 936/936/81
f 933/933/81 934/934/81 937/937/81
f 935/935/2 938/938/2 937/937/2
f 935/935/2 937/937/2 934/934/2
f 936/936/82 940/940/82 939/939/82
f 936/936/82 937/937/82 940/940/82
f 938/938/2 941/941/2 940/940/2
f 938/938/2 940/940/2 937/937/2
f 939/939/82 909/909/82 906/906/82
f 939/939/82 940/940/82 909/909/82
f 941/941/2 910/910/2 909/909/2
f 941/941/2 909/909/2 940/940/2
