# Unreal legacy OBJ adapter: canonical vertices are UE cm; this file is written with Y reflected and triangle winding reversed. One object, no g groups, so the importer creates exactly one material slot.
# OldCityFoundationV2 foundations (plinth + stepped footing); generator 463404ba754c804f514fe655944ece4eb51a92e1273fec326ad5c2ebfbb18f24
# AUTHORED detail in the style of Old City stone foundations, not survey
o SM_OldCityFoundationV2_Kept_P001_N002
s off
v 53752.97 99247.57 -2496.30
v 53884.88 99518.17 -2507.12
v 53884.88 99518.17 -2471.30
v 53752.97 99247.57 -2471.30
v 53756.81 99237.19 -2471.30
v 53888.70 99507.75 -2471.30
v 54123.70 100008.06 -2526.72
v 54123.70 100008.06 -2471.30
v 54127.49 99997.57 -2471.30
v 54639.66 99774.35 -2517.37
v 54639.66 99774.35 -2471.30
v 54642.99 99764.07 -2471.30
v 54784.92 100027.57 -2527.50
v 54784.92 100027.57 -2471.30
v 54788.26 100017.31 -2471.30
v 54822.64 100093.32 -2524.87
v 54822.64 100093.32 -2471.30
v 54825.99 100083.07 -2471.30
v 54969.98 100027.57 -2527.50
v 54969.98 100027.57 -2471.30
v 54972.21 100017.81 -2471.30
v 55596.08 99748.16 -2516.32
v 55596.08 99748.16 -2471.30
v 55593.55 99740.53 -2471.30
v 55860.60 99630.12 -2496.30
v 55860.60 99630.12 -2471.30
v 55856.06 99623.39 -2471.30
v 50924.22 79336.28 -994.00
v 50875.49 79368.13 -1001.12
v 50875.49 79368.13 -969.00
v 50924.22 79336.28 -969.00
v 50935.96 79338.17 -969.00
v 50887.20 79370.03 -969.00
v 50540.40 79587.08 -1023.28
v 50540.40 79587.08 -969.00
v 50551.99 79589.07 -969.00
v 50875.49 80026.26 -1027.45
v 50875.49 80026.26 -969.00
v 50883.70 80023.84 -969.00
v 50876.05 80027.00 -1027.41
v 50876.05 80027.00 -969.00
v 50884.26 80024.57 -969.00
v 50876.48 80027.57 -1027.38
v 50876.48 80027.57 -969.00
v 50884.69 80025.13 -969.00
v 50879.69 80031.77 -1027.33
v 50879.69 80031.77 -969.00
v 50887.86 80029.30 -969.00
v 51528.83 80882.59 -1025.57
v 51528.83 80882.59 -969.00
v 51530.49 80871.57 -969.00
v 51646.44 80798.52 -996.66
v 51646.44 80798.52 -969.00
v 51647.07 80788.23 -969.00
v 51661.46 80787.78 -994.00
v 51661.46 80787.78 -969.00
v 51661.96 80777.59 -969.00
v 51895.99 86644.07 -1662.30
v 51930.68 86889.61 -1693.15
v 51930.68 86889.61 -1637.30
v 51895.99 86644.07 -1637.30
v 51903.21 86638.02 -1637.30
v 51937.49 86880.57 -1637.30
v 52638.13 86790.22 -1709.52
v 52638.13 86790.22 -1637.30
v 52639.26 86781.98 -1637.30
v 52934.51 86748.58 -1662.30
v 52934.51 86748.58 -1637.30
v 52933.26 86740.67 -1637.30
v 55575.56 76018.43 -158.40
v 55875.49 76430.11 -195.80
v 55875.49 76430.11 -133.40
v 55575.56 76018.43 -133.40
v 55580.57 76011.71 -133.40
v 55878.38 76420.49 -133.40
v 56036.22 76650.74 -190.13
v 56036.22 76650.74 -133.40
v 56037.99 76639.57 -133.40
v 56146.72 76570.46 -158.40
v 56146.72 76570.46 -133.40
v 56147.02 76560.35 -133.40
v 68089.88 53440.44 4019.50
v 68367.53 55019.61 3970.91
v 68367.53 55019.61 4044.50
v 68089.88 53440.44 4044.50
v 68098.67 53444.27 4044.50
v 68374.66 55014.00 4044.50
v 68368.93 55027.57 3970.14
v 68368.93 55027.57 4044.50
v 68376.05 55021.91 4044.50
v 68369.91 55033.15 3970.49
v 68369.91 55033.15 4044.50
v 68377.03 55027.46 4044.50
v 68375.49 55064.88 3972.50
v 68375.49 55064.88 4044.50
v 68382.57 55059.00 4044.50
v 68474.99 55630.82 3988.42
v 68474.99 55630.82 4044.50
v 68481.49 55621.57 4044.50
v 68669.24 55596.86 4019.50
v 68669.24 55596.86 4044.50
v 68674.41 55587.84 4044.50
v 72545.00 82496.90 276.52
v 72551.50 82527.57 273.62
v 72551.50 82527.57 331.90
v 72545.00 82496.90 331.90
v 72554.49 82503.07 331.90
v 72560.93 82533.49 331.90
v 72695.58 83207.47 290.91
v 72695.58 83207.47 331.90
v 72703.88 83208.05 331.90
v 72828.82 83836.22 306.90
v 72828.82 83836.22 331.90
v 72836.07 83831.85 331.90
v 72753.91 82452.66 306.90
v 72753.91 82452.66 331.90
v 72762.09 82459.10 331.90
v 74606.24 76251.32 1578.80
v 74605.87 76257.95 1577.21
v 74605.87 76257.95 1603.80
v 74606.24 76251.32 1603.80
v 74614.61 76245.05 1603.80
v 74614.24 76251.59 1603.80
v 74603.50 76299.55 1563.71
v 74603.50 76299.55 1603.80
v 74611.91 76292.62 1603.80
v 74601.05 76342.60 1549.73
v 74601.05 76342.60 1603.80
v 74609.49 76335.07 1603.80
v 74695.92 76348.00 1555.60
v 74695.92 76348.00 1603.80
v 74703.39 76340.41 1603.80
v 75875.49 76415.17 1539.48
v 75875.49 76415.17 1603.80
v 75870.89 76406.89 1603.80
v 76162.52 76431.51 1547.04
v 76162.52 76431.51 1603.80
v 76154.99 76423.07 1603.80
v 76169.97 76300.40 1578.80
v 76169.97 76300.40 1603.80
v 76162.34 76293.78 1603.80
v 76598.94 82417.27 939.20
v 76344.33 82478.15 913.96
v 76344.33 82478.15 964.20
v 76598.94 82417.27 964.20
v 76606.07 82423.79 964.20
v 76353.98 82484.07 964.20
v 76356.19 82527.57 910.96
v 76356.19 82527.57 964.20
v 76365.73 82533.07 964.20
v 76507.88 83159.96 897.80
v 76507.88 83159.96 964.20
v 76516.15 83160.12 964.20
v 76746.85 84156.20 907.35
v 76746.85 84156.20 964.20
v 76753.10 84147.94 964.20
v 76786.07 84319.71 908.92
v 76786.07 84319.71 964.20
v 76791.99 84310.07 964.20
v 77497.49 84149.57 937.38
v 77497.49 84149.57 964.20
v 77500.25 84140.68 964.20
v 77517.81 84144.71 939.20
v 77517.81 84144.71 964.20
v 77520.48 84135.84 964.20
v 78209.26 71284.35 2370.87
v 78375.49 71326.62 2360.73
v 78375.49 71326.62 2427.30
v 78209.26 71284.35 2427.30
v 78218.99 71278.57 2427.30
v 78383.17 71320.32 2427.30
v 79332.94 71570.11 2378.89
v 79332.94 71570.11 2427.30
v 79328.86 71560.82 2427.30
v 79471.27 71605.29 2381.51
v 79471.27 71605.29 2427.30
v 79465.49 71595.57 2427.30
v 79491.58 71525.43 2402.30
v 79491.58 71525.43 2427.30
v 79485.44 71517.14 2427.30
v 78242.63 71153.40 2402.30
v 78242.63 71153.40 2427.30
v 78252.36 71147.62 2427.30
v 79995.64 81145.30 1277.50
v 80166.02 81818.10 1244.12
v 80166.02 81818.10 1302.50
v 79995.64 81145.30 1302.50
v 80004.96 81149.49 1302.50
v 80174.64 81819.54 1302.50
v 80345.68 82527.57 1230.12
v 80345.68 82527.57 1302.50
v 80353.57 82526.10 1302.50
v 80452.74 82950.31 1238.68
v 80452.74 82950.31 1302.50
v 80460.18 82947.12 1302.50
v 80555.96 83357.93 1246.94
v 80555.96 83357.93 1302.50
v 80562.99 83353.07 1302.50
v 80875.49 83579.67 1272.50
v 80875.49 83579.67 1302.50
v 80879.10 83572.44 1302.50
v 81000.49 83666.42 1277.50
v 81000.49 83666.42 1302.50
v 81002.76 83658.26 1302.50
v 82558.10 82055.13 1377.60
v 82687.82 82527.57 1344.99
v 82687.82 82527.57 1402.60
v 82558.10 82055.13 1402.60
v 82564.80 82049.31 1402.60
v 82693.76 82518.99 1402.60
v 82746.39 82740.89 1347.34
v 82746.39 82740.89 1402.60
v 82751.99 82731.06 1402.60
v 83318.58 82584.47 1370.22
v 83318.58 82584.47 1402.60
v 83316.04 82576.87 1402.60
v 83375.49 82568.92 1372.50
v 83375.49 82568.92 1402.60
v 83372.14 82561.54 1402.60
v 83407.36 82560.20 1377.60
v 83407.36 82560.20 1402.60
v 83403.56 82552.95 1402.60
v 83844.72 95322.36 3640.60
v 83635.47 95183.63 3609.94
v 83635.47 95183.63 3665.60
v 83844.72 95322.36 3665.60
v 83846.19 95332.93 3665.60
v 83637.49 95194.57 3665.60
v 83592.13 95244.21 3607.16
v 83592.13 95244.21 3665.60
v 83594.25 95255.00 3665.60
v 83375.49 95547.02 3593.28
v 83375.49 95547.02 3665.60
v 83378.12 95557.08 3665.60
v 82549.48 96701.56 3573.38
v 82549.48 96701.56 3665.60
v 82554.10 96708.84 3665.60
v 81958.52 97527.57 3559.14
v 81958.52 97527.57 3665.60
v 81964.56 97532.86 3665.60
v 81506.83 98158.91 3624.02
v 81506.83 98158.91 3665.60
v 81513.96 98162.69 3665.60
v 81391.41 98320.23 3640.60
v 81391.41 98320.23 3665.60
v 81398.82 98323.62 3665.60
v 79830.07 100502.56 3640.60
v 79702.51 100680.86 3617.12
v 79702.51 100680.86 3665.60
v 79830.07 100502.56 3665.60
v 79841.24 100500.70 3665.60
v 79713.99 100678.57 3665.60
v 79791.17 100735.94 3640.60
v 79791.17 100735.94 3665.60
v 79802.61 100733.63 3665.60
v 88341.01 77045.78 2566.10
v 88375.49 77091.38 2559.74
v 88375.49 77091.38 2591.10
v 88341.01 77045.78 2591.10
v 88347.21 77040.71 2591.10
v 88381.39 77085.92 2591.10
v 88563.27 77339.78 2540.10
v 88563.27 77339.78 2591.10
v 88567.57 77332.20 2591.10
v 88705.23 77527.57 2525.26
v 88705.23 77527.57 2591.10
v 88708.32 77518.38 2591.10
v 88883.41 77763.26 2534.91
v 88883.41 77763.26 2591.10
v 88884.98 77752.07 2591.10
v 89025.02 77656.64 2566.10
v 89025.02 77656.64 2591.10
v 89025.31 77646.41 2591.10
v 93066.69 65094.44 4844.10
v 93214.32 65188.73 4827.38
v 93214.32 65188.73 4869.10
v 93066.69 65094.44 4869.10
v 93068.48 65086.08 4869.10
v 93215.39 65179.91 4869.10
v 93375.49 65291.66 4809.12
v 93375.49 65291.66 4869.10
v 93375.76 65282.34 4869.10
v 93785.72 65553.67 4811.87
v 93785.72 65553.67 4869.10
v 93783.99 65543.07 4869.10
v 93837.41 65489.49 4835.55
v 93837.41 65489.49 4869.10
v 93835.69 65478.88 4869.10
v 93868.11 65451.38 4844.10
v 93868.11 65451.38 4869.10
v 93866.39 65440.76 4869.10
v 94516.32 65775.48 4844.10
v 94710.20 65900.70 4839.58
v 94710.20 65900.70 4869.10
v 94516.32 65775.48 4869.10
v 94514.60 65764.85 4869.10
v 94708.49 65890.07 4869.10
v 94726.41 65880.53 4844.10
v 94726.41 65880.53 4869.10
v 94724.60 65870.01 4869.10
v 98081.61 65897.85 5021.50
v 98375.49 66179.76 4988.15
v 98375.49 66179.76 5046.50
v 98081.61 65897.85 5046.50
v 98087.92 65892.82 5046.50
v 98378.25 66171.33 5046.50
v 98623.71 66417.87 4989.77
v 98623.71 66417.87 5046.50
v 98623.49 66406.57 5046.50
v 98720.97 66316.80 5021.50
v 98720.97 66316.80 5046.50
v 98720.74 66305.50 5046.50
vt -113.7365 -6.2408
vt -114.0832 -6.2678
vt -114.0832 -6.1783
vt -113.7365 -6.1783
vt -113.7010 -6.1783
vt -114.0476 -6.1783
vt -114.7109 -6.3168
vt -114.7109 -6.1783
vt -114.6752 -6.1783
vt -112.8367 -6.2934
vt -112.8367 -6.1783
vt -112.8027 -6.1783
vt -113.1066 -6.3187
vt -113.1066 -6.1783
vt -113.0726 -6.1783
vt -113.1767 -6.3122
vt -113.1767 -6.1783
vt -113.1427 -6.1783
vt -112.6440 -6.3187
vt -112.6440 -6.1783
vt -112.6140 -6.1783
vt -110.3802 -6.2908
vt -110.3802 -6.1783
vt -110.3674 -6.1783
vt -109.4238 -6.2408
vt -109.4238 -6.1783
vt -109.4183 -6.1783
vt -71.0301 -2.4850
vt -71.2316 -2.5028
vt -71.2316 -2.4225
vt -71.0301 -2.4225
vt -71.0055 -2.4225
vt -71.2071 -2.4225
vt -72.6167 -2.5582
vt -72.6167 -2.4225
vt -72.5927 -2.4225
vt -72.8769 -2.5686
vt -72.8769 -2.4225
vt -72.8503 -2.4225
vt -72.8774 -2.5685
vt -72.8774 -2.4225
vt -72.8508 -2.4225
vt -72.8777 -2.5685
vt -72.8777 -2.4225
vt -72.8511 -2.4225
vt -72.8802 -2.5683
vt -72.8802 -2.4225
vt -72.8536 -2.4225
vt -73.3844 -2.5639
vt -73.3844 -2.4225
vt -73.3527 -2.4225
vt -72.8802 -2.4916
vt -72.8802 -2.4225
vt -72.8529 -2.4225
vt -72.8158 -2.4850
vt -72.8158 -2.4225
vt -72.7891 -2.4225
vt -86.8702 -4.1558
vt -87.3973 -4.2329
vt -87.3973 -4.0933
vt -86.8702 -4.0933
vt -86.8370 -4.0933
vt -87.3577 -4.0933
vt -85.3802 -4.2738
vt -85.3802 -4.0933
vt -85.3568 -4.0933
vt -84.5352 -4.1558
vt -84.5352 -4.0933
vt -84.5185 -4.0933
vt -51.1072 -0.3960
vt -51.3866 -0.4895
vt -51.3866 -0.3335
vt -51.1072 -0.3335
vt -51.0779 -0.3335
vt -51.3553 -0.3335
vt -51.5363 -0.4753
vt -51.5363 -0.3335
vt -51.5040 -0.3335
vt -51.0594 -0.3960
vt -51.0594 -0.3335
vt -51.0333 -0.3335
vt 36.6236 10.0488
vt 33.3698 9.9273
vt 33.3698 10.1113
vt 36.6236 10.1113
vt 36.6360 10.1113
vt 33.4017 10.1113
vt 33.3534 9.9253
vt 33.3534 10.1113
vt 33.3853 10.1113
vt 33.3419 9.9262
vt 33.3419 10.1113
vt 33.3739 10.1113
vt 33.2765 9.9313
vt 33.2765 10.1113
vt 33.3089 10.1113
vt 32.1104 9.9710
vt 32.1104 10.1113
vt 32.1498 10.1113
vt 32.6810 10.0488
vt 32.6810 10.1113
vt 32.7164 10.1113
vt -24.8797 0.6913
vt -24.9402 0.6841
vt -24.9402 0.8297
vt -24.8797 0.8297
vt -24.8715 0.8297
vt -24.9314 0.8297
vt -26.2797 0.7273
vt -26.2797 0.8297
vt -26.2604 0.8297
vt -27.5185 0.7672
vt -27.5185 0.8297
vt -27.4894 0.8297
vt -24.2469 0.7672
vt -24.2469 0.8297
vt -24.2425 0.8297
vt -4.1127 3.9470
vt -4.1302 3.9430
vt -4.1302 4.0095
vt -4.1127 4.0095
vt -4.0761 4.0095
vt -4.0934 4.0095
vt -4.2401 3.9093
vt -4.2401 4.0095
vt -4.2018 4.0095
vt -4.3539 3.8743
vt -4.3539 4.0095
vt -4.3140 4.0095
vt -4.1302 3.8890
vt -4.1302 4.0095
vt -4.0926 4.0095
vt -1.3492 3.8487
vt -1.3492 4.0095
vt -1.3400 4.0095
vt -0.6725 3.8676
vt -0.6725 4.0095
vt -0.6702 4.0095
vt -0.3261 3.9470
vt -0.3261 4.0095
vt -0.3286 4.0095
vt -14.5458 2.3480
vt -15.3345 2.2849
vt -15.3345 2.4105
vt -14.5458 2.4105
vt -14.5443 2.4105
vt -15.3252 2.4105
vt -15.4285 2.2774
vt -15.4285 2.4105
vt -15.4184 2.4105
vt -16.6302 2.2445
vt -16.6302 2.4105
vt -16.6099 2.4105
vt -18.5234 2.2684
vt -18.5234 2.4105
vt -18.4871 2.4105
vt -18.8341 2.2723
vt -18.8341 2.4105
vt -18.7952 2.4105
vt -16.6302 2.3434
vt -16.6302 2.4105
vt -16.6011 2.4105
vt -16.5673 2.3480
vt -16.5673 2.4105
vt -16.5384 2.4105
vt 17.3123 5.9272
vt 17.6222 5.9018
vt 17.6222 6.0683
vt 17.3123 6.0683
vt 17.3510 6.0683
vt 17.6571 6.0683
vt 19.4071 5.9472
vt 19.4071 6.0683
vt 19.4201 6.0683
vt 19.6650 5.9538
vt 19.6650 6.0683
vt 19.6748 6.0683
vt 19.9154 6.0058
vt 19.9154 6.0683
vt 19.9208 6.0683
vt 17.7231 6.0058
vt 17.7231 6.0683
vt 17.7619 6.0683
vt -2.8742 3.1938
vt -4.1302 3.1103
vt -4.1302 3.2563
vt -2.8742 3.2563
vt -2.8613 3.2563
vt -4.1122 3.2563
vt -5.4547 3.0753
vt -5.4547 3.2563
vt -5.4313 3.2563
vt -6.2439 3.0967
vt -6.2439 3.2563
vt -6.2174 3.2563
vt -7.0049 3.1174
vt -7.0049 3.2563
vt -6.9752 3.2563
vt -6.7604 3.1812
vt -6.7604 3.2563
vt -6.7333 3.2563
vt -6.6648 3.1938
vt -6.6648 3.2563
vt -6.6387 3.2563
vt 1.2574 3.4440
vt 0.4006 3.3625
vt 0.4006 3.5065
vt 1.2574 3.5065
vt 1.2887 3.5065
vt 0.4369 3.5065
vt 0.0138 3.3683
vt 0.0138 3.5065
vt 0.0523 3.5065
vt 1.8353 3.4255
vt 1.8353 3.5065
vt 1.8479 3.5065
vt 2.0164 3.4312
vt 2.0164 3.5065
vt 2.0265 3.5065
vt 2.1179 3.4440
vt 2.1179 3.5065
vt 2.1265 3.5065
vt -28.6941 9.1015
vt -28.8704 9.0249
vt -28.8704 9.1640
vt -28.6941 9.1640
vt -28.7168 9.1640
vt -28.8927 9.1640
vt -29.1302 9.0179
vt -29.1302 9.1640
vt -29.1519 9.1640
vt -30.4288 8.9832
vt -30.4288 9.1640
vt -30.4474 9.1640
vt -35.3802 8.9335
vt -35.3802 9.1640
vt -35.3868 9.1640
vt -38.9226 8.8979
vt -38.9226 9.1640
vt -38.9208 9.1640
vt -41.6302 9.0601
vt -41.6302 9.1640
vt -41.6218 9.1640
vt -42.3220 9.1015
vt -42.3220 9.1640
vt -42.3120 9.1640
vt -51.6812 9.1015
vt -52.4459 9.0428
vt -52.4459 9.1640
vt -51.6812 9.1640
vt -51.6486 9.1640
vt -52.4115 9.1640
vt -52.3619 9.1015
vt -52.3619 9.1640
vt -52.3276 9.1640
vt 28.2381 6.4152
vt 28.2103 6.3993
vt 28.2103 6.4777
vt 28.2381 6.4777
vt 28.2662 6.4777
vt 28.2387 6.4777
vt 28.0587 6.3502
vt 28.0587 6.4777
vt 28.0884 6.4777
vt 27.9441 6.3132
vt 27.9441 6.4777
vt 27.9749 6.4777
vt 27.8004 6.3373
vt 27.8004 6.4777
vt 27.8323 6.4777
vt 28.4210 6.4152
vt 28.4210 6.4777
vt 28.4472 6.4777
vt 69.9306 12.1103
vt 70.0640 12.0685
vt 70.0640 12.1728
vt 69.9306 12.1728
vt 69.9560 12.1728
vt 70.0887 12.1728
vt 70.2096 12.0228
vt 70.2096 12.1728
vt 70.2335 12.1728
vt 70.5801 12.0297
vt 70.5801 12.1728
vt 70.6023 12.1728
vt 70.8698 12.0889
vt 70.8698 12.1728
vt 70.8920 12.1728
vt 71.0418 12.1103
vt 71.0418 12.1728
vt 71.0641 12.1728
vt 71.8521 12.1103
vt 72.0238 12.0990
vt 72.0238 12.1728
vt 71.8521 12.1728
vt 71.8744 12.1728
vt 72.0460 12.1728
vt 72.1147 12.1103
vt 72.1147 12.1728
vt 72.1365 12.1728
vt 80.4594 12.5538
vt 80.4893 12.4704
vt 80.4893 12.6163
vt 80.4594 12.6163
vt 80.4877 12.6163
vt 80.5173 12.6163
vt 80.5146 12.4744
vt 80.5146 12.6163
vt 80.5423 12.6163
vt 81.0104 12.5538
vt 81.0104 12.6163
vt 81.0381 12.6163
vn -0.8989 0.4382 0.0000
vn 0.0000 -0.0000 1.0000
vn 0.4126 0.9109 0.0000
vn -0.8674 0.4976 0.0000
vn 0.4075 0.9132 0.0000
vn -0.5470 -0.8371 0.0000
vn -0.7950 0.6066 0.0000
vn 0.5815 0.8135 0.0000
vn -0.9902 0.1399 0.0000
vn 0.1391 0.9903 0.0000
vn -0.8082 0.5888 0.0000
vn 0.5878 0.8090 0.0000
vn -0.9849 0.1732 0.0000
vn 0.1722 0.9851 0.0000
vn -0.9783 0.2073 0.0000
vn -0.2072 -0.9783 0.0000
vn -0.9984 -0.0568 0.0000
vn -0.0568 0.9984 0.0000
vn 0.9984 0.0568 0.0000
vn -0.2326 -0.9726 0.0000
vn -0.9724 0.2333 0.0000
vn 0.2326 0.9726 0.0000
vn -0.2465 0.9692 0.0000
vn 0.9691 0.2466 0.0000
vn -0.9690 -0.2470 0.0000
vn -0.9694 0.2455 0.0000
vn -0.5701 0.8215 0.0000
vn -0.9643 0.2648 0.0000
vn 0.2637 0.9646 0.0000
vn 0.5526 -0.8335 0.0000
vn -0.8133 -0.5819 0.0000
vn -0.5277 0.8494 0.0000
vn -0.7977 0.6030 0.0000
vn 0.6015 0.7989 0.0000
vn -0.5383 0.8428 0.0000
vn 0.7788 0.6273 0.0000
vn -0.5425 0.8400 0.0000
vn 0.7794 0.6265 0.0000
vn -0.6923 0.7217 0.0000
vn 0.7206 0.6934 0.0000
f 1/1/1 3/3/1 2/2/1
f 1/1/1 4/4/1 3/3/1
f 5/5/2 6/6/2 3/3/2
f 5/5/2 3/3/2 4/4/2
f 2/2/1 8/8/1 7/7/1
f 2/2/1 3/3/1 8/8/1
f 6/6/2 9/9/2 8/8/2
f 6/6/2 8/8/2 3/3/2
f 7/7/3 11/11/3 10/10/3
f 7/7/3 8/8/3 11/11/3
f 9/9/2 12/12/2 11/11/2
f 9/9/2 11/11/2 8/8/2
f 10/10/4 14/14/4 13/13/4
f 10/10/4 11/11/4 14/14/4
f 12/12/2 15/15/2 14/14/2
f 12/12/2 14/14/2 11/11/2
f 13/13/4 17/17/4 16/16/4
f 13/13/4 14/14/4 17/17/4
f 15/15/2 18/18/2 17/17/2
f 15/15/2 17/17/2 14/14/2
f 16/16/5 20/20/5 19/19/5
f 16/16/5 17/17/5 20/20/5
f 18/18/2 21/21/2 20/20/2
f 18/18/2 20/20/2 17/17/2
f 19/19/5 23/23/5 22/22/5
f 19/19/5 20/20/5 23/23/5
f 21/21/2 24/24/2 23/23/2
f 21/21/2 23/23/2 20/20/2
f 22/22/5 26/26/5 25/25/5
f 22/22/5 23/23/5 26/26/5
f 24/24/2 27/27/2 26/26/2
f 24/24/2 26/26/2 23/23/2
f 28/28/6 30/30/6 29/29/6
f 28/28/6 31/31/6 30/30/6
f 32/32/2 33/33/2 30/30/2
f 32/32/2 30/30/2 31/31/2
f 29/29/6 35/35/6 34/34/6
f 29/29/6 30/30/6 35/35/6
f 33/33/2 36/36/2 35/35/2
f 33/33/2 35/35/2 30/30/2
f 34/34/7 38/38/7 37/37/7
f 34/34/7 35/35/7 38/38/7
f 36/36/2 39/39/2 38/38/2
f 36/36/2 38/38/2 35/35/2
f 37/37/7 41/41/7 40/40/7
f 37/37/7 38/38/7 41/41/7
f 39/39/2 42/42/2 41/41/2
f 39/39/2 41/41/2 38/38/2
f 40/40/7 44/44/7 43/43/7
f 40/40/7 41/41/7 44/44/7
f 42/42/2 45/45/2 44/44/2
f 42/42/2 44/44/2 41/41/2
f 43/43/7 47/47/7 46/46/7
f 43/43/7 44/44/7 47/47/7
f 45/45/2 48/48/2 47/47/2
f 45/45/2 47/47/2 44/44/2
f 46/46/7 50/50/7 49/49/7
f 46/46/7 47/47/7 50/50/7
f 48/48/2 51/51/2 50/50/2
f 48/48/2 50/50/2 47/47/2
f 49/49/8 53/53/8 52/52/8
f 49/49/8 50/50/8 53/53/8
f 51/51/2 54/54/2 53/53/2
f 51/51/2 53/53/2 50/50/2
f 52/52/8 56/56/8 55/55/8
f 52/52/8 53/53/8 56/56/8
f 54/54/2 57/57/2 56/56/2
f 54/54/2 56/56/2 53/53/2
f 58/58/9 60/60/9 59/59/9
f 58/58/9 61/61/9 60/60/9
f 62/62/2 63/63/2 60/60/2
f 62/62/2 60/60/2 61/61/2
f 59/59/10 65/65/10 64/64/10
f 59/59/10 60/60/10 65/65/10
f 63/63/2 66/66/2 65/65/2
f 63/63/2 65/65/2 60/60/2
f 64/64/10 68/68/10 67/67/10
f 64/64/10 65/65/10 68/68/10
f 66/66/2 69/69/2 68/68/2
f 66/66/2 68/68/2 65/65/2
f 70/70/11 72/72/11 71/71/11
f 70/70/11 73/73/11 72/72/11
f 74/74/2 75/75/2 72/72/2
f 74/74/2 72/72/2 73/73/2
f 71/71/11 77/77/11 76/76/11
f 71/71/11 72/72/11 77/77/11
f 75/75/2 78/78/2 77/77/2
f 75/75/2 77/77/2 72/72/2
f 76/76/12 80/80/12 79/79/12
f 76/76/12 77/77/12 80/80/12
f 78/78/2 81/81/2 80/80/2
f 78/78/2 80/80/2 77/77/2
f 82/82/13 84/84/13 83/83/13
f 82/82/13 85/85/13 84/84/13
f 86/86/2 87/87/2 84/84/2
f 86/86/2 84/84/2 85/85/2
f 83/83/13 89/89/13 88/88/13
f 83/83/13 84/84/13 89/89/13
f 87/87/2 90/90/2 89/89/2
f 87/87/2 89/89/2 84/84/2
f 88/88/13 92/92/13 91/91/13
f 88/88/13 89/89/13 92/92/13
f 90/90/2 93/93/2 92/92/2
f 90/90/2 92/92/2 89/89/2
f 91/91/13 95/95/13 94/94/13
f 91/91/13 92/92/13 95/95/13
f 93/93/2 96/96/2 95/95/2
f 93/93/2 95/95/2 92/92/2
f 94/94/13 98/98/13 97/97/13
f 94/94/13 95/95/13 98/98/13
f 96/96/2 99/99/2 98/98/2
f 96/96/2 98/98/2 95/95/2
f 97/97/14 101/101/14 100/100/14
f 97/97/14 98/98/14 101/101/14
f 99/99/2 102/102/2 101/101/2
f 99/99/2 101/101/2 98/98/2
f 103/103/15 105/105/15 104/104/15
f 103/103/15 106/106/15 105/105/15
f 107/107/2 108/108/2 105/105/2
f 107/107/2 105/105/2 106/106/2
f 104/104/15 110/110/15 109/109/15
f 104/104/15 105/105/15 110/110/15
f 108/108/2 111/111/2 110/110/2
f 108/108/2 110/110/2 105/105/2
f 109/109/15 113/113/15 112/112/15
f 109/109/15 110/110/15 113/113/15
f 111/111/2 114/114/2 113/113/2
f 111/111/2 113/113/2 110/110/2
f 115/115/16 106/106/16 103/103/16
f 115/115/16 116/116/16 106/106/16
f 117/117/2 107/107/2 106/106/2
f 117/117/2 106/106/2 116/116/2
f 118/118/17 120/120/17 119/119/17
f 118/118/17 121/121/17 120/120/17
f 122/122/2 123/123/2 120/120/2
f 122/122/2 120/120/2 121/121/2
f 119/119/17 125/125/17 124/124/17
f 119/119/17 120/120/17 125/125/17
f 123/123/2 126/126/2 125/125/2
f 123/123/2 125/125/2 120/120/2
f 124/124/17 128/128/17 127/127/17
f 124/124/17 125/125/17 128/128/17
f 126/126/2 129/129/2 128/128/2
f 126/126/2 128/128/2 125/125/2
f 127/127/18 131/131/18 130/130/18
f 127/127/18 128/128/18 131/131/18
f 129/129/2 132/132/2 131/131/2
f 129/129/2 131/131/2 128/128/2
f 130/130/18 134/134/18 133/133/18
f 130/130/18 131/131/18 134/134/18
f 132/132/2 135/135/2 134/134/2
f 132/132/2 134/134/2 131/131/2
f 133/133/18 137/137/18 136/136/18
f 133/133/18 134/134/18 137/137/18
f 135/135/2 138/138/2 137/137/2
f 135/135/2 137/137/2 134/134/2
f 136/136/19 140/140/19 139/139/19
f 136/136/19 137/137/19 140/140/19
f 138/138/2 141/141/2 140/140/2
f 138/138/2 140/140/2 137/137/2
f 142/142/20 144/144/20 143/143/20
f 142/142/20 145/145/20 144/144/20
f 146/146/2 147/147/2 144/144/2
f 146/146/2 144/144/2 145/145/2
f 143/143/21 149/149/21 148/148/21
f 143/143/21 144/144/21 149/149/21
f 147/147/2 150/150/2 149/149/2
f 147/147/2 149/149/2 144/144/2
f 148/148/21 152/152/21 151/151/21
f 148/148/21 149/149/21 152/152/21
f 150/150/2 153/153/2 152/152/2
f 150/150/2 152/152/2 149/149/2
f 151/151/21 155/155/21 154/154/21
f 151/151/21 152/152/21 155/155/21
f 153/153/2 156/156/2 155/155/2
f 153/153/2 155/155/2 152/152/2
f 154/154/21 158/158/21 157/157/21
f 154/154/21 155/155/21 158/158/21
f 156/156/2 159/159/2 158/158/2
f 156/156/2 158/158/2 155/155/2
f 157/157/22 161/161/22 160/160/22
f 157/157/22 158/158/22 161/161/22
f 159/159/2 162/162/2 161/161/2
f 159/159/2 161/161/2 158/158/2
f 160/160/22 164/164/22 163/163/22
f 160/160/22 161/161/22 164/164/22
f 162/162/2 165/165/2 164/164/2
f 162/162/2 164/164/2 161/161/2
f 166/166/23 168/168/23 167/167/23
f 166/166/23 169/169/23 168/168/23
f 170/170/2 171/171/2 168/168/2
f 170/170/2 168/168/2 169/169/2
f 167/167/23 173/173/23 172/172/23
f 167/167/23 168/168/23 173/173/23
f 171/171/2 174/174/2 173/173/2
f 171/171/2 173/173/2 168/168/2
f 172/172/23 176/176/23 175/175/23
f 172/172/23 173/173/23 176/176/23
f 174/174/2 177/177/2 176/176/2
f 174/174/2 176/176/2 173/173/2
f 175/175/24 179/179/24 178/178/24
f 175/175/24 176/176/24 179/179/24
f 177/177/2 180/180/2 179/179/2
f 177/177/2 179/179/2 176/176/2
f 181/181/25 169/169/25 166/166/25
f 181/181/25 182/182/25 169/169/25
f 183/183/2 170/170/2 169/169/2
f 183/183/2 169/169/2 182/182/2
f 184/184/26 186/186/26 185/185/26
f 184/184/26 187/187/26 186/186/26
f 188/188/2 189/189/2 186/186/2
f 188/188/2 186/186/2 187/187/2
f 185/185/26 191/191/26 190/190/26
f 185/185/26 186/186/26 191/191/26
f 189/189/2 192/192/2 191/191/2
f 189/189/2 191/191/2 186/186/2
f 190/190/26 194/194/26 193/193/26
f 190/190/26 191/191/26 194/194/26
f 192/192/2 195/195/2 194/194/2
f 192/192/2 194/194/2 191/191/2
f 193/193/26 197/197/26 196/196/26
f 193/193/26 194/194/26 197/197/26
f 195/195/2 198/198/2 197/197/2
f 195/195/2 197/197/2 194/194/2
f 196/196/27 200/200/27 199/199/27
f 196/196/27 197/197/27 200/200/27
f 198/198/2 201/201/2 200/200/2
f 198/198/2 200/200/2 197/197/2
f 199/199/27 203/203/27 202/202/27
f 199/199/27 200/200/27 203/203/27
f 201/201/2 204/204/2 203/203/2
f 201/201/2 203/203/2 200/200/2
f 205/205/28 207/207/28 206/206/28
f 205/205/28 208/208/28 207/207/28
f 209/209/2 210/210/2 207/207/2
f 209/209/2 207/207/2 208/208/2
f 206/206/28 212/212/28 211/211/28
f 206/206/28 207/207/28 212/212/28
f 210/210/2 213/213/2 212/212/2
f 210/210/2 212/212/2 207/207/2
f 211/211/29 215/215/29 214/214/29
f 211/211/29 212/212/29 215/215/29
f 213/213/2 216/216/2 215/215/2
f 213/213/2 215/215/2 212/212/2
f 214/214/29 218/218/29 217/217/29
f 214/214/29 215/215/29 218/218/29
f 216/216/2 219/219/2 218/218/2
f 216/216/2 218/218/2 215/215/2
f 217/217/29 221/221/29 220/220/29
f 217/217/29 218/218/29 221/221/29
f 219/219/2 222/222/2 221/221/2
f 219/219/2 221/221/2 218/218/2
f 223/223/30 225/225/30 224/224/30
f 223/223/30 226/226/30 225/225/30
f 227/227/2 228/228/2 225/225/2
f 227/227/2 225/225/2 226/226/2
f 224/224/31 230/230/31 229/229/31
f 224/224/31 225/225/31 230/230/31
f 228/228/2 231/231/2 230/230/2
f 228/228/2 230/230/2 225/225/2
f 229/229/31 233/233/31 232/232/31
f 229/229/31 230/230/31 233/233/31
f 231/231/2 234/234/2 233/233/2
f 231/231/2 233/233/2 230/230/2
f 232/232/31 236/236/31 235/235/31
f 232/232/31 233/233/31 236/236/31
f 234/234/2 237/237/2 236/236/2
f 234/234/2 236/236/2 233/233/2
f 235/235/31 239/239/31 238/238/31
f 235/235/31 236/236/31 239/239/31
f 237/237/2 240/240/2 239/239/2
f 237/237/2 239/239/2 236/236/2
f 238/238/31 242/242/31 241/241/31
f 238/238/31 239/239/31 242/242/31
f 240/240/2 243/243/2 242/242/2
f 240/240/2 242/242/2 239/239/2
f 241/241/31 245/245/31 244/244/31
f 241/241/31 242/242/31 245/245/31
f 243/243/2 246/246/2 245/245/2
f 243/243/2 245/245/2 242/242/2
f 247/247/31 249/249/31 248/248/31
f 247/247/31 250/250/31 249/249/31
f 251/251/2 252/252/2 249/249/2
f 251/251/2 249/249/2 250/250/2
f 248/248/32 254/254/32 253/253/32
f 248/248/32 249/249/32 254/254/32
f 252/252/2 255/255/2 254/254/2
f 252/252/2 254/254/2 249/249/2
f 256/256/33 258/258/33 257/257/33
f 256/256/33 259/259/33 258/258/33
f 260/260/2 261/261/2 258/258/2
f 260/260/2 258/258/2 259/259/2
f 257/257/33 263/263/33 262/262/33
f 257/257/33 258/258/33 263/263/33
f 261/261/2 264/264/2 263/263/2
f 261/261/2 263/263/2 258/258/2
f 262/262/33 266/266/33 265/265/33
f 262/262/33 263/263/33 266/266/33
f 264/264/2 267/267/2 266/266/2
f 264/264/2 266/266/2 263/263/2
f 265/265/33 269/269/33 268/268/33
f 265/265/33 266/266/33 269/269/33
f 267/267/2 270/270/2 269/269/2
f 267/267/2 269/269/2 266/266/2
f 268/268/34 272/272/34 271/271/34
f 268/268/34 269/269/34 272/272/34
f 270/270/2 273/273/2 272/272/2
f 270/270/2 272/272/2 269/269/2
f 274/274/35 276/276/35 275/275/35
f 274/274/35 277/277/35 276/276/35
f 278/278/2 279/279/2 276/276/2
f 278/278/2 276/276/2 277/277/2
f 275/275/35 281/281/35 280/280/35
f 275/275/35 276/276/35 281/281/35
f 279/279/2 282/282/2 281/281/2
f 279/279/2 281/281/2 276/276/2
f 280/280/35 284/284/35 283/283/35
f 280/280/35 281/281/35 284/284/35
f 282/282/2 285/285/2 284/284/2
f 282/282/2 284/284/2 281/281/2
f 283/283/36 287/287/36 286/286/36
f 283/283/36 284/284/36 287/287/36
f 285/285/2 288/288/2 287/287/2
f 285/285/2 287/287/2 284/284/2
f 286/286/36 290/290/36 289/289/36
f 286/286/36 287/287/36 290/290/36
f 288/288/2 291/291/2 290/290/2
f 288/288/2 290/290/2 287/287/2
f 292/292/37 294/294/37 293/293/37
f 292/292/37 295/295/37 294/294/37
f 296/296/2 297/297/2 294/294/2
f 296/296/2 294/294/2 295/295/2
f 293/293/38 299/299/38 298/298/38
f 293/293/38 294/294/38 299/299/38
f 297/297/2 300/300/2 299/299/2
f 297/297/2 299/299/2 294/294/2
f 301/301/39 303/303/39 302/302/39
f 301/301/39 304/304/39 303/303/39
f 305/305/2 306/306/2 303/303/2
f 305/305/2 303/303/2 304/304/2
f 302/302/39 308/308/39 307/307/39
f 302/302/39 303/303/39 308/308/39
f 306/306/2 309/309/2 308/308/2
f 306/306/2 308/308/2 303/303/2
f 307/307/40 311/311/40 310/310/40
f 307/307/40 308/308/40 311/311/40
f 309/309/2 312/312/2 311/311/2
f 309/309/2 311/311/2 308/308/2
