# Unreal legacy OBJ adapter: canonical vertices are UE cm; this file is written with Y reflected and triangle winding reversed. One object, no g groups, so the importer creates exactly one material slot.
# OldCityFoundationV2 foundations (plinth + stepped footing); generator 463404ba754c804f514fe655944ece4eb51a92e1273fec326ad5c2ebfbb18f24
# AUTHORED detail in the style of Old City stone foundations, not survey
o SM_OldCityFoundationV2_Kept_P000_P003
s off
v 9343.39 -152062.82 -12612.50
v 9354.74 -152058.67 -12620.42
v 9354.74 -152058.67 -12587.50
v 9343.39 -152062.82 -12587.50
v 9338.84 -152073.01 -12587.50
v 9349.99 -152068.93 -12587.50
v 9506.84 -152472.43 -12651.57
v 9506.84 -152472.43 -12587.50
v 9500.16 -152477.44 -12587.50
v 9789.26 -153240.69 -12647.93
v 9789.26 -153240.69 -12587.50
v 9778.99 -153235.93 -12587.50
v 9740.58 -153258.52 -12612.50
v 9740.58 -153258.52 -12587.50
v 9731.17 -153253.45 -12587.50
v 15708.25 -153271.71 -15252.80
v 15875.49 -153355.16 -15309.72
v 15875.49 -153355.16 -15227.80
v 15708.25 -153271.71 -15227.80
v 15702.53 -153277.68 -15227.80
v 15868.66 -153360.64 -15227.80
v 16053.49 -153443.99 -15284.86
v 16053.49 -153443.99 -15227.80
v 16045.49 -153448.93 -15227.80
v 16053.49 -153533.04 -15252.80
v 16053.49 -153533.04 -15227.80
v 16045.49 -153536.72 -15227.80
v 16010.94 -152570.82 -15597.50
v 15947.62 -152472.43 -15630.39
v 15947.62 -152472.43 -15572.50
v 16010.94 -152570.82 -15572.50
v 16022.61 -152574.16 -15572.50
v 15959.08 -152475.46 -15572.50
v 15919.37 -152428.55 -15627.50
v 15919.37 -152428.55 -15572.50
v 15930.74 -152431.43 -15572.50
v 15875.49 -152360.37 -15627.50
v 15875.49 -152360.37 -15572.50
v 15886.71 -152363.03 -15572.50
v 15807.30 -152254.44 -15597.50
v 15807.30 -152254.44 -15572.50
v 15818.31 -152256.76 -15572.50
v 15807.30 -151819.14 -15597.50
v 15875.49 -151758.57 -15627.50
v 15875.49 -151758.57 -15572.50
v 15807.30 -151819.14 -15572.50
v 15813.67 -151824.18 -15572.50
v 15880.30 -151764.99 -15572.50
v 16096.72 -151562.02 -15627.50
v 16096.72 -151562.02 -15572.50
v 16096.49 -151572.93 -15572.50
v 16446.53 -151901.39 -15627.50
v 16446.53 -151901.39 -15572.50
v 16443.96 -151910.04 -15572.50
v 17035.13 -152472.43 -15673.89
v 17035.13 -152472.43 -15572.50
v 17028.64 -152477.29 -15572.50
v 17282.12 -152712.06 -15597.50
v 17282.12 -152712.06 -15572.50
v 17273.99 -152715.32 -15572.50
v 20701.71 -156133.48 -15632.40
v 20875.49 -156519.25 -15665.63
v 20875.49 -156519.25 -15607.40
v 20701.71 -156133.48 -15607.40
v 20693.04 -156133.71 -15607.40
v 20865.40 -156516.34 -15607.40
v 20937.07 -156655.96 -15662.62
v 20937.07 -156655.96 -15607.40
v 20926.49 -156651.94 -15607.40
v 20875.49 -156683.55 -15659.06
v 20875.49 -156683.55 -15607.40
v 20865.77 -156679.13 -15607.40
v 20786.01 -156723.62 -15632.40
v 20786.01 -156723.62 -15607.40
v 20777.56 -156718.64 -15607.40
v 25175.55 -166992.30 -15652.30
v 25329.75 -166926.70 -15662.01
v 25329.75 -166926.70 -15627.30
v 25175.55 -166992.30 -15627.30
v 25179.51 -166999.31 -15627.30
v 25331.06 -166934.84 -15627.30
v 25651.21 -166789.95 -15682.26
v 25651.21 -166789.95 -15627.30
v 25646.99 -166800.44 -15627.30
v 25875.49 -167315.52 -15721.22
v 25875.49 -167315.52 -15627.30
v 25867.77 -167317.83 -15627.30
v 25922.42 -167425.50 -15725.62
v 25922.42 -167425.50 -15627.30
v 25913.98 -167426.10 -15627.30
v 25942.45 -167472.43 -15724.82
v 25942.45 -167472.43 -15627.30
v 25933.69 -167472.31 -15627.30
v 25992.29 -167589.24 -15694.79
v 25992.29 -167589.24 -15627.30
v 25982.77 -167587.30 -15627.30
v 26054.99 -167736.16 -15657.03
v 26054.99 -167736.16 -15627.30
v 26044.49 -167731.93 -15627.30
v 25978.72 -167768.56 -15652.30
v 25978.72 -167768.56 -15627.30
v 25969.53 -167763.77 -15627.30
v 25520.83 -167963.10 -15652.30
v 25284.36 -168063.56 -15656.56
v 25284.36 -168063.56 -15627.30
v 25520.83 -167963.10 -15627.30
v 25519.51 -167954.96 -15627.30
v 25287.11 -168053.70 -15627.30
v 25240.39 -168082.24 -15652.30
v 25240.39 -168082.24 -15627.30
v 25243.89 -168072.06 -15627.30
v 46938.70 -165220.11 -16530.40
v 46959.05 -164972.43 -16570.84
v 46959.05 -164972.43 -16505.40
v 46938.70 -165220.11 -16505.40
v 46947.28 -165213.31 -16505.40
v 46967.38 -164968.81 -16505.40
v 47037.67 -164015.81 -16535.72
v 47037.67 -164015.81 -16505.40
v 47044.99 -164024.43 -16505.40
v 47452.93 -164049.88 -16553.70
v 47452.93 -164049.88 -16505.40
v 47448.64 -164057.55 -16505.40
v 47608.11 -164062.61 -16560.41
v 47608.11 -164062.61 -16505.40
v 47599.49 -164069.93 -16505.40
v 47597.30 -164194.24 -16565.24
v 47597.30 -164194.24 -16505.40
v 47588.81 -164199.88 -16505.40
v 47533.34 -164972.43 -16593.81
v 47533.34 -164972.43 -16505.40
v 47525.67 -164968.10 -16505.40
v 47505.80 -165307.56 -16539.09
v 47505.80 -165307.56 -16505.40
v 47498.49 -165298.93 -16505.40
v 47182.34 -165281.02 -16530.40
v 47182.34 -165281.02 -16505.40
v 47184.06 -165273.13 -16505.40
v 47430.99 -155693.93 -15376.30
v 47430.99 -155438.93 -15345.70
v 47430.99 -155438.93 -15320.70
v 47430.99 -155693.93 -15320.70
v 47438.99 -155685.93 -15320.70
v 47438.99 -155434.95 -15320.70
v 48703.49 -155363.93 -15345.70
v 48703.49 -155693.93 -15372.10
v 48703.49 -155693.93 -15320.70
v 48703.49 -155363.93 -15320.70
v 48695.49 -155361.13 -15320.70
v 48695.49 -155685.93 -15320.70
v 48375.49 -155693.93 -15385.22
v 48375.49 -155693.93 -15320.70
v 48371.61 -155685.93 -15320.70
v 47653.99 -155693.93 -15385.22
v 47653.99 -155693.93 -15320.70
v 47659.18 -155685.93 -15320.70
vt 403.5155 -31.5312
vt 403.5335 -31.5511
vt 403.5335 -31.4688
vt 403.5155 -31.4688
vt 403.5296 -31.4688
vt 403.5473 -31.4688
vt 404.9482 -31.6289
vt 404.9482 -31.4688
vt 404.9440 -31.4688
vt 407.5749 -31.6198
vt 407.5749 -31.4688
vt 407.5373 -31.4688
vt 407.4977 -31.5312
vt 407.4977 -31.4688
vt 407.4616 -31.4688
vt 422.4499 -38.1320
vt 423.0766 -38.2743
vt 423.0766 -38.0695
vt 422.4499 -38.0695
vt 422.4505 -38.0695
vt 423.0733 -38.0695
vt 423.7437 -38.2122
vt 423.7437 -38.0695
vt 423.7360 -38.0695
vt 423.9663 -38.1320
vt 423.9663 -38.0695
vt 423.9555 -38.0695
vt 421.4544 -38.9937
vt 421.0501 -39.0760
vt 421.0501 -38.9312
vt 421.4544 -38.9312
vt 421.4919 -38.9312
vt 421.0863 -38.9312
vt 420.8698 -39.0688
vt 420.8698 -38.9312
vt 420.9054 -38.9312
vt 420.5896 -39.0688
vt 420.5896 -38.9312
vt 420.6243 -38.9312
vt 420.1543 -38.9937
vt 420.1543 -38.9312
vt 420.1877 -38.9312
vt 419.0661 -38.9937
vt 419.0851 -39.0688
vt 419.0851 -38.9312
vt 419.0661 -38.9312
vt 419.0946 -38.9312
vt 419.1132 -38.9312
vt 419.1468 -39.0688
vt 419.1468 -38.9312
vt 419.1735 -38.9312
vt 420.8698 -39.0688
vt 420.8698 -38.9312
vt 420.8850 -38.9312
vt 423.7689 -39.1847
vt 423.7689 -38.9312
vt 423.7648 -38.9312
vt 424.9854 -38.9937
vt 424.9854 -38.9312
vt 424.9733 -38.9312
vt 442.0880 -39.0810
vt 443.4869 -39.1641
vt 443.4869 -39.0185
vt 442.0880 -39.0185
vt 442.0669 -39.0185
vt 443.4543 -39.0185
vt 443.9826 -39.1566
vt 443.9826 -39.0185
vt 443.9461 -39.0185
vt 443.8976 -39.1476
vt 443.8976 -39.0185
vt 443.8622 -39.0185
vt 443.7741 -39.0810
vt 443.7741 -39.0185
vt 443.7405 -39.0185
vt 480.4196 -39.1307
vt 480.6411 -39.1550
vt 480.6411 -39.0682
vt 480.4196 -39.0682
vt 480.4470 -39.0682
vt 480.6647 -39.0682
vt 481.1029 -39.2056
vt 481.1029 -39.0682
vt 481.1186 -39.0682
vt 482.9775 -39.3030
vt 482.9775 -39.0682
vt 482.9640 -39.0682
vt 483.3698 -39.3141
vt 483.3698 -39.0682
vt 483.3502 -39.0682
vt 483.5372 -39.3120
vt 483.5372 -39.0682
vt 483.5150 -39.0682
vt 483.9538 -39.2370
vt 483.9538 -39.0682
vt 483.9252 -39.0682
vt 484.4779 -39.1426
vt 484.4779 -39.0682
vt 484.4410 -39.0682
vt 484.3682 -39.1307
vt 484.3682 -39.0682
vt 484.3332 -39.0682
vt 483.7098 -39.1307
vt 483.3698 -39.1414
vt 483.3698 -39.0682
vt 483.7098 -39.0682
vt 483.6862 -39.0682
vt 483.3520 -39.0682
vt 483.3066 -39.1307
vt 483.3066 -39.0682
vt 483.2899 -39.0682
vt 530.3970 -41.3260
vt 529.8287 -41.4271
vt 529.8287 -41.2635
vt 530.3970 -41.2635
vt 530.4015 -41.2635
vt 529.8405 -41.2635
vt 527.6337 -41.3393
vt 527.6337 -41.2635
vt 527.6735 -41.2635
vt 528.7570 -41.3843
vt 528.7570 -41.2635
vt 528.7655 -41.2635
vt 529.1768 -41.4010
vt 529.1768 -41.2635
vt 529.1735 -41.2635
vt 529.4788 -41.4131
vt 529.4788 -41.2635
vt 529.4717 -41.2635
vt 531.2644 -41.4845
vt 531.2644 -41.2635
vt 531.2344 -41.2635
vt 532.0334 -41.3477
vt 532.0334 -41.2635
vt 531.9935 -41.2635
vt 531.1584 -41.3260
vt 531.1584 -41.2635
vt 531.1430 -41.2635
vt 507.8123 -38.4408
vt 507.1748 -38.3642
vt 507.1748 -38.3017
vt 507.8123 -38.3017
vt 507.8123 -38.3017
vt 507.1848 -38.3017
vt 510.1685 -38.3642
vt 510.9935 -38.4303
vt 510.9935 -38.3017
vt 510.1685 -38.3017
vt 510.1415 -38.3017
vt 510.9535 -38.3017
vt 510.1735 -38.4630
vt 510.1735 -38.3017
vt 510.1438 -38.3017
vt 508.3698 -38.4630
vt 508.3698 -38.3017
vt 508.3628 -38.3017
vn -0.3441 0.9390 0.0000
vn 0.0000 -0.0000 1.0000
vn 0.9386 0.3450 0.0000
vn 0.3440 -0.9390 0.0000
vn 0.4465 0.8948 0.0000
vn 1.0000 -0.0000 0.0000
vn -0.8409 -0.5412 0.0000
vn -0.6642 0.7476 0.0000
vn 0.6963 0.7177 0.0000
vn 0.9118 0.4107 0.0000
vn 0.4088 -0.9126 0.0000
vn -0.3915 0.9202 0.0000
vn 0.9198 0.3925 0.0000
vn 0.3910 -0.9204 0.0000
vn -0.9966 0.0819 0.0000
vn 0.0818 0.9967 0.0000
vn 0.9966 -0.0819 0.0000
vn -0.0818 -0.9967 0.0000
vn -1.0000 -0.0000 0.0000
vn 0.0000 -1.0000 0.0000
f 1/1/1 3/3/1 2/2/1
f 1/1/1 4/4/1 3/3/1
f 5/5/2 6/6/2 3/3/2
f 5/5/2 3/3/2 4/4/2
f 2/2/3 8/8/3 7/7/3
f 2/2/3 3/3/3 8/8/3
f 6/6/2 9/9/2 8/8/2
f 6/6/2 8/8/2 3/3/2
f 7/7/3 11/11/3 10/10/3
f 7/7/3 8/8/3 11/11/3
f 9/9/2 12/12/2 11/11/2
f 9/9/2 11/11/2 8/8/2
f 10/10/4 14/14/4 13/13/4
f 10/10/4 11/11/4 14/14/4
f 12/12/2 15/15/2 14/14/2
f 12/12/2 14/14/2 11/11/2
f 16/16/5 18/18/5 17/17/5
f 16/16/5 19/19/5 18/18/5
f 20/20/2 21/21/2 18/18/2
f 20/20/2 18/18/2 19/19/2
f 17/17/5 23/23/5 22/22/5
f 17/17/5 18/18/5 23/23/5
f 21/21/2 24/24/2 23/23/2
f 21/21/2 23/23/2 18/18/2
f 22/22/6 26/26/6 25/25/6
f 22/22/6 23/23/6 26/26/6
f 24/24/2 27/27/2 26/26/2
f 24/24/2 26/26/2 23/23/2
f 28/28/7 30/30/7 29/29/7
f 28/28/7 31/31/7 30/30/7
f 32/32/2 33/33/2 30/30/2
f 32/32/2 30/30/2 31/31/2
f 29/29/7 35/35/7 34/34/7
f 29/29/7 30/30/7 35/35/7
f 33/33/2 36/36/2 35/35/2
f 33/33/2 35/35/2 30/30/2
f 34/34/7 38/38/7 37/37/7
f 34/34/7 35/35/7 38/38/7
f 36/36/2 39/39/2 38/38/2
f 36/36/2 38/38/2 35/35/2
f 37/37/7 41/41/7 40/40/7
f 37/37/7 38/38/7 41/41/7
f 39/39/2 42/42/2 41/41/2
f 39/39/2 41/41/2 38/38/2
f 43/43/8 45/45/8 44/44/8
f 43/43/8 46/46/8 45/45/8
f 47/47/2 48/48/2 45/45/2
f 47/47/2 45/45/2 46/46/2
f 44/44/8 50/50/8 49/49/8
f 44/44/8 45/45/8 50/50/8
f 48/48/2 51/51/2 50/50/2
f 48/48/2 50/50/2 45/45/2
f 49/49/9 53/53/9 52/52/9
f 49/49/9 50/50/9 53/53/9
f 51/51/2 54/54/2 53/53/2
f 51/51/2 53/53/2 50/50/2
f 52/52/9 56/56/9 55/55/9
f 52/52/9 53/53/9 56/56/9
f 54/54/2 57/57/2 56/56/2
f 54/54/2 56/56/2 53/53/2
f 55/55/9 59/59/9 58/58/9
f 55/55/9 56/56/9 59/59/9
f 57/57/2 60/60/2 59/59/2
f 57/57/2 59/59/2 56/56/2
f 61/61/10 63/63/10 62/62/10
f 61/61/10 64/64/10 63/63/10
f 65/65/2 66/66/2 63/63/2
f 65/65/2 63/63/2 64/64/2
f 62/62/10 68/68/10 67/67/10
f 62/62/10 63/63/10 68/68/10
f 66/66/2 69/69/2 68/68/2
f 66/66/2 68/68/2 63/63/2
f 67/67/11 71/71/11 70/70/11
f 67/67/11 68/68/11 71/71/11
f 69/69/2 72/72/2 71/71/2
f 69/69/2 71/71/2 68/68/2
f 70/70/11 74/74/11 73/73/11
f 70/70/11 71/71/11 74/74/11
f 72/72/2 75/75/2 74/74/2
f 72/72/2 74/74/2 71/71/2
f 76/76/12 78/78/12 77/77/12
f 76/76/12 79/79/12 78/78/12
f 80/80/2 81/81/2 78/78/2
f 80/80/2 78/78/2 79/79/2
f 77/77/12 83/83/12 82/82/12
f 77/77/12 78/78/12 83/83/12
f 81/81/2 84/84/2 83/83/2
f 81/81/2 83/83/2 78/78/2
f 82/82/13 86/86/13 85/85/13
f 82/82/13 83/83/13 86/86/13
f 84/84/2 87/87/2 86/86/2
f 84/84/2 86/86/2 83/83/2
f 85/85/13 89/89/13 88/88/13
f 85/85/13 86/86/13 89/89/13
f 87/87/2 90/90/2 89/89/2
f 87/87/2 89/89/2 86/86/2
f 88/88/13 92/92/13 91/91/13
f 88/88/13 89/89/13 92/92/13
f 90/90/2 93/93/2 92/92/2
f 90/90/2 92/92/2 89/89/2
f 91/91/13 95/95/13 94/94/13
f 91/91/13 92/92/13 95/95/13
f 93/93/2 96/96/2 95/95/2
f 93/93/2 95/95/2 92/92/2
f 94/94/13 98/98/13 97/97/13
f 94/94/13 95/95/13 98/98/13
f 96/96/2 99/99/2 98/98/2
f 96/96/2 98/98/2 95/95/2
f 97/97/14 101/101/14 100/100/14
f 97/97/14 98/98/14 101/101/14
f 99/99/2 102/102/2 101/101/2
f 99/99/2 101/101/2 98/98/2
f 103/103/14 105/105/14 104/104/14
f 103/103/14 106/106/14 105/105/14
f 107/107/2 108/108/2 105/105/2
f 107/107/2 105/105/2 106/106/2
f 104/104/14 110/110/14 109/109/14
f 104/104/14 105/105/14 110/110/14
f 108/108/2 111/111/2 110/110/2
f 108/108/2 110/110/2 105/105/2
f 112/112/15 114/114/15 113/113/15
f 112/112/15 115/115/15 114/114/15
f 116/116/2 117/117/2 114/114/2
f 116/116/2 114/114/2 115/115/2
f 113/113/15 119/119/15 118/118/15
f 113/113/15 114/114/15 119/119/15
f 117/117/2 120/120/2 119/119/2
f 117/117/2 119/119/2 114/114/2
f 118/118/16 122/122/16 121/121/16
f 118/118/16 119/119/16 122/122/16
f 120/120/2 123/123/2 122/122/2
f 120/120/2 122/122/2 119/119/2
f 121/121/16 125/125/16 124/124/16
f 121/121/16 122/122/16 125/125/16
f 123/123/2 126/126/2 125/125/2
f 123/123/2 125/125/2 122/122/2
f 124/124/17 128/128/17 127/127/17
f 124/124/17 125/125/17 128/128/17
f 126/126/2 129/129/2 128/128/2
f 126/126/2 128/128/2 125/125/2
f 127/127/17 131/131/17 130/130/17
f 127/127/17 128/128/17 131/131/17
f 129/129/2 132/132/2 131/131/2
f 129/129/2 131/131/2 128/128/2
f 130/130/17 134/134/17 133/133/17
f 130/130/17 131/131/17 134/134/17
f 132/132/2 135/135/2 134/134/2
f 132/132/2 134/134/2 131/131/2
f 133/133/18 137/137/18 136/136/18
f 133/133/18 134/134/18 137/137/18
f 135/135/2 138/138/2 137/137/2
f 135/135/2 137/137/2 134/134/2
f 139/139/19 141/141/19 140/140/19
f 139/139/19 142/142/19 141/141/19
f 143/143/2 144/144/2 141/141/2
f 143/143/2 141/141/2 142/142/2
f 145/145/6 147/147/6 146/146/6
f 145/145/6 148/148/6 147/147/6
f 149/149/2 150/150/2 147/147/2
f 149/149/2 147/147/2 148/148/2
f 146/146/20 152/152/20 151/151/20
f 146/146/20 147/147/20 152/152/20
f 150/150/2 153/153/2 152/152/2
f 150/150/2 152/152/2 147/147/2
f 151/151/20 155/155/20 154/154/20
f 151/151/20 152/152/20 155/155/20
f 153/153/2 156/156/2 155/155/2
f 153/153/2 155/155/2 152/152/2
f 154/154/20 142/142/20 139/139/20
f 154/154/20 155/155/20 142/142/20
f 156/156/2 143/143/2 142/142/2
f 156/156/2 142/142/2 155/155/2
