# Unreal legacy OBJ adapter: canonical vertices are UE cm; this file is written with Y reflected and triangle winding reversed. One object, no g groups, so the importer creates exactly one material slot.
# OldCityFoundationV2 foundations (plinth + stepped footing); generator 463404ba754c804f514fe655944ece4eb51a92e1273fec326ad5c2ebfbb18f24
# AUTHORED detail in the style of Old City stone foundations, not survey
o SM_OldCityFoundationV2_Kept_N001_N004
s off
v -46337.84 153289.06 -271.26
v -46624.51 153412.35 -285.93
v -46624.51 153412.35 -215.10
v -46337.84 153289.06 -215.10
v -46342.01 153299.56 -215.10
v -46627.07 153422.16 -215.10
v -47753.98 153898.10 -253.39
v -47753.98 153898.10 -215.10
v -47750.12 153905.15 -215.10
v -47908.52 153964.57 -240.10
v -47908.52 153964.57 -215.10
v -47903.78 153971.24 -215.10
v -46274.34 153436.18 -240.10
v -46274.34 153436.18 -215.10
v -46279.60 153444.18 -215.10
v -48596.37 170928.50 2880.61
v -48525.12 171184.23 2911.30
v -48525.12 171184.23 2936.30
v -48596.37 170928.50 2936.30
v -48586.51 170934.06 2936.30
v -48515.78 171187.93 2936.30
v -46645.55 170523.09 2911.30
v -46680.96 170396.23 2899.74
v -46680.96 170396.23 2936.30
v -46645.55 170523.09 2936.30
v -46651.37 170532.01 2936.30
v -46686.51 170406.07 2936.30
v -47112.92 170515.97 2892.04
v -47112.92 170515.97 2936.30
v -47115.22 170524.91 2936.30
v -47704.16 170679.86 2881.50
v -47704.16 170679.86 2936.30
v -47702.01 170687.57 2936.30
v -48304.83 170847.26 2870.86
v -48304.83 170847.26 2936.30
v -48297.49 170853.52 2936.30
v -42335.51 150741.69 -398.81
v -42339.88 150742.93 -398.89
v -42339.88 150742.93 -369.90
v -42335.51 150741.69 -369.90
v -42341.01 150751.57 -369.90
v -42345.35 150752.80 -369.90
v -43172.81 150979.28 -413.30
v -43172.81 150979.28 -369.90
v -43171.82 150987.31 -369.90
v -44124.51 151249.33 -429.76
v -44124.51 151249.33 -369.90
v -44116.16 151255.27 -369.90
v -44320.90 151305.05 -425.30
v -44320.90 151305.05 -369.90
v -44311.01 151310.56 -369.90
v -44212.97 151685.07 -394.90
v -44212.97 151685.07 -369.90
v -44204.14 151686.85 -369.90
v -42323.33 150784.47 -394.90
v -42323.33 150784.47 -369.90
v -42329.02 150793.71 -369.90
v -35476.92 151842.31 -174.13
v -35637.93 152066.66 -143.30
v -35637.93 152066.66 -118.30
v -35476.92 151842.31 -118.30
v -35475.51 151854.07 -118.30
v -35634.88 152076.13 -118.30
v -34433.26 152740.07 -143.30
v -34680.29 152527.57 -183.04
v -34680.29 152527.57 -118.30
v -34433.26 152740.07 -118.30
v -34436.00 152748.26 -118.30
v -34682.06 152536.60 -118.30
v -33709.82 195491.47 3718.80
v -33587.14 195813.38 3688.14
v -33587.14 195813.38 3743.80
v -33709.82 195491.47 3743.80
v -33702.83 195487.35 3743.80
v -33582.51 195803.07 3743.80
v -33407.10 195744.98 3686.41
v -33407.10 195744.98 3743.80
v -33403.72 195735.14 3743.80
v -32696.60 195475.07 3718.80
v -32696.60 195475.07 3743.80
v -32698.14 195467.09 3743.80
v -32113.05 193196.53 3718.80
v -32134.88 193139.25 3717.38
v -32134.88 193139.25 3743.80
v -32113.05 193196.53 3743.80
v -32117.86 193206.38 3743.80
v -32139.51 193149.56 3743.80
v -32160.59 193148.99 3718.80
v -32160.59 193148.99 3743.80
v -32164.86 193159.17 3743.80
v -33333.73 196693.42 3607.60
v -33321.35 196724.40 3604.63
v -33321.35 196724.40 3632.60
v -33333.73 196693.42 3632.60
v -33327.50 196687.46 3632.60
v -33315.29 196718.00 3632.60
v -33205.98 197012.96 3576.93
v -33205.98 197012.96 3632.60
v -33201.51 197002.57 3632.60
v -32443.14 196708.94 3570.74
v -32443.14 196708.94 3632.60
v -32445.03 196701.08 3632.60
v -31672.30 196401.73 3607.60
v -31672.30 196401.73 3632.60
v -31680.60 196396.43 3632.60
v -31592.85 196370.07 3607.60
v -31419.61 196301.03 3595.10
v -31419.61 196301.03 3632.60
v -31592.85 196370.07 3632.60
v -31601.81 196365.03 3632.60
v -31430.01 196296.56 3632.60
v -31449.40 196226.62 3607.60
v -31449.40 196226.62 3632.60
v -31459.39 196223.18 3632.60
v -27901.33 153736.94 156.80
v -27916.00 153718.51 149.58
v -27916.00 153718.51 181.80
v -27901.33 153736.94 181.80
v -27904.58 153745.70 181.80
v -27919.01 153727.57 181.80
v -27929.92 153722.16 150.34
v -27929.92 153722.16 181.80
v -27932.89 153731.21 181.80
v -29124.51 154035.63 155.08
v -29124.51 154035.63 181.80
v -29123.39 154043.61 181.80
v -29149.22 154042.11 156.17
v -29149.22 154042.11 181.80
v -29148.01 154050.07 181.80
v -30069.16 154082.92 132.43
v -30069.16 154082.92 181.80
v -30069.08 154090.93 181.80
v -30140.00 154086.06 133.56
v -30140.00 154086.06 181.80
v -30140.01 154094.07 181.80
v -30658.70 154061.75 124.81
v -30658.70 154061.75 181.80
v -30656.36 154069.87 181.80
v -31624.51 154016.47 108.51
v -31624.51 154016.47 181.80
v -31617.80 154024.80 181.80
v -31875.87 154004.69 124.37
v -31875.87 154004.69 181.80
v -31868.01 154013.07 181.80
v -31877.43 154094.42 156.80
v -31877.43 154094.42 181.80
v -31869.56 154101.93 181.80
v -23264.32 168888.34 2870.20
v -24124.51 168902.27 2837.46
v -24124.51 168902.27 2895.20
v -23264.32 168888.34 2895.20
v -23271.98 168896.46 2895.20
v -24124.55 168910.27 2895.20
v -25046.64 168917.20 2839.26
v -25046.64 168917.20 2895.20
v -25038.51 168925.07 2895.20
v -25043.53 169108.55 2862.22
v -25043.53 169108.55 2895.20
v -25035.43 169114.56 2895.20
v -25042.72 169158.64 2870.20
v -25042.72 169158.64 2895.20
v -25034.63 169164.16 2895.20
v -24523.74 176901.02 3029.50
v -24124.51 176889.51 2998.02
v -24124.51 176889.51 3054.50
v -24523.74 176901.02 3054.50
v -24519.17 176892.89 3054.50
v -24123.52 176881.48 3054.50
v -23467.50 176870.56 2998.78
v -23467.50 176870.56 3054.50
v -23472.40 176862.69 3054.50
v -23095.79 176859.83 2999.21
v -23095.79 176859.83 3054.50
v -23104.01 176852.07 3054.50
v -23105.80 176508.85 3013.25
v -23105.80 176508.85 3054.50
v -23114.02 176501.08 3054.50
v -23109.29 176386.34 3018.15
v -23109.29 176386.34 3054.50
v -23117.51 176378.57 3054.50
v -22979.70 176382.75 3018.29
v -22979.70 176382.75 3054.50
v -22987.92 176374.98 3054.50
v -22775.00 176377.09 3018.52
v -22775.00 176377.09 3054.50
v -22783.22 176369.31 3054.50
v -22621.80 176372.84 3018.69
v -22621.80 176372.84 3054.50
v -22630.01 176365.07 3054.50
v -22629.30 176102.57 3029.50
v -22629.30 176102.57 3054.50
v -22637.39 176099.42 3054.50
v -15937.01 188735.37 1917.50
v -15676.16 188799.24 1896.63
v -15676.16 188799.24 1942.50
v -15937.01 188735.37 1942.50
v -15941.40 188726.06 1942.50
v -15682.01 188789.57 1942.50
v -15612.31 188539.78 1891.52
v -15612.31 188539.78 1942.50
v -15618.65 188532.09 1942.50
v -15363.22 187527.57 1871.60
v -15363.22 187527.57 1942.50
v -15371.47 187527.64 1942.50
v -15177.33 186772.20 1886.94
v -15177.33 186772.20 1942.50
v -15187.01 186778.07 1942.50
v -15517.70 186688.93 1917.50
v -15517.70 186688.93 1942.50
v -15523.08 186695.85 1942.50
v -17717.01 198153.00 2116.20
v -17520.49 198269.85 2108.34
v -17520.49 198269.85 2141.20
v -17717.01 198153.00 2141.20
v -17706.04 198150.22 2141.20
v -17509.51 198267.07 2141.20
v -17717.01 198598.75 2116.20
v -17717.01 198598.75 2141.20
v -17706.04 198595.99 2141.20
v -17717.01 198855.50 2116.20
v -16624.51 199510.09 2072.50
v -16624.51 199510.09 2141.20
v -17717.01 198855.50 2141.20
v -17706.05 198852.75 2141.20
v -16613.51 199507.36 2141.20
v -16300.92 199703.98 2098.39
v -16300.92 199703.98 2141.20
v -16289.91 199701.25 2141.20
v -16078.26 199837.39 2116.20
v -16078.26 199837.39 2141.20
v -16067.24 199834.66 2141.20
v -16078.26 200717.68 2116.20
v -16363.06 201183.80 2093.42
v -16363.06 201183.80 2141.20
v -16078.26 200717.68 2141.20
v -16067.23 200714.96 2141.20
v -16352.01 201181.07 2141.20
v -16078.26 201353.48 2116.20
v -16078.26 201353.48 2141.20
v -16069.50 201349.39 2141.20
v -14672.17 196120.07 2116.20
v -15013.79 195916.84 2108.07
v -15013.79 195916.84 2141.20
v -14672.17 196120.07 2141.20
v -14675.30 196127.52 2141.20
v -15015.26 195925.28 2141.20
v -15888.29 195396.61 2087.26
v -15888.29 195396.61 2141.20
v -15885.51 195407.57 2141.20
v -16025.55 195626.53 2096.46
v -16025.55 195626.53 2141.20
v -16022.78 195637.49 2141.20
v -16624.51 196629.78 2072.50
v -16624.51 196629.78 2141.20
v -16621.74 196640.75 2141.20
v -16960.14 197191.95 2085.92
v -16960.14 197191.95 2141.20
v -16957.37 197202.91 2141.20
v -16969.79 197208.11 2086.31
v -16969.79 197208.11 2141.20
v -16967.01 197219.07 2141.20
v -17717.01 196762.72 2116.20
v -17717.01 196762.72 2141.20
v -17714.25 196773.69 2141.20
v -8146.54 190280.93 1434.80
v -8013.19 190154.87 1403.96
v -8013.19 190154.87 1459.80
v -8146.54 190280.93 1459.80
v -8155.01 190277.92 1459.80
v -8024.51 190154.57 1459.80
v -8134.16 190027.57 1393.27
v -8134.16 190027.57 1459.80
v -8143.89 190028.93 1459.80
v -8616.69 189519.74 1411.56
v -8616.69 189519.74 1459.80
v -8620.10 189527.77 1459.80
v -8854.22 189269.77 1420.56
v -8854.22 189269.77 1459.80
v -8854.51 189281.07 1459.80
v -8974.99 189384.11 1434.80
v -8974.99 189384.11 1459.80
v -8975.29 189395.41 1459.80
v 339.25 180420.07 703.90
v 744.98 180027.57 672.50
v 744.98 180027.57 728.90
v 339.25 180420.07 728.90
v 330.25 180417.65 728.90
v 734.33 180026.74 728.90
v 811.31 179963.40 675.07
v 811.31 179963.40 728.90
v 800.39 179962.83 728.90
v 852.07 179923.97 673.44
v 852.07 179923.97 728.90
v 840.99 179923.56 728.90
v 174.34 179164.50 700.55
v 174.34 179164.50 728.90
v 173.49 179175.57 728.90
v 90.49 179233.54 703.90
v 90.49 179233.54 728.90
v 89.65 179244.59 728.90
v 79.52 179242.57 703.90
v -533.33 179747.14 683.72
v -533.33 179747.14 728.90
v 79.52 179242.57 728.90
v 78.69 179253.61 728.90
v -534.01 179758.07 728.90
v -866.90 179393.56 697.86
v -866.90 179393.56 728.90
v -867.51 179404.57 728.90
v -1554.27 179976.37 674.55
v -1554.27 179976.37 728.90
v -1554.51 179987.06 728.90
v -1564.15 179967.20 674.91
v -1564.15 179967.20 728.90
v -1564.38 179977.91 728.90
v -1624.51 179911.17 677.16
v -1624.51 179911.17 728.90
v -1624.65 179921.97 728.90
v -1847.23 179704.46 703.24
v -1847.23 179704.46 728.90
v -1847.01 179715.57 728.90
v -1863.72 179720.98 703.90
v -1863.72 179720.98 728.90
v -1863.50 179732.08 728.90
vt -499.0673 -0.6782
vt -500.0922 -0.7148
vt -500.0922 -0.5377
vt -499.0673 -0.5377
vt -499.1039 -0.5377
vt -500.1231 -0.5377
vt -504.1302 -0.6335
vt -504.1302 -0.5377
vt -504.1382 -0.5377
vt -504.6827 -0.6002
vt -504.6827 -0.5377
vt -504.6875 -0.5377
vt -499.2763 -0.6002
vt -499.2763 -0.5377
vt -499.3094 -0.5377
vt -548.8122 7.2015
vt -549.2734 7.2783
vt -549.2734 7.3408
vt -548.8122 7.3408
vt -548.8014 7.3408
vt -549.2593 7.3408
vt -542.9216 7.2783
vt -542.6930 7.2493
vt -542.6930 7.3408
vt -542.9216 7.3408
vt -542.9584 7.3408
vt -542.7314 7.3408
vt -544.0722 7.2301
vt -544.0722 7.3408
vt -544.1003 7.3408
vt -545.9601 7.2038
vt -545.9601 7.3408
vt -545.9740 7.3408
vt -547.8802 7.1772
vt -547.8802 7.3408
vt -547.8775 7.3408
vt -482.6930 -0.9970
vt -482.7070 -0.9972
vt -482.7070 -0.9247
vt -482.6930 -0.9247
vt -482.7315 -0.9247
vt -482.7454 -0.9247
vt -485.3802 -1.0333
vt -485.3802 -0.9247
vt -485.3978 -0.9247
vt -488.4346 -1.0744
vt -488.4346 -0.9247
vt -488.4286 -0.9247
vt -489.0649 -1.0633
vt -489.0649 -0.9247
vt -489.0539 -0.9247
vt -489.7451 -0.9872
vt -489.7451 -0.9247
vt -489.7275 -0.9247
vt -482.7695 -0.9872
vt -482.7695 -0.9247
vt -482.8068 -0.9247
vt -468.2981 -0.4353
vt -469.2615 -0.3583
vt -469.2615 -0.2958
vt -468.2981 -0.2958
vt -468.3240 -0.2958
vt -469.2775 -0.2958
vt -467.9333 -0.3583
vt -468.0197 -0.4576
vt -468.0197 -0.2958
vt -467.9333 -0.2958
vt -467.9607 -0.2958
vt -468.0466 -0.2958
vt -573.0032 9.2970
vt -573.5013 9.2203
vt -573.5013 9.3595
vt -573.0032 9.3595
vt -572.9755 9.3595
vt -573.4640 9.3595
vt -572.8802 9.2160
vt -572.8802 9.3595
vt -572.8472 9.3595
vt -570.4292 9.2970
vt -570.4292 9.3595
vt -570.4131 9.3595
vt -563.2740 9.2970
vt -563.1853 9.2934
vt -563.1853 9.3595
vt -563.2740 9.3595
vt -563.3106 9.3595
vt -563.2227 9.3595
vt -563.2740 9.2970
vt -563.2740 9.3595
vt -563.3101 9.3595
vt -575.0679 9.0190
vt -575.1144 9.0116
vt -575.1144 9.0815
vt -575.0679 9.0815
vt -575.0374 9.0815
vt -575.0832 9.0815
vt -575.5474 8.9423
vt -575.5474 9.0815
vt -575.5102 9.0815
vt -572.8802 8.9268
vt -572.8802 9.0815
vt -572.8653 9.0815
vt -570.1851 9.0190
vt -570.1851 9.0815
vt -570.1926 9.0815
vt -569.9073 9.0190
vt -569.3016 8.9878
vt -569.3016 9.0815
vt -569.9073 9.0815
vt -569.9171 9.0815
vt -569.3164 9.0815
vt -569.1900 9.0190
vt -569.1900 9.0815
vt -569.2064 9.0815
vt -454.0957 0.3920
vt -454.0863 0.3740
vt -454.0863 0.4545
vt -454.0957 0.4545
vt -454.1257 0.4545
vt -454.1165 0.4545
vt -454.1302 0.3759
vt -454.1302 0.4545
vt -454.1602 0.4545
vt -457.9004 0.3877
vt -457.9004 0.4545
vt -457.9175 0.4545
vt -457.9783 0.3904
vt -457.9783 0.4545
vt -457.9952 0.4545
vt -460.3802 0.3311
vt -460.3802 0.4545
vt -460.4000 0.4545
vt -460.5652 0.3339
vt -460.5652 0.4545
vt -460.5852 0.4545
vt -461.8011 0.3120
vt -461.8011 0.4545
vt -461.8156 0.4545
vt -464.1025 0.2713
vt -464.1025 0.4545
vt -464.1065 0.4545
vt -464.7014 0.3109
vt -464.7014 0.4545
vt -464.7027 0.4545
vt -464.9296 0.3920
vt -464.9296 0.4545
vt -464.9287 0.4545
vt -480.3817 7.1755
vt -482.5670 7.0937
vt -482.5670 7.2380
vt -480.3817 7.2380
vt -480.4211 7.2380
vt -482.5870 7.2380
vt -484.9096 7.0982
vt -484.9096 7.2380
vt -484.9090 7.2380
vt -485.3802 7.1555
vt -485.3802 7.2380
vt -485.3750 7.2380
vt -485.5034 7.1755
vt -485.5034 7.2380
vt -485.4970 7.2380
vt -503.5619 7.5738
vt -502.5351 7.4950
vt -502.5351 7.6363
vt -503.5619 7.6363
vt -503.5301 7.6363
vt -502.5125 7.6363
vt -500.8451 7.4970
vt -500.8451 7.6363
vt -500.8377 7.6363
vt -499.8890 7.4980
vt -499.8890 7.6363
vt -499.8902 7.6363
vt -499.0366 7.5331
vt -499.0366 7.6363
vt -499.0377 7.6363
vt -498.7391 7.5454
vt -498.7391 7.6363
vt -498.7402 7.6363
vt -498.4061 7.5457
vt -498.4061 7.6363
vt -498.4073 7.6363
vt -497.8802 7.5463
vt -497.8802 7.6363
vt -497.8813 7.6363
vt -497.4866 7.5467
vt -497.4866 7.6363
vt -497.4877 7.6363
vt -496.8297 7.5738
vt -496.8297 7.6363
vt -496.8420 7.6363
vt -511.6809 4.7938
vt -511.1885 4.7416
vt -511.1885 4.8563
vt -511.6809 4.8563
vt -511.6686 4.8563
vt -511.1790 4.8563
vt -510.3802 4.7288
vt -510.3802 4.8563
vt -510.3768 4.8563
vt -507.2270 4.6790
vt -507.2270 4.8563
vt -507.2478 4.8563
vt -504.8738 4.7173
vt -504.8738 4.8563
vt -504.9127 4.8563
vt -505.5166 4.7938
vt -505.5166 4.8563
vt -505.5473 4.8563
vt -539.6750 5.2905
vt -539.4759 5.2709
vt -539.4759 5.3530
vt -539.6750 5.3530
vt -539.6407 5.3530
vt -539.4415 5.3530
vt -540.7894 5.2905
vt -540.7894 5.3530
vt -540.7551 5.3530
vt -541.4313 5.2905
vt -540.3365 5.1813
vt -540.3365 5.3530
vt -541.4313 5.3530
vt -541.3970 5.3530
vt -540.3022 5.3530
vt -540.0123 5.2460
vt -540.0123 5.3530
vt -539.9779 5.3530
vt -539.7891 5.2905
vt -539.7891 5.3530
vt -539.7547 5.3530
vt -541.9899 5.2905
vt -543.8671 5.2336
vt -543.8671 5.3530
vt -541.9899 5.3530
vt -541.9555 5.3530
vt -543.8327 5.3530
vt -543.5794 5.2905
vt -543.5794 5.3530
vt -543.5472 5.3530
vt -526.9806 5.2905
vt -527.3266 5.2702
vt -527.3266 5.3530
vt -526.9806 5.3530
vt -527.0070 5.3530
vt -527.3514 5.3530
vt -528.2123 5.2182
vt -528.2123 5.3530
vt -528.2327 5.3530
vt -529.1302 5.2412
vt -529.1302 5.3530
vt -529.1507 5.3530
vt -533.1357 5.1813
vt -533.1357 5.3530
vt -533.1562 5.3530
vt -535.3802 5.2148
vt -535.3802 5.3530
vt -535.4007 5.3530
vt -535.4447 5.2158
vt -535.4447 5.3530
vt -535.4652 5.3530
vt -536.1993 5.2905
vt -536.1993 5.3530
vt -536.2198 5.3530
vt -496.0687 3.5870
vt -495.4201 3.5099
vt -495.4201 3.6495
vt -496.0687 3.6495
vt -496.0823 3.6495
vt -495.4477 3.6495
vt -495.4043 3.4832
vt -495.4043 3.6495
vt -495.4321 3.6495
vt -495.3411 3.5289
vt -495.3411 3.6495
vt -495.3697 3.6495
vt -495.3100 3.5514
vt -495.3100 3.6495
vt -495.3390 3.6495
vt -495.8977 3.5870
vt -495.8977 3.6495
vt -495.9268 3.6495
vt -450.2021 1.7597
vt -448.2065 1.6812
vt -448.2065 1.8222
vt -450.2021 1.8222
vt -450.2185 1.8222
vt -448.2310 1.8222
vt -447.8802 1.6877
vt -447.8802 1.8222
vt -447.9061 1.8222
vt -447.6798 1.6836
vt -447.6798 1.8222
vt -447.7064 1.8222
vt -447.4754 1.7514
vt -447.4754 1.8222
vt -447.5052 1.8222
vt -447.8576 1.7597
vt -447.8576 1.8222
vt -447.8874 1.8222
vt -447.9076 1.7597
vt -450.7012 1.7093
vt -450.7012 1.8222
vt -447.9076 1.8222
vt -447.9373 1.8222
vt -450.7302 1.8222
vt -450.6511 1.7447
vt -450.6511 1.8222
vt -450.6802 1.8222
vt -453.8266 1.6864
vt -453.8266 1.8222
vt -453.8539 1.8222
vt -453.8284 1.6873
vt -453.8284 1.8222
vt -453.8557 1.8222
vt -453.8392 1.6929
vt -453.8392 1.8222
vt -453.8665 1.8222
vt -453.8792 1.7581
vt -453.8792 1.8222
vt -453.9065 1.8222
vt -453.9618 1.7597
vt -453.9618 1.8222
vt -453.9889 1.8222
vn -0.3951 -0.9186 0.0000
vn 0.0000 -0.0000 1.0000
vn 0.9181 -0.3963 0.0000
vn -0.9633 0.2684 0.0000
vn 0.9632 -0.2688 0.0000
vn -0.2671 -0.9637 0.0000
vn -0.2685 -0.9633 0.0000
vn -0.2730 -0.9620 0.0000
vn -0.9620 0.2732 0.0000
vn 0.9618 -0.2738 0.0000
vn -0.8124 -0.5831 0.0000
vn 0.6521 -0.7581 0.0000
vn -0.9344 0.3561 0.0000
vn 0.3551 0.9348 0.0000
vn 0.9344 -0.3562 0.0000
vn -0.3543 -0.9351 0.0000
vn -0.9285 0.3712 0.0000
vn 0.3702 0.9289 0.0000
vn 0.9284 -0.3717 0.0000
vn 0.7823 -0.6229 0.0000
vn -0.2538 -0.9673 0.0000
vn -0.0443 -0.9990 0.0000
vn 0.0468 -0.9989 0.0000
vn -0.9998 -0.0174 0.0000
vn -0.0162 -0.9999 0.0000
vn -0.9999 0.0163 0.0000
vn 0.0288 0.9996 0.0000
vn 0.9996 -0.0285 0.0000
vn 0.0277 0.9996 0.0000
vn 0.9996 -0.0277 0.0000
vn -0.2378 0.9713 0.0000
vn 0.9710 0.2390 0.0000
vn 0.2376 -0.9714 0.0000
vn -0.5111 0.8595 0.0000
vn -0.8584 -0.5129 0.0000
vn -0.5140 0.8578 0.0000
vn -0.8533 -0.5214 0.0000
vn -0.5118 0.8591 0.0000
vn 0.5113 -0.8594 0.0000
vn -0.8586 -0.5126 0.0000
vn 0.5120 -0.8590 0.0000
vn 0.6869 0.7267 0.0000
vn 0.7249 -0.6888 0.0000
vn -0.6875 -0.7262 0.0000
vn 0.6953 0.7187 0.0000
vn 0.7461 -0.6658 0.0000
vn -0.6356 -0.7720 0.0000
vn 0.7274 -0.6862 0.0000
vn -0.6467 -0.7627 0.0000
vn 0.6803 -0.7329 0.0000
vn -0.7077 -0.7065 0.0000
f 1/1/1 3/3/1 2/2/1
f 1/1/1 4/4/1 3/3/1
f 5/5/2 6/6/2 3/3/2
f 5/5/2 3/3/2 4/4/2
f 2/2/1 8/8/1 7/7/1
f 2/2/1 3/3/1 8/8/1
f 6/6/2 9/9/2 8/8/2
f 6/6/2 8/8/2 3/3/2
f 7/7/1 11/11/1 10/10/1
f 7/7/1 8/8/1 11/11/1
f 9/9/2 12/12/2 11/11/2
f 9/9/2 11/11/2 8/8/2
f 13/13/3 4/4/3 1/1/3
f 13/13/3 14/14/3 4/4/3
f 15/15/2 5/5/2 4/4/2
f 15/15/2 4/4/2 14/14/2
f 16/16/4 18/18/4 17/17/4
f 16/16/4 19/19/4 18/18/4
f 20/20/2 21/21/2 18/18/2
f 20/20/2 18/18/2 19/19/2
f 22/22/5 24/24/5 23/23/5
f 22/22/5 25/25/5 24/24/5
f 26/26/2 27/27/2 24/24/2
f 26/26/2 24/24/2 25/25/2
f 23/23/6 29/29/6 28/28/6
f 23/23/6 24/24/6 29/29/6
f 27/27/2 30/30/2 29/29/2
f 27/27/2 29/29/2 24/24/2
f 28/28/6 32/32/6 31/31/6
f 28/28/6 29/29/6 32/32/6
f 30/30/2 33/33/2 32/32/2
f 30/30/2 32/32/2 29/29/2
f 31/31/7 35/35/7 34/34/7
f 31/31/7 32/32/7 35/35/7
f 33/33/2 36/36/2 35/35/2
f 33/33/2 35/35/2 32/32/2
f 34/34/7 19/19/7 16/16/7
f 34/34/7 35/35/7 19/19/7
f 36/36/2 20/20/2 19/19/2
f 36/36/2 19/19/2 35/35/2
f 37/37/8 39/39/8 38/38/8
f 37/37/8 40/40/8 39/39/8
f 41/41/2 42/42/2 39/39/2
f 41/41/2 39/39/2 40/40/2
f 38/38/8 44/44/8 43/43/8
f 38/38/8 39/39/8 44/44/8
f 42/42/2 45/45/2 44/44/2
f 42/42/2 44/44/2 39/39/2
f 43/43/8 47/47/8 46/46/8
f 43/43/8 44/44/8 47/47/8
f 45/45/2 48/48/2 47/47/2
f 45/45/2 47/47/2 44/44/2
f 46/46/8 50/50/8 49/49/8
f 46/46/8 47/47/8 50/50/8
f 48/48/2 51/51/2 50/50/2
f 48/48/2 50/50/2 47/47/2
f 49/49/9 53/53/9 52/52/9
f 49/49/9 50/50/9 53/53/9
f 51/51/2 54/54/2 53/53/2
f 51/51/2 53/53/2 50/50/2
f 55/55/10 40/40/10 37/37/10
f 55/55/10 56/56/10 40/40/10
f 57/57/2 41/41/2 40/40/2
f 57/57/2 40/40/2 56/56/2
f 58/58/11 60/60/11 59/59/11
f 58/58/11 61/61/11 60/60/11
f 62/62/2 63/63/2 60/60/2
f 62/62/2 60/60/2 61/61/2
f 64/64/12 66/66/12 65/65/12
f 64/64/12 67/67/12 66/66/12
f 68/68/2 69/69/2 66/66/2
f 68/68/2 66/66/2 67/67/2
f 65/65/12 61/61/12 58/58/12
f 65/65/12 66/66/12 61/61/12
f 69/69/2 62/62/2 61/61/2
f 69/69/2 61/61/2 66/66/2
f 70/70/13 72/72/13 71/71/13
f 70/70/13 73/73/13 72/72/13
f 74/74/2 75/75/2 72/72/2
f 74/74/2 72/72/2 73/73/2
f 71/71/14 77/77/14 76/76/14
f 71/71/14 72/72/14 77/77/14
f 75/75/2 78/78/2 77/77/2
f 75/75/2 77/77/2 72/72/2
f 76/76/14 80/80/14 79/79/14
f 76/76/14 77/77/14 80/80/14
f 78/78/2 81/81/2 80/80/2
f 78/78/2 80/80/2 77/77/2
f 82/82/15 84/84/15 83/83/15
f 82/82/15 85/85/15 84/84/15
f 86/86/2 87/87/2 84/84/2
f 86/86/2 84/84/2 85/85/2
f 83/83/16 89/89/16 88/88/16
f 83/83/16 84/84/16 89/89/16
f 87/87/2 90/90/2 89/89/2
f 87/87/2 89/89/2 84/84/2
f 91/91/17 93/93/17 92/92/17
f 91/91/17 94/94/17 93/93/17
f 95/95/2 96/96/2 93/93/2
f 95/95/2 93/93/2 94/94/2
f 92/92/17 98/98/17 97/97/17
f 92/92/17 93/93/17 98/98/17
f 96/96/2 99/99/2 98/98/2
f 96/96/2 98/98/2 93/93/2
f 97/97/18 101/101/18 100/100/18
f 97/97/18 98/98/18 101/101/18
f 99/99/2 102/102/2 101/101/2
f 99/99/2 101/101/2 98/98/2
f 100/100/18 104/104/18 103/103/18
f 100/100/18 101/101/18 104/104/18
f 102/102/2 105/105/2 104/104/2
f 102/102/2 104/104/2 101/101/2
f 106/106/18 108/108/18 107/107/18
f 106/106/18 109/109/18 108/108/18
f 110/110/2 111/111/2 108/108/2
f 110/110/2 108/108/2 109/109/2
f 107/107/19 113/113/19 112/112/19
f 107/107/19 108/108/19 113/113/19
f 111/111/2 114/114/2 113/113/2
f 111/111/2 113/113/2 108/108/2
f 115/115/20 117/117/20 116/116/20
f 115/115/20 118/118/20 117/117/20
f 119/119/2 120/120/2 117/117/2
f 119/119/2 117/117/2 118/118/2
f 116/116/21 122/122/21 121/121/21
f 116/116/21 117/117/21 122/122/21
f 120/120/2 123/123/2 122/122/2
f 120/120/2 122/122/2 117/117/2
f 121/121/21 125/125/21 124/124/21
f 121/121/21 122/122/21 125/125/21
f 123/123/2 126/126/2 125/125/2
f 123/123/2 125/125/2 122/122/2
f 124/124/21 128/128/21 127/127/21
f 124/124/21 125/125/21 128/128/21
f 126/126/2 129/129/2 128/128/2
f 126/126/2 128/128/2 125/125/2
f 127/127/22 131/131/22 130/130/22
f 127/127/22 128/128/22 131/131/22
f 129/129/2 132/132/2 131/131/2
f 129/129/2 131/131/2 128/128/2
f 130/130/22 134/134/22 133/133/22
f 130/130/22 131/131/22 134/134/22
f 132/132/2 135/135/2 134/134/2
f 132/132/2 134/134/2 131/131/2
f 133/133/23 137/137/23 136/136/23
f 133/133/23 134/134/23 137/137/23
f 135/135/2 138/138/2 137/137/2
f 135/135/2 137/137/2 134/134/2
f 136/136/23 140/140/23 139/139/23
f 136/136/23 137/137/23 140/140/23
f 138/138/2 141/141/2 140/140/2
f 138/138/2 140/140/2 137/137/2
f 139/139/23 143/143/23 142/142/23
f 139/139/23 140/140/23 143/143/23
f 141/141/2 144/144/2 143/143/2
f 141/141/2 143/143/2 140/140/2
f 142/142/24 146/146/24 145/145/24
f 142/142/24 143/143/24 146/146/24
f 144/144/2 147/147/2 146/146/2
f 144/144/2 146/146/2 143/143/2
f 148/148/25 150/150/25 149/149/25
f 148/148/25 151/151/25 150/150/25
f 152/152/2 153/153/2 150/150/2
f 152/152/2 150/150/2 151/151/2
f 149/149/25 155/155/25 154/154/25
f 149/149/25 150/150/25 155/155/25
f 153/153/2 156/156/2 155/155/2
f 153/153/2 155/155/2 150/150/2
f 154/154/26 158/158/26 157/157/26
f 154/154/26 155/155/26 158/158/26
f 156/156/2 159/159/2 158/158/2
f 156/156/2 158/158/2 155/155/2
f 157/157/26 161/161/26 160/160/26
f 157/157/26 158/158/26 161/161/26
f 159/159/2 162/162/2 161/161/2
f 159/159/2 161/161/2 158/158/2
f 163/163/27 165/165/27 164/164/27
f 163/163/27 166/166/27 165/165/27
f 167/167/2 168/168/2 165/165/2
f 167/167/2 165/165/2 166/166/2
f 164/164/27 170/170/27 169/169/27
f 164/164/27 165/165/27 170/170/27
f 168/168/2 171/171/2 170/170/2
f 168/168/2 170/170/2 165/165/2
f 169/169/27 173/173/27 172/172/27
f 169/169/27 170/170/27 173/173/27
f 171/171/2 174/174/2 173/173/2
f 171/171/2 173/173/2 170/170/2
f 172/172/28 176/176/28 175/175/28
f 172/172/28 173/173/28 176/176/28
f 174/174/2 177/177/2 176/176/2
f 174/174/2 176/176/2 173/173/2
f 175/175/28 179/179/28 178/178/28
f 175/175/28 176/176/28 179/179/28
f 177/177/2 180/180/2 179/179/2
f 177/177/2 179/179/2 176/176/2
f 178/178/29 182/182/29 181/181/29
f 178/178/29 179/179/29 182/182/29
f 180/180/2 183/183/2 182/182/2
f 180/180/2 182/182/2 179/179/2
f 181/181/29 185/185/29 184/184/29
f 181/181/29 182/182/29 185/185/29
f 183/183/2 186/186/2 185/185/2
f 183/183/2 185/185/2 182/182/2
f 184/184/29 188/188/29 187/187/29
f 184/184/29 185/185/29 188/188/29
f 186/186/2 189/189/2 188/188/2
f 186/186/2 188/188/2 185/185/2
f 187/187/30 191/191/30 190/190/30
f 187/187/30 188/188/30 191/191/30
f 189/189/2 192/192/2 191/191/2
f 189/189/2 191/191/2 188/188/2
f 193/193/31 195/195/31 194/194/31
f 193/193/31 196/196/31 195/195/31
f 197/197/2 198/198/2 195/195/2
f 197/197/2 195/195/2 196/196/2
f 194/194/32 200/200/32 199/199/32
f 194/194/32 195/195/32 200/200/32
f 198/198/2 201/201/2 200/200/2
f 198/198/2 200/200/2 195/195/2
f 199/199/32 203/203/32 202/202/32
f 199/199/32 200/200/32 203/203/32
f 201/201/2 204/204/2 203/203/2
f 201/201/2 203/203/2 200/200/2
f 202/202/32 206/206/32 205/205/32
f 202/202/32 203/203/32 206/206/32
f 204/204/2 207/207/2 206/206/2
f 204/204/2 206/206/2 203/203/2
f 205/205/33 209/209/33 208/208/33
f 205/205/33 206/206/33 209/209/33
f 207/207/2 210/210/2 209/209/2
f 207/207/2 209/209/2 206/206/2
f 211/211/34 213/213/34 212/212/34
f 211/211/34 214/214/34 213/213/34
f 215/215/2 216/216/2 213/213/2
f 215/215/2 213/213/2 214/214/2
f 212/212/35 218/218/35 217/217/35
f 212/212/35 213/213/35 218/218/35
f 216/216/2 219/219/2 218/218/2
f 216/216/2 218/218/2 213/213/2
f 220/220/36 222/222/36 221/221/36
f 220/220/36 223/223/36 222/222/36
f 224/224/2 225/225/2 222/222/2
f 224/224/2 222/222/2 223/223/2
f 221/221/36 227/227/36 226/226/36
f 221/221/36 222/222/36 227/227/36
f 225/225/2 228/228/2 227/227/2
f 225/225/2 227/227/2 222/222/2
f 226/226/36 230/230/36 229/229/36
f 226/226/36 227/227/36 230/230/36
f 228/228/2 231/231/2 230/230/2
f 228/228/2 230/230/2 227/227/2
f 232/232/37 234/234/37 233/233/37
f 232/232/37 235/235/37 234/234/37
f 236/236/2 237/237/2 234/234/2
f 236/236/2 234/234/2 235/235/2
f 233/233/38 239/239/38 238/238/38
f 233/233/38 234/234/38 239/239/38
f 237/237/2 240/240/2 239/239/2
f 237/237/2 239/239/2 234/234/2
f 241/241/39 243/243/39 242/242/39
f 241/241/39 244/244/39 243/243/39
f 245/245/2 246/246/2 243/243/2
f 245/245/2 243/243/2 244/244/2
f 242/242/39 248/248/39 247/247/39
f 242/242/39 243/243/39 248/248/39
f 246/246/2 249/249/2 248/248/2
f 246/246/2 248/248/2 243/243/2
f 247/247/40 251/251/40 250/250/40
f 247/247/40 248/248/40 251/251/40
f 249/249/2 252/252/2 251/251/2
f 249/249/2 251/251/2 248/248/2
f 250/250/40 254/254/40 253/253/40
f 250/250/40 251/251/40 254/254/40
f 252/252/2 255/255/2 254/254/2
f 252/252/2 254/254/2 251/251/2
f 253/253/40 257/257/40 256/256/40
f 253/253/40 254/254/40 257/257/40
f 255/255/2 258/258/2 257/257/2
f 255/255/2 257/257/2 254/254/2
f 256/256/40 260/260/40 259/259/40
f 256/256/40 257/257/40 260/260/40
f 258/258/2 261/261/2 260/260/2
f 258/258/2 260/260/2 257/257/2
f 259/259/41 263/263/41 262/262/41
f 259/259/41 260/260/41 263/263/41
f 261/261/2 264/264/2 263/263/2
f 261/261/2 263/263/2 260/260/2
f 265/265/42 267/267/42 266/266/42
f 265/265/42 268/268/42 267/267/42
f 269/269/2 270/270/2 267/267/2
f 269/269/2 267/267/2 268/268/2
f 266/266/43 272/272/43 271/271/43
f 266/266/43 267/267/43 272/272/43
f 270/270/2 273/273/2 272/272/2
f 270/270/2 272/272/2 267/267/2
f 271/271/43 275/275/43 274/274/43
f 271/271/43 272/272/43 275/275/43
f 273/273/2 276/276/2 275/275/2
f 273/273/2 275/275/2 272/272/2
f 274/274/43 278/278/43 277/277/43
f 274/274/43 275/275/43 278/278/43
f 276/276/2 279/279/2 278/278/2
f 276/276/2 278/278/2 275/275/2
f 277/277/44 281/281/44 280/280/44
f 277/277/44 278/278/44 281/281/44
f 279/279/2 282/282/2 281/281/2
f 279/279/2 281/281/2 278/278/2
f 283/283/45 285/285/45 284/284/45
f 283/283/45 286/286/45 285/285/45
f 287/287/2 288/288/2 285/285/2
f 287/287/2 285/285/2 286/286/2
f 284/284/45 290/290/45 289/289/45
f 284/284/45 285/285/45 290/290/45
f 288/288/2 291/291/2 290/290/2
f 288/288/2 290/290/2 285/285/2
f 289/289/45 293/293/45 292/292/45
f 289/289/45 290/290/45 293/293/45
f 291/291/2 294/294/2 293/293/2
f 291/291/2 293/293/2 290/290/2
f 292/292/46 296/296/46 295/295/46
f 292/292/46 293/293/46 296/296/46
f 294/294/2 297/297/2 296/296/2
f 294/294/2 296/296/2 293/293/2
f 295/295/47 299/299/47 298/298/47
f 295/295/47 296/296/47 299/299/47
f 297/297/2 300/300/2 299/299/2
f 297/297/2 299/299/2 296/296/2
f 301/301/47 303/303/47 302/302/47
f 301/301/47 304/304/47 303/303/47
f 305/305/2 306/306/2 303/303/2
f 305/305/2 303/303/2 304/304/2
f 302/302/48 308/308/48 307/307/48
f 302/302/48 303/303/48 308/308/48
f 306/306/2 309/309/2 308/308/2
f 306/306/2 308/308/2 303/303/2
f 307/307/49 311/311/49 310/310/49
f 307/307/49 308/308/49 311/311/49
f 309/309/2 312/312/2 311/311/2
f 309/309/2 311/311/2 308/308/2
f 310/310/50 314/314/50 313/313/50
f 310/310/50 311/311/50 314/314/50
f 312/312/2 315/315/2 314/314/2
f 312/312/2 314/314/2 311/311/2
f 313/313/50 317/317/50 316/316/50
f 313/313/50 314/314/50 317/317/50
f 315/315/2 318/318/2 317/317/2
f 315/315/2 317/317/2 314/314/2
f 316/316/50 320/320/50 319/319/50
f 316/316/50 317/317/50 320/320/50
f 318/318/2 321/321/2 320/320/2
f 318/318/2 320/320/2 317/317/2
f 319/319/51 323/323/51 322/322/51
f 319/319/51 320/320/51 323/323/51
f 321/321/2 324/324/2 323/323/2
f 321/321/2 323/323/2 320/320/2
