# Unreal legacy OBJ adapter: canonical vertices are UE cm; this file is written with Y reflected and triangle winding reversed. One object, no g groups, so the importer creates exactly one material slot.
# OldCityFoundationV2 foundations (plinth + stepped footing); generator 463404ba754c804f514fe655944ece4eb51a92e1273fec326ad5c2ebfbb18f24
# AUTHORED detail in the style of Old City stone foundations, not survey
o SM_OldCityFoundationV2_Kept_P000_N003
s off
v -1069.14 139574.25 -1105.29
v -1031.86 140027.57 -1103.79
v -1031.86 140027.57 -1054.40
v -1069.14 139574.25 -1054.40
v -1060.51 139581.57 -1054.40
v -1023.51 140031.45 -1054.40
v -978.74 140673.34 -1127.50
v -978.74 140673.34 -1054.40
v -970.80 140672.33 -1054.40
v -896.33 141675.18 -1090.72
v -896.33 141675.18 -1054.40
v -889.01 141666.57 -1054.40
v -761.29 141664.35 -1096.56
v -761.29 141664.35 -1054.40
v -753.97 141655.73 -1054.40
v -478.85 141641.69 -1108.76
v -478.85 141641.69 -1054.40
v -471.51 141633.07 -1054.40
v -430.84 142236.19 -1086.90
v -430.84 142236.19 -1054.40
v -423.51 142227.57 -1054.40
v 507.99 142160.08 -1127.50
v 507.99 142160.08 -1054.40
v 508.59 142152.00 -1054.40
v 875.49 142130.28 -1111.61
v 875.49 142130.28 -1054.40
v 873.44 142122.42 -1054.40
v 1072.79 142114.29 -1079.40
v 1072.79 142114.29 -1054.40
v 1069.33 142106.54 -1054.40
v -422.01 139521.61 -1079.40
v -422.01 139521.61 -1054.40
v -417.29 139529.26 -1054.40
v -156.96 131651.90 -1385.01
v -214.50 131818.20 -1353.80
v -214.50 131818.20 -1328.80
v -156.96 131651.90 -1328.80
v -152.01 131662.06 -1328.80
v -208.77 131826.10 -1328.80
v 1473.23 132213.76 -1353.80
v 1262.07 132140.98 -1373.89
v 1262.07 132140.98 -1328.80
v 1473.23 132213.76 -1328.80
v 1464.34 132219.15 -1328.80
v 1254.98 132146.99 -1328.80
v 875.49 132007.74 -1410.67
v 875.49 132007.74 -1328.80
v 871.67 132014.88 -1328.80
v 82.26 131734.35 -1390.96
v 82.26 131734.35 -1328.80
v 85.18 131743.81 -1328.80
v 907.62 130721.41 -1615.20
v 950.47 130519.41 -1645.81
v 950.47 130519.41 -1590.20
v 907.62 130721.41 -1590.20
v 898.14 130727.57 -1590.20
v 940.99 130525.57 -1590.20
v 875.49 130503.43 -1651.36
v 875.49 130503.43 -1590.20
v 867.20 130509.84 -1590.20
v 483.23 130419.83 -1633.36
v 483.23 130419.83 -1590.20
v 481.24 130427.58 -1590.20
v 87.63 130335.52 -1615.20
v 87.63 130335.52 -1590.20
v 91.99 130344.62 -1590.20
v 377.87 121400.82 -1827.50
v 875.49 121223.27 -1827.50
v 875.49 121223.27 -1800.00
v 377.87 121400.82 -1800.00
v 379.99 121391.57 -1800.00
v 872.48 121215.85 -1800.00
v 1095.75 121144.68 -1827.50
v 1095.75 121144.68 -1800.00
v 1090.49 121138.07 -1800.00
v 1445.42 120597.50 -1827.50
v 1445.42 120597.50 -1800.00
v 1438.11 120594.10 -1800.00
v 1716.39 120173.48 -1855.30
v 1716.39 120173.48 -1800.00
v 1707.49 120172.56 -1800.00
v 1661.10 120027.57 -1858.92
v 1661.10 120027.57 -1800.00
v 1652.70 120027.99 -1800.00
v 1445.22 119457.83 -1850.29
v 1445.22 119457.83 -1800.00
v 1438.82 119463.52 -1800.00
v 1350.01 119206.57 -1846.48
v 1350.01 119206.57 -1800.00
v 1344.49 119214.57 -1800.00
v 875.49 119206.57 -1827.50
v 875.49 119206.57 -1800.00
v 869.90 119214.57 -1800.00
v 812.99 119206.57 -1825.00
v 812.99 119206.57 -1800.00
v 807.39 119214.57 -1800.00
v -340.88 119965.07 -1825.00
v -332.38 120027.57 -1827.50
v -332.38 120027.57 -1800.00
v -340.88 119965.07 -1800.00
v -332.72 119965.66 -1800.00
v -324.27 120027.83 -1800.00
v -229.58 120783.78 -1827.50
v -229.58 120783.78 -1800.00
v -222.01 120780.07 -1800.00
v -56.52 120959.57 -1827.50
v -56.52 120959.57 -1800.00
v -50.51 120954.28 -1800.00
v 2538.34 106759.35 -29.80
v 2703.45 107180.43 -59.85
v 2703.45 107180.43 -4.80
v 2538.34 106759.35 -4.80
v 2544.77 106753.83 -4.80
v 2707.99 107170.07 -4.80
v 2937.15 107089.23 -74.90
v 2937.15 107089.23 -4.80
v 2937.05 107080.68 -4.80
v 3375.49 106918.17 -54.37
v 3375.49 106918.17 -4.80
v 3366.71 106913.01 -4.80
v 3456.36 106886.61 -53.82
v 3456.36 106886.61 -4.80
v 3445.99 106882.07 -4.80
v 3386.86 106709.61 -29.80
v 3386.86 106709.61 -4.80
v 3376.49 106705.07 -4.80
v 2915.96 120620.54 -1885.40
v 3375.49 120499.06 -1908.64
v 3375.49 120499.06 -1860.40
v 2915.96 120620.54 -1860.40
v 2916.28 120612.18 -1860.40
v 3372.11 120491.68 -1860.40
v 3748.40 120400.49 -1912.58
v 3748.40 120400.49 -1860.40
v 3742.02 120393.90 -1860.40
v 3991.83 120336.14 -1915.16
v 3991.83 120336.14 -1860.40
v 3983.49 120330.07 -1860.40
v 3974.68 120027.57 -1927.50
v 3974.68 120027.57 -1860.40
v 3966.38 120022.40 -1860.40
v 3943.11 119459.94 -1904.79
v 3943.11 119459.94 -1860.40
v 3934.90 119456.44 -1860.40
v 3916.15 118975.07 -1885.40
v 3916.15 118975.07 -1860.40
v 3908.02 118972.99 -1860.40
v 5985.19 140867.78 -164.00
v 6247.10 142155.96 -193.72
v 6247.10 142155.96 -139.00
v 5985.19 140867.78 -139.00
v 5994.31 140872.47 -139.00
v 6254.39 142151.65 -139.00
v 6322.65 142527.57 -202.29
v 6322.65 142527.57 -139.00
v 6329.41 142520.67 -139.00
v 6396.24 142889.50 -196.17
v 6396.24 142889.50 -139.00
v 6402.49 142880.07 -139.00
v 6507.89 142866.88 -164.00
v 6507.89 142866.88 -139.00
v 6512.77 142857.73 -139.00
v 8121.41 112426.71 -1701.20
v 8180.26 112527.57 -1719.69
v 8180.26 112527.57 -1676.20
v 8121.41 112426.71 -1676.20
v 8125.87 112418.48 -1676.20
v 8183.24 112516.80 -1676.20
v 8188.21 112541.18 -1721.10
v 8188.21 112541.18 -1676.20
v 8190.99 112530.07 -1676.20
v 8210.27 112527.57 -1720.89
v 8210.27 112527.57 -1676.20
v 8212.96 112516.50 -1676.20
v 8312.43 112464.51 -1714.89
v 8312.43 112464.51 -1676.20
v 8314.75 112453.68 -1676.20
v 8375.49 112425.59 -1719.34
v 8375.49 112425.59 -1676.20
v 8377.57 112414.91 -1676.20
v 8641.87 112261.18 -1716.84
v 8641.87 112261.18 -1676.20
v 8642.98 112251.09 -1676.20
v 9858.31 111510.39 -1705.44
v 9858.31 111510.39 -1676.20
v 9854.94 111503.07 -1676.20
v 10335.61 111215.80 -1731.84
v 10335.61 111215.80 -1676.20
v 10330.49 111209.56 -1676.20
v 10875.49 110633.25 -1751.73
v 10875.49 110633.25 -1676.20
v 10869.62 110627.81 -1676.20
v 11166.81 110318.90 -1762.46
v 11166.81 110318.90 -1676.20
v 11160.55 110313.88 -1676.20
v 11436.80 110027.57 -1749.95
v 11436.80 110027.57 -1676.20
v 11430.17 110022.95 -1676.20
v 11659.44 109787.32 -1701.20
v 11659.44 109787.32 -1676.20
v 11652.51 109783.04 -1676.20
v 8661.46 103677.94 -111.30
v 8759.21 103780.37 -139.23
v 8759.21 103780.37 -86.30
v 8661.46 103677.94 -86.30
v 8662.65 103667.60 -86.30
v 8759.49 103769.07 -86.30
v 9205.02 103357.10 -159.77
v 9205.02 103357.10 -86.30
v 9200.02 103350.81 -86.30
v 9739.80 102849.35 -142.70
v 9739.80 102849.35 -86.30
v 9728.49 102849.06 -86.30
v 9630.77 102734.85 -111.30
v 9630.77 102734.85 -86.30
v 9620.47 102735.64 -86.30
v 10745.07 135316.42 581.08
v 9882.71 136534.79 554.81
v 9882.71 136534.79 637.80
v 10745.07 135316.42 637.80
v 10746.99 135327.57 637.80
v 9890.97 136536.97 637.80
v 9526.00 137038.76 612.80
v 9526.00 137038.76 637.80
v 9536.88 137037.23 637.80
v 10856.49 135395.06 612.80
v 10856.49 135395.06 637.80
v 10856.96 135405.17 637.80
v 12234.82 117935.07 -2094.90
v 12152.83 117527.57 -2127.50
v 12152.83 117527.57 -2069.90
v 12234.82 117935.07 -2069.90
v 12227.68 117940.18 -2069.90
v 12146.42 117536.31 -2069.90
v 12137.75 117452.65 -2124.50
v 12137.75 117452.65 -2069.90
v 12131.49 117462.06 -2069.90
v 11762.94 117527.57 -2127.50
v 11762.94 117527.57 -2069.90
v 11756.67 117536.98 -2069.90
v 11409.75 117598.16 -2121.85
v 11409.75 117598.16 -2069.90
v 11403.49 117607.57 -2069.90
v 11395.57 117527.57 -2127.50
v 11395.57 117527.57 -2069.90
v 11389.30 117536.98 -2069.90
v 11308.58 117094.48 -2110.18
v 11308.58 117094.48 -2069.90
v 11302.31 117103.89 -2069.90
v 11231.86 116712.57 -2094.90
v 11231.86 116712.57 -2069.90
v 11225.59 116721.98 -2069.90
v 11086.96 116712.57 -2094.90
v 10875.49 116754.94 -2096.59
v 10875.49 116754.94 -2069.90
v 11086.96 116712.57 -2069.90
v 11082.27 116721.67 -2069.90
v 10873.19 116763.56 -2069.90
v 10822.50 116765.56 -2094.90
v 10822.50 116765.56 -2069.90
v 10820.80 116774.06 -2069.90
v 15672.50 118069.58 -2267.90
v 15630.92 117772.13 -2288.37
v 15630.92 117772.13 -2242.90
v 15672.50 118069.58 -2242.90
v 15664.43 118069.63 -2242.90
v 15623.19 117774.60 -2242.90
v 15596.74 117527.57 -2305.20
v 15596.74 117527.57 -2242.90
v 15589.28 117532.02 -2242.90
v 15551.45 117203.53 -2301.58
v 15551.45 117203.53 -2242.90
v 15544.36 117210.62 -2242.90
v 15512.76 116926.73 -2298.48
v 15512.76 116926.73 -2242.90
v 15505.99 116936.06 -2242.90
v 15310.68 116962.77 -2282.32
v 15310.68 116962.77 -2242.90
v 15306.17 116971.70 -2242.90
v 15130.49 116994.90 -2267.90
v 15130.49 116994.90 -2242.90
v 15127.99 117003.47 -2242.90
v 17335.57 117815.96 -2409.70
v 17315.12 117527.57 -2442.67
v 17315.12 117527.57 -2384.70
v 17335.57 117815.96 -2384.70
v 17327.73 117818.44 -2384.70
v 17307.45 117532.54 -2384.70
v 17285.90 117115.52 -2440.33
v 17285.90 117115.52 -2384.70
v 17278.49 117124.06 -2384.70
v 16902.99 117142.62 -2409.70
v 16902.99 117142.62 -2384.70
v 16900.27 117150.83 -2384.70
v 22398.76 101579.38 -2148.22
v 22394.83 101546.91 -2149.05
v 22394.83 101546.91 -2092.30
v 22398.76 101579.38 -2092.30
v 22390.49 101577.57 -2092.30
v 22386.57 101545.27 -2092.30
v 22336.65 101066.40 -2144.39
v 22336.65 101066.40 -2092.30
v 22328.70 101067.29 -2092.30
v 22219.82 100101.61 -2135.05
v 22219.82 100101.61 -2092.30
v 22212.49 100107.57 -2092.30
v 22001.45 100027.57 -2117.58
v 22001.45 100027.57 -2092.30
v 21996.35 100034.28 -2092.30
v 21997.99 100026.39 -2117.30
v 21997.99 100026.39 -2092.30
v 21992.91 100033.12 -2092.30
v 22231.54 101850.74 -2117.30
v 22231.54 101850.74 -2092.30
v 22224.12 101847.53 -2092.30
v 24342.63 120432.21 -2572.50
v 24682.95 120433.60 -2599.61
v 24682.95 120433.60 -2547.50
v 24342.63 120432.21 -2547.50
v 24338.05 120424.19 -2547.50
v 24674.99 120425.57 -2547.50
v 24684.61 120027.57 -2632.23
v 24684.61 120027.57 -2547.50
v 24676.63 120022.30 -2547.50
v 24689.44 118841.52 -2632.62
v 24689.44 118841.52 -2547.50
v 24681.43 118844.34 -2547.50
v 24689.96 118713.09 -2627.50
v 24689.96 118713.09 -2547.50
v 24681.95 118716.78 -2547.50
v 24692.52 118086.11 -2602.52
v 24692.52 118086.11 -2547.50
v 24684.49 118094.07 -2547.50
v 23945.00 118083.05 -2572.50
v 23945.00 118083.05 -2547.50
v 23944.41 118091.05 -2547.50
v 26694.71 124637.96 -2325.90
v 26705.71 124254.29 -2356.15
v 26705.71 124254.29 -2300.90
v 26694.71 124637.96 -2300.90
v 26686.56 124643.14 -2300.90
v 26697.49 124262.06 -2300.90
v 26650.32 124252.73 -2358.49
v 26650.32 124252.73 -2300.90
v 26642.51 124260.51 -2300.90
v 25875.49 124230.91 -2391.23
v 25875.49 124230.91 -2300.90
v 25873.45 124238.86 -2300.90
v 25055.75 124207.83 -2327.50
v 25055.75 124207.83 -2300.90
v 25059.81 124215.95 -2300.90
v 25042.03 124207.44 -2325.90
v 25042.03 124207.44 -2300.90
v 25046.20 124215.56 -2300.90
v 26942.75 122688.40 -2508.20
v 26947.52 122527.57 -2527.50
v 26947.52 122527.57 -2483.20
v 26942.75 122688.40 -2483.20
v 26934.62 122692.79 -2483.20
v 26939.34 122533.75 -2483.20
v 26951.72 122386.31 -2538.80
v 26951.72 122386.31 -2483.20
v 26943.49 122394.07 -2483.20
v 26043.48 122359.57 -2540.94
v 26043.48 122359.57 -2483.20
v 26041.59 122367.52 -2483.20
v 25875.49 122354.63 -2541.34
v 25875.49 122354.63 -2483.20
v 25874.76 122362.61 -2483.20
v 25697.30 122349.38 -2527.50
v 25697.30 122349.38 -2483.20
v 25697.82 122357.40 -2483.20
v 25448.73 122342.06 -2508.20
v 25448.73 122342.06 -2483.20
v 25450.99 122350.13 -2483.20
v 30047.37 132018.70 -724.09
v 30042.70 132117.81 -692.00
v 30042.70 132117.81 -667.00
v 30047.37 132018.70 -667.00
v 30054.99 132027.07 -667.00
v 30050.38 132124.72 -667.00
v 32141.96 132116.29 -692.00
v 31324.83 132078.22 -735.34
v 31324.83 132078.22 -667.00
v 32141.96 132116.29 -667.00
v 32138.98 132124.16 -667.00
v 31325.99 132086.28 -667.00
v 30875.49 132057.28 -759.18
v 30875.49 132057.28 -667.00
v 30878.91 132065.45 -667.00
v 30382.22 132034.30 -745.88
v 30382.22 132034.30 -667.00
v 30388.14 132042.59 -667.00
v 31659.22 124396.57 -2303.22
v 31687.23 124555.90 -2284.10
v 31687.23 124555.90 -2259.10
v 31659.22 124396.57 -2259.10
v 31668.49 124403.07 -2259.10
v 31696.24 124560.93 -2259.10
v 32957.20 124529.21 -2284.10
v 32895.47 124179.30 -2314.56
v 32895.47 124179.30 -2259.10
v 32957.20 124529.21 -2259.10
v 32950.14 124535.25 -2259.10
v 32888.99 124188.57 -2259.10
v 32582.27 124234.35 -2322.69
v 32582.27 124234.35 -2259.10
v 32579.77 124242.91 -2259.10
v 34650.92 148509.03 1804.07
v 34471.46 148623.54 1791.70
v 34471.46 148623.54 1849.20
v 34650.92 148509.03 1849.20
v 34648.49 148520.07 1849.20
v 34470.73 148633.50 1849.20
v 33375.49 149322.89 1787.94
v 33375.49 149322.89 1849.20
v 33385.13 149326.22 1849.20
v 33225.42 149418.64 1793.43
v 33225.42 149418.64 1849.20
v 33236.49 149421.07 1849.20
v 33360.87 149629.94 1824.20
v 33360.87 149629.94 1849.20
v 33370.64 149630.36 1849.20
v 34733.10 148637.39 1824.20
v 34733.10 148637.39 1849.20
v 34729.89 148647.21 1849.20
v 33794.28 129178.77 -1379.10
v 33375.49 129307.53 -1413.90
v 33375.49 129307.53 -1354.10
v 33794.28 129178.77 -1354.10
v 33800.25 129185.31 -1354.10
v 33384.63 129313.08 -1354.10
v 33262.48 129342.27 -1409.74
v 33262.48 129342.27 -1354.10
v 33272.49 129347.56 -1354.10
v 33341.38 129597.57 -1379.10
v 33341.38 129597.57 -1354.10
v 33350.52 129600.05 -1354.10
v 35540.08 137972.29 381.25
v 34633.94 138786.02 373.85
v 34633.94 138786.02 437.10
v 35540.08 137972.29 437.10
v 35539.49 137983.57 437.10
v 34640.74 138790.67 437.10
v 34468.07 138934.98 385.09
v 34468.07 138934.98 437.10
v 34476.22 138938.41 437.10
v 34081.68 139281.97 411.28
v 34081.68 139281.97 437.10
v 34092.99 139282.57 437.10
v 34086.43 139287.25 412.10
v 34086.43 139287.25 437.10
v 34097.68 139287.78 437.10
v 35723.00 138175.05 412.10
v 35723.00 138175.05 437.10
v 35720.74 138184.49 437.10
v 35585.95 130872.75 -859.40
v 35577.87 130849.87 -865.86
v 35577.87 130849.87 -834.40
v 35585.95 130872.75 -834.40
v 35581.00 130882.79 -834.40
v 35572.99 130860.06 -834.40
v 34769.18 131133.87 -894.74
v 34769.18 131133.87 -834.40
v 34774.70 131140.41 -834.40
v 34556.49 131208.57 -902.34
v 34556.49 131208.57 -834.40
v 34564.75 131214.15 -834.40
v 34405.28 131261.67 -891.39
v 34405.28 131261.67 -834.40
v 34415.49 131266.57 -834.40
v 34439.00 131357.44 -859.40
v 34439.00 131357.44 -834.40
v 34448.69 131360.85 -834.40
v 35727.66 125975.26 -1755.70
v 34739.56 126391.64 -1791.00
v 34739.56 126391.64 -1730.70
v 35727.66 125975.26 -1730.70
v 35724.28 125985.37 -1730.70
v 34748.11 126396.72 -1730.70
v 34578.99 126459.31 -1787.60
v 34578.99 126459.31 -1730.70
v 34589.49 126463.57 -1730.70
v 34628.29 126575.80 -1755.70
v 34628.29 126575.80 -1730.70
v 34638.40 126579.15 -1730.70
v 40083.95 125035.58 -1688.90
v 40078.13 125027.57 -1691.29
v 40078.13 125027.57 -1663.90
v 40083.95 125035.58 -1663.90
v 40079.58 125043.18 -1663.90
v 40073.86 125035.30 -1663.90
v 39928.76 124821.91 -1719.69
v 39928.76 124821.91 -1663.90
v 39926.99 124833.07 -1663.90
v 39644.80 125027.57 -1725.95
v 39644.80 125027.57 -1663.90
v 39645.63 125036.84 -1663.90
v 39249.84 125313.62 -1688.90
v 39249.84 125313.62 -1663.90
v 39254.30 125320.27 -1663.90
v 41484.68 122113.71 -1912.80
v 41410.71 122012.89 -1944.80
v 41410.71 122012.89 -1887.80
v 41484.68 122113.71 -1887.80
v 41482.05 122123.65 -1887.80
v 41408.99 122024.06 -1887.80
v 41334.25 122068.80 -1945.85
v 41334.25 122068.80 -1887.80
v 41333.48 122079.27 -1887.80
v 40875.49 122404.27 -1952.16
v 40875.49 122404.27 -1887.80
v 40880.46 122410.55 -1887.80
v 40804.27 122456.35 -1950.29
v 40804.27 122456.35 -1887.80
v 40810.13 122461.97 -1887.80
v 40706.88 122527.57 -1934.24
v 40706.88 122527.57 -1887.80
v 40713.96 122532.30 -1887.80
v 40378.29 122767.85 -1918.55
v 40378.29 122767.85 -1887.80
v 40389.49 122769.57 -1887.80
v 40406.58 122806.37 -1912.80
v 40406.58 122806.37 -1887.80
v 40417.77 122808.10 -1887.80
v 42685.61 140050.82 1167.70
v 42667.44 140027.57 1159.21
v 42667.44 140027.57 1192.70
v 42685.61 140050.82 1192.70
v 42683.38 140060.96 1192.70
v 42665.36 140037.90 1192.70
v 42582.87 139919.35 1137.02
v 42582.87 139919.35 1192.70
v 42581.49 139930.57 1192.70
v 42444.10 140027.57 1123.48
v 42444.10 140027.57 1192.70
v 42444.35 140037.52 1192.70
v 41562.79 140714.87 1147.42
v 41562.79 140714.87 1192.70
v 41573.39 140716.75 1192.70
v 41507.23 140758.19 1148.93
v 41507.23 140758.19 1192.70
v 41518.49 140759.56 1192.70
v 41547.56 140809.52 1167.70
v 41547.56 140809.52 1192.70
v 41558.82 140810.89 1192.70
v 44403.29 119717.35 -1794.91
v 44467.12 119804.25 -1775.90
v 44467.12 119804.25 -1750.90
v 44403.29 119717.35 -1750.90
v 44414.49 119719.07 -1750.90
v 44477.64 119805.06 -1750.90
v 46825.60 117997.40 -1775.90
v 46548.05 118200.13 -1792.99
v 46548.05 118200.13 -1750.90
v 46825.60 117997.40 -1750.90
v 46825.80 118007.16 -1750.90
v 46551.63 118207.42 -1750.90
v 45922.79 118656.84 -1788.20
v 45922.79 118656.84 -1750.90
v 45933.99 118658.57 -1750.90
v 45973.33 118725.67 -1775.90
v 45973.33 118725.67 -1750.90
v 45984.52 118727.40 -1750.90
v 45580.19 119086.20 -1775.90
v 45470.21 118936.39 -1807.07
v 45470.21 118936.39 -1750.90
v 45580.19 119086.20 -1750.90
v 45578.46 119097.37 -1750.90
v 45468.49 118947.56 -1750.90
v 45074.19 119226.27 -1819.81
v 45074.19 119226.27 -1750.90
v 45077.26 119233.93 -1750.90
v 49125.49 121172.40 -1397.50
v 48375.49 121719.65 -1427.50
v 48375.49 121719.65 -1372.50
v 49125.49 121172.40 -1372.50
v 49123.87 121183.48 -1372.50
v 48378.19 121727.58 -1372.50
v 47908.39 122060.47 -1464.87
v 47908.39 122060.47 -1372.50
v 47913.78 122066.44 -1372.50
v 47268.25 122527.57 -1427.50
v 47268.25 122527.57 -1372.50
v 47277.33 122530.85 -1372.50
v 46901.30 122795.32 -1427.50
v 46901.30 122795.32 -1372.50
v 46912.49 122797.06 -1372.50
v 47411.26 123491.80 -1427.50
v 47411.26 123491.80 -1372.50
v 47419.32 123489.27 -1372.50
v 48375.49 124808.69 -1427.50
v 48375.49 124808.69 -1372.50
v 48377.64 124798.09 -1372.50
v 48443.25 124901.24 -1424.79
v 48443.25 124901.24 -1372.50
v 48444.99 124890.07 -1372.50
v 48659.95 124743.10 -1416.12
v 48659.95 124743.10 -1372.50
v 48660.44 124732.84 -1372.50
v 49125.49 124403.38 -1397.50
v 49125.49 124403.38 -1372.50
v 49123.29 124395.08 -1372.50
vt -351.6085 -2.7632
vt -352.6486 -2.7595
vt -352.6486 -2.6360
vt -351.6085 -2.6360
vt -351.6052 -2.6360
vt -352.6374 -2.6360
vt -354.1302 -2.8188
vt -354.1302 -2.6360
vt -354.1078 -2.6360
vt -356.4288 -2.7268
vt -356.4288 -2.6360
vt -356.3890 -2.6360
vt -356.0641 -2.7414
vt -356.0641 -2.6360
vt -356.0243 -2.6360
vt -355.3014 -2.7719
vt -355.3014 -2.6360
vt -355.2615 -2.6360
vt -356.6676 -2.7173
vt -356.6676 -2.6360
vt -356.6277 -2.6360
vt -354.1302 -2.8188
vt -354.1302 -2.6360
vt -354.1085 -2.6360
vt -353.1370 -2.7790
vt -353.1370 -2.6360
vt -353.1225 -2.6360
vt -352.6037 -2.6985
vt -352.6037 -2.6360
vt -352.5930 -2.6360
vt -349.8590 -2.6985
vt -349.8590 -2.6360
vt -349.8664 -2.6360
vt -329.5221 -3.4625
vt -330.0818 -3.3845
vt -330.0818 -3.3220
vt -329.5221 -3.3220
vt -329.5352 -3.3220
vt -330.0872 -3.3220
vt -326.8513 -3.3845
vt -327.1973 -3.4347
vt -327.1973 -3.3220
vt -326.8513 -3.3220
vt -326.8870 -3.3220
vt -327.2300 -3.3220
vt -327.8306 -3.5267
vt -327.8306 -3.3220
vt -327.8580 -3.3220
vt -329.1302 -3.4774
vt -329.1302 -3.3220
vt -329.1466 -3.3220
vt -324.5345 -4.0380
vt -323.9223 -4.1145
vt -323.9223 -3.9755
vt -324.5345 -3.9755
vt -324.5736 -3.9755
vt -323.9615 -3.9755
vt -324.0698 -4.1284
vt -324.0698 -3.9755
vt -324.1066 -3.9755
vt -324.8415 -4.0834
vt -324.8415 -3.9755
vt -324.8658 -3.9755
vt -325.6197 -4.0380
vt -325.6197 -3.9755
vt -325.6316 -3.9755
vt -302.5574 -4.5687
vt -300.8694 -4.5687
vt -300.8694 -4.5000
vt -302.5574 -4.5000
vt -302.5290 -4.5000
vt -300.8584 -4.5000
vt -300.1223 -4.5687
vt -300.1223 -4.5000
vt -300.1189 -4.5000
vt -297.8802 -4.5687
vt -297.8802 -4.5000
vt -297.8900 -4.5000
vt -296.1427 -4.6383
vt -296.1427 -4.5000
vt -296.1627 -4.5000
vt -295.9162 -4.6473
vt -295.9162 -4.5000
vt -295.9382 -4.5000
vt -295.0315 -4.6257
vt -295.0315 -4.5000
vt -295.0618 -4.5000
vt -294.6414 -4.6162
vt -294.6414 -4.5000
vt -294.6752 -4.5000
vt -295.8277 -4.5687
vt -295.8277 -4.5000
vt -295.8617 -4.5000
vt -295.9839 -4.5625
vt -295.9839 -4.5000
vt -296.0180 -4.5000
vt -300.7649 -4.5625
vt -300.8999 -4.5687
vt -300.8999 -4.5000
vt -300.7649 -4.5000
vt -300.7459 -4.5000
vt -300.8802 -4.5000
vt -302.5334 -4.5687
vt -302.5334 -4.5000
vt -302.5052 -4.5000
vt -302.5402 -4.5687
vt -302.5402 -4.5000
vt -302.5120 -4.5000
vt -260.5525 -0.0745
vt -261.1925 -0.1496
vt -261.1925 -0.0120
vt -260.5525 -0.0120
vt -260.5226 -0.0120
vt -261.1552 -0.0120
vt -260.3802 -0.1873
vt -260.3802 -0.0120
vt -260.3591 -0.0120
vt -258.8567 -0.1359
vt -258.8567 -0.0120
vt -258.8657 -0.0120
vt -258.5756 -0.1346
vt -258.5756 -0.0120
vt -258.5902 -0.0120
vt -258.3069 -0.0745
vt -258.3069 -0.0120
vt -258.3215 -0.0120
vt -294.2614 -4.7135
vt -292.8089 -4.7716
vt -292.8089 -4.6510
vt -294.2614 -4.6510
vt -294.2397 -4.6510
vt -292.7989 -4.6510
vt -291.6302 -4.7814
vt -291.6302 -4.6510
vt -291.6297 -4.6510
vt -290.8608 -4.7879
vt -290.8608 -4.6510
vt -290.8664 -4.6510
vt -290.1322 -4.8187
vt -290.1322 -4.6510
vt -290.1400 -4.6510
vt -288.7921 -4.7620
vt -288.7921 -4.6510
vt -288.8039 -4.6510
vt -287.6473 -4.7135
vt -287.6473 -4.6510
vt -287.6624 -4.6510
vt -337.2065 -0.4100
vt -339.7721 -0.4843
vt -339.7721 -0.3475
vt -337.2065 -0.3475
vt -337.1954 -0.3475
vt -339.7431 -0.3475
vt -340.5123 -0.5057
vt -340.5123 -0.3475
vt -340.4782 -0.3475
vt -341.2332 -0.4904
vt -341.2332 -0.3475
vt -341.1940 -0.3475
vt -340.8975 -0.4100
vt -340.8975 -0.3475
vt -340.8624 -0.3475
vt -260.7633 -4.2530
vt -260.8683 -4.2992
vt -260.8683 -4.1905
vt -260.7633 -4.1905
vt -260.7315 -4.1905
vt -260.8339 -4.1905
vt -260.8824 -4.3027
vt -260.8824 -4.1905
vt -260.8477 -4.1905
vt -260.7933 -4.3022
vt -260.7933 -4.1905
vt -260.7588 -4.1905
vt -260.3802 -4.2872
vt -260.3802 -4.1905
vt -260.3473 -4.1905
vt -260.1252 -4.2984
vt -260.1252 -4.1905
vt -260.0933 -4.1905
vt -259.0483 -4.2921
vt -259.0483 -4.1905
vt -259.0203 -4.1905
vt -254.1302 -4.2636
vt -254.1302 -4.1905
vt -254.1203 -4.1905
vt -252.2005 -4.3296
vt -252.2005 -4.1905
vt -252.1977 -4.1905
vt -249.3944 -4.3793
vt -249.3944 -4.1905
vt -249.3955 -4.1905
vt -247.8802 -4.4062
vt -247.8802 -4.1905
vt -247.8833 -4.1905
vt -246.4769 -4.3749
vt -246.4769 -4.1905
vt -246.4819 -4.1905
vt -245.3197 -4.2530
vt -245.3197 -4.1905
vt -245.3263 -4.1905
vt -237.5412 -0.2782
vt -237.5529 -0.3481
vt -237.5529 -0.2157
vt -237.5412 -0.2157
vt -237.5124 -0.2157
vt -237.5240 -0.2157
vt -235.3802 -0.3994
vt -235.3802 -0.2157
vt -235.3770 -0.2157
vt -232.7739 -0.3567
vt -232.7739 -0.2157
vt -232.8014 -0.2157
vt -232.7602 -0.2782
vt -232.7602 -0.2157
vt -232.7879 -0.2157
vt -311.4284 1.4527
vt -316.6302 1.3870
vt -316.6302 1.5945
vt -311.4284 1.5945
vt -311.4515 1.5945
vt -316.6150 1.5945
vt -318.7819 1.5320
vt -318.7819 1.5945
vt -318.7509 1.5945
vt -311.3464 1.5320
vt -311.3464 1.5945
vt -311.3705 1.5945
vt -264.2506 -5.2373
vt -263.4368 -5.3187
vt -263.4368 -5.1748
vt -264.2506 -5.1748
vt -264.2812 -5.1748
vt -263.4747 -5.1748
vt -263.2872 -5.3113
vt -263.2872 -5.1748
vt -263.3264 -5.1748
vt -264.4116 -5.3187
vt -264.4116 -5.1748
vt -264.4508 -5.1748
vt -265.4710 -5.3046
vt -265.4710 -5.1748
vt -265.5102 -5.1748
vt -265.3300 -5.3187
vt -265.3300 -5.1748
vt -265.3692 -5.1748
vt -264.4647 -5.2754
vt -264.4647 -5.1748
vt -264.5040 -5.1748
vt -263.7018 -5.2373
vt -263.7018 -5.1748
vt -263.7410 -5.1748
vt -264.0640 -5.2373
vt -264.6986 -5.2415
vt -264.6986 -5.1748
vt -264.0640 -5.1748
vt -264.0985 -5.1748
vt -264.7259 -5.1748
vt -264.8576 -5.2373
vt -264.8576 -5.1748
vt -264.8832 -5.1748
vt -255.9927 -5.6698
vt -255.3530 -5.7209
vt -255.3530 -5.6073
vt -255.9927 -5.6073
vt -256.0130 -5.6073
vt -255.3785 -5.6073
vt -254.8271 -5.7630
vt -254.8271 -5.6073
vt -254.8569 -5.6073
vt -254.1302 -5.7539
vt -254.1302 -5.6073
vt -254.1656 -5.6073
vt -253.5349 -5.7462
vt -253.5349 -5.6073
vt -253.5752 -5.6073
vt -254.1302 -5.7058
vt -254.1302 -5.6073
vt -254.1638 -5.6073
vt -254.6610 -5.6698
vt -254.6610 -5.6073
vt -254.6887 -5.6073
vt -251.2010 -6.0242
vt -250.5311 -6.1067
vt -250.5311 -5.9617
vt -251.2010 -5.9617
vt -251.2268 -5.9617
vt -250.5627 -5.9617
vt -249.5740 -6.1008
vt -249.5740 -5.9617
vt -249.6139 -5.9617
vt -250.5991 -6.0242
vt -250.5991 -5.9617
vt -250.6264 -5.9617
vt -197.9516 -5.3705
vt -197.8802 -5.3726
vt -197.8802 -5.2308
vt -197.9516 -5.2308
vt -197.9677 -5.2308
vt -197.8968 -5.2308
vt -196.8244 -5.3610
vt -196.8244 -5.2308
vt -196.8465 -5.2308
vt -194.7045 -5.3376
vt -194.7045 -5.2308
vt -194.7377 -5.2308
vt -195.0653 -5.2939
vt -195.0653 -5.2308
vt -195.0948 -5.2308
vt -195.0710 -5.2933
vt -195.0710 -5.2308
vt -195.1005 -5.2308
vt -199.0480 -5.2933
vt -199.0480 -5.2308
vt -199.0585 -5.2308
vt -240.2240 -6.4313
vt -239.3766 -6.4990
vt -239.3766 -6.3688
vt -240.2240 -6.3688
vt -240.2154 -6.3688
vt -239.3765 -6.3688
vt -238.3574 -6.5806
vt -238.3574 -6.3688
vt -238.3642 -6.3688
vt -235.3802 -6.5816
vt -235.3802 -6.3688
vt -235.4073 -6.3688
vt -235.0578 -6.5687
vt -235.0578 -6.3688
vt -235.0871 -6.3688
vt -233.4840 -6.5063
vt -233.4840 -6.3688
vt -233.5240 -6.3688
vt -235.3451 -6.4313
vt -235.3451 -6.3688
vt -235.3666 -6.3688
vt -244.8581 -5.8148
vt -243.8714 -5.8904
vt -243.8714 -5.7523
vt -244.8581 -5.7523
vt -244.8914 -5.7523
vt -243.9114 -5.7523
vt -244.0060 -5.8962
vt -244.0060 -5.7523
vt -244.0450 -5.7523
vt -245.8886 -5.9781
vt -245.8886 -5.7523
vt -245.9135 -5.7523
vt -247.8802 -5.8187
vt -247.8802 -5.7523
vt -247.8904 -5.7523
vt -247.9135 -5.8148
vt -247.9135 -5.7523
vt -247.9234 -5.7523
vt -239.3641 -6.2705
vt -238.9501 -6.3187
vt -238.9501 -6.2080
vt -239.3641 -6.2080
vt -239.3954 -6.2080
vt -238.9860 -6.2080
vt -238.5865 -6.3470
vt -238.5865 -6.2080
vt -238.6265 -6.2080
vt -240.7902 -6.3524
vt -240.7902 -6.2080
vt -240.8148 -6.2080
vt -241.1978 -6.3534
vt -241.1978 -6.2080
vt -241.2196 -6.2080
vt -241.6302 -6.3187
vt -241.6302 -6.2080
vt -241.6489 -6.2080
vt -242.2333 -6.2705
vt -242.2333 -6.2080
vt -242.2478 -6.2080
vt -254.9283 -1.8102
vt -255.1878 -1.7300
vt -255.1878 -1.6675
vt -254.9283 -1.6675
vt -254.9302 -1.6675
vt -255.1858 -1.6675
vt -249.9358 -1.7300
vt -251.8835 -1.8384
vt -251.8835 -1.6675
vt -249.9358 -1.6675
vt -249.9630 -1.6675
vt -251.9007 -1.6675
vt -252.9545 -1.8979
vt -252.9545 -1.6675
vt -252.9664 -1.6675
vt -254.1302 -1.8647
vt -254.1302 -1.6675
vt -254.1361 -1.6675
vt -231.8434 -5.7580
vt -232.1717 -5.7102
vt -232.1717 -5.6477
vt -231.8434 -5.6477
vt -231.8365 -5.6477
vt -232.1617 -5.6477
vt -228.9300 -5.7102
vt -228.2096 -5.7864
vt -228.2096 -5.6477
vt -228.9300 -5.6477
vt -228.9628 -5.6477
vt -228.2490 -5.6477
vt -229.1302 -5.8067
vt -229.1302 -5.6477
vt -229.1578 -5.6477
vt -284.6453 4.5102
vt -285.3802 4.4793
vt -285.3802 4.6230
vt -284.6453 4.6230
vt -284.6790 4.6230
vt -285.4069 4.6230
vt -289.8685 4.4699
vt -289.8685 4.6230
vt -289.8527 4.6230
vt -290.4831 4.4836
vt -290.4831 4.6230
vt -290.4615 4.6230
vt -290.6727 4.5605
vt -290.6727 4.6230
vt -290.6493 4.6230
vt -284.7607 4.5605
vt -284.7607 4.6230
vt -284.7933 4.6230
vt -238.4612 -3.4477
vt -239.8301 -3.5348
vt -239.8301 -3.3852
vt -238.4612 -3.3852
vt -238.4626 -3.3852
vt -239.8211 -3.3852
vt -240.1995 -3.5244
vt -240.1995 -3.3852
vt -240.1877 -3.3852
vt -240.6405 -3.4477
vt -240.6405 -3.3852
vt -240.6238 -3.3852
vt -256.0805 0.9531
vt -260.3802 0.9346
vt -260.3802 1.0928
vt -256.0805 1.0928
vt -256.1102 1.0928
vt -260.3748 1.0928
vt -261.1673 0.9627
vt -261.1673 1.0928
vt -261.1555 1.0928
vt -263.0007 1.0282
vt -263.0007 1.0928
vt -262.9740 1.0928
vt -263.0020 1.0303
vt -263.0020 1.0928
vt -262.9753 1.0928
vt -256.1301 1.0303
vt -256.1301 1.0928
vt -256.1594 1.0928
vt -238.2170 -2.1485
vt -238.1800 -2.1646
vt -238.1800 -2.0860
vt -238.2170 -2.0860
vt -238.2545 -2.0860
vt -238.2177 -2.0860
vt -240.9117 -2.2369
vt -240.9117 -2.0860
vt -240.9143 -2.0860
vt -241.6302 -2.2559
vt -241.6302 -2.0860
vt -241.6235 -2.0860
vt -242.1410 -2.2285
vt -242.1410 -2.0860
vt -242.1277 -2.0860
vt -242.2961 -2.1485
vt -242.2961 -2.0860
vt -242.2804 -2.0860
vt -225.6190 -4.3893
vt -229.1302 -4.4775
vt -229.1302 -4.3268
vt -225.6190 -4.3268
vt -225.6527 -4.3268
vt -229.1215 -4.3268
vt -229.7008 -4.4690
vt -229.7008 -4.3268
vt -229.6852 -4.3268
vt -229.8688 -4.3893
vt -229.8688 -4.3268
vt -229.8519 -4.3268
vt -212.3791 -4.2222
vt -212.3736 -4.2282
vt -212.3736 -4.1597
vt -212.3791 -4.1597
vt -212.4090 -4.1597
vt -212.4036 -4.1597
vt -212.2329 -4.2992
vt -212.2329 -4.1597
vt -212.2652 -4.1597
vt -213.4569 -4.3149
vt -213.4569 -4.1597
vt -213.4780 -4.1597
vt -215.1594 -4.2222
vt -215.1594 -4.1597
vt -215.1649 -4.1597
vt -201.5726 -4.7820
vt -201.5054 -4.8620
vt -201.5054 -4.7195
vt -201.5726 -4.7195
vt -201.6040 -4.7195
vt -201.5377 -4.7195
vt -201.8364 -4.8646
vt -201.8364 -4.7195
vt -201.8645 -4.7195
vt -203.8219 -4.8804
vt -203.8219 -4.7195
vt -203.8252 -4.7195
vt -204.1302 -4.8757
vt -204.1302 -4.7195
vt -204.1296 -4.7195
vt -204.5517 -4.8356
vt -204.5517 -4.7195
vt -204.5459 -4.7195
vt -205.9739 -4.7964
vt -205.9739 -4.7195
vt -205.9502 -4.7195
vt -205.9995 -4.7820
vt -205.9995 -4.7195
vt -205.9758 -4.7195
vt -243.4130 2.9192
vt -243.4003 2.8980
vt -243.4003 2.9817
vt -243.4130 2.9817
vt -243.4439 2.9817
vt -243.4313 2.9817
vt -243.3412 2.8426
vt -243.3412 2.9817
vt -243.3727 2.9817
vt -243.9587 2.8087
vt -243.9587 2.9817
vt -243.9829 2.9817
vt -247.8802 2.8686
vt -247.8802 2.9817
vt -247.8584 2.9817
vt -248.1274 2.8723
vt -248.1274 2.9817
vt -248.1027 2.9817
vt -248.1549 2.9192
vt -248.1549 2.9817
vt -248.1302 2.9817
vt -188.2851 -4.4873
vt -188.3428 -4.4398
vt -188.3428 -4.3773
vt -188.2851 -4.3773
vt -188.2615 -4.3773
vt -188.3185 -4.3773
vt -177.9295 -4.4398
vt -179.1302 -4.4825
vt -179.1302 -4.3773
vt -177.9295 -4.3773
vt -177.9534 -4.3773
vt -179.1395 -4.3773
vt -181.8351 -4.4705
vt -181.8351 -4.3773
vt -181.8115 -4.3773
vt -181.8808 -4.4398
vt -181.8808 -4.3773
vt -181.8572 -4.3773
vt -183.7650 -4.4398
vt -183.6654 -4.5177
vt -183.6654 -4.3773
vt -183.7650 -4.3773
vt -183.7973 -4.3773
vt -183.6977 -4.3773
vt -185.3802 -4.5495
vt -185.3802 -4.3773
vt -185.3917 -4.3773
vt -180.1173 -3.4937
vt -183.3604 -3.5688
vt -183.3604 -3.4312
vt -180.1173 -3.4312
vt -180.1490 -3.4312
vt -183.3735 -3.4312
vt -185.3802 -3.6622
vt -185.3802 -3.4312
vt -185.3817 -3.4312
vt -188.1483 -3.5688
vt -188.1483 -3.4312
vt -188.1338 -3.4312
vt -189.7351 -3.5688
vt -189.7351 -3.4312
vt -189.7114 -3.4312
vt -190.2014 -3.5688
vt -190.2014 -3.4312
vt -190.1749 -3.4312
vt -191.0830 -3.5688
vt -191.0830 -3.4312
vt -191.0511 -3.4312
vt -191.1450 -3.5620
vt -191.1450 -3.4312
vt -191.1127 -3.4312
vt -190.2079 -3.5403
vt -190.2079 -3.4312
vt -190.1810 -3.4312
vt -188.1947 -3.4937
vt -188.1947 -3.4312
vt -188.1795 -3.4312
vn -0.9966 0.0820 0.0000
vn 0.0000 -0.0000 1.0000
vn 0.0800 0.9968 0.0000
vn -0.9968 0.0805 0.0000
vn 0.0808 0.9967 0.0000
vn -0.0811 -0.9967 0.0000
vn -0.9450 -0.3270 0.0000
vn 0.3258 -0.9454 0.0000
vn 0.9782 0.2075 0.0000
vn 0.2084 -0.9780 0.0000
vn 0.3360 0.9418 0.0000
vn 0.8426 0.5385 0.0000
vn 0.9351 -0.3543 0.0000
vn 0.0000 -1.0000 0.0000
vn -0.9909 0.1347 0.0000
vn -0.7126 0.7015 0.0000
vn -0.9310 0.3651 0.0000
vn 0.3635 0.9316 0.0000
vn 0.9308 -0.3655 0.0000
vn 0.2556 0.9668 0.0000
vn 0.9985 -0.0555 0.0000
vn -0.9800 0.1992 0.0000
vn 0.1985 0.9801 0.0000
vn -0.8637 0.5040 0.0000
vn 0.5252 0.8510 0.0000
vn 0.7335 0.6797 0.0000
vn -0.7234 0.6904 0.0000
vn 0.6885 0.7252 0.0000
vn 0.7242 -0.6896 0.0000
vn -0.8162 -0.5777 0.0000
vn 0.5766 -0.8170 0.0000
vn 0.9804 -0.1972 0.0000
vn -0.1960 -0.9806 0.0000
vn 0.9804 -0.1969 0.0000
vn -0.1965 -0.9805 0.0000
vn 0.9904 -0.1384 0.0000
vn -0.1756 -0.9845 0.0000
vn 0.9975 -0.0707 0.0000
vn -0.0706 -0.9975 0.0000
vn 0.9927 -0.1202 0.0000
vn 0.3211 -0.9470 0.0000
vn 0.8513 0.5246 0.0000
vn -0.0041 1.0000 0.0000
vn 1.0000 0.0041 0.0000
vn 0.0041 -1.0000 0.0000
vn 0.9996 0.0287 0.0000
vn 0.0281 -0.9996 0.0000
vn 0.9996 0.0297 0.0000
vn 0.0294 -0.9996 0.0000
vn -0.9989 -0.0471 0.0000
vn 0.0465 -0.9989 0.0000
vn -0.9849 0.1732 0.0000
vn 0.9848 -0.1737 0.0000
vn -0.1731 -0.9849 0.0000
vn -0.5379 -0.8430 0.0000
vn -0.8419 0.5397 0.0000
vn 0.8422 -0.5392 0.0000
vn -0.2939 -0.9558 0.0000
vn -0.9554 0.2953 0.0000
vn -0.6682 -0.7440 0.0000
vn -0.7430 0.6693 0.0000
vn 0.7425 -0.6698 0.0000
vn 0.9430 -0.3327 0.0000
vn -0.3314 -0.9435 0.0000
vn -0.9432 0.3322 0.0000
vn -0.3883 -0.9215 0.0000
vn -0.9209 0.3897 0.0000
vn 0.8091 -0.5876 0.0000
vn -0.5866 -0.8099 0.0000
vn 0.8063 -0.5915 0.0000
vn -0.5903 -0.8072 0.0000
vn -0.8060 0.5919 0.0000
vn 0.7879 -0.6158 0.0000
vn -0.6150 -0.7886 0.0000
vn -0.7863 0.6179 0.0000
vn -0.8059 0.5920 0.0000
vn -0.5898 -0.8075 0.0000
vn 0.8061 -0.5918 0.0000
vn -0.5907 -0.8069 0.0000
vn -0.5894 -0.8078 0.0000
vn -0.8068 0.5908 0.0000
vn 0.5895 0.8078 0.0000
f 1/1/1 3/3/1 2/2/1
f 1/1/1 4/4/1 3/3/1
f 5/5/2 6/6/2 3/3/2
f 5/5/2 3/3/2 4/4/2
f 2/2/1 8/8/1 7/7/1
f 2/2/1 3/3/1 8/8/1
f 6/6/2 9/9/2 8/8/2
f 6/6/2 8/8/2 3/3/2
f 7/7/1 11/11/1 10/10/1
f 7/7/1 8/8/1 11/11/1
f 9/9/2 12/12/2 11/11/2
f 9/9/2 11/11/2 8/8/2
f 10/10/3 14/14/3 13/13/3
f 10/10/3 11/11/3 14/14/3
f 12/12/2 15/15/2 14/14/2
f 12/12/2 14/14/2 11/11/2
f 13/13/3 17/17/3 16/16/3
f 13/13/3 14/14/3 17/17/3
f 15/15/2 18/18/2 17/17/2
f 15/15/2 17/17/2 14/14/2
f 16/16/4 20/20/4 19/19/4
f 16/16/4 17/17/4 20/20/4
f 18/18/2 21/21/2 20/20/2
f 18/18/2 20/20/2 17/17/2
f 19/19/5 23/23/5 22/22/5
f 19/19/5 20/20/5 23/23/5
f 21/21/2 24/24/2 23/23/2
f 21/21/2 23/23/2 20/20/2
f 22/22/5 26/26/5 25/25/5
f 22/22/5 23/23/5 26/26/5
f 24/24/2 27/27/2 26/26/2
f 24/24/2 26/26/2 23/23/2
f 25/25/5 29/29/5 28/28/5
f 25/25/5 26/26/5 29/29/5
f 27/27/2 30/30/2 29/29/2
f 27/27/2 29/29/2 26/26/2
f 31/31/6 4/4/6 1/1/6
f 31/31/6 32/32/6 4/4/6
f 33/33/2 5/5/2 4/4/2
f 33/33/2 4/4/2 32/32/2
f 34/34/7 36/36/7 35/35/7
f 34/34/7 37/37/7 36/36/7
f 38/38/2 39/39/2 36/36/2
f 38/38/2 36/36/2 37/37/2
f 40/40/8 42/42/8 41/41/8
f 40/40/8 43/43/8 42/42/8
f 44/44/2 45/45/2 42/42/2
f 44/44/2 42/42/2 43/43/2
f 41/41/8 47/47/8 46/46/8
f 41/41/8 42/42/8 47/47/8
f 45/45/2 48/48/2 47/47/2
f 45/45/2 47/47/2 42/42/2
f 46/46/8 50/50/8 49/49/8
f 46/46/8 47/47/8 50/50/8
f 48/48/2 51/51/2 50/50/2
f 48/48/2 50/50/2 47/47/2
f 49/49/8 37/37/8 34/34/8
f 49/49/8 50/50/8 37/37/8
f 51/51/2 38/38/2 37/37/2
f 51/51/2 37/37/2 50/50/2
f 52/52/9 54/54/9 53/53/9
f 52/52/9 55/55/9 54/54/9
f 56/56/2 57/57/2 54/54/2
f 56/56/2 54/54/2 55/55/2
f 53/53/10 59/59/10 58/58/10
f 53/53/10 54/54/10 59/59/10
f 57/57/2 60/60/2 59/59/2
f 57/57/2 59/59/2 54/54/2
f 58/58/10 62/62/10 61/61/10
f 58/58/10 59/59/10 62/62/10
f 60/60/2 63/63/2 62/62/2
f 60/60/2 62/62/2 59/59/2
f 61/61/10 65/65/10 64/64/10
f 61/61/10 62/62/10 65/65/10
f 63/63/2 66/66/2 65/65/2
f 63/63/2 65/65/2 62/62/2
f 67/67/11 69/69/11 68/68/11
f 67/67/11 70/70/11 69/69/11
f 71/71/2 72/72/2 69/69/2
f 71/71/2 69/69/2 70/70/2
f 68/68/11 74/74/11 73/73/11
f 68/68/11 69/69/11 74/74/11
f 72/72/2 75/75/2 74/74/2
f 72/72/2 74/74/2 69/69/2
f 73/73/12 77/77/12 76/76/12
f 73/73/12 74/74/12 77/77/12
f 75/75/2 78/78/2 77/77/2
f 75/75/2 77/77/2 74/74/2
f 76/76/12 80/80/12 79/79/12
f 76/76/12 77/77/12 80/80/12
f 78/78/2 81/81/2 80/80/2
f 78/78/2 80/80/2 77/77/2
f 79/79/13 83/83/13 82/82/13
f 79/79/13 80/80/13 83/83/13
f 81/81/2 84/84/2 83/83/2
f 81/81/2 83/83/2 80/80/2
f 82/82/13 86/86/13 85/85/13
f 82/82/13 83/83/13 86/86/13
f 84/84/2 87/87/2 86/86/2
f 84/84/2 86/86/2 83/83/2
f 85/85/13 89/89/13 88/88/13
f 85/85/13 86/86/13 89/89/13
f 87/87/2 90/90/2 89/89/2
f 87/87/2 89/89/2 86/86/2
f 88/88/14 92/92/14 91/91/14
f 88/88/14 89/89/14 92/92/14
f 90/90/2 93/93/2 92/92/2
f 90/90/2 92/92/2 89/89/2
f 91/91/14 95/95/14 94/94/14
f 91/91/14 92/92/14 95/95/14
f 93/93/2 96/96/2 95/95/2
f 93/93/2 95/95/2 92/92/2
f 97/97/15 99/99/15 98/98/15
f 97/97/15 100/100/15 99/99/15
f 101/101/2 102/102/2 99/99/2
f 101/101/2 99/99/2 100/100/2
f 98/98/15 104/104/15 103/103/15
f 98/98/15 99/99/15 104/104/15
f 102/102/2 105/105/2 104/104/2
f 102/102/2 104/104/2 99/99/2
f 103/103/16 107/107/16 106/106/16
f 103/103/16 104/104/16 107/107/16
f 105/105/2 108/108/2 107/107/2
f 105/105/2 107/107/2 104/104/2
f 106/106/16 70/70/16 67/67/16
f 106/106/16 107/107/16 70/70/16
f 108/108/2 71/71/2 70/70/2
f 108/108/2 70/70/2 107/107/2
f 109/109/17 111/111/17 110/110/17
f 109/109/17 112/112/17 111/111/17
f 113/113/2 114/114/2 111/111/2
f 113/113/2 111/111/2 112/112/2
f 110/110/18 116/116/18 115/115/18
f 110/110/18 111/111/18 116/116/18
f 114/114/2 117/117/2 116/116/2
f 114/114/2 116/116/2 111/111/2
f 115/115/18 119/119/18 118/118/18
f 115/115/18 116/116/18 119/119/18
f 117/117/2 120/120/2 119/119/2
f 117/117/2 119/119/2 116/116/2
f 118/118/18 122/122/18 121/121/18
f 118/118/18 119/119/18 122/122/18
f 120/120/2 123/123/2 122/122/2
f 120/120/2 122/122/2 119/119/2
f 121/121/19 125/125/19 124/124/19
f 121/121/19 122/122/19 125/125/19
f 123/123/2 126/126/2 125/125/2
f 123/123/2 125/125/2 122/122/2
f 127/127/20 129/129/20 128/128/20
f 127/127/20 130/130/20 129/129/20
f 131/131/2 132/132/2 129/129/2
f 131/131/2 129/129/2 130/130/2
f 128/128/20 134/134/20 133/133/20
f 128/128/20 129/129/20 134/134/20
f 132/132/2 135/135/2 134/134/2
f 132/132/2 134/134/2 129/129/2
f 133/133/20 137/137/20 136/136/20
f 133/133/20 134/134/20 137/137/20
f 135/135/2 138/138/2 137/137/2
f 135/135/2 137/137/2 134/134/2
f 136/136/21 140/140/21 139/139/21
f 136/136/21 137/137/21 140/140/21
f 138/138/2 141/141/2 140/140/2
f 138/138/2 140/140/2 137/137/2
f 139/139/21 143/143/21 142/142/21
f 139/139/21 140/140/21 143/143/21
f 141/141/2 144/144/2 143/143/2
f 141/141/2 143/143/2 140/140/2
f 142/142/21 146/146/21 145/145/21
f 142/142/21 143/143/21 146/146/21
f 144/144/2 147/147/2 146/146/2
f 144/144/2 146/146/2 143/143/2
f 148/148/22 150/150/22 149/149/22
f 148/148/22 151/151/22 150/150/22
f 152/152/2 153/153/2 150/150/2
f 152/152/2 150/150/2 151/151/2
f 149/149/22 155/155/22 154/154/22
f 149/149/22 150/150/22 155/155/22
f 153/153/2 156/156/2 155/155/2
f 153/153/2 155/155/2 150/150/2
f 154/154/22 158/158/22 157/157/22
f 154/154/22 155/155/22 158/158/22
f 156/156/2 159/159/2 158/158/2
f 156/156/2 158/158/2 155/155/2
f 157/157/23 161/161/23 160/160/23
f 157/157/23 158/158/23 161/161/23
f 159/159/2 162/162/2 161/161/2
f 159/159/2 161/161/2 158/158/2
f 163/163/24 165/165/24 164/164/24
f 163/163/24 166/166/24 165/165/24
f 167/167/2 168/168/2 165/165/2
f 167/167/2 165/165/2 166/166/2
f 164/164/24 170/170/24 169/169/24
f 164/164/24 165/165/24 170/170/24
f 168/168/2 171/171/2 170/170/2
f 168/168/2 170/170/2 165/165/2
f 169/169/25 173/173/25 172/172/25
f 169/169/25 170/170/25 173/173/25
f 171/171/2 174/174/2 173/173/2
f 171/171/2 173/173/2 170/170/2
f 172/172/25 176/176/25 175/175/25
f 172/172/25 173/173/25 176/176/25
f 174/174/2 177/177/2 176/176/2
f 174/174/2 176/176/2 173/173/2
f 175/175/25 179/179/25 178/178/25
f 175/175/25 176/176/25 179/179/25
f 177/177/2 180/180/2 179/179/2
f 177/177/2 179/179/2 176/176/2
f 178/178/25 182/182/25 181/181/25
f 178/178/25 179/179/25 182/182/25
f 180/180/2 183/183/2 182/182/2
f 180/180/2 182/182/2 179/179/2
f 181/181/25 185/185/25 184/184/25
f 181/181/25 182/182/25 185/185/25
f 183/183/2 186/186/2 185/185/2
f 183/183/2 185/185/2 182/182/2
f 184/184/25 188/188/25 187/187/25
f 184/184/25 185/185/25 188/188/25
f 186/186/2 189/189/2 188/188/2
f 186/186/2 188/188/2 185/185/2
f 187/187/26 191/191/26 190/190/26
f 187/187/26 188/188/26 191/191/26
f 189/189/2 192/192/2 191/191/2
f 189/189/2 191/191/2 188/188/2
f 190/190/26 194/194/26 193/193/26
f 190/190/26 191/191/26 194/194/26
f 192/192/2 195/195/2 194/194/2
f 192/192/2 194/194/2 191/191/2
f 193/193/26 197/197/26 196/196/26
f 193/193/26 194/194/26 197/197/26
f 195/195/2 198/198/2 197/197/2
f 195/195/2 197/197/2 194/194/2
f 196/196/26 200/200/26 199/199/26
f 196/196/26 197/197/26 200/200/26
f 198/198/2 201/201/2 200/200/2
f 198/198/2 200/200/2 197/197/2
f 202/202/27 204/204/27 203/203/27
f 202/202/27 205/205/27 204/204/27
f 206/206/2 207/207/2 204/204/2
f 206/206/2 204/204/2 205/205/2
f 203/203/28 209/209/28 208/208/28
f 203/203/28 204/204/28 209/209/28
f 207/207/2 210/210/2 209/209/2
f 207/207/2 209/209/2 204/204/2
f 208/208/28 212/212/28 211/211/28
f 208/208/28 209/209/28 212/212/28
f 210/210/2 213/213/2 212/212/2
f 210/210/2 212/212/2 209/209/2
f 211/211/29 215/215/29 214/214/29
f 211/211/29 212/212/29 215/215/29
f 213/213/2 216/216/2 215/215/2
f 213/213/2 215/215/2 212/212/2
f 217/217/30 219/219/30 218/218/30
f 217/217/30 220/220/30 219/219/30
f 221/221/2 222/222/2 219/219/2
f 221/221/2 219/219/2 220/220/2
f 218/218/30 224/224/30 223/223/30
f 218/218/30 219/219/30 224/224/30
f 222/222/2 225/225/2 224/224/2
f 222/222/2 224/224/2 219/219/2
f 226/226/31 220/220/31 217/217/31
f 226/226/31 227/227/31 220/220/31
f 228/228/2 221/221/2 220/220/2
f 228/228/2 220/220/2 227/227/2
f 229/229/32 231/231/32 230/230/32
f 229/229/32 232/232/32 231/231/32
f 233/233/2 234/234/2 231/231/2
f 233/233/2 231/231/2 232/232/2
f 230/230/32 236/236/32 235/235/32
f 230/230/32 231/231/32 236/236/32
f 234/234/2 237/237/2 236/236/2
f 234/234/2 236/236/2 231/231/2
f 235/235/33 239/239/33 238/238/33
f 235/235/33 236/236/33 239/239/33
f 237/237/2 240/240/2 239/239/2
f 237/237/2 239/239/2 236/236/2
f 238/238/33 242/242/33 241/241/33
f 238/238/33 239/239/33 242/242/33
f 240/240/2 243/243/2 242/242/2
f 240/240/2 242/242/2 239/239/2
f 241/241/34 245/245/34 244/244/34
f 241/241/34 242/242/34 245/245/34
f 243/243/2 246/246/2 245/245/2
f 243/243/2 245/245/2 242/242/2
f 244/244/34 248/248/34 247/247/34
f 244/244/34 245/245/34 248/248/34
f 246/246/2 249/249/2 248/248/2
f 246/246/2 248/248/2 245/245/2
f 247/247/34 251/251/34 250/250/34
f 247/247/34 248/248/34 251/251/34
f 249/249/2 252/252/2 251/251/2
f 249/249/2 251/251/2 248/248/2
f 253/253/35 255/255/35 254/254/35
f 253/253/35 256/256/35 255/255/35
f 257/257/2 258/258/2 255/255/2
f 257/257/2 255/255/2 256/256/2
f 254/254/35 260/260/35 259/259/35
f 254/254/35 255/255/35 260/260/35
f 258/258/2 261/261/2 260/260/2
f 258/258/2 260/260/2 255/255/2
f 262/262/36 264/264/36 263/263/36
f 262/262/36 265/265/36 264/264/36
f 266/266/2 267/267/2 264/264/2
f 266/266/2 264/264/2 265/265/2
f 263/263/36 269/269/36 268/268/36
f 263/263/36 264/264/36 269/269/36
f 267/267/2 270/270/2 269/269/2
f 267/267/2 269/269/2 264/264/2
f 268/268/36 272/272/36 271/271/36
f 268/268/36 269/269/36 272/272/36
f 270/270/2 273/273/2 272/272/2
f 270/270/2 272/272/2 269/269/2
f 271/271/36 275/275/36 274/274/36
f 271/271/36 272/272/36 275/275/36
f 273/273/2 276/276/2 275/275/2
f 273/273/2 275/275/2 272/272/2
f 274/274/37 278/278/37 277/277/37
f 274/274/37 275/275/37 278/278/37
f 276/276/2 279/279/2 278/278/2
f 276/276/2 278/278/2 275/275/2
f 277/277/37 281/281/37 280/280/37
f 277/277/37 278/278/37 281/281/37
f 279/279/2 282/282/2 281/281/2
f 279/279/2 281/281/2 278/278/2
f 283/283/38 285/285/38 284/284/38
f 283/283/38 286/286/38 285/285/38
f 287/287/2 288/288/2 285/285/2
f 287/287/2 285/285/2 286/286/2
f 284/284/38 290/290/38 289/289/38
f 284/284/38 285/285/38 290/290/38
f 288/288/2 291/291/2 290/290/2
f 288/288/2 290/290/2 285/285/2
f 289/289/39 293/293/39 292/292/39
f 289/289/39 290/290/39 293/293/39
f 291/291/2 294/294/2 293/293/2
f 291/291/2 293/293/2 290/290/2
f 295/295/40 297/297/40 296/296/40
f 295/295/40 298/298/40 297/297/40
f 299/299/2 300/300/2 297/297/2
f 299/299/2 297/297/2 298/298/2
f 296/296/40 302/302/40 301/301/40
f 296/296/40 297/297/40 302/302/40
f 300/300/2 303/303/2 302/302/2
f 300/300/2 302/302/2 297/297/2
f 301/301/40 305/305/40 304/304/40
f 301/301/40 302/302/40 305/305/40
f 303/303/2 306/306/2 305/305/2
f 303/303/2 305/305/2 302/302/2
f 304/304/41 308/308/41 307/307/41
f 304/304/41 305/305/41 308/308/41
f 306/306/2 309/309/2 308/308/2
f 306/306/2 308/308/2 305/305/2
f 307/307/41 311/311/41 310/310/41
f 307/307/41 308/308/41 311/311/41
f 309/309/2 312/312/2 311/311/2
f 309/309/2 311/311/2 308/308/2
f 313/313/42 298/298/42 295/295/42
f 313/313/42 314/314/42 298/298/42
f 315/315/2 299/299/2 298/298/2
f 315/315/2 298/298/2 314/314/2
f 316/316/43 318/318/43 317/317/43
f 316/316/43 319/319/43 318/318/43
f 320/320/2 321/321/2 318/318/2
f 320/320/2 318/318/2 319/319/2
f 317/317/44 323/323/44 322/322/44
f 317/317/44 318/318/44 323/323/44
f 321/321/2 324/324/2 323/323/2
f 321/321/2 323/323/2 318/318/2
f 322/322/44 326/326/44 325/325/44
f 322/322/44 323/323/44 326/326/44
f 324/324/2 327/327/2 326/326/2
f 324/324/2 326/326/2 323/323/2
f 325/325/44 329/329/44 328/328/44
f 325/325/44 326/326/44 329/329/44
f 327/327/2 330/330/2 329/329/2
f 327/327/2 329/329/2 326/326/2
f 328/328/44 332/332/44 331/331/44
f 328/328/44 329/329/44 332/332/44
f 330/330/2 333/333/2 332/332/2
f 330/330/2 332/332/2 329/329/2
f 331/331/45 335/335/45 334/334/45
f 331/331/45 332/332/45 335/335/45
f 333/333/2 336/336/2 335/335/2
f 333/333/2 335/335/2 332/332/2
f 337/337/46 339/339/46 338/338/46
f 337/337/46 340/340/46 339/339/46
f 341/341/2 342/342/2 339/339/2
f 341/341/2 339/339/2 340/340/2
f 338/338/47 344/344/47 343/343/47
f 338/338/47 339/339/47 344/344/47
f 342/342/2 345/345/2 344/344/2
f 342/342/2 344/344/2 339/339/2
f 343/343/47 347/347/47 346/346/47
f 343/343/47 344/344/47 347/347/47
f 345/345/2 348/348/2 347/347/2
f 345/345/2 347/347/2 344/344/2
f 346/346/47 350/350/47 349/349/47
f 346/346/47 347/347/47 350/350/47
f 348/348/2 351/351/2 350/350/2
f 348/348/2 350/350/2 347/347/2
f 349/349/47 353/353/47 352/352/47
f 349/349/47 350/350/47 353/353/47
f 351/351/2 354/354/2 353/353/2
f 351/351/2 353/353/2 350/350/2
f 355/355/48 357/357/48 356/356/48
f 355/355/48 358/358/48 357/357/48
f 359/359/2 360/360/2 357/357/2
f 359/359/2 357/357/2 358/358/2
f 356/356/48 362/362/48 361/361/48
f 356/356/48 357/357/48 362/362/48
f 360/360/2 363/363/2 362/362/2
f 360/360/2 362/362/2 357/357/2
f 361/361/49 365/365/49 364/364/49
f 361/361/49 362/362/49 365/365/49
f 363/363/2 366/366/2 365/365/2
f 363/363/2 365/365/2 362/362/2
f 364/364/49 368/368/49 367/367/49
f 364/364/49 365/365/49 368/368/49
f 366/366/2 369/369/2 368/368/2
f 366/366/2 368/368/2 365/365/2
f 367/367/49 371/371/49 370/370/49
f 367/367/49 368/368/49 371/371/49
f 369/369/2 372/372/2 371/371/2
f 369/369/2 371/371/2 368/368/2
f 370/370/49 374/374/49 373/373/49
f 370/370/49 371/371/49 374/374/49
f 372/372/2 375/375/2 374/374/2
f 372/372/2 374/374/2 371/371/2
f 376/376/50 378/378/50 377/377/50
f 376/376/50 379/379/50 378/378/50
f 380/380/2 381/381/2 378/378/2
f 380/380/2 378/378/2 379/379/2
f 382/382/51 384/384/51 383/383/51
f 382/382/51 385/385/51 384/384/51
f 386/386/2 387/387/2 384/384/2
f 386/386/2 384/384/2 385/385/2
f 383/383/51 389/389/51 388/388/51
f 383/383/51 384/384/51 389/389/51
f 387/387/2 390/390/2 389/389/2
f 387/387/2 389/389/2 384/384/2
f 388/388/51 392/392/51 391/391/51
f 388/388/51 389/389/51 392/392/51
f 390/390/2 393/393/2 392/392/2
f 390/390/2 392/392/2 389/389/2
f 391/391/51 379/379/51 376/376/51
f 391/391/51 392/392/51 379/379/51
f 393/393/2 380/380/2 379/379/2
f 393/393/2 379/379/2 392/392/2
f 394/394/52 396/396/52 395/395/52
f 394/394/52 397/397/52 396/396/52
f 398/398/2 399/399/2 396/396/2
f 398/398/2 396/396/2 397/397/2
f 400/400/53 402/402/53 401/401/53
f 400/400/53 403/403/53 402/402/53
f 404/404/2 405/405/2 402/402/2
f 404/404/2 402/402/2 403/403/2
f 401/401/54 407/407/54 406/406/54
f 401/401/54 402/402/54 407/407/54
f 405/405/2 408/408/2 407/407/2
f 405/405/2 407/407/2 402/402/2
f 406/406/54 397/397/54 394/394/54
f 406/406/54 407/407/54 397/397/54
f 408/408/2 398/398/2 397/397/2
f 408/408/2 397/397/2 407/407/2
f 409/409/55 411/411/55 410/410/55
f 409/409/55 412/412/55 411/411/55
f 413/413/2 414/414/2 411/411/2
f 413/413/2 411/411/2 412/412/2
f 410/410/55 416/416/55 415/415/55
f 410/410/55 411/411/55 416/416/55
f 414/414/2 417/417/2 416/416/2
f 414/414/2 416/416/2 411/411/2
f 415/415/55 419/419/55 418/418/55
f 415/415/55 416/416/55 419/419/55
f 417/417/2 420/420/2 419/419/2
f 417/417/2 419/419/2 416/416/2
f 418/418/56 422/422/56 421/421/56
f 418/418/56 419/419/56 422/422/56
f 420/420/2 423/423/2 422/422/2
f 420/420/2 422/422/2 419/419/2
f 424/424/57 412/412/57 409/409/57
f 424/424/57 425/425/57 412/412/57
f 426/426/2 413/413/2 412/412/2
f 426/426/2 412/412/2 425/425/2
f 427/427/58 429/429/58 428/428/58
f 427/427/58 430/430/58 429/429/58
f 431/431/2 432/432/2 429/429/2
f 431/431/2 429/429/2 430/430/2
f 428/428/58 434/434/58 433/433/58
f 428/428/58 429/429/58 434/434/58
f 432/432/2 435/435/2 434/434/2
f 432/432/2 434/434/2 429/429/2
f 433/433/59 437/437/59 436/436/59
f 433/433/59 434/434/59 437/437/59
f 435/435/2 438/438/2 437/437/2
f 435/435/2 437/437/2 434/434/2
f 439/439/60 441/441/60 440/440/60
f 439/439/60 442/442/60 441/441/60
f 443/443/2 444/444/2 441/441/2
f 443/443/2 441/441/2 442/442/2
f 440/440/60 446/446/60 445/445/60
f 440/440/60 441/441/60 446/446/60
f 444/444/2 447/447/2 446/446/2
f 444/444/2 446/446/2 441/441/2
f 445/445/60 449/449/60 448/448/60
f 445/445/60 446/446/60 449/449/60
f 447/447/2 450/450/2 449/449/2
f 447/447/2 449/449/2 446/446/2
f 448/448/61 452/452/61 451/451/61
f 448/448/61 449/449/61 452/452/61
f 450/450/2 453/453/2 452/452/2
f 450/450/2 452/452/2 449/449/2
f 454/454/62 442/442/62 439/439/62
f 454/454/62 455/455/62 442/442/62
f 456/456/2 443/443/2 442/442/2
f 456/456/2 442/442/2 455/455/2
f 457/457/63 459/459/63 458/458/63
f 457/457/63 460/460/63 459/459/63
f 461/461/2 462/462/2 459/459/2
f 461/461/2 459/459/2 460/460/2
f 458/458/64 464/464/64 463/463/64
f 458/458/64 459/459/64 464/464/64
f 462/462/2 465/465/2 464/464/2
f 462/462/2 464/464/2 459/459/2
f 463/463/64 467/467/64 466/466/64
f 463/463/64 464/464/64 467/467/64
f 465/465/2 468/468/2 467/467/2
f 465/465/2 467/467/2 464/464/2
f 466/466/64 470/470/64 469/469/64
f 466/466/64 467/467/64 470/470/64
f 468/468/2 471/471/2 470/470/2
f 468/468/2 470/470/2 467/467/2
f 469/469/65 473/473/65 472/472/65
f 469/469/65 470/470/65 473/473/65
f 471/471/2 474/474/2 473/473/2
f 471/471/2 473/473/2 470/470/2
f 475/475/66 477/477/66 476/476/66
f 475/475/66 478/478/66 477/477/66
f 479/479/2 480/480/2 477/477/2
f 479/479/2 477/477/2 478/478/2
f 476/476/66 482/482/66 481/481/66
f 476/476/66 477/477/66 482/482/66
f 480/480/2 483/483/2 482/482/2
f 480/480/2 482/482/2 477/477/2
f 481/481/67 485/485/67 484/484/67
f 481/481/67 482/482/67 485/485/67
f 483/483/2 486/486/2 485/485/2
f 483/483/2 485/485/2 482/482/2
f 487/487/68 489/489/68 488/488/68
f 487/487/68 490/490/68 489/489/68
f 491/491/2 492/492/2 489/489/2
f 491/491/2 489/489/2 490/490/2
f 488/488/68 494/494/68 493/493/68
f 488/488/68 489/489/68 494/494/68
f 492/492/2 495/495/2 494/494/2
f 492/492/2 494/494/2 489/489/2
f 493/493/69 497/497/69 496/496/69
f 493/493/69 494/494/69 497/497/69
f 495/495/2 498/498/2 497/497/2
f 495/495/2 497/497/2 494/494/2
f 496/496/69 500/500/69 499/499/69
f 496/496/69 497/497/69 500/500/69
f 498/498/2 501/501/2 500/500/2
f 498/498/2 500/500/2 497/497/2
f 502/502/70 504/504/70 503/503/70
f 502/502/70 505/505/70 504/504/70
f 506/506/2 507/507/2 504/504/2
f 506/506/2 504/504/2 505/505/2
f 503/503/71 509/509/71 508/508/71
f 503/503/71 504/504/71 509/509/71
f 507/507/2 510/510/2 509/509/2
f 507/507/2 509/509/2 504/504/2
f 508/508/71 512/512/71 511/511/71
f 508/508/71 509/509/71 512/512/71
f 510/510/2 513/513/2 512/512/2
f 510/510/2 512/512/2 509/509/2
f 511/511/71 515/515/71 514/514/71
f 511/511/71 512/512/71 515/515/71
f 513/513/2 516/516/2 515/515/2
f 513/513/2 515/515/2 512/512/2
f 514/514/71 518/518/71 517/517/71
f 514/514/71 515/515/71 518/518/71
f 516/516/2 519/519/2 518/518/2
f 516/516/2 518/518/2 515/515/2
f 517/517/71 521/521/71 520/520/71
f 517/517/71 518/518/71 521/521/71
f 519/519/2 522/522/2 521/521/2
f 519/519/2 521/521/2 518/518/2
f 520/520/72 524/524/72 523/523/72
f 520/520/72 521/521/72 524/524/72
f 522/522/2 525/525/2 524/524/2
f 522/522/2 524/524/2 521/521/2
f 526/526/73 528/528/73 527/527/73
f 526/526/73 529/529/73 528/528/73
f 530/530/2 531/531/2 528/528/2
f 530/530/2 528/528/2 529/529/2
f 527/527/73 533/533/73 532/532/73
f 527/527/73 528/528/73 533/533/73
f 531/531/2 534/534/2 533/533/2
f 531/531/2 533/533/2 528/528/2
f 532/532/74 536/536/74 535/535/74
f 532/532/74 533/533/74 536/536/74
f 534/534/2 537/537/2 536/536/2
f 534/534/2 536/536/2 533/533/2
f 535/535/74 539/539/74 538/538/74
f 535/535/74 536/536/74 539/539/74
f 537/537/2 540/540/2 539/539/2
f 537/537/2 539/539/2 536/536/2
f 538/538/74 542/542/74 541/541/74
f 538/538/74 539/539/74 542/542/74
f 540/540/2 543/543/2 542/542/2
f 540/540/2 542/542/2 539/539/2
f 541/541/75 545/545/75 544/544/75
f 541/541/75 542/542/75 545/545/75
f 543/543/2 546/546/2 545/545/2
f 543/543/2 545/545/2 542/542/2
f 547/547/76 549/549/76 548/548/76
f 547/547/76 550/550/76 549/549/76
f 551/551/2 552/552/2 549/549/2
f 551/551/2 549/549/2 550/550/2
f 553/553/77 555/555/77 554/554/77
f 553/553/77 556/556/77 555/555/77
f 557/557/2 558/558/2 555/555/2
f 557/557/2 555/555/2 556/556/2
f 554/554/77 560/560/77 559/559/77
f 554/554/77 555/555/77 560/560/77
f 558/558/2 561/561/2 560/560/2
f 558/558/2 560/560/2 555/555/2
f 559/559/72 563/563/72 562/562/72
f 559/559/72 560/560/72 563/563/72
f 561/561/2 564/564/2 563/563/2
f 561/561/2 563/563/2 560/560/2
f 565/565/78 567/567/78 566/566/78
f 565/565/78 568/568/78 567/567/78
f 569/569/2 570/570/2 567/567/2
f 569/569/2 567/567/2 568/568/2
f 566/566/79 572/572/79 571/571/79
f 566/566/79 567/567/79 572/572/79
f 570/570/2 573/573/2 572/572/2
f 570/570/2 572/572/2 567/567/2
f 571/571/79 550/550/79 547/547/79
f 571/571/79 572/572/79 550/550/79
f 573/573/2 551/551/2 550/550/2
f 573/573/2 550/550/2 572/572/2
f 574/574/80 576/576/80 575/575/80
f 574/574/80 577/577/80 576/576/80
f 578/578/2 579/579/2 576/576/2
f 578/578/2 576/576/2 577/577/2
f 575/575/80 581/581/80 580/580/80
f 575/575/80 576/576/80 581/581/80
f 579/579/2 582/582/2 581/581/2
f 579/579/2 581/581/2 576/576/2
f 580/580/80 584/584/80 583/583/80
f 580/580/80 581/581/80 584/584/80
f 582/582/2 585/585/2 584/584/2
f 582/582/2 584/584/2 581/581/2
f 583/583/80 587/587/80 586/586/80
f 583/583/80 584/584/80 587/587/80
f 585/585/2 588/588/2 587/587/2
f 585/585/2 587/587/2 584/584/2
f 586/586/81 590/590/81 589/589/81
f 586/586/81 587/587/81 590/590/81
f 588/588/2 591/591/2 590/590/2
f 588/588/2 590/590/2 587/587/2
f 589/589/81 593/593/81 592/592/81
f 589/589/81 590/590/81 593/593/81
f 591/591/2 594/594/2 593/593/2
f 591/591/2 593/593/2 590/590/2
f 592/592/81 596/596/81 595/595/81
f 592/592/81 593/593/81 596/596/81
f 594/594/2 597/597/2 596/596/2
f 594/594/2 596/596/2 593/593/2
f 595/595/82 599/599/82 598/598/82
f 595/595/82 596/596/82 599/599/82
f 597/597/2 600/600/2 599/599/2
f 597/597/2 599/599/2 596/596/2
f 598/598/82 602/602/82 601/601/82
f 598/598/82 599/599/82 602/602/82
f 600/600/2 603/603/2 602/602/2
f 600/600/2 602/602/2 599/599/2
