# Unreal legacy OBJ adapter: canonical vertices are UE cm; this file is written with Y reflected and triangle winding reversed. One object, no g groups, so the importer creates exactly one material slot.
# OldCityFoundationV2 foundations (plinth + stepped footing); generator 463404ba754c804f514fe655944ece4eb51a92e1273fec326ad5c2ebfbb18f24
# AUTHORED detail in the style of Old City stone foundations, not survey
o SM_OldCityFoundationV2_Kept_N004_P003
s off
v -197221.33 -162405.61 -1224.83
v -197076.11 -162020.84 -1209.44
v -197076.11 -162020.84 -1169.70
v -197221.33 -162405.61 -1169.70
v -197211.01 -162400.94 -1169.70
v -197067.12 -162019.67 -1169.70
v -196937.07 -161652.43 -1194.70
v -196937.07 -161652.43 -1169.70
v -196929.34 -161654.62 -1169.70
v -195804.51 -162939.26 -1194.70
v -196371.81 -162725.14 -1217.39
v -196371.81 -162725.14 -1169.70
v -195804.51 -162939.26 -1169.70
v -195805.62 -162930.29 -1169.70
v -196369.96 -162717.28 -1169.70
v -196557.84 -162654.92 -1224.83
v -196557.84 -162654.92 -1169.70
v -196555.02 -162647.43 -1169.70
v -196624.51 -162629.87 -1227.50
v -196624.51 -162629.87 -1169.70
v -196620.94 -162622.66 -1169.70
v -196738.95 -162586.87 -1227.50
v -196738.95 -162586.87 -1169.70
v -196734.08 -162580.15 -1169.70
v -197043.49 -162472.43 -1227.50
v -197043.49 -162472.43 -1169.70
v -197035.18 -162467.01 -1169.70
v -195151.56 -158373.23 -1058.48
v -195094.01 -157967.18 -1028.30
v -195094.01 -157967.18 -1003.30
v -195151.56 -158373.23 -1003.30
v -195142.52 -158366.43 -1003.30
v -195085.60 -157964.88 -1003.30
v -194144.51 -158515.07 -1028.30
v -195040.90 -158388.82 -1064.16
v -195040.90 -158388.82 -1003.30
v -194144.51 -158515.07 -1003.30
v -194141.05 -158507.48 -1003.30
v -195032.47 -158381.93 -1003.30
v -183320.57 -153648.49 -706.70
v -183393.86 -154241.78 -727.50
v -183393.86 -154241.78 -681.70
v -183320.57 -153648.49 -681.70
v -183328.69 -153648.93 -681.70
v -183401.58 -154239.02 -681.70
v -183484.11 -154972.43 -727.50
v -183484.11 -154972.43 -681.70
v -183491.35 -154965.74 -681.70
v -183535.06 -155384.85 -727.50
v -183535.06 -155384.85 -681.70
v -183542.02 -155375.94 -681.70
v -183736.94 -155360.01 -727.50
v -183736.94 -155360.01 -681.70
v -183741.66 -155351.37 -681.70
v -184124.51 -155312.32 -727.50
v -184124.51 -155312.32 -681.70
v -184124.94 -155304.20 -681.70
v -184427.15 -155275.07 -739.61
v -184427.15 -155275.07 -681.70
v -184424.23 -155267.37 -681.70
v -184968.94 -155208.40 -736.94
v -184968.94 -155208.40 -681.70
v -184960.01 -155201.44 -681.70
v -184939.67 -154972.43 -727.50
v -184939.67 -154972.43 -681.70
v -184930.90 -154966.67 -681.70
v -184875.17 -154452.43 -706.70
v -184875.17 -154452.43 -681.70
v -184866.72 -154449.30 -681.70
v -179633.20 -164752.24 -959.39
v -180504.20 -163852.12 -993.06
v -180504.20 -163852.12 -924.50
v -179633.20 -164752.24 -924.50
v -179633.01 -164740.94 -924.50
v -180495.78 -163849.32 -924.50
v -180810.83 -163535.24 -979.98
v -180810.83 -163535.24 -924.50
v -180799.51 -163535.43 -924.50
v -180684.09 -163412.86 -965.12
v -180684.09 -163412.86 -924.50
v -180674.34 -163414.57 -924.50
v -180550.89 -163284.24 -949.50
v -180550.89 -163284.24 -924.50
v -180542.80 -163287.55 -924.50
v -179549.85 -164671.77 -949.50
v -179549.85 -164671.77 -924.50
v -179550.75 -164661.52 -924.50
v -174854.51 -165085.40 -856.70
v -174971.74 -164972.43 -861.39
v -174971.74 -164972.43 -831.70
v -174854.51 -165085.40 -831.70
v -174850.02 -165078.62 -831.70
v -174966.05 -164966.80 -831.70
v -175813.42 -164161.33 -895.06
v -175813.42 -164161.33 -831.70
v -175799.14 -164163.98 -831.70
v -175892.09 -164085.52 -885.84
v -175892.09 -164085.52 -831.70
v -175877.01 -164088.94 -831.70
v -175660.77 -164008.69 -888.95
v -175660.77 -164008.69 -831.70
v -175648.61 -164013.08 -831.70
v -175231.00 -163865.95 -871.76
v -175231.00 -163865.95 -831.70
v -175224.27 -163872.15 -831.70
v -174854.51 -163740.91 -856.70
v -174854.51 -163740.91 -831.70
v -174852.55 -163748.69 -831.70
v -164844.57 -157645.74 -705.63
v -165016.36 -157472.43 -691.83
v -165016.36 -157472.43 -666.20
v -164844.57 -157645.74 -666.20
v -164844.51 -157634.43 -666.20
v -165014.68 -157462.76 -666.20
v -165032.01 -157456.64 -691.20
v -165032.01 -157456.64 -666.20
v -165030.20 -157447.11 -666.20
v -165032.01 -155435.58 -691.20
v -164910.95 -155316.14 -696.04
v -164910.95 -155316.14 -666.20
v -165032.01 -155435.58 -666.20
v -165030.86 -155445.68 -666.20
v -164911.01 -155327.44 -666.20
v -164690.63 -155538.55 -704.86
v -164690.63 -155538.55 -666.20
v -164692.65 -155547.89 -666.20
v -164275.83 -155957.31 -721.45
v -164275.83 -155957.31 -666.20
v -164281.51 -155962.94 -666.20
v -164124.51 -156109.84 -727.50
v -164124.51 -156109.84 -666.20
v -164131.71 -156113.95 -666.20
v -163711.19 -156526.50 -710.97
v -163711.19 -156526.50 -666.20
v -163722.51 -156526.44 -666.20
v -164124.51 -156934.66 -727.50
v -164124.51 -156934.66 -666.20
v -164131.69 -156930.51 -666.20
v -164395.09 -157201.86 -716.68
v -164395.09 -157201.86 -666.20
v -164399.54 -157195.02 -666.20
v -164669.08 -157472.43 -705.72
v -164669.08 -157472.43 -666.20
v -164670.78 -157462.87 -666.20
v -160028.34 -157641.40 -634.26
v -160217.69 -157472.43 -627.50
v -160217.69 -157472.43 -590.80
v -160028.34 -157641.40 -590.80
v -160023.01 -157635.43 -590.80
v -160210.66 -157467.99 -590.80
v -160689.32 -157051.57 -627.50
v -160689.32 -157051.57 -590.80
v -160678.02 -157050.94 -590.80
v -160149.28 -156447.67 -627.50
v -160149.28 -156447.67 -590.80
v -160142.94 -156452.58 -590.80
v -159528.66 -155753.65 -627.50
v -159528.66 -155753.65 -590.80
v -159528.02 -155764.94 -590.80
v -159124.51 -156114.43 -627.50
v -159124.51 -156114.43 -590.80
v -159128.24 -156121.84 -590.80
v -158832.01 -156375.56 -615.80
v -158832.01 -156375.56 -590.80
v -158838.89 -156380.14 -590.80
v -158832.01 -157201.88 -615.80
v -159073.85 -157472.43 -625.47
v -159073.85 -157472.43 -590.80
v -158832.01 -157201.88 -590.80
v -158839.54 -157198.29 -590.80
v -159079.15 -157466.36 -590.80
v -159097.76 -157499.18 -626.43
v -159097.76 -157499.18 -590.80
v -159102.85 -157492.86 -590.80
v -159124.51 -157529.11 -627.50
v -159124.51 -157529.11 -590.80
v -159129.35 -157522.52 -590.80
v -159581.37 -158040.22 -645.77
v -159581.37 -158040.22 -590.80
v -159582.01 -158028.93 -590.80
v -159639.99 -157987.91 -648.12
v -159639.99 -157987.91 -590.80
v -159639.85 -157977.32 -590.80
v -161309.33 -160885.21 -714.89
v -161017.65 -160579.29 -703.23
v -161017.65 -160579.29 -668.70
v -161309.33 -160885.21 -668.70
v -161298.01 -160884.93 -668.70
v -161010.31 -160583.19 -668.70
v -160779.51 -160329.53 -693.70
v -160779.51 -160329.53 -668.70
v -160775.42 -160336.83 -668.70
v -158825.30 -161627.43 -693.70
v -158545.45 -161893.37 -704.34
v -158545.45 -161893.37 -668.70
v -158825.30 -161627.43 -668.70
v -158833.64 -161630.54 -668.70
v -158555.93 -161894.45 -668.70
v -158435.19 -161998.15 -699.93
v -158435.19 -161998.15 -668.70
v -158446.51 -161998.43 -668.70
v -158886.89 -162472.43 -718.00
v -158886.89 -162472.43 -668.70
v -158894.52 -162468.83 -668.70
v -159002.81 -162594.14 -717.76
v -159002.81 -162594.14 -668.70
v -159009.48 -162589.55 -668.70
v -159110.73 -162707.46 -717.55
v -159110.73 -162707.46 -668.70
v -159116.52 -162701.94 -668.70
v -159124.51 -162721.90 -717.52
v -159124.51 -162721.90 -668.70
v -159130.14 -162716.21 -668.70
v -159580.74 -163199.74 -698.41
v -159580.74 -163199.74 -668.70
v -159581.01 -163188.44 -668.70
v -159719.68 -163067.59 -703.69
v -159719.68 -163067.59 -668.70
v -159718.73 -163057.45 -668.70
v -160240.53 -162572.23 -723.51
v -160240.53 -162572.23 -668.70
v -160235.01 -162566.43 -668.70
v -160345.56 -162472.43 -727.50
v -160345.56 -162472.43 -668.70
v -160338.80 -162467.83 -668.70
v -160727.34 -162109.71 -712.99
v -160727.34 -162109.71 -668.70
v -160716.02 -162109.43 -668.70
v -160391.34 -161757.71 -698.91
v -160391.34 -161757.71 -668.70
v -160380.02 -161757.43 -668.70
v -160528.41 -161627.43 -693.70
v -160528.41 -161627.43 -668.70
v -160517.09 -161627.16 -668.70
v -160779.51 -161388.77 -693.70
v -160779.51 -161388.77 -668.70
v -160768.19 -161388.50 -668.70
v -159898.02 -152276.11 -511.79
v -159840.90 -152182.43 -504.30
v -159840.90 -152182.43 -479.30
v -159898.02 -152276.11 -479.30
v -159887.01 -152273.43 -479.30
v -159830.88 -152181.37 -479.30
v -158594.10 -152422.84 -504.30
v -158624.37 -152472.43 -507.49
v -158624.37 -152472.43 -479.30
v -158594.10 -152422.84 -479.30
v -158601.72 -152419.97 -479.30
v -158631.47 -152468.71 -479.30
v -158813.95 -152783.00 -527.50
v -158813.95 -152783.00 -479.30
v -158817.78 -152773.92 -479.30
v -158881.34 -152893.41 -534.61
v -158881.34 -152893.41 -479.30
v -158884.01 -152882.43 -479.30
v -159124.51 -152745.76 -538.43
v -159124.51 -152745.76 -479.30
v -159123.91 -152736.77 -479.30
v -159294.58 -152642.50 -534.30
v -159294.58 -152642.50 -479.30
v -159291.70 -152634.90 -479.30
v -159574.68 -152472.43 -527.50
v -159574.68 -152472.43 -479.30
v -159568.03 -152467.11 -479.30
v -157878.66 -151131.18 -420.20
v -157905.85 -151191.10 -424.99
v -157905.85 -151191.10 -395.20
v -157878.66 -151131.18 -395.20
v -157884.91 -151125.59 -395.20
v -157911.80 -151184.85 -395.20
v -157957.90 -151305.81 -434.17
v -157957.90 -151305.81 -395.20
v -157963.27 -151298.30 -395.20
v -158085.03 -151586.02 -450.46
v -158085.03 -151586.02 -395.20
v -158089.01 -151575.44 -395.20
v -158190.39 -151538.31 -452.77
v -158190.39 -151538.31 -395.20
v -158193.37 -151528.18 -395.20
v -159089.39 -151131.18 -420.20
v -159089.39 -151131.18 -395.20
v -159083.81 -151124.93 -395.20
v -155724.10 -159554.73 -591.48
v -155963.86 -159311.78 -601.07
v -155963.86 -159311.78 -536.50
v -155724.10 -159554.73 -536.50
v -155724.01 -159543.43 -536.50
v -155962.57 -159301.70 -536.50
v -156624.51 -158642.34 -574.30
v -156624.51 -158642.34 -536.50
v -156619.89 -158635.64 -536.50
v -156940.23 -158322.43 -561.50
v -156940.23 -158322.43 -536.50
v -156934.01 -158317.34 -536.50
v -157474.51 -157781.04 -561.50
v -157779.07 -157472.43 -573.68
v -157779.07 -157472.43 -536.50
v -157474.51 -157781.04 -536.50
v -157465.60 -157778.68 -536.50
v -157768.62 -157471.63 -536.50
v -157952.84 -157296.35 -580.63
v -157952.84 -157296.35 -536.50
v -157941.52 -157296.43 -536.50
v -157474.51 -156826.12 -561.50
v -157474.51 -156826.12 -536.50
v -157467.89 -156830.83 -536.50
v -154974.51 -158817.29 -561.50
v -155058.91 -158900.13 -564.88
v -155058.91 -158900.13 -536.50
v -154974.51 -158817.29 -536.50
v -154981.09 -158812.54 -536.50
v -155064.51 -158894.43 -536.50
v -155128.41 -158968.53 -567.66
v -155128.41 -158968.53 -536.50
v -155133.43 -158962.24 -536.50
v -153947.14 -155735.27 -520.40
v -154124.51 -155612.28 -527.50
v -154124.51 -155612.28 -465.40
v -153947.14 -155735.27 -465.40
v -153948.01 -155724.93 -465.40
v -154124.75 -155602.38 -465.40
v -154502.36 -155350.28 -527.50
v -154502.36 -155350.28 -465.40
v -154501.24 -155341.32 -465.40
v -155047.27 -154972.43 -527.50
v -155047.27 -154972.43 -465.40
v -155044.19 -154964.83 -465.40
v -155978.67 -154326.59 -501.67
v -155978.67 -154326.59 -465.40
v -155972.25 -154321.31 -465.40
v -156384.86 -154044.93 -490.40
v -156384.86 -154044.93 -465.40
v -156376.98 -154040.66 -465.40
v -157166.55 -153502.90 -490.40
v -157454.98 -153302.90 -493.94
v -157454.98 -153302.90 -465.40
v -157166.55 -153502.90 -465.40
v -157155.86 -153500.58 -465.40
v -157443.25 -153301.29 -465.40
v -157474.31 -153289.49 -494.17
v -157474.31 -153289.49 -465.40
v -157462.51 -153287.94 -465.40
v -157431.07 -153238.38 -490.40
v -157431.07 -153238.38 -465.40
v -157419.36 -153236.92 -465.40
v -153197.01 -155700.20 -490.40
v -153627.00 -155421.63 -507.60
v -153627.00 -155421.63 -465.40
v -153197.01 -155700.20 -465.40
v -153198.19 -155689.91 -465.40
v -153628.02 -155411.43 -465.40
v -153651.41 -155445.54 -508.58
v -153651.41 -155445.54 -465.40
v -153652.42 -155435.34 -465.40
v -156033.96 -166174.38 -555.80
v -156441.31 -165821.23 -586.22
v -156441.31 -165821.23 -530.80
v -156033.96 -166174.38 -530.80
v -156026.85 -166169.96 -530.80
v -156430.02 -165820.43 -530.80
v -156131.86 -165465.09 -588.09
v -156131.86 -165465.09 -530.80
v -156123.01 -165467.09 -530.80
v -155703.80 -164972.43 -590.67
v -155703.80 -164972.43 -530.80
v -155698.32 -164978.32 -530.80
v -155108.81 -164287.65 -566.87
v -155108.81 -164287.65 -530.80
v -155108.01 -164298.93 -530.80
v -154832.01 -164527.60 -555.80
v -154832.01 -164527.60 -530.80
v -154834.62 -164535.92 -530.80
v -154150.75 -158231.24 -528.55
v -154525.78 -157873.69 -543.55
v -154525.78 -157873.69 -473.60
v -154150.75 -158231.24 -473.60
v -154151.01 -158219.93 -473.60
v -154522.69 -157865.58 -473.60
v -154946.66 -157472.43 -527.50
v -154946.66 -157472.43 -473.60
v -154939.82 -157467.90 -473.60
v -155449.34 -156993.19 -527.50
v -155449.34 -156993.19 -473.60
v -155438.01 -156992.93 -473.60
v -155035.85 -156561.10 -527.50
v -155035.85 -156561.10 -473.60
v -155028.53 -156565.01 -473.60
v -154304.78 -155797.13 -527.50
v -154304.78 -155797.13 -473.60
v -154304.52 -155808.43 -473.60
v -154124.51 -155968.99 -527.50
v -154124.51 -155968.99 -473.60
v -154125.86 -155978.76 -473.60
v -153402.01 -156657.81 -498.60
v -153402.01 -156657.81 -473.60
v -153409.81 -156661.43 -473.60
v -153402.01 -157448.34 -498.60
v -153425.10 -157472.43 -499.52
v -153425.10 -157472.43 -473.60
v -153402.01 -157448.34 -473.60
v -153409.53 -157444.62 -473.60
v -153432.39 -157468.48 -473.60
v -153582.24 -157636.46 -505.81
v -153582.24 -157636.46 -473.60
v -153588.01 -157630.93 -473.60
v -153767.09 -157829.85 -513.20
v -153767.09 -157829.85 -473.60
v -153771.08 -157822.45 -473.60
v -154124.51 -158203.79 -527.50
v -154124.51 -158203.79 -473.60
v -154125.03 -158192.75 -473.60
v -153173.36 -150807.89 -360.92
v -153680.82 -150352.54 -342.70
v -153680.82 -150352.54 -310.00
v -153173.36 -150807.89 -310.00
v -153168.02 -150801.94 -310.00
v -153669.51 -150351.94 -310.00
v -153507.44 -150159.93 -335.00
v -153507.44 -150159.93 -310.00
v -153497.59 -150160.95 -310.00
v -151812.01 -150523.66 -335.00
v -152561.91 -151356.72 -365.00
v -152561.91 -151356.72 -310.00
v -151812.01 -150523.66 -310.00
v -151818.92 -150519.38 -310.00
v -152562.51 -151345.43 -310.00
v -152797.42 -151145.34 -374.42
v -152797.42 -151145.34 -310.00
v -152795.73 -151136.10 -310.00
v -154775.82 -167034.52 -471.07
v -154674.60 -166922.34 -471.51
v -154674.60 -166922.34 -415.60
v -154775.82 -167034.52 -415.60
v -154764.51 -167033.93 -415.60
v -154664.02 -166922.56 -415.60
v -154124.51 -166312.71 -473.89
v -154124.51 -166312.71 -415.60
v -154117.89 -166317.31 -415.60
v -153684.59 -165825.16 -440.60
v -153684.59 -165825.16 -415.60
v -153681.14 -165833.27 -415.60
v -154374.71 -167395.13 -440.60
v -154374.71 -167395.13 -415.60
v -154368.52 -167389.94 -415.60
v -150504.13 -153509.14 -368.97
v -150818.33 -153199.00 -356.56
v -150818.33 -153199.00 -313.70
v -150504.13 -153509.14 -313.70
v -150498.51 -153503.44 -313.70
v -150807.01 -153198.93 -313.70
v -150377.25 -152752.43 -338.70
v -150377.25 -152752.43 -313.70
v -150368.30 -152754.75 -313.70
v -149404.51 -153562.36 -338.70
v -149919.43 -154083.73 -359.30
v -149919.43 -154083.73 -313.70
v -149404.51 -153562.36 -313.70
v -149410.11 -153556.64 -313.70
v -149919.51 -154072.43 -313.70
v -150331.18 -153679.10 -375.77
v -150331.18 -153679.10 -313.70
v -150327.25 -153671.74 -313.70
vt -87.0393 -3.0621
vt -87.6382 -3.0236
vt -87.6382 -2.9243
vt -87.0393 -2.9243
vt -87.0252 -2.9243
vt -87.6186 -2.9243
vt -88.2116 -2.9868
vt -88.2116 -2.9243
vt -88.1868 -2.9243
vt -82.1631 -2.9868
vt -84.1167 -3.0435
vt -84.1167 -2.9243
vt -82.1631 -2.9243
vt -82.1883 -2.9243
vt -84.1317 -2.9243
vt -84.7573 -3.0621
vt -84.7573 -2.9243
vt -84.7690 -2.9243
vt -84.9866 -3.0688
vt -84.9866 -2.9243
vt -84.9957 -2.9243
vt -85.3802 -3.0688
vt -85.3802 -2.9243
vt -85.3848 -2.9243
vt -86.4276 -3.0688
vt -86.4276 -2.9243
vt -86.4204 -2.9243
vt -91.9458 -2.6462
vt -92.8171 -2.5707
vt -92.8171 -2.5082
vt -91.9458 -2.5082
vt -91.9402 -2.5082
vt -92.8018 -2.5082
vt -89.0736 -2.5707
vt -91.6302 -2.6604
vt -91.6302 -2.5082
vt -89.0736 -2.5082
vt -89.0839 -2.5082
vt -91.6264 -2.5082
vt -74.1802 -1.7668
vt -72.8802 -1.8188
vt -72.8802 -1.7043
vt -74.1802 -1.7043
vt -74.1994 -1.7043
vt -72.9064 -1.7043
vt -71.2792 -1.8188
vt -71.2792 -1.7043
vt -71.3140 -1.7043
vt -70.3755 -1.8188
vt -70.3755 -1.7043
vt -70.4152 -1.7043
vt -70.9423 -1.8188
vt -70.9423 -1.7043
vt -70.9757 -1.7043
vt -72.0305 -1.8188
vt -72.0305 -1.7043
vt -72.0518 -1.7043
vt -72.8802 -1.8490
vt -72.8802 -1.7043
vt -72.8922 -1.7043
vt -74.4014 -1.8424
vt -74.4014 -1.7043
vt -74.3964 -1.7043
vt -74.9181 -1.8188
vt -74.9181 -1.7043
vt -74.9106 -1.7043
vt -76.0569 -1.7668
vt -76.0569 -1.7043
vt -76.0436 -1.7043
vt -37.2024 -2.3985
vt -41.6302 -2.4827
vt -41.6302 -2.3112
vt -37.2024 -2.3112
vt -37.2302 -2.3112
vt -41.6161 -2.3112
vt -43.1890 -2.4499
vt -43.1890 -2.3112
vt -43.1602 -2.3112
vt -43.1781 -2.4128
vt -43.1781 -2.3112
vt -43.1494 -2.3112
vt -43.1666 -2.3737
vt -43.1666 -2.3112
vt -43.1381 -2.3112
vt -37.1952 -2.3737
vt -37.1952 -2.3112
vt -37.2231 -2.3112
vt -24.4228 -2.1418
vt -24.9983 -2.1535
vt -24.9983 -2.0793
vt -24.4228 -2.0793
vt -24.4285 -2.0793
vt -24.9981 -2.0793
vt -29.1302 -2.2376
vt -29.1302 -2.0793
vt -29.0879 -2.0793
vt -29.5164 -2.2146
vt -29.5164 -2.0793
vt -29.4702 -2.0793
vt -29.1302 -2.2224
vt -29.1302 -2.0793
vt -29.0888 -2.0793
vt -28.4126 -2.1794
vt -28.4126 -2.0793
vt -28.3803 -2.0793
vt -27.7840 -2.1418
vt -27.7840 -2.0793
vt -27.7596 -2.0793
vt -17.9971 -1.7641
vt -18.8598 -1.7296
vt -18.8598 -1.6655
vt -17.9971 -1.6655
vt -18.0252 -1.6655
vt -18.8798 -1.6655
vt -18.9384 -1.7280
vt -18.9384 -1.6655
vt -18.9577 -1.6655
vt -23.9911 -1.7280
vt -23.9870 -1.7401
vt -23.9870 -1.6655
vt -23.9911 -1.6655
vt -23.9629 -1.6655
vt -23.9589 -1.6655
vt -22.8802 -1.7622
vt -22.8802 -1.6655
vt -22.8619 -1.6655
vt -20.7963 -1.8036
vt -20.7963 -1.6655
vt -20.7964 -1.6655
vt -20.0367 -1.8188
vt -20.0367 -1.6655
vt -20.0444 -1.6655
vt -17.9617 -1.7774
vt -17.9617 -1.6655
vt -17.9902 -1.6655
vt -17.9746 -1.8188
vt -17.9746 -1.6655
vt -18.0029 -1.6655
vt -17.9831 -1.7917
vt -17.9831 -1.6655
vt -18.0113 -1.6655
vt -17.9916 -1.7643
vt -17.9916 -1.6655
vt -18.0198 -1.6655
vt -5.9674 -1.5857
vt -6.8632 -1.5688
vt -6.8632 -1.4770
vt -5.9674 -1.4770
vt -5.9690 -1.4770
vt -6.8567 -1.4770
vt -9.0944 -1.5688
vt -9.0944 -1.4770
vt -9.0677 -1.4770
vt -9.2540 -1.5688
vt -9.2540 -1.4770
vt -9.2259 -1.4770
vt -9.4375 -1.5688
vt -9.4375 -1.4770
vt -9.4077 -1.4770
vt -7.5252 -1.5688
vt -7.5252 -1.4770
vt -7.5160 -1.4770
vt -6.1411 -1.5395
vt -6.1411 -1.4770
vt -6.1469 -1.4770
vt -4.0753 -1.5395
vt -4.0036 -1.5637
vt -4.0036 -1.4770
vt -4.0753 -1.4770
vt -4.1031 -1.4770
vt -4.0320 -1.4770
vt -3.9965 -1.5661
vt -3.9965 -1.4770
vt -4.0250 -1.4770
vt -3.9885 -1.5688
vt -3.9885 -1.4770
vt -4.0171 -1.4770
vt -3.8529 -1.6144
vt -3.8529 -1.4770
vt -3.8827 -1.4770
vt -4.1302 -1.6203
vt -4.1302 -1.4770
vt -4.1563 -1.4770
vt -1.0603 -1.7872
vt -1.0959 -1.7581
vt -1.0959 -1.6718
vt -1.0603 -1.6718
vt -1.0327 -1.6718
vt -1.0678 -1.6718
vt -1.1250 -1.7343
vt -1.1250 -1.6718
vt -1.0965 -1.6718
vt 7.0053 -1.7343
vt 8.3698 -1.7609
vt 8.3698 -1.6718
vt 7.0053 -1.6718
vt 6.9922 -1.6718
vt 8.3463 -1.6718
vt 8.9074 -1.7498
vt 8.9074 -1.6718
vt 8.8798 -1.6718
vt 8.9638 -1.7950
vt 8.9638 -1.6718
vt 8.9358 -1.6718
vt 8.9783 -1.7944
vt 8.9783 -1.6718
vt 8.9502 -1.6718
vt 8.9918 -1.7939
vt 8.9918 -1.6718
vt 8.9636 -1.6718
vt 8.9935 -1.7938
vt 8.9935 -1.6718
vt 8.9652 -1.6718
vt 9.0475 -1.7460
vt 9.0475 -1.6718
vt 9.0186 -1.6718
vt 8.3698 -1.7592
vt 8.3698 -1.6718
vt 8.3468 -1.6718
vt 5.8293 -1.8088
vt 5.8293 -1.6718
vt 5.8285 -1.6718
vt 5.3172 -1.8188
vt 5.3172 -1.6718
vt 5.3226 -1.6718
vt 3.4559 -1.7825
vt 3.4559 -1.6718
vt 3.4835 -1.6718
vt 3.4159 -1.7473
vt 3.4159 -1.6718
vt 3.4435 -1.6718
vt 2.7475 -1.7343
vt 2.7475 -1.6718
vt 2.7752 -1.6718
vt 1.5231 -1.7343
vt 1.5231 -1.6718
vt 1.5508 -1.6718
vt -19.0548 -1.2795
vt -19.1462 -1.2608
vt -19.1462 -1.1983
vt -19.0548 -1.1983
vt -19.0340 -1.1983
vt -19.1238 -1.1983
vt -15.4282 -1.2608
vt -15.3799 -1.2687
vt -15.3799 -1.1983
vt -15.4282 -1.1983
vt -15.4544 -1.1983
vt -15.4069 -1.1983
vt -15.0774 -1.3188
vt -15.0774 -1.1983
vt -15.1096 -1.1983
vt -14.9698 -1.3365
vt -14.9698 -1.1983
vt -15.0040 -1.1983
vt -15.9469 -1.3461
vt -15.9469 -1.1983
vt -15.9679 -1.1983
vt -16.6302 -1.3357
vt -16.6302 -1.1983
vt -16.6420 -1.1983
vt -17.7556 -1.3188
vt -17.7556 -1.1983
vt -17.7523 -1.1983
vt -16.8687 -1.0505
vt -16.7869 -1.0625
vt -16.7869 -0.9880
vt -16.8687 -0.9880
vt -16.8983 -0.9880
vt -16.8174 -0.9880
vt -16.6302 -1.0854
vt -16.6302 -0.9880
vt -16.6624 -0.9880
vt -16.2475 -1.1261
vt -16.2475 -0.9880
vt -16.2839 -0.9880
vt -16.6302 -1.1319
vt -16.6302 -0.9880
vt -16.6630 -0.9880
vt -19.8955 -1.0505
vt -19.8955 -0.9880
vt -19.8972 -0.9880
vt 9.5766 -1.4787
vt 8.3698 -1.5027
vt 8.3698 -1.3413
vt 9.5766 -1.3413
vt 9.5485 -1.3413
vt 8.3478 -1.3413
vt 5.0446 -1.4357
vt 5.0446 -1.3413
vt 5.0394 -1.3413
vt 3.4555 -1.4038
vt 3.4555 -1.3413
vt 3.4583 -1.3413
vt 0.7663 -1.4038
vt -0.7666 -1.4342
vt -0.7666 -1.3413
vt 0.7663 -1.3413
vt 0.7827 -1.3413
vt -0.7425 -1.3413
vt -1.6412 -1.4516
vt -1.6412 -1.3413
vt -1.6127 -1.3413
vt -1.6210 -1.4038
vt -1.6210 -1.3413
vt -1.5927 -1.3413
vt 9.6069 -1.4038
vt 9.6031 -1.4122
vt 9.6031 -1.3413
vt 9.6069 -1.3413
vt 9.5786 -1.3413
vt 9.5748 -1.3413
vt 9.6003 -1.4191
vt 9.6003 -1.3413
vt 9.5720 -1.3413
vt 4.4703 -1.3010
vt 3.7194 -1.3188
vt 3.7194 -1.1635
vt 4.4703 -1.1635
vt 4.4423 -1.1635
vt 3.6941 -1.1635
vt 2.1198 -1.3188
vt 2.1198 -1.1635
vt 2.1002 -1.1635
vt -0.1871 -1.3188
vt -0.1871 -1.1635
vt -0.1984 -1.1635
vt -4.1302 -1.2542
vt -4.1302 -1.1635
vt -4.1274 -1.1635
vt -5.8498 -1.2260
vt -5.8498 -1.1635
vt -5.8408 -1.1635
vt -9.1591 -1.2260
vt -10.3802 -1.2349
vt -10.3802 -1.1635
vt -9.1591 -1.1635
vt -9.1382 -1.1635
vt -10.3549 -1.1635
vt -10.4621 -1.2354
vt -10.4621 -1.1635
vt -10.4364 -1.1635
vt -10.4817 -1.2260
vt -10.4817 -1.1635
vt -10.4561 -1.1635
vt 6.2580 -1.2260
vt 4.4866 -1.2690
vt 4.4866 -1.1635
vt 6.2580 -1.1635
vt 6.2293 -1.1635
vt 4.4585 -1.1635
vt 4.4853 -1.2714
vt 4.4853 -1.1635
vt 4.4573 -1.1635
vt 25.3511 -1.3895
vt 23.4498 -1.4656
vt 23.4498 -1.3270
vt 25.3511 -1.3270
vt 25.3578 -1.3270
vt 23.4760 -1.3270
vt 23.3331 -1.4702
vt 23.3331 -1.3270
vt 23.3602 -1.3270
vt 23.1716 -1.4767
vt 23.1716 -1.3270
vt 23.2000 -1.3270
vt 22.9471 -1.4172
vt 22.9471 -1.3270
vt 22.9773 -1.3270
vt 24.2390 -1.3895
vt 24.2390 -1.3270
vt 24.2533 -1.3270
vt 10.2012 -1.3214
vt 8.3698 -1.3589
vt 8.3698 -1.1840
vt 10.2012 -1.1840
vt 10.1723 -1.1840
vt 8.3572 -1.1840
vt 6.3144 -1.3188
vt 6.3144 -1.1840
vt 6.3202 -1.1840
vt 3.8596 -1.3188
vt 3.8596 -1.1840
vt 3.8873 -1.1840
vt 3.8131 -1.3188
vt 3.8131 -1.1840
vt 3.8412 -1.1840
vt 3.7309 -1.3188
vt 3.7309 -1.1840
vt 3.7598 -1.1840
vt 4.6112 -1.3188
vt 4.6112 -1.1840
vt 4.6323 -1.1840
vt 8.1395 -1.2465
vt 8.1395 -1.1840
vt 8.1290 -1.1840
vt 10.1158 -1.2465
vt 10.1183 -1.2488
vt 10.1183 -1.1840
vt 10.1158 -1.1840
vt 10.0877 -1.1840
vt 10.0902 -1.1840
vt 10.1356 -1.2645
vt 10.1356 -1.1840
vt 10.1073 -1.1840
vt 10.1569 -1.2830
vt 10.1569 -1.1840
vt 10.1284 -1.1840
vt 10.1982 -1.3188
vt 10.1982 -1.1840
vt 10.1693 -1.1840
vt -5.9137 -0.9023
vt -8.3207 -0.8568
vt -8.3207 -0.7750
vt -5.9137 -0.7750
vt -5.9152 -0.7750
vt -8.2939 -0.7750
vt -8.3688 -0.8375
vt -8.3688 -0.7750
vt -8.3416 -0.7750
vt -3.2209 -0.8375
vt -3.0130 -0.9125
vt -3.0130 -0.7750
vt -3.2209 -0.7750
vt -3.2489 -0.7750
vt -3.0427 -0.7750
vt -4.1302 -0.9361
vt -4.1302 -0.7750
vt -4.1491 -0.7750
vt 30.6467 -1.1777
vt 30.6193 -1.1788
vt 30.6193 -1.0390
vt 30.6467 -1.0390
vt 30.6735 -1.0390
vt 30.6464 -1.0390
vt 30.4705 -1.1847
vt 30.4705 -1.0390
vt 30.4985 -1.0390
vt 30.3514 -1.1015
vt 30.3514 -1.0390
vt 30.3803 -1.0390
vt 32.5511 -1.1015
vt 32.5511 -1.0390
vt 32.5536 -1.0390
vt 7.5125 -0.9224
vt 5.9517 -0.8914
vt 5.9517 -0.7843
vt 7.5125 -0.7843
vt 7.5123 -0.7843
vt 5.9798 -0.7843
vt 5.9379 -0.8468
vt 5.9379 -0.7843
vt 5.9661 -0.7843
vt 10.3946 -0.8468
vt 10.4108 -0.8982
vt 10.4108 -0.7843
vt 10.3946 -0.7843
vt 10.3663 -0.7843
vt 10.3823 -0.7843
vt 8.3698 -0.9394
vt 8.3698 -0.7843
vt 8.3612 -0.7843
vn -0.9356 0.3531 0.0000
vn 0.0000 -0.0000 1.0000
vn -0.3531 -0.9356 0.0000
vn -0.3517 -0.9361 0.0000
vn -0.9901 0.1403 0.0000
vn -0.1395 -0.9902 0.0000
vn 0.9925 -0.1226 0.0000
vn -0.1221 -0.9925 0.0000
vn -0.9924 0.1231 0.0000
vn -0.7186 -0.6954 0.0000
vn -0.6946 0.7194 0.0000
vn 0.6946 -0.7194 0.0000
vn -0.6939 -0.7201 0.0000
vn -0.3152 0.9490 0.0000
vn -0.7102 -0.7040 0.0000
vn -0.7023 0.7118 0.0000
vn 0.7104 0.7037 0.0000
vn 0.7099 0.7043 0.0000
vn 0.7027 -0.7115 0.0000
vn -0.6658 -0.7461 0.0000
vn -0.7454 0.6666 0.0000
vn 0.6660 0.7460 0.0000
vn 0.7456 -0.6664 0.0000
vn -0.6658 -0.7462 0.0000
vn -0.7237 0.6901 0.0000
vn 0.6889 0.7249 0.0000
vn 0.7241 -0.6897 0.0000
vn 0.7233 -0.6906 0.0000
vn -0.6892 -0.7246 0.0000
vn -0.6888 -0.7250 0.0000
vn -0.7234 0.6905 0.0000
vn -0.6889 -0.7248 0.0000
vn -0.8538 0.5206 0.0000
vn 0.8536 -0.5210 0.0000
vn -0.5190 -0.8548 0.0000
vn 0.9107 -0.4132 0.0000
vn -0.4125 -0.9109 0.0000
vn -0.7118 -0.7024 0.0000
vn -0.7010 0.7131 0.0000
vn 0.7005 -0.7136 0.0000
vn 0.7014 -0.7128 0.0000
vn -0.5698 -0.8218 0.0000
vn -0.7635 0.6458 0.0000
vn -0.5437 -0.8393 0.0000
vn 0.6998 -0.7143 0.0000
vn -0.6551 -0.7556 0.0000
vn -0.7549 0.6559 0.0000
vn 0.6550 0.7556 0.0000
vn -0.6900 -0.7238 0.0000
vn -0.7225 0.6914 0.0000
vn 0.6900 0.7238 0.0000
vn 0.7221 -0.6918 0.0000
vn 0.7229 -0.6910 0.0000
vn -0.6679 -0.7443 0.0000
vn -0.7432 0.6690 0.0000
vn 0.7432 -0.6690 0.0000
vn -0.6680 -0.7442 0.0000
vn -0.7424 0.6699 0.0000
vn -0.6686 -0.7437 0.0000
vn -0.7025 -0.7117 0.0000
vn -0.7115 0.7027 0.0000
vn 0.7115 -0.7027 0.0000
vn -0.7009 -0.7132 0.0000
f 1/1/1 3/3/1 2/2/1
f 1/1/1 4/4/1 3/3/1
f 5/5/2 6/6/2 3/3/2
f 5/5/2 3/3/2 4/4/2
f 2/2/1 8/8/1 7/7/1
f 2/2/1 3/3/1 8/8/1
f 6/6/2 9/9/2 8/8/2
f 6/6/2 8/8/2 3/3/2
f 10/10/3 12/12/3 11/11/3
f 10/10/3 13/13/3 12/12/3
f 14/14/2 15/15/2 12/12/2
f 14/14/2 12/12/2 13/13/2
f 11/11/3 17/17/3 16/16/3
f 11/11/3 12/12/3 17/17/3
f 15/15/2 18/18/2 17/17/2
f 15/15/2 17/17/2 12/12/2
f 16/16/4 20/20/4 19/19/4
f 16/16/4 17/17/4 20/20/4
f 18/18/2 21/21/2 20/20/2
f 18/18/2 20/20/2 17/17/2
f 19/19/4 23/23/4 22/22/4
f 19/19/4 20/20/4 23/23/4
f 21/21/2 24/24/2 23/23/2
f 21/21/2 23/23/2 20/20/2
f 22/22/4 26/26/4 25/25/4
f 22/22/4 23/23/4 26/26/4
f 24/24/2 27/27/2 26/26/2
f 24/24/2 26/26/2 23/23/2
f 25/25/4 4/4/4 1/1/4
f 25/25/4 26/26/4 4/4/4
f 27/27/2 5/5/2 4/4/2
f 27/27/2 4/4/2 26/26/2
f 28/28/5 30/30/5 29/29/5
f 28/28/5 31/31/5 30/30/5
f 32/32/2 33/33/2 30/30/2
f 32/32/2 30/30/2 31/31/2
f 34/34/6 36/36/6 35/35/6
f 34/34/6 37/37/6 36/36/6
f 38/38/2 39/39/2 36/36/2
f 38/38/2 36/36/2 37/37/2
f 35/35/6 31/31/6 28/28/6
f 35/35/6 36/36/6 31/31/6
f 39/39/2 32/32/2 31/31/2
f 39/39/2 31/31/2 36/36/2
f 40/40/7 42/42/7 41/41/7
f 40/40/7 43/43/7 42/42/7
f 44/44/2 45/45/2 42/42/2
f 44/44/2 42/42/2 43/43/2
f 41/41/7 47/47/7 46/46/7
f 41/41/7 42/42/7 47/47/7
f 45/45/2 48/48/2 47/47/2
f 45/45/2 47/47/2 42/42/2
f 46/46/7 50/50/7 49/49/7
f 46/46/7 47/47/7 50/50/7
f 48/48/2 51/51/2 50/50/2
f 48/48/2 50/50/2 47/47/2
f 49/49/8 53/53/8 52/52/8
f 49/49/8 50/50/8 53/53/8
f 51/51/2 54/54/2 53/53/2
f 51/51/2 53/53/2 50/50/2
f 52/52/8 56/56/8 55/55/8
f 52/52/8 53/53/8 56/56/8
f 54/54/2 57/57/2 56/56/2
f 54/54/2 56/56/2 53/53/2
f 55/55/8 59/59/8 58/58/8
f 55/55/8 56/56/8 59/59/8
f 57/57/2 60/60/2 59/59/2
f 57/57/2 59/59/2 56/56/2
f 58/58/8 62/62/8 61/61/8
f 58/58/8 59/59/8 62/62/8
f 60/60/2 63/63/2 62/62/2
f 60/60/2 62/62/2 59/59/2
f 61/61/9 65/65/9 64/64/9
f 61/61/9 62/62/9 65/65/9
f 63/63/2 66/66/2 65/65/2
f 63/63/2 65/65/2 62/62/2
f 64/64/9 68/68/9 67/67/9
f 64/64/9 65/65/9 68/68/9
f 66/66/2 69/69/2 68/68/2
f 66/66/2 68/68/2 65/65/2
f 70/70/10 72/72/10 71/71/10
f 70/70/10 73/73/10 72/72/10
f 74/74/2 75/75/2 72/72/2
f 74/74/2 72/72/2 73/73/2
f 71/71/10 77/77/10 76/76/10
f 71/71/10 72/72/10 77/77/10
f 75/75/2 78/78/2 77/77/2
f 75/75/2 77/77/2 72/72/2
f 76/76/11 80/80/11 79/79/11
f 76/76/11 77/77/11 80/80/11
f 78/78/2 81/81/2 80/80/2
f 78/78/2 80/80/2 77/77/2
f 79/79/11 83/83/11 82/82/11
f 79/79/11 80/80/11 83/83/11
f 81/81/2 84/84/2 83/83/2
f 81/81/2 83/83/2 80/80/2
f 85/85/12 73/73/12 70/70/12
f 85/85/12 86/86/12 73/73/12
f 87/87/2 74/74/2 73/73/2
f 87/87/2 73/73/2 86/86/2
f 88/88/13 90/90/13 89/89/13
f 88/88/13 91/91/13 90/90/13
f 92/92/2 93/93/2 90/90/2
f 92/92/2 90/90/2 91/91/2
f 89/89/13 95/95/13 94/94/13
f 89/89/13 90/90/13 95/95/13
f 93/93/2 96/96/2 95/95/2
f 93/93/2 95/95/2 90/90/2
f 94/94/13 98/98/13 97/97/13
f 94/94/13 95/95/13 98/98/13
f 96/96/2 99/99/2 98/98/2
f 96/96/2 98/98/2 95/95/2
f 97/97/14 101/101/14 100/100/14
f 97/97/14 98/98/14 101/101/14
f 99/99/2 102/102/2 101/101/2
f 99/99/2 101/101/2 98/98/2
f 100/100/14 104/104/14 103/103/14
f 100/100/14 101/101/14 104/104/14
f 102/102/2 105/105/2 104/104/2
f 102/102/2 104/104/2 101/101/2
f 103/103/14 107/107/14 106/106/14
f 103/103/14 104/104/14 107/107/14
f 105/105/2 108/108/2 107/107/2
f 105/105/2 107/107/2 104/104/2
f 109/109/15 111/111/15 110/110/15
f 109/109/15 112/112/15 111/111/15
f 113/113/2 114/114/2 111/111/2
f 113/113/2 111/111/2 112/112/2
f 110/110/15 116/116/15 115/115/15
f 110/110/15 111/111/15 116/116/15
f 114/114/2 117/117/2 116/116/2
f 114/114/2 116/116/2 111/111/2
f 118/118/16 120/120/16 119/119/16
f 118/118/16 121/121/16 120/120/16
f 122/122/2 123/123/2 120/120/2
f 122/122/2 120/120/2 121/121/2
f 119/119/17 125/125/17 124/124/17
f 119/119/17 120/120/17 125/125/17
f 123/123/2 126/126/2 125/125/2
f 123/123/2 125/125/2 120/120/2
f 124/124/17 128/128/17 127/127/17
f 124/124/17 125/125/17 128/128/17
f 126/126/2 129/129/2 128/128/2
f 126/126/2 128/128/2 125/125/2
f 127/127/18 131/131/18 130/130/18
f 127/127/18 128/128/18 131/131/18
f 129/129/2 132/132/2 131/131/2
f 129/129/2 131/131/2 128/128/2
f 130/130/18 134/134/18 133/133/18
f 130/130/18 131/131/18 134/134/18
f 132/132/2 135/135/2 134/134/2
f 132/132/2 134/134/2 131/131/2
f 133/133/19 137/137/19 136/136/19
f 133/133/19 134/134/19 137/137/19
f 135/135/2 138/138/2 137/137/2
f 135/135/2 137/137/2 134/134/2
f 136/136/19 140/140/19 139/139/19
f 136/136/19 137/137/19 140/140/19
f 138/138/2 141/141/2 140/140/2
f 138/138/2 140/140/2 137/137/2
f 139/139/19 143/143/19 142/142/19
f 139/139/19 140/140/19 143/143/19
f 141/141/2 144/144/2 143/143/2
f 141/141/2 143/143/2 140/140/2
f 142/142/19 112/112/19 109/109/19
f 142/142/19 143/143/19 112/112/19
f 144/144/2 113/113/2 112/112/2
f 144/144/2 112/112/2 143/143/2
f 145/145/20 147/147/20 146/146/20
f 145/145/20 148/148/20 147/147/20
f 149/149/2 150/150/2 147/147/2
f 149/149/2 147/147/2 148/148/2
f 146/146/20 152/152/20 151/151/20
f 146/146/20 147/147/20 152/152/20
f 150/150/2 153/153/2 152/152/2
f 150/150/2 152/152/2 147/147/2
f 151/151/21 155/155/21 154/154/21
f 151/151/21 152/152/21 155/155/21
f 153/153/2 156/156/2 155/155/2
f 153/153/2 155/155/2 152/152/2
f 154/154/21 158/158/21 157/157/21
f 154/154/21 155/155/21 158/158/21
f 156/156/2 159/159/2 158/158/2
f 156/156/2 158/158/2 155/155/2
f 157/157/22 161/161/22 160/160/22
f 157/157/22 158/158/22 161/161/22
f 159/159/2 162/162/2 161/161/2
f 159/159/2 161/161/2 158/158/2
f 160/160/22 164/164/22 163/163/22
f 160/160/22 161/161/22 164/164/22
f 162/162/2 165/165/2 164/164/2
f 162/162/2 164/164/2 161/161/2
f 166/166/23 168/168/23 167/167/23
f 166/166/23 169/169/23 168/168/23
f 170/170/2 171/171/2 168/168/2
f 170/170/2 168/168/2 169/169/2
f 167/167/23 173/173/23 172/172/23
f 167/167/23 168/168/23 173/173/23
f 171/171/2 174/174/2 173/173/2
f 171/171/2 173/173/2 168/168/2
f 172/172/23 176/176/23 175/175/23
f 172/172/23 173/173/23 176/176/23
f 174/174/2 177/177/2 176/176/2
f 174/174/2 176/176/2 173/173/2
f 175/175/23 179/179/23 178/178/23
f 175/175/23 176/176/23 179/179/23
f 177/177/2 180/180/2 179/179/2
f 177/177/2 179/179/2 176/176/2
f 178/178/24 182/182/24 181/181/24
f 178/178/24 179/179/24 182/182/24
f 180/180/2 183/183/2 182/182/2
f 180/180/2 182/182/2 179/179/2
f 181/181/24 148/148/24 145/145/24
f 181/181/24 182/182/24 148/148/24
f 183/183/2 149/149/2 148/148/2
f 183/183/2 148/148/2 182/182/2
f 184/184/25 186/186/25 185/185/25
f 184/184/25 187/187/25 186/186/25
f 188/188/2 189/189/2 186/186/2
f 188/188/2 186/186/2 187/187/2
f 185/185/25 191/191/25 190/190/25
f 185/185/25 186/186/25 191/191/25
f 189/189/2 192/192/2 191/191/2
f 189/189/2 191/191/2 186/186/2
f 193/193/26 195/195/26 194/194/26
f 193/193/26 196/196/26 195/195/26
f 197/197/2 198/198/2 195/195/2
f 197/197/2 195/195/2 196/196/2
f 194/194/26 200/200/26 199/199/26
f 194/194/26 195/195/26 200/200/26
f 198/198/2 201/201/2 200/200/2
f 198/198/2 200/200/2 195/195/2
f 199/199/27 203/203/27 202/202/27
f 199/199/27 200/200/27 203/203/27
f 201/201/2 204/204/2 203/203/2
f 201/201/2 203/203/2 200/200/2
f 202/202/27 206/206/27 205/205/27
f 202/202/27 203/203/27 206/206/27
f 204/204/2 207/207/2 206/206/2
f 204/204/2 206/206/2 203/203/2
f 205/205/27 209/209/27 208/208/27
f 205/205/27 206/206/27 209/209/27
f 207/207/2 210/210/2 209/209/2
f 207/207/2 209/209/2 206/206/2
f 208/208/28 212/212/28 211/211/28
f 208/208/28 209/209/28 212/212/28
f 210/210/2 213/213/2 212/212/2
f 210/210/2 212/212/2 209/209/2
f 211/211/28 215/215/28 214/214/28
f 211/211/28 212/212/28 215/215/28
f 213/213/2 216/216/2 215/215/2
f 213/213/2 215/215/2 212/212/2
f 214/214/29 218/218/29 217/217/29
f 214/214/29 215/215/29 218/218/29
f 216/216/2 219/219/2 218/218/2
f 216/216/2 218/218/2 215/215/2
f 217/217/29 221/221/29 220/220/29
f 217/217/29 218/218/29 221/221/29
f 219/219/2 222/222/2 221/221/2
f 219/219/2 221/221/2 218/218/2
f 220/220/30 224/224/30 223/223/30
f 220/220/30 221/221/30 224/224/30
f 222/222/2 225/225/2 224/224/2
f 222/222/2 224/224/2 221/221/2
f 223/223/30 227/227/30 226/226/30
f 223/223/30 224/224/30 227/227/30
f 225/225/2 228/228/2 227/227/2
f 225/225/2 227/227/2 224/224/2
f 226/226/31 230/230/31 229/229/31
f 226/226/31 227/227/31 230/230/31
f 228/228/2 231/231/2 230/230/2
f 228/228/2 230/230/2 227/227/2
f 229/229/32 233/233/32 232/232/32
f 229/229/32 230/230/32 233/233/32
f 231/231/2 234/234/2 233/233/2
f 231/231/2 233/233/2 230/230/2
f 235/235/32 187/187/32 184/184/32
f 235/235/32 236/236/32 187/187/32
f 237/237/2 188/188/2 187/187/2
f 237/237/2 187/187/2 236/236/2
f 238/238/33 240/240/33 239/239/33
f 238/238/33 241/241/33 240/240/33
f 242/242/2 243/243/2 240/240/2
f 242/242/2 240/240/2 241/241/2
f 244/244/34 246/246/34 245/245/34
f 244/244/34 247/247/34 246/246/34
f 248/248/2 249/249/2 246/246/2
f 248/248/2 246/246/2 247/247/2
f 245/245/34 251/251/34 250/250/34
f 245/245/34 246/246/34 251/251/34
f 249/249/2 252/252/2 251/251/2
f 249/249/2 251/251/2 246/246/2
f 250/250/34 254/254/34 253/253/34
f 250/250/34 251/251/34 254/254/34
f 252/252/2 255/255/2 254/254/2
f 252/252/2 254/254/2 251/251/2
f 253/253/35 257/257/35 256/256/35
f 253/253/35 254/254/35 257/257/35
f 255/255/2 258/258/2 257/257/2
f 255/255/2 257/257/2 254/254/2
f 256/256/35 260/260/35 259/259/35
f 256/256/35 257/257/35 260/260/35
f 258/258/2 261/261/2 260/260/2
f 258/258/2 260/260/2 257/257/2
f 259/259/35 263/263/35 262/262/35
f 259/259/35 260/260/35 263/263/35
f 261/261/2 264/264/2 263/263/2
f 261/261/2 263/263/2 260/260/2
f 262/262/35 241/241/35 238/238/35
f 262/262/35 263/263/35 241/241/35
f 264/264/2 242/242/2 241/241/2
f 264/264/2 241/241/2 263/263/2
f 265/265/36 267/267/36 266/266/36
f 265/265/36 268/268/36 267/267/36
f 269/269/2 270/270/2 267/267/2
f 269/269/2 267/267/2 268/268/2
f 266/266/36 272/272/36 271/271/36
f 266/266/36 267/267/36 272/272/36
f 270/270/2 273/273/2 272/272/2
f 270/270/2 272/272/2 267/267/2
f 271/271/36 275/275/36 274/274/36
f 271/271/36 272/272/36 275/275/36
f 273/273/2 276/276/2 275/275/2
f 273/273/2 275/275/2 272/272/2
f 274/274/37 278/278/37 277/277/37
f 274/274/37 275/275/37 278/278/37
f 276/276/2 279/279/2 278/278/2
f 276/276/2 278/278/2 275/275/2
f 277/277/37 281/281/37 280/280/37
f 277/277/37 278/278/37 281/281/37
f 279/279/2 282/282/2 281/281/2
f 279/279/2 281/281/2 278/278/2
f 283/283/38 285/285/38 284/284/38
f 283/283/38 286/286/38 285/285/38
f 287/287/2 288/288/2 285/285/2
f 287/287/2 285/285/2 286/286/2
f 284/284/38 290/290/38 289/289/38
f 284/284/38 285/285/38 290/290/38
f 288/288/2 291/291/2 290/290/2
f 288/288/2 290/290/2 285/285/2
f 289/289/38 293/293/38 292/292/38
f 289/289/38 290/290/38 293/293/38
f 291/291/2 294/294/2 293/293/2
f 291/291/2 293/293/2 290/290/2
f 295/295/38 297/297/38 296/296/38
f 295/295/38 298/298/38 297/297/38
f 299/299/2 300/300/2 297/297/2
f 299/299/2 297/297/2 298/298/2
f 296/296/38 302/302/38 301/301/38
f 296/296/38 297/297/38 302/302/38
f 300/300/2 303/303/2 302/302/2
f 300/300/2 302/302/2 297/297/2
f 301/301/39 305/305/39 304/304/39
f 301/301/39 302/302/39 305/305/39
f 303/303/2 306/306/2 305/305/2
f 303/303/2 305/305/2 302/302/2
f 307/307/40 309/309/40 308/308/40
f 307/307/40 310/310/40 309/309/40
f 311/311/2 312/312/2 309/309/2
f 311/311/2 309/309/2 310/310/2
f 308/308/41 314/314/41 313/313/41
f 308/308/41 309/309/41 314/314/41
f 312/312/2 315/315/2 314/314/2
f 312/312/2 314/314/2 309/309/2
f 313/313/41 286/286/41 283/283/41
f 313/313/41 314/314/41 286/286/41
f 315/315/2 287/287/2 286/286/2
f 315/315/2 286/286/2 314/314/2
f 316/316/42 318/318/42 317/317/42
f 316/316/42 319/319/42 318/318/42
f 320/320/2 321/321/2 318/318/2
f 320/320/2 318/318/2 319/319/2
f 317/317/42 323/323/42 322/322/42
f 317/317/42 318/318/42 323/323/42
f 321/321/2 324/324/2 323/323/2
f 321/321/2 323/323/2 318/318/2
f 322/322/42 326/326/42 325/325/42
f 322/322/42 323/323/42 326/326/42
f 324/324/2 327/327/2 326/326/2
f 324/324/2 326/326/2 323/323/2
f 325/325/42 329/329/42 328/328/42
f 325/325/42 326/326/42 329/329/42
f 327/327/2 330/330/2 329/329/2
f 327/327/2 329/329/2 326/326/2
f 328/328/42 332/332/42 331/331/42
f 328/328/42 329/329/42 332/332/42
f 330/330/2 333/333/2 332/332/2
f 330/330/2 332/332/2 329/329/2
f 334/334/42 336/336/42 335/335/42
f 334/334/42 337/337/42 336/336/42
f 338/338/2 339/339/2 336/336/2
f 338/338/2 336/336/2 337/337/2
f 335/335/42 341/341/42 340/340/42
f 335/335/42 336/336/42 341/341/42
f 339/339/2 342/342/2 341/341/2
f 339/339/2 341/341/2 336/336/2
f 340/340/43 344/344/43 343/343/43
f 340/340/43 341/341/43 344/344/43
f 342/342/2 345/345/2 344/344/2
f 342/342/2 344/344/2 341/341/2
f 346/346/44 348/348/44 347/347/44
f 346/346/44 349/349/44 348/348/44
f 350/350/2 351/351/2 348/348/2
f 350/350/2 348/348/2 349/349/2
f 347/347/45 353/353/45 352/352/45
f 347/347/45 348/348/45 353/353/45
f 351/351/2 354/354/2 353/353/2
f 351/351/2 353/353/2 348/348/2
f 352/352/45 319/319/45 316/316/45
f 352/352/45 353/353/45 319/319/45
f 354/354/2 320/320/2 319/319/2
f 354/354/2 319/319/2 353/353/2
f 355/355/46 357/357/46 356/356/46
f 355/355/46 358/358/46 357/357/46
f 359/359/2 360/360/2 357/357/2
f 359/359/2 357/357/2 358/358/2
f 356/356/47 362/362/47 361/361/47
f 356/356/47 357/357/47 362/362/47
f 360/360/2 363/363/2 362/362/2
f 360/360/2 362/362/2 357/357/2
f 361/361/47 365/365/47 364/364/47
f 361/361/47 362/362/47 365/365/47
f 363/363/2 366/366/2 365/365/2
f 363/363/2 365/365/2 362/362/2
f 364/364/47 368/368/47 367/367/47
f 364/364/47 365/365/47 368/368/47
f 366/366/2 369/369/2 368/368/2
f 366/366/2 368/368/2 365/365/2
f 367/367/48 371/371/48 370/370/48
f 367/367/48 368/368/48 371/371/48
f 369/369/2 372/372/2 371/371/2
f 369/369/2 371/371/2 368/368/2
f 373/373/49 375/375/49 374/374/49
f 373/373/49 376/376/49 375/375/49
f 377/377/2 378/378/2 375/375/2
f 377/377/2 375/375/2 376/376/2
f 374/374/49 380/380/49 379/379/49
f 374/374/49 375/375/49 380/380/49
f 378/378/2 381/381/2 380/380/2
f 378/378/2 380/380/2 375/375/2
f 379/379/49 383/383/49 382/382/49
f 379/379/49 380/380/49 383/383/49
f 381/381/2 384/384/2 383/383/2
f 381/381/2 383/383/2 380/380/2
f 382/382/50 386/386/50 385/385/50
f 382/382/50 383/383/50 386/386/50
f 384/384/2 387/387/2 386/386/2
f 384/384/2 386/386/2 383/383/2
f 385/385/50 389/389/50 388/388/50
f 385/385/50 386/386/50 389/389/50
f 387/387/2 390/390/2 389/389/2
f 387/387/2 389/389/2 386/386/2
f 388/388/51 392/392/51 391/391/51
f 388/388/51 389/389/51 392/392/51
f 390/390/2 393/393/2 392/392/2
f 390/390/2 392/392/2 389/389/2
f 391/391/51 395/395/51 394/394/51
f 391/391/51 392/392/51 395/395/51
f 393/393/2 396/396/2 395/395/2
f 393/393/2 395/395/2 392/392/2
f 397/397/52 399/399/52 398/398/52
f 397/397/52 400/400/52 399/399/52
f 401/401/2 402/402/2 399/399/2
f 401/401/2 399/399/2 400/400/2
f 398/398/52 404/404/52 403/403/52
f 398/398/52 399/399/52 404/404/52
f 402/402/2 405/405/2 404/404/2
f 402/402/2 404/404/2 399/399/2
f 403/403/53 407/407/53 406/406/53
f 403/403/53 404/404/53 407/407/53
f 405/405/2 408/408/2 407/407/2
f 405/405/2 407/407/2 404/404/2
f 406/406/53 410/410/53 409/409/53
f 406/406/53 407/407/53 410/410/53
f 408/408/2 411/411/2 410/410/2
f 408/408/2 410/410/2 407/407/2
f 409/409/53 376/376/53 373/373/53
f 409/409/53 410/410/53 376/376/53
f 411/411/2 377/377/2 376/376/2
f 411/411/2 376/376/2 410/410/2
f 412/412/54 414/414/54 413/413/54
f 412/412/54 415/415/54 414/414/54
f 416/416/2 417/417/2 414/414/2
f 416/416/2 414/414/2 415/415/2
f 413/413/55 419/419/55 418/418/55
f 413/413/55 414/414/55 419/419/55
f 417/417/2 420/420/2 419/419/2
f 417/417/2 419/419/2 414/414/2
f 421/421/56 423/423/56 422/422/56
f 421/421/56 424/424/56 423/423/56
f 425/425/2 426/426/2 423/423/2
f 425/425/2 423/423/2 424/424/2
f 422/422/57 428/428/57 427/427/57
f 422/422/57 423/423/57 428/428/57
f 426/426/2 429/429/2 428/428/2
f 426/426/2 428/428/2 423/423/2
f 427/427/57 415/415/57 412/412/57
f 427/427/57 428/428/57 415/415/57
f 429/429/2 416/416/2 415/415/2
f 429/429/2 415/415/2 428/428/2
f 430/430/58 432/432/58 431/431/58
f 430/430/58 433/433/58 432/432/58
f 434/434/2 435/435/2 432/432/2
f 434/434/2 432/432/2 433/433/2
f 431/431/58 437/437/58 436/436/58
f 431/431/58 432/432/58 437/437/58
f 435/435/2 438/438/2 437/437/2
f 435/435/2 437/437/2 432/432/2
f 436/436/58 440/440/58 439/439/58
f 436/436/58 437/437/58 440/440/58
f 438/438/2 441/441/2 440/440/2
f 438/438/2 440/440/2 437/437/2
f 442/442/59 433/433/59 430/430/59
f 442/442/59 443/443/59 433/433/59
f 444/444/2 434/434/2 433/433/2
f 444/444/2 433/433/2 443/443/2
f 445/445/60 447/447/60 446/446/60
f 445/445/60 448/448/60 447/447/60
f 449/449/2 450/450/2 447/447/2
f 449/449/2 447/447/2 448/448/2
f 446/446/61 452/452/61 451/451/61
f 446/446/61 447/447/61 452/452/61
f 450/450/2 453/453/2 452/452/2
f 450/450/2 452/452/2 447/447/2
f 454/454/62 456/456/62 455/455/62
f 454/454/62 457/457/62 456/456/62
f 458/458/2 459/459/2 456/456/2
f 458/458/2 456/456/2 457/457/2
f 455/455/63 461/461/63 460/460/63
f 455/455/63 456/456/63 461/461/63
f 459/459/2 462/462/2 461/461/2
f 459/459/2 461/461/2 456/456/2
f 460/460/63 448/448/63 445/445/63
f 460/460/63 461/461/63 448/448/63
f 462/462/2 449/449/2 448/448/2
f 462/462/2 448/448/2 461/461/2
