# Unreal legacy OBJ adapter: canonical vertices are UE cm; this file is written with Y reflected and triangle winding reversed. One object, no g groups, so the importer creates exactly one material slot.
# OldCityFoundationV2 foundations (plinth + stepped footing); generator 463404ba754c804f514fe655944ece4eb51a92e1273fec326ad5c2ebfbb18f24
# AUTHORED detail in the style of Old City stone foundations, not survey
o SM_OldCityFoundationV2_Precinct_P002_P001
s off
v 101532.49 -78565.42 -7597.50
v 101666.61 -78521.33 -7601.10
v 101666.61 -78521.33 -7572.50
v 101532.49 -78565.42 -7572.50
v 101528.26 -78575.24 -7572.50
v 101661.49 -78531.44 -7572.50
v 101828.77 -79019.14 -7627.50
v 101828.77 -79019.14 -7572.50
v 101821.58 -79022.89 -7572.50
v 102051.03 -79701.42 -7627.50
v 102051.03 -79701.42 -7572.50
v 102040.99 -79696.43 -7572.50
v 101270.62 -79972.43 -7627.50
v 101270.62 -79972.43 -7572.50
v 101265.70 -79965.67 -7572.50
v 100977.34 -80074.28 -7627.50
v 100977.34 -80074.28 -7572.50
v 100974.34 -80066.85 -7572.50
v 100875.49 -80109.65 -7627.50
v 100875.49 -80109.65 -7572.50
v 100873.16 -80101.99 -7572.50
v 100665.26 -80182.66 -7652.73
v 100665.26 -80182.66 -7572.50
v 100664.31 -80174.52 -7572.50
v 99777.10 -80491.10 -7620.17
v 99777.10 -80491.10 -7572.50
v 99781.99 -80480.93 -7572.50
v 99748.64 -80410.86 -7597.50
v 99748.64 -80410.86 -7572.50
v 99753.88 -80401.70 -7572.50
v 103199.70 -51910.56 -3476.90
v 103313.80 -51922.83 -3495.65
v 103313.80 -51922.83 -3451.90
v 103199.70 -51910.56 -3451.90
v 103193.22 -51917.91 -3451.90
v 103304.99 -51929.93 -3451.90
v 103266.32 -52363.27 -3505.67
v 103266.32 -52363.27 -3451.90
v 103258.30 -52363.01 -3451.90
v 103254.55 -52472.43 -3508.15
v 103254.55 -52472.43 -3451.90
v 103246.73 -52470.35 -3451.90
v 103239.94 -52607.98 -3511.23
v 103239.94 -52607.98 -3451.90
v 103232.36 -52603.63 -3451.90
v 103211.08 -52875.75 -3507.77
v 103211.08 -52875.75 -3451.90
v 103203.98 -52866.93 -3451.90
v 102995.48 -52852.43 -3481.90
v 102995.48 -52852.43 -3451.90
v 102992.79 -52844.10 -3451.90
v 102965.06 -52849.15 -3476.90
v 102965.06 -52849.15 -3451.90
v 102962.99 -52840.87 -3451.90
v 105171.99 -51768.68 -3830.50
v 105192.28 -51770.81 -3834.73
v 105192.28 -51770.81 -3805.50
v 105171.99 -51768.68 -3805.50
v 105163.45 -51775.82 -3805.50
v 105183.48 -51777.93 -3805.50
v 105190.52 -51787.46 -3835.71
v 105190.52 -51787.46 -3805.50
v 105181.74 -51794.39 -3805.50
v 105118.15 -52472.43 -3876.03
v 105118.15 -52472.43 -3805.50
v 105110.22 -52471.40 -3805.50
v 105047.60 -53140.23 -3861.92
v 105047.60 -53140.23 -3805.50
v 105040.49 -53131.44 -3805.50
v 104890.49 -53123.68 -3830.50
v 104890.49 -53123.68 -3805.50
v 104885.42 -53115.10 -3805.50
v 104576.91 -78279.10 -7963.90
v 104697.66 -78650.26 -7997.71
v 104697.66 -78650.26 -7938.90
v 104576.91 -78279.10 -7938.90
v 104569.04 -78280.77 -7938.90
v 104688.24 -78647.18 -7938.90
v 104746.02 -78798.92 -7995.49
v 104746.02 -78798.92 -7938.90
v 104735.99 -78793.94 -7938.90
v 104713.34 -78810.29 -7988.04
v 104713.34 -78810.29 -7938.90
v 104703.52 -78805.23 -7938.90
v 104607.37 -78847.15 -7963.90
v 104607.37 -78847.15 -7938.90
v 104598.25 -78841.85 -7938.90
v 108895.31 -62409.18 -6574.70
v 108953.84 -62472.43 -6596.90
v 108953.84 -62472.43 -6549.70
v 108895.31 -62409.18 -6549.70
v 108885.24 -62410.08 -6549.70
v 108943.18 -62472.69 -6549.70
v 108990.52 -62512.07 -6606.06
v 108990.52 -62512.07 -6549.70
v 108979.49 -62511.93 -6549.70
v 108706.72 -62803.67 -6607.00
v 108706.72 -62803.67 -6549.70
v 108697.61 -62801.57 -6549.70
v 108375.49 -63144.02 -6608.09
v 108375.49 -63144.02 -6549.70
v 108368.61 -63139.62 -6549.70
v 108234.42 -63288.97 -6574.70
v 108234.42 -63288.97 -6549.70
v 108228.49 -63283.59 -6549.70
v 113516.14 -58760.53 -6956.10
v 113618.27 -58856.56 -6987.81
v 113618.27 -58856.56 -6931.10
v 113516.14 -58760.53 -6931.10
v 113506.19 -58762.15 -6931.10
v 113606.98 -58856.93 -6931.10
v 113375.49 -59116.30 -6990.52
v 113375.49 -59116.30 -6931.10
v 113365.91 -59114.83 -6931.10
v 113193.21 -59311.31 -6956.10
v 113193.21 -59311.31 -6931.10
v 113184.93 -59308.45 -6931.10
v 112271.80 -94468.54 -10358.00
v 112184.40 -94972.43 -10394.00
v 112184.40 -94972.43 -10333.00
v 112271.80 -94468.54 -10333.00
v 112263.22 -94471.19 -10333.00
v 112176.92 -94968.77 -10333.00
v 112107.00 -95418.68 -10390.17
v 112107.00 -95418.68 -10333.00
v 112100.49 -95409.43 -10333.00
v 111994.87 -95399.22 -10358.00
v 111994.87 -95399.22 -10333.00
v 111989.54 -95390.17 -10333.00
v 113336.29 -56746.83 -6687.50
v 113375.49 -56763.68 -6699.15
v 113375.49 -56763.68 -6662.50
v 113336.29 -56746.83 -6662.50
v 113330.45 -56753.03 -6662.50
v 113368.87 -56769.55 -6662.50
v 113571.01 -56847.75 -6718.15
v 113571.01 -56847.75 -6662.50
v 113560.49 -56851.93 -6662.50
v 113375.49 -57300.41 -6720.62
v 113375.49 -57300.41 -6662.50
v 113367.64 -57298.39 -6662.50
v 113323.59 -57420.54 -6710.89
v 113323.59 -57420.54 -6662.50
v 113316.46 -57416.88 -6662.50
v 113301.18 -57472.43 -6706.69
v 113301.18 -57472.43 -6662.50
v 113294.35 -57468.06 -6662.50
v 113244.68 -57603.24 -6701.34
v 113244.68 -57603.24 -6662.50
v 113238.62 -57597.08 -6662.50
v 113107.67 -57920.44 -6702.77
v 113107.67 -57920.44 -6662.50
v 113103.49 -57909.93 -6662.50
v 113072.06 -57905.13 -6687.50
v 113072.06 -57905.13 -6662.50
v 113068.60 -57894.93 -6662.50
v 117691.81 -82118.94 -11221.00
v 117672.05 -82472.43 -11258.67
v 117672.05 -82472.43 -11196.00
v 117691.81 -82118.94 -11196.00
v 117683.76 -82119.65 -11196.00
v 117664.22 -82469.07 -11196.00
v 117647.53 -82910.86 -11252.79
v 117647.53 -82910.86 -11196.00
v 117639.99 -82902.43 -11196.00
v 117515.07 -82903.63 -11221.00
v 117515.07 -82903.63 -11196.00
v 117509.11 -82895.29 -11196.00
vt 450.2448 -18.9937
vt 450.4699 -19.0028
vt 450.4699 -18.9312
vt 450.2448 -18.9312
vt 450.2588 -18.9312
vt 450.4823 -18.9312
vt 452.1198 -19.0688
vt 452.1198 -18.9312
vt 452.1112 -18.9312
vt 454.3811 -19.0688
vt 454.3811 -18.9312
vt 454.3435 -18.9312
vt 453.1076 -19.0688
vt 453.1076 -18.9312
vt 453.0784 -18.9312
vt 452.6291 -19.0688
vt 452.6291 -18.9312
vt 452.6030 -18.9312
vt 452.4629 -19.0688
vt 452.4629 -18.9312
vt 452.4379 -18.9312
vt 452.1198 -19.1318
vt 452.1198 -18.9312
vt 452.0971 -18.9312
vt 450.6705 -19.0504
vt 450.6705 -18.9312
vt 450.6573 -18.9312
vt 450.3988 -18.9937
vt 450.3988 -18.9312
vt 450.3890 -18.9312
vt 387.7757 -8.6922
vt 388.0916 -8.7391
vt 388.0916 -8.6297
vt 387.7757 -8.6297
vt 387.7778 -8.6297
vt 388.0873 -8.6297
vt 389.0740 -8.7642
vt 389.0740 -8.6297
vt 389.0533 -8.6297
vt 389.3175 -8.7704
vt 389.3175 -8.6297
vt 389.2927 -8.6297
vt 389.6198 -8.7781
vt 389.6198 -8.6297
vt 389.5900 -8.6297
vt 390.2171 -8.7694
vt 390.2171 -8.6297
vt 390.1773 -8.6297
vt 389.6198 -8.7048
vt 389.6198 -8.6297
vt 389.5922 -8.6297
vt 389.5355 -8.6922
vt 389.5355 -8.6297
vt 389.5097 -8.6297
vt 392.3517 -9.5762
vt 392.4077 -9.5868
vt 392.4077 -9.5137
vt 392.3517 -9.5137
vt 392.3482 -9.5137
vt 392.4035 -9.5137
vt 392.4450 -9.5893
vt 392.4450 -9.5137
vt 392.4403 -9.5137
vt 393.9764 -9.6901
vt 393.9764 -9.5137
vt 393.9540 -9.5137
vt 395.4696 -9.6548
vt 395.4696 -9.5137
vt 395.4298 -9.5137
vt 395.0354 -9.5762
vt 395.0354 -9.5137
vt 395.0013 -9.5137
vt 457.1400 -19.9097
vt 458.3698 -19.9943
vt 458.3698 -19.8472
vt 457.1400 -19.8472
vt 457.1245 -19.8472
vt 458.3385 -19.8472
vt 458.8623 -19.9887
vt 458.8623 -19.8472
vt 458.8248 -19.8472
vt 458.8091 -19.9701
vt 458.8091 -19.8472
vt 458.7719 -19.8472
vt 458.6363 -19.9097
vt 458.6363 -19.8472
vt 458.6003 -19.8472
vt 428.2612 -16.4367
vt 428.5657 -16.4922
vt 428.5657 -16.3742
vt 428.2612 -16.3742
vt 428.2383 -16.3742
vt 428.5397 -16.3742
vt 428.7565 -16.5152
vt 428.7565 -16.3742
vt 428.7286 -16.3742
vt 428.7760 -16.5175
vt 428.7760 -16.3742
vt 428.7480 -16.3742
vt 428.7988 -16.5202
vt 428.7988 -16.3742
vt 428.7706 -16.3742
vt 428.8085 -16.4367
vt 428.8085 -16.3742
vt 428.7802 -16.3742
vt 430.6917 -17.3903
vt 431.1871 -17.4695
vt 431.1871 -17.3278
vt 430.6917 -17.3278
vt 430.6708 -17.3278
vt 431.1598 -17.3278
vt 431.2295 -17.4763
vt 431.2295 -17.3278
vt 431.2018 -17.3278
vt 431.2613 -17.3903
vt 431.2613 -17.3278
vt 431.2335 -17.3278
vt 516.8509 -25.8950
vt 517.8921 -25.9850
vt 517.8921 -25.8325
vt 516.8509 -25.8325
vt 516.8360 -25.8325
vt 517.8642 -25.8325
vt 518.8142 -25.9754
vt 518.8142 -25.8325
vt 518.7748 -25.8325
vt 518.4852 -25.8950
vt 518.4852 -25.8325
vt 518.4493 -25.8325
vt 425.2078 -16.7188
vt 425.3479 -16.7479
vt 425.3479 -16.6562
vt 425.2078 -16.6562
vt 425.2087 -16.6562
vt 425.3460 -16.6562
vt 426.0469 -16.7954
vt 426.0469 -16.6562
vt 426.0311 -16.6562
vt 426.6898 -16.8015
vt 426.6898 -16.6562
vt 426.6651 -16.6562
vt 426.8603 -16.7772
vt 426.8603 -16.6562
vt 426.8333 -16.6562
vt 426.9340 -16.7667
vt 426.9340 -16.6562
vt 426.9060 -16.6562
vt 427.1198 -16.7534
vt 427.1198 -16.6562
vt 427.0893 -16.6562
vt 427.5703 -16.7569
vt 427.5703 -16.6562
vt 427.5336 -16.6562
vt 427.4430 -16.7188
vt 427.4430 -16.6562
vt 427.4088 -16.6562
vt 499.5269 -28.0525
vt 500.3612 -28.1467
vt 500.3612 -27.9900
vt 499.5269 -27.9900
vt 499.5085 -27.9900
vt 500.3332 -27.9900
vt 501.3960 -28.1320
vt 501.3960 -27.9900
vt 501.3560 -27.9900
vt 501.0468 -28.0525
vt 501.0468 -27.9900
vt 501.0110 -27.9900
vn -0.3123 0.9500 0.0000
vn 0.0000 -0.0000 1.0000
vn 0.9508 0.3097 0.0000
vn 0.3281 -0.9447 0.0000
vn -0.9425 -0.3343 0.0000
vn 0.1069 0.9943 0.0000
vn 0.9942 -0.1072 0.0000
vn -0.1075 -0.9942 0.0000
vn 0.1048 0.9945 0.0000
vn 0.9945 -0.1051 0.0000
vn -0.1048 -0.9945 0.0000
vn 0.9509 0.3094 0.0000
vn 0.3286 -0.9445 0.0000
vn 0.7340 0.6792 0.0000
vn 0.7166 -0.6974 0.0000
vn 0.6850 0.7285 0.0000
vn 0.7305 -0.6829 0.0000
vn 0.9853 -0.1709 0.0000
vn -0.1710 -0.9853 0.0000
vn 0.3950 0.9187 0.0000
vn 0.9180 -0.3965 0.0000
vn -0.3950 -0.9187 0.0000
vn 0.9984 -0.0558 0.0000
vn -0.0545 -0.9985 0.0000
f 1/1/1 3/3/1 2/2/1
f 1/1/1 4/4/1 3/3/1
f 5/5/2 6/6/2 3/3/2
f 5/5/2 3/3/2 4/4/2
f 2/2/3 8/8/3 7/7/3
f 2/2/3 3/3/3 8/8/3
f 6/6/2 9/9/2 8/8/2
f 6/6/2 8/8/2 3/3/2
f 7/7/3 11/11/3 10/10/3
f 7/7/3 8/8/3 11/11/3
f 9/9/2 12/12/2 11/11/2
f 9/9/2 11/11/2 8/8/2
f 10/10/4 14/14/4 13/13/4
f 10/10/4 11/11/4 14/14/4
f 12/12/2 15/15/2 14/14/2
f 12/12/2 14/14/2 11/11/2
f 13/13/4 17/17/4 16/16/4
f 13/13/4 14/14/4 17/17/4
f 15/15/2 18/18/2 17/17/2
f 15/15/2 17/17/2 14/14/2
f 16/16/4 20/20/4 19/19/4
f 16/16/4 17/17/4 20/20/4
f 18/18/2 21/21/2 20/20/2
f 18/18/2 20/20/2 17/17/2
f 19/19/4 23/23/4 22/22/4
f 19/19/4 20/20/4 23/23/4
f 21/21/2 24/24/2 23/23/2
f 21/21/2 23/23/2 20/20/2
f 22/22/4 26/26/4 25/25/4
f 22/22/4 23/23/4 26/26/4
f 24/24/2 27/27/2 26/26/2
f 24/24/2 26/26/2 23/23/2
f 25/25/5 29/29/5 28/28/5
f 25/25/5 26/26/5 29/29/5
f 27/27/2 30/30/2 29/29/2
f 27/27/2 29/29/2 26/26/2
f 31/31/6 33/33/6 32/32/6
f 31/31/6 34/34/6 33/33/6
f 35/35/2 36/36/2 33/33/2
f 35/35/2 33/33/2 34/34/2
f 32/32/7 38/38/7 37/37/7
f 32/32/7 33/33/7 38/38/7
f 36/36/2 39/39/2 38/38/2
f 36/36/2 38/38/2 33/33/2
f 37/37/7 41/41/7 40/40/7
f 37/37/7 38/38/7 41/41/7
f 39/39/2 42/42/2 41/41/2
f 39/39/2 41/41/2 38/38/2
f 40/40/7 44/44/7 43/43/7
f 40/40/7 41/41/7 44/44/7
f 42/42/2 45/45/2 44/44/2
f 42/42/2 44/44/2 41/41/2
f 43/43/7 47/47/7 46/46/7
f 43/43/7 44/44/7 47/47/7
f 45/45/2 48/48/2 47/47/2
f 45/45/2 47/47/2 44/44/2
f 46/46/8 50/50/8 49/49/8
f 46/46/8 47/47/8 50/50/8
f 48/48/2 51/51/2 50/50/2
f 48/48/2 50/50/2 47/47/2
f 49/49/8 53/53/8 52/52/8
f 49/49/8 50/50/8 53/53/8
f 51/51/2 54/54/2 53/53/2
f 51/51/2 53/53/2 50/50/2
f 55/55/9 57/57/9 56/56/9
f 55/55/9 58/58/9 57/57/9
f 59/59/2 60/60/2 57/57/2
f 59/59/2 57/57/2 58/58/2
f 56/56/10 62/62/10 61/61/10
f 56/56/10 57/57/10 62/62/10
f 60/60/2 63/63/2 62/62/2
f 60/60/2 62/62/2 57/57/2
f 61/61/10 65/65/10 64/64/10
f 61/61/10 62/62/10 65/65/10
f 63/63/2 66/66/2 65/65/2
f 63/63/2 65/65/2 62/62/2
f 64/64/10 68/68/10 67/67/10
f 64/64/10 65/65/10 68/68/10
f 66/66/2 69/69/2 68/68/2
f 66/66/2 68/68/2 65/65/2
f 67/67/11 71/71/11 70/70/11
f 67/67/11 68/68/11 71/71/11
f 69/69/2 72/72/2 71/71/2
f 69/69/2 71/71/2 68/68/2
f 73/73/12 75/75/12 74/74/12
f 73/73/12 76/76/12 75/75/12
f 77/77/2 78/78/2 75/75/2
f 77/77/2 75/75/2 76/76/2
f 74/74/12 80/80/12 79/79/12
f 74/74/12 75/75/12 80/80/12
f 78/78/2 81/81/2 80/80/2
f 78/78/2 80/80/2 75/75/2
f 79/79/13 83/83/13 82/82/13
f 79/79/13 80/80/13 83/83/13
f 81/81/2 84/84/2 83/83/2
f 81/81/2 83/83/2 80/80/2
f 82/82/13 86/86/13 85/85/13
f 82/82/13 83/83/13 86/86/13
f 84/84/2 87/87/2 86/86/2
f 84/84/2 86/86/2 83/83/2
f 88/88/14 90/90/14 89/89/14
f 88/88/14 91/91/14 90/90/14
f 92/92/2 93/93/2 90/90/2
f 92/92/2 90/90/2 91/91/2
f 89/89/14 95/95/14 94/94/14
f 89/89/14 90/90/14 95/95/14
f 93/93/2 96/96/2 95/95/2
f 93/93/2 95/95/2 90/90/2
f 94/94/15 98/98/15 97/97/15
f 94/94/15 95/95/15 98/98/15
f 96/96/2 99/99/2 98/98/2
f 96/96/2 98/98/2 95/95/2
f 97/97/15 101/101/15 100/100/15
f 97/97/15 98/98/15 101/101/15
f 99/99/2 102/102/2 101/101/2
f 99/99/2 101/101/2 98/98/2
f 100/100/15 104/104/15 103/103/15
f 100/100/15 101/101/15 104/104/15
f 102/102/2 105/105/2 104/104/2
f 102/102/2 104/104/2 101/101/2
f 106/106/16 108/108/16 107/107/16
f 106/106/16 109/109/16 108/108/16
f 110/110/2 111/111/2 108/108/2
f 110/110/2 108/108/2 109/109/2
f 107/107/17 113/113/17 112/112/17
f 107/107/17 108/108/17 113/113/17
f 111/111/2 114/114/2 113/113/2
f 111/111/2 113/113/2 108/108/2
f 112/112/17 116/116/17 115/115/17
f 112/112/17 113/113/17 116/116/17
f 114/114/2 117/117/2 116/116/2
f 114/114/2 116/116/2 113/113/2
f 118/118/18 120/120/18 119/119/18
f 118/118/18 121/121/18 120/120/18
f 122/122/2 123/123/2 120/120/2
f 122/122/2 120/120/2 121/121/2
f 119/119/18 125/125/18 124/124/18
f 119/119/18 120/120/18 125/125/18
f 123/123/2 126/126/2 125/125/2
f 123/123/2 125/125/2 120/120/2
f 124/124/19 128/128/19 127/127/19
f 124/124/19 125/125/19 128/128/19
f 126/126/2 129/129/2 128/128/2
f 126/126/2 128/128/2 125/125/2
f 130/130/20 132/132/20 131/131/20
f 130/130/20 133/133/20 132/132/20
f 134/134/2 135/135/2 132/132/2
f 134/134/2 132/132/2 133/133/2
f 131/131/20 137/137/20 136/136/20
f 131/131/20 132/132/20 137/137/20
f 135/135/2 138/138/2 137/137/2
f 135/135/2 137/137/2 132/132/2
f 136/136/21 140/140/21 139/139/21
f 136/136/21 137/137/21 140/140/21
f 138/138/2 141/141/2 140/140/2
f 138/138/2 140/140/2 137/137/2
f 139/139/21 143/143/21 142/142/21
f 139/139/21 140/140/21 143/143/21
f 141/141/2 144/144/2 143/143/2
f 141/141/2 143/143/2 140/140/2
f 142/142/21 146/146/21 145/145/21
f 142/142/21 143/143/21 146/146/21
f 144/144/2 147/147/2 146/146/2
f 144/144/2 146/146/2 143/143/2
f 145/145/21 149/149/21 148/148/21
f 145/145/21 146/146/21 149/149/21
f 147/147/2 150/150/2 149/149/2
f 147/147/2 149/149/2 146/146/2
f 148/148/21 152/152/21 151/151/21
f 148/148/21 149/149/21 152/152/21
f 150/150/2 153/153/2 152/152/2
f 150/150/2 152/152/2 149/149/2
f 151/151/22 155/155/22 154/154/22
f 151/151/22 152/152/22 155/155/22
f 153/153/2 156/156/2 155/155/2
f 153/153/2 155/155/2 152/152/2
f 157/157/23 159/159/23 158/158/23
f 157/157/23 160/160/23 159/159/23
f 161/161/2 162/162/2 159/159/2
f 161/161/2 159/159/2 160/160/2
f 158/158/23 164/164/23 163/163/23
f 158/158/23 159/159/23 164/164/23
f 162/162/2 165/165/2 164/164/2
f 162/162/2 164/164/2 159/159/2
f 163/163/24 167/167/24 166/166/24
f 163/163/24 164/164/24 167/167/24
f 165/165/2 168/168/2 167/167/2
f 165/165/2 167/167/2 164/164/2
