# Unreal legacy OBJ adapter: canonical vertices are UE cm; this file is written with Y reflected and triangle winding reversed. One object, no g groups, so the importer creates exactly one material slot.
# OldCityFoundationV2 foundations (plinth + stepped footing); generator 463404ba754c804f514fe655944ece4eb51a92e1273fec326ad5c2ebfbb18f24
# AUTHORED detail in the style of Old City stone foundations, not survey
o SM_OldCityFoundationV2_Kept_N004_N001
s off
v -198907.99 13321.04 6212.90
v -198880.86 12771.22 6191.99
v -198880.86 12771.22 6237.90
v -198907.99 13321.04 6237.90
v -198915.78 13316.52 6237.90
v -198889.08 12775.41 6237.90
v -198869.12 12533.10 6182.94
v -198869.12 12533.10 6237.90
v -198877.52 12541.07 6237.90
v -199119.95 12532.13 6172.87
v -199119.95 12532.13 6237.90
v -199128.41 12540.10 6237.90
v -199124.51 12532.11 6172.68
v -199124.51 12532.11 6237.90
v -199132.98 12540.08 6237.90
v -199129.04 12532.10 6172.86
v -199129.04 12532.10 6237.90
v -199137.51 12540.06 6237.90
v -199515.96 12530.60 6188.28
v -199515.96 12530.60 6237.90
v -199524.51 12538.57 6237.90
v -199515.75 12527.57 6188.15
v -199515.75 12527.57 6237.90
v -199524.31 12535.54 6237.90
v -199490.96 12161.12 6201.82
v -199490.96 12161.12 6237.90
v -199499.54 12169.47 6237.90
v -199470.85 11863.90 6212.90
v -199470.85 11863.90 6237.90
v -199479.46 11872.55 6237.90
v -197056.46 12493.12 6256.60
v -197918.89 12378.58 6226.68
v -197918.89 12378.58 6281.60
v -197056.46 12493.12 6281.60
v -197062.06 12500.45 6281.60
v -197912.01 12387.57 6281.60
v -197938.67 12527.57 6219.93
v -197938.67 12527.57 6281.60
v -197931.58 12534.96 6281.60
v -198017.45 13121.01 6240.52
v -198017.45 13121.01 6281.60
v -198009.51 13122.07 6281.60
v -198077.95 13574.13 6256.23
v -198077.95 13574.13 6281.60
v -198069.32 13569.98 6281.60
v -198079.39 13584.95 6256.60
v -198079.39 13584.95 6281.60
v -198070.75 13580.66 6281.60
v -195697.55 7606.49 6001.50
v -195286.90 7672.74 5971.30
v -195286.90 7672.74 6026.50
v -195697.55 7606.49 6026.50
v -195698.54 7598.23 6026.50
v -195293.51 7663.57 6026.50
v -195263.31 7527.57 5963.60
v -195263.31 7527.57 6026.50
v -195270.13 7519.64 6026.50
v -195104.15 6547.94 5950.87
v -195104.15 6547.94 6026.50
v -195112.33 6548.40 6026.50
v -194999.25 5902.30 5972.50
v -194999.25 5902.30 6026.50
v -195008.32 5908.29 6026.50
v -194987.33 5828.95 5974.96
v -194987.33 5828.95 6026.50
v -194996.51 5835.57 6026.50
v -195558.29 5736.34 6001.50
v -195558.29 5736.34 6026.50
v -195559.65 5744.23 6026.50
v -195920.55 12062.57 6235.30
v -195825.95 11729.00 6208.61
v -195825.95 11729.00 6260.30
v -195920.55 12062.57 6260.30
v -195928.42 12061.00 6260.30
v -195835.58 11733.65 6260.30
v -195812.63 11682.05 6204.86
v -195812.63 11682.05 6260.30
v -195822.51 11687.57 6260.30
v -196624.51 11452.47 6186.49
v -196624.51 11452.47 6260.30
v -196625.61 11460.48 6260.30
v -197235.54 11279.69 6221.55
v -197235.54 11279.69 6260.30
v -197230.02 11289.57 6260.30
v -197273.38 11413.70 6235.30
v -197273.38 11413.70 6260.30
v -197267.22 11421.32 6260.30
v -194060.72 2438.22 6082.20
v -194061.41 2464.46 6080.07
v -194061.41 2464.46 6107.20
v -194060.72 2438.22 6107.20
v -194052.63 2435.13 6107.20
v -194053.32 2461.15 6107.20
v -194063.08 2527.57 6074.96
v -194063.08 2527.57 6107.20
v -194054.98 2523.71 6107.20
v -194064.67 2587.41 6067.71
v -194064.67 2587.41 6107.20
v -194056.55 2583.04 6107.20
v -194075.23 2985.85 6052.20
v -194075.23 2985.85 6107.20
v -194067.02 2978.07 6107.20
v -193655.10 2996.98 6034.95
v -193655.10 2996.98 6107.20
v -193653.76 2989.01 6107.20
v -193096.24 3011.78 6055.53
v -193096.24 3011.78 6107.20
v -193104.02 3003.57 6107.20
v -193090.22 2791.50 6082.20
v -193090.22 2791.50 6107.20
v -193098.06 2785.18 6107.20
v -193970.62 23995.69 6147.88
v -193954.05 22698.03 6145.23
v -193954.05 22698.03 6204.10
v -193970.62 23995.69 6204.10
v -193978.52 23987.57 6204.10
v -193962.12 22703.19 6204.10
v -193951.88 22527.57 6144.88
v -193951.88 22527.57 6204.10
v -193959.96 22534.47 6204.10
v -193950.41 22412.48 6149.25
v -193950.41 22412.48 6204.10
v -193958.51 22420.57 6204.10
v -194010.05 22413.10 6158.76
v -194010.05 22413.10 6204.10
v -194017.05 22421.18 6204.10
v -194124.51 22414.29 6177.03
v -194124.51 22414.29 6204.10
v -194129.40 22422.34 6204.10
v -194150.51 22414.56 6179.10
v -194150.51 22414.56 6204.10
v -194154.91 22422.61 6204.10
v -194165.76 24058.23 6179.10
v -194124.51 24015.32 6172.50
v -194124.51 24015.32 6204.10
v -194165.76 24058.23 6204.10
v -194169.12 24050.18 6204.10
v -194127.87 24007.27 6204.10
v -194103.65 23993.62 6169.16
v -194103.65 23993.62 6204.10
v -194107.01 23985.57 6204.10
v -191845.41 37635.49 5847.30
v -191763.19 37666.24 5827.97
v -191763.19 37666.24 5872.30
v -191845.41 37635.49 5872.30
v -191843.36 37627.71 5872.30
v -191761.37 37658.38 5872.30
v -191624.51 37718.12 5795.37
v -191624.51 37718.12 5872.30
v -191623.07 37710.12 5872.30
v -191320.06 37832.02 5809.03
v -191320.06 37832.02 5872.30
v -191319.45 37823.71 5872.30
v -191191.78 37880.01 5818.00
v -191191.78 37880.01 5872.30
v -191191.52 37871.57 5872.30
v -190612.91 37703.57 5827.04
v -190612.91 37703.57 5872.30
v -190619.01 37697.07 5872.30
v -190546.81 37527.57 5815.61
v -190546.81 37527.57 5872.30
v -190553.10 37521.57 5872.30
v -190458.66 37292.85 5847.30
v -190458.66 37292.85 5872.30
v -190465.21 37287.52 5872.30
v -187683.55 39228.82 6008.60
v -187744.89 39034.66 5993.07
v -187744.89 39034.66 6033.60
v -187683.55 39228.82 6033.60
v -187691.56 39230.02 6033.60
v -187752.52 39037.07 6033.60
v -187803.83 38848.25 5978.15
v -187803.83 38848.25 6033.60
v -187810.96 38852.25 6033.60
v -187837.79 38740.85 5978.38
v -187837.79 38740.85 6033.60
v -187844.63 38745.76 6033.60
v -188027.29 38141.54 5979.61
v -188027.29 38141.54 6033.60
v -188032.51 38151.57 6033.60
v -188394.84 38257.25 5930.87
v -188394.84 38257.25 6033.60
v -188398.59 38266.82 6033.60
v -189124.51 38486.97 5949.25
v -189124.51 38486.97 6033.60
v -189125.37 38495.62 6033.60
v -190296.24 38855.85 5931.89
v -190296.24 38855.85 6033.60
v -190292.44 38863.04 6033.60
v -190524.73 38927.78 5940.53
v -190524.73 38927.78 6033.60
v -190520.02 38934.69 6033.60
v -191624.51 39274.01 5982.07
v -191624.51 39274.01 6033.60
v -191615.44 39279.55 6033.60
v -191707.99 39300.29 6008.60
v -191707.99 39300.29 6033.60
v -191698.59 39305.72 6033.60
v -181295.52 20251.89 5537.10
v -181373.91 20267.26 5505.19
v -181373.91 20267.26 5562.10
v -181295.52 20251.89 5562.10
v -181286.97 20258.37 5562.10
v -181364.51 20273.57 5562.10
v -181371.24 20280.84 5502.89
v -181371.24 20280.84 5562.10
v -181361.86 20287.08 5562.10
v -181334.79 20466.46 5537.10
v -181334.79 20466.46 5562.10
v -181325.62 20471.65 5562.10
v -178775.08 11152.57 4917.50
v -178124.08 11028.00 4912.52
v -178124.08 11028.00 4942.50
v -178775.08 11152.57 4942.50
v -178777.99 11144.98 4942.50
v -178132.92 11021.55 4942.50
v -178066.15 11016.92 4909.31
v -178066.15 11016.92 4942.50
v -178075.51 11010.57 4942.50
v -178256.18 10027.57 4837.77
v -178256.18 10027.57 4942.50
v -178264.08 10028.85 4942.50
v -178396.10 9299.15 4872.50
v -178396.10 9299.15 4942.50
v -178402.92 9306.05 4942.50
v -178457.17 8981.21 4887.66
v -178457.17 8981.21 4942.50
v -178463.51 8990.57 4942.50
v -179124.51 9108.61 4909.26
v -179124.51 9108.61 4942.50
v -179124.68 9116.79 4942.50
v -179379.17 9157.22 4917.50
v -179379.17 9157.22 4942.50
v -179376.98 9164.95 4942.50
v -169970.97 13074.31 4007.40
v -170021.80 12724.06 3975.54
v -170021.80 12724.06 4032.40
v -169970.97 13074.31 4032.40
v -169979.26 13072.85 4032.40
v -170029.52 12726.57 4032.40
v -170124.93 12527.57 3972.58
v -170124.93 12527.57 4032.40
v -170132.20 12530.94 4032.40
v -170406.19 11991.72 4007.40
v -170406.19 11991.72 4032.40
v -170412.21 11997.45 4032.40
v -178480.06 28079.25 5539.30
v -178490.98 27870.98 5523.95
v -178490.98 27870.98 5564.30
v -178480.06 28079.25 5564.30
v -178488.14 28077.93 5564.30
v -178499.01 27870.57 5564.30
v -178436.93 27527.57 5489.99
v -178436.93 27527.57 5564.30
v -178444.97 27527.22 5564.30
v -178308.49 26711.54 5507.22
v -178308.49 26711.54 5564.30
v -178316.55 26711.35 5564.30
v -178299.94 26657.24 5508.36
v -178299.94 26657.24 5564.30
v -178308.01 26657.07 5564.30
v -178365.07 26079.23 5539.30
v -178365.07 26079.23 5564.30
v -178372.62 26083.68 5564.30
v -177761.70 47027.57 5392.50
v -177447.63 47524.51 5372.62
v -177447.63 47524.51 5417.50
v -177761.70 47027.57 5417.50
v -177761.82 47013.49 5417.50
v -177449.01 47508.57 5417.50
v -177242.80 47027.57 5392.50
v -177242.80 47027.57 5417.50
v -177246.49 47016.59 5417.50
v -177124.51 46740.62 5392.50
v -176915.12 46232.61 5384.12
v -176915.12 46232.61 5417.50
v -177124.51 46740.62 5417.50
v -177129.55 46732.50 5417.50
v -176922.51 46229.57 5417.50
v -176624.51 45527.06 5372.50
v -176624.51 45527.06 5417.50
v -176631.91 45524.02 5417.50
v -176492.12 45205.61 5361.91
v -176492.12 45205.61 5417.50
v -176499.51 45202.57 5417.50
v -176478.83 45173.25 5360.85
v -176478.83 45173.25 5417.50
v -176486.23 45170.21 5417.50
v -176419.02 45027.57 5364.28
v -176419.02 45027.57 5417.50
v -176426.42 45024.53 5417.50
v -176275.87 44678.93 5386.45
v -176275.87 44678.93 5417.50
v -176283.27 44675.88 5417.50
v -176236.77 44583.70 5392.50
v -176236.77 44583.70 5417.50
v -176244.17 44580.66 5417.50
v -175334.97 29220.86 5304.80
v -175311.00 28869.47 5274.77
v -175311.00 28869.47 5329.80
v -175334.97 29220.86 5329.80
v -175342.50 29213.67 5329.80
v -175318.51 28862.07 5329.80
v -175284.80 28867.28 5272.50
v -175284.80 28867.28 5329.80
v -175292.34 28859.88 5329.80
v -174539.51 28805.07 5304.80
v -174539.51 28805.07 5329.80
v -174547.74 28797.73 5329.80
v -176858.08 27420.75 5304.80
v -176842.00 27527.57 5298.60
v -176842.00 27527.57 5329.80
v -176858.08 27420.75 5329.80
v -176849.14 27426.35 5329.80
v -176833.14 27532.71 5329.80
v -176826.94 27627.68 5304.80
v -176826.94 27627.68 5329.80
v -176818.14 27632.38 5329.80
v -177356.17 24187.85 5644.00
v -177344.67 24307.41 5630.11
v -177344.67 24307.41 5669.00
v -177356.17 24187.85 5669.00
v -177348.38 24185.25 5669.00
v -177337.03 24303.31 5669.00
v -177309.21 24676.29 5613.94
v -177309.21 24676.29 5669.00
v -177302.01 24667.57 5669.00
v -177004.87 24647.21 5602.93
v -177004.87 24647.21 5669.00
v -176998.96 24638.61 5669.00
v -176624.51 24610.87 5622.50
v -176624.51 24610.87 5669.00
v -176620.21 24602.42 5669.00
v -176206.84 24570.96 5644.00
v -176206.84 24570.96 5669.00
v -176204.30 24562.68 5669.00
v -174463.84 10594.31 4494.80
v -174289.56 10571.99 4464.24
v -174289.56 10571.99 4519.80
v -174463.84 10594.31 4519.80
v -174470.69 10587.12 4519.80
v -174298.51 10565.07 4519.80
v -174332.76 10235.82 4430.81
v -174332.76 10235.82 4519.80
v -174341.39 10231.42 4519.80
v -174359.53 10027.57 4410.10
v -174359.53 10027.57 4519.80
v -174367.96 10024.74 4519.80
v -174394.19 9757.90 4415.65
v -174394.19 9757.90 4519.80
v -174402.36 9757.09 4519.80
v -174561.10 8459.12 4487.63
v -174561.10 8459.12 4519.80
v -174568.02 8468.07 4519.80
v -174623.52 8467.09 4494.80
v -174623.52 8467.09 4519.80
v -174629.76 8475.95 4519.80
v -172172.66 46972.57 5194.70
v -171624.51 47285.44 5182.19
v -171624.51 47285.44 5219.70
v -172172.66 46972.57 5219.70
v -172169.72 46965.03 5219.70
v -171625.97 47275.40 5219.70
v -171593.30 47303.25 5178.98
v -171593.30 47303.25 5219.70
v -171595.01 47293.07 5219.70
v -170544.52 46107.57 5142.90
v -170544.52 46107.57 5219.70
v -170553.13 46105.25 5219.70
v -170127.16 45631.75 5164.27
v -170127.16 45631.75 5219.70
v -170138.51 45632.57 5219.70
v -170407.85 45391.74 5194.70
v -170407.85 45391.74 5219.70
v -170416.65 45394.74 5219.70
v -169017.67 19596.92 4708.00
v -169124.51 19154.05 4667.68
v -169124.51 19154.05 4733.00
v -169017.67 19596.92 4733.00
v -169026.29 19595.30 4733.00
v -169132.37 19155.62 4733.00
v -169395.61 18030.42 4673.81
v -169395.61 18030.42 4733.00
v -169401.51 18040.07 4733.00
v -169457.90 18045.39 4708.00
v -169457.90 18045.39 4733.00
v -169463.43 18054.95 4733.00
v -167429.51 33620.83 5104.70
v -166624.51 33665.55 5072.50
v -166624.51 33665.55 5129.70
v -167429.51 33620.83 5129.70
v -167431.10 33612.73 5129.70
v -166631.51 33657.15 5129.70
v -166562.60 33668.99 5074.98
v -166562.60 33668.99 5129.70
v -166570.01 33660.57 5129.70
v -166489.65 32662.44 5077.89
v -166489.65 32662.44 5129.70
v -166497.41 32658.85 5129.70
v -166479.87 32527.57 5049.36
v -166479.87 32527.57 5129.70
v -166487.68 32524.62 5129.70
v -166468.57 32371.62 5053.79
v -166468.57 32371.62 5129.70
v -166476.43 32369.43 5129.70
v -166338.65 30579.11 5104.70
v -166338.65 30579.11 5129.70
v -166347.14 30585.53 5129.70
v -166160.13 38816.33 5086.90
v -165923.92 38228.16 5044.48
v -165923.92 38228.16 5111.90
v -166160.13 38816.33 5111.90
v -166167.74 38813.81 5111.90
v -165933.57 38230.71 5111.90
v -165797.27 37912.79 5057.09
v -165797.27 37912.79 5111.90
v -165808.01 37918.07 5111.90
v -166413.51 37738.57 5064.06
v -166413.51 37738.57 5111.90
v -166424.11 37743.89 5111.90
v -166624.51 37678.92 5078.55
v -166624.51 37678.92 5111.90
v -166635.07 37684.25 5111.90
v -166742.51 37645.56 5081.94
v -166742.51 37645.56 5111.90
v -166753.03 37650.90 5111.90
v -166915.41 37596.68 5086.90
v -166915.41 37596.68 5111.90
v -166925.89 37602.02 5111.90
v -168178.03 36334.05 5086.90
v -167965.63 36368.69 5079.79
v -167965.63 36368.69 5111.90
v -168178.03 36334.05 5111.90
v -168184.25 36324.93 5111.90
v -167971.87 36359.56 5111.90
v -167747.89 36404.20 5072.50
v -167747.89 36404.20 5111.90
v -167754.15 36395.07 5111.90
v -166624.51 36587.40 5072.50
v -166624.51 36587.40 5111.90
v -166630.89 36578.25 5111.90
v -165816.17 36719.22 5072.50
v -165816.17 36719.22 5111.90
v -165822.64 36710.06 5111.90
v -165463.51 36776.73 5072.50
v -165463.51 36776.73 5111.90
v -165470.01 36767.57 5111.90
v -165375.49 36278.54 5072.50
v -165375.49 36278.54 5111.90
v -165382.81 36273.99 5111.90
v -165375.20 36276.89 5072.50
v -165375.20 36276.89 5111.90
v -165382.52 36272.34 5111.90
v -165321.15 35970.94 5086.90
v -165321.15 35970.94 5111.90
v -165328.97 35969.23 5111.90
v -166264.51 34903.85 5086.90
v -166475.53 34878.58 5078.46
v -166475.53 34878.58 5111.90
v -166264.51 34903.85 5111.90
v -166265.47 34911.80 5111.90
v -166476.48 34886.53 5111.90
v -166624.51 34860.74 5072.50
v -166624.51 34860.74 5111.90
v -166625.47 34868.68 5111.90
v -166814.04 34838.04 5080.08
v -166814.04 34838.04 5111.90
v -166814.99 34845.99 5111.90
v -167581.56 34746.12 5083.76
v -167581.56 34746.12 5111.90
v -167582.51 34754.07 5111.90
v -168232.55 34667.57 5086.90
v -168232.55 34667.57 5111.90
v -168233.50 34675.51 5111.90
v -163881.71 20080.90 3978.90
v -163898.66 20027.57 3972.50
v -163898.66 20027.57 4003.90
v -163881.71 20080.90 4003.90
v -163888.95 20084.53 4003.90
v -163905.81 20031.51 4003.90
v -163953.15 19856.20 3965.65
v -163953.15 19856.20 4003.90
v -163959.97 19861.14 4003.90
v -164124.51 19317.16 3944.08
v -164124.51 19317.16 4003.90
v -164130.33 19325.27 4003.90
v -164229.31 18987.53 3947.67
v -164229.31 18987.53 4003.90
v -164234.51 18997.57 4003.90
v -164410.21 19044.79 3978.90
v -164410.21 19044.79 4003.90
v -164413.96 19054.36 4003.90
v -162053.38 30278.78 4419.80
v -162054.47 30089.02 4397.07
v -162054.47 30089.02 4444.80
v -162053.38 30278.78 4444.80
v -162061.43 30270.83 4444.80
v -162062.51 30081.07 4444.80
v -161890.98 30088.02 4390.41
v -161890.98 30088.02 4444.80
v -161899.01 30080.07 4444.80
v -161891.28 30027.57 4383.17
v -161891.28 30027.57 4444.80
v -161899.31 30020.25 4444.80
v -161892.62 29759.46 4415.40
v -161892.62 29759.46 4444.80
v -161900.64 29754.98 4444.80
v -161898.55 28574.03 4416.35
v -161898.55 28574.03 4444.80
v -161906.51 28582.07 4444.80
v -161920.14 28574.13 4419.80
v -161920.14 28574.13 4444.80
v -161928.10 28582.16 4444.80
v -161789.83 40683.20 4759.50
v -161624.51 40724.28 4744.63
v -161624.51 40724.28 4784.50
v -161789.83 40683.20 4784.50
v -161786.22 40675.86 4784.50
v -161621.80 40716.71 4784.50
v -161481.45 40759.83 4743.21
v -161481.45 40759.83 4784.50
v -161479.52 40752.07 4784.50
v -160697.91 40954.17 4735.44
v -160697.91 40954.17 4784.50
v -160695.98 40946.41 4784.50
v -160179.66 41082.71 4730.29
v -160179.66 41082.71 4784.50
v -160177.73 41074.95 4784.50
v -159124.51 41344.42 4719.83
v -159124.51 41344.42 4784.50
v -159122.59 41336.66 4784.50
v -158816.44 41420.83 4729.09
v -158816.44 41420.83 4784.50
v -158814.51 41413.07 4784.50
v -158176.68 41579.73 4748.33
v -158176.68 41579.73 4784.50
v -158179.30 41570.84 4784.50
v -157805.05 41672.04 4759.50
v -157805.05 41672.04 4784.50
v -157810.31 41662.49 4784.50
v -161133.47 35514.09 4991.96
v -161138.33 35513.75 4991.95
v -161138.33 35513.75 5041.20
v -161133.47 35514.09 5041.20
v -161134.01 35522.07 5041.20
v -161138.83 35521.74 5041.20
v -161624.51 35480.64 4972.50
v -161624.51 35480.64 5041.20
v -161621.45 35488.86 5041.20
v -162048.69 35451.74 5006.43
v -162048.69 35451.74 5041.20
v -162042.51 35460.18 5041.20
v -162170.76 35443.43 5016.20
v -162170.76 35443.43 5041.20
v -162163.69 35451.93 5041.20
v -162335.79 37146.34 5016.20
v -162361.55 37527.57 5001.98
v -162361.55 37527.57 5041.20
v -162335.79 37146.34 5041.20
v -162327.54 37142.99 5041.20
v -162353.13 37521.56 5041.20
v -162375.54 37734.51 4985.99
v -162375.54 37734.51 5041.20
v -162367.02 37727.07 5041.20
v -161865.63 37768.69 4962.86
v -161865.63 37768.69 5041.20
v -161860.78 37760.99 5041.20
v -161624.51 37784.84 4951.92
v -161624.51 37784.84 5041.20
v -161621.40 37777.04 5041.20
v -161348.76 37803.32 4950.44
v -161348.76 37803.32 5041.20
v -161347.63 37795.38 5041.20
v -160158.58 37883.08 4988.48
v -160158.58 37883.08 5041.20
v -160166.02 37874.57 5041.20
v -160143.12 37657.20 5016.20
v -160143.12 37657.20 5041.20
v -160150.56 37648.68 5041.20
v -158683.53 35679.09 5016.20
v -159124.51 35649.39 4997.37
v -159124.51 35649.39 5041.20
v -158683.53 35679.09 5041.20
v -158684.07 35687.07 5041.20
v -159125.05 35657.37 5041.20
v -159707.10 35610.15 4995.80
v -159707.10 35610.15 5041.20
v -159707.64 35618.13 5041.20
v -159251.01 25322.26 3997.80
v -159124.51 25306.26 3972.50
v -159124.51 25306.26 4022.80
v -159251.01 25322.26 4022.80
v -159256.07 25314.84 4022.80
v -159130.82 25299.00 4022.80
v -158877.11 25274.97 3972.50
v -158877.11 25274.97 4022.80
v -158885.87 25268.02 4022.80
v -158769.70 25261.39 3967.66
v -158769.70 25261.39 4022.80
v -158779.52 25254.57 4022.80
v -158824.73 25027.57 3960.51
v -158824.73 25027.57 4022.80
v -158834.29 25021.87 4022.80
v -158881.85 24784.90 3972.50
v -158881.85 24784.90 4022.80
v -158891.13 24780.38 4022.80
v -159002.36 24272.91 3997.80
v -159002.36 24272.91 4022.80
v -159011.06 24270.85 4022.80
v -159400.26 27994.95 4091.40
v -159416.49 27819.54 4065.93
v -159416.49 27819.54 4116.40
v -159400.26 27994.95 4116.40
v -159408.58 27991.86 4116.40
v -159424.70 27817.59 4116.40
v -159443.51 27527.57 4023.54
v -159443.51 27527.57 4116.40
v -159451.55 27527.49 4116.40
v -159476.03 27176.05 4042.80
v -159476.03 27176.05 4116.40
v -159483.86 27178.24 4116.40
v -159561.73 26249.91 4059.94
v -159561.73 26249.91 4116.40
v -159569.01 26258.07 4116.40
v -159719.01 26253.31 4091.40
v -159719.01 26253.31 4116.40
v -159722.72 26261.39 4116.40
v -158093.71 29689.87 4359.70
v -158088.29 29495.17 4328.77
v -158088.29 29495.17 4384.70
v -158093.71 29689.87 4384.70
v -158101.77 29692.15 4384.70
v -158096.51 29503.07 4384.70
v -158585.90 29488.96 4307.87
v -158585.90 29488.96 4384.70
v -158591.88 29496.88 4384.70
v -159124.51 29482.23 4285.25
v -159124.51 29482.23 4384.70
v -159128.06 29490.19 4384.70
v -159595.73 29476.35 4359.70
v -159595.73 29476.35 4384.70
v -159597.15 29484.33 4384.70
v -156779.35 29071.42 4281.27
v -156779.49 29078.57 4282.70
v -156779.49 29078.57 4307.70
v -156779.35 29071.42 4307.70
v -156771.51 29079.57 4307.70
v -156771.65 29086.63 4307.70
v -153562.88 29325.91 4282.70
v -153559.38 29131.72 4251.77
v -153559.38 29131.72 4307.70
v -153562.88 29325.91 4307.70
v -153570.98 29331.63 4307.70
v -153567.52 29139.57 4307.70
v -154124.51 29121.14 4227.47
v -154124.51 29121.14 4307.70
v -154129.85 29129.04 4307.70
v -155048.25 29103.84 4224.70
v -155048.25 29103.84 4307.70
v -155049.00 29111.82 4307.70
v -155688.79 29091.84 4247.93
v -155688.79 29091.84 4307.70
v -155686.36 29099.89 4307.70
v -156624.51 29074.32 4281.85
v -156624.51 29074.32 4307.70
v -156617.44 29082.45 4307.70
v -153152.51 26277.82 3911.40
v -153152.51 25999.57 3889.14
v -153152.51 25999.57 3936.40
v -153152.51 26277.82 3936.40
v -153160.51 26283.99 3936.40
v -153160.51 26007.25 3936.40
v -153152.51 25941.07 3879.78
v -153152.51 25941.07 3936.40
v -153160.51 25949.07 3936.40
v -153211.01 25941.07 3882.12
v -153211.01 25941.07 3936.40
v -153218.66 25949.07 3936.40
v -154124.51 25941.07 3845.58
v -154124.51 25941.07 3936.40
v -154126.66 25949.07 3936.40
v -155038.01 25941.07 3882.12
v -155038.01 25941.07 3936.40
v -155034.65 25949.07 3936.40
v -155711.01 25941.07 3909.04
v -155711.01 25941.07 3936.40
v -155703.60 25949.07 3936.40
v -155807.51 25941.07 3909.04
v -155807.51 25941.07 3936.40
v -155799.51 25949.07 3936.40
v -155807.51 26000.07 3911.40
v -155807.51 26000.07 3936.40
v -155799.51 26007.75 3936.40
v -152346.27 22891.57 3559.36
v -152335.73 23222.60 3585.00
v -152335.73 23222.60 3610.00
v -152346.27 22891.57 3610.00
v -152338.01 22899.57 3610.00
v -152327.63 23225.54 3610.00
v -150313.76 23278.44 3585.00
v -150297.17 22891.57 3554.71
v -150297.17 22891.57 3610.00
v -150313.76 23278.44 3610.00
v -150321.85 23280.46 3610.00
v -150305.52 22899.57 3610.00
v -151260.51 22891.57 3516.18
v -151260.51 22891.57 3610.00
v -151261.06 22899.57 3610.00
v -151624.51 22891.57 3501.62
v -151624.51 22891.57 3610.00
v -151622.11 22899.57 3610.00
v -151988.51 22891.57 3530.74
v -151988.51 22891.57 3610.00
v -151983.16 22899.57 3610.00
v -150603.52 25919.74 3856.09
v -150727.67 25924.41 3851.87
v -150727.67 25924.41 3908.80
v -150603.52 25919.74 3908.80
v -150612.01 25928.07 3908.80
v -150734.98 25932.69 3908.80
v -151624.51 25958.15 3821.39
v -151624.51 25958.15 3908.80
v -151623.26 25966.11 3908.80
v -152307.80 25983.85 3852.84
v -152307.80 25983.85 3908.80
v -152300.01 25991.57 3908.80
v -152313.17 26176.03 3883.80
v -152313.17 26176.03 3908.80
v -152305.36 26183.08 3908.80
v -150613.70 26095.49 3883.80
v -150610.57 26041.51 3875.29
v -150610.57 26041.51 3908.80
v -150613.70 26095.49 3908.80
v -150622.19 26103.73 3908.80
v -150619.06 26049.78 3908.80
v -150402.19 24667.66 3692.60
v -150362.69 24269.74 3662.35
v -150362.69 24269.74 3717.60
v -150402.19 24667.66 3717.60
v -150410.55 24670.93 3717.60
v -150371.51 24277.57 3717.60
v -150857.03 24260.08 3641.80
v -150857.03 24260.08 3717.60
v -150861.75 24267.99 3717.60
v -151624.51 24245.08 3609.90
v -151624.51 24245.08 3717.60
v -151622.89 24253.11 3717.60
v -152422.60 24229.49 3672.50
v -152422.60 24229.49 3717.60
v -152414.36 24237.65 3717.60
v -152426.78 24229.40 3672.66
v -152426.78 24229.40 3717.60
v -152418.51 24237.57 3717.60
v -152410.18 24744.41 3692.60
v -152410.18 24744.41 3717.60
v -152402.09 24746.84 3717.60
vt -530.5726 15.5322
vt -529.1302 15.4800
vt -529.1302 15.5947
vt -530.5726 15.5947
vt -530.5807 15.5947
vt -529.1612 15.5947
vt -528.5055 15.4573
vt -528.5055 15.5947
vt -528.5465 15.5947
vt -529.1302 15.4322
vt -529.1302 15.5947
vt -529.1713 15.5947
vt -529.1415 15.4317
vt -529.1415 15.5947
vt -529.1826 15.5947
vt -529.1529 15.4322
vt -529.1529 15.5947
vt -529.1939 15.5947
vt -530.1164 15.4707
vt -530.1164 15.5947
vt -530.1577 15.5947
vt -530.1083 15.4704
vt -530.1083 15.5947
vt -530.1496 15.5947
vt -529.1302 15.5046
vt -529.1302 15.5947
vt -529.1725 15.5947
vt -528.3369 15.5322
vt -528.3369 15.5947
vt -528.3800 15.5947
vt -523.8739 15.6415
vt -525.7437 15.5667
vt -525.7437 15.7040
vt -523.8739 15.7040
vt -523.9063 15.7040
vt -525.7490 15.7040
vt -526.1656 15.5498
vt -526.1656 15.7040
vt -526.1663 15.7040
vt -527.8462 15.6013
vt -527.8462 15.7040
vt -527.8290 15.7040
vt -529.1302 15.6406
vt -529.1302 15.7040
vt -529.0983 15.7040
vt -529.1609 15.6415
vt -529.1609 15.7040
vt -529.1285 15.7040
vt -508.2601 15.0038
vt -507.3991 14.9283
vt -507.3991 15.0663
vt -508.2601 15.0663
vt -508.2419 15.0663
vt -507.3927 15.0663
vt -506.9772 14.9090
vt -506.9772 15.0663
vt -506.9744 15.0663
vt -504.1302 14.8772
vt -504.1302 15.0663
vt -504.1518 15.0663
vt -502.2539 14.9313
vt -502.2539 15.0663
vt -502.2915 15.0663
vt -502.0407 14.9374
vt -502.0407 15.0663
vt -502.0802 15.0663
vt -503.2366 15.0038
vt -503.2366 15.0663
vt -503.2597 15.0663
vt -519.9578 15.5883
vt -518.8874 15.5215
vt -518.8874 15.6508
vt -519.9578 15.6508
vt -519.9736 15.6508
vt -518.9231 15.6508
vt -518.7367 15.5121
vt -518.7367 15.6508
vt -518.7752 15.6508
vt -520.1925 15.4662
vt -520.1925 15.6508
vt -520.2152 15.6508
vt -521.2881 15.5539
vt -521.2881 15.6508
vt -521.2990 15.6508
vt -521.7177 15.5883
vt -521.7177 15.6508
vt -521.7214 15.6508
vt -491.2473 15.2055
vt -491.3147 15.2002
vt -491.3147 15.2680
vt -491.2473 15.2680
vt -491.2194 15.2680
vt -491.2862 15.2680
vt -491.4766 15.1874
vt -491.4766 15.2680
vt -491.4467 15.2680
vt -491.6302 15.1693
vt -491.6302 15.2680
vt -491.5990 15.2680
vt -492.6527 15.1305
vt -492.6527 15.2680
vt -492.6127 15.2680
vt -491.6302 15.0874
vt -491.6302 15.2680
vt -491.6069 15.2680
vt -490.2700 15.1388
vt -490.2700 15.2680
vt -490.2690 15.2680
vt -489.7043 15.2055
vt -489.7043 15.2680
vt -489.7081 15.2680
vt -544.9158 15.3697
vt -541.6302 15.3631
vt -541.6302 15.5103
vt -544.9158 15.5103
vt -544.9152 15.5103
vt -541.6633 15.5103
vt -541.1986 15.3622
vt -541.1986 15.5103
vt -541.2361 15.5103
vt -540.9072 15.3731
vt -540.9072 15.5103
vt -540.9477 15.5103
vt -541.0579 15.3969
vt -541.0579 15.5103
vt -541.0956 15.5103
vt -541.3470 15.4426
vt -541.3470 15.5103
vt -541.3793 15.5103
vt -541.4127 15.4478
vt -541.4127 15.5103
vt -541.4438 15.5103
vt -545.5600 15.4478
vt -545.3496 15.4313
vt -545.3496 15.5103
vt -545.5600 15.5103
vt -545.5482 15.5103
vt -545.3379 15.5103
vt -545.2432 15.4229
vt -545.2432 15.5103
vt -545.2314 15.5103
vt -573.7022 14.6182
vt -573.5736 14.5699
vt -573.5736 14.6807
vt -573.7022 14.6807
vt -573.6777 14.6807
vt -573.5494 14.6807
vt -573.3566 14.4884
vt -573.3566 14.6807
vt -573.3330 14.6807
vt -572.8802 14.5226
vt -572.8802 14.6807
vt -572.8579 14.6807
vt -572.6795 14.5450
vt -572.6795 14.6807
vt -572.6577 14.6807
vt -570.7912 14.5676
vt -570.7912 14.6807
vt -570.7902 14.6807
vt -570.1860 14.5390
vt -570.1860 14.6807
vt -570.1867 14.6807
vt -569.3788 14.6182
vt -569.3788 14.6807
vt -569.3818 14.6807
vt -567.2809 15.0215
vt -566.9489 14.9827
vt -566.9489 15.0840
vt -567.2809 15.0840
vt -567.3039 15.0840
vt -566.9740 15.0840
vt -566.6302 14.9454
vt -566.6302 15.0840
vt -566.6580 15.0840
vt -566.4466 14.9459
vt -566.4466 15.0840
vt -566.4760 15.0840
vt -565.4221 14.9490
vt -565.4221 15.0840
vt -565.4602 15.0840
vt -566.6302 14.8272
vt -566.6302 15.0840
vt -566.6635 15.0840
vt -569.0287 14.8731
vt -569.0287 15.0840
vt -569.0525 15.0840
vt -572.8802 14.8297
vt -572.8802 15.0840
vt -572.8887 15.0840
vt -573.6313 14.8513
vt -573.6313 15.0840
vt -573.6368 15.0840
vt -577.2463 14.9552
vt -577.2463 15.0840
vt -577.2375 15.0840
vt -577.5207 15.0215
vt -577.5207 15.0840
vt -577.5108 15.0840
vt -503.8685 13.8428
vt -504.1029 13.7630
vt -504.1029 13.9053
vt -503.8685 13.9053
vt -503.8633 13.9053
vt -504.0952 13.9053
vt -504.1302 13.7572
vt -504.1302 13.9053
vt -504.1223 13.9053
vt -504.5031 13.8428
vt -504.5031 13.9053
vt -504.4932 13.9053
vt -474.8191 12.2937
vt -472.8802 12.2813
vt -472.8802 12.3562
vt -474.8191 12.3562
vt -474.8074 12.3562
vt -472.8862 12.3562
vt -472.7077 12.2733
vt -472.7077 12.3562
vt -472.7152 12.3562
vt -470.7094 12.0944
vt -470.7094 12.3562
vt -470.7323 12.3562
vt -469.2381 12.1813
vt -469.2381 12.3562
vt -469.2724 12.3562
vt -468.5960 12.2191
vt -468.5960 12.3562
vt -468.6352 12.3562
vt -470.5828 12.2732
vt -470.5828 12.3562
vt -470.6037 12.3562
vt -471.3410 12.2937
vt -471.3410 12.3562
vt -471.3548 12.3562
vt -457.6132 10.0185
vt -456.8646 9.9389
vt -456.8646 10.0810
vt -457.6132 10.0810
vt -457.6303 10.0810
vt -456.8902 10.0810
vt -456.6313 9.9314
vt -456.6313 10.0810
vt -456.6579 10.0810
vt -455.9948 10.0185
vt -455.9948 10.0810
vt -456.0242 10.0810
vt -516.3983 13.8483
vt -515.9049 13.8099
vt -515.9049 13.9108
vt -516.3983 13.9108
vt -516.4152 13.9108
vt -515.9239 13.9108
vt -514.9112 13.7250
vt -514.9112 13.9108
vt -514.9305 13.9108
vt -512.5501 13.7681
vt -512.5501 13.9108
vt -512.5697 13.9108
vt -512.3929 13.7709
vt -512.3929 13.9108
vt -512.4127 13.9108
vt -511.1108 13.8483
vt -511.1108 13.9108
vt -511.1407 13.9108
vt -561.9732 13.4812
vt -562.4304 13.4315
vt -562.4304 13.5437
vt -561.9732 13.5437
vt -561.9383 13.5437
vt -562.3940 13.5437
vt -560.6759 13.4812
vt -560.6759 13.5437
vt -560.6577 13.5437
vt -559.6628 13.4812
vt -557.8693 13.4603
vt -557.8693 13.5437
vt -559.6628 13.5437
vt -559.6551 13.5437
vt -557.8802 13.5437
vt -555.3789 13.4313
vt -555.3789 13.5437
vt -555.3898 13.5437
vt -554.2443 13.4048
vt -554.2443 13.5437
vt -554.2552 13.5437
vt -554.1302 13.4021
vt -554.1302 13.5437
vt -554.1411 13.5437
vt -553.6165 13.4107
vt -553.6165 13.5437
vt -553.6274 13.5437
vt -552.3870 13.4661
vt -552.3870 13.5437
vt -552.3979 13.5437
vt -552.0512 13.4812
vt -552.0512 13.5437
vt -552.0621 13.5437
vt -511.3896 13.2620
vt -510.4512 13.1869
vt -510.4512 13.3245
vt -511.3896 13.3245
vt -511.3904 13.3245
vt -510.4515 13.3245
vt -510.3802 13.1813
vt -510.3802 13.3245
vt -510.3806 13.3245
vt -508.3615 13.2620
vt -508.3615 13.3245
vt -508.3637 13.3245
vt -510.6971 13.2620
vt -510.9239 13.2465
vt -510.9239 13.3245
vt -510.6971 13.3245
vt -510.6887 13.3245
vt -510.9146 13.3245
vt -511.1365 13.2620
vt -511.1365 13.3245
vt -511.1263 13.3245
vt -503.8601 14.1100
vt -504.1302 14.0753
vt -504.1302 14.1725
vt -503.8601 14.1725
vt -503.8341 14.1725
vt -504.1008 14.1725
vt -504.9638 14.0348
vt -504.9638 14.1725
vt -504.9240 14.1725
vt -504.1302 14.0073
vt -504.1302 14.1725
vt -504.0939 14.1725
vt -503.0885 14.0563
vt -503.0885 14.1725
vt -503.0566 14.1725
vt -501.9445 14.1100
vt -501.9445 14.1725
vt -501.9174 14.1725
vt -462.6454 11.2370
vt -462.1539 11.1606
vt -462.1539 11.2995
vt -462.6454 11.2995
vt -462.6445 11.2995
vt -462.1590 11.2995
vt -461.4215 11.0770
vt -461.4215 11.2995
vt -461.4320 11.2995
vt -460.9678 11.0253
vt -460.9678 11.2995
vt -460.9817 11.2995
vt -460.3802 11.0391
vt -460.3802 11.2995
vt -460.3986 11.2995
vt -457.5505 11.2191
vt -457.5505 11.2995
vt -457.5902 11.2995
vt -457.7265 11.2370
vt -457.7265 11.2995
vt -457.7643 11.2995
vt -547.8631 12.9867
vt -547.2749 12.9555
vt -547.2749 13.0492
vt -547.8631 13.0492
vt -547.8369 13.0492
vt -547.2534 13.0492
vt -547.2414 12.9474
vt -547.2414 13.0492
vt -547.2202 13.0492
vt -541.6302 12.8572
vt -541.6302 13.0492
vt -541.6459 13.0492
vt -539.3973 12.9107
vt -539.3973 13.0492
vt -539.4277 13.0492
vt -539.4990 12.9867
vt -539.4990 13.0492
vt -539.5285 13.0492
vt -471.5365 11.7700
vt -470.6964 11.6692
vt -470.6964 11.8325
vt -471.5365 11.8325
vt -471.5540 11.8325
vt -470.7200 11.8325
vt -468.5651 11.6845
vt -468.5651 11.8325
vt -468.6040 11.8325
vt -468.7582 11.7700
vt -468.7582 11.8325
vt -468.7960 11.8325
vt -502.6259 12.7617
vt -500.7251 12.6813
vt -500.7251 12.8242
vt -502.6259 12.8242
vt -502.6096 12.8242
vt -500.7217 12.8242
vt -500.5790 12.6874
vt -500.5790 12.8242
vt -500.5765 12.8242
vt -497.8802 12.6947
vt -497.8802 12.8242
vt -497.8907 12.8242
vt -497.5186 12.6234
vt -497.5186 12.8242
vt -497.5307 12.8242
vt -497.1005 12.6345
vt -497.1005 12.8242
vt -497.1146 12.8242
vt -492.2944 12.7617
vt -492.2944 12.8242
vt -492.3317 12.8242
vt -512.4412 12.7172
vt -510.3802 12.6112
vt -510.3802 12.7797
vt -512.4412 12.7797
vt -512.4539 12.7797
vt -510.4107 12.7797
vt -509.2751 12.6427
vt -509.2751 12.7797
vt -509.3152 12.7797
vt -510.3802 12.6602
vt -510.3802 12.7797
vt -510.4200 12.7797
vt -510.7586 12.6964
vt -510.7586 12.7797
vt -510.7983 12.7797
vt -510.9702 12.7048
vt -510.9702 12.7797
vt -511.0098 12.7797
vt -511.2802 12.7172
vt -511.2802 12.7797
vt -511.3198 12.7797
vt -511.2802 12.7172
vt -510.8358 12.6995
vt -510.8358 12.7797
vt -511.2802 12.7797
vt -511.2729 12.7797
vt -510.8286 12.7797
vt -510.3802 12.6813
vt -510.3802 12.7797
vt -510.3730 12.7797
vt -508.0298 12.6813
vt -508.0298 12.7797
vt -508.0229 12.7797
vt -506.3385 12.6813
vt -506.3385 12.7797
vt -506.3318 12.7797
vt -505.6006 12.6813
vt -505.6006 12.7797
vt -505.5940 12.7797
vt -504.1351 12.6813
vt -504.1351 12.7797
vt -504.1420 12.7797
vt -504.1302 12.6813
vt -504.1302 12.7797
vt -504.1371 12.7797
vt -503.2302 12.7172
vt -503.2302 12.7797
vt -503.2455 12.7797
vt -502.9209 12.7172
vt -503.3853 12.6961
vt -503.3853 12.7797
vt -502.9209 12.7797
vt -502.9432 12.7797
vt -503.4075 12.7797
vt -503.7131 12.6813
vt -503.7131 12.7797
vt -503.7354 12.7797
vt -504.1302 12.7002
vt -504.1302 12.7797
vt -504.1524 12.7797
vt -505.8192 12.7094
vt -505.8192 12.7797
vt -505.8415 12.7797
vt -507.2503 12.7172
vt -507.2503 12.7797
vt -507.2725 12.7797
vt -459.9065 9.9473
vt -459.8156 9.9313
vt -459.8156 10.0098
vt -459.9065 10.0098
vt -459.9337 10.0098
vt -459.8433 10.0098
vt -459.5234 9.9141
vt -459.5234 10.0098
vt -459.5528 10.0098
vt -458.6042 9.8602
vt -458.6042 10.0098
vt -458.6390 10.0098
vt -458.0421 9.8692
vt -458.0421 10.0098
vt -458.0802 10.0098
vt -458.6375 9.9473
vt -458.6375 10.0098
vt -458.6708 10.0098
vt -480.8304 11.0495
vt -480.3587 10.9927
vt -480.3587 11.1120
vt -480.8304 11.1120
vt -480.8307 11.1120
vt -480.3590 11.1120
vt -479.9475 10.9760
vt -479.9475 11.1120
vt -479.9477 11.1120
vt -479.7971 10.9579
vt -479.7971 11.1120
vt -479.7989 11.1120
vt -479.1302 11.0385
vt -479.1302 11.1120
vt -479.1391 11.1120
vt -476.1814 11.0409
vt -476.1814 11.1120
vt -476.2215 11.1120
vt -476.2357 11.0495
vt -476.2357 11.1120
vt -476.2757 11.1120
vt -506.1826 11.8987
vt -505.8720 11.8616
vt -505.8720 11.9612
vt -506.1826 11.9612
vt -506.1552 11.9612
vt -505.8463 11.9612
vt -505.6032 11.8580
vt -505.6032 11.9612
vt -505.5790 11.9612
vt -504.1302 11.8386
vt -504.1302 11.9612
vt -504.1060 11.9612
vt -503.1559 11.8257
vt -503.1559 11.9612
vt -503.1317 11.9612
vt -501.1723 11.7996
vt -501.1723 11.9612
vt -501.1481 11.9612
vt -500.5932 11.8227
vt -500.5932 11.9612
vt -500.5690 11.9612
vt -499.3910 11.8708
vt -499.3910 11.9612
vt -499.3753 11.9612
vt -498.6927 11.8987
vt -498.6927 11.9612
vt -498.6820 11.9612
vt -491.6189 12.4799
vt -491.6302 12.4799
vt -491.6302 12.6030
vt -491.6189 12.6030
vt -491.6402 12.6030
vt -491.6514 12.6030
vt -492.7629 12.4313
vt -492.7629 12.6030
vt -492.7758 12.6030
vt -493.7511 12.5161
vt -493.7511 12.6030
vt -493.7567 12.6030
vt -494.0355 12.5405
vt -494.0355 12.6030
vt -494.0390 12.6030
vt -498.7053 12.5405
vt -499.7228 12.5049
vt -499.7228 12.6030
vt -498.7053 12.6030
vt -498.6763 12.6030
vt -499.6867 12.6030
vt -500.2751 12.4650
vt -500.2751 12.6030
vt -500.2352 12.6030
vt -499.0858 12.4071
vt -499.0858 12.6030
vt -499.0544 12.6030
vt -498.5234 12.3798
vt -498.5234 12.6030
vt -498.4961 12.6030
vt -497.8802 12.3761
vt -497.8802 12.6030
vt -497.8575 12.6030
vt -495.1041 12.4712
vt -495.1041 12.6030
vt -495.1015 12.6030
vt -494.5008 12.5405
vt -494.5008 12.6030
vt -494.4981 12.6030
vt -485.9065 12.5405
vt -486.9348 12.4934
vt -486.9348 12.6030
vt -485.9065 12.6030
vt -485.9279 12.6030
vt -486.9560 12.6030
vt -488.2931 12.4895
vt -488.2931 12.6030
vt -488.3144 12.6030
vt -461.4332 9.9945
vt -461.0769 9.9313
vt -461.0769 10.0570
vt -461.4332 10.0570
vt -461.4273 10.0570
vt -461.0746 10.0570
vt -460.3802 9.9313
vt -460.3802 10.0570
vt -460.3847 10.0570
vt -460.0777 9.9192
vt -460.0777 10.0570
vt -460.0852 10.0570
vt -459.6308 9.9013
vt -459.6308 10.0570
vt -459.6404 10.0570
vt -459.1669 9.9313
vt -459.1669 10.0570
vt -459.1788 10.0570
vt -458.1882 9.9945
vt -458.1882 10.0570
vt -458.2048 10.0570
vt -468.4880 10.2285
vt -468.0901 10.1648
vt -468.0901 10.2910
vt -468.4880 10.2910
vt -468.5011 10.2910
vt -468.1057 10.2910
vt -467.4277 10.0588
vt -467.4277 10.2910
vt -467.4476 10.2910
vt -466.6302 10.1070
vt -466.6302 10.2910
vt -466.6552 10.2910
vt -464.5291 10.1499
vt -464.5291 10.2910
vt -464.5677 10.2910
vt -464.9308 10.2285
vt -464.9308 10.2910
vt -464.9603 10.2910
vt -469.4589 10.8993
vt -468.9587 10.8219
vt -468.9587 10.9618
vt -469.4589 10.9618
vt -469.4848 10.9618
vt -468.9990 10.9618
vt -470.1871 10.7697
vt -470.1871 10.9618
vt -470.2219 10.9618
vt -471.5169 10.7131
vt -471.5169 10.9618
vt -471.5456 10.9618
vt -472.6802 10.8993
vt -472.6802 10.9618
vt -472.7037 10.9618
vt -464.6269 10.7032
vt -464.6452 10.7067
vt -464.6452 10.7692
vt -464.6269 10.7692
vt -464.6277 10.7692
vt -464.6457 10.7692
vt -457.2220 10.7067
vt -456.7278 10.6294
vt -456.7278 10.7692
vt -457.2220 10.7692
vt -457.2565 10.7692
vt -456.7677 10.7692
vt -458.1141 10.5687
vt -458.1141 10.7692
vt -458.1472 10.7692
vt -460.3802 10.5617
vt -460.3802 10.7692
vt -460.4021 10.7692
vt -461.9516 10.6198
vt -461.9516 10.7692
vt -461.9656 10.7692
vt -464.2471 10.7046
vt -464.2471 10.7692
vt -464.2497 10.7692
vt -448.5758 9.7785
vt -447.8802 9.7228
vt -447.8802 9.8410
vt -448.5758 9.8410
vt -448.6112 9.8410
vt -447.9194 9.8410
vt -447.7340 9.6995
vt -447.7340 9.8410
vt -447.7740 9.8410
vt -447.8802 9.7053
vt -447.8802 9.8410
vt -447.9193 9.8410
vt -450.1640 9.6139
vt -450.1640 9.8410
vt -450.1893 9.8410
vt -452.4477 9.7053
vt -452.4477 9.8410
vt -452.4593 9.8410
vt -454.1302 9.7726
vt -454.1302 9.8410
vt -454.1317 9.8410
vt -454.3715 9.7726
vt -454.3715 9.8410
vt -454.3715 9.8410
vt -454.5190 9.7785
vt -454.5190 9.8410
vt -454.5182 9.8410
vt -438.0946 8.8984
vt -438.8958 8.9625
vt -438.8958 9.0250
vt -438.0946 9.0250
vt -438.0940 9.0250
vt -438.8829 9.0250
vt -433.9805 8.9625
vt -432.9719 8.8868
vt -432.9719 9.0250
vt -433.9805 9.0250
vt -434.0058 9.0250
vt -433.0127 9.0250
vt -435.3802 8.7904
vt -435.3802 9.0250
vt -435.4016 9.0250
vt -436.2902 8.7540
vt -436.2902 9.0250
vt -436.3042 9.0250
vt -437.2002 8.8269
vt -437.2002 9.0250
vt -437.2068 9.0250
vt -441.3081 9.6402
vt -441.6302 9.6297
vt -441.6302 9.7720
vt -441.3081 9.7720
vt -441.3502 9.7720
vt -441.6692 9.7720
vt -443.9567 9.5535
vt -443.9567 9.7720
vt -443.9734 9.7720
vt -445.7291 9.6321
vt -445.7291 9.7720
vt -445.7290 9.7720
vt -446.2230 9.7095
vt -446.2230 9.7720
vt -446.2211 9.7720
vt -441.7730 9.7095
vt -441.6302 9.6882
vt -441.6302 9.7720
vt -441.7730 9.7720
vt -441.8148 9.7720
vt -441.6721 9.7720
vt -437.6746 9.2315
vt -436.5811 9.1559
vt -436.5811 9.2940
vt -437.6746 9.2940
vt -437.7037 9.2940
vt -436.6227 9.2940
vt -437.7928 9.1045
vt -437.7928 9.2940
vt -437.8243 9.2940
vt -439.6740 9.0248
vt -439.6740 9.2940
vt -439.6900 9.2940
vt -441.6302 9.1813
vt -441.6302 9.2940
vt -441.6300 9.2940
vt -441.6404 9.1816
vt -441.6404 9.2940
vt -441.6402 9.2940
vt -442.8865 9.2315
vt -442.8865 9.2940
vt -442.8723 9.2940
vn 0.9988 0.0493 0.0000
vn 0.0000 -0.0000 1.0000
vn 0.0039 -1.0000 0.0000
vn 0.9977 0.0675 0.0000
vn 0.1317 -0.9913 0.0000
vn -0.9913 -0.1316 0.0000
vn -0.9912 -0.1324 0.0000
vn -0.1593 0.9872 0.0000
vn 0.9871 0.1604 0.0000
vn 0.1601 -0.9871 0.0000
vn 0.9621 0.2728 0.0000
vn 0.2721 -0.9623 0.0000
vn -0.9624 -0.2717 0.0000
vn -0.9996 -0.0265 0.0000
vn -0.0265 0.9996 0.0000
vn 0.9996 0.0273 0.0000
vn 0.9999 0.0128 0.0000
vn -0.0104 -0.9999 0.0000
vn 0.7209 0.6930 0.0000
vn -0.0156 0.9999 0.0000
vn -0.3504 0.9366 0.0000
vn 0.2916 0.9566 0.0000
vn 0.9362 0.3516 0.0000
vn 0.9535 -0.3013 0.0000
vn 0.9535 -0.3015 0.0000
vn -0.3003 -0.9538 0.0000
vn -0.1923 -0.9813 0.0000
vn -0.9813 0.1927 0.0000
vn 0.1879 0.9822 0.0000
vn 0.9820 -0.1886 0.0000
vn -0.1875 -0.9823 0.0000
vn 0.9896 -0.1436 0.0000
vn 0.8854 -0.4647 0.0000
vn 0.9986 -0.0524 0.0000
vn 0.9878 0.1555 0.0000
vn 0.9937 -0.1120 0.0000
vn -0.8453 0.5343 0.0000
vn 0.9245 0.3811 0.0000
vn 0.9246 0.3808 0.0000
vn 0.9251 0.3798 0.0000
vn 0.9977 0.0681 0.0000
vn 0.0832 0.9965 0.0000
vn -0.9889 0.1488 0.0000
vn -0.9954 0.0957 0.0000
vn 0.0951 0.9955 0.0000
vn 0.1270 0.9919 0.0000
vn 0.9918 -0.1275 0.0000
vn -0.1266 -0.9920 0.0000
vn -0.4957 0.8685 0.0000
vn 0.7518 0.6594 0.0000
vn 0.6499 -0.7600 0.0000
vn 0.9721 -0.2345 0.0000
vn -0.2336 -0.9723 0.0000
vn -0.0555 0.9985 0.0000
vn 0.9974 0.0723 0.0000
vn 0.9280 0.3727 0.0000
vn -0.1610 0.9870 0.0000
vn 0.9848 0.1740 0.0000
vn 0.1189 -0.9929 0.0000
vn 0.1198 -0.9928 0.0000
vn 0.9530 -0.3030 0.0000
vn -0.3018 -0.9534 0.0000
vn 1.0000 -0.0057 0.0000
vn 0.0061 1.0000 0.0000
vn 1.0000 -0.0050 0.0000
vn -0.0043 -1.0000 0.0000
vn -0.2411 0.9705 0.0000
vn -0.2407 0.9706 0.0000
vn 0.0680 -0.9977 0.0000
vn -0.9977 -0.0674 0.0000
vn -0.0669 0.9978 0.0000
vn 0.9977 0.0683 0.0000
vn 0.0672 -0.9977 0.0000
vn 0.1255 0.9921 0.0000
vn 0.9734 -0.2291 0.0000
vn 0.9957 -0.0921 0.0000
vn -0.0216 -0.9998 0.0000
vn 0.9996 0.0278 0.0000
vn 0.0125 -0.9999 0.0000
vn -0.9998 -0.0194 0.0000
vn 0.9998 0.0180 0.0000
vn 0.0187 -0.9998 0.0000
vn 1.0000 0.0000 0.0000
vn 0.0000 -1.0000 0.0000
vn -1.0000 -0.0000 0.0000
vn -0.9995 0.0318 0.0000
vn 0.9991 0.0428 0.0000
vn -0.0376 -0.9993 0.0000
vn -0.9996 -0.0279 0.0000
vn 0.9983 0.0578 0.0000
vn 0.9951 0.0988 0.0000
vn 0.0195 -0.9998 0.0000
vn -0.9995 0.0322 0.0000
f 1/1/1 3/3/1 2/2/1
f 1/1/1 4/4/1 3/3/1
f 5/5/2 6/6/2 3/3/2
f 5/5/2 3/3/2 4/4/2
f 2/2/1 8/8/1 7/7/1
f 2/2/1 3/3/1 8/8/1
f 6/6/2 9/9/2 8/8/2
f 6/6/2 8/8/2 3/3/2
f 7/7/3 11/11/3 10/10/3
f 7/7/3 8/8/3 11/11/3
f 9/9/2 12/12/2 11/11/2
f 9/9/2 11/11/2 8/8/2
f 10/10/3 14/14/3 13/13/3
f 10/10/3 11/11/3 14/14/3
f 12/12/2 15/15/2 14/14/2
f 12/12/2 14/14/2 11/11/2
f 13/13/3 17/17/3 16/16/3
f 13/13/3 14/14/3 17/17/3
f 15/15/2 18/18/2 17/17/2
f 15/15/2 17/17/2 14/14/2
f 16/16/3 20/20/3 19/19/3
f 16/16/3 17/17/3 20/20/3
f 18/18/2 21/21/2 20/20/2
f 18/18/2 20/20/2 17/17/2
f 19/19/4 23/23/4 22/22/4
f 19/19/4 20/20/4 23/23/4
f 21/21/2 24/24/2 23/23/2
f 21/21/2 23/23/2 20/20/2
f 22/22/4 26/26/4 25/25/4
f 22/22/4 23/23/4 26/26/4
f 24/24/2 27/27/2 26/26/2
f 24/24/2 26/26/2 23/23/2
f 25/25/4 29/29/4 28/28/4
f 25/25/4 26/26/4 29/29/4
f 27/27/2 30/30/2 29/29/2
f 27/27/2 29/29/2 26/26/2
f 31/31/5 33/33/5 32/32/5
f 31/31/5 34/34/5 33/33/5
f 35/35/2 36/36/2 33/33/2
f 35/35/2 33/33/2 34/34/2
f 32/32/6 38/38/6 37/37/6
f 32/32/6 33/33/6 38/38/6
f 36/36/2 39/39/2 38/38/2
f 36/36/2 38/38/2 33/33/2
f 37/37/6 41/41/6 40/40/6
f 37/37/6 38/38/6 41/41/6
f 39/39/2 42/42/2 41/41/2
f 39/39/2 41/41/2 38/38/2
f 40/40/7 44/44/7 43/43/7
f 40/40/7 41/41/7 44/44/7
f 42/42/2 45/45/2 44/44/2
f 42/42/2 44/44/2 41/41/2
f 43/43/7 47/47/7 46/46/7
f 43/43/7 44/44/7 47/47/7
f 45/45/2 48/48/2 47/47/2
f 45/45/2 47/47/2 44/44/2
f 49/49/8 51/51/8 50/50/8
f 49/49/8 52/52/8 51/51/8
f 53/53/2 54/54/2 51/51/2
f 53/53/2 51/51/2 52/52/2
f 50/50/9 56/56/9 55/55/9
f 50/50/9 51/51/9 56/56/9
f 54/54/2 57/57/2 56/56/2
f 54/54/2 56/56/2 51/51/2
f 55/55/9 59/59/9 58/58/9
f 55/55/9 56/56/9 59/59/9
f 57/57/2 60/60/2 59/59/2
f 57/57/2 59/59/2 56/56/2
f 58/58/9 62/62/9 61/61/9
f 58/58/9 59/59/9 62/62/9
f 60/60/2 63/63/2 62/62/2
f 60/60/2 62/62/2 59/59/2
f 61/61/9 65/65/9 64/64/9
f 61/61/9 62/62/9 65/65/9
f 63/63/2 66/66/2 65/65/2
f 63/63/2 65/65/2 62/62/2
f 64/64/10 68/68/10 67/67/10
f 64/64/10 65/65/10 68/68/10
f 66/66/2 69/69/2 68/68/2
f 66/66/2 68/68/2 65/65/2
f 70/70/11 72/72/11 71/71/11
f 70/70/11 73/73/11 72/72/11
f 74/74/2 75/75/2 72/72/2
f 74/74/2 72/72/2 73/73/2
f 71/71/11 77/77/11 76/76/11
f 71/71/11 72/72/11 77/77/11
f 75/75/2 78/78/2 77/77/2
f 75/75/2 77/77/2 72/72/2
f 76/76/12 80/80/12 79/79/12
f 76/76/12 77/77/12 80/80/12
f 78/78/2 81/81/2 80/80/2
f 78/78/2 80/80/2 77/77/2
f 79/79/12 83/83/12 82/82/12
f 79/79/12 80/80/12 83/83/12
f 81/81/2 84/84/2 83/83/2
f 81/81/2 83/83/2 80/80/2
f 82/82/13 86/86/13 85/85/13
f 82/82/13 83/83/13 86/86/13
f 84/84/2 87/87/2 86/86/2
f 84/84/2 86/86/2 83/83/2
f 88/88/14 90/90/14 89/89/14
f 88/88/14 91/91/14 90/90/14
f 92/92/2 93/93/2 90/90/2
f 92/92/2 90/90/2 91/91/2
f 89/89/14 95/95/14 94/94/14
f 89/89/14 90/90/14 95/95/14
f 93/93/2 96/96/2 95/95/2
f 93/93/2 95/95/2 90/90/2
f 94/94/14 98/98/14 97/97/14
f 94/94/14 95/95/14 98/98/14
f 96/96/2 99/99/2 98/98/2
f 96/96/2 98/98/2 95/95/2
f 97/97/14 101/101/14 100/100/14
f 97/97/14 98/98/14 101/101/14
f 99/99/2 102/102/2 101/101/2
f 99/99/2 101/101/2 98/98/2
f 100/100/15 104/104/15 103/103/15
f 100/100/15 101/101/15 104/104/15
f 102/102/2 105/105/2 104/104/2
f 102/102/2 104/104/2 101/101/2
f 103/103/15 107/107/15 106/106/15
f 103/103/15 104/104/15 107/107/15
f 105/105/2 108/108/2 107/107/2
f 105/105/2 107/107/2 104/104/2
f 106/106/16 110/110/16 109/109/16
f 106/106/16 107/107/16 110/110/16
f 108/108/2 111/111/2 110/110/2
f 108/108/2 110/110/2 107/107/2
f 112/112/17 114/114/17 113/113/17
f 112/112/17 115/115/17 114/114/17
f 116/116/2 117/117/2 114/114/2
f 116/116/2 114/114/2 115/115/2
f 113/113/17 119/119/17 118/118/17
f 113/113/17 114/114/17 119/119/17
f 117/117/2 120/120/2 119/119/2
f 117/117/2 119/119/2 114/114/2
f 118/118/17 122/122/17 121/121/17
f 118/118/17 119/119/17 122/122/17
f 120/120/2 123/123/2 122/122/2
f 120/120/2 122/122/2 119/119/2
f 121/121/18 125/125/18 124/124/18
f 121/121/18 122/122/18 125/125/18
f 123/123/2 126/126/2 125/125/2
f 123/123/2 125/125/2 122/122/2
f 124/124/18 128/128/18 127/127/18
f 124/124/18 125/125/18 128/128/18
f 126/126/2 129/129/2 128/128/2
f 126/126/2 128/128/2 125/125/2
f 127/127/18 131/131/18 130/130/18
f 127/127/18 128/128/18 131/131/18
f 129/129/2 132/132/2 131/131/2
f 129/129/2 131/131/2 128/128/2
f 133/133/19 135/135/19 134/134/19
f 133/133/19 136/136/19 135/135/19
f 137/137/2 138/138/2 135/135/2
f 137/137/2 135/135/2 136/136/2
f 134/134/19 140/140/19 139/139/19
f 134/134/19 135/135/19 140/140/19
f 138/138/2 141/141/2 140/140/2
f 138/138/2 140/140/2 135/135/2
f 139/139/20 115/115/20 112/112/20
f 139/139/20 140/140/20 115/115/20
f 141/141/2 116/116/2 115/115/2
f 141/141/2 115/115/2 140/140/2
f 142/142/21 144/144/21 143/143/21
f 142/142/21 145/145/21 144/144/21
f 146/146/2 147/147/2 144/144/2
f 146/146/2 144/144/2 145/145/2
f 143/143/21 149/149/21 148/148/21
f 143/143/21 144/144/21 149/149/21
f 147/147/2 150/150/2 149/149/2
f 147/147/2 149/149/2 144/144/2
f 148/148/21 152/152/21 151/151/21
f 148/148/21 149/149/21 152/152/21
f 150/150/2 153/153/2 152/152/2
f 150/150/2 152/152/2 149/149/2
f 151/151/21 155/155/21 154/154/21
f 151/151/21 152/152/21 155/155/21
f 153/153/2 156/156/2 155/155/2
f 153/153/2 155/155/2 152/152/2
f 154/154/22 158/158/22 157/157/22
f 154/154/22 155/155/22 158/158/22
f 156/156/2 159/159/2 158/158/2
f 156/156/2 158/158/2 155/155/2
f 157/157/23 161/161/23 160/160/23
f 157/157/23 158/158/23 161/161/23
f 159/159/2 162/162/2 161/161/2
f 159/159/2 161/161/2 158/158/2
f 160/160/23 164/164/23 163/163/23
f 160/160/23 161/161/23 164/164/23
f 162/162/2 165/165/2 164/164/2
f 162/162/2 164/164/2 161/161/2
f 166/166/24 168/168/24 167/167/24
f 166/166/24 169/169/24 168/168/24
f 170/170/2 171/171/2 168/168/2
f 170/170/2 168/168/2 169/169/2
f 167/167/25 173/173/25 172/172/25
f 167/167/25 168/168/25 173/173/25
f 171/171/2 174/174/2 173/173/2
f 171/171/2 173/173/2 168/168/2
f 172/172/25 176/176/25 175/175/25
f 172/172/25 173/173/25 176/176/25
f 174/174/2 177/177/2 176/176/2
f 174/174/2 176/176/2 173/173/2
f 175/175/25 179/179/25 178/178/25
f 175/175/25 176/176/25 179/179/25
f 177/177/2 180/180/2 179/179/2
f 177/177/2 179/179/2 176/176/2
f 178/178/26 182/182/26 181/181/26
f 178/178/26 179/179/26 182/182/26
f 180/180/2 183/183/2 182/182/2
f 180/180/2 182/182/2 179/179/2
f 181/181/26 185/185/26 184/184/26
f 181/181/26 182/182/26 185/185/26
f 183/183/2 186/186/2 185/185/2
f 183/183/2 185/185/2 182/182/2
f 184/184/26 188/188/26 187/187/26
f 184/184/26 185/185/26 188/188/26
f 186/186/2 189/189/2 188/188/2
f 186/186/2 188/188/2 185/185/2
f 187/187/26 191/191/26 190/190/26
f 187/187/26 188/188/26 191/191/26
f 189/189/2 192/192/2 191/191/2
f 189/189/2 191/191/2 188/188/2
f 190/190/26 194/194/26 193/193/26
f 190/190/26 191/191/26 194/194/26
f 192/192/2 195/195/2 194/194/2
f 192/192/2 194/194/2 191/191/2
f 193/193/26 197/197/26 196/196/26
f 193/193/26 194/194/26 197/197/26
f 195/195/2 198/198/2 197/197/2
f 195/195/2 197/197/2 194/194/2
f 199/199/27 201/201/27 200/200/27
f 199/199/27 202/202/27 201/201/27
f 203/203/2 204/204/2 201/201/2
f 203/203/2 201/201/2 202/202/2
f 200/200/28 206/206/28 205/205/28
f 200/200/28 201/201/28 206/206/28
f 204/204/2 207/207/2 206/206/2
f 204/204/2 206/206/2 201/201/2
f 205/205/28 209/209/28 208/208/28
f 205/205/28 206/206/28 209/209/28
f 207/207/2 210/210/2 209/209/2
f 207/207/2 209/209/2 206/206/2
f 211/211/29 213/213/29 212/212/29
f 211/211/29 214/214/29 213/213/29
f 215/215/2 216/216/2 213/213/2
f 215/215/2 213/213/2 214/214/2
f 212/212/29 218/218/29 217/217/29
f 212/212/29 213/213/29 218/218/29
f 216/216/2 219/219/2 218/218/2
f 216/216/2 218/218/2 213/213/2
f 217/217/30 221/221/30 220/220/30
f 217/217/30 218/218/30 221/221/30
f 219/219/2 222/222/2 221/221/2
f 219/219/2 221/221/2 218/218/2
f 220/220/30 224/224/30 223/223/30
f 220/220/30 221/221/30 224/224/30
f 222/222/2 225/225/2 224/224/2
f 222/222/2 224/224/2 221/221/2
f 223/223/30 227/227/30 226/226/30
f 223/223/30 224/224/30 227/227/30
f 225/225/2 228/228/2 227/227/2
f 225/225/2 227/227/2 224/224/2
f 226/226/31 230/230/31 229/229/31
f 226/226/31 227/227/31 230/230/31
f 228/228/2 231/231/2 230/230/2
f 228/228/2 230/230/2 227/227/2
f 229/229/31 233/233/31 232/232/31
f 229/229/31 230/230/31 233/233/31
f 231/231/2 234/234/2 233/233/2
f 231/231/2 233/233/2 230/230/2
f 235/235/32 237/237/32 236/236/32
f 235/235/32 238/238/32 237/237/32
f 239/239/2 240/240/2 237/237/2
f 239/239/2 237/237/2 238/238/2
f 236/236/33 242/242/33 241/241/33
f 236/236/33 237/237/33 242/242/33
f 240/240/2 243/243/2 242/242/2
f 240/240/2 242/242/2 237/237/2
f 241/241/33 245/245/33 244/244/33
f 241/241/33 242/242/33 245/245/33
f 243/243/2 246/246/2 245/245/2
f 243/243/2 245/245/2 242/242/2
f 247/247/34 249/249/34 248/248/34
f 247/247/34 250/250/34 249/249/34
f 251/251/2 252/252/2 249/249/2
f 251/251/2 249/249/2 250/250/2
f 248/248/35 254/254/35 253/253/35
f 248/248/35 249/249/35 254/254/35
f 252/252/2 255/255/2 254/254/2
f 252/252/2 254/254/2 249/249/2
f 253/253/35 257/257/35 256/256/35
f 253/253/35 254/254/35 257/257/35
f 255/255/2 258/258/2 257/257/2
f 255/255/2 257/257/2 254/254/2
f 256/256/35 260/260/35 259/259/35
f 256/256/35 257/257/35 260/260/35
f 258/258/2 261/261/2 260/260/2
f 258/258/2 260/260/2 257/257/2
f 259/259/36 263/263/36 262/262/36
f 259/259/36 260/260/36 263/263/36
f 261/261/2 264/264/2 263/263/2
f 261/261/2 263/263/2 260/260/2
f 265/265/37 267/267/37 266/266/37
f 265/265/37 268/268/37 267/267/37
f 269/269/2 270/270/2 267/267/2
f 269/269/2 267/267/2 268/268/2
f 266/266/38 272/272/38 271/271/38
f 266/266/38 267/267/38 272/272/38
f 270/270/2 273/273/2 272/272/2
f 270/270/2 272/272/2 267/267/2
f 274/274/38 276/276/38 275/275/38
f 274/274/38 277/277/38 276/276/38
f 278/278/2 279/279/2 276/276/2
f 278/278/2 276/276/2 277/277/2
f 275/275/39 281/281/39 280/280/39
f 275/275/39 276/276/39 281/281/39
f 279/279/2 282/282/2 281/281/2
f 279/279/2 281/281/2 276/276/2
f 280/280/39 284/284/39 283/283/39
f 280/280/39 281/281/39 284/284/39
f 282/282/2 285/285/2 284/284/2
f 282/282/2 284/284/2 281/281/2
f 283/283/40 287/287/40 286/286/40
f 283/283/40 284/284/40 287/287/40
f 285/285/2 288/288/2 287/287/2
f 285/285/2 287/287/2 284/284/2
f 286/286/40 290/290/40 289/289/40
f 286/286/40 287/287/40 290/290/40
f 288/288/2 291/291/2 290/290/2
f 288/288/2 290/290/2 287/287/2
f 289/289/40 293/293/40 292/292/40
f 289/289/40 290/290/40 293/293/40
f 291/291/2 294/294/2 293/293/2
f 291/291/2 293/293/2 290/290/2
f 292/292/40 296/296/40 295/295/40
f 292/292/40 293/293/40 296/296/40
f 294/294/2 297/297/2 296/296/2
f 294/294/2 296/296/2 293/293/2
f 298/298/41 300/300/41 299/299/41
f 298/298/41 301/301/41 300/300/41
f 302/302/2 303/303/2 300/300/2
f 302/302/2 300/300/2 301/301/2
f 299/299/42 305/305/42 304/304/42
f 299/299/42 300/300/42 305/305/42
f 303/303/2 306/306/2 305/305/2
f 303/303/2 305/305/2 300/300/2
f 304/304/42 308/308/42 307/307/42
f 304/304/42 305/305/42 308/308/42
f 306/306/2 309/309/2 308/308/2
f 306/306/2 308/308/2 305/305/2
f 310/310/43 312/312/43 311/311/43
f 310/310/43 313/313/43 312/312/43
f 314/314/2 315/315/2 312/312/2
f 314/314/2 312/312/2 313/313/2
f 311/311/43 317/317/43 316/316/43
f 311/311/43 312/312/43 317/317/43
f 315/315/2 318/318/2 317/317/2
f 315/315/2 317/317/2 312/312/2
f 319/319/44 321/321/44 320/320/44
f 319/319/44 322/322/44 321/321/44
f 323/323/2 324/324/2 321/321/2
f 323/323/2 321/321/2 322/322/2
f 320/320/44 326/326/44 325/325/44
f 320/320/44 321/321/44 326/326/44
f 324/324/2 327/327/2 326/326/2
f 324/324/2 326/326/2 321/321/2
f 325/325/45 329/329/45 328/328/45
f 325/325/45 326/326/45 329/329/45
f 327/327/2 330/330/2 329/329/2
f 327/327/2 329/329/2 326/326/2
f 328/328/45 332/332/45 331/331/45
f 328/328/45 329/329/45 332/332/45
f 330/330/2 333/333/2 332/332/2
f 330/330/2 332/332/2 329/329/2
f 331/331/45 335/335/45 334/334/45
f 331/331/45 332/332/45 335/335/45
f 333/333/2 336/336/2 335/335/2
f 333/333/2 335/335/2 332/332/2
f 337/337/46 339/339/46 338/338/46
f 337/337/46 340/340/46 339/339/46
f 341/341/2 342/342/2 339/339/2
f 341/341/2 339/339/2 340/340/2
f 338/338/47 344/344/47 343/343/47
f 338/338/47 339/339/47 344/344/47
f 342/342/2 345/345/2 344/344/2
f 342/342/2 344/344/2 339/339/2
f 343/343/47 347/347/47 346/346/47
f 343/343/47 344/344/47 347/347/47
f 345/345/2 348/348/2 347/347/2
f 345/345/2 347/347/2 344/344/2
f 346/346/47 350/350/47 349/349/47
f 346/346/47 347/347/47 350/350/47
f 348/348/2 351/351/2 350/350/2
f 348/348/2 350/350/2 347/347/2
f 349/349/47 353/353/47 352/352/47
f 349/349/47 350/350/47 353/353/47
f 351/351/2 354/354/2 353/353/2
f 351/351/2 353/353/2 350/350/2
f 352/352/48 356/356/48 355/355/48
f 352/352/48 353/353/48 356/356/48
f 354/354/2 357/357/2 356/356/2
f 354/354/2 356/356/2 353/353/2
f 358/358/49 360/360/49 359/359/49
f 358/358/49 361/361/49 360/360/49
f 362/362/2 363/363/2 360/360/2
f 362/362/2 360/360/2 361/361/2
f 359/359/49 365/365/49 364/364/49
f 359/359/49 360/360/49 365/365/49
f 363/363/2 366/366/2 365/365/2
f 363/363/2 365/365/2 360/360/2
f 364/364/50 368/368/50 367/367/50
f 364/364/50 365/365/50 368/368/50
f 366/366/2 369/369/2 368/368/2
f 366/366/2 368/368/2 365/365/2
f 367/367/50 371/371/50 370/370/50
f 367/367/50 368/368/50 371/371/50
f 369/369/2 372/372/2 371/371/2
f 369/369/2 371/371/2 368/368/2
f 370/370/51 374/374/51 373/373/51
f 370/370/51 371/371/51 374/374/51
f 372/372/2 375/375/2 374/374/2
f 372/372/2 374/374/2 371/371/2
f 376/376/52 378/378/52 377/377/52
f 376/376/52 379/379/52 378/378/52
f 380/380/2 381/381/2 378/378/2
f 380/380/2 378/378/2 379/379/2
f 377/377/52 383/383/52 382/382/52
f 377/377/52 378/378/52 383/383/52
f 381/381/2 384/384/2 383/383/2
f 381/381/2 383/383/2 378/378/2
f 382/382/53 386/386/53 385/385/53
f 382/382/53 383/383/53 386/386/53
f 384/384/2 387/387/2 386/386/2
f 384/384/2 386/386/2 383/383/2
f 388/388/54 390/390/54 389/389/54
f 388/388/54 391/391/54 390/390/54
f 392/392/2 393/393/2 390/390/2
f 392/392/2 390/390/2 391/391/2
f 389/389/54 395/395/54 394/394/54
f 389/389/54 390/390/54 395/395/54
f 393/393/2 396/396/2 395/395/2
f 393/393/2 395/395/2 390/390/2
f 394/394/55 398/398/55 397/397/55
f 394/394/55 395/395/55 398/398/55
f 396/396/2 399/399/2 398/398/2
f 396/396/2 398/398/2 395/395/2
f 397/397/55 401/401/55 400/400/55
f 397/397/55 398/398/55 401/401/55
f 399/399/2 402/402/2 401/401/2
f 399/399/2 401/401/2 398/398/2
f 400/400/55 404/404/55 403/403/55
f 400/400/55 401/401/55 404/404/55
f 402/402/2 405/405/2 404/404/2
f 402/402/2 404/404/2 401/401/2
f 403/403/55 407/407/55 406/406/55
f 403/403/55 404/404/55 407/407/55
f 405/405/2 408/408/2 407/407/2
f 405/405/2 407/407/2 404/404/2
f 409/409/56 411/411/56 410/410/56
f 409/409/56 412/412/56 411/411/56
f 413/413/2 414/414/2 411/411/2
f 413/413/2 411/411/2 412/412/2
f 410/410/56 416/416/56 415/415/56
f 410/410/56 411/411/56 416/416/56
f 414/414/2 417/417/2 416/416/2
f 414/414/2 416/416/2 411/411/2
f 415/415/12 419/419/12 418/418/12
f 415/415/12 416/416/12 419/419/12
f 417/417/2 420/420/2 419/419/2
f 417/417/2 419/419/2 416/416/2
f 418/418/12 422/422/12 421/421/12
f 418/418/12 419/419/12 422/422/12
f 420/420/2 423/423/2 422/422/2
f 420/420/2 422/422/2 419/419/2
f 421/421/12 425/425/12 424/424/12
f 421/421/12 422/422/12 425/425/12
f 423/423/2 426/426/2 425/425/2
f 423/423/2 425/425/2 422/422/2
f 424/424/12 428/428/12 427/427/12
f 424/424/12 425/425/12 428/428/12
f 426/426/2 429/429/2 428/428/2
f 426/426/2 428/428/2 425/425/2
f 430/430/57 432/432/57 431/431/57
f 430/430/57 433/433/57 432/432/57
f 434/434/2 435/435/2 432/432/2
f 434/434/2 432/432/2 433/433/2
f 431/431/57 437/437/57 436/436/57
f 431/431/57 432/432/57 437/437/57
f 435/435/2 438/438/2 437/437/2
f 435/435/2 437/437/2 432/432/2
f 436/436/57 440/440/57 439/439/57
f 436/436/57 437/437/57 440/440/57
f 438/438/2 441/441/2 440/440/2
f 438/438/2 440/440/2 437/437/2
f 439/439/57 443/443/57 442/442/57
f 439/439/57 440/440/57 443/443/57
f 441/441/2 444/444/2 443/443/2
f 441/441/2 443/443/2 440/440/2
f 442/442/57 446/446/57 445/445/57
f 442/442/57 443/443/57 446/446/57
f 444/444/2 447/447/2 446/446/2
f 444/444/2 446/446/2 443/443/2
f 445/445/58 449/449/58 448/448/58
f 445/445/58 446/446/58 449/449/58
f 447/447/2 450/450/2 449/449/2
f 447/447/2 449/449/2 446/446/2
f 448/448/58 452/452/58 451/451/58
f 448/448/58 449/449/58 452/452/58
f 450/450/2 453/453/2 452/452/2
f 450/450/2 452/452/2 449/449/2
f 451/451/58 455/455/58 454/454/58
f 451/451/58 452/452/58 455/455/58
f 453/453/2 456/456/2 455/455/2
f 453/453/2 455/455/2 452/452/2
f 457/457/59 459/459/59 458/458/59
f 457/457/59 460/460/59 459/459/59
f 461/461/2 462/462/2 459/459/2
f 461/461/2 459/459/2 460/460/2
f 458/458/59 464/464/59 463/463/59
f 458/458/59 459/459/59 464/464/59
f 462/462/2 465/465/2 464/464/2
f 462/462/2 464/464/2 459/459/2
f 463/463/59 467/467/59 466/466/59
f 463/463/59 464/464/59 467/467/59
f 465/465/2 468/468/2 467/467/2
f 465/465/2 467/467/2 464/464/2
f 466/466/59 470/470/59 469/469/59
f 466/466/59 467/467/59 470/470/59
f 468/468/2 471/471/2 470/470/2
f 468/468/2 470/470/2 467/467/2
f 469/469/60 473/473/60 472/472/60
f 469/469/60 470/470/60 473/473/60
f 471/471/2 474/474/2 473/473/2
f 471/471/2 473/473/2 470/470/2
f 475/475/61 477/477/61 476/476/61
f 475/475/61 478/478/61 477/477/61
f 479/479/2 480/480/2 477/477/2
f 479/479/2 477/477/2 478/478/2
f 476/476/61 482/482/61 481/481/61
f 476/476/61 477/477/61 482/482/61
f 480/480/2 483/483/2 482/482/2
f 480/480/2 482/482/2 477/477/2
f 481/481/61 485/485/61 484/484/61
f 481/481/61 482/482/61 485/485/61
f 483/483/2 486/486/2 485/485/2
f 483/483/2 485/485/2 482/482/2
f 484/484/61 488/488/61 487/487/61
f 484/484/61 485/485/61 488/488/61
f 486/486/2 489/489/2 488/488/2
f 486/486/2 488/488/2 485/485/2
f 487/487/62 491/491/62 490/490/62
f 487/487/62 488/488/62 491/491/62
f 489/489/2 492/492/2 491/491/2
f 489/489/2 491/491/2 488/488/2
f 493/493/63 495/495/63 494/494/63
f 493/493/63 496/496/63 495/495/63
f 497/497/2 498/498/2 495/495/2
f 497/497/2 495/495/2 496/496/2
f 494/494/64 500/500/64 499/499/64
f 494/494/64 495/495/64 500/500/64
f 498/498/2 501/501/2 500/500/2
f 498/498/2 500/500/2 495/495/2
f 499/499/65 503/503/65 502/502/65
f 499/499/65 500/500/65 503/503/65
f 501/501/2 504/504/2 503/503/2
f 501/501/2 503/503/2 500/500/2
f 502/502/65 506/506/65 505/505/65
f 502/502/65 503/503/65 506/506/65
f 504/504/2 507/507/2 506/506/2
f 504/504/2 506/506/2 503/503/2
f 505/505/65 509/509/65 508/508/65
f 505/505/65 506/506/65 509/509/65
f 507/507/2 510/510/2 509/509/2
f 507/507/2 509/509/2 506/506/2
f 508/508/66 512/512/66 511/511/66
f 508/508/66 509/509/66 512/512/66
f 510/510/2 513/513/2 512/512/2
f 510/510/2 512/512/2 509/509/2
f 514/514/67 516/516/67 515/515/67
f 514/514/67 517/517/67 516/516/67
f 518/518/2 519/519/2 516/516/2
f 518/518/2 516/516/2 517/517/2
f 515/515/67 521/521/67 520/520/67
f 515/515/67 516/516/67 521/521/67
f 519/519/2 522/522/2 521/521/2
f 519/519/2 521/521/2 516/516/2
f 520/520/68 524/524/68 523/523/68
f 520/520/68 521/521/68 524/524/68
f 522/522/2 525/525/2 524/524/2
f 522/522/2 524/524/2 521/521/2
f 523/523/68 527/527/68 526/526/68
f 523/523/68 524/524/68 527/527/68
f 525/525/2 528/528/2 527/527/2
f 525/525/2 527/527/2 524/524/2
f 526/526/68 530/530/68 529/529/68
f 526/526/68 527/527/68 530/530/68
f 528/528/2 531/531/2 530/530/2
f 528/528/2 530/530/2 527/527/2
f 529/529/68 533/533/68 532/532/68
f 529/529/68 530/530/68 533/533/68
f 531/531/2 534/534/2 533/533/2
f 531/531/2 533/533/2 530/530/2
f 532/532/67 536/536/67 535/535/67
f 532/532/67 533/533/67 536/536/67
f 534/534/2 537/537/2 536/536/2
f 534/534/2 536/536/2 533/533/2
f 535/535/67 539/539/67 538/538/67
f 535/535/67 536/536/67 539/539/67
f 537/537/2 540/540/2 539/539/2
f 537/537/2 539/539/2 536/536/2
f 541/541/69 543/543/69 542/542/69
f 541/541/69 544/544/69 543/543/69
f 545/545/2 546/546/2 543/543/2
f 545/545/2 543/543/2 544/544/2
f 542/542/69 548/548/69 547/547/69
f 542/542/69 543/543/69 548/548/69
f 546/546/2 549/549/2 548/548/2
f 546/546/2 548/548/2 543/543/2
f 547/547/69 551/551/69 550/550/69
f 547/547/69 548/548/69 551/551/69
f 549/549/2 552/552/2 551/551/2
f 549/549/2 551/551/2 548/548/2
f 550/550/69 554/554/69 553/553/69
f 550/550/69 551/551/69 554/554/69
f 552/552/2 555/555/2 554/554/2
f 552/552/2 554/554/2 551/551/2
f 556/556/70 558/558/70 557/557/70
f 556/556/70 559/559/70 558/558/70
f 560/560/2 561/561/2 558/558/2
f 560/560/2 558/558/2 559/559/2
f 557/557/70 563/563/70 562/562/70
f 557/557/70 558/558/70 563/563/70
f 561/561/2 564/564/2 563/563/2
f 561/561/2 563/563/2 558/558/2
f 562/562/71 566/566/71 565/565/71
f 562/562/71 563/563/71 566/566/71
f 564/564/2 567/567/2 566/566/2
f 564/564/2 566/566/2 563/563/2
f 565/565/71 569/569/71 568/568/71
f 565/565/71 566/566/71 569/569/71
f 567/567/2 570/570/2 569/569/2
f 567/567/2 569/569/2 566/566/2
f 568/568/71 572/572/71 571/571/71
f 568/568/71 569/569/71 572/572/71
f 570/570/2 573/573/2 572/572/2
f 570/570/2 572/572/2 569/569/2
f 571/571/71 575/575/71 574/574/71
f 571/571/71 572/572/71 575/575/71
f 573/573/2 576/576/2 575/575/2
f 573/573/2 575/575/2 572/572/2
f 574/574/72 578/578/72 577/577/72
f 574/574/72 575/575/72 578/578/72
f 576/576/2 579/579/2 578/578/2
f 576/576/2 578/578/2 575/575/2
f 580/580/73 582/582/73 581/581/73
f 580/580/73 583/583/73 582/582/73
f 584/584/2 585/585/2 582/582/2
f 584/584/2 582/582/2 583/583/2
f 581/581/73 587/587/73 586/586/73
f 581/581/73 582/582/73 587/587/73
f 585/585/2 588/588/2 587/587/2
f 585/585/2 587/587/2 582/582/2
f 586/586/73 544/544/73 541/541/73
f 586/586/73 587/587/73 544/544/73
f 588/588/2 545/545/2 544/544/2
f 588/588/2 544/544/2 587/587/2
f 589/589/74 591/591/74 590/590/74
f 589/589/74 592/592/74 591/591/74
f 593/593/2 594/594/2 591/591/2
f 593/593/2 591/591/2 592/592/2
f 590/590/74 596/596/74 595/595/74
f 590/590/74 591/591/74 596/596/74
f 594/594/2 597/597/2 596/596/2
f 594/594/2 596/596/2 591/591/2
f 595/595/74 599/599/74 598/598/74
f 595/595/74 596/596/74 599/599/74
f 597/597/2 600/600/2 599/599/2
f 597/597/2 599/599/2 596/596/2
f 598/598/75 602/602/75 601/601/75
f 598/598/75 599/599/75 602/602/75
f 600/600/2 603/603/2 602/602/2
f 600/600/2 602/602/2 599/599/2
f 601/601/75 605/605/75 604/604/75
f 601/601/75 602/602/75 605/605/75
f 603/603/2 606/606/2 605/605/2
f 603/603/2 605/605/2 602/602/2
f 604/604/75 608/608/75 607/607/75
f 604/604/75 605/605/75 608/608/75
f 606/606/2 609/609/2 608/608/2
f 606/606/2 608/608/2 605/605/2
f 610/610/76 612/612/76 611/611/76
f 610/610/76 613/613/76 612/612/76
f 614/614/2 615/615/2 612/612/2
f 614/614/2 612/612/2 613/613/2
f 611/611/76 617/617/76 616/616/76
f 611/611/76 612/612/76 617/617/76
f 615/615/2 618/618/2 617/617/2
f 615/615/2 617/617/2 612/612/2
f 616/616/76 620/620/76 619/619/76
f 616/616/76 617/617/76 620/620/76
f 618/618/2 621/621/2 620/620/2
f 618/618/2 620/620/2 617/617/2
f 619/619/76 623/623/76 622/622/76
f 619/619/76 620/620/76 623/623/76
f 621/621/2 624/624/2 623/623/2
f 621/621/2 623/623/2 620/620/2
f 622/622/77 626/626/77 625/625/77
f 622/622/77 623/623/77 626/626/77
f 624/624/2 627/627/2 626/626/2
f 624/624/2 626/626/2 623/623/2
f 628/628/78 630/630/78 629/629/78
f 628/628/78 631/631/78 630/630/78
f 632/632/2 633/633/2 630/630/2
f 632/632/2 630/630/2 631/631/2
f 629/629/79 635/635/79 634/634/79
f 629/629/79 630/630/79 635/635/79
f 633/633/2 636/636/2 635/635/2
f 633/633/2 635/635/2 630/630/2
f 634/634/79 638/638/79 637/637/79
f 634/634/79 635/635/79 638/638/79
f 636/636/2 639/639/2 638/638/2
f 636/636/2 638/638/2 635/635/2
f 637/637/79 641/641/79 640/640/79
f 637/637/79 638/638/79 641/641/79
f 639/639/2 642/642/2 641/641/2
f 639/639/2 641/641/2 638/638/2
f 643/643/80 645/645/80 644/644/80
f 643/643/80 646/646/80 645/645/80
f 647/647/2 648/648/2 645/645/2
f 647/647/2 645/645/2 646/646/2
f 649/649/81 651/651/81 650/650/81
f 649/649/81 652/652/81 651/651/81
f 653/653/2 654/654/2 651/651/2
f 653/653/2 651/651/2 652/652/2
f 650/650/82 656/656/82 655/655/82
f 650/650/82 651/651/82 656/656/82
f 654/654/2 657/657/2 656/656/2
f 654/654/2 656/656/2 651/651/2
f 655/655/82 659/659/82 658/658/82
f 655/655/82 656/656/82 659/659/82
f 657/657/2 660/660/2 659/659/2
f 657/657/2 659/659/2 656/656/2
f 658/658/82 662/662/82 661/661/82
f 658/658/82 659/659/82 662/662/82
f 660/660/2 663/663/2 662/662/2
f 660/660/2 662/662/2 659/659/2
f 661/661/82 665/665/82 664/664/82
f 661/661/82 662/662/82 665/665/82
f 663/663/2 666/666/2 665/665/2
f 663/663/2 665/665/2 662/662/2
f 664/664/82 646/646/82 643/643/82
f 664/664/82 665/665/82 646/646/82
f 666/666/2 647/647/2 646/646/2
f 666/666/2 646/646/2 665/665/2
f 667/667/83 669/669/83 668/668/83
f 667/667/83 670/670/83 669/669/83
f 671/671/2 672/672/2 669/669/2
f 671/671/2 669/669/2 670/670/2
f 668/668/83 674/674/83 673/673/83
f 668/668/83 669/669/83 674/674/83
f 672/672/2 675/675/2 674/674/2
f 672/672/2 674/674/2 669/669/2
f 673/673/84 677/677/84 676/676/84
f 673/673/84 674/674/84 677/677/84
f 675/675/2 678/678/2 677/677/2
f 675/675/2 677/677/2 674/674/2
f 676/676/84 680/680/84 679/679/84
f 676/676/84 677/677/84 680/680/84
f 678/678/2 681/681/2 680/680/2
f 678/678/2 680/680/2 677/677/2
f 679/679/84 683/683/84 682/682/84
f 679/679/84 680/680/84 683/683/84
f 681/681/2 684/684/2 683/683/2
f 681/681/2 683/683/2 680/680/2
f 682/682/84 686/686/84 685/685/84
f 682/682/84 683/683/84 686/686/84
f 684/684/2 687/687/2 686/686/2
f 684/684/2 686/686/2 683/683/2
f 685/685/84 689/689/84 688/688/84
f 685/685/84 686/686/84 689/689/84
f 687/687/2 690/690/2 689/689/2
f 687/687/2 689/689/2 686/686/2
f 688/688/85 692/692/85 691/691/85
f 688/688/85 689/689/85 692/692/85
f 690/690/2 693/693/2 692/692/2
f 690/690/2 692/692/2 689/689/2
f 694/694/86 696/696/86 695/695/86
f 694/694/86 697/697/86 696/696/86
f 698/698/2 699/699/2 696/696/2
f 698/698/2 696/696/2 697/697/2
f 700/700/87 702/702/87 701/701/87
f 700/700/87 703/703/87 702/702/87
f 704/704/2 705/705/2 702/702/2
f 704/704/2 702/702/2 703/703/2
f 701/701/84 707/707/84 706/706/84
f 701/701/84 702/702/84 707/707/84
f 705/705/2 708/708/2 707/707/2
f 705/705/2 707/707/2 702/702/2
f 706/706/84 710/710/84 709/709/84
f 706/706/84 707/707/84 710/710/84
f 708/708/2 711/711/2 710/710/2
f 708/708/2 710/710/2 707/707/2
f 709/709/84 713/713/84 712/712/84
f 709/709/84 710/710/84 713/713/84
f 711/711/2 714/714/2 713/713/2
f 711/711/2 713/713/2 710/710/2
f 712/712/84 697/697/84 694/694/84
f 712/712/84 713/713/84 697/697/84
f 714/714/2 698/698/2 697/697/2
f 714/714/2 697/697/2 713/713/2
f 715/715/88 717/717/88 716/716/88
f 715/715/88 718/718/88 717/717/88
f 719/719/2 720/720/2 717/717/2
f 719/719/2 717/717/2 718/718/2
f 716/716/88 722/722/88 721/721/88
f 716/716/88 717/717/88 722/722/88
f 720/720/2 723/723/2 722/722/2
f 720/720/2 722/722/2 717/717/2
f 721/721/88 725/725/88 724/724/88
f 721/721/88 722/722/88 725/725/88
f 723/723/2 726/726/2 725/725/2
f 723/723/2 725/725/2 722/722/2
f 724/724/89 728/728/89 727/727/89
f 724/724/89 725/725/89 728/728/89
f 726/726/2 729/729/2 728/728/2
f 726/726/2 728/728/2 725/725/2
f 730/730/90 732/732/90 731/731/90
f 730/730/90 733/733/90 732/732/90
f 734/734/2 735/735/2 732/732/2
f 734/734/2 732/732/2 733/733/2
f 731/731/90 718/718/90 715/715/90
f 731/731/90 732/732/90 718/718/90
f 735/735/2 719/719/2 718/718/2
f 735/735/2 718/718/2 732/732/2
f 736/736/91 738/738/91 737/737/91
f 736/736/91 739/739/91 738/738/91
f 740/740/2 741/741/2 738/738/2
f 740/740/2 738/738/2 739/739/2
f 737/737/92 743/743/92 742/742/92
f 737/737/92 738/738/92 743/743/92
f 741/741/2 744/744/2 743/743/2
f 741/741/2 743/743/2 738/738/2
f 742/742/92 746/746/92 745/745/92
f 742/742/92 743/743/92 746/746/92
f 744/744/2 747/747/2 746/746/2
f 744/744/2 746/746/2 743/743/2
f 745/745/92 749/749/92 748/748/92
f 745/745/92 746/746/92 749/749/92
f 747/747/2 750/750/2 749/749/2
f 747/747/2 749/749/2 746/746/2
f 748/748/92 752/752/92 751/751/92
f 748/748/92 749/749/92 752/752/92
f 750/750/2 753/753/2 752/752/2
f 750/750/2 752/752/2 749/749/2
f 751/751/93 755/755/93 754/754/93
f 751/751/93 752/752/93 755/755/93
f 753/753/2 756/756/2 755/755/2
f 753/753/2 755/755/2 752/752/2
