# Unreal legacy OBJ adapter: canonical vertices are UE cm; this file is written with Y reflected and triangle winding reversed. One object, no g groups, so the importer creates exactly one material slot.
# OldCityFoundationV2 foundations (plinth + stepped footing); generator 463404ba754c804f514fe655944ece4eb51a92e1273fec326ad5c2ebfbb18f24
# AUTHORED detail in the style of Old City stone foundations, not survey
o SM_OldCityFoundationV2_Kept_N005_P002
s off
v -243680.88 -116433.79 2296.30
v -243637.45 -116431.53 2294.65
v -243637.45 -116431.53 2321.30
v -243680.88 -116433.79 2321.30
v -243688.33 -116442.19 2321.30
v -243645.02 -116439.94 2321.30
v -243610.16 -116958.08 2272.50
v -243610.16 -116958.08 2321.30
v -243618.13 -116959.01 2321.30
v -243583.51 -117472.43 2272.50
v -243583.51 -117472.43 2321.30
v -243591.85 -117466.06 2321.30
v -243579.10 -117557.51 2265.69
v -243579.10 -117557.51 2321.30
v -243587.50 -117549.93 2321.30
v -244016.81 -117580.13 2263.88
v -244016.81 -117580.13 2321.30
v -244023.97 -117572.49 2321.30
v -244124.51 -117585.70 2263.44
v -244124.51 -117585.70 2321.30
v -244131.36 -117578.04 2321.30
v -244243.96 -117591.87 2277.28
v -244243.96 -117591.87 2321.30
v -244250.47 -117584.20 2321.30
v -244408.13 -117600.36 2296.30
v -244408.13 -117600.36 2321.30
v -244414.17 -117592.66 2321.30
v -246859.23 -103769.79 1666.90
v -247010.43 -103462.36 1636.26
v -247010.43 -103462.36 1691.90
v -246859.23 -103769.79 1691.90
v -246849.68 -103771.08 1691.90
v -247000.00 -103465.44 1691.90
v -246624.51 -103230.91 1633.18
v -246624.51 -103230.91 1691.90
v -246620.45 -103237.80 1691.90
v -246323.48 -103050.36 1666.90
v -246323.48 -103050.36 1691.90
v -246324.38 -103060.23 1691.90
v -247335.83 -101202.98 1493.27
v -246624.51 -100421.25 1490.45
v -246624.51 -100421.25 1548.70
v -247335.83 -101202.98 1548.70
v -247324.51 -101202.43 1548.70
v -246620.78 -100429.03 1548.70
v -246410.69 -100186.25 1515.26
v -246410.69 -100186.25 1548.70
v -246409.23 -100196.54 1548.70
v -246338.00 -100106.36 1523.70
v -246338.00 -100106.36 1548.70
v -246337.31 -100117.50 1548.70
v -246936.83 -101564.75 1523.70
v -246936.83 -101564.75 1548.70
v -246931.33 -101558.94 1548.70
v -243509.25 -131866.51 1120.60
v -243354.80 -132069.98 1090.01
v -243354.80 -132069.98 1145.60
v -243509.25 -131866.51 1145.60
v -243520.47 -131864.96 1145.60
v -243366.02 -132068.43 1145.60
v -243887.14 -132472.43 1063.00
v -243887.14 -132472.43 1145.60
v -243893.38 -132467.12 1145.60
v -244022.32 -132574.63 1064.32
v -244022.32 -132574.63 1145.60
v -244027.29 -132568.36 1145.60
v -244124.51 -132651.89 1065.32
v -244124.51 -132651.89 1145.60
v -244128.54 -132644.91 1145.60
v -244550.52 -132973.96 1120.60
v -244550.52 -132973.96 1145.60
v -244550.56 -132963.97 1145.60
v -240916.29 -132397.80 1006.80
v -241083.98 -132472.43 994.12
v -241083.98 -132472.43 1031.80
v -240916.29 -132397.80 1031.80
v -240924.66 -132392.76 1031.80
v -241090.77 -132466.70 1031.80
v -241458.03 -132638.92 979.16
v -241458.03 -132638.92 1031.80
v -241461.31 -132631.63 1031.80
v -241624.51 -132713.02 972.50
v -241624.51 -132713.02 1031.80
v -241626.24 -132705.03 1031.80
v -242058.08 -132906.00 972.50
v -242058.08 -132906.00 1031.80
v -242055.74 -132896.20 1031.80
v -242240.07 -132987.00 976.54
v -242240.07 -132987.00 1031.80
v -242236.01 -132976.44 1031.80
v -242469.45 -132472.43 1006.30
v -242469.45 -132472.43 1031.80
v -242464.22 -132464.53 1031.80
v -242471.08 -132468.79 1006.80
v -242471.08 -132468.79 1031.80
v -242465.83 -132460.90 1031.80
v -241279.30 -123826.40 1891.80
v -241624.51 -123963.79 1853.19
v -241624.51 -123963.79 1916.80
v -241279.30 -123826.40 1916.80
v -241288.27 -123821.36 1916.80
v -241629.98 -123957.35 1916.80
v -242346.01 -124250.94 1859.08
v -242346.01 -124250.94 1916.80
v -242344.15 -124241.59 1916.80
v -242601.98 -124352.81 1861.17
v -242601.98 -124352.81 1916.80
v -242597.51 -124342.43 1916.80
v -242729.61 -124033.73 1891.80
v -242729.61 -124033.73 1916.80
v -242724.13 -124025.89 1916.80
v -242305.18 -115451.43 2280.57
v -242141.74 -114972.43 2293.19
v -242141.74 -114972.43 2335.40
v -242305.18 -115451.43 2335.40
v -242295.02 -115446.43 2335.40
v -242133.15 -114972.02 2335.40
v -242053.23 -114713.04 2310.40
v -242053.23 -114713.04 2335.40
v -242045.48 -114715.11 2335.40
v -241308.68 -115789.65 2310.40
v -241624.51 -115682.46 2272.50
v -241624.51 -115682.46 2335.40
v -241308.68 -115789.65 2335.40
v -241311.18 -115780.36 2335.40
v -241623.00 -115674.52 2335.40
v -242154.62 -115502.54 2272.50
v -242154.62 -115502.54 2335.40
v -242146.37 -115496.89 2335.40
v -239159.55 -144872.33 672.70
v -239124.51 -144886.06 669.04
v -239124.51 -144886.06 697.70
v -239159.55 -144872.33 697.70
v -239163.53 -144879.36 697.70
v -239129.02 -144892.88 697.70
v -239062.45 -144910.37 667.54
v -239062.45 -144910.37 697.70
v -239067.89 -144916.83 697.70
v -238904.06 -144972.43 663.68
v -238904.06 -144972.43 697.70
v -238911.87 -144977.96 697.70
v -238733.13 -145039.40 656.84
v -238733.13 -145039.40 697.70
v -238743.51 -145043.93 697.70
v -238824.84 -145272.10 660.51
v -238824.84 -145272.10 697.70
v -238835.22 -145276.63 697.70
v -239124.51 -146032.45 672.50
v -239124.51 -146032.45 697.70
v -239134.90 -146036.97 697.70
v -239127.01 -146038.79 672.70
v -239127.01 -146038.79 697.70
v -239137.40 -146043.31 697.70
v -239127.01 -146357.05 672.70
v -239124.51 -146358.03 672.50
v -239124.51 -146358.03 697.70
v -239127.01 -146357.05 697.70
v -239136.61 -146361.87 697.70
v -239134.09 -146362.86 697.70
v -238324.23 -146672.15 640.49
v -238324.23 -146672.15 697.70
v -238328.04 -146679.25 697.70
v -238201.08 -146720.49 642.42
v -238201.08 -146720.49 697.70
v -238204.00 -146727.94 697.70
v -236855.12 -147247.91 663.52
v -236855.12 -147247.91 697.70
v -236865.50 -147252.44 697.70
v -236943.62 -147472.43 672.50
v -236943.62 -147472.43 697.70
v -236952.68 -147473.59 697.70
v -237151.25 -147999.17 672.50
v -237151.25 -147999.17 697.70
v -237157.19 -147992.42 697.70
v -237246.49 -148240.79 666.64
v -237246.49 -148240.79 697.70
v -237251.00 -148230.43 697.70
v -237351.62 -148199.53 672.50
v -237351.62 -148199.53 697.70
v -237355.35 -148189.47 697.70
v -238253.93 -147845.38 672.50
v -238253.93 -147845.38 697.70
v -238251.00 -147837.94 697.70
v -239072.91 -147524.04 672.50
v -239072.91 -147524.04 697.70
v -239069.99 -147516.59 697.70
v -239124.51 -147503.79 672.50
v -239124.51 -147503.79 697.70
v -239121.59 -147496.34 697.70
v -239129.51 -147501.83 672.70
v -239129.51 -147501.83 697.70
v -239126.59 -147494.38 697.70
v -239805.82 -103190.40 2376.90
v -239824.72 -103172.64 2372.50
v -239824.72 -103172.64 2401.90
v -239805.82 -103190.40 2401.90
v -239796.15 -103188.52 2401.90
v -239814.89 -103170.90 2401.90
v -239995.32 -103012.28 2346.02
v -239995.32 -103012.28 2401.90
v -239984.01 -103011.93 2401.90
v -239486.97 -102472.43 2343.50
v -239486.97 -102472.43 2401.90
v -239480.42 -102477.15 2401.90
v -239408.82 -102389.44 2346.44
v -239408.82 -102389.44 2401.90
v -239403.00 -102394.93 2401.90
v -239310.95 -102285.99 2350.13
v -239310.95 -102285.99 2401.90
v -239305.96 -102292.35 2401.90
v -239124.51 -102088.93 2357.16
v -239124.51 -102088.93 2401.90
v -239121.08 -102096.94 2401.90
v -238753.85 -101697.14 2356.31
v -238753.85 -101697.14 2401.90
v -238753.52 -101708.43 2401.90
v -238545.43 -101893.35 2372.50
v -238545.43 -101893.35 2401.90
v -238546.91 -101902.94 2401.90
v -238488.77 -101946.69 2376.90
v -238488.77 -101946.69 2401.90
v -238490.74 -101955.82 2401.90
v -236420.98 -127751.53 1342.03
v -236484.53 -127612.42 1355.70
v -236484.53 -127612.42 1397.70
v -236420.98 -127751.53 1397.70
v -236417.02 -127740.94 1397.70
v -236479.90 -127603.30 1397.70
v -236548.48 -127472.43 1369.46
v -236548.48 -127472.43 1397.70
v -236543.17 -127464.79 1397.70
v -236555.26 -127457.58 1372.70
v -236555.26 -127457.58 1397.70
v -236549.89 -127450.10 1397.70
v -235163.49 -127179.23 1372.70
v -235807.73 -127472.43 1339.83
v -235807.73 -127472.43 1397.70
v -235163.49 -127179.23 1397.70
v -235169.81 -127173.32 1397.70
v -235808.79 -127464.12 1397.70
v -236369.05 -127727.90 1341.84
v -236369.05 -127727.90 1397.70
v -236365.52 -127717.50 1397.70
v -236184.84 -103127.86 2621.50
v -236291.07 -103059.85 2596.34
v -236291.07 -103059.85 2646.50
v -236184.84 -103127.86 2646.50
v -236174.75 -103124.82 2646.50
v -236280.01 -103057.43 2646.50
v -236191.76 -102905.19 2593.67
v -236191.76 -102905.19 2646.50
v -236182.73 -102905.93 2646.50
v -235913.86 -102472.43 2586.20
v -235913.86 -102472.43 2646.50
v -235910.51 -102482.02 2646.50
v -235867.92 -102400.88 2590.69
v -235867.92 -102400.88 2646.50
v -235865.50 -102411.93 2646.50
v -235756.28 -102472.43 2611.42
v -235756.28 -102472.43 2646.50
v -235753.87 -102483.48 2646.50
v -235713.72 -102499.71 2621.50
v -235713.72 -102499.71 2646.50
v -235711.31 -102510.76 2646.50
v -234948.54 -129658.29 1130.59
v -235074.24 -129338.55 1161.20
v -235074.24 -129338.55 1186.20
v -234948.54 -129658.29 1186.20
v -234944.02 -129647.93 1186.20
v -235068.42 -129331.49 1186.20
v -233244.12 -128863.68 1161.20
v -233200.64 -128974.46 1152.34
v -233200.64 -128974.46 1186.20
v -233244.12 -128863.68 1186.20
v -233254.05 -128860.30 1186.20
v -233211.01 -128969.93 1186.20
v -233832.61 -129221.89 1132.54
v -233832.61 -129221.89 1186.20
v -233835.52 -129214.44 1186.20
v -234124.51 -129336.04 1123.41
v -234124.51 -129336.04 1186.20
v -234125.48 -129327.83 1186.20
v -234582.00 -129514.95 1127.40
v -234582.00 -129514.95 1186.20
v -234579.92 -129505.54 1186.20
v -233664.65 -123515.81 2005.56
v -234124.51 -123596.06 1992.72
v -234124.51 -123596.06 2058.60
v -233664.65 -123515.81 2058.60
v -233666.02 -123507.93 2058.60
v -234123.02 -123587.68 2058.60
v -234927.53 -123736.19 2002.42
v -234927.53 -123736.19 2058.60
v -234921.02 -123726.94 2058.60
v -234960.10 -123549.45 2033.60
v -234960.10 -123549.45 2058.60
v -234953.14 -123542.79 2058.60
v -232659.04 -123340.56 2033.60
v -233167.73 -123429.21 2019.42
v -233167.73 -123429.21 2058.60
v -232659.04 -123340.56 2058.60
v -232667.67 -123333.94 2058.60
v -233172.70 -123421.96 2058.60
v -234357.05 -126763.15 1423.66
v -234383.11 -126610.65 1455.20
v -234383.11 -126610.65 1480.20
v -234357.05 -126763.15 1480.20
v -234350.51 -126753.93 1480.20
v -234376.27 -126603.17 1480.20
v -233156.13 -126558.93 1455.20
v -233222.26 -126570.18 1452.95
v -233222.26 -126570.18 1480.20
v -233156.13 -126558.93 1480.20
v -233158.70 -126551.25 1480.20
v -233224.33 -126562.41 1480.20
v -234124.51 -126723.61 1422.26
v -234124.51 -126723.61 1480.20
v -234119.74 -126714.68 1480.20
v -232487.68 -134153.50 839.78
v -232508.83 -134088.12 843.25
v -232508.83 -134088.12 879.60
v -232487.68 -134153.50 879.60
v -232482.52 -134143.43 879.60
v -232503.55 -134078.46 879.60
v -232578.22 -133873.64 854.60
v -232578.22 -133873.64 879.60
v -232572.50 -133865.33 879.60
v -231254.46 -132919.93 854.60
v -231009.43 -133676.08 824.35
v -231009.43 -133676.08 879.60
v -231254.46 -132919.93 879.60
v -231262.99 -132919.54 879.60
v -231019.51 -133670.93 879.60
v -231624.51 -133874.73 816.41
v -231624.51 -133874.73 879.60
v -231628.26 -133867.53 879.60
v -232454.25 -134142.70 838.88
v -232454.25 -134142.70 879.60
v -232449.44 -134132.74 879.60
v -231684.47 -106607.39 3335.50
v -232081.82 -106244.94 3305.11
v -232081.82 -106244.94 3360.50
v -231684.47 -106607.39 3360.50
v -231677.22 -106603.17 3360.50
v -232070.51 -106244.43 3360.50
v -231624.51 -105745.33 3303.42
v -231624.51 -105745.33 3360.50
v -231616.92 -105748.88 3360.50
v -231419.24 -105521.08 3335.50
v -231419.24 -105521.08 3360.50
v -231413.31 -105526.45 3360.50
v -231896.45 -103143.12 3104.40
v -232069.80 -103000.52 3079.12
v -232069.80 -103000.52 3129.40
v -231896.45 -103143.12 3129.40
v -231887.22 -103140.36 3129.40
v -232058.52 -102999.43 3129.40
v -231735.17 -102595.34 3073.48
v -231735.17 -102595.34 3129.40
v -231729.00 -102600.44 3129.40
v -231676.51 -102524.42 3072.50
v -231676.51 -102524.42 3129.40
v -231670.34 -102529.52 3129.40
v -231633.50 -102472.43 3071.78
v -231633.50 -102472.43 3129.40
v -231627.33 -102477.53 3129.40
v -231629.43 -102467.52 3071.91
v -231629.43 -102467.52 3129.40
v -231623.26 -102472.61 3129.40
v -231624.51 -102461.57 3072.07
v -231624.51 -102461.57 3129.40
v -231618.35 -102466.67 3129.40
v -231484.93 -102292.84 3104.40
v -231484.93 -102292.84 3129.40
v -231478.76 -102297.93 3129.40
v -230069.08 -126235.08 1483.20
v -230102.15 -126480.92 1452.38
v -230102.15 -126480.92 1508.20
v -230069.08 -126235.08 1508.20
v -230076.35 -126229.11 1508.20
v -230109.01 -126471.93 1508.20
v -230118.17 -126478.78 1451.99
v -230118.17 -126478.78 1508.20
v -230124.90 -126469.81 1508.20
v -230570.42 -126418.34 1441.15
v -230570.42 -126418.34 1508.20
v -230573.50 -126409.86 1508.20
v -231200.52 -126334.13 1483.20
v -231200.52 -126334.13 1508.20
v -231198.51 -126326.33 1508.20
v -230481.26 -133389.94 835.80
v -230718.60 -132629.93 866.20
v -230718.60 -132629.93 891.20
v -230481.26 -133389.94 891.20
v -230476.00 -133379.93 891.20
v -230711.72 -132625.12 891.20
v -228949.93 -132551.18 866.20
v -228906.39 -132690.56 855.05
v -228906.39 -132690.56 891.20
v -228949.93 -132551.18 891.20
v -228959.25 -132548.18 891.20
v -228916.01 -132686.60 891.20
v -228846.99 -132880.69 839.84
v -228846.99 -132880.69 891.20
v -228857.01 -132875.44 891.20
v -229124.51 -132967.17 832.92
v -229124.51 -132967.17 891.20
v -229131.94 -132961.11 891.20
v -229843.20 -133191.12 843.75
v -229843.20 -133191.12 891.20
v -229843.92 -133182.96 891.20
v -230576.49 -116948.99 3019.20
v -230802.21 -117045.94 2988.24
v -230802.21 -117045.94 3044.20
v -230576.49 -116948.99 3044.20
v -230573.19 -116938.87 3044.20
v -230798.02 -117035.43 3044.20
v -230921.41 -116769.33 2985.00
v -230921.41 -116769.33 3044.20
v -230915.97 -116761.76 3044.20
v -231245.20 -116017.99 3019.20
v -231245.20 -116017.99 3044.20
v -231236.33 -116018.38 3044.20
v -223448.81 -142088.18 -269.73
v -223905.75 -142253.67 -301.25
v -223905.75 -142253.67 -235.10
v -223448.81 -142088.18 -235.10
v -223444.02 -142077.94 -235.10
v -223900.96 -142243.43 -235.10
v -224124.51 -142332.90 -310.76
v -224124.51 -142332.90 -235.10
v -224119.73 -142322.65 -235.10
v -224226.95 -142370.00 -307.01
v -224226.95 -142370.00 -235.10
v -224222.16 -142359.75 -235.10
v -224509.80 -142472.43 -296.68
v -224509.80 -142472.43 -235.10
v -224505.01 -142462.19 -235.10
v -225068.12 -142674.64 -260.10
v -225068.12 -142674.64 -235.10
v -225063.33 -142664.39 -235.10
v -221769.56 -143142.38 -260.10
v -222271.81 -143324.18 -287.46
v -222271.81 -143324.18 -235.10
v -221769.56 -143142.38 -235.10
v -221769.36 -143133.80 -235.10
v -222267.02 -143313.94 -235.10
v -222326.24 -143174.16 -283.64
v -222326.24 -143174.16 -235.10
v -222321.45 -143163.92 -235.10
v -222580.83 -142472.43 -265.75
v -222580.83 -142472.43 -235.10
v -222576.04 -142462.18 -235.10
v -222612.14 -142386.12 -260.10
v -222612.14 -142386.12 -235.10
v -222607.35 -142375.87 -235.10
v -222880.26 -142252.06 -260.10
v -223329.79 -142415.17 -291.13
v -223329.79 -142415.17 -235.10
v -222880.26 -142252.06 -235.10
v -222875.47 -142241.81 -235.10
v -223325.00 -142404.93 -235.10
v -226899.81 -121942.13 2346.34
v -226833.09 -121764.04 2377.50
v -226833.09 -121764.04 2402.50
v -226899.81 -121942.13 2402.50
v -226889.50 -121937.43 2402.50
v -226823.32 -121760.76 2402.50
v -225407.30 -122408.91 2377.50
v -225431.09 -122472.43 2367.97
v -225431.09 -122472.43 2402.50
v -225407.30 -122408.91 2402.50
v -225412.22 -122399.25 2402.50
v -225435.82 -122462.27 2402.50
v -225436.82 -122487.72 2363.85
v -225436.82 -122487.72 2402.50
v -225441.50 -122477.44 2402.50
v -225477.82 -122472.43 2364.24
v -225477.82 -122472.43 2402.50
v -225482.09 -122462.30 2402.50
v -226313.04 -122160.95 2334.80
v -226313.04 -122160.95 2402.50
v -226308.75 -122154.02 2402.50
v -226624.51 -122044.79 2340.92
v -226624.51 -122044.79 2402.50
v -226617.03 -122039.05 2402.50
v -224724.51 -148041.89 -579.50
v -224697.86 -148045.78 -581.63
v -224697.86 -148045.78 -554.50
v -224724.51 -148041.89 -554.50
v -224727.42 -148049.55 -554.50
v -224700.92 -148053.42 -554.50
v -224124.51 -148129.46 -627.50
v -224124.51 -148129.46 -554.50
v -224130.96 -148136.61 -554.50
v -223739.79 -148185.62 -596.72
v -223739.79 -148185.62 -554.50
v -223748.51 -148192.43 -554.50
v -223891.61 -149699.20 -608.87
v -223891.61 -149699.20 -554.50
v -223899.02 -149692.93 -554.50
v -224124.51 -149762.69 -627.50
v -224124.51 -149762.69 -554.50
v -224129.51 -149755.76 -554.50
v -224289.33 -149807.62 -614.32
v -224289.33 -149807.62 -554.50
v -224292.62 -149800.22 -554.50
v -224724.51 -149926.26 -579.50
v -224724.51 -149926.26 -554.50
v -224723.29 -149917.63 -554.50
v -219320.89 -109333.76 3323.80
v -219262.28 -109408.82 3301.75
v -219262.28 -109408.82 3348.80
v -219320.89 -109333.76 3348.80
v -219331.60 -109333.03 3348.80
v -219273.51 -109407.43 3348.80
v -219501.72 -109595.23 3293.21
v -219501.72 -109595.23 3348.80
v -219511.47 -109592.67 3348.80
v -219986.26 -109972.43 3275.91
v -219986.26 -109972.43 3348.80
v -219992.99 -109967.53 3348.80
v -220277.61 -110199.24 3292.73
v -220277.61 -110199.24 3348.80
v -220282.52 -110192.93 3348.80
v -220816.34 -110618.91 3323.80
v -220816.34 -110618.91 3348.80
v -220818.26 -110610.27 3348.80
v -217938.01 -134082.43 608.10
v -217814.80 -134570.24 588.59
v -217814.80 -134570.24 633.10
v -217938.01 -134082.43 633.10
v -217946.22 -134082.56 633.10
v -217824.51 -134564.44 633.10
v -218885.55 -134840.19 577.79
v -218885.55 -134840.19 633.10
v -218887.50 -134832.43 633.10
v -219027.98 -134875.89 576.36
v -219027.98 -134875.89 633.10
v -219028.74 -134867.84 633.10
v -219124.51 -134900.09 578.29
v -219124.51 -134900.09 633.10
v -219124.47 -134891.84 633.10
v -219182.35 -134914.59 579.44
v -219182.35 -134914.59 633.10
v -219181.83 -134906.21 633.10
v -219413.08 -134972.43 584.04
v -219413.08 -134972.43 633.10
v -219410.63 -134963.57 633.10
v -219814.81 -135073.14 579.97
v -219814.81 -135073.14 633.10
v -219809.01 -135063.44 633.10
v -219840.23 -134972.43 601.13
v -219840.23 -134972.43 633.10
v -219834.22 -134963.55 633.10
v -219859.76 -134895.06 608.10
v -219859.76 -134895.06 633.10
v -219853.59 -134886.81 633.10
v -218530.36 -114802.43 2992.90
v -218749.24 -114972.43 2972.50
v -218749.24 -114972.43 3017.90
v -218530.36 -114802.43 3017.90
v -218538.01 -114798.24 3017.90
v -218754.37 -114966.28 3017.90
v -218960.47 -115136.48 2965.94
v -218960.47 -115136.48 3017.90
v -218963.16 -115128.44 3017.90
v -219124.51 -115263.89 2960.84
v -219124.51 -115263.89 3017.90
v -219125.31 -115254.38 3017.90
v -219315.42 -115412.16 2962.55
v -219315.42 -115412.16 3017.90
v -219314.01 -115400.94 3017.90
v -219424.33 -115272.25 2972.50
v -219424.33 -115272.25 3017.90
v -219421.68 -115262.64 3017.90
v -219647.57 -114985.49 2992.90
v -219647.57 -114985.49 3017.90
v -219642.36 -114979.17 3017.90
v -219445.31 -137230.19 288.74
v -219458.58 -137171.08 295.30
v -219458.58 -137171.08 320.30
v -219445.31 -137230.19 320.30
v -219437.50 -137228.44 320.30
v -219450.60 -137170.07 320.30
v -218554.51 -138216.18 295.30
v -219124.51 -138344.16 272.50
v -219124.51 -138344.16 320.30
v -218554.51 -138216.18 320.30
v -218552.70 -138207.57 320.30
v -219118.91 -138334.70 320.30
v -219190.57 -138358.99 264.57
v -219190.57 -138358.99 320.30
v -219184.52 -138349.43 320.30
v -219341.64 -137689.56 246.44
v -219341.64 -137689.56 320.30
v -219334.55 -137684.63 320.30
v -219390.64 -137472.43 261.85
v -219390.64 -137472.43 320.30
v -219383.22 -137469.00 320.30
v -212220.09 -128723.27 1122.40
v -212765.87 -128831.07 1109.46
v -212765.87 -128831.07 1147.40
v -212220.09 -128723.27 1147.40
v -212228.71 -128716.81 1147.40
v -212771.57 -128824.04 1147.40
v -213036.64 -128884.56 1103.05
v -213036.64 -128884.56 1147.40
v -213040.88 -128877.24 1147.40
v -214124.51 -129099.44 1077.26
v -214124.51 -129099.44 1147.40
v -214122.93 -129090.98 1147.40
v -214853.51 -129243.44 1089.14
v -214853.51 -129243.44 1147.40
v -214848.01 -129234.20 1147.40
v -215002.32 -129272.84 1091.56
v -215002.32 -129272.84 1147.40
v -214996.02 -129263.44 1147.40
v -215046.37 -129050.58 1120.00
v -215046.37 -129050.58 1147.40
v -215039.50 -129044.10 1147.40
v -215050.09 -129031.79 1122.40
v -215050.09 -129031.79 1147.40
v -215043.17 -129025.56 1147.40
v -212056.22 -99577.62 3586.00
v -212542.66 -99972.43 3545.95
v -212542.66 -99972.43 3611.00
v -212056.22 -99577.62 3611.00
v -212066.08 -99575.31 3611.00
v -212547.64 -99966.17 3611.00
v -213154.68 -100469.18 3555.17
v -213154.68 -100469.18 3611.00
v -213153.52 -100457.93 3611.00
v -213327.62 -100256.78 3586.00
v -213327.62 -100256.78 3611.00
v -213324.90 -100247.45 3611.00
v -212577.53 -107773.42 3034.70
v -212751.21 -107536.71 3022.71
v -212751.21 -107536.71 3059.70
v -212577.53 -107773.42 3059.70
v -212567.50 -107773.57 3059.70
v -212740.02 -107538.44 3059.70
v -212663.36 -107472.43 3014.05
v -212663.36 -107472.43 3059.70
v -212653.11 -107474.85 3059.70
v -212152.24 -107098.47 3008.57
v -212152.24 -107098.47 3059.70
v -212147.51 -107104.93 3059.70
v -212063.40 -107033.55 3007.61
v -212063.40 -107033.55 3059.70
v -212060.44 -107041.29 3059.70
v -211826.28 -106860.26 3005.06
v -211826.28 -106860.26 3059.70
v -211828.00 -106871.43 3059.70
v -211624.51 -107135.52 2985.98
v -211624.51 -107135.52 3059.70
v -211627.59 -107144.86 3059.70
v -211482.02 -107329.93 2978.20
v -211482.02 -107329.93 3059.70
v -211486.04 -107337.98 3059.70
v -211377.57 -107472.43 2982.38
v -211377.57 -107472.43 3059.70
v -211382.28 -107479.53 3059.70
v -211026.75 -107951.05 3034.70
v -211026.75 -107951.05 3059.70
v -211033.80 -107954.96 3059.70
v -211697.63 -101466.80 3358.80
v -211942.66 -101363.08 3386.70
v -211942.66 -101363.08 3411.70
v -211697.63 -101466.80 3411.70
v -211694.51 -101459.43 3411.70
v -211936.84 -101356.86 3411.70
v -210596.37 -101559.00 3386.70
v -210730.77 -101875.41 3356.01
v -210730.77 -101875.41 3411.70
v -210596.37 -101559.00 3411.70
v -210602.34 -101552.60 3411.70
v -210735.01 -101864.93 3411.70
v -210939.35 -101787.26 3354.72
v -210939.35 -101787.26 3411.70
v -210942.00 -101777.46 3411.70
v -211624.51 -101497.70 3350.48
v -211624.51 -101497.70 3411.70
v -211621.96 -101490.10 3411.70
v -211049.16 -120345.29 1880.60
v -211091.33 -120505.61 1872.50
v -211091.33 -120505.61 1905.60
v -211049.16 -120345.29 1905.60
v -211055.96 -120339.71 1905.60
v -211097.84 -120498.91 1905.60
v -211206.31 -120942.70 1850.42
v -211206.31 -120942.70 1905.60
v -211212.01 -120932.93 1905.60
v -211624.51 -120833.02 1838.08
v -211624.51 -120833.02 1905.60
v -211623.96 -120824.89 1905.60
v -211723.05 -120807.17 1850.94
v -211723.05 -120807.17 1905.60
v -211721.02 -120799.43 1905.60
v -211950.41 -120747.63 1880.60
v -211950.41 -120747.63 1905.60
v -211945.63 -120740.61 1905.60
v -210556.45 -107642.64 3028.84
v -210688.06 -107472.43 3009.96
v -210688.06 -107472.43 3059.30
v -210556.45 -107642.64 3059.30
v -210555.01 -107631.43 3059.30
v -210684.89 -107463.45 3059.30
v -211096.40 -106944.31 2993.62
v -211096.40 -106944.31 3059.30
v -211087.89 -106942.24 3059.30
v -211304.25 -106675.49 3004.38
v -211304.25 -106675.49 3059.30
v -211293.02 -106676.94 3059.30
v -210643.39 -106166.10 3024.75
v -210643.39 -106166.10 3059.30
v -210638.50 -106172.43 3059.30
v -210523.43 -106073.51 3028.46
v -210523.43 -106073.51 3059.30
v -210520.46 -106081.33 3059.30
v -210334.16 -105927.43 3034.30
v -210334.16 -105927.43 3059.30
v -210334.21 -105937.58 3059.30
v -210195.11 -105927.43 3034.30
v -210144.70 -105992.62 3031.69
v -210144.70 -105992.62 3059.30
v -210195.11 -105927.43 3059.30
v -210197.23 -105937.77 3059.30
v -210147.48 -106002.10 3059.30
v -210079.51 -106076.94 3034.30
v -210079.51 -106076.94 3059.30
v -210083.15 -106085.32 3059.30
v -210079.51 -107274.84 3034.30
v -210335.74 -107472.43 3024.05
v -210335.74 -107472.43 3059.30
v -210079.51 -107274.84 3059.30
v -210083.79 -107268.03 3059.30
v -210336.94 -107463.26 3059.30
v -207268.35 -142679.93 64.20
v -207353.14 -143201.06 43.35
v -207353.14 -143201.06 89.20
v -207268.35 -142679.93 89.20
v -207276.17 -142678.18 89.20
v -207360.05 -143193.69 89.20
v -207380.40 -143368.61 36.65
v -207380.40 -143368.61 89.20
v -207387.01 -143359.43 89.20
v -207501.15 -143349.07 37.43
v -207501.15 -143349.07 89.20
v -207507.01 -143340.02 89.20
v -208392.03 -143204.92 43.20
v -208392.03 -143204.92 89.20
v -208392.34 -143196.76 89.20
v -209124.51 -143086.40 47.94
v -209124.51 -143086.40 89.20
v -209120.27 -143078.98 89.20
v -209652.97 -143000.89 30.22
v -209652.97 -143000.89 89.20
v -209645.44 -142994.01 89.20
v -209917.70 -142958.06 33.65
v -209917.70 -142958.06 89.20
v -209908.52 -142951.44 89.20
v -209855.72 -142576.18 64.20
v -209855.72 -142576.18 89.20
v -209847.12 -142573.13 89.20
v -205166.02 -134968.52 14.47
v -205221.24 -134728.29 35.90
v -205221.24 -134728.29 60.90
v -205166.02 -134968.52 60.90
v -205160.01 -134958.93 60.90
v -205214.59 -134721.50 60.90
v -203473.03 -134179.93 35.90
v -203446.64 -134294.55 26.73
v -203446.64 -134294.55 60.90
v -203473.03 -134179.93 60.90
v -203481.61 -134178.34 60.90
v -203455.52 -134291.63 60.90
v -203385.42 -134560.44 5.46
v -203385.42 -134560.44 60.90
v -203395.01 -134554.43 60.90
v -203809.77 -134657.69 -2.32
v -203809.77 -134657.69 60.90
v -203815.65 -134650.83 60.90
v -204124.51 -134729.82 -8.09
v -204124.51 -134729.82 60.90
v -204127.63 -134722.33 60.90
v -204321.89 -134775.06 -3.82
v -204321.89 -134775.06 60.90
v -204323.28 -134767.17 60.90
v -202245.67 -130978.27 351.80
v -202218.81 -131085.24 338.96
v -202218.81 -131085.24 376.80
v -202245.67 -130978.27 376.80
v -202255.22 -130973.08 376.80
v -202228.52 -131079.43 376.80
v -202852.50 -131244.44 319.86
v -202852.50 -131244.44 376.80
v -202855.38 -131236.92 376.80
v -202911.30 -131259.21 318.09
v -202911.30 -131259.21 376.80
v -202913.54 -131251.53 376.80
v -202939.08 -131266.19 319.74
v -202939.08 -131266.19 376.80
v -202941.02 -131258.43 376.80
v -203472.46 -131399.32 351.80
v -203472.46 -131399.32 376.80
v -203467.74 -131389.90 376.80
v -204729.62 -139389.83 -26.60
v -204713.52 -139383.42 -27.50
v -204713.52 -139383.42 -1.60
v -204729.62 -139389.83 -1.60
v -204727.12 -139397.44 -1.60
v -204711.17 -139391.10 -1.60
v -204124.51 -139149.19 -60.43
v -204124.51 -139149.19 -1.60
v -204127.60 -139159.03 -1.60
v -203974.53 -139089.54 -56.82
v -203974.53 -139089.54 -1.60
v -203979.00 -139099.93 -1.60
v -203765.83 -139613.75 -27.50
v -203765.83 -139613.75 -1.60
v -203771.67 -139620.71 -1.60
v -203623.03 -139972.43 -27.50
v -203623.03 -139972.43 -1.60
v -203629.80 -139977.05 -1.60
v -203522.09 -140225.97 -27.50
v -203522.09 -140225.97 -1.60
v -203529.52 -140228.93 -1.60
v -203290.44 -140806.51 -27.50
v -203290.44 -140806.51 -1.60
v -203299.38 -140805.67 -1.60
v -203068.62 -141362.41 -27.50
v -203068.62 -141362.41 -1.60
v -203079.02 -141357.93 -1.60
v -204124.51 -141782.16 -27.50
v -204124.51 -141782.16 -1.60
v -204124.54 -141773.56 -1.60
v -204147.01 -141791.11 -26.60
v -204147.01 -141791.11 -1.60
v -204146.82 -141782.42 -1.60
v -201054.43 -148829.40 -481.78
v -200968.36 -148128.59 -453.75
v -200968.36 -148128.59 -426.50
v -201054.43 -148829.40 -426.50
v -201045.51 -148822.43 -426.50
v -200960.57 -148130.77 -426.50
v -200961.46 -148072.43 -451.50
v -200961.46 -148072.43 -426.50
v -200953.76 -148075.35 -426.50
v -199724.51 -148993.14 -451.50
v -200157.07 -148939.88 -468.80
v -200157.07 -148939.88 -426.50
v -199724.51 -148993.14 -426.50
v -199729.88 -148984.42 -426.50
v -200157.79 -148931.73 -426.50
v -200544.29 -148892.20 -484.29
v -200544.29 -148892.20 -426.50
v -200540.85 -148884.57 -426.50
vt -318.1177 5.7408
vt -318.0148 5.7366
vt -318.0148 5.8033
vt -318.1177 5.8033
vt -318.1153 5.8033
vt -318.0127 5.8033
vt -316.6302 5.6813
vt -316.6302 5.8033
vt -316.6478 5.8033
vt -315.2777 5.6813
vt -315.2777 5.8033
vt -315.3145 5.8033
vt -315.0540 5.6642
vt -315.0540 5.8033
vt -315.0939 5.8033
vt -316.0917 5.6597
vt -316.0917 5.8033
vt -316.1287 5.8033
vt -316.3470 5.6586
vt -316.3470 5.8033
vt -316.3833 5.8033
vt -316.6302 5.6932
vt -316.6302 5.8033
vt -316.6657 5.8033
vt -317.0194 5.7408
vt -317.0194 5.8033
vt -317.0538 5.8033
vt -357.7236 4.1673
vt -358.8702 4.0907
vt -358.8702 4.2298
vt -357.7236 4.2298
vt -357.6965 4.2298
vt -358.8364 4.2298
vt -358.4840 4.0830
vt -358.4840 4.2298
vt -358.4566 4.2298
vt -358.1828 4.1673
vt -358.1828 4.2298
vt -358.1604 4.2298
vt -365.3321 3.7332
vt -365.5082 3.7261
vt -365.5082 3.8718
vt -365.3321 3.8718
vt -365.3052 3.8718
vt -365.4794 3.8718
vt -365.5611 3.7881
vt -365.5611 3.8718
vt -365.5317 3.8718
vt -365.5791 3.8093
vt -365.5791 3.8718
vt -365.5495 3.8718
vt -363.4302 3.8093
vt -363.4302 3.8718
vt -363.4310 3.8718
vt -279.1068 2.8015
vt -278.2120 2.7250
vt -278.2120 2.8640
vt -279.1068 2.8640
vt -279.1388 2.8640
vt -278.2440 2.8640
vt -278.5368 2.6575
vt -278.5368 2.8640
vt -278.5657 2.8640
vt -278.6192 2.6608
vt -278.6192 2.8640
vt -278.6473 2.8640
vt -278.6816 2.6633
vt -278.6816 2.8640
vt -278.7091 2.8640
vt -278.9414 2.8015
vt -278.9414 2.8640
vt -278.9665 2.8640
vt -271.2962 2.5170
vt -271.5289 2.4853
vt -271.5289 2.5795
vt -271.2962 2.5795
vt -271.3297 2.5795
vt -271.5602 2.5795
vt -272.0478 2.4479
vt -272.0478 2.5795
vt -272.0742 2.5795
vt -272.2787 2.4312
vt -272.2787 2.5795
vt -272.3030 2.5795
vt -272.8802 2.4312
vt -272.8802 2.5795
vt -272.8988 2.5795
vt -273.1327 2.4413
vt -273.1327 2.5795
vt -273.1489 2.5795
vt -274.9926 2.5157
vt -274.9926 2.5795
vt -274.9992 2.5795
vt -275.0057 2.5170
vt -275.0057 2.5795
vt -275.0123 2.5795
vt -293.6322 4.7295
vt -294.1518 4.6330
vt -294.1518 4.7920
vt -293.6322 4.7920
vt -293.6673 4.7920
vt -294.1816 4.7920
vt -295.2377 4.6477
vt -295.2377 4.7920
vt -295.2564 4.7920
vt -295.6229 4.6529
vt -295.6229 4.7920
vt -295.6377 4.7920
vt -296.7397 4.7295
vt -296.7397 4.7920
vt -296.7456 4.7920
vt -317.1344 5.7014
vt -317.9233 5.7330
vt -317.9233 5.8385
vt -317.1344 5.8385
vt -317.1215 5.8385
vt -317.9028 5.8385
vt -318.3505 5.7760
vt -318.3505 5.8385
vt -318.3259 5.8385
vt -313.7976 5.7760
vt -314.8551 5.6813
vt -314.8551 5.8385
vt -313.7976 5.8385
vt -313.8270 5.8385
vt -314.8712 5.8385
vt -316.6302 5.6813
vt -316.6302 5.8385
vt -316.6237 5.8385
vt -235.7181 1.6818
vt -235.5961 1.6726
vt -235.5961 1.7443
vt -235.7181 1.7443
vt -235.7104 1.7443
vt -235.5903 1.7443
vt -235.3802 1.6688
vt -235.3802 1.7443
vt -235.3777 1.7443
vt -234.8291 1.6592
vt -234.8291 1.7443
vt -234.8348 1.7443
vt -234.2343 1.6421
vt -234.2343 1.7443
vt -234.2490 1.7443
vt -233.8818 1.6513
vt -233.8818 1.7443
vt -233.8965 1.7443
vt -232.7301 1.6812
vt -232.7301 1.7443
vt -232.7448 1.7443
vt -232.7206 1.6818
vt -232.7206 1.7443
vt -232.7352 1.7443
vt -231.9249 1.6818
vt -231.9162 1.6812
vt -231.9162 1.7443
vt -231.9249 1.7443
vt -231.9368 1.7443
vt -231.9281 1.7443
vt -229.1302 1.6012
vt -229.1302 1.7443
vt -229.1220 1.7443
vt -228.7015 1.6060
vt -228.7015 1.7443
vt -228.6901 1.7443
vt -224.0180 1.6588
vt -224.0180 1.7443
vt -224.0326 1.7443
vt -223.6780 1.6812
vt -223.6780 1.7443
vt -223.6977 1.7443
vt -222.8802 1.6812
vt -222.8802 1.7443
vt -222.9119 1.7443
vt -222.5142 1.6666
vt -222.5142 1.7443
vt -222.5514 1.7443
vt -222.8802 1.6812
vt -222.8802 1.7443
vt -222.9147 1.7443
vt -226.0214 1.6812
vt -226.0214 1.7443
vt -226.0326 1.7443
vt -228.8722 1.6812
vt -228.8722 1.7443
vt -228.8835 1.7443
vt -229.0518 1.6812
vt -229.0518 1.7443
vt -229.0631 1.7443
vt -229.0692 1.6818
vt -229.0692 1.7443
vt -229.0805 1.7443
vt -341.5386 5.9423
vt -341.6302 5.9313
vt -341.6302 6.0048
vt -341.5386 6.0048
vt -341.5191 6.0048
vt -341.6100 6.0048
vt -342.4576 5.8651
vt -342.4576 6.0048
vt -342.4302 6.0048
vt -342.5364 5.8587
vt -342.5364 6.0048
vt -342.5082 6.0048
vt -342.5485 5.8661
vt -342.5485 6.0048
vt -342.5202 6.0048
vt -342.5624 5.8753
vt -342.5624 6.0048
vt -342.5340 6.0048
vt -342.5890 5.8929
vt -342.5890 6.0048
vt -342.5603 6.0048
vt -342.6418 5.8908
vt -342.6418 6.0048
vt -342.6127 6.0048
vt -341.6302 5.9313
vt -341.6302 6.0048
vt -341.6099 6.0048
vt -341.3552 5.9423
vt -341.3552 6.0048
vt -341.3373 6.0048
vt -271.6736 3.3551
vt -272.1803 3.3893
vt -272.1803 3.4943
vt -271.6736 3.4943
vt -271.6902 3.4943
vt -272.1915 3.4943
vt -272.6901 3.4237
vt -272.6901 3.4943
vt -272.6960 3.4943
vt -272.7442 3.4318
vt -272.7442 3.4943
vt -272.7495 3.4943
vt -269.9606 3.4318
vt -270.8383 3.3496
vt -270.8383 3.4943
vt -269.9606 3.4943
vt -269.9912 3.4943
vt -270.8617 3.4943
vt -271.6029 3.3546
vt -271.6029 3.4943
vt -271.6200 3.4943
vt -332.6424 6.5537
vt -333.0781 6.4909
vt -333.0781 6.6162
vt -332.6424 6.6162
vt -332.6248 6.6162
vt -333.0565 6.6162
vt -333.2164 6.4842
vt -333.2164 6.6162
vt -333.1920 6.6162
vt -333.6036 6.4655
vt -333.6036 6.6162
vt -333.5712 6.6162
vt -333.6676 6.4767
vt -333.6676 6.6162
vt -333.6339 6.6162
vt -333.2096 6.5286
vt -333.2096 6.6162
vt -333.1760 6.6162
vt -333.0350 6.5537
vt -333.0350 6.6162
vt -333.0014 6.6162
vt -263.2256 2.8265
vt -264.3392 2.9030
vt -264.3392 2.9655
vt -263.2256 2.9655
vt -263.2402 2.9655
vt -264.3423 2.9655
vt -260.9511 2.9030
vt -260.5654 2.8808
vt -260.5654 2.9655
vt -260.9511 2.9655
vt -260.9844 2.9655
vt -260.6027 2.9655
vt -261.5268 2.8314
vt -261.5268 2.9655
vt -261.5527 2.9655
vt -261.9712 2.8085
vt -261.9712 2.9655
vt -261.9941 2.9655
vt -262.6676 2.8185
vt -262.6676 2.9655
vt -262.6860 2.9655
vt -275.3721 5.0139
vt -276.3211 4.9818
vt -276.3211 5.1465
vt -275.3721 5.1465
vt -275.3952 5.1465
vt -276.3383 5.1465
vt -277.9783 5.0061
vt -277.9783 5.1465
vt -277.9852 5.1465
vt -278.5266 5.0840
vt -278.5266 5.1465
vt -278.5259 5.1465
vt -273.2962 5.0840
vt -274.3463 5.0486
vt -274.3463 5.1465
vt -273.2962 5.1465
vt -273.3343 5.1465
vt -274.3768 5.1465
vt -268.9847 3.5592
vt -269.4312 3.6380
vt -269.4312 3.7005
vt -268.9847 3.7005
vt -268.9915 3.7005
vt -269.4327 3.7005
vt -266.4930 3.6380
vt -266.6302 3.6324
vt -266.6302 3.7005
vt -266.4930 3.7005
vt -266.5186 3.7005
vt -266.6548 3.7005
vt -268.5023 3.5556
vt -268.5023 3.7005
vt -268.5127 3.7005
vt -245.8354 2.0995
vt -246.0518 2.1081
vt -246.0518 2.1990
vt -245.8354 2.1990
vt -245.8477 2.1990
vt -246.0627 2.1990
vt -246.7614 2.1365
vt -246.7614 2.1990
vt -246.7679 2.1990
vt -245.8363 2.1365
vt -243.3334 2.0609
vt -243.3334 2.1990
vt -245.8363 2.1990
vt -245.8586 2.1990
vt -243.3715 2.1990
vt -244.3744 2.0410
vt -244.3744 2.1990
vt -244.4018 2.1990
vt -245.7789 2.0972
vt -245.7789 2.1990
vt -245.7918 2.1990
vt -312.6927 8.3387
vt -314.5922 8.2628
vt -314.5922 8.4012
vt -312.6927 8.4012
vt -312.6851 8.4012
vt -314.5652 8.4012
vt -314.6979 8.2585
vt -314.6979 8.4012
vt -314.6701 8.4012
vt -314.7454 8.3387
vt -314.7454 8.4012
vt -314.7172 8.4012
vt -321.8833 7.7610
vt -322.6732 7.6978
vt -322.6732 7.8235
vt -321.8833 7.8235
vt -321.8671 7.8235
vt -322.6477 7.8235
vt -322.8496 7.6837
vt -322.8496 7.8235
vt -322.8214 7.8235
vt -322.8802 7.6813
vt -322.8802 7.8235
vt -322.8520 7.8235
vt -322.9027 7.6795
vt -322.9027 7.8235
vt -322.8745 7.8235
vt -322.9048 7.6798
vt -322.9048 7.8235
vt -322.8766 7.8235
vt -322.9074 7.6802
vt -322.9074 7.8235
vt -322.8792 7.8235
vt -322.9802 7.7610
vt -322.9802 7.8235
vt -322.9521 7.8235
vt -259.5850 3.7080
vt -259.0531 3.6310
vt -259.0531 3.7705
vt -259.5850 3.7705
vt -259.6181 3.7705
vt -259.0927 3.7705
vt -259.0985 3.6300
vt -259.0985 3.7705
vt -259.1377 3.7705
vt -260.3802 3.6029
vt -260.3802 3.7705
vt -260.4091 3.7705
vt -262.1660 3.7080
vt -262.1660 3.7705
vt -262.1805 3.7705
vt -242.7283 2.0895
vt -245.2217 2.1655
vt -245.2217 2.2280
vt -242.7283 2.2280
vt -242.7402 2.2280
vt -245.2165 2.2280
vt -240.9969 2.1655
vt -240.5396 2.1376
vt -240.5396 2.2280
vt -240.9969 2.2280
vt -241.0277 2.2280
vt -240.5735 2.2280
vt -239.9157 2.0996
vt -239.9157 2.2280
vt -239.9539 2.2280
vt -240.3933 2.0823
vt -240.3933 2.2280
vt -240.4271 2.2280
vt -241.6302 2.1094
vt -241.6302 2.2280
vt -241.6524 2.2280
vt -284.0687 7.5480
vt -284.3907 7.4706
vt -284.3907 7.6105
vt -284.0687 7.6105
vt -284.0858 7.6105
vt -284.4065 7.6105
vt -285.3802 7.4625
vt -285.3802 7.6105
vt -285.3855 7.6105
vt -288.0680 7.5480
vt -288.0680 7.6105
vt -288.0449 7.6105
vt -203.4016 -0.6743
vt -204.1302 -0.7531
vt -204.1302 -0.5877
vt -203.4016 -0.5877
vt -203.4152 -0.5877
vt -204.1438 -0.5877
vt -204.4790 -0.7769
vt -204.4790 -0.5877
vt -204.4927 -0.5877
vt -204.6424 -0.7675
vt -204.6424 -0.5877
vt -204.6560 -0.5877
vt -205.0934 -0.7417
vt -205.0934 -0.5877
vt -205.1071 -0.5877
vt -205.9837 -0.6503
vt -205.9837 -0.5877
vt -205.9973 -0.5877
vt -196.5679 -0.6503
vt -197.3691 -0.7186
vt -197.3691 -0.5877
vt -196.5679 -0.5877
vt -196.5889 -0.5877
vt -197.3827 -0.5877
vt -197.8802 -0.7091
vt -197.8802 -0.5877
vt -197.8938 -0.5877
vt -200.2710 -0.6644
vt -200.2710 -0.5877
vt -200.2847 -0.5877
vt -200.5651 -0.6503
vt -200.5651 -0.5877
vt -200.5787 -0.5877
vt -201.5705 -0.6503
vt -202.2865 -0.7278
vt -202.2865 -0.5877
vt -201.5705 -0.5877
vt -201.5842 -0.5877
vt -202.3002 -0.5877
vt -262.3942 5.8659
vt -262.6726 5.9437
vt -262.6726 6.0062
vt -262.3942 6.0062
vt -262.3802 6.0062
vt -262.6564 6.0062
vt -257.4960 5.9437
vt -257.3967 5.9199
vt -257.3967 6.0062
vt -257.4960 6.0062
vt -257.5324 6.0062
vt -257.4339 6.0062
vt -257.3727 5.9096
vt -257.3727 6.0062
vt -257.4101 6.0062
vt -257.5135 5.9106
vt -257.5135 6.0062
vt -257.5495 6.0062
vt -260.3802 5.8370
vt -260.3802 6.0062
vt -260.3868 6.0062
vt -261.4493 5.8523
vt -261.4493 6.0062
vt -261.4450 6.0062
vt -191.7065 -1.4487
vt -191.6302 -1.4541
vt -191.6302 -1.3862
vt -191.7065 -1.3862
vt -191.6947 -1.3862
vt -191.6188 -1.3862
vt -189.9876 -1.5688
vt -189.9876 -1.3862
vt -189.9859 -1.3862
vt -188.8854 -1.4918
vt -188.8854 -1.3862
vt -188.8902 -1.3862
vt -185.4810 -1.5222
vt -185.4810 -1.3862
vt -185.5152 -1.3862
vt -185.9046 -1.5688
vt -185.9046 -1.3862
vt -185.9344 -1.3862
vt -186.2043 -1.5358
vt -186.2043 -1.3862
vt -186.2310 -1.3862
vt -186.9956 -1.4487
vt -186.9956 -1.3862
vt -187.0142 -1.3862
vt -274.9678 8.3095
vt -274.6336 8.2544
vt -274.6336 8.3720
vt -274.9678 8.3720
vt -274.9964 8.3720
vt -274.6652 8.3720
vt -274.7662 8.2330
vt -274.7662 8.3720
vt -274.7970 8.3720
vt -275.0346 8.1898
vt -275.0346 8.3720
vt -275.0636 8.3720
vt -275.1959 8.2318
vt -275.1959 8.3720
vt -275.2240 8.3720
vt -275.4936 8.3095
vt -275.4936 8.3720
vt -275.5200 8.3720
vt -209.6390 1.5203
vt -208.1114 1.4715
vt -208.1114 1.5828
vt -209.6390 1.5828
vt -209.6592 1.5828
vt -208.1502 1.5828
vt -210.1134 1.4445
vt -210.1134 1.5828
vt -210.1377 1.5828
vt -210.3802 1.4409
vt -210.3802 1.5828
vt -210.4022 1.5828
vt -210.5611 1.4457
vt -210.5611 1.5828
vt -210.5816 1.5828
vt -210.6694 1.4486
vt -210.6694 1.5828
vt -210.6890 1.5828
vt -211.1016 1.4601
vt -211.1016 1.5828
vt -211.1176 1.5828
vt -211.8542 1.4499
vt -211.8542 1.5828
vt -211.8639 1.5828
vt -212.1695 1.5028
vt -212.1695 1.5828
vt -212.1767 1.5828
vt -212.4118 1.5203
vt -212.4118 1.5828
vt -212.4169 1.5828
vt -259.3198 7.4823
vt -259.4420 7.4313
vt -259.4420 7.5448
vt -259.3198 7.5448
vt -259.3494 7.5448
vt -259.4702 7.5448
vt -259.5600 7.4149
vt -259.5600 7.5448
vt -259.5868 7.5448
vt -259.6516 7.4021
vt -259.6516 7.5448
vt -259.6773 7.5448
vt -259.7582 7.4064
vt -259.7582 7.5448
vt -259.7827 7.5448
vt -260.3802 7.4313
vt -260.3802 7.5448
vt -260.3976 7.5448
vt -261.6552 7.4823
vt -261.6552 7.5448
vt -261.6580 7.5448
vt -205.5378 0.7218
vt -205.7188 0.7383
vt -205.7188 0.8008
vt -205.5378 0.8008
vt -205.5226 0.8008
vt -205.7013 0.8008
vt -200.8458 0.7383
vt -201.9509 0.6813
vt -201.9509 0.8008
vt -200.8458 0.8008
vt -200.8628 0.8008
vt -201.9605 0.8008
vt -202.0790 0.6614
vt -202.0790 0.8008
vt -202.0877 0.8008
vt -204.1302 0.6161
vt -204.1302 0.8008
vt -204.1248 0.8008
vt -204.7955 0.6546
vt -204.7955 0.8008
vt -204.7856 0.8008
vt -208.7420 2.8060
vt -209.8370 2.7736
vt -209.8370 2.8685
vt -208.7420 2.8685
vt -208.7797 2.8685
vt -209.8688 2.8685
vt -210.3802 2.7576
vt -210.3802 2.8685
vt -210.4091 2.8685
vt -212.5627 2.6932
vt -212.5627 2.8685
vt -212.5799 2.8685
vt -214.0252 2.7229
vt -214.0252 2.8685
vt -214.0345 2.8685
vt -214.3237 2.7289
vt -214.3237 2.8685
vt -214.3314 2.8685
vt -214.9895 2.8000
vt -214.9895 2.8685
vt -214.9885 2.8685
vt -215.0457 2.8060
vt -215.0457 2.8685
vt -215.0440 2.8685
vt -281.1965 8.9650
vt -281.4256 8.8649
vt -281.4256 9.0275
vt -281.1965 9.0275
vt -281.2269 9.0275
vt -281.4537 9.0275
vt -281.7138 8.8879
vt -281.7138 9.0275
vt -281.7390 9.0275
vt -282.6771 8.9650
vt -282.6771 9.0275
vt -282.6936 9.0275
vt -262.0103 7.5867
vt -263.0362 7.5568
vt -263.0362 7.6492
vt -262.0103 7.6492
vt -261.9848 7.6492
vt -263.0039 7.6492
vt -262.9773 7.5351
vt -262.9773 7.6492
vt -262.9456 7.6492
vt -262.6344 7.5214
vt -262.6344 7.6492
vt -262.6065 7.6492
vt -262.5746 7.5190
vt -262.5746 7.6492
vt -262.5479 7.6492
vt -262.4151 7.5126
vt -262.4151 7.6492
vt -262.3914 7.6492
vt -261.2225 7.4649
vt -261.2225 7.6492
vt -261.2068 7.6492
vt -260.3802 7.4455
vt -260.3802 7.6492
vt -260.3702 7.6492
vt -259.7629 7.4560
vt -259.7629 7.6492
vt -259.7569 7.6492
vt -257.6893 7.5867
vt -257.6893 7.6492
vt -257.6971 7.6492
vt -275.5771 8.3970
vt -276.4490 8.4667
vt -276.4490 8.5292
vt -275.5771 8.5292
vt -275.5877 8.5292
vt -276.4500 8.5292
vt -272.5934 8.4667
vt -272.1384 8.3900
vt -272.1384 8.5292
vt -272.5934 8.5292
vt -272.6243 8.5292
vt -272.1752 8.5292
vt -272.8802 8.3868
vt -272.8802 8.5292
vt -272.9113 8.5292
vt -275.3170 8.3762
vt -275.3170 8.5292
vt -275.3296 8.5292
vt -226.7597 4.7015
vt -226.4643 4.6813
vt -226.4643 4.7640
vt -226.7597 4.7640
vt -226.7906 4.7640
vt -226.4973 4.7640
vt -225.6590 4.6261
vt -225.6590 4.7640
vt -225.6977 4.7640
vt -226.9787 4.5952
vt -226.9787 4.7640
vt -226.9977 4.7640
vt -227.2897 4.6273
vt -227.2897 4.7640
vt -227.3040 4.7640
vt -228.0069 4.7015
vt -228.0069 4.7640
vt -228.0126 4.7640
vt -257.2845 7.5721
vt -258.0391 7.5249
vt -258.0391 7.6483
vt -257.2845 7.6483
vt -257.3090 7.6483
vt -258.0536 7.6483
vt -260.3802 7.4840
vt -260.3802 7.6483
vt -260.3641 7.6483
vt -261.5719 7.5110
vt -261.5719 7.6483
vt -261.5402 7.6483
vt -261.1932 7.5619
vt -261.1932 7.6483
vt -261.1652 7.6483
vt -261.1248 7.5712
vt -261.1248 7.6483
vt -261.0978 7.6483
vt -261.0168 7.5858
vt -261.0168 7.6483
vt -260.9916 7.6483
vt -260.6692 7.5858
vt -260.3802 7.5792
vt -260.3802 7.6483
vt -260.6692 7.6483
vt -260.6487 7.6483
vt -260.3635 7.6483
vt -260.0064 7.5858
vt -260.0064 7.6483
vt -259.9946 7.6483
vt -257.0117 7.5858
vt -257.1583 7.5601
vt -257.1583 7.6483
vt -257.0117 7.6483
vt -257.0394 7.6483
vt -257.1842 7.6483
vt -161.4711 0.1605
vt -160.3802 0.1084
vt -160.3802 0.2230
vt -161.4711 0.2230
vt -161.4950 0.2230
vt -160.4159 0.2230
vt -160.0295 0.0916
vt -160.0295 0.2230
vt -160.0690 0.2230
vt -160.3802 0.0936
vt -160.3802 0.2230
vt -160.4175 0.2230
vt -162.9678 0.1080
vt -162.9678 0.2230
vt -162.9889 0.2230
vt -165.0953 0.1198
vt -165.0953 0.2230
vt -165.1032 0.2230
vt -166.6302 0.0755
vt -166.6302 0.2230
vt -166.6286 0.2230
vt -167.3991 0.0841
vt -167.3991 0.2230
vt -167.3927 0.2230
vt -168.1989 0.1605
vt -168.1989 0.2230
vt -168.1850 0.2230
vt -175.4938 0.0362
vt -176.2324 0.0897
vt -176.2324 0.1522
vt -175.4938 0.1522
vt -175.5027 0.1522
vt -176.2327 0.1522
vt -173.2328 0.0897
vt -172.8802 0.0668
vt -172.8802 0.1522
vt -173.2328 0.1522
vt -173.2582 0.1522
vt -172.9097 0.1522
vt -172.0625 0.0137
vt -172.0625 0.1522
vt -172.1015 0.1522
vt -172.8802 -0.0058
vt -172.8802 0.1522
vt -172.9121 0.1522
vt -173.4867 -0.0202
vt -173.4867 0.1522
vt -173.5133 0.1522
vt -173.8671 -0.0095
vt -173.8671 0.1522
vt -173.8903 0.1522
vt -178.1685 0.8795
vt -177.8339 0.8474
vt -177.8339 0.9420
vt -178.1685 0.9420
vt -178.2054 0.9420
vt -177.8727 0.9420
vt -179.0202 0.7997
vt -179.0202 0.9420
vt -179.0461 0.9420
vt -179.1302 0.7952
vt -179.1302 0.9420
vt -179.1550 0.9420
vt -179.1822 0.7994
vt -179.1822 0.9420
vt -179.2065 0.9420
vt -180.1828 0.8795
vt -180.1828 0.9420
vt -180.1946 0.9420
vt -163.3495 -0.0665
vt -163.3252 -0.0688
vt -163.3252 -0.0040
vt -163.3495 -0.0040
vt -163.3242 -0.0040
vt -163.3002 -0.0040
vt -162.4383 -0.1511
vt -162.4383 -0.0040
vt -162.4214 -0.0040
vt -162.2125 -0.1421
vt -162.2125 -0.0040
vt -162.1977 -0.0040
vt -160.3802 -0.0688
vt -160.3802 -0.0040
vt -160.3774 -0.0040
vt -159.1265 -0.0688
vt -159.1265 -0.0040
vt -159.1319 -0.0040
vt -158.2403 -0.0688
vt -158.2403 -0.0040
vt -158.2515 -0.0040
vt -156.2098 -0.0688
vt -156.2098 -0.0040
vt -156.2343 -0.0040
vt -154.2655 -0.0688
vt -154.2655 -0.0040
vt -154.3027 -0.0040
vt -155.8559 -0.0688
vt -155.8559 -0.0040
vt -155.8775 -0.0040
vt -155.8898 -0.0665
vt -155.8898 -0.0040
vt -155.9110 -0.0040
vt -130.5626 -1.2045
vt -132.0994 -1.1344
vt -132.0994 -1.0662
vt -130.5626 -1.0662
vt -130.5577 -1.0662
vt -132.0745 -1.0662
vt -132.2226 -1.1287
vt -132.2226 -1.0662
vt -132.1960 -1.0662
vt -126.8284 -1.1287
vt -128.0430 -1.1720
vt -128.0430 -1.0662
vt -126.8284 -1.0662
vt -126.8636 -1.0662
vt -128.0651 -1.0662
vt -129.1302 -1.2107
vt -129.1302 -1.0662
vt -129.1407 -1.0662
vn -0.0520 0.9986 0.0000
vn 0.0000 -0.0000 1.0000
vn 0.9987 0.0518 0.0000
vn 0.0516 -0.9987 0.0000
vn -0.8973 -0.4413 0.0000
vn -0.5143 0.8576 0.0000
vn -0.7396 0.6730 0.0000
vn -0.6717 -0.7408 0.0000
vn 0.7965 0.6046 0.0000
vn 0.6031 -0.7977 0.0000
vn 0.4066 -0.9136 0.0000
vn -0.9134 -0.4072 0.0000
vn 0.3698 -0.9291 0.0000
vn -0.9285 -0.3714 0.0000
vn -0.9464 0.3229 0.0000
vn -0.3214 -0.9469 0.0000
vn 0.3648 0.9311 0.0000
vn 0.9303 -0.3667 0.0000
vn 0.3654 0.9309 0.0000
vn -0.3654 -0.9309 0.0000
vn -0.3653 -0.9309 0.0000
vn -0.6849 -0.7286 0.0000
vn -0.7280 0.6856 0.0000
vn -0.7264 0.6873 0.0000
vn 0.6855 0.7281 0.0000
vn -0.9096 -0.4155 0.0000
vn 0.4142 -0.9102 0.0000
vn -0.5392 -0.8422 0.0000
vn -0.8415 0.5403 0.0000
vn 0.5396 0.8419 0.0000
vn -0.9307 -0.3659 0.0000
vn 0.9309 0.3654 0.0000
vn 0.3646 -0.9312 0.0000
vn 0.3642 -0.9313 0.0000
vn 0.1719 -0.9851 0.0000
vn -0.9851 -0.1718 0.0000
vn 0.1717 -0.9852 0.0000
vn -0.9857 -0.1684 0.0000
vn 0.1676 -0.9858 0.0000
vn -0.9514 -0.3078 0.0000
vn 0.9513 0.3083 0.0000
vn 0.3073 -0.9516 0.0000
vn -0.6739 -0.7388 0.0000
vn -0.7376 0.6752 0.0000
vn -0.6353 -0.7723 0.0000
vn -0.7710 0.6368 0.0000
vn -0.7705 0.6374 0.0000
vn 0.9911 -0.1333 0.0000
vn -0.1325 -0.9912 0.0000
vn -0.9545 -0.2981 0.0000
vn 0.9545 0.2982 0.0000
vn 0.2975 -0.9547 0.0000
vn 0.3946 -0.9188 0.0000
vn -0.9184 -0.3958 0.0000
vn 0.3405 -0.9402 0.0000
vn 0.3404 -0.9403 0.0000
vn -0.9400 -0.3410 0.0000
vn 0.3411 -0.9400 0.0000
vn -0.9397 -0.3420 0.0000
vn -0.9364 0.3508 0.0000
vn 0.9365 -0.3508 0.0000
vn -0.3494 -0.9370 0.0000
vn 0.1444 0.9895 0.0000
vn 0.9950 -0.0998 0.0000
vn 0.2630 -0.9648 0.0000
vn 0.7882 0.6154 0.0000
vn 0.6143 -0.7891 0.0000
vn 0.6145 -0.7889 0.0000
vn 0.9696 0.2449 0.0000
vn 0.2445 -0.9697 0.0000
vn 0.2432 -0.9700 0.0000
vn -0.9696 -0.2447 0.0000
vn 0.6134 -0.7898 0.0000
vn -0.7891 -0.6143 0.0000
vn -0.9757 -0.2190 0.0000
vn 0.2191 -0.9757 0.0000
vn -0.9755 -0.2201 0.0000
vn 0.1938 -0.9810 0.0000
vn -0.9809 -0.1944 0.0000
vn 0.6302 -0.7764 0.0000
vn -0.7755 -0.6314 0.0000
vn -0.8063 -0.5916 0.0000
vn -0.5905 0.8070 0.0000
vn -0.5900 0.8074 0.0000
vn 0.8065 0.5912 0.0000
vn -0.3898 -0.9209 0.0000
vn 0.9204 -0.3910 0.0000
vn -0.3893 -0.9211 0.0000
vn 0.9671 -0.2544 0.0000
vn -0.2537 -0.9673 0.0000
vn -0.2533 -0.9674 0.0000
vn -0.7911 -0.6117 0.0000
vn -0.6105 0.7920 0.0000
vn -0.6110 0.7916 0.0000
vn 0.7911 0.6117 0.0000
vn 0.6107 -0.7919 0.0000
vn 0.9870 -0.1606 0.0000
vn -0.1597 -0.9872 0.0000
vn -0.9871 0.1602 0.0000
vn -0.9746 -0.2240 0.0000
vn 0.9745 0.2244 0.0000
vn 0.2234 -0.9747 0.0000
vn 0.9699 0.2435 0.0000
vn 0.2437 -0.9699 0.0000
vn 0.2422 -0.9702 0.0000
vn -0.3695 0.9292 0.0000
vn 0.9291 0.3699 0.0000
vn 0.9288 0.3706 0.0000
vn 0.3694 -0.9293 0.0000
vn -0.9925 0.1219 0.0000
vn -0.1222 -0.9925 0.0000
f 1/1/1 3/3/1 2/2/1
f 1/1/1 4/4/1 3/3/1
f 5/5/2 6/6/2 3/3/2
f 5/5/2 3/3/2 4/4/2
f 2/2/3 8/8/3 7/7/3
f 2/2/3 3/3/3 8/8/3
f 6/6/2 9/9/2 8/8/2
f 6/6/2 8/8/2 3/3/2
f 7/7/3 11/11/3 10/10/3
f 7/7/3 8/8/3 11/11/3
f 9/9/2 12/12/2 11/11/2
f 9/9/2 11/11/2 8/8/2
f 10/10/3 14/14/3 13/13/3
f 10/10/3 11/11/3 14/14/3
f 12/12/2 15/15/2 14/14/2
f 12/12/2 14/14/2 11/11/2
f 13/13/4 17/17/4 16/16/4
f 13/13/4 14/14/4 17/17/4
f 15/15/2 18/18/2 17/17/2
f 15/15/2 17/17/2 14/14/2
f 16/16/4 20/20/4 19/19/4
f 16/16/4 17/17/4 20/20/4
f 18/18/2 21/21/2 20/20/2
f 18/18/2 20/20/2 17/17/2
f 19/19/4 23/23/4 22/22/4
f 19/19/4 20/20/4 23/23/4
f 21/21/2 24/24/2 23/23/2
f 21/21/2 23/23/2 20/20/2
f 22/22/4 26/26/4 25/25/4
f 22/22/4 23/23/4 26/26/4
f 24/24/2 27/27/2 26/26/2
f 24/24/2 26/26/2 23/23/2
f 28/28/5 30/30/5 29/29/5
f 28/28/5 31/31/5 30/30/5
f 32/32/2 33/33/2 30/30/2
f 32/32/2 30/30/2 31/31/2
f 29/29/6 35/35/6 34/34/6
f 29/29/6 30/30/6 35/35/6
f 33/33/2 36/36/2 35/35/2
f 33/33/2 35/35/2 30/30/2
f 34/34/6 38/38/6 37/37/6
f 34/34/6 35/35/6 38/38/6
f 36/36/2 39/39/2 38/38/2
f 36/36/2 38/38/2 35/35/2
f 40/40/7 42/42/7 41/41/7
f 40/40/7 43/43/7 42/42/7
f 44/44/2 45/45/2 42/42/2
f 44/44/2 42/42/2 43/43/2
f 41/41/7 47/47/7 46/46/7
f 41/41/7 42/42/7 47/47/7
f 45/45/2 48/48/2 47/47/2
f 45/45/2 47/47/2 42/42/2
f 46/46/7 50/50/7 49/49/7
f 46/46/7 47/47/7 50/50/7
f 48/48/2 51/51/2 50/50/2
f 48/48/2 50/50/2 47/47/2
f 52/52/8 43/43/8 40/40/8
f 52/52/8 53/53/8 43/43/8
f 54/54/2 44/44/2 43/43/2
f 54/54/2 43/43/2 53/53/2
f 55/55/9 57/57/9 56/56/9
f 55/55/9 58/58/9 57/57/9
f 59/59/2 60/60/2 57/57/2
f 59/59/2 57/57/2 58/58/2
f 56/56/10 62/62/10 61/61/10
f 56/56/10 57/57/10 62/62/10
f 60/60/2 63/63/2 62/62/2
f 60/60/2 62/62/2 57/57/2
f 61/61/10 65/65/10 64/64/10
f 61/61/10 62/62/10 65/65/10
f 63/63/2 66/66/2 65/65/2
f 63/63/2 65/65/2 62/62/2
f 64/64/10 68/68/10 67/67/10
f 64/64/10 65/65/10 68/68/10
f 66/66/2 69/69/2 68/68/2
f 66/66/2 68/68/2 65/65/2
f 67/67/10 71/71/10 70/70/10
f 67/67/10 68/68/10 71/71/10
f 69/69/2 72/72/2 71/71/2
f 69/69/2 71/71/2 68/68/2
f 73/73/11 75/75/11 74/74/11
f 73/73/11 76/76/11 75/75/11
f 77/77/2 78/78/2 75/75/2
f 77/77/2 75/75/2 76/76/2
f 74/74/11 80/80/11 79/79/11
f 74/74/11 75/75/11 80/80/11
f 78/78/2 81/81/2 80/80/2
f 78/78/2 80/80/2 75/75/2
f 79/79/11 83/83/11 82/82/11
f 79/79/11 80/80/11 83/83/11
f 81/81/2 84/84/2 83/83/2
f 81/81/2 83/83/2 80/80/2
f 82/82/11 86/86/11 85/85/11
f 82/82/11 83/83/11 86/86/11
f 84/84/2 87/87/2 86/86/2
f 84/84/2 86/86/2 83/83/2
f 85/85/11 89/89/11 88/88/11
f 85/85/11 86/86/11 89/89/11
f 87/87/2 90/90/2 89/89/2
f 87/87/2 89/89/2 86/86/2
f 88/88/12 92/92/12 91/91/12
f 88/88/12 89/89/12 92/92/12
f 90/90/2 93/93/2 92/92/2
f 90/90/2 92/92/2 89/89/2
f 91/91/12 95/95/12 94/94/12
f 91/91/12 92/92/12 95/95/12
f 93/93/2 96/96/2 95/95/2
f 93/93/2 95/95/2 92/92/2
f 97/97/13 99/99/13 98/98/13
f 97/97/13 100/100/13 99/99/13
f 101/101/2 102/102/2 99/99/2
f 101/101/2 99/99/2 100/100/2
f 98/98/13 104/104/13 103/103/13
f 98/98/13 99/99/13 104/104/13
f 102/102/2 105/105/2 104/104/2
f 102/102/2 104/104/2 99/99/2
f 103/103/13 107/107/13 106/106/13
f 103/103/13 104/104/13 107/107/13
f 105/105/2 108/108/2 107/107/2
f 105/105/2 107/107/2 104/104/2
f 106/106/14 110/110/14 109/109/14
f 106/106/14 107/107/14 110/110/14
f 108/108/2 111/111/2 110/110/2
f 108/108/2 110/110/2 107/107/2
f 112/112/15 114/114/15 113/113/15
f 112/112/15 115/115/15 114/114/15
f 116/116/2 117/117/2 114/114/2
f 116/116/2 114/114/2 115/115/2
f 113/113/15 119/119/15 118/118/15
f 113/113/15 114/114/15 119/119/15
f 117/117/2 120/120/2 119/119/2
f 117/117/2 119/119/2 114/114/2
f 121/121/16 123/123/16 122/122/16
f 121/121/16 124/124/16 123/123/16
f 125/125/2 126/126/2 123/123/2
f 125/125/2 123/123/2 124/124/2
f 122/122/16 128/128/16 127/127/16
f 122/122/16 123/123/16 128/128/16
f 126/126/2 129/129/2 128/128/2
f 126/126/2 128/128/2 123/123/2
f 127/127/16 115/115/16 112/112/16
f 127/127/16 128/128/16 115/115/16
f 129/129/2 116/116/2 115/115/2
f 129/129/2 115/115/2 128/128/2
f 130/130/17 132/132/17 131/131/17
f 130/130/17 133/133/17 132/132/17
f 134/134/2 135/135/2 132/132/2
f 134/134/2 132/132/2 133/133/2
f 131/131/17 137/137/17 136/136/17
f 131/131/17 132/132/17 137/137/17
f 135/135/2 138/138/2 137/137/2
f 135/135/2 137/137/2 132/132/2
f 136/136/17 140/140/17 139/139/17
f 136/136/17 137/137/17 140/140/17
f 138/138/2 141/141/2 140/140/2
f 138/138/2 140/140/2 137/137/2
f 139/139/17 143/143/17 142/142/17
f 139/139/17 140/140/17 143/143/17
f 141/141/2 144/144/2 143/143/2
f 141/141/2 143/143/2 140/140/2
f 142/142/18 146/146/18 145/145/18
f 142/142/18 143/143/18 146/146/18
f 144/144/2 147/147/2 146/146/2
f 144/144/2 146/146/2 143/143/2
f 145/145/18 149/149/18 148/148/18
f 145/145/18 146/146/18 149/149/18
f 147/147/2 150/150/2 149/149/2
f 147/147/2 149/149/2 146/146/2
f 148/148/18 152/152/18 151/151/18
f 148/148/18 149/149/18 152/152/18
f 150/150/2 153/153/2 152/152/2
f 150/150/2 152/152/2 149/149/2
f 154/154/19 156/156/19 155/155/19
f 154/154/19 157/157/19 156/156/19
f 158/158/2 159/159/2 156/156/2
f 158/158/2 156/156/2 157/157/2
f 155/155/19 161/161/19 160/160/19
f 155/155/19 156/156/19 161/161/19
f 159/159/2 162/162/2 161/161/2
f 159/159/2 161/161/2 156/156/2
f 160/160/19 164/164/19 163/163/19
f 160/160/19 161/161/19 164/164/19
f 162/162/2 165/165/2 164/164/2
f 162/162/2 164/164/2 161/161/2
f 163/163/17 167/167/17 166/166/17
f 163/163/17 164/164/17 167/167/17
f 165/165/2 168/168/2 167/167/2
f 165/165/2 167/167/2 164/164/2
f 166/166/18 170/170/18 169/169/18
f 166/166/18 167/167/18 170/170/18
f 168/168/2 171/171/2 170/170/2
f 168/168/2 170/170/2 167/167/2
f 169/169/18 173/173/18 172/172/18
f 169/169/18 170/170/18 173/173/18
f 171/171/2 174/174/2 173/173/2
f 171/171/2 173/173/2 170/170/2
f 172/172/18 176/176/18 175/175/18
f 172/172/18 173/173/18 176/176/18
f 174/174/2 177/177/2 176/176/2
f 174/174/2 176/176/2 173/173/2
f 175/175/20 179/179/20 178/178/20
f 175/175/20 176/176/20 179/179/20
f 177/177/2 180/180/2 179/179/2
f 177/177/2 179/179/2 176/176/2
f 178/178/20 182/182/20 181/181/20
f 178/178/20 179/179/20 182/182/20
f 180/180/2 183/183/2 182/182/2
f 180/180/2 182/182/2 179/179/2
f 181/181/21 185/185/21 184/184/21
f 181/181/21 182/182/21 185/185/21
f 183/183/2 186/186/2 185/185/2
f 183/183/2 185/185/2 182/182/2
f 184/184/21 188/188/21 187/187/21
f 184/184/21 185/185/21 188/188/21
f 186/186/2 189/189/2 188/188/2
f 186/186/2 188/188/2 185/185/2
f 187/187/21 191/191/21 190/190/21
f 187/187/21 188/188/21 191/191/21
f 189/189/2 192/192/2 191/191/2
f 189/189/2 191/191/2 188/188/2
f 193/193/22 195/195/22 194/194/22
f 193/193/22 196/196/22 195/195/22
f 197/197/2 198/198/2 195/195/2
f 197/197/2 195/195/2 196/196/2
f 194/194/22 200/200/22 199/199/22
f 194/194/22 195/195/22 200/200/22
f 198/198/2 201/201/2 200/200/2
f 198/198/2 200/200/2 195/195/2
f 199/199/23 203/203/23 202/202/23
f 199/199/23 200/200/23 203/203/23
f 201/201/2 204/204/2 203/203/2
f 201/201/2 203/203/2 200/200/2
f 202/202/23 206/206/23 205/205/23
f 202/202/23 203/203/23 206/206/23
f 204/204/2 207/207/2 206/206/2
f 204/204/2 206/206/2 203/203/2
f 205/205/24 209/209/24 208/208/24
f 205/205/24 206/206/24 209/209/24
f 207/207/2 210/210/2 209/209/2
f 207/207/2 209/209/2 206/206/2
f 208/208/24 212/212/24 211/211/24
f 208/208/24 209/209/24 212/212/24
f 210/210/2 213/213/2 212/212/2
f 210/210/2 212/212/2 209/209/2
f 211/211/24 215/215/24 214/214/24
f 211/211/24 212/212/24 215/215/24
f 213/213/2 216/216/2 215/215/2
f 213/213/2 215/215/2 212/212/2
f 214/214/25 218/218/25 217/217/25
f 214/214/25 215/215/25 218/218/25
f 216/216/2 219/219/2 218/218/2
f 216/216/2 218/218/2 215/215/2
f 217/217/25 221/221/25 220/220/25
f 217/217/25 218/218/25 221/221/25
f 219/219/2 222/222/2 221/221/2
f 219/219/2 221/221/2 218/218/2
f 223/223/26 225/225/26 224/224/26
f 223/223/26 226/226/26 225/225/26
f 227/227/2 228/228/2 225/225/2
f 227/227/2 225/225/2 226/226/2
f 224/224/26 230/230/26 229/229/26
f 224/224/26 225/225/26 230/230/26
f 228/228/2 231/231/2 230/230/2
f 228/228/2 230/230/2 225/225/2
f 229/229/26 233/233/26 232/232/26
f 229/229/26 230/230/26 233/233/26
f 231/231/2 234/234/2 233/233/2
f 231/231/2 233/233/2 230/230/2
f 235/235/27 237/237/27 236/236/27
f 235/235/27 238/238/27 237/237/27
f 239/239/2 240/240/2 237/237/2
f 239/239/2 237/237/2 238/238/2
f 236/236/27 242/242/27 241/241/27
f 236/236/27 237/237/27 242/242/27
f 240/240/2 243/243/2 242/242/2
f 240/240/2 242/242/2 237/237/2
f 241/241/27 226/226/27 223/223/27
f 241/241/27 242/242/27 226/226/27
f 243/243/2 227/227/2 226/226/2
f 243/243/2 226/226/2 242/242/2
f 244/244/28 246/246/28 245/245/28
f 244/244/28 247/247/28 246/246/28
f 248/248/2 249/249/2 246/246/2
f 248/248/2 246/246/2 247/247/2
f 245/245/29 251/251/29 250/250/29
f 245/245/29 246/246/29 251/251/29
f 249/249/2 252/252/2 251/251/2
f 249/249/2 251/251/2 246/246/2
f 250/250/29 254/254/29 253/253/29
f 250/250/29 251/251/29 254/254/29
f 252/252/2 255/255/2 254/254/2
f 252/252/2 254/254/2 251/251/2
f 253/253/29 257/257/29 256/256/29
f 253/253/29 254/254/29 257/257/29
f 255/255/2 258/258/2 257/257/2
f 255/255/2 257/257/2 254/254/2
f 256/256/30 260/260/30 259/259/30
f 256/256/30 257/257/30 260/260/30
f 258/258/2 261/261/2 260/260/2
f 258/258/2 260/260/2 257/257/2
f 259/259/30 263/263/30 262/262/30
f 259/259/30 260/260/30 263/263/30
f 261/261/2 264/264/2 263/263/2
f 261/261/2 263/263/2 260/260/2
f 265/265/31 267/267/31 266/266/31
f 265/265/31 268/268/31 267/267/31
f 269/269/2 270/270/2 267/267/2
f 269/269/2 267/267/2 268/268/2
f 271/271/32 273/273/32 272/272/32
f 271/271/32 274/274/32 273/273/32
f 275/275/2 276/276/2 273/273/2
f 275/275/2 273/273/2 274/274/2
f 272/272/33 278/278/33 277/277/33
f 272/272/33 273/273/33 278/278/33
f 276/276/2 279/279/2 278/278/2
f 276/276/2 278/278/2 273/273/2
f 277/277/34 281/281/34 280/280/34
f 277/277/34 278/278/34 281/281/34
f 279/279/2 282/282/2 281/281/2
f 279/279/2 281/281/2 278/278/2
f 280/280/34 284/284/34 283/283/34
f 280/280/34 281/281/34 284/284/34
f 282/282/2 285/285/2 284/284/2
f 282/282/2 284/284/2 281/281/2
f 283/283/34 268/268/34 265/265/34
f 283/283/34 284/284/34 268/268/34
f 285/285/2 269/269/2 268/268/2
f 285/285/2 268/268/2 284/284/2
f 286/286/35 288/288/35 287/287/35
f 286/286/35 289/289/35 288/288/35
f 290/290/2 291/291/2 288/288/2
f 290/290/2 288/288/2 289/289/2
f 287/287/35 293/293/35 292/292/35
f 287/287/35 288/288/35 293/293/35
f 291/291/2 294/294/2 293/293/2
f 291/291/2 293/293/2 288/288/2
f 292/292/36 296/296/36 295/295/36
f 292/292/36 293/293/36 296/296/36
f 294/294/2 297/297/2 296/296/2
f 294/294/2 296/296/2 293/293/2
f 298/298/37 300/300/37 299/299/37
f 298/298/37 301/301/37 300/300/37
f 302/302/2 303/303/2 300/300/2
f 302/302/2 300/300/2 301/301/2
f 299/299/37 289/289/37 286/286/37
f 299/299/37 300/300/37 289/289/37
f 303/303/2 290/290/2 289/289/2
f 303/303/2 289/289/2 300/300/2
f 304/304/38 306/306/38 305/305/38
f 304/304/38 307/307/38 306/306/38
f 308/308/2 309/309/2 306/306/2
f 308/308/2 306/306/2 307/307/2
f 310/310/39 312/312/39 311/311/39
f 310/310/39 313/313/39 312/312/39
f 314/314/2 315/315/2 312/312/2
f 314/314/2 312/312/2 313/313/2
f 311/311/39 317/317/39 316/316/39
f 311/311/39 312/312/39 317/317/39
f 315/315/2 318/318/2 317/317/2
f 315/315/2 317/317/2 312/312/2
f 316/316/39 307/307/39 304/304/39
f 316/316/39 317/317/39 307/307/39
f 318/318/2 308/308/2 307/307/2
f 318/318/2 307/307/2 317/317/2
f 319/319/40 321/321/40 320/320/40
f 319/319/40 322/322/40 321/321/40
f 323/323/2 324/324/2 321/321/2
f 323/323/2 321/321/2 322/322/2
f 320/320/40 326/326/40 325/325/40
f 320/320/40 321/321/40 326/326/40
f 324/324/2 327/327/2 326/326/2
f 324/324/2 326/326/2 321/321/2
f 328/328/41 330/330/41 329/329/41
f 328/328/41 331/331/41 330/330/41
f 332/332/2 333/333/2 330/330/2
f 332/332/2 330/330/2 331/331/2
f 329/329/42 335/335/42 334/334/42
f 329/329/42 330/330/42 335/335/42
f 333/333/2 336/336/2 335/335/2
f 333/333/2 335/335/2 330/330/2
f 334/334/42 338/338/42 337/337/42
f 334/334/42 335/335/42 338/338/42
f 336/336/2 339/339/2 338/338/2
f 336/336/2 338/338/2 335/335/2
f 337/337/42 322/322/42 319/319/42
f 337/337/42 338/338/42 322/322/42
f 339/339/2 323/323/2 322/322/2
f 339/339/2 322/322/2 338/338/2
f 340/340/43 342/342/43 341/341/43
f 340/340/43 343/343/43 342/342/43
f 344/344/2 345/345/2 342/342/2
f 344/344/2 342/342/2 343/343/2
f 341/341/44 347/347/44 346/346/44
f 341/341/44 342/342/44 347/347/44
f 345/345/2 348/348/2 347/347/2
f 345/345/2 347/347/2 342/342/2
f 346/346/44 350/350/44 349/349/44
f 346/346/44 347/347/44 350/350/44
f 348/348/2 351/351/2 350/350/2
f 348/348/2 350/350/2 347/347/2
f 352/352/45 354/354/45 353/353/45
f 352/352/45 355/355/45 354/354/45
f 356/356/2 357/357/2 354/354/2
f 356/356/2 354/354/2 355/355/2
f 353/353/46 359/359/46 358/358/46
f 353/353/46 354/354/46 359/359/46
f 357/357/2 360/360/2 359/359/2
f 357/357/2 359/359/2 354/354/2
f 358/358/47 362/362/47 361/361/47
f 358/358/47 359/359/47 362/362/47
f 360/360/2 363/363/2 362/362/2
f 360/360/2 362/362/2 359/359/2
f 361/361/47 365/365/47 364/364/47
f 361/361/47 362/362/47 365/365/47
f 363/363/2 366/366/2 365/365/2
f 363/363/2 365/365/2 362/362/2
f 364/364/47 368/368/47 367/367/47
f 364/364/47 365/365/47 368/368/47
f 366/366/2 369/369/2 368/368/2
f 366/366/2 368/368/2 365/365/2
f 367/367/47 371/371/47 370/370/47
f 367/367/47 368/368/47 371/371/47
f 369/369/2 372/372/2 371/371/2
f 369/369/2 371/371/2 368/368/2
f 370/370/47 374/374/47 373/373/47
f 370/370/47 371/371/47 374/374/47
f 372/372/2 375/375/2 374/374/2
f 372/372/2 374/374/2 371/371/2
f 376/376/48 378/378/48 377/377/48
f 376/376/48 379/379/48 378/378/48
f 380/380/2 381/381/2 378/378/2
f 380/380/2 378/378/2 379/379/2
f 377/377/49 383/383/49 382/382/49
f 377/377/49 378/378/49 383/383/49
f 381/381/2 384/384/2 383/383/2
f 381/381/2 383/383/2 378/378/2
f 382/382/49 386/386/49 385/385/49
f 382/382/49 383/383/49 386/386/49
f 384/384/2 387/387/2 386/386/2
f 384/384/2 386/386/2 383/383/2
f 385/385/49 389/389/49 388/388/49
f 385/385/49 386/386/49 389/389/49
f 387/387/2 390/390/2 389/389/2
f 387/387/2 389/389/2 386/386/2
f 391/391/50 393/393/50 392/392/50
f 391/391/50 394/394/50 393/393/50
f 395/395/2 396/396/2 393/393/2
f 395/395/2 393/393/2 394/394/2
f 397/397/51 399/399/51 398/398/51
f 397/397/51 400/400/51 399/399/51
f 401/401/2 402/402/2 399/399/2
f 401/401/2 399/399/2 400/400/2
f 398/398/51 404/404/51 403/403/51
f 398/398/51 399/399/51 404/404/51
f 402/402/2 405/405/2 404/404/2
f 402/402/2 404/404/2 399/399/2
f 403/403/52 407/407/52 406/406/52
f 403/403/52 404/404/52 407/407/52
f 405/405/2 408/408/2 407/407/2
f 405/405/2 407/407/2 404/404/2
f 406/406/52 410/410/52 409/409/52
f 406/406/52 407/407/52 410/410/52
f 408/408/2 411/411/2 410/410/2
f 408/408/2 410/410/2 407/407/2
f 409/409/52 394/394/52 391/391/52
f 409/409/52 410/410/52 394/394/52
f 411/411/2 395/395/2 394/394/2
f 411/411/2 394/394/2 410/410/2
f 412/412/53 414/414/53 413/413/53
f 412/412/53 415/415/53 414/414/53
f 416/416/2 417/417/2 414/414/2
f 416/416/2 414/414/2 415/415/2
f 413/413/54 419/419/54 418/418/54
f 413/413/54 414/414/54 419/419/54
f 417/417/2 420/420/2 419/419/2
f 417/417/2 419/419/2 414/414/2
f 418/418/54 422/422/54 421/421/54
f 418/418/54 419/419/54 422/422/54
f 420/420/2 423/423/2 422/422/2
f 420/420/2 422/422/2 419/419/2
f 424/424/55 426/426/55 425/425/55
f 424/424/55 427/427/55 426/426/55
f 428/428/2 429/429/2 426/426/2
f 428/428/2 426/426/2 427/427/2
f 425/425/55 431/431/55 430/430/55
f 425/425/55 426/426/55 431/431/55
f 429/429/2 432/432/2 431/431/2
f 429/429/2 431/431/2 426/426/2
f 430/430/55 434/434/55 433/433/55
f 430/430/55 431/431/55 434/434/55
f 432/432/2 435/435/2 434/434/2
f 432/432/2 434/434/2 431/431/2
f 433/433/55 437/437/55 436/436/55
f 433/433/55 434/434/55 437/437/55
f 435/435/2 438/438/2 437/437/2
f 435/435/2 437/437/2 434/434/2
f 436/436/55 440/440/55 439/439/55
f 436/436/55 437/437/55 440/440/55
f 438/438/2 441/441/2 440/440/2
f 438/438/2 440/440/2 437/437/2
f 442/442/56 444/444/56 443/443/56
f 442/442/56 445/445/56 444/444/56
f 446/446/2 447/447/2 444/444/2
f 446/446/2 444/444/2 445/445/2
f 443/443/57 449/449/57 448/448/57
f 443/443/57 444/444/57 449/449/57
f 447/447/2 450/450/2 449/449/2
f 447/447/2 449/449/2 444/444/2
f 448/448/57 452/452/57 451/451/57
f 448/448/57 449/449/57 452/452/57
f 450/450/2 453/453/2 452/452/2
f 450/450/2 452/452/2 449/449/2
f 451/451/57 455/455/57 454/454/57
f 451/451/57 452/452/57 455/455/57
f 453/453/2 456/456/2 455/455/2
f 453/453/2 455/455/2 452/452/2
f 457/457/58 459/459/58 458/458/58
f 457/457/58 460/460/58 459/459/58
f 461/461/2 462/462/2 459/459/2
f 461/461/2 459/459/2 460/460/2
f 458/458/59 427/427/59 424/424/59
f 458/458/59 459/459/59 427/427/59
f 462/462/2 428/428/2 427/427/2
f 462/462/2 427/427/2 459/459/2
f 463/463/60 465/465/60 464/464/60
f 463/463/60 466/466/60 465/465/60
f 467/467/2 468/468/2 465/465/2
f 467/467/2 465/465/2 466/466/2
f 469/469/61 471/471/61 470/470/61
f 469/469/61 472/472/61 471/471/61
f 473/473/2 474/474/2 471/471/2
f 473/473/2 471/471/2 472/472/2
f 470/470/61 476/476/61 475/475/61
f 470/470/61 471/471/61 476/476/61
f 474/474/2 477/477/2 476/476/2
f 474/474/2 476/476/2 471/471/2
f 475/475/62 479/479/62 478/478/62
f 475/475/62 476/476/62 479/479/62
f 477/477/2 480/480/2 479/479/2
f 477/477/2 479/479/2 476/476/2
f 478/478/62 482/482/62 481/481/62
f 478/478/62 479/479/62 482/482/62
f 480/480/2 483/483/2 482/482/2
f 480/480/2 482/482/2 479/479/2
f 481/481/62 485/485/62 484/484/62
f 481/481/62 482/482/62 485/485/62
f 483/483/2 486/486/2 485/485/2
f 483/483/2 485/485/2 482/482/2
f 484/484/62 466/466/62 463/463/62
f 484/484/62 485/485/62 466/466/62
f 486/486/2 467/467/2 466/466/2
f 486/486/2 466/466/2 485/485/2
f 487/487/63 489/489/63 488/488/63
f 487/487/63 490/490/63 489/489/63
f 491/491/2 492/492/2 489/489/2
f 491/491/2 489/489/2 490/490/2
f 488/488/63 494/494/63 493/493/63
f 488/488/63 489/489/63 494/494/63
f 492/492/2 495/495/2 494/494/2
f 492/492/2 494/494/2 489/489/2
f 493/493/63 497/497/63 496/496/63
f 493/493/63 494/494/63 497/497/63
f 495/495/2 498/498/2 497/497/2
f 495/495/2 497/497/2 494/494/2
f 496/496/64 500/500/64 499/499/64
f 496/496/64 497/497/64 500/500/64
f 498/498/2 501/501/2 500/500/2
f 498/498/2 500/500/2 497/497/2
f 499/499/65 503/503/65 502/502/65
f 499/499/65 500/500/65 503/503/65
f 501/501/2 504/504/2 503/503/2
f 501/501/2 503/503/2 500/500/2
f 502/502/65 506/506/65 505/505/65
f 502/502/65 503/503/65 506/506/65
f 504/504/2 507/507/2 506/506/2
f 504/504/2 506/506/2 503/503/2
f 505/505/65 509/509/65 508/508/65
f 505/505/65 506/506/65 509/509/65
f 507/507/2 510/510/2 509/509/2
f 507/507/2 509/509/2 506/506/2
f 511/511/66 513/513/66 512/512/66
f 511/511/66 514/514/66 513/513/66
f 515/515/2 516/516/2 513/513/2
f 515/515/2 513/513/2 514/514/2
f 512/512/67 518/518/67 517/517/67
f 512/512/67 513/513/67 518/518/67
f 516/516/2 519/519/2 518/518/2
f 516/516/2 518/518/2 513/513/2
f 517/517/67 521/521/67 520/520/67
f 517/517/67 518/518/67 521/521/67
f 519/519/2 522/522/2 521/521/2
f 519/519/2 521/521/2 518/518/2
f 520/520/67 524/524/67 523/523/67
f 520/520/67 521/521/67 524/524/67
f 522/522/2 525/525/2 524/524/2
f 522/522/2 524/524/2 521/521/2
f 523/523/68 527/527/68 526/526/68
f 523/523/68 524/524/68 527/527/68
f 525/525/2 528/528/2 527/527/2
f 525/525/2 527/527/2 524/524/2
f 529/529/69 531/531/69 530/530/69
f 529/529/69 532/532/69 531/531/69
f 533/533/2 534/534/2 531/531/2
f 533/533/2 531/531/2 532/532/2
f 530/530/70 536/536/70 535/535/70
f 530/530/70 531/531/70 536/536/70
f 534/534/2 537/537/2 536/536/2
f 534/534/2 536/536/2 531/531/2
f 535/535/71 539/539/71 538/538/71
f 535/535/71 536/536/71 539/539/71
f 537/537/2 540/540/2 539/539/2
f 537/537/2 539/539/2 536/536/2
f 538/538/71 542/542/71 541/541/71
f 538/538/71 539/539/71 542/542/71
f 540/540/2 543/543/2 542/542/2
f 540/540/2 542/542/2 539/539/2
f 541/541/71 545/545/71 544/544/71
f 541/541/71 542/542/71 545/545/71
f 543/543/2 546/546/2 545/545/2
f 543/543/2 545/545/2 542/542/2
f 544/544/71 548/548/71 547/547/71
f 544/544/71 545/545/71 548/548/71
f 546/546/2 549/549/2 548/548/2
f 546/546/2 548/548/2 545/545/2
f 547/547/71 551/551/71 550/550/71
f 547/547/71 548/548/71 551/551/71
f 549/549/2 552/552/2 551/551/2
f 549/549/2 551/551/2 548/548/2
f 550/550/72 554/554/72 553/553/72
f 550/550/72 551/551/72 554/554/72
f 552/552/2 555/555/2 554/554/2
f 552/552/2 554/554/2 551/551/2
f 553/553/72 557/557/72 556/556/72
f 553/553/72 554/554/72 557/557/72
f 555/555/2 558/558/2 557/557/2
f 555/555/2 557/557/2 554/554/2
f 559/559/73 561/561/73 560/560/73
f 559/559/73 562/562/73 561/561/73
f 563/563/2 564/564/2 561/561/2
f 563/563/2 561/561/2 562/562/2
f 560/560/73 566/566/73 565/565/73
f 560/560/73 561/561/73 566/566/73
f 564/564/2 567/567/2 566/566/2
f 564/564/2 566/566/2 561/561/2
f 565/565/73 569/569/73 568/568/73
f 565/565/73 566/566/73 569/569/73
f 567/567/2 570/570/2 569/569/2
f 567/567/2 569/569/2 566/566/2
f 568/568/73 572/572/73 571/571/73
f 568/568/73 569/569/73 572/572/73
f 570/570/2 573/573/2 572/572/2
f 570/570/2 572/572/2 569/569/2
f 571/571/74 575/575/74 574/574/74
f 571/571/74 572/572/74 575/575/74
f 573/573/2 576/576/2 575/575/2
f 573/573/2 575/575/2 572/572/2
f 574/574/74 578/578/74 577/577/74
f 574/574/74 575/575/74 578/578/74
f 576/576/2 579/579/2 578/578/2
f 576/576/2 578/578/2 575/575/2
f 580/580/75 582/582/75 581/581/75
f 580/580/75 583/583/75 582/582/75
f 584/584/2 585/585/2 582/582/2
f 584/584/2 582/582/2 583/583/2
f 586/586/76 588/588/76 587/587/76
f 586/586/76 589/589/76 588/588/76
f 590/590/2 591/591/2 588/588/2
f 590/590/2 588/588/2 589/589/2
f 587/587/76 593/593/76 592/592/76
f 587/587/76 588/588/76 593/593/76
f 591/591/2 594/594/2 593/593/2
f 591/591/2 593/593/2 588/588/2
f 592/592/77 596/596/77 595/595/77
f 592/592/77 593/593/77 596/596/77
f 594/594/2 597/597/2 596/596/2
f 594/594/2 596/596/2 593/593/2
f 595/595/77 599/599/77 598/598/77
f 595/595/77 596/596/77 599/599/77
f 597/597/2 600/600/2 599/599/2
f 597/597/2 599/599/2 596/596/2
f 598/598/77 583/583/77 580/580/77
f 598/598/77 599/599/77 583/583/77
f 600/600/2 584/584/2 583/583/2
f 600/600/2 583/583/2 599/599/2
f 601/601/78 603/603/78 602/602/78
f 601/601/78 604/604/78 603/603/78
f 605/605/2 606/606/2 603/603/2
f 605/605/2 603/603/2 604/604/2
f 602/602/78 608/608/78 607/607/78
f 602/602/78 603/603/78 608/608/78
f 606/606/2 609/609/2 608/608/2
f 606/606/2 608/608/2 603/603/2
f 607/607/78 611/611/78 610/610/78
f 607/607/78 608/608/78 611/611/78
f 609/609/2 612/612/2 611/611/2
f 609/609/2 611/611/2 608/608/2
f 610/610/78 614/614/78 613/613/78
f 610/610/78 611/611/78 614/614/78
f 612/612/2 615/615/2 614/614/2
f 612/612/2 614/614/2 611/611/2
f 613/613/78 617/617/78 616/616/78
f 613/613/78 614/614/78 617/617/78
f 615/615/2 618/618/2 617/617/2
f 615/615/2 617/617/2 614/614/2
f 616/616/79 620/620/79 619/619/79
f 616/616/79 617/617/79 620/620/79
f 618/618/2 621/621/2 620/620/2
f 618/618/2 620/620/2 617/617/2
f 619/619/79 623/623/79 622/622/79
f 619/619/79 620/620/79 623/623/79
f 621/621/2 624/624/2 623/623/2
f 621/621/2 623/623/2 620/620/2
f 625/625/80 627/627/80 626/626/80
f 625/625/80 628/628/80 627/627/80
f 629/629/2 630/630/2 627/627/2
f 629/629/2 627/627/2 628/628/2
f 626/626/80 632/632/80 631/631/80
f 626/626/80 627/627/80 632/632/80
f 630/630/2 633/633/2 632/632/2
f 630/630/2 632/632/2 627/627/2
f 631/631/81 635/635/81 634/634/81
f 631/631/81 632/632/81 635/635/81
f 633/633/2 636/636/2 635/635/2
f 633/633/2 635/635/2 632/632/2
f 637/637/82 639/639/82 638/638/82
f 637/637/82 640/640/82 639/639/82
f 641/641/2 642/642/2 639/639/2
f 641/641/2 639/639/2 640/640/2
f 638/638/83 644/644/83 643/643/83
f 638/638/83 639/639/83 644/644/83
f 642/642/2 645/645/2 644/644/2
f 642/642/2 644/644/2 639/639/2
f 643/643/83 647/647/83 646/646/83
f 643/643/83 644/644/83 647/647/83
f 645/645/2 648/648/2 647/647/2
f 645/645/2 647/647/2 644/644/2
f 646/646/84 650/650/84 649/649/84
f 646/646/84 647/647/84 650/650/84
f 648/648/2 651/651/2 650/650/2
f 648/648/2 650/650/2 647/647/2
f 649/649/84 653/653/84 652/652/84
f 649/649/84 650/650/84 653/653/84
f 651/651/2 654/654/2 653/653/2
f 651/651/2 653/653/2 650/650/2
f 652/652/85 656/656/85 655/655/85
f 652/652/85 653/653/85 656/656/85
f 654/654/2 657/657/2 656/656/2
f 654/654/2 656/656/2 653/653/2
f 655/655/85 659/659/85 658/658/85
f 655/655/85 656/656/85 659/659/85
f 657/657/2 660/660/2 659/659/2
f 657/657/2 659/659/2 656/656/2
f 658/658/85 662/662/85 661/661/85
f 658/658/85 659/659/85 662/662/85
f 660/660/2 663/663/2 662/662/2
f 660/660/2 662/662/2 659/659/2
f 661/661/85 665/665/85 664/664/85
f 661/661/85 662/662/85 665/665/85
f 663/663/2 666/666/2 665/665/2
f 663/663/2 665/665/2 662/662/2
f 667/667/86 669/669/86 668/668/86
f 667/667/86 670/670/86 669/669/86
f 671/671/2 672/672/2 669/669/2
f 671/671/2 669/669/2 670/670/2
f 673/673/87 675/675/87 674/674/87
f 673/673/87 676/676/87 675/675/87
f 677/677/2 678/678/2 675/675/2
f 677/677/2 675/675/2 676/676/2
f 674/674/88 680/680/88 679/679/88
f 674/674/88 675/675/88 680/680/88
f 678/678/2 681/681/2 680/680/2
f 678/678/2 680/680/2 675/675/2
f 679/679/88 683/683/88 682/682/88
f 679/679/88 680/680/88 683/683/88
f 681/681/2 684/684/2 683/683/2
f 681/681/2 683/683/2 680/680/2
f 682/682/88 670/670/88 667/667/88
f 682/682/88 683/683/88 670/670/88
f 684/684/2 671/671/2 670/670/2
f 684/684/2 670/670/2 683/683/2
f 685/685/89 687/687/89 686/686/89
f 685/685/89 688/688/89 687/687/89
f 689/689/2 690/690/2 687/687/2
f 689/689/2 687/687/2 688/688/2
f 686/686/89 692/692/89 691/691/89
f 686/686/89 687/687/89 692/692/89
f 690/690/2 693/693/2 692/692/2
f 690/690/2 692/692/2 687/687/2
f 691/691/90 695/695/90 694/694/90
f 691/691/90 692/692/90 695/695/90
f 693/693/2 696/696/2 695/695/2
f 693/693/2 695/695/2 692/692/2
f 694/694/90 698/698/90 697/697/90
f 694/694/90 695/695/90 698/698/90
f 696/696/2 699/699/2 698/698/2
f 696/696/2 698/698/2 695/695/2
f 697/697/91 701/701/91 700/700/91
f 697/697/91 698/698/91 701/701/91
f 699/699/2 702/702/2 701/701/2
f 699/699/2 701/701/2 698/698/2
f 703/703/92 705/705/92 704/704/92
f 703/703/92 706/706/92 705/705/92
f 707/707/2 708/708/2 705/705/2
f 707/707/2 705/705/2 706/706/2
f 704/704/92 710/710/92 709/709/92
f 704/704/92 705/705/92 710/710/92
f 708/708/2 711/711/2 710/710/2
f 708/708/2 710/710/2 705/705/2
f 709/709/92 713/713/92 712/712/92
f 709/709/92 710/710/92 713/713/92
f 711/711/2 714/714/2 713/713/2
f 711/711/2 713/713/2 710/710/2
f 712/712/93 716/716/93 715/715/93
f 712/712/93 713/713/93 716/716/93
f 714/714/2 717/717/2 716/716/2
f 714/714/2 716/716/2 713/713/2
f 715/715/94 719/719/94 718/718/94
f 715/715/94 716/716/94 719/719/94
f 717/717/2 720/720/2 719/719/2
f 717/717/2 719/719/2 716/716/2
f 718/718/94 722/722/94 721/721/94
f 718/718/94 719/719/94 722/722/94
f 720/720/2 723/723/2 722/722/2
f 720/720/2 722/722/2 719/719/2
f 724/724/95 726/726/95 725/725/95
f 724/724/95 727/727/95 726/726/95
f 728/728/2 729/729/2 726/726/2
f 728/728/2 726/726/2 727/727/2
f 725/725/95 731/731/95 730/730/95
f 725/725/95 726/726/95 731/731/95
f 729/729/2 732/732/2 731/731/2
f 729/729/2 731/731/2 726/726/2
f 733/733/96 735/735/96 734/734/96
f 733/733/96 736/736/96 735/735/96
f 737/737/2 738/738/2 735/735/2
f 737/737/2 735/735/2 736/736/2
f 734/734/96 706/706/96 703/703/96
f 734/734/96 735/735/96 706/706/96
f 738/738/2 707/707/2 706/706/2
f 738/738/2 706/706/2 735/735/2
f 739/739/97 741/741/97 740/740/97
f 739/739/97 742/742/97 741/741/97
f 743/743/2 744/744/2 741/741/2
f 743/743/2 741/741/2 742/742/2
f 740/740/97 746/746/97 745/745/97
f 740/740/97 741/741/97 746/746/97
f 744/744/2 747/747/2 746/746/2
f 744/744/2 746/746/2 741/741/2
f 745/745/98 749/749/98 748/748/98
f 745/745/98 746/746/98 749/749/98
f 747/747/2 750/750/2 749/749/2
f 747/747/2 749/749/2 746/746/2
f 748/748/98 752/752/98 751/751/98
f 748/748/98 749/749/98 752/752/98
f 750/750/2 753/753/2 752/752/2
f 750/750/2 752/752/2 749/749/2
f 751/751/98 755/755/98 754/754/98
f 751/751/98 752/752/98 755/755/98
f 753/753/2 756/756/2 755/755/2
f 753/753/2 755/755/2 752/752/2
f 754/754/98 758/758/98 757/757/98
f 754/754/98 755/755/98 758/758/98
f 756/756/2 759/759/2 758/758/2
f 756/756/2 758/758/2 755/755/2
f 757/757/98 761/761/98 760/760/98
f 757/757/98 758/758/98 761/761/98
f 759/759/2 762/762/2 761/761/2
f 759/759/2 761/761/2 758/758/2
f 760/760/99 764/764/99 763/763/99
f 760/760/99 761/761/99 764/764/99
f 762/762/2 765/765/2 764/764/2
f 762/762/2 764/764/2 761/761/2
f 766/766/100 768/768/100 767/767/100
f 766/766/100 769/769/100 768/768/100
f 770/770/2 771/771/2 768/768/2
f 770/770/2 768/768/2 769/769/2
f 772/772/101 774/774/101 773/773/101
f 772/772/101 775/775/101 774/774/101
f 776/776/2 777/777/2 774/774/2
f 776/776/2 774/774/2 775/775/2
f 773/773/101 779/779/101 778/778/101
f 773/773/101 774/774/101 779/779/101
f 777/777/2 780/780/2 779/779/2
f 777/777/2 779/779/2 774/774/2
f 778/778/102 782/782/102 781/781/102
f 778/778/102 779/779/102 782/782/102
f 780/780/2 783/783/2 782/782/2
f 780/780/2 782/782/2 779/779/2
f 781/781/102 785/785/102 784/784/102
f 781/781/102 782/782/102 785/785/102
f 783/783/2 786/786/2 785/785/2
f 783/783/2 785/785/2 782/782/2
f 784/784/102 788/788/102 787/787/102
f 784/784/102 785/785/102 788/788/102
f 786/786/2 789/789/2 788/788/2
f 786/786/2 788/788/2 785/785/2
f 787/787/102 769/769/102 766/766/102
f 787/787/102 788/788/102 769/769/102
f 789/789/2 770/770/2 769/769/2
f 789/789/2 769/769/2 788/788/2
f 790/790/103 792/792/103 791/791/103
f 790/790/103 793/793/103 792/792/103
f 794/794/2 795/795/2 792/792/2
f 794/794/2 792/792/2 793/793/2
f 791/791/104 797/797/104 796/796/104
f 791/791/104 792/792/104 797/797/104
f 795/795/2 798/798/2 797/797/2
f 795/795/2 797/797/2 792/792/2
f 796/796/104 800/800/104 799/799/104
f 796/796/104 797/797/104 800/800/104
f 798/798/2 801/801/2 800/800/2
f 798/798/2 800/800/2 797/797/2
f 799/799/104 803/803/104 802/802/104
f 799/799/104 800/800/104 803/803/104
f 801/801/2 804/804/2 803/803/2
f 801/801/2 803/803/2 800/800/2
f 802/802/105 806/806/105 805/805/105
f 802/802/105 803/803/105 806/806/105
f 804/804/2 807/807/2 806/806/2
f 804/804/2 806/806/2 803/803/2
f 808/808/106 810/810/106 809/809/106
f 808/808/106 811/811/106 810/810/106
f 812/812/2 813/813/2 810/810/2
f 812/812/2 810/810/2 811/811/2
f 809/809/106 815/815/106 814/814/106
f 809/809/106 810/810/106 815/815/106
f 813/813/2 816/816/2 815/815/2
f 813/813/2 815/815/2 810/810/2
f 814/814/106 818/818/106 817/817/106
f 814/814/106 815/815/106 818/818/106
f 816/816/2 819/819/2 818/818/2
f 816/816/2 818/818/2 815/815/2
f 817/817/107 821/821/107 820/820/107
f 817/817/107 818/818/107 821/821/107
f 819/819/2 822/822/2 821/821/2
f 819/819/2 821/821/2 818/818/2
f 820/820/107 824/824/107 823/823/107
f 820/820/107 821/821/107 824/824/107
f 822/822/2 825/825/2 824/824/2
f 822/822/2 824/824/2 821/821/2
f 823/823/107 827/827/107 826/826/107
f 823/823/107 824/824/107 827/827/107
f 825/825/2 828/828/2 827/827/2
f 825/825/2 827/827/2 824/824/2
f 826/826/108 830/830/108 829/829/108
f 826/826/108 827/827/108 830/830/108
f 828/828/2 831/831/2 830/830/2
f 828/828/2 830/830/2 827/827/2
f 829/829/108 833/833/108 832/832/108
f 829/829/108 830/830/108 833/833/108
f 831/831/2 834/834/2 833/833/2
f 831/831/2 833/833/2 830/830/2
f 832/832/109 836/836/109 835/835/109
f 832/832/109 833/833/109 836/836/109
f 834/834/2 837/837/2 836/836/2
f 834/834/2 836/836/2 833/833/2
f 835/835/109 839/839/109 838/838/109
f 835/835/109 836/836/109 839/839/109
f 837/837/2 840/840/2 839/839/2
f 837/837/2 839/839/2 836/836/2
f 841/841/110 843/843/110 842/842/110
f 841/841/110 844/844/110 843/843/110
f 845/845/2 846/846/2 843/843/2
f 845/845/2 843/843/2 844/844/2
f 842/842/110 848/848/110 847/847/110
f 842/842/110 843/843/110 848/848/110
f 846/846/2 849/849/2 848/848/2
f 846/846/2 848/848/2 843/843/2
f 850/850/111 852/852/111 851/851/111
f 850/850/111 853/853/111 852/852/111
f 854/854/2 855/855/2 852/852/2
f 854/854/2 852/852/2 853/853/2
f 851/851/111 857/857/111 856/856/111
f 851/851/111 852/852/111 857/857/111
f 855/855/2 858/858/2 857/857/2
f 855/855/2 857/857/2 852/852/2
f 856/856/111 844/844/111 841/841/111
f 856/856/111 857/857/111 844/844/111
f 858/858/2 845/845/2 844/844/2
f 858/858/2 844/844/2 857/857/2
