# Unreal legacy OBJ adapter: canonical vertices are UE cm; this file is written with Y reflected and triangle winding reversed. One object, no g groups, so the importer creates exactly one material slot.
# OldCityFoundationV2 foundations (plinth + stepped footing); generator 463404ba754c804f514fe655944ece4eb51a92e1273fec326ad5c2ebfbb18f24
# AUTHORED detail in the style of Old City stone foundations, not survey
o SM_OldCityFoundationV2_PrecinctMainOnly_N001_N001
s off
v -36645.19 30686.30 1049.89
v -36624.51 30729.48 1056.73
v -36624.51 30729.48 1106.20
v -36645.19 30686.30 1106.20
v -36634.51 30690.07 1106.20
v -36614.09 30732.72 1106.20
v -36540.32 30905.34 1081.20
v -36540.32 30905.34 1106.20
v -36530.93 30906.42 1106.20
v -35247.45 30018.41 1081.20
v -35266.61 30027.57 1081.13
v -35266.61 30027.57 1106.20
v -35247.45 30018.41 1106.20
v -35249.34 30028.18 1106.20
v -35268.34 30037.26 1106.20
v -36185.46 30466.62 1042.75
v -36185.46 30466.62 1106.20
v -36178.92 30472.37 1106.20
v -36624.51 30676.42 1050.36
v -36624.51 30676.42 1106.20
v -36614.03 30680.28 1106.20
v -32164.26 36536.12 2031.94
v -31982.86 36603.43 2047.27
v -31982.86 36603.43 2072.27
v -32164.26 36536.12 2072.27
v -32153.98 36531.40 2072.27
v -31976.87 36597.12 2072.27
v -31395.55 36407.66 2047.27
v -31237.91 35982.84 2002.60
v -31237.91 35982.84 2072.27
v -31395.55 36407.66 2072.27
v -31402.84 36404.30 2072.27
v -31248.19 35987.56 2072.27
v -31624.51 35839.37 1969.92
v -31624.51 35839.37 2072.27
v -31625.65 35847.49 2072.27
v -31871.67 35747.66 1949.02
v -31871.67 35747.66 2072.27
v -31866.95 35757.94 2072.27
v -31812.08 35754.84 1952.27
v -31879.92 35729.66 1946.53
v -31879.92 35729.66 1997.27
v -31812.08 35754.84 1997.27
v -31806.52 35771.83 1997.27
v -31871.67 35747.66 1997.27
v -31900.16 35784.20 1952.27
v -31900.16 35784.20 1997.27
v -31891.25 35800.44 1997.27
v -31806.52 35771.83 1952.27
v -31891.25 35800.44 1952.27
v -31541.39 34792.13 1841.48
v -31430.30 34833.35 1856.96
v -31430.30 34833.35 1907.13
v -31541.39 34792.13 1907.13
v -31531.11 34787.41 1907.13
v -31422.93 34827.55 1907.13
v -31249.73 34900.36 1882.13
v -31249.73 34900.36 1907.13
v -31247.10 34892.81 1907.13
v -30858.28 34704.64 1882.13
v -30803.20 34556.21 1862.79
v -30803.20 34556.21 1907.13
v -30858.28 34704.64 1907.13
v -30866.72 34704.38 1907.13
v -30813.48 34560.93 1907.13
v -31058.44 34461.49 1827.21
v -31058.44 34461.49 1907.13
v -31062.03 34468.70 1907.13
v -31375.10 34343.99 1783.08
v -31375.10 34343.99 1907.13
v -31370.38 34354.27 1907.13
v -31328.90 34346.20 1787.13
v -31383.35 34325.99 1779.54
v -31383.35 34325.99 1832.13
v -31328.90 34346.20 1832.13
v -31323.03 34363.31 1832.13
v -31375.10 34343.99 1832.13
v -31404.96 34384.23 1787.13
v -31404.96 34384.23 1832.13
v -31395.51 34399.00 1832.13
v -31323.03 34363.31 1787.13
v -31395.51 34399.00 1787.13
v -31681.23 31065.42 1353.26
v -31624.51 31075.31 1356.32
v -31624.51 31075.31 1417.91
v -31681.23 31065.42 1417.91
v -31671.97 31058.91 1417.91
v -31616.48 31068.59 1417.91
v -31235.08 31143.26 1392.91
v -31235.08 31143.26 1417.91
v -31235.42 31135.08 1417.91
v -30877.11 30785.28 1392.91
v -30875.57 30776.51 1392.33
v -30875.57 30776.51 1417.91
v -30877.11 30785.28 1417.91
v -30885.26 30785.46 1417.91
v -30883.76 30776.89 1417.91
v -30829.35 30511.59 1374.84
v -30829.35 30511.59 1417.91
v -30838.61 30518.10 1417.91
v -31206.25 30445.83 1339.42
v -31206.25 30445.83 1417.91
v -31207.40 30453.75 1417.91
v -31562.28 30383.71 1305.97
v -31562.28 30383.71 1417.91
v -31555.77 30392.97 1417.91
v -31624.51 30740.41 1329.53
v -31624.51 30740.41 1417.91
v -31616.57 30741.41 1417.91
v -36790.23 30546.67 1021.54
v -36624.51 30495.72 1028.68
v -36624.51 30495.72 1053.88
v -36790.23 30546.67 1053.88
v -36784.93 30536.67 1053.88
v -36621.83 30486.53 1053.88
v -36559.60 30475.76 1028.88
v -36559.60 30475.76 1053.88
v -36557.94 30466.88 1053.88
v -35891.27 30013.32 1028.88
v -35988.35 29697.53 970.59
v -35988.35 29697.53 1053.88
v -35891.27 30013.32 1053.88
v -35899.26 30014.55 1053.88
v -35993.65 29707.53 1053.88
v -36430.37 29833.42 956.97
v -36430.37 29833.42 1053.88
v -36428.71 29841.28 1053.88
v -36624.51 29893.11 950.99
v -36624.51 29893.11 1053.88
v -36619.79 29900.03 1053.88
v -36727.36 29924.73 947.82
v -36727.36 29924.73 1053.88
v -36721.01 29931.15 1053.88
v -36959.50 29996.09 940.67
v -36959.50 29996.09 1053.88
v -36949.50 30001.39 1053.88
v -36949.82 30027.57 946.48
v -36949.82 30027.57 1053.88
v -36940.09 30031.99 1053.88
v -36873.33 30276.38 982.45
v -36873.33 30276.38 1053.88
v -36865.72 30273.89 1053.88
v -30097.49 38605.48 2362.93
v -30076.67 38479.72 2348.67
v -30076.67 38479.72 2387.93
v -30097.49 38605.48 2387.93
v -30105.12 38602.60 2387.93
v -30084.56 38478.42 2387.93
v -29971.72 37845.79 2276.80
v -29971.72 37845.79 2387.93
v -29980.92 37852.38 2387.93
v -30497.56 37758.73 2245.32
v -30497.56 37758.73 2387.93
v -30490.97 37767.93 2387.93
v -30624.80 38527.28 2332.45
v -30624.80 38527.28 2387.93
v -30616.63 38526.91 2387.93
v -30649.22 38674.78 2362.93
v -30649.22 38674.78 2387.93
v -30640.75 38672.57 2387.93
v -30091.42 37811.79 2267.93
v -30509.08 37742.63 2242.93
v -30509.08 37742.63 2312.93
v -30091.42 37811.79 2312.93
v -30100.74 37824.43 2312.93
v -30497.56 37758.73 2312.93
v -30545.60 37963.18 2267.93
v -30545.60 37963.18 2312.93
v -30533.29 37974.57 2312.93
v -30100.74 37824.43 2267.93
v -30533.29 37974.57 2267.93
v -35109.05 31894.18 1257.11
v -34811.34 31840.74 1262.61
v -34811.34 31840.74 1318.34
v -35109.05 31894.18 1318.34
v -35102.59 31884.89 1318.34
v -34808.88 31832.17 1318.34
v -34343.16 31756.71 1293.34
v -34343.16 31756.71 1318.34
v -34346.99 31749.27 1318.34
v -33976.24 31463.93 1293.34
v -34006.04 31297.94 1278.87
v -34006.04 31297.94 1318.34
v -33976.24 31463.93 1318.34
v -33983.92 31466.44 1318.34
v -34012.50 31307.23 1318.34
v -34124.51 31319.21 1275.83
v -34124.51 31319.21 1318.34
v -34129.38 31328.21 1318.34
v -35148.99 31503.09 1208.58
v -35148.99 31503.09 1318.34
v -35140.10 31509.62 1318.34
v -35178.31 31508.35 1208.04
v -35178.31 31508.35 1318.34
v -35169.02 31514.81 1318.34
v -34510.55 30345.16 1167.02
v -34478.90 30381.96 1172.50
v -34478.90 30381.96 1249.77
v -34510.55 30345.16 1249.77
v -34499.27 30346.01 1249.77
v -34468.73 30381.52 1249.77
v -34211.89 30692.38 1218.70
v -34211.89 30692.38 1249.77
v -34211.04 30681.10 1249.77
v -34124.51 30617.23 1219.67
v -34124.51 30617.23 1249.77
v -34125.69 30607.68 1249.77
v -33807.52 30344.56 1210.54
v -33807.52 30344.56 1249.77
v -33816.03 30341.32 1249.77
v -33687.27 30241.12 1207.07
v -33687.27 30241.12 1249.77
v -33698.55 30240.27 1249.77
v -33870.96 30027.57 1182.64
v -33870.96 30027.57 1249.77
v -33875.82 30034.18 1249.77
v -33985.93 29893.90 1162.00
v -33985.93 29893.90 1249.77
v -33986.78 29905.18 1249.77
v -34021.07 29924.13 1164.22
v -34021.07 29924.13 1249.77
v -34021.11 29934.71 1249.77
v -34124.51 30013.10 1170.76
v -34124.51 30013.10 1249.77
v -34122.16 30021.63 1249.77
v -34132.29 30019.79 1170.63
v -34132.29 30019.79 1249.77
v -34129.75 30028.16 1249.77
v -34141.33 30027.57 1171.15
v -34141.33 30027.57 1249.77
v -34138.59 30035.76 1249.77
v -39981.99 32180.10 873.21
v -39655.00 32430.76 958.66
v -39655.00 32430.76 989.64
v -39981.99 32180.10 989.64
v -39970.77 32178.62 989.64
v -39656.48 32419.54 989.64
v -39592.46 32349.17 964.64
v -39592.46 32349.17 989.64
v -39595.49 32339.98 989.64
v -39314.28 31881.76 964.64
v -39590.79 31669.79 894.96
v -39590.79 31669.79 989.64
v -39314.28 31881.76 989.64
v -39323.54 31884.74 989.64
v -39589.31 31681.01 989.64
v -39760.68 31891.41 894.37
v -39760.68 31891.41 989.64
v -39754.97 31897.11 989.64
v -40001.61 32182.70 869.49
v -40001.04 32183.13 869.64
v -40001.04 32183.13 914.64
v -40001.61 32182.70 914.64
v -39981.99 32180.10 914.64
v -39981.45 32180.51 914.64
v -40000.05 32180.65 869.64
v -40000.05 32180.65 914.64
v -39980.49 32178.15 914.64
v -39981.45 32180.51 869.64
v -39980.49 32178.15 869.64
v -30382.29 33188.85 1677.68
v -30048.49 33199.37 1706.07
v -30048.49 33199.37 1731.07
v -30382.29 33188.85 1731.07
v -30374.04 33181.11 1731.07
v -30046.44 33191.43 1731.07
v -29511.74 32930.99 1706.07
v -29511.21 32914.26 1703.44
v -29511.21 32914.26 1731.07
v -29511.74 32930.99 1731.07
v -29519.78 32932.13 1731.07
v -29519.27 32915.95 1731.07
v -29505.41 32730.24 1674.46
v -29505.41 32730.24 1731.07
v -29513.66 32737.98 1731.07
v -30366.99 32703.09 1601.19
v -30366.99 32703.09 1731.07
v -30359.25 32711.34 1731.07
v -30224.41 32693.58 1611.07
v -30380.55 32688.66 1597.79
v -30380.55 32688.66 1656.07
v -30224.41 32693.58 1656.07
v -30215.77 32707.86 1656.07
v -30366.99 32703.09 1656.07
v -30383.20 32772.97 1611.07
v -30383.20 32772.97 1656.07
v -30369.50 32782.81 1656.07
v -30215.77 32707.86 1611.07
v -30369.50 32782.81 1611.07
v -30542.29 34264.95 1837.06
v -30316.06 34348.90 1868.59
v -30316.06 34348.90 1893.59
v -30542.29 34264.95 1893.59
v -30532.01 34260.23 1893.59
v -30309.64 34342.75 1893.59
v -29406.27 33894.01 1868.59
v -29325.21 33675.56 1840.12
v -29325.21 33675.56 1893.59
v -29406.27 33894.01 1893.59
v -29415.22 33895.14 1893.59
v -29335.49 33680.28 1893.59
v -30016.12 33419.17 1743.83
v -30016.12 33419.17 1893.59
v -30014.59 33428.27 1893.59
v -30202.73 33349.92 1717.82
v -30202.73 33349.92 1893.59
v -30198.01 33360.20 1893.59
v -30353.71 33756.76 1770.84
v -30353.71 33756.76 1893.59
v -30346.51 33760.37 1893.59
v -30364.97 33787.11 1774.79
v -30364.97 33787.11 1893.59
v -30357.59 33790.23 1893.59
v -29785.44 33489.84 1773.59
v -30005.22 33408.28 1742.96
v -30005.22 33408.28 1818.59
v -29785.44 33489.84 1818.59
v -29789.54 33503.25 1818.59
v -30002.95 33424.05 1818.59
v -30108.30 33370.02 1728.59
v -30108.30 33370.02 1818.59
v -30103.03 33386.91 1818.59
v -30210.98 33331.92 1714.28
v -30210.98 33331.92 1773.59
v -30108.30 33370.02 1773.59
v -30103.03 33386.91 1773.59
v -30202.73 33349.92 1773.59
v -30251.74 33441.74 1728.59
v -30251.74 33441.74 1773.59
v -30242.34 33456.67 1773.59
v -30375.86 33776.22 1772.18
v -30375.86 33776.22 1818.59
v -30251.74 33441.74 1818.59
v -30242.34 33456.67 1818.59
v -30363.01 33781.83 1818.59
v -30377.45 33780.50 1772.73
v -30377.45 33780.50 1818.59
v -30364.55 33785.99 1818.59
v -30379.89 33787.07 1773.59
v -30379.89 33787.07 1818.59
v -30366.92 33792.37 1818.59
v -29789.54 33503.25 1773.59
v -30366.92 33792.37 1773.59
v -34275.76 35360.32 1806.38
v -34124.51 35295.12 1804.61
v -34124.51 35295.12 1832.49
v -34275.76 35360.32 1832.49
v -34271.58 35349.81 1832.49
v -34124.78 35286.52 1832.49
v -33937.56 35214.52 1802.41
v -33937.56 35214.52 1832.49
v -33943.33 35208.30 1832.49
v -33776.21 35144.96 1800.52
v -33776.21 35144.96 1832.49
v -33786.72 35140.78 1832.49
v -33826.81 35027.57 1784.41
v -33826.81 35027.57 1832.49
v -33835.36 35027.95 1832.49
v -33916.49 34819.55 1747.54
v -33916.49 34819.55 1832.49
v -33921.56 34828.00 1832.49
v -33939.31 34766.62 1738.16
v -33939.31 34766.62 1832.49
v -33943.49 34777.13 1832.49
v -34124.51 34846.46 1743.52
v -34124.51 34846.46 1832.49
v -34123.25 34854.62 1832.49
v -34251.07 34901.02 1747.19
v -34251.07 34901.02 1832.49
v -34246.08 34907.58 1832.49
v -34438.87 34981.98 1752.63
v -34438.87 34981.98 1832.49
v -34428.36 34986.16 1832.49
v -34419.22 35027.57 1760.71
v -34419.22 35027.57 1832.49
v -34409.47 35029.98 1832.49
v -34330.44 35233.49 1788.97
v -34330.44 35233.49 1832.49
v -34324.14 35227.90 1832.49
v -38818.43 36343.81 1690.04
v -38518.33 36000.48 1674.58
v -38518.33 36000.48 1715.13
v -38818.43 36343.81 1715.13
v -38819.19 36332.52 1715.13
v -38529.62 36001.24 1715.13
v -38921.89 35647.72 1630.22
v -38921.89 35647.72 1715.13
v -38921.13 35659.01 1715.13
v -39124.51 35879.53 1640.66
v -39124.51 35879.53 1715.13
v -39116.65 35882.69 1715.13
v -39222.00 35991.06 1637.88
v -39222.00 35991.06 1715.13
v -39210.71 35990.30 1715.13
v -39124.51 36076.27 1656.40
v -39124.51 36076.27 1715.13
v -39116.14 36072.96 1715.13
v -30311.62 37579.33 2231.23
v -30053.84 37622.01 2246.66
v -30053.84 37622.01 2271.66
v -30311.62 37579.33 2271.66
v -30302.42 37572.74 2271.66
v -30054.65 37613.77 2271.66
v -29892.15 37568.11 2246.66
v -29885.44 37527.57 2242.06
v -29885.44 37527.57 2271.66
v -29892.15 37568.11 2271.66
v -29899.17 37561.54 2271.66
v -29892.69 37522.35 2271.66
v -29827.07 37175.04 2202.09
v -29827.07 37175.04 2271.66
v -29836.27 37181.63 2271.66
v -30233.55 37107.75 2177.76
v -30233.55 37107.75 2271.66
v -30226.96 37116.95 2271.66
v -30303.05 37527.57 2225.36
v -30303.05 37527.57 2271.66
v -30294.14 37522.71 2271.66
v -34980.05 38796.56 2257.85
v -34678.70 38851.79 2293.01
v -34678.70 38851.79 2318.01
v -34980.05 38796.56 2318.01
v -34970.74 38790.13 2318.01
v -34674.99 38844.34 2318.01
v -34071.23 38619.46 2293.01
v -34044.56 38473.93 2264.97
v -34044.56 38473.93 2318.01
v -34071.23 38619.46 2318.01
v -34079.66 38621.10 2318.01
v -34053.87 38480.36 2318.01
v -34124.51 38459.28 2258.84
v -34124.51 38459.28 2318.01
v -34132.34 38465.98 2318.01
v -34892.43 38318.53 2169.26
v -34892.43 38318.53 2318.01
v -34886.00 38327.84 2318.01
v -34621.57 38353.94 2198.01
v -34899.88 38302.93 2165.54
v -34899.88 38302.93 2243.01
v -34621.57 38353.94 2243.01
v -34619.20 38368.61 2243.01
v -34888.75 38319.20 2243.01
v -34903.67 38302.23 2165.10
v -34903.67 38302.23 2243.01
v -34892.43 38318.53 2243.01
v -34904.68 38307.73 2166.12
v -34904.68 38307.73 2243.01
v -34893.38 38323.73 2243.01
v -34936.22 38479.80 2198.01
v -34936.22 38479.80 2243.01
v -34923.20 38486.42 2243.01
v -34619.20 38368.61 2198.01
v -34923.20 38486.42 2198.01
v -35396.38 33913.22 1543.33
v -35282.05 33870.03 1540.99
v -35282.05 33870.03 1568.33
v -35396.38 33913.22 1568.33
v -35400.22 33906.12 1568.33
v -35288.86 33864.05 1568.33
v -35147.23 33819.10 1538.24
v -35147.23 33819.10 1568.33
v -35157.54 33814.44 1568.33
v -35220.94 33623.99 1504.07
v -35220.94 33623.99 1568.33
v -35228.11 33627.64 1568.33
v -35280.11 33467.36 1476.64
v -35280.11 33467.36 1568.33
v -35284.77 33477.67 1568.33
v -35573.78 33578.30 1482.65
v -35573.78 33578.30 1568.33
v -35570.81 33585.73 1568.33
v -35856.36 33685.05 1488.42
v -35856.36 33685.05 1568.33
v -35846.05 33689.71 1568.33
v -35737.90 33998.60 1543.33
v -35737.90 33998.60 1568.33
v -35732.63 33989.92 1568.33
v -33838.49 31558.18 1306.39
v -33445.32 31422.28 1311.24
v -33445.32 31422.28 1345.37
v -33838.49 31558.18 1345.37
v -33833.54 31548.01 1345.37
v -33455.49 31417.33 1345.37
v -33581.22 31029.11 1274.35
v -33581.22 31029.11 1345.37
v -33586.17 31039.28 1345.37
v -33974.39 31165.01 1269.50
v -33974.39 31165.01 1345.37
v -33964.22 31169.96 1345.37
v -36705.12 37605.89 1884.94
v -36686.68 37527.57 1870.01
v -36686.68 37527.57 1909.94
v -36705.12 37605.89 1909.94
v -36712.27 37601.38 1909.94
v -36694.24 37524.76 1909.94
v -36674.83 37477.25 1866.46
v -36674.83 37477.25 1909.94
v -36682.65 37475.54 1909.94
v -36624.51 37263.53 1851.38
v -36624.51 37263.53 1909.94
v -36633.42 37266.46 1909.94
v -36591.79 37124.53 1842.87
v -36591.79 37124.53 1909.94
v -36601.41 37130.48 1909.94
v -36624.51 37116.82 1839.64
v -36624.51 37116.82 1909.94
v -36632.88 37123.07 1909.94
v -36996.72 37029.20 1817.74
v -36996.72 37029.20 1909.94
v -36990.77 37038.82 1909.94
v -37020.77 37131.32 1824.95
v -37020.77 37131.32 1909.94
v -37014.29 37138.72 1909.94
v -37114.06 37527.57 1852.92
v -37114.06 37527.57 1909.94
v -37105.55 37526.35 1909.94
v -37153.61 37695.59 1884.94
v -37153.61 37695.59 1909.94
v -37144.25 37690.72 1909.94
v -36149.51 32045.57 1233.66
v -36316.90 31501.11 1161.63
v -36316.90 31501.11 1258.66
v -36149.51 32045.57 1258.66
v -36158.78 32042.64 1258.66
v -36322.20 31511.11 1258.66
v -36624.51 31595.69 1160.67
v -36624.51 31595.69 1258.66
v -36617.26 31601.83 1258.66
v -36691.60 31616.31 1157.78
v -36691.60 31616.31 1258.66
v -36681.60 31621.61 1258.66
v -36624.51 31834.50 1189.33
v -36624.51 31834.50 1258.66
v -36616.11 31834.62 1258.66
v -36521.50 32169.56 1233.66
v -36521.50 32169.56 1258.66
v -36515.54 32161.72 1258.66
v -34359.15 31205.53 1247.97
v -34124.51 31124.43 1260.25
v -34124.51 31124.43 1295.05
v -34359.15 31205.53 1295.05
v -34354.20 31195.36 1295.05
v -34127.29 31116.92 1295.05
v -33899.82 31046.76 1263.02
v -33899.82 31046.76 1295.05
v -33909.99 31041.81 1295.05
v -34027.89 30676.27 1228.26
v -34027.89 30676.27 1295.05
v -34032.84 30686.44 1295.05
v -34124.51 30709.67 1227.07
v -34124.51 30709.67 1295.05
v -34126.28 30718.74 1295.05
v -34487.21 30835.05 1208.08
v -34487.21 30835.05 1295.05
v -34477.04 30840.00 1295.05
v -36163.87 35386.58 1734.01
v -35934.02 35622.40 1771.50
v -35934.02 35622.40 1796.50
v -36163.87 35386.58 1796.50
v -36152.56 35386.72 1796.50
v -35932.41 35612.59 1796.50
v -35825.83 35586.34 1771.50
v -35533.41 35301.31 1748.99
v -35533.41 35301.31 1796.50
v -35825.83 35586.34 1796.50
v -35827.99 35577.27 1796.50
v -35544.72 35301.17 1796.50
v -35797.95 35029.91 1705.84
v -35797.95 35029.91 1796.50
v -35798.09 35041.22 1796.50
v -39476.18 36553.27 1652.36
v -39181.04 36811.25 1708.41
v -39181.04 36811.25 1739.94
v -39476.18 36553.27 1739.94
v -39464.89 36552.51 1739.94
v -39181.80 36799.96 1739.94
v -39124.51 36746.58 1710.02
v -39124.51 36746.58 1739.94
v -39127.13 36737.42 1739.94
v -38861.19 36445.33 1696.45
v -38861.19 36445.33 1739.94
v -38872.48 36446.09 1739.94
v -39124.51 36215.17 1667.51
v -39124.51 36215.17 1739.94
v -39125.06 36225.32 1739.94
v -39156.34 36187.35 1661.46
v -39156.34 36187.35 1739.94
v -39155.58 36198.64 1739.94
v -30096.72 36160.93 2085.39
v -29766.99 36283.29 2121.56
v -29766.99 36283.29 2146.56
v -30096.72 36160.93 2146.56
v -30086.44 36156.21 2146.56
v -29765.80 36275.20 2146.56
v -29379.80 35896.10 2121.56
v -29204.01 35422.37 2097.73
v -29204.01 35422.37 2146.56
v -29379.80 35896.10 2146.56
v -29387.28 35893.26 2146.56
v -29214.29 35427.09 2146.56
v -29433.98 35337.03 2072.50
v -29433.98 35337.03 2146.56
v -29437.92 35344.10 2146.56
v -29747.77 35220.59 2038.08
v -29747.77 35220.59 2146.56
v -29743.05 35230.87 2146.56
v -30001.63 35904.69 2072.50
v -30001.63 35904.69 2146.56
v -29992.87 35904.06 2146.56
v -36375.94 37594.49 1905.77
v -36013.17 37660.98 1948.09
v -36013.17 37660.98 1973.09
v -36375.94 37594.49 1973.09
v -36366.63 37588.06 1973.09
v -36012.45 37652.98 1973.09
v -35675.69 37523.62 1948.09
v -35648.64 37376.03 1938.45
v -35648.64 37376.03 1973.09
v -35675.69 37523.62 1973.09
v -35683.75 37523.22 1973.09
v -35657.95 37382.46 1973.09
v -36313.57 37254.16 1875.50
v -36313.57 37254.16 1973.09
v -36307.14 37263.47 1973.09
v -36363.68 37527.57 1893.37
v -36363.68 37527.57 1973.09
v -36354.93 37524.24 1973.09
v -39612.32 35561.20 1556.65
v -39405.80 35894.37 1608.09
v -39405.80 35894.37 1656.13
v -39612.32 35561.20 1656.13
v -39601.31 35563.78 1656.13
v -39403.22 35883.36 1656.13
v -39124.51 35720.02 1627.90
v -39124.51 35720.02 1656.13
v -39129.11 35713.46 1656.13
v -38872.88 35564.04 1625.48
v -38872.88 35564.04 1656.13
v -38883.89 35561.46 1656.13
v -39079.41 35230.87 1590.57
v -39079.41 35230.87 1656.13
v -39081.99 35241.88 1656.13
v -39124.51 35258.83 1591.00
v -39124.51 35258.83 1656.13
v -39125.95 35269.13 1656.13
v -35983.07 36245.04 1821.21
v -35691.37 35960.72 1821.80
v -35691.37 35960.72 1852.98
v -35983.07 36245.04 1852.98
v -35982.92 36233.73 1852.98
v -35702.44 35960.34 1852.98
v -35685.17 35954.67 1821.33
v -35685.17 35954.67 1852.98
v -35696.48 35954.53 1852.98
v -35975.52 35656.78 1773.96
v -35975.52 35656.78 1852.98
v -35975.67 35668.09 1852.98
v -35985.54 35666.54 1774.74
v -35985.54 35666.54 1852.98
v -35985.30 35677.48 1852.98
v -36273.42 35947.13 1774.15
v -36273.42 35947.13 1852.98
v -36262.11 35947.28 1852.98
vt -168.3287 2.6247
vt -168.3850 2.6418
vt -168.3850 2.7655
vt -168.3287 2.7655
vt -168.3115 2.7655
vt -168.3670 2.7655
vt -168.6141 2.7030
vt -168.6141 2.7655
vt -168.5934 2.7655
vt -163.1646 2.7030
vt -163.2355 2.7028
vt -163.2355 2.7655
vt -163.1646 2.7655
vt -163.1938 2.7655
vt -163.2640 2.7655
vt -166.6302 2.6069
vt -166.6302 2.7655
vt -166.6282 2.7655
vt -168.2523 2.6259
vt -168.2523 2.7655
vt -168.2358 2.7655
vt -171.7510 5.0799
vt -171.4657 5.1182
vt -171.4657 5.1807
vt -171.7510 5.1807
vt -171.7135 5.1807
vt -171.4350 5.1807
vt -169.5080 5.1182
vt -168.0519 5.0065
vt -168.0519 5.1807
vt -169.5080 5.1807
vt -169.5179 5.1807
vt -168.0894 5.1807
vt -168.6597 4.9248
vt -168.6597 5.1807
vt -168.6829 5.1807
vt -169.0483 4.8726
vt -169.0483 5.1807
vt -169.0622 5.1807
vt -168.9173 4.8807
vt -169.0240 4.8663
vt -169.0240 4.9932
vt -168.9173 4.9932
vt -168.9459 4.9932
vt -169.0483 4.9932
vt -169.2109 4.8807
vt -169.2109 4.9932
vt -169.2292 4.9932
vt -168.9459 4.8807
vt -169.2292 4.8807
vt -165.8338 4.6037
vt -165.6591 4.6424
vt -165.6591 4.7678
vt -165.8338 4.7678
vt -165.7963 4.7678
vt -165.6262 4.7678
vt -165.3752 4.7053
vt -165.3752 4.7678
vt -165.3498 4.7678
vt -163.9073 4.7053
vt -163.3985 4.6570
vt -163.3985 4.7678
vt -163.9073 4.7678
vt -163.9278 4.7678
vt -163.4360 4.7678
vt -163.7998 4.5680
vt -163.7998 4.7678
vt -163.8268 4.7678
vt -164.2977 4.4577
vt -164.2977 4.7678
vt -164.3116 4.7678
vt -164.1878 4.4678
vt -164.2733 4.4489
vt -164.2733 4.5803
vt -164.1878 4.5803
vt -164.2158 4.5803
vt -164.2977 4.5803
vt -164.4730 4.4678
vt -164.4730 4.5803
vt -164.4863 4.5803
vt -164.2158 4.4678
vt -164.4863 4.4678
vt -156.8666 3.3832
vt -156.7495 3.3908
vt -156.7495 3.5448
vt -156.8666 3.5448
vt -156.8272 3.5448
vt -156.7127 3.5448
vt -155.9458 3.4823
vt -155.9458 3.5448
vt -155.9263 3.5448
vt -154.1560 3.4823
vt -154.1302 3.4808
vt -154.1302 3.5448
vt -154.1560 3.5448
vt -154.1768 3.5448
vt -154.1516 3.5448
vt -153.3524 3.4371
vt -153.3524 3.5448
vt -153.3918 3.5448
vt -154.1302 3.3486
vt -154.1302 3.5448
vt -154.1529 3.5448
vt -154.8650 3.2649
vt -154.8650 3.5448
vt -154.8719 3.5448
vt -155.9123 3.3238
vt -155.9123 3.5448
vt -155.8949 3.5448
vt -168.3422 2.5538
vt -167.8006 2.5717
vt -167.8006 2.6347
vt -168.3422 2.6347
vt -168.3040 2.6347
vt -167.7709 2.6347
vt -167.5884 2.5722
vt -167.5884 2.6347
vt -167.5621 2.6347
vt -164.7615 2.5722
vt -164.2147 2.4265
vt -164.2147 2.6347
vt -164.7615 2.6347
vt -164.7845 2.6347
vt -164.2529 2.6347
vt -165.6595 2.3924
vt -165.6595 2.6347
vt -165.6750 2.6347
vt -166.2940 2.3775
vt -166.2940 2.6347
vt -166.2996 2.6347
vt -166.6302 2.3696
vt -166.6302 2.6347
vt -166.6304 2.6347
vt -167.3890 2.3517
vt -167.3890 2.6347
vt -167.3772 2.6347
vt -167.4435 2.3662
vt -167.4435 2.6347
vt -167.4302 2.6347
vt -167.8743 2.4561
vt -167.8743 2.6347
vt -167.8490 2.6347
vt -171.7574 5.9073
vt -171.3910 5.8717
vt -171.3910 5.9698
vt -171.7574 5.9698
vt -171.7693 5.9698
vt -171.4074 5.9698
vt -169.5438 5.6920
vt -169.5438 5.9698
vt -169.5832 5.9698
vt -170.6407 5.6133
vt -170.6407 5.9698
vt -170.6472 5.9698
vt -172.8802 5.8311
vt -172.8802 5.9698
vt -172.8589 5.9698
vt -173.3100 5.9073
vt -173.3100 5.9698
vt -173.2833 5.9698
vt -169.7580 5.6698
vt -170.6293 5.6073
vt -170.6293 5.7823
vt -169.7580 5.7823
vt -169.8129 5.7823
vt -170.6407 5.7823
vt -171.2720 5.6698
vt -171.2720 5.7823
vt -171.2697 5.7823
vt -169.8129 5.6698
vt -171.2697 5.6698
vt -167.5081 3.1428
vt -166.6302 3.1565
vt -166.6302 3.2958
vt -167.5081 3.2958
vt -167.4687 3.2958
vt -166.6026 3.2958
vt -165.2497 3.2333
vt -165.2497 3.2958
vt -165.2406 3.2958
vt -163.6004 3.2333
vt -163.2600 3.1972
vt -163.2600 3.2958
vt -163.6004 3.2958
vt -163.6259 3.2958
vt -163.2993 3.2958
vt -163.6093 3.1896
vt -163.6093 3.2958
vt -163.6440 3.2958
vt -166.6302 3.0214
vt -166.6302 3.2958
vt -166.6243 3.2958
vt -166.7167 3.0201
vt -166.7167 3.2958
vt -166.7096 3.2958
vt -162.1393 2.9175
vt -162.1522 2.9312
vt -162.1522 3.1244
vt -162.1393 3.1244
vt -162.1132 3.1244
vt -162.1256 3.1244
vt -162.2607 3.0468
vt -162.2607 3.1244
vt -162.2303 3.1244
vt -161.8544 3.0492
vt -161.8544 3.1244
vt -161.8334 3.1244
vt -160.3802 3.0263
vt -160.3802 3.1244
vt -160.3934 3.1244
vt -159.8210 3.0177
vt -159.8210 3.1244
vt -159.8471 3.1244
vt -159.7463 2.9566
vt -159.7463 3.1244
vt -159.7750 3.1244
vt -159.6996 2.9050
vt -159.6996 3.1244
vt -159.7299 3.1244
vt -159.8630 2.9106
vt -159.8630 3.1244
vt -159.8895 3.1244
vt -160.3440 2.9269
vt -160.3440 3.1244
vt -160.3595 3.1244
vt -160.3802 2.9266
vt -160.3802 3.1244
vt -160.3948 3.1244
vt -160.4222 2.9279
vt -160.4222 3.1244
vt -160.4359 3.1244
vt -180.4052 2.1830
vt -180.2144 2.3966
vt -180.2144 2.4741
vt -180.4052 2.4741
vt -180.3735 2.4741
vt -180.1901 2.4741
vt -179.8541 2.4116
vt -179.8541 2.4741
vt -179.8387 2.4741
vt -177.9901 2.4116
vt -178.1515 2.2374
vt -178.1515 2.4741
vt -177.9901 2.4741
vt -178.0207 2.4741
vt -178.1758 2.4741
vt -179.1302 2.2359
vt -179.1302 2.4741
vt -179.1302 2.4741
vt -180.4608 2.1737
vt -180.4604 2.1741
vt -180.4604 2.2866
vt -180.4608 2.2866
vt -180.4052 2.2866
vt -180.4049 2.2866
vt -180.4518 2.1741
vt -180.4518 2.2866
vt -180.3966 2.2866
vt -180.4049 2.1741
vt -180.3966 2.1741
vt -158.9279 4.1942
vt -158.1197 4.2652
vt -158.1197 4.3277
vt -158.9279 4.3277
vt -158.8879 4.3277
vt -158.0947 4.3277
vt -156.1068 4.2652
vt -156.0637 4.2586
vt -156.0637 4.3277
vt -156.1068 4.3277
vt -156.1298 4.3277
vt -156.0881 4.3277
vt -155.5891 4.1862
vt -155.5891 4.3277
vt -155.6291 4.3277
vt -157.6752 4.0030
vt -157.6752 4.3277
vt -157.6765 4.3277
vt -157.2950 4.0277
vt -157.6730 3.9945
vt -157.6730 4.1402
vt -157.2950 4.1402
vt -157.3091 4.1402
vt -157.6752 4.1402
vt -157.8904 4.0277
vt -157.8904 4.1402
vt -157.8808 4.1402
vt -157.3091 4.0277
vt -157.8808 4.0277
vt -162.0181 4.5926
vt -161.6624 4.6715
vt -161.6624 4.7340
vt -162.0181 4.7340
vt -161.9806 4.7340
vt -161.6310 4.7340
vt -158.2507 4.6715
vt -157.5019 4.6003
vt -157.5019 4.7340
vt -158.2507 4.7340
vt -158.2759 4.7340
vt -157.5394 4.7340
vt -158.5882 4.3596
vt -158.5882 4.7340
vt -158.6071 4.7340
vt -158.8816 4.2946
vt -158.8816 4.7340
vt -158.8955 4.7340
vt -160.2762 4.4271
vt -160.2762 4.7340
vt -160.2672 4.7340
vt -160.3802 4.4370
vt -160.3802 4.7340
vt -160.3696 4.7340
vt -158.1882 4.4340
vt -158.5337 4.3574
vt -158.5337 4.5465
vt -158.1882 4.5465
vt -158.2320 4.5465
vt -158.5675 4.5465
vt -158.6958 4.3215
vt -158.6958 4.5465
vt -158.7249 4.5465
vt -158.8572 4.2857
vt -158.8572 4.4340
vt -158.6958 4.4340
vt -158.7249 4.4340
vt -158.8816 4.4340
vt -159.2337 4.3215
vt -159.2337 4.4340
vt -159.2475 4.4340
vt -160.3802 4.4305
vt -160.3802 4.5465
vt -159.2337 4.5465
vt -159.2475 4.5465
vt -160.3621 4.5465
vt -160.3949 4.4318
vt -160.3949 4.5465
vt -160.3763 4.5465
vt -160.4174 4.4340
vt -160.4174 4.5465
vt -160.3982 4.5465
vt -158.2320 4.4340
vt -160.3982 4.4340
vt -174.0902 4.5160
vt -173.5491 4.5115
vt -173.5491 4.5812
vt -174.0902 4.5812
vt -174.0535 4.5812
vt -173.5282 4.5812
vt -172.8802 4.5060
vt -172.8802 4.5812
vt -172.8791 4.5812
vt -172.3029 4.5013
vt -172.3029 4.5812
vt -172.3187 4.5812
vt -172.1360 4.4610
vt -172.1360 4.5812
vt -172.1583 4.5812
vt -171.8401 4.3689
vt -171.8401 4.5812
vt -171.8739 4.5812
vt -171.7648 4.3454
vt -171.7648 4.5812
vt -171.8015 4.5812
vt -172.4274 4.3588
vt -172.4274 4.5812
vt -172.4447 4.5812
vt -172.8802 4.3680
vt -172.8802 4.5812
vt -172.8842 4.5812
vt -173.5521 4.3816
vt -173.5521 4.5812
vt -173.5363 4.5812
vt -173.6170 4.4018
vt -173.6170 4.5812
vt -173.5986 4.5812
vt -173.9098 4.4724
vt -173.9098 4.5812
vt -173.8801 4.5812
vt -187.9056 4.2251
vt -186.2970 4.1864
vt -186.2970 4.2878
vt -187.9056 4.2878
vt -187.8793 4.2878
vt -186.3271 4.2878
vt -186.4240 4.0755
vt -186.4240 4.2878
vt -186.4503 4.2878
vt -187.5101 4.1017
vt -187.5101 4.2878
vt -187.4983 4.2878
vt -188.0326 4.0947
vt -188.0326 4.2878
vt -188.0025 4.2878
vt -188.0019 4.1410
vt -188.0019 4.2878
vt -187.9728 4.2878
vt -169.7274 5.5781
vt -169.1896 5.6166
vt -169.1896 5.6791
vt -169.7274 5.6791
vt -169.6879 5.6791
vt -169.1711 5.6791
vt -168.6507 5.6166
vt -168.5325 5.6052
vt -168.5325 5.6791
vt -168.6507 5.6791
vt -168.6518 5.6791
vt -168.5376 5.6791
vt -167.5053 5.5052
vt -167.5053 5.6791
vt -167.5447 5.6791
vt -168.3533 5.4444
vt -168.3533 5.6791
vt -168.3598 5.6791
vt -169.5765 5.5634
vt -169.5765 5.6791
vt -169.5421 5.6791
vt -184.4415 5.6446
vt -183.8262 5.7325
vt -183.8262 5.7950
vt -184.4415 5.7950
vt -184.4022 5.7950
vt -183.7983 5.7950
vt -181.7267 5.7325
vt -181.2962 5.6624
vt -181.2962 5.7950
vt -181.7267 5.7950
vt -181.7519 5.7950
vt -181.3356 5.7950
vt -181.4595 5.6471
vt -181.4595 5.7950
vt -181.4958 5.7950
vt -183.0274 5.4232
vt -183.0274 5.7950
vt -183.0346 5.7950
vt -182.4388 5.4950
vt -183.0070 5.4139
vt -183.0070 5.6075
vt -182.4388 5.6075
vt -182.4695 5.6075
vt -183.0199 5.6075
vt -183.0147 5.4127
vt -183.0147 5.6075
vt -183.0274 5.6075
vt -183.0310 5.4153
vt -183.0310 5.6075
vt -183.0428 5.6075
vt -183.5401 5.4950
vt -183.5401 5.6075
vt -183.5240 5.6075
vt -182.4695 5.4950
vt -183.5240 5.4950
vt -173.2740 3.8583
vt -172.8802 3.8525
vt -172.8802 3.9208
vt -173.2740 3.9208
vt -173.2659 3.9208
vt -172.8823 3.9208
vt -172.4158 3.8456
vt -172.4158 3.9208
vt -172.4300 3.9208
vt -172.1123 3.7602
vt -172.1123 3.9208
vt -172.1394 3.9208
vt -171.8687 3.6916
vt -171.8687 3.9208
vt -171.9061 3.9208
vt -172.8802 3.7066
vt -172.8802 3.9208
vt -172.8914 3.9208
vt -173.8535 3.7210
vt -173.8535 3.9208
vt -173.8394 3.9208
vt -174.3413 3.8583
vt -174.3413 3.9208
vt -174.3064 3.9208
vt -163.4917 3.2660
vt -162.1690 3.2781
vt -162.1690 3.3634
vt -163.4917 3.3634
vt -163.4539 3.3634
vt -162.1821 3.3634
vt -161.5258 3.1859
vt -161.5258 3.3634
vt -161.5636 3.3634
vt -162.8485 3.1738
vt -162.8485 3.3634
vt -162.8355 3.3634
vt -185.7775 4.7123
vt -185.5356 4.6750
vt -185.5356 4.7748
vt -185.7775 4.7748
vt -185.7841 4.7748
vt -185.5475 4.7748
vt -185.3802 4.6662
vt -185.3802 4.7748
vt -185.3955 4.7748
vt -184.7201 4.6284
vt -184.7201 4.7748
vt -184.7497 4.7748
vt -184.2908 4.6072
vt -184.2908 4.7748
vt -184.3297 4.7748
vt -184.3533 4.5991
vt -184.3533 4.7748
vt -184.3899 4.7748
vt -185.0648 4.5443
vt -185.0648 4.7748
vt -185.0740 4.7748
vt -185.3802 4.5624
vt -185.3802 4.7748
vt -185.3825 4.7748
vt -186.6041 4.6323
vt -186.6041 4.7748
vt -186.5797 4.7748
vt -187.1230 4.7123
vt -187.1230 4.7748
vt -187.0874 4.7748
vt -170.4877 3.0842
vt -169.5450 2.9041
vt -169.5450 3.1467
vt -170.4877 3.1467
vt -170.5035 3.1467
vt -169.5833 3.1467
vt -170.5505 2.9017
vt -170.5505 3.1467
vt -170.5477 3.1467
vt -170.7698 2.8944
vt -170.7698 3.1467
vt -170.7580 3.1467
vt -171.1475 2.9733
vt -171.1475 3.1467
vt -171.1268 3.1467
vt -171.7276 3.0842
vt -171.7276 3.1467
vt -171.6932 3.1467
vt -163.9117 3.1199
vt -163.1224 3.1506
vt -163.1224 3.2376
vt -163.9117 3.2376
vt -163.8739 3.2376
vt -163.1105 3.2376
vt -162.3665 3.1576
vt -162.3665 3.2376
vt -162.3795 3.2376
vt -161.7604 3.0707
vt -161.7604 3.2376
vt -161.7982 3.2376
vt -162.0855 3.0677
vt -162.0855 3.2376
vt -162.1125 3.2376
vt -163.3056 3.0202
vt -163.3056 3.2376
vt -163.2926 3.2376
vt -178.8761 4.3350
vt -178.8911 4.4287
vt -178.8911 4.4912
vt -178.8761 4.4912
vt -178.8482 4.4912
vt -178.8625 4.4912
vt -178.5304 4.4287
vt -177.0868 4.3725
vt -177.0868 4.4912
vt -178.5304 4.4912
vt -178.5131 4.4912
vt -177.1147 4.4912
vt -177.0696 4.2646
vt -177.0696 4.4912
vt -177.0983 4.4912
vt -190.0736 4.1309
vt -189.9807 4.2710
vt -189.9807 4.3498
vt -190.0736 4.3498
vt -190.0435 4.3498
vt -189.9544 4.3498
vt -189.6777 4.2751
vt -189.6777 4.3498
vt -189.6614 4.3498
vt -188.2663 4.2411
vt -188.2663 4.3498
vt -188.2964 4.3498
vt -188.3492 4.1688
vt -188.3492 4.3498
vt -188.3760 4.3498
vt -188.3592 4.1536
vt -188.3592 4.3498
vt -188.3855 4.3498
vt -165.6441 5.2135
vt -165.1257 5.3039
vt -165.1257 5.3664
vt -165.6441 5.3664
vt -165.6066 5.3664
vt -165.1025 5.3664
vt -163.1897 5.3039
vt -161.5660 5.2443
vt -161.5660 5.3664
vt -163.1897 5.3664
vt -163.2013 5.3664
vt -161.6034 5.3664
vt -161.9275 5.1813
vt -161.9275 5.3664
vt -161.9550 5.3664
vt -162.4209 5.0952
vt -162.4209 5.3664
vt -162.4348 5.3664
vt -164.7658 5.1813
vt -164.7658 5.3664
vt -164.7423 5.3664
vt -184.9261 4.7644
vt -184.1854 4.8702
vt -184.1854 4.9327
vt -184.9261 4.9327
vt -184.8867 4.9327
vt -184.1636 4.9327
vt -182.9983 4.8702
vt -182.5617 4.8461
vt -182.5617 4.9327
vt -182.9983 4.9327
vt -183.0174 4.9327
vt -182.6010 4.9327
vt -183.9193 4.6887
vt -183.9193 4.9327
vt -183.9265 4.9327
vt -184.7281 4.7334
vt -184.7281 4.9327
vt -184.6979 4.9327
vt -187.9338 3.8916
vt -188.2504 4.0202
vt -188.2504 4.1403
vt -187.9338 4.1403
vt -187.9127 4.1403
vt -188.2165 4.1403
vt -187.1113 4.0697
vt -187.1113 4.1403
vt -187.1064 4.1403
vt -186.0923 4.0637
vt -186.0923 4.1403
vt -186.1134 4.1403
vt -185.7757 3.9764
vt -185.7757 4.1403
vt -185.8097 4.1403
vt -185.9583 3.9775
vt -185.9583 4.1403
vt -185.9877 4.1403
vt -180.5703 4.5530
vt -179.1302 4.5545
vt -179.1302 4.6325
vt -180.5703 4.6325
vt -180.5416 4.6325
vt -179.1569 4.6325
vt -179.0996 4.5533
vt -179.0996 4.6325
vt -179.1275 4.6325
vt -179.0807 4.4349
vt -179.0807 4.6325
vt -179.1094 4.6325
vt -179.1302 4.4368
vt -179.1302 4.6325
vt -179.1569 4.6325
vt -180.5514 4.4354
vt -180.5514 4.6325
vt -180.5235 4.6325
vn -0.9020 0.4318 0.0000
vn 0.0000 -0.0000 1.0000
vn -0.4311 -0.9023 0.0000
vn -0.3479 0.9375 0.0000
vn 0.9375 0.3479 0.0000
vn 0.3479 -0.9375 0.0000
vn -0.9375 -0.3479 0.0000
vn 0.9505 -0.3107 0.0000
vn -0.8768 0.4809 0.0000
vn 0.9460 -0.3243 0.0000
vn -0.8424 0.5389 0.0000
vn -0.1719 0.9851 0.0000
vn 0.9851 0.1719 0.0000
vn 0.1719 -0.9851 0.0000
vn -0.9851 -0.1719 0.0000
vn 0.2939 0.9558 0.0000
vn 0.9558 -0.2939 0.0000
vn -0.2939 -0.9558 0.0000
vn -0.9558 0.2939 0.0000
vn 0.9866 0.1633 0.0000
vn 0.1633 -0.9866 0.0000
vn -0.9866 -0.1633 0.0000
vn 0.8050 0.5933 0.0000
vn -0.6795 0.7337 0.0000
vn 0.1767 0.9843 0.0000
vn 0.9843 -0.1767 0.0000
vn -0.1767 -0.9843 0.0000
vn -0.9843 0.1767 0.0000
vn -0.7581 0.6521 0.0000
vn 0.6521 0.7581 0.0000
vn 0.7581 -0.6521 0.0000
vn -0.6521 -0.7581 0.0000
vn -0.6084 0.7936 0.0000
vn 0.7936 0.6084 0.0000
vn 0.6084 -0.7936 0.0000
vn -0.7936 -0.6084 0.0000
vn 0.1326 0.9912 0.0000
vn -0.1272 -0.9919 0.0000
vn -0.0315 0.9995 0.0000
vn 0.9995 0.0315 0.0000
vn 0.0315 -0.9995 0.0000
vn -0.9995 -0.0315 0.0000
vn 0.8556 -0.5177 0.0000
vn -0.5835 0.8121 0.0000
vn 0.9562 0.2928 0.0000
vn -0.9546 0.2980 0.0000
vn 0.8465 -0.5323 0.0000
vn -0.3786 0.9256 0.0000
vn 0.3959 0.9183 0.0000
vn 0.9183 -0.3959 0.0000
vn -0.3959 -0.9183 0.0000
vn -0.9183 0.3959 0.0000
vn 0.7529 0.6581 0.0000
vn 0.6581 -0.7529 0.0000
vn -0.7529 -0.6581 0.0000
vn -0.6581 0.7529 0.0000
vn -0.1634 0.9866 0.0000
vn 0.9866 0.1634 0.0000
vn -0.1803 0.9836 0.0000
vn 0.9836 0.1803 0.0000
vn 0.1803 -0.9836 0.0000
vn -0.9836 -0.1803 0.0000
vn 0.9872 -0.1596 0.0000
vn -0.4533 0.8913 0.0000
vn 0.3534 0.9355 0.0000
vn 0.9355 -0.3534 0.0000
vn -0.3534 -0.9355 0.0000
vn -0.9355 0.3534 0.0000
vn 0.3267 0.9451 0.0000
vn 0.9451 -0.3267 0.0000
vn -0.3267 -0.9451 0.0000
vn -0.9451 0.3267 0.0000
vn 0.9734 0.2292 0.0000
vn 0.2291 -0.9734 0.0000
vn -0.9734 -0.2292 0.0000
vn -0.7161 0.6980 0.0000
vn 0.6980 0.7161 0.0000
vn 0.7161 -0.6980 0.0000
vn -0.6980 -0.7161 0.0000
vn -0.8500 0.5268 0.0000
vn 0.5268 0.8500 0.0000
vn 0.8499 -0.5269 0.0000
vn -0.5268 -0.8500 0.0000
f 1/1/1 3/3/1 2/2/1
f 1/1/1 4/4/1 3/3/1
f 5/5/2 6/6/2 3/3/2
f 5/5/2 3/3/2 4/4/2
f 2/2/1 8/8/1 7/7/1
f 2/2/1 3/3/1 8/8/1
f 6/6/2 9/9/2 8/8/2
f 6/6/2 8/8/2 3/3/2
f 10/10/3 12/12/3 11/11/3
f 10/10/3 13/13/3 12/12/3
f 14/14/2 15/15/2 12/12/2
f 14/14/2 12/12/2 13/13/2
f 11/11/3 17/17/3 16/16/3
f 11/11/3 12/12/3 17/17/3
f 15/15/2 18/18/2 17/17/2
f 15/15/2 17/17/2 12/12/2
f 16/16/3 20/20/3 19/19/3
f 16/16/3 17/17/3 20/20/3
f 18/18/2 21/21/2 20/20/2
f 18/18/2 20/20/2 17/17/2
f 19/19/3 4/4/3 1/1/3
f 19/19/3 20/20/3 4/4/3
f 21/21/2 5/5/2 4/4/2
f 21/21/2 4/4/2 20/20/2
f 22/22/4 24/24/4 23/23/4
f 22/22/4 25/25/4 24/24/4
f 26/26/2 27/27/2 24/24/2
f 26/26/2 24/24/2 25/25/2
f 28/28/5 30/30/5 29/29/5
f 28/28/5 31/31/5 30/30/5
f 32/32/2 33/33/2 30/30/2
f 32/32/2 30/30/2 31/31/2
f 29/29/6 35/35/6 34/34/6
f 29/29/6 30/30/6 35/35/6
f 33/33/2 36/36/2 35/35/2
f 33/33/2 35/35/2 30/30/2
f 34/34/6 38/38/6 37/37/6
f 34/34/6 35/35/6 38/38/6
f 36/36/2 39/39/2 38/38/2
f 36/36/2 38/38/2 35/35/2
f 37/37/7 25/25/7 22/22/7
f 37/37/7 38/38/7 25/25/7
f 39/39/2 26/26/2 25/25/2
f 39/39/2 25/25/2 38/38/2
f 40/40/6 42/42/6 41/41/6
f 40/40/6 43/43/6 42/42/6
f 44/44/2 45/45/2 42/42/2
f 44/44/2 42/42/2 43/43/2
f 41/41/7 47/47/7 46/46/7
f 41/41/7 42/42/7 47/47/7
f 45/45/2 48/48/2 47/47/2
f 45/45/2 47/47/2 42/42/2
f 40/40/8 49/49/8 44/44/8
f 40/40/8 44/44/8 43/43/8
f 46/46/9 48/48/9 50/50/9
f 46/46/9 47/47/9 48/48/9
f 51/51/4 53/53/4 52/52/4
f 51/51/4 54/54/4 53/53/4
f 55/55/2 56/56/2 53/53/2
f 55/55/2 53/53/2 54/54/2
f 52/52/4 58/58/4 57/57/4
f 52/52/4 53/53/4 58/58/4
f 56/56/2 59/59/2 58/58/2
f 56/56/2 58/58/2 53/53/2
f 60/60/5 62/62/5 61/61/5
f 60/60/5 63/63/5 62/62/5
f 64/64/2 65/65/2 62/62/2
f 64/64/2 62/62/2 63/63/2
f 61/61/6 67/67/6 66/66/6
f 61/61/6 62/62/6 67/67/6
f 65/65/2 68/68/2 67/67/2
f 65/65/2 67/67/2 62/62/2
f 66/66/6 70/70/6 69/69/6
f 66/66/6 67/67/6 70/70/6
f 68/68/2 71/71/2 70/70/2
f 68/68/2 70/70/2 67/67/2
f 69/69/7 54/54/7 51/51/7
f 69/69/7 70/70/7 54/54/7
f 71/71/2 55/55/2 54/54/2
f 71/71/2 54/54/2 70/70/2
f 72/72/6 74/74/6 73/73/6
f 72/72/6 75/75/6 74/74/6
f 76/76/2 77/77/2 74/74/2
f 76/76/2 74/74/2 75/75/2
f 73/73/7 79/79/7 78/78/7
f 73/73/7 74/74/7 79/79/7
f 77/77/2 80/80/2 79/79/2
f 77/77/2 79/79/2 74/74/2
f 72/72/10 81/81/10 76/76/10
f 72/72/10 76/76/10 75/75/10
f 78/78/11 80/80/11 82/82/11
f 78/78/11 79/79/11 80/80/11
f 83/83/12 85/85/12 84/84/12
f 83/83/12 86/86/12 85/85/12
f 87/87/2 88/88/2 85/85/2
f 87/87/2 85/85/2 86/86/2
f 84/84/12 90/90/12 89/89/12
f 84/84/12 85/85/12 90/90/12
f 88/88/2 91/91/2 90/90/2
f 88/88/2 90/90/2 85/85/2
f 92/92/13 94/94/13 93/93/13
f 92/92/13 95/95/13 94/94/13
f 96/96/2 97/97/2 94/94/2
f 96/96/2 94/94/2 95/95/2
f 93/93/13 99/99/13 98/98/13
f 93/93/13 94/94/13 99/99/13
f 97/97/2 100/100/2 99/99/2
f 97/97/2 99/99/2 94/94/2
f 98/98/14 102/102/14 101/101/14
f 98/98/14 99/99/14 102/102/14
f 100/100/2 103/103/2 102/102/2
f 100/100/2 102/102/2 99/99/2
f 101/101/14 105/105/14 104/104/14
f 101/101/14 102/102/14 105/105/14
f 103/103/2 106/106/2 105/105/2
f 103/103/2 105/105/2 102/102/2
f 104/104/15 108/108/15 107/107/15
f 104/104/15 105/105/15 108/108/15
f 106/106/2 109/109/2 108/108/2
f 106/106/2 108/108/2 105/105/2
f 107/107/15 86/86/15 83/83/15
f 107/107/15 108/108/15 86/86/15
f 109/109/2 87/87/2 86/86/2
f 109/109/2 86/86/2 108/108/2
f 110/110/16 112/112/16 111/111/16
f 110/110/16 113/113/16 112/112/16
f 114/114/2 115/115/2 112/112/2
f 114/114/2 112/112/2 113/113/2
f 111/111/16 117/117/16 116/116/16
f 111/111/16 112/112/16 117/117/16
f 115/115/2 118/118/2 117/117/2
f 115/115/2 117/117/2 112/112/2
f 119/119/17 121/121/17 120/120/17
f 119/119/17 122/122/17 121/121/17
f 123/123/2 124/124/2 121/121/2
f 123/123/2 121/121/2 122/122/2
f 120/120/18 126/126/18 125/125/18
f 120/120/18 121/121/18 126/126/18
f 124/124/2 127/127/2 126/126/2
f 124/124/2 126/126/2 121/121/2
f 125/125/18 129/129/18 128/128/18
f 125/125/18 126/126/18 129/129/18
f 127/127/2 130/130/2 129/129/2
f 127/127/2 129/129/2 126/126/2
f 128/128/18 132/132/18 131/131/18
f 128/128/18 129/129/18 132/132/18
f 130/130/2 133/133/2 132/132/2
f 130/130/2 132/132/2 129/129/2
f 131/131/18 135/135/18 134/134/18
f 131/131/18 132/132/18 135/135/18
f 133/133/2 136/136/2 135/135/2
f 133/133/2 135/135/2 132/132/2
f 134/134/19 138/138/19 137/137/19
f 134/134/19 135/135/19 138/138/19
f 136/136/2 139/139/2 138/138/2
f 136/136/2 138/138/2 135/135/2
f 137/137/19 141/141/19 140/140/19
f 137/137/19 138/138/19 141/141/19
f 139/139/2 142/142/2 141/141/2
f 139/139/2 141/141/2 138/138/2
f 140/140/19 113/113/19 110/110/19
f 140/140/19 141/141/19 113/113/19
f 142/142/2 114/114/2 113/113/2
f 142/142/2 113/113/2 141/141/2
f 143/143/20 145/145/20 144/144/20
f 143/143/20 146/146/20 145/145/20
f 147/147/2 148/148/2 145/145/2
f 147/147/2 145/145/2 146/146/2
f 144/144/20 150/150/20 149/149/20
f 144/144/20 145/145/20 150/150/20
f 148/148/2 151/151/2 150/150/2
f 148/148/2 150/150/2 145/145/2
f 149/149/21 153/153/21 152/152/21
f 149/149/21 150/150/21 153/153/21
f 151/151/2 154/154/2 153/153/2
f 151/151/2 153/153/2 150/150/2
f 152/152/22 156/156/22 155/155/22
f 152/152/22 153/153/22 156/156/22
f 154/154/2 157/157/2 156/156/2
f 154/154/2 156/156/2 153/153/2
f 155/155/22 159/159/22 158/158/22
f 155/155/22 156/156/22 159/159/22
f 157/157/2 160/160/2 159/159/2
f 157/157/2 159/159/2 156/156/2
f 161/161/21 163/163/21 162/162/21
f 161/161/21 164/164/21 163/163/21
f 165/165/2 166/166/2 163/163/2
f 165/165/2 163/163/2 164/164/2
f 162/162/22 168/168/22 167/167/22
f 162/162/22 163/163/22 168/168/22
f 166/166/2 169/169/2 168/168/2
f 166/166/2 168/168/2 163/163/2
f 161/161/23 170/170/23 165/165/23
f 161/161/23 165/165/23 164/164/23
f 167/167/24 169/169/24 171/171/24
f 167/167/24 168/168/24 169/169/24
f 172/172/25 174/174/25 173/173/25
f 172/172/25 175/175/25 174/174/25
f 176/176/2 177/177/2 174/174/2
f 176/176/2 174/174/2 175/175/2
f 173/173/25 179/179/25 178/178/25
f 173/173/25 174/174/25 179/179/25
f 177/177/2 180/180/2 179/179/2
f 177/177/2 179/179/2 174/174/2
f 181/181/26 183/183/26 182/182/26
f 181/181/26 184/184/26 183/183/26
f 185/185/2 186/186/2 183/183/2
f 185/185/2 183/183/2 184/184/2
f 182/182/27 188/188/27 187/187/27
f 182/182/27 183/183/27 188/188/27
f 186/186/2 189/189/2 188/188/2
f 186/186/2 188/188/2 183/183/2
f 187/187/27 191/191/27 190/190/27
f 187/187/27 188/188/27 191/191/27
f 189/189/2 192/192/2 191/191/2
f 189/189/2 191/191/2 188/188/2
f 190/190/27 194/194/27 193/193/27
f 190/190/27 191/191/27 194/194/27
f 192/192/2 195/195/2 194/194/2
f 192/192/2 194/194/2 191/191/2
f 193/193/28 175/175/28 172/172/28
f 193/193/28 194/194/28 175/175/28
f 195/195/2 176/176/2 175/175/2
f 195/195/2 175/175/2 194/194/2
f 196/196/29 198/198/29 197/197/29
f 196/196/29 199/199/29 198/198/29
f 200/200/2 201/201/2 198/198/2
f 200/200/2 198/198/2 199/199/2
f 197/197/29 203/203/29 202/202/29
f 197/197/29 198/198/29 203/203/29
f 201/201/2 204/204/2 203/203/2
f 201/201/2 203/203/2 198/198/2
f 202/202/30 206/206/30 205/205/30
f 202/202/30 203/203/30 206/206/30
f 204/204/2 207/207/2 206/206/2
f 204/204/2 206/206/2 203/203/2
f 205/205/30 209/209/30 208/208/30
f 205/205/30 206/206/30 209/209/30
f 207/207/2 210/210/2 209/209/2
f 207/207/2 209/209/2 206/206/2
f 208/208/30 212/212/30 211/211/30
f 208/208/30 209/209/30 212/212/30
f 210/210/2 213/213/2 212/212/2
f 210/210/2 212/212/2 209/209/2
f 211/211/31 215/215/31 214/214/31
f 211/211/31 212/212/31 215/215/31
f 213/213/2 216/216/2 215/215/2
f 213/213/2 215/215/2 212/212/2
f 214/214/31 218/218/31 217/217/31
f 214/214/31 215/215/31 218/218/31
f 216/216/2 219/219/2 218/218/2
f 216/216/2 218/218/2 215/215/2
f 217/217/32 221/221/32 220/220/32
f 217/217/32 218/218/32 221/221/32
f 219/219/2 222/222/2 221/221/2
f 219/219/2 221/221/2 218/218/2
f 220/220/32 224/224/32 223/223/32
f 220/220/32 221/221/32 224/224/32
f 222/222/2 225/225/2 224/224/2
f 222/222/2 224/224/2 221/221/2
f 223/223/32 227/227/32 226/226/32
f 223/223/32 224/224/32 227/227/32
f 225/225/2 228/228/2 227/227/2
f 225/225/2 227/227/2 224/224/2
f 226/226/32 230/230/32 229/229/32
f 226/226/32 227/227/32 230/230/32
f 228/228/2 231/231/2 230/230/2
f 228/228/2 230/230/2 227/227/2
f 229/229/32 199/199/32 196/196/32
f 229/229/32 230/230/32 199/199/32
f 231/231/2 200/200/2 199/199/2
f 231/231/2 199/199/2 230/230/2
f 232/232/33 234/234/33 233/233/33
f 232/232/33 235/235/33 234/234/33
f 236/236/2 237/237/2 234/234/2
f 236/236/2 234/234/2 235/235/2
f 233/233/34 239/239/34 238/238/34
f 233/233/34 234/234/34 239/239/34
f 237/237/2 240/240/2 239/239/2
f 237/237/2 239/239/2 234/234/2
f 241/241/35 243/243/35 242/242/35
f 241/241/35 244/244/35 243/243/35
f 245/245/2 246/246/2 243/243/2
f 245/245/2 243/243/2 244/244/2
f 242/242/36 248/248/36 247/247/36
f 242/242/36 243/243/36 248/248/36
f 246/246/2 249/249/2 248/248/2
f 246/246/2 248/248/2 243/243/2
f 247/247/36 235/235/36 232/232/36
f 247/247/36 248/248/36 235/235/36
f 249/249/2 236/236/2 235/235/2
f 249/249/2 235/235/2 248/248/2
f 250/250/33 252/252/33 251/251/33
f 250/250/33 253/253/33 252/252/33
f 254/254/2 255/255/2 252/252/2
f 254/254/2 252/252/2 253/253/2
f 256/256/36 253/253/36 250/250/36
f 256/256/36 257/257/36 253/253/36
f 258/258/2 254/254/2 253/253/2
f 258/258/2 253/253/2 257/257/2
f 251/251/37 255/255/37 259/259/37
f 251/251/37 252/252/37 255/255/37
f 256/256/38 260/260/38 258/258/38
f 256/256/38 258/258/38 257/257/38
f 261/261/39 263/263/39 262/262/39
f 261/261/39 264/264/39 263/263/39
f 265/265/2 266/266/2 263/263/2
f 265/265/2 263/263/2 264/264/2
f 267/267/40 269/269/40 268/268/40
f 267/267/40 270/270/40 269/269/40
f 271/271/2 272/272/2 269/269/2
f 271/271/2 269/269/2 270/270/2
f 268/268/40 274/274/40 273/273/40
f 268/268/40 269/269/40 274/274/40
f 272/272/2 275/275/2 274/274/2
f 272/272/2 274/274/2 269/269/2
f 273/273/41 277/277/41 276/276/41
f 273/273/41 274/274/41 277/277/41
f 275/275/2 278/278/2 277/277/2
f 275/275/2 277/277/2 274/274/2
f 276/276/42 264/264/42 261/261/42
f 276/276/42 277/277/42 264/264/42
f 278/278/2 265/265/2 264/264/2
f 278/278/2 264/264/2 277/277/2
f 279/279/41 281/281/41 280/280/41
f 279/279/41 282/282/41 281/281/41
f 283/283/2 284/284/2 281/281/2
f 283/283/2 281/281/2 282/282/2
f 280/280/42 286/286/42 285/285/42
f 280/280/42 281/281/42 286/286/42
f 284/284/2 287/287/2 286/286/2
f 284/284/2 286/286/2 281/281/2
f 279/279/43 288/288/43 283/283/43
f 279/279/43 283/283/43 282/282/43
f 285/285/44 287/287/44 289/289/44
f 285/285/44 286/286/44 287/287/44
f 290/290/4 292/292/4 291/291/4
f 290/290/4 293/293/4 292/292/4
f 294/294/2 295/295/2 292/292/2
f 294/294/2 292/292/2 293/293/2
f 296/296/5 298/298/5 297/297/5
f 296/296/5 299/299/5 298/298/5
f 300/300/2 301/301/2 298/298/2
f 300/300/2 298/298/2 299/299/2
f 297/297/6 303/303/6 302/302/6
f 297/297/6 298/298/6 303/303/6
f 301/301/2 304/304/2 303/303/2
f 301/301/2 303/303/2 298/298/2
f 302/302/6 306/306/6 305/305/6
f 302/302/6 303/303/6 306/306/6
f 304/304/2 307/307/2 306/306/2
f 304/304/2 306/306/2 303/303/2
f 305/305/7 309/309/7 308/308/7
f 305/305/7 306/306/7 309/309/7
f 307/307/2 310/310/2 309/309/2
f 307/307/2 309/309/2 306/306/2
f 308/308/7 312/312/7 311/311/7
f 308/308/7 309/309/7 312/312/7
f 310/310/2 313/313/2 312/312/2
f 310/310/2 312/312/2 309/309/2
f 311/311/7 293/293/7 290/290/7
f 311/311/7 312/312/7 293/293/7
f 313/313/2 294/294/2 293/293/2
f 313/313/2 293/293/2 312/312/2
f 314/314/6 316/316/6 315/315/6
f 314/314/6 317/317/6 316/316/6
f 318/318/2 319/319/2 316/316/2
f 318/318/2 316/316/2 317/317/2
f 315/315/6 321/321/6 320/320/6
f 315/315/6 316/316/6 321/321/6
f 319/319/2 322/322/2 321/321/2
f 319/319/2 321/321/2 316/316/2
f 320/320/6 324/324/6 323/323/6
f 320/320/6 325/325/6 324/324/6
f 326/326/2 327/327/2 324/324/2
f 326/326/2 324/324/2 325/325/2
f 323/323/7 329/329/7 328/328/7
f 323/323/7 324/324/7 329/329/7
f 327/327/2 330/330/2 329/329/2
f 327/327/2 329/329/2 324/324/2
f 328/328/7 332/332/7 331/331/7
f 328/328/7 333/333/7 332/332/7
f 334/334/2 335/335/2 332/332/2
f 334/334/2 332/332/2 333/333/2
f 331/331/7 337/337/7 336/336/7
f 331/331/7 332/332/7 337/337/7
f 335/335/2 338/338/2 337/337/2
f 335/335/2 337/337/2 332/332/2
f 336/336/7 340/340/7 339/339/7
f 336/336/7 337/337/7 340/340/7
f 338/338/2 341/341/2 340/340/2
f 338/338/2 340/340/2 337/337/2
f 314/314/45 342/342/45 318/318/45
f 314/314/45 318/318/45 317/317/45
f 325/325/46 322/322/46 326/326/46
f 325/325/46 321/321/46 322/322/46
f 329/329/47 330/330/47 334/334/47
f 329/329/47 334/334/47 333/333/47
f 339/339/48 341/341/48 343/343/48
f 339/339/48 340/340/48 341/341/48
f 344/344/49 346/346/49 345/345/49
f 344/344/49 347/347/49 346/346/49
f 348/348/2 349/349/2 346/346/2
f 348/348/2 346/346/2 347/347/2
f 345/345/49 351/351/49 350/350/49
f 345/345/49 346/346/49 351/351/49
f 349/349/2 352/352/2 351/351/2
f 349/349/2 351/351/2 346/346/2
f 350/350/49 354/354/49 353/353/49
f 350/350/49 351/351/49 354/354/49
f 352/352/2 355/355/2 354/354/2
f 352/352/2 354/354/2 351/351/2
f 353/353/50 357/357/50 356/356/50
f 353/353/50 354/354/50 357/357/50
f 355/355/2 358/358/2 357/357/2
f 355/355/2 357/357/2 354/354/2
f 356/356/50 360/360/50 359/359/50
f 356/356/50 357/357/50 360/360/50
f 358/358/2 361/361/2 360/360/2
f 358/358/2 360/360/2 357/357/2
f 359/359/50 363/363/50 362/362/50
f 359/359/50 360/360/50 363/363/50
f 361/361/2 364/364/2 363/363/2
f 361/361/2 363/363/2 360/360/2
f 362/362/51 366/366/51 365/365/51
f 362/362/51 363/363/51 366/366/51
f 364/364/2 367/367/2 366/366/2
f 364/364/2 366/366/2 363/363/2
f 365/365/51 369/369/51 368/368/51
f 365/365/51 366/366/51 369/369/51
f 367/367/2 370/370/2 369/369/2
f 367/367/2 369/369/2 366/366/2
f 368/368/51 372/372/51 371/371/51
f 368/368/51 369/369/51 372/372/51
f 370/370/2 373/373/2 372/372/2
f 370/370/2 372/372/2 369/369/2
f 371/371/52 375/375/52 374/374/52
f 371/371/52 372/372/52 375/375/52
f 373/373/2 376/376/2 375/375/2
f 373/373/2 375/375/2 372/372/2
f 374/374/52 378/378/52 377/377/52
f 374/374/52 375/375/52 378/378/52
f 376/376/2 379/379/2 378/378/2
f 376/376/2 378/378/2 375/375/2
f 377/377/52 347/347/52 344/344/52
f 377/377/52 378/378/52 347/347/52
f 379/379/2 348/348/2 347/347/2
f 379/379/2 347/347/2 378/378/2
f 380/380/53 382/382/53 381/381/53
f 380/380/53 383/383/53 382/382/53
f 384/384/2 385/385/2 382/382/2
f 384/384/2 382/382/2 383/383/2
f 381/381/54 387/387/54 386/386/54
f 381/381/54 382/382/54 387/387/54
f 385/385/2 388/388/2 387/387/2
f 385/385/2 387/387/2 382/382/2
f 386/386/55 390/390/55 389/389/55
f 386/386/55 387/387/55 390/390/55
f 388/388/2 391/391/2 390/390/2
f 388/388/2 390/390/2 387/387/2
f 389/389/55 393/393/55 392/392/55
f 389/389/55 390/390/55 393/393/55
f 391/391/2 394/394/2 393/393/2
f 391/391/2 393/393/2 390/390/2
f 392/392/56 396/396/56 395/395/56
f 392/392/56 393/393/56 396/396/56
f 394/394/2 397/397/2 396/396/2
f 394/394/2 396/396/2 393/393/2
f 395/395/56 383/383/56 380/380/56
f 395/395/56 396/396/56 383/383/56
f 397/397/2 384/384/2 383/383/2
f 397/397/2 383/383/2 396/396/2
f 398/398/57 400/400/57 399/399/57
f 398/398/57 401/401/57 400/400/57
f 402/402/2 403/403/2 400/400/2
f 402/402/2 400/400/2 401/401/2
f 404/404/58 406/406/58 405/405/58
f 404/404/58 407/407/58 406/406/58
f 408/408/2 409/409/2 406/406/2
f 408/408/2 406/406/2 407/407/2
f 405/405/58 411/411/58 410/410/58
f 405/405/58 406/406/58 411/411/58
f 409/409/2 412/412/2 411/411/2
f 409/409/2 411/411/2 406/406/2
f 410/410/21 414/414/21 413/413/21
f 410/410/21 411/411/21 414/414/21
f 412/412/2 415/415/2 414/414/2
f 412/412/2 414/414/2 411/411/2
f 413/413/22 417/417/22 416/416/22
f 413/413/22 414/414/22 417/417/22
f 415/415/2 418/418/2 417/417/2
f 415/415/2 417/417/2 414/414/2
f 416/416/22 401/401/22 398/398/22
f 416/416/22 417/417/22 401/401/22
f 418/418/2 402/402/2 401/401/2
f 418/418/2 401/401/2 417/417/2
f 419/419/59 421/421/59 420/420/59
f 419/419/59 422/422/59 421/421/59
f 423/423/2 424/424/2 421/421/2
f 423/423/2 421/421/2 422/422/2
f 425/425/60 427/427/60 426/426/60
f 425/425/60 428/428/60 427/427/60
f 429/429/2 430/430/2 427/427/2
f 429/429/2 427/427/2 428/428/2
f 426/426/61 432/432/61 431/431/61
f 426/426/61 427/427/61 432/432/61
f 430/430/2 433/433/2 432/432/2
f 430/430/2 432/432/2 427/427/2
f 431/431/61 435/435/61 434/434/61
f 431/431/61 432/432/61 435/435/61
f 433/433/2 436/436/2 435/435/2
f 433/433/2 435/435/2 432/432/2
f 434/434/62 422/422/62 419/419/62
f 434/434/62 435/435/62 422/422/62
f 436/436/2 423/423/2 422/422/2
f 436/436/2 422/422/2 435/435/2
f 437/437/61 439/439/61 438/438/61
f 437/437/61 440/440/61 439/439/61
f 441/441/2 442/442/2 439/439/2
f 441/441/2 439/439/2 440/440/2
f 438/438/61 444/444/61 443/443/61
f 438/438/61 439/439/61 444/444/61
f 442/442/2 445/445/2 444/444/2
f 442/442/2 444/444/2 439/439/2
f 443/443/62 447/447/62 446/446/62
f 443/443/62 444/444/62 447/447/62
f 445/445/2 448/448/2 447/447/2
f 445/445/2 447/447/2 444/444/2
f 446/446/62 450/450/62 449/449/62
f 446/446/62 447/447/62 450/450/62
f 448/448/2 451/451/2 450/450/2
f 448/448/2 450/450/2 447/447/2
f 437/437/63 452/452/63 441/441/63
f 437/437/63 441/441/63 440/440/63
f 449/449/64 451/451/64 453/453/64
f 449/449/64 450/450/64 451/451/64
f 454/454/65 456/456/65 455/455/65
f 454/454/65 457/457/65 456/456/65
f 458/458/2 459/459/2 456/456/2
f 458/458/2 456/456/2 457/457/2
f 455/455/65 461/461/65 460/460/65
f 455/455/65 456/456/65 461/461/65
f 459/459/2 462/462/2 461/461/2
f 459/459/2 461/461/2 456/456/2
f 460/460/66 464/464/66 463/463/66
f 460/460/66 461/461/66 464/464/66
f 462/462/2 465/465/2 464/464/2
f 462/462/2 464/464/2 461/461/2
f 463/463/66 467/467/66 466/466/66
f 463/463/66 464/464/66 467/467/66
f 465/465/2 468/468/2 467/467/2
f 465/465/2 467/467/2 464/464/2
f 466/466/67 470/470/67 469/469/67
f 466/466/67 467/467/67 470/470/67
f 468/468/2 471/471/2 470/470/2
f 468/468/2 470/470/2 467/467/2
f 469/469/67 473/473/67 472/472/67
f 469/469/67 470/470/67 473/473/67
f 471/471/2 474/474/2 473/473/2
f 471/471/2 473/473/2 470/470/2
f 472/472/68 476/476/68 475/475/68
f 472/472/68 473/473/68 476/476/68
f 474/474/2 477/477/2 476/476/2
f 474/474/2 476/476/2 473/473/2
f 478/478/69 480/480/69 479/479/69
f 478/478/69 481/481/69 480/480/69
f 482/482/2 483/483/2 480/480/2
f 482/482/2 480/480/2 481/481/2
f 479/479/70 485/485/70 484/484/70
f 479/479/70 480/480/70 485/485/70
f 483/483/2 486/486/2 485/485/2
f 483/483/2 485/485/2 480/480/2
f 484/484/71 488/488/71 487/487/71
f 484/484/71 485/485/71 488/488/71
f 486/486/2 489/489/2 488/488/2
f 486/486/2 488/488/2 485/485/2
f 487/487/72 481/481/72 478/478/72
f 487/487/72 488/488/72 481/481/72
f 489/489/2 482/482/2 481/481/2
f 489/489/2 481/481/2 488/488/2
f 490/490/73 492/492/73 491/491/73
f 490/490/73 493/493/73 492/492/73
f 494/494/2 495/495/2 492/492/2
f 494/494/2 492/492/2 493/493/2
f 491/491/73 497/497/73 496/496/73
f 491/491/73 492/492/73 497/497/73
f 495/495/2 498/498/2 497/497/2
f 495/495/2 497/497/2 492/492/2
f 496/496/73 500/500/73 499/499/73
f 496/496/73 497/497/73 500/500/73
f 498/498/2 501/501/2 500/500/2
f 498/498/2 500/500/2 497/497/2
f 499/499/73 503/503/73 502/502/73
f 499/499/73 500/500/73 503/503/73
f 501/501/2 504/504/2 503/503/2
f 501/501/2 503/503/2 500/500/2
f 502/502/74 506/506/74 505/505/74
f 502/502/74 503/503/74 506/506/74
f 504/504/2 507/507/2 506/506/2
f 504/504/2 506/506/2 503/503/2
f 505/505/74 509/509/74 508/508/74
f 505/505/74 506/506/74 509/509/74
f 507/507/2 510/510/2 509/509/2
f 507/507/2 509/509/2 506/506/2
f 508/508/75 512/512/75 511/511/75
f 508/508/75 509/509/75 512/512/75
f 510/510/2 513/513/2 512/512/2
f 510/510/2 512/512/2 509/509/2
f 511/511/75 515/515/75 514/514/75
f 511/511/75 512/512/75 515/515/75
f 513/513/2 516/516/2 515/515/2
f 513/513/2 515/515/2 512/512/2
f 514/514/75 518/518/75 517/517/75
f 514/514/75 515/515/75 518/518/75
f 516/516/2 519/519/2 518/518/2
f 516/516/2 518/518/2 515/515/2
f 520/520/17 522/522/17 521/521/17
f 520/520/17 523/523/17 522/522/17
f 524/524/2 525/525/2 522/522/2
f 524/524/2 522/522/2 523/523/2
f 521/521/18 527/527/18 526/526/18
f 521/521/18 522/522/18 527/527/18
f 525/525/2 528/528/2 527/527/2
f 525/525/2 527/527/2 522/522/2
f 526/526/18 530/530/18 529/529/18
f 526/526/18 527/527/18 530/530/18
f 528/528/2 531/531/2 530/530/2
f 528/528/2 530/530/2 527/527/2
f 529/529/19 533/533/19 532/532/19
f 529/529/19 530/530/19 533/533/19
f 531/531/2 534/534/2 533/533/2
f 531/531/2 533/533/2 530/530/2
f 532/532/19 536/536/19 535/535/19
f 532/532/19 533/533/19 536/536/19
f 534/534/2 537/537/2 536/536/2
f 534/534/2 536/536/2 533/533/2
f 538/538/69 540/540/69 539/539/69
f 538/538/69 541/541/69 540/540/69
f 542/542/2 543/543/2 540/540/2
f 542/542/2 540/540/2 541/541/2
f 539/539/69 545/545/69 544/544/69
f 539/539/69 540/540/69 545/545/69
f 543/543/2 546/546/2 545/545/2
f 543/543/2 545/545/2 540/540/2
f 544/544/70 548/548/70 547/547/70
f 544/544/70 545/545/70 548/548/70
f 546/546/2 549/549/2 548/548/2
f 546/546/2 548/548/2 545/545/2
f 547/547/71 551/551/71 550/550/71
f 547/547/71 548/548/71 551/551/71
f 549/549/2 552/552/2 551/551/2
f 549/549/2 551/551/2 548/548/2
f 550/550/71 554/554/71 553/553/71
f 550/550/71 551/551/71 554/554/71
f 552/552/2 555/555/2 554/554/2
f 552/552/2 554/554/2 551/551/2
f 553/553/72 541/541/72 538/538/72
f 553/553/72 554/554/72 541/541/72
f 555/555/2 542/542/2 541/541/2
f 555/555/2 541/541/2 554/554/2
f 556/556/76 558/558/76 557/557/76
f 556/556/76 559/559/76 558/558/76
f 560/560/2 561/561/2 558/558/2
f 560/560/2 558/558/2 559/559/2
f 562/562/77 564/564/77 563/563/77
f 562/562/77 565/565/77 564/564/77
f 566/566/2 567/567/2 564/564/2
f 566/566/2 564/564/2 565/565/2
f 563/563/78 569/569/78 568/568/78
f 563/563/78 564/564/78 569/569/78
f 567/567/2 570/570/2 569/569/2
f 567/567/2 569/569/2 564/564/2
f 568/568/79 559/559/79 556/556/79
f 568/568/79 569/569/79 559/559/79
f 570/570/2 560/560/2 559/559/2
f 570/570/2 559/559/2 569/569/2
f 571/571/56 573/573/56 572/572/56
f 571/571/56 574/574/56 573/573/56
f 575/575/2 576/576/2 573/573/2
f 575/575/2 573/573/2 574/574/2
f 572/572/53 578/578/53 577/577/53
f 572/572/53 573/573/53 578/578/53
f 576/576/2 579/579/2 578/578/2
f 576/576/2 578/578/2 573/573/2
f 577/577/53 581/581/53 580/580/53
f 577/577/53 578/578/53 581/581/53
f 579/579/2 582/582/2 581/581/2
f 579/579/2 581/581/2 578/578/2
f 580/580/54 584/584/54 583/583/54
f 580/580/54 581/581/54 584/584/54
f 582/582/2 585/585/2 584/584/2
f 582/582/2 584/584/2 581/581/2
f 583/583/54 587/587/54 586/586/54
f 583/583/54 584/584/54 587/587/54
f 585/585/2 588/588/2 587/587/2
f 585/585/2 587/587/2 584/584/2
f 586/586/55 574/574/55 571/571/55
f 586/586/55 587/587/55 574/574/55
f 588/588/2 575/575/2 574/574/2
f 588/588/2 574/574/2 587/587/2
f 589/589/4 591/591/4 590/590/4
f 589/589/4 592/592/4 591/591/4
f 593/593/2 594/594/2 591/591/2
f 593/593/2 591/591/2 592/592/2
f 595/595/5 597/597/5 596/596/5
f 595/595/5 598/598/5 597/597/5
f 599/599/2 600/600/2 597/597/2
f 599/599/2 597/597/2 598/598/2
f 596/596/6 602/602/6 601/601/6
f 596/596/6 597/597/6 602/602/6
f 600/600/2 603/603/2 602/602/2
f 600/600/2 602/602/2 597/597/2
f 601/601/6 605/605/6 604/604/6
f 601/601/6 602/602/6 605/605/6
f 603/603/2 606/606/2 605/605/2
f 603/603/2 605/605/2 602/602/2
f 604/604/7 608/608/7 607/607/7
f 604/604/7 605/605/7 608/608/7
f 606/606/2 609/609/2 608/608/2
f 606/606/2 608/608/2 605/605/2
f 607/607/7 592/592/7 589/589/7
f 607/607/7 608/608/7 592/592/7
f 609/609/2 593/593/2 592/592/2
f 609/609/2 592/592/2 608/608/2
f 610/610/59 612/612/59 611/611/59
f 610/610/59 613/613/59 612/612/59
f 614/614/2 615/615/2 612/612/2
f 614/614/2 612/612/2 613/613/2
f 616/616/60 618/618/60 617/617/60
f 616/616/60 619/619/60 618/618/60
f 620/620/2 621/621/2 618/618/2
f 620/620/2 618/618/2 619/619/2
f 617/617/61 623/623/61 622/622/61
f 617/617/61 618/618/61 623/623/61
f 621/621/2 624/624/2 623/623/2
f 621/621/2 623/623/2 618/618/2
f 622/622/62 626/626/62 625/625/62
f 622/622/62 623/623/62 626/626/62
f 624/624/2 627/627/2 626/626/2
f 624/624/2 626/626/2 623/623/2
f 625/625/62 613/613/62 610/610/62
f 625/625/62 626/626/62 613/613/62
f 627/627/2 614/614/2 613/613/2
f 627/627/2 613/613/2 626/626/2
f 628/628/80 630/630/80 629/629/80
f 628/628/80 631/631/80 630/630/80
f 632/632/2 633/633/2 630/630/2
f 632/632/2 630/630/2 631/631/2
f 629/629/81 635/635/81 634/634/81
f 629/629/81 630/630/81 635/635/81
f 633/633/2 636/636/2 635/635/2
f 633/633/2 635/635/2 630/630/2
f 634/634/81 638/638/81 637/637/81
f 634/634/81 635/635/81 638/638/81
f 636/636/2 639/639/2 638/638/2
f 636/636/2 638/638/2 635/635/2
f 637/637/82 641/641/82 640/640/82
f 637/637/82 638/638/82 641/641/82
f 639/639/2 642/642/2 641/641/2
f 639/639/2 641/641/2 638/638/2
f 640/640/83 644/644/83 643/643/83
f 640/640/83 641/641/83 644/644/83
f 642/642/2 645/645/2 644/644/2
f 642/642/2 644/644/2 641/641/2
f 643/643/83 631/631/83 628/628/83
f 643/643/83 644/644/83 631/631/83
f 645/645/2 632/632/2 631/631/2
f 645/645/2 631/631/2 644/644/2
f 646/646/77 648/648/77 647/647/77
f 646/646/77 649/649/77 648/648/77
f 650/650/2 651/651/2 648/648/2
f 650/650/2 648/648/2 649/649/2
f 647/647/77 653/653/77 652/652/77
f 647/647/77 648/648/77 653/653/77
f 651/651/2 654/654/2 653/653/2
f 651/651/2 653/653/2 648/648/2
f 652/652/78 656/656/78 655/655/78
f 652/652/78 653/653/78 656/656/78
f 654/654/2 657/657/2 656/656/2
f 654/654/2 656/656/2 653/653/2
f 655/655/79 659/659/79 658/658/79
f 655/655/79 656/656/79 659/659/79
f 657/657/2 660/660/2 659/659/2
f 657/657/2 659/659/2 656/656/2
f 658/658/79 662/662/79 661/661/79
f 658/658/79 659/659/79 662/662/79
f 660/660/2 663/663/2 662/662/2
f 660/660/2 662/662/2 659/659/2
f 661/661/76 649/649/76 646/646/76
f 661/661/76 662/662/76 649/649/76
f 663/663/2 650/650/2 649/649/2
f 663/663/2 649/649/2 662/662/2
