# Unreal legacy OBJ adapter: canonical vertices are UE cm; this file is written with Y reflected and triangle winding reversed. One object, no g groups, so the importer creates exactly one material slot.
# OldCityFoundationV2 foundations (plinth + stepped footing); generator 463404ba754c804f514fe655944ece4eb51a92e1273fec326ad5c2ebfbb18f24
# AUTHORED detail in the style of Old City stone foundations, not survey
o SM_OldCityFoundationV2_Kept_P002_N004
s off
v 122854.74 198147.06 -1235.40
v 122868.70 198310.22 -1249.57
v 122868.70 198310.22 -1210.40
v 122854.74 198147.06 -1210.40
v 122862.28 198141.27 -1210.40
v 122875.99 198301.57 -1210.40
v 123375.49 198267.07 -1286.66
v 123375.49 198267.07 -1210.40
v 123376.84 198258.93 -1210.40
v 124056.97 198209.05 -1282.02
v 124056.97 198209.05 -1210.40
v 124050.35 198201.59 -1210.40
v 124229.63 198194.36 -1265.85
v 124229.63 198194.36 -1210.40
v 124220.98 198187.06 -1210.40
v 124212.74 197995.57 -1235.40
v 124212.74 197995.57 -1210.40
v 124204.39 197991.76 -1210.40
vt -188.2308 -3.0885
vt -188.6038 -3.1239
vt -188.6038 -3.0260
vt -188.2308 -3.0260
vt -188.1975 -3.0260
vt -188.5640 -3.0260
vt -187.2289 -3.2167
vt -187.2289 -3.0260
vt -187.2052 -3.0260
vt -185.3802 -3.2050
vt -185.3802 -3.0260
vt -185.3781 -3.0260
vt -184.9118 -3.1646
vt -184.9118 -3.0260
vt -184.9152 -3.0260
vt -184.4571 -3.0885
vt -184.4571 -3.0260
vt -184.4684 -3.0260
vn -0.9964 0.0852 0.0000
vn 0.0000 -0.0000 1.0000
vn 0.0848 0.9964 0.0000
vn 0.9964 -0.0847 0.0000
f 1/1/1 3/3/1 2/2/1
f 1/1/1 4/4/1 3/3/1
f 5/5/2 6/6/2 3/3/2
f 5/5/2 3/3/2 4/4/2
f 2/2/3 8/8/3 7/7/3
f 2/2/3 3/3/3 8/8/3
f 6/6/2 9/9/2 8/8/2
f 6/6/2 8/8/2 3/3/2
f 7/7/3 11/11/3 10/10/3
f 7/7/3 8/8/3 11/11/3
f 9/9/2 12/12/2 11/11/2
f 9/9/2 11/11/2 8/8/2
f 10/10/3 14/14/3 13/13/3
f 10/10/3 11/11/3 14/14/3
f 12/12/2 15/15/2 14/14/2
f 12/12/2 14/14/2 11/11/2
f 13/13/4 17/17/4 16/16/4
f 13/13/4 14/14/4 17/17/4
f 15/15/2 18/18/2 17/17/2
f 15/15/2 17/17/2 14/14/2
