# Unreal legacy OBJ adapter: canonical vertices are UE cm; this file is written with Y reflected and triangle winding reversed. One object, no g groups, so the importer creates exactly one material slot.
# OldCityFoundationV2 foundations (plinth + stepped footing); generator 463404ba754c804f514fe655944ece4eb51a92e1273fec326ad5c2ebfbb18f24
# AUTHORED detail in the style of Old City stone foundations, not survey
o SM_OldCityFoundationV2_Kept_N005_P001
s off
v -246381.60 -88359.07 375.90
v -246624.51 -88147.08 345.51
v -246624.51 -88147.08 400.90
v -246381.60 -88359.07 400.90
v -246382.37 -88347.79 400.90
v -246625.28 -88135.79 400.90
v -246984.77 -87832.68 358.09
v -246984.77 -87832.68 400.90
v -246985.54 -87821.39 400.90
v -246992.74 -87825.72 357.77
v -246992.74 -87825.72 400.90
v -246993.51 -87814.43 400.90
v -247093.85 -87941.77 353.73
v -247093.85 -87941.77 400.90
v -247094.63 -87930.48 400.90
v -247273.74 -88148.22 345.47
v -247273.74 -88148.22 400.90
v -247274.51 -88136.93 400.90
v -247287.93 -88135.85 345.96
v -247287.93 -88135.85 400.90
v -247288.63 -88124.62 400.90
v -248048.34 -87472.43 315.55
v -248048.34 -87472.43 400.90
v -248045.22 -87464.53 400.90
v -248623.08 -86971.00 372.79
v -248623.08 -86971.00 400.90
v -248617.08 -86965.62 400.90
v -248749.16 -86861.00 375.90
v -248749.16 -86861.00 400.90
v -248742.53 -86856.17 400.90
v -246824.77 -75742.28 1794.50
v -246892.01 -75860.83 1762.72
v -246892.01 -75860.83 1819.50
v -246824.77 -75742.28 1819.50
v -246828.16 -75732.05 1819.50
v -246895.02 -75849.93 1819.50
v -247288.55 -75636.47 1760.01
v -247288.55 -75636.47 1819.50
v -247286.94 -75628.19 1819.50
v -247906.81 -75286.67 1794.50
v -247906.81 -75286.67 1819.50
v -247897.97 -75282.48 1819.50
v -245269.91 -71053.42 2667.25
v -245221.25 -70930.48 2698.70
v -245221.25 -70930.48 2723.70
v -245269.91 -71053.42 2723.70
v -245259.52 -71048.93 2723.70
v -245211.29 -70927.04 2723.70
v -244623.31 -71309.59 2698.70
v -244631.46 -71306.37 2698.24
v -244631.46 -71306.37 2723.70
v -244623.31 -71309.59 2723.70
v -244620.43 -71302.12 2723.70
v -244628.52 -71298.93 2723.70
v -245223.78 -71071.70 2664.71
v -245223.78 -71071.70 2723.70
v -245213.94 -71066.99 2723.70
v -242797.72 -75535.17 2282.46
v -242779.66 -75340.56 2313.60
v -242779.66 -75340.56 2338.60
v -242797.72 -75535.17 2338.60
v -242789.01 -75527.93 2338.60
v -242771.15 -75335.51 2338.60
v -240883.46 -75711.09 2313.60
v -240886.10 -75710.84 2313.43
v -240886.10 -75710.84 2338.60
v -240883.46 -75711.09 2338.60
v -240887.24 -75702.70 2338.60
v -240889.87 -75702.46 2338.60
v -241624.51 -75642.98 2265.21
v -241624.51 -75642.98 2338.60
v -241623.46 -75635.05 2338.60
v -242238.63 -75586.55 2274.24
v -242238.63 -75586.55 2338.60
v -242233.57 -75578.98 2338.60
v -241973.97 -88870.34 930.57
v -242209.74 -88057.66 902.27
v -242209.74 -88057.66 986.20
v -241973.97 -88870.34 986.20
v -241968.51 -88860.43 986.20
v -242202.51 -88053.87 986.20
v -242379.53 -87472.43 912.10
v -242379.53 -87472.43 986.20
v -242371.02 -87473.05 986.20
v -242565.92 -86829.97 948.58
v -242565.92 -86829.97 986.20
v -242556.01 -86835.43 986.20
v -242443.62 -86794.58 961.20
v -242443.62 -86794.58 986.20
v -242434.97 -86800.41 986.20
v -241718.68 -88796.52 961.20
v -241718.68 -88796.52 986.20
v -241715.87 -88787.38 986.20
v -241121.14 -71926.81 2659.80
v -241133.02 -71980.94 2651.14
v -241133.02 -71980.94 2684.80
v -241121.14 -71926.81 2684.80
v -241127.74 -71919.57 2684.80
v -241139.50 -71973.16 2684.80
v -241170.90 -72153.46 2628.92
v -241170.90 -72153.46 2684.80
v -241177.00 -72143.94 2684.80
v -241281.41 -72129.33 2627.40
v -241281.41 -72129.33 2684.80
v -241286.23 -72120.09 2684.80
v -241624.51 -72054.43 2639.38
v -241624.51 -72054.43 2684.80
v -241625.36 -72046.06 2684.80
v -241845.22 -72006.25 2647.09
v -241845.22 -72006.25 2684.80
v -241843.51 -71998.43 2684.80
v -242159.78 -71937.17 2658.14
v -242159.78 -71937.17 2684.80
v -242155.40 -71929.94 2684.80
v -242206.96 -71926.81 2659.80
v -242206.96 -71926.81 2684.80
v -242202.18 -71919.67 2684.80
v -241262.31 -98271.06 1911.80
v -241396.84 -98144.78 1880.50
v -241396.84 -98144.78 1936.80
v -241262.31 -98271.06 1936.80
v -241252.03 -98269.73 1936.80
v -241385.52 -98144.43 1936.80
v -241181.20 -97915.74 1878.89
v -241181.20 -97915.74 1936.80
v -241172.27 -97917.92 1936.80
v -240763.82 -97472.43 1875.78
v -240763.82 -97472.43 1936.80
v -240759.50 -97479.51 1936.80
v -240404.35 -97090.63 1888.38
v -240404.35 -97090.63 1936.80
v -240404.00 -97101.93 1936.80
v -240284.28 -97203.34 1911.80
v -240284.28 -97203.34 1936.80
v -240284.87 -97213.76 1936.80
v -236941.91 -99249.90 2273.10
v -236818.15 -99101.30 2260.22
v -236818.15 -99101.30 2298.10
v -236941.91 -99249.90 2298.10
v -236933.69 -99252.53 2298.10
v -236812.01 -99106.44 2298.10
v -236624.51 -98871.15 2240.35
v -236624.51 -98871.15 2298.10
v -236622.10 -98880.70 2298.10
v -236550.51 -98783.19 2241.63
v -236550.51 -98783.19 2298.10
v -236549.51 -98794.43 2298.10
v -236429.46 -98884.02 2273.10
v -236429.46 -98884.02 2298.10
v -236428.45 -98895.27 2298.10
v -229078.01 -67653.14 2963.41
v -229124.51 -67592.43 2967.70
v -229124.51 -67592.43 3018.80
v -229078.01 -67653.14 3018.80
v -229076.51 -67641.93 3018.80
v -229122.70 -67581.64 3018.80
v -229176.57 -67524.49 2970.42
v -229176.57 -67524.49 3018.80
v -229174.40 -67514.16 3018.80
v -229216.45 -67472.43 2976.18
v -229216.45 -67472.43 3018.80
v -229214.01 -67462.46 3018.80
v -229338.47 -67313.16 2993.80
v -229338.47 -67313.16 3018.80
v -229335.19 -67304.28 3018.80
v -228313.88 -66800.86 2993.80
v -228184.29 -66969.92 2975.09
v -228184.29 -66969.92 3018.80
v -228313.88 -66800.86 3018.80
v -228324.21 -66800.53 3018.80
v -228195.51 -66968.43 3018.80
v -228661.16 -67334.79 2964.98
v -228661.16 -67334.79 3018.80
v -228666.02 -67328.43 3018.80
v -228841.39 -67472.43 2961.18
v -228841.39 -67472.43 3018.80
v -228843.50 -67463.98 3018.80
v -229001.92 -67595.03 2962.69
v -229001.92 -67595.03 3018.80
v -229001.59 -67584.71 3018.80
v -229507.63 -77574.59 2133.68
v -229593.82 -77472.43 2134.96
v -229593.82 -77472.43 2189.60
v -229507.63 -77574.59 2189.60
v -229501.51 -77569.43 2189.60
v -229587.14 -77467.95 2189.60
v -230070.30 -76907.75 2164.60
v -230070.30 -76907.75 2189.60
v -230060.48 -76906.97 2189.60
v -228556.06 -78238.39 2164.60
v -228784.98 -78430.69 2147.75
v -228784.98 -78430.69 2189.60
v -228556.06 -78238.39 2189.60
v -228558.61 -78230.09 2189.60
v -228784.01 -78419.43 2189.60
v -229124.51 -78028.45 2150.26
v -229124.51 -78028.45 2189.60
v -229121.13 -78020.05 2189.60
v -229379.02 -77726.94 2131.78
v -229379.02 -77726.94 2189.60
v -229373.83 -77720.70 2189.60
v -227666.14 -79302.58 2189.17
v -228026.44 -78874.35 2160.35
v -228026.44 -78874.35 2217.40
v -227666.14 -79302.58 2217.40
v -227660.01 -79297.43 2217.40
v -228017.07 -78873.06 2217.40
v -228238.80 -78621.95 2161.95
v -228238.80 -78621.95 2217.40
v -228227.52 -78622.93 2217.40
v -228095.38 -78501.57 2172.50
v -228095.38 -78501.57 2217.40
v -228085.64 -78503.84 2217.40
v -227824.91 -78274.54 2192.40
v -227824.91 -78274.54 2217.40
v -227818.08 -78279.25 2217.40
v -227625.76 -79350.58 2192.40
v -227625.76 -79350.58 2217.40
v -227619.98 -79345.03 2217.40
v -227236.61 -94993.69 3301.60
v -227251.25 -94972.43 3297.29
v -227251.25 -94972.43 3326.60
v -227236.61 -94993.69 3326.60
v -227226.30 -94994.55 3326.60
v -227240.75 -94973.58 3326.60
v -227299.15 -94902.87 3277.63
v -227299.15 -94902.87 3326.60
v -227288.01 -94904.93 3326.60
v -226940.22 -94656.73 3271.48
v -226940.22 -94656.73 3326.60
v -226935.74 -94663.36 3326.60
v -226624.51 -94440.24 3266.06
v -226624.51 -94440.24 3326.60
v -226625.89 -94450.88 3326.60
v -226587.44 -94414.81 3269.87
v -226587.44 -94414.81 3326.60
v -226589.50 -94425.93 3326.60
v -226527.63 -94501.68 3301.60
v -226527.63 -94501.68 3326.60
v -226530.49 -94511.64 3326.60
v -226311.38 -75523.07 2453.50
v -226624.51 -75478.23 2432.04
v -226624.51 -75478.23 2478.50
v -226311.38 -75523.07 2478.50
v -226314.09 -75514.60 2478.50
v -226623.33 -75470.31 2478.50
v -227066.95 -75414.87 2419.41
v -227066.95 -75414.87 2478.50
v -227060.26 -75407.75 2478.50
v -227256.57 -75387.72 2422.67
v -227256.57 -75387.72 2478.50
v -227247.51 -75380.93 2478.50
v -227219.68 -75130.77 2453.50
v -227219.68 -75130.77 2478.50
v -227211.16 -75127.73 2478.50
v -224851.24 -64575.09 3017.46
v -225026.10 -64214.02 3038.90
v -225026.10 -64214.02 3063.90
v -224851.24 -64575.09 3063.90
v -224847.51 -64564.43 3063.90
v -225021.27 -64205.64 3063.90
v -224106.88 -63330.07 3038.90
v -223758.82 -64048.14 3024.10
v -223758.82 -64048.14 3063.90
v -224106.88 -63330.07 3063.90
v -224115.36 -63330.90 3063.90
v -223769.51 -64044.43 3063.90
v -224124.51 -64225.13 3002.39
v -224124.51 -64225.13 3063.90
v -224131.22 -64219.49 3063.90
v -224421.04 -64368.64 3008.51
v -224421.04 -64368.64 3063.90
v -224424.51 -64361.43 3063.90
v -224628.67 -64468.28 3012.83
v -224628.67 -64468.28 3063.90
v -224628.67 -64459.41 3063.90
v -225757.38 -72791.57 2681.65
v -225591.67 -72491.36 2712.30
v -225591.67 -72491.36 2737.30
v -225757.38 -72791.57 2737.30
v -225746.51 -72788.43 2737.30
v -225582.90 -72492.03 2737.30
v -224322.61 -73581.24 2712.30
v -224910.02 -73257.94 2678.24
v -224910.02 -73257.94 2737.30
v -224322.61 -73581.24 2737.30
v -224321.09 -73572.95 2737.30
v -224904.68 -73251.75 2737.30
v -225004.64 -53272.79 4208.47
v -225007.46 -53212.43 4213.30
v -225007.46 -53212.43 4238.30
v -225004.64 -53272.79 4238.30
v -224997.02 -53264.43 4238.30
v -224999.80 -53204.93 4238.30
v -223935.17 -52965.77 4213.30
v -223923.16 -53223.56 4182.36
v -223923.16 -53223.56 4238.30
v -223935.17 -52965.77 4238.30
v -223943.36 -52961.78 4238.30
v -223931.52 -53215.93 4238.30
v -224124.51 -53232.73 4181.26
v -224124.51 -53232.73 4238.30
v -224129.90 -53224.96 4238.30
v -224921.07 -53268.98 4208.78
v -224921.07 -53268.98 4238.30
v -224914.68 -53260.68 4238.30
v -224316.19 -55163.67 3964.87
v -224334.92 -54972.43 3980.92
v -224334.92 -54972.43 4017.10
v -224316.19 -55163.67 4017.10
v -224309.01 -55154.93 4017.10
v -224327.53 -54965.79 4017.10
v -224343.75 -54882.18 3992.10
v -224343.75 -54882.18 4017.10
v -224336.27 -54876.52 4017.10
v -222897.59 -54809.10 3992.10
v -222881.72 -54972.43 3972.50
v -222881.72 -54972.43 4017.10
v -222897.59 -54809.10 4017.10
v -222906.10 -54804.26 4017.10
v -222890.40 -54965.80 4017.10
v -222876.79 -55023.12 3968.45
v -222876.79 -55023.12 4017.10
v -222885.52 -55015.93 4017.10
v -223764.24 -55109.89 3961.50
v -223764.24 -55109.89 4017.10
v -223765.02 -55101.93 4017.10
v -223967.27 -55129.68 3959.92
v -223967.27 -55129.68 4017.10
v -223965.12 -55121.43 4017.10
v -224124.51 -55145.00 3958.69
v -224124.51 -55145.00 4017.10
v -224120.10 -55136.53 4017.10
v -224315.71 -55163.62 3964.85
v -224315.71 -55163.62 4017.10
v -224308.53 -55154.89 4017.10
v -222478.68 -72454.70 2838.33
v -223504.56 -71852.48 2797.30
v -223504.56 -71852.48 2865.90
v -222478.68 -72454.70 2865.90
v -222479.52 -72444.93 2865.90
v -223498.93 -71846.51 2865.90
v -224124.51 -71488.55 2811.86
v -224124.51 -71488.55 2865.90
v -224114.97 -71484.88 2865.90
v -224216.13 -71434.77 2810.34
v -224216.13 -71434.77 2865.90
v -224206.01 -71431.44 2865.90
v -224124.51 -71219.95 2822.60
v -224124.51 -71219.95 2865.90
v -224115.41 -71219.00 2865.90
v -223929.40 -70762.43 2840.90
v -223929.40 -70762.43 2865.90
v -223922.47 -70766.57 2865.90
v -222414.51 -72400.31 2840.90
v -222414.51 -72400.31 2865.90
v -222415.95 -72391.04 2865.90
v -221162.12 -71259.93 2891.00
v -221624.51 -70513.24 2872.50
v -221624.51 -70513.24 2945.20
v -221162.12 -71259.93 2945.20
v -221159.52 -71248.93 2945.20
v -221618.29 -70508.10 2945.20
v -221831.34 -70179.26 2864.23
v -221831.34 -70179.26 2945.20
v -221823.49 -70176.74 2945.20
v -221959.41 -69972.43 2872.50
v -221959.41 -69972.43 2945.20
v -221950.56 -69971.54 2945.20
v -222235.04 -69527.33 2890.30
v -222235.04 -69527.33 2945.20
v -222224.02 -69529.93 2945.20
v -222132.76 -69464.19 2892.83
v -222132.76 -69464.19 2945.20
v -222122.90 -69467.51 2945.20
v -221624.51 -69150.47 2905.38
v -221624.51 -69150.47 2945.20
v -221620.45 -69157.36 2945.20
v -221040.43 -68789.93 2919.80
v -221040.43 -68789.93 2945.20
v -221043.02 -68800.93 2945.20
v -220811.36 -69159.28 2905.03
v -220811.36 -69159.28 2945.20
v -220815.75 -69167.38 2945.20
v -220432.01 -69770.93 2920.20
v -220432.01 -69770.93 2945.20
v -220439.38 -69774.23 2945.20
v -220432.01 -70809.55 2920.20
v -220609.30 -70919.24 2913.11
v -220609.30 -70919.24 2945.20
v -220432.01 -70809.55 2945.20
v -220438.10 -70803.91 2945.20
v -220613.50 -70912.43 2945.20
v -220651.63 -70945.32 2911.42
v -220651.63 -70945.32 2945.20
v -220655.31 -70938.19 2945.20
v -222972.85 -80657.15 2746.80
v -223050.33 -80588.06 2732.31
v -223050.33 -80588.06 2771.80
v -222972.85 -80657.15 2771.80
v -222962.34 -80655.81 2771.80
v -223039.01 -80587.43 2771.80
v -222740.97 -80243.10 2715.66
v -222740.97 -80243.10 2771.80
v -222735.01 -80248.43 2771.80
v -222498.94 -79972.43 2702.55
v -222498.94 -79972.43 2771.80
v -222492.98 -79977.77 2771.80
v -222106.97 -79534.10 2733.90
v -222106.97 -79534.10 2771.80
v -222101.00 -79539.43 2771.80
v -222086.13 -79510.82 2735.57
v -222086.13 -79510.82 2771.80
v -222080.60 -79516.63 2771.80
v -221945.76 -79353.98 2746.80
v -221945.76 -79353.98 2771.80
v -221943.15 -79363.05 2771.80
v -221590.27 -97266.93 3758.80
v -221624.51 -97226.55 3752.83
v -221624.51 -97226.55 3783.80
v -221590.27 -97266.93 3783.80
v -221580.54 -97266.04 3783.80
v -221614.48 -97226.01 3783.80
v -221880.84 -96924.26 3728.65
v -221880.84 -96924.26 3783.80
v -221868.51 -96926.43 3783.80
v -221624.51 -96777.89 3716.94
v -221624.51 -96777.89 3783.80
v -221615.84 -96782.15 3783.80
v -221159.56 -96512.38 3732.89
v -221159.56 -96512.38 3783.80
v -221157.52 -96520.43 3783.80
v -220843.18 -96519.84 3758.80
v -220843.18 -96519.84 3783.80
v -220841.81 -96527.88 3783.80
v -221071.55 -95089.87 3626.13
v -221063.44 -94972.43 3617.39
v -221063.44 -94972.43 3681.20
v -221071.55 -95089.87 3681.20
v -221063.01 -95082.43 3681.20
v -221054.97 -94965.87 3681.20
v -221021.87 -94369.78 3620.71
v -221021.87 -94369.78 3681.20
v -221013.70 -94367.68 3681.20
v -220938.30 -93158.64 3627.40
v -220938.30 -93158.64 3681.20
v -220930.76 -93165.52 3681.20
v -220922.94 -92935.90 3628.63
v -220922.94 -92935.90 3681.20
v -220915.50 -92944.43 3681.20
v -220578.26 -92959.56 3656.20
v -220578.26 -92959.56 3681.20
v -220575.44 -92967.77 3681.20
v -220719.74 -95113.90 3656.20
v -220719.74 -95113.90 3681.20
v -220715.94 -95106.14 3681.20
v -219868.40 -69013.34 2942.74
v -219988.87 -68336.79 2937.93
v -219988.87 -68336.79 2998.10
v -219868.40 -69013.34 2998.10
v -219860.52 -69011.93 2998.10
v -219980.06 -68340.63 2998.10
v -220049.30 -67997.46 2951.50
v -220049.30 -67997.46 2998.10
v -220040.02 -68003.93 2998.10
v -219562.99 -67910.90 2954.96
v -219562.99 -67910.90 2998.10
v -219559.03 -67918.32 2998.10
v -219124.51 -67832.86 2972.50
v -219124.51 -67832.86 2998.10
v -219125.37 -67841.14 2998.10
v -218818.54 -67778.40 2972.50
v -218818.54 -67778.40 2998.10
v -218822.75 -67787.28 2998.10
v -218612.04 -67741.65 2972.50
v -218612.04 -67741.65 2998.10
v -218618.51 -67750.93 2998.10
v -218558.93 -68038.01 2972.50
v -218558.93 -68038.01 2998.10
v -218565.98 -68044.03 2998.10
v -218355.73 -69171.90 2972.50
v -218355.73 -69171.90 2998.10
v -218365.02 -69165.43 2998.10
v -218902.74 -69269.89 2972.50
v -218902.74 -69269.89 2998.10
v -218912.01 -69263.43 2998.10
v -218829.99 -69677.91 2972.50
v -218829.99 -69677.91 2998.10
v -218839.27 -69671.44 2998.10
v -218827.72 -69690.64 2973.10
v -218827.72 -69690.64 2998.10
v -218837.00 -69684.17 2998.10
v -219479.52 -70697.43 2973.10
v -219564.99 -70712.72 2966.87
v -219564.99 -70712.72 2998.10
v -219479.52 -70697.43 2998.10
v -219475.12 -70688.52 2998.10
v -219558.52 -70703.43 2998.10
v -219610.41 -70458.33 2953.06
v -219610.41 -70458.33 2998.10
v -219603.73 -70450.23 2998.10
v -219697.16 -69972.43 2949.59
v -219697.16 -69972.43 2998.10
v -219690.08 -69966.58 2998.10
v -219821.63 -69275.32 2944.62
v -219821.63 -69275.32 2998.10
v -219813.97 -69272.70 2998.10
v -219688.93 -90178.00 3790.42
v -219677.99 -89972.43 3783.94
v -219677.99 -89972.43 3846.50
v -219688.93 -90178.00 3846.50
v -219680.52 -90170.43 3846.50
v -219669.71 -89967.50 3846.50
v -219650.00 -89446.94 3788.42
v -219650.00 -89446.94 3846.50
v -219642.09 -89448.75 3846.50
v -219622.58 -88932.02 3792.81
v -219622.58 -88932.02 3846.50
v -219615.02 -88940.43 3846.50
v -219443.26 -88941.45 3821.50
v -219443.26 -88941.45 3846.50
v -219435.70 -88949.85 3846.50
v -219497.19 -90188.13 3821.50
v -219497.19 -90188.13 3846.50
v -219490.12 -90180.49 3846.50
v -217192.01 -65247.04 2817.90
v -216870.75 -65011.48 2792.20
v -216870.75 -65011.48 2842.90
v -217192.01 -65247.04 2842.90
v -217191.55 -65256.62 2842.90
v -216866.02 -65017.93 2842.90
v -216817.40 -64972.43 2787.93
v -216817.40 -64972.43 2842.90
v -216813.25 -64979.31 2842.90
v -216706.03 -64890.92 2782.28
v -216706.03 -64890.92 2842.90
v -216703.09 -64898.68 2842.90
v -216624.51 -64831.26 2778.15
v -216624.51 -64831.26 2842.90
v -216622.46 -64839.67 2842.90
v -216276.80 -64576.77 2788.33
v -216276.80 -64576.77 2842.90
v -216278.52 -64587.94 2842.90
v -216256.49 -64604.41 2787.22
v -216256.49 -64604.41 2842.90
v -216258.46 -64615.25 2842.90
v -215986.11 -64972.43 2798.04
v -215986.11 -64972.43 2842.90
v -215991.35 -64978.81 2842.90
v -215852.70 -65154.03 2817.90
v -215852.70 -65154.03 2842.90
v -215859.56 -65158.20 2842.90
v -218062.18 -55668.74 4014.99
v -218091.59 -54972.43 4013.82
v -218091.59 -54972.43 4070.30
v -218062.18 -55668.74 4070.30
v -218054.52 -55660.43 4070.30
v -218083.68 -54970.17 4070.30
v -218102.84 -54706.32 4045.30
v -218102.84 -54706.32 4070.30
v -218094.83 -54706.37 4070.30
v -217304.51 -55637.95 4045.30
v -217474.18 -55645.43 4038.51
v -217474.18 -55645.43 4070.30
v -217304.51 -55637.95 4070.30
v -217307.03 -55630.06 4070.30
v -217474.51 -55637.43 4070.30
v -215765.87 -61957.85 2996.00
v -215754.87 -62090.24 2964.23
v -215754.87 -62090.24 3021.00
v -215765.87 -61957.85 3021.00
v -215774.38 -61952.04 3021.00
v -215763.50 -62082.93 3021.00
v -216286.61 -62134.53 2953.60
v -216286.61 -62134.53 3021.00
v -216290.81 -62126.85 3021.00
v -216624.51 -62162.67 2959.23
v -216624.51 -62162.67 3021.00
v -216625.90 -62154.76 3021.00
v -216711.36 -62169.91 2964.15
v -216711.36 -62169.91 3021.00
v -216712.01 -62161.93 3021.00
v -216910.73 -62186.22 2975.54
v -216910.73 -62186.22 3021.00
v -216909.86 -62178.12 3021.00
v -217269.21 -62215.56 2996.00
v -217269.21 -62215.56 3021.00
v -217265.60 -62207.24 3021.00
v -215491.16 -62113.75 2958.58
v -215488.10 -62077.02 2967.40
v -215488.10 -62077.02 2992.40
v -215491.16 -62113.75 2992.40
v -215482.52 -62106.44 2992.40
v -215479.49 -62070.12 2992.40
v -213346.84 -62268.15 2967.40
v -213348.70 -62290.56 2963.66
v -213348.70 -62290.56 2992.40
v -213346.84 -62268.15 2992.40
v -213354.17 -62259.77 2992.40
v -213356.01 -62281.93 2992.40
v -213897.33 -62245.24 2927.03
v -213897.33 -62245.24 2992.40
v -213900.16 -62236.98 2992.40
v -214124.51 -62226.48 2931.53
v -214124.51 -62226.48 2992.40
v -214125.49 -62218.37 2992.40
v -214325.17 -62209.91 2935.51
v -214325.17 -62209.91 2992.40
v -214324.51 -62201.93 2992.40
v -214392.60 -62204.34 2936.84
v -214392.60 -62204.34 2992.40
v -214391.48 -62196.41 2992.40
v -213177.38 -59206.18 3595.10
v -213161.90 -59400.78 3563.97
v -213161.90 -59400.78 3620.10
v -213177.38 -59206.18 3620.10
v -213185.79 -59201.36 3620.10
v -213170.51 -59393.43 3620.10
v -213586.47 -59434.38 3558.59
v -213586.47 -59434.38 3620.10
v -213591.69 -59426.77 3620.10
v -214124.51 -59476.97 3591.41
v -214124.51 -59476.97 3620.10
v -214125.45 -59469.02 3620.10
v -214300.19 -59490.88 3595.10
v -214300.19 -59490.88 3620.10
v -214299.72 -59482.82 3620.10
v -214376.05 -70224.69 3102.80
v -214376.46 -70224.38 3102.73
v -214376.46 -70224.38 3127.80
v -214376.05 -70224.69 3127.80
v -214364.92 -70223.08 3127.80
v -214365.33 -70222.77 3127.80
v -214390.22 -70213.99 3101.49
v -214390.22 -70213.99 3127.80
v -214379.00 -70212.43 3127.80
v -214207.26 -69972.43 3072.50
v -214207.26 -69972.43 3127.80
v -214198.19 -69973.71 3127.80
v -214171.60 -69925.35 3070.62
v -214171.60 -69925.35 3127.80
v -214162.95 -69927.18 3127.80
v -214124.51 -69863.19 3068.13
v -214124.51 -69863.19 3127.80
v -214116.42 -69865.75 3127.80
v -213977.88 -69669.60 3072.12
v -213977.88 -69669.60 3127.80
v -213971.51 -69674.43 3127.80
v -213664.56 -69257.75 3080.71
v -213664.56 -69257.75 3127.80
v -213663.01 -69268.94 3127.80
v -213519.42 -69367.34 3096.70
v -213519.42 -69367.34 3127.80
v -213518.69 -69377.91 3127.80
v -213485.63 -69392.85 3102.80
v -213485.63 -69392.85 3127.80
v -213485.08 -69403.28 3127.80
v -213395.66 -79632.85 3959.96
v -213187.59 -79216.70 3984.93
v -213187.59 -79216.70 4015.60
v -213395.66 -79632.85 4015.60
v -213388.50 -79636.43 4015.60
v -213184.01 -79227.43 4015.60
v -213140.35 -79240.32 3990.60
v -213140.35 -79240.32 4015.60
v -213137.14 -79250.87 4015.60
v -213564.72 -80396.80 3990.60
v -213736.26 -80311.00 3959.72
v -213736.26 -80311.00 4015.60
v -213564.72 -80396.80 4015.60
v -213555.32 -80392.55 4015.60
v -213725.51 -80307.43 4015.60
v -213566.21 -79972.43 3939.50
v -213566.21 -79972.43 4015.60
v -213557.26 -79972.43 4015.60
v -212605.76 -62946.30 2994.00
v -213052.30 -62472.43 2958.28
v -213052.30 -62472.43 3019.00
v -212605.76 -62946.30 3019.00
v -212597.63 -62943.27 3019.00
v -213041.33 -62472.41 3019.00
v -213106.34 -62415.09 2963.13
v -213106.34 -62415.09 3019.00
v -213095.02 -62415.43 3019.00
v -212972.28 -62289.17 2994.00
v -212972.28 -62289.17 3019.00
v -212962.75 -62291.20 3019.00
v -212664.51 -84622.57 4214.10
v -211912.85 -84835.23 4184.03
v -211912.85 -84835.23 4239.10
v -212664.51 -84622.57 4239.10
v -212659.44 -84632.32 4239.10
v -211915.02 -84842.93 4239.10
v -211702.56 -84894.38 4175.62
v -211702.56 -84894.38 4239.10
v -211706.25 -84901.66 4239.10
v -211624.51 -84916.34 4172.50
v -211624.51 -84916.34 4239.10
v -211628.76 -84923.46 4239.10
v -211580.74 -84928.65 4174.25
v -211580.74 -84928.65 4239.10
v -211585.29 -84935.68 4239.10
v -211425.10 -84972.43 4180.48
v -211425.10 -84972.43 4239.10
v -211430.78 -84979.15 4239.10
v -210838.63 -85137.40 4210.53
v -210838.63 -85137.40 4239.10
v -210848.51 -85142.93 4239.10
v -210873.99 -85261.91 4214.10
v -210873.99 -85261.91 4239.10
v -210883.16 -85264.93 4239.10
v -211413.84 -85801.76 4214.10
v -211484.50 -85781.80 4210.48
v -211484.50 -85781.80 4239.10
v -211413.84 -85801.76 4239.10
v -211419.36 -85791.89 4239.10
v -211490.02 -85771.93 4239.10
v -211520.21 -85908.13 4214.10
v -211520.21 -85908.13 4239.10
v -211525.73 -85898.26 4239.10
v -213184.51 -88110.54 4334.90
v -212669.33 -87472.43 4314.29
v -212669.33 -87472.43 4359.90
v -213184.51 -88110.54 4359.90
v -213177.67 -88114.80 4359.90
v -212667.13 -87482.45 4359.90
v -212559.73 -87336.69 4304.48
v -212559.73 -87336.69 4359.90
v -212558.52 -87347.93 4359.90
v -212391.13 -87472.43 4303.16
v -212391.13 -87472.43 4359.90
v -212391.30 -87482.56 4359.90
v -211966.43 -87814.35 4286.18
v -211966.43 -87814.35 4359.90
v -211970.09 -87821.68 4359.90
v -211624.51 -88089.63 4297.19
v -211624.51 -88089.63 4359.90
v -211630.97 -88094.70 4359.90
v -211038.75 -88561.22 4316.05
v -211038.75 -88561.22 4359.90
v -211050.00 -88562.43 4359.90
v -211418.94 -89032.43 4334.90
v -211418.94 -89032.43 4359.90
v -211427.05 -89029.75 4359.90
v -209643.01 -63559.20 3187.55
v -209902.19 -63250.11 3179.18
v -209902.19 -63250.11 3242.10
v -209643.01 -63559.20 3242.10
v -209642.02 -63547.93 3242.10
v -209899.23 -63241.18 3242.10
v -210554.28 -62472.43 3158.12
v -210554.28 -62472.43 3242.10
v -210546.38 -62469.40 3242.10
v -211000.78 -61939.93 3186.30
v -211000.78 -61939.93 3242.10
v -210989.50 -61940.93 3242.10
v -210829.91 -61797.17 3217.10
v -210829.91 -61797.17 3242.10
v -210820.73 -61799.93 3242.10
v -209382.65 -63341.17 3217.10
v -209382.65 -63341.17 3242.10
v -209385.02 -63332.72 3242.10
v -208121.87 -62116.71 3392.82
v -208421.23 -61769.15 3356.89
v -208421.23 -61769.15 3447.90
v -208121.87 -62116.71 3447.90
v -208121.02 -62105.43 3447.90
v -208418.21 -61760.40 3447.90
v -208895.00 -61219.10 3422.90
v -208895.00 -61219.10 3447.90
v -208888.53 -61214.35 3447.90
v -207871.18 -61901.15 3422.90
v -207871.18 -61901.15 3447.90
v -207874.18 -61893.18 3447.90
v -206495.11 -98564.74 3746.60
v -206535.94 -98808.14 3715.76
v -206535.94 -98808.14 3771.60
v -206495.11 -98564.74 3771.60
v -206502.60 -98561.02 3771.60
v -206542.51 -98798.93 3771.60
v -206624.51 -98793.31 3714.00
v -206624.51 -98793.31 3771.60
v -206630.58 -98784.18 3771.60
v -207755.85 -98603.77 3736.74
v -207755.85 -98603.77 3771.60
v -207755.57 -98595.71 3771.60
v -207903.46 -98579.04 3746.60
v -207903.46 -98579.04 3771.60
v -207902.34 -98571.12 3771.60
v -206546.58 -60828.74 3575.62
v -206624.51 -60749.85 3572.50
v -206624.51 -60749.85 3630.60
v -206546.58 -60828.74 3630.60
v -206546.51 -60817.43 3630.60
v -206623.97 -60739.02 3630.60
v -207010.85 -60358.76 3526.14
v -207010.85 -60358.76 3630.60
v -207007.94 -60350.33 3630.60
v -207392.48 -59972.43 3572.50
v -207392.48 -59972.43 3630.60
v -207387.24 -59966.36 3630.60
v -207801.20 -59558.68 3605.60
v -207801.20 -59558.68 3630.60
v -207793.46 -59555.14 3630.60
v -206303.74 -59558.68 3605.60
v -206257.51 -59605.43 3601.86
v -206257.51 -59605.43 3630.60
v -206303.74 -59558.68 3630.60
v -206311.90 -59561.80 3630.60
v -206265.96 -59608.26 3630.60
v -205894.58 -59972.43 3601.70
v -205894.58 -59972.43 3630.60
v -205905.25 -59973.02 3630.60
v -205797.01 -60071.09 3605.60
v -205797.01 -60071.09 3630.60
v -205808.28 -60071.07 3630.60
v -205797.01 -60089.68 3605.60
v -206154.72 -60442.23 3591.29
v -206154.72 -60442.23 3630.60
v -205797.01 -60089.68 3630.60
v -205808.21 -60089.49 3630.60
v -206161.07 -60437.26 3630.60
v -206209.40 -60496.13 3589.10
v -206209.40 -60496.13 3630.60
v -206215.02 -60490.43 3630.60
v -203187.16 -93462.29 4170.40
v -204124.51 -93324.88 4138.40
v -204124.51 -93324.88 4195.40
v -203187.16 -93462.29 4195.40
v -203193.90 -93453.22 4195.40
v -204131.26 -93315.81 4195.40
v -204867.98 -93215.90 4113.02
v -204867.98 -93215.90 4195.40
v -204874.73 -93206.83 4195.40
v -205864.28 -93069.85 4170.40
v -205864.28 -93069.85 4195.40
v -205871.02 -93060.78 4195.40
v -206772.86 -93422.16 4170.40
v -206816.28 -93714.50 4138.79
v -206816.28 -93714.50 4195.40
v -206772.86 -93422.16 4195.40
v -206779.60 -93413.09 4195.40
v -206823.02 -93705.43 4195.40
v -207140.24 -93667.08 4170.40
v -207140.24 -93667.08 4195.40
v -207145.27 -93658.26 4195.40
v -205408.26 -51745.80 4169.80
v -205836.59 -51684.51 4135.53
v -205836.59 -51684.51 4194.80
v -205408.26 -51745.80 4194.80
v -205403.57 -51738.39 4194.80
v -205829.42 -51677.45 4194.80
v -206163.58 -51637.72 4139.28
v -206163.58 -51637.72 4194.80
v -206154.52 -51630.93 4194.80
v -206108.67 -51256.18 4169.80
v -206108.67 -51256.18 4194.80
v -206100.30 -51254.17 4194.80
v -203008.96 -50780.45 4317.12
v -203063.74 -49972.43 4314.93
v -203063.74 -49972.43 4372.40
v -203008.96 -50780.45 4372.40
v -203001.51 -50771.93 4372.40
v -203055.95 -49969.07 4372.40
v -203092.23 -49552.33 4347.40
v -203092.23 -49552.33 4372.40
v -203084.26 -49551.64 4372.40
v -201732.36 -50599.93 4347.40
v -201725.99 -50693.88 4343.64
v -201725.99 -50693.88 4372.40
v -201732.36 -50599.93 4372.40
v -201740.84 -50593.09 4372.40
v -201734.51 -50686.43 4372.40
v -202390.82 -50738.74 4341.85
v -202390.82 -50738.74 4372.40
v -202391.07 -50730.74 4372.40
vt -395.0563 0.9397
vt -396.1936 0.8638
vt -396.1936 1.0022
vt -395.0563 1.0022
vt -395.0865 1.0022
vt -396.2237 1.0022
vt -397.8802 0.8952
vt -397.8802 1.0022
vt -397.9104 1.0022
vt -397.9175 0.8944
vt -397.9175 1.0022
vt -397.9477 1.0022
vt -397.8802 0.8843
vt -397.8802 1.0022
vt -397.9104 1.0022
vt -397.8138 0.8637
vt -397.8138 1.0022
vt -397.8440 1.0022
vt -397.8802 0.8649
vt -397.8802 1.0022
vt -397.9100 1.0022
vt -401.4398 0.7889
vt -401.4398 1.0022
vt -401.4517 1.0022
vt -404.1302 0.9320
vt -404.1302 1.0022
vt -404.1286 1.0022
vt -404.7204 0.9397
vt -404.7204 1.0022
vt -404.7159 1.0022
vt -427.7062 4.4863
vt -427.5779 4.4068
vt -427.5779 4.5488
vt -427.7062 4.5488
vt -427.7403 4.5488
vt -427.6127 4.5488
vt -429.1302 4.4000
vt -429.1302 4.5488
vt -429.1469 4.5488
vt -431.5504 4.4863
vt -431.5504 4.5488
vt -431.5387 4.5488
vt -435.5412 6.6681
vt -435.7269 6.7467
vt -435.7269 6.8092
vt -435.5412 6.8092
vt -435.5265 6.8092
vt -435.7106 6.8092
vt -433.2843 6.7467
vt -433.3127 6.7456
vt -433.3127 6.8092
vt -433.2843 6.8092
vt -433.2958 6.8092
vt -433.3240 6.8092
vt -435.3802 6.6618
vt -435.3802 6.8092
vt -435.3674 6.8092
vt -418.1564 5.7062
vt -418.5978 5.7840
vt -418.5978 5.8465
vt -418.1564 5.8465
vt -418.1527 5.8465
vt -418.5891 5.8465
vt -412.9309 5.7840
vt -412.9382 5.7836
vt -412.9382 5.8465
vt -412.9309 5.8465
vt -412.9613 5.8465
vt -412.9685 5.8465
vt -414.9538 5.6630
vt -414.9538 5.8465
vt -414.9710 5.8465
vt -416.6302 5.6856
vt -416.6302 5.8465
vt -416.6365 5.8465
vt -382.7591 2.3264
vt -385.3802 2.2557
vt -385.3802 2.4655
vt -382.7591 2.4655
vt -382.7702 2.4655
vt -385.3716 2.4655
vt -387.2678 2.2803
vt -387.2678 2.4655
vt -387.2449 2.4655
vt -389.3399 2.3715
vt -389.3399 2.4655
vt -389.3015 2.4655
vt -389.1226 2.4030
vt -389.1226 2.4655
vt -389.0864 2.4655
vt -382.3054 2.4030
vt -382.3054 2.4655
vt -382.3212 2.4655
vt -422.9858 6.6495
vt -422.8802 6.6278
vt -422.8802 6.7120
vt -422.9858 6.7120
vt -423.0204 6.7120
vt -422.9158 6.7120
vt -422.5436 6.5723
vt -422.5436 6.7120
vt -422.5827 6.7120
vt -422.8802 6.5685
vt -422.8802 6.7120
vt -422.9154 6.7120
vt -423.9252 6.5985
vt -423.9252 6.7120
vt -423.9482 6.7120
vt -424.5974 6.6177
vt -424.5974 6.7120
vt -424.6127 6.7120
vt -425.5565 6.6453
vt -425.5565 6.7120
vt -425.5636 6.7120
vt -425.7004 6.6495
vt -425.7004 6.7120
vt -425.7063 6.7120
vt -357.4781 4.7795
vt -358.1302 4.7012
vt -358.1302 4.8420
vt -357.4781 4.8420
vt -357.4557 4.8420
vt -358.1027 4.8420
vt -358.1637 4.6972
vt -358.1637 4.8420
vt -358.1359 4.8420
vt -358.2285 4.6894
vt -358.2285 4.8420
vt -358.2000 4.8420
vt -358.2843 4.7210
vt -358.2843 4.8420
vt -358.2552 4.8420
vt -357.7024 4.7795
vt -357.7024 4.8420
vt -357.6778 4.8420
vt -344.2300 5.6827
vt -344.2921 5.6505
vt -344.2921 5.7452
vt -344.2300 5.7452
vt -344.2029 5.7452
vt -344.2639 5.7452
vt -344.3834 5.6009
vt -344.3834 5.7452
vt -344.3535 5.7452
vt -344.4183 5.6041
vt -344.4183 5.7452
vt -344.3877 5.7452
vt -343.8636 5.6827
vt -343.8636 5.7452
vt -343.8329 5.7452
vt -403.5622 7.4085
vt -403.8302 7.4192
vt -403.8302 7.5470
vt -403.5622 7.5470
vt -403.5865 7.5470
vt -403.8526 7.5470
vt -404.1302 7.4261
vt -404.1302 7.5470
vt -404.1506 7.5470
vt -404.3601 7.4404
vt -404.3601 7.5470
vt -404.3789 7.5470
vt -405.0633 7.4845
vt -405.0633 7.5470
vt -405.0773 7.5470
vt -403.7826 7.4845
vt -403.0359 7.4377
vt -403.0359 7.5470
vt -403.7826 7.5470
vt -403.8092 7.5470
vt -403.0677 7.5470
vt -403.3159 7.4124
vt -403.3159 7.5470
vt -403.3440 7.5470
vt -403.4224 7.4029
vt -403.4224 7.5470
vt -403.4488 7.5470
vt -403.5172 7.4067
vt -403.5172 7.5470
vt -403.5422 7.5470
vt -379.8326 5.3342
vt -380.3035 5.3374
vt -380.3035 5.4740
vt -379.8326 5.4740
vt -379.8302 5.4740
vt -380.2980 5.4740
vt -382.9064 5.4115
vt -382.9064 5.4740
vt -382.8838 5.4740
vt -375.7942 5.4115
vt -375.8857 5.3694
vt -375.8857 5.4740
vt -375.7942 5.4740
vt -375.8213 5.4740
vt -375.9115 5.4740
vt -377.7401 5.3757
vt -377.7401 5.4740
vt -377.7527 5.4740
vt -379.1302 5.3295
vt -379.1302 5.4740
vt -379.1328 5.4740
vt -370.9089 5.4729
vt -372.8802 5.4009
vt -372.8802 5.5435
vt -370.9089 5.5435
vt -370.9065 5.5435
vt -372.8600 5.5435
vt -374.0421 5.4049
vt -374.0421 5.5435
vt -374.0115 5.5435
vt -373.9845 5.4313
vt -373.9845 5.5435
vt -373.9545 5.5435
vt -373.8759 5.4810
vt -373.8759 5.5435
vt -373.8471 5.5435
vt -370.6880 5.4810
vt -370.6880 5.5435
vt -370.6874 5.5435
vt -330.6073 8.2540
vt -330.6970 8.2432
vt -330.6970 8.3165
vt -330.6073 8.3165
vt -330.5794 8.3165
vt -330.6679 8.3165
vt -330.9907 8.1941
vt -330.9907 8.3165
vt -330.9577 8.3165
vt -330.7087 8.1787
vt -330.7087 8.3165
vt -330.6809 8.3165
vt -330.4607 8.1652
vt -330.4607 8.3165
vt -330.4375 8.3165
vt -330.4316 8.1747
vt -330.4316 8.3165
vt -330.4089 8.3165
vt -330.0649 8.2540
vt -330.0649 8.3165
vt -330.0471 8.3165
vt -376.9708 6.1338
vt -377.8657 6.0801
vt -377.8657 6.1963
vt -376.9708 6.1963
vt -376.9987 6.1963
vt -377.8825 6.1963
vt -379.1302 6.0485
vt -379.1302 6.1963
vt -379.1313 6.1963
vt -379.6721 6.0567
vt -379.6721 6.1963
vt -379.6665 6.1963
vt -380.2223 6.1338
vt -380.2223 6.1963
vt -380.2086 6.1963
vt -400.6904 7.5437
vt -402.0302 7.5972
vt -402.0302 7.6597
vt -400.6904 7.6597
vt -400.7077 7.6597
vt -402.0391 7.6597
vt -401.9420 7.5972
vt -399.2767 7.5602
vt -399.2767 7.6597
vt -401.9420 7.6597
vt -401.9611 7.6597
vt -399.3127 7.6597
vt -399.7484 7.5060
vt -399.7484 7.6597
vt -399.7793 7.6597
vt -400.1310 7.5213
vt -400.1310 7.6597
vt -400.1577 7.6597
vt -400.4010 7.5321
vt -400.4010 7.6597
vt -400.4232 7.6597
vt -382.4145 6.7041
vt -382.7508 6.7808
vt -382.7508 6.8433
vt -382.4145 6.8433
vt -382.3952 6.8433
vt -382.7272 6.8433
vt -376.8534 6.7808
vt -379.1302 6.6956
vt -379.1302 6.8433
vt -376.8534 6.8433
vt -376.8704 6.8433
vt -379.1323 6.8433
vt -429.3296 10.5212
vt -429.4876 10.5333
vt -429.4876 10.5958
vt -429.3296 10.5958
vt -429.3315 10.5958
vt -429.4872 10.5958
vt -427.4235 10.5333
vt -426.7490 10.4559
vt -426.7490 10.5958
vt -427.4235 10.5958
vt -427.4539 10.5958
vt -426.7890 10.5958
vt -427.2294 10.4532
vt -427.2294 10.5958
vt -427.2624 10.5958
vt -429.1302 10.5219
vt -429.1302 10.5958
vt -429.1350 10.5958
vt -422.8813 9.9122
vt -423.4062 9.9523
vt -423.4062 10.0427
vt -422.8813 10.0427
vt -422.8852 10.0427
vt -423.4043 10.0427
vt -423.6539 9.9802
vt -423.6539 10.0427
vt -423.6494 10.0427
vt -420.2212 9.9802
vt -419.7732 9.9313
vt -419.7732 10.0427
vt -420.2212 10.0427
vt -420.2546 10.0427
vt -419.8115 10.0427
vt -419.6342 9.9211
vt -419.6342 10.0427
vt -419.6740 10.0427
vt -421.6359 9.9038
vt -421.6359 10.0427
vt -421.6577 10.0427
vt -422.0940 9.8998
vt -422.0940 10.0427
vt -422.1092 10.0427
vt -422.4488 9.8967
vt -422.4488 10.0427
vt -422.4589 10.0427
vt -422.8802 9.9121
vt -422.8802 10.0427
vt -422.8841 10.0427
vt -375.0599 7.0958
vt -379.1302 6.9933
vt -379.1302 7.1648
vt -375.0599 7.1648
vt -375.0865 7.1648
vt -379.1310 7.1648
vt -381.5899 7.0297
vt -381.5899 7.1648
vt -381.5752 7.1648
vt -381.9534 7.0259
vt -381.9534 7.1648
vt -381.9364 7.1648
vt -382.2614 7.0565
vt -382.2614 7.1648
vt -382.2410 7.1648
vt -382.9174 7.1023
vt -382.9174 7.1648
vt -382.8897 7.1648
vt -375.0355 7.1023
vt -375.0355 7.1648
vt -375.0623 7.1648
vt -374.7555 7.2275
vt -377.7782 7.1813
vt -377.7782 7.3630
vt -374.7555 7.3630
vt -374.7765 7.3630
vt -377.7755 7.3630
vt -379.1302 7.1606
vt -379.1302 7.3630
vt -379.1169 7.3630
vt -379.9675 7.1813
vt -379.9675 7.3630
vt -379.9476 7.3630
vt -381.7693 7.2258
vt -381.7693 7.3630
vt -381.7352 7.3630
vt -381.6714 7.2321
vt -381.6714 7.3630
vt -381.6385 7.3630
vt -381.1851 7.2635
vt -381.1851 7.3630
vt -381.1577 7.3630
vt -380.6263 7.2995
vt -380.6263 7.3630
vt -380.6052 7.3630
vt -379.1302 7.2626
vt -379.1302 7.3630
vt -379.1209 7.3630
vt -376.6527 7.3005
vt -376.6527 7.3630
vt -376.6629 7.3630
vt -374.0562 7.3005
vt -374.2251 7.2828
vt -374.2251 7.3630
vt -374.0562 7.3630
vt -374.0855 7.3630
vt -374.2527 7.3630
vt -374.2658 7.2786
vt -374.2658 7.3630
vt -374.2928 7.3630
vt -355.7893 6.8670
vt -356.1557 6.8308
vt -356.1557 6.9295
vt -355.7893 6.9295
vt -355.7663 6.9295
vt -356.1290 6.9295
vt -356.2447 6.7891
vt -356.2447 6.9295
vt -356.2165 6.9295
vt -356.3163 6.7564
vt -356.3163 6.9295
vt -356.2880 6.9295
vt -356.4322 6.8348
vt -356.4322 6.9295
vt -356.4039 6.9295
vt -356.4383 6.8389
vt -356.4383 6.9295
vt -356.4099 6.9295
vt -356.4795 6.8670
vt -356.4795 6.9295
vt -356.4502 6.9295
vt -310.8084 9.3970
vt -310.9949 9.3821
vt -310.9949 9.4595
vt -310.8084 9.4595
vt -310.7863 9.4595
vt -310.9712 9.4595
vt -312.3915 9.3216
vt -312.3915 9.4595
vt -312.3552 9.4595
vt -312.1166 9.2924
vt -312.1166 9.4595
vt -312.0842 9.4595
vt -311.6180 9.3322
vt -311.6180 9.4595
vt -311.5927 9.4595
vt -310.8084 9.3970
vt -310.8084 9.4595
vt -310.7848 9.4595
vt -314.9542 9.0653
vt -315.2275 9.0435
vt -315.2275 9.2030
vt -314.9542 9.2030
vt -314.9515 9.2030
vt -315.2228 9.2030
vt -316.6302 9.0518
vt -316.6302 9.2030
vt -316.6151 9.2030
vt -319.4491 9.0685
vt -319.4491 9.2030
vt -319.4131 9.2030
vt -319.9676 9.0716
vt -319.9676 9.2030
vt -319.9277 9.2030
vt -319.0468 9.1405
vt -319.0468 9.2030
vt -319.0192 9.2030
vt -314.0146 9.1405
vt -314.0146 9.2030
vt -314.0245 9.2030
vt -377.1377 7.3568
vt -379.1302 7.3448
vt -379.1302 7.4952
vt -377.1377 7.4952
vt -377.1215 7.4952
vt -379.0986 7.4952
vt -380.1296 7.3788
vt -380.1296 7.4952
vt -380.0902 7.4952
vt -379.1302 7.3874
vt -379.1302 7.4952
vt -379.1018 7.4952
vt -378.2291 7.4313
vt -378.2291 7.4952
vt -378.2106 7.4952
vt -377.6004 7.4313
vt -377.6004 7.4952
vt -377.5887 7.4952
vt -377.1760 7.4313
vt -377.1760 7.4952
vt -377.1690 7.4952
vt -376.3023 7.4313
vt -376.3023 7.4952
vt -376.3049 7.4952
vt -372.9596 7.4313
vt -372.9596 7.4952
vt -372.9990 7.4952
vt -374.0821 7.4313
vt -374.0821 7.4952
vt -374.1215 7.4952
vt -372.8802 7.4313
vt -372.8802 7.4952
vt -372.9196 7.4952
vt -372.8427 7.4327
vt -372.8427 7.4952
vt -372.8821 7.4952
vt -371.9552 7.4327
vt -372.1307 7.4172
vt -372.1307 7.4952
vt -371.9552 7.4952
vt -371.9665 7.4952
vt -372.1377 7.4952
vt -372.8802 7.3826
vt -372.8802 7.4952
vt -372.8838 7.4952
vt -374.3118 7.3740
vt -374.3118 7.4952
vt -374.3087 7.4952
vt -376.3658 7.3615
vt -376.3658 7.4952
vt -376.3532 7.4952
vt -323.7773 9.4761
vt -324.2639 9.4598
vt -324.2639 9.6163
vt -323.7773 9.6163
vt -323.7752 9.6163
vt -324.2555 9.6163
vt -325.5077 9.4710
vt -325.5077 9.6163
vt -325.4833 9.6163
vt -326.7264 9.4820
vt -326.7264 9.6163
vt -326.6865 9.6163
vt -326.2545 9.5538
vt -326.2545 9.6163
vt -326.2146 9.6163
vt -323.2726 9.5538
vt -323.2726 9.6163
vt -323.2741 9.6163
vt -379.8624 7.0448
vt -379.6482 6.9805
vt -379.6482 7.1073
vt -379.8624 7.1073
vt -379.8373 7.1073
vt -379.6202 7.1073
vt -379.6124 6.9698
vt -379.6124 7.1073
vt -379.5849 7.1073
vt -379.5378 6.9557
vt -379.5378 7.1073
vt -379.5110 7.1073
vt -379.4831 6.9454
vt -379.4831 7.1073
vt -379.4570 7.1073
vt -379.2501 6.9708
vt -379.2501 7.1073
vt -379.2264 7.1073
vt -379.1302 6.9680
vt -379.1302 7.1073
vt -379.1080 7.1073
vt -377.5342 6.9951
vt -377.5342 7.1073
vt -377.5314 7.1073
vt -376.7467 7.0448
vt -376.7467 7.1073
vt -376.7534 7.1073
vt -405.9836 10.0375
vt -407.7979 10.0346
vt -407.7979 10.1758
vt -405.9836 10.1758
vt -405.9852 10.1758
vt -407.7838 10.1758
vt -408.4913 10.1133
vt -408.4913 10.1758
vt -408.4711 10.1758
vt -404.1664 10.1133
vt -404.5719 10.0963
vt -404.5719 10.1758
vt -404.1664 10.1758
vt -404.1924 10.1758
vt -404.5927 10.1758
vt -384.5200 7.4900
vt -384.1616 7.4106
vt -384.1616 7.5525
vt -384.5200 7.5525
vt -384.5558 7.5525
vt -384.2014 7.5525
vt -385.3802 7.3840
vt -385.3802 7.5525
vt -385.4099 7.5525
vt -386.1546 7.3981
vt -386.1546 7.5525
vt -386.1778 7.5525
vt -386.3536 7.4104
vt -386.3536 7.5525
vt -386.3752 7.5525
vt -386.8113 7.4388
vt -386.8113 7.5525
vt -386.8293 7.5525
vt -387.6341 7.4900
vt -387.6341 7.5525
vt -387.6459 7.5525
vt -383.4435 7.3964
vt -383.5277 7.4185
vt -383.5277 7.4810
vt -383.4435 7.4810
vt -383.4402 7.4810
vt -383.5234 7.4810
vt -377.6967 7.4185
vt -377.6454 7.4091
vt -377.6454 7.4810
vt -377.6967 7.4810
vt -377.7360 7.4810
vt -377.6852 7.4810
vt -379.1302 7.3176
vt -379.1302 7.4810
vt -379.1579 7.4810
vt -379.7451 7.3288
vt -379.7451 7.4810
vt -379.7678 7.4810
vt -380.2882 7.3388
vt -380.2882 7.4810
vt -380.3065 7.4810
vt -380.4707 7.3421
vt -380.4707 7.4810
vt -380.4877 7.4810
vt -384.9280 8.9878
vt -384.4028 8.9099
vt -384.4028 9.0503
vt -384.9280 9.0503
vt -384.9611 9.0503
vt -384.4427 9.0503
vt -385.3802 8.8965
vt -385.3802 9.0503
vt -385.4123 9.0503
vt -386.6189 8.9785
vt -386.6189 9.0503
vt -386.6411 9.0503
vt -387.0233 8.9878
vt -387.0233 9.0503
vt -387.0422 9.0503
vt -360.3784 7.7570
vt -360.3802 7.7568
vt -360.3802 7.8195
vt -360.3784 7.8195
vt -360.3546 7.8195
vt -360.3564 7.8195
vt -360.4406 7.7537
vt -360.4406 7.8195
vt -360.4164 7.8195
vt -360.5871 7.6813
vt -360.5871 7.8195
vt -360.5612 7.8195
vt -360.6156 7.6765
vt -360.6156 7.8195
vt -360.5894 7.8195
vt -360.6533 7.6703
vt -360.6533 7.8195
vt -360.6267 7.8195
vt -360.7707 7.6803
vt -360.7707 7.8195
vt -360.7427 7.8195
vt -361.0170 7.7018
vt -361.0170 7.8195
vt -360.9852 7.8195
vt -360.3802 7.7417
vt -360.3802 7.8195
vt -360.3519 7.8195
vt -360.2319 7.7570
vt -360.2319 7.8195
vt -360.2045 7.8195
vt -334.4070 9.8999
vt -334.9272 9.9623
vt -334.9272 10.0390
vt -334.4070 10.0390
vt -334.3802 10.0390
vt -334.8915 10.0390
vt -334.7501 9.9765
vt -334.7501 10.0390
vt -334.7157 10.0390
vt -332.9198 9.9765
vt -333.5632 9.8993
vt -333.5632 10.0390
vt -332.9198 10.0390
vt -332.9069 10.0390
vt -333.5452 10.0390
vt -333.9844 9.8488
vt -333.9844 10.0390
vt -333.9621 10.0390
vt -374.1487 7.4850
vt -376.4497 7.3957
vt -376.4497 7.5475
vt -374.1487 7.5475
vt -374.1359 7.5475
vt -376.4223 7.5475
vt -376.7281 7.4078
vt -376.7281 7.5475
vt -376.6990 7.5475
vt -376.7078 7.4850
vt -376.7078 7.5475
vt -376.6789 7.5475
vt -320.1048 10.5353
vt -317.6941 10.4601
vt -317.6941 10.5978
vt -320.1048 10.5978
vt -320.0678 10.5978
vt -317.6802 10.5978
vt -317.0204 10.4390
vt -317.0204 10.5978
vt -317.0115 10.5978
vt -316.7704 10.4313
vt -316.7704 10.5978
vt -316.7633 10.5978
vt -316.6302 10.4356
vt -316.6302 10.5978
vt -316.6240 10.5978
vt -316.1317 10.4512
vt -316.1317 10.5978
vt -316.1291 10.5978
vt -314.2531 10.5263
vt -314.2531 10.5978
vt -314.2640 10.5978
vt -314.0302 10.5353
vt -314.0302 10.5978
vt -314.0456 10.5978
vt -314.0302 10.5353
vt -314.2568 10.5262
vt -314.2568 10.5978
vt -314.0302 10.5978
vt -314.0687 10.5978
vt -314.2952 10.5978
vt -314.0302 10.5353
vt -314.0302 10.5978
vt -314.0687 10.5978
vt -312.6849 10.8372
vt -312.9923 10.7857
vt -312.9923 10.8997
vt -312.6849 10.8997
vt -312.6572 10.8997
vt -312.9617 10.8997
vt -313.0576 10.7612
vt -313.0576 10.8997
vt -313.0265 10.8997
vt -312.2968 10.7579
vt -312.2968 10.8997
vt -312.2718 10.8997
vt -310.3802 10.7155
vt -310.3802 10.8997
vt -310.3710 10.8997
vt -308.8372 10.7430
vt -308.8372 10.8997
vt -308.8407 10.8997
vt -306.1938 10.7901
vt -306.1938 10.8997
vt -306.2189 10.8997
vt -305.9663 10.8372
vt -305.9663 10.8997
vt -305.9932 10.8997
vt -365.2095 7.9689
vt -366.6302 7.9479
vt -366.6302 8.1052
vt -365.2095 8.1052
vt -365.2352 8.1052
vt -366.6451 8.1052
vt -370.2046 7.8953
vt -370.2046 8.1052
vt -370.1925 8.1052
vt -372.6521 7.9658
vt -372.6521 8.1052
vt -372.6214 8.1052
vt -372.5818 8.0427
vt -372.5818 8.1052
vt -372.5520 8.1052
vt -365.1037 8.0427
vt -365.1037 8.1052
vt -365.1307 8.1052
vt -365.0129 8.4821
vt -366.6302 8.3922
vt -366.6302 8.6197
vt -365.0129 8.6197
vt -365.0390 8.6197
vt -366.6445 8.6197
vt -369.1898 8.5572
vt -369.1898 8.6197
vt -369.1855 8.6197
vt -364.9251 8.5572
vt -364.9251 8.6197
vt -364.9525 8.6197
vt -269.8259 9.3665
vt -269.3195 9.2894
vt -269.3195 9.4290
vt -269.8259 9.4290
vt -269.8539 9.4290
vt -269.3590 9.4290
vt -269.5780 9.2850
vt -269.5780 9.4290
vt -269.6160 9.4290
vt -272.8802 9.3418
vt -272.8802 9.4290
vt -272.8997 9.4290
vt -273.3111 9.3665
vt -273.3111 9.4290
vt -273.3281 9.4290
vt -364.2946 8.9390
vt -364.6866 8.9313
vt -364.6866 9.0765
vt -364.2946 9.0765
vt -364.3227 9.0765
vt -364.7124 9.0765
vt -366.6302 8.8154
vt -366.6302 9.0765
vt -366.6440 9.0765
vt -368.5501 8.9313
vt -368.5501 9.0765
vt -368.5522 9.0765
vt -370.6063 9.0140
vt -370.6063 9.0765
vt -370.5958 9.0765
vt -366.8626 9.0140
vt -366.6302 9.0046
vt -366.6302 9.0765
vt -366.8626 9.0765
vt -366.8752 9.0765
vt -366.6442 9.0765
vt -364.8054 9.0042
vt -364.8054 9.0765
vt -364.8306 9.0765
vt -364.3148 9.0140
vt -364.3148 9.0765
vt -364.3430 9.0765
vt -364.2683 9.0140
vt -364.2812 8.9782
vt -364.2812 9.0765
vt -364.2683 9.0765
vt -364.2968 9.0765
vt -364.3095 9.0765
vt -364.2832 8.9727
vt -364.2832 9.0765
vt -364.3115 9.0765
vt -274.3122 10.4260
vt -276.9991 10.3460
vt -276.9991 10.4885
vt -274.3122 10.4885
vt -274.3517 10.4885
vt -277.0386 10.4885
vt -279.1302 10.2826
vt -279.1302 10.4885
vt -279.1698 10.4885
vt -281.9861 10.4260
vt -281.9861 10.4885
vt -282.0256 10.4885
vt -283.3767 10.4260
vt -282.7545 10.3470
vt -282.7545 10.4885
vt -283.3767 10.4885
vt -283.4163 10.4885
vt -282.7940 10.4885
vt -283.6829 10.4260
vt -283.6829 10.4885
vt -283.7175 10.4885
vt -384.1562 10.4245
vt -385.3802 10.3388
vt -385.3802 10.4870
vt -384.1562 10.4870
vt -384.1629 10.4870
vt -385.3799 10.4870
vt -386.3146 10.3482
vt -386.3146 10.4870
vt -386.3090 10.4870
vt -387.1312 10.4245
vt -387.1312 10.4870
vt -387.1153 10.4870
vt -380.5713 10.7928
vt -382.7283 10.7873
vt -382.7283 10.9310
vt -380.5713 10.9310
vt -380.5740 10.9310
vt -382.7172 10.9310
vt -383.8498 10.8685
vt -383.8498 10.9310
vt -383.8315 10.9310
vt -377.8311 10.8685
vt -377.5803 10.8591
vt -377.5803 10.9310
vt -377.8311 10.9310
vt -377.8694 10.9310
vt -377.6202 10.9310
vt -379.1302 10.8546
vt -379.1302 10.9310
vt -379.1508 10.9310
vn -0.6575 -0.7534 0.0000
vn 0.0000 -0.0000 1.0000
vn 0.7539 -0.6569 0.0000
vn -0.6574 -0.7535 0.0000
vn 0.8698 -0.4934 0.0000
vn -0.4924 -0.8703 0.0000
vn -0.9298 0.3679 0.0000
vn -0.3669 -0.9303 0.0000
vn -0.3683 -0.9297 0.0000
vn -0.9957 0.0924 0.0000
vn -0.0915 -0.9958 0.0000
vn -0.9604 -0.2786 0.0000
vn -0.2780 0.9606 0.0000
vn 0.2778 -0.9606 0.0000
vn 0.9767 -0.2145 0.0000
vn -0.2133 -0.9770 0.0000
vn -0.2145 -0.9767 0.0000
vn -0.6844 -0.7291 0.0000
vn -0.7281 0.6855 0.0000
vn 0.6844 0.7291 0.0000
vn -0.7684 0.6400 0.0000
vn -0.7652 0.6438 0.0000
vn 0.6400 0.7684 0.0000
vn -0.7938 -0.6081 0.0000
vn 0.7937 0.6084 0.0000
vn 0.6077 -0.7942 0.0000
vn 0.6070 -0.7947 0.0000
vn -0.7643 -0.6449 0.0000
vn 0.6432 -0.7657 0.0000
vn -0.7642 -0.6450 0.0000
vn -0.7652 -0.6438 0.0000
vn -0.6429 0.7659 0.0000
vn -0.7653 -0.6437 0.0000
vn -0.8236 -0.5671 0.0000
vn -0.5655 0.8247 0.0000
vn 0.8236 0.5671 0.0000
vn -0.1418 -0.9899 0.0000
vn -0.9898 0.1421 0.0000
vn -0.9000 -0.4358 0.0000
vn 0.8999 0.4362 0.0000
vn 0.4356 -0.9001 0.0000
vn 0.4327 -0.9016 0.0000
vn -0.8755 0.4832 0.0000
vn -0.4822 -0.8761 0.0000
vn -0.9989 -0.0466 0.0000
vn 0.9989 0.0465 0.0000
vn 0.0455 -0.9990 0.0000
vn -0.9952 -0.0974 0.0000
vn 0.9953 0.0968 0.0000
vn 0.0973 -0.9953 0.0000
vn 0.0970 -0.9953 0.0000
vn -0.5062 -0.8624 0.0000
vn -0.9198 0.3923 0.0000
vn 0.6467 -0.7628 0.0000
vn -0.8502 -0.5265 0.0000
vn -0.5253 0.8509 0.0000
vn 0.8498 0.5271 0.0000
vn 0.5262 -0.8504 0.0000
vn 0.5246 -0.8513 0.0000
vn -0.6655 -0.7464 0.0000
vn -0.7445 0.6676 0.0000
vn -0.7454 0.6666 0.0000
vn -0.7452 0.6669 0.0000
vn -0.7627 -0.6467 0.0000
vn -0.4959 0.8684 0.0000
vn 0.0236 0.9997 0.0000
vn -0.9976 0.0688 0.0000
vn 0.0685 0.9977 0.0000
vn -0.0682 -0.9977 0.0000
vn -0.9845 -0.1753 0.0000
vn -0.1752 0.9845 0.0000
vn 0.9843 0.1764 0.0000
vn 0.1763 -0.9843 0.0000
vn 0.9845 0.1755 0.0000
vn 0.1760 -0.9844 0.0000
vn -0.9844 -0.1758 0.0000
vn -0.9986 0.0532 0.0000
vn 0.0525 0.9986 0.0000
vn -0.0528 -0.9986 0.0000
vn -0.5913 0.8065 0.0000
vn -0.5906 0.8070 0.0000
vn 0.8059 0.5921 0.0000
vn -0.9991 -0.0422 0.0000
vn 0.0440 -0.9990 0.0000
vn 0.0396 -0.9992 0.0000
vn 0.9966 0.0828 0.0000
vn 0.0830 -0.9965 0.0000
vn 0.0816 -0.9967 0.0000
vn -0.9965 0.0832 0.0000
vn 0.9966 -0.0829 0.0000
vn -0.0823 -0.9966 0.0000
vn -0.0822 -0.9966 0.0000
vn 0.9969 0.0793 0.0000
vn 0.0789 -0.9969 0.0000
vn -0.6028 -0.7979 0.0000
vn -0.7971 0.6038 0.0000
vn -0.7959 0.6055 0.0000
vn 0.6026 0.7981 0.0000
vn -0.8944 0.4472 0.0000
vn 0.4472 0.8944 0.0000
vn -0.4473 -0.8944 0.0000
vn -0.8936 0.4488 0.0000
vn -0.7278 -0.6858 0.0000
vn -0.6846 0.7289 0.0000
vn 0.2722 0.9622 0.0000
vn 0.2708 0.9626 0.0000
vn 0.9620 -0.2732 0.0000
vn -0.2718 -0.9624 0.0000
vn 0.9623 -0.2721 0.0000
vn -0.7781 0.6282 0.0000
vn 0.6271 0.7789 0.0000
vn 0.7783 -0.6279 0.0000
vn -0.7663 -0.6425 0.0000
vn -0.6411 0.7674 0.0000
vn 0.6420 -0.7667 0.0000
vn -0.7577 -0.6526 0.0000
vn 0.6520 -0.7582 0.0000
vn 0.9862 -0.1655 0.0000
vn -0.1652 -0.9863 0.0000
vn -0.7114 -0.7028 0.0000
vn 0.7110 0.7032 0.0000
vn 0.7020 -0.7122 0.0000
vn 0.7023 -0.7119 0.0000
vn -0.1450 -0.9894 0.0000
vn 0.9891 -0.1469 0.0000
vn -0.1448 -0.9895 0.0000
vn -0.1417 -0.9899 0.0000
vn -0.9898 0.1424 0.0000
vn -0.9977 -0.0676 0.0000
vn 0.9977 0.0677 0.0000
vn 0.0673 -0.9977 0.0000
f 1/1/1 3/3/1 2/2/1
f 1/1/1 4/4/1 3/3/1
f 5/5/2 6/6/2 3/3/2
f 5/5/2 3/3/2 4/4/2
f 2/2/1 8/8/1 7/7/1
f 2/2/1 3/3/1 8/8/1
f 6/6/2 9/9/2 8/8/2
f 6/6/2 8/8/2 3/3/2
f 7/7/1 11/11/1 10/10/1
f 7/7/1 8/8/1 11/11/1
f 9/9/2 12/12/2 11/11/2
f 9/9/2 11/11/2 8/8/2
f 10/10/3 14/14/3 13/13/3
f 10/10/3 11/11/3 14/14/3
f 12/12/2 15/15/2 14/14/2
f 12/12/2 14/14/2 11/11/2
f 13/13/3 17/17/3 16/16/3
f 13/13/3 14/14/3 17/17/3
f 15/15/2 18/18/2 17/17/2
f 15/15/2 17/17/2 14/14/2
f 16/16/4 20/20/4 19/19/4
f 16/16/4 17/17/4 20/20/4
f 18/18/2 21/21/2 20/20/2
f 18/18/2 20/20/2 17/17/2
f 19/19/4 23/23/4 22/22/4
f 19/19/4 20/20/4 23/23/4
f 21/21/2 24/24/2 23/23/2
f 21/21/2 23/23/2 20/20/2
f 22/22/4 26/26/4 25/25/4
f 22/22/4 23/23/4 26/26/4
f 24/24/2 27/27/2 26/26/2
f 24/24/2 26/26/2 23/23/2
f 25/25/4 29/29/4 28/28/4
f 25/25/4 26/26/4 29/29/4
f 27/27/2 30/30/2 29/29/2
f 27/27/2 29/29/2 26/26/2
f 31/31/5 33/33/5 32/32/5
f 31/31/5 34/34/5 33/33/5
f 35/35/2 36/36/2 33/33/2
f 35/35/2 33/33/2 34/34/2
f 32/32/6 38/38/6 37/37/6
f 32/32/6 33/33/6 38/38/6
f 36/36/2 39/39/2 38/38/2
f 36/36/2 38/38/2 33/33/2
f 37/37/6 41/41/6 40/40/6
f 37/37/6 38/38/6 41/41/6
f 39/39/2 42/42/2 41/41/2
f 39/39/2 41/41/2 38/38/2
f 43/43/7 45/45/7 44/44/7
f 43/43/7 46/46/7 45/45/7
f 47/47/2 48/48/2 45/45/2
f 47/47/2 45/45/2 46/46/2
f 49/49/8 51/51/8 50/50/8
f 49/49/8 52/52/8 51/51/8
f 53/53/2 54/54/2 51/51/2
f 53/53/2 51/51/2 52/52/2
f 50/50/9 56/56/9 55/55/9
f 50/50/9 51/51/9 56/56/9
f 54/54/2 57/57/2 56/56/2
f 54/54/2 56/56/2 51/51/2
f 55/55/9 46/46/9 43/43/9
f 55/55/9 56/56/9 46/46/9
f 57/57/2 47/47/2 46/46/2
f 57/57/2 46/46/2 56/56/2
f 58/58/10 60/60/10 59/59/10
f 58/58/10 61/61/10 60/60/10
f 62/62/2 63/63/2 60/60/2
f 62/62/2 60/60/2 61/61/2
f 64/64/11 66/66/11 65/65/11
f 64/64/11 67/67/11 66/66/11
f 68/68/2 69/69/2 66/66/2
f 68/68/2 66/66/2 67/67/2
f 65/65/11 71/71/11 70/70/11
f 65/65/11 66/66/11 71/71/11
f 69/69/2 72/72/2 71/71/2
f 69/69/2 71/71/2 66/66/2
f 70/70/11 74/74/11 73/73/11
f 70/70/11 71/71/11 74/74/11
f 72/72/2 75/75/2 74/74/2
f 72/72/2 74/74/2 71/71/2
f 73/73/11 61/61/11 58/58/11
f 73/73/11 74/74/11 61/61/11
f 75/75/2 62/62/2 61/61/2
f 75/75/2 61/61/2 74/74/2
f 76/76/12 78/78/12 77/77/12
f 76/76/12 79/79/12 78/78/12
f 80/80/2 81/81/2 78/78/2
f 80/80/2 78/78/2 79/79/2
f 77/77/12 83/83/12 82/82/12
f 77/77/12 78/78/12 83/83/12
f 81/81/2 84/84/2 83/83/2
f 81/81/2 83/83/2 78/78/2
f 82/82/12 86/86/12 85/85/12
f 82/82/12 83/83/12 86/86/12
f 84/84/2 87/87/2 86/86/2
f 84/84/2 86/86/2 83/83/2
f 85/85/13 89/89/13 88/88/13
f 85/85/13 86/86/13 89/89/13
f 87/87/2 90/90/2 89/89/2
f 87/87/2 89/89/2 86/86/2
f 91/91/14 79/79/14 76/76/14
f 91/91/14 92/92/14 79/79/14
f 93/93/2 80/80/2 79/79/2
f 93/93/2 79/79/2 92/92/2
f 94/94/15 96/96/15 95/95/15
f 94/94/15 97/97/15 96/96/15
f 98/98/2 99/99/2 96/96/2
f 98/98/2 96/96/2 97/97/2
f 95/95/15 101/101/15 100/100/15
f 95/95/15 96/96/15 101/101/15
f 99/99/2 102/102/2 101/101/2
f 99/99/2 101/101/2 96/96/2
f 100/100/16 104/104/16 103/103/16
f 100/100/16 101/101/16 104/104/16
f 102/102/2 105/105/2 104/104/2
f 102/102/2 104/104/2 101/101/2
f 103/103/16 107/107/16 106/106/16
f 103/103/16 104/104/16 107/107/16
f 105/105/2 108/108/2 107/107/2
f 105/105/2 107/107/2 104/104/2
f 106/106/16 110/110/16 109/109/16
f 106/106/16 107/107/16 110/110/16
f 108/108/2 111/111/2 110/110/2
f 108/108/2 110/110/2 107/107/2
f 109/109/17 113/113/17 112/112/17
f 109/109/17 110/110/17 113/113/17
f 111/111/2 114/114/2 113/113/2
f 111/111/2 113/113/2 110/110/2
f 112/112/17 116/116/17 115/115/17
f 112/112/17 113/113/17 116/116/17
f 114/114/2 117/117/2 116/116/2
f 114/114/2 116/116/2 113/113/2
f 118/118/18 120/120/18 119/119/18
f 118/118/18 121/121/18 120/120/18
f 122/122/2 123/123/2 120/120/2
f 122/122/2 120/120/2 121/121/2
f 119/119/19 125/125/19 124/124/19
f 119/119/19 120/120/19 125/125/19
f 123/123/2 126/126/2 125/125/2
f 123/123/2 125/125/2 120/120/2
f 124/124/19 128/128/19 127/127/19
f 124/124/19 125/125/19 128/128/19
f 126/126/2 129/129/2 128/128/2
f 126/126/2 128/128/2 125/125/2
f 127/127/19 131/131/19 130/130/19
f 127/127/19 128/128/19 131/131/19
f 129/129/2 132/132/2 131/131/2
f 129/129/2 131/131/2 128/128/2
f 130/130/20 134/134/20 133/133/20
f 130/130/20 131/131/20 134/134/20
f 132/132/2 135/135/2 134/134/2
f 132/132/2 134/134/2 131/131/2
f 136/136/21 138/138/21 137/137/21
f 136/136/21 139/139/21 138/138/21
f 140/140/2 141/141/2 138/138/2
f 140/140/2 138/138/2 139/139/2
f 137/137/22 143/143/22 142/142/22
f 137/137/22 138/138/22 143/143/22
f 141/141/2 144/144/2 143/143/2
f 141/141/2 143/143/2 138/138/2
f 142/142/22 146/146/22 145/145/22
f 142/142/22 143/143/22 146/146/22
f 144/144/2 147/147/2 146/146/2
f 144/144/2 146/146/2 143/143/2
f 145/145/23 149/149/23 148/148/23
f 145/145/23 146/146/23 149/149/23
f 147/147/2 150/150/2 149/149/2
f 147/147/2 149/149/2 146/146/2
f 151/151/24 153/153/24 152/152/24
f 151/151/24 154/154/24 153/153/24
f 155/155/2 156/156/2 153/153/2
f 155/155/2 153/153/2 154/154/2
f 152/152/24 158/158/24 157/157/24
f 152/152/24 153/153/24 158/158/24
f 156/156/2 159/159/2 158/158/2
f 156/156/2 158/158/2 153/153/2
f 157/157/24 161/161/24 160/160/24
f 157/157/24 158/158/24 161/161/24
f 159/159/2 162/162/2 161/161/2
f 159/159/2 161/161/2 158/158/2
f 160/160/24 164/164/24 163/163/24
f 160/160/24 161/161/24 164/164/24
f 162/162/2 165/165/2 164/164/2
f 162/162/2 164/164/2 161/161/2
f 166/166/25 168/168/25 167/167/25
f 166/166/25 169/169/25 168/168/25
f 170/170/2 171/171/2 168/168/2
f 170/170/2 168/168/2 169/169/2
f 167/167/26 173/173/26 172/172/26
f 167/167/26 168/168/26 173/173/26
f 171/171/2 174/174/2 173/173/2
f 171/171/2 173/173/2 168/168/2
f 172/172/27 176/176/27 175/175/27
f 172/172/27 173/173/27 176/176/27
f 174/174/2 177/177/2 176/176/2
f 174/174/2 176/176/2 173/173/2
f 175/175/27 179/179/27 178/178/27
f 175/175/27 176/176/27 179/179/27
f 177/177/2 180/180/2 179/179/2
f 177/177/2 179/179/2 176/176/2
f 178/178/27 154/154/27 151/151/27
f 178/178/27 179/179/27 154/154/27
f 180/180/2 155/155/2 154/154/2
f 180/180/2 154/154/2 179/179/2
f 181/181/28 183/183/28 182/182/28
f 181/181/28 184/184/28 183/183/28
f 185/185/2 186/186/2 183/183/2
f 185/185/2 183/183/2 184/184/2
f 182/182/28 188/188/28 187/187/28
f 182/182/28 183/183/28 188/188/28
f 186/186/2 189/189/2 188/188/2
f 186/186/2 188/188/2 183/183/2
f 190/190/29 192/192/29 191/191/29
f 190/190/29 193/193/29 192/192/29
f 194/194/2 195/195/2 192/192/2
f 194/194/2 192/192/2 193/193/2
f 191/191/30 197/197/30 196/196/30
f 191/191/30 192/192/30 197/197/30
f 195/195/2 198/198/2 197/197/2
f 195/195/2 197/197/2 192/192/2
f 196/196/30 200/200/30 199/199/30
f 196/196/30 197/197/30 200/200/30
f 198/198/2 201/201/2 200/200/2
f 198/198/2 200/200/2 197/197/2
f 199/199/30 184/184/30 181/181/30
f 199/199/30 200/200/30 184/184/30
f 201/201/2 185/185/2 184/184/2
f 201/201/2 184/184/2 200/200/2
f 202/202/31 204/204/31 203/203/31
f 202/202/31 205/205/31 204/204/31
f 206/206/2 207/207/2 204/204/2
f 206/206/2 204/204/2 205/205/2
f 203/203/31 209/209/31 208/208/31
f 203/203/31 204/204/31 209/209/31
f 207/207/2 210/210/2 209/209/2
f 207/207/2 209/209/2 204/204/2
f 208/208/32 212/212/32 211/211/32
f 208/208/32 209/209/32 212/212/32
f 210/210/2 213/213/2 212/212/2
f 210/210/2 212/212/2 209/209/2
f 211/211/32 215/215/32 214/214/32
f 211/211/32 212/212/32 215/215/32
f 213/213/2 216/216/2 215/215/2
f 213/213/2 215/215/2 212/212/2
f 217/217/33 205/205/33 202/202/33
f 217/217/33 218/218/33 205/205/33
f 219/219/2 206/206/2 205/205/2
f 219/219/2 205/205/2 218/218/2
f 220/220/34 222/222/34 221/221/34
f 220/220/34 223/223/34 222/222/34
f 224/224/2 225/225/2 222/222/2
f 224/224/2 222/222/2 223/223/2
f 221/221/34 227/227/34 226/226/34
f 221/221/34 222/222/34 227/227/34
f 225/225/2 228/228/2 227/227/2
f 225/225/2 227/227/2 222/222/2
f 226/226/35 230/230/35 229/229/35
f 226/226/35 227/227/35 230/230/35
f 228/228/2 231/231/2 230/230/2
f 228/228/2 230/230/2 227/227/2
f 229/229/35 233/233/35 232/232/35
f 229/229/35 230/230/35 233/233/35
f 231/231/2 234/234/2 233/233/2
f 231/231/2 233/233/2 230/230/2
f 232/232/35 236/236/35 235/235/35
f 232/232/35 233/233/35 236/236/35
f 234/234/2 237/237/2 236/236/2
f 234/234/2 236/236/2 233/233/2
f 235/235/36 239/239/36 238/238/36
f 235/235/36 236/236/36 239/239/36
f 237/237/2 240/240/2 239/239/2
f 237/237/2 239/239/2 236/236/2
f 241/241/37 243/243/37 242/242/37
f 241/241/37 244/244/37 243/243/37
f 245/245/2 246/246/2 243/243/2
f 245/245/2 243/243/2 244/244/2
f 242/242/37 248/248/37 247/247/37
f 242/242/37 243/243/37 248/248/37
f 246/246/2 249/249/2 248/248/2
f 246/246/2 248/248/2 243/243/2
f 247/247/37 251/251/37 250/250/37
f 247/247/37 248/248/37 251/251/37
f 249/249/2 252/252/2 251/251/2
f 249/249/2 251/251/2 248/248/2
f 250/250/38 254/254/38 253/253/38
f 250/250/38 251/251/38 254/254/38
f 252/252/2 255/255/2 254/254/2
f 252/252/2 254/254/2 251/251/2
f 256/256/39 258/258/39 257/257/39
f 256/256/39 259/259/39 258/258/39
f 260/260/2 261/261/2 258/258/2
f 260/260/2 258/258/2 259/259/2
f 262/262/40 264/264/40 263/263/40
f 262/262/40 265/265/40 264/264/40
f 266/266/2 267/267/2 264/264/2
f 266/266/2 264/264/2 265/265/2
f 263/263/41 269/269/41 268/268/41
f 263/263/41 264/264/41 269/269/41
f 267/267/2 270/270/2 269/269/2
f 267/267/2 269/269/2 264/264/2
f 268/268/41 272/272/41 271/271/41
f 268/268/41 269/269/41 272/272/41
f 270/270/2 273/273/2 272/272/2
f 270/270/2 272/272/2 269/269/2
f 271/271/42 275/275/42 274/274/42
f 271/271/42 272/272/42 275/275/42
f 273/273/2 276/276/2 275/275/2
f 273/273/2 275/275/2 272/272/2
f 274/274/42 259/259/42 256/256/42
f 274/274/42 275/275/42 259/259/42
f 276/276/2 260/260/2 259/259/2
f 276/276/2 259/259/2 275/275/2
f 277/277/43 279/279/43 278/278/43
f 277/277/43 280/280/43 279/279/43
f 281/281/2 282/282/2 279/279/2
f 281/281/2 279/279/2 280/280/2
f 283/283/44 285/285/44 284/284/44
f 283/283/44 286/286/44 285/285/44
f 287/287/2 288/288/2 285/285/2
f 287/287/2 285/285/2 286/286/2
f 284/284/44 280/280/44 277/277/44
f 284/284/44 285/285/44 280/280/44
f 288/288/2 281/281/2 280/280/2
f 288/288/2 280/280/2 285/285/2
f 289/289/45 291/291/45 290/290/45
f 289/289/45 292/292/45 291/291/45
f 293/293/2 294/294/2 291/291/2
f 293/293/2 291/291/2 292/292/2
f 295/295/46 297/297/46 296/296/46
f 295/295/46 298/298/46 297/297/46
f 299/299/2 300/300/2 297/297/2
f 299/299/2 297/297/2 298/298/2
f 296/296/47 302/302/47 301/301/47
f 296/296/47 297/297/47 302/302/47
f 300/300/2 303/303/2 302/302/2
f 300/300/2 302/302/2 297/297/2
f 301/301/47 305/305/47 304/304/47
f 301/301/47 302/302/47 305/305/47
f 303/303/2 306/306/2 305/305/2
f 303/303/2 305/305/2 302/302/2
f 304/304/47 292/292/47 289/289/47
f 304/304/47 305/305/47 292/292/47
f 306/306/2 293/293/2 292/292/2
f 306/306/2 292/292/2 305/305/2
f 307/307/48 309/309/48 308/308/48
f 307/307/48 310/310/48 309/309/48
f 311/311/2 312/312/2 309/309/2
f 311/311/2 309/309/2 310/310/2
f 308/308/48 314/314/48 313/313/48
f 308/308/48 309/309/48 314/314/48
f 312/312/2 315/315/2 314/314/2
f 312/312/2 314/314/2 309/309/2
f 316/316/49 318/318/49 317/317/49
f 316/316/49 319/319/49 318/318/49
f 320/320/2 321/321/2 318/318/2
f 320/320/2 318/318/2 319/319/2
f 317/317/49 323/323/49 322/322/49
f 317/317/49 318/318/49 323/323/49
f 321/321/2 324/324/2 323/323/2
f 321/321/2 323/323/2 318/318/2
f 322/322/50 326/326/50 325/325/50
f 322/322/50 323/323/50 326/326/50
f 324/324/2 327/327/2 326/326/2
f 324/324/2 326/326/2 323/323/2
f 325/325/51 329/329/51 328/328/51
f 325/325/51 326/326/51 329/329/51
f 327/327/2 330/330/2 329/329/2
f 327/327/2 329/329/2 326/326/2
f 328/328/51 332/332/51 331/331/51
f 328/328/51 329/329/51 332/332/51
f 330/330/2 333/333/2 332/332/2
f 330/330/2 332/332/2 329/329/2
f 331/331/51 335/335/51 334/334/51
f 331/331/51 332/332/51 335/335/51
f 333/333/2 336/336/2 335/335/2
f 333/333/2 335/335/2 332/332/2
f 334/334/51 310/310/51 307/307/51
f 334/334/51 335/335/51 310/310/51
f 336/336/2 311/311/2 310/310/2
f 336/336/2 310/310/2 335/335/2
f 337/337/52 339/339/52 338/338/52
f 337/337/52 340/340/52 339/339/52
f 341/341/2 342/342/2 339/339/2
f 341/341/2 339/339/2 340/340/2
f 338/338/52 344/344/52 343/343/52
f 338/338/52 339/339/52 344/344/52
f 342/342/2 345/345/2 344/344/2
f 342/342/2 344/344/2 339/339/2
f 343/343/52 347/347/52 346/346/52
f 343/343/52 344/344/52 347/347/52
f 345/345/2 348/348/2 347/347/2
f 345/345/2 347/347/2 344/344/2
f 346/346/53 350/350/53 349/349/53
f 346/346/53 347/347/53 350/350/53
f 348/348/2 351/351/2 350/350/2
f 348/348/2 350/350/2 347/347/2
f 349/349/53 353/353/53 352/352/53
f 349/349/53 350/350/53 353/353/53
f 351/351/2 354/354/2 353/353/2
f 351/351/2 353/353/2 350/350/2
f 355/355/54 340/340/54 337/337/54
f 355/355/54 356/356/54 340/340/54
f 357/357/2 341/341/2 340/340/2
f 357/357/2 340/340/2 356/356/2
f 358/358/55 360/360/55 359/359/55
f 358/358/55 361/361/55 360/360/55
f 362/362/2 363/363/2 360/360/2
f 362/362/2 360/360/2 361/361/2
f 359/359/55 365/365/55 364/364/55
f 359/359/55 360/360/55 365/365/55
f 363/363/2 366/366/2 365/365/2
f 363/363/2 365/365/2 360/360/2
f 364/364/55 368/368/55 367/367/55
f 364/364/55 365/365/55 368/368/55
f 366/366/2 369/369/2 368/368/2
f 366/366/2 368/368/2 365/365/2
f 367/367/55 371/371/55 370/370/55
f 367/367/55 368/368/55 371/371/55
f 369/369/2 372/372/2 371/371/2
f 369/369/2 371/371/2 368/368/2
f 370/370/56 374/374/56 373/373/56
f 370/370/56 371/371/56 374/374/56
f 372/372/2 375/375/2 374/374/2
f 372/372/2 374/374/2 371/371/2
f 373/373/56 377/377/56 376/376/56
f 373/373/56 374/374/56 377/377/56
f 375/375/2 378/378/2 377/377/2
f 375/375/2 377/377/2 374/374/2
f 376/376/56 380/380/56 379/379/56
f 376/376/56 377/377/56 380/380/56
f 378/378/2 381/381/2 380/380/2
f 378/378/2 380/380/2 377/377/2
f 379/379/57 383/383/57 382/382/57
f 379/379/57 380/380/57 383/383/57
f 381/381/2 384/384/2 383/383/2
f 381/381/2 383/383/2 380/380/2
f 382/382/57 386/386/57 385/385/57
f 382/382/57 383/383/57 386/386/57
f 384/384/2 387/387/2 386/386/2
f 384/384/2 386/386/2 383/383/2
f 388/388/58 390/390/58 389/389/58
f 388/388/58 391/391/58 390/390/58
f 392/392/2 393/393/2 390/390/2
f 392/392/2 390/390/2 391/391/2
f 389/389/59 395/395/59 394/394/59
f 389/389/59 390/390/59 395/395/59
f 393/393/2 396/396/2 395/395/2
f 393/393/2 395/395/2 390/390/2
f 394/394/59 361/361/59 358/358/59
f 394/394/59 395/395/59 361/361/59
f 396/396/2 362/362/2 361/361/2
f 396/396/2 361/361/2 395/395/2
f 397/397/60 399/399/60 398/398/60
f 397/397/60 400/400/60 399/399/60
f 401/401/2 402/402/2 399/399/2
f 401/401/2 399/399/2 400/400/2
f 398/398/61 404/404/61 403/403/61
f 398/398/61 399/399/61 404/404/61
f 402/402/2 405/405/2 404/404/2
f 402/402/2 404/404/2 399/399/2
f 403/403/62 407/407/62 406/406/62
f 403/403/62 404/404/62 407/407/62
f 405/405/2 408/408/2 407/407/2
f 405/405/2 407/407/2 404/404/2
f 406/406/62 410/410/62 409/409/62
f 406/406/62 407/407/62 410/410/62
f 408/408/2 411/411/2 410/410/2
f 408/408/2 410/410/2 407/407/2
f 409/409/63 413/413/63 412/412/63
f 409/409/63 410/410/63 413/413/63
f 411/411/2 414/414/2 413/413/2
f 411/411/2 413/413/2 410/410/2
f 412/412/63 416/416/63 415/415/63
f 412/412/63 413/413/63 416/416/63
f 414/414/2 417/417/2 416/416/2
f 414/414/2 416/416/2 413/413/2
f 418/418/64 420/420/64 419/419/64
f 418/418/64 421/421/64 420/420/64
f 422/422/2 423/423/2 420/420/2
f 422/422/2 420/420/2 421/421/2
f 419/419/64 425/425/64 424/424/64
f 419/419/64 420/420/64 425/425/64
f 423/423/2 426/426/2 425/425/2
f 423/423/2 425/425/2 420/420/2
f 424/424/65 428/428/65 427/427/65
f 424/424/65 425/425/65 428/428/65
f 426/426/2 429/429/2 428/428/2
f 426/426/2 428/428/2 425/425/2
f 427/427/65 431/431/65 430/430/65
f 427/427/65 428/428/65 431/431/65
f 429/429/2 432/432/2 431/431/2
f 429/429/2 431/431/2 428/428/2
f 430/430/66 434/434/66 433/433/66
f 430/430/66 431/431/66 434/434/66
f 432/432/2 435/435/2 434/434/2
f 432/432/2 434/434/2 431/431/2
f 436/436/67 438/438/67 437/437/67
f 436/436/67 439/439/67 438/438/67
f 440/440/2 441/441/2 438/438/2
f 440/440/2 438/438/2 439/439/2
f 437/437/67 443/443/67 442/442/67
f 437/437/67 438/438/67 443/443/67
f 441/441/2 444/444/2 443/443/2
f 441/441/2 443/443/2 438/438/2
f 442/442/67 446/446/67 445/445/67
f 442/442/67 443/443/67 446/446/67
f 444/444/2 447/447/2 446/446/2
f 444/444/2 446/446/2 443/443/2
f 445/445/67 449/449/67 448/448/67
f 445/445/67 446/446/67 449/449/67
f 447/447/2 450/450/2 449/449/2
f 447/447/2 449/449/2 446/446/2
f 448/448/68 452/452/68 451/451/68
f 448/448/68 449/449/68 452/452/68
f 450/450/2 453/453/2 452/452/2
f 450/450/2 452/452/2 449/449/2
f 454/454/69 439/439/69 436/436/69
f 454/454/69 455/455/69 439/439/69
f 456/456/2 440/440/2 439/439/2
f 456/456/2 439/439/2 455/455/2
f 457/457/70 459/459/70 458/458/70
f 457/457/70 460/460/70 459/459/70
f 461/461/2 462/462/2 459/459/2
f 461/461/2 459/459/2 460/460/2
f 458/458/70 464/464/70 463/463/70
f 458/458/70 459/459/70 464/464/70
f 462/462/2 465/465/2 464/464/2
f 462/462/2 464/464/2 459/459/2
f 463/463/71 467/467/71 466/466/71
f 463/463/71 464/464/71 467/467/71
f 465/465/2 468/468/2 467/467/2
f 465/465/2 467/467/2 464/464/2
f 466/466/71 470/470/71 469/469/71
f 466/466/71 467/467/71 470/470/71
f 468/468/2 471/471/2 470/470/2
f 468/468/2 470/470/2 467/467/2
f 469/469/71 473/473/71 472/472/71
f 469/469/71 470/470/71 473/473/71
f 471/471/2 474/474/2 473/473/2
f 471/471/2 473/473/2 470/470/2
f 472/472/71 476/476/71 475/475/71
f 472/472/71 473/473/71 476/476/71
f 474/474/2 477/477/2 476/476/2
f 474/474/2 476/476/2 473/473/2
f 475/475/72 479/479/72 478/478/72
f 475/475/72 476/476/72 479/479/72
f 477/477/2 480/480/2 479/479/2
f 477/477/2 479/479/2 476/476/2
f 478/478/72 482/482/72 481/481/72
f 478/478/72 479/479/72 482/482/72
f 480/480/2 483/483/2 482/482/2
f 480/480/2 482/482/2 479/479/2
f 481/481/73 485/485/73 484/484/73
f 481/481/73 482/482/73 485/485/73
f 483/483/2 486/486/2 485/485/2
f 483/483/2 485/485/2 482/482/2
f 484/484/74 488/488/74 487/487/74
f 484/484/74 485/485/74 488/488/74
f 486/486/2 489/489/2 488/488/2
f 486/486/2 488/488/2 485/485/2
f 487/487/74 491/491/74 490/490/74
f 487/487/74 488/488/74 491/491/74
f 489/489/2 492/492/2 491/491/2
f 489/489/2 491/491/2 488/488/2
f 493/493/75 495/495/75 494/494/75
f 493/493/75 496/496/75 495/495/75
f 497/497/2 498/498/2 495/495/2
f 497/497/2 495/495/2 496/496/2
f 494/494/76 500/500/76 499/499/76
f 494/494/76 495/495/76 500/500/76
f 498/498/2 501/501/2 500/500/2
f 498/498/2 500/500/2 495/495/2
f 499/499/76 503/503/76 502/502/76
f 499/499/76 500/500/76 503/503/76
f 501/501/2 504/504/2 503/503/2
f 501/501/2 503/503/2 500/500/2
f 502/502/76 506/506/76 505/505/76
f 502/502/76 503/503/76 506/506/76
f 504/504/2 507/507/2 506/506/2
f 504/504/2 506/506/2 503/503/2
f 505/505/76 460/460/76 457/457/76
f 505/505/76 506/506/76 460/460/76
f 507/507/2 461/461/2 460/460/2
f 507/507/2 460/460/2 506/506/2
f 508/508/77 510/510/77 509/509/77
f 508/508/77 511/511/77 510/510/77
f 512/512/2 513/513/2 510/510/2
f 512/512/2 510/510/2 511/511/2
f 509/509/77 515/515/77 514/514/77
f 509/509/77 510/510/77 515/515/77
f 513/513/2 516/516/2 515/515/2
f 513/513/2 515/515/2 510/510/2
f 514/514/77 518/518/77 517/517/77
f 514/514/77 515/515/77 518/518/77
f 516/516/2 519/519/2 518/518/2
f 516/516/2 518/518/2 515/515/2
f 517/517/78 521/521/78 520/520/78
f 517/517/78 518/518/78 521/521/78
f 519/519/2 522/522/2 521/521/2
f 519/519/2 521/521/2 518/518/2
f 523/523/79 511/511/79 508/508/79
f 523/523/79 524/524/79 511/511/79
f 525/525/2 512/512/2 511/511/2
f 525/525/2 511/511/2 524/524/2
f 526/526/80 528/528/80 527/527/80
f 526/526/80 529/529/80 528/528/80
f 530/530/2 531/531/2 528/528/2
f 530/530/2 528/528/2 529/529/2
f 527/527/81 533/533/81 532/532/81
f 527/527/81 528/528/81 533/533/81
f 531/531/2 534/534/2 533/533/2
f 531/531/2 533/533/2 528/528/2
f 532/532/81 536/536/81 535/535/81
f 532/532/81 533/533/81 536/536/81
f 534/534/2 537/537/2 536/536/2
f 534/534/2 536/536/2 533/533/2
f 535/535/81 539/539/81 538/538/81
f 535/535/81 536/536/81 539/539/81
f 537/537/2 540/540/2 539/539/2
f 537/537/2 539/539/2 536/536/2
f 538/538/81 542/542/81 541/541/81
f 538/538/81 539/539/81 542/542/81
f 540/540/2 543/543/2 542/542/2
f 540/540/2 542/542/2 539/539/2
f 541/541/82 545/545/82 544/544/82
f 541/541/82 542/542/82 545/545/82
f 543/543/2 546/546/2 545/545/2
f 543/543/2 545/545/2 542/542/2
f 544/544/82 548/548/82 547/547/82
f 544/544/82 545/545/82 548/548/82
f 546/546/2 549/549/2 548/548/2
f 546/546/2 548/548/2 545/545/2
f 547/547/82 551/551/82 550/550/82
f 547/547/82 548/548/82 551/551/82
f 549/549/2 552/552/2 551/551/2
f 549/549/2 551/551/2 548/548/2
f 553/553/83 555/555/83 554/554/83
f 553/553/83 556/556/83 555/555/83
f 557/557/2 558/558/2 555/555/2
f 557/557/2 555/555/2 556/556/2
f 554/554/83 560/560/83 559/559/83
f 554/554/83 555/555/83 560/560/83
f 558/558/2 561/561/2 560/560/2
f 558/558/2 560/560/2 555/555/2
f 562/562/84 564/564/84 563/563/84
f 562/562/84 565/565/84 564/564/84
f 566/566/2 567/567/2 564/564/2
f 566/566/2 564/564/2 565/565/2
f 563/563/85 556/556/85 553/553/85
f 563/563/85 564/564/85 556/556/85
f 567/567/2 557/557/2 556/556/2
f 567/567/2 556/556/2 564/564/2
f 568/568/86 570/570/86 569/569/86
f 568/568/86 571/571/86 570/570/86
f 572/572/2 573/573/2 570/570/2
f 572/572/2 570/570/2 571/571/2
f 569/569/87 575/575/87 574/574/87
f 569/569/87 570/570/87 575/575/87
f 573/573/2 576/576/2 575/575/2
f 573/573/2 575/575/2 570/570/2
f 574/574/87 578/578/87 577/577/87
f 574/574/87 575/575/87 578/578/87
f 576/576/2 579/579/2 578/578/2
f 576/576/2 578/578/2 575/575/2
f 577/577/87 581/581/87 580/580/87
f 577/577/87 578/578/87 581/581/87
f 579/579/2 582/582/2 581/581/2
f 579/579/2 581/581/2 578/578/2
f 580/580/88 584/584/88 583/583/88
f 580/580/88 581/581/88 584/584/88
f 582/582/2 585/585/2 584/584/2
f 582/582/2 584/584/2 581/581/2
f 583/583/88 587/587/88 586/586/88
f 583/583/88 584/584/88 587/587/88
f 585/585/2 588/588/2 587/587/2
f 585/585/2 587/587/2 584/584/2
f 589/589/89 591/591/89 590/590/89
f 589/589/89 592/592/89 591/591/89
f 593/593/2 594/594/2 591/591/2
f 593/593/2 591/591/2 592/592/2
f 595/595/90 597/597/90 596/596/90
f 595/595/90 598/598/90 597/597/90
f 599/599/2 600/600/2 597/597/2
f 599/599/2 597/597/2 598/598/2
f 596/596/91 602/602/91 601/601/91
f 596/596/91 597/597/91 602/602/91
f 600/600/2 603/603/2 602/602/2
f 600/600/2 602/602/2 597/597/2
f 601/601/91 605/605/91 604/604/91
f 601/601/91 602/602/91 605/605/91
f 603/603/2 606/606/2 605/605/2
f 603/603/2 605/605/2 602/602/2
f 604/604/91 608/608/91 607/607/91
f 604/604/91 605/605/91 608/608/91
f 606/606/2 609/609/2 608/608/2
f 606/606/2 608/608/2 605/605/2
f 607/607/92 611/611/92 610/610/92
f 607/607/92 608/608/92 611/611/92
f 609/609/2 612/612/2 611/611/2
f 609/609/2 611/611/2 608/608/2
f 610/610/92 592/592/92 589/589/92
f 610/610/92 611/611/92 592/592/92
f 612/612/2 593/593/2 592/592/2
f 612/612/2 592/592/2 611/611/2
f 613/613/93 615/615/93 614/614/93
f 613/613/93 616/616/93 615/615/93
f 617/617/2 618/618/2 615/615/2
f 617/617/2 615/615/2 616/616/2
f 614/614/94 620/620/94 619/619/94
f 614/614/94 615/615/94 620/620/94
f 618/618/2 621/621/2 620/620/2
f 618/618/2 620/620/2 615/615/2
f 619/619/94 623/623/94 622/622/94
f 619/619/94 620/620/94 623/623/94
f 621/621/2 624/624/2 623/623/2
f 621/621/2 623/623/2 620/620/2
f 622/622/94 626/626/94 625/625/94
f 622/622/94 623/623/94 626/626/94
f 624/624/2 627/627/2 626/626/2
f 624/624/2 626/626/2 623/623/2
f 628/628/95 630/630/95 629/629/95
f 628/628/95 631/631/95 630/630/95
f 632/632/2 633/633/2 630/630/2
f 632/632/2 630/630/2 631/631/2
f 629/629/95 635/635/95 634/634/95
f 629/629/95 630/630/95 635/635/95
f 633/633/2 636/636/2 635/635/2
f 633/633/2 635/635/2 630/630/2
f 634/634/96 638/638/96 637/637/96
f 634/634/96 635/635/96 638/638/96
f 636/636/2 639/639/2 638/638/2
f 636/636/2 638/638/2 635/635/2
f 637/637/96 641/641/96 640/640/96
f 637/637/96 638/638/96 641/641/96
f 639/639/2 642/642/2 641/641/2
f 639/639/2 641/641/2 638/638/2
f 640/640/96 644/644/96 643/643/96
f 640/640/96 641/641/96 644/644/96
f 642/642/2 645/645/2 644/644/2
f 642/642/2 644/644/2 641/641/2
f 643/643/96 647/647/96 646/646/96
f 643/643/96 644/644/96 647/647/96
f 645/645/2 648/648/2 647/647/2
f 645/645/2 647/647/2 644/644/2
f 646/646/97 650/650/97 649/649/97
f 646/646/97 647/647/97 650/650/97
f 648/648/2 651/651/2 650/650/2
f 648/648/2 650/650/2 647/647/2
f 649/649/98 653/653/98 652/652/98
f 649/649/98 650/650/98 653/653/98
f 651/651/2 654/654/2 653/653/2
f 651/651/2 653/653/2 650/650/2
f 652/652/98 656/656/98 655/655/98
f 652/652/98 653/653/98 656/656/98
f 654/654/2 657/657/2 656/656/2
f 654/654/2 656/656/2 653/653/2
f 658/658/99 660/660/99 659/659/99
f 658/658/99 661/661/99 660/660/99
f 662/662/2 663/663/2 660/660/2
f 662/662/2 660/660/2 661/661/2
f 659/659/100 665/665/100 664/664/100
f 659/659/100 660/660/100 665/665/100
f 663/663/2 666/666/2 665/665/2
f 663/663/2 665/665/2 660/660/2
f 667/667/101 669/669/101 668/668/101
f 667/667/101 670/670/101 669/669/101
f 671/671/2 672/672/2 669/669/2
f 671/671/2 669/669/2 670/670/2
f 668/668/102 674/674/102 673/673/102
f 668/668/102 669/669/102 674/674/102
f 672/672/2 675/675/2 674/674/2
f 672/672/2 674/674/2 669/669/2
f 673/673/102 661/661/102 658/658/102
f 673/673/102 674/674/102 661/661/102
f 675/675/2 662/662/2 661/661/2
f 675/675/2 661/661/2 674/674/2
f 676/676/103 678/678/103 677/677/103
f 676/676/103 679/679/103 678/678/103
f 680/680/2 681/681/2 678/678/2
f 680/680/2 678/678/2 679/679/2
f 677/677/103 683/683/103 682/682/103
f 677/677/103 678/678/103 683/683/103
f 681/681/2 684/684/2 683/683/2
f 681/681/2 683/683/2 678/678/2
f 682/682/104 686/686/104 685/685/104
f 682/682/104 683/683/104 686/686/104
f 684/684/2 687/687/2 686/686/2
f 684/684/2 686/686/2 683/683/2
f 688/688/105 690/690/105 689/689/105
f 688/688/105 691/691/105 690/690/105
f 692/692/2 693/693/2 690/690/2
f 692/692/2 690/690/2 691/691/2
f 689/689/106 695/695/106 694/694/106
f 689/689/106 690/690/106 695/695/106
f 693/693/2 696/696/2 695/695/2
f 693/693/2 695/695/2 690/690/2
f 694/694/106 698/698/106 697/697/106
f 694/694/106 695/695/106 698/698/106
f 696/696/2 699/699/2 698/698/2
f 696/696/2 698/698/2 695/695/2
f 697/697/106 701/701/106 700/700/106
f 697/697/106 698/698/106 701/701/106
f 699/699/2 702/702/2 701/701/2
f 699/699/2 701/701/2 698/698/2
f 700/700/106 704/704/106 703/703/106
f 700/700/106 701/701/106 704/704/106
f 702/702/2 705/705/2 704/704/2
f 702/702/2 704/704/2 701/701/2
f 703/703/106 707/707/106 706/706/106
f 703/703/106 704/704/106 707/707/106
f 705/705/2 708/708/2 707/707/2
f 705/705/2 707/707/2 704/704/2
f 706/706/107 710/710/107 709/709/107
f 706/706/107 707/707/107 710/710/107
f 708/708/2 711/711/2 710/710/2
f 708/708/2 710/710/2 707/707/2
f 712/712/108 714/714/108 713/713/108
f 712/712/108 715/715/108 714/714/108
f 716/716/2 717/717/2 714/714/2
f 716/716/2 714/714/2 715/715/2
f 713/713/109 719/719/109 718/718/109
f 713/713/109 714/714/109 719/719/109
f 717/717/2 720/720/2 719/719/2
f 717/717/2 719/719/2 714/714/2
f 721/721/110 723/723/110 722/722/110
f 721/721/110 724/724/110 723/723/110
f 725/725/2 726/726/2 723/723/2
f 725/725/2 723/723/2 724/724/2
f 722/722/110 728/728/110 727/727/110
f 722/722/110 723/723/110 728/728/110
f 726/726/2 729/729/2 728/728/2
f 726/726/2 728/728/2 723/723/2
f 727/727/111 731/731/111 730/730/111
f 727/727/111 728/728/111 731/731/111
f 729/729/2 732/732/2 731/731/2
f 729/729/2 731/731/2 728/728/2
f 730/730/111 734/734/111 733/733/111
f 730/730/111 731/731/111 734/734/111
f 732/732/2 735/735/2 734/734/2
f 732/732/2 734/734/2 731/731/2
f 733/733/111 737/737/111 736/736/111
f 733/733/111 734/734/111 737/737/111
f 735/735/2 738/738/2 737/737/2
f 735/735/2 737/737/2 734/734/2
f 736/736/111 740/740/111 739/739/111
f 736/736/111 737/737/111 740/740/111
f 738/738/2 741/741/2 740/740/2
f 738/738/2 740/740/2 737/737/2
f 739/739/112 743/743/112 742/742/112
f 739/739/112 740/740/112 743/743/112
f 741/741/2 744/744/2 743/743/2
f 741/741/2 743/743/2 740/740/2
f 745/745/113 747/747/113 746/746/113
f 745/745/113 748/748/113 747/747/113
f 749/749/2 750/750/2 747/747/2
f 749/749/2 747/747/2 748/748/2
f 746/746/113 752/752/113 751/751/113
f 746/746/113 747/747/113 752/752/113
f 750/750/2 753/753/2 752/752/2
f 750/750/2 752/752/2 747/747/2
f 751/751/113 755/755/113 754/754/113
f 751/751/113 752/752/113 755/755/113
f 753/753/2 756/756/2 755/755/2
f 753/753/2 755/755/2 752/752/2
f 754/754/114 758/758/114 757/757/114
f 754/754/114 755/755/114 758/758/114
f 756/756/2 759/759/2 758/758/2
f 756/756/2 758/758/2 755/755/2
f 760/760/115 748/748/115 745/745/115
f 760/760/115 761/761/115 748/748/115
f 762/762/2 749/749/2 748/748/2
f 762/762/2 748/748/2 761/761/2
f 763/763/116 765/765/116 764/764/116
f 763/763/116 766/766/116 765/765/116
f 767/767/2 768/768/2 765/765/2
f 767/767/2 765/765/2 766/766/2
f 764/764/116 770/770/116 769/769/116
f 764/764/116 765/765/116 770/770/116
f 768/768/2 771/771/2 770/770/2
f 768/768/2 770/770/2 765/765/2
f 772/772/117 766/766/117 763/763/117
f 772/772/117 773/773/117 766/766/117
f 774/774/2 767/767/2 766/766/2
f 774/774/2 766/766/2 773/773/2
f 775/775/118 777/777/118 776/776/118
f 775/775/118 778/778/118 777/777/118
f 779/779/2 780/780/2 777/777/2
f 779/779/2 777/777/2 778/778/2
f 776/776/119 782/782/119 781/781/119
f 776/776/119 777/777/119 782/782/119
f 780/780/2 783/783/2 782/782/2
f 780/780/2 782/782/2 777/777/2
f 781/781/119 785/785/119 784/784/119
f 781/781/119 782/782/119 785/785/119
f 783/783/2 786/786/2 785/785/2
f 783/783/2 785/785/2 782/782/2
f 784/784/119 788/788/119 787/787/119
f 784/784/119 785/785/119 788/788/119
f 786/786/2 789/789/2 788/788/2
f 786/786/2 788/788/2 785/785/2
f 790/790/120 792/792/120 791/791/120
f 790/790/120 793/793/120 792/792/120
f 794/794/2 795/795/2 792/792/2
f 794/794/2 792/792/2 793/793/2
f 791/791/120 797/797/120 796/796/120
f 791/791/120 792/792/120 797/797/120
f 795/795/2 798/798/2 797/797/2
f 795/795/2 797/797/2 792/792/2
f 796/796/120 800/800/120 799/799/120
f 796/796/120 797/797/120 800/800/120
f 798/798/2 801/801/2 800/800/2
f 798/798/2 800/800/2 797/797/2
f 799/799/120 803/803/120 802/802/120
f 799/799/120 800/800/120 803/803/120
f 801/801/2 804/804/2 803/803/2
f 801/801/2 803/803/2 800/800/2
f 805/805/121 807/807/121 806/806/121
f 805/805/121 808/808/121 807/807/121
f 809/809/2 810/810/2 807/807/2
f 809/809/2 807/807/2 808/808/2
f 806/806/121 812/812/121 811/811/121
f 806/806/121 807/807/121 812/812/121
f 810/810/2 813/813/2 812/812/2
f 810/810/2 812/812/2 807/807/2
f 811/811/121 815/815/121 814/814/121
f 811/811/121 812/812/121 815/815/121
f 813/813/2 816/816/2 815/815/2
f 813/813/2 815/815/2 812/812/2
f 817/817/122 819/819/122 818/818/122
f 817/817/122 820/820/122 819/819/122
f 821/821/2 822/822/2 819/819/2
f 821/821/2 819/819/2 820/820/2
f 818/818/122 824/824/122 823/823/122
f 818/818/122 819/819/122 824/824/122
f 822/822/2 825/825/2 824/824/2
f 822/822/2 824/824/2 819/819/2
f 823/823/123 793/793/123 790/790/123
f 823/823/123 824/824/123 793/793/123
f 825/825/2 794/794/2 793/793/2
f 825/825/2 793/793/2 824/824/2
f 826/826/124 828/828/124 827/827/124
f 826/826/124 829/829/124 828/828/124
f 830/830/2 831/831/2 828/828/2
f 830/830/2 828/828/2 829/829/2
f 827/827/124 833/833/124 832/832/124
f 827/827/124 828/828/124 833/833/124
f 831/831/2 834/834/2 833/833/2
f 831/831/2 833/833/2 828/828/2
f 832/832/124 836/836/124 835/835/124
f 832/832/124 833/833/124 836/836/124
f 834/834/2 837/837/2 836/836/2
f 834/834/2 836/836/2 833/833/2
f 838/838/125 840/840/125 839/839/125
f 838/838/125 841/841/125 840/840/125
f 842/842/2 843/843/2 840/840/2
f 842/842/2 840/840/2 841/841/2
f 839/839/126 845/845/126 844/844/126
f 839/839/126 840/840/126 845/845/126
f 843/843/2 846/846/2 845/845/2
f 843/843/2 845/845/2 840/840/2
f 847/847/127 849/849/127 848/848/127
f 847/847/127 850/850/127 849/849/127
f 851/851/2 852/852/2 849/849/2
f 851/851/2 849/849/2 850/850/2
f 848/848/127 854/854/127 853/853/127
f 848/848/127 849/849/127 854/854/127
f 852/852/2 855/855/2 854/854/2
f 852/852/2 854/854/2 849/849/2
f 853/853/128 857/857/128 856/856/128
f 853/853/128 854/854/128 857/857/128
f 855/855/2 858/858/2 857/857/2
f 855/855/2 857/857/2 854/854/2
f 859/859/129 861/861/129 860/860/129
f 859/859/129 862/862/129 861/861/129
f 863/863/2 864/864/2 861/861/2
f 863/863/2 861/861/2 862/862/2
f 860/860/129 866/866/129 865/865/129
f 860/860/129 861/861/129 866/866/129
f 864/864/2 867/867/2 866/866/2
f 864/864/2 866/866/2 861/861/2
f 868/868/130 870/870/130 869/869/130
f 868/868/130 871/871/130 870/870/130
f 872/872/2 873/873/2 870/870/2
f 872/872/2 870/870/2 871/871/2
f 869/869/131 875/875/131 874/874/131
f 869/869/131 870/870/131 875/875/131
f 873/873/2 876/876/2 875/875/2
f 873/873/2 875/875/2 870/870/2
f 874/874/131 862/862/131 859/859/131
f 874/874/131 875/875/131 862/862/131
f 876/876/2 863/863/2 862/862/2
f 876/876/2 862/862/2 875/875/2
