# Unreal legacy OBJ adapter: canonical vertices are UE cm; this file is written with Y reflected and triangle winding reversed. One object, no g groups, so the importer creates exactly one material slot.
# OldCityFoundationV2 foundations (plinth + stepped footing); generator 463404ba754c804f514fe655944ece4eb51a92e1273fec326ad5c2ebfbb18f24
# AUTHORED detail in the style of Old City stone foundations, not survey
o SM_OldCityFoundationV2_Kept_N004_N005
s off
v -179483.39 204687.82 3314.80
v -179255.33 204985.56 3284.65
v -179255.33 204985.56 3339.80
v -179483.39 204687.82 3339.80
v -179478.69 204680.80 3339.80
v -179252.52 204976.08 3339.80
v -179189.76 204962.33 3280.33
v -179189.76 204962.33 3339.80
v -179188.25 204953.31 3339.80
v -179124.51 204939.21 3276.03
v -179124.51 204939.21 3339.80
v -179124.31 204930.65 3339.80
v -178987.68 204890.73 3277.97
v -178987.68 204890.73 3339.80
v -178990.21 204883.14 3339.80
v -178451.79 204700.86 3285.57
v -178451.79 204700.86 3339.80
v -178465.02 204697.06 3339.80
v -178604.97 204508.03 3293.28
v -178604.97 204508.03 3339.80
v -178617.47 204505.15 3339.80
v -178937.11 204089.93 3310.01
v -178937.11 204089.93 3339.80
v -178948.01 204089.07 3339.80
v -178806.06 203970.07 3314.80
v -178806.06 203970.07 3339.80
v -178817.00 203969.23 3339.80
v -176481.28 206152.85 3210.30
v -176020.91 205631.17 3175.92
v -176020.91 205631.17 3235.30
v -176481.28 206152.85 3235.30
v -176482.33 206141.96 3235.30
v -176026.59 205625.52 3235.30
v -175488.26 205027.57 3181.60
v -175488.26 205027.57 3235.30
v -175499.28 205027.97 3235.30
v -175460.71 204996.35 3179.40
v -175460.71 204996.35 3235.30
v -175472.01 204997.07 3235.30
v -175847.01 204657.15 3210.30
v -175847.01 204657.15 3235.30
v -175851.92 204663.49 3235.30
v -172845.07 207671.19 2764.40
v -172556.74 207861.16 2733.73
v -172556.74 207861.16 2789.40
v -172845.07 207671.19 2789.40
v -172843.29 207662.78 2789.40
v -172559.01 207850.08 2789.40
v -172336.63 207527.57 2729.47
v -172336.63 207527.57 2789.40
v -172340.56 207519.00 2789.40
v -172053.54 207098.54 2741.14
v -172053.54 207098.54 2789.40
v -172059.61 207093.21 2789.40
v -171972.34 206975.48 2752.66
v -171972.34 206975.48 2789.40
v -171979.02 206971.07 2789.40
v -171889.51 206850.07 2764.40
v -171889.51 206850.07 2789.40
v -171896.81 206846.60 2789.40
v -171527.01 200697.82 3053.00
v -171371.63 200744.01 3021.92
v -171371.63 200744.01 3078.00
v -171527.01 200697.82 3078.00
v -171530.59 200688.41 3078.00
v -171377.01 200734.06 3078.00
v -171265.30 200386.78 3000.66
v -171265.30 200386.78 3078.00
v -171272.06 200381.45 3078.00
v -171158.38 200027.57 3035.21
v -171158.38 200027.57 3078.00
v -171166.52 200026.88 3078.00
v -171018.07 199556.16 3023.98
v -171018.07 199556.16 3078.00
v -171028.02 199561.56 3078.00
v -171122.30 199525.35 3032.32
v -171122.30 199525.35 3078.00
v -171131.00 199531.13 3078.00
v -171380.76 199448.96 3053.00
v -171380.76 199448.96 3078.00
v -171386.36 199455.65 3078.00
v -170604.51 201430.86 2868.50
v -170545.83 201448.89 2856.76
v -170545.83 201448.89 2893.50
v -170604.51 201430.86 2893.50
v -170607.31 201421.63 2893.50
v -170549.57 201439.37 2893.50
v -170449.23 201478.57 2837.44
v -170449.23 201478.57 2893.50
v -170454.52 201468.57 2893.50
v -170392.79 201295.84 2826.16
v -170392.79 201295.84 2893.50
v -170398.60 201287.55 2893.50
v -170384.17 201267.92 2824.43
v -170384.17 201267.92 2893.50
v -170390.06 201259.88 2893.50
v -170241.30 200805.43 2868.50
v -170241.30 200805.43 2893.50
v -170248.52 200801.69 2893.50
v -167607.01 211037.60 2211.80
v -167482.81 210885.86 2206.83
v -167482.81 210885.86 2236.80
v -167607.01 211037.60 2236.80
v -167611.97 211031.02 2236.80
v -167488.45 210880.13 2236.80
v -166780.27 210027.57 2178.73
v -166780.27 210027.57 2236.80
v -166789.83 210026.62 2236.80
v -166710.16 209941.92 2179.35
v -166710.16 209941.92 2236.80
v -166720.12 209941.45 2236.80
v -166624.51 209837.28 2180.11
v -166624.51 209837.28 2236.80
v -166634.95 209837.40 2236.80
v -166475.25 209654.92 2181.44
v -166475.25 209654.92 2236.80
v -166486.51 209656.06 2236.80
v -166624.51 209533.20 2192.27
v -166624.51 209533.20 2236.80
v -166632.00 209537.41 2236.80
v -166893.38 209313.94 2211.80
v -166893.38 209313.94 2236.80
v -166894.06 209323.71 2236.80
v -165198.51 203001.17 2258.42
v -164853.91 203113.65 2230.85
v -164853.91 203113.65 2286.30
v -165198.51 203001.17 2286.30
v -165196.01 202993.57 2286.30
v -164859.01 203103.57 2286.30
v -164660.49 202527.57 2215.38
v -164660.49 202527.57 2286.30
v -164667.28 202522.62 2286.30
v -164527.49 202124.59 2253.10
v -164527.49 202124.59 2286.30
v -164535.45 202123.17 2286.30
v -164460.47 201921.50 2261.30
v -164460.47 201921.50 2286.30
v -164469.01 201921.86 2286.30
v -165234.51 202989.28 2261.30
v -165234.51 202989.28 2286.30
v -165231.23 202981.94 2286.30
v -164425.76 205946.28 2196.60
v -164124.51 206035.51 2172.50
v -164124.51 206035.51 2221.60
v -164425.76 205946.28 2221.60
v -164426.37 205937.76 2221.60
v -164128.30 206026.05 2221.60
v -163972.63 206080.50 2166.42
v -163972.63 206080.50 2221.60
v -163978.02 206070.56 2221.60
v -163766.07 205386.01 2158.16
v -163766.07 205386.01 2221.60
v -163774.29 205385.58 2221.60
v -163659.46 205027.57 2172.50
v -163659.46 205027.57 2221.60
v -163669.14 205032.05 2221.60
v -163639.56 204960.67 2172.50
v -163639.56 204960.67 2221.60
v -163649.51 204966.07 2221.60
v -163962.06 204865.11 2172.50
v -163962.06 204865.11 2221.60
v -163972.01 204870.51 2221.60
v -164124.51 204816.97 2172.50
v -164124.51 204816.97 2221.60
v -164134.46 204822.37 2221.60
v -164130.57 204815.18 2172.98
v -164130.57 204815.18 2221.60
v -164140.52 204820.57 2221.60
v -164124.51 204794.81 2172.50
v -164124.51 204794.81 2221.60
v -164134.46 204800.20 2221.60
v -164000.07 204376.18 2172.50
v -164000.07 204376.18 2221.60
v -164010.01 204381.57 2221.60
v -164124.51 204339.26 2172.50
v -164124.51 204339.26 2221.60
v -164132.89 204345.12 2221.60
v -164425.76 204249.89 2196.60
v -164425.76 204249.89 2221.60
v -164430.33 204256.87 2221.60
v -161766.97 204938.19 2172.50
v -161792.97 205027.57 2172.50
v -161792.97 205027.57 2214.30
v -161766.97 204938.19 2214.30
v -161761.51 204948.08 2214.30
v -161786.56 205034.16 2214.30
v -161862.08 205265.13 2163.00
v -161862.08 205265.13 2214.30
v -161853.12 205262.96 2214.30
v -161887.94 205354.01 2159.44
v -161887.94 205354.01 2214.30
v -161878.02 205348.56 2214.30
v -161624.51 205430.48 2156.38
v -161624.51 205430.48 2214.30
v -161625.83 205421.76 2214.30
v -161528.08 205458.47 2159.12
v -161528.08 205458.47 2214.30
v -161533.51 205448.56 2214.30
v -161452.14 205199.94 2172.50
v -161452.14 205199.94 2214.30
v -161460.38 205199.57 2214.30
v -161406.09 205043.14 2172.50
v -161406.09 205043.14 2214.30
v -161416.02 205048.56 2214.30
v -161459.14 205027.57 2172.50
v -161459.14 205027.57 2214.30
v -161467.19 205033.54 2214.30
v -161586.98 204990.04 2172.50
v -161586.98 204990.04 2214.30
v -161590.50 204997.34 2214.30
v -161623.29 204979.38 2172.50
v -161623.29 204979.38 2214.30
v -161625.51 204987.06 2214.30
v -161624.51 204979.03 2172.50
v -161624.51 204979.03 2214.30
v -161626.68 204986.73 2214.30
v -161692.56 204959.52 2172.50
v -161692.56 204959.52 2214.30
v -161691.09 204968.27 2214.30
v -159159.51 202202.10 2173.90
v -159124.51 202217.40 2172.50
v -159124.51 202217.40 2198.90
v -159159.51 202202.10 2198.90
v -159160.79 202192.81 2198.90
v -159126.62 202207.75 2198.90
v -159108.53 202224.38 2171.86
v -159108.53 202224.38 2198.90
v -159111.01 202214.57 2198.90
v -158766.72 201787.01 2158.19
v -158766.72 201787.01 2198.90
v -158773.01 201782.07 2198.90
v -158149.85 201002.23 2133.51
v -158149.85 201002.23 2198.90
v -158156.14 200997.29 2198.90
v -157949.23 200747.01 2143.72
v -157949.23 200747.01 2198.90
v -157955.52 200742.07 2198.90
v -157386.48 200030.06 2172.40
v -157386.48 200030.06 2198.90
v -157399.01 200033.07 2198.90
v -157391.87 200027.57 2172.50
v -157391.87 200027.57 2198.90
v -157404.35 200030.60 2198.90
v -158575.69 199478.74 2172.50
v -158575.69 199478.74 2198.90
v -158576.43 199487.22 2198.90
v -158822.21 199364.46 2172.50
v -158822.21 199364.46 2198.90
v -158820.51 199374.06 2198.90
v -159124.51 199666.43 2172.50
v -159124.51 199666.43 2198.90
v -159123.34 199676.56 2198.90
v -159142.01 199683.91 2173.90
v -159142.01 199683.91 2198.90
v -159140.87 199694.07 2198.90
v -155807.57 207252.57 2161.50
v -155612.35 206979.19 2150.56
v -155612.35 206979.19 2186.50
v -155807.57 207252.57 2186.50
v -155815.69 207250.16 2186.50
v -155623.51 206981.06 2186.50
v -155883.15 206786.21 2142.85
v -155883.15 206786.21 2186.50
v -155892.39 206789.45 2186.50
v -156624.51 206257.88 2121.71
v -156624.51 206257.88 2186.50
v -156628.49 206264.88 2186.50
v -157342.89 205745.94 2129.97
v -157342.89 205745.94 2186.50
v -157341.76 205756.58 2186.50
v -157445.37 205672.91 2131.15
v -157445.37 205672.91 2186.50
v -157443.51 205684.06 2186.50
v -157761.62 206115.46 2161.50
v -157761.62 206115.46 2186.50
v -157754.35 206119.05 2186.50
v -151322.01 204090.25 2184.60
v -151624.51 204063.99 2172.50
v -151624.51 204063.99 2209.60
v -151322.01 204090.25 2209.60
v -151324.75 204098.04 2209.60
v -151622.93 204072.15 2209.60
v -152022.80 204029.41 2156.57
v -152022.80 204029.41 2209.60
v -152015.52 204038.07 2209.60
v -152070.64 204581.45 2154.66
v -152070.64 204581.45 2209.60
v -152062.79 204583.55 2209.60
v -152080.99 204700.88 2154.24
v -152080.99 204700.88 2209.60
v -152073.01 204701.57 2209.60
v -152109.18 205027.57 2153.11
v -152109.18 205027.57 2209.60
v -152100.84 205023.99 2209.60
v -152132.50 205297.73 2184.60
v -152132.50 205297.73 2209.60
v -152123.86 205290.63 2209.60
vt -960.4280 8.2870
vt -960.6022 8.2116
vt -960.6022 8.3495
vt -960.4280 8.3495
vt -960.3987 8.3495
vt -960.5715 8.3495
vt -960.3802 8.2008
vt -960.3802 8.3495
vt -960.3539 8.3495
vt -960.1593 8.1901
vt -960.1593 8.3495
vt -960.1374 8.3495
vt -959.6960 8.1949
vt -959.6960 8.3495
vt -959.6834 8.3495
vt -957.8816 8.2139
vt -957.8816 8.3495
vt -957.9052 8.3495
vt -957.7825 8.2332
vt -957.7825 8.3495
vt -957.8066 8.3495
vt -957.5676 8.2750
vt -957.5676 8.3495
vt -957.5927 8.3495
vt -956.9403 8.2870
vt -956.9403 8.3495
vt -956.9656 8.3495
vt -956.5853 8.0258
vt -954.1302 7.9398
vt -954.1302 8.0883
vt -956.5853 8.0883
vt -956.5607 8.0883
vt -954.1303 8.0883
vt -951.2896 7.9540
vt -951.2896 8.0883
vt -951.3181 8.0883
vt -951.1427 7.9485
vt -951.1427 8.0883
vt -951.1727 8.0883
vt -951.2604 8.0258
vt -951.2604 8.0883
vt -951.2885 8.0883
vt -951.2907 6.9110
vt -951.0448 6.8343
vt -951.0448 6.9735
vt -951.2907 6.9735
vt -951.2652 6.9735
vt -951.0227 6.9735
vt -949.6605 6.8237
vt -949.6605 6.9735
vt -949.6489 6.9735
vt -947.8802 6.8529
vt -947.8802 6.9735
vt -947.8820 6.9735
vt -947.3696 6.8816
vt -947.3696 6.9735
vt -947.3752 6.9735
vt -946.8490 6.9110
vt -946.8490 6.9735
vt -946.8585 6.9735
vt -930.5621 7.6325
vt -930.2891 7.5548
vt -930.2891 7.6950
vt -930.5621 7.6950
vt -930.5475 7.6950
vt -930.2777 7.6950
vt -929.1302 7.5016
vt -929.1302 7.6950
vt -929.1338 7.6950
vt -927.9649 7.5880
vt -927.9649 7.6950
vt -927.9835 7.6950
vt -926.4356 7.5599
vt -926.4356 7.6950
vt -926.4739 7.6950
vt -926.6191 7.5808
vt -926.6191 7.6950
vt -926.6553 7.6950
vt -927.0743 7.6325
vt -927.0743 7.6950
vt -927.1050 7.6950
vt -930.0884 7.1712
vt -929.9868 7.1419
vt -929.9868 7.2337
vt -930.0884 7.2337
vt -930.0724 7.2337
vt -929.9724 7.2337
vt -929.8195 7.0936
vt -929.8195 7.2337
vt -929.8077 7.2337
vt -929.2216 7.0654
vt -929.2216 7.2337
vt -929.2154 7.2337
vt -929.1302 7.0611
vt -929.1302 7.2337
vt -929.1249 7.2337
vt -927.6168 7.1712
vt -927.6168 7.2337
vt -927.6255 7.2337
vt -946.6115 5.5295
vt -945.9217 5.5171
vt -945.9217 5.5920
vt -946.6115 5.5920
vt -946.6075 5.5920
vt -945.9215 5.5920
vt -942.0196 5.4468
vt -942.0196 5.5920
vt -942.0411 5.5920
vt -941.6302 5.4484
vt -941.6302 5.5920
vt -941.6539 5.5920
vt -941.1545 5.4503
vt -941.1545 5.5920
vt -941.1809 5.5920
vt -940.3254 5.4536
vt -940.3254 5.5920
vt -940.3564 5.5920
vt -940.3943 5.4807
vt -940.3943 5.5920
vt -940.4235 5.5920
vt -940.5183 5.5295
vt -940.5183 5.5920
vt -940.5444 5.5920
vt -920.4992 5.6460
vt -919.9189 5.5771
vt -919.9189 5.7158
vt -920.4992 5.7158
vt -920.4740 5.7158
vt -919.9065 5.7158
vt -917.9701 5.5385
vt -917.9701 5.7158
vt -917.9748 5.7158
vt -916.6302 5.6327
vt -916.6302 5.7158
vt -916.6465 5.7158
vt -915.9549 5.6533
vt -915.9549 5.7158
vt -915.9772 5.7158
vt -920.5595 5.6533
vt -920.5595 5.7158
vt -920.5329 5.7158
vt -925.9301 5.4915
vt -925.4001 5.4313
vt -925.4001 5.5540
vt -925.9301 5.5540
vt -925.9103 5.5540
vt -925.3859 5.5540
vt -925.1328 5.4161
vt -925.1328 5.5540
vt -925.1214 5.5540
vt -922.8802 5.3954
vt -922.8802 5.5540
vt -922.8997 5.5540
vt -921.7176 5.4313
vt -921.7176 5.5540
vt -921.7530 5.5540
vt -921.5006 5.4313
vt -921.5006 5.5540
vt -921.5389 5.5540
vt -922.0679 5.4313
vt -922.0679 5.5540
vt -922.1063 5.5540
vt -922.3537 5.4313
vt -922.3537 5.5540
vt -922.3921 5.5540
vt -922.3644 5.4325
vt -922.3644 5.5540
vt -922.4027 5.5540
vt -922.2983 5.4313
vt -922.2983 5.5540
vt -922.3367 5.5540
vt -920.9406 5.4313
vt -920.9406 5.5540
vt -920.9790 5.5540
vt -921.1594 5.4313
vt -921.1594 5.5540
vt -921.1950 5.5540
vt -921.6891 5.4915
vt -921.6891 5.5540
vt -921.7180 5.5540
vt -916.7629 5.4313
vt -917.0514 5.4313
vt -917.0514 5.5358
vt -916.7629 5.5358
vt -916.7740 5.5358
vt -917.0518 5.5358
vt -917.8180 5.4075
vt -917.8180 5.5358
vt -917.7902 5.5358
vt -918.1049 5.3986
vt -918.1049 5.5358
vt -918.0664 5.5358
vt -917.6375 5.3910
vt -917.6375 5.5358
vt -917.6190 5.5358
vt -917.4664 5.3978
vt -917.4664 5.5358
vt -917.4552 5.5358
vt -916.6302 5.4313
vt -916.6302 5.5358
vt -916.6499 5.5358
vt -916.1231 5.4313
vt -916.1231 5.5358
vt -916.1614 5.5358
vt -916.2168 5.4313
vt -916.2168 5.5358
vt -916.2518 5.5358
vt -916.4426 5.4313
vt -916.4426 5.5358
vt -916.4696 5.5358
vt -916.5067 5.4313
vt -916.5067 5.5358
vt -916.5314 5.5358
vt -916.5089 5.4313
vt -916.5089 5.5358
vt -916.5335 5.5358
vt -916.6302 5.4313
vt -916.6302 5.5358
vt -916.6484 5.5358
vt -903.4040 5.4348
vt -903.3548 5.4313
vt -903.3548 5.4973
vt -903.4040 5.4973
vt -903.3840 5.4973
vt -903.3359 5.4973
vt -903.3323 5.4297
vt -903.3323 5.4973
vt -903.3140 5.4973
vt -901.3843 5.3955
vt -901.3843 5.4973
vt -901.3877 5.4973
vt -897.8802 5.3338
vt -897.8802 5.4973
vt -897.8836 5.4973
vt -896.7406 5.3593
vt -896.7406 5.4973
vt -896.7440 5.4973
vt -893.5414 5.4310
vt -893.5414 5.4973
vt -893.5802 5.4973
vt -893.5486 5.4313
vt -893.5486 5.4973
vt -893.5874 5.4973
vt -895.1361 5.4313
vt -895.1361 5.4973
vt -895.1591 5.4973
vt -895.4667 5.4313
vt -895.4667 5.4973
vt -895.4864 5.4973
vt -896.9774 5.4313
vt -896.9774 5.4973
vt -896.9998 5.4973
vt -897.0648 5.4348
vt -897.0648 5.4973
vt -897.0874 5.4973
vt -907.6504 5.4037
vt -906.4789 5.3764
vt -906.4789 5.4662
vt -907.6504 5.4662
vt -907.6646 5.4662
vt -906.5114 5.4662
vt -906.6734 5.3571
vt -906.6734 5.4662
vt -906.7046 5.4662
vt -907.2060 5.3043
vt -907.2060 5.4662
vt -907.2334 5.4662
vt -907.7221 5.3249
vt -907.7221 5.4662
vt -907.7458 5.4662
vt -907.7957 5.3279
vt -907.7957 5.4662
vt -907.8189 5.4662
vt -909.6927 5.4037
vt -909.6927 5.4662
vt -909.6835 5.4662
vt -888.5307 5.4615
vt -889.2213 5.4313
vt -889.2213 5.5240
vt -888.5307 5.5240
vt -888.5570 5.5240
vt -889.2377 5.5240
vt -890.1305 5.3914
vt -890.1305 5.5240
vt -890.1340 5.5240
vt -891.6302 5.3866
vt -891.6302 5.5240
vt -891.6158 5.5240
vt -891.9547 5.3856
vt -891.9547 5.5240
vt -891.9365 5.5240
vt -892.8419 5.3828
vt -892.8419 5.5240
vt -892.8121 5.5240
vt -893.5756 5.4615
vt -893.5756 5.5240
vt -893.5362 5.5240
vn -0.7939 0.6081 0.0000
vn 0.0000 -0.0000 1.0000
vn 0.3340 0.9426 0.0000
vn 0.7830 -0.6220 0.0000
vn 0.6749 0.7379 0.0000
vn 0.7498 0.6617 0.0000
vn 0.6598 -0.7514 0.0000
vn -0.5502 0.8351 0.0000
vn 0.8347 0.5507 0.0000
vn 0.8344 0.5511 0.0000
vn -0.2850 0.9585 0.0000
vn 0.9584 0.2853 0.0000
vn 0.2834 -0.9590 0.0000
vn -0.2937 0.9559 0.0000
vn 0.9555 0.2951 0.0000
vn 0.7738 0.6334 0.0000
vn 0.6320 -0.7750 0.0000
vn -0.3103 0.9506 0.0000
vn 0.9496 0.3134 0.0000
vn -0.3137 0.9495 0.0000
vn -0.2840 0.9588 0.0000
vn 0.9585 0.2851 0.0000
vn 0.2841 -0.9588 0.0000
vn 0.9585 0.2850 0.0000
vn 0.2844 -0.9587 0.0000
vn -0.9602 -0.2793 0.0000
vn -0.2788 0.9604 0.0000
vn 0.9595 0.2818 0.0000
vn 0.2817 -0.9595 0.0000
vn 0.2756 -0.9613 0.0000
vn -0.4005 0.9163 0.0000
vn 0.7879 0.6158 0.0000
vn 0.7862 0.6180 0.0000
vn 0.7866 0.6174 0.0000
vn 0.4206 -0.9072 0.0000
vn -0.7067 -0.7075 0.0000
vn 0.8138 0.5811 0.0000
vn 0.5803 -0.8144 0.0000
vn -0.8136 -0.5814 0.0000
vn 0.0865 -0.9963 0.0000
vn -0.9963 -0.0863 0.0000
vn -0.9963 -0.0860 0.0000
f 1/1/1 3/3/1 2/2/1
f 1/1/1 4/4/1 3/3/1
f 5/5/2 6/6/2 3/3/2
f 5/5/2 3/3/2 4/4/2
f 2/2/3 8/8/3 7/7/3
f 2/2/3 3/3/3 8/8/3
f 6/6/2 9/9/2 8/8/2
f 6/6/2 8/8/2 3/3/2
f 7/7/3 11/11/3 10/10/3
f 7/7/3 8/8/3 11/11/3
f 9/9/2 12/12/2 11/11/2
f 9/9/2 11/11/2 8/8/2
f 10/10/3 14/14/3 13/13/3
f 10/10/3 11/11/3 14/14/3
f 12/12/2 15/15/2 14/14/2
f 12/12/2 14/14/2 11/11/2
f 13/13/3 17/17/3 16/16/3
f 13/13/3 14/14/3 17/17/3
f 15/15/2 18/18/2 17/17/2
f 15/15/2 17/17/2 14/14/2
f 16/16/4 20/20/4 19/19/4
f 16/16/4 17/17/4 20/20/4
f 18/18/2 21/21/2 20/20/2
f 18/18/2 20/20/2 17/17/2
f 19/19/4 23/23/4 22/22/4
f 19/19/4 20/20/4 23/23/4
f 21/21/2 24/24/2 23/23/2
f 21/21/2 23/23/2 20/20/2
f 22/22/5 26/26/5 25/25/5
f 22/22/5 23/23/5 26/26/5
f 24/24/2 27/27/2 26/26/2
f 24/24/2 26/26/2 23/23/2
f 28/28/6 30/30/6 29/29/6
f 28/28/6 31/31/6 30/30/6
f 32/32/2 33/33/2 30/30/2
f 32/32/2 30/30/2 31/31/2
f 29/29/6 35/35/6 34/34/6
f 29/29/6 30/30/6 35/35/6
f 33/33/2 36/36/2 35/35/2
f 33/33/2 35/35/2 30/30/2
f 34/34/6 38/38/6 37/37/6
f 34/34/6 35/35/6 38/38/6
f 36/36/2 39/39/2 38/38/2
f 36/36/2 38/38/2 35/35/2
f 37/37/7 41/41/7 40/40/7
f 37/37/7 38/38/7 41/41/7
f 39/39/2 42/42/2 41/41/2
f 39/39/2 41/41/2 38/38/2
f 43/43/8 45/45/8 44/44/8
f 43/43/8 46/46/8 45/45/8
f 47/47/2 48/48/2 45/45/2
f 47/47/2 45/45/2 46/46/2
f 44/44/9 50/50/9 49/49/9
f 44/44/9 45/45/9 50/50/9
f 48/48/2 51/51/2 50/50/2
f 48/48/2 50/50/2 45/45/2
f 49/49/9 53/53/9 52/52/9
f 49/49/9 50/50/9 53/53/9
f 51/51/2 54/54/2 53/53/2
f 51/51/2 53/53/2 50/50/2
f 52/52/9 56/56/9 55/55/9
f 52/52/9 53/53/9 56/56/9
f 54/54/2 57/57/2 56/56/2
f 54/54/2 56/56/2 53/53/2
f 55/55/10 59/59/10 58/58/10
f 55/55/10 56/56/10 59/59/10
f 57/57/2 60/60/2 59/59/2
f 57/57/2 59/59/2 56/56/2
f 61/61/11 63/63/11 62/62/11
f 61/61/11 64/64/11 63/63/11
f 65/65/2 66/66/2 63/63/2
f 65/65/2 63/63/2 64/64/2
f 62/62/12 68/68/12 67/67/12
f 62/62/12 63/63/12 68/68/12
f 66/66/2 69/69/2 68/68/2
f 66/66/2 68/68/2 63/63/2
f 67/67/12 71/71/12 70/70/12
f 67/67/12 68/68/12 71/71/12
f 69/69/2 72/72/2 71/71/2
f 69/69/2 71/71/2 68/68/2
f 70/70/12 74/74/12 73/73/12
f 70/70/12 71/71/12 74/74/12
f 72/72/2 75/75/2 74/74/2
f 72/72/2 74/74/2 71/71/2
f 73/73/13 77/77/13 76/76/13
f 73/73/13 74/74/13 77/77/13
f 75/75/2 78/78/2 77/77/2
f 75/75/2 77/77/2 74/74/2
f 76/76/13 80/80/13 79/79/13
f 76/76/13 77/77/13 80/80/13
f 78/78/2 81/81/2 80/80/2
f 78/78/2 80/80/2 77/77/2
f 82/82/14 84/84/14 83/83/14
f 82/82/14 85/85/14 84/84/14
f 86/86/2 87/87/2 84/84/2
f 86/86/2 84/84/2 85/85/2
f 83/83/14 89/89/14 88/88/14
f 83/83/14 84/84/14 89/89/14
f 87/87/2 90/90/2 89/89/2
f 87/87/2 89/89/2 84/84/2
f 88/88/15 92/92/15 91/91/15
f 88/88/15 89/89/15 92/92/15
f 90/90/2 93/93/2 92/92/2
f 90/90/2 92/92/2 89/89/2
f 91/91/15 95/95/15 94/94/15
f 91/91/15 92/92/15 95/95/15
f 93/93/2 96/96/2 95/95/2
f 93/93/2 95/95/2 92/92/2
f 94/94/15 98/98/15 97/97/15
f 94/94/15 95/95/15 98/98/15
f 96/96/2 99/99/2 98/98/2
f 96/96/2 98/98/2 95/95/2
f 100/100/16 102/102/16 101/101/16
f 100/100/16 103/103/16 102/102/16
f 104/104/2 105/105/2 102/102/2
f 104/104/2 102/102/2 103/103/2
f 101/101/16 107/107/16 106/106/16
f 101/101/16 102/102/16 107/107/16
f 105/105/2 108/108/2 107/107/2
f 105/105/2 107/107/2 102/102/2
f 106/106/16 110/110/16 109/109/16
f 106/106/16 107/107/16 110/110/16
f 108/108/2 111/111/2 110/110/2
f 108/108/2 110/110/2 107/107/2
f 109/109/16 113/113/16 112/112/16
f 109/109/16 110/110/16 113/113/16
f 111/111/2 114/114/2 113/113/2
f 111/111/2 113/113/2 110/110/2
f 112/112/16 116/116/16 115/115/16
f 112/112/16 113/113/16 116/116/16
f 114/114/2 117/117/2 116/116/2
f 114/114/2 116/116/2 113/113/2
f 115/115/17 119/119/17 118/118/17
f 115/115/17 116/116/17 119/119/17
f 117/117/2 120/120/2 119/119/2
f 117/117/2 119/119/2 116/116/2
f 118/118/17 122/122/17 121/121/17
f 118/118/17 119/119/17 122/122/17
f 120/120/2 123/123/2 122/122/2
f 120/120/2 122/122/2 119/119/2
f 124/124/18 126/126/18 125/125/18
f 124/124/18 127/127/18 126/126/18
f 128/128/2 129/129/2 126/126/2
f 128/128/2 126/126/2 127/127/2
f 125/125/19 131/131/19 130/130/19
f 125/125/19 126/126/19 131/131/19
f 129/129/2 132/132/2 131/131/2
f 129/129/2 131/131/2 126/126/2
f 130/130/19 134/134/19 133/133/19
f 130/130/19 131/131/19 134/134/19
f 132/132/2 135/135/2 134/134/2
f 132/132/2 134/134/2 131/131/2
f 133/133/19 137/137/19 136/136/19
f 133/133/19 134/134/19 137/137/19
f 135/135/2 138/138/2 137/137/2
f 135/135/2 137/137/2 134/134/2
f 139/139/20 127/127/20 124/124/20
f 139/139/20 140/140/20 127/127/20
f 141/141/2 128/128/2 127/127/2
f 141/141/2 127/127/2 140/140/2
f 142/142/21 144/144/21 143/143/21
f 142/142/21 145/145/21 144/144/21
f 146/146/2 147/147/2 144/144/2
f 146/146/2 144/144/2 145/145/2
f 143/143/21 149/149/21 148/148/21
f 143/143/21 144/144/21 149/149/21
f 147/147/2 150/150/2 149/149/2
f 147/147/2 149/149/2 144/144/2
f 148/148/22 152/152/22 151/151/22
f 148/148/22 149/149/22 152/152/22
f 150/150/2 153/153/2 152/152/2
f 150/150/2 152/152/2 149/149/2
f 151/151/22 155/155/22 154/154/22
f 151/151/22 152/152/22 155/155/22
f 153/153/2 156/156/2 155/155/2
f 153/153/2 155/155/2 152/152/2
f 154/154/22 158/158/22 157/157/22
f 154/154/22 155/155/22 158/158/22
f 156/156/2 159/159/2 158/158/2
f 156/156/2 158/158/2 155/155/2
f 157/157/23 161/161/23 160/160/23
f 157/157/23 158/158/23 161/161/23
f 159/159/2 162/162/2 161/161/2
f 159/159/2 161/161/2 158/158/2
f 160/160/23 164/164/23 163/163/23
f 160/160/23 161/161/23 164/164/23
f 162/162/2 165/165/2 164/164/2
f 162/162/2 164/164/2 161/161/2
f 163/163/23 167/167/23 166/166/23
f 163/163/23 164/164/23 167/167/23
f 165/165/2 168/168/2 167/167/2
f 165/165/2 167/167/2 164/164/2
f 166/166/24 170/170/24 169/169/24
f 166/166/24 167/167/24 170/170/24
f 168/168/2 171/171/2 170/170/2
f 168/168/2 170/170/2 167/167/2
f 169/169/24 173/173/24 172/172/24
f 169/169/24 170/170/24 173/173/24
f 171/171/2 174/174/2 173/173/2
f 171/171/2 173/173/2 170/170/2
f 172/172/25 176/176/25 175/175/25
f 172/172/25 173/173/25 176/176/25
f 174/174/2 177/177/2 176/176/2
f 174/174/2 176/176/2 173/173/2
f 175/175/25 179/179/25 178/178/25
f 175/175/25 176/176/25 179/179/25
f 177/177/2 180/180/2 179/179/2
f 177/177/2 179/179/2 176/176/2
f 181/181/26 183/183/26 182/182/26
f 181/181/26 184/184/26 183/183/26
f 185/185/2 186/186/2 183/183/2
f 185/185/2 183/183/2 184/184/2
f 182/182/26 188/188/26 187/187/26
f 182/182/26 183/183/26 188/188/26
f 186/186/2 189/189/2 188/188/2
f 186/186/2 188/188/2 183/183/2
f 187/187/26 191/191/26 190/190/26
f 187/187/26 188/188/26 191/191/26
f 189/189/2 192/192/2 191/191/2
f 189/189/2 191/191/2 188/188/2
f 190/190/27 194/194/27 193/193/27
f 190/190/27 191/191/27 194/194/27
f 192/192/2 195/195/2 194/194/2
f 192/192/2 194/194/2 191/191/2
f 193/193/27 197/197/27 196/196/27
f 193/193/27 194/194/27 197/197/27
f 195/195/2 198/198/2 197/197/2
f 195/195/2 197/197/2 194/194/2
f 196/196/28 200/200/28 199/199/28
f 196/196/28 197/197/28 200/200/28
f 198/198/2 201/201/2 200/200/2
f 198/198/2 200/200/2 197/197/2
f 199/199/28 203/203/28 202/202/28
f 199/199/28 200/200/28 203/203/28
f 201/201/2 204/204/2 203/203/2
f 201/201/2 203/203/2 200/200/2
f 202/202/29 206/206/29 205/205/29
f 202/202/29 203/203/29 206/206/29
f 204/204/2 207/207/2 206/206/2
f 204/204/2 206/206/2 203/203/2
f 205/205/29 209/209/29 208/208/29
f 205/205/29 206/206/29 209/209/29
f 207/207/2 210/210/2 209/209/2
f 207/207/2 209/209/2 206/206/2
f 208/208/29 212/212/29 211/211/29
f 208/208/29 209/209/29 212/212/29
f 210/210/2 213/213/2 212/212/2
f 210/210/2 212/212/2 209/209/2
f 211/211/30 215/215/30 214/214/30
f 211/211/30 212/212/30 215/215/30
f 213/213/2 216/216/2 215/215/2
f 213/213/2 215/215/2 212/212/2
f 214/214/30 218/218/30 217/217/30
f 214/214/30 215/215/30 218/218/30
f 216/216/2 219/219/2 218/218/2
f 216/216/2 218/218/2 215/215/2
f 217/217/30 184/184/30 181/181/30
f 217/217/30 218/218/30 184/184/30
f 219/219/2 185/185/2 184/184/2
f 219/219/2 184/184/2 218/218/2
f 220/220/31 222/222/31 221/221/31
f 220/220/31 223/223/31 222/222/31
f 224/224/2 225/225/2 222/222/2
f 224/224/2 222/222/2 223/223/2
f 221/221/31 227/227/31 226/226/31
f 221/221/31 222/222/31 227/227/31
f 225/225/2 228/228/2 227/227/2
f 225/225/2 227/227/2 222/222/2
f 226/226/32 230/230/32 229/229/32
f 226/226/32 227/227/32 230/230/32
f 228/228/2 231/231/2 230/230/2
f 228/228/2 230/230/2 227/227/2
f 229/229/33 233/233/33 232/232/33
f 229/229/33 230/230/33 233/233/33
f 231/231/2 234/234/2 233/233/2
f 231/231/2 233/233/2 230/230/2
f 232/232/33 236/236/33 235/235/33
f 232/232/33 233/233/33 236/236/33
f 234/234/2 237/237/2 236/236/2
f 234/234/2 236/236/2 233/233/2
f 235/235/34 239/239/34 238/238/34
f 235/235/34 236/236/34 239/239/34
f 237/237/2 240/240/2 239/239/2
f 237/237/2 239/239/2 236/236/2
f 238/238/35 242/242/35 241/241/35
f 238/238/35 239/239/35 242/242/35
f 240/240/2 243/243/2 242/242/2
f 240/240/2 242/242/2 239/239/2
f 241/241/35 245/245/35 244/244/35
f 241/241/35 242/242/35 245/245/35
f 243/243/2 246/246/2 245/245/2
f 243/243/2 245/245/2 242/242/2
f 244/244/35 248/248/35 247/247/35
f 244/244/35 245/245/35 248/248/35
f 246/246/2 249/249/2 248/248/2
f 246/246/2 248/248/2 245/245/2
f 247/247/36 251/251/36 250/250/36
f 247/247/36 248/248/36 251/251/36
f 249/249/2 252/252/2 251/251/2
f 249/249/2 251/251/2 248/248/2
f 250/250/36 254/254/36 253/253/36
f 250/250/36 251/251/36 254/254/36
f 252/252/2 255/255/2 254/254/2
f 252/252/2 254/254/2 251/251/2
f 256/256/37 258/258/37 257/257/37
f 256/256/37 259/259/37 258/258/37
f 260/260/2 261/261/2 258/258/2
f 260/260/2 258/258/2 259/259/2
f 257/257/38 263/263/38 262/262/38
f 257/257/38 258/258/38 263/263/38
f 261/261/2 264/264/2 263/263/2
f 261/261/2 263/263/2 258/258/2
f 262/262/38 266/266/38 265/265/38
f 262/262/38 263/263/38 266/266/38
f 264/264/2 267/267/2 266/266/2
f 264/264/2 266/266/2 263/263/2
f 265/265/38 269/269/38 268/268/38
f 265/265/38 266/266/38 269/269/38
f 267/267/2 270/270/2 269/269/2
f 267/267/2 269/269/2 266/266/2
f 268/268/38 272/272/38 271/271/38
f 268/268/38 269/269/38 272/272/38
f 270/270/2 273/273/2 272/272/2
f 270/270/2 272/272/2 269/269/2
f 271/271/39 275/275/39 274/274/39
f 271/271/39 272/272/39 275/275/39
f 273/273/2 276/276/2 275/275/2
f 273/273/2 275/275/2 272/272/2
f 277/277/40 279/279/40 278/278/40
f 277/277/40 280/280/40 279/279/40
f 281/281/2 282/282/2 279/279/2
f 281/281/2 279/279/2 280/280/2
f 278/278/40 284/284/40 283/283/40
f 278/278/40 279/279/40 284/284/40
f 282/282/2 285/285/2 284/284/2
f 282/282/2 284/284/2 279/279/2
f 283/283/41 287/287/41 286/286/41
f 283/283/41 284/284/41 287/287/41
f 285/285/2 288/288/2 287/287/2
f 285/285/2 287/287/2 284/284/2
f 286/286/41 290/290/41 289/289/41
f 286/286/41 287/287/41 290/290/41
f 288/288/2 291/291/2 290/290/2
f 288/288/2 290/290/2 287/287/2
f 289/289/42 293/293/42 292/292/42
f 289/289/42 290/290/42 293/293/42
f 291/291/2 294/294/2 293/293/2
f 291/291/2 293/293/2 290/290/2
f 292/292/42 296/296/42 295/295/42
f 292/292/42 293/293/42 296/296/42
f 294/294/2 297/297/2 296/296/2
f 294/294/2 296/296/2 293/293/2
