# Unreal legacy OBJ adapter: canonical vertices are UE cm; this file is written with Y reflected and triangle winding reversed. One object, no g groups, so the importer creates exactly one material slot.
# OldCityFoundationV2 foundations (plinth + stepped footing); generator 463404ba754c804f514fe655944ece4eb51a92e1273fec326ad5c2ebfbb18f24
# AUTHORED detail in the style of Old City stone foundations, not survey
o SM_OldCityFoundationV2_Kept_N005_N004
s off
v -243365.71 187948.97 3998.30
v -243233.76 187527.57 3965.61
v -243233.76 187527.57 4023.30
v -243365.71 187948.97 4023.30
v -243373.87 187948.26 4023.30
v -243242.62 187529.10 4023.30
v -243014.49 186827.32 3967.31
v -243014.49 186827.32 4023.30
v -243024.51 186832.57 4023.30
v -243248.46 186754.41 3998.30
v -243248.46 186754.41 4023.30
v -243256.14 186760.40 4023.30
v -239583.97 163240.19 5621.40
v -239438.16 163212.43 5590.02
v -239438.16 163212.43 5646.40
v -239583.97 163240.19 5646.40
v -239592.39 163233.65 5646.40
v -239447.51 163206.07 5646.40
v -239497.65 162900.70 5576.98
v -239497.65 162900.70 5646.40
v -239506.54 162896.83 5646.40
v -239568.87 162527.57 5561.37
v -239568.87 162527.57 5646.40
v -239577.19 162526.66 5646.40
v -239673.68 161978.40 5604.30
v -239673.68 161978.40 5646.40
v -239681.16 161981.87 5646.40
v -239715.43 161759.65 5621.40
v -239715.43 161759.65 5646.40
v -239722.58 161764.86 5646.40
v -237989.05 178669.42 4136.50
v -237987.63 178664.45 4136.07
v -237987.63 178664.45 4161.50
v -237989.05 178669.42 4161.50
v -237996.79 178667.38 4161.50
v -237995.39 178662.47 4161.50
v -237966.99 178592.14 4129.88
v -237966.99 178592.14 4161.50
v -237975.00 178591.07 4161.50
v -237974.53 177943.81 4105.15
v -237974.53 177943.81 4161.50
v -237982.52 177944.57 4161.50
v -238049.42 177527.57 4100.48
v -238049.42 177527.57 4161.50
v -238056.34 177534.29 4161.50
v -238081.04 177351.83 4105.54
v -238081.04 177351.83 4161.50
v -238087.50 177361.06 4161.50
v -238274.51 177385.22 4136.50
v -238274.51 177385.22 4161.50
v -238280.24 177394.33 4161.50
v -223128.88 173515.32 3454.60
v -222808.57 173711.62 3440.96
v -222808.57 173711.62 3479.60
v -223128.88 173515.32 3479.60
v -223122.34 173509.94 3479.60
v -222803.05 173705.62 3479.60
v -222384.70 173971.39 3422.92
v -222384.70 173971.39 3479.60
v -222380.52 173964.57 3479.60
v -221624.51 174436.53 3390.71
v -221624.51 174436.53 3479.60
v -221624.21 174427.33 3479.60
v -221257.84 174660.89 3419.17
v -221257.84 174660.89 3479.60
v -221259.41 174650.55 3479.60
v -221048.37 174789.06 3435.43
v -221048.37 174789.06 3479.60
v -221051.00 174778.07 3479.60
v -221011.89 174729.69 3454.60
v -221011.89 174729.69 3479.60
v -221015.06 174719.56 3479.60
v -221532.49 185046.10 2485.00
v -221574.12 185077.96 2474.52
v -221574.12 185077.96 2510.00
v -221532.49 185046.10 2510.00
v -221523.96 185049.65 2510.00
v -221565.21 185081.22 2510.00
v -221624.51 185116.54 2468.94
v -221624.51 185116.54 2510.00
v -221615.15 185119.44 2510.00
v -221827.74 185272.09 2454.59
v -221827.74 185272.09 2510.00
v -221816.50 185273.56 2510.00
v -221624.51 185535.89 2452.17
v -221624.51 185535.89 2510.00
v -221616.44 185533.27 2510.00
v -221198.98 186088.27 2464.11
v -221198.98 186088.27 2510.00
v -221197.51 186077.07 2510.00
v -221010.21 185943.68 2485.00
v -221010.21 185943.68 2510.00
v -221010.47 185933.80 2510.00
v -223952.72 162405.07 4677.40
v -223677.47 162527.57 4672.50
v -223677.47 162527.57 4702.40
v -223952.72 162405.07 4702.40
v -223944.15 162400.13 4702.40
v -223669.87 162522.20 4702.40
v -222256.79 163159.84 4596.63
v -222256.79 163159.84 4702.40
v -222254.18 163152.24 4702.40
v -221624.51 163441.23 4562.86
v -221624.51 163441.23 4702.40
v -221624.13 163432.64 4702.40
v -220526.74 163929.79 4635.97
v -220526.74 163929.79 4702.40
v -220530.22 163919.49 4702.40
v -220366.46 164001.12 4646.64
v -220366.46 164001.12 4702.40
v -220370.51 163990.57 4702.40
v -220299.92 163852.16 4672.50
v -220299.92 163852.16 4702.40
v -220304.87 163843.63 4702.40
v -220262.10 163767.48 4677.40
v -220262.10 163767.48 4702.40
v -220267.56 163760.10 4702.40
v -222024.82 163278.40 4582.40
v -221624.51 163456.56 4561.02
v -221624.51 163456.56 4627.40
v -222024.82 163278.40 4627.40
v -222021.71 163264.46 4627.40
v -221623.85 163441.53 4627.40
v -221303.49 163599.43 4582.40
v -221303.49 163599.43 4627.40
v -221304.79 163583.52 4627.40
v -222021.71 163264.46 4582.40
v -221304.79 163583.52 4582.40
v -220174.94 189505.61 2388.21
v -220022.73 190027.57 2364.71
v -220022.73 190027.57 2444.00
v -220174.94 189505.61 2444.00
v -220165.02 189511.06 2444.00
v -220013.83 190029.50 2444.00
v -219819.93 190722.98 2416.87
v -219819.93 190722.98 2444.00
v -219812.40 190720.22 2444.00
v -219811.64 190751.43 2419.00
v -219811.64 190751.43 2444.00
v -219804.17 190748.47 2444.00
v -219959.92 189443.21 2419.00
v -219959.92 189443.21 2444.00
v -219951.85 189449.20 2444.00
v -216449.41 189337.93 3221.10
v -216330.46 189733.51 3219.55
v -216330.46 189733.51 3277.10
v -216449.41 189337.93 3277.10
v -216439.50 189343.07 3277.10
v -216321.46 189735.65 3277.10
v -216242.04 190027.57 3218.40
v -216242.04 190027.57 3277.10
v -216233.71 190027.47 3277.10
v -216154.74 190317.90 3252.10
v -216154.74 190317.90 3277.10
v -216147.08 190315.60 3277.10
v -216216.76 189260.82 3252.10
v -216216.76 189260.82 3277.10
v -216211.85 189267.62 3277.10
v -211865.78 161363.82 5365.60
v -212061.54 161742.02 5335.34
v -212061.54 161742.02 5390.60
v -211865.78 161363.82 5390.60
v -211855.02 161360.44 5390.60
v -212051.00 161739.07 5390.60
v -211624.51 162008.36 5314.04
v -211624.51 162008.36 5390.60
v -211613.94 162005.44 5390.60
v -211301.92 162204.97 5324.12
v -211301.92 162204.97 5390.60
v -211291.32 162202.06 5390.60
v -210772.60 162527.57 5340.65
v -210772.60 162527.57 5390.60
v -210761.95 162524.69 5390.60
v -209974.15 163014.18 5365.60
v -209974.15 163014.18 5390.60
v -209963.44 163011.34 5390.60
v -211728.14 197023.39 3460.90
v -211624.51 197112.83 3455.45
v -211624.51 197112.83 3485.90
v -211728.14 197023.39 3485.90
v -211717.94 197021.63 3485.90
v -211615.43 197110.10 3485.90
v -211401.90 197304.95 3434.83
v -211401.90 197304.95 3485.90
v -211395.24 197300.14 3485.90
v -211143.96 197527.57 3410.94
v -211143.96 197527.57 3485.90
v -211140.10 197520.33 3485.90
v -210713.20 197899.34 3430.53
v -210713.20 197899.34 3485.90
v -210714.01 197888.07 3485.90
v -210472.46 197621.67 3460.90
v -210472.46 197621.67 3485.90
v -210475.49 197612.95 3485.90
v -211551.29 149625.86 6591.50
v -211540.31 149943.36 6579.24
v -211540.31 149943.36 6646.50
v -211551.29 149625.86 6646.50
v -211543.02 149633.57 6646.50
v -211532.14 149948.15 6646.50
v -211537.40 150027.57 6575.98
v -211537.40 150027.57 6646.50
v -211529.25 150031.58 6646.50
v -211534.27 150117.81 6576.11
v -211534.27 150117.81 6646.50
v -211526.16 150120.99 6646.50
v -211495.02 151252.57 6621.50
v -211495.02 151252.57 6646.50
v -211487.27 151245.30 6646.50
v -210826.80 149600.29 6621.50
v -211210.79 149613.84 6605.60
v -211210.79 149613.84 6646.50
v -210826.80 149600.29 6646.50
v -210826.61 149608.28 6646.50
v -211206.32 149621.69 6646.50
v -210685.84 174181.69 4818.98
v -210510.47 175027.57 4806.19
v -210510.47 175027.57 4875.00
v -210685.84 174181.69 4875.00
v -210678.00 174180.07 4875.00
v -210503.58 175021.39 4875.00
v -210384.22 175636.52 4821.34
v -210384.22 175636.52 4875.00
v -210378.00 175627.07 4875.00
v -210145.35 175587.25 4850.00
v -210145.35 175587.25 4875.00
v -210141.74 175578.33 4875.00
v -210655.76 172761.86 4850.00
v -210966.47 172825.85 4825.14
v -210966.47 172825.85 4875.00
v -210655.76 172761.86 4875.00
v -210649.77 172768.79 4875.00
v -210957.01 172832.07 4875.00
v -210872.57 173279.51 4832.66
v -210872.57 173279.51 4875.00
v -210863.66 173283.11 4875.00
v -210701.75 174104.80 4820.14
v -210701.75 174104.80 4875.00
v -210693.83 174103.63 4875.00
v -204245.81 193143.87 4052.70
v -204307.61 193954.93 4022.73
v -204307.61 193954.93 4077.70
v -204245.81 193143.87 4077.70
v -204238.23 193149.60 4077.70
v -204299.02 193947.56 4077.70
v -204124.51 193968.81 4014.85
v -204124.51 193968.81 4077.70
v -204118.00 193961.28 4077.70
v -203883.39 193987.08 4052.70
v -203883.39 193987.08 4077.70
v -203879.59 193979.35 4077.70
v -205199.20 187433.41 4540.81
v -204981.10 187527.57 4538.24
v -204981.10 187527.57 4596.80
v -205199.20 187433.41 4596.80
v -205196.02 187426.07 4596.80
v -204979.60 187519.50 4596.80
v -204382.81 187785.86 4541.50
v -204382.81 187785.86 4596.80
v -204385.88 187775.82 4596.80
v -204239.85 187847.58 4542.29
v -204239.85 187847.58 4596.80
v -204244.02 187837.06 4596.80
v -204124.51 187581.04 4568.22
v -204124.51 187581.04 4596.80
v -204130.82 187575.47 4596.80
v -204111.01 187549.82 4571.80
v -204111.01 187549.82 4596.80
v -204117.57 187544.84 4596.80
v -206453.84 186756.96 4571.80
v -206503.04 186870.23 4556.24
v -206503.04 186870.23 4596.80
v -206453.84 186756.96 4596.80
v -206444.03 186754.44 4596.80
v -206492.51 186866.07 4596.80
v -206128.82 187031.87 4551.81
v -206128.82 187031.87 4596.80
v -206120.40 187026.79 4596.80
v -207309.51 197302.57 3826.30
v -207309.51 197527.57 3790.30
v -207309.51 197527.57 3851.30
v -207309.51 197302.57 3851.30
v -207301.51 197299.28 3851.30
v -207301.51 197524.67 3851.30
v -207309.51 197656.24 3795.45
v -207309.51 197656.24 3851.30
v -207301.51 197653.57 3851.30
v -207131.32 197892.97 3826.30
v -207131.32 197892.97 3851.30
v -207127.57 197884.64 3851.30
v -202536.71 167498.18 5600.70
v -202547.52 167527.57 5598.66
v -202547.52 167527.57 5625.70
v -202536.71 167498.18 5625.70
v -202530.41 167504.24 5625.70
v -202541.14 167533.40 5625.70
v -202971.75 168680.33 5564.72
v -202971.75 168680.33 5625.70
v -202962.12 168677.32 5625.70
v -203055.28 168907.32 5570.46
v -203055.28 168907.32 5625.70
v -203045.01 168902.57 5625.70
v -203017.97 168921.02 5572.50
v -203017.97 168921.02 5625.70
v -203008.23 168916.07 5625.70
v -202564.60 169087.49 5597.29
v -202564.60 169087.49 5625.70
v -202561.32 169080.17 5625.70
v -202522.01 169103.12 5600.70
v -202522.01 169103.12 5625.70
v -202519.34 169095.58 5625.70
vt -1078.2867 9.9958
vt -1076.9033 9.9140
vt -1076.9033 10.0583
vt -1078.2867 10.0583
vt -1078.3053 10.0583
vt -1076.9293 10.0583
vt -1074.6045 9.9183
vt -1074.6045 10.0583
vt -1074.6427 10.0583
vt -1075.0072 9.9958
vt -1075.0072 10.0583
vt -1075.0414 10.0583
vt -1007.0604 14.0535
vt -1006.6265 13.9751
vt -1006.6265 14.1160
vt -1007.0604 14.1160
vt -1007.0651 14.1160
vt -1006.6340 14.1160
vt -1005.9959 13.9424
vt -1005.9959 14.1160
vt -1006.0084 14.1160
vt -1005.2411 13.9034
vt -1005.2411 14.1160
vt -1005.2596 14.1160
vt -1004.1302 14.0107
vt -1004.1302 14.1160
vt -1004.1576 14.1160
vt -1003.6877 14.0535
vt -1003.6877 14.1160
vt -1003.7186 14.1160
vt -1041.6462 10.3413
vt -1041.6302 10.3402
vt -1041.6302 10.4038
vt -1041.6462 10.4038
vt -1041.6604 10.4038
vt -1041.6446 10.4038
vt -1041.3978 10.3247
vt -1041.3978 10.4038
vt -1041.4152 10.4038
vt -1039.7958 10.2629
vt -1039.7958 10.4038
vt -1039.8177 10.4038
vt -1038.9425 10.2512
vt -1038.9425 10.4038
vt -1038.9766 10.4038
vt -1038.5822 10.2638
vt -1038.5822 10.4038
vt -1038.6214 10.4038
vt -1039.1493 10.3413
vt -1039.1493 10.4038
vt -1039.1864 10.4038
vt -991.6105 8.6365
vt -991.3005 8.6024
vt -991.3005 8.6990
vt -991.6105 8.6990
vt -991.5807 8.6990
vt -991.2717 8.6990
vt -990.8902 8.5573
vt -990.8902 8.6990
vt -990.8627 8.6990
vt -990.1526 8.4768
vt -990.1526 8.6990
vt -990.1288 8.6990
vt -989.7968 8.5479
vt -989.7968 8.6990
vt -989.7749 8.6990
vt -989.5936 8.5886
vt -989.5936 8.6990
vt -989.5727 8.6990
vt -989.3540 8.6365
vt -989.3540 8.6990
vt -989.3365 8.6990
vt -1016.4465 6.2125
vt -1016.6302 6.1863
vt -1016.6302 6.2750
vt -1016.4465 6.2750
vt -1016.4340 6.2750
vt -1016.6161 6.2750
vt -1016.8526 6.1723
vt -1016.8526 6.2750
vt -1016.8365 6.2750
vt -1017.7496 6.1365
vt -1017.7496 6.2750
vt -1017.7251 6.2750
vt -1017.9010 6.1304
vt -1017.9010 6.2750
vt -1017.8743 6.2750
vt -1018.2181 6.1603
vt -1018.2181 6.2750
vt -1018.1865 6.2750
vt -1017.3847 6.2125
vt -1017.3847 6.2750
vt -1017.3607 6.2750
vt -965.8945 11.6935
vt -965.5126 11.6813
vt -965.5126 11.7560
vt -965.8945 11.7560
vt -965.8607 11.7560
vt -965.4802 11.7560
vt -963.5416 11.4916
vt -963.5416 11.7560
vt -963.5160 11.7560
vt -962.6644 11.4071
vt -962.6644 11.7560
vt -962.6419 11.7560
vt -961.1413 11.5899
vt -961.1413 11.7560
vt -961.1243 11.7560
vt -960.9189 11.6166
vt -960.9189 11.7560
vt -960.9027 11.7560
vt -960.3802 11.6813
vt -960.3802 11.7560
vt -960.3713 11.7560
vt -960.0740 11.6935
vt -960.0740 11.7560
vt -960.0692 11.7560
vt -963.2580 11.4560
vt -962.7027 11.4026
vt -962.7027 11.5685
vt -963.2580 11.5685
vt -963.2154 11.5685
vt -962.6635 11.5685
vt -962.2573 11.4560
vt -962.2573 11.5685
vt -962.2208 11.5685
vt -963.2154 11.4560
vt -962.2208 11.4560
vt -1024.2014 5.9705
vt -1025.1258 5.9118
vt -1025.1258 6.1100
vt -1024.2014 6.1100
vt -1024.1902 6.1100
vt -1025.1083 6.1100
vt -1026.3573 6.0422
vt -1026.3573 6.1100
vt -1026.3315 6.1100
vt -1026.4077 6.0475
vt -1026.4077 6.1100
vt -1026.3816 6.1100
vt -1023.5078 6.0475
vt -1023.5078 6.1100
vt -1023.5026 6.1100
vt -1014.4683 8.0527
vt -1015.1599 8.0489
vt -1015.1599 8.1928
vt -1014.4683 8.1928
vt -1014.4564 8.1928
vt -1015.1428 8.1928
vt -1015.6740 8.0460
vt -1015.6740 8.1928
vt -1015.6530 8.1928
vt -1016.1816 8.1303
vt -1016.1816 8.1928
vt -1016.1567 8.1928
vt -1013.6940 8.1303
vt -1013.6940 8.1928
vt -1013.6987 8.1928
vt -933.0740 13.4140
vt -934.5089 13.3384
vt -934.5089 13.4765
vt -933.0740 13.4765
vt -933.0386 13.4765
vt -934.4752 13.4765
vt -934.0822 13.2851
vt -934.0822 13.4765
vt -934.0485 13.4765
vt -933.7672 13.3103
vt -933.7672 13.4765
vt -933.7335 13.4765
vt -933.2504 13.3516
vt -933.2504 13.4765
vt -933.2166 13.4765
vt -932.4708 13.4140
vt -932.4708 13.4765
vt -932.4370 13.4765
vt -1021.8788 8.6523
vt -1021.8433 8.6386
vt -1021.8433 8.7148
vt -1021.8788 8.7148
vt -1021.8489 8.7148
vt -1021.8138 8.7148
vt -1021.7671 8.5871
vt -1021.7671 8.7148
vt -1021.7385 8.7148
vt -1021.6788 8.5274
vt -1021.6788 8.7148
vt -1021.6511 8.7148
vt -1021.5314 8.5763
vt -1021.5314 8.7148
vt -1021.5052 8.7148
vt -1020.2353 8.6523
vt -1020.2353 8.7148
vt -1020.2211 8.7148
vt -902.9429 16.4788
vt -903.7092 16.4481
vt -903.7092 16.6163
vt -902.9429 16.6163
vt -902.9415 16.6163
vt -903.7007 16.6163
vt -903.9124 16.4399
vt -903.9124 16.6163
vt -903.9021 16.6163
vt -904.1302 16.4403
vt -904.1302 16.6163
vt -904.1179 16.6163
vt -906.8690 16.5538
vt -906.8690 16.6163
vt -906.8314 16.6163
vt -901.0677 16.5538
vt -902.0616 16.5140
vt -902.0616 16.6163
vt -901.0677 16.6163
vt -901.0872 16.6163
vt -902.0700 16.6163
vt -962.1688 12.0474
vt -963.8451 12.0155
vt -963.8451 12.1875
vt -962.1688 12.1875
vt -962.1452 12.1875
vt -963.8124 12.1875
vt -965.0518 12.0534
vt -965.0518 12.1875
vt -965.0127 12.1875
vt -964.3315 12.1250
vt -964.3315 12.1875
vt -964.3002 12.1875
vt -958.5440 12.1250
vt -959.4808 12.0629
vt -959.4808 12.1875
vt -958.5440 12.1875
vt -958.5464 12.1875
vt -959.4727 12.1875
vt -960.3802 12.0816
vt -960.3802 12.1875
vt -960.3669 12.1875
vt -962.0164 12.0504
vt -962.0164 12.1875
vt -961.9936 12.1875
vt -993.4742 10.1318
vt -995.6563 10.0568
vt -995.6563 10.1943
vt -993.4742 10.1943
vt -993.4696 10.1943
vt -995.6164 10.1943
vt -995.2333 10.0371
vt -995.2333 10.1943
vt -995.1982 10.1943
vt -994.6762 10.1318
vt -994.6762 10.1943
vt -994.6473 10.1943
vt -981.5815 11.3520
vt -981.2717 11.3456
vt -981.2717 11.4920
vt -981.5815 11.4920
vt -981.5552 11.4920
vt -981.2477 11.4920
vt -980.4217 11.3537
vt -980.4217 11.4920
vt -980.4043 11.4920
vt -980.2186 11.3557
vt -980.2186 11.4920
vt -980.2027 11.4920
vt -979.2639 11.4206
vt -979.2639 11.4920
vt -979.2657 11.4920
vt -979.1521 11.4295
vt -979.1521 11.4920
vt -979.1560 11.4920
vt -983.0270 11.4295
vt -983.4332 11.3906
vt -983.4332 11.4920
vt -983.0270 11.4920
vt -982.9962 11.4920
vt -983.3965 11.4920
vt -982.9017 11.3795
vt -982.9017 11.4920
vt -982.8680 11.4920
vt -1011.5302 9.5658
vt -1012.0927 9.4757
vt -1012.0927 9.6283
vt -1011.5302 9.6283
vt -1011.5020 9.6283
vt -1012.0655 9.6283
vt -1012.4144 9.4886
vt -1012.4144 9.6283
vt -1012.3877 9.6283
vt -1012.5607 9.5658
vt -1012.5607 9.6283
vt -1012.5305 9.6283
vt -925.0872 14.0017
vt -925.1877 13.9966
vt -925.1877 14.0642
vt -925.0872 14.0642
vt -925.0866 14.0642
vt -925.1864 14.0642
vt -929.1302 13.9118
vt -929.1302 14.0642
vt -929.0986 14.0642
vt -929.9065 13.9261
vt -929.9065 14.0642
vt -929.8690 14.0642
vt -929.8475 13.9313
vt -929.8475 14.0642
vt -929.8108 14.0642
vt -929.1302 13.9932
vt -929.1302 14.0642
vt -929.1037 14.0642
vt -929.0628 14.0017
vt -929.0628 14.0642
vt -929.0373 14.0642
vn 0.9543 0.2988 0.0000
vn 0.0000 -0.0000 1.0000
vn 0.2975 -0.9547 0.0000
vn 0.1870 0.9824 0.0000
vn 0.9823 -0.1875 0.0000
vn 0.9616 0.2745 0.0000
vn 0.9999 -0.0116 0.0000
vn 0.9842 -0.1771 0.0000
vn -0.1701 -0.9854 0.0000
vn -0.5225 0.8526 0.0000
vn -0.5219 0.8530 0.0000
vn 0.8520 0.5235 0.0000
vn -0.6078 -0.7941 0.0000
vn -0.7922 0.6103 0.0000
vn 0.6081 0.7939 0.0000
vn -0.4066 0.9136 0.0000
vn 0.9131 0.4078 0.0000
vn -0.9760 -0.2180 0.0000
vn 0.9967 -0.0816 0.0000
vn -0.9600 0.2800 0.0000
vn -0.2787 -0.9604 0.0000
vn -0.9576 0.2880 0.0000
vn -0.3146 -0.9492 0.0000
vn -0.8881 -0.4597 0.0000
vn -0.5204 0.8539 0.0000
vn -0.6534 0.7570 0.0000
vn 0.7556 0.6551 0.0000
vn -0.9994 0.0346 0.0000
vn -0.0353 -0.9994 0.0000
vn -0.9792 0.2030 0.0000
vn 0.2020 0.9794 0.0000
vn -0.2017 -0.9794 0.0000
vn -0.9792 0.2027 0.0000
vn -0.9971 -0.0760 0.0000
vn -0.0756 0.9971 0.0000
vn -0.3964 0.9181 0.0000
vn 0.9178 0.3971 0.0000
vn -0.9172 -0.3984 0.0000
vn -0.3965 0.9180 0.0000
vn -1.0000 0.0000 0.0000
vn -0.7989 0.6014 0.0000
vn -0.9385 -0.3454 0.0000
vn -0.3447 0.9387 0.0000
f 1/1/1 3/3/1 2/2/1
f 1/1/1 4/4/1 3/3/1
f 5/5/2 6/6/2 3/3/2
f 5/5/2 3/3/2 4/4/2
f 2/2/1 8/8/1 7/7/1
f 2/2/1 3/3/1 8/8/1
f 6/6/2 9/9/2 8/8/2
f 6/6/2 8/8/2 3/3/2
f 7/7/3 11/11/3 10/10/3
f 7/7/3 8/8/3 11/11/3
f 9/9/2 12/12/2 11/11/2
f 9/9/2 11/11/2 8/8/2
f 13/13/4 15/15/4 14/14/4
f 13/13/4 16/16/4 15/15/4
f 17/17/2 18/18/2 15/15/2
f 17/17/2 15/15/2 16/16/2
f 14/14/5 20/20/5 19/19/5
f 14/14/5 15/15/5 20/20/5
f 18/18/2 21/21/2 20/20/2
f 18/18/2 20/20/2 15/15/2
f 19/19/5 23/23/5 22/22/5
f 19/19/5 20/20/5 23/23/5
f 21/21/2 24/24/2 23/23/2
f 21/21/2 23/23/2 20/20/2
f 22/22/5 26/26/5 25/25/5
f 22/22/5 23/23/5 26/26/5
f 24/24/2 27/27/2 26/26/2
f 24/24/2 26/26/2 23/23/2
f 25/25/5 29/29/5 28/28/5
f 25/25/5 26/26/5 29/29/5
f 27/27/2 30/30/2 29/29/2
f 27/27/2 29/29/2 26/26/2
f 31/31/6 33/33/6 32/32/6
f 31/31/6 34/34/6 33/33/6
f 35/35/2 36/36/2 33/33/2
f 35/35/2 33/33/2 34/34/2
f 32/32/6 38/38/6 37/37/6
f 32/32/6 33/33/6 38/38/6
f 36/36/2 39/39/2 38/38/2
f 36/36/2 38/38/2 33/33/2
f 37/37/7 41/41/7 40/40/7
f 37/37/7 38/38/7 41/41/7
f 39/39/2 42/42/2 41/41/2
f 39/39/2 41/41/2 38/38/2
f 40/40/8 44/44/8 43/43/8
f 40/40/8 41/41/8 44/44/8
f 42/42/2 45/45/2 44/44/2
f 42/42/2 44/44/2 41/41/2
f 43/43/8 47/47/8 46/46/8
f 43/43/8 44/44/8 47/47/8
f 45/45/2 48/48/2 47/47/2
f 45/45/2 47/47/2 44/44/2
f 46/46/9 50/50/9 49/49/9
f 46/46/9 47/47/9 50/50/9
f 48/48/2 51/51/2 50/50/2
f 48/48/2 50/50/2 47/47/2
f 52/52/10 54/54/10 53/53/10
f 52/52/10 55/55/10 54/54/10
f 56/56/2 57/57/2 54/54/2
f 56/56/2 54/54/2 55/55/2
f 53/53/10 59/59/10 58/58/10
f 53/53/10 54/54/10 59/59/10
f 57/57/2 60/60/2 59/59/2
f 57/57/2 59/59/2 54/54/2
f 58/58/11 62/62/11 61/61/11
f 58/58/11 59/59/11 62/62/11
f 60/60/2 63/63/2 62/62/2
f 60/60/2 62/62/2 59/59/2
f 61/61/11 65/65/11 64/64/11
f 61/61/11 62/62/11 65/65/11
f 63/63/2 66/66/2 65/65/2
f 63/63/2 65/65/2 62/62/2
f 64/64/11 68/68/11 67/67/11
f 64/64/11 65/65/11 68/68/11
f 66/66/2 69/69/2 68/68/2
f 66/66/2 68/68/2 65/65/2
f 67/67/12 71/71/12 70/70/12
f 67/67/12 68/68/12 71/71/12
f 69/69/2 72/72/2 71/71/2
f 69/69/2 71/71/2 68/68/2
f 73/73/13 75/75/13 74/74/13
f 73/73/13 76/76/13 75/75/13
f 77/77/2 78/78/2 75/75/2
f 77/77/2 75/75/2 76/76/2
f 74/74/13 80/80/13 79/79/13
f 74/74/13 75/75/13 80/80/13
f 78/78/2 81/81/2 80/80/2
f 78/78/2 80/80/2 75/75/2
f 79/79/13 83/83/13 82/82/13
f 79/79/13 80/80/13 83/83/13
f 81/81/2 84/84/2 83/83/2
f 81/81/2 83/83/2 80/80/2
f 82/82/14 86/86/14 85/85/14
f 82/82/14 83/83/14 86/86/14
f 84/84/2 87/87/2 86/86/2
f 84/84/2 86/86/2 83/83/2
f 85/85/14 89/89/14 88/88/14
f 85/85/14 86/86/14 89/89/14
f 87/87/2 90/90/2 89/89/2
f 87/87/2 89/89/2 86/86/2
f 88/88/15 92/92/15 91/91/15
f 88/88/15 89/89/15 92/92/15
f 90/90/2 93/93/2 92/92/2
f 90/90/2 92/92/2 89/89/2
f 94/94/16 96/96/16 95/95/16
f 94/94/16 97/97/16 96/96/16
f 98/98/2 99/99/2 96/96/2
f 98/98/2 96/96/2 97/97/2
f 95/95/16 101/101/16 100/100/16
f 95/95/16 96/96/16 101/101/16
f 99/99/2 102/102/2 101/101/2
f 99/99/2 101/101/2 96/96/2
f 100/100/16 104/104/16 103/103/16
f 100/100/16 101/101/16 104/104/16
f 102/102/2 105/105/2 104/104/2
f 102/102/2 104/104/2 101/101/2
f 103/103/16 107/107/16 106/106/16
f 103/103/16 104/104/16 107/107/16
f 105/105/2 108/108/2 107/107/2
f 105/105/2 107/107/2 104/104/2
f 106/106/16 110/110/16 109/109/16
f 106/106/16 107/107/16 110/110/16
f 108/108/2 111/111/2 110/110/2
f 108/108/2 110/110/2 107/107/2
f 109/109/17 113/113/17 112/112/17
f 109/109/17 110/110/17 113/113/17
f 111/111/2 114/114/2 113/113/2
f 111/111/2 113/113/2 110/110/2
f 112/112/17 116/116/17 115/115/17
f 112/112/17 113/113/17 116/116/17
f 114/114/2 117/117/2 116/116/2
f 114/114/2 116/116/2 113/113/2
f 118/118/16 120/120/16 119/119/16
f 118/118/16 121/121/16 120/120/16
f 122/122/2 123/123/2 120/120/2
f 122/122/2 120/120/2 121/121/2
f 119/119/16 125/125/16 124/124/16
f 119/119/16 120/120/16 125/125/16
f 123/123/2 126/126/2 125/125/2
f 123/123/2 125/125/2 120/120/2
f 118/118/18 127/127/18 122/122/18
f 118/118/18 122/122/18 121/121/18
f 124/124/19 126/126/19 128/128/19
f 124/124/19 125/125/19 126/126/19
f 129/129/20 131/131/20 130/130/20
f 129/129/20 132/132/20 131/131/20
f 133/133/2 134/134/2 131/131/2
f 133/133/2 131/131/2 132/132/2
f 130/130/20 136/136/20 135/135/20
f 130/130/20 131/131/20 136/136/20
f 134/134/2 137/137/2 136/136/2
f 134/134/2 136/136/2 131/131/2
f 135/135/20 139/139/20 138/138/20
f 135/135/20 136/136/20 139/139/20
f 137/137/2 140/140/2 139/139/2
f 137/137/2 139/139/2 136/136/2
f 141/141/21 132/132/21 129/129/21
f 141/141/21 142/142/21 132/132/21
f 143/143/2 133/133/2 132/132/2
f 143/143/2 132/132/2 142/142/2
f 144/144/22 146/146/22 145/145/22
f 144/144/22 147/147/22 146/146/22
f 148/148/2 149/149/2 146/146/2
f 148/148/2 146/146/2 147/147/2
f 145/145/22 151/151/22 150/150/22
f 145/145/22 146/146/22 151/151/22
f 149/149/2 152/152/2 151/151/2
f 149/149/2 151/151/2 146/146/2
f 150/150/22 154/154/22 153/153/22
f 150/150/22 151/151/22 154/154/22
f 152/152/2 155/155/2 154/154/2
f 152/152/2 154/154/2 151/151/2
f 156/156/23 147/147/23 144/144/23
f 156/156/23 157/157/23 147/147/23
f 158/158/2 148/148/2 147/147/2
f 158/158/2 147/147/2 157/157/2
f 159/159/24 161/161/24 160/160/24
f 159/159/24 162/162/24 161/161/24
f 163/163/2 164/164/2 161/161/2
f 163/163/2 161/161/2 162/162/2
f 160/160/25 166/166/25 165/165/25
f 160/160/25 161/161/25 166/166/25
f 164/164/2 167/167/2 166/166/2
f 164/164/2 166/166/2 161/161/2
f 165/165/25 169/169/25 168/168/25
f 165/165/25 166/166/25 169/169/25
f 167/167/2 170/170/2 169/169/2
f 167/167/2 169/169/2 166/166/2
f 168/168/25 172/172/25 171/171/25
f 168/168/25 169/169/25 172/172/25
f 170/170/2 173/173/2 172/172/2
f 170/170/2 172/172/2 169/169/2
f 171/171/25 175/175/25 174/174/25
f 171/171/25 172/172/25 175/175/25
f 173/173/2 176/176/2 175/175/2
f 173/173/2 175/175/2 172/172/2
f 177/177/26 179/179/26 178/178/26
f 177/177/26 180/180/26 179/179/26
f 181/181/2 182/182/2 179/179/2
f 181/181/2 179/179/2 180/180/2
f 178/178/26 184/184/26 183/183/26
f 178/178/26 179/179/26 184/184/26
f 182/182/2 185/185/2 184/184/2
f 182/182/2 184/184/2 179/179/2
f 183/183/26 187/187/26 186/186/26
f 183/183/26 184/184/26 187/187/26
f 185/185/2 188/188/2 187/187/2
f 185/185/2 187/187/2 184/184/2
f 186/186/26 190/190/26 189/189/26
f 186/186/26 187/187/26 190/190/26
f 188/188/2 191/191/2 190/190/2
f 188/188/2 190/190/2 187/187/2
f 189/189/27 193/193/27 192/192/27
f 189/189/27 190/190/27 193/193/27
f 191/191/2 194/194/2 193/193/2
f 191/191/2 193/193/2 190/190/2
f 195/195/28 197/197/28 196/196/28
f 195/195/28 198/198/28 197/197/28
f 199/199/2 200/200/2 197/197/2
f 199/199/2 197/197/2 198/198/2
f 196/196/28 202/202/28 201/201/28
f 196/196/28 197/197/28 202/202/28
f 200/200/2 203/203/2 202/202/2
f 200/200/2 202/202/2 197/197/2
f 201/201/28 205/205/28 204/204/28
f 201/201/28 202/202/28 205/205/28
f 203/203/2 206/206/2 205/205/2
f 203/203/2 205/205/2 202/202/2
f 204/204/28 208/208/28 207/207/28
f 204/204/28 205/205/28 208/208/28
f 206/206/2 209/209/2 208/208/2
f 206/206/2 208/208/2 205/205/2
f 210/210/29 212/212/29 211/211/29
f 210/210/29 213/213/29 212/212/29
f 214/214/2 215/215/2 212/212/2
f 214/214/2 212/212/2 213/213/2
f 211/211/29 198/198/29 195/195/29
f 211/211/29 212/212/29 198/198/29
f 215/215/2 199/199/2 198/198/2
f 215/215/2 198/198/2 212/212/2
f 216/216/30 218/218/30 217/217/30
f 216/216/30 219/219/30 218/218/30
f 220/220/2 221/221/2 218/218/2
f 220/220/2 218/218/2 219/219/2
f 217/217/30 223/223/30 222/222/30
f 217/217/30 218/218/30 223/223/30
f 221/221/2 224/224/2 223/223/2
f 221/221/2 223/223/2 218/218/2
f 222/222/31 226/226/31 225/225/31
f 222/222/31 223/223/31 226/226/31
f 224/224/2 227/227/2 226/226/2
f 224/224/2 226/226/2 223/223/2
f 228/228/32 230/230/32 229/229/32
f 228/228/32 231/231/32 230/230/32
f 232/232/2 233/233/2 230/230/2
f 232/232/2 230/230/2 231/231/2
f 229/229/33 235/235/33 234/234/33
f 229/229/33 230/230/33 235/235/33
f 233/233/2 236/236/2 235/235/2
f 233/233/2 235/235/2 230/230/2
f 234/234/33 238/238/33 237/237/33
f 234/234/33 235/235/33 238/238/33
f 236/236/2 239/239/2 238/238/2
f 236/236/2 238/238/2 235/235/2
f 237/237/33 219/219/33 216/216/33
f 237/237/33 238/238/33 219/219/33
f 239/239/2 220/220/2 219/219/2
f 239/239/2 219/219/2 238/238/2
f 240/240/34 242/242/34 241/241/34
f 240/240/34 243/243/34 242/242/34
f 244/244/2 245/245/2 242/242/2
f 244/244/2 242/242/2 243/243/2
f 241/241/35 247/247/35 246/246/35
f 241/241/35 242/242/35 247/247/35
f 245/245/2 248/248/2 247/247/2
f 245/245/2 247/247/2 242/242/2
f 246/246/35 250/250/35 249/249/35
f 246/246/35 247/247/35 250/250/35
f 248/248/2 251/251/2 250/250/2
f 248/248/2 250/250/2 247/247/2
f 252/252/36 254/254/36 253/253/36
f 252/252/36 255/255/36 254/254/36
f 256/256/2 257/257/2 254/254/2
f 256/256/2 254/254/2 255/255/2
f 253/253/36 259/259/36 258/258/36
f 253/253/36 254/254/36 259/259/36
f 257/257/2 260/260/2 259/259/2
f 257/257/2 259/259/2 254/254/2
f 258/258/36 262/262/36 261/261/36
f 258/258/36 259/259/36 262/262/36
f 260/260/2 263/263/2 262/262/2
f 260/260/2 262/262/2 259/259/2
f 261/261/37 265/265/37 264/264/37
f 261/261/37 262/262/37 265/265/37
f 263/263/2 266/266/2 265/265/2
f 263/263/2 265/265/2 262/262/2
f 264/264/37 268/268/37 267/267/37
f 264/264/37 265/265/37 268/268/37
f 266/266/2 269/269/2 268/268/2
f 266/266/2 268/268/2 265/265/2
f 270/270/38 272/272/38 271/271/38
f 270/270/38 273/273/38 272/272/38
f 274/274/2 275/275/2 272/272/2
f 274/274/2 272/272/2 273/273/2
f 271/271/39 277/277/39 276/276/39
f 271/271/39 272/272/39 277/277/39
f 275/275/2 278/278/2 277/277/2
f 275/275/2 277/277/2 272/272/2
f 276/276/39 255/255/39 252/252/39
f 276/276/39 277/277/39 255/255/39
f 278/278/2 256/256/2 255/255/2
f 278/278/2 255/255/2 277/277/2
f 279/279/40 281/281/40 280/280/40
f 279/279/40 282/282/40 281/281/40
f 283/283/2 284/284/2 281/281/2
f 283/283/2 281/281/2 282/282/2
f 280/280/40 286/286/40 285/285/40
f 280/280/40 281/281/40 286/286/40
f 284/284/2 287/287/2 286/286/2
f 284/284/2 286/286/2 281/281/2
f 285/285/41 289/289/41 288/288/41
f 285/285/41 286/286/41 289/289/41
f 287/287/2 290/290/2 289/289/2
f 287/287/2 289/289/2 286/286/2
f 291/291/42 293/293/42 292/292/42
f 291/291/42 294/294/42 293/293/42
f 295/295/2 296/296/2 293/293/2
f 295/295/2 293/293/2 294/294/2
f 292/292/42 298/298/42 297/297/42
f 292/292/42 293/293/42 298/298/42
f 296/296/2 299/299/2 298/298/2
f 296/296/2 298/298/2 293/293/2
f 297/297/42 301/301/42 300/300/42
f 297/297/42 298/298/42 301/301/42
f 299/299/2 302/302/2 301/301/2
f 299/299/2 301/301/2 298/298/2
f 300/300/43 304/304/43 303/303/43
f 300/300/43 301/301/43 304/304/43
f 302/302/2 305/305/2 304/304/2
f 302/302/2 304/304/2 301/301/2
f 303/303/43 307/307/43 306/306/43
f 303/303/43 304/304/43 307/307/43
f 305/305/2 308/308/2 307/307/2
f 305/305/2 307/307/2 304/304/2
f 306/306/43 310/310/43 309/309/43
f 306/306/43 307/307/43 310/310/43
f 308/308/2 311/311/2 310/310/2
f 308/308/2 310/310/2 307/307/2
