# Unreal legacy OBJ adapter: canonical vertices are UE cm; this file is written with Y reflected and triangle winding reversed. One object, no g groups, so the importer creates exactly one material slot.
# OldCityFoundationV2 foundations (plinth + stepped footing); generator 463404ba754c804f514fe655944ece4eb51a92e1273fec326ad5c2ebfbb18f24
# AUTHORED detail in the style of Old City stone foundations, not survey
o SM_OldCityFoundationV2_Precinct_N001_P002
s off
v -8673.97 -114208.62 -13123.10
v -8544.16 -114392.08 -13166.79
v -8544.16 -114392.08 -13098.10
v -8673.97 -114208.62 -13098.10
v -8682.48 -114210.44 -13098.10
v -8553.57 -114392.63 -13098.10
v -8291.36 -114749.35 -13154.25
v -8291.36 -114749.35 -13098.10
v -8302.51 -114747.43 -13098.10
v -8443.56 -114856.72 -13123.10
v -8443.56 -114856.72 -13098.10
v -8454.71 -114854.80 -13098.10
v -6096.88 -112704.98 -13620.70
v -6119.33 -112472.43 -13647.71
v -6119.33 -112472.43 -13595.70
v -6096.88 -112704.98 -13595.70
v -6089.42 -112699.06 -13595.70
v -6111.59 -112469.36 -13595.70
v -6163.81 -112011.72 -13627.50
v -6163.81 -112011.72 -13595.70
v -6155.52 -112014.30 -13595.70
v -6178.77 -111856.69 -13620.70
v -6178.77 -111856.69 -13595.70
v -6170.30 -111861.16 -13595.70
v -5930.29 -111608.21 -13620.70
v -5742.15 -111590.07 -13627.50
v -5742.15 -111590.07 -13595.70
v -5930.29 -111608.21 -13595.70
v -5925.50 -111615.78 -13595.70
v -5740.12 -111597.91 -13595.70
v -5110.82 -111529.21 -13650.32
v -5110.82 -111529.21 -13595.70
v -5118.01 -111537.94 -13595.70
v -5019.40 -112472.43 -13691.70
v -5019.40 -112472.43 -13595.70
v -5027.71 -112469.61 -13595.70
v -4984.78 -112829.63 -13650.23
v -4984.78 -112829.63 -13595.70
v -4993.51 -112822.43 -13595.70
v -5557.38 -112884.81 -13620.70
v -5557.38 -112884.81 -13595.70
v -5557.75 -112876.81 -13595.70
v -3986.39 -102404.25 -12999.87
v -4037.06 -102384.97 -13010.01
v -4037.06 -102384.97 -12945.80
v -3986.39 -102404.25 -12945.80
v -3991.01 -102393.93 -12945.80
v -4041.22 -102374.83 -12945.80
v -4124.51 -102351.71 -13017.84
v -4124.51 -102351.71 -12945.80
v -4127.89 -102341.86 -12945.80
v -4319.36 -102277.59 -13011.91
v -4319.36 -102277.59 -12945.80
v -4320.97 -102268.42 -12945.80
v -5637.84 -101776.06 -12971.79
v -5637.84 -101776.06 -12945.80
v -5627.51 -101771.43 -12945.80
v -5633.12 -101763.68 -12970.80
v -5633.12 -101763.68 -12945.80
v -5622.81 -101759.10 -12945.80
v -3881.28 -102128.53 -12970.80
v -3943.30 -102291.22 -12991.26
v -3943.30 -102291.22 -12945.80
v -3881.28 -102128.53 -12945.80
v -3885.91 -102118.21 -12945.80
v -3947.93 -102280.90 -12945.80
v -4451.90 -113486.29 -13620.20
v -4124.51 -113329.17 -13658.96
v -4124.51 -113329.17 -13595.20
v -4451.90 -113486.29 -13595.20
v -4450.02 -113494.26 -13595.20
v -4126.14 -113338.82 -13595.20
v -3926.78 -113234.27 -13650.73
v -3926.78 -113234.27 -13595.20
v -3930.51 -113244.93 -13595.20
v -3802.58 -113491.75 -13620.20
v -3802.58 -113491.75 -13595.20
v -3808.80 -113497.28 -13595.20
v -3050.79 -114541.21 -13578.90
v -2750.62 -114972.43 -13637.41
v -2750.62 -114972.43 -13553.90
v -3050.79 -114541.21 -13553.90
v -3055.49 -114548.47 -13553.90
v -2758.53 -114975.07 -13553.90
v -2448.87 -115405.93 -13609.53
v -2448.87 -115405.93 -13553.90
v -2460.01 -115403.93 -13553.90
v -2636.43 -115536.15 -13578.90
v -2636.43 -115536.15 -13553.90
v -2643.58 -115531.37 -13553.90
v -3773.75 -110062.24 -13589.00
v -3782.28 -110314.67 -13600.12
v -3782.28 -110314.67 -13564.00
v -3773.75 -110062.24 -13564.00
v -3781.63 -110058.73 -13564.00
v -3790.13 -110310.05 -13564.00
v -3796.23 -110727.35 -13618.30
v -3796.23 -110727.35 -13564.00
v -3804.01 -110720.93 -13564.00
v -4124.51 -110802.89 -13660.72
v -4124.51 -110802.89 -13564.00
v -4129.71 -110795.88 -13564.00
v -5203.19 -111051.11 -13627.50
v -5203.19 -111051.11 -13564.00
v -5199.84 -111042.13 -13564.00
v -5481.74 -111115.21 -13618.92
v -5481.74 -111115.21 -13564.00
v -5476.19 -111105.72 -13564.00
v -5791.51 -111186.49 -13609.38
v -5791.51 -111186.49 -13564.00
v -5783.51 -111176.44 -13564.00
v -5791.51 -110805.43 -13594.14
v -5791.51 -110805.43 -13564.00
v -5783.51 -110797.03 -13564.00
v -5791.51 -110676.93 -13589.00
v -5791.51 -110676.93 -13564.00
v -5783.51 -110669.09 -13564.00
vt 263.8366 -32.8077
vt 264.6198 -32.9170
vt 264.6198 -32.7452
vt 263.8366 -32.7452
vt 263.8199 -32.7452
vt 264.5976 -32.7452
vt 266.1450 -32.8856
vt 266.1450 -32.7452
vt 266.1123 -32.7452
vt 266.0329 -32.8077
vt 266.0329 -32.7452
vt 266.0002 -32.7452
vt 266.5202 -34.0517
vt 265.8827 -34.1193
vt 265.8827 -33.9892
vt 266.5202 -33.9892
vt 266.5241 -33.9892
vt 265.8944 -33.9892
vt 264.6198 -34.0688
vt 264.6198 -33.9892
vt 264.6470 -33.9892
vt 264.1948 -34.0517
vt 264.1948 -33.9892
vt 264.2271 -33.9892
vt 264.1948 -34.0517
vt 264.6198 -34.0688
vt 264.6198 -33.9892
vt 264.1948 -33.9892
vt 264.2257 -33.9892
vt 264.6445 -33.9892
vt 266.0460 -34.1258
vt 266.0460 -33.9892
vt 266.0498 -33.9892
vt 268.6326 -34.2293
vt 268.6326 -33.9892
vt 268.6047 -33.9892
vt 269.6121 -34.1256
vt 269.6121 -33.9892
vt 269.5723 -33.9892
vt 268.3186 -34.0517
vt 268.3186 -33.9892
vt 268.2976 -33.9892
vt 246.0446 -32.4997
vt 245.8698 -32.5250
vt 245.8698 -32.3645
vt 246.0446 -32.3645
vt 246.0073 -32.3645
vt 245.8340 -32.3645
vt 245.5680 -32.5446
vt 245.5680 -32.3645
vt 245.5349 -32.3645
vt 244.8956 -32.5298
vt 244.8956 -32.3645
vt 244.8686 -32.3645
vt 240.3456 -32.4295
vt 240.3456 -32.3645
vt 240.3598 -32.3645
vt 240.3264 -32.4270
vt 240.3264 -32.3645
vt 240.3407 -32.3645
vt 245.6181 -32.4270
vt 245.8698 -32.4781
vt 245.8698 -32.3645
vt 245.6181 -32.3645
vt 245.5807 -32.3645
vt 245.8324 -32.3645
vt 272.5860 -34.0505
vt 273.0117 -34.1474
vt 273.0117 -33.9880
vt 272.5860 -33.9880
vt 272.6106 -33.9880
vt 273.0317 -33.9880
vt 273.2687 -34.1268
vt 273.2687 -33.9880
vt 273.2860 -33.9880
vt 274.2229 -34.0505
vt 274.2229 -33.9880
vt 274.2212 -33.9880
vt 278.7261 -33.9472
vt 280.5545 -34.0935
vt 280.5545 -33.8847
vt 278.7261 -33.8847
vt 278.7324 -33.8847
vt 280.5414 -33.8847
vt 282.3927 -34.0238
vt 282.3927 -33.8847
vt 282.3598 -33.8847
vt 282.2493 -33.9472
vt 282.2493 -33.8847
vt 282.2195 -33.8847
vt 265.7212 -33.9725
vt 266.3310 -34.0003
vt 266.3310 -33.9100
vt 265.7212 -33.9100
vt 265.6927 -33.9100
vt 266.2998 -33.9100
vt 267.3278 -34.0457
vt 267.3278 -33.9100
vt 267.2923 -33.9100
vt 266.6960 -34.1518
vt 266.6960 -33.9100
vt 266.6654 -33.9100
vt 264.6198 -34.0688
vt 264.6198 -33.9100
vt 264.6057 -33.9100
vt 264.0837 -34.0473
vt 264.0837 -33.9100
vt 264.0738 -33.9100
vt 263.4875 -34.0234
vt 263.4875 -33.9100
vt 263.4823 -33.9100
vt 262.5348 -33.9853
vt 262.5348 -33.9100
vt 262.5338 -33.9100
vt 262.2135 -33.9725
vt 262.2135 -33.9100
vt 262.2140 -33.9100
vn 0.8163 0.5776 0.0000
vn 0.0000 -0.0000 1.0000
vn 0.5765 -0.8171 0.0000
vn -0.9954 -0.0961 0.0000
vn -0.0960 0.9954 0.0000
vn 0.9953 0.0965 0.0000
vn 0.0959 -0.9954 0.0000
vn -0.3555 -0.9347 0.0000
vn -0.9343 0.3566 0.0000
vn 0.9344 -0.3562 0.0000
vn -0.4327 0.9015 0.0000
vn 0.9007 0.4344 0.0000
vn 0.8207 0.5713 0.0000
vn 0.5703 -0.8214 0.0000
vn 0.9994 -0.0338 0.0000
vn 0.2243 -0.9745 0.0000
vn -1.0000 -0.0000 0.0000
f 1/1/1 3/3/1 2/2/1
f 1/1/1 4/4/1 3/3/1
f 5/5/2 6/6/2 3/3/2
f 5/5/2 3/3/2 4/4/2
f 2/2/1 8/8/1 7/7/1
f 2/2/1 3/3/1 8/8/1
f 6/6/2 9/9/2 8/8/2
f 6/6/2 8/8/2 3/3/2
f 7/7/3 11/11/3 10/10/3
f 7/7/3 8/8/3 11/11/3
f 9/9/2 12/12/2 11/11/2
f 9/9/2 11/11/2 8/8/2
f 13/13/4 15/15/4 14/14/4
f 13/13/4 16/16/4 15/15/4
f 17/17/2 18/18/2 15/15/2
f 17/17/2 15/15/2 16/16/2
f 14/14/4 20/20/4 19/19/4
f 14/14/4 15/15/4 20/20/4
f 18/18/2 21/21/2 20/20/2
f 18/18/2 20/20/2 15/15/2
f 19/19/4 23/23/4 22/22/4
f 19/19/4 20/20/4 23/23/4
f 21/21/2 24/24/2 23/23/2
f 21/21/2 23/23/2 20/20/2
f 25/25/5 27/27/5 26/26/5
f 25/25/5 28/28/5 27/27/5
f 29/29/2 30/30/2 27/27/2
f 29/29/2 27/27/2 28/28/2
f 26/26/5 32/32/5 31/31/5
f 26/26/5 27/27/5 32/32/5
f 30/30/2 33/33/2 32/32/2
f 30/30/2 32/32/2 27/27/2
f 31/31/6 35/35/6 34/34/6
f 31/31/6 32/32/6 35/35/6
f 33/33/2 36/36/2 35/35/2
f 33/33/2 35/35/2 32/32/2
f 34/34/6 38/38/6 37/37/6
f 34/34/6 35/35/6 38/38/6
f 36/36/2 39/39/2 38/38/2
f 36/36/2 38/38/2 35/35/2
f 37/37/7 41/41/7 40/40/7
f 37/37/7 38/38/7 41/41/7
f 39/39/2 42/42/2 41/41/2
f 39/39/2 41/41/2 38/38/2
f 43/43/8 45/45/8 44/44/8
f 43/43/8 46/46/8 45/45/8
f 47/47/2 48/48/2 45/45/2
f 47/47/2 45/45/2 46/46/2
f 44/44/8 50/50/8 49/49/8
f 44/44/8 45/45/8 50/50/8
f 48/48/2 51/51/2 50/50/2
f 48/48/2 50/50/2 45/45/2
f 49/49/8 53/53/8 52/52/8
f 49/49/8 50/50/8 53/53/8
f 51/51/2 54/54/2 53/53/2
f 51/51/2 53/53/2 50/50/2
f 52/52/8 56/56/8 55/55/8
f 52/52/8 53/53/8 56/56/8
f 54/54/2 57/57/2 56/56/2
f 54/54/2 56/56/2 53/53/2
f 55/55/9 59/59/9 58/58/9
f 55/55/9 56/56/9 59/59/9
f 57/57/2 60/60/2 59/59/2
f 57/57/2 59/59/2 56/56/2
f 61/61/10 63/63/10 62/62/10
f 61/61/10 64/64/10 63/63/10
f 65/65/2 66/66/2 63/63/2
f 65/65/2 63/63/2 64/64/2
f 62/62/10 46/46/10 43/43/10
f 62/62/10 63/63/10 46/46/10
f 66/66/2 47/47/2 46/46/2
f 66/66/2 46/46/2 63/63/2
f 67/67/11 69/69/11 68/68/11
f 67/67/11 70/70/11 69/69/11
f 71/71/2 72/72/2 69/69/2
f 71/71/2 69/69/2 70/70/2
f 68/68/11 74/74/11 73/73/11
f 68/68/11 69/69/11 74/74/11
f 72/72/2 75/75/2 74/74/2
f 72/72/2 74/74/2 69/69/2
f 73/73/12 77/77/12 76/76/12
f 73/73/12 74/74/12 77/77/12
f 75/75/2 78/78/2 77/77/2
f 75/75/2 77/77/2 74/74/2
f 79/79/13 81/81/13 80/80/13
f 79/79/13 82/82/13 81/81/13
f 83/83/2 84/84/2 81/81/2
f 83/83/2 81/81/2 82/82/2
f 80/80/13 86/86/13 85/85/13
f 80/80/13 81/81/13 86/86/13
f 84/84/2 87/87/2 86/86/2
f 84/84/2 86/86/2 81/81/2
f 85/85/14 89/89/14 88/88/14
f 85/85/14 86/86/14 89/89/14
f 87/87/2 90/90/2 89/89/2
f 87/87/2 89/89/2 86/86/2
f 91/91/15 93/93/15 92/92/15
f 91/91/15 94/94/15 93/93/15
f 95/95/2 96/96/2 93/93/2
f 95/95/2 93/93/2 94/94/2
f 92/92/15 98/98/15 97/97/15
f 92/92/15 93/93/15 98/98/15
f 96/96/2 99/99/2 98/98/2
f 96/96/2 98/98/2 93/93/2
f 97/97/16 101/101/16 100/100/16
f 97/97/16 98/98/16 101/101/16
f 99/99/2 102/102/2 101/101/2
f 99/99/2 101/101/2 98/98/2
f 100/100/16 104/104/16 103/103/16
f 100/100/16 101/101/16 104/104/16
f 102/102/2 105/105/2 104/104/2
f 102/102/2 104/104/2 101/101/2
f 103/103/16 107/107/16 106/106/16
f 103/103/16 104/104/16 107/107/16
f 105/105/2 108/108/2 107/107/2
f 105/105/2 107/107/2 104/104/2
f 106/106/16 110/110/16 109/109/16
f 106/106/16 107/107/16 110/110/16
f 108/108/2 111/111/2 110/110/2
f 108/108/2 110/110/2 107/107/2
f 109/109/17 113/113/17 112/112/17
f 109/109/17 110/110/17 113/113/17
f 111/111/2 114/114/2 113/113/2
f 111/111/2 113/113/2 110/110/2
f 112/112/17 116/116/17 115/115/17
f 112/112/17 113/113/17 116/116/17
f 114/114/2 117/117/2 116/116/2
f 114/114/2 116/116/2 113/113/2
