# Unreal legacy OBJ adapter: canonical vertices are UE cm; this file is written with Y reflected and triangle winding reversed. One object, no g groups, so the importer creates exactly one material slot.
# OldCityFoundationV2 foundations (plinth + stepped footing); generator 463404ba754c804f514fe655944ece4eb51a92e1273fec326ad5c2ebfbb18f24
# AUTHORED detail in the style of Old City stone foundations, not survey
o SM_OldCityFoundationV2_Kept_P003_N002
s off
v 151913.33 61120.72 -2005.00
v 151914.26 61066.34 -2028.89
v 151914.26 61066.34 -1980.00
v 151913.33 61120.72 -1980.00
v 151905.21 61127.71 -1980.00
v 151906.12 61073.95 -1980.00
v 151914.63 61044.70 -2037.51
v 151914.63 61044.70 -1980.00
v 151906.49 61052.57 -1980.00
v 151892.24 61044.32 -2039.46
v 151892.24 61044.32 -1980.00
v 151884.29 61052.19 -1980.00
v 150875.49 61027.02 -2087.74
v 150875.49 61027.02 -1980.00
v 150875.73 61035.03 -1980.00
v 149930.12 61010.93 -2019.19
v 149930.12 61010.93 -1980.00
v 149937.99 61019.07 -1980.00
v 149929.57 61043.08 -2005.00
v 149929.57 61043.08 -1980.00
v 149937.44 61050.85 -1980.00
v 154051.67 55791.12 -3766.60
v 154005.59 55671.24 -3797.95
v 154005.59 55671.24 -3741.60
v 154051.67 55791.12 -3741.60
v 154046.66 55800.36 -3741.60
v 154000.99 55681.57 -3741.60
v 153375.49 55912.56 -3850.50
v 153375.49 55912.56 -3741.60
v 153376.21 55920.85 -3741.60
v 152280.14 56332.07 -3766.60
v 152280.14 56332.07 -3741.60
v 152290.14 56336.81 -3741.60
v 155236.79 63976.94 -1095.60
v 155240.12 63781.71 -1126.84
v 155240.12 63781.71 -1070.60
v 155236.79 63976.94 -1070.60
v 155228.69 63982.65 -1070.60
v 155231.98 63789.57 -1070.60
v 154631.99 63771.07 -1128.54
v 154631.99 63771.07 -1070.60
v 154629.13 63779.02 -1070.60
v 154618.75 63770.83 -1128.58
v 154618.75 63770.83 -1070.60
v 154616.01 63778.79 -1070.60
v 153715.26 63755.02 -1095.60
v 153715.26 63755.02 -1070.60
v 153720.35 63763.11 -1070.60
v 156400.19 51466.73 -4854.80
v 156409.77 51209.66 -4885.65
v 156409.77 51209.66 -4829.80
v 156400.19 51466.73 -4829.80
v 156392.09 51469.28 -4829.80
v 156401.49 51217.07 -4829.80
v 155875.49 51170.26 -4890.38
v 155875.49 51170.26 -4829.80
v 155872.18 51178.04 -4829.80
v 154811.27 51091.78 -4857.23
v 154811.27 51091.78 -4829.80
v 154817.86 51100.29 -4829.80
v 154733.41 51086.04 -4854.80
v 154733.41 51086.04 -4829.80
v 154740.73 51094.60 -4829.80
v 160980.43 71633.76 -487.30
v 161087.77 71543.00 -519.00
v 161087.77 71543.00 -462.30
v 160980.43 71633.76 -462.30
v 160969.85 71632.23 -462.30
v 161076.49 71542.07 -462.30
v 160875.49 71293.19 -525.00
v 160875.49 71293.19 -462.30
v 160866.90 71295.44 -462.30
v 160294.05 70609.00 -518.18
v 160294.05 70609.00 -462.30
v 160292.87 70619.96 -462.30
v 160273.91 70585.31 -517.95
v 160273.91 70585.31 -462.30
v 160272.99 70596.57 -462.30
v 160182.51 70662.60 -487.30
v 160182.51 70662.60 -462.30
v 160182.19 70673.35 -462.30
v 165553.16 70331.55 -1787.88
v 165448.82 70027.57 -1790.97
v 165448.82 70027.57 -1730.20
v 165553.16 70331.55 -1730.20
v 165542.99 70326.57 -1730.20
v 165439.35 70024.62 -1730.20
v 165225.84 69377.92 -1771.58
v 165225.84 69377.92 -1730.20
v 165217.85 69379.30 -1730.20
v 165037.35 68828.77 -1755.20
v 165037.35 68828.77 -1730.20
v 165030.62 68833.81 -1730.20
v 165462.65 70362.50 -1755.20
v 165462.65 70362.50 -1730.20
v 165453.39 70357.21 -1730.20
v 170290.52 65150.59 -3709.30
v 170401.97 65083.81 -3740.49
v 170401.97 65083.81 -3684.30
v 170290.52 65150.59 -3684.30
v 170280.69 65147.16 -3684.30
v 170390.99 65081.06 -3684.30
v 170368.18 65027.57 -3746.33
v 170368.18 65027.57 -3684.30
v 170357.53 65025.37 -3684.30
v 169620.31 63782.74 -3726.26
v 169620.31 63782.74 -3684.30
v 169616.94 63792.68 -3684.30
v 169604.72 63756.81 -3725.84
v 169604.72 63756.81 -3684.30
v 169601.51 63766.99 -3684.30
v 169556.23 63676.09 -3724.54
v 169556.23 63676.09 -3684.30
v 169553.49 63687.06 -3684.30
v 169536.08 63688.17 -3720.35
v 169536.08 63688.17 -3684.30
v 169533.55 63699.01 -3684.30
v 169482.95 63720.00 -3709.30
v 169482.95 63720.00 -3684.30
v 169480.97 63730.52 -3684.30
v 172237.71 74458.29 -2659.25
v 172186.45 74517.00 -2652.80
v 172186.45 74517.00 -2627.80
v 172237.71 74458.29 -2627.80
v 172238.49 74469.57 -2627.80
v 172187.79 74527.62 -2627.80
v 172860.42 75236.91 -2652.80
v 172978.29 75101.79 -2683.85
v 172978.29 75101.79 -2627.80
v 172860.42 75236.91 -2627.80
v 172850.42 75236.19 -2627.80
v 172966.99 75102.57 -2627.80
v 172892.87 75027.57 -2688.89
v 172892.87 75027.57 -2627.80
v 172882.97 75029.56 -2627.80
v 173824.06 63512.57 -4409.30
v 174006.68 63267.93 -4438.66
v 174006.68 63267.93 -4384.30
v 173824.06 63512.57 -4384.30
v 173815.77 63510.30 -4384.30
v 173995.48 63269.57 -4384.30
v 173375.49 62797.99 -4495.05
v 173375.49 62797.99 -4384.30
v 173369.31 62803.36 -4384.30
v 173220.47 62682.58 -4477.90
v 173220.47 62682.58 -4384.30
v 173215.53 62688.87 -4384.30
v 173012.27 62527.57 -4454.86
v 173012.27 62527.57 -4384.30
v 173008.99 62535.09 -4384.30
v 172394.85 62067.88 -4441.70
v 172394.85 62067.88 -4384.30
v 172396.48 62079.07 -4384.30
v 172332.70 62151.08 -4409.30
v 172332.70 62151.08 -4384.30
v 172335.32 62160.94 -4384.30
v 176692.85 62780.16 -4531.80
v 176606.15 62580.06 -4562.75
v 176606.15 62580.06 -4506.80
v 176692.85 62780.16 -4506.80
v 176687.24 62787.35 -4506.80
v 176601.99 62590.57 -4506.80
v 176132.37 62784.45 -4576.12
v 176132.37 62784.45 -4506.80
v 176132.06 62793.30 -4506.80
v 175875.49 62895.27 -4568.67
v 175875.49 62895.27 -4506.80
v 175877.27 62903.21 -4506.80
v 175537.33 63041.15 -4531.80
v 175537.33 63041.15 -4506.80
v 175541.86 63047.91 -4506.80
v 177987.01 73716.94 -3038.16
v 177880.43 73869.18 -3007.10
v 177880.43 73869.18 -2982.10
v 177987.01 73716.94 -2982.10
v 177988.99 73728.07 -2982.10
v 177883.07 73879.37 -2982.10
v 179265.73 74660.98 -3007.10
v 179290.14 74626.09 -3012.26
v 179290.14 74626.09 -2982.10
v 179265.73 74660.98 -2982.10
v 179254.74 74662.75 -2982.10
v 179278.99 74628.07 -2982.10
v 178987.86 74415.20 -3025.48
v 178987.86 74415.20 -2982.10
v 178979.75 74419.30 -2982.10
v 178375.49 73987.96 -3052.25
v 178375.49 73987.96 -2982.10
v 178373.55 73996.37 -2982.10
v 178656.99 55655.57 -5966.00
v 178543.93 55328.90 -5996.66
v 178543.93 55328.90 -5941.00
v 178656.99 55655.57 -5941.00
v 178651.11 55663.04 -5941.00
v 178538.99 55339.07 -5941.00
v 178375.49 55387.01 -5998.74
v 178375.49 55387.01 -5941.00
v 178371.66 55396.79 -5941.00
v 177826.76 55576.29 -5983.60
v 177826.76 55576.29 -5941.00
v 177826.57 55584.82 -5941.00
v 177188.92 55796.32 -5966.00
v 177188.92 55796.32 -5941.00
v 177192.97 55803.39 -5941.00
v 178975.33 66052.63 -3963.49
v 179108.95 66241.94 -3933.20
v 179108.95 66241.94 -3908.20
v 178975.33 66052.63 -3908.20
v 178986.49 66054.57 -3908.20
v 179118.28 66241.28 -3908.20
v 180710.96 65120.84 -3933.20
v 180645.26 65027.57 -3945.92
v 180645.26 65027.57 -3908.20
v 180710.96 65120.84 -3908.20
v 180707.16 65129.34 -3908.20
v 180642.36 65037.35 -3908.20
v 180575.42 64928.43 -3963.40
v 180575.42 64928.43 -3908.20
v 180573.49 64939.57 -3908.20
v 180434.32 65027.57 -3962.79
v 180434.32 65027.57 -3908.20
v 180433.53 65037.90 -3908.20
v 179225.08 65877.16 -3991.57
v 179225.08 65877.16 -3908.20
v 179234.19 65880.53 -3908.20
v 181061.85 54641.89 -6021.10
v 181031.93 54555.40 -6053.56
v 181031.93 54555.40 -5996.10
v 181061.85 54641.89 -5996.10
v 181056.66 54651.37 -5996.10
v 181026.99 54565.57 -5996.10
v 180875.49 54609.39 -6061.32
v 180875.49 54609.39 -5996.10
v 180871.78 54619.13 -5996.10
v 180564.59 54716.68 -6039.42
v 180564.59 54716.68 -5996.10
v 180563.37 54725.56 -5996.10
v 180304.48 54806.44 -6021.10
v 180304.48 54806.44 -5996.10
v 180305.33 54814.61 -5996.10
v 179712.18 51341.72 -6868.90
v 179692.64 51344.73 -6869.44
v 179692.64 51344.73 -6843.90
v 179712.18 51341.72 -6843.90
v 179710.09 51350.14 -6843.90
v 179690.71 51353.12 -6843.90
v 179533.92 51369.14 -6873.84
v 179533.92 51369.14 -6843.90
v 179533.24 51377.33 -6843.90
v 178375.49 51547.29 -6905.92
v 178375.49 51547.29 -6843.90
v 178383.99 51554.07 -6843.90
v 178296.86 51559.38 -6898.67
v 178296.86 51559.38 -6843.90
v 178305.99 51566.07 -6843.90
v 178364.71 51999.29 -6868.90
v 178364.71 51999.29 -6843.90
v 178373.28 52002.39 -6843.90
vt 226.9815 -5.0125
vt 227.1198 -5.0722
vt 227.1198 -4.9500
vt 226.9815 -4.9500
vt 226.9437 -4.9500
vt 227.0804 -4.9500
vt 227.1748 -5.0938
vt 227.1748 -4.9500
vt 227.1348 -4.9500
vt 227.1198 -5.0987
vt 227.1198 -4.9500
vt 227.0803 -4.9500
vt 224.6212 -5.2193
vt 224.6212 -4.9500
vt 224.6018 -4.9500
vt 222.2980 -5.0480
vt 222.2980 -4.9500
vt 222.2973 -4.9500
vt 222.2162 -5.0125
vt 222.2162 -4.9500
vt 222.2165 -4.9500
vt 245.6514 -9.4165
vt 245.8359 -9.4949
vt 245.8359 -9.3540
vt 245.6514 -9.3540
vt 245.6158 -9.3540
vt 245.7985 -9.3540
vt 243.6573 -9.6263
vt 243.6573 -9.3540
vt 243.6384 -9.3540
vt 239.8702 -9.4165
vt 239.8702 -9.3540
vt 239.8833 -9.3540
vt 228.1496 -2.7390
vt 228.6460 -2.8171
vt 228.6460 -2.6765
vt 228.1496 -2.6765
vt 228.1151 -2.6765
vt 228.6060 -2.6765
vt 227.1523 -2.8213
vt 227.1523 -2.6765
vt 227.1253 -2.6765
vt 227.1198 -2.8215
vt 227.1198 -2.6765
vt 227.0931 -2.6765
vt 224.9006 -2.7390
vt 224.9006 -2.6765
vt 224.8931 -2.6765
vt 262.3336 -12.1370
vt 263.0003 -12.2141
vt 263.0003 -12.0745
vt 262.3336 -12.0745
vt 262.3070 -12.0745
vt 262.9610 -12.0745
vt 261.7631 -12.2260
vt 261.7631 -12.0745
vt 261.7353 -12.0745
vt 259.2987 -12.1431
vt 259.2987 -12.0745
vt 259.2939 -12.0745
vt 259.1184 -12.1370
vt 259.1184 -12.0745
vt 259.1153 -12.0745
vt 223.3667 -1.2183
vt 223.8619 -1.2975
vt 223.8619 -1.1558
vt 223.3667 -1.1558
vt 223.3441 -1.1558
vt 223.8360 -1.1558
vt 223.9557 -1.3125
vt 223.9557 -1.1558
vt 223.9286 -1.1558
vt 224.2126 -1.2954
vt 224.2126 -1.1558
vt 224.1823 -1.1558
vt 224.2215 -1.2949
vt 224.2215 -1.1558
vt 224.1910 -1.1558
vt 223.7998 -1.2183
vt 223.7998 -1.1558
vt 223.7721 -1.1558
vt 238.0540 -4.4697
vt 238.5531 -4.4774
vt 238.5531 -4.3255
vt 238.0540 -4.3255
vt 238.0410 -4.3255
vt 238.5368 -4.3255
vt 239.6198 -4.4289
vt 239.6198 -4.3255
vt 239.5964 -4.3255
vt 240.5215 -4.3880
vt 240.5215 -4.3255
vt 240.4920 -4.3255
vt 237.7504 -4.3880
vt 237.7504 -4.3255
vt 237.7405 -4.3255
vt 262.8498 -9.2733
vt 263.2954 -9.3512
vt 263.2954 -9.2108
vt 262.8498 -9.2108
vt 262.8338 -9.2108
vt 263.2748 -9.2108
vt 263.3515 -9.3658
vt 263.3515 -9.2108
vt 263.3304 -9.2108
vt 264.5939 -9.3156
vt 264.5939 -9.2108
vt 264.5607 -9.2108
vt 264.6198 -9.3146
vt 264.6198 -9.2108
vt 264.5863 -9.2108
vt 264.7004 -9.3113
vt 264.7004 -9.2108
vt 264.6661 -9.2108
vt 264.6198 -9.3009
vt 264.6198 -9.2108
vt 264.5863 -9.2108
vt 264.4074 -9.2733
vt 264.4074 -9.2108
vt 264.3761 -9.2108
vt 244.4485 -6.6481
vt 244.1736 -6.6320
vt 244.1736 -6.5695
vt 244.4485 -6.5695
vt 244.4223 -6.5695
vt 244.1504 -6.5695
vt 244.0588 -6.6320
vt 244.6913 -6.7096
vt 244.6913 -6.5695
vt 244.0588 -6.5695
vt 244.0356 -6.5695
vt 244.6610 -6.5695
vt 244.6632 -6.7222
vt 244.6632 -6.5695
vt 244.6335 -6.5695
vt 275.7787 -11.0233
vt 276.8469 -11.0967
vt 276.8469 -10.9608
vt 275.7787 -10.9608
vt 275.7637 -10.9608
vt 276.8148 -10.9608
vt 276.4438 -11.2376
vt 276.4438 -10.9608
vt 276.4149 -10.9608
vt 276.3447 -11.1947
vt 276.3447 -10.9608
vt 276.3166 -10.9608
vt 276.2117 -11.1371
vt 276.2117 -10.9608
vt 276.1848 -10.9608
vt 275.8174 -11.1043
vt 275.8174 -10.9608
vt 275.7935 -10.9608
vt 275.4541 -11.0233
vt 275.4541 -10.9608
vt 275.4359 -10.9608
vt 284.7817 -11.3295
vt 285.0652 -11.4069
vt 285.0652 -11.2670
vt 284.7817 -11.2670
vt 284.7497 -11.2670
vt 285.0285 -11.2670
vt 283.3698 -11.4403
vt 283.3698 -11.2670
vt 283.3469 -11.2670
vt 282.4506 -11.4217
vt 282.4506 -11.2670
vt 282.4352 -11.2670
vt 281.2405 -11.3295
vt 281.2405 -11.2670
vt 281.2349 -11.2670
vt 260.6752 -7.5954
vt 260.0281 -7.5177
vt 260.0281 -7.4552
vt 260.6752 -7.4552
vt 260.6523 -7.4552
vt 260.0093 -7.4552
vt 261.5119 -7.5177
vt 261.6601 -7.5307
vt 261.6601 -7.4552
vt 261.5119 -7.4552
vt 261.4800 -7.4552
vt 261.6273 -7.4552
vt 261.4316 -7.5637
vt 261.4316 -7.4552
vt 261.4011 -7.4552
vt 260.9688 -7.6306
vt 260.9688 -7.4552
vt 260.9429 -7.4552
vt 307.5035 -14.9150
vt 308.0376 -14.9916
vt 308.0376 -14.8525
vt 307.5035 -14.8525
vt 307.4702 -14.8525
vt 307.9998 -14.8525
vt 307.4712 -14.9969
vt 307.4712 -14.8525
vt 307.4372 -14.8525
vt 305.6262 -14.9590
vt 305.6262 -14.8525
vt 305.6044 -14.8525
vt 303.4815 -14.9150
vt 303.4815 -14.8525
vt 303.4740 -14.8525
vt 282.3067 -9.9087
vt 282.1675 -9.8330
vt 282.1675 -9.7705
vt 282.3067 -9.7705
vt 282.3298 -9.7705
vt 282.1925 -9.7705
vt 288.9753 -9.8330
vt 289.0442 -9.8648
vt 289.0442 -9.7705
vt 288.9753 -9.7705
vt 288.9445 -9.7705
vt 289.0125 -9.7705
vt 289.1175 -9.9085
vt 289.1175 -9.7705
vt 289.0848 -9.7705
vt 288.5169 -9.9070
vt 288.5169 -9.7705
vt 288.4891 -9.7705
vt 283.3698 -9.9789
vt 283.3698 -9.7705
vt 283.3842 -9.7705
vt 316.0499 -15.0528
vt 316.1913 -15.1339
vt 316.1913 -14.9903
vt 316.0499 -14.9903
vt 316.0132 -14.9903
vt 316.1535 -14.9903
vt 315.6652 -15.1533
vt 315.6652 -14.9903
vt 315.6316 -14.9903
vt 314.6198 -15.0985
vt 314.6198 -14.9903
vt 314.5945 -14.9903
vt 313.7451 -15.0528
vt 313.7451 -14.9903
vt 313.7268 -14.9903
vt 320.9262 -17.1722
vt 320.8698 -17.1736
vt 320.8698 -17.1097
vt 320.9262 -17.1097
vt 320.8999 -17.1097
vt 320.8440 -17.1097
vt 320.4120 -17.1846
vt 320.4120 -17.1097
vt 320.3898 -17.1097
vt 317.0705 -17.2648
vt 317.0705 -17.1097
vt 317.0748 -17.1097
vt 316.8437 -17.2467
vt 316.8437 -17.1097
vt 316.8498 -17.1097
vt 315.9135 -17.1722
vt 315.9135 -17.1097
vt 315.9272 -17.1097
vn 0.9999 0.0171 0.0000
vn 0.0000 -0.0000 1.0000
vn 0.0170 -0.9999 0.0000
vn -0.9999 -0.0171 0.0000
vn 0.9334 -0.3588 0.0000
vn -0.3577 -0.9339 0.0000
vn 0.9999 0.0170 0.0000
vn 0.0175 -0.9998 0.0000
vn 0.9993 0.0372 0.0000
vn 0.0735 -0.9973 0.0000
vn 0.6457 0.7636 0.0000
vn 0.7620 -0.6476 0.0000
vn -0.6457 -0.7636 0.0000
vn 0.9458 -0.3246 0.0000
vn 0.3236 0.9462 0.0000
vn 0.5140 0.8578 0.0000
vn 0.8572 -0.5150 0.0000
vn -0.5140 -0.8578 0.0000
vn -0.7532 -0.6577 0.0000
vn 0.7536 0.6574 0.0000
vn 0.6559 -0.7549 0.0000
vn 0.8013 0.5982 0.0000
vn 0.5972 -0.8021 0.0000
vn -0.8012 -0.5985 0.0000
vn 0.9176 -0.3976 0.0000
vn -0.3961 -0.9182 0.0000
vn -0.8192 -0.5735 0.0000
vn 0.8195 0.5731 0.0000
vn 0.5722 -0.8201 0.0000
vn 0.9450 -0.3271 0.0000
vn -0.3261 -0.9453 0.0000
vn -0.8170 0.5767 0.0000
vn 0.8175 -0.5759 0.0000
vn -0.5749 -0.8182 0.0000
vn 0.9451 -0.3269 0.0000
vn -0.3262 -0.9453 0.0000
vn -0.1520 -0.9884 0.0000
vn -0.9883 0.1524 0.0000
f 1/1/1 3/3/1 2/2/1
f 1/1/1 4/4/1 3/3/1
f 5/5/2 6/6/2 3/3/2
f 5/5/2 3/3/2 4/4/2
f 2/2/1 8/8/1 7/7/1
f 2/2/1 3/3/1 8/8/1
f 6/6/2 9/9/2 8/8/2
f 6/6/2 8/8/2 3/3/2
f 7/7/3 11/11/3 10/10/3
f 7/7/3 8/8/3 11/11/3
f 9/9/2 12/12/2 11/11/2
f 9/9/2 11/11/2 8/8/2
f 10/10/3 14/14/3 13/13/3
f 10/10/3 11/11/3 14/14/3
f 12/12/2 15/15/2 14/14/2
f 12/12/2 14/14/2 11/11/2
f 13/13/3 17/17/3 16/16/3
f 13/13/3 14/14/3 17/17/3
f 15/15/2 18/18/2 17/17/2
f 15/15/2 17/17/2 14/14/2
f 16/16/4 20/20/4 19/19/4
f 16/16/4 17/17/4 20/20/4
f 18/18/2 21/21/2 20/20/2
f 18/18/2 20/20/2 17/17/2
f 22/22/5 24/24/5 23/23/5
f 22/22/5 25/25/5 24/24/5
f 26/26/2 27/27/2 24/24/2
f 26/26/2 24/24/2 25/25/2
f 23/23/6 29/29/6 28/28/6
f 23/23/6 24/24/6 29/29/6
f 27/27/2 30/30/2 29/29/2
f 27/27/2 29/29/2 24/24/2
f 28/28/6 32/32/6 31/31/6
f 28/28/6 29/29/6 32/32/6
f 30/30/2 33/33/2 32/32/2
f 30/30/2 32/32/2 29/29/2
f 34/34/7 36/36/7 35/35/7
f 34/34/7 37/37/7 36/36/7
f 38/38/2 39/39/2 36/36/2
f 38/38/2 36/36/2 37/37/2
f 35/35/8 41/41/8 40/40/8
f 35/35/8 36/36/8 41/41/8
f 39/39/2 42/42/2 41/41/2
f 39/39/2 41/41/2 36/36/2
f 40/40/8 44/44/8 43/43/8
f 40/40/8 41/41/8 44/44/8
f 42/42/2 45/45/2 44/44/2
f 42/42/2 44/44/2 41/41/2
f 43/43/8 47/47/8 46/46/8
f 43/43/8 44/44/8 47/47/8
f 45/45/2 48/48/2 47/47/2
f 45/45/2 47/47/2 44/44/2
f 49/49/9 51/51/9 50/50/9
f 49/49/9 52/52/9 51/51/9
f 53/53/2 54/54/2 51/51/2
f 53/53/2 51/51/2 52/52/2
f 50/50/10 56/56/10 55/55/10
f 50/50/10 51/51/10 56/56/10
f 54/54/2 57/57/2 56/56/2
f 54/54/2 56/56/2 51/51/2
f 55/55/10 59/59/10 58/58/10
f 55/55/10 56/56/10 59/59/10
f 57/57/2 60/60/2 59/59/2
f 57/57/2 59/59/2 56/56/2
f 58/58/10 62/62/10 61/61/10
f 58/58/10 59/59/10 62/62/10
f 60/60/2 63/63/2 62/62/2
f 60/60/2 62/62/2 59/59/2
f 64/64/11 66/66/11 65/65/11
f 64/64/11 67/67/11 66/66/11
f 68/68/2 69/69/2 66/66/2
f 68/68/2 66/66/2 67/67/2
f 65/65/12 71/71/12 70/70/12
f 65/65/12 66/66/12 71/71/12
f 69/69/2 72/72/2 71/71/2
f 69/69/2 71/71/2 66/66/2
f 70/70/12 74/74/12 73/73/12
f 70/70/12 71/71/12 74/74/12
f 72/72/2 75/75/2 74/74/2
f 72/72/2 74/74/2 71/71/2
f 73/73/12 77/77/12 76/76/12
f 73/73/12 74/74/12 77/77/12
f 75/75/2 78/78/2 77/77/2
f 75/75/2 77/77/2 74/74/2
f 76/76/13 80/80/13 79/79/13
f 76/76/13 77/77/13 80/80/13
f 78/78/2 81/81/2 80/80/2
f 78/78/2 80/80/2 77/77/2
f 82/82/14 84/84/14 83/83/14
f 82/82/14 85/85/14 84/84/14
f 86/86/2 87/87/2 84/84/2
f 86/86/2 84/84/2 85/85/2
f 83/83/14 89/89/14 88/88/14
f 83/83/14 84/84/14 89/89/14
f 87/87/2 90/90/2 89/89/2
f 87/87/2 89/89/2 84/84/2
f 88/88/14 92/92/14 91/91/14
f 88/88/14 89/89/14 92/92/14
f 90/90/2 93/93/2 92/92/2
f 90/90/2 92/92/2 89/89/2
f 94/94/15 85/85/15 82/82/15
f 94/94/15 95/95/15 85/85/15
f 96/96/2 86/86/2 85/85/2
f 96/96/2 85/85/2 95/95/2
f 97/97/16 99/99/16 98/98/16
f 97/97/16 100/100/16 99/99/16
f 101/101/2 102/102/2 99/99/2
f 101/101/2 99/99/2 100/100/2
f 98/98/17 104/104/17 103/103/17
f 98/98/17 99/99/17 104/104/17
f 102/102/2 105/105/2 104/104/2
f 102/102/2 104/104/2 99/99/2
f 103/103/17 107/107/17 106/106/17
f 103/103/17 104/104/17 107/107/17
f 105/105/2 108/108/2 107/107/2
f 105/105/2 107/107/2 104/104/2
f 106/106/17 110/110/17 109/109/17
f 106/106/17 107/107/17 110/110/17
f 108/108/2 111/111/2 110/110/2
f 108/108/2 110/110/2 107/107/2
f 109/109/17 113/113/17 112/112/17
f 109/109/17 110/110/17 113/113/17
f 111/111/2 114/114/2 113/113/2
f 111/111/2 113/113/2 110/110/2
f 112/112/18 116/116/18 115/115/18
f 112/112/18 113/113/18 116/116/18
f 114/114/2 117/117/2 116/116/2
f 114/114/2 116/116/2 113/113/2
f 115/115/18 119/119/18 118/118/18
f 115/115/18 116/116/18 119/119/18
f 117/117/2 120/120/2 119/119/2
f 117/117/2 119/119/2 116/116/2
f 121/121/19 123/123/19 122/122/19
f 121/121/19 124/124/19 123/123/19
f 125/125/2 126/126/2 123/123/2
f 125/125/2 123/123/2 124/124/2
f 127/127/20 129/129/20 128/128/20
f 127/127/20 130/130/20 129/129/20
f 131/131/2 132/132/2 129/129/2
f 131/131/2 129/129/2 130/130/2
f 128/128/21 134/134/21 133/133/21
f 128/128/21 129/129/21 134/134/21
f 132/132/2 135/135/2 134/134/2
f 132/132/2 134/134/2 129/129/2
f 133/133/21 124/124/21 121/121/21
f 133/133/21 134/134/21 124/124/21
f 135/135/2 125/125/2 124/124/2
f 135/135/2 124/124/2 134/134/2
f 136/136/22 138/138/22 137/137/22
f 136/136/22 139/139/22 138/138/22
f 140/140/2 141/141/2 138/138/2
f 140/140/2 138/138/2 139/139/2
f 137/137/23 143/143/23 142/142/23
f 137/137/23 138/138/23 143/143/23
f 141/141/2 144/144/2 143/143/2
f 141/141/2 143/143/2 138/138/2
f 142/142/23 146/146/23 145/145/23
f 142/142/23 143/143/23 146/146/23
f 144/144/2 147/147/2 146/146/2
f 144/144/2 146/146/2 143/143/2
f 145/145/23 149/149/23 148/148/23
f 145/145/23 146/146/23 149/149/23
f 147/147/2 150/150/2 149/149/2
f 147/147/2 149/149/2 146/146/2
f 148/148/23 152/152/23 151/151/23
f 148/148/23 149/149/23 152/152/23
f 150/150/2 153/153/2 152/152/2
f 150/150/2 152/152/2 149/149/2
f 151/151/24 155/155/24 154/154/24
f 151/151/24 152/152/24 155/155/24
f 153/153/2 156/156/2 155/155/2
f 153/153/2 155/155/2 152/152/2
f 157/157/25 159/159/25 158/158/25
f 157/157/25 160/160/25 159/159/25
f 161/161/2 162/162/2 159/159/2
f 161/161/2 159/159/2 160/160/2
f 158/158/26 164/164/26 163/163/26
f 158/158/26 159/159/26 164/164/26
f 162/162/2 165/165/2 164/164/2
f 162/162/2 164/164/2 159/159/2
f 163/163/26 167/167/26 166/166/26
f 163/163/26 164/164/26 167/167/26
f 165/165/2 168/168/2 167/167/2
f 165/165/2 167/167/2 164/164/2
f 166/166/26 170/170/26 169/169/26
f 166/166/26 167/167/26 170/170/26
f 168/168/2 171/171/2 170/170/2
f 168/168/2 170/170/2 167/167/2
f 172/172/27 174/174/27 173/173/27
f 172/172/27 175/175/27 174/174/27
f 176/176/2 177/177/2 174/174/2
f 176/176/2 174/174/2 175/175/2
f 178/178/28 180/180/28 179/179/28
f 178/178/28 181/181/28 180/180/28
f 182/182/2 183/183/2 180/180/2
f 182/182/2 180/180/2 181/181/2
f 179/179/29 185/185/29 184/184/29
f 179/179/29 180/180/29 185/185/29
f 183/183/2 186/186/2 185/185/2
f 183/183/2 185/185/2 180/180/2
f 184/184/29 188/188/29 187/187/29
f 184/184/29 185/185/29 188/188/29
f 186/186/2 189/189/2 188/188/2
f 186/186/2 188/188/2 185/185/2
f 187/187/29 175/175/29 172/172/29
f 187/187/29 188/188/29 175/175/29
f 189/189/2 176/176/2 175/175/2
f 189/189/2 175/175/2 188/188/2
f 190/190/30 192/192/30 191/191/30
f 190/190/30 193/193/30 192/192/30
f 194/194/2 195/195/2 192/192/2
f 194/194/2 192/192/2 193/193/2
f 191/191/31 197/197/31 196/196/31
f 191/191/31 192/192/31 197/197/31
f 195/195/2 198/198/2 197/197/2
f 195/195/2 197/197/2 192/192/2
f 196/196/31 200/200/31 199/199/31
f 196/196/31 197/197/31 200/200/31
f 198/198/2 201/201/2 200/200/2
f 198/198/2 200/200/2 197/197/2
f 199/199/31 203/203/31 202/202/31
f 199/199/31 200/200/31 203/203/31
f 201/201/2 204/204/2 203/203/2
f 201/201/2 203/203/2 200/200/2
f 205/205/32 207/207/32 206/206/32
f 205/205/32 208/208/32 207/207/32
f 209/209/2 210/210/2 207/207/2
f 209/209/2 207/207/2 208/208/2
f 211/211/33 213/213/33 212/212/33
f 211/211/33 214/214/33 213/213/33
f 215/215/2 216/216/2 213/213/2
f 215/215/2 213/213/2 214/214/2
f 212/212/33 218/218/33 217/217/33
f 212/212/33 213/213/33 218/218/33
f 216/216/2 219/219/2 218/218/2
f 216/216/2 218/218/2 213/213/2
f 217/217/34 221/221/34 220/220/34
f 217/217/34 218/218/34 221/221/34
f 219/219/2 222/222/2 221/221/2
f 219/219/2 221/221/2 218/218/2
f 220/220/34 224/224/34 223/223/34
f 220/220/34 221/221/34 224/224/34
f 222/222/2 225/225/2 224/224/2
f 222/222/2 224/224/2 221/221/2
f 223/223/34 208/208/34 205/205/34
f 223/223/34 224/224/34 208/208/34
f 225/225/2 209/209/2 208/208/2
f 225/225/2 208/208/2 224/224/2
f 226/226/35 228/228/35 227/227/35
f 226/226/35 229/229/35 228/228/35
f 230/230/2 231/231/2 228/228/2
f 230/230/2 228/228/2 229/229/2
f 227/227/36 233/233/36 232/232/36
f 227/227/36 228/228/36 233/233/36
f 231/231/2 234/234/2 233/233/2
f 231/231/2 233/233/2 228/228/2
f 232/232/36 236/236/36 235/235/36
f 232/232/36 233/233/36 236/236/36
f 234/234/2 237/237/2 236/236/2
f 234/234/2 236/236/2 233/233/2
f 235/235/36 239/239/36 238/238/36
f 235/235/36 236/236/36 239/239/36
f 237/237/2 240/240/2 239/239/2
f 237/237/2 239/239/2 236/236/2
f 241/241/37 243/243/37 242/242/37
f 241/241/37 244/244/37 243/243/37
f 245/245/2 246/246/2 243/243/2
f 245/245/2 243/243/2 244/244/2
f 242/242/37 248/248/37 247/247/37
f 242/242/37 243/243/37 248/248/37
f 246/246/2 249/249/2 248/248/2
f 246/246/2 248/248/2 243/243/2
f 247/247/37 251/251/37 250/250/37
f 247/247/37 248/248/37 251/251/37
f 249/249/2 252/252/2 251/251/2
f 249/249/2 251/251/2 248/248/2
f 250/250/37 254/254/37 253/253/37
f 250/250/37 251/251/37 254/254/37
f 252/252/2 255/255/2 254/254/2
f 252/252/2 254/254/2 251/251/2
f 253/253/38 257/257/38 256/256/38
f 253/253/38 254/254/38 257/257/38
f 255/255/2 258/258/2 257/257/2
f 255/255/2 257/257/2 254/254/2
