# Unreal legacy OBJ adapter: canonical vertices are UE cm; this file is written with Y reflected and triangle winding reversed. One object, no g groups, so the importer creates exactly one material slot.
# OldCityFoundationV2 foundations (plinth + stepped footing); generator 463404ba754c804f514fe655944ece4eb51a92e1273fec326ad5c2ebfbb18f24
# AUTHORED detail in the style of Old City stone foundations, not survey
o SM_OldCityFoundationV2_Precinct_P000_N001
s off
v 3295.89 35930.30 -688.21
v 3147.14 36244.22 -669.70
v 3147.14 36244.22 -644.70
v 3295.89 35930.30 -644.70
v 3306.99 35925.57 -644.70
v 3158.20 36239.55 -644.70
v 5966.65 36908.90 -669.70
v 5875.49 36864.10 -680.58
v 5875.49 36864.10 -644.70
v 5966.65 36908.90 -644.70
v 5956.08 36912.62 -644.70
v 5865.19 36867.96 -644.70
v 4644.01 36259.04 -679.72
v 4644.01 36259.04 -644.70
v 4637.49 36264.75 -644.70
v 4571.16 36223.25 -679.67
v 4571.16 36223.25 -644.70
v 4564.86 36229.06 -644.70
v 3536.12 35714.69 -700.02
v 3536.12 35714.69 -644.70
v 3532.99 35722.07 -644.70
v 3375.49 35656.77 -702.33
v 3375.49 35656.77 -644.70
v 3375.87 35665.41 -644.70
v 3198.74 35593.03 -697.81
v 3198.74 35593.03 -644.70
v 3202.99 35603.07 -644.70
v 3079.05 35857.85 -682.43
v 3079.05 35857.85 -644.70
v 3089.99 35853.07 -644.70
v 6664.91 33383.22 -764.35
v 6071.27 34831.79 -811.84
v 6071.27 34831.79 -721.20
v 6664.91 33383.22 -721.20
v 6671.99 33387.07 -721.20
v 6080.03 34831.49 -721.20
v 5991.03 35027.57 -818.26
v 5991.03 35027.57 -721.20
v 6000.03 35026.71 -721.20
v 5957.44 35109.53 -814.39
v 5957.44 35109.53 -721.20
v 5966.53 35108.44 -721.20
v 5875.49 35309.51 -804.94
v 5875.49 35309.51 -721.20
v 5884.81 35307.85 -721.20
v 5625.73 35918.94 -746.20
v 5625.73 35918.94 -721.20
v 5635.77 35915.54 -721.20
v 8469.77 33944.11 -746.20
v 8466.30 33890.93 -753.00
v 8466.30 33890.93 -721.20
v 8469.77 33944.11 -721.20
v 8461.90 33946.37 -721.20
v 8458.49 33894.07 -721.20
v 8375.49 33782.56 -776.90
v 8375.49 33782.56 -721.20
v 8371.02 33789.69 -721.20
v 8372.33 33778.80 -777.23
v 8372.33 33778.80 -721.20
v 8367.99 33786.07 -721.20
v 7499.96 33598.41 -763.98
v 7499.96 33598.41 -721.20
v 7497.49 33606.07 -721.20
v 7364.98 33538.07 -765.82
v 7364.98 33538.07 -721.20
v 7363.46 33546.15 -721.20
v 6748.70 33262.56 -774.23
v 6748.70 33262.56 -721.20
v 6751.49 33272.57 -721.20
v 6692.05 33344.14 -762.17
v 6692.05 33344.14 -721.20
v 6697.74 33349.98 -721.20
v 9017.76 25200.87 -1397.64
v 9032.54 25027.57 -1406.35
v 9032.54 25027.57 -1342.10
v 9017.76 25200.87 -1342.10
v 9010.49 25192.07 -1342.10
v 9024.98 25022.13 -1342.10
v 9088.13 24375.84 -1386.95
v 9088.13 24375.84 -1342.10
v 9079.49 24383.07 -1342.10
v 9032.41 24370.65 -1380.05
v 9032.41 24370.65 -1342.10
v 9023.89 24377.89 -1342.10
v 8927.71 24360.89 -1367.10
v 8927.71 24360.89 -1342.10
v 8919.44 24368.16 -1342.10
v 8754.08 25173.35 -1367.10
v 8754.08 25173.35 -1342.10
v 8747.40 25164.61 -1342.10
v 9518.30 25248.66 -1455.79
v 9536.59 25027.57 -1466.83
v 9536.59 25027.57 -1400.30
v 9518.30 25248.66 -1400.30
v 9510.99 25240.07 -1400.30
v 9528.92 25023.24 -1400.30
v 9586.62 24422.73 -1448.64
v 9586.62 24422.73 -1400.30
v 9577.99 24430.07 -1400.30
v 9397.15 24407.56 -1425.30
v 9397.15 24407.56 -1400.30
v 9393.92 24415.33 -1400.30
v 9257.43 25228.40 -1425.30
v 9257.43 25228.40 -1400.30
v 9258.05 25220.42 -1400.30
v 10544.78 23069.05 -1639.70
v 10626.95 23079.52 -1655.71
v 10626.95 23079.52 -1614.70
v 10544.78 23069.05 -1614.70
v 10539.64 23060.34 -1614.70
v 10619.99 23070.57 -1614.70
v 10657.42 22830.42 -1671.77
v 10657.42 22830.42 -1614.70
v 10648.49 22837.57 -1614.70
v 10580.31 22822.74 -1656.66
v 10580.31 22822.74 -1614.70
v 10571.41 22829.89 -1614.70
v 10493.80 22814.12 -1639.70
v 10493.80 22814.12 -1614.70
v 10484.93 22821.28 -1614.70
v 10439.82 22544.26 -1639.70
v 10441.64 22527.57 -1640.73
v 10441.64 22527.57 -1614.70
v 10439.82 22544.26 -1614.70
v 10431.00 22551.42 -1614.70
v 10432.82 22534.73 -1614.70
v 10484.27 22136.36 -1680.55
v 10484.27 22136.36 -1614.70
v 10475.45 22143.51 -1614.70
v 10521.37 21795.90 -1639.70
v 10521.37 21795.90 -1614.70
v 10512.55 21803.05 -1614.70
v 34272.07 14033.38 -4459.68
v 34254.99 14148.06 -4457.14
v 34254.99 14148.06 -4404.10
v 34272.07 14033.38 -4404.10
v 34279.99 14034.57 -4404.10
v 34263.03 14148.37 -4404.10
v 34123.96 15027.57 -4437.68
v 34123.96 15027.57 -4404.10
v 34133.01 15021.14 -4404.10
v 34117.89 15068.31 -4436.78
v 34117.89 15068.31 -4404.10
v 34126.99 15061.57 -4404.10
v 34178.89 15077.36 -4429.10
v 34178.89 15077.36 -4404.10
v 34187.70 15070.58 -4404.10
v 34615.49 13067.39 -4429.10
v 34421.26 13038.48 -4460.18
v 34421.26 13038.48 -4404.10
v 34615.49 13067.39 -4404.10
v 34621.30 13076.34 -4404.10
v 34427.99 13047.57 -4404.10
v 34351.51 13503.60 -4471.34
v 34351.51 13503.60 -4404.10
v 34358.80 13508.99 -4404.10
v -144.76 34447.44 -581.09
v 440.17 34592.25 -592.67
v 440.17 34592.25 -515.81
v -144.76 34447.44 -515.81
v -135.07 34441.60 -515.81
v 442.00 34584.47 -515.81
v 875.49 34700.02 -614.40
v 875.49 34700.02 -515.81
v 871.47 34690.79 -515.81
v 1011.34 34733.66 -621.18
v 1011.34 34733.66 -515.81
v 1005.50 34723.97 -515.81
v 1365.32 33303.82 -578.14
v 1365.32 33303.82 -515.81
v 1355.63 33309.66 -515.81
v 875.49 33182.55 -553.70
v 875.49 33182.55 -515.81
v 872.38 33190.03 -515.81
v 617.19 33118.61 -540.81
v 617.19 33118.61 -515.81
v 617.55 33126.94 -515.81
v 41.76 33694.05 -540.81
v -57.42 34094.66 -552.87
v -57.42 34094.66 -515.81
v 41.76 33694.05 -515.81
v 49.42 33696.39 -515.81
v -48.68 34092.65 -515.81
v 4572.24 34362.67 -775.37
v 5084.64 35001.95 -795.87
v 5084.64 35001.95 -750.37
v 4572.24 34362.67 -750.37
v 4581.12 34360.96 -750.37
v 5085.88 34990.70 -750.37
v 5509.40 34661.49 -812.86
v 5509.40 34661.49 -750.37
v 5506.01 34653.95 -750.37
v 5875.49 34368.06 -827.50
v 5875.49 34368.06 -750.37
v 5868.10 34363.72 -750.37
v 6230.10 34083.83 -799.13
v 6230.10 34083.83 -750.37
v 6218.85 34082.59 -750.37
v 5875.49 33641.42 -827.50
v 5875.49 33641.42 -750.37
v 5869.53 33646.78 -750.37
v 5559.64 33247.36 -814.87
v 5559.64 33247.36 -750.37
v 5558.40 33258.61 -750.37
v 4746.80 33898.88 -782.35
v 4746.80 33898.88 -750.37
v 4754.42 33903.03 -750.37
v 4572.24 34038.80 -775.37
v 4572.24 34038.80 -750.37
v 4581.76 34041.42 -750.37
v -106.77 36202.16 -627.50
v 875.49 36445.34 -627.50
v 875.49 36445.34 -572.50
v -106.77 36202.16 -572.50
v -97.08 36196.32 -572.50
v 872.94 36436.47 -572.50
v 1140.57 36510.97 -627.50
v 1140.57 36510.97 -572.50
v 1134.73 36501.28 -572.50
v 1382.33 35534.42 -627.50
v 1382.33 35534.42 -572.50
v 1373.95 35535.01 -572.50
v 1505.85 35035.51 -652.40
v 1505.85 35035.51 -572.50
v 1496.16 35041.35 -572.50
v 1473.78 35027.57 -651.43
v 1473.78 35027.57 -572.50
v 1464.49 35033.51 -572.50
v 994.21 34908.84 -627.50
v 994.21 34908.84 -572.50
v 990.89 34916.27 -572.50
v 875.49 34879.45 -621.58
v 875.49 34879.45 -572.50
v 873.65 34887.24 -572.50
v 678.64 34830.72 -611.75
v 678.64 34830.72 -572.50
v 679.25 34839.12 -572.50
v 258.50 34726.71 -603.43
v 258.50 34726.71 -572.50
v 264.34 34736.40 -572.50
v 184.02 35027.57 -627.50
v 184.02 35027.57 -572.50
v 190.64 35034.09 -572.50
v -43.48 35946.54 -627.50
v -43.48 35946.54 -572.50
v -34.46 35943.39 -572.50
v 1047.24 34694.96 -621.07
v 1157.12 34745.93 -627.50
v 1157.12 34745.93 -581.75
v 1047.24 34694.96 -581.75
v 1057.86 34691.07 -581.75
v 1166.38 34741.40 -581.75
v 1764.31 35027.57 -663.05
v 1764.31 35027.57 -581.75
v 1766.00 35019.54 -581.75
v 2212.94 35235.66 -672.67
v 2212.94 35235.66 -581.75
v 2209.05 35225.04 -581.75
v 2309.46 35027.57 -684.86
v 2309.46 35027.57 -581.75
v 2304.76 35018.70 -581.75
v 2647.25 34299.33 -669.24
v 2647.25 34299.33 -581.75
v 2639.69 34296.61 -581.75
v 3010.73 33515.68 -698.32
v 3010.73 33515.68 -581.75
v 3000.11 33519.57 -581.75
v 2584.90 33318.16 -664.25
v 2584.90 33318.16 -581.75
v 2579.57 33324.51 -581.75
v 1866.11 32984.75 -606.75
v 1866.11 32984.75 -581.75
v 1869.74 32995.26 -581.75
v 1356.85 34027.45 -606.75
v 1356.85 34027.45 -581.75
v 1364.86 34029.19 -581.75
v 4766.25 35735.58 -726.49
v 5080.32 35058.47 -793.22
v 5080.32 35058.47 -701.49
v 4766.25 35735.58 -701.49
v 4761.94 35725.86 -701.49
v 5069.70 35062.36 -701.49
v 5013.70 35027.57 -793.03
v 5013.70 35027.57 -701.49
v 5004.30 35032.02 -701.49
v 4287.46 34690.71 -763.98
v 4287.46 34690.71 -701.49
v 4291.35 34701.33 -701.49
v 4131.21 35027.57 -757.73
v 4131.21 35027.57 -701.49
v 4138.24 35031.42 -701.49
v 3984.18 35344.54 -726.49
v 3984.18 35344.54 -701.49
v 3994.17 35342.02 -701.49
v 7122.38 38063.31 -442.03
v 7153.57 37527.57 -525.25
v 7153.57 37527.57 -417.03
v 7122.38 38063.31 -417.03
v 7114.40 38062.80 -417.03
v 7145.31 37531.78 -417.03
v 7175.43 37152.00 -553.55
v 7175.43 37152.00 -417.03
v 7166.98 37159.52 -417.03
v 6520.54 37113.88 -608.99
v 6520.54 37113.88 -417.03
v 6528.06 37122.33 -417.03
v 6496.46 37527.57 -577.82
v 6496.46 37527.57 -417.03
v 6504.19 37532.37 -417.03
v 6462.30 38114.38 -486.66
v 6462.30 38114.38 -417.03
v 6470.33 38114.02 -417.03
v 6445.57 38401.71 -442.03
v 6445.57 38401.71 -417.03
v 6453.76 38398.82 -417.03
v 7177.56 37356.37 -537.03
v 7190.22 37138.84 -553.42
v 7190.22 37138.84 -492.03
v 7177.56 37356.37 -492.03
v 7162.96 37366.23 -492.03
v 7175.43 37152.00 -492.03
v 6852.26 37119.16 -582.03
v 6852.26 37119.16 -492.03
v 6851.31 37133.13 -492.03
v 6507.38 37099.09 -611.23
v 6507.38 37099.09 -537.03
v 6852.26 37119.16 -537.03
v 6851.31 37133.13 -537.03
v 6520.54 37113.88 -537.03
v 6484.82 37486.61 -582.03
v 6484.82 37486.61 -537.03
v 6498.32 37495.51 -537.03
v 6482.43 37527.57 -578.94
v 6482.43 37527.57 -492.03
v 6484.82 37486.61 -492.03
v 6498.32 37495.51 -492.03
v 6495.98 37535.85 -492.03
v 6466.73 37797.38 -537.03
v 6466.73 37797.38 -492.03
v 6480.51 37801.57 -492.03
v 7162.96 37366.23 -537.03
v 6480.51 37801.57 -537.03
v 1278.61 36294.60 -627.50
v 1634.21 36459.54 -627.50
v 1634.21 36459.54 -573.39
v 1278.61 36294.60 -573.39
v 1289.23 36290.71 -573.39
v 1630.32 36448.92 -573.39
v 1847.54 35999.62 -627.50
v 1847.54 35999.62 -573.39
v 1840.78 35995.18 -573.39
v 2135.36 35379.11 -663.83
v 2135.36 35379.11 -573.39
v 2124.74 35383.00 -573.39
v 1779.75 35214.17 -656.21
v 1779.75 35214.17 -573.39
v 1783.64 35224.79 -573.39
v 1552.35 35704.43 -627.50
v 1552.35 35704.43 -573.39
v 1559.29 35708.47 -573.39
v 5422.68 35861.29 -742.69
v 5752.23 35150.82 -812.71
v 5752.23 35150.82 -717.69
v 5422.68 35861.29 -717.69
v 5417.34 35853.80 -717.69
v 5742.51 35152.77 -717.69
v 5809.40 35027.57 -824.86
v 5809.40 35027.57 -717.69
v 5798.92 35031.15 -717.69
v 5820.12 35004.45 -825.29
v 5820.12 35004.45 -717.69
v 5809.50 35008.34 -717.69
v 5386.50 34803.33 -807.94
v 5386.50 34803.33 -717.69
v 5390.39 34813.95 -717.69
v 5282.49 35027.57 -803.78
v 5282.49 35027.57 -717.69
v 5287.76 35035.21 -717.69
v 4994.96 35647.43 -742.69
v 4994.96 35647.43 -717.69
v 5004.06 35646.84 -717.69
v 1420.12 39161.11 -366.13
v 1623.30 39214.63 -357.57
v 1623.30 39214.63 -332.57
v 1420.12 39161.11 -332.57
v 1429.89 39155.41 -332.57
v 1627.55 39207.48 -332.57
v 2014.07 39214.63 -357.57
v 2098.76 38893.13 -409.01
v 2098.76 38893.13 -332.57
v 2014.07 39214.63 -332.57
v 2007.44 39208.42 -332.57
v 2088.99 38898.83 -332.57
v 2028.44 38874.61 -411.97
v 2028.44 38874.61 -332.57
v 2020.58 38880.81 -332.57
v 1530.15 38743.36 -432.97
v 1530.15 38743.36 -332.57
v 1535.85 38753.13 -332.57
v 4568.84 39088.94 -377.68
v 4569.66 38833.39 -418.57
v 4569.66 38833.39 -352.68
v 4568.84 39088.94 -352.68
v 4560.86 39084.25 -352.68
v 4561.66 38835.09 -352.68
v 4570.02 38722.10 -436.37
v 4570.02 38722.10 -352.68
v 4562.00 38726.58 -352.68
v 4570.47 38582.31 -458.74
v 4570.47 38582.31 -352.68
v 4562.44 38590.28 -352.68
v 4429.77 38581.85 -458.81
v 4429.77 38581.85 -352.68
v 4425.95 38589.84 -352.68
v 4034.47 38580.58 -459.02
v 4034.47 38580.58 -352.68
v 4042.44 38588.61 -352.68
v 4032.84 39088.94 -377.68
v 4032.84 39088.94 -352.68
v 4040.85 39084.26 -352.68
v 5908.02 39030.73 -384.39
v 5951.47 39033.26 -380.51
v 5951.47 39033.26 -355.51
v 5908.02 39030.73 -355.51
v 5916.47 39023.21 -355.51
v 5958.25 39025.64 -355.51
v 6335.75 38841.12 -380.51
v 6356.78 38479.88 -436.63
v 6356.78 38479.88 -355.51
v 6335.75 38841.12 -355.51
v 6327.89 38838.61 -355.51
v 6348.33 38487.40 -355.51
v 5941.49 38455.71 -473.72
v 5941.49 38455.71 -355.51
v 5949.01 38464.16 -355.51
v 5946.54 38441.98 -475.51
v 5928.33 38440.92 -477.14
v 5928.33 38440.92 -430.51
v 5946.54 38441.98 -430.51
v 5958.55 38456.70 -430.51
v 5941.49 38455.71 -430.51
v 5927.72 38451.39 -475.51
v 5927.72 38451.39 -430.51
v 5940.91 38465.69 -430.51
v 5958.55 38456.70 -475.51
v 5940.91 38465.69 -475.51
v 6410.39 39393.77 -286.12
v 6503.84 39399.21 -277.77
v 6503.84 39399.21 -231.46
v 6410.39 39393.77 -231.46
v 6418.84 39386.25 -231.46
v 6510.07 39391.56 -231.46
v 6742.42 39413.10 -256.46
v 6742.42 39413.10 -231.46
v 6742.99 39405.12 -231.46
v 7094.66 39236.98 -256.46
v 7106.03 39041.60 -286.81
v 7106.03 39041.60 -231.46
v 7094.66 39236.98 -231.46
v 7086.67 39236.53 -231.46
v 7097.58 39049.12 -231.46
v 6874.91 39028.15 -307.45
v 6874.91 39028.15 -231.46
v 6871.94 39035.99 -231.46
v 6433.17 39002.44 -346.91
v 6433.17 39002.44 -231.46
v 6440.69 39010.89 -231.46
v 7735.95 36102.62 -592.66
v 8046.99 36129.44 -565.63
v 8046.99 36129.44 -540.63
v 7735.95 36102.62 -540.63
v 7744.61 36095.34 -540.63
v 8043.68 36121.13 -540.63
v 8161.01 36015.41 -565.63
v 8199.90 35564.49 -598.59
v 8199.90 35564.49 -540.63
v 8161.01 36015.41 -540.63
v 8153.44 36010.17 -540.63
v 8191.24 35571.77 -540.63
v 7867.25 35535.81 -627.50
v 7867.25 35535.81 -540.63
v 7871.38 35544.19 -540.63
v 7785.44 35528.75 -634.61
v 7785.44 35528.75 -540.63
v 7792.72 35537.41 -540.63
v 7777.05 35626.00 -627.50
v 7777.05 35626.00 -540.63
v 7784.57 35631.96 -540.63
v 5832.91 38987.07 -393.98
v 5857.53 38564.09 -461.66
v 5857.53 38564.09 -368.98
v 5832.91 38987.07 -368.98
v 5825.26 38980.94 -368.98
v 5849.08 38571.61 -368.98
v 5442.24 38539.91 -465.53
v 5442.24 38539.91 -368.98
v 5449.76 38548.36 -368.98
v 5416.20 38987.07 -393.98
v 5416.20 38987.07 -368.98
v 5424.56 38981.09 -368.98
v 8457.65 38302.75 -306.76
v 8569.90 38395.55 -296.40
v 8569.90 38395.55 -271.40
v 8457.65 38302.75 -271.40
v 8468.91 38301.68 -271.40
v 8576.74 38390.82 -271.40
v 8849.85 38465.53 -296.40
v 9059.65 38211.73 -345.40
v 9059.65 38211.73 -271.40
v 8849.85 38465.53 -271.40
v 8846.01 38457.62 -271.40
v 9048.48 38212.69 -271.40
v 9062.38 38208.43 -345.31
v 9062.38 38208.43 -271.40
v 9051.12 38209.50 -271.40
v 9027.56 38179.65 -349.25
v 9027.56 38179.65 -271.40
v 9017.67 38181.85 -271.40
v 8749.47 37949.75 -374.91
v 8749.47 37949.75 -271.40
v 8750.54 37961.01 -271.40
v 6076.79 33729.79 -811.40
v 6537.36 33574.64 -774.55
v 6537.36 33574.64 -742.98
v 6076.79 33729.79 -742.98
v 6081.82 33719.65 -742.98
v 6527.22 33569.61 -742.98
v 6412.22 33203.14 -784.56
v 6412.22 33203.14 -742.98
v 6407.19 33213.28 -742.98
v 5951.64 33358.29 -821.41
v 5951.64 33358.29 -742.98
v 5961.78 33363.32 -742.98
v 7452.29 36674.59 -569.59
v 7718.96 36895.04 -530.62
v 7718.96 36895.04 -498.02
v 7452.29 36674.59 -498.02
v 7463.55 36673.52 -498.02
v 7717.89 36883.78 -498.02
v 7729.82 36881.90 -530.81
v 7729.82 36881.90 -498.02
v 7728.43 36871.03 -498.02
v 8065.57 36475.76 -536.44
v 8065.57 36475.76 -498.02
v 8054.31 36476.83 -498.02
v 7798.90 36255.31 -575.41
v 7798.90 36255.31 -498.02
v 7799.97 36266.57 -498.02
v 7484.07 36636.15 -570.13
v 7484.07 36636.15 -498.02
v 7494.39 36636.21 -498.02
v 4872.82 26702.29 -1120.40
v 5646.93 27527.57 -1118.36
v 5646.93 27527.57 -1072.50
v 4872.82 26702.29 -1072.50
v 4884.13 26702.65 -1072.50
v 5647.34 27516.31 -1072.50
v 5650.00 27530.84 -1118.22
v 5650.00 27530.84 -1072.50
v 5650.36 27519.53 -1072.50
v 5653.48 27527.57 -1118.62
v 5653.48 27527.57 -1072.50
v 5653.81 27516.30 -1072.50
v 5768.04 27420.12 -1127.50
v 5768.04 27420.12 -1072.50
v 5767.03 27410.10 -1072.50
v 5875.49 27319.33 -1127.50
v 5875.49 27319.33 -1072.50
v 5873.22 27310.48 -1072.50
v 6653.60 26589.46 -1158.62
v 6653.60 26589.46 -1072.50
v 6642.29 26589.10 -1072.50
v 5876.42 25760.91 -1127.54
v 5876.42 25760.91 -1072.50
v 5876.06 25772.22 -1072.50
v 5875.49 25761.79 -1127.50
v 5875.49 25761.79 -1072.50
v 5875.13 25773.09 -1072.50
v 4964.35 26616.43 -1127.50
v 4964.35 26616.43 -1072.50
v 4974.59 26617.79 -1072.50
v 2372.23 29574.48 -761.48
v 3002.96 29655.04 -827.50
v 3002.96 29655.04 -736.48
v 2372.23 29574.48 -736.48
v 2373.52 29566.58 -736.48
v 2999.30 29646.51 -736.48
v 3375.49 29702.62 -853.50
v 3375.49 29702.62 -736.48
v 3368.90 29693.72 -736.48
v 3417.80 29708.03 -854.76
v 3417.80 29708.03 -736.48
v 3410.88 29699.08 -736.48
v 3467.47 29319.19 -887.85
v 3467.47 29319.19 -736.48
v 3458.52 29326.11 -736.48
v 3375.49 29307.44 -885.11
v 3375.49 29307.44 -736.48
v 3367.26 29314.45 -736.48
v 2549.91 29201.99 -827.50
v 2549.91 29201.99 -736.48
v 2548.16 29209.83 -736.48
v 1919.18 29121.43 -761.48
v 1919.18 29121.43 -736.48
v 1922.39 29129.90 -736.48
v 3433.66 29694.40 -856.48
v 3483.13 29307.07 -889.45
v 3483.13 29307.07 -811.48
v 3433.66 29694.40 -811.48
v 3421.29 29680.69 -811.48
v 3467.47 29319.19 -811.48
v 3375.49 29293.33 -886.24
v 3375.49 29293.33 -811.48
v 3361.28 29305.63 -811.48
v 2949.02 29238.85 -856.48
v 2949.02 29238.85 -811.48
v 2940.60 29251.89 -811.48
v 3421.29 29680.69 -856.48
v 2940.60 29251.89 -856.48
v 6304.99 26027.54 -1144.68
v 6728.75 26479.32 -1161.63
v 6728.75 26479.32 -1119.68
v 6304.99 26027.54 -1119.68
v 6316.16 26027.76 -1119.68
v 6729.11 26468.01 -1119.68
v 7037.57 26189.65 -1173.98
v 7037.57 26189.65 -1119.68
v 7033.22 26182.76 -1119.68
v 7494.58 25760.98 -1227.69
v 7494.58 25760.98 -1119.68
v 7483.27 25760.62 -1119.68
v 7065.62 25303.67 -1211.67
v 7065.62 25303.67 -1119.68
v 7065.26 25314.98 -1119.68
v 6593.98 25746.06 -1156.24
v 6593.98 25746.06 -1119.68
v 6600.81 25750.63 -1119.68
v 6304.99 26017.14 -1144.68
v 6304.99 26017.14 -1119.68
v 6316.21 26017.57 -1119.68
v 2926.29 26863.67 -1018.12
v 3233.85 26903.99 -1041.11
v 3233.85 26903.99 -993.12
v 2926.29 26863.67 -993.12
v 2931.23 26856.25 -993.12
v 3226.96 26895.02 -993.12
v 3350.32 26015.60 -1085.97
v 3350.32 26015.60 -993.12
v 3341.35 26022.49 -993.12
v 2937.86 25961.52 -1055.13
v 2937.86 25961.52 -993.12
v 2944.75 25970.49 -993.12
v 2841.75 26694.60 -1018.12
v 2841.75 26694.60 -993.12
v 2850.36 26690.48 -993.12
v 4824.67 27590.88 -1080.40
v 5226.54 27806.38 -1079.24
v 5226.54 27806.38 -1045.09
v 4824.67 27590.88 -1045.09
v 4835.50 27587.61 -1045.09
v 5223.27 27795.55 -1045.09
v 5376.05 27527.57 -1107.52
v 5376.05 27527.57 -1045.09
v 5367.96 27525.73 -1045.09
v 5460.94 27369.27 -1117.25
v 5460.94 27369.27 -1045.09
v 5450.11 27372.54 -1045.09
v 5059.07 27153.77 -1109.80
v 5059.07 27153.77 -1045.09
v 5062.34 27164.60 -1045.09
v 4858.62 27527.57 -1086.83
v 4858.62 27527.57 -1045.09
v 4868.36 27526.34 -1045.09
v 7805.37 27559.52 -1202.14
v 7979.57 27745.24 -1194.25
v 7979.57 27745.24 -1169.25
v 7805.37 27559.52 -1169.25
v 7816.68 27559.88 -1169.25
v 7985.12 27739.46 -1169.25
v 8198.26 27854.58 -1194.25
v 8375.49 27688.35 -1214.64
v 8375.49 27688.35 -1169.25
v 8198.26 27854.58 -1169.25
v 8197.50 27844.34 -1169.25
v 8371.47 27681.15 -1169.25
v 8458.45 27610.53 -1227.50
v 8458.45 27610.53 -1169.25
v 8452.92 27604.75 -1169.25
v 8546.90 27527.57 -1248.07
v 8546.90 27527.57 -1169.25
v 8539.75 27523.31 -1169.25
v 8773.95 27314.60 -1283.83
v 8773.95 27314.60 -1169.25
v 8762.64 27314.24 -1169.25
v 8684.17 27218.89 -1276.89
v 8684.17 27218.89 -1169.25
v 8675.83 27221.69 -1169.25
v 8442.83 26961.59 -1258.22
v 8442.83 26961.59 -1169.25
v 8442.47 26972.90 -1169.25
v 8375.49 27024.76 -1247.61
v 8375.49 27024.76 -1169.25
v 8376.36 27034.91 -1169.25
v 8116.04 27268.12 -1217.12
v 8116.04 27268.12 -1169.25
v 8121.66 27273.82 -1169.25
v 7839.44 27527.57 -1206.06
v 7839.44 27527.57 -1169.25
v 7850.12 27528.51 -1169.25
v 5573.17 25683.29 -1127.50
v 5875.49 25722.93 -1127.50
v 5875.49 25722.93 -1076.19
v 5573.17 25683.29 -1076.19
v 5582.14 25676.40 -1076.19
v 5877.94 25715.18 -1076.19
v 6308.87 25779.75 -1144.84
v 6308.87 25779.75 -1076.19
v 6301.98 25770.78 -1076.19
v 6345.83 25497.91 -1146.31
v 6345.83 25497.91 -1076.19
v 6337.50 25499.88 -1076.19
v 6362.43 25371.25 -1152.71
v 6362.43 25371.25 -1076.19
v 6353.46 25378.14 -1076.19
v 6197.55 25349.63 -1140.38
v 6197.55 25349.63 -1076.19
v 6192.13 25356.99 -1076.19
v 5875.49 25307.40 -1127.50
v 5875.49 25307.40 -1076.19
v 5877.01 25315.67 -1076.19
v 5628.09 25274.97 -1127.50
v 5628.09 25274.97 -1076.19
v 5634.95 25283.93 -1076.19
v 5626.73 25274.79 -1127.50
v 5626.73 25274.79 -1076.19
v 5633.62 25283.76 -1076.19
v 5626.50 25276.56 -1127.50
v 5626.50 25276.56 -1076.19
v 5633.40 25285.46 -1076.19
v 4504.58 27215.35 -1085.15
v 4917.05 27269.42 -1099.49
v 4917.05 27269.42 -1046.65
v 4504.58 27215.35 -1046.65
v 4513.55 27208.46 -1046.65
v 4910.16 27260.45 -1046.65
v 4971.12 26856.96 -1118.15
v 4971.12 26856.96 -1046.65
v 4962.15 26863.85 -1046.65
v 4558.65 26802.88 -1103.81
v 4558.65 26802.88 -1046.65
v 4565.54 26811.85 -1046.65
vt -81.5860 -1.7205
vt -82.7427 -1.6743
vt -82.7427 -1.6118
vt -81.5860 -1.6118
vt -81.5465 -1.6118
vt -82.7034 -1.6118
vt -77.3556 -1.6743
vt -77.4715 -1.7015
vt -77.4715 -1.6118
vt -77.3556 -1.6118
vt -77.3914 -1.6118
vt -77.5069 -1.6118
vt -79.0376 -1.6993
vt -79.0376 -1.6118
vt -79.0682 -1.6118
vt -79.1302 -1.6992
vt -79.1302 -1.6118
vt -79.1605 -1.6118
vt -80.4464 -1.7500
vt -80.4464 -1.6118
vt -80.4727 -1.6118
vt -80.7032 -1.7558
vt -80.7032 -1.6118
vt -80.7239 -1.6118
vt -80.9857 -1.7445
vt -80.9857 -1.6118
vt -81.0002 -1.6118
vt -81.9470 -1.7061
vt -81.9470 -1.6118
vt -81.9077 -1.6118
vt -66.7958 -1.9109
vt -71.9013 -2.0296
vt -71.9013 -1.8030
vt -66.7958 -1.8030
vt -66.7877 -1.8030
vt -71.8786 -1.8030
vt -72.5914 -2.0457
vt -72.5914 -1.8030
vt -72.5667 -1.8030
vt -72.8802 -2.0360
vt -72.8802 -1.8030
vt -72.8548 -1.8030
vt -73.5851 -2.0124
vt -73.5851 -1.8030
vt -73.5576 -1.8030
vt -75.7330 -1.8655
vt -75.7330 -1.8030
vt -75.6994 -1.8030
vt -63.6859 -1.8655
vt -63.5616 -1.8825
vt -63.5616 -1.8030
vt -63.6859 -1.8030
vt -63.7112 -1.8030
vt -63.5890 -1.8030
vt -63.5177 -1.9423
vt -63.5177 -1.8030
vt -63.5467 -1.8030
vt -63.5162 -1.9431
vt -63.5162 -1.8030
vt -63.5452 -1.8030
vt -65.2461 -1.9100
vt -65.2461 -1.8030
vt -65.2715 -1.8030
vt -65.4327 -1.9146
vt -65.4327 -1.8030
vt -65.4567 -1.8030
vt -66.2846 -1.9356
vt -66.2846 -1.8030
vt -66.3027 -1.8030
vt -66.6302 -1.9054
vt -66.6302 -1.8030
vt -66.6306 -1.8030
vt -40.4578 -3.4941
vt -39.9876 -3.5159
vt -39.9876 -3.3552
vt -40.4578 -3.3552
vt -40.4539 -3.3552
vt -39.9929 -3.3552
vt -38.2193 -3.4674
vt -38.2193 -3.3552
vt -38.2589 -3.3552
vt -38.3456 -3.4501
vt -38.3456 -3.3552
vt -38.3850 -3.3552
vt -38.5830 -3.4177
vt -38.5830 -3.3552
vt -38.6218 -3.3552
vt -41.0482 -3.4177
vt -41.0482 -3.3552
vt -41.0430 -3.3552
vt -39.3259 -3.6395
vt -38.7274 -3.6671
vt -38.7274 -3.5008
vt -39.3259 -3.5008
vt -39.3227 -3.5008
vt -38.7358 -3.5008
vt -37.0903 -3.6216
vt -37.0903 -3.5008
vt -37.1302 -3.5008
vt -37.5260 -3.5633
vt -37.5260 -3.5008
vt -37.5535 -3.5008
vt -39.9274 -3.5633
vt -39.9274 -3.5008
vt -39.9059 -3.5008
vt -31.3107 -4.0993
vt -31.1314 -4.1393
vt -31.1314 -4.0368
vt -31.3107 -4.0368
vt -31.3018 -4.0368
vt -31.1264 -4.0368
vt -30.4325 -4.1794
vt -30.4325 -4.0368
vt -30.4727 -4.0368
vt -30.6061 -4.1417
vt -30.6061 -4.0368
vt -30.6462 -4.0368
vt -30.8008 -4.0993
vt -30.8008 -4.0368
vt -30.8409 -4.0368
vt -30.2611 -4.0993
vt -30.2148 -4.1018
vt -30.2148 -4.0368
vt -30.2611 -4.0368
vt -30.3010 -4.0368
vt -30.2548 -4.0368
vt -29.1302 -4.2014
vt -29.1302 -4.0368
vt -29.1701 -4.0368
vt -28.1863 -4.0993
vt -28.1863 -4.0368
vt -28.2263 -4.0368
vt 50.5967 -11.1492
vt 50.2673 -11.1429
vt 50.2673 -11.0103
vt 50.5967 -11.0103
vt 50.6135 -11.0103
vt 50.2866 -11.0103
vt 47.7410 -11.0942
vt 47.7410 -11.0103
vt 47.7797 -11.0103
vt 47.6240 -11.0919
vt 47.6240 -11.0103
vt 47.6635 -11.0103
vt 47.7538 -11.0728
vt 47.7538 -11.0103
vt 47.7928 -11.0103
vt 53.8702 -11.0728
vt 53.4570 -11.1505
vt 53.4570 -11.0103
vt 53.8702 -11.0103
vt 53.8624 -11.0103
vt 53.4510 -11.0103
vt 52.1198 -11.1784
vt 52.1198 -11.0103
vt 52.1245 -11.0103
vt -86.4805 -1.4527
vt -85.3802 -1.4817
vt -85.3802 -1.2895
vt -86.4805 -1.2895
vt -86.4417 -1.2895
vt -85.3562 -1.2895
vt -84.5613 -1.5360
vt -84.5613 -1.2895
vt -84.5483 -1.2895
vt -84.3058 -1.5529
vt -84.3058 -1.2895
vt -84.2962 -1.2895
vt -79.8462 -1.4453
vt -79.8462 -1.2895
vt -79.8851 -1.2895
vt -80.7677 -1.3843
vt -80.7677 -1.2895
vt -80.7941 -1.2895
vt -81.2536 -1.3520
vt -81.2536 -1.2895
vt -81.2735 -1.2895
vt -84.1307 -1.3520
vt -85.3802 -1.3822
vt -85.3802 -1.2895
vt -84.1307 -1.2895
vt -84.1174 -1.2895
vt -85.3533 -1.2895
vt -74.4761 -1.9384
vt -74.7933 -1.9897
vt -74.7933 -1.8759
vt -74.4761 -1.8759
vt -74.4496 -1.8759
vt -74.7620 -1.8759
vt -72.8802 -2.0322
vt -72.8802 -1.8759
vt -72.8698 -1.8759
vt -71.2314 -2.0688
vt -71.2314 -1.8759
vt -71.2391 -1.8759
vt -69.6343 -1.9978
vt -69.6343 -1.8759
vt -69.6593 -1.8759
vt -69.4148 -2.0688
vt -69.4148 -1.8759
vt -69.4431 -1.8759
vt -69.2193 -2.0372
vt -69.2193 -1.8759
vt -69.2505 -1.8759
vt -72.8802 -1.9559
vt -72.8802 -1.8759
vt -72.8715 -1.8759
vt -73.6664 -1.9384
vt -73.6664 -1.8759
vt -73.6491 -1.8759
vt -90.7723 -1.5688
vt -88.9246 -1.5688
vt -88.9246 -1.4312
vt -90.7723 -1.4312
vt -90.7335 -1.4312
vt -88.9088 -1.4312
vt -88.4260 -1.5688
vt -88.4260 -1.4312
vt -88.4164 -1.4312
vt -85.3802 -1.5688
vt -85.3802 -1.4312
vt -85.4027 -1.4312
vt -83.8242 -1.6310
vt -83.8242 -1.4312
vt -83.8630 -1.4312
vt -83.8845 -1.6286
vt -83.8845 -1.4312
vt -83.9226 -1.4312
vt -84.7866 -1.5688
vt -84.7866 -1.4312
vt -84.8134 -1.4312
vt -85.0099 -1.5540
vt -85.0099 -1.4312
vt -85.0340 -1.4312
vt -85.3802 -1.5294
vt -85.3802 -1.4312
vt -85.3997 -1.4312
vt -86.1705 -1.5086
vt -86.1705 -1.4312
vt -86.1802 -1.4312
vt -87.1089 -1.5688
vt -87.1089 -1.4312
vt -87.1086 -1.4312
vt -89.9751 -1.5688
vt -89.9751 -1.4312
vt -89.9446 -1.4312
vt -84.1193 -1.5527
vt -83.9720 -1.5688
vt -83.9720 -1.4544
vt -84.1193 -1.4544
vt -84.0830 -1.4544
vt -83.9376 -1.4544
vt -83.1582 -1.6576
vt -83.1582 -1.4544
vt -83.1338 -1.4544
vt -82.5568 -1.6817
vt -82.5568 -1.4544
vt -82.5400 -1.4544
vt -81.7953 -1.7122
vt -81.7953 -1.4544
vt -81.7848 -1.4544
vt -79.1302 -1.6731
vt -79.1302 -1.4544
vt -79.1423 -1.4544
vt -76.2624 -1.7458
vt -76.2624 -1.4544
vt -76.2986 -1.4544
vt -76.8332 -1.6606
vt -76.8332 -1.4544
vt -76.8624 -1.4544
vt -77.7966 -1.5169
vt -77.7966 -1.4544
vt -77.8138 -1.4544
vt -81.6765 -1.5169
vt -81.6765 -1.4544
vt -81.6608 -1.4544
vt -77.4233 -1.8162
vt -74.9454 -1.9830
vt -74.9454 -1.7537
vt -77.4233 -1.7537
vt -77.4098 -1.7537
vt -74.9817 -1.7537
vt -75.0347 -1.9826
vt -75.0347 -1.7537
vt -75.0693 -1.7537
vt -76.0081 -1.9100
vt -76.0081 -1.7537
vt -76.0250 -1.7537
vt -77.2409 -1.8943
vt -77.2409 -1.7537
vt -77.2330 -1.7537
vt -78.4009 -1.8162
vt -78.4009 -1.7537
vt -78.3696 -1.7537
vt -77.3523 -1.1051
vt -75.9350 -1.3131
vt -75.9350 -1.0426
vt -77.3523 -1.0426
vt -77.3710 -1.0426
vt -75.9662 -1.0426
vt -74.9414 -1.3839
vt -74.9414 -1.0426
vt -74.9813 -1.0426
vt -76.4833 -1.5225
vt -76.4833 -1.0426
vt -76.4857 -1.0426
vt -77.5778 -1.4446
vt -77.5778 -1.0426
vt -77.5705 -1.0426
vt -79.1302 -1.2167
vt -79.1302 -1.0426
vt -79.1092 -1.0426
vt -79.8903 -1.1051
vt -79.8903 -1.0426
vt -79.8626 -1.0426
vt -75.4470 -1.3426
vt -74.8715 -1.3835
vt -74.8715 -1.2301
vt -75.4470 -1.2301
vt -75.5082 -1.2301
vt -74.9414 -1.2301
vt -75.6673 -1.4551
vt -75.6673 -1.2301
vt -75.7045 -1.2301
vt -76.4793 -1.5281
vt -76.4793 -1.3426
vt -75.6673 -1.3426
vt -75.7045 -1.3426
vt -76.4833 -1.3426
vt -77.5045 -1.4551
vt -77.5045 -1.3426
vt -77.4930 -1.3426
vt -77.6128 -1.4474
vt -77.6128 -1.2301
vt -77.5045 -1.2301
vt -77.4930 -1.2301
vt -77.5997 -1.2301
vt -78.3266 -1.3426
vt -78.3266 -1.2301
vt -78.3026 -1.2301
vt -75.5082 -1.3426
vt -78.3026 -1.3426
vt -87.5400 -1.5688
vt -87.0633 -1.5688
vt -87.0633 -1.4335
vt -87.5400 -1.4335
vt -87.5037 -1.4335
vt -87.0465 -1.4335
vt -85.3802 -1.5688
vt -85.3802 -1.4335
vt -85.3860 -1.4335
vt -83.1094 -1.6596
vt -83.1094 -1.4335
vt -83.1457 -1.4335
vt -83.5861 -1.6405
vt -83.5861 -1.4335
vt -83.6029 -1.4335
vt -85.3802 -1.5688
vt -85.3802 -1.4335
vt -85.3730 -1.4335
vt -76.0965 -1.8567
vt -73.4965 -2.0318
vt -73.4965 -1.7942
vt -76.0965 -1.7942
vt -76.0912 -1.7942
vt -73.5256 -1.7942
vt -73.0454 -2.0621
vt -73.0454 -1.7942
vt -73.0806 -1.7942
vt -72.9608 -2.0632
vt -72.9608 -1.7942
vt -72.9971 -1.7942
vt -73.5421 -2.0198
vt -73.5421 -1.7942
vt -73.5589 -1.7942
vt -74.3627 -2.0094
vt -74.3627 -1.7942
vt -74.3686 -1.7942
vt -76.6312 -1.8567
vt -76.6312 -1.7942
vt -76.6069 -1.7942
vt -94.3525 -0.9153
vt -93.9783 -0.8939
vt -93.9783 -0.8314
vt -94.3525 -0.8314
vt -94.3138 -0.8314
vt -93.9498 -0.8314
vt -93.0014 -0.8939
vt -91.9859 -1.0225
vt -91.9859 -0.8314
vt -93.0014 -0.8314
vt -93.0024 -0.8314
vt -92.0246 -0.8314
vt -92.1154 -1.0299
vt -92.1154 -0.8314
vt -92.1506 -0.8314
vt -93.0330 -1.0824
vt -93.0330 -0.8314
vt -93.0432 -0.8314
vt -86.3003 -0.9442
vt -85.6593 -1.0464
vt -85.6593 -0.8817
vt -86.3003 -0.8817
vt -86.3085 -0.8817
vt -85.6836 -0.8817
vt -85.3802 -1.0909
vt -85.3802 -0.8817
vt -85.4115 -0.8817
vt -85.0296 -1.1468
vt -85.0296 -0.8817
vt -85.0696 -0.8817
vt -85.3802 -1.1470
vt -85.3802 -0.8817
vt -85.4097 -0.8817
vt -86.3653 -1.1475
vt -86.3653 -0.8817
vt -86.3654 -0.8817
vt -87.6403 -0.9442
vt -87.6403 -0.8817
vt -87.6085 -0.8817
vt -82.8068 -0.9610
vt -82.7045 -0.9513
vt -82.7045 -0.8888
vt -82.8068 -0.8888
vt -82.7668 -0.8888
vt -82.6685 -0.8888
vt -81.2634 -0.9513
vt -80.3077 -1.0916
vt -80.3077 -0.8888
vt -81.2634 -0.8888
vt -81.2768 -0.8888
vt -80.3477 -0.8888
vt -81.2856 -1.1843
vt -81.2856 -0.8888
vt -81.2879 -0.8888
vt -81.2386 -1.1888
vt -81.2815 -1.1928
vt -81.2815 -1.0763
vt -81.2386 -1.0763
vt -81.2454 -1.0763
vt -81.2856 -1.0763
vt -81.3092 -1.1888
vt -81.3092 -1.0763
vt -81.3120 -1.0763
vt -81.2454 -1.1888
vt -81.3120 -1.1888
vt -82.4584 -0.7153
vt -82.2384 -0.6944
vt -82.2384 -0.5786
vt -82.4584 -0.5786
vt -82.4185 -0.5786
vt -82.2037 -0.5786
vt -81.6767 -0.6411
vt -81.6767 -0.5786
vt -81.6553 -0.5786
vt -80.3558 -0.6411
vt -79.8389 -0.7170
vt -79.8389 -0.5786
vt -80.3558 -0.5786
vt -80.3747 -0.5786
vt -79.8788 -0.5786
vt -80.3831 -0.7686
vt -80.3831 -0.5786
vt -80.4101 -0.5786
vt -81.4232 -0.8673
vt -81.4232 -0.5786
vt -81.4255 -0.5786
vt -70.9167 -1.4816
vt -70.2061 -1.4141
vt -70.2061 -1.3516
vt -70.9167 -1.3516
vt -70.8768 -1.3516
vt -70.1936 -1.3516
vt -69.6360 -1.4141
vt -68.4115 -1.4965
vt -68.4115 -1.3516
vt -69.6360 -1.3516
vt -69.6418 -1.3516
vt -68.4513 -1.3516
vt -69.1714 -1.5688
vt -69.1714 -1.3516
vt -69.1820 -1.3516
vt -69.3583 -1.5865
vt -69.3583 -1.3516
vt -69.3617 -1.3516
vt -69.6224 -1.5688
vt -69.6224 -1.3516
vt -69.6185 -1.3516
vt -82.8854 -0.9849
vt -81.7664 -1.1542
vt -81.7664 -0.9224
vt -82.8854 -0.9224
vt -82.8892 -0.9224
vt -81.8063 -0.9224
vt -82.7442 -1.1638
vt -82.7442 -0.9224
vt -82.7465 -0.9224
vt -83.9272 -0.9849
vt -83.9272 -0.9224
vt -83.8913 -0.9224
vt -74.6127 -0.7669
vt -74.5641 -0.7410
vt -74.5641 -0.6785
vt -74.6127 -0.6785
vt -74.5819 -0.6785
vt -74.5352 -0.6785
vt -74.0392 -0.7410
vt -72.8802 -0.8635
vt -72.8802 -0.6785
vt -74.0392 -0.6785
vt -74.0290 -0.6785
vt -72.9105 -0.6785
vt -72.8651 -0.8633
vt -72.8651 -0.6785
vt -72.8959 -0.6785
vt -72.8802 -0.8731
vt -72.8802 -0.6785
vt -72.9104 -0.6785
vt -73.0007 -0.9373
vt -73.0007 -0.6785
vt -73.0262 -0.6785
vt -69.1325 -2.0285
vt -67.5932 -1.9364
vt -67.5932 -1.8575
vt -69.1325 -1.8575
vt -69.0946 -1.8575
vt -67.6060 -1.8575
vt -66.9773 -1.9614
vt -66.9773 -1.8575
vt -67.0152 -1.8575
vt -68.5166 -2.0535
vt -68.5166 -1.8575
vt -68.5038 -1.8575
vt -73.0557 -1.4240
vt -72.9402 -1.3266
vt -72.9402 -1.2450
vt -73.0557 -1.2450
vt -73.0249 -1.2450
vt -72.9147 -1.2450
vt -72.8802 -1.3270
vt -72.8802 -1.2450
vt -72.8565 -1.2450
vt -71.0255 -1.3411
vt -71.0255 -1.2450
vt -71.0563 -1.2450
vt -71.1410 -1.4385
vt -71.1410 -1.2450
vt -71.1665 -1.2450
vt -72.8802 -1.4253
vt -72.8802 -1.2450
vt -72.8546 -1.2450
vt -54.5737 -2.8010
vt -54.7016 -2.7959
vt -54.7016 -2.6812
vt -54.5737 -2.6812
vt -54.5463 -2.6812
vt -54.6724 -2.6812
vt -54.7021 -2.7955
vt -54.7021 -2.6812
vt -54.6729 -2.6812
vt -54.6852 -2.7965
vt -54.6852 -2.6812
vt -54.6562 -2.6812
vt -54.1302 -2.8188
vt -54.1302 -2.6812
vt -54.1077 -2.6812
vt -53.6096 -2.8188
vt -53.6096 -2.6812
vt -53.5931 -2.6812
vt -49.8396 -2.8965
vt -49.8396 -2.6812
vt -49.8670 -2.6812
vt -49.7112 -2.8188
vt -49.7112 -2.6812
vt -49.7404 -2.6812
vt -49.7158 -2.8188
vt -49.7158 -2.6812
vt -49.7449 -2.6812
vt -54.1302 -2.8188
vt -54.1302 -2.6812
vt -54.1080 -2.6812
vt -68.0056 -1.9037
vt -66.6302 -2.0688
vt -66.6302 -1.8412
vt -68.0056 -1.8412
vt -67.9827 -1.8412
vt -66.6180 -1.8412
vt -65.8178 -2.1338
vt -65.8178 -1.8412
vt -65.8120 -1.8412
vt -65.7256 -2.1369
vt -65.7256 -1.8412
vt -65.7205 -1.8412
vt -64.6293 -2.2196
vt -64.6293 -1.8412
vt -64.6690 -1.8412
vt -64.8299 -2.2128
vt -64.8299 -1.8412
vt -64.8680 -1.8412
vt -66.6302 -2.0688
vt -66.6302 -1.8412
vt -66.6542 -1.8412
vt -68.0056 -1.9037
vt -68.0056 -1.8412
vt -68.0188 -1.8412
vt -65.6519 -2.1412
vt -64.5598 -2.2236
vt -64.5598 -2.0287
vt -65.6519 -2.0287
vt -65.6485 -2.0287
vt -64.6293 -2.0287
vt -64.7946 -2.2156
vt -64.7946 -2.0287
vt -64.8609 -2.0287
vt -65.7246 -2.1412
vt -65.7246 -2.0287
vt -65.7782 -2.0287
vt -65.6485 -2.1412
vt -65.7782 -2.1412
vt -49.3064 -2.8617
vt -49.3764 -2.9041
vt -49.3764 -2.7992
vt -49.3064 -2.7992
vt -49.2790 -2.7992
vt -49.3472 -2.7992
vt -47.8802 -2.9350
vt -47.8802 -2.7992
vt -47.8738 -2.7992
vt -45.6660 -3.0692
vt -45.6660 -2.7992
vt -45.6934 -2.7992
vt -45.5951 -3.0292
vt -45.5951 -2.7992
vt -45.6243 -2.7992
vt -47.8802 -2.8906
vt -47.8802 -2.7992
vt -47.8745 -2.7992
vt -49.2804 -2.8617
vt -49.2804 -2.7992
vt -49.2534 -2.7992
vt -59.8434 -2.5453
vt -59.1754 -2.6028
vt -59.1754 -2.4828
vt -59.8434 -2.4828
vt -59.8126 -2.4828
vt -59.1702 -2.4828
vt -56.6632 -2.7149
vt -56.6632 -2.4828
vt -56.7029 -2.4828
vt -57.5592 -2.6378
vt -57.5592 -2.4828
vt -57.5644 -2.4828
vt -59.6321 -2.5453
vt -59.6321 -2.4828
vt -59.6003 -2.4828
vt -56.9155 -2.7010
vt -56.4496 -2.6981
vt -56.4496 -2.6127
vt -56.9155 -2.6127
vt -56.8803 -2.6127
vt -56.4307 -2.6127
vt -55.3788 -2.7688
vt -55.3788 -2.6127
vt -55.3944 -2.6127
vt -54.7708 -2.7931
vt -54.7708 -2.6127
vt -54.8061 -2.6127
vt -55.2368 -2.7745
vt -55.2368 -2.6127
vt -55.2556 -2.6127
vt -56.6724 -2.7171
vt -56.6724 -2.6127
vt -56.6450 -2.6127
vt -49.3854 -3.0054
vt -49.4142 -2.9856
vt -49.4142 -2.9231
vt -49.3854 -2.9231
vt -49.3580 -2.9231
vt -49.3858 -2.9231
vt -49.1408 -2.9856
vt -48.2822 -3.0366
vt -48.2822 -2.9231
vt -49.1408 -2.9231
vt -49.1171 -2.9231
vt -48.2742 -2.9231
vt -47.8802 -3.0688
vt -47.8802 -2.9231
vt -47.8796 -2.9231
vt -47.4517 -3.1202
vt -47.4517 -2.9231
vt -47.4589 -2.9231
vt -46.3516 -3.2096
vt -46.3516 -2.9231
vt -46.3790 -2.9231
vt -46.3368 -3.1922
vt -46.3368 -2.9231
vt -46.3647 -2.9231
vt -46.2969 -3.1456
vt -46.2969 -2.9231
vt -46.3261 -2.9231
vt -46.6232 -3.1190
vt -46.6232 -2.9231
vt -46.6464 -2.9231
vt -47.8802 -3.0428
vt -47.8802 -2.9231
vt -47.8804 -2.9231
vt -49.2203 -3.0151
vt -49.2203 -2.9231
vt -49.1960 -2.9231
vt -50.2753 -2.8188
vt -49.6186 -2.8188
vt -49.6186 -2.6905
vt -50.2753 -2.6905
vt -50.2357 -2.6905
vt -49.5931 -2.6905
vt -48.6772 -2.8621
vt -48.6772 -2.6905
vt -48.6720 -2.6905
vt -47.8802 -2.8658
vt -47.8802 -2.6905
vt -47.9060 -2.6905
vt -47.5221 -2.8818
vt -47.5221 -2.6905
vt -47.5617 -2.6905
vt -47.8802 -2.8510
vt -47.8802 -2.6905
vt -47.9122 -2.6905
vt -48.5798 -2.8188
vt -48.5798 -2.6905
vt -48.5966 -2.6905
vt -49.1172 -2.8188
vt -49.1172 -2.6905
vt -49.1225 -2.6905
vt -49.1202 -2.8188
vt -49.1202 -2.6905
vt -49.1253 -2.6905
vt -49.1252 -2.8188
vt -49.1252 -2.6905
vt -49.1301 -2.6905
vt -56.7769 -2.7129
vt -55.8809 -2.7487
vt -55.8809 -2.6166
vt -56.7769 -2.6166
vt -56.7373 -2.6166
vt -55.8757 -2.6166
vt -54.7146 -2.7954
vt -54.7146 -2.6166
vt -54.7542 -2.6166
vt -55.6106 -2.7595
vt -55.6106 -2.6166
vt -55.6158 -2.6166
vn -0.9037 -0.4282 0.0000
vn 0.0000 -0.0000 1.0000
vn 0.4410 -0.8975 0.0000
vn 0.3392 -0.9407 0.0000
vn -0.9112 -0.4119 0.0000
vn -0.3169 0.9485 0.0000
vn -0.9253 -0.3792 0.0000
vn 0.9979 -0.0652 0.0000
vn 0.7665 -0.6423 0.0000
vn 0.2025 -0.9793 0.0000
vn 0.4081 -0.9129 0.0000
vn -0.8214 -0.5703 0.0000
vn 0.9964 0.0850 0.0000
vn 0.0928 -0.9957 0.0000
vn -0.1038 0.9946 0.0000
vn 0.9966 0.0824 0.0000
vn 0.0798 -0.9968 0.0000
vn -0.0774 0.9970 0.0000
vn -0.1263 0.9920 0.0000
vn 0.9926 0.1214 0.0000
vn 0.0991 -0.9951 0.0000
vn 0.9941 0.1083 0.0000
vn -0.9891 -0.1474 0.0000
vn -0.1468 0.9892 0.0000
vn 0.1472 -0.9891 0.0000
vn -0.9889 -0.1483 0.0000
vn -0.2403 0.9707 0.0000
vn 0.9707 0.2403 0.0000
vn 0.2403 -0.9707 0.0000
vn -0.9707 -0.2403 0.0000
vn -0.7803 0.6254 0.0000
vn 0.6254 0.7803 0.0000
vn 0.7803 -0.6254 0.0000
vn -0.6254 -0.7803 0.0000
vn -0.4208 0.9072 0.0000
vn 0.9072 0.4208 0.0000
vn 0.4208 -0.9072 0.0000
vn -0.9072 -0.4208 0.0000
vn 0.9983 0.0581 0.0000
vn 0.0581 -0.9983 0.0000
vn -0.9983 -0.0581 0.0000
vn 0.5597 0.8287 0.0000
vn -0.9977 -0.0682 0.0000
vn 0.5505 -0.8348 0.0000
vn -0.2907 0.9568 0.0000
vn -0.2547 0.9670 0.0000
vn 0.9670 0.2547 0.0000
vn 0.2547 -0.9670 0.0000
vn -0.9670 -0.2547 0.0000
vn 1.0000 0.0032 0.0000
vn 0.0032 -1.0000 0.0000
vn -1.0000 -0.0032 0.0000
vn -0.0581 0.9983 0.0000
vn 0.7748 -0.6322 0.0000
vn -0.7351 0.6779 0.0000
vn -0.0859 0.9963 0.0000
vn 0.9963 0.0859 0.0000
vn 0.0859 -0.9963 0.0000
vn -0.9963 -0.0859 0.0000
vn -0.6372 0.7707 0.0000
vn 0.7707 0.6371 0.0000
vn 0.6372 -0.7707 0.0000
vn -0.7707 -0.6372 0.0000
vn 0.3192 0.9477 0.0000
vn 0.9477 -0.3192 0.0000
vn -0.3192 -0.9477 0.0000
vn -0.9477 0.3193 0.0000
vn 0.7707 0.6372 0.0000
vn -0.7294 0.6841 0.0000
vn 0.6841 0.7294 0.0000
vn 0.7294 -0.6841 0.0000
vn -0.6841 -0.7294 0.0000
vn -0.1267 0.9919 0.0000
vn 0.9919 0.1267 0.0000
vn 0.1267 -0.9919 0.0000
vn -0.7426 0.6697 0.0000
vn -0.8401 -0.5424 0.0000
vn -0.1300 0.9915 0.0000
vn 0.9915 0.1300 0.0000
vn 0.1300 -0.9915 0.0000
vn -0.9915 -0.1300 0.0000
vn -0.4726 0.8813 0.0000
vn 0.8813 0.4726 0.0000
vn 0.4726 -0.8813 0.0000
vn -0.8813 -0.4726 0.0000
f 1/1/1 3/3/1 2/2/1
f 1/1/1 4/4/1 3/3/1
f 5/5/2 6/6/2 3/3/2
f 5/5/2 3/3/2 4/4/2
f 7/7/3 9/9/3 8/8/3
f 7/7/3 10/10/3 9/9/3
f 11/11/2 12/12/2 9/9/2
f 11/11/2 9/9/2 10/10/2
f 8/8/3 14/14/3 13/13/3
f 8/8/3 9/9/3 14/14/3
f 12/12/2 15/15/2 14/14/2
f 12/12/2 14/14/2 9/9/2
f 13/13/3 17/17/3 16/16/3
f 13/13/3 14/14/3 17/17/3
f 15/15/2 18/18/2 17/17/2
f 15/15/2 17/17/2 14/14/2
f 16/16/3 20/20/3 19/19/3
f 16/16/3 17/17/3 20/20/3
f 18/18/2 21/21/2 20/20/2
f 18/18/2 20/20/2 17/17/2
f 19/19/4 23/23/4 22/22/4
f 19/19/4 20/20/4 23/23/4
f 21/21/2 24/24/2 23/23/2
f 21/21/2 23/23/2 20/20/2
f 22/22/4 26/26/4 25/25/4
f 22/22/4 23/23/4 26/26/4
f 24/24/2 27/27/2 26/26/2
f 24/24/2 26/26/2 23/23/2
f 25/25/5 29/29/5 28/28/5
f 25/25/5 26/26/5 29/29/5
f 27/27/2 30/30/2 29/29/2
f 27/27/2 29/29/2 26/26/2
f 28/28/6 4/4/6 1/1/6
f 28/28/6 29/29/6 4/4/6
f 30/30/2 5/5/2 4/4/2
f 30/30/2 4/4/2 29/29/2
f 31/31/7 33/33/7 32/32/7
f 31/31/7 34/34/7 33/33/7
f 35/35/2 36/36/2 33/33/2
f 35/35/2 33/33/2 34/34/2
f 32/32/7 38/38/7 37/37/7
f 32/32/7 33/33/7 38/38/7
f 36/36/2 39/39/2 38/38/2
f 36/36/2 38/38/2 33/33/2
f 37/37/7 41/41/7 40/40/7
f 37/37/7 38/38/7 41/41/7
f 39/39/2 42/42/2 41/41/2
f 39/39/2 41/41/2 38/38/2
f 40/40/7 44/44/7 43/43/7
f 40/40/7 41/41/7 44/44/7
f 42/42/2 45/45/2 44/44/2
f 42/42/2 44/44/2 41/41/2
f 43/43/7 47/47/7 46/46/7
f 43/43/7 44/44/7 47/47/7
f 45/45/2 48/48/2 47/47/2
f 45/45/2 47/47/2 44/44/2
f 49/49/8 51/51/8 50/50/8
f 49/49/8 52/52/8 51/51/8
f 53/53/2 54/54/2 51/51/2
f 53/53/2 51/51/2 52/52/2
f 50/50/9 56/56/9 55/55/9
f 50/50/9 51/51/9 56/56/9
f 54/54/2 57/57/2 56/56/2
f 54/54/2 56/56/2 51/51/2
f 55/55/9 59/59/9 58/58/9
f 55/55/9 56/56/9 59/59/9
f 57/57/2 60/60/2 59/59/2
f 57/57/2 59/59/2 56/56/2
f 58/58/10 62/62/10 61/61/10
f 58/58/10 59/59/10 62/62/10
f 60/60/2 63/63/2 62/62/2
f 60/60/2 62/62/2 59/59/2
f 61/61/11 65/65/11 64/64/11
f 61/61/11 62/62/11 65/65/11
f 63/63/2 66/66/2 65/65/2
f 63/63/2 65/65/2 62/62/2
f 64/64/11 68/68/11 67/67/11
f 64/64/11 65/65/11 68/68/11
f 66/66/2 69/69/2 68/68/2
f 66/66/2 68/68/2 65/65/2
f 67/67/12 71/71/12 70/70/12
f 67/67/12 68/68/12 71/71/12
f 69/69/2 72/72/2 71/71/2
f 69/69/2 71/71/2 68/68/2
f 70/70/12 34/34/12 31/31/12
f 70/70/12 71/71/12 34/34/12
f 72/72/2 35/35/2 34/34/2
f 72/72/2 34/34/2 71/71/2
f 73/73/13 75/75/13 74/74/13
f 73/73/13 76/76/13 75/75/13
f 77/77/2 78/78/2 75/75/2
f 77/77/2 75/75/2 76/76/2
f 74/74/13 80/80/13 79/79/13
f 74/74/13 75/75/13 80/80/13
f 78/78/2 81/81/2 80/80/2
f 78/78/2 80/80/2 75/75/2
f 79/79/14 83/83/14 82/82/14
f 79/79/14 80/80/14 83/83/14
f 81/81/2 84/84/2 83/83/2
f 81/81/2 83/83/2 80/80/2
f 82/82/14 86/86/14 85/85/14
f 82/82/14 83/83/14 86/86/14
f 84/84/2 87/87/2 86/86/2
f 84/84/2 86/86/2 83/83/2
f 88/88/15 76/76/15 73/73/15
f 88/88/15 89/89/15 76/76/15
f 90/90/2 77/77/2 76/76/2
f 90/90/2 76/76/2 89/89/2
f 91/91/16 93/93/16 92/92/16
f 91/91/16 94/94/16 93/93/16
f 95/95/2 96/96/2 93/93/2
f 95/95/2 93/93/2 94/94/2
f 92/92/16 98/98/16 97/97/16
f 92/92/16 93/93/16 98/98/16
f 96/96/2 99/99/2 98/98/2
f 96/96/2 98/98/2 93/93/2
f 97/97/17 101/101/17 100/100/17
f 97/97/17 98/98/17 101/101/17
f 99/99/2 102/102/2 101/101/2
f 99/99/2 101/101/2 98/98/2
f 103/103/18 94/94/18 91/91/18
f 103/103/18 104/104/18 94/94/18
f 105/105/2 95/95/2 94/94/2
f 105/105/2 94/94/2 104/104/2
f 106/106/19 108/108/19 107/107/19
f 106/106/19 109/109/19 108/108/19
f 110/110/2 111/111/2 108/108/2
f 110/110/2 108/108/2 109/109/2
f 107/107/20 113/113/20 112/112/20
f 107/107/20 108/108/20 113/113/20
f 111/111/2 114/114/2 113/113/2
f 111/111/2 113/113/2 108/108/2
f 112/112/21 116/116/21 115/115/21
f 112/112/21 113/113/21 116/116/21
f 114/114/2 117/117/2 116/116/2
f 114/114/2 116/116/2 113/113/2
f 115/115/21 119/119/21 118/118/21
f 115/115/21 116/116/21 119/119/21
f 117/117/2 120/120/2 119/119/2
f 117/117/2 119/119/2 116/116/2
f 121/121/22 123/123/22 122/122/22
f 121/121/22 124/124/22 123/123/22
f 125/125/2 126/126/2 123/123/2
f 125/125/2 123/123/2 124/124/2
f 122/122/22 128/128/22 127/127/22
f 122/122/22 123/123/22 128/128/22
f 126/126/2 129/129/2 128/128/2
f 126/126/2 128/128/2 123/123/2
f 127/127/22 131/131/22 130/130/22
f 127/127/22 128/128/22 131/131/22
f 129/129/2 132/132/2 131/131/2
f 129/129/2 131/131/2 128/128/2
f 133/133/23 135/135/23 134/134/23
f 133/133/23 136/136/23 135/135/23
f 137/137/2 138/138/2 135/135/2
f 137/137/2 135/135/2 136/136/2
f 134/134/23 140/140/23 139/139/23
f 134/134/23 135/135/23 140/140/23
f 138/138/2 141/141/2 140/140/2
f 138/138/2 140/140/2 135/135/2
f 139/139/23 143/143/23 142/142/23
f 139/139/23 140/140/23 143/143/23
f 141/141/2 144/144/2 143/143/2
f 141/141/2 143/143/2 140/140/2
f 142/142/24 146/146/24 145/145/24
f 142/142/24 143/143/24 146/146/24
f 144/144/2 147/147/2 146/146/2
f 144/144/2 146/146/2 143/143/2
f 148/148/25 150/150/25 149/149/25
f 148/148/25 151/151/25 150/150/25
f 152/152/2 153/153/2 150/150/2
f 152/152/2 150/150/2 151/151/2
f 149/149/26 155/155/26 154/154/26
f 149/149/26 150/150/26 155/155/26
f 153/153/2 156/156/2 155/155/2
f 153/153/2 155/155/2 150/150/2
f 154/154/26 136/136/26 133/133/26
f 154/154/26 155/155/26 136/136/26
f 156/156/2 137/137/2 136/136/2
f 156/156/2 136/136/2 155/155/2
f 157/157/27 159/159/27 158/158/27
f 157/157/27 160/160/27 159/159/27
f 161/161/2 162/162/2 159/159/2
f 161/161/2 159/159/2 160/160/2
f 158/158/27 164/164/27 163/163/27
f 158/158/27 159/159/27 164/164/27
f 162/162/2 165/165/2 164/164/2
f 162/162/2 164/164/2 159/159/2
f 163/163/27 167/167/27 166/166/27
f 163/163/27 164/164/27 167/167/27
f 165/165/2 168/168/2 167/167/2
f 165/165/2 167/167/2 164/164/2
f 166/166/28 170/170/28 169/169/28
f 166/166/28 167/167/28 170/170/28
f 168/168/2 171/171/2 170/170/2
f 168/168/2 170/170/2 167/167/2
f 169/169/29 173/173/29 172/172/29
f 169/169/29 170/170/29 173/173/29
f 171/171/2 174/174/2 173/173/2
f 171/171/2 173/173/2 170/170/2
f 172/172/29 176/176/29 175/175/29
f 172/172/29 173/173/29 176/176/29
f 174/174/2 177/177/2 176/176/2
f 174/174/2 176/176/2 173/173/2
f 178/178/30 180/180/30 179/179/30
f 178/178/30 181/181/30 180/180/30
f 182/182/2 183/183/2 180/180/2
f 182/182/2 180/180/2 181/181/2
f 179/179/30 160/160/30 157/157/30
f 179/179/30 180/180/30 160/160/30
f 183/183/2 161/161/2 160/160/2
f 183/183/2 160/160/2 180/180/2
f 184/184/31 186/186/31 185/185/31
f 184/184/31 187/187/31 186/186/31
f 188/188/2 189/189/2 186/186/2
f 188/188/2 186/186/2 187/187/2
f 185/185/32 191/191/32 190/190/32
f 185/185/32 186/186/32 191/191/32
f 189/189/2 192/192/2 191/191/2
f 189/189/2 191/191/2 186/186/2
f 190/190/32 194/194/32 193/193/32
f 190/190/32 191/191/32 194/194/32
f 192/192/2 195/195/2 194/194/2
f 192/192/2 194/194/2 191/191/2
f 193/193/32 197/197/32 196/196/32
f 193/193/32 194/194/32 197/197/32
f 195/195/2 198/198/2 197/197/2
f 195/195/2 197/197/2 194/194/2
f 196/196/33 200/200/33 199/199/33
f 196/196/33 197/197/33 200/200/33
f 198/198/2 201/201/2 200/200/2
f 198/198/2 200/200/2 197/197/2
f 199/199/33 203/203/33 202/202/33
f 199/199/33 200/200/33 203/203/33
f 201/201/2 204/204/2 203/203/2
f 201/201/2 203/203/2 200/200/2
f 202/202/34 206/206/34 205/205/34
f 202/202/34 203/203/34 206/206/34
f 204/204/2 207/207/2 206/206/2
f 204/204/2 206/206/2 203/203/2
f 205/205/34 209/209/34 208/208/34
f 205/205/34 206/206/34 209/209/34
f 207/207/2 210/210/2 209/209/2
f 207/207/2 209/209/2 206/206/2
f 211/211/27 213/213/27 212/212/27
f 211/211/27 214/214/27 213/213/27
f 215/215/2 216/216/2 213/213/2
f 215/215/2 213/213/2 214/214/2
f 212/212/27 218/218/27 217/217/27
f 212/212/27 213/213/27 218/218/27
f 216/216/2 219/219/2 218/218/2
f 216/216/2 218/218/2 213/213/2
f 217/217/28 221/221/28 220/220/28
f 217/217/28 218/218/28 221/221/28
f 219/219/2 222/222/2 221/221/2
f 219/219/2 221/221/2 218/218/2
f 220/220/28 224/224/28 223/223/28
f 220/220/28 221/221/28 224/224/28
f 222/222/2 225/225/2 224/224/2
f 222/222/2 224/224/2 221/221/2
f 223/223/29 227/227/29 226/226/29
f 223/223/29 224/224/29 227/227/29
f 225/225/2 228/228/2 227/227/2
f 225/225/2 227/227/2 224/224/2
f 226/226/29 230/230/29 229/229/29
f 226/226/29 227/227/29 230/230/29
f 228/228/2 231/231/2 230/230/2
f 228/228/2 230/230/2 227/227/2
f 229/229/29 233/233/29 232/232/29
f 229/229/29 230/230/29 233/233/29
f 231/231/2 234/234/2 233/233/2
f 231/231/2 233/233/2 230/230/2
f 232/232/29 236/236/29 235/235/29
f 232/232/29 233/233/29 236/236/29
f 234/234/2 237/237/2 236/236/2
f 234/234/2 236/236/2 233/233/2
f 235/235/29 239/239/29 238/238/29
f 235/235/29 236/236/29 239/239/29
f 237/237/2 240/240/2 239/239/2
f 237/237/2 239/239/2 236/236/2
f 238/238/30 242/242/30 241/241/30
f 238/238/30 239/239/30 242/242/30
f 240/240/2 243/243/2 242/242/2
f 240/240/2 242/242/2 239/239/2
f 241/241/30 245/245/30 244/244/30
f 241/241/30 242/242/30 245/245/30
f 243/243/2 246/246/2 245/245/2
f 243/243/2 245/245/2 242/242/2
f 244/244/30 214/214/30 211/211/30
f 244/244/30 245/245/30 214/214/30
f 246/246/2 215/215/2 214/214/2
f 246/246/2 214/214/2 245/245/2
f 247/247/35 249/249/35 248/248/35
f 247/247/35 250/250/35 249/249/35
f 251/251/2 252/252/2 249/249/2
f 251/251/2 249/249/2 250/250/2
f 248/248/35 254/254/35 253/253/35
f 248/248/35 249/249/35 254/254/35
f 252/252/2 255/255/2 254/254/2
f 252/252/2 254/254/2 249/249/2
f 253/253/35 257/257/35 256/256/35
f 253/253/35 254/254/35 257/257/35
f 255/255/2 258/258/2 257/257/2
f 255/255/2 257/257/2 254/254/2
f 256/256/36 260/260/36 259/259/36
f 256/256/36 257/257/36 260/260/36
f 258/258/2 261/261/2 260/260/2
f 258/258/2 260/260/2 257/257/2
f 259/259/36 263/263/36 262/262/36
f 259/259/36 260/260/36 263/263/36
f 261/261/2 264/264/2 263/263/2
f 261/261/2 263/263/2 260/260/2
f 262/262/36 266/266/36 265/265/36
f 262/262/36 263/263/36 266/266/36
f 264/264/2 267/267/2 266/266/2
f 264/264/2 266/266/2 263/263/2
f 265/265/37 269/269/37 268/268/37
f 265/265/37 266/266/37 269/269/37
f 267/267/2 270/270/2 269/269/2
f 267/267/2 269/269/2 266/266/2
f 268/268/37 272/272/37 271/271/37
f 268/268/37 269/269/37 272/272/37
f 270/270/2 273/273/2 272/272/2
f 270/270/2 272/272/2 269/269/2
f 274/274/38 250/250/38 247/247/38
f 274/274/38 275/275/38 250/250/38
f 276/276/2 251/251/2 250/250/2
f 276/276/2 250/250/2 275/275/2
f 277/277/36 279/279/36 278/278/36
f 277/277/36 280/280/36 279/279/36
f 281/281/2 282/282/2 279/279/2
f 281/281/2 279/279/2 280/280/2
f 278/278/37 284/284/37 283/283/37
f 278/278/37 279/279/37 284/284/37
f 282/282/2 285/285/2 284/284/2
f 282/282/2 284/284/2 279/279/2
f 283/283/37 287/287/37 286/286/37
f 283/283/37 284/284/37 287/287/37
f 285/285/2 288/288/2 287/287/2
f 285/285/2 287/287/2 284/284/2
f 286/286/38 290/290/38 289/289/38
f 286/286/38 287/287/38 290/290/38
f 288/288/2 291/291/2 290/290/2
f 288/288/2 290/290/2 287/287/2
f 289/289/38 293/293/38 292/292/38
f 289/289/38 290/290/38 293/293/38
f 291/291/2 294/294/2 293/293/2
f 291/291/2 293/293/2 290/290/2
f 295/295/39 297/297/39 296/296/39
f 295/295/39 298/298/39 297/297/39
f 299/299/2 300/300/2 297/297/2
f 299/299/2 297/297/2 298/298/2
f 296/296/39 302/302/39 301/301/39
f 296/296/39 297/297/39 302/302/39
f 300/300/2 303/303/2 302/302/2
f 300/300/2 302/302/2 297/297/2
f 301/301/40 305/305/40 304/304/40
f 301/301/40 302/302/40 305/305/40
f 303/303/2 306/306/2 305/305/2
f 303/303/2 305/305/2 302/302/2
f 304/304/41 308/308/41 307/307/41
f 304/304/41 305/305/41 308/308/41
f 306/306/2 309/309/2 308/308/2
f 306/306/2 308/308/2 305/305/2
f 307/307/41 311/311/41 310/310/41
f 307/307/41 308/308/41 311/311/41
f 309/309/2 312/312/2 311/311/2
f 309/309/2 311/311/2 308/308/2
f 310/310/41 314/314/41 313/313/41
f 310/310/41 311/311/41 314/314/41
f 312/312/2 315/315/2 314/314/2
f 312/312/2 314/314/2 311/311/2
f 316/316/39 318/318/39 317/317/39
f 316/316/39 319/319/39 318/318/39
f 320/320/2 321/321/2 318/318/2
f 320/320/2 318/318/2 319/319/2
f 317/317/40 323/323/40 322/322/40
f 317/317/40 318/318/40 323/323/40
f 321/321/2 324/324/2 323/323/2
f 321/321/2 323/323/2 318/318/2
f 322/322/40 326/326/40 325/325/40
f 322/322/40 327/327/40 326/326/40
f 328/328/2 329/329/2 326/326/2
f 328/328/2 326/326/2 327/327/2
f 325/325/41 331/331/41 330/330/41
f 325/325/41 326/326/41 331/331/41
f 329/329/2 332/332/2 331/331/2
f 329/329/2 331/331/2 326/326/2
f 330/330/41 334/334/41 333/333/41
f 330/330/41 335/335/41 334/334/41
f 336/336/2 337/337/2 334/334/2
f 336/336/2 334/334/2 335/335/2
f 333/333/41 339/339/41 338/338/41
f 333/333/41 334/334/41 339/339/41
f 337/337/2 340/340/2 339/339/2
f 337/337/2 339/339/2 334/334/2
f 316/316/42 341/341/42 320/320/42
f 316/316/42 320/320/42 319/319/42
f 327/327/43 324/324/43 328/328/43
f 327/327/43 323/323/43 324/324/43
f 331/331/44 332/332/44 336/336/44
f 331/331/44 336/336/44 335/335/44
f 338/338/45 340/340/45 342/342/45
f 338/338/45 339/339/45 340/340/45
f 343/343/35 345/345/35 344/344/35
f 343/343/35 346/346/35 345/345/35
f 347/347/2 348/348/2 345/345/2
f 347/347/2 345/345/2 346/346/2
f 344/344/36 350/350/36 349/349/36
f 344/344/36 345/345/36 350/350/36
f 348/348/2 351/351/2 350/350/2
f 348/348/2 350/350/2 345/345/2
f 349/349/36 353/353/36 352/352/36
f 349/349/36 350/350/36 353/353/36
f 351/351/2 354/354/2 353/353/2
f 351/351/2 353/353/2 350/350/2
f 352/352/37 356/356/37 355/355/37
f 352/352/37 353/353/37 356/356/37
f 354/354/2 357/357/2 356/356/2
f 354/354/2 356/356/2 353/353/2
f 355/355/38 359/359/38 358/358/38
f 355/355/38 356/356/38 359/359/38
f 357/357/2 360/360/2 359/359/2
f 357/357/2 359/359/2 356/356/2
f 358/358/38 346/346/38 343/343/38
f 358/358/38 359/359/38 346/346/38
f 360/360/2 347/347/2 346/346/2
f 360/360/2 346/346/2 359/359/2
f 361/361/36 363/363/36 362/362/36
f 361/361/36 364/364/36 363/363/36
f 365/365/2 366/366/2 363/363/2
f 365/365/2 363/363/2 364/364/2
f 362/362/36 368/368/36 367/367/36
f 362/362/36 363/363/36 368/368/36
f 366/366/2 369/369/2 368/368/2
f 366/366/2 368/368/2 363/363/2
f 367/367/36 371/371/36 370/370/36
f 367/367/36 368/368/36 371/371/36
f 369/369/2 372/372/2 371/371/2
f 369/369/2 371/371/2 368/368/2
f 370/370/37 374/374/37 373/373/37
f 370/370/37 371/371/37 374/374/37
f 372/372/2 375/375/2 374/374/2
f 372/372/2 374/374/2 371/371/2
f 373/373/38 377/377/38 376/376/38
f 373/373/38 374/374/38 377/377/38
f 375/375/2 378/378/2 377/377/2
f 375/375/2 377/377/2 374/374/2
f 376/376/38 380/380/38 379/379/38
f 376/376/38 377/377/38 380/380/38
f 378/378/2 381/381/2 380/380/2
f 378/378/2 380/380/2 377/377/2
f 382/382/46 384/384/46 383/383/46
f 382/382/46 385/385/46 384/384/46
f 386/386/2 387/387/2 384/384/2
f 386/386/2 384/384/2 385/385/2
f 388/388/47 390/390/47 389/389/47
f 388/388/47 391/391/47 390/390/47
f 392/392/2 393/393/2 390/390/2
f 392/392/2 390/390/2 391/391/2
f 389/389/48 395/395/48 394/394/48
f 389/389/48 390/390/48 395/395/48
f 393/393/2 396/396/2 395/395/2
f 393/393/2 395/395/2 390/390/2
f 394/394/48 398/398/48 397/397/48
f 394/394/48 395/395/48 398/398/48
f 396/396/2 399/399/2 398/398/2
f 396/396/2 398/398/2 395/395/2
f 397/397/49 385/385/49 382/382/49
f 397/397/49 398/398/49 385/385/49
f 399/399/2 386/386/2 385/385/2
f 399/399/2 385/385/2 398/398/2
f 400/400/50 402/402/50 401/401/50
f 400/400/50 403/403/50 402/402/50
f 404/404/2 405/405/2 402/402/2
f 404/404/2 402/402/2 403/403/2
f 401/401/50 407/407/50 406/406/50
f 401/401/50 402/402/50 407/407/50
f 405/405/2 408/408/2 407/407/2
f 405/405/2 407/407/2 402/402/2
f 406/406/50 410/410/50 409/409/50
f 406/406/50 407/407/50 410/410/50
f 408/408/2 411/411/2 410/410/2
f 408/408/2 410/410/2 407/407/2
f 409/409/51 413/413/51 412/412/51
f 409/409/51 410/410/51 413/413/51
f 411/411/2 414/414/2 413/413/2
f 411/411/2 413/413/2 410/410/2
f 412/412/51 416/416/51 415/415/51
f 412/412/51 413/413/51 416/416/51
f 414/414/2 417/417/2 416/416/2
f 414/414/2 416/416/2 413/413/2
f 415/415/52 419/419/52 418/418/52
f 415/415/52 416/416/52 419/419/52
f 417/417/2 420/420/2 419/419/2
f 417/417/2 419/419/2 416/416/2
f 421/421/53 423/423/53 422/422/53
f 421/421/53 424/424/53 423/423/53
f 425/425/2 426/426/2 423/423/2
f 425/425/2 423/423/2 424/424/2
f 427/427/39 429/429/39 428/428/39
f 427/427/39 430/430/39 429/429/39
f 431/431/2 432/432/2 429/429/2
f 431/431/2 429/429/2 430/430/2
f 428/428/40 434/434/40 433/433/40
f 428/428/40 429/429/40 434/434/40
f 432/432/2 435/435/2 434/434/2
f 432/432/2 434/434/2 429/429/2
f 433/433/41 424/424/41 421/421/41
f 433/433/41 434/434/41 424/424/41
f 435/435/2 425/425/2 424/424/2
f 435/435/2 424/424/2 434/434/2
f 436/436/40 438/438/40 437/437/40
f 436/436/40 439/439/40 438/438/40
f 440/440/2 441/441/2 438/438/2
f 440/440/2 438/438/2 439/439/2
f 437/437/41 443/443/41 442/442/41
f 437/437/41 438/438/41 443/443/41
f 441/441/2 444/444/2 443/443/2
f 441/441/2 443/443/2 438/438/2
f 436/436/54 445/445/54 440/440/54
f 436/436/54 440/440/54 439/439/54
f 442/442/55 444/444/55 446/446/55
f 442/442/55 443/443/55 444/444/55
f 447/447/53 449/449/53 448/448/53
f 447/447/53 450/450/53 449/449/53
f 451/451/2 452/452/2 449/449/2
f 451/451/2 449/449/2 450/450/2
f 448/448/53 454/454/53 453/453/53
f 448/448/53 449/449/53 454/454/53
f 452/452/2 455/455/2 454/454/2
f 452/452/2 454/454/2 449/449/2
f 456/456/39 458/458/39 457/457/39
f 456/456/39 459/459/39 458/458/39
f 460/460/2 461/461/2 458/458/2
f 460/460/2 458/458/2 459/459/2
f 457/457/40 463/463/40 462/462/40
f 457/457/40 458/458/40 463/463/40
f 461/461/2 464/464/2 463/463/2
f 461/461/2 463/463/2 458/458/2
f 462/462/40 466/466/40 465/465/40
f 462/462/40 463/463/40 466/466/40
f 464/464/2 467/467/2 466/466/2
f 464/464/2 466/466/2 463/463/2
f 465/465/41 450/450/41 447/447/41
f 465/465/41 466/466/41 450/450/41
f 467/467/2 451/451/2 450/450/2
f 467/467/2 450/450/2 466/466/2
f 468/468/56 470/470/56 469/469/56
f 468/468/56 471/471/56 470/470/56
f 472/472/2 473/473/2 470/470/2
f 472/472/2 470/470/2 471/471/2
f 474/474/57 476/476/57 475/475/57
f 474/474/57 477/477/57 476/476/57
f 478/478/2 479/479/2 476/476/2
f 478/478/2 476/476/2 477/477/2
f 475/475/58 481/481/58 480/480/58
f 475/475/58 476/476/58 481/481/58
f 479/479/2 482/482/2 481/481/2
f 479/479/2 481/481/2 476/476/2
f 480/480/58 484/484/58 483/483/58
f 480/480/58 481/481/58 484/484/58
f 482/482/2 485/485/2 484/484/2
f 482/482/2 484/484/2 481/481/2
f 483/483/59 487/487/59 486/486/59
f 483/483/59 484/484/59 487/487/59
f 485/485/2 488/488/2 487/487/2
f 485/485/2 487/487/2 484/484/2
f 486/486/59 471/471/59 468/468/59
f 486/486/59 487/487/59 471/471/59
f 488/488/2 472/472/2 471/471/2
f 488/488/2 471/471/2 487/487/2
f 489/489/39 491/491/39 490/490/39
f 489/489/39 492/492/39 491/491/39
f 493/493/2 494/494/2 491/491/2
f 493/493/2 491/491/2 492/492/2
f 490/490/40 496/496/40 495/495/40
f 490/490/40 491/491/40 496/496/40
f 494/494/2 497/497/2 496/496/2
f 494/494/2 496/496/2 491/491/2
f 495/495/41 499/499/41 498/498/41
f 495/495/41 496/496/41 499/499/41
f 497/497/2 500/500/2 499/499/2
f 497/497/2 499/499/2 496/496/2
f 501/501/60 503/503/60 502/502/60
f 501/501/60 504/504/60 503/503/60
f 505/505/2 506/506/2 503/503/2
f 505/505/2 503/503/2 504/504/2
f 507/507/61 509/509/61 508/508/61
f 507/507/61 510/510/61 509/509/61
f 511/511/2 512/512/2 509/509/2
f 511/511/2 509/509/2 510/510/2
f 508/508/61 514/514/61 513/513/61
f 508/508/61 509/509/61 514/514/61
f 512/512/2 515/515/2 514/514/2
f 512/512/2 514/514/2 509/509/2
f 513/513/62 517/517/62 516/516/62
f 513/513/62 514/514/62 517/517/62
f 515/515/2 518/518/2 517/517/2
f 515/515/2 517/517/2 514/514/2
f 516/516/62 520/520/62 519/519/62
f 516/516/62 517/517/62 520/520/62
f 518/518/2 521/521/2 520/520/2
f 518/518/2 520/520/2 517/517/2
f 519/519/63 504/504/63 501/501/63
f 519/519/63 520/520/63 504/504/63
f 521/521/2 505/505/2 504/504/2
f 521/521/2 504/504/2 520/520/2
f 522/522/64 524/524/64 523/523/64
f 522/522/64 525/525/64 524/524/64
f 526/526/2 527/527/2 524/524/2
f 526/526/2 524/524/2 525/525/2
f 523/523/65 529/529/65 528/528/65
f 523/523/65 524/524/65 529/529/65
f 527/527/2 530/530/2 529/529/2
f 527/527/2 529/529/2 524/524/2
f 528/528/66 532/532/66 531/531/66
f 528/528/66 529/529/66 532/532/66
f 530/530/2 533/533/2 532/532/2
f 530/530/2 532/532/2 529/529/2
f 531/531/67 525/525/67 522/522/67
f 531/531/67 532/532/67 525/525/67
f 533/533/2 526/526/2 525/525/2
f 533/533/2 525/525/2 532/532/2
f 534/534/60 536/536/60 535/535/60
f 534/534/60 537/537/60 536/536/60
f 538/538/2 539/539/2 536/536/2
f 538/538/2 536/536/2 537/537/2
f 535/535/68 541/541/68 540/540/68
f 535/535/68 536/536/68 541/541/68
f 539/539/2 542/542/2 541/541/2
f 539/539/2 541/541/2 536/536/2
f 540/540/68 544/544/68 543/543/68
f 540/540/68 541/541/68 544/544/68
f 542/542/2 545/545/2 544/544/2
f 542/542/2 544/544/2 541/541/2
f 543/543/62 547/547/62 546/546/62
f 543/543/62 544/544/62 547/547/62
f 545/545/2 548/548/2 547/547/2
f 545/545/2 547/547/2 544/544/2
f 546/546/63 550/550/63 549/549/63
f 546/546/63 547/547/63 550/550/63
f 548/548/2 551/551/2 550/550/2
f 548/548/2 550/550/2 547/547/2
f 549/549/63 537/537/63 534/534/63
f 549/549/63 550/550/63 537/537/63
f 551/551/2 538/538/2 537/537/2
f 551/551/2 537/537/2 550/550/2
f 552/552/69 554/554/69 553/553/69
f 552/552/69 555/555/69 554/554/69
f 556/556/2 557/557/2 554/554/2
f 556/556/2 554/554/2 555/555/2
f 553/553/69 559/559/69 558/558/69
f 553/553/69 554/554/69 559/559/69
f 557/557/2 560/560/2 559/559/2
f 557/557/2 559/559/2 554/554/2
f 558/558/70 562/562/70 561/561/70
f 558/558/70 559/559/70 562/562/70
f 560/560/2 563/563/2 562/562/2
f 560/560/2 562/562/2 559/559/2
f 561/561/70 565/565/70 564/564/70
f 561/561/70 562/562/70 565/565/70
f 563/563/2 566/566/2 565/565/2
f 563/563/2 565/565/2 562/562/2
f 564/564/70 568/568/70 567/567/70
f 564/564/70 565/565/70 568/568/70
f 566/566/2 569/569/2 568/568/2
f 566/566/2 568/568/2 565/565/2
f 567/567/70 571/571/70 570/570/70
f 567/567/70 568/568/70 571/571/70
f 569/569/2 572/572/2 571/571/2
f 569/569/2 571/571/2 568/568/2
f 570/570/71 574/574/71 573/573/71
f 570/570/71 571/571/71 574/574/71
f 572/572/2 575/575/2 574/574/2
f 572/572/2 574/574/2 571/571/2
f 573/573/72 577/577/72 576/576/72
f 573/573/72 574/574/72 577/577/72
f 575/575/2 578/578/2 577/577/2
f 575/575/2 577/577/2 574/574/2
f 576/576/72 580/580/72 579/579/72
f 576/576/72 577/577/72 580/580/72
f 578/578/2 581/581/2 580/580/2
f 578/578/2 580/580/2 577/577/2
f 579/579/72 555/555/72 552/552/72
f 579/579/72 580/580/72 555/555/72
f 581/581/2 556/556/2 555/555/2
f 581/581/2 555/555/2 580/580/2
f 582/582/73 584/584/73 583/583/73
f 582/582/73 585/585/73 584/584/73
f 586/586/2 587/587/2 584/584/2
f 586/586/2 584/584/2 585/585/2
f 583/583/73 589/589/73 588/588/73
f 583/583/73 584/584/73 589/589/73
f 587/587/2 590/590/2 589/589/2
f 587/587/2 589/589/2 584/584/2
f 588/588/73 592/592/73 591/591/73
f 588/588/73 589/589/73 592/592/73
f 590/590/2 593/593/2 592/592/2
f 590/590/2 592/592/2 589/589/2
f 591/591/74 595/595/74 594/594/74
f 591/591/74 592/592/74 595/595/74
f 593/593/2 596/596/2 595/595/2
f 593/593/2 595/595/2 592/592/2
f 594/594/75 598/598/75 597/597/75
f 594/594/75 595/595/75 598/598/75
f 596/596/2 599/599/2 598/598/2
f 596/596/2 598/598/2 595/595/2
f 597/597/75 601/601/75 600/600/75
f 597/597/75 598/598/75 601/601/75
f 599/599/2 602/602/2 601/601/2
f 599/599/2 601/601/2 598/598/2
f 600/600/75 604/604/75 603/603/75
f 600/600/75 601/601/75 604/604/75
f 602/602/2 605/605/2 604/604/2
f 602/602/2 604/604/2 601/601/2
f 606/606/74 608/608/74 607/607/74
f 606/606/74 609/609/74 608/608/74
f 610/610/2 611/611/2 608/608/2
f 610/610/2 608/608/2 609/609/2
f 607/607/75 613/613/75 612/612/75
f 607/607/75 608/608/75 613/613/75
f 611/611/2 614/614/2 613/613/2
f 611/611/2 613/613/2 608/608/2
f 612/612/75 616/616/75 615/615/75
f 612/612/75 613/613/75 616/616/75
f 614/614/2 617/617/2 616/616/2
f 614/614/2 616/616/2 613/613/2
f 606/606/76 618/618/76 610/610/76
f 606/606/76 610/610/76 609/609/76
f 615/615/77 617/617/77 619/619/77
f 615/615/77 616/616/77 617/617/77
f 620/620/69 622/622/69 621/621/69
f 620/620/69 623/623/69 622/622/69
f 624/624/2 625/625/2 622/622/2
f 624/624/2 622/622/2 623/623/2
f 621/621/70 627/627/70 626/626/70
f 621/621/70 622/622/70 627/627/70
f 625/625/2 628/628/2 627/627/2
f 625/625/2 627/627/2 622/622/2
f 626/626/70 630/630/70 629/629/70
f 626/626/70 627/627/70 630/630/70
f 628/628/2 631/631/2 630/630/2
f 628/628/2 630/630/2 627/627/2
f 629/629/71 633/633/71 632/632/71
f 629/629/71 630/630/71 633/633/71
f 631/631/2 634/634/2 633/633/2
f 631/631/2 633/633/2 630/630/2
f 632/632/72 636/636/72 635/635/72
f 632/632/72 633/633/72 636/636/72
f 634/634/2 637/637/2 636/636/2
f 634/634/2 636/636/2 633/633/2
f 635/635/72 639/639/72 638/638/72
f 635/635/72 636/636/72 639/639/72
f 637/637/2 640/640/2 639/639/2
f 637/637/2 639/639/2 636/636/2
f 641/641/78 643/643/78 642/642/78
f 641/641/78 644/644/78 643/643/78
f 645/645/2 646/646/2 643/643/2
f 645/645/2 643/643/2 644/644/2
f 642/642/79 648/648/79 647/647/79
f 642/642/79 643/643/79 648/648/79
f 646/646/2 649/649/2 648/648/2
f 646/646/2 648/648/2 643/643/2
f 647/647/80 651/651/80 650/650/80
f 647/647/80 648/648/80 651/651/80
f 649/649/2 652/652/2 651/651/2
f 649/649/2 651/651/2 648/648/2
f 650/650/81 654/654/81 653/653/81
f 650/650/81 651/651/81 654/654/81
f 652/652/2 655/655/2 654/654/2
f 652/652/2 654/654/2 651/651/2
f 656/656/82 658/658/82 657/657/82
f 656/656/82 659/659/82 658/658/82
f 660/660/2 661/661/2 658/658/2
f 660/660/2 658/658/2 659/659/2
f 657/657/83 663/663/83 662/662/83
f 657/657/83 658/658/83 663/663/83
f 661/661/2 664/664/2 663/663/2
f 661/661/2 663/663/2 658/658/2
f 662/662/83 666/666/83 665/665/83
f 662/662/83 663/663/83 666/666/83
f 664/664/2 667/667/2 666/666/2
f 664/664/2 666/666/2 663/663/2
f 665/665/84 669/669/84 668/668/84
f 665/665/84 666/666/84 669/669/84
f 667/667/2 670/670/2 669/669/2
f 667/667/2 669/669/2 666/666/2
f 668/668/85 672/672/85 671/671/85
f 668/668/85 669/669/85 672/672/85
f 670/670/2 673/673/2 672/672/2
f 670/670/2 672/672/2 669/669/2
f 671/671/85 659/659/85 656/656/85
f 671/671/85 672/672/85 659/659/85
f 673/673/2 660/660/2 659/659/2
f 673/673/2 659/659/2 672/672/2
f 674/674/69 676/676/69 675/675/69
f 674/674/69 677/677/69 676/676/69
f 678/678/2 679/679/2 676/676/2
f 678/678/2 676/676/2 677/677/2
f 680/680/70 682/682/70 681/681/70
f 680/680/70 683/683/70 682/682/70
f 684/684/2 685/685/2 682/682/2
f 684/684/2 682/682/2 683/683/2
f 681/681/70 687/687/70 686/686/70
f 681/681/70 682/682/70 687/687/70
f 685/685/2 688/688/2 687/687/2
f 685/685/2 687/687/2 682/682/2
f 686/686/70 690/690/70 689/689/70
f 686/686/70 687/687/70 690/690/70
f 688/688/2 691/691/2 690/690/2
f 688/688/2 690/690/2 687/687/2
f 689/689/70 693/693/70 692/692/70
f 689/689/70 690/690/70 693/693/70
f 691/691/2 694/694/2 693/693/2
f 691/691/2 693/693/2 690/690/2
f 692/692/71 696/696/71 695/695/71
f 692/692/71 693/693/71 696/696/71
f 694/694/2 697/697/2 696/696/2
f 694/694/2 696/696/2 693/693/2
f 695/695/71 699/699/71 698/698/71
f 695/695/71 696/696/71 699/699/71
f 697/697/2 700/700/2 699/699/2
f 697/697/2 699/699/2 696/696/2
f 698/698/72 702/702/72 701/701/72
f 698/698/72 699/699/72 702/702/72
f 700/700/2 703/703/2 702/702/2
f 700/700/2 702/702/2 699/699/2
f 701/701/72 705/705/72 704/704/72
f 701/701/72 702/702/72 705/705/72
f 703/703/2 706/706/2 705/705/2
f 703/703/2 705/705/2 702/702/2
f 704/704/72 708/708/72 707/707/72
f 704/704/72 705/705/72 708/708/72
f 706/706/2 709/709/2 708/708/2
f 706/706/2 708/708/2 705/705/2
f 707/707/72 677/677/72 674/674/72
f 707/707/72 708/708/72 677/677/72
f 709/709/2 678/678/2 677/677/2
f 709/709/2 677/677/2 708/708/2
f 710/710/78 712/712/78 711/711/78
f 710/710/78 713/713/78 712/712/78
f 714/714/2 715/715/2 712/712/2
f 714/714/2 712/712/2 713/713/2
f 711/711/78 717/717/78 716/716/78
f 711/711/78 712/712/78 717/717/78
f 715/715/2 718/718/2 717/717/2
f 715/715/2 717/717/2 712/712/2
f 716/716/79 720/720/79 719/719/79
f 716/716/79 717/717/79 720/720/79
f 718/718/2 721/721/2 720/720/2
f 718/718/2 720/720/2 717/717/2
f 719/719/79 723/723/79 722/722/79
f 719/719/79 720/720/79 723/723/79
f 721/721/2 724/724/2 723/723/2
f 721/721/2 723/723/2 720/720/2
f 722/722/80 726/726/80 725/725/80
f 722/722/80 723/723/80 726/726/80
f 724/724/2 727/727/2 726/726/2
f 724/724/2 726/726/2 723/723/2
f 725/725/80 729/729/80 728/728/80
f 725/725/80 726/726/80 729/729/80
f 727/727/2 730/730/2 729/729/2
f 727/727/2 729/729/2 726/726/2
f 728/728/80 732/732/80 731/731/80
f 728/728/80 729/729/80 732/732/80
f 730/730/2 733/733/2 732/732/2
f 730/730/2 732/732/2 729/729/2
f 731/731/80 735/735/80 734/734/80
f 731/731/80 732/732/80 735/735/80
f 733/733/2 736/736/2 735/735/2
f 733/733/2 735/735/2 732/732/2
f 734/734/81 738/738/81 737/737/81
f 734/734/81 735/735/81 738/738/81
f 736/736/2 739/739/2 738/738/2
f 736/736/2 738/738/2 735/735/2
f 737/737/81 713/713/81 710/710/81
f 737/737/81 738/738/81 713/713/81
f 739/739/2 714/714/2 713/713/2
f 739/739/2 713/713/2 738/738/2
f 740/740/78 742/742/78 741/741/78
f 740/740/78 743/743/78 742/742/78
f 744/744/2 745/745/2 742/742/2
f 744/744/2 742/742/2 743/743/2
f 741/741/79 747/747/79 746/746/79
f 741/741/79 742/742/79 747/747/79
f 745/745/2 748/748/2 747/747/2
f 745/745/2 747/747/2 742/742/2
f 746/746/80 750/750/80 749/749/80
f 746/746/80 747/747/80 750/750/80
f 748/748/2 751/751/2 750/750/2
f 748/748/2 750/750/2 747/747/2
f 749/749/81 743/743/81 740/740/81
f 749/749/81 750/750/81 743/743/81
f 751/751/2 744/744/2 743/743/2
f 751/751/2 743/743/2 750/750/2
