# Unreal legacy OBJ adapter: canonical vertices are UE cm; this file is written with Y reflected and triangle winding reversed. One object, no g groups, so the importer creates exactly one material slot.
# OldCityFoundationV2 foundations (plinth + stepped footing); generator 463404ba754c804f514fe655944ece4eb51a92e1273fec326ad5c2ebfbb18f24
# AUTHORED detail in the style of Old City stone foundations, not survey
o SM_OldCityFoundationV2_Kept_N003_N003
s off
v -149407.01 141026.52 4595.10
v -149262.69 140938.80 4583.55
v -149262.69 140938.80 4620.10
v -149407.01 141026.52 4620.10
v -149409.78 141018.84 4620.10
v -149267.02 140932.07 4620.10
v -149124.51 140844.75 4572.50
v -149124.51 140844.75 4620.10
v -149128.87 140838.03 4620.10
v -148638.30 140513.79 4553.05
v -148638.30 140513.79 4620.10
v -148642.73 140507.13 4620.10
v -148204.01 140218.18 4564.88
v -148204.01 140218.18 4620.10
v -148208.51 140211.56 4620.10
v -147923.87 140027.57 4572.50
v -147923.87 140027.57 4620.10
v -147930.93 140022.70 4620.10
v -147480.90 139726.17 4584.56
v -147480.90 139726.17 4620.10
v -147492.02 139724.06 4620.10
v -147660.84 139462.57 4595.10
v -147660.84 139462.57 4620.10
v -147671.30 139461.45 4620.10
v -149672.05 136517.55 4595.10
v -149870.91 136226.46 4576.08
v -149870.91 136226.46 4620.10
v -149672.05 136517.55 4620.10
v -149674.91 136527.54 4620.10
v -149873.01 136237.57 4620.10
v -149988.59 136306.52 4595.10
v -149988.59 136306.52 4620.10
v -149990.05 136317.19 4620.10
v -148821.82 139462.57 4595.10
v -148811.64 139477.46 4594.50
v -148811.64 139477.46 4620.10
v -148821.82 139462.57 4620.10
v -148810.77 139464.56 4620.10
v -148800.51 139479.57 4620.10
v -149124.51 139690.25 4585.99
v -149124.51 139690.25 4620.10
v -149118.96 139696.14 4620.10
v -149325.28 139826.80 4588.56
v -149325.28 139826.80 4620.10
v -149323.30 139835.12 4620.10
v -149407.01 139882.38 4595.10
v -149407.01 139882.38 4620.10
v -149406.48 139891.70 4620.10
v -150301.77 146583.84 4357.34
v -150014.51 147038.60 4327.66
v -150014.51 147038.60 4383.00
v -150301.77 146583.84 4383.00
v -150295.01 146579.57 4383.00
v -150012.01 147027.57 4383.00
v -149768.52 146883.56 4324.02
v -149768.52 146883.56 4383.00
v -149768.73 146874.24 4383.00
v -149474.65 146698.36 4358.00
v -149474.65 146698.36 4383.00
v -149478.08 146691.06 4383.00
v -148648.38 146497.64 4358.00
v -148598.00 146577.08 4344.44
v -148598.00 146577.08 4383.00
v -148648.38 146497.64 4383.00
v -148645.89 146486.63 4383.00
v -148595.51 146566.07 4383.00
v -147969.92 146182.16 4341.58
v -147969.92 146182.16 4383.00
v -147969.54 146172.47 4383.00
v -147455.92 145858.97 4339.24
v -147455.92 145858.97 4383.00
v -147457.26 145850.37 4383.00
v -146624.51 145336.21 4335.46
v -146624.51 145336.21 4383.00
v -146628.65 145329.35 4383.00
v -146585.76 145311.84 4336.84
v -146585.76 145311.84 4383.00
v -146590.02 145305.07 4383.00
v -146435.11 145216.97 4342.20
v -146435.11 145216.97 4383.00
v -146439.37 145210.20 4383.00
v -146134.34 145027.57 4352.89
v -146134.34 145027.57 4383.00
v -146138.60 145020.80 4383.00
v -145579.75 144678.33 4344.68
v -145579.75 144678.33 4383.00
v -145584.01 144671.56 4383.00
v -144901.03 144251.06 4334.62
v -144901.03 144251.06 4383.00
v -144910.30 144247.44 4383.00
v -144661.97 144100.56 4331.08
v -144661.97 144100.56 4383.00
v -144673.01 144098.06 4383.00
v -144922.52 143688.07 4358.00
v -144922.52 143688.07 4383.00
v -144931.75 143688.43 4383.00
v -150308.16 146573.72 4358.00
v -150308.16 146573.72 4383.00
v -150301.30 146569.59 4383.00
v -149603.19 130597.94 4021.20
v -149644.47 130547.52 4018.09
v -149644.47 130547.52 4046.20
v -149603.19 130597.94 4046.20
v -149610.02 130602.22 4046.20
v -149650.84 130552.37 4046.20
v -150070.19 130027.57 3985.98
v -150070.19 130027.57 4046.20
v -150071.77 130038.26 4046.20
v -150136.18 129946.97 3990.68
v -150136.18 129946.97 4046.20
v -150137.01 129958.57 4046.20
v -150224.38 130027.57 4004.48
v -150224.38 130027.57 4046.20
v -150224.90 130038.88 4046.20
v -150287.17 130084.95 4021.20
v -150287.17 130084.95 4046.20
v -150287.46 130096.06 4046.20
v -146722.29 121972.29 3654.20
v -147303.93 120706.98 3626.85
v -147303.93 120706.98 3679.20
v -146722.29 121972.29 3679.20
v -146732.76 121968.68 3679.20
v -147310.41 120712.04 3679.20
v -147616.24 120027.57 3612.17
v -147616.24 120027.57 3679.20
v -147620.58 120037.28 3679.20
v -147675.59 119898.46 3624.87
v -147675.59 119898.46 3679.20
v -147679.52 119909.06 3679.20
v -147957.47 120027.57 3625.82
v -147957.47 120027.57 3679.20
v -147957.75 120036.50 3679.20
v -148236.34 120155.29 3642.08
v -148236.34 120155.29 3679.20
v -148233.01 120162.57 3679.20
v -148444.27 120250.31 3654.20
v -148444.27 120250.31 3679.20
v -148438.64 120256.54 3679.20
v -142044.95 142326.79 4047.80
v -141912.01 142240.08 4030.00
v -141912.01 142240.08 4072.80
v -142044.95 142326.79 4072.80
v -142049.33 142320.10 4072.80
v -141916.39 142233.39 4072.80
v -141624.51 142052.55 4010.50
v -141624.51 142052.55 4072.80
v -141628.91 142045.86 4072.80
v -141082.10 141698.74 4017.11
v -141082.10 141698.74 4072.80
v -141086.51 141692.07 4072.80
v -140405.88 141246.20 4026.26
v -140405.88 141246.20 4072.80
v -140410.47 141239.65 4072.80
v -140216.25 141119.30 4028.83
v -140216.25 141119.30 4072.80
v -140220.89 141112.78 4072.80
v -139904.29 140910.53 4033.05
v -139904.29 140910.53 4072.80
v -139909.01 140904.07 4072.80
v -139787.57 140817.85 4035.80
v -139787.57 140817.85 4072.80
v -139792.52 140811.56 4072.80
v -139548.40 140630.83 4041.19
v -139548.40 140630.83 4072.80
v -139554.02 140625.07 4072.80
v -139433.45 140490.78 4047.80
v -139433.45 140490.78 4072.80
v -139440.02 140486.18 4072.80
v -141812.60 121931.99 3456.20
v -141624.51 121754.11 3441.56
v -141624.51 121754.11 3481.20
v -141812.60 121931.99 3481.20
v -141820.57 121928.52 3481.20
v -141633.61 121751.70 3481.20
v -141217.50 121369.18 3426.16
v -141217.50 121369.18 3481.20
v -141229.02 121369.07 3481.20
v -141624.51 120969.01 3410.16
v -141624.51 120969.01 3481.20
v -141633.33 120971.57 3481.20
v -142099.23 120502.28 3410.48
v -142099.23 120502.28 3481.20
v -142104.88 120507.95 3481.20
v -142582.07 120027.57 3410.80
v -142582.07 120027.57 3481.20
v -142584.51 120036.39 3481.20
v -142981.23 119635.13 3442.47
v -142981.23 119635.13 3481.20
v -142981.01 119646.56 3481.20
v -143350.67 120027.57 3441.55
v -143350.67 120027.57 3481.20
v -143345.46 120033.71 3481.20
v -143528.31 120216.27 3456.20
v -143528.31 120216.27 3481.20
v -143520.71 120219.87 3481.20
v -142100.92 110905.37 3775.50
v -141624.51 110839.27 3740.03
v -141624.51 110839.27 3800.50
v -142100.92 110905.37 3800.50
v -142094.72 110896.44 3800.50
v -141624.74 110831.23 3800.50
v -140911.72 110740.37 3743.99
v -140911.72 110740.37 3800.50
v -140921.56 110733.65 3800.50
v -140684.61 110708.85 3745.25
v -140684.61 110708.85 3800.50
v -140697.51 110702.57 3800.50
v -141080.23 110027.57 3772.50
v -141080.23 110027.57 3800.50
v -141087.85 110030.37 3800.50
v -141091.11 110008.82 3775.50
v -141091.11 110008.82 3800.50
v -141098.59 110011.87 3800.50
v -139524.72 103474.37 4390.90
v -139124.51 103353.67 4373.37
v -139124.51 103353.67 4415.90
v -139524.72 103474.37 4415.90
v -139533.76 103468.74 4415.90
v -139135.93 103348.75 4415.90
v -138803.70 103256.91 4359.31
v -138803.70 103256.91 4415.90
v -138817.02 103252.57 4415.90
v -138936.09 103081.95 4390.90
v -138936.09 103081.95 4415.90
v -138947.81 103079.72 4415.90
v -147017.29 105353.13 4390.90
v -146925.56 105328.61 4384.54
v -146925.56 105328.61 4415.90
v -147017.29 105353.13 4415.90
v -147011.36 105343.26 4415.90
v -146919.59 105318.73 4415.90
v -146624.51 105248.15 4363.68
v -146624.51 105248.15 4415.90
v -146618.45 105238.25 4415.90
v -146450.45 105201.63 4358.57
v -146450.45 105201.63 4415.90
v -146444.33 105191.71 4415.90
v -145799.17 105027.57 4372.50
v -145799.17 105027.57 4415.90
v -145792.83 105017.59 4415.90
v -145368.89 104912.57 4390.90
v -145368.89 104912.57 4415.90
v -145362.40 104902.55 4415.90
v -138609.83 119265.70 3261.80
v -138449.81 119352.86 3245.51
v -138449.81 119352.86 3286.80
v -138609.83 119265.70 3286.80
v -138611.09 119255.91 3286.80
v -138451.79 119342.67 3286.80
v -138308.89 119429.61 3231.17
v -138308.89 119429.61 3286.80
v -138311.51 119419.07 3286.80
v -137883.09 118786.14 3222.84
v -137883.09 118786.14 3286.80
v -137888.52 118779.85 3286.80
v -137876.26 118775.82 3222.71
v -137876.26 118775.82 3286.80
v -137881.74 118769.60 3286.80
v -137496.54 118201.99 3253.43
v -137496.54 118201.99 3286.80
v -137504.52 118199.56 3286.80
v -137495.84 118096.98 3261.80
v -137495.84 118096.98 3286.80
v -137503.83 118094.68 3286.80
v -137579.88 104011.98 4170.80
v -137542.38 104092.19 4158.17
v -137542.38 104092.19 4195.80
v -137579.88 104011.98 4195.80
v -137575.83 104001.74 4195.80
v -137538.51 104081.57 4195.80
v -136624.51 103665.21 4135.98
v -136624.51 103665.21 4195.80
v -136632.09 103659.91 4195.80
v -136378.87 103550.93 4139.87
v -136378.87 103550.93 4195.80
v -136389.51 103547.06 4195.80
v -136483.17 103327.95 4170.80
v -136483.17 103327.95 4195.80
v -136493.32 103325.14 4195.80
v -137221.57 144274.69 3726.50
v -136956.59 144660.18 3700.48
v -136956.59 144660.18 3755.80
v -137221.57 144274.69 3755.80
v -137219.51 144263.57 3755.80
v -136954.52 144649.06 3755.80
v -136624.51 144432.75 3696.29
v -136624.51 144432.75 3755.80
v -136628.88 144426.04 3755.80
v -136275.38 144193.64 3705.86
v -136275.38 144193.64 3755.80
v -136286.51 144191.57 3755.80
v -136624.51 143685.73 3726.17
v -136624.51 143685.73 3755.80
v -136633.21 143687.20 3755.80
v -136671.63 143617.19 3730.80
v -136671.63 143617.19 3755.80
v -136680.00 143619.13 3755.80
v -137353.26 144365.23 3730.80
v -137313.91 144338.17 3727.65
v -137313.91 144338.17 3755.80
v -137353.26 144365.23 3755.80
v -137351.20 144354.11 3755.80
v -137311.85 144327.05 3755.80
v -136809.10 145877.25 3653.28
v -136624.51 145755.17 3643.40
v -136624.51 145755.17 3708.90
v -136809.10 145877.25 3708.90
v -136813.51 145870.57 3708.90
v -136630.05 145749.24 3708.90
v -136186.55 145465.53 3637.46
v -136186.55 145465.53 3708.90
v -136194.75 145461.36 3708.90
v -135708.41 145149.31 3662.76
v -135708.41 145149.31 3708.90
v -135719.51 145147.06 3708.90
v -135789.25 145027.57 3672.50
v -135789.25 145027.57 3708.90
v -135798.91 145027.48 3708.90
v -135957.84 144773.65 3682.66
v -135957.84 144773.65 3708.90
v -135964.51 144778.07 3708.90
v -135978.38 144742.57 3683.90
v -135978.38 144742.57 3708.90
v -135984.44 144747.91 3708.90
v -136399.32 144742.57 3683.90
v -136624.51 144891.32 3677.95
v -136624.51 144891.32 3708.90
v -136399.32 144742.57 3708.90
v -136401.58 144753.65 3708.90
v -136626.78 144902.40 3708.90
v -136706.57 144945.52 3679.06
v -136706.57 144945.52 3708.90
v -136708.83 144956.60 3708.90
v -136767.01 144985.45 3683.90
v -136767.01 144985.45 3708.90
v -136769.27 144996.53 3708.90
v -137380.70 146254.93 3683.90
v -137380.70 146254.93 3708.90
v -137381.58 146245.93 3708.90
v -132499.51 147666.77 3342.50
v -132118.80 147863.01 3312.04
v -132118.80 147863.01 3367.50
v -132499.51 147666.77 3367.50
v -132496.24 147659.46 3367.50
v -132124.51 147851.07 3367.50
v -132049.84 147527.57 3306.53
v -132049.84 147527.57 3367.50
v -132056.66 147520.99 3367.50
v -131977.31 147174.77 3328.95
v -131977.31 147174.77 3367.50
v -131985.29 147173.83 3367.50
v -131933.48 146961.53 3342.50
v -131933.48 146961.53 3367.50
v -131942.15 146964.00 3367.50
v -128030.76 113319.05 2985.00
v -127648.37 113335.91 2954.41
v -127648.37 113335.91 3010.00
v -128030.76 113319.05 3010.00
v -128033.19 113310.93 3010.00
v -127656.01 113327.57 3010.00
v -127613.07 112527.57 2951.58
v -127613.07 112527.57 3010.00
v -127621.00 112526.01 3010.00
v -127573.09 111612.22 2985.00
v -127573.09 111612.22 3010.00
v -127581.37 111618.34 3010.00
v -129599.65 101320.21 3939.80
v -129364.52 101841.64 3909.54
v -129364.52 101841.64 3964.80
v -129599.65 101320.21 3964.80
v -129594.97 101311.14 3964.80
v -129360.51 101831.06 3964.80
v -129124.51 101733.67 3904.26
v -129124.51 101733.67 3964.80
v -129122.14 101723.83 3964.80
v -128511.63 101457.96 3939.80
v -128511.63 101457.96 3964.80
v -128513.41 101449.99 3964.80
v -128712.85 121091.87 2823.10
v -128455.83 121096.19 2792.26
v -128455.83 121096.19 2848.10
v -128712.85 121091.87 2848.10
v -128719.59 121083.76 2848.10
v -128463.01 121088.07 2848.10
v -128417.63 120734.45 2787.67
v -128417.63 120734.45 2848.10
v -128425.13 120729.31 2848.10
v -128342.99 120027.57 2778.72
v -128342.99 120027.57 2848.10
v -128351.11 120028.25 2848.10
v -128251.14 119157.72 2802.49
v -128251.14 119157.72 2848.10
v -128260.01 119165.57 2848.10
v -128254.61 119157.66 2802.91
v -128254.61 119157.66 2848.10
v -128263.48 119165.51 2848.10
v -128421.89 119154.69 2823.10
v -128421.89 119154.69 2848.10
v -128430.51 119162.53 2848.10
v -126676.18 143400.31 3178.70
v -126624.51 143421.39 3172.50
v -126624.51 143421.39 3203.70
v -126676.18 143400.31 3203.70
v -126679.53 143390.30 3203.70
v -126628.03 143411.31 3203.70
v -126365.63 143526.99 3151.79
v -126365.63 143526.99 3203.70
v -126370.01 143516.57 3203.70
v -126150.67 143001.42 3134.59
v -126150.67 143001.42 3203.70
v -126157.90 142997.98 3203.70
v -125956.86 142527.57 3145.79
v -125956.86 142527.57 3203.70
v -125966.67 142530.43 3203.70
v -125910.07 142413.18 3148.50
v -125910.07 142413.18 3203.70
v -125920.51 142417.57 3203.70
v -126336.34 142239.39 3172.50
v -126336.34 142239.39 3203.70
v -126345.36 142244.35 3203.70
v -126446.45 142194.50 3178.70
v -126446.45 142194.50 3203.70
v -126455.10 142199.61 3203.70
v -126343.78 109233.79 3067.75
v -125848.77 109251.82 3065.59
v -125848.77 109251.82 3121.20
v -126343.78 109233.79 3121.20
v -126336.01 109226.07 3121.20
v -125846.04 109243.92 3121.20
v -124864.40 109287.68 3061.29
v -124864.40 109287.68 3121.20
v -124871.67 109279.41 3121.20
v -124749.06 109291.89 3065.23
v -124749.06 109291.89 3121.20
v -124757.51 109283.57 3121.20
v -124759.35 109095.73 3096.20
v -124759.35 109095.73 3121.20
v -124767.70 109089.30 3121.20
v -126351.15 108996.73 3096.20
v -126351.15 108996.73 3121.20
v -126343.32 108991.23 3121.20
v -125675.34 120771.74 2564.30
v -125040.87 120943.92 2545.81
v -125040.87 120943.92 2589.30
v -125675.34 120771.74 2589.30
v -125676.52 120763.13 2589.30
v -125045.75 120934.30 2589.30
v -124648.84 121050.30 2534.38
v -124648.84 121050.30 2589.30
v -124656.01 121040.07 2589.30
v -124603.34 120506.39 2510.81
v -124603.34 120506.39 2589.30
v -124610.84 120500.10 2589.30
v -124563.28 120027.57 2490.05
v -124563.28 120027.57 2589.30
v -124571.07 120024.75 2589.30
v -124529.41 119622.67 2521.09
v -124529.41 119622.67 2589.30
v -124537.45 119622.79 2589.30
v -124482.25 119058.94 2564.30
v -124482.25 119058.94 2589.30
v -124490.63 119063.14 2589.30
v -121807.57 114974.80 2403.90
v -121694.80 115027.57 2383.75
v -121694.80 115027.57 2428.90
v -121807.57 114974.80 2428.90
v -121808.32 114965.61 2428.90
v -121697.39 115017.52 2428.90
v -121646.92 115049.97 2376.08
v -121646.92 115049.97 2428.90
v -121650.29 115039.56 2428.90
v -121624.51 115060.46 2372.50
v -121624.51 115060.46 2428.90
v -121628.25 115049.88 2428.90
v -121562.70 115089.39 2372.50
v -121562.70 115089.39 2428.90
v -121567.44 115078.33 2428.90
v -121507.88 115115.04 2373.67
v -121507.88 115115.04 2428.90
v -121513.51 115103.57 2428.90
v -121488.33 115027.57 2377.95
v -121488.33 115027.57 2428.90
v -121494.00 115016.25 2428.90
v -121454.00 114873.95 2403.90
v -121454.00 114873.95 2428.90
v -121459.72 114862.89 2428.90
v -115915.35 123550.09 2187.40
v -115660.50 123649.93 2156.82
v -115660.50 123649.93 2212.40
v -115915.35 123550.09 2212.40
v -115915.97 123541.26 2212.40
v -115665.02 123639.57 2212.40
v -115615.80 123536.28 2151.45
v -115615.80 123536.28 2212.40
v -115620.69 123526.85 2212.40
v -115219.10 122527.57 2160.07
v -115219.10 122527.57 2212.40
v -115227.24 122526.42 2212.40
v -114947.13 121836.04 2165.97
v -114947.13 121836.04 2212.40
v -114957.51 121840.57 2212.40
v -115171.13 121748.29 2187.40
v -115171.13 121748.29 2212.40
v -115178.08 121754.16 2212.40
v -131132.26 105490.19 3715.80
v -131131.80 105491.26 3715.70
v -131131.80 105491.26 3740.80
v -131132.26 105490.19 3740.80
v -131127.47 105481.01 3740.80
v -131127.01 105482.07 3740.80
v -129804.66 105210.75 3685.05
v -129804.66 105210.75 3740.80
v -129807.01 105203.07 3740.80
v -129352.97 105027.57 3681.64
v -129352.97 105027.57 3740.80
v -129355.39 105019.92 3740.80
v -129190.43 104961.65 3680.41
v -129190.43 104961.65 3740.80
v -129192.88 104954.01 3740.80
v -129124.51 104934.92 3679.91
v -129124.51 104934.92 3740.80
v -129126.97 104927.28 3740.80
v -128968.66 104871.72 3672.50
v -128968.66 104871.72 3740.80
v -128971.15 104864.09 3740.80
v -127411.76 104240.33 3598.46
v -127411.76 104240.33 3740.80
v -127414.50 104232.80 3740.80
v -126624.51 103921.07 3693.80
v -126624.51 103921.07 3740.80
v -126627.38 103913.60 3740.80
v -126487.96 103865.69 3715.80
v -126487.96 103865.69 3740.80
v -126490.85 103858.23 3740.80
v -127906.95 104456.26 3620.80
v -127401.01 104251.07 3596.74
v -127401.01 104251.07 3665.80
v -127906.95 104456.26 3665.80
v -127911.60 104443.03 3665.80
v -127405.80 104237.91 3665.80
v -127202.34 104170.50 3620.80
v -127202.34 104170.50 3665.80
v -127207.19 104157.36 3665.80
v -127911.60 104443.03 3620.80
v -127207.19 104157.36 3620.80
v -119903.87 115757.13 2412.14
v -119868.00 115771.05 2413.02
v -119868.00 115771.05 2467.70
v -119903.87 115757.13 2467.70
v -119893.51 115752.57 2467.70
v -119857.76 115766.45 2467.70
v -119124.51 116059.76 2431.21
v -119124.51 116059.76 2467.70
v -119116.72 116054.21 2467.70
v -118067.26 116470.31 2414.79
v -118067.26 116470.31 2467.70
v -118062.95 116463.40 2467.70
v -117437.05 116715.03 2405.00
v -117437.05 116715.03 2467.70
v -117434.82 116707.32 2467.70
v -116624.51 117030.55 2392.38
v -116624.51 117030.55 2467.70
v -116624.96 117021.80 2467.70
v -116266.52 117169.57 2401.14
v -116266.52 117169.57 2467.70
v -116268.14 117160.36 2467.70
v -115378.45 117514.42 2422.87
v -115378.45 117514.42 2467.70
v -115383.01 117504.07 2467.70
v -115239.53 117157.55 2442.70
v -115239.53 117157.55 2467.70
v -115246.04 117152.22 2467.70
v -116564.01 115833.07 2442.70
v -116624.51 115809.56 2441.22
v -116624.51 115809.56 2467.70
v -116564.01 115833.07 2467.70
v -116574.37 115837.63 2467.70
v -116634.87 115814.12 2467.70
v -116719.75 115772.57 2442.70
v -116719.75 115772.57 2467.70
v -116730.10 115777.13 2467.70
v -119689.62 115207.46 2442.70
v -119689.62 115207.46 2467.70
v -119680.96 115207.27 2467.70
v -114360.14 138741.26 2210.20
v -114245.10 138786.39 2191.79
v -114245.10 138786.39 2235.20
v -114360.14 138741.26 2235.20
v -114364.43 138730.98 2235.20
v -114249.51 138776.07 2235.20
v -114124.51 138492.12 2172.50
v -114124.51 138492.12 2235.20
v -114129.74 138483.78 2235.20
v -113844.15 137807.93 2161.29
v -113844.15 137807.93 2235.20
v -113851.27 137804.20 2235.20
v -113729.27 137527.57 2156.69
v -113729.27 137527.57 2235.20
v -113737.16 137525.72 2235.20
v -113454.86 136857.91 2172.50
v -113454.86 136857.91 2235.20
v -113464.60 136860.58 2235.20
v -113324.90 136540.77 2179.99
v -113324.90 136540.77 2235.20
v -113335.51 136545.57 2235.20
v -113886.70 136347.25 2210.20
v -113886.70 136347.25 2235.20
v -113895.77 136352.59 2235.20
v -115132.64 106698.19 3246.00
v -114984.39 106670.40 3241.18
v -114984.39 106670.40 3271.00
v -115132.64 106698.19 3271.00
v -115126.27 106688.86 3271.00
v -114978.02 106661.06 3271.00
v -114908.89 107067.91 3222.26
v -114908.89 107067.91 3271.00
v -114902.52 107058.57 3271.00
v -114635.46 107016.62 3213.38
v -114635.46 107016.62 3271.00
v -114633.30 107008.08 3271.00
v -114124.51 106920.79 3221.04
v -114124.51 106920.79 3271.00
v -114130.22 106913.72 3271.00
v -113888.17 106876.46 3215.13
v -113888.17 106876.46 3271.00
v -113897.51 106870.07 3271.00
v -113954.80 106523.96 3246.00
v -113954.80 106523.96 3271.00
v -113964.15 106517.57 3271.00
v -111392.29 114353.12 2380.90
v -111118.65 114521.71 2352.27
v -111118.65 114521.71 2405.90
v -111392.29 114353.12 2405.90
v -111390.39 114344.90 2405.90
v -111120.96 114510.89 2405.90
v -111099.41 114533.56 2350.25
v -111099.41 114533.56 2405.90
v -111102.01 114522.56 2405.90
v -111048.92 114451.98 2349.48
v -111048.92 114451.98 2405.90
v -111051.96 114441.69 2405.90
v -110533.29 113618.79 2341.55
v -110533.29 113618.79 2405.90
v -110540.82 113615.76 2405.90
v -110132.99 112971.96 2377.29
v -110132.99 112971.96 2405.90
v -110144.01 112974.56 2405.90
v -110173.42 112947.02 2380.90
v -110173.42 112947.02 2405.90
v -110183.77 112950.03 2405.90
v -111419.51 118258.06 2256.10
v -111041.60 118453.85 2225.87
v -111041.60 118453.85 2281.10
v -111419.51 118258.06 2281.10
v -111422.93 118247.28 2281.10
v -111045.01 118443.07 2281.10
v -110924.12 118227.97 2216.47
v -110924.12 118227.97 2281.10
v -110928.55 118219.15 2281.10
v -110559.85 117527.57 2229.91
v -110559.85 117527.57 2281.10
v -110567.45 117524.85 2281.10
v -110193.23 116822.65 2243.45
v -110193.23 116822.65 2281.10
v -110204.02 116826.07 2281.10
v -110401.59 116714.65 2256.10
v -110401.59 116714.65 2281.10
v -110411.16 116718.70 2281.10
v -110168.26 115033.55 2256.00
v -109790.06 115249.98 2225.74
v -109790.06 115249.98 2281.00
v -110168.26 115033.55 2281.00
v -110166.28 115025.47 2281.00
v -109793.02 115239.07 2281.00
v -109662.46 115027.57 2215.54
v -109662.46 115027.57 2281.00
v -109666.76 115018.99 2281.00
v -109466.34 114685.74 2213.52
v -109466.34 114685.74 2281.00
v -109472.70 114680.75 2281.00
v -109124.51 114089.93 2247.51
v -109124.51 114089.93 2281.00
v -109134.46 114091.19 2281.00
v -109039.15 113941.13 2256.00
v -109039.15 113941.13 2281.00
v -109049.99 113943.96 2281.00
v -109653.85 122167.82 1864.80
v -109504.25 122147.84 1848.45
v -109504.25 122147.84 1889.80
v -109653.85 122167.82 1889.80
v -109653.83 122159.75 1889.80
v -109505.40 122139.92 1889.80
v -109124.51 122097.10 1824.16
v -109124.51 122097.10 1889.80
v -109128.66 122089.59 1889.80
v -108627.68 122030.73 1832.12
v -108627.68 122030.73 1889.80
v -108635.73 122023.73 1889.80
v -108509.52 122014.94 1834.01
v -108509.52 122014.94 1889.80
v -108518.51 122008.07 1889.80
v -108521.55 121924.60 1844.86
v -108521.55 121924.60 1889.80
v -108530.31 121919.39 1889.80
v -108543.67 121758.40 1864.80
v -108543.67 121758.40 1889.80
v -108552.03 121756.24 1889.80
v -109682.43 120765.35 2028.60
v -109124.51 120703.65 1991.37
v -109124.51 120703.65 2053.60
v -109682.43 120765.35 2053.60
v -109680.16 120757.05 2053.60
v -109128.22 120696.01 2053.60
v -108645.19 120650.64 1997.73
v -108645.19 120650.64 2053.60
v -108654.02 120643.57 2053.60
v -108663.13 120488.95 2017.13
v -108663.13 120488.95 2053.60
v -108671.73 120484.04 2053.60
v -108678.21 120353.16 2028.60
v -108678.21 120353.16 2053.60
v -108686.60 120350.08 2053.60
v -109442.01 126361.94 1797.90
v -109398.91 126378.40 1794.45
v -109398.91 126378.40 1822.90
v -109442.01 126361.94 1822.90
v -109446.19 126351.78 1822.90
v -109403.52 126368.07 1822.90
v -109159.05 125751.93 1775.26
v -109159.05 125751.93 1822.90
v -109166.52 125749.06 1822.90
v -109124.51 125661.92 1772.50
v -109124.51 125661.92 1822.90
v -109132.41 125660.15 1822.90
v -108948.61 125203.47 1765.46
v -108948.61 125203.47 1822.90
v -108958.65 125207.29 1822.90
v -108923.67 125138.46 1768.06
v -108923.67 125138.46 1822.90
v -108934.01 125143.07 1822.90
v -109069.25 125082.83 1770.29
v -109069.25 125082.83 1822.90
v -109079.59 125087.45 1822.90
v -109124.51 125061.72 1772.50
v -109124.51 125061.72 1822.90
v -109134.85 125066.33 1822.90
v -109149.22 125052.28 1774.48
v -109149.22 125052.28 1822.90
v -109159.56 125056.89 1822.90
v -109213.89 125027.57 1779.65
v -109213.89 125027.57 1822.90
v -109224.23 125032.18 1822.90
v -109405.42 124954.38 1797.90
v -109405.42 124954.38 1822.90
v -109415.76 124959.00 1822.90
v -106579.51 127539.39 1668.90
v -106200.04 127689.95 1638.54
v -106200.04 127689.95 1693.90
v -106579.51 127539.39 1693.90
v -106579.24 127530.89 1693.90
v -106204.52 127679.57 1693.90
v -106135.56 127527.57 1633.38
v -106135.56 127527.57 1693.90
v -106140.86 127519.24 1693.90
v -105813.55 126716.61 1640.06
v -105813.55 126716.61 1693.90
v -105822.95 126718.58 1693.90
v -105735.12 126519.07 1641.69
v -105735.12 126519.07 1693.90
v -105745.51 126523.56 1693.90
v -106019.02 126406.58 1668.90
v -106019.02 126406.58 1693.90
v -106027.58 126411.79 1693.90
v -104958.03 107239.08 2273.80
v -104901.76 107457.30 2243.11
v -104901.76 107457.30 2298.80
v -104958.03 107239.08 2298.80
v -104951.56 107232.14 2298.80
v -104896.01 107447.56 2298.80
v -104339.22 107312.87 2215.44
v -104339.22 107312.87 2298.80
v -104337.60 107304.19 2298.80
v -104124.51 107257.74 2204.88
v -104124.51 107257.74 2298.80
v -104124.48 107249.47 2298.80
v -103761.48 107164.53 2216.06
v -103761.48 107164.53 2298.80
v -103764.11 107156.95 2298.80
v -102792.77 106915.82 2245.91
v -102792.77 106915.82 2298.80
v -102802.52 106910.06 2298.80
v -102852.75 106683.40 2273.80
v -102852.75 106683.40 2298.80
v -102861.73 106680.63 2298.80
v -102526.17 146813.06 1408.57
v -102409.96 146742.13 1403.92
v -102409.96 146742.13 1463.50
v -102526.17 146813.06 1463.50
v -102523.51 146802.07 1463.50
v -102411.71 146733.83 1463.50
v -102166.01 146593.22 1409.87
v -102166.01 146593.22 1463.50
v -102177.01 146590.57 1463.50
v -102555.03 145958.09 1435.28
v -102555.03 145958.09 1463.50
v -102559.31 145966.41 1463.50
v -102604.35 145877.57 1438.50
v -102604.35 145877.57 1463.50
v -102607.78 145887.29 1463.50
v -102769.71 145877.57 1438.50
v -103031.17 146037.24 1432.11
v -103031.17 146037.24 1463.50
v -102769.71 145877.57 1463.50
v -102770.21 145887.25 1463.50
v -103027.01 146044.07 1463.50
v -103083.27 146068.81 1430.85
v -103083.27 146068.81 1463.50
v -103078.27 146075.13 1463.50
v -103274.51 146184.70 1438.50
v -103274.51 146184.70 1463.50
v -103266.43 146189.15 1463.50
v -103274.51 146590.66 1438.50
v -103241.56 146644.61 1437.18
v -103241.56 146644.61 1463.50
v -103274.51 146590.66 1463.50
v -103268.21 146585.64 1463.50
v -103236.11 146638.18 1463.50
v -103134.68 146819.55 1432.91
v -103134.68 146819.55 1463.50
v -103132.01 146808.57 1463.50
v -102688.18 146548.54 1415.05
v -102688.18 146548.54 1463.50
v -102685.51 146537.57 1463.50
v -106503.54 103307.93 3144.32
v -105988.88 103163.21 3143.67
v -105988.88 103163.21 3189.70
v -106503.54 103307.93 3189.70
v -106498.01 103298.06 3189.70
v -105985.07 103153.83 3189.70
v -104279.48 102682.53 3053.90
v -104279.48 102682.53 3189.70
v -104281.40 102674.76 3189.70
v -104124.51 102638.96 3045.77
v -104124.51 102638.96 3189.70
v -104126.95 102631.33 3189.70
v -104037.57 102614.51 3051.63
v -104037.57 102614.51 3189.70
v -104040.30 102606.97 3189.70
v -103728.38 102527.57 3072.50
v -103728.38 102527.57 3189.70
v -103732.15 102520.32 3189.70
v -102086.27 102065.81 3127.91
v -102086.27 102065.81 3189.70
v -102095.53 102060.11 3189.70
v -101904.14 102014.60 3134.06
v -101904.14 102014.60 3189.70
v -101914.01 102009.07 3189.70
v -101976.18 101759.23 3164.70
v -101976.18 101759.23 3189.70
v -101985.22 101756.67 3189.70
v -106522.55 103240.58 3164.70
v -106522.55 103240.58 3189.70
v -106516.79 103231.49 3189.70
v -104646.74 102800.35 3069.70
v -104299.71 102702.77 3051.48
v -104299.71 102702.77 3114.70
v -104646.74 102800.35 3114.70
v -104647.94 102786.14 3114.70
v -104302.93 102689.13 3114.70
v -104124.51 102653.50 3042.28
v -104124.51 102653.50 3114.70
v -104128.76 102640.15 3114.70
v -104026.22 102625.86 3048.91
v -104026.22 102625.86 3114.70
v -104031.04 102612.67 3114.70
v -103718.15 102539.23 3069.70
v -103718.15 102539.23 3114.70
v -103724.76 102526.55 3114.70
v -104647.94 102786.14 3069.70
v -103724.76 102526.55 3069.70
v -100945.24 133328.30 1731.70
v -101624.51 132989.64 1690.98
v -101624.51 132989.64 1756.70
v -100945.24 133328.30 1756.70
v -100952.57 133333.58 1756.70
v -101625.66 132998.01 1756.70
v -101932.86 132835.91 1697.17
v -101932.86 132835.91 1756.70
v -101931.20 132845.68 1756.70
v -102143.59 132730.85 1701.39
v -102143.59 132730.85 1756.70
v -102140.02 132741.57 1756.70
v -102341.16 133124.48 1725.04
v -102341.16 133124.48 1756.70
v -102334.01 133128.07 1756.70
v -102396.64 133235.44 1731.70
v -102396.64 133235.44 1756.70
v -102389.49 133239.03 1756.70
v -105828.74 105643.89 2534.88
v -104587.13 105490.18 2454.00
v -104587.13 105490.18 2578.50
v -105828.74 105643.89 2578.50
v -105822.51 105635.06 2578.50
v -104585.15 105481.88 2578.50
v -104124.51 105432.91 2423.86
v -104124.51 105432.91 2578.50
v -104124.12 105424.80 2578.50
v -103763.83 105388.26 2429.22
v -103763.83 105388.26 2578.50
v -103764.67 105380.30 2578.50
v -101733.90 105136.95 2459.37
v -101733.90 105136.95 2578.50
v -101741.68 105129.85 2578.50
v -101624.51 105123.41 2461.00
v -101624.51 105123.41 2578.50
v -101632.67 105116.36 2578.50
v -101539.23 105112.85 2469.09
v -101539.23 105112.85 2578.50
v -101547.68 105105.84 2578.50
v -100965.60 105041.83 2523.50
v -100965.60 105041.83 2578.50
v -100976.01 105035.06 2578.50
v -100969.93 105027.57 2524.87
v -100969.93 105027.57 2578.50
v -100980.31 105020.91 2578.50
v -101010.17 104894.85 2553.50
v -101010.17 104894.85 2578.50
v -101020.23 104889.26 2578.50
v -105858.89 105508.82 2553.50
v -105858.89 105508.82 2578.50
v -105852.33 105501.50 2578.50
v -104682.26 105516.07 2458.50
v -104603.23 105506.28 2453.35
v -104603.23 105506.28 2503.50
v -104682.26 105516.07 2503.50
v -104678.26 105501.46 2503.50
v -104599.69 105491.74 2503.50
v -104124.51 105447.02 2422.17
v -104124.51 105447.02 2503.50
v -104123.83 105432.82 2503.50
v -103751.27 105400.81 2427.71
v -103751.27 105400.81 2503.50
v -103752.81 105386.89 2503.50
v -101750.00 105153.05 2457.44
v -101750.00 105153.05 2503.50
v -101763.44 105140.61 2503.50
v -101678.79 105144.23 2458.50
v -101678.79 105144.23 2503.50
v -101692.66 105131.84 2503.50
v -104678.26 105501.46 2458.50
v -101692.66 105131.84 2458.50
v -100156.01 134821.57 1823.00
v -101418.51 134821.57 1772.50
v -101418.51 134821.57 1848.00
v -100156.01 134821.57 1848.00
v -100162.83 134829.57 1848.00
v -101416.77 134829.57 1848.00
v -101624.51 134821.57 1764.26
v -101624.51 134821.57 1848.00
v -101621.38 134829.57 1848.00
v -101830.51 134821.57 1772.50
v -101830.51 134821.57 1848.00
v -101825.98 134829.57 1848.00
v -102342.01 134821.57 1792.96
v -102342.01 134821.57 1848.00
v -102334.01 134829.57 1848.00
v -102342.01 135027.57 1801.20
v -102342.01 135027.57 1848.00
v -102334.01 135033.63 1848.00
v -102342.01 135572.57 1823.00
v -102342.01 135572.57 1848.00
v -102334.01 135573.51 1848.00
vt -726.0838 11.4878
vt -725.5037 11.4589
vt -725.5037 11.5503
vt -726.0838 11.5503
vt -726.0716 11.5503
vt -725.4977 11.5503
vt -724.9232 11.4313
vt -724.9232 11.5503
vt -724.9173 11.5503
vt -722.8802 11.3826
vt -722.8802 11.5503
vt -722.8746 11.5503
vt -721.0555 11.4122
vt -721.0555 11.5503
vt -721.0502 11.5503
vt -719.8786 11.4313
vt -719.8786 11.5503
vt -719.8841 11.5503
vt -718.0177 11.4614
vt -718.0177 11.5503
vt -718.0402 11.5503
vt -717.8085 11.4878
vt -717.8085 11.5503
vt -717.8319 11.5503
vt -715.4740 11.4878
vt -715.2434 11.4402
vt -715.2434 11.5503
vt -715.4740 11.5503
vt -715.5061 11.5503
vt -715.2765 11.5503
vt -715.7378 11.4878
vt -715.7378 11.5503
vt -715.7681 11.5503
vt -720.7110 11.4878
vt -720.7227 11.4863
vt -720.7227 11.5503
vt -720.7110 11.5503
vt -720.6883 11.5503
vt -720.7002 11.5503
vt -722.0369 11.4650
vt -722.0369 11.5503
vt -722.0377 11.5503
vt -722.8802 11.4714
vt -722.8802 11.5503
vt -722.8960 11.5503
vt -723.2235 11.4878
vt -723.2235 11.5503
vt -723.2455 11.5503
vt -742.2140 10.8933
vt -742.6328 10.8192
vt -742.6328 10.9575
vt -742.2140 10.9575
vt -742.1865 10.9575
vt -742.5990 10.9575
vt -741.6302 10.8101
vt -741.6302 10.9575
vt -741.6074 10.9575
vt -740.4325 10.8950
vt -740.4325 10.9575
vt -740.4229 10.9575
vt -737.8650 10.8950
vt -737.9377 10.8611
vt -737.9377 10.9575
vt -737.8650 10.9575
vt -737.8313 10.9575
vt -737.9040 10.9575
vt -735.3802 10.8539
vt -735.3802 10.9575
vt -735.3550 10.9575
vt -733.2872 10.8481
vt -733.2872 10.9575
vt -733.2691 10.9575
vt -729.9018 10.8386
vt -729.9018 10.9575
vt -729.8950 10.9575
vt -729.7440 10.8421
vt -729.7440 10.9575
vt -729.7377 10.9575
vt -729.1302 10.8555
vt -729.1302 10.9575
vt -729.1239 10.9575
vt -727.9048 10.8822
vt -727.9048 10.9575
vt -727.8985 10.9575
vt -725.6452 10.8617
vt -725.6452 10.9575
vt -725.6389 10.9575
vt -722.8802 10.8365
vt -722.8802 10.9575
vt -722.8944 10.9575
vt -721.9063 10.8277
vt -721.9063 10.9575
vt -721.9277 10.9575
vt -721.5265 10.8950
vt -721.5265 10.9575
vt -721.5504 10.9575
vt -742.2047 10.8950
vt -742.2047 10.9575
vt -742.1772 10.9575
vt -700.5028 10.0530
vt -700.4800 10.0452
vt -700.4800 10.1155
vt -700.5028 10.1155
vt -700.5306 10.1155
vt -700.5080 10.1155
vt -700.2444 9.9649
vt -700.2444 10.1155
vt -700.2751 10.1155
vt -700.2079 9.9767
vt -700.2079 10.1155
vt -700.2390 10.1155
vt -700.6299 10.0112
vt -700.6299 10.1155
vt -700.6595 10.1155
vt -700.9303 10.0530
vt -700.9303 10.1155
vt -700.9588 10.1155
vt -671.7364 9.1355
vt -670.0273 9.0671
vt -670.0273 9.1980
vt -671.7364 9.1980
vt -671.7536 9.1980
vt -670.0561 9.1980
vt -669.1095 9.0304
vt -669.1095 9.1980
vt -669.1446 9.1980
vt -668.9351 9.0622
vt -668.9351 9.1980
vt -668.9714 9.1980
vt -669.9626 9.0646
vt -669.9626 9.1980
vt -669.9856 9.1980
vt -670.9791 9.1052
vt -670.9791 9.1980
vt -670.9890 9.1980
vt -671.7364 9.1355
vt -671.7364 9.1980
vt -671.7379 9.1980
vt -710.9293 10.1195
vt -710.3802 10.0750
vt -710.3802 10.1820
vt -710.9293 10.1820
vt -710.9236 10.1820
vt -710.3745 10.1820
vt -709.1926 10.0262
vt -709.1926 10.1820
vt -709.1869 10.1820
vt -706.9521 10.0428
vt -706.9521 10.1820
vt -706.9465 10.1820
vt -704.1302 10.0656
vt -704.1302 10.1820
vt -704.1253 10.1820
vt -703.3389 10.0721
vt -703.3389 10.1820
vt -703.3342 10.1820
vt -702.0371 10.0826
vt -702.0371 10.1820
vt -702.0327 10.1820
vt -701.5136 10.0895
vt -701.5136 10.1820
vt -701.5102 10.1820
vt -700.4481 10.1030
vt -700.4481 10.1820
vt -700.4477 10.1820
vt -699.8106 10.1195
vt -699.8106 10.1820
vt -699.8155 10.1820
vt -659.3615 8.6405
vt -658.4466 8.6039
vt -658.4466 8.7030
vt -659.3615 8.7030
vt -659.3727 8.7030
vt -658.4633 8.7030
vt -656.4667 8.5654
vt -656.4667 8.7030
vt -656.4952 8.7030
vt -656.4838 8.5254
vt -656.4838 8.7030
vt -656.5123 8.7030
vt -656.5038 8.5262
vt -656.5038 8.7030
vt -656.5321 8.7030
vt -656.5241 8.5270
vt -656.5241 8.7030
vt -656.5523 8.7030
vt -656.5409 8.6062
vt -656.5409 8.7030
vt -656.5689 8.7030
vt -658.4456 8.6039
vt -658.4456 8.7030
vt -658.4479 8.7030
vt -659.3614 8.6405
vt -659.3614 8.7030
vt -659.3514 8.7030
vt -632.5157 9.4388
vt -631.1595 9.3501
vt -631.1595 9.5013
vt -632.5157 9.5013
vt -632.4779 9.5013
vt -631.1399 9.5013
vt -629.1302 9.3600
vt -629.1302 9.5013
vt -629.1380 9.5013
vt -628.4837 9.3631
vt -628.4837 9.5013
vt -628.5002 9.5013
vt -627.7695 9.4313
vt -627.7695 9.5013
vt -627.7956 9.5013
vt -627.7498 9.4388
vt -627.7498 9.5013
vt -627.7762 9.5013
vt -607.4977 10.9772
vt -606.1954 10.9334
vt -606.1954 11.0397
vt -607.4977 11.0397
vt -607.5063 11.0397
vt -606.2117 11.0397
vt -605.1515 10.8983
vt -605.1515 11.0397
vt -605.1740 11.0397
vt -605.0451 10.9772
vt -605.0451 11.0397
vt -605.0688 11.0397
vt -630.9261 10.9772
vt -630.6354 10.9613
vt -630.6354 11.0397
vt -630.9261 11.0397
vt -630.8865 11.0397
vt -630.5958 11.0397
vt -629.6816 10.9092
vt -629.6816 11.0397
vt -629.6418 11.0397
vt -629.1302 10.8964
vt -629.1302 11.0397
vt -629.0901 11.0397
vt -627.0669 10.9313
vt -627.0669 11.0397
vt -627.0260 11.0397
vt -625.7037 10.9772
vt -625.7037 11.0397
vt -625.6624 11.0397
vt -644.6888 8.1545
vt -644.5067 8.1138
vt -644.5067 8.2170
vt -644.6888 8.2170
vt -644.6675 8.2170
vt -644.4862 8.2170
vt -644.3463 8.0779
vt -644.3463 8.2170
vt -644.3265 8.2170
vt -641.6731 8.0571
vt -641.6731 8.2170
vt -641.6709 8.2170
vt -641.6302 8.0568
vt -641.6302 8.2170
vt -641.6283 8.2170
vt -639.2463 8.1336
vt -639.2463 8.2170
vt -639.2602 8.2170
vt -638.9821 8.1545
vt -638.9821 8.2170
vt -638.9963 8.2170
vt -603.9796 10.4270
vt -604.0864 10.3954
vt -604.0864 10.4895
vt -603.9796 10.4895
vt -603.9439 10.4895
vt -604.0502 10.4895
vt -600.7243 10.3399
vt -600.7243 10.4895
vt -600.7300 10.4895
vt -599.8245 10.3497
vt -599.8245 10.4895
vt -599.8414 10.4895
vt -599.5278 10.4270
vt -599.5278 10.4895
vt -599.5462 10.4895
vt -703.7407 9.3163
vt -704.0419 9.2512
vt -704.0419 9.3895
vt -703.7407 9.3895
vt -703.7077 9.3895
vt -704.0089 9.3895
vt -702.6431 9.2407
vt -702.6431 9.3895
vt -702.6373 9.3895
vt -701.1726 9.2646
vt -701.1726 9.3895
vt -701.1952 9.3895
vt -700.7756 9.3154
vt -700.7756 9.3895
vt -700.8010 9.3895
vt -700.7220 9.3270
vt -700.7220 9.3895
vt -700.7478 9.3895
vt -704.2962 9.3270
vt -704.1302 9.3191
vt -704.1302 9.3895
vt -704.2962 9.3895
vt -704.2633 9.3895
vt -704.0973 9.3895
vt -706.7159 9.1332
vt -705.9492 9.1085
vt -705.9492 9.2722
vt -706.7159 9.2722
vt -706.7102 9.2722
vt -705.9482 9.2722
vt -704.1302 9.0937
vt -704.1302 9.2722
vt -704.1403 9.2722
vt -702.1443 9.1569
vt -702.1443 9.2722
vt -702.1664 9.2722
vt -702.0421 9.1813
vt -702.0421 9.2722
vt -702.0660 9.2722
vt -701.8287 9.2066
vt -701.8287 9.2722
vt -701.8564 9.2722
vt -701.8024 9.2097
vt -701.8024 9.2722
vt -701.8309 9.2722
vt -702.8547 9.2097
vt -703.7896 9.1949
vt -703.7896 9.2722
vt -702.8547 9.2722
vt -702.8881 9.2722
vt -703.8229 9.2722
vt -704.1302 9.1976
vt -704.1302 9.2722
vt -704.1636 9.2722
vt -704.3812 9.2097
vt -704.3812 9.2722
vt -704.4145 9.2722
vt -709.0891 9.2097
vt -709.0891 9.2722
vt -709.0688 9.2722
vt -700.4157 8.3562
vt -699.9545 8.2801
vt -699.9545 8.4187
vt -700.4157 8.4187
vt -700.3892 8.4187
vt -699.9390 8.4187
vt -698.9435 8.2663
vt -698.9435 8.4187
vt -698.9441 8.4187
vt -697.8802 8.3224
vt -697.8802 8.4187
vt -697.8978 8.4187
vt -697.2375 8.3562
vt -697.2375 8.4187
vt -697.2654 8.4187
vt -603.3745 7.4625
vt -602.4607 7.3860
vt -602.4607 7.5250
vt -603.3745 7.5250
vt -603.3603 7.5250
vt -602.4590 7.5250
vt -600.3516 7.3789
vt -600.3516 7.5250
vt -600.3675 7.5250
vt -597.9633 7.4625
vt -597.9633 7.5250
vt -597.9993 7.5250
vt -577.2996 9.8495
vt -578.0154 9.7738
vt -578.0154 9.9120
vt -577.2996 9.9120
vt -577.2653 9.9120
vt -577.9789 9.9120
vt -577.1454 9.7607
vt -577.1454 9.9120
vt -577.1149 9.9120
vt -574.9240 9.8495
vt -574.9240 9.9120
vt -574.9085 9.9120
vt -624.5118 7.0577
vt -623.8801 6.9807
vt -623.8801 7.1202
vt -624.5118 7.1202
vt -624.5084 7.1202
vt -623.8777 7.1202
vt -622.8802 6.9692
vt -622.8802 7.1202
vt -622.8861 7.1202
vt -620.9264 6.9468
vt -620.9264 7.1202
vt -620.9484 7.1202
vt -618.5222 7.0062
vt -618.5222 7.1202
vt -618.5640 7.1202
vt -618.5307 7.0073
vt -618.5307 7.1202
vt -618.5725 7.1202
vt -618.9415 7.0577
vt -618.9415 7.1202
vt -618.9826 7.1202
vt -675.1912 7.9467
vt -675.1148 7.9313
vt -675.1148 8.0092
vt -675.1912 8.0092
vt -675.1746 8.0092
vt -675.0983 8.0092
vt -674.7315 7.8795
vt -674.7315 8.0092
vt -674.7165 8.0092
vt -672.8802 7.8365
vt -672.8802 8.0092
vt -672.8897 8.0092
vt -671.2111 7.8645
vt -671.2111 8.0092
vt -671.2427 8.0092
vt -670.8081 7.8712
vt -670.8081 8.0092
vt -670.8452 8.0092
vt -671.4393 7.9313
vt -671.4393 8.0092
vt -671.4743 8.0092
vt -671.6024 7.9467
vt -671.6024 8.0092
vt -671.6368 8.0092
vt -588.9439 7.6694
vt -587.7515 7.6640
vt -587.7515 7.8030
vt -588.9439 7.8030
vt -588.9052 7.8030
vt -587.7249 7.8030
vt -585.3802 7.6532
vt -585.3802 7.8030
vt -585.3777 7.8030
vt -585.1024 7.6631
vt -585.1024 7.8030
vt -585.1027 7.8030
vt -584.6377 7.7405
vt -584.6377 7.8030
vt -584.6425 7.8030
vt -588.3697 7.7405
vt -588.3697 7.8030
vt -588.3364 7.8030
vt -616.1177 6.4108
vt -614.9620 6.3645
vt -614.9620 6.4733
vt -616.1177 6.4733
vt -616.0991 6.4733
vt -614.9501 6.4733
vt -614.2479 6.3360
vt -614.2479 6.4733
vt -614.2402 6.4733
vt -612.7743 6.2770
vt -612.7743 6.4733
vt -612.7773 6.4733
vt -611.4771 6.2251
vt -611.4771 6.4733
vt -611.4896 6.4733
vt -610.3802 6.3027
vt -610.3802 6.4733
vt -610.4006 6.4733
vt -608.8530 6.4108
vt -608.8530 6.4733
vt -608.8844 6.4733
vt -591.9559 6.0098
vt -591.8059 5.9594
vt -591.8059 6.0723
vt -591.9559 6.0723
vt -591.9348 6.0723
vt -591.7873 6.0723
vt -591.7422 5.9402
vt -591.7422 6.0723
vt -591.7246 6.0723
vt -591.7124 5.9313
vt -591.7124 6.0723
vt -591.6953 6.0723
vt -591.6302 5.9313
vt -591.6302 6.0723
vt -591.6144 6.0723
vt -591.5573 5.9342
vt -591.5573 6.0723
vt -591.5427 6.0723
vt -591.2898 5.9449
vt -591.2898 6.0723
vt -591.2756 6.0723
vt -590.8199 6.0098
vt -590.8199 6.0723
vt -590.8065 6.0723
vt -598.6636 5.4685
vt -598.2761 5.3921
vt -598.2761 5.5310
vt -598.6636 5.5310
vt -598.6431 5.5310
vt -598.2615 5.5310
vt -597.8802 5.3786
vt -597.8802 5.5310
vt -597.8689 5.5310
vt -594.3667 5.4002
vt -594.3667 5.5310
vt -594.3841 5.5310
vt -591.9579 5.4149
vt -591.9579 5.5310
vt -591.9952 5.5310
vt -592.2985 5.4685
vt -592.2985 5.5310
vt -592.3306 5.5310
vt -591.5561 9.2895
vt -591.5576 9.2892
vt -591.5576 9.3520
vt -591.5561 9.3520
vt -591.5212 9.3520
vt -591.5227 9.3520
vt -587.5385 9.2126
vt -587.5385 9.3520
vt -587.5252 9.3520
vt -585.9514 9.2041
vt -585.9514 9.3520
vt -585.9383 9.3520
vt -585.3802 9.2010
vt -585.3802 9.3520
vt -585.3672 9.3520
vt -585.1486 9.1998
vt -585.1486 9.3520
vt -585.1356 9.3520
vt -584.6010 9.1813
vt -584.6010 9.3520
vt -584.5881 9.3520
vt -579.1302 8.9962
vt -579.1302 9.3520
vt -579.1182 9.3520
vt -576.3640 9.2345
vt -576.3640 9.3520
vt -576.3524 9.3520
vt -575.8841 9.2895
vt -575.8841 9.3520
vt -575.8727 9.3520
vt -580.9080 9.0520
vt -579.1302 8.9918
vt -579.1302 9.1645
vt -580.9080 9.1645
vt -580.8866 9.1645
vt -579.1093 9.1645
vt -578.4321 9.0520
vt -578.4321 9.1645
vt -578.4114 9.1645
vt -580.8866 9.0520
vt -578.4114 9.0520
vt -589.1525 6.0303
vt -589.0976 6.0325
vt -589.0976 6.1692
vt -589.1525 6.1692
vt -589.1152 6.1692
vt -589.0605 6.1692
vt -587.9607 6.0780
vt -587.9607 6.1692
vt -587.9273 6.1692
vt -586.3439 6.0370
vt -586.3439 6.1692
vt -586.3159 6.1692
vt -585.3802 6.0125
vt -585.3802 6.1692
vt -585.3554 6.1692
vt -584.1377 5.9809
vt -584.1377 6.1692
vt -584.1169 6.1692
vt -583.5902 6.0028
vt -583.5902 6.1692
vt -583.5712 6.1692
vt -582.2322 6.0572
vt -582.2322 6.1692
vt -582.2177 6.1692
vt -580.9927 6.1067
vt -580.9927 6.1692
vt -580.9957 6.1692
vt -580.9927 6.1067
vt -581.0852 6.1030
vt -581.0852 6.1692
vt -580.9927 6.1692
vt -581.0300 6.1692
vt -581.1225 6.1692
vt -581.2308 6.1067
vt -581.2308 6.1692
vt -581.2681 6.1692
vt -587.2427 6.1067
vt -587.2427 6.1692
vt -587.2206 6.1692
vt -632.7535 5.5255
vt -632.5787 5.4795
vt -632.5787 5.5880
vt -632.7535 5.5880
vt -632.7385 5.5880
vt -632.5640 5.5880
vt -631.5416 5.4313
vt -631.5416 5.5880
vt -631.5338 5.5880
vt -629.1302 5.4032
vt -629.1302 5.5880
vt -629.1387 5.5880
vt -628.1421 5.3917
vt -628.1421 5.5880
vt -628.1572 5.5880
vt -625.7819 5.4313
vt -625.7819 5.5880
vt -625.8130 5.5880
vt -624.6642 5.4500
vt -624.6642 5.5880
vt -624.7027 5.5880
vt -625.5849 5.5255
vt -625.5849 5.5880
vt -625.6209 5.5880
vt -554.5771 8.1150
vt -554.1370 8.1029
vt -554.1370 8.1775
vt -554.5771 8.1775
vt -554.5378 8.1775
vt -554.0977 8.1775
vt -554.9420 8.0556
vt -554.9420 8.1775
vt -554.9027 8.1775
vt -554.1302 8.0335
vt -554.1302 8.1775
vt -554.1035 8.1775
vt -552.6132 8.0526
vt -552.6132 8.1775
vt -552.6099 8.1775
vt -551.9116 8.0378
vt -551.9116 8.1775
vt -551.9189 8.1775
vt -551.1969 8.1150
vt -551.1969 8.1775
vt -551.2043 8.1775
vt -564.3635 5.9523
vt -564.1009 5.8807
vt -564.1009 6.0148
vt -564.3635 6.0148
vt -564.3382 6.0148
vt -564.0796 6.0148
vt -564.0824 5.8756
vt -564.0824 6.0148
vt -564.0614 6.0148
vt -563.7523 5.8737
vt -563.7523 6.0148
vt -563.7341 6.0148
vt -560.3802 5.8539
vt -560.3802 6.0148
vt -560.3915 6.0148
vt -557.7624 5.9432
vt -557.7624 6.0148
vt -557.7964 6.0148
vt -557.8011 5.9523
vt -557.8011 6.0148
vt -557.8345 6.0148
vt -574.1939 5.6402
vt -573.7386 5.5647
vt -573.7386 5.7027
vt -574.1939 5.7027
vt -574.1755 5.7027
vt -573.7202 5.7027
vt -572.8802 5.5412
vt -572.8802 5.7027
vt -572.8693 5.7027
vt -570.2186 5.5748
vt -570.2186 5.7027
vt -570.2307 5.7027
vt -567.5397 5.6086
vt -567.5397 5.7027
vt -567.5752 5.7027
vt -567.7906 5.6402
vt -567.7906 5.7027
vt -567.8247 5.7027
vt -563.0045 5.6400
vt -562.6001 5.5643
vt -562.6001 5.7025
vt -563.0045 5.7025
vt -562.9794 5.7025
vt -562.5802 5.7025
vt -561.7251 5.5389
vt -561.7251 5.7025
vt -561.7144 5.7025
vt -560.3802 5.5338
vt -560.3802 5.7025
vt -560.3836 5.7025
vt -558.0361 5.6188
vt -558.0361 5.7025
vt -558.0641 5.7025
vt -557.4507 5.6400
vt -557.4507 5.7025
vt -557.4849 5.7025
vt -579.5542 4.6620
vt -579.1302 4.6211
vt -579.1302 4.7245
vt -579.5542 4.7245
vt -579.5340 4.7245
vt -579.1133 4.7245
vt -578.0540 4.5604
vt -578.0540 4.7245
vt -578.0456 4.7245
vt -576.6460 4.5803
vt -576.6460 4.7245
vt -576.6486 4.7245
vt -576.3111 4.5850
vt -576.3111 4.7245
vt -576.3165 4.7245
vt -576.1154 4.6121
vt -576.1154 4.7245
vt -576.1243 4.7245
vt -575.7552 4.6620
vt -575.7552 4.7245
vt -575.7707 4.7245
vt -576.1195 5.0715
vt -574.5704 4.9784
vt -574.5704 5.1340
vt -576.1195 5.1340
vt -576.0930 5.1340
vt -574.5606 5.1340
vt -573.2396 4.9943
vt -573.2396 5.1340
vt -573.2440 5.1340
vt -572.8802 5.0428
vt -572.8802 5.1340
vt -572.8894 5.1340
vt -572.5784 5.0715
vt -572.5784 5.1340
vt -572.5917 5.1340
vt -589.5099 4.4947
vt -589.4433 4.4861
vt -589.4433 4.5572
vt -589.5099 4.5572
vt -589.4949 4.5572
vt -589.4290 4.5572
vt -587.2774 4.4382
vt -587.2774 4.5572
vt -587.2889 4.5572
vt -586.9661 4.4313
vt -586.9661 4.5572
vt -586.9814 4.5572
vt -585.3802 4.4137
vt -585.3802 4.5572
vt -585.4149 4.5572
vt -585.1553 4.4201
vt -585.1553 4.5572
vt -585.1927 4.5572
vt -585.3802 4.4257
vt -585.3802 4.5572
vt -585.4176 4.5572
vt -585.4656 4.4313
vt -585.4656 4.5572
vt -585.5029 4.5572
vt -585.5037 4.4362
vt -585.5037 4.5572
vt -585.5411 4.5572
vt -585.6037 4.4491
vt -585.6037 4.5572
vt -585.6410 4.5572
vt -585.8995 4.4947
vt -585.8995 4.5572
vt -585.9369 4.5572
vt -585.2972 4.1723
vt -584.7250 4.0964
vt -584.7250 4.2348
vt -585.2972 4.2348
vt -585.2753 4.2348
vt -584.7102 4.2348
vt -584.1578 4.0835
vt -584.1578 4.2348
vt -584.1503 4.2348
vt -581.3254 4.1002
vt -581.3254 4.2348
vt -581.3538 4.2348
vt -580.6355 4.1042
vt -580.6355 4.2348
vt -580.6727 4.2348
vt -581.0640 4.1723
vt -581.0640 4.2348
vt -581.0984 4.2348
vt -530.4928 5.6845
vt -530.8976 5.6078
vt -530.8976 5.7470
vt -530.4928 5.7470
vt -530.4592 5.7470
vt -530.8589 5.7470
vt -529.1302 5.5386
vt -529.1302 5.7470
vt -529.1045 5.7470
vt -528.4556 5.5122
vt -528.4556 5.7470
vt -528.4349 5.7470
vt -527.3150 5.5401
vt -527.3150 5.7470
vt -527.3026 5.7470
vt -524.2715 5.6148
vt -524.2715 5.7470
vt -524.2815 5.7470
vt -523.8404 5.6845
vt -523.8404 5.7470
vt -523.8559 5.7470
vt -623.3481 3.5214
vt -622.8802 3.5098
vt -622.8802 3.6587
vt -623.3481 3.6587
vt -623.3140 3.6587
vt -622.8638 3.6587
vt -621.8981 3.5247
vt -621.8981 3.6587
vt -621.9189 3.6587
vt -621.2828 3.5882
vt -621.2828 3.6587
vt -621.3143 3.6587
vt -621.2048 3.5962
vt -621.2048 3.6587
vt -621.2377 3.6587
vt -621.6182 3.5962
vt -622.6710 3.5803
vt -622.6710 3.6587
vt -621.6182 3.6587
vt -621.6437 3.6587
vt -622.6777 3.6587
vt -622.8802 3.5771
vt -622.8802 3.6587
vt -622.8835 3.6587
vt -623.6480 3.5962
vt -623.6480 3.6587
vt -623.6390 3.6587
vt -624.6629 3.5962
vt -624.7154 3.5930
vt -624.7154 3.6587
vt -624.6629 3.6587
vt -624.6346 3.6587
vt -624.6857 3.6587
vt -624.8856 3.5823
vt -624.8856 3.6587
vt -624.8514 3.6587
vt -623.0918 3.5376
vt -623.0918 3.6587
vt -623.0577 3.6587
vt -524.5287 7.8608
vt -522.8802 7.8592
vt -522.8802 7.9742
vt -524.5287 7.9742
vt -524.4902 7.9742
vt -522.8473 7.9742
vt -517.4050 7.6348
vt -517.4050 7.9742
vt -517.3904 7.9742
vt -516.9087 7.6144
vt -516.9087 7.9742
vt -516.8957 7.9742
vt -516.6302 7.6291
vt -516.6302 7.9742
vt -516.6182 7.9742
vt -515.6399 7.6813
vt -515.6399 7.9742
vt -515.6312 7.9742
vt -510.3802 7.8198
vt -510.3802 7.9742
vt -510.3891 7.9742
vt -509.7968 7.8351
vt -509.7968 7.9742
vt -509.8077 7.9742
vt -509.3385 7.9117
vt -509.3385 7.9742
vt -509.3547 7.9742
vt -524.4078 7.9117
vt -524.4078 7.9742
vt -524.3707 7.9742
vt -518.6177 7.6742
vt -517.5062 7.6287
vt -517.5062 7.7867
vt -518.6177 7.7867
vt -518.5852 7.7867
vt -517.4801 7.7867
vt -516.9450 7.6057
vt -516.9450 7.7867
vt -516.9223 7.7867
vt -516.6302 7.6223
vt -516.6302 7.7867
vt -516.6093 7.7867
vt -515.6435 7.6742
vt -515.6435 7.7867
vt -515.6283 7.7867
vt -518.5852 7.6742
vt -515.6283 7.6742
vt -585.6838 4.3293
vt -586.5354 4.2275
vt -586.5354 4.3918
vt -585.6838 4.3918
vt -585.7154 4.3918
vt -586.5592 4.3918
vt -586.9219 4.2429
vt -586.9219 4.3918
vt -586.9422 4.3918
vt -587.1861 4.2535
vt -587.1861 4.3918
vt -587.2040 4.3918
vt -588.6641 4.3126
vt -588.6641 4.3918
vt -588.6552 4.3918
vt -589.0802 4.3293
vt -589.0802 4.3918
vt -589.0713 4.3918
vt -528.6816 6.3372
vt -525.1933 6.1350
vt -525.1933 6.4463
vt -528.6816 6.4463
vt -528.6439 6.4463
vt -525.1676 6.4463
vt -523.8936 6.0597
vt -523.8936 6.4463
vt -523.8723 6.4463
vt -522.8802 6.0730
vt -522.8802 6.4463
vt -522.8624 6.4463
vt -517.1771 6.1484
vt -517.1771 6.4463
vt -517.1788 6.4463
vt -516.8698 6.1525
vt -516.8698 6.4463
vt -516.8726 6.4463
vt -516.6302 6.1727
vt -516.6302 6.4463
vt -516.6338 6.4463
vt -515.0186 6.3087
vt -515.0186 6.4463
vt -515.0277 6.4463
vt -514.9937 6.3122
vt -514.9937 6.4463
vt -515.0031 6.4463
vt -514.7626 6.3838
vt -514.7626 6.4463
vt -514.7737 6.4463
vt -528.4193 6.3838
vt -528.4193 6.4463
vt -528.3846 6.4463
vt -525.4958 6.1463
vt -525.2738 6.1334
vt -525.2738 6.2588
vt -525.4958 6.2588
vt -525.4493 6.2588
vt -525.2286 6.2588
vt -523.9288 6.0554
vt -523.9288 6.2588
vt -523.8916 6.2588
vt -522.8802 6.0693
vt -522.8802 6.2588
vt -522.8492 6.2588
vt -517.2576 6.1436
vt -517.2576 6.2588
vt -517.2601 6.2588
vt -517.0575 6.1463
vt -517.0575 6.2588
vt -517.0612 6.2588
vt -525.4493 6.1463
vt -517.0612 6.1463
vt -587.4440 4.5575
vt -590.6002 4.4313
vt -590.6002 4.6200
vt -587.4440 4.6200
vt -587.4810 4.6200
vt -590.6159 4.6200
vt -591.1152 4.4107
vt -591.1152 4.6200
vt -591.1274 4.6200
vt -591.6302 4.4313
vt -591.6302 4.6200
vt -591.6389 4.6200
vt -592.9090 4.4824
vt -592.9090 4.6200
vt -592.9090 4.6200
vt -593.4239 4.5030
vt -593.4239 4.6200
vt -593.4191 4.6200
vt -594.7865 4.5575
vt -594.7865 4.6200
vt -594.7688 4.6200
vn 0.5194 0.8545 0.0000
vn 0.0000 -0.0000 1.0000
vn 0.5627 0.8267 0.0000
vn 0.5625 0.8268 0.0000
vn 0.8259 -0.5638 0.0000
vn 0.8257 -0.5641 0.0000
vn -0.5625 -0.8268 0.0000
vn -0.8257 0.5642 0.0000
vn -0.5624 -0.8269 0.0000
vn -0.8454 0.5341 0.0000
vn 0.5332 0.8460 0.0000
vn -0.8445 0.5356 0.0000
vn 0.5323 0.8466 0.0000
vn 0.5329 0.8462 0.0000
vn 0.5328 0.8463 0.0000
vn 0.8455 -0.5340 0.0000
vn -0.8457 0.5337 0.0000
vn 0.7737 -0.6335 0.0000
vn -0.6746 -0.7382 0.0000
vn 0.9086 -0.4177 0.0000
vn -0.4164 -0.9092 0.0000
vn -0.4156 -0.9095 0.0000
vn 0.5463 0.8376 0.0000
vn 0.5562 0.8311 0.0000
vn 0.6219 0.7831 0.0000
vn 0.6160 0.7878 0.0000
vn 0.7730 0.6345 0.0000
vn 0.6871 0.7265 0.0000
vn 0.7011 -0.7131 0.0000
vn -0.7281 -0.6854 0.0000
vn 0.1374 0.9905 0.0000
vn 0.8648 -0.5022 0.0000
vn 0.2888 0.9574 0.0000
vn 0.7974 -0.6034 0.0000
vn 0.2582 0.9661 0.0000
vn -0.4783 0.8782 0.0000
vn 0.8339 0.5519 0.0000
vn 1.0000 0.0066 0.0000
vn -0.9059 0.4235 0.0000
vn 0.4218 0.9067 0.0000
vn 0.9058 -0.4237 0.0000
vn -0.8241 0.5665 0.0000
vn 0.5651 0.8251 0.0000
vn 0.8241 -0.5665 0.0000
vn 0.5665 0.8240 0.0000
vn 0.5516 0.8341 0.0000
vn 0.8331 -0.5531 0.0000
vn 0.8344 -0.5511 0.0000
vn -0.5512 -0.8344 0.0000
vn 0.5513 0.8343 0.0000
vn -0.4582 0.8889 0.0000
vn 0.9795 0.2014 0.0000
vn -0.0441 0.9990 0.0000
vn 0.9990 0.0436 0.0000
vn -0.9116 0.4111 0.0000
vn 0.4103 0.9120 0.0000
vn -0.0168 0.9999 0.0000
vn 0.9945 0.1050 0.0000
vn 0.0178 -0.9998 0.0000
vn -0.3777 0.9259 0.0000
vn 0.9256 0.3786 0.0000
vn 0.3775 -0.9260 0.0000
vn -0.0364 0.9993 0.0000
vn 0.9986 -0.0524 0.0000
vn -0.9995 0.0311 0.0000
vn -0.2619 0.9651 0.0000
vn 0.9965 0.0834 0.0000
vn -0.4238 0.9057 0.0000
vn 0.9759 0.2181 0.0000
vn -0.3648 0.9311 0.0000
vn 0.9306 0.3660 0.0000
vn 0.3648 -0.9311 0.0000
vn -0.9203 0.3911 0.0000
vn 0.2068 0.9784 0.0000
vn 0.3758 0.9267 0.0000
vn -0.9434 0.3317 0.0000
vn 0.9381 -0.3463 0.0000
vn -0.3620 0.9322 0.0000
vn 0.9319 0.3628 0.0000
vn 0.3621 -0.9321 0.0000
vn -0.9317 -0.3632 0.0000
vn -0.3652 0.9309 0.0000
vn 0.9253 0.3792 0.0000
vn 0.3257 -0.9455 0.0000
vn 0.1843 0.9829 0.0000
vn -0.9824 0.1866 0.0000
vn 0.9826 -0.1857 0.0000
vn -0.5245 0.8514 0.0000
vn 0.8503 0.5262 0.0000
vn 0.5250 -0.8511 0.0000
vn -0.4600 0.8879 0.0000
vn 0.8872 0.4614 0.0000
vn 0.4602 -0.8878 0.0000
vn -0.4967 0.8679 0.0000
vn 0.8674 0.4976 0.0000
vn 0.1324 0.9912 0.0000
vn 0.9913 -0.1319 0.0000
vn 0.1099 0.9939 0.0000
vn 0.9939 -0.1103 0.0000
vn -0.3567 0.9342 0.0000
vn 0.9339 0.3576 0.0000
vn 0.9336 0.3582 0.0000
vn 0.3569 -0.9341 0.0000
vn -0.3688 0.9295 0.0000
vn 0.9294 0.3690 0.0000
vn 0.3684 -0.9297 0.0000
vn -0.9683 0.2497 0.0000
vn 0.2487 0.9686 0.0000
vn 0.9683 -0.2499 0.0000
vn 0.5210 0.8536 0.0000
vn 0.8528 -0.5223 0.0000
vn -0.5212 -0.8534 0.0000
vn -0.5182 -0.8552 0.0000
vn -0.8533 0.5213 0.0000
vn 0.5189 0.8549 0.0000
vn -0.8528 0.5223 0.0000
vn 0.2707 0.9627 0.0000
vn 0.9624 -0.2715 0.0000
vn -0.9624 0.2715 0.0000
vn -0.9965 0.0841 0.0000
vn 0.8868 -0.4621 0.0000
vn 0.4462 -0.8949 0.0000
vn -0.8937 -0.4486 0.0000
vn -0.8944 -0.4472 0.0000
vn 0.1229 0.9924 0.0000
vn 0.9570 -0.2902 0.0000
vn -0.9760 0.2178 0.0000
vn -0.9644 -0.2646 0.0000
vn 0.6662 -0.7458 0.0000
vn 0.0000 -1.0000 0.0000
vn -1.0000 -0.0000 0.0000
f 1/1/1 3/3/1 2/2/1
f 1/1/1 4/4/1 3/3/1
f 5/5/2 6/6/2 3/3/2
f 5/5/2 3/3/2 4/4/2
f 2/2/3 8/8/3 7/7/3
f 2/2/3 3/3/3 8/8/3
f 6/6/2 9/9/2 8/8/2
f 6/6/2 8/8/2 3/3/2
f 7/7/3 11/11/3 10/10/3
f 7/7/3 8/8/3 11/11/3
f 9/9/2 12/12/2 11/11/2
f 9/9/2 11/11/2 8/8/2
f 10/10/3 14/14/3 13/13/3
f 10/10/3 11/11/3 14/14/3
f 12/12/2 15/15/2 14/14/2
f 12/12/2 14/14/2 11/11/2
f 13/13/4 17/17/4 16/16/4
f 13/13/4 14/14/4 17/17/4
f 15/15/2 18/18/2 17/17/2
f 15/15/2 17/17/2 14/14/2
f 16/16/4 20/20/4 19/19/4
f 16/16/4 17/17/4 20/20/4
f 18/18/2 21/21/2 20/20/2
f 18/18/2 20/20/2 17/17/2
f 19/19/5 23/23/5 22/22/5
f 19/19/5 20/20/5 23/23/5
f 21/21/2 24/24/2 23/23/2
f 21/21/2 23/23/2 20/20/2
f 25/25/6 27/27/6 26/26/6
f 25/25/6 28/28/6 27/27/6
f 29/29/2 30/30/2 27/27/2
f 29/29/2 27/27/2 28/28/2
f 26/26/7 32/32/7 31/31/7
f 26/26/7 27/27/7 32/32/7
f 30/30/2 33/33/2 32/32/2
f 30/30/2 32/32/2 27/27/2
f 34/34/8 36/36/8 35/35/8
f 34/34/8 37/37/8 36/36/8
f 38/38/2 39/39/2 36/36/2
f 38/38/2 36/36/2 37/37/2
f 35/35/9 41/41/9 40/40/9
f 35/35/9 36/36/9 41/41/9
f 39/39/2 42/42/2 41/41/2
f 39/39/2 41/41/2 36/36/2
f 40/40/9 44/44/9 43/43/9
f 40/40/9 41/41/9 44/44/9
f 42/42/2 45/45/2 44/44/2
f 42/42/2 44/44/2 41/41/2
f 43/43/9 47/47/9 46/46/9
f 43/43/9 44/44/9 47/47/9
f 45/45/2 48/48/2 47/47/2
f 45/45/2 47/47/2 44/44/2
f 49/49/10 51/51/10 50/50/10
f 49/49/10 52/52/10 51/51/10
f 53/53/2 54/54/2 51/51/2
f 53/53/2 51/51/2 52/52/2
f 50/50/11 56/56/11 55/55/11
f 50/50/11 51/51/11 56/56/11
f 54/54/2 57/57/2 56/56/2
f 54/54/2 56/56/2 51/51/2
f 55/55/11 59/59/11 58/58/11
f 55/55/11 56/56/11 59/59/11
f 57/57/2 60/60/2 59/59/2
f 57/57/2 59/59/2 56/56/2
f 61/61/12 63/63/12 62/62/12
f 61/61/12 64/64/12 63/63/12
f 65/65/2 66/66/2 63/63/2
f 65/65/2 63/63/2 64/64/2
f 62/62/13 68/68/13 67/67/13
f 62/62/13 63/63/13 68/68/13
f 66/66/2 69/69/2 68/68/2
f 66/66/2 68/68/2 63/63/2
f 67/67/13 71/71/13 70/70/13
f 67/67/13 68/68/13 71/71/13
f 69/69/2 72/72/2 71/71/2
f 69/69/2 71/71/2 68/68/2
f 70/70/13 74/74/13 73/73/13
f 70/70/13 71/71/13 74/74/13
f 72/72/2 75/75/2 74/74/2
f 72/72/2 74/74/2 71/71/2
f 73/73/13 77/77/13 76/76/13
f 73/73/13 74/74/13 77/77/13
f 75/75/2 78/78/2 77/77/2
f 75/75/2 77/77/2 74/74/2
f 76/76/14 80/80/14 79/79/14
f 76/76/14 77/77/14 80/80/14
f 78/78/2 81/81/2 80/80/2
f 78/78/2 80/80/2 77/77/2
f 79/79/14 83/83/14 82/82/14
f 79/79/14 80/80/14 83/83/14
f 81/81/2 84/84/2 83/83/2
f 81/81/2 83/83/2 80/80/2
f 82/82/14 86/86/14 85/85/14
f 82/82/14 83/83/14 86/86/14
f 84/84/2 87/87/2 86/86/2
f 84/84/2 86/86/2 83/83/2
f 85/85/15 89/89/15 88/88/15
f 85/85/15 86/86/15 89/89/15
f 87/87/2 90/90/2 89/89/2
f 87/87/2 89/89/2 86/86/2
f 88/88/15 92/92/15 91/91/15
f 88/88/15 89/89/15 92/92/15
f 90/90/2 93/93/2 92/92/2
f 90/90/2 92/92/2 89/89/2
f 91/91/16 95/95/16 94/94/16
f 91/91/16 92/92/16 95/95/16
f 93/93/2 96/96/2 95/95/2
f 93/93/2 95/95/2 92/92/2
f 97/97/17 52/52/17 49/49/17
f 97/97/17 98/98/17 52/52/17
f 99/99/2 53/53/2 52/52/2
f 99/99/2 52/52/2 98/98/2
f 100/100/18 102/102/18 101/101/18
f 100/100/18 103/103/18 102/102/18
f 104/104/2 105/105/2 102/102/2
f 104/104/2 102/102/2 103/103/2
f 101/101/18 107/107/18 106/106/18
f 101/101/18 102/102/18 107/107/18
f 105/105/2 108/108/2 107/107/2
f 105/105/2 107/107/2 102/102/2
f 106/106/18 110/110/18 109/109/18
f 106/106/18 107/107/18 110/110/18
f 108/108/2 111/111/2 110/110/2
f 108/108/2 110/110/2 107/107/2
f 109/109/19 113/113/19 112/112/19
f 109/109/19 110/110/19 113/113/19
f 111/111/2 114/114/2 113/113/2
f 111/111/2 113/113/2 110/110/2
f 112/112/19 116/116/19 115/115/19
f 112/112/19 113/113/19 116/116/19
f 114/114/2 117/117/2 116/116/2
f 114/114/2 116/116/2 113/113/2
f 118/118/20 120/120/20 119/119/20
f 118/118/20 121/121/20 120/120/20
f 122/122/2 123/123/2 120/120/2
f 122/122/2 120/120/2 121/121/2
f 119/119/20 125/125/20 124/124/20
f 119/119/20 120/120/20 125/125/20
f 123/123/2 126/126/2 125/125/2
f 123/123/2 125/125/2 120/120/2
f 124/124/20 128/128/20 127/127/20
f 124/124/20 125/125/20 128/128/20
f 126/126/2 129/129/2 128/128/2
f 126/126/2 128/128/2 125/125/2
f 127/127/21 131/131/21 130/130/21
f 127/127/21 128/128/21 131/131/21
f 129/129/2 132/132/2 131/131/2
f 129/129/2 131/131/2 128/128/2
f 130/130/21 134/134/21 133/133/21
f 130/130/21 131/131/21 134/134/21
f 132/132/2 135/135/2 134/134/2
f 132/132/2 134/134/2 131/131/2
f 133/133/22 137/137/22 136/136/22
f 133/133/22 134/134/22 137/137/22
f 135/135/2 138/138/2 137/137/2
f 135/135/2 137/137/2 134/134/2
f 139/139/23 141/141/23 140/140/23
f 139/139/23 142/142/23 141/141/23
f 143/143/2 144/144/2 141/141/2
f 143/143/2 141/141/2 142/142/2
f 140/140/23 146/146/23 145/145/23
f 140/140/23 141/141/23 146/146/23
f 144/144/2 147/147/2 146/146/2
f 144/144/2 146/146/2 141/141/2
f 145/145/23 149/149/23 148/148/23
f 145/145/23 146/146/23 149/149/23
f 147/147/2 150/150/2 149/149/2
f 147/147/2 149/149/2 146/146/2
f 148/148/24 152/152/24 151/151/24
f 148/148/24 149/149/24 152/152/24
f 150/150/2 153/153/2 152/152/2
f 150/150/2 152/152/2 149/149/2
f 151/151/24 155/155/24 154/154/24
f 151/151/24 152/152/24 155/155/24
f 153/153/2 156/156/2 155/155/2
f 153/153/2 155/155/2 152/152/2
f 154/154/24 158/158/24 157/157/24
f 154/154/24 155/155/24 158/158/24
f 156/156/2 159/159/2 158/158/2
f 156/156/2 158/158/2 155/155/2
f 157/157/25 161/161/25 160/160/25
f 157/157/25 158/158/25 161/161/25
f 159/159/2 162/162/2 161/161/2
f 159/159/2 161/161/2 158/158/2
f 160/160/26 164/164/26 163/163/26
f 160/160/26 161/161/26 164/164/26
f 162/162/2 165/165/2 164/164/2
f 162/162/2 164/164/2 161/161/2
f 163/163/27 167/167/27 166/166/27
f 163/163/27 164/164/27 167/167/27
f 165/165/2 168/168/2 167/167/2
f 165/165/2 167/167/2 164/164/2
f 169/169/28 171/171/28 170/170/28
f 169/169/28 172/172/28 171/171/28
f 173/173/2 174/174/2 171/171/2
f 173/173/2 171/171/2 172/172/2
f 170/170/28 176/176/28 175/175/28
f 170/170/28 171/171/28 176/176/28
f 174/174/2 177/177/2 176/176/2
f 174/174/2 176/176/2 171/171/2
f 175/175/29 179/179/29 178/178/29
f 175/175/29 176/176/29 179/179/29
f 177/177/2 180/180/2 179/179/2
f 177/177/2 179/179/2 176/176/2
f 178/178/29 182/182/29 181/181/29
f 178/178/29 179/179/29 182/182/29
f 180/180/2 183/183/2 182/182/2
f 180/180/2 182/182/2 179/179/2
f 181/181/29 185/185/29 184/184/29
f 181/181/29 182/182/29 185/185/29
f 183/183/2 186/186/2 185/185/2
f 183/183/2 185/185/2 182/182/2
f 184/184/29 188/188/29 187/187/29
f 184/184/29 185/185/29 188/188/29
f 186/186/2 189/189/2 188/188/2
f 186/186/2 188/188/2 185/185/2
f 187/187/30 191/191/30 190/190/30
f 187/187/30 188/188/30 191/191/30
f 189/189/2 192/192/2 191/191/2
f 189/189/2 191/191/2 188/188/2
f 190/190/30 194/194/30 193/193/30
f 190/190/30 191/191/30 194/194/30
f 192/192/2 195/195/2 194/194/2
f 192/192/2 194/194/2 191/191/2
f 196/196/31 198/198/31 197/197/31
f 196/196/31 199/199/31 198/198/31
f 200/200/2 201/201/2 198/198/2
f 200/200/2 198/198/2 199/199/2
f 197/197/31 203/203/31 202/202/31
f 197/197/31 198/198/31 203/203/31
f 201/201/2 204/204/2 203/203/2
f 201/201/2 203/203/2 198/198/2
f 202/202/31 206/206/31 205/205/31
f 202/202/31 203/203/31 206/206/31
f 204/204/2 207/207/2 206/206/2
f 204/204/2 206/206/2 203/203/2
f 205/205/32 209/209/32 208/208/32
f 205/205/32 206/206/32 209/209/32
f 207/207/2 210/210/2 209/209/2
f 207/207/2 209/209/2 206/206/2
f 208/208/32 212/212/32 211/211/32
f 208/208/32 209/209/32 212/212/32
f 210/210/2 213/213/2 212/212/2
f 210/210/2 212/212/2 209/209/2
f 214/214/33 216/216/33 215/215/33
f 214/214/33 217/217/33 216/216/33
f 218/218/2 219/219/2 216/216/2
f 218/218/2 216/216/2 217/217/2
f 215/215/33 221/221/33 220/220/33
f 215/215/33 216/216/33 221/221/33
f 219/219/2 222/222/2 221/221/2
f 219/219/2 221/221/2 216/216/2
f 220/220/34 224/224/34 223/223/34
f 220/220/34 221/221/34 224/224/34
f 222/222/2 225/225/2 224/224/2
f 222/222/2 224/224/2 221/221/2
f 226/226/35 228/228/35 227/227/35
f 226/226/35 229/229/35 228/228/35
f 230/230/2 231/231/2 228/228/2
f 230/230/2 228/228/2 229/229/2
f 227/227/35 233/233/35 232/232/35
f 227/227/35 228/228/35 233/233/35
f 231/231/2 234/234/2 233/233/2
f 231/231/2 233/233/2 228/228/2
f 232/232/35 236/236/35 235/235/35
f 232/232/35 233/233/35 236/236/35
f 234/234/2 237/237/2 236/236/2
f 234/234/2 236/236/2 233/233/2
f 235/235/35 239/239/35 238/238/35
f 235/235/35 236/236/35 239/239/35
f 237/237/2 240/240/2 239/239/2
f 237/237/2 239/239/2 236/236/2
f 238/238/35 242/242/35 241/241/35
f 238/238/35 239/239/35 242/242/35
f 240/240/2 243/243/2 242/242/2
f 240/240/2 242/242/2 239/239/2
f 244/244/36 246/246/36 245/245/36
f 244/244/36 247/247/36 246/246/36
f 248/248/2 249/249/2 246/246/2
f 248/248/2 246/246/2 247/247/2
f 245/245/36 251/251/36 250/250/36
f 245/245/36 246/246/36 251/251/36
f 249/249/2 252/252/2 251/251/2
f 249/249/2 251/251/2 246/246/2
f 250/250/37 254/254/37 253/253/37
f 250/250/37 251/251/37 254/254/37
f 252/252/2 255/255/2 254/254/2
f 252/252/2 254/254/2 251/251/2
f 253/253/37 257/257/37 256/256/37
f 253/253/37 254/254/37 257/257/37
f 255/255/2 258/258/2 257/257/2
f 255/255/2 257/257/2 254/254/2
f 256/256/37 260/260/37 259/259/37
f 256/256/37 257/257/37 260/260/37
f 258/258/2 261/261/2 260/260/2
f 258/258/2 260/260/2 257/257/2
f 259/259/38 263/263/38 262/262/38
f 259/259/38 260/260/38 263/263/38
f 261/261/2 264/264/2 263/263/2
f 261/261/2 263/263/2 260/260/2
f 265/265/39 267/267/39 266/266/39
f 265/265/39 268/268/39 267/267/39
f 269/269/2 270/270/2 267/267/2
f 269/269/2 267/267/2 268/268/2
f 266/266/40 272/272/40 271/271/40
f 266/266/40 267/267/40 272/272/40
f 270/270/2 273/273/2 272/272/2
f 270/270/2 272/272/2 267/267/2
f 271/271/40 275/275/40 274/274/40
f 271/271/40 272/272/40 275/275/40
f 273/273/2 276/276/2 275/275/2
f 273/273/2 275/275/2 272/272/2
f 274/274/41 278/278/41 277/277/41
f 274/274/41 275/275/41 278/278/41
f 276/276/2 279/279/2 278/278/2
f 276/276/2 278/278/2 275/275/2
f 280/280/42 282/282/42 281/281/42
f 280/280/42 283/283/42 282/282/42
f 284/284/2 285/285/2 282/282/2
f 284/284/2 282/282/2 283/283/2
f 281/281/43 287/287/43 286/286/43
f 281/281/43 282/282/43 287/287/43
f 285/285/2 288/288/2 287/287/2
f 285/285/2 287/287/2 282/282/2
f 286/286/43 290/290/43 289/289/43
f 286/286/43 287/287/43 290/290/43
f 288/288/2 291/291/2 290/290/2
f 288/288/2 290/290/2 287/287/2
f 289/289/44 293/293/44 292/292/44
f 289/289/44 290/290/44 293/293/44
f 291/291/2 294/294/2 293/293/2
f 291/291/2 293/293/2 290/290/2
f 292/292/44 296/296/44 295/295/44
f 292/292/44 293/293/44 296/296/44
f 294/294/2 297/297/2 296/296/2
f 294/294/2 296/296/2 293/293/2
f 298/298/45 300/300/45 299/299/45
f 298/298/45 301/301/45 300/300/45
f 302/302/2 303/303/2 300/300/2
f 302/302/2 300/300/2 301/301/2
f 299/299/45 283/283/45 280/280/45
f 299/299/45 300/300/45 283/283/45
f 303/303/2 284/284/2 283/283/2
f 303/303/2 283/283/2 300/300/2
f 304/304/46 306/306/46 305/305/46
f 304/304/46 307/307/46 306/306/46
f 308/308/2 309/309/2 306/306/2
f 308/308/2 306/306/2 307/307/2
f 305/305/46 311/311/46 310/310/46
f 305/305/46 306/306/46 311/311/46
f 309/309/2 312/312/2 311/311/2
f 309/309/2 311/311/2 306/306/2
f 310/310/46 314/314/46 313/313/46
f 310/310/46 311/311/46 314/314/46
f 312/312/2 315/315/2 314/314/2
f 312/312/2 314/314/2 311/311/2
f 313/313/47 317/317/47 316/316/47
f 313/313/47 314/314/47 317/317/47
f 315/315/2 318/318/2 317/317/2
f 315/315/2 317/317/2 314/314/2
f 316/316/47 320/320/47 319/319/47
f 316/316/47 317/317/47 320/320/47
f 318/318/2 321/321/2 320/320/2
f 318/318/2 320/320/2 317/317/2
f 319/319/48 323/323/48 322/322/48
f 319/319/48 320/320/48 323/323/48
f 321/321/2 324/324/2 323/323/2
f 321/321/2 323/323/2 320/320/2
f 325/325/49 327/327/49 326/326/49
f 325/325/49 328/328/49 327/327/49
f 329/329/2 330/330/2 327/327/2
f 329/329/2 327/327/2 328/328/2
f 326/326/49 332/332/49 331/331/49
f 326/326/49 327/327/49 332/332/49
f 330/330/2 333/333/2 332/332/2
f 330/330/2 332/332/2 327/327/2
f 331/331/49 335/335/49 334/334/49
f 331/331/49 332/332/49 335/335/49
f 333/333/2 336/336/2 335/335/2
f 333/333/2 335/335/2 332/332/2
f 337/337/50 307/307/50 304/304/50
f 337/337/50 338/338/50 307/307/50
f 339/339/2 308/308/2 307/307/2
f 339/339/2 307/307/2 338/338/2
f 340/340/51 342/342/51 341/341/51
f 340/340/51 343/343/51 342/342/51
f 344/344/2 345/345/2 342/342/2
f 344/344/2 342/342/2 343/343/2
f 341/341/52 347/347/52 346/346/52
f 341/341/52 342/342/52 347/347/52
f 345/345/2 348/348/2 347/347/2
f 345/345/2 347/347/2 342/342/2
f 346/346/52 350/350/52 349/349/52
f 346/346/52 347/347/52 350/350/52
f 348/348/2 351/351/2 350/350/2
f 348/348/2 350/350/2 347/347/2
f 349/349/52 353/353/52 352/352/52
f 349/349/52 350/350/52 353/353/52
f 351/351/2 354/354/2 353/353/2
f 351/351/2 353/353/2 350/350/2
f 355/355/53 357/357/53 356/356/53
f 355/355/53 358/358/53 357/357/53
f 359/359/2 360/360/2 357/357/2
f 359/359/2 357/357/2 358/358/2
f 356/356/54 362/362/54 361/361/54
f 356/356/54 357/357/54 362/362/54
f 360/360/2 363/363/2 362/362/2
f 360/360/2 362/362/2 357/357/2
f 361/361/54 365/365/54 364/364/54
f 361/361/54 362/362/54 365/365/54
f 363/363/2 366/366/2 365/365/2
f 363/363/2 365/365/2 362/362/2
f 367/367/55 369/369/55 368/368/55
f 367/367/55 370/370/55 369/369/55
f 371/371/2 372/372/2 369/369/2
f 371/371/2 369/369/2 370/370/2
f 368/368/56 374/374/56 373/373/56
f 368/368/56 369/369/56 374/374/56
f 372/372/2 375/375/2 374/374/2
f 372/372/2 374/374/2 369/369/2
f 373/373/56 377/377/56 376/376/56
f 373/373/56 374/374/56 377/377/56
f 375/375/2 378/378/2 377/377/2
f 375/375/2 377/377/2 374/374/2
f 379/379/57 381/381/57 380/380/57
f 379/379/57 382/382/57 381/381/57
f 383/383/2 384/384/2 381/381/2
f 383/383/2 381/381/2 382/382/2
f 380/380/58 386/386/58 385/385/58
f 380/380/58 381/381/58 386/386/58
f 384/384/2 387/387/2 386/386/2
f 384/384/2 386/386/2 381/381/2
f 385/385/58 389/389/58 388/388/58
f 385/385/58 386/386/58 389/389/58
f 387/387/2 390/390/2 389/389/2
f 387/387/2 389/389/2 386/386/2
f 388/388/58 392/392/58 391/391/58
f 388/388/58 389/389/58 392/392/58
f 390/390/2 393/393/2 392/392/2
f 390/390/2 392/392/2 389/389/2
f 391/391/59 395/395/59 394/394/59
f 391/391/59 392/392/59 395/395/59
f 393/393/2 396/396/2 395/395/2
f 393/393/2 395/395/2 392/392/2
f 394/394/59 398/398/59 397/397/59
f 394/394/59 395/395/59 398/398/59
f 396/396/2 399/399/2 398/398/2
f 396/396/2 398/398/2 395/395/2
f 400/400/60 402/402/60 401/401/60
f 400/400/60 403/403/60 402/402/60
f 404/404/2 405/405/2 402/402/2
f 404/404/2 402/402/2 403/403/2
f 401/401/60 407/407/60 406/406/60
f 401/401/60 402/402/60 407/407/60
f 405/405/2 408/408/2 407/407/2
f 405/405/2 407/407/2 402/402/2
f 406/406/61 410/410/61 409/409/61
f 406/406/61 407/407/61 410/410/61
f 408/408/2 411/411/2 410/410/2
f 408/408/2 410/410/2 407/407/2
f 409/409/61 413/413/61 412/412/61
f 409/409/61 410/410/61 413/413/61
f 411/411/2 414/414/2 413/413/2
f 411/411/2 413/413/2 410/410/2
f 412/412/61 416/416/61 415/415/61
f 412/412/61 413/413/61 416/416/61
f 414/414/2 417/417/2 416/416/2
f 414/414/2 416/416/2 413/413/2
f 415/415/62 419/419/62 418/418/62
f 415/415/62 416/416/62 419/419/62
f 417/417/2 420/420/2 419/419/2
f 417/417/2 419/419/2 416/416/2
f 418/418/62 422/422/62 421/421/62
f 418/418/62 419/419/62 422/422/62
f 420/420/2 423/423/2 422/422/2
f 420/420/2 422/422/2 419/419/2
f 424/424/63 426/426/63 425/425/63
f 424/424/63 427/427/63 426/426/63
f 428/428/2 429/429/2 426/426/2
f 428/428/2 426/426/2 427/427/2
f 425/425/63 431/431/63 430/430/63
f 425/425/63 426/426/63 431/431/63
f 429/429/2 432/432/2 431/431/2
f 429/429/2 431/431/2 426/426/2
f 430/430/63 434/434/63 433/433/63
f 430/430/63 431/431/63 434/434/63
f 432/432/2 435/435/2 434/434/2
f 432/432/2 434/434/2 431/431/2
f 433/433/64 437/437/64 436/436/64
f 433/433/64 434/434/64 437/437/64
f 435/435/2 438/438/2 437/437/2
f 435/435/2 437/437/2 434/434/2
f 439/439/65 427/427/65 424/424/65
f 439/439/65 440/440/65 427/427/65
f 441/441/2 428/428/2 427/427/2
f 441/441/2 427/427/2 440/440/2
f 442/442/66 444/444/66 443/443/66
f 442/442/66 445/445/66 444/444/66
f 446/446/2 447/447/2 444/444/2
f 446/446/2 444/444/2 445/445/2
f 443/443/66 449/449/66 448/448/66
f 443/443/66 444/444/66 449/449/66
f 447/447/2 450/450/2 449/449/2
f 447/447/2 449/449/2 444/444/2
f 448/448/67 452/452/67 451/451/67
f 448/448/67 449/449/67 452/452/67
f 450/450/2 453/453/2 452/452/2
f 450/450/2 452/452/2 449/449/2
f 451/451/67 455/455/67 454/454/67
f 451/451/67 452/452/67 455/455/67
f 453/453/2 456/456/2 455/455/2
f 453/453/2 455/455/2 452/452/2
f 454/454/67 458/458/67 457/457/67
f 454/454/67 455/455/67 458/458/67
f 456/456/2 459/459/2 458/458/2
f 456/456/2 458/458/2 455/455/2
f 457/457/67 461/461/67 460/460/67
f 457/457/67 458/458/67 461/461/67
f 459/459/2 462/462/2 461/461/2
f 459/459/2 461/461/2 458/458/2
f 463/463/68 465/465/68 464/464/68
f 463/463/68 466/466/68 465/465/68
f 467/467/2 468/468/2 465/465/2
f 467/467/2 465/465/2 466/466/2
f 464/464/68 470/470/68 469/469/68
f 464/464/68 465/465/68 470/470/68
f 468/468/2 471/471/2 470/470/2
f 468/468/2 470/470/2 465/465/2
f 469/469/68 473/473/68 472/472/68
f 469/469/68 470/470/68 473/473/68
f 471/471/2 474/474/2 473/473/2
f 471/471/2 473/473/2 470/470/2
f 472/472/68 476/476/68 475/475/68
f 472/472/68 473/473/68 476/476/68
f 474/474/2 477/477/2 476/476/2
f 474/474/2 476/476/2 473/473/2
f 475/475/68 479/479/68 478/478/68
f 475/475/68 476/476/68 479/479/68
f 477/477/2 480/480/2 479/479/2
f 477/477/2 479/479/2 476/476/2
f 478/478/69 482/482/69 481/481/69
f 478/478/69 479/479/69 482/482/69
f 480/480/2 483/483/2 482/482/2
f 480/480/2 482/482/2 479/479/2
f 481/481/69 485/485/69 484/484/69
f 481/481/69 482/482/69 485/485/69
f 483/483/2 486/486/2 485/485/2
f 483/483/2 485/485/2 482/482/2
f 487/487/70 489/489/70 488/488/70
f 487/487/70 490/490/70 489/489/70
f 491/491/2 492/492/2 489/489/2
f 491/491/2 489/489/2 490/490/2
f 488/488/71 494/494/71 493/493/71
f 488/488/71 489/489/71 494/494/71
f 492/492/2 495/495/2 494/494/2
f 492/492/2 494/494/2 489/489/2
f 493/493/71 497/497/71 496/496/71
f 493/493/71 494/494/71 497/497/71
f 495/495/2 498/498/2 497/497/2
f 495/495/2 497/497/2 494/494/2
f 496/496/71 500/500/71 499/499/71
f 496/496/71 497/497/71 500/500/71
f 498/498/2 501/501/2 500/500/2
f 498/498/2 500/500/2 497/497/2
f 499/499/72 503/503/72 502/502/72
f 499/499/72 500/500/72 503/503/72
f 501/501/2 504/504/2 503/503/2
f 501/501/2 503/503/2 500/500/2
f 505/505/73 507/507/73 506/506/73
f 505/505/73 508/508/73 507/507/73
f 509/509/2 510/510/2 507/507/2
f 509/509/2 507/507/2 508/508/2
f 506/506/74 512/512/74 511/511/74
f 506/506/74 507/507/74 512/512/74
f 510/510/2 513/513/2 512/512/2
f 510/510/2 512/512/2 507/507/2
f 511/511/75 515/515/75 514/514/75
f 511/511/75 512/512/75 515/515/75
f 513/513/2 516/516/2 515/515/2
f 513/513/2 515/515/2 512/512/2
f 514/514/75 518/518/75 517/517/75
f 514/514/75 515/515/75 518/518/75
f 516/516/2 519/519/2 518/518/2
f 516/516/2 518/518/2 515/515/2
f 517/517/75 521/521/75 520/520/75
f 517/517/75 518/518/75 521/521/75
f 519/519/2 522/522/2 521/521/2
f 519/519/2 521/521/2 518/518/2
f 520/520/75 524/524/75 523/523/75
f 520/520/75 521/521/75 524/524/75
f 522/522/2 525/525/2 524/524/2
f 522/522/2 524/524/2 521/521/2
f 523/523/75 527/527/75 526/526/75
f 523/523/75 524/524/75 527/527/75
f 525/525/2 528/528/2 527/527/2
f 525/525/2 527/527/2 524/524/2
f 526/526/75 530/530/75 529/529/75
f 526/526/75 527/527/75 530/530/75
f 528/528/2 531/531/2 530/530/2
f 528/528/2 530/530/2 527/527/2
f 529/529/75 533/533/75 532/532/75
f 529/529/75 530/530/75 533/533/75
f 531/531/2 534/534/2 533/533/2
f 531/531/2 533/533/2 530/530/2
f 535/535/75 537/537/75 536/536/75
f 535/535/75 538/538/75 537/537/75
f 539/539/2 540/540/2 537/537/2
f 539/539/2 537/537/2 538/538/2
f 536/536/75 542/542/75 541/541/75
f 536/536/75 537/537/75 542/542/75
f 540/540/2 543/543/2 542/542/2
f 540/540/2 542/542/2 537/537/2
f 535/535/76 544/544/76 539/539/76
f 535/535/76 539/539/76 538/538/76
f 541/541/77 543/543/77 545/545/77
f 541/541/77 542/542/77 543/543/77
f 546/546/78 548/548/78 547/547/78
f 546/546/78 549/549/78 548/548/78
f 550/550/2 551/551/2 548/548/2
f 550/550/2 548/548/2 549/549/2
f 547/547/78 553/553/78 552/552/78
f 547/547/78 548/548/78 553/553/78
f 551/551/2 554/554/2 553/553/2
f 551/551/2 553/553/2 548/548/2
f 552/552/78 556/556/78 555/555/78
f 552/552/78 553/553/78 556/556/78
f 554/554/2 557/557/2 556/556/2
f 554/554/2 556/556/2 553/553/2
f 555/555/78 559/559/78 558/558/78
f 555/555/78 556/556/78 559/559/78
f 557/557/2 560/560/2 559/559/2
f 557/557/2 559/559/2 556/556/2
f 558/558/78 562/562/78 561/561/78
f 558/558/78 559/559/78 562/562/78
f 560/560/2 563/563/2 562/562/2
f 560/560/2 562/562/2 559/559/2
f 561/561/78 565/565/78 564/564/78
f 561/561/78 562/562/78 565/565/78
f 563/563/2 566/566/2 565/565/2
f 563/563/2 565/565/2 562/562/2
f 564/564/78 568/568/78 567/567/78
f 564/564/78 565/565/78 568/568/78
f 566/566/2 569/569/2 568/568/2
f 566/566/2 568/568/2 565/565/2
f 567/567/79 571/571/79 570/570/79
f 567/567/79 568/568/79 571/571/79
f 569/569/2 572/572/2 571/571/2
f 569/569/2 571/571/2 568/568/2
f 573/573/80 575/575/80 574/574/80
f 573/573/80 576/576/80 575/575/80
f 577/577/2 578/578/2 575/575/2
f 577/577/2 575/575/2 576/576/2
f 574/574/80 580/580/80 579/579/80
f 574/574/80 575/575/80 580/580/80
f 578/578/2 581/581/2 580/580/2
f 578/578/2 580/580/2 575/575/2
f 582/582/81 549/549/81 546/546/81
f 582/582/81 583/583/81 549/549/81
f 584/584/2 550/550/2 549/549/2
f 584/584/2 549/549/2 583/583/2
f 585/585/82 587/587/82 586/586/82
f 585/585/82 588/588/82 587/587/82
f 589/589/2 590/590/2 587/587/2
f 589/589/2 587/587/2 588/588/2
f 586/586/83 592/592/83 591/591/83
f 586/586/83 587/587/83 592/592/83
f 590/590/2 593/593/2 592/592/2
f 590/590/2 592/592/2 587/587/2
f 591/591/83 595/595/83 594/594/83
f 591/591/83 592/592/83 595/595/83
f 593/593/2 596/596/2 595/595/2
f 593/593/2 595/595/2 592/592/2
f 594/594/83 598/598/83 597/597/83
f 594/594/83 595/595/83 598/598/83
f 596/596/2 599/599/2 598/598/2
f 596/596/2 598/598/2 595/595/2
f 597/597/83 601/601/83 600/600/83
f 597/597/83 598/598/83 601/601/83
f 599/599/2 602/602/2 601/601/2
f 599/599/2 601/601/2 598/598/2
f 600/600/83 604/604/83 603/603/83
f 600/600/83 601/601/83 604/604/83
f 602/602/2 605/605/2 604/604/2
f 602/602/2 604/604/2 601/601/2
f 603/603/84 607/607/84 606/606/84
f 603/603/84 604/604/84 607/607/84
f 605/605/2 608/608/2 607/607/2
f 605/605/2 607/607/2 604/604/2
f 609/609/85 611/611/85 610/610/85
f 609/609/85 612/612/85 611/611/85
f 613/613/2 614/614/2 611/611/2
f 613/613/2 611/611/2 612/612/2
f 610/610/86 616/616/86 615/615/86
f 610/610/86 611/611/86 616/616/86
f 614/614/2 617/617/2 616/616/2
f 614/614/2 616/616/2 611/611/2
f 615/615/85 619/619/85 618/618/85
f 615/615/85 616/616/85 619/619/85
f 617/617/2 620/620/2 619/619/2
f 617/617/2 619/619/2 616/616/2
f 618/618/85 622/622/85 621/621/85
f 618/618/85 619/619/85 622/622/85
f 620/620/2 623/623/2 622/622/2
f 620/620/2 622/622/2 619/619/2
f 621/621/85 625/625/85 624/624/85
f 621/621/85 622/622/85 625/625/85
f 623/623/2 626/626/2 625/625/2
f 623/623/2 625/625/2 622/622/2
f 624/624/87 628/628/87 627/627/87
f 624/624/87 625/625/87 628/628/87
f 626/626/2 629/629/2 628/628/2
f 626/626/2 628/628/2 625/625/2
f 630/630/88 632/632/88 631/631/88
f 630/630/88 633/633/88 632/632/88
f 634/634/2 635/635/2 632/632/2
f 634/634/2 632/632/2 633/633/2
f 631/631/88 637/637/88 636/636/88
f 631/631/88 632/632/88 637/637/88
f 635/635/2 638/638/2 637/637/2
f 635/635/2 637/637/2 632/632/2
f 636/636/89 640/640/89 639/639/89
f 636/636/89 637/637/89 640/640/89
f 638/638/2 641/641/2 640/640/2
f 638/638/2 640/640/2 637/637/2
f 639/639/89 643/643/89 642/642/89
f 639/639/89 640/640/89 643/643/89
f 641/641/2 644/644/2 643/643/2
f 641/641/2 643/643/2 640/640/2
f 642/642/89 646/646/89 645/645/89
f 642/642/89 643/643/89 646/646/89
f 644/644/2 647/647/2 646/646/2
f 644/644/2 646/646/2 643/643/2
f 645/645/90 649/649/90 648/648/90
f 645/645/90 646/646/90 649/649/90
f 647/647/2 650/650/2 649/649/2
f 647/647/2 649/649/2 646/646/2
f 651/651/91 653/653/91 652/652/91
f 651/651/91 654/654/91 653/653/91
f 655/655/2 656/656/2 653/653/2
f 655/655/2 653/653/2 654/654/2
f 652/652/92 658/658/92 657/657/92
f 652/652/92 653/653/92 658/658/92
f 656/656/2 659/659/2 658/658/2
f 656/656/2 658/658/2 653/653/2
f 657/657/92 661/661/92 660/660/92
f 657/657/92 658/658/92 661/661/92
f 659/659/2 662/662/2 661/661/2
f 659/659/2 661/661/2 658/658/2
f 660/660/92 664/664/92 663/663/92
f 660/660/92 661/661/92 664/664/92
f 662/662/2 665/665/2 664/664/2
f 662/662/2 664/664/2 661/661/2
f 663/663/93 667/667/93 666/666/93
f 663/663/93 664/664/93 667/667/93
f 665/665/2 668/668/2 667/667/2
f 665/665/2 667/667/2 664/664/2
f 669/669/94 671/671/94 670/670/94
f 669/669/94 672/672/94 671/671/94
f 673/673/2 674/674/2 671/671/2
f 673/673/2 671/671/2 672/672/2
f 670/670/95 676/676/95 675/675/95
f 670/670/95 671/671/95 676/676/95
f 674/674/2 677/677/2 676/676/2
f 674/674/2 676/676/2 671/671/2
f 675/675/95 679/679/95 678/678/95
f 675/675/95 676/676/95 679/679/95
f 677/677/2 680/680/2 679/679/2
f 677/677/2 679/679/2 676/676/2
f 678/678/95 682/682/95 681/681/95
f 678/678/95 679/679/95 682/682/95
f 680/680/2 683/683/2 682/682/2
f 680/680/2 682/682/2 679/679/2
f 681/681/95 685/685/95 684/684/95
f 681/681/95 682/682/95 685/685/95
f 683/683/2 686/686/2 685/685/2
f 683/683/2 685/685/2 682/682/2
f 687/687/96 689/689/96 688/688/96
f 687/687/96 690/690/96 689/689/96
f 691/691/2 692/692/2 689/689/2
f 691/691/2 689/689/2 690/690/2
f 688/688/96 694/694/96 693/693/96
f 688/688/96 689/689/96 694/694/96
f 692/692/2 695/695/2 694/694/2
f 692/692/2 694/694/2 689/689/2
f 693/693/96 697/697/96 696/696/96
f 693/693/96 694/694/96 697/697/96
f 695/695/2 698/698/2 697/697/2
f 695/695/2 697/697/2 694/694/2
f 696/696/96 700/700/96 699/699/96
f 696/696/96 697/697/96 700/700/96
f 698/698/2 701/701/2 700/700/2
f 698/698/2 700/700/2 697/697/2
f 699/699/97 703/703/97 702/702/97
f 699/699/97 700/700/97 703/703/97
f 701/701/2 704/704/2 703/703/2
f 701/701/2 703/703/2 700/700/2
f 702/702/97 706/706/97 705/705/97
f 702/702/97 703/703/97 706/706/97
f 704/704/2 707/707/2 706/706/2
f 704/704/2 706/706/2 703/703/2
f 708/708/98 710/710/98 709/709/98
f 708/708/98 711/711/98 710/710/98
f 712/712/2 713/713/2 710/710/2
f 712/712/2 710/710/2 711/711/2
f 709/709/98 715/715/98 714/714/98
f 709/709/98 710/710/98 715/715/98
f 713/713/2 716/716/2 715/715/2
f 713/713/2 715/715/2 710/710/2
f 714/714/99 718/718/99 717/717/99
f 714/714/99 715/715/99 718/718/99
f 716/716/2 719/719/2 718/718/2
f 716/716/2 718/718/2 715/715/2
f 717/717/99 721/721/99 720/720/99
f 717/717/99 718/718/99 721/721/99
f 719/719/2 722/722/2 721/721/2
f 719/719/2 721/721/2 718/718/2
f 723/723/100 725/725/100 724/724/100
f 723/723/100 726/726/100 725/725/100
f 727/727/2 728/728/2 725/725/2
f 727/727/2 725/725/2 726/726/2
f 724/724/101 730/730/101 729/729/101
f 724/724/101 725/725/101 730/730/101
f 728/728/2 731/731/2 730/730/2
f 728/728/2 730/730/2 725/725/2
f 729/729/102 733/733/102 732/732/102
f 729/729/102 730/730/102 733/733/102
f 731/731/2 734/734/2 733/733/2
f 731/731/2 733/733/2 730/730/2
f 732/732/102 736/736/102 735/735/102
f 732/732/102 733/733/102 736/736/102
f 734/734/2 737/737/2 736/736/2
f 734/734/2 736/736/2 733/733/2
f 735/735/102 739/739/102 738/738/102
f 735/735/102 736/736/102 739/739/102
f 737/737/2 740/740/2 739/739/2
f 737/737/2 739/739/2 736/736/2
f 738/738/103 742/742/103 741/741/103
f 738/738/103 739/739/103 742/742/103
f 740/740/2 743/743/2 742/742/2
f 740/740/2 742/742/2 739/739/2
f 741/741/103 745/745/103 744/744/103
f 741/741/103 742/742/103 745/745/103
f 743/743/2 746/746/2 745/745/2
f 743/743/2 745/745/2 742/742/2
f 744/744/103 748/748/103 747/747/103
f 744/744/103 745/745/103 748/748/103
f 746/746/2 749/749/2 748/748/2
f 746/746/2 748/748/2 745/745/2
f 747/747/103 751/751/103 750/750/103
f 747/747/103 748/748/103 751/751/103
f 749/749/2 752/752/2 751/751/2
f 749/749/2 751/751/2 748/748/2
f 750/750/103 754/754/103 753/753/103
f 750/750/103 751/751/103 754/754/103
f 752/752/2 755/755/2 754/754/2
f 752/752/2 754/754/2 751/751/2
f 756/756/104 758/758/104 757/757/104
f 756/756/104 759/759/104 758/758/104
f 760/760/2 761/761/2 758/758/2
f 760/760/2 758/758/2 759/759/2
f 757/757/105 763/763/105 762/762/105
f 757/757/105 758/758/105 763/763/105
f 761/761/2 764/764/2 763/763/2
f 761/761/2 763/763/2 758/758/2
f 762/762/105 766/766/105 765/765/105
f 762/762/105 763/763/105 766/766/105
f 764/764/2 767/767/2 766/766/2
f 764/764/2 766/766/2 763/763/2
f 765/765/105 769/769/105 768/768/105
f 765/765/105 766/766/105 769/769/105
f 767/767/2 770/770/2 769/769/2
f 767/767/2 769/769/2 766/766/2
f 768/768/106 772/772/106 771/771/106
f 768/768/106 769/769/106 772/772/106
f 770/770/2 773/773/2 772/772/2
f 770/770/2 772/772/2 769/769/2
f 774/774/107 776/776/107 775/775/107
f 774/774/107 777/777/107 776/776/107
f 778/778/2 779/779/2 776/776/2
f 778/778/2 776/776/2 777/777/2
f 775/775/108 781/781/108 780/780/108
f 775/775/108 776/776/108 781/781/108
f 779/779/2 782/782/2 781/781/2
f 779/779/2 781/781/2 776/776/2
f 780/780/108 784/784/108 783/783/108
f 780/780/108 781/781/108 784/784/108
f 782/782/2 785/785/2 784/784/2
f 782/782/2 784/784/2 781/781/2
f 783/783/108 787/787/108 786/786/108
f 783/783/108 784/784/108 787/787/108
f 785/785/2 788/788/2 787/787/2
f 785/785/2 787/787/2 784/784/2
f 786/786/108 790/790/108 789/789/108
f 786/786/108 787/787/108 790/790/108
f 788/788/2 791/791/2 790/790/2
f 788/788/2 790/790/2 787/787/2
f 789/789/109 793/793/109 792/792/109
f 789/789/109 790/790/109 793/793/109
f 791/791/2 794/794/2 793/793/2
f 791/791/2 793/793/2 790/790/2
f 795/795/110 797/797/110 796/796/110
f 795/795/110 798/798/110 797/797/110
f 799/799/2 800/800/2 797/797/2
f 799/799/2 797/797/2 798/798/2
f 796/796/110 802/802/110 801/801/110
f 796/796/110 797/797/110 802/802/110
f 800/800/2 803/803/2 802/802/2
f 800/800/2 802/802/2 797/797/2
f 801/801/111 805/805/111 804/804/111
f 801/801/111 802/802/111 805/805/111
f 803/803/2 806/806/2 805/805/2
f 803/803/2 805/805/2 802/802/2
f 804/804/111 808/808/111 807/807/111
f 804/804/111 805/805/111 808/808/111
f 806/806/2 809/809/2 808/808/2
f 806/806/2 808/808/2 805/805/2
f 810/810/112 812/812/112 811/811/112
f 810/810/112 813/813/112 812/812/112
f 814/814/2 815/815/2 812/812/2
f 814/814/2 812/812/2 813/813/2
f 811/811/113 817/817/113 816/816/113
f 811/811/113 812/812/113 817/817/113
f 815/815/2 818/818/2 817/817/2
f 815/815/2 817/817/2 812/812/2
f 816/816/113 820/820/113 819/819/113
f 816/816/113 817/817/113 820/820/113
f 818/818/2 821/821/2 820/820/2
f 818/818/2 820/820/2 817/817/2
f 822/822/114 824/824/114 823/823/114
f 822/822/114 825/825/114 824/824/114
f 826/826/2 827/827/2 824/824/2
f 826/826/2 824/824/2 825/825/2
f 823/823/114 829/829/114 828/828/114
f 823/823/114 824/824/114 829/829/114
f 827/827/2 830/830/2 829/829/2
f 827/827/2 829/829/2 824/824/2
f 828/828/115 832/832/115 831/831/115
f 828/828/115 829/829/115 832/832/115
f 830/830/2 833/833/2 832/832/2
f 830/830/2 832/832/2 829/829/2
f 831/831/116 798/798/116 795/795/116
f 831/831/116 832/832/116 798/798/116
f 833/833/2 799/799/2 798/798/2
f 833/833/2 798/798/2 832/832/2
f 834/834/117 836/836/117 835/835/117
f 834/834/117 837/837/117 836/836/117
f 838/838/2 839/839/2 836/836/2
f 838/838/2 836/836/2 837/837/2
f 835/835/117 841/841/117 840/840/117
f 835/835/117 836/836/117 841/841/117
f 839/839/2 842/842/2 841/841/2
f 839/839/2 841/841/2 836/836/2
f 840/840/117 844/844/117 843/843/117
f 840/840/117 841/841/117 844/844/117
f 842/842/2 845/845/2 844/844/2
f 842/842/2 844/844/2 841/841/2
f 843/843/117 847/847/117 846/846/117
f 843/843/117 844/844/117 847/847/117
f 845/845/2 848/848/2 847/847/2
f 845/845/2 847/847/2 844/844/2
f 846/846/117 850/850/117 849/849/117
f 846/846/117 847/847/117 850/850/117
f 848/848/2 851/851/2 850/850/2
f 848/848/2 850/850/2 847/847/2
f 849/849/117 853/853/117 852/852/117
f 849/849/117 850/850/117 853/853/117
f 851/851/2 854/854/2 853/853/2
f 851/851/2 853/853/2 850/850/2
f 852/852/117 856/856/117 855/855/117
f 852/852/117 853/853/117 856/856/117
f 854/854/2 857/857/2 856/856/2
f 854/854/2 856/856/2 853/853/2
f 855/855/118 859/859/118 858/858/118
f 855/855/118 856/856/118 859/859/118
f 857/857/2 860/860/2 859/859/2
f 857/857/2 859/859/2 856/856/2
f 861/861/119 837/837/119 834/834/119
f 861/861/119 862/862/119 837/837/119
f 863/863/2 838/838/2 837/837/2
f 863/863/2 837/837/2 862/862/2
f 864/864/117 866/866/117 865/865/117
f 864/864/117 867/867/117 866/866/117
f 868/868/2 869/869/2 866/866/2
f 868/868/2 866/866/2 867/867/2
f 865/865/117 871/871/117 870/870/117
f 865/865/117 866/866/117 871/871/117
f 869/869/2 872/872/2 871/871/2
f 869/869/2 871/871/2 866/866/2
f 870/870/117 874/874/117 873/873/117
f 870/870/117 871/871/117 874/874/117
f 872/872/2 875/875/2 874/874/2
f 872/872/2 874/874/2 871/871/2
f 873/873/117 877/877/117 876/876/117
f 873/873/117 874/874/117 877/877/117
f 875/875/2 878/878/2 877/877/2
f 875/875/2 877/877/2 874/874/2
f 864/864/120 879/879/120 868/868/120
f 864/864/120 868/868/120 867/867/120
f 876/876/121 878/878/121 880/880/121
f 876/876/121 877/877/121 878/878/121
f 881/881/122 883/883/122 882/882/122
f 881/881/122 884/884/122 883/883/122
f 885/885/2 886/886/2 883/883/2
f 885/885/2 883/883/2 884/884/2
f 882/882/122 888/888/122 887/887/122
f 882/882/122 883/883/122 888/888/122
f 886/886/2 889/889/2 888/888/2
f 886/886/2 888/888/2 883/883/2
f 887/887/122 891/891/122 890/890/122
f 887/887/122 888/888/122 891/891/122
f 889/889/2 892/892/2 891/891/2
f 889/889/2 891/891/2 888/888/2
f 890/890/123 894/894/123 893/893/123
f 890/890/123 891/891/123 894/894/123
f 892/892/2 895/895/2 894/894/2
f 892/892/2 894/894/2 891/891/2
f 893/893/124 897/897/124 896/896/124
f 893/893/124 894/894/124 897/897/124
f 895/895/2 898/898/2 897/897/2
f 895/895/2 897/897/2 894/894/2
f 899/899/125 901/901/125 900/900/125
f 899/899/125 902/902/125 901/901/125
f 903/903/2 904/904/2 901/901/2
f 903/903/2 901/901/2 902/902/2
f 900/900/125 906/906/125 905/905/125
f 900/900/125 901/901/125 906/906/125
f 904/904/2 907/907/2 906/906/2
f 904/904/2 906/906/2 901/901/2
f 905/905/125 909/909/125 908/908/125
f 905/905/125 906/906/125 909/909/125
f 907/907/2 910/910/2 909/909/2
f 907/907/2 909/909/2 906/906/2
f 908/908/125 912/912/125 911/911/125
f 908/908/125 909/909/125 912/912/125
f 910/910/2 913/913/2 912/912/2
f 910/910/2 912/912/2 909/909/2
f 911/911/125 915/915/125 914/914/125
f 911/911/125 912/912/125 915/915/125
f 913/913/2 916/916/2 915/915/2
f 913/913/2 915/915/2 912/912/2
f 914/914/125 918/918/125 917/917/125
f 914/914/125 915/915/125 918/918/125
f 916/916/2 919/919/2 918/918/2
f 916/916/2 918/918/2 915/915/2
f 917/917/125 921/921/125 920/920/125
f 917/917/125 918/918/125 921/921/125
f 919/919/2 922/922/2 921/921/2
f 919/919/2 921/921/2 918/918/2
f 920/920/126 924/924/126 923/923/126
f 920/920/126 921/921/126 924/924/126
f 922/922/2 925/925/2 924/924/2
f 922/922/2 924/924/2 921/921/2
f 923/923/126 927/927/126 926/926/126
f 923/923/126 924/924/126 927/927/126
f 925/925/2 928/928/2 927/927/2
f 925/925/2 927/927/2 924/924/2
f 929/929/127 902/902/127 899/899/127
f 929/929/127 930/930/127 902/902/127
f 931/931/2 903/903/2 902/902/2
f 931/931/2 902/902/2 930/930/2
f 932/932/125 934/934/125 933/933/125
f 932/932/125 935/935/125 934/934/125
f 936/936/2 937/937/2 934/934/2
f 936/936/2 934/934/2 935/935/2
f 933/933/125 939/939/125 938/938/125
f 933/933/125 934/934/125 939/939/125
f 937/937/2 940/940/2 939/939/2
f 937/937/2 939/939/2 934/934/2
f 938/938/125 942/942/125 941/941/125
f 938/938/125 939/939/125 942/942/125
f 940/940/2 943/943/2 942/942/2
f 940/940/2 942/942/2 939/939/2
f 941/941/125 945/945/125 944/944/125
f 941/941/125 942/942/125 945/945/125
f 943/943/2 946/946/2 945/945/2
f 943/943/2 945/945/2 942/942/2
f 944/944/125 948/948/125 947/947/125
f 944/944/125 945/945/125 948/948/125
f 946/946/2 949/949/2 948/948/2
f 946/946/2 948/948/2 945/945/2
f 932/932/128 950/950/128 936/936/128
f 932/932/128 936/936/128 935/935/128
f 947/947/129 949/949/129 951/951/129
f 947/947/129 948/948/129 949/949/129
f 952/952/130 954/954/130 953/953/130
f 952/952/130 955/955/130 954/954/130
f 956/956/2 957/957/2 954/954/2
f 956/956/2 954/954/2 955/955/2
f 953/953/130 959/959/130 958/958/130
f 953/953/130 954/954/130 959/959/130
f 957/957/2 960/960/2 959/959/2
f 957/957/2 959/959/2 954/954/2
f 958/958/130 962/962/130 961/961/130
f 958/958/130 959/959/130 962/962/130
f 960/960/2 963/963/2 962/962/2
f 960/960/2 962/962/2 959/959/2
f 961/961/130 965/965/130 964/964/130
f 961/961/130 962/962/130 965/965/130
f 963/963/2 966/966/2 965/965/2
f 963/963/2 965/965/2 962/962/2
f 964/964/131 968/968/131 967/967/131
f 964/964/131 965/965/131 968/968/131
f 966/966/2 969/969/2 968/968/2
f 966/966/2 968/968/2 965/965/2
f 967/967/131 971/971/131 970/970/131
f 967/967/131 968/968/131 971/971/131
f 969/969/2 972/972/2 971/971/2
f 969/969/2 971/971/2 968/968/2
