# Unreal legacy OBJ adapter: canonical vertices are UE cm; this file is written with Y reflected and triangle winding reversed. One object, no g groups, so the importer creates exactly one material slot.
# OldCityFoundationV2 foundations (plinth + stepped footing); generator 463404ba754c804f514fe655944ece4eb51a92e1273fec326ad5c2ebfbb18f24
# AUTHORED detail in the style of Old City stone foundations, not survey
o SM_OldCityFoundationV2_Kept_N004_P002
s off
v -197205.76 -144494.61 -381.00
v -197092.72 -144504.23 -390.04
v -197092.72 -144504.23 -356.00
v -197205.76 -144494.61 -356.00
v -197214.42 -144501.90 -356.00
v -197101.37 -144511.52 -356.00
v -196970.37 -144514.64 -399.83
v -196970.37 -144514.64 -356.00
v -196979.02 -144521.93 -356.00
v -196979.16 -144617.79 -399.13
v -196979.16 -144617.79 -356.00
v -196987.71 -144623.86 -356.00
v -197009.39 -144972.43 -396.71
v -197009.39 -144972.43 -356.00
v -197017.58 -144974.31 -356.00
v -197045.26 -145393.17 -427.50
v -197045.26 -145393.17 -356.00
v -197053.02 -145390.07 -356.00
v -197085.23 -145862.09 -410.34
v -197085.23 -145862.09 -356.00
v -197092.52 -145853.44 -356.00
v -197480.61 -145828.52 -427.50
v -197480.61 -145828.52 -356.00
v -197487.90 -145819.88 -356.00
v -198016.38 -145783.05 -381.00
v -198016.38 -145783.05 -356.00
v -198023.67 -145774.40 -356.00
v -197521.26 -128993.18 347.54
v -197569.93 -128805.35 357.00
v -197569.93 -128805.35 382.00
v -197521.26 -128993.18 382.00
v -197515.52 -128983.43 382.00
v -197563.78 -128797.20 382.00
v -196252.74 -127859.93 357.00
v -196057.27 -128614.67 326.81
v -196057.27 -128614.67 382.00
v -196252.74 -127859.93 382.00
v -196260.83 -127860.60 382.00
v -196067.02 -128608.93 382.00
v -196624.51 -128761.51 320.94
v -196624.51 -128761.51 382.00
v -196629.03 -128754.42 382.00
v -196897.51 -128832.18 329.03
v -196897.51 -128832.18 382.00
v -196899.51 -128824.43 382.00
v -194937.01 -143179.56 -495.00
v -194814.82 -142472.43 -499.89
v -194814.82 -142472.43 -470.00
v -194937.01 -143179.56 -470.00
v -194928.85 -143179.30 -470.00
v -194807.70 -142478.20 -470.00
v -194744.54 -142065.70 -502.70
v -194744.54 -142065.70 -470.00
v -194738.01 -142074.93 -470.00
v -194487.33 -142109.62 -512.99
v -194487.33 -142109.62 -470.00
v -194484.43 -142118.23 -470.00
v -194186.16 -142161.04 -525.03
v -194186.16 -142161.04 -470.00
v -194187.51 -142168.93 -470.00
v -194124.51 -142171.68 -527.50
v -194124.51 -142171.68 -470.00
v -194126.71 -142179.42 -470.00
v -193868.02 -142215.93 -517.24
v -193868.02 -142215.93 -470.00
v -193873.73 -142223.07 -470.00
v -193610.26 -142260.40 -506.93
v -193610.26 -142260.40 -470.00
v -193619.51 -142266.93 -470.00
v -193646.89 -142472.43 -508.40
v -193646.89 -142472.43 -470.00
v -193655.83 -142477.15 -470.00
v -193716.83 -142877.24 -495.00
v -193716.83 -142877.24 -470.00
v -193725.16 -142878.51 -470.00
v -192741.18 -133014.93 -149.20
v -193407.98 -133188.97 -156.16
v -193407.98 -133188.97 -124.20
v -192741.18 -133014.93 -124.20
v -192750.95 -133009.21 -124.20
v -193417.75 -133183.25 -124.20
v -193678.74 -133259.65 -158.99
v -193678.74 -133259.65 -124.20
v -193688.51 -133253.93 -124.20
v -193544.75 -133770.15 -179.41
v -193544.75 -133770.15 -124.20
v -193554.52 -133764.44 -124.20
v -194124.51 -133921.84 -185.48
v -194124.51 -133921.84 -124.20
v -194128.61 -133914.65 -124.20
v -194957.23 -134139.72 -160.88
v -194957.23 -134139.72 -124.20
v -194953.17 -134130.39 -124.20
v -195127.23 -134184.20 -155.86
v -195127.23 -134184.20 -124.20
v -195121.51 -134174.43 -124.20
v -195161.70 -134052.12 -149.20
v -195161.70 -134052.12 -124.20
v -195155.47 -134044.32 -124.20
v -187014.51 -147247.63 -696.30
v -186828.48 -147268.47 -711.18
v -186828.48 -147268.47 -671.30
v -187014.51 -147247.63 -671.30
v -187007.73 -147256.44 -671.30
v -186823.10 -147277.12 -671.30
v -186624.51 -147291.31 -727.50
v -186624.51 -147291.31 -671.30
v -186620.67 -147299.79 -671.30
v -186461.63 -147309.55 -727.50
v -186461.63 -147309.55 -671.30
v -186459.02 -147317.89 -671.30
v -185007.11 -147472.43 -727.50
v -185007.11 -147472.43 -671.30
v -185015.46 -147479.55 -671.30
v -184940.67 -147479.87 -726.90
v -184940.67 -147479.87 -671.30
v -184949.51 -147486.93 -671.30
v -184983.87 -147862.43 -696.30
v -184983.87 -147862.43 -671.30
v -184992.22 -147865.11 -671.30
v -184432.01 -148384.94 -678.70
v -184377.29 -147752.78 -706.18
v -184377.29 -147752.78 -653.70
v -184432.01 -148384.94 -653.70
v -184424.07 -148385.97 -653.70
v -184370.01 -147761.43 -653.70
v -184124.51 -147774.52 -715.42
v -184124.51 -147774.52 -653.70
v -184119.12 -147783.01 -653.70
v -183794.00 -147802.95 -714.28
v -183794.00 -147802.95 -653.70
v -183791.08 -147811.23 -653.70
v -182245.36 -147936.14 -708.95
v -182245.36 -147936.14 -653.70
v -182254.02 -147943.43 -653.70
v -182260.35 -148108.27 -702.07
v -182260.35 -148108.27 -653.70
v -182268.85 -148113.62 -653.70
v -182311.25 -148692.43 -678.70
v -182311.25 -148692.43 -653.70
v -182319.17 -148691.24 -653.70
v -180416.14 -148303.62 -645.92
v -180287.95 -147472.43 -674.04
v -180287.95 -147472.43 -617.50
v -180416.14 -148303.62 -617.50
v -180407.01 -148296.93 -617.50
v -180280.77 -147478.37 -617.50
v -180255.70 -147263.31 -672.75
v -180255.70 -147263.31 -617.50
v -180249.01 -147272.43 -617.50
v -179499.51 -147379.23 -642.50
v -179499.51 -147379.23 -617.50
v -179500.19 -147387.22 -617.50
v -180342.08 -148315.00 -642.50
v -180342.08 -148315.00 -617.50
v -180333.67 -148308.19 -617.50
v -174551.58 -104618.71 2517.88
v -174542.35 -104554.60 2522.64
v -174542.35 -104554.60 2573.10
v -174551.58 -104618.71 2573.10
v -174542.52 -104611.93 2573.10
v -174533.36 -104548.29 2573.10
v -174492.96 -104211.66 2548.10
v -174492.96 -104211.66 2573.10
v -174484.34 -104207.89 2573.10
v -172624.56 -104582.38 2548.10
v -172668.74 -104888.98 2534.07
v -172668.74 -104888.98 2573.10
v -172624.56 -104582.38 2573.10
v -172631.67 -104575.60 2573.10
v -172675.51 -104879.93 2573.10
v -173868.80 -104716.72 2492.96
v -173868.80 -104716.72 2573.10
v -173865.49 -104709.12 2573.10
v -174124.51 -104680.02 2495.89
v -174124.51 -104680.02 2573.10
v -174119.05 -104672.72 2573.10
v -174465.94 -104631.01 2513.47
v -174465.94 -104631.01 2573.10
v -174457.60 -104624.12 2573.10
v -170676.19 -109273.26 2122.30
v -170681.00 -109354.89 2109.05
v -170681.00 -109354.89 2147.30
v -170676.19 -109273.26 2147.30
v -170683.74 -109265.31 2147.30
v -170688.51 -109346.43 2147.30
v -170988.86 -109336.78 2099.63
v -170988.86 -109336.78 2147.30
v -170994.27 -109328.45 2147.30
v -171624.51 -109299.39 2080.19
v -171624.51 -109299.39 2147.30
v -171625.56 -109291.32 2147.30
v -171844.98 -109286.42 2091.08
v -171844.98 -109286.42 2147.30
v -171844.51 -109278.44 2147.30
v -172339.78 -109257.17 2115.55
v -172339.78 -109257.17 2147.30
v -172334.59 -109249.46 2147.30
v -172476.21 -109249.11 2122.30
v -172476.21 -109249.11 2147.30
v -172469.72 -109241.48 2147.30
v -169330.62 -106098.42 2629.14
v -169319.00 -106048.44 2635.60
v -169319.00 -106048.44 2660.60
v -169330.62 -106098.42 2660.60
v -169321.01 -106092.43 2660.60
v -169309.47 -106042.77 2660.60
v -167818.80 -106113.27 2635.60
v -167834.95 -106182.87 2627.25
v -167834.95 -106182.87 2660.60
v -167818.80 -106113.27 2660.60
v -167825.26 -106105.71 2660.60
v -167841.30 -106174.87 2660.60
v -167849.85 -106247.10 2621.51
v -167849.85 -106247.10 2660.60
v -167856.11 -106238.68 2660.60
v -167892.53 -106431.03 2605.09
v -167892.53 -106431.03 2660.60
v -167898.51 -106421.43 2660.60
v -168047.31 -106395.23 2601.76
v -168047.31 -106395.23 2660.60
v -168051.62 -106386.02 2660.60
v -169124.51 -106146.09 2631.66
v -169124.51 -106146.09 2660.60
v -169117.14 -106139.58 2660.60
v -168493.01 -136706.69 97.76
v -168474.78 -136099.70 98.49
v -168474.78 -136099.70 129.60
v -168493.01 -136706.69 129.60
v -168485.01 -136706.93 129.60
v -168467.02 -136107.93 129.60
v -168322.01 -136104.24 104.60
v -168322.01 -136104.24 129.60
v -168314.92 -136112.46 129.60
v -165822.01 -137507.56 104.60
v -166471.75 -137488.42 78.61
v -166471.75 -137488.42 129.60
v -165822.01 -137507.56 129.60
v -165824.88 -137499.47 129.60
v -166471.51 -137480.43 129.60
v -166612.75 -137484.20 72.97
v -166612.75 -137484.20 129.60
v -166611.96 -137476.22 129.60
v -166624.51 -137483.84 72.50
v -166624.51 -137483.84 129.60
v -166623.68 -137475.87 129.60
v -166635.59 -137483.51 72.50
v -166635.59 -137483.51 129.60
v -166634.71 -137475.53 129.60
v -167005.10 -137472.43 72.50
v -167005.10 -137472.43 129.60
v -167002.78 -137464.50 129.60
v -168514.24 -137427.18 74.31
v -168514.24 -137427.18 129.60
v -168506.01 -137419.43 129.60
v -168497.09 -136845.00 97.60
v -168497.09 -136845.00 129.60
v -168489.05 -136843.71 129.60
v -165277.01 -147981.80 -581.40
v -164649.87 -147997.79 -606.49
v -164649.87 -147997.79 -556.40
v -165277.01 -147981.80 -556.40
v -165269.22 -147990.00 -556.40
v -164642.08 -148005.99 -556.40
v -164534.31 -148000.73 -611.11
v -164534.31 -148000.73 -556.40
v -164526.51 -148008.93 -556.40
v -164531.17 -147879.09 -611.23
v -164531.17 -147879.09 -556.40
v -164523.38 -147887.29 -556.40
v -164520.70 -147472.43 -611.65
v -164520.70 -147472.43 -556.40
v -164512.90 -147480.63 -556.40
v -164510.83 -147089.34 -581.40
v -164510.83 -147089.34 -556.40
v -164503.03 -147097.54 -556.40
v -164250.76 -146959.30 -581.40
v -164124.51 -146962.54 -586.71
v -164124.51 -146962.54 -556.40
v -164250.76 -146959.30 -556.40
v -164246.54 -146967.41 -556.40
v -164122.06 -146970.60 -556.40
v -163984.63 -146966.12 -581.40
v -163984.63 -146966.12 -556.40
v -163984.13 -146974.14 -556.40
v -163367.01 -147274.94 -581.40
v -163372.20 -147472.43 -597.41
v -163372.20 -147472.43 -556.40
v -163367.01 -147274.94 -556.40
v -163375.16 -147280.65 -556.40
v -163380.31 -147476.75 -556.40
v -163389.02 -148112.66 -598.08
v -163389.02 -148112.66 -556.40
v -163397.01 -148112.43 -556.40
v -163391.78 -148205.17 -598.19
v -163391.78 -148205.17 -556.40
v -163399.75 -148204.11 -556.40
v -163415.76 -149007.67 -599.15
v -163415.76 -149007.67 -556.40
v -163423.51 -148999.43 -556.40
v -164124.51 -148986.25 -627.50
v -164124.51 -148986.25 -556.40
v -164132.27 -148978.02 -556.40
v -165141.42 -148955.53 -586.82
v -165141.42 -148955.53 -556.40
v -165149.18 -148947.29 -556.40
v -165186.25 -148954.17 -585.03
v -165186.25 -148954.17 -556.40
v -165194.01 -148945.93 -556.40
v -165210.51 -149783.21 -584.06
v -165210.51 -149783.21 -556.40
v -165218.51 -149782.93 -556.40
v -165217.94 -149972.43 -583.76
v -165217.94 -149972.43 -556.40
v -165225.80 -149968.71 -556.40
v -165227.84 -150224.74 -593.46
v -165227.84 -150224.74 -556.40
v -165235.51 -150216.43 -556.40
v -165517.63 -150213.04 -581.40
v -165517.63 -150213.04 -556.40
v -165525.31 -150204.73 -556.40
v -165822.02 -150517.44 -581.40
v -165823.02 -150543.24 -582.39
v -165823.02 -150543.24 -556.40
v -165822.02 -150517.44 -556.40
v -165829.99 -150516.53 -556.40
v -165831.01 -150542.93 -556.40
v -165831.55 -150765.39 -590.94
v -165831.55 -150765.39 -556.40
v -165839.42 -150761.83 -556.40
v -165843.83 -151084.68 -603.22
v -165843.83 -151084.68 -556.40
v -165851.51 -151076.44 -556.40
v -166373.07 -151068.49 -581.40
v -166373.07 -151068.49 -556.40
v -166375.90 -151060.40 -556.40
v -167324.47 -130480.51 36.83
v -167266.13 -129972.43 21.17
v -167266.13 -129972.43 92.50
v -167324.47 -130480.51 92.50
v -167316.52 -130481.43 92.50
v -167258.54 -129976.49 92.50
v -167200.05 -129396.90 49.48
v -167200.05 -129396.90 92.50
v -167192.87 -129404.52 92.50
v -167177.05 -129196.57 59.33
v -167177.05 -129196.57 92.50
v -167170.01 -129205.43 92.50
v -167068.72 -129209.03 67.50
v -167068.72 -129209.03 92.50
v -167062.67 -129217.77 92.50
v -166749.51 -131747.31 67.50
v -167427.66 -131669.29 40.37
v -167427.66 -131669.29 92.50
v -166749.51 -131747.31 92.50
v -166747.16 -131739.53 92.50
v -167419.10 -131662.22 92.50
v -167460.88 -131665.47 39.05
v -167460.88 -131665.47 92.50
v -167452.01 -131658.43 92.50
v -167457.84 -131639.10 39.17
v -167457.84 -131639.10 92.50
v -167449.00 -131632.25 92.50
v -167349.43 -130697.35 43.50
v -167349.43 -130697.35 92.50
v -167341.31 -130696.81 92.50
v -162990.70 -144375.10 -358.25
v -163302.89 -144150.81 -361.77
v -163302.89 -144150.81 -302.90
v -162990.70 -144375.10 -302.90
v -162992.52 -144363.94 -302.90
v -163301.52 -144141.94 -302.90
v -163892.19 -143727.43 -327.90
v -163892.19 -143727.43 -302.90
v -163884.80 -143722.89 -302.90
v -162672.85 -143934.10 -327.90
v -162672.85 -143934.10 -302.90
v -162678.44 -143928.18 -302.90
v -162693.85 -132189.00 395.17
v -162662.97 -131909.93 417.50
v -162662.97 -131909.93 442.50
v -162693.85 -132189.00 442.50
v -162685.01 -132181.93 442.50
v -162654.41 -131905.25 442.50
v -160795.73 -132398.38 417.50
v -161475.68 -132323.59 402.27
v -161475.68 -132323.59 442.50
v -160795.73 -132398.38 442.50
v -160801.79 -132389.66 442.50
v -161476.82 -132315.42 442.50
v -161624.51 -132307.22 385.72
v -161624.51 -132307.22 442.50
v -161624.58 -132299.17 442.50
v -161754.90 -132292.88 386.86
v -161754.90 -132292.88 442.50
v -161754.02 -132284.93 442.50
v -161810.18 -132286.77 387.35
v -161810.18 -132286.77 442.50
v -161808.83 -132278.87 442.50
v -160255.03 -141047.60 -111.30
v -160261.80 -141109.72 -118.48
v -160261.80 -141109.72 -86.30
v -160255.03 -141047.60 -86.30
v -160262.56 -141042.90 -86.30
v -160269.28 -141104.57 -86.30
v -160283.95 -141313.00 -127.50
v -160283.95 -141313.00 -86.30
v -160291.28 -141306.40 -86.30
v -160317.93 -141624.76 -141.33
v -160317.93 -141624.76 -86.30
v -160325.01 -141615.94 -86.30
v -160731.76 -141579.68 -156.08
v -160731.76 -141579.68 -86.30
v -160734.78 -141571.30 -86.30
v -161575.51 -141487.76 -111.30
v -161575.51 -141487.76 -86.30
v -161570.24 -141480.29 -86.30
v -155572.73 -144245.24 -127.50
v -155732.04 -144079.96 -127.50
v -155732.04 -144079.96 -102.20
v -155572.73 -144245.24 -102.20
v -155572.51 -144233.93 -102.20
v -155730.60 -144069.93 -102.20
v -156624.51 -143154.11 -127.50
v -156624.51 -143154.11 -102.20
v -156616.21 -143151.20 -102.20
v -156959.10 -142807.01 -140.88
v -156959.10 -142807.01 -102.20
v -156948.22 -142806.77 -102.20
v -157013.82 -142750.24 -138.61
v -157013.82 -142750.24 -102.20
v -157002.52 -142750.44 -102.20
v -156756.57 -142501.17 -128.65
v -156756.57 -142501.17 -102.20
v -156751.01 -142506.93 -102.20
v -156726.65 -142472.43 -127.50
v -156726.65 -142472.43 -102.20
v -156721.10 -142478.19 -102.20
v -156722.74 -142468.68 -127.20
v -156722.74 -142468.68 -102.20
v -156717.19 -142474.44 -102.20
v -156449.66 -142206.39 -127.20
v -156162.05 -141930.16 -139.61
v -156162.05 -141930.16 -102.20
v -156449.66 -142206.39 -102.20
v -156444.11 -142212.16 -102.20
v -156156.51 -141935.93 -102.20
v -155774.79 -141558.63 -156.36
v -155774.79 -141558.63 -102.20
v -155775.01 -141569.93 -102.20
v -155743.35 -141591.27 -162.75
v -155743.35 -141591.27 -102.20
v -155743.81 -141602.31 -102.20
v -154894.24 -142472.43 -127.50
v -154894.24 -142472.43 -102.20
v -154901.24 -142476.70 -102.20
v -154516.51 -142864.43 -127.50
v -154516.51 -142864.43 -102.20
v -154526.42 -142865.67 -102.20
v -154333.69 -143054.14 -127.50
v -154333.69 -143054.14 -102.20
v -154345.01 -143053.93 -102.20
v -155205.11 -143891.84 -127.50
v -155205.11 -143891.84 -102.20
v -155208.31 -143883.83 -102.20
v -153893.43 -139542.43 -193.10
v -153895.35 -139743.27 -209.17
v -153895.35 -139743.27 -168.10
v -153893.43 -139542.43 -168.10
v -153901.46 -139545.45 -168.10
v -153903.33 -139740.99 -168.10
v -153897.09 -139924.49 -223.66
v -153897.09 -139924.49 -168.10
v -153905.02 -139917.43 -168.10
v -154102.62 -139950.54 -225.75
v -154102.62 -139950.54 -168.10
v -154110.07 -139943.42 -168.10
v -154124.51 -139953.32 -225.97
v -154124.51 -139953.32 -168.10
v -154131.91 -139946.19 -168.10
v -154141.48 -139955.47 -224.11
v -154141.48 -139955.47 -168.10
v -154148.83 -139948.34 -168.10
v -154275.30 -139972.43 -209.41
v -154275.30 -139972.43 -168.10
v -154282.34 -139965.26 -168.10
v -154423.73 -139991.25 -193.10
v -154423.73 -139991.25 -168.10
v -154430.41 -139984.03 -168.10
vt -131.7779 -0.9525
vt -131.4712 -0.9751
vt -131.4712 -0.8900
vt -131.7779 -0.8900
vt -131.7813 -0.8900
vt -131.4746 -0.8900
vt -131.1393 -0.9996
vt -131.1393 -0.8900
vt -131.1427 -0.8900
vt -130.9034 -0.9978
vt -130.9034 -0.8900
vt -130.9096 -0.8900
vt -130.0924 -0.9918
vt -130.0924 -0.8900
vt -130.1082 -0.8900
vt -129.1302 -1.0688
vt -129.1302 -0.8900
vt -129.1574 -0.8900
vt -128.0579 -1.0258
vt -128.0579 -0.8900
vt -128.0977 -0.8900
vt -129.1302 -1.0688
vt -129.1302 -0.8900
vt -129.1700 -0.8900
vt -130.5833 -0.9525
vt -130.5833 -0.8900
vt -130.6232 -0.8900
vt -171.3202 0.8689
vt -171.9114 0.8925
vt -171.9114 0.9550
vt -171.3202 0.9550
vt -171.3302 0.9550
vt -171.9164 0.9550
vt -170.9820 0.8925
vt -168.6065 0.8170
vt -168.6065 0.9550
vt -170.9820 0.9550
vt -171.0006 0.9550
vt -168.6452 0.9550
vt -169.6575 0.8024
vt -169.6575 0.9550
vt -169.6865 0.9550
vt -170.1633 0.8226
vt -170.1633 0.9550
vt -170.1877 0.9550
vt -129.3936 -1.2375
vt -130.8560 -1.2497
vt -130.8560 -1.1750
vt -129.3936 -1.1750
vt -129.3739 -1.1750
vt -130.8237 -1.1750
vt -131.6971 -1.2568
vt -131.6971 -1.1750
vt -131.6577 -1.1750
vt -130.9443 -1.2825
vt -130.9443 -1.1750
vt -130.9155 -1.1750
vt -130.0628 -1.3126
vt -130.0628 -1.1750
vt -130.0465 -1.1750
vt -129.8821 -1.3188
vt -129.8821 -1.1750
vt -129.8682 -1.1750
vt -129.1302 -1.2931
vt -129.1302 -1.1750
vt -129.1267 -1.1750
vt -128.3747 -1.2673
vt -128.3747 -1.1750
vt -128.3815 -1.1750
vt -127.9362 -1.2710
vt -127.9362 -1.1750
vt -127.9467 -1.1750
vt -127.0990 -1.2375
vt -127.0990 -1.1750
vt -127.1166 -1.1750
vt -149.3156 -0.3730
vt -150.5475 -0.3904
vt -150.5475 -0.3105
vt -149.3156 -0.3105
vt -149.3544 -0.3105
vt -150.5863 -0.3105
vt -151.0477 -0.3975
vt -151.0477 -0.3105
vt -151.0865 -0.3105
vt -149.4365 -0.4485
vt -149.4365 -0.3105
vt -149.4752 -0.3105
vt -150.5067 -0.4637
vt -150.5067 -0.3105
vt -150.5349 -0.3105
vt -152.0438 -0.4022
vt -152.0438 -0.3105
vt -152.0570 -0.3105
vt -152.3576 -0.3897
vt -152.3576 -0.3105
vt -152.3677 -0.3105
vt -152.7740 -0.3730
vt -152.7740 -0.3105
vt -152.7779 -0.3105
vt -99.4172 -1.7407
vt -98.9000 -1.7779
vt -98.9000 -1.6782
vt -99.4172 -1.6782
vt -99.3782 -1.6782
vt -98.8650 -1.6782
vt -98.3330 -1.8188
vt -98.3330 -1.6782
vt -98.3022 -1.6782
vt -97.8802 -1.8188
vt -97.8802 -1.6782
vt -97.8528 -1.6782
vt -93.8367 -1.8188
vt -93.8367 -1.6782
vt -93.8398 -1.6782
vt -93.6520 -1.8173
vt -93.6520 -1.6782
vt -93.6565 -1.6782
vt -92.8036 -1.7407
vt -92.8036 -1.6782
vt -92.8178 -1.6782
vt -90.1177 -1.6968
vt -91.5613 -1.7654
vt -91.5613 -1.6343
vt -90.1177 -1.6343
vt -90.0953 -1.6343
vt -91.5215 -1.6343
vt -90.8750 -1.7885
vt -90.8750 -1.6343
vt -90.8403 -1.6343
vt -89.9776 -1.7857
vt -89.9776 -1.6343
vt -89.9496 -1.6343
vt -85.7730 -1.7724
vt -85.7730 -1.6343
vt -85.7765 -1.6343
vt -85.3802 -1.7552
vt -85.3802 -1.6343
vt -85.3881 -1.6343
vt -84.0471 -1.6968
vt -84.0471 -1.6343
vt -84.0698 -1.6343
vt -80.2813 -1.6148
vt -82.0388 -1.6851
vt -82.0388 -1.5437
vt -80.2813 -1.5437
vt -80.2752 -1.5437
vt -82.0060 -1.5437
vt -82.4810 -1.6819
vt -82.4810 -1.5437
vt -82.4415 -1.5437
vt -80.3007 -1.6062
vt -80.3007 -1.5437
vt -80.2824 -1.5437
vt -80.0677 -1.6062
vt -80.0677 -1.5437
vt -80.0637 -1.5437
vt -174.8322 6.2947
vt -174.9694 6.3066
vt -174.9694 6.4327
vt -174.8322 6.4327
vt -174.8265 6.4327
vt -174.9627 6.4327
vt -175.7032 6.3702
vt -175.7032 6.4327
vt -175.6911 6.4327
vt -170.1054 6.3702
vt -169.4494 6.3352
vt -169.4494 6.4327
vt -170.1054 6.4327
vt -170.1402 6.4327
vt -169.4890 6.4327
vt -172.8802 6.2324
vt -172.8802 6.4327
vt -172.8909 6.4327
vt -173.6112 6.2397
vt -173.6112 6.4327
vt -173.6158 6.4327
vt -174.5873 6.2837
vt -174.5873 6.4327
vt -174.5837 6.4327
vt -153.5073 5.3058
vt -153.3153 5.2726
vt -153.3153 5.3683
vt -153.5073 5.3683
vt -153.5461 5.3683
vt -153.3552 5.3683
vt -154.1302 5.2491
vt -154.1302 5.3683
vt -154.1645 5.3683
vt -155.8128 5.2005
vt -155.8128 5.3683
vt -155.8356 5.3683
vt -156.3964 5.2277
vt -156.3964 5.3683
vt -156.4152 5.3683
vt -157.7065 5.2889
vt -157.7065 5.3683
vt -157.7128 5.3683
vt -158.0677 5.3058
vt -158.0677 5.3683
vt -158.0706 5.3683
vt -158.0805 6.5728
vt -158.1764 6.5890
vt -158.1764 6.6515
vt -158.0805 6.6515
vt -158.0715 6.6515
vt -158.1667 6.6515
vt -154.2638 6.5890
vt -154.1302 6.5681
vt -154.1302 6.6515
vt -154.2638 6.6515
vt -154.2989 6.6515
vt -154.1661 6.6515
vt -154.0069 6.5538
vt -154.0069 6.6515
vt -154.0436 6.6515
vt -153.6538 6.5127
vt -153.6538 6.6515
vt -153.6927 6.6515
vt -154.1302 6.5044
vt -154.1302 6.6515
vt -154.1640 6.6515
vt -157.4461 6.5791
vt -157.4461 6.6515
vt -157.4439 6.6515
vt -79.4658 0.2444
vt -80.9377 0.2462
vt -80.9377 0.3240
vt -79.4658 0.3240
vt -79.4452 0.3240
vt -80.8977 0.3240
vt -80.5444 0.2615
vt -80.5444 0.3240
vt -80.5062 0.3240
vt -70.7861 0.2615
vt -72.4583 0.1965
vt -72.4583 0.3240
vt -70.7861 0.3240
vt -70.8135 0.3240
vt -72.4777 0.3240
vt -72.8214 0.1824
vt -72.8214 0.3240
vt -72.8393 0.3240
vt -72.8517 0.1812
vt -72.8517 0.3240
vt -72.8695 0.3240
vt -72.8802 0.1812
vt -72.8802 0.3240
vt -72.8979 0.3240
vt -73.8317 0.1812
vt -73.8317 0.3240
vt -73.8457 0.3240
vt -77.7176 0.1858
vt -77.7176 0.3240
vt -77.7165 0.3240
vt -79.1302 0.2440
vt -79.1302 0.3240
vt -79.1133 0.3240
vt -43.2380 -1.4535
vt -41.6302 -1.5162
vt -41.6302 -1.3910
vt -43.2380 -1.3910
vt -43.1981 -1.3910
vt -41.5902 -1.3910
vt -41.3339 -1.5278
vt -41.3339 -1.3910
vt -41.2940 -1.3910
vt -41.6302 -1.5281
vt -41.6302 -1.3910
vt -41.5902 -1.3910
vt -42.6207 -1.5291
vt -42.6207 -1.3910
vt -42.5807 -1.3910
vt -43.5537 -1.4535
vt -43.5537 -1.3910
vt -43.5137 -1.3910
vt -43.2287 -1.4535
vt -42.9049 -1.4668
vt -42.9049 -1.3910
vt -43.2287 -1.3910
vt -43.1978 -1.3910
vt -42.8786 -1.3910
vt -42.5463 -1.4535
vt -42.5463 -1.3910
vt -42.5250 -1.3910
vt -40.2302 -1.4535
vt -39.7494 -1.4935
vt -39.7494 -1.3910
vt -40.2302 -1.3910
vt -40.2363 -1.3910
vt -39.7589 -1.3910
vt -38.1909 -1.4952
vt -38.1909 -1.3910
vt -38.2115 -1.3910
vt -37.9665 -1.4955
vt -37.9665 -1.3910
vt -37.9891 -1.3910
vt -36.0202 -1.4979
vt -36.0202 -1.3910
vt -36.0602 -1.3910
vt -37.8457 -1.5688
vt -37.8457 -1.3910
vt -37.8856 -1.3910
vt -40.4647 -1.4671
vt -40.4647 -1.3910
vt -40.5047 -1.3910
vt -40.5802 -1.4626
vt -40.5802 -1.3910
vt -40.6202 -1.3910
vt -38.5683 -1.4601
vt -38.5683 -1.3910
vt -38.5890 -1.3910
vt -38.1138 -1.4594
vt -38.1138 -1.3910
vt -38.1427 -1.3910
vt -37.5078 -1.4837
vt -37.5078 -1.3910
vt -37.5477 -1.3910
vt -38.2615 -1.4535
vt -38.2615 -1.3910
vt -38.3014 -1.3910
vt -38.2614 -1.4535
vt -38.1994 -1.4560
vt -38.1994 -1.3910
vt -38.2614 -1.3910
vt -38.2836 -1.3910
vt -38.2202 -1.3910
vt -37.6654 -1.4774
vt -37.6654 -1.3910
vt -37.6940 -1.3910
vt -36.8979 -1.5081
vt -36.8979 -1.3910
vt -36.9377 -1.3910
vt -38.2615 -1.4535
vt -38.2615 -1.3910
vt -38.2888 -1.3910
vt -92.1099 0.0921
vt -93.2343 0.0529
vt -93.2343 0.2313
vt -92.1099 0.2313
vt -92.0877 0.2313
vt -93.2051 0.2313
vt -94.5079 0.1237
vt -94.5079 0.2313
vt -94.4709 0.2313
vt -94.9512 0.1483
vt -94.9512 0.2313
vt -94.9115 0.2313
vt -94.6492 0.1688
vt -94.6492 0.2313
vt -94.6123 0.2313
vt -87.5055 0.1688
vt -89.3959 0.1009
vt -89.3959 0.2313
vt -87.5055 0.2313
vt -87.5191 0.2313
vt -89.3922 0.2313
vt -89.4885 0.0976
vt -89.4885 0.2313
vt -89.4840 0.2313
vt -89.5468 0.0979
vt -89.5468 0.2313
vt -89.5419 0.2313
vt -91.6302 0.1087
vt -91.6302 0.2313
vt -91.6112 0.2313
vt -46.5390 -0.8956
vt -47.8802 -0.9044
vt -47.8802 -0.7572
vt -46.5390 -0.7572
vt -46.5714 -0.7572
vt -47.8989 -0.7572
vt -50.4119 -0.8197
vt -50.4119 -0.7572
vt -50.4048 -0.7572
vt -46.8469 -0.8197
vt -46.8469 -0.7572
vt -46.8757 -0.7572
vt -76.2621 0.9879
vt -76.8826 1.0437
vt -76.8826 1.1062
vt -76.2621 1.1062
vt -76.2577 1.1062
vt -76.8729 1.1062
vt -70.9934 1.0437
vt -72.8802 1.0057
vt -72.8802 1.1062
vt -70.9934 1.1062
vt -71.0303 1.1062
vt -72.9035 1.1062
vt -73.2932 0.9643
vt -73.2932 1.1062
vt -73.3135 1.1062
vt -73.6550 0.9672
vt -73.6550 1.1062
vt -73.6727 1.1062
vt -73.8085 0.9684
vt -73.8085 1.1062
vt -73.8249 1.1062
vt -48.0186 -0.2782
vt -47.8802 -0.2962
vt -47.8802 -0.2157
vt -48.0186 -0.2157
vt -48.0492 -0.2157
vt -47.9118 -0.2157
vt -47.4274 -0.3187
vt -47.4274 -0.2157
vt -47.4622 -0.2157
vt -46.7329 -0.3533
vt -46.7329 -0.2157
vt -46.7727 -0.2157
vt -47.8802 -0.3902
vt -47.8802 -0.2157
vt -47.9087 -0.2157
vt -50.2194 -0.2782
vt -50.2194 -0.2157
vt -50.2249 -0.2157
vt -28.3187 -0.3187
vt -29.1302 -0.3187
vt -29.1302 -0.2555
vt -28.3187 -0.2555
vt -28.3465 -0.2555
vt -29.1517 -0.2555
vt -33.6760 -0.3187
vt -33.6760 -0.2555
vt -33.6625 -0.2555
vt -35.3802 -0.3522
vt -35.3802 -0.2555
vt -35.3536 -0.2555
vt -35.6590 -0.3465
vt -35.6590 -0.2555
vt -35.6302 -0.2555
vt -35.6385 -0.3216
vt -35.6385 -0.2555
vt -35.6102 -0.2555
vt -35.6356 -0.3187
vt -35.6356 -0.2555
vt -35.6073 -0.2555
vt -35.6351 -0.3180
vt -35.6351 -0.2555
vt -35.6069 -0.2555
vt -35.6082 -0.3180
vt -35.5797 -0.3490
vt -35.5797 -0.2555
vt -35.6082 -0.2555
vt -35.5799 -0.2555
vt -35.5515 -0.2555
vt -35.5404 -0.3909
vt -35.5404 -0.2555
vt -35.5127 -0.2555
vt -35.3802 -0.4069
vt -35.3802 -0.2555
vt -35.3537 -0.2555
vt -31.0545 -0.3187
vt -31.0545 -0.2555
vt -31.0613 -0.2555
vt -29.1302 -0.3187
vt -29.1302 -0.2555
vt -29.1519 -0.2555
vt -28.1989 -0.3187
vt -28.1989 -0.2555
vt -28.2277 -0.2555
vt -28.2832 -0.3187
vt -28.2832 -0.2555
vt -28.3112 -0.2555
vt -35.8775 -0.4828
vt -35.3802 -0.5229
vt -35.3802 -0.4203
vt -35.8775 -0.4203
vt -35.8900 -0.4203
vt -35.4058 -0.4203
vt -34.9315 -0.5592
vt -34.9315 -0.4203
vt -34.9690 -0.4203
vt -35.3802 -0.5644
vt -35.3802 -0.4203
vt -35.4166 -0.4203
vt -35.4280 -0.5649
vt -35.4280 -0.4203
vt -35.4643 -0.4203
vt -35.4650 -0.5603
vt -35.4650 -0.4203
vt -35.5012 -0.4203
vt -35.7572 -0.5235
vt -35.7572 -0.4203
vt -35.7927 -0.4203
vt -36.0812 -0.4828
vt -36.0812 -0.4203
vt -36.1160 -0.4203
vn 0.0848 0.9964 0.0000
vn 0.0000 -0.0000 1.0000
vn 0.9964 -0.0849 0.0000
vn -0.0846 -0.9964 0.0000
vn -0.9680 -0.2508 0.0000
vn 0.9681 0.2507 0.0000
vn 0.2506 -0.9681 0.0000
vn 0.2499 -0.9683 0.0000
vn -0.9854 0.1703 0.0000
vn 0.1683 0.9857 0.0000
vn 0.1700 0.9854 0.0000
vn 0.9854 -0.1702 0.0000
vn 0.2525 -0.9676 0.0000
vn 0.9672 0.2539 0.0000
vn 0.2531 -0.9674 0.0000
vn -0.9676 -0.2526 0.0000
vn 0.1113 0.9938 0.0000
vn 0.9937 -0.1122 0.0000
vn -0.9963 0.0862 0.0000
vn 0.0857 0.9963 0.0000
vn 0.9962 -0.0868 0.0000
vn -0.9883 0.1524 0.0000
vn 0.1515 0.9885 0.0000
vn -0.1518 -0.9884 0.0000
vn -0.9898 0.1425 0.0000
vn 0.9898 -0.1426 0.0000
vn -0.1421 -0.9899 0.0000
vn 0.9983 -0.0588 0.0000
vn -0.0587 -0.9983 0.0000
vn -0.0590 -0.9983 0.0000
vn -0.9740 0.2264 0.0000
vn 0.9741 -0.2260 0.0000
vn -0.2253 -0.9743 0.0000
vn -0.9995 0.0300 0.0000
vn 0.0297 0.9996 0.0000
vn -0.0294 -0.9996 0.0000
vn -0.0300 -0.9996 0.0000
vn -0.9996 0.0295 0.0000
vn 0.0255 0.9997 0.0000
vn -0.9997 0.0258 0.0000
vn 0.0256 0.9997 0.0000
vn 0.9997 -0.0263 0.0000
vn 0.9996 -0.0299 0.0000
vn -0.0302 -0.9995 0.0000
vn 0.9996 -0.0293 0.0000
vn 0.9992 -0.0392 0.0000
vn -0.0403 -0.9992 0.0000
vn 0.9993 -0.0385 0.0000
vn 0.9993 -0.0384 0.0000
vn -0.0306 -0.9995 0.0000
vn -0.9935 0.1141 0.0000
vn 0.1143 0.9934 0.0000
vn -0.1143 -0.9934 0.0000
vn -0.9934 0.1144 0.0000
vn -0.5835 -0.8121 0.0000
vn 0.8112 -0.5847 0.0000
vn -0.9939 0.1100 0.0000
vn -0.1093 -0.9940 0.0000
vn -0.1100 -0.9939 0.0000
vn 0.9941 -0.1083 0.0000
vn -0.1083 -0.9941 0.0000
vn -0.7200 -0.6940 0.0000
vn -0.6956 0.7184 0.0000
vn -0.6927 0.7212 0.0000
vn -0.6923 0.7216 0.0000
vn 0.7201 0.6939 0.0000
vn 0.6930 -0.7209 0.0000
vn 1.0000 -0.0096 0.0000
vn 0.1258 -0.9921 0.0000
f 1/1/1 3/3/1 2/2/1
f 1/1/1 4/4/1 3/3/1
f 5/5/2 6/6/2 3/3/2
f 5/5/2 3/3/2 4/4/2
f 2/2/1 8/8/1 7/7/1
f 2/2/1 3/3/1 8/8/1
f 6/6/2 9/9/2 8/8/2
f 6/6/2 8/8/2 3/3/2
f 7/7/3 11/11/3 10/10/3
f 7/7/3 8/8/3 11/11/3
f 9/9/2 12/12/2 11/11/2
f 9/9/2 11/11/2 8/8/2
f 10/10/3 14/14/3 13/13/3
f 10/10/3 11/11/3 14/14/3
f 12/12/2 15/15/2 14/14/2
f 12/12/2 14/14/2 11/11/2
f 13/13/3 17/17/3 16/16/3
f 13/13/3 14/14/3 17/17/3
f 15/15/2 18/18/2 17/17/2
f 15/15/2 17/17/2 14/14/2
f 16/16/3 20/20/3 19/19/3
f 16/16/3 17/17/3 20/20/3
f 18/18/2 21/21/2 20/20/2
f 18/18/2 20/20/2 17/17/2
f 19/19/4 23/23/4 22/22/4
f 19/19/4 20/20/4 23/23/4
f 21/21/2 24/24/2 23/23/2
f 21/21/2 23/23/2 20/20/2
f 22/22/4 26/26/4 25/25/4
f 22/22/4 23/23/4 26/26/4
f 24/24/2 27/27/2 26/26/2
f 24/24/2 26/26/2 23/23/2
f 28/28/5 30/30/5 29/29/5
f 28/28/5 31/31/5 30/30/5
f 32/32/2 33/33/2 30/30/2
f 32/32/2 30/30/2 31/31/2
f 34/34/6 36/36/6 35/35/6
f 34/34/6 37/37/6 36/36/6
f 38/38/2 39/39/2 36/36/2
f 38/38/2 36/36/2 37/37/2
f 35/35/7 41/41/7 40/40/7
f 35/35/7 36/36/7 41/41/7
f 39/39/2 42/42/2 41/41/2
f 39/39/2 41/41/2 36/36/2
f 40/40/7 44/44/7 43/43/7
f 40/40/7 41/41/7 44/44/7
f 42/42/2 45/45/2 44/44/2
f 42/42/2 44/44/2 41/41/2
f 43/43/8 31/31/8 28/28/8
f 43/43/8 44/44/8 31/31/8
f 45/45/2 32/32/2 31/31/2
f 45/45/2 31/31/2 44/44/2
f 46/46/9 48/48/9 47/47/9
f 46/46/9 49/49/9 48/48/9
f 50/50/2 51/51/2 48/48/2
f 50/50/2 48/48/2 49/49/2
f 47/47/9 53/53/9 52/52/9
f 47/47/9 48/48/9 53/53/9
f 51/51/2 54/54/2 53/53/2
f 51/51/2 53/53/2 48/48/2
f 52/52/10 56/56/10 55/55/10
f 52/52/10 53/53/10 56/56/10
f 54/54/2 57/57/2 56/56/2
f 54/54/2 56/56/2 53/53/2
f 55/55/10 59/59/10 58/58/10
f 55/55/10 56/56/10 59/59/10
f 57/57/2 60/60/2 59/59/2
f 57/57/2 59/59/2 56/56/2
f 58/58/11 62/62/11 61/61/11
f 58/58/11 59/59/11 62/62/11
f 60/60/2 63/63/2 62/62/2
f 60/60/2 62/62/2 59/59/2
f 61/61/11 65/65/11 64/64/11
f 61/61/11 62/62/11 65/65/11
f 63/63/2 66/66/2 65/65/2
f 63/63/2 65/65/2 62/62/2
f 64/64/11 68/68/11 67/67/11
f 64/64/11 65/65/11 68/68/11
f 66/66/2 69/69/2 68/68/2
f 66/66/2 68/68/2 65/65/2
f 67/67/12 71/71/12 70/70/12
f 67/67/12 68/68/12 71/71/12
f 69/69/2 72/72/2 71/71/2
f 69/69/2 71/71/2 68/68/2
f 70/70/12 74/74/12 73/73/12
f 70/70/12 71/71/12 74/74/12
f 72/72/2 75/75/2 74/74/2
f 72/72/2 74/74/2 71/71/2
f 76/76/13 78/78/13 77/77/13
f 76/76/13 79/79/13 78/78/13
f 80/80/2 81/81/2 78/78/2
f 80/80/2 78/78/2 79/79/2
f 77/77/13 83/83/13 82/82/13
f 77/77/13 78/78/13 83/83/13
f 81/81/2 84/84/2 83/83/2
f 81/81/2 83/83/2 78/78/2
f 82/82/14 86/86/14 85/85/14
f 82/82/14 83/83/14 86/86/14
f 84/84/2 87/87/2 86/86/2
f 84/84/2 86/86/2 83/83/2
f 85/85/15 89/89/15 88/88/15
f 85/85/15 86/86/15 89/89/15
f 87/87/2 90/90/2 89/89/2
f 87/87/2 89/89/2 86/86/2
f 88/88/15 92/92/15 91/91/15
f 88/88/15 89/89/15 92/92/15
f 90/90/2 93/93/2 92/92/2
f 90/90/2 92/92/2 89/89/2
f 91/91/15 95/95/15 94/94/15
f 91/91/15 92/92/15 95/95/15
f 93/93/2 96/96/2 95/95/2
f 93/93/2 95/95/2 92/92/2
f 94/94/16 98/98/16 97/97/16
f 94/94/16 95/95/16 98/98/16
f 96/96/2 99/99/2 98/98/2
f 96/96/2 98/98/2 95/95/2
f 100/100/17 102/102/17 101/101/17
f 100/100/17 103/103/17 102/102/17
f 104/104/2 105/105/2 102/102/2
f 104/104/2 102/102/2 103/103/2
f 101/101/17 107/107/17 106/106/17
f 101/101/17 102/102/17 107/107/17
f 105/105/2 108/108/2 107/107/2
f 105/105/2 107/107/2 102/102/2
f 106/106/17 110/110/17 109/109/17
f 106/106/17 107/107/17 110/110/17
f 108/108/2 111/111/2 110/110/2
f 108/108/2 110/110/2 107/107/2
f 109/109/17 113/113/17 112/112/17
f 109/109/17 110/110/17 113/113/17
f 111/111/2 114/114/2 113/113/2
f 111/111/2 113/113/2 110/110/2
f 112/112/17 116/116/17 115/115/17
f 112/112/17 113/113/17 116/116/17
f 114/114/2 117/117/2 116/116/2
f 114/114/2 116/116/2 113/113/2
f 115/115/18 119/119/18 118/118/18
f 115/115/18 116/116/18 119/119/18
f 117/117/2 120/120/2 119/119/2
f 117/117/2 119/119/2 116/116/2
f 121/121/19 123/123/19 122/122/19
f 121/121/19 124/124/19 123/123/19
f 125/125/2 126/126/2 123/123/2
f 125/125/2 123/123/2 124/124/2
f 122/122/20 128/128/20 127/127/20
f 122/122/20 123/123/20 128/128/20
f 126/126/2 129/129/2 128/128/2
f 126/126/2 128/128/2 123/123/2
f 127/127/20 131/131/20 130/130/20
f 127/127/20 128/128/20 131/131/20
f 129/129/2 132/132/2 131/131/2
f 129/129/2 131/131/2 128/128/2
f 130/130/20 134/134/20 133/133/20
f 130/130/20 131/131/20 134/134/20
f 132/132/2 135/135/2 134/134/2
f 132/132/2 134/134/2 131/131/2
f 133/133/21 137/137/21 136/136/21
f 133/133/21 134/134/21 137/137/21
f 135/135/2 138/138/2 137/137/2
f 135/135/2 137/137/2 134/134/2
f 136/136/21 140/140/21 139/139/21
f 136/136/21 137/137/21 140/140/21
f 138/138/2 141/141/2 140/140/2
f 138/138/2 140/140/2 137/137/2
f 142/142/22 144/144/22 143/143/22
f 142/142/22 145/145/22 144/144/22
f 146/146/2 147/147/2 144/144/2
f 146/146/2 144/144/2 145/145/2
f 143/143/22 149/149/22 148/148/22
f 143/143/22 144/144/22 149/149/22
f 147/147/2 150/150/2 149/149/2
f 147/147/2 149/149/2 144/144/2
f 148/148/23 152/152/23 151/151/23
f 148/148/23 149/149/23 152/152/23
f 150/150/2 153/153/2 152/152/2
f 150/150/2 152/152/2 149/149/2
f 154/154/24 145/145/24 142/142/24
f 154/154/24 155/155/24 145/145/24
f 156/156/2 146/146/2 145/145/2
f 156/156/2 145/145/2 155/155/2
f 157/157/25 159/159/25 158/158/25
f 157/157/25 160/160/25 159/159/25
f 161/161/2 162/162/2 159/159/2
f 161/161/2 159/159/2 160/160/2
f 158/158/25 164/164/25 163/163/25
f 158/158/25 159/159/25 164/164/25
f 162/162/2 165/165/2 164/164/2
f 162/162/2 164/164/2 159/159/2
f 166/166/26 168/168/26 167/167/26
f 166/166/26 169/169/26 168/168/26
f 170/170/2 171/171/2 168/168/2
f 170/170/2 168/168/2 169/169/2
f 167/167/27 173/173/27 172/172/27
f 167/167/27 168/168/27 173/173/27
f 171/171/2 174/174/2 173/173/2
f 171/171/2 173/173/2 168/168/2
f 172/172/27 176/176/27 175/175/27
f 172/172/27 173/173/27 176/176/27
f 174/174/2 177/177/2 176/176/2
f 174/174/2 176/176/2 173/173/2
f 175/175/27 179/179/27 178/178/27
f 175/175/27 176/176/27 179/179/27
f 177/177/2 180/180/2 179/179/2
f 177/177/2 179/179/2 176/176/2
f 178/178/27 160/160/27 157/157/27
f 178/178/27 179/179/27 160/160/27
f 180/180/2 161/161/2 160/160/2
f 180/180/2 160/160/2 179/179/2
f 181/181/28 183/183/28 182/182/28
f 181/181/28 184/184/28 183/183/28
f 185/185/2 186/186/2 183/183/2
f 185/185/2 183/183/2 184/184/2
f 182/182/29 188/188/29 187/187/29
f 182/182/29 183/183/29 188/188/29
f 186/186/2 189/189/2 188/188/2
f 186/186/2 188/188/2 183/183/2
f 187/187/29 191/191/29 190/190/29
f 187/187/29 188/188/29 191/191/29
f 189/189/2 192/192/2 191/191/2
f 189/189/2 191/191/2 188/188/2
f 190/190/29 194/194/29 193/193/29
f 190/190/29 191/191/29 194/194/29
f 192/192/2 195/195/2 194/194/2
f 192/192/2 194/194/2 191/191/2
f 193/193/30 197/197/30 196/196/30
f 193/193/30 194/194/30 197/197/30
f 195/195/2 198/198/2 197/197/2
f 195/195/2 197/197/2 194/194/2
f 196/196/30 200/200/30 199/199/30
f 196/196/30 197/197/30 200/200/30
f 198/198/2 201/201/2 200/200/2
f 198/198/2 200/200/2 197/197/2
f 202/202/31 204/204/31 203/203/31
f 202/202/31 205/205/31 204/204/31
f 206/206/2 207/207/2 204/204/2
f 206/206/2 204/204/2 205/205/2
f 208/208/32 210/210/32 209/209/32
f 208/208/32 211/211/32 210/210/32
f 212/212/2 213/213/2 210/210/2
f 212/212/2 210/210/2 211/211/2
f 209/209/32 215/215/32 214/214/32
f 209/209/32 210/210/32 215/215/32
f 213/213/2 216/216/2 215/215/2
f 213/213/2 215/215/2 210/210/2
f 214/214/32 218/218/32 217/217/32
f 214/214/32 215/215/32 218/218/32
f 216/216/2 219/219/2 218/218/2
f 216/216/2 218/218/2 215/215/2
f 217/217/33 221/221/33 220/220/33
f 217/217/33 218/218/33 221/221/33
f 219/219/2 222/222/2 221/221/2
f 219/219/2 221/221/2 218/218/2
f 220/220/33 224/224/33 223/223/33
f 220/220/33 221/221/33 224/224/33
f 222/222/2 225/225/2 224/224/2
f 222/222/2 224/224/2 221/221/2
f 223/223/33 205/205/33 202/202/33
f 223/223/33 224/224/33 205/205/33
f 225/225/2 206/206/2 205/205/2
f 225/225/2 205/205/2 224/224/2
f 226/226/34 228/228/34 227/227/34
f 226/226/34 229/229/34 228/228/34
f 230/230/2 231/231/2 228/228/2
f 230/230/2 228/228/2 229/229/2
f 227/227/35 233/233/35 232/232/35
f 227/227/35 228/228/35 233/233/35
f 231/231/2 234/234/2 233/233/2
f 231/231/2 233/233/2 228/228/2
f 235/235/36 237/237/36 236/236/36
f 235/235/36 238/238/36 237/237/36
f 239/239/2 240/240/2 237/237/2
f 239/239/2 237/237/2 238/238/2
f 236/236/37 242/242/37 241/241/37
f 236/236/37 237/237/37 242/242/37
f 240/240/2 243/243/2 242/242/2
f 240/240/2 242/242/2 237/237/2
f 241/241/37 245/245/37 244/244/37
f 241/241/37 242/242/37 245/245/37
f 243/243/2 246/246/2 245/245/2
f 243/243/2 245/245/2 242/242/2
f 244/244/37 248/248/37 247/247/37
f 244/244/37 245/245/37 248/248/37
f 246/246/2 249/249/2 248/248/2
f 246/246/2 248/248/2 245/245/2
f 247/247/37 251/251/37 250/250/37
f 247/247/37 248/248/37 251/251/37
f 249/249/2 252/252/2 251/251/2
f 249/249/2 251/251/2 248/248/2
f 250/250/37 254/254/37 253/253/37
f 250/250/37 251/251/37 254/254/37
f 252/252/2 255/255/2 254/254/2
f 252/252/2 254/254/2 251/251/2
f 253/253/38 257/257/38 256/256/38
f 253/253/38 254/254/38 257/257/38
f 255/255/2 258/258/2 257/257/2
f 255/255/2 257/257/2 254/254/2
f 256/256/38 229/229/38 226/226/38
f 256/256/38 257/257/38 229/229/38
f 258/258/2 230/230/2 229/229/2
f 258/258/2 229/229/2 257/257/2
f 259/259/39 261/261/39 260/260/39
f 259/259/39 262/262/39 261/261/39
f 263/263/2 264/264/2 261/261/2
f 263/263/2 261/261/2 262/262/2
f 260/260/39 266/266/39 265/265/39
f 260/260/39 261/261/39 266/266/39
f 264/264/2 267/267/2 266/266/2
f 264/264/2 266/266/2 261/261/2
f 265/265/40 269/269/40 268/268/40
f 265/265/40 266/266/40 269/269/40
f 267/267/2 270/270/2 269/269/2
f 267/267/2 269/269/2 266/266/2
f 268/268/40 272/272/40 271/271/40
f 268/268/40 269/269/40 272/272/40
f 270/270/2 273/273/2 272/272/2
f 270/270/2 272/272/2 269/269/2
f 271/271/40 275/275/40 274/274/40
f 271/271/40 272/272/40 275/275/40
f 273/273/2 276/276/2 275/275/2
f 273/273/2 275/275/2 272/272/2
f 277/277/41 279/279/41 278/278/41
f 277/277/41 280/280/41 279/279/41
f 281/281/2 282/282/2 279/279/2
f 281/281/2 279/279/2 280/280/2
f 278/278/41 284/284/41 283/283/41
f 278/278/41 279/279/41 284/284/41
f 282/282/2 285/285/2 284/284/2
f 282/282/2 284/284/2 279/279/2
f 286/286/42 288/288/42 287/287/42
f 286/286/42 289/289/42 288/288/42
f 290/290/2 291/291/2 288/288/2
f 290/290/2 288/288/2 289/289/2
f 287/287/42 293/293/42 292/292/42
f 287/287/42 288/288/42 293/293/42
f 291/291/2 294/294/2 293/293/2
f 291/291/2 293/293/2 288/288/2
f 292/292/43 296/296/43 295/295/43
f 292/292/43 293/293/43 296/296/43
f 294/294/2 297/297/2 296/296/2
f 294/294/2 296/296/2 293/293/2
f 295/295/43 299/299/43 298/298/43
f 295/295/43 296/296/43 299/299/43
f 297/297/2 300/300/2 299/299/2
f 297/297/2 299/299/2 296/296/2
f 298/298/44 302/302/44 301/301/44
f 298/298/44 299/299/44 302/302/44
f 300/300/2 303/303/2 302/302/2
f 300/300/2 302/302/2 299/299/2
f 301/301/44 305/305/44 304/304/44
f 301/301/44 302/302/44 305/305/44
f 303/303/2 306/306/2 305/305/2
f 303/303/2 305/305/2 302/302/2
f 304/304/44 308/308/44 307/307/44
f 304/304/44 305/305/44 308/308/44
f 306/306/2 309/309/2 308/308/2
f 306/306/2 308/308/2 305/305/2
f 307/307/45 311/311/45 310/310/45
f 307/307/45 308/308/45 311/311/45
f 309/309/2 312/312/2 311/311/2
f 309/309/2 311/311/2 308/308/2
f 310/310/46 314/314/46 313/313/46
f 310/310/46 311/311/46 314/314/46
f 312/312/2 315/315/2 314/314/2
f 312/312/2 314/314/2 311/311/2
f 313/313/46 317/317/46 316/316/46
f 313/313/46 314/314/46 317/317/46
f 315/315/2 318/318/2 317/317/2
f 315/315/2 317/317/2 314/314/2
f 316/316/47 320/320/47 319/319/47
f 316/316/47 317/317/47 320/320/47
f 318/318/2 321/321/2 320/320/2
f 318/318/2 320/320/2 317/317/2
f 322/322/48 324/324/48 323/323/48
f 322/322/48 325/325/48 324/324/48
f 326/326/2 327/327/2 324/324/2
f 326/326/2 324/324/2 325/325/2
f 323/323/49 329/329/49 328/328/49
f 323/323/49 324/324/49 329/329/49
f 327/327/2 330/330/2 329/329/2
f 327/327/2 329/329/2 324/324/2
f 328/328/49 332/332/49 331/331/49
f 328/328/49 329/329/49 332/332/49
f 330/330/2 333/333/2 332/332/2
f 330/330/2 332/332/2 329/329/2
f 331/331/50 335/335/50 334/334/50
f 331/331/50 332/332/50 335/335/50
f 333/333/2 336/336/2 335/335/2
f 333/333/2 335/335/2 332/332/2
f 337/337/51 339/339/51 338/338/51
f 337/337/51 340/340/51 339/339/51
f 341/341/2 342/342/2 339/339/2
f 341/341/2 339/339/2 340/340/2
f 338/338/51 344/344/51 343/343/51
f 338/338/51 339/339/51 344/344/51
f 342/342/2 345/345/2 344/344/2
f 342/342/2 344/344/2 339/339/2
f 343/343/51 347/347/51 346/346/51
f 343/343/51 344/344/51 347/347/51
f 345/345/2 348/348/2 347/347/2
f 345/345/2 347/347/2 344/344/2
f 346/346/52 350/350/52 349/349/52
f 346/346/52 347/347/52 350/350/52
f 348/348/2 351/351/2 350/350/2
f 348/348/2 350/350/2 347/347/2
f 352/352/53 354/354/53 353/353/53
f 352/352/53 355/355/53 354/354/53
f 356/356/2 357/357/2 354/354/2
f 356/356/2 354/354/2 355/355/2
f 353/353/53 359/359/53 358/358/53
f 353/353/53 354/354/53 359/359/53
f 357/357/2 360/360/2 359/359/2
f 357/357/2 359/359/2 354/354/2
f 358/358/54 362/362/54 361/361/54
f 358/358/54 359/359/54 362/362/54
f 360/360/2 363/363/2 362/362/2
f 360/360/2 362/362/2 359/359/2
f 361/361/54 365/365/54 364/364/54
f 361/361/54 362/362/54 365/365/54
f 363/363/2 366/366/2 365/365/2
f 363/363/2 365/365/2 362/362/2
f 364/364/54 340/340/54 337/337/54
f 364/364/54 365/365/54 340/340/54
f 366/366/2 341/341/2 340/340/2
f 366/366/2 340/340/2 365/365/2
f 367/367/55 369/369/55 368/368/55
f 367/367/55 370/370/55 369/369/55
f 371/371/2 372/372/2 369/369/2
f 371/371/2 369/369/2 370/370/2
f 368/368/55 374/374/55 373/373/55
f 368/368/55 369/369/55 374/374/55
f 372/372/2 375/375/2 374/374/2
f 372/372/2 374/374/2 369/369/2
f 376/376/56 370/370/56 367/367/56
f 376/376/56 377/377/56 370/370/56
f 378/378/2 371/371/2 370/370/2
f 378/378/2 370/370/2 377/377/2
f 379/379/57 381/381/57 380/380/57
f 379/379/57 382/382/57 381/381/57
f 383/383/2 384/384/2 381/381/2
f 383/383/2 381/381/2 382/382/2
f 385/385/58 387/387/58 386/386/58
f 385/385/58 388/388/58 387/387/58
f 389/389/2 390/390/2 387/387/2
f 389/389/2 387/387/2 388/388/2
f 386/386/58 392/392/58 391/391/58
f 386/386/58 387/387/58 392/392/58
f 390/390/2 393/393/2 392/392/2
f 390/390/2 392/392/2 387/387/2
f 391/391/58 395/395/58 394/394/58
f 391/391/58 392/392/58 395/395/58
f 393/393/2 396/396/2 395/395/2
f 393/393/2 395/395/2 392/392/2
f 394/394/59 398/398/59 397/397/59
f 394/394/59 395/395/59 398/398/59
f 396/396/2 399/399/2 398/398/2
f 396/396/2 398/398/2 395/395/2
f 397/397/59 382/382/59 379/379/59
f 397/397/59 398/398/59 382/382/59
f 399/399/2 383/383/2 382/382/2
f 399/399/2 382/382/2 398/398/2
f 400/400/60 402/402/60 401/401/60
f 400/400/60 403/403/60 402/402/60
f 404/404/2 405/405/2 402/402/2
f 404/404/2 402/402/2 403/403/2
f 401/401/60 407/407/60 406/406/60
f 401/401/60 402/402/60 407/407/60
f 405/405/2 408/408/2 407/407/2
f 405/405/2 407/407/2 402/402/2
f 406/406/60 410/410/60 409/409/60
f 406/406/60 407/407/60 410/410/60
f 408/408/2 411/411/2 410/410/2
f 408/408/2 410/410/2 407/407/2
f 409/409/61 413/413/61 412/412/61
f 409/409/61 410/410/61 413/413/61
f 411/411/2 414/414/2 413/413/2
f 411/411/2 413/413/2 410/410/2
f 412/412/61 416/416/61 415/415/61
f 412/412/61 413/413/61 416/416/61
f 414/414/2 417/417/2 416/416/2
f 414/414/2 416/416/2 413/413/2
f 418/418/62 420/420/62 419/419/62
f 418/418/62 421/421/62 420/420/62
f 422/422/2 423/423/2 420/420/2
f 422/422/2 420/420/2 421/421/2
f 419/419/62 425/425/62 424/424/62
f 419/419/62 420/420/62 425/425/62
f 423/423/2 426/426/2 425/425/2
f 423/423/2 425/425/2 420/420/2
f 424/424/62 428/428/62 427/427/62
f 424/424/62 425/425/62 428/428/62
f 426/426/2 429/429/2 428/428/2
f 426/426/2 428/428/2 425/425/2
f 427/427/62 431/431/62 430/430/62
f 427/427/62 428/428/62 431/431/62
f 429/429/2 432/432/2 431/431/2
f 429/429/2 431/431/2 428/428/2
f 430/430/63 434/434/63 433/433/63
f 430/430/63 431/431/63 434/434/63
f 432/432/2 435/435/2 434/434/2
f 432/432/2 434/434/2 431/431/2
f 433/433/64 437/437/64 436/436/64
f 433/433/64 434/434/64 437/437/64
f 435/435/2 438/438/2 437/437/2
f 435/435/2 437/437/2 434/434/2
f 436/436/64 440/440/64 439/439/64
f 436/436/64 437/437/64 440/440/64
f 438/438/2 441/441/2 440/440/2
f 438/438/2 440/440/2 437/437/2
f 442/442/64 444/444/64 443/443/64
f 442/442/64 445/445/64 444/444/64
f 446/446/2 447/447/2 444/444/2
f 446/446/2 444/444/2 445/445/2
f 443/443/65 449/449/65 448/448/65
f 443/443/65 444/444/65 449/449/65
f 447/447/2 450/450/2 449/449/2
f 447/447/2 449/449/2 444/444/2
f 448/448/66 452/452/66 451/451/66
f 448/448/66 449/449/66 452/452/66
f 450/450/2 453/453/2 452/452/2
f 450/450/2 452/452/2 449/449/2
f 451/451/66 455/455/66 454/454/66
f 451/451/66 452/452/66 455/455/66
f 453/453/2 456/456/2 455/455/2
f 453/453/2 455/455/2 452/452/2
f 454/454/66 458/458/66 457/457/66
f 454/454/66 455/455/66 458/458/66
f 456/456/2 459/459/2 458/458/2
f 456/456/2 458/458/2 455/455/2
f 457/457/66 461/461/66 460/460/66
f 457/457/66 458/458/66 461/461/66
f 459/459/2 462/462/2 461/461/2
f 459/459/2 461/461/2 458/458/2
f 460/460/67 464/464/67 463/463/67
f 460/460/67 461/461/67 464/464/67
f 462/462/2 465/465/2 464/464/2
f 462/462/2 464/464/2 461/461/2
f 463/463/67 421/421/67 418/418/67
f 463/463/67 464/464/67 421/421/67
f 465/465/2 422/422/2 421/421/2
f 465/465/2 421/421/2 464/464/2
f 466/466/68 468/468/68 467/467/68
f 466/466/68 469/469/68 468/468/68
f 470/470/2 471/471/2 468/468/2
f 470/470/2 468/468/2 469/469/2
f 467/467/68 473/473/68 472/472/68
f 467/467/68 468/468/68 473/473/68
f 471/471/2 474/474/2 473/473/2
f 471/471/2 473/473/2 468/468/2
f 472/472/69 476/476/69 475/475/69
f 472/472/69 473/473/69 476/476/69
f 474/474/2 477/477/2 476/476/2
f 474/474/2 476/476/2 473/473/2
f 475/475/69 479/479/69 478/478/69
f 475/475/69 476/476/69 479/479/69
f 477/477/2 480/480/2 479/479/2
f 477/477/2 479/479/2 476/476/2
f 478/478/69 482/482/69 481/481/69
f 478/478/69 479/479/69 482/482/69
f 480/480/2 483/483/2 482/482/2
f 480/480/2 482/482/2 479/479/2
f 481/481/69 485/485/69 484/484/69
f 481/481/69 482/482/69 485/485/69
f 483/483/2 486/486/2 485/485/2
f 483/483/2 485/485/2 482/482/2
f 484/484/69 488/488/69 487/487/69
f 484/484/69 485/485/69 488/488/69
f 486/486/2 489/489/2 488/488/2
f 486/486/2 488/488/2 485/485/2
