# Unreal legacy OBJ adapter: canonical vertices are UE cm; this file is written with Y reflected and triangle winding reversed. One object, no g groups, so the importer creates exactly one material slot.
# OldCityFoundationV2 foundations (plinth + stepped footing); generator 463404ba754c804f514fe655944ece4eb51a92e1273fec326ad5c2ebfbb18f24
# AUTHORED detail in the style of Old City stone foundations, not survey
o SM_OldCityFoundationV2_Kept_P003_P000
s off
v 168060.55 -38118.92 -2587.60
v 168165.81 -38083.72 -2619.89
v 168165.81 -38083.72 -2562.60
v 168060.55 -38118.92 -2562.60
v 168055.26 -38129.12 -2562.60
v 168160.49 -38093.93 -2562.60
v 168375.49 -38794.30 -2621.75
v 168375.49 -38794.30 -2562.60
v 168366.45 -38791.95 -2562.60
v 168424.89 -38961.74 -2614.28
v 168424.89 -38961.74 -2562.60
v 168414.99 -38956.43 -2562.60
v 168375.49 -38977.03 -2607.13
v 168375.49 -38977.03 -2562.60
v 168366.08 -38971.56 -2562.60
v 168311.39 -38996.85 -2587.60
v 168311.39 -38996.85 -2562.60
v 168302.64 -38991.18 -2562.60
v 172907.04 -32408.13 -3912.50
v 173039.22 -32402.60 -3944.00
v 173039.22 -32402.60 -3887.50
v 172907.04 -32408.13 -3887.50
v 172900.99 -32416.39 -3887.50
v 173031.49 -32410.93 -3887.50
v 173041.49 -32472.43 -3947.34
v 173041.49 -32472.43 -3887.50
v 173033.73 -32480.04 -3887.50
v 173051.99 -32795.93 -3923.98
v 173051.99 -32795.93 -3887.50
v 173044.12 -32800.21 -3887.50
v 173057.15 -32954.93 -3912.50
v 173057.15 -32954.93 -3887.50
v 173049.23 -32957.58 -3887.50
v 172834.50 -31964.13 -3877.33
v 172705.05 -31942.55 -3845.40
v 172705.05 -31942.55 -3820.40
v 172834.50 -31964.13 -3820.40
v 172827.99 -31954.93 -3820.40
v 172700.20 -31933.64 -3820.40
v 173235.23 -29615.53 -3845.40
v 173243.24 -29616.92 -3847.81
v 173243.24 -29616.92 -3820.40
v 173235.23 -29615.53 -3820.40
v 173226.08 -29622.06 -3820.40
v 173233.98 -29623.43 -3820.40
v 173210.12 -29807.07 -3861.36
v 173210.12 -29807.07 -3820.40
v 173201.09 -29812.31 -3820.40
v 173181.33 -29972.43 -3873.14
v 173181.33 -29972.43 -3820.40
v 173172.49 -29976.57 -3820.40
v 173140.39 -30207.53 -3880.48
v 173140.39 -30207.53 -3820.40
v 173131.82 -30210.09 -3820.40
v 172839.35 -31936.30 -3877.38
v 172839.35 -31936.30 -3820.40
v 172832.80 -31927.29 -3820.40
v 174360.43 -39752.92 -3171.40
v 174348.34 -39848.93 -3152.20
v 174348.34 -39848.93 -3127.20
v 174360.43 -39752.92 -3127.20
v 174351.49 -39759.93 -3127.20
v 174339.63 -39854.09 -3127.20
v 173457.68 -39838.61 -3152.20
v 173481.54 -39650.07 -3183.32
v 173481.54 -39650.07 -3127.20
v 173457.68 -39838.61 -3127.20
v 173465.08 -39843.85 -3127.20
v 173488.49 -39658.93 -3127.20
v 173675.19 -39672.73 -3187.44
v 173675.19 -39672.73 -3127.20
v 173678.63 -39681.19 -3127.20
v 180226.35 -29557.81 -4842.40
v 180313.59 -29972.43 -4882.55
v 180313.59 -29972.43 -4817.40
v 180226.35 -29557.81 -4817.40
v 180219.69 -29565.02 -4817.40
v 180305.54 -29973.02 -4817.40
v 180401.44 -30390.00 -4872.87
v 180401.44 -30390.00 -4817.40
v 180391.99 -30383.93 -4817.40
v 180059.08 -30467.11 -4842.40
v 180059.08 -30467.11 -4817.40
v 180052.90 -30460.30 -4817.40
v 176163.65 -45814.02 -3383.30
v 176083.44 -46155.05 -3413.79
v 176083.44 -46155.05 -3358.30
v 176163.65 -45814.02 -3358.30
v 176157.68 -45804.48 -3358.30
v 176077.49 -46145.43 -3358.30
v 175875.49 -46106.19 -3418.20
v 175875.49 -46106.19 -3358.30
v 175871.39 -46097.01 -3358.30
v 175281.88 -45966.73 -3383.30
v 175281.88 -45966.73 -3358.30
v 175283.11 -45958.81 -3358.30
vt 515.4487 -6.4690
vt 515.6238 -6.5497
vt 515.6238 -6.4065
vt 515.4487 -6.4065
vt 515.4610 -6.4065
vt 515.6360 -6.4065
vt 517.9245 -6.5544
vt 517.9245 -6.4065
vt 517.8960 -6.4065
vt 518.4666 -6.5357
vt 518.4666 -6.4065
vt 518.4285 -6.4065
vt 518.3813 -6.5178
vt 518.3813 -6.4065
vt 518.3441 -6.4065
vt 518.2706 -6.4690
vt 518.2706 -6.4065
vt 518.2346 -6.4065
vt 513.2879 -9.7812
vt 513.6046 -9.8600
vt 513.6046 -9.7188
vt 513.2879 -9.7188
vt 513.2935 -9.7188
vt 513.6060 -9.7188
vt 513.7848 -9.8683
vt 513.7848 -9.7188
vt 513.7844 -9.7188
vt 514.6198 -9.8100
vt 514.6198 -9.7188
vt 514.6108 -9.7188
vt 515.0302 -9.7812
vt 515.0302 -9.7188
vt 515.0170 -9.7188
vt 511.9966 -9.6933
vt 511.6190 -9.6135
vt 511.6190 -9.5510
vt 511.9966 -9.5510
vt 511.9573 -9.5510
vt 511.5846 -9.5510
vt 507.1269 -9.6135
vt 507.1504 -9.6195
vt 507.1504 -9.5510
vt 507.1269 -9.5510
vt 507.1203 -9.5510
vt 507.1435 -9.5510
vt 507.5430 -9.6534
vt 507.5430 -9.5510
vt 507.5335 -9.5510
vt 507.8844 -9.6829
vt 507.8844 -9.5510
vt 507.8727 -9.5510
vt 508.3698 -9.7012
vt 508.3698 -9.5510
vt 508.3548 -9.5510
vt 511.9391 -9.6935
vt 511.9391 -9.5510
vt 511.9002 -9.5510
vt 535.2834 -7.9285
vt 535.4932 -7.8805
vt 535.4932 -7.8180
vt 535.2834 -7.8180
vt 535.2785 -7.8180
vt 535.4843 -7.8180
vt 533.2407 -7.8805
vt 532.8290 -7.9583
vt 532.8290 -7.8180
vt 533.2407 -7.8180
vt 533.2723 -7.8180
vt 532.8685 -7.8180
vt 533.3698 -7.9686
vt 533.3698 -7.8180
vt 533.3995 -7.8180
vt 524.4604 -12.1060
vt 525.7151 -12.2064
vt 525.7151 -12.0435
vt 524.4604 -12.0435
vt 524.4618 -12.0435
vt 525.6964 -12.0435
vt 526.9786 -12.1822
vt 526.9786 -12.0435
vt 526.9398 -12.0435
vt 526.3155 -12.1060
vt 526.3155 -12.0435
vt 526.2830 -12.0435
vt 554.9442 -8.4582
vt 555.5962 -8.5345
vt 555.5962 -8.3957
vt 554.9442 -8.3957
vt 554.9054 -8.3957
vt 555.5573 -8.3957
vt 554.9542 -8.5455
vt 554.9542 -8.3957
vt 554.9210 -8.3957
vt 553.1215 -8.4582
vt 553.1215 -8.3957
vt 553.1048 -8.3957
vn -0.3172 0.9484 0.0000
vn 0.0000 -0.0000 1.0000
vn 0.9591 0.2830 0.0000
vn 0.2955 -0.9553 0.0000
vn -0.0418 0.9991 0.0000
vn 0.9995 0.0324 0.0000
vn -0.1644 -0.9864 0.0000
vn 0.1706 0.9853 0.0000
vn 0.9852 -0.1716 0.0000
vn 0.9922 -0.1249 0.0000
vn -0.9921 0.1255 0.0000
vn 0.1162 0.9932 0.0000
vn 0.9786 0.2059 0.0000
vn 0.2197 -0.9756 0.0000
vn 0.9734 -0.2290 0.0000
vn -0.2287 -0.9735 0.0000
f 1/1/1 3/3/1 2/2/1
f 1/1/1 4/4/1 3/3/1
f 5/5/2 6/6/2 3/3/2
f 5/5/2 3/3/2 4/4/2
f 2/2/3 8/8/3 7/7/3
f 2/2/3 3/3/3 8/8/3
f 6/6/2 9/9/2 8/8/2
f 6/6/2 8/8/2 3/3/2
f 7/7/3 11/11/3 10/10/3
f 7/7/3 8/8/3 11/11/3
f 9/9/2 12/12/2 11/11/2
f 9/9/2 11/11/2 8/8/2
f 10/10/4 14/14/4 13/13/4
f 10/10/4 11/11/4 14/14/4
f 12/12/2 15/15/2 14/14/2
f 12/12/2 14/14/2 11/11/2
f 13/13/4 17/17/4 16/16/4
f 13/13/4 14/14/4 17/17/4
f 15/15/2 18/18/2 17/17/2
f 15/15/2 17/17/2 14/14/2
f 19/19/5 21/21/5 20/20/5
f 19/19/5 22/22/5 21/21/5
f 23/23/2 24/24/2 21/21/2
f 23/23/2 21/21/2 22/22/2
f 20/20/6 26/26/6 25/25/6
f 20/20/6 21/21/6 26/26/6
f 24/24/2 27/27/2 26/26/2
f 24/24/2 26/26/2 21/21/2
f 25/25/6 29/29/6 28/28/6
f 25/25/6 26/26/6 29/29/6
f 27/27/2 30/30/2 29/29/2
f 27/27/2 29/29/2 26/26/2
f 28/28/6 32/32/6 31/31/6
f 28/28/6 29/29/6 32/32/6
f 30/30/2 33/33/2 32/32/2
f 30/30/2 32/32/2 29/29/2
f 34/34/7 36/36/7 35/35/7
f 34/34/7 37/37/7 36/36/7
f 38/38/2 39/39/2 36/36/2
f 38/38/2 36/36/2 37/37/2
f 40/40/8 42/42/8 41/41/8
f 40/40/8 43/43/8 42/42/8
f 44/44/2 45/45/2 42/42/2
f 44/44/2 42/42/2 43/43/2
f 41/41/9 47/47/9 46/46/9
f 41/41/9 42/42/9 47/47/9
f 45/45/2 48/48/2 47/47/2
f 45/45/2 47/47/2 42/42/2
f 46/46/9 50/50/9 49/49/9
f 46/46/9 47/47/9 50/50/9
f 48/48/2 51/51/2 50/50/2
f 48/48/2 50/50/2 47/47/2
f 49/49/9 53/53/9 52/52/9
f 49/49/9 50/50/9 53/53/9
f 51/51/2 54/54/2 53/53/2
f 51/51/2 53/53/2 50/50/2
f 52/52/9 56/56/9 55/55/9
f 52/52/9 53/53/9 56/56/9
f 54/54/2 57/57/2 56/56/2
f 54/54/2 56/56/2 53/53/2
f 55/55/9 37/37/9 34/34/9
f 55/55/9 56/56/9 37/37/9
f 57/57/2 38/38/2 37/37/2
f 57/57/2 37/37/2 56/56/2
f 58/58/10 60/60/10 59/59/10
f 58/58/10 61/61/10 60/60/10
f 62/62/2 63/63/2 60/60/2
f 62/62/2 60/60/2 61/61/2
f 64/64/11 66/66/11 65/65/11
f 64/64/11 67/67/11 66/66/11
f 68/68/2 69/69/2 66/66/2
f 68/68/2 66/66/2 67/67/2
f 65/65/12 71/71/12 70/70/12
f 65/65/12 66/66/12 71/71/12
f 69/69/2 72/72/2 71/71/2
f 69/69/2 71/71/2 66/66/2
f 70/70/12 61/61/12 58/58/12
f 70/70/12 71/71/12 61/61/12
f 72/72/2 62/62/2 61/61/2
f 72/72/2 61/61/2 71/71/2
f 73/73/13 75/75/13 74/74/13
f 73/73/13 76/76/13 75/75/13
f 77/77/2 78/78/2 75/75/2
f 77/77/2 75/75/2 76/76/2
f 74/74/13 80/80/13 79/79/13
f 74/74/13 75/75/13 80/80/13
f 78/78/2 81/81/2 80/80/2
f 78/78/2 80/80/2 75/75/2
f 79/79/14 83/83/14 82/82/14
f 79/79/14 80/80/14 83/83/14
f 81/81/2 84/84/2 83/83/2
f 81/81/2 83/83/2 80/80/2
f 85/85/15 87/87/15 86/86/15
f 85/85/15 88/88/15 87/87/15
f 89/89/2 90/90/2 87/87/2
f 89/89/2 87/87/2 88/88/2
f 86/86/16 92/92/16 91/91/16
f 86/86/16 87/87/16 92/92/16
f 90/90/2 93/93/2 92/92/2
f 90/90/2 92/92/2 87/87/2
f 91/91/16 95/95/16 94/94/16
f 91/91/16 92/92/16 95/95/16
f 93/93/2 96/96/2 95/95/2
f 93/93/2 95/95/2 92/92/2
