# Unreal legacy OBJ adapter: canonical vertices are UE cm; this file is written with Y reflected and triangle winding reversed. One object, no g groups, so the importer creates exactly one material slot.
# OldCityFoundationV2 foundations (plinth + stepped footing); generator 463404ba754c804f514fe655944ece4eb51a92e1273fec326ad5c2ebfbb18f24
# AUTHORED detail in the style of Old City stone foundations, not survey
o SM_OldCityFoundationV2_Precinct_P001_P002
s off
v 54681.54 -114484.28 -3999.27
v 54468.81 -114513.25 -3989.60
v 54468.81 -114513.25 -3964.60
v 54681.54 -114484.28 -3964.60
v 54672.48 -114477.44 -3964.60
v 54462.03 -114506.10 -3964.60
v 54151.74 -113472.05 -3989.60
v 54361.60 -113458.55 -4006.39
v 54361.60 -113458.55 -3964.60
v 54151.74 -113472.05 -3964.60
v 54145.44 -113480.47 -3964.60
v 54354.99 -113466.99 -3964.60
v 54533.86 -113447.47 -4020.17
v 54533.86 -113447.47 -3964.60
v 54526.99 -113455.93 -3964.60
v 54564.31 -113661.26 -4022.61
v 54564.31 -113661.26 -3964.60
v 54556.99 -113666.56 -3964.60
v 54579.56 -113768.35 -4023.83
v 54579.56 -113768.35 -3964.60
v 54572.01 -113772.08 -3964.60
v 62876.90 -108862.63 -5129.80
v 62890.91 -108847.14 -5136.26
v 62890.91 -108847.14 -5104.80
v 62876.90 -108862.63 -5104.80
v 62877.65 -108873.72 -5104.80
v 62891.48 -108858.43 -5104.80
v 63375.49 -109284.77 -5165.03
v 63375.49 -109284.77 -5104.80
v 63367.16 -109288.04 -5104.80
v 63537.79 -109431.36 -5161.68
v 63537.79 -109431.36 -5104.80
v 63526.49 -109431.93 -5104.80
v 63454.12 -109523.84 -5129.80
v 63454.12 -109523.84 -5104.80
v 63443.89 -109523.23 -5104.80
v 72135.17 -101847.54 -8806.00
v 72053.71 -102472.43 -8851.66
v 72053.71 -102472.43 -8781.00
v 72135.17 -101847.54 -8781.00
v 72127.29 -101846.13 -8781.00
v 72046.62 -102464.98 -8781.00
v 72033.38 -102628.39 -8838.11
v 72033.38 -102628.39 -8781.00
v 72026.49 -102619.43 -8781.00
v 71942.89 -102616.59 -8806.00
v 71942.89 -102616.59 -8781.00
v 71936.82 -102607.73 -8781.00
v 85700.42 -112602.78 -10580.90
v 85718.75 -112553.17 -10613.52
v 85718.75 -112553.17 -10555.90
v 85700.42 -112602.78 -10555.90
v 85705.36 -112612.48 -10555.90
v 85723.49 -112563.44 -10555.90
v 85774.28 -112573.64 -10630.34
v 85774.28 -112573.64 -10555.90
v 85778.68 -112583.78 -10555.90
v 85875.49 -112610.94 -10644.40
v 85875.49 -112610.94 -10555.90
v 85879.27 -112620.86 -10555.90
v 86094.86 -112691.80 -10630.98
v 86094.86 -112691.80 -10555.90
v 86097.32 -112701.24 -10555.90
v 86913.54 -112993.58 -10580.90
v 86913.54 -112993.58 -10555.90
v 86911.07 -113001.20 -10555.90
v 87425.70 -111007.85 -11444.20
v 87438.42 -110975.09 -11456.72
v 87438.42 -110975.09 -11419.20
v 87425.70 -111007.85 -11419.20
v 87430.44 -111017.75 -11419.20
v 87442.99 -110985.43 -11419.20
v 88375.49 -111337.64 -11490.63
v 88375.49 -111337.64 -11419.20
v 88368.94 -111343.68 -11419.20
v 88697.85 -111462.36 -11476.51
v 88697.85 -111462.36 -11419.20
v 88687.49 -111466.93 -11419.20
v 88662.04 -111554.38 -11444.20
v 88662.04 -111554.38 -11419.20
v 88652.18 -111557.69 -11419.20
v 95715.56 -108124.25 -13410.90
v 95808.99 -108046.79 -13442.62
v 95808.99 -108046.79 -13385.90
v 95715.56 -108124.25 -13385.90
v 95714.70 -108135.36 -13385.90
v 95807.49 -108058.43 -13385.90
v 95875.49 -108139.62 -13447.44
v 95875.49 -108139.62 -13385.90
v 95873.42 -108150.47 -13385.90
v 96093.61 -108444.10 -13410.90
v 96093.61 -108444.10 -13385.90
v 96089.68 -108452.36 -13385.90
vt 422.9146 -9.9982
vt 422.4552 -9.9740
vt 422.4552 -9.9115
vt 422.9146 -9.9115
vt 422.8748 -9.9115
vt 422.4203 -9.9115
vt 419.0595 -9.9740
vt 419.5504 -10.0160
vt 419.5504 -9.9115
vt 419.0595 -9.9115
vt 419.0648 -9.9115
vt 419.5550 -9.9115
vt 419.9533 -10.0504
vt 419.9533 -9.9115
vt 419.9573 -9.9115
vt 420.5639 -10.0565
vt 420.5639 -9.9115
vt 420.5589 -9.9115
vt 420.8698 -10.0596
vt 420.8698 -9.9115
vt 420.8602 -9.9115
vt 429.3488 -12.8245
vt 429.3451 -12.8407
vt 429.3451 -12.7620
vt 429.3488 -12.7620
vt 429.3784 -12.7620
vt 429.3748 -12.7620
vt 431.6507 -12.9126
vt 431.6507 -12.7620
vt 431.6380 -12.7620
vt 432.4229 -12.9042
vt 432.4229 -12.7620
vt 432.3960 -12.7620
vt 432.4449 -12.8245
vt 432.4449 -12.7620
vt 432.4178 -12.7620
vt 434.9568 -22.0150
vt 436.3154 -22.1291
vt 436.3154 -21.9525
vt 434.9568 -21.9525
vt 434.9335 -21.9525
vt 436.2790 -21.9525
vt 436.6544 -22.0953
vt 436.6544 -21.9525
vt 436.6148 -21.9525
vt 436.3987 -22.0150
vt 436.3987 -21.9525
vt 436.3614 -21.9525
vt 495.7580 -26.4522
vt 495.6798 -26.5338
vt 495.6798 -26.3897
vt 495.7580 -26.3897
vt 495.7946 -26.3897
vt 495.7173 -26.3897
vt 495.8698 -26.5758
vt 495.8698 -26.3897
vt 495.9061 -26.3897
vt 496.2161 -26.6110
vt 496.2161 -26.3897
vt 496.2503 -26.3897
vt 496.9667 -26.5774
vt 496.9667 -26.3897
vt 496.9964 -26.3897
vt 499.7678 -26.4522
vt 499.7678 -26.3897
vt 499.7807 -26.3897
vt 496.0839 -28.6105
vt 496.0338 -28.6418
vt 496.0338 -28.5480
vt 496.0839 -28.5480
vt 496.1205 -28.5480
vt 496.0710 -28.5480
vt 499.2828 -28.7266
vt 499.2828 -28.5480
vt 499.2815 -28.5480
vt 500.4005 -28.6913
vt 500.4005 -28.5480
vt 500.3860 -28.5480
vt 500.5410 -28.6105
vt 500.5410 -28.5480
vt 500.5247 -28.5480
vt 509.5995 -33.5273
vt 509.6395 -33.6065
vt 509.6395 -33.4648
vt 509.5995 -33.4648
vt 509.6252 -33.4648
vt 509.6648 -33.4648
vt 510.0378 -33.6186
vt 510.0378 -33.4648
vt 510.0597 -33.4648
vt 511.3443 -33.5273
vt 511.3443 -33.4648
vt 511.3551 -33.4648
vn 0.1350 -0.9909 0.0000
vn 0.0000 -0.0000 1.0000
vn -0.0642 0.9979 0.0000
vn 0.9900 0.1410 0.0000
vn -0.7416 0.6709 0.0000
vn 0.6702 0.7421 0.0000
vn 0.7416 -0.6709 0.0000
vn 0.9916 -0.1293 0.0000
vn -0.1293 -0.9916 0.0000
vn -0.9380 0.3466 0.0000
vn 0.3459 0.9383 0.0000
vn -0.9323 0.3618 0.0000
vn 0.3608 0.9326 0.0000
vn 0.9320 -0.3626 0.0000
vn -0.6383 0.7698 0.0000
vn 0.8129 0.5824 0.0000
f 1/1/1 3/3/1 2/2/1
f 1/1/1 4/4/1 3/3/1
f 5/5/2 6/6/2 3/3/2
f 5/5/2 3/3/2 4/4/2
f 7/7/3 9/9/3 8/8/3
f 7/7/3 10/10/3 9/9/3
f 11/11/2 12/12/2 9/9/2
f 11/11/2 9/9/2 10/10/2
f 8/8/3 14/14/3 13/13/3
f 8/8/3 9/9/3 14/14/3
f 12/12/2 15/15/2 14/14/2
f 12/12/2 14/14/2 9/9/2
f 13/13/4 17/17/4 16/16/4
f 13/13/4 14/14/4 17/17/4
f 15/15/2 18/18/2 17/17/2
f 15/15/2 17/17/2 14/14/2
f 16/16/4 20/20/4 19/19/4
f 16/16/4 17/17/4 20/20/4
f 18/18/2 21/21/2 20/20/2
f 18/18/2 20/20/2 17/17/2
f 19/19/4 4/4/4 1/1/4
f 19/19/4 20/20/4 4/4/4
f 21/21/2 5/5/2 4/4/2
f 21/21/2 4/4/2 20/20/2
f 22/22/5 24/24/5 23/23/5
f 22/22/5 25/25/5 24/24/5
f 26/26/2 27/27/2 24/24/2
f 26/26/2 24/24/2 25/25/2
f 23/23/6 29/29/6 28/28/6
f 23/23/6 24/24/6 29/29/6
f 27/27/2 30/30/2 29/29/2
f 27/27/2 29/29/2 24/24/2
f 28/28/6 32/32/6 31/31/6
f 28/28/6 29/29/6 32/32/6
f 30/30/2 33/33/2 32/32/2
f 30/30/2 32/32/2 29/29/2
f 31/31/7 35/35/7 34/34/7
f 31/31/7 32/32/7 35/35/7
f 33/33/2 36/36/2 35/35/2
f 33/33/2 35/35/2 32/32/2
f 37/37/8 39/39/8 38/38/8
f 37/37/8 40/40/8 39/39/8
f 41/41/2 42/42/2 39/39/2
f 41/41/2 39/39/2 40/40/2
f 38/38/8 44/44/8 43/43/8
f 38/38/8 39/39/8 44/44/8
f 42/42/2 45/45/2 44/44/2
f 42/42/2 44/44/2 39/39/2
f 43/43/9 47/47/9 46/46/9
f 43/43/9 44/44/9 47/47/9
f 45/45/2 48/48/2 47/47/2
f 45/45/2 47/47/2 44/44/2
f 49/49/10 51/51/10 50/50/10
f 49/49/10 52/52/10 51/51/10
f 53/53/2 54/54/2 51/51/2
f 53/53/2 51/51/2 52/52/2
f 50/50/11 56/56/11 55/55/11
f 50/50/11 51/51/11 56/56/11
f 54/54/2 57/57/2 56/56/2
f 54/54/2 56/56/2 51/51/2
f 55/55/11 59/59/11 58/58/11
f 55/55/11 56/56/11 59/59/11
f 57/57/2 60/60/2 59/59/2
f 57/57/2 59/59/2 56/56/2
f 58/58/11 62/62/11 61/61/11
f 58/58/11 59/59/11 62/62/11
f 60/60/2 63/63/2 62/62/2
f 60/60/2 62/62/2 59/59/2
f 61/61/11 65/65/11 64/64/11
f 61/61/11 62/62/11 65/65/11
f 63/63/2 66/66/2 65/65/2
f 63/63/2 65/65/2 62/62/2
f 67/67/12 69/69/12 68/68/12
f 67/67/12 70/70/12 69/69/12
f 71/71/2 72/72/2 69/69/2
f 71/71/2 69/69/2 70/70/2
f 68/68/13 74/74/13 73/73/13
f 68/68/13 69/69/13 74/74/13
f 72/72/2 75/75/2 74/74/2
f 72/72/2 74/74/2 69/69/2
f 73/73/13 77/77/13 76/76/13
f 73/73/13 74/74/13 77/77/13
f 75/75/2 78/78/2 77/77/2
f 75/75/2 77/77/2 74/74/2
f 76/76/14 80/80/14 79/79/14
f 76/76/14 77/77/14 80/80/14
f 78/78/2 81/81/2 80/80/2
f 78/78/2 80/80/2 77/77/2
f 82/82/15 84/84/15 83/83/15
f 82/82/15 85/85/15 84/84/15
f 86/86/2 87/87/2 84/84/2
f 86/86/2 84/84/2 85/85/2
f 83/83/16 89/89/16 88/88/16
f 83/83/16 84/84/16 89/89/16
f 87/87/2 90/90/2 89/89/2
f 87/87/2 89/89/2 84/84/2
f 88/88/16 92/92/16 91/91/16
f 88/88/16 89/89/16 92/92/16
f 90/90/2 93/93/2 92/92/2
f 90/90/2 92/92/2 89/89/2
