# JudeanFloraV1; canonical UE cm (X east, +Y south, Z up), written with Y reflected and triangle winding reversed for the legacy OBJ importer adapter. One o object, no g groups, so the importer creates exactly one material slot.
# date palm (Phoenix dactylifera), StreetTreesV1 seed 2, LOD1 bark
# height 9.0-16.0 m, crown 5.5-8.5 m; source: Zohary, M., Plants of the Bible (Cambridge University Press, 1982), species entry Phoenix dactylifera; 9-16 m with a 5.5-8.5 m crown of pinnate fronds
# branching is recursive with da Vinci child radii; leaf sprays are anchored to branch tips. Stylised habit, not a survey of any tree.
o SM_StreetTreesV1_DatePalm_S2_L1_Bark
s off
v 0.00000 26.57120 0.66428
v 20.41106 11.78794 0.03956
v 23.01673 -13.27841 -0.61967
v 0.00000 -23.56314 -0.58908
v -23.01673 -13.29279 -0.04461
v -20.41106 11.77519 0.54952
v 2.82542 19.56928 226.66425
v 22.19409 5.54376 225.82940
v 24.66669 -18.24726 225.17281
v 2.82542 -28.01586 225.47463
v -19.01585 -18.27455 226.26419
v -16.54325 5.51956 226.79723
v 11.30169 12.56735 452.66423
v 29.61561 -0.69537 451.41697
v 31.95356 -23.21041 450.73719
v 11.30169 -32.46857 451.53833
v -9.35019 -23.26201 452.80109
v -7.01224 -0.74112 453.24721
v 25.42880 5.56543 678.66420
v 42.67924 -6.93583 677.05789
v 44.88142 -28.17506 676.36175
v 25.42880 -36.92129 677.60204
v 5.97617 -28.24796 679.27782
v 8.17836 -7.00048 679.64384
v 45.20675 -1.43649 904.66418
v 61.38703 -13.17763 902.75262
v 63.45259 -33.14123 902.04698
v 45.20675 -41.37401 903.66574
v 26.96091 -33.23240 905.69387
v 29.02647 -13.25848 905.98666
v 70.63555 -8.43841 1130.66415
v 85.76317 -19.42544 1128.68762
v 87.69436 -38.11418 1128.00314
v 70.63555 -45.82673 1129.72945
v 53.57674 -38.21007 1131.83898
v 55.50792 -19.51048 1132.08921
vt 0.00000 0.00000
vt 0.16667 0.00000
vt 0.33333 0.00000
vt 0.50000 0.00000
vt 0.66667 0.00000
vt 0.83333 0.00000
vt 0.00000 0.20000
vt 0.16667 0.20000
vt 0.33333 0.20000
vt 0.50000 0.20000
vt 0.66667 0.20000
vt 0.83333 0.20000
vt 0.00000 0.40000
vt 0.16667 0.40000
vt 0.33333 0.40000
vt 0.50000 0.40000
vt 0.66667 0.40000
vt 0.83333 0.40000
vt 0.00000 0.60000
vt 0.16667 0.60000
vt 0.33333 0.60000
vt 0.50000 0.60000
vt 0.66667 0.60000
vt 0.83333 0.60000
vt 0.00000 0.80000
vt 0.16667 0.80000
vt 0.33333 0.80000
vt 0.50000 0.80000
vt 0.66667 0.80000
vt 0.83333 0.80000
vt 0.00000 1.00000
vt 0.16667 1.00000
vt 0.33333 1.00000
vt 0.50000 1.00000
vt 0.66667 1.00000
vt 0.83333 1.00000
vn 0.5868 0.8095 0.0178
vn 0.5869 0.8095 0.0177
vn 0.9946 0.1035 -0.0050
vn 0.4078 -0.9128 -0.0231
vn 0.4079 -0.9127 -0.0231
vn -0.4077 -0.9130 -0.0129
vn -0.9945 0.1029 0.0198
vn -0.5867 0.8091 0.0324
vn 0.5866 0.8099 0.0031
vn 0.5867 0.8098 0.0031
vn 0.9941 0.1041 -0.0298
vn 0.4077 -0.9125 -0.0333
vn 0.4078 -0.9125 -0.0333
vn -0.4074 -0.9132 -0.0027
vn -0.4073 -0.9133 -0.0027
vn -0.9938 0.1023 0.0447
vn -0.5863 0.8087 0.0470
vn -0.5862 0.8088 0.0470
vn 0.5860 0.8102 -0.0115
vn 0.5861 0.8102 -0.0115
vn 0.9930 0.1048 -0.0546
vn 0.9930 0.1047 -0.0546
vn 0.4073 -0.9123 -0.0434
vn 0.4074 -0.9122 -0.0434
vn -0.4068 -0.9135 0.0074
vn -0.4067 -0.9135 0.0074
vn -0.9924 0.1016 0.0694
vn -0.9924 0.1017 0.0694
vn -0.5855 0.8084 0.0616
vn -0.5854 0.8084 0.0616
vn 0.5850 0.8106 -0.0261
vn 0.5851 0.8105 -0.0261
vn 0.9913 0.1054 -0.0793
vn 0.4066 -0.9120 -0.0535
vn 0.4067 -0.9120 -0.0535
vn -0.4059 -0.9137 0.0175
vn -0.4058 -0.9138 0.0175
vn -0.9904 0.1010 0.0940
vn -0.5842 0.8080 0.0762
vn -0.5842 0.8081 0.0761
vn 0.5837 0.8110 -0.0405
vn 0.5837 0.8110 -0.0406
vn 0.9889 0.1060 -0.1038
vn 0.4058 -0.9118 -0.0636
vn -0.4048 -0.9140 0.0275
vn -0.4047 -0.9140 0.0275
vn -0.9879 0.1004 0.1185
vn -0.5827 0.8076 0.0906
vn -0.5826 0.8077 0.0906
vn 0.1118 -0.0248 0.9934
vn -0.0125 0.0250 -0.9996
f 1/1/1 8/8/1 2/2/1
f 1/1/2 7/7/2 8/8/2
f 2/2/3 9/9/3 3/3/3
f 2/2/3 8/8/3 9/9/3
f 3/3/4 10/10/4 4/4/4
f 3/3/5 9/9/5 10/10/5
f 4/4/6 11/11/6 5/5/6
f 4/4/6 10/10/6 11/11/6
f 5/5/7 12/12/7 6/6/7
f 5/5/7 11/11/7 12/12/7
f 6/6/8 7/7/8 1/1/8
f 6/6/8 12/12/8 7/7/8
f 7/7/9 14/14/9 8/8/9
f 7/7/10 13/13/10 14/14/10
f 8/8/11 15/15/11 9/9/11
f 8/8/11 14/14/11 15/15/11
f 9/9/12 16/16/12 10/10/12
f 9/9/13 15/15/13 16/16/13
f 10/10/14 17/17/14 11/11/14
f 10/10/15 16/16/15 17/17/15
f 11/11/16 18/18/16 12/12/16
f 11/11/16 17/17/16 18/18/16
f 12/12/17 13/13/17 7/7/17
f 12/12/18 18/18/18 13/13/18
f 13/13/19 20/20/19 14/14/19
f 13/13/20 19/19/20 20/20/20
f 14/14/21 21/21/21 15/15/21
f 14/14/22 20/20/22 21/21/22
f 15/15/23 22/22/23 16/16/23
f 15/15/24 21/21/24 22/22/24
f 16/16/25 23/23/25 17/17/25
f 16/16/26 22/22/26 23/23/26
f 17/17/27 24/24/27 18/18/27
f 17/17/28 23/23/28 24/24/28
f 18/18/29 19/19/29 13/13/29
f 18/18/30 24/24/30 19/19/30
f 19/19/31 26/26/31 20/20/31
f 19/19/32 25/25/32 26/26/32
f 20/20/33 27/27/33 21/21/33
f 20/20/33 26/26/33 27/27/33
f 21/21/34 28/28/34 22/22/34
f 21/21/35 27/27/35 28/28/35
f 22/22/36 29/29/36 23/23/36
f 22/22/37 28/28/37 29/29/37
f 23/23/38 30/30/38 24/24/38
f 23/23/38 29/29/38 30/30/38
f 24/24/39 25/25/39 19/19/39
f 24/24/40 30/30/40 25/25/40
f 25/25/41 32/32/41 26/26/41
f 25/25/42 31/31/42 32/32/42
f 26/26/43 33/33/43 27/27/43
f 26/26/43 32/32/43 33/33/43
f 27/27/44 34/34/44 28/28/44
f 27/27/44 33/33/44 34/34/44
f 28/28/45 35/35/45 29/29/45
f 28/28/46 34/34/46 35/35/46
f 29/29/47 36/36/47 30/30/47
f 29/29/47 35/35/47 36/36/47
f 30/30/48 31/31/48 25/25/48
f 30/30/49 36/36/49 31/31/49
f 31/31/50 33/33/50 32/32/50
f 31/31/50 34/34/50 33/33/50
f 31/31/50 35/35/50 34/34/50
f 31/31/50 36/36/50 35/35/50
f 6/6/51 4/4/51 5/5/51
f 6/6/51 3/3/51 4/4/51
f 6/6/51 2/2/51 3/3/51
f 6/6/51 1/1/51 2/2/51
