# JudeanFloraV1; canonical UE cm (X east, +Y south, Z up), written with Y reflected and triangle winding reversed for the legacy OBJ importer adapter. One o object, no g groups, so the importer creates exactly one material slot.
# Italian cypress (Cupressus sempervirens), StreetTreesV1 seed 3, LOD2 bark
# height 10.0-19.0 m, crown 1.8-3.8 m; source: Zohary, M., Plants of the Bible (Cambridge University Press, 1982), species entry Cupressus sempervirens; the columnar form is 1.8-3.8 m across at 10-19 m
# branching is recursive with da Vinci child radii; leaf sprays are anchored to branch tips. Stylised habit, not a survey of any tree.
o SM_StreetTreesV1_Cypress_S3_L2_Bark
s off
v 0.00000 28.59750 0.00600
v 27.20168 0.00004 -0.21094
v 0.00000 -28.59750 -0.00600
v -27.20168 -0.00004 0.21094
v 1.11514 22.61621 99.94410
v 22.30555 -0.34525 99.62732
v 0.43609 -22.65818 100.09829
v -20.75432 0.30328 100.41507
v 4.21462 18.84177 200.03149
v 20.98649 0.10770 199.39653
v 3.12201 -17.58960 199.97144
v -13.64986 1.14447 200.60640
v 8.41421 14.36187 299.93843
v 21.93130 -1.19792 299.46848
v 7.07111 -15.48073 299.93281
v -6.44597 0.07906 300.40276
v 10.98031 12.69565 399.70664
v 22.03313 -0.42211 399.55372
v 9.49074 -12.10989 400.14361
v -1.56209 1.00786 400.29653
v 15.00496 12.94571 499.48484
v 24.09432 1.81717 499.42695
v 13.44672 -7.80007 500.20255
v 4.35736 3.32846 500.26044
v 19.92524 15.14469 599.26110
v 27.34161 5.77380 599.22658
v 18.37193 -2.07744 600.07518
v 10.95555 7.29345 600.10970
v 26.49068 17.92412 699.01749
v 32.37938 10.24637 698.96833
v 25.02507 4.00487 699.73319
v 19.13637 11.68263 699.78235
v 25.75787 17.31721 699.81184
v 32.12497 10.97046 699.28855
v 25.75787 4.61178 698.93884
v 19.39077 10.95853 699.46213
v 28.87984 0.35024 927.50615
v 33.93097 -4.69573 927.25387
v 28.87984 -9.74699 927.15296
v 23.82870 -4.70102 927.40524
v 32.60497 -1.26653 1155.91400
v 36.34052 -4.99990 1155.77708
v 32.60497 -8.73518 1155.71000
v 28.86942 -5.00181 1155.84692
v 33.15145 -14.75558 1384.12888
v 35.57116 -17.17156 1383.99422
v 33.15145 -19.58816 1383.87112
v 30.73173 -17.17218 1384.00578
v 25.75787 12.66087 698.88407
v 27.51422 11.01599 699.55316
v 25.75787 9.26812 699.86661
v 24.00152 10.91300 699.19752
v 12.14859 48.24187 823.06252
v 13.54000 46.91949 823.55383
v 12.14859 45.51931 823.72574
v 10.75717 46.84169 823.23443
v -4.67443 72.95799 949.49729
v -3.64272 71.95170 949.76177
v -4.67443 70.91405 949.83839
v -5.70614 71.92034 949.57390
v -11.69008 90.05651 1078.03729
v -11.01995 89.39639 1078.16359
v -11.69008 88.72651 1078.21802
v -12.36021 89.38663 1078.09172
v 25.75787 12.71738 699.59086
v 27.48015 11.01220 698.98739
v 25.75787 9.21162 699.15983
v 24.03559 10.91680 699.76330
v 48.19172 0.29467 797.63864
v 49.57173 -1.07132 797.24395
v 48.19172 -2.49054 797.33065
v 46.81172 -1.12455 797.72534
v 60.75057 -9.91924 897.64642
v 61.78127 -10.94667 897.47602
v 60.75057 -11.98735 897.51641
v 59.71986 -10.95992 897.68681
v 68.83593 -13.06880 998.60031
v 69.50490 -13.73818 998.52829
v 68.83593 -14.41052 998.56329
v 68.16696 -13.74114 998.63531
vt 0.00000 0.00000
vt 0.25000 0.00000
vt 0.50000 0.00000
vt 0.75000 0.00000
vt 0.00000 0.14286
vt 0.25000 0.14286
vt 0.50000 0.14286
vt 0.75000 0.14286
vt 0.00000 0.28571
vt 0.25000 0.28571
vt 0.50000 0.28571
vt 0.75000 0.28571
vt 0.00000 0.42857
vt 0.25000 0.42857
vt 0.50000 0.42857
vt 0.75000 0.42857
vt 0.00000 0.57143
vt 0.25000 0.57143
vt 0.50000 0.57143
vt 0.75000 0.57143
vt 0.00000 0.71429
vt 0.25000 0.71429
vt 0.50000 0.71429
vt 0.75000 0.71429
vt 0.00000 0.85714
vt 0.25000 0.85714
vt 0.50000 0.85714
vt 0.75000 0.85714
vt 0.00000 1.00000
vt 0.25000 1.00000
vt 0.50000 1.00000
vt 0.75000 1.00000
vt 0.00000 0.00000
vt 0.25000 0.00000
vt 0.50000 0.00000
vt 0.75000 0.00000
vt 0.00000 0.33333
vt 0.25000 0.33333
vt 0.50000 0.33333
vt 0.75000 0.33333
vt 0.00000 0.66667
vt 0.25000 0.66667
vt 0.50000 0.66667
vt 0.75000 0.66667
vt 0.00000 1.00000
vt 0.25000 1.00000
vt 0.50000 1.00000
vt 0.75000 1.00000
vt 0.00000 0.00000
vt 0.25000 0.00000
vt 0.50000 0.00000
vt 0.75000 0.00000
vt 0.00000 0.33333
vt 0.25000 0.33333
vt 0.50000 0.33333
vt 0.75000 0.33333
vt 0.00000 0.66667
vt 0.25000 0.66667
vt 0.50000 0.66667
vt 0.75000 0.66667
vt 0.00000 1.00000
vt 0.25000 1.00000
vt 0.50000 1.00000
vt 0.75000 1.00000
vt 0.00000 0.00000
vt 0.25000 0.00000
vt 0.50000 0.00000
vt 0.75000 0.00000
vt 0.00000 0.33333
vt 0.25000 0.33333
vt 0.50000 0.33333
vt 0.75000 0.33333
vt 0.00000 0.66667
vt 0.25000 0.66667
vt 0.50000 0.66667
vt 0.75000 0.66667
vt 0.00000 1.00000
vt 0.25000 1.00000
vt 0.50000 1.00000
vt 0.75000 1.00000
vn 0.7242 0.6886 0.0379
vn 0.7347 0.6776 0.0324
vn 0.7242 -0.6886 0.0377
vn 0.7141 -0.6993 0.0326
vn -0.7235 -0.6886 0.0486
vn -0.7339 -0.6779 0.0434
vn -0.7235 0.6886 0.0493
vn -0.7130 0.6998 0.0438
vn 0.7349 0.6781 0.0066
vn 0.7451 0.6670 0.0021
vn 0.7142 -0.6997 0.0163
vn 0.7039 -0.7102 0.0125
vn -0.7333 -0.6775 0.0577
vn -0.7431 -0.6671 0.0538
vn -0.7128 0.6997 0.0485
vn -0.7024 0.7104 0.0438
vn 0.7451 0.6670 0.0017
vn 0.7549 0.6559 -0.0023
vn 0.7035 -0.7106 -0.0128
vn 0.6926 -0.7211 -0.0159
vn -0.7435 -0.6672 0.0465
vn -0.7536 -0.6559 0.0436
vn -0.7015 0.7101 0.0613
vn -0.6909 0.7207 0.0576
vn 0.7548 0.6559 -0.0059
vn 0.7646 0.6444 -0.0089
vn 0.6931 -0.7208 0.0075
vn 0.6819 -0.7315 0.0050
vn -0.7536 -0.6559 0.0429
vn -0.7639 -0.6441 0.0401
vn -0.6922 0.7211 0.0298
vn -0.6808 0.7320 0.0265
vn 0.7642 0.6443 -0.0302
vn 0.7740 0.6323 -0.0328
vn 0.6819 -0.7315 0.0045
vn 0.6704 -0.7420 0.0028
vn -0.7630 -0.6436 0.0601
vn -0.7731 -0.6317 0.0578
vn -0.6809 0.7320 0.0256
vn -0.6692 0.7427 0.0224
vn 0.7734 0.6319 -0.0502
vn 0.7830 0.6199 -0.0523
vn 0.6706 -0.7417 0.0094
vn 0.6591 -0.7520 0.0084
vn -0.7721 -0.6310 0.0761
vn -0.7819 -0.6191 0.0740
vn -0.6695 0.7426 0.0167
vn -0.6578 0.7530 0.0136
vn 0.7822 0.6193 -0.0673
vn 0.7914 0.6074 -0.0690
vn 0.6587 -0.7524 0.0019
vn 0.6472 -0.7624 0.0015
vn -0.7807 -0.6182 0.0913
vn -0.7900 -0.6065 0.0898
vn -0.6573 0.7533 0.0223
vn -0.6458 0.7633 0.0194
vn 0.0661 0.0443 0.9968
vn -0.0078 0.0002 -1.0000
vn 0.7071 0.7058 0.0429
vn 0.7072 0.7057 0.0429
vn 0.7071 -0.7051 -0.0540
vn 0.7066 -0.7055 -0.0541
vn -0.7070 -0.7064 -0.0348
vn -0.7072 -0.7062 -0.0348
vn -0.7070 0.7045 0.0622
vn -0.7064 0.7051 0.0622
vn 0.7066 0.7076 -0.0065
vn 0.7068 0.7074 -0.0065
vn 0.7072 -0.7070 -0.0084
vn 0.7071 -0.7070 -0.0084
vn -0.7063 -0.7078 0.0147
vn -0.7066 -0.7075 0.0146
vn -0.7072 0.7068 0.0165
vn -0.7071 0.7069 0.0165
vn 0.7071 0.7060 0.0400
vn 0.7070 -0.7064 -0.0353
vn 0.7071 -0.7062 -0.0353
vn -0.7071 -0.7064 -0.0319
vn -0.7068 0.7061 0.0434
vn -0.7071 0.7058 0.0434
vn 0.0024 -0.0533 0.9986
vn -0.0137 0.0685 -0.9976
vn 0.7030 0.7004 -0.1236
vn 0.7061 0.6975 -0.1225
vn 0.7030 -0.6580 0.2698
vn 0.6993 -0.6617 0.2704
vn -0.7034 -0.6993 0.1274
vn -0.7064 -0.6964 0.1262
vn -0.7034 0.6591 -0.2660
vn -0.6998 0.6627 -0.2667
vn 0.6968 0.7157 -0.0471
vn 0.7034 0.7093 -0.0451
vn 0.7044 -0.6718 0.2292
vn 0.6986 -0.6777 0.2295
vn -0.6974 -0.7149 0.0510
vn -0.7038 -0.7087 0.0488
vn -0.7048 0.6727 -0.2253
vn -0.6991 0.6784 -0.2258
vn 0.7044 0.7076 -0.0557
vn 0.7060 0.7061 -0.0554
vn 0.7076 -0.6936 0.1349
vn 0.7060 -0.6953 0.1350
vn -0.7048 -0.7069 0.0596
vn -0.7062 -0.7055 0.0593
vn -0.7078 0.6941 -0.1310
vn -0.7062 0.6958 -0.1311
vn -0.0540 0.1344 0.9894
vn 0.1048 -0.2766 -0.9552
vn 0.6901 0.7206 -0.0665
vn 0.6921 0.7187 -0.0673
vn 0.6901 -0.6830 -0.2391
vn 0.6888 -0.6844 -0.2390
vn -0.6890 -0.7212 0.0715
vn -0.6911 -0.7191 0.0722
vn -0.6890 0.6824 0.2441
vn -0.6878 0.6837 0.2439
vn 0.7012 0.7128 -0.0152
vn 0.7046 0.7095 -0.0160
vn 0.7037 -0.6936 -0.1540
vn 0.6990 -0.6983 -0.1540
vn -0.7004 -0.7135 0.0202
vn -0.7041 -0.7098 0.0210
vn -0.7029 0.6932 0.1591
vn -0.6984 0.6979 0.1588
vn 0.7027 0.7106 -0.0341
vn 0.7051 0.7083 -0.0344
vn 0.7072 -0.7032 -0.0734
vn 0.7051 -0.7053 -0.0734
vn -0.7022 -0.7109 0.0392
vn -0.7047 -0.7085 0.0394
vn -0.7068 0.7031 0.0785
vn -0.7047 0.7052 0.0784
vn 0.0798 -0.0275 0.9964
vn -0.2213 0.1190 -0.9679
f 1/1/1 6/6/1 2/2/1
f 1/1/2 5/5/2 6/6/2
f 2/2/3 7/7/3 3/3/3
f 2/2/4 6/6/4 7/7/4
f 3/3/5 8/8/5 4/4/5
f 3/3/6 7/7/6 8/8/6
f 4/4/7 5/5/7 1/1/7
f 4/4/8 8/8/8 5/5/8
f 5/5/9 10/10/9 6/6/9
f 5/5/10 9/9/10 10/10/10
f 6/6/11 11/11/11 7/7/11
f 6/6/12 10/10/12 11/11/12
f 7/7/13 12/12/13 8/8/13
f 7/7/14 11/11/14 12/12/14
f 8/8/15 9/9/15 5/5/15
f 8/8/16 12/12/16 9/9/16
f 9/9/17 14/14/17 10/10/17
f 9/9/18 13/13/18 14/14/18
f 10/10/19 15/15/19 11/11/19
f 10/10/20 14/14/20 15/15/20
f 11/11/21 16/16/21 12/12/21
f 11/11/22 15/15/22 16/16/22
f 12/12/23 13/13/23 9/9/23
f 12/12/24 16/16/24 13/13/24
f 13/13/25 18/18/25 14/14/25
f 13/13/26 17/17/26 18/18/26
f 14/14/27 19/19/27 15/15/27
f 14/14/28 18/18/28 19/19/28
f 15/15/29 20/20/29 16/16/29
f 15/15/30 19/19/30 20/20/30
f 16/16/31 17/17/31 13/13/31
f 16/16/32 20/20/32 17/17/32
f 17/17/33 22/22/33 18/18/33
f 17/17/34 21/21/34 22/22/34
f 18/18/35 23/23/35 19/19/35
f 18/18/36 22/22/36 23/23/36
f 19/19/37 24/24/37 20/20/37
f 19/19/38 23/23/38 24/24/38
f 20/20/39 21/21/39 17/17/39
f 20/20/40 24/24/40 21/21/40
f 21/21/41 26/26/41 22/22/41
f 21/21/42 25/25/42 26/26/42
f 22/22/43 27/27/43 23/23/43
f 22/22/44 26/26/44 27/27/44
f 23/23/45 28/28/45 24/24/45
f 23/23/46 27/27/46 28/28/46
f 24/24/47 25/25/47 21/21/47
f 24/24/48 28/28/48 25/25/48
f 25/25/49 30/30/49 26/26/49
f 25/25/50 29/29/50 30/30/50
f 26/26/51 31/31/51 27/27/51
f 26/26/52 30/30/52 31/31/52
f 27/27/53 32/32/53 28/28/53
f 27/27/54 31/31/54 32/32/54
f 28/28/55 29/29/55 25/25/55
f 28/28/56 32/32/56 29/29/56
f 29/29/57 31/31/57 30/30/57
f 29/29/57 32/32/57 31/31/57
f 4/4/58 2/2/58 3/3/58
f 4/4/58 1/1/58 2/2/58
f 33/33/59 38/38/59 34/34/59
f 33/33/60 37/37/60 38/38/60
f 34/34/61 39/39/61 35/35/61
f 34/34/62 38/38/62 39/39/62
f 35/35/63 40/40/63 36/36/63
f 35/35/64 39/39/64 40/40/64
f 36/36/65 37/37/65 33/33/65
f 36/36/66 40/40/66 37/37/66
f 37/37/67 42/42/67 38/38/67
f 37/37/68 41/41/68 42/42/68
f 38/38/69 43/43/69 39/39/69
f 38/38/70 42/42/70 43/43/70
f 39/39/71 44/44/71 40/40/71
f 39/39/72 43/43/72 44/44/72
f 40/40/73 41/41/73 37/37/73
f 40/40/74 44/44/74 41/41/74
f 41/41/75 46/46/75 42/42/75
f 41/41/75 45/45/75 46/46/75
f 42/42/76 47/47/76 43/43/76
f 42/42/77 46/46/77 47/47/77
f 43/43/78 48/48/78 44/44/78
f 43/43/78 47/47/78 48/48/78
f 44/44/79 45/45/79 41/41/79
f 44/44/80 48/48/80 45/45/80
f 45/45/81 47/47/81 46/46/81
f 45/45/81 48/48/81 47/47/81
f 36/36/82 34/34/82 35/35/82
f 36/36/82 33/33/82 34/34/82
f 49/49/83 54/54/83 50/50/83
f 49/49/84 53/53/84 54/54/84
f 50/50/85 55/55/85 51/51/85
f 50/50/86 54/54/86 55/55/86
f 51/51/87 56/56/87 52/52/87
f 51/51/88 55/55/88 56/56/88
f 52/52/89 53/53/89 49/49/89
f 52/52/90 56/56/90 53/53/90
f 53/53/91 58/58/91 54/54/91
f 53/53/92 57/57/92 58/58/92
f 54/54/93 59/59/93 55/55/93
f 54/54/94 58/58/94 59/59/94
f 55/55/95 60/60/95 56/56/95
f 55/55/96 59/59/96 60/60/96
f 56/56/97 57/57/97 53/53/97
f 56/56/98 60/60/98 57/57/98
f 57/57/99 62/62/99 58/58/99
f 57/57/100 61/61/100 62/62/100
f 58/58/101 63/63/101 59/59/101
f 58/58/102 62/62/102 63/63/102
f 59/59/103 64/64/103 60/60/103
f 59/59/104 63/63/104 64/64/104
f 60/60/105 61/61/105 57/57/105
f 60/60/106 64/64/106 61/61/106
f 61/61/107 63/63/107 62/62/107
f 61/61/107 64/64/107 63/63/107
f 52/52/108 50/50/108 51/51/108
f 52/52/108 49/49/108 50/50/108
f 65/65/109 70/70/109 66/66/109
f 65/65/110 69/69/110 70/70/110
f 66/66/111 71/71/111 67/67/111
f 66/66/112 70/70/112 71/71/112
f 67/67/113 72/72/113 68/68/113
f 67/67/114 71/71/114 72/72/114
f 68/68/115 69/69/115 65/65/115
f 68/68/116 72/72/116 69/69/116
f 69/69/117 74/74/117 70/70/117
f 69/69/118 73/73/118 74/74/118
f 70/70/119 75/75/119 71/71/119
f 70/70/120 74/74/120 75/75/120
f 71/71/121 76/76/121 72/72/121
f 71/71/122 75/75/122 76/76/122
f 72/72/123 73/73/123 69/69/123
f 72/72/124 76/76/124 73/73/124
f 73/73/125 78/78/125 74/74/125
f 73/73/126 77/77/126 78/78/126
f 74/74/127 79/79/127 75/75/127
f 74/74/128 78/78/128 79/79/128
f 75/75/129 80/80/129 76/76/129
f 75/75/130 79/79/130 80/80/130
f 76/76/131 77/77/131 73/73/131
f 76/76/132 80/80/132 77/77/132
f 77/77/133 79/79/133 78/78/133
f 77/77/133 80/80/133 79/79/133
f 68/68/134 66/66/134 67/67/134
f 68/68/134 65/65/134 66/66/134
