# JudeanFloraV1; canonical UE cm (X east, +Y south, Z up), written with Y reflected and triangle winding reversed for the legacy OBJ importer adapter. One o object, no g groups, so the importer creates exactly one material slot.
# olive (Olea europaea), StreetTreesV1 seed 1, LOD2 leaf
# height 4.5-9.0 m, crown 4.0-7.5 m; source: Zohary, M., Plants of the Bible (Cambridge University Press, 1982), species entry Olea europaea; street and garden specimens run 4.5-9 m
# branching is recursive with da Vinci child radii; leaf sprays are anchored to branch tips. Stylised habit, not a survey of any tree.
o SM_StreetTreesV1_Olive_S1_L2_Leaf
s off
v -113.36163 -108.43523 391.77649
v 34.03522 -172.90379 391.77649
v 33.17954 -174.86441 552.64118
v -114.21731 -110.39586 552.64118
v -113.36163 -108.43523 391.77649
v 34.03522 -172.90379 391.77649
v 33.17954 -174.86441 552.64118
v -114.21731 -110.39586 552.64118
v -146.42650 -216.15598 374.72409
v -4.18779 -122.76369 374.72409
v -21.64003 -96.22959 541.89267
v -163.87874 -189.62188 541.89267
v -146.42650 -216.15598 374.72409
v -4.18779 -122.76369 374.72409
v -21.64003 -96.22959 541.89267
v -163.87874 -189.62188 541.89267
v -49.47950 -67.74353 459.42538
v 70.71328 -169.34650 459.42538
v 65.65245 -175.34297 616.61285
v -54.54033 -73.74000 616.61285
v -49.47950 -67.74353 459.42538
v 70.71328 -169.34650 459.42538
v 65.65245 -175.34297 616.61285
v -54.54033 -73.74000 616.61285
v 93.62741 -53.95198 349.77501
v -39.65970 -34.96273 349.77501
v -38.22788 -24.85504 484.02042
v 95.05923 -43.84429 484.02042
v 93.62741 -53.95198 349.77501
v -39.65970 -34.96273 349.77501
v -38.22788 -24.85504 484.02042
v 95.05923 -43.84429 484.02042
v -87.57491 -35.63426 489.78103
v 11.62470 81.10305 489.78103
v 1.10362 90.02910 642.35164
v -98.09598 -26.70821 642.35164
v -87.57491 -35.63426 489.78103
v 11.62470 81.10305 489.78103
v 1.10362 90.02910 642.35164
v -98.09598 -26.70821 642.35164
v 58.10589 21.75551 416.54573
v -102.08514 62.51020 416.54573
v -103.64604 56.35439 581.71770
v 56.54499 15.59970 581.71770
v 58.10589 21.75551 416.54573
v -102.08514 62.51020 416.54573
v -103.64604 56.35439 581.71770
v 56.54499 15.59970 581.71770
v 95.49369 -74.22938 299.07835
v -47.79470 -140.19963 299.07835
v -41.42002 -154.01656 456.08820
v 101.86837 -88.04632 456.08820
v 95.49369 -74.22938 299.07835
v -47.79470 -140.19963 299.07835
v -41.42002 -154.01656 456.08820
v 101.86837 -88.04632 456.08820
v -0.01547 62.61830 483.94891
v 54.90268 -91.47254 483.94891
v 60.17196 -89.58983 647.43799
v 5.25381 64.50101 647.43799
v -0.01547 62.61830 483.94891
v 54.90268 -91.47254 483.94891
v 60.17196 -89.58983 647.43799
v 5.25381 64.50101 647.43799
v 91.96618 -44.65694 487.76044
v 212.41389 -85.38010 487.76044
v 216.41767 -73.50687 614.28720
v 95.96997 -32.78371 614.28720
v 91.96618 -44.65694 487.76044
v 212.41389 -85.38010 487.76044
v 216.41767 -73.50687 614.28720
v 95.96997 -32.78371 614.28720
v 118.38996 46.23893 515.09579
v -3.09089 -86.67552 515.09579
v 3.68974 -92.86296 694.92789
v 125.17059 40.05149 694.92789
v 118.38996 46.23893 515.09579
v -3.09089 -86.67552 515.09579
v 3.68974 -92.86296 694.92789
v 125.17059 40.05149 694.92789
v -93.83838 71.59256 416.03142
v 9.63062 -56.02470 416.03142
v -5.19211 -68.06219 579.21042
v -108.66112 59.55507 579.21042
v -93.83838 71.59256 416.03142
v 9.63062 -56.02470 416.03142
v -5.19211 -68.06219 579.21042
v -108.66112 59.55507 579.21042
v -41.97203 -104.03954 613.83583
v 69.52166 -169.30217 613.83583
v 63.48191 -179.63926 742.46989
v -48.01178 -114.37663 742.46989
v -41.97203 -104.03954 613.83583
v 69.52166 -169.30217 613.83583
v 63.48191 -179.63926 742.46989
v -48.01178 -114.37663 742.46989
v -2.96613 -54.26873 390.40571
v 189.04857 -38.42095 390.40571
v 190.03867 -50.30180 582.70408
v -1.97602 -66.14958 582.70408
v -2.96613 -54.26873 390.40571
v 189.04857 -38.42095 390.40571
v 190.03867 -50.30180 582.70408
v -1.97602 -66.14958 582.70408
v 228.54991 -41.19297 476.92851
v 102.03226 21.48550 476.92851
v 102.48115 22.39341 618.11733
v 228.99881 -40.28506 618.11733
v 228.54991 -41.19297 476.92851
v 102.03226 21.48550 476.92851
v 102.48115 22.39341 618.11733
v 228.99881 -40.28506 618.11733
v 15.24899 -63.10543 373.72376
v 60.05744 92.36300 373.72376
v 33.76028 99.91958 533.19034
v -11.04817 -55.54885 533.19034
v 15.24899 -63.10543 373.72376
v 60.05744 92.36300 373.72376
v 33.76028 99.91958 533.19034
v -11.04817 -55.54885 533.19034
v -15.71288 -148.64036 555.50016
v 163.43962 -105.71086 555.50016
v 160.33437 -92.79749 739.24498
v -18.81813 -135.72698 739.24498
v -15.71288 -148.64036 555.50016
v 163.43962 -105.71086 555.50016
v 160.33437 -92.79749 739.24498
v -18.81813 -135.72698 739.24498
v 20.97785 -101.12607 422.27146
v 134.16971 36.66902 422.27146
v 151.73844 22.26060 599.14323
v 38.54658 -115.53450 599.14323
v 20.97785 -101.12607 422.27146
v 134.16971 36.66902 422.27146
v 151.73844 22.26060 599.14323
v 38.54658 -115.53450 599.14323
v 68.07138 -138.25111 407.39272
v 69.88585 -11.70011 407.39272
v 53.65910 -11.48038 532.91201
v 51.84464 -138.03138 532.91201
v 68.07138 -138.25111 407.39272
v 69.88585 -11.70011 407.39272
v 53.65910 -11.48038 532.91201
v 51.84464 -138.03138 532.91201
v -166.05507 -85.51890 301.08555
v -10.01093 -48.09545 301.08555
v -6.63103 -62.13924 460.90307
v -162.67518 -99.56269 460.90307
v -166.05507 -85.51890 301.08555
v -10.01093 -48.09545 301.08555
v -6.63103 -62.13924 460.90307
v -162.67518 -99.56269 460.90307
v 15.73159 -150.37873 569.81013
v 114.31857 -33.24076 569.81013
v 93.72714 -15.93836 720.53278
v -4.85984 -133.07634 720.53278
v 15.73159 -150.37873 569.81013
v 114.31857 -33.24076 569.81013
v 93.72714 -15.93836 720.53278
v -4.85984 -133.07634 720.53278
v 140.55837 -76.96171 344.89172
v -3.15705 -1.49641 344.89172
v -9.31366 -13.24371 506.67315
v 134.40177 -88.70901 506.67315
v 140.55837 -76.96171 344.89172
v -3.15705 -1.49641 344.89172
v -9.31366 -13.24371 506.67315
v 134.40177 -88.70901 506.67315
v -63.27649 -87.09605 447.03442
v 80.63879 -110.93740 447.03442
v 79.96518 -115.02375 592.85234
v -63.95010 -91.18240 592.85234
v -63.27649 -87.09605 447.03442
v 80.63879 -110.93740 447.03442
v 79.96518 -115.02375 592.85234
v -63.95010 -91.18240 592.85234
v 174.35319 -122.01415 535.37929
v 100.94460 -2.75689 535.37929
v 96.64967 -5.40534 675.32805
v 170.05827 -124.66261 675.32805
v 174.35319 -122.01415 535.37929
v 100.94460 -2.75689 535.37929
v 96.64967 -5.40534 675.32805
v 170.05827 -124.66261 675.32805
v 51.89350 43.38553 383.84607
v -34.10352 -86.73064 383.84607
v -14.64934 -99.56615 538.06179
v 71.34768 30.55003 538.06179
v 51.89350 43.38553 383.84607
v -34.10352 -86.73064 383.84607
v -14.64934 -99.56615 538.06179
v 71.34768 30.55003 538.06179
v -105.20736 90.69101 571.75700
v -5.45456 -84.51372 571.75700
v 15.63573 -72.48371 771.90144
v -84.11706 102.72101 771.90144
v -105.20736 90.69101 571.75700
v -5.45456 -84.51372 571.75700
v 15.63573 -72.48371 771.90144
v -84.11706 102.72101 771.90144
v 10.56115 -172.71169 358.11375
v 155.66797 -115.93140 358.11375
v 145.84694 -90.89172 511.59518
v 0.74013 -147.67201 511.59518
v 10.56115 -172.71169 358.11375
v 155.66797 -115.93140 358.11375
v 145.84694 -90.89172 511.59518
v 0.74013 -147.67201 511.59518
v 129.63530 23.20465 358.18980
v -66.39607 -30.08061 358.18980
v -69.37781 -19.14547 561.01768
v 126.65356 34.13979 561.01768
v 129.63530 23.20465 358.18980
v -66.39607 -30.08061 358.18980
v -69.37781 -19.14547 561.01768
v 126.65356 34.13979 561.01768
v -91.70083 11.01247 456.24962
v -101.93471 -126.11188 456.24962
v -90.77264 -126.93599 593.29906
v -80.53876 10.18836 593.29906
v -91.70083 11.01247 456.24962
v -101.93471 -126.11188 456.24962
v -90.77264 -126.93599 593.29906
v -80.53876 10.18836 593.29906
v 210.88649 -34.56291 610.87278
v 71.99355 -77.79455 610.87278
v 68.27105 -65.86851 755.80082
v 207.16398 -22.63686 755.80082
v 210.88649 -34.56291 610.87278
v 71.99355 -77.79455 610.87278
v 68.27105 -65.86851 755.80082
v 207.16398 -22.63686 755.80082
v 6.04261 -168.62850 473.65910
v -21.05979 -26.61462 473.65910
v -27.37155 -27.82439 618.09309
v -0.26915 -169.83826 618.09309
v 6.04261 -168.62850 473.65910
v -21.05979 -26.61462 473.65910
v -27.37155 -27.82439 618.09309
v -0.26915 -169.83826 618.09309
v 55.60667 110.89413 398.60457
v 57.87586 -66.59721 398.60457
v 67.91550 -66.46086 575.82622
v 65.64631 111.03048 575.82622
v 55.60667 110.89413 398.60457
v 57.87586 -66.59721 398.60457
v 67.91550 -66.46086 575.82622
v 65.64631 111.03048 575.82622
v -9.45321 45.87333 575.82989
v -92.94473 -55.02018 575.82989
v -77.79214 -67.53895 705.30581
v 5.69938 33.35456 705.30581
v -9.45321 45.87333 575.82989
v -92.94473 -55.02018 575.82989
v -77.79214 -67.53895 705.30581
v 5.69938 33.35456 705.30581
v -45.96322 128.89076 471.24468
v -142.22746 -43.95304 471.24468
v -165.06397 -31.25821 667.35464
v -68.79972 141.58559 667.35464
v -45.96322 128.89076 471.24468
v -142.22746 -43.95304 471.24468
v -165.06397 -31.25821 667.35464
v -68.79972 141.58559 667.35464
v -64.43019 -92.07673 310.34805
v -84.71586 41.08508 310.34805
v -70.54129 43.25596 444.28066
v -50.25562 -89.90584 444.28066
v -64.43019 -92.07673 310.34805
v -84.71586 41.08508 310.34805
v -70.54129 43.25596 444.28066
v -50.25562 -89.90584 444.28066
v 144.73405 -7.91343 306.51754
v 13.42887 47.59692 306.51754
v 19.89835 62.93399 448.09921
v 151.20353 7.42364 448.09921
v 144.73405 -7.91343 306.51754
v 13.42887 47.59692 306.51754
v 19.89835 62.93399 448.09921
v 151.20353 7.42364 448.09921
v -22.13995 -74.92166 581.75998
v 96.55507 -18.90792 581.75998
v 89.65171 -4.30959 712.01082
v -29.04331 -60.32334 712.01082
v -22.13995 -74.92166 581.75998
v 96.55507 -18.90792 581.75998
v 89.65171 -4.30959 712.01082
v -29.04331 -60.32334 712.01082
v -50.42749 129.94820 443.90839
v -71.18967 -30.65618 443.90839
v -85.20291 -28.85596 605.23174
v -64.44073 131.74842 605.23174
v -50.42749 129.94820 443.90839
v -71.18967 -30.65618 443.90839
v -85.20291 -28.85596 605.23174
v -64.44073 131.74842 605.23174
v 88.71858 -76.22443 546.70513
v 39.69094 -227.13162 546.70513
v 21.13409 -221.11909 704.17316
v 70.16173 -70.21191 704.17316
v 88.71858 -76.22443 546.70513
v 39.69094 -227.13162 546.70513
v 21.13409 -221.11909 704.17316
v 70.16173 -70.21191 704.17316
v -40.87378 36.27494 324.35785
v 4.80137 -144.12005 324.35785
v -27.24553 -152.26133 507.48427
v -72.92069 28.13365 507.48427
v -40.87378 36.27494 324.35785
v 4.80137 -144.12005 324.35785
v -27.24553 -152.26133 507.48427
v -72.92069 28.13365 507.48427
v 89.13921 25.91724 408.19192
v -65.13214 -93.57541 408.19192
v -84.99561 -67.97276 600.61876
v 69.27574 51.51988 600.61876
v 89.13921 25.91724 408.19192
v -65.13214 -93.57541 408.19192
v -84.99561 -67.97276 600.61876
v 69.27574 51.51988 600.61876
v -95.34639 -12.06463 460.68650
v -151.00347 -134.54742 460.68650
v -151.34232 -134.39377 595.22128
v -95.68524 -11.91098 595.22128
v -95.34639 -12.06463 460.68650
v -151.00347 -134.54742 460.68650
v -151.34232 -134.39377 595.22128
v -95.68524 -11.91098 595.22128
v 83.81433 -29.81131 490.49328
v 152.17797 -191.81749 490.49328
v 137.80816 -197.89477 665.63941
v 69.44452 -35.88859 665.63941
v 83.81433 -29.81131 490.49328
v 152.17797 -191.81749 490.49328
v 137.80816 -197.89477 665.63941
v 69.44452 -35.88859 665.63941
v 25.33005 2.07543 403.68023
v 100.62284 -130.43987 403.68023
v 83.40137 -140.24295 554.79815
v 8.10857 -7.72766 554.79815
v 25.33005 2.07543 403.68023
v 100.62284 -130.43987 403.68023
v 83.40137 -140.24295 554.79815
v 8.10857 -7.72766 554.79815
v -8.30886 -71.25449 397.15568
v -173.32695 -21.94061 397.15568
v -172.73782 -19.96349 569.37233
v -7.71973 -69.27736 569.37233
v -8.30886 -71.25449 397.15568
v -173.32695 -21.94061 397.15568
v -172.73782 -19.96349 569.37233
v -7.71973 -69.27736 569.37233
v 124.50437 29.57494 511.91958
v -6.56720 -126.60792 511.91958
v -7.30965 -125.98585 715.81147
v 123.76192 30.19700 715.81147
v 124.50437 29.57494 511.91958
v -6.56720 -126.60792 511.91958
v -7.30965 -125.98585 715.81147
v 123.76192 30.19700 715.81147
v -70.19575 -10.87742 300.80682
v 115.36427 -67.21197 300.80682
v 105.60912 -99.43670 491.78458
v -79.95090 -43.10214 491.78458
v -70.19575 -10.87742 300.80682
v 115.36427 -67.21197 300.80682
v 105.60912 -99.43670 491.78458
v -79.95090 -43.10214 491.78458
vt 0.00000 2.00000
vt 2.00000 2.00000
vt 2.00000 0.00000
vt 0.00000 0.00000
vt 0.00000 2.00000
vt 2.00000 2.00000
vt 2.00000 0.00000
vt 0.00000 0.00000
vt 0.00000 2.00000
vt 2.00000 2.00000
vt 2.00000 0.00000
vt 0.00000 0.00000
vt 0.00000 2.00000
vt 2.00000 2.00000
vt 2.00000 0.00000
vt 0.00000 0.00000
vt 0.00000 2.00000
vt 2.00000 2.00000
vt 2.00000 0.00000
vt 0.00000 0.00000
vt 0.00000 2.00000
vt 2.00000 2.00000
vt 2.00000 0.00000
vt 0.00000 0.00000
vt 0.00000 2.00000
vt 2.00000 2.00000
vt 2.00000 0.00000
vt 0.00000 0.00000
vt 0.00000 2.00000
vt 2.00000 2.00000
vt 2.00000 0.00000
vt 0.00000 0.00000
vt 0.00000 2.00000
vt 2.00000 2.00000
vt 2.00000 0.00000
vt 0.00000 0.00000
vt 0.00000 2.00000
vt 2.00000 2.00000
vt 2.00000 0.00000
vt 0.00000 0.00000
vt 0.00000 2.00000
vt 2.00000 2.00000
vt 2.00000 0.00000
vt 0.00000 0.00000
vt 0.00000 2.00000
vt 2.00000 2.00000
vt 2.00000 0.00000
vt 0.00000 0.00000
vt 0.00000 2.00000
vt 2.00000 2.00000
vt 2.00000 0.00000
vt 0.00000 0.00000
vt 0.00000 2.00000
vt 2.00000 2.00000
vt 2.00000 0.00000
vt 0.00000 0.00000
vt 0.00000 2.00000
vt 2.00000 2.00000
vt 2.00000 0.00000
vt 0.00000 0.00000
vt 0.00000 2.00000
vt 2.00000 2.00000
vt 2.00000 0.00000
vt 0.00000 0.00000
vt 0.00000 2.00000
vt 2.00000 2.00000
vt 2.00000 0.00000
vt 0.00000 0.00000
vt 0.00000 2.00000
vt 2.00000 2.00000
vt 2.00000 0.00000
vt 0.00000 0.00000
vt 0.00000 2.00000
vt 2.00000 2.00000
vt 2.00000 0.00000
vt 0.00000 0.00000
vt 0.00000 2.00000
vt 2.00000 2.00000
vt 2.00000 0.00000
vt 0.00000 0.00000
vt 0.00000 2.00000
vt 2.00000 2.00000
vt 2.00000 0.00000
vt 0.00000 0.00000
vt 0.00000 2.00000
vt 2.00000 2.00000
vt 2.00000 0.00000
vt 0.00000 0.00000
vt 0.00000 2.00000
vt 2.00000 2.00000
vt 2.00000 0.00000
vt 0.00000 0.00000
vt 0.00000 2.00000
vt 2.00000 2.00000
vt 2.00000 0.00000
vt 0.00000 0.00000
vt 0.00000 2.00000
vt 2.00000 2.00000
vt 2.00000 0.00000
vt 0.00000 0.00000
vt 0.00000 2.00000
vt 2.00000 2.00000
vt 2.00000 0.00000
vt 0.00000 0.00000
vt 0.00000 2.00000
vt 2.00000 2.00000
vt 2.00000 0.00000
vt 0.00000 0.00000
vt 0.00000 2.00000
vt 2.00000 2.00000
vt 2.00000 0.00000
vt 0.00000 0.00000
vt 0.00000 2.00000
vt 2.00000 2.00000
vt 2.00000 0.00000
vt 0.00000 0.00000
vt 0.00000 2.00000
vt 2.00000 2.00000
vt 2.00000 0.00000
vt 0.00000 0.00000
vt 0.00000 2.00000
vt 2.00000 2.00000
vt 2.00000 0.00000
vt 0.00000 0.00000
vt 0.00000 2.00000
vt 2.00000 2.00000
vt 2.00000 0.00000
vt 0.00000 0.00000
vt 0.00000 2.00000
vt 2.00000 2.00000
vt 2.00000 0.00000
vt 0.00000 0.00000
vt 0.00000 2.00000
vt 2.00000 2.00000
vt 2.00000 0.00000
vt 0.00000 0.00000
vt 0.00000 2.00000
vt 2.00000 2.00000
vt 2.00000 0.00000
vt 0.00000 0.00000
vt 0.00000 2.00000
vt 2.00000 2.00000
vt 2.00000 0.00000
vt 0.00000 0.00000
vt 0.00000 2.00000
vt 2.00000 2.00000
vt 2.00000 0.00000
vt 0.00000 0.00000
vt 0.00000 2.00000
vt 2.00000 2.00000
vt 2.00000 0.00000
vt 0.00000 0.00000
vt 0.00000 2.00000
vt 2.00000 2.00000
vt 2.00000 0.00000
vt 0.00000 0.00000
vt 0.00000 2.00000
vt 2.00000 2.00000
vt 2.00000 0.00000
vt 0.00000 0.00000
vt 0.00000 2.00000
vt 2.00000 2.00000
vt 2.00000 0.00000
vt 0.00000 0.00000
vt 0.00000 2.00000
vt 2.00000 2.00000
vt 2.00000 0.00000
vt 0.00000 0.00000
vt 0.00000 2.00000
vt 2.00000 2.00000
vt 2.00000 0.00000
vt 0.00000 0.00000
vt 0.00000 2.00000
vt 2.00000 2.00000
vt 2.00000 0.00000
vt 0.00000 0.00000
vt 0.00000 2.00000
vt 2.00000 2.00000
vt 2.00000 0.00000
vt 0.00000 0.00000
vt 0.00000 2.00000
vt 2.00000 2.00000
vt 2.00000 0.00000
vt 0.00000 0.00000
vt 0.00000 2.00000
vt 2.00000 2.00000
vt 2.00000 0.00000
vt 0.00000 0.00000
vt 0.00000 2.00000
vt 2.00000 2.00000
vt 2.00000 0.00000
vt 0.00000 0.00000
vt 0.00000 2.00000
vt 2.00000 2.00000
vt 2.00000 0.00000
vt 0.00000 0.00000
vt 0.00000 2.00000
vt 2.00000 2.00000
vt 2.00000 0.00000
vt 0.00000 0.00000
vt 0.00000 2.00000
vt 2.00000 2.00000
vt 2.00000 0.00000
vt 0.00000 0.00000
vt 0.00000 2.00000
vt 2.00000 2.00000
vt 2.00000 0.00000
vt 0.00000 0.00000
vt 0.00000 2.00000
vt 2.00000 2.00000
vt 2.00000 0.00000
vt 0.00000 0.00000
vt 0.00000 2.00000
vt 2.00000 2.00000
vt 2.00000 0.00000
vt 0.00000 0.00000
vt 0.00000 2.00000
vt 2.00000 2.00000
vt 2.00000 0.00000
vt 0.00000 0.00000
vt 0.00000 2.00000
vt 2.00000 2.00000
vt 2.00000 0.00000
vt 0.00000 0.00000
vt 0.00000 2.00000
vt 2.00000 2.00000
vt 2.00000 0.00000
vt 0.00000 0.00000
vt 0.00000 2.00000
vt 2.00000 2.00000
vt 2.00000 0.00000
vt 0.00000 0.00000
vt 0.00000 2.00000
vt 2.00000 2.00000
vt 2.00000 0.00000
vt 0.00000 0.00000
vt 0.00000 2.00000
vt 2.00000 2.00000
vt 2.00000 0.00000
vt 0.00000 0.00000
vt 0.00000 2.00000
vt 2.00000 2.00000
vt 2.00000 0.00000
vt 0.00000 0.00000
vt 0.00000 2.00000
vt 2.00000 2.00000
vt 2.00000 0.00000
vt 0.00000 0.00000
vt 0.00000 2.00000
vt 2.00000 2.00000
vt 2.00000 0.00000
vt 0.00000 0.00000
vt 0.00000 2.00000
vt 2.00000 2.00000
vt 2.00000 0.00000
vt 0.00000 0.00000
vt 0.00000 2.00000
vt 2.00000 2.00000
vt 2.00000 0.00000
vt 0.00000 0.00000
vt 0.00000 2.00000
vt 2.00000 2.00000
vt 2.00000 0.00000
vt 0.00000 0.00000
vt 0.00000 2.00000
vt 2.00000 2.00000
vt 2.00000 0.00000
vt 0.00000 0.00000
vt 0.00000 2.00000
vt 2.00000 2.00000
vt 2.00000 0.00000
vt 0.00000 0.00000
vt 0.00000 2.00000
vt 2.00000 2.00000
vt 2.00000 0.00000
vt 0.00000 0.00000
vt 0.00000 2.00000
vt 2.00000 2.00000
vt 2.00000 0.00000
vt 0.00000 0.00000
vt 0.00000 2.00000
vt 2.00000 2.00000
vt 2.00000 0.00000
vt 0.00000 0.00000
vt 0.00000 2.00000
vt 2.00000 2.00000
vt 2.00000 0.00000
vt 0.00000 0.00000
vt 0.00000 2.00000
vt 2.00000 2.00000
vt 2.00000 0.00000
vt 0.00000 0.00000
vt 0.00000 2.00000
vt 2.00000 2.00000
vt 2.00000 0.00000
vt 0.00000 0.00000
vt 0.00000 2.00000
vt 2.00000 2.00000
vt 2.00000 0.00000
vt 0.00000 0.00000
vt 0.00000 2.00000
vt 2.00000 2.00000
vt 2.00000 0.00000
vt 0.00000 0.00000
vt 0.00000 2.00000
vt 2.00000 2.00000
vt 2.00000 0.00000
vt 0.00000 0.00000
vt 0.00000 2.00000
vt 2.00000 2.00000
vt 2.00000 0.00000
vt 0.00000 0.00000
vt 0.00000 2.00000
vt 2.00000 2.00000
vt 2.00000 0.00000
vt 0.00000 0.00000
vt 0.00000 2.00000
vt 2.00000 2.00000
vt 2.00000 0.00000
vt 0.00000 0.00000
vt 0.00000 2.00000
vt 2.00000 2.00000
vt 2.00000 0.00000
vt 0.00000 0.00000
vt 0.00000 2.00000
vt 2.00000 2.00000
vt 2.00000 0.00000
vt 0.00000 0.00000
vt 0.00000 2.00000
vt 2.00000 2.00000
vt 2.00000 0.00000
vt 0.00000 0.00000
vt 0.00000 2.00000
vt 2.00000 2.00000
vt 2.00000 0.00000
vt 0.00000 0.00000
vt 0.00000 2.00000
vt 2.00000 2.00000
vt 2.00000 0.00000
vt 0.00000 0.00000
vt 0.00000 2.00000
vt 2.00000 2.00000
vt 2.00000 0.00000
vt 0.00000 0.00000
vt 0.00000 2.00000
vt 2.00000 2.00000
vt 2.00000 0.00000
vt 0.00000 0.00000
vt 0.00000 2.00000
vt 2.00000 2.00000
vt 2.00000 0.00000
vt 0.00000 0.00000
vt 0.00000 2.00000
vt 2.00000 2.00000
vt 2.00000 0.00000
vt 0.00000 0.00000
vt 0.00000 2.00000
vt 2.00000 2.00000
vt 2.00000 0.00000
vt 0.00000 0.00000
vt 0.00000 2.00000
vt 2.00000 2.00000
vt 2.00000 0.00000
vt 0.00000 0.00000
vt 0.00000 2.00000
vt 2.00000 2.00000
vt 2.00000 0.00000
vt 0.00000 0.00000
vn 0.4007 0.9161 0.0133
vn -0.4007 -0.9161 -0.0133
vn -0.5392 0.8212 -0.1866
vn 0.5392 -0.8212 0.1866
vn 0.6448 0.7627 0.0499
vn -0.6448 -0.7627 -0.0499
vn -0.1406 -0.9872 0.0758
vn 0.1406 0.9872 -0.0758
vn -0.7589 0.6449 -0.0901
vn 0.7589 -0.6449 0.0901
vn -0.2464 -0.9684 -0.0384
vn 0.2464 0.9684 0.0384
vn 0.4163 -0.9041 -0.0965
vn -0.4163 0.9041 0.0965
vn 0.9414 0.3355 -0.0342
vn -0.9414 -0.3355 0.0342
vn 0.3187 0.9427 -0.0985
vn -0.3187 -0.9427 0.0985
vn 0.7372 -0.6738 -0.0510
vn -0.7372 0.6738 0.0510
vn 0.7715 0.6255 0.1162
vn -0.7715 -0.6255 -0.1162
vn 0.5030 0.8593 0.0927
vn -0.5030 -0.8593 -0.0927
vn -0.0821 0.9947 0.0619
vn 0.0821 -0.9947 -0.0619
vn -0.4439 -0.8960 0.0072
vn 0.4439 0.8960 -0.0072
vn -0.9470 0.2730 -0.1691
vn 0.9470 -0.2730 0.1691
vn -0.2324 0.9699 -0.0721
vn 0.2324 -0.9699 0.0721
vn -0.7664 0.6296 0.1274
vn 0.7664 -0.6296 -0.1274
vn -0.9916 0.0142 -0.1282
vn 0.9916 -0.0142 0.1282
vn -0.2323 0.9685 0.0900
vn 0.2323 -0.9685 -0.0900
vn -0.7532 0.6339 -0.1757
vn 0.7532 -0.6339 0.1757
vn -0.4634 -0.8824 -0.0817
vn 0.4634 0.8824 0.0817
vn 0.1634 0.9862 0.0284
vn -0.1634 -0.9862 -0.0284
vn -0.8510 -0.5239 -0.0360
vn 0.8510 0.5239 0.0360
vn 0.8249 -0.5452 -0.1494
vn -0.8249 0.5452 0.1494
vn 0.8627 0.4912 -0.1204
vn -0.8627 -0.4912 0.1204
vn -0.3589 0.9173 -0.1726
vn 0.3589 -0.9173 0.1726
vn 0.2619 -0.9635 0.0558
vn -0.2619 0.9635 -0.0558
vn 0.9939 -0.0742 -0.0814
vn -0.9939 0.0742 0.0814
vn 0.2961 -0.9513 0.0859
vn -0.2961 0.9513 -0.0859
vn -0.9813 -0.1873 -0.0445
vn 0.9813 0.1873 0.0445
vn 0.9983 0.0128 -0.0566
vn -0.9983 -0.0128 0.0566
vn 0.7617 -0.6303 -0.1501
vn -0.7617 0.6303 0.1501
vn 0.8660 -0.4823 0.1321
vn -0.8660 0.4823 -0.1321
vn -0.9830 -0.1497 0.1065
vn 0.9830 0.1497 -0.1065
vn -0.3867 -0.9148 0.1168
vn 0.3867 0.9148 -0.1168
vn -0.4235 0.8975 -0.1230
vn 0.4235 -0.8975 0.1230
vn 0.9880 -0.1277 0.0872
vn -0.9880 0.1277 -0.0872
vn 0.9439 -0.3066 0.1229
vn -0.9439 0.3066 -0.1229
vn 0.9540 0.2415 0.1777
vn -0.9540 -0.2415 -0.1777
vn 0.6039 -0.7796 0.1661
vn -0.6039 0.7796 -0.1661
vn 0.9104 -0.4137 0.0028
vn -0.9104 0.4137 -0.0028
vn 0.9177 0.3873 0.0887
vn -0.9177 -0.3873 -0.0887
vn 0.8621 0.4898 0.1300
vn -0.8621 -0.4898 -0.1300
vn -0.2863 -0.9581 0.0120
vn 0.2863 0.9581 -0.0120
vn 0.7660 -0.6428 0.0048
vn -0.7660 0.6428 -0.0048
vn 0.2861 0.9423 0.1736
vn -0.2861 -0.9423 -0.1736
f 1/1/1 3/3/1 2/2/1
f 1/1/1 4/4/1 3/3/1
f 5/5/2 7/7/2 8/8/2
f 5/5/2 6/6/2 7/7/2
f 9/9/3 11/11/3 10/10/3
f 9/9/3 12/12/3 11/11/3
f 13/13/4 15/15/4 16/16/4
f 13/13/4 14/14/4 15/15/4
f 17/17/5 19/19/5 18/18/5
f 17/17/5 20/20/5 19/19/5
f 21/21/6 23/23/6 24/24/6
f 21/21/6 22/22/6 23/23/6
f 25/25/7 27/27/7 26/26/7
f 25/25/7 28/28/7 27/27/7
f 29/29/8 31/31/8 32/32/8
f 29/29/8 30/30/8 31/31/8
f 33/33/9 35/35/9 34/34/9
f 33/33/9 36/36/9 35/35/9
f 37/37/10 39/39/10 40/40/10
f 37/37/10 38/38/10 39/39/10
f 41/41/11 43/43/11 42/42/11
f 41/41/11 44/44/11 43/43/11
f 45/45/12 47/47/12 48/48/12
f 45/45/12 46/46/12 47/47/12
f 49/49/13 51/51/13 50/50/13
f 49/49/13 52/52/13 51/51/13
f 53/53/14 55/55/14 56/56/14
f 53/53/14 54/54/14 55/55/14
f 57/57/15 59/59/15 58/58/15
f 57/57/15 60/60/15 59/59/15
f 61/61/16 63/63/16 64/64/16
f 61/61/16 62/62/16 63/63/16
f 65/65/17 67/67/17 66/66/17
f 65/65/17 68/68/17 67/67/17
f 69/69/18 71/71/18 72/72/18
f 69/69/18 70/70/18 71/71/18
f 73/73/19 75/75/19 74/74/19
f 73/73/19 76/76/19 75/75/19
f 77/77/20 79/79/20 80/80/20
f 77/77/20 78/78/20 79/79/20
f 81/81/21 83/83/21 82/82/21
f 81/81/21 84/84/21 83/83/21
f 85/85/22 87/87/22 88/88/22
f 85/85/22 86/86/22 87/87/22
f 89/89/23 91/91/23 90/90/23
f 89/89/23 92/92/23 91/91/23
f 93/93/24 95/95/24 96/96/24
f 93/93/24 94/94/24 95/95/24
f 97/97/25 99/99/25 98/98/25
f 97/97/25 100/100/25 99/99/25
f 101/101/26 103/103/26 104/104/26
f 101/101/26 102/102/26 103/103/26
f 105/105/27 107/107/27 106/106/27
f 105/105/27 108/108/27 107/107/27
f 109/109/28 111/111/28 112/112/28
f 109/109/28 110/110/28 111/111/28
f 113/113/29 115/115/29 114/114/29
f 113/113/29 116/116/29 115/115/29
f 117/117/30 119/119/30 120/120/30
f 117/117/30 118/118/30 119/119/30
f 121/121/31 123/123/31 122/122/31
f 121/121/31 124/124/31 123/123/31
f 125/125/32 127/127/32 128/128/32
f 125/125/32 126/126/32 127/127/32
f 129/129/33 131/131/33 130/130/33
f 129/129/33 132/132/33 131/131/33
f 133/133/34 135/135/34 136/136/34
f 133/133/34 134/134/34 135/135/34
f 137/137/35 139/139/35 138/138/35
f 137/137/35 140/140/35 139/139/35
f 141/141/36 143/143/36 144/144/36
f 141/141/36 142/142/36 143/143/36
f 145/145/37 147/147/37 146/146/37
f 145/145/37 148/148/37 147/147/37
f 149/149/38 151/151/38 152/152/38
f 149/149/38 150/150/38 151/151/38
f 153/153/39 155/155/39 154/154/39
f 153/153/39 156/156/39 155/155/39
f 157/157/40 159/159/40 160/160/40
f 157/157/40 158/158/40 159/159/40
f 161/161/41 163/163/41 162/162/41
f 161/161/41 164/164/41 163/163/41
f 165/165/42 167/167/42 168/168/42
f 165/165/42 166/166/42 167/167/42
f 169/169/43 171/171/43 170/170/43
f 169/169/43 172/172/43 171/171/43
f 173/173/44 175/175/44 176/176/44
f 173/173/44 174/174/44 175/175/44
f 177/177/45 179/179/45 178/178/45
f 177/177/45 180/180/45 179/179/45
f 181/181/46 183/183/46 184/184/46
f 181/181/46 182/182/46 183/183/46
f 185/185/47 187/187/47 186/186/47
f 185/185/47 188/188/47 187/187/47
f 189/189/48 191/191/48 192/192/48
f 189/189/48 190/190/48 191/191/48
f 193/193/49 195/195/49 194/194/49
f 193/193/49 196/196/49 195/195/49
f 197/197/50 199/199/50 200/200/50
f 197/197/50 198/198/50 199/199/50
f 201/201/51 203/203/51 202/202/51
f 201/201/51 204/204/51 203/203/51
f 205/205/52 207/207/52 208/208/52
f 205/205/52 206/206/52 207/207/52
f 209/209/53 211/211/53 210/210/53
f 209/209/53 212/212/53 211/211/53
f 213/213/54 215/215/54 216/216/54
f 213/213/54 214/214/54 215/215/54
f 217/217/55 219/219/55 218/218/55
f 217/217/55 220/220/55 219/219/55
f 221/221/56 223/223/56 224/224/56
f 221/221/56 222/222/56 223/223/56
f 225/225/57 227/227/57 226/226/57
f 225/225/57 228/228/57 227/227/57
f 229/229/58 231/231/58 232/232/58
f 229/229/58 230/230/58 231/231/58
f 233/233/59 235/235/59 234/234/59
f 233/233/59 236/236/59 235/235/59
f 237/237/60 239/239/60 240/240/60
f 237/237/60 238/238/60 239/239/60
f 241/241/61 243/243/61 242/242/61
f 241/241/61 244/244/61 243/243/61
f 245/245/62 247/247/62 248/248/62
f 245/245/62 246/246/62 247/247/62
f 249/249/63 251/251/63 250/250/63
f 249/249/63 252/252/63 251/251/63
f 253/253/64 255/255/64 256/256/64
f 253/253/64 254/254/64 255/255/64
f 257/257/65 259/259/65 258/258/65
f 257/257/65 260/260/65 259/259/65
f 261/261/66 263/263/66 264/264/66
f 261/261/66 262/262/66 263/263/66
f 265/265/67 267/267/67 266/266/67
f 265/265/67 268/268/67 267/267/67
f 269/269/68 271/271/68 272/272/68
f 269/269/68 270/270/68 271/271/68
f 273/273/69 275/275/69 274/274/69
f 273/273/69 276/276/69 275/275/69
f 277/277/70 279/279/70 280/280/70
f 277/277/70 278/278/70 279/279/70
f 281/281/71 283/283/71 282/282/71
f 281/281/71 284/284/71 283/283/71
f 285/285/72 287/287/72 288/288/72
f 285/285/72 286/286/72 287/287/72
f 289/289/73 291/291/73 290/290/73
f 289/289/73 292/292/73 291/291/73
f 293/293/74 295/295/74 296/296/74
f 293/293/74 294/294/74 295/295/74
f 297/297/75 299/299/75 298/298/75
f 297/297/75 300/300/75 299/299/75
f 301/301/76 303/303/76 304/304/76
f 301/301/76 302/302/76 303/303/76
f 305/305/77 307/307/77 306/306/77
f 305/305/77 308/308/77 307/307/77
f 309/309/78 311/311/78 312/312/78
f 309/309/78 310/310/78 311/311/78
f 313/313/79 315/315/79 314/314/79
f 313/313/79 316/316/79 315/315/79
f 317/317/80 319/319/80 320/320/80
f 317/317/80 318/318/80 319/319/80
f 321/321/81 323/323/81 322/322/81
f 321/321/81 324/324/81 323/323/81
f 325/325/82 327/327/82 328/328/82
f 325/325/82 326/326/82 327/327/82
f 329/329/83 331/331/83 330/330/83
f 329/329/83 332/332/83 331/331/83
f 333/333/84 335/335/84 336/336/84
f 333/333/84 334/334/84 335/335/84
f 337/337/85 339/339/85 338/338/85
f 337/337/85 340/340/85 339/339/85
f 341/341/86 343/343/86 344/344/86
f 341/341/86 342/342/86 343/343/86
f 345/345/87 347/347/87 346/346/87
f 345/345/87 348/348/87 347/347/87
f 349/349/88 351/351/88 352/352/88
f 349/349/88 350/350/88 351/351/88
f 353/353/89 355/355/89 354/354/89
f 353/353/89 356/356/89 355/355/89
f 357/357/90 359/359/90 360/360/90
f 357/357/90 358/358/90 359/359/90
f 361/361/91 363/363/91 362/362/91
f 361/361/91 364/364/91 363/363/91
f 365/365/92 367/367/92 368/368/92
f 365/365/92 366/366/92 367/367/92
