# JudeanFloraV1; canonical UE cm (X east, +Y south, Z up), written with Y reflected and triangle winding reversed for the legacy OBJ importer adapter. One o object, no g groups, so the importer creates exactly one material slot.
# Judas tree (Cercis siliquastrum), StreetTreesV1 seed 0, LOD2 leaf
# height 3.5-7.5 m, crown 3.0-6.5 m; source: Zohary & Feinbrun-Dothan, Flora Palaestina vols I-IV (Israel Academy of Sciences, 1966-1986) Cercis siliquastrum; a small tree of 3.5-7.5 m, often multi-stemmed
# branching is recursive with da Vinci child radii; leaf sprays are anchored to branch tips. Stylised habit, not a survey of any tree.
o SM_StreetTreesV1_JudasTree_S0_L2_Leaf
s off
v 53.50828 -23.88820 256.83518
v 35.38149 111.62024 256.83518
v 22.38229 109.87081 392.91999
v 40.50909 -25.63762 392.91999
v 53.50828 -23.88820 256.83518
v 35.38149 111.62024 256.83518
v 22.38229 109.87081 392.91999
v 40.50909 -25.63762 392.91999
v -103.20389 75.56149 391.20233
v 52.14986 0.66784 391.20233
v 63.97085 25.23840 561.49736
v -91.38290 100.13206 561.49736
v -103.20389 75.56149 391.20233
v 52.14986 0.66784 391.20233
v 63.97085 25.23840 561.49736
v -91.38290 100.13206 561.49736
v 42.65206 -99.81917 367.40496
v 31.05063 52.26032 367.40496
v 34.43863 52.52149 519.88846
v 46.04006 -99.55800 519.88846
v 42.65206 -99.81917 367.40496
v 31.05063 52.26032 367.40496
v 34.43863 52.52149 519.88846
v 46.04006 -99.55800 519.88846
v -93.54853 23.06267 350.23704
v 24.64501 -79.89121 350.23704
v 42.11274 -59.80557 504.70600
v -76.08080 43.14831 504.70600
v -93.54853 23.06267 350.23704
v 24.64501 -79.89121 350.23704
v 42.11274 -59.80557 504.70600
v -76.08080 43.14831 504.70600
v 24.22645 55.81775 367.23053
v 186.09265 -16.00220 367.23053
v 180.69708 -28.18877 543.81236
v 18.83089 43.63117 543.81236
v 24.22645 55.81775 367.23053
v 186.09265 -16.00220 367.23053
v 180.69708 -28.18877 543.81236
v 18.83089 43.63117 543.81236
v 41.27991 -9.28750 385.40804
v 0.99977 173.34676 385.40804
v -2.43944 172.58537 572.39829
v 37.84070 -10.04889 572.39829
v 41.27991 -9.28750 385.40804
v 0.99977 173.34676 385.40804
v -2.43944 172.58537 572.39829
v 37.84070 -10.04889 572.39829
v -31.73563 -91.49095 294.13376
v 16.88915 41.55904 294.13376
v 9.86492 44.11979 435.59319
v -38.75986 -88.93020 435.59319
v -31.73563 -91.49095 294.13376
v 16.88915 41.55904 294.13376
v 9.86492 44.11979 435.59319
v -38.75986 -88.93020 435.59319
v -110.41033 -12.94589 315.41518
v -146.40075 -169.84939 315.41518
v -148.86407 -169.28642 476.37366
v -112.87365 -12.38292 476.37366
v -110.41033 -12.94589 315.41518
v -146.40075 -169.84939 315.41518
v -148.86407 -169.28642 476.37366
v -112.87365 -12.38292 476.37366
v 15.37180 -68.74626 343.74956
v -188.80793 -13.31592 343.74956
v -197.07218 -43.85376 552.94092
v 7.10754 -99.28410 552.94092
v 15.37180 -68.74626 343.74956
v -188.80793 -13.31592 343.74956
v -197.07218 -43.85376 552.94092
v 7.10754 -99.28410 552.94092
v 73.43920 116.47677 481.85522
v -63.12326 -44.94741 481.85522
v -52.39768 -54.00644 692.82907
v 84.16477 107.41774 692.82907
v 73.43920 116.47677 481.85522
v -63.12326 -44.94741 481.85522
v -52.39768 -54.00644 692.82907
v 84.16477 107.41774 692.82907
v -66.93095 -64.13157 196.87464
v 0.54652 121.27158 196.87464
v 26.72818 111.76637 392.19925
v -40.74929 -73.63678 392.19925
v -66.93095 -64.13157 196.87464
v 0.54652 121.27158 196.87464
v 26.72818 111.76637 392.19925
v -40.74929 -73.63678 392.19925
v 128.70644 -63.32430 322.12285
v 68.14187 96.72952 322.12285
v 42.10326 86.85276 490.97110
v 102.66783 -73.20106 490.97110
v 128.70644 -63.32430 322.12285
v 68.14187 96.72952 322.12285
v 42.10326 86.85276 490.97110
v 102.66783 -73.20106 490.97110
v -4.24738 -121.77536 299.12126
v -13.44069 47.43077 299.12126
v 2.22743 48.29457 467.84884
v 11.42075 -120.91157 467.84884
v -4.24738 -121.77536 299.12126
v -13.44069 47.43077 299.12126
v 2.22743 48.29457 467.84884
v 11.42075 -120.91157 467.84884
v 163.16489 -89.98256 252.26264
v -27.12454 -30.42346 252.26264
v -33.68348 -51.43777 450.43613
v 156.60595 -110.99687 450.43613
v 163.16489 -89.98256 252.26264
v -27.12454 -30.42346 252.26264
v -33.68348 -51.43777 450.43613
v 156.60595 -110.99687 450.43613
v -10.07590 121.05372 202.46905
v 78.99391 -64.95138 202.46905
v 82.29538 -63.36721 408.66779
v -6.77443 122.63788 408.66779
v -10.07590 121.05372 202.46905
v 78.99391 -64.95138 202.46905
v 82.29538 -63.36721 408.66779
v -6.77443 122.63788 408.66779
v -95.41213 -85.88274 216.06412
v -2.89313 117.30009 216.06412
v -36.34263 132.49913 436.27572
v -128.86163 -70.68371 436.27572
v -95.41213 -85.88274 216.06412
v -2.89313 117.30009 216.06412
v -36.34263 132.49913 436.27572
v -128.86163 -70.68371 436.27572
v 216.62420 3.17630 345.80808
v 35.65221 -84.22079 345.80808
v 27.94426 -68.29245 545.99795
v 208.91625 19.10464 545.99795
v 216.62420 3.17630 345.80808
v 35.65221 -84.22079 345.80808
v 27.94426 -68.29245 545.99795
v 208.91625 19.10464 545.99795
v -72.14463 -8.25822 359.33864
v 60.97893 -37.16127 359.33864
v 63.47391 -25.62542 495.05145
v -69.64965 3.27763 495.05145
v -72.14463 -8.25822 359.33864
v 60.97893 -37.16127 359.33864
v 63.47391 -25.62542 495.05145
v -69.64965 3.27763 495.05145
v 109.80572 -35.31797 405.57997
v -6.75237 42.22622 405.57997
v -0.48137 51.66856 545.11637
v 116.07672 -25.87562 545.11637
v 109.80572 -35.31797 405.57997
v -6.75237 42.22622 405.57997
v -0.48137 51.66856 545.11637
v 116.07672 -25.87562 545.11637
v 64.04458 -126.69218 295.05694
v -109.03846 -242.45640 295.05694
v -128.98974 -212.67791 500.17710
v 44.09330 -96.91369 500.17710
v 64.04458 -126.69218 295.05694
v -109.03846 -242.45640 295.05694
v -128.98974 -212.67791 500.17710
v 44.09330 -96.91369 500.17710
v 130.14751 101.27437 364.33476
v -37.04037 74.36473 364.33476
v -35.07326 62.20495 533.22581
v 132.11462 89.11459 533.22581
v 130.14751 101.27437 364.33476
v -37.04037 74.36473 364.33476
v -35.07326 62.20495 533.22581
v 132.11462 89.11459 533.22581
v 176.05872 -215.56835 277.72819
v 90.15184 -15.64147 277.72819
v 81.03407 -19.56791 495.10389
v 166.94095 -219.49478 495.10389
v 176.05872 -215.56835 277.72819
v 90.15184 -15.64147 277.72819
v 81.03407 -19.56791 495.10389
v 166.94095 -219.49478 495.10389
v 31.62180 105.46476 324.40608
v -53.85669 -45.36425 324.40608
v -81.27674 -29.85348 494.88634
v 4.20176 120.97554 494.88634
v 31.62180 105.46476 324.40608
v -53.85669 -45.36425 324.40608
v -81.27674 -29.85348 494.88634
v 4.20176 120.97554 494.88634
v 224.42109 42.93790 374.79420
v 42.97026 124.70087 374.79420
v 36.29561 109.85673 573.14915
v 217.74644 28.09376 573.14915
v 224.42109 42.93790 374.79420
v 42.97026 124.70087 374.79420
v 36.29561 109.85673 573.14915
v 217.74644 28.09376 573.14915
v -158.76521 -48.49627 203.19943
v -30.28218 120.00326 203.19943
v -14.05307 107.64878 414.11164
v -142.53610 -60.85075 414.11164
v -158.76521 -48.49627 203.19943
v -30.28218 120.00326 203.19943
v -14.05307 107.64878 414.11164
v -142.53610 -60.85075 414.11164
v -108.44934 -70.64143 376.05407
v 37.24611 -81.75882 376.05407
v 38.37441 -66.81539 521.40254
v -107.32104 -55.69800 521.40254
v -108.44934 -70.64143 376.05407
v 37.24611 -81.75882 376.05407
v 38.37441 -66.81539 521.40254
v -107.32104 -55.69800 521.40254
v 14.34258 30.15996 371.79333
v -106.97711 -149.84658 371.79333
v -120.46884 -140.76912 588.25671
v 0.85085 39.23742 588.25671
v 14.34258 30.15996 371.79333
v -106.97711 -149.84658 371.79333
v -120.46884 -140.76912 588.25671
v 0.85085 39.23742 588.25671
v -49.33032 -137.75962 281.56605
v -125.59280 16.07607 281.56605
v -144.54257 6.66311 451.95880
v -68.28009 -147.17259 451.95880
v -49.33032 -137.75962 281.56605
v -125.59280 16.07607 281.56605
v -144.54257 6.66311 451.95880
v -68.28009 -147.17259 451.95880
v -178.81753 -151.52505 220.96864
v -114.84072 57.43927 220.96864
v -87.16362 48.98971 437.58282
v -151.14043 -159.97461 437.58282
v -178.81753 -151.52505 220.96864
v -114.84072 57.43927 220.96864
v -87.16362 48.98971 437.58282
v -151.14043 -159.97461 437.58282
vt 0.00000 2.00000
vt 2.00000 2.00000
vt 2.00000 0.00000
vt 0.00000 0.00000
vt 0.00000 2.00000
vt 2.00000 2.00000
vt 2.00000 0.00000
vt 0.00000 0.00000
vt 0.00000 2.00000
vt 2.00000 2.00000
vt 2.00000 0.00000
vt 0.00000 0.00000
vt 0.00000 2.00000
vt 2.00000 2.00000
vt 2.00000 0.00000
vt 0.00000 0.00000
vt 0.00000 2.00000
vt 2.00000 2.00000
vt 2.00000 0.00000
vt 0.00000 0.00000
vt 0.00000 2.00000
vt 2.00000 2.00000
vt 2.00000 0.00000
vt 0.00000 0.00000
vt 0.00000 2.00000
vt 2.00000 2.00000
vt 2.00000 0.00000
vt 0.00000 0.00000
vt 0.00000 2.00000
vt 2.00000 2.00000
vt 2.00000 0.00000
vt 0.00000 0.00000
vt 0.00000 2.00000
vt 2.00000 2.00000
vt 2.00000 0.00000
vt 0.00000 0.00000
vt 0.00000 2.00000
vt 2.00000 2.00000
vt 2.00000 0.00000
vt 0.00000 0.00000
vt 0.00000 2.00000
vt 2.00000 2.00000
vt 2.00000 0.00000
vt 0.00000 0.00000
vt 0.00000 2.00000
vt 2.00000 2.00000
vt 2.00000 0.00000
vt 0.00000 0.00000
vt 0.00000 2.00000
vt 2.00000 2.00000
vt 2.00000 0.00000
vt 0.00000 0.00000
vt 0.00000 2.00000
vt 2.00000 2.00000
vt 2.00000 0.00000
vt 0.00000 0.00000
vt 0.00000 2.00000
vt 2.00000 2.00000
vt 2.00000 0.00000
vt 0.00000 0.00000
vt 0.00000 2.00000
vt 2.00000 2.00000
vt 2.00000 0.00000
vt 0.00000 0.00000
vt 0.00000 2.00000
vt 2.00000 2.00000
vt 2.00000 0.00000
vt 0.00000 0.00000
vt 0.00000 2.00000
vt 2.00000 2.00000
vt 2.00000 0.00000
vt 0.00000 0.00000
vt 0.00000 2.00000
vt 2.00000 2.00000
vt 2.00000 0.00000
vt 0.00000 0.00000
vt 0.00000 2.00000
vt 2.00000 2.00000
vt 2.00000 0.00000
vt 0.00000 0.00000
vt 0.00000 2.00000
vt 2.00000 2.00000
vt 2.00000 0.00000
vt 0.00000 0.00000
vt 0.00000 2.00000
vt 2.00000 2.00000
vt 2.00000 0.00000
vt 0.00000 0.00000
vt 0.00000 2.00000
vt 2.00000 2.00000
vt 2.00000 0.00000
vt 0.00000 0.00000
vt 0.00000 2.00000
vt 2.00000 2.00000
vt 2.00000 0.00000
vt 0.00000 0.00000
vt 0.00000 2.00000
vt 2.00000 2.00000
vt 2.00000 0.00000
vt 0.00000 0.00000
vt 0.00000 2.00000
vt 2.00000 2.00000
vt 2.00000 0.00000
vt 0.00000 0.00000
vt 0.00000 2.00000
vt 2.00000 2.00000
vt 2.00000 0.00000
vt 0.00000 0.00000
vt 0.00000 2.00000
vt 2.00000 2.00000
vt 2.00000 0.00000
vt 0.00000 0.00000
vt 0.00000 2.00000
vt 2.00000 2.00000
vt 2.00000 0.00000
vt 0.00000 0.00000
vt 0.00000 2.00000
vt 2.00000 2.00000
vt 2.00000 0.00000
vt 0.00000 0.00000
vt 0.00000 2.00000
vt 2.00000 2.00000
vt 2.00000 0.00000
vt 0.00000 0.00000
vt 0.00000 2.00000
vt 2.00000 2.00000
vt 2.00000 0.00000
vt 0.00000 0.00000
vt 0.00000 2.00000
vt 2.00000 2.00000
vt 2.00000 0.00000
vt 0.00000 0.00000
vt 0.00000 2.00000
vt 2.00000 2.00000
vt 2.00000 0.00000
vt 0.00000 0.00000
vt 0.00000 2.00000
vt 2.00000 2.00000
vt 2.00000 0.00000
vt 0.00000 0.00000
vt 0.00000 2.00000
vt 2.00000 2.00000
vt 2.00000 0.00000
vt 0.00000 0.00000
vt 0.00000 2.00000
vt 2.00000 2.00000
vt 2.00000 0.00000
vt 0.00000 0.00000
vt 0.00000 2.00000
vt 2.00000 2.00000
vt 2.00000 0.00000
vt 0.00000 0.00000
vt 0.00000 2.00000
vt 2.00000 2.00000
vt 2.00000 0.00000
vt 0.00000 0.00000
vt 0.00000 2.00000
vt 2.00000 2.00000
vt 2.00000 0.00000
vt 0.00000 0.00000
vt 0.00000 2.00000
vt 2.00000 2.00000
vt 2.00000 0.00000
vt 0.00000 0.00000
vt 0.00000 2.00000
vt 2.00000 2.00000
vt 2.00000 0.00000
vt 0.00000 0.00000
vt 0.00000 2.00000
vt 2.00000 2.00000
vt 2.00000 0.00000
vt 0.00000 0.00000
vt 0.00000 2.00000
vt 2.00000 2.00000
vt 2.00000 0.00000
vt 0.00000 0.00000
vt 0.00000 2.00000
vt 2.00000 2.00000
vt 2.00000 0.00000
vt 0.00000 0.00000
vt 0.00000 2.00000
vt 2.00000 2.00000
vt 2.00000 0.00000
vt 0.00000 0.00000
vt 0.00000 2.00000
vt 2.00000 2.00000
vt 2.00000 0.00000
vt 0.00000 0.00000
vt 0.00000 2.00000
vt 2.00000 2.00000
vt 2.00000 0.00000
vt 0.00000 0.00000
vt 0.00000 2.00000
vt 2.00000 2.00000
vt 2.00000 0.00000
vt 0.00000 0.00000
vt 0.00000 2.00000
vt 2.00000 2.00000
vt 2.00000 0.00000
vt 0.00000 0.00000
vt 0.00000 2.00000
vt 2.00000 2.00000
vt 2.00000 0.00000
vt 0.00000 0.00000
vt 0.00000 2.00000
vt 2.00000 2.00000
vt 2.00000 0.00000
vt 0.00000 0.00000
vt 0.00000 2.00000
vt 2.00000 2.00000
vt 2.00000 0.00000
vt 0.00000 0.00000
vt 0.00000 2.00000
vt 2.00000 2.00000
vt 2.00000 0.00000
vt 0.00000 0.00000
vt 0.00000 2.00000
vt 2.00000 2.00000
vt 2.00000 0.00000
vt 0.00000 0.00000
vt 0.00000 2.00000
vt 2.00000 2.00000
vt 2.00000 0.00000
vt 0.00000 0.00000
vt 0.00000 2.00000
vt 2.00000 2.00000
vt 2.00000 0.00000
vt 0.00000 0.00000
vt 0.00000 2.00000
vt 2.00000 2.00000
vt 2.00000 0.00000
vt 0.00000 0.00000
vn -0.9866 -0.1320 -0.0959
vn 0.9866 0.1320 0.0959
vn 0.4288 0.8895 -0.1581
vn -0.4288 -0.8895 0.1581
vn -0.9969 -0.0760 0.0223
vn 0.9969 0.0760 -0.0223
vn 0.6473 0.7431 -0.1698
vn -0.6473 -0.7431 0.1698
vn 0.4044 0.9115 0.0753
vn -0.4044 -0.9115 -0.0753
vn -0.9764 -0.2153 -0.0188
vn 0.9764 0.2153 0.0188
vn -0.9379 0.3428 -0.0528
vn 0.9379 -0.3428 0.0528
vn 0.9746 -0.2235 0.0157
vn -0.9746 0.2235 -0.0157
vn -0.2590 -0.9542 -0.1495
vn 0.2590 0.9542 0.1495
vn 0.7618 -0.6444 -0.0664
vn -0.7618 0.6444 0.0664
vn -0.9303 0.3386 0.1412
vn 0.9303 -0.3386 -0.1412
vn -0.9228 -0.3492 -0.1627
vn 0.9228 0.3492 0.1627
vn -0.9942 -0.0540 0.0926
vn 0.9942 0.0540 -0.0926
vn -0.2969 -0.9485 -0.1104
vn 0.2969 0.9485 0.1104
vn 0.9018 0.4318 -0.0178
vn -0.9018 -0.4318 0.0178
vn -0.8977 0.4088 -0.1646
vn 0.8977 -0.4088 0.1646
vn 0.4332 -0.8970 0.0880
vn -0.4332 0.8970 -0.0880
vn 0.2114 0.9736 -0.0866
vn -0.2114 -0.9736 0.0866
vn -0.5521 -0.8298 0.0810
vn 0.5521 0.8298 -0.0810
vn 0.5476 -0.8188 0.1721
vn -0.5476 0.8188 -0.1721
vn 0.1585 -0.9847 -0.0727
vn -0.1585 0.9847 0.0727
vn -0.9178 -0.3944 -0.0456
vn 0.9178 0.3944 0.0456
vn 0.8555 -0.4848 0.1817
vn -0.8555 0.4848 -0.1817
vn -0.4094 -0.9087 -0.0818
vn 0.4094 0.9087 0.0818
vn -0.7915 0.6035 0.0963
vn 0.7915 -0.6035 -0.0963
vn 0.0757 0.9918 -0.1026
vn -0.0757 -0.9918 0.1026
vn 0.8269 -0.5573 0.0749
vn -0.8269 0.5573 -0.0749
vn -0.8891 -0.4408 -0.1232
vn 0.8891 0.4408 0.1232
vn -0.9478 0.2902 0.1324
vn 0.9478 -0.2902 -0.1324
f 1/1/1 3/3/1 2/2/1
f 1/1/1 4/4/1 3/3/1
f 5/5/2 7/7/2 8/8/2
f 5/5/2 6/6/2 7/7/2
f 9/9/3 11/11/3 10/10/3
f 9/9/3 12/12/3 11/11/3
f 13/13/4 15/15/4 16/16/4
f 13/13/4 14/14/4 15/15/4
f 17/17/5 19/19/5 18/18/5
f 17/17/5 20/20/5 19/19/5
f 21/21/6 23/23/6 24/24/6
f 21/21/6 22/22/6 23/23/6
f 25/25/7 27/27/7 26/26/7
f 25/25/7 28/28/7 27/27/7
f 29/29/8 31/31/8 32/32/8
f 29/29/8 30/30/8 31/31/8
f 33/33/9 35/35/9 34/34/9
f 33/33/9 36/36/9 35/35/9
f 37/37/10 39/39/10 40/40/10
f 37/37/10 38/38/10 39/39/10
f 41/41/11 43/43/11 42/42/11
f 41/41/11 44/44/11 43/43/11
f 45/45/12 47/47/12 48/48/12
f 45/45/12 46/46/12 47/47/12
f 49/49/13 51/51/13 50/50/13
f 49/49/13 52/52/13 51/51/13
f 53/53/14 55/55/14 56/56/14
f 53/53/14 54/54/14 55/55/14
f 57/57/15 59/59/15 58/58/15
f 57/57/15 60/60/15 59/59/15
f 61/61/16 63/63/16 64/64/16
f 61/61/16 62/62/16 63/63/16
f 65/65/17 67/67/17 66/66/17
f 65/65/17 68/68/17 67/67/17
f 69/69/18 71/71/18 72/72/18
f 69/69/18 70/70/18 71/71/18
f 73/73/19 75/75/19 74/74/19
f 73/73/19 76/76/19 75/75/19
f 77/77/20 79/79/20 80/80/20
f 77/77/20 78/78/20 79/79/20
f 81/81/21 83/83/21 82/82/21
f 81/81/21 84/84/21 83/83/21
f 85/85/22 87/87/22 88/88/22
f 85/85/22 86/86/22 87/87/22
f 89/89/23 91/91/23 90/90/23
f 89/89/23 92/92/23 91/91/23
f 93/93/24 95/95/24 96/96/24
f 93/93/24 94/94/24 95/95/24
f 97/97/25 99/99/25 98/98/25
f 97/97/25 100/100/25 99/99/25
f 101/101/26 103/103/26 104/104/26
f 101/101/26 102/102/26 103/103/26
f 105/105/27 107/107/27 106/106/27
f 105/105/27 108/108/27 107/107/27
f 109/109/28 111/111/28 112/112/28
f 109/109/28 110/110/28 111/111/28
f 113/113/29 115/115/29 114/114/29
f 113/113/29 116/116/29 115/115/29
f 117/117/30 119/119/30 120/120/30
f 117/117/30 118/118/30 119/119/30
f 121/121/31 123/123/31 122/122/31
f 121/121/31 124/124/31 123/123/31
f 125/125/32 127/127/32 128/128/32
f 125/125/32 126/126/32 127/127/32
f 129/129/33 131/131/33 130/130/33
f 129/129/33 132/132/33 131/131/33
f 133/133/34 135/135/34 136/136/34
f 133/133/34 134/134/34 135/135/34
f 137/137/35 139/139/35 138/138/35
f 137/137/35 140/140/35 139/139/35
f 141/141/36 143/143/36 144/144/36
f 141/141/36 142/142/36 143/143/36
f 145/145/37 147/147/37 146/146/37
f 145/145/37 148/148/37 147/147/37
f 149/149/38 151/151/38 152/152/38
f 149/149/38 150/150/38 151/151/38
f 153/153/39 155/155/39 154/154/39
f 153/153/39 156/156/39 155/155/39
f 157/157/40 159/159/40 160/160/40
f 157/157/40 158/158/40 159/159/40
f 161/161/41 163/163/41 162/162/41
f 161/161/41 164/164/41 163/163/41
f 165/165/42 167/167/42 168/168/42
f 165/165/42 166/166/42 167/167/42
f 169/169/43 171/171/43 170/170/43
f 169/169/43 172/172/43 171/171/43
f 173/173/44 175/175/44 176/176/44
f 173/173/44 174/174/44 175/175/44
f 177/177/45 179/179/45 178/178/45
f 177/177/45 180/180/45 179/179/45
f 181/181/46 183/183/46 184/184/46
f 181/181/46 182/182/46 183/183/46
f 185/185/47 187/187/47 186/186/47
f 185/185/47 188/188/47 187/187/47
f 189/189/48 191/191/48 192/192/48
f 189/189/48 190/190/48 191/191/48
f 193/193/49 195/195/49 194/194/49
f 193/193/49 196/196/49 195/195/49
f 197/197/50 199/199/50 200/200/50
f 197/197/50 198/198/50 199/199/50
f 201/201/51 203/203/51 202/202/51
f 201/201/51 204/204/51 203/203/51
f 205/205/52 207/207/52 208/208/52
f 205/205/52 206/206/52 207/207/52
f 209/209/53 211/211/53 210/210/53
f 209/209/53 212/212/53 211/211/53
f 213/213/54 215/215/54 216/216/54
f 213/213/54 214/214/54 215/215/54
f 217/217/55 219/219/55 218/218/55
f 217/217/55 220/220/55 219/219/55
f 221/221/56 223/223/56 224/224/56
f 221/221/56 222/222/56 223/223/56
f 225/225/57 227/227/57 226/226/57
f 225/225/57 228/228/57 227/227/57
f 229/229/58 231/231/58 232/232/58
f 229/229/58 230/230/58 231/231/58
