# JudeanFloraV1; canonical UE cm (X east, +Y south, Z up), written with Y reflected and triangle winding reversed for the legacy OBJ importer adapter. One o object, no g groups, so the importer creates exactly one material slot.
# Aleppo pine (Pinus halepensis), StreetTreesV1 seed 0, LOD2 bark
# height 9.0-17.0 m, crown 9.0-14.0 m; source: Zohary & Feinbrun-Dothan, Flora Palaestina vols I-IV (Israel Academy of Sciences, 1966-1986) Pinus halepensis; 9-17 m in the Judean hills
# branching is recursive with da Vinci child radii; leaf sprays are anchored to branch tips. Stylised habit, not a survey of any tree.
o SM_StreetTreesV1_AleppoPine_S0_L2_Bark
s off
v 0.00000 38.08571 3.90132
v 35.29009 -0.19132 1.86777
v 0.00000 -38.08571 -3.90132
v -35.29009 0.19132 -1.86777
v -5.55677 17.85022 120.65672
v 21.41259 -12.87775 119.05474
v -7.05844 -42.01267 115.22362
v -34.02780 -11.28470 116.82560
v -8.89307 3.03730 237.95497
v 12.31426 -22.33765 236.60126
v -11.32322 -45.41467 234.55365
v -32.53056 -20.03971 235.90736
v -9.28983 -8.24618 355.80433
v 7.90650 -29.87897 354.57996
v -12.33460 -48.71292 353.70195
v -29.53093 -27.08013 354.92632
v -7.09964 -16.23479 473.82496
v 7.21846 -35.20624 473.07361
v -10.58562 -50.96901 472.87751
v -24.90372 -31.99756 473.62886
v -5.48965 -20.16591 592.37288
v 6.61273 -37.05484 592.00890
v -9.29277 -50.42562 591.73768
v -21.39514 -33.53668 592.10165
v -6.69526 -25.44476 711.11573
v 3.51075 -40.45091 710.80858
v -10.67459 -51.76447 710.33849
v -20.88061 -36.75832 710.64563
v -8.68493 -30.48071 708.68246
v -0.35895 -38.37874 711.62456
v -8.68493 -46.72852 712.77176
v -17.01091 -38.83049 709.82966
v -26.51489 7.43479 864.59325
v -19.44443 0.68189 866.83400
v -26.51489 -6.33954 867.98380
v -33.58535 0.41336 865.74305
v -34.23821 43.89990 1021.60618
v -28.43394 38.32120 1023.23700
v -34.23821 32.63746 1024.45217
v -40.04249 38.21616 1022.82136
v -38.42649 83.94205 1177.84205
v -33.90429 79.59910 1179.11348
v -38.42649 75.19604 1180.15795
v -42.94868 79.53900 1178.88652
v -9.18010 -45.45340 710.72711
v -13.05960 -38.28832 716.01041
v -8.18976 -31.75582 710.72711
v -4.31025 -38.92090 705.44381
v 128.71729 -54.36609 825.32439
v 125.14747 -48.37519 829.67933
v 129.27200 -42.75177 825.32439
v 132.84183 -48.74268 820.96946
v 259.37778 -56.17385 948.28215
v 256.15483 -51.24951 951.55257
v 259.84325 -46.66345 948.28215
v 263.06620 -51.58779 945.01172
v 374.42399 -64.28195 1085.58998
v 371.88944 -60.36036 1087.97656
v 375.01273 -56.88935 1085.58998
v 377.54727 -60.81094 1083.20341
v -14.86623 -35.61420 710.72711
v -7.14726 -35.42620 716.61645
v -2.50362 -41.59502 710.72711
v -10.22259 -41.78303 704.83776
v -80.21026 -173.10825 801.87558
v -73.57525 -172.48580 806.69110
v -69.57990 -177.81947 801.87558
v -76.21491 -178.44191 797.06005
v -131.80532 -304.66254 908.99005
v -126.23563 -303.80075 912.67353
v -123.07732 -308.46863 908.99005
v -128.64700 -309.33043 905.30657
v -187.78101 -425.05882 1026.26966
v -183.37928 -424.43230 1029.05009
v -181.08123 -428.23844 1026.26966
v -185.48296 -428.86496 1023.48923
vt 0.00000 0.00000
vt 0.25000 0.00000
vt 0.50000 0.00000
vt 0.75000 0.00000
vt 0.00000 0.16667
vt 0.25000 0.16667
vt 0.50000 0.16667
vt 0.75000 0.16667
vt 0.00000 0.33333
vt 0.25000 0.33333
vt 0.50000 0.33333
vt 0.75000 0.33333
vt 0.00000 0.50000
vt 0.25000 0.50000
vt 0.50000 0.50000
vt 0.75000 0.50000
vt 0.00000 0.66667
vt 0.25000 0.66667
vt 0.50000 0.66667
vt 0.75000 0.66667
vt 0.00000 0.83333
vt 0.25000 0.83333
vt 0.50000 0.83333
vt 0.75000 0.83333
vt 0.00000 1.00000
vt 0.25000 1.00000
vt 0.50000 1.00000
vt 0.75000 1.00000
vt 0.00000 0.00000
vt 0.25000 0.00000
vt 0.50000 0.00000
vt 0.75000 0.00000
vt 0.00000 0.33333
vt 0.25000 0.33333
vt 0.50000 0.33333
vt 0.75000 0.33333
vt 0.00000 0.66667
vt 0.25000 0.66667
vt 0.50000 0.66667
vt 0.75000 0.66667
vt 0.00000 1.00000
vt 0.25000 1.00000
vt 0.50000 1.00000
vt 0.75000 1.00000
vt 0.00000 0.00000
vt 0.25000 0.00000
vt 0.50000 0.00000
vt 0.75000 0.00000
vt 0.00000 0.33333
vt 0.25000 0.33333
vt 0.50000 0.33333
vt 0.75000 0.33333
vt 0.00000 0.66667
vt 0.25000 0.66667
vt 0.50000 0.66667
vt 0.75000 0.66667
vt 0.00000 1.00000
vt 0.25000 1.00000
vt 0.50000 1.00000
vt 0.75000 1.00000
vt 0.00000 0.00000
vt 0.25000 0.00000
vt 0.50000 0.00000
vt 0.75000 0.00000
vt 0.00000 0.33333
vt 0.25000 0.33333
vt 0.50000 0.33333
vt 0.75000 0.33333
vt 0.00000 0.66667
vt 0.25000 0.66667
vt 0.50000 0.66667
vt 0.75000 0.66667
vt 0.00000 1.00000
vt 0.25000 1.00000
vt 0.50000 1.00000
vt 0.75000 1.00000
vn 0.7301 0.6647 0.1584
vn 0.7471 0.6480 0.1479
vn 0.7301 -0.6831 0.0207
vn 0.7146 -0.6995 0.0089
vn -0.7355 -0.6751 -0.0574
vn -0.7516 -0.6562 -0.0662
vn -0.7355 0.6726 0.0816
vn -0.7181 0.6919 0.0745
vn 0.7498 0.6523 0.1105
vn 0.7660 0.6347 0.1019
vn 0.7148 -0.6993 0.0056
vn 0.6987 -0.7154 -0.0035
vn -0.7520 -0.6580 -0.0389
vn -0.7677 -0.6392 -0.0457
vn -0.7180 0.6928 0.0671
vn -0.7000 0.7116 0.0611
vn 0.7673 0.6376 0.0694
vn 0.7830 0.6189 0.0619
vn 0.6991 -0.7149 -0.0139
vn 0.6815 -0.7315 -0.0213
vn -0.7677 -0.6406 -0.0185
vn -0.7832 -0.6213 -0.0238
vn -0.7000 0.7111 0.0657
vn -0.6814 0.7295 0.0603
vn 0.7833 0.6208 0.0325
vn 0.7984 0.6016 0.0259
vn 0.6816 -0.7314 -0.0238
vn 0.6628 -0.7482 -0.0298
vn -0.7827 -0.6224 0.0047
vn -0.7982 -0.6024 0.0003
vn -0.6813 0.7293 0.0620
vn -0.6622 0.7472 0.0568
vn 0.7984 0.6020 0.0134
vn 0.8129 0.5823 0.0083
vn 0.6629 -0.7487 -0.0038
vn 0.6435 -0.7654 -0.0086
vn -0.7978 -0.6027 0.0158
vn -0.8127 -0.5826 0.0115
vn -0.6627 0.7481 0.0338
vn -0.6435 0.7649 0.0290
vn 0.8127 0.5815 0.0378
vn 0.8267 0.5616 0.0334
vn 0.6435 -0.7655 -0.0011
vn 0.6236 -0.7817 -0.0061
vn -0.8129 -0.5823 -0.0123
vn -0.8269 -0.5621 -0.0160
vn -0.6435 0.7649 0.0275
vn -0.6238 0.7812 0.0239
vn -0.0109 -0.0279 0.9996
vn 0.0531 0.1018 -0.9934
vn 0.7021 0.7061 -0.0914
vn 0.7028 0.7055 -0.0912
vn 0.7021 -0.6653 0.2538
vn 0.7020 -0.6654 0.2538
vn -0.7034 -0.7034 0.1023
vn -0.7038 -0.7030 0.1021
vn -0.7034 0.6680 -0.2429
vn -0.7031 0.6683 -0.2430
vn 0.7059 0.6969 -0.1271
vn 0.7057 0.6970 -0.1272
vn 0.7063 -0.6779 0.2037
vn 0.7064 -0.6778 0.2037
vn -0.7066 -0.6940 0.1380
vn -0.7062 -0.6944 0.1381
vn -0.7070 0.6804 -0.1928
vn -0.7068 0.6806 -0.1928
vn 0.7070 0.6894 -0.1578
vn 0.7067 0.6897 -0.1578
vn 0.7064 -0.6777 0.2042
vn 0.7067 -0.6774 0.2042
vn -0.7073 -0.6866 0.1686
vn -0.7070 -0.6868 0.1687
vn -0.7068 0.6805 -0.1933
vn -0.7070 0.6803 -0.1933
vn -0.0259 0.2559 0.9664
vn 0.1105 -0.2426 -0.9638
vn -0.4986 -0.6729 0.5465
vn -0.4917 -0.6844 0.5384
vn -0.3966 0.7376 0.5465
vn -0.4040 0.7266 0.5557
vn 0.5044 0.6725 -0.5416
vn 0.4986 0.6841 -0.5324
vn 0.4024 -0.7380 -0.5416
vn 0.4110 -0.7272 -0.5498
vn -0.5050 -0.6838 0.5267
vn -0.5062 -0.6819 0.5279
vn -0.4573 0.7294 0.5088
vn -0.4569 0.7300 0.5083
vn 0.5113 0.6834 -0.5211
vn 0.5121 0.6820 -0.5221
vn 0.4634 -0.7295 -0.5031
vn 0.4626 -0.7304 -0.5025
vn -0.5819 -0.6786 0.4483
vn -0.5932 -0.6621 0.4579
vn -0.4942 0.7320 0.4690
vn -0.4810 0.7476 0.4579
vn 0.5877 0.6779 -0.4416
vn 0.5980 0.6617 -0.4523
vn 0.5003 -0.7321 -0.4624
vn 0.4857 -0.7480 -0.4523
vn 0.6416 -0.0511 0.7653
vn -0.7674 0.0555 -0.6388
vn -0.4796 0.6323 0.6084
vn -0.4935 0.6312 0.5984
vn 0.7934 0.0164 0.6084
vn 0.7841 0.0275 0.6201
vn 0.4768 -0.6382 -0.6045
vn 0.4904 -0.6384 -0.5932
vn -0.7963 -0.0223 -0.6045
vn -0.7877 -0.0347 -0.6151
vn -0.4812 0.6593 0.5778
vn -0.4832 0.6589 0.5765
vn 0.8241 0.1169 0.5542
vn 0.8230 0.1184 0.5556
vn 0.4783 -0.6655 -0.5730
vn 0.4807 -0.6652 -0.5713
vn -0.8265 -0.1231 -0.5493
vn -0.8256 -0.1244 -0.5503
vn -0.4568 0.7202 0.5222
vn -0.4394 0.7232 0.5327
vn 0.8287 0.1314 0.5440
vn 0.8382 0.1169 0.5327
vn 0.4538 -0.7263 -0.5163
vn 0.4370 -0.7284 -0.5277
vn -0.8314 -0.1378 -0.5383
vn -0.8406 -0.1220 -0.5277
vn -0.3215 -0.6774 0.6616
vn 0.3735 0.7721 -0.5142
f 1/1/1 6/6/1 2/2/1
f 1/1/2 5/5/2 6/6/2
f 2/2/3 7/7/3 3/3/3
f 2/2/4 6/6/4 7/7/4
f 3/3/5 8/8/5 4/4/5
f 3/3/6 7/7/6 8/8/6
f 4/4/7 5/5/7 1/1/7
f 4/4/8 8/8/8 5/5/8
f 5/5/9 10/10/9 6/6/9
f 5/5/10 9/9/10 10/10/10
f 6/6/11 11/11/11 7/7/11
f 6/6/12 10/10/12 11/11/12
f 7/7/13 12/12/13 8/8/13
f 7/7/14 11/11/14 12/12/14
f 8/8/15 9/9/15 5/5/15
f 8/8/16 12/12/16 9/9/16
f 9/9/17 14/14/17 10/10/17
f 9/9/18 13/13/18 14/14/18
f 10/10/19 15/15/19 11/11/19
f 10/10/20 14/14/20 15/15/20
f 11/11/21 16/16/21 12/12/21
f 11/11/22 15/15/22 16/16/22
f 12/12/23 13/13/23 9/9/23
f 12/12/24 16/16/24 13/13/24
f 13/13/25 18/18/25 14/14/25
f 13/13/26 17/17/26 18/18/26
f 14/14/27 19/19/27 15/15/27
f 14/14/28 18/18/28 19/19/28
f 15/15/29 20/20/29 16/16/29
f 15/15/30 19/19/30 20/20/30
f 16/16/31 17/17/31 13/13/31
f 16/16/32 20/20/32 17/17/32
f 17/17/33 22/22/33 18/18/33
f 17/17/34 21/21/34 22/22/34
f 18/18/35 23/23/35 19/19/35
f 18/18/36 22/22/36 23/23/36
f 19/19/37 24/24/37 20/20/37
f 19/19/38 23/23/38 24/24/38
f 20/20/39 21/21/39 17/17/39
f 20/20/40 24/24/40 21/21/40
f 21/21/41 26/26/41 22/22/41
f 21/21/42 25/25/42 26/26/42
f 22/22/43 27/27/43 23/23/43
f 22/22/44 26/26/44 27/27/44
f 23/23/45 28/28/45 24/24/45
f 23/23/46 27/27/46 28/28/46
f 24/24/47 25/25/47 21/21/47
f 24/24/48 28/28/48 25/25/48
f 25/25/49 27/27/49 26/26/49
f 25/25/49 28/28/49 27/27/49
f 4/4/50 2/2/50 3/3/50
f 4/4/50 1/1/50 2/2/50
f 29/29/51 34/34/51 30/30/51
f 29/29/52 33/33/52 34/34/52
f 30/30/53 35/35/53 31/31/53
f 30/30/54 34/34/54 35/35/54
f 31/31/55 36/36/55 32/32/55
f 31/31/56 35/35/56 36/36/56
f 32/32/57 33/33/57 29/29/57
f 32/32/58 36/36/58 33/33/58
f 33/33/59 38/38/59 34/34/59
f 33/33/60 37/37/60 38/38/60
f 34/34/61 39/39/61 35/35/61
f 34/34/62 38/38/62 39/39/62
f 35/35/63 40/40/63 36/36/63
f 35/35/64 39/39/64 40/40/64
f 36/36/65 37/37/65 33/33/65
f 36/36/66 40/40/66 37/37/66
f 37/37/67 42/42/67 38/38/67
f 37/37/68 41/41/68 42/42/68
f 38/38/69 43/43/69 39/39/69
f 38/38/70 42/42/70 43/43/70
f 39/39/71 44/44/71 40/40/71
f 39/39/72 43/43/72 44/44/72
f 40/40/73 41/41/73 37/37/73
f 40/40/74 44/44/74 41/41/74
f 41/41/75 43/43/75 42/42/75
f 41/41/75 44/44/75 43/43/75
f 32/32/76 30/30/76 31/31/76
f 32/32/76 29/29/76 30/30/76
f 45/45/77 50/50/77 46/46/77
f 45/45/78 49/49/78 50/50/78
f 46/46/79 51/51/79 47/47/79
f 46/46/80 50/50/80 51/51/80
f 47/47/81 52/52/81 48/48/81
f 47/47/82 51/51/82 52/52/82
f 48/48/83 49/49/83 45/45/83
f 48/48/84 52/52/84 49/49/84
f 49/49/85 54/54/85 50/50/85
f 49/49/86 53/53/86 54/54/86
f 50/50/87 55/55/87 51/51/87
f 50/50/88 54/54/88 55/55/88
f 51/51/89 56/56/89 52/52/89
f 51/51/90 55/55/90 56/56/90
f 52/52/91 53/53/91 49/49/91
f 52/52/92 56/56/92 53/53/92
f 53/53/93 58/58/93 54/54/93
f 53/53/94 57/57/94 58/58/94
f 54/54/95 59/59/95 55/55/95
f 54/54/96 58/58/96 59/59/96
f 55/55/97 60/60/97 56/56/97
f 55/55/98 59/59/98 60/60/98
f 56/56/99 57/57/99 53/53/99
f 56/56/100 60/60/100 57/57/100
f 57/57/101 59/59/101 58/58/101
f 57/57/101 60/60/101 59/59/101
f 48/48/102 46/46/102 47/47/102
f 48/48/102 45/45/102 46/46/102
f 61/61/103 66/66/103 62/62/103
f 61/61/104 65/65/104 66/66/104
f 62/62/105 67/67/105 63/63/105
f 62/62/106 66/66/106 67/67/106
f 63/63/107 68/68/107 64/64/107
f 63/63/108 67/67/108 68/68/108
f 64/64/109 65/65/109 61/61/109
f 64/64/110 68/68/110 65/65/110
f 65/65/111 70/70/111 66/66/111
f 65/65/112 69/69/112 70/70/112
f 66/66/113 71/71/113 67/67/113
f 66/66/114 70/70/114 71/71/114
f 67/67/115 72/72/115 68/68/115
f 67/67/116 71/71/116 72/72/116
f 68/68/117 69/69/117 65/65/117
f 68/68/118 72/72/118 69/69/118
f 69/69/119 74/74/119 70/70/119
f 69/69/120 73/73/120 74/74/120
f 70/70/121 75/75/121 71/71/121
f 70/70/122 74/74/122 75/75/122
f 71/71/123 76/76/123 72/72/123
f 71/71/124 75/75/124 76/76/124
f 72/72/125 73/73/125 69/69/125
f 72/72/126 76/76/126 73/73/126
f 73/73/127 75/75/127 74/74/127
f 73/73/127 76/76/127 75/75/127
f 64/64/128 62/62/128 63/63/128
f 64/64/128 61/61/128 62/62/128
