# JudeanFloraV1; canonical UE cm (X east, +Y south, Z up), written with Y reflected and triangle winding reversed for the legacy OBJ importer adapter. One o object, no g groups, so the importer creates exactly one material slot.
# Judas tree (Cercis siliquastrum), StreetTreesV1 seed 2, LOD1 leaf
# height 3.5-7.5 m, crown 3.0-6.5 m; source: Zohary & Feinbrun-Dothan, Flora Palaestina vols I-IV (Israel Academy of Sciences, 1966-1986) Cercis siliquastrum; a small tree of 3.5-7.5 m, often multi-stemmed
# branching is recursive with da Vinci child radii; leaf sprays are anchored to branch tips. Stylised habit, not a survey of any tree.
o SM_StreetTreesV1_JudasTree_S2_L1_Leaf
s off
v -11.85890 -59.87970 397.04237
v -24.57035 43.01510 397.04237
v -27.47740 42.65362 500.67798
v -14.76594 -60.24118 500.67798
v -11.85890 -59.87970 397.04237
v -24.57035 43.01510 397.04237
v -27.47740 42.65362 500.67798
v -14.76594 -60.24118 500.67798
v -41.26981 54.41470 340.36189
v 30.05173 -13.01758 340.36189
v 30.53086 -12.51001 438.51172
v -40.79068 54.92227 438.51172
v -41.26981 54.41470 340.36189
v 30.05173 -13.01758 340.36189
v 30.53086 -12.51001 438.51172
v -40.79068 54.92227 438.51172
v 44.80683 -4.49117 445.48555
v 32.47152 93.50589 445.48555
v 20.76505 92.02288 543.54851
v 33.10036 -5.97419 543.54851
v 44.80683 -4.49117 445.48555
v 32.47152 93.50589 445.48555
v 20.76505 92.02288 543.54851
v 33.10036 -5.97419 543.54851
v -58.86653 24.92878 444.46607
v -21.79220 99.03805 444.46607
v -29.35365 102.81325 526.89945
v -66.42798 28.70399 526.89945
v -58.86653 24.92878 444.46607
v -21.79220 99.03805 444.46607
v -29.35365 102.81325 526.89945
v -66.42798 28.70399 526.89945
v 25.49346 122.06075 478.78083
v -27.73741 44.49183 478.78083
v -16.75331 36.96696 571.91079
v 36.47756 114.53588 571.91079
v 25.49346 122.06075 478.78083
v -27.73741 44.49183 478.78083
v -16.75331 36.96696 571.91079
v 36.47756 114.53588 571.91079
v -12.32950 57.25530 474.07537
v 18.58208 -38.49810 474.07537
v 13.30350 -40.20680 574.54156
v -17.60808 55.54660 574.54156
v -12.32950 57.25530 474.07537
v 18.58208 -38.49810 474.07537
v 13.30350 -40.20680 574.54156
v -17.60808 55.54660 574.54156
v 40.14617 56.88633 378.67443
v 39.75545 -47.94058 378.67443
v 34.10808 -47.92403 483.34983
v 34.49879 56.90288 483.34983
v 40.14617 56.88633 378.67443
v 39.75545 -47.94058 378.67443
v 34.10808 -47.92403 483.34983
v 34.49879 56.90288 483.34983
v -33.42003 94.45522 440.84740
v 17.78894 39.27545 440.84740
v 14.40638 36.13129 515.98619
v -36.80259 91.31105 515.98619
v -33.42003 94.45522 440.84740
v 17.78894 39.27545 440.84740
v 14.40638 36.13129 515.98619
v -36.80259 91.31105 515.98619
v 21.92392 19.93098 423.58350
v 53.82470 126.25766 423.58350
v 51.64763 126.90895 534.56935
v 19.74686 20.58226 534.56935
v 21.92392 19.93098 423.58350
v 53.82470 126.25766 423.58350
v 51.64763 126.90895 534.56935
v 19.74686 20.58226 534.56935
v -49.51689 41.32229 474.77093
v 43.00585 10.95577 474.77093
v 40.48417 3.25182 571.81150
v -52.03857 33.61835 571.81150
v -49.51689 41.32229 474.77093
v 43.00585 10.95577 474.77093
v 40.48417 3.25182 571.81150
v -52.03857 33.61835 571.81150
v -1.28749 -38.47853 510.95954
v 41.78449 61.23076 510.95954
v 29.08050 66.70657 618.68958
v -13.99147 -33.00272 618.68958
v -1.28749 -38.47853 510.95954
v 41.78449 61.23076 510.95954
v 29.08050 66.70657 618.68958
v -13.99147 -33.00272 618.68958
v 11.69624 65.17824 487.53489
v 46.01632 -31.59884 487.53489
v 38.15281 -34.39453 589.87754
v 3.83272 62.38254 589.87754
v 11.69624 65.17824 487.53489
v 46.01632 -31.59884 487.53489
v 38.15281 -34.39453 589.87754
v 3.83272 62.38254 589.87754
v -18.75025 17.66292 389.87535
v 70.12118 -12.63980 389.87535
v 72.32088 -6.17169 483.52208
v -16.55055 24.13104 483.52208
v -18.75025 17.66292 389.87535
v 70.12118 -12.63980 389.87535
v 72.32088 -6.17169 483.52208
v -16.55055 24.13104 483.52208
v -10.13006 34.11580 451.10390
v -81.84785 57.88425 451.10390
v -80.65013 61.50784 526.56127
v -8.93235 37.73940 526.56127
v -10.13006 34.11580 451.10390
v -81.84785 57.88425 451.10390
v -80.65013 61.50784 526.56127
v -8.93235 37.73940 526.56127
v -26.12224 -21.41207 401.77400
v -18.22323 70.38087 401.77400
v -30.42141 71.42077 493.08917
v -38.32042 -20.37218 493.08917
v -26.12224 -21.41207 401.77400
v -18.22323 70.38087 401.77400
v -30.42141 71.42077 493.08917
v -38.32042 -20.37218 493.08917
v 7.92526 -82.02056 448.56330
v -27.99631 17.20349 448.56330
v -29.51808 16.65120 554.07705
v 6.40349 -82.57285 554.07705
v 7.92526 -82.02056 448.56330
v -27.99631 17.20349 448.56330
v -29.51808 16.65120 554.07705
v 6.40349 -82.57285 554.07705
v -63.32192 14.79639 442.22946
v -86.63289 -90.28920 442.22946
v -72.34408 -93.44693 548.87017
v -49.03311 11.63866 548.87017
v -63.32192 14.79639 442.22946
v -86.63289 -90.28920 442.22946
v -72.34408 -93.44693 548.87017
v -49.03311 11.63866 548.87017
v -65.93217 31.07390 476.67811
v 17.16720 16.67629 476.67811
v 16.63601 13.59584 560.95756
v -66.46336 27.99344 560.95756
v -65.93217 31.07390 476.67811
v 17.16720 16.67629 476.67811
v 16.63601 13.59584 560.95756
v -66.46336 27.99344 560.95756
v 80.67080 86.49277 322.46932
v 125.64764 153.94887 322.46932
v 120.46024 157.40165 403.30502
v 75.48339 89.94555 403.30502
v 80.67080 86.49277 322.46932
v 125.64764 153.94887 322.46932
v 120.46024 157.40165 403.30502
v 75.48339 89.94555 403.30502
v 129.61484 171.28237 311.01018
v 125.76284 68.76864 311.01018
v 143.93501 68.10030 411.97170
v 147.78700 170.61403 411.97170
v 129.61484 171.28237 311.01018
v 125.76284 68.76864 311.01018
v 143.93501 68.10030 411.97170
v 147.78700 170.61403 411.97170
v 50.48059 65.87873 378.81601
v 124.00028 125.35494 378.81601
v 126.92693 121.74314 473.26681
v 53.40724 62.26693 473.26681
v 50.48059 65.87873 378.81601
v 124.00028 125.35494 378.81601
v 126.92693 121.74314 473.26681
v 53.40724 62.26693 473.26681
v 161.15375 182.82126 394.88767
v 106.56615 87.85577 394.88767
v 115.33159 82.82654 503.95702
v 169.91920 177.79203 503.95702
v 161.15375 182.82126 394.88767
v 106.56615 87.85577 394.88767
v 115.33159 82.82654 503.95702
v 169.91920 177.79203 503.95702
v 150.91614 77.42296 436.16403
v 84.24083 97.89373 436.16403
v 83.66755 96.02116 505.88357
v 150.34285 75.55040 505.88357
v 150.91614 77.42296 436.16403
v 84.24083 97.89373 436.16403
v 83.66755 96.02116 505.88357
v 150.34285 75.55040 505.88357
v 137.61324 99.68696 470.44379
v 156.52731 166.02457 470.44379
v 155.73481 166.24985 539.42018
v 136.82073 99.91223 539.42018
v 137.61324 99.68696 470.44379
v 156.52731 166.02457 470.44379
v 155.73481 166.24985 539.42018
v 136.82073 99.91223 539.42018
v 12.99559 126.80256 333.17280
v 59.56807 195.09058 333.17280
v 61.18409 193.99034 415.80710
v 14.61161 125.70232 415.80710
v 12.99559 126.80256 333.17280
v 59.56807 195.09058 333.17280
v 61.18409 193.99034 415.80710
v 14.61161 125.70232 415.80710
v 28.37571 151.72943 380.69400
v 58.85141 56.99588 380.69400
v 52.58837 54.97556 479.99106
v 22.11268 149.70911 479.99106
v 28.37571 151.72943 380.69400
v 58.85141 56.99588 380.69400
v 52.58837 54.97556 479.99106
v 22.11268 149.70911 479.99106
v 0.04768 101.05816 337.83366
v 86.91997 148.14707 337.83366
v 81.83181 157.51619 436.07058
v -5.04049 110.42728 436.07058
v 0.04768 101.05816 337.83366
v 86.91997 148.14707 337.83366
v 81.83181 157.51619 436.07058
v -5.04049 110.42728 436.07058
v 63.96113 73.64057 346.95585
v 81.96953 166.16680 346.95585
v 93.15305 163.99939 440.52740
v 75.14466 71.47316 440.52740
v 63.96113 73.64057 346.95585
v 81.96953 166.16680 346.95585
v 93.15305 163.99939 440.52740
v 75.14466 71.47316 440.52740
v 60.80351 131.52268 432.71749
v 16.17463 205.36101 432.71749
v 8.46730 200.69421 518.52340
v 53.09617 126.85588 518.52340
v 60.80351 131.52268 432.71749
v 16.17463 205.36101 432.71749
v 8.46730 200.69421 518.52340
v 53.09617 126.85588 518.52340
v 86.41305 100.88955 371.20059
v 5.57966 163.86367 371.20059
v 17.25863 178.87940 471.88775
v 98.09202 115.90529 471.88775
v 86.41305 100.88955 371.20059
v 5.57966 163.86367 371.20059
v 17.25863 178.87940 471.88775
v 98.09202 115.90529 471.88775
v 107.49843 103.05287 322.64313
v 94.20604 174.18570 322.64313
v 80.96725 171.70089 393.74255
v 94.25963 100.56806 393.74255
v 107.49843 103.05287 322.64313
v 94.20604 174.18570 322.64313
v 80.96725 171.70089 393.74255
v 94.25963 100.56806 393.74255
v 102.59166 73.10720 324.48532
v 72.44592 152.49769 324.48532
v 74.81369 153.39893 409.36876
v 104.95944 74.00843 409.36876
v 102.59166 73.10720 324.48532
v 72.44592 152.49769 324.48532
v 74.81369 153.39893 409.36876
v 104.95944 74.00843 409.36876
v 113.86198 121.34640 314.19983
v 41.64504 132.87190 314.19983
v 39.98466 122.41468 386.56013
v 112.20159 110.88918 386.56013
v 113.86198 121.34640 314.19983
v 41.64504 132.87190 314.19983
v 39.98466 122.41468 386.56013
v 112.20159 110.88918 386.56013
v 79.50630 158.39060 346.14987
v 148.32161 200.69102 346.14987
v 148.04873 201.13417 426.92488
v 79.23341 158.83375 426.92488
v 79.50630 158.39060 346.14987
v 148.32161 200.69102 346.14987
v 148.04873 201.13417 426.92488
v 79.23341 158.83375 426.92488
v 95.68360 227.24089 360.52776
v 80.61828 153.12401 360.52776
v 84.53896 152.33033 436.05441
v 99.60428 226.44721 436.05441
v 95.68360 227.24089 360.52776
v 80.61828 153.12401 360.52776
v 84.53896 152.33033 436.05441
v 99.60428 226.44721 436.05441
v 173.86027 204.51748 400.03933
v 161.20572 124.14214 400.03933
v 156.61425 124.86129 481.27193
v 169.26880 205.23663 481.27193
v 173.86027 204.51748 400.03933
v 161.20572 124.14214 400.03933
v 156.61425 124.86129 481.27193
v 169.26880 205.23663 481.27193
v 66.58253 -34.49859 377.66370
v 117.09747 -102.36410 377.66370
v 112.89009 -105.50103 462.10270
v 62.37515 -37.63552 462.10270
v 66.58253 -34.49859 377.66370
v 117.09747 -102.36410 377.66370
v 112.89009 -105.50103 462.10270
v 62.37515 -37.63552 462.10270
v 135.09783 -75.73029 364.41907
v 75.00329 -128.98246 364.41907
v 80.44570 -135.11432 444.29353
v 140.54024 -81.86216 444.29353
v 135.09783 -75.73029 364.41907
v 75.00329 -128.98246 364.41907
v 80.44570 -135.11432 444.29353
v 140.54024 -81.86216 444.29353
v 88.16068 -147.64420 430.48405
v 49.92579 -87.97978 430.48405
v 51.28469 -87.10743 501.32995
v 89.51958 -146.77184 501.32995
v 88.16068 -147.64420 430.48405
v 49.92579 -87.97978 430.48405
v 51.28469 -87.10743 501.32995
v 89.51958 -146.77184 501.32995
v 11.53213 -69.78327 464.48249
v 88.11068 -138.70210 464.48249
v 87.24437 -139.66623 567.49899
v 10.66582 -70.74741 567.49899
v 11.53213 -69.78327 464.48249
v 88.11068 -138.70210 464.48249
v 87.24437 -139.66623 567.49899
v 10.66582 -70.74741 567.49899
v 61.79741 -157.70612 428.33118
v 68.57122 -78.63956 428.33118
v 78.33760 -79.46844 507.07974
v 71.56379 -158.53499 507.07974
v 61.79741 -157.70612 428.33118
v 68.57122 -78.63956 428.33118
v 78.33760 -79.46844 507.07974
v 71.56379 -158.53499 507.07974
v 16.78153 -111.50412 403.86444
v 100.23121 -183.94216 403.86444
v 101.03279 -183.01724 514.36159
v 17.58311 -110.57920 514.36159
v 16.78153 -111.50412 403.86444
v 100.23121 -183.94216 403.86444
v 101.03279 -183.01724 514.36159
v 17.58311 -110.57920 514.36159
v 52.63076 -135.66912 383.33739
v 90.10908 -47.00360 383.33739
v 95.71541 -49.36809 479.40600
v 58.23708 -138.03361 479.40600
v 52.63076 -135.66912 383.33739
v 90.10908 -47.00360 383.33739
v 95.71541 -49.36809 479.40600
v 58.23708 -138.03361 479.40600
v 121.72164 -50.48005 392.93985
v 81.61909 -111.34596 392.93985
v 78.01218 -108.97361 465.70135
v 118.11474 -48.10770 465.70135
v 121.72164 -50.48005 392.93985
v 81.61909 -111.34596 392.93985
v 78.01218 -108.97361 465.70135
v 118.11474 -48.10770 465.70135
v 130.18159 -162.02933 315.23149
v 97.89629 -54.58579 315.23149
v 85.64035 -58.27917 426.68823
v 117.92565 -165.72271 426.68823
v 130.18159 -162.02933 315.23149
v 97.89629 -54.58579 315.23149
v 85.64035 -58.27917 426.68823
v 117.92565 -165.72271 426.68823
v 182.09797 -89.65435 368.87624
v 108.45865 -102.50289 368.87624
v 107.78845 -98.67975 443.52723
v 181.42778 -85.83121 443.52723
v 182.09797 -89.65435 368.87624
v 108.45865 -102.50289 368.87624
v 107.78845 -98.67975 443.52723
v 181.42778 -85.83121 443.52723
v 73.85209 -189.46708 362.93129
v 147.18331 -187.47254 362.93129
v 147.11101 -184.89004 436.24412
v 73.77979 -186.88459 436.24412
v 73.85209 -189.46708 362.93129
v 147.18331 -187.47254 362.93129
v 147.11101 -184.89004 436.24412
v 73.77979 -186.88459 436.24412
v 129.04963 -176.11196 396.80551
v 209.43782 -121.81790 396.80551
v 206.26133 -117.12283 493.64544
v 125.87314 -171.41688 493.64544
v 129.04963 -176.11196 396.80551
v 209.43782 -121.81790 396.80551
v 206.26133 -117.12283 493.64544
v 125.87314 -171.41688 493.64544
v 103.42847 -66.75117 331.27586
v 89.05637 -141.99313 331.27586
v 75.61776 -139.43729 406.64682
v 89.98986 -64.19532 406.64682
v 103.42847 -66.75117 331.27586
v 89.05637 -141.99313 331.27586
v 75.61776 -139.43729 406.64682
v 89.98986 -64.19532 406.64682
v 83.01958 -77.85588 335.58516
v 19.07385 -27.52784 335.58516
v 14.52376 -33.31858 416.62670
v 78.46948 -83.64662 416.62670
v 83.01958 -77.85588 335.58516
v 19.07385 -27.52784 335.58516
v 14.52376 -33.31858 416.62670
v 78.46948 -83.64662 416.62670
v 37.10195 -100.13731 412.70065
v 91.36894 -147.22943 412.70065
v 92.64521 -145.75634 484.52527
v 38.37822 -98.66422 484.52527
v 37.10195 -100.13731 412.70065
v 91.36894 -147.22943 412.70065
v 92.64521 -145.75634 484.52527
v 38.37822 -98.66422 484.52527
v 28.45724 -126.58108 348.93507
v 60.40369 -34.02044 348.93507
v 59.65007 -33.76100 446.85041
v 27.70362 -126.32165 446.85041
v 28.45724 -126.58108 348.93507
v 60.40369 -34.02044 348.93507
v 59.65007 -33.76100 446.85041
v 27.70362 -126.32165 446.85041
v 30.07751 -73.42517 450.41540
v 45.69744 -161.81947 450.41540
v 42.12887 -162.45300 540.10598
v 26.50894 -74.05869 540.10598
v 30.07751 -73.42517 450.41540
v 45.69744 -161.81947 450.41540
v 42.12887 -162.45300 540.10598
v 26.50894 -74.05869 540.10598
v -10.31628 -91.99258 373.10637
v 17.90819 -192.52883 373.10637
v 24.08510 -190.78942 477.33198
v -4.13937 -90.25317 477.33198
v -10.31628 -91.99258 373.10637
v 17.90819 -192.52883 373.10637
v 24.08510 -190.78942 477.33198
v -4.13937 -90.25317 477.33198
v 52.30358 125.12174 317.06285
v -4.61328 182.13140 317.06285
v -7.11150 179.63327 397.54358
v 49.80536 122.62361 397.54358
v 52.30358 125.12174 317.06285
v -4.61328 182.13140 317.06285
v -7.11150 179.63327 397.54358
v 49.80536 122.62361 397.54358
v 127.70362 120.50323 282.18333
v 66.97444 44.62291 282.18333
v 59.84273 50.32131 378.94346
v 120.57190 126.20163 378.94346
v 127.70362 120.50323 282.18333
v 66.97444 44.62291 282.18333
v 59.84273 50.32131 378.94346
v 120.57190 126.20163 378.94346
v 26.10636 46.12781 436.59191
v 42.40594 -22.50572 436.59191
v 46.55184 -21.51764 507.00549
v 30.25225 47.11589 507.00549
v 26.10636 46.12781 436.59191
v 42.40594 -22.50572 436.59191
v 46.55184 -21.51764 507.00549
v 30.25225 47.11589 507.00549
v -3.01057 0.36717 457.20934
v 101.73130 -29.27660 457.20934
v 99.25991 -38.03552 565.68416
v -5.48197 -8.39175 565.68416
v -3.01057 0.36717 457.20934
v 101.73130 -29.27660 457.20934
v 99.25991 -38.03552 565.68416
v -5.48197 -8.39175 565.68416
v 33.93734 -0.54649 308.56399
v 79.47161 92.09993 308.56399
v 90.54389 86.66901 411.05613
v 45.00962 -5.97740 411.05613
v 33.93734 -0.54649 308.56399
v 79.47161 92.09993 308.56399
v 90.54389 86.66901 411.05613
v 45.00962 -5.97740 411.05613
v 61.41369 97.61613 276.22509
v 78.81834 -1.06074 276.22509
v 64.40652 -3.61454 375.35039
v 47.00187 95.06233 375.35039
v 61.41369 97.61613 276.22509
v 78.81834 -1.06074 276.22509
v 64.40652 -3.61454 375.35039
v 47.00187 95.06233 375.35039
v 15.96922 127.48866 329.79736
v -9.10490 25.04171 329.79736
v -9.67644 25.18111 435.26652
v 15.39768 127.62806 435.26652
v 15.96922 127.48866 329.79736
v -9.10490 25.04171 329.79736
v -9.67644 25.18111 435.26652
v 15.39768 127.62806 435.26652
v -30.02912 99.58219 303.21397
v 24.53391 160.23590 303.21397
v 33.20323 152.44961 383.96181
v -21.35981 91.79591 383.96181
v -30.02912 99.58219 303.21397
v 24.53391 160.23590 303.21397
v 33.20323 152.44961 383.96181
v -21.35981 91.79591 383.96181
v 29.69690 -151.70874 336.61671
v 34.70586 -49.60008 336.61671
v 21.39987 -48.95797 437.97650
v 16.39091 -151.06664 437.97650
v 29.69690 -151.70874 336.61671
v 34.70586 -49.60008 336.61671
v 21.39987 -48.95797 437.97650
v 16.39091 -151.06664 437.97650
v -63.10126 -53.07761 398.03337
v 31.29352 -50.43205 398.03337
v 31.75046 -66.28505 491.12391
v -62.64432 -68.93061 491.12391
v -63.10126 -53.07761 398.03337
v 31.29352 -50.43205 398.03337
v 31.75046 -66.28505 491.12391
v -62.64432 -68.93061 491.12391
v -23.24517 118.29820 385.93317
v -20.55442 35.00181 385.93317
v -35.13531 34.51918 467.98616
v -37.82606 117.81557 467.98616
v -23.24517 118.29820 385.93317
v -20.55442 35.00181 385.93317
v -35.13531 34.51918 467.98616
v -37.82606 117.81557 467.98616
v -15.13957 86.68869 359.01155
v 68.07791 31.10005 359.01155
v 65.56695 27.33460 458.98536
v -17.65053 82.92324 458.98536
v -15.13957 86.68869 359.01155
v 68.07791 31.10005 359.01155
v 65.56695 27.33460 458.98536
v -17.65053 82.92324 458.98536
v 67.92999 -21.03785 419.54727
v 48.50195 76.95271 419.54727
v 58.70944 78.98494 518.90157
v 78.13749 -19.00562 518.90157
v 67.92999 -21.03785 419.54727
v 48.50195 76.95271 419.54727
v 58.70944 78.98494 518.90157
v 78.13749 -19.00562 518.90157
v -26.83274 67.12402 352.94812
v 54.52380 45.54696 352.94812
v 53.32917 41.02807 436.98745
v -28.02738 62.60513 436.98745
v -26.83274 67.12402 352.94812
v 54.52380 45.54696 352.94812
v 53.32917 41.02807 436.98745
v -28.02738 62.60513 436.98745
v -48.13087 9.33403 241.88344
v 23.84921 -15.13633 241.88344
v 27.08591 -5.59057 317.23816
v -44.89417 18.87980 317.23816
v -48.13087 9.33403 241.88344
v 23.84921 -15.13633 241.88344
v 27.08591 -5.59057 317.23816
v -44.89417 18.87980 317.23816
v -56.58377 -30.76212 261.00392
v -45.32562 75.76993 261.00392
v -49.58152 76.21626 368.04369
v -60.83967 -30.31579 368.04369
v -56.58377 -30.76212 261.00392
v -45.32562 75.76993 261.00392
v -49.58152 76.21626 368.04369
v -60.83967 -30.31579 368.04369
v -0.20376 -76.30762 387.62978
v -19.12665 18.11617 387.62978
v -2.69439 21.42288 482.46108
v 16.22850 -73.00092 482.46108
v -0.20376 -76.30762 387.62978
v -19.12665 18.11617 387.62978
v -2.69439 21.42288 482.46108
v 16.22850 -73.00092 482.46108
v 7.42768 -68.51487 356.81980
v 66.29020 -103.85708 356.81980
v 72.77986 -93.02901 424.30687
v 13.91734 -57.68681 424.30687
v 7.42768 -68.51487 356.81980
v 66.29020 -103.85708 356.81980
v 72.77986 -93.02901 424.30687
v 13.91734 -57.68681 424.30687
v 48.37237 -1.37836 333.36530
v -4.47232 -49.24803 333.36530
v 4.33410 -58.95415 403.45314
v 57.17879 -11.08447 403.45314
v 48.37237 -1.37836 333.36530
v -4.47232 -49.24803 333.36530
v 4.33410 -58.95415 403.45314
v 57.17879 -11.08447 403.45314
v -7.76147 -48.78364 299.78616
v 22.90174 40.30057 299.78616
v 8.63723 45.19779 392.78492
v -22.02599 -43.88642 392.78492
v -7.76147 -48.78364 299.78616
v 22.90174 40.30057 299.78616
v 8.63723 45.19779 392.78492
v -22.02599 -43.88642 392.78492
v 89.74255 14.10800 389.86118
v 35.20686 73.18525 389.86118
v 43.12574 80.50705 469.53518
v 97.66143 21.42980 469.53518
v 89.74255 14.10800 389.86118
v 35.20686 73.18525 389.86118
v 43.12574 80.50705 469.53518
v 97.66143 21.42980 469.53518
v 14.07636 63.51509 390.84963
v 65.83115 13.85920 390.84963
v 60.11740 7.89444 462.09597
v 8.36261 57.55033 462.09597
v 14.07636 63.51509 390.84963
v 65.83115 13.85920 390.84963
v 60.11740 7.89444 462.09597
v 8.36261 57.55033 462.09597
v 119.13867 117.48669 421.89349
v 118.37076 14.04221 421.89349
v 121.97791 14.01830 525.27791
v 122.74582 117.46278 525.27791
v 119.13867 117.48669 421.89349
v 118.37076 14.04221 421.89349
v 121.97791 14.01830 525.27791
v 122.74582 117.46278 525.27791
v 97.31986 124.15807 404.25030
v 34.32984 53.98439 404.25030
v 31.50632 56.51480 498.47192
v 94.49635 126.68848 498.47192
v 97.31986 124.15807 404.25030
v 34.32984 53.98439 404.25030
v 31.50632 56.51480 498.47192
v 94.49635 126.68848 498.47192
v 51.26357 6.09323 422.99836
v -32.22828 -23.44451 422.99836
v -29.09567 -32.27682 511.06392
v 54.39618 -2.73908 511.06392
v 51.26357 6.09323 422.99836
v -32.22828 -23.44451 422.99836
v -29.09567 -32.27682 511.06392
v 54.39618 -2.73908 511.06392
v 38.27297 -35.18046 485.66555
v -60.60841 -30.52186 485.66555
v -59.75693 -12.13718 582.93070
v 39.12446 -16.79578 582.93070
v 38.27297 -35.18046 485.66555
v -60.60841 -30.52186 485.66555
v -59.75693 -12.13718 582.93070
v 39.12446 -16.79578 582.93070
v -14.54162 -76.15105 350.10060
v 42.07947 -34.69466 350.10060
v 35.60822 -25.87099 419.41759
v -21.01287 -67.32737 419.41759
v -14.54162 -76.15105 350.10060
v 42.07947 -34.69466 350.10060
v 35.60822 -25.87099 419.41759
v -21.01287 -67.32737 419.41759
v 26.75200 -36.02985 333.64216
v 1.61723 -131.04283 333.64216
v 1.61481 -131.04219 431.92350
v 26.74958 -36.02922 431.92350
v 26.75200 -36.02985 333.64216
v 1.61723 -131.04283 333.64216
v 1.61481 -131.04219 431.92350
v 26.74958 -36.02922 431.92350
v -12.18439 136.17134 420.63222
v 68.97557 59.50927 420.63222
v 69.27205 59.82364 532.27373
v -11.88791 136.48571 532.27373
v -12.18439 136.17134 420.63222
v 68.97557 59.50927 420.63222
v 69.27205 59.82364 532.27373
v -11.88791 136.48571 532.27373
v -35.75593 97.30559 407.15942
v 54.05914 88.57436 407.15942
v 55.49090 103.42517 496.15596
v -34.32417 112.15639 496.15596
v -35.75593 97.30559 407.15942
v 54.05914 88.57436 407.15942
v 55.49090 103.42517 496.15596
v -34.32417 112.15639 496.15596
v 0.43500 132.12578 267.15840
v 11.78740 56.23398 267.15840
v 7.13042 55.53357 343.74995
v -4.22198 131.42537 343.74995
v 0.43500 132.12578 267.15840
v 11.78740 56.23398 267.15840
v 7.13042 55.53357 343.74995
v -4.22198 131.42537 343.74995
v -77.87250 86.47766 277.01786
v -13.66866 1.00111 277.01786
v -29.43977 -10.86468 382.08379
v -93.64362 74.61187 382.08379
v -77.87250 86.47766 277.01786
v -13.66866 1.00111 277.01786
v -29.43977 -10.86468 382.08379
v -93.64362 74.61187 382.08379
v 71.30314 -8.87065 350.38092
v 6.78957 52.98803 350.38092
v 18.17215 64.87807 438.23058
v 82.68572 3.01939 438.23058
v 71.30314 -8.87065 350.38092
v 6.78957 52.98803 350.38092
v 18.17215 64.87807 438.23058
v 82.68572 3.01939 438.23058
v 5.37866 28.26966 302.24803
v 89.45918 64.81141 302.24803
v 89.16802 65.47990 393.92301
v 5.08750 28.93815 393.92301
v 5.37866 28.26966 302.24803
v 89.45918 64.81141 302.24803
v 89.16802 65.47990 393.92301
v 5.08750 28.93815 393.92301
v 132.85804 72.53066 396.29131
v 51.53123 20.81906 396.29131
v 44.83579 31.33047 491.85711
v 126.16261 83.04207 491.85711
v 132.85804 72.53066 396.29131
v 51.53123 20.81906 396.29131
v 44.83579 31.33047 491.85711
v 126.16261 83.04207 491.85711
v 41.61931 64.18868 350.99165
v 142.41557 110.20186 350.99165
v 141.13390 113.00359 461.75088
v 40.33763 66.99041 461.75088
v 41.61931 64.18868 350.99165
v 142.41557 110.20186 350.99165
v 141.13390 113.00359 461.75088
v 40.33763 66.99041 461.75088
v -32.28546 10.42219 408.36385
v -106.09354 22.43189 408.36385
v -105.89421 23.66315 483.13222
v -32.08612 11.65345 483.13222
v -32.28546 10.42219 408.36385
v -106.09354 22.43189 408.36385
v -105.89421 23.66315 483.13222
v -32.08612 11.65345 483.13222
v -60.66045 0.88670 366.04669
v 22.08937 36.13929 366.04669
v 18.51249 44.51691 455.53019
v -64.23732 9.26433 455.53019
v -60.66045 0.88670 366.04669
v 22.08937 36.13929 366.04669
v 18.51249 44.51691 455.53019
v -64.23732 9.26433 455.53019
v 10.40781 71.44754 417.40055
v -65.35407 71.35605 417.40055
v -65.33747 63.07367 492.70840
v 10.42441 63.16515 492.70840
v 10.40781 71.44754 417.40055
v -65.35407 71.35605 417.40055
v -65.33747 63.07367 492.70840
v 10.42441 63.16515 492.70840
v 5.37068 5.60297 370.89931
v -47.47841 53.86330 370.89931
v -48.87465 52.33185 442.43804
v 3.97443 4.07152 442.43804
v 5.37068 5.60297 370.89931
v -47.47841 53.86330 370.89931
v -48.87465 52.33185 442.43804
v 3.97443 4.07152 442.43804
v 71.06374 119.57730 376.05952
v -2.79580 104.20265 376.05952
v -2.55701 103.06009 451.49325
v 71.30252 118.43474 451.49325
v 71.06374 119.57730 376.05952
v -2.79580 104.20265 376.05952
v -2.55701 103.06009 451.49325
v 71.30252 118.43474 451.49325
v 89.55302 169.28799 371.56728
v 75.49511 59.41033 371.56728
v 63.79985 60.89718 481.71143
v 77.85776 170.77484 481.71143
v 89.55302 169.28799 371.56728
v 75.49511 59.41033 371.56728
v 63.79985 60.89718 481.71143
v 77.85776 170.77484 481.71143
v 26.53903 64.68510 226.50568
v 103.57181 25.89417 226.50568
v 99.50152 17.79515 312.27644
v 22.46874 56.58608 312.27644
v 26.53903 64.68510 226.50568
v 103.57181 25.89417 226.50568
v 99.50152 17.79515 312.27644
v 22.46874 56.58608 312.27644
v 129.02155 10.25191 269.88604
v 52.45047 83.76174 269.88604
v 42.73370 73.62418 375.09839
v 119.30477 0.11435 375.09839
v 129.02155 10.25191 269.88604
v 52.45047 83.76174 269.88604
v 42.73370 73.62418 375.09839
v 119.30477 0.11435 375.09839
v -14.39689 -41.81066 378.11248
v -73.69691 43.66763 378.11248
v -75.53447 42.39066 482.12220
v -16.23446 -43.08762 482.12220
v -14.39689 -41.81066 378.11248
v -73.69691 43.66763 378.11248
v -75.53447 42.39066 482.12220
v -16.23446 -43.08762 482.12220
v -0.05189 30.68019 428.71127
v -16.21933 -40.20826 428.71127
v -3.20922 -43.16456 500.18543
v 12.95823 27.72388 500.18543
v -0.05189 30.68019 428.71127
v -16.21933 -40.20826 428.71127
v -3.20922 -43.16456 500.18543
v 12.95823 27.72388 500.18543
v 85.75371 129.04025 366.00527
v 14.91604 126.81869 366.00527
v 14.91363 126.89354 436.87773
v 85.75130 129.11511 436.87773
v 85.75371 129.04025 366.00527
v 14.91604 126.81869 366.00527
v 14.91363 126.89354 436.87773
v 85.75130 129.11511 436.87773
v 123.77990 38.15236 336.88516
v 48.99283 100.35792 336.88516
v 56.75230 109.70192 433.40002
v 131.53937 47.49636 433.40002
v 123.77990 38.15236 336.88516
v 48.99283 100.35792 336.88516
v 56.75230 109.70192 433.40002
v 131.53937 47.49636 433.40002
v 13.44205 -40.32512 321.50701
v 19.24565 50.96075 321.50701
v 17.67379 51.05943 412.96363
v 11.87019 -40.22645 412.96363
v 13.44205 -40.32512 321.50701
v 19.24565 50.96075 321.50701
v 17.67379 51.05943 412.96363
v 11.87019 -40.22645 412.96363
v 73.12312 2.07641 337.12663
v -29.51424 32.16045 337.12663
v -25.01582 47.55304 442.87306
v 77.62153 17.46900 442.87306
v 73.12312 2.07641 337.12663
v -29.51424 32.16045 337.12663
v -25.01582 47.55304 442.87306
v 77.62153 17.46900 442.87306
v 28.80613 18.51219 323.85354
v 100.72547 -29.59551 323.85354
v 100.57766 -29.81685 410.37908
v 28.65833 18.29084 410.37908
v 28.80613 18.51219 323.85354
v 100.72547 -29.59551 323.85354
v 100.57766 -29.81685 410.37908
v 28.65833 18.29084 410.37908
v 43.13976 92.21418 360.74775
v 27.90163 21.39786 360.74775
v 16.08804 23.93005 432.17029
v 31.32617 94.74637 432.17029
v 43.13976 92.21418 360.74775
v 27.90163 21.39786 360.74775
v 16.08804 23.93005 432.17029
v 31.32617 94.74637 432.17029
v 10.71120 -39.56156 505.16034
v 0.61841 56.80199 505.16034
v -4.55569 56.25591 601.91119
v 5.53709 -40.10764 601.91119
v 10.71120 -39.56156 505.16034
v 0.61841 56.80199 505.16034
v -4.55569 56.25591 601.91119
v 5.53709 -40.10764 601.91119
v 52.13823 45.12751 444.05859
v -51.77976 67.37199 444.05859
v -51.50859 68.64370 550.32276
v 52.40939 46.39922 550.32276
v 52.13823 45.12751 444.05859
v -51.77976 67.37199 444.05859
v -51.50859 68.64370 550.32276
v 52.40939 46.39922 550.32276
v 34.53006 0.79987 374.00650
v 32.95977 91.22757 374.00650
v 42.79150 91.40614 463.91167
v 44.36179 0.97843 463.91167
v 34.53006 0.79987 374.00650
v 32.95977 91.22757 374.00650
v 42.79150 91.40614 463.91167
v 44.36179 0.97843 463.91167
v -46.74731 34.54058 386.30653
v 41.45040 89.75930 386.30653
v 50.51712 75.30316 488.95524
v -37.68059 20.08444 488.95524
v -46.74731 34.54058 386.30653
v 41.45040 89.75930 386.30653
v 50.51712 75.30316 488.95524
v -37.68059 20.08444 488.95524
v 2.13618 -54.54093 353.15560
v 4.25405 37.22914 353.15560
v 9.40755 37.11432 444.80526
v 7.28968 -54.65575 444.80526
v 2.13618 -54.54093 353.15560
v 4.25405 37.22914 353.15560
v 9.40755 37.11432 444.80526
v 7.28968 -54.65575 444.80526
v -57.28987 22.44691 406.98065
v -5.08817 -42.78819 406.98065
v -2.84815 -40.99279 490.48152
v -55.04985 24.24232 490.48152
v -57.28987 22.44691 406.98065
v -5.08817 -42.78819 406.98065
v -2.84815 -40.99279 490.48152
v -55.04985 24.24232 490.48152
v 27.31940 -34.29687 413.48482
v 45.39080 -108.99589 413.48482
v 42.46707 -109.70568 490.27979
v 24.39567 -35.00665 490.27979
v 27.31940 -34.29687 413.48482
v 45.39080 -108.99589 413.48482
v 42.46707 -109.70568 490.27979
v 24.39567 -35.00665 490.27979
v 63.96699 -92.75793 409.61682
v 144.85803 -91.66513 409.61682
v 144.68837 -79.80574 489.64108
v 63.79733 -80.89854 489.64108
v 63.96699 -92.75793 409.61682
v 144.85803 -91.66513 409.61682
v 144.68837 -79.80574 489.64108
v 63.79733 -80.89854 489.64108
v 11.88862 -66.17847 334.06119
v 92.68957 -102.79501 334.06119
v 90.48039 -107.68030 422.60959
v 9.67944 -71.06376 422.60959
v 11.88862 -66.17847 334.06119
v 92.68957 -102.79501 334.06119
v 90.48039 -107.68030 422.60959
v 9.67944 -71.06376 422.60959
v 31.31500 -0.05042 328.01725
v 91.35943 -46.35790 328.01725
v 92.51304 -44.85960 403.82055
v 32.46861 1.44787 403.82055
v 31.31500 -0.05042 328.01725
v 91.35943 -46.35790 328.01725
v 92.51304 -44.85960 403.82055
v 32.46861 1.44787 403.82055
vt 0.00000 1.00000
vt 1.00000 1.00000
vt 1.00000 0.00000
vt 0.00000 0.00000
vt 0.00000 1.00000
vt 1.00000 1.00000
vt 1.00000 0.00000
vt 0.00000 0.00000
vt 0.00000 1.00000
vt 1.00000 1.00000
vt 1.00000 0.00000
vt 0.00000 0.00000
vt 0.00000 1.00000
vt 1.00000 1.00000
vt 1.00000 0.00000
vt 0.00000 0.00000
vt 0.00000 1.00000
vt 1.00000 1.00000
vt 1.00000 0.00000
vt 0.00000 0.00000
vt 0.00000 1.00000
vt 1.00000 1.00000
vt 1.00000 0.00000
vt 0.00000 0.00000
vt 0.00000 1.00000
vt 1.00000 1.00000
vt 1.00000 0.00000
vt 0.00000 0.00000
vt 0.00000 1.00000
vt 1.00000 1.00000
vt 1.00000 0.00000
vt 0.00000 0.00000
vt 0.00000 1.00000
vt 1.00000 1.00000
vt 1.00000 0.00000
vt 0.00000 0.00000
vt 0.00000 1.00000
vt 1.00000 1.00000
vt 1.00000 0.00000
vt 0.00000 0.00000
vt 0.00000 1.00000
vt 1.00000 1.00000
vt 1.00000 0.00000
vt 0.00000 0.00000
vt 0.00000 1.00000
vt 1.00000 1.00000
vt 1.00000 0.00000
vt 0.00000 0.00000
vt 0.00000 1.00000
vt 1.00000 1.00000
vt 1.00000 0.00000
vt 0.00000 0.00000
vt 0.00000 1.00000
vt 1.00000 1.00000
vt 1.00000 0.00000
vt 0.00000 0.00000
vt 0.00000 1.00000
vt 1.00000 1.00000
vt 1.00000 0.00000
vt 0.00000 0.00000
vt 0.00000 1.00000
vt 1.00000 1.00000
vt 1.00000 0.00000
vt 0.00000 0.00000
vt 0.00000 1.00000
vt 1.00000 1.00000
vt 1.00000 0.00000
vt 0.00000 0.00000
vt 0.00000 1.00000
vt 1.00000 1.00000
vt 1.00000 0.00000
vt 0.00000 0.00000
vt 0.00000 1.00000
vt 1.00000 1.00000
vt 1.00000 0.00000
vt 0.00000 0.00000
vt 0.00000 1.00000
vt 1.00000 1.00000
vt 1.00000 0.00000
vt 0.00000 0.00000
vt 0.00000 1.00000
vt 1.00000 1.00000
vt 1.00000 0.00000
vt 0.00000 0.00000
vt 0.00000 1.00000
vt 1.00000 1.00000
vt 1.00000 0.00000
vt 0.00000 0.00000
vt 0.00000 1.00000
vt 1.00000 1.00000
vt 1.00000 0.00000
vt 0.00000 0.00000
vt 0.00000 1.00000
vt 1.00000 1.00000
vt 1.00000 0.00000
vt 0.00000 0.00000
vt 0.00000 1.00000
vt 1.00000 1.00000
vt 1.00000 0.00000
vt 0.00000 0.00000
vt 0.00000 1.00000
vt 1.00000 1.00000
vt 1.00000 0.00000
vt 0.00000 0.00000
vt 0.00000 1.00000
vt 1.00000 1.00000
vt 1.00000 0.00000
vt 0.00000 0.00000
vt 0.00000 1.00000
vt 1.00000 1.00000
vt 1.00000 0.00000
vt 0.00000 0.00000
vt 0.00000 1.00000
vt 1.00000 1.00000
vt 1.00000 0.00000
vt 0.00000 0.00000
vt 0.00000 1.00000
vt 1.00000 1.00000
vt 1.00000 0.00000
vt 0.00000 0.00000
vt 0.00000 1.00000
vt 1.00000 1.00000
vt 1.00000 0.00000
vt 0.00000 0.00000
vt 0.00000 1.00000
vt 1.00000 1.00000
vt 1.00000 0.00000
vt 0.00000 0.00000
vt 0.00000 1.00000
vt 1.00000 1.00000
vt 1.00000 0.00000
vt 0.00000 0.00000
vt 0.00000 1.00000
vt 1.00000 1.00000
vt 1.00000 0.00000
vt 0.00000 0.00000
vt 0.00000 1.00000
vt 1.00000 1.00000
vt 1.00000 0.00000
vt 0.00000 0.00000
vt 0.00000 1.00000
vt 1.00000 1.00000
vt 1.00000 0.00000
vt 0.00000 0.00000
vt 0.00000 1.00000
vt 1.00000 1.00000
vt 1.00000 0.00000
vt 0.00000 0.00000
vt 0.00000 1.00000
vt 1.00000 1.00000
vt 1.00000 0.00000
vt 0.00000 0.00000
vt 0.00000 1.00000
vt 1.00000 1.00000
vt 1.00000 0.00000
vt 0.00000 0.00000
vt 0.00000 1.00000
vt 1.00000 1.00000
vt 1.00000 0.00000
vt 0.00000 0.00000
vt 0.00000 1.00000
vt 1.00000 1.00000
vt 1.00000 0.00000
vt 0.00000 0.00000
vt 0.00000 1.00000
vt 1.00000 1.00000
vt 1.00000 0.00000
vt 0.00000 0.00000
vt 0.00000 1.00000
vt 1.00000 1.00000
vt 1.00000 0.00000
vt 0.00000 0.00000
vt 0.00000 1.00000
vt 1.00000 1.00000
vt 1.00000 0.00000
vt 0.00000 0.00000
vt 0.00000 1.00000
vt 1.00000 1.00000
vt 1.00000 0.00000
vt 0.00000 0.00000
vt 0.00000 1.00000
vt 1.00000 1.00000
vt 1.00000 0.00000
vt 0.00000 0.00000
vt 0.00000 1.00000
vt 1.00000 1.00000
vt 1.00000 0.00000
vt 0.00000 0.00000
vt 0.00000 1.00000
vt 1.00000 1.00000
vt 1.00000 0.00000
vt 0.00000 0.00000
vt 0.00000 1.00000
vt 1.00000 1.00000
vt 1.00000 0.00000
vt 0.00000 0.00000
vt 0.00000 1.00000
vt 1.00000 1.00000
vt 1.00000 0.00000
vt 0.00000 0.00000
vt 0.00000 1.00000
vt 1.00000 1.00000
vt 1.00000 0.00000
vt 0.00000 0.00000
vt 0.00000 1.00000
vt 1.00000 1.00000
vt 1.00000 0.00000
vt 0.00000 0.00000
vt 0.00000 1.00000
vt 1.00000 1.00000
vt 1.00000 0.00000
vt 0.00000 0.00000
vt 0.00000 1.00000
vt 1.00000 1.00000
vt 1.00000 0.00000
vt 0.00000 0.00000
vt 0.00000 1.00000
vt 1.00000 1.00000
vt 1.00000 0.00000
vt 0.00000 0.00000
vt 0.00000 1.00000
vt 1.00000 1.00000
vt 1.00000 0.00000
vt 0.00000 0.00000
vt 0.00000 1.00000
vt 1.00000 1.00000
vt 1.00000 0.00000
vt 0.00000 0.00000
vt 0.00000 1.00000
vt 1.00000 1.00000
vt 1.00000 0.00000
vt 0.00000 0.00000
vt 0.00000 1.00000
vt 1.00000 1.00000
vt 1.00000 0.00000
vt 0.00000 0.00000
vt 0.00000 1.00000
vt 1.00000 1.00000
vt 1.00000 0.00000
vt 0.00000 0.00000
vt 0.00000 1.00000
vt 1.00000 1.00000
vt 1.00000 0.00000
vt 0.00000 0.00000
vt 0.00000 1.00000
vt 1.00000 1.00000
vt 1.00000 0.00000
vt 0.00000 0.00000
vt 0.00000 1.00000
vt 1.00000 1.00000
vt 1.00000 0.00000
vt 0.00000 0.00000
vt 0.00000 1.00000
vt 1.00000 1.00000
vt 1.00000 0.00000
vt 0.00000 0.00000
vt 0.00000 1.00000
vt 1.00000 1.00000
vt 1.00000 0.00000
vt 0.00000 0.00000
vt 0.00000 1.00000
vt 1.00000 1.00000
vt 1.00000 0.00000
vt 0.00000 0.00000
vt 0.00000 1.00000
vt 1.00000 1.00000
vt 1.00000 0.00000
vt 0.00000 0.00000
vt 0.00000 1.00000
vt 1.00000 1.00000
vt 1.00000 0.00000
vt 0.00000 0.00000
vt 0.00000 1.00000
vt 1.00000 1.00000
vt 1.00000 0.00000
vt 0.00000 0.00000
vt 0.00000 1.00000
vt 1.00000 1.00000
vt 1.00000 0.00000
vt 0.00000 0.00000
vt 0.00000 1.00000
vt 1.00000 1.00000
vt 1.00000 0.00000
vt 0.00000 0.00000
vt 0.00000 1.00000
vt 1.00000 1.00000
vt 1.00000 0.00000
vt 0.00000 0.00000
vt 0.00000 1.00000
vt 1.00000 1.00000
vt 1.00000 0.00000
vt 0.00000 0.00000
vt 0.00000 1.00000
vt 1.00000 1.00000
vt 1.00000 0.00000
vt 0.00000 0.00000
vt 0.00000 1.00000
vt 1.00000 1.00000
vt 1.00000 0.00000
vt 0.00000 0.00000
vt 0.00000 1.00000
vt 1.00000 1.00000
vt 1.00000 0.00000
vt 0.00000 0.00000
vt 0.00000 1.00000
vt 1.00000 1.00000
vt 1.00000 0.00000
vt 0.00000 0.00000
vt 0.00000 1.00000
vt 1.00000 1.00000
vt 1.00000 0.00000
vt 0.00000 0.00000
vt 0.00000 1.00000
vt 1.00000 1.00000
vt 1.00000 0.00000
vt 0.00000 0.00000
vt 0.00000 1.00000
vt 1.00000 1.00000
vt 1.00000 0.00000
vt 0.00000 0.00000
vt 0.00000 1.00000
vt 1.00000 1.00000
vt 1.00000 0.00000
vt 0.00000 0.00000
vt 0.00000 1.00000
vt 1.00000 1.00000
vt 1.00000 0.00000
vt 0.00000 0.00000
vt 0.00000 1.00000
vt 1.00000 1.00000
vt 1.00000 0.00000
vt 0.00000 0.00000
vt 0.00000 1.00000
vt 1.00000 1.00000
vt 1.00000 0.00000
vt 0.00000 0.00000
vt 0.00000 1.00000
vt 1.00000 1.00000
vt 1.00000 0.00000
vt 0.00000 0.00000
vt 0.00000 1.00000
vt 1.00000 1.00000
vt 1.00000 0.00000
vt 0.00000 0.00000
vt 0.00000 1.00000
vt 1.00000 1.00000
vt 1.00000 0.00000
vt 0.00000 0.00000
vt 0.00000 1.00000
vt 1.00000 1.00000
vt 1.00000 0.00000
vt 0.00000 0.00000
vt 0.00000 1.00000
vt 1.00000 1.00000
vt 1.00000 0.00000
vt 0.00000 0.00000
vt 0.00000 1.00000
vt 1.00000 1.00000
vt 1.00000 0.00000
vt 0.00000 0.00000
vt 0.00000 1.00000
vt 1.00000 1.00000
vt 1.00000 0.00000
vt 0.00000 0.00000
vt 0.00000 1.00000
vt 1.00000 1.00000
vt 1.00000 0.00000
vt 0.00000 0.00000
vt 0.00000 1.00000
vt 1.00000 1.00000
vt 1.00000 0.00000
vt 0.00000 0.00000
vt 0.00000 1.00000
vt 1.00000 1.00000
vt 1.00000 0.00000
vt 0.00000 0.00000
vt 0.00000 1.00000
vt 1.00000 1.00000
vt 1.00000 0.00000
vt 0.00000 0.00000
vt 0.00000 1.00000
vt 1.00000 1.00000
vt 1.00000 0.00000
vt 0.00000 0.00000
vt 0.00000 1.00000
vt 1.00000 1.00000
vt 1.00000 0.00000
vt 0.00000 0.00000
vt 0.00000 1.00000
vt 1.00000 1.00000
vt 1.00000 0.00000
vt 0.00000 0.00000
vt 0.00000 1.00000
vt 1.00000 1.00000
vt 1.00000 0.00000
vt 0.00000 0.00000
vt 0.00000 1.00000
vt 1.00000 1.00000
vt 1.00000 0.00000
vt 0.00000 0.00000
vt 0.00000 1.00000
vt 1.00000 1.00000
vt 1.00000 0.00000
vt 0.00000 0.00000
vt 0.00000 1.00000
vt 1.00000 1.00000
vt 1.00000 0.00000
vt 0.00000 0.00000
vt 0.00000 1.00000
vt 1.00000 1.00000
vt 1.00000 0.00000
vt 0.00000 0.00000
vt 0.00000 1.00000
vt 1.00000 1.00000
vt 1.00000 0.00000
vt 0.00000 0.00000
vt 0.00000 1.00000
vt 1.00000 1.00000
vt 1.00000 0.00000
vt 0.00000 0.00000
vt 0.00000 1.00000
vt 1.00000 1.00000
vt 1.00000 0.00000
vt 0.00000 0.00000
vt 0.00000 1.00000
vt 1.00000 1.00000
vt 1.00000 0.00000
vt 0.00000 0.00000
vt 0.00000 1.00000
vt 1.00000 1.00000
vt 1.00000 0.00000
vt 0.00000 0.00000
vt 0.00000 1.00000
vt 1.00000 1.00000
vt 1.00000 0.00000
vt 0.00000 0.00000
vt 0.00000 1.00000
vt 1.00000 1.00000
vt 1.00000 0.00000
vt 0.00000 0.00000
vt 0.00000 1.00000
vt 1.00000 1.00000
vt 1.00000 0.00000
vt 0.00000 0.00000
vt 0.00000 1.00000
vt 1.00000 1.00000
vt 1.00000 0.00000
vt 0.00000 0.00000
vt 0.00000 1.00000
vt 1.00000 1.00000
vt 1.00000 0.00000
vt 0.00000 0.00000
vt 0.00000 1.00000
vt 1.00000 1.00000
vt 1.00000 0.00000
vt 0.00000 0.00000
vt 0.00000 1.00000
vt 1.00000 1.00000
vt 1.00000 0.00000
vt 0.00000 0.00000
vt 0.00000 1.00000
vt 1.00000 1.00000
vt 1.00000 0.00000
vt 0.00000 0.00000
vt 0.00000 1.00000
vt 1.00000 1.00000
vt 1.00000 0.00000
vt 0.00000 0.00000
vt 0.00000 1.00000
vt 1.00000 1.00000
vt 1.00000 0.00000
vt 0.00000 0.00000
vt 0.00000 1.00000
vt 1.00000 1.00000
vt 1.00000 0.00000
vt 0.00000 0.00000
vt 0.00000 1.00000
vt 1.00000 1.00000
vt 1.00000 0.00000
vt 0.00000 0.00000
vt 0.00000 1.00000
vt 1.00000 1.00000
vt 1.00000 0.00000
vt 0.00000 0.00000
vt 0.00000 1.00000
vt 1.00000 1.00000
vt 1.00000 0.00000
vt 0.00000 0.00000
vt 0.00000 1.00000
vt 1.00000 1.00000
vt 1.00000 0.00000
vt 0.00000 0.00000
vt 0.00000 1.00000
vt 1.00000 1.00000
vt 1.00000 0.00000
vt 0.00000 0.00000
vt 0.00000 1.00000
vt 1.00000 1.00000
vt 1.00000 0.00000
vt 0.00000 0.00000
vt 0.00000 1.00000
vt 1.00000 1.00000
vt 1.00000 0.00000
vt 0.00000 0.00000
vt 0.00000 1.00000
vt 1.00000 1.00000
vt 1.00000 0.00000
vt 0.00000 0.00000
vt 0.00000 1.00000
vt 1.00000 1.00000
vt 1.00000 0.00000
vt 0.00000 0.00000
vt 0.00000 1.00000
vt 1.00000 1.00000
vt 1.00000 0.00000
vt 0.00000 0.00000
vt 0.00000 1.00000
vt 1.00000 1.00000
vt 1.00000 0.00000
vt 0.00000 0.00000
vt 0.00000 1.00000
vt 1.00000 1.00000
vt 1.00000 0.00000
vt 0.00000 0.00000
vt 0.00000 1.00000
vt 1.00000 1.00000
vt 1.00000 0.00000
vt 0.00000 0.00000
vt 0.00000 1.00000
vt 1.00000 1.00000
vt 1.00000 0.00000
vt 0.00000 0.00000
vt 0.00000 1.00000
vt 1.00000 1.00000
vt 1.00000 0.00000
vt 0.00000 0.00000
vt 0.00000 1.00000
vt 1.00000 1.00000
vt 1.00000 0.00000
vt 0.00000 0.00000
vt 0.00000 1.00000
vt 1.00000 1.00000
vt 1.00000 0.00000
vt 0.00000 0.00000
vt 0.00000 1.00000
vt 1.00000 1.00000
vt 1.00000 0.00000
vt 0.00000 0.00000
vt 0.00000 1.00000
vt 1.00000 1.00000
vt 1.00000 0.00000
vt 0.00000 0.00000
vt 0.00000 1.00000
vt 1.00000 1.00000
vt 1.00000 0.00000
vt 0.00000 0.00000
vt 0.00000 1.00000
vt 1.00000 1.00000
vt 1.00000 0.00000
vt 0.00000 0.00000
vt 0.00000 1.00000
vt 1.00000 1.00000
vt 1.00000 0.00000
vt 0.00000 0.00000
vt 0.00000 1.00000
vt 1.00000 1.00000
vt 1.00000 0.00000
vt 0.00000 0.00000
vt 0.00000 1.00000
vt 1.00000 1.00000
vt 1.00000 0.00000
vt 0.00000 0.00000
vt 0.00000 1.00000
vt 1.00000 1.00000
vt 1.00000 0.00000
vt 0.00000 0.00000
vt 0.00000 1.00000
vt 1.00000 1.00000
vt 1.00000 0.00000
vt 0.00000 0.00000
vt 0.00000 1.00000
vt 1.00000 1.00000
vt 1.00000 0.00000
vt 0.00000 0.00000
vt 0.00000 1.00000
vt 1.00000 1.00000
vt 1.00000 0.00000
vt 0.00000 0.00000
vt 0.00000 1.00000
vt 1.00000 1.00000
vt 1.00000 0.00000
vt 0.00000 0.00000
vt 0.00000 1.00000
vt 1.00000 1.00000
vt 1.00000 0.00000
vt 0.00000 0.00000
vt 0.00000 1.00000
vt 1.00000 1.00000
vt 1.00000 0.00000
vt 0.00000 0.00000
vt 0.00000 1.00000
vt 1.00000 1.00000
vt 1.00000 0.00000
vt 0.00000 0.00000
vt 0.00000 1.00000
vt 1.00000 1.00000
vt 1.00000 0.00000
vt 0.00000 0.00000
vt 0.00000 1.00000
vt 1.00000 1.00000
vt 1.00000 0.00000
vt 0.00000 0.00000
vt 0.00000 1.00000
vt 1.00000 1.00000
vt 1.00000 0.00000
vt 0.00000 0.00000
vt 0.00000 1.00000
vt 1.00000 1.00000
vt 1.00000 0.00000
vt 0.00000 0.00000
vt 0.00000 1.00000
vt 1.00000 1.00000
vt 1.00000 0.00000
vt 0.00000 0.00000
vt 0.00000 1.00000
vt 1.00000 1.00000
vt 1.00000 0.00000
vt 0.00000 0.00000
vt 0.00000 1.00000
vt 1.00000 1.00000
vt 1.00000 0.00000
vt 0.00000 0.00000
vt 0.00000 1.00000
vt 1.00000 1.00000
vt 1.00000 0.00000
vt 0.00000 0.00000
vt 0.00000 1.00000
vt 1.00000 1.00000
vt 1.00000 0.00000
vt 0.00000 0.00000
vt 0.00000 1.00000
vt 1.00000 1.00000
vt 1.00000 0.00000
vt 0.00000 0.00000
vt 0.00000 1.00000
vt 1.00000 1.00000
vt 1.00000 0.00000
vt 0.00000 0.00000
vt 0.00000 1.00000
vt 1.00000 1.00000
vt 1.00000 0.00000
vt 0.00000 0.00000
vt 0.00000 1.00000
vt 1.00000 1.00000
vt 1.00000 0.00000
vt 0.00000 0.00000
vt 0.00000 1.00000
vt 1.00000 1.00000
vt 1.00000 0.00000
vt 0.00000 0.00000
vt 0.00000 1.00000
vt 1.00000 1.00000
vt 1.00000 0.00000
vt 0.00000 0.00000
vt 0.00000 1.00000
vt 1.00000 1.00000
vt 1.00000 0.00000
vt 0.00000 0.00000
vt 0.00000 1.00000
vt 1.00000 1.00000
vt 1.00000 0.00000
vt 0.00000 0.00000
vt 0.00000 1.00000
vt 1.00000 1.00000
vt 1.00000 0.00000
vt 0.00000 0.00000
vt 0.00000 1.00000
vt 1.00000 1.00000
vt 1.00000 0.00000
vt 0.00000 0.00000
vt 0.00000 1.00000
vt 1.00000 1.00000
vt 1.00000 0.00000
vt 0.00000 0.00000
vt 0.00000 1.00000
vt 1.00000 1.00000
vt 1.00000 0.00000
vt 0.00000 0.00000
vt 0.00000 1.00000
vt 1.00000 1.00000
vt 1.00000 0.00000
vt 0.00000 0.00000
vt 0.00000 1.00000
vt 1.00000 1.00000
vt 1.00000 0.00000
vt 0.00000 0.00000
vt 0.00000 1.00000
vt 1.00000 1.00000
vt 1.00000 0.00000
vt 0.00000 0.00000
vt 0.00000 1.00000
vt 1.00000 1.00000
vt 1.00000 0.00000
vt 0.00000 0.00000
vt 0.00000 1.00000
vt 1.00000 1.00000
vt 1.00000 0.00000
vt 0.00000 0.00000
vt 0.00000 1.00000
vt 1.00000 1.00000
vt 1.00000 0.00000
vt 0.00000 0.00000
vt 0.00000 1.00000
vt 1.00000 1.00000
vt 1.00000 0.00000
vt 0.00000 0.00000
vt 0.00000 1.00000
vt 1.00000 1.00000
vt 1.00000 0.00000
vt 0.00000 0.00000
vt 0.00000 1.00000
vt 1.00000 1.00000
vt 1.00000 0.00000
vt 0.00000 0.00000
vt 0.00000 1.00000
vt 1.00000 1.00000
vt 1.00000 0.00000
vt 0.00000 0.00000
vt 0.00000 1.00000
vt 1.00000 1.00000
vt 1.00000 0.00000
vt 0.00000 0.00000
vt 0.00000 1.00000
vt 1.00000 1.00000
vt 1.00000 0.00000
vt 0.00000 0.00000
vt 0.00000 1.00000
vt 1.00000 1.00000
vt 1.00000 0.00000
vt 0.00000 0.00000
vt 0.00000 1.00000
vt 1.00000 1.00000
vt 1.00000 0.00000
vt 0.00000 0.00000
vt 0.00000 1.00000
vt 1.00000 1.00000
vt 1.00000 0.00000
vt 0.00000 0.00000
vt 0.00000 1.00000
vt 1.00000 1.00000
vt 1.00000 0.00000
vt 0.00000 0.00000
vt 0.00000 1.00000
vt 1.00000 1.00000
vt 1.00000 0.00000
vt 0.00000 0.00000
vt 0.00000 1.00000
vt 1.00000 1.00000
vt 1.00000 0.00000
vt 0.00000 0.00000
vt 0.00000 1.00000
vt 1.00000 1.00000
vt 1.00000 0.00000
vt 0.00000 0.00000
vt 0.00000 1.00000
vt 1.00000 1.00000
vt 1.00000 0.00000
vt 0.00000 0.00000
vt 0.00000 1.00000
vt 1.00000 1.00000
vt 1.00000 0.00000
vt 0.00000 0.00000
vt 0.00000 1.00000
vt 1.00000 1.00000
vt 1.00000 0.00000
vt 0.00000 0.00000
vt 0.00000 1.00000
vt 1.00000 1.00000
vt 1.00000 0.00000
vt 0.00000 0.00000
vt 0.00000 1.00000
vt 1.00000 1.00000
vt 1.00000 0.00000
vt 0.00000 0.00000
vt 0.00000 1.00000
vt 1.00000 1.00000
vt 1.00000 0.00000
vt 0.00000 0.00000
vt 0.00000 1.00000
vt 1.00000 1.00000
vt 1.00000 0.00000
vt 0.00000 0.00000
vt 0.00000 1.00000
vt 1.00000 1.00000
vt 1.00000 0.00000
vt 0.00000 0.00000
vt 0.00000 1.00000
vt 1.00000 1.00000
vt 1.00000 0.00000
vt 0.00000 0.00000
vt 0.00000 1.00000
vt 1.00000 1.00000
vt 1.00000 0.00000
vt 0.00000 0.00000
vt 0.00000 1.00000
vt 1.00000 1.00000
vt 1.00000 0.00000
vt 0.00000 0.00000
vt 0.00000 1.00000
vt 1.00000 1.00000
vt 1.00000 0.00000
vt 0.00000 0.00000
vt 0.00000 1.00000
vt 1.00000 1.00000
vt 1.00000 0.00000
vt 0.00000 0.00000
vt 0.00000 1.00000
vt 1.00000 1.00000
vt 1.00000 0.00000
vt 0.00000 0.00000
vt 0.00000 1.00000
vt 1.00000 1.00000
vt 1.00000 0.00000
vt 0.00000 0.00000
vt 0.00000 1.00000
vt 1.00000 1.00000
vt 1.00000 0.00000
vt 0.00000 0.00000
vt 0.00000 1.00000
vt 1.00000 1.00000
vt 1.00000 0.00000
vt 0.00000 0.00000
vt 0.00000 1.00000
vt 1.00000 1.00000
vt 1.00000 0.00000
vt 0.00000 0.00000
vt 0.00000 1.00000
vt 1.00000 1.00000
vt 1.00000 0.00000
vt 0.00000 0.00000
vt 0.00000 1.00000
vt 1.00000 1.00000
vt 1.00000 0.00000
vt 0.00000 0.00000
vt 0.00000 1.00000
vt 1.00000 1.00000
vt 1.00000 0.00000
vt 0.00000 0.00000
vt 0.00000 1.00000
vt 1.00000 1.00000
vt 1.00000 0.00000
vt 0.00000 0.00000
vt 0.00000 1.00000
vt 1.00000 1.00000
vt 1.00000 0.00000
vt 0.00000 0.00000
vt 0.00000 1.00000
vt 1.00000 1.00000
vt 1.00000 0.00000
vt 0.00000 0.00000
vt 0.00000 1.00000
vt 1.00000 1.00000
vt 1.00000 0.00000
vt 0.00000 0.00000
vt 0.00000 1.00000
vt 1.00000 1.00000
vt 1.00000 0.00000
vt 0.00000 0.00000
vt 0.00000 1.00000
vt 1.00000 1.00000
vt 1.00000 0.00000
vt 0.00000 0.00000
vt 0.00000 1.00000
vt 1.00000 1.00000
vt 1.00000 0.00000
vt 0.00000 0.00000
vt 0.00000 1.00000
vt 1.00000 1.00000
vt 1.00000 0.00000
vt 0.00000 0.00000
vt 0.00000 1.00000
vt 1.00000 1.00000
vt 1.00000 0.00000
vt 0.00000 0.00000
vt 0.00000 1.00000
vt 1.00000 1.00000
vt 1.00000 0.00000
vt 0.00000 0.00000
vt 0.00000 1.00000
vt 1.00000 1.00000
vt 1.00000 0.00000
vt 0.00000 0.00000
vt 0.00000 1.00000
vt 1.00000 1.00000
vt 1.00000 0.00000
vt 0.00000 0.00000
vt 0.00000 1.00000
vt 1.00000 1.00000
vt 1.00000 0.00000
vt 0.00000 0.00000
vt 0.00000 1.00000
vt 1.00000 1.00000
vt 1.00000 0.00000
vt 0.00000 0.00000
vt 0.00000 1.00000
vt 1.00000 1.00000
vt 1.00000 0.00000
vt 0.00000 0.00000
vt 0.00000 1.00000
vt 1.00000 1.00000
vt 1.00000 0.00000
vt 0.00000 0.00000
vt 0.00000 1.00000
vt 1.00000 1.00000
vt 1.00000 0.00000
vt 0.00000 0.00000
vt 0.00000 1.00000
vt 1.00000 1.00000
vt 1.00000 0.00000
vt 0.00000 0.00000
vt 0.00000 1.00000
vt 1.00000 1.00000
vt 1.00000 0.00000
vt 0.00000 0.00000
vt 0.00000 1.00000
vt 1.00000 1.00000
vt 1.00000 0.00000
vt 0.00000 0.00000
vn -0.9921 -0.1226 -0.0283
vn 0.9921 0.1226 0.0283
vn 0.6870 0.7266 -0.0071
vn -0.6870 -0.7266 0.0071
vn -0.9851 -0.1240 -0.1195
vn 0.9851 0.1240 0.1195
vn -0.8897 0.4451 -0.1020
vn 0.8897 -0.4451 0.1020
vn 0.8162 -0.5601 -0.1415
vn -0.8162 0.5601 0.1415
vn 0.9502 0.3067 0.0551
vn -0.9502 -0.3067 -0.0551
vn 0.9985 -0.0037 0.0539
vn -0.9985 0.0037 -0.0539
vn 0.7316 0.6790 0.0613
vn -0.7316 -0.6790 -0.0613
vn -0.9576 0.2873 -0.0205
vn 0.9576 -0.2873 0.0205
vn 0.3108 0.9468 0.0832
vn -0.3108 -0.9468 -0.0832
vn -0.9105 0.3933 -0.1274
vn 0.9105 -0.3933 0.1274
vn 0.9394 0.3331 0.0813
vn -0.9394 -0.3331 -0.0813
vn 0.3219 0.9440 -0.0728
vn -0.3219 -0.9440 0.0728
vn -0.3142 -0.9480 0.0505
vn 0.3142 0.9480 -0.0505
vn -0.9875 0.0850 -0.1329
vn 0.9875 -0.0850 0.1329
vn -0.9402 -0.3404 -0.0153
vn 0.9402 0.3404 0.0153
vn 0.9672 -0.2146 -0.1359
vn -0.9672 0.2146 0.1359
vn 0.1706 0.9846 0.0371
vn -0.1706 -0.9846 -0.0371
vn -0.8296 0.5531 -0.0769
vn 0.8296 -0.5531 0.0769
vn 0.9835 -0.0370 -0.1773
vn -0.9835 0.0370 0.1773
vn -0.6282 0.7765 0.0492
vn 0.6282 -0.7765 -0.0492
vn 0.8633 -0.4962 -0.0923
vn -0.8633 0.4962 0.0923
vn -0.2934 -0.9556 -0.0281
vn 0.2934 0.9556 0.0281
vn -0.9616 0.2742 -0.0119
vn 0.9616 -0.2742 0.0119
vn -0.8259 0.5633 0.0237
vn 0.8259 -0.5633 -0.0237
vn 0.9499 0.3056 0.0661
vn -0.9499 -0.3056 -0.0661
vn -0.4738 0.8740 -0.1079
vn 0.4738 -0.8740 0.1079
vn -0.9744 0.1896 0.1209
vn 0.9744 -0.1896 -0.1209
vn -0.8511 -0.5144 -0.1044
vn 0.8511 0.5144 0.1044
vn -0.6039 -0.7751 0.1856
vn 0.6039 0.7751 -0.1856
vn -0.9658 -0.1805 -0.1861
vn 0.9658 0.1805 0.1861
vn -0.9345 -0.3548 0.0298
vn 0.9345 0.3548 -0.0298
vn -0.1559 -0.9771 -0.1448
vn 0.1559 0.9771 0.1448
vn -0.5237 0.8519 -0.0064
vn 0.5237 -0.8519 0.0064
vn 0.9786 -0.1989 -0.0529
vn -0.9786 0.1989 0.0529
vn 0.9862 -0.1553 0.0571
vn -0.9862 0.1553 -0.0571
vn 0.8006 0.5959 0.0620
vn -0.8006 -0.5959 -0.0620
vn 0.6597 -0.7445 -0.1021
vn -0.6597 0.7445 0.1021
vn -0.8417 -0.5394 0.0228
vn 0.8417 0.5394 -0.0228
vn 0.6689 0.7432 0.0126
vn -0.6689 -0.7432 -0.0126
vn -0.9887 0.0847 0.1235
vn 0.9887 -0.0847 -0.1235
vn 0.6555 0.7551 -0.0111
vn -0.6555 -0.7551 0.0111
vn -0.9193 0.3886 0.0632
vn 0.9193 -0.3886 -0.0632
vn 0.8336 -0.5492 0.0592
vn -0.8336 0.5492 -0.0592
vn -0.9514 -0.2859 -0.1141
vn 0.9514 0.2859 0.1141
vn 0.1717 -0.9838 0.0519
vn -0.1717 0.9838 -0.0519
vn -0.0272 0.9990 -0.0352
vn 0.0272 -0.9990 0.0352
vn -0.5587 0.8273 -0.0584
vn 0.5587 -0.8273 0.0584
vn 0.9665 -0.1846 0.1786
vn -0.9665 0.1846 -0.1786
vn -0.6159 -0.7826 -0.0905
vn 0.6159 0.7826 0.0905
vn 0.6552 0.7550 -0.0271
vn -0.6552 -0.7550 0.0271
vn -0.9453 0.3262 -0.0081
vn 0.9453 -0.3262 0.0081
vn 0.9839 0.1739 0.0404
vn -0.9839 -0.1739 -0.0404
vn 0.9610 0.2698 -0.0615
vn -0.9610 -0.2698 0.0615
vn -0.7070 -0.7059 -0.0439
vn 0.7070 0.7059 0.0439
vn 0.7773 -0.6221 0.0939
vn -0.7773 0.6221 -0.0939
vn 0.9712 0.2306 -0.0604
vn -0.9712 -0.2306 0.0604
vn 0.2714 0.9588 0.0836
vn -0.2714 -0.9588 -0.0836
vn -0.8910 0.4379 0.1195
vn 0.8910 -0.4379 -0.1195
vn 0.9742 0.1718 0.1461
vn -0.9742 -0.1718 -0.1461
vn 0.9713 -0.2377 0.0056
vn -0.9713 0.2377 -0.0056
vn -0.7358 0.6619 0.1428
vn 0.7358 -0.6619 -0.1428
vn -0.9903 0.0486 -0.1303
vn 0.9903 -0.0486 0.1303
vn -0.0276 0.9854 0.1679
vn 0.0276 -0.9854 -0.1679
vn 0.9840 0.0318 0.1751
vn -0.9840 -0.0318 -0.1751
vn 0.5549 0.8307 0.0452
vn -0.5549 -0.8307 -0.0452
vn -0.9756 -0.1934 0.1042
vn 0.9756 0.1934 -0.1042
vn 0.2560 0.9651 0.0555
vn -0.2560 -0.9651 -0.0555
vn 0.3190 0.9384 -0.1326
vn -0.3190 -0.9384 0.1326
vn -0.9937 0.1050 -0.0399
vn 0.9937 -0.1050 0.0399
vn -0.9655 -0.1935 0.1741
vn 0.9655 0.1935 -0.1741
vn 0.5060 0.8427 -0.1839
vn -0.5060 -0.8427 0.1839
vn 0.6599 -0.7285 -0.1838
vn -0.6599 0.7285 0.1838
vn -0.9334 0.3213 -0.1601
vn 0.9334 -0.3213 0.1601
vn -0.7281 -0.6722 0.1341
vn 0.7281 0.6722 -0.1341
vn 0.6877 0.7168 0.1152
vn -0.6877 -0.7168 -0.1152
vn 0.9994 -0.0074 -0.0349
vn -0.9994 0.0074 0.0349
vn 0.7436 -0.6674 0.0402
vn -0.7436 0.6674 -0.0402
vn 0.3317 -0.9374 -0.1058
vn -0.3317 0.9374 0.1058
vn -0.0462 -0.9815 0.1859
vn 0.0462 0.9815 -0.1859
vn -0.5835 0.7970 -0.1559
vn 0.5835 -0.7970 0.1559
vn 0.9667 -0.2557 0.0000
vn -0.9667 0.2557 -0.0000
vn 0.6867 0.7270 -0.0039
vn -0.6867 -0.7270 0.0039
vn 0.0954 0.9816 -0.1653
vn -0.0954 -0.9816 0.1653
vn 0.9871 0.1477 0.0614
vn -0.9871 -0.1477 -0.0614
vn 0.7858 0.5903 0.1846
vn -0.7858 -0.5903 -0.1846
vn -0.6803 -0.7095 0.1842
vn 0.6803 0.7095 -0.1842
vn -0.3986 0.9171 -0.0080
vn 0.3986 -0.9171 0.0080
vn 0.5321 -0.8368 0.1293
vn -0.5321 0.8368 -0.1293
vn -0.4151 0.9093 -0.0278
vn 0.4151 -0.9093 0.0278
vn -0.1606 -0.9869 0.0167
vn 0.1606 0.9869 -0.0167
vn -0.3899 0.9153 -0.1013
vn 0.3899 -0.9153 0.1013
vn 0.0012 -0.9940 -0.1093
vn -0.0012 0.9940 0.1093
vn -0.6740 -0.7381 -0.0290
vn 0.6740 0.7381 0.0290
vn 0.2038 -0.9789 -0.0155
vn -0.2038 0.9789 0.0155
vn 0.9863 -0.1262 0.1064
vn -0.9863 0.1262 -0.1064
vn 0.4473 0.8882 0.1051
vn -0.4473 -0.8882 -0.1051
vn -0.6865 -0.7150 -0.1323
vn 0.6865 0.7150 0.1323
vn -0.8214 -0.5699 -0.0215
vn 0.8214 0.5699 0.0215
vn 0.9584 -0.2186 -0.1835
vn -0.9584 0.2186 0.1835
vn 0.0313 -0.9995 0.0011
vn -0.0313 0.9995 -0.0011
vn -0.6345 -0.7628 0.1249
vn 0.6345 0.7628 -0.1249
vn -0.9978 0.0634 -0.0172
vn 0.9978 -0.0634 0.0172
vn -0.2781 -0.9488 0.1499
vn 0.2781 0.9488 -0.1499
vn 0.5560 0.8312 0.0031
vn -0.5560 -0.8312 -0.0031
vn 0.9639 -0.2074 0.1668
vn -0.9639 0.2074 -0.1668
vn -0.9931 -0.1040 -0.0537
vn 0.9931 0.1040 0.0537
vn -0.2093 -0.9778 0.0122
vn 0.2093 0.9778 -0.0122
vn -0.9939 -0.0173 0.1087
vn 0.9939 0.0173 -0.1087
vn -0.5235 0.8361 0.1640
vn 0.5235 -0.8361 -0.1640
vn -0.9982 0.0230 0.0562
vn 0.9982 -0.0230 -0.0562
vn 0.7803 0.6244 -0.0344
vn -0.7803 -0.6244 0.0344
vn 0.9712 0.2350 0.0391
vn -0.9712 -0.2350 -0.0391
vn -0.0134 0.9891 -0.1466
vn 0.0134 -0.9891 0.1466
vn 0.4120 0.9092 0.0604
vn -0.4120 -0.9092 -0.0604
vn 0.6105 0.7916 -0.0249
vn -0.6105 -0.7916 0.0249
f 1/1/1 3/3/1 2/2/1
f 1/1/1 4/4/1 3/3/1
f 5/5/2 7/7/2 8/8/2
f 5/5/2 6/6/2 7/7/2
f 9/9/3 11/11/3 10/10/3
f 9/9/3 12/12/3 11/11/3
f 13/13/4 15/15/4 16/16/4
f 13/13/4 14/14/4 15/15/4
f 17/17/5 19/19/5 18/18/5
f 17/17/5 20/20/5 19/19/5
f 21/21/6 23/23/6 24/24/6
f 21/21/6 22/22/6 23/23/6
f 25/25/7 27/27/7 26/26/7
f 25/25/7 28/28/7 27/27/7
f 29/29/8 31/31/8 32/32/8
f 29/29/8 30/30/8 31/31/8
f 33/33/9 35/35/9 34/34/9
f 33/33/9 36/36/9 35/35/9
f 37/37/10 39/39/10 40/40/10
f 37/37/10 38/38/10 39/39/10
f 41/41/11 43/43/11 42/42/11
f 41/41/11 44/44/11 43/43/11
f 45/45/12 47/47/12 48/48/12
f 45/45/12 46/46/12 47/47/12
f 49/49/13 51/51/13 50/50/13
f 49/49/13 52/52/13 51/51/13
f 53/53/14 55/55/14 56/56/14
f 53/53/14 54/54/14 55/55/14
f 57/57/15 59/59/15 58/58/15
f 57/57/15 60/60/15 59/59/15
f 61/61/16 63/63/16 64/64/16
f 61/61/16 62/62/16 63/63/16
f 65/65/17 67/67/17 66/66/17
f 65/65/17 68/68/17 67/67/17
f 69/69/18 71/71/18 72/72/18
f 69/69/18 70/70/18 71/71/18
f 73/73/19 75/75/19 74/74/19
f 73/73/19 76/76/19 75/75/19
f 77/77/20 79/79/20 80/80/20
f 77/77/20 78/78/20 79/79/20
f 81/81/21 83/83/21 82/82/21
f 81/81/21 84/84/21 83/83/21
f 85/85/22 87/87/22 88/88/22
f 85/85/22 86/86/22 87/87/22
f 89/89/23 91/91/23 90/90/23
f 89/89/23 92/92/23 91/91/23
f 93/93/24 95/95/24 96/96/24
f 93/93/24 94/94/24 95/95/24
f 97/97/25 99/99/25 98/98/25
f 97/97/25 100/100/25 99/99/25
f 101/101/26 103/103/26 104/104/26
f 101/101/26 102/102/26 103/103/26
f 105/105/27 107/107/27 106/106/27
f 105/105/27 108/108/27 107/107/27
f 109/109/28 111/111/28 112/112/28
f 109/109/28 110/110/28 111/111/28
f 113/113/29 115/115/29 114/114/29
f 113/113/29 116/116/29 115/115/29
f 117/117/30 119/119/30 120/120/30
f 117/117/30 118/118/30 119/119/30
f 121/121/31 123/123/31 122/122/31
f 121/121/31 124/124/31 123/123/31
f 125/125/32 127/127/32 128/128/32
f 125/125/32 126/126/32 127/127/32
f 129/129/33 131/131/33 130/130/33
f 129/129/33 132/132/33 131/131/33
f 133/133/34 135/135/34 136/136/34
f 133/133/34 134/134/34 135/135/34
f 137/137/35 139/139/35 138/138/35
f 137/137/35 140/140/35 139/139/35
f 141/141/36 143/143/36 144/144/36
f 141/141/36 142/142/36 143/143/36
f 145/145/37 147/147/37 146/146/37
f 145/145/37 148/148/37 147/147/37
f 149/149/38 151/151/38 152/152/38
f 149/149/38 150/150/38 151/151/38
f 153/153/39 155/155/39 154/154/39
f 153/153/39 156/156/39 155/155/39
f 157/157/40 159/159/40 160/160/40
f 157/157/40 158/158/40 159/159/40
f 161/161/41 163/163/41 162/162/41
f 161/161/41 164/164/41 163/163/41
f 165/165/42 167/167/42 168/168/42
f 165/165/42 166/166/42 167/167/42
f 169/169/43 171/171/43 170/170/43
f 169/169/43 172/172/43 171/171/43
f 173/173/44 175/175/44 176/176/44
f 173/173/44 174/174/44 175/175/44
f 177/177/45 179/179/45 178/178/45
f 177/177/45 180/180/45 179/179/45
f 181/181/46 183/183/46 184/184/46
f 181/181/46 182/182/46 183/183/46
f 185/185/47 187/187/47 186/186/47
f 185/185/47 188/188/47 187/187/47
f 189/189/48 191/191/48 192/192/48
f 189/189/48 190/190/48 191/191/48
f 193/193/49 195/195/49 194/194/49
f 193/193/49 196/196/49 195/195/49
f 197/197/50 199/199/50 200/200/50
f 197/197/50 198/198/50 199/199/50
f 201/201/51 203/203/51 202/202/51
f 201/201/51 204/204/51 203/203/51
f 205/205/52 207/207/52 208/208/52
f 205/205/52 206/206/52 207/207/52
f 209/209/53 211/211/53 210/210/53
f 209/209/53 212/212/53 211/211/53
f 213/213/54 215/215/54 216/216/54
f 213/213/54 214/214/54 215/215/54
f 217/217/55 219/219/55 218/218/55
f 217/217/55 220/220/55 219/219/55
f 221/221/56 223/223/56 224/224/56
f 221/221/56 222/222/56 223/223/56
f 225/225/57 227/227/57 226/226/57
f 225/225/57 228/228/57 227/227/57
f 229/229/58 231/231/58 232/232/58
f 229/229/58 230/230/58 231/231/58
f 233/233/59 235/235/59 234/234/59
f 233/233/59 236/236/59 235/235/59
f 237/237/60 239/239/60 240/240/60
f 237/237/60 238/238/60 239/239/60
f 241/241/61 243/243/61 242/242/61
f 241/241/61 244/244/61 243/243/61
f 245/245/62 247/247/62 248/248/62
f 245/245/62 246/246/62 247/247/62
f 249/249/63 251/251/63 250/250/63
f 249/249/63 252/252/63 251/251/63
f 253/253/64 255/255/64 256/256/64
f 253/253/64 254/254/64 255/255/64
f 257/257/65 259/259/65 258/258/65
f 257/257/65 260/260/65 259/259/65
f 261/261/66 263/263/66 264/264/66
f 261/261/66 262/262/66 263/263/66
f 265/265/67 267/267/67 266/266/67
f 265/265/67 268/268/67 267/267/67
f 269/269/68 271/271/68 272/272/68
f 269/269/68 270/270/68 271/271/68
f 273/273/69 275/275/69 274/274/69
f 273/273/69 276/276/69 275/275/69
f 277/277/70 279/279/70 280/280/70
f 277/277/70 278/278/70 279/279/70
f 281/281/71 283/283/71 282/282/71
f 281/281/71 284/284/71 283/283/71
f 285/285/72 287/287/72 288/288/72
f 285/285/72 286/286/72 287/287/72
f 289/289/73 291/291/73 290/290/73
f 289/289/73 292/292/73 291/291/73
f 293/293/74 295/295/74 296/296/74
f 293/293/74 294/294/74 295/295/74
f 297/297/75 299/299/75 298/298/75
f 297/297/75 300/300/75 299/299/75
f 301/301/76 303/303/76 304/304/76
f 301/301/76 302/302/76 303/303/76
f 305/305/77 307/307/77 306/306/77
f 305/305/77 308/308/77 307/307/77
f 309/309/78 311/311/78 312/312/78
f 309/309/78 310/310/78 311/311/78
f 313/313/79 315/315/79 314/314/79
f 313/313/79 316/316/79 315/315/79
f 317/317/80 319/319/80 320/320/80
f 317/317/80 318/318/80 319/319/80
f 321/321/81 323/323/81 322/322/81
f 321/321/81 324/324/81 323/323/81
f 325/325/82 327/327/82 328/328/82
f 325/325/82 326/326/82 327/327/82
f 329/329/83 331/331/83 330/330/83
f 329/329/83 332/332/83 331/331/83
f 333/333/84 335/335/84 336/336/84
f 333/333/84 334/334/84 335/335/84
f 337/337/85 339/339/85 338/338/85
f 337/337/85 340/340/85 339/339/85
f 341/341/86 343/343/86 344/344/86
f 341/341/86 342/342/86 343/343/86
f 345/345/87 347/347/87 346/346/87
f 345/345/87 348/348/87 347/347/87
f 349/349/88 351/351/88 352/352/88
f 349/349/88 350/350/88 351/351/88
f 353/353/89 355/355/89 354/354/89
f 353/353/89 356/356/89 355/355/89
f 357/357/90 359/359/90 360/360/90
f 357/357/90 358/358/90 359/359/90
f 361/361/91 363/363/91 362/362/91
f 361/361/91 364/364/91 363/363/91
f 365/365/92 367/367/92 368/368/92
f 365/365/92 366/366/92 367/367/92
f 369/369/93 371/371/93 370/370/93
f 369/369/93 372/372/93 371/371/93
f 373/373/94 375/375/94 376/376/94
f 373/373/94 374/374/94 375/375/94
f 377/377/95 379/379/95 378/378/95
f 377/377/95 380/380/95 379/379/95
f 381/381/96 383/383/96 384/384/96
f 381/381/96 382/382/96 383/383/96
f 385/385/97 387/387/97 386/386/97
f 385/385/97 388/388/97 387/387/97
f 389/389/98 391/391/98 392/392/98
f 389/389/98 390/390/98 391/391/98
f 393/393/99 395/395/99 394/394/99
f 393/393/99 396/396/99 395/395/99
f 397/397/100 399/399/100 400/400/100
f 397/397/100 398/398/100 399/399/100
f 401/401/101 403/403/101 402/402/101
f 401/401/101 404/404/101 403/403/101
f 405/405/102 407/407/102 408/408/102
f 405/405/102 406/406/102 407/407/102
f 409/409/103 411/411/103 410/410/103
f 409/409/103 412/412/103 411/411/103
f 413/413/104 415/415/104 416/416/104
f 413/413/104 414/414/104 415/415/104
f 417/417/105 419/419/105 418/418/105
f 417/417/105 420/420/105 419/419/105
f 421/421/106 423/423/106 424/424/106
f 421/421/106 422/422/106 423/423/106
f 425/425/107 427/427/107 426/426/107
f 425/425/107 428/428/107 427/427/107
f 429/429/108 431/431/108 432/432/108
f 429/429/108 430/430/108 431/431/108
f 433/433/109 435/435/109 434/434/109
f 433/433/109 436/436/109 435/435/109
f 437/437/110 439/439/110 440/440/110
f 437/437/110 438/438/110 439/439/110
f 441/441/111 443/443/111 442/442/111
f 441/441/111 444/444/111 443/443/111
f 445/445/112 447/447/112 448/448/112
f 445/445/112 446/446/112 447/447/112
f 449/449/113 451/451/113 450/450/113
f 449/449/113 452/452/113 451/451/113
f 453/453/114 455/455/114 456/456/114
f 453/453/114 454/454/114 455/455/114
f 457/457/115 459/459/115 458/458/115
f 457/457/115 460/460/115 459/459/115
f 461/461/116 463/463/116 464/464/116
f 461/461/116 462/462/116 463/463/116
f 465/465/117 467/467/117 466/466/117
f 465/465/117 468/468/117 467/467/117
f 469/469/118 471/471/118 472/472/118
f 469/469/118 470/470/118 471/471/118
f 473/473/119 475/475/119 474/474/119
f 473/473/119 476/476/119 475/475/119
f 477/477/120 479/479/120 480/480/120
f 477/477/120 478/478/120 479/479/120
f 481/481/121 483/483/121 482/482/121
f 481/481/121 484/484/121 483/483/121
f 485/485/122 487/487/122 488/488/122
f 485/485/122 486/486/122 487/487/122
f 489/489/123 491/491/123 490/490/123
f 489/489/123 492/492/123 491/491/123
f 493/493/124 495/495/124 496/496/124
f 493/493/124 494/494/124 495/495/124
f 497/497/125 499/499/125 498/498/125
f 497/497/125 500/500/125 499/499/125
f 501/501/126 503/503/126 504/504/126
f 501/501/126 502/502/126 503/503/126
f 505/505/127 507/507/127 506/506/127
f 505/505/127 508/508/127 507/507/127
f 509/509/128 511/511/128 512/512/128
f 509/509/128 510/510/128 511/511/128
f 513/513/129 515/515/129 514/514/129
f 513/513/129 516/516/129 515/515/129
f 517/517/130 519/519/130 520/520/130
f 517/517/130 518/518/130 519/519/130
f 521/521/131 523/523/131 522/522/131
f 521/521/131 524/524/131 523/523/131
f 525/525/132 527/527/132 528/528/132
f 525/525/132 526/526/132 527/527/132
f 529/529/133 531/531/133 530/530/133
f 529/529/133 532/532/133 531/531/133
f 533/533/134 535/535/134 536/536/134
f 533/533/134 534/534/134 535/535/134
f 537/537/135 539/539/135 538/538/135
f 537/537/135 540/540/135 539/539/135
f 541/541/136 543/543/136 544/544/136
f 541/541/136 542/542/136 543/543/136
f 545/545/137 547/547/137 546/546/137
f 545/545/137 548/548/137 547/547/137
f 549/549/138 551/551/138 552/552/138
f 549/549/138 550/550/138 551/551/138
f 553/553/139 555/555/139 554/554/139
f 553/553/139 556/556/139 555/555/139
f 557/557/140 559/559/140 560/560/140
f 557/557/140 558/558/140 559/559/140
f 561/561/141 563/563/141 562/562/141
f 561/561/141 564/564/141 563/563/141
f 565/565/142 567/567/142 568/568/142
f 565/565/142 566/566/142 567/567/142
f 569/569/143 571/571/143 570/570/143
f 569/569/143 572/572/143 571/571/143
f 573/573/144 575/575/144 576/576/144
f 573/573/144 574/574/144 575/575/144
f 577/577/145 579/579/145 578/578/145
f 577/577/145 580/580/145 579/579/145
f 581/581/146 583/583/146 584/584/146
f 581/581/146 582/582/146 583/583/146
f 585/585/147 587/587/147 586/586/147
f 585/585/147 588/588/147 587/587/147
f 589/589/148 591/591/148 592/592/148
f 589/589/148 590/590/148 591/591/148
f 593/593/149 595/595/149 594/594/149
f 593/593/149 596/596/149 595/595/149
f 597/597/150 599/599/150 600/600/150
f 597/597/150 598/598/150 599/599/150
f 601/601/151 603/603/151 602/602/151
f 601/601/151 604/604/151 603/603/151
f 605/605/152 607/607/152 608/608/152
f 605/605/152 606/606/152 607/607/152
f 609/609/153 611/611/153 610/610/153
f 609/609/153 612/612/153 611/611/153
f 613/613/154 615/615/154 616/616/154
f 613/613/154 614/614/154 615/615/154
f 617/617/155 619/619/155 618/618/155
f 617/617/155 620/620/155 619/619/155
f 621/621/156 623/623/156 624/624/156
f 621/621/156 622/622/156 623/623/156
f 625/625/157 627/627/157 626/626/157
f 625/625/157 628/628/157 627/627/157
f 629/629/158 631/631/158 632/632/158
f 629/629/158 630/630/158 631/631/158
f 633/633/159 635/635/159 634/634/159
f 633/633/159 636/636/159 635/635/159
f 637/637/160 639/639/160 640/640/160
f 637/637/160 638/638/160 639/639/160
f 641/641/161 643/643/161 642/642/161
f 641/641/161 644/644/161 643/643/161
f 645/645/162 647/647/162 648/648/162
f 645/645/162 646/646/162 647/647/162
f 649/649/163 651/651/163 650/650/163
f 649/649/163 652/652/163 651/651/163
f 653/653/164 655/655/164 656/656/164
f 653/653/164 654/654/164 655/655/164
f 657/657/165 659/659/165 658/658/165
f 657/657/165 660/660/165 659/659/165
f 661/661/166 663/663/166 664/664/166
f 661/661/166 662/662/166 663/663/166
f 665/665/167 667/667/167 666/666/167
f 665/665/167 668/668/167 667/667/167
f 669/669/168 671/671/168 672/672/168
f 669/669/168 670/670/168 671/671/168
f 673/673/169 675/675/169 674/674/169
f 673/673/169 676/676/169 675/675/169
f 677/677/170 679/679/170 680/680/170
f 677/677/170 678/678/170 679/679/170
f 681/681/171 683/683/171 682/682/171
f 681/681/171 684/684/171 683/683/171
f 685/685/172 687/687/172 688/688/172
f 685/685/172 686/686/172 687/687/172
f 689/689/173 691/691/173 690/690/173
f 689/689/173 692/692/173 691/691/173
f 693/693/174 695/695/174 696/696/174
f 693/693/174 694/694/174 695/695/174
f 697/697/175 699/699/175 698/698/175
f 697/697/175 700/700/175 699/699/175
f 701/701/176 703/703/176 704/704/176
f 701/701/176 702/702/176 703/703/176
f 705/705/177 707/707/177 706/706/177
f 705/705/177 708/708/177 707/707/177
f 709/709/178 711/711/178 712/712/178
f 709/709/178 710/710/178 711/711/178
f 713/713/179 715/715/179 714/714/179
f 713/713/179 716/716/179 715/715/179
f 717/717/180 719/719/180 720/720/180
f 717/717/180 718/718/180 719/719/180
f 721/721/181 723/723/181 722/722/181
f 721/721/181 724/724/181 723/723/181
f 725/725/182 727/727/182 728/728/182
f 725/725/182 726/726/182 727/727/182
f 729/729/183 731/731/183 730/730/183
f 729/729/183 732/732/183 731/731/183
f 733/733/184 735/735/184 736/736/184
f 733/733/184 734/734/184 735/735/184
f 737/737/185 739/739/185 738/738/185
f 737/737/185 740/740/185 739/739/185
f 741/741/186 743/743/186 744/744/186
f 741/741/186 742/742/186 743/743/186
f 745/745/187 747/747/187 746/746/187
f 745/745/187 748/748/187 747/747/187
f 749/749/188 751/751/188 752/752/188
f 749/749/188 750/750/188 751/751/188
f 753/753/189 755/755/189 754/754/189
f 753/753/189 756/756/189 755/755/189
f 757/757/190 759/759/190 760/760/190
f 757/757/190 758/758/190 759/759/190
f 761/761/191 763/763/191 762/762/191
f 761/761/191 764/764/191 763/763/191
f 765/765/192 767/767/192 768/768/192
f 765/765/192 766/766/192 767/767/192
f 769/769/193 771/771/193 770/770/193
f 769/769/193 772/772/193 771/771/193
f 773/773/194 775/775/194 776/776/194
f 773/773/194 774/774/194 775/775/194
f 777/777/195 779/779/195 778/778/195
f 777/777/195 780/780/195 779/779/195
f 781/781/196 783/783/196 784/784/196
f 781/781/196 782/782/196 783/783/196
f 785/785/197 787/787/197 786/786/197
f 785/785/197 788/788/197 787/787/197
f 789/789/198 791/791/198 792/792/198
f 789/789/198 790/790/198 791/791/198
f 793/793/199 795/795/199 794/794/199
f 793/793/199 796/796/199 795/795/199
f 797/797/200 799/799/200 800/800/200
f 797/797/200 798/798/200 799/799/200
f 801/801/201 803/803/201 802/802/201
f 801/801/201 804/804/201 803/803/201
f 805/805/202 807/807/202 808/808/202
f 805/805/202 806/806/202 807/807/202
f 809/809/203 811/811/203 810/810/203
f 809/809/203 812/812/203 811/811/203
f 813/813/204 815/815/204 816/816/204
f 813/813/204 814/814/204 815/815/204
f 817/817/205 819/819/205 818/818/205
f 817/817/205 820/820/205 819/819/205
f 821/821/206 823/823/206 824/824/206
f 821/821/206 822/822/206 823/823/206
f 825/825/207 827/827/207 826/826/207
f 825/825/207 828/828/207 827/827/207
f 829/829/208 831/831/208 832/832/208
f 829/829/208 830/830/208 831/831/208
f 833/833/209 835/835/209 834/834/209
f 833/833/209 836/836/209 835/835/209
f 837/837/210 839/839/210 840/840/210
f 837/837/210 838/838/210 839/839/210
f 841/841/211 843/843/211 842/842/211
f 841/841/211 844/844/211 843/843/211
f 845/845/212 847/847/212 848/848/212
f 845/845/212 846/846/212 847/847/212
f 849/849/213 851/851/213 850/850/213
f 849/849/213 852/852/213 851/851/213
f 853/853/214 855/855/214 856/856/214
f 853/853/214 854/854/214 855/855/214
f 857/857/215 859/859/215 858/858/215
f 857/857/215 860/860/215 859/859/215
f 861/861/216 863/863/216 864/864/216
f 861/861/216 862/862/216 863/863/216
f 865/865/217 867/867/217 866/866/217
f 865/865/217 868/868/217 867/867/217
f 869/869/218 871/871/218 872/872/218
f 869/869/218 870/870/218 871/871/218
f 873/873/219 875/875/219 874/874/219
f 873/873/219 876/876/219 875/875/219
f 877/877/220 879/879/220 880/880/220
f 877/877/220 878/878/220 879/879/220
f 881/881/221 883/883/221 882/882/221
f 881/881/221 884/884/221 883/883/221
f 885/885/222 887/887/222 888/888/222
f 885/885/222 886/886/222 887/887/222
f 889/889/223 891/891/223 890/890/223
f 889/889/223 892/892/223 891/891/223
f 893/893/224 895/895/224 896/896/224
f 893/893/224 894/894/224 895/895/224
f 897/897/225 899/899/225 898/898/225
f 897/897/225 900/900/225 899/899/225
f 901/901/226 903/903/226 904/904/226
f 901/901/226 902/902/226 903/903/226
f 905/905/227 907/907/227 906/906/227
f 905/905/227 908/908/227 907/907/227
f 909/909/228 911/911/228 912/912/228
f 909/909/228 910/910/228 911/911/228
f 913/913/229 915/915/229 914/914/229
f 913/913/229 916/916/229 915/915/229
f 917/917/230 919/919/230 920/920/230
f 917/917/230 918/918/230 919/919/230
f 921/921/231 923/923/231 922/922/231
f 921/921/231 924/924/231 923/923/231
f 925/925/232 927/927/232 928/928/232
f 925/925/232 926/926/232 927/927/232
