# JudeanFloraV1; canonical UE cm (X east, +Y south, Z up), written with Y reflected and triangle winding reversed for the legacy OBJ importer adapter. One o object, no g groups, so the importer creates exactly one material slot.
# date palm (Phoenix dactylifera), StreetTreesV1 seed 1, LOD0 bark
# height 9.0-16.0 m, crown 5.5-8.5 m; source: Zohary, M., Plants of the Bible (Cambridge University Press, 1982), species entry Phoenix dactylifera; 9-16 m with a 5.5-8.5 m crown of pinnate fronds
# branching is recursive with da Vinci child radii; leaf sprays are anchored to branch tips. Stylised habit, not a survey of any tree.
o SM_StreetTreesV1_DatePalm_S1_L0_Bark
s off
v 0.00000 26.57120 0.66428
v 13.85397 19.06568 0.36841
v 25.27784 8.21589 0.00791
v 22.41619 -7.27703 -0.35705
v 15.62256 -21.49350 -0.65939
v 0.00000 -23.56314 -0.58908
v -15.62256 -21.49960 -0.41544
v -22.41619 -7.28579 -0.00702
v -25.27784 8.20602 0.40263
v -13.85397 19.06027 0.58474
v 1.04967 21.38332 134.97582
v 13.94886 14.39694 134.59962
v 24.58543 4.29603 134.18090
v 21.92100 -10.13100 133.86185
v 15.59557 -23.37016 133.62971
v 1.04967 -25.30018 133.80874
v -13.49623 -23.38151 134.08398
v -19.82167 -10.14730 134.51367
v -22.48610 4.27766 134.91593
v -11.84953 14.38687 135.00246
v 4.19866 19.92393 269.38058
v 18.08309 12.40661 268.75876
v 29.53208 1.53468 268.12918
v 26.66414 -14.00108 267.83041
v 19.85558 -28.25931 267.68672
v 4.19866 -30.34361 268.12389
v -11.45825 -28.28376 268.66467
v -18.26682 -14.03616 269.23363
v -21.13475 1.49513 269.71153
v -9.68577 12.38493 269.62599
v 9.44700 11.74032 403.61723
v 20.81011 5.58877 402.93080
v 30.18003 -3.31066 402.26910
v 27.83290 -16.03389 402.06104
v 22.26072 -27.71220 402.03028
v 9.44700 -29.42405 402.58812
v -3.36673 -27.74222 403.23081
v -8.93891 -16.07696 403.78364
v -11.28604 -3.35922 404.21161
v -1.91612 5.56215 403.99542
v 16.79466 12.07713 538.06689
v 30.07133 4.88870 537.05739
v 41.01917 -5.51399 536.11308
v 38.27677 -20.39357 535.91249
v 31.76623 -34.05268 535.97793
v 16.79466 -36.06033 536.86346
v 1.82309 -34.09944 537.84820
v -4.68745 -20.46066 538.59608
v -7.42985 -5.58965 539.13926
v 3.51798 4.84723 538.71594
v 26.24165 3.48964 672.29345
v 36.78590 -2.22151 671.32690
v 45.48060 -10.48891 670.44094
v 43.30261 -22.31994 670.31532
v 38.13198 -33.18179 670.44773
v 26.24165 -34.78262 671.33664
v 14.35133 -33.22821 672.30443
v 9.18070 -22.38654 672.97943
v 7.00270 -10.56402 673.44515
v 15.69740 -2.26268 672.97341
v 37.78798 2.87167 806.71924
v 49.74112 -3.60657 805.43668
v 59.59758 -12.98731 804.27812
v 57.12857 -26.41799 804.17382
v 51.26705 -38.74985 804.41504
v 37.78798 -40.57222 805.63314
v 24.30891 -38.81299 806.94079
v 18.44740 -26.50860 807.79791
v 15.97839 -13.08948 808.36486
v 25.83484 -3.66257 807.67649
v 51.43364 -3.64292 940.99762
v 61.73240 -9.22933 939.73153
v 70.22466 -17.32113 938.60039
v 68.09738 -28.91193 938.54330
v 63.04713 -39.55563 938.82957
v 51.43364 -41.13273 940.06037
v 39.82015 -39.61910 941.36844
v 34.76990 -29.00300 942.18621
v 32.64262 -17.42383 942.70836
v 41.13489 -9.28562 941.98298
v 67.17863 -7.05565 1075.35354
v 77.44054 -12.62495 1074.01174
v 85.90243 -20.69321 1072.81841
v 83.78275 -32.25304 1072.77781
v 78.75058 -42.86890 1073.10212
v 67.17863 -44.44396 1074.41883
v 55.60669 -42.93666 1075.81260
v 50.57451 -32.35027 1076.66697
v 48.45484 -20.80285 1077.20406
v 56.91672 -12.68504 1076.41537
vt 0.00000 0.00000
vt 0.10000 0.00000
vt 0.20000 0.00000
vt 0.30000 0.00000
vt 0.40000 0.00000
vt 0.50000 0.00000
vt 0.60000 0.00000
vt 0.70000 0.00000
vt 0.80000 0.00000
vt 0.90000 0.00000
vt 0.00000 0.12500
vt 0.10000 0.12500
vt 0.20000 0.12500
vt 0.30000 0.12500
vt 0.40000 0.12500
vt 0.50000 0.12500
vt 0.60000 0.12500
vt 0.70000 0.12500
vt 0.80000 0.12500
vt 0.90000 0.12500
vt 0.00000 0.25000
vt 0.10000 0.25000
vt 0.20000 0.25000
vt 0.30000 0.25000
vt 0.40000 0.25000
vt 0.50000 0.25000
vt 0.60000 0.25000
vt 0.70000 0.25000
vt 0.80000 0.25000
vt 0.90000 0.25000
vt 0.00000 0.37500
vt 0.10000 0.37500
vt 0.20000 0.37500
vt 0.30000 0.37500
vt 0.40000 0.37500
vt 0.50000 0.37500
vt 0.60000 0.37500
vt 0.70000 0.37500
vt 0.80000 0.37500
vt 0.90000 0.37500
vt 0.00000 0.50000
vt 0.10000 0.50000
vt 0.20000 0.50000
vt 0.30000 0.50000
vt 0.40000 0.50000
vt 0.50000 0.50000
vt 0.60000 0.50000
vt 0.70000 0.50000
vt 0.80000 0.50000
vt 0.90000 0.50000
vt 0.00000 0.62500
vt 0.10000 0.62500
vt 0.20000 0.62500
vt 0.30000 0.62500
vt 0.40000 0.62500
vt 0.50000 0.62500
vt 0.60000 0.62500
vt 0.70000 0.62500
vt 0.80000 0.62500
vt 0.90000 0.62500
vt 0.00000 0.75000
vt 0.10000 0.75000
vt 0.20000 0.75000
vt 0.30000 0.75000
vt 0.40000 0.75000
vt 0.50000 0.75000
vt 0.60000 0.75000
vt 0.70000 0.75000
vt 0.80000 0.75000
vt 0.90000 0.75000
vt 0.00000 0.87500
vt 0.10000 0.87500
vt 0.20000 0.87500
vt 0.30000 0.87500
vt 0.40000 0.87500
vt 0.50000 0.87500
vt 0.60000 0.87500
vt 0.70000 0.87500
vt 0.80000 0.87500
vt 0.90000 0.87500
vt 0.00000 1.00000
vt 0.10000 1.00000
vt 0.20000 1.00000
vt 0.30000 1.00000
vt 0.40000 1.00000
vt 0.50000 1.00000
vt 0.60000 1.00000
vt 0.70000 1.00000
vt 0.80000 1.00000
vt 0.90000 1.00000
vn 0.4766 0.8786 0.0302
vn 0.4767 0.8785 0.0302
vn 0.6889 0.7245 0.0247
vn 0.6889 0.7244 0.0247
vn 0.9834 -0.1816 -0.0002
vn 0.9023 -0.4311 -0.0058
vn 0.9023 -0.4310 -0.0058
vn 0.1313 -0.9913 -0.0138
vn 0.1314 -0.9912 -0.0138
vn -0.1311 -0.9913 -0.0118
vn -0.1310 -0.9913 -0.0118
vn -0.9021 -0.4314 0.0082
vn -0.9832 -0.1820 0.0151
vn -0.6887 0.7242 0.0354
vn -0.6886 0.7242 0.0354
vn -0.4764 0.8784 0.0377
vn -0.4764 0.8784 0.0376
vn 0.4762 0.8793 -0.0016
vn 0.4761 0.8794 -0.0016
vn 0.6884 0.7253 -0.0105
vn 0.6883 0.7254 -0.0104
vn 0.9827 -0.1806 -0.0400
vn 0.9017 -0.4300 -0.0443
vn 0.9017 -0.4301 -0.0443
vn 0.1309 -0.9906 -0.0403
vn 0.1307 -0.9906 -0.0403
vn -0.1313 -0.9908 -0.0341
vn -0.1315 -0.9907 -0.0341
vn -0.9023 -0.4312 -0.0020
vn -0.9023 -0.4311 -0.0020
vn -0.9833 -0.1818 0.0061
vn -0.6888 0.7246 0.0218
vn -0.6889 0.7245 0.0219
vn -0.4766 0.8789 0.0207
vn -0.4768 0.8788 0.0207
vn 0.4770 0.8782 0.0349
vn 0.4774 0.8780 0.0349
vn 0.6891 0.7243 0.0228
vn 0.6893 0.7241 0.0228
vn 0.9834 -0.1813 -0.0113
vn 0.9834 -0.1812 -0.0113
vn 0.9024 -0.4307 -0.0144
vn 0.9024 -0.4306 -0.0144
vn 0.1320 -0.9912 0.0016
vn 0.1325 -0.9912 0.0017
vn -0.1300 -0.9914 0.0118
vn -0.1295 -0.9915 0.0118
vn -0.9000 -0.4323 0.0558
vn -0.8999 -0.4325 0.0559
vn -0.9809 -0.1831 0.0652
vn -0.9809 -0.1832 0.0652
vn -0.6869 0.7227 0.0764
vn -0.6866 0.7230 0.0764
vn -0.4750 0.8771 0.0720
vn -0.4746 0.8773 0.0720
vn 0.4746 0.8798 -0.0282
vn 0.4743 0.8799 -0.0281
vn 0.6864 0.7259 -0.0436
vn 0.6862 0.7261 -0.0436
vn 0.9803 -0.1795 -0.0823
vn 0.9803 -0.1796 -0.0823
vn 0.8994 -0.4289 -0.0841
vn 0.8993 -0.4291 -0.0841
vn 0.1298 -0.9900 -0.0560
vn 0.1294 -0.9900 -0.0560
vn -0.1321 -0.9904 -0.0417
vn -0.1324 -0.9903 -0.0417
vn -0.9020 -0.4315 0.0144
vn -0.9021 -0.4314 0.0144
vn -0.9829 -0.1823 0.0251
vn -0.9829 -0.1822 0.0251
vn -0.6888 0.7242 0.0316
vn -0.6890 0.7240 0.0317
vn -0.4769 0.8786 0.0239
vn -0.4772 0.8785 0.0239
vn 0.4773 0.8784 0.0226
vn 0.4777 0.8782 0.0226
vn 0.6890 0.7247 0.0040
vn 0.6893 0.7245 0.0039
vn 0.9828 -0.1806 -0.0393
vn 0.9828 -0.1805 -0.0393
vn 0.9019 -0.4301 -0.0399
vn 0.9020 -0.4299 -0.0399
vn 0.1329 -0.9911 0.0001
vn 0.1334 -0.9911 0.0001
vn -0.1287 -0.9915 0.0184
vn -0.1281 -0.9916 0.0184
vn -0.8972 -0.4330 0.0864
vn -0.8971 -0.4332 0.0864
vn -0.9780 -0.1839 0.0983
vn -0.9780 -0.1840 0.0983
vn -0.6845 0.7221 0.1003
vn -0.6842 0.7223 0.1003
vn -0.4730 0.8765 0.0894
vn -0.4726 0.8768 0.0893
vn 0.4733 0.8801 -0.0366
vn 0.4731 0.8802 -0.0366
vn 0.6847 0.7264 -0.0587
vn 0.6846 0.7266 -0.0586
vn 0.9781 -0.1789 -0.1065
vn 0.9781 -0.1790 -0.1065
vn 0.8973 -0.4285 -0.1058
vn 0.8973 -0.4286 -0.1058
vn 0.1293 -0.9901 -0.0538
vn 0.1290 -0.9902 -0.0538
vn -0.1321 -0.9907 -0.0313
vn -0.1323 -0.9907 -0.0313
vn -0.9004 -0.4324 0.0487
vn -0.9004 -0.4323 0.0487
vn -0.9811 -0.1832 0.0618
vn -0.9811 -0.1831 0.0618
vn -0.6877 0.7236 0.0593
vn -0.6878 0.7235 0.0593
vn -0.4762 0.8782 0.0449
vn -0.4764 0.8781 0.0450
vn 0.4760 0.8794 -0.0057
vn 0.4763 0.8793 -0.0057
vn 0.6872 0.7258 -0.0309
vn 0.6873 0.7257 -0.0310
vn 0.9802 -0.1795 -0.0833
vn 0.8996 -0.4292 -0.0814
vn 0.8996 -0.4290 -0.0814
vn 0.1324 -0.9910 -0.0176
vn 0.1327 -0.9910 -0.0176
vn -0.1286 -0.9917 0.0089
vn -0.1283 -0.9917 0.0089
vn -0.8955 -0.4336 0.1007
vn -0.8954 -0.4337 0.1007
vn -0.9761 -0.1845 0.1151
vn -0.6832 0.7222 0.1081
vn -0.6830 0.7224 0.1080
vn -0.4721 0.8769 0.0905
vn -0.4719 0.8770 0.0905
vn 0.4734 0.8802 -0.0331
vn 0.6842 0.7267 -0.0617
vn 0.9767 -0.1787 -0.1186
vn 0.8962 -0.4283 -0.1154
vn 0.8962 -0.4284 -0.1154
vn 0.1303 -0.9907 -0.0397
vn -0.1303 -0.9914 -0.0092
vn -0.1302 -0.9914 -0.0092
vn -0.8961 -0.4336 0.0945
vn -0.9767 -0.1844 0.1102
vn -0.6841 0.7227 0.0986
vn -0.4733 0.8775 0.0778
vn 0.1164 -0.0248 0.9929
vn -0.0078 0.0250 -0.9997
f 1/1/1 12/12/1 2/2/1
f 1/1/2 11/11/2 12/12/2
f 2/2/3 13/13/3 3/3/3
f 2/2/4 12/12/4 13/13/4
f 3/3/5 14/14/5 4/4/5
f 3/3/5 13/13/5 14/14/5
f 4/4/6 15/15/6 5/5/6
f 4/4/7 14/14/7 15/15/7
f 5/5/8 16/16/8 6/6/8
f 5/5/9 15/15/9 16/16/9
f 6/6/10 17/17/10 7/7/10
f 6/6/11 16/16/11 17/17/11
f 7/7/12 18/18/12 8/8/12
f 7/7/12 17/17/12 18/18/12
f 8/8/13 19/19/13 9/9/13
f 8/8/13 18/18/13 19/19/13
f 9/9/14 20/20/14 10/10/14
f 9/9/15 19/19/15 20/20/15
f 10/10/16 11/11/16 1/1/16
f 10/10/17 20/20/17 11/11/17
f 11/11/18 22/22/18 12/12/18
f 11/11/19 21/21/19 22/22/19
f 12/12/20 23/23/20 13/13/20
f 12/12/21 22/22/21 23/23/21
f 13/13/22 24/24/22 14/14/22
f 13/13/22 23/23/22 24/24/22
f 14/14/23 25/25/23 15/15/23
f 14/14/24 24/24/24 25/25/24
f 15/15/25 26/26/25 16/16/25
f 15/15/26 25/25/26 26/26/26
f 16/16/27 27/27/27 17/17/27
f 16/16/28 26/26/28 27/27/28
f 17/17/29 28/28/29 18/18/29
f 17/17/30 27/27/30 28/28/30
f 18/18/31 29/29/31 19/19/31
f 18/18/31 28/28/31 29/29/31
f 19/19/32 30/30/32 20/20/32
f 19/19/33 29/29/33 30/30/33
f 20/20/34 21/21/34 11/11/34
f 20/20/35 30/30/35 21/21/35
f 21/21/36 32/32/36 22/22/36
f 21/21/37 31/31/37 32/32/37
f 22/22/38 33/33/38 23/23/38
f 22/22/39 32/32/39 33/33/39
f 23/23/40 34/34/40 24/24/40
f 23/23/41 33/33/41 34/34/41
f 24/24/42 35/35/42 25/25/42
f 24/24/43 34/34/43 35/35/43
f 25/25/44 36/36/44 26/26/44
f 25/25/45 35/35/45 36/36/45
f 26/26/46 37/37/46 27/27/46
f 26/26/47 36/36/47 37/37/47
f 27/27/48 38/38/48 28/28/48
f 27/27/49 37/37/49 38/38/49
f 28/28/50 39/39/50 29/29/50
f 28/28/51 38/38/51 39/39/51
f 29/29/52 40/40/52 30/30/52
f 29/29/53 39/39/53 40/40/53
f 30/30/54 31/31/54 21/21/54
f 30/30/55 40/40/55 31/31/55
f 31/31/56 42/42/56 32/32/56
f 31/31/57 41/41/57 42/42/57
f 32/32/58 43/43/58 33/33/58
f 32/32/59 42/42/59 43/43/59
f 33/33/60 44/44/60 34/34/60
f 33/33/61 43/43/61 44/44/61
f 34/34/62 45/45/62 35/35/62
f 34/34/63 44/44/63 45/45/63
f 35/35/64 46/46/64 36/36/64
f 35/35/65 45/45/65 46/46/65
f 36/36/66 47/47/66 37/37/66
f 36/36/67 46/46/67 47/47/67
f 37/37/68 48/48/68 38/38/68
f 37/37/69 47/47/69 48/48/69
f 38/38/70 49/49/70 39/39/70
f 38/38/71 48/48/71 49/49/71
f 39/39/72 50/50/72 40/40/72
f 39/39/73 49/49/73 50/50/73
f 40/40/74 41/41/74 31/31/74
f 40/40/75 50/50/75 41/41/75
f 41/41/76 52/52/76 42/42/76
f 41/41/77 51/51/77 52/52/77
f 42/42/78 53/53/78 43/43/78
f 42/42/79 52/52/79 53/53/79
f 43/43/80 54/54/80 44/44/80
f 43/43/81 53/53/81 54/54/81
f 44/44/82 55/55/82 45/45/82
f 44/44/83 54/54/83 55/55/83
f 45/45/84 56/56/84 46/46/84
f 45/45/85 55/55/85 56/56/85
f 46/46/86 57/57/86 47/47/86
f 46/46/87 56/56/87 57/57/87
f 47/47/88 58/58/88 48/48/88
f 47/47/89 57/57/89 58/58/89
f 48/48/90 59/59/90 49/49/90
f 48/48/91 58/58/91 59/59/91
f 49/49/92 60/60/92 50/50/92
f 49/49/93 59/59/93 60/60/93
f 50/50/94 51/51/94 41/41/94
f 50/50/95 60/60/95 51/51/95
f 51/51/96 62/62/96 52/52/96
f 51/51/97 61/61/97 62/62/97
f 52/52/98 63/63/98 53/53/98
f 52/52/99 62/62/99 63/63/99
f 53/53/100 64/64/100 54/54/100
f 53/53/101 63/63/101 64/64/101
f 54/54/102 65/65/102 55/55/102
f 54/54/103 64/64/103 65/65/103
f 55/55/104 66/66/104 56/56/104
f 55/55/105 65/65/105 66/66/105
f 56/56/106 67/67/106 57/57/106
f 56/56/107 66/66/107 67/67/107
f 57/57/108 68/68/108 58/58/108
f 57/57/109 67/67/109 68/68/109
f 58/58/110 69/69/110 59/59/110
f 58/58/111 68/68/111 69/69/111
f 59/59/112 70/70/112 60/60/112
f 59/59/113 69/69/113 70/70/113
f 60/60/114 61/61/114 51/51/114
f 60/60/115 70/70/115 61/61/115
f 61/61/116 72/72/116 62/62/116
f 61/61/117 71/71/117 72/72/117
f 62/62/118 73/73/118 63/63/118
f 62/62/119 72/72/119 73/73/119
f 63/63/120 74/74/120 64/64/120
f 63/63/120 73/73/120 74/74/120
f 64/64/121 75/75/121 65/65/121
f 64/64/122 74/74/122 75/75/122
f 65/65/123 76/76/123 66/66/123
f 65/65/124 75/75/124 76/76/124
f 66/66/125 77/77/125 67/67/125
f 66/66/126 76/76/126 77/77/126
f 67/67/127 78/78/127 68/68/127
f 67/67/128 77/77/128 78/78/128
f 68/68/129 79/79/129 69/69/129
f 68/68/129 78/78/129 79/79/129
f 69/69/130 80/80/130 70/70/130
f 69/69/131 79/79/131 80/80/131
f 70/70/132 71/71/132 61/61/132
f 70/70/133 80/80/133 71/71/133
f 71/71/134 82/82/134 72/72/134
f 71/71/134 81/81/134 82/82/134
f 72/72/135 83/83/135 73/73/135
f 72/72/135 82/82/135 83/83/135
f 73/73/136 84/84/136 74/74/136
f 73/73/136 83/83/136 84/84/136
f 74/74/137 85/85/137 75/75/137
f 74/74/138 84/84/138 85/85/138
f 75/75/139 86/86/139 76/76/139
f 75/75/139 85/85/139 86/86/139
f 76/76/140 87/87/140 77/77/140
f 76/76/141 86/86/141 87/87/141
f 77/77/142 88/88/142 78/78/142
f 77/77/142 87/87/142 88/88/142
f 78/78/143 89/89/143 79/79/143
f 78/78/143 88/88/143 89/89/143
f 79/79/144 90/90/144 80/80/144
f 79/79/144 89/89/144 90/90/144
f 80/80/145 81/81/145 71/71/145
f 80/80/145 90/90/145 81/81/145
f 81/81/146 83/83/146 82/82/146
f 81/81/146 84/84/146 83/83/146
f 81/81/146 85/85/146 84/84/146
f 81/81/146 86/86/146 85/85/146
f 81/81/146 87/87/146 86/86/146
f 81/81/146 88/88/146 87/87/146
f 81/81/146 89/89/146 88/88/146
f 81/81/146 90/90/146 89/89/146
f 10/10/147 8/8/147 9/9/147
f 10/10/147 7/7/147 8/8/147
f 10/10/147 6/6/147 7/7/147
f 10/10/147 5/5/147 6/6/147
f 10/10/147 4/4/147 5/5/147
f 10/10/147 3/3/147 4/4/147
f 10/10/147 2/2/147 3/3/147
f 10/10/147 1/1/147 2/2/147
