# JudeanFloraV1; canonical UE cm (X east, +Y south, Z up), written with Y reflected and triangle winding reversed for the legacy OBJ importer adapter. One o object, no g groups, so the importer creates exactly one material slot.
# Italian cypress (Cupressus sempervirens), StreetTreesV1 seed 0, LOD1 bark
# height 10.0-19.0 m, crown 1.8-3.8 m; source: Zohary, M., Plants of the Bible (Cambridge University Press, 1982), species entry Cupressus sempervirens; the columnar form is 1.8-3.8 m across at 10-19 m
# branching is recursive with da Vinci child radii; leaf sprays are anchored to branch tips. Stylised habit, not a survey of any tree.
o SM_StreetTreesV1_Cypress_S0_L1_Bark
s off
v 0.00000 28.59748 -0.03399
v 23.55797 13.60132 0.04770
v 24.76607 -14.29866 0.08413
v 0.00000 -27.20248 0.03233
v -24.76607 -14.29882 -0.05015
v -23.55797 13.60116 -0.08003
v 0.12997 22.72845 77.46035
v 18.60045 10.57957 77.27190
v 19.22449 -11.51972 77.12608
v -0.53263 -21.44154 77.18030
v -19.98327 -10.93307 77.36405
v -18.69663 11.13764 77.49828
v 1.47018 17.22038 154.69064
v 16.19116 7.22069 154.54177
v 16.42427 -10.57434 154.46529
v 0.40356 -18.32372 154.54900
v -15.12368 -9.62856 154.69824
v -13.82394 8.12051 154.76340
v 1.58440 14.36149 231.96544
v 13.52769 5.98725 232.05988
v 13.49678 -8.59964 232.03483
v 0.27328 -14.75601 231.90407
v -12.34338 -7.43560 231.80171
v -11.06317 7.09501 231.83803
v 0.26191 11.14448 309.37436
v 10.09609 4.03134 309.35662
v 9.88463 -8.10316 309.22377
v -1.19232 -13.06249 309.10311
v -11.59580 -6.81143 309.10807
v -10.35304 5.26105 309.24647
v 0.75862 8.14119 386.56470
v 8.90818 2.06357 386.54920
v 8.57463 -8.09720 386.52971
v -0.76353 -12.11610 386.52624
v -9.39626 -6.74686 386.54060
v -8.20765 3.34966 386.55957
v 0.36570 7.05912 463.69185
v 7.06936 1.90825 463.83026
v 6.66121 -6.53544 463.99523
v -1.15284 -9.76498 464.01673
v -8.26250 -5.19052 463.88753
v -7.15212 3.18989 463.72763
v -0.12687 7.78754 540.92703
v 5.24000 3.54074 541.08913
v 4.80318 -3.28794 541.29710
v -1.56061 -5.81091 541.33791
v -7.25865 -2.01951 541.18793
v -6.26173 4.75027 540.98503
v -0.86078 7.18863 540.86658
v 5.19525 2.79304 541.06292
v 2.88205 -4.31997 541.36212
v -4.60362 -4.32046 541.35071
v -6.91681 2.79225 541.04445
v -1.10768 12.74708 702.44131
v 3.69676 9.26297 702.65497
v 1.86163 3.62700 703.02309
v -4.07699 3.62790 703.03695
v -5.91212 9.26442 702.67739
v -0.10445 25.38297 863.57479
v 3.44815 22.81808 863.86893
v 2.09118 18.65937 864.25599
v -2.30007 18.65403 864.20107
v -3.65704 22.80945 863.78006
v -5.17249 41.40111 1024.44190
v -2.87232 39.74648 1024.69278
v -3.75091 37.05378 1024.95536
v -6.59407 37.04423 1024.86676
v -7.47265 39.73103 1024.54942
v -5.17249 41.20502 1024.26346
v -2.91988 38.99291 1024.68908
v -5.17249 36.78563 1025.13902
v -7.42509 38.99773 1024.71340
v -4.44460 66.46716 1154.17950
v -2.65752 64.70140 1154.45489
v -4.44460 62.93334 1154.71516
v -6.23168 64.69911 1154.43977
v -6.30302 79.91062 1285.81314
v -4.98168 78.60143 1285.99495
v -6.30302 77.28665 1286.13057
v -7.62436 78.59584 1285.94876
v -9.10055 97.31069 1416.88437
v -8.24474 96.46498 1417.01794
v -9.10055 95.61438 1417.11563
v -9.95636 96.46009 1416.98206
v -5.17249 39.61687 1024.76462
v -4.55430 39.00450 1024.61127
v -5.17249 38.37378 1024.63787
v -5.79068 38.98615 1024.79121
v 7.32021 30.82628 1109.70554
v 7.81309 30.33848 1109.60332
v 7.32021 29.84008 1109.60513
v 6.82732 30.32788 1109.70735
v 13.02155 21.98801 1195.35479
v 13.38777 21.62348 1195.31366
v 13.02155 21.25681 1195.30250
v 12.65533 21.62134 1195.34363
v 14.38936 18.27684 1281.55678
v 14.62674 18.03979 1281.54316
v 14.38936 17.80242 1281.53706
v 14.15197 18.03948 1281.55068
v -5.17249 39.61993 1024.68687
v -4.56086 38.99826 1024.82869
v -5.17249 38.37072 1024.71562
v -5.78411 38.99239 1024.57379
v -25.08483 41.68885 1120.20467
v -24.59995 41.19438 1120.31303
v -25.08483 40.69761 1120.21580
v -25.56970 41.19207 1120.10744
v -45.64906 41.50519 1215.61384
v -45.28797 41.13744 1215.66917
v -45.64906 40.77228 1215.59875
v -46.01016 41.14003 1215.54342
v -58.53858 37.47762 1312.26970
v -58.30325 37.23913 1312.29146
v -58.53858 37.00318 1312.25056
v -58.77391 37.24166 1312.22880
v -0.86078 2.57025 541.41855
v 0.79149 1.41357 540.92612
v 0.16038 -0.55414 540.72561
v -1.88194 -0.61358 541.09412
v -2.51306 1.31740 541.52238
v 15.41404 -11.96856 629.27279
v 16.72482 -12.88548 628.88039
v 16.22414 -14.44627 628.71865
v 14.60393 -14.49395 629.01109
v 14.10326 -12.96264 629.35357
v 31.70746 -26.80723 717.03315
v 32.68233 -27.49966 716.80142
v 32.30996 -28.65585 716.71136
v 31.10495 -28.67798 716.88743
v 30.73258 -27.53547 717.08631
v 41.75558 -34.99178 806.58289
v 42.38990 -35.44759 806.47197
v 42.14761 -36.19742 806.43367
v 41.36355 -36.20504 806.52091
v 41.12126 -35.45991 806.61314
v 41.75558 -35.03651 806.55861
v 42.37185 -35.65474 806.42196
v 41.75558 -36.28419 806.49042
v 41.13931 -35.66595 806.62708
v 55.70539 -39.73382 890.13556
v 56.19543 -40.22243 890.02392
v 55.70539 -40.72228 890.06064
v 55.21535 -40.23367 890.17227
v 67.21693 -47.97178 973.79984
v 67.57974 -48.33382 973.72246
v 67.21693 -48.70308 973.74901
v 66.85412 -48.34104 973.82639
v 79.81461 -51.63413 1057.62245
v 80.04939 -51.86985 1057.57723
v 79.81461 -52.10853 1057.60245
v 79.57983 -51.87282 1057.64766
v 41.75558 -35.49308 806.56977
v 41.92831 -35.66394 806.53780
v 41.75558 -35.82761 806.47926
v 41.58285 -35.65675 806.51123
v 38.22924 -47.08494 849.27601
v 38.36628 -47.22052 849.25086
v 38.22924 -47.35050 849.20482
v 38.09220 -47.21492 849.22997
v 34.77000 -58.47765 892.03874
v 34.87156 -58.57753 892.01932
v 34.77000 -58.67536 891.99132
v 34.66844 -58.57547 892.01074
v 34.37897 -67.82090 935.43218
v 34.44482 -67.88540 935.41894
v 34.37897 -67.94966 935.40456
v 34.31313 -67.88516 935.41780
v 41.75558 -35.48726 806.51641
v 41.92857 -35.66082 806.51453
v 41.75558 -35.83344 806.53262
v 41.58259 -35.65988 806.53450
v 44.41193 -33.37242 852.42866
v 44.54898 -33.51020 852.42318
v 44.41193 -33.64716 852.43912
v 44.27488 -33.50939 852.44461
v 48.93387 -32.06772 898.22303
v 49.03524 -32.16964 898.22044
v 48.93387 -32.27079 898.23312
v 48.83250 -32.16888 898.23571
v 51.33474 -28.88983 944.08478
v 51.40050 -28.95576 944.08596
v 51.33474 -29.02120 944.09399
v 51.26899 -28.95528 944.09281
v -0.86078 2.59274 541.14981
v 0.77578 1.36977 541.51918
v 0.15067 -0.60370 541.36089
v -1.87223 -0.60041 540.89368
v -2.49734 1.37510 540.76323
v -24.77463 1.49725 644.71720
v -23.46649 0.52179 644.94106
v -23.96615 -1.04097 644.79612
v -25.58311 -1.03134 644.48268
v -26.08277 0.53736 644.43390
v -41.28810 -4.53760 749.56103
v -40.31555 -5.26214 749.67380
v -40.68703 -6.41436 749.53983
v -41.88918 -6.40192 749.34426
v -42.26066 -5.24202 749.35736
v -58.96626 -12.54873 854.04924
v -58.33689 -13.01897 854.12129
v -58.57729 -13.76434 854.02609
v -59.35524 -13.75476 853.89519
v -59.59563 -13.00348 853.90950
v -58.96626 -12.59329 853.99731
v -58.35787 -13.21738 854.14235
v -58.96626 -13.84282 854.00321
v -59.57466 -13.21873 853.85818
v -83.88227 -12.21893 960.69819
v -83.39767 -12.71679 960.79113
v -83.88227 -13.20998 960.67596
v -84.36687 -12.71212 960.58302
v -104.95414 -17.65397 1068.08796
v -104.59160 -18.02276 1068.12328
v -104.95414 -18.38609 1068.05084
v -105.31668 -18.01730 1068.01552
v -116.10025 -23.43834 1176.92526
v -115.86407 -23.67669 1176.93707
v -116.10025 -23.91253 1176.90063
v -116.33643 -23.67418 1176.88882
v -58.96626 -13.04499 853.99171
v -58.79299 -13.21799 854.00156
v -58.96626 -13.39112 854.00881
v -59.13954 -13.21812 853.99896
v -59.39515 -10.25807 911.11109
v -59.25770 -10.39548 911.11561
v -59.39515 -10.53264 911.12530
v -59.53259 -10.39522 911.12078
v -56.80982 -7.20963 968.16210
v -56.70818 -7.31129 968.16390
v -56.80982 -7.41282 968.16923
v -56.91146 -7.31116 968.16744
v -57.40276 -6.31951 1025.34328
v -57.33692 -6.38534 1025.34503
v -57.40276 -6.45119 1025.34541
v -57.46861 -6.38536 1025.34366
v -58.96626 -13.05144 854.04784
v -58.79414 -13.22354 854.01947
v -58.96626 -13.38468 853.95268
v -59.13839 -13.21257 853.98105
v -65.05023 -27.47696 904.43720
v -64.91328 -27.61265 904.41208
v -65.05023 -27.74191 904.36378
v -65.18717 -27.60622 904.38890
v -68.19745 -41.18172 955.29420
v -68.09589 -41.28108 955.27229
v -68.19745 -41.37825 955.24213
v -68.29902 -41.27889 955.26404
v -69.47928 -54.54500 1006.32411
v -69.41345 -54.60912 1006.30902
v -69.47928 -54.67242 1006.29084
v -69.54511 -54.60831 1006.30593
vt 0.00000 0.00000
vt 0.16667 0.00000
vt 0.33333 0.00000
vt 0.50000 0.00000
vt 0.66667 0.00000
vt 0.83333 0.00000
vt 0.00000 0.14286
vt 0.16667 0.14286
vt 0.33333 0.14286
vt 0.50000 0.14286
vt 0.66667 0.14286
vt 0.83333 0.14286
vt 0.00000 0.28571
vt 0.16667 0.28571
vt 0.33333 0.28571
vt 0.50000 0.28571
vt 0.66667 0.28571
vt 0.83333 0.28571
vt 0.00000 0.42857
vt 0.16667 0.42857
vt 0.33333 0.42857
vt 0.50000 0.42857
vt 0.66667 0.42857
vt 0.83333 0.42857
vt 0.00000 0.57143
vt 0.16667 0.57143
vt 0.33333 0.57143
vt 0.50000 0.57143
vt 0.66667 0.57143
vt 0.83333 0.57143
vt 0.00000 0.71429
vt 0.16667 0.71429
vt 0.33333 0.71429
vt 0.50000 0.71429
vt 0.66667 0.71429
vt 0.83333 0.71429
vt 0.00000 0.85714
vt 0.16667 0.85714
vt 0.33333 0.85714
vt 0.50000 0.85714
vt 0.66667 0.85714
vt 0.83333 0.85714
vt 0.00000 1.00000
vt 0.16667 1.00000
vt 0.33333 1.00000
vt 0.50000 1.00000
vt 0.66667 1.00000
vt 0.83333 1.00000
vt 0.00000 0.00000
vt 0.20000 0.00000
vt 0.40000 0.00000
vt 0.60000 0.00000
vt 0.80000 0.00000
vt 0.00000 0.33333
vt 0.20000 0.33333
vt 0.40000 0.33333
vt 0.60000 0.33333
vt 0.80000 0.33333
vt 0.00000 0.66667
vt 0.20000 0.66667
vt 0.40000 0.66667
vt 0.60000 0.66667
vt 0.80000 0.66667
vt 0.00000 1.00000
vt 0.20000 1.00000
vt 0.40000 1.00000
vt 0.60000 1.00000
vt 0.80000 1.00000
vt 0.00000 0.00000
vt 0.25000 0.00000
vt 0.50000 0.00000
vt 0.75000 0.00000
vt 0.00000 0.33333
vt 0.25000 0.33333
vt 0.50000 0.33333
vt 0.75000 0.33333
vt 0.00000 0.66667
vt 0.25000 0.66667
vt 0.50000 0.66667
vt 0.75000 0.66667
vt 0.00000 1.00000
vt 0.25000 1.00000
vt 0.50000 1.00000
vt 0.75000 1.00000
vt 0.00000 0.00000
vt 0.25000 0.00000
vt 0.50000 0.00000
vt 0.75000 0.00000
vt 0.00000 0.33333
vt 0.25000 0.33333
vt 0.50000 0.33333
vt 0.75000 0.33333
vt 0.00000 0.66667
vt 0.25000 0.66667
vt 0.50000 0.66667
vt 0.75000 0.66667
vt 0.00000 1.00000
vt 0.25000 1.00000
vt 0.50000 1.00000
vt 0.75000 1.00000
vt 0.00000 0.00000
vt 0.25000 0.00000
vt 0.50000 0.00000
vt 0.75000 0.00000
vt 0.00000 0.33333
vt 0.25000 0.33333
vt 0.50000 0.33333
vt 0.75000 0.33333
vt 0.00000 0.66667
vt 0.25000 0.66667
vt 0.50000 0.66667
vt 0.75000 0.66667
vt 0.00000 1.00000
vt 0.25000 1.00000
vt 0.50000 1.00000
vt 0.75000 1.00000
vt 0.00000 0.00000
vt 0.20000 0.00000
vt 0.40000 0.00000
vt 0.60000 0.00000
vt 0.80000 0.00000
vt 0.00000 0.33333
vt 0.20000 0.33333
vt 0.40000 0.33333
vt 0.60000 0.33333
vt 0.80000 0.33333
vt 0.00000 0.66667
vt 0.20000 0.66667
vt 0.40000 0.66667
vt 0.60000 0.66667
vt 0.80000 0.66667
vt 0.00000 1.00000
vt 0.20000 1.00000
vt 0.40000 1.00000
vt 0.60000 1.00000
vt 0.80000 1.00000
vt 0.00000 0.00000
vt 0.25000 0.00000
vt 0.50000 0.00000
vt 0.75000 0.00000
vt 0.00000 0.33333
vt 0.25000 0.33333
vt 0.50000 0.33333
vt 0.75000 0.33333
vt 0.00000 0.66667
vt 0.25000 0.66667
vt 0.50000 0.66667
vt 0.75000 0.66667
vt 0.00000 1.00000
vt 0.25000 1.00000
vt 0.50000 1.00000
vt 0.75000 1.00000
vt 0.00000 0.00000
vt 0.25000 0.00000
vt 0.50000 0.00000
vt 0.75000 0.00000
vt 0.00000 0.33333
vt 0.25000 0.33333
vt 0.50000 0.33333
vt 0.75000 0.33333
vt 0.00000 0.66667
vt 0.25000 0.66667
vt 0.50000 0.66667
vt 0.75000 0.66667
vt 0.00000 1.00000
vt 0.25000 1.00000
vt 0.50000 1.00000
vt 0.75000 1.00000
vt 0.00000 0.00000
vt 0.25000 0.00000
vt 0.50000 0.00000
vt 0.75000 0.00000
vt 0.00000 0.33333
vt 0.25000 0.33333
vt 0.50000 0.33333
vt 0.75000 0.33333
vt 0.00000 0.66667
vt 0.25000 0.66667
vt 0.50000 0.66667
vt 0.75000 0.66667
vt 0.00000 1.00000
vt 0.25000 1.00000
vt 0.50000 1.00000
vt 0.75000 1.00000
vt 0.00000 0.00000
vt 0.20000 0.00000
vt 0.40000 0.00000
vt 0.60000 0.00000
vt 0.80000 0.00000
vt 0.00000 0.33333
vt 0.20000 0.33333
vt 0.40000 0.33333
vt 0.60000 0.33333
vt 0.80000 0.33333
vt 0.00000 0.66667
vt 0.20000 0.66667
vt 0.40000 0.66667
vt 0.60000 0.66667
vt 0.80000 0.66667
vt 0.00000 1.00000
vt 0.20000 1.00000
vt 0.40000 1.00000
vt 0.60000 1.00000
vt 0.80000 1.00000
vt 0.00000 0.00000
vt 0.25000 0.00000
vt 0.50000 0.00000
vt 0.75000 0.00000
vt 0.00000 0.33333
vt 0.25000 0.33333
vt 0.50000 0.33333
vt 0.75000 0.33333
vt 0.00000 0.66667
vt 0.25000 0.66667
vt 0.50000 0.66667
vt 0.75000 0.66667
vt 0.00000 1.00000
vt 0.25000 1.00000
vt 0.50000 1.00000
vt 0.75000 1.00000
vt 0.00000 0.00000
vt 0.25000 0.00000
vt 0.50000 0.00000
vt 0.75000 0.00000
vt 0.00000 0.33333
vt 0.25000 0.33333
vt 0.50000 0.33333
vt 0.75000 0.33333
vt 0.00000 0.66667
vt 0.25000 0.66667
vt 0.50000 0.66667
vt 0.75000 0.66667
vt 0.00000 1.00000
vt 0.25000 1.00000
vt 0.50000 1.00000
vt 0.75000 1.00000
vt 0.00000 0.00000
vt 0.25000 0.00000
vt 0.50000 0.00000
vt 0.75000 0.00000
vt 0.00000 0.33333
vt 0.25000 0.33333
vt 0.50000 0.33333
vt 0.75000 0.33333
vt 0.00000 0.66667
vt 0.25000 0.66667
vt 0.50000 0.66667
vt 0.75000 0.66667
vt 0.00000 1.00000
vt 0.25000 1.00000
vt 0.50000 1.00000
vt 0.75000 1.00000
vn 0.5356 0.8418 0.0673
vn 0.5489 0.8336 0.0622
vn 0.9966 0.0432 0.0701
vn 0.9975 0.0277 0.0651
vn 0.4608 -0.8848 0.0693
vn 0.4480 -0.8917 0.0644
vn -0.4612 -0.8848 0.0670
vn -0.4739 -0.8783 0.0623
vn -0.9970 0.0432 0.0639
vn -0.9966 0.0577 0.0591
vn -0.5360 0.8418 0.0646
vn -0.5232 0.8501 0.0598
vn 0.5491 0.8340 0.0534
vn 0.5616 0.8260 0.0492
vn 0.9990 0.0280 0.0358
vn 0.9994 0.0130 0.0317
vn 0.4486 -0.8932 0.0306
vn 0.4354 -0.8998 0.0268
vn -0.4745 -0.8791 0.0446
vn -0.4879 -0.8719 0.0410
vn -0.9962 0.0577 0.0651
vn -0.9955 0.0727 0.0613
vn -0.5229 0.8495 0.0697
vn -0.5100 0.8577 0.0657
vn 0.5618 0.8266 0.0325
vn 0.5737 0.8185 0.0294
vn 0.9992 0.0129 0.0374
vn 0.9994 -0.0022 0.0343
vn 0.4352 -0.8993 0.0422
vn 0.4214 -0.9060 0.0390
vn -0.4878 -0.8719 0.0424
vn -0.5017 -0.8642 0.0390
vn -0.9967 0.0728 0.0367
vn -0.9956 0.0876 0.0334
vn -0.5109 0.8590 0.0325
vn -0.4982 0.8666 0.0294
vn 0.5732 0.8181 0.0462
vn 0.5856 0.8095 0.0436
vn 0.9989 -0.0022 0.0468
vn 0.9989 -0.0179 0.0439
vn 0.4217 -0.9063 0.0279
vn 0.4083 -0.9125 0.0250
vn -0.5019 -0.8648 0.0118
vn -0.5150 -0.8571 0.0090
vn -0.9961 0.0877 0.0112
vn -0.9947 0.1023 0.0088
vn -0.4982 0.8666 0.0275
vn -0.4849 0.8742 0.0252
vn 0.5858 0.8099 0.0297
vn 0.5976 0.8013 0.0273
vn 0.9997 -0.0176 0.0169
vn 0.9994 -0.0328 0.0145
vn 0.4085 -0.9127 0.0089
vn 0.3953 -0.9185 0.0068
vn -0.5150 -0.8571 0.0153
vn -0.5281 -0.8491 0.0133
vn -0.9943 0.1020 0.0301
vn -0.9928 0.1168 0.0281
vn -0.4848 0.8738 0.0371
vn -0.4710 0.8814 0.0349
vn 0.5978 0.8015 0.0158
vn 0.6090 0.7930 0.0142
vn 0.9991 -0.0328 0.0253
vn 0.9986 -0.0478 0.0237
vn 0.3951 -0.9181 0.0298
vn 0.3819 -0.9238 0.0281
vn -0.5280 -0.8489 0.0248
vn -0.5412 -0.8406 0.0228
vn -0.9930 0.1169 0.0138
vn -0.9912 0.1316 0.0119
vn -0.4713 0.8819 0.0100
vn -0.4576 0.8891 0.0081
vn 0.6093 0.7929 -0.0023
vn 0.6206 0.7841 -0.0034
vn 0.9985 -0.0478 0.0260
vn 0.9977 -0.0631 0.0250
vn 0.3816 -0.9230 0.0492
vn 0.3684 -0.9284 0.0479
vn -0.5412 -0.8399 0.0415
vn -0.5543 -0.8314 0.0396
vn -0.9913 0.1315 0.0088
vn -0.9893 0.1459 0.0069
vn -0.4576 0.8891 -0.0113
vn -0.4437 0.8961 -0.0130
vn -0.0058 0.0308 0.9995
vn 0.0027 -0.0012 -1.0000
vn 0.5878 0.8086 -0.0269
vn 0.5876 0.8087 -0.0269
vn 0.9510 -0.3084 0.0212
vn 0.9511 -0.3083 0.0212
vn -0.0000 -0.9988 0.0491
vn -0.9510 -0.3085 0.0183
vn -0.9511 -0.3085 0.0183
vn -0.5878 0.8085 -0.0287
vn -0.5876 0.8086 -0.0287
vn 0.5877 0.8063 -0.0669
vn 0.9510 -0.3079 0.0274
vn 0.9511 -0.3078 0.0273
vn 0.0001 -0.9957 0.0928
vn 0.0000 -0.9957 0.0928
vn -0.9509 -0.3071 0.0391
vn -0.9510 -0.3066 0.0391
vn -0.5878 0.8068 -0.0596
vn -0.5879 0.8068 -0.0596
vn 0.5876 0.8068 -0.0618
vn 0.5873 0.8070 -0.0619
vn 0.9503 -0.3036 0.0693
vn 0.9504 -0.3033 0.0693
vn -0.0002 -0.9935 0.1137
vn -0.9508 -0.3095 0.0100
vn -0.9508 -0.3097 0.0100
vn -0.5875 0.8032 -0.0985
vn -0.5877 0.8031 -0.0985
vn -0.0313 0.1071 0.9938
vn 0.0015 -0.0425 -0.9991
vn 0.7071 0.6934 -0.1388
vn 0.7068 0.6937 -0.1388
vn 0.7071 -0.6939 0.1361
vn 0.7067 -0.6943 0.1361
vn -0.7071 -0.6924 0.1437
vn -0.7067 -0.6928 0.1438
vn -0.7071 0.6949 -0.1312
vn -0.7068 0.6951 -0.1312
vn 0.7063 0.7052 -0.0620
vn 0.7068 0.7047 -0.0620
vn 0.7070 -0.7019 0.0867
vn 0.7071 -0.7017 0.0866
vn -0.7065 -0.7046 0.0670
vn -0.7069 -0.7042 0.0669
vn -0.7070 0.7025 -0.0817
vn -0.7072 0.7023 -0.0817
vn 0.7071 0.7028 -0.0782
vn 0.7069 0.7030 -0.0782
vn 0.7066 -0.6985 0.1128
vn 0.7069 -0.6983 0.1128
vn -0.7071 -0.7022 0.0831
vn -0.7070 -0.7023 0.0832
vn -0.7068 0.6992 -0.1079
vn -0.7070 0.6989 -0.1079
vn -0.0212 0.1351 0.9906
vn -0.0055 -0.1943 -0.9809
vn 0.6998 0.7137 -0.0291
vn 0.7001 0.7135 -0.0291
vn 0.6998 -0.6932 -0.1725
vn 0.7001 -0.6929 -0.1725
vn -0.6995 -0.7139 0.0311
vn -0.6998 -0.7136 0.0312
vn -0.6995 0.6930 0.1746
vn -0.6998 0.6927 0.1746
vn 0.7059 0.7078 0.0261
vn 0.7067 0.7071 0.0259
vn 0.7059 -0.6986 -0.1169
vn 0.7045 -0.7000 -0.1170
vn -0.7057 -0.7081 -0.0240
vn -0.7066 -0.7072 -0.0238
vn -0.7058 0.6984 0.1190
vn -0.7043 0.6998 0.1191
vn 0.7064 0.7075 0.0193
vn 0.7070 0.7069 0.0192
vn 0.7076 -0.7055 -0.0395
vn 0.7070 -0.7061 -0.0395
vn -0.7063 -0.7077 -0.0171
vn -0.7070 -0.7070 -0.0171
vn -0.7076 0.7054 0.0416
vn -0.7070 0.7060 0.0416
vn 0.0158 -0.0415 0.9990
vn -0.1448 0.1004 -0.9844
vn 0.6920 0.7103 0.1289
vn 0.6937 0.7086 0.1293
vn 0.6920 -0.7036 0.1614
vn 0.6903 -0.7053 0.1611
vn -0.6924 -0.7102 -0.1271
vn -0.6941 -0.7085 -0.1275
vn -0.6924 0.7036 -0.1596
vn -0.6907 0.7054 -0.1593
vn 0.6893 0.7088 0.1500
vn 0.6939 0.7041 0.1509
vn 0.6927 -0.7055 0.1499
vn 0.6886 -0.7097 0.1490
vn -0.6897 -0.7088 -0.1481
vn -0.6942 -0.7041 -0.1491
vn -0.6931 0.7055 -0.1480
vn -0.6890 0.7097 -0.1472
vn 0.6989 0.7047 0.1226
vn 0.7008 0.7027 0.1227
vn 0.7031 -0.7080 0.0662
vn 0.7008 -0.7103 0.0657
vn -0.6992 -0.7047 -0.1207
vn -0.7010 -0.7028 -0.1209
vn -0.7034 0.7079 -0.0643
vn -0.7010 0.7103 -0.0639
vn -0.1321 -0.0399 0.9904
vn 0.2040 -0.0225 -0.9787
vn 0.5788 0.8150 0.0276
vn 0.5785 0.8152 0.0277
vn 0.9361 -0.2784 -0.2148
vn 0.9362 -0.2781 -0.2148
vn 0.0006 -0.9877 -0.1561
vn 0.0009 -0.9877 -0.1561
vn -0.9350 -0.3328 0.1228
vn -0.9349 -0.3331 0.1227
vn -0.5776 0.7814 0.2363
vn -0.5779 0.7812 0.2363
vn 0.5790 0.8147 0.0303
vn 0.5834 0.8117 0.0289
vn 0.9360 -0.2779 -0.2160
vn 0.9340 -0.2839 -0.2167
vn 0.0003 -0.9872 -0.1594
vn -0.0050 -0.9873 -0.1585
vn -0.9350 -0.3330 0.1219
vn -0.9370 -0.3268 0.1232
vn -0.5773 0.7807 0.2392
vn -0.5728 0.7842 0.2388
vn 0.5805 0.8142 0.0093
vn 0.5845 0.8113 0.0086
vn 0.9468 -0.2949 -0.1286
vn 0.9455 -0.2989 -0.1289
vn 0.0060 -0.9964 -0.0844
vn 0.0004 -0.9965 -0.0838
vn -0.9434 -0.3216 0.0810
vn -0.9448 -0.3173 0.0815
vn -0.5878 0.7970 0.1388
vn -0.5838 0.8000 0.1386
vn 0.1110 -0.0864 0.9901
vn -0.1798 0.1566 -0.9712
vn 0.6977 0.7123 -0.0764
vn 0.6953 0.7147 -0.0759
vn 0.6977 -0.6998 -0.1536
vn 0.6999 -0.6975 -0.1538
vn -0.6973 -0.7125 0.0785
vn -0.6950 -0.7148 0.0780
vn -0.6973 0.6997 0.1557
vn -0.6996 0.6973 0.1560
vn 0.7028 0.7109 -0.0267
vn 0.7032 0.7105 -0.0268
vn 0.6986 -0.6968 -0.1625
vn 0.6980 -0.6975 -0.1625
vn -0.7025 -0.7111 0.0288
vn -0.7030 -0.7106 0.0289
vn -0.6983 0.6966 0.1647
vn -0.6976 0.6973 0.1646
vn 0.6965 0.7137 -0.0735
vn 0.6994 0.7109 -0.0741
vn 0.7021 -0.6994 -0.1339
vn 0.6994 -0.7021 -0.1336
vn -0.6962 -0.7139 0.0756
vn -0.6991 -0.7109 0.0762
vn -0.7018 0.6993 0.1360
vn -0.6991 0.7020 0.1357
vn 0.1485 -0.0416 0.9880
vn -0.1644 0.0538 -0.9849
vn 0.7048 0.6677 0.2394
vn 0.7047 0.6679 0.2395
vn 0.7048 -0.6974 -0.1299
vn 0.7050 -0.6973 -0.1299
vn -0.7049 -0.6680 -0.2383
vn -0.7048 -0.6682 -0.2384
vn -0.7049 0.6971 0.1310
vn -0.7050 0.6970 0.1310
vn 0.7050 0.6690 0.2353
vn 0.7040 0.6700 0.2355
vn 0.7048 -0.6978 -0.1277
vn 0.7061 -0.6966 -0.1273
vn -0.7051 -0.6693 -0.2342
vn -0.7041 -0.6703 -0.2344
vn -0.7049 0.6975 0.1288
vn -0.7061 0.6963 0.1284
vn 0.7076 0.6894 0.1548
vn 0.7071 0.6900 0.1549
vn 0.7067 -0.6932 -0.1417
vn 0.7071 -0.6928 -0.1416
vn -0.7076 -0.6897 -0.1537
vn -0.7071 -0.6902 -0.1538
vn -0.7068 0.6929 0.1428
vn -0.7071 0.6926 0.1428
vn -0.0088 -0.2097 0.9777
vn 0.0794 0.2603 -0.9622
vn 0.7060 0.7044 -0.0733
vn 0.7056 0.7048 -0.0733
vn 0.7060 -0.7082 -0.0071
vn 0.7064 -0.7077 -0.0072
vn -0.7059 -0.7044 0.0744
vn -0.7055 -0.7048 0.0744
vn -0.7059 0.7083 0.0082
vn -0.7064 0.7078 0.0083
vn 0.7043 0.7042 -0.0896
vn 0.7050 0.7035 -0.0897
vn 0.7033 -0.7093 -0.0481
vn 0.7025 -0.7100 -0.0480
vn -0.7042 -0.7041 0.0907
vn -0.7049 -0.7035 0.0907
vn -0.7032 0.7093 0.0492
vn -0.7024 0.7101 0.0491
vn 0.7053 0.7037 -0.0857
vn 0.7062 0.7028 -0.0857
vn 0.7071 -0.7070 0.0131
vn 0.7062 -0.7079 0.0132
vn -0.7052 -0.7037 0.0868
vn -0.7061 -0.7028 0.0868
vn -0.7070 0.7071 -0.0120
vn -0.7061 0.7080 -0.0121
vn 0.0522 0.0698 0.9962
vn -0.0577 -0.0467 -0.9972
vn 0.5721 0.8080 0.1407
vn 0.5761 0.8050 0.1415
vn 0.9260 -0.3105 0.2146
vn 0.9245 -0.3154 0.2141
vn -0.0006 -1.0000 -0.0043
vn -0.0049 -1.0000 -0.0054
vn -0.9273 -0.3075 -0.2134
vn -0.9288 -0.3025 -0.2139
vn -0.5733 0.8099 -0.1238
vn -0.5696 0.8126 -0.1230
vn 0.5769 0.8052 0.1373
vn 0.5814 0.8019 0.1377
vn 0.9402 -0.3131 0.1340
vn 0.9386 -0.3181 0.1334
vn 0.0039 -0.9987 -0.0506
vn -0.0019 -0.9987 -0.0515
vn -0.9389 -0.3041 -0.1615
vn -0.9404 -0.2993 -0.1616
vn -0.5846 0.8101 -0.0454
vn -0.5799 0.8135 -0.0446
vn 0.5779 0.8005 0.1592
vn 0.5791 0.7995 0.1593
vn 0.9378 -0.3184 0.1382
vn 0.9373 -0.3199 0.1380
vn 0.0011 -0.9975 -0.0700
vn -0.0005 -0.9975 -0.0702
vn -0.9378 -0.2983 -0.1776
vn -0.9383 -0.2968 -0.1776
vn -0.5813 0.8129 -0.0360
vn -0.5801 0.8138 -0.0358
vn -0.1664 -0.0720 0.9834
vn 0.2250 0.0069 -0.9743
vn 0.6884 0.7079 0.1583
vn 0.6924 0.7037 0.1592
vn 0.6884 -0.7063 0.1650
vn 0.6842 -0.7106 0.1640
vn -0.6888 -0.7079 -0.1566
vn -0.6928 -0.7037 -0.1576
vn -0.6888 0.7063 -0.1633
vn -0.6846 0.7106 -0.1624
vn 0.6899 0.7034 0.1710
vn 0.6943 0.6989 0.1716
vn 0.6974 -0.7093 0.1027
vn 0.6940 -0.7128 0.1018
vn -0.6902 -0.7035 -0.1693
vn -0.6946 -0.6991 -0.1700
vn -0.6977 0.7092 -0.1010
vn -0.6943 0.7127 -0.1002
vn 0.7036 0.7021 0.1094
vn 0.7034 0.7024 0.1094
vn 0.7038 -0.7095 0.0360
vn 0.7034 -0.7099 0.0360
vn -0.7038 -0.7022 -0.1077
vn -0.7035 -0.7025 -0.1077
vn -0.7040 0.7093 -0.0344
vn -0.7035 0.7098 -0.0343
vn -0.1017 -0.0516 0.9935
vn 0.2274 -0.0046 -0.9738
vn 0.7071 0.7065 -0.0292
vn 0.7072 0.7064 -0.0292
vn 0.7071 -0.7060 0.0406
vn 0.7072 -0.7058 0.0406
vn -0.7071 -0.7065 0.0300
vn -0.7072 -0.7064 0.0300
vn -0.7071 0.7060 -0.0398
vn -0.7072 0.7059 -0.0398
vn 0.7065 0.7043 -0.0696
vn 0.7061 0.7047 -0.0697
vn 0.7066 -0.7076 0.0067
vn 0.7069 -0.7073 0.0066
vn -0.7064 -0.7043 0.0705
vn -0.7060 -0.7047 0.0705
vn -0.7065 0.7076 -0.0058
vn -0.7069 0.7073 -0.0058
vn 0.7072 0.7070 -0.0037
vn 0.7071 0.7071 -0.0037
vn 0.7071 -0.7069 0.0192
vn -0.7072 -0.7070 0.0046
vn -0.7071 -0.7071 0.0046
vn -0.7071 0.7069 -0.0183
vn -0.0104 0.0162 0.9998
vn 0.0075 -0.0494 -0.9988
vn 0.7023 0.6574 0.2730
vn 0.7019 0.6578 0.2731
vn 0.7023 -0.7024 -0.1153
vn 0.7030 -0.7018 -0.1150
vn -0.7024 -0.6577 -0.2721
vn -0.7020 -0.6581 -0.2722
vn -0.7024 0.7022 0.1162
vn -0.7031 0.7016 0.1160
vn 0.7063 0.6713 0.2246
vn 0.7057 0.6719 0.2247
vn 0.7055 -0.6942 -0.1424
vn 0.7060 -0.6938 -0.1423
vn -0.7064 -0.6715 -0.2237
vn -0.7058 -0.6721 -0.2238
vn -0.7056 0.6940 0.1433
vn -0.7061 0.6935 0.1432
vn 0.7070 0.6796 0.1957
vn 0.7069 0.6797 0.1958
vn 0.7069 -0.6887 -0.1616
vn 0.7069 -0.6886 -0.1616
vn -0.7070 -0.6798 -0.1948
vn -0.7069 -0.6799 -0.1948
vn -0.7069 0.6884 0.1625
vn -0.0243 -0.2526 0.9673
vn 0.1153 0.2727 -0.9552
f 1/1/1 8/8/1 2/2/1
f 1/1/2 7/7/2 8/8/2
f 2/2/3 9/9/3 3/3/3
f 2/2/4 8/8/4 9/9/4
f 3/3/5 10/10/5 4/4/5
f 3/3/6 9/9/6 10/10/6
f 4/4/7 11/11/7 5/5/7
f 4/4/8 10/10/8 11/11/8
f 5/5/9 12/12/9 6/6/9
f 5/5/10 11/11/10 12/12/10
f 6/6/11 7/7/11 1/1/11
f 6/6/12 12/12/12 7/7/12
f 7/7/13 14/14/13 8/8/13
f 7/7/14 13/13/14 14/14/14
f 8/8/15 15/15/15 9/9/15
f 8/8/16 14/14/16 15/15/16
f 9/9/17 16/16/17 10/10/17
f 9/9/18 15/15/18 16/16/18
f 10/10/19 17/17/19 11/11/19
f 10/10/20 16/16/20 17/17/20
f 11/11/21 18/18/21 12/12/21
f 11/11/22 17/17/22 18/18/22
f 12/12/23 13/13/23 7/7/23
f 12/12/24 18/18/24 13/13/24
f 13/13/25 20/20/25 14/14/25
f 13/13/26 19/19/26 20/20/26
f 14/14/27 21/21/27 15/15/27
f 14/14/28 20/20/28 21/21/28
f 15/15/29 22/22/29 16/16/29
f 15/15/30 21/21/30 22/22/30
f 16/16/31 23/23/31 17/17/31
f 16/16/32 22/22/32 23/23/32
f 17/17/33 24/24/33 18/18/33
f 17/17/34 23/23/34 24/24/34
f 18/18/35 19/19/35 13/13/35
f 18/18/36 24/24/36 19/19/36
f 19/19/37 26/26/37 20/20/37
f 19/19/38 25/25/38 26/26/38
f 20/20/39 27/27/39 21/21/39
f 20/20/40 26/26/40 27/27/40
f 21/21/41 28/28/41 22/22/41
f 21/21/42 27/27/42 28/28/42
f 22/22/43 29/29/43 23/23/43
f 22/22/44 28/28/44 29/29/44
f 23/23/45 30/30/45 24/24/45
f 23/23/46 29/29/46 30/30/46
f 24/24/47 25/25/47 19/19/47
f 24/24/48 30/30/48 25/25/48
f 25/25/49 32/32/49 26/26/49
f 25/25/50 31/31/50 32/32/50
f 26/26/51 33/33/51 27/27/51
f 26/26/52 32/32/52 33/33/52
f 27/27/53 34/34/53 28/28/53
f 27/27/54 33/33/54 34/34/54
f 28/28/55 35/35/55 29/29/55
f 28/28/56 34/34/56 35/35/56
f 29/29/57 36/36/57 30/30/57
f 29/29/58 35/35/58 36/36/58
f 30/30/59 31/31/59 25/25/59
f 30/30/60 36/36/60 31/31/60
f 31/31/61 38/38/61 32/32/61
f 31/31/62 37/37/62 38/38/62
f 32/32/63 39/39/63 33/33/63
f 32/32/64 38/38/64 39/39/64
f 33/33/65 40/40/65 34/34/65
f 33/33/66 39/39/66 40/40/66
f 34/34/67 41/41/67 35/35/67
f 34/34/68 40/40/68 41/41/68
f 35/35/69 42/42/69 36/36/69
f 35/35/70 41/41/70 42/42/70
f 36/36/71 37/37/71 31/31/71
f 36/36/72 42/42/72 37/37/72
f 37/37/73 44/44/73 38/38/73
f 37/37/74 43/43/74 44/44/74
f 38/38/75 45/45/75 39/39/75
f 38/38/76 44/44/76 45/45/76
f 39/39/77 46/46/77 40/40/77
f 39/39/78 45/45/78 46/46/78
f 40/40/79 47/47/79 41/41/79
f 40/40/80 46/46/80 47/47/80
f 41/41/81 48/48/81 42/42/81
f 41/41/82 47/47/82 48/48/82
f 42/42/83 43/43/83 37/37/83
f 42/42/84 48/48/84 43/43/84
f 43/43/85 45/45/85 44/44/85
f 43/43/85 46/46/85 45/45/85
f 43/43/85 47/47/85 46/46/85
f 43/43/85 48/48/85 47/47/85
f 6/6/86 4/4/86 5/5/86
f 6/6/86 3/3/86 4/4/86
f 6/6/86 2/2/86 3/3/86
f 6/6/86 1/1/86 2/2/86
f 49/49/87 55/55/87 50/50/87
f 49/49/88 54/54/88 55/55/88
f 50/50/89 56/56/89 51/51/89
f 50/50/90 55/55/90 56/56/90
f 51/51/91 57/57/91 52/52/91
f 51/51/91 56/56/91 57/57/91
f 52/52/92 58/58/92 53/53/92
f 52/52/93 57/57/93 58/58/93
f 53/53/94 54/54/94 49/49/94
f 53/53/95 58/58/95 54/54/95
f 54/54/96 60/60/96 55/55/96
f 54/54/96 59/59/96 60/60/96
f 55/55/97 61/61/97 56/56/97
f 55/55/98 60/60/98 61/61/98
f 56/56/99 62/62/99 57/57/99
f 56/56/100 61/61/100 62/62/100
f 57/57/101 63/63/101 58/58/101
f 57/57/102 62/62/102 63/63/102
f 58/58/103 59/59/103 54/54/103
f 58/58/104 63/63/104 59/59/104
f 59/59/105 65/65/105 60/60/105
f 59/59/106 64/64/106 65/65/106
f 60/60/107 66/66/107 61/61/107
f 60/60/108 65/65/108 66/66/108
f 61/61/109 67/67/109 62/62/109
f 61/61/109 66/66/109 67/67/109
f 62/62/110 68/68/110 63/63/110
f 62/62/111 67/67/111 68/68/111
f 63/63/112 64/64/112 59/59/112
f 63/63/113 68/68/113 64/64/113
f 64/64/114 66/66/114 65/65/114
f 64/64/114 67/67/114 66/66/114
f 64/64/114 68/68/114 67/67/114
f 53/53/115 51/51/115 52/52/115
f 53/53/115 50/50/115 51/51/115
f 53/53/115 49/49/115 50/50/115
f 69/69/116 74/74/116 70/70/116
f 69/69/117 73/73/117 74/74/117
f 70/70/118 75/75/118 71/71/118
f 70/70/119 74/74/119 75/75/119
f 71/71/120 76/76/120 72/72/120
f 71/71/121 75/75/121 76/76/121
f 72/72/122 73/73/122 69/69/122
f 72/72/123 76/76/123 73/73/123
f 73/73/124 78/78/124 74/74/124
f 73/73/125 77/77/125 78/78/125
f 74/74/126 79/79/126 75/75/126
f 74/74/127 78/78/127 79/79/127
f 75/75/128 80/80/128 76/76/128
f 75/75/129 79/79/129 80/80/129
f 76/76/130 77/77/130 73/73/130
f 76/76/131 80/80/131 77/77/131
f 77/77/132 82/82/132 78/78/132
f 77/77/133 81/81/133 82/82/133
f 78/78/134 83/83/134 79/79/134
f 78/78/135 82/82/135 83/83/135
f 79/79/136 84/84/136 80/80/136
f 79/79/137 83/83/137 84/84/137
f 80/80/138 81/81/138 77/77/138
f 80/80/139 84/84/139 81/81/139
f 81/81/140 83/83/140 82/82/140
f 81/81/140 84/84/140 83/83/140
f 72/72/141 70/70/141 71/71/141
f 72/72/141 69/69/141 70/70/141
f 85/85/142 90/90/142 86/86/142
f 85/85/143 89/89/143 90/90/143
f 86/86/144 91/91/144 87/87/144
f 86/86/145 90/90/145 91/91/145
f 87/87/146 92/92/146 88/88/146
f 87/87/147 91/91/147 92/92/147
f 88/88/148 89/89/148 85/85/148
f 88/88/149 92/92/149 89/89/149
f 89/89/150 94/94/150 90/90/150
f 89/89/151 93/93/151 94/94/151
f 90/90/152 95/95/152 91/91/152
f 90/90/153 94/94/153 95/95/153
f 91/91/154 96/96/154 92/92/154
f 91/91/155 95/95/155 96/96/155
f 92/92/156 93/93/156 89/89/156
f 92/92/157 96/96/157 93/93/157
f 93/93/158 98/98/158 94/94/158
f 93/93/159 97/97/159 98/98/159
f 94/94/160 99/99/160 95/95/160
f 94/94/161 98/98/161 99/99/161
f 95/95/162 100/100/162 96/96/162
f 95/95/163 99/99/163 100/100/163
f 96/96/164 97/97/164 93/93/164
f 96/96/165 100/100/165 97/97/165
f 97/97/166 99/99/166 98/98/166
f 97/97/166 100/100/166 99/99/166
f 88/88/167 86/86/167 87/87/167
f 88/88/167 85/85/167 86/86/167
f 101/101/168 106/106/168 102/102/168
f 101/101/169 105/105/169 106/106/169
f 102/102/170 107/107/170 103/103/170
f 102/102/171 106/106/171 107/107/171
f 103/103/172 108/108/172 104/104/172
f 103/103/173 107/107/173 108/108/173
f 104/104/174 105/105/174 101/101/174
f 104/104/175 108/108/175 105/105/175
f 105/105/176 110/110/176 106/106/176
f 105/105/177 109/109/177 110/110/177
f 106/106/178 111/111/178 107/107/178
f 106/106/179 110/110/179 111/111/179
f 107/107/180 112/112/180 108/108/180
f 107/107/181 111/111/181 112/112/181
f 108/108/182 109/109/182 105/105/182
f 108/108/183 112/112/183 109/109/183
f 109/109/184 114/114/184 110/110/184
f 109/109/185 113/113/185 114/114/185
f 110/110/186 115/115/186 111/111/186
f 110/110/187 114/114/187 115/115/187
f 111/111/188 116/116/188 112/112/188
f 111/111/189 115/115/189 116/116/189
f 112/112/190 113/113/190 109/109/190
f 112/112/191 116/116/191 113/113/191
f 113/113/192 115/115/192 114/114/192
f 113/113/192 116/116/192 115/115/192
f 104/104/193 102/102/193 103/103/193
f 104/104/193 101/101/193 102/102/193
f 117/117/194 123/123/194 118/118/194
f 117/117/195 122/122/195 123/123/195
f 118/118/196 124/124/196 119/119/196
f 118/118/197 123/123/197 124/124/197
f 119/119/198 125/125/198 120/120/198
f 119/119/199 124/124/199 125/125/199
f 120/120/200 126/126/200 121/121/200
f 120/120/201 125/125/201 126/126/201
f 121/121/202 122/122/202 117/117/202
f 121/121/203 126/126/203 122/122/203
f 122/122/204 128/128/204 123/123/204
f 122/122/205 127/127/205 128/128/205
f 123/123/206 129/129/206 124/124/206
f 123/123/207 128/128/207 129/129/207
f 124/124/208 130/130/208 125/125/208
f 124/124/209 129/129/209 130/130/209
f 125/125/210 131/131/210 126/126/210
f 125/125/211 130/130/211 131/131/211
f 126/126/212 127/127/212 122/122/212
f 126/126/213 131/131/213 127/127/213
f 127/127/214 133/133/214 128/128/214
f 127/127/215 132/132/215 133/133/215
f 128/128/216 134/134/216 129/129/216
f 128/128/217 133/133/217 134/134/217
f 129/129/218 135/135/218 130/130/218
f 129/129/219 134/134/219 135/135/219
f 130/130/220 136/136/220 131/131/220
f 130/130/221 135/135/221 136/136/221
f 131/131/222 132/132/222 127/127/222
f 131/131/223 136/136/223 132/132/223
f 132/132/224 134/134/224 133/133/224
f 132/132/224 135/135/224 134/134/224
f 132/132/224 136/136/224 135/135/224
f 121/121/225 119/119/225 120/120/225
f 121/121/225 118/118/225 119/119/225
f 121/121/225 117/117/225 118/118/225
f 137/137/226 142/142/226 138/138/226
f 137/137/227 141/141/227 142/142/227
f 138/138/228 143/143/228 139/139/228
f 138/138/229 142/142/229 143/143/229
f 139/139/230 144/144/230 140/140/230
f 139/139/231 143/143/231 144/144/231
f 140/140/232 141/141/232 137/137/232
f 140/140/233 144/144/233 141/141/233
f 141/141/234 146/146/234 142/142/234
f 141/141/235 145/145/235 146/146/235
f 142/142/236 147/147/236 143/143/236
f 142/142/237 146/146/237 147/147/237
f 143/143/238 148/148/238 144/144/238
f 143/143/239 147/147/239 148/148/239
f 144/144/240 145/145/240 141/141/240
f 144/144/241 148/148/241 145/145/241
f 145/145/242 150/150/242 146/146/242
f 145/145/243 149/149/243 150/150/243
f 146/146/244 151/151/244 147/147/244
f 146/146/245 150/150/245 151/151/245
f 147/147/246 152/152/246 148/148/246
f 147/147/247 151/151/247 152/152/247
f 148/148/248 149/149/248 145/145/248
f 148/148/249 152/152/249 149/149/249
f 149/149/250 151/151/250 150/150/250
f 149/149/250 152/152/250 151/151/250
f 140/140/251 138/138/251 139/139/251
f 140/140/251 137/137/251 138/138/251
f 153/153/252 158/158/252 154/154/252
f 153/153/253 157/157/253 158/158/253
f 154/154/254 159/159/254 155/155/254
f 154/154/255 158/158/255 159/159/255
f 155/155/256 160/160/256 156/156/256
f 155/155/257 159/159/257 160/160/257
f 156/156/258 157/157/258 153/153/258
f 156/156/259 160/160/259 157/157/259
f 157/157/260 162/162/260 158/158/260
f 157/157/261 161/161/261 162/162/261
f 158/158/262 163/163/262 159/159/262
f 158/158/263 162/162/263 163/163/263
f 159/159/264 164/164/264 160/160/264
f 159/159/265 163/163/265 164/164/265
f 160/160/266 161/161/266 157/157/266
f 160/160/267 164/164/267 161/161/267
f 161/161/268 166/166/268 162/162/268
f 161/161/269 165/165/269 166/166/269
f 162/162/270 167/167/270 163/163/270
f 162/162/271 166/166/271 167/167/271
f 163/163/272 168/168/272 164/164/272
f 163/163/273 167/167/273 168/168/273
f 164/164/274 165/165/274 161/161/274
f 164/164/275 168/168/275 165/165/275
f 165/165/276 167/167/276 166/166/276
f 165/165/276 168/168/276 167/167/276
f 156/156/277 154/154/277 155/155/277
f 156/156/277 153/153/277 154/154/277
f 169/169/278 174/174/278 170/170/278
f 169/169/279 173/173/279 174/174/279
f 170/170/280 175/175/280 171/171/280
f 170/170/281 174/174/281 175/175/281
f 171/171/282 176/176/282 172/172/282
f 171/171/283 175/175/283 176/176/283
f 172/172/284 173/173/284 169/169/284
f 172/172/285 176/176/285 173/173/285
f 173/173/286 178/178/286 174/174/286
f 173/173/287 177/177/287 178/178/287
f 174/174/288 179/179/288 175/175/288
f 174/174/289 178/178/289 179/179/289
f 175/175/290 180/180/290 176/176/290
f 175/175/291 179/179/291 180/180/291
f 176/176/292 177/177/292 173/173/292
f 176/176/293 180/180/293 177/177/293
f 177/177/294 182/182/294 178/178/294
f 177/177/295 181/181/295 182/182/295
f 178/178/296 183/183/296 179/179/296
f 178/178/297 182/182/297 183/183/297
f 179/179/298 184/184/298 180/180/298
f 179/179/299 183/183/299 184/184/299
f 180/180/300 181/181/300 177/177/300
f 180/180/301 184/184/301 181/181/301
f 181/181/302 183/183/302 182/182/302
f 181/181/302 184/184/302 183/183/302
f 172/172/303 170/170/303 171/171/303
f 172/172/303 169/169/303 170/170/303
f 185/185/304 191/191/304 186/186/304
f 185/185/305 190/190/305 191/191/305
f 186/186/306 192/192/306 187/187/306
f 186/186/307 191/191/307 192/192/307
f 187/187/308 193/193/308 188/188/308
f 187/187/309 192/192/309 193/193/309
f 188/188/310 194/194/310 189/189/310
f 188/188/311 193/193/311 194/194/311
f 189/189/312 190/190/312 185/185/312
f 189/189/313 194/194/313 190/190/313
f 190/190/314 196/196/314 191/191/314
f 190/190/315 195/195/315 196/196/315
f 191/191/316 197/197/316 192/192/316
f 191/191/317 196/196/317 197/197/317
f 192/192/318 198/198/318 193/193/318
f 192/192/319 197/197/319 198/198/319
f 193/193/320 199/199/320 194/194/320
f 193/193/321 198/198/321 199/199/321
f 194/194/322 195/195/322 190/190/322
f 194/194/323 199/199/323 195/195/323
f 195/195/324 201/201/324 196/196/324
f 195/195/325 200/200/325 201/201/325
f 196/196/326 202/202/326 197/197/326
f 196/196/327 201/201/327 202/202/327
f 197/197/328 203/203/328 198/198/328
f 197/197/329 202/202/329 203/203/329
f 198/198/330 204/204/330 199/199/330
f 198/198/331 203/203/331 204/204/331
f 199/199/332 200/200/332 195/195/332
f 199/199/333 204/204/333 200/200/333
f 200/200/334 202/202/334 201/201/334
f 200/200/334 203/203/334 202/202/334
f 200/200/334 204/204/334 203/203/334
f 189/189/335 187/187/335 188/188/335
f 189/189/335 186/186/335 187/187/335
f 189/189/335 185/185/335 186/186/335
f 205/205/336 210/210/336 206/206/336
f 205/205/337 209/209/337 210/210/337
f 206/206/338 211/211/338 207/207/338
f 206/206/339 210/210/339 211/211/339
f 207/207/340 212/212/340 208/208/340
f 207/207/341 211/211/341 212/212/341
f 208/208/342 209/209/342 205/205/342
f 208/208/343 212/212/343 209/209/343
f 209/209/344 214/214/344 210/210/344
f 209/209/345 213/213/345 214/214/345
f 210/210/346 215/215/346 211/211/346
f 210/210/347 214/214/347 215/215/347
f 211/211/348 216/216/348 212/212/348
f 211/211/349 215/215/349 216/216/349
f 212/212/350 213/213/350 209/209/350
f 212/212/351 216/216/351 213/213/351
f 213/213/352 218/218/352 214/214/352
f 213/213/353 217/217/353 218/218/353
f 214/214/354 219/219/354 215/215/354
f 214/214/355 218/218/355 219/219/355
f 215/215/356 220/220/356 216/216/356
f 215/215/357 219/219/357 220/220/357
f 216/216/358 217/217/358 213/213/358
f 216/216/359 220/220/359 217/217/359
f 217/217/360 219/219/360 218/218/360
f 217/217/360 220/220/360 219/219/360
f 208/208/361 206/206/361 207/207/361
f 208/208/361 205/205/361 206/206/361
f 221/221/362 226/226/362 222/222/362
f 221/221/363 225/225/363 226/226/363
f 222/222/364 227/227/364 223/223/364
f 222/222/365 226/226/365 227/227/365
f 223/223/366 228/228/366 224/224/366
f 223/223/367 227/227/367 228/228/367
f 224/224/368 225/225/368 221/221/368
f 224/224/369 228/228/369 225/225/369
f 225/225/370 230/230/370 226/226/370
f 225/225/371 229/229/371 230/230/371
f 226/226/372 231/231/372 227/227/372
f 226/226/373 230/230/373 231/231/373
f 227/227/374 232/232/374 228/228/374
f 227/227/375 231/231/375 232/232/375
f 228/228/376 229/229/376 225/225/376
f 228/228/377 232/232/377 229/229/377
f 229/229/378 234/234/378 230/230/378
f 229/229/379 233/233/379 234/234/379
f 230/230/380 235/235/380 231/231/380
f 230/230/380 234/234/380 235/235/380
f 231/231/381 236/236/381 232/232/381
f 231/231/382 235/235/382 236/236/382
f 232/232/383 233/233/383 229/229/383
f 232/232/383 236/236/383 233/233/383
f 233/233/384 235/235/384 234/234/384
f 233/233/384 236/236/384 235/235/384
f 224/224/385 222/222/385 223/223/385
f 224/224/385 221/221/385 222/222/385
f 237/237/386 242/242/386 238/238/386
f 237/237/387 241/241/387 242/242/387
f 238/238/388 243/243/388 239/239/388
f 238/238/389 242/242/389 243/243/389
f 239/239/390 244/244/390 240/240/390
f 239/239/391 243/243/391 244/244/391
f 240/240/392 241/241/392 237/237/392
f 240/240/393 244/244/393 241/241/393
f 241/241/394 246/246/394 242/242/394
f 241/241/395 245/245/395 246/246/395
f 242/242/396 247/247/396 243/243/396
f 242/242/397 246/246/397 247/247/397
f 243/243/398 248/248/398 244/244/398
f 243/243/399 247/247/399 248/248/399
f 244/244/400 245/245/400 241/241/400
f 244/244/401 248/248/401 245/245/401
f 245/245/402 250/250/402 246/246/402
f 245/245/403 249/249/403 250/250/403
f 246/246/404 251/251/404 247/247/404
f 246/246/405 250/250/405 251/251/405
f 247/247/406 252/252/406 248/248/406
f 247/247/407 251/251/407 252/252/407
f 248/248/408 249/249/408 245/245/408
f 248/248/408 252/252/408 249/249/408
f 249/249/409 251/251/409 250/250/409
f 249/249/409 252/252/409 251/251/409
f 240/240/410 238/238/410 239/239/410
f 240/240/410 237/237/410 238/238/410
