# JudeanFloraV1; canonical UE cm (X east, +Y south, Z up), written with Y reflected and triangle winding reversed for the legacy OBJ importer adapter. One o object, no g groups, so the importer creates exactly one material slot.
# Aleppo pine (Pinus halepensis), StreetTreesV1 seed 3, LOD2 leaf
# height 9.0-17.0 m, crown 9.0-14.0 m; source: Zohary & Feinbrun-Dothan, Flora Palaestina vols I-IV (Israel Academy of Sciences, 1966-1986) Pinus halepensis; 9-17 m in the Judean hills
# branching is recursive with da Vinci child radii; leaf sprays are anchored to branch tips. Stylised habit, not a survey of any tree.
o SM_StreetTreesV1_AleppoPine_S3_L2_Leaf
s off
v -125.12441 -53.32388 711.66700
v -138.81442 185.57463 711.66700
v -195.33869 182.29036 944.16244
v -181.64868 -56.60815 944.16244
v -125.12441 -53.32388 711.66700
v -138.81442 185.57463 711.66700
v -195.33869 182.29036 944.16244
v -181.64868 -56.60815 944.16244
v -309.25937 112.75566 990.90710
v -153.28580 -12.81661 990.90710
v -106.31835 45.61694 1176.58352
v -262.29193 171.18922 1176.58352
v -309.25937 112.75566 990.90710
v -153.28580 -12.81661 990.90710
v -106.31835 45.61694 1176.58352
v -262.29193 171.18922 1176.58352
v -174.19838 -18.46090 1084.24133
v -116.92922 241.33603 1084.24133
v -50.96810 226.85075 1341.56119
v -108.23726 -32.94618 1341.56119
v -174.19838 -18.46090 1084.24133
v -116.92922 241.33603 1084.24133
v -50.96810 226.85075 1341.56119
v -108.23726 -32.94618 1341.56119
v 172.92455 226.21575 826.50226
v 81.08827 78.00615 826.50226
v 92.27949 71.08398 1000.36090
v 184.11577 219.29357 1000.36090
v 172.92455 226.21575 826.50226
v 81.08827 78.00615 826.50226
v 92.27949 71.08398 1000.36090
v 184.11577 219.29357 1000.36090
v -45.56506 251.73692 947.75518
v 133.52652 139.78444 947.75518
v 102.06002 89.35785 1150.42282
v -77.03156 201.31033 1150.42282
v -45.56506 251.73692 947.75518
v 133.52652 139.78444 947.75518
v 102.06002 89.35785 1150.42282
v -77.03156 201.31033 1150.42282
v 265.06615 97.47525 1094.24502
v 64.01719 129.76141 1094.24502
v 75.51720 201.73918 1284.37663
v 276.56617 169.45302 1284.37663
v 265.06615 97.47525 1094.24502
v 64.01719 129.76141 1094.24502
v 75.51720 201.73918 1284.37663
v 276.56617 169.45302 1284.37663
v 210.51615 100.50678 800.17051
v 22.86899 -1.67523 800.17051
v 35.79675 -25.37085 1012.12337
v 223.44392 76.81116 1012.12337
v 210.51615 100.50678 800.17051
v 22.86899 -1.67523 800.17051
v 35.79675 -25.37085 1012.12337
v 223.44392 76.81116 1012.12337
v 107.98286 -136.20034 941.14419
v 333.72692 -153.43793 941.14419
v 332.53027 -169.27545 1166.98762
v 106.78621 -152.03786 1166.98762
v 107.98286 -136.20034 941.14419
v 333.72692 -153.43793 941.14419
v 332.53027 -169.27545 1166.98762
v 106.78621 -152.03786 1166.98762
v 4.37836 -415.01624 1082.43716
v 208.41235 -257.59884 1082.43716
v 178.50128 -218.89386 1335.45367
v -25.53271 -376.31125 1335.45367
v 4.37836 -415.01624 1082.43716
v 208.41235 -257.59884 1082.43716
v 178.50128 -218.89386 1335.45367
v -25.53271 -376.31125 1335.45367
v 107.94627 -211.17511 794.27188
v -153.44477 -219.22920 794.27188
v -152.31574 -254.94734 1053.33382
v 109.07531 -246.89325 1053.33382
v 107.94627 -211.17511 794.27188
v -153.44477 -219.22920 794.27188
v -152.31574 -254.94734 1053.33382
v 109.07531 -246.89325 1053.33382
v 349.85682 -43.97377 770.59894
v 153.90400 -118.60227 770.59894
v 157.20819 -127.25740 980.07708
v 353.16102 -52.62890 980.07708
v 349.85682 -43.97377 770.59894
v 153.90400 -118.60227 770.59894
v 157.20819 -127.25740 980.07708
v 353.16102 -52.62890 980.07708
v -255.44150 53.75001 791.69787
v -101.98975 -11.91723 791.69787
v -109.39880 -29.26894 957.54011
v -262.85055 36.39829 957.54011
v -255.44150 53.75001 791.69787
v -101.98975 -11.91723 791.69787
v -109.39880 -29.26894 957.54011
v -262.85055 36.39829 957.54011
v -89.25454 78.25935 900.93770
v -60.97483 -111.60962 900.93770
v -57.44008 -111.08026 1092.86788
v -85.71978 78.78870 1092.86788
v -89.25454 78.25935 900.93770
v -60.97483 -111.60962 900.93770
v -57.44008 -111.08026 1092.86788
v -85.71978 78.78870 1092.86788
v 217.99132 56.27489 916.07059
v 65.82617 -133.32184 916.07059
v 22.35993 -98.49389 1152.71136
v 174.52507 91.10284 1152.71136
v 217.99132 56.27489 916.07059
v 65.82617 -133.32184 916.07059
v 22.35993 -98.49389 1152.71136
v 174.52507 91.10284 1152.71136
v -246.08651 -275.66301 752.15089
v -168.81488 -468.15114 752.15089
v -133.73109 -454.03481 956.09314
v -211.00272 -261.54667 956.09314
v -246.08651 -275.66301 752.15089
v -168.81488 -468.15114 752.15089
v -133.73109 -454.03481 956.09314
v -211.00272 -261.54667 956.09314
v -283.06660 -57.63673 991.38272
v -107.60999 -23.62130 991.38272
v -110.16027 -10.52242 1169.60727
v -285.61688 -44.53785 1169.60727
v -283.06660 -57.63673 991.38272
v -107.60999 -23.62130 991.38272
v -110.16027 -10.52242 1169.60727
v -285.61688 -44.53785 1169.60727
v -64.94247 120.78806 835.96027
v 137.84382 178.60709 835.96027
v 155.10782 118.24013 1037.26379
v -47.67847 60.42110 1037.26379
v -64.94247 120.78806 835.96027
v 137.84382 178.60709 835.96027
v 155.10782 118.24013 1037.26379
v -47.67847 60.42110 1037.26379
v -221.56068 -434.22971 881.07850
v -129.61586 -276.37065 881.07850
v -75.86268 -307.62183 1052.85537
v -167.80750 -465.48089 1052.85537
v -221.56068 -434.22971 881.07850
v -129.61586 -276.37065 881.07850
v -75.86268 -307.62183 1052.85537
v -167.80750 -465.48089 1052.85537
v 36.83387 -127.04797 859.98763
v 202.10014 -47.61618 859.98763
v 186.07812 -14.34855 1039.59527
v 20.81185 -93.78033 1039.59527
v 36.83387 -127.04797 859.98763
v 202.10014 -47.61618 859.98763
v 186.07812 -14.34855 1039.59527
v 20.81185 -93.78033 1039.59527
v -216.83046 -65.32724 915.99158
v -181.12205 -258.39468 915.99158
v -121.59775 -247.33645 1102.76604
v -157.30615 -54.26901 1102.76604
v -216.83046 -65.32724 915.99158
v -181.12205 -258.39468 915.99158
v -121.59775 -247.33645 1102.76604
v -157.30615 -54.26901 1102.76604
v 290.12715 242.85318 843.84163
v 429.53545 29.29699 843.84163
v 477.24425 60.49524 1092.42052
v 337.83595 274.05143 1092.42052
v 290.12715 242.85318 843.84163
v 429.53545 29.29699 843.84163
v 477.24425 60.49524 1092.42052
v 337.83595 274.05143 1092.42052
v -97.76829 -296.33395 789.93481
v -28.87565 -461.09874 789.93481
v -67.57007 -477.31415 963.52465
v -136.46271 -312.54936 963.52465
v -97.76829 -296.33395 789.93481
v -28.87565 -461.09874 789.93481
v -67.57007 -477.31415 963.52465
v -136.46271 -312.54936 963.52465
v -315.48491 -80.44786 870.17530
v -232.64483 64.64648 870.17530
v -283.26712 93.49531 1026.76386
v -366.10719 -51.59903 1026.76386
v -315.48491 -80.44786 870.17530
v -232.64483 64.64648 870.17530
v -283.26712 93.49531 1026.76386
v -366.10719 -51.59903 1026.76386
v -286.05774 357.61224 726.78276
v -81.12784 209.83993 726.78276
v -125.68553 147.94372 967.64867
v -330.61543 295.71603 967.64867
v -286.05774 357.61224 726.78276
v -81.12784 209.83993 726.78276
v -125.68553 147.94372 967.64867
v -330.61543 295.71603 967.64867
v 371.62063 250.40616 812.32041
v 167.73845 157.92939 812.32041
v 169.78393 153.42928 1036.14056
v 373.66611 245.90605 1036.14056
v 371.62063 250.40616 812.32041
v 167.73845 157.92939 812.32041
v 169.78393 153.42928 1036.14056
v 373.66611 245.90605 1036.14056
v 283.83680 133.02366 843.53862
v 80.08679 176.92428 843.53862
v 93.24861 238.24755 1042.30369
v 296.99862 194.34693 1042.30369
v 283.83680 133.02366 843.53862
v 80.08679 176.92428 843.53862
v 93.24861 238.24755 1042.30369
v 296.99862 194.34693 1042.30369
v 251.62075 -96.02681 763.47512
v 21.82849 -187.09125 763.47512
v -11.22104 -103.88749 993.87060
v 218.57123 -12.82305 993.87060
v 251.62075 -96.02681 763.47512
v 21.82849 -187.09125 763.47512
v -11.22104 -103.88749 993.87060
v 218.57123 -12.82305 993.87060
v 160.40307 145.65701 886.01698
v 359.50075 312.96611 886.01698
v 304.47607 378.33965 1131.64028
v 105.37839 211.03056 1131.64028
v 160.40307 145.65701 886.01698
v 359.50075 312.96611 886.01698
v 304.47607 378.33965 1131.64028
v 105.37839 211.03056 1131.64028
v -206.05490 521.50639 802.75994
v -218.85080 256.51470 802.75994
v -211.29011 256.15564 1067.95239
v -198.49421 521.14733 1067.95239
v -206.05490 521.50639 802.75994
v -218.85080 256.51470 802.75994
v -211.29011 256.15564 1067.95239
v -198.49421 521.14733 1067.95239
v -242.69716 -255.42154 967.85087
v -358.73132 -111.35494 967.85087
v -375.52735 -124.90486 1151.57187
v -259.49319 -268.97147 1151.57187
v -242.69716 -255.42154 967.85087
v -358.73132 -111.35494 967.85087
v -375.52735 -124.90486 1151.57187
v -259.49319 -268.97147 1151.57187
v -49.94789 339.62588 910.15600
v -234.71537 163.07909 910.15600
v -196.03137 122.65831 1159.51016
v -11.26389 299.20509 1159.51016
v -49.94789 339.62588 910.15600
v -234.71537 163.07909 910.15600
v -196.03137 122.65831 1159.51016
v -11.26389 299.20509 1159.51016
v 242.11959 -124.51462 892.36942
v 112.71538 14.57033 892.36942
v 148.53504 47.95009 1075.92545
v 277.93926 -91.13485 1075.92545
v 242.11959 -124.51462 892.36942
v 112.71538 14.57033 892.36942
v 148.53504 47.95009 1075.92545
v 277.93926 -91.13485 1075.92545
v 212.79064 338.31050 854.08618
v -46.13122 332.01068 854.08618
v -44.32845 260.26665 1102.94310
v 214.59341 266.56647 1102.94310
v 212.79064 338.31050 854.08618
v -46.13122 332.01068 854.08618
v -44.32845 260.26665 1102.94310
v 214.59341 266.56647 1102.94310
v -97.34531 -285.70298 941.85410
v -334.50486 -211.76392 941.85410
v -314.79180 -148.35664 1181.23360
v -77.63226 -222.29569 1181.23360
v -97.34531 -285.70298 941.85410
v -334.50486 -211.76392 941.85410
v -314.79180 -148.35664 1181.23360
v -77.63226 -222.29569 1181.23360
v -20.30415 232.64546 916.78768
v -5.04855 45.89859 916.78768
v -33.05052 43.58863 1102.03800
v -48.30613 230.33549 1102.03800
v -20.30415 232.64546 916.78768
v -5.04855 45.89859 916.78768
v -33.05052 43.58863 1102.03800
v -48.30613 230.33549 1102.03800
v 6.26438 71.85256 889.81153
v -72.27764 234.44413 889.81153
v -72.85837 234.16303 1070.37856
v 5.68364 71.57145 1070.37856
v 6.26438 71.85256 889.81153
v -72.27764 234.44413 889.81153
v -72.85837 234.16303 1070.37856
v 5.68364 71.57145 1070.37856
v 355.47567 -166.66551 861.18207
v 160.22691 -299.73461 861.18207
v 192.96806 -347.69273 1090.21810
v 388.21683 -214.62363 1090.21810
v 355.47567 -166.66551 861.18207
v 160.22691 -299.73461 861.18207
v 192.96806 -347.69273 1090.21810
v 388.21683 -214.62363 1090.21810
v 69.62053 77.88232 947.94512
v 221.15949 -6.08027 947.94512
v 216.93303 -13.72270 1120.96970
v 65.39407 70.23990 1120.96970
v 69.62053 77.88232 947.94512
v 221.15949 -6.08027 947.94512
v 216.93303 -13.72270 1120.96970
v 65.39407 70.23990 1120.96970
v -120.75618 -405.66303 862.97720
v -288.14137 -477.30357 862.97720
v -304.56040 -439.02547 1040.22102
v -137.17521 -367.38492 1040.22102
v -120.75618 -405.66303 862.97720
v -288.14137 -477.30357 862.97720
v -304.56040 -439.02547 1040.22102
v -137.17521 -367.38492 1040.22102
v 102.48026 -226.30145 921.05703
v 67.26796 -61.00046 921.05703
v 46.28895 -65.48686 1088.69974
v 81.50125 -230.78785 1088.69974
v 102.48026 -226.30145 921.05703
v 67.26796 -61.00046 921.05703
v 46.28895 -65.48686 1088.69974
v 81.50125 -230.78785 1088.69974
v 272.78321 304.03374 834.85256
v 275.57328 87.38617 834.85256
v 263.35698 87.21911 1051.17336
v 260.56692 303.86669 1051.17336
v 272.78321 304.03374 834.85256
v 275.57328 87.38617 834.85256
v 263.35698 87.21911 1051.17336
v 260.56692 303.86669 1051.17336
v 281.12622 50.84665 957.23474
v 249.44742 249.32027 957.23474
v 192.46697 240.17896 1149.75745
v 224.14578 41.70533 1149.75745
v 281.12622 50.84665 957.23474
v 249.44742 249.32027 957.23474
v 192.46697 240.17896 1149.75745
v 224.14578 41.70533 1149.75745
v -214.17996 -184.96185 856.31359
v -40.85012 -347.37192 856.31359
v -57.84444 -365.53785 1092.53692
v -231.17428 -203.12777 1092.53692
v -214.17996 -184.96185 856.31359
v -40.85012 -347.37192 856.31359
v -57.84444 -365.53785 1092.53692
v -231.17428 -203.12777 1092.53692
v -135.85928 112.51578 956.13912
v -121.48523 -117.13303 956.13912
v -36.61546 -111.75306 1169.94597
v -50.98951 117.89575 1169.94597
v -135.85928 112.51578 956.13912
v -121.48523 -117.13303 956.13912
v -36.61546 -111.75306 1169.94597
v -50.98951 117.89575 1169.94597
v 57.59093 -19.16652 903.06789
v -119.88726 129.16984 903.06789
v -166.33999 73.50107 1122.71605
v 11.13819 -74.83529 1122.71605
v 57.59093 -19.16652 903.06789
v -119.88726 129.16984 903.06789
v -166.33999 73.50107 1122.71605
v 11.13819 -74.83529 1122.71605
v -121.88660 141.90716 954.75823
v 10.87827 349.46629 954.75823
v -44.23546 384.65789 1192.31103
v -177.00034 177.09876 1192.31103
v -121.88660 141.90716 954.75823
v 10.87827 349.46629 954.75823
v -44.23546 384.65789 1192.31103
v -177.00034 177.09876 1192.31103
v 3.37525 -124.98869 946.69419
v -123.53976 -351.14731 946.69419
v -85.50547 -372.45147 1202.33978
v 41.40954 -146.29285 1202.33978
v 3.37525 -124.98869 946.69419
v -123.53976 -351.14731 946.69419
v -85.50547 -372.45147 1202.33978
v 41.40954 -146.29285 1202.33978
v -45.15069 26.01407 946.92494
v 138.07812 -74.58508 946.92494
v 130.43738 -88.52804 1155.34807
v -52.79143 12.07112 1155.34807
v -45.15069 26.01407 946.92494
v 138.07812 -74.58508 946.92494
v 130.43738 -88.52804 1155.34807
v -52.79143 12.07112 1155.34807
v 61.86299 -64.90479 972.30714
v -8.09987 -255.52281 972.30714
v 12.83186 -263.18651 1174.13173
v 82.79471 -72.56849 1174.13173
v 61.86299 -64.90479 972.30714
v -8.09987 -255.52281 972.30714
v 12.83186 -263.18651 1174.13173
v 82.79471 -72.56849 1174.13173
v -97.34926 -6.64369 948.41789
v -362.82177 -19.90554 948.41789
v -358.87656 -97.63755 1202.57080
v -93.40405 -84.37570 1202.57080
v -97.34926 -6.64369 948.41789
v -362.82177 -19.90554 948.41789
v -358.87656 -97.63755 1202.57080
v -93.40405 -84.37570 1202.57080
v 15.73828 -462.23383 956.08525
v -76.03346 -239.02714 956.08525
v -86.75345 -243.44467 1197.14300
v 5.01829 -466.65135 1197.14300
v 15.73828 -462.23383 956.08525
v -76.03346 -239.02714 956.08525
v -86.75345 -243.44467 1197.14300
v 5.01829 -466.65135 1197.14300
v 342.20717 36.56814 945.41240
v 258.99100 277.39255 945.41240
v 319.10166 298.21720 1192.13972
v 402.31782 57.39279 1192.13972
v 342.20717 36.56814 945.41240
v 258.99100 277.39255 945.41240
v 319.10166 298.21720 1192.13972
v 402.31782 57.39279 1192.13972
v 26.95374 -59.47143 913.18639
v -141.62190 17.81604 913.18639
v -124.34064 55.58843 1093.92295
v 44.23499 -21.69904 1093.92295
v 26.95374 -59.47143 913.18639
v -141.62190 17.81604 913.18639
v -124.34064 55.58843 1093.92295
v 44.23499 -21.69904 1093.92295
v 217.22043 -6.41126 916.43734
v -4.66677 86.45816 916.43734
v 29.10974 167.33909 1140.43752
v 250.99694 74.46967 1140.43752
v 217.22043 -6.41126 916.43734
v -4.66677 86.45816 916.43734
v 29.10974 167.33909 1140.43752
v 250.99694 74.46967 1140.43752
v -42.82997 -486.64729 886.85946
v -265.03071 -357.63065 886.85946
v -217.88673 -276.28717 1125.98107
v 4.31401 -405.30380 1125.98107
v -42.82997 -486.64729 886.85946
v -265.03071 -357.63065 886.85946
v -217.88673 -276.28717 1125.98107
v 4.31401 -405.30380 1125.98107
v -87.94085 234.20701 914.96557
v 108.93911 205.56250 914.96557
v 101.83588 156.46607 1107.63448
v -95.04408 185.11058 1107.63448
v -87.94085 234.20701 914.96557
v 108.93911 205.56250 914.96557
v 101.83588 156.46607 1107.63448
v -95.04408 185.11058 1107.63448
v -288.27403 -4.07008 740.90675
v -199.15135 192.33603 740.90675
v -243.07727 212.22601 951.12832
v -332.19995 15.81991 951.12832
v -288.27403 -4.07008 740.90675
v -199.15135 192.33603 740.90675
v -243.07727 212.22601 951.12832
v -332.19995 15.81991 951.12832
v -259.77924 174.54475 967.61967
v -221.35067 15.77232 967.61967
v -193.72016 22.48318 1128.48284
v -232.14874 181.25561 1128.48284
v -259.77924 174.54475 967.61967
v -221.35067 15.77232 967.61967
v -193.72016 22.48318 1128.48284
v -232.14874 181.25561 1128.48284
v -15.40243 -393.49406 744.09536
v -75.64391 -170.24531 744.09536
v -115.09254 -180.92385 971.68889
v -54.85106 -404.17260 971.68889
v -15.40243 -393.49406 744.09536
v -75.64391 -170.24531 744.09536
v -115.09254 -180.92385 971.68889
v -54.85106 -404.17260 971.68889
v -90.82106 -86.35357 866.37041
v 69.02074 35.29291 866.37041
v 69.18160 35.08190 1067.23653
v -90.66020 -86.56458 1067.23653
v -90.82106 -86.35357 866.37041
v 69.02074 35.29291 866.37041
v 69.18160 35.08190 1067.23653
v -90.66020 -86.56458 1067.23653
v 9.50797 414.96222 796.95703
v 234.54833 326.03105 796.95703
v 207.50669 257.44240 1027.42669
v -17.53368 346.37357 1027.42669
v 9.50797 414.96222 796.95703
v 234.54833 326.03105 796.95703
v 207.50669 257.44240 1027.42669
v -17.53368 346.37357 1027.42669
v 151.13254 -117.64916 784.25458
v 87.30020 -304.63536 784.25458
v 38.21907 -287.92394 974.91181
v 102.05141 -100.93774 974.91181
v 151.13254 -117.64916 784.25458
v 87.30020 -304.63536 784.25458
v 38.21907 -287.92394 974.91181
v 102.05141 -100.93774 974.91181
v 156.80991 -139.97748 771.35979
v 77.81608 111.30014 771.35979
v 9.48515 89.75922 1024.83038
v 88.47898 -161.51839 1024.83038
v 156.80991 -139.97748 771.35979
v 77.81608 111.30014 771.35979
v 9.48515 89.75922 1024.83038
v 88.47898 -161.51839 1024.83038
v 135.93593 24.50532 737.56969
v -62.26069 -127.31398 737.56969
v -111.65743 -62.93393 973.67596
v 86.53920 88.88536 973.67596
v 135.93593 24.50532 737.56969
v -62.26069 -127.31398 737.56969
v -111.65743 -62.93393 973.67596
v 86.53920 88.88536 973.67596
v -68.40048 460.08772 860.01157
v -57.99675 253.68616 860.01157
v -84.96256 252.30541 1064.90368
v -95.36630 458.70697 1064.90368
v -68.40048 460.08772 860.01157
v -57.99675 253.68616 860.01157
v -84.96256 252.30541 1064.90368
v -95.36630 458.70697 1064.90368
v -90.58704 160.02650 887.43063
v -171.26466 -95.23627 887.43063
v -204.00459 -84.91725 1152.92935
v -123.32697 170.34552 1152.92935
v -90.58704 160.02650 887.43063
v -171.26466 -95.23627 887.43063
v -204.00459 -84.91725 1152.92935
v -123.32697 170.34552 1152.92935
v -215.34484 -446.88846 905.09092
v -178.51826 -253.32984 905.09092
v -217.91715 -245.86629 1097.99805
v -254.74373 -439.42491 1097.99805
v -215.34484 -446.88846 905.09092
v -178.51826 -253.32984 905.09092
v -217.91715 -245.86629 1097.99805
v -254.74373 -439.42491 1097.99805
v -130.88399 -107.36306 914.42938
v 117.97709 -138.05849 914.42938
v 114.54459 -166.07083 1163.58309
v -134.31649 -135.37539 1163.58309
v -130.88399 -107.36306 914.42938
v 117.97709 -138.05849 914.42938
v 114.54459 -166.07083 1163.58309
v -134.31649 -135.37539 1163.58309
v 99.87303 -33.09301 872.33333
v 328.32315 19.18619 872.33333
v 346.42992 -59.64818 1092.28756
v 117.97979 -111.92739 1092.28756
v 99.87303 -33.09301 872.33333
v 328.32315 19.18619 872.33333
v 346.42992 -59.64818 1092.28756
v 117.97979 -111.92739 1092.28756
v -127.68974 -7.18256 745.26638
v -349.75766 -9.07107 745.26638
v -349.55345 -31.02828 966.25410
v -127.48552 -29.13977 966.25410
v -127.68974 -7.18256 745.26638
v -349.75766 -9.07107 745.26638
v -349.55345 -31.02828 966.25410
v -127.48552 -29.13977 966.25410
vt 0.00000 2.00000
vt 2.00000 2.00000
vt 2.00000 0.00000
vt 0.00000 0.00000
vt 0.00000 2.00000
vt 2.00000 2.00000
vt 2.00000 0.00000
vt 0.00000 0.00000
vt 0.00000 2.00000
vt 2.00000 2.00000
vt 2.00000 0.00000
vt 0.00000 0.00000
vt 0.00000 2.00000
vt 2.00000 2.00000
vt 2.00000 0.00000
vt 0.00000 0.00000
vt 0.00000 2.00000
vt 2.00000 2.00000
vt 2.00000 0.00000
vt 0.00000 0.00000
vt 0.00000 2.00000
vt 2.00000 2.00000
vt 2.00000 0.00000
vt 0.00000 0.00000
vt 0.00000 2.00000
vt 2.00000 2.00000
vt 2.00000 0.00000
vt 0.00000 0.00000
vt 0.00000 2.00000
vt 2.00000 2.00000
vt 2.00000 0.00000
vt 0.00000 0.00000
vt 0.00000 2.00000
vt 2.00000 2.00000
vt 2.00000 0.00000
vt 0.00000 0.00000
vt 0.00000 2.00000
vt 2.00000 2.00000
vt 2.00000 0.00000
vt 0.00000 0.00000
vt 0.00000 2.00000
vt 2.00000 2.00000
vt 2.00000 0.00000
vt 0.00000 0.00000
vt 0.00000 2.00000
vt 2.00000 2.00000
vt 2.00000 0.00000
vt 0.00000 0.00000
vt 0.00000 2.00000
vt 2.00000 2.00000
vt 2.00000 0.00000
vt 0.00000 0.00000
vt 0.00000 2.00000
vt 2.00000 2.00000
vt 2.00000 0.00000
vt 0.00000 0.00000
vt 0.00000 2.00000
vt 2.00000 2.00000
vt 2.00000 0.00000
vt 0.00000 0.00000
vt 0.00000 2.00000
vt 2.00000 2.00000
vt 2.00000 0.00000
vt 0.00000 0.00000
vt 0.00000 2.00000
vt 2.00000 2.00000
vt 2.00000 0.00000
vt 0.00000 0.00000
vt 0.00000 2.00000
vt 2.00000 2.00000
vt 2.00000 0.00000
vt 0.00000 0.00000
vt 0.00000 2.00000
vt 2.00000 2.00000
vt 2.00000 0.00000
vt 0.00000 0.00000
vt 0.00000 2.00000
vt 2.00000 2.00000
vt 2.00000 0.00000
vt 0.00000 0.00000
vt 0.00000 2.00000
vt 2.00000 2.00000
vt 2.00000 0.00000
vt 0.00000 0.00000
vt 0.00000 2.00000
vt 2.00000 2.00000
vt 2.00000 0.00000
vt 0.00000 0.00000
vt 0.00000 2.00000
vt 2.00000 2.00000
vt 2.00000 0.00000
vt 0.00000 0.00000
vt 0.00000 2.00000
vt 2.00000 2.00000
vt 2.00000 0.00000
vt 0.00000 0.00000
vt 0.00000 2.00000
vt 2.00000 2.00000
vt 2.00000 0.00000
vt 0.00000 0.00000
vt 0.00000 2.00000
vt 2.00000 2.00000
vt 2.00000 0.00000
vt 0.00000 0.00000
vt 0.00000 2.00000
vt 2.00000 2.00000
vt 2.00000 0.00000
vt 0.00000 0.00000
vt 0.00000 2.00000
vt 2.00000 2.00000
vt 2.00000 0.00000
vt 0.00000 0.00000
vt 0.00000 2.00000
vt 2.00000 2.00000
vt 2.00000 0.00000
vt 0.00000 0.00000
vt 0.00000 2.00000
vt 2.00000 2.00000
vt 2.00000 0.00000
vt 0.00000 0.00000
vt 0.00000 2.00000
vt 2.00000 2.00000
vt 2.00000 0.00000
vt 0.00000 0.00000
vt 0.00000 2.00000
vt 2.00000 2.00000
vt 2.00000 0.00000
vt 0.00000 0.00000
vt 0.00000 2.00000
vt 2.00000 2.00000
vt 2.00000 0.00000
vt 0.00000 0.00000
vt 0.00000 2.00000
vt 2.00000 2.00000
vt 2.00000 0.00000
vt 0.00000 0.00000
vt 0.00000 2.00000
vt 2.00000 2.00000
vt 2.00000 0.00000
vt 0.00000 0.00000
vt 0.00000 2.00000
vt 2.00000 2.00000
vt 2.00000 0.00000
vt 0.00000 0.00000
vt 0.00000 2.00000
vt 2.00000 2.00000
vt 2.00000 0.00000
vt 0.00000 0.00000
vt 0.00000 2.00000
vt 2.00000 2.00000
vt 2.00000 0.00000
vt 0.00000 0.00000
vt 0.00000 2.00000
vt 2.00000 2.00000
vt 2.00000 0.00000
vt 0.00000 0.00000
vt 0.00000 2.00000
vt 2.00000 2.00000
vt 2.00000 0.00000
vt 0.00000 0.00000
vt 0.00000 2.00000
vt 2.00000 2.00000
vt 2.00000 0.00000
vt 0.00000 0.00000
vt 0.00000 2.00000
vt 2.00000 2.00000
vt 2.00000 0.00000
vt 0.00000 0.00000
vt 0.00000 2.00000
vt 2.00000 2.00000
vt 2.00000 0.00000
vt 0.00000 0.00000
vt 0.00000 2.00000
vt 2.00000 2.00000
vt 2.00000 0.00000
vt 0.00000 0.00000
vt 0.00000 2.00000
vt 2.00000 2.00000
vt 2.00000 0.00000
vt 0.00000 0.00000
vt 0.00000 2.00000
vt 2.00000 2.00000
vt 2.00000 0.00000
vt 0.00000 0.00000
vt 0.00000 2.00000
vt 2.00000 2.00000
vt 2.00000 0.00000
vt 0.00000 0.00000
vt 0.00000 2.00000
vt 2.00000 2.00000
vt 2.00000 0.00000
vt 0.00000 0.00000
vt 0.00000 2.00000
vt 2.00000 2.00000
vt 2.00000 0.00000
vt 0.00000 0.00000
vt 0.00000 2.00000
vt 2.00000 2.00000
vt 2.00000 0.00000
vt 0.00000 0.00000
vt 0.00000 2.00000
vt 2.00000 2.00000
vt 2.00000 0.00000
vt 0.00000 0.00000
vt 0.00000 2.00000
vt 2.00000 2.00000
vt 2.00000 0.00000
vt 0.00000 0.00000
vt 0.00000 2.00000
vt 2.00000 2.00000
vt 2.00000 0.00000
vt 0.00000 0.00000
vt 0.00000 2.00000
vt 2.00000 2.00000
vt 2.00000 0.00000
vt 0.00000 0.00000
vt 0.00000 2.00000
vt 2.00000 2.00000
vt 2.00000 0.00000
vt 0.00000 0.00000
vt 0.00000 2.00000
vt 2.00000 2.00000
vt 2.00000 0.00000
vt 0.00000 0.00000
vt 0.00000 2.00000
vt 2.00000 2.00000
vt 2.00000 0.00000
vt 0.00000 0.00000
vt 0.00000 2.00000
vt 2.00000 2.00000
vt 2.00000 0.00000
vt 0.00000 0.00000
vt 0.00000 2.00000
vt 2.00000 2.00000
vt 2.00000 0.00000
vt 0.00000 0.00000
vt 0.00000 2.00000
vt 2.00000 2.00000
vt 2.00000 0.00000
vt 0.00000 0.00000
vt 0.00000 2.00000
vt 2.00000 2.00000
vt 2.00000 0.00000
vt 0.00000 0.00000
vt 0.00000 2.00000
vt 2.00000 2.00000
vt 2.00000 0.00000
vt 0.00000 0.00000
vt 0.00000 2.00000
vt 2.00000 2.00000
vt 2.00000 0.00000
vt 0.00000 0.00000
vt 0.00000 2.00000
vt 2.00000 2.00000
vt 2.00000 0.00000
vt 0.00000 0.00000
vt 0.00000 2.00000
vt 2.00000 2.00000
vt 2.00000 0.00000
vt 0.00000 0.00000
vt 0.00000 2.00000
vt 2.00000 2.00000
vt 2.00000 0.00000
vt 0.00000 0.00000
vt 0.00000 2.00000
vt 2.00000 2.00000
vt 2.00000 0.00000
vt 0.00000 0.00000
vt 0.00000 2.00000
vt 2.00000 2.00000
vt 2.00000 0.00000
vt 0.00000 0.00000
vt 0.00000 2.00000
vt 2.00000 2.00000
vt 2.00000 0.00000
vt 0.00000 0.00000
vt 0.00000 2.00000
vt 2.00000 2.00000
vt 2.00000 0.00000
vt 0.00000 0.00000
vt 0.00000 2.00000
vt 2.00000 2.00000
vt 2.00000 0.00000
vt 0.00000 0.00000
vt 0.00000 2.00000
vt 2.00000 2.00000
vt 2.00000 0.00000
vt 0.00000 0.00000
vt 0.00000 2.00000
vt 2.00000 2.00000
vt 2.00000 0.00000
vt 0.00000 0.00000
vt 0.00000 2.00000
vt 2.00000 2.00000
vt 2.00000 0.00000
vt 0.00000 0.00000
vt 0.00000 2.00000
vt 2.00000 2.00000
vt 2.00000 0.00000
vt 0.00000 0.00000
vt 0.00000 2.00000
vt 2.00000 2.00000
vt 2.00000 0.00000
vt 0.00000 0.00000
vt 0.00000 2.00000
vt 2.00000 2.00000
vt 2.00000 0.00000
vt 0.00000 0.00000
vt 0.00000 2.00000
vt 2.00000 2.00000
vt 2.00000 0.00000
vt 0.00000 0.00000
vt 0.00000 2.00000
vt 2.00000 2.00000
vt 2.00000 0.00000
vt 0.00000 0.00000
vt 0.00000 2.00000
vt 2.00000 2.00000
vt 2.00000 0.00000
vt 0.00000 0.00000
vt 0.00000 2.00000
vt 2.00000 2.00000
vt 2.00000 0.00000
vt 0.00000 0.00000
vt 0.00000 2.00000
vt 2.00000 2.00000
vt 2.00000 0.00000
vt 0.00000 0.00000
vt 0.00000 2.00000
vt 2.00000 2.00000
vt 2.00000 0.00000
vt 0.00000 0.00000
vt 0.00000 2.00000
vt 2.00000 2.00000
vt 2.00000 0.00000
vt 0.00000 0.00000
vt 0.00000 2.00000
vt 2.00000 2.00000
vt 2.00000 0.00000
vt 0.00000 0.00000
vt 0.00000 2.00000
vt 2.00000 2.00000
vt 2.00000 0.00000
vt 0.00000 0.00000
vt 0.00000 2.00000
vt 2.00000 2.00000
vt 2.00000 0.00000
vt 0.00000 0.00000
vt 0.00000 2.00000
vt 2.00000 2.00000
vt 2.00000 0.00000
vt 0.00000 0.00000
vt 0.00000 2.00000
vt 2.00000 2.00000
vt 2.00000 0.00000
vt 0.00000 0.00000
vt 0.00000 2.00000
vt 2.00000 2.00000
vt 2.00000 0.00000
vt 0.00000 0.00000
vt 0.00000 2.00000
vt 2.00000 2.00000
vt 2.00000 0.00000
vt 0.00000 0.00000
vt 0.00000 2.00000
vt 2.00000 2.00000
vt 2.00000 0.00000
vt 0.00000 0.00000
vt 0.00000 2.00000
vt 2.00000 2.00000
vt 2.00000 0.00000
vt 0.00000 0.00000
vt 0.00000 2.00000
vt 2.00000 2.00000
vt 2.00000 0.00000
vt 0.00000 0.00000
vt 0.00000 2.00000
vt 2.00000 2.00000
vt 2.00000 0.00000
vt 0.00000 0.00000
vt 0.00000 2.00000
vt 2.00000 2.00000
vt 2.00000 0.00000
vt 0.00000 0.00000
vt 0.00000 2.00000
vt 2.00000 2.00000
vt 2.00000 0.00000
vt 0.00000 0.00000
vt 0.00000 2.00000
vt 2.00000 2.00000
vt 2.00000 0.00000
vt 0.00000 0.00000
vt 0.00000 2.00000
vt 2.00000 2.00000
vt 2.00000 0.00000
vt 0.00000 0.00000
vt 0.00000 2.00000
vt 2.00000 2.00000
vt 2.00000 0.00000
vt 0.00000 0.00000
vt 0.00000 2.00000
vt 2.00000 2.00000
vt 2.00000 0.00000
vt 0.00000 0.00000
vt 0.00000 2.00000
vt 2.00000 2.00000
vt 2.00000 0.00000
vt 0.00000 0.00000
vt 0.00000 2.00000
vt 2.00000 2.00000
vt 2.00000 0.00000
vt 0.00000 0.00000
vt 0.00000 2.00000
vt 2.00000 2.00000
vt 2.00000 0.00000
vt 0.00000 0.00000
vt 0.00000 2.00000
vt 2.00000 2.00000
vt 2.00000 0.00000
vt 0.00000 0.00000
vt 0.00000 2.00000
vt 2.00000 2.00000
vt 2.00000 0.00000
vt 0.00000 0.00000
vt 0.00000 2.00000
vt 2.00000 2.00000
vt 2.00000 0.00000
vt 0.00000 0.00000
vt 0.00000 2.00000
vt 2.00000 2.00000
vt 2.00000 0.00000
vt 0.00000 0.00000
vt 0.00000 2.00000
vt 2.00000 2.00000
vt 2.00000 0.00000
vt 0.00000 0.00000
vt 0.00000 2.00000
vt 2.00000 2.00000
vt 2.00000 0.00000
vt 0.00000 0.00000
vt 0.00000 2.00000
vt 2.00000 2.00000
vt 2.00000 0.00000
vt 0.00000 0.00000
vt 0.00000 2.00000
vt 2.00000 2.00000
vt 2.00000 0.00000
vt 0.00000 0.00000
vt 0.00000 2.00000
vt 2.00000 2.00000
vt 2.00000 0.00000
vt 0.00000 0.00000
vt 0.00000 2.00000
vt 2.00000 2.00000
vt 2.00000 0.00000
vt 0.00000 0.00000
vt 0.00000 2.00000
vt 2.00000 2.00000
vt 2.00000 0.00000
vt 0.00000 0.00000
vt 0.00000 2.00000
vt 2.00000 2.00000
vt 2.00000 0.00000
vt 0.00000 0.00000
vt 0.00000 2.00000
vt 2.00000 2.00000
vt 2.00000 0.00000
vt 0.00000 0.00000
vt 0.00000 2.00000
vt 2.00000 2.00000
vt 2.00000 0.00000
vt 0.00000 0.00000
vt 0.00000 2.00000
vt 2.00000 2.00000
vt 2.00000 0.00000
vt 0.00000 0.00000
vt 0.00000 2.00000
vt 2.00000 2.00000
vt 2.00000 0.00000
vt 0.00000 0.00000
vt 0.00000 2.00000
vt 2.00000 2.00000
vt 2.00000 0.00000
vt 0.00000 0.00000
vt 0.00000 2.00000
vt 2.00000 2.00000
vt 2.00000 0.00000
vt 0.00000 0.00000
vt 0.00000 2.00000
vt 2.00000 2.00000
vt 2.00000 0.00000
vt 0.00000 0.00000
vt 0.00000 2.00000
vt 2.00000 2.00000
vt 2.00000 0.00000
vt 0.00000 0.00000
vt 0.00000 2.00000
vt 2.00000 2.00000
vt 2.00000 0.00000
vt 0.00000 0.00000
vt 0.00000 2.00000
vt 2.00000 2.00000
vt 2.00000 0.00000
vt 0.00000 0.00000
vt 0.00000 2.00000
vt 2.00000 2.00000
vt 2.00000 0.00000
vt 0.00000 0.00000
vt 0.00000 2.00000
vt 2.00000 2.00000
vt 2.00000 0.00000
vt 0.00000 0.00000
vt 0.00000 2.00000
vt 2.00000 2.00000
vt 2.00000 0.00000
vt 0.00000 0.00000
vt 0.00000 2.00000
vt 2.00000 2.00000
vt 2.00000 0.00000
vt 0.00000 0.00000
vt 0.00000 2.00000
vt 2.00000 2.00000
vt 2.00000 0.00000
vt 0.00000 0.00000
vt 0.00000 2.00000
vt 2.00000 2.00000
vt 2.00000 0.00000
vt 0.00000 0.00000
vt 0.00000 2.00000
vt 2.00000 2.00000
vt 2.00000 0.00000
vt 0.00000 0.00000
vt 0.00000 2.00000
vt 2.00000 2.00000
vt 2.00000 0.00000
vt 0.00000 0.00000
vt 0.00000 2.00000
vt 2.00000 2.00000
vt 2.00000 0.00000
vt 0.00000 0.00000
vt 0.00000 2.00000
vt 2.00000 2.00000
vt 2.00000 0.00000
vt 0.00000 0.00000
vt 0.00000 2.00000
vt 2.00000 2.00000
vt 2.00000 0.00000
vt 0.00000 0.00000
vt 0.00000 2.00000
vt 2.00000 2.00000
vt 2.00000 0.00000
vt 0.00000 0.00000
vt 0.00000 2.00000
vt 2.00000 2.00000
vt 2.00000 0.00000
vt 0.00000 0.00000
vt 0.00000 2.00000
vt 2.00000 2.00000
vt 2.00000 0.00000
vt 0.00000 0.00000
vn -0.9700 -0.0556 -0.2366
vn 0.9700 0.0556 0.2366
vn 0.5815 0.7223 -0.3744
vn -0.5815 -0.7223 0.3744
vn -0.9446 0.2082 0.2539
vn 0.9446 -0.2082 -0.2539
vn 0.8476 -0.5252 -0.0755
vn -0.8476 0.5252 0.0755
vn 0.5086 0.8137 0.2814
vn -0.5086 -0.8137 -0.2814
vn -0.1481 -0.9219 0.3580
vn 0.1481 0.9219 -0.3580
vn 0.4744 -0.8712 -0.1263
vn -0.4744 0.8712 0.1263
vn 0.0759 0.9946 0.0702
vn -0.0759 -0.9946 -0.0702
vn -0.5997 0.7774 -0.1898
vn 0.5997 -0.7774 0.1898
vn 0.0305 -0.9901 -0.1366
vn -0.0305 0.9901 0.1366
vn 0.3556 -0.9336 -0.0442
vn -0.3556 0.9336 0.0442
vn 0.3909 0.9135 0.1130
vn -0.3909 -0.9135 -0.1130
vn 0.9889 0.1473 -0.0186
vn -0.9889 -0.1473 0.0186
vn 0.7591 -0.6093 0.2291
vn -0.7591 0.6093 -0.2291
vn 0.9125 0.3663 -0.1823
vn -0.9125 -0.3663 0.1823
vn -0.1898 0.9790 -0.0747
vn 0.1898 -0.9790 0.0747
vn -0.2618 0.9181 0.2978
vn 0.2618 -0.9181 -0.2978
vn -0.8125 0.4733 0.3404
vn 0.8125 -0.4733 -0.3404
vn -0.4243 0.8828 -0.2014
vn 0.4243 -0.8828 0.2014
vn 0.9354 0.1730 -0.3084
vn -0.9354 -0.1730 0.3084
vn 0.8162 0.5328 -0.2235
vn -0.8162 -0.5328 0.2235
vn 0.8968 0.3750 0.2349
vn -0.8968 -0.3750 -0.2349
vn -0.8139 0.4647 -0.3487
vn 0.8139 -0.4647 0.3487
vn 0.5576 0.7733 0.3019
vn -0.5576 -0.7733 -0.3019
vn 0.4130 -0.9105 -0.0221
vn -0.4130 0.9105 0.0221
vn -0.2009 -0.9323 0.3009
vn 0.2009 0.9323 -0.3009
vn 0.3434 -0.8665 0.3622
vn -0.3434 0.8665 -0.3622
vn -0.6076 0.7231 -0.3286
vn 0.6076 -0.7231 0.3286
vn 0.9984 -0.0482 -0.0285
vn -0.9984 0.0482 0.0285
vn -0.7735 -0.6230 -0.1167
vn 0.7735 0.6230 0.1167
vn 0.6741 -0.7055 -0.2189
vn -0.6741 0.7055 0.2189
vn -0.7074 -0.6582 0.2577
vn 0.7074 0.6582 -0.2577
vn 0.0234 -0.9606 -0.2771
vn -0.0234 0.9606 0.2771
vn -0.2868 -0.9199 0.2673
vn 0.2868 0.9199 -0.2673
vn 0.9854 0.0805 0.1500
vn -0.9854 -0.0805 -0.1500
vn -0.9004 -0.4350 -0.0036
vn 0.9004 0.4350 0.0036
vn 0.5459 -0.8010 -0.2458
vn -0.5459 0.8010 0.2458
vn 0.4840 0.8736 0.0504
vn -0.4840 -0.8736 -0.0504
vn 0.3830 -0.8950 0.2288
vn -0.3830 0.8950 -0.2288
vn -0.9701 -0.2067 -0.1269
vn 0.9701 0.2067 0.1269
vn 0.9983 0.0129 0.0564
vn -0.9983 -0.0129 -0.0564
vn -0.9459 -0.1510 -0.2871
vn 0.9459 0.1510 0.2871
vn 0.6800 0.7257 0.1047
vn -0.6800 -0.7257 -0.1047
vn 0.9274 0.0580 -0.3696
vn -0.9274 -0.0580 0.3696
vn -0.6090 -0.7286 -0.3135
vn 0.6090 0.7286 0.3135
vn -0.8122 0.5195 -0.2654
vn 0.8122 -0.5195 0.2654
vn 0.8597 -0.4824 -0.1681
vn -0.8597 0.4824 0.1681
vn 0.4799 0.8740 0.0761
vn -0.4799 -0.8740 -0.0761
vn 0.9331 -0.3425 -0.1098
vn -0.9331 0.3425 0.1098
vn 0.0477 -0.9550 -0.2928
vn -0.0477 0.9550 0.2928
vn -0.9238 -0.3798 -0.0480
vn 0.9238 0.3798 0.0480
vn -0.9152 -0.3163 0.2497
vn 0.9152 0.3163 -0.2497
vn -0.4062 -0.8859 0.2240
vn 0.4062 0.8859 -0.2240
vn -0.3595 -0.8590 0.3644
vn 0.3595 0.8590 -0.3644
vn -0.4673 -0.8048 0.3659
vn 0.4673 0.8048 -0.3659
vn 0.1394 0.9583 0.2493
vn -0.1394 -0.9583 -0.2493
vn -0.8876 0.4028 -0.2236
vn 0.8876 -0.4028 0.2236
vn 0.9571 0.2317 -0.1741
vn -0.9571 -0.2317 0.1741
vn -0.9503 -0.2564 -0.1767
vn 0.9503 0.2564 0.1767
vn -0.6056 0.7958 0.0013
vn 0.6056 -0.7958 -0.0013
vn 0.3500 0.8858 0.3047
vn -0.3500 -0.8858 -0.3047
vn 0.9132 -0.3117 0.2624
vn -0.9132 0.3117 -0.2624
vn -0.9180 -0.2886 -0.2720
vn 0.9180 0.2886 0.2720
vn 0.5751 -0.7508 0.3250
vn -0.5751 0.7508 -0.3250
vn 0.9902 0.0499 0.1307
vn -0.9902 -0.0499 -0.1307
vn 0.9456 -0.2989 0.1282
vn -0.9456 0.2989 -0.1282
vn -0.9618 0.1830 -0.2035
vn 0.9618 -0.1830 0.2035
vn 0.1216 0.9862 0.1126
vn -0.1216 -0.9862 -0.1126
vn -0.2094 0.9149 0.3451
vn 0.2094 -0.9149 -0.3451
vn 0.0085 -0.9951 -0.0989
vn -0.0085 0.9951 0.0989
f 1/1/1 3/3/1 2/2/1
f 1/1/1 4/4/1 3/3/1
f 5/5/2 7/7/2 8/8/2
f 5/5/2 6/6/2 7/7/2
f 9/9/3 11/11/3 10/10/3
f 9/9/3 12/12/3 11/11/3
f 13/13/4 15/15/4 16/16/4
f 13/13/4 14/14/4 15/15/4
f 17/17/5 19/19/5 18/18/5
f 17/17/5 20/20/5 19/19/5
f 21/21/6 23/23/6 24/24/6
f 21/21/6 22/22/6 23/23/6
f 25/25/7 27/27/7 26/26/7
f 25/25/7 28/28/7 27/27/7
f 29/29/8 31/31/8 32/32/8
f 29/29/8 30/30/8 31/31/8
f 33/33/9 35/35/9 34/34/9
f 33/33/9 36/36/9 35/35/9
f 37/37/10 39/39/10 40/40/10
f 37/37/10 38/38/10 39/39/10
f 41/41/11 43/43/11 42/42/11
f 41/41/11 44/44/11 43/43/11
f 45/45/12 47/47/12 48/48/12
f 45/45/12 46/46/12 47/47/12
f 49/49/13 51/51/13 50/50/13
f 49/49/13 52/52/13 51/51/13
f 53/53/14 55/55/14 56/56/14
f 53/53/14 54/54/14 55/55/14
f 57/57/15 59/59/15 58/58/15
f 57/57/15 60/60/15 59/59/15
f 61/61/16 63/63/16 64/64/16
f 61/61/16 62/62/16 63/63/16
f 65/65/17 67/67/17 66/66/17
f 65/65/17 68/68/17 67/67/17
f 69/69/18 71/71/18 72/72/18
f 69/69/18 70/70/18 71/71/18
f 73/73/19 75/75/19 74/74/19
f 73/73/19 76/76/19 75/75/19
f 77/77/20 79/79/20 80/80/20
f 77/77/20 78/78/20 79/79/20
f 81/81/21 83/83/21 82/82/21
f 81/81/21 84/84/21 83/83/21
f 85/85/22 87/87/22 88/88/22
f 85/85/22 86/86/22 87/87/22
f 89/89/23 91/91/23 90/90/23
f 89/89/23 92/92/23 91/91/23
f 93/93/24 95/95/24 96/96/24
f 93/93/24 94/94/24 95/95/24
f 97/97/25 99/99/25 98/98/25
f 97/97/25 100/100/25 99/99/25
f 101/101/26 103/103/26 104/104/26
f 101/101/26 102/102/26 103/103/26
f 105/105/27 107/107/27 106/106/27
f 105/105/27 108/108/27 107/107/27
f 109/109/28 111/111/28 112/112/28
f 109/109/28 110/110/28 111/111/28
f 113/113/29 115/115/29 114/114/29
f 113/113/29 116/116/29 115/115/29
f 117/117/30 119/119/30 120/120/30
f 117/117/30 118/118/30 119/119/30
f 121/121/31 123/123/31 122/122/31
f 121/121/31 124/124/31 123/123/31
f 125/125/32 127/127/32 128/128/32
f 125/125/32 126/126/32 127/127/32
f 129/129/33 131/131/33 130/130/33
f 129/129/33 132/132/33 131/131/33
f 133/133/34 135/135/34 136/136/34
f 133/133/34 134/134/34 135/135/34
f 137/137/35 139/139/35 138/138/35
f 137/137/35 140/140/35 139/139/35
f 141/141/36 143/143/36 144/144/36
f 141/141/36 142/142/36 143/143/36
f 145/145/37 147/147/37 146/146/37
f 145/145/37 148/148/37 147/147/37
f 149/149/38 151/151/38 152/152/38
f 149/149/38 150/150/38 151/151/38
f 153/153/39 155/155/39 154/154/39
f 153/153/39 156/156/39 155/155/39
f 157/157/40 159/159/40 160/160/40
f 157/157/40 158/158/40 159/159/40
f 161/161/41 163/163/41 162/162/41
f 161/161/41 164/164/41 163/163/41
f 165/165/42 167/167/42 168/168/42
f 165/165/42 166/166/42 167/167/42
f 169/169/43 171/171/43 170/170/43
f 169/169/43 172/172/43 171/171/43
f 173/173/44 175/175/44 176/176/44
f 173/173/44 174/174/44 175/175/44
f 177/177/45 179/179/45 178/178/45
f 177/177/45 180/180/45 179/179/45
f 181/181/46 183/183/46 184/184/46
f 181/181/46 182/182/46 183/183/46
f 185/185/47 187/187/47 186/186/47
f 185/185/47 188/188/47 187/187/47
f 189/189/48 191/191/48 192/192/48
f 189/189/48 190/190/48 191/191/48
f 193/193/49 195/195/49 194/194/49
f 193/193/49 196/196/49 195/195/49
f 197/197/50 199/199/50 200/200/50
f 197/197/50 198/198/50 199/199/50
f 201/201/51 203/203/51 202/202/51
f 201/201/51 204/204/51 203/203/51
f 205/205/52 207/207/52 208/208/52
f 205/205/52 206/206/52 207/207/52
f 209/209/53 211/211/53 210/210/53
f 209/209/53 212/212/53 211/211/53
f 213/213/54 215/215/54 216/216/54
f 213/213/54 214/214/54 215/215/54
f 217/217/55 219/219/55 218/218/55
f 217/217/55 220/220/55 219/219/55
f 221/221/56 223/223/56 224/224/56
f 221/221/56 222/222/56 223/223/56
f 225/225/57 227/227/57 226/226/57
f 225/225/57 228/228/57 227/227/57
f 229/229/58 231/231/58 232/232/58
f 229/229/58 230/230/58 231/231/58
f 233/233/59 235/235/59 234/234/59
f 233/233/59 236/236/59 235/235/59
f 237/237/60 239/239/60 240/240/60
f 237/237/60 238/238/60 239/239/60
f 241/241/61 243/243/61 242/242/61
f 241/241/61 244/244/61 243/243/61
f 245/245/62 247/247/62 248/248/62
f 245/245/62 246/246/62 247/247/62
f 249/249/63 251/251/63 250/250/63
f 249/249/63 252/252/63 251/251/63
f 253/253/64 255/255/64 256/256/64
f 253/253/64 254/254/64 255/255/64
f 257/257/65 259/259/65 258/258/65
f 257/257/65 260/260/65 259/259/65
f 261/261/66 263/263/66 264/264/66
f 261/261/66 262/262/66 263/263/66
f 265/265/67 267/267/67 266/266/67
f 265/265/67 268/268/67 267/267/67
f 269/269/68 271/271/68 272/272/68
f 269/269/68 270/270/68 271/271/68
f 273/273/69 275/275/69 274/274/69
f 273/273/69 276/276/69 275/275/69
f 277/277/70 279/279/70 280/280/70
f 277/277/70 278/278/70 279/279/70
f 281/281/71 283/283/71 282/282/71
f 281/281/71 284/284/71 283/283/71
f 285/285/72 287/287/72 288/288/72
f 285/285/72 286/286/72 287/287/72
f 289/289/73 291/291/73 290/290/73
f 289/289/73 292/292/73 291/291/73
f 293/293/74 295/295/74 296/296/74
f 293/293/74 294/294/74 295/295/74
f 297/297/75 299/299/75 298/298/75
f 297/297/75 300/300/75 299/299/75
f 301/301/76 303/303/76 304/304/76
f 301/301/76 302/302/76 303/303/76
f 305/305/77 307/307/77 306/306/77
f 305/305/77 308/308/77 307/307/77
f 309/309/78 311/311/78 312/312/78
f 309/309/78 310/310/78 311/311/78
f 313/313/79 315/315/79 314/314/79
f 313/313/79 316/316/79 315/315/79
f 317/317/80 319/319/80 320/320/80
f 317/317/80 318/318/80 319/319/80
f 321/321/81 323/323/81 322/322/81
f 321/321/81 324/324/81 323/323/81
f 325/325/82 327/327/82 328/328/82
f 325/325/82 326/326/82 327/327/82
f 329/329/83 331/331/83 330/330/83
f 329/329/83 332/332/83 331/331/83
f 333/333/84 335/335/84 336/336/84
f 333/333/84 334/334/84 335/335/84
f 337/337/85 339/339/85 338/338/85
f 337/337/85 340/340/85 339/339/85
f 341/341/86 343/343/86 344/344/86
f 341/341/86 342/342/86 343/343/86
f 345/345/87 347/347/87 346/346/87
f 345/345/87 348/348/87 347/347/87
f 349/349/88 351/351/88 352/352/88
f 349/349/88 350/350/88 351/351/88
f 353/353/89 355/355/89 354/354/89
f 353/353/89 356/356/89 355/355/89
f 357/357/90 359/359/90 360/360/90
f 357/357/90 358/358/90 359/359/90
f 361/361/91 363/363/91 362/362/91
f 361/361/91 364/364/91 363/363/91
f 365/365/92 367/367/92 368/368/92
f 365/365/92 366/366/92 367/367/92
f 369/369/93 371/371/93 370/370/93
f 369/369/93 372/372/93 371/371/93
f 373/373/94 375/375/94 376/376/94
f 373/373/94 374/374/94 375/375/94
f 377/377/95 379/379/95 378/378/95
f 377/377/95 380/380/95 379/379/95
f 381/381/96 383/383/96 384/384/96
f 381/381/96 382/382/96 383/383/96
f 385/385/97 387/387/97 386/386/97
f 385/385/97 388/388/97 387/387/97
f 389/389/98 391/391/98 392/392/98
f 389/389/98 390/390/98 391/391/98
f 393/393/99 395/395/99 394/394/99
f 393/393/99 396/396/99 395/395/99
f 397/397/100 399/399/100 400/400/100
f 397/397/100 398/398/100 399/399/100
f 401/401/101 403/403/101 402/402/101
f 401/401/101 404/404/101 403/403/101
f 405/405/102 407/407/102 408/408/102
f 405/405/102 406/406/102 407/407/102
f 409/409/103 411/411/103 410/410/103
f 409/409/103 412/412/103 411/411/103
f 413/413/104 415/415/104 416/416/104
f 413/413/104 414/414/104 415/415/104
f 417/417/105 419/419/105 418/418/105
f 417/417/105 420/420/105 419/419/105
f 421/421/106 423/423/106 424/424/106
f 421/421/106 422/422/106 423/423/106
f 425/425/107 427/427/107 426/426/107
f 425/425/107 428/428/107 427/427/107
f 429/429/108 431/431/108 432/432/108
f 429/429/108 430/430/108 431/431/108
f 433/433/109 435/435/109 434/434/109
f 433/433/109 436/436/109 435/435/109
f 437/437/110 439/439/110 440/440/110
f 437/437/110 438/438/110 439/439/110
f 441/441/111 443/443/111 442/442/111
f 441/441/111 444/444/111 443/443/111
f 445/445/112 447/447/112 448/448/112
f 445/445/112 446/446/112 447/447/112
f 449/449/113 451/451/113 450/450/113
f 449/449/113 452/452/113 451/451/113
f 453/453/114 455/455/114 456/456/114
f 453/453/114 454/454/114 455/455/114
f 457/457/115 459/459/115 458/458/115
f 457/457/115 460/460/115 459/459/115
f 461/461/116 463/463/116 464/464/116
f 461/461/116 462/462/116 463/463/116
f 465/465/117 467/467/117 466/466/117
f 465/465/117 468/468/117 467/467/117
f 469/469/118 471/471/118 472/472/118
f 469/469/118 470/470/118 471/471/118
f 473/473/119 475/475/119 474/474/119
f 473/473/119 476/476/119 475/475/119
f 477/477/120 479/479/120 480/480/120
f 477/477/120 478/478/120 479/479/120
f 481/481/121 483/483/121 482/482/121
f 481/481/121 484/484/121 483/483/121
f 485/485/122 487/487/122 488/488/122
f 485/485/122 486/486/122 487/487/122
f 489/489/123 491/491/123 490/490/123
f 489/489/123 492/492/123 491/491/123
f 493/493/124 495/495/124 496/496/124
f 493/493/124 494/494/124 495/495/124
f 497/497/125 499/499/125 498/498/125
f 497/497/125 500/500/125 499/499/125
f 501/501/126 503/503/126 504/504/126
f 501/501/126 502/502/126 503/503/126
f 505/505/127 507/507/127 506/506/127
f 505/505/127 508/508/127 507/507/127
f 509/509/128 511/511/128 512/512/128
f 509/509/128 510/510/128 511/511/128
f 513/513/129 515/515/129 514/514/129
f 513/513/129 516/516/129 515/515/129
f 517/517/130 519/519/130 520/520/130
f 517/517/130 518/518/130 519/519/130
f 521/521/131 523/523/131 522/522/131
f 521/521/131 524/524/131 523/523/131
f 525/525/132 527/527/132 528/528/132
f 525/525/132 526/526/132 527/527/132
f 529/529/133 531/531/133 530/530/133
f 529/529/133 532/532/133 531/531/133
f 533/533/134 535/535/134 536/536/134
f 533/533/134 534/534/134 535/535/134
f 537/537/135 539/539/135 538/538/135
f 537/537/135 540/540/135 539/539/135
f 541/541/136 543/543/136 544/544/136
f 541/541/136 542/542/136 543/543/136
f 545/545/137 547/547/137 546/546/137
f 545/545/137 548/548/137 547/547/137
f 549/549/138 551/551/138 552/552/138
f 549/549/138 550/550/138 551/551/138
f 553/553/139 555/555/139 554/554/139
f 553/553/139 556/556/139 555/555/139
f 557/557/140 559/559/140 560/560/140
f 557/557/140 558/558/140 559/559/140
