# JudeanFloraV1; canonical UE cm (X east, +Y south, Z up), written with Y reflected and triangle winding reversed for the legacy OBJ importer adapter. One o object, no g groups, so the importer creates exactly one material slot.
# olive (Olea europaea), StreetTreesV1 seed 0, LOD2 bark
# height 4.5-9.0 m, crown 4.0-7.5 m; source: Zohary, M., Plants of the Bible (Cambridge University Press, 1982), species entry Olea europaea; street and garden specimens run 4.5-9 m
# branching is recursive with da Vinci child radii; leaf sprays are anchored to branch tips. Stylised habit, not a survey of any tree.
o SM_StreetTreesV1_Olive_S0_L2_Bark
s off
v 0.00000 48.88527 -3.61500
v 40.05770 -0.14549 -1.96750
v 0.00000 -48.88527 3.61500
v -40.05770 0.14549 1.96750
v 5.87495 42.76039 52.93140
v 34.49818 1.46525 54.49945
v -0.32604 -34.45153 59.42839
v -28.94927 6.84361 57.86035
v 11.74345 40.05150 108.89442
v 32.53043 4.57606 110.86380
v 1.65797 -22.23832 115.59279
v -19.12901 13.23711 113.62341
v 16.91748 40.73499 164.97211
v 32.29178 9.51367 167.58811
v 4.21409 -10.85936 171.40475
v -11.16021 20.36197 168.78874
v 20.20417 43.23358 221.50436
v 31.67272 15.09424 224.36906
v 5.58955 -0.56043 226.85035
v -5.87899 27.57892 223.98565
v 21.63190 46.36839 277.80050
v 30.09187 20.64559 280.77025
v 5.62612 8.81597 282.65183
v -2.83385 34.53877 279.68208
v 23.35371 50.94706 333.83391
v 29.35270 27.44349 336.77960
v 6.51314 18.91668 338.43193
v 0.51414 42.42025 335.48624
v 14.93342 45.30525 334.26662
v 25.43284 35.09533 337.04147
v 14.93342 24.55849 337.99921
v 4.43400 34.76841 335.22437
v 7.61616 58.66712 416.47284
v 16.73576 49.75807 418.55701
v 7.61616 40.66927 419.60992
v -1.50343 49.57832 417.52575
v 5.36394 71.18757 499.12586
v 13.08278 63.62841 500.78781
v 5.36394 55.93772 501.65747
v -2.35490 63.49688 499.99553
v -1.06196 83.22765 581.58087
v 5.24326 77.06475 583.08005
v -1.06196 70.74506 583.61913
v -7.36718 76.90797 582.11995
v 22.55046 28.99748 336.13292
v 9.87152 28.43470 341.17278
v 7.31638 40.86626 336.13292
v 19.99533 41.42904 331.09306
v 48.21256 64.03632 407.47103
v 37.20459 63.85251 411.81296
v 35.31088 74.69793 407.47103
v 46.31886 74.88174 403.12910
v 75.32346 96.92426 479.10830
v 65.92344 97.34932 482.53465
v 65.09837 106.72269 479.10830
v 74.49839 106.29764 475.68196
v 101.68321 123.53497 553.71622
v 93.94839 124.20475 556.33425
v 93.73429 131.96556 553.71622
v 101.46911 131.29578 551.09819
v 11.05384 26.08964 336.13292
v 7.38561 38.24352 341.16280
v 18.81301 43.77410 336.13292
v 22.48124 31.62022 331.10304
v 50.53325 10.18045 405.32363
v 46.79436 20.64609 409.39213
v 56.66450 25.75386 405.32363
v 60.40338 15.28822 401.25512
v 86.13204 -0.68515 477.65666
v 82.15150 7.93068 480.85098
v 90.26096 12.86157 477.65666
v 94.24150 4.24574 474.46235
v 122.04939 -8.94899 549.98648
v 118.54946 -2.01774 552.60150
v 125.03902 2.24576 549.98648
v 128.53895 -4.68549 547.37145
vt 0.00000 0.00000
vt 0.25000 0.00000
vt 0.50000 0.00000
vt 0.75000 0.00000
vt 0.00000 0.16667
vt 0.25000 0.16667
vt 0.50000 0.16667
vt 0.75000 0.16667
vt 0.00000 0.33333
vt 0.25000 0.33333
vt 0.50000 0.33333
vt 0.75000 0.33333
vt 0.00000 0.50000
vt 0.25000 0.50000
vt 0.50000 0.50000
vt 0.75000 0.50000
vt 0.00000 0.66667
vt 0.25000 0.66667
vt 0.50000 0.66667
vt 0.75000 0.66667
vt 0.00000 0.83333
vt 0.25000 0.83333
vt 0.50000 0.83333
vt 0.75000 0.83333
vt 0.00000 1.00000
vt 0.25000 1.00000
vt 0.50000 1.00000
vt 0.75000 1.00000
vt 0.00000 0.00000
vt 0.25000 0.00000
vt 0.50000 0.00000
vt 0.75000 0.00000
vt 0.00000 0.33333
vt 0.25000 0.33333
vt 0.50000 0.33333
vt 0.75000 0.33333
vt 0.00000 0.66667
vt 0.25000 0.66667
vt 0.50000 0.66667
vt 0.75000 0.66667
vt 0.00000 1.00000
vt 0.25000 1.00000
vt 0.50000 1.00000
vt 0.75000 1.00000
vt 0.00000 0.00000
vt 0.25000 0.00000
vt 0.50000 0.00000
vt 0.75000 0.00000
vt 0.00000 0.33333
vt 0.25000 0.33333
vt 0.50000 0.33333
vt 0.75000 0.33333
vt 0.00000 0.66667
vt 0.25000 0.66667
vt 0.50000 0.66667
vt 0.75000 0.66667
vt 0.00000 1.00000
vt 0.25000 1.00000
vt 0.50000 1.00000
vt 0.75000 1.00000
vt 0.00000 0.00000
vt 0.25000 0.00000
vt 0.50000 0.00000
vt 0.75000 0.00000
vt 0.00000 0.33333
vt 0.25000 0.33333
vt 0.50000 0.33333
vt 0.75000 0.33333
vt 0.00000 0.66667
vt 0.25000 0.66667
vt 0.50000 0.66667
vt 0.75000 0.66667
vt 0.00000 1.00000
vt 0.25000 1.00000
vt 0.50000 1.00000
vt 0.75000 1.00000
vn 0.7722 0.6328 0.0580
vn 0.8221 0.5689 -0.0238
vn 0.7713 -0.6151 0.1636
vn 0.7212 -0.6868 0.0906
vn -0.7584 -0.6121 0.2241
vn -0.8162 -0.5604 0.1402
vn -0.7557 0.6380 0.1476
vn -0.7128 0.6990 0.0579
vn 0.8219 0.5696 -0.0027
vn 0.8625 0.5017 -0.0662
vn 0.7209 -0.6821 0.1229
vn 0.6600 -0.7485 0.0644
vn -0.8080 -0.5522 0.2056
vn -0.8579 -0.4950 0.1379
vn -0.7063 0.6996 0.1079
vn -0.6530 0.7568 0.0282
vn 0.8631 0.5035 -0.0402
vn 0.8965 0.4341 -0.0880
vn 0.6614 -0.7402 0.1206
vn 0.5922 -0.8026 0.0724
vn -0.8522 -0.4890 0.1863
vn -0.8939 -0.4294 0.1285
vn -0.6505 0.7578 0.0508
vn -0.5889 0.8080 -0.0193
vn 0.8977 0.4393 -0.0334
vn 0.9262 0.3704 -0.0702
vn 0.5938 -0.7936 0.1327
vn 0.5188 -0.8502 0.0892
vn -0.8928 -0.4278 0.1414
vn -0.9254 -0.3679 0.0913
vn -0.5874 0.8093 -0.0016
vn -0.5180 0.8532 -0.0620
vn 0.9264 0.3764 -0.0111
vn 0.9505 0.3079 -0.0412
vn 0.5193 -0.8428 0.1413
vn 0.4393 -0.8927 0.1002
vn -0.9251 -0.3672 0.0965
vn -0.9504 -0.3066 0.0521
vn -0.5167 0.8555 -0.0345
vn -0.4391 0.8942 -0.0877
vn 0.9505 0.3097 -0.0250
vn 0.9692 0.2412 -0.0495
vn 0.4397 -0.8850 0.1533
vn 0.3548 -0.9276 0.1173
vn -0.9486 -0.3005 0.0994
vn -0.9690 -0.2399 0.0589
vn -0.4382 0.8969 -0.0598
vn -0.3546 0.9285 -0.1099
vn 0.0231 0.1301 0.9912
vn -0.0492 -0.0737 -0.9961
vn 0.7033 0.7090 -0.0525
vn 0.7039 0.7083 -0.0525
vn 0.7033 -0.6828 0.1979
vn -0.7054 -0.7047 0.0759
vn -0.7056 -0.7045 0.0758
vn -0.7054 0.6870 -0.1745
vn -0.7051 0.6873 -0.1745
vn 0.7063 0.7026 -0.0871
vn 0.7065 0.7023 -0.0871
vn 0.7066 -0.6919 0.1482
vn 0.7064 -0.6922 0.1481
vn -0.7073 -0.6982 0.1105
vn -0.7074 -0.6981 0.1105
vn -0.7076 0.6955 -0.1246
vn -0.7073 0.6958 -0.1247
vn 0.7042 0.7084 -0.0486
vn 0.7040 0.7085 -0.0486
vn 0.7044 -0.6867 0.1793
vn 0.7041 -0.6871 0.1793
vn -0.7057 -0.7048 0.0720
vn -0.7059 -0.7047 0.0720
vn -0.7059 0.6909 -0.1559
vn -0.7059 0.6910 -0.1559
vn -0.0769 0.1607 0.9840
vn 0.0876 -0.1764 -0.9804
vn 0.1912 -0.9051 0.3798
vn 0.1672 -0.9074 0.3855
vn -0.9244 -0.0360 0.3798
vn -0.9299 -0.0153 0.3675
vn -0.1830 0.9155 -0.3583
vn -0.1614 0.9147 -0.3705
vn 0.9325 0.0464 -0.3582
vn 0.9356 0.0223 -0.3523
vn 0.1606 -0.9157 0.3685
vn 0.0985 -0.9180 0.3842
vn -0.9223 -0.0064 0.3864
vn -0.9332 0.0481 0.3562
vn -0.1507 0.9272 -0.3429
vn -0.0944 0.9229 -0.3733
vn 0.9323 0.0182 -0.3612
vn 0.9375 -0.0437 -0.3452
vn 0.0726 -0.9458 0.3166
vn 0.0288 -0.9447 0.3268
vn -0.9376 0.0436 0.3451
vn -0.9413 0.0843 0.3268
vn -0.0638 0.9539 -0.2934
vn -0.0235 0.9497 -0.3123
vn 0.9461 -0.0344 -0.3220
vn 0.9467 -0.0792 -0.3123
vn 0.3288 0.3100 0.8921
vn -0.3208 -0.4117 -0.8530
vn -0.8325 -0.4069 0.3759
vn -0.8210 -0.4364 0.3681
vn -0.2644 0.8881 0.3759
vn -0.2899 0.8728 0.3926
vn 0.8410 0.4031 -0.3608
vn 0.8340 0.4316 -0.3438
vn 0.2728 -0.8919 -0.3608
vn 0.3030 -0.8789 -0.3684
vn -0.8371 -0.4303 0.3376
vn -0.8077 -0.4930 0.3234
vn -0.3317 0.8901 0.3127
vn -0.3856 0.8565 0.3432
vn 0.8433 0.4277 -0.3253
vn 0.8213 0.4886 -0.2944
vn 0.3378 -0.8920 -0.3003
vn 0.3996 -0.8610 -0.3146
vn -0.8006 -0.4950 0.3375
vn -0.7863 -0.5218 0.3308
vn -0.3981 0.8606 0.3177
vn -0.4214 0.8444 0.3308
vn 0.8092 0.4926 -0.3203
vn 0.7977 0.5188 -0.3074
vn 0.4064 -0.8629 -0.3004
vn 0.4329 -0.8474 -0.3074
vn 0.4361 -0.1165 0.8923
vn -0.4770 0.2093 -0.8536
f 1/1/1 6/6/1 2/2/1
f 1/1/2 5/5/2 6/6/2
f 2/2/3 7/7/3 3/3/3
f 2/2/4 6/6/4 7/7/4
f 3/3/5 8/8/5 4/4/5
f 3/3/6 7/7/6 8/8/6
f 4/4/7 5/5/7 1/1/7
f 4/4/8 8/8/8 5/5/8
f 5/5/9 10/10/9 6/6/9
f 5/5/10 9/9/10 10/10/10
f 6/6/11 11/11/11 7/7/11
f 6/6/12 10/10/12 11/11/12
f 7/7/13 12/12/13 8/8/13
f 7/7/14 11/11/14 12/12/14
f 8/8/15 9/9/15 5/5/15
f 8/8/16 12/12/16 9/9/16
f 9/9/17 14/14/17 10/10/17
f 9/9/18 13/13/18 14/14/18
f 10/10/19 15/15/19 11/11/19
f 10/10/20 14/14/20 15/15/20
f 11/11/21 16/16/21 12/12/21
f 11/11/22 15/15/22 16/16/22
f 12/12/23 13/13/23 9/9/23
f 12/12/24 16/16/24 13/13/24
f 13/13/25 18/18/25 14/14/25
f 13/13/26 17/17/26 18/18/26
f 14/14/27 19/19/27 15/15/27
f 14/14/28 18/18/28 19/19/28
f 15/15/29 20/20/29 16/16/29
f 15/15/30 19/19/30 20/20/30
f 16/16/31 17/17/31 13/13/31
f 16/16/32 20/20/32 17/17/32
f 17/17/33 22/22/33 18/18/33
f 17/17/34 21/21/34 22/22/34
f 18/18/35 23/23/35 19/19/35
f 18/18/36 22/22/36 23/23/36
f 19/19/37 24/24/37 20/20/37
f 19/19/38 23/23/38 24/24/38
f 20/20/39 21/21/39 17/17/39
f 20/20/40 24/24/40 21/21/40
f 21/21/41 26/26/41 22/22/41
f 21/21/42 25/25/42 26/26/42
f 22/22/43 27/27/43 23/23/43
f 22/22/44 26/26/44 27/27/44
f 23/23/45 28/28/45 24/24/45
f 23/23/46 27/27/46 28/28/46
f 24/24/47 25/25/47 21/21/47
f 24/24/48 28/28/48 25/25/48
f 25/25/49 27/27/49 26/26/49
f 25/25/49 28/28/49 27/27/49
f 4/4/50 2/2/50 3/3/50
f 4/4/50 1/1/50 2/2/50
f 29/29/51 34/34/51 30/30/51
f 29/29/52 33/33/52 34/34/52
f 30/30/53 35/35/53 31/31/53
f 30/30/53 34/34/53 35/35/53
f 31/31/54 36/36/54 32/32/54
f 31/31/55 35/35/55 36/36/55
f 32/32/56 33/33/56 29/29/56
f 32/32/57 36/36/57 33/33/57
f 33/33/58 38/38/58 34/34/58
f 33/33/59 37/37/59 38/38/59
f 34/34/60 39/39/60 35/35/60
f 34/34/61 38/38/61 39/39/61
f 35/35/62 40/40/62 36/36/62
f 35/35/63 39/39/63 40/40/63
f 36/36/64 37/37/64 33/33/64
f 36/36/65 40/40/65 37/37/65
f 37/37/66 42/42/66 38/38/66
f 37/37/67 41/41/67 42/42/67
f 38/38/68 43/43/68 39/39/68
f 38/38/69 42/42/69 43/43/69
f 39/39/70 44/44/70 40/40/70
f 39/39/71 43/43/71 44/44/71
f 40/40/72 41/41/72 37/37/72
f 40/40/73 44/44/73 41/41/73
f 41/41/74 43/43/74 42/42/74
f 41/41/74 44/44/74 43/43/74
f 32/32/75 30/30/75 31/31/75
f 32/32/75 29/29/75 30/30/75
f 45/45/76 50/50/76 46/46/76
f 45/45/77 49/49/77 50/50/77
f 46/46/78 51/51/78 47/47/78
f 46/46/79 50/50/79 51/51/79
f 47/47/80 52/52/80 48/48/80
f 47/47/81 51/51/81 52/52/81
f 48/48/82 49/49/82 45/45/82
f 48/48/83 52/52/83 49/49/83
f 49/49/84 54/54/84 50/50/84
f 49/49/85 53/53/85 54/54/85
f 50/50/86 55/55/86 51/51/86
f 50/50/87 54/54/87 55/55/87
f 51/51/88 56/56/88 52/52/88
f 51/51/89 55/55/89 56/56/89
f 52/52/90 53/53/90 49/49/90
f 52/52/91 56/56/91 53/53/91
f 53/53/92 58/58/92 54/54/92
f 53/53/93 57/57/93 58/58/93
f 54/54/94 59/59/94 55/55/94
f 54/54/95 58/58/95 59/59/95
f 55/55/96 60/60/96 56/56/96
f 55/55/97 59/59/97 60/60/97
f 56/56/98 57/57/98 53/53/98
f 56/56/99 60/60/99 57/57/99
f 57/57/100 59/59/100 58/58/100
f 57/57/100 60/60/100 59/59/100
f 48/48/101 46/46/101 47/47/101
f 48/48/101 45/45/101 46/46/101
f 61/61/102 66/66/102 62/62/102
f 61/61/103 65/65/103 66/66/103
f 62/62/104 67/67/104 63/63/104
f 62/62/105 66/66/105 67/67/105
f 63/63/106 68/68/106 64/64/106
f 63/63/107 67/67/107 68/68/107
f 64/64/108 65/65/108 61/61/108
f 64/64/109 68/68/109 65/65/109
f 65/65/110 70/70/110 66/66/110
f 65/65/111 69/69/111 70/70/111
f 66/66/112 71/71/112 67/67/112
f 66/66/113 70/70/113 71/71/113
f 67/67/114 72/72/114 68/68/114
f 67/67/115 71/71/115 72/72/115
f 68/68/116 69/69/116 65/65/116
f 68/68/117 72/72/117 69/69/117
f 69/69/118 74/74/118 70/70/118
f 69/69/119 73/73/119 74/74/119
f 70/70/120 75/75/120 71/71/120
f 70/70/121 74/74/121 75/75/121
f 71/71/122 76/76/122 72/72/122
f 71/71/123 75/75/123 76/76/123
f 72/72/124 73/73/124 69/69/124
f 72/72/125 76/76/125 73/73/125
f 73/73/126 75/75/126 74/74/126
f 73/73/126 76/76/126 75/75/126
f 64/64/127 62/62/127 63/63/127
f 64/64/127 61/61/127 62/62/127
