# JudeanFloraV1; canonical UE cm (X east, +Y south, Z up), written with Y reflected and triangle winding reversed for the legacy OBJ importer adapter. One o object, no g groups, so the importer creates exactly one material slot.
# Italian cypress (Cupressus sempervirens), StreetTreesV1 seed 3, LOD1 bark
# height 10.0-19.0 m, crown 1.8-3.8 m; source: Zohary, M., Plants of the Bible (Cambridge University Press, 1982), species entry Cupressus sempervirens; the columnar form is 1.8-3.8 m across at 10-19 m
# branching is recursive with da Vinci child radii; leaf sprays are anchored to branch tips. Stylised habit, not a survey of any tree.
o SM_StreetTreesV1_Cypress_S3_L1_Bark
s off
v 0.00000 28.59750 0.00600
v 23.55735 13.60129 -0.17982
v 24.76542 -14.29871 -0.19504
v 0.00000 -27.20250 -0.00571
v -24.76542 -14.29879 0.18904
v -23.55735 13.60121 0.18553
v 0.87329 22.62245 68.75655
v 19.34100 10.47160 68.45586
v 19.96495 -11.62810 68.51360
v 0.21079 -21.54818 68.90697
v -19.23693 -11.03768 69.23077
v -17.95048 11.03325 69.13808
v 3.07077 18.64555 137.66914
v 17.78321 8.64674 137.12948
v 18.01618 -9.14837 137.07343
v 2.00477 -16.89880 137.61055
v -13.51346 -8.20458 138.17478
v -12.21448 9.54466 138.17732
v 5.99989 14.53446 206.41567
v 17.93724 6.16106 206.00959
v 17.90635 -8.42584 205.98629
v 4.68943 -14.58314 206.41018
v -7.92096 -7.26361 206.83662
v -6.64138 7.26709 206.81880
v 7.78861 12.60161 275.00625
v 17.61780 5.48457 274.79899
v 17.40645 -6.64905 274.99596
v 6.33512 -11.60316 275.43264
v -4.06309 -5.34790 275.67185
v -2.82095 6.72325 275.44243
v 10.56894 12.13994 343.62897
v 18.71040 6.05393 343.45583
v 18.37718 -4.10144 343.78799
v 9.04830 -8.10539 344.32937
v 0.42414 -2.72674 344.54615
v 1.61157 7.36322 344.17791
v 13.95415 13.10322 412.27910
v 20.64677 7.93894 412.10949
v 20.23929 -0.49792 412.48787
v 12.43812 -3.70547 413.07364
v 5.34018 0.88383 413.29086
v 6.44873 9.25567 412.87469
v 18.45864 14.50066 480.94588
v 23.81387 10.23933 480.78026
v 23.37800 3.41550 481.11240
v 17.02801 0.91362 481.64450
v 11.34233 4.72082 481.85220
v 12.33709 11.48403 481.48571
v 17.72632 13.89838 481.73999
v 23.78179 9.51443 481.35584
v 21.46881 2.40971 480.89934
v 13.98384 2.40270 481.00137
v 11.67085 9.50309 481.52092
v 19.87483 1.81524 638.35602
v 24.67875 -1.67075 638.16202
v 22.84381 -7.31624 637.99208
v 16.90585 -7.31935 638.08104
v 15.07091 -1.67579 638.30597
v 22.43843 0.29278 795.52088
v 25.99115 -2.28667 795.41720
v 24.63413 -6.46211 795.31584
v 20.24273 -6.46323 795.35689
v 18.88571 -2.28848 795.48361
v 22.81451 -9.40123 952.58459
v 25.11580 -11.07055 952.49004
v 24.23679 -13.77215 952.34805
v 21.39224 -13.77252 952.35484
v 20.51322 -11.07114 952.50103
v 22.81451 -9.57056 952.61567
v 25.05709 -11.80241 952.24352
v 22.81451 -14.06447 952.29574
v 20.57194 -11.83262 952.66789
v 37.49150 -21.02011 1106.87926
v 39.27509 -22.79962 1106.68033
v 37.49150 -24.59004 1106.70496
v 35.70792 -22.81053 1106.90389
v 42.26627 -25.61400 1262.11796
v 43.58588 -26.93339 1262.01392
v 42.26627 -28.25630 1262.05287
v 40.94665 -26.93691 1262.15691
v 54.30832 -29.59018 1417.01939
v 55.16175 -30.44446 1416.93369
v 54.30832 -31.30175 1416.98061
v 53.45489 -30.44747 1417.06631
v 22.81451 -11.19486 952.40439
v 23.42895 -11.80822 952.56845
v 22.81451 -12.44018 952.50702
v 22.20007 -11.82681 952.34296
v 7.46275 -4.47446 1035.51756
v 7.94952 -4.96190 1035.64720
v 7.46275 -5.46308 1035.59051
v 6.97598 -4.97565 1035.46087
v -9.14146 0.80210 1118.50653
v -8.78053 0.43773 1118.58170
v -9.14146 0.06939 1118.52930
v -9.50240 0.43377 1118.45414
v -22.03396 0.45145 1202.31382
v -21.79930 0.21394 1202.34930
v -22.03396 -0.02338 1202.31257
v -22.26861 0.21413 1202.27709
v 22.81451 -11.20021 952.35942
v 23.43183 -11.83234 952.36067
v 22.81451 -12.43482 952.55200
v 22.19719 -11.80269 952.55074
v 36.07563 1.78990 1036.47509
v 36.56473 1.28782 1036.46941
v 36.07563 0.80963 1036.62252
v 35.58653 1.31171 1036.62821
v 50.72055 13.82853 1120.51826
v 51.08293 13.45830 1120.50081
v 50.72055 13.09927 1120.59281
v 50.35817 13.46949 1120.61026
v 61.90179 18.83791 1205.79477
v 62.13720 18.59907 1205.77828
v 61.90179 18.36394 1205.82332
v 61.66639 18.60278 1205.83981
v 17.72632 9.24204 480.81222
v 19.39671 8.11885 481.32080
v 18.75868 6.20354 481.80546
v 16.69397 6.14300 481.59642
v 16.05593 8.02090 480.98256
v 8.36054 33.62406 566.32044
v 9.68386 32.72044 566.70146
v 9.17840 31.18435 567.01420
v 7.54269 31.13861 566.82646
v 7.03723 32.64644 566.39769
v -3.21690 50.52766 653.38187
v -2.23568 49.83640 653.58906
v -2.61047 48.68811 653.74561
v -3.82333 48.66969 653.63519
v -4.19812 49.80658 653.41038
v -8.04500 62.18339 741.86689
v -7.40767 61.72853 741.96351
v -7.65111 60.98327 742.05148
v -8.43890 60.97753 742.00924
v -8.68234 61.71924 741.89515
v -8.04500 62.14315 741.95370
v -7.42469 61.51881 742.03174
v -8.04500 60.89363 741.96080
v -8.66532 61.51797 741.88276
v -17.20181 62.44715 818.21624
v -16.70810 61.95093 818.25306
v -17.20181 61.45595 818.20227
v -17.69552 61.95217 818.16545
v -21.61150 59.72977 894.85927
v -21.24523 59.36303 894.85356
v -21.61150 58.99773 894.82059
v -21.97778 59.36447 894.82630
v -22.92010 54.09048 971.44893
v -22.68272 53.85339 971.43593
v -22.92010 53.61688 971.41486
v -23.15748 53.85397 971.42786
v -8.04500 61.68494 741.90944
v -7.87314 61.52448 741.97847
v -8.04500 61.35184 742.00507
v -8.21687 61.51230 741.93604
v -14.54819 75.62654 790.60171
v -14.41157 75.49591 790.64715
v -14.54819 75.35849 790.66285
v -14.68481 75.48913 790.61741
v -19.35759 84.15216 840.72305
v -19.25649 84.05282 840.74708
v -19.35759 83.95066 840.75011
v -19.45869 84.05000 840.72608
v -25.18499 89.06716 891.21146
v -25.11957 89.00236 891.22537
v -25.18499 88.93609 891.22431
v -25.25040 89.00089 891.21041
v -8.04500 61.69055 741.93756
v -7.87735 61.51341 741.91374
v -8.04500 61.34623 741.97695
v -8.21266 61.52337 742.00077
v 3.09558 66.50289 784.31319
v 3.23022 66.36328 784.29997
v 3.09558 66.22945 784.34184
v 2.96093 66.36905 784.35507
v 9.69471 70.60601 827.70561
v 9.79552 70.50376 827.69856
v 9.69471 70.40305 827.71758
v 9.59389 70.50530 827.72463
v 14.40788 71.57516 871.52366
v 14.47335 71.50917 871.51813
v 14.40788 71.44350 871.52668
v 14.34241 71.50949 871.53221
v 17.72632 9.29854 481.51901
v 19.36431 8.13270 481.00112
v 18.73866 6.15559 480.90110
v 16.71399 6.09952 481.35717
v 16.08834 8.04197 481.73906
v 33.16509 0.63701 548.97538
v 34.47755 -0.29994 548.64006
v 33.97623 -1.86658 548.55533
v 32.35394 -1.89787 548.83828
v 31.85263 -0.35056 549.09789
v 41.80797 -6.50389 617.77204
v 42.78822 -7.21211 617.62689
v 42.41380 -8.37063 617.59250
v 41.20213 -8.37842 617.71639
v 40.82771 -7.22471 617.82736
v 47.37224 -8.78465 687.23306
v 48.00847 -9.24679 687.16937
v 47.76545 -9.99737 687.16812
v 46.97902 -9.99910 687.23103
v 46.73601 -9.24960 687.27116
v 47.37224 -8.83177 687.25057
v 47.99585 -9.45332 687.17668
v 47.37224 -10.07923 687.17852
v 46.74862 -9.45769 687.25241
v 51.25615 -12.64260 750.98671
v 51.75048 -13.13681 750.93437
v 51.25615 -13.63337 750.95439
v 50.76183 -13.13917 751.00673
v 56.71314 -13.24788 814.72263
v 57.07916 -13.61400 814.69663
v 56.71314 -13.98082 814.70914
v 56.34711 -13.61470 814.73514
v 57.97631 -15.25101 878.66317
v 58.21368 -15.48818 878.65153
v 57.97631 -15.72563 878.64926
v 57.73895 -15.48846 878.66090
v 47.37224 -9.29036 687.16207
v 47.54283 -9.46472 687.18556
v 47.37224 -9.62065 687.26703
v 47.20165 -9.44629 687.24353
v 53.22869 0.62586 718.48576
v 53.36467 0.48768 718.50039
v 53.22869 0.35958 718.55421
v 53.09272 0.49776 718.53958
v 57.17269 7.04511 750.99919
v 57.27402 6.94367 751.00970
v 57.17269 6.84522 751.03636
v 57.07137 6.94667 751.02585
v 58.61734 12.71041 783.85030
v 58.68313 12.64505 783.85875
v 58.61734 12.58066 783.87282
v 58.55156 12.64603 783.86437
v 47.37224 -9.28229 687.21925
v 47.54177 -9.45453 687.17871
v 47.37224 -9.62872 687.20985
v 47.20271 -9.45648 687.25039
v 54.99223 -10.29525 723.23087
v 55.12667 -10.43236 723.20052
v 54.99223 -10.57017 723.22757
v 54.85779 -10.43305 723.25792
v 62.74819 -10.21599 759.22488
v 62.84805 -10.31818 759.20890
v 62.74819 -10.41922 759.23099
v 62.64833 -10.31703 759.24698
v 68.78428 -8.19547 795.49283
v 68.84924 -8.26182 795.48578
v 68.78428 -8.32695 795.50028
v 68.71933 -8.26060 795.50733
vt 0.00000 0.00000
vt 0.16667 0.00000
vt 0.33333 0.00000
vt 0.50000 0.00000
vt 0.66667 0.00000
vt 0.83333 0.00000
vt 0.00000 0.14286
vt 0.16667 0.14286
vt 0.33333 0.14286
vt 0.50000 0.14286
vt 0.66667 0.14286
vt 0.83333 0.14286
vt 0.00000 0.28571
vt 0.16667 0.28571
vt 0.33333 0.28571
vt 0.50000 0.28571
vt 0.66667 0.28571
vt 0.83333 0.28571
vt 0.00000 0.42857
vt 0.16667 0.42857
vt 0.33333 0.42857
vt 0.50000 0.42857
vt 0.66667 0.42857
vt 0.83333 0.42857
vt 0.00000 0.57143
vt 0.16667 0.57143
vt 0.33333 0.57143
vt 0.50000 0.57143
vt 0.66667 0.57143
vt 0.83333 0.57143
vt 0.00000 0.71429
vt 0.16667 0.71429
vt 0.33333 0.71429
vt 0.50000 0.71429
vt 0.66667 0.71429
vt 0.83333 0.71429
vt 0.00000 0.85714
vt 0.16667 0.85714
vt 0.33333 0.85714
vt 0.50000 0.85714
vt 0.66667 0.85714
vt 0.83333 0.85714
vt 0.00000 1.00000
vt 0.16667 1.00000
vt 0.33333 1.00000
vt 0.50000 1.00000
vt 0.66667 1.00000
vt 0.83333 1.00000
vt 0.00000 0.00000
vt 0.20000 0.00000
vt 0.40000 0.00000
vt 0.60000 0.00000
vt 0.80000 0.00000
vt 0.00000 0.33333
vt 0.20000 0.33333
vt 0.40000 0.33333
vt 0.60000 0.33333
vt 0.80000 0.33333
vt 0.00000 0.66667
vt 0.20000 0.66667
vt 0.40000 0.66667
vt 0.60000 0.66667
vt 0.80000 0.66667
vt 0.00000 1.00000
vt 0.20000 1.00000
vt 0.40000 1.00000
vt 0.60000 1.00000
vt 0.80000 1.00000
vt 0.00000 0.00000
vt 0.25000 0.00000
vt 0.50000 0.00000
vt 0.75000 0.00000
vt 0.00000 0.33333
vt 0.25000 0.33333
vt 0.50000 0.33333
vt 0.75000 0.33333
vt 0.00000 0.66667
vt 0.25000 0.66667
vt 0.50000 0.66667
vt 0.75000 0.66667
vt 0.00000 1.00000
vt 0.25000 1.00000
vt 0.50000 1.00000
vt 0.75000 1.00000
vt 0.00000 0.00000
vt 0.25000 0.00000
vt 0.50000 0.00000
vt 0.75000 0.00000
vt 0.00000 0.33333
vt 0.25000 0.33333
vt 0.50000 0.33333
vt 0.75000 0.33333
vt 0.00000 0.66667
vt 0.25000 0.66667
vt 0.50000 0.66667
vt 0.75000 0.66667
vt 0.00000 1.00000
vt 0.25000 1.00000
vt 0.50000 1.00000
vt 0.75000 1.00000
vt 0.00000 0.00000
vt 0.25000 0.00000
vt 0.50000 0.00000
vt 0.75000 0.00000
vt 0.00000 0.33333
vt 0.25000 0.33333
vt 0.50000 0.33333
vt 0.75000 0.33333
vt 0.00000 0.66667
vt 0.25000 0.66667
vt 0.50000 0.66667
vt 0.75000 0.66667
vt 0.00000 1.00000
vt 0.25000 1.00000
vt 0.50000 1.00000
vt 0.75000 1.00000
vt 0.00000 0.00000
vt 0.20000 0.00000
vt 0.40000 0.00000
vt 0.60000 0.00000
vt 0.80000 0.00000
vt 0.00000 0.33333
vt 0.20000 0.33333
vt 0.40000 0.33333
vt 0.60000 0.33333
vt 0.80000 0.33333
vt 0.00000 0.66667
vt 0.20000 0.66667
vt 0.40000 0.66667
vt 0.60000 0.66667
vt 0.80000 0.66667
vt 0.00000 1.00000
vt 0.20000 1.00000
vt 0.40000 1.00000
vt 0.60000 1.00000
vt 0.80000 1.00000
vt 0.00000 0.00000
vt 0.25000 0.00000
vt 0.50000 0.00000
vt 0.75000 0.00000
vt 0.00000 0.33333
vt 0.25000 0.33333
vt 0.50000 0.33333
vt 0.75000 0.33333
vt 0.00000 0.66667
vt 0.25000 0.66667
vt 0.50000 0.66667
vt 0.75000 0.66667
vt 0.00000 1.00000
vt 0.25000 1.00000
vt 0.50000 1.00000
vt 0.75000 1.00000
vt 0.00000 0.00000
vt 0.25000 0.00000
vt 0.50000 0.00000
vt 0.75000 0.00000
vt 0.00000 0.33333
vt 0.25000 0.33333
vt 0.50000 0.33333
vt 0.75000 0.33333
vt 0.00000 0.66667
vt 0.25000 0.66667
vt 0.50000 0.66667
vt 0.75000 0.66667
vt 0.00000 1.00000
vt 0.25000 1.00000
vt 0.50000 1.00000
vt 0.75000 1.00000
vt 0.00000 0.00000
vt 0.25000 0.00000
vt 0.50000 0.00000
vt 0.75000 0.00000
vt 0.00000 0.33333
vt 0.25000 0.33333
vt 0.50000 0.33333
vt 0.75000 0.33333
vt 0.00000 0.66667
vt 0.25000 0.66667
vt 0.50000 0.66667
vt 0.75000 0.66667
vt 0.00000 1.00000
vt 0.25000 1.00000
vt 0.50000 1.00000
vt 0.75000 1.00000
vt 0.00000 0.00000
vt 0.20000 0.00000
vt 0.40000 0.00000
vt 0.60000 0.00000
vt 0.80000 0.00000
vt 0.00000 0.33333
vt 0.20000 0.33333
vt 0.40000 0.33333
vt 0.60000 0.33333
vt 0.80000 0.33333
vt 0.00000 0.66667
vt 0.20000 0.66667
vt 0.40000 0.66667
vt 0.60000 0.66667
vt 0.80000 0.66667
vt 0.00000 1.00000
vt 0.20000 1.00000
vt 0.40000 1.00000
vt 0.60000 1.00000
vt 0.80000 1.00000
vt 0.00000 0.00000
vt 0.25000 0.00000
vt 0.50000 0.00000
vt 0.75000 0.00000
vt 0.00000 0.33333
vt 0.25000 0.33333
vt 0.50000 0.33333
vt 0.75000 0.33333
vt 0.00000 0.66667
vt 0.25000 0.66667
vt 0.50000 0.66667
vt 0.75000 0.66667
vt 0.00000 1.00000
vt 0.25000 1.00000
vt 0.50000 1.00000
vt 0.75000 1.00000
vt 0.00000 0.00000
vt 0.25000 0.00000
vt 0.50000 0.00000
vt 0.75000 0.00000
vt 0.00000 0.33333
vt 0.25000 0.33333
vt 0.50000 0.33333
vt 0.75000 0.33333
vt 0.00000 0.66667
vt 0.25000 0.66667
vt 0.50000 0.66667
vt 0.75000 0.66667
vt 0.00000 1.00000
vt 0.25000 1.00000
vt 0.50000 1.00000
vt 0.75000 1.00000
vt 0.00000 0.00000
vt 0.25000 0.00000
vt 0.50000 0.00000
vt 0.75000 0.00000
vt 0.00000 0.33333
vt 0.25000 0.33333
vt 0.50000 0.33333
vt 0.75000 0.33333
vt 0.00000 0.66667
vt 0.25000 0.66667
vt 0.50000 0.66667
vt 0.75000 0.66667
vt 0.00000 1.00000
vt 0.25000 1.00000
vt 0.50000 1.00000
vt 0.75000 1.00000
vn 0.5360 0.8412 0.0713
vn 0.5492 0.8331 0.0654
vn 0.9968 0.0431 0.0680
vn 0.9976 0.0283 0.0626
vn 0.4613 -0.8844 0.0712
vn 0.4488 -0.8912 0.0660
vn -0.4602 -0.8843 0.0786
vn -0.4732 -0.8779 0.0735
vn -0.9957 0.0431 0.0826
vn -0.9953 0.0583 0.0769
vn -0.5349 0.8412 0.0799
vn -0.5217 0.8499 0.0741
vn 0.5497 0.8346 0.0346
vn 0.5626 0.8262 0.0297
vn 0.9992 0.0283 0.0274
vn 0.9997 0.0130 0.0230
vn 0.4490 -0.8922 0.0487
vn 0.4365 -0.8986 0.0449
vn -0.4731 -0.8778 0.0753
vn -0.4855 -0.8713 0.0716
vn -0.9948 0.0583 0.0839
vn -0.9942 0.0727 0.0795
vn -0.5222 0.8503 0.0657
vn -0.5091 0.8585 0.0608
vn 0.5626 0.8262 0.0286
vn 0.5746 0.8180 0.0244
vn 0.9999 0.0131 0.0015
vn 1.0000 -0.0021 -0.0023
vn 0.4360 -0.8998 0.0133
vn 0.4225 -0.9063 0.0102
vn -0.4867 -0.8720 0.0516
vn -0.5002 -0.8646 0.0486
vn -0.9939 0.0727 0.0831
vn -0.9930 0.0875 0.0797
vn -0.5084 0.8580 0.0730
vn -0.4956 0.8658 0.0690
vn 0.5745 0.8185 0.0107
vn 0.5866 0.8099 0.0075
vn 1.0000 -0.0021 0.0073
vn 0.9998 -0.0173 0.0045
vn 0.4229 -0.9057 0.0290
vn 0.4092 -0.9121 0.0264
vn -0.5000 -0.8645 0.0521
vn -0.5140 -0.8564 0.0492
vn -0.9946 0.0877 0.0561
vn -0.9933 0.1032 0.0528
vn -0.4972 0.8669 0.0374
vn -0.4833 0.8748 0.0338
vn 0.5862 0.8100 -0.0160
vn 0.5984 0.8010 -0.0189
vn 0.9998 -0.0176 -0.0135
vn 0.9993 -0.0333 -0.0156
vn 0.4093 -0.9119 0.0302
vn 0.3956 -0.9180 0.0284
vn -0.5132 -0.8557 0.0660
vn -0.5270 -0.8475 0.0638
vn -0.9926 0.1033 0.0631
vn -0.9911 0.1188 0.0600
vn -0.4837 0.8749 0.0255
vn -0.4694 0.8827 0.0221
vn 0.5978 0.8007 -0.0388
vn 0.6097 0.7915 -0.0412
vn 0.9991 -0.0336 -0.0253
vn 0.9984 -0.0494 -0.0268
vn 0.3960 -0.9174 0.0392
vn 0.3824 -0.9232 0.0381
vn -0.5259 -0.8466 0.0821
vn -0.5395 -0.8382 0.0802
vn -0.9907 0.1190 0.0665
vn -0.9889 0.1341 0.0637
vn -0.4700 0.8826 0.0108
vn -0.4557 0.8901 0.0076
vn 0.6091 0.7912 -0.0546
vn 0.6206 0.7821 -0.0566
vn 0.9978 -0.0501 -0.0428
vn 0.9969 -0.0658 -0.0438
vn 0.3824 -0.9233 0.0366
vn 0.3689 -0.9287 0.0361
vn -0.5385 -0.8373 0.0940
vn -0.5517 -0.8289 0.0928
vn -0.9876 0.1348 0.0804
vn -0.9857 0.1492 0.0779
vn -0.4554 0.8902 0.0118
vn -0.4414 0.8973 0.0087
vn 0.0661 0.0443 0.9968
vn -0.0078 0.0002 -1.0000
vn 0.5878 0.8072 0.0542
vn 0.5879 0.8071 0.0542
vn 0.9510 -0.3079 -0.0274
vn 0.9509 -0.3082 -0.0274
vn 0.0001 -0.9981 -0.0618
vn -0.0004 -0.9981 -0.0618
vn -0.9509 -0.3096 -0.0015
vn -0.9510 -0.3092 -0.0014
vn -0.5876 0.8061 0.0703
vn -0.5869 0.8066 0.0702
vn 0.5873 0.8094 -0.0017
vn 0.5875 0.8092 -0.0017
vn 0.9511 -0.3088 -0.0091
vn 0.9511 -0.3089 -0.0091
vn 0.0006 -1.0000 0.0054
vn 0.0003 -1.0000 0.0054
vn -0.9505 -0.3099 0.0219
vn -0.9506 -0.3097 0.0219
vn -0.5879 0.8087 0.0174
vn -0.5878 0.8088 0.0174
vn 0.5878 0.8076 0.0484
vn 0.9511 -0.3088 -0.0120
vn 0.9510 -0.3088 -0.0120
vn -0.0002 -0.9989 -0.0465
vn 0.0000 -0.9989 -0.0465
vn -0.9511 -0.3089 -0.0074
vn -0.9510 -0.3091 -0.0074
vn -0.5874 0.8077 0.0513
vn -0.5878 0.8074 0.0513
vn 0.0024 -0.0533 0.9986
vn -0.0137 0.0685 -0.9976
vn 0.7041 0.7099 -0.0143
vn 0.7054 0.7086 -0.0145
vn 0.7041 -0.7007 -0.1147
vn 0.7030 -0.7019 -0.1147
vn -0.7037 -0.7102 0.0185
vn -0.7051 -0.7088 0.0187
vn -0.7037 0.7004 0.1189
vn -0.7026 0.7016 0.1189
vn 0.7063 0.7080 -0.0008
vn 0.7070 0.7072 -0.0008
vn 0.7077 -0.7055 -0.0384
vn 0.7069 -0.7063 -0.0384
vn -0.7060 -0.7082 0.0050
vn -0.7068 -0.7074 0.0050
vn -0.7075 0.7054 0.0426
vn -0.7067 0.7062 0.0426
vn 0.7051 0.7081 -0.0366
vn 0.7053 -0.7056 -0.0687
vn 0.7051 -0.7057 -0.0687
vn -0.7048 -0.7082 0.0409
vn -0.7050 0.7054 0.0729
vn -0.7048 0.7056 0.0729
vn 0.0775 -0.0226 0.9967
vn -0.0944 0.0707 -0.9930
vn 0.6952 0.7153 0.0706
vn 0.6963 0.7142 0.0709
vn 0.6952 -0.6941 0.1867
vn 0.6941 -0.6953 0.1866
vn -0.6956 -0.7151 -0.0685
vn -0.6967 -0.7140 -0.0688
vn -0.6956 0.6943 -0.1846
vn -0.6945 0.6954 -0.1845
vn 0.6920 0.7158 0.0930
vn 0.6975 0.7104 0.0944
vn 0.6943 -0.6953 0.1854
vn 0.6887 -0.7011 0.1846
vn -0.6925 -0.7157 -0.0908
vn -0.6978 -0.7103 -0.0923
vn -0.6948 0.6955 -0.1832
vn -0.6891 0.7013 -0.1825
vn 0.6947 0.7108 0.1099
vn 0.6987 0.7068 0.1104
vn 0.7024 -0.7036 0.1073
vn 0.6987 -0.7074 0.1067
vn -0.6951 -0.7108 -0.1077
vn -0.6990 -0.7068 -0.1084
vn -0.7028 0.7036 -0.1052
vn -0.6990 0.7074 -0.1046
vn -0.1521 -0.0026 0.9884
vn 0.1811 -0.0808 -0.9801
vn 0.6988 0.6820 -0.2155
vn 0.6983 0.6826 -0.2155
vn 0.6988 -0.7153 0.0025
vn 0.6995 -0.7147 0.0023
vn -0.6985 -0.6817 0.2176
vn -0.6979 -0.6823 0.2176
vn -0.6985 0.7156 -0.0004
vn -0.6991 0.7150 -0.0002
vn 0.6976 0.6821 -0.2193
vn 0.6921 0.6878 -0.2191
vn 0.6964 -0.7175 -0.0164
vn 0.7014 -0.7125 -0.0180
vn -0.6973 -0.6818 0.2213
vn -0.6917 -0.6875 0.2213
vn -0.6960 0.7178 0.0185
vn -0.7011 0.7128 0.0201
vn 0.7051 0.6964 -0.1334
vn 0.7013 0.7004 -0.1331
vn 0.6970 -0.7156 -0.0472
vn 0.7013 -0.7113 -0.0480
vn -0.7049 -0.6963 0.1355
vn -0.7010 -0.7002 0.1352
vn -0.6966 0.7157 0.0493
vn -0.7010 0.7114 0.0502
vn 0.1298 0.0596 0.9897
vn -0.1540 -0.1523 -0.9763
vn 0.5842 0.7951 -0.1627
vn 0.5878 0.7927 -0.1616
vn 0.9455 -0.2682 0.1849
vn 0.9439 -0.2727 0.1860
vn -0.0004 -0.9596 0.2814
vn -0.0054 -0.9598 0.2808
vn -0.9462 -0.3236 -0.0066
vn -0.9474 -0.3199 -0.0079
vn -0.5849 0.7609 -0.2810
vn -0.5807 0.7639 -0.2815
vn 0.5778 0.8122 -0.0807
vn 0.5852 0.8070 -0.0789
vn 0.9442 -0.2733 0.1835
vn 0.9414 -0.2821 0.1847
vn 0.0046 -0.9801 0.1985
vn -0.0031 -0.9803 0.1974
vn -0.9417 -0.3317 -0.0562
vn -0.9446 -0.3230 -0.0585
vn -0.5870 0.7765 -0.2288
vn -0.5807 0.7812 -0.2291
vn 0.5848 0.8078 -0.0745
vn 0.5867 0.8064 -0.0742
vn 0.9501 -0.2971 0.0956
vn 0.9495 -0.2988 0.0958
vn 0.0025 -0.9904 0.1381
vn -0.0002 -0.9904 0.1379
vn -0.9494 -0.3141 -0.0058
vn -0.9498 -0.3127 -0.0061
vn -0.5892 0.7963 -0.1370
vn -0.5871 0.7978 -0.1372
vn -0.0540 0.1344 0.9894
vn 0.1048 -0.2766 -0.9552
vn 0.7019 0.7076 0.0815
vn 0.7035 0.7060 0.0817
vn 0.7019 -0.7066 0.0895
vn 0.7006 -0.7080 0.0893
vn -0.7022 -0.7076 -0.0791
vn -0.7037 -0.7060 -0.0793
vn -0.7022 0.7066 -0.0871
vn -0.7009 0.7080 -0.0870
vn 0.7049 0.7062 0.0656
vn 0.7065 0.7046 0.0656
vn 0.7070 -0.7070 0.0180
vn 0.7052 -0.7087 0.0178
vn -0.7051 -0.7063 -0.0632
vn -0.7066 -0.7047 -0.0633
vn -0.7071 0.7069 -0.0156
vn -0.7054 0.7087 -0.0155
vn 0.7066 0.7047 0.0640
vn 0.7070 0.7043 0.0639
vn 0.7074 -0.7059 -0.0375
vn 0.7070 -0.7062 -0.0375
vn -0.7067 -0.7048 -0.0616
vn -0.7070 -0.7045 -0.0616
vn -0.7074 0.7057 0.0399
vn -0.7070 0.7061 0.0399
vn -0.0170 -0.0717 0.9973
vn 0.1192 -0.0056 -0.9929
vn 0.7013 0.7046 -0.1081
vn 0.7054 0.7007 -0.1064
vn 0.7013 -0.6547 0.2822
vn 0.6962 -0.6598 0.2829
vn -0.7014 -0.7044 0.1090
vn -0.7055 -0.7005 0.1074
vn -0.7014 0.6549 -0.2812
vn -0.6963 0.6600 -0.2820
vn 0.6994 0.7127 -0.0541
vn 0.7062 0.7061 -0.0523
vn 0.7074 -0.6822 0.1849
vn 0.7012 -0.6884 0.1854
vn -0.6996 -0.7125 0.0551
vn -0.7063 -0.7059 0.0533
vn -0.7075 0.6824 -0.1840
vn -0.7013 0.6886 -0.1845
vn 0.6995 0.7146 0.0112
vn 0.7024 0.7117 0.0118
vn 0.7050 -0.6932 0.1499
vn 0.7024 -0.6958 0.1498
vn -0.6996 -0.7145 -0.0102
vn -0.7025 -0.7116 -0.0108
vn -0.7051 0.6933 -0.1489
vn -0.7025 0.6959 -0.1488
vn -0.1141 0.0970 0.9887
vn 0.1274 -0.2737 -0.9533
vn 0.6843 0.6823 -0.2574
vn 0.6833 0.6834 -0.2572
vn 0.6843 -0.7228 -0.0966
vn 0.6862 -0.7209 -0.0973
vn -0.6840 -0.6821 0.2585
vn -0.6830 -0.6832 0.2584
vn -0.6840 0.7229 0.0977
vn -0.6860 0.7209 0.0985
vn 0.7008 0.6923 -0.1721
vn 0.6956 0.6976 -0.1717
vn 0.6986 -0.7146 -0.0375
vn 0.7026 -0.7106 -0.0385
vn -0.7007 -0.6922 0.1732
vn -0.6954 -0.6975 0.1729
vn -0.6984 0.7147 0.0386
vn -0.7024 0.7106 0.0397
vn 0.7059 0.7023 -0.0915
vn 0.7031 0.7052 -0.0912
vn 0.7000 -0.7117 -0.0584
vn 0.7031 -0.7086 -0.0588
vn -0.7058 -0.7023 0.0926
vn -0.7030 -0.7052 0.0924
vn -0.6998 0.7118 0.0595
vn -0.7030 0.7087 0.0600
vn 0.1069 0.0228 0.9940
vn -0.2527 -0.1100 -0.9613
vn 0.5741 0.8183 -0.0263
vn 0.5762 0.8168 -0.0270
vn 0.9284 -0.2815 -0.2425
vn 0.9277 -0.2837 -0.2427
vn 0.0009 -0.9930 -0.1179
vn -0.0013 -0.9931 -0.1175
vn -0.9265 -0.3329 0.1754
vn -0.9275 -0.3300 0.1758
vn -0.5723 0.7866 0.2320
vn -0.5710 0.7876 0.2318
vn 0.5829 0.8125 0.0112
vn 0.5866 0.8098 0.0104
vn 0.9448 -0.2946 -0.1432
vn 0.9429 -0.3005 -0.1437
vn 0.0028 -0.9956 -0.0940
vn -0.0032 -0.9956 -0.0934
vn -0.9428 -0.3207 0.0910
vn -0.9445 -0.3154 0.0917
vn -0.5845 0.7962 0.1561
vn -0.5795 0.8000 0.1557
vn 0.5836 0.8118 -0.0201
vn 0.5862 0.8099 -0.0204
vn 0.9492 -0.3044 -0.0801
vn 0.9484 -0.3069 -0.0802
vn 0.0040 -0.9997 -0.0236
vn 0.0003 -0.9997 -0.0234
vn -0.9467 -0.3141 0.0714
vn -0.9477 -0.3111 0.0715
vn -0.5881 0.8054 0.0736
vn -0.5856 0.8073 0.0734
vn 0.0798 -0.0275 0.9964
vn -0.2213 0.1190 -0.9679
vn 0.7059 0.7083 -0.0006
vn 0.7059 -0.7035 -0.0822
vn 0.7046 -0.7048 -0.0822
vn -0.7057 -0.7085 0.0035
vn -0.7068 -0.7074 0.0036
vn -0.7057 0.7034 0.0851
vn -0.7044 0.7047 0.0850
vn 0.7032 0.7090 -0.0535
vn 0.7043 0.7079 -0.0536
vn 0.7059 -0.7053 -0.0643
vn 0.7053 -0.7060 -0.0642
vn -0.7029 -0.7090 0.0563
vn -0.7041 -0.7079 0.0564
vn -0.7058 0.7053 0.0671
vn -0.7051 0.7059 0.0671
vn 0.7075 0.7067 0.0082
vn 0.7070 0.7072 0.0082
vn 0.7069 -0.7065 -0.0332
vn 0.7070 -0.7064 -0.0332
vn -0.7074 -0.7068 -0.0053
vn -0.7069 -0.7073 -0.0053
vn -0.7068 0.7065 0.0361
vn -0.7069 0.7064 0.0361
vn 0.0197 -0.0293 0.9994
vn -0.0607 0.0576 -0.9965
vn 0.6963 0.6365 -0.3317
vn 0.6896 0.6433 -0.3326
vn 0.6963 -0.7113 0.0966
vn 0.7021 -0.7058 0.0938
vn -0.6960 -0.6361 0.3331
vn -0.6893 -0.6429 0.3341
vn -0.6960 0.7117 -0.0952
vn -0.7019 0.7063 -0.0923
vn 0.7070 0.6726 -0.2186
vn 0.7016 0.6781 -0.2190
vn 0.6967 -0.7150 0.0582
vn 0.7033 -0.7087 0.0562
vn -0.7068 -0.6723 0.2200
vn -0.7014 -0.6778 0.2205
vn -0.6964 0.7154 -0.0568
vn -0.7031 0.7089 -0.0546
vn 0.7072 0.6908 -0.1502
vn 0.7065 0.6916 -0.1503
vn 0.7062 -0.7021 0.0916
vn 0.7065 -0.7018 0.0915
vn -0.7072 -0.6906 0.1517
vn -0.7064 -0.6913 0.1518
vn -0.7061 0.7024 -0.0901
vn -0.7064 0.7021 -0.0900
vn 0.0433 0.1708 0.9843
vn -0.1755 -0.2982 -0.9382
vn 0.6919 0.7108 -0.1264
vn 0.6941 0.7086 -0.1269
vn 0.6919 -0.7029 -0.1648
vn 0.6897 -0.7052 -0.1644
vn -0.6917 -0.7108 0.1278
vn -0.6938 -0.7086 0.1283
vn -0.6917 0.7029 0.1661
vn -0.6894 0.7051 0.1657
vn 0.6892 0.7089 -0.1500
vn 0.6950 0.7029 -0.1513
vn 0.6935 -0.7054 -0.1464
vn 0.6877 -0.7114 -0.1452
vn -0.6889 -0.7089 0.1514
vn -0.6948 -0.7028 0.1526
vn -0.6933 0.7054 0.1478
vn -0.6874 0.7114 0.1465
vn 0.6944 0.7028 -0.1547
vn 0.6977 0.6994 -0.1551
vn 0.7009 -0.7092 -0.0757
vn 0.6977 -0.7125 -0.0750
vn -0.6941 -0.7027 0.1561
vn -0.6974 -0.6994 0.1564
vn -0.7007 0.7093 0.0771
vn -0.6974 0.7126 0.0764
vn 0.1639 0.0558 0.9849
vn -0.2069 0.0265 -0.9780
f 1/1/1 8/8/1 2/2/1
f 1/1/2 7/7/2 8/8/2
f 2/2/3 9/9/3 3/3/3
f 2/2/4 8/8/4 9/9/4
f 3/3/5 10/10/5 4/4/5
f 3/3/6 9/9/6 10/10/6
f 4/4/7 11/11/7 5/5/7
f 4/4/8 10/10/8 11/11/8
f 5/5/9 12/12/9 6/6/9
f 5/5/10 11/11/10 12/12/10
f 6/6/11 7/7/11 1/1/11
f 6/6/12 12/12/12 7/7/12
f 7/7/13 14/14/13 8/8/13
f 7/7/14 13/13/14 14/14/14
f 8/8/15 15/15/15 9/9/15
f 8/8/16 14/14/16 15/15/16
f 9/9/17 16/16/17 10/10/17
f 9/9/18 15/15/18 16/16/18
f 10/10/19 17/17/19 11/11/19
f 10/10/20 16/16/20 17/17/20
f 11/11/21 18/18/21 12/12/21
f 11/11/22 17/17/22 18/18/22
f 12/12/23 13/13/23 7/7/23
f 12/12/24 18/18/24 13/13/24
f 13/13/25 20/20/25 14/14/25
f 13/13/26 19/19/26 20/20/26
f 14/14/27 21/21/27 15/15/27
f 14/14/28 20/20/28 21/21/28
f 15/15/29 22/22/29 16/16/29
f 15/15/30 21/21/30 22/22/30
f 16/16/31 23/23/31 17/17/31
f 16/16/32 22/22/32 23/23/32
f 17/17/33 24/24/33 18/18/33
f 17/17/34 23/23/34 24/24/34
f 18/18/35 19/19/35 13/13/35
f 18/18/36 24/24/36 19/19/36
f 19/19/37 26/26/37 20/20/37
f 19/19/38 25/25/38 26/26/38
f 20/20/39 27/27/39 21/21/39
f 20/20/40 26/26/40 27/27/40
f 21/21/41 28/28/41 22/22/41
f 21/21/42 27/27/42 28/28/42
f 22/22/43 29/29/43 23/23/43
f 22/22/44 28/28/44 29/29/44
f 23/23/45 30/30/45 24/24/45
f 23/23/46 29/29/46 30/30/46
f 24/24/47 25/25/47 19/19/47
f 24/24/48 30/30/48 25/25/48
f 25/25/49 32/32/49 26/26/49
f 25/25/50 31/31/50 32/32/50
f 26/26/51 33/33/51 27/27/51
f 26/26/52 32/32/52 33/33/52
f 27/27/53 34/34/53 28/28/53
f 27/27/54 33/33/54 34/34/54
f 28/28/55 35/35/55 29/29/55
f 28/28/56 34/34/56 35/35/56
f 29/29/57 36/36/57 30/30/57
f 29/29/58 35/35/58 36/36/58
f 30/30/59 31/31/59 25/25/59
f 30/30/60 36/36/60 31/31/60
f 31/31/61 38/38/61 32/32/61
f 31/31/62 37/37/62 38/38/62
f 32/32/63 39/39/63 33/33/63
f 32/32/64 38/38/64 39/39/64
f 33/33/65 40/40/65 34/34/65
f 33/33/66 39/39/66 40/40/66
f 34/34/67 41/41/67 35/35/67
f 34/34/68 40/40/68 41/41/68
f 35/35/69 42/42/69 36/36/69
f 35/35/70 41/41/70 42/42/70
f 36/36/71 37/37/71 31/31/71
f 36/36/72 42/42/72 37/37/72
f 37/37/73 44/44/73 38/38/73
f 37/37/74 43/43/74 44/44/74
f 38/38/75 45/45/75 39/39/75
f 38/38/76 44/44/76 45/45/76
f 39/39/77 46/46/77 40/40/77
f 39/39/78 45/45/78 46/46/78
f 40/40/79 47/47/79 41/41/79
f 40/40/80 46/46/80 47/47/80
f 41/41/81 48/48/81 42/42/81
f 41/41/82 47/47/82 48/48/82
f 42/42/83 43/43/83 37/37/83
f 42/42/84 48/48/84 43/43/84
f 43/43/85 45/45/85 44/44/85
f 43/43/85 46/46/85 45/45/85
f 43/43/85 47/47/85 46/46/85
f 43/43/85 48/48/85 47/47/85
f 6/6/86 4/4/86 5/5/86
f 6/6/86 3/3/86 4/4/86
f 6/6/86 2/2/86 3/3/86
f 6/6/86 1/1/86 2/2/86
f 49/49/87 55/55/87 50/50/87
f 49/49/88 54/54/88 55/55/88
f 50/50/89 56/56/89 51/51/89
f 50/50/90 55/55/90 56/56/90
f 51/51/91 57/57/91 52/52/91
f 51/51/92 56/56/92 57/57/92
f 52/52/93 58/58/93 53/53/93
f 52/52/94 57/57/94 58/58/94
f 53/53/95 54/54/95 49/49/95
f 53/53/96 58/58/96 54/54/96
f 54/54/97 60/60/97 55/55/97
f 54/54/98 59/59/98 60/60/98
f 55/55/99 61/61/99 56/56/99
f 55/55/100 60/60/100 61/61/100
f 56/56/101 62/62/101 57/57/101
f 56/56/102 61/61/102 62/62/102
f 57/57/103 63/63/103 58/58/103
f 57/57/104 62/62/104 63/63/104
f 58/58/105 59/59/105 54/54/105
f 58/58/106 63/63/106 59/59/106
f 59/59/107 65/65/107 60/60/107
f 59/59/107 64/64/107 65/65/107
f 60/60/108 66/66/108 61/61/108
f 60/60/109 65/65/109 66/66/109
f 61/61/110 67/67/110 62/62/110
f 61/61/111 66/66/111 67/67/111
f 62/62/112 68/68/112 63/63/112
f 62/62/113 67/67/113 68/68/113
f 63/63/114 64/64/114 59/59/114
f 63/63/115 68/68/115 64/64/115
f 64/64/116 66/66/116 65/65/116
f 64/64/116 67/67/116 66/66/116
f 64/64/116 68/68/116 67/67/116
f 53/53/117 51/51/117 52/52/117
f 53/53/117 50/50/117 51/51/117
f 53/53/117 49/49/117 50/50/117
f 69/69/118 74/74/118 70/70/118
f 69/69/119 73/73/119 74/74/119
f 70/70/120 75/75/120 71/71/120
f 70/70/121 74/74/121 75/75/121
f 71/71/122 76/76/122 72/72/122
f 71/71/123 75/75/123 76/76/123
f 72/72/124 73/73/124 69/69/124
f 72/72/125 76/76/125 73/73/125
f 73/73/126 78/78/126 74/74/126
f 73/73/127 77/77/127 78/78/127
f 74/74/128 79/79/128 75/75/128
f 74/74/129 78/78/129 79/79/129
f 75/75/130 80/80/130 76/76/130
f 75/75/131 79/79/131 80/80/131
f 76/76/132 77/77/132 73/73/132
f 76/76/133 80/80/133 77/77/133
f 77/77/134 82/82/134 78/78/134
f 77/77/134 81/81/134 82/82/134
f 78/78/135 83/83/135 79/79/135
f 78/78/136 82/82/136 83/83/136
f 79/79/137 84/84/137 80/80/137
f 79/79/137 83/83/137 84/84/137
f 80/80/138 81/81/138 77/77/138
f 80/80/139 84/84/139 81/81/139
f 81/81/140 83/83/140 82/82/140
f 81/81/140 84/84/140 83/83/140
f 72/72/141 70/70/141 71/71/141
f 72/72/141 69/69/141 70/70/141
f 85/85/142 90/90/142 86/86/142
f 85/85/143 89/89/143 90/90/143
f 86/86/144 91/91/144 87/87/144
f 86/86/145 90/90/145 91/91/145
f 87/87/146 92/92/146 88/88/146
f 87/87/147 91/91/147 92/92/147
f 88/88/148 89/89/148 85/85/148
f 88/88/149 92/92/149 89/89/149
f 89/89/150 94/94/150 90/90/150
f 89/89/151 93/93/151 94/94/151
f 90/90/152 95/95/152 91/91/152
f 90/90/153 94/94/153 95/95/153
f 91/91/154 96/96/154 92/92/154
f 91/91/155 95/95/155 96/96/155
f 92/92/156 93/93/156 89/89/156
f 92/92/157 96/96/157 93/93/157
f 93/93/158 98/98/158 94/94/158
f 93/93/159 97/97/159 98/98/159
f 94/94/160 99/99/160 95/95/160
f 94/94/161 98/98/161 99/99/161
f 95/95/162 100/100/162 96/96/162
f 95/95/163 99/99/163 100/100/163
f 96/96/164 97/97/164 93/93/164
f 96/96/165 100/100/165 97/97/165
f 97/97/166 99/99/166 98/98/166
f 97/97/166 100/100/166 99/99/166
f 88/88/167 86/86/167 87/87/167
f 88/88/167 85/85/167 86/86/167
f 101/101/168 106/106/168 102/102/168
f 101/101/169 105/105/169 106/106/169
f 102/102/170 107/107/170 103/103/170
f 102/102/171 106/106/171 107/107/171
f 103/103/172 108/108/172 104/104/172
f 103/103/173 107/107/173 108/108/173
f 104/104/174 105/105/174 101/101/174
f 104/104/175 108/108/175 105/105/175
f 105/105/176 110/110/176 106/106/176
f 105/105/177 109/109/177 110/110/177
f 106/106/178 111/111/178 107/107/178
f 106/106/179 110/110/179 111/111/179
f 107/107/180 112/112/180 108/108/180
f 107/107/181 111/111/181 112/112/181
f 108/108/182 109/109/182 105/105/182
f 108/108/183 112/112/183 109/109/183
f 109/109/184 114/114/184 110/110/184
f 109/109/185 113/113/185 114/114/185
f 110/110/186 115/115/186 111/111/186
f 110/110/187 114/114/187 115/115/187
f 111/111/188 116/116/188 112/112/188
f 111/111/189 115/115/189 116/116/189
f 112/112/190 113/113/190 109/109/190
f 112/112/191 116/116/191 113/113/191
f 113/113/192 115/115/192 114/114/192
f 113/113/192 116/116/192 115/115/192
f 104/104/193 102/102/193 103/103/193
f 104/104/193 101/101/193 102/102/193
f 117/117/194 123/123/194 118/118/194
f 117/117/195 122/122/195 123/123/195
f 118/118/196 124/124/196 119/119/196
f 118/118/197 123/123/197 124/124/197
f 119/119/198 125/125/198 120/120/198
f 119/119/199 124/124/199 125/125/199
f 120/120/200 126/126/200 121/121/200
f 120/120/201 125/125/201 126/126/201
f 121/121/202 122/122/202 117/117/202
f 121/121/203 126/126/203 122/122/203
f 122/122/204 128/128/204 123/123/204
f 122/122/205 127/127/205 128/128/205
f 123/123/206 129/129/206 124/124/206
f 123/123/207 128/128/207 129/129/207
f 124/124/208 130/130/208 125/125/208
f 124/124/209 129/129/209 130/130/209
f 125/125/210 131/131/210 126/126/210
f 125/125/211 130/130/211 131/131/211
f 126/126/212 127/127/212 122/122/212
f 126/126/213 131/131/213 127/127/213
f 127/127/214 133/133/214 128/128/214
f 127/127/215 132/132/215 133/133/215
f 128/128/216 134/134/216 129/129/216
f 128/128/217 133/133/217 134/134/217
f 129/129/218 135/135/218 130/130/218
f 129/129/219 134/134/219 135/135/219
f 130/130/220 136/136/220 131/131/220
f 130/130/221 135/135/221 136/136/221
f 131/131/222 132/132/222 127/127/222
f 131/131/223 136/136/223 132/132/223
f 132/132/224 134/134/224 133/133/224
f 132/132/224 135/135/224 134/134/224
f 132/132/224 136/136/224 135/135/224
f 121/121/225 119/119/225 120/120/225
f 121/121/225 118/118/225 119/119/225
f 121/121/225 117/117/225 118/118/225
f 137/137/226 142/142/226 138/138/226
f 137/137/227 141/141/227 142/142/227
f 138/138/228 143/143/228 139/139/228
f 138/138/229 142/142/229 143/143/229
f 139/139/230 144/144/230 140/140/230
f 139/139/231 143/143/231 144/144/231
f 140/140/232 141/141/232 137/137/232
f 140/140/233 144/144/233 141/141/233
f 141/141/234 146/146/234 142/142/234
f 141/141/235 145/145/235 146/146/235
f 142/142/236 147/147/236 143/143/236
f 142/142/237 146/146/237 147/147/237
f 143/143/238 148/148/238 144/144/238
f 143/143/239 147/147/239 148/148/239
f 144/144/240 145/145/240 141/141/240
f 144/144/241 148/148/241 145/145/241
f 145/145/242 150/150/242 146/146/242
f 145/145/243 149/149/243 150/150/243
f 146/146/244 151/151/244 147/147/244
f 146/146/245 150/150/245 151/151/245
f 147/147/246 152/152/246 148/148/246
f 147/147/247 151/151/247 152/152/247
f 148/148/248 149/149/248 145/145/248
f 148/148/249 152/152/249 149/149/249
f 149/149/250 151/151/250 150/150/250
f 149/149/250 152/152/250 151/151/250
f 140/140/251 138/138/251 139/139/251
f 140/140/251 137/137/251 138/138/251
f 153/153/252 158/158/252 154/154/252
f 153/153/253 157/157/253 158/158/253
f 154/154/254 159/159/254 155/155/254
f 154/154/255 158/158/255 159/159/255
f 155/155/256 160/160/256 156/156/256
f 155/155/257 159/159/257 160/160/257
f 156/156/258 157/157/258 153/153/258
f 156/156/259 160/160/259 157/157/259
f 157/157/260 162/162/260 158/158/260
f 157/157/261 161/161/261 162/162/261
f 158/158/262 163/163/262 159/159/262
f 158/158/263 162/162/263 163/163/263
f 159/159/264 164/164/264 160/160/264
f 159/159/265 163/163/265 164/164/265
f 160/160/266 161/161/266 157/157/266
f 160/160/267 164/164/267 161/161/267
f 161/161/268 166/166/268 162/162/268
f 161/161/269 165/165/269 166/166/269
f 162/162/270 167/167/270 163/163/270
f 162/162/271 166/166/271 167/167/271
f 163/163/272 168/168/272 164/164/272
f 163/163/273 167/167/273 168/168/273
f 164/164/274 165/165/274 161/161/274
f 164/164/275 168/168/275 165/165/275
f 165/165/276 167/167/276 166/166/276
f 165/165/276 168/168/276 167/167/276
f 156/156/277 154/154/277 155/155/277
f 156/156/277 153/153/277 154/154/277
f 169/169/278 174/174/278 170/170/278
f 169/169/279 173/173/279 174/174/279
f 170/170/280 175/175/280 171/171/280
f 170/170/281 174/174/281 175/175/281
f 171/171/282 176/176/282 172/172/282
f 171/171/283 175/175/283 176/176/283
f 172/172/284 173/173/284 169/169/284
f 172/172/285 176/176/285 173/173/285
f 173/173/286 178/178/286 174/174/286
f 173/173/287 177/177/287 178/178/287
f 174/174/288 179/179/288 175/175/288
f 174/174/289 178/178/289 179/179/289
f 175/175/290 180/180/290 176/176/290
f 175/175/291 179/179/291 180/180/291
f 176/176/292 177/177/292 173/173/292
f 176/176/293 180/180/293 177/177/293
f 177/177/294 182/182/294 178/178/294
f 177/177/295 181/181/295 182/182/295
f 178/178/296 183/183/296 179/179/296
f 178/178/297 182/182/297 183/183/297
f 179/179/298 184/184/298 180/180/298
f 179/179/299 183/183/299 184/184/299
f 180/180/300 181/181/300 177/177/300
f 180/180/301 184/184/301 181/181/301
f 181/181/302 183/183/302 182/182/302
f 181/181/302 184/184/302 183/183/302
f 172/172/303 170/170/303 171/171/303
f 172/172/303 169/169/303 170/170/303
f 185/185/304 191/191/304 186/186/304
f 185/185/305 190/190/305 191/191/305
f 186/186/306 192/192/306 187/187/306
f 186/186/307 191/191/307 192/192/307
f 187/187/308 193/193/308 188/188/308
f 187/187/309 192/192/309 193/193/309
f 188/188/310 194/194/310 189/189/310
f 188/188/311 193/193/311 194/194/311
f 189/189/312 190/190/312 185/185/312
f 189/189/313 194/194/313 190/190/313
f 190/190/314 196/196/314 191/191/314
f 190/190/315 195/195/315 196/196/315
f 191/191/316 197/197/316 192/192/316
f 191/191/317 196/196/317 197/197/317
f 192/192/318 198/198/318 193/193/318
f 192/192/319 197/197/319 198/198/319
f 193/193/320 199/199/320 194/194/320
f 193/193/321 198/198/321 199/199/321
f 194/194/322 195/195/322 190/190/322
f 194/194/323 199/199/323 195/195/323
f 195/195/324 201/201/324 196/196/324
f 195/195/325 200/200/325 201/201/325
f 196/196/326 202/202/326 197/197/326
f 196/196/327 201/201/327 202/202/327
f 197/197/328 203/203/328 198/198/328
f 197/197/329 202/202/329 203/203/329
f 198/198/330 204/204/330 199/199/330
f 198/198/331 203/203/331 204/204/331
f 199/199/332 200/200/332 195/195/332
f 199/199/333 204/204/333 200/200/333
f 200/200/334 202/202/334 201/201/334
f 200/200/334 203/203/334 202/202/334
f 200/200/334 204/204/334 203/203/334
f 189/189/335 187/187/335 188/188/335
f 189/189/335 186/186/335 187/187/335
f 189/189/335 185/185/335 186/186/335
f 205/205/336 210/210/336 206/206/336
f 205/205/127 209/209/127 210/210/127
f 206/206/337 211/211/337 207/207/337
f 206/206/338 210/210/338 211/211/338
f 207/207/339 212/212/339 208/208/339
f 207/207/340 211/211/340 212/212/340
f 208/208/341 209/209/341 205/205/341
f 208/208/342 212/212/342 209/209/342
f 209/209/343 214/214/343 210/210/343
f 209/209/344 213/213/344 214/214/344
f 210/210/345 215/215/345 211/211/345
f 210/210/346 214/214/346 215/215/346
f 211/211/347 216/216/347 212/212/347
f 211/211/348 215/215/348 216/216/348
f 212/212/349 213/213/349 209/209/349
f 212/212/350 216/216/350 213/213/350
f 213/213/351 218/218/351 214/214/351
f 213/213/352 217/217/352 218/218/352
f 214/214/353 219/219/353 215/215/353
f 214/214/354 218/218/354 219/219/354
f 215/215/355 220/220/355 216/216/355
f 215/215/356 219/219/356 220/220/356
f 216/216/357 217/217/357 213/213/357
f 216/216/358 220/220/358 217/217/358
f 217/217/359 219/219/359 218/218/359
f 217/217/359 220/220/359 219/219/359
f 208/208/360 206/206/360 207/207/360
f 208/208/360 205/205/360 206/206/360
f 221/221/361 226/226/361 222/222/361
f 221/221/362 225/225/362 226/226/362
f 222/222/363 227/227/363 223/223/363
f 222/222/364 226/226/364 227/227/364
f 223/223/365 228/228/365 224/224/365
f 223/223/366 227/227/366 228/228/366
f 224/224/367 225/225/367 221/221/367
f 224/224/368 228/228/368 225/225/368
f 225/225/369 230/230/369 226/226/369
f 225/225/370 229/229/370 230/230/370
f 226/226/371 231/231/371 227/227/371
f 226/226/372 230/230/372 231/231/372
f 227/227/373 232/232/373 228/228/373
f 227/227/374 231/231/374 232/232/374
f 228/228/375 229/229/375 225/225/375
f 228/228/376 232/232/376 229/229/376
f 229/229/377 234/234/377 230/230/377
f 229/229/378 233/233/378 234/234/378
f 230/230/379 235/235/379 231/231/379
f 230/230/380 234/234/380 235/235/380
f 231/231/381 236/236/381 232/232/381
f 231/231/382 235/235/382 236/236/382
f 232/232/383 233/233/383 229/229/383
f 232/232/384 236/236/384 233/233/384
f 233/233/385 235/235/385 234/234/385
f 233/233/385 236/236/385 235/235/385
f 224/224/386 222/222/386 223/223/386
f 224/224/386 221/221/386 222/222/386
f 237/237/387 242/242/387 238/238/387
f 237/237/388 241/241/388 242/242/388
f 238/238/389 243/243/389 239/239/389
f 238/238/390 242/242/390 243/243/390
f 239/239/391 244/244/391 240/240/391
f 239/239/392 243/243/392 244/244/392
f 240/240/393 241/241/393 237/237/393
f 240/240/394 244/244/394 241/241/394
f 241/241/395 246/246/395 242/242/395
f 241/241/396 245/245/396 246/246/396
f 242/242/397 247/247/397 243/243/397
f 242/242/398 246/246/398 247/247/398
f 243/243/399 248/248/399 244/244/399
f 243/243/400 247/247/400 248/248/400
f 244/244/401 245/245/401 241/241/401
f 244/244/402 248/248/402 245/245/402
f 245/245/403 250/250/403 246/246/403
f 245/245/404 249/249/404 250/250/404
f 246/246/405 251/251/405 247/247/405
f 246/246/406 250/250/406 251/251/406
f 247/247/407 252/252/407 248/248/407
f 247/247/408 251/251/408 252/252/408
f 248/248/409 249/249/409 245/245/409
f 248/248/410 252/252/410 249/249/410
f 249/249/411 251/251/411 250/250/411
f 249/249/411 252/252/411 251/251/411
f 240/240/412 238/238/412 239/239/412
f 240/240/412 237/237/412 238/238/412
