# JudeanFloraV1; canonical UE cm (X east, +Y south, Z up), written with Y reflected and triangle winding reversed for the legacy OBJ importer adapter. One o object, no g groups, so the importer creates exactly one material slot.
# Italian cypress (Cupressus sempervirens), StreetTreesV1 seed 2, LOD1 leaf
# height 10.0-19.0 m, crown 1.8-3.8 m; source: Zohary, M., Plants of the Bible (Cambridge University Press, 1982), species entry Cupressus sempervirens; the columnar form is 1.8-3.8 m across at 10-19 m
# branching is recursive with da Vinci child radii; leaf sprays are anchored to branch tips. Stylised habit, not a survey of any tree.
o SM_StreetTreesV1_Cypress_S2_L1_Leaf
s off
v 34.11522 16.90640 1091.69014
v -1.84614 -22.52633 1091.69014
v -1.20151 -23.11326 1145.05116
v 34.75984 16.31947 1145.05116
v 34.11522 16.90640 1091.69014
v -1.84614 -22.52633 1091.69014
v -1.20151 -23.11326 1145.05116
v 34.75984 16.31947 1145.05116
v 67.18498 -41.63881 1100.22530
v 30.02119 11.44942 1100.22530
v 35.03661 14.96636 1164.73875
v 72.20041 -38.12187 1164.73875
v 67.18498 -41.63881 1100.22530
v 30.02119 11.44942 1100.22530
v 35.03661 14.96636 1164.73875
v 72.20041 -38.12187 1164.73875
v 34.82776 -33.42180 1253.52862
v -28.95838 -21.67509 1253.52862
v -27.60892 -14.31443 1317.95420
v 36.17723 -26.06114 1317.95420
v 34.82776 -33.42180 1253.52862
v -28.95838 -21.67509 1253.52862
v -27.60892 -14.31443 1317.95420
v 36.17723 -26.06114 1317.95420
v -1.61657 -38.62570 1266.94759
v 41.32408 -1.93541 1266.94759
v 35.65019 4.69435 1322.75018
v -7.29045 -31.99594 1322.75018
v -1.61657 -38.62570 1266.94759
v 41.32408 -1.93541 1266.94759
v 35.65019 4.69435 1322.75018
v -7.29045 -31.99594 1322.75018
v 17.07046 -14.10371 1412.71302
v -18.01513 25.76369 1412.71302
v -11.84524 31.20227 1465.17980
v 23.24036 -8.66512 1465.17980
v 17.07046 -14.10371 1412.71302
v -18.01513 25.76369 1412.71302
v -11.84524 31.20227 1465.17980
v 23.24036 -8.66512 1465.17980
v -7.77698 -5.08008 1399.81239
v 12.97901 -44.34621 1399.81239
v 13.26932 -44.19246 1444.22558
v -7.48668 -4.92634 1444.22558
v -7.77698 -5.08008 1399.81239
v 12.97901 -44.34621 1399.81239
v 13.26932 -44.19246 1444.22558
v -7.48668 -4.92634 1444.22558
v 9.55327 66.52298 1022.74005
v 55.99597 34.67347 1022.74005
v 57.46068 36.81295 1078.99476
v 11.01798 68.66245 1078.99476
v 9.55327 66.52298 1022.74005
v 55.99597 34.67347 1022.74005
v 57.46068 36.81295 1078.99476
v 11.01798 68.66245 1078.99476
v 67.80272 85.13625 1016.99584
v 43.57068 35.58771 1016.99584
v 37.22078 38.68691 1071.69796
v 61.45282 88.23545 1071.69796
v 67.80272 85.13625 1016.99584
v 43.57068 35.58771 1016.99584
v 37.22078 38.68691 1071.69796
v 61.45282 88.23545 1071.69796
v 61.75820 50.78514 1081.88831
v 15.70341 53.08856 1081.88831
v 15.57184 50.41523 1127.92292
v 61.62663 48.11181 1127.92292
v 61.75820 50.78514 1081.88831
v 15.70341 53.08856 1081.88831
v 15.57184 50.41523 1127.92292
v 61.62663 48.11181 1127.92292
v 40.44973 85.41319 1121.96928
v 28.78618 17.46291 1121.96928
v 29.22970 17.38714 1190.91184
v 40.89324 85.33743 1190.91184
v 40.44973 85.41319 1121.96928
v 28.78618 17.46291 1121.96928
v 29.22970 17.38714 1190.91184
v 40.89324 85.33743 1190.91184
v 16.07494 112.91926 1189.22788
v 39.42456 53.03155 1189.22788
v 36.49641 51.88720 1253.42959
v 13.14678 111.77492 1253.42959
v 16.07494 112.91926 1189.22788
v 39.42456 53.03155 1189.22788
v 36.49641 51.88720 1253.42959
v 13.14678 111.77492 1253.42959
v 57.64160 96.02371 1183.85938
v 26.77667 52.38054 1183.85938
v 22.75189 55.22211 1237.08622
v 53.61682 98.86527 1237.08622
v 57.64160 96.02371 1183.85938
v 26.77667 52.38054 1183.85938
v 22.75189 55.22211 1237.08622
v 53.61682 98.86527 1237.08622
v 4.40866 0.83082 1013.77594
v 32.39903 40.68479 1013.77594
v 26.87827 44.55559 1062.00807
v -1.11211 4.70162 1062.00807
v 4.40866 0.83082 1013.77594
v 32.39903 40.68479 1013.77594
v 26.87827 44.55559 1062.00807
v -1.11211 4.70162 1062.00807
v -28.43724 3.40811 1027.88902
v 32.03694 17.69786 1027.88902
v 31.80098 18.69293 1090.02016
v -28.67321 4.40317 1090.02016
v -28.43724 3.40811 1027.88902
v 32.03694 17.69786 1027.88902
v 31.80098 18.69293 1090.02016
v -28.67321 4.40317 1090.02016
v 22.22819 -21.75131 1111.92340
v 19.92172 40.32263 1111.92340
v 25.96848 40.55213 1173.74473
v 28.27495 -21.52181 1173.74473
v 22.22819 -21.75131 1111.92340
v 19.92172 40.32263 1111.92340
v 25.96848 40.55213 1173.74473
v 28.27495 -21.52181 1173.74473
v 26.89641 0.46311 1108.76511
v 71.78190 55.71965 1108.76511
v 76.50083 51.89265 1179.69520
v 31.61534 -3.36389 1179.69520
v 26.89641 0.46311 1108.76511
v 71.78190 55.71965 1108.76511
v 76.50083 51.89265 1179.69520
v 31.61534 -3.36389 1179.69520
v 36.31802 -4.49877 1174.37599
v 73.48753 38.71310 1174.37599
v 72.93714 39.18577 1231.36995
v 35.76762 -4.02609 1231.36995
v 36.31802 -4.49877 1174.37599
v 73.48753 38.71310 1174.37599
v 72.93714 39.18577 1231.36995
v 35.76762 -4.02609 1231.36995
v 60.37091 -14.96984 1201.26966
v 42.63520 35.10925 1201.26966
v 50.22102 37.80260 1253.78320
v 67.95673 -12.27649 1253.78320
v 60.37091 -14.96984 1201.26966
v 42.63520 35.10925 1201.26966
v 50.22102 37.80260 1253.78320
v 67.95673 -12.27649 1253.78320
v 8.03566 -50.85387 799.07357
v 52.11978 -61.04358 799.07357
v 53.06244 -56.95048 844.12463
v 8.97831 -46.76076 844.12463
v 8.03566 -50.85387 799.07357
v 52.11978 -61.04358 799.07357
v 53.06244 -56.95048 844.12463
v 8.97831 -46.76076 844.12463
v 58.71351 -24.55795 780.90122
v 36.70645 -79.44222 780.90122
v 38.00447 -79.96149 840.01670
v 60.01153 -25.07722 840.01670
v 58.71351 -24.55795 780.90122
v 36.70645 -79.44222 780.90122
v 38.00447 -79.96149 840.01670
v 60.01153 -25.07722 840.01670
v 28.94337 -83.38686 870.20678
v 15.85246 -24.70443 870.20678
v 11.03716 -25.78266 930.12881
v 24.12807 -84.46509 930.12881
v 28.94337 -83.38686 870.20678
v 15.85246 -24.70443 870.20678
v 11.03716 -25.78266 930.12881
v 24.12807 -84.46509 930.12881
v 32.89093 -56.40918 887.19394
v 49.76707 -5.24293 887.19394
v 56.92227 -7.59661 940.54235
v 40.04613 -58.76287 940.54235
v 32.89093 -56.40918 887.19394
v 49.76707 -5.24293 887.19394
v 56.92227 -7.59661 940.54235
v 40.04613 -58.76287 940.54235
v 78.37007 -58.78281 937.74402
v 16.96261 -79.66586 937.74402
v 19.18688 -86.18936 1002.23801
v 80.59434 -65.30631 1002.23801
v 78.37007 -58.78281 937.74402
v 16.96261 -79.66586 937.74402
v 19.18688 -86.18936 1002.23801
v 80.59434 -65.30631 1002.23801
v 59.68966 -50.69023 945.12271
v -5.92230 -29.50603 945.12271
v -5.75405 -28.98352 1014.06760
v 59.85791 -50.16772 1014.06760
v 59.68966 -50.69023 945.12271
v -5.92230 -29.50603 945.12271
v -5.75405 -28.98352 1014.06760
v 59.85791 -50.16772 1014.06760
v -5.44359 -61.54841 808.79434
v 39.03525 -36.44926 808.79434
v 41.87724 -41.47627 859.53867
v -2.60160 -66.57542 859.53867
v -5.44359 -61.54841 808.79434
v 39.03525 -36.44926 808.79434
v 41.87724 -41.47627 859.53867
v -2.60160 -66.57542 859.53867
v 70.77184 -38.29805 749.88589
v -1.30827 -30.39516 749.88589
v -2.31230 -39.62052 821.80168
v 69.76780 -47.52341 821.80168
v 70.77184 -38.29805 749.88589
v -1.30827 -30.39516 749.88589
v -2.31230 -39.62052 821.80168
v 69.76780 -47.52341 821.80168
v 12.27563 -48.44026 844.79962
v 50.59848 -75.19937 844.79962
v 47.00285 -80.35757 891.11544
v 8.68000 -53.59847 891.11544
v 12.27563 -48.44026 844.79962
v 50.59848 -75.19937 844.79962
v 47.00285 -80.35757 891.11544
v 8.68000 -53.59847 891.11544
v 61.59680 -72.49635 810.13311
v 25.28630 -24.29951 810.13311
v 26.90818 -23.07559 870.44281
v 63.21869 -71.27243 870.44281
v 61.59680 -72.49635 810.13311
v 25.28630 -24.29951 810.13311
v 26.90818 -23.07559 870.44281
v 63.21869 -71.27243 870.44281
v -56.28209 -22.22424 876.22127
v 3.50539 -33.45920 876.22127
v 1.67744 -43.22959 936.23765
v -58.11004 -31.99464 936.23765
v -56.28209 -22.22424 876.22127
v 3.50539 -33.45920 876.22127
v 1.67744 -43.22959 936.23765
v -58.11004 -31.99464 936.23765
v -11.79440 -37.17843 867.61844
v 13.50579 -78.13700 867.61844
v 7.20268 -82.03738 915.18693
v -18.09751 -41.07881 915.18693
v -11.79440 -37.17843 867.61844
v 13.50579 -78.13700 867.61844
v 7.20268 -82.03738 915.18693
v -18.09751 -41.07881 915.18693
v -30.38580 -84.40054 753.10000
v -4.55323 -27.80216 753.10000
v 4.02855 -31.71079 814.59613
v -21.80403 -88.30917 814.59613
v -30.38580 -84.40054 753.10000
v -4.55323 -27.80216 753.10000
v 4.02855 -31.71079 814.59613
v -21.80403 -88.30917 814.59613
v -9.48622 -39.81987 756.54865
v 26.25658 -10.56368 756.54865
v 23.45309 -7.14416 802.52603
v -12.28971 -36.40035 802.52603
v -9.48622 -39.81987 756.54865
v 26.25658 -10.56368 756.54865
v 23.45309 -7.14416 802.52603
v -12.28971 -36.40035 802.52603
v -1.79185 -5.76690 827.56565
v 50.01281 -36.18096 827.56565
v 45.25070 -44.30713 886.89546
v -6.55396 -13.89307 886.89546
v -1.79185 -5.76690 827.56565
v 50.01281 -36.18096 827.56565
v 45.25070 -44.30713 886.89546
v -6.55396 -13.89307 886.89546
v 35.64441 5.90530 790.72936
v 46.08305 -48.26432 790.72936
v 36.85640 -50.04994 845.08921
v 26.41777 4.11967 845.08921
v 35.64441 5.90530 790.72936
v 46.08305 -48.26432 790.72936
v 36.85640 -50.04994 845.08921
v 26.41777 4.11967 845.08921
v 23.12013 21.09348 831.71842
v -14.67671 -32.64611 831.71842
v -7.42830 -37.73554 896.81914
v 30.36854 16.00405 896.81914
v 23.12013 21.09348 831.71842
v -14.67671 -32.64611 831.71842
v -7.42830 -37.73554 896.81914
v 30.36854 16.00405 896.81914
v 37.27821 21.08539 837.70549
v 30.16819 -42.93625 837.70549
v 19.12839 -41.71910 901.15596
v 26.23840 22.30253 901.15596
v 37.27821 21.08539 837.70549
v 30.16819 -42.93625 837.70549
v 19.12839 -41.71910 901.15596
v 26.23840 22.30253 901.15596
v -99.54813 -45.46862 810.49209
v -43.40500 -30.42735 810.49209
v -45.90155 -21.13834 867.81374
v -102.04467 -36.17962 867.81374
v -99.54813 -45.46862 810.49209
v -43.40500 -30.42735 810.49209
v -45.90155 -21.13834 867.81374
v -102.04467 -36.17962 867.81374
v -31.54210 -46.21604 792.62328
v -90.30707 -21.06287 792.62328
v -87.48650 -14.45867 856.14046
v -28.72153 -39.61184 856.14046
v -31.54210 -46.21604 792.62328
v -90.30707 -21.06287 792.62328
v -87.48650 -14.45867 856.14046
v -28.72153 -39.61184 856.14046
v -122.48633 -19.81700 896.04191
v -99.92188 34.50842 896.04191
v -92.69533 31.51356 954.34468
v -115.25978 -22.81185 954.34468
v -122.48633 -19.81700 896.04191
v -99.92188 34.50842 896.04191
v -92.69533 31.51356 954.34468
v -115.25978 -22.81185 954.34468
v -74.60375 30.49390 881.84747
v -133.79508 5.66829 881.84747
v -130.52352 -2.11466 945.47645
v -71.33219 22.71095 945.47645
v -74.60375 30.49390 881.84747
v -133.79508 5.66829 881.84747
v -130.52352 -2.11466 945.47645
v -71.33219 22.71095 945.47645
v -152.15818 31.40776 961.37592
v -88.24317 -1.48548 961.37592
v -83.17518 8.38145 1032.39741
v -147.09019 41.27469 1032.39741
v -152.15818 31.40776 961.37592
v -88.24317 -1.48548 961.37592
v -83.17518 8.38145 1032.39741
v -147.09019 41.27469 1032.39741
v -85.26717 -9.82252 969.48872
v -74.19850 55.70040 969.48872
v -63.85415 53.96141 1035.10685
v -74.92282 -11.56150 1035.10685
v -85.26717 -9.82252 969.48872
v -74.19850 55.70040 969.48872
v -63.85415 53.96141 1035.10685
v -74.92282 -11.56150 1035.10685
v -53.83778 -55.18712 792.73711
v -100.67533 -13.17243 792.73711
v -94.90818 -6.73296 855.06096
v -48.07062 -48.74764 855.06096
v -53.83778 -55.18712 792.73711
v -100.67533 -13.17243 792.73711
v -94.90818 -6.73296 855.06096
v -48.07062 -48.74764 855.06096
v -92.29098 -3.35652 772.07184
v -59.26460 -54.92708 772.07184
v -51.38123 -49.86962 832.59076
v -84.40760 1.70094 832.59076
v -92.29098 -3.35652 772.07184
v -59.26460 -54.92708 772.07184
v -51.38123 -49.86962 832.59076
v -84.40760 1.70094 832.59076
v -37.54053 53.21526 803.43498
v -14.79929 6.57598 803.43498
v -15.86693 6.05434 855.30959
v -38.60818 52.69362 855.30959
v -37.54053 53.21526 803.43498
v -14.79929 6.57598 803.43498
v -15.86693 6.05434 855.30959
v -38.60818 52.69362 855.30959
v -13.61722 -14.17563 800.27953
v -71.37911 17.29432 800.27953
v -66.61446 26.05625 865.29738
v -8.85257 -5.41369 865.29738
v -13.61722 -14.17563 800.27953
v -71.37911 17.29432 800.27953
v -66.61446 26.05625 865.29738
v -8.85257 -5.41369 865.29738
v -30.26242 11.94287 839.77041
v -77.16788 -15.10953 839.77041
v -76.09473 -16.96684 893.87544
v -29.18926 10.08557 893.87544
v -30.26242 11.94287 839.77041
v -77.16788 -15.10953 839.77041
v -76.09473 -16.96684 893.87544
v -29.18926 10.08557 893.87544
v -28.58479 -36.61128 866.95310
v -85.52724 -20.10270 866.95310
v -88.21762 -29.41027 925.44332
v -31.27518 -45.91884 925.44332
v -28.58479 -36.61128 866.95310
v -85.52724 -20.10270 866.95310
v -88.21762 -29.41027 925.44332
v -31.27518 -45.91884 925.44332
v -77.20439 28.62773 773.42968
v -69.50263 -35.34053 773.42968
v -66.22208 -34.94291 837.77512
v -73.92384 29.02536 837.77512
v -77.20439 28.62773 773.42968
v -69.50263 -35.34053 773.42968
v -66.22208 -34.94291 837.77512
v -73.92384 29.02536 837.77512
v -95.26769 -29.13665 796.99588
v -44.02134 -10.95922 796.99588
v -40.90009 -19.73655 850.56661
v -92.14644 -37.91398 850.56661
v -95.26769 -29.13665 796.99588
v -44.02134 -10.95922 796.99588
v -40.90009 -19.73655 850.56661
v -92.14644 -37.91398 850.56661
v -62.67097 -20.60869 810.57204
v -118.30749 -45.63415 810.57204
v -122.10770 -37.20349 870.87278
v -66.47118 -12.17803 870.87278
v -62.67097 -20.60869 810.57204
v -118.30749 -45.63415 810.57204
v -122.10770 -37.20349 870.87278
v -66.47118 -12.17803 870.87278
v -92.77212 -53.59373 814.56502
v -46.11649 -34.06859 814.56502
v -47.09809 -31.72828 865.07778
v -93.75372 -51.25342 865.07778
v -92.77212 -53.59373 814.56502
v -46.11649 -34.06859 814.56502
v -47.09809 -31.72828 865.07778
v -93.75372 -51.25342 865.07778
v -64.09708 20.00925 840.22770
v -62.18639 -27.57850 840.22770
v -70.93745 -27.93685 887.04154
v -72.84813 19.65091 887.04154
v -64.09708 20.00925 840.22770
v -62.18639 -27.57850 840.22770
v -70.93745 -27.93685 887.04154
v -72.84813 19.65091 887.04154
v -44.91985 -18.20452 846.82796
v -110.16577 -26.50719 846.82796
v -111.24777 -18.05806 912.04610
v -46.00186 -9.75540 912.04610
v -44.91985 -18.20452 846.82796
v -110.16577 -26.50719 846.82796
v -111.24777 -18.05806 912.04610
v -46.00186 -9.75540 912.04610
v 1.16342 -53.24252 851.55169
v -46.62441 -25.98088 851.55169
v -48.52351 -29.31604 906.43469
v -0.73568 -56.57768 906.43469
v 1.16342 -53.24252 851.55169
v -46.62441 -25.98088 851.55169
v -48.52351 -29.31604 906.43469
v -0.73568 -56.57768 906.43469
v -85.11622 6.52694 846.03789
v -42.16222 -17.90258 846.03789
v -46.19885 -25.01329 894.77177
v -89.15285 -0.58377 894.77177
v -85.11622 6.52694 846.03789
v -42.16222 -17.90258 846.03789
v -46.19885 -25.01329 894.77177
v -89.15285 -0.58377 894.77177
v -29.94367 -3.09422 1123.84448
v -20.44098 67.78424 1123.84448
v -18.96207 67.58716 1195.34156
v -28.46476 -3.29130 1195.34156
v -29.94367 -3.09422 1123.84448
v -20.44098 67.78424 1123.84448
v -18.96207 67.58716 1195.34156
v -28.46476 -3.29130 1195.34156
v -61.70271 57.78827 1110.27066
v -19.66166 34.45886 1110.27066
v -21.43115 31.26413 1158.21201
v -63.47220 54.59353 1158.21201
v -61.70271 57.78827 1110.27066
v -19.66166 34.45886 1110.27066
v -21.43115 31.26413 1158.21201
v -63.47220 54.59353 1158.21201
v -36.26941 -59.98952 771.26120
v -76.98878 -8.92313 771.26120
v -70.87638 -4.04125 836.10446
v -30.15702 -55.10764 836.10446
v -36.26941 -59.98952 771.26120
v -76.98878 -8.92313 771.26120
v -70.87638 -4.04125 836.10446
v -30.15702 -55.10764 836.10446
v -30.85327 3.93122 794.88729
v -52.06586 -51.01613 794.88729
v -49.00682 -52.19429 853.69578
v -27.79423 2.75306 853.69578
v -30.85327 3.93122 794.88729
v -52.06586 -51.01613 794.88729
v -49.00682 -52.19429 853.69578
v -27.79423 2.75306 853.69578
v 125.35469 -36.58076 809.84943
v 78.40601 -13.00670 809.84943
v 79.14230 -11.53744 862.35860
v 126.09098 -35.11150 862.35860
v 125.35469 -36.58076 809.84943
v 78.40601 -13.00670 809.84943
v 79.14230 -11.53744 862.35860
v 126.09098 -35.11150 862.35860
v 122.15994 0.27898 822.29627
v 89.32798 33.44897 822.29627
v 93.00878 37.09807 868.67862
v 125.84074 3.92808 868.67862
v 122.15994 0.27898 822.29627
v 89.32798 33.44897 822.29627
v 93.00878 37.09807 868.67862
v 125.84074 3.92808 868.67862
v -49.52445 47.80141 775.27568
v -2.82015 52.19315 775.27568
v -3.44944 58.82865 821.71008
v -50.15373 54.43691 821.71008
v -49.52445 47.80141 775.27568
v -2.82015 52.19315 775.27568
v -3.44944 58.82865 821.71008
v -50.15373 54.43691 821.71008
v 32.00732 41.31597 783.26409
v -37.20554 50.26930 783.26409
v -38.65523 38.99200 852.12120
v 30.55763 30.03867 852.12120
v 32.00732 41.31597 783.26409
v -37.20554 50.26930 783.26409
v -38.65523 38.99200 852.12120
v 30.55763 30.03867 852.12120
v -10.12516 -14.98633 843.82800
v -30.84987 24.45430 843.82800
v -30.85751 24.45028 888.38220
v -10.13279 -14.99035 888.38220
v -10.12516 -14.98633 843.82800
v -30.84987 24.45430 843.82800
v -30.85751 24.45028 888.38220
v -10.13279 -14.99035 888.38220
v -7.68213 21.75146 800.51583
v 43.69367 24.01099 800.51583
v 43.96998 17.84050 851.56901
v -7.40583 15.58097 851.56901
v -7.68213 21.75146 800.51583
v 43.69367 24.01099 800.51583
v 43.96998 17.84050 851.56901
v -7.40583 15.58097 851.56901
v -54.76289 18.53140 906.52923
v -39.51097 -40.23680 906.52923
v -32.66805 -38.45506 966.83115
v -47.91997 20.31314 966.83115
v -54.76289 18.53140 906.52923
v -39.51097 -40.23680 906.52923
v -32.66805 -38.45506 966.83115
v -47.91997 20.31314 966.83115
v -7.26417 29.59962 887.99146
v 17.55600 -31.57306 887.99146
v 13.11716 -33.37819 953.83351
v -11.70301 27.79449 953.83351
v -7.26417 29.59962 887.99146
v 17.55600 -31.57306 887.99146
v 13.11716 -33.37819 953.83351
v -11.70301 27.79449 953.83351
v -48.84270 53.35758 1190.51329
v 5.09775 62.74611 1190.51329
v 6.36896 55.47682 1244.76509
v -47.57149 46.08829 1244.76509
v -48.84270 53.35758 1190.51329
v 5.09775 62.74611 1190.51329
v 6.36896 55.47682 1244.76509
v -47.57149 46.08829 1244.76509
v 11.32217 89.95305 1153.32157
v 8.84558 30.17165 1153.32157
v 4.00407 30.36836 1212.95772
v 6.48066 90.14976 1212.95772
v 11.32217 89.95305 1153.32157
v 8.84558 30.17165 1153.32157
v 4.00407 30.36836 1212.95772
v 6.48066 90.14976 1212.95772
v -41.86188 -0.01381 852.09511
v -29.60970 -59.13532 852.09511
v -28.01241 -58.80298 912.45079
v -40.26459 0.31854 912.45079
v -41.86188 -0.01381 852.09511
v -29.60970 -59.13532 852.09511
v -28.01241 -58.80298 912.45079
v -40.26459 0.31854 912.45079
v 12.18524 3.05012 858.63739
v -39.57357 -5.10456 858.63739
v -40.80895 2.69613 910.43600
v 10.94986 10.85081 910.43600
v 12.18524 3.05012 858.63739
v -39.57357 -5.10456 858.63739
v -40.80895 2.69613 910.43600
v 10.94986 10.85081 910.43600
v 24.54642 -73.59380 889.61612
v -0.80943 -29.46943 889.61612
v 2.50060 -27.56383 940.36345
v 27.85645 -71.68820 940.36345
v 24.54642 -73.59380 889.61612
v -0.80943 -29.46943 889.61612
v 2.50060 -27.56383 940.36345
v 27.85645 -71.68820 940.36345
v 43.72960 -62.75674 912.26455
v -3.37433 -7.11944 912.26455
v -6.28159 -9.58478 985.06400
v 40.82234 -65.22208 985.06400
v 43.72960 -62.75674 912.26455
v -3.37433 -7.11944 912.26455
v -6.28159 -9.58478 985.06400
v 40.82234 -65.22208 985.06400
v -0.61201 4.90090 1391.21061
v 38.92601 -40.90671 1391.21061
v 31.45340 -47.36695 1450.91001
v -8.08462 -1.55934 1450.91001
v -0.61201 4.90090 1391.21061
v 38.92601 -40.90671 1391.21061
v 31.45340 -47.36695 1450.91001
v -8.08462 -1.55934 1450.91001
v 49.45622 -5.86112 1395.08917
v 8.42967 -24.98309 1395.08917
v 7.60370 -23.21464 1440.31104
v 48.63025 -4.09268 1440.31104
v 49.45622 -5.86112 1395.08917
v 8.42967 -24.98309 1395.08917
v 7.60370 -23.21464 1440.31104
v 48.63025 -4.09268 1440.31104
v 65.64178 -72.93732 943.40476
v 59.42975 -2.50610 943.40476
v 47.61681 -3.55748 1013.10767
v 53.82884 -73.98870 1013.10767
v 65.64178 -72.93732 943.40476
v 59.42975 -2.50610 943.40476
v 47.61681 -3.55748 1013.10767
v 53.82884 -73.98870 1013.10767
v 81.80821 -68.75595 919.74155
v 22.63474 -29.69181 919.74155
v 29.10754 -19.86996 989.66394
v 88.28101 -58.93410 989.66394
v 81.80821 -68.75595 919.74155
v 22.63474 -29.69181 919.74155
v 29.10754 -19.86996 989.66394
v 88.28101 -58.93410 989.66394
v -40.53872 15.97732 567.27275
v -87.47289 -12.83943 567.27275
v -82.49287 -20.93599 621.52095
v -35.55869 7.88076 621.52095
v -40.53872 15.97732 567.27275
v -87.47289 -12.83943 567.27275
v -82.49287 -20.93599 621.52095
v -35.55869 7.88076 621.52095
v -110.56373 -30.71842 568.86308
v -94.23763 24.31837 568.86308
v -88.25165 22.54788 625.92992
v -104.57775 -32.48891 625.92992
v -110.56373 -30.71842 568.86308
v -94.23763 24.31837 568.86308
v -88.25165 22.54788 625.92992
v -104.57775 -32.48891 625.92992
v -85.50333 85.97719 777.01053
v -68.67783 20.61455 777.01053
v -60.02639 22.84893 843.90995
v -76.85190 88.21157 843.90995
v -85.50333 85.97719 777.01053
v -68.67783 20.61455 777.01053
v -60.02639 22.84893 843.90995
v -76.85190 88.21157 843.90995
v -41.05724 -7.71677 781.73820
v -49.59382 50.08979 781.73820
v -52.39313 49.67413 840.10311
v -43.85654 -8.13243 840.10311
v -41.05724 -7.71677 781.73820
v -49.59382 50.08979 781.73820
v -52.39313 49.67413 840.10311
v -43.85654 -8.13243 840.10311
v 25.16092 -51.38077 997.01449
v -33.49659 -88.65725 997.01449
v -30.64155 -93.14198 1066.31078
v 28.01596 -55.86550 1066.31078
v 25.16092 -51.38077 997.01449
v -33.49659 -88.65725 997.01449
v -30.64155 -93.14198 1066.31078
v 28.01596 -55.86550 1066.31078
v -23.48153 -44.45562 986.61279
v 9.73803 -84.54372 986.61279
v 3.04445 -90.09945 1037.94431
v -30.17512 -50.01135 1037.94431
v -23.48153 -44.45562 986.61279
v 9.73803 -84.54372 986.61279
v 3.04445 -90.09945 1037.94431
v -30.17512 -50.01135 1037.94431
v 9.69015 -127.37175 783.09453
v -48.86202 -93.20102 783.09453
v -42.86264 -82.90215 849.83234
v 15.68952 -117.07288 849.83234
v 9.69015 -127.37175 783.09453
v -48.86202 -93.20102 783.09453
v -42.86264 -82.90215 849.83234
v 15.68952 -117.07288 849.83234
v -50.78547 -50.58719 780.95084
v 3.66845 -70.00661 780.95084
v 3.90927 -69.32962 838.75938
v -50.54465 -49.91019 838.75938
v -50.78547 -50.58719 780.95084
v 3.66845 -70.00661 780.95084
v 3.90927 -69.32962 838.75938
v -50.54465 -49.91019 838.75938
v -6.87499 -100.72214 782.28903
v -40.87452 -62.89602 782.28903
v -36.15196 -58.64441 832.75093
v -2.15243 -96.47052 832.75093
v -6.87499 -100.72214 782.28903
v -40.87452 -62.89602 782.28903
v -36.15196 -58.64441 832.75093
v -2.15243 -96.47052 832.75093
v -5.26276 -36.34936 794.51960
v -54.13468 -63.75647 794.51960
v -52.77034 -66.18481 850.48259
v -3.89842 -38.77769 850.48259
v -5.26276 -36.34936 794.51960
v -54.13468 -63.75647 794.51960
v -52.77034 -66.18481 850.48259
v -3.89842 -38.77769 850.48259
v -78.31015 71.72029 774.96134
v -63.99489 18.65541 774.96134
v -61.12363 19.43244 829.84267
v -75.43889 72.49732 829.84267
v -78.31015 71.72029 774.96134
v -63.99489 18.65541 774.96134
v -61.12363 19.43244 829.84267
v -75.43889 72.49732 829.84267
v -104.46008 21.38737 788.68497
v -58.92047 18.26235 788.68497
v -59.27717 13.00290 834.02626
v -104.81679 16.12792 834.02626
v -104.46008 21.38737 788.68497
v -58.92047 18.26235 788.68497
v -59.27717 13.00290 834.02626
v -104.81679 16.12792 834.02626
v 2.25709 -12.41201 1087.11318
v -51.28475 4.20032 1087.11318
v -50.98466 5.17024 1143.16375
v 2.55717 -11.44209 1143.16375
v 2.25709 -12.41201 1087.11318
v -51.28475 4.20032 1087.11318
v -50.98466 5.17024 1143.16375
v 2.55717 -11.44209 1143.16375
v 3.46525 21.80582 1108.52933
v -36.37838 57.51666 1108.52933
v -38.82503 54.78248 1161.90832
v 1.01860 19.07164 1161.90832
v 3.46525 21.80582 1108.52933
v -36.37838 57.51666 1108.52933
v -38.82503 54.78248 1161.90832
v 1.01860 19.07164 1161.90832
v -44.15794 -94.48526 825.02805
v -27.17051 -37.10890 825.02805
v -27.22077 -37.09407 884.86630
v -44.20821 -94.47042 884.86630
v -44.15794 -94.48526 825.02805
v -27.17051 -37.10890 825.02805
v -27.22077 -37.09407 884.86630
v -44.20821 -94.47042 884.86630
v -75.88331 -46.64310 784.31004
v -46.11772 -98.74216 784.31004
v -54.85564 -103.74360 843.46185
v -84.62124 -51.64454 843.46185
v -75.88331 -46.64310 784.31004
v -46.11772 -98.74216 784.31004
v -54.85564 -103.74360 843.46185
v -84.62124 -51.64454 843.46185
v 31.15232 13.78728 833.75180
v 50.40599 76.05967 833.75180
v 51.37062 75.76226 898.92492
v 32.11695 13.48987 898.92492
v 31.15232 13.78728 833.75180
v 50.40599 76.05967 833.75180
v 51.37062 75.76226 898.92492
v 32.11695 13.48987 898.92492
v 25.18627 83.77797 838.93143
v 41.00042 21.15757 838.93143
v 36.75056 20.08071 903.36884
v 20.93641 82.70111 903.36884
v 25.18627 83.77797 838.93143
v 41.00042 21.15757 838.93143
v 36.75056 20.08071 903.36884
v 20.93641 82.70111 903.36884
v -9.62521 -2.09539 1208.23331
v -53.38206 -56.43912 1208.23331
v -62.02890 -49.48813 1277.11595
v -18.27206 4.85559 1277.11595
v -9.62521 -2.09539 1208.23331
v -53.38206 -56.43912 1208.23331
v -62.02890 -49.48813 1277.11595
v -18.27206 4.85559 1277.11595
v -1.05832 20.10683 1164.25293
v -61.07126 11.30625 1164.25293
v -61.75317 15.93064 1224.72733
v -1.74023 24.73122 1224.72733
v -1.05832 20.10683 1164.25293
v -61.07126 11.30625 1164.25293
v -61.75317 15.93064 1224.72733
v -1.74023 24.73122 1224.72733
v -5.98337 -3.42384 706.77004
v -55.13999 50.31961 706.77004
v -62.77290 43.32697 778.86422
v -13.61629 -10.41648 778.86422
v -5.98337 -3.42384 706.77004
v -55.13999 50.31961 706.77004
v -62.77290 43.32697 778.86422
v -13.61629 -10.41648 778.86422
v -17.66482 24.15348 760.70394
v -63.33540 -0.62182 760.70394
v -59.20510 -8.22115 811.93683
v -13.53451 16.55415 811.93683
v -17.66482 24.15348 760.70394
v -63.33540 -0.62182 760.70394
v -59.20510 -8.22115 811.93683
v -13.53451 16.55415 811.93683
v -56.44886 -72.15346 910.08400
v -13.60796 -18.55454 910.08400
v -16.77833 -16.02465 978.58024
v -59.61922 -69.62357 978.58024
v -56.44886 -72.15346 910.08400
v -13.60796 -18.55454 910.08400
v -16.77833 -16.02465 978.58024
v -59.61922 -69.62357 978.58024
v -46.57555 8.26185 900.76508
v -51.83927 -59.08404 900.76508
v -43.79295 -59.70649 967.83255
v -38.52923 7.63940 967.83255
v -46.57555 8.26185 900.76508
v -51.83927 -59.08404 900.76508
v -43.79295 -59.70649 967.83255
v -38.52923 7.63940 967.83255
v 28.25874 56.50426 1052.32738
v -17.72057 41.88340 1052.32738
v -16.80880 39.02398 1100.48190
v 29.17051 53.64483 1100.48190
v 28.25874 56.50426 1052.32738
v -17.72057 41.88340 1052.32738
v -16.80880 39.02398 1100.48190
v 29.17051 53.64483 1100.48190
v 30.94671 47.65906 1031.01991
v -22.25576 53.95668 1031.01991
v -22.26057 53.91573 1084.59379
v 30.94190 47.61811 1084.59379
v 30.94671 47.65906 1031.01991
v -22.25576 53.95668 1031.01991
v -22.26057 53.91573 1084.59379
v 30.94190 47.61811 1084.59379
v 43.85346 23.86691 853.22303
v 96.64998 -1.24381 853.22303
v 100.56855 7.01212 910.96820
v 47.77203 32.12283 910.96820
v 43.85346 23.86691 853.22303
v 96.64998 -1.24381 853.22303
v 100.56855 7.01212 910.96820
v 47.77203 32.12283 910.96820
v 108.16242 -8.55929 827.72401
v 61.52100 41.04960 827.72401
v 61.27911 40.82181 895.81478
v 107.92053 -8.78708 895.81478
v 108.16242 -8.55929 827.72401
v 61.52100 41.04960 827.72401
v 61.27911 40.82181 895.81478
v 107.92053 -8.78708 895.81478
v 20.35763 -86.43536 645.76472
v -7.29783 -41.12169 645.76472
v -1.90419 -37.82399 698.47323
v 25.75127 -83.13766 698.47323
v 20.35763 -86.43536 645.76472
v -7.29783 -41.12169 645.76472
v -1.90419 -37.82399 698.47323
v 25.75127 -83.13766 698.47323
v -56.21850 -59.92382 660.02175
v -4.28692 -86.73473 660.02175
v -6.47573 -90.98264 718.27016
v -58.40730 -64.17173 718.27016
v -56.21850 -59.92382 660.02175
v -4.28692 -86.73473 660.02175
v -6.47573 -90.98264 718.27016
v -58.40730 -64.17173 718.27016
v 76.60612 5.61119 589.94342
v 6.60574 9.43256 589.94342
v 6.94761 15.78797 659.75852
v 76.94799 11.96660 659.75852
v 76.60612 5.61119 589.94342
v 6.60574 9.43256 589.94342
v 6.94761 15.78797 659.75852
v 76.94799 11.96660 659.75852
v 58.15702 22.29175 599.25428
v 23.89860 -25.67935 599.25428
v 26.92571 -27.83751 658.08492
v 61.18412 20.13359 658.08492
v 58.15702 22.29175 599.25428
v 23.89860 -25.67935 599.25428
v 26.92571 -27.83751 658.08492
v 61.18412 20.13359 658.08492
v -24.14265 13.29911 887.58842
v 22.12304 17.92467 887.58842
v 22.45153 14.66529 933.96922
v -23.81416 10.03974 933.96922
v -24.14265 13.29911 887.58842
v 22.12304 17.92467 887.58842
v 22.45153 14.66529 933.96922
v -23.81416 10.03974 933.96922
v 12.91060 27.49595 866.38998
v -48.76918 -11.30053 866.38998
v -43.34702 -19.90563 938.54339
v 18.33276 18.89085 938.54339
v 12.91060 27.49595 866.38998
v -48.76918 -11.30053 866.38998
v -43.34702 -19.90563 938.54339
v 18.33276 18.89085 938.54339
v 15.97167 17.30647 745.88667
v -36.67194 49.24857 745.88667
v -31.88567 57.15099 806.76599
v 20.75795 25.20889 806.76599
v 15.97167 17.30647 745.88667
v -36.67194 49.24857 745.88667
v -31.88567 57.15099 806.76599
v 20.75795 25.20889 806.76599
v -38.44159 26.29655 766.63039
v 18.12301 -3.52393 766.63039
v 22.67620 5.12943 829.82219
v -33.88840 34.94991 829.82219
v -38.44159 26.29655 766.63039
v 18.12301 -3.52393 766.63039
v 22.67620 5.12943 829.82219
v -33.88840 34.94991 829.82219
v 23.92240 -55.20716 598.28410
v -12.78473 -8.89255 598.28410
v -9.74858 -6.48228 657.25383
v 26.95855 -52.79689 657.25383
v 23.92240 -55.20716 598.28410
v -12.78473 -8.89255 598.28410
v -9.74858 -6.48228 657.25383
v 26.95855 -52.79689 657.25383
v 38.00460 -13.39225 585.88937
v -12.90261 -25.57200 585.88937
v -14.40158 -19.32878 637.83805
v 36.50563 -7.14903 637.83805
v 38.00460 -13.39225 585.88937
v -12.90261 -25.57200 585.88937
v -14.40158 -19.32878 637.83805
v 36.50563 -7.14903 637.83805
v 34.36171 -29.85980 1279.19735
v -31.41870 -38.15749 1279.19735
v -31.04368 -41.11155 1345.43214
v 34.73674 -32.81385 1345.43214
v 34.36171 -29.85980 1279.19735
v -31.41870 -38.15749 1279.19735
v -31.04368 -41.11155 1345.43214
v 34.73674 -32.81385 1345.43214
v 60.62408 -53.50458 1248.52937
v 8.98586 -70.83458 1248.52937
v 6.72297 -64.10959 1302.53389
v 58.36119 -46.77959 1302.53389
v 60.62408 -53.50458 1248.52937
v 8.98586 -70.83458 1248.52937
v 6.72297 -64.10959 1302.53389
v 58.36119 -46.77959 1302.53389
v -61.22228 -50.78511 818.93808
v -109.04571 -20.54273 818.93808
v -112.05799 -25.31459 875.23939
v -64.23457 -55.55697 875.23939
v -61.22228 -50.78511 818.93808
v -109.04571 -20.54273 818.93808
v -112.05799 -25.31459 875.23939
v -64.23457 -55.55697 875.23939
v -34.78692 -38.41569 823.59145
v -44.00563 -109.90727 823.59145
v -38.65257 -110.59321 895.47264
v -29.43387 -39.10162 895.47264
v -34.78692 -38.41569 823.59145
v -44.00563 -109.90727 823.59145
v -38.65257 -110.59321 895.47264
v -29.43387 -39.10162 895.47264
v 82.31235 31.42492 663.36086
v 42.05758 57.83864 663.36086
v 38.50176 52.41012 711.06850
v 78.75654 25.99640 711.06850
v 82.31235 31.42492 663.36086
v 42.05758 57.83864 663.36086
v 38.50176 52.41012 711.06850
v 78.75654 25.99640 711.06850
v 27.34924 46.59865 642.59035
v 83.53037 46.36963 642.59035
v 83.55413 53.61322 698.30303
v 27.37300 53.84223 698.30303
v 27.34924 46.59865 642.59035
v 83.53037 46.36963 642.59035
v 83.55413 53.61322 698.30303
v 27.37300 53.84223 698.30303
v 22.72364 -13.21745 830.11724
v 10.58778 -60.34030 830.11724
v 19.28324 -62.57231 877.94243
v 31.41910 -15.44947 877.94243
v 22.72364 -13.21745 830.11724
v 10.58778 -60.34030 830.11724
v 19.28324 -62.57231 877.94243
v 31.41910 -15.44947 877.94243
v -37.96289 -92.37217 862.07966
v 5.01935 -64.03131 862.07966
v 6.50541 -66.28120 913.49373
v -36.47682 -94.62206 913.49373
v -37.96289 -92.37217 862.07966
v 5.01935 -64.03131 862.07966
v 6.50541 -66.28120 913.49373
v -36.47682 -94.62206 913.49373
v 46.56368 -49.63487 797.91485
v 98.23286 -25.23698 797.91485
v 102.33701 -33.91074 854.24320
v 50.66784 -58.30863 854.24320
v 46.56368 -49.63487 797.91485
v 98.23286 -25.23698 797.91485
v 102.33701 -33.91074 854.24320
v 50.66784 -58.30863 854.24320
v 61.81945 19.13655 789.96657
v 22.00240 -34.26199 789.96657
v 23.82077 -35.61562 856.53730
v 63.63781 17.78292 856.53730
v 61.81945 19.13655 789.96657
v 22.00240 -34.26199 789.96657
v 23.82077 -35.61562 856.53730
v 63.63781 17.78292 856.53730
v 45.79938 -12.18279 1102.14729
v 33.98206 -70.91572 1102.14729
v 35.27724 -71.17524 1162.04271
v 47.09456 -12.44232 1162.04271
v 45.79938 -12.18279 1102.14729
v 33.98206 -70.91572 1102.14729
v 35.27724 -71.17524 1162.04271
v 47.09456 -12.44232 1162.04271
v -22.45861 -34.69519 1093.00064
v 5.53082 32.10531 1093.00064
v 7.40050 31.32367 1165.39960
v -20.58893 -35.47684 1165.39960
v -22.45861 -34.69519 1093.00064
v 5.53082 32.10531 1093.00064
v 7.40050 31.32367 1165.39960
v -20.58893 -35.47684 1165.39960
v -60.39160 23.05784 910.34720
v -12.37755 2.21263 910.34720
v -12.96026 0.86752 962.67045
v -60.97430 21.71272 962.67045
v -60.39160 23.05784 910.34720
v -12.37755 2.21263 910.34720
v -12.96026 0.86752 962.67045
v -60.97430 21.71272 962.67045
v -56.13455 -27.42011 924.93528
v -40.42389 15.67742 924.93528
v -36.01269 14.07335 970.56631
v -51.72336 -29.02418 970.56631
v -56.13455 -27.42011 924.93528
v -40.42389 15.67742 924.93528
v -36.01269 14.07335 970.56631
v -51.72336 -29.02418 970.56631
v 115.29015 -25.82076 635.78054
v 66.03937 -32.72231 635.78054
v 65.15153 -26.42307 685.10398
v 114.40232 -19.52153 685.10398
v 115.29015 -25.82076 635.78054
v 66.03937 -32.72231 635.78054
v 65.15153 -26.42307 685.10398
v 114.40232 -19.52153 685.10398
v 103.60708 -74.67703 633.14543
v 98.11897 -16.67652 633.14543
v 90.51537 -17.40210 690.90214
v 96.00349 -75.40261 690.90214
v 103.60708 -74.67703 633.14543
v 98.11897 -16.67652 633.14543
v 90.51537 -17.40210 690.90214
v 96.00349 -75.40261 690.90214
v -109.63219 -28.49781 803.84184
v -44.76919 -44.42671 803.84184
v -44.28096 -42.43177 870.60051
v -109.14396 -26.50287 870.60051
v -109.63219 -28.49781 803.84184
v -44.76919 -44.42671 803.84184
v -44.28096 -42.43177 870.60051
v -109.14396 -26.50287 870.60051
v -58.52780 -31.59372 830.53488
v -117.95021 -33.89628 830.53488
v -118.16882 -28.36830 889.74399
v -58.74641 -26.06574 889.74399
v -58.52780 -31.59372 830.53488
v -117.95021 -33.89628 830.53488
v -118.16882 -28.36830 889.74399
v -58.74641 -26.06574 889.74399
v 33.80150 -48.27216 884.56049
v -16.96649 -3.18197 884.56049
v -22.93733 -9.91545 951.86222
v 27.83066 -55.00564 951.86222
v 33.80150 -48.27216 884.56049
v -16.96649 -3.18197 884.56049
v -22.93733 -9.91545 951.86222
v 27.83066 -55.00564 951.86222
v 45.69146 -57.15902 902.28074
v -13.27446 -58.46037 902.28074
v -13.34909 -55.19662 961.17060
v 45.61683 -53.89528 961.17060
v 45.69146 -57.15902 902.28074
v -13.27446 -58.46037 902.28074
v -13.34909 -55.19662 961.17060
v 45.61683 -53.89528 961.17060
v -22.82776 61.25949 786.92125
v 24.18137 113.25691 786.92125
v 29.53730 108.42254 856.64595
v -17.47183 56.42512 856.64595
v -22.82776 61.25949 786.92125
v 24.18137 113.25691 786.92125
v 29.53730 108.42254 856.64595
v -17.47183 56.42512 856.64595
v 26.78541 71.99267 755.90406
v 87.30009 77.79494 755.90406
v 87.99707 70.58629 816.26334
v 27.48238 64.78402 816.26334
v 26.78541 71.99267 755.90406
v 87.30009 77.79494 755.90406
v 87.99707 70.58629 816.26334
v 27.48238 64.78402 816.26334
vt 0.00000 1.00000
vt 1.00000 1.00000
vt 1.00000 0.00000
vt 0.00000 0.00000
vt 0.00000 1.00000
vt 1.00000 1.00000
vt 1.00000 0.00000
vt 0.00000 0.00000
vt 0.00000 1.00000
vt 1.00000 1.00000
vt 1.00000 0.00000
vt 0.00000 0.00000
vt 0.00000 1.00000
vt 1.00000 1.00000
vt 1.00000 0.00000
vt 0.00000 0.00000
vt 0.00000 1.00000
vt 1.00000 1.00000
vt 1.00000 0.00000
vt 0.00000 0.00000
vt 0.00000 1.00000
vt 1.00000 1.00000
vt 1.00000 0.00000
vt 0.00000 0.00000
vt 0.00000 1.00000
vt 1.00000 1.00000
vt 1.00000 0.00000
vt 0.00000 0.00000
vt 0.00000 1.00000
vt 1.00000 1.00000
vt 1.00000 0.00000
vt 0.00000 0.00000
vt 0.00000 1.00000
vt 1.00000 1.00000
vt 1.00000 0.00000
vt 0.00000 0.00000
vt 0.00000 1.00000
vt 1.00000 1.00000
vt 1.00000 0.00000
vt 0.00000 0.00000
vt 0.00000 1.00000
vt 1.00000 1.00000
vt 1.00000 0.00000
vt 0.00000 0.00000
vt 0.00000 1.00000
vt 1.00000 1.00000
vt 1.00000 0.00000
vt 0.00000 0.00000
vt 0.00000 1.00000
vt 1.00000 1.00000
vt 1.00000 0.00000
vt 0.00000 0.00000
vt 0.00000 1.00000
vt 1.00000 1.00000
vt 1.00000 0.00000
vt 0.00000 0.00000
vt 0.00000 1.00000
vt 1.00000 1.00000
vt 1.00000 0.00000
vt 0.00000 0.00000
vt 0.00000 1.00000
vt 1.00000 1.00000
vt 1.00000 0.00000
vt 0.00000 0.00000
vt 0.00000 1.00000
vt 1.00000 1.00000
vt 1.00000 0.00000
vt 0.00000 0.00000
vt 0.00000 1.00000
vt 1.00000 1.00000
vt 1.00000 0.00000
vt 0.00000 0.00000
vt 0.00000 1.00000
vt 1.00000 1.00000
vt 1.00000 0.00000
vt 0.00000 0.00000
vt 0.00000 1.00000
vt 1.00000 1.00000
vt 1.00000 0.00000
vt 0.00000 0.00000
vt 0.00000 1.00000
vt 1.00000 1.00000
vt 1.00000 0.00000
vt 0.00000 0.00000
vt 0.00000 1.00000
vt 1.00000 1.00000
vt 1.00000 0.00000
vt 0.00000 0.00000
vt 0.00000 1.00000
vt 1.00000 1.00000
vt 1.00000 0.00000
vt 0.00000 0.00000
vt 0.00000 1.00000
vt 1.00000 1.00000
vt 1.00000 0.00000
vt 0.00000 0.00000
vt 0.00000 1.00000
vt 1.00000 1.00000
vt 1.00000 0.00000
vt 0.00000 0.00000
vt 0.00000 1.00000
vt 1.00000 1.00000
vt 1.00000 0.00000
vt 0.00000 0.00000
vt 0.00000 1.00000
vt 1.00000 1.00000
vt 1.00000 0.00000
vt 0.00000 0.00000
vt 0.00000 1.00000
vt 1.00000 1.00000
vt 1.00000 0.00000
vt 0.00000 0.00000
vt 0.00000 1.00000
vt 1.00000 1.00000
vt 1.00000 0.00000
vt 0.00000 0.00000
vt 0.00000 1.00000
vt 1.00000 1.00000
vt 1.00000 0.00000
vt 0.00000 0.00000
vt 0.00000 1.00000
vt 1.00000 1.00000
vt 1.00000 0.00000
vt 0.00000 0.00000
vt 0.00000 1.00000
vt 1.00000 1.00000
vt 1.00000 0.00000
vt 0.00000 0.00000
vt 0.00000 1.00000
vt 1.00000 1.00000
vt 1.00000 0.00000
vt 0.00000 0.00000
vt 0.00000 1.00000
vt 1.00000 1.00000
vt 1.00000 0.00000
vt 0.00000 0.00000
vt 0.00000 1.00000
vt 1.00000 1.00000
vt 1.00000 0.00000
vt 0.00000 0.00000
vt 0.00000 1.00000
vt 1.00000 1.00000
vt 1.00000 0.00000
vt 0.00000 0.00000
vt 0.00000 1.00000
vt 1.00000 1.00000
vt 1.00000 0.00000
vt 0.00000 0.00000
vt 0.00000 1.00000
vt 1.00000 1.00000
vt 1.00000 0.00000
vt 0.00000 0.00000
vt 0.00000 1.00000
vt 1.00000 1.00000
vt 1.00000 0.00000
vt 0.00000 0.00000
vt 0.00000 1.00000
vt 1.00000 1.00000
vt 1.00000 0.00000
vt 0.00000 0.00000
vt 0.00000 1.00000
vt 1.00000 1.00000
vt 1.00000 0.00000
vt 0.00000 0.00000
vt 0.00000 1.00000
vt 1.00000 1.00000
vt 1.00000 0.00000
vt 0.00000 0.00000
vt 0.00000 1.00000
vt 1.00000 1.00000
vt 1.00000 0.00000
vt 0.00000 0.00000
vt 0.00000 1.00000
vt 1.00000 1.00000
vt 1.00000 0.00000
vt 0.00000 0.00000
vt 0.00000 1.00000
vt 1.00000 1.00000
vt 1.00000 0.00000
vt 0.00000 0.00000
vt 0.00000 1.00000
vt 1.00000 1.00000
vt 1.00000 0.00000
vt 0.00000 0.00000
vt 0.00000 1.00000
vt 1.00000 1.00000
vt 1.00000 0.00000
vt 0.00000 0.00000
vt 0.00000 1.00000
vt 1.00000 1.00000
vt 1.00000 0.00000
vt 0.00000 0.00000
vt 0.00000 1.00000
vt 1.00000 1.00000
vt 1.00000 0.00000
vt 0.00000 0.00000
vt 0.00000 1.00000
vt 1.00000 1.00000
vt 1.00000 0.00000
vt 0.00000 0.00000
vt 0.00000 1.00000
vt 1.00000 1.00000
vt 1.00000 0.00000
vt 0.00000 0.00000
vt 0.00000 1.00000
vt 1.00000 1.00000
vt 1.00000 0.00000
vt 0.00000 0.00000
vt 0.00000 1.00000
vt 1.00000 1.00000
vt 1.00000 0.00000
vt 0.00000 0.00000
vt 0.00000 1.00000
vt 1.00000 1.00000
vt 1.00000 0.00000
vt 0.00000 0.00000
vt 0.00000 1.00000
vt 1.00000 1.00000
vt 1.00000 0.00000
vt 0.00000 0.00000
vt 0.00000 1.00000
vt 1.00000 1.00000
vt 1.00000 0.00000
vt 0.00000 0.00000
vt 0.00000 1.00000
vt 1.00000 1.00000
vt 1.00000 0.00000
vt 0.00000 0.00000
vt 0.00000 1.00000
vt 1.00000 1.00000
vt 1.00000 0.00000
vt 0.00000 0.00000
vt 0.00000 1.00000
vt 1.00000 1.00000
vt 1.00000 0.00000
vt 0.00000 0.00000
vt 0.00000 1.00000
vt 1.00000 1.00000
vt 1.00000 0.00000
vt 0.00000 0.00000
vt 0.00000 1.00000
vt 1.00000 1.00000
vt 1.00000 0.00000
vt 0.00000 0.00000
vt 0.00000 1.00000
vt 1.00000 1.00000
vt 1.00000 0.00000
vt 0.00000 0.00000
vt 0.00000 1.00000
vt 1.00000 1.00000
vt 1.00000 0.00000
vt 0.00000 0.00000
vt 0.00000 1.00000
vt 1.00000 1.00000
vt 1.00000 0.00000
vt 0.00000 0.00000
vt 0.00000 1.00000
vt 1.00000 1.00000
vt 1.00000 0.00000
vt 0.00000 0.00000
vt 0.00000 1.00000
vt 1.00000 1.00000
vt 1.00000 0.00000
vt 0.00000 0.00000
vt 0.00000 1.00000
vt 1.00000 1.00000
vt 1.00000 0.00000
vt 0.00000 0.00000
vt 0.00000 1.00000
vt 1.00000 1.00000
vt 1.00000 0.00000
vt 0.00000 0.00000
vt 0.00000 1.00000
vt 1.00000 1.00000
vt 1.00000 0.00000
vt 0.00000 0.00000
vt 0.00000 1.00000
vt 1.00000 1.00000
vt 1.00000 0.00000
vt 0.00000 0.00000
vt 0.00000 1.00000
vt 1.00000 1.00000
vt 1.00000 0.00000
vt 0.00000 0.00000
vt 0.00000 1.00000
vt 1.00000 1.00000
vt 1.00000 0.00000
vt 0.00000 0.00000
vt 0.00000 1.00000
vt 1.00000 1.00000
vt 1.00000 0.00000
vt 0.00000 0.00000
vt 0.00000 1.00000
vt 1.00000 1.00000
vt 1.00000 0.00000
vt 0.00000 0.00000
vt 0.00000 1.00000
vt 1.00000 1.00000
vt 1.00000 0.00000
vt 0.00000 0.00000
vt 0.00000 1.00000
vt 1.00000 1.00000
vt 1.00000 0.00000
vt 0.00000 0.00000
vt 0.00000 1.00000
vt 1.00000 1.00000
vt 1.00000 0.00000
vt 0.00000 0.00000
vt 0.00000 1.00000
vt 1.00000 1.00000
vt 1.00000 0.00000
vt 0.00000 0.00000
vt 0.00000 1.00000
vt 1.00000 1.00000
vt 1.00000 0.00000
vt 0.00000 0.00000
vt 0.00000 1.00000
vt 1.00000 1.00000
vt 1.00000 0.00000
vt 0.00000 0.00000
vt 0.00000 1.00000
vt 1.00000 1.00000
vt 1.00000 0.00000
vt 0.00000 0.00000
vt 0.00000 1.00000
vt 1.00000 1.00000
vt 1.00000 0.00000
vt 0.00000 0.00000
vt 0.00000 1.00000
vt 1.00000 1.00000
vt 1.00000 0.00000
vt 0.00000 0.00000
vt 0.00000 1.00000
vt 1.00000 1.00000
vt 1.00000 0.00000
vt 0.00000 0.00000
vt 0.00000 1.00000
vt 1.00000 1.00000
vt 1.00000 0.00000
vt 0.00000 0.00000
vt 0.00000 1.00000
vt 1.00000 1.00000
vt 1.00000 0.00000
vt 0.00000 0.00000
vt 0.00000 1.00000
vt 1.00000 1.00000
vt 1.00000 0.00000
vt 0.00000 0.00000
vt 0.00000 1.00000
vt 1.00000 1.00000
vt 1.00000 0.00000
vt 0.00000 0.00000
vt 0.00000 1.00000
vt 1.00000 1.00000
vt 1.00000 0.00000
vt 0.00000 0.00000
vt 0.00000 1.00000
vt 1.00000 1.00000
vt 1.00000 0.00000
vt 0.00000 0.00000
vt 0.00000 1.00000
vt 1.00000 1.00000
vt 1.00000 0.00000
vt 0.00000 0.00000
vt 0.00000 1.00000
vt 1.00000 1.00000
vt 1.00000 0.00000
vt 0.00000 0.00000
vt 0.00000 1.00000
vt 1.00000 1.00000
vt 1.00000 0.00000
vt 0.00000 0.00000
vt 0.00000 1.00000
vt 1.00000 1.00000
vt 1.00000 0.00000
vt 0.00000 0.00000
vt 0.00000 1.00000
vt 1.00000 1.00000
vt 1.00000 0.00000
vt 0.00000 0.00000
vt 0.00000 1.00000
vt 1.00000 1.00000
vt 1.00000 0.00000
vt 0.00000 0.00000
vt 0.00000 1.00000
vt 1.00000 1.00000
vt 1.00000 0.00000
vt 0.00000 0.00000
vt 0.00000 1.00000
vt 1.00000 1.00000
vt 1.00000 0.00000
vt 0.00000 0.00000
vt 0.00000 1.00000
vt 1.00000 1.00000
vt 1.00000 0.00000
vt 0.00000 0.00000
vt 0.00000 1.00000
vt 1.00000 1.00000
vt 1.00000 0.00000
vt 0.00000 0.00000
vt 0.00000 1.00000
vt 1.00000 1.00000
vt 1.00000 0.00000
vt 0.00000 0.00000
vt 0.00000 1.00000
vt 1.00000 1.00000
vt 1.00000 0.00000
vt 0.00000 0.00000
vt 0.00000 1.00000
vt 1.00000 1.00000
vt 1.00000 0.00000
vt 0.00000 0.00000
vt 0.00000 1.00000
vt 1.00000 1.00000
vt 1.00000 0.00000
vt 0.00000 0.00000
vt 0.00000 1.00000
vt 1.00000 1.00000
vt 1.00000 0.00000
vt 0.00000 0.00000
vt 0.00000 1.00000
vt 1.00000 1.00000
vt 1.00000 0.00000
vt 0.00000 0.00000
vt 0.00000 1.00000
vt 1.00000 1.00000
vt 1.00000 0.00000
vt 0.00000 0.00000
vt 0.00000 1.00000
vt 1.00000 1.00000
vt 1.00000 0.00000
vt 0.00000 0.00000
vt 0.00000 1.00000
vt 1.00000 1.00000
vt 1.00000 0.00000
vt 0.00000 0.00000
vt 0.00000 1.00000
vt 1.00000 1.00000
vt 1.00000 0.00000
vt 0.00000 0.00000
vt 0.00000 1.00000
vt 1.00000 1.00000
vt 1.00000 0.00000
vt 0.00000 0.00000
vt 0.00000 1.00000
vt 1.00000 1.00000
vt 1.00000 0.00000
vt 0.00000 0.00000
vt 0.00000 1.00000
vt 1.00000 1.00000
vt 1.00000 0.00000
vt 0.00000 0.00000
vt 0.00000 1.00000
vt 1.00000 1.00000
vt 1.00000 0.00000
vt 0.00000 0.00000
vt 0.00000 1.00000
vt 1.00000 1.00000
vt 1.00000 0.00000
vt 0.00000 0.00000
vt 0.00000 1.00000
vt 1.00000 1.00000
vt 1.00000 0.00000
vt 0.00000 0.00000
vt 0.00000 1.00000
vt 1.00000 1.00000
vt 1.00000 0.00000
vt 0.00000 0.00000
vt 0.00000 1.00000
vt 1.00000 1.00000
vt 1.00000 0.00000
vt 0.00000 0.00000
vt 0.00000 1.00000
vt 1.00000 1.00000
vt 1.00000 0.00000
vt 0.00000 0.00000
vt 0.00000 1.00000
vt 1.00000 1.00000
vt 1.00000 0.00000
vt 0.00000 0.00000
vt 0.00000 1.00000
vt 1.00000 1.00000
vt 1.00000 0.00000
vt 0.00000 0.00000
vt 0.00000 1.00000
vt 1.00000 1.00000
vt 1.00000 0.00000
vt 0.00000 0.00000
vt 0.00000 1.00000
vt 1.00000 1.00000
vt 1.00000 0.00000
vt 0.00000 0.00000
vt 0.00000 1.00000
vt 1.00000 1.00000
vt 1.00000 0.00000
vt 0.00000 0.00000
vt 0.00000 1.00000
vt 1.00000 1.00000
vt 1.00000 0.00000
vt 0.00000 0.00000
vt 0.00000 1.00000
vt 1.00000 1.00000
vt 1.00000 0.00000
vt 0.00000 0.00000
vt 0.00000 1.00000
vt 1.00000 1.00000
vt 1.00000 0.00000
vt 0.00000 0.00000
vt 0.00000 1.00000
vt 1.00000 1.00000
vt 1.00000 0.00000
vt 0.00000 0.00000
vt 0.00000 1.00000
vt 1.00000 1.00000
vt 1.00000 0.00000
vt 0.00000 0.00000
vt 0.00000 1.00000
vt 1.00000 1.00000
vt 1.00000 0.00000
vt 0.00000 0.00000
vt 0.00000 1.00000
vt 1.00000 1.00000
vt 1.00000 0.00000
vt 0.00000 0.00000
vt 0.00000 1.00000
vt 1.00000 1.00000
vt 1.00000 0.00000
vt 0.00000 0.00000
vt 0.00000 1.00000
vt 1.00000 1.00000
vt 1.00000 0.00000
vt 0.00000 0.00000
vt 0.00000 1.00000
vt 1.00000 1.00000
vt 1.00000 0.00000
vt 0.00000 0.00000
vt 0.00000 1.00000
vt 1.00000 1.00000
vt 1.00000 0.00000
vt 0.00000 0.00000
vt 0.00000 1.00000
vt 1.00000 1.00000
vt 1.00000 0.00000
vt 0.00000 0.00000
vt 0.00000 1.00000
vt 1.00000 1.00000
vt 1.00000 0.00000
vt 0.00000 0.00000
vt 0.00000 1.00000
vt 1.00000 1.00000
vt 1.00000 0.00000
vt 0.00000 0.00000
vt 0.00000 1.00000
vt 1.00000 1.00000
vt 1.00000 0.00000
vt 0.00000 0.00000
vt 0.00000 1.00000
vt 1.00000 1.00000
vt 1.00000 0.00000
vt 0.00000 0.00000
vt 0.00000 1.00000
vt 1.00000 1.00000
vt 1.00000 0.00000
vt 0.00000 0.00000
vt 0.00000 1.00000
vt 1.00000 1.00000
vt 1.00000 0.00000
vt 0.00000 0.00000
vt 0.00000 1.00000
vt 1.00000 1.00000
vt 1.00000 0.00000
vt 0.00000 0.00000
vt 0.00000 1.00000
vt 1.00000 1.00000
vt 1.00000 0.00000
vt 0.00000 0.00000
vt 0.00000 1.00000
vt 1.00000 1.00000
vt 1.00000 0.00000
vt 0.00000 0.00000
vt 0.00000 1.00000
vt 1.00000 1.00000
vt 1.00000 0.00000
vt 0.00000 0.00000
vt 0.00000 1.00000
vt 1.00000 1.00000
vt 1.00000 0.00000
vt 0.00000 0.00000
vt 0.00000 1.00000
vt 1.00000 1.00000
vt 1.00000 0.00000
vt 0.00000 0.00000
vt 0.00000 1.00000
vt 1.00000 1.00000
vt 1.00000 0.00000
vt 0.00000 0.00000
vt 0.00000 1.00000
vt 1.00000 1.00000
vt 1.00000 0.00000
vt 0.00000 0.00000
vt 0.00000 1.00000
vt 1.00000 1.00000
vt 1.00000 0.00000
vt 0.00000 0.00000
vt 0.00000 1.00000
vt 1.00000 1.00000
vt 1.00000 0.00000
vt 0.00000 0.00000
vt 0.00000 1.00000
vt 1.00000 1.00000
vt 1.00000 0.00000
vt 0.00000 0.00000
vt 0.00000 1.00000
vt 1.00000 1.00000
vt 1.00000 0.00000
vt 0.00000 0.00000
vt 0.00000 1.00000
vt 1.00000 1.00000
vt 1.00000 0.00000
vt 0.00000 0.00000
vt 0.00000 1.00000
vt 1.00000 1.00000
vt 1.00000 0.00000
vt 0.00000 0.00000
vt 0.00000 1.00000
vt 1.00000 1.00000
vt 1.00000 0.00000
vt 0.00000 0.00000
vt 0.00000 1.00000
vt 1.00000 1.00000
vt 1.00000 0.00000
vt 0.00000 0.00000
vt 0.00000 1.00000
vt 1.00000 1.00000
vt 1.00000 0.00000
vt 0.00000 0.00000
vt 0.00000 1.00000
vt 1.00000 1.00000
vt 1.00000 0.00000
vt 0.00000 0.00000
vt 0.00000 1.00000
vt 1.00000 1.00000
vt 1.00000 0.00000
vt 0.00000 0.00000
vt 0.00000 1.00000
vt 1.00000 1.00000
vt 1.00000 0.00000
vt 0.00000 0.00000
vt 0.00000 1.00000
vt 1.00000 1.00000
vt 1.00000 0.00000
vt 0.00000 0.00000
vt 0.00000 1.00000
vt 1.00000 1.00000
vt 1.00000 0.00000
vt 0.00000 0.00000
vt 0.00000 1.00000
vt 1.00000 1.00000
vt 1.00000 0.00000
vt 0.00000 0.00000
vt 0.00000 1.00000
vt 1.00000 1.00000
vt 1.00000 0.00000
vt 0.00000 0.00000
vt 0.00000 1.00000
vt 1.00000 1.00000
vt 1.00000 0.00000
vt 0.00000 0.00000
vt 0.00000 1.00000
vt 1.00000 1.00000
vt 1.00000 0.00000
vt 0.00000 0.00000
vt 0.00000 1.00000
vt 1.00000 1.00000
vt 1.00000 0.00000
vt 0.00000 0.00000
vt 0.00000 1.00000
vt 1.00000 1.00000
vt 1.00000 0.00000
vt 0.00000 0.00000
vt 0.00000 1.00000
vt 1.00000 1.00000
vt 1.00000 0.00000
vt 0.00000 0.00000
vt 0.00000 1.00000
vt 1.00000 1.00000
vt 1.00000 0.00000
vt 0.00000 0.00000
vt 0.00000 1.00000
vt 1.00000 1.00000
vt 1.00000 0.00000
vt 0.00000 0.00000
vt 0.00000 1.00000
vt 1.00000 1.00000
vt 1.00000 0.00000
vt 0.00000 0.00000
vt 0.00000 1.00000
vt 1.00000 1.00000
vt 1.00000 0.00000
vt 0.00000 0.00000
vt 0.00000 1.00000
vt 1.00000 1.00000
vt 1.00000 0.00000
vt 0.00000 0.00000
vt 0.00000 1.00000
vt 1.00000 1.00000
vt 1.00000 0.00000
vt 0.00000 0.00000
vt 0.00000 1.00000
vt 1.00000 1.00000
vt 1.00000 0.00000
vt 0.00000 0.00000
vt 0.00000 1.00000
vt 1.00000 1.00000
vt 1.00000 0.00000
vt 0.00000 0.00000
vt 0.00000 1.00000
vt 1.00000 1.00000
vt 1.00000 0.00000
vt 0.00000 0.00000
vt 0.00000 1.00000
vt 1.00000 1.00000
vt 1.00000 0.00000
vt 0.00000 0.00000
vt 0.00000 1.00000
vt 1.00000 1.00000
vt 1.00000 0.00000
vt 0.00000 0.00000
vt 0.00000 1.00000
vt 1.00000 1.00000
vt 1.00000 0.00000
vt 0.00000 0.00000
vt 0.00000 1.00000
vt 1.00000 1.00000
vt 1.00000 0.00000
vt 0.00000 0.00000
vt 0.00000 1.00000
vt 1.00000 1.00000
vt 1.00000 0.00000
vt 0.00000 0.00000
vt 0.00000 1.00000
vt 1.00000 1.00000
vt 1.00000 0.00000
vt 0.00000 0.00000
vt 0.00000 1.00000
vt 1.00000 1.00000
vt 1.00000 0.00000
vt 0.00000 0.00000
vt 0.00000 1.00000
vt 1.00000 1.00000
vt 1.00000 0.00000
vt 0.00000 0.00000
vt 0.00000 1.00000
vt 1.00000 1.00000
vt 1.00000 0.00000
vt 0.00000 0.00000
vt 0.00000 1.00000
vt 1.00000 1.00000
vt 1.00000 0.00000
vt 0.00000 0.00000
vt 0.00000 1.00000
vt 1.00000 1.00000
vt 1.00000 0.00000
vt 0.00000 0.00000
vt 0.00000 1.00000
vt 1.00000 1.00000
vt 1.00000 0.00000
vt 0.00000 0.00000
vt 0.00000 1.00000
vt 1.00000 1.00000
vt 1.00000 0.00000
vt 0.00000 0.00000
vt 0.00000 1.00000
vt 1.00000 1.00000
vt 1.00000 0.00000
vt 0.00000 0.00000
vt 0.00000 1.00000
vt 1.00000 1.00000
vt 1.00000 0.00000
vt 0.00000 0.00000
vt 0.00000 1.00000
vt 1.00000 1.00000
vt 1.00000 0.00000
vt 0.00000 0.00000
vt 0.00000 1.00000
vt 1.00000 1.00000
vt 1.00000 0.00000
vt 0.00000 0.00000
vt 0.00000 1.00000
vt 1.00000 1.00000
vt 1.00000 0.00000
vt 0.00000 0.00000
vt 0.00000 1.00000
vt 1.00000 1.00000
vt 1.00000 0.00000
vt 0.00000 0.00000
vt 0.00000 1.00000
vt 1.00000 1.00000
vt 1.00000 0.00000
vt 0.00000 0.00000
vt 0.00000 1.00000
vt 1.00000 1.00000
vt 1.00000 0.00000
vt 0.00000 0.00000
vt 0.00000 1.00000
vt 1.00000 1.00000
vt 1.00000 0.00000
vt 0.00000 0.00000
vt 0.00000 1.00000
vt 1.00000 1.00000
vt 1.00000 0.00000
vt 0.00000 0.00000
vt 0.00000 1.00000
vt 1.00000 1.00000
vt 1.00000 0.00000
vt 0.00000 0.00000
vt 0.00000 1.00000
vt 1.00000 1.00000
vt 1.00000 0.00000
vt 0.00000 0.00000
vt 0.00000 1.00000
vt 1.00000 1.00000
vt 1.00000 0.00000
vt 0.00000 0.00000
vt 0.00000 1.00000
vt 1.00000 1.00000
vt 1.00000 0.00000
vt 0.00000 0.00000
vt 0.00000 1.00000
vt 1.00000 1.00000
vt 1.00000 0.00000
vt 0.00000 0.00000
vt 0.00000 1.00000
vt 1.00000 1.00000
vt 1.00000 0.00000
vt 0.00000 0.00000
vt 0.00000 1.00000
vt 1.00000 1.00000
vt 1.00000 0.00000
vt 0.00000 0.00000
vt 0.00000 1.00000
vt 1.00000 1.00000
vt 1.00000 0.00000
vt 0.00000 0.00000
vt 0.00000 1.00000
vt 1.00000 1.00000
vt 1.00000 0.00000
vt 0.00000 0.00000
vt 0.00000 1.00000
vt 1.00000 1.00000
vt 1.00000 0.00000
vt 0.00000 0.00000
vt 0.00000 1.00000
vt 1.00000 1.00000
vt 1.00000 0.00000
vt 0.00000 0.00000
vt 0.00000 1.00000
vt 1.00000 1.00000
vt 1.00000 0.00000
vt 0.00000 0.00000
vt 0.00000 1.00000
vt 1.00000 1.00000
vt 1.00000 0.00000
vt 0.00000 0.00000
vt 0.00000 1.00000
vt 1.00000 1.00000
vt 1.00000 0.00000
vt 0.00000 0.00000
vt 0.00000 1.00000
vt 1.00000 1.00000
vt 1.00000 0.00000
vt 0.00000 0.00000
vt 0.00000 1.00000
vt 1.00000 1.00000
vt 1.00000 0.00000
vt 0.00000 0.00000
vt 0.00000 1.00000
vt 1.00000 1.00000
vt 1.00000 0.00000
vt 0.00000 0.00000
vt 0.00000 1.00000
vt 1.00000 1.00000
vt 1.00000 0.00000
vt 0.00000 0.00000
vt 0.00000 1.00000
vt 1.00000 1.00000
vt 1.00000 0.00000
vt 0.00000 0.00000
vt 0.00000 1.00000
vt 1.00000 1.00000
vt 1.00000 0.00000
vt 0.00000 0.00000
vt 0.00000 1.00000
vt 1.00000 1.00000
vt 1.00000 0.00000
vt 0.00000 0.00000
vt 0.00000 1.00000
vt 1.00000 1.00000
vt 1.00000 0.00000
vt 0.00000 0.00000
vt 0.00000 1.00000
vt 1.00000 1.00000
vt 1.00000 0.00000
vt 0.00000 0.00000
vt 0.00000 1.00000
vt 1.00000 1.00000
vt 1.00000 0.00000
vt 0.00000 0.00000
vt 0.00000 1.00000
vt 1.00000 1.00000
vt 1.00000 0.00000
vt 0.00000 0.00000
vt 0.00000 1.00000
vt 1.00000 1.00000
vt 1.00000 0.00000
vt 0.00000 0.00000
vt 0.00000 1.00000
vt 1.00000 1.00000
vt 1.00000 0.00000
vt 0.00000 0.00000
vt 0.00000 1.00000
vt 1.00000 1.00000
vt 1.00000 0.00000
vt 0.00000 0.00000
vt 0.00000 1.00000
vt 1.00000 1.00000
vt 1.00000 0.00000
vt 0.00000 0.00000
vt 0.00000 1.00000
vt 1.00000 1.00000
vt 1.00000 0.00000
vt 0.00000 0.00000
vt 0.00000 1.00000
vt 1.00000 1.00000
vt 1.00000 0.00000
vt 0.00000 0.00000
vt 0.00000 1.00000
vt 1.00000 1.00000
vt 1.00000 0.00000
vt 0.00000 0.00000
vt 0.00000 1.00000
vt 1.00000 1.00000
vt 1.00000 0.00000
vt 0.00000 0.00000
vt 0.00000 1.00000
vt 1.00000 1.00000
vt 1.00000 0.00000
vt 0.00000 0.00000
vt 0.00000 1.00000
vt 1.00000 1.00000
vt 1.00000 0.00000
vt 0.00000 0.00000
vt 0.00000 1.00000
vt 1.00000 1.00000
vt 1.00000 0.00000
vt 0.00000 0.00000
vt 0.00000 1.00000
vt 1.00000 1.00000
vt 1.00000 0.00000
vt 0.00000 0.00000
vt 0.00000 1.00000
vt 1.00000 1.00000
vt 1.00000 0.00000
vt 0.00000 0.00000
vt 0.00000 1.00000
vt 1.00000 1.00000
vt 1.00000 0.00000
vt 0.00000 0.00000
vt 0.00000 1.00000
vt 1.00000 1.00000
vt 1.00000 0.00000
vt 0.00000 0.00000
vt 0.00000 1.00000
vt 1.00000 1.00000
vt 1.00000 0.00000
vt 0.00000 0.00000
vt 0.00000 1.00000
vt 1.00000 1.00000
vt 1.00000 0.00000
vt 0.00000 0.00000
vt 0.00000 1.00000
vt 1.00000 1.00000
vt 1.00000 0.00000
vt 0.00000 0.00000
vt 0.00000 1.00000
vt 1.00000 1.00000
vt 1.00000 0.00000
vt 0.00000 0.00000
vt 0.00000 1.00000
vt 1.00000 1.00000
vt 1.00000 0.00000
vt 0.00000 0.00000
vt 0.00000 1.00000
vt 1.00000 1.00000
vt 1.00000 0.00000
vt 0.00000 0.00000
vt 0.00000 1.00000
vt 1.00000 1.00000
vt 1.00000 0.00000
vt 0.00000 0.00000
vt 0.00000 1.00000
vt 1.00000 1.00000
vt 1.00000 0.00000
vt 0.00000 0.00000
vt 0.00000 1.00000
vt 1.00000 1.00000
vt 1.00000 0.00000
vt 0.00000 0.00000
vt 0.00000 1.00000
vt 1.00000 1.00000
vt 1.00000 0.00000
vt 0.00000 0.00000
vt 0.00000 1.00000
vt 1.00000 1.00000
vt 1.00000 0.00000
vt 0.00000 0.00000
vt 0.00000 1.00000
vt 1.00000 1.00000
vt 1.00000 0.00000
vt 0.00000 0.00000
vt 0.00000 1.00000
vt 1.00000 1.00000
vt 1.00000 0.00000
vt 0.00000 0.00000
vt 0.00000 1.00000
vt 1.00000 1.00000
vt 1.00000 0.00000
vt 0.00000 0.00000
vt 0.00000 1.00000
vt 1.00000 1.00000
vt 1.00000 0.00000
vt 0.00000 0.00000
vt 0.00000 1.00000
vt 1.00000 1.00000
vt 1.00000 0.00000
vt 0.00000 0.00000
vt 0.00000 1.00000
vt 1.00000 1.00000
vt 1.00000 0.00000
vt 0.00000 0.00000
vt 0.00000 1.00000
vt 1.00000 1.00000
vt 1.00000 0.00000
vt 0.00000 0.00000
vt 0.00000 1.00000
vt 1.00000 1.00000
vt 1.00000 0.00000
vt 0.00000 0.00000
vt 0.00000 1.00000
vt 1.00000 1.00000
vt 1.00000 0.00000
vt 0.00000 0.00000
vt 0.00000 1.00000
vt 1.00000 1.00000
vt 1.00000 0.00000
vt 0.00000 0.00000
vt 0.00000 1.00000
vt 1.00000 1.00000
vt 1.00000 0.00000
vt 0.00000 0.00000
vt 0.00000 1.00000
vt 1.00000 1.00000
vt 1.00000 0.00000
vt 0.00000 0.00000
vt 0.00000 1.00000
vt 1.00000 1.00000
vt 1.00000 0.00000
vt 0.00000 0.00000
vt 0.00000 1.00000
vt 1.00000 1.00000
vt 1.00000 0.00000
vt 0.00000 0.00000
vt 0.00000 1.00000
vt 1.00000 1.00000
vt 1.00000 0.00000
vt 0.00000 0.00000
vt 0.00000 1.00000
vt 1.00000 1.00000
vt 1.00000 0.00000
vt 0.00000 0.00000
vt 0.00000 1.00000
vt 1.00000 1.00000
vt 1.00000 0.00000
vt 0.00000 0.00000
vt 0.00000 1.00000
vt 1.00000 1.00000
vt 1.00000 0.00000
vt 0.00000 0.00000
vt 0.00000 1.00000
vt 1.00000 1.00000
vt 1.00000 0.00000
vt 0.00000 0.00000
vt 0.00000 1.00000
vt 1.00000 1.00000
vt 1.00000 0.00000
vt 0.00000 0.00000
vt 0.00000 1.00000
vt 1.00000 1.00000
vt 1.00000 0.00000
vt 0.00000 0.00000
vt 0.00000 1.00000
vt 1.00000 1.00000
vt 1.00000 0.00000
vt 0.00000 0.00000
vn 0.7388 -0.6737 -0.0163
vn -0.7388 0.6737 0.0163
vn -0.8155 -0.5709 0.0945
vn 0.8155 0.5709 -0.0945
vn -0.1799 -0.9769 0.1154
vn 0.1799 0.9769 -0.1154
vn -0.6418 0.7511 -0.1545
vn 0.6418 -0.7511 0.1545
vn -0.7416 -0.6527 0.1549
vn 0.7416 0.6527 -0.1549
vn 0.8841 0.4673 -0.0074
vn -0.8841 -0.4673 0.0074
vn 0.5650 0.8238 -0.0460
vn -0.5650 -0.8238 0.0460
vn 0.8909 -0.4357 0.1281
vn -0.8909 0.4357 -0.1281
vn -0.0499 -0.9971 -0.0580
vn 0.0499 0.9971 0.0580
vn 0.9856 -0.1692 -0.0065
vn -0.9856 0.1692 0.0065
vn 0.9306 0.3628 0.0489
vn -0.9306 -0.3628 -0.0489
vn 0.8130 -0.5749 0.0922
vn -0.8130 0.5749 -0.0922
vn -0.8105 0.5692 -0.1384
vn 0.8105 -0.5692 0.1384
vn -0.2299 0.9731 -0.0165
vn 0.2299 -0.9731 0.0165
vn -0.9946 -0.0370 0.0974
vn 0.9946 0.0370 -0.0974
vn -0.7734 0.6282 0.0853
vn 0.7734 -0.6282 -0.0853
vn -0.7581 0.6521 -0.0127
vn 0.7581 -0.6521 0.0127
vn -0.9317 -0.3300 0.1515
vn 0.9317 0.3300 -0.1515
vn 0.2242 0.9701 -0.0928
vn -0.2242 -0.9701 0.0928
vn 0.9279 -0.3721 -0.0236
vn -0.9279 0.3721 0.0236
vn -0.9727 -0.2170 -0.0821
vn 0.9727 0.2170 0.0821
vn -0.9404 0.3102 0.1398
vn 0.9404 -0.3102 -0.1398
vn 0.3201 -0.9414 -0.1063
vn -0.3201 0.9414 0.1063
vn -0.3072 -0.9516 0.0080
vn 0.3072 0.9516 -0.0080
vn -0.4883 0.8653 0.1131
vn 0.4883 -0.8653 -0.1131
vn -0.1081 -0.9859 -0.1280
vn 0.1081 0.9859 0.1280
vn 0.5673 0.8125 0.1345
vn -0.5673 -0.8125 -0.1345
vn -0.7982 -0.6014 0.0337
vn 0.7982 0.6014 -0.0337
vn 0.1822 0.9696 0.1634
vn -0.1822 -0.9696 -0.1634
vn 0.8406 0.5193 0.1540
vn -0.8406 -0.5193 -0.1540
vn -0.8992 0.4104 0.1516
vn 0.8992 -0.4104 -0.1516
vn -0.6305 0.7703 -0.0957
vn 0.6305 -0.7703 0.0957
vn 0.5000 0.8517 0.1568
vn -0.5000 -0.8517 -0.1568
vn 0.9676 0.1865 0.1704
vn -0.9676 -0.1865 -0.1704
vn 0.8105 -0.5700 -0.1348
vn -0.8105 0.5700 0.1348
vn 0.9790 -0.1087 0.1724
vn -0.9790 0.1087 -0.1724
vn -0.2552 0.9526 -0.1655
vn 0.2552 -0.9526 0.1655
vn -0.3910 -0.9135 0.1123
vn 0.3910 0.9135 -0.1123
vn -0.9153 0.3802 0.1330
vn 0.9153 -0.3802 -0.1330
vn 0.3834 -0.9142 -0.1315
vn -0.3834 0.9142 0.1315
vn 0.4521 0.8785 -0.1543
vn -0.4521 -0.8785 0.1543
vn -0.9737 0.1645 0.1579
vn 0.9737 -0.1645 -0.1579
vn -0.6614 -0.7373 0.1374
vn 0.6614 0.7373 -0.1374
vn 0.8322 0.5330 -0.1529
vn -0.8322 -0.5330 0.1529
vn 0.8986 0.4382 0.0229
vn -0.8986 -0.4382 -0.0229
vn -0.4729 -0.8680 0.1516
vn 0.4729 0.8680 -0.1516
vn 0.4992 -0.8656 -0.0396
vn -0.4992 0.8656 0.0396
vn -0.2747 -0.9475 -0.1634
vn 0.2747 0.9475 0.1634
vn 0.9915 0.1194 -0.0513
vn -0.9915 -0.1194 0.0513
vn -0.3294 0.9285 0.1713
vn 0.3294 -0.9285 -0.1713
vn 0.4055 -0.9015 0.1516
vn -0.4055 0.9015 -0.1516
vn -0.3856 0.9213 -0.0502
vn 0.3856 -0.9213 0.0502
vn 0.9822 0.0394 0.1839
vn -0.9822 -0.0394 -0.1839
vn 0.1252 -0.9836 0.1295
vn -0.1252 0.9836 -0.1295
vn -0.4943 -0.8665 -0.0698
vn 0.4943 0.8665 0.0698
vn 0.4876 0.8573 0.1655
vn -0.4876 -0.8573 -0.1655
vn -0.9909 0.1329 0.0209
vn 0.9909 -0.1329 -0.0209
vn 0.4838 0.8719 0.0760
vn -0.4838 -0.8719 -0.0760
vn -0.7762 -0.6190 0.1198
vn 0.7762 0.6190 -0.1198
vn 0.9314 -0.3596 -0.0557
vn -0.9314 0.3596 0.0557
vn -0.4485 -0.8932 0.0313
vn 0.4485 0.8932 -0.0313
vn -0.7063 -0.6991 0.1111
vn 0.7063 0.6991 -0.1111
vn -0.0927 0.9855 -0.1421
vn 0.0927 -0.9855 0.1421
vn -0.1266 -0.9785 -0.1629
vn 0.1266 0.9785 0.1629
vn -0.8852 -0.4652 -0.0002
vn 0.8852 0.4652 0.0002
vn -0.0436 0.9918 0.1201
vn 0.0436 -0.9918 -0.1201
vn 0.9613 0.2495 -0.1165
vn -0.9613 -0.2495 0.1165
vn 0.9242 0.3750 0.0726
vn -0.9242 -0.3750 -0.0726
vn -0.1699 0.9762 0.1348
vn 0.1699 -0.9762 -0.1348
vn 0.9959 -0.0413 0.0810
vn -0.9959 0.0413 -0.0810
vn 0.9788 0.2029 -0.0270
vn -0.9788 -0.2029 0.0270
vn 0.1539 -0.9765 0.1507
vn -0.1539 0.9765 -0.1507
vn -0.8646 -0.4968 0.0751
vn 0.8646 0.4968 -0.0751
vn -0.7622 -0.6453 -0.0523
vn 0.7622 0.6453 0.0523
vn 0.7469 0.6446 0.1632
vn -0.7469 -0.6446 -0.1632
vn 0.4221 -0.9055 0.0431
vn -0.4221 0.9055 -0.0431
vn -0.9820 -0.0866 -0.1677
vn 0.9820 0.0866 0.1677
vn -0.5433 -0.8230 0.1659
vn 0.5433 0.8230 -0.1659
vn 0.5154 -0.8394 -0.1726
vn -0.5154 0.8394 0.1726
vn -0.9530 0.2827 0.1087
vn 0.9530 -0.2827 -0.1087
vn 0.9599 0.2471 -0.1324
vn -0.9599 -0.2471 0.1324
vn -0.9881 -0.1459 -0.0484
vn 0.9881 0.1459 0.0484
vn 0.5348 -0.8415 -0.0765
vn -0.5348 0.8415 0.0765
vn 0.7592 0.6291 0.1671
vn -0.7592 -0.6291 -0.1671
vn -0.4962 -0.8502 0.1758
vn 0.4962 0.8502 -0.1758
vn 0.3359 0.9418 -0.0124
vn -0.3359 -0.9418 0.0124
vn -0.7379 -0.6632 0.1249
vn 0.7379 0.6632 -0.1249
vn 0.4885 -0.8711 -0.0497
vn -0.4885 0.8711 0.0497
vn 0.9641 0.2601 -0.0541
vn -0.9641 -0.2601 0.0541
vn 0.0680 0.9910 0.1155
vn -0.0680 -0.9910 -0.1155
vn -0.2963 -0.9549 0.0181
vn 0.2963 0.9549 -0.0181
vn -0.6659 -0.7429 -0.0686
vn 0.6659 0.7429 0.0686
vn -0.9589 0.2839 -0.0009
vn 0.9589 -0.2839 0.0009
vn 0.8560 0.4890 0.1678
vn -0.8560 -0.4890 -0.1678
vn -0.9553 0.2954 0.0155
vn 0.9553 -0.2954 -0.0155
vn 0.9673 0.2443 0.0679
vn -0.9673 -0.2443 -0.0679
vn 0.7690 -0.6192 0.1590
vn -0.7690 0.6192 -0.1590
vn 0.1447 -0.9865 0.0771
vn -0.1447 0.9865 -0.0771
vn -0.7304 -0.6681 -0.1421
vn 0.7304 0.6681 0.1421
vn 0.4702 -0.8667 -0.1665
vn -0.4702 0.8667 0.1665
vn -0.7798 0.6233 -0.0591
vn 0.7798 -0.6233 0.0591
vn 0.9898 -0.0774 -0.1195
vn -0.9898 0.0774 0.1195
vn 0.3024 -0.9511 -0.0622
vn -0.3024 0.9511 0.0622
vn -0.1176 -0.9931 -0.0008
vn 0.1176 0.9931 0.0008
vn 0.4242 0.8920 -0.1563
vn -0.4242 -0.8920 0.1563
vn -0.7286 -0.6850 -0.0049
vn 0.7286 0.6850 0.0049
vn -0.8475 -0.5172 0.1191
vn 0.8475 0.5172 -0.1191
vn 0.4572 0.8856 0.0818
vn -0.4572 -0.8856 -0.0818
vn -0.0543 -0.9944 0.0908
vn 0.0543 0.9944 -0.0908
vn 0.8122 -0.5800 -0.0631
vn -0.8122 0.5800 0.0631
vn -0.0992 0.9926 0.0705
vn 0.0992 -0.9926 -0.0705
vn 0.5272 -0.8382 -0.1396
vn -0.5272 0.8382 0.1396
vn -0.5129 -0.8453 0.1500
vn 0.5129 0.8453 -0.1500
vn 0.4609 0.8742 -0.1529
vn -0.4609 -0.8742 0.1529
vn -0.7820 -0.6198 0.0656
vn 0.7820 0.6198 -0.0656
vn 0.2309 -0.9652 0.1227
vn -0.2309 0.9652 -0.1227
vn 0.1250 -0.9911 -0.0449
vn -0.1250 0.9911 0.0449
vn 0.3155 -0.9400 0.1303
vn -0.3155 0.9400 -0.1303
vn -0.5318 -0.8410 -0.0997
vn 0.5318 0.8410 0.0997
vn 0.9890 -0.1275 -0.0749
vn -0.9890 0.1275 0.0749
vn -0.5436 -0.8285 -0.1348
vn 0.5436 0.8285 0.1348
vn 0.0040 0.9916 -0.1289
vn -0.0040 -0.9916 0.1289
vn 0.9518 -0.2451 -0.1845
vn -0.9518 0.2451 0.1845
vn -0.5497 0.8337 0.0524
vn 0.5497 -0.8337 -0.0524
vn -0.4209 0.8914 0.1679
vn 0.4209 -0.8914 -0.1679
vn 0.8012 -0.5974 -0.0340
vn -0.8012 0.5974 0.0340
vn 0.9801 -0.1972 -0.0220
vn -0.9801 0.1972 0.0220
vn -0.9219 0.3863 0.0280
vn 0.9219 -0.3863 -0.0280
vn 0.3981 0.9169 0.0280
vn -0.3981 -0.9169 -0.0280
vn -0.9346 0.3407 0.1023
vn 0.9346 -0.3407 -0.1023
vn 0.1376 -0.9822 0.1279
vn -0.1376 0.9822 -0.1279
vn -0.9870 -0.0934 -0.1311
vn 0.9870 0.0934 0.1311
vn 0.2384 0.9707 -0.0308
vn -0.2384 -0.9707 0.0308
vn 0.0386 -0.9949 0.0930
vn -0.0386 0.9949 -0.0930
vn -0.6582 -0.7411 -0.1325
vn 0.6582 0.7411 0.1325
vn 0.0220 -0.9982 0.0554
vn -0.0220 0.9982 -0.0554
vn -0.7379 0.6671 0.1029
vn 0.7379 -0.6671 -0.1029
vn -0.0948 0.9883 0.1191
vn 0.0948 -0.9883 -0.1191
f 1/1/1 3/3/1 2/2/1
f 1/1/1 4/4/1 3/3/1
f 5/5/2 7/7/2 8/8/2
f 5/5/2 6/6/2 7/7/2
f 9/9/3 11/11/3 10/10/3
f 9/9/3 12/12/3 11/11/3
f 13/13/4 15/15/4 16/16/4
f 13/13/4 14/14/4 15/15/4
f 17/17/5 19/19/5 18/18/5
f 17/17/5 20/20/5 19/19/5
f 21/21/6 23/23/6 24/24/6
f 21/21/6 22/22/6 23/23/6
f 25/25/7 27/27/7 26/26/7
f 25/25/7 28/28/7 27/27/7
f 29/29/8 31/31/8 32/32/8
f 29/29/8 30/30/8 31/31/8
f 33/33/9 35/35/9 34/34/9
f 33/33/9 36/36/9 35/35/9
f 37/37/10 39/39/10 40/40/10
f 37/37/10 38/38/10 39/39/10
f 41/41/11 43/43/11 42/42/11
f 41/41/11 44/44/11 43/43/11
f 45/45/12 47/47/12 48/48/12
f 45/45/12 46/46/12 47/47/12
f 49/49/13 51/51/13 50/50/13
f 49/49/13 52/52/13 51/51/13
f 53/53/14 55/55/14 56/56/14
f 53/53/14 54/54/14 55/55/14
f 57/57/15 59/59/15 58/58/15
f 57/57/15 60/60/15 59/59/15
f 61/61/16 63/63/16 64/64/16
f 61/61/16 62/62/16 63/63/16
f 65/65/17 67/67/17 66/66/17
f 65/65/17 68/68/17 67/67/17
f 69/69/18 71/71/18 72/72/18
f 69/69/18 70/70/18 71/71/18
f 73/73/19 75/75/19 74/74/19
f 73/73/19 76/76/19 75/75/19
f 77/77/20 79/79/20 80/80/20
f 77/77/20 78/78/20 79/79/20
f 81/81/21 83/83/21 82/82/21
f 81/81/21 84/84/21 83/83/21
f 85/85/22 87/87/22 88/88/22
f 85/85/22 86/86/22 87/87/22
f 89/89/23 91/91/23 90/90/23
f 89/89/23 92/92/23 91/91/23
f 93/93/24 95/95/24 96/96/24
f 93/93/24 94/94/24 95/95/24
f 97/97/25 99/99/25 98/98/25
f 97/97/25 100/100/25 99/99/25
f 101/101/26 103/103/26 104/104/26
f 101/101/26 102/102/26 103/103/26
f 105/105/27 107/107/27 106/106/27
f 105/105/27 108/108/27 107/107/27
f 109/109/28 111/111/28 112/112/28
f 109/109/28 110/110/28 111/111/28
f 113/113/29 115/115/29 114/114/29
f 113/113/29 116/116/29 115/115/29
f 117/117/30 119/119/30 120/120/30
f 117/117/30 118/118/30 119/119/30
f 121/121/31 123/123/31 122/122/31
f 121/121/31 124/124/31 123/123/31
f 125/125/32 127/127/32 128/128/32
f 125/125/32 126/126/32 127/127/32
f 129/129/33 131/131/33 130/130/33
f 129/129/33 132/132/33 131/131/33
f 133/133/34 135/135/34 136/136/34
f 133/133/34 134/134/34 135/135/34
f 137/137/35 139/139/35 138/138/35
f 137/137/35 140/140/35 139/139/35
f 141/141/36 143/143/36 144/144/36
f 141/141/36 142/142/36 143/143/36
f 145/145/37 147/147/37 146/146/37
f 145/145/37 148/148/37 147/147/37
f 149/149/38 151/151/38 152/152/38
f 149/149/38 150/150/38 151/151/38
f 153/153/39 155/155/39 154/154/39
f 153/153/39 156/156/39 155/155/39
f 157/157/40 159/159/40 160/160/40
f 157/157/40 158/158/40 159/159/40
f 161/161/41 163/163/41 162/162/41
f 161/161/41 164/164/41 163/163/41
f 165/165/42 167/167/42 168/168/42
f 165/165/42 166/166/42 167/167/42
f 169/169/43 171/171/43 170/170/43
f 169/169/43 172/172/43 171/171/43
f 173/173/44 175/175/44 176/176/44
f 173/173/44 174/174/44 175/175/44
f 177/177/45 179/179/45 178/178/45
f 177/177/45 180/180/45 179/179/45
f 181/181/46 183/183/46 184/184/46
f 181/181/46 182/182/46 183/183/46
f 185/185/47 187/187/47 186/186/47
f 185/185/47 188/188/47 187/187/47
f 189/189/48 191/191/48 192/192/48
f 189/189/48 190/190/48 191/191/48
f 193/193/49 195/195/49 194/194/49
f 193/193/49 196/196/49 195/195/49
f 197/197/50 199/199/50 200/200/50
f 197/197/50 198/198/50 199/199/50
f 201/201/51 203/203/51 202/202/51
f 201/201/51 204/204/51 203/203/51
f 205/205/52 207/207/52 208/208/52
f 205/205/52 206/206/52 207/207/52
f 209/209/53 211/211/53 210/210/53
f 209/209/53 212/212/53 211/211/53
f 213/213/54 215/215/54 216/216/54
f 213/213/54 214/214/54 215/215/54
f 217/217/55 219/219/55 218/218/55
f 217/217/55 220/220/55 219/219/55
f 221/221/56 223/223/56 224/224/56
f 221/221/56 222/222/56 223/223/56
f 225/225/57 227/227/57 226/226/57
f 225/225/57 228/228/57 227/227/57
f 229/229/58 231/231/58 232/232/58
f 229/229/58 230/230/58 231/231/58
f 233/233/59 235/235/59 234/234/59
f 233/233/59 236/236/59 235/235/59
f 237/237/60 239/239/60 240/240/60
f 237/237/60 238/238/60 239/239/60
f 241/241/61 243/243/61 242/242/61
f 241/241/61 244/244/61 243/243/61
f 245/245/62 247/247/62 248/248/62
f 245/245/62 246/246/62 247/247/62
f 249/249/63 251/251/63 250/250/63
f 249/249/63 252/252/63 251/251/63
f 253/253/64 255/255/64 256/256/64
f 253/253/64 254/254/64 255/255/64
f 257/257/65 259/259/65 258/258/65
f 257/257/65 260/260/65 259/259/65
f 261/261/66 263/263/66 264/264/66
f 261/261/66 262/262/66 263/263/66
f 265/265/67 267/267/67 266/266/67
f 265/265/67 268/268/67 267/267/67
f 269/269/68 271/271/68 272/272/68
f 269/269/68 270/270/68 271/271/68
f 273/273/69 275/275/69 274/274/69
f 273/273/69 276/276/69 275/275/69
f 277/277/70 279/279/70 280/280/70
f 277/277/70 278/278/70 279/279/70
f 281/281/71 283/283/71 282/282/71
f 281/281/71 284/284/71 283/283/71
f 285/285/72 287/287/72 288/288/72
f 285/285/72 286/286/72 287/287/72
f 289/289/73 291/291/73 290/290/73
f 289/289/73 292/292/73 291/291/73
f 293/293/74 295/295/74 296/296/74
f 293/293/74 294/294/74 295/295/74
f 297/297/75 299/299/75 298/298/75
f 297/297/75 300/300/75 299/299/75
f 301/301/76 303/303/76 304/304/76
f 301/301/76 302/302/76 303/303/76
f 305/305/77 307/307/77 306/306/77
f 305/305/77 308/308/77 307/307/77
f 309/309/78 311/311/78 312/312/78
f 309/309/78 310/310/78 311/311/78
f 313/313/79 315/315/79 314/314/79
f 313/313/79 316/316/79 315/315/79
f 317/317/80 319/319/80 320/320/80
f 317/317/80 318/318/80 319/319/80
f 321/321/81 323/323/81 322/322/81
f 321/321/81 324/324/81 323/323/81
f 325/325/82 327/327/82 328/328/82
f 325/325/82 326/326/82 327/327/82
f 329/329/83 331/331/83 330/330/83
f 329/329/83 332/332/83 331/331/83
f 333/333/84 335/335/84 336/336/84
f 333/333/84 334/334/84 335/335/84
f 337/337/85 339/339/85 338/338/85
f 337/337/85 340/340/85 339/339/85
f 341/341/86 343/343/86 344/344/86
f 341/341/86 342/342/86 343/343/86
f 345/345/87 347/347/87 346/346/87
f 345/345/87 348/348/87 347/347/87
f 349/349/88 351/351/88 352/352/88
f 349/349/88 350/350/88 351/351/88
f 353/353/89 355/355/89 354/354/89
f 353/353/89 356/356/89 355/355/89
f 357/357/90 359/359/90 360/360/90
f 357/357/90 358/358/90 359/359/90
f 361/361/91 363/363/91 362/362/91
f 361/361/91 364/364/91 363/363/91
f 365/365/92 367/367/92 368/368/92
f 365/365/92 366/366/92 367/367/92
f 369/369/93 371/371/93 370/370/93
f 369/369/93 372/372/93 371/371/93
f 373/373/94 375/375/94 376/376/94
f 373/373/94 374/374/94 375/375/94
f 377/377/95 379/379/95 378/378/95
f 377/377/95 380/380/95 379/379/95
f 381/381/96 383/383/96 384/384/96
f 381/381/96 382/382/96 383/383/96
f 385/385/97 387/387/97 386/386/97
f 385/385/97 388/388/97 387/387/97
f 389/389/98 391/391/98 392/392/98
f 389/389/98 390/390/98 391/391/98
f 393/393/99 395/395/99 394/394/99
f 393/393/99 396/396/99 395/395/99
f 397/397/100 399/399/100 400/400/100
f 397/397/100 398/398/100 399/399/100
f 401/401/101 403/403/101 402/402/101
f 401/401/101 404/404/101 403/403/101
f 405/405/102 407/407/102 408/408/102
f 405/405/102 406/406/102 407/407/102
f 409/409/103 411/411/103 410/410/103
f 409/409/103 412/412/103 411/411/103
f 413/413/104 415/415/104 416/416/104
f 413/413/104 414/414/104 415/415/104
f 417/417/105 419/419/105 418/418/105
f 417/417/105 420/420/105 419/419/105
f 421/421/106 423/423/106 424/424/106
f 421/421/106 422/422/106 423/423/106
f 425/425/107 427/427/107 426/426/107
f 425/425/107 428/428/107 427/427/107
f 429/429/108 431/431/108 432/432/108
f 429/429/108 430/430/108 431/431/108
f 433/433/109 435/435/109 434/434/109
f 433/433/109 436/436/109 435/435/109
f 437/437/110 439/439/110 440/440/110
f 437/437/110 438/438/110 439/439/110
f 441/441/111 443/443/111 442/442/111
f 441/441/111 444/444/111 443/443/111
f 445/445/112 447/447/112 448/448/112
f 445/445/112 446/446/112 447/447/112
f 449/449/113 451/451/113 450/450/113
f 449/449/113 452/452/113 451/451/113
f 453/453/114 455/455/114 456/456/114
f 453/453/114 454/454/114 455/455/114
f 457/457/115 459/459/115 458/458/115
f 457/457/115 460/460/115 459/459/115
f 461/461/116 463/463/116 464/464/116
f 461/461/116 462/462/116 463/463/116
f 465/465/117 467/467/117 466/466/117
f 465/465/117 468/468/117 467/467/117
f 469/469/118 471/471/118 472/472/118
f 469/469/118 470/470/118 471/471/118
f 473/473/119 475/475/119 474/474/119
f 473/473/119 476/476/119 475/475/119
f 477/477/120 479/479/120 480/480/120
f 477/477/120 478/478/120 479/479/120
f 481/481/121 483/483/121 482/482/121
f 481/481/121 484/484/121 483/483/121
f 485/485/122 487/487/122 488/488/122
f 485/485/122 486/486/122 487/487/122
f 489/489/123 491/491/123 490/490/123
f 489/489/123 492/492/123 491/491/123
f 493/493/124 495/495/124 496/496/124
f 493/493/124 494/494/124 495/495/124
f 497/497/125 499/499/125 498/498/125
f 497/497/125 500/500/125 499/499/125
f 501/501/126 503/503/126 504/504/126
f 501/501/126 502/502/126 503/503/126
f 505/505/127 507/507/127 506/506/127
f 505/505/127 508/508/127 507/507/127
f 509/509/128 511/511/128 512/512/128
f 509/509/128 510/510/128 511/511/128
f 513/513/129 515/515/129 514/514/129
f 513/513/129 516/516/129 515/515/129
f 517/517/130 519/519/130 520/520/130
f 517/517/130 518/518/130 519/519/130
f 521/521/131 523/523/131 522/522/131
f 521/521/131 524/524/131 523/523/131
f 525/525/132 527/527/132 528/528/132
f 525/525/132 526/526/132 527/527/132
f 529/529/133 531/531/133 530/530/133
f 529/529/133 532/532/133 531/531/133
f 533/533/134 535/535/134 536/536/134
f 533/533/134 534/534/134 535/535/134
f 537/537/135 539/539/135 538/538/135
f 537/537/135 540/540/135 539/539/135
f 541/541/136 543/543/136 544/544/136
f 541/541/136 542/542/136 543/543/136
f 545/545/137 547/547/137 546/546/137
f 545/545/137 548/548/137 547/547/137
f 549/549/138 551/551/138 552/552/138
f 549/549/138 550/550/138 551/551/138
f 553/553/139 555/555/139 554/554/139
f 553/553/139 556/556/139 555/555/139
f 557/557/140 559/559/140 560/560/140
f 557/557/140 558/558/140 559/559/140
f 561/561/141 563/563/141 562/562/141
f 561/561/141 564/564/141 563/563/141
f 565/565/142 567/567/142 568/568/142
f 565/565/142 566/566/142 567/567/142
f 569/569/143 571/571/143 570/570/143
f 569/569/143 572/572/143 571/571/143
f 573/573/144 575/575/144 576/576/144
f 573/573/144 574/574/144 575/575/144
f 577/577/145 579/579/145 578/578/145
f 577/577/145 580/580/145 579/579/145
f 581/581/146 583/583/146 584/584/146
f 581/581/146 582/582/146 583/583/146
f 585/585/147 587/587/147 586/586/147
f 585/585/147 588/588/147 587/587/147
f 589/589/148 591/591/148 592/592/148
f 589/589/148 590/590/148 591/591/148
f 593/593/149 595/595/149 594/594/149
f 593/593/149 596/596/149 595/595/149
f 597/597/150 599/599/150 600/600/150
f 597/597/150 598/598/150 599/599/150
f 601/601/151 603/603/151 602/602/151
f 601/601/151 604/604/151 603/603/151
f 605/605/152 607/607/152 608/608/152
f 605/605/152 606/606/152 607/607/152
f 609/609/153 611/611/153 610/610/153
f 609/609/153 612/612/153 611/611/153
f 613/613/154 615/615/154 616/616/154
f 613/613/154 614/614/154 615/615/154
f 617/617/155 619/619/155 618/618/155
f 617/617/155 620/620/155 619/619/155
f 621/621/156 623/623/156 624/624/156
f 621/621/156 622/622/156 623/623/156
f 625/625/157 627/627/157 626/626/157
f 625/625/157 628/628/157 627/627/157
f 629/629/158 631/631/158 632/632/158
f 629/629/158 630/630/158 631/631/158
f 633/633/159 635/635/159 634/634/159
f 633/633/159 636/636/159 635/635/159
f 637/637/160 639/639/160 640/640/160
f 637/637/160 638/638/160 639/639/160
f 641/641/161 643/643/161 642/642/161
f 641/641/161 644/644/161 643/643/161
f 645/645/162 647/647/162 648/648/162
f 645/645/162 646/646/162 647/647/162
f 649/649/163 651/651/163 650/650/163
f 649/649/163 652/652/163 651/651/163
f 653/653/164 655/655/164 656/656/164
f 653/653/164 654/654/164 655/655/164
f 657/657/165 659/659/165 658/658/165
f 657/657/165 660/660/165 659/659/165
f 661/661/166 663/663/166 664/664/166
f 661/661/166 662/662/166 663/663/166
f 665/665/167 667/667/167 666/666/167
f 665/665/167 668/668/167 667/667/167
f 669/669/168 671/671/168 672/672/168
f 669/669/168 670/670/168 671/671/168
f 673/673/169 675/675/169 674/674/169
f 673/673/169 676/676/169 675/675/169
f 677/677/170 679/679/170 680/680/170
f 677/677/170 678/678/170 679/679/170
f 681/681/171 683/683/171 682/682/171
f 681/681/171 684/684/171 683/683/171
f 685/685/172 687/687/172 688/688/172
f 685/685/172 686/686/172 687/687/172
f 689/689/173 691/691/173 690/690/173
f 689/689/173 692/692/173 691/691/173
f 693/693/174 695/695/174 696/696/174
f 693/693/174 694/694/174 695/695/174
f 697/697/175 699/699/175 698/698/175
f 697/697/175 700/700/175 699/699/175
f 701/701/176 703/703/176 704/704/176
f 701/701/176 702/702/176 703/703/176
f 705/705/177 707/707/177 706/706/177
f 705/705/177 708/708/177 707/707/177
f 709/709/178 711/711/178 712/712/178
f 709/709/178 710/710/178 711/711/178
f 713/713/179 715/715/179 714/714/179
f 713/713/179 716/716/179 715/715/179
f 717/717/180 719/719/180 720/720/180
f 717/717/180 718/718/180 719/719/180
f 721/721/181 723/723/181 722/722/181
f 721/721/181 724/724/181 723/723/181
f 725/725/182 727/727/182 728/728/182
f 725/725/182 726/726/182 727/727/182
f 729/729/183 731/731/183 730/730/183
f 729/729/183 732/732/183 731/731/183
f 733/733/184 735/735/184 736/736/184
f 733/733/184 734/734/184 735/735/184
f 737/737/185 739/739/185 738/738/185
f 737/737/185 740/740/185 739/739/185
f 741/741/186 743/743/186 744/744/186
f 741/741/186 742/742/186 743/743/186
f 745/745/187 747/747/187 746/746/187
f 745/745/187 748/748/187 747/747/187
f 749/749/188 751/751/188 752/752/188
f 749/749/188 750/750/188 751/751/188
f 753/753/189 755/755/189 754/754/189
f 753/753/189 756/756/189 755/755/189
f 757/757/190 759/759/190 760/760/190
f 757/757/190 758/758/190 759/759/190
f 761/761/191 763/763/191 762/762/191
f 761/761/191 764/764/191 763/763/191
f 765/765/192 767/767/192 768/768/192
f 765/765/192 766/766/192 767/767/192
f 769/769/193 771/771/193 770/770/193
f 769/769/193 772/772/193 771/771/193
f 773/773/194 775/775/194 776/776/194
f 773/773/194 774/774/194 775/775/194
f 777/777/195 779/779/195 778/778/195
f 777/777/195 780/780/195 779/779/195
f 781/781/196 783/783/196 784/784/196
f 781/781/196 782/782/196 783/783/196
f 785/785/197 787/787/197 786/786/197
f 785/785/197 788/788/197 787/787/197
f 789/789/198 791/791/198 792/792/198
f 789/789/198 790/790/198 791/791/198
f 793/793/199 795/795/199 794/794/199
f 793/793/199 796/796/199 795/795/199
f 797/797/200 799/799/200 800/800/200
f 797/797/200 798/798/200 799/799/200
f 801/801/201 803/803/201 802/802/201
f 801/801/201 804/804/201 803/803/201
f 805/805/202 807/807/202 808/808/202
f 805/805/202 806/806/202 807/807/202
f 809/809/203 811/811/203 810/810/203
f 809/809/203 812/812/203 811/811/203
f 813/813/204 815/815/204 816/816/204
f 813/813/204 814/814/204 815/815/204
f 817/817/205 819/819/205 818/818/205
f 817/817/205 820/820/205 819/819/205
f 821/821/206 823/823/206 824/824/206
f 821/821/206 822/822/206 823/823/206
f 825/825/207 827/827/207 826/826/207
f 825/825/207 828/828/207 827/827/207
f 829/829/208 831/831/208 832/832/208
f 829/829/208 830/830/208 831/831/208
f 833/833/209 835/835/209 834/834/209
f 833/833/209 836/836/209 835/835/209
f 837/837/210 839/839/210 840/840/210
f 837/837/210 838/838/210 839/839/210
f 841/841/211 843/843/211 842/842/211
f 841/841/211 844/844/211 843/843/211
f 845/845/212 847/847/212 848/848/212
f 845/845/212 846/846/212 847/847/212
f 849/849/213 851/851/213 850/850/213
f 849/849/213 852/852/213 851/851/213
f 853/853/214 855/855/214 856/856/214
f 853/853/214 854/854/214 855/855/214
f 857/857/215 859/859/215 858/858/215
f 857/857/215 860/860/215 859/859/215
f 861/861/216 863/863/216 864/864/216
f 861/861/216 862/862/216 863/863/216
f 865/865/217 867/867/217 866/866/217
f 865/865/217 868/868/217 867/867/217
f 869/869/218 871/871/218 872/872/218
f 869/869/218 870/870/218 871/871/218
f 873/873/219 875/875/219 874/874/219
f 873/873/219 876/876/219 875/875/219
f 877/877/220 879/879/220 880/880/220
f 877/877/220 878/878/220 879/879/220
f 881/881/221 883/883/221 882/882/221
f 881/881/221 884/884/221 883/883/221
f 885/885/222 887/887/222 888/888/222
f 885/885/222 886/886/222 887/887/222
f 889/889/223 891/891/223 890/890/223
f 889/889/223 892/892/223 891/891/223
f 893/893/224 895/895/224 896/896/224
f 893/893/224 894/894/224 895/895/224
f 897/897/225 899/899/225 898/898/225
f 897/897/225 900/900/225 899/899/225
f 901/901/226 903/903/226 904/904/226
f 901/901/226 902/902/226 903/903/226
f 905/905/227 907/907/227 906/906/227
f 905/905/227 908/908/227 907/907/227
f 909/909/228 911/911/228 912/912/228
f 909/909/228 910/910/228 911/911/228
f 913/913/229 915/915/229 914/914/229
f 913/913/229 916/916/229 915/915/229
f 917/917/230 919/919/230 920/920/230
f 917/917/230 918/918/230 919/919/230
f 921/921/231 923/923/231 922/922/231
f 921/921/231 924/924/231 923/923/231
f 925/925/232 927/927/232 928/928/232
f 925/925/232 926/926/232 927/927/232
f 929/929/233 931/931/233 930/930/233
f 929/929/233 932/932/233 931/931/233
f 933/933/234 935/935/234 936/936/234
f 933/933/234 934/934/234 935/935/234
f 937/937/235 939/939/235 938/938/235
f 937/937/235 940/940/235 939/939/235
f 941/941/236 943/943/236 944/944/236
f 941/941/236 942/942/236 943/943/236
f 945/945/237 947/947/237 946/946/237
f 945/945/237 948/948/237 947/947/237
f 949/949/238 951/951/238 952/952/238
f 949/949/238 950/950/238 951/951/238
f 953/953/239 955/955/239 954/954/239
f 953/953/239 956/956/239 955/955/239
f 957/957/240 959/959/240 960/960/240
f 957/957/240 958/958/240 959/959/240
f 961/961/241 963/963/241 962/962/241
f 961/961/241 964/964/241 963/963/241
f 965/965/242 967/967/242 968/968/242
f 965/965/242 966/966/242 967/967/242
f 969/969/243 971/971/243 970/970/243
f 969/969/243 972/972/243 971/971/243
f 973/973/244 975/975/244 976/976/244
f 973/973/244 974/974/244 975/975/244
f 977/977/245 979/979/245 978/978/245
f 977/977/245 980/980/245 979/979/245
f 981/981/246 983/983/246 984/984/246
f 981/981/246 982/982/246 983/983/246
f 985/985/247 987/987/247 986/986/247
f 985/985/247 988/988/247 987/987/247
f 989/989/248 991/991/248 992/992/248
f 989/989/248 990/990/248 991/991/248
f 993/993/249 995/995/249 994/994/249
f 993/993/249 996/996/249 995/995/249
f 997/997/250 999/999/250 1000/1000/250
f 997/997/250 998/998/250 999/999/250
f 1001/1001/251 1003/1003/251 1002/1002/251
f 1001/1001/251 1004/1004/251 1003/1003/251
f 1005/1005/252 1007/1007/252 1008/1008/252
f 1005/1005/252 1006/1006/252 1007/1007/252
f 1009/1009/253 1011/1011/253 1010/1010/253
f 1009/1009/253 1012/1012/253 1011/1011/253
f 1013/1013/254 1015/1015/254 1016/1016/254
f 1013/1013/254 1014/1014/254 1015/1015/254
f 1017/1017/255 1019/1019/255 1018/1018/255
f 1017/1017/255 1020/1020/255 1019/1019/255
f 1021/1021/256 1023/1023/256 1024/1024/256
f 1021/1021/256 1022/1022/256 1023/1023/256
f 1025/1025/257 1027/1027/257 1026/1026/257
f 1025/1025/257 1028/1028/257 1027/1027/257
f 1029/1029/258 1031/1031/258 1032/1032/258
f 1029/1029/258 1030/1030/258 1031/1031/258
f 1033/1033/259 1035/1035/259 1034/1034/259
f 1033/1033/259 1036/1036/259 1035/1035/259
f 1037/1037/260 1039/1039/260 1040/1040/260
f 1037/1037/260 1038/1038/260 1039/1039/260
f 1041/1041/261 1043/1043/261 1042/1042/261
f 1041/1041/261 1044/1044/261 1043/1043/261
f 1045/1045/262 1047/1047/262 1048/1048/262
f 1045/1045/262 1046/1046/262 1047/1047/262
f 1049/1049/263 1051/1051/263 1050/1050/263
f 1049/1049/263 1052/1052/263 1051/1051/263
f 1053/1053/264 1055/1055/264 1056/1056/264
f 1053/1053/264 1054/1054/264 1055/1055/264
f 1057/1057/265 1059/1059/265 1058/1058/265
f 1057/1057/265 1060/1060/265 1059/1059/265
f 1061/1061/266 1063/1063/266 1064/1064/266
f 1061/1061/266 1062/1062/266 1063/1063/266
f 1065/1065/267 1067/1067/267 1066/1066/267
f 1065/1065/267 1068/1068/267 1067/1067/267
f 1069/1069/268 1071/1071/268 1072/1072/268
f 1069/1069/268 1070/1070/268 1071/1071/268
f 1073/1073/269 1075/1075/269 1074/1074/269
f 1073/1073/269 1076/1076/269 1075/1075/269
f 1077/1077/270 1079/1079/270 1080/1080/270
f 1077/1077/270 1078/1078/270 1079/1079/270
f 1081/1081/271 1083/1083/271 1082/1082/271
f 1081/1081/271 1084/1084/271 1083/1083/271
f 1085/1085/272 1087/1087/272 1088/1088/272
f 1085/1085/272 1086/1086/272 1087/1087/272
f 1089/1089/273 1091/1091/273 1090/1090/273
f 1089/1089/273 1092/1092/273 1091/1091/273
f 1093/1093/274 1095/1095/274 1096/1096/274
f 1093/1093/274 1094/1094/274 1095/1095/274
f 1097/1097/275 1099/1099/275 1098/1098/275
f 1097/1097/275 1100/1100/275 1099/1099/275
f 1101/1101/276 1103/1103/276 1104/1104/276
f 1101/1101/276 1102/1102/276 1103/1103/276
