# JudeanFloraV1; canonical UE cm (X east, +Y south, Z up), written with Y reflected and triangle winding reversed for the legacy OBJ importer adapter. One o object, no g groups, so the importer creates exactly one material slot.
# date palm (Phoenix dactylifera), StreetTreesV1 seed 0, LOD0 bark
# height 9.0-16.0 m, crown 5.5-8.5 m; source: Zohary, M., Plants of the Bible (Cambridge University Press, 1982), species entry Phoenix dactylifera; 9-16 m with a 5.5-8.5 m crown of pinnate fronds
# branching is recursive with da Vinci child radii; leaf sprays are anchored to branch tips. Stylised habit, not a survey of any tree.
o SM_StreetTreesV1_DatePalm_S0_L0_Bark
s off
v 0.00000 26.57120 0.66428
v 13.85397 19.06568 0.36841
v 25.27784 8.21589 0.00791
v 22.41619 -7.27703 -0.35705
v 15.62256 -21.49350 -0.65939
v 0.00000 -23.56314 -0.58908
v -15.62256 -21.49960 -0.41544
v -22.41619 -7.28579 -0.00702
v -25.27784 8.20602 0.40263
v -13.85397 19.06027 0.58474
v 1.00410 21.52912 129.14374
v 13.90330 14.54274 128.76753
v 24.53987 4.44183 128.34882
v 21.87544 -9.98520 128.02977
v 15.55000 -23.22435 127.79763
v 1.00410 -25.15437 127.97666
v -13.54180 -23.23571 128.25190
v -19.86723 -10.00149 128.68159
v -22.53166 4.42346 129.08385
v -11.89509 14.53267 129.17038
v 4.01641 20.21554 257.71642
v 17.90084 12.69821 257.09460
v 29.34983 1.82629 256.46502
v 26.48189 -13.70948 256.16625
v 19.67332 -27.96770 256.02256
v 4.01641 -30.05201 256.45973
v -11.64050 -27.99215 257.00051
v -18.44907 -13.74456 257.56946
v -21.31700 1.78673 258.04737
v -9.86802 12.67653 257.96183
v 9.03693 12.17772 386.12099
v 20.40004 6.02617 385.43455
v 29.76997 -2.87325 384.77285
v 27.42283 -15.59649 384.56479
v 21.85065 -27.27480 384.53403
v 9.03693 -28.98664 385.09188
v -3.77680 -27.30481 385.73457
v -9.34897 -15.63955 386.28740
v -11.69611 -2.92181 386.71536
v -2.32619 5.99956 386.49918
v 16.06565 12.66033 514.73857
v 29.34232 5.47190 513.72907
v 40.29016 -4.93079 512.78476
v 37.54776 -19.81036 512.58417
v 31.03722 -33.46947 512.64960
v 16.06565 -35.47712 513.53513
v 1.09408 -33.51623 514.51988
v -5.41646 -19.87745 515.26776
v -8.15886 -5.00644 515.81093
v 2.78897 5.43044 515.38761
v 25.10258 4.21865 643.13304
v 35.64683 -1.49250 642.16649
v 44.34153 -9.75990 641.28054
v 42.16353 -21.59093 641.15492
v 36.99290 -32.45278 641.28733
v 25.10258 -34.05361 642.17624
v 13.21225 -32.49920 643.14403
v 8.04162 -21.65753 643.81903
v 5.86362 -9.83501 644.28474
v 14.55832 -1.53367 643.81301
v 36.14771 3.74649 771.72675
v 48.10085 -2.73176 770.44419
v 57.95731 -12.11250 769.28563
v 55.48829 -25.54318 769.18133
v 49.62678 -37.87504 769.42255
v 36.14771 -39.69741 770.64066
v 22.66864 -37.93818 771.94830
v 16.80712 -25.63378 772.80543
v 14.33811 -12.21466 773.37238
v 24.19457 -2.78776 772.68401
v 49.20105 -2.62231 900.17305
v 59.49980 -8.20871 898.90696
v 67.99207 -16.30051 897.77583
v 65.86479 -27.89132 897.71873
v 60.81454 -38.53502 898.00501
v 49.20105 -40.11212 899.23581
v 37.58756 -38.59849 900.54387
v 32.53731 -27.98239 901.36164
v 30.41003 -16.40321 901.88380
v 38.90229 -8.26500 901.15841
v 64.26259 -5.88923 1028.69689
v 74.52450 -11.45853 1027.35509
v 82.98639 -19.52680 1026.16176
v 80.86671 -31.08663 1026.12116
v 75.83453 -41.70248 1026.44547
v 64.26259 -43.27755 1027.76218
v 52.69065 -41.77024 1029.15595
v 47.65847 -31.18386 1030.01032
v 45.53880 -19.63644 1030.54741
v 54.00068 -11.51862 1029.75873
vt 0.00000 0.00000
vt 0.10000 0.00000
vt 0.20000 0.00000
vt 0.30000 0.00000
vt 0.40000 0.00000
vt 0.50000 0.00000
vt 0.60000 0.00000
vt 0.70000 0.00000
vt 0.80000 0.00000
vt 0.90000 0.00000
vt 0.00000 0.12500
vt 0.10000 0.12500
vt 0.20000 0.12500
vt 0.30000 0.12500
vt 0.40000 0.12500
vt 0.50000 0.12500
vt 0.60000 0.12500
vt 0.70000 0.12500
vt 0.80000 0.12500
vt 0.90000 0.12500
vt 0.00000 0.25000
vt 0.10000 0.25000
vt 0.20000 0.25000
vt 0.30000 0.25000
vt 0.40000 0.25000
vt 0.50000 0.25000
vt 0.60000 0.25000
vt 0.70000 0.25000
vt 0.80000 0.25000
vt 0.90000 0.25000
vt 0.00000 0.37500
vt 0.10000 0.37500
vt 0.20000 0.37500
vt 0.30000 0.37500
vt 0.40000 0.37500
vt 0.50000 0.37500
vt 0.60000 0.37500
vt 0.70000 0.37500
vt 0.80000 0.37500
vt 0.90000 0.37500
vt 0.00000 0.50000
vt 0.10000 0.50000
vt 0.20000 0.50000
vt 0.30000 0.50000
vt 0.40000 0.50000
vt 0.50000 0.50000
vt 0.60000 0.50000
vt 0.70000 0.50000
vt 0.80000 0.50000
vt 0.90000 0.50000
vt 0.00000 0.62500
vt 0.10000 0.62500
vt 0.20000 0.62500
vt 0.30000 0.62500
vt 0.40000 0.62500
vt 0.50000 0.62500
vt 0.60000 0.62500
vt 0.70000 0.62500
vt 0.80000 0.62500
vt 0.90000 0.62500
vt 0.00000 0.75000
vt 0.10000 0.75000
vt 0.20000 0.75000
vt 0.30000 0.75000
vt 0.40000 0.75000
vt 0.50000 0.75000
vt 0.60000 0.75000
vt 0.70000 0.75000
vt 0.80000 0.75000
vt 0.90000 0.75000
vt 0.00000 0.87500
vt 0.10000 0.87500
vt 0.20000 0.87500
vt 0.30000 0.87500
vt 0.40000 0.87500
vt 0.50000 0.87500
vt 0.60000 0.87500
vt 0.70000 0.87500
vt 0.80000 0.87500
vt 0.90000 0.87500
vt 0.00000 1.00000
vt 0.10000 1.00000
vt 0.20000 1.00000
vt 0.30000 1.00000
vt 0.40000 1.00000
vt 0.50000 1.00000
vt 0.60000 1.00000
vt 0.70000 1.00000
vt 0.80000 1.00000
vt 0.90000 1.00000
vn 0.4766 0.8786 0.0308
vn 0.4767 0.8785 0.0308
vn 0.6889 0.7245 0.0253
vn 0.6889 0.7244 0.0253
vn 0.9834 -0.1816 0.0003
vn 0.9023 -0.4311 -0.0053
vn 0.9023 -0.4310 -0.0053
vn 0.1313 -0.9913 -0.0133
vn 0.1314 -0.9912 -0.0133
vn -0.1311 -0.9913 -0.0113
vn -0.1310 -0.9913 -0.0112
vn -0.9021 -0.4314 0.0088
vn -0.9021 -0.4315 0.0088
vn -0.9832 -0.1820 0.0156
vn -0.6887 0.7242 0.0360
vn -0.6886 0.7242 0.0360
vn -0.4764 0.8784 0.0382
vn 0.4762 0.8793 -0.0022
vn 0.4760 0.8794 -0.0022
vn 0.6883 0.7253 -0.0110
vn 0.6882 0.7254 -0.0110
vn 0.9827 -0.1806 -0.0406
vn 0.9017 -0.4300 -0.0449
vn 0.9017 -0.4301 -0.0449
vn 0.1309 -0.9906 -0.0408
vn 0.1307 -0.9906 -0.0408
vn -0.1313 -0.9907 -0.0347
vn -0.1315 -0.9907 -0.0347
vn -0.9023 -0.4312 -0.0026
vn -0.9023 -0.4311 -0.0026
vn -0.9833 -0.1818 0.0055
vn -0.9833 -0.1817 0.0055
vn -0.6888 0.7246 0.0213
vn -0.6890 0.7245 0.0213
vn -0.4766 0.8789 0.0201
vn -0.4768 0.8788 0.0202
vn 0.4771 0.8781 0.0364
vn 0.4775 0.8779 0.0363
vn 0.6891 0.7243 0.0243
vn 0.6894 0.7240 0.0242
vn 0.9834 -0.1813 -0.0099
vn 0.9024 -0.4308 -0.0130
vn 0.9025 -0.4306 -0.0129
vn 0.1320 -0.9912 0.0031
vn 0.1325 -0.9912 0.0031
vn -0.1300 -0.9914 0.0132
vn -0.1295 -0.9915 0.0133
vn -0.8999 -0.4323 0.0573
vn -0.8998 -0.4325 0.0573
vn -0.9808 -0.1832 0.0666
vn -0.9808 -0.1833 0.0666
vn -0.6868 0.7227 0.0778
vn -0.6865 0.7229 0.0778
vn -0.4749 0.8770 0.0735
vn -0.4745 0.8772 0.0734
vn 0.4745 0.8798 -0.0293
vn 0.4742 0.8799 -0.0292
vn 0.6863 0.7259 -0.0447
vn 0.6861 0.7261 -0.0447
vn 0.9802 -0.1795 -0.0834
vn 0.8993 -0.4289 -0.0852
vn 0.8993 -0.4290 -0.0852
vn 0.1298 -0.9899 -0.0571
vn 0.1294 -0.9899 -0.0571
vn -0.1321 -0.9903 -0.0428
vn -0.1325 -0.9903 -0.0428
vn -0.9020 -0.4315 0.0133
vn -0.9021 -0.4313 0.0133
vn -0.9830 -0.1822 0.0240
vn -0.9830 -0.1821 0.0240
vn -0.6889 0.7242 0.0305
vn -0.6891 0.7240 0.0306
vn -0.4770 0.8786 0.0228
vn -0.4773 0.8785 0.0228
vn 0.4774 0.8783 0.0242
vn 0.4778 0.8781 0.0241
vn 0.6891 0.7247 0.0055
vn 0.6894 0.7244 0.0054
vn 0.9828 -0.1806 -0.0378
vn 0.9828 -0.1805 -0.0378
vn 0.9020 -0.4301 -0.0384
vn 0.9021 -0.4299 -0.0383
vn 0.1330 -0.9911 0.0016
vn 0.1336 -0.9910 0.0016
vn -0.1285 -0.9915 0.0200
vn -0.1280 -0.9916 0.0200
vn -0.8971 -0.4330 0.0879
vn -0.8970 -0.4333 0.0879
vn -0.9779 -0.1840 0.0998
vn -0.9778 -0.1841 0.0998
vn -0.6844 0.7220 0.1019
vn -0.6841 0.7223 0.1018
vn -0.4728 0.8765 0.0909
vn -0.4724 0.8767 0.0908
vn 0.4733 0.8801 -0.0374
vn 0.4731 0.8802 -0.0374
vn 0.6847 0.7264 -0.0595
vn 0.6845 0.7266 -0.0594
vn 0.9780 -0.1789 -0.1073
vn 0.9780 -0.1790 -0.1073
vn 0.8973 -0.4284 -0.1066
vn 0.8972 -0.4285 -0.1066
vn 0.1292 -0.9901 -0.0546
vn 0.1289 -0.9901 -0.0546
vn -0.1321 -0.9907 -0.0321
vn -0.1324 -0.9907 -0.0321
vn -0.9004 -0.4324 0.0479
vn -0.9005 -0.4323 0.0479
vn -0.9812 -0.1832 0.0610
vn -0.9812 -0.1831 0.0610
vn -0.6877 0.7236 0.0585
vn -0.6879 0.7235 0.0585
vn -0.4762 0.8782 0.0441
vn -0.4765 0.8781 0.0442
vn 0.4761 0.8794 -0.0048
vn 0.4763 0.8792 -0.0048
vn 0.6872 0.7258 -0.0300
vn 0.6874 0.7256 -0.0301
vn 0.9803 -0.1796 -0.0824
vn 0.9803 -0.1795 -0.0824
vn 0.8996 -0.4292 -0.0805
vn 0.8997 -0.4291 -0.0805
vn 0.1325 -0.9910 -0.0166
vn 0.1328 -0.9910 -0.0166
vn -0.1285 -0.9917 0.0098
vn -0.1281 -0.9917 0.0098
vn -0.8954 -0.4336 0.1016
vn -0.8953 -0.4337 0.1016
vn -0.9760 -0.1845 0.1160
vn -0.6831 0.7222 0.1090
vn -0.6829 0.7223 0.1089
vn -0.4720 0.8768 0.0914
vn -0.4718 0.8770 0.0914
vn 0.4734 0.8802 -0.0331
vn 0.6842 0.7267 -0.0616
vn 0.9767 -0.1787 -0.1186
vn 0.8962 -0.4283 -0.1154
vn 0.8962 -0.4284 -0.1154
vn 0.1303 -0.9907 -0.0397
vn -0.1302 -0.9914 -0.0092
vn -0.8961 -0.4336 0.0945
vn -0.9767 -0.1844 0.1102
vn -0.6841 0.7227 0.0986
vn -0.4733 0.8775 0.0778
vn 0.1164 -0.0248 0.9929
vn -0.0078 0.0250 -0.9997
f 1/1/1 12/12/1 2/2/1
f 1/1/2 11/11/2 12/12/2
f 2/2/3 13/13/3 3/3/3
f 2/2/4 12/12/4 13/13/4
f 3/3/5 14/14/5 4/4/5
f 3/3/5 13/13/5 14/14/5
f 4/4/6 15/15/6 5/5/6
f 4/4/7 14/14/7 15/15/7
f 5/5/8 16/16/8 6/6/8
f 5/5/9 15/15/9 16/16/9
f 6/6/10 17/17/10 7/7/10
f 6/6/11 16/16/11 17/17/11
f 7/7/12 18/18/12 8/8/12
f 7/7/13 17/17/13 18/18/13
f 8/8/14 19/19/14 9/9/14
f 8/8/14 18/18/14 19/19/14
f 9/9/15 20/20/15 10/10/15
f 9/9/16 19/19/16 20/20/16
f 10/10/17 11/11/17 1/1/17
f 10/10/17 20/20/17 11/11/17
f 11/11/18 22/22/18 12/12/18
f 11/11/19 21/21/19 22/22/19
f 12/12/20 23/23/20 13/13/20
f 12/12/21 22/22/21 23/23/21
f 13/13/22 24/24/22 14/14/22
f 13/13/22 23/23/22 24/24/22
f 14/14/23 25/25/23 15/15/23
f 14/14/24 24/24/24 25/25/24
f 15/15/25 26/26/25 16/16/25
f 15/15/26 25/25/26 26/26/26
f 16/16/27 27/27/27 17/17/27
f 16/16/28 26/26/28 27/27/28
f 17/17/29 28/28/29 18/18/29
f 17/17/30 27/27/30 28/28/30
f 18/18/31 29/29/31 19/19/31
f 18/18/32 28/28/32 29/29/32
f 19/19/33 30/30/33 20/20/33
f 19/19/34 29/29/34 30/30/34
f 20/20/35 21/21/35 11/11/35
f 20/20/36 30/30/36 21/21/36
f 21/21/37 32/32/37 22/22/37
f 21/21/38 31/31/38 32/32/38
f 22/22/39 33/33/39 23/23/39
f 22/22/40 32/32/40 33/33/40
f 23/23/41 34/34/41 24/24/41
f 23/23/41 33/33/41 34/34/41
f 24/24/42 35/35/42 25/25/42
f 24/24/43 34/34/43 35/35/43
f 25/25/44 36/36/44 26/26/44
f 25/25/45 35/35/45 36/36/45
f 26/26/46 37/37/46 27/27/46
f 26/26/47 36/36/47 37/37/47
f 27/27/48 38/38/48 28/28/48
f 27/27/49 37/37/49 38/38/49
f 28/28/50 39/39/50 29/29/50
f 28/28/51 38/38/51 39/39/51
f 29/29/52 40/40/52 30/30/52
f 29/29/53 39/39/53 40/40/53
f 30/30/54 31/31/54 21/21/54
f 30/30/55 40/40/55 31/31/55
f 31/31/56 42/42/56 32/32/56
f 31/31/57 41/41/57 42/42/57
f 32/32/58 43/43/58 33/33/58
f 32/32/59 42/42/59 43/43/59
f 33/33/60 44/44/60 34/34/60
f 33/33/60 43/43/60 44/44/60
f 34/34/61 45/45/61 35/35/61
f 34/34/62 44/44/62 45/45/62
f 35/35/63 46/46/63 36/36/63
f 35/35/64 45/45/64 46/46/64
f 36/36/65 47/47/65 37/37/65
f 36/36/66 46/46/66 47/47/66
f 37/37/67 48/48/67 38/38/67
f 37/37/68 47/47/68 48/48/68
f 38/38/69 49/49/69 39/39/69
f 38/38/70 48/48/70 49/49/70
f 39/39/71 50/50/71 40/40/71
f 39/39/72 49/49/72 50/50/72
f 40/40/73 41/41/73 31/31/73
f 40/40/74 50/50/74 41/41/74
f 41/41/75 52/52/75 42/42/75
f 41/41/76 51/51/76 52/52/76
f 42/42/77 53/53/77 43/43/77
f 42/42/78 52/52/78 53/53/78
f 43/43/79 54/54/79 44/44/79
f 43/43/80 53/53/80 54/54/80
f 44/44/81 55/55/81 45/45/81
f 44/44/82 54/54/82 55/55/82
f 45/45/83 56/56/83 46/46/83
f 45/45/84 55/55/84 56/56/84
f 46/46/85 57/57/85 47/47/85
f 46/46/86 56/56/86 57/57/86
f 47/47/87 58/58/87 48/48/87
f 47/47/88 57/57/88 58/58/88
f 48/48/89 59/59/89 49/49/89
f 48/48/90 58/58/90 59/59/90
f 49/49/91 60/60/91 50/50/91
f 49/49/92 59/59/92 60/60/92
f 50/50/93 51/51/93 41/41/93
f 50/50/94 60/60/94 51/51/94
f 51/51/95 62/62/95 52/52/95
f 51/51/96 61/61/96 62/62/96
f 52/52/97 63/63/97 53/53/97
f 52/52/98 62/62/98 63/63/98
f 53/53/99 64/64/99 54/54/99
f 53/53/100 63/63/100 64/64/100
f 54/54/101 65/65/101 55/55/101
f 54/54/102 64/64/102 65/65/102
f 55/55/103 66/66/103 56/56/103
f 55/55/104 65/65/104 66/66/104
f 56/56/105 67/67/105 57/57/105
f 56/56/106 66/66/106 67/67/106
f 57/57/107 68/68/107 58/58/107
f 57/57/108 67/67/108 68/68/108
f 58/58/109 69/69/109 59/59/109
f 58/58/110 68/68/110 69/69/110
f 59/59/111 70/70/111 60/60/111
f 59/59/112 69/69/112 70/70/112
f 60/60/113 61/61/113 51/51/113
f 60/60/114 70/70/114 61/61/114
f 61/61/115 72/72/115 62/62/115
f 61/61/116 71/71/116 72/72/116
f 62/62/117 73/73/117 63/63/117
f 62/62/118 72/72/118 73/73/118
f 63/63/119 74/74/119 64/64/119
f 63/63/120 73/73/120 74/74/120
f 64/64/121 75/75/121 65/65/121
f 64/64/122 74/74/122 75/75/122
f 65/65/123 76/76/123 66/66/123
f 65/65/124 75/75/124 76/76/124
f 66/66/125 77/77/125 67/67/125
f 66/66/126 76/76/126 77/77/126
f 67/67/127 78/78/127 68/68/127
f 67/67/128 77/77/128 78/78/128
f 68/68/129 79/79/129 69/69/129
f 68/68/129 78/78/129 79/79/129
f 69/69/130 80/80/130 70/70/130
f 69/69/131 79/79/131 80/80/131
f 70/70/132 71/71/132 61/61/132
f 70/70/133 80/80/133 71/71/133
f 71/71/134 82/82/134 72/72/134
f 71/71/134 81/81/134 82/82/134
f 72/72/135 83/83/135 73/73/135
f 72/72/135 82/82/135 83/83/135
f 73/73/136 84/84/136 74/74/136
f 73/73/136 83/83/136 84/84/136
f 74/74/137 85/85/137 75/75/137
f 74/74/138 84/84/138 85/85/138
f 75/75/139 86/86/139 76/76/139
f 75/75/139 85/85/139 86/86/139
f 76/76/140 87/87/140 77/77/140
f 76/76/140 86/86/140 87/87/140
f 77/77/141 88/88/141 78/78/141
f 77/77/141 87/87/141 88/88/141
f 78/78/142 89/89/142 79/79/142
f 78/78/142 88/88/142 89/89/142
f 79/79/143 90/90/143 80/80/143
f 79/79/143 89/89/143 90/90/143
f 80/80/144 81/81/144 71/71/144
f 80/80/144 90/90/144 81/81/144
f 81/81/145 83/83/145 82/82/145
f 81/81/145 84/84/145 83/83/145
f 81/81/145 85/85/145 84/84/145
f 81/81/145 86/86/145 85/85/145
f 81/81/145 87/87/145 86/86/145
f 81/81/145 88/88/145 87/87/145
f 81/81/145 89/89/145 88/88/145
f 81/81/145 90/90/145 89/89/145
f 10/10/146 8/8/146 9/9/146
f 10/10/146 7/7/146 8/8/146
f 10/10/146 6/6/146 7/7/146
f 10/10/146 5/5/146 6/6/146
f 10/10/146 4/4/146 5/5/146
f 10/10/146 3/3/146 4/4/146
f 10/10/146 2/2/146 3/3/146
f 10/10/146 1/1/146 2/2/146
