# JudeanFloraV1; canonical UE cm (X east, +Y south, Z up), written with Y reflected and triangle winding reversed for the legacy OBJ importer adapter. One o object, no g groups, so the importer creates exactly one material slot.
# carob (Ceratonia siliqua), StreetTreesV1 seed 1, LOD2 bark
# height 5.5-10.0 m, crown 6.0-10.0 m; source: Zohary, M., Plants of the Bible (Cambridge University Press, 1982), species entry Ceratonia siliqua; a dense evergreen of 5.5-10 m with a broad crown
# branching is recursive with da Vinci child radii; leaf sprays are anchored to branch tips. Stylised habit, not a survey of any tree.
o SM_StreetTreesV1_Carob_S1_L2_Bark
s off
v 0.00000 46.43695 0.31272
v 40.23501 0.02154 -3.19911
v 0.00000 -46.43695 -0.31272
v -40.23501 -0.02154 3.19911
v 7.57445 34.46165 75.99658
v 36.29840 -1.83095 72.78762
v 4.43737 -35.47898 75.06831
v -24.28658 0.81362 78.27728
v 16.02508 24.86911 151.00084
v 37.36385 -4.73762 148.34832
v 11.09305 -30.09099 150.79574
v -10.24571 -0.48425 153.44826
v 25.01320 20.05293 225.47280
v 41.55656 -5.21833 224.04035
v 18.92184 -25.05955 226.93277
v 2.37848 0.21170 228.36521
v 33.98624 19.03660 300.19571
v 47.16543 -3.16573 299.53817
v 27.08551 -19.09859 302.70173
v 13.90632 3.10375 303.35927
v 44.14749 20.22243 375.09542
v 54.65869 0.64993 374.76278
v 36.77395 -12.17398 377.82246
v 26.26275 7.39851 378.15510
v 40.46072 14.10409 376.59817
v 50.43072 4.00364 377.94949
v 40.46072 -6.05564 376.31971
v 30.49072 4.04481 374.96839
v 25.71554 11.26154 475.29362
v 34.25587 2.63514 476.09822
v 25.71554 -5.93715 474.84202
v 17.17521 2.68925 474.03742
v 16.57585 5.95283 574.38226
v 23.67839 -1.17757 574.83830
v 16.57585 -8.29351 574.19496
v 9.47330 -1.16311 573.73892
v 10.33226 5.69423 673.73081
v 15.96645 0.05372 674.15345
v 10.33226 -5.59545 673.86919
v 4.69807 0.04506 673.44655
v 48.94952 4.26907 376.45894
v 40.65427 -2.68632 381.65998
v 31.97192 3.77938 376.45894
v 40.26717 10.73476 371.25790
v 46.12649 58.72960 446.44530
v 39.30775 52.37442 450.70538
v 31.66846 57.71527 446.44530
v 38.48719 64.07045 442.18521
v 39.16296 108.26646 519.58645
v 33.59566 102.71576 522.78408
v 27.20041 107.28806 519.58645
v 32.76771 112.83876 516.38883
v 35.96425 152.38528 596.15655
v 31.39540 148.06554 598.54379
v 26.46218 151.96398 596.15655
v 31.03103 156.28372 593.76930
v 36.28187 -3.36880 376.45894
v 34.68994 7.28611 381.76722
v 44.63957 11.41725 376.45894
v 46.23150 0.76234 371.15066
v 80.34245 -26.83912 438.50618
v 78.56068 -17.71446 442.81868
v 87.08824 -14.01111 438.50618
v 88.87001 -23.13576 434.19367
v 121.25084 -45.24008 504.11038
v 119.70154 -37.56214 507.37821
v 126.99261 -34.70007 504.11038
v 128.54192 -42.37801 500.84254
v 157.19720 -65.86329 571.76216
v 156.23692 -59.69267 574.25910
v 162.17466 -57.75825 571.76216
v 163.13494 -63.92888 569.26523
vt 0.00000 0.00000
vt 0.25000 0.00000
vt 0.50000 0.00000
vt 0.75000 0.00000
vt 0.00000 0.20000
vt 0.25000 0.20000
vt 0.50000 0.20000
vt 0.75000 0.20000
vt 0.00000 0.40000
vt 0.25000 0.40000
vt 0.50000 0.40000
vt 0.75000 0.40000
vt 0.00000 0.60000
vt 0.25000 0.60000
vt 0.50000 0.60000
vt 0.75000 0.60000
vt 0.00000 0.80000
vt 0.25000 0.80000
vt 0.50000 0.80000
vt 0.75000 0.80000
vt 0.00000 1.00000
vt 0.25000 1.00000
vt 0.50000 1.00000
vt 0.75000 1.00000
vt 0.00000 0.00000
vt 0.25000 0.00000
vt 0.50000 0.00000
vt 0.75000 0.00000
vt 0.00000 0.33333
vt 0.25000 0.33333
vt 0.50000 0.33333
vt 0.75000 0.33333
vt 0.00000 0.66667
vt 0.25000 0.66667
vt 0.50000 0.66667
vt 0.75000 0.66667
vt 0.00000 1.00000
vt 0.25000 1.00000
vt 0.50000 1.00000
vt 0.75000 1.00000
vt 0.00000 0.00000
vt 0.25000 0.00000
vt 0.50000 0.00000
vt 0.75000 0.00000
vt 0.00000 0.33333
vt 0.25000 0.33333
vt 0.50000 0.33333
vt 0.75000 0.33333
vt 0.00000 0.66667
vt 0.25000 0.66667
vt 0.50000 0.66667
vt 0.75000 0.66667
vt 0.00000 1.00000
vt 0.25000 1.00000
vt 0.50000 1.00000
vt 0.75000 1.00000
vt 0.00000 0.00000
vt 0.25000 0.00000
vt 0.50000 0.00000
vt 0.75000 0.00000
vt 0.00000 0.33333
vt 0.25000 0.33333
vt 0.50000 0.33333
vt 0.75000 0.33333
vt 0.00000 0.66667
vt 0.25000 0.66667
vt 0.50000 0.66667
vt 0.75000 0.66667
vt 0.00000 1.00000
vt 0.25000 1.00000
vt 0.50000 1.00000
vt 0.75000 1.00000
vn 0.7565 0.6516 0.0551
vn 0.7848 0.6194 0.0195
vn 0.7565 -0.6520 0.0503
vn 0.7267 -0.6867 0.0209
vn -0.7392 -0.6532 0.1643
vn -0.7710 -0.6222 0.1358
vn -0.7385 0.6506 0.1769
vn -0.7137 0.6855 0.1440
vn 0.7846 0.6199 0.0128
vn 0.8104 0.5856 -0.0164
vn 0.7255 -0.6880 -0.0148
vn 0.6921 -0.7208 -0.0375
vn -0.7714 -0.6223 0.1333
vn -0.8013 -0.5876 0.1122
vn -0.7102 0.6838 0.1675
vn -0.6809 0.7190 0.1396
vn 0.8088 0.5866 -0.0411
vn 0.8332 0.5491 -0.0650
vn 0.6931 -0.7205 -0.0237
vn 0.6556 -0.7539 -0.0411
vn -0.7973 -0.5872 0.1398
vn -0.8273 -0.5485 0.1213
vn -0.6824 0.7195 0.1289
vn -0.6483 0.7545 0.1022
vn 0.8322 0.5491 -0.0768
vn 0.8547 0.5102 -0.0957
vn 0.6583 -0.7527 -0.0117
vn 0.6190 -0.7850 -0.0246
vn -0.8236 -0.5475 0.1477
vn -0.8507 -0.5089 0.1317
vn -0.6502 0.7546 0.0883
vn -0.6141 0.7866 0.0641
vn 0.8532 0.5097 -0.1108
vn 0.8731 0.4710 -0.1259
vn 0.6208 -0.7839 -0.0078
vn 0.5808 -0.8139 -0.0166
vn -0.8454 -0.5068 0.1688
vn -0.8692 -0.4694 0.1554
vn -0.6132 0.7868 0.0707
vn -0.5765 0.8156 0.0484
vn 0.1310 0.0535 0.9899
vn -0.0793 0.0067 -0.9968
vn 0.6977 0.7054 0.1248
vn 0.6993 0.7039 0.1247
vn 0.6977 -0.7086 0.1053
vn 0.6968 -0.7096 0.1049
vn -0.7009 -0.7057 -0.1039
vn -0.7019 -0.7046 -0.1042
vn -0.7009 0.7083 -0.0843
vn -0.6997 0.7094 -0.0843
vn 0.7021 0.7047 0.1024
vn 0.7015 0.7053 0.1025
vn 0.7041 -0.7085 0.0480
vn 0.7048 -0.7078 0.0482
vn -0.7045 -0.7050 -0.0817
vn -0.7035 -0.7060 -0.0815
vn -0.7062 0.7075 -0.0272
vn -0.7063 0.7074 -0.0272
vn 0.7063 0.7064 0.0461
vn 0.7050 0.7077 0.0461
vn 0.7035 -0.7079 0.0632
vn 0.7050 -0.7063 0.0635
vn -0.7075 -0.7063 -0.0253
vn -0.7063 -0.7074 -0.0251
vn -0.7052 0.7077 -0.0425
vn -0.7063 0.7066 -0.0424
vn -0.0626 0.0122 0.9980
vn 0.1479 0.0137 -0.9889
vn 0.7228 -0.5334 0.4394
vn 0.7447 -0.5119 0.4283
vn -0.6908 -0.5741 0.4395
vn -0.6666 -0.5891 0.4568
vn -0.7230 0.5433 -0.4267
vn -0.7457 0.5261 -0.4087
vn 0.6905 0.5841 -0.4266
vn 0.6662 0.6040 -0.4375
vn 0.7451 -0.5176 0.4205
vn 0.7505 -0.5118 0.4181
vn -0.6638 -0.6373 0.3914
vn -0.6568 -0.6417 0.3961
vn -0.7459 0.5288 -0.4050
vn -0.7520 0.5234 -0.4007
vn 0.6625 0.6479 -0.3758
vn 0.6561 0.6529 -0.3785
vn 0.7544 -0.5533 0.3531
vn 0.7333 -0.5754 0.3622
vn -0.6559 -0.6547 0.3757
vn -0.6795 -0.6380 0.3622
vn -0.7548 0.5646 -0.3340
vn -0.7337 0.5838 -0.3477
vn 0.6548 0.6664 -0.3566
vn 0.6791 0.6465 -0.3477
vn -0.0222 0.5015 0.8649
vn 0.0177 -0.6122 -0.7905
vn -0.8232 -0.3469 0.4495
vn -0.8181 -0.3684 0.4416
vn -0.1273 0.8842 0.4495
vn -0.1457 0.8744 0.4628
vn 0.8336 0.3410 -0.4345
vn 0.8319 0.3614 -0.4210
vn 0.1377 -0.8901 -0.4345
vn 0.1595 -0.8825 -0.4424
vn -0.8328 -0.3610 0.4197
vn -0.8360 -0.3489 0.4234
vn -0.1887 0.8978 0.3979
vn -0.1789 0.9026 0.3915
vn 0.8449 0.3543 -0.4006
vn 0.8465 0.3438 -0.4065
vn 0.2009 -0.9035 -0.3787
vn 0.1886 -0.9079 -0.3744
vn -0.8699 -0.3311 0.3656
vn -0.8789 -0.2900 0.3786
vn -0.1751 0.9005 0.3980
vn -0.1389 0.9151 0.3787
vn 0.8814 0.3241 -0.3436
vn 0.8867 0.2852 -0.3639
vn 0.1875 -0.9073 -0.3762
vn 0.1467 -0.9198 -0.3639
vn 0.4474 -0.2748 0.8511
vn -0.5442 0.3076 -0.7806
f 1/1/1 6/6/1 2/2/1
f 1/1/2 5/5/2 6/6/2
f 2/2/3 7/7/3 3/3/3
f 2/2/4 6/6/4 7/7/4
f 3/3/5 8/8/5 4/4/5
f 3/3/6 7/7/6 8/8/6
f 4/4/7 5/5/7 1/1/7
f 4/4/8 8/8/8 5/5/8
f 5/5/9 10/10/9 6/6/9
f 5/5/10 9/9/10 10/10/10
f 6/6/11 11/11/11 7/7/11
f 6/6/12 10/10/12 11/11/12
f 7/7/13 12/12/13 8/8/13
f 7/7/14 11/11/14 12/12/14
f 8/8/15 9/9/15 5/5/15
f 8/8/16 12/12/16 9/9/16
f 9/9/17 14/14/17 10/10/17
f 9/9/18 13/13/18 14/14/18
f 10/10/19 15/15/19 11/11/19
f 10/10/20 14/14/20 15/15/20
f 11/11/21 16/16/21 12/12/21
f 11/11/22 15/15/22 16/16/22
f 12/12/23 13/13/23 9/9/23
f 12/12/24 16/16/24 13/13/24
f 13/13/25 18/18/25 14/14/25
f 13/13/26 17/17/26 18/18/26
f 14/14/27 19/19/27 15/15/27
f 14/14/28 18/18/28 19/19/28
f 15/15/29 20/20/29 16/16/29
f 15/15/30 19/19/30 20/20/30
f 16/16/31 17/17/31 13/13/31
f 16/16/32 20/20/32 17/17/32
f 17/17/33 22/22/33 18/18/33
f 17/17/34 21/21/34 22/22/34
f 18/18/35 23/23/35 19/19/35
f 18/18/36 22/22/36 23/23/36
f 19/19/37 24/24/37 20/20/37
f 19/19/38 23/23/38 24/24/38
f 20/20/39 21/21/39 17/17/39
f 20/20/40 24/24/40 21/21/40
f 21/21/41 23/23/41 22/22/41
f 21/21/41 24/24/41 23/23/41
f 4/4/42 2/2/42 3/3/42
f 4/4/42 1/1/42 2/2/42
f 25/25/43 30/30/43 26/26/43
f 25/25/44 29/29/44 30/30/44
f 26/26/45 31/31/45 27/27/45
f 26/26/46 30/30/46 31/31/46
f 27/27/47 32/32/47 28/28/47
f 27/27/48 31/31/48 32/32/48
f 28/28/49 29/29/49 25/25/49
f 28/28/50 32/32/50 29/29/50
f 29/29/51 34/34/51 30/30/51
f 29/29/52 33/33/52 34/34/52
f 30/30/53 35/35/53 31/31/53
f 30/30/54 34/34/54 35/35/54
f 31/31/55 36/36/55 32/32/55
f 31/31/56 35/35/56 36/36/56
f 32/32/57 33/33/57 29/29/57
f 32/32/58 36/36/58 33/33/58
f 33/33/59 38/38/59 34/34/59
f 33/33/60 37/37/60 38/38/60
f 34/34/61 39/39/61 35/35/61
f 34/34/62 38/38/62 39/39/62
f 35/35/63 40/40/63 36/36/63
f 35/35/64 39/39/64 40/40/64
f 36/36/65 37/37/65 33/33/65
f 36/36/66 40/40/66 37/37/66
f 37/37/67 39/39/67 38/38/67
f 37/37/67 40/40/67 39/39/67
f 28/28/68 26/26/68 27/27/68
f 28/28/68 25/25/68 26/26/68
f 41/41/69 46/46/69 42/42/69
f 41/41/70 45/45/70 46/46/70
f 42/42/71 47/47/71 43/43/71
f 42/42/72 46/46/72 47/47/72
f 43/43/73 48/48/73 44/44/73
f 43/43/74 47/47/74 48/48/74
f 44/44/75 45/45/75 41/41/75
f 44/44/76 48/48/76 45/45/76
f 45/45/77 50/50/77 46/46/77
f 45/45/78 49/49/78 50/50/78
f 46/46/79 51/51/79 47/47/79
f 46/46/80 50/50/80 51/51/80
f 47/47/81 52/52/81 48/48/81
f 47/47/82 51/51/82 52/52/82
f 48/48/83 49/49/83 45/45/83
f 48/48/84 52/52/84 49/49/84
f 49/49/85 54/54/85 50/50/85
f 49/49/86 53/53/86 54/54/86
f 50/50/87 55/55/87 51/51/87
f 50/50/88 54/54/88 55/55/88
f 51/51/89 56/56/89 52/52/89
f 51/51/90 55/55/90 56/56/90
f 52/52/91 53/53/91 49/49/91
f 52/52/92 56/56/92 53/53/92
f 53/53/93 55/55/93 54/54/93
f 53/53/93 56/56/93 55/55/93
f 44/44/94 42/42/94 43/43/94
f 44/44/94 41/41/94 42/42/94
f 57/57/95 62/62/95 58/58/95
f 57/57/96 61/61/96 62/62/96
f 58/58/97 63/63/97 59/59/97
f 58/58/98 62/62/98 63/63/98
f 59/59/99 64/64/99 60/60/99
f 59/59/100 63/63/100 64/64/100
f 60/60/101 61/61/101 57/57/101
f 60/60/102 64/64/102 61/61/102
f 61/61/103 66/66/103 62/62/103
f 61/61/104 65/65/104 66/66/104
f 62/62/105 67/67/105 63/63/105
f 62/62/106 66/66/106 67/67/106
f 63/63/107 68/68/107 64/64/107
f 63/63/108 67/67/108 68/68/108
f 64/64/109 65/65/109 61/61/109
f 64/64/110 68/68/110 65/65/110
f 65/65/111 70/70/111 66/66/111
f 65/65/112 69/69/112 70/70/112
f 66/66/113 71/71/113 67/67/113
f 66/66/114 70/70/114 71/71/114
f 67/67/115 72/72/115 68/68/115
f 67/67/116 71/71/116 72/72/116
f 68/68/117 69/69/117 65/65/117
f 68/68/118 72/72/118 69/69/118
f 69/69/119 71/71/119 70/70/119
f 69/69/119 72/72/119 71/71/119
f 60/60/120 58/58/120 59/59/120
f 60/60/120 57/57/120 58/58/120
