# JudeanFloraV1; canonical UE cm (X east, +Y south, Z up), written with Y reflected and triangle winding reversed for the legacy OBJ importer adapter. One o object, no g groups, so the importer creates exactly one material slot.
# carob (Ceratonia siliqua), StreetTreesV1 seed 1, LOD1 bark
# height 5.5-10.0 m, crown 6.0-10.0 m; source: Zohary, M., Plants of the Bible (Cambridge University Press, 1982), species entry Ceratonia siliqua; a dense evergreen of 5.5-10 m with a broad crown
# branching is recursive with da Vinci child radii; leaf sprays are anchored to branch tips. Stylised habit, not a survey of any tree.
o SM_StreetTreesV1_Carob_S1_L1_Bark
s off
v 0.00000 46.43695 0.31272
v 34.84454 20.19920 -2.63461
v 40.08996 -23.19701 -3.34394
v 0.00000 -40.36108 -0.27181
v -40.08996 -23.23994 3.03122
v -34.84454 20.16188 2.90642
v 6.53938 34.53771 62.98555
v 31.89770 13.64520 60.34547
v 34.34348 -19.21676 59.55710
v 3.60676 -30.84468 62.11778
v -25.96878 -16.58409 65.02205
v -20.59038 15.93634 65.10146
v 13.68621 25.28274 125.00765
v 32.94584 7.98177 122.73830
v 33.62606 -17.99458 122.32235
v 9.07197 -26.13619 124.81576
v -13.64195 -13.77173 127.38570
v -8.34747 11.67085 127.16163
v 21.22025 20.41807 186.51026
v 36.53979 5.45434 185.03918
v 36.02743 -16.00078 185.46463
v 15.51387 -21.84330 187.87796
v -2.69721 -10.63360 189.73943
v 2.49682 10.17265 188.79718
v 28.70854 18.94400 248.27594
v 41.28376 5.65409 247.30556
v 39.89612 -12.58998 248.26892
v 22.23211 -16.84646 250.62788
v 7.22305 -6.43098 252.02269
v 12.31183 11.11541 250.63411
v 37.14884 19.40151 310.25905
v 47.53625 7.58517 309.52347
v 45.50241 -7.99346 310.63479
v 30.21250 -11.07398 312.82439
v 17.82216 -1.41497 313.94161
v 22.72466 13.48190 312.48758
v 33.49114 13.41090 311.75104
v 42.97317 6.42630 313.07244
v 39.35136 -4.83586 312.37530
v 27.63092 -4.81165 310.62305
v 24.00910 6.46546 310.23724
v 21.28590 10.80296 393.46057
v 29.40823 4.83523 394.28452
v 26.30578 -4.76930 393.65775
v 16.26602 -4.73750 392.44644
v 13.16356 4.88669 392.32458
v 13.72057 6.15443 475.45789
v 20.47549 1.22556 475.91596
v 17.89534 -6.73576 475.61157
v 9.54580 -6.72726 474.96537
v 6.96565 1.23931 474.87039
v 8.55247 5.68572 557.66505
v 13.91090 1.78936 558.04901
v 11.86417 -4.52334 557.99797
v 5.24078 -4.52843 557.58246
v 3.19404 1.78111 557.37671
v 8.55247 3.60629 558.41277
v 12.17753 0.07407 557.55987
v 8.55247 -3.52452 557.05571
v 4.92742 0.00770 557.90862
v 11.30787 -7.41952 613.49292
v 14.40182 -10.45773 612.87594
v 11.30787 -13.53906 612.53428
v 8.21392 -10.50086 613.15126
v 13.61907 -14.83267 669.25216
v 16.18197 -17.35635 668.78448
v 13.61907 -19.90842 668.51120
v 11.05618 -17.38473 668.97887
v 15.62204 -24.73539 724.73821
v 17.65322 -26.72749 724.32875
v 15.62204 -28.74364 724.06179
v 13.59087 -26.75154 724.47125
v 8.24503 3.08288 557.73424
v 10.30215 0.21772 560.23536
v 8.85992 -3.00111 557.73424
v 6.80280 -0.13595 555.23312
v -41.66948 -2.41380 593.09680
v -39.91292 -4.90574 595.17504
v -41.30332 -7.61905 593.09680
v -43.05988 -5.12711 591.01855
v -89.07317 -4.66478 632.00260
v -87.66128 -6.81545 633.65118
v -89.04251 -8.98593 632.00260
v -90.45440 -6.83526 630.35402
v -135.22268 -3.97000 672.54346
v -134.13637 -5.70960 673.83068
v -135.30741 -7.39334 672.54346
v -136.39372 -5.65373 671.25625
v 10.82201 -2.00789 557.73424
v 7.05488 -1.61808 559.82070
v 6.28294 2.08965 557.73424
v 10.05006 1.69984 555.64778
v 32.66771 22.86204 593.25295
v 29.45330 23.25984 595.02034
v 28.87594 26.44689 593.25295
v 32.09035 26.04910 591.48555
v 55.35202 46.39682 629.21211
v 52.64456 46.66265 630.60337
v 52.19306 49.34540 629.21211
v 54.90052 49.07957 627.82085
v 74.72097 69.23145 667.53883
v 72.54305 69.34164 668.59132
v 72.14289 71.48532 667.53883
v 74.32081 71.37512 666.48634
v 41.97994 3.57587 311.61181
v 36.29840 -2.97541 316.55830
v 26.73732 -0.81141 314.66891
v 26.50979 7.07730 308.55472
v 35.93024 9.78879 306.66533
v 39.42619 48.70047 369.54264
v 34.82126 42.78823 373.59422
v 26.58993 44.34562 372.04665
v 26.10761 51.22037 367.03862
v 34.04086 53.91181 365.49105
v 33.44723 89.70124 430.08483
v 29.70799 84.54943 433.12595
v 22.87034 85.84119 431.96434
v 22.38368 91.79134 428.20531
v 28.92056 94.17698 427.04371
v 30.58760 126.17236 493.46530
v 27.47799 122.11883 495.73570
v 22.09999 123.37603 494.86848
v 21.88581 128.20655 492.06211
v 27.13145 129.93478 491.19490
v 28.88843 125.77635 493.46530
v 25.68464 123.46039 495.21702
v 22.78470 126.14708 493.46530
v 25.98849 128.46304 491.71358
v 30.22969 155.28297 535.58151
v 27.56683 153.15870 536.99962
v 25.01320 155.41310 535.58151
v 27.67606 157.53736 534.16340
v 29.38905 181.77311 579.65954
v 27.24135 179.91075 580.78008
v 25.06790 181.74301 579.65954
v 27.21561 183.60537 578.53900
v 28.96231 208.64335 623.45022
v 27.24895 207.18561 624.34609
v 25.53793 208.64610 623.45022
v 27.25130 210.10384 622.55435
v 24.61491 123.69416 493.46530
v 23.84912 127.03246 494.70538
v 27.05822 128.22926 493.46530
v 27.82401 124.89096 492.22522
v 45.04142 113.12228 535.55434
v 44.52814 116.01538 536.56839
v 47.33951 116.86960 535.55434
v 47.85280 113.97650 534.54029
v 62.56708 101.30323 578.62299
v 62.24010 103.72179 579.44130
v 64.60656 104.31860 578.62299
v 64.93355 101.90004 577.80468
v 81.16520 89.59929 621.33776
v 80.88032 91.50860 621.99683
v 82.74341 92.01409 621.33776
v 83.02829 90.10478 620.67868
v 26.59034 128.42465 493.46530
v 27.84394 125.34737 494.95771
v 25.08280 123.49877 493.46530
v 23.82920 126.57605 491.97289
v 2.57643 135.37627 528.77469
v 3.54200 132.69403 530.01368
v 1.09044 131.23919 528.77469
v 0.12487 133.92142 527.53570
v -19.48927 144.17619 564.99246
v -18.65870 141.94304 565.96671
v -20.72154 140.75078 564.99246
v -21.55211 142.98392 564.01821
v -41.36827 150.37994 601.92711
v -40.60723 148.64400 602.68098
v -42.20091 147.61793 601.92711
v -42.96196 149.35386 601.17323
v 29.31229 -4.06200 311.61181
v 26.71146 4.14870 316.66029
v 33.47992 11.22940 314.73194
v 40.26388 7.39482 308.49169
v 37.68814 -2.05578 306.56334
v 65.92202 -23.32078 362.97107
v 63.35026 -16.31083 367.07251
v 68.99381 -10.12445 365.50590
v 75.05348 -13.31101 360.43625
v 73.15501 -21.46680 358.86964
v 99.87019 -38.35502 417.27459
v 97.65008 -32.42345 420.38248
v 102.46555 -27.40614 419.19537
v 107.66179 -30.23684 415.35381
v 106.05777 -37.00362 414.16670
v 129.69041 -55.21605 473.27298
v 128.12989 -50.40139 475.64771
v 132.16530 -46.63998 474.74064
v 136.21985 -49.12996 471.80532
v 134.69029 -54.43026 470.89826
v 129.93704 -53.24228 473.27298
v 130.44790 -49.29623 474.96537
v 134.42125 -49.08478 473.27298
v 133.91040 -53.03083 471.58059
v 148.08453 -72.15224 512.88128
v 148.64794 -68.77734 514.26220
v 152.06955 -68.78350 512.88128
v 151.50614 -72.15841 511.50037
v 162.97283 -90.93632 553.91645
v 163.46278 -88.09778 554.93588
v 166.34034 -88.22834 553.91645
v 165.85039 -91.06688 552.89702
v 176.87563 -106.52423 596.67634
v 177.17772 -104.24164 597.42584
v 179.47947 -104.30017 596.67634
v 179.17738 -106.58276 595.92684
v 132.17915 -48.67669 472.60226
v 134.75292 -51.18946 473.17683
v 132.17915 -53.65037 473.94370
v 129.60537 -51.13759 473.36913
v 133.84578 -37.80697 514.35990
v 136.04268 -39.96259 514.79430
v 133.84578 -42.08768 515.35949
v 131.64887 -39.93205 514.92509
v 134.81138 -29.79691 556.77429
v 136.62961 -31.59778 557.05162
v 134.81138 -33.36547 557.49358
v 132.99316 -31.56460 557.21625
v 137.82188 -21.52324 598.96563
v 139.26075 -22.95643 599.15694
v 137.82188 -24.34912 599.54561
v 136.38301 -22.91592 599.35430
v 132.60744 -53.70337 473.27298
v 131.40464 -51.29413 475.72600
v 131.75086 -48.62368 473.27298
v 132.95366 -51.03292 470.81996
v 171.06481 -46.83488 485.79399
v 170.02331 -44.76851 487.86937
v 170.41315 -42.48758 485.79399
v 171.45464 -44.55395 483.71861
v 209.09359 -41.47447 500.29773
v 208.15135 -39.77404 501.98495
v 208.56006 -37.87346 500.29773
v 209.50231 -39.57389 498.61051
v 246.24452 -34.93219 516.58970
v 245.44398 -33.60284 517.91369
v 245.77266 -32.08626 516.58970
v 246.57320 -33.41561 515.26571
vt 0.00000 0.00000
vt 0.16667 0.00000
vt 0.33333 0.00000
vt 0.50000 0.00000
vt 0.66667 0.00000
vt 0.83333 0.00000
vt 0.00000 0.20000
vt 0.16667 0.20000
vt 0.33333 0.20000
vt 0.50000 0.20000
vt 0.66667 0.20000
vt 0.83333 0.20000
vt 0.00000 0.40000
vt 0.16667 0.40000
vt 0.33333 0.40000
vt 0.50000 0.40000
vt 0.66667 0.40000
vt 0.83333 0.40000
vt 0.00000 0.60000
vt 0.16667 0.60000
vt 0.33333 0.60000
vt 0.50000 0.60000
vt 0.66667 0.60000
vt 0.83333 0.60000
vt 0.00000 0.80000
vt 0.16667 0.80000
vt 0.33333 0.80000
vt 0.50000 0.80000
vt 0.66667 0.80000
vt 0.83333 0.80000
vt 0.00000 1.00000
vt 0.16667 1.00000
vt 0.33333 1.00000
vt 0.50000 1.00000
vt 0.66667 1.00000
vt 0.83333 1.00000
vt 0.00000 0.00000
vt 0.20000 0.00000
vt 0.40000 0.00000
vt 0.60000 0.00000
vt 0.80000 0.00000
vt 0.00000 0.33333
vt 0.20000 0.33333
vt 0.40000 0.33333
vt 0.60000 0.33333
vt 0.80000 0.33333
vt 0.00000 0.66667
vt 0.20000 0.66667
vt 0.40000 0.66667
vt 0.60000 0.66667
vt 0.80000 0.66667
vt 0.00000 1.00000
vt 0.20000 1.00000
vt 0.40000 1.00000
vt 0.60000 1.00000
vt 0.80000 1.00000
vt 0.00000 0.00000
vt 0.25000 0.00000
vt 0.50000 0.00000
vt 0.75000 0.00000
vt 0.00000 0.33333
vt 0.25000 0.33333
vt 0.50000 0.33333
vt 0.75000 0.33333
vt 0.00000 0.66667
vt 0.25000 0.66667
vt 0.50000 0.66667
vt 0.75000 0.66667
vt 0.00000 1.00000
vt 0.25000 1.00000
vt 0.50000 1.00000
vt 0.75000 1.00000
vt 0.00000 0.00000
vt 0.25000 0.00000
vt 0.50000 0.00000
vt 0.75000 0.00000
vt 0.00000 0.33333
vt 0.25000 0.33333
vt 0.50000 0.33333
vt 0.75000 0.33333
vt 0.00000 0.66667
vt 0.25000 0.66667
vt 0.50000 0.66667
vt 0.75000 0.66667
vt 0.00000 1.00000
vt 0.25000 1.00000
vt 0.50000 1.00000
vt 0.75000 1.00000
vt 0.00000 0.00000
vt 0.25000 0.00000
vt 0.50000 0.00000
vt 0.75000 0.00000
vt 0.00000 0.33333
vt 0.25000 0.33333
vt 0.50000 0.33333
vt 0.75000 0.33333
vt 0.00000 0.66667
vt 0.25000 0.66667
vt 0.50000 0.66667
vt 0.75000 0.66667
vt 0.00000 1.00000
vt 0.25000 1.00000
vt 0.50000 1.00000
vt 0.75000 1.00000
vt 0.00000 0.00000
vt 0.20000 0.00000
vt 0.40000 0.00000
vt 0.60000 0.00000
vt 0.80000 0.00000
vt 0.00000 0.33333
vt 0.20000 0.33333
vt 0.40000 0.33333
vt 0.60000 0.33333
vt 0.80000 0.33333
vt 0.00000 0.66667
vt 0.20000 0.66667
vt 0.40000 0.66667
vt 0.60000 0.66667
vt 0.80000 0.66667
vt 0.00000 1.00000
vt 0.20000 1.00000
vt 0.40000 1.00000
vt 0.60000 1.00000
vt 0.80000 1.00000
vt 0.00000 0.00000
vt 0.25000 0.00000
vt 0.50000 0.00000
vt 0.75000 0.00000
vt 0.00000 0.33333
vt 0.25000 0.33333
vt 0.50000 0.33333
vt 0.75000 0.33333
vt 0.00000 0.66667
vt 0.25000 0.66667
vt 0.50000 0.66667
vt 0.75000 0.66667
vt 0.00000 1.00000
vt 0.25000 1.00000
vt 0.50000 1.00000
vt 0.75000 1.00000
vt 0.00000 0.00000
vt 0.25000 0.00000
vt 0.50000 0.00000
vt 0.75000 0.00000
vt 0.00000 0.33333
vt 0.25000 0.33333
vt 0.50000 0.33333
vt 0.75000 0.33333
vt 0.00000 0.66667
vt 0.25000 0.66667
vt 0.50000 0.66667
vt 0.75000 0.66667
vt 0.00000 1.00000
vt 0.25000 1.00000
vt 0.50000 1.00000
vt 0.75000 1.00000
vt 0.00000 0.00000
vt 0.25000 0.00000
vt 0.50000 0.00000
vt 0.75000 0.00000
vt 0.00000 0.33333
vt 0.25000 0.33333
vt 0.50000 0.33333
vt 0.75000 0.33333
vt 0.00000 0.66667
vt 0.25000 0.66667
vt 0.50000 0.66667
vt 0.75000 0.66667
vt 0.00000 1.00000
vt 0.25000 1.00000
vt 0.50000 1.00000
vt 0.75000 1.00000
vt 0.00000 0.00000
vt 0.20000 0.00000
vt 0.40000 0.00000
vt 0.60000 0.00000
vt 0.80000 0.00000
vt 0.00000 0.33333
vt 0.20000 0.33333
vt 0.40000 0.33333
vt 0.60000 0.33333
vt 0.80000 0.33333
vt 0.00000 0.66667
vt 0.20000 0.66667
vt 0.40000 0.66667
vt 0.60000 0.66667
vt 0.80000 0.66667
vt 0.00000 1.00000
vt 0.20000 1.00000
vt 0.40000 1.00000
vt 0.60000 1.00000
vt 0.80000 1.00000
vt 0.00000 0.00000
vt 0.25000 0.00000
vt 0.50000 0.00000
vt 0.75000 0.00000
vt 0.00000 0.33333
vt 0.25000 0.33333
vt 0.50000 0.33333
vt 0.75000 0.33333
vt 0.00000 0.66667
vt 0.25000 0.66667
vt 0.50000 0.66667
vt 0.75000 0.66667
vt 0.00000 1.00000
vt 0.25000 1.00000
vt 0.50000 1.00000
vt 0.75000 1.00000
vt 0.00000 0.00000
vt 0.25000 0.00000
vt 0.50000 0.00000
vt 0.75000 0.00000
vt 0.00000 0.33333
vt 0.25000 0.33333
vt 0.50000 0.33333
vt 0.75000 0.33333
vt 0.00000 0.66667
vt 0.25000 0.66667
vt 0.50000 0.66667
vt 0.75000 0.66667
vt 0.00000 1.00000
vt 0.25000 1.00000
vt 0.50000 1.00000
vt 0.75000 1.00000
vt 0.00000 0.00000
vt 0.25000 0.00000
vt 0.50000 0.00000
vt 0.75000 0.00000
vt 0.00000 0.33333
vt 0.25000 0.33333
vt 0.50000 0.33333
vt 0.75000 0.33333
vt 0.00000 0.66667
vt 0.25000 0.66667
vt 0.50000 0.66667
vt 0.75000 0.66667
vt 0.00000 1.00000
vt 0.25000 1.00000
vt 0.50000 1.00000
vt 0.75000 1.00000
vn 0.6038 0.7895 0.1104
vn 0.6388 0.7654 0.0787
vn 0.9895 0.1183 0.0829
vn 0.9959 0.0728 0.0542
vn 0.3984 -0.9099 0.1158
vn 0.3590 -0.9288 0.0916
vn -0.3734 -0.9095 0.1827
vn -0.4158 -0.8951 0.1606
vn -0.9662 0.1174 0.2294
vn -0.9661 0.1593 0.2030
vn -0.5786 0.7881 0.2100
vn -0.5465 0.8177 0.1808
vn 0.6384 0.7674 0.0589
vn 0.6701 0.7415 0.0334
vn 0.9972 0.0740 0.0100
vn 0.9995 0.0264 -0.0144
vn 0.3564 -0.9335 0.0390
vn 0.3167 -0.9483 0.0221
vn -0.4211 -0.8985 0.1238
vn -0.4661 -0.8783 0.1066
vn -0.9664 0.1593 0.2016
vn -0.9625 0.2019 0.1811
vn -0.5459 0.8172 0.1848
vn -0.5077 0.8469 0.1584
vn 0.6677 0.7444 -0.0083
vn 0.6970 0.7164 -0.0287
vn 0.9989 0.0268 -0.0388
vn 0.9980 -0.0250 -0.0586
vn 0.3175 -0.9477 0.0321
vn 0.2760 -0.9609 0.0198
vn -0.4633 -0.8773 0.1255
vn -0.5128 -0.8514 0.1103
vn -0.9637 0.2021 0.1745
vn -0.9567 0.2459 0.1556
vn -0.5119 0.8492 0.1299
vn -0.4677 0.8778 0.1036
vn 0.6950 0.7169 -0.0552
vn 0.7219 0.6883 -0.0711
vn 0.9979 -0.0250 -0.0601
vn 0.9940 -0.0796 -0.0755
vn 0.2787 -0.9593 0.0465
vn 0.2389 -0.9703 0.0380
vn -0.5089 -0.8497 0.1384
vn -0.5578 -0.8205 0.1251
vn -0.9579 0.2458 0.1483
vn -0.9492 0.2857 0.1319
vn -0.4712 0.8786 0.0781
vn -0.4240 0.9041 0.0535
vn 0.7197 0.6879 -0.0937
vn 0.7435 0.6602 -0.1061
vn 0.9933 -0.0800 -0.0834
vn 0.9862 -0.1355 -0.0949
vn 0.2413 -0.9687 0.0589
vn 0.2046 -0.9774 0.0536
vn -0.5526 -0.8178 0.1608
vn -0.5994 -0.7863 0.1499
vn -0.9466 0.2863 0.1484
vn -0.9373 0.3216 0.1344
vn -0.4243 0.9041 0.0511
vn -0.3758 0.9263 0.0278
vn 0.1310 0.0535 0.9899
vn -0.0793 0.0067 -0.9968
vn 0.5791 0.8075 0.1125
vn 0.5809 0.8062 0.1125
vn 0.9383 -0.3111 0.1509
vn 0.9378 -0.3128 0.1505
vn -0.0022 -1.0000 0.0006
vn -0.0032 -1.0000 0.0003
vn -0.9427 -0.3072 -0.1305
vn -0.9431 -0.3057 -0.1307
vn -0.5834 0.8099 -0.0613
vn -0.5820 0.8108 -0.0613
vn 0.5826 0.8067 0.0994
vn 0.5821 0.8070 0.0995
vn 0.9460 -0.3114 0.0896
vn 0.9464 -0.3102 0.0899
vn -0.0003 -0.9997 -0.0241
vn 0.0008 -0.9997 -0.0239
vn -0.9480 -0.3067 -0.0847
vn -0.9476 -0.3079 -0.0846
vn -0.5880 0.8088 -0.0084
vn -0.5879 0.8089 -0.0084
vn 0.5871 0.8085 0.0414
vn 0.5857 0.8095 0.0414
vn 0.9475 -0.3101 0.0777
vn 0.9482 -0.3081 0.0779
vn -0.0031 -0.9996 0.0264
vn -0.0009 -0.9996 0.0268
vn -0.9504 -0.3083 -0.0414
vn -0.9500 -0.3095 -0.0413
vn -0.5862 0.8095 -0.0322
vn -0.5875 0.8086 -0.0322
vn -0.0626 0.0122 0.9980
vn 0.1479 0.0137 -0.9889
vn 0.7066 0.6998 0.1048
vn 0.7073 0.6991 0.1046
vn 0.7066 -0.6894 -0.1595
vn 0.7054 -0.6906 -0.1598
vn -0.7059 -0.7023 -0.0916
vn -0.7069 -0.7013 -0.0915
vn -0.7059 0.6869 0.1728
vn -0.7046 0.6883 0.1728
vn 0.7057 0.7055 0.0646
vn 0.7061 0.7051 0.0645
vn 0.7075 -0.6983 -0.1087
vn 0.7072 -0.6986 -0.1087
vn -0.7049 -0.7074 -0.0513
vn -0.7054 -0.7069 -0.0513
vn -0.7071 0.6965 0.1219
vn -0.7068 0.6968 0.1219
vn 0.7073 0.6999 0.0993
vn 0.7069 0.7003 0.0995
vn 0.7063 -0.6947 -0.1360
vn 0.7069 -0.6942 -0.1358
vn -0.7070 -0.7020 -0.0862
vn -0.7064 -0.7025 -0.0863
vn -0.7057 0.6927 0.1491
vn -0.7064 0.6919 0.1491
vn 0.0356 -0.1663 0.9854
vn -0.0489 0.1867 -0.9812
vn 0.3289 0.7439 0.5817
vn 0.3384 0.7319 0.5915
vn 0.4711 -0.6631 0.5817
vn 0.4661 -0.6760 0.5708
vn -0.3382 -0.7449 -0.5751
vn -0.3458 -0.7326 -0.5862
vn -0.4804 0.6621 -0.5751
vn -0.4733 0.6756 -0.5653
vn 0.4060 0.7369 0.5404
vn 0.4265 0.7098 0.5607
vn 0.4775 -0.6753 0.5622
vn 0.4626 -0.7038 0.5391
vn -0.4156 -0.7372 -0.5327
vn -0.4326 -0.7100 -0.5557
vn -0.4872 0.6745 -0.5546
vn -0.4686 0.7038 -0.5340
vn 0.4700 0.7103 0.5241
vn 0.4801 0.6954 0.5346
vn 0.4543 -0.7039 0.5461
vn 0.4451 -0.7183 0.5347
vn -0.4783 -0.7101 -0.5167
vn -0.4871 -0.6953 -0.5285
vn -0.4628 0.7038 -0.5389
vn -0.4521 0.7185 -0.5285
vn -0.7516 0.0186 0.6594
vn 0.8139 0.0823 -0.5752
vn 0.1818 -0.8538 0.4878
vn 0.1665 -0.8529 0.4948
vn -0.8679 0.0938 0.4878
vn -0.8715 0.1075 0.4785
vn -0.1752 0.8611 -0.4773
vn -0.1612 0.8588 -0.4864
vn 0.8745 -0.0865 -0.4773
vn 0.8768 -0.1018 -0.4700
vn 0.1521 -0.8684 0.4720
vn 0.1562 -0.8687 0.4700
vn -0.8652 0.1141 0.4883
vn -0.8641 0.1093 0.4913
vn -0.1461 0.8745 -0.4625
vn -0.1504 0.8752 -0.4598
vn 0.8712 -0.1078 -0.4790
vn 0.8705 -0.1030 -0.4812
vn 0.1448 -0.8811 0.4502
vn 0.1682 -0.8819 0.4404
vn -0.9009 0.0705 0.4282
vn -0.8965 0.0489 0.4404
vn -0.1396 0.8865 -0.4411
vn -0.1623 0.8887 -0.4289
vn 0.9057 -0.0649 -0.4190
vn 0.9024 -0.0421 -0.4289
vn 0.4046 0.4628 0.7888
vn -0.4573 -0.5065 -0.7310
vn 0.8218 -0.4338 0.3694
vn 0.8397 -0.4099 0.3563
vn -0.2874 -0.7530 0.5919
vn -0.2562 -0.7572 0.6009
vn -0.9997 -0.0216 0.0094
vn -0.9984 -0.0457 0.0334
vn -0.3308 0.7498 -0.5730
vn -0.3619 0.7429 -0.5632
vn 0.7950 0.4950 -0.3506
vn 0.7745 0.5178 -0.3635
vn 0.8395 -0.4082 0.3585
vn 0.8436 -0.4023 0.3557
vn -0.2534 -0.8026 0.5401
vn -0.2440 -0.8036 0.5428
vn -0.9970 -0.0770 -0.0096
vn -0.9965 -0.0839 -0.0038
vn -0.3633 0.7655 -0.5310
vn -0.3723 0.7628 -0.5286
vn 0.7706 0.5604 -0.3034
vn 0.7654 0.5659 -0.3065
vn 0.8476 -0.4411 0.2949
vn 0.8304 -0.4659 0.3056
vn -0.2418 -0.8346 0.4950
vn -0.2725 -0.8293 0.4879
vn -0.9976 -0.0636 0.0285
vn -0.9992 -0.0382 0.0105
vn -0.3754 0.8051 -0.4592
vn -0.3454 0.8141 -0.4669
vn 0.7647 0.5728 -0.2951
vn 0.7854 0.5498 -0.2845
vn -0.0222 0.5015 0.8649
vn 0.0177 -0.6122 -0.7905
vn 0.6708 -0.6184 0.4093
vn 0.6922 -0.6012 0.3992
vn -0.7408 -0.5327 0.4093
vn -0.7203 -0.5497 0.4232
vn -0.6705 0.6243 -0.4009
vn -0.6921 0.6094 -0.3868
vn 0.7411 0.5385 -0.4009
vn 0.7209 0.5581 -0.4109
vn 0.6920 -0.6137 0.3801
vn 0.7113 -0.5964 0.3720
vn -0.7217 -0.5938 0.3556
vn -0.7029 -0.6093 0.3671
vn -0.6918 0.6195 -0.3711
vn -0.7113 0.6038 -0.3598
vn 0.7216 0.5994 -0.3465
vn 0.7028 0.6166 -0.3549
vn 0.7113 -0.5959 0.3729
vn 0.7066 -0.6000 0.3751
vn -0.7029 -0.6027 0.3778
vn -0.7076 -0.5989 0.3751
vn -0.7113 0.6024 -0.3621
vn -0.7066 0.6063 -0.3649
vn 0.7029 0.6093 -0.3670
vn 0.7076 0.6051 -0.3649
vn 0.0004 0.5232 0.8522
vn -0.0347 -0.5719 -0.8196
vn -0.8779 -0.3302 0.3468
vn -0.8887 -0.2839 0.3600
vn -0.2072 0.9148 0.3467
vn -0.1650 0.9307 0.3265
vn 0.8840 0.3269 -0.3341
vn 0.8918 0.2822 -0.3536
vn 0.2133 -0.9181 -0.3341
vn 0.1679 -0.9324 -0.3200
vn -0.9151 -0.2679 0.3012
vn -0.9218 -0.2302 0.3119
vn -0.1612 0.9283 0.3351
vn -0.1257 0.9387 0.3211
vn 0.9199 0.2646 -0.2893
vn 0.9249 0.2280 -0.3043
vn 0.1664 -0.9315 -0.3234
vn 0.1289 -0.9408 -0.3135
vn -0.9132 -0.2359 0.3323
vn -0.9111 -0.2493 0.3284
vn -0.1248 0.9381 0.3232
vn -0.1374 0.9345 0.3284
vn 0.9172 0.2333 -0.3229
vn 0.9156 0.2463 -0.3178
vn 0.1287 -0.9407 -0.3138
vn 0.1419 -0.9375 -0.3178
vn 0.3825 -0.2500 0.8895
vn -0.4239 0.2284 -0.8765
vn 0.7538 0.5088 0.4159
vn 0.7684 0.4748 0.4291
vn 0.3399 -0.8435 0.4159
vn 0.3117 -0.8633 0.3970
vn -0.7622 -0.5062 -0.4035
vn -0.7734 -0.4732 -0.4218
vn -0.3484 0.8461 -0.4035
vn -0.3164 0.8649 -0.3896
vn 0.8025 0.4628 0.3765
vn 0.8026 0.4628 0.3765
vn 0.3039 -0.8604 0.4090
vn 0.3041 -0.8604 0.4091
vn -0.8087 -0.4603 -0.3662
vn -0.8087 -0.4605 -0.3661
vn -0.3105 0.8629 -0.3988
vn -0.3104 0.8629 -0.3988
vn 0.7944 0.4656 0.3900
vn 0.7775 0.5041 0.3759
vn 0.3353 -0.8718 0.3571
vn 0.3693 -0.8499 0.3759
vn -0.7997 -0.4638 -0.3813
vn -0.7850 -0.5019 -0.3632
vn -0.3403 0.8734 -0.3483
vn -0.3768 0.8521 -0.3632
vn -0.5004 0.1509 0.8525
vn 0.5541 -0.1696 -0.8150
vn -0.7899 -0.4827 0.3782
vn -0.7819 -0.5026 0.3688
vn -0.4866 0.6300 0.6053
vn -0.5008 0.6119 0.6123
vn 0.4995 0.8662 0.0107
vn 0.4842 0.8745 0.0291
vn 0.8058 -0.1005 -0.5837
vn 0.8135 -0.0787 -0.5762
vn 0.0088 -0.9342 -0.3566
vn 0.0308 -0.9301 -0.3661
vn -0.7897 -0.4988 0.3573
vn -0.7948 -0.4871 0.3620
vn -0.5460 0.6361 0.5452
vn -0.5388 0.6452 0.5417
vn 0.4639 0.8859 -0.0024
vn 0.4722 0.8814 -0.0107
vn 0.8436 -0.0948 -0.5286
vn 0.8403 -0.1059 -0.5316
vn 0.0696 -0.9494 -0.3064
vn 0.0566 -0.9519 -0.3012
vn -0.8288 -0.4696 0.3043
vn -0.8438 -0.4311 0.3195
vn -0.5512 0.6521 0.5205
vn -0.5222 0.6833 0.5103
vn 0.4991 0.8657 0.0372
vn 0.5290 0.8485 0.0110
vn 0.8703 -0.1226 -0.4769
vn 0.8571 -0.1638 -0.4884
vn 0.0503 -0.9486 -0.3124
vn 0.0087 -0.9546 -0.2976
vn 0.4474 -0.2748 0.8511
vn -0.5442 0.3076 -0.7806
vn -0.9158 -0.0522 0.3982
vn -0.9118 -0.0157 0.4103
vn 0.1212 0.9093 0.3982
vn 0.1551 0.9118 0.3802
vn 0.9220 0.0456 -0.3846
vn 0.9155 0.0117 -0.4021
vn -0.1151 -0.9159 -0.3846
vn -0.1517 -0.9158 -0.3719
vn -0.9374 0.0141 0.3481
vn -0.9344 0.0339 0.3546
vn 0.1545 0.9125 0.3787
vn 0.1727 0.9126 0.3706
vn 0.9418 -0.0200 -0.3355
vn 0.9381 -0.0382 -0.3444
vn -0.1495 -0.9185 -0.3662
vn -0.1693 -0.9173 -0.3603
vn -0.9452 0.0471 0.3230
vn -0.9484 0.0217 0.3163
vn 0.1513 0.9397 0.3067
vn 0.1269 0.9402 0.3163
vn 0.9486 -0.0515 -0.3124
vn 0.9527 -0.0267 -0.3028
vn -0.1477 -0.9437 -0.2960
vn -0.1226 -0.9451 -0.3028
vn 0.2843 -0.3329 0.8991
vn -0.3763 0.4059 -0.8328
vn 0.7068 0.6772 -0.2046
vn 0.7059 0.6781 -0.2047
vn 0.7068 -0.6882 0.1637
vn 0.7073 -0.6877 0.1636
vn -0.7063 -0.6740 0.2165
vn -0.7052 -0.6750 0.2168
vn -0.7063 0.6914 -0.1518
vn -0.7071 0.6907 -0.1515
vn 0.7074 0.6914 -0.1467
vn 0.7073 0.6915 -0.1467
vn 0.7064 -0.6962 0.1279
vn 0.7072 -0.6954 0.1278
vn -0.7073 -0.6889 0.1588
vn -0.7069 -0.6892 0.1589
vn -0.7058 0.6988 -0.1159
vn -0.7067 0.6980 -0.1156
vn 0.7057 0.6841 -0.1845
vn 0.7058 0.6840 -0.1845
vn 0.7060 -0.7012 0.0998
vn 0.7058 -0.7013 0.0998
vn -0.7049 -0.6815 0.1966
vn -0.7053 0.7035 -0.0876
vn -0.7049 0.7038 -0.0877
vn 0.0698 0.2006 0.9772
vn -0.0387 -0.2602 -0.9648
vn -0.0887 -0.7320 0.6755
vn -0.0911 -0.7282 0.6793
vn -0.3239 0.6625 0.6755
vn -0.3238 0.6664 0.6716
vn 0.1014 0.7342 -0.6714
vn 0.1028 0.7302 -0.6754
vn 0.3365 -0.6603 -0.6714
vn 0.3355 -0.6647 -0.6675
vn -0.1477 -0.7369 0.6596
vn -0.1478 -0.7367 0.6599
vn -0.3344 0.6649 0.6679
vn 0.1597 0.7385 -0.6551
vn 0.3465 -0.6630 -0.6636
vn 0.3464 -0.6633 -0.6633
vn -0.1579 -0.7382 0.6558
vn -0.1551 -0.7425 0.6517
vn -0.3856 0.6575 0.6473
vn -0.3864 0.6527 0.6517
vn 0.1696 0.7399 -0.6510
vn 0.1672 0.7445 -0.6464
vn 0.3971 -0.6556 -0.6423
vn 0.3985 -0.6507 -0.6464
vn 0.9055 0.1501 0.3968
vn -0.9391 -0.1584 -0.3049
f 1/1/1 8/8/1 2/2/1
f 1/1/2 7/7/2 8/8/2
f 2/2/3 9/9/3 3/3/3
f 2/2/4 8/8/4 9/9/4
f 3/3/5 10/10/5 4/4/5
f 3/3/6 9/9/6 10/10/6
f 4/4/7 11/11/7 5/5/7
f 4/4/8 10/10/8 11/11/8
f 5/5/9 12/12/9 6/6/9
f 5/5/10 11/11/10 12/12/10
f 6/6/11 7/7/11 1/1/11
f 6/6/12 12/12/12 7/7/12
f 7/7/13 14/14/13 8/8/13
f 7/7/14 13/13/14 14/14/14
f 8/8/15 15/15/15 9/9/15
f 8/8/16 14/14/16 15/15/16
f 9/9/17 16/16/17 10/10/17
f 9/9/18 15/15/18 16/16/18
f 10/10/19 17/17/19 11/11/19
f 10/10/20 16/16/20 17/17/20
f 11/11/21 18/18/21 12/12/21
f 11/11/22 17/17/22 18/18/22
f 12/12/23 13/13/23 7/7/23
f 12/12/24 18/18/24 13/13/24
f 13/13/25 20/20/25 14/14/25
f 13/13/26 19/19/26 20/20/26
f 14/14/27 21/21/27 15/15/27
f 14/14/28 20/20/28 21/21/28
f 15/15/29 22/22/29 16/16/29
f 15/15/30 21/21/30 22/22/30
f 16/16/31 23/23/31 17/17/31
f 16/16/32 22/22/32 23/23/32
f 17/17/33 24/24/33 18/18/33
f 17/17/34 23/23/34 24/24/34
f 18/18/35 19/19/35 13/13/35
f 18/18/36 24/24/36 19/19/36
f 19/19/37 26/26/37 20/20/37
f 19/19/38 25/25/38 26/26/38
f 20/20/39 27/27/39 21/21/39
f 20/20/40 26/26/40 27/27/40
f 21/21/41 28/28/41 22/22/41
f 21/21/42 27/27/42 28/28/42
f 22/22/43 29/29/43 23/23/43
f 22/22/44 28/28/44 29/29/44
f 23/23/45 30/30/45 24/24/45
f 23/23/46 29/29/46 30/30/46
f 24/24/47 25/25/47 19/19/47
f 24/24/48 30/30/48 25/25/48
f 25/25/49 32/32/49 26/26/49
f 25/25/50 31/31/50 32/32/50
f 26/26/51 33/33/51 27/27/51
f 26/26/52 32/32/52 33/33/52
f 27/27/53 34/34/53 28/28/53
f 27/27/54 33/33/54 34/34/54
f 28/28/55 35/35/55 29/29/55
f 28/28/56 34/34/56 35/35/56
f 29/29/57 36/36/57 30/30/57
f 29/29/58 35/35/58 36/36/58
f 30/30/59 31/31/59 25/25/59
f 30/30/60 36/36/60 31/31/60
f 31/31/61 33/33/61 32/32/61
f 31/31/61 34/34/61 33/33/61
f 31/31/61 35/35/61 34/34/61
f 31/31/61 36/36/61 35/35/61
f 6/6/62 4/4/62 5/5/62
f 6/6/62 3/3/62 4/4/62
f 6/6/62 2/2/62 3/3/62
f 6/6/62 1/1/62 2/2/62
f 37/37/63 43/43/63 38/38/63
f 37/37/64 42/42/64 43/43/64
f 38/38/65 44/44/65 39/39/65
f 38/38/66 43/43/66 44/44/66
f 39/39/67 45/45/67 40/40/67
f 39/39/68 44/44/68 45/45/68
f 40/40/69 46/46/69 41/41/69
f 40/40/70 45/45/70 46/46/70
f 41/41/71 42/42/71 37/37/71
f 41/41/72 46/46/72 42/42/72
f 42/42/73 48/48/73 43/43/73
f 42/42/74 47/47/74 48/48/74
f 43/43/75 49/49/75 44/44/75
f 43/43/76 48/48/76 49/49/76
f 44/44/77 50/50/77 45/45/77
f 44/44/78 49/49/78 50/50/78
f 45/45/79 51/51/79 46/46/79
f 45/45/80 50/50/80 51/51/80
f 46/46/81 47/47/81 42/42/81
f 46/46/82 51/51/82 47/47/82
f 47/47/83 53/53/83 48/48/83
f 47/47/84 52/52/84 53/53/84
f 48/48/85 54/54/85 49/49/85
f 48/48/86 53/53/86 54/54/86
f 49/49/87 55/55/87 50/50/87
f 49/49/88 54/54/88 55/55/88
f 50/50/89 56/56/89 51/51/89
f 50/50/90 55/55/90 56/56/90
f 51/51/91 52/52/91 47/47/91
f 51/51/92 56/56/92 52/52/92
f 52/52/93 54/54/93 53/53/93
f 52/52/93 55/55/93 54/54/93
f 52/52/93 56/56/93 55/55/93
f 41/41/94 39/39/94 40/40/94
f 41/41/94 38/38/94 39/39/94
f 41/41/94 37/37/94 38/38/94
f 57/57/95 62/62/95 58/58/95
f 57/57/96 61/61/96 62/62/96
f 58/58/97 63/63/97 59/59/97
f 58/58/98 62/62/98 63/63/98
f 59/59/99 64/64/99 60/60/99
f 59/59/100 63/63/100 64/64/100
f 60/60/101 61/61/101 57/57/101
f 60/60/102 64/64/102 61/61/102
f 61/61/103 66/66/103 62/62/103
f 61/61/104 65/65/104 66/66/104
f 62/62/105 67/67/105 63/63/105
f 62/62/106 66/66/106 67/67/106
f 63/63/107 68/68/107 64/64/107
f 63/63/108 67/67/108 68/68/108
f 64/64/109 65/65/109 61/61/109
f 64/64/110 68/68/110 65/65/110
f 65/65/111 70/70/111 66/66/111
f 65/65/112 69/69/112 70/70/112
f 66/66/113 71/71/113 67/67/113
f 66/66/114 70/70/114 71/71/114
f 67/67/115 72/72/115 68/68/115
f 67/67/116 71/71/116 72/72/116
f 68/68/117 69/69/117 65/65/117
f 68/68/118 72/72/118 69/69/118
f 69/69/119 71/71/119 70/70/119
f 69/69/119 72/72/119 71/71/119
f 60/60/120 58/58/120 59/59/120
f 60/60/120 57/57/120 58/58/120
f 73/73/121 78/78/121 74/74/121
f 73/73/122 77/77/122 78/78/122
f 74/74/123 79/79/123 75/75/123
f 74/74/124 78/78/124 79/79/124
f 75/75/125 80/80/125 76/76/125
f 75/75/126 79/79/126 80/80/126
f 76/76/127 77/77/127 73/73/127
f 76/76/128 80/80/128 77/77/128
f 77/77/129 82/82/129 78/78/129
f 77/77/130 81/81/130 82/82/130
f 78/78/131 83/83/131 79/79/131
f 78/78/132 82/82/132 83/83/132
f 79/79/133 84/84/133 80/80/133
f 79/79/134 83/83/134 84/84/134
f 80/80/135 81/81/135 77/77/135
f 80/80/136 84/84/136 81/81/136
f 81/81/137 86/86/137 82/82/137
f 81/81/138 85/85/138 86/86/138
f 82/82/139 87/87/139 83/83/139
f 82/82/140 86/86/140 87/87/140
f 83/83/141 88/88/141 84/84/141
f 83/83/142 87/87/142 88/88/142
f 84/84/143 85/85/143 81/81/143
f 84/84/144 88/88/144 85/85/144
f 85/85/145 87/87/145 86/86/145
f 85/85/145 88/88/145 87/87/145
f 76/76/146 74/74/146 75/75/146
f 76/76/146 73/73/146 74/74/146
f 89/89/147 94/94/147 90/90/147
f 89/89/148 93/93/148 94/94/148
f 90/90/149 95/95/149 91/91/149
f 90/90/150 94/94/150 95/95/150
f 91/91/151 96/96/151 92/92/151
f 91/91/152 95/95/152 96/96/152
f 92/92/153 93/93/153 89/89/153
f 92/92/154 96/96/154 93/93/154
f 93/93/155 98/98/155 94/94/155
f 93/93/156 97/97/156 98/98/156
f 94/94/157 99/99/157 95/95/157
f 94/94/158 98/98/158 99/99/158
f 95/95/159 100/100/159 96/96/159
f 95/95/160 99/99/160 100/100/160
f 96/96/161 97/97/161 93/93/161
f 96/96/162 100/100/162 97/97/162
f 97/97/163 102/102/163 98/98/163
f 97/97/164 101/101/164 102/102/164
f 98/98/165 103/103/165 99/99/165
f 98/98/166 102/102/166 103/103/166
f 99/99/167 104/104/167 100/100/167
f 99/99/168 103/103/168 104/104/168
f 100/100/169 101/101/169 97/97/169
f 100/100/170 104/104/170 101/101/170
f 101/101/171 103/103/171 102/102/171
f 101/101/171 104/104/171 103/103/171
f 92/92/172 90/90/172 91/91/172
f 92/92/172 89/89/172 90/90/172
f 105/105/173 111/111/173 106/106/173
f 105/105/174 110/110/174 111/111/174
f 106/106/175 112/112/175 107/107/175
f 106/106/176 111/111/176 112/112/176
f 107/107/177 113/113/177 108/108/177
f 107/107/178 112/112/178 113/113/178
f 108/108/179 114/114/179 109/109/179
f 108/108/180 113/113/180 114/114/180
f 109/109/181 110/110/181 105/105/181
f 109/109/182 114/114/182 110/110/182
f 110/110/183 116/116/183 111/111/183
f 110/110/184 115/115/184 116/116/184
f 111/111/185 117/117/185 112/112/185
f 111/111/186 116/116/186 117/117/186
f 112/112/187 118/118/187 113/113/187
f 112/112/188 117/117/188 118/118/188
f 113/113/189 119/119/189 114/114/189
f 113/113/190 118/118/190 119/119/190
f 114/114/191 115/115/191 110/110/191
f 114/114/192 119/119/192 115/115/192
f 115/115/193 121/121/193 116/116/193
f 115/115/194 120/120/194 121/121/194
f 116/116/195 122/122/195 117/117/195
f 116/116/196 121/121/196 122/122/196
f 117/117/197 123/123/197 118/118/197
f 117/117/198 122/122/198 123/123/198
f 118/118/199 124/124/199 119/119/199
f 118/118/200 123/123/200 124/124/200
f 119/119/201 120/120/201 115/115/201
f 119/119/202 124/124/202 120/120/202
f 120/120/203 122/122/203 121/121/203
f 120/120/203 123/123/203 122/122/203
f 120/120/203 124/124/203 123/123/203
f 109/109/204 107/107/204 108/108/204
f 109/109/204 106/106/204 107/107/204
f 109/109/204 105/105/204 106/106/204
f 125/125/205 130/130/205 126/126/205
f 125/125/206 129/129/206 130/130/206
f 126/126/207 131/131/207 127/127/207
f 126/126/208 130/130/208 131/131/208
f 127/127/209 132/132/209 128/128/209
f 127/127/210 131/131/210 132/132/210
f 128/128/211 129/129/211 125/125/211
f 128/128/212 132/132/212 129/129/212
f 129/129/213 134/134/213 130/130/213
f 129/129/214 133/133/214 134/134/214
f 130/130/215 135/135/215 131/131/215
f 130/130/216 134/134/216 135/135/216
f 131/131/217 136/136/217 132/132/217
f 131/131/218 135/135/218 136/136/218
f 132/132/219 133/133/219 129/129/219
f 132/132/220 136/136/220 133/133/220
f 133/133/221 138/138/221 134/134/221
f 133/133/222 137/137/222 138/138/222
f 134/134/223 139/139/223 135/135/223
f 134/134/224 138/138/224 139/139/224
f 135/135/225 140/140/225 136/136/225
f 135/135/226 139/139/226 140/140/226
f 136/136/227 137/137/227 133/133/227
f 136/136/228 140/140/228 137/137/228
f 137/137/229 139/139/229 138/138/229
f 137/137/229 140/140/229 139/139/229
f 128/128/230 126/126/230 127/127/230
f 128/128/230 125/125/230 126/126/230
f 141/141/231 146/146/231 142/142/231
f 141/141/232 145/145/232 146/146/232
f 142/142/233 147/147/233 143/143/233
f 142/142/234 146/146/234 147/147/234
f 143/143/235 148/148/235 144/144/235
f 143/143/236 147/147/236 148/148/236
f 144/144/237 145/145/237 141/141/237
f 144/144/238 148/148/238 145/145/238
f 145/145/239 150/150/239 146/146/239
f 145/145/240 149/149/240 150/150/240
f 146/146/241 151/151/241 147/147/241
f 146/146/242 150/150/242 151/151/242
f 147/147/243 152/152/243 148/148/243
f 147/147/244 151/151/244 152/152/244
f 148/148/245 149/149/245 145/145/245
f 148/148/246 152/152/246 149/149/246
f 149/149/247 154/154/247 150/150/247
f 149/149/248 153/153/248 154/154/248
f 150/150/249 155/155/249 151/151/249
f 150/150/250 154/154/250 155/155/250
f 151/151/251 156/156/251 152/152/251
f 151/151/252 155/155/252 156/156/252
f 152/152/253 153/153/253 149/149/253
f 152/152/254 156/156/254 153/153/254
f 153/153/255 155/155/255 154/154/255
f 153/153/255 156/156/255 155/155/255
f 144/144/256 142/142/256 143/143/256
f 144/144/256 141/141/256 142/142/256
f 157/157/257 162/162/257 158/158/257
f 157/157/258 161/161/258 162/162/258
f 158/158/259 163/163/259 159/159/259
f 158/158/260 162/162/260 163/163/260
f 159/159/261 164/164/261 160/160/261
f 159/159/262 163/163/262 164/164/262
f 160/160/263 161/161/263 157/157/263
f 160/160/264 164/164/264 161/161/264
f 161/161/265 166/166/265 162/162/265
f 161/161/266 165/165/266 166/166/266
f 162/162/267 167/167/267 163/163/267
f 162/162/268 166/166/268 167/167/268
f 163/163/269 168/168/269 164/164/269
f 163/163/270 167/167/270 168/168/270
f 164/164/271 165/165/271 161/161/271
f 164/164/272 168/168/272 165/165/272
f 165/165/273 170/170/273 166/166/273
f 165/165/274 169/169/274 170/170/274
f 166/166/275 171/171/275 167/167/275
f 166/166/276 170/170/276 171/171/276
f 167/167/277 172/172/277 168/168/277
f 167/167/278 171/171/278 172/172/278
f 168/168/279 169/169/279 165/165/279
f 168/168/280 172/172/280 169/169/280
f 169/169/281 171/171/281 170/170/281
f 169/169/281 172/172/281 171/171/281
f 160/160/282 158/158/282 159/159/282
f 160/160/282 157/157/282 158/158/282
f 173/173/283 179/179/283 174/174/283
f 173/173/284 178/178/284 179/179/284
f 174/174/285 180/180/285 175/175/285
f 174/174/286 179/179/286 180/180/286
f 175/175/287 181/181/287 176/176/287
f 175/175/288 180/180/288 181/181/288
f 176/176/289 182/182/289 177/177/289
f 176/176/290 181/181/290 182/182/290
f 177/177/291 178/178/291 173/173/291
f 177/177/292 182/182/292 178/178/292
f 178/178/293 184/184/293 179/179/293
f 178/178/294 183/183/294 184/184/294
f 179/179/295 185/185/295 180/180/295
f 179/179/296 184/184/296 185/185/296
f 180/180/297 186/186/297 181/181/297
f 180/180/298 185/185/298 186/186/298
f 181/181/299 187/187/299 182/182/299
f 181/181/300 186/186/300 187/187/300
f 182/182/301 183/183/301 178/178/301
f 182/182/302 187/187/302 183/183/302
f 183/183/303 189/189/303 184/184/303
f 183/183/304 188/188/304 189/189/304
f 184/184/305 190/190/305 185/185/305
f 184/184/306 189/189/306 190/190/306
f 185/185/307 191/191/307 186/186/307
f 185/185/308 190/190/308 191/191/308
f 186/186/309 192/192/309 187/187/309
f 186/186/310 191/191/310 192/192/310
f 187/187/311 188/188/311 183/183/311
f 187/187/312 192/192/312 188/188/312
f 188/188/313 190/190/313 189/189/313
f 188/188/313 191/191/313 190/190/313
f 188/188/313 192/192/313 191/191/313
f 177/177/314 175/175/314 176/176/314
f 177/177/314 174/174/314 175/175/314
f 177/177/314 173/173/314 174/174/314
f 193/193/315 198/198/315 194/194/315
f 193/193/316 197/197/316 198/198/316
f 194/194/317 199/199/317 195/195/317
f 194/194/318 198/198/318 199/199/318
f 195/195/319 200/200/319 196/196/319
f 195/195/320 199/199/320 200/200/320
f 196/196/321 197/197/321 193/193/321
f 196/196/322 200/200/322 197/197/322
f 197/197/323 202/202/323 198/198/323
f 197/197/324 201/201/324 202/202/324
f 198/198/325 203/203/325 199/199/325
f 198/198/326 202/202/326 203/203/326
f 199/199/327 204/204/327 200/200/327
f 199/199/328 203/203/328 204/204/328
f 200/200/329 201/201/329 197/197/329
f 200/200/330 204/204/330 201/201/330
f 201/201/331 206/206/331 202/202/331
f 201/201/332 205/205/332 206/206/332
f 202/202/333 207/207/333 203/203/333
f 202/202/334 206/206/334 207/207/334
f 203/203/335 208/208/335 204/204/335
f 203/203/336 207/207/336 208/208/336
f 204/204/337 205/205/337 201/201/337
f 204/204/338 208/208/338 205/205/338
f 205/205/339 207/207/339 206/206/339
f 205/205/339 208/208/339 207/207/339
f 196/196/340 194/194/340 195/195/340
f 196/196/340 193/193/340 194/194/340
f 209/209/341 214/214/341 210/210/341
f 209/209/342 213/213/342 214/214/342
f 210/210/343 215/215/343 211/211/343
f 210/210/344 214/214/344 215/215/344
f 211/211/345 216/216/345 212/212/345
f 211/211/346 215/215/346 216/216/346
f 212/212/347 213/213/347 209/209/347
f 212/212/348 216/216/348 213/213/348
f 213/213/349 218/218/349 214/214/349
f 213/213/350 217/217/350 218/218/350
f 214/214/351 219/219/351 215/215/351
f 214/214/352 218/218/352 219/219/352
f 215/215/353 220/220/353 216/216/353
f 215/215/354 219/219/354 220/220/354
f 216/216/355 217/217/355 213/213/355
f 216/216/356 220/220/356 217/217/356
f 217/217/357 222/222/357 218/218/357
f 217/217/358 221/221/358 222/222/358
f 218/218/359 223/223/359 219/219/359
f 218/218/360 222/222/360 223/223/360
f 219/219/361 224/224/361 220/220/361
f 219/219/361 223/223/361 224/224/361
f 220/220/362 221/221/362 217/217/362
f 220/220/363 224/224/363 221/221/363
f 221/221/364 223/223/364 222/222/364
f 221/221/364 224/224/364 223/223/364
f 212/212/365 210/210/365 211/211/365
f 212/212/365 209/209/365 210/210/365
f 225/225/366 230/230/366 226/226/366
f 225/225/367 229/229/367 230/230/367
f 226/226/368 231/231/368 227/227/368
f 226/226/369 230/230/369 231/231/369
f 227/227/370 232/232/370 228/228/370
f 227/227/371 231/231/371 232/232/371
f 228/228/372 229/229/372 225/225/372
f 228/228/373 232/232/373 229/229/373
f 229/229/374 234/234/374 230/230/374
f 229/229/375 233/233/375 234/234/375
f 230/230/376 235/235/376 231/231/376
f 230/230/376 234/234/376 235/235/376
f 231/231/377 236/236/377 232/232/377
f 231/231/377 235/235/377 236/236/377
f 232/232/378 233/233/378 229/229/378
f 232/232/379 236/236/379 233/233/379
f 233/233/380 238/238/380 234/234/380
f 233/233/381 237/237/381 238/238/381
f 234/234/382 239/239/382 235/235/382
f 234/234/383 238/238/383 239/239/383
f 235/235/384 240/240/384 236/236/384
f 235/235/385 239/239/385 240/240/385
f 236/236/386 237/237/386 233/233/386
f 236/236/387 240/240/387 237/237/387
f 237/237/388 239/239/388 238/238/388
f 237/237/388 240/240/388 239/239/388
f 228/228/389 226/226/389 227/227/389
f 228/228/389 225/225/389 226/226/389
