# JudeanFloraV1; canonical UE cm (X east, +Y south, Z up), written with Y reflected and triangle winding reversed for the legacy OBJ importer adapter. One o object, no g groups, so the importer creates exactly one material slot.
# Italian cypress (Cupressus sempervirens), StreetTreesV1 seed 0, LOD2 bark
# height 10.0-19.0 m, crown 1.8-3.8 m; source: Zohary, M., Plants of the Bible (Cambridge University Press, 1982), species entry Cupressus sempervirens; the columnar form is 1.8-3.8 m across at 10-19 m
# branching is recursive with da Vinci child radii; leaf sprays are anchored to branch tips. Stylised habit, not a survey of any tree.
o SM_StreetTreesV1_Cypress_S0_L2_Bark
s off
v 0.00000 28.59748 -0.03399
v 27.20240 0.00009 0.07374
v 0.00000 -28.59748 0.03399
v -27.20240 -0.00009 -0.07374
v 0.05648 22.76098 104.57053
v 21.25007 -0.19809 104.29631
v -0.62268 -22.51277 104.28349
v -21.81627 0.44630 104.55771
v 1.79406 16.87279 208.90555
v 18.57567 -1.86225 208.70501
v 0.70082 -19.55832 208.76037
v -16.08079 -0.82328 208.96091
v 1.90447 14.16770 313.29021
v 15.42829 -1.39303 313.38683
v 0.56070 -15.67479 313.22732
v -12.96311 -0.11406 313.13070
v 0.09268 10.70655 417.80394
v 11.15112 -2.40716 417.72853
v -1.39764 -14.10124 417.52596
v -12.45608 -0.98754 417.60137
v 0.75152 7.36130 522.10191
v 9.84992 -3.75997 522.07622
v -0.80826 -13.39673 522.06250
v -9.90666 -2.27546 522.08819
v 0.22166 6.51789 626.33789
v 7.65028 -2.84064 626.56354
v -1.33422 -10.72002 626.67075
v -8.76284 -1.36149 626.44510
v -0.42821 8.08205 730.66998
v 5.47329 0.41874 730.94051
v -1.89700 -5.84890 731.09091
v -7.79850 1.81441 730.82038
v -1.16261 7.47851 730.60967
v 5.20508 1.11699 730.89015
v -1.16261 -5.24536 731.15122
v -7.53029 1.11616 730.87074
v -1.49608 15.44905 948.85773
v 3.55561 10.40708 949.17138
v -1.49608 5.36663 949.50860
v -6.54777 10.40860 949.19495
v -0.14107 32.97946 1166.50327
v 3.59435 29.26581 1166.91137
v -0.14107 25.54307 1167.22603
v -3.87649 29.25672 1166.81793
v -6.98616 55.07433 1383.74066
v -4.56762 52.67667 1384.07537
v -6.98616 50.26276 1384.25934
v -9.40469 52.66043 1383.92463
v -1.16261 2.86012 731.16164
v 0.57470 1.16713 730.56697
v -1.16261 -0.62698 730.59925
v -2.89991 1.06602 731.19392
v 20.81878 -16.65005 849.84041
v 22.19701 -17.99231 849.36616
v 20.81878 -19.41570 849.38942
v 19.44055 -18.07344 849.86368
v 42.82528 -36.56731 968.40661
v 43.85033 -37.57650 968.12762
v 42.82528 -38.62333 968.14817
v 41.80024 -37.61415 968.42716
v 56.39666 -47.49564 1089.38069
v 57.06362 -48.15773 1089.24810
v 56.39666 -48.83277 1089.26394
v 55.72969 -48.17069 1089.39653
v -1.16261 2.88261 730.89289
v 0.55817 1.11377 731.27787
v -1.16261 -0.64946 730.86800
v -2.88339 1.11937 730.48302
v -33.46154 1.53120 870.76419
v -32.08608 0.12258 870.98782
v -33.46154 -1.26967 870.67818
v -34.83701 0.13895 870.45456
v -55.76527 -6.49121 1012.36223
v -54.74266 -7.53580 1012.46282
v -55.76527 -8.55923 1012.23069
v -56.78787 -7.51464 1012.13010
v -79.64205 -17.18348 1153.49382
v -78.98029 -17.86095 1153.55619
v -79.64205 -18.52212 1153.39587
v -80.30381 -17.84466 1153.33349
vt 0.00000 0.00000
vt 0.25000 0.00000
vt 0.50000 0.00000
vt 0.75000 0.00000
vt 0.00000 0.14286
vt 0.25000 0.14286
vt 0.50000 0.14286
vt 0.75000 0.14286
vt 0.00000 0.28571
vt 0.25000 0.28571
vt 0.50000 0.28571
vt 0.75000 0.28571
vt 0.00000 0.42857
vt 0.25000 0.42857
vt 0.50000 0.42857
vt 0.75000 0.42857
vt 0.00000 0.57143
vt 0.25000 0.57143
vt 0.50000 0.57143
vt 0.75000 0.57143
vt 0.00000 0.71429
vt 0.25000 0.71429
vt 0.50000 0.71429
vt 0.75000 0.71429
vt 0.00000 0.85714
vt 0.25000 0.85714
vt 0.50000 0.85714
vt 0.75000 0.85714
vt 0.00000 1.00000
vt 0.25000 1.00000
vt 0.50000 1.00000
vt 0.75000 1.00000
vt 0.00000 0.00000
vt 0.25000 0.00000
vt 0.50000 0.00000
vt 0.75000 0.00000
vt 0.00000 0.33333
vt 0.25000 0.33333
vt 0.50000 0.33333
vt 0.75000 0.33333
vt 0.00000 0.66667
vt 0.25000 0.66667
vt 0.50000 0.66667
vt 0.75000 0.66667
vt 0.00000 1.00000
vt 0.25000 1.00000
vt 0.50000 1.00000
vt 0.75000 1.00000
vt 0.00000 0.00000
vt 0.25000 0.00000
vt 0.50000 0.00000
vt 0.75000 0.00000
vt 0.00000 0.33333
vt 0.25000 0.33333
vt 0.50000 0.33333
vt 0.75000 0.33333
vt 0.00000 0.66667
vt 0.25000 0.66667
vt 0.50000 0.66667
vt 0.75000 0.66667
vt 0.00000 1.00000
vt 0.25000 1.00000
vt 0.50000 1.00000
vt 0.75000 1.00000
vt 0.00000 0.00000
vt 0.25000 0.00000
vt 0.50000 0.00000
vt 0.75000 0.00000
vt 0.00000 0.33333
vt 0.25000 0.33333
vt 0.50000 0.33333
vt 0.75000 0.33333
vt 0.00000 0.66667
vt 0.25000 0.66667
vt 0.50000 0.66667
vt 0.75000 0.66667
vt 0.00000 1.00000
vt 0.25000 1.00000
vt 0.50000 1.00000
vt 0.75000 1.00000
vn 0.7238 0.6887 0.0426
vn 0.7345 0.6776 0.0374
vn 0.7238 -0.6886 0.0445
vn 0.7136 -0.6995 0.0394
vn -0.7240 -0.6886 0.0402
vn -0.7341 -0.6781 0.0352
vn -0.7240 0.6887 0.0388
vn -0.7137 0.6996 0.0338
vn 0.7346 0.6778 0.0296
vn 0.7448 0.6668 0.0252
vn 0.7141 -0.7000 0.0107
vn 0.7035 -0.7106 0.0067
vn -0.7342 -0.6781 0.0321
vn -0.7444 -0.6671 0.0283
vn -0.7132 0.6991 0.0513
vn -0.7027 0.7099 0.0472
vn 0.7448 0.6670 0.0194
vn 0.7546 0.6559 0.0162
vn 0.7033 -0.7103 0.0274
vn 0.6924 -0.7211 0.0241
vn -0.7445 -0.6671 0.0268
vn -0.7546 -0.6557 0.0234
vn -0.7034 0.7106 0.0192
vn -0.6928 0.7210 0.0158
vn 0.7541 0.6557 0.0373
vn 0.7641 0.6442 0.0346
vn 0.6924 -0.7211 0.0239
vn 0.6814 -0.7316 0.0208
vn -0.7548 -0.6560 -0.0018
vn -0.7645 -0.6446 -0.0046
vn -0.6928 0.7211 0.0119
vn -0.6818 0.7315 0.0094
vn 0.7644 0.6445 0.0179
vn 0.7739 0.6331 0.0154
vn 0.6817 -0.7316 0.0011
vn 0.6707 -0.7418 -0.0013
vn -0.7644 -0.6447 0.0107
vn -0.7739 -0.6332 0.0086
vn -0.6817 0.7311 0.0278
vn -0.6705 0.7415 0.0255
vn 0.7740 0.6332 0.0107
vn 0.7831 0.6218 0.0090
vn 0.6705 -0.7416 0.0223
vn 0.6594 -0.7516 0.0205
vn -0.7739 -0.6332 0.0140
vn -0.7833 -0.6215 0.0120
vn -0.6707 0.7418 0.0026
vn -0.6594 0.7518 0.0006
vn 0.7833 0.6217 -0.0031
vn 0.7924 0.6100 -0.0042
vn 0.6591 -0.7510 0.0386
vn 0.6478 -0.7609 0.0373
vn -0.7833 -0.6211 0.0261
vn -0.7925 -0.6094 0.0242
vn -0.6594 0.7517 -0.0154
vn -0.6479 0.7615 -0.0172
vn -0.0058 0.0308 0.9995
vn 0.0027 -0.0012 -1.0000
vn 0.7071 0.7067 -0.0247
vn 0.7070 0.7068 -0.0247
vn 0.7071 -0.7062 0.0354
vn 0.7071 -0.7063 0.0354
vn -0.7071 -0.7063 0.0332
vn -0.7071 -0.7064 0.0332
vn -0.7071 0.7066 -0.0269
vn -0.7070 0.7067 -0.0269
vn 0.7070 0.7046 -0.0611
vn 0.7071 0.7045 -0.0611
vn 0.7070 -0.7045 0.0609
vn 0.7072 -0.7044 0.0609
vn -0.7069 -0.7039 0.0696
vn -0.7071 -0.7036 0.0696
vn -0.7071 0.7052 -0.0524
vn -0.7071 0.7051 -0.0524
vn 0.7069 0.7056 -0.0495
vn 0.7066 0.7059 -0.0495
vn 0.7065 -0.7003 0.1020
vn 0.7066 -0.7002 0.1020
vn -0.7070 -0.7048 0.0580
vn -0.7069 -0.7049 0.0580
vn -0.7067 0.7012 -0.0936
vn -0.7069 0.7011 -0.0936
vn -0.0313 0.1071 0.9938
vn 0.0015 -0.0425 -0.9991
vn 0.6960 0.7180 -0.0109
vn 0.6957 0.7182 -0.0108
vn 0.6960 -0.6782 -0.2360
vn 0.6962 -0.6780 -0.2360
vn -0.6952 -0.7187 0.0150
vn -0.6950 -0.7189 0.0149
vn -0.6952 0.6775 0.2401
vn -0.6954 0.6773 0.2402
vn 0.6962 0.7178 -0.0086
vn 0.7002 0.7139 -0.0100
vn 0.6957 -0.6776 -0.2385
vn 0.6915 -0.6818 -0.2385
vn -0.6954 -0.7185 0.0127
vn -0.6996 -0.7144 0.0141
vn -0.6949 0.6769 0.2427
vn -0.6908 0.6812 0.2425
vn 0.6996 0.7144 -0.0139
vn 0.7030 0.7111 -0.0146
vn 0.7063 -0.6943 -0.1377
vn 0.7030 -0.6978 -0.1376
vn -0.6990 -0.7149 0.0181
vn -0.7025 -0.7114 0.0187
vn -0.7059 0.6940 0.1419
vn -0.7025 0.6974 0.1418
vn 0.1110 -0.0864 0.9901
vn -0.1798 0.1566 -0.9712
vn 0.6886 0.7060 0.1659
vn 0.6921 0.7023 0.1666
vn 0.6886 -0.7082 0.1559
vn 0.6853 -0.7115 0.1551
vn -0.6894 -0.7060 -0.1623
vn -0.6928 -0.7024 -0.1632
vn -0.6894 0.7082 -0.1523
vn -0.6861 0.7115 -0.1516
vn 0.6955 0.7028 0.1494
vn 0.6993 0.6990 0.1497
vn 0.7012 -0.7092 0.0740
vn 0.6972 -0.7132 0.0730
vn -0.6962 -0.7029 -0.1458
vn -0.6998 -0.6992 -0.1463
vn -0.7017 0.7089 -0.0704
vn -0.6977 0.7130 -0.0696
vn 0.6959 0.6976 0.1706
vn 0.6970 0.6965 0.1707
vn 0.6980 -0.7128 0.0678
vn 0.6970 -0.7139 0.0675
vn -0.6965 -0.6979 -0.1670
vn -0.6976 -0.6968 -0.1672
vn -0.6986 0.7126 -0.0642
vn -0.6976 0.7137 -0.0640
vn -0.1664 -0.0720 0.9834
vn 0.2250 0.0069 -0.9743
f 1/1/1 6/6/1 2/2/1
f 1/1/2 5/5/2 6/6/2
f 2/2/3 7/7/3 3/3/3
f 2/2/4 6/6/4 7/7/4
f 3/3/5 8/8/5 4/4/5
f 3/3/6 7/7/6 8/8/6
f 4/4/7 5/5/7 1/1/7
f 4/4/8 8/8/8 5/5/8
f 5/5/9 10/10/9 6/6/9
f 5/5/10 9/9/10 10/10/10
f 6/6/11 11/11/11 7/7/11
f 6/6/12 10/10/12 11/11/12
f 7/7/13 12/12/13 8/8/13
f 7/7/14 11/11/14 12/12/14
f 8/8/15 9/9/15 5/5/15
f 8/8/16 12/12/16 9/9/16
f 9/9/17 14/14/17 10/10/17
f 9/9/18 13/13/18 14/14/18
f 10/10/19 15/15/19 11/11/19
f 10/10/20 14/14/20 15/15/20
f 11/11/21 16/16/21 12/12/21
f 11/11/22 15/15/22 16/16/22
f 12/12/23 13/13/23 9/9/23
f 12/12/24 16/16/24 13/13/24
f 13/13/25 18/18/25 14/14/25
f 13/13/26 17/17/26 18/18/26
f 14/14/27 19/19/27 15/15/27
f 14/14/28 18/18/28 19/19/28
f 15/15/29 20/20/29 16/16/29
f 15/15/30 19/19/30 20/20/30
f 16/16/31 17/17/31 13/13/31
f 16/16/32 20/20/32 17/17/32
f 17/17/33 22/22/33 18/18/33
f 17/17/34 21/21/34 22/22/34
f 18/18/35 23/23/35 19/19/35
f 18/18/36 22/22/36 23/23/36
f 19/19/37 24/24/37 20/20/37
f 19/19/38 23/23/38 24/24/38
f 20/20/39 21/21/39 17/17/39
f 20/20/40 24/24/40 21/21/40
f 21/21/41 26/26/41 22/22/41
f 21/21/42 25/25/42 26/26/42
f 22/22/43 27/27/43 23/23/43
f 22/22/44 26/26/44 27/27/44
f 23/23/45 28/28/45 24/24/45
f 23/23/46 27/27/46 28/28/46
f 24/24/47 25/25/47 21/21/47
f 24/24/48 28/28/48 25/25/48
f 25/25/49 30/30/49 26/26/49
f 25/25/50 29/29/50 30/30/50
f 26/26/51 31/31/51 27/27/51
f 26/26/52 30/30/52 31/31/52
f 27/27/53 32/32/53 28/28/53
f 27/27/54 31/31/54 32/32/54
f 28/28/55 29/29/55 25/25/55
f 28/28/56 32/32/56 29/29/56
f 29/29/57 31/31/57 30/30/57
f 29/29/57 32/32/57 31/31/57
f 4/4/58 2/2/58 3/3/58
f 4/4/58 1/1/58 2/2/58
f 33/33/59 38/38/59 34/34/59
f 33/33/60 37/37/60 38/38/60
f 34/34/61 39/39/61 35/35/61
f 34/34/62 38/38/62 39/39/62
f 35/35/63 40/40/63 36/36/63
f 35/35/64 39/39/64 40/40/64
f 36/36/65 37/37/65 33/33/65
f 36/36/66 40/40/66 37/37/66
f 37/37/67 42/42/67 38/38/67
f 37/37/68 41/41/68 42/42/68
f 38/38/69 43/43/69 39/39/69
f 38/38/70 42/42/70 43/43/70
f 39/39/71 44/44/71 40/40/71
f 39/39/72 43/43/72 44/44/72
f 40/40/73 41/41/73 37/37/73
f 40/40/74 44/44/74 41/41/74
f 41/41/75 46/46/75 42/42/75
f 41/41/76 45/45/76 46/46/76
f 42/42/77 47/47/77 43/43/77
f 42/42/78 46/46/78 47/47/78
f 43/43/79 48/48/79 44/44/79
f 43/43/80 47/47/80 48/48/80
f 44/44/81 45/45/81 41/41/81
f 44/44/82 48/48/82 45/45/82
f 45/45/83 47/47/83 46/46/83
f 45/45/83 48/48/83 47/47/83
f 36/36/84 34/34/84 35/35/84
f 36/36/84 33/33/84 34/34/84
f 49/49/85 54/54/85 50/50/85
f 49/49/86 53/53/86 54/54/86
f 50/50/87 55/55/87 51/51/87
f 50/50/88 54/54/88 55/55/88
f 51/51/89 56/56/89 52/52/89
f 51/51/90 55/55/90 56/56/90
f 52/52/91 53/53/91 49/49/91
f 52/52/92 56/56/92 53/53/92
f 53/53/93 58/58/93 54/54/93
f 53/53/94 57/57/94 58/58/94
f 54/54/95 59/59/95 55/55/95
f 54/54/96 58/58/96 59/59/96
f 55/55/97 60/60/97 56/56/97
f 55/55/98 59/59/98 60/60/98
f 56/56/99 57/57/99 53/53/99
f 56/56/100 60/60/100 57/57/100
f 57/57/101 62/62/101 58/58/101
f 57/57/102 61/61/102 62/62/102
f 58/58/103 63/63/103 59/59/103
f 58/58/104 62/62/104 63/63/104
f 59/59/105 64/64/105 60/60/105
f 59/59/106 63/63/106 64/64/106
f 60/60/107 61/61/107 57/57/107
f 60/60/108 64/64/108 61/61/108
f 61/61/109 63/63/109 62/62/109
f 61/61/109 64/64/109 63/63/109
f 52/52/110 50/50/110 51/51/110
f 52/52/110 49/49/110 50/50/110
f 65/65/111 70/70/111 66/66/111
f 65/65/112 69/69/112 70/70/112
f 66/66/113 71/71/113 67/67/113
f 66/66/114 70/70/114 71/71/114
f 67/67/115 72/72/115 68/68/115
f 67/67/116 71/71/116 72/72/116
f 68/68/117 69/69/117 65/65/117
f 68/68/118 72/72/118 69/69/118
f 69/69/119 74/74/119 70/70/119
f 69/69/120 73/73/120 74/74/120
f 70/70/121 75/75/121 71/71/121
f 70/70/122 74/74/122 75/75/122
f 71/71/123 76/76/123 72/72/123
f 71/71/124 75/75/124 76/76/124
f 72/72/125 73/73/125 69/69/125
f 72/72/126 76/76/126 73/73/126
f 73/73/127 78/78/127 74/74/127
f 73/73/128 77/77/128 78/78/128
f 74/74/129 79/79/129 75/75/129
f 74/74/130 78/78/130 79/79/130
f 75/75/131 80/80/131 76/76/131
f 75/75/132 79/79/132 80/80/132
f 76/76/133 77/77/133 73/73/133
f 76/76/134 80/80/134 77/77/134
f 77/77/135 79/79/135 78/78/135
f 77/77/135 80/80/135 79/79/135
f 68/68/136 66/66/136 67/67/136
f 68/68/136 65/65/136 66/66/136
