# JudeanFloraV1; canonical UE cm (X east, +Y south, Z up), written with Y reflected and triangle winding reversed for the legacy OBJ importer adapter. One o object, no g groups, so the importer creates exactly one material slot.
# carob (Ceratonia siliqua), StreetTreesV1 seed 2, LOD2 bark
# height 5.5-10.0 m, crown 6.0-10.0 m; source: Zohary, M., Plants of the Bible (Cambridge University Press, 1982), species entry Ceratonia siliqua; a dense evergreen of 5.5-10 m with a broad crown
# branching is recursive with da Vinci child radii; leaf sprays are anchored to branch tips. Stylised habit, not a survey of any tree.
o SM_StreetTreesV1_Carob_S2_L2_Bark
s off
v 0.00000 46.22789 -4.41248
v 40.36200 -0.00133 -0.01392
v 0.00000 -46.22789 4.41248
v -40.36200 0.00133 0.01392
v 1.60188 42.29713 75.08865
v 30.43911 6.04969 77.74450
v -1.54756 -27.40245 80.95748
v -30.38479 8.84499 78.30163
v 4.51014 40.48984 154.55795
v 25.96574 10.88044 155.92873
v -0.44888 -14.37310 157.79000
v -21.90447 15.23630 156.41922
v 5.51397 39.00241 233.86243
v 22.16215 13.76882 234.55153
v -0.61598 -6.11170 235.09223
v -17.26416 19.12189 234.40313
v 5.49732 36.42823 312.35587
v 18.77575 14.28210 312.90267
v -1.45537 -1.76706 313.34183
v -14.73381 20.37907 312.79503
v 6.39285 36.68308 390.48430
v 16.99502 17.16903 391.17291
v -1.04452 4.21490 391.83921
v -11.64669 23.72895 391.15059
v 2.67417 30.45329 389.92193
v 12.67250 20.60728 392.43899
v 2.67417 10.44470 392.40158
v -7.32417 20.29071 389.88451
v -9.61800 40.70624 484.69167
v -1.08961 32.35560 487.04387
v -9.61800 23.68091 487.16896
v -18.14639 32.03154 484.81676
v -22.50957 54.96917 578.93264
v -15.47222 48.10331 581.13090
v -22.50957 40.89412 581.14313
v -29.54691 47.75999 578.94487
v -39.51693 67.28395 672.97991
v -33.96043 61.84344 674.78661
v -39.51693 56.11319 674.62009
v -45.07342 61.55371 672.81339
v 2.67417 28.87548 390.10632
v 10.72637 20.11363 388.48423
v 2.67417 12.02250 392.21718
v -5.37804 20.78436 393.83928
v 30.00980 37.80205 471.42676
v 36.89002 30.37535 469.83343
v 30.00980 23.37102 472.77176
v 23.12959 30.79771 474.36509
v 56.67900 41.58894 553.33308
v 62.35866 35.47121 551.80185
v 56.67900 29.61348 554.13815
v 50.99933 35.73121 555.66938
v 85.57038 46.25077 634.20535
v 90.04988 41.39130 632.95911
v 85.57038 36.76467 634.89865
v 81.09089 41.62414 636.14488
v -4.28326 25.31868 391.16175
v 6.86726 26.43977 395.48011
v 9.63160 15.57931 391.16175
v -1.51893 14.45822 386.84340
v -25.66732 -7.40536 457.30423
v -16.06965 -6.31361 460.72835
v -13.78056 -15.69803 457.30423
v -23.37823 -16.78978 453.88011
v -38.82388 -33.37703 528.44677
v -32.99246 -39.50741 527.78127
v -38.82388 -44.69205 524.44301
v -44.65529 -38.56167 525.10852
v -55.98528 -56.77028 599.34272
v -51.34978 -61.62673 598.94219
v -55.98528 -65.85098 596.51292
v -60.62078 -60.99452 596.91345
vt 0.00000 0.00000
vt 0.25000 0.00000
vt 0.50000 0.00000
vt 0.75000 0.00000
vt 0.00000 0.20000
vt 0.25000 0.20000
vt 0.50000 0.20000
vt 0.75000 0.20000
vt 0.00000 0.40000
vt 0.25000 0.40000
vt 0.50000 0.40000
vt 0.75000 0.40000
vt 0.00000 0.60000
vt 0.25000 0.60000
vt 0.50000 0.60000
vt 0.75000 0.60000
vt 0.00000 0.80000
vt 0.25000 0.80000
vt 0.50000 0.80000
vt 0.75000 0.80000
vt 0.00000 1.00000
vt 0.25000 1.00000
vt 0.50000 1.00000
vt 0.75000 1.00000
vt 0.00000 0.00000
vt 0.25000 0.00000
vt 0.50000 0.00000
vt 0.75000 0.00000
vt 0.00000 0.33333
vt 0.25000 0.33333
vt 0.50000 0.33333
vt 0.75000 0.33333
vt 0.00000 0.66667
vt 0.25000 0.66667
vt 0.50000 0.66667
vt 0.75000 0.66667
vt 0.00000 1.00000
vt 0.25000 1.00000
vt 0.50000 1.00000
vt 0.75000 1.00000
vt 0.00000 0.00000
vt 0.25000 0.00000
vt 0.50000 0.00000
vt 0.75000 0.00000
vt 0.00000 0.33333
vt 0.25000 0.33333
vt 0.50000 0.33333
vt 0.75000 0.33333
vt 0.00000 0.66667
vt 0.25000 0.66667
vt 0.50000 0.66667
vt 0.75000 0.66667
vt 0.00000 1.00000
vt 0.25000 1.00000
vt 0.50000 1.00000
vt 0.75000 1.00000
vt 0.00000 0.00000
vt 0.25000 0.00000
vt 0.50000 0.00000
vt 0.75000 0.00000
vt 0.00000 0.33333
vt 0.25000 0.33333
vt 0.50000 0.33333
vt 0.75000 0.33333
vt 0.00000 0.66667
vt 0.25000 0.66667
vt 0.50000 0.66667
vt 0.75000 0.66667
vt 0.00000 1.00000
vt 0.25000 1.00000
vt 0.50000 1.00000
vt 0.75000 1.00000
vn 0.7504 0.6594 0.0445
vn 0.7819 0.6232 0.0151
vn 0.7501 -0.6385 0.1722
vn 0.7221 -0.6765 0.1448
vn -0.7505 -0.6392 0.1679
vn -0.7802 -0.6109 0.1345
vn -0.7501 0.6595 0.0477
vn -0.7220 0.6917 0.0139
vn 0.7823 0.6228 0.0063
vn 0.8100 0.5862 -0.0163
vn 0.7238 -0.6820 0.1053
vn 0.6917 -0.7173 0.0839
vn -0.7802 -0.6108 0.1347
vn -0.8073 -0.5799 0.1099
vn -0.7201 0.6926 0.0421
vn -0.6904 0.7233 0.0158
vn 0.8092 0.5872 0.0176
vn 0.8347 0.5507 -0.0002
vn 0.6918 -0.7178 0.0782
vn 0.6572 -0.7514 0.0594
vn -0.8090 -0.5827 0.0772
vn -0.8341 -0.5487 0.0568
vn -0.6900 0.7234 0.0223
vn -0.6575 0.7534 0.0016
vn 0.8339 0.5510 0.0324
vn 0.8573 0.5145 0.0171
vn 0.6574 -0.7519 0.0488
vn 0.6216 -0.7827 0.0320
vn -0.8346 -0.5497 0.0358
vn -0.8577 -0.5138 0.0193
vn -0.6570 0.7535 0.0246
vn -0.6214 0.7835 0.0075
vn 0.8576 0.5142 0.0005
vn 0.8788 0.4770 -0.0116
vn 0.6212 -0.7816 0.0563
vn 0.5838 -0.8108 0.0432
vn -0.8569 -0.5124 0.0557
vn -0.8786 -0.4759 0.0409
vn -0.6214 0.7835 0.0046
vn -0.5835 0.8120 -0.0117
vn 0.0083 0.0398 0.9992
vn -0.0003 -0.0950 -0.9955
vn 0.6999 0.7141 0.0131
vn 0.6977 0.7162 0.0130
vn 0.6999 -0.6893 0.1871
vn 0.7018 -0.6873 0.1874
vn -0.7026 -0.7115 0.0079
vn -0.7008 -0.7133 0.0087
vn -0.7026 0.6919 -0.1660
vn -0.7044 0.6902 -0.1657
vn 0.7013 0.7128 -0.0121
vn 0.7002 0.7138 -0.0122
vn 0.6971 -0.6822 0.2206
vn 0.6981 -0.6811 0.2207
vn -0.7039 -0.7095 0.0333
vn -0.7033 -0.7101 0.0336
vn -0.7002 0.6855 -0.1995
vn -0.7014 0.6843 -0.1993
vn 0.6930 0.7203 0.0311
vn 0.6940 0.7192 0.0313
vn 0.6954 -0.6784 0.2370
vn 0.6940 -0.6799 0.2368
vn -0.6967 -0.7173 -0.0098
vn -0.6978 -0.7162 -0.0104
vn -0.6989 0.6819 -0.2157
vn -0.6979 0.6830 -0.2158
vn -0.1766 0.1430 0.9738
vn 0.1277 -0.1220 -0.9843
vn 0.6735 0.6748 -0.3017
vn 0.6671 0.6822 -0.2991
vn 0.6735 -0.7284 -0.1259
vn 0.6802 -0.7218 -0.1277
vn -0.6674 -0.6725 0.3199
vn -0.6599 -0.6799 0.3197
vn -0.6674 0.7307 0.1441
vn -0.6736 0.7240 0.1485
vn 0.6816 0.6860 -0.2544
vn 0.6768 0.6915 -0.2524
vn 0.6686 -0.7254 -0.1635
vn 0.6745 -0.7197 -0.1648
vn -0.6758 -0.6846 0.2732
vn -0.6701 -0.6904 0.2726
vn -0.6622 0.7269 0.1820
vn -0.6676 0.7211 0.1851
vn 0.6682 0.6900 -0.2783
vn 0.6694 0.6886 -0.2788
vn 0.6707 -0.7205 -0.1761
vn 0.6694 -0.7218 -0.1758
vn -0.6613 -0.6885 0.2977
vn -0.6626 -0.6872 0.2979
vn -0.6639 0.7218 0.1956
vn -0.6626 0.7232 0.1948
vn 0.3358 0.0687 0.9394
vn -0.3178 -0.1178 -0.9408
vn -0.2335 0.8994 0.3694
vn -0.2341 0.8994 0.3693
vn 0.9251 0.0886 0.3693
vn 0.9245 0.0904 0.3704
vn 0.2268 -0.9090 -0.3497
vn 0.2279 -0.9089 -0.3491
vn -0.9317 -0.0981 -0.3497
vn -0.9314 -0.0995 -0.3501
vn -0.2379 0.8930 0.3820
vn 0.6960 0.6234 0.3563
vn 0.9208 0.0858 0.3805
vn 0.7060 -0.6892 -0.1630
vn 0.1919 -0.9531 -0.2340
vn -0.6569 -0.5715 -0.4918
vn -0.9610 -0.1496 -0.2324
vn -0.6723 0.7399 0.0253
vn 0.6926 0.6186 0.3710
vn 0.6865 0.6246 0.3723
vn 0.6802 -0.7311 -0.0527
vn 0.6865 -0.7255 -0.0484
vn -0.6973 -0.6253 -0.3504
vn -0.6918 -0.6315 -0.3501
vn -0.6857 0.7242 0.0730
vn -0.6919 0.7186 0.0707
vn -0.2234 -0.2900 0.9306
vn 0.2916 0.4166 -0.8611
f 1/1/1 6/6/1 2/2/1
f 1/1/2 5/5/2 6/6/2
f 2/2/3 7/7/3 3/3/3
f 2/2/4 6/6/4 7/7/4
f 3/3/5 8/8/5 4/4/5
f 3/3/6 7/7/6 8/8/6
f 4/4/7 5/5/7 1/1/7
f 4/4/8 8/8/8 5/5/8
f 5/5/9 10/10/9 6/6/9
f 5/5/10 9/9/10 10/10/10
f 6/6/11 11/11/11 7/7/11
f 6/6/12 10/10/12 11/11/12
f 7/7/13 12/12/13 8/8/13
f 7/7/14 11/11/14 12/12/14
f 8/8/15 9/9/15 5/5/15
f 8/8/16 12/12/16 9/9/16
f 9/9/17 14/14/17 10/10/17
f 9/9/18 13/13/18 14/14/18
f 10/10/19 15/15/19 11/11/19
f 10/10/20 14/14/20 15/15/20
f 11/11/21 16/16/21 12/12/21
f 11/11/22 15/15/22 16/16/22
f 12/12/23 13/13/23 9/9/23
f 12/12/24 16/16/24 13/13/24
f 13/13/25 18/18/25 14/14/25
f 13/13/26 17/17/26 18/18/26
f 14/14/27 19/19/27 15/15/27
f 14/14/28 18/18/28 19/19/28
f 15/15/29 20/20/29 16/16/29
f 15/15/30 19/19/30 20/20/30
f 16/16/31 17/17/31 13/13/31
f 16/16/32 20/20/32 17/17/32
f 17/17/33 22/22/33 18/18/33
f 17/17/34 21/21/34 22/22/34
f 18/18/35 23/23/35 19/19/35
f 18/18/36 22/22/36 23/23/36
f 19/19/37 24/24/37 20/20/37
f 19/19/38 23/23/38 24/24/38
f 20/20/39 21/21/39 17/17/39
f 20/20/40 24/24/40 21/21/40
f 21/21/41 23/23/41 22/22/41
f 21/21/41 24/24/41 23/23/41
f 4/4/42 2/2/42 3/3/42
f 4/4/42 1/1/42 2/2/42
f 25/25/43 30/30/43 26/26/43
f 25/25/44 29/29/44 30/30/44
f 26/26/45 31/31/45 27/27/45
f 26/26/46 30/30/46 31/31/46
f 27/27/47 32/32/47 28/28/47
f 27/27/48 31/31/48 32/32/48
f 28/28/49 29/29/49 25/25/49
f 28/28/50 32/32/50 29/29/50
f 29/29/51 34/34/51 30/30/51
f 29/29/52 33/33/52 34/34/52
f 30/30/53 35/35/53 31/31/53
f 30/30/54 34/34/54 35/35/54
f 31/31/55 36/36/55 32/32/55
f 31/31/56 35/35/56 36/36/56
f 32/32/57 33/33/57 29/29/57
f 32/32/58 36/36/58 33/33/58
f 33/33/59 38/38/59 34/34/59
f 33/33/60 37/37/60 38/38/60
f 34/34/61 39/39/61 35/35/61
f 34/34/62 38/38/62 39/39/62
f 35/35/63 40/40/63 36/36/63
f 35/35/64 39/39/64 40/40/64
f 36/36/65 37/37/65 33/33/65
f 36/36/66 40/40/66 37/37/66
f 37/37/67 39/39/67 38/38/67
f 37/37/67 40/40/67 39/39/67
f 28/28/68 26/26/68 27/27/68
f 28/28/68 25/25/68 26/26/68
f 41/41/69 46/46/69 42/42/69
f 41/41/70 45/45/70 46/46/70
f 42/42/71 47/47/71 43/43/71
f 42/42/72 46/46/72 47/47/72
f 43/43/73 48/48/73 44/44/73
f 43/43/74 47/47/74 48/48/74
f 44/44/75 45/45/75 41/41/75
f 44/44/76 48/48/76 45/45/76
f 45/45/77 50/50/77 46/46/77
f 45/45/78 49/49/78 50/50/78
f 46/46/79 51/51/79 47/47/79
f 46/46/80 50/50/80 51/51/80
f 47/47/81 52/52/81 48/48/81
f 47/47/82 51/51/82 52/52/82
f 48/48/83 49/49/83 45/45/83
f 48/48/84 52/52/84 49/49/84
f 49/49/85 54/54/85 50/50/85
f 49/49/86 53/53/86 54/54/86
f 50/50/87 55/55/87 51/51/87
f 50/50/88 54/54/88 55/55/88
f 51/51/89 56/56/89 52/52/89
f 51/51/90 55/55/90 56/56/90
f 52/52/91 53/53/91 49/49/91
f 52/52/92 56/56/92 53/53/92
f 53/53/93 55/55/93 54/54/93
f 53/53/93 56/56/93 55/55/93
f 44/44/94 42/42/94 43/43/94
f 44/44/94 41/41/94 42/42/94
f 57/57/95 62/62/95 58/58/95
f 57/57/96 61/61/96 62/62/96
f 58/58/97 63/63/97 59/59/97
f 58/58/98 62/62/98 63/63/98
f 59/59/99 64/64/99 60/60/99
f 59/59/100 63/63/100 64/64/100
f 60/60/101 61/61/101 57/57/101
f 60/60/102 64/64/102 61/61/102
f 61/61/103 66/66/103 62/62/103
f 61/61/104 65/65/104 66/66/104
f 62/62/105 67/67/105 63/63/105
f 62/62/106 66/66/106 67/67/106
f 63/63/107 68/68/107 64/64/107
f 63/63/108 67/67/108 68/68/108
f 64/64/109 65/65/109 61/61/109
f 64/64/110 68/68/110 65/65/110
f 65/65/111 70/70/111 66/66/111
f 65/65/112 69/69/112 70/70/112
f 66/66/113 71/71/113 67/67/113
f 66/66/114 70/70/114 71/71/114
f 67/67/115 72/72/115 68/68/115
f 67/67/116 71/71/116 72/72/116
f 68/68/117 69/69/117 65/65/117
f 68/68/118 72/72/118 69/69/118
f 69/69/119 71/71/119 70/70/119
f 69/69/119 72/72/119 71/71/119
f 60/60/120 58/58/120 59/59/120
f 60/60/120 57/57/120 58/58/120
