# JudeanFloraV1; canonical UE cm (X east, +Y south, Z up), written with Y reflected and triangle winding reversed for the legacy OBJ importer adapter. One o object, no g groups, so the importer creates exactly one material slot.
# Aleppo pine (Pinus halepensis), StreetTreesV1 seed 2, LOD2 leaf
# height 9.0-17.0 m, crown 9.0-14.0 m; source: Zohary & Feinbrun-Dothan, Flora Palaestina vols I-IV (Israel Academy of Sciences, 1966-1986) Pinus halepensis; 9-17 m in the Judean hills
# branching is recursive with da Vinci child radii; leaf sprays are anchored to branch tips. Stylised habit, not a survey of any tree.
o SM_StreetTreesV1_AleppoPine_S2_L2_Leaf
s off
v -110.75953 67.23152 741.07134
v 46.85387 -83.80576 741.07134
v 35.59504 -95.57354 958.76149
v -122.01836 55.46373 958.76149
v -110.75953 67.23152 741.07134
v 46.85387 -83.80576 741.07134
v 35.59504 -95.57354 958.76149
v -122.01836 55.46373 958.76149
v -148.27377 104.63079 927.81369
v 19.53091 23.93210 927.81369
v 13.73089 11.84691 1113.53122
v -154.07379 92.54561 1113.53122
v -148.27377 104.63079 927.81369
v 19.53091 23.93210 927.81369
v 13.73089 11.84691 1113.53122
v -154.07379 92.54561 1113.53122
v -31.84053 98.06131 1037.71380
v 113.41849 -52.91218 1037.71380
v 112.50971 -53.78796 1247.21699
v -32.74931 97.18553 1247.21699
v -31.84053 98.06131 1037.71380
v 113.41849 -52.91218 1037.71380
v 112.50971 -53.78796 1247.21699
v -32.74931 97.18553 1247.21699
v -130.30719 -35.84908 759.95635
v -265.44833 193.78113 759.95635
v -324.16676 159.16139 1017.53505
v -189.02561 -70.46882 1017.53505
v -130.30719 -35.84908 759.95635
v -265.44833 193.78113 759.95635
v -324.16676 159.16139 1017.53505
v -189.02561 -70.46882 1017.53505
v -188.80478 158.48976 888.74934
v -384.50238 41.15357 888.74934
v -343.19851 -27.61032 1102.36312
v -147.50091 89.72587 1102.36312
v -188.80478 158.48976 888.74934
v -384.50238 41.15357 888.74934
v -343.19851 -27.61032 1102.36312
v -147.50091 89.72587 1102.36312
v -149.07851 73.36506 955.42466
v -292.61152 200.03771 955.42466
v -305.94131 184.90944 1145.79571
v -162.40829 58.23680 1145.79571
v -149.07851 73.36506 955.42466
v -292.61152 200.03771 955.42466
v -305.94131 184.90944 1145.79571
v -162.40829 58.23680 1145.79571
v 147.69551 141.60709 718.94295
v 102.39779 -108.49328 718.94295
v 72.80392 -103.15763 971.32720
v 118.10164 146.94274 971.32720
v 147.69551 141.60709 718.94295
v 102.39779 -108.49328 718.94295
v 72.80392 -103.15763 971.32720
v 118.10164 146.94274 971.32720
v 93.54339 -13.61968 865.79992
v 122.14950 239.95160 865.79992
v 132.99201 238.73717 1120.74632
v 104.38589 -14.83411 1120.74632
v 93.54339 -13.61968 865.79992
v 122.14950 239.95160 865.79992
v 132.99201 238.73717 1120.74632
v 104.38589 -14.83411 1120.74632
v 175.73446 -73.59475 1010.19935
v 65.99450 86.99425 1010.19935
v 125.10551 127.45739 1191.03162
v 234.84547 -33.13161 1191.03162
v 175.73446 -73.59475 1010.19935
v 65.99450 86.99425 1010.19935
v 125.10551 127.45739 1191.03162
v 234.84547 -33.13161 1191.03162
v 162.15004 -11.29230 716.00778
v 141.04435 180.75543 716.00778
v 126.82553 179.18134 908.68141
v 147.93122 -12.86638 908.68141
v 162.15004 -11.29230 716.00778
v 141.04435 180.75543 716.00778
v 126.82553 179.18134 908.68141
v 147.93122 -12.86638 908.68141
v 10.22869 107.02830 936.90863
v -226.04222 19.69064 936.90863
v -238.86623 54.29813 1186.08663
v -2.59532 141.63578 1186.08663
v 10.22869 107.02830 936.90863
v -226.04222 19.69064 936.90863
v -238.86623 54.29813 1186.08663
v -2.59532 141.63578 1186.08663
v 85.57969 -39.24431 874.77669
v -20.31211 93.53311 874.77669
v 24.24649 129.12729 1034.74700
v 130.13829 -3.65013 1034.74700
v 85.57969 -39.24431 874.77669
v -20.31211 93.53311 874.77669
v 24.24649 129.12729 1034.74700
v 130.13829 -3.65013 1034.74700
v -191.63017 -385.82159 855.96948
v -135.18827 -199.56298 855.96948
v -188.29080 -183.51749 1042.51873
v -244.73270 -369.77610 1042.51873
v -191.63017 -385.82159 855.96948
v -135.18827 -199.56298 855.96948
v -188.29080 -183.51749 1042.51873
v -244.73270 -369.77610 1042.51873
v 244.54934 122.68896 755.60636
v 203.84231 -55.85719 755.60636
v 249.80613 -66.29806 932.56428
v 290.51315 112.24809 932.56428
v 244.54934 122.68896 755.60636
v 203.84231 -55.85719 755.60636
v 249.80613 -66.29806 932.56428
v 290.51315 112.24809 932.56428
v -453.21482 36.17503 886.28284
v -440.74725 245.56839 886.28284
v -504.81917 249.33212 1085.98672
v -517.28675 39.93877 1085.98672
v -453.21482 36.17503 886.28284
v -440.74725 245.56839 886.28284
v -504.81917 249.33212 1085.98672
v -517.28675 39.93877 1085.98672
v -114.74612 62.96633 752.12594
v -153.11033 308.76383 752.12594
v -201.00477 301.24937 996.12979
v -162.64056 55.45186 996.12979
v -114.74612 62.96633 752.12594
v -153.11033 308.76383 752.12594
v -201.00477 301.24937 996.12979
v -162.64056 55.45186 996.12979
v -271.10246 150.82771 773.52077
v -205.93414 1.26025 773.52077
v -160.93631 20.90899 929.10502
v -226.10464 170.47645 929.10502
v -271.10246 150.82771 773.52077
v -205.93414 1.26025 773.52077
v -160.93631 20.90899 929.10502
v -226.10464 170.47645 929.10502
v 255.34427 250.27476 727.82432
v 279.79296 27.32156 727.82432
v 269.35449 26.16848 951.86801
v 244.90580 249.12168 951.86801
v 255.34427 250.27476 727.82432
v 279.79296 27.32156 727.82432
v 269.35449 26.16848 951.86801
v 244.90580 249.12168 951.86801
v -132.07631 227.72498 776.49293
v -240.24147 81.69349 776.49293
v -233.50122 76.70931 958.02701
v -125.33606 222.74080 958.02701
v -132.07631 227.72498 776.49293
v -240.24147 81.69349 776.49293
v -233.50122 76.70931 958.02701
v -125.33606 222.74080 958.02701
v 174.31435 301.60091 851.19281
v -13.32854 359.41543 851.19281
v -7.13967 379.55904 1046.40630
v 180.50322 321.74452 1046.40630
v 174.31435 301.60091 851.19281
v -13.32854 359.41543 851.19281
v -7.13967 379.55904 1046.40630
v 180.50322 321.74452 1046.40630
v 43.03441 80.08340 849.39312
v 81.55093 -131.11633 849.39312
v 118.88000 -124.27791 1060.69533
v 80.36347 86.92182 1060.69533
v 43.03441 80.08340 849.39312
v 81.55093 -131.11633 849.39312
v 118.88000 -124.27791 1060.69533
v 80.36347 86.92182 1060.69533
v 361.84354 -96.82750 867.08215
v 222.47834 -11.77395 867.08215
v 206.47332 -38.04614 1027.42671
v 345.83852 -123.09970 1027.42671
v 361.84354 -96.82750 867.08215
v 222.47834 -11.77395 867.08215
v 206.47332 -38.04614 1027.42671
v 345.83852 -123.09970 1027.42671
v 354.50490 -113.29081 822.49577
v 152.15610 44.44584 822.49577
v 191.29104 94.73173 1071.02278
v 393.63985 -63.00492 1071.02278
v 354.50490 -113.29081 822.49577
v 152.15610 44.44584 822.49577
v 191.29104 94.73173 1071.02278
v 393.63985 -63.00492 1071.02278
v -39.03703 -209.64726 732.25389
v 184.77895 -89.37551 732.25389
v 211.85816 -139.67162 979.83399
v -11.95782 -259.94338 979.83399
v -39.03703 -209.64726 732.25389
v 184.77895 -89.37551 732.25389
v 211.85816 -139.67162 979.83399
v -11.95782 -259.94338 979.83399
v 341.05152 487.47160 801.66693
v 326.89673 238.70700 801.66693
v 291.31358 240.70327 1048.27195
v 305.46837 489.46787 1048.27195
v 341.05152 487.47160 801.66693
v 326.89673 238.70700 801.66693
v 291.31358 240.70327 1048.27195
v 305.46837 489.46787 1048.27195
v -93.39397 107.04530 874.60729
v -76.45393 -61.32836 874.60729
v -115.23210 -65.26102 1039.28104
v -132.17214 103.11264 1039.28104
v -93.39397 107.04530 874.60729
v -76.45393 -61.32836 874.60729
v -115.23210 -65.26102 1039.28104
v -132.17214 103.11264 1039.28104
v 223.06785 288.33666 812.27463
v 51.24174 425.57186 812.27463
v 8.43665 371.88989 1021.18533
v 180.26276 234.65469 1021.18533
v 223.06785 288.33666 812.27463
v 51.24174 425.57186 812.27463
v 8.43665 371.88989 1021.18533
v 180.26276 234.65469 1021.18533
v -218.63427 -210.55437 843.56109
v -249.21272 27.29228 843.56109
v -158.62631 39.01174 1065.28801
v -128.04787 -198.83491 1065.28801
v -218.63427 -210.55437 843.56109
v -249.21272 27.29228 843.56109
v -158.62631 39.01174 1065.28801
v -128.04787 -198.83491 1065.28801
v -157.08817 -179.76995 717.84583
v -388.40184 -188.08389 717.84583
v -390.43876 -132.64198 942.56161
v -159.12508 -124.32804 942.56161
v -157.08817 -179.76995 717.84583
v -388.40184 -188.08389 717.84583
v -390.43876 -132.64198 942.56161
v -159.12508 -124.32804 942.56161
v -295.79502 318.31791 832.02435
v -69.47567 324.52695 832.02435
v -67.54464 256.12794 1047.84105
v -293.86399 249.91890 1047.84105
v -295.79502 318.31791 832.02435
v -69.47567 324.52695 832.02435
v -67.54464 256.12794 1047.84105
v -293.86399 249.91890 1047.84105
v -68.91903 -298.69846 881.58558
v 11.47234 -134.50496 881.58558
v -36.74670 -110.94385 1056.34848
v -117.13808 -275.13734 1056.34848
v -68.91903 -298.69846 881.58558
v 11.47234 -134.50496 881.58558
v -36.74670 -110.94385 1056.34848
v -117.13808 -275.13734 1056.34848
v 148.37762 -292.10718 864.15131
v -112.42541 -323.88801 864.15131
v -114.11128 -310.14445 1126.51845
v 146.69175 -278.36362 1126.51845
v 148.37762 -292.10718 864.15131
v -112.42541 -323.88801 864.15131
v -114.11128 -310.14445 1126.51845
v 146.69175 -278.36362 1126.51845
v -365.24893 47.45575 773.38630
v -97.71575 52.93321 773.38630
v -99.69663 146.06103 1024.23942
v -367.22981 140.58358 1024.23942
v -365.24893 47.45575 773.38630
v -97.71575 52.93321 773.38630
v -99.69663 146.06103 1024.23942
v -367.22981 140.58358 1024.23942
v 192.63997 -60.03606 879.78897
v 94.76439 100.70788 879.78897
v 134.87979 125.17761 1062.02571
v 232.75538 -35.56633 1062.02571
v 192.63997 -60.03606 879.78897
v 94.76439 100.70788 879.78897
v 134.87979 125.17761 1062.02571
v 232.75538 -35.56633 1062.02571
v -102.37946 -71.30198 991.52807
v -135.53029 -275.23690 991.52807
v -207.24045 -263.63859 1184.94875
v -174.08962 -59.70368 1184.94875
v -102.37946 -71.30198 991.52807
v -135.53029 -275.23690 991.52807
v -207.24045 -263.63859 1184.94875
v -174.08962 -59.70368 1184.94875
v 167.56613 -279.55593 781.85206
v 10.24316 -343.36645 781.85206
v 7.10882 -335.65647 951.41925
v 164.43179 -271.84595 951.41925
v 167.56613 -279.55593 781.85206
v 10.24316 -343.36645 781.85206
v 7.10882 -335.65647 951.41925
v 164.43179 -271.84595 951.41925
v -396.01328 129.30260 783.52482
v -537.56366 3.72130 783.52482
v -535.16205 1.01864 972.71811
v -393.61168 126.59994 972.71811
v -396.01328 129.30260 783.52482
v -537.56366 3.72130 783.52482
v -535.16205 1.01864 972.71811
v -393.61168 126.59994 972.71811
v 228.07576 -356.71241 856.09108
v -7.26050 -387.01095 856.09108
v -7.77476 -383.04158 1093.33597
v 227.56151 -352.74304 1093.33597
v 228.07576 -356.71241 856.09108
v -7.26050 -387.01095 856.09108
v -7.77476 -383.04158 1093.33597
v 227.56151 -352.74304 1093.33597
v 247.55620 -210.24038 809.66917
v 63.42067 -74.94472 809.66917
v 113.53505 -6.62579 1021.87634
v 297.67058 -141.92145 1021.87634
v 247.55620 -210.24038 809.66917
v 63.42067 -74.94472 809.66917
v 113.53505 -6.62579 1021.87634
v 297.67058 -141.92145 1021.87634
v -87.03536 275.32337 754.22746
v -128.83808 522.15479 754.22746
v -160.79733 516.71607 1002.46574
v -118.99461 269.88465 1002.46574
v -87.03536 275.32337 754.22746
v -128.83808 522.15479 754.22746
v -160.79733 516.71607 1002.46574
v -118.99461 269.88465 1002.46574
v 109.77475 324.72663 894.03029
v -68.63065 207.15792 894.03029
v -69.58962 208.61058 1107.68389
v 108.81579 326.17929 1107.68389
v 109.77475 324.72663 894.03029
v -68.63065 207.15792 894.03029
v -69.58962 208.61058 1107.68389
v 108.81579 326.17929 1107.68389
v 19.64178 -204.20862 775.60879
v -204.17528 -103.19930 775.60879
v -242.42079 -188.12426 1002.81352
v -18.60374 -289.13357 1002.81352
v 19.64178 -204.20862 775.60879
v -204.17528 -103.19930 775.60879
v -242.42079 -188.12426 1002.81352
v -18.60374 -289.13357 1002.81352
v 169.58929 -104.42440 906.28144
v 96.82155 125.20695 906.28144
v 105.21447 127.87393 1147.00565
v 177.98221 -101.75742 1147.00565
v 169.58929 -104.42440 906.28144
v 96.82155 125.20695 906.28144
v 105.21447 127.87393 1147.00565
v 177.98221 -101.75742 1147.00565
v 324.00986 24.00147 960.16880
v 82.42827 79.98233 960.16880
v 99.55116 154.14345 1196.18247
v 341.13274 98.16258 1196.18247
v 324.00986 24.00147 960.16880
v 82.42827 79.98233 960.16880
v 99.55116 154.14345 1196.18247
v 341.13274 98.16258 1196.18247
v -12.21324 174.60657 782.52956
v 195.30611 81.55929 782.52956
v 193.72869 78.03374 1009.92164
v -13.79065 171.08101 1009.92164
v -12.21324 174.60657 782.52956
v 195.30611 81.55929 782.52956
v 193.72869 78.03374 1009.92164
v -13.79065 171.08101 1009.92164
v 191.89956 -388.00111 853.98731
v 41.77755 -202.84455 853.98731
v 27.21240 -214.67298 1091.61625
v 177.33441 -399.82954 1091.61625
v 191.89956 -388.00111 853.98731
v 41.77755 -202.84455 853.98731
v 27.21240 -214.67298 1091.61625
v 177.33441 -399.82954 1091.61625
v 269.87456 62.13721 808.61951
v 477.17705 -74.10060 808.61951
v 428.92295 -147.65266 1040.56067
v 221.62046 -11.41486 1040.56067
v 269.87456 62.13721 808.61951
v 477.17705 -74.10060 808.61951
v 428.92295 -147.65266 1040.56067
v 221.62046 -11.41486 1040.56067
v -137.73760 110.64666 763.12333
v 81.76128 -2.73364 763.12333
v 51.61514 -61.20928 1001.25493
v -167.88373 52.17103 1001.25493
v -137.73760 110.64666 763.12333
v 81.76128 -2.73364 763.12333
v 51.61514 -61.20928 1001.25493
v -167.88373 52.17103 1001.25493
v 13.44028 69.69938 873.28506
v -54.79566 232.29107 873.28506
v -89.96180 217.49972 1045.43836
v -21.72587 54.90803 1045.43836
v 13.44028 69.69938 873.28506
v -54.79566 232.29107 873.28506
v -89.96180 217.49972 1045.43836
v -21.72587 54.90803 1045.43836
v -344.02003 368.87407 783.29214
v -319.70529 105.51427 783.29214
v -372.67605 100.58119 1042.36618
v -396.99079 363.94099 1042.36618
v -344.02003 368.87407 783.29214
v -319.70529 105.51427 783.29214
v -372.67605 100.58119 1042.36618
v -396.99079 363.94099 1042.36618
v 255.20311 202.10084 830.23128
v 223.92082 450.50173 830.23128
v 180.08957 444.94640 1076.66493
v 211.37186 196.54550 1076.66493
v 255.20311 202.10084 830.23128
v 223.92082 450.50173 830.23128
v 180.08957 444.94640 1076.66493
v 211.37186 196.54550 1076.66493
v -263.83953 -15.46757 732.10566
v -81.22019 67.30920 732.10566
v -96.55402 101.06666 929.15166
v -279.17336 18.28988 929.15166
v -263.83953 -15.46757 732.10566
v -81.22019 67.30920 732.10566
v -96.55402 101.06666 929.15166
v -279.17336 18.28988 929.15166
v 145.15460 -250.33437 774.38324
v -37.96346 -426.88924 774.38324
v -19.07649 -446.44712 1027.29551
v 164.04157 -269.89225 1027.29551
v 145.15460 -250.33437 774.38324
v -37.96346 -426.88924 774.38324
v -19.07649 -446.44712 1027.29551
v 164.04157 -269.89225 1027.29551
v -345.64384 129.12508 850.60373
v -185.60463 36.14451 850.60373
v -204.70896 3.20155 1031.73275
v -364.74818 96.18212 1031.73275
v -345.64384 129.12508 850.60373
v -185.60463 36.14451 850.60373
v -204.70896 3.20155 1031.73275
v -364.74818 96.18212 1031.73275
v -61.25820 195.74453 808.24313
v -280.92362 347.64058 808.24313
v -328.51496 278.69878 1061.83217
v -108.84954 126.80272 1061.83217
v -61.25820 195.74453 808.24313
v -280.92362 347.64058 808.24313
v -328.51496 278.69878 1061.83217
v -108.84954 126.80272 1061.83217
v -148.71588 -64.52303 841.14664
v -165.39687 156.00393 841.14664
v -86.36889 162.04502 1047.61330
v -69.68790 -58.48194 1047.61330
v -148.71588 -64.52303 841.14664
v -165.39687 156.00393 841.14664
v -86.36889 162.04502 1047.61330
v -69.68790 -58.48194 1047.61330
v -370.58684 119.07846 766.86686
v -232.76422 -77.89065 766.86686
v -271.49101 -105.03441 1002.56870
v -409.31363 91.93471 1002.56870
v -370.58684 119.07846 766.86686
v -232.76422 -77.89065 766.86686
v -271.49101 -105.03441 1002.56870
v -409.31363 91.93471 1002.56870
v 191.23299 -225.58321 807.76080
v 280.98151 -413.93440 807.76080
v 342.62861 -384.49957 1004.90083
v 252.88010 -196.14838 1004.90083
v 191.23299 -225.58321 807.76080
v 280.98151 -413.93440 807.76080
v 342.62861 -384.49957 1004.90083
v 252.88010 -196.14838 1004.90083
v 214.36822 -86.90874 843.36094
v 109.37463 72.67607 843.36094
v 70.54163 47.08284 1028.63898
v 175.53522 -112.50197 1028.63898
v 214.36822 -86.90874 843.36094
v 109.37463 72.67607 843.36094
v 70.54163 47.08284 1028.63898
v 175.53522 -112.50197 1028.63898
v 184.53457 -346.78443 825.59683
v -38.95505 -443.19033 825.59683
v -73.73196 -362.74615 1052.66732
v 149.75766 -266.34025 1052.66732
v 184.53457 -346.78443 825.59683
v -38.95505 -443.19033 825.59683
v -73.73196 -362.74615 1052.66732
v 149.75766 -266.34025 1052.66732
v -99.53555 310.20783 824.20566
v -245.36385 209.08598 824.20566
v -220.07778 172.68277 996.03971
v -74.24949 273.80462 996.03971
v -99.53555 310.20783 824.20566
v -245.36385 209.08598 824.20566
v -220.07778 172.68277 996.03971
v -74.24949 273.80462 996.03971
v 109.20286 -249.43621 794.40369
v -23.97436 -429.36766 794.40369
v -28.47397 -426.04280 1018.18974
v 104.70326 -246.11135 1018.18974
v 109.20286 -249.43621 794.40369
v -23.97436 -429.36766 794.40369
v -28.47397 -426.04280 1018.18974
v 104.70326 -246.11135 1018.18974
v -410.76082 222.53366 780.24099
v -198.01642 122.91735 780.24099
v -193.15966 133.31117 1014.87255
v -405.90406 232.92748 1014.87255
v -410.76082 222.53366 780.24099
v -198.01642 122.91735 780.24099
v -193.15966 133.31117 1014.87255
v -405.90406 232.92748 1014.87255
v -26.41722 -143.90475 978.00540
v 73.33741 -274.61682 978.00540
v 111.81532 -245.20338 1135.13888
v 12.06070 -114.49131 1135.13888
v -26.41722 -143.90475 978.00540
v 73.33741 -274.61682 978.00540
v 111.81532 -245.20338 1135.13888
v 12.06070 -114.49131 1135.13888
v 6.65904 -387.28055 834.83477
v -14.39899 -144.53402 834.83477
v -79.51908 -150.23537 1069.56054
v -58.46104 -392.98191 1069.56054
v 6.65904 -387.28055 834.83477
v -14.39899 -144.53402 834.83477
v -79.51908 -150.23537 1069.56054
v -58.46104 -392.98191 1069.56054
v 16.27669 190.60458 759.24816
v 27.13738 -49.35403 759.24816
v 45.02110 -48.53033 998.78434
v 34.16041 191.42828 998.78434
v 16.27669 190.60458 759.24816
v 27.13738 -49.35403 759.24816
v 45.02110 -48.53033 998.78434
v 34.16041 191.42828 998.78434
v -421.92348 209.58684 792.94028
v -221.44774 205.50343 792.94028
v -221.68833 193.21096 993.08031
v -422.16407 197.29437 993.08031
v -421.92348 209.58684 792.94028
v -221.44774 205.50343 792.94028
v -221.68833 193.21096 993.08031
v -422.16407 197.29437 993.08031
v 155.80323 4.33790 744.77618
v 199.29135 -247.76589 744.77618
v 285.30767 -232.85745 985.24753
v 241.81955 19.24633 985.24753
v 155.80323 4.33790 744.77618
v 199.29135 -247.76589 744.77618
v 285.30767 -232.85745 985.24753
v 241.81955 19.24633 985.24753
v 252.65631 185.93247 766.76564
v 328.14498 20.47055 766.76564
v 372.52408 40.76034 941.96554
v 297.03541 206.22225 941.96554
v 252.65631 185.93247 766.76564
v 328.14498 20.47055 766.76564
v 372.52408 40.76034 941.96554
v 297.03541 206.22225 941.96554
v -222.32078 -311.13943 844.32515
v -54.87573 -413.70278 844.32515
v -30.69122 -374.14844 1035.13304
v -198.13627 -271.58510 1035.13304
v -222.32078 -311.13943 844.32515
v -54.87573 -413.70278 844.32515
v -30.69122 -374.14844 1035.13304
v -198.13627 -271.58510 1035.13304
vt 0.00000 2.00000
vt 2.00000 2.00000
vt 2.00000 0.00000
vt 0.00000 0.00000
vt 0.00000 2.00000
vt 2.00000 2.00000
vt 2.00000 0.00000
vt 0.00000 0.00000
vt 0.00000 2.00000
vt 2.00000 2.00000
vt 2.00000 0.00000
vt 0.00000 0.00000
vt 0.00000 2.00000
vt 2.00000 2.00000
vt 2.00000 0.00000
vt 0.00000 0.00000
vt 0.00000 2.00000
vt 2.00000 2.00000
vt 2.00000 0.00000
vt 0.00000 0.00000
vt 0.00000 2.00000
vt 2.00000 2.00000
vt 2.00000 0.00000
vt 0.00000 0.00000
vt 0.00000 2.00000
vt 2.00000 2.00000
vt 2.00000 0.00000
vt 0.00000 0.00000
vt 0.00000 2.00000
vt 2.00000 2.00000
vt 2.00000 0.00000
vt 0.00000 0.00000
vt 0.00000 2.00000
vt 2.00000 2.00000
vt 2.00000 0.00000
vt 0.00000 0.00000
vt 0.00000 2.00000
vt 2.00000 2.00000
vt 2.00000 0.00000
vt 0.00000 0.00000
vt 0.00000 2.00000
vt 2.00000 2.00000
vt 2.00000 0.00000
vt 0.00000 0.00000
vt 0.00000 2.00000
vt 2.00000 2.00000
vt 2.00000 0.00000
vt 0.00000 0.00000
vt 0.00000 2.00000
vt 2.00000 2.00000
vt 2.00000 0.00000
vt 0.00000 0.00000
vt 0.00000 2.00000
vt 2.00000 2.00000
vt 2.00000 0.00000
vt 0.00000 0.00000
vt 0.00000 2.00000
vt 2.00000 2.00000
vt 2.00000 0.00000
vt 0.00000 0.00000
vt 0.00000 2.00000
vt 2.00000 2.00000
vt 2.00000 0.00000
vt 0.00000 0.00000
vt 0.00000 2.00000
vt 2.00000 2.00000
vt 2.00000 0.00000
vt 0.00000 0.00000
vt 0.00000 2.00000
vt 2.00000 2.00000
vt 2.00000 0.00000
vt 0.00000 0.00000
vt 0.00000 2.00000
vt 2.00000 2.00000
vt 2.00000 0.00000
vt 0.00000 0.00000
vt 0.00000 2.00000
vt 2.00000 2.00000
vt 2.00000 0.00000
vt 0.00000 0.00000
vt 0.00000 2.00000
vt 2.00000 2.00000
vt 2.00000 0.00000
vt 0.00000 0.00000
vt 0.00000 2.00000
vt 2.00000 2.00000
vt 2.00000 0.00000
vt 0.00000 0.00000
vt 0.00000 2.00000
vt 2.00000 2.00000
vt 2.00000 0.00000
vt 0.00000 0.00000
vt 0.00000 2.00000
vt 2.00000 2.00000
vt 2.00000 0.00000
vt 0.00000 0.00000
vt 0.00000 2.00000
vt 2.00000 2.00000
vt 2.00000 0.00000
vt 0.00000 0.00000
vt 0.00000 2.00000
vt 2.00000 2.00000
vt 2.00000 0.00000
vt 0.00000 0.00000
vt 0.00000 2.00000
vt 2.00000 2.00000
vt 2.00000 0.00000
vt 0.00000 0.00000
vt 0.00000 2.00000
vt 2.00000 2.00000
vt 2.00000 0.00000
vt 0.00000 0.00000
vt 0.00000 2.00000
vt 2.00000 2.00000
vt 2.00000 0.00000
vt 0.00000 0.00000
vt 0.00000 2.00000
vt 2.00000 2.00000
vt 2.00000 0.00000
vt 0.00000 0.00000
vt 0.00000 2.00000
vt 2.00000 2.00000
vt 2.00000 0.00000
vt 0.00000 0.00000
vt 0.00000 2.00000
vt 2.00000 2.00000
vt 2.00000 0.00000
vt 0.00000 0.00000
vt 0.00000 2.00000
vt 2.00000 2.00000
vt 2.00000 0.00000
vt 0.00000 0.00000
vt 0.00000 2.00000
vt 2.00000 2.00000
vt 2.00000 0.00000
vt 0.00000 0.00000
vt 0.00000 2.00000
vt 2.00000 2.00000
vt 2.00000 0.00000
vt 0.00000 0.00000
vt 0.00000 2.00000
vt 2.00000 2.00000
vt 2.00000 0.00000
vt 0.00000 0.00000
vt 0.00000 2.00000
vt 2.00000 2.00000
vt 2.00000 0.00000
vt 0.00000 0.00000
vt 0.00000 2.00000
vt 2.00000 2.00000
vt 2.00000 0.00000
vt 0.00000 0.00000
vt 0.00000 2.00000
vt 2.00000 2.00000
vt 2.00000 0.00000
vt 0.00000 0.00000
vt 0.00000 2.00000
vt 2.00000 2.00000
vt 2.00000 0.00000
vt 0.00000 0.00000
vt 0.00000 2.00000
vt 2.00000 2.00000
vt 2.00000 0.00000
vt 0.00000 0.00000
vt 0.00000 2.00000
vt 2.00000 2.00000
vt 2.00000 0.00000
vt 0.00000 0.00000
vt 0.00000 2.00000
vt 2.00000 2.00000
vt 2.00000 0.00000
vt 0.00000 0.00000
vt 0.00000 2.00000
vt 2.00000 2.00000
vt 2.00000 0.00000
vt 0.00000 0.00000
vt 0.00000 2.00000
vt 2.00000 2.00000
vt 2.00000 0.00000
vt 0.00000 0.00000
vt 0.00000 2.00000
vt 2.00000 2.00000
vt 2.00000 0.00000
vt 0.00000 0.00000
vt 0.00000 2.00000
vt 2.00000 2.00000
vt 2.00000 0.00000
vt 0.00000 0.00000
vt 0.00000 2.00000
vt 2.00000 2.00000
vt 2.00000 0.00000
vt 0.00000 0.00000
vt 0.00000 2.00000
vt 2.00000 2.00000
vt 2.00000 0.00000
vt 0.00000 0.00000
vt 0.00000 2.00000
vt 2.00000 2.00000
vt 2.00000 0.00000
vt 0.00000 0.00000
vt 0.00000 2.00000
vt 2.00000 2.00000
vt 2.00000 0.00000
vt 0.00000 0.00000
vt 0.00000 2.00000
vt 2.00000 2.00000
vt 2.00000 0.00000
vt 0.00000 0.00000
vt 0.00000 2.00000
vt 2.00000 2.00000
vt 2.00000 0.00000
vt 0.00000 0.00000
vt 0.00000 2.00000
vt 2.00000 2.00000
vt 2.00000 0.00000
vt 0.00000 0.00000
vt 0.00000 2.00000
vt 2.00000 2.00000
vt 2.00000 0.00000
vt 0.00000 0.00000
vt 0.00000 2.00000
vt 2.00000 2.00000
vt 2.00000 0.00000
vt 0.00000 0.00000
vt 0.00000 2.00000
vt 2.00000 2.00000
vt 2.00000 0.00000
vt 0.00000 0.00000
vt 0.00000 2.00000
vt 2.00000 2.00000
vt 2.00000 0.00000
vt 0.00000 0.00000
vt 0.00000 2.00000
vt 2.00000 2.00000
vt 2.00000 0.00000
vt 0.00000 0.00000
vt 0.00000 2.00000
vt 2.00000 2.00000
vt 2.00000 0.00000
vt 0.00000 0.00000
vt 0.00000 2.00000
vt 2.00000 2.00000
vt 2.00000 0.00000
vt 0.00000 0.00000
vt 0.00000 2.00000
vt 2.00000 2.00000
vt 2.00000 0.00000
vt 0.00000 0.00000
vt 0.00000 2.00000
vt 2.00000 2.00000
vt 2.00000 0.00000
vt 0.00000 0.00000
vt 0.00000 2.00000
vt 2.00000 2.00000
vt 2.00000 0.00000
vt 0.00000 0.00000
vt 0.00000 2.00000
vt 2.00000 2.00000
vt 2.00000 0.00000
vt 0.00000 0.00000
vt 0.00000 2.00000
vt 2.00000 2.00000
vt 2.00000 0.00000
vt 0.00000 0.00000
vt 0.00000 2.00000
vt 2.00000 2.00000
vt 2.00000 0.00000
vt 0.00000 0.00000
vt 0.00000 2.00000
vt 2.00000 2.00000
vt 2.00000 0.00000
vt 0.00000 0.00000
vt 0.00000 2.00000
vt 2.00000 2.00000
vt 2.00000 0.00000
vt 0.00000 0.00000
vt 0.00000 2.00000
vt 2.00000 2.00000
vt 2.00000 0.00000
vt 0.00000 0.00000
vt 0.00000 2.00000
vt 2.00000 2.00000
vt 2.00000 0.00000
vt 0.00000 0.00000
vt 0.00000 2.00000
vt 2.00000 2.00000
vt 2.00000 0.00000
vt 0.00000 0.00000
vt 0.00000 2.00000
vt 2.00000 2.00000
vt 2.00000 0.00000
vt 0.00000 0.00000
vt 0.00000 2.00000
vt 2.00000 2.00000
vt 2.00000 0.00000
vt 0.00000 0.00000
vt 0.00000 2.00000
vt 2.00000 2.00000
vt 2.00000 0.00000
vt 0.00000 0.00000
vt 0.00000 2.00000
vt 2.00000 2.00000
vt 2.00000 0.00000
vt 0.00000 0.00000
vt 0.00000 2.00000
vt 2.00000 2.00000
vt 2.00000 0.00000
vt 0.00000 0.00000
vt 0.00000 2.00000
vt 2.00000 2.00000
vt 2.00000 0.00000
vt 0.00000 0.00000
vt 0.00000 2.00000
vt 2.00000 2.00000
vt 2.00000 0.00000
vt 0.00000 0.00000
vt 0.00000 2.00000
vt 2.00000 2.00000
vt 2.00000 0.00000
vt 0.00000 0.00000
vt 0.00000 2.00000
vt 2.00000 2.00000
vt 2.00000 0.00000
vt 0.00000 0.00000
vt 0.00000 2.00000
vt 2.00000 2.00000
vt 2.00000 0.00000
vt 0.00000 0.00000
vt 0.00000 2.00000
vt 2.00000 2.00000
vt 2.00000 0.00000
vt 0.00000 0.00000
vt 0.00000 2.00000
vt 2.00000 2.00000
vt 2.00000 0.00000
vt 0.00000 0.00000
vt 0.00000 2.00000
vt 2.00000 2.00000
vt 2.00000 0.00000
vt 0.00000 0.00000
vt 0.00000 2.00000
vt 2.00000 2.00000
vt 2.00000 0.00000
vt 0.00000 0.00000
vt 0.00000 2.00000
vt 2.00000 2.00000
vt 2.00000 0.00000
vt 0.00000 0.00000
vt 0.00000 2.00000
vt 2.00000 2.00000
vt 2.00000 0.00000
vt 0.00000 0.00000
vt 0.00000 2.00000
vt 2.00000 2.00000
vt 2.00000 0.00000
vt 0.00000 0.00000
vt 0.00000 2.00000
vt 2.00000 2.00000
vt 2.00000 0.00000
vt 0.00000 0.00000
vt 0.00000 2.00000
vt 2.00000 2.00000
vt 2.00000 0.00000
vt 0.00000 0.00000
vt 0.00000 2.00000
vt 2.00000 2.00000
vt 2.00000 0.00000
vt 0.00000 0.00000
vt 0.00000 2.00000
vt 2.00000 2.00000
vt 2.00000 0.00000
vt 0.00000 0.00000
vt 0.00000 2.00000
vt 2.00000 2.00000
vt 2.00000 0.00000
vt 0.00000 0.00000
vt 0.00000 2.00000
vt 2.00000 2.00000
vt 2.00000 0.00000
vt 0.00000 0.00000
vt 0.00000 2.00000
vt 2.00000 2.00000
vt 2.00000 0.00000
vt 0.00000 0.00000
vt 0.00000 2.00000
vt 2.00000 2.00000
vt 2.00000 0.00000
vt 0.00000 0.00000
vt 0.00000 2.00000
vt 2.00000 2.00000
vt 2.00000 0.00000
vt 0.00000 0.00000
vt 0.00000 2.00000
vt 2.00000 2.00000
vt 2.00000 0.00000
vt 0.00000 0.00000
vt 0.00000 2.00000
vt 2.00000 2.00000
vt 2.00000 0.00000
vt 0.00000 0.00000
vt 0.00000 2.00000
vt 2.00000 2.00000
vt 2.00000 0.00000
vt 0.00000 0.00000
vt 0.00000 2.00000
vt 2.00000 2.00000
vt 2.00000 0.00000
vt 0.00000 0.00000
vt 0.00000 2.00000
vt 2.00000 2.00000
vt 2.00000 0.00000
vt 0.00000 0.00000
vt 0.00000 2.00000
vt 2.00000 2.00000
vt 2.00000 0.00000
vt 0.00000 0.00000
vt 0.00000 2.00000
vt 2.00000 2.00000
vt 2.00000 0.00000
vt 0.00000 0.00000
vt 0.00000 2.00000
vt 2.00000 2.00000
vt 2.00000 0.00000
vt 0.00000 0.00000
vt 0.00000 2.00000
vt 2.00000 2.00000
vt 2.00000 0.00000
vt 0.00000 0.00000
vt 0.00000 2.00000
vt 2.00000 2.00000
vt 2.00000 0.00000
vt 0.00000 0.00000
vt 0.00000 2.00000
vt 2.00000 2.00000
vt 2.00000 0.00000
vt 0.00000 0.00000
vt 0.00000 2.00000
vt 2.00000 2.00000
vt 2.00000 0.00000
vt 0.00000 0.00000
vt 0.00000 2.00000
vt 2.00000 2.00000
vt 2.00000 0.00000
vt 0.00000 0.00000
vt 0.00000 2.00000
vt 2.00000 2.00000
vt 2.00000 0.00000
vt 0.00000 0.00000
vt 0.00000 2.00000
vt 2.00000 2.00000
vt 2.00000 0.00000
vt 0.00000 0.00000
vt 0.00000 2.00000
vt 2.00000 2.00000
vt 2.00000 0.00000
vt 0.00000 0.00000
vt 0.00000 2.00000
vt 2.00000 2.00000
vt 2.00000 0.00000
vt 0.00000 0.00000
vt 0.00000 2.00000
vt 2.00000 2.00000
vt 2.00000 0.00000
vt 0.00000 0.00000
vt 0.00000 2.00000
vt 2.00000 2.00000
vt 2.00000 0.00000
vt 0.00000 0.00000
vt 0.00000 2.00000
vt 2.00000 2.00000
vt 2.00000 0.00000
vt 0.00000 0.00000
vt 0.00000 2.00000
vt 2.00000 2.00000
vt 2.00000 0.00000
vt 0.00000 0.00000
vt 0.00000 2.00000
vt 2.00000 2.00000
vt 2.00000 0.00000
vt 0.00000 0.00000
vt 0.00000 2.00000
vt 2.00000 2.00000
vt 2.00000 0.00000
vt 0.00000 0.00000
vt 0.00000 2.00000
vt 2.00000 2.00000
vt 2.00000 0.00000
vt 0.00000 0.00000
vt 0.00000 2.00000
vt 2.00000 2.00000
vt 2.00000 0.00000
vt 0.00000 0.00000
vt 0.00000 2.00000
vt 2.00000 2.00000
vt 2.00000 0.00000
vt 0.00000 0.00000
vt 0.00000 2.00000
vt 2.00000 2.00000
vt 2.00000 0.00000
vt 0.00000 0.00000
vt 0.00000 2.00000
vt 2.00000 2.00000
vt 2.00000 0.00000
vt 0.00000 0.00000
vt 0.00000 2.00000
vt 2.00000 2.00000
vt 2.00000 0.00000
vt 0.00000 0.00000
vt 0.00000 2.00000
vt 2.00000 2.00000
vt 2.00000 0.00000
vt 0.00000 0.00000
vt 0.00000 2.00000
vt 2.00000 2.00000
vt 2.00000 0.00000
vt 0.00000 0.00000
vt 0.00000 2.00000
vt 2.00000 2.00000
vt 2.00000 0.00000
vt 0.00000 0.00000
vt 0.00000 2.00000
vt 2.00000 2.00000
vt 2.00000 0.00000
vt 0.00000 0.00000
vt 0.00000 2.00000
vt 2.00000 2.00000
vt 2.00000 0.00000
vt 0.00000 0.00000
vt 0.00000 2.00000
vt 2.00000 2.00000
vt 2.00000 0.00000
vt 0.00000 0.00000
vt 0.00000 2.00000
vt 2.00000 2.00000
vt 2.00000 0.00000
vt 0.00000 0.00000
vt 0.00000 2.00000
vt 2.00000 2.00000
vt 2.00000 0.00000
vt 0.00000 0.00000
vt 0.00000 2.00000
vt 2.00000 2.00000
vt 2.00000 0.00000
vt 0.00000 0.00000
vt 0.00000 2.00000
vt 2.00000 2.00000
vt 2.00000 0.00000
vt 0.00000 0.00000
vt 0.00000 2.00000
vt 2.00000 2.00000
vt 2.00000 0.00000
vt 0.00000 0.00000
vt 0.00000 2.00000
vt 2.00000 2.00000
vt 2.00000 0.00000
vt 0.00000 0.00000
vt 0.00000 2.00000
vt 2.00000 2.00000
vt 2.00000 0.00000
vt 0.00000 0.00000
vn 0.6900 0.7200 0.0746
vn -0.6900 -0.7200 -0.0746
vn 0.4323 0.8989 0.0720
vn -0.4323 -0.8989 -0.0720
vn 0.7206 0.6933 0.0060
vn -0.7206 -0.6933 -0.0060
vn -0.8331 -0.4903 -0.2558
vn 0.8331 0.4903 0.2558
vn 0.4814 -0.8029 -0.3515
vn -0.4814 0.8029 0.3515
vn -0.6580 -0.7456 -0.1053
vn 0.6580 0.7456 0.1053
vn 0.9771 -0.1770 0.1183
vn -0.9771 0.1770 -0.1183
vn -0.9928 0.1120 0.0428
vn 0.9928 -0.1120 -0.0428
vn -0.7676 -0.5245 0.3683
vn 0.7676 0.5245 -0.3683
vn -0.9913 -0.1089 -0.0740
vn 0.9913 0.1089 0.0740
vn 0.3430 -0.9278 0.1465
vn -0.3430 0.9278 -0.1465
vn -0.7364 -0.5873 0.3358
vn 0.7364 0.5873 -0.3358
vn -0.9173 0.2780 -0.2850
vn 0.9173 -0.2780 0.2850
vn 0.9421 -0.2148 -0.2574
vn -0.9421 0.2148 0.2574
vn -0.9504 0.0566 -0.3060
vn 0.9504 -0.0566 0.3060
vn -0.9691 -0.1513 -0.1949
vn 0.9691 0.1513 0.1949
vn 0.8743 0.3809 -0.3010
vn -0.8743 -0.3809 0.3010
vn 0.9930 0.1089 0.0468
vn -0.9930 -0.1089 -0.0468
vn 0.8027 -0.5946 -0.0461
vn -0.8027 0.5946 0.0461
vn -0.2927 -0.9501 0.1073
vn 0.2927 0.9501 -0.1073
vn 0.9683 0.1766 -0.1768
vn -0.9683 -0.1766 0.1768
vn -0.5116 -0.8383 -0.1884
vn 0.5116 0.8383 0.1884
vn -0.5955 -0.7640 0.2484
vn 0.5955 0.7640 -0.2484
vn -0.4612 0.8583 0.2248
vn 0.4612 -0.8583 -0.2248
vn 0.9881 -0.0562 0.1430
vn -0.9881 0.0562 -0.1430
vn 0.9682 0.0974 0.2303
vn -0.9682 -0.0974 -0.2303
vn -0.5929 -0.7423 -0.3122
vn 0.5929 0.7423 0.3122
vn -0.9171 -0.1179 0.3809
vn 0.9171 0.1179 -0.3809
vn 0.0349 -0.9702 0.2397
vn -0.0349 0.9702 -0.2397
vn -0.0261 0.9529 0.3022
vn 0.0261 -0.9529 -0.3022
vn -0.8586 0.4204 -0.2936
vn 0.8586 -0.4204 0.2936
vn 0.1208 -0.9913 0.0527
vn -0.1208 0.9913 -0.0527
vn -0.0192 0.9373 -0.3481
vn 0.0192 -0.9373 0.3481
vn -0.8271 -0.5036 0.2497
vn 0.8271 0.5036 -0.2497
vn 0.9240 -0.1502 0.3516
vn -0.9240 0.1502 -0.3516
vn 0.3754 -0.9256 0.0490
vn -0.3754 0.9256 -0.0490
vn 0.6635 -0.7479 -0.0191
vn -0.6635 0.7479 0.0191
vn 0.1277 -0.9917 0.0169
vn -0.1277 0.9917 -0.0169
vn -0.5499 -0.7484 0.3708
vn 0.5499 0.7484 -0.3708
vn -0.9777 -0.1656 -0.1295
vn 0.9777 0.1656 0.1295
vn 0.5502 -0.8350 0.0081
vn -0.5502 0.8350 -0.0081
vn -0.3806 -0.8434 -0.3793
vn 0.3806 0.8434 0.3793
vn -0.9526 -0.3019 0.0366
vn 0.9526 0.3019 -0.0366
vn -0.2148 -0.9272 0.3069
vn 0.2148 0.9272 -0.3069
vn 0.4091 0.9123 0.0170
vn -0.4091 -0.9123 -0.0170
vn -0.7744 -0.6278 -0.0787
vn 0.7744 0.6278 0.0787
vn 0.5135 0.7814 0.3546
vn -0.5135 -0.7814 -0.3546
vn 0.4424 0.8564 0.2663
vn -0.4424 -0.8564 -0.2663
vn -0.9002 -0.3778 -0.2164
vn 0.9002 0.3778 0.2164
vn 0.9754 0.0901 0.2011
vn -0.9754 -0.0901 -0.2011
vn -0.9766 -0.1230 -0.1765
vn 0.9766 0.1230 0.1765
vn -0.4057 0.8951 -0.1849
vn 0.4057 -0.8951 0.1849
vn 0.6901 -0.7158 -0.1069
vn -0.6901 0.7158 0.1069
vn 0.4916 0.8462 0.2057
vn -0.4916 -0.8462 -0.2057
vn -0.5400 -0.7810 -0.3137
vn 0.5400 0.7810 0.3137
vn -0.9309 -0.0704 0.3584
vn 0.9309 0.0704 -0.3584
vn 0.8033 0.5621 0.1967
vn -0.8033 -0.5621 -0.1967
vn 0.8530 0.4064 -0.3274
vn -0.8530 -0.4064 0.3274
vn -0.8103 -0.5331 -0.2435
vn 0.8103 0.5331 0.2435
vn 0.3695 -0.8566 0.3601
vn -0.3695 0.8566 -0.3601
vn 0.5518 -0.7957 -0.2498
vn -0.5518 0.7957 0.2498
vn 0.8035 -0.5947 0.0250
vn -0.8035 0.5947 -0.0250
vn 0.4236 0.9046 -0.0488
vn -0.4236 -0.9046 0.0488
vn 0.7597 0.5798 -0.2946
vn -0.7597 -0.5798 0.2946
vn -0.9597 -0.0833 -0.2683
vn 0.9597 0.0833 0.2683
vn 0.9962 0.0451 -0.0745
vn -0.9962 -0.0451 0.0745
vn 0.0203 0.9979 0.0613
vn -0.0203 -0.9979 -0.0613
vn 0.9263 0.1598 -0.3412
vn -0.9263 -0.1598 0.3412
vn 0.8764 0.3999 -0.2683
vn -0.8764 -0.3999 0.2683
vn 0.5076 0.8286 -0.2361
vn -0.5076 -0.8286 0.2361
f 1/1/1 3/3/1 2/2/1
f 1/1/1 4/4/1 3/3/1
f 5/5/2 7/7/2 8/8/2
f 5/5/2 6/6/2 7/7/2
f 9/9/3 11/11/3 10/10/3
f 9/9/3 12/12/3 11/11/3
f 13/13/4 15/15/4 16/16/4
f 13/13/4 14/14/4 15/15/4
f 17/17/5 19/19/5 18/18/5
f 17/17/5 20/20/5 19/19/5
f 21/21/6 23/23/6 24/24/6
f 21/21/6 22/22/6 23/23/6
f 25/25/7 27/27/7 26/26/7
f 25/25/7 28/28/7 27/27/7
f 29/29/8 31/31/8 32/32/8
f 29/29/8 30/30/8 31/31/8
f 33/33/9 35/35/9 34/34/9
f 33/33/9 36/36/9 35/35/9
f 37/37/10 39/39/10 40/40/10
f 37/37/10 38/38/10 39/39/10
f 41/41/11 43/43/11 42/42/11
f 41/41/11 44/44/11 43/43/11
f 45/45/12 47/47/12 48/48/12
f 45/45/12 46/46/12 47/47/12
f 49/49/13 51/51/13 50/50/13
f 49/49/13 52/52/13 51/51/13
f 53/53/14 55/55/14 56/56/14
f 53/53/14 54/54/14 55/55/14
f 57/57/15 59/59/15 58/58/15
f 57/57/15 60/60/15 59/59/15
f 61/61/16 63/63/16 64/64/16
f 61/61/16 62/62/16 63/63/16
f 65/65/17 67/67/17 66/66/17
f 65/65/17 68/68/17 67/67/17
f 69/69/18 71/71/18 72/72/18
f 69/69/18 70/70/18 71/71/18
f 73/73/19 75/75/19 74/74/19
f 73/73/19 76/76/19 75/75/19
f 77/77/20 79/79/20 80/80/20
f 77/77/20 78/78/20 79/79/20
f 81/81/21 83/83/21 82/82/21
f 81/81/21 84/84/21 83/83/21
f 85/85/22 87/87/22 88/88/22
f 85/85/22 86/86/22 87/87/22
f 89/89/23 91/91/23 90/90/23
f 89/89/23 92/92/23 91/91/23
f 93/93/24 95/95/24 96/96/24
f 93/93/24 94/94/24 95/95/24
f 97/97/25 99/99/25 98/98/25
f 97/97/25 100/100/25 99/99/25
f 101/101/26 103/103/26 104/104/26
f 101/101/26 102/102/26 103/103/26
f 105/105/27 107/107/27 106/106/27
f 105/105/27 108/108/27 107/107/27
f 109/109/28 111/111/28 112/112/28
f 109/109/28 110/110/28 111/111/28
f 113/113/29 115/115/29 114/114/29
f 113/113/29 116/116/29 115/115/29
f 117/117/30 119/119/30 120/120/30
f 117/117/30 118/118/30 119/119/30
f 121/121/31 123/123/31 122/122/31
f 121/121/31 124/124/31 123/123/31
f 125/125/32 127/127/32 128/128/32
f 125/125/32 126/126/32 127/127/32
f 129/129/33 131/131/33 130/130/33
f 129/129/33 132/132/33 131/131/33
f 133/133/34 135/135/34 136/136/34
f 133/133/34 134/134/34 135/135/34
f 137/137/35 139/139/35 138/138/35
f 137/137/35 140/140/35 139/139/35
f 141/141/36 143/143/36 144/144/36
f 141/141/36 142/142/36 143/143/36
f 145/145/37 147/147/37 146/146/37
f 145/145/37 148/148/37 147/147/37
f 149/149/38 151/151/38 152/152/38
f 149/149/38 150/150/38 151/151/38
f 153/153/39 155/155/39 154/154/39
f 153/153/39 156/156/39 155/155/39
f 157/157/40 159/159/40 160/160/40
f 157/157/40 158/158/40 159/159/40
f 161/161/41 163/163/41 162/162/41
f 161/161/41 164/164/41 163/163/41
f 165/165/42 167/167/42 168/168/42
f 165/165/42 166/166/42 167/167/42
f 169/169/43 171/171/43 170/170/43
f 169/169/43 172/172/43 171/171/43
f 173/173/44 175/175/44 176/176/44
f 173/173/44 174/174/44 175/175/44
f 177/177/45 179/179/45 178/178/45
f 177/177/45 180/180/45 179/179/45
f 181/181/46 183/183/46 184/184/46
f 181/181/46 182/182/46 183/183/46
f 185/185/47 187/187/47 186/186/47
f 185/185/47 188/188/47 187/187/47
f 189/189/48 191/191/48 192/192/48
f 189/189/48 190/190/48 191/191/48
f 193/193/49 195/195/49 194/194/49
f 193/193/49 196/196/49 195/195/49
f 197/197/50 199/199/50 200/200/50
f 197/197/50 198/198/50 199/199/50
f 201/201/51 203/203/51 202/202/51
f 201/201/51 204/204/51 203/203/51
f 205/205/52 207/207/52 208/208/52
f 205/205/52 206/206/52 207/207/52
f 209/209/53 211/211/53 210/210/53
f 209/209/53 212/212/53 211/211/53
f 213/213/54 215/215/54 216/216/54
f 213/213/54 214/214/54 215/215/54
f 217/217/55 219/219/55 218/218/55
f 217/217/55 220/220/55 219/219/55
f 221/221/56 223/223/56 224/224/56
f 221/221/56 222/222/56 223/223/56
f 225/225/57 227/227/57 226/226/57
f 225/225/57 228/228/57 227/227/57
f 229/229/58 231/231/58 232/232/58
f 229/229/58 230/230/58 231/231/58
f 233/233/59 235/235/59 234/234/59
f 233/233/59 236/236/59 235/235/59
f 237/237/60 239/239/60 240/240/60
f 237/237/60 238/238/60 239/239/60
f 241/241/61 243/243/61 242/242/61
f 241/241/61 244/244/61 243/243/61
f 245/245/62 247/247/62 248/248/62
f 245/245/62 246/246/62 247/247/62
f 249/249/63 251/251/63 250/250/63
f 249/249/63 252/252/63 251/251/63
f 253/253/64 255/255/64 256/256/64
f 253/253/64 254/254/64 255/255/64
f 257/257/65 259/259/65 258/258/65
f 257/257/65 260/260/65 259/259/65
f 261/261/66 263/263/66 264/264/66
f 261/261/66 262/262/66 263/263/66
f 265/265/67 267/267/67 266/266/67
f 265/265/67 268/268/67 267/267/67
f 269/269/68 271/271/68 272/272/68
f 269/269/68 270/270/68 271/271/68
f 273/273/69 275/275/69 274/274/69
f 273/273/69 276/276/69 275/275/69
f 277/277/70 279/279/70 280/280/70
f 277/277/70 278/278/70 279/279/70
f 281/281/71 283/283/71 282/282/71
f 281/281/71 284/284/71 283/283/71
f 285/285/72 287/287/72 288/288/72
f 285/285/72 286/286/72 287/287/72
f 289/289/73 291/291/73 290/290/73
f 289/289/73 292/292/73 291/291/73
f 293/293/74 295/295/74 296/296/74
f 293/293/74 294/294/74 295/295/74
f 297/297/75 299/299/75 298/298/75
f 297/297/75 300/300/75 299/299/75
f 301/301/76 303/303/76 304/304/76
f 301/301/76 302/302/76 303/303/76
f 305/305/77 307/307/77 306/306/77
f 305/305/77 308/308/77 307/307/77
f 309/309/78 311/311/78 312/312/78
f 309/309/78 310/310/78 311/311/78
f 313/313/79 315/315/79 314/314/79
f 313/313/79 316/316/79 315/315/79
f 317/317/80 319/319/80 320/320/80
f 317/317/80 318/318/80 319/319/80
f 321/321/81 323/323/81 322/322/81
f 321/321/81 324/324/81 323/323/81
f 325/325/82 327/327/82 328/328/82
f 325/325/82 326/326/82 327/327/82
f 329/329/83 331/331/83 330/330/83
f 329/329/83 332/332/83 331/331/83
f 333/333/84 335/335/84 336/336/84
f 333/333/84 334/334/84 335/335/84
f 337/337/85 339/339/85 338/338/85
f 337/337/85 340/340/85 339/339/85
f 341/341/86 343/343/86 344/344/86
f 341/341/86 342/342/86 343/343/86
f 345/345/87 347/347/87 346/346/87
f 345/345/87 348/348/87 347/347/87
f 349/349/88 351/351/88 352/352/88
f 349/349/88 350/350/88 351/351/88
f 353/353/89 355/355/89 354/354/89
f 353/353/89 356/356/89 355/355/89
f 357/357/90 359/359/90 360/360/90
f 357/357/90 358/358/90 359/359/90
f 361/361/91 363/363/91 362/362/91
f 361/361/91 364/364/91 363/363/91
f 365/365/92 367/367/92 368/368/92
f 365/365/92 366/366/92 367/367/92
f 369/369/93 371/371/93 370/370/93
f 369/369/93 372/372/93 371/371/93
f 373/373/94 375/375/94 376/376/94
f 373/373/94 374/374/94 375/375/94
f 377/377/95 379/379/95 378/378/95
f 377/377/95 380/380/95 379/379/95
f 381/381/96 383/383/96 384/384/96
f 381/381/96 382/382/96 383/383/96
f 385/385/97 387/387/97 386/386/97
f 385/385/97 388/388/97 387/387/97
f 389/389/98 391/391/98 392/392/98
f 389/389/98 390/390/98 391/391/98
f 393/393/99 395/395/99 394/394/99
f 393/393/99 396/396/99 395/395/99
f 397/397/100 399/399/100 400/400/100
f 397/397/100 398/398/100 399/399/100
f 401/401/101 403/403/101 402/402/101
f 401/401/101 404/404/101 403/403/101
f 405/405/102 407/407/102 408/408/102
f 405/405/102 406/406/102 407/407/102
f 409/409/103 411/411/103 410/410/103
f 409/409/103 412/412/103 411/411/103
f 413/413/104 415/415/104 416/416/104
f 413/413/104 414/414/104 415/415/104
f 417/417/105 419/419/105 418/418/105
f 417/417/105 420/420/105 419/419/105
f 421/421/106 423/423/106 424/424/106
f 421/421/106 422/422/106 423/423/106
f 425/425/107 427/427/107 426/426/107
f 425/425/107 428/428/107 427/427/107
f 429/429/108 431/431/108 432/432/108
f 429/429/108 430/430/108 431/431/108
f 433/433/109 435/435/109 434/434/109
f 433/433/109 436/436/109 435/435/109
f 437/437/110 439/439/110 440/440/110
f 437/437/110 438/438/110 439/439/110
f 441/441/111 443/443/111 442/442/111
f 441/441/111 444/444/111 443/443/111
f 445/445/112 447/447/112 448/448/112
f 445/445/112 446/446/112 447/447/112
f 449/449/113 451/451/113 450/450/113
f 449/449/113 452/452/113 451/451/113
f 453/453/114 455/455/114 456/456/114
f 453/453/114 454/454/114 455/455/114
f 457/457/115 459/459/115 458/458/115
f 457/457/115 460/460/115 459/459/115
f 461/461/116 463/463/116 464/464/116
f 461/461/116 462/462/116 463/463/116
f 465/465/117 467/467/117 466/466/117
f 465/465/117 468/468/117 467/467/117
f 469/469/118 471/471/118 472/472/118
f 469/469/118 470/470/118 471/471/118
f 473/473/119 475/475/119 474/474/119
f 473/473/119 476/476/119 475/475/119
f 477/477/120 479/479/120 480/480/120
f 477/477/120 478/478/120 479/479/120
f 481/481/121 483/483/121 482/482/121
f 481/481/121 484/484/121 483/483/121
f 485/485/122 487/487/122 488/488/122
f 485/485/122 486/486/122 487/487/122
f 489/489/123 491/491/123 490/490/123
f 489/489/123 492/492/123 491/491/123
f 493/493/124 495/495/124 496/496/124
f 493/493/124 494/494/124 495/495/124
f 497/497/125 499/499/125 498/498/125
f 497/497/125 500/500/125 499/499/125
f 501/501/126 503/503/126 504/504/126
f 501/501/126 502/502/126 503/503/126
f 505/505/127 507/507/127 506/506/127
f 505/505/127 508/508/127 507/507/127
f 509/509/128 511/511/128 512/512/128
f 509/509/128 510/510/128 511/511/128
f 513/513/129 515/515/129 514/514/129
f 513/513/129 516/516/129 515/515/129
f 517/517/130 519/519/130 520/520/130
f 517/517/130 518/518/130 519/519/130
f 521/521/131 523/523/131 522/522/131
f 521/521/131 524/524/131 523/523/131
f 525/525/132 527/527/132 528/528/132
f 525/525/132 526/526/132 527/527/132
f 529/529/133 531/531/133 530/530/133
f 529/529/133 532/532/133 531/531/133
f 533/533/134 535/535/134 536/536/134
f 533/533/134 534/534/134 535/535/134
f 537/537/135 539/539/135 538/538/135
f 537/537/135 540/540/135 539/539/135
f 541/541/136 543/543/136 544/544/136
f 541/541/136 542/542/136 543/543/136
f 545/545/137 547/547/137 546/546/137
f 545/545/137 548/548/137 547/547/137
f 549/549/138 551/551/138 552/552/138
f 549/549/138 550/550/138 551/551/138
f 553/553/139 555/555/139 554/554/139
f 553/553/139 556/556/139 555/555/139
f 557/557/140 559/559/140 560/560/140
f 557/557/140 558/558/140 559/559/140
