# JudeanFloraV1; canonical UE cm (X east, +Y south, Z up), written with Y reflected and triangle winding reversed for the legacy OBJ importer adapter. One o object, no g groups, so the importer creates exactly one material slot.
# Italian cypress (Cupressus sempervirens), StreetTreesV1 seed 3, LOD2 leaf
# height 10.0-19.0 m, crown 1.8-3.8 m; source: Zohary, M., Plants of the Bible (Cambridge University Press, 1982), species entry Cupressus sempervirens; the columnar form is 1.8-3.8 m across at 10-19 m
# branching is recursive with da Vinci child radii; leaf sprays are anchored to branch tips. Stylised habit, not a survey of any tree.
o SM_StreetTreesV1_Cypress_S3_L2_Leaf
s off
v -42.41820 -98.02633 904.98710
v -23.28523 25.82537 904.98710
v -6.08751 23.18263 1029.09418
v -25.22049 -100.66906 1029.09418
v -42.41820 -98.02633 904.98710
v -23.28523 25.82537 904.98710
v -6.08751 23.18263 1029.09418
v -25.22049 -100.66906 1029.09418
v 66.60502 106.09459 1136.77691
v 10.81070 -24.59807 1136.77691
v -3.94340 -18.31325 1277.97320
v 51.85092 112.37941 1277.97320
v 66.60502 106.09459 1136.77691
v 10.81070 -24.59807 1136.77691
v -3.94340 -18.31325 1277.97320
v 51.85092 112.37941 1277.97320
v 27.36066 -114.79615 1296.45689
v 52.00877 -10.57779 1296.45689
v 36.83399 -7.00165 1402.40939
v 12.18589 -111.22000 1402.40939
v 27.36066 -114.79615 1296.45689
v 52.00877 -10.57779 1296.45689
v 36.83399 -7.00165 1402.40939
v 12.18589 -111.22000 1402.40939
v 96.04580 -39.42694 810.15913
v 25.67274 25.26358 810.15913
v 15.87568 14.58888 904.64351
v 86.24874 -50.10164 904.64351
v 96.04580 -39.42694 810.15913
v 25.67274 25.26358 810.15913
v 15.87568 14.58888 904.64351
v 86.24874 -50.10164 904.64351
v -13.16050 4.81179 947.64017
v 9.15337 124.71095 947.64017
v 19.71320 122.75441 1069.12425
v -2.60067 2.85525 1069.12425
v -13.16050 4.81179 947.64017
v 9.15337 124.71095 947.64017
v 19.71320 122.75441 1069.12425
v -2.60067 2.85525 1069.12425
v 29.37375 39.92997 1032.42661
v -86.94285 70.56529 1032.42661
v -84.24519 80.84102 1152.23982
v 32.07141 50.20570 1152.23982
v 29.37375 39.92997 1032.42661
v -86.94285 70.56529 1032.42661
v -84.24519 80.84102 1152.23982
v 32.07141 50.20570 1152.23982
v 132.19907 -23.89058 719.84223
v 11.20342 -17.93064 719.84223
v 11.51150 -11.57326 840.81725
v 132.50714 -17.53319 840.81725
v 132.19907 -23.89058 719.84223
v 11.20342 -17.93064 719.84223
v 11.51150 -11.57326 840.81725
v 132.50714 -17.53319 840.81725
v 45.92136 25.54156 834.86911
v 129.51662 69.18330 834.86911
v 135.97141 56.84318 928.13661
v 52.37615 13.20145 928.13661
v 45.92136 25.54156 834.86911
v 129.51662 69.18330 834.86911
v 135.97141 56.84318 928.13661
v 52.37615 13.20145 928.13661
v -50.08393 -56.66676 986.35054
v 94.56147 -70.41957 986.35054
v 93.84820 -77.98532 1131.44941
v -50.79719 -64.23251 1131.44941
v -50.08393 -56.66676 986.35054
v 94.56147 -70.41957 986.35054
v 93.84820 -77.98532 1131.44941
v -50.79719 -64.23251 1131.44941
v 67.31997 -36.59078 1126.06586
v -23.19212 -65.63678 1126.06586
v -19.55397 -76.94290 1220.37940
v 70.95812 -47.89690 1220.37940
v 67.31997 -36.59078 1126.06586
v -23.19212 -65.63678 1126.06586
v -19.55397 -76.94290 1220.37940
v 70.95812 -47.89690 1220.37940
v 24.78172 3.83484 1359.97618
v -83.82261 37.51728 1359.97618
v -81.02164 46.57410 1473.28786
v 27.58269 12.89166 1473.28786
v 24.78172 3.83484 1359.97618
v -83.82261 37.51728 1359.97618
v -81.02164 46.57410 1473.28786
v 27.58269 12.89166 1473.28786
v 26.80577 136.77154 783.93834
v 2.65110 39.70278 783.93834
v 2.46613 39.74866 883.96711
v 26.62080 136.81741 883.96711
v 26.80577 136.77154 783.93834
v 2.65110 39.70278 783.93834
v 2.46613 39.74866 883.96711
v 26.62080 136.81741 883.96711
v 7.81601 -7.35680 885.15016
v -97.96532 64.19737 885.15016
v -106.06460 52.20331 1012.03686
v -0.28328 -19.35086 1012.03686
v 7.81601 -7.35680 885.15016
v -97.96532 64.19737 885.15016
v -106.06460 52.20331 1012.03686
v -0.28328 -19.35086 1012.03686
v 102.83165 -57.50633 1082.40957
v -31.49075 -18.67644 1082.40957
v -33.02850 -24.01183 1222.12154
v 101.29390 -62.84172 1222.12154
v 102.83165 -57.50633 1082.40957
v -31.49075 -18.67644 1082.40957
v -33.02850 -24.01183 1222.12154
v 101.29390 -62.84172 1222.12154
v 70.50671 76.32738 787.12712
v 40.64993 -25.98438 787.12712
v 53.23116 -29.64498 892.89779
v 83.08794 72.66677 892.89779
v 70.50671 76.32738 787.12712
v 40.64993 -25.98438 787.12712
v 53.23116 -29.64498 892.89779
v 83.08794 72.66677 892.89779
v 37.92641 54.94840 785.30066
v 26.94437 -49.01980 785.30066
v 37.73995 -50.15143 889.28222
v 48.72200 53.81676 889.28222
v 37.92641 54.94840 785.30066
v 26.94437 -49.01980 785.30066
v 37.73995 -50.15143 889.28222
v 48.72200 53.81676 889.28222
v -29.78801 -17.11699 1339.83556
v 45.41709 -84.89094 1339.83556
v 43.14369 -87.41765 1441.01640
v -32.06140 -19.64369 1441.01640
v -29.78801 -17.11699 1339.83556
v 45.41709 -84.89094 1339.83556
v 43.14369 -87.41765 1441.01640
v -32.06140 -19.64369 1441.01640
v 42.06792 51.55069 1082.45635
v 46.67046 -66.05480 1082.45635
v 40.27667 -66.31012 1199.97779
v 35.67414 51.29536 1199.97779
v 42.06792 51.55069 1082.45635
v 46.67046 -66.05480 1082.45635
v 40.27667 -66.31012 1199.97779
v 35.67414 51.29536 1199.97779
v -119.10483 77.81899 908.13629
v -82.23202 -9.23854 908.13629
v -92.86306 -13.75125 1001.97249
v -129.73587 73.30627 1001.97249
v -119.10483 77.81899 908.13629
v -82.23202 -9.23854 908.13629
v -92.86306 -13.75125 1001.97249
v -129.73587 73.30627 1001.97249
v 16.15246 40.22603 917.33400
v 137.58515 61.29501 917.33400
v 141.10527 41.10204 1038.86446
v 19.67258 20.03306 1038.86446
v 16.15246 40.22603 917.33400
v 137.58515 61.29501 917.33400
v 141.10527 41.10204 1038.86446
v 19.67258 20.03306 1038.86446
v -47.79836 -48.69493 1406.13020
v 1.29191 28.33837 1406.13020
v -8.30674 34.44447 1496.76444
v -57.39702 -42.58883 1496.76444
v -47.79836 -48.69493 1406.13020
v 1.29191 28.33837 1406.13020
v -8.30674 34.44447 1496.76444
v -57.39702 -42.58883 1496.76444
v -23.49842 -166.68007 880.03254
v 28.49368 -30.13204 880.03254
v 49.29347 -38.03282 1024.43990
v -2.69863 -174.58085 1024.43990
v -23.49842 -166.68007 880.03254
v 28.49368 -30.13204 880.03254
v 49.29347 -38.03282 1024.43990
v -2.69863 -174.58085 1024.43990
v 47.98677 -75.77695 798.49765
v 79.66192 33.06905 798.49765
v 84.70578 31.60560 911.73715
v 53.03063 -77.24040 911.73715
v 47.98677 -75.77695 798.49765
v 79.66192 33.06905 798.49765
v 84.70578 31.60560 911.73715
v 53.03063 -77.24040 911.73715
v 70.21747 114.44152 958.02367
v -50.49064 51.92918 958.02367
v -45.75149 42.79594 1093.56837
v 74.95662 105.30828 1093.56837
v 70.21747 114.44152 958.02367
v -50.49064 51.92918 958.02367
v -45.75149 42.79594 1093.56837
v 74.95662 105.30828 1093.56837
v 32.05975 17.09347 783.16218
v -15.27725 118.09605 783.16218
v -17.52726 117.03935 894.67960
v 29.80974 16.03676 894.67960
v 32.05975 17.09347 783.16218
v -15.27725 118.09605 783.16218
v -17.52726 117.03935 894.67960
v 29.80974 16.03676 894.67960
v -28.41999 34.35835 773.33787
v -117.20613 21.21778 773.33787
v -115.98174 12.99026 862.70488
v -27.19560 26.13082 862.70488
v -28.41999 34.35835 773.33787
v -117.20613 21.21778 773.33787
v -115.98174 12.99026 862.70488
v -27.19560 26.13082 862.70488
v -53.88027 -58.12085 831.97959
v -21.21369 68.70696 831.97959
v -39.98225 73.52517 961.50535
v -72.64883 -53.30263 961.50535
v -53.88027 -58.12085 831.97959
v -21.21369 68.70696 831.97959
v -39.98225 73.52517 961.50535
v -72.64883 -53.30263 961.50535
v 140.54597 -23.25861 1117.70339
v 26.48424 -9.30899 1117.70339
v 26.21311 -11.54075 1232.59297
v 140.27483 -25.49036 1232.59297
v 140.54597 -23.25861 1117.70339
v 26.48424 -9.30899 1117.70339
v 26.21311 -11.54075 1232.59297
v 140.27483 -25.49036 1232.59297
v -44.58574 53.01270 1061.91645
v 62.93875 -9.54887 1061.91645
v 66.49520 -3.42519 1186.11516
v -41.02930 59.13637 1186.11516
v -44.58574 53.01270 1061.91645
v 62.93875 -9.54887 1061.91645
v 66.49520 -3.42519 1186.11516
v -41.02930 59.13637 1186.11516
v 69.99390 39.68359 888.96511
v -35.06100 31.16416 888.96511
v -35.16738 32.46315 994.35682
v 69.88751 40.98257 994.35682
v 69.99390 39.68359 888.96511
v -35.06100 31.16416 888.96511
v -35.16738 32.46315 994.35682
v 69.88751 40.98257 994.35682
v 87.86709 -127.15804 961.30115
v 48.45239 -14.81186 961.30115
v 56.82798 -11.86594 1080.02922
v 96.24268 -124.21212 1080.02922
v 87.86709 -127.15804 961.30115
v 48.45239 -14.81186 961.30115
v 56.82798 -11.86594 1080.02922
v 96.24268 -124.21212 1080.02922
v -5.33008 69.77748 872.31834
v 104.32619 36.21670 872.31834
v 106.55502 43.51993 986.74088
v -3.10125 77.08072 986.74088
v -5.33008 69.77748 872.31834
v 104.32619 36.21670 872.31834
v 106.55502 43.51993 986.74088
v -3.10125 77.08072 986.74088
v -94.79008 -14.70985 866.71649
v -11.36170 -76.88203 866.71649
v 0.03820 -61.55914 968.99517
v -83.39019 0.61304 968.99517
v -94.79008 -14.70985 866.71649
v -11.36170 -76.88203 866.71649
v 0.03820 -61.55914 968.99517
v -83.39019 0.61304 968.99517
v -25.30246 -7.66721 734.74145
v -86.63172 -113.13869 734.74145
v -89.40241 -111.53055 856.70558
v -28.07315 -6.05907 856.70558
v -25.30246 -7.66721 734.74145
v -86.63172 -113.13869 734.74145
v -89.40241 -111.53055 856.70558
v -28.07315 -6.05907 856.70558
v -2.82756 34.81939 798.70611
v 7.22645 -79.57725 798.70611
v -10.44275 -81.14432 912.16544
v -20.49676 33.25232 912.16544
v -2.82756 34.81939 798.70611
v 7.22645 -79.57725 798.70611
v -10.44275 -81.14432 912.16544
v -20.49676 33.25232 912.16544
vt 0.00000 2.00000
vt 2.00000 2.00000
vt 2.00000 0.00000
vt 0.00000 0.00000
vt 0.00000 2.00000
vt 2.00000 2.00000
vt 2.00000 0.00000
vt 0.00000 0.00000
vt 0.00000 2.00000
vt 2.00000 2.00000
vt 2.00000 0.00000
vt 0.00000 0.00000
vt 0.00000 2.00000
vt 2.00000 2.00000
vt 2.00000 0.00000
vt 0.00000 0.00000
vt 0.00000 2.00000
vt 2.00000 2.00000
vt 2.00000 0.00000
vt 0.00000 0.00000
vt 0.00000 2.00000
vt 2.00000 2.00000
vt 2.00000 0.00000
vt 0.00000 0.00000
vt 0.00000 2.00000
vt 2.00000 2.00000
vt 2.00000 0.00000
vt 0.00000 0.00000
vt 0.00000 2.00000
vt 2.00000 2.00000
vt 2.00000 0.00000
vt 0.00000 0.00000
vt 0.00000 2.00000
vt 2.00000 2.00000
vt 2.00000 0.00000
vt 0.00000 0.00000
vt 0.00000 2.00000
vt 2.00000 2.00000
vt 2.00000 0.00000
vt 0.00000 0.00000
vt 0.00000 2.00000
vt 2.00000 2.00000
vt 2.00000 0.00000
vt 0.00000 0.00000
vt 0.00000 2.00000
vt 2.00000 2.00000
vt 2.00000 0.00000
vt 0.00000 0.00000
vt 0.00000 2.00000
vt 2.00000 2.00000
vt 2.00000 0.00000
vt 0.00000 0.00000
vt 0.00000 2.00000
vt 2.00000 2.00000
vt 2.00000 0.00000
vt 0.00000 0.00000
vt 0.00000 2.00000
vt 2.00000 2.00000
vt 2.00000 0.00000
vt 0.00000 0.00000
vt 0.00000 2.00000
vt 2.00000 2.00000
vt 2.00000 0.00000
vt 0.00000 0.00000
vt 0.00000 2.00000
vt 2.00000 2.00000
vt 2.00000 0.00000
vt 0.00000 0.00000
vt 0.00000 2.00000
vt 2.00000 2.00000
vt 2.00000 0.00000
vt 0.00000 0.00000
vt 0.00000 2.00000
vt 2.00000 2.00000
vt 2.00000 0.00000
vt 0.00000 0.00000
vt 0.00000 2.00000
vt 2.00000 2.00000
vt 2.00000 0.00000
vt 0.00000 0.00000
vt 0.00000 2.00000
vt 2.00000 2.00000
vt 2.00000 0.00000
vt 0.00000 0.00000
vt 0.00000 2.00000
vt 2.00000 2.00000
vt 2.00000 0.00000
vt 0.00000 0.00000
vt 0.00000 2.00000
vt 2.00000 2.00000
vt 2.00000 0.00000
vt 0.00000 0.00000
vt 0.00000 2.00000
vt 2.00000 2.00000
vt 2.00000 0.00000
vt 0.00000 0.00000
vt 0.00000 2.00000
vt 2.00000 2.00000
vt 2.00000 0.00000
vt 0.00000 0.00000
vt 0.00000 2.00000
vt 2.00000 2.00000
vt 2.00000 0.00000
vt 0.00000 0.00000
vt 0.00000 2.00000
vt 2.00000 2.00000
vt 2.00000 0.00000
vt 0.00000 0.00000
vt 0.00000 2.00000
vt 2.00000 2.00000
vt 2.00000 0.00000
vt 0.00000 0.00000
vt 0.00000 2.00000
vt 2.00000 2.00000
vt 2.00000 0.00000
vt 0.00000 0.00000
vt 0.00000 2.00000
vt 2.00000 2.00000
vt 2.00000 0.00000
vt 0.00000 0.00000
vt 0.00000 2.00000
vt 2.00000 2.00000
vt 2.00000 0.00000
vt 0.00000 0.00000
vt 0.00000 2.00000
vt 2.00000 2.00000
vt 2.00000 0.00000
vt 0.00000 0.00000
vt 0.00000 2.00000
vt 2.00000 2.00000
vt 2.00000 0.00000
vt 0.00000 0.00000
vt 0.00000 2.00000
vt 2.00000 2.00000
vt 2.00000 0.00000
vt 0.00000 0.00000
vt 0.00000 2.00000
vt 2.00000 2.00000
vt 2.00000 0.00000
vt 0.00000 0.00000
vt 0.00000 2.00000
vt 2.00000 2.00000
vt 2.00000 0.00000
vt 0.00000 0.00000
vt 0.00000 2.00000
vt 2.00000 2.00000
vt 2.00000 0.00000
vt 0.00000 0.00000
vt 0.00000 2.00000
vt 2.00000 2.00000
vt 2.00000 0.00000
vt 0.00000 0.00000
vt 0.00000 2.00000
vt 2.00000 2.00000
vt 2.00000 0.00000
vt 0.00000 0.00000
vt 0.00000 2.00000
vt 2.00000 2.00000
vt 2.00000 0.00000
vt 0.00000 0.00000
vt 0.00000 2.00000
vt 2.00000 2.00000
vt 2.00000 0.00000
vt 0.00000 0.00000
vt 0.00000 2.00000
vt 2.00000 2.00000
vt 2.00000 0.00000
vt 0.00000 0.00000
vt 0.00000 2.00000
vt 2.00000 2.00000
vt 2.00000 0.00000
vt 0.00000 0.00000
vt 0.00000 2.00000
vt 2.00000 2.00000
vt 2.00000 0.00000
vt 0.00000 0.00000
vt 0.00000 2.00000
vt 2.00000 2.00000
vt 2.00000 0.00000
vt 0.00000 0.00000
vt 0.00000 2.00000
vt 2.00000 2.00000
vt 2.00000 0.00000
vt 0.00000 0.00000
vt 0.00000 2.00000
vt 2.00000 2.00000
vt 2.00000 0.00000
vt 0.00000 0.00000
vt 0.00000 2.00000
vt 2.00000 2.00000
vt 2.00000 0.00000
vt 0.00000 0.00000
vt 0.00000 2.00000
vt 2.00000 2.00000
vt 2.00000 0.00000
vt 0.00000 0.00000
vt 0.00000 2.00000
vt 2.00000 2.00000
vt 2.00000 0.00000
vt 0.00000 0.00000
vt 0.00000 2.00000
vt 2.00000 2.00000
vt 2.00000 0.00000
vt 0.00000 0.00000
vt 0.00000 2.00000
vt 2.00000 2.00000
vt 2.00000 0.00000
vt 0.00000 0.00000
vt 0.00000 2.00000
vt 2.00000 2.00000
vt 2.00000 0.00000
vt 0.00000 0.00000
vt 0.00000 2.00000
vt 2.00000 2.00000
vt 2.00000 0.00000
vt 0.00000 0.00000
vt 0.00000 2.00000
vt 2.00000 2.00000
vt 2.00000 0.00000
vt 0.00000 0.00000
vt 0.00000 2.00000
vt 2.00000 2.00000
vt 2.00000 0.00000
vt 0.00000 0.00000
vt 0.00000 2.00000
vt 2.00000 2.00000
vt 2.00000 0.00000
vt 0.00000 0.00000
vt 0.00000 2.00000
vt 2.00000 2.00000
vt 2.00000 0.00000
vt 0.00000 0.00000
vt 0.00000 2.00000
vt 2.00000 2.00000
vt 2.00000 0.00000
vt 0.00000 0.00000
vt 0.00000 2.00000
vt 2.00000 2.00000
vt 2.00000 0.00000
vt 0.00000 0.00000
vt 0.00000 2.00000
vt 2.00000 2.00000
vt 2.00000 0.00000
vt 0.00000 0.00000
vt 0.00000 2.00000
vt 2.00000 2.00000
vt 2.00000 0.00000
vt 0.00000 0.00000
vt 0.00000 2.00000
vt 2.00000 2.00000
vt 2.00000 0.00000
vt 0.00000 0.00000
vt 0.00000 2.00000
vt 2.00000 2.00000
vt 2.00000 0.00000
vt 0.00000 0.00000
vt 0.00000 2.00000
vt 2.00000 2.00000
vt 2.00000 0.00000
vt 0.00000 0.00000
vt 0.00000 2.00000
vt 2.00000 2.00000
vt 2.00000 0.00000
vt 0.00000 0.00000
vt 0.00000 2.00000
vt 2.00000 2.00000
vt 2.00000 0.00000
vt 0.00000 0.00000
vt 0.00000 2.00000
vt 2.00000 2.00000
vt 2.00000 0.00000
vt 0.00000 0.00000
vt 0.00000 2.00000
vt 2.00000 2.00000
vt 2.00000 0.00000
vt 0.00000 0.00000
vt 0.00000 2.00000
vt 2.00000 2.00000
vt 2.00000 0.00000
vt 0.00000 0.00000
vn -0.9787 0.1512 0.1388
vn 0.9787 -0.1512 -0.1388
vn 0.9138 -0.3901 0.1129
vn -0.9138 0.3901 -0.1129
vn -0.9628 0.2277 -0.1456
vn 0.9628 -0.2277 0.1456
vn -0.6689 -0.7277 -0.1516
vn 0.6689 0.7277 0.1516
vn -0.9793 0.1823 0.0881
vn 0.9793 -0.1823 -0.0881
vn -0.2537 -0.9632 0.0883
vn 0.2537 0.9632 -0.0883
vn -0.0491 -0.9974 0.0525
vn 0.0491 0.9974 -0.0525
vn -0.4577 0.8767 0.1477
vn 0.4577 -0.8767 -0.1477
vn 0.0945 0.9941 0.0523
vn -0.0945 -0.9941 -0.0523
vn 0.3032 -0.9447 -0.1249
vn -0.3032 0.9447 0.1249
vn -0.2952 -0.9518 0.0834
vn 0.2952 0.9518 -0.0834
vn 0.9704 -0.2415 0.0019
vn -0.9704 0.2415 -0.0019
vn -0.5567 -0.8230 -0.1133
vn 0.5567 0.8230 0.1133
vn -0.2775 -0.9599 -0.0397
vn 0.2775 0.9599 0.0397
vn 0.9527 -0.2780 -0.1229
vn -0.9527 0.2780 0.1229
vn 0.9891 -0.1045 -0.1038
vn -0.9891 0.1045 0.1038
vn 0.6691 0.7424 0.0336
vn -0.6691 -0.7424 -0.0336
vn 0.9978 0.0390 0.0544
vn -0.9978 -0.0390 -0.0544
vn 0.9139 0.3871 0.1222
vn -0.9139 -0.3871 -0.1222
vn -0.1686 0.9716 0.1663
vn 0.1686 -0.9716 -0.1663
vn -0.8368 0.5332 -0.1245
vn 0.8368 -0.5332 0.1245
vn -0.9236 0.3517 0.1523
vn 0.9236 -0.3517 -0.1523
vn -0.9591 0.2791 0.0463
vn 0.9591 -0.2791 -0.0463
vn 0.4586 -0.8854 -0.0757
vn -0.4586 0.8854 0.0757
vn -0.9053 -0.4243 -0.0223
vn 0.9053 0.4243 0.0223
vn 0.1458 -0.9850 -0.0927
vn -0.1458 0.9850 0.0927
vn -0.9577 0.2467 -0.1480
vn 0.9577 -0.2467 0.1480
vn -0.1214 -0.9924 -0.0196
vn 0.1214 0.9924 0.0196
vn 0.5021 0.8629 -0.0569
vn -0.5021 -0.8629 0.0569
vn 0.0808 -0.9967 0.0124
vn -0.0808 0.9967 -0.0124
vn -0.9410 -0.3301 0.0746
vn 0.9410 0.3301 -0.0746
vn 0.2920 0.9541 -0.0666
vn -0.2920 -0.9541 0.0666
vn 0.5874 0.7882 -0.1836
vn -0.5874 -0.7882 0.1836
vn 0.8642 -0.5025 0.0263
vn -0.8642 0.5025 -0.0263
vn 0.9842 0.0865 0.1545
vn -0.9842 -0.0865 -0.1545
f 1/1/1 3/3/1 2/2/1
f 1/1/1 4/4/1 3/3/1
f 5/5/2 7/7/2 8/8/2
f 5/5/2 6/6/2 7/7/2
f 9/9/3 11/11/3 10/10/3
f 9/9/3 12/12/3 11/11/3
f 13/13/4 15/15/4 16/16/4
f 13/13/4 14/14/4 15/15/4
f 17/17/5 19/19/5 18/18/5
f 17/17/5 20/20/5 19/19/5
f 21/21/6 23/23/6 24/24/6
f 21/21/6 22/22/6 23/23/6
f 25/25/7 27/27/7 26/26/7
f 25/25/7 28/28/7 27/27/7
f 29/29/8 31/31/8 32/32/8
f 29/29/8 30/30/8 31/31/8
f 33/33/9 35/35/9 34/34/9
f 33/33/9 36/36/9 35/35/9
f 37/37/10 39/39/10 40/40/10
f 37/37/10 38/38/10 39/39/10
f 41/41/11 43/43/11 42/42/11
f 41/41/11 44/44/11 43/43/11
f 45/45/12 47/47/12 48/48/12
f 45/45/12 46/46/12 47/47/12
f 49/49/13 51/51/13 50/50/13
f 49/49/13 52/52/13 51/51/13
f 53/53/14 55/55/14 56/56/14
f 53/53/14 54/54/14 55/55/14
f 57/57/15 59/59/15 58/58/15
f 57/57/15 60/60/15 59/59/15
f 61/61/16 63/63/16 64/64/16
f 61/61/16 62/62/16 63/63/16
f 65/65/17 67/67/17 66/66/17
f 65/65/17 68/68/17 67/67/17
f 69/69/18 71/71/18 72/72/18
f 69/69/18 70/70/18 71/71/18
f 73/73/19 75/75/19 74/74/19
f 73/73/19 76/76/19 75/75/19
f 77/77/20 79/79/20 80/80/20
f 77/77/20 78/78/20 79/79/20
f 81/81/21 83/83/21 82/82/21
f 81/81/21 84/84/21 83/83/21
f 85/85/22 87/87/22 88/88/22
f 85/85/22 86/86/22 87/87/22
f 89/89/23 91/91/23 90/90/23
f 89/89/23 92/92/23 91/91/23
f 93/93/24 95/95/24 96/96/24
f 93/93/24 94/94/24 95/95/24
f 97/97/25 99/99/25 98/98/25
f 97/97/25 100/100/25 99/99/25
f 101/101/26 103/103/26 104/104/26
f 101/101/26 102/102/26 103/103/26
f 105/105/27 107/107/27 106/106/27
f 105/105/27 108/108/27 107/107/27
f 109/109/28 111/111/28 112/112/28
f 109/109/28 110/110/28 111/111/28
f 113/113/29 115/115/29 114/114/29
f 113/113/29 116/116/29 115/115/29
f 117/117/30 119/119/30 120/120/30
f 117/117/30 118/118/30 119/119/30
f 121/121/31 123/123/31 122/122/31
f 121/121/31 124/124/31 123/123/31
f 125/125/32 127/127/32 128/128/32
f 125/125/32 126/126/32 127/127/32
f 129/129/33 131/131/33 130/130/33
f 129/129/33 132/132/33 131/131/33
f 133/133/34 135/135/34 136/136/34
f 133/133/34 134/134/34 135/135/34
f 137/137/35 139/139/35 138/138/35
f 137/137/35 140/140/35 139/139/35
f 141/141/36 143/143/36 144/144/36
f 141/141/36 142/142/36 143/143/36
f 145/145/37 147/147/37 146/146/37
f 145/145/37 148/148/37 147/147/37
f 149/149/38 151/151/38 152/152/38
f 149/149/38 150/150/38 151/151/38
f 153/153/39 155/155/39 154/154/39
f 153/153/39 156/156/39 155/155/39
f 157/157/40 159/159/40 160/160/40
f 157/157/40 158/158/40 159/159/40
f 161/161/41 163/163/41 162/162/41
f 161/161/41 164/164/41 163/163/41
f 165/165/42 167/167/42 168/168/42
f 165/165/42 166/166/42 167/167/42
f 169/169/43 171/171/43 170/170/43
f 169/169/43 172/172/43 171/171/43
f 173/173/44 175/175/44 176/176/44
f 173/173/44 174/174/44 175/175/44
f 177/177/45 179/179/45 178/178/45
f 177/177/45 180/180/45 179/179/45
f 181/181/46 183/183/46 184/184/46
f 181/181/46 182/182/46 183/183/46
f 185/185/47 187/187/47 186/186/47
f 185/185/47 188/188/47 187/187/47
f 189/189/48 191/191/48 192/192/48
f 189/189/48 190/190/48 191/191/48
f 193/193/49 195/195/49 194/194/49
f 193/193/49 196/196/49 195/195/49
f 197/197/50 199/199/50 200/200/50
f 197/197/50 198/198/50 199/199/50
f 201/201/51 203/203/51 202/202/51
f 201/201/51 204/204/51 203/203/51
f 205/205/52 207/207/52 208/208/52
f 205/205/52 206/206/52 207/207/52
f 209/209/53 211/211/53 210/210/53
f 209/209/53 212/212/53 211/211/53
f 213/213/54 215/215/54 216/216/54
f 213/213/54 214/214/54 215/215/54
f 217/217/55 219/219/55 218/218/55
f 217/217/55 220/220/55 219/219/55
f 221/221/56 223/223/56 224/224/56
f 221/221/56 222/222/56 223/223/56
f 225/225/57 227/227/57 226/226/57
f 225/225/57 228/228/57 227/227/57
f 229/229/58 231/231/58 232/232/58
f 229/229/58 230/230/58 231/231/58
f 233/233/59 235/235/59 234/234/59
f 233/233/59 236/236/59 235/235/59
f 237/237/60 239/239/60 240/240/60
f 237/237/60 238/238/60 239/239/60
f 241/241/61 243/243/61 242/242/61
f 241/241/61 244/244/61 243/243/61
f 245/245/62 247/247/62 248/248/62
f 245/245/62 246/246/62 247/247/62
f 249/249/63 251/251/63 250/250/63
f 249/249/63 252/252/63 251/251/63
f 253/253/64 255/255/64 256/256/64
f 253/253/64 254/254/64 255/255/64
f 257/257/65 259/259/65 258/258/65
f 257/257/65 260/260/65 259/259/65
f 261/261/66 263/263/66 264/264/66
f 261/261/66 262/262/66 263/263/66
f 265/265/67 267/267/67 266/266/67
f 265/265/67 268/268/67 267/267/67
f 269/269/68 271/271/68 272/272/68
f 269/269/68 270/270/68 271/271/68
f 273/273/69 275/275/69 274/274/69
f 273/273/69 276/276/69 275/275/69
f 277/277/70 279/279/70 280/280/70
f 277/277/70 278/278/70 279/279/70
