# JudeanFloraV1; canonical UE cm (X east, +Y south, Z up), written with Y reflected and triangle winding reversed for the legacy OBJ importer adapter. One o object, no g groups, so the importer creates exactly one material slot.
# Aleppo pine (Pinus halepensis), StreetTreesV1 seed 3, LOD1 bark
# height 9.0-17.0 m, crown 9.0-14.0 m; source: Zohary & Feinbrun-Dothan, Flora Palaestina vols I-IV (Israel Academy of Sciences, 1966-1986) Pinus halepensis; 9-17 m in the Judean hills
# branching is recursive with da Vinci child radii; leaf sprays are anchored to branch tips. Stylised habit, not a survey of any tree.
o SM_StreetTreesV1_AleppoPine_S3_L1_Bark
s off
v 0.00000 38.27032 -1.06001
v 30.56719 17.62093 -2.01620
v 33.11446 -19.18098 -1.12420
v 0.00000 -35.32645 0.97847
v -33.11446 -19.08934 2.18421
v -30.56719 17.70552 1.03773
v 5.15977 32.48888 87.56675
v 28.76857 15.69482 87.01938
v 30.04166 -13.25028 87.54485
v 3.71548 -25.29854 88.76437
v -21.97497 -11.91059 89.45673
v -19.25759 16.93173 88.78459
v 7.79176 27.77281 176.38184
v 26.56336 13.73619 176.19108
v 26.99453 -9.69975 176.27457
v 5.45440 -18.93878 176.58982
v -15.05571 -7.59324 176.81342
v -12.28719 15.68241 176.68893
v 8.22742 23.36389 264.86761
v 23.62904 11.26001 265.02999
v 23.48082 -8.32870 265.00162
v 5.29865 -15.61567 264.78058
v -11.59043 -5.69268 264.59796
v -8.80988 13.69817 264.65662
v 6.26615 20.60987 353.03447
v 19.24840 9.89983 353.58552
v 18.67788 -6.92885 353.71610
v 2.91339 -12.82616 353.21607
v -11.36689 -3.92201 352.63565
v -8.58466 12.68533 352.58462
v 2.41121 19.80464 441.26181
v 13.52261 10.19022 442.02979
v 12.63266 -4.49569 442.17908
v -1.24402 -9.33263 441.44972
v -13.49716 -1.22768 440.63689
v -10.73188 13.22368 440.59828
v -3.60074 18.79664 529.46993
v 5.90123 10.17875 530.22173
v 4.77847 -2.62188 530.28414
v -7.42469 -6.56671 529.48294
v -17.92247 0.79984 528.67593
v -15.22129 13.36256 528.72534
v -5.58158 13.97054 528.43583
v 1.73850 8.61765 532.27602
v -1.05752 -0.82510 532.24760
v -10.10564 -1.30815 528.38985
v -12.90167 7.83606 526.03404
v -53.99803 26.69377 640.38438
v -47.80127 22.16924 643.64801
v -50.16822 14.17424 643.64111
v -57.82784 13.75759 640.37321
v -60.19479 21.49508 638.36043
v -102.49138 39.91376 752.22733
v -97.41782 36.22169 754.91972
v -99.35575 29.67454 754.94441
v -105.62701 29.32025 752.26728
v -107.56494 35.64843 750.58803
v -151.00576 53.69715 864.00918
v -147.05439 50.82693 866.11373
v -148.56368 45.72775 866.14564
v -153.44784 45.44651 864.06083
v -154.95713 50.37187 862.74042
v -151.00576 52.15999 864.84357
v -148.11815 49.16533 865.23899
v -151.00576 46.26810 864.38435
v -153.89337 49.26276 863.98893
v -172.25132 44.10907 962.29008
v -169.80148 41.58657 962.68149
v -172.25132 39.11078 962.05962
v -174.70117 41.63329 961.66821
v -191.58501 42.23464 1060.39039
v -189.56863 40.19079 1060.77946
v -191.58501 38.13755 1060.44346
v -193.60139 40.18139 1060.05439
v -207.67610 45.75607 1159.10797
v -206.10121 44.17204 1159.42835
v -207.67610 42.56738 1159.23634
v -209.25100 44.15141 1158.91595
v -151.29146 51.61919 864.61396
v -150.21642 49.30781 866.90186
v -150.72007 46.80890 864.61396
v -151.79511 49.12028 862.32606
v -233.72474 41.45332 893.47235
v -232.68461 39.50993 895.35699
v -233.25029 37.37951 893.47235
v -234.29043 39.32291 891.58772
v -311.38363 32.22588 933.76219
v -310.31169 30.68419 935.21621
v -310.90273 28.90190 933.76219
v -311.97468 30.44360 932.30818
v -384.19269 18.93395 981.32547
v -383.26766 17.76971 982.42553
v -383.73580 16.35834 981.32547
v -384.66083 17.52258 980.22542
v -148.61512 48.82522 864.61396
v -151.24024 47.77241 866.54607
v -153.39640 49.60287 864.61396
v -150.77129 50.65568 862.68185
v -137.96793 116.60945 916.53915
v -140.23612 115.72509 918.11514
v -141.98961 117.41390 916.53915
v -139.72142 118.29827 914.96317
v -123.45170 178.40925 974.63468
v -125.36514 177.61953 975.79878
v -126.71946 179.18501 974.63468
v -124.80602 179.97473 973.47058
v -111.18805 232.62554 1040.40253
v -112.68868 231.94975 1041.24673
v -113.73550 233.21969 1040.40253
v -112.23487 233.89548 1039.55833
v 0.31435 2.13839 529.47667
v -6.40821 0.13397 533.47050
v -11.98840 5.76385 531.94499
v -8.71459 11.24772 527.00834
v -1.11107 9.00707 525.48283
v 42.49201 74.84712 638.01544
v 36.75995 72.84321 641.15205
v 31.94354 77.54186 639.95397
v 34.69890 82.44970 636.07691
v 41.21821 80.78426 634.87883
v 74.73143 138.99467 755.05628
v 69.99238 136.93415 757.20556
v 65.93830 140.70432 756.38461
v 68.17179 145.09493 753.72795
v 73.60624 144.03830 752.90699
v 96.38448 197.01655 877.69999
v 99.84760 194.39736 878.08431
v 98.52480 190.67777 879.93252
v 94.24416 190.99813 880.69047
v 92.92137 194.91571 879.31069
v 97.40101 191.40269 879.14359
v 94.54476 192.75043 880.46954
v 95.36795 195.79951 879.14359
v 98.22420 194.45178 877.81765
v 148.73442 215.54828 965.90167
v 146.32243 216.71827 967.00800
v 147.06453 219.29428 965.90167
v 149.47652 218.12430 964.79534
v 199.21990 237.60467 1053.71441
v 197.23793 238.57128 1054.59617
v 197.87519 240.68231 1053.71441
v 199.85717 239.71570 1052.83265
v 248.19360 259.81542 1142.35870
v 246.64000 260.55541 1143.03694
v 247.12966 262.20510 1142.35870
v 248.68325 261.46511 1141.68046
v 95.78197 195.49278 879.14359
v 97.80104 194.05229 880.45936
v 96.98700 191.70943 879.14359
v 94.96792 193.14992 877.82783
v 33.48588 175.32986 953.20695
v 35.17985 174.04857 954.27446
v 34.36802 172.08587 953.20695
v 32.67405 173.36716 952.13945
v -24.94930 162.02702 1031.77979
v -23.59970 160.86657 1032.56805
v -24.47292 159.31559 1031.77979
v -25.82252 160.47604 1030.99153
v -77.63111 155.19493 1115.16262
v -76.60233 154.24213 1115.73919
v -77.36748 153.06706 1115.16262
v -78.39626 154.01986 1114.58605
v 98.36862 193.66923 879.14359
v 96.38875 193.47686 881.12501
v 94.40034 193.53298 879.14359
v 96.38022 193.72534 877.16218
v 94.86888 286.72924 884.98524
v 93.19892 286.43761 886.65168
v 91.51016 286.58557 884.98524
v 93.18012 286.87720 883.31880
v 89.87278 378.04247 903.50585
v 88.51618 377.60719 904.83234
v 87.12319 377.90623 903.50585
v 88.47979 378.34151 902.17937
v 85.38372 465.85273 934.69319
v 84.32993 465.44372 935.70358
v 83.24202 465.75067 934.69319
v 84.29581 466.15968 933.68279
v -11.11051 1.58609 529.47667
v -10.32712 8.52336 533.52905
v -2.98556 11.50108 531.98118
v 0.76839 6.40414 526.97216
v -4.25310 0.27634 525.42429
v 41.97066 -68.70440 640.54244
v 42.39841 -62.75697 643.88244
v 48.54541 -60.05562 642.60667
v 51.91672 -64.33352 638.47821
v 47.85331 -69.67876 637.20244
v 96.79665 -131.91726 755.12559
v 96.64136 -126.91607 757.63311
v 101.52151 -124.34887 756.67532
v 104.69290 -127.76345 753.57586
v 101.77278 -132.44097 752.61807
v 150.58256 -182.57116 876.11673
v 150.20175 -178.63474 877.94994
v 153.91289 -176.45801 877.24971
v 156.58731 -179.04913 874.98375
v 154.52905 -182.82726 874.28352
v 153.16271 -177.48733 876.19681
v 155.52759 -179.89077 875.59386
v 153.16271 -182.32879 876.03666
v 150.79783 -179.92536 876.63960
v 179.74972 -181.83379 996.34682
v 181.76269 -183.85997 995.84375
v 179.74972 -185.92899 996.12235
v 177.73675 -183.90281 996.62542
v 200.12605 -191.45179 1117.39689
v 201.79109 -193.11039 1117.05521
v 200.12605 -194.80121 1117.14903
v 198.46102 -193.14261 1117.49070
v 211.73753 -200.57854 1239.59346
v 213.03960 -201.87429 1239.37694
v 211.73753 -203.18767 1239.40654
v 210.43545 -201.89192 1239.62306
v 152.95621 -181.88260 876.11673
v 152.50439 -179.83921 877.98845
v 153.36921 -177.93352 876.11673
v 153.82104 -179.97691 874.24501
v 262.02078 -192.98259 914.87595
v 261.53671 -191.25228 916.43240
v 262.31714 -189.63388 914.87595
v 262.80121 -191.36419 913.31950
v 367.29547 -200.23883 963.80507
v 366.69946 -198.83671 965.01678
v 367.40844 -197.48819 963.80507
v 368.00444 -198.89031 962.59336
v 466.21704 -200.76127 1024.94300
v 465.66220 -199.68453 1025.85484
v 466.23494 -198.61721 1024.94300
v 466.78978 -199.69394 1024.03116
v 151.33546 -179.13178 876.11673
v 153.27647 -179.64030 878.08061
v 154.98996 -180.68434 876.11673
v 153.04896 -180.17582 874.15285
v 111.70473 -273.19719 891.24465
v 113.37910 -273.57917 892.88824
v 114.75933 -274.60112 891.24465
v 113.08496 -274.21914 889.60106
v 67.84430 -362.24942 919.26867
v 69.27130 -362.50013 920.56876
v 70.27161 -363.54826 919.26867
v 68.84461 -363.29755 917.96859
v 20.50065 -444.92563 958.92447
v 21.63506 -445.10463 959.91429
v 22.35791 -445.99704 958.92447
v 21.22350 -445.81805 957.93466
vt 0.00000 0.00000
vt 0.16667 0.00000
vt 0.33333 0.00000
vt 0.50000 0.00000
vt 0.66667 0.00000
vt 0.83333 0.00000
vt 0.00000 0.16667
vt 0.16667 0.16667
vt 0.33333 0.16667
vt 0.50000 0.16667
vt 0.66667 0.16667
vt 0.83333 0.16667
vt 0.00000 0.33333
vt 0.16667 0.33333
vt 0.33333 0.33333
vt 0.50000 0.33333
vt 0.66667 0.33333
vt 0.83333 0.33333
vt 0.00000 0.50000
vt 0.16667 0.50000
vt 0.33333 0.50000
vt 0.50000 0.50000
vt 0.66667 0.50000
vt 0.83333 0.50000
vt 0.00000 0.66667
vt 0.16667 0.66667
vt 0.33333 0.66667
vt 0.50000 0.66667
vt 0.66667 0.66667
vt 0.83333 0.66667
vt 0.00000 0.83333
vt 0.16667 0.83333
vt 0.33333 0.83333
vt 0.50000 0.83333
vt 0.66667 0.83333
vt 0.83333 0.83333
vt 0.00000 1.00000
vt 0.16667 1.00000
vt 0.33333 1.00000
vt 0.50000 1.00000
vt 0.66667 1.00000
vt 0.83333 1.00000
vt 0.00000 0.00000
vt 0.20000 0.00000
vt 0.40000 0.00000
vt 0.60000 0.00000
vt 0.80000 0.00000
vt 0.00000 0.33333
vt 0.20000 0.33333
vt 0.40000 0.33333
vt 0.60000 0.33333
vt 0.80000 0.33333
vt 0.00000 0.66667
vt 0.20000 0.66667
vt 0.40000 0.66667
vt 0.60000 0.66667
vt 0.80000 0.66667
vt 0.00000 1.00000
vt 0.20000 1.00000
vt 0.40000 1.00000
vt 0.60000 1.00000
vt 0.80000 1.00000
vt 0.00000 0.00000
vt 0.25000 0.00000
vt 0.50000 0.00000
vt 0.75000 0.00000
vt 0.00000 0.33333
vt 0.25000 0.33333
vt 0.50000 0.33333
vt 0.75000 0.33333
vt 0.00000 0.66667
vt 0.25000 0.66667
vt 0.50000 0.66667
vt 0.75000 0.66667
vt 0.00000 1.00000
vt 0.25000 1.00000
vt 0.50000 1.00000
vt 0.75000 1.00000
vt 0.00000 0.00000
vt 0.25000 0.00000
vt 0.50000 0.00000
vt 0.75000 0.00000
vt 0.00000 0.33333
vt 0.25000 0.33333
vt 0.50000 0.33333
vt 0.75000 0.33333
vt 0.00000 0.66667
vt 0.25000 0.66667
vt 0.50000 0.66667
vt 0.75000 0.66667
vt 0.00000 1.00000
vt 0.25000 1.00000
vt 0.50000 1.00000
vt 0.75000 1.00000
vt 0.00000 0.00000
vt 0.25000 0.00000
vt 0.50000 0.00000
vt 0.75000 0.00000
vt 0.00000 0.33333
vt 0.25000 0.33333
vt 0.50000 0.33333
vt 0.75000 0.33333
vt 0.00000 0.66667
vt 0.25000 0.66667
vt 0.50000 0.66667
vt 0.75000 0.66667
vt 0.00000 1.00000
vt 0.25000 1.00000
vt 0.50000 1.00000
vt 0.75000 1.00000
vt 0.00000 0.00000
vt 0.20000 0.00000
vt 0.40000 0.00000
vt 0.60000 0.00000
vt 0.80000 0.00000
vt 0.00000 0.33333
vt 0.20000 0.33333
vt 0.40000 0.33333
vt 0.60000 0.33333
vt 0.80000 0.33333
vt 0.00000 0.66667
vt 0.20000 0.66667
vt 0.40000 0.66667
vt 0.60000 0.66667
vt 0.80000 0.66667
vt 0.00000 1.00000
vt 0.20000 1.00000
vt 0.40000 1.00000
vt 0.60000 1.00000
vt 0.80000 1.00000
vt 0.00000 0.00000
vt 0.25000 0.00000
vt 0.50000 0.00000
vt 0.75000 0.00000
vt 0.00000 0.33333
vt 0.25000 0.33333
vt 0.50000 0.33333
vt 0.75000 0.33333
vt 0.00000 0.66667
vt 0.25000 0.66667
vt 0.50000 0.66667
vt 0.75000 0.66667
vt 0.00000 1.00000
vt 0.25000 1.00000
vt 0.50000 1.00000
vt 0.75000 1.00000
vt 0.00000 0.00000
vt 0.25000 0.00000
vt 0.50000 0.00000
vt 0.75000 0.00000
vt 0.00000 0.33333
vt 0.25000 0.33333
vt 0.50000 0.33333
vt 0.75000 0.33333
vt 0.00000 0.66667
vt 0.25000 0.66667
vt 0.50000 0.66667
vt 0.75000 0.66667
vt 0.00000 1.00000
vt 0.25000 1.00000
vt 0.50000 1.00000
vt 0.75000 1.00000
vt 0.00000 0.00000
vt 0.25000 0.00000
vt 0.50000 0.00000
vt 0.75000 0.00000
vt 0.00000 0.33333
vt 0.25000 0.33333
vt 0.50000 0.33333
vt 0.75000 0.33333
vt 0.00000 0.66667
vt 0.25000 0.66667
vt 0.50000 0.66667
vt 0.75000 0.66667
vt 0.00000 1.00000
vt 0.25000 1.00000
vt 0.50000 1.00000
vt 0.75000 1.00000
vt 0.00000 0.00000
vt 0.20000 0.00000
vt 0.40000 0.00000
vt 0.60000 0.00000
vt 0.80000 0.00000
vt 0.00000 0.33333
vt 0.20000 0.33333
vt 0.40000 0.33333
vt 0.60000 0.33333
vt 0.80000 0.33333
vt 0.00000 0.66667
vt 0.20000 0.66667
vt 0.40000 0.66667
vt 0.60000 0.66667
vt 0.80000 0.66667
vt 0.00000 1.00000
vt 0.20000 1.00000
vt 0.40000 1.00000
vt 0.60000 1.00000
vt 0.80000 1.00000
vt 0.00000 0.00000
vt 0.25000 0.00000
vt 0.50000 0.00000
vt 0.75000 0.00000
vt 0.00000 0.33333
vt 0.25000 0.33333
vt 0.50000 0.33333
vt 0.75000 0.33333
vt 0.00000 0.66667
vt 0.25000 0.66667
vt 0.50000 0.66667
vt 0.75000 0.66667
vt 0.00000 1.00000
vt 0.25000 1.00000
vt 0.50000 1.00000
vt 0.75000 1.00000
vt 0.00000 0.00000
vt 0.25000 0.00000
vt 0.50000 0.00000
vt 0.75000 0.00000
vt 0.00000 0.33333
vt 0.25000 0.33333
vt 0.50000 0.33333
vt 0.75000 0.33333
vt 0.00000 0.66667
vt 0.25000 0.66667
vt 0.50000 0.66667
vt 0.75000 0.66667
vt 0.00000 1.00000
vt 0.25000 1.00000
vt 0.50000 1.00000
vt 0.75000 1.00000
vt 0.00000 0.00000
vt 0.25000 0.00000
vt 0.50000 0.00000
vt 0.75000 0.00000
vt 0.00000 0.33333
vt 0.25000 0.33333
vt 0.50000 0.33333
vt 0.75000 0.33333
vt 0.00000 0.66667
vt 0.25000 0.66667
vt 0.50000 0.66667
vt 0.75000 0.66667
vt 0.00000 1.00000
vt 0.25000 1.00000
vt 0.50000 1.00000
vt 0.75000 1.00000
vn 0.5602 0.8279 0.0292
vn 0.5798 0.8145 0.0194
vn 0.9971 0.0697 0.0299
vn 0.9988 0.0443 0.0211
vn 0.4410 -0.8936 0.0834
vn 0.4178 -0.9054 0.0750
vn -0.4328 -0.8923 0.1286
vn -0.4563 -0.8817 0.1200
vn -0.9891 0.0725 0.1281
vn -0.9883 0.0959 0.1183
vn -0.5520 0.8293 0.0862
vn -0.5331 0.8426 0.0761
vn 0.5798 0.8141 0.0322
vn 0.5988 0.8005 0.0248
vn 0.9985 0.0445 0.0325
vn 0.9995 0.0185 0.0251
vn 0.4177 -0.9068 0.0574
vn 0.3943 -0.9176 0.0503
vn -0.4590 -0.8848 0.0801
vn -0.4822 -0.8731 0.0728
vn -0.9922 0.0953 0.0800
vn -0.9903 0.1182 0.0726
vn -0.5342 0.8432 0.0606
vn -0.5145 0.8558 0.0530
vn 0.5986 0.7999 0.0421
vn 0.6173 0.7859 0.0361
vn 0.9991 0.0185 0.0393
vn 0.9994 -0.0076 0.0328
vn 0.3944 -0.9183 0.0353
vn 0.3715 -0.9280 0.0291
vn -0.4834 -0.8746 0.0380
vn -0.5066 -0.8616 0.0316
vn -0.9921 0.1182 0.0419
vn -0.9892 0.1417 0.0360
vn -0.5148 0.8561 0.0452
vn -0.4934 0.8689 0.0391
vn 0.6171 0.7858 0.0426
vn 0.6349 0.7716 0.0382
vn 0.9985 -0.0076 0.0542
vn 0.9982 -0.0335 0.0489
vn 0.3713 -0.9277 0.0393
vn 0.3492 -0.9364 0.0337
vn -0.5066 -0.8620 0.0186
vn -0.5294 -0.8483 0.0125
vn -0.9899 0.1419 0.0042
vn -0.9863 0.1652 -0.0008
vn -0.4935 0.8696 0.0162
vn -0.4710 0.8821 0.0114
vn 0.6349 0.7716 0.0386
vn 0.6525 0.7569 0.0354
vn 0.9971 -0.0333 0.0691
vn 0.9961 -0.0597 0.0647
vn 0.3484 -0.9358 0.0535
vn 0.3265 -0.9440 0.0483
vn -0.5294 -0.8482 0.0132
vn -0.5520 -0.8338 0.0070
vn -0.9860 0.1651 -0.0251
vn -0.9818 0.1878 -0.0295
vn -0.4704 0.8823 -0.0125
vn -0.4470 0.8944 -0.0164
vn 0.6511 0.7569 0.0564
vn 0.6685 0.7418 0.0540
vn 0.9942 -0.0593 0.0899
vn 0.9925 -0.0866 0.0858
vn 0.3262 -0.9438 0.0526
vn 0.3044 -0.9514 0.0474
vn -0.5513 -0.8343 -0.0085
vn -0.5736 -0.8190 -0.0145
vn -0.9810 0.1876 -0.0503
vn -0.9762 0.2101 -0.0539
vn -0.4468 0.8944 -0.0202
vn -0.4223 0.9062 -0.0229
vn -0.0690 0.0109 0.9976
vn -0.0499 -0.0277 -0.9984
vn 0.5367 0.8325 0.1374
vn 0.5360 0.8330 0.1371
vn 0.8704 -0.2590 0.4186
vn 0.8707 -0.2581 0.4187
vn -0.0033 -0.9913 0.1319
vn -0.0025 -0.9912 0.1323
vn -0.8771 -0.3523 -0.3265
vn -0.8769 -0.3531 -0.3262
vn -0.5434 0.7749 -0.3231
vn -0.5440 0.7743 -0.3232
vn 0.5372 0.8327 0.1344
vn 0.5357 0.8337 0.1337
vn 0.8699 -0.2579 0.4204
vn 0.8704 -0.2561 0.4205
vn -0.0041 -0.9907 0.1360
vn -0.0025 -0.9906 0.1369
vn -0.8771 -0.3530 -0.3257
vn -0.8766 -0.3547 -0.3251
vn -0.5425 0.7739 -0.3267
vn -0.5440 0.7727 -0.3271
vn 0.5372 0.8333 0.1304
vn 0.5365 0.8339 0.1300
vn 0.8698 -0.2559 0.4218
vn 0.8701 -0.2549 0.4219
vn -0.0043 -0.9900 0.1410
vn -0.0034 -0.9899 0.1414
vn -0.8771 -0.3546 -0.3241
vn -0.8768 -0.3555 -0.3238
vn -0.5424 0.7723 -0.3306
vn -0.5432 0.7717 -0.3308
vn -0.3956 0.1228 0.9102
vn 0.3948 -0.1142 -0.9117
vn 0.6904 0.6931 0.2075
vn 0.6855 0.6979 0.2071
vn 0.6904 -0.7169 0.0976
vn 0.6947 -0.7124 0.0992
vn -0.6917 -0.6935 -0.2015
vn -0.6870 -0.6984 -0.2006
vn -0.6917 0.7164 -0.0916
vn -0.6960 0.7120 -0.0927
vn 0.6974 0.7007 0.1505
vn 0.6895 0.7087 0.1494
vn 0.6887 -0.7137 0.1283
vn 0.6966 -0.7055 0.1303
vn -0.6985 -0.7008 -0.1445
vn -0.6909 -0.7088 -0.1428
vn -0.6899 0.7134 -0.1223
vn -0.6978 0.7055 -0.1236
vn 0.7006 0.7080 0.0888
vn 0.6974 0.7112 0.0883
vn 0.6940 -0.7053 0.1447
vn 0.6974 -0.7018 0.1452
vn -0.7015 -0.7078 -0.0826
vn -0.6984 -0.7110 -0.0819
vn -0.6952 0.7054 -0.1385
vn -0.6984 0.7021 -0.1388
vn -0.1607 0.0397 0.9862
vn 0.2122 0.0759 -0.9743
vn 0.1442 0.7292 0.6689
vn 0.1450 0.7277 0.6704
vn 0.3110 -0.6751 0.6689
vn 0.3111 -0.6747 0.6693
vn -0.1499 -0.7299 -0.6669
vn -0.1504 -0.7286 -0.6683
vn -0.3167 0.6745 -0.6670
vn -0.3167 0.6743 -0.6671
vn 0.2394 0.7389 0.6298
vn 0.2334 0.7481 0.6212
vn 0.4000 -0.6646 0.6312
vn 0.4027 -0.6551 0.6393
vn -0.2444 -0.7393 -0.6275
vn -0.2389 -0.7490 -0.6180
vn -0.4051 0.6638 -0.6288
vn -0.4083 0.6545 -0.6363
vn 0.2592 0.7519 0.6062
vn 0.2504 0.7626 0.5965
vn 0.4936 -0.6422 0.5865
vn 0.4975 -0.6299 0.5965
vn -0.2640 -0.7525 -0.6033
vn -0.2558 -0.7635 -0.5930
vn -0.4983 0.6413 -0.5835
vn -0.5027 0.6290 -0.5930
vn -0.8282 -0.1469 0.5409
vn 0.9380 0.1114 -0.3282
vn 0.6299 -0.5317 0.5662
vn 0.6121 -0.5392 0.5784
vn -0.7659 -0.3047 0.5661
vn -0.7797 -0.2935 0.5531
vn -0.6290 0.5371 -0.5620
vn -0.6115 0.5433 -0.5752
vn 0.7668 0.3101 -0.5620
vn 0.7806 0.2974 -0.5498
vn 0.5963 -0.6193 0.5108
vn 0.5771 -0.6272 0.5230
vn -0.7835 -0.3119 0.5375
vn -0.7967 -0.2984 0.5256
vn -0.5951 0.6242 -0.5062
vn -0.5764 0.6309 -0.5194
vn 0.7844 0.3169 -0.5331
vn 0.7978 0.3021 -0.5218
vn 0.5633 -0.6861 0.4604
vn 0.5664 -0.6846 0.4588
vn -0.8120 -0.3621 0.4578
vn -0.8108 -0.3634 0.4587
vn -0.5622 0.6900 -0.4560
vn -0.5655 0.6885 -0.4540
vn 0.8127 0.3660 -0.4533
vn 0.8117 0.3673 -0.4541
vn 0.1466 0.6286 0.7638
vn -0.1281 -0.7874 -0.6030
vn 0.4580 -0.8110 0.3640
vn 0.4755 -0.8051 0.3546
vn -0.6492 -0.4847 0.5862
vn -0.6338 -0.4990 0.5910
vn -0.8568 0.5156 0.0045
vn -0.8653 0.5009 0.0191
vn 0.1222 0.8075 -0.5771
vn 0.1027 0.8137 -0.5721
vn 0.9348 -0.0124 -0.3550
vn 0.9310 0.0070 -0.3648
vn 0.4647 -0.8247 0.3224
vn 0.4937 -0.8127 0.3094
vn -0.6663 -0.5564 0.4964
vn -0.6408 -0.5795 0.5035
vn -0.8749 0.4842 -0.0089
vn -0.8886 0.4585 0.0107
vn 0.1284 0.8590 -0.4956
vn 0.0948 0.8673 -0.4888
vn 0.9553 0.0511 -0.2912
vn 0.9490 0.0820 -0.3044
vn 0.4854 -0.8300 0.2747
vn 0.5743 0.6962 -0.4307
vn -0.6612 -0.6185 0.4246
vn 0.9310 -0.3603 -0.0587
vn -0.8873 0.4608 0.0156
vn -0.0029 -0.9268 0.3756
vn 0.1195 0.9146 -0.3864
vn -0.9367 -0.2205 0.2721
vn 0.9666 0.1189 -0.2269
vn -0.5800 0.7825 -0.2263
vn 0.1888 0.3823 0.9045
vn -0.3135 -0.5251 -0.7912
vn -0.2390 -0.8895 0.3894
vn -0.2488 -0.8850 0.3935
vn -0.8325 0.3941 0.3894
vn -0.8299 0.4042 0.3846
vn 0.2417 0.8908 -0.3848
vn 0.2511 0.8861 -0.3896
vn 0.8352 -0.3928 -0.3848
vn 0.8322 -0.4032 -0.3806
vn -0.2605 -0.8903 0.3736
vn -0.2658 -0.8878 0.3758
vn -0.8311 0.4037 0.3825
vn -0.8295 0.4092 0.3801
vn 0.2631 0.8914 -0.3691
vn 0.2681 0.8888 -0.3716
vn 0.8336 -0.4026 -0.3782
vn 0.8319 -0.4082 -0.3760
vn -0.2685 -0.8890 0.3710
vn -0.2635 -0.8913 0.3689
vn -0.8372 0.4059 0.3666
vn -0.8387 0.4006 0.3689
vn 0.2709 0.8900 -0.3667
vn 0.2660 0.8924 -0.3645
vn 0.8395 -0.4048 -0.3624
vn 0.8412 -0.3995 -0.3645
vn 0.4737 0.2109 0.8550
vn -0.4969 -0.2298 -0.8368
vn 0.2883 0.8339 0.4706
vn 0.3122 0.8169 0.4850
vn 0.7175 -0.5136 0.4706
vn 0.7083 -0.5402 0.4545
vn -0.2916 -0.8350 -0.4667
vn -0.3144 -0.8176 -0.4824
vn -0.7208 0.5125 -0.4667
vn -0.7104 0.5396 -0.4519
vn 0.3673 0.8320 0.4158
vn 0.4195 0.7907 0.4459
vn 0.7141 -0.5386 0.4472
vn 0.6864 -0.5973 0.4148
vn -0.3708 -0.8327 -0.4112
vn -0.4210 -0.7911 -0.4438
vn -0.7176 0.5376 -0.4427
vn -0.6879 0.5970 -0.4127
vn 0.4745 0.8005 0.3661
vn 0.5037 0.7749 0.3818
vn 0.6979 -0.5953 0.3981
vn 0.6776 -0.6286 0.3818
vn -0.4772 -0.8008 -0.3619
vn -0.5056 -0.7752 -0.3788
vn -0.7007 0.5948 -0.3940
vn -0.6795 0.6283 -0.3788
vn -0.5337 -0.0661 0.8431
vn 0.6315 0.2011 -0.7488
vn 0.7081 -0.0177 0.7059
vn 0.7078 -0.0177 0.7062
vn -0.7052 -0.0662 0.7059
vn -0.7038 -0.0662 0.7073
vn -0.7083 0.0223 -0.7056
vn -0.7081 0.0223 -0.7057
vn 0.7051 0.0708 -0.7056
vn 0.7038 0.0709 -0.7069
vn 0.7115 -0.1021 0.6952
vn 0.7120 -0.1020 0.6947
vn -0.6993 -0.1742 0.6932
vn -0.6984 -0.1743 0.6941
vn -0.7116 0.1066 -0.6944
vn -0.7124 0.1065 -0.6936
vn 0.6990 0.1787 -0.6925
vn 0.6984 0.1788 -0.6931
vn 0.7171 -0.2004 0.6676
vn 0.7175 -0.2003 0.6672
vn -0.6939 -0.2679 0.6683
vn -0.6952 -0.2676 0.6672
vn -0.7171 0.2048 -0.6662
vn -0.7177 0.2046 -0.6657
vn 0.6936 0.2723 -0.6669
vn 0.6950 0.2719 -0.6657
vn -0.0449 0.9414 0.3343
vn 0.0342 -0.9975 -0.0626
vn -0.9228 -0.1113 0.3690
vn -0.9244 -0.1340 0.3570
vn -0.1915 0.7810 0.5944
vn -0.2141 0.7707 0.6001
vn 0.8072 0.5903 0.0042
vn 0.7952 0.6059 0.0215
vn 0.6931 -0.4200 -0.5859
vn 0.7094 -0.4009 -0.5797
vn -0.3761 -0.8536 -0.3605
vn -0.3535 -0.8582 -0.3723
vn -0.9219 -0.1371 0.3623
vn -0.9223 -0.1957 0.3333
vn -0.2342 0.7964 0.5576
vn -0.2913 0.7671 0.5716
vn 0.7795 0.6262 -0.0123
vn 0.7455 0.6659 0.0291
vn 0.7185 -0.4125 -0.5600
vn 0.7565 -0.3606 -0.5456
vn -0.3329 -0.8839 -0.3284
vn -0.2741 -0.8928 -0.3575
vn -0.9245 -0.1934 0.3284
vn -0.9210 -0.2341 0.3114
vn -0.3280 0.8069 0.4913
vn -0.3659 0.7848 0.5002
vn 0.7242 0.6893 -0.0184
vn 0.6984 0.7157 0.0059
vn 0.7783 -0.3842 -0.4966
vn 0.8011 -0.3459 -0.4885
vn -0.2400 -0.9289 -0.2822
vn -0.1998 -0.9329 -0.2997
vn 0.3733 -0.3617 0.8543
vn -0.3680 0.4996 -0.7842
vn 0.6909 0.7117 -0.1272
vn 0.6879 0.7148 -0.1264
vn 0.6909 -0.7017 -0.1740
vn 0.6939 -0.6986 -0.1745
vn -0.6900 -0.7118 0.1313
vn -0.6869 -0.7149 0.1307
vn -0.6900 0.7016 0.1781
vn -0.6931 0.6984 0.1788
vn 0.7004 0.7111 -0.0615
vn 0.6981 0.7134 -0.0608
vn 0.6951 -0.6989 -0.1683
vn 0.6977 -0.6964 -0.1684
vn -0.6997 -0.7114 0.0656
vn -0.6975 -0.7136 0.0651
vn -0.6943 0.6987 0.1724
vn -0.6970 0.6960 0.1727
vn 0.7042 0.7098 -0.0139
vn 0.7042 0.7099 -0.0139
vn 0.7046 -0.7002 -0.1150
vn 0.7042 -0.7007 -0.1150
vn -0.7038 -0.7102 0.0181
vn -0.7041 0.7000 0.1192
vn -0.7038 0.7004 0.1192
vn 0.0943 -0.0711 0.9930
vn -0.2160 0.0323 -0.9759
vn -0.3063 -0.6789 0.6672
vn -0.3054 -0.6826 0.6639
vn -0.1592 0.7276 0.6672
vn -0.1610 0.7234 0.6714
vn 0.3097 0.6786 -0.6660
vn 0.3090 0.6824 -0.6625
vn 0.1626 -0.7280 -0.6660
vn 0.1646 -0.7238 -0.6701
vn -0.3477 -0.6789 0.6466
vn -0.3424 -0.6934 0.6340
vn -0.2425 0.7307 0.6382
vn -0.2493 0.7165 0.6515
vn 0.3508 0.6786 -0.6453
vn 0.3461 0.6933 -0.6321
vn 0.2456 -0.7309 -0.6368
vn 0.2530 -0.7168 -0.6497
vn -0.3824 -0.6918 0.6125
vn -0.3761 -0.7040 0.6025
vn -0.3585 0.7211 0.5928
vn -0.3643 0.7102 0.6025
vn 0.3855 0.6917 -0.6107
vn 0.3795 0.7040 -0.6004
vn 0.3615 -0.7211 -0.5910
vn 0.3676 -0.7102 -0.6004
vn 0.8505 -0.0071 0.5259
vn -0.9377 0.0981 -0.3334
vn -0.6111 0.3699 0.6998
vn -0.6069 0.3689 0.7040
vn 0.6905 -0.1831 0.6998
vn 0.6931 -0.1845 0.6968
vn 0.6095 -0.3738 -0.6992
vn 0.6054 -0.3726 -0.7033
vn -0.6922 0.1792 -0.6992
vn -0.6948 0.1809 -0.6960
vn -0.5536 0.4853 0.6768
vn -0.5417 0.4832 0.6878
vn 0.7134 -0.1405 0.6865
vn 0.7225 -0.1482 0.6753
vn 0.5516 -0.4891 -0.6756
vn 0.5401 -0.4865 -0.6867
vn -0.7152 0.1365 -0.6855
vn -0.7242 0.1450 -0.6741
vn -0.4858 0.5881 0.6466
vn -0.4777 0.5870 0.6536
vn 0.7415 -0.1128 0.6614
vn 0.7473 -0.1196 0.6536
vn 0.4837 -0.5916 -0.6450
vn 0.4759 -0.5902 -0.6521
vn -0.7434 0.1091 -0.6599
vn -0.7491 0.1165 -0.6521
vn -0.4614 -0.7997 0.3841
vn 0.3868 0.9105 -0.1465
f 1/1/1 8/8/1 2/2/1
f 1/1/2 7/7/2 8/8/2
f 2/2/3 9/9/3 3/3/3
f 2/2/4 8/8/4 9/9/4
f 3/3/5 10/10/5 4/4/5
f 3/3/6 9/9/6 10/10/6
f 4/4/7 11/11/7 5/5/7
f 4/4/8 10/10/8 11/11/8
f 5/5/9 12/12/9 6/6/9
f 5/5/10 11/11/10 12/12/10
f 6/6/11 7/7/11 1/1/11
f 6/6/12 12/12/12 7/7/12
f 7/7/13 14/14/13 8/8/13
f 7/7/14 13/13/14 14/14/14
f 8/8/15 15/15/15 9/9/15
f 8/8/16 14/14/16 15/15/16
f 9/9/17 16/16/17 10/10/17
f 9/9/18 15/15/18 16/16/18
f 10/10/19 17/17/19 11/11/19
f 10/10/20 16/16/20 17/17/20
f 11/11/21 18/18/21 12/12/21
f 11/11/22 17/17/22 18/18/22
f 12/12/23 13/13/23 7/7/23
f 12/12/24 18/18/24 13/13/24
f 13/13/25 20/20/25 14/14/25
f 13/13/26 19/19/26 20/20/26
f 14/14/27 21/21/27 15/15/27
f 14/14/28 20/20/28 21/21/28
f 15/15/29 22/22/29 16/16/29
f 15/15/30 21/21/30 22/22/30
f 16/16/31 23/23/31 17/17/31
f 16/16/32 22/22/32 23/23/32
f 17/17/33 24/24/33 18/18/33
f 17/17/34 23/23/34 24/24/34
f 18/18/35 19/19/35 13/13/35
f 18/18/36 24/24/36 19/19/36
f 19/19/37 26/26/37 20/20/37
f 19/19/38 25/25/38 26/26/38
f 20/20/39 27/27/39 21/21/39
f 20/20/40 26/26/40 27/27/40
f 21/21/41 28/28/41 22/22/41
f 21/21/42 27/27/42 28/28/42
f 22/22/43 29/29/43 23/23/43
f 22/22/44 28/28/44 29/29/44
f 23/23/45 30/30/45 24/24/45
f 23/23/46 29/29/46 30/30/46
f 24/24/47 25/25/47 19/19/47
f 24/24/48 30/30/48 25/25/48
f 25/25/49 32/32/49 26/26/49
f 25/25/50 31/31/50 32/32/50
f 26/26/51 33/33/51 27/27/51
f 26/26/52 32/32/52 33/33/52
f 27/27/53 34/34/53 28/28/53
f 27/27/54 33/33/54 34/34/54
f 28/28/55 35/35/55 29/29/55
f 28/28/56 34/34/56 35/35/56
f 29/29/57 36/36/57 30/30/57
f 29/29/58 35/35/58 36/36/58
f 30/30/59 31/31/59 25/25/59
f 30/30/60 36/36/60 31/31/60
f 31/31/61 38/38/61 32/32/61
f 31/31/62 37/37/62 38/38/62
f 32/32/63 39/39/63 33/33/63
f 32/32/64 38/38/64 39/39/64
f 33/33/65 40/40/65 34/34/65
f 33/33/66 39/39/66 40/40/66
f 34/34/67 41/41/67 35/35/67
f 34/34/68 40/40/68 41/41/68
f 35/35/69 42/42/69 36/36/69
f 35/35/70 41/41/70 42/42/70
f 36/36/71 37/37/71 31/31/71
f 36/36/72 42/42/72 37/37/72
f 37/37/73 39/39/73 38/38/73
f 37/37/73 40/40/73 39/39/73
f 37/37/73 41/41/73 40/40/73
f 37/37/73 42/42/73 41/41/73
f 6/6/74 4/4/74 5/5/74
f 6/6/74 3/3/74 4/4/74
f 6/6/74 2/2/74 3/3/74
f 6/6/74 1/1/74 2/2/74
f 43/43/75 49/49/75 44/44/75
f 43/43/76 48/48/76 49/49/76
f 44/44/77 50/50/77 45/45/77
f 44/44/78 49/49/78 50/50/78
f 45/45/79 51/51/79 46/46/79
f 45/45/80 50/50/80 51/51/80
f 46/46/81 52/52/81 47/47/81
f 46/46/82 51/51/82 52/52/82
f 47/47/83 48/48/83 43/43/83
f 47/47/84 52/52/84 48/48/84
f 48/48/85 54/54/85 49/49/85
f 48/48/86 53/53/86 54/54/86
f 49/49/87 55/55/87 50/50/87
f 49/49/88 54/54/88 55/55/88
f 50/50/89 56/56/89 51/51/89
f 50/50/90 55/55/90 56/56/90
f 51/51/91 57/57/91 52/52/91
f 51/51/92 56/56/92 57/57/92
f 52/52/93 53/53/93 48/48/93
f 52/52/94 57/57/94 53/53/94
f 53/53/95 59/59/95 54/54/95
f 53/53/96 58/58/96 59/59/96
f 54/54/97 60/60/97 55/55/97
f 54/54/98 59/59/98 60/60/98
f 55/55/99 61/61/99 56/56/99
f 55/55/100 60/60/100 61/61/100
f 56/56/101 62/62/101 57/57/101
f 56/56/102 61/61/102 62/62/102
f 57/57/103 58/58/103 53/53/103
f 57/57/104 62/62/104 58/58/104
f 58/58/105 60/60/105 59/59/105
f 58/58/105 61/61/105 60/60/105
f 58/58/105 62/62/105 61/61/105
f 47/47/106 45/45/106 46/46/106
f 47/47/106 44/44/106 45/45/106
f 47/47/106 43/43/106 44/44/106
f 63/63/107 68/68/107 64/64/107
f 63/63/108 67/67/108 68/68/108
f 64/64/109 69/69/109 65/65/109
f 64/64/110 68/68/110 69/69/110
f 65/65/111 70/70/111 66/66/111
f 65/65/112 69/69/112 70/70/112
f 66/66/113 67/67/113 63/63/113
f 66/66/114 70/70/114 67/67/114
f 67/67/115 72/72/115 68/68/115
f 67/67/116 71/71/116 72/72/116
f 68/68/117 73/73/117 69/69/117
f 68/68/118 72/72/118 73/73/118
f 69/69/119 74/74/119 70/70/119
f 69/69/120 73/73/120 74/74/120
f 70/70/121 71/71/121 67/67/121
f 70/70/122 74/74/122 71/71/122
f 71/71/123 76/76/123 72/72/123
f 71/71/124 75/75/124 76/76/124
f 72/72/125 77/77/125 73/73/125
f 72/72/126 76/76/126 77/77/126
f 73/73/127 78/78/127 74/74/127
f 73/73/128 77/77/128 78/78/128
f 74/74/129 75/75/129 71/71/129
f 74/74/130 78/78/130 75/75/130
f 75/75/131 77/77/131 76/76/131
f 75/75/131 78/78/131 77/77/131
f 66/66/132 64/64/132 65/65/132
f 66/66/132 63/63/132 64/64/132
f 79/79/133 84/84/133 80/80/133
f 79/79/134 83/83/134 84/84/134
f 80/80/135 85/85/135 81/81/135
f 80/80/136 84/84/136 85/85/136
f 81/81/137 86/86/137 82/82/137
f 81/81/138 85/85/138 86/86/138
f 82/82/139 83/83/139 79/79/139
f 82/82/140 86/86/140 83/83/140
f 83/83/141 88/88/141 84/84/141
f 83/83/142 87/87/142 88/88/142
f 84/84/143 89/89/143 85/85/143
f 84/84/144 88/88/144 89/89/144
f 85/85/145 90/90/145 86/86/145
f 85/85/146 89/89/146 90/90/146
f 86/86/147 87/87/147 83/83/147
f 86/86/148 90/90/148 87/87/148
f 87/87/149 92/92/149 88/88/149
f 87/87/150 91/91/150 92/92/150
f 88/88/151 93/93/151 89/89/151
f 88/88/152 92/92/152 93/93/152
f 89/89/153 94/94/153 90/90/153
f 89/89/154 93/93/154 94/94/154
f 90/90/155 91/91/155 87/87/155
f 90/90/156 94/94/156 91/91/156
f 91/91/157 93/93/157 92/92/157
f 91/91/157 94/94/157 93/93/157
f 82/82/158 80/80/158 81/81/158
f 82/82/158 79/79/158 80/80/158
f 95/95/159 100/100/159 96/96/159
f 95/95/160 99/99/160 100/100/160
f 96/96/161 101/101/161 97/97/161
f 96/96/162 100/100/162 101/101/162
f 97/97/163 102/102/163 98/98/163
f 97/97/164 101/101/164 102/102/164
f 98/98/165 99/99/165 95/95/165
f 98/98/166 102/102/166 99/99/166
f 99/99/167 104/104/167 100/100/167
f 99/99/168 103/103/168 104/104/168
f 100/100/169 105/105/169 101/101/169
f 100/100/170 104/104/170 105/105/170
f 101/101/171 106/106/171 102/102/171
f 101/101/172 105/105/172 106/106/172
f 102/102/173 103/103/173 99/99/173
f 102/102/174 106/106/174 103/103/174
f 103/103/175 108/108/175 104/104/175
f 103/103/176 107/107/176 108/108/176
f 104/104/177 109/109/177 105/105/177
f 104/104/178 108/108/178 109/109/178
f 105/105/179 110/110/179 106/106/179
f 105/105/180 109/109/180 110/110/180
f 106/106/181 107/107/181 103/103/181
f 106/106/182 110/110/182 107/107/182
f 107/107/183 109/109/183 108/108/183
f 107/107/183 110/110/183 109/109/183
f 98/98/184 96/96/184 97/97/184
f 98/98/184 95/95/184 96/96/184
f 111/111/185 117/117/185 112/112/185
f 111/111/186 116/116/186 117/117/186
f 112/112/187 118/118/187 113/113/187
f 112/112/188 117/117/188 118/118/188
f 113/113/189 119/119/189 114/114/189
f 113/113/190 118/118/190 119/119/190
f 114/114/191 120/120/191 115/115/191
f 114/114/192 119/119/192 120/120/192
f 115/115/193 116/116/193 111/111/193
f 115/115/194 120/120/194 116/116/194
f 116/116/195 122/122/195 117/117/195
f 116/116/196 121/121/196 122/122/196
f 117/117/197 123/123/197 118/118/197
f 117/117/198 122/122/198 123/123/198
f 118/118/199 124/124/199 119/119/199
f 118/118/200 123/123/200 124/124/200
f 119/119/201 125/125/201 120/120/201
f 119/119/202 124/124/202 125/125/202
f 120/120/203 121/121/203 116/116/203
f 120/120/204 125/125/204 121/121/204
f 121/121/205 127/127/205 122/122/205
f 121/121/206 126/126/206 127/127/206
f 122/122/207 128/128/207 123/123/207
f 122/122/208 127/127/208 128/128/208
f 123/123/209 129/129/209 124/124/209
f 123/123/210 128/128/210 129/129/210
f 124/124/211 130/130/211 125/125/211
f 124/124/212 129/129/212 130/130/212
f 125/125/213 126/126/213 121/121/213
f 125/125/214 130/130/214 126/126/214
f 126/126/215 128/128/215 127/127/215
f 126/126/215 129/129/215 128/128/215
f 126/126/215 130/130/215 129/129/215
f 115/115/216 113/113/216 114/114/216
f 115/115/216 112/112/216 113/113/216
f 115/115/216 111/111/216 112/112/216
f 131/131/217 136/136/217 132/132/217
f 131/131/218 135/135/218 136/136/218
f 132/132/219 137/137/219 133/133/219
f 132/132/220 136/136/220 137/137/220
f 133/133/221 138/138/221 134/134/221
f 133/133/222 137/137/222 138/138/222
f 134/134/223 135/135/223 131/131/223
f 134/134/224 138/138/224 135/135/224
f 135/135/225 140/140/225 136/136/225
f 135/135/226 139/139/226 140/140/226
f 136/136/227 141/141/227 137/137/227
f 136/136/228 140/140/228 141/141/228
f 137/137/229 142/142/229 138/138/229
f 137/137/230 141/141/230 142/142/230
f 138/138/231 139/139/231 135/135/231
f 138/138/232 142/142/232 139/139/232
f 139/139/233 144/144/233 140/140/233
f 139/139/234 143/143/234 144/144/234
f 140/140/235 145/145/235 141/141/235
f 140/140/236 144/144/236 145/145/236
f 141/141/237 146/146/237 142/142/237
f 141/141/238 145/145/238 146/146/238
f 142/142/239 143/143/239 139/139/239
f 142/142/240 146/146/240 143/143/240
f 143/143/241 145/145/241 144/144/241
f 143/143/241 146/146/241 145/145/241
f 134/134/242 132/132/242 133/133/242
f 134/134/242 131/131/242 132/132/242
f 147/147/243 152/152/243 148/148/243
f 147/147/244 151/151/244 152/152/244
f 148/148/245 153/153/245 149/149/245
f 148/148/246 152/152/246 153/153/246
f 149/149/247 154/154/247 150/150/247
f 149/149/248 153/153/248 154/154/248
f 150/150/249 151/151/249 147/147/249
f 150/150/250 154/154/250 151/151/250
f 151/151/251 156/156/251 152/152/251
f 151/151/252 155/155/252 156/156/252
f 152/152/253 157/157/253 153/153/253
f 152/152/254 156/156/254 157/157/254
f 153/153/255 158/158/255 154/154/255
f 153/153/256 157/157/256 158/158/256
f 154/154/257 155/155/257 151/151/257
f 154/154/258 158/158/258 155/155/258
f 155/155/259 160/160/259 156/156/259
f 155/155/260 159/159/260 160/160/260
f 156/156/261 161/161/261 157/157/261
f 156/156/262 160/160/262 161/161/262
f 157/157/263 162/162/263 158/158/263
f 157/157/264 161/161/264 162/162/264
f 158/158/265 159/159/265 155/155/265
f 158/158/266 162/162/266 159/159/266
f 159/159/267 161/161/267 160/160/267
f 159/159/267 162/162/267 161/161/267
f 150/150/268 148/148/268 149/149/268
f 150/150/268 147/147/268 148/148/268
f 163/163/269 168/168/269 164/164/269
f 163/163/270 167/167/270 168/168/270
f 164/164/271 169/169/271 165/165/271
f 164/164/272 168/168/272 169/169/272
f 165/165/273 170/170/273 166/166/273
f 165/165/274 169/169/274 170/170/274
f 166/166/275 167/167/275 163/163/275
f 166/166/276 170/170/276 167/167/276
f 167/167/277 172/172/277 168/168/277
f 167/167/278 171/171/278 172/172/278
f 168/168/279 173/173/279 169/169/279
f 168/168/280 172/172/280 173/173/280
f 169/169/281 174/174/281 170/170/281
f 169/169/282 173/173/282 174/174/282
f 170/170/283 171/171/283 167/167/283
f 170/170/284 174/174/284 171/171/284
f 171/171/285 176/176/285 172/172/285
f 171/171/286 175/175/286 176/176/286
f 172/172/287 177/177/287 173/173/287
f 172/172/288 176/176/288 177/177/288
f 173/173/289 178/178/289 174/174/289
f 173/173/290 177/177/290 178/178/290
f 174/174/291 175/175/291 171/171/291
f 174/174/292 178/178/292 175/175/292
f 175/175/293 177/177/293 176/176/293
f 175/175/293 178/178/293 177/177/293
f 166/166/294 164/164/294 165/165/294
f 166/166/294 163/163/294 164/164/294
f 179/179/295 185/185/295 180/180/295
f 179/179/296 184/184/296 185/185/296
f 180/180/297 186/186/297 181/181/297
f 180/180/298 185/185/298 186/186/298
f 181/181/299 187/187/299 182/182/299
f 181/181/300 186/186/300 187/187/300
f 182/182/301 188/188/301 183/183/301
f 182/182/302 187/187/302 188/188/302
f 183/183/303 184/184/303 179/179/303
f 183/183/304 188/188/304 184/184/304
f 184/184/305 190/190/305 185/185/305
f 184/184/306 189/189/306 190/190/306
f 185/185/307 191/191/307 186/186/307
f 185/185/308 190/190/308 191/191/308
f 186/186/309 192/192/309 187/187/309
f 186/186/310 191/191/310 192/192/310
f 187/187/311 193/193/311 188/188/311
f 187/187/312 192/192/312 193/193/312
f 188/188/313 189/189/313 184/184/313
f 188/188/314 193/193/314 189/189/314
f 189/189/315 195/195/315 190/190/315
f 189/189/316 194/194/316 195/195/316
f 190/190/317 196/196/317 191/191/317
f 190/190/318 195/195/318 196/196/318
f 191/191/319 197/197/319 192/192/319
f 191/191/320 196/196/320 197/197/320
f 192/192/321 198/198/321 193/193/321
f 192/192/322 197/197/322 198/198/322
f 193/193/323 194/194/323 189/189/323
f 193/193/324 198/198/324 194/194/324
f 194/194/325 196/196/325 195/195/325
f 194/194/325 197/197/325 196/196/325
f 194/194/325 198/198/325 197/197/325
f 183/183/326 181/181/326 182/182/326
f 183/183/326 180/180/326 181/181/326
f 183/183/326 179/179/326 180/180/326
f 199/199/327 204/204/327 200/200/327
f 199/199/328 203/203/328 204/204/328
f 200/200/329 205/205/329 201/201/329
f 200/200/330 204/204/330 205/205/330
f 201/201/331 206/206/331 202/202/331
f 201/201/332 205/205/332 206/206/332
f 202/202/333 203/203/333 199/199/333
f 202/202/334 206/206/334 203/203/334
f 203/203/335 208/208/335 204/204/335
f 203/203/336 207/207/336 208/208/336
f 204/204/337 209/209/337 205/205/337
f 204/204/338 208/208/338 209/209/338
f 205/205/339 210/210/339 206/206/339
f 205/205/340 209/209/340 210/210/340
f 206/206/341 207/207/341 203/203/341
f 206/206/342 210/210/342 207/207/342
f 207/207/343 212/212/343 208/208/343
f 207/207/344 211/211/344 212/212/344
f 208/208/345 213/213/345 209/209/345
f 208/208/346 212/212/346 213/213/346
f 209/209/347 214/214/347 210/210/347
f 209/209/347 213/213/347 214/214/347
f 210/210/348 211/211/348 207/207/348
f 210/210/349 214/214/349 211/211/349
f 211/211/350 213/213/350 212/212/350
f 211/211/350 214/214/350 213/213/350
f 202/202/351 200/200/351 201/201/351
f 202/202/351 199/199/351 200/200/351
f 215/215/352 220/220/352 216/216/352
f 215/215/353 219/219/353 220/220/353
f 216/216/354 221/221/354 217/217/354
f 216/216/355 220/220/355 221/221/355
f 217/217/356 222/222/356 218/218/356
f 217/217/357 221/221/357 222/222/357
f 218/218/358 219/219/358 215/215/358
f 218/218/359 222/222/359 219/219/359
f 219/219/360 224/224/360 220/220/360
f 219/219/361 223/223/361 224/224/361
f 220/220/362 225/225/362 221/221/362
f 220/220/363 224/224/363 225/225/363
f 221/221/364 226/226/364 222/222/364
f 221/221/365 225/225/365 226/226/365
f 222/222/366 223/223/366 219/219/366
f 222/222/367 226/226/367 223/223/367
f 223/223/368 228/228/368 224/224/368
f 223/223/369 227/227/369 228/228/369
f 224/224/370 229/229/370 225/225/370
f 224/224/371 228/228/371 229/229/371
f 225/225/372 230/230/372 226/226/372
f 225/225/373 229/229/373 230/230/373
f 226/226/374 227/227/374 223/223/374
f 226/226/375 230/230/375 227/227/375
f 227/227/376 229/229/376 228/228/376
f 227/227/376 230/230/376 229/229/376
f 218/218/377 216/216/377 217/217/377
f 218/218/377 215/215/377 216/216/377
f 231/231/378 236/236/378 232/232/378
f 231/231/379 235/235/379 236/236/379
f 232/232/380 237/237/380 233/233/380
f 232/232/381 236/236/381 237/237/381
f 233/233/382 238/238/382 234/234/382
f 233/233/383 237/237/383 238/238/383
f 234/234/384 235/235/384 231/231/384
f 234/234/385 238/238/385 235/235/385
f 235/235/386 240/240/386 236/236/386
f 235/235/387 239/239/387 240/240/387
f 236/236/388 241/241/388 237/237/388
f 236/236/389 240/240/389 241/241/389
f 237/237/390 242/242/390 238/238/390
f 237/237/391 241/241/391 242/242/391
f 238/238/392 239/239/392 235/235/392
f 238/238/393 242/242/393 239/239/393
f 239/239/394 244/244/394 240/240/394
f 239/239/395 243/243/395 244/244/395
f 240/240/396 245/245/396 241/241/396
f 240/240/397 244/244/397 245/245/397
f 241/241/398 246/246/398 242/242/398
f 241/241/399 245/245/399 246/246/399
f 242/242/400 243/243/400 239/239/400
f 242/242/401 246/246/401 243/243/401
f 243/243/402 245/245/402 244/244/402
f 243/243/402 246/246/402 245/245/402
f 234/234/403 232/232/403 233/233/403
f 234/234/403 231/231/403 232/232/403
