# JudeanFloraV1; canonical UE cm (X east, +Y south, Z up), written with Y reflected and triangle winding reversed for the legacy OBJ importer adapter. One o object, no g groups, so the importer creates exactly one material slot.
# carob (Ceratonia siliqua), StreetTreesV1 seed 2, LOD2 leaf
# height 5.5-10.0 m, crown 6.0-10.0 m; source: Zohary, M., Plants of the Bible (Cambridge University Press, 1982), species entry Ceratonia siliqua; a dense evergreen of 5.5-10 m with a broad crown
# branching is recursive with da Vinci child radii; leaf sprays are anchored to branch tips. Stylised habit, not a survey of any tree.
o SM_StreetTreesV1_Carob_S2_L2_Leaf
s off
v 93.32836 150.95035 432.72790
v -46.12564 25.04400 432.72790
v -31.27302 8.61954 619.30084
v 108.18098 134.52589 619.30084
v 93.32836 150.95035 432.72790
v -46.12564 25.04400 432.72790
v -31.27302 8.61954 619.30084
v 108.18098 134.52589 619.30084
v 17.61281 159.78845 503.97414
v 19.77256 -35.50383 503.97414
v -14.51247 -35.91029 696.24507
v -16.67222 159.38199 696.24507
v 17.61281 159.78845 503.97414
v 19.77256 -35.50383 503.97414
v -14.51247 -35.91029 696.24507
v -16.67222 159.38199 696.24507
v -62.87273 3.82134 548.62410
v -188.33944 149.56766 548.62410
v -169.39162 165.90532 739.30170
v -43.92491 20.15899 739.30170
v -62.87273 3.82134 548.62410
v -188.33944 149.56766 548.62410
v -169.39162 165.90532 739.30170
v -43.92491 20.15899 739.30170
v 60.04110 -60.78241 491.45087
v 109.01351 71.96340 491.45087
v 112.71691 70.60050 632.88699
v 63.74450 -62.14532 632.88699
v 60.04110 -60.78241 491.45087
v 109.01351 71.96340 491.45087
v 112.71691 70.60050 632.88699
v 63.74450 -62.14532 632.88699
v 11.55724 132.39201 454.50971
v 61.14837 -21.27628 454.50971
v 37.22221 -29.01866 614.01149
v -12.36891 124.64963 614.01149
v 11.55724 132.39201 454.50971
v 61.14837 -21.27628 454.50971
v 37.22221 -29.01866 614.01149
v -12.36891 124.64963 614.01149
v 67.77070 113.41953 560.55034
v 132.22664 -65.46571 560.55034
v 117.60835 -70.74614 750.05739
v 53.15241 108.13911 750.05739
v 67.77070 113.41953 560.55034
v 132.22664 -65.46571 560.55034
v 117.60835 -70.74614 750.05739
v 53.15241 108.13911 750.05739
v -62.79893 -53.45895 437.49270
v -11.01746 101.04962 437.49270
v -0.38343 97.49518 600.06114
v -52.16490 -57.01338 600.06114
v -62.79893 -53.45895 437.49270
v -11.01746 101.04962 437.49270
v -0.38343 97.49518 600.06114
v -52.16490 -57.01338 600.06114
v 23.27078 23.86309 486.69847
v -116.69834 73.16417 486.69847
v -121.06057 60.74798 634.51173
v 18.90855 11.44690 634.51173
v 23.27078 23.86309 486.69847
v -116.69834 73.16417 486.69847
v -121.06057 60.74798 634.51173
v 18.90855 11.44690 634.51173
v -83.66305 -94.90503 574.51602
v 114.41399 -22.30485 574.51602
v 124.86379 -50.74522 783.29162
v -73.21325 -123.34540 783.29162
v -83.66305 -94.90503 574.51602
v 114.41399 -22.30485 574.51602
v 124.86379 -50.74522 783.29162
v -73.21325 -123.34540 783.29162
v 33.99096 122.31639 397.39459
v 170.41434 152.59708 397.39459
v 172.42691 143.56388 536.83135
v 36.00352 113.28319 536.83135
v 33.99096 122.31639 397.39459
v 170.41434 152.59708 397.39459
v 172.42691 143.56388 536.83135
v 36.00352 113.28319 536.83135
v -67.43666 -54.96206 544.56438
v 38.50229 93.89751 544.56438
v 26.41185 102.48742 726.66948
v -79.52709 -46.37215 726.66948
v -67.43666 -54.96206 544.56438
v 38.50229 93.89751 544.56438
v 26.41185 102.48742 726.66948
v -79.52709 -46.37215 726.66948
v -50.58811 3.05394 395.45383
v -203.41755 97.54977 395.45383
v -187.50749 123.32719 572.56592
v -34.67806 28.83136 572.56592
v -50.58811 3.05394 395.45383
v -203.41755 97.54977 395.45383
v -187.50749 123.32719 572.56592
v -34.67806 28.83136 572.56592
v 39.06180 -29.24317 351.48525
v 27.27138 -216.34793 351.48525
v 5.99908 -215.02446 537.74566
v 17.78949 -27.91970 537.74566
v 39.06180 -29.24317 351.48525
v 27.27138 -216.34793 351.48525
v 5.99908 -215.02446 537.74566
v 17.78949 -27.91970 537.74566
v 38.38427 184.17404 682.82405
v -114.93204 30.36672 682.82405
v -117.91142 33.33187 899.95285
v 35.40489 187.13918 899.95285
v 38.38427 184.17404 682.82405
v -114.93204 30.36672 682.82405
v -117.91142 33.33187 899.95285
v 35.40489 187.13918 899.95285
v -123.57230 131.15535 658.30883
v -26.43511 32.81105 658.30883
v -34.42740 24.90429 796.07981
v -131.56459 123.24859 796.07981
v -123.57230 131.15535 658.30883
v -26.43511 32.81105 658.30883
v -34.42740 24.90429 796.07981
v -131.56459 123.24859 796.07981
v 105.37010 83.61230 558.86798
v -23.79755 238.46971 558.86798
v -4.94056 254.22394 759.02122
v 124.22708 99.36653 759.02122
v 105.37010 83.61230 558.86798
v -23.79755 238.46971 558.86798
v -4.94056 254.22394 759.02122
v 124.22708 99.36653 759.02122
v 56.17272 176.00632 460.10598
v -1.45529 -3.22487 460.10598
v 24.10536 -11.42090 646.45051
v 81.73337 167.81028 646.45051
v 56.17272 176.00632 460.10598
v -1.45529 -3.22487 460.10598
v 24.10536 -11.42090 646.45051
v 81.73337 167.81028 646.45051
v 95.73554 147.08429 471.55164
v 75.05324 -21.90303 471.55164
v 63.84707 -20.54057 641.42524
v 84.52937 148.44675 641.42524
v 95.73554 147.08429 471.55164
v 75.05324 -21.90303 471.55164
v 63.84707 -20.54057 641.42524
v 84.52937 148.44675 641.42524
v -44.64154 47.69222 518.12921
v 120.74990 53.37049 518.12921
v 120.40892 63.07691 683.33284
v -44.98252 57.39865 683.33284
v -44.64154 47.69222 518.12921
v 120.74990 53.37049 518.12921
v 120.40892 63.07691 683.33284
v -44.98252 57.39865 683.33284
v -5.34151 -66.71332 533.13252
v -71.95664 82.57259 533.13252
v -85.40098 76.56054 695.94210
v -18.78585 -72.72536 695.94210
v -5.34151 -66.71332 533.13252
v -71.95664 82.57259 533.13252
v -85.40098 76.56054 695.94210
v -18.78585 -72.72536 695.94210
v 63.88598 -13.25378 586.47996
v 2.55705 134.31228 586.47996
v 10.46554 137.60646 746.05309
v 71.79447 -9.95960 746.05309
v 63.88598 -13.25378 586.47996
v 2.55705 134.31228 586.47996
v 10.46554 137.60646 746.05309
v 71.79447 -9.95960 746.05309
v 121.75301 73.93381 471.59719
v 184.07012 -56.81214 471.59719
v 168.20290 -64.39041 615.36341
v 105.88578 66.35554 615.36341
v 121.75301 73.93381 471.59719
v 184.07012 -56.81214 471.59719
v 168.20290 -64.39041 615.36341
v 105.88578 66.35554 615.36341
v -72.42590 -213.07828 373.76621
v 22.35898 -54.54070 373.76621
v 11.57030 -48.10212 558.04993
v -83.21458 -206.63971 558.04993
v -72.42590 -213.07828 373.76621
v 22.35898 -54.54070 373.76621
v 11.57030 -48.10212 558.04993
v -83.21458 -206.63971 558.04993
v 82.17933 122.30385 555.36941
v 121.50564 -21.05524 555.36941
v 130.78066 -18.50297 703.71310
v 91.45434 124.85612 703.71310
v 82.17933 122.30385 555.36941
v 121.50564 -21.05524 555.36941
v 130.78066 -18.50297 703.71310
v 91.45434 124.85612 703.71310
v 14.97008 -136.54422 649.12232
v 57.33256 35.74800 649.12232
v 32.31947 41.87700 824.66711
v -10.04302 -130.41523 824.66711
v 14.97008 -136.54422 649.12232
v 57.33256 35.74800 649.12232
v 32.31947 41.87700 824.66711
v -10.04302 -130.41523 824.66711
v 90.07113 209.88292 395.32541
v -67.60671 100.01904 395.32541
v -68.61188 101.45923 587.49535
v 89.06595 211.32311 587.49535
v 90.07113 209.88292 395.32541
v -67.60671 100.01904 395.32541
v -68.61188 101.45923 587.49535
v 89.06595 211.32311 587.49535
v -46.27076 192.82818 366.25461
v 53.77192 -7.02663 366.25461
v 43.28055 -12.28882 589.44225
v -56.76214 187.56599 589.44225
v -46.27076 192.82818 366.25461
v 53.77192 -7.02663 366.25461
v 43.28055 -12.28882 589.44225
v -56.76214 187.56599 589.44225
v 92.65335 -97.50729 501.01381
v 69.96329 40.55225 501.01381
v 50.39103 37.31955 639.51202
v 73.08110 -100.73999 639.51202
v 92.65335 -97.50729 501.01381
v 69.96329 40.55225 501.01381
v 50.39103 37.31955 639.51202
v 73.08110 -100.73999 639.51202
v -149.01203 -20.60961 610.74022
v 14.49532 -110.49803 610.74022
v 20.30482 -99.91055 796.93565
v -143.20253 -10.02213 796.93565
v -149.01203 -20.60961 610.74022
v 14.49532 -110.49803 610.74022
v 20.30482 -99.91055 796.93565
v -143.20253 -10.02213 796.93565
v 17.32808 101.24841 553.02198
v -59.41248 -15.69216 553.02198
v -60.80621 -14.77913 692.88417
v 15.93435 102.16144 692.88417
v 17.32808 101.24841 553.02198
v -59.41248 -15.69216 553.02198
v -60.80621 -14.77913 692.88417
v 15.93435 102.16144 692.88417
v -23.38534 119.94991 590.64479
v -64.99637 -13.72195 590.64479
v -88.39536 -6.45845 728.48300
v -46.78433 127.21340 728.48300
v -23.38534 119.94991 590.64479
v -64.99637 -13.72195 590.64479
v -88.39536 -6.45845 728.48300
v -46.78433 127.21340 728.48300
v 101.54778 -130.49463 648.56124
v 106.93935 55.93505 648.56124
v 75.99070 56.80543 832.48111
v 70.59914 -129.62426 832.48111
v 101.54778 -130.49463 648.56124
v 106.93935 55.93505 648.56124
v 75.99070 56.80543 832.48111
v 70.59914 -129.62426 832.48111
v -86.25816 30.02659 569.43948
v 30.33989 -133.66260 569.43948
v 40.45159 -126.44775 770.02601
v -76.14646 37.24144 770.02601
v -86.25816 30.02659 569.43948
v 30.33989 -133.66260 569.43948
v 40.45159 -126.44775 770.02601
v -76.14646 37.24144 770.02601
v 30.57501 251.46378 494.21287
v 171.63294 135.65556 494.21287
v 191.30554 159.65633 674.06235
v 50.24761 275.46455 674.06235
v 30.57501 251.46378 494.21287
v 171.63294 135.65556 494.21287
v 191.30554 159.65633 674.06235
v 50.24761 275.46455 674.06235
v 41.70719 -22.03570 400.96843
v -69.99012 57.11453 400.96843
v -67.41212 60.75878 537.79358
v 44.28519 -18.39146 537.79358
v 41.70719 -22.03570 400.96843
v -69.99012 57.11453 400.96843
v -67.41212 60.75878 537.79358
v 44.28519 -18.39146 537.79358
v 272.68378 116.70542 547.81867
v 76.84002 156.01856 547.81867
v 81.91366 181.39830 745.88540
v 277.75742 142.08516 745.88540
v 272.68378 116.70542 547.81867
v 76.84002 156.01856 547.81867
v 81.91366 181.39830 745.88540
v 277.75742 142.08516 745.88540
v -123.27410 -108.10405 528.80717
v -123.26924 38.52670 528.80717
v -143.01677 38.51163 674.10209
v -143.02163 -108.11913 674.10209
v -123.27410 -108.10405 528.80717
v -123.26924 38.52670 528.80717
v -143.01677 38.51163 674.10209
v -143.02163 -108.11913 674.10209
v 8.07934 205.75901 321.93605
v -156.32617 122.41149 321.93605
v -142.50693 95.20636 503.71859
v 21.89857 178.55388 503.71859
v 8.07934 205.75901 321.93605
v -156.32617 122.41149 321.93605
v -142.50693 95.20636 503.71859
v 21.89857 178.55388 503.71859
v 89.31918 -41.18361 500.26482
v -45.84715 30.57297 500.26482
v -43.67926 34.66443 653.22725
v 91.48706 -37.09214 653.22725
v 89.31918 -41.18361 500.26482
v -45.84715 30.57297 500.26482
v -43.67926 34.66443 653.22725
v 91.48706 -37.09214 653.22725
v 3.27062 163.42172 697.96307
v 106.35729 -26.07771 697.96307
v 85.36845 -37.51720 912.35874
v -17.71822 151.98223 912.35874
v 3.27062 163.42172 697.96307
v 106.35729 -26.07771 697.96307
v 85.36845 -37.51720 912.35874
v -17.71822 151.98223 912.35874
v -159.08673 76.97663 616.52003
v 7.58981 80.80949 616.52003
v 7.42346 87.80090 783.09389
v -159.25307 83.96805 783.09389
v -159.08673 76.97663 616.52003
v 7.58981 80.80949 616.52003
v 7.42346 87.80090 783.09389
v -159.25307 83.96805 783.09389
v -81.77423 117.56365 477.14904
v -39.03544 -89.89873 477.14904
v -41.28824 -90.36469 688.95544
v -84.02703 117.09769 688.95544
v -81.77423 117.56365 477.14904
v -39.03544 -89.89873 477.14904
v -41.28824 -90.36469 688.95544
v -84.02703 117.09769 688.95544
v 29.62235 -45.12350 544.16624
v 82.20499 154.20099 544.16624
v 58.84786 160.34281 748.89022
v 6.26522 -38.98168 748.89022
v 29.62235 -45.12350 544.16624
v 82.20499 154.20099 544.16624
v 58.84786 160.34281 748.89022
v 6.26522 -38.98168 748.89022
v -182.89826 82.04967 574.39653
v -21.93843 -23.19918 574.39653
v -17.63900 -16.61250 766.55146
v -178.59883 88.63635 766.55146
v -182.89826 82.04967 574.39653
v -21.93843 -23.19918 574.39653
v -17.63900 -16.61250 766.55146
v -178.59883 88.63635 766.55146
v -118.93783 -34.00499 535.55233
v 12.58765 63.43173 535.55233
v 6.37045 71.81009 698.90476
v -125.15504 -25.62662 698.90476
v -118.93783 -34.00499 535.55233
v 12.58765 63.43173 535.55233
v 6.37045 71.81009 698.90476
v -125.15504 -25.62662 698.90476
v 67.02287 -62.32851 365.67464
v 194.51142 80.30629 365.67464
v 180.82351 92.52110 556.09905
v 53.33495 -50.11370 556.09905
v 67.02287 -62.32851 365.67464
v 194.51142 80.30629 365.67464
v 180.82351 92.52110 556.09905
v 53.33495 -50.11370 556.09905
v -102.48607 26.12310 518.96368
v -26.24150 -147.39990 518.96368
v -9.75391 -140.13972 707.64043
v -85.99849 33.38328 707.64043
v -102.48607 26.12310 518.96368
v -26.24150 -147.39990 518.96368
v -9.75391 -140.13972 707.64043
v -85.99849 33.38328 707.64043
v -193.26866 35.03600 519.41308
v -22.92536 8.29546 519.41308
v -20.73803 22.30201 691.25874
v -191.08134 49.04256 691.25874
v -193.26866 35.03600 519.41308
v -22.92536 8.29546 519.41308
v -20.73803 22.30201 691.25874
v -191.08134 49.04256 691.25874
v -209.18673 -32.42423 325.48122
v -112.37882 -229.54080 325.48122
v -88.73224 -217.90411 543.49990
v -185.54014 -20.78753 543.49990
v -209.18673 -32.42423 325.48122
v -112.37882 -229.54080 325.48122
v -88.73224 -217.90411 543.49990
v -185.54014 -20.78753 543.49990
v -54.43000 -200.75314 415.31549
v 67.51393 -16.11021 415.31549
v 56.14516 -8.61492 636.17269
v -65.79877 -193.25784 636.17269
v -54.43000 -200.75314 415.31549
v 67.51393 -16.11021 415.31549
v 56.14516 -8.61492 636.17269
v -65.79877 -193.25784 636.17269
v 151.93572 77.25317 542.22518
v 50.34441 -39.00441 542.22518
v 49.99791 -38.70211 696.61561
v 151.58922 77.55547 696.61561
v 151.93572 77.25317 542.22518
v 50.34441 -39.00441 542.22518
v 49.99791 -38.70211 696.61561
v 151.58922 77.55547 696.61561
v -18.15204 -16.68443 512.40602
v 123.69994 122.13711 512.40602
v 109.88040 136.23584 709.89943
v -31.97157 -2.58569 709.89943
v -18.15204 -16.68443 512.40602
v 123.69994 122.13711 512.40602
v 109.88040 136.23584 709.89943
v -31.97157 -2.58569 709.89943
v 129.44561 18.15981 402.61008
v -49.88481 -65.00845 402.61008
v -44.49723 -76.60115 599.87372
v 134.83319 6.56711 599.87372
v 129.44561 18.15981 402.61008
v -49.88481 -65.00845 402.61008
v -44.49723 -76.60115 599.87372
v 134.83319 6.56711 599.87372
v -115.39711 -9.28260 329.63094
v 38.49624 -107.53073 329.63094
v 34.67040 -113.53397 512.07321
v -119.22295 -15.28583 512.07321
v -115.39711 -9.28260 329.63094
v 38.49624 -107.53073 329.63094
v 34.67040 -113.53397 512.07321
v -119.22295 -15.28583 512.07321
v 75.93258 -188.72333 463.32789
v 54.94942 -12.51595 463.32789
v 71.49227 -10.53263 639.99632
v 92.47544 -186.74001 639.99632
v 75.93258 -188.72333 463.32789
v 54.94942 -12.51595 463.32789
v 71.49227 -10.53263 639.99632
v 92.47544 -186.74001 639.99632
v -128.98463 -71.36135 479.28780
v -85.08510 72.65676 479.28780
v -99.77190 77.12080 629.06348
v -143.67142 -66.89731 629.06348
v -128.98463 -71.36135 479.28780
v -85.08510 72.65676 479.28780
v -99.77190 77.12080 629.06348
v -143.67142 -66.89731 629.06348
v -22.04501 -124.07902 610.87333
v -199.15537 -11.35657 610.87333
v -209.67667 -27.91682 819.89364
v -32.56631 -140.63927 819.89364
v -22.04501 -124.07902 610.87333
v -199.15537 -11.35657 610.87333
v -209.67667 -27.91682 819.89364
v -32.56631 -140.63927 819.89364
v -4.24272 -100.31637 530.27151
v -1.48541 122.03089 530.27151
v -19.02555 122.23443 751.94291
v -21.78285 -100.11282 751.94291
v -4.24272 -100.31637 530.27151
v -1.48541 122.03089 530.27151
v -19.02555 122.23443 751.94291
v -21.78285 -100.11282 751.94291
v -208.90553 -1.70948 410.89156
v -10.10969 61.05670 410.89156
v -16.37881 80.85760 618.32348
v -215.17465 18.09143 618.32348
v -208.90553 -1.70948 410.89156
v -10.10969 61.05670 410.89156
v -16.37881 80.85760 618.32348
v -215.17465 18.09143 618.32348
v 63.16885 -94.44696 411.00610
v 117.84309 62.74836 411.00610
v 101.19986 68.52220 576.50325
v 46.52561 -88.67312 576.50325
v 63.16885 -94.44696 411.00610
v 117.84309 62.74836 411.00610
v 101.19986 68.52220 576.50325
v 46.52561 -88.67312 576.50325
v -119.48104 -1.47163 362.14324
v 86.49605 -17.74368 362.14324
v 89.15053 16.20196 565.93722
v -116.82656 32.47401 565.93722
v -119.48104 -1.47163 362.14324
v 86.49605 -17.74368 362.14324
v 89.15053 16.20196 565.93722
v -116.82656 32.47401 565.93722
v -103.03384 30.79282 548.51414
v -83.00924 169.57429 548.51414
v -63.12857 166.72190 687.28699
v -83.15317 27.94043 687.28699
v -103.03384 30.79282 548.51414
v -83.00924 169.57429 548.51414
v -63.12857 166.72190 687.28699
v -83.15317 27.94043 687.28699
v -15.00767 89.80340 412.82908
v -166.14769 195.04910 412.82908
v -153.54785 213.17410 595.67517
v -2.40783 107.92840 595.67517
v -15.00767 89.80340 412.82908
v -166.14769 195.04910 412.82908
v -153.54785 213.17410 595.67517
v -2.40783 107.92840 595.67517
v -159.40435 162.35521 475.06308
v -44.03623 -16.85437 475.06308
v -53.92593 -23.23212 687.87144
v -169.29405 155.97746 687.87144
v -159.40435 162.35521 475.06308
v -44.03623 -16.85437 475.06308
v -53.92593 -23.23212 687.87144
v -169.29405 155.97746 687.87144
v -38.36861 37.94279 612.45922
v 122.95085 43.82962 612.45922
v 123.68689 24.09097 772.67303
v -37.63257 18.20414 772.67303
v -38.36861 37.94279 612.45922
v 122.95085 43.82962 612.45922
v 123.68689 24.09097 772.67303
v -37.63257 18.20414 772.67303
v -157.00594 -31.43116 555.44195
v -34.92502 64.81577 555.44195
v -20.16165 46.12036 709.06404
v -142.24257 -50.12657 709.06404
v -157.00594 -31.43116 555.44195
v -34.92502 64.81577 555.44195
v -20.16165 46.12036 709.06404
v -142.24257 -50.12657 709.06404
v -48.76724 -28.98166 463.19576
v 116.21544 30.76972 463.19576
v 112.09827 42.10965 638.24995
v -52.88442 -17.64173 638.24995
v -48.76724 -28.98166 463.19576
v 116.21544 30.76972 463.19576
v 112.09827 42.10965 638.24995
v -52.88442 -17.64173 638.24995
v -62.38410 93.96350 435.97276
v -240.56159 -3.90477 435.97276
v -226.19007 -30.02003 637.06196
v -48.01258 67.84824 637.06196
v -62.38410 93.96350 435.97276
v -240.56159 -3.90477 435.97276
v -226.19007 -30.02003 637.06196
v -48.01258 67.84824 637.06196
v -93.46299 163.80971 402.67454
v -62.98193 -30.19093 402.67454
v -90.29733 -34.50497 597.09830
v -120.77839 159.49567 597.09830
v -93.46299 163.80971 402.67454
v -62.98193 -30.19093 402.67454
v -90.29733 -34.50497 597.09830
v -120.77839 159.49567 597.09830
v 37.43294 198.97605 520.34486
v -75.87596 15.90281 520.34486
v -47.01833 -1.92617 732.95737
v 66.29057 181.14706 732.95737
v 37.43294 198.97605 520.34486
v -75.87596 15.90281 520.34486
v -47.01833 -1.92617 732.95737
v 66.29057 181.14706 732.95737
vt 0.00000 2.00000
vt 2.00000 2.00000
vt 2.00000 0.00000
vt 0.00000 0.00000
vt 0.00000 2.00000
vt 2.00000 2.00000
vt 2.00000 0.00000
vt 0.00000 0.00000
vt 0.00000 2.00000
vt 2.00000 2.00000
vt 2.00000 0.00000
vt 0.00000 0.00000
vt 0.00000 2.00000
vt 2.00000 2.00000
vt 2.00000 0.00000
vt 0.00000 0.00000
vt 0.00000 2.00000
vt 2.00000 2.00000
vt 2.00000 0.00000
vt 0.00000 0.00000
vt 0.00000 2.00000
vt 2.00000 2.00000
vt 2.00000 0.00000
vt 0.00000 0.00000
vt 0.00000 2.00000
vt 2.00000 2.00000
vt 2.00000 0.00000
vt 0.00000 0.00000
vt 0.00000 2.00000
vt 2.00000 2.00000
vt 2.00000 0.00000
vt 0.00000 0.00000
vt 0.00000 2.00000
vt 2.00000 2.00000
vt 2.00000 0.00000
vt 0.00000 0.00000
vt 0.00000 2.00000
vt 2.00000 2.00000
vt 2.00000 0.00000
vt 0.00000 0.00000
vt 0.00000 2.00000
vt 2.00000 2.00000
vt 2.00000 0.00000
vt 0.00000 0.00000
vt 0.00000 2.00000
vt 2.00000 2.00000
vt 2.00000 0.00000
vt 0.00000 0.00000
vt 0.00000 2.00000
vt 2.00000 2.00000
vt 2.00000 0.00000
vt 0.00000 0.00000
vt 0.00000 2.00000
vt 2.00000 2.00000
vt 2.00000 0.00000
vt 0.00000 0.00000
vt 0.00000 2.00000
vt 2.00000 2.00000
vt 2.00000 0.00000
vt 0.00000 0.00000
vt 0.00000 2.00000
vt 2.00000 2.00000
vt 2.00000 0.00000
vt 0.00000 0.00000
vt 0.00000 2.00000
vt 2.00000 2.00000
vt 2.00000 0.00000
vt 0.00000 0.00000
vt 0.00000 2.00000
vt 2.00000 2.00000
vt 2.00000 0.00000
vt 0.00000 0.00000
vt 0.00000 2.00000
vt 2.00000 2.00000
vt 2.00000 0.00000
vt 0.00000 0.00000
vt 0.00000 2.00000
vt 2.00000 2.00000
vt 2.00000 0.00000
vt 0.00000 0.00000
vt 0.00000 2.00000
vt 2.00000 2.00000
vt 2.00000 0.00000
vt 0.00000 0.00000
vt 0.00000 2.00000
vt 2.00000 2.00000
vt 2.00000 0.00000
vt 0.00000 0.00000
vt 0.00000 2.00000
vt 2.00000 2.00000
vt 2.00000 0.00000
vt 0.00000 0.00000
vt 0.00000 2.00000
vt 2.00000 2.00000
vt 2.00000 0.00000
vt 0.00000 0.00000
vt 0.00000 2.00000
vt 2.00000 2.00000
vt 2.00000 0.00000
vt 0.00000 0.00000
vt 0.00000 2.00000
vt 2.00000 2.00000
vt 2.00000 0.00000
vt 0.00000 0.00000
vt 0.00000 2.00000
vt 2.00000 2.00000
vt 2.00000 0.00000
vt 0.00000 0.00000
vt 0.00000 2.00000
vt 2.00000 2.00000
vt 2.00000 0.00000
vt 0.00000 0.00000
vt 0.00000 2.00000
vt 2.00000 2.00000
vt 2.00000 0.00000
vt 0.00000 0.00000
vt 0.00000 2.00000
vt 2.00000 2.00000
vt 2.00000 0.00000
vt 0.00000 0.00000
vt 0.00000 2.00000
vt 2.00000 2.00000
vt 2.00000 0.00000
vt 0.00000 0.00000
vt 0.00000 2.00000
vt 2.00000 2.00000
vt 2.00000 0.00000
vt 0.00000 0.00000
vt 0.00000 2.00000
vt 2.00000 2.00000
vt 2.00000 0.00000
vt 0.00000 0.00000
vt 0.00000 2.00000
vt 2.00000 2.00000
vt 2.00000 0.00000
vt 0.00000 0.00000
vt 0.00000 2.00000
vt 2.00000 2.00000
vt 2.00000 0.00000
vt 0.00000 0.00000
vt 0.00000 2.00000
vt 2.00000 2.00000
vt 2.00000 0.00000
vt 0.00000 0.00000
vt 0.00000 2.00000
vt 2.00000 2.00000
vt 2.00000 0.00000
vt 0.00000 0.00000
vt 0.00000 2.00000
vt 2.00000 2.00000
vt 2.00000 0.00000
vt 0.00000 0.00000
vt 0.00000 2.00000
vt 2.00000 2.00000
vt 2.00000 0.00000
vt 0.00000 0.00000
vt 0.00000 2.00000
vt 2.00000 2.00000
vt 2.00000 0.00000
vt 0.00000 0.00000
vt 0.00000 2.00000
vt 2.00000 2.00000
vt 2.00000 0.00000
vt 0.00000 0.00000
vt 0.00000 2.00000
vt 2.00000 2.00000
vt 2.00000 0.00000
vt 0.00000 0.00000
vt 0.00000 2.00000
vt 2.00000 2.00000
vt 2.00000 0.00000
vt 0.00000 0.00000
vt 0.00000 2.00000
vt 2.00000 2.00000
vt 2.00000 0.00000
vt 0.00000 0.00000
vt 0.00000 2.00000
vt 2.00000 2.00000
vt 2.00000 0.00000
vt 0.00000 0.00000
vt 0.00000 2.00000
vt 2.00000 2.00000
vt 2.00000 0.00000
vt 0.00000 0.00000
vt 0.00000 2.00000
vt 2.00000 2.00000
vt 2.00000 0.00000
vt 0.00000 0.00000
vt 0.00000 2.00000
vt 2.00000 2.00000
vt 2.00000 0.00000
vt 0.00000 0.00000
vt 0.00000 2.00000
vt 2.00000 2.00000
vt 2.00000 0.00000
vt 0.00000 0.00000
vt 0.00000 2.00000
vt 2.00000 2.00000
vt 2.00000 0.00000
vt 0.00000 0.00000
vt 0.00000 2.00000
vt 2.00000 2.00000
vt 2.00000 0.00000
vt 0.00000 0.00000
vt 0.00000 2.00000
vt 2.00000 2.00000
vt 2.00000 0.00000
vt 0.00000 0.00000
vt 0.00000 2.00000
vt 2.00000 2.00000
vt 2.00000 0.00000
vt 0.00000 0.00000
vt 0.00000 2.00000
vt 2.00000 2.00000
vt 2.00000 0.00000
vt 0.00000 0.00000
vt 0.00000 2.00000
vt 2.00000 2.00000
vt 2.00000 0.00000
vt 0.00000 0.00000
vt 0.00000 2.00000
vt 2.00000 2.00000
vt 2.00000 0.00000
vt 0.00000 0.00000
vt 0.00000 2.00000
vt 2.00000 2.00000
vt 2.00000 0.00000
vt 0.00000 0.00000
vt 0.00000 2.00000
vt 2.00000 2.00000
vt 2.00000 0.00000
vt 0.00000 0.00000
vt 0.00000 2.00000
vt 2.00000 2.00000
vt 2.00000 0.00000
vt 0.00000 0.00000
vt 0.00000 2.00000
vt 2.00000 2.00000
vt 2.00000 0.00000
vt 0.00000 0.00000
vt 0.00000 2.00000
vt 2.00000 2.00000
vt 2.00000 0.00000
vt 0.00000 0.00000
vt 0.00000 2.00000
vt 2.00000 2.00000
vt 2.00000 0.00000
vt 0.00000 0.00000
vt 0.00000 2.00000
vt 2.00000 2.00000
vt 2.00000 0.00000
vt 0.00000 0.00000
vt 0.00000 2.00000
vt 2.00000 2.00000
vt 2.00000 0.00000
vt 0.00000 0.00000
vt 0.00000 2.00000
vt 2.00000 2.00000
vt 2.00000 0.00000
vt 0.00000 0.00000
vt 0.00000 2.00000
vt 2.00000 2.00000
vt 2.00000 0.00000
vt 0.00000 0.00000
vt 0.00000 2.00000
vt 2.00000 2.00000
vt 2.00000 0.00000
vt 0.00000 0.00000
vt 0.00000 2.00000
vt 2.00000 2.00000
vt 2.00000 0.00000
vt 0.00000 0.00000
vt 0.00000 2.00000
vt 2.00000 2.00000
vt 2.00000 0.00000
vt 0.00000 0.00000
vt 0.00000 2.00000
vt 2.00000 2.00000
vt 2.00000 0.00000
vt 0.00000 0.00000
vt 0.00000 2.00000
vt 2.00000 2.00000
vt 2.00000 0.00000
vt 0.00000 0.00000
vt 0.00000 2.00000
vt 2.00000 2.00000
vt 2.00000 0.00000
vt 0.00000 0.00000
vt 0.00000 2.00000
vt 2.00000 2.00000
vt 2.00000 0.00000
vt 0.00000 0.00000
vt 0.00000 2.00000
vt 2.00000 2.00000
vt 2.00000 0.00000
vt 0.00000 0.00000
vt 0.00000 2.00000
vt 2.00000 2.00000
vt 2.00000 0.00000
vt 0.00000 0.00000
vt 0.00000 2.00000
vt 2.00000 2.00000
vt 2.00000 0.00000
vt 0.00000 0.00000
vt 0.00000 2.00000
vt 2.00000 2.00000
vt 2.00000 0.00000
vt 0.00000 0.00000
vt 0.00000 2.00000
vt 2.00000 2.00000
vt 2.00000 0.00000
vt 0.00000 0.00000
vt 0.00000 2.00000
vt 2.00000 2.00000
vt 2.00000 0.00000
vt 0.00000 0.00000
vt 0.00000 2.00000
vt 2.00000 2.00000
vt 2.00000 0.00000
vt 0.00000 0.00000
vt 0.00000 2.00000
vt 2.00000 2.00000
vt 2.00000 0.00000
vt 0.00000 0.00000
vt 0.00000 2.00000
vt 2.00000 2.00000
vt 2.00000 0.00000
vt 0.00000 0.00000
vt 0.00000 2.00000
vt 2.00000 2.00000
vt 2.00000 0.00000
vt 0.00000 0.00000
vt 0.00000 2.00000
vt 2.00000 2.00000
vt 2.00000 0.00000
vt 0.00000 0.00000
vt 0.00000 2.00000
vt 2.00000 2.00000
vt 2.00000 0.00000
vt 0.00000 0.00000
vt 0.00000 2.00000
vt 2.00000 2.00000
vt 2.00000 0.00000
vt 0.00000 0.00000
vt 0.00000 2.00000
vt 2.00000 2.00000
vt 2.00000 0.00000
vt 0.00000 0.00000
vt 0.00000 2.00000
vt 2.00000 2.00000
vt 2.00000 0.00000
vt 0.00000 0.00000
vt 0.00000 2.00000
vt 2.00000 2.00000
vt 2.00000 0.00000
vt 0.00000 0.00000
vt 0.00000 2.00000
vt 2.00000 2.00000
vt 2.00000 0.00000
vt 0.00000 0.00000
vt 0.00000 2.00000
vt 2.00000 2.00000
vt 2.00000 0.00000
vt 0.00000 0.00000
vt 0.00000 2.00000
vt 2.00000 2.00000
vt 2.00000 0.00000
vt 0.00000 0.00000
vt 0.00000 2.00000
vt 2.00000 2.00000
vt 2.00000 0.00000
vt 0.00000 0.00000
vt 0.00000 2.00000
vt 2.00000 2.00000
vt 2.00000 0.00000
vt 0.00000 0.00000
vt 0.00000 2.00000
vt 2.00000 2.00000
vt 2.00000 0.00000
vt 0.00000 0.00000
vt 0.00000 2.00000
vt 2.00000 2.00000
vt 2.00000 0.00000
vt 0.00000 0.00000
vt 0.00000 2.00000
vt 2.00000 2.00000
vt 2.00000 0.00000
vt 0.00000 0.00000
vt 0.00000 2.00000
vt 2.00000 2.00000
vt 2.00000 0.00000
vt 0.00000 0.00000
vt 0.00000 2.00000
vt 2.00000 2.00000
vt 2.00000 0.00000
vt 0.00000 0.00000
vt 0.00000 2.00000
vt 2.00000 2.00000
vt 2.00000 0.00000
vt 0.00000 0.00000
vt 0.00000 2.00000
vt 2.00000 2.00000
vt 2.00000 0.00000
vt 0.00000 0.00000
vt 0.00000 2.00000
vt 2.00000 2.00000
vt 2.00000 0.00000
vt 0.00000 0.00000
vt 0.00000 2.00000
vt 2.00000 2.00000
vt 2.00000 0.00000
vt 0.00000 0.00000
vt 0.00000 2.00000
vt 2.00000 2.00000
vt 2.00000 0.00000
vt 0.00000 0.00000
vt 0.00000 2.00000
vt 2.00000 2.00000
vt 2.00000 0.00000
vt 0.00000 0.00000
vt 0.00000 2.00000
vt 2.00000 2.00000
vt 2.00000 0.00000
vt 0.00000 0.00000
vt 0.00000 2.00000
vt 2.00000 2.00000
vt 2.00000 0.00000
vt 0.00000 0.00000
vt 0.00000 2.00000
vt 2.00000 2.00000
vt 2.00000 0.00000
vt 0.00000 0.00000
vt 0.00000 2.00000
vt 2.00000 2.00000
vt 2.00000 0.00000
vt 0.00000 0.00000
vt 0.00000 2.00000
vt 2.00000 2.00000
vt 2.00000 0.00000
vt 0.00000 0.00000
vt 0.00000 2.00000
vt 2.00000 2.00000
vt 2.00000 0.00000
vt 0.00000 0.00000
vt 0.00000 2.00000
vt 2.00000 2.00000
vt 2.00000 0.00000
vt 0.00000 0.00000
vt 0.00000 2.00000
vt 2.00000 2.00000
vt 2.00000 0.00000
vt 0.00000 0.00000
vt 0.00000 2.00000
vt 2.00000 2.00000
vt 2.00000 0.00000
vt 0.00000 0.00000
vt 0.00000 2.00000
vt 2.00000 2.00000
vt 2.00000 0.00000
vt 0.00000 0.00000
vt 0.00000 2.00000
vt 2.00000 2.00000
vt 2.00000 0.00000
vt 0.00000 0.00000
vt 0.00000 2.00000
vt 2.00000 2.00000
vt 2.00000 0.00000
vt 0.00000 0.00000
vt 0.00000 2.00000
vt 2.00000 2.00000
vt 2.00000 0.00000
vt 0.00000 0.00000
vt 0.00000 2.00000
vt 2.00000 2.00000
vt 2.00000 0.00000
vt 0.00000 0.00000
vt 0.00000 2.00000
vt 2.00000 2.00000
vt 2.00000 0.00000
vt 0.00000 0.00000
vt 0.00000 2.00000
vt 2.00000 2.00000
vt 2.00000 0.00000
vt 0.00000 0.00000
vt 0.00000 2.00000
vt 2.00000 2.00000
vt 2.00000 0.00000
vt 0.00000 0.00000
vt 0.00000 2.00000
vt 2.00000 2.00000
vt 2.00000 0.00000
vt 0.00000 0.00000
vt 0.00000 2.00000
vt 2.00000 2.00000
vt 2.00000 0.00000
vt 0.00000 0.00000
vt 0.00000 2.00000
vt 2.00000 2.00000
vt 2.00000 0.00000
vt 0.00000 0.00000
vt 0.00000 2.00000
vt 2.00000 2.00000
vt 2.00000 0.00000
vt 0.00000 0.00000
vt 0.00000 2.00000
vt 2.00000 2.00000
vt 2.00000 0.00000
vt 0.00000 0.00000
vt 0.00000 2.00000
vt 2.00000 2.00000
vt 2.00000 0.00000
vt 0.00000 0.00000
vt 0.00000 2.00000
vt 2.00000 2.00000
vt 2.00000 0.00000
vt 0.00000 0.00000
vt 0.00000 2.00000
vt 2.00000 2.00000
vt 2.00000 0.00000
vt 0.00000 0.00000
vt 0.00000 2.00000
vt 2.00000 2.00000
vt 2.00000 0.00000
vt 0.00000 0.00000
vt 0.00000 2.00000
vt 2.00000 2.00000
vt 2.00000 0.00000
vt 0.00000 0.00000
vt 0.00000 2.00000
vt 2.00000 2.00000
vt 2.00000 0.00000
vt 0.00000 0.00000
vt 0.00000 2.00000
vt 2.00000 2.00000
vt 2.00000 0.00000
vt 0.00000 0.00000
vt 0.00000 2.00000
vt 2.00000 2.00000
vt 2.00000 0.00000
vt 0.00000 0.00000
vt 0.00000 2.00000
vt 2.00000 2.00000
vt 2.00000 0.00000
vt 0.00000 0.00000
vt 0.00000 2.00000
vt 2.00000 2.00000
vt 2.00000 0.00000
vt 0.00000 0.00000
vt 0.00000 2.00000
vt 2.00000 2.00000
vt 2.00000 0.00000
vt 0.00000 0.00000
vt 0.00000 2.00000
vt 2.00000 2.00000
vt 2.00000 0.00000
vt 0.00000 0.00000
vt 0.00000 2.00000
vt 2.00000 2.00000
vt 2.00000 0.00000
vt 0.00000 0.00000
vn 0.6655 -0.7371 -0.1179
vn -0.6655 0.7371 0.1179
vn 0.9844 0.0109 0.1756
vn -0.9844 -0.0109 -0.1756
vn -0.7514 -0.6469 0.1301
vn 0.7514 0.6469 -0.1301
vn -0.9378 0.3460 0.0279
vn 0.9378 -0.3460 -0.0279
vn 0.9401 0.3034 0.1557
vn -0.9401 -0.3034 -0.1557
vn 0.9376 0.3379 0.0817
vn -0.9376 -0.3379 -0.0817
vn -0.9459 0.3170 0.0688
vn 0.9459 -0.3170 -0.0688
vn -0.3309 -0.9395 -0.0887
vn 0.3309 0.9395 0.0887
vn -0.3406 0.9292 0.1436
vn 0.3406 -0.9292 -0.1436
vn -0.2162 0.9741 0.0662
vn 0.2162 -0.9741 -0.0662
vn -0.8121 0.5779 -0.0812
vn 0.8121 -0.5779 0.0812
vn -0.5184 -0.8384 0.1686
vn 0.5184 0.8384 -0.1686
vn 0.9915 -0.0625 0.1137
vn -0.9915 0.0625 -0.1137
vn 0.7081 -0.7058 0.0194
vn -0.7081 0.7058 -0.0194
vn 0.7091 0.7004 0.0813
vn -0.7091 -0.7004 -0.0813
vn -0.7622 -0.6358 0.1219
vn 0.7622 0.6358 -0.1219
vn 0.9423 -0.3030 -0.1426
vn -0.9423 0.3030 0.1426
vn 0.9904 -0.1212 0.0663
vn -0.9904 0.1212 -0.0663
vn -0.0343 0.9977 -0.0587
vn 0.0343 -0.9977 0.0587
vn -0.9095 -0.4058 -0.0901
vn 0.9095 0.4058 0.0901
vn -0.9221 -0.3832 0.0536
vn 0.9221 0.3832 -0.0536
vn 0.8960 0.4271 0.1214
vn -0.8960 -0.4271 -0.1214
vn -0.8563 0.5120 -0.0680
vn 0.8563 -0.5120 0.0680
vn 0.9624 0.2640 -0.0647
vn -0.9624 -0.2640 0.0647
vn -0.9608 0.2362 -0.1451
vn 0.9608 -0.2362 0.1451
vn 0.5717 -0.8204 0.0091
vn -0.5717 0.8204 -0.0091
vn 0.8930 0.4470 0.0525
vn -0.8930 -0.4470 -0.0525
vn -0.9768 -0.1605 -0.1418
vn 0.9768 0.1605 0.1418
vn 0.4807 0.8745 -0.0647
vn -0.4807 -0.8745 0.0647
vn 0.8360 -0.5486 0.0119
vn -0.8360 0.5486 -0.0119
vn 0.9401 -0.2926 0.1750
vn -0.9401 0.2926 -0.1750
vn -0.9857 0.0285 -0.1660
vn 0.9857 -0.0285 0.1660
vn 0.8129 0.5791 -0.0618
vn -0.8129 -0.5791 0.0618
vn 0.6253 0.7616 -0.1700
vn -0.6253 -0.7616 0.1700
vn -0.5779 -0.8155 0.0326
vn 0.5779 0.8155 -0.0326
vn -0.1952 -0.9722 0.1296
vn 0.1952 0.9722 -0.1296
vn -0.9909 0.0000 -0.1347
vn 0.9909 -0.0000 0.1347
vn 0.4459 -0.8796 -0.1655
vn -0.4459 0.8796 0.1655
vn -0.4687 -0.8828 0.0303
vn 0.4687 0.8828 -0.0303
vn 0.8730 0.4749 0.1108
vn -0.8730 -0.4749 -0.1108
vn -0.0230 0.9989 -0.0419
vn 0.0230 -0.9989 0.0419
vn 0.9794 0.2018 0.0109
vn -0.9794 -0.2018 -0.0109
vn -0.9603 0.2533 -0.1172
vn 0.9603 -0.2533 0.1172
vn 0.5468 0.8363 -0.0409
vn -0.5468 -0.8363 0.0409
vn -0.5941 0.8019 -0.0637
vn 0.5941 -0.8019 0.0637
vn -0.7421 0.6633 -0.0959
vn 0.7421 -0.6633 0.0959
vn 0.9114 0.4005 -0.0950
vn -0.9114 -0.4005 0.0950
vn 0.1546 0.9846 -0.0822
vn -0.1546 -0.9846 0.0822
vn 0.8911 0.4376 -0.1200
vn -0.8911 -0.4376 0.1200
vn -0.8329 0.5500 -0.0615
vn 0.8329 -0.5500 0.0615
vn 0.7530 -0.6580 0.0030
vn -0.7530 0.6580 -0.0030
vn -0.6960 0.7112 -0.0995
vn 0.6960 -0.7112 0.0995
vn 0.4198 -0.9053 -0.0647
vn -0.4198 0.9053 0.0647
vn 0.5377 0.8422 0.0390
vn -0.5377 -0.8422 -0.0390
vn -0.9886 -0.1177 0.0939
vn 0.9886 0.1177 -0.0939
vn -0.9516 0.2901 -0.1020
vn 0.9516 -0.2901 0.1020
vn -0.5346 -0.8399 -0.0935
vn 0.5346 0.8399 0.0935
vn -0.9968 0.0124 -0.0789
vn 0.9968 -0.0124 0.0789
vn -0.2996 0.9489 -0.0996
vn 0.2996 -0.9489 0.0996
vn -0.9392 0.3267 -0.1058
vn 0.9392 -0.3267 0.1058
vn 0.0777 0.9833 -0.1648
vn -0.0777 -0.9833 0.1648
vn -0.9795 0.1413 0.1432
vn 0.9795 -0.1413 -0.1432
vn -0.5673 -0.8147 0.1199
vn 0.5673 0.8147 -0.1199
vn 0.8396 0.5405 0.0552
vn -0.8396 -0.5405 -0.0552
vn -0.0362 0.9918 0.1224
vn 0.0362 -0.9918 -0.1224
vn -0.6118 0.7760 0.1532
vn 0.6118 -0.7760 -0.1532
vn -0.3397 0.9380 -0.0688
vn 0.3397 -0.9380 0.0688
vn 0.4762 -0.8670 -0.1466
vn -0.4762 0.8670 0.1466
vn 0.9780 0.1537 0.1408
vn -0.9780 -0.1537 -0.1408
vn 0.8397 -0.5197 -0.1576
vn -0.8397 0.5197 0.1576
f 1/1/1 3/3/1 2/2/1
f 1/1/1 4/4/1 3/3/1
f 5/5/2 7/7/2 8/8/2
f 5/5/2 6/6/2 7/7/2
f 9/9/3 11/11/3 10/10/3
f 9/9/3 12/12/3 11/11/3
f 13/13/4 15/15/4 16/16/4
f 13/13/4 14/14/4 15/15/4
f 17/17/5 19/19/5 18/18/5
f 17/17/5 20/20/5 19/19/5
f 21/21/6 23/23/6 24/24/6
f 21/21/6 22/22/6 23/23/6
f 25/25/7 27/27/7 26/26/7
f 25/25/7 28/28/7 27/27/7
f 29/29/8 31/31/8 32/32/8
f 29/29/8 30/30/8 31/31/8
f 33/33/9 35/35/9 34/34/9
f 33/33/9 36/36/9 35/35/9
f 37/37/10 39/39/10 40/40/10
f 37/37/10 38/38/10 39/39/10
f 41/41/11 43/43/11 42/42/11
f 41/41/11 44/44/11 43/43/11
f 45/45/12 47/47/12 48/48/12
f 45/45/12 46/46/12 47/47/12
f 49/49/13 51/51/13 50/50/13
f 49/49/13 52/52/13 51/51/13
f 53/53/14 55/55/14 56/56/14
f 53/53/14 54/54/14 55/55/14
f 57/57/15 59/59/15 58/58/15
f 57/57/15 60/60/15 59/59/15
f 61/61/16 63/63/16 64/64/16
f 61/61/16 62/62/16 63/63/16
f 65/65/17 67/67/17 66/66/17
f 65/65/17 68/68/17 67/67/17
f 69/69/18 71/71/18 72/72/18
f 69/69/18 70/70/18 71/71/18
f 73/73/19 75/75/19 74/74/19
f 73/73/19 76/76/19 75/75/19
f 77/77/20 79/79/20 80/80/20
f 77/77/20 78/78/20 79/79/20
f 81/81/21 83/83/21 82/82/21
f 81/81/21 84/84/21 83/83/21
f 85/85/22 87/87/22 88/88/22
f 85/85/22 86/86/22 87/87/22
f 89/89/23 91/91/23 90/90/23
f 89/89/23 92/92/23 91/91/23
f 93/93/24 95/95/24 96/96/24
f 93/93/24 94/94/24 95/95/24
f 97/97/25 99/99/25 98/98/25
f 97/97/25 100/100/25 99/99/25
f 101/101/26 103/103/26 104/104/26
f 101/101/26 102/102/26 103/103/26
f 105/105/27 107/107/27 106/106/27
f 105/105/27 108/108/27 107/107/27
f 109/109/28 111/111/28 112/112/28
f 109/109/28 110/110/28 111/111/28
f 113/113/29 115/115/29 114/114/29
f 113/113/29 116/116/29 115/115/29
f 117/117/30 119/119/30 120/120/30
f 117/117/30 118/118/30 119/119/30
f 121/121/31 123/123/31 122/122/31
f 121/121/31 124/124/31 123/123/31
f 125/125/32 127/127/32 128/128/32
f 125/125/32 126/126/32 127/127/32
f 129/129/33 131/131/33 130/130/33
f 129/129/33 132/132/33 131/131/33
f 133/133/34 135/135/34 136/136/34
f 133/133/34 134/134/34 135/135/34
f 137/137/35 139/139/35 138/138/35
f 137/137/35 140/140/35 139/139/35
f 141/141/36 143/143/36 144/144/36
f 141/141/36 142/142/36 143/143/36
f 145/145/37 147/147/37 146/146/37
f 145/145/37 148/148/37 147/147/37
f 149/149/38 151/151/38 152/152/38
f 149/149/38 150/150/38 151/151/38
f 153/153/39 155/155/39 154/154/39
f 153/153/39 156/156/39 155/155/39
f 157/157/40 159/159/40 160/160/40
f 157/157/40 158/158/40 159/159/40
f 161/161/41 163/163/41 162/162/41
f 161/161/41 164/164/41 163/163/41
f 165/165/42 167/167/42 168/168/42
f 165/165/42 166/166/42 167/167/42
f 169/169/43 171/171/43 170/170/43
f 169/169/43 172/172/43 171/171/43
f 173/173/44 175/175/44 176/176/44
f 173/173/44 174/174/44 175/175/44
f 177/177/45 179/179/45 178/178/45
f 177/177/45 180/180/45 179/179/45
f 181/181/46 183/183/46 184/184/46
f 181/181/46 182/182/46 183/183/46
f 185/185/47 187/187/47 186/186/47
f 185/185/47 188/188/47 187/187/47
f 189/189/48 191/191/48 192/192/48
f 189/189/48 190/190/48 191/191/48
f 193/193/49 195/195/49 194/194/49
f 193/193/49 196/196/49 195/195/49
f 197/197/50 199/199/50 200/200/50
f 197/197/50 198/198/50 199/199/50
f 201/201/51 203/203/51 202/202/51
f 201/201/51 204/204/51 203/203/51
f 205/205/52 207/207/52 208/208/52
f 205/205/52 206/206/52 207/207/52
f 209/209/53 211/211/53 210/210/53
f 209/209/53 212/212/53 211/211/53
f 213/213/54 215/215/54 216/216/54
f 213/213/54 214/214/54 215/215/54
f 217/217/55 219/219/55 218/218/55
f 217/217/55 220/220/55 219/219/55
f 221/221/56 223/223/56 224/224/56
f 221/221/56 222/222/56 223/223/56
f 225/225/57 227/227/57 226/226/57
f 225/225/57 228/228/57 227/227/57
f 229/229/58 231/231/58 232/232/58
f 229/229/58 230/230/58 231/231/58
f 233/233/59 235/235/59 234/234/59
f 233/233/59 236/236/59 235/235/59
f 237/237/60 239/239/60 240/240/60
f 237/237/60 238/238/60 239/239/60
f 241/241/61 243/243/61 242/242/61
f 241/241/61 244/244/61 243/243/61
f 245/245/62 247/247/62 248/248/62
f 245/245/62 246/246/62 247/247/62
f 249/249/63 251/251/63 250/250/63
f 249/249/63 252/252/63 251/251/63
f 253/253/64 255/255/64 256/256/64
f 253/253/64 254/254/64 255/255/64
f 257/257/65 259/259/65 258/258/65
f 257/257/65 260/260/65 259/259/65
f 261/261/66 263/263/66 264/264/66
f 261/261/66 262/262/66 263/263/66
f 265/265/67 267/267/67 266/266/67
f 265/265/67 268/268/67 267/267/67
f 269/269/68 271/271/68 272/272/68
f 269/269/68 270/270/68 271/271/68
f 273/273/69 275/275/69 274/274/69
f 273/273/69 276/276/69 275/275/69
f 277/277/70 279/279/70 280/280/70
f 277/277/70 278/278/70 279/279/70
f 281/281/71 283/283/71 282/282/71
f 281/281/71 284/284/71 283/283/71
f 285/285/72 287/287/72 288/288/72
f 285/285/72 286/286/72 287/287/72
f 289/289/73 291/291/73 290/290/73
f 289/289/73 292/292/73 291/291/73
f 293/293/74 295/295/74 296/296/74
f 293/293/74 294/294/74 295/295/74
f 297/297/75 299/299/75 298/298/75
f 297/297/75 300/300/75 299/299/75
f 301/301/76 303/303/76 304/304/76
f 301/301/76 302/302/76 303/303/76
f 305/305/77 307/307/77 306/306/77
f 305/305/77 308/308/77 307/307/77
f 309/309/78 311/311/78 312/312/78
f 309/309/78 310/310/78 311/311/78
f 313/313/79 315/315/79 314/314/79
f 313/313/79 316/316/79 315/315/79
f 317/317/80 319/319/80 320/320/80
f 317/317/80 318/318/80 319/319/80
f 321/321/81 323/323/81 322/322/81
f 321/321/81 324/324/81 323/323/81
f 325/325/82 327/327/82 328/328/82
f 325/325/82 326/326/82 327/327/82
f 329/329/83 331/331/83 330/330/83
f 329/329/83 332/332/83 331/331/83
f 333/333/84 335/335/84 336/336/84
f 333/333/84 334/334/84 335/335/84
f 337/337/85 339/339/85 338/338/85
f 337/337/85 340/340/85 339/339/85
f 341/341/86 343/343/86 344/344/86
f 341/341/86 342/342/86 343/343/86
f 345/345/87 347/347/87 346/346/87
f 345/345/87 348/348/87 347/347/87
f 349/349/88 351/351/88 352/352/88
f 349/349/88 350/350/88 351/351/88
f 353/353/89 355/355/89 354/354/89
f 353/353/89 356/356/89 355/355/89
f 357/357/90 359/359/90 360/360/90
f 357/357/90 358/358/90 359/359/90
f 361/361/91 363/363/91 362/362/91
f 361/361/91 364/364/91 363/363/91
f 365/365/92 367/367/92 368/368/92
f 365/365/92 366/366/92 367/367/92
f 369/369/93 371/371/93 370/370/93
f 369/369/93 372/372/93 371/371/93
f 373/373/94 375/375/94 376/376/94
f 373/373/94 374/374/94 375/375/94
f 377/377/95 379/379/95 378/378/95
f 377/377/95 380/380/95 379/379/95
f 381/381/96 383/383/96 384/384/96
f 381/381/96 382/382/96 383/383/96
f 385/385/97 387/387/97 386/386/97
f 385/385/97 388/388/97 387/387/97
f 389/389/98 391/391/98 392/392/98
f 389/389/98 390/390/98 391/391/98
f 393/393/99 395/395/99 394/394/99
f 393/393/99 396/396/99 395/395/99
f 397/397/100 399/399/100 400/400/100
f 397/397/100 398/398/100 399/399/100
f 401/401/101 403/403/101 402/402/101
f 401/401/101 404/404/101 403/403/101
f 405/405/102 407/407/102 408/408/102
f 405/405/102 406/406/102 407/407/102
f 409/409/103 411/411/103 410/410/103
f 409/409/103 412/412/103 411/411/103
f 413/413/104 415/415/104 416/416/104
f 413/413/104 414/414/104 415/415/104
f 417/417/105 419/419/105 418/418/105
f 417/417/105 420/420/105 419/419/105
f 421/421/106 423/423/106 424/424/106
f 421/421/106 422/422/106 423/423/106
f 425/425/107 427/427/107 426/426/107
f 425/425/107 428/428/107 427/427/107
f 429/429/108 431/431/108 432/432/108
f 429/429/108 430/430/108 431/431/108
f 433/433/109 435/435/109 434/434/109
f 433/433/109 436/436/109 435/435/109
f 437/437/110 439/439/110 440/440/110
f 437/437/110 438/438/110 439/439/110
f 441/441/111 443/443/111 442/442/111
f 441/441/111 444/444/111 443/443/111
f 445/445/112 447/447/112 448/448/112
f 445/445/112 446/446/112 447/447/112
f 449/449/113 451/451/113 450/450/113
f 449/449/113 452/452/113 451/451/113
f 453/453/114 455/455/114 456/456/114
f 453/453/114 454/454/114 455/455/114
f 457/457/115 459/459/115 458/458/115
f 457/457/115 460/460/115 459/459/115
f 461/461/116 463/463/116 464/464/116
f 461/461/116 462/462/116 463/463/116
f 465/465/117 467/467/117 466/466/117
f 465/465/117 468/468/117 467/467/117
f 469/469/118 471/471/118 472/472/118
f 469/469/118 470/470/118 471/471/118
f 473/473/119 475/475/119 474/474/119
f 473/473/119 476/476/119 475/475/119
f 477/477/120 479/479/120 480/480/120
f 477/477/120 478/478/120 479/479/120
f 481/481/121 483/483/121 482/482/121
f 481/481/121 484/484/121 483/483/121
f 485/485/122 487/487/122 488/488/122
f 485/485/122 486/486/122 487/487/122
f 489/489/123 491/491/123 490/490/123
f 489/489/123 492/492/123 491/491/123
f 493/493/124 495/495/124 496/496/124
f 493/493/124 494/494/124 495/495/124
f 497/497/125 499/499/125 498/498/125
f 497/497/125 500/500/125 499/499/125
f 501/501/126 503/503/126 504/504/126
f 501/501/126 502/502/126 503/503/126
f 505/505/127 507/507/127 506/506/127
f 505/505/127 508/508/127 507/507/127
f 509/509/128 511/511/128 512/512/128
f 509/509/128 510/510/128 511/511/128
f 513/513/129 515/515/129 514/514/129
f 513/513/129 516/516/129 515/515/129
f 517/517/130 519/519/130 520/520/130
f 517/517/130 518/518/130 519/519/130
f 521/521/131 523/523/131 522/522/131
f 521/521/131 524/524/131 523/523/131
f 525/525/132 527/527/132 528/528/132
f 525/525/132 526/526/132 527/527/132
f 529/529/133 531/531/133 530/530/133
f 529/529/133 532/532/133 531/531/133
f 533/533/134 535/535/134 536/536/134
f 533/533/134 534/534/134 535/535/134
f 537/537/135 539/539/135 538/538/135
f 537/537/135 540/540/135 539/539/135
f 541/541/136 543/543/136 544/544/136
f 541/541/136 542/542/136 543/543/136
f 545/545/137 547/547/137 546/546/137
f 545/545/137 548/548/137 547/547/137
f 549/549/138 551/551/138 552/552/138
f 549/549/138 550/550/138 551/551/138
f 553/553/139 555/555/139 554/554/139
f 553/553/139 556/556/139 555/555/139
f 557/557/140 559/559/140 560/560/140
f 557/557/140 558/558/140 559/559/140
