# JudeanFloraV1; canonical UE cm (X east, +Y south, Z up), written with Y reflected and triangle winding reversed for the legacy OBJ importer adapter. One o object, no g groups, so the importer creates exactly one material slot.
# date palm (Phoenix dactylifera), StreetTreesV1 seed 0, LOD1 bark
# height 9.0-16.0 m, crown 5.5-8.5 m; source: Zohary, M., Plants of the Bible (Cambridge University Press, 1982), species entry Phoenix dactylifera; 9-16 m with a 5.5-8.5 m crown of pinnate fronds
# branching is recursive with da Vinci child radii; leaf sprays are anchored to branch tips. Stylised habit, not a survey of any tree.
o SM_StreetTreesV1_DatePalm_S0_L1_Bark
s off
v 0.00000 26.57120 0.66428
v 20.41106 11.78794 0.03956
v 23.01673 -13.27841 -0.61967
v 0.00000 -23.56314 -0.58908
v -23.01673 -13.29279 -0.04461
v -20.41106 11.77519 0.54952
v 2.57050 20.07911 206.27080
v 21.93918 6.05360 205.43595
v 24.41177 -17.73743 204.77936
v 2.57050 -27.50602 205.08117
v -19.27077 -17.76471 205.87074
v -16.79817 6.02940 206.40378
v 10.28201 13.58703 411.87733
v 28.59594 0.32431 410.63006
v 30.93389 -22.19074 409.95029
v 10.28201 -31.44890 410.75143
v -10.36986 -22.24233 412.01418
v -8.03191 0.27855 412.46031
v 23.13453 7.09494 617.48385
v 40.38497 -5.40632 615.87753
v 42.58716 -26.64555 615.18139
v 23.13453 -35.39178 616.42168
v 3.68191 -26.71846 618.09746
v 5.88409 -5.47097 618.46348
v 41.12806 0.60286 823.09037
v 57.30834 -11.13829 821.17881
v 59.37390 -31.10189 820.47317
v 41.12806 -39.33467 822.09193
v 22.88222 -31.19306 824.12006
v 24.94778 -11.21914 824.41285
v 64.26259 -5.88923 1028.69689
v 79.39022 -16.87626 1026.72036
v 81.32141 -35.56499 1026.03588
v 64.26259 -43.27755 1027.76218
v 47.20378 -35.66089 1029.87172
v 49.13497 -16.96130 1030.12195
vt 0.00000 0.00000
vt 0.16667 0.00000
vt 0.33333 0.00000
vt 0.50000 0.00000
vt 0.66667 0.00000
vt 0.83333 0.00000
vt 0.00000 0.20000
vt 0.16667 0.20000
vt 0.33333 0.20000
vt 0.50000 0.20000
vt 0.66667 0.20000
vt 0.83333 0.20000
vt 0.00000 0.40000
vt 0.16667 0.40000
vt 0.33333 0.40000
vt 0.50000 0.40000
vt 0.66667 0.40000
vt 0.83333 0.40000
vt 0.00000 0.60000
vt 0.16667 0.60000
vt 0.33333 0.60000
vt 0.50000 0.60000
vt 0.66667 0.60000
vt 0.83333 0.60000
vt 0.00000 0.80000
vt 0.16667 0.80000
vt 0.33333 0.80000
vt 0.50000 0.80000
vt 0.66667 0.80000
vt 0.83333 0.80000
vt 0.00000 1.00000
vt 0.16667 1.00000
vt 0.33333 1.00000
vt 0.50000 1.00000
vt 0.66667 1.00000
vt 0.83333 1.00000
vn 0.5869 0.8095 0.0182
vn 0.5869 0.8094 0.0182
vn 0.9946 0.1035 -0.0045
vn 0.4078 -0.9128 -0.0226
vn 0.4079 -0.9127 -0.0226
vn -0.4077 -0.9130 -0.0124
vn -0.9945 0.1029 0.0203
vn -0.5867 0.8091 0.0329
vn 0.5866 0.8099 0.0036
vn 0.5867 0.8098 0.0036
vn 0.9941 0.1041 -0.0293
vn 0.4077 -0.9125 -0.0328
vn 0.4078 -0.9125 -0.0328
vn -0.4074 -0.9132 -0.0022
vn -0.4073 -0.9133 -0.0022
vn -0.9937 0.1023 0.0451
vn -0.5863 0.8087 0.0475
vn -0.5862 0.8088 0.0475
vn 0.5860 0.8102 -0.0110
vn 0.5861 0.8102 -0.0111
vn 0.9930 0.1047 -0.0541
vn 0.4073 -0.9123 -0.0429
vn 0.4074 -0.9122 -0.0429
vn -0.4068 -0.9135 0.0079
vn -0.4066 -0.9136 0.0079
vn -0.9924 0.1016 0.0699
vn -0.5854 0.8083 0.0621
vn -0.5853 0.8084 0.0621
vn 0.5850 0.8106 -0.0256
vn 0.5851 0.8105 -0.0256
vn 0.9913 0.1054 -0.0788
vn 0.4067 -0.9120 -0.0531
vn 0.4068 -0.9120 -0.0531
vn -0.4059 -0.9138 0.0180
vn -0.4058 -0.9138 0.0180
vn -0.9904 0.1010 0.0945
vn -0.5842 0.8080 0.0766
vn -0.5841 0.8080 0.0766
vn 0.5837 0.8110 -0.0401
vn 0.5837 0.8109 -0.0401
vn 0.9890 0.1060 -0.1033
vn 0.4058 -0.9118 -0.0631
vn -0.4047 -0.9140 0.0280
vn -0.9878 0.1004 0.1189
vn -0.5826 0.8076 0.0911
vn -0.5826 0.8077 0.0910
vn 0.1118 -0.0248 0.9934
vn -0.0125 0.0250 -0.9996
f 1/1/1 8/8/1 2/2/1
f 1/1/2 7/7/2 8/8/2
f 2/2/3 9/9/3 3/3/3
f 2/2/3 8/8/3 9/9/3
f 3/3/4 10/10/4 4/4/4
f 3/3/5 9/9/5 10/10/5
f 4/4/6 11/11/6 5/5/6
f 4/4/6 10/10/6 11/11/6
f 5/5/7 12/12/7 6/6/7
f 5/5/7 11/11/7 12/12/7
f 6/6/8 7/7/8 1/1/8
f 6/6/8 12/12/8 7/7/8
f 7/7/9 14/14/9 8/8/9
f 7/7/10 13/13/10 14/14/10
f 8/8/11 15/15/11 9/9/11
f 8/8/11 14/14/11 15/15/11
f 9/9/12 16/16/12 10/10/12
f 9/9/13 15/15/13 16/16/13
f 10/10/14 17/17/14 11/11/14
f 10/10/15 16/16/15 17/17/15
f 11/11/16 18/18/16 12/12/16
f 11/11/16 17/17/16 18/18/16
f 12/12/17 13/13/17 7/7/17
f 12/12/18 18/18/18 13/13/18
f 13/13/19 20/20/19 14/14/19
f 13/13/20 19/19/20 20/20/20
f 14/14/21 21/21/21 15/15/21
f 14/14/21 20/20/21 21/21/21
f 15/15/22 22/22/22 16/16/22
f 15/15/23 21/21/23 22/22/23
f 16/16/24 23/23/24 17/17/24
f 16/16/25 22/22/25 23/23/25
f 17/17/26 24/24/26 18/18/26
f 17/17/26 23/23/26 24/24/26
f 18/18/27 19/19/27 13/13/27
f 18/18/28 24/24/28 19/19/28
f 19/19/29 26/26/29 20/20/29
f 19/19/30 25/25/30 26/26/30
f 20/20/31 27/27/31 21/21/31
f 20/20/31 26/26/31 27/27/31
f 21/21/32 28/28/32 22/22/32
f 21/21/33 27/27/33 28/28/33
f 22/22/34 29/29/34 23/23/34
f 22/22/35 28/28/35 29/29/35
f 23/23/36 30/30/36 24/24/36
f 23/23/36 29/29/36 30/30/36
f 24/24/37 25/25/37 19/19/37
f 24/24/38 30/30/38 25/25/38
f 25/25/39 32/32/39 26/26/39
f 25/25/40 31/31/40 32/32/40
f 26/26/41 33/33/41 27/27/41
f 26/26/41 32/32/41 33/33/41
f 27/27/42 34/34/42 28/28/42
f 27/27/42 33/33/42 34/34/42
f 28/28/43 35/35/43 29/29/43
f 28/28/43 34/34/43 35/35/43
f 29/29/44 36/36/44 30/30/44
f 29/29/44 35/35/44 36/36/44
f 30/30/45 31/31/45 25/25/45
f 30/30/46 36/36/46 31/31/46
f 31/31/47 33/33/47 32/32/47
f 31/31/47 34/34/47 33/33/47
f 31/31/47 35/35/47 34/34/47
f 31/31/47 36/36/47 35/35/47
f 6/6/48 4/4/48 5/5/48
f 6/6/48 3/3/48 4/4/48
f 6/6/48 2/2/48 3/3/48
f 6/6/48 1/1/48 2/2/48
