# JudeanFloraV1; canonical UE cm (X east, +Y south, Z up), written with Y reflected and triangle winding reversed for the legacy OBJ importer adapter. One o object, no g groups, so the importer creates exactly one material slot.
# carob (Ceratonia siliqua), StreetTreesV1 seed 0, LOD2 leaf
# height 5.5-10.0 m, crown 6.0-10.0 m; source: Zohary, M., Plants of the Bible (Cambridge University Press, 1982), species entry Ceratonia siliqua; a dense evergreen of 5.5-10 m with a broad crown
# branching is recursive with da Vinci child radii; leaf sprays are anchored to branch tips. Stylised habit, not a survey of any tree.
o SM_StreetTreesV1_Carob_S0_L2_Leaf
s off
v 50.99614 -74.41302 435.89715
v 5.95712 115.21192 435.89715
v -11.93036 110.94830 629.92806
v 33.10865 -78.67664 629.92806
v 50.99614 -74.41302 435.89715
v 5.95712 115.21192 435.89715
v -11.93036 110.94830 629.92806
v 33.10865 -78.67664 629.92806
v -29.81308 -76.56564 538.75957
v 141.43709 49.58863 538.75957
v 147.52259 41.34152 751.21303
v -23.72758 -84.81275 751.21303
v -29.81308 -76.56564 538.75957
v 141.43709 49.58863 538.75957
v 147.52259 41.34152 751.21303
v -23.72758 -84.81275 751.21303
v 53.81633 60.17242 599.68131
v 240.21664 171.37886 599.68131
v 237.03738 176.69820 816.64570
v 50.63706 65.49176 816.64570
v 53.81633 60.17242 599.68131
v 240.21664 171.37886 599.68131
v 237.03738 176.69820 816.64570
v 50.63706 65.49176 816.64570
v -41.28590 90.02065 443.73799
v 98.42030 -6.01624 443.73799
v 87.83335 -21.44352 612.23375
v -51.87285 74.59337 612.23375
v -41.28590 90.02065 443.73799
v 98.42030 -6.01624 443.73799
v 87.83335 -21.44352 612.23375
v -51.87285 74.59337 612.23375
v 69.53974 14.37302 399.11726
v 83.33067 -171.41481 399.11726
v 67.03079 -172.63779 584.69777
v 53.23986 13.15004 584.69777
v 69.53974 14.37302 399.11726
v 83.33067 -171.41481 399.11726
v 67.03079 -172.63779 584.69777
v 53.23986 13.15004 584.69777
v -15.97609 -170.51980 559.41516
v -118.40981 -69.88916 559.41516
v -111.95636 -63.30960 702.71295
v -9.52264 -163.94025 702.71295
v -15.97609 -170.51980 559.41516
v -118.40981 -69.88916 559.41516
v -111.95636 -63.30960 702.71295
v -9.52264 -163.94025 702.71295
v -76.50804 37.00386 354.78234
v 124.27173 44.67708 354.78234
v 124.19861 46.55140 555.69993
v -76.58116 38.87818 555.69993
v -76.50804 37.00386 354.78234
v 124.27173 44.67708 354.78234
v 124.19861 46.55140 555.69993
v -76.58116 38.87818 555.69993
v -23.03646 196.87589 522.30158
v -57.86140 26.74180 522.30158
v -80.70904 31.39955 694.39073
v -45.88410 201.53364 694.39073
v -23.03646 196.87589 522.30158
v -57.86140 26.74180 522.30158
v -80.70904 31.39955 694.39073
v -45.88410 201.53364 694.39073
v -92.62461 230.34388 456.27314
v -168.78889 69.43199 456.27314
v -168.85778 69.46453 634.30018
v -92.69350 230.37642 634.30018
v -92.62461 230.34388 456.27314
v -168.78889 69.43199 456.27314
v -168.85778 69.46453 634.30018
v -92.69350 230.37642 634.30018
v -92.26361 135.59213 410.10398
v 56.44033 180.83594 410.10398
v 53.27323 191.21562 565.15912
v -95.43070 145.97181 565.15912
v -92.26361 135.59213 410.10398
v 56.44033 180.83594 410.10398
v 53.27323 191.21562 565.15912
v -95.43070 145.97181 565.15912
v -70.24343 -5.49660 396.31941
v -236.10188 -70.03802 396.31941
v -242.45575 -53.74824 573.43206
v -76.59731 10.79318 573.43206
v -70.24343 -5.49660 396.31941
v -236.10188 -70.03802 396.31941
v -242.45575 -53.74824 573.43206
v -76.59731 10.79318 573.43206
v -37.91449 118.74387 439.13920
v 85.42015 17.75799 439.13920
v 80.48738 11.72378 598.35239
v -42.84726 112.70966 598.35239
v -37.91449 118.74387 439.13920
v 85.42015 17.75799 439.13920
v 80.48738 11.72378 598.35239
v -42.84726 112.70966 598.35239
v 75.45241 53.91741 398.53301
v 126.23075 -121.78178 398.53301
v 104.09095 -128.19945 579.96423
v 53.31262 47.49974 579.96423
v 75.45241 53.91741 398.53301
v 126.23075 -121.78178 398.53301
v 104.09095 -128.19945 579.96423
v 53.31262 47.49974 579.96423
v -96.60539 173.53613 466.75816
v -103.71434 -39.13722 466.75816
v -83.19840 -39.80664 678.55792
v -76.08945 172.86670 678.55792
v -96.60539 173.53613 466.75816
v -103.71434 -39.13722 466.75816
v -83.19840 -39.80664 678.55792
v -76.08945 172.86670 678.55792
v -39.10627 6.03562 526.63970
v 174.45676 6.21800 526.63970
v 174.50632 -23.80758 738.08156
v -39.05671 -23.98995 738.08156
v -39.10627 6.03562 526.63970
v 174.45676 6.21800 526.63970
v 174.50632 -23.80758 738.08156
v -39.05671 -23.98995 738.08156
v -55.72258 -74.23836 486.13297
v 112.62209 2.36737 486.13297
v 101.64974 26.42878 669.18767
v -66.69493 -50.17694 669.18767
v -55.72258 -74.23836 486.13297
v 112.62209 2.36737 486.13297
v 101.64974 26.42878 669.18767
v -66.69493 -50.17694 669.18767
v -41.00296 76.14419 488.87896
v 98.51991 140.72061 488.87896
v 90.11104 158.85079 641.31692
v -49.41183 94.27437 641.31692
v -41.00296 76.14419 488.87896
v 98.51991 140.72061 488.87896
v 90.11104 158.85079 641.31692
v -49.41183 94.27437 641.31692
v 121.93340 332.65747 438.83862
v -28.24197 223.35238 438.83862
v -27.51929 222.36115 624.57698
v 122.65607 331.66624 624.57698
v 121.93340 332.65747 438.83862
v -28.24197 223.35238 438.83862
v -27.51929 222.36115 624.57698
v 122.65607 331.66624 624.57698
v 68.40308 178.06245 397.79159
v -127.17782 140.76474 397.79159
v -131.12140 161.35492 595.79032
v 64.45950 198.65262 595.79032
v 68.40308 178.06245 397.79159
v -127.17782 140.76474 397.79159
v -131.12140 161.35492 595.79032
v 64.45950 198.65262 595.79032
v 103.10490 208.06608 420.90702
v 186.88448 17.44992 420.90702
v 216.66742 30.56842 626.56310
v 132.88784 221.18459 626.56310
v 103.10490 208.06608 420.90702
v 186.88448 17.44992 420.90702
v 216.66742 30.56842 626.56310
v 132.88784 221.18459 626.56310
v 5.18579 142.97149 430.76601
v -91.82936 -34.67607 430.76601
v -67.07690 -48.16806 631.20521
v 29.93825 129.47949 631.20521
v 5.18579 142.97149 430.76601
v -91.82936 -34.67607 430.76601
v -67.07690 -48.16806 631.20521
v 29.93825 129.47949 631.20521
v 28.05887 -212.48160 551.22912
v 77.82933 -16.66664 551.22912
v 101.92587 -22.77085 751.73522
v 52.15541 -218.58582 751.73522
v 28.05887 -212.48160 551.22912
v 77.82933 -16.66664 551.22912
v 101.92587 -22.77085 751.73522
v 52.15541 -218.58582 751.73522
v 79.70964 124.21646 379.32140
v 116.50412 -33.22617 379.32140
v 128.33700 -30.45088 540.54887
v 91.54252 126.99175 540.54887
v 79.70964 124.21646 379.32140
v 116.50412 -33.22617 379.32140
v 128.33700 -30.45088 540.54887
v 91.54252 126.99175 540.54887
v -36.43844 -25.02044 470.83193
v 98.53062 124.91020 470.83193
v 97.40648 125.92055 672.55837
v -37.56258 -24.01009 672.55837
v -36.43844 -25.02044 470.83193
v 98.53062 124.91020 470.83193
v 97.40648 125.92055 672.55837
v -37.56258 -24.01009 672.55837
v 22.20605 -42.80370 444.67423
v -99.54510 137.29059 444.67423
v -89.79691 143.89209 661.74263
v 31.95425 -36.20220 661.74263
v 22.20605 -42.80370 444.67423
v -99.54510 137.29059 444.67423
v -89.79691 143.89209 661.74263
v 31.95425 -36.20220 661.74263
v 181.78867 -19.76062 584.83092
v 51.94301 -197.71345 584.83092
v 61.62422 -204.76567 804.79374
v 191.46988 -26.81284 804.79374
v 181.78867 -19.76062 584.83092
v 51.94301 -197.71345 584.83092
v 61.62422 -204.76567 804.79374
v 191.46988 -26.81284 804.79374
v 94.90467 -77.42314 458.72826
v 12.75374 68.99358 458.72826
v 35.84224 81.97217 624.51459
v 117.99316 -64.44455 624.51459
v 94.90467 -77.42314 458.72826
v 12.75374 68.99358 458.72826
v 35.84224 81.97217 624.51459
v 117.99316 -64.44455 624.51459
v -90.00411 117.68728 447.82957
v -235.04007 269.26828 447.82957
v -258.13787 247.13255 655.16681
v -113.10191 95.55155 655.16681
v -90.00411 117.68728 447.82957
v -235.04007 269.26828 447.82957
v -258.13787 247.13255 655.16681
v -113.10191 95.55155 655.16681
v -146.28023 25.16228 451.77968
v 24.60391 49.71868 451.77968
v 27.44662 30.04798 623.27133
v -143.43752 5.49158 623.27133
v -146.28023 25.16228 451.77968
v 24.60391 49.71868 451.77968
v 27.44662 30.04798 623.27133
v -143.43752 5.49158 623.27133
v 72.55412 108.97618 514.96468
v -67.02861 171.14638 514.96468
v -67.10639 170.97139 667.76664
v 72.47635 108.80119 667.76664
v 72.55412 108.97618 514.96468
v -67.02861 171.14638 514.96468
v -67.10639 170.97139 667.76664
v 72.47635 108.80119 667.76664
v -87.64559 66.87293 356.64190
v 3.93787 -112.47548 356.64190
v 5.82867 -111.50805 558.00940
v -85.75478 67.84036 558.00940
v -87.64559 66.87293 356.64190
v 3.93787 -112.47548 356.64190
v 5.82867 -111.50805 558.00940
v -85.75478 67.84036 558.00940
v 83.47373 34.06976 435.51786
v 52.67986 215.82220 435.51786
v 54.86124 216.19358 619.84723
v 85.65510 34.44113 619.84723
v 83.47373 34.06976 435.51786
v 52.67986 215.82220 435.51786
v 54.86124 216.19358 619.84723
v 85.65510 34.44113 619.84723
v -121.80887 -39.28798 365.79598
v -1.16300 112.92772 365.79598
v -6.29746 116.99063 559.91495
v -126.94332 -35.22507 559.91495
v -121.80887 -39.28798 365.79598
v -1.16300 112.92772 365.79598
v -6.29746 116.99063 559.91495
v -126.94332 -35.22507 559.91495
v 6.93918 -235.73757 494.69343
v -6.64950 -69.27266 494.69343
v -27.84761 -71.02008 660.35213
v -14.25892 -237.48499 660.35213
v 6.93918 -235.73757 494.69343
v -6.64950 -69.27266 494.69343
v -27.84761 -71.02008 660.35213
v -14.25892 -237.48499 660.35213
v -68.95100 52.50986 493.31160
v 23.04119 173.96265 493.31160
v 19.50837 176.63410 645.60647
v -72.48382 55.18131 645.60647
v -68.95100 52.50986 493.31160
v 23.04119 173.96265 493.31160
v 19.50837 176.63410 645.60647
v -72.48382 55.18131 645.60647
v -252.16418 45.41897 486.99179
v -50.93619 134.90402 486.99179
v -53.97871 141.73119 707.09270
v -255.20670 52.24614 707.09270
v -252.16418 45.41897 486.99179
v -50.93619 134.90402 486.99179
v -53.97871 141.73119 707.09270
v -255.20670 52.24614 707.09270
v 71.27094 128.97061 502.10152
v -106.72857 112.71576 502.10152
v -108.36126 130.43878 679.95334
v 69.63825 146.69363 679.95334
v 71.27094 128.97061 502.10152
v -106.72857 112.71576 502.10152
v -108.36126 130.43878 679.95334
v 69.63825 146.69363 679.95334
v 53.48768 -10.94021 481.88672
v -84.73317 -70.56750 481.88672
v -82.78886 -75.06471 632.34074
v 55.43199 -15.43742 632.34074
v 53.48768 -10.94021 481.88672
v -84.73317 -70.56750 481.88672
v -82.78886 -75.06471 632.34074
v 55.43199 -15.43742 632.34074
v -127.61222 -123.70914 483.98852
v 30.25724 -113.51448 483.98852
v 29.05986 -95.19928 641.11845
v -128.80960 -105.39395 641.11845
v -127.61222 -123.70914 483.98852
v 30.25724 -113.51448 483.98852
v 29.05986 -95.19928 641.11845
v -128.80960 -105.39395 641.11845
v 72.89458 -254.40485 514.12500
v -37.37820 -140.12035 514.12500
v -19.78986 -123.12233 671.04138
v 90.48293 -237.40684 671.04138
v 72.89458 -254.40485 514.12500
v -37.37820 -140.12035 514.12500
v -19.78986 -123.12233 671.04138
v 90.48293 -237.40684 671.04138
v 102.06832 83.07993 388.82253
v -71.11299 94.37937 388.82253
v -71.46435 88.92746 562.28606
v 101.71696 77.62803 562.28606
v 102.06832 83.07993 388.82253
v -71.11299 94.37937 388.82253
v -71.46435 88.92746 562.28606
v 101.71696 77.62803 562.28606
v -58.71099 166.24941 457.67656
v -28.59681 -30.87435 457.67656
v -61.97614 -36.00084 654.20691
v -92.09032 161.12292 654.20691
v -58.71099 166.24941 457.67656
v -28.59681 -30.87435 457.67656
v -61.97614 -36.00084 654.20691
v -92.09032 161.12292 654.20691
v 132.58503 -1.20784 618.59463
v -39.28394 3.24653 618.59463
v -39.21089 6.15461 790.49669
v 132.65808 1.70024 790.49669
v 132.58503 -1.20784 618.59463
v -39.28394 3.24653 618.59463
v -39.21089 6.15461 790.49669
v 132.65808 1.70024 790.49669
v -70.21560 -51.44362 417.52801
v -71.54403 142.07943 417.52801
v -87.77328 141.95510 610.37389
v -86.44485 -51.56795 610.37389
v -70.21560 -51.44362 417.52801
v -71.54403 142.07943 417.52801
v -87.77328 141.95510 610.37389
v -86.44485 -51.56795 610.37389
v -99.91200 290.47259 434.40717
v -52.67361 118.02591 434.40717
v -48.30159 119.22728 613.14935
v -95.53998 291.67396 613.14935
v -99.91200 290.47259 434.40717
v -52.67361 118.02591 434.40717
v -48.30159 119.22728 613.14935
v -95.53998 291.67396 613.14935
v 1.63459 -4.37329 366.26556
v 129.72566 -75.01834 366.26556
v 130.98576 -72.72926 512.52292
v 2.89469 -2.08421 512.52292
v 1.63459 -4.37329 366.26556
v 129.72566 -75.01834 366.26556
v 130.98576 -72.72926 512.52292
v 2.89469 -2.08421 512.52292
v 134.21173 61.09822 503.35172
v 141.50636 -86.86451 503.35172
v 145.52130 -86.66337 651.43961
v 138.22666 61.29936 651.43961
v 134.21173 61.09822 503.35172
v 141.50636 -86.86451 503.35172
v 145.52130 -86.66337 651.43961
v 138.22666 61.29936 651.43961
v -103.94920 151.94129 487.66891
v -120.71676 356.27499 487.66891
v -119.85543 356.34636 692.68760
v -103.08787 152.01266 692.68760
v -103.94920 151.94129 487.66891
v -120.71676 356.27499 487.66891
v -119.85543 356.34636 692.68760
v -103.08787 152.01266 692.68760
v -199.08806 306.35064 471.65853
v -246.83865 178.12527 471.65853
v -228.67501 171.37767 607.10749
v -180.92442 299.60304 607.10749
v -199.08806 306.35064 471.65853
v -246.83865 178.12527 471.65853
v -228.67501 171.37767 607.10749
v -180.92442 299.60304 607.10749
v -61.61063 27.53131 517.67718
v -14.74281 166.00218 517.67718
v -16.03280 166.43765 663.85830
v -62.90063 27.96679 663.85830
v -61.61063 27.53131 517.67718
v -14.74281 166.00218 517.67718
v -16.03280 166.43765 663.85830
v -62.90063 27.96679 663.85830
v 163.58189 9.91154 525.46975
v 58.13118 -99.97537 525.46975
v 52.99223 -95.05175 677.60237
v 158.44295 14.83516 677.60237
v 163.58189 9.91154 525.46975
v 58.13118 -99.97537 525.46975
v 52.99223 -95.05175 677.60237
v 158.44295 14.83516 677.60237
v 141.17032 59.28556 396.74830
v 45.58068 -72.06018 396.74830
v 28.03747 -59.31410 557.74164
v 123.62711 72.03164 557.74164
v 141.17032 59.28556 396.74830
v 45.58068 -72.06018 396.74830
v 28.03747 -59.31410 557.74164
v 123.62711 72.03164 557.74164
v -171.75520 315.22687 410.88580
v -44.40984 133.58193 410.88580
v -22.34120 149.07976 631.07779
v -149.68656 330.72470 631.07779
v -171.75520 315.22687 410.88580
v -44.40984 133.58193 410.88580
v -22.34120 149.07976 631.07779
v -149.68656 330.72470 631.07779
v 120.48608 -188.76866 420.82548
v 266.43075 -19.79843 420.82548
v 290.63980 -40.67487 641.79806
v 144.69513 -209.64510 641.79806
v 120.48608 -188.76866 420.82548
v 266.43075 -19.79843 420.82548
v 290.63980 -40.67487 641.79806
v 144.69513 -209.64510 641.79806
v -123.15519 183.90794 422.35578
v -23.91361 22.31330 422.35578
v -0.70160 36.59417 610.02297
v -99.94317 198.18881 610.02297
v -123.15519 183.90794 422.35578
v -23.91361 22.31330 422.35578
v -0.70160 36.59417 610.02297
v -99.94317 198.18881 610.02297
v 28.07893 134.68127 423.96916
v 103.02745 -71.63485 423.96916
v 133.49329 -60.54004 641.06905
v 58.54477 145.77608 641.06905
v 28.07893 134.68127 423.96916
v 103.02745 -71.63485 423.96916
v 133.49329 -60.54004 641.06905
v 58.54477 145.77608 641.06905
v -12.38584 -35.96851 496.39379
v 115.72553 30.73152 496.39379
v 113.28607 35.40791 640.73228
v -14.82530 -31.29213 640.73228
v -12.38584 -35.96851 496.39379
v 115.72553 30.73152 496.39379
v 113.28607 35.40791 640.73228
v -14.82530 -31.29213 640.73228
v -62.13652 94.55258 431.44362
v -14.01450 244.46918 431.44362
v 13.89971 235.53346 586.14224
v -34.22231 85.61686 586.14224
v -62.13652 94.55258 431.44362
v -14.01450 244.46918 431.44362
v 13.89971 235.53346 586.14224
v -34.22231 85.61686 586.14224
v 33.05797 -84.37665 445.47454
v 14.72965 -251.65885 445.47454
v 4.77247 -250.57591 613.45948
v 23.10079 -83.29371 613.45948
v 33.05797 -84.37665 445.47454
v 14.72965 -251.65885 445.47454
v 4.77247 -250.57591 613.45948
v 23.10079 -83.29371 613.45948
v -24.88031 105.44364 545.82192
v 124.11105 141.80495 545.82192
v 127.38602 128.43192 698.56683
v -21.60534 92.07061 698.56683
v -24.88031 105.44364 545.82192
v 124.11105 141.80495 545.82192
v 127.38602 128.43192 698.56683
v -21.60534 92.07061 698.56683
v 115.50134 29.38533 454.23042
v 49.50312 -98.09545 454.23042
v 45.85134 -96.20857 597.72334
v 111.84956 31.27221 597.72334
v 115.50134 29.38533 454.23042
v 49.50312 -98.09545 454.23042
v 45.85134 -96.20857 597.72334
v 111.84956 31.27221 597.72334
v -14.38044 -31.06624 528.46080
v 3.82686 143.32803 528.46080
v 9.21737 142.76959 703.71918
v -8.98994 -31.62469 703.71918
v -14.38044 -31.06624 528.46080
v 3.82686 143.32803 528.46080
v 9.21737 142.76959 703.71918
v -8.98994 -31.62469 703.71918
v 117.98837 -45.22417 435.55325
v -20.92981 -96.60536 435.55325
v -19.17830 -101.32931 583.58333
v 119.73988 -49.94812 583.58333
v 117.98837 -45.22417 435.55325
v -20.92981 -96.60536 435.55325
v -19.17830 -101.32931 583.58333
v 119.73988 -49.94812 583.58333
v 63.00897 70.81223 385.12248
v -118.09577 97.35882 385.12248
v -114.31450 123.29918 566.27559
v 66.79024 96.75259 566.27559
v 63.00897 70.81223 385.12248
v -118.09577 97.35882 385.12248
v -114.31450 123.29918 566.27559
v 66.79024 96.75259 566.27559
v -8.10707 147.18350 437.66635
v -6.60885 -62.23739 437.66635
v 20.96910 -62.01813 645.26877
v 19.47089 147.40276 645.26877
v -8.10707 147.18350 437.66635
v -6.60885 -62.23739 437.66635
v 20.96910 -62.01813 645.26877
v 19.47089 147.40276 645.26877
v 163.16699 -8.13299 536.36768
v 14.81204 62.36891 536.36768
v 8.10627 48.22913 699.87549
v 156.46122 -22.27276 699.87549
v 163.16699 -8.13299 536.36768
v 14.81204 62.36891 536.36768
v 8.10627 48.22913 699.87549
v 156.46122 -22.27276 699.87549
v 103.75407 3.00739 438.55997
v 226.45903 167.29532 438.55997
v 237.71704 158.90080 643.13226
v 115.01207 -5.38713 643.13226
v 103.75407 3.00739 438.55997
v 226.45903 167.29532 438.55997
v 237.71704 158.90080 643.13226
v 115.01207 -5.38713 643.13226
v -55.40787 104.31269 354.25599
v -18.90533 286.96601 354.25599
v -10.54847 285.30284 540.32604
v -47.05101 102.64953 540.32604
v -55.40787 104.31269 354.25599
v -18.90533 286.96601 354.25599
v -10.54847 285.30284 540.32604
v -47.05101 102.64953 540.32604
v -90.70762 70.40198 518.91874
v 70.23793 210.69628 518.91874
v 92.31053 185.41528 729.77327
v -68.63502 45.12098 729.77327
v -90.70762 70.40198 518.91874
v 70.23793 210.69628 518.91874
v 92.31053 185.41528 729.77327
v -68.63502 45.12098 729.77327
v -168.60393 44.08660 514.46868
v 10.61421 -27.21947 514.46868
v 22.71285 3.25946 704.54328
v -156.50529 74.56553 704.54328
v -168.60393 44.08660 514.46868
v 10.61421 -27.21947 514.46868
v 22.71285 3.25946 704.54328
v -156.50529 74.56553 704.54328
vt 0.00000 2.00000
vt 2.00000 2.00000
vt 2.00000 0.00000
vt 0.00000 0.00000
vt 0.00000 2.00000
vt 2.00000 2.00000
vt 2.00000 0.00000
vt 0.00000 0.00000
vt 0.00000 2.00000
vt 2.00000 2.00000
vt 2.00000 0.00000
vt 0.00000 0.00000
vt 0.00000 2.00000
vt 2.00000 2.00000
vt 2.00000 0.00000
vt 0.00000 0.00000
vt 0.00000 2.00000
vt 2.00000 2.00000
vt 2.00000 0.00000
vt 0.00000 0.00000
vt 0.00000 2.00000
vt 2.00000 2.00000
vt 2.00000 0.00000
vt 0.00000 0.00000
vt 0.00000 2.00000
vt 2.00000 2.00000
vt 2.00000 0.00000
vt 0.00000 0.00000
vt 0.00000 2.00000
vt 2.00000 2.00000
vt 2.00000 0.00000
vt 0.00000 0.00000
vt 0.00000 2.00000
vt 2.00000 2.00000
vt 2.00000 0.00000
vt 0.00000 0.00000
vt 0.00000 2.00000
vt 2.00000 2.00000
vt 2.00000 0.00000
vt 0.00000 0.00000
vt 0.00000 2.00000
vt 2.00000 2.00000
vt 2.00000 0.00000
vt 0.00000 0.00000
vt 0.00000 2.00000
vt 2.00000 2.00000
vt 2.00000 0.00000
vt 0.00000 0.00000
vt 0.00000 2.00000
vt 2.00000 2.00000
vt 2.00000 0.00000
vt 0.00000 0.00000
vt 0.00000 2.00000
vt 2.00000 2.00000
vt 2.00000 0.00000
vt 0.00000 0.00000
vt 0.00000 2.00000
vt 2.00000 2.00000
vt 2.00000 0.00000
vt 0.00000 0.00000
vt 0.00000 2.00000
vt 2.00000 2.00000
vt 2.00000 0.00000
vt 0.00000 0.00000
vt 0.00000 2.00000
vt 2.00000 2.00000
vt 2.00000 0.00000
vt 0.00000 0.00000
vt 0.00000 2.00000
vt 2.00000 2.00000
vt 2.00000 0.00000
vt 0.00000 0.00000
vt 0.00000 2.00000
vt 2.00000 2.00000
vt 2.00000 0.00000
vt 0.00000 0.00000
vt 0.00000 2.00000
vt 2.00000 2.00000
vt 2.00000 0.00000
vt 0.00000 0.00000
vt 0.00000 2.00000
vt 2.00000 2.00000
vt 2.00000 0.00000
vt 0.00000 0.00000
vt 0.00000 2.00000
vt 2.00000 2.00000
vt 2.00000 0.00000
vt 0.00000 0.00000
vt 0.00000 2.00000
vt 2.00000 2.00000
vt 2.00000 0.00000
vt 0.00000 0.00000
vt 0.00000 2.00000
vt 2.00000 2.00000
vt 2.00000 0.00000
vt 0.00000 0.00000
vt 0.00000 2.00000
vt 2.00000 2.00000
vt 2.00000 0.00000
vt 0.00000 0.00000
vt 0.00000 2.00000
vt 2.00000 2.00000
vt 2.00000 0.00000
vt 0.00000 0.00000
vt 0.00000 2.00000
vt 2.00000 2.00000
vt 2.00000 0.00000
vt 0.00000 0.00000
vt 0.00000 2.00000
vt 2.00000 2.00000
vt 2.00000 0.00000
vt 0.00000 0.00000
vt 0.00000 2.00000
vt 2.00000 2.00000
vt 2.00000 0.00000
vt 0.00000 0.00000
vt 0.00000 2.00000
vt 2.00000 2.00000
vt 2.00000 0.00000
vt 0.00000 0.00000
vt 0.00000 2.00000
vt 2.00000 2.00000
vt 2.00000 0.00000
vt 0.00000 0.00000
vt 0.00000 2.00000
vt 2.00000 2.00000
vt 2.00000 0.00000
vt 0.00000 0.00000
vt 0.00000 2.00000
vt 2.00000 2.00000
vt 2.00000 0.00000
vt 0.00000 0.00000
vt 0.00000 2.00000
vt 2.00000 2.00000
vt 2.00000 0.00000
vt 0.00000 0.00000
vt 0.00000 2.00000
vt 2.00000 2.00000
vt 2.00000 0.00000
vt 0.00000 0.00000
vt 0.00000 2.00000
vt 2.00000 2.00000
vt 2.00000 0.00000
vt 0.00000 0.00000
vt 0.00000 2.00000
vt 2.00000 2.00000
vt 2.00000 0.00000
vt 0.00000 0.00000
vt 0.00000 2.00000
vt 2.00000 2.00000
vt 2.00000 0.00000
vt 0.00000 0.00000
vt 0.00000 2.00000
vt 2.00000 2.00000
vt 2.00000 0.00000
vt 0.00000 0.00000
vt 0.00000 2.00000
vt 2.00000 2.00000
vt 2.00000 0.00000
vt 0.00000 0.00000
vt 0.00000 2.00000
vt 2.00000 2.00000
vt 2.00000 0.00000
vt 0.00000 0.00000
vt 0.00000 2.00000
vt 2.00000 2.00000
vt 2.00000 0.00000
vt 0.00000 0.00000
vt 0.00000 2.00000
vt 2.00000 2.00000
vt 2.00000 0.00000
vt 0.00000 0.00000
vt 0.00000 2.00000
vt 2.00000 2.00000
vt 2.00000 0.00000
vt 0.00000 0.00000
vt 0.00000 2.00000
vt 2.00000 2.00000
vt 2.00000 0.00000
vt 0.00000 0.00000
vt 0.00000 2.00000
vt 2.00000 2.00000
vt 2.00000 0.00000
vt 0.00000 0.00000
vt 0.00000 2.00000
vt 2.00000 2.00000
vt 2.00000 0.00000
vt 0.00000 0.00000
vt 0.00000 2.00000
vt 2.00000 2.00000
vt 2.00000 0.00000
vt 0.00000 0.00000
vt 0.00000 2.00000
vt 2.00000 2.00000
vt 2.00000 0.00000
vt 0.00000 0.00000
vt 0.00000 2.00000
vt 2.00000 2.00000
vt 2.00000 0.00000
vt 0.00000 0.00000
vt 0.00000 2.00000
vt 2.00000 2.00000
vt 2.00000 0.00000
vt 0.00000 0.00000
vt 0.00000 2.00000
vt 2.00000 2.00000
vt 2.00000 0.00000
vt 0.00000 0.00000
vt 0.00000 2.00000
vt 2.00000 2.00000
vt 2.00000 0.00000
vt 0.00000 0.00000
vt 0.00000 2.00000
vt 2.00000 2.00000
vt 2.00000 0.00000
vt 0.00000 0.00000
vt 0.00000 2.00000
vt 2.00000 2.00000
vt 2.00000 0.00000
vt 0.00000 0.00000
vt 0.00000 2.00000
vt 2.00000 2.00000
vt 2.00000 0.00000
vt 0.00000 0.00000
vt 0.00000 2.00000
vt 2.00000 2.00000
vt 2.00000 0.00000
vt 0.00000 0.00000
vt 0.00000 2.00000
vt 2.00000 2.00000
vt 2.00000 0.00000
vt 0.00000 0.00000
vt 0.00000 2.00000
vt 2.00000 2.00000
vt 2.00000 0.00000
vt 0.00000 0.00000
vt 0.00000 2.00000
vt 2.00000 2.00000
vt 2.00000 0.00000
vt 0.00000 0.00000
vt 0.00000 2.00000
vt 2.00000 2.00000
vt 2.00000 0.00000
vt 0.00000 0.00000
vt 0.00000 2.00000
vt 2.00000 2.00000
vt 2.00000 0.00000
vt 0.00000 0.00000
vt 0.00000 2.00000
vt 2.00000 2.00000
vt 2.00000 0.00000
vt 0.00000 0.00000
vt 0.00000 2.00000
vt 2.00000 2.00000
vt 2.00000 0.00000
vt 0.00000 0.00000
vt 0.00000 2.00000
vt 2.00000 2.00000
vt 2.00000 0.00000
vt 0.00000 0.00000
vt 0.00000 2.00000
vt 2.00000 2.00000
vt 2.00000 0.00000
vt 0.00000 0.00000
vt 0.00000 2.00000
vt 2.00000 2.00000
vt 2.00000 0.00000
vt 0.00000 0.00000
vt 0.00000 2.00000
vt 2.00000 2.00000
vt 2.00000 0.00000
vt 0.00000 0.00000
vt 0.00000 2.00000
vt 2.00000 2.00000
vt 2.00000 0.00000
vt 0.00000 0.00000
vt 0.00000 2.00000
vt 2.00000 2.00000
vt 2.00000 0.00000
vt 0.00000 0.00000
vt 0.00000 2.00000
vt 2.00000 2.00000
vt 2.00000 0.00000
vt 0.00000 0.00000
vt 0.00000 2.00000
vt 2.00000 2.00000
vt 2.00000 0.00000
vt 0.00000 0.00000
vt 0.00000 2.00000
vt 2.00000 2.00000
vt 2.00000 0.00000
vt 0.00000 0.00000
vt 0.00000 2.00000
vt 2.00000 2.00000
vt 2.00000 0.00000
vt 0.00000 0.00000
vt 0.00000 2.00000
vt 2.00000 2.00000
vt 2.00000 0.00000
vt 0.00000 0.00000
vt 0.00000 2.00000
vt 2.00000 2.00000
vt 2.00000 0.00000
vt 0.00000 0.00000
vt 0.00000 2.00000
vt 2.00000 2.00000
vt 2.00000 0.00000
vt 0.00000 0.00000
vt 0.00000 2.00000
vt 2.00000 2.00000
vt 2.00000 0.00000
vt 0.00000 0.00000
vt 0.00000 2.00000
vt 2.00000 2.00000
vt 2.00000 0.00000
vt 0.00000 0.00000
vt 0.00000 2.00000
vt 2.00000 2.00000
vt 2.00000 0.00000
vt 0.00000 0.00000
vt 0.00000 2.00000
vt 2.00000 2.00000
vt 2.00000 0.00000
vt 0.00000 0.00000
vt 0.00000 2.00000
vt 2.00000 2.00000
vt 2.00000 0.00000
vt 0.00000 0.00000
vt 0.00000 2.00000
vt 2.00000 2.00000
vt 2.00000 0.00000
vt 0.00000 0.00000
vt 0.00000 2.00000
vt 2.00000 2.00000
vt 2.00000 0.00000
vt 0.00000 0.00000
vt 0.00000 2.00000
vt 2.00000 2.00000
vt 2.00000 0.00000
vt 0.00000 0.00000
vt 0.00000 2.00000
vt 2.00000 2.00000
vt 2.00000 0.00000
vt 0.00000 0.00000
vt 0.00000 2.00000
vt 2.00000 2.00000
vt 2.00000 0.00000
vt 0.00000 0.00000
vt 0.00000 2.00000
vt 2.00000 2.00000
vt 2.00000 0.00000
vt 0.00000 0.00000
vt 0.00000 2.00000
vt 2.00000 2.00000
vt 2.00000 0.00000
vt 0.00000 0.00000
vt 0.00000 2.00000
vt 2.00000 2.00000
vt 2.00000 0.00000
vt 0.00000 0.00000
vt 0.00000 2.00000
vt 2.00000 2.00000
vt 2.00000 0.00000
vt 0.00000 0.00000
vt 0.00000 2.00000
vt 2.00000 2.00000
vt 2.00000 0.00000
vt 0.00000 0.00000
vt 0.00000 2.00000
vt 2.00000 2.00000
vt 2.00000 0.00000
vt 0.00000 0.00000
vt 0.00000 2.00000
vt 2.00000 2.00000
vt 2.00000 0.00000
vt 0.00000 0.00000
vt 0.00000 2.00000
vt 2.00000 2.00000
vt 2.00000 0.00000
vt 0.00000 0.00000
vt 0.00000 2.00000
vt 2.00000 2.00000
vt 2.00000 0.00000
vt 0.00000 0.00000
vt 0.00000 2.00000
vt 2.00000 2.00000
vt 2.00000 0.00000
vt 0.00000 0.00000
vt 0.00000 2.00000
vt 2.00000 2.00000
vt 2.00000 0.00000
vt 0.00000 0.00000
vt 0.00000 2.00000
vt 2.00000 2.00000
vt 2.00000 0.00000
vt 0.00000 0.00000
vt 0.00000 2.00000
vt 2.00000 2.00000
vt 2.00000 0.00000
vt 0.00000 0.00000
vt 0.00000 2.00000
vt 2.00000 2.00000
vt 2.00000 0.00000
vt 0.00000 0.00000
vt 0.00000 2.00000
vt 2.00000 2.00000
vt 2.00000 0.00000
vt 0.00000 0.00000
vt 0.00000 2.00000
vt 2.00000 2.00000
vt 2.00000 0.00000
vt 0.00000 0.00000
vt 0.00000 2.00000
vt 2.00000 2.00000
vt 2.00000 0.00000
vt 0.00000 0.00000
vt 0.00000 2.00000
vt 2.00000 2.00000
vt 2.00000 0.00000
vt 0.00000 0.00000
vt 0.00000 2.00000
vt 2.00000 2.00000
vt 2.00000 0.00000
vt 0.00000 0.00000
vt 0.00000 2.00000
vt 2.00000 2.00000
vt 2.00000 0.00000
vt 0.00000 0.00000
vt 0.00000 2.00000
vt 2.00000 2.00000
vt 2.00000 0.00000
vt 0.00000 0.00000
vt 0.00000 2.00000
vt 2.00000 2.00000
vt 2.00000 0.00000
vt 0.00000 0.00000
vt 0.00000 2.00000
vt 2.00000 2.00000
vt 2.00000 0.00000
vt 0.00000 0.00000
vt 0.00000 2.00000
vt 2.00000 2.00000
vt 2.00000 0.00000
vt 0.00000 0.00000
vt 0.00000 2.00000
vt 2.00000 2.00000
vt 2.00000 0.00000
vt 0.00000 0.00000
vt 0.00000 2.00000
vt 2.00000 2.00000
vt 2.00000 0.00000
vt 0.00000 0.00000
vt 0.00000 2.00000
vt 2.00000 2.00000
vt 2.00000 0.00000
vt 0.00000 0.00000
vt 0.00000 2.00000
vt 2.00000 2.00000
vt 2.00000 0.00000
vt 0.00000 0.00000
vt 0.00000 2.00000
vt 2.00000 2.00000
vt 2.00000 0.00000
vt 0.00000 0.00000
vt 0.00000 2.00000
vt 2.00000 2.00000
vt 2.00000 0.00000
vt 0.00000 0.00000
vt 0.00000 2.00000
vt 2.00000 2.00000
vt 2.00000 0.00000
vt 0.00000 0.00000
vt 0.00000 2.00000
vt 2.00000 2.00000
vt 2.00000 0.00000
vt 0.00000 0.00000
vt 0.00000 2.00000
vt 2.00000 2.00000
vt 2.00000 0.00000
vt 0.00000 0.00000
vt 0.00000 2.00000
vt 2.00000 2.00000
vt 2.00000 0.00000
vt 0.00000 0.00000
vt 0.00000 2.00000
vt 2.00000 2.00000
vt 2.00000 0.00000
vt 0.00000 0.00000
vt 0.00000 2.00000
vt 2.00000 2.00000
vt 2.00000 0.00000
vt 0.00000 0.00000
vt 0.00000 2.00000
vt 2.00000 2.00000
vt 2.00000 0.00000
vt 0.00000 0.00000
vt 0.00000 2.00000
vt 2.00000 2.00000
vt 2.00000 0.00000
vt 0.00000 0.00000
vt 0.00000 2.00000
vt 2.00000 2.00000
vt 2.00000 0.00000
vt 0.00000 0.00000
vt 0.00000 2.00000
vt 2.00000 2.00000
vt 2.00000 0.00000
vt 0.00000 0.00000
vt 0.00000 2.00000
vt 2.00000 2.00000
vt 2.00000 0.00000
vt 0.00000 0.00000
vt 0.00000 2.00000
vt 2.00000 2.00000
vt 2.00000 0.00000
vt 0.00000 0.00000
vt 0.00000 2.00000
vt 2.00000 2.00000
vt 2.00000 0.00000
vt 0.00000 0.00000
vt 0.00000 2.00000
vt 2.00000 2.00000
vt 2.00000 0.00000
vt 0.00000 0.00000
vt 0.00000 2.00000
vt 2.00000 2.00000
vt 2.00000 0.00000
vt 0.00000 0.00000
vt 0.00000 2.00000
vt 2.00000 2.00000
vt 2.00000 0.00000
vt 0.00000 0.00000
vt 0.00000 2.00000
vt 2.00000 2.00000
vt 2.00000 0.00000
vt 0.00000 0.00000
vt 0.00000 2.00000
vt 2.00000 2.00000
vt 2.00000 0.00000
vt 0.00000 0.00000
vt 0.00000 2.00000
vt 2.00000 2.00000
vt 2.00000 0.00000
vt 0.00000 0.00000
vt 0.00000 2.00000
vt 2.00000 2.00000
vt 2.00000 0.00000
vt 0.00000 0.00000
vt 0.00000 2.00000
vt 2.00000 2.00000
vt 2.00000 0.00000
vt 0.00000 0.00000
vt 0.00000 2.00000
vt 2.00000 2.00000
vt 2.00000 0.00000
vt 0.00000 0.00000
vt 0.00000 2.00000
vt 2.00000 2.00000
vt 2.00000 0.00000
vt 0.00000 0.00000
vn -0.9686 -0.2301 -0.0943
vn 0.9686 0.2301 0.0943
vn -0.5924 0.8042 0.0482
vn 0.5924 -0.8042 -0.0482
vn -0.5121 0.8584 -0.0286
vn 0.5121 -0.8584 0.0286
vn 0.5630 0.8190 0.1104
vn -0.5630 -0.8190 -0.1104
vn 0.9934 0.0737 0.0877
vn -0.9934 -0.0737 -0.0877
vn -0.6994 -0.7119 0.0642
vn 0.6994 0.7119 -0.0642
vn -0.0382 0.9992 -0.0093
vn 0.0382 -0.9992 0.0093
vn 0.9708 -0.1987 0.1343
vn -0.9708 0.1987 -0.1343
vn 0.9039 -0.4278 0.0004
vn -0.9039 0.4278 -0.0004
vn -0.2904 0.9544 -0.0698
vn 0.2904 -0.9544 0.0698
vn 0.3609 -0.9274 0.0982
vn -0.3609 0.9274 -0.0982
vn 0.6328 0.7728 0.0489
vn -0.6328 -0.7728 -0.0489
vn 0.9530 0.2754 0.1260
vn -0.9530 -0.2754 -0.1260
vn 0.9948 -0.0333 -0.0965
vn -0.9948 0.0333 0.0965
vn -0.0008 0.9901 0.1406
vn 0.0008 -0.9901 -0.1406
vn -0.4099 0.9008 -0.1430
vn 0.4099 -0.9008 0.1430
vn -0.4165 0.8998 -0.1300
vn 0.4165 -0.8998 0.1300
vn 0.5885 -0.8085 -0.0066
vn -0.5885 0.8085 0.0066
vn 0.1863 -0.9768 0.1053
vn -0.1863 0.9768 -0.1053
vn 0.9042 0.3974 -0.1563
vn -0.9042 -0.3974 0.1563
vn 0.8691 -0.4746 -0.1393
vn -0.8691 0.4746 0.1393
vn -0.9618 0.2445 0.1230
vn 0.9618 -0.2445 -0.1230
vn 0.9710 0.2269 -0.0752
vn -0.9710 -0.2269 0.0752
vn -0.7432 0.6690 -0.0075
vn 0.7432 -0.6690 0.0075
vn -0.8272 -0.5592 0.0542
vn 0.8272 0.5592 -0.0542
vn 0.8066 -0.5886 -0.0544
vn -0.8066 0.5886 0.0544
vn -0.8612 -0.4832 0.1578
vn 0.8612 0.4832 -0.1578
vn -0.7141 -0.6833 -0.1525
vn 0.7141 0.6833 0.1525
vn -0.1413 0.9833 0.1151
vn 0.1413 -0.9833 -0.1151
vn -0.4069 -0.9135 -0.0013
vn 0.4069 0.9135 0.0013
vn 0.8906 0.4548 -0.0105
vn -0.8906 -0.4548 0.0105
vn -0.9859 -0.1670 0.0120
vn 0.9859 0.1670 -0.0120
vn -0.7832 0.6208 -0.0337
vn 0.7832 -0.6208 0.0337
vn -0.9886 -0.0807 -0.1274
vn 0.9886 0.0807 0.1274
vn -0.7968 0.6035 -0.0291
vn 0.7968 -0.6035 0.0291
vn -0.4061 0.9132 -0.0339
vn 0.4061 -0.9132 0.0339
vn 0.0905 -0.9909 0.0996
vn -0.0905 0.9909 -0.0996
vn 0.3959 -0.9177 -0.0325
vn -0.3959 0.9177 0.0325
vn -0.0640 0.9912 -0.1160
vn 0.0640 -0.9912 0.1160
vn -0.7110 -0.6861 0.1540
vn 0.7110 0.6861 -0.1540
vn -0.0651 -0.9974 -0.0315
vn 0.0651 0.9974 0.0315
vn 0.9743 0.1488 0.1694
vn -0.9743 -0.1488 -0.1694
vn -0.0259 -0.9995 0.0169
vn 0.0259 0.9995 -0.0169
vn -0.9965 -0.0068 -0.0839
vn 0.9965 0.0068 0.0839
vn 0.9642 0.2641 -0.0254
vn -0.9642 -0.2641 0.0254
vn 0.4829 0.8755 -0.0179
vn -0.4829 -0.8755 0.0179
vn 0.9984 0.0492 -0.0271
vn -0.9984 -0.0492 0.0271
vn -0.9966 -0.0818 0.0042
vn 0.9966 0.0818 -0.0042
vn 0.9277 -0.3455 -0.1416
vn -0.9277 0.3455 0.1416
vn -0.9472 0.3206 -0.0093
vn 0.9472 -0.3206 0.0093
vn 0.7207 -0.6916 0.0467
vn -0.7207 0.6916 -0.0467
vn 0.8013 -0.5832 0.1335
vn -0.8013 0.5832 -0.1335
vn 0.8127 0.5698 -0.1216
vn -0.8127 -0.5698 0.1216
vn -0.7490 0.6469 0.1432
vn 0.7490 -0.6469 -0.1432
vn 0.8433 0.5179 -0.1437
vn -0.8433 -0.5179 0.1437
vn 0.9296 0.3377 -0.1477
vn -0.9296 -0.3377 0.1477
vn -0.4615 0.8864 -0.0365
vn 0.4615 -0.8864 0.0365
vn -0.9355 0.3003 0.1862
vn 0.9355 -0.3003 -0.1862
vn 0.9923 -0.1087 0.0595
vn -0.9923 0.1087 -0.0595
vn -0.2361 0.9676 0.0898
vn 0.2361 -0.9676 -0.0898
vn 0.8877 -0.4596 0.0286
vn -0.8877 0.4596 -0.0286
vn -0.9941 0.1038 0.0309
vn 0.9941 -0.1038 -0.0309
vn 0.3467 -0.9374 -0.0340
vn -0.3467 0.9374 0.0340
vn -0.1435 -0.9792 0.1432
vn 0.1435 0.9792 -0.1432
vn 0.9913 0.0071 -0.1317
vn -0.9913 -0.0071 0.1317
vn -0.4273 -0.8991 -0.0953
vn 0.4273 0.8991 0.0953
vn -0.7993 0.5970 0.0685
vn 0.7993 -0.5970 -0.0685
vn -0.9796 0.1958 0.0457
vn 0.9796 -0.1958 -0.0457
vn -0.6489 0.7444 0.1572
vn 0.6489 -0.7444 -0.1572
vn 0.3643 0.9156 -0.1700
vn -0.3643 -0.9156 0.1700
f 1/1/1 3/3/1 2/2/1
f 1/1/1 4/4/1 3/3/1
f 5/5/2 7/7/2 8/8/2
f 5/5/2 6/6/2 7/7/2
f 9/9/3 11/11/3 10/10/3
f 9/9/3 12/12/3 11/11/3
f 13/13/4 15/15/4 16/16/4
f 13/13/4 14/14/4 15/15/4
f 17/17/5 19/19/5 18/18/5
f 17/17/5 20/20/5 19/19/5
f 21/21/6 23/23/6 24/24/6
f 21/21/6 22/22/6 23/23/6
f 25/25/7 27/27/7 26/26/7
f 25/25/7 28/28/7 27/27/7
f 29/29/8 31/31/8 32/32/8
f 29/29/8 30/30/8 31/31/8
f 33/33/9 35/35/9 34/34/9
f 33/33/9 36/36/9 35/35/9
f 37/37/10 39/39/10 40/40/10
f 37/37/10 38/38/10 39/39/10
f 41/41/11 43/43/11 42/42/11
f 41/41/11 44/44/11 43/43/11
f 45/45/12 47/47/12 48/48/12
f 45/45/12 46/46/12 47/47/12
f 49/49/13 51/51/13 50/50/13
f 49/49/13 52/52/13 51/51/13
f 53/53/14 55/55/14 56/56/14
f 53/53/14 54/54/14 55/55/14
f 57/57/15 59/59/15 58/58/15
f 57/57/15 60/60/15 59/59/15
f 61/61/16 63/63/16 64/64/16
f 61/61/16 62/62/16 63/63/16
f 65/65/17 67/67/17 66/66/17
f 65/65/17 68/68/17 67/67/17
f 69/69/18 71/71/18 72/72/18
f 69/69/18 70/70/18 71/71/18
f 73/73/19 75/75/19 74/74/19
f 73/73/19 76/76/19 75/75/19
f 77/77/20 79/79/20 80/80/20
f 77/77/20 78/78/20 79/79/20
f 81/81/21 83/83/21 82/82/21
f 81/81/21 84/84/21 83/83/21
f 85/85/22 87/87/22 88/88/22
f 85/85/22 86/86/22 87/87/22
f 89/89/23 91/91/23 90/90/23
f 89/89/23 92/92/23 91/91/23
f 93/93/24 95/95/24 96/96/24
f 93/93/24 94/94/24 95/95/24
f 97/97/25 99/99/25 98/98/25
f 97/97/25 100/100/25 99/99/25
f 101/101/26 103/103/26 104/104/26
f 101/101/26 102/102/26 103/103/26
f 105/105/27 107/107/27 106/106/27
f 105/105/27 108/108/27 107/107/27
f 109/109/28 111/111/28 112/112/28
f 109/109/28 110/110/28 111/111/28
f 113/113/29 115/115/29 114/114/29
f 113/113/29 116/116/29 115/115/29
f 117/117/30 119/119/30 120/120/30
f 117/117/30 118/118/30 119/119/30
f 121/121/31 123/123/31 122/122/31
f 121/121/31 124/124/31 123/123/31
f 125/125/32 127/127/32 128/128/32
f 125/125/32 126/126/32 127/127/32
f 129/129/33 131/131/33 130/130/33
f 129/129/33 132/132/33 131/131/33
f 133/133/34 135/135/34 136/136/34
f 133/133/34 134/134/34 135/135/34
f 137/137/35 139/139/35 138/138/35
f 137/137/35 140/140/35 139/139/35
f 141/141/36 143/143/36 144/144/36
f 141/141/36 142/142/36 143/143/36
f 145/145/37 147/147/37 146/146/37
f 145/145/37 148/148/37 147/147/37
f 149/149/38 151/151/38 152/152/38
f 149/149/38 150/150/38 151/151/38
f 153/153/39 155/155/39 154/154/39
f 153/153/39 156/156/39 155/155/39
f 157/157/40 159/159/40 160/160/40
f 157/157/40 158/158/40 159/159/40
f 161/161/41 163/163/41 162/162/41
f 161/161/41 164/164/41 163/163/41
f 165/165/42 167/167/42 168/168/42
f 165/165/42 166/166/42 167/167/42
f 169/169/43 171/171/43 170/170/43
f 169/169/43 172/172/43 171/171/43
f 173/173/44 175/175/44 176/176/44
f 173/173/44 174/174/44 175/175/44
f 177/177/45 179/179/45 178/178/45
f 177/177/45 180/180/45 179/179/45
f 181/181/46 183/183/46 184/184/46
f 181/181/46 182/182/46 183/183/46
f 185/185/47 187/187/47 186/186/47
f 185/185/47 188/188/47 187/187/47
f 189/189/48 191/191/48 192/192/48
f 189/189/48 190/190/48 191/191/48
f 193/193/49 195/195/49 194/194/49
f 193/193/49 196/196/49 195/195/49
f 197/197/50 199/199/50 200/200/50
f 197/197/50 198/198/50 199/199/50
f 201/201/51 203/203/51 202/202/51
f 201/201/51 204/204/51 203/203/51
f 205/205/52 207/207/52 208/208/52
f 205/205/52 206/206/52 207/207/52
f 209/209/53 211/211/53 210/210/53
f 209/209/53 212/212/53 211/211/53
f 213/213/54 215/215/54 216/216/54
f 213/213/54 214/214/54 215/215/54
f 217/217/55 219/219/55 218/218/55
f 217/217/55 220/220/55 219/219/55
f 221/221/56 223/223/56 224/224/56
f 221/221/56 222/222/56 223/223/56
f 225/225/57 227/227/57 226/226/57
f 225/225/57 228/228/57 227/227/57
f 229/229/58 231/231/58 232/232/58
f 229/229/58 230/230/58 231/231/58
f 233/233/59 235/235/59 234/234/59
f 233/233/59 236/236/59 235/235/59
f 237/237/60 239/239/60 240/240/60
f 237/237/60 238/238/60 239/239/60
f 241/241/61 243/243/61 242/242/61
f 241/241/61 244/244/61 243/243/61
f 245/245/62 247/247/62 248/248/62
f 245/245/62 246/246/62 247/247/62
f 249/249/63 251/251/63 250/250/63
f 249/249/63 252/252/63 251/251/63
f 253/253/64 255/255/64 256/256/64
f 253/253/64 254/254/64 255/255/64
f 257/257/65 259/259/65 258/258/65
f 257/257/65 260/260/65 259/259/65
f 261/261/66 263/263/66 264/264/66
f 261/261/66 262/262/66 263/263/66
f 265/265/67 267/267/67 266/266/67
f 265/265/67 268/268/67 267/267/67
f 269/269/68 271/271/68 272/272/68
f 269/269/68 270/270/68 271/271/68
f 273/273/69 275/275/69 274/274/69
f 273/273/69 276/276/69 275/275/69
f 277/277/70 279/279/70 280/280/70
f 277/277/70 278/278/70 279/279/70
f 281/281/71 283/283/71 282/282/71
f 281/281/71 284/284/71 283/283/71
f 285/285/72 287/287/72 288/288/72
f 285/285/72 286/286/72 287/287/72
f 289/289/73 291/291/73 290/290/73
f 289/289/73 292/292/73 291/291/73
f 293/293/74 295/295/74 296/296/74
f 293/293/74 294/294/74 295/295/74
f 297/297/75 299/299/75 298/298/75
f 297/297/75 300/300/75 299/299/75
f 301/301/76 303/303/76 304/304/76
f 301/301/76 302/302/76 303/303/76
f 305/305/77 307/307/77 306/306/77
f 305/305/77 308/308/77 307/307/77
f 309/309/78 311/311/78 312/312/78
f 309/309/78 310/310/78 311/311/78
f 313/313/79 315/315/79 314/314/79
f 313/313/79 316/316/79 315/315/79
f 317/317/80 319/319/80 320/320/80
f 317/317/80 318/318/80 319/319/80
f 321/321/81 323/323/81 322/322/81
f 321/321/81 324/324/81 323/323/81
f 325/325/82 327/327/82 328/328/82
f 325/325/82 326/326/82 327/327/82
f 329/329/83 331/331/83 330/330/83
f 329/329/83 332/332/83 331/331/83
f 333/333/84 335/335/84 336/336/84
f 333/333/84 334/334/84 335/335/84
f 337/337/85 339/339/85 338/338/85
f 337/337/85 340/340/85 339/339/85
f 341/341/86 343/343/86 344/344/86
f 341/341/86 342/342/86 343/343/86
f 345/345/87 347/347/87 346/346/87
f 345/345/87 348/348/87 347/347/87
f 349/349/88 351/351/88 352/352/88
f 349/349/88 350/350/88 351/351/88
f 353/353/89 355/355/89 354/354/89
f 353/353/89 356/356/89 355/355/89
f 357/357/90 359/359/90 360/360/90
f 357/357/90 358/358/90 359/359/90
f 361/361/91 363/363/91 362/362/91
f 361/361/91 364/364/91 363/363/91
f 365/365/92 367/367/92 368/368/92
f 365/365/92 366/366/92 367/367/92
f 369/369/93 371/371/93 370/370/93
f 369/369/93 372/372/93 371/371/93
f 373/373/94 375/375/94 376/376/94
f 373/373/94 374/374/94 375/375/94
f 377/377/95 379/379/95 378/378/95
f 377/377/95 380/380/95 379/379/95
f 381/381/96 383/383/96 384/384/96
f 381/381/96 382/382/96 383/383/96
f 385/385/97 387/387/97 386/386/97
f 385/385/97 388/388/97 387/387/97
f 389/389/98 391/391/98 392/392/98
f 389/389/98 390/390/98 391/391/98
f 393/393/99 395/395/99 394/394/99
f 393/393/99 396/396/99 395/395/99
f 397/397/100 399/399/100 400/400/100
f 397/397/100 398/398/100 399/399/100
f 401/401/101 403/403/101 402/402/101
f 401/401/101 404/404/101 403/403/101
f 405/405/102 407/407/102 408/408/102
f 405/405/102 406/406/102 407/407/102
f 409/409/103 411/411/103 410/410/103
f 409/409/103 412/412/103 411/411/103
f 413/413/104 415/415/104 416/416/104
f 413/413/104 414/414/104 415/415/104
f 417/417/105 419/419/105 418/418/105
f 417/417/105 420/420/105 419/419/105
f 421/421/106 423/423/106 424/424/106
f 421/421/106 422/422/106 423/423/106
f 425/425/107 427/427/107 426/426/107
f 425/425/107 428/428/107 427/427/107
f 429/429/108 431/431/108 432/432/108
f 429/429/108 430/430/108 431/431/108
f 433/433/109 435/435/109 434/434/109
f 433/433/109 436/436/109 435/435/109
f 437/437/110 439/439/110 440/440/110
f 437/437/110 438/438/110 439/439/110
f 441/441/111 443/443/111 442/442/111
f 441/441/111 444/444/111 443/443/111
f 445/445/112 447/447/112 448/448/112
f 445/445/112 446/446/112 447/447/112
f 449/449/113 451/451/113 450/450/113
f 449/449/113 452/452/113 451/451/113
f 453/453/114 455/455/114 456/456/114
f 453/453/114 454/454/114 455/455/114
f 457/457/115 459/459/115 458/458/115
f 457/457/115 460/460/115 459/459/115
f 461/461/116 463/463/116 464/464/116
f 461/461/116 462/462/116 463/463/116
f 465/465/117 467/467/117 466/466/117
f 465/465/117 468/468/117 467/467/117
f 469/469/118 471/471/118 472/472/118
f 469/469/118 470/470/118 471/471/118
f 473/473/119 475/475/119 474/474/119
f 473/473/119 476/476/119 475/475/119
f 477/477/120 479/479/120 480/480/120
f 477/477/120 478/478/120 479/479/120
f 481/481/121 483/483/121 482/482/121
f 481/481/121 484/484/121 483/483/121
f 485/485/122 487/487/122 488/488/122
f 485/485/122 486/486/122 487/487/122
f 489/489/123 491/491/123 490/490/123
f 489/489/123 492/492/123 491/491/123
f 493/493/124 495/495/124 496/496/124
f 493/493/124 494/494/124 495/495/124
f 497/497/125 499/499/125 498/498/125
f 497/497/125 500/500/125 499/499/125
f 501/501/126 503/503/126 504/504/126
f 501/501/126 502/502/126 503/503/126
f 505/505/127 507/507/127 506/506/127
f 505/505/127 508/508/127 507/507/127
f 509/509/128 511/511/128 512/512/128
f 509/509/128 510/510/128 511/511/128
f 513/513/129 515/515/129 514/514/129
f 513/513/129 516/516/129 515/515/129
f 517/517/130 519/519/130 520/520/130
f 517/517/130 518/518/130 519/519/130
f 521/521/131 523/523/131 522/522/131
f 521/521/131 524/524/131 523/523/131
f 525/525/132 527/527/132 528/528/132
f 525/525/132 526/526/132 527/527/132
f 529/529/133 531/531/133 530/530/133
f 529/529/133 532/532/133 531/531/133
f 533/533/134 535/535/134 536/536/134
f 533/533/134 534/534/134 535/535/134
f 537/537/135 539/539/135 538/538/135
f 537/537/135 540/540/135 539/539/135
f 541/541/136 543/543/136 544/544/136
f 541/541/136 542/542/136 543/543/136
f 545/545/137 547/547/137 546/546/137
f 545/545/137 548/548/137 547/547/137
f 549/549/138 551/551/138 552/552/138
f 549/549/138 550/550/138 551/551/138
f 553/553/139 555/555/139 554/554/139
f 553/553/139 556/556/139 555/555/139
f 557/557/140 559/559/140 560/560/140
f 557/557/140 558/558/140 559/559/140
