# JudeanFloraV1; canonical UE cm (X east, +Y south, Z up), written with Y reflected and triangle winding reversed for the legacy OBJ importer adapter. One o object, no g groups, so the importer creates exactly one material slot.
# date palm (Phoenix dactylifera), StreetTreesV1 seed 2, LOD2 bark
# height 9.0-16.0 m, crown 5.5-8.5 m; source: Zohary, M., Plants of the Bible (Cambridge University Press, 1982), species entry Phoenix dactylifera; 9-16 m with a 5.5-8.5 m crown of pinnate fronds
# branching is recursive with da Vinci child radii; leaf sprays are anchored to branch tips. Stylised habit, not a survey of any tree.
o SM_StreetTreesV1_DatePalm_S2_L2_Bark
s off
v 0.00000 26.57120 0.66428
v 23.55901 0.01839 -0.73576
v 0.00000 -26.57120 -0.66428
v -23.55901 -0.01839 0.73576
v 17.65889 9.06639 565.66422
v 38.19310 -14.09504 563.80179
v 17.65889 -37.32061 564.50454
v -2.87532 -14.15917 566.36697
v 70.63555 -8.43841 1130.66415
v 88.13685 -28.21323 1128.52904
v 70.63555 -48.07003 1129.67336
v 53.13424 -28.29521 1131.80848
vt 0.00000 0.00000
vt 0.25000 0.00000
vt 0.50000 0.00000
vt 0.75000 0.00000
vt 0.00000 0.50000
vt 0.25000 0.50000
vt 0.50000 0.50000
vt 0.75000 0.50000
vt 0.00000 1.00000
vt 0.25000 1.00000
vt 0.50000 1.00000
vt 0.75000 1.00000
vn 0.7479 0.6638 -0.0028
vn 0.7482 0.6635 -0.0028
vn 0.7479 -0.6628 -0.0360
vn 0.7482 -0.6625 -0.0360
vn -0.7477 -0.6640 0.0107
vn -0.7478 -0.6638 0.0107
vn -0.7477 0.6626 0.0439
vn -0.7478 0.6625 0.0439
vn 0.7454 0.6648 -0.0493
vn 0.7453 0.6649 -0.0493
vn 0.7454 -0.6615 -0.0825
vn 0.7453 -0.6616 -0.0825
vn -0.7448 -0.6649 0.0572
vn -0.7445 -0.6651 0.0571
vn -0.7448 0.6612 0.0903
vn -0.7446 0.6614 0.0903
vn 0.0933 -0.0249 0.9953
vn -0.0312 0.0250 -0.9992
f 1/1/1 6/6/1 2/2/1
f 1/1/2 5/5/2 6/6/2
f 2/2/3 7/7/3 3/3/3
f 2/2/4 6/6/4 7/7/4
f 3/3/5 8/8/5 4/4/5
f 3/3/6 7/7/6 8/8/6
f 4/4/7 5/5/7 1/1/7
f 4/4/8 8/8/8 5/5/8
f 5/5/9 10/10/9 6/6/9
f 5/5/10 9/9/10 10/10/10
f 6/6/11 11/11/11 7/7/11
f 6/6/12 10/10/12 11/11/12
f 7/7/13 12/12/13 8/8/13
f 7/7/14 11/11/14 12/12/14
f 8/8/15 9/9/15 5/5/15
f 8/8/16 12/12/16 9/9/16
f 9/9/17 11/11/17 10/10/17
f 9/9/17 12/12/17 11/11/17
f 4/4/18 2/2/18 3/3/18
f 4/4/18 1/1/18 2/2/18
