# JudeanFloraV1; canonical UE cm (X east, +Y south, Z up), written with Y reflected and triangle winding reversed for the legacy OBJ importer adapter. One o object, no g groups, so the importer creates exactly one material slot.
# Italian cypress (Cupressus sempervirens), StreetTreesV1 seed 2, LOD2 bark
# height 10.0-19.0 m, crown 1.8-3.8 m; source: Zohary, M., Plants of the Bible (Cambridge University Press, 1982), species entry Cupressus sempervirens; the columnar form is 1.8-3.8 m across at 10-19 m
# branching is recursive with da Vinci child radii; leaf sprays are anchored to branch tips. Stylised habit, not a survey of any tree.
o SM_StreetTreesV1_Cypress_S2_L2_Bark
s off
v 0.00000 28.59738 -0.08174
v 27.19749 0.00149 0.52228
v 0.00000 -28.59738 0.08174
v -27.19749 -0.00149 -0.52228
v -1.66737 22.93458 104.24891
v 19.51977 -0.01789 105.05623
v -2.34632 -22.33717 104.76262
v -23.53346 0.61530 103.95529
v -4.76083 20.66545 208.76976
v 12.01686 1.93506 209.35766
v -5.85382 -15.76403 209.14410
v -22.63151 2.96637 208.55621
v -6.10040 17.50948 313.32145
v 7.42369 1.95069 313.57107
v -7.44419 -12.33156 313.62262
v -20.96828 3.22723 313.37300
v -5.92278 17.02528 417.82974
v 5.13544 3.91374 418.08903
v -7.41307 -7.78230 418.12561
v -18.47129 5.32924 417.86632
v -7.80832 15.56958 522.56103
v 1.28883 4.44756 522.64313
v -9.36789 -5.18794 522.40685
v -18.46504 5.93408 522.32475
v -9.35584 11.94981 627.04848
v -1.92740 2.58843 627.04703
v -10.91169 -5.29079 626.91431
v -18.34014 4.07059 626.91576
v -9.65763 10.69563 731.48109
v -3.75605 3.02773 731.52483
v -11.12644 -3.24159 731.53046
v -17.02802 4.42630 731.48672
v -10.39203 10.06689 730.91122
v -4.04260 3.68202 731.02598
v -10.39203 -2.61286 732.10033
v -16.74147 3.77201 731.98557
v 6.12951 29.09515 947.93816
v 11.17335 24.03564 947.95992
v 6.12951 19.00993 948.54415
v 1.08567 24.06944 948.52238
v 13.94041 33.59029 1166.28754
v 17.67017 29.85213 1166.12582
v 13.94041 26.11951 1166.38571
v 10.21065 29.85767 1166.54742
v 30.76180 32.19853 1384.00085
v 33.17433 29.77887 1383.81356
v 30.76180 27.35908 1383.99915
v 28.34927 29.77874 1384.18644
v -10.39203 5.46760 731.80481
v -8.65303 3.77918 731.20215
v -10.39203 1.98644 731.20674
v -12.13104 3.67485 731.80940
v 9.86540 -14.24957 844.41443
v 11.25453 -15.60699 844.02222
v 9.86540 -17.01960 843.99117
v 8.47627 -15.66218 844.38338
v 19.85478 -29.98777 959.00972
v 20.88561 -31.00129 958.77060
v 19.85478 -32.04215 958.73853
v 18.82396 -31.02862 958.97765
v 33.27053 -45.20617 1073.35090
v 33.93715 -45.86170 1073.18758
v 33.27053 -46.53721 1073.17803
v 32.60391 -45.88167 1073.34135
v -10.39203 5.49230 731.55881
v -8.70342 3.71149 732.02285
v -10.39203 1.96173 731.45275
v -12.08065 3.74255 730.98870
v -45.63367 1.67370 846.51210
v -44.29113 0.26683 846.89208
v -45.63367 -1.12817 846.47060
v -46.97622 0.27870 846.09062
v -79.21404 1.34874 962.05296
v -78.21058 0.30597 962.28255
v -79.21404 -0.72269 961.99634
v -80.21751 0.32007 961.76675
v -105.50145 -5.42006 1079.29417
v -104.84656 -6.09817 1079.40398
v -105.50145 -6.76028 1079.22097
v -106.15635 -6.08217 1079.11116
vt 0.00000 0.00000
vt 0.25000 0.00000
vt 0.50000 0.00000
vt 0.75000 0.00000
vt 0.00000 0.14286
vt 0.25000 0.14286
vt 0.50000 0.14286
vt 0.75000 0.14286
vt 0.00000 0.28571
vt 0.25000 0.28571
vt 0.50000 0.28571
vt 0.75000 0.28571
vt 0.00000 0.42857
vt 0.25000 0.42857
vt 0.50000 0.42857
vt 0.75000 0.42857
vt 0.00000 0.57143
vt 0.25000 0.57143
vt 0.50000 0.57143
vt 0.75000 0.57143
vt 0.00000 0.71429
vt 0.25000 0.71429
vt 0.50000 0.71429
vt 0.75000 0.71429
vt 0.00000 0.85714
vt 0.25000 0.85714
vt 0.50000 0.85714
vt 0.75000 0.85714
vt 0.00000 1.00000
vt 0.25000 1.00000
vt 0.50000 1.00000
vt 0.75000 1.00000
vt 0.00000 0.00000
vt 0.25000 0.00000
vt 0.50000 0.00000
vt 0.75000 0.00000
vt 0.00000 0.33333
vt 0.25000 0.33333
vt 0.50000 0.33333
vt 0.75000 0.33333
vt 0.00000 0.66667
vt 0.25000 0.66667
vt 0.50000 0.66667
vt 0.75000 0.66667
vt 0.00000 1.00000
vt 0.25000 1.00000
vt 0.50000 1.00000
vt 0.75000 1.00000
vt 0.00000 0.00000
vt 0.25000 0.00000
vt 0.50000 0.00000
vt 0.75000 0.00000
vt 0.00000 0.33333
vt 0.25000 0.33333
vt 0.50000 0.33333
vt 0.75000 0.33333
vt 0.00000 0.66667
vt 0.25000 0.66667
vt 0.50000 0.66667
vt 0.75000 0.66667
vt 0.00000 1.00000
vt 0.25000 1.00000
vt 0.50000 1.00000
vt 0.75000 1.00000
vt 0.00000 0.00000
vt 0.25000 0.00000
vt 0.50000 0.00000
vt 0.75000 0.00000
vt 0.00000 0.33333
vt 0.25000 0.33333
vt 0.50000 0.33333
vt 0.75000 0.33333
vt 0.00000 0.66667
vt 0.25000 0.66667
vt 0.50000 0.66667
vt 0.75000 0.66667
vt 0.00000 1.00000
vt 0.25000 1.00000
vt 0.50000 1.00000
vt 0.75000 1.00000
vn 0.7230 0.6888 0.0532
vn 0.7331 0.6784 0.0485
vn 0.7230 -0.6885 0.0574
vn 0.7130 -0.6992 0.0522
vn -0.7246 -0.6885 0.0295
vn -0.7350 -0.6776 0.0240
vn -0.7246 0.6887 0.0258
vn -0.7143 0.6995 0.0209
vn 0.7335 0.6785 0.0401
vn 0.7438 0.6674 0.0365
vn 0.7122 -0.6987 0.0679
vn 0.7019 -0.7094 0.0638
vn -0.7350 -0.6777 0.0216
vn -0.7450 -0.6668 0.0170
vn -0.7143 0.6998 -0.0059
vn -0.7036 0.7105 -0.0099
vn 0.7440 0.6674 0.0327
vn 0.7542 0.6560 0.0295
vn 0.7031 -0.7103 0.0340
vn 0.6925 -0.7208 0.0306
vn -0.7450 -0.6669 0.0135
vn -0.7548 -0.6559 0.0101
vn -0.7037 0.7104 0.0124
vn -0.6927 0.7212 0.0092
vn 0.7547 0.6561 0.0042
vn 0.7644 0.6447 0.0017
vn 0.6925 -0.7208 0.0312
vn 0.6816 -0.7312 0.0287
vn -0.7546 -0.6554 0.0312
vn -0.7644 -0.6441 0.0283
vn -0.6927 0.7212 0.0045
vn -0.6818 0.7315 0.0016
vn 0.7639 0.6448 0.0248
vn 0.7738 0.6331 0.0227
vn 0.6815 -0.7311 0.0310
vn 0.6701 -0.7418 0.0284
vn -0.7645 -0.6447 0.0038
vn -0.7741 -0.6331 0.0012
vn -0.6818 0.7315 -0.0021
vn -0.6706 0.7418 -0.0043
vn 0.7734 0.6329 0.0351
vn 0.7829 0.6213 0.0331
vn 0.6705 -0.7418 0.0092
vn 0.6593 -0.7519 0.0069
vn -0.7740 -0.6331 -0.0104
vn -0.7833 -0.6215 -0.0122
vn -0.6708 0.7415 0.0158
vn -0.6594 0.7517 0.0142
vn 0.7833 0.6216 0.0111
vn 0.7924 0.6099 0.0096
vn 0.6591 -0.7519 0.0161
vn 0.6479 -0.7616 0.0145
vn -0.7833 -0.6216 0.0119
vn -0.7925 -0.6098 0.0103
vn -0.6594 0.7518 0.0071
vn -0.6479 0.7617 0.0055
vn -0.0025 0.0038 1.0000
vn 0.0192 -0.0029 -0.9998
vn 0.7054 0.6994 -0.1151
vn 0.7037 0.7011 -0.1150
vn 0.7054 -0.7086 0.0169
vn 0.7067 -0.7073 0.0168
vn -0.7048 -0.6986 0.1235
vn -0.7030 -0.7003 0.1236
vn -0.7048 0.7094 -0.0085
vn -0.7063 0.7079 -0.0082
vn 0.7077 0.7054 -0.0399
vn 0.7065 0.7066 -0.0398
vn 0.7057 -0.7085 -0.0022
vn 0.7073 -0.7069 -0.0022
vn -0.7075 -0.7051 0.0483
vn -0.7060 -0.7065 0.0484
vn -0.7052 0.7090 0.0106
vn -0.7070 0.7072 0.0108
vn 0.7059 0.7065 -0.0500
vn 0.7053 0.7071 -0.0500
vn 0.7047 -0.7077 -0.0504
vn 0.7053 -0.7071 -0.0505
vn -0.7054 -0.7064 0.0585
vn -0.7047 -0.7071 0.0585
vn -0.7041 0.7077 0.0589
vn -0.7047 0.7071 0.0590
vn 0.0771 -0.0003 0.9970
vn -0.0757 -0.0931 -0.9928
vn 0.6967 0.7174 0.0003
vn 0.6988 0.7153 -0.0005
vn 0.6967 -0.6764 -0.2391
vn 0.6949 -0.6781 -0.2392
vn -0.6959 -0.7182 0.0040
vn -0.6982 -0.7159 0.0048
vn -0.6959 0.6756 0.2435
vn -0.6942 0.6773 0.2434
vn 0.7036 0.7096 0.0361
vn 0.7049 0.7084 0.0359
vn 0.7064 -0.6913 -0.1520
vn 0.7046 -0.6931 -0.1521
vn -0.7031 -0.7104 -0.0318
vn -0.7045 -0.7090 -0.0315
vn -0.7059 0.6908 0.1564
vn -0.7042 0.6926 0.1565
vn 0.7025 0.7116 0.0123
vn 0.7026 0.7115 0.0123
vn 0.7028 -0.6908 -0.1699
vn 0.7026 -0.6910 -0.1699
vn -0.7020 -0.7121 -0.0079
vn -0.7021 -0.7120 -0.0079
vn -0.7023 0.6902 0.1743
vn -0.7021 0.6904 0.1743
vn 0.1155 -0.1279 0.9850
vn -0.1744 0.1667 -0.9705
vn 0.6755 0.7005 0.2303
vn 0.6724 0.7037 0.2295
vn 0.6755 -0.7131 0.1878
vn 0.6784 -0.7100 0.1889
vn -0.6767 -0.7006 -0.2262
vn -0.6737 -0.7038 -0.2253
vn -0.6767 0.7129 -0.1838
vn -0.6797 0.7099 -0.1847
vn 0.6813 0.7042 0.2000
vn 0.6835 0.7019 0.2006
vn 0.6754 -0.7101 0.1988
vn 0.6735 -0.7121 0.1982
vn -0.6825 -0.7042 -0.1959
vn -0.6845 -0.7020 -0.1965
vn -0.6767 0.7101 -0.1947
vn -0.6747 0.7121 -0.1941
vn 0.6851 0.7021 0.1942
vn 0.6896 0.6975 0.1949
vn 0.6940 -0.7101 0.1190
vn 0.6896 -0.7146 0.1177
vn -0.6862 -0.7022 -0.1900
vn -0.6905 -0.6977 -0.1908
vn -0.6949 0.7099 -0.1148
vn -0.6905 0.7144 -0.1137
vn -0.2185 -0.0532 0.9744
vn 0.2929 0.0287 -0.9557
f 1/1/1 6/6/1 2/2/1
f 1/1/2 5/5/2 6/6/2
f 2/2/3 7/7/3 3/3/3
f 2/2/4 6/6/4 7/7/4
f 3/3/5 8/8/5 4/4/5
f 3/3/6 7/7/6 8/8/6
f 4/4/7 5/5/7 1/1/7
f 4/4/8 8/8/8 5/5/8
f 5/5/9 10/10/9 6/6/9
f 5/5/10 9/9/10 10/10/10
f 6/6/11 11/11/11 7/7/11
f 6/6/12 10/10/12 11/11/12
f 7/7/13 12/12/13 8/8/13
f 7/7/14 11/11/14 12/12/14
f 8/8/15 9/9/15 5/5/15
f 8/8/16 12/12/16 9/9/16
f 9/9/17 14/14/17 10/10/17
f 9/9/18 13/13/18 14/14/18
f 10/10/19 15/15/19 11/11/19
f 10/10/20 14/14/20 15/15/20
f 11/11/21 16/16/21 12/12/21
f 11/11/22 15/15/22 16/16/22
f 12/12/23 13/13/23 9/9/23
f 12/12/24 16/16/24 13/13/24
f 13/13/25 18/18/25 14/14/25
f 13/13/26 17/17/26 18/18/26
f 14/14/27 19/19/27 15/15/27
f 14/14/28 18/18/28 19/19/28
f 15/15/29 20/20/29 16/16/29
f 15/15/30 19/19/30 20/20/30
f 16/16/31 17/17/31 13/13/31
f 16/16/32 20/20/32 17/17/32
f 17/17/33 22/22/33 18/18/33
f 17/17/34 21/21/34 22/22/34
f 18/18/35 23/23/35 19/19/35
f 18/18/36 22/22/36 23/23/36
f 19/19/37 24/24/37 20/20/37
f 19/19/38 23/23/38 24/24/38
f 20/20/39 21/21/39 17/17/39
f 20/20/40 24/24/40 21/21/40
f 21/21/41 26/26/41 22/22/41
f 21/21/42 25/25/42 26/26/42
f 22/22/43 27/27/43 23/23/43
f 22/22/44 26/26/44 27/27/44
f 23/23/45 28/28/45 24/24/45
f 23/23/46 27/27/46 28/28/46
f 24/24/47 25/25/47 21/21/47
f 24/24/48 28/28/48 25/25/48
f 25/25/49 30/30/49 26/26/49
f 25/25/50 29/29/50 30/30/50
f 26/26/51 31/31/51 27/27/51
f 26/26/52 30/30/52 31/31/52
f 27/27/53 32/32/53 28/28/53
f 27/27/54 31/31/54 32/32/54
f 28/28/55 29/29/55 25/25/55
f 28/28/56 32/32/56 29/29/56
f 29/29/57 31/31/57 30/30/57
f 29/29/57 32/32/57 31/31/57
f 4/4/58 2/2/58 3/3/58
f 4/4/58 1/1/58 2/2/58
f 33/33/59 38/38/59 34/34/59
f 33/33/60 37/37/60 38/38/60
f 34/34/61 39/39/61 35/35/61
f 34/34/62 38/38/62 39/39/62
f 35/35/63 40/40/63 36/36/63
f 35/35/64 39/39/64 40/40/64
f 36/36/65 37/37/65 33/33/65
f 36/36/66 40/40/66 37/37/66
f 37/37/67 42/42/67 38/38/67
f 37/37/68 41/41/68 42/42/68
f 38/38/69 43/43/69 39/39/69
f 38/38/70 42/42/70 43/43/70
f 39/39/71 44/44/71 40/40/71
f 39/39/72 43/43/72 44/44/72
f 40/40/73 41/41/73 37/37/73
f 40/40/74 44/44/74 41/41/74
f 41/41/75 46/46/75 42/42/75
f 41/41/76 45/45/76 46/46/76
f 42/42/77 47/47/77 43/43/77
f 42/42/78 46/46/78 47/47/78
f 43/43/79 48/48/79 44/44/79
f 43/43/80 47/47/80 48/48/80
f 44/44/81 45/45/81 41/41/81
f 44/44/82 48/48/82 45/45/82
f 45/45/83 47/47/83 46/46/83
f 45/45/83 48/48/83 47/47/83
f 36/36/84 34/34/84 35/35/84
f 36/36/84 33/33/84 34/34/84
f 49/49/85 54/54/85 50/50/85
f 49/49/86 53/53/86 54/54/86
f 50/50/87 55/55/87 51/51/87
f 50/50/88 54/54/88 55/55/88
f 51/51/89 56/56/89 52/52/89
f 51/51/90 55/55/90 56/56/90
f 52/52/91 53/53/91 49/49/91
f 52/52/92 56/56/92 53/53/92
f 53/53/93 58/58/93 54/54/93
f 53/53/94 57/57/94 58/58/94
f 54/54/95 59/59/95 55/55/95
f 54/54/96 58/58/96 59/59/96
f 55/55/97 60/60/97 56/56/97
f 55/55/98 59/59/98 60/60/98
f 56/56/99 57/57/99 53/53/99
f 56/56/100 60/60/100 57/57/100
f 57/57/101 62/62/101 58/58/101
f 57/57/102 61/61/102 62/62/102
f 58/58/103 63/63/103 59/59/103
f 58/58/104 62/62/104 63/63/104
f 59/59/105 64/64/105 60/60/105
f 59/59/106 63/63/106 64/64/106
f 60/60/107 61/61/107 57/57/107
f 60/60/108 64/64/108 61/61/108
f 61/61/109 63/63/109 62/62/109
f 61/61/109 64/64/109 63/63/109
f 52/52/110 50/50/110 51/51/110
f 52/52/110 49/49/110 50/50/110
f 65/65/111 70/70/111 66/66/111
f 65/65/112 69/69/112 70/70/112
f 66/66/113 71/71/113 67/67/113
f 66/66/114 70/70/114 71/71/114
f 67/67/115 72/72/115 68/68/115
f 67/67/116 71/71/116 72/72/116
f 68/68/117 69/69/117 65/65/117
f 68/68/118 72/72/118 69/69/118
f 69/69/119 74/74/119 70/70/119
f 69/69/120 73/73/120 74/74/120
f 70/70/121 75/75/121 71/71/121
f 70/70/122 74/74/122 75/75/122
f 71/71/123 76/76/123 72/72/123
f 71/71/124 75/75/124 76/76/124
f 72/72/125 73/73/125 69/69/125
f 72/72/126 76/76/126 73/73/126
f 73/73/127 78/78/127 74/74/127
f 73/73/128 77/77/128 78/78/128
f 74/74/129 79/79/129 75/75/129
f 74/74/130 78/78/130 79/79/130
f 75/75/131 80/80/131 76/76/131
f 75/75/132 79/79/132 80/80/132
f 76/76/133 77/77/133 73/73/133
f 76/76/134 80/80/134 77/77/134
f 77/77/135 79/79/135 78/78/135
f 77/77/135 80/80/135 79/79/135
f 68/68/136 66/66/136 67/67/136
f 68/68/136 65/65/136 66/66/136
