# JudeanFloraV1; canonical UE cm (X east, +Y south, Z up), written with Y reflected and triangle winding reversed for the legacy OBJ importer adapter. One o object, no g groups, so the importer creates exactly one material slot.
# olive (Olea europaea), StreetTreesV1 seed 2, LOD1 bark
# height 4.5-9.0 m, crown 4.0-7.5 m; source: Zohary, M., Plants of the Bible (Cambridge University Press, 1982), species entry Olea europaea; street and garden specimens run 4.5-9 m
# branching is recursive with da Vinci child radii; leaf sprays are anchored to branch tips. Stylised habit, not a survey of any tree.
o SM_StreetTreesV1_Olive_S2_L1_Bark
s off
v 0.00000 48.78969 4.73324
v 34.45522 19.53608 6.30001
v 42.11194 -24.91226 2.96677
v 0.00000 -39.91884 -3.87265
v -42.11194 -23.87744 -7.70002
v -34.45522 20.38276 -2.42736
v -3.38330 33.51656 55.08742
v 22.16211 8.33860 55.58094
v 25.24341 -27.23164 52.11614
v -8.99320 -36.51931 46.79309
v -41.24222 -20.99332 44.40871
v -32.55102 13.47231 49.23824
v -7.74492 19.97364 104.82231
v 11.75758 -1.91511 104.99499
v 11.53766 -31.07087 101.93101
v -16.90673 -36.81401 97.75636
v -41.98918 -21.71888 96.17456
v -33.04729 5.91301 100.17654
v -12.93638 10.05500 154.81325
v 2.46774 -9.36507 155.05284
v -0.24175 -33.85820 152.36419
v -24.51814 -37.33809 148.75442
v -44.30974 -22.46598 147.49081
v -35.43746 0.43397 150.86099
v -19.30342 0.87384 205.11174
v -6.74379 -16.72073 205.34500
v -11.42832 -37.64862 202.61623
v -32.68317 -39.58514 199.17402
v -48.39919 -24.77278 198.18986
v -39.70397 -5.24169 201.39881
v -26.94914 -6.92744 255.05849
v -16.47538 -23.07551 255.53713
v -22.75738 -41.09843 253.00745
v -41.70335 -42.00705 249.70394
v -54.07417 -27.28257 248.78666
v -45.60196 -10.22589 251.61154
v -35.57925 -13.29447 305.05518
v -26.77714 -28.12592 305.57046
v -34.28028 -43.47422 303.15244
v -51.26621 -43.62358 300.12419
v -60.71555 -29.20173 299.46497
v -52.53173 -14.22093 301.97794
v -43.52503 -18.39232 304.95132
v -33.54311 -25.69346 304.19150
v -37.35587 -37.08985 301.17359
v -49.69419 -36.83207 300.06823
v -53.50695 -25.27636 302.40300
v -49.36100 -34.20354 366.55649
v -40.70523 -40.50683 365.74490
v -44.01144 -50.34564 362.99185
v -54.71056 -50.12307 362.10196
v -58.01676 -40.14669 364.30503
v -54.40778 -52.01780 427.79753
v -47.07963 -57.31486 426.90287
v -49.87874 -65.57094 424.34098
v -58.93682 -65.37640 423.65229
v -61.73593 -57.00010 425.78856
v -59.39522 -71.52951 488.37090
v -53.39924 -75.85179 487.57449
v -55.68950 -82.57651 485.38338
v -63.10094 -82.41034 484.82562
v -65.39120 -75.58292 486.67200
v -59.39522 -73.73100 486.75746
v -55.53535 -77.59910 486.74378
v -59.39522 -81.44943 486.37310
v -63.25508 -77.58133 486.38678
v -61.59121 -76.60114 534.01024
v -58.24435 -79.95168 534.04754
v -61.59121 -83.29698 533.85674
v -64.93807 -79.94645 533.81944
v -62.62865 -76.93189 581.31461
v -59.79542 -79.76283 581.44564
v -62.62865 -82.59654 581.48443
v -65.46187 -79.76560 581.35339
v -63.13702 -74.79046 628.67015
v -60.81875 -77.10383 628.82479
v -63.13702 -79.41998 628.92985
v -65.45528 -77.10661 628.77521
v -61.64350 -80.32448 486.56528
v -61.44734 -75.90283 488.90461
v -57.14694 -74.85595 486.56528
v -57.34309 -79.27759 484.22594
v -36.88372 -100.07122 522.44396
v -36.82656 -96.22079 524.44275
v -33.10310 -95.23847 522.44396
v -33.16026 -99.08890 520.44516
v -11.95204 -118.00047 559.08370
v -11.92131 -114.71666 560.72487
v -8.73390 -113.92627 559.08370
v -8.76463 -117.21007 557.44254
v 11.06007 -136.73696 596.50290
v 11.15465 -134.04138 597.82472
v 13.79405 -133.48582 596.50290
v 13.69947 -136.18140 595.18109
v -62.65309 -76.20556 486.56528
v -58.51687 -75.52359 489.30180
v -56.13735 -78.97486 486.56528
v -60.27357 -79.65683 483.82876
v -75.68288 -108.06955 514.83183
v -72.07756 -107.47146 517.17026
v -70.05580 -110.51588 514.83183
v -73.66112 -111.11397 512.49341
v -88.81203 -138.74890 544.24507
v -85.69179 -138.25518 546.11538
v -84.13569 -141.00441 544.24507
v -87.25594 -141.49813 542.37477
v -102.60871 -166.06493 576.55530
v -100.01244 -165.68768 578.01796
v -98.84691 -168.03810 576.55530
v -101.44317 -168.41534 575.09265
v -39.81792 -19.74089 302.55753
v -36.55494 -28.32339 309.23158
v -42.92439 -37.36666 306.68232
v -50.12390 -34.37321 298.43274
v -48.20400 -23.47989 295.88348
v -85.39610 -2.18503 348.61594
v -82.41113 -9.62084 354.32373
v -87.87144 -17.50829 352.14355
v -94.23107 -14.94720 345.08834
v -92.70123 -5.47690 342.90816
v -129.95324 13.78086 396.00543
v -127.29837 7.33255 400.55112
v -132.14602 0.79207 398.81482
v -137.79689 3.19814 393.19604
v -136.44168 11.22565 391.45974
v -169.25291 30.71949 447.44007
v -167.11751 25.30381 450.97507
v -171.32127 20.11816 449.62482
v -176.05474 22.32893 445.25532
v -174.77642 28.88092 443.90507
v -169.70133 28.38883 447.44007
v -169.60887 24.03183 449.90379
v -173.70780 22.55170 447.44007
v -173.80026 26.90870 444.97635
v -193.60928 44.22321 477.14920
v -193.63173 40.40981 479.21843
v -197.28271 39.30849 477.14920
v -197.26026 43.12190 475.07997
v -214.78992 60.91438 508.48339
v -214.75436 57.61234 510.08746
v -217.95477 56.79865 508.48339
v -217.99033 60.10068 506.87931
v -234.69195 74.62243 542.13117
v -234.52740 71.88973 543.36711
v -237.16920 71.17166 542.13117
v -237.33375 73.90436 540.89522
v -171.70457 28.58924 446.55178
v -168.62589 25.19109 446.45985
v -171.70457 22.35129 448.32837
v -174.78325 25.74944 448.42029
v -157.53997 39.89633 487.83180
v -154.83972 36.97956 487.83952
v -157.53997 34.48376 489.34902
v -160.24022 37.40053 489.34130
v -146.71284 51.12824 530.16315
v -144.38500 48.70424 530.29386
v -146.71284 46.52659 531.36657
v -149.04067 48.95059 531.23586
v -139.10113 61.38575 573.42017
v -137.18328 59.41798 573.56851
v -139.10113 57.60806 574.35485
v -141.01898 59.57583 574.20651
v -172.53403 28.60539 447.44007
v -169.86227 25.95768 450.06408
v -170.87510 22.33513 447.44007
v -173.54687 24.98284 444.81607
v -207.60483 18.87891 473.83306
v -205.13612 16.65818 476.01774
v -206.06941 13.47147 473.83306
v -208.53812 15.69220 471.64839
v -239.50655 8.68873 503.87108
v -237.17622 6.94353 505.55498
v -238.04130 4.16364 503.87108
v -240.37163 5.90884 502.18718
v -267.89675 -1.55129 537.17711
v -265.89864 -2.92084 538.48255
v -266.62889 -5.23057 537.17711
v -268.62700 -3.86102 535.87168
v -36.33761 -35.10486 302.55753
v -46.75123 -36.72121 306.77575
v -52.70635 -27.19283 305.16453
v -45.97320 -19.68762 299.95053
v -35.85676 -24.57752 298.33931
v -19.02509 -13.87914 355.52971
v -28.04652 -15.23511 359.21147
v -33.17914 -6.96114 357.80516
v -27.32985 -0.49157 353.25426
v -18.58216 -4.76713 351.84796
v -1.58092 7.19800 408.29888
v -9.31805 6.49111 411.28709
v -13.19142 13.77029 410.14569
v -7.84816 18.97597 406.45207
v -0.67248 14.91406 405.31068
v 12.64911 34.18417 460.66498
v 17.86661 29.83936 460.13018
v 15.87370 23.83623 462.65536
v 9.42451 24.47091 464.75082
v 7.43160 30.86629 463.52070
v 14.25162 25.48299 462.34441
v 9.96786 27.27812 464.21225
v 11.04659 31.79580 462.34441
v 15.33035 30.00067 460.47657
v 32.01013 35.02905 494.89269
v 28.32662 36.65767 496.50627
v 29.34287 40.55483 494.89269
v 33.02638 38.92621 493.27911
v 50.14581 43.85769 527.51788
v 46.94947 45.11791 528.81133
v 47.74397 48.46059 527.51788
v 50.94031 47.20037 526.22443
v 65.58906 53.61781 561.28174
v 62.89350 54.48265 562.28588
v 63.41232 57.26560 561.28174
v 66.10788 56.40076 560.27760
v 12.64911 31.85545 462.76155
v 15.86264 28.58329 462.77693
v 12.64911 25.42333 461.92727
v 9.43557 28.69550 461.91188
v 6.70148 25.79908 506.08423
v 9.48336 22.96247 506.20132
v 6.70148 20.20616 505.52102
v 3.91959 23.04277 505.40393
v 0.04451 22.24718 549.52486
v 2.39161 19.85330 549.79340
v 0.04451 17.49628 549.29614
v -2.30259 19.89017 549.02760
v -7.55068 20.75175 593.01198
v -5.63379 18.79837 593.29849
v -7.55068 16.86132 592.91683
v -9.46756 18.81471 592.63033
v 15.72657 27.61651 462.34441
v 11.94849 26.53150 464.70723
v 9.57165 29.66227 462.34441
v 13.34973 30.74729 459.98158
v 25.26008 57.67037 491.96493
v 21.98364 56.68214 493.98664
v 19.91409 59.40769 491.96493
v 23.19053 60.39592 489.94323
v 34.12557 87.03162 522.42158
v 31.32521 86.19171 524.08417
v 29.62481 88.56996 522.42158
v 32.42517 89.40988 520.75899
v 43.96482 115.06954 553.79306
v 41.65163 114.41547 555.13234
v 40.31187 116.41138 553.79306
v 42.62506 117.06545 552.45379
vt 0.00000 0.00000
vt 0.16667 0.00000
vt 0.33333 0.00000
vt 0.50000 0.00000
vt 0.66667 0.00000
vt 0.83333 0.00000
vt 0.00000 0.16667
vt 0.16667 0.16667
vt 0.33333 0.16667
vt 0.50000 0.16667
vt 0.66667 0.16667
vt 0.83333 0.16667
vt 0.00000 0.33333
vt 0.16667 0.33333
vt 0.33333 0.33333
vt 0.50000 0.33333
vt 0.66667 0.33333
vt 0.83333 0.33333
vt 0.00000 0.50000
vt 0.16667 0.50000
vt 0.33333 0.50000
vt 0.50000 0.50000
vt 0.66667 0.50000
vt 0.83333 0.50000
vt 0.00000 0.66667
vt 0.16667 0.66667
vt 0.33333 0.66667
vt 0.50000 0.66667
vt 0.66667 0.66667
vt 0.83333 0.66667
vt 0.00000 0.83333
vt 0.16667 0.83333
vt 0.33333 0.83333
vt 0.50000 0.83333
vt 0.66667 0.83333
vt 0.83333 0.83333
vt 0.00000 1.00000
vt 0.16667 1.00000
vt 0.33333 1.00000
vt 0.50000 1.00000
vt 0.66667 1.00000
vt 0.83333 1.00000
vt 0.00000 0.00000
vt 0.20000 0.00000
vt 0.40000 0.00000
vt 0.60000 0.00000
vt 0.80000 0.00000
vt 0.00000 0.33333
vt 0.20000 0.33333
vt 0.40000 0.33333
vt 0.60000 0.33333
vt 0.80000 0.33333
vt 0.00000 0.66667
vt 0.20000 0.66667
vt 0.40000 0.66667
vt 0.60000 0.66667
vt 0.80000 0.66667
vt 0.00000 1.00000
vt 0.20000 1.00000
vt 0.40000 1.00000
vt 0.60000 1.00000
vt 0.80000 1.00000
vt 0.00000 0.00000
vt 0.25000 0.00000
vt 0.50000 0.00000
vt 0.75000 0.00000
vt 0.00000 0.33333
vt 0.25000 0.33333
vt 0.50000 0.33333
vt 0.75000 0.33333
vt 0.00000 0.66667
vt 0.25000 0.66667
vt 0.50000 0.66667
vt 0.75000 0.66667
vt 0.00000 1.00000
vt 0.25000 1.00000
vt 0.50000 1.00000
vt 0.75000 1.00000
vt 0.00000 0.00000
vt 0.25000 0.00000
vt 0.50000 0.00000
vt 0.75000 0.00000
vt 0.00000 0.33333
vt 0.25000 0.33333
vt 0.50000 0.33333
vt 0.75000 0.33333
vt 0.00000 0.66667
vt 0.25000 0.66667
vt 0.50000 0.66667
vt 0.75000 0.66667
vt 0.00000 1.00000
vt 0.25000 1.00000
vt 0.50000 1.00000
vt 0.75000 1.00000
vt 0.00000 0.00000
vt 0.25000 0.00000
vt 0.50000 0.00000
vt 0.75000 0.00000
vt 0.00000 0.33333
vt 0.25000 0.33333
vt 0.50000 0.33333
vt 0.75000 0.33333
vt 0.00000 0.66667
vt 0.25000 0.66667
vt 0.50000 0.66667
vt 0.75000 0.66667
vt 0.00000 1.00000
vt 0.25000 1.00000
vt 0.50000 1.00000
vt 0.75000 1.00000
vt 0.00000 0.00000
vt 0.20000 0.00000
vt 0.40000 0.00000
vt 0.60000 0.00000
vt 0.80000 0.00000
vt 0.00000 0.33333
vt 0.20000 0.33333
vt 0.40000 0.33333
vt 0.60000 0.33333
vt 0.80000 0.33333
vt 0.00000 0.66667
vt 0.20000 0.66667
vt 0.40000 0.66667
vt 0.60000 0.66667
vt 0.80000 0.66667
vt 0.00000 1.00000
vt 0.20000 1.00000
vt 0.40000 1.00000
vt 0.60000 1.00000
vt 0.80000 1.00000
vt 0.00000 0.00000
vt 0.25000 0.00000
vt 0.50000 0.00000
vt 0.75000 0.00000
vt 0.00000 0.33333
vt 0.25000 0.33333
vt 0.50000 0.33333
vt 0.75000 0.33333
vt 0.00000 0.66667
vt 0.25000 0.66667
vt 0.50000 0.66667
vt 0.75000 0.66667
vt 0.00000 1.00000
vt 0.25000 1.00000
vt 0.50000 1.00000
vt 0.75000 1.00000
vt 0.00000 0.00000
vt 0.25000 0.00000
vt 0.50000 0.00000
vt 0.75000 0.00000
vt 0.00000 0.33333
vt 0.25000 0.33333
vt 0.50000 0.33333
vt 0.75000 0.33333
vt 0.00000 0.66667
vt 0.25000 0.66667
vt 0.50000 0.66667
vt 0.75000 0.66667
vt 0.00000 1.00000
vt 0.25000 1.00000
vt 0.50000 1.00000
vt 0.75000 1.00000
vt 0.00000 0.00000
vt 0.25000 0.00000
vt 0.50000 0.00000
vt 0.75000 0.00000
vt 0.00000 0.33333
vt 0.25000 0.33333
vt 0.50000 0.33333
vt 0.75000 0.33333
vt 0.00000 0.66667
vt 0.25000 0.66667
vt 0.50000 0.66667
vt 0.75000 0.66667
vt 0.00000 1.00000
vt 0.25000 1.00000
vt 0.50000 1.00000
vt 0.75000 1.00000
vt 0.00000 0.00000
vt 0.20000 0.00000
vt 0.40000 0.00000
vt 0.60000 0.00000
vt 0.80000 0.00000
vt 0.00000 0.33333
vt 0.20000 0.33333
vt 0.40000 0.33333
vt 0.60000 0.33333
vt 0.80000 0.33333
vt 0.00000 0.66667
vt 0.20000 0.66667
vt 0.40000 0.66667
vt 0.60000 0.66667
vt 0.80000 0.66667
vt 0.00000 1.00000
vt 0.20000 1.00000
vt 0.40000 1.00000
vt 0.60000 1.00000
vt 0.80000 1.00000
vt 0.00000 0.00000
vt 0.25000 0.00000
vt 0.50000 0.00000
vt 0.75000 0.00000
vt 0.00000 0.33333
vt 0.25000 0.33333
vt 0.50000 0.33333
vt 0.75000 0.33333
vt 0.00000 0.66667
vt 0.25000 0.66667
vt 0.50000 0.66667
vt 0.75000 0.66667
vt 0.00000 1.00000
vt 0.25000 1.00000
vt 0.50000 1.00000
vt 0.75000 1.00000
vt 0.00000 0.00000
vt 0.25000 0.00000
vt 0.50000 0.00000
vt 0.75000 0.00000
vt 0.00000 0.33333
vt 0.25000 0.33333
vt 0.50000 0.33333
vt 0.75000 0.33333
vt 0.00000 0.66667
vt 0.25000 0.66667
vt 0.50000 0.66667
vt 0.75000 0.66667
vt 0.00000 1.00000
vt 0.25000 1.00000
vt 0.50000 1.00000
vt 0.75000 1.00000
vt 0.00000 0.00000
vt 0.25000 0.00000
vt 0.50000 0.00000
vt 0.75000 0.00000
vt 0.00000 0.33333
vt 0.25000 0.33333
vt 0.50000 0.33333
vt 0.75000 0.33333
vt 0.00000 0.66667
vt 0.25000 0.66667
vt 0.50000 0.66667
vt 0.75000 0.66667
vt 0.00000 1.00000
vt 0.25000 1.00000
vt 0.50000 1.00000
vt 0.75000 1.00000
vn 0.6054 0.7301 0.3169
vn 0.6762 0.6911 0.2551
vn 0.9350 0.1365 0.3273
vn 0.9654 0.0589 0.2542
vn 0.3160 -0.9412 0.1193
vn 0.2555 -0.9659 0.0421
vn -0.3599 -0.9312 0.0575
vn -0.4327 -0.9014 -0.0163
vn -0.9848 0.1634 0.0582
vn -0.9697 0.2442 0.0027
vn -0.6477 0.7401 0.1809
vn -0.5791 0.8050 0.1290
vn 0.6704 0.6857 0.2835
vn 0.7239 0.6469 0.2396
vn 0.9615 0.0571 0.2689
vn 0.9793 -0.0284 0.2003
vn 0.2567 -0.9659 0.0343
vn 0.2007 -0.9794 -0.0203
vn -0.4326 -0.9014 -0.0189
vn -0.5099 -0.8561 -0.0841
vn -0.9702 0.2410 0.0263
vn -0.9510 0.3091 -0.0094
vn -0.5809 0.7969 0.1660
vn -0.4992 0.8578 0.1224
vn 0.7255 0.6482 0.2311
vn 0.7663 0.6103 0.2007
vn 0.9737 -0.0311 0.2257
vn 0.9786 -0.1261 0.1628
vn 0.1952 -0.9806 0.0191
vn 0.1449 -0.9892 -0.0208
vn -0.5137 -0.8573 -0.0357
vn -0.5940 -0.7987 -0.0969
vn -0.9509 0.3094 -0.0114
vn -0.9300 0.3657 -0.0367
vn -0.4989 0.8585 0.1185
vn -0.4037 0.9114 0.0795
vn 0.7614 0.6068 0.2282
vn 0.7954 0.5705 0.2048
vn 0.9699 -0.1299 0.2061
vn 0.9619 -0.2338 0.1420
vn 0.1449 -0.9892 -0.0206
vn 0.0991 -0.9937 -0.0529
vn -0.5951 -0.7992 -0.0844
vn -0.6743 -0.7248 -0.1415
vn -0.9299 0.3658 -0.0374
vn -0.9088 0.4136 -0.0545
vn -0.4074 0.9061 0.1138
vn -0.2998 0.9505 0.0814
vn 0.7915 0.5680 0.2254
vn 0.8176 0.5365 0.2090
vn 0.9508 -0.2386 0.1974
vn 0.9293 -0.3431 0.1367
vn 0.0956 -0.9949 -0.0306
vn 0.0575 -0.9968 -0.0553
vn -0.6778 -0.7266 -0.1121
vn -0.7501 -0.6405 -0.1646
vn -0.9076 0.4148 -0.0654
vn -0.8878 0.4537 -0.0771
vn -0.3026 0.9477 0.1017
vn -0.1871 0.9795 0.0752
vn 0.8151 0.5352 0.2218
vn 0.8378 0.5045 0.2089
vn 0.9175 -0.3471 0.1944
vn 0.8815 -0.4523 0.1358
vn 0.0518 -0.9984 -0.0222
vn 0.0165 -0.9989 -0.0435
vn -0.7560 -0.6428 -0.1234
vn -0.8202 -0.5453 -0.1730
vn -0.8865 0.4546 -0.0859
vn -0.8668 0.4895 -0.0951
vn -0.1898 0.9775 0.0917
vn -0.0670 0.9953 0.0697
vn -0.1745 -0.0694 0.9822
vn 0.1262 0.0958 -0.9874
vn 0.5836 0.7715 0.2536
vn 0.5849 0.7706 0.2532
vn 0.9453 -0.3248 0.0321
vn 0.9448 -0.3263 0.0314
vn -0.0016 -0.9778 -0.2096
vn -0.0029 -0.9777 -0.2100
vn -0.9485 -0.2852 -0.1376
vn -0.9489 -0.2841 -0.1376
vn -0.5869 0.7959 0.1487
vn -0.5857 0.7967 0.1487
vn 0.5831 0.7658 0.2712
vn 0.5854 0.7642 0.2706
vn 0.9469 -0.3212 0.0108
vn 0.9461 -0.3237 0.0096
vn -0.0002 -0.9706 -0.2406
vn -0.0025 -0.9705 -0.2411
vn -0.9490 -0.2846 -0.1354
vn -0.9496 -0.2828 -0.1353
vn -0.5882 0.7882 0.1808
vn -0.5864 0.7895 0.1810
vn 0.5834 0.7578 0.2923
vn 0.5845 0.7570 0.2920
vn 0.9470 -0.3213 0.0006
vn 0.9466 -0.3224 0.0001
vn -0.0003 -0.9633 -0.2683
vn -0.0014 -0.9633 -0.2685
vn -0.9491 -0.2808 -0.1427
vn -0.9494 -0.2799 -0.1426
vn -0.5880 0.7828 0.2037
vn -0.5873 0.7833 0.2038
vn -0.0783 -0.2846 0.9554
vn 0.0916 0.2262 -0.9698
vn 0.7060 0.7042 0.0755
vn 0.7050 0.7051 0.0756
vn 0.7060 -0.7082 0.0051
vn 0.7068 -0.7074 0.0053
vn -0.7067 -0.7050 -0.0602
vn -0.7059 -0.7058 -0.0601
vn -0.7067 0.7075 0.0101
vn -0.7072 0.7069 0.0102
vn 0.7072 0.7067 0.0203
vn 0.7062 0.7077 0.0204
vn 0.7060 -0.7078 0.0258
vn 0.7071 -0.7066 0.0260
vn -0.7075 -0.7067 -0.0051
vn -0.7067 -0.7075 -0.0050
vn -0.7066 0.7075 -0.0105
vn -0.7072 0.7069 -0.0105
vn 0.7072 0.7066 -0.0244
vn 0.7070 0.7068 -0.0244
vn 0.7065 -0.7056 0.0548
vn 0.7070 -0.7051 0.0548
vn -0.7072 -0.7059 0.0397
vn -0.7071 -0.7060 0.0397
vn -0.7069 0.7062 -0.0395
vn -0.7071 0.7060 -0.0395
vn -0.0107 0.0560 0.9984
vn 0.0463 0.0497 -0.9977
vn -0.8559 -0.2117 0.4719
vn -0.8555 -0.2285 0.4646
vn 0.0423 0.8806 0.4719
vn 0.0275 0.8759 0.4817
vn 0.8621 0.2065 -0.4627
vn 0.8636 0.2221 -0.4526
vn -0.0360 -0.8858 -0.4627
vn -0.0194 -0.8826 -0.4698
vn -0.8531 -0.2304 0.4682
vn -0.8532 -0.2267 0.4696
vn 0.0066 0.8926 0.4509
vn 0.0096 0.8935 0.4489
vn 0.8605 0.2246 -0.4573
vn 0.8603 0.2215 -0.4592
vn 0.0007 -0.8980 -0.4399
vn -0.0028 -0.8988 -0.4384
vn -0.8755 -0.2094 0.4355
vn -0.8758 -0.1874 0.4448
vn 0.0144 0.8897 0.4564
vn 0.0344 0.8950 0.4448
vn 0.8829 0.2033 -0.4233
vn 0.8816 0.1825 -0.4353
vn -0.0067 -0.8958 -0.4444
vn -0.0286 -0.8998 -0.4353
vn 0.4763 -0.4005 0.7827
vn -0.5104 0.4197 -0.7505
vn -0.4776 0.6839 0.5515
vn -0.4730 0.6850 0.5541
vn 0.8239 0.1307 0.5515
vn 0.8264 0.1276 0.5484
vn 0.4730 -0.6949 -0.5417
vn 0.4688 -0.6952 -0.5449
vn -0.8285 -0.1417 -0.5417
vn -0.8309 -0.1377 -0.5391
vn -0.4636 0.7071 0.5339
vn -0.4403 0.7124 0.5465
vn 0.8306 0.1371 0.5397
vn 0.8429 0.1203 0.5244
vn 0.4582 -0.7190 -0.5226
vn 0.4367 -0.7209 -0.5382
vn -0.8357 -0.1490 -0.5285
vn -0.8470 -0.1284 -0.5159
vn -0.4110 0.7742 0.4813
vn -0.3901 0.7785 0.4916
vn 0.8522 0.1392 0.5044
vn 0.8623 0.1216 0.4916
vn 0.4055 -0.7843 -0.4694
vn 0.3860 -0.7864 -0.4823
vn -0.8572 -0.1499 -0.4928
vn -0.8664 -0.1295 -0.4823
vn -0.3199 -0.6098 0.7251
vn 0.3024 0.7115 -0.6343
vn 0.6733 0.5961 0.4374
vn 0.6703 0.6021 0.4338
vn 0.4744 -0.5319 0.7014
vn 0.4779 -0.5254 0.7039
vn -0.3939 -0.9191 0.0103
vn -0.3897 -0.9208 0.0170
vn -0.7318 -0.0304 -0.6808
vn -0.7339 -0.0376 -0.6782
vn -0.0722 0.9061 -0.4169
vn -0.0787 0.9039 -0.4205
vn 0.6721 0.6014 0.4320
vn 0.6783 0.5890 0.4393
vn 0.4988 -0.5340 0.6826
vn 0.4926 -0.5452 0.6783
vn -0.3790 -0.9254 0.0058
vn -0.3870 -0.9221 -0.0056
vn -0.7480 -0.0318 -0.6629
vn -0.7446 -0.0186 -0.6673
vn -0.0985 0.9114 -0.3996
vn -0.0858 0.9158 -0.3923
vn 0.7326 0.5670 0.3765
vn 0.7427 0.5459 0.3877
vn 0.5362 -0.5641 0.6280
vn 0.5221 -0.5849 0.6207
vn -0.4156 -0.9091 0.0287
vn -0.4312 -0.9022 0.0107
vn -0.8060 0.0081 -0.5919
vn -0.7997 0.0325 -0.5996
vn -0.0978 0.9207 -0.3779
vn -0.0742 0.9275 -0.3665
vn -0.5813 0.2715 0.7671
vn 0.6711 -0.2790 -0.6869
vn 0.8132 0.2995 0.4991
vn 0.8153 0.2724 0.5109
vn 0.0130 -0.8665 0.4990
vn -0.0090 -0.8761 0.4821
vn -0.8243 -0.2918 -0.4852
vn -0.8226 -0.2675 -0.5019
vn -0.0240 0.8741 -0.4852
vn 0.0022 0.8811 -0.4729
vn 0.8583 0.2408 0.4531
vn 0.8587 0.2314 0.4572
vn -0.0094 -0.8758 0.4827
vn -0.0164 -0.8781 0.4781
vn -0.8669 -0.2338 -0.4403
vn -0.8663 -0.2258 -0.4455
vn 0.0002 0.8826 -0.4701
vn 0.0089 0.8845 -0.4665
vn 0.8773 0.2174 0.4280
vn 0.8751 0.2422 0.4190
vn 0.0285 -0.9133 0.4064
vn 0.0504 -0.9066 0.4189
vn -0.8840 -0.2119 -0.4167
vn -0.8838 -0.2359 -0.4039
vn -0.0354 0.9180 -0.3950
vn -0.0591 0.9128 -0.4040
vn -0.4727 0.3394 0.8133
vn 0.5738 -0.3939 -0.7181
vn 0.6734 0.6209 -0.4012
vn 0.6727 0.6217 -0.4011
vn 0.6734 -0.7392 -0.0139
vn 0.6744 -0.7383 -0.0143
vn -0.6691 -0.6174 0.4136
vn -0.6686 -0.6179 0.4136
vn -0.6691 0.7427 0.0262
vn -0.6703 0.7416 0.0271
vn 0.6891 0.6370 -0.3456
vn 0.6861 0.6403 -0.3454
vn 0.6876 -0.7254 0.0307
vn 0.6901 -0.7231 0.0297
vn -0.6856 -0.6338 0.3580
vn -0.6829 -0.6365 0.3584
vn -0.6842 0.7291 -0.0185
vn -0.6871 0.7264 -0.0166
vn 0.7001 0.6572 -0.2792
vn 0.6981 0.6593 -0.2792
vn 0.6967 -0.7148 0.0609
vn 0.6981 -0.7135 0.0605
vn -0.6977 -0.6542 0.2920
vn -0.6958 -0.6561 0.2923
vn -0.6941 0.7183 -0.0482
vn -0.6958 0.7167 -0.0473
vn 0.1689 0.2367 0.9568
vn -0.3143 -0.2600 -0.9130
vn 0.2158 0.7885 0.5759
vn 0.2093 0.7941 0.5707
vn 0.5776 -0.5786 0.5759
vn 0.5793 -0.5695 0.5832
vn -0.2258 -0.7912 -0.5684
vn -0.2203 -0.7975 -0.5617
vn -0.5875 0.5760 -0.5684
vn -0.5908 0.5667 -0.5743
vn 0.2502 0.8060 0.5365
vn 0.2332 0.8183 0.5253
vn 0.6515 -0.5494 0.5232
vn 0.6561 -0.5298 0.5375
vn -0.2590 -0.8082 -0.5289
vn -0.2440 -0.8221 -0.5144
vn -0.6599 0.5466 -0.5154
vn -0.6672 0.5267 -0.5267
vn 0.2714 0.8310 0.4857
vn 0.2607 0.8377 0.4798
vn 0.7185 -0.5100 0.4729
vn 0.7215 -0.4993 0.4798
vn -0.2799 -0.8334 -0.4765
vn -0.2700 -0.8409 -0.4690
vn -0.7267 0.5070 -0.4636
vn -0.7307 0.4961 -0.4690
vn -0.6343 -0.2186 0.7415
vn 0.7822 0.2070 -0.5876
vn 0.2589 -0.9227 0.2857
vn 0.2557 -0.9234 0.2864
vn -0.7886 -0.4163 0.4525
vn -0.7906 -0.4137 0.4515
vn -0.7388 0.6737 0.0158
vn -0.7369 0.6758 0.0136
vn 0.3395 0.8411 -0.4210
vn 0.3424 0.8394 -0.4221
vn 0.9561 -0.1455 -0.2542
vn 0.9558 -0.1489 -0.2535
vn 0.2575 -0.9212 0.2917
vn 0.2027 -0.9306 0.3047
vn -0.7865 -0.4093 0.4625
vn -0.8172 -0.3649 0.4461
vn -0.7343 0.6785 0.0206
vn -0.7025 0.7115 -0.0135
vn 0.3420 0.8389 -0.4234
vn 0.3888 0.8101 -0.4388
vn 0.9550 -0.1498 -0.2559
vn 0.9483 -0.2054 -0.2421
vn 0.2095 -0.9224 0.3243
vn 0.5241 0.6907 -0.4983
vn -0.7926 -0.3427 0.5044
vn 0.8665 -0.4084 -0.2870
vn -0.6484 0.7516 0.1213
vn -0.0300 -0.9785 0.2042
vn 0.4351 0.8511 -0.2938
vn -0.9265 -0.2317 0.2964
vn 0.9688 -0.1801 -0.1705
vn -0.5841 0.7999 -0.1379
vn 0.3215 0.2745 0.9063
vn -0.3067 -0.3419 -0.8883
vn -0.2109 -0.9001 0.3813
vn -0.2264 -0.8944 0.3858
vn -0.8511 0.3609 0.3813
vn -0.8483 0.3757 0.3731
vn 0.2200 0.9047 -0.3649
vn 0.2336 0.8979 -0.3730
vn 0.8602 -0.3563 -0.3649
vn 0.8554 -0.3722 -0.3602
vn -0.2349 -0.8986 0.3707
vn -0.2110 -0.9076 0.3629
vn -0.8425 0.3785 0.3835
vn -0.8473 0.3545 0.3956
vn 0.2419 0.9018 -0.3580
vn 0.2200 0.9124 -0.3452
vn 0.8496 -0.3751 -0.3708
vn 0.8570 -0.3500 -0.3781
vn -0.2143 -0.9094 0.3565
vn -0.1682 -0.9238 0.3440
vn -0.8849 0.3354 0.3232
vn -0.8929 0.2906 0.3440
vn 0.2203 0.9125 -0.3447
vn 0.1772 0.9291 -0.3245
vn 0.8904 -0.3321 -0.3113
vn 0.9018 -0.2852 -0.3246
vn 0.4060 0.2423 0.8812
vn -0.4705 -0.2389 -0.8495
vn 0.6998 0.6881 0.1919
vn 0.6967 0.6912 0.1923
vn 0.6998 -0.7143 0.0100
vn 0.7024 -0.7117 0.0111
vn -0.7016 -0.6898 -0.1786
vn -0.6988 -0.6927 -0.1782
vn -0.7016 0.7126 0.0033
vn -0.7042 0.7100 0.0030
vn 0.7010 0.6942 0.1635
vn 0.6952 0.6999 0.1638
vn 0.6949 -0.7165 0.0613
vn 0.7005 -0.7109 0.0633
vn -0.7027 -0.6954 -0.1505
vn -0.6976 -0.7007 -0.1495
vn -0.6970 0.7154 -0.0483
vn -0.7026 0.7099 -0.0489
vn 0.6982 0.7009 0.1458
vn 0.6954 0.7037 0.1456
vn 0.6926 -0.7129 0.1102
vn 0.6954 -0.7100 0.1111
vn -0.7003 -0.7015 -0.1324
vn -0.6978 -0.7041 -0.1317
vn -0.6950 0.7125 -0.0969
vn -0.6978 0.7097 -0.0972
vn -0.1717 -0.0241 0.9848
vn 0.1345 0.1275 -0.9827
vn 0.5198 -0.6779 0.5199
vn 0.5236 -0.6765 0.5179
vn -0.8222 -0.2318 0.5199
vn -0.8196 -0.2347 0.5226
vn -0.5167 0.6874 -0.5105
vn -0.5204 0.6866 -0.5078
vn 0.8253 0.2413 -0.5105
vn 0.8230 0.2448 -0.5125
vn 0.5210 -0.6847 0.5096
vn 0.5118 -0.6881 0.5144
vn -0.8255 -0.2524 0.5048
vn -0.8312 -0.2456 0.4988
vn -0.5176 0.6949 -0.4992
vn -0.5089 0.6970 -0.5051
vn 0.8287 0.2626 -0.4943
vn 0.8342 0.2543 -0.4894
vn 0.5023 -0.7164 0.4842
vn 0.4884 -0.7212 0.4913
vn -0.8308 -0.2445 0.5000
vn -0.8391 -0.2335 0.4914
vn -0.4987 0.7262 -0.4732
vn -0.4853 0.7294 -0.4820
vn 0.8342 0.2545 -0.4891
vn 0.8421 0.2418 -0.4820
vn 0.2373 0.6461 0.7254
vn -0.2298 -0.6914 -0.6849
f 1/1/1 8/8/1 2/2/1
f 1/1/2 7/7/2 8/8/2
f 2/2/3 9/9/3 3/3/3
f 2/2/4 8/8/4 9/9/4
f 3/3/5 10/10/5 4/4/5
f 3/3/6 9/9/6 10/10/6
f 4/4/7 11/11/7 5/5/7
f 4/4/8 10/10/8 11/11/8
f 5/5/9 12/12/9 6/6/9
f 5/5/10 11/11/10 12/12/10
f 6/6/11 7/7/11 1/1/11
f 6/6/12 12/12/12 7/7/12
f 7/7/13 14/14/13 8/8/13
f 7/7/14 13/13/14 14/14/14
f 8/8/15 15/15/15 9/9/15
f 8/8/16 14/14/16 15/15/16
f 9/9/17 16/16/17 10/10/17
f 9/9/18 15/15/18 16/16/18
f 10/10/19 17/17/19 11/11/19
f 10/10/20 16/16/20 17/17/20
f 11/11/21 18/18/21 12/12/21
f 11/11/22 17/17/22 18/18/22
f 12/12/23 13/13/23 7/7/23
f 12/12/24 18/18/24 13/13/24
f 13/13/25 20/20/25 14/14/25
f 13/13/26 19/19/26 20/20/26
f 14/14/27 21/21/27 15/15/27
f 14/14/28 20/20/28 21/21/28
f 15/15/29 22/22/29 16/16/29
f 15/15/30 21/21/30 22/22/30
f 16/16/31 23/23/31 17/17/31
f 16/16/32 22/22/32 23/23/32
f 17/17/33 24/24/33 18/18/33
f 17/17/34 23/23/34 24/24/34
f 18/18/35 19/19/35 13/13/35
f 18/18/36 24/24/36 19/19/36
f 19/19/37 26/26/37 20/20/37
f 19/19/38 25/25/38 26/26/38
f 20/20/39 27/27/39 21/21/39
f 20/20/40 26/26/40 27/27/40
f 21/21/41 28/28/41 22/22/41
f 21/21/42 27/27/42 28/28/42
f 22/22/43 29/29/43 23/23/43
f 22/22/44 28/28/44 29/29/44
f 23/23/45 30/30/45 24/24/45
f 23/23/46 29/29/46 30/30/46
f 24/24/47 25/25/47 19/19/47
f 24/24/48 30/30/48 25/25/48
f 25/25/49 32/32/49 26/26/49
f 25/25/50 31/31/50 32/32/50
f 26/26/51 33/33/51 27/27/51
f 26/26/52 32/32/52 33/33/52
f 27/27/53 34/34/53 28/28/53
f 27/27/54 33/33/54 34/34/54
f 28/28/55 35/35/55 29/29/55
f 28/28/56 34/34/56 35/35/56
f 29/29/57 36/36/57 30/30/57
f 29/29/58 35/35/58 36/36/58
f 30/30/59 31/31/59 25/25/59
f 30/30/60 36/36/60 31/31/60
f 31/31/61 38/38/61 32/32/61
f 31/31/62 37/37/62 38/38/62
f 32/32/63 39/39/63 33/33/63
f 32/32/64 38/38/64 39/39/64
f 33/33/65 40/40/65 34/34/65
f 33/33/66 39/39/66 40/40/66
f 34/34/67 41/41/67 35/35/67
f 34/34/68 40/40/68 41/41/68
f 35/35/69 42/42/69 36/36/69
f 35/35/70 41/41/70 42/42/70
f 36/36/71 37/37/71 31/31/71
f 36/36/72 42/42/72 37/37/72
f 37/37/73 39/39/73 38/38/73
f 37/37/73 40/40/73 39/39/73
f 37/37/73 41/41/73 40/40/73
f 37/37/73 42/42/73 41/41/73
f 6/6/74 4/4/74 5/5/74
f 6/6/74 3/3/74 4/4/74
f 6/6/74 2/2/74 3/3/74
f 6/6/74 1/1/74 2/2/74
f 43/43/75 49/49/75 44/44/75
f 43/43/76 48/48/76 49/49/76
f 44/44/77 50/50/77 45/45/77
f 44/44/78 49/49/78 50/50/78
f 45/45/79 51/51/79 46/46/79
f 45/45/80 50/50/80 51/51/80
f 46/46/81 52/52/81 47/47/81
f 46/46/82 51/51/82 52/52/82
f 47/47/83 48/48/83 43/43/83
f 47/47/84 52/52/84 48/48/84
f 48/48/85 54/54/85 49/49/85
f 48/48/86 53/53/86 54/54/86
f 49/49/87 55/55/87 50/50/87
f 49/49/88 54/54/88 55/55/88
f 50/50/89 56/56/89 51/51/89
f 50/50/90 55/55/90 56/56/90
f 51/51/91 57/57/91 52/52/91
f 51/51/92 56/56/92 57/57/92
f 52/52/93 53/53/93 48/48/93
f 52/52/94 57/57/94 53/53/94
f 53/53/95 59/59/95 54/54/95
f 53/53/96 58/58/96 59/59/96
f 54/54/97 60/60/97 55/55/97
f 54/54/98 59/59/98 60/60/98
f 55/55/99 61/61/99 56/56/99
f 55/55/100 60/60/100 61/61/100
f 56/56/101 62/62/101 57/57/101
f 56/56/102 61/61/102 62/62/102
f 57/57/103 58/58/103 53/53/103
f 57/57/104 62/62/104 58/58/104
f 58/58/105 60/60/105 59/59/105
f 58/58/105 61/61/105 60/60/105
f 58/58/105 62/62/105 61/61/105
f 47/47/106 45/45/106 46/46/106
f 47/47/106 44/44/106 45/45/106
f 47/47/106 43/43/106 44/44/106
f 63/63/107 68/68/107 64/64/107
f 63/63/108 67/67/108 68/68/108
f 64/64/109 69/69/109 65/65/109
f 64/64/110 68/68/110 69/69/110
f 65/65/111 70/70/111 66/66/111
f 65/65/112 69/69/112 70/70/112
f 66/66/113 67/67/113 63/63/113
f 66/66/114 70/70/114 67/67/114
f 67/67/115 72/72/115 68/68/115
f 67/67/116 71/71/116 72/72/116
f 68/68/117 73/73/117 69/69/117
f 68/68/118 72/72/118 73/73/118
f 69/69/119 74/74/119 70/70/119
f 69/69/120 73/73/120 74/74/120
f 70/70/121 71/71/121 67/67/121
f 70/70/122 74/74/122 71/71/122
f 71/71/123 76/76/123 72/72/123
f 71/71/124 75/75/124 76/76/124
f 72/72/125 77/77/125 73/73/125
f 72/72/126 76/76/126 77/77/126
f 73/73/127 78/78/127 74/74/127
f 73/73/128 77/77/128 78/78/128
f 74/74/129 75/75/129 71/71/129
f 74/74/130 78/78/130 75/75/130
f 75/75/131 77/77/131 76/76/131
f 75/75/131 78/78/131 77/77/131
f 66/66/132 64/64/132 65/65/132
f 66/66/132 63/63/132 64/64/132
f 79/79/133 84/84/133 80/80/133
f 79/79/134 83/83/134 84/84/134
f 80/80/135 85/85/135 81/81/135
f 80/80/136 84/84/136 85/85/136
f 81/81/137 86/86/137 82/82/137
f 81/81/138 85/85/138 86/86/138
f 82/82/139 83/83/139 79/79/139
f 82/82/140 86/86/140 83/83/140
f 83/83/141 88/88/141 84/84/141
f 83/83/142 87/87/142 88/88/142
f 84/84/143 89/89/143 85/85/143
f 84/84/144 88/88/144 89/89/144
f 85/85/145 90/90/145 86/86/145
f 85/85/146 89/89/146 90/90/146
f 86/86/147 87/87/147 83/83/147
f 86/86/148 90/90/148 87/87/148
f 87/87/149 92/92/149 88/88/149
f 87/87/150 91/91/150 92/92/150
f 88/88/151 93/93/151 89/89/151
f 88/88/152 92/92/152 93/93/152
f 89/89/153 94/94/153 90/90/153
f 89/89/154 93/93/154 94/94/154
f 90/90/155 91/91/155 87/87/155
f 90/90/156 94/94/156 91/91/156
f 91/91/157 93/93/157 92/92/157
f 91/91/157 94/94/157 93/93/157
f 82/82/158 80/80/158 81/81/158
f 82/82/158 79/79/158 80/80/158
f 95/95/159 100/100/159 96/96/159
f 95/95/160 99/99/160 100/100/160
f 96/96/161 101/101/161 97/97/161
f 96/96/162 100/100/162 101/101/162
f 97/97/163 102/102/163 98/98/163
f 97/97/164 101/101/164 102/102/164
f 98/98/165 99/99/165 95/95/165
f 98/98/166 102/102/166 99/99/166
f 99/99/167 104/104/167 100/100/167
f 99/99/168 103/103/168 104/104/168
f 100/100/169 105/105/169 101/101/169
f 100/100/170 104/104/170 105/105/170
f 101/101/171 106/106/171 102/102/171
f 101/101/172 105/105/172 106/106/172
f 102/102/173 103/103/173 99/99/173
f 102/102/174 106/106/174 103/103/174
f 103/103/175 108/108/175 104/104/175
f 103/103/176 107/107/176 108/108/176
f 104/104/177 109/109/177 105/105/177
f 104/104/178 108/108/178 109/109/178
f 105/105/179 110/110/179 106/106/179
f 105/105/180 109/109/180 110/110/180
f 106/106/181 107/107/181 103/103/181
f 106/106/182 110/110/182 107/107/182
f 107/107/183 109/109/183 108/108/183
f 107/107/183 110/110/183 109/109/183
f 98/98/184 96/96/184 97/97/184
f 98/98/184 95/95/184 96/96/184
f 111/111/185 117/117/185 112/112/185
f 111/111/186 116/116/186 117/117/186
f 112/112/187 118/118/187 113/113/187
f 112/112/188 117/117/188 118/118/188
f 113/113/189 119/119/189 114/114/189
f 113/113/190 118/118/190 119/119/190
f 114/114/191 120/120/191 115/115/191
f 114/114/192 119/119/192 120/120/192
f 115/115/193 116/116/193 111/111/193
f 115/115/194 120/120/194 116/116/194
f 116/116/195 122/122/195 117/117/195
f 116/116/196 121/121/196 122/122/196
f 117/117/197 123/123/197 118/118/197
f 117/117/198 122/122/198 123/123/198
f 118/118/199 124/124/199 119/119/199
f 118/118/200 123/123/200 124/124/200
f 119/119/201 125/125/201 120/120/201
f 119/119/202 124/124/202 125/125/202
f 120/120/203 121/121/203 116/116/203
f 120/120/204 125/125/204 121/121/204
f 121/121/205 127/127/205 122/122/205
f 121/121/206 126/126/206 127/127/206
f 122/122/207 128/128/207 123/123/207
f 122/122/208 127/127/208 128/128/208
f 123/123/209 129/129/209 124/124/209
f 123/123/210 128/128/210 129/129/210
f 124/124/211 130/130/211 125/125/211
f 124/124/212 129/129/212 130/130/212
f 125/125/213 126/126/213 121/121/213
f 125/125/214 130/130/214 126/126/214
f 126/126/215 128/128/215 127/127/215
f 126/126/215 129/129/215 128/128/215
f 126/126/215 130/130/215 129/129/215
f 115/115/216 113/113/216 114/114/216
f 115/115/216 112/112/216 113/113/216
f 115/115/216 111/111/216 112/112/216
f 131/131/217 136/136/217 132/132/217
f 131/131/218 135/135/218 136/136/218
f 132/132/219 137/137/219 133/133/219
f 132/132/220 136/136/220 137/137/220
f 133/133/221 138/138/221 134/134/221
f 133/133/222 137/137/222 138/138/222
f 134/134/223 135/135/223 131/131/223
f 134/134/224 138/138/224 135/135/224
f 135/135/225 140/140/225 136/136/225
f 135/135/226 139/139/226 140/140/226
f 136/136/227 141/141/227 137/137/227
f 136/136/228 140/140/228 141/141/228
f 137/137/229 142/142/229 138/138/229
f 137/137/230 141/141/230 142/142/230
f 138/138/231 139/139/231 135/135/231
f 138/138/232 142/142/232 139/139/232
f 139/139/233 144/144/233 140/140/233
f 139/139/234 143/143/234 144/144/234
f 140/140/235 145/145/235 141/141/235
f 140/140/236 144/144/236 145/145/236
f 141/141/237 146/146/237 142/142/237
f 141/141/238 145/145/238 146/146/238
f 142/142/239 143/143/239 139/139/239
f 142/142/240 146/146/240 143/143/240
f 143/143/241 145/145/241 144/144/241
f 143/143/241 146/146/241 145/145/241
f 134/134/242 132/132/242 133/133/242
f 134/134/242 131/131/242 132/132/242
f 147/147/243 152/152/243 148/148/243
f 147/147/244 151/151/244 152/152/244
f 148/148/245 153/153/245 149/149/245
f 148/148/246 152/152/246 153/153/246
f 149/149/247 154/154/247 150/150/247
f 149/149/248 153/153/248 154/154/248
f 150/150/249 151/151/249 147/147/249
f 150/150/250 154/154/250 151/151/250
f 151/151/251 156/156/251 152/152/251
f 151/151/252 155/155/252 156/156/252
f 152/152/253 157/157/253 153/153/253
f 152/152/254 156/156/254 157/157/254
f 153/153/255 158/158/255 154/154/255
f 153/153/256 157/157/256 158/158/256
f 154/154/257 155/155/257 151/151/257
f 154/154/258 158/158/258 155/155/258
f 155/155/259 160/160/259 156/156/259
f 155/155/260 159/159/260 160/160/260
f 156/156/261 161/161/261 157/157/261
f 156/156/262 160/160/262 161/161/262
f 157/157/263 162/162/263 158/158/263
f 157/157/264 161/161/264 162/162/264
f 158/158/265 159/159/265 155/155/265
f 158/158/266 162/162/266 159/159/266
f 159/159/267 161/161/267 160/160/267
f 159/159/267 162/162/267 161/161/267
f 150/150/268 148/148/268 149/149/268
f 150/150/268 147/147/268 148/148/268
f 163/163/269 168/168/269 164/164/269
f 163/163/270 167/167/270 168/168/270
f 164/164/271 169/169/271 165/165/271
f 164/164/272 168/168/272 169/169/272
f 165/165/273 170/170/273 166/166/273
f 165/165/274 169/169/274 170/170/274
f 166/166/275 167/167/275 163/163/275
f 166/166/276 170/170/276 167/167/276
f 167/167/277 172/172/277 168/168/277
f 167/167/278 171/171/278 172/172/278
f 168/168/279 173/173/279 169/169/279
f 168/168/280 172/172/280 173/173/280
f 169/169/281 174/174/281 170/170/281
f 169/169/282 173/173/282 174/174/282
f 170/170/283 171/171/283 167/167/283
f 170/170/284 174/174/284 171/171/284
f 171/171/285 176/176/285 172/172/285
f 171/171/286 175/175/286 176/176/286
f 172/172/287 177/177/287 173/173/287
f 172/172/288 176/176/288 177/177/288
f 173/173/289 178/178/289 174/174/289
f 173/173/290 177/177/290 178/178/290
f 174/174/291 175/175/291 171/171/291
f 174/174/292 178/178/292 175/175/292
f 175/175/293 177/177/293 176/176/293
f 175/175/293 178/178/293 177/177/293
f 166/166/294 164/164/294 165/165/294
f 166/166/294 163/163/294 164/164/294
f 179/179/295 185/185/295 180/180/295
f 179/179/296 184/184/296 185/185/296
f 180/180/297 186/186/297 181/181/297
f 180/180/298 185/185/298 186/186/298
f 181/181/299 187/187/299 182/182/299
f 181/181/300 186/186/300 187/187/300
f 182/182/301 188/188/301 183/183/301
f 182/182/302 187/187/302 188/188/302
f 183/183/303 184/184/303 179/179/303
f 183/183/304 188/188/304 184/184/304
f 184/184/305 190/190/305 185/185/305
f 184/184/306 189/189/306 190/190/306
f 185/185/307 191/191/307 186/186/307
f 185/185/308 190/190/308 191/191/308
f 186/186/309 192/192/309 187/187/309
f 186/186/310 191/191/310 192/192/310
f 187/187/311 193/193/311 188/188/311
f 187/187/312 192/192/312 193/193/312
f 188/188/313 189/189/313 184/184/313
f 188/188/314 193/193/314 189/189/314
f 189/189/315 195/195/315 190/190/315
f 189/189/316 194/194/316 195/195/316
f 190/190/317 196/196/317 191/191/317
f 190/190/318 195/195/318 196/196/318
f 191/191/319 197/197/319 192/192/319
f 191/191/320 196/196/320 197/197/320
f 192/192/321 198/198/321 193/193/321
f 192/192/322 197/197/322 198/198/322
f 193/193/323 194/194/323 189/189/323
f 193/193/324 198/198/324 194/194/324
f 194/194/325 196/196/325 195/195/325
f 194/194/325 197/197/325 196/196/325
f 194/194/325 198/198/325 197/197/325
f 183/183/326 181/181/326 182/182/326
f 183/183/326 180/180/326 181/181/326
f 183/183/326 179/179/326 180/180/326
f 199/199/327 204/204/327 200/200/327
f 199/199/328 203/203/328 204/204/328
f 200/200/329 205/205/329 201/201/329
f 200/200/330 204/204/330 205/205/330
f 201/201/331 206/206/331 202/202/331
f 201/201/332 205/205/332 206/206/332
f 202/202/333 203/203/333 199/199/333
f 202/202/334 206/206/334 203/203/334
f 203/203/335 208/208/335 204/204/335
f 203/203/336 207/207/336 208/208/336
f 204/204/337 209/209/337 205/205/337
f 204/204/338 208/208/338 209/209/338
f 205/205/339 210/210/339 206/206/339
f 205/205/340 209/209/340 210/210/340
f 206/206/341 207/207/341 203/203/341
f 206/206/342 210/210/342 207/207/342
f 207/207/343 212/212/343 208/208/343
f 207/207/344 211/211/344 212/212/344
f 208/208/345 213/213/345 209/209/345
f 208/208/346 212/212/346 213/213/346
f 209/209/347 214/214/347 210/210/347
f 209/209/348 213/213/348 214/214/348
f 210/210/349 211/211/349 207/207/349
f 210/210/350 214/214/350 211/211/350
f 211/211/351 213/213/351 212/212/351
f 211/211/351 214/214/351 213/213/351
f 202/202/352 200/200/352 201/201/352
f 202/202/352 199/199/352 200/200/352
f 215/215/353 220/220/353 216/216/353
f 215/215/354 219/219/354 220/220/354
f 216/216/355 221/221/355 217/217/355
f 216/216/356 220/220/356 221/221/356
f 217/217/357 222/222/357 218/218/357
f 217/217/358 221/221/358 222/222/358
f 218/218/359 219/219/359 215/215/359
f 218/218/360 222/222/360 219/219/360
f 219/219/361 224/224/361 220/220/361
f 219/219/362 223/223/362 224/224/362
f 220/220/363 225/225/363 221/221/363
f 220/220/364 224/224/364 225/225/364
f 221/221/365 226/226/365 222/222/365
f 221/221/366 225/225/366 226/226/366
f 222/222/367 223/223/367 219/219/367
f 222/222/368 226/226/368 223/223/368
f 223/223/369 228/228/369 224/224/369
f 223/223/370 227/227/370 228/228/370
f 224/224/371 229/229/371 225/225/371
f 224/224/372 228/228/372 229/229/372
f 225/225/373 230/230/373 226/226/373
f 225/225/374 229/229/374 230/230/374
f 226/226/375 227/227/375 223/223/375
f 226/226/376 230/230/376 227/227/376
f 227/227/377 229/229/377 228/228/377
f 227/227/377 230/230/377 229/229/377
f 218/218/378 216/216/378 217/217/378
f 218/218/378 215/215/378 216/216/378
f 231/231/379 236/236/379 232/232/379
f 231/231/380 235/235/380 236/236/380
f 232/232/381 237/237/381 233/233/381
f 232/232/382 236/236/382 237/237/382
f 233/233/383 238/238/383 234/234/383
f 233/233/384 237/237/384 238/238/384
f 234/234/385 235/235/385 231/231/385
f 234/234/386 238/238/386 235/235/386
f 235/235/387 240/240/387 236/236/387
f 235/235/388 239/239/388 240/240/388
f 236/236/389 241/241/389 237/237/389
f 236/236/390 240/240/390 241/241/390
f 237/237/391 242/242/391 238/238/391
f 237/237/392 241/241/392 242/242/392
f 238/238/393 239/239/393 235/235/393
f 238/238/394 242/242/394 239/239/394
f 239/239/395 244/244/395 240/240/395
f 239/239/396 243/243/396 244/244/396
f 240/240/397 245/245/397 241/241/397
f 240/240/398 244/244/398 245/245/398
f 241/241/399 246/246/399 242/242/399
f 241/241/400 245/245/400 246/246/400
f 242/242/401 243/243/401 239/239/401
f 242/242/402 246/246/402 243/243/402
f 243/243/403 245/245/403 244/244/403
f 243/243/403 246/246/403 245/245/403
f 234/234/404 232/232/404 233/233/404
f 234/234/404 231/231/404 232/232/404
