# JudeanFloraV1; canonical UE cm (X east, +Y south, Z up), written with Y reflected and triangle winding reversed for the legacy OBJ importer adapter. One o object, no g groups, so the importer creates exactly one material slot.
# Italian cypress (Cupressus sempervirens), StreetTreesV1 seed 0, LOD1 leaf
# height 10.0-19.0 m, crown 1.8-3.8 m; source: Zohary, M., Plants of the Bible (Cambridge University Press, 1982), species entry Cupressus sempervirens; the columnar form is 1.8-3.8 m across at 10-19 m
# branching is recursive with da Vinci child radii; leaf sprays are anchored to branch tips. Stylised habit, not a survey of any tree.
o SM_StreetTreesV1_Cypress_S0_L1_Leaf
s off
v 24.79665 7.86281 1132.67157
v -15.60461 40.21487 1132.67157
v -12.58207 43.99559 1184.20300
v 27.81919 11.64353 1184.20300
v 24.79665 7.86281 1132.67157
v -15.60461 40.21487 1132.67157
v -12.58207 43.99559 1184.20300
v 27.81919 11.64353 1184.20300
v -2.03017 -1.67781 1163.92748
v 26.18867 41.54500 1163.92748
v 28.81118 39.83582 1215.45141
v 0.59235 -3.38699 1215.45141
v -2.03017 -1.67781 1163.92748
v 26.18867 41.54500 1163.92748
v 28.81118 39.83582 1215.45141
v 0.59235 -3.38699 1215.45141
v -8.57254 85.06684 1277.25766
v 39.56712 93.85640 1277.25766
v 39.72199 93.01199 1326.18563
v -8.41767 84.22244 1326.18563
v -8.57254 85.06684 1277.25766
v 39.56712 93.85640 1277.25766
v 39.72199 93.01199 1326.18563
v -8.41767 84.22244 1326.18563
v 42.12614 93.75648 1274.93551
v -9.96007 88.31641 1274.93551
v -10.60766 94.46939 1326.93829
v 41.47855 99.90946 1326.93829
v 42.12614 93.75648 1274.93551
v -9.96007 88.31641 1274.93551
v -10.60766 94.46939 1326.93829
v 41.47855 99.90946 1326.93829
v 3.92533 107.76749 1391.13411
v 24.07630 49.86399 1391.13411
v 23.14253 49.53820 1452.43581
v 2.99156 107.44170 1452.43581
v 3.92533 107.76749 1391.13411
v 24.07630 49.86399 1391.13411
v 23.14253 49.53820 1452.43581
v 2.99156 107.44170 1452.43581
v 25.61202 91.15506 1379.87284
v -28.20950 55.58458 1379.87284
v -31.25805 60.18935 1444.14972
v 22.56346 95.75983 1444.14972
v 25.61202 91.15506 1379.87284
v -28.20950 55.58458 1379.87284
v -31.25805 60.18935 1444.14972
v 22.56346 95.75983 1444.14972
v 21.67971 31.60695 1105.64853
v -39.81396 5.52386 1105.64853
v -35.53683 -4.53763 1171.54444
v 25.95684 21.54546 1171.54444
v 21.67971 31.60695 1105.64853
v -39.81396 5.52386 1105.64853
v -35.53683 -4.53763 1171.54444
v 25.95684 21.54546 1171.54444
v -2.00255 13.31955 1097.46186
v 43.61427 44.15828 1097.46186
v 48.29391 37.24799 1151.88860
v 2.67709 6.40927 1151.88860
v -2.00255 13.31955 1097.46186
v 43.61427 44.15828 1097.46186
v 48.29391 37.24799 1151.88860
v 2.67709 6.40927 1151.88860
v -25.78458 17.84880 1153.66671
v 38.37866 35.25802 1153.66671
v 36.65728 41.58238 1219.82593
v -27.50596 24.17316 1219.82593
v -25.78458 17.84880 1153.66671
v 38.37866 35.25802 1153.66671
v 36.65728 41.58238 1219.82593
v -27.50596 24.17316 1219.82593
v -43.26451 16.60036 1193.09413
v 14.40557 42.33319 1193.09413
v 18.51938 33.13338 1255.43558
v -39.15070 7.40056 1255.43558
v -43.26451 16.60036 1193.09413
v 14.40557 42.33319 1193.09413
v 18.51938 33.13338 1255.43558
v -39.15070 7.40056 1255.43558
v 27.15712 9.14434 1276.05165
v 46.97620 -48.06251 1276.05165
v 57.08566 -44.55111 1335.64098
v 37.26658 12.65573 1335.64098
v 27.15712 9.14434 1276.05165
v 46.97620 -48.06251 1276.05165
v 57.08566 -44.55111 1335.64098
v 37.26658 12.65573 1335.64098
v -24.89247 1.59298 1275.55692
v 22.01449 49.83224 1275.55692
v 24.95968 46.97295 1342.71673
v -21.94728 -1.26631 1342.71673
v -24.89247 1.59298 1275.55692
v 22.01449 49.83224 1275.55692
v 24.95968 46.97295 1342.71673
v -21.94728 -1.26631 1342.71673
v -24.72590 33.63021 1124.56182
v 33.71881 55.46832 1124.56182
v 36.47403 48.11248 1186.45679
v -21.97068 26.27437 1186.45679
v -24.72590 33.63021 1124.56182
v 33.71881 55.46832 1124.56182
v 36.47403 48.11248 1186.45679
v -21.97068 26.27437 1186.45679
v -10.74291 32.03541 1083.87071
v 8.16338 99.73863 1083.87071
v 11.71863 98.74887 1154.06725
v -7.18766 31.04565 1154.06725
v -10.74291 32.03541 1083.87071
v 8.16338 99.73863 1083.87071
v 11.71863 98.74887 1154.06725
v -7.18766 31.04565 1154.06725
v -53.50658 19.08541 1237.14893
v -35.06981 62.74859 1237.14893
v -33.35967 62.02809 1284.50865
v -51.79644 18.36491 1284.50865
v -53.50658 19.08541 1237.14893
v -35.06981 62.74859 1237.14893
v -33.35967 62.02809 1284.50865
v -51.79644 18.36491 1284.50865
v -24.06945 78.91385 1198.75225
v -87.02727 43.58887 1198.75225
v -81.45007 33.66744 1270.04041
v -18.49225 68.99242 1270.04041
v -24.06945 78.91385 1198.75225
v -87.02727 43.58887 1198.75225
v -81.45007 33.66744 1270.04041
v -18.49225 68.99242 1270.04041
v 8.30589 38.33508 1296.82028
v -60.00064 18.64829 1296.82028
v -60.33409 19.80179 1367.89707
v 7.97245 39.48857 1367.89707
v 8.30589 38.33508 1296.82028
v -60.00064 18.64829 1296.82028
v -60.33409 19.80179 1367.89707
v 7.97245 39.48857 1367.89707
v -89.68570 41.40716 1276.62248
v -46.43521 -4.22346 1276.62248
v -52.36942 -9.85712 1338.95871
v -95.61991 35.77351 1338.95871
v -89.68570 41.40716 1276.62248
v -46.43521 -4.22346 1276.62248
v -52.36942 -9.85712 1338.95871
v -95.61991 35.77351 1338.95871
v 28.28568 -8.49386 881.63511
v 88.71687 -11.66131 881.63511
v 88.29168 -19.89889 941.58444
v 27.86050 -16.73144 941.58444
v 28.28568 -8.49386 881.63511
v 88.71687 -11.66131 881.63511
v 88.29168 -19.89889 941.58444
v 27.86050 -16.73144 941.58444
v 3.23323 -0.91294 868.23148
v 65.97138 -33.03024 868.23148
v 65.64230 -33.67433 938.70894
v 2.90415 -1.55703 938.70894
v 3.23323 -0.91294 868.23148
v 65.97138 -33.03024 868.23148
v 65.64230 -33.67433 938.70894
v 2.90415 -1.55703 938.70894
v 68.75111 -37.63537 942.13570
v 23.50481 8.03419 942.13570
v 26.75885 11.26322 1006.25996
v 72.00516 -34.40634 1006.25996
v 68.75111 -37.63537 942.13570
v 23.50481 8.03419 942.13570
v 26.75885 11.26322 1006.25996
v 72.00516 -34.40634 1006.25996
v 20.11879 7.93388 936.21257
v 74.65542 -36.36253 936.21257
v 77.01051 -33.45827 1006.37263
v 22.47389 10.83814 1006.37263
v 20.11879 7.93388 936.21257
v 74.65542 -36.36253 936.21257
v 77.01051 -33.45827 1006.37263
v 22.47389 10.83814 1006.37263
v 90.22711 -56.13443 1039.05779
v 52.60552 -31.28604 1039.05779
v 54.84980 -27.88221 1083.95994
v 92.47139 -52.73060 1083.95994
v 90.22711 -56.13443 1039.05779
v 52.60552 -31.28604 1039.05779
v 54.84980 -27.88221 1083.95994
v 92.47139 -52.73060 1083.95994
v 79.03735 -4.90839 1059.43875
v 81.92947 -56.49899 1059.43875
v 91.42706 -55.95898 1110.22713
v 88.53494 -4.36837 1110.22713
v 79.03735 -4.90839 1059.43875
v 81.92947 -56.49899 1059.43875
v 91.42706 -55.95898 1110.22713
v 88.53494 -4.36837 1110.22713
v 64.73163 -56.45810 826.23599
v 18.24325 -44.00792 826.23599
v 19.43244 -39.55333 874.14131
v 65.92082 -52.00351 874.14131
v 64.73163 -56.45810 826.23599
v 18.24325 -44.00792 826.23599
v 19.43244 -39.55333 874.14131
v 65.92082 -52.00351 874.14131
v 51.97426 -3.01639 827.50713
v -11.17390 -25.88296 827.50713
v -12.03549 -23.50950 894.62042
v 51.11267 -0.64294 894.62042
v 51.97426 -3.01639 827.50713
v -11.17390 -25.88296 827.50713
v -12.03549 -23.50950 894.62042
v 51.11267 -0.64294 894.62042
v 60.93941 -25.12823 842.64448
v -8.66257 -44.77869 842.64448
v -7.73810 -48.04321 914.88757
v 61.86387 -28.39275 914.88757
v 60.93941 -25.12823 842.64448
v -8.66257 -44.77869 842.64448
v -7.73810 -48.04321 914.88757
v 61.86387 -28.39275 914.88757
v 35.66970 7.20744 859.90715
v 47.19827 -58.47276 859.90715
v 57.61632 -56.63557 925.74700
v 46.08775 9.04463 925.74700
v 35.66970 7.20744 859.90715
v 47.19827 -58.47276 859.90715
v 57.61632 -56.63557 925.74700
v 46.08775 9.04463 925.74700
v -3.12644 -29.19744 931.13647
v 63.36382 -59.45427 931.13647
v 67.86748 -49.53641 1003.37070
v 1.37722 -19.27957 1003.37070
v -3.12644 -29.19744 931.13647
v 63.36382 -59.45427 931.13647
v 67.86748 -49.53641 1003.37070
v 1.37722 -19.27957 1003.37070
v 80.50682 -76.45830 908.25367
v 39.75867 -54.29422 908.25367
v 43.51667 -47.37210 953.96603
v 84.26482 -69.53619 953.96603
v 80.50682 -76.45830 908.25367
v 39.75867 -54.29422 908.25367
v 43.51667 -47.37210 953.96603
v 84.26482 -69.53619 953.96603
v 12.30415 -45.60821 841.79935
v 75.48582 -47.18143 841.79935
v 75.61450 -41.84233 904.77455
v 12.43284 -40.26912 904.77455
v 12.30415 -45.60821 841.79935
v 75.48582 -47.18143 841.79935
v 75.61450 -41.84233 904.77455
v 12.43284 -40.26912 904.77455
v 11.39752 -67.84853 808.11056
v 67.10748 -37.00772 808.11056
v 66.77045 -36.40004 871.78373
v 11.06048 -67.24086 871.78373
v 11.39752 -67.84853 808.11056
v 67.10748 -37.00772 808.11056
v 66.77045 -36.40004 871.78373
v 11.06048 -67.24086 871.78373
v 73.64584 -22.76662 880.25317
v 4.80004 -0.10895 880.25317
v 5.95949 3.42354 952.63612
v 74.80529 -19.23413 952.63612
v 73.64584 -22.76662 880.25317
v 4.80004 -0.10895 880.25317
v 5.95949 3.42354 952.63612
v 74.80529 -19.23413 952.63612
v 20.48830 -58.37886 862.47704
v -3.73825 8.28095 862.47704
v 1.37059 10.14229 933.19402
v 25.59714 -56.51752 933.19402
v 20.48830 -58.37886 862.47704
v -3.73825 8.28095 862.47704
v 1.37059 10.14229 933.19402
v 25.59714 -56.51752 933.19402
v 37.52069 -28.22681 935.25674
v 15.30486 31.81484 935.25674
v 5.70675 28.25478 998.45283
v 27.92258 -31.78687 998.45283
v 37.52069 -28.22681 935.25674
v 15.30486 31.81484 935.25674
v 5.70675 28.25478 998.45283
v 27.92258 -31.78687 998.45283
v 8.22387 -6.54242 910.00073
v 67.54712 -32.99172 910.00073
v 65.00991 -38.69465 974.65251
v 5.68666 -12.24535 974.65251
v 8.22387 -6.54242 910.00073
v 67.54712 -32.99172 910.00073
v 65.00991 -38.69465 974.65251
v 5.68666 -12.24535 974.65251
v -82.45599 30.41787 932.22945
v -93.07492 -29.67519 932.22945
v -95.62841 -29.22606 993.19842
v -85.00948 30.86699 993.19842
v -82.45599 30.41787 932.22945
v -93.07492 -29.67519 932.22945
v -95.62841 -29.22606 993.19842
v -85.00948 30.86699 993.19842
v -111.04479 19.84776 934.96751
v -53.88761 3.23286 934.96751
v -54.12040 2.42963 994.48473
v -111.27759 19.04453 994.48473
v -111.04479 19.84776 934.96751
v -53.88761 3.23286 934.96751
v -54.12040 2.42963 994.48473
v -111.27759 19.04453 994.48473
v -59.68910 -11.10466 1065.80135
v -117.68872 7.03342 1065.80135
v -120.77694 -2.86939 1125.67909
v -62.77732 -21.00746 1125.67909
v -59.68910 -11.10466 1065.80135
v -117.68872 7.03342 1065.80135
v -120.77694 -2.86939 1125.67909
v -62.77732 -21.00746 1125.67909
v -86.33456 -37.91007 1068.90019
v -125.71880 -0.45644 1068.90019
v -122.84973 2.56533 1123.08995
v -83.46549 -34.88830 1123.08995
v -86.33456 -37.91007 1068.90019
v -125.71880 -0.45644 1068.90019
v -122.84973 2.56533 1123.08995
v -83.46549 -34.88830 1123.08995
v -88.72694 -17.96794 1161.28084
v -44.92352 -61.50722 1161.28084
v -43.82259 -60.39784 1223.02196
v -87.62600 -16.85856 1223.02196
v -88.72694 -17.96794 1161.28084
v -44.92352 -61.50722 1161.28084
v -43.82259 -60.39784 1223.02196
v -87.62600 -16.85856 1223.02196
v -54.89031 -48.95295 1146.98490
v -119.57787 -39.13786 1146.98490
v -120.25985 -43.65676 1212.25305
v -55.57228 -53.47185 1212.25305
v -54.89031 -48.95295 1146.98490
v -119.57787 -39.13786 1146.98490
v -120.25985 -43.65676 1212.25305
v -55.57228 -53.47185 1212.25305
v -84.58451 -46.82462 900.76263
v -35.44435 -12.98999 900.76263
v -38.40463 -8.69790 960.19622
v -87.54479 -42.53254 960.19622
v -84.58451 -46.82462 900.76263
v -35.44435 -12.98999 900.76263
v -38.40463 -8.69790 960.19622
v -87.54479 -42.53254 960.19622
v -58.32772 -33.18146 921.14342
v -58.22298 17.91979 921.14342
v -57.31127 17.91864 972.23664
v -57.41601 -33.18261 972.23664
v -58.32772 -33.18146 921.14342
v -58.22298 17.91979 921.14342
v -57.31127 17.91864 972.23664
v -57.41601 -33.18261 972.23664
v -56.35123 26.37077 930.12683
v -55.65129 -46.41187 930.12683
v -66.11551 -46.52084 1002.15662
v -66.81545 26.26181 1002.15662
v -56.35123 26.37077 930.12683
v -55.65129 -46.41187 930.12683
v -66.11551 -46.52084 1002.15662
v -66.81545 26.26181 1002.15662
v -70.99305 20.63412 945.14167
v -48.25801 -21.96141 945.14167
v -46.18224 -20.85135 993.36739
v -68.91727 21.74418 993.36739
v -70.99305 20.63412 945.14167
v -48.25801 -21.96141 945.14167
v -46.18224 -20.85135 993.36739
v -68.91727 21.74418 993.36739
v -5.28058 33.65244 1024.97458
v -32.17521 -2.20472 1024.97458
v -30.34154 -3.57777 1069.73851
v -3.44692 32.27938 1069.73851
v -5.28058 33.65244 1024.97458
v -32.17521 -2.20472 1024.97458
v -30.34154 -3.57777 1069.73851
v -3.44692 32.27938 1069.73851
v -88.80692 -16.99424 990.57730
v -16.84073 -26.37332 990.57730
v -17.43305 -30.94661 1063.00542
v -89.39923 -21.56752 1063.00542
v -88.80692 -16.99424 990.57730
v -16.84073 -26.37332 990.57730
v -17.43305 -30.94661 1063.00542
v -89.39923 -21.56752 1063.00542
v -26.98018 -14.50340 854.99763
v -47.15328 49.89144 854.99763
v -58.02767 46.47529 921.50874
v -37.85457 -17.91956 921.50874
v -26.98018 -14.50340 854.99763
v -47.15328 49.89144 854.99763
v -58.02767 46.47529 921.50874
v -37.85457 -17.91956 921.50874
v -55.77140 9.07986 882.75664
v -31.33464 -55.72320 882.75664
v -28.59108 -54.68613 951.95194
v -53.02784 10.11694 951.95194
v -55.77140 9.07986 882.75664
v -31.33464 -55.72320 882.75664
v -28.59108 -54.68613 951.95194
v -53.02784 10.11694 951.95194
v -51.34911 -79.07872 949.29262
v -3.23020 -59.81778 949.29262
v -2.70535 -61.12597 1001.10407
v -50.82426 -80.38691 1001.10407
v -51.34911 -79.07872 949.29262
v -3.23020 -59.81778 949.29262
v -2.70535 -61.12597 1001.10407
v -50.82426 -80.38691 1001.10407
v -56.21877 -51.44305 937.19916
v -2.94045 -69.32039 937.19916
v -3.80351 -71.89930 993.33099
v -57.08183 -54.02196 993.33099
v -56.21877 -51.44305 937.19916
v -2.94045 -69.32039 937.19916
v -3.80351 -71.89930 993.33099
v -57.08183 -54.02196 993.33099
v -37.28717 -72.39798 1000.92236
v -80.60013 -50.20799 1000.92236
v -79.34074 -47.74494 1049.50997
v -36.02778 -69.93492 1049.50997
v -37.28717 -72.39798 1000.92236
v -80.60013 -50.20799 1000.92236
v -79.34074 -47.74494 1049.50997
v -36.02778 -69.93492 1049.50997
v -78.20136 11.78825 980.72582
v -72.87841 -43.69599 980.72582
v -72.85439 -43.69366 1036.46481
v -78.17733 11.79058 1036.46481
v -78.20136 11.78825 980.72582
v -72.87841 -43.69599 980.72582
v -72.85439 -43.69366 1036.46481
v -78.17733 11.79058 1036.46481
v -26.39511 -0.22430 1141.17559
v 0.57069 -56.85879 1141.17559
v 5.01970 -54.73610 1203.70814
v -21.94610 1.89838 1203.70814
v -26.39511 -0.22430 1141.17559
v 0.57069 -56.85879 1141.17559
v 5.01970 -54.73610 1203.70814
v -21.94610 1.89838 1203.70814
v -5.85924 -58.44649 1155.00108
v -0.34427 12.14525 1155.00108
v -5.29695 12.52821 1225.63347
v -10.81192 -58.06353 1225.63347
v -5.85924 -58.44649 1155.00108
v -0.34427 12.14525 1155.00108
v -5.29695 12.52821 1225.63347
v -10.81192 -58.06353 1225.63347
v 43.18077 32.00099 1175.36179
v 3.30396 0.00624 1175.36179
v -2.64723 7.41145 1225.59694
v 37.22958 39.40620 1225.59694
v 43.18077 32.00099 1175.36179
v 3.30396 0.00624 1175.36179
v -2.64723 7.41145 1225.59694
v 37.22958 39.40620 1225.59694
v 49.29554 10.91880 1121.71253
v -7.36214 30.88984 1121.71253
v -10.47226 22.04399 1181.05066
v 46.18542 2.07295 1181.05066
v 49.29554 10.91880 1121.71253
v -7.36214 30.88984 1121.71253
v -10.47226 22.04399 1181.05066
v 46.18542 2.07295 1181.05066
v -7.10326 -20.64721 1021.00840
v -35.00692 -82.89190 1021.00840
v -43.91691 -78.90616 1088.51945
v -16.01325 -16.66147 1088.51945
v -7.10326 -20.64721 1021.00840
v -35.00692 -82.89190 1021.00840
v -43.91691 -78.90616 1088.51945
v -16.01325 -16.66147 1088.51945
v -31.01428 -58.85839 982.44065
v -29.95629 -7.08893 982.44065
v -36.63573 -6.95774 1033.78814
v -37.69371 -58.72720 1033.78814
v -31.01428 -58.85839 982.44065
v -29.95629 -7.08893 982.44065
v -36.63573 -6.95774 1033.78814
v -37.69371 -58.72720 1033.78814
v 46.58155 16.52976 1026.85516
v 38.59474 -29.58032 1026.85516
v 30.00828 -28.10009 1072.83353
v 37.99509 18.01000 1072.83353
v 46.58155 16.52976 1026.85516
v 38.59474 -29.58032 1026.85516
v 30.00828 -28.10009 1072.83353
v 37.99509 18.01000 1072.83353
v 33.29977 38.12720 1055.71601
v 93.07626 44.98252 1055.71601
v 92.07911 53.61663 1115.25323
v 32.30263 46.76132 1115.25323
v 33.29977 38.12720 1055.71601
v 93.07626 44.98252 1055.71601
v 92.07911 53.61663 1115.25323
v 32.30263 46.76132 1115.25323
v 14.92661 -13.60022 893.16605
v 62.72446 -40.56112 893.16605
v 64.00422 -38.28806 947.98137
v 16.20637 -11.32716 947.98137
v 14.92661 -13.60022 893.16605
v 62.72446 -40.56112 893.16605
v 64.00422 -38.28806 947.98137
v 16.20637 -11.32716 947.98137
v 63.02448 16.96020 900.52225
v 42.39801 -51.07934 900.52225
v 41.15036 -50.70219 971.60763
v 61.77683 17.33734 971.60763
v 63.02448 16.96020 900.52225
v 42.39801 -51.07934 900.52225
v 41.15036 -50.70219 971.60763
v 61.77683 17.33734 971.60763
v -85.86855 52.72818 1164.06764
v -45.53468 15.38186 1164.06764
v -48.88267 11.76026 1218.81473
v -89.21654 49.10659 1218.81473
v -85.86855 52.72818 1164.06764
v -45.53468 15.38186 1164.06764
v -48.88267 11.76026 1218.81473
v -89.21654 49.10659 1218.81473
v -67.07021 42.68600 1179.07349
v -23.26302 20.72975 1179.07349
v -27.26198 12.73512 1227.25275
v -71.06917 34.69137 1227.25275
v -67.07021 42.68600 1179.07349
v -23.26302 20.72975 1179.07349
v -27.26198 12.73512 1227.25275
v -71.06917 34.69137 1227.25275
v -63.68316 24.06486 992.17777
v -80.06291 87.35929 992.17777
v -69.56195 90.08572 1056.65084
v -53.18221 26.79129 1056.65084
v -63.68316 24.06486 992.17777
v -80.06291 87.35929 992.17777
v -69.56195 90.08572 1056.65084
v -53.18221 26.79129 1056.65084
v -75.16657 57.39581 987.01689
v -29.60458 55.03954 987.01689
v -29.73220 52.53299 1032.57068
v -75.29419 54.88925 1032.57068
v -75.16657 57.39581 987.01689
v -29.60458 55.03954 987.01689
v -29.73220 52.53299 1032.57068
v -75.29419 54.88925 1032.57068
v -11.96428 -41.41873 949.19303
v -66.50730 -0.90972 949.19303
v -70.57095 -6.39030 1016.79015
v -16.02793 -46.89931 1016.79015
v -11.96428 -41.41873 949.19303
v -66.50730 -0.90972 949.19303
v -70.57095 -6.39030 1016.79015
v -16.02793 -46.89931 1016.79015
v -97.80996 38.74900 964.84128
v -33.52370 16.12037 964.84128
v -33.64744 15.76794 1032.99287
v -97.93370 38.39657 1032.99287
v -97.80996 38.74900 964.84128
v -33.52370 16.12037 964.84128
v -33.64744 15.76794 1032.99287
v -97.93370 38.39657 1032.99287
v 90.82103 -67.47670 884.93082
v 57.06061 -27.44294 884.93082
v 54.97675 -29.20309 937.22831
v 88.73718 -69.23685 937.22831
v 90.82103 -67.47670 884.93082
v 57.06061 -27.44294 884.93082
v 54.97675 -29.20309 937.22831
v 88.73718 -69.23685 937.22831
v 57.80192 -30.55606 875.04142
v 28.33637 15.20216 875.04142
v 23.30191 11.95460 929.13523
v 52.76747 -33.80362 929.13523
v 57.80192 -30.55606 875.04142
v 28.33637 15.20216 875.04142
v 23.30191 11.95460 929.13523
v 52.76747 -33.80362 929.13523
v 9.01360 -92.07225 971.37062
v 6.21618 -28.45827 971.37062
v 6.88048 -28.42853 1035.04260
v 9.67789 -92.04251 1035.04260
v 9.01360 -92.07225 971.37062
v 6.21618 -28.45827 971.37062
v 6.88048 -28.42853 1035.04260
v 9.67789 -92.04251 1035.04260
v -12.23917 -47.04560 969.00728
v 32.45332 -80.15966 969.00728
v 30.59747 -82.66858 1024.54304
v -14.09502 -49.55452 1024.54304
v -12.23917 -47.04560 969.00728
v 32.45332 -80.15966 969.00728
v 30.59747 -82.66858 1024.54304
v -14.09502 -49.55452 1024.54304
v 79.93721 26.39107 836.35756
v 47.64587 -35.05039 836.35756
v 47.79274 -35.12743 905.76762
v 80.08408 26.31403 905.76762
v 79.93721 26.39107 836.35756
v 47.64587 -35.05039 836.35756
v 47.79274 -35.12743 905.76762
v 80.08408 26.31403 905.76762
v 105.11498 -14.14855 859.05769
v 65.92250 15.22178 859.05769
v 69.85989 20.48466 907.59083
v 109.05237 -8.88567 907.59083
v 105.11498 -14.14855 859.05769
v 65.92250 15.22178 859.05769
v 69.85989 20.48466 907.59083
v 109.05237 -8.88567 907.59083
v 12.86370 -23.82393 841.31731
v 69.84380 -14.68553 841.31731
v 69.36218 -11.69773 898.94615
v 12.38208 -20.83613 898.94615
v 12.86370 -23.82393 841.31731
v 69.84380 -14.68553 841.31731
v 69.36218 -11.69773 898.94615
v 12.38208 -20.83613 898.94615
v 66.78480 -84.15681 799.96100
v 49.51800 -24.55336 799.96100
v 52.60560 -23.65623 861.93176
v 69.87240 -83.25968 861.93176
v 66.78480 -84.15681 799.96100
v 49.51800 -24.55336 799.96100
v 52.60560 -23.65623 861.93176
v 69.87240 -83.25968 861.93176
v -60.93018 59.25299 667.11735
v -9.68727 53.60300 667.11735
v -9.53260 55.01609 718.65120
v -60.77551 60.66609 718.65120
v -60.93018 59.25299 667.11735
v -9.68727 53.60300 667.11735
v -9.53260 55.01609 718.65120
v -60.77551 60.66609 718.65120
v -22.35482 75.32654 669.36169
v -70.34178 106.88767 669.36169
v -71.71069 104.80270 726.74316
v -23.72373 73.24157 726.74316
v -22.35482 75.32654 669.36169
v -70.34178 106.88767 669.36169
v -71.71069 104.80270 726.74316
v -23.72373 73.24157 726.74316
v -2.18112 89.08120 679.69778
v 53.08159 92.31138 679.69778
v 52.94034 94.69534 735.00328
v -2.32237 91.46515 735.00328
v -2.18112 89.08120 679.69778
v 53.08159 92.31138 679.69778
v 52.94034 94.69534 735.00328
v -2.32237 91.46515 735.00328
v 3.57035 42.74702 708.57974
v 72.14099 34.38864 708.57974
v 73.01125 41.57576 777.27750
v 4.44061 49.93413 777.27750
v 3.57035 42.74702 708.57974
v 72.14099 34.38864 708.57974
v 73.01125 41.57576 777.27750
v 4.44061 49.93413 777.27750
v 16.70637 -100.25866 911.75422
v 57.15107 -40.21093 911.75422
v 49.31423 -34.94156 983.53389
v 8.86954 -94.98929 983.53389
v 16.70637 -100.25866 911.75422
v 57.15107 -40.21093 911.75422
v 49.31423 -34.94156 983.53389
v 8.86954 -94.98929 983.53389
v 57.56644 -39.34783 899.03025
v 13.09646 -53.95115 899.03025
v 12.46714 -52.03987 945.79334
v 56.93711 -37.43656 945.79334
v 57.56644 -39.34783 899.03025
v 13.09646 -53.95115 899.03025
v 12.46714 -52.03987 945.79334
v 56.93711 -37.43656 945.79334
v 9.69973 -70.70065 956.12497
v 57.13959 -82.00497 956.12497
v 57.61807 -79.98987 1004.84907
v 10.17821 -68.68555 1004.84907
v 9.69973 -70.70065 956.12497
v 57.13959 -82.00497 956.12497
v 57.61807 -79.98987 1004.84907
v 10.17821 -68.68555 1004.84907
v 5.45425 -70.77779 921.43222
v 53.42003 -116.18000 921.43222
v 55.39452 -114.09069 987.41565
v 7.42874 -68.68848 987.41565
v 5.45425 -70.77779 921.43222
v 53.42003 -116.18000 921.43222
v 55.39452 -114.09069 987.41565
v 7.42874 -68.68848 987.41565
v -8.23454 -31.27251 1236.92120
v 40.23203 21.44815 1236.92120
v 34.86418 26.37498 1308.16296
v -13.60239 -26.34568 1308.16296
v -8.23454 -31.27251 1236.92120
v 40.23203 21.44815 1236.92120
v 34.86418 26.37498 1308.16296
v -13.60239 -26.34568 1308.16296
v 9.22920 -25.49261 1279.22343
v 67.67898 -37.98528 1279.22343
v 67.74979 -37.65269 1338.99239
v 9.30001 -25.16002 1338.99239
v 9.22920 -25.49261 1279.22343
v 67.67898 -37.98528 1279.22343
v 67.74979 -37.65269 1338.99239
v 9.30001 -25.16002 1338.99239
v 62.99631 -6.82417 1259.05778
v 15.47127 -10.09838 1259.05778
v 15.34093 -8.22815 1306.65858
v 62.86597 -4.95393 1306.65858
v 62.99631 -6.82417 1259.05778
v 15.47127 -10.09838 1259.05778
v 15.34093 -8.22815 1306.65858
v 62.86597 -4.95393 1306.65858
v 3.87200 24.15080 1251.41130
v 3.33716 -28.69255 1251.41130
v 9.97488 -28.75444 1303.83880
v 10.50972 24.08890 1303.83880
v 3.87200 24.15080 1251.41130
v 3.33716 -28.69255 1251.41130
v 9.97488 -28.75444 1303.83880
v 10.50972 24.08890 1303.83880
v -26.24126 10.08052 913.35971
v -24.20966 -41.54331 913.35971
v -19.65047 -41.36025 964.82161
v -21.68207 10.26357 964.82161
v -26.24126 10.08052 913.35971
v -24.20966 -41.54331 913.35971
v -19.65047 -41.36025 964.82161
v -21.68207 10.26357 964.82161
v 39.43906 -29.28629 906.52580
v -8.66362 -61.60582 906.52580
v -12.10535 -56.49214 964.14893
v 35.99734 -24.17261 964.14893
v 39.43906 -29.28629 906.52580
v -8.66362 -61.60582 906.52580
v -12.10535 -56.49214 964.14893
v 35.99734 -24.17261 964.14893
v 10.33816 -34.74653 1284.42083
v -37.34363 -42.56650 1284.42083
v -38.75888 -33.97990 1331.94947
v 8.92290 -26.15992 1331.94947
v 10.33816 -34.74653 1284.42083
v -37.34363 -42.56650 1284.42083
v -38.75888 -33.97990 1331.94947
v 8.92290 -26.15992 1331.94947
v -24.87816 -21.56382 1274.51265
v -36.44432 40.22137 1274.51265
v -36.49185 40.21243 1337.37109
v -24.92569 -21.57276 1337.37109
v -24.87816 -21.56382 1274.51265
v -36.44432 40.22137 1274.51265
v -36.49185 40.21243 1337.37109
v -24.92569 -21.57276 1337.37109
v -17.05309 -37.62978 1295.56737
v 7.48591 24.63922 1295.56737
v 6.96184 24.84527 1362.49474
v -17.57716 -37.42373 1362.49474
v -17.05309 -37.62978 1295.56737
v 7.48591 24.63922 1295.56737
v 6.96184 24.84527 1362.49474
v -17.57716 -37.42373 1362.49474
v -15.99232 45.24183 1294.39065
v -41.04647 -22.07319 1294.39065
v -35.89831 -23.98463 1366.00675
v -10.84415 43.33039 1366.00675
v -15.99232 45.24183 1294.39065
v -41.04647 -22.07319 1294.39065
v -35.89831 -23.98463 1366.00675
v -10.84415 43.33039 1366.00675
v 76.04882 -16.08058 972.86516
v 7.55424 -32.73220 972.86516
v 4.80929 -21.48019 1042.39675
v 73.30387 -4.82857 1042.39675
v 76.04882 -16.08058 972.86516
v 7.55424 -32.73220 972.86516
v 4.80929 -21.48019 1042.39675
v 73.30387 -4.82857 1042.39675
v -5.69640 -17.58922 962.55417
v 26.14073 27.94697 962.55417
v 21.54412 31.15529 1017.83278
v -10.29300 -14.38090 1017.83278
v -5.69640 -17.58922 962.55417
v 26.14073 27.94697 962.55417
v 21.54412 31.15529 1017.83278
v -10.29300 -14.38090 1017.83278
v 55.31289 79.41271 1026.89209
v 48.03266 23.61825 1026.89209
v 38.93119 24.79847 1082.40599
v 46.21142 80.59293 1082.40599
v 55.31289 79.41271 1026.89209
v 48.03266 23.61825 1026.89209
v 38.93119 24.79847 1082.40599
v 46.21142 80.59293 1082.40599
v -24.34646 57.54056 1043.11430
v 21.33898 59.19578 1043.11430
v 21.32155 59.66667 1088.82729
v -24.36389 58.01145 1088.82729
v -24.34646 57.54056 1043.11430
v 21.33898 59.19578 1043.11430
v 21.32155 59.66667 1088.82729
v -24.36389 58.01145 1088.82729
v 38.09454 -50.96674 1098.85275
v -1.50644 7.56294 1098.85275
v 2.31533 10.15318 1169.36974
v 41.91631 -48.37650 1169.36974
v 38.09454 -50.96674 1098.85275
v -1.50644 7.56294 1098.85275
v 2.31533 10.15318 1169.36974
v 41.91631 -48.37650 1169.36974
v 52.42104 -52.42322 1060.58293
v 86.87093 -5.80722 1060.58293
v 83.12488 -3.04345 1118.35987
v 48.67500 -49.65945 1118.35987
v 52.42104 -52.42322 1060.58293
v 86.87093 -5.80722 1060.58293
v 83.12488 -3.04345 1118.35987
v 48.67500 -49.65945 1118.35987
v -53.52181 -49.57124 909.71996
v -94.79777 6.29022 909.71996
v -93.16984 7.49510 979.14694
v -51.89388 -48.36636 979.14694
v -53.52181 -49.57124 909.71996
v -94.79777 6.29022 909.71996
v -93.16984 7.49510 979.14694
v -51.89388 -48.36636 979.14694
v -114.19483 -36.73726 943.32288
v -77.28783 -9.14480 943.32288
v -76.72610 -9.89491 989.39447
v -113.63310 -37.48737 989.39447
v -114.19483 -36.73726 943.32288
v -77.28783 -9.14480 943.32288
v -76.72610 -9.89491 989.39447
v -113.63310 -37.48737 989.39447
v 69.45540 26.12619 947.23137
v 52.70208 83.13073 947.23137
v 60.23263 85.35043 1006.12580
v 76.98594 28.34589 1006.12580
v 69.45540 26.12619 947.23137
v 52.70208 83.13073 947.23137
v 60.23263 85.35043 1006.12580
v 76.98594 28.34589 1006.12580
v 79.79691 65.50166 912.98094
v 72.65839 20.53912 912.98094
v 75.85957 20.03350 958.39112
v 82.99809 64.99604 958.39112
v 79.79691 65.50166 912.98094
v 72.65839 20.53912 912.98094
v 75.85957 20.03350 958.39112
v 82.99809 64.99604 958.39112
v -22.64370 82.88892 841.25756
v -18.40889 22.38080 841.25756
v -9.64864 23.00092 901.27455
v -13.88345 83.50904 901.27455
v -22.64370 82.88892 841.25756
v -18.40889 22.38080 841.25756
v -9.64864 23.00092 901.27455
v -13.88345 83.50904 901.27455
v -34.89065 20.54307 869.82073
v -11.81254 66.41625 869.82073
v -13.66886 67.34828 921.12992
v -36.74697 21.47511 921.12992
v -34.89065 20.54307 869.82073
v -11.81254 66.41625 869.82073
v -13.66886 67.34828 921.12992
v -36.74697 21.47511 921.12992
v 15.39406 27.92151 914.22780
v -29.17484 12.48233 914.22780
v -27.49942 7.65826 961.11785
v 17.06948 23.09744 961.11785
v 15.39406 27.92151 914.22780
v -29.17484 12.48233 914.22780
v -27.49942 7.65826 961.11785
v 17.06948 23.09744 961.11785
v 14.91889 43.41498 885.02819
v 2.21248 -18.92256 885.02819
v -1.24528 -18.22063 948.54964
v 11.46113 44.11691 948.54964
v 14.91889 43.41498 885.02819
v 2.21248 -18.92256 885.02819
v -1.24528 -18.22063 948.54964
v 11.46113 44.11691 948.54964
v 16.88769 14.68186 973.63650
v 35.06573 67.41549 973.63650
v 28.71193 69.60008 1029.00918
v 10.53389 16.86645 1029.00918
v 16.88769 14.68186 973.63650
v 35.06573 67.41549 973.63650
v 28.71193 69.60008 1029.00918
v 10.53389 16.86645 1029.00918
v -1.27882 45.29640 939.13319
v 64.88647 74.52048 939.13319
v 67.50420 68.60650 1011.17529
v 1.33892 39.38242 1011.17529
v -1.27882 45.29640 939.13319
v 64.88647 74.52048 939.13319
v 67.50420 68.60650 1011.17529
v 1.33892 39.38242 1011.17529
v -104.06888 -51.18122 920.62934
v -50.47445 -9.47328 920.62934
v -45.36633 -16.02640 988.03022
v -98.96076 -57.73434 988.03022
v -104.06888 -51.18122 920.62934
v -50.47445 -9.47328 920.62934
v -45.36633 -16.02640 988.03022
v -98.96076 -57.73434 988.03022
v -30.34890 -47.13185 956.27870
v -78.51537 -14.27466 956.27870
v -77.56574 -12.88018 1014.56040
v -29.39927 -45.73737 1014.56040
v -30.34890 -47.13185 956.27870
v -78.51537 -14.27466 956.27870
v -77.56574 -12.88018 1014.56040
v -29.39927 -45.73737 1014.56040
v 27.52165 -17.17344 1085.40850
v -13.89511 -40.66512 1085.40850
v -14.36110 -39.84508 1133.01435
v 27.05566 -16.35339 1133.01435
v 27.52165 -17.17344 1085.40850
v -13.89511 -40.66512 1085.40850
v -14.36110 -39.84508 1133.01435
v 27.05566 -16.35339 1133.01435
v 55.78000 -3.85341 1083.04412
v 41.63909 -67.22330 1083.04412
v 44.51358 -67.86233 1147.90580
v 58.65450 -4.49244 1147.90580
v 55.78000 -3.85341 1083.04412
v 41.63909 -67.22330 1083.04412
v 44.51358 -67.86233 1147.90580
v 58.65450 -4.49244 1147.90580
v 29.81238 -10.34010 1259.62272
v -34.59708 -37.04033 1259.62272
v -32.42182 -42.27595 1329.11615
v 31.98764 -15.57572 1329.11615
v 29.81238 -10.34010 1259.62272
v -34.59708 -37.04033 1259.62272
v -32.42182 -42.27595 1329.11615
v 31.98764 -15.57572 1329.11615
v 32.93758 -74.33398 1277.23702
v 16.08211 -28.75398 1277.23702
v 17.33384 -28.28996 1325.81542
v 34.18930 -73.86996 1325.81542
v 32.93758 -74.33398 1277.23702
v 16.08211 -28.75398 1277.23702
v 17.33384 -28.28996 1325.81542
v 34.18930 -73.86996 1325.81542
v -5.71132 48.79315 811.63254
v -27.02277 89.69500 811.63254
v -21.96923 92.33321 857.39978
v -0.65778 51.43136 857.39978
v -5.71132 48.79315 811.63254
v -27.02277 89.69500 811.63254
v -21.96923 92.33321 857.39978
v -0.65778 51.43136 857.39978
v -5.09423 65.90282 836.96509
v -30.66531 11.54079 836.96509
v -30.13159 11.29026 897.03806
v -4.56052 65.65229 897.03806
v -5.09423 65.90282 836.96509
v -30.66531 11.54079 836.96509
v -30.13159 11.29026 897.03806
v -4.56052 65.65229 897.03806
v -12.64726 -29.04800 1157.09203
v 37.71637 -40.30985 1157.09203
v 36.38223 -46.29856 1208.33341
v -13.98139 -35.03672 1208.33341
v -12.64726 -29.04800 1157.09203
v 37.71637 -40.30985 1157.09203
v 36.38223 -46.29856 1208.33341
v -13.98139 -35.03672 1208.33341
v 4.83220 13.94227 1209.21732
v 21.62891 -28.61742 1209.21732
v 16.00408 -30.84251 1254.57001
v -0.79264 11.71718 1254.57001
v 4.83220 13.94227 1209.21732
v 21.62891 -28.61742 1209.21732
v 16.00408 -30.84251 1254.57001
v -0.79264 11.71718 1254.57001
v 49.87014 3.15455 727.58147
v 103.92715 -44.81334 727.58147
v 108.64173 -39.49176 799.50180
v 54.58472 8.47614 799.50180
v 49.87014 3.15455 727.58147
v 103.92715 -44.81334 727.58147
v 108.64173 -39.49176 799.50180
v 54.58472 8.47614 799.50180
v 8.16907 11.63614 710.78306
v 66.12950 -25.16375 710.78306
v 61.26341 -32.84142 778.83464
v 3.30299 3.95847 778.83464
v 8.16907 11.63614 710.78306
v 66.12950 -25.16375 710.78306
v 61.26341 -32.84142 778.83464
v 3.30299 3.95847 778.83464
v 4.75320 -67.39681 941.21421
v -45.44603 -31.14652 941.21421
v -44.86593 -30.34185 1003.12594
v 5.33330 -66.59214 1003.12594
v 4.75320 -67.39681 941.21421
v -45.44603 -31.14652 941.21421
v -44.86593 -30.34185 1003.12594
v 5.33330 -66.59214 1003.12594
v -33.33859 -46.14642 935.44701
v -65.32934 -82.90890 935.44701
v -69.72255 -79.09208 983.83110
v -37.73179 -42.32959 983.83110
v -33.33859 -46.14642 935.44701
v -65.32934 -82.90890 935.44701
v -69.72255 -79.09208 983.83110
v -37.73179 -42.32959 983.83110
v -52.84178 50.26167 1078.57832
v -13.82040 7.61223 1078.57832
v -6.63365 14.19815 1135.55743
v -45.65502 56.84759 1135.55743
v -52.84178 50.26167 1078.57832
v -13.82040 7.61223 1078.57832
v -6.63365 14.19815 1135.55743
v -45.65502 56.84759 1135.55743
v -33.63856 65.42373 1100.85421
v -20.45245 -4.34609 1100.85421
v -16.26393 -3.55103 1171.73104
v -29.45003 66.21879 1171.73104
v -33.63856 65.42373 1100.85421
v -20.45245 -4.34609 1100.85421
v -16.26393 -3.55103 1171.73104
v -29.45003 66.21879 1171.73104
v 39.25629 -5.42196 1270.79050
v 16.87780 37.94593 1270.79050
v 19.29140 39.19381 1319.51614
v 41.66989 -4.17407 1319.51614
v 39.25629 -5.42196 1270.79050
v 16.87780 37.94593 1270.79050
v 19.29140 39.19381 1319.51614
v 41.66989 -4.17407 1319.51614
v 9.76567 15.02027 1279.56739
v 66.76869 24.89692 1279.56739
v 68.19635 16.69605 1336.81772
v 11.19332 6.81939 1336.81772
v 9.76567 15.02027 1279.56739
v 66.76869 24.89692 1279.56739
v 68.19635 16.69605 1336.81772
v 11.19332 6.81939 1336.81772
v -50.79919 -110.86466 685.29049
v -90.84359 -55.40692 685.29049
v -90.90817 -55.45362 753.69449
v -50.86377 -110.91136 753.69449
v -50.79919 -110.86466 685.29049
v -90.84359 -55.40692 685.29049
v -90.90817 -55.45362 753.69449
v -50.86377 -110.91136 753.69449
v -48.67378 -73.52549 724.13739
v -101.70619 -64.72600 724.13739
v -100.15766 -55.34717 777.04775
v -47.12526 -64.14666 777.04775
v -48.67378 -73.52549 724.13739
v -101.70619 -64.72600 724.13739
v -100.15766 -55.34717 777.04775
v -47.12526 -64.14666 777.04775
v -24.57455 45.28686 722.16674
v -71.83739 75.21378 722.16674
v -76.40268 67.99121 777.45136
v -29.13984 38.06429 777.45136
v -24.57455 45.28686 722.16674
v -71.83739 75.21378 722.16674
v -76.40268 67.99121 777.45136
v -29.13984 38.06429 777.45136
v -27.87870 114.20785 723.94062
v -61.81571 78.85544 723.94062
v -61.95238 78.98644 772.94549
v -28.01537 114.33885 772.94549
v -27.87870 114.20785 723.94062
v -61.81571 78.85544 723.94062
v -61.95238 78.98644 772.94549
v -28.01537 114.33885 772.94549
v 37.98304 -6.71944 890.54839
v 104.57340 21.82553 890.54839
v 100.45958 31.40128 962.24548
v 33.86922 2.85631 962.24548
v 37.98304 -6.71944 890.54839
v 104.57340 21.82553 890.54839
v 100.45958 31.40128 962.24548
v 33.86922 2.85631 962.24548
v 108.31899 -13.33621 890.96095
v 64.02248 44.20822 890.96095
v 74.15385 52.02000 962.44433
v 118.45036 -5.52443 962.44433
v 108.31899 -13.33621 890.96095
v 64.02248 44.20822 890.96095
v 74.15385 52.02000 962.44433
v 118.45036 -5.52443 962.44433
v -25.10914 -24.33317 718.23164
v -49.93027 16.65113 718.23164
v -48.08087 17.77318 766.09730
v -23.25975 -23.21111 766.09730
v -25.10914 -24.33317 718.23164
v -49.93027 16.65113 718.23164
v -48.08087 17.77318 766.09730
v -23.25975 -23.21111 766.09730
v 39.43100 -26.43404 710.47506
v -16.56589 5.00736 710.47506
v -18.97052 0.71674 774.50647
v 37.02637 -30.72466 774.50647
v 39.43100 -26.43404 710.47506
v -16.56589 5.00736 710.47506
v -18.97052 0.71674 774.50647
v 37.02637 -30.72466 774.50647
vt 0.00000 1.00000
vt 1.00000 1.00000
vt 1.00000 0.00000
vt 0.00000 0.00000
vt 0.00000 1.00000
vt 1.00000 1.00000
vt 1.00000 0.00000
vt 0.00000 0.00000
vt 0.00000 1.00000
vt 1.00000 1.00000
vt 1.00000 0.00000
vt 0.00000 0.00000
vt 0.00000 1.00000
vt 1.00000 1.00000
vt 1.00000 0.00000
vt 0.00000 0.00000
vt 0.00000 1.00000
vt 1.00000 1.00000
vt 1.00000 0.00000
vt 0.00000 0.00000
vt 0.00000 1.00000
vt 1.00000 1.00000
vt 1.00000 0.00000
vt 0.00000 0.00000
vt 0.00000 1.00000
vt 1.00000 1.00000
vt 1.00000 0.00000
vt 0.00000 0.00000
vt 0.00000 1.00000
vt 1.00000 1.00000
vt 1.00000 0.00000
vt 0.00000 0.00000
vt 0.00000 1.00000
vt 1.00000 1.00000
vt 1.00000 0.00000
vt 0.00000 0.00000
vt 0.00000 1.00000
vt 1.00000 1.00000
vt 1.00000 0.00000
vt 0.00000 0.00000
vt 0.00000 1.00000
vt 1.00000 1.00000
vt 1.00000 0.00000
vt 0.00000 0.00000
vt 0.00000 1.00000
vt 1.00000 1.00000
vt 1.00000 0.00000
vt 0.00000 0.00000
vt 0.00000 1.00000
vt 1.00000 1.00000
vt 1.00000 0.00000
vt 0.00000 0.00000
vt 0.00000 1.00000
vt 1.00000 1.00000
vt 1.00000 0.00000
vt 0.00000 0.00000
vt 0.00000 1.00000
vt 1.00000 1.00000
vt 1.00000 0.00000
vt 0.00000 0.00000
vt 0.00000 1.00000
vt 1.00000 1.00000
vt 1.00000 0.00000
vt 0.00000 0.00000
vt 0.00000 1.00000
vt 1.00000 1.00000
vt 1.00000 0.00000
vt 0.00000 0.00000
vt 0.00000 1.00000
vt 1.00000 1.00000
vt 1.00000 0.00000
vt 0.00000 0.00000
vt 0.00000 1.00000
vt 1.00000 1.00000
vt 1.00000 0.00000
vt 0.00000 0.00000
vt 0.00000 1.00000
vt 1.00000 1.00000
vt 1.00000 0.00000
vt 0.00000 0.00000
vt 0.00000 1.00000
vt 1.00000 1.00000
vt 1.00000 0.00000
vt 0.00000 0.00000
vt 0.00000 1.00000
vt 1.00000 1.00000
vt 1.00000 0.00000
vt 0.00000 0.00000
vt 0.00000 1.00000
vt 1.00000 1.00000
vt 1.00000 0.00000
vt 0.00000 0.00000
vt 0.00000 1.00000
vt 1.00000 1.00000
vt 1.00000 0.00000
vt 0.00000 0.00000
vt 0.00000 1.00000
vt 1.00000 1.00000
vt 1.00000 0.00000
vt 0.00000 0.00000
vt 0.00000 1.00000
vt 1.00000 1.00000
vt 1.00000 0.00000
vt 0.00000 0.00000
vt 0.00000 1.00000
vt 1.00000 1.00000
vt 1.00000 0.00000
vt 0.00000 0.00000
vt 0.00000 1.00000
vt 1.00000 1.00000
vt 1.00000 0.00000
vt 0.00000 0.00000
vt 0.00000 1.00000
vt 1.00000 1.00000
vt 1.00000 0.00000
vt 0.00000 0.00000
vt 0.00000 1.00000
vt 1.00000 1.00000
vt 1.00000 0.00000
vt 0.00000 0.00000
vt 0.00000 1.00000
vt 1.00000 1.00000
vt 1.00000 0.00000
vt 0.00000 0.00000
vt 0.00000 1.00000
vt 1.00000 1.00000
vt 1.00000 0.00000
vt 0.00000 0.00000
vt 0.00000 1.00000
vt 1.00000 1.00000
vt 1.00000 0.00000
vt 0.00000 0.00000
vt 0.00000 1.00000
vt 1.00000 1.00000
vt 1.00000 0.00000
vt 0.00000 0.00000
vt 0.00000 1.00000
vt 1.00000 1.00000
vt 1.00000 0.00000
vt 0.00000 0.00000
vt 0.00000 1.00000
vt 1.00000 1.00000
vt 1.00000 0.00000
vt 0.00000 0.00000
vt 0.00000 1.00000
vt 1.00000 1.00000
vt 1.00000 0.00000
vt 0.00000 0.00000
vt 0.00000 1.00000
vt 1.00000 1.00000
vt 1.00000 0.00000
vt 0.00000 0.00000
vt 0.00000 1.00000
vt 1.00000 1.00000
vt 1.00000 0.00000
vt 0.00000 0.00000
vt 0.00000 1.00000
vt 1.00000 1.00000
vt 1.00000 0.00000
vt 0.00000 0.00000
vt 0.00000 1.00000
vt 1.00000 1.00000
vt 1.00000 0.00000
vt 0.00000 0.00000
vt 0.00000 1.00000
vt 1.00000 1.00000
vt 1.00000 0.00000
vt 0.00000 0.00000
vt 0.00000 1.00000
vt 1.00000 1.00000
vt 1.00000 0.00000
vt 0.00000 0.00000
vt 0.00000 1.00000
vt 1.00000 1.00000
vt 1.00000 0.00000
vt 0.00000 0.00000
vt 0.00000 1.00000
vt 1.00000 1.00000
vt 1.00000 0.00000
vt 0.00000 0.00000
vt 0.00000 1.00000
vt 1.00000 1.00000
vt 1.00000 0.00000
vt 0.00000 0.00000
vt 0.00000 1.00000
vt 1.00000 1.00000
vt 1.00000 0.00000
vt 0.00000 0.00000
vt 0.00000 1.00000
vt 1.00000 1.00000
vt 1.00000 0.00000
vt 0.00000 0.00000
vt 0.00000 1.00000
vt 1.00000 1.00000
vt 1.00000 0.00000
vt 0.00000 0.00000
vt 0.00000 1.00000
vt 1.00000 1.00000
vt 1.00000 0.00000
vt 0.00000 0.00000
vt 0.00000 1.00000
vt 1.00000 1.00000
vt 1.00000 0.00000
vt 0.00000 0.00000
vt 0.00000 1.00000
vt 1.00000 1.00000
vt 1.00000 0.00000
vt 0.00000 0.00000
vt 0.00000 1.00000
vt 1.00000 1.00000
vt 1.00000 0.00000
vt 0.00000 0.00000
vt 0.00000 1.00000
vt 1.00000 1.00000
vt 1.00000 0.00000
vt 0.00000 0.00000
vt 0.00000 1.00000
vt 1.00000 1.00000
vt 1.00000 0.00000
vt 0.00000 0.00000
vt 0.00000 1.00000
vt 1.00000 1.00000
vt 1.00000 0.00000
vt 0.00000 0.00000
vt 0.00000 1.00000
vt 1.00000 1.00000
vt 1.00000 0.00000
vt 0.00000 0.00000
vt 0.00000 1.00000
vt 1.00000 1.00000
vt 1.00000 0.00000
vt 0.00000 0.00000
vt 0.00000 1.00000
vt 1.00000 1.00000
vt 1.00000 0.00000
vt 0.00000 0.00000
vt 0.00000 1.00000
vt 1.00000 1.00000
vt 1.00000 0.00000
vt 0.00000 0.00000
vt 0.00000 1.00000
vt 1.00000 1.00000
vt 1.00000 0.00000
vt 0.00000 0.00000
vt 0.00000 1.00000
vt 1.00000 1.00000
vt 1.00000 0.00000
vt 0.00000 0.00000
vt 0.00000 1.00000
vt 1.00000 1.00000
vt 1.00000 0.00000
vt 0.00000 0.00000
vt 0.00000 1.00000
vt 1.00000 1.00000
vt 1.00000 0.00000
vt 0.00000 0.00000
vt 0.00000 1.00000
vt 1.00000 1.00000
vt 1.00000 0.00000
vt 0.00000 0.00000
vt 0.00000 1.00000
vt 1.00000 1.00000
vt 1.00000 0.00000
vt 0.00000 0.00000
vt 0.00000 1.00000
vt 1.00000 1.00000
vt 1.00000 0.00000
vt 0.00000 0.00000
vt 0.00000 1.00000
vt 1.00000 1.00000
vt 1.00000 0.00000
vt 0.00000 0.00000
vt 0.00000 1.00000
vt 1.00000 1.00000
vt 1.00000 0.00000
vt 0.00000 0.00000
vt 0.00000 1.00000
vt 1.00000 1.00000
vt 1.00000 0.00000
vt 0.00000 0.00000
vt 0.00000 1.00000
vt 1.00000 1.00000
vt 1.00000 0.00000
vt 0.00000 0.00000
vt 0.00000 1.00000
vt 1.00000 1.00000
vt 1.00000 0.00000
vt 0.00000 0.00000
vt 0.00000 1.00000
vt 1.00000 1.00000
vt 1.00000 0.00000
vt 0.00000 0.00000
vt 0.00000 1.00000
vt 1.00000 1.00000
vt 1.00000 0.00000
vt 0.00000 0.00000
vt 0.00000 1.00000
vt 1.00000 1.00000
vt 1.00000 0.00000
vt 0.00000 0.00000
vt 0.00000 1.00000
vt 1.00000 1.00000
vt 1.00000 0.00000
vt 0.00000 0.00000
vt 0.00000 1.00000
vt 1.00000 1.00000
vt 1.00000 0.00000
vt 0.00000 0.00000
vt 0.00000 1.00000
vt 1.00000 1.00000
vt 1.00000 0.00000
vt 0.00000 0.00000
vt 0.00000 1.00000
vt 1.00000 1.00000
vt 1.00000 0.00000
vt 0.00000 0.00000
vt 0.00000 1.00000
vt 1.00000 1.00000
vt 1.00000 0.00000
vt 0.00000 0.00000
vt 0.00000 1.00000
vt 1.00000 1.00000
vt 1.00000 0.00000
vt 0.00000 0.00000
vt 0.00000 1.00000
vt 1.00000 1.00000
vt 1.00000 0.00000
vt 0.00000 0.00000
vt 0.00000 1.00000
vt 1.00000 1.00000
vt 1.00000 0.00000
vt 0.00000 0.00000
vt 0.00000 1.00000
vt 1.00000 1.00000
vt 1.00000 0.00000
vt 0.00000 0.00000
vt 0.00000 1.00000
vt 1.00000 1.00000
vt 1.00000 0.00000
vt 0.00000 0.00000
vt 0.00000 1.00000
vt 1.00000 1.00000
vt 1.00000 0.00000
vt 0.00000 0.00000
vt 0.00000 1.00000
vt 1.00000 1.00000
vt 1.00000 0.00000
vt 0.00000 0.00000
vt 0.00000 1.00000
vt 1.00000 1.00000
vt 1.00000 0.00000
vt 0.00000 0.00000
vt 0.00000 1.00000
vt 1.00000 1.00000
vt 1.00000 0.00000
vt 0.00000 0.00000
vt 0.00000 1.00000
vt 1.00000 1.00000
vt 1.00000 0.00000
vt 0.00000 0.00000
vt 0.00000 1.00000
vt 1.00000 1.00000
vt 1.00000 0.00000
vt 0.00000 0.00000
vt 0.00000 1.00000
vt 1.00000 1.00000
vt 1.00000 0.00000
vt 0.00000 0.00000
vt 0.00000 1.00000
vt 1.00000 1.00000
vt 1.00000 0.00000
vt 0.00000 0.00000
vt 0.00000 1.00000
vt 1.00000 1.00000
vt 1.00000 0.00000
vt 0.00000 0.00000
vt 0.00000 1.00000
vt 1.00000 1.00000
vt 1.00000 0.00000
vt 0.00000 0.00000
vt 0.00000 1.00000
vt 1.00000 1.00000
vt 1.00000 0.00000
vt 0.00000 0.00000
vt 0.00000 1.00000
vt 1.00000 1.00000
vt 1.00000 0.00000
vt 0.00000 0.00000
vt 0.00000 1.00000
vt 1.00000 1.00000
vt 1.00000 0.00000
vt 0.00000 0.00000
vt 0.00000 1.00000
vt 1.00000 1.00000
vt 1.00000 0.00000
vt 0.00000 0.00000
vt 0.00000 1.00000
vt 1.00000 1.00000
vt 1.00000 0.00000
vt 0.00000 0.00000
vt 0.00000 1.00000
vt 1.00000 1.00000
vt 1.00000 0.00000
vt 0.00000 0.00000
vt 0.00000 1.00000
vt 1.00000 1.00000
vt 1.00000 0.00000
vt 0.00000 0.00000
vt 0.00000 1.00000
vt 1.00000 1.00000
vt 1.00000 0.00000
vt 0.00000 0.00000
vt 0.00000 1.00000
vt 1.00000 1.00000
vt 1.00000 0.00000
vt 0.00000 0.00000
vt 0.00000 1.00000
vt 1.00000 1.00000
vt 1.00000 0.00000
vt 0.00000 0.00000
vt 0.00000 1.00000
vt 1.00000 1.00000
vt 1.00000 0.00000
vt 0.00000 0.00000
vt 0.00000 1.00000
vt 1.00000 1.00000
vt 1.00000 0.00000
vt 0.00000 0.00000
vt 0.00000 1.00000
vt 1.00000 1.00000
vt 1.00000 0.00000
vt 0.00000 0.00000
vt 0.00000 1.00000
vt 1.00000 1.00000
vt 1.00000 0.00000
vt 0.00000 0.00000
vt 0.00000 1.00000
vt 1.00000 1.00000
vt 1.00000 0.00000
vt 0.00000 0.00000
vt 0.00000 1.00000
vt 1.00000 1.00000
vt 1.00000 0.00000
vt 0.00000 0.00000
vt 0.00000 1.00000
vt 1.00000 1.00000
vt 1.00000 0.00000
vt 0.00000 0.00000
vt 0.00000 1.00000
vt 1.00000 1.00000
vt 1.00000 0.00000
vt 0.00000 0.00000
vt 0.00000 1.00000
vt 1.00000 1.00000
vt 1.00000 0.00000
vt 0.00000 0.00000
vt 0.00000 1.00000
vt 1.00000 1.00000
vt 1.00000 0.00000
vt 0.00000 0.00000
vt 0.00000 1.00000
vt 1.00000 1.00000
vt 1.00000 0.00000
vt 0.00000 0.00000
vt 0.00000 1.00000
vt 1.00000 1.00000
vt 1.00000 0.00000
vt 0.00000 0.00000
vt 0.00000 1.00000
vt 1.00000 1.00000
vt 1.00000 0.00000
vt 0.00000 0.00000
vt 0.00000 1.00000
vt 1.00000 1.00000
vt 1.00000 0.00000
vt 0.00000 0.00000
vt 0.00000 1.00000
vt 1.00000 1.00000
vt 1.00000 0.00000
vt 0.00000 0.00000
vt 0.00000 1.00000
vt 1.00000 1.00000
vt 1.00000 0.00000
vt 0.00000 0.00000
vt 0.00000 1.00000
vt 1.00000 1.00000
vt 1.00000 0.00000
vt 0.00000 0.00000
vt 0.00000 1.00000
vt 1.00000 1.00000
vt 1.00000 0.00000
vt 0.00000 0.00000
vt 0.00000 1.00000
vt 1.00000 1.00000
vt 1.00000 0.00000
vt 0.00000 0.00000
vt 0.00000 1.00000
vt 1.00000 1.00000
vt 1.00000 0.00000
vt 0.00000 0.00000
vt 0.00000 1.00000
vt 1.00000 1.00000
vt 1.00000 0.00000
vt 0.00000 0.00000
vt 0.00000 1.00000
vt 1.00000 1.00000
vt 1.00000 0.00000
vt 0.00000 0.00000
vt 0.00000 1.00000
vt 1.00000 1.00000
vt 1.00000 0.00000
vt 0.00000 0.00000
vt 0.00000 1.00000
vt 1.00000 1.00000
vt 1.00000 0.00000
vt 0.00000 0.00000
vt 0.00000 1.00000
vt 1.00000 1.00000
vt 1.00000 0.00000
vt 0.00000 0.00000
vt 0.00000 1.00000
vt 1.00000 1.00000
vt 1.00000 0.00000
vt 0.00000 0.00000
vt 0.00000 1.00000
vt 1.00000 1.00000
vt 1.00000 0.00000
vt 0.00000 0.00000
vt 0.00000 1.00000
vt 1.00000 1.00000
vt 1.00000 0.00000
vt 0.00000 0.00000
vt 0.00000 1.00000
vt 1.00000 1.00000
vt 1.00000 0.00000
vt 0.00000 0.00000
vt 0.00000 1.00000
vt 1.00000 1.00000
vt 1.00000 0.00000
vt 0.00000 0.00000
vt 0.00000 1.00000
vt 1.00000 1.00000
vt 1.00000 0.00000
vt 0.00000 0.00000
vt 0.00000 1.00000
vt 1.00000 1.00000
vt 1.00000 0.00000
vt 0.00000 0.00000
vt 0.00000 1.00000
vt 1.00000 1.00000
vt 1.00000 0.00000
vt 0.00000 0.00000
vt 0.00000 1.00000
vt 1.00000 1.00000
vt 1.00000 0.00000
vt 0.00000 0.00000
vt 0.00000 1.00000
vt 1.00000 1.00000
vt 1.00000 0.00000
vt 0.00000 0.00000
vt 0.00000 1.00000
vt 1.00000 1.00000
vt 1.00000 0.00000
vt 0.00000 0.00000
vt 0.00000 1.00000
vt 1.00000 1.00000
vt 1.00000 0.00000
vt 0.00000 0.00000
vt 0.00000 1.00000
vt 1.00000 1.00000
vt 1.00000 0.00000
vt 0.00000 0.00000
vt 0.00000 1.00000
vt 1.00000 1.00000
vt 1.00000 0.00000
vt 0.00000 0.00000
vt 0.00000 1.00000
vt 1.00000 1.00000
vt 1.00000 0.00000
vt 0.00000 0.00000
vt 0.00000 1.00000
vt 1.00000 1.00000
vt 1.00000 0.00000
vt 0.00000 0.00000
vt 0.00000 1.00000
vt 1.00000 1.00000
vt 1.00000 0.00000
vt 0.00000 0.00000
vt 0.00000 1.00000
vt 1.00000 1.00000
vt 1.00000 0.00000
vt 0.00000 0.00000
vt 0.00000 1.00000
vt 1.00000 1.00000
vt 1.00000 0.00000
vt 0.00000 0.00000
vt 0.00000 1.00000
vt 1.00000 1.00000
vt 1.00000 0.00000
vt 0.00000 0.00000
vt 0.00000 1.00000
vt 1.00000 1.00000
vt 1.00000 0.00000
vt 0.00000 0.00000
vt 0.00000 1.00000
vt 1.00000 1.00000
vt 1.00000 0.00000
vt 0.00000 0.00000
vt 0.00000 1.00000
vt 1.00000 1.00000
vt 1.00000 0.00000
vt 0.00000 0.00000
vt 0.00000 1.00000
vt 1.00000 1.00000
vt 1.00000 0.00000
vt 0.00000 0.00000
vt 0.00000 1.00000
vt 1.00000 1.00000
vt 1.00000 0.00000
vt 0.00000 0.00000
vt 0.00000 1.00000
vt 1.00000 1.00000
vt 1.00000 0.00000
vt 0.00000 0.00000
vt 0.00000 1.00000
vt 1.00000 1.00000
vt 1.00000 0.00000
vt 0.00000 0.00000
vt 0.00000 1.00000
vt 1.00000 1.00000
vt 1.00000 0.00000
vt 0.00000 0.00000
vt 0.00000 1.00000
vt 1.00000 1.00000
vt 1.00000 0.00000
vt 0.00000 0.00000
vt 0.00000 1.00000
vt 1.00000 1.00000
vt 1.00000 0.00000
vt 0.00000 0.00000
vt 0.00000 1.00000
vt 1.00000 1.00000
vt 1.00000 0.00000
vt 0.00000 0.00000
vt 0.00000 1.00000
vt 1.00000 1.00000
vt 1.00000 0.00000
vt 0.00000 0.00000
vt 0.00000 1.00000
vt 1.00000 1.00000
vt 1.00000 0.00000
vt 0.00000 0.00000
vt 0.00000 1.00000
vt 1.00000 1.00000
vt 1.00000 0.00000
vt 0.00000 0.00000
vt 0.00000 1.00000
vt 1.00000 1.00000
vt 1.00000 0.00000
vt 0.00000 0.00000
vt 0.00000 1.00000
vt 1.00000 1.00000
vt 1.00000 0.00000
vt 0.00000 0.00000
vt 0.00000 1.00000
vt 1.00000 1.00000
vt 1.00000 0.00000
vt 0.00000 0.00000
vt 0.00000 1.00000
vt 1.00000 1.00000
vt 1.00000 0.00000
vt 0.00000 0.00000
vt 0.00000 1.00000
vt 1.00000 1.00000
vt 1.00000 0.00000
vt 0.00000 0.00000
vt 0.00000 1.00000
vt 1.00000 1.00000
vt 1.00000 0.00000
vt 0.00000 0.00000
vt 0.00000 1.00000
vt 1.00000 1.00000
vt 1.00000 0.00000
vt 0.00000 0.00000
vt 0.00000 1.00000
vt 1.00000 1.00000
vt 1.00000 0.00000
vt 0.00000 0.00000
vt 0.00000 1.00000
vt 1.00000 1.00000
vt 1.00000 0.00000
vt 0.00000 0.00000
vt 0.00000 1.00000
vt 1.00000 1.00000
vt 1.00000 0.00000
vt 0.00000 0.00000
vt 0.00000 1.00000
vt 1.00000 1.00000
vt 1.00000 0.00000
vt 0.00000 0.00000
vt 0.00000 1.00000
vt 1.00000 1.00000
vt 1.00000 0.00000
vt 0.00000 0.00000
vt 0.00000 1.00000
vt 1.00000 1.00000
vt 1.00000 0.00000
vt 0.00000 0.00000
vt 0.00000 1.00000
vt 1.00000 1.00000
vt 1.00000 0.00000
vt 0.00000 0.00000
vt 0.00000 1.00000
vt 1.00000 1.00000
vt 1.00000 0.00000
vt 0.00000 0.00000
vt 0.00000 1.00000
vt 1.00000 1.00000
vt 1.00000 0.00000
vt 0.00000 0.00000
vt 0.00000 1.00000
vt 1.00000 1.00000
vt 1.00000 0.00000
vt 0.00000 0.00000
vt 0.00000 1.00000
vt 1.00000 1.00000
vt 1.00000 0.00000
vt 0.00000 0.00000
vt 0.00000 1.00000
vt 1.00000 1.00000
vt 1.00000 0.00000
vt 0.00000 0.00000
vt 0.00000 1.00000
vt 1.00000 1.00000
vt 1.00000 0.00000
vt 0.00000 0.00000
vt 0.00000 1.00000
vt 1.00000 1.00000
vt 1.00000 0.00000
vt 0.00000 0.00000
vt 0.00000 1.00000
vt 1.00000 1.00000
vt 1.00000 0.00000
vt 0.00000 0.00000
vt 0.00000 1.00000
vt 1.00000 1.00000
vt 1.00000 0.00000
vt 0.00000 0.00000
vt 0.00000 1.00000
vt 1.00000 1.00000
vt 1.00000 0.00000
vt 0.00000 0.00000
vt 0.00000 1.00000
vt 1.00000 1.00000
vt 1.00000 0.00000
vt 0.00000 0.00000
vt 0.00000 1.00000
vt 1.00000 1.00000
vt 1.00000 0.00000
vt 0.00000 0.00000
vt 0.00000 1.00000
vt 1.00000 1.00000
vt 1.00000 0.00000
vt 0.00000 0.00000
vt 0.00000 1.00000
vt 1.00000 1.00000
vt 1.00000 0.00000
vt 0.00000 0.00000
vt 0.00000 1.00000
vt 1.00000 1.00000
vt 1.00000 0.00000
vt 0.00000 0.00000
vt 0.00000 1.00000
vt 1.00000 1.00000
vt 1.00000 0.00000
vt 0.00000 0.00000
vt 0.00000 1.00000
vt 1.00000 1.00000
vt 1.00000 0.00000
vt 0.00000 0.00000
vt 0.00000 1.00000
vt 1.00000 1.00000
vt 1.00000 0.00000
vt 0.00000 0.00000
vt 0.00000 1.00000
vt 1.00000 1.00000
vt 1.00000 0.00000
vt 0.00000 0.00000
vt 0.00000 1.00000
vt 1.00000 1.00000
vt 1.00000 0.00000
vt 0.00000 0.00000
vt 0.00000 1.00000
vt 1.00000 1.00000
vt 1.00000 0.00000
vt 0.00000 0.00000
vt 0.00000 1.00000
vt 1.00000 1.00000
vt 1.00000 0.00000
vt 0.00000 0.00000
vt 0.00000 1.00000
vt 1.00000 1.00000
vt 1.00000 0.00000
vt 0.00000 0.00000
vt 0.00000 1.00000
vt 1.00000 1.00000
vt 1.00000 0.00000
vt 0.00000 0.00000
vt 0.00000 1.00000
vt 1.00000 1.00000
vt 1.00000 0.00000
vt 0.00000 0.00000
vt 0.00000 1.00000
vt 1.00000 1.00000
vt 1.00000 0.00000
vt 0.00000 0.00000
vt 0.00000 1.00000
vt 1.00000 1.00000
vt 1.00000 0.00000
vt 0.00000 0.00000
vt 0.00000 1.00000
vt 1.00000 1.00000
vt 1.00000 0.00000
vt 0.00000 0.00000
vt 0.00000 1.00000
vt 1.00000 1.00000
vt 1.00000 0.00000
vt 0.00000 0.00000
vt 0.00000 1.00000
vt 1.00000 1.00000
vt 1.00000 0.00000
vt 0.00000 0.00000
vt 0.00000 1.00000
vt 1.00000 1.00000
vt 1.00000 0.00000
vt 0.00000 0.00000
vt 0.00000 1.00000
vt 1.00000 1.00000
vt 1.00000 0.00000
vt 0.00000 0.00000
vt 0.00000 1.00000
vt 1.00000 1.00000
vt 1.00000 0.00000
vt 0.00000 0.00000
vt 0.00000 1.00000
vt 1.00000 1.00000
vt 1.00000 0.00000
vt 0.00000 0.00000
vt 0.00000 1.00000
vt 1.00000 1.00000
vt 1.00000 0.00000
vt 0.00000 0.00000
vt 0.00000 1.00000
vt 1.00000 1.00000
vt 1.00000 0.00000
vt 0.00000 0.00000
vt 0.00000 1.00000
vt 1.00000 1.00000
vt 1.00000 0.00000
vt 0.00000 0.00000
vt 0.00000 1.00000
vt 1.00000 1.00000
vt 1.00000 0.00000
vt 0.00000 0.00000
vt 0.00000 1.00000
vt 1.00000 1.00000
vt 1.00000 0.00000
vt 0.00000 0.00000
vt 0.00000 1.00000
vt 1.00000 1.00000
vt 1.00000 0.00000
vt 0.00000 0.00000
vt 0.00000 1.00000
vt 1.00000 1.00000
vt 1.00000 0.00000
vt 0.00000 0.00000
vt 0.00000 1.00000
vt 1.00000 1.00000
vt 1.00000 0.00000
vt 0.00000 0.00000
vt 0.00000 1.00000
vt 1.00000 1.00000
vt 1.00000 0.00000
vt 0.00000 0.00000
vt 0.00000 1.00000
vt 1.00000 1.00000
vt 1.00000 0.00000
vt 0.00000 0.00000
vt 0.00000 1.00000
vt 1.00000 1.00000
vt 1.00000 0.00000
vt 0.00000 0.00000
vt 0.00000 1.00000
vt 1.00000 1.00000
vt 1.00000 0.00000
vt 0.00000 0.00000
vt 0.00000 1.00000
vt 1.00000 1.00000
vt 1.00000 0.00000
vt 0.00000 0.00000
vt 0.00000 1.00000
vt 1.00000 1.00000
vt 1.00000 0.00000
vt 0.00000 0.00000
vt 0.00000 1.00000
vt 1.00000 1.00000
vt 1.00000 0.00000
vt 0.00000 0.00000
vt 0.00000 1.00000
vt 1.00000 1.00000
vt 1.00000 0.00000
vt 0.00000 0.00000
vt 0.00000 1.00000
vt 1.00000 1.00000
vt 1.00000 0.00000
vt 0.00000 0.00000
vt 0.00000 1.00000
vt 1.00000 1.00000
vt 1.00000 0.00000
vt 0.00000 0.00000
vt 0.00000 1.00000
vt 1.00000 1.00000
vt 1.00000 0.00000
vt 0.00000 0.00000
vt 0.00000 1.00000
vt 1.00000 1.00000
vt 1.00000 0.00000
vt 0.00000 0.00000
vt 0.00000 1.00000
vt 1.00000 1.00000
vt 1.00000 0.00000
vt 0.00000 0.00000
vt 0.00000 1.00000
vt 1.00000 1.00000
vt 1.00000 0.00000
vt 0.00000 0.00000
vt 0.00000 1.00000
vt 1.00000 1.00000
vt 1.00000 0.00000
vt 0.00000 0.00000
vt 0.00000 1.00000
vt 1.00000 1.00000
vt 1.00000 0.00000
vt 0.00000 0.00000
vt 0.00000 1.00000
vt 1.00000 1.00000
vt 1.00000 0.00000
vt 0.00000 0.00000
vt 0.00000 1.00000
vt 1.00000 1.00000
vt 1.00000 0.00000
vt 0.00000 0.00000
vt 0.00000 1.00000
vt 1.00000 1.00000
vt 1.00000 0.00000
vt 0.00000 0.00000
vt 0.00000 1.00000
vt 1.00000 1.00000
vt 1.00000 0.00000
vt 0.00000 0.00000
vt 0.00000 1.00000
vt 1.00000 1.00000
vt 1.00000 0.00000
vt 0.00000 0.00000
vt 0.00000 1.00000
vt 1.00000 1.00000
vt 1.00000 0.00000
vt 0.00000 0.00000
vt 0.00000 1.00000
vt 1.00000 1.00000
vt 1.00000 0.00000
vt 0.00000 0.00000
vt 0.00000 1.00000
vt 1.00000 1.00000
vt 1.00000 0.00000
vt 0.00000 0.00000
vt 0.00000 1.00000
vt 1.00000 1.00000
vt 1.00000 0.00000
vt 0.00000 0.00000
vt 0.00000 1.00000
vt 1.00000 1.00000
vt 1.00000 0.00000
vt 0.00000 0.00000
vt 0.00000 1.00000
vt 1.00000 1.00000
vt 1.00000 0.00000
vt 0.00000 0.00000
vt 0.00000 1.00000
vt 1.00000 1.00000
vt 1.00000 0.00000
vt 0.00000 0.00000
vt 0.00000 1.00000
vt 1.00000 1.00000
vt 1.00000 0.00000
vt 0.00000 0.00000
vt 0.00000 1.00000
vt 1.00000 1.00000
vt 1.00000 0.00000
vt 0.00000 0.00000
vt 0.00000 1.00000
vt 1.00000 1.00000
vt 1.00000 0.00000
vt 0.00000 0.00000
vt 0.00000 1.00000
vt 1.00000 1.00000
vt 1.00000 0.00000
vt 0.00000 0.00000
vt 0.00000 1.00000
vt 1.00000 1.00000
vt 1.00000 0.00000
vt 0.00000 0.00000
vt 0.00000 1.00000
vt 1.00000 1.00000
vt 1.00000 0.00000
vt 0.00000 0.00000
vt 0.00000 1.00000
vt 1.00000 1.00000
vt 1.00000 0.00000
vt 0.00000 0.00000
vt 0.00000 1.00000
vt 1.00000 1.00000
vt 1.00000 0.00000
vt 0.00000 0.00000
vt 0.00000 1.00000
vt 1.00000 1.00000
vt 1.00000 0.00000
vt 0.00000 0.00000
vt 0.00000 1.00000
vt 1.00000 1.00000
vt 1.00000 0.00000
vt 0.00000 0.00000
vt 0.00000 1.00000
vt 1.00000 1.00000
vt 1.00000 0.00000
vt 0.00000 0.00000
vt 0.00000 1.00000
vt 1.00000 1.00000
vt 1.00000 0.00000
vt 0.00000 0.00000
vt 0.00000 1.00000
vt 1.00000 1.00000
vt 1.00000 0.00000
vt 0.00000 0.00000
vt 0.00000 1.00000
vt 1.00000 1.00000
vt 1.00000 0.00000
vt 0.00000 0.00000
vt 0.00000 1.00000
vt 1.00000 1.00000
vt 1.00000 0.00000
vt 0.00000 0.00000
vt 0.00000 1.00000
vt 1.00000 1.00000
vt 1.00000 0.00000
vt 0.00000 0.00000
vt 0.00000 1.00000
vt 1.00000 1.00000
vt 1.00000 0.00000
vt 0.00000 0.00000
vt 0.00000 1.00000
vt 1.00000 1.00000
vt 1.00000 0.00000
vt 0.00000 0.00000
vt 0.00000 1.00000
vt 1.00000 1.00000
vt 1.00000 0.00000
vt 0.00000 0.00000
vt 0.00000 1.00000
vt 1.00000 1.00000
vt 1.00000 0.00000
vt 0.00000 0.00000
vt 0.00000 1.00000
vt 1.00000 1.00000
vt 1.00000 0.00000
vt 0.00000 0.00000
vt 0.00000 1.00000
vt 1.00000 1.00000
vt 1.00000 0.00000
vt 0.00000 0.00000
vt 0.00000 1.00000
vt 1.00000 1.00000
vt 1.00000 0.00000
vt 0.00000 0.00000
vt 0.00000 1.00000
vt 1.00000 1.00000
vt 1.00000 0.00000
vt 0.00000 0.00000
vt 0.00000 1.00000
vt 1.00000 1.00000
vt 1.00000 0.00000
vt 0.00000 0.00000
vt 0.00000 1.00000
vt 1.00000 1.00000
vt 1.00000 0.00000
vt 0.00000 0.00000
vt 0.00000 1.00000
vt 1.00000 1.00000
vt 1.00000 0.00000
vt 0.00000 0.00000
vt 0.00000 1.00000
vt 1.00000 1.00000
vt 1.00000 0.00000
vt 0.00000 0.00000
vn -0.6223 -0.7772 0.0935
vn 0.6223 0.7772 -0.0935
vn -0.8358 0.5457 0.0606
vn 0.8358 -0.5457 -0.0606
vn -0.1796 0.9836 0.0175
vn 0.1796 -0.9836 -0.0175
vn 0.1032 -0.9876 0.1181
vn -0.1032 0.9876 -0.1181
vn 0.9443 0.3286 0.0161
vn -0.9443 -0.3286 -0.0161
vn 0.5493 -0.8312 0.0856
vn -0.5493 0.8312 -0.0856
vn 0.3852 -0.9082 -0.1637
vn -0.3852 0.9082 0.1637
vn -0.5536 0.8189 0.1516
vn 0.5536 -0.8189 -0.1516
vn -0.2606 0.9604 -0.0986
vn 0.2606 -0.9604 0.0986
vn -0.4023 0.9015 0.1596
vn 0.4023 -0.9015 -0.1596
vn 0.9300 0.3222 -0.1768
vn -0.9300 -0.3222 0.1768
vn -0.7156 0.6958 0.0610
vn 0.7156 -0.6958 -0.0610
vn -0.3472 0.9293 0.1259
vn 0.3472 -0.9293 -0.1259
vn -0.9618 0.2686 0.0525
vn 0.9618 -0.2686 -0.0525
vn -0.9205 0.3887 0.0392
vn 0.9205 -0.3887 -0.0392
vn 0.4832 -0.8612 -0.1577
vn -0.4832 0.8612 0.1577
vn 0.2769 -0.9608 0.0169
vn -0.2769 0.9608 -0.0169
vn 0.7196 0.6821 0.1301
vn -0.7196 -0.6821 -0.1301
vn 0.0519 0.9893 0.1363
vn -0.0519 -0.9893 -0.1363
vn 0.4557 0.8901 0.0103
vn -0.4557 -0.8901 -0.0103
vn -0.7086 -0.7020 0.0713
vn 0.7086 0.7020 -0.0713
vn 0.6296 0.7751 -0.0532
vn -0.6296 -0.7751 0.0532
vn -0.5489 -0.8310 0.0904
vn 0.5489 0.8310 -0.0904
vn 0.9814 0.0550 -0.1841
vn -0.9814 -0.0550 0.1841
vn -0.2575 -0.9615 0.0958
vn 0.2575 0.9615 -0.0958
vn 0.3402 -0.9396 0.0376
vn -0.3402 0.9396 -0.0376
vn 0.2714 -0.9613 -0.0469
vn -0.2714 0.9613 0.0469
vn 0.9725 0.1707 -0.1586
vn -0.9725 -0.1707 0.1586
vn 0.4096 0.9000 -0.1491
vn -0.4096 -0.9000 0.1491
vn -0.4709 -0.8657 0.1698
vn 0.4709 0.8657 -0.1698
vn 0.0248 0.9961 -0.0845
vn -0.0248 -0.9961 0.0845
vn -0.4843 0.8748 -0.0109
vn 0.4843 -0.8748 0.0109
vn -0.3122 -0.9486 0.0513
vn 0.3122 0.9486 -0.0513
vn -0.9371 -0.3406 0.0767
vn 0.9371 0.3406 -0.0767
vn -0.9258 -0.3425 -0.1599
vn 0.9258 0.3425 0.1599
vn 0.4053 0.9091 0.0961
vn -0.4053 -0.9091 -0.0961
vn 0.9839 -0.1739 0.0425
vn -0.9839 0.1739 -0.0425
vn 0.2791 0.9602 0.0140
vn -0.2791 -0.9602 -0.0140
vn -0.2941 -0.9404 -0.1707
vn 0.2941 0.9404 0.1707
vn -0.6871 -0.7225 0.0767
vn 0.6871 0.7225 -0.0767
vn 0.7047 0.7090 -0.0253
vn -0.7047 -0.7090 0.0253
vn -0.1496 -0.9863 -0.0698
vn 0.1496 0.9863 0.0698
vn -0.5649 0.8205 -0.0874
vn 0.5649 -0.8205 0.0874
vn -0.9998 0.0020 0.0178
vn 0.9998 -0.0020 -0.0178
vn 0.9896 0.0095 0.1438
vn -0.9896 -0.0095 -0.1438
vn 0.8812 0.4703 -0.0488
vn -0.8812 -0.4703 0.0488
vn 0.7989 -0.5992 -0.0511
vn -0.7989 0.5992 0.0511
vn 0.1290 0.9896 0.0635
vn -0.1290 -0.9896 -0.0635
vn -0.9406 -0.2947 -0.1689
vn 0.9406 0.2947 0.1689
vn 0.9348 0.3525 -0.0423
vn -0.9348 -0.3525 0.0423
vn -0.3715 0.9280 0.0272
vn 0.3715 -0.9280 -0.0272
vn 0.3177 0.9469 0.0484
vn -0.3177 -0.9469 -0.0484
vn -0.4552 -0.8886 0.0568
vn 0.4552 0.8886 -0.0568
vn 0.9954 0.0955 -0.0004
vn -0.9954 -0.0955 0.0004
vn 0.9001 0.4286 -0.0786
vn -0.9001 -0.4286 0.0786
vn -0.9945 0.0777 -0.0702
vn 0.9945 -0.0777 0.0702
vn 0.6149 -0.7664 0.1858
vn -0.6149 0.7664 -0.1858
vn -0.3284 -0.9316 -0.1561
vn 0.3284 0.9316 0.1561
vn 0.9031 -0.4049 0.1431
vn -0.9031 0.4049 -0.1431
vn -0.9914 0.0203 -0.1290
vn 0.9914 -0.0203 0.1290
vn 0.9681 -0.1677 0.1862
vn -0.9681 0.1677 -0.1862
vn -0.1127 0.9831 -0.1445
vn 0.1127 -0.9831 0.1445
vn 0.4907 0.8700 -0.0475
vn -0.4907 -0.8700 0.0475
vn 0.9568 -0.2901 0.0183
vn -0.9568 0.2901 -0.0183
vn 0.6767 0.7308 0.0897
vn -0.6767 -0.7308 -0.0897
vn 0.4406 0.8790 0.1824
vn -0.4406 -0.8790 -0.1824
vn -0.9547 -0.2471 0.1659
vn 0.9547 0.2471 -0.1659
vn 0.0516 0.9972 0.0550
vn -0.0516 -0.9972 -0.0550
vn -0.5932 -0.7987 -0.1004
vn 0.5932 0.7987 0.1004
vn 0.3320 0.9433 0.0055
vn -0.3320 -0.9433 -0.0055
vn -0.7634 -0.6438 -0.0521
vn 0.7634 0.6438 0.0521
vn -0.8357 -0.5381 -0.1101
vn 0.8357 0.5381 0.1101
vn -0.9990 -0.0439 0.0104
vn 0.9990 0.0439 -0.0104
vn 0.5944 0.8022 0.0561
vn -0.5944 -0.8022 -0.0561
vn 0.8852 -0.4652 -0.0024
vn -0.8852 0.4652 0.0024
vn -0.5943 -0.7930 0.1342
vn 0.5943 0.7930 -0.1342
vn -0.1581 0.9860 -0.0524
vn 0.1581 -0.9860 0.0524
vn -0.9592 -0.2779 0.0518
vn 0.9592 0.2779 -0.0518
vn 0.1096 0.9936 -0.0276
vn -0.1096 -0.9936 0.0276
vn -0.5490 -0.8347 -0.0434
vn 0.5490 0.8347 0.0434
vn -0.0583 0.9974 -0.0431
vn 0.0583 -0.9974 0.0431
vn 0.1203 0.9872 -0.1048
vn -0.1203 -0.9872 0.1048
vn -0.8223 0.5539 -0.1304
vn 0.8223 -0.5539 0.1304
vn 0.3117 -0.9492 0.0430
vn -0.3117 0.9492 -0.0430
vn 0.2316 0.9719 -0.0425
vn -0.2316 -0.9719 0.0425
vn 0.6868 0.7256 -0.0435
vn -0.6868 -0.7256 0.0435
vn -0.7324 0.6733 -0.1017
vn 0.7324 -0.6733 0.1017
vn 0.2090 0.9779 -0.0057
vn -0.2090 -0.9779 0.0057
vn 0.0687 -0.9969 0.0394
vn -0.0687 0.9969 -0.0394
vn 0.9920 -0.0100 -0.1256
vn -0.9920 0.0100 0.1256
vn 0.9953 0.0392 -0.0883
vn -0.9953 -0.0392 0.0883
vn 0.5545 -0.8253 0.1064
vn -0.5545 0.8253 -0.1064
vn 0.1592 -0.9707 0.1801
vn -0.1592 0.9707 -0.1801
vn -0.9829 -0.1840 -0.0008
vn 0.9829 0.1840 0.0008
vn -0.9303 0.3666 -0.0084
vn 0.9303 -0.3666 0.0084
vn 0.9344 -0.3478 -0.0765
vn -0.9344 0.3478 0.0765
vn 0.2330 -0.9585 0.1643
vn -0.2330 0.9585 -0.1643
vn -0.8154 0.5701 -0.1009
vn 0.8154 -0.5701 0.1009
vn 0.9783 -0.1277 0.1631
vn -0.9783 0.1277 -0.1631
vn -0.0362 0.9993 -0.0103
vn 0.0362 -0.9993 0.0103
vn -0.8265 -0.5592 0.0653
vn 0.8265 0.5592 -0.0653
vn -0.8016 0.5924 -0.0803
vn 0.8016 -0.5924 0.0803
vn -0.8039 -0.5940 0.0292
vn 0.8039 0.5940 -0.0292
vn -0.5987 0.8007 0.0203
vn 0.5987 -0.8007 -0.0203
vn -0.9510 -0.2795 0.1321
vn 0.9510 0.2795 -0.1321
vn 0.9851 -0.1564 -0.0712
vn -0.9851 0.1564 0.0712
vn 0.9870 0.0691 -0.1448
vn -0.9870 -0.0691 0.1448
vn -0.8926 0.4490 -0.0405
vn 0.8926 -0.4490 0.0405
vn 0.3254 -0.9394 -0.1083
vn -0.3254 0.9394 0.1083
vn 0.9783 -0.1994 0.0555
vn -0.9783 0.1994 -0.0555
vn -0.9385 0.3235 -0.1205
vn 0.9385 -0.3235 0.1205
vn -0.4024 0.9111 0.0894
vn 0.4024 -0.9111 -0.0894
vn -0.6095 0.7833 0.1223
vn 0.6095 -0.7833 -0.1223
vn -0.5633 -0.8258 0.0289
vn 0.5633 0.8258 -0.0289
vn 0.4933 -0.8697 0.0198
vn -0.4933 0.8697 -0.0198
vn 0.9750 -0.2176 -0.0454
vn -0.9750 0.2176 0.0454
vn 0.3817 -0.9207 -0.0813
vn -0.3817 0.9207 0.0813
vn -0.9376 -0.3467 0.0275
vn 0.9376 0.3467 -0.0275
vn -0.8800 -0.4585 0.1236
vn 0.8800 0.4585 -0.1236
vn 0.9048 -0.4256 -0.0098
vn -0.9048 0.4256 0.0098
vn 0.2167 0.9690 0.1189
vn -0.2167 -0.9690 -0.1189
vn 0.9220 0.3639 0.1322
vn -0.9220 -0.3639 -0.1322
vn 0.6605 0.7443 -0.0984
vn -0.6605 -0.7443 0.0984
vn 0.5313 0.8368 0.1324
vn -0.5313 -0.8368 -0.1324
vn -0.5854 -0.8106 0.0160
vn 0.5854 0.8106 -0.0160
vn 0.7490 -0.6518 0.1194
vn -0.7490 0.6518 -0.1194
vn 0.7272 0.6654 -0.1686
vn -0.7272 -0.6654 0.1686
vn 0.9808 0.1854 -0.0600
vn -0.9808 -0.1854 0.0600
vn -0.8873 -0.4579 0.0557
vn 0.8873 0.4579 -0.0557
vn -0.1689 0.9751 0.1439
vn 0.1689 -0.9751 -0.1439
vn -0.8107 -0.5854 -0.0012
vn 0.8107 0.5854 0.0012
vn -0.1611 -0.9710 0.1768
vn 0.1611 0.9710 -0.1768
vn -0.5287 -0.8350 -0.1527
vn 0.5287 0.8350 0.1527
vn 0.7214 -0.6925 0.0039
vn -0.7214 0.6925 -0.0039
vn -0.3899 0.9096 -0.1438
vn 0.3899 -0.9096 0.1438
vn -0.7800 -0.6004 0.1762
vn 0.7800 0.6004 -0.1762
vn -0.8545 -0.5175 0.0451
vn 0.8545 0.5175 -0.0451
vn -0.4882 -0.8694 -0.0766
vn 0.4882 0.8694 0.0766
f 1/1/1 3/3/1 2/2/1
f 1/1/1 4/4/1 3/3/1
f 5/5/2 7/7/2 8/8/2
f 5/5/2 6/6/2 7/7/2
f 9/9/3 11/11/3 10/10/3
f 9/9/3 12/12/3 11/11/3
f 13/13/4 15/15/4 16/16/4
f 13/13/4 14/14/4 15/15/4
f 17/17/5 19/19/5 18/18/5
f 17/17/5 20/20/5 19/19/5
f 21/21/6 23/23/6 24/24/6
f 21/21/6 22/22/6 23/23/6
f 25/25/7 27/27/7 26/26/7
f 25/25/7 28/28/7 27/27/7
f 29/29/8 31/31/8 32/32/8
f 29/29/8 30/30/8 31/31/8
f 33/33/9 35/35/9 34/34/9
f 33/33/9 36/36/9 35/35/9
f 37/37/10 39/39/10 40/40/10
f 37/37/10 38/38/10 39/39/10
f 41/41/11 43/43/11 42/42/11
f 41/41/11 44/44/11 43/43/11
f 45/45/12 47/47/12 48/48/12
f 45/45/12 46/46/12 47/47/12
f 49/49/13 51/51/13 50/50/13
f 49/49/13 52/52/13 51/51/13
f 53/53/14 55/55/14 56/56/14
f 53/53/14 54/54/14 55/55/14
f 57/57/15 59/59/15 58/58/15
f 57/57/15 60/60/15 59/59/15
f 61/61/16 63/63/16 64/64/16
f 61/61/16 62/62/16 63/63/16
f 65/65/17 67/67/17 66/66/17
f 65/65/17 68/68/17 67/67/17
f 69/69/18 71/71/18 72/72/18
f 69/69/18 70/70/18 71/71/18
f 73/73/19 75/75/19 74/74/19
f 73/73/19 76/76/19 75/75/19
f 77/77/20 79/79/20 80/80/20
f 77/77/20 78/78/20 79/79/20
f 81/81/21 83/83/21 82/82/21
f 81/81/21 84/84/21 83/83/21
f 85/85/22 87/87/22 88/88/22
f 85/85/22 86/86/22 87/87/22
f 89/89/23 91/91/23 90/90/23
f 89/89/23 92/92/23 91/91/23
f 93/93/24 95/95/24 96/96/24
f 93/93/24 94/94/24 95/95/24
f 97/97/25 99/99/25 98/98/25
f 97/97/25 100/100/25 99/99/25
f 101/101/26 103/103/26 104/104/26
f 101/101/26 102/102/26 103/103/26
f 105/105/27 107/107/27 106/106/27
f 105/105/27 108/108/27 107/107/27
f 109/109/28 111/111/28 112/112/28
f 109/109/28 110/110/28 111/111/28
f 113/113/29 115/115/29 114/114/29
f 113/113/29 116/116/29 115/115/29
f 117/117/30 119/119/30 120/120/30
f 117/117/30 118/118/30 119/119/30
f 121/121/31 123/123/31 122/122/31
f 121/121/31 124/124/31 123/123/31
f 125/125/32 127/127/32 128/128/32
f 125/125/32 126/126/32 127/127/32
f 129/129/33 131/131/33 130/130/33
f 129/129/33 132/132/33 131/131/33
f 133/133/34 135/135/34 136/136/34
f 133/133/34 134/134/34 135/135/34
f 137/137/35 139/139/35 138/138/35
f 137/137/35 140/140/35 139/139/35
f 141/141/36 143/143/36 144/144/36
f 141/141/36 142/142/36 143/143/36
f 145/145/37 147/147/37 146/146/37
f 145/145/37 148/148/37 147/147/37
f 149/149/38 151/151/38 152/152/38
f 149/149/38 150/150/38 151/151/38
f 153/153/39 155/155/39 154/154/39
f 153/153/39 156/156/39 155/155/39
f 157/157/40 159/159/40 160/160/40
f 157/157/40 158/158/40 159/159/40
f 161/161/41 163/163/41 162/162/41
f 161/161/41 164/164/41 163/163/41
f 165/165/42 167/167/42 168/168/42
f 165/165/42 166/166/42 167/167/42
f 169/169/43 171/171/43 170/170/43
f 169/169/43 172/172/43 171/171/43
f 173/173/44 175/175/44 176/176/44
f 173/173/44 174/174/44 175/175/44
f 177/177/45 179/179/45 178/178/45
f 177/177/45 180/180/45 179/179/45
f 181/181/46 183/183/46 184/184/46
f 181/181/46 182/182/46 183/183/46
f 185/185/47 187/187/47 186/186/47
f 185/185/47 188/188/47 187/187/47
f 189/189/48 191/191/48 192/192/48
f 189/189/48 190/190/48 191/191/48
f 193/193/49 195/195/49 194/194/49
f 193/193/49 196/196/49 195/195/49
f 197/197/50 199/199/50 200/200/50
f 197/197/50 198/198/50 199/199/50
f 201/201/51 203/203/51 202/202/51
f 201/201/51 204/204/51 203/203/51
f 205/205/52 207/207/52 208/208/52
f 205/205/52 206/206/52 207/207/52
f 209/209/53 211/211/53 210/210/53
f 209/209/53 212/212/53 211/211/53
f 213/213/54 215/215/54 216/216/54
f 213/213/54 214/214/54 215/215/54
f 217/217/55 219/219/55 218/218/55
f 217/217/55 220/220/55 219/219/55
f 221/221/56 223/223/56 224/224/56
f 221/221/56 222/222/56 223/223/56
f 225/225/57 227/227/57 226/226/57
f 225/225/57 228/228/57 227/227/57
f 229/229/58 231/231/58 232/232/58
f 229/229/58 230/230/58 231/231/58
f 233/233/59 235/235/59 234/234/59
f 233/233/59 236/236/59 235/235/59
f 237/237/60 239/239/60 240/240/60
f 237/237/60 238/238/60 239/239/60
f 241/241/61 243/243/61 242/242/61
f 241/241/61 244/244/61 243/243/61
f 245/245/62 247/247/62 248/248/62
f 245/245/62 246/246/62 247/247/62
f 249/249/63 251/251/63 250/250/63
f 249/249/63 252/252/63 251/251/63
f 253/253/64 255/255/64 256/256/64
f 253/253/64 254/254/64 255/255/64
f 257/257/65 259/259/65 258/258/65
f 257/257/65 260/260/65 259/259/65
f 261/261/66 263/263/66 264/264/66
f 261/261/66 262/262/66 263/263/66
f 265/265/67 267/267/67 266/266/67
f 265/265/67 268/268/67 267/267/67
f 269/269/68 271/271/68 272/272/68
f 269/269/68 270/270/68 271/271/68
f 273/273/69 275/275/69 274/274/69
f 273/273/69 276/276/69 275/275/69
f 277/277/70 279/279/70 280/280/70
f 277/277/70 278/278/70 279/279/70
f 281/281/71 283/283/71 282/282/71
f 281/281/71 284/284/71 283/283/71
f 285/285/72 287/287/72 288/288/72
f 285/285/72 286/286/72 287/287/72
f 289/289/73 291/291/73 290/290/73
f 289/289/73 292/292/73 291/291/73
f 293/293/74 295/295/74 296/296/74
f 293/293/74 294/294/74 295/295/74
f 297/297/75 299/299/75 298/298/75
f 297/297/75 300/300/75 299/299/75
f 301/301/76 303/303/76 304/304/76
f 301/301/76 302/302/76 303/303/76
f 305/305/77 307/307/77 306/306/77
f 305/305/77 308/308/77 307/307/77
f 309/309/78 311/311/78 312/312/78
f 309/309/78 310/310/78 311/311/78
f 313/313/79 315/315/79 314/314/79
f 313/313/79 316/316/79 315/315/79
f 317/317/80 319/319/80 320/320/80
f 317/317/80 318/318/80 319/319/80
f 321/321/81 323/323/81 322/322/81
f 321/321/81 324/324/81 323/323/81
f 325/325/82 327/327/82 328/328/82
f 325/325/82 326/326/82 327/327/82
f 329/329/83 331/331/83 330/330/83
f 329/329/83 332/332/83 331/331/83
f 333/333/84 335/335/84 336/336/84
f 333/333/84 334/334/84 335/335/84
f 337/337/85 339/339/85 338/338/85
f 337/337/85 340/340/85 339/339/85
f 341/341/86 343/343/86 344/344/86
f 341/341/86 342/342/86 343/343/86
f 345/345/87 347/347/87 346/346/87
f 345/345/87 348/348/87 347/347/87
f 349/349/88 351/351/88 352/352/88
f 349/349/88 350/350/88 351/351/88
f 353/353/89 355/355/89 354/354/89
f 353/353/89 356/356/89 355/355/89
f 357/357/90 359/359/90 360/360/90
f 357/357/90 358/358/90 359/359/90
f 361/361/91 363/363/91 362/362/91
f 361/361/91 364/364/91 363/363/91
f 365/365/92 367/367/92 368/368/92
f 365/365/92 366/366/92 367/367/92
f 369/369/93 371/371/93 370/370/93
f 369/369/93 372/372/93 371/371/93
f 373/373/94 375/375/94 376/376/94
f 373/373/94 374/374/94 375/375/94
f 377/377/95 379/379/95 378/378/95
f 377/377/95 380/380/95 379/379/95
f 381/381/96 383/383/96 384/384/96
f 381/381/96 382/382/96 383/383/96
f 385/385/97 387/387/97 386/386/97
f 385/385/97 388/388/97 387/387/97
f 389/389/98 391/391/98 392/392/98
f 389/389/98 390/390/98 391/391/98
f 393/393/99 395/395/99 394/394/99
f 393/393/99 396/396/99 395/395/99
f 397/397/100 399/399/100 400/400/100
f 397/397/100 398/398/100 399/399/100
f 401/401/101 403/403/101 402/402/101
f 401/401/101 404/404/101 403/403/101
f 405/405/102 407/407/102 408/408/102
f 405/405/102 406/406/102 407/407/102
f 409/409/103 411/411/103 410/410/103
f 409/409/103 412/412/103 411/411/103
f 413/413/104 415/415/104 416/416/104
f 413/413/104 414/414/104 415/415/104
f 417/417/105 419/419/105 418/418/105
f 417/417/105 420/420/105 419/419/105
f 421/421/106 423/423/106 424/424/106
f 421/421/106 422/422/106 423/423/106
f 425/425/107 427/427/107 426/426/107
f 425/425/107 428/428/107 427/427/107
f 429/429/108 431/431/108 432/432/108
f 429/429/108 430/430/108 431/431/108
f 433/433/109 435/435/109 434/434/109
f 433/433/109 436/436/109 435/435/109
f 437/437/110 439/439/110 440/440/110
f 437/437/110 438/438/110 439/439/110
f 441/441/111 443/443/111 442/442/111
f 441/441/111 444/444/111 443/443/111
f 445/445/112 447/447/112 448/448/112
f 445/445/112 446/446/112 447/447/112
f 449/449/113 451/451/113 450/450/113
f 449/449/113 452/452/113 451/451/113
f 453/453/114 455/455/114 456/456/114
f 453/453/114 454/454/114 455/455/114
f 457/457/115 459/459/115 458/458/115
f 457/457/115 460/460/115 459/459/115
f 461/461/116 463/463/116 464/464/116
f 461/461/116 462/462/116 463/463/116
f 465/465/117 467/467/117 466/466/117
f 465/465/117 468/468/117 467/467/117
f 469/469/118 471/471/118 472/472/118
f 469/469/118 470/470/118 471/471/118
f 473/473/119 475/475/119 474/474/119
f 473/473/119 476/476/119 475/475/119
f 477/477/120 479/479/120 480/480/120
f 477/477/120 478/478/120 479/479/120
f 481/481/121 483/483/121 482/482/121
f 481/481/121 484/484/121 483/483/121
f 485/485/122 487/487/122 488/488/122
f 485/485/122 486/486/122 487/487/122
f 489/489/123 491/491/123 490/490/123
f 489/489/123 492/492/123 491/491/123
f 493/493/124 495/495/124 496/496/124
f 493/493/124 494/494/124 495/495/124
f 497/497/125 499/499/125 498/498/125
f 497/497/125 500/500/125 499/499/125
f 501/501/126 503/503/126 504/504/126
f 501/501/126 502/502/126 503/503/126
f 505/505/127 507/507/127 506/506/127
f 505/505/127 508/508/127 507/507/127
f 509/509/128 511/511/128 512/512/128
f 509/509/128 510/510/128 511/511/128
f 513/513/129 515/515/129 514/514/129
f 513/513/129 516/516/129 515/515/129
f 517/517/130 519/519/130 520/520/130
f 517/517/130 518/518/130 519/519/130
f 521/521/131 523/523/131 522/522/131
f 521/521/131 524/524/131 523/523/131
f 525/525/132 527/527/132 528/528/132
f 525/525/132 526/526/132 527/527/132
f 529/529/133 531/531/133 530/530/133
f 529/529/133 532/532/133 531/531/133
f 533/533/134 535/535/134 536/536/134
f 533/533/134 534/534/134 535/535/134
f 537/537/135 539/539/135 538/538/135
f 537/537/135 540/540/135 539/539/135
f 541/541/136 543/543/136 544/544/136
f 541/541/136 542/542/136 543/543/136
f 545/545/137 547/547/137 546/546/137
f 545/545/137 548/548/137 547/547/137
f 549/549/138 551/551/138 552/552/138
f 549/549/138 550/550/138 551/551/138
f 553/553/139 555/555/139 554/554/139
f 553/553/139 556/556/139 555/555/139
f 557/557/140 559/559/140 560/560/140
f 557/557/140 558/558/140 559/559/140
f 561/561/141 563/563/141 562/562/141
f 561/561/141 564/564/141 563/563/141
f 565/565/142 567/567/142 568/568/142
f 565/565/142 566/566/142 567/567/142
f 569/569/143 571/571/143 570/570/143
f 569/569/143 572/572/143 571/571/143
f 573/573/144 575/575/144 576/576/144
f 573/573/144 574/574/144 575/575/144
f 577/577/145 579/579/145 578/578/145
f 577/577/145 580/580/145 579/579/145
f 581/581/146 583/583/146 584/584/146
f 581/581/146 582/582/146 583/583/146
f 585/585/147 587/587/147 586/586/147
f 585/585/147 588/588/147 587/587/147
f 589/589/148 591/591/148 592/592/148
f 589/589/148 590/590/148 591/591/148
f 593/593/149 595/595/149 594/594/149
f 593/593/149 596/596/149 595/595/149
f 597/597/150 599/599/150 600/600/150
f 597/597/150 598/598/150 599/599/150
f 601/601/151 603/603/151 602/602/151
f 601/601/151 604/604/151 603/603/151
f 605/605/152 607/607/152 608/608/152
f 605/605/152 606/606/152 607/607/152
f 609/609/153 611/611/153 610/610/153
f 609/609/153 612/612/153 611/611/153
f 613/613/154 615/615/154 616/616/154
f 613/613/154 614/614/154 615/615/154
f 617/617/155 619/619/155 618/618/155
f 617/617/155 620/620/155 619/619/155
f 621/621/156 623/623/156 624/624/156
f 621/621/156 622/622/156 623/623/156
f 625/625/157 627/627/157 626/626/157
f 625/625/157 628/628/157 627/627/157
f 629/629/158 631/631/158 632/632/158
f 629/629/158 630/630/158 631/631/158
f 633/633/159 635/635/159 634/634/159
f 633/633/159 636/636/159 635/635/159
f 637/637/160 639/639/160 640/640/160
f 637/637/160 638/638/160 639/639/160
f 641/641/161 643/643/161 642/642/161
f 641/641/161 644/644/161 643/643/161
f 645/645/162 647/647/162 648/648/162
f 645/645/162 646/646/162 647/647/162
f 649/649/163 651/651/163 650/650/163
f 649/649/163 652/652/163 651/651/163
f 653/653/164 655/655/164 656/656/164
f 653/653/164 654/654/164 655/655/164
f 657/657/165 659/659/165 658/658/165
f 657/657/165 660/660/165 659/659/165
f 661/661/166 663/663/166 664/664/166
f 661/661/166 662/662/166 663/663/166
f 665/665/167 667/667/167 666/666/167
f 665/665/167 668/668/167 667/667/167
f 669/669/168 671/671/168 672/672/168
f 669/669/168 670/670/168 671/671/168
f 673/673/169 675/675/169 674/674/169
f 673/673/169 676/676/169 675/675/169
f 677/677/170 679/679/170 680/680/170
f 677/677/170 678/678/170 679/679/170
f 681/681/171 683/683/171 682/682/171
f 681/681/171 684/684/171 683/683/171
f 685/685/172 687/687/172 688/688/172
f 685/685/172 686/686/172 687/687/172
f 689/689/173 691/691/173 690/690/173
f 689/689/173 692/692/173 691/691/173
f 693/693/174 695/695/174 696/696/174
f 693/693/174 694/694/174 695/695/174
f 697/697/175 699/699/175 698/698/175
f 697/697/175 700/700/175 699/699/175
f 701/701/176 703/703/176 704/704/176
f 701/701/176 702/702/176 703/703/176
f 705/705/177 707/707/177 706/706/177
f 705/705/177 708/708/177 707/707/177
f 709/709/178 711/711/178 712/712/178
f 709/709/178 710/710/178 711/711/178
f 713/713/179 715/715/179 714/714/179
f 713/713/179 716/716/179 715/715/179
f 717/717/180 719/719/180 720/720/180
f 717/717/180 718/718/180 719/719/180
f 721/721/181 723/723/181 722/722/181
f 721/721/181 724/724/181 723/723/181
f 725/725/182 727/727/182 728/728/182
f 725/725/182 726/726/182 727/727/182
f 729/729/183 731/731/183 730/730/183
f 729/729/183 732/732/183 731/731/183
f 733/733/184 735/735/184 736/736/184
f 733/733/184 734/734/184 735/735/184
f 737/737/185 739/739/185 738/738/185
f 737/737/185 740/740/185 739/739/185
f 741/741/186 743/743/186 744/744/186
f 741/741/186 742/742/186 743/743/186
f 745/745/187 747/747/187 746/746/187
f 745/745/187 748/748/187 747/747/187
f 749/749/188 751/751/188 752/752/188
f 749/749/188 750/750/188 751/751/188
f 753/753/189 755/755/189 754/754/189
f 753/753/189 756/756/189 755/755/189
f 757/757/190 759/759/190 760/760/190
f 757/757/190 758/758/190 759/759/190
f 761/761/191 763/763/191 762/762/191
f 761/761/191 764/764/191 763/763/191
f 765/765/192 767/767/192 768/768/192
f 765/765/192 766/766/192 767/767/192
f 769/769/193 771/771/193 770/770/193
f 769/769/193 772/772/193 771/771/193
f 773/773/194 775/775/194 776/776/194
f 773/773/194 774/774/194 775/775/194
f 777/777/195 779/779/195 778/778/195
f 777/777/195 780/780/195 779/779/195
f 781/781/196 783/783/196 784/784/196
f 781/781/196 782/782/196 783/783/196
f 785/785/197 787/787/197 786/786/197
f 785/785/197 788/788/197 787/787/197
f 789/789/198 791/791/198 792/792/198
f 789/789/198 790/790/198 791/791/198
f 793/793/199 795/795/199 794/794/199
f 793/793/199 796/796/199 795/795/199
f 797/797/200 799/799/200 800/800/200
f 797/797/200 798/798/200 799/799/200
f 801/801/201 803/803/201 802/802/201
f 801/801/201 804/804/201 803/803/201
f 805/805/202 807/807/202 808/808/202
f 805/805/202 806/806/202 807/807/202
f 809/809/203 811/811/203 810/810/203
f 809/809/203 812/812/203 811/811/203
f 813/813/204 815/815/204 816/816/204
f 813/813/204 814/814/204 815/815/204
f 817/817/205 819/819/205 818/818/205
f 817/817/205 820/820/205 819/819/205
f 821/821/206 823/823/206 824/824/206
f 821/821/206 822/822/206 823/823/206
f 825/825/207 827/827/207 826/826/207
f 825/825/207 828/828/207 827/827/207
f 829/829/208 831/831/208 832/832/208
f 829/829/208 830/830/208 831/831/208
f 833/833/209 835/835/209 834/834/209
f 833/833/209 836/836/209 835/835/209
f 837/837/210 839/839/210 840/840/210
f 837/837/210 838/838/210 839/839/210
f 841/841/211 843/843/211 842/842/211
f 841/841/211 844/844/211 843/843/211
f 845/845/212 847/847/212 848/848/212
f 845/845/212 846/846/212 847/847/212
f 849/849/213 851/851/213 850/850/213
f 849/849/213 852/852/213 851/851/213
f 853/853/214 855/855/214 856/856/214
f 853/853/214 854/854/214 855/855/214
f 857/857/215 859/859/215 858/858/215
f 857/857/215 860/860/215 859/859/215
f 861/861/216 863/863/216 864/864/216
f 861/861/216 862/862/216 863/863/216
f 865/865/217 867/867/217 866/866/217
f 865/865/217 868/868/217 867/867/217
f 869/869/218 871/871/218 872/872/218
f 869/869/218 870/870/218 871/871/218
f 873/873/219 875/875/219 874/874/219
f 873/873/219 876/876/219 875/875/219
f 877/877/220 879/879/220 880/880/220
f 877/877/220 878/878/220 879/879/220
f 881/881/221 883/883/221 882/882/221
f 881/881/221 884/884/221 883/883/221
f 885/885/222 887/887/222 888/888/222
f 885/885/222 886/886/222 887/887/222
f 889/889/223 891/891/223 890/890/223
f 889/889/223 892/892/223 891/891/223
f 893/893/224 895/895/224 896/896/224
f 893/893/224 894/894/224 895/895/224
f 897/897/225 899/899/225 898/898/225
f 897/897/225 900/900/225 899/899/225
f 901/901/226 903/903/226 904/904/226
f 901/901/226 902/902/226 903/903/226
f 905/905/227 907/907/227 906/906/227
f 905/905/227 908/908/227 907/907/227
f 909/909/228 911/911/228 912/912/228
f 909/909/228 910/910/228 911/911/228
f 913/913/229 915/915/229 914/914/229
f 913/913/229 916/916/229 915/915/229
f 917/917/230 919/919/230 920/920/230
f 917/917/230 918/918/230 919/919/230
f 921/921/231 923/923/231 922/922/231
f 921/921/231 924/924/231 923/923/231
f 925/925/232 927/927/232 928/928/232
f 925/925/232 926/926/232 927/927/232
f 929/929/233 931/931/233 930/930/233
f 929/929/233 932/932/233 931/931/233
f 933/933/234 935/935/234 936/936/234
f 933/933/234 934/934/234 935/935/234
f 937/937/235 939/939/235 938/938/235
f 937/937/235 940/940/235 939/939/235
f 941/941/236 943/943/236 944/944/236
f 941/941/236 942/942/236 943/943/236
f 945/945/237 947/947/237 946/946/237
f 945/945/237 948/948/237 947/947/237
f 949/949/238 951/951/238 952/952/238
f 949/949/238 950/950/238 951/951/238
f 953/953/239 955/955/239 954/954/239
f 953/953/239 956/956/239 955/955/239
f 957/957/240 959/959/240 960/960/240
f 957/957/240 958/958/240 959/959/240
f 961/961/241 963/963/241 962/962/241
f 961/961/241 964/964/241 963/963/241
f 965/965/242 967/967/242 968/968/242
f 965/965/242 966/966/242 967/967/242
f 969/969/243 971/971/243 970/970/243
f 969/969/243 972/972/243 971/971/243
f 973/973/244 975/975/244 976/976/244
f 973/973/244 974/974/244 975/975/244
f 977/977/245 979/979/245 978/978/245
f 977/977/245 980/980/245 979/979/245
f 981/981/246 983/983/246 984/984/246
f 981/981/246 982/982/246 983/983/246
f 985/985/247 987/987/247 986/986/247
f 985/985/247 988/988/247 987/987/247
f 989/989/248 991/991/248 992/992/248
f 989/989/248 990/990/248 991/991/248
f 993/993/249 995/995/249 994/994/249
f 993/993/249 996/996/249 995/995/249
f 997/997/250 999/999/250 1000/1000/250
f 997/997/250 998/998/250 999/999/250
f 1001/1001/251 1003/1003/251 1002/1002/251
f 1001/1001/251 1004/1004/251 1003/1003/251
f 1005/1005/252 1007/1007/252 1008/1008/252
f 1005/1005/252 1006/1006/252 1007/1007/252
f 1009/1009/253 1011/1011/253 1010/1010/253
f 1009/1009/253 1012/1012/253 1011/1011/253
f 1013/1013/254 1015/1015/254 1016/1016/254
f 1013/1013/254 1014/1014/254 1015/1015/254
f 1017/1017/255 1019/1019/255 1018/1018/255
f 1017/1017/255 1020/1020/255 1019/1019/255
f 1021/1021/256 1023/1023/256 1024/1024/256
f 1021/1021/256 1022/1022/256 1023/1023/256
f 1025/1025/257 1027/1027/257 1026/1026/257
f 1025/1025/257 1028/1028/257 1027/1027/257
f 1029/1029/258 1031/1031/258 1032/1032/258
f 1029/1029/258 1030/1030/258 1031/1031/258
f 1033/1033/259 1035/1035/259 1034/1034/259
f 1033/1033/259 1036/1036/259 1035/1035/259
f 1037/1037/260 1039/1039/260 1040/1040/260
f 1037/1037/260 1038/1038/260 1039/1039/260
f 1041/1041/261 1043/1043/261 1042/1042/261
f 1041/1041/261 1044/1044/261 1043/1043/261
f 1045/1045/262 1047/1047/262 1048/1048/262
f 1045/1045/262 1046/1046/262 1047/1047/262
f 1049/1049/263 1051/1051/263 1050/1050/263
f 1049/1049/263 1052/1052/263 1051/1051/263
f 1053/1053/264 1055/1055/264 1056/1056/264
f 1053/1053/264 1054/1054/264 1055/1055/264
f 1057/1057/265 1059/1059/265 1058/1058/265
f 1057/1057/265 1060/1060/265 1059/1059/265
f 1061/1061/266 1063/1063/266 1064/1064/266
f 1061/1061/266 1062/1062/266 1063/1063/266
f 1065/1065/267 1067/1067/267 1066/1066/267
f 1065/1065/267 1068/1068/267 1067/1067/267
f 1069/1069/268 1071/1071/268 1072/1072/268
f 1069/1069/268 1070/1070/268 1071/1071/268
f 1073/1073/269 1075/1075/269 1074/1074/269
f 1073/1073/269 1076/1076/269 1075/1075/269
f 1077/1077/270 1079/1079/270 1080/1080/270
f 1077/1077/270 1078/1078/270 1079/1079/270
f 1081/1081/271 1083/1083/271 1082/1082/271
f 1081/1081/271 1084/1084/271 1083/1083/271
f 1085/1085/272 1087/1087/272 1088/1088/272
f 1085/1085/272 1086/1086/272 1087/1087/272
f 1089/1089/273 1091/1091/273 1090/1090/273
f 1089/1089/273 1092/1092/273 1091/1091/273
f 1093/1093/274 1095/1095/274 1096/1096/274
f 1093/1093/274 1094/1094/274 1095/1095/274
f 1097/1097/275 1099/1099/275 1098/1098/275
f 1097/1097/275 1100/1100/275 1099/1099/275
f 1101/1101/276 1103/1103/276 1104/1104/276
f 1101/1101/276 1102/1102/276 1103/1103/276
