# JudeanFloraV1; canonical UE cm (X east, +Y south, Z up), written with Y reflected and triangle winding reversed for the legacy OBJ importer adapter. One o object, no g groups, so the importer creates exactly one material slot.
# Judas tree (Cercis siliquastrum), StreetTreesV1 seed 0, LOD1 leaf
# height 3.5-7.5 m, crown 3.0-6.5 m; source: Zohary & Feinbrun-Dothan, Flora Palaestina vols I-IV (Israel Academy of Sciences, 1966-1986) Cercis siliquastrum; a small tree of 3.5-7.5 m, often multi-stemmed
# branching is recursive with da Vinci child radii; leaf sprays are anchored to branch tips. Stylised habit, not a survey of any tree.
o SM_StreetTreesV1_JudasTree_S0_L1_Leaf
s off
v 32.14516 -21.25543 387.37316
v 23.08176 46.49878 387.37316
v 16.58217 45.62407 455.41557
v 25.64556 -22.13015 455.41557
v 32.14516 -21.25543 387.37316
v 23.08176 46.49878 387.37316
v 16.58217 45.62407 455.41557
v 25.64556 -22.13015 455.41557
v 71.59440 -45.59359 353.06705
v -3.77578 -59.47939 353.06705
v -2.95141 -63.93406 429.57167
v 72.41877 -50.04827 429.57167
v 71.59440 -45.59359 353.06705
v -3.77578 -59.47939 353.06705
v -2.95141 -63.93406 429.57167
v 72.41877 -50.04827 429.57167
v -39.75277 27.67089 461.79096
v 37.92410 -9.77594 461.79096
v 43.83459 2.50934 546.93848
v -33.84228 39.95617 546.93848
v -39.75277 27.67089 461.79096
v 37.92410 -9.77594 461.79096
v 43.83459 2.50934 546.93848
v -33.84228 39.95617 546.93848
v -6.54257 -18.81392 464.38184
v -24.61419 56.13525 464.38184
v -11.60904 59.28199 540.30894
v 6.46258 -15.66718 540.30894
v -6.54257 -18.81392 464.38184
v -24.61419 56.13525 464.38184
v -11.60904 59.28199 540.30894
v 6.46258 -15.66718 540.30894
v 41.90264 -58.03692 457.43807
v 36.10192 18.00283 457.43807
v 37.79592 18.13341 533.67982
v 43.59664 -57.90633 533.67982
v 41.90264 -58.03692 457.43807
v 36.10192 18.00283 457.43807
v 37.79592 18.13341 533.67982
v 43.59664 -57.90633 533.67982
v 107.45070 -39.08373 446.48856
v 17.72134 -72.02909 446.48856
v 16.92383 -69.86234 542.04705
v 106.65319 -36.91698 542.04705
v 107.45070 -39.08373 446.48856
v 17.72134 -72.02909 446.48856
v 16.92383 -69.86234 542.04705
v 106.65319 -36.91698 542.04705
v -70.19834 -6.16727 427.45925
v -11.10157 -57.64421 427.45925
v -2.36771 -47.60139 504.69373
v -61.46448 3.87555 504.69373
v -70.19834 -6.16727 427.45925
v -11.10157 -57.64421 427.45925
v -2.36771 -47.60139 504.69373
v -61.46448 3.87555 504.69373
v 53.87285 -47.37482 434.62889
v -4.53382 11.01611 434.62889
v 3.73031 19.29564 516.38459
v 62.13698 -39.09529 516.38459
v 53.87285 -47.37482 434.62889
v -4.53382 11.01611 434.62889
v 3.73031 19.29564 516.38459
v 62.13698 -39.09529 516.38459
v -32.26320 -10.91542 437.11486
v 48.66989 -46.82539 437.11486
v 45.97211 -52.91868 525.40577
v -34.96099 -17.00871 525.40577
v -32.26320 -10.91542 437.11486
v 48.66989 -46.82539 437.11486
v 45.97211 -52.91868 525.40577
v -34.96099 -17.00871 525.40577
v -50.57635 12.58786 473.76954
v -21.02348 -49.48824 473.76954
v -31.74831 -54.60454 541.48671
v -61.30118 7.47156 541.48671
v -50.57635 12.58786 473.76954
v -21.02348 -49.48824 473.76954
v -31.74831 -54.60454 541.48671
v -61.30118 7.47156 541.48671
v -43.41726 -57.80059 447.77940
v -63.55733 33.51654 447.77940
v -65.27694 33.13584 541.27452
v -45.13686 -58.18129 541.27452
v -43.41726 -57.80059 447.77940
v -63.55733 33.51654 447.77940
v -65.27694 33.13584 541.27452
v -45.13686 -58.18129 541.27452
v -93.65629 -19.10942 426.06070
v 7.19746 -15.37614 426.06070
v 7.55354 -24.79276 526.54262
v -93.30021 -28.52604 526.54262
v -93.65629 -19.10942 426.06070
v 7.19746 -15.37614 426.06070
v 7.55354 -24.79276 526.54262
v -93.30021 -28.52604 526.54262
v 6.71978 -19.97591 417.64172
v 31.03217 46.54909 417.64172
v 27.52005 47.82947 488.37144
v 3.20766 -18.69553 488.37144
v 6.71978 -19.97591 417.64172
v 31.03217 46.54909 417.64172
v 27.52005 47.82947 488.37144
v 3.20766 -18.69553 488.37144
v -26.75690 -4.94442 382.54002
v 70.50357 -2.40193 382.54002
v 70.61971 -6.71334 479.73807
v -26.64076 -9.25583 479.73807
v -26.75690 -4.94442 382.54002
v 70.50357 -2.40193 382.54002
v 70.61971 -6.71334 479.73807
v -26.64076 -9.25583 479.73807
v -12.15500 50.10480 438.73818
v -30.15021 -28.34695 438.73818
v -31.38187 -28.06547 519.21742
v -13.38666 50.38628 519.21742
v -12.15500 50.10480 438.73818
v -30.15021 -28.34695 438.73818
v -31.38187 -28.06547 519.21742
v -13.38666 50.38628 519.21742
v -38.35572 21.93447 442.17970
v 36.98172 -51.63252 442.17970
v 32.82351 -55.89758 547.30985
v -42.51392 17.66940 547.30985
v -38.35572 21.93447 442.17970
v 36.98172 -51.63252 442.17970
v 32.82351 -55.89758 547.30985
v -42.51392 17.66940 547.30985
v 66.22821 43.97289 463.37768
v -35.86165 71.68806 463.37768
v -39.99377 56.41915 567.97336
v 62.09609 28.70398 567.97336
v 66.22821 43.97289 463.37768
v -35.86165 71.68806 463.37768
v -39.99377 56.41915 567.97336
v 62.09609 28.70398 567.97336
v 21.32322 -2.49247 452.66311
v -62.24333 61.69988 452.66311
v -54.36947 71.96711 557.24137
v 29.19708 7.77476 557.24137
v 21.32322 -2.49247 452.66311
v -62.24333 61.69988 452.66311
v -54.36947 71.96711 557.24137
v 29.19708 7.77476 557.24137
v 85.27608 77.07033 440.51880
v 16.99485 -3.64176 440.51880
v 22.35764 -8.17128 546.00572
v 90.63886 72.54081 546.00572
v 85.27608 77.07033 440.51880
v 16.99485 -3.64176 440.51880
v 22.35764 -8.17128 546.00572
v 90.63886 72.54081 546.00572
v 26.28927 25.70356 433.08669
v 124.19654 3.00748 433.08669
v 122.49137 -4.37508 533.30413
v 24.58410 18.32100 533.30413
v 26.28927 25.70356 433.08669
v 124.19654 3.00748 433.08669
v 122.49137 -4.37508 533.30413
v 24.58410 18.32100 533.30413
v 56.91611 13.66933 398.40019
v 90.65485 106.37090 398.40019
v 103.74568 101.61830 496.06250
v 70.00694 8.91673 496.06250
v 56.91611 13.66933 398.40019
v 90.65485 106.37090 398.40019
v 103.74568 101.61830 496.06250
v 70.00694 8.91673 496.06250
v 175.31461 -17.46160 457.01077
v 100.29774 58.35657 457.01077
v 102.58854 60.62677 563.61998
v 177.60540 -15.19140 563.61998
v 175.31461 -17.46160 457.01077
v 100.29774 58.35657 457.01077
v 102.58854 60.62677 563.61998
v 177.60540 -15.19140 563.61998
v 171.95754 19.01453 498.85006
v 141.67526 99.04144 498.85006
v 128.65595 94.10306 583.27418
v 158.93824 14.07615 583.27418
v 171.95754 19.01453 498.85006
v 141.67526 99.04144 498.85006
v 128.65595 94.10306 583.27418
v 158.93824 14.07615 583.27418
v 157.04462 8.01034 442.57861
v 126.80138 73.68635 442.57861
v 120.58794 70.81912 514.55892
v 150.83118 5.14310 514.55892
v 157.04462 8.01034 442.57861
v 126.80138 73.68635 442.57861
v 120.58794 70.81912 514.55892
v 150.83118 5.14310 514.55892
v 106.79052 -59.49039 422.37564
v 102.19387 25.11268 422.37564
v 110.02793 25.54457 506.73943
v 114.62459 -59.05849 506.73943
v 106.79052 -59.49039 422.37564
v 102.19387 25.11268 422.37564
v 110.02793 25.54457 506.73943
v 114.62459 -59.05849 506.73943
v 121.49193 -84.46384 343.66896
v 119.32099 2.67624 343.66896
v 129.29526 2.93268 430.26316
v 131.46620 -84.20740 430.26316
v 121.49193 -84.46384 343.66896
v 119.32099 2.67624 343.66896
v 129.29526 2.93268 430.26316
v 131.46620 -84.20740 430.26316
v 164.16641 -47.65992 389.07162
v 69.02170 -17.88037 389.07162
v 65.74223 -28.38752 488.15837
v 160.88694 -58.16707 488.15837
v 164.16641 -47.65992 389.07162
v 69.02170 -17.88037 389.07162
v 65.74223 -28.38752 488.15837
v 160.88694 -58.16707 488.15837
v 194.15309 -37.64627 386.29358
v 87.54992 -6.98427 386.29358
v 87.00838 -8.87269 497.20137
v 193.61156 -39.53470 497.20137
v 194.15309 -37.64627 386.29358
v 87.54992 -6.98427 386.29358
v 87.00838 -8.87269 497.20137
v 193.61156 -39.53470 497.20137
v 125.73295 49.52326 431.97458
v 170.26785 -43.47929 431.97458
v 171.91859 -42.68721 535.07395
v 127.38368 50.31534 535.07395
v 125.73295 49.52326 431.97458
v 170.26785 -43.47929 431.97458
v 171.91859 -42.68721 535.07395
v 127.38368 50.31534 535.07395
v 152.24373 -28.98157 457.40011
v 59.15719 -42.08374 457.40011
v 58.90563 -40.30675 551.38708
v 151.99217 -27.20458 551.38708
v 152.24373 -28.98157 457.40011
v 59.15719 -42.08374 457.40011
v 58.90563 -40.30675 551.38708
v 151.99217 -27.20458 551.38708
v 26.11277 -36.58059 387.37342
v 72.37227 65.01083 387.37342
v 55.64752 72.61034 497.47923
v 9.38802 -28.98108 497.47923
v 26.11277 -36.58059 387.37342
v 72.37227 65.01083 387.37342
v 55.64752 72.61034 497.47923
v 9.38802 -28.98108 497.47923
v 7.91863 -5.83176 361.16487
v 78.89887 -81.23586 361.16487
v 91.33737 -69.50841 463.30068
v 20.35713 5.89569 463.30068
v 7.91863 -5.83176 361.16487
v 78.89887 -81.23586 361.16487
v 91.33737 -69.50841 463.30068
v 20.35713 5.89569 463.30068
v 126.89756 3.26019 441.41885
v 36.41156 -40.43836 441.41885
v 32.55759 -32.47419 541.51379
v 123.04358 11.22436 541.51379
v 126.89756 3.26019 441.41885
v 36.41156 -40.43836 441.41885
v 32.55759 -32.47419 541.51379
v 123.04358 11.22436 541.51379
v 55.89825 -87.68274 417.25699
v -5.06574 -33.38253 417.25699
v -6.51847 -35.01616 498.86791
v 54.44553 -89.31637 498.86791
v 55.89825 -87.68274 417.25699
v -5.06574 -33.38253 417.25699
v -6.51847 -35.01616 498.86791
v 54.44553 -89.31637 498.86791
v 11.35845 2.27030 512.17100
v 77.92022 -12.18122 512.17100
v 79.16771 -6.41330 580.02741
v 12.60594 8.03823 580.02741
v 11.35845 2.27030 512.17100
v 77.92022 -12.18122 512.17100
v 79.16771 -6.41330 580.02741
v 12.60594 8.03823 580.02741
v 37.82445 -8.66949 450.33397
v -41.38825 -15.48743 450.33397
v -42.01698 -8.25017 529.50696
v 37.19572 -1.43223 529.50696
v 37.82445 -8.66949 450.33397
v -41.38825 -15.48743 450.33397
v -42.01698 -8.25017 529.50696
v 37.19572 -1.43223 529.50696
v -34.91987 -123.10597 346.66440
v -93.19891 -84.33387 346.66440
v -90.06341 -79.61270 416.43260
v -31.78437 -118.38479 416.43260
v -34.91987 -123.10597 346.66440
v -93.19891 -84.33387 346.66440
v -90.06341 -79.61270 416.43260
v -31.78437 -118.38479 416.43260
v -141.20955 -134.20978 356.89886
v -46.83852 -169.38689 356.89886
v -44.88747 -164.13997 457.45722
v -139.25850 -128.96287 457.45722
v -141.20955 -134.20978 356.89886
v -46.83852 -169.38689 356.89886
v -44.88747 -164.13997 457.45722
v -139.25850 -128.96287 457.45722
v -31.73947 -139.89730 359.16615
v -118.28099 -197.77942 359.16615
v -128.25663 -182.89017 461.72623
v -41.71510 -125.00806 461.72623
v -31.73947 -139.89730 359.16615
v -118.28099 -197.77942 359.16615
v -128.25663 -182.89017 461.72623
v -41.71510 -125.00806 461.72623
v -87.90189 -180.91076 365.85730
v -172.91005 -116.50418 365.85730
v -183.72498 -130.80210 470.99151
v -98.71682 -195.20868 470.99151
v -87.90189 -180.91076 365.85730
v -172.91005 -116.50418 365.85730
v -183.72498 -130.80210 470.99151
v -98.71682 -195.20868 470.99151
v -75.60597 -87.33861 392.20967
v -159.19991 -100.79343 392.20967
v -158.21636 -106.87332 476.65520
v -74.62242 -93.41850 476.65520
v -75.60597 -87.33861 392.20967
v -159.19991 -100.79343 392.20967
v -158.21636 -106.87332 476.65520
v -74.62242 -93.41850 476.65520
v -38.50678 -161.68903 408.63052
v -122.59022 -180.02866 408.63052
v -119.36803 -194.74548 493.36186
v -35.28459 -176.40584 493.36186
v -38.50678 -161.68903 408.63052
v -122.59022 -180.02866 408.63052
v -119.36803 -194.74548 493.36186
v -35.28459 -176.40584 493.36186
v -59.36452 -205.20393 319.61983
v -102.31796 -105.24049 319.61983
v -106.87685 -107.20371 428.30768
v -63.92341 -207.16714 428.30768
v -59.36452 -205.20393 319.61983
v -102.31796 -105.24049 319.61983
v -106.87685 -107.20371 428.30768
v -63.92341 -207.16714 428.30768
v -90.50881 -88.51191 314.94146
v -130.44871 -189.40122 314.94146
v -147.23875 -182.76987 421.93663
v -107.29886 -81.88056 421.93663
v -90.50881 -88.51191 314.94146
v -130.44871 -189.40122 314.94146
v -147.23875 -182.76987 421.93663
v -107.29886 -81.88056 421.93663
v -138.41015 -56.85765 333.93700
v -181.14940 -132.27215 333.93700
v -194.85942 -124.51676 419.17713
v -152.12017 -49.10226 419.17713
v -138.41015 -56.85765 333.93700
v -181.14940 -132.27215 333.93700
v -194.85942 -124.51676 419.17713
v -152.12017 -49.10226 419.17713
v -132.66019 -84.55363 317.05428
v -204.29708 -115.47220 317.05428
v -206.78672 -109.71642 394.82622
v -135.14983 -78.79785 394.82622
v -132.66019 -84.55363 317.05428
v -204.29708 -115.47220 317.05428
v -206.78672 -109.71642 394.82622
v -135.14983 -78.79785 394.82622
v -105.49848 -122.62940 338.11101
v -196.22390 -81.74791 338.11101
v -199.56122 -89.16998 437.28849
v -108.83581 -130.05147 437.28849
v -105.49848 -122.62940 338.11101
v -196.22390 -81.74791 338.11101
v -199.56122 -89.16998 437.28849
v -108.83581 -130.05147 437.28849
v -171.90301 -93.36921 378.96651
v -206.28814 -177.66495 378.96651
v -194.27500 -182.55408 469.07694
v -159.88987 -98.25834 469.07694
v -171.90301 -93.36921 378.96651
v -206.28814 -177.66495 378.96651
v -194.27500 -182.55408 469.07694
v -159.88987 -98.25834 469.07694
v -184.41603 -98.61695 311.36864
v -120.17452 -14.36718 311.36864
v -112.05996 -20.54442 416.82475
v -176.30147 -104.79418 416.82475
v -184.41603 -98.61695 311.36864
v -120.17452 -14.36718 311.36864
v -112.05996 -20.54442 416.82475
v -176.30147 -104.79418 416.82475
v -151.79453 -132.64223 368.02780
v -49.90344 -127.88502 368.02780
v -49.90245 -127.90605 470.02987
v -151.79353 -132.66326 470.02987
v -151.79453 -132.64223 368.02780
v -49.90344 -127.88502 368.02780
v -49.90245 -127.90605 470.02987
v -151.79353 -132.66326 470.02987
v -131.65590 -64.77490 405.82398
v -58.80818 -70.33360 405.82398
v -58.24403 -62.86188 478.49822
v -131.09175 -57.30319 478.49822
v -131.65590 -64.77490 405.82398
v -58.80818 -70.33360 405.82398
v -58.24403 -62.86188 478.49822
v -131.09175 -57.30319 478.49822
v -174.36949 -130.95383 381.31926
v -117.13902 -79.70542 381.31926
v -117.72691 -79.04996 458.13691
v -174.95737 -130.29838 458.13691
v -174.36949 -130.95383 381.31926
v -117.13902 -79.70542 381.31926
v -117.72691 -79.04996 458.13691
v -174.95737 -130.29838 458.13691
v -129.33330 -53.68597 413.41014
v -189.99314 -143.68924 413.41014
v -196.73901 -139.15051 521.64183
v -136.07916 -49.14724 521.64183
v -129.33330 -53.68597 413.41014
v -189.99314 -143.68924 413.41014
v -196.73901 -139.15051 521.64183
v -136.07916 -49.14724 521.64183
v -124.52533 -18.66637 399.24994
v -65.44479 -61.56280 399.24994
v -73.17640 -72.22927 471.06264
v -132.25694 -29.33284 471.06264
v -124.52533 -18.66637 399.24994
v -65.44479 -61.56280 399.24994
v -73.17640 -72.22927 471.06264
v -132.25694 -29.33284 471.06264
v -75.27426 -111.42211 321.70684
v -113.40550 -34.50426 321.70684
v -122.88038 -39.21075 406.90321
v -84.74914 -116.12859 406.90321
v -75.27426 -111.42211 321.70684
v -113.40550 -34.50426 321.70684
v -122.88038 -39.21075 406.90321
v -84.74914 -116.12859 406.90321
v -89.13184 -96.43344 352.90483
v -85.67538 -26.87699 352.90483
v -97.55334 -26.29622 421.52425
v -101.00980 -95.85267 421.52425
v -89.13184 -96.43344 352.90483
v -85.67538 -26.87699 352.90483
v -97.55334 -26.29622 421.52425
v -101.00980 -95.85267 421.52425
v -146.90359 -158.61209 376.56211
v -114.91519 -54.12993 376.56211
v -101.07664 -58.35471 484.86920
v -133.06504 -162.83687 484.86920
v -146.90359 -158.61209 376.56211
v -114.91519 -54.12993 376.56211
v -101.07664 -58.35471 484.86920
v -133.06504 -162.83687 484.86920
v -106.33670 -57.43541 397.99850
v -79.97292 -162.36646 397.99850
v -73.67831 -160.77962 505.99588
v -100.04209 -55.84857 505.99588
v -106.33670 -57.43541 397.99850
v -79.97292 -162.36646 397.99850
v -73.67831 -160.77962 505.99588
v -100.04209 -55.84857 505.99588
v -22.57856 -43.16480 248.16190
v 69.63535 -52.17265 248.16190
v 68.34399 -65.50206 339.84180
v -23.86992 -56.49420 339.84180
v -22.57856 -43.16480 248.16190
v 69.63535 -52.17265 248.16190
v 68.34399 -65.50206 339.84180
v -23.86992 -56.49420 339.84180
v 26.95498 -4.08923 200.96928
v -16.68367 -98.46386 200.96928
v -4.62765 -104.02689 304.09350
v 39.01100 -9.65227 304.09350
v 26.95498 -4.08923 200.96928
v -16.68367 -98.46386 200.96928
v -4.62765 -104.02689 304.09350
v 39.01100 -9.65227 304.09350
v 52.17511 -3.63073 433.99133
v 120.76784 56.88158 433.99133
v 115.37979 62.97932 525.09835
v 46.78706 2.46701 525.09835
v 52.17511 -3.63073 433.99133
v 120.76784 56.88158 433.99133
v 115.37979 62.97932 525.09835
v 46.78706 2.46701 525.09835
v 69.15065 119.77078 419.68000
v 45.21607 18.80484 419.68000
v 60.68502 15.15084 522.21947
v 84.61960 116.11677 522.21947
v 69.15065 119.77078 419.68000
v 45.21607 18.80484 419.68000
v 60.68502 15.15084 522.21947
v 84.61960 116.11677 522.21947
v -82.50476 22.37470 434.48572
v -38.22528 -44.75944 434.48572
v -34.18223 -42.08815 514.76139
v -78.46172 25.04599 514.76139
v -82.50476 22.37470 434.48572
v -38.22528 -44.75944 434.48572
v -34.18223 -42.08815 514.76139
v -78.46172 25.04599 514.76139
v -87.09604 -15.93177 438.42072
v -49.96706 -107.19113 438.42072
v -56.96113 -110.04317 536.65402
v -94.09010 -18.78381 536.65402
v -87.09604 -15.93177 438.42072
v -49.96706 -107.19113 438.42072
v -56.96113 -110.04317 536.65402
v -94.09010 -18.78381 536.65402
v 125.64922 -82.07442 379.07294
v 48.79874 -54.82697 379.07294
v 47.31563 -59.02063 460.48936
v 124.16611 -86.26808 460.48936
v 125.64922 -82.07442 379.07294
v 48.79874 -54.82697 379.07294
v 47.31563 -59.02063 460.48936
v 124.16611 -86.26808 460.48936
v 86.51068 2.23664 392.11509
v 21.84661 -63.71395 392.11509
v 18.66670 -60.60104 484.37083
v 83.33078 5.34955 484.37083
v 86.51068 2.23664 392.11509
v 21.84661 -63.71395 392.11509
v 18.66670 -60.60104 484.37083
v 83.33078 5.34955 484.37083
v 49.54734 34.96158 437.95304
v 16.69179 104.78731 437.95304
v 27.97205 110.10605 514.10805
v 60.82759 40.28033 514.10805
v 49.54734 34.96158 437.95304
v 16.69179 104.78731 437.95304
v 27.97205 110.10605 514.10805
v 60.82759 40.28033 514.10805
v 37.47207 -34.91676 462.84471
v 108.73385 37.36213 462.84471
v 106.27223 39.78525 564.28705
v 35.01045 -32.49364 564.28705
v 37.47207 -34.91676 462.84471
v 108.73385 37.36213 462.84471
v 106.27223 39.78525 564.28705
v 35.01045 -32.49364 564.28705
v -59.21858 -32.63268 287.75336
v -67.37903 -115.13650 287.75336
v -62.34076 -115.63079 370.50506
v -54.18031 -33.12697 370.50506
v -59.21858 -32.63268 287.75336
v -67.37903 -115.13650 287.75336
v -62.34076 -115.63079 370.50506
v -54.18031 -33.12697 370.50506
v -38.79631 -172.19467 305.71701
v -59.17114 -90.36312 305.71701
v -71.78195 -93.51369 389.03914
v -51.40712 -175.34524 389.03914
v -38.79631 -172.19467 305.71701
v -59.17114 -90.36312 305.71701
v -71.78195 -93.51369 389.03914
v -51.40712 -175.34524 389.03914
v -22.52794 -115.63577 386.75762
v -99.92812 -64.06303 386.75762
v -97.48150 -60.38480 479.66091
v -20.08132 -111.95755 479.66091
v -22.52794 -115.63577 386.75762
v -99.92812 -64.06303 386.75762
v -97.48150 -60.38480 479.66091
v -20.08132 -111.95755 479.66091
v -82.03996 -69.82284 434.61209
v -13.80588 -115.97771 434.61209
v -21.85572 -127.89881 515.72467
v -90.08980 -81.74394 515.72467
v -82.03996 -69.82284 434.61209
v -13.80588 -115.97771 434.61209
v -21.85572 -127.89881 515.72467
v -90.08980 -81.74394 515.72467
v -92.94987 11.35250 317.10729
v -112.58193 -93.70227 317.10729
v -128.25565 -90.78616 422.78488
v -108.62359 14.26861 422.78488
v -92.94987 11.35250 317.10729
v -112.58193 -93.70227 317.10729
v -128.25565 -90.78616 422.78488
v -108.62359 14.26861 422.78488
v -88.52228 1.73682 282.65212
v -175.44604 4.22229 282.65212
v -175.71607 -5.49238 369.06664
v -88.79231 -7.97784 369.06664
v -88.52228 1.73682 282.65212
v -175.44604 4.22229 282.65212
v -175.71607 -5.49238 369.06664
v -88.79231 -7.97784 369.06664
v -96.55062 -55.70717 304.60240
v -184.53033 -125.21728 304.60240
v -182.34713 -127.97606 416.67251
v -94.36742 -58.46595 416.67251
v -96.55062 -55.70717 304.60240
v -184.53033 -125.21728 304.60240
v -182.34713 -127.97606 416.67251
v -94.36742 -58.46595 416.67251
v -200.92814 -82.87911 375.73653
v -118.95346 -67.07102 375.73653
v -117.59585 -74.08101 458.91562
v -199.57054 -89.88910 458.91562
v -200.92814 -82.87911 375.73653
v -118.95346 -67.07102 375.73653
v -117.59585 -74.08101 458.91562
v -199.57054 -89.88910 458.91562
v 103.93132 54.92300 471.58612
v 124.07865 -25.80320 471.58612
v 127.05455 -25.05797 554.73192
v 106.90722 55.66823 554.73192
v 103.93132 54.92300 471.58612
v 124.07865 -25.80320 471.58612
v 127.05455 -25.05797 554.73192
v 106.90722 55.66823 554.73192
v 60.64103 -14.80427 480.63611
v 106.53987 -78.70503 480.63611
v 99.27005 -83.93560 558.80133
v 53.37120 -20.03484 558.80133
v 60.64103 -14.80427 480.63611
v 106.53987 -78.70503 480.63611
v 99.27005 -83.93560 558.80133
v 53.37120 -20.03484 558.80133
v -76.43010 -91.12062 322.65510
v -114.68823 -1.10561 322.65510
v -124.02865 -5.08426 419.93466
v -85.77051 -95.09926 419.93466
v -76.43010 -91.12062 322.65510
v -114.68823 -1.10561 322.65510
v -124.02865 -5.08426 419.93466
v -85.77051 -95.09926 419.93466
v -96.78302 27.41926 384.99680
v -93.33747 -59.95337 384.99680
v -83.18990 -59.54511 471.84556
v -86.63545 27.82752 471.84556
v -96.78302 27.41926 384.99680
v -93.33747 -59.95337 384.99680
v -83.18990 -59.54511 471.84556
v -86.63545 27.82752 471.84556
v -12.24550 14.96378 489.40546
v 51.32573 -54.43034 489.40546
v 62.43025 -44.24132 582.30174
v -1.14097 25.15280 582.30174
v -12.24550 14.96378 489.40546
v 51.32573 -54.43034 489.40546
v 62.43025 -44.24132 582.30174
v -1.14097 25.15280 582.30174
v -36.29989 -42.25285 490.71801
v 19.24167 34.02481 490.71801
v 15.70045 36.59904 584.97288
v -39.84111 -39.67863 584.97288
v -36.29989 -42.25285 490.71801
v 19.24167 34.02481 490.71801
v 15.70045 36.59904 584.97288
v -39.84111 -39.67863 584.97288
v 7.84332 49.79617 456.73516
v 68.29920 -40.78702 456.73516
v 52.76007 -51.17584 564.02372
v -7.69581 39.40735 564.02372
v 7.84332 49.79617 456.73516
v 68.29920 -40.78702 456.73516
v 52.76007 -51.17584 564.02372
v -7.69581 39.40735 564.02372
v 41.86633 -6.70605 449.64432
v -16.32095 48.13297 449.64432
v -18.90607 45.38563 529.51201
v 39.28121 -9.45338 529.51201
v 41.86633 -6.70605 449.64432
v -16.32095 48.13297 449.64432
v -18.90607 45.38563 529.51201
v 39.28121 -9.45338 529.51201
v -12.55734 -91.84161 350.90883
v -82.93832 -117.51042 350.90883
v -81.62955 -121.09007 425.72757
v -11.24857 -95.42126 425.72757
v -12.55734 -91.84161 350.90883
v -82.93832 -117.51042 350.90883
v -81.62955 -121.09007 425.72757
v -11.24857 -95.42126 425.72757
v -11.74913 -145.81639 353.38831
v -91.34118 -172.48512 353.38831
v -89.79754 -177.07990 437.18939
v -10.20549 -150.41117 437.18939
v -11.74913 -145.81639 353.38831
v -91.34118 -172.48512 353.38831
v -89.79754 -177.07990 437.18939
v -10.20549 -150.41117 437.18939
v 113.20498 40.25280 379.27679
v 23.82379 -6.28202 379.27679
v 17.32195 6.18206 479.06084
v 106.70314 52.71688 479.06084
v 113.20498 40.25280 379.27679
v 23.82379 -6.28202 379.27679
v 17.32195 6.18206 479.06084
v 106.70314 52.71688 479.06084
v 62.79445 -73.03200 373.99038
v 44.84783 24.89204 373.99038
v 26.60932 21.53444 471.80287
v 44.55594 -76.38960 471.80287
v 62.79445 -73.03200 373.99038
v 44.84783 24.89204 373.99038
v 26.60932 21.53444 471.80287
v 44.55594 -76.38960 471.80287
v 31.25273 26.37319 255.06623
v -27.57334 -42.27008 255.06623
v -31.43824 -38.96326 345.32437
v 27.38782 29.68001 345.32437
v 31.25273 26.37319 255.06623
v -27.57334 -42.27008 255.06623
v -31.43824 -38.96326 345.32437
v 27.38782 29.68001 345.32437
v -13.87929 32.75774 267.93835
v 25.28802 -49.16003 267.93835
v 20.20757 -51.59411 358.56320
v -18.95974 30.32366 358.56320
v -13.87929 32.75774 267.93835
v 25.28802 -49.16003 267.93835
v 20.20757 -51.59411 358.56320
v -18.95974 30.32366 358.56320
v -65.38706 105.04250 248.93203
v -27.15921 2.19689 248.93203
v -32.30918 0.27797 358.51479
v -70.53703 103.12358 358.51479
v -65.38706 105.04250 248.93203
v -27.15921 2.19689 248.93203
v -32.30918 0.27797 358.51479
v -70.53703 103.12358 358.51479
v 38.26927 12.82312 290.90892
v -25.97672 69.90161 290.90892
v -34.02663 60.82630 375.98735
v 30.21936 3.74781 375.98735
v 38.26927 12.82312 290.90892
v -25.97672 69.90161 290.90892
v -34.02663 60.82630 375.98735
v 30.21936 3.74781 375.98735
v -27.65423 11.42297 480.62689
v -18.94025 -73.51669 480.62689
v -10.80950 -72.67601 565.62020
v -19.52348 12.26365 565.62020
v -27.65423 11.42297 480.62689
v -18.94025 -73.51669 480.62689
v -10.80950 -72.67601 565.62020
v -19.52348 12.26365 565.62020
v -54.80065 -52.95643 433.57952
v 29.53733 -18.18922 433.57952
v 29.08367 -17.09122 524.79488
v -55.25431 -51.85843 524.79488
v -54.80065 -52.95643 433.57952
v 29.53733 -18.18922 433.57952
v 29.08367 -17.09122 524.79488
v -55.25431 -51.85843 524.79488
v 37.46807 33.82875 418.14927
v 8.47420 -59.30959 418.14927
v -2.03350 -56.04773 515.07369
v 26.96038 37.09061 515.07369
v 37.46807 33.82875 418.14927
v 8.47420 -59.30959 418.14927
v -2.03350 -56.04773 515.07369
v 26.96038 37.09061 515.07369
v 28.95668 29.67911 348.65994
v 97.01654 -58.37501 348.65994
v 84.37959 -68.15860 458.79741
v 16.31973 19.89552 458.79741
v 28.95668 29.67911 348.65994
v 97.01654 -58.37501 348.65994
v 84.37959 -68.15860 458.79741
v 16.31973 19.89552 458.79741
v -44.22769 -66.14427 440.56137
v 39.96838 -46.80887 440.56137
v 39.13921 -43.21136 526.87015
v -45.05686 -62.54677 526.87015
v -44.22769 -66.14427 440.56137
v 39.96838 -46.80887 440.56137
v 39.13921 -43.21136 526.87015
v -45.05686 -62.54677 526.87015
v -64.52512 6.68615 426.43709
v 10.07445 0.00472 426.43709
v 9.14222 -10.49799 500.58937
v -65.45735 -3.81656 500.58937
v -64.52512 6.68615 426.43709
v 10.07445 0.00472 426.43709
v 9.14222 -10.49799 500.58937
v -65.45735 -3.81656 500.58937
v 32.68201 0.86601 427.65685
v 8.83873 98.11020 427.65685
v 4.51031 97.04526 527.68217
v 28.35359 -0.19893 527.68217
v 32.68201 0.86601 427.65685
v 8.83873 98.11020 427.65685
v 4.51031 97.04526 527.68217
v 28.35359 -0.19893 527.68217
v -64.91700 -58.12194 481.44846
v -7.74182 24.40306 481.44846
v -8.90597 25.20823 581.83457
v -66.08114 -57.31677 581.83457
v -64.91700 -58.12194 481.44846
v -7.74182 24.40306 481.44846
v -8.90597 25.20823 581.83457
v -66.08114 -57.31677 581.83457
v -110.71997 -118.74249 298.47667
v -147.34040 -224.02959 298.47667
v -146.70859 -224.24878 409.94856
v -110.08815 -118.96168 409.94856
v -110.71997 -118.74249 298.47667
v -147.34040 -224.02959 298.47667
v -146.70859 -224.24878 409.94856
v -110.08815 -118.96168 409.94856
v -162.55406 -109.47249 345.54881
v -112.05734 -177.76767 345.54881
v -100.06753 -168.88776 429.16424
v -150.56424 -100.59258 429.16424
v -162.55406 -109.47249 345.54881
v -112.05734 -177.76767 345.54881
v -100.06753 -168.88776 429.16424
v -150.56424 -100.59258 429.16424
v 99.51973 -74.73961 401.74042
v -7.09369 -81.29957 401.74042
v -6.77107 -86.47567 508.42950
v 99.84236 -79.91570 508.42950
v 99.51973 -74.73961 401.74042
v -7.09369 -81.29957 401.74042
v -6.77107 -86.47567 508.42950
v 99.84236 -79.91570 508.42950
v 44.77610 -37.54786 416.58605
v 31.61042 -131.51082 416.58605
v 25.79094 -130.70015 511.28479
v 38.95662 -36.73718 511.28479
v 44.77610 -37.54786 416.58605
v 31.61042 -131.51082 416.58605
v 25.79094 -130.70015 511.28479
v 38.95662 -36.73718 511.28479
v -105.55026 -121.30385 385.95223
v -14.92112 -129.04940 385.95223
v -14.27391 -121.40472 476.58762
v -104.90305 -113.65917 476.58762
v -105.55026 -121.30385 385.95223
v -14.92112 -129.04940 385.95223
v -14.27391 -121.40472 476.58762
v -104.90305 -113.65917 476.58762
v -10.23295 -92.54834 376.79536
v -71.34556 -123.04798 376.79536
v -69.20611 -127.32630 444.92831
v -8.09350 -96.82665 444.92831
v -10.23295 -92.54834 376.79536
v -71.34556 -123.04798 376.79536
v -69.20611 -127.32630 444.92831
v -8.09350 -96.82665 444.92831
v 137.13680 19.22697 431.41325
v 89.54746 -31.01630 431.41325
v 86.21869 -27.86839 500.46499
v 133.80803 22.37488 500.46499
v 137.13680 19.22697 431.41325
v 89.54746 -31.01630 431.41325
v 86.21869 -27.86839 500.46499
v 133.80803 22.37488 500.46499
v 96.23636 49.16433 456.19654
v 127.32119 -19.36665 456.19654
v 118.03654 -23.58698 530.75354
v 86.95171 44.94400 530.75354
v 96.23636 49.16433 456.19654
v 127.32119 -19.36665 456.19654
v 118.03654 -23.58698 530.75354
v 86.95171 44.94400 530.75354
v 87.17262 67.55917 473.42734
v 122.50448 2.88784 473.42734
v 130.41360 7.21701 546.56711
v 95.08173 71.88833 546.56711
v 87.17262 67.55917 473.42734
v 122.50448 2.88784 473.42734
v 130.41360 7.21701 546.56711
v 95.08173 71.88833 546.56711
v 85.13446 30.17303 462.77296
v 11.96369 29.26984 462.77296
v 11.85715 37.37728 535.49872
v 85.02792 38.28046 535.49872
v 85.13446 30.17303 462.77296
v 11.96369 29.26984 462.77296
v 11.85715 37.37728 535.49872
v 85.02792 38.28046 535.49872
v -85.69248 -79.97330 387.50124
v -114.79839 -0.50905 387.50124
v -122.41584 -3.30603 471.73824
v -93.30993 -82.77028 471.73824
v -85.69248 -79.97330 387.50124
v -114.79839 -0.50905 387.50124
v -122.41584 -3.30603 471.73824
v -93.30993 -82.77028 471.73824
v -119.08058 -127.13096 373.75330
v -22.36644 -78.61048 373.75330
v -30.91097 -61.61275 480.27057
v -127.62511 -110.13324 480.27057
v -119.08058 -127.13096 373.75330
v -22.36644 -78.61048 373.75330
v -30.91097 -61.61275 480.27057
v -127.62511 -110.13324 480.27057
v -44.10698 -130.10356 312.31372
v -108.82900 -85.72498 312.31372
v -112.85358 -91.60448 390.46506
v -48.13156 -135.98307 390.46506
v -44.10698 -130.10356 312.31372
v -108.82900 -85.72498 312.31372
v -112.85358 -91.60448 390.46506
v -48.13156 -135.98307 390.46506
v -97.50203 -76.94482 296.33364
v -172.94560 -142.37266 296.33364
v -162.19757 -154.74609 394.84207
v -86.75400 -89.31825 394.84207
v -97.50203 -76.94482 296.33364
v -172.94560 -142.37266 296.33364
v -162.19757 -154.74609 394.84207
v -86.75400 -89.31825 394.84207
v 102.75313 4.32922 382.34833
v 148.65288 -46.34304 382.34833
v 156.42160 -39.29474 449.90891
v 110.52185 11.37752 449.90891
v 102.75313 4.32922 382.34833
v 148.65288 -46.34304 382.34833
v 156.42160 -39.29474 449.90891
v 110.52185 11.37752 449.90891
v 66.95467 21.03657 386.67310
v 136.14479 -19.53369 386.67310
v 130.96413 -28.38514 466.22202
v 61.77401 12.18512 466.22202
v 66.95467 21.03657 386.67310
v 136.14479 -19.53369 386.67310
v 130.96413 -28.38514 466.22202
v 61.77401 12.18512 466.22202
vt 0.00000 1.00000
vt 1.00000 1.00000
vt 1.00000 0.00000
vt 0.00000 0.00000
vt 0.00000 1.00000
vt 1.00000 1.00000
vt 1.00000 0.00000
vt 0.00000 0.00000
vt 0.00000 1.00000
vt 1.00000 1.00000
vt 1.00000 0.00000
vt 0.00000 0.00000
vt 0.00000 1.00000
vt 1.00000 1.00000
vt 1.00000 0.00000
vt 0.00000 0.00000
vt 0.00000 1.00000
vt 1.00000 1.00000
vt 1.00000 0.00000
vt 0.00000 0.00000
vt 0.00000 1.00000
vt 1.00000 1.00000
vt 1.00000 0.00000
vt 0.00000 0.00000
vt 0.00000 1.00000
vt 1.00000 1.00000
vt 1.00000 0.00000
vt 0.00000 0.00000
vt 0.00000 1.00000
vt 1.00000 1.00000
vt 1.00000 0.00000
vt 0.00000 0.00000
vt 0.00000 1.00000
vt 1.00000 1.00000
vt 1.00000 0.00000
vt 0.00000 0.00000
vt 0.00000 1.00000
vt 1.00000 1.00000
vt 1.00000 0.00000
vt 0.00000 0.00000
vt 0.00000 1.00000
vt 1.00000 1.00000
vt 1.00000 0.00000
vt 0.00000 0.00000
vt 0.00000 1.00000
vt 1.00000 1.00000
vt 1.00000 0.00000
vt 0.00000 0.00000
vt 0.00000 1.00000
vt 1.00000 1.00000
vt 1.00000 0.00000
vt 0.00000 0.00000
vt 0.00000 1.00000
vt 1.00000 1.00000
vt 1.00000 0.00000
vt 0.00000 0.00000
vt 0.00000 1.00000
vt 1.00000 1.00000
vt 1.00000 0.00000
vt 0.00000 0.00000
vt 0.00000 1.00000
vt 1.00000 1.00000
vt 1.00000 0.00000
vt 0.00000 0.00000
vt 0.00000 1.00000
vt 1.00000 1.00000
vt 1.00000 0.00000
vt 0.00000 0.00000
vt 0.00000 1.00000
vt 1.00000 1.00000
vt 1.00000 0.00000
vt 0.00000 0.00000
vt 0.00000 1.00000
vt 1.00000 1.00000
vt 1.00000 0.00000
vt 0.00000 0.00000
vt 0.00000 1.00000
vt 1.00000 1.00000
vt 1.00000 0.00000
vt 0.00000 0.00000
vt 0.00000 1.00000
vt 1.00000 1.00000
vt 1.00000 0.00000
vt 0.00000 0.00000
vt 0.00000 1.00000
vt 1.00000 1.00000
vt 1.00000 0.00000
vt 0.00000 0.00000
vt 0.00000 1.00000
vt 1.00000 1.00000
vt 1.00000 0.00000
vt 0.00000 0.00000
vt 0.00000 1.00000
vt 1.00000 1.00000
vt 1.00000 0.00000
vt 0.00000 0.00000
vt 0.00000 1.00000
vt 1.00000 1.00000
vt 1.00000 0.00000
vt 0.00000 0.00000
vt 0.00000 1.00000
vt 1.00000 1.00000
vt 1.00000 0.00000
vt 0.00000 0.00000
vt 0.00000 1.00000
vt 1.00000 1.00000
vt 1.00000 0.00000
vt 0.00000 0.00000
vt 0.00000 1.00000
vt 1.00000 1.00000
vt 1.00000 0.00000
vt 0.00000 0.00000
vt 0.00000 1.00000
vt 1.00000 1.00000
vt 1.00000 0.00000
vt 0.00000 0.00000
vt 0.00000 1.00000
vt 1.00000 1.00000
vt 1.00000 0.00000
vt 0.00000 0.00000
vt 0.00000 1.00000
vt 1.00000 1.00000
vt 1.00000 0.00000
vt 0.00000 0.00000
vt 0.00000 1.00000
vt 1.00000 1.00000
vt 1.00000 0.00000
vt 0.00000 0.00000
vt 0.00000 1.00000
vt 1.00000 1.00000
vt 1.00000 0.00000
vt 0.00000 0.00000
vt 0.00000 1.00000
vt 1.00000 1.00000
vt 1.00000 0.00000
vt 0.00000 0.00000
vt 0.00000 1.00000
vt 1.00000 1.00000
vt 1.00000 0.00000
vt 0.00000 0.00000
vt 0.00000 1.00000
vt 1.00000 1.00000
vt 1.00000 0.00000
vt 0.00000 0.00000
vt 0.00000 1.00000
vt 1.00000 1.00000
vt 1.00000 0.00000
vt 0.00000 0.00000
vt 0.00000 1.00000
vt 1.00000 1.00000
vt 1.00000 0.00000
vt 0.00000 0.00000
vt 0.00000 1.00000
vt 1.00000 1.00000
vt 1.00000 0.00000
vt 0.00000 0.00000
vt 0.00000 1.00000
vt 1.00000 1.00000
vt 1.00000 0.00000
vt 0.00000 0.00000
vt 0.00000 1.00000
vt 1.00000 1.00000
vt 1.00000 0.00000
vt 0.00000 0.00000
vt 0.00000 1.00000
vt 1.00000 1.00000
vt 1.00000 0.00000
vt 0.00000 0.00000
vt 0.00000 1.00000
vt 1.00000 1.00000
vt 1.00000 0.00000
vt 0.00000 0.00000
vt 0.00000 1.00000
vt 1.00000 1.00000
vt 1.00000 0.00000
vt 0.00000 0.00000
vt 0.00000 1.00000
vt 1.00000 1.00000
vt 1.00000 0.00000
vt 0.00000 0.00000
vt 0.00000 1.00000
vt 1.00000 1.00000
vt 1.00000 0.00000
vt 0.00000 0.00000
vt 0.00000 1.00000
vt 1.00000 1.00000
vt 1.00000 0.00000
vt 0.00000 0.00000
vt 0.00000 1.00000
vt 1.00000 1.00000
vt 1.00000 0.00000
vt 0.00000 0.00000
vt 0.00000 1.00000
vt 1.00000 1.00000
vt 1.00000 0.00000
vt 0.00000 0.00000
vt 0.00000 1.00000
vt 1.00000 1.00000
vt 1.00000 0.00000
vt 0.00000 0.00000
vt 0.00000 1.00000
vt 1.00000 1.00000
vt 1.00000 0.00000
vt 0.00000 0.00000
vt 0.00000 1.00000
vt 1.00000 1.00000
vt 1.00000 0.00000
vt 0.00000 0.00000
vt 0.00000 1.00000
vt 1.00000 1.00000
vt 1.00000 0.00000
vt 0.00000 0.00000
vt 0.00000 1.00000
vt 1.00000 1.00000
vt 1.00000 0.00000
vt 0.00000 0.00000
vt 0.00000 1.00000
vt 1.00000 1.00000
vt 1.00000 0.00000
vt 0.00000 0.00000
vt 0.00000 1.00000
vt 1.00000 1.00000
vt 1.00000 0.00000
vt 0.00000 0.00000
vt 0.00000 1.00000
vt 1.00000 1.00000
vt 1.00000 0.00000
vt 0.00000 0.00000
vt 0.00000 1.00000
vt 1.00000 1.00000
vt 1.00000 0.00000
vt 0.00000 0.00000
vt 0.00000 1.00000
vt 1.00000 1.00000
vt 1.00000 0.00000
vt 0.00000 0.00000
vt 0.00000 1.00000
vt 1.00000 1.00000
vt 1.00000 0.00000
vt 0.00000 0.00000
vt 0.00000 1.00000
vt 1.00000 1.00000
vt 1.00000 0.00000
vt 0.00000 0.00000
vt 0.00000 1.00000
vt 1.00000 1.00000
vt 1.00000 0.00000
vt 0.00000 0.00000
vt 0.00000 1.00000
vt 1.00000 1.00000
vt 1.00000 0.00000
vt 0.00000 0.00000
vt 0.00000 1.00000
vt 1.00000 1.00000
vt 1.00000 0.00000
vt 0.00000 0.00000
vt 0.00000 1.00000
vt 1.00000 1.00000
vt 1.00000 0.00000
vt 0.00000 0.00000
vt 0.00000 1.00000
vt 1.00000 1.00000
vt 1.00000 0.00000
vt 0.00000 0.00000
vt 0.00000 1.00000
vt 1.00000 1.00000
vt 1.00000 0.00000
vt 0.00000 0.00000
vt 0.00000 1.00000
vt 1.00000 1.00000
vt 1.00000 0.00000
vt 0.00000 0.00000
vt 0.00000 1.00000
vt 1.00000 1.00000
vt 1.00000 0.00000
vt 0.00000 0.00000
vt 0.00000 1.00000
vt 1.00000 1.00000
vt 1.00000 0.00000
vt 0.00000 0.00000
vt 0.00000 1.00000
vt 1.00000 1.00000
vt 1.00000 0.00000
vt 0.00000 0.00000
vt 0.00000 1.00000
vt 1.00000 1.00000
vt 1.00000 0.00000
vt 0.00000 0.00000
vt 0.00000 1.00000
vt 1.00000 1.00000
vt 1.00000 0.00000
vt 0.00000 0.00000
vt 0.00000 1.00000
vt 1.00000 1.00000
vt 1.00000 0.00000
vt 0.00000 0.00000
vt 0.00000 1.00000
vt 1.00000 1.00000
vt 1.00000 0.00000
vt 0.00000 0.00000
vt 0.00000 1.00000
vt 1.00000 1.00000
vt 1.00000 0.00000
vt 0.00000 0.00000
vt 0.00000 1.00000
vt 1.00000 1.00000
vt 1.00000 0.00000
vt 0.00000 0.00000
vt 0.00000 1.00000
vt 1.00000 1.00000
vt 1.00000 0.00000
vt 0.00000 0.00000
vt 0.00000 1.00000
vt 1.00000 1.00000
vt 1.00000 0.00000
vt 0.00000 0.00000
vt 0.00000 1.00000
vt 1.00000 1.00000
vt 1.00000 0.00000
vt 0.00000 0.00000
vt 0.00000 1.00000
vt 1.00000 1.00000
vt 1.00000 0.00000
vt 0.00000 0.00000
vt 0.00000 1.00000
vt 1.00000 1.00000
vt 1.00000 0.00000
vt 0.00000 0.00000
vt 0.00000 1.00000
vt 1.00000 1.00000
vt 1.00000 0.00000
vt 0.00000 0.00000
vt 0.00000 1.00000
vt 1.00000 1.00000
vt 1.00000 0.00000
vt 0.00000 0.00000
vt 0.00000 1.00000
vt 1.00000 1.00000
vt 1.00000 0.00000
vt 0.00000 0.00000
vt 0.00000 1.00000
vt 1.00000 1.00000
vt 1.00000 0.00000
vt 0.00000 0.00000
vt 0.00000 1.00000
vt 1.00000 1.00000
vt 1.00000 0.00000
vt 0.00000 0.00000
vt 0.00000 1.00000
vt 1.00000 1.00000
vt 1.00000 0.00000
vt 0.00000 0.00000
vt 0.00000 1.00000
vt 1.00000 1.00000
vt 1.00000 0.00000
vt 0.00000 0.00000
vt 0.00000 1.00000
vt 1.00000 1.00000
vt 1.00000 0.00000
vt 0.00000 0.00000
vt 0.00000 1.00000
vt 1.00000 1.00000
vt 1.00000 0.00000
vt 0.00000 0.00000
vt 0.00000 1.00000
vt 1.00000 1.00000
vt 1.00000 0.00000
vt 0.00000 0.00000
vt 0.00000 1.00000
vt 1.00000 1.00000
vt 1.00000 0.00000
vt 0.00000 0.00000
vt 0.00000 1.00000
vt 1.00000 1.00000
vt 1.00000 0.00000
vt 0.00000 0.00000
vt 0.00000 1.00000
vt 1.00000 1.00000
vt 1.00000 0.00000
vt 0.00000 0.00000
vt 0.00000 1.00000
vt 1.00000 1.00000
vt 1.00000 0.00000
vt 0.00000 0.00000
vt 0.00000 1.00000
vt 1.00000 1.00000
vt 1.00000 0.00000
vt 0.00000 0.00000
vt 0.00000 1.00000
vt 1.00000 1.00000
vt 1.00000 0.00000
vt 0.00000 0.00000
vt 0.00000 1.00000
vt 1.00000 1.00000
vt 1.00000 0.00000
vt 0.00000 0.00000
vt 0.00000 1.00000
vt 1.00000 1.00000
vt 1.00000 0.00000
vt 0.00000 0.00000
vt 0.00000 1.00000
vt 1.00000 1.00000
vt 1.00000 0.00000
vt 0.00000 0.00000
vt 0.00000 1.00000
vt 1.00000 1.00000
vt 1.00000 0.00000
vt 0.00000 0.00000
vt 0.00000 1.00000
vt 1.00000 1.00000
vt 1.00000 0.00000
vt 0.00000 0.00000
vt 0.00000 1.00000
vt 1.00000 1.00000
vt 1.00000 0.00000
vt 0.00000 0.00000
vt 0.00000 1.00000
vt 1.00000 1.00000
vt 1.00000 0.00000
vt 0.00000 0.00000
vt 0.00000 1.00000
vt 1.00000 1.00000
vt 1.00000 0.00000
vt 0.00000 0.00000
vt 0.00000 1.00000
vt 1.00000 1.00000
vt 1.00000 0.00000
vt 0.00000 0.00000
vt 0.00000 1.00000
vt 1.00000 1.00000
vt 1.00000 0.00000
vt 0.00000 0.00000
vt 0.00000 1.00000
vt 1.00000 1.00000
vt 1.00000 0.00000
vt 0.00000 0.00000
vt 0.00000 1.00000
vt 1.00000 1.00000
vt 1.00000 0.00000
vt 0.00000 0.00000
vt 0.00000 1.00000
vt 1.00000 1.00000
vt 1.00000 0.00000
vt 0.00000 0.00000
vt 0.00000 1.00000
vt 1.00000 1.00000
vt 1.00000 0.00000
vt 0.00000 0.00000
vt 0.00000 1.00000
vt 1.00000 1.00000
vt 1.00000 0.00000
vt 0.00000 0.00000
vt 0.00000 1.00000
vt 1.00000 1.00000
vt 1.00000 0.00000
vt 0.00000 0.00000
vt 0.00000 1.00000
vt 1.00000 1.00000
vt 1.00000 0.00000
vt 0.00000 0.00000
vt 0.00000 1.00000
vt 1.00000 1.00000
vt 1.00000 0.00000
vt 0.00000 0.00000
vt 0.00000 1.00000
vt 1.00000 1.00000
vt 1.00000 0.00000
vt 0.00000 0.00000
vt 0.00000 1.00000
vt 1.00000 1.00000
vt 1.00000 0.00000
vt 0.00000 0.00000
vt 0.00000 1.00000
vt 1.00000 1.00000
vt 1.00000 0.00000
vt 0.00000 0.00000
vt 0.00000 1.00000
vt 1.00000 1.00000
vt 1.00000 0.00000
vt 0.00000 0.00000
vt 0.00000 1.00000
vt 1.00000 1.00000
vt 1.00000 0.00000
vt 0.00000 0.00000
vt 0.00000 1.00000
vt 1.00000 1.00000
vt 1.00000 0.00000
vt 0.00000 0.00000
vt 0.00000 1.00000
vt 1.00000 1.00000
vt 1.00000 0.00000
vt 0.00000 0.00000
vt 0.00000 1.00000
vt 1.00000 1.00000
vt 1.00000 0.00000
vt 0.00000 0.00000
vt 0.00000 1.00000
vt 1.00000 1.00000
vt 1.00000 0.00000
vt 0.00000 0.00000
vt 0.00000 1.00000
vt 1.00000 1.00000
vt 1.00000 0.00000
vt 0.00000 0.00000
vt 0.00000 1.00000
vt 1.00000 1.00000
vt 1.00000 0.00000
vt 0.00000 0.00000
vt 0.00000 1.00000
vt 1.00000 1.00000
vt 1.00000 0.00000
vt 0.00000 0.00000
vt 0.00000 1.00000
vt 1.00000 1.00000
vt 1.00000 0.00000
vt 0.00000 0.00000
vt 0.00000 1.00000
vt 1.00000 1.00000
vt 1.00000 0.00000
vt 0.00000 0.00000
vt 0.00000 1.00000
vt 1.00000 1.00000
vt 1.00000 0.00000
vt 0.00000 0.00000
vt 0.00000 1.00000
vt 1.00000 1.00000
vt 1.00000 0.00000
vt 0.00000 0.00000
vt 0.00000 1.00000
vt 1.00000 1.00000
vt 1.00000 0.00000
vt 0.00000 0.00000
vt 0.00000 1.00000
vt 1.00000 1.00000
vt 1.00000 0.00000
vt 0.00000 0.00000
vt 0.00000 1.00000
vt 1.00000 1.00000
vt 1.00000 0.00000
vt 0.00000 0.00000
vt 0.00000 1.00000
vt 1.00000 1.00000
vt 1.00000 0.00000
vt 0.00000 0.00000
vt 0.00000 1.00000
vt 1.00000 1.00000
vt 1.00000 0.00000
vt 0.00000 0.00000
vt 0.00000 1.00000
vt 1.00000 1.00000
vt 1.00000 0.00000
vt 0.00000 0.00000
vt 0.00000 1.00000
vt 1.00000 1.00000
vt 1.00000 0.00000
vt 0.00000 0.00000
vt 0.00000 1.00000
vt 1.00000 1.00000
vt 1.00000 0.00000
vt 0.00000 0.00000
vt 0.00000 1.00000
vt 1.00000 1.00000
vt 1.00000 0.00000
vt 0.00000 0.00000
vt 0.00000 1.00000
vt 1.00000 1.00000
vt 1.00000 0.00000
vt 0.00000 0.00000
vt 0.00000 1.00000
vt 1.00000 1.00000
vt 1.00000 0.00000
vt 0.00000 0.00000
vt 0.00000 1.00000
vt 1.00000 1.00000
vt 1.00000 0.00000
vt 0.00000 0.00000
vt 0.00000 1.00000
vt 1.00000 1.00000
vt 1.00000 0.00000
vt 0.00000 0.00000
vt 0.00000 1.00000
vt 1.00000 1.00000
vt 1.00000 0.00000
vt 0.00000 0.00000
vt 0.00000 1.00000
vt 1.00000 1.00000
vt 1.00000 0.00000
vt 0.00000 0.00000
vt 0.00000 1.00000
vt 1.00000 1.00000
vt 1.00000 0.00000
vt 0.00000 0.00000
vt 0.00000 1.00000
vt 1.00000 1.00000
vt 1.00000 0.00000
vt 0.00000 0.00000
vt 0.00000 1.00000
vt 1.00000 1.00000
vt 1.00000 0.00000
vt 0.00000 0.00000
vt 0.00000 1.00000
vt 1.00000 1.00000
vt 1.00000 0.00000
vt 0.00000 0.00000
vt 0.00000 1.00000
vt 1.00000 1.00000
vt 1.00000 0.00000
vt 0.00000 0.00000
vt 0.00000 1.00000
vt 1.00000 1.00000
vt 1.00000 0.00000
vt 0.00000 0.00000
vt 0.00000 1.00000
vt 1.00000 1.00000
vt 1.00000 0.00000
vt 0.00000 0.00000
vt 0.00000 1.00000
vt 1.00000 1.00000
vt 1.00000 0.00000
vt 0.00000 0.00000
vt 0.00000 1.00000
vt 1.00000 1.00000
vt 1.00000 0.00000
vt 0.00000 0.00000
vt 0.00000 1.00000
vt 1.00000 1.00000
vt 1.00000 0.00000
vt 0.00000 0.00000
vt 0.00000 1.00000
vt 1.00000 1.00000
vt 1.00000 0.00000
vt 0.00000 0.00000
vt 0.00000 1.00000
vt 1.00000 1.00000
vt 1.00000 0.00000
vt 0.00000 0.00000
vt 0.00000 1.00000
vt 1.00000 1.00000
vt 1.00000 0.00000
vt 0.00000 0.00000
vt 0.00000 1.00000
vt 1.00000 1.00000
vt 1.00000 0.00000
vt 0.00000 0.00000
vt 0.00000 1.00000
vt 1.00000 1.00000
vt 1.00000 0.00000
vt 0.00000 0.00000
vt 0.00000 1.00000
vt 1.00000 1.00000
vt 1.00000 0.00000
vt 0.00000 0.00000
vt 0.00000 1.00000
vt 1.00000 1.00000
vt 1.00000 0.00000
vt 0.00000 0.00000
vt 0.00000 1.00000
vt 1.00000 1.00000
vt 1.00000 0.00000
vt 0.00000 0.00000
vt 0.00000 1.00000
vt 1.00000 1.00000
vt 1.00000 0.00000
vt 0.00000 0.00000
vt 0.00000 1.00000
vt 1.00000 1.00000
vt 1.00000 0.00000
vt 0.00000 0.00000
vt 0.00000 1.00000
vt 1.00000 1.00000
vt 1.00000 0.00000
vt 0.00000 0.00000
vt 0.00000 1.00000
vt 1.00000 1.00000
vt 1.00000 0.00000
vt 0.00000 0.00000
vt 0.00000 1.00000
vt 1.00000 1.00000
vt 1.00000 0.00000
vt 0.00000 0.00000
vt 0.00000 1.00000
vt 1.00000 1.00000
vt 1.00000 0.00000
vt 0.00000 0.00000
vt 0.00000 1.00000
vt 1.00000 1.00000
vt 1.00000 0.00000
vt 0.00000 0.00000
vt 0.00000 1.00000
vt 1.00000 1.00000
vt 1.00000 0.00000
vt 0.00000 0.00000
vt 0.00000 1.00000
vt 1.00000 1.00000
vt 1.00000 0.00000
vt 0.00000 0.00000
vt 0.00000 1.00000
vt 1.00000 1.00000
vt 1.00000 0.00000
vt 0.00000 0.00000
vt 0.00000 1.00000
vt 1.00000 1.00000
vt 1.00000 0.00000
vt 0.00000 0.00000
vt 0.00000 1.00000
vt 1.00000 1.00000
vt 1.00000 0.00000
vt 0.00000 0.00000
vt 0.00000 1.00000
vt 1.00000 1.00000
vt 1.00000 0.00000
vt 0.00000 0.00000
vt 0.00000 1.00000
vt 1.00000 1.00000
vt 1.00000 0.00000
vt 0.00000 0.00000
vt 0.00000 1.00000
vt 1.00000 1.00000
vt 1.00000 0.00000
vt 0.00000 0.00000
vt 0.00000 1.00000
vt 1.00000 1.00000
vt 1.00000 0.00000
vt 0.00000 0.00000
vt 0.00000 1.00000
vt 1.00000 1.00000
vt 1.00000 0.00000
vt 0.00000 0.00000
vt 0.00000 1.00000
vt 1.00000 1.00000
vt 1.00000 0.00000
vt 0.00000 0.00000
vt 0.00000 1.00000
vt 1.00000 1.00000
vt 1.00000 0.00000
vt 0.00000 0.00000
vt 0.00000 1.00000
vt 1.00000 1.00000
vt 1.00000 0.00000
vt 0.00000 0.00000
vt 0.00000 1.00000
vt 1.00000 1.00000
vt 1.00000 0.00000
vt 0.00000 0.00000
vt 0.00000 1.00000
vt 1.00000 1.00000
vt 1.00000 0.00000
vt 0.00000 0.00000
vt 0.00000 1.00000
vt 1.00000 1.00000
vt 1.00000 0.00000
vt 0.00000 0.00000
vt 0.00000 1.00000
vt 1.00000 1.00000
vt 1.00000 0.00000
vt 0.00000 0.00000
vt 0.00000 1.00000
vt 1.00000 1.00000
vt 1.00000 0.00000
vt 0.00000 0.00000
vt 0.00000 1.00000
vt 1.00000 1.00000
vt 1.00000 0.00000
vt 0.00000 0.00000
vt 0.00000 1.00000
vt 1.00000 1.00000
vt 1.00000 0.00000
vt 0.00000 0.00000
vt 0.00000 1.00000
vt 1.00000 1.00000
vt 1.00000 0.00000
vt 0.00000 0.00000
vt 0.00000 1.00000
vt 1.00000 1.00000
vt 1.00000 0.00000
vt 0.00000 0.00000
vt 0.00000 1.00000
vt 1.00000 1.00000
vt 1.00000 0.00000
vt 0.00000 0.00000
vt 0.00000 1.00000
vt 1.00000 1.00000
vt 1.00000 0.00000
vt 0.00000 0.00000
vt 0.00000 1.00000
vt 1.00000 1.00000
vt 1.00000 0.00000
vt 0.00000 0.00000
vt 0.00000 1.00000
vt 1.00000 1.00000
vt 1.00000 0.00000
vt 0.00000 0.00000
vt 0.00000 1.00000
vt 1.00000 1.00000
vt 1.00000 0.00000
vt 0.00000 0.00000
vt 0.00000 1.00000
vt 1.00000 1.00000
vt 1.00000 0.00000
vt 0.00000 0.00000
vt 0.00000 1.00000
vt 1.00000 1.00000
vt 1.00000 0.00000
vt 0.00000 0.00000
vt 0.00000 1.00000
vt 1.00000 1.00000
vt 1.00000 0.00000
vt 0.00000 0.00000
vt 0.00000 1.00000
vt 1.00000 1.00000
vt 1.00000 0.00000
vt 0.00000 0.00000
vt 0.00000 1.00000
vt 1.00000 1.00000
vt 1.00000 0.00000
vt 0.00000 0.00000
vt 0.00000 1.00000
vt 1.00000 1.00000
vt 1.00000 0.00000
vt 0.00000 0.00000
vt 0.00000 1.00000
vt 1.00000 1.00000
vt 1.00000 0.00000
vt 0.00000 0.00000
vt 0.00000 1.00000
vt 1.00000 1.00000
vt 1.00000 0.00000
vt 0.00000 0.00000
vt 0.00000 1.00000
vt 1.00000 1.00000
vt 1.00000 0.00000
vt 0.00000 0.00000
vt 0.00000 1.00000
vt 1.00000 1.00000
vt 1.00000 0.00000
vt 0.00000 0.00000
vt 0.00000 1.00000
vt 1.00000 1.00000
vt 1.00000 0.00000
vt 0.00000 0.00000
vt 0.00000 1.00000
vt 1.00000 1.00000
vt 1.00000 0.00000
vt 0.00000 0.00000
vt 0.00000 1.00000
vt 1.00000 1.00000
vt 1.00000 0.00000
vt 0.00000 0.00000
vt 0.00000 1.00000
vt 1.00000 1.00000
vt 1.00000 0.00000
vt 0.00000 0.00000
vt 0.00000 1.00000
vt 1.00000 1.00000
vt 1.00000 0.00000
vt 0.00000 0.00000
vt 0.00000 1.00000
vt 1.00000 1.00000
vt 1.00000 0.00000
vt 0.00000 0.00000
vt 0.00000 1.00000
vt 1.00000 1.00000
vt 1.00000 0.00000
vt 0.00000 0.00000
vt 0.00000 1.00000
vt 1.00000 1.00000
vt 1.00000 0.00000
vt 0.00000 0.00000
vt 0.00000 1.00000
vt 1.00000 1.00000
vt 1.00000 0.00000
vt 0.00000 0.00000
vt 0.00000 1.00000
vt 1.00000 1.00000
vt 1.00000 0.00000
vt 0.00000 0.00000
vt 0.00000 1.00000
vt 1.00000 1.00000
vt 1.00000 0.00000
vt 0.00000 0.00000
vt 0.00000 1.00000
vt 1.00000 1.00000
vt 1.00000 0.00000
vt 0.00000 0.00000
vt 0.00000 1.00000
vt 1.00000 1.00000
vt 1.00000 0.00000
vt 0.00000 0.00000
vt 0.00000 1.00000
vt 1.00000 1.00000
vt 1.00000 0.00000
vt 0.00000 0.00000
vt 0.00000 1.00000
vt 1.00000 1.00000
vt 1.00000 0.00000
vt 0.00000 0.00000
vt 0.00000 1.00000
vt 1.00000 1.00000
vt 1.00000 0.00000
vt 0.00000 0.00000
vt 0.00000 1.00000
vt 1.00000 1.00000
vt 1.00000 0.00000
vt 0.00000 0.00000
vt 0.00000 1.00000
vt 1.00000 1.00000
vt 1.00000 0.00000
vt 0.00000 0.00000
vt 0.00000 1.00000
vt 1.00000 1.00000
vt 1.00000 0.00000
vt 0.00000 0.00000
vt 0.00000 1.00000
vt 1.00000 1.00000
vt 1.00000 0.00000
vt 0.00000 0.00000
vt 0.00000 1.00000
vt 1.00000 1.00000
vt 1.00000 0.00000
vt 0.00000 0.00000
vt 0.00000 1.00000
vt 1.00000 1.00000
vt 1.00000 0.00000
vt 0.00000 0.00000
vt 0.00000 1.00000
vt 1.00000 1.00000
vt 1.00000 0.00000
vt 0.00000 0.00000
vn -0.9866 -0.1320 -0.0959
vn 0.9866 0.1320 0.0959
vn 0.1809 -0.9817 -0.0591
vn -0.1809 0.9817 0.0591
vn 0.4288 0.8895 -0.1581
vn -0.4288 -0.8895 0.1581
vn -0.9574 -0.2308 0.1736
vn 0.9574 0.2308 -0.1736
vn -0.9969 -0.0760 0.0223
vn 0.9969 0.0760 -0.0223
vn 0.3446 -0.9385 0.0242
vn -0.3446 0.9385 -0.0242
vn 0.6473 0.7431 -0.1698
vn -0.6473 -0.7431 0.1698
vn -0.6999 -0.7001 0.1416
vn 0.6999 0.7001 -0.1416
vn 0.4044 0.9115 0.0753
vn -0.4044 -0.9115 -0.0753
vn 0.8893 0.4234 0.1728
vn -0.8893 -0.4234 -0.1728
vn -0.9764 -0.2153 -0.0188
vn 0.9764 0.2153 0.0188
vn -0.0368 0.9949 0.0934
vn 0.0368 -0.9949 -0.0934
vn -0.9379 0.3428 -0.0528
vn 0.9379 -0.3428 0.0528
vn -0.0261 0.9987 0.0443
vn 0.0261 -0.9987 -0.0443
vn 0.9746 -0.2235 0.0157
vn -0.9746 0.2235 -0.0157
vn 0.6975 0.7143 0.0566
vn -0.6975 -0.7143 -0.0566
vn -0.2590 -0.9542 -0.1495
vn 0.2590 0.9542 0.1495
vn -0.6046 -0.7870 0.1228
vn 0.6046 0.7870 -0.1228
vn 0.7618 -0.6444 -0.0664
vn -0.7618 0.6444 0.0664
vn 0.2252 0.9714 0.0754
vn -0.2252 -0.9714 -0.0754
vn -0.9303 0.3386 0.1412
vn 0.9303 -0.3386 -0.1412
vn -0.7105 -0.7030 0.0302
vn 0.7105 0.7030 -0.0302
vn -0.9228 -0.3492 -0.1627
vn 0.9228 0.3492 0.1627
vn -0.9042 -0.4164 -0.0946
vn 0.9042 0.4164 0.0946
vn -0.9942 -0.0540 0.0926
vn 0.9942 0.0540 -0.0926
vn -0.9931 -0.0247 0.1145
vn 0.9931 0.0247 -0.1145
vn -0.2969 -0.9485 -0.1104
vn 0.2969 0.9485 0.1104
vn -0.2764 -0.9609 -0.0177
vn 0.2764 0.9609 0.0177
vn 0.9018 0.4318 -0.0178
vn -0.9018 -0.4318 0.0178
vn 0.1394 -0.9901 0.0191
vn -0.1394 0.9901 -0.0191
vn -0.8977 0.4088 -0.1646
vn 0.8977 -0.4088 0.1646
vn 0.7182 0.6760 -0.1651
vn -0.7182 -0.6760 0.1651
vn 0.4332 -0.8970 0.0880
vn -0.4332 0.8970 -0.0880
vn -0.6649 -0.7465 -0.0268
vn 0.6649 0.7465 0.0268
vn 0.2114 0.9736 -0.0866
vn -0.2114 -0.9736 0.0866
vn 0.0854 -0.9921 0.0914
vn -0.0854 0.9921 -0.0914
vn -0.5521 -0.8298 0.0810
vn 0.5521 0.8298 -0.0810
vn 0.3487 0.9356 -0.0556
vn -0.3487 -0.9356 0.0556
vn 0.5476 -0.8188 0.1721
vn -0.5476 0.8188 -0.1721
vn -0.5953 -0.7857 -0.1681
vn 0.5953 0.7857 0.1681
vn 0.1585 -0.9847 -0.0727
vn -0.1585 0.9847 0.0727
vn 0.2098 -0.9619 -0.1751
vn -0.2098 0.9619 0.1751
vn -0.9178 -0.3944 -0.0456
vn 0.9178 0.3944 0.0456
vn 0.9168 -0.3630 0.1664
vn -0.9168 0.3630 -0.1664
vn 0.8555 -0.4848 0.1817
vn -0.8555 0.4848 -0.1817
vn 0.3950 -0.9152 0.0804
vn -0.3950 0.9152 -0.0804
vn -0.4094 -0.9087 -0.0818
vn 0.4094 0.9087 0.0818
vn 0.9165 -0.3738 -0.1425
vn -0.9165 0.3738 0.1425
vn -0.7915 0.6035 0.0963
vn 0.7915 -0.6035 -0.0963
vn -0.0466 0.9989 0.0002
vn 0.0466 -0.9989 -0.0002
vn 0.0757 0.9918 -0.1026
vn -0.0757 -0.9918 0.1026
vn -0.6671 0.7449 -0.0115
vn 0.6671 -0.7449 0.0115
vn 0.8269 -0.5573 0.0749
vn -0.8269 0.5573 -0.0749
vn 0.5779 0.7959 0.1804
vn -0.5779 -0.7959 -0.1804
vn -0.8891 -0.4408 -0.1232
vn 0.8891 0.4408 0.1232
vn -0.9841 0.0489 -0.1708
vn 0.9841 -0.0489 0.1708
vn -0.9478 0.2902 0.1324
vn 0.9478 -0.2902 -0.1324
vn 0.9681 0.2432 -0.0600
vn -0.9681 -0.2432 0.0600
vn 0.0962 0.9848 0.1445
vn -0.0962 -0.9848 -0.1445
vn 0.9002 -0.4163 -0.1277
vn -0.9002 0.4163 0.1277
vn -0.6589 0.7469 -0.0890
vn 0.6589 -0.7469 0.0890
vn 0.9616 -0.2279 -0.1532
vn -0.9616 0.2279 0.1532
vn 0.8333 0.5496 -0.0603
vn -0.8333 -0.5496 0.0603
vn 0.9235 0.3757 0.0767
vn -0.9235 -0.3757 -0.0767
vn -0.3337 -0.9411 -0.0546
vn 0.3337 0.9411 0.0546
vn 0.7132 -0.6993 0.0482
vn -0.7132 0.6993 -0.0482
vn -0.8929 -0.4202 0.1616
vn 0.8929 0.4202 -0.1616
vn -0.7117 0.7017 -0.0340
vn 0.7117 -0.7017 0.0340
vn 0.9933 -0.0982 -0.0611
vn -0.9933 0.0982 0.0611
vn -0.9588 -0.2387 -0.1541
vn 0.9588 0.2387 0.1541
vn -0.5539 -0.8312 0.0475
vn 0.5539 0.8312 -0.0475
vn 0.5517 0.8156 0.1746
vn -0.5517 -0.8156 -0.1746
vn 0.9720 -0.1816 0.1492
vn -0.9720 0.1816 -0.1492
vn -0.0284 -0.9933 -0.1118
vn 0.0284 0.9933 0.1118
vn 0.6196 -0.7843 -0.0314
vn -0.6196 0.7843 0.0314
vn -0.1887 0.9783 0.0855
vn 0.1887 -0.9783 -0.0855
vn 0.9696 0.2420 -0.0369
vn -0.9696 -0.2420 0.0369
vn 0.8069 0.5796 0.1138
vn -0.8069 -0.5796 -0.1138
vn -0.9154 -0.3890 -0.1038
vn 0.9154 0.3890 0.1038
vn 0.9925 0.0391 -0.1161
vn -0.9925 -0.0391 0.1161
vn 0.7279 0.6668 -0.1601
vn -0.7279 -0.6668 0.1601
vn -0.8075 0.5880 -0.0464
vn 0.8075 -0.5880 0.0464
vn 0.8194 0.5469 0.1716
vn -0.8194 -0.5469 -0.1716
vn -0.6851 -0.7269 -0.0472
vn 0.6851 0.7269 0.0472
vn 0.3422 -0.9383 -0.0509
vn -0.3422 0.9383 0.0509
vn 0.3172 -0.9466 -0.0577
vn -0.3172 0.9466 0.0577
vn 0.4573 -0.8783 0.1395
vn -0.4573 0.8783 -0.1395
vn -0.9664 -0.1771 -0.1863
vn 0.9664 0.1771 0.1863
vn 0.7581 -0.6497 0.0563
vn -0.7581 0.6497 -0.0563
vn 0.9004 0.4305 0.0620
vn -0.9004 -0.4305 -0.0620
vn 0.9362 0.3480 0.0501
vn -0.9362 -0.3480 -0.0501
vn -0.6575 -0.7401 -0.1412
vn 0.6575 0.7401 0.1412
vn 0.9902 0.1016 -0.0957
vn -0.9902 -0.1016 0.0957
vn -0.3811 0.9244 -0.0130
vn 0.3811 -0.9244 0.0130
vn 0.9487 -0.2953 0.1128
vn -0.9487 0.2953 -0.1128
vn 0.7830 0.6052 0.1436
vn -0.7830 -0.6052 -0.1436
vn -0.2236 0.9737 -0.0427
vn 0.2236 -0.9737 0.0427
vn 0.0883 0.9861 0.1408
vn -0.0883 -0.9861 -0.1408
vn -0.9703 -0.2379 -0.0445
vn 0.9703 0.2379 0.0445
vn -0.8219 0.5694 -0.0141
vn 0.8219 -0.5694 0.0141
vn 0.9445 -0.3285 -0.0060
vn -0.9445 0.3285 0.0060
vn 0.7916 0.5853 -0.1757
vn -0.7916 -0.5853 0.1757
vn 0.0613 -0.9969 -0.0486
vn -0.0613 0.9969 0.0486
vn 0.9884 -0.1385 0.0619
vn -0.9884 0.1385 -0.0619
vn 0.0849 0.9928 -0.0843
vn -0.0849 -0.9928 0.0843
vn 0.4455 -0.8926 -0.0700
vn -0.4455 0.8926 0.0700
vn 0.7244 -0.6862 0.0662
vn -0.7244 0.6862 -0.0662
vn 0.9023 0.4093 0.1355
vn -0.9023 -0.4093 -0.1355
vn 0.8710 0.4758 -0.1224
vn -0.8710 -0.4758 0.1224
vn 0.0123 -0.9938 0.1108
vn -0.0123 0.9938 -0.1108
vn -0.9347 -0.3423 -0.0959
vn 0.9347 0.3423 0.0959
vn -0.4414 0.8799 -0.1758
vn 0.4414 -0.8799 0.1758
vn -0.5632 -0.8213 -0.0908
vn 0.5632 0.8213 0.0908
vn 0.6463 -0.7452 -0.1641
vn -0.6463 0.7452 0.1641
vn 0.7324 0.6634 -0.1534
vn -0.7324 -0.6634 0.1534
vn 0.5017 0.8556 0.1279
vn -0.5017 -0.8556 -0.1279
f 1/1/1 3/3/1 2/2/1
f 1/1/1 4/4/1 3/3/1
f 5/5/2 7/7/2 8/8/2
f 5/5/2 6/6/2 7/7/2
f 9/9/3 11/11/3 10/10/3
f 9/9/3 12/12/3 11/11/3
f 13/13/4 15/15/4 16/16/4
f 13/13/4 14/14/4 15/15/4
f 17/17/5 19/19/5 18/18/5
f 17/17/5 20/20/5 19/19/5
f 21/21/6 23/23/6 24/24/6
f 21/21/6 22/22/6 23/23/6
f 25/25/7 27/27/7 26/26/7
f 25/25/7 28/28/7 27/27/7
f 29/29/8 31/31/8 32/32/8
f 29/29/8 30/30/8 31/31/8
f 33/33/9 35/35/9 34/34/9
f 33/33/9 36/36/9 35/35/9
f 37/37/10 39/39/10 40/40/10
f 37/37/10 38/38/10 39/39/10
f 41/41/11 43/43/11 42/42/11
f 41/41/11 44/44/11 43/43/11
f 45/45/12 47/47/12 48/48/12
f 45/45/12 46/46/12 47/47/12
f 49/49/13 51/51/13 50/50/13
f 49/49/13 52/52/13 51/51/13
f 53/53/14 55/55/14 56/56/14
f 53/53/14 54/54/14 55/55/14
f 57/57/15 59/59/15 58/58/15
f 57/57/15 60/60/15 59/59/15
f 61/61/16 63/63/16 64/64/16
f 61/61/16 62/62/16 63/63/16
f 65/65/17 67/67/17 66/66/17
f 65/65/17 68/68/17 67/67/17
f 69/69/18 71/71/18 72/72/18
f 69/69/18 70/70/18 71/71/18
f 73/73/19 75/75/19 74/74/19
f 73/73/19 76/76/19 75/75/19
f 77/77/20 79/79/20 80/80/20
f 77/77/20 78/78/20 79/79/20
f 81/81/21 83/83/21 82/82/21
f 81/81/21 84/84/21 83/83/21
f 85/85/22 87/87/22 88/88/22
f 85/85/22 86/86/22 87/87/22
f 89/89/23 91/91/23 90/90/23
f 89/89/23 92/92/23 91/91/23
f 93/93/24 95/95/24 96/96/24
f 93/93/24 94/94/24 95/95/24
f 97/97/25 99/99/25 98/98/25
f 97/97/25 100/100/25 99/99/25
f 101/101/26 103/103/26 104/104/26
f 101/101/26 102/102/26 103/103/26
f 105/105/27 107/107/27 106/106/27
f 105/105/27 108/108/27 107/107/27
f 109/109/28 111/111/28 112/112/28
f 109/109/28 110/110/28 111/111/28
f 113/113/29 115/115/29 114/114/29
f 113/113/29 116/116/29 115/115/29
f 117/117/30 119/119/30 120/120/30
f 117/117/30 118/118/30 119/119/30
f 121/121/31 123/123/31 122/122/31
f 121/121/31 124/124/31 123/123/31
f 125/125/32 127/127/32 128/128/32
f 125/125/32 126/126/32 127/127/32
f 129/129/33 131/131/33 130/130/33
f 129/129/33 132/132/33 131/131/33
f 133/133/34 135/135/34 136/136/34
f 133/133/34 134/134/34 135/135/34
f 137/137/35 139/139/35 138/138/35
f 137/137/35 140/140/35 139/139/35
f 141/141/36 143/143/36 144/144/36
f 141/141/36 142/142/36 143/143/36
f 145/145/37 147/147/37 146/146/37
f 145/145/37 148/148/37 147/147/37
f 149/149/38 151/151/38 152/152/38
f 149/149/38 150/150/38 151/151/38
f 153/153/39 155/155/39 154/154/39
f 153/153/39 156/156/39 155/155/39
f 157/157/40 159/159/40 160/160/40
f 157/157/40 158/158/40 159/159/40
f 161/161/41 163/163/41 162/162/41
f 161/161/41 164/164/41 163/163/41
f 165/165/42 167/167/42 168/168/42
f 165/165/42 166/166/42 167/167/42
f 169/169/43 171/171/43 170/170/43
f 169/169/43 172/172/43 171/171/43
f 173/173/44 175/175/44 176/176/44
f 173/173/44 174/174/44 175/175/44
f 177/177/45 179/179/45 178/178/45
f 177/177/45 180/180/45 179/179/45
f 181/181/46 183/183/46 184/184/46
f 181/181/46 182/182/46 183/183/46
f 185/185/47 187/187/47 186/186/47
f 185/185/47 188/188/47 187/187/47
f 189/189/48 191/191/48 192/192/48
f 189/189/48 190/190/48 191/191/48
f 193/193/49 195/195/49 194/194/49
f 193/193/49 196/196/49 195/195/49
f 197/197/50 199/199/50 200/200/50
f 197/197/50 198/198/50 199/199/50
f 201/201/51 203/203/51 202/202/51
f 201/201/51 204/204/51 203/203/51
f 205/205/52 207/207/52 208/208/52
f 205/205/52 206/206/52 207/207/52
f 209/209/53 211/211/53 210/210/53
f 209/209/53 212/212/53 211/211/53
f 213/213/54 215/215/54 216/216/54
f 213/213/54 214/214/54 215/215/54
f 217/217/55 219/219/55 218/218/55
f 217/217/55 220/220/55 219/219/55
f 221/221/56 223/223/56 224/224/56
f 221/221/56 222/222/56 223/223/56
f 225/225/57 227/227/57 226/226/57
f 225/225/57 228/228/57 227/227/57
f 229/229/58 231/231/58 232/232/58
f 229/229/58 230/230/58 231/231/58
f 233/233/59 235/235/59 234/234/59
f 233/233/59 236/236/59 235/235/59
f 237/237/60 239/239/60 240/240/60
f 237/237/60 238/238/60 239/239/60
f 241/241/61 243/243/61 242/242/61
f 241/241/61 244/244/61 243/243/61
f 245/245/62 247/247/62 248/248/62
f 245/245/62 246/246/62 247/247/62
f 249/249/63 251/251/63 250/250/63
f 249/249/63 252/252/63 251/251/63
f 253/253/64 255/255/64 256/256/64
f 253/253/64 254/254/64 255/255/64
f 257/257/65 259/259/65 258/258/65
f 257/257/65 260/260/65 259/259/65
f 261/261/66 263/263/66 264/264/66
f 261/261/66 262/262/66 263/263/66
f 265/265/67 267/267/67 266/266/67
f 265/265/67 268/268/67 267/267/67
f 269/269/68 271/271/68 272/272/68
f 269/269/68 270/270/68 271/271/68
f 273/273/69 275/275/69 274/274/69
f 273/273/69 276/276/69 275/275/69
f 277/277/70 279/279/70 280/280/70
f 277/277/70 278/278/70 279/279/70
f 281/281/71 283/283/71 282/282/71
f 281/281/71 284/284/71 283/283/71
f 285/285/72 287/287/72 288/288/72
f 285/285/72 286/286/72 287/287/72
f 289/289/73 291/291/73 290/290/73
f 289/289/73 292/292/73 291/291/73
f 293/293/74 295/295/74 296/296/74
f 293/293/74 294/294/74 295/295/74
f 297/297/75 299/299/75 298/298/75
f 297/297/75 300/300/75 299/299/75
f 301/301/76 303/303/76 304/304/76
f 301/301/76 302/302/76 303/303/76
f 305/305/77 307/307/77 306/306/77
f 305/305/77 308/308/77 307/307/77
f 309/309/78 311/311/78 312/312/78
f 309/309/78 310/310/78 311/311/78
f 313/313/79 315/315/79 314/314/79
f 313/313/79 316/316/79 315/315/79
f 317/317/80 319/319/80 320/320/80
f 317/317/80 318/318/80 319/319/80
f 321/321/81 323/323/81 322/322/81
f 321/321/81 324/324/81 323/323/81
f 325/325/82 327/327/82 328/328/82
f 325/325/82 326/326/82 327/327/82
f 329/329/83 331/331/83 330/330/83
f 329/329/83 332/332/83 331/331/83
f 333/333/84 335/335/84 336/336/84
f 333/333/84 334/334/84 335/335/84
f 337/337/85 339/339/85 338/338/85
f 337/337/85 340/340/85 339/339/85
f 341/341/86 343/343/86 344/344/86
f 341/341/86 342/342/86 343/343/86
f 345/345/87 347/347/87 346/346/87
f 345/345/87 348/348/87 347/347/87
f 349/349/88 351/351/88 352/352/88
f 349/349/88 350/350/88 351/351/88
f 353/353/89 355/355/89 354/354/89
f 353/353/89 356/356/89 355/355/89
f 357/357/90 359/359/90 360/360/90
f 357/357/90 358/358/90 359/359/90
f 361/361/91 363/363/91 362/362/91
f 361/361/91 364/364/91 363/363/91
f 365/365/92 367/367/92 368/368/92
f 365/365/92 366/366/92 367/367/92
f 369/369/93 371/371/93 370/370/93
f 369/369/93 372/372/93 371/371/93
f 373/373/94 375/375/94 376/376/94
f 373/373/94 374/374/94 375/375/94
f 377/377/95 379/379/95 378/378/95
f 377/377/95 380/380/95 379/379/95
f 381/381/96 383/383/96 384/384/96
f 381/381/96 382/382/96 383/383/96
f 385/385/97 387/387/97 386/386/97
f 385/385/97 388/388/97 387/387/97
f 389/389/98 391/391/98 392/392/98
f 389/389/98 390/390/98 391/391/98
f 393/393/99 395/395/99 394/394/99
f 393/393/99 396/396/99 395/395/99
f 397/397/100 399/399/100 400/400/100
f 397/397/100 398/398/100 399/399/100
f 401/401/101 403/403/101 402/402/101
f 401/401/101 404/404/101 403/403/101
f 405/405/102 407/407/102 408/408/102
f 405/405/102 406/406/102 407/407/102
f 409/409/103 411/411/103 410/410/103
f 409/409/103 412/412/103 411/411/103
f 413/413/104 415/415/104 416/416/104
f 413/413/104 414/414/104 415/415/104
f 417/417/105 419/419/105 418/418/105
f 417/417/105 420/420/105 419/419/105
f 421/421/106 423/423/106 424/424/106
f 421/421/106 422/422/106 423/423/106
f 425/425/107 427/427/107 426/426/107
f 425/425/107 428/428/107 427/427/107
f 429/429/108 431/431/108 432/432/108
f 429/429/108 430/430/108 431/431/108
f 433/433/109 435/435/109 434/434/109
f 433/433/109 436/436/109 435/435/109
f 437/437/110 439/439/110 440/440/110
f 437/437/110 438/438/110 439/439/110
f 441/441/111 443/443/111 442/442/111
f 441/441/111 444/444/111 443/443/111
f 445/445/112 447/447/112 448/448/112
f 445/445/112 446/446/112 447/447/112
f 449/449/113 451/451/113 450/450/113
f 449/449/113 452/452/113 451/451/113
f 453/453/114 455/455/114 456/456/114
f 453/453/114 454/454/114 455/455/114
f 457/457/115 459/459/115 458/458/115
f 457/457/115 460/460/115 459/459/115
f 461/461/116 463/463/116 464/464/116
f 461/461/116 462/462/116 463/463/116
f 465/465/117 467/467/117 466/466/117
f 465/465/117 468/468/117 467/467/117
f 469/469/118 471/471/118 472/472/118
f 469/469/118 470/470/118 471/471/118
f 473/473/119 475/475/119 474/474/119
f 473/473/119 476/476/119 475/475/119
f 477/477/120 479/479/120 480/480/120
f 477/477/120 478/478/120 479/479/120
f 481/481/121 483/483/121 482/482/121
f 481/481/121 484/484/121 483/483/121
f 485/485/122 487/487/122 488/488/122
f 485/485/122 486/486/122 487/487/122
f 489/489/123 491/491/123 490/490/123
f 489/489/123 492/492/123 491/491/123
f 493/493/124 495/495/124 496/496/124
f 493/493/124 494/494/124 495/495/124
f 497/497/125 499/499/125 498/498/125
f 497/497/125 500/500/125 499/499/125
f 501/501/126 503/503/126 504/504/126
f 501/501/126 502/502/126 503/503/126
f 505/505/127 507/507/127 506/506/127
f 505/505/127 508/508/127 507/507/127
f 509/509/128 511/511/128 512/512/128
f 509/509/128 510/510/128 511/511/128
f 513/513/129 515/515/129 514/514/129
f 513/513/129 516/516/129 515/515/129
f 517/517/130 519/519/130 520/520/130
f 517/517/130 518/518/130 519/519/130
f 521/521/131 523/523/131 522/522/131
f 521/521/131 524/524/131 523/523/131
f 525/525/132 527/527/132 528/528/132
f 525/525/132 526/526/132 527/527/132
f 529/529/133 531/531/133 530/530/133
f 529/529/133 532/532/133 531/531/133
f 533/533/134 535/535/134 536/536/134
f 533/533/134 534/534/134 535/535/134
f 537/537/135 539/539/135 538/538/135
f 537/537/135 540/540/135 539/539/135
f 541/541/136 543/543/136 544/544/136
f 541/541/136 542/542/136 543/543/136
f 545/545/137 547/547/137 546/546/137
f 545/545/137 548/548/137 547/547/137
f 549/549/138 551/551/138 552/552/138
f 549/549/138 550/550/138 551/551/138
f 553/553/139 555/555/139 554/554/139
f 553/553/139 556/556/139 555/555/139
f 557/557/140 559/559/140 560/560/140
f 557/557/140 558/558/140 559/559/140
f 561/561/141 563/563/141 562/562/141
f 561/561/141 564/564/141 563/563/141
f 565/565/142 567/567/142 568/568/142
f 565/565/142 566/566/142 567/567/142
f 569/569/143 571/571/143 570/570/143
f 569/569/143 572/572/143 571/571/143
f 573/573/144 575/575/144 576/576/144
f 573/573/144 574/574/144 575/575/144
f 577/577/145 579/579/145 578/578/145
f 577/577/145 580/580/145 579/579/145
f 581/581/146 583/583/146 584/584/146
f 581/581/146 582/582/146 583/583/146
f 585/585/147 587/587/147 586/586/147
f 585/585/147 588/588/147 587/587/147
f 589/589/148 591/591/148 592/592/148
f 589/589/148 590/590/148 591/591/148
f 593/593/149 595/595/149 594/594/149
f 593/593/149 596/596/149 595/595/149
f 597/597/150 599/599/150 600/600/150
f 597/597/150 598/598/150 599/599/150
f 601/601/151 603/603/151 602/602/151
f 601/601/151 604/604/151 603/603/151
f 605/605/152 607/607/152 608/608/152
f 605/605/152 606/606/152 607/607/152
f 609/609/153 611/611/153 610/610/153
f 609/609/153 612/612/153 611/611/153
f 613/613/154 615/615/154 616/616/154
f 613/613/154 614/614/154 615/615/154
f 617/617/155 619/619/155 618/618/155
f 617/617/155 620/620/155 619/619/155
f 621/621/156 623/623/156 624/624/156
f 621/621/156 622/622/156 623/623/156
f 625/625/157 627/627/157 626/626/157
f 625/625/157 628/628/157 627/627/157
f 629/629/158 631/631/158 632/632/158
f 629/629/158 630/630/158 631/631/158
f 633/633/159 635/635/159 634/634/159
f 633/633/159 636/636/159 635/635/159
f 637/637/160 639/639/160 640/640/160
f 637/637/160 638/638/160 639/639/160
f 641/641/161 643/643/161 642/642/161
f 641/641/161 644/644/161 643/643/161
f 645/645/162 647/647/162 648/648/162
f 645/645/162 646/646/162 647/647/162
f 649/649/163 651/651/163 650/650/163
f 649/649/163 652/652/163 651/651/163
f 653/653/164 655/655/164 656/656/164
f 653/653/164 654/654/164 655/655/164
f 657/657/165 659/659/165 658/658/165
f 657/657/165 660/660/165 659/659/165
f 661/661/166 663/663/166 664/664/166
f 661/661/166 662/662/166 663/663/166
f 665/665/167 667/667/167 666/666/167
f 665/665/167 668/668/167 667/667/167
f 669/669/168 671/671/168 672/672/168
f 669/669/168 670/670/168 671/671/168
f 673/673/169 675/675/169 674/674/169
f 673/673/169 676/676/169 675/675/169
f 677/677/170 679/679/170 680/680/170
f 677/677/170 678/678/170 679/679/170
f 681/681/171 683/683/171 682/682/171
f 681/681/171 684/684/171 683/683/171
f 685/685/172 687/687/172 688/688/172
f 685/685/172 686/686/172 687/687/172
f 689/689/173 691/691/173 690/690/173
f 689/689/173 692/692/173 691/691/173
f 693/693/174 695/695/174 696/696/174
f 693/693/174 694/694/174 695/695/174
f 697/697/175 699/699/175 698/698/175
f 697/697/175 700/700/175 699/699/175
f 701/701/176 703/703/176 704/704/176
f 701/701/176 702/702/176 703/703/176
f 705/705/177 707/707/177 706/706/177
f 705/705/177 708/708/177 707/707/177
f 709/709/178 711/711/178 712/712/178
f 709/709/178 710/710/178 711/711/178
f 713/713/179 715/715/179 714/714/179
f 713/713/179 716/716/179 715/715/179
f 717/717/180 719/719/180 720/720/180
f 717/717/180 718/718/180 719/719/180
f 721/721/181 723/723/181 722/722/181
f 721/721/181 724/724/181 723/723/181
f 725/725/182 727/727/182 728/728/182
f 725/725/182 726/726/182 727/727/182
f 729/729/183 731/731/183 730/730/183
f 729/729/183 732/732/183 731/731/183
f 733/733/184 735/735/184 736/736/184
f 733/733/184 734/734/184 735/735/184
f 737/737/185 739/739/185 738/738/185
f 737/737/185 740/740/185 739/739/185
f 741/741/186 743/743/186 744/744/186
f 741/741/186 742/742/186 743/743/186
f 745/745/187 747/747/187 746/746/187
f 745/745/187 748/748/187 747/747/187
f 749/749/188 751/751/188 752/752/188
f 749/749/188 750/750/188 751/751/188
f 753/753/189 755/755/189 754/754/189
f 753/753/189 756/756/189 755/755/189
f 757/757/190 759/759/190 760/760/190
f 757/757/190 758/758/190 759/759/190
f 761/761/191 763/763/191 762/762/191
f 761/761/191 764/764/191 763/763/191
f 765/765/192 767/767/192 768/768/192
f 765/765/192 766/766/192 767/767/192
f 769/769/193 771/771/193 770/770/193
f 769/769/193 772/772/193 771/771/193
f 773/773/194 775/775/194 776/776/194
f 773/773/194 774/774/194 775/775/194
f 777/777/195 779/779/195 778/778/195
f 777/777/195 780/780/195 779/779/195
f 781/781/196 783/783/196 784/784/196
f 781/781/196 782/782/196 783/783/196
f 785/785/197 787/787/197 786/786/197
f 785/785/197 788/788/197 787/787/197
f 789/789/198 791/791/198 792/792/198
f 789/789/198 790/790/198 791/791/198
f 793/793/199 795/795/199 794/794/199
f 793/793/199 796/796/199 795/795/199
f 797/797/200 799/799/200 800/800/200
f 797/797/200 798/798/200 799/799/200
f 801/801/201 803/803/201 802/802/201
f 801/801/201 804/804/201 803/803/201
f 805/805/202 807/807/202 808/808/202
f 805/805/202 806/806/202 807/807/202
f 809/809/203 811/811/203 810/810/203
f 809/809/203 812/812/203 811/811/203
f 813/813/204 815/815/204 816/816/204
f 813/813/204 814/814/204 815/815/204
f 817/817/205 819/819/205 818/818/205
f 817/817/205 820/820/205 819/819/205
f 821/821/206 823/823/206 824/824/206
f 821/821/206 822/822/206 823/823/206
f 825/825/207 827/827/207 826/826/207
f 825/825/207 828/828/207 827/827/207
f 829/829/208 831/831/208 832/832/208
f 829/829/208 830/830/208 831/831/208
f 833/833/209 835/835/209 834/834/209
f 833/833/209 836/836/209 835/835/209
f 837/837/210 839/839/210 840/840/210
f 837/837/210 838/838/210 839/839/210
f 841/841/211 843/843/211 842/842/211
f 841/841/211 844/844/211 843/843/211
f 845/845/212 847/847/212 848/848/212
f 845/845/212 846/846/212 847/847/212
f 849/849/213 851/851/213 850/850/213
f 849/849/213 852/852/213 851/851/213
f 853/853/214 855/855/214 856/856/214
f 853/853/214 854/854/214 855/855/214
f 857/857/215 859/859/215 858/858/215
f 857/857/215 860/860/215 859/859/215
f 861/861/216 863/863/216 864/864/216
f 861/861/216 862/862/216 863/863/216
f 865/865/217 867/867/217 866/866/217
f 865/865/217 868/868/217 867/867/217
f 869/869/218 871/871/218 872/872/218
f 869/869/218 870/870/218 871/871/218
f 873/873/219 875/875/219 874/874/219
f 873/873/219 876/876/219 875/875/219
f 877/877/220 879/879/220 880/880/220
f 877/877/220 878/878/220 879/879/220
f 881/881/221 883/883/221 882/882/221
f 881/881/221 884/884/221 883/883/221
f 885/885/222 887/887/222 888/888/222
f 885/885/222 886/886/222 887/887/222
f 889/889/223 891/891/223 890/890/223
f 889/889/223 892/892/223 891/891/223
f 893/893/224 895/895/224 896/896/224
f 893/893/224 894/894/224 895/895/224
f 897/897/225 899/899/225 898/898/225
f 897/897/225 900/900/225 899/899/225
f 901/901/226 903/903/226 904/904/226
f 901/901/226 902/902/226 903/903/226
f 905/905/227 907/907/227 906/906/227
f 905/905/227 908/908/227 907/907/227
f 909/909/228 911/911/228 912/912/228
f 909/909/228 910/910/228 911/911/228
f 913/913/229 915/915/229 914/914/229
f 913/913/229 916/916/229 915/915/229
f 917/917/230 919/919/230 920/920/230
f 917/917/230 918/918/230 919/919/230
f 921/921/231 923/923/231 922/922/231
f 921/921/231 924/924/231 923/923/231
f 925/925/232 927/927/232 928/928/232
f 925/925/232 926/926/232 927/927/232
