# MikdashWaterV1 SM_MikdashWaterV1_MikvehWater_KohenGadolYomKippur
# Unreal legacy OBJ adapter: canonical vertices are UE cm (X east, +Y south, Z up); this file is written with Y REFLECTED and triangle winding REVERSED. The importer reflects Y back, so imported bounds must equal canonicalBoundsCm and UE signed volumes must be positive. Same adapter as create_keilim_ti_v1.py.
# Water surface of mikveh for the Kohen Gadol on Yom Kippur (in the kodesh)
o SM_MikdashWaterV1_MikvehWater_KohenGadolYomKippur
g SM_MikdashWaterV1_MikvehWater_KohenGadolYomKippur
v -1450.0000 -2100.0000 525.5000
v -1450.0000 -2200.0000 621.0000
v -1450.0000 -2100.0000 621.0000
vt 0.00000 0.00000
vt 1.38276 0.00000
vt 0.65957 0.69065
vn -1.00000 0.00000 0.00000
vn -1.00000 0.00000 0.00000
vn -1.00000 0.00000 0.00000
f 1/1/1 2/2/2 3/3/3
v -1450.0000 -2100.0000 525.5000
v -1450.0000 -2200.0000 525.5000
v -1450.0000 -2200.0000 621.0000
vt 0.00000 0.00000
vt 1.00000 0.00000
vt 1.00000 0.95500
vn -1.00000 0.00000 0.00000
vn -1.00000 0.00000 0.00000
vn -1.00000 0.00000 0.00000
f 4/4/4 5/5/5 6/6/6
v -1275.0000 -2100.0000 525.5000
v -1275.0000 -2200.0000 621.0000
v -1275.0000 -2200.0000 525.5000
vt 0.00000 0.00000
vt 1.38276 0.00000
vt 0.72319 0.69065
vn 1.00000 0.00000 0.00000
vn 1.00000 0.00000 0.00000
vn 1.00000 0.00000 0.00000
f 7/7/7 8/8/8 9/9/9
v -1275.0000 -2100.0000 525.5000
v -1275.0000 -2100.0000 621.0000
v -1275.0000 -2200.0000 621.0000
vt 0.00000 0.00000
vt 0.95500 0.00000
vt 0.95500 1.00000
vn 1.00000 0.00000 -0.00000
vn 1.00000 0.00000 -0.00000
vn 1.00000 0.00000 -0.00000
f 10/10/10 11/11/11 12/12/12
v -1450.0000 -2100.0000 525.5000
v -1275.0000 -2100.0000 621.0000
v -1275.0000 -2100.0000 525.5000
vt 0.00000 0.00000
vt 1.99362 0.00000
vt 1.53615 0.83830
vn 0.00000 1.00000 0.00000
vn 0.00000 1.00000 0.00000
vn 0.00000 1.00000 0.00000
f 13/13/13 14/14/14 15/15/15
v -1450.0000 -2100.0000 525.5000
v -1450.0000 -2100.0000 621.0000
v -1275.0000 -2100.0000 621.0000
vt 0.00000 0.00000
vt 0.95500 0.00000
vt 0.95500 1.75000
vn 0.00000 1.00000 0.00000
vn 0.00000 1.00000 0.00000
vn 0.00000 1.00000 0.00000
f 16/16/16 17/17/17 18/18/18
v -1450.0000 -2200.0000 525.5000
v -1275.0000 -2200.0000 621.0000
v -1450.0000 -2200.0000 621.0000
vt 0.00000 0.00000
vt 1.99362 0.00000
vt 0.45747 0.83830
vn 0.00000 -1.00000 0.00000
vn 0.00000 -1.00000 0.00000
vn 0.00000 -1.00000 0.00000
f 19/19/19 20/20/20 21/21/21
v -1450.0000 -2200.0000 525.5000
v -1275.0000 -2200.0000 525.5000
v -1275.0000 -2200.0000 621.0000
vt 0.00000 0.00000
vt 1.75000 0.00000
vt 1.75000 0.95500
vn 0.00000 -1.00000 0.00000
vn 0.00000 -1.00000 0.00000
vn 0.00000 -1.00000 0.00000
f 22/22/22 23/23/23 24/24/24
v -1450.0000 -2100.0000 525.5000
v -1275.0000 -2200.0000 525.5000
v -1450.0000 -2200.0000 525.5000
vt 0.00000 0.00000
vt 2.01556 0.00000
vt 0.49614 0.86824
vn 0.00000 0.00000 -1.00000
vn 0.00000 0.00000 -1.00000
vn 0.00000 0.00000 -1.00000
f 25/25/25 26/26/26 27/27/27
v -1450.0000 -2100.0000 525.5000
v -1275.0000 -2100.0000 525.5000
v -1275.0000 -2200.0000 525.5000
vt 0.00000 0.00000
vt 1.75000 0.00000
vt 1.75000 1.00000
vn 0.00000 0.00000 -1.00000
vn 0.00000 0.00000 -1.00000
vn 0.00000 0.00000 -1.00000
f 28/28/28 29/29/29 30/30/30
v -1450.0000 -2100.0000 621.0000
v -1275.0000 -2200.0000 621.0000
v -1275.0000 -2100.0000 621.0000
vt 0.00000 0.00000
vt 2.01556 0.00000
vt 1.51943 0.86824
vn -0.00000 0.00000 1.00000
vn -0.00000 0.00000 1.00000
vn -0.00000 0.00000 1.00000
f 31/31/31 32/32/32 33/33/33
v -1450.0000 -2100.0000 621.0000
v -1450.0000 -2200.0000 621.0000
v -1275.0000 -2200.0000 621.0000
vt 0.00000 0.00000
vt 1.00000 0.00000
vt 1.00000 1.75000
vn 0.00000 0.00000 1.00000
vn 0.00000 0.00000 1.00000
vn 0.00000 0.00000 1.00000
f 34/34/34 35/35/35 36/36/36
