# Future Mount enclosure part (Lishchno Tidreshu); Unreal legacy OBJ adapter: Y negated, winding reversed
o SM_EnclosureV1_Cheilslab_N
g cheilslab_N_01
v -9200.000000 250.000000 0.000000
v 9200.000000 250.000000 0.000000
v 9200.000000 -250.000000 0.000000
vt 0.000000 0.000000
vt 184.000000 0.000000
vt 184.000000 5.000000
vn 0.000000 0.000000 -1.000000
vn 0.000000 0.000000 -1.000000
vn 0.000000 0.000000 -1.000000
f 1/1/1 2/2/2 3/3/3
v -9200.000000 250.000000 0.000000
v 9200.000000 -250.000000 0.000000
v -9200.000000 -250.000000 0.000000
vt 0.000000 0.000000
vt 184.067922 0.000000
vt 0.135819 4.998155
vn 0.000000 0.000000 -1.000000
vn 0.000000 0.000000 -1.000000
vn 0.000000 0.000000 -1.000000
f 4/4/4 5/5/5 6/6/6
v -9200.000000 250.000000 5.000000
v 9200.000000 -250.000000 5.000000
v 9200.000000 250.000000 5.000000
vt 0.000000 0.000000
vt 184.067922 0.000000
vt 183.932103 4.998155
vn -0.000000 0.000000 1.000000
vn -0.000000 0.000000 1.000000
vn -0.000000 0.000000 1.000000
f 7/7/7 8/8/8 9/9/9
v -9200.000000 250.000000 5.000000
v -9200.000000 -250.000000 5.000000
v 9200.000000 -250.000000 5.000000
vt 0.000000 0.000000
vt 5.000000 0.000000
vt 5.000000 184.000000
vn 0.000000 0.000000 1.000000
vn 0.000000 0.000000 1.000000
vn 0.000000 0.000000 1.000000
f 10/10/10 11/11/11 12/12/12
v -9200.000000 250.000000 0.000000
v 9200.000000 250.000000 5.000000
v 9200.000000 250.000000 0.000000
vt 0.000000 0.000000
vt 184.000007 0.000000
vt 183.999993 0.050000
vn 0.000000 1.000000 0.000000
vn 0.000000 1.000000 0.000000
vn 0.000000 1.000000 0.000000
f 13/13/13 14/14/14 15/15/15
v -9200.000000 250.000000 0.000000
v -9200.000000 250.000000 5.000000
v 9200.000000 250.000000 5.000000
vt 0.000000 0.000000
vt 0.050000 0.000000
vt 0.050000 184.000000
vn 0.000000 1.000000 0.000000
vn 0.000000 1.000000 0.000000
vn 0.000000 1.000000 0.000000
f 16/16/16 17/17/17 18/18/18
v 9200.000000 -250.000000 0.000000
v -9200.000000 -250.000000 5.000000
v -9200.000000 -250.000000 0.000000
vt 0.000000 0.000000
vt 184.000007 0.000000
vt 183.999993 0.050000
vn 0.000000 -1.000000 0.000000
vn 0.000000 -1.000000 0.000000
vn 0.000000 -1.000000 0.000000
f 19/19/19 20/20/20 21/21/21
v 9200.000000 -250.000000 0.000000
v 9200.000000 -250.000000 5.000000
v -9200.000000 -250.000000 5.000000
vt 0.000000 0.000000
vt 0.050000 0.000000
vt 0.050000 184.000000
vn 0.000000 -1.000000 0.000000
vn 0.000000 -1.000000 0.000000
vn 0.000000 -1.000000 0.000000
f 22/22/22 23/23/23 24/24/24
v 9200.000000 250.000000 0.000000
v 9200.000000 -250.000000 5.000000
v 9200.000000 -250.000000 0.000000
vt 0.000000 0.000000
vt 5.000250 0.000000
vt 4.999750 0.049998
vn 1.000000 0.000000 0.000000
vn 1.000000 0.000000 0.000000
vn 1.000000 0.000000 0.000000
f 25/25/25 26/26/26 27/27/27
v 9200.000000 250.000000 0.000000
v 9200.000000 250.000000 5.000000
v 9200.000000 -250.000000 5.000000
vt 0.000000 0.000000
vt 0.050000 0.000000
vt 0.050000 5.000000
vn 1.000000 0.000000 -0.000000
vn 1.000000 0.000000 -0.000000
vn 1.000000 0.000000 -0.000000
f 28/28/28 29/29/29 30/30/30
v -9200.000000 -250.000000 0.000000
v -9200.000000 250.000000 5.000000
v -9200.000000 250.000000 0.000000
vt 0.000000 0.000000
vt 5.000250 0.000000
vt 4.999750 0.049998
vn -1.000000 0.000000 0.000000
vn -1.000000 0.000000 0.000000
vn -1.000000 0.000000 0.000000
f 31/31/31 32/32/32 33/33/33
v -9200.000000 -250.000000 0.000000
v -9200.000000 -250.000000 5.000000
v -9200.000000 250.000000 5.000000
vt 0.000000 0.000000
vt 0.050000 0.000000
vt 0.050000 5.000000
vn -1.000000 0.000000 0.000000
vn -1.000000 0.000000 0.000000
vn -1.000000 0.000000 0.000000
f 34/34/34 35/35/35 36/36/36
