# Future Mount enclosure part (Lishchno Tidreshu); Unreal legacy OBJ adapter: Y negated, winding reversed
o SM_EnclosureV1_Steps_E
g step_E_01
v -250.000000 250.000000 0.000000
v 250.000000 250.000000 0.000000
v 250.000000 -250.000000 0.000000
vt 0.000000 0.000000
vt 5.000000 0.000000
vt 5.000000 5.000000
vn 0.000000 0.000000 -1.000000
vn 0.000000 0.000000 -1.000000
vn 0.000000 0.000000 -1.000000
f 1/1/1 2/2/2 3/3/3
v -250.000000 250.000000 0.000000
v 250.000000 -250.000000 0.000000
v -250.000000 -250.000000 0.000000
vt 0.000000 0.000000
vt 7.071068 0.000000
vt 3.535534 3.535534
vn 0.000000 0.000000 -1.000000
vn 0.000000 0.000000 -1.000000
vn 0.000000 0.000000 -1.000000
f 4/4/4 5/5/5 6/6/6
v -250.000000 250.000000 25.000000
v 250.000000 -250.000000 25.000000
v 250.000000 250.000000 25.000000
vt 0.000000 0.000000
vt 7.071068 0.000000
vt 3.535534 3.535534
vn -0.000000 0.000000 1.000000
vn -0.000000 0.000000 1.000000
vn -0.000000 0.000000 1.000000
f 7/7/7 8/8/8 9/9/9
v -250.000000 250.000000 25.000000
v -250.000000 -250.000000 25.000000
v 250.000000 -250.000000 25.000000
vt 0.000000 0.000000
vt 5.000000 0.000000
vt 5.000000 5.000000
vn 0.000000 0.000000 1.000000
vn 0.000000 0.000000 1.000000
vn 0.000000 0.000000 1.000000
f 10/10/10 11/11/11 12/12/12
v -250.000000 250.000000 0.000000
v 250.000000 250.000000 25.000000
v 250.000000 250.000000 0.000000
vt 0.000000 0.000000
vt 5.006246 0.000000
vt 4.993762 0.249688
vn 0.000000 1.000000 0.000000
vn 0.000000 1.000000 0.000000
vn 0.000000 1.000000 0.000000
f 13/13/13 14/14/14 15/15/15
v -250.000000 250.000000 0.000000
v -250.000000 250.000000 25.000000
v 250.000000 250.000000 25.000000
vt 0.000000 0.000000
vt 0.250000 0.000000
vt 0.250000 5.000000
vn 0.000000 1.000000 0.000000
vn 0.000000 1.000000 0.000000
vn 0.000000 1.000000 0.000000
f 16/16/16 17/17/17 18/18/18
v 250.000000 -250.000000 0.000000
v -250.000000 -250.000000 25.000000
v -250.000000 -250.000000 0.000000
vt 0.000000 0.000000
vt 5.006246 0.000000
vt 4.993762 0.249688
vn 0.000000 -1.000000 0.000000
vn 0.000000 -1.000000 0.000000
vn 0.000000 -1.000000 0.000000
f 19/19/19 20/20/20 21/21/21
v 250.000000 -250.000000 0.000000
v 250.000000 -250.000000 25.000000
v -250.000000 -250.000000 25.000000
vt 0.000000 0.000000
vt 0.250000 0.000000
vt 0.250000 5.000000
vn 0.000000 -1.000000 0.000000
vn 0.000000 -1.000000 0.000000
vn 0.000000 -1.000000 0.000000
f 22/22/22 23/23/23 24/24/24
v 250.000000 250.000000 0.000000
v 250.000000 -250.000000 25.000000
v 250.000000 -250.000000 0.000000
vt 0.000000 0.000000
vt 5.006246 0.000000
vt 4.993762 0.249688
vn 1.000000 0.000000 0.000000
vn 1.000000 0.000000 0.000000
vn 1.000000 0.000000 0.000000
f 25/25/25 26/26/26 27/27/27
v 250.000000 250.000000 0.000000
v 250.000000 250.000000 25.000000
v 250.000000 -250.000000 25.000000
vt 0.000000 0.000000
vt 0.250000 0.000000
vt 0.250000 5.000000
vn 1.000000 0.000000 -0.000000
vn 1.000000 0.000000 -0.000000
vn 1.000000 0.000000 -0.000000
f 28/28/28 29/29/29 30/30/30
v -250.000000 -250.000000 0.000000
v -250.000000 250.000000 25.000000
v -250.000000 250.000000 0.000000
vt 0.000000 0.000000
vt 5.006246 0.000000
vt 4.993762 0.249688
vn -1.000000 0.000000 0.000000
vn -1.000000 0.000000 0.000000
vn -1.000000 0.000000 0.000000
f 31/31/31 32/32/32 33/33/33
v -250.000000 -250.000000 0.000000
v -250.000000 -250.000000 25.000000
v -250.000000 250.000000 25.000000
vt 0.000000 0.000000
vt 0.250000 0.000000
vt 0.250000 5.000000
vn -1.000000 0.000000 0.000000
vn -1.000000 0.000000 0.000000
vn -1.000000 0.000000 0.000000
f 34/34/34 35/35/35 36/36/36
g step_E_02
v -250.000000 250.000000 25.000000
v 225.000000 250.000000 25.000000
v 225.000000 -250.000000 25.000000
vt 0.000000 0.000000
vt 4.750000 0.000000
vt 4.750000 5.000000
vn 0.000000 0.000000 -1.000000
vn 0.000000 0.000000 -1.000000
vn 0.000000 0.000000 -1.000000
f 37/37/37 38/38/38 39/39/39
v -250.000000 250.000000 25.000000
v 225.000000 -250.000000 25.000000
v -250.000000 -250.000000 25.000000
vt 0.000000 0.000000
vt 6.896557 0.000000
vt 3.624997 3.443747
vn 0.000000 0.000000 -1.000000
vn 0.000000 0.000000 -1.000000
vn 0.000000 0.000000 -1.000000
f 40/40/40 41/41/41 42/42/42
v -250.000000 250.000000 50.000000
v 225.000000 -250.000000 50.000000
v 225.000000 250.000000 50.000000
vt 0.000000 0.000000
vt 6.896557 0.000000
vt 3.271560 3.443747
vn -0.000000 0.000000 1.000000
vn -0.000000 0.000000 1.000000
vn -0.000000 0.000000 1.000000
f 43/43/43 44/44/44 45/45/45
v -250.000000 250.000000 50.000000
v -250.000000 -250.000000 50.000000
v 225.000000 -250.000000 50.000000
vt 0.000000 0.000000
vt 5.000000 0.000000
vt 5.000000 4.750000
vn 0.000000 0.000000 1.000000
vn 0.000000 0.000000 1.000000
vn 0.000000 0.000000 1.000000
f 46/46/46 47/47/47 48/48/48
v -250.000000 250.000000 25.000000
v 225.000000 250.000000 50.000000
v 225.000000 250.000000 25.000000
vt 0.000000 0.000000
vt 4.756574 0.000000
vt 4.743435 0.249654
vn 0.000000 1.000000 0.000000
vn 0.000000 1.000000 0.000000
vn 0.000000 1.000000 0.000000
f 49/49/49 50/50/50 51/51/51
v -250.000000 250.000000 25.000000
v -250.000000 250.000000 50.000000
v 225.000000 250.000000 50.000000
vt 0.000000 0.000000
vt 0.250000 0.000000
vt 0.250000 4.750000
vn 0.000000 1.000000 0.000000
vn 0.000000 1.000000 0.000000
vn 0.000000 1.000000 0.000000
f 52/52/52 53/53/53 54/54/54
v 225.000000 -250.000000 25.000000
v -250.000000 -250.000000 50.000000
v -250.000000 -250.000000 25.000000
vt 0.000000 0.000000
vt 4.756574 0.000000
vt 4.743435 0.249654
vn 0.000000 -1.000000 0.000000
vn 0.000000 -1.000000 0.000000
vn 0.000000 -1.000000 0.000000
f 55/55/55 56/56/56 57/57/57
v 225.000000 -250.000000 25.000000
v 225.000000 -250.000000 50.000000
v -250.000000 -250.000000 50.000000
vt 0.000000 0.000000
vt 0.250000 0.000000
vt 0.250000 4.750000
vn 0.000000 -1.000000 0.000000
vn 0.000000 -1.000000 0.000000
vn 0.000000 -1.000000 0.000000
f 58/58/58 59/59/59 60/60/60
v 225.000000 250.000000 25.000000
v 225.000000 -250.000000 50.000000
v 225.000000 -250.000000 25.000000
vt 0.000000 0.000000
vt 5.006246 0.000000
vt 4.993762 0.249688
vn 1.000000 0.000000 0.000000
vn 1.000000 0.000000 0.000000
vn 1.000000 0.000000 0.000000
f 61/61/61 62/62/62 63/63/63
v 225.000000 250.000000 25.000000
v 225.000000 250.000000 50.000000
v 225.000000 -250.000000 50.000000
vt 0.000000 0.000000
vt 0.250000 0.000000
vt 0.250000 5.000000
vn 1.000000 0.000000 -0.000000
vn 1.000000 0.000000 -0.000000
vn 1.000000 0.000000 -0.000000
f 64/64/64 65/65/65 66/66/66
v -250.000000 -250.000000 25.000000
v -250.000000 250.000000 50.000000
v -250.000000 250.000000 25.000000
vt 0.000000 0.000000
vt 5.006246 0.000000
vt 4.993762 0.249688
vn -1.000000 0.000000 0.000000
vn -1.000000 0.000000 0.000000
vn -1.000000 0.000000 0.000000
f 67/67/67 68/68/68 69/69/69
v -250.000000 -250.000000 25.000000
v -250.000000 -250.000000 50.000000
v -250.000000 250.000000 50.000000
vt 0.000000 0.000000
vt 0.250000 0.000000
vt 0.250000 5.000000
vn -1.000000 0.000000 0.000000
vn -1.000000 0.000000 0.000000
vn -1.000000 0.000000 0.000000
f 70/70/70 71/71/71 72/72/72
g step_E_03
v -250.000000 250.000000 50.000000
v 200.000000 250.000000 50.000000
v 200.000000 -250.000000 50.000000
vt 0.000000 0.000000
vt 4.500000 0.000000
vt 4.500000 5.000000
vn 0.000000 0.000000 -1.000000
vn 0.000000 0.000000 -1.000000
vn 0.000000 0.000000 -1.000000
f 73/73/73 74/74/74 75/75/75
v -250.000000 250.000000 50.000000
v 200.000000 -250.000000 50.000000
v -250.000000 -250.000000 50.000000
vt 0.000000 0.000000
vt 6.726812 0.000000
vt 3.716471 3.344824
vn 0.000000 0.000000 -1.000000
vn 0.000000 0.000000 -1.000000
vn 0.000000 0.000000 -1.000000
f 76/76/76 77/77/77 78/78/78
v -250.000000 250.000000 75.000000
v 200.000000 -250.000000 75.000000
v 200.000000 250.000000 75.000000
vt 0.000000 0.000000
vt 6.726812 0.000000
vt 3.010341 3.344824
vn -0.000000 0.000000 1.000000
vn -0.000000 0.000000 1.000000
vn -0.000000 0.000000 1.000000
f 79/79/79 80/80/80 81/81/81
v -250.000000 250.000000 75.000000
v -250.000000 -250.000000 75.000000
v 200.000000 -250.000000 75.000000
vt 0.000000 0.000000
vt 5.000000 0.000000
vt 5.000000 4.500000
vn 0.000000 0.000000 1.000000
vn 0.000000 0.000000 1.000000
vn 0.000000 0.000000 1.000000
f 82/82/82 83/83/83 84/84/84
v -250.000000 250.000000 50.000000
v 200.000000 250.000000 75.000000
v 200.000000 250.000000 50.000000
vt 0.000000 0.000000
vt 4.506939 0.000000
vt 4.493072 0.249615
vn 0.000000 1.000000 0.000000
vn 0.000000 1.000000 0.000000
vn 0.000000 1.000000 0.000000
f 85/85/85 86/86/86 87/87/87
v -250.000000 250.000000 50.000000
v -250.000000 250.000000 75.000000
v 200.000000 250.000000 75.000000
vt 0.000000 0.000000
vt 0.250000 0.000000
vt 0.250000 4.500000
vn 0.000000 1.000000 0.000000
vn 0.000000 1.000000 0.000000
vn 0.000000 1.000000 0.000000
f 88/88/88 89/89/89 90/90/90
v 200.000000 -250.000000 50.000000
v -250.000000 -250.000000 75.000000
v -250.000000 -250.000000 50.000000
vt 0.000000 0.000000
vt 4.506939 0.000000
vt 4.493072 0.249615
vn 0.000000 -1.000000 0.000000
vn 0.000000 -1.000000 0.000000
vn 0.000000 -1.000000 0.000000
f 91/91/91 92/92/92 93/93/93
v 200.000000 -250.000000 50.000000
v 200.000000 -250.000000 75.000000
v -250.000000 -250.000000 75.000000
vt 0.000000 0.000000
vt 0.250000 0.000000
vt 0.250000 4.500000
vn 0.000000 -1.000000 0.000000
vn 0.000000 -1.000000 0.000000
vn 0.000000 -1.000000 0.000000
f 94/94/94 95/95/95 96/96/96
v 200.000000 250.000000 50.000000
v 200.000000 -250.000000 75.000000
v 200.000000 -250.000000 50.000000
vt 0.000000 0.000000
vt 5.006246 0.000000
vt 4.993762 0.249688
vn 1.000000 0.000000 0.000000
vn 1.000000 0.000000 0.000000
vn 1.000000 0.000000 0.000000
f 97/97/97 98/98/98 99/99/99
v 200.000000 250.000000 50.000000
v 200.000000 250.000000 75.000000
v 200.000000 -250.000000 75.000000
vt 0.000000 0.000000
vt 0.250000 0.000000
vt 0.250000 5.000000
vn 1.000000 0.000000 -0.000000
vn 1.000000 0.000000 -0.000000
vn 1.000000 0.000000 -0.000000
f 100/100/100 101/101/101 102/102/102
v -250.000000 -250.000000 50.000000
v -250.000000 250.000000 75.000000
v -250.000000 250.000000 50.000000
vt 0.000000 0.000000
vt 5.006246 0.000000
vt 4.993762 0.249688
vn -1.000000 0.000000 0.000000
vn -1.000000 0.000000 0.000000
vn -1.000000 0.000000 0.000000
f 103/103/103 104/104/104 105/105/105
v -250.000000 -250.000000 50.000000
v -250.000000 -250.000000 75.000000
v -250.000000 250.000000 75.000000
vt 0.000000 0.000000
vt 0.250000 0.000000
vt 0.250000 5.000000
vn -1.000000 0.000000 0.000000
vn -1.000000 0.000000 0.000000
vn -1.000000 0.000000 0.000000
f 106/106/106 107/107/107 108/108/108
g step_E_04
v -250.000000 250.000000 75.000000
v 175.000000 250.000000 75.000000
v 175.000000 -250.000000 75.000000
vt 0.000000 0.000000
vt 4.250000 0.000000
vt 4.250000 5.000000
vn 0.000000 0.000000 -1.000000
vn 0.000000 0.000000 -1.000000
vn 0.000000 0.000000 -1.000000
f 109/109/109 110/110/110 111/111/111
v -250.000000 250.000000 75.000000
v 175.000000 -250.000000 75.000000
v -250.000000 -250.000000 75.000000
vt 0.000000 0.000000
vt 6.562202 0.000000
vt 3.809697 3.238242
vn 0.000000 0.000000 -1.000000
vn 0.000000 0.000000 -1.000000
vn 0.000000 0.000000 -1.000000
f 112/112/112 113/113/113 114/114/114
v -250.000000 250.000000 100.000000
v 175.000000 -250.000000 100.000000
v 175.000000 250.000000 100.000000
vt 0.000000 0.000000
vt 6.562202 0.000000
vt 2.752506 3.238242
vn -0.000000 0.000000 1.000000
vn -0.000000 0.000000 1.000000
vn -0.000000 0.000000 1.000000
f 115/115/115 116/116/116 117/117/117
v -250.000000 250.000000 100.000000
v -250.000000 -250.000000 100.000000
v 175.000000 -250.000000 100.000000
vt 0.000000 0.000000
vt 5.000000 0.000000
vt 5.000000 4.250000
vn 0.000000 0.000000 1.000000
vn 0.000000 0.000000 1.000000
vn 0.000000 0.000000 1.000000
f 118/118/118 119/119/119 120/120/120
v -250.000000 250.000000 75.000000
v 175.000000 250.000000 100.000000
v 175.000000 250.000000 75.000000
vt 0.000000 0.000000
vt 4.257347 0.000000
vt 4.242666 0.249569
vn 0.000000 1.000000 0.000000
vn 0.000000 1.000000 0.000000
vn 0.000000 1.000000 0.000000
f 121/121/121 122/122/122 123/123/123
v -250.000000 250.000000 75.000000
v -250.000000 250.000000 100.000000
v 175.000000 250.000000 100.000000
vt 0.000000 0.000000
vt 0.250000 0.000000
vt 0.250000 4.250000
vn 0.000000 1.000000 0.000000
vn 0.000000 1.000000 0.000000
vn 0.000000 1.000000 0.000000
f 124/124/124 125/125/125 126/126/126
v 175.000000 -250.000000 75.000000
v -250.000000 -250.000000 100.000000
v -250.000000 -250.000000 75.000000
vt 0.000000 0.000000
vt 4.257347 0.000000
vt 4.242666 0.249569
vn 0.000000 -1.000000 0.000000
vn 0.000000 -1.000000 0.000000
vn 0.000000 -1.000000 0.000000
f 127/127/127 128/128/128 129/129/129
v 175.000000 -250.000000 75.000000
v 175.000000 -250.000000 100.000000
v -250.000000 -250.000000 100.000000
vt 0.000000 0.000000
vt 0.250000 0.000000
vt 0.250000 4.250000
vn 0.000000 -1.000000 0.000000
vn 0.000000 -1.000000 0.000000
vn 0.000000 -1.000000 0.000000
f 130/130/130 131/131/131 132/132/132
v 175.000000 250.000000 75.000000
v 175.000000 -250.000000 100.000000
v 175.000000 -250.000000 75.000000
vt 0.000000 0.000000
vt 5.006246 0.000000
vt 4.993762 0.249688
vn 1.000000 0.000000 0.000000
vn 1.000000 0.000000 0.000000
vn 1.000000 0.000000 0.000000
f 133/133/133 134/134/134 135/135/135
v 175.000000 250.000000 75.000000
v 175.000000 250.000000 100.000000
v 175.000000 -250.000000 100.000000
vt 0.000000 0.000000
vt 0.250000 0.000000
vt 0.250000 5.000000
vn 1.000000 0.000000 -0.000000
vn 1.000000 0.000000 -0.000000
vn 1.000000 0.000000 -0.000000
f 136/136/136 137/137/137 138/138/138
v -250.000000 -250.000000 75.000000
v -250.000000 250.000000 100.000000
v -250.000000 250.000000 75.000000
vt 0.000000 0.000000
vt 5.006246 0.000000
vt 4.993762 0.249688
vn -1.000000 0.000000 0.000000
vn -1.000000 0.000000 0.000000
vn -1.000000 0.000000 0.000000
f 139/139/139 140/140/140 141/141/141
v -250.000000 -250.000000 75.000000
v -250.000000 -250.000000 100.000000
v -250.000000 250.000000 100.000000
vt 0.000000 0.000000
vt 0.250000 0.000000
vt 0.250000 5.000000
vn -1.000000 0.000000 0.000000
vn -1.000000 0.000000 0.000000
vn -1.000000 0.000000 0.000000
f 142/142/142 143/143/143 144/144/144
g step_E_05
v -250.000000 250.000000 100.000000
v 150.000000 250.000000 100.000000
v 150.000000 -250.000000 100.000000
vt 0.000000 0.000000
vt 4.000000 0.000000
vt 4.000000 5.000000
vn 0.000000 0.000000 -1.000000
vn 0.000000 0.000000 -1.000000
vn 0.000000 0.000000 -1.000000
f 145/145/145 146/146/146 147/147/147
v -250.000000 250.000000 100.000000
v 150.000000 -250.000000 100.000000
v -250.000000 -250.000000 100.000000
vt 0.000000 0.000000
vt 6.403124 0.000000
vt 3.904344 3.123475
vn 0.000000 0.000000 -1.000000
vn 0.000000 0.000000 -1.000000
vn 0.000000 0.000000 -1.000000
f 148/148/148 149/149/149 150/150/150
v -250.000000 250.000000 125.000000
v 150.000000 -250.000000 125.000000
v 150.000000 250.000000 125.000000
vt 0.000000 0.000000
vt 6.403124 0.000000
vt 2.498780 3.123475
vn -0.000000 0.000000 1.000000
vn -0.000000 0.000000 1.000000
vn -0.000000 0.000000 1.000000
f 151/151/151 152/152/152 153/153/153
v -250.000000 250.000000 125.000000
v -250.000000 -250.000000 125.000000
v 150.000000 -250.000000 125.000000
vt 0.000000 0.000000
vt 5.000000 0.000000
vt 5.000000 4.000000
vn 0.000000 0.000000 1.000000
vn 0.000000 0.000000 1.000000
vn 0.000000 0.000000 1.000000
f 154/154/154 155/155/155 156/156/156
v -250.000000 250.000000 100.000000
v 150.000000 250.000000 125.000000
v 150.000000 250.000000 100.000000
vt 0.000000 0.000000
vt 4.007805 0.000000
vt 3.992210 0.249513
vn 0.000000 1.000000 0.000000
vn 0.000000 1.000000 0.000000
vn 0.000000 1.000000 0.000000
f 157/157/157 158/158/158 159/159/159
v -250.000000 250.000000 100.000000
v -250.000000 250.000000 125.000000
v 150.000000 250.000000 125.000000
vt 0.000000 0.000000
vt 0.250000 0.000000
vt 0.250000 4.000000
vn 0.000000 1.000000 0.000000
vn 0.000000 1.000000 0.000000
vn 0.000000 1.000000 0.000000
f 160/160/160 161/161/161 162/162/162
v 150.000000 -250.000000 100.000000
v -250.000000 -250.000000 125.000000
v -250.000000 -250.000000 100.000000
vt 0.000000 0.000000
vt 4.007805 0.000000
vt 3.992210 0.249513
vn 0.000000 -1.000000 0.000000
vn 0.000000 -1.000000 0.000000
vn 0.000000 -1.000000 0.000000
f 163/163/163 164/164/164 165/165/165
v 150.000000 -250.000000 100.000000
v 150.000000 -250.000000 125.000000
v -250.000000 -250.000000 125.000000
vt 0.000000 0.000000
vt 0.250000 0.000000
vt 0.250000 4.000000
vn 0.000000 -1.000000 0.000000
vn 0.000000 -1.000000 0.000000
vn 0.000000 -1.000000 0.000000
f 166/166/166 167/167/167 168/168/168
v 150.000000 250.000000 100.000000
v 150.000000 -250.000000 125.000000
v 150.000000 -250.000000 100.000000
vt 0.000000 0.000000
vt 5.006246 0.000000
vt 4.993762 0.249688
vn 1.000000 0.000000 0.000000
vn 1.000000 0.000000 0.000000
vn 1.000000 0.000000 0.000000
f 169/169/169 170/170/170 171/171/171
v 150.000000 250.000000 100.000000
v 150.000000 250.000000 125.000000
v 150.000000 -250.000000 125.000000
vt 0.000000 0.000000
vt 0.250000 0.000000
vt 0.250000 5.000000
vn 1.000000 0.000000 -0.000000
vn 1.000000 0.000000 -0.000000
vn 1.000000 0.000000 -0.000000
f 172/172/172 173/173/173 174/174/174
v -250.000000 -250.000000 100.000000
v -250.000000 250.000000 125.000000
v -250.000000 250.000000 100.000000
vt 0.000000 0.000000
vt 5.006246 0.000000
vt 4.993762 0.249688
vn -1.000000 0.000000 0.000000
vn -1.000000 0.000000 0.000000
vn -1.000000 0.000000 0.000000
f 175/175/175 176/176/176 177/177/177
v -250.000000 -250.000000 100.000000
v -250.000000 -250.000000 125.000000
v -250.000000 250.000000 125.000000
vt 0.000000 0.000000
vt 0.250000 0.000000
vt 0.250000 5.000000
vn -1.000000 0.000000 0.000000
vn -1.000000 0.000000 0.000000
vn -1.000000 0.000000 0.000000
f 178/178/178 179/179/179 180/180/180
g step_E_06
v -250.000000 250.000000 125.000000
v 125.000000 250.000000 125.000000
v 125.000000 -250.000000 125.000000
vt 0.000000 0.000000
vt 3.750000 0.000000
vt 3.750000 5.000000
vn 0.000000 0.000000 -1.000000
vn 0.000000 0.000000 -1.000000
vn 0.000000 0.000000 -1.000000
f 181/181/181 182/182/182 183/183/183
v -250.000000 250.000000 125.000000
v 125.000000 -250.000000 125.000000
v -250.000000 -250.000000 125.000000
vt 0.000000 0.000000
vt 6.250000 0.000000
vt 4.000000 3.000000
vn 0.000000 0.000000 -1.000000
vn 0.000000 0.000000 -1.000000
vn 0.000000 0.000000 -1.000000
f 184/184/184 185/185/185 186/186/186
v -250.000000 250.000000 150.000000
v 125.000000 -250.000000 150.000000
v 125.000000 250.000000 150.000000
vt 0.000000 0.000000
vt 6.250000 0.000000
vt 2.250000 3.000000
vn -0.000000 0.000000 1.000000
vn -0.000000 0.000000 1.000000
vn -0.000000 0.000000 1.000000
f 187/187/187 188/188/188 189/189/189
v -250.000000 250.000000 150.000000
v -250.000000 -250.000000 150.000000
v 125.000000 -250.000000 150.000000
vt 0.000000 0.000000
vt 5.000000 0.000000
vt 5.000000 3.750000
vn 0.000000 0.000000 1.000000
vn 0.000000 0.000000 1.000000
vn 0.000000 0.000000 1.000000
f 190/190/190 191/191/191 192/192/192
v -250.000000 250.000000 125.000000
v 125.000000 250.000000 150.000000
v 125.000000 250.000000 125.000000
vt 0.000000 0.000000
vt 3.758324 0.000000
vt 3.741694 0.249446
vn 0.000000 1.000000 0.000000
vn 0.000000 1.000000 0.000000
vn 0.000000 1.000000 0.000000
f 193/193/193 194/194/194 195/195/195
v -250.000000 250.000000 125.000000
v -250.000000 250.000000 150.000000
v 125.000000 250.000000 150.000000
vt 0.000000 0.000000
vt 0.250000 0.000000
vt 0.250000 3.750000
vn 0.000000 1.000000 0.000000
vn 0.000000 1.000000 0.000000
vn 0.000000 1.000000 0.000000
f 196/196/196 197/197/197 198/198/198
v 125.000000 -250.000000 125.000000
v -250.000000 -250.000000 150.000000
v -250.000000 -250.000000 125.000000
vt 0.000000 0.000000
vt 3.758324 0.000000
vt 3.741694 0.249446
vn 0.000000 -1.000000 0.000000
vn 0.000000 -1.000000 0.000000
vn 0.000000 -1.000000 0.000000
f 199/199/199 200/200/200 201/201/201
v 125.000000 -250.000000 125.000000
v 125.000000 -250.000000 150.000000
v -250.000000 -250.000000 150.000000
vt 0.000000 0.000000
vt 0.250000 0.000000
vt 0.250000 3.750000
vn 0.000000 -1.000000 0.000000
vn 0.000000 -1.000000 0.000000
vn 0.000000 -1.000000 0.000000
f 202/202/202 203/203/203 204/204/204
v 125.000000 250.000000 125.000000
v 125.000000 -250.000000 150.000000
v 125.000000 -250.000000 125.000000
vt 0.000000 0.000000
vt 5.006246 0.000000
vt 4.993762 0.249688
vn 1.000000 0.000000 0.000000
vn 1.000000 0.000000 0.000000
vn 1.000000 0.000000 0.000000
f 205/205/205 206/206/206 207/207/207
v 125.000000 250.000000 125.000000
v 125.000000 250.000000 150.000000
v 125.000000 -250.000000 150.000000
vt 0.000000 0.000000
vt 0.250000 0.000000
vt 0.250000 5.000000
vn 1.000000 0.000000 -0.000000
vn 1.000000 0.000000 -0.000000
vn 1.000000 0.000000 -0.000000
f 208/208/208 209/209/209 210/210/210
v -250.000000 -250.000000 125.000000
v -250.000000 250.000000 150.000000
v -250.000000 250.000000 125.000000
vt 0.000000 0.000000
vt 5.006246 0.000000
vt 4.993762 0.249688
vn -1.000000 0.000000 0.000000
vn -1.000000 0.000000 0.000000
vn -1.000000 0.000000 0.000000
f 211/211/211 212/212/212 213/213/213
v -250.000000 -250.000000 125.000000
v -250.000000 -250.000000 150.000000
v -250.000000 250.000000 150.000000
vt 0.000000 0.000000
vt 0.250000 0.000000
vt 0.250000 5.000000
vn -1.000000 0.000000 0.000000
vn -1.000000 0.000000 0.000000
vn -1.000000 0.000000 0.000000
f 214/214/214 215/215/215 216/216/216
g step_E_07
v -250.000000 250.000000 150.000000
v 100.000000 250.000000 150.000000
v 100.000000 -250.000000 150.000000
vt 0.000000 0.000000
vt 3.500000 0.000000
vt 3.500000 5.000000
vn 0.000000 0.000000 -1.000000
vn 0.000000 0.000000 -1.000000
vn 0.000000 0.000000 -1.000000
f 217/217/217 218/218/218 219/219/219
v -250.000000 250.000000 150.000000
v 100.000000 -250.000000 150.000000
v -250.000000 -250.000000 150.000000
vt 0.000000 0.000000
vt 6.103278 0.000000
vt 4.096160 2.867312
vn 0.000000 0.000000 -1.000000
vn 0.000000 0.000000 -1.000000
vn 0.000000 0.000000 -1.000000
f 220/220/220 221/221/221 222/222/222
v -250.000000 250.000000 175.000000
v 100.000000 -250.000000 175.000000
v 100.000000 250.000000 175.000000
vt 0.000000 0.000000
vt 6.103278 0.000000
vt 2.007118 2.867312
vn -0.000000 0.000000 1.000000
vn -0.000000 0.000000 1.000000
vn -0.000000 0.000000 1.000000
f 223/223/223 224/224/224 225/225/225
v -250.000000 250.000000 175.000000
v -250.000000 -250.000000 175.000000
v 100.000000 -250.000000 175.000000
vt 0.000000 0.000000
vt 5.000000 0.000000
vt 5.000000 3.500000
vn 0.000000 0.000000 1.000000
vn 0.000000 0.000000 1.000000
vn 0.000000 0.000000 1.000000
f 226/226/226 227/227/227 228/228/228
v -250.000000 250.000000 150.000000
v 100.000000 250.000000 175.000000
v 100.000000 250.000000 150.000000
vt 0.000000 0.000000
vt 3.508917 0.000000
vt 3.491105 0.249365
vn 0.000000 1.000000 0.000000
vn 0.000000 1.000000 0.000000
vn 0.000000 1.000000 0.000000
f 229/229/229 230/230/230 231/231/231
v -250.000000 250.000000 150.000000
v -250.000000 250.000000 175.000000
v 100.000000 250.000000 175.000000
vt 0.000000 0.000000
vt 0.250000 0.000000
vt 0.250000 3.500000
vn 0.000000 1.000000 0.000000
vn 0.000000 1.000000 0.000000
vn 0.000000 1.000000 0.000000
f 232/232/232 233/233/233 234/234/234
v 100.000000 -250.000000 150.000000
v -250.000000 -250.000000 175.000000
v -250.000000 -250.000000 150.000000
vt 0.000000 0.000000
vt 3.508917 0.000000
vt 3.491105 0.249365
vn 0.000000 -1.000000 0.000000
vn 0.000000 -1.000000 0.000000
vn 0.000000 -1.000000 0.000000
f 235/235/235 236/236/236 237/237/237
v 100.000000 -250.000000 150.000000
v 100.000000 -250.000000 175.000000
v -250.000000 -250.000000 175.000000
vt 0.000000 0.000000
vt 0.250000 0.000000
vt 0.250000 3.500000
vn 0.000000 -1.000000 0.000000
vn 0.000000 -1.000000 0.000000
vn 0.000000 -1.000000 0.000000
f 238/238/238 239/239/239 240/240/240
v 100.000000 250.000000 150.000000
v 100.000000 -250.000000 175.000000
v 100.000000 -250.000000 150.000000
vt 0.000000 0.000000
vt 5.006246 0.000000
vt 4.993762 0.249688
vn 1.000000 0.000000 0.000000
vn 1.000000 0.000000 0.000000
vn 1.000000 0.000000 0.000000
f 241/241/241 242/242/242 243/243/243
v 100.000000 250.000000 150.000000
v 100.000000 250.000000 175.000000
v 100.000000 -250.000000 175.000000
vt 0.000000 0.000000
vt 0.250000 0.000000
vt 0.250000 5.000000
vn 1.000000 0.000000 -0.000000
vn 1.000000 0.000000 -0.000000
vn 1.000000 0.000000 -0.000000
f 244/244/244 245/245/245 246/246/246
v -250.000000 -250.000000 150.000000
v -250.000000 250.000000 175.000000
v -250.000000 250.000000 150.000000
vt 0.000000 0.000000
vt 5.006246 0.000000
vt 4.993762 0.249688
vn -1.000000 0.000000 0.000000
vn -1.000000 0.000000 0.000000
vn -1.000000 0.000000 0.000000
f 247/247/247 248/248/248 249/249/249
v -250.000000 -250.000000 150.000000
v -250.000000 -250.000000 175.000000
v -250.000000 250.000000 175.000000
vt 0.000000 0.000000
vt 0.250000 0.000000
vt 0.250000 5.000000
vn -1.000000 0.000000 0.000000
vn -1.000000 0.000000 0.000000
vn -1.000000 0.000000 0.000000
f 250/250/250 251/251/251 252/252/252
g step_E_08
v -250.000000 250.000000 175.000000
v 75.000000 250.000000 175.000000
v 75.000000 -250.000000 175.000000
vt 0.000000 0.000000
vt 3.250000 0.000000
vt 3.250000 5.000000
vn 0.000000 0.000000 -1.000000
vn 0.000000 0.000000 -1.000000
vn 0.000000 0.000000 -1.000000
f 253/253/253 254/254/254 255/255/255
v -250.000000 250.000000 175.000000
v 75.000000 -250.000000 175.000000
v -250.000000 -250.000000 175.000000
vt 0.000000 0.000000
vt 5.963430 0.000000
vt 4.192218 2.724942
vn 0.000000 0.000000 -1.000000
vn 0.000000 0.000000 -1.000000
vn 0.000000 0.000000 -1.000000
f 256/256/256 257/257/257 258/258/258
v -250.000000 250.000000 200.000000
v 75.000000 -250.000000 200.000000
v 75.000000 250.000000 200.000000
vt 0.000000 0.000000
vt 5.963430 0.000000
vt 1.771212 2.724942
vn -0.000000 0.000000 1.000000
vn -0.000000 0.000000 1.000000
vn -0.000000 0.000000 1.000000
f 259/259/259 260/260/260 261/261/261
v -250.000000 250.000000 200.000000
v -250.000000 -250.000000 200.000000
v 75.000000 -250.000000 200.000000
vt 0.000000 0.000000
vt 5.000000 0.000000
vt 5.000000 3.250000
vn 0.000000 0.000000 1.000000
vn 0.000000 0.000000 1.000000
vn 0.000000 0.000000 1.000000
f 262/262/262 263/263/263 264/264/264
v -250.000000 250.000000 175.000000
v 75.000000 250.000000 200.000000
v 75.000000 250.000000 175.000000
vt 0.000000 0.000000
vt 3.259601 0.000000
vt 3.240427 0.249264
vn 0.000000 1.000000 0.000000
vn 0.000000 1.000000 0.000000
vn 0.000000 1.000000 0.000000
f 265/265/265 266/266/266 267/267/267
v -250.000000 250.000000 175.000000
v -250.000000 250.000000 200.000000
v 75.000000 250.000000 200.000000
vt 0.000000 0.000000
vt 0.250000 0.000000
vt 0.250000 3.250000
vn 0.000000 1.000000 0.000000
vn 0.000000 1.000000 0.000000
vn 0.000000 1.000000 0.000000
f 268/268/268 269/269/269 270/270/270
v 75.000000 -250.000000 175.000000
v -250.000000 -250.000000 200.000000
v -250.000000 -250.000000 175.000000
vt 0.000000 0.000000
vt 3.259601 0.000000
vt 3.240427 0.249264
vn 0.000000 -1.000000 0.000000
vn 0.000000 -1.000000 0.000000
vn 0.000000 -1.000000 0.000000
f 271/271/271 272/272/272 273/273/273
v 75.000000 -250.000000 175.000000
v 75.000000 -250.000000 200.000000
v -250.000000 -250.000000 200.000000
vt 0.000000 0.000000
vt 0.250000 0.000000
vt 0.250000 3.250000
vn 0.000000 -1.000000 0.000000
vn 0.000000 -1.000000 0.000000
vn 0.000000 -1.000000 0.000000
f 274/274/274 275/275/275 276/276/276
v 75.000000 250.000000 175.000000
v 75.000000 -250.000000 200.000000
v 75.000000 -250.000000 175.000000
vt 0.000000 0.000000
vt 5.006246 0.000000
vt 4.993762 0.249688
vn 1.000000 0.000000 0.000000
vn 1.000000 0.000000 0.000000
vn 1.000000 0.000000 0.000000
f 277/277/277 278/278/278 279/279/279
v 75.000000 250.000000 175.000000
v 75.000000 250.000000 200.000000
v 75.000000 -250.000000 200.000000
vt 0.000000 0.000000
vt 0.250000 0.000000
vt 0.250000 5.000000
vn 1.000000 0.000000 -0.000000
vn 1.000000 0.000000 -0.000000
vn 1.000000 0.000000 -0.000000
f 280/280/280 281/281/281 282/282/282
v -250.000000 -250.000000 175.000000
v -250.000000 250.000000 200.000000
v -250.000000 250.000000 175.000000
vt 0.000000 0.000000
vt 5.006246 0.000000
vt 4.993762 0.249688
vn -1.000000 0.000000 0.000000
vn -1.000000 0.000000 0.000000
vn -1.000000 0.000000 0.000000
f 283/283/283 284/284/284 285/285/285
v -250.000000 -250.000000 175.000000
v -250.000000 -250.000000 200.000000
v -250.000000 250.000000 200.000000
vt 0.000000 0.000000
vt 0.250000 0.000000
vt 0.250000 5.000000
vn -1.000000 0.000000 0.000000
vn -1.000000 0.000000 0.000000
vn -1.000000 0.000000 0.000000
f 286/286/286 287/287/287 288/288/288
g step_E_09
v -250.000000 250.000000 200.000000
v 50.000000 250.000000 200.000000
v 50.000000 -250.000000 200.000000
vt 0.000000 0.000000
vt 3.000000 0.000000
vt 3.000000 5.000000
vn 0.000000 0.000000 -1.000000
vn 0.000000 0.000000 -1.000000
vn 0.000000 0.000000 -1.000000
f 289/289/289 290/290/290 291/291/291
v -250.000000 250.000000 200.000000
v 50.000000 -250.000000 200.000000
v -250.000000 -250.000000 200.000000
vt 0.000000 0.000000
vt 5.830952 0.000000
vt 4.287465 2.572479
vn 0.000000 0.000000 -1.000000
vn 0.000000 0.000000 -1.000000
vn 0.000000 0.000000 -1.000000
f 292/292/292 293/293/293 294/294/294
v -250.000000 250.000000 225.000000
v 50.000000 -250.000000 225.000000
v 50.000000 250.000000 225.000000
vt 0.000000 0.000000
vt 5.830952 0.000000
vt 1.543487 2.572479
vn -0.000000 0.000000 1.000000
vn -0.000000 0.000000 1.000000
vn -0.000000 0.000000 1.000000
f 295/295/295 296/296/296 297/297/297
v -250.000000 250.000000 225.000000
v -250.000000 -250.000000 225.000000
v 50.000000 -250.000000 225.000000
vt 0.000000 0.000000
vt 5.000000 0.000000
vt 5.000000 3.000000
vn 0.000000 0.000000 1.000000
vn 0.000000 0.000000 1.000000
vn 0.000000 0.000000 1.000000
f 298/298/298 299/299/299 300/300/300
v -250.000000 250.000000 200.000000
v 50.000000 250.000000 225.000000
v 50.000000 250.000000 200.000000
vt 0.000000 0.000000
vt 3.010399 0.000000
vt 2.989637 0.249136
vn 0.000000 1.000000 0.000000
vn 0.000000 1.000000 0.000000
vn 0.000000 1.000000 0.000000
f 301/301/301 302/302/302 303/303/303
v -250.000000 250.000000 200.000000
v -250.000000 250.000000 225.000000
v 50.000000 250.000000 225.000000
vt 0.000000 0.000000
vt 0.250000 0.000000
vt 0.250000 3.000000
vn 0.000000 1.000000 0.000000
vn 0.000000 1.000000 0.000000
vn 0.000000 1.000000 0.000000
f 304/304/304 305/305/305 306/306/306
v 50.000000 -250.000000 200.000000
v -250.000000 -250.000000 225.000000
v -250.000000 -250.000000 200.000000
vt 0.000000 0.000000
vt 3.010399 0.000000
vt 2.989637 0.249136
vn 0.000000 -1.000000 0.000000
vn 0.000000 -1.000000 0.000000
vn 0.000000 -1.000000 0.000000
f 307/307/307 308/308/308 309/309/309
v 50.000000 -250.000000 200.000000
v 50.000000 -250.000000 225.000000
v -250.000000 -250.000000 225.000000
vt 0.000000 0.000000
vt 0.250000 0.000000
vt 0.250000 3.000000
vn 0.000000 -1.000000 0.000000
vn 0.000000 -1.000000 0.000000
vn 0.000000 -1.000000 0.000000
f 310/310/310 311/311/311 312/312/312
v 50.000000 250.000000 200.000000
v 50.000000 -250.000000 225.000000
v 50.000000 -250.000000 200.000000
vt 0.000000 0.000000
vt 5.006246 0.000000
vt 4.993762 0.249688
vn 1.000000 0.000000 0.000000
vn 1.000000 0.000000 0.000000
vn 1.000000 0.000000 0.000000
f 313/313/313 314/314/314 315/315/315
v 50.000000 250.000000 200.000000
v 50.000000 250.000000 225.000000
v 50.000000 -250.000000 225.000000
vt 0.000000 0.000000
vt 0.250000 0.000000
vt 0.250000 5.000000
vn 1.000000 0.000000 -0.000000
vn 1.000000 0.000000 -0.000000
vn 1.000000 0.000000 -0.000000
f 316/316/316 317/317/317 318/318/318
v -250.000000 -250.000000 200.000000
v -250.000000 250.000000 225.000000
v -250.000000 250.000000 200.000000
vt 0.000000 0.000000
vt 5.006246 0.000000
vt 4.993762 0.249688
vn -1.000000 0.000000 0.000000
vn -1.000000 0.000000 0.000000
vn -1.000000 0.000000 0.000000
f 319/319/319 320/320/320 321/321/321
v -250.000000 -250.000000 200.000000
v -250.000000 -250.000000 225.000000
v -250.000000 250.000000 225.000000
vt 0.000000 0.000000
vt 0.250000 0.000000
vt 0.250000 5.000000
vn -1.000000 0.000000 0.000000
vn -1.000000 0.000000 0.000000
vn -1.000000 0.000000 0.000000
f 322/322/322 323/323/323 324/324/324
g step_E_10
v -250.000000 250.000000 225.000000
v 25.000000 250.000000 225.000000
v 25.000000 -250.000000 225.000000
vt 0.000000 0.000000
vt 2.750000 0.000000
vt 2.750000 5.000000
vn 0.000000 0.000000 -1.000000
vn 0.000000 0.000000 -1.000000
vn 0.000000 0.000000 -1.000000
f 325/325/325 326/326/326 327/327/327
v -250.000000 250.000000 225.000000
v 25.000000 -250.000000 225.000000
v -250.000000 -250.000000 225.000000
vt 0.000000 0.000000
vt 5.706356 0.000000
vt 4.381080 2.409594
vn 0.000000 0.000000 -1.000000
vn 0.000000 0.000000 -1.000000
vn 0.000000 0.000000 -1.000000
f 328/328/328 329/329/329 330/330/330
v -250.000000 250.000000 250.000000
v 25.000000 -250.000000 250.000000
v 25.000000 250.000000 250.000000
vt 0.000000 0.000000
vt 5.706356 0.000000
vt 1.325277 2.409594
vn -0.000000 0.000000 1.000000
vn -0.000000 0.000000 1.000000
vn -0.000000 0.000000 1.000000
f 331/331/331 332/332/332 333/333/333
v -250.000000 250.000000 250.000000
v -250.000000 -250.000000 250.000000
v 25.000000 -250.000000 250.000000
vt 0.000000 0.000000
vt 5.000000 0.000000
vt 5.000000 2.750000
vn 0.000000 0.000000 1.000000
vn 0.000000 0.000000 1.000000
vn 0.000000 0.000000 1.000000
f 334/334/334 335/335/335 336/336/336
v -250.000000 250.000000 225.000000
v 25.000000 250.000000 250.000000
v 25.000000 250.000000 225.000000
vt 0.000000 0.000000
vt 2.761340 0.000000
vt 2.738706 0.248973
vn 0.000000 1.000000 0.000000
vn 0.000000 1.000000 0.000000
vn 0.000000 1.000000 0.000000
f 337/337/337 338/338/338 339/339/339
v -250.000000 250.000000 225.000000
v -250.000000 250.000000 250.000000
v 25.000000 250.000000 250.000000
vt 0.000000 0.000000
vt 0.250000 0.000000
vt 0.250000 2.750000
vn 0.000000 1.000000 0.000000
vn 0.000000 1.000000 0.000000
vn 0.000000 1.000000 0.000000
f 340/340/340 341/341/341 342/342/342
v 25.000000 -250.000000 225.000000
v -250.000000 -250.000000 250.000000
v -250.000000 -250.000000 225.000000
vt 0.000000 0.000000
vt 2.761340 0.000000
vt 2.738706 0.248973
vn 0.000000 -1.000000 0.000000
vn 0.000000 -1.000000 0.000000
vn 0.000000 -1.000000 0.000000
f 343/343/343 344/344/344 345/345/345
v 25.000000 -250.000000 225.000000
v 25.000000 -250.000000 250.000000
v -250.000000 -250.000000 250.000000
vt 0.000000 0.000000
vt 0.250000 0.000000
vt 0.250000 2.750000
vn 0.000000 -1.000000 0.000000
vn 0.000000 -1.000000 0.000000
vn 0.000000 -1.000000 0.000000
f 346/346/346 347/347/347 348/348/348
v 25.000000 250.000000 225.000000
v 25.000000 -250.000000 250.000000
v 25.000000 -250.000000 225.000000
vt 0.000000 0.000000
vt 5.006246 0.000000
vt 4.993762 0.249688
vn 1.000000 0.000000 0.000000
vn 1.000000 0.000000 0.000000
vn 1.000000 0.000000 0.000000
f 349/349/349 350/350/350 351/351/351
v 25.000000 250.000000 225.000000
v 25.000000 250.000000 250.000000
v 25.000000 -250.000000 250.000000
vt 0.000000 0.000000
vt 0.250000 0.000000
vt 0.250000 5.000000
vn 1.000000 0.000000 -0.000000
vn 1.000000 0.000000 -0.000000
vn 1.000000 0.000000 -0.000000
f 352/352/352 353/353/353 354/354/354
v -250.000000 -250.000000 225.000000
v -250.000000 250.000000 250.000000
v -250.000000 250.000000 225.000000
vt 0.000000 0.000000
vt 5.006246 0.000000
vt 4.993762 0.249688
vn -1.000000 0.000000 0.000000
vn -1.000000 0.000000 0.000000
vn -1.000000 0.000000 0.000000
f 355/355/355 356/356/356 357/357/357
v -250.000000 -250.000000 225.000000
v -250.000000 -250.000000 250.000000
v -250.000000 250.000000 250.000000
vt 0.000000 0.000000
vt 0.250000 0.000000
vt 0.250000 5.000000
vn -1.000000 0.000000 0.000000
vn -1.000000 0.000000 0.000000
vn -1.000000 0.000000 0.000000
f 358/358/358 359/359/359 360/360/360
g step_E_11
v -250.000000 250.000000 250.000000
v 0.000000 250.000000 250.000000
v 0.000000 -250.000000 250.000000
vt 0.000000 0.000000
vt 2.500000 0.000000
vt 2.500000 5.000000
vn 0.000000 0.000000 -1.000000
vn 0.000000 0.000000 -1.000000
vn 0.000000 0.000000 -1.000000
f 361/361/361 362/362/362 363/363/363
v -250.000000 250.000000 250.000000
v 0.000000 -250.000000 250.000000
v -250.000000 -250.000000 250.000000
vt 0.000000 0.000000
vt 5.590170 0.000000
vt 4.472136 2.236068
vn 0.000000 0.000000 -1.000000
vn 0.000000 0.000000 -1.000000
vn 0.000000 0.000000 -1.000000
f 364/364/364 365/365/365 366/366/366
v -250.000000 250.000000 275.000000
v 0.000000 -250.000000 275.000000
v 0.000000 250.000000 275.000000
vt 0.000000 0.000000
vt 5.590170 0.000000
vt 1.118034 2.236068
vn -0.000000 0.000000 1.000000
vn -0.000000 0.000000 1.000000
vn -0.000000 0.000000 1.000000
f 367/367/367 368/368/368 369/369/369
v -250.000000 250.000000 275.000000
v -250.000000 -250.000000 275.000000
v 0.000000 -250.000000 275.000000
vt 0.000000 0.000000
vt 5.000000 0.000000
vt 5.000000 2.500000
vn 0.000000 0.000000 1.000000
vn 0.000000 0.000000 1.000000
vn 0.000000 0.000000 1.000000
f 370/370/370 371/371/371 372/372/372
v -250.000000 250.000000 250.000000
v 0.000000 250.000000 275.000000
v 0.000000 250.000000 250.000000
vt 0.000000 0.000000
vt 2.512469 0.000000
vt 2.487593 0.248759
vn 0.000000 1.000000 0.000000
vn 0.000000 1.000000 0.000000
vn 0.000000 1.000000 0.000000
f 373/373/373 374/374/374 375/375/375
v -250.000000 250.000000 250.000000
v -250.000000 250.000000 275.000000
v 0.000000 250.000000 275.000000
vt 0.000000 0.000000
vt 0.250000 0.000000
vt 0.250000 2.500000
vn 0.000000 1.000000 0.000000
vn 0.000000 1.000000 0.000000
vn 0.000000 1.000000 0.000000
f 376/376/376 377/377/377 378/378/378
v 0.000000 -250.000000 250.000000
v -250.000000 -250.000000 275.000000
v -250.000000 -250.000000 250.000000
vt 0.000000 0.000000
vt 2.512469 0.000000
vt 2.487593 0.248759
vn 0.000000 -1.000000 0.000000
vn 0.000000 -1.000000 0.000000
vn 0.000000 -1.000000 0.000000
f 379/379/379 380/380/380 381/381/381
v 0.000000 -250.000000 250.000000
v 0.000000 -250.000000 275.000000
v -250.000000 -250.000000 275.000000
vt 0.000000 0.000000
vt 0.250000 0.000000
vt 0.250000 2.500000
vn 0.000000 -1.000000 0.000000
vn 0.000000 -1.000000 0.000000
vn 0.000000 -1.000000 0.000000
f 382/382/382 383/383/383 384/384/384
v 0.000000 250.000000 250.000000
v 0.000000 -250.000000 275.000000
v 0.000000 -250.000000 250.000000
vt 0.000000 0.000000
vt 5.006246 0.000000
vt 4.993762 0.249688
vn 1.000000 0.000000 0.000000
vn 1.000000 0.000000 0.000000
vn 1.000000 0.000000 0.000000
f 385/385/385 386/386/386 387/387/387
v 0.000000 250.000000 250.000000
v 0.000000 250.000000 275.000000
v 0.000000 -250.000000 275.000000
vt 0.000000 0.000000
vt 0.250000 0.000000
vt 0.250000 5.000000
vn 1.000000 0.000000 -0.000000
vn 1.000000 0.000000 -0.000000
vn 1.000000 0.000000 -0.000000
f 388/388/388 389/389/389 390/390/390
v -250.000000 -250.000000 250.000000
v -250.000000 250.000000 275.000000
v -250.000000 250.000000 250.000000
vt 0.000000 0.000000
vt 5.006246 0.000000
vt 4.993762 0.249688
vn -1.000000 0.000000 0.000000
vn -1.000000 0.000000 0.000000
vn -1.000000 0.000000 0.000000
f 391/391/391 392/392/392 393/393/393
v -250.000000 -250.000000 250.000000
v -250.000000 -250.000000 275.000000
v -250.000000 250.000000 275.000000
vt 0.000000 0.000000
vt 0.250000 0.000000
vt 0.250000 5.000000
vn -1.000000 0.000000 0.000000
vn -1.000000 0.000000 0.000000
vn -1.000000 0.000000 0.000000
f 394/394/394 395/395/395 396/396/396
g step_E_12
v -250.000000 250.000000 275.000000
v -25.000000 250.000000 275.000000
v -25.000000 -250.000000 275.000000
vt 0.000000 0.000000
vt 2.250000 0.000000
vt 2.250000 5.000000
vn 0.000000 0.000000 -1.000000
vn 0.000000 0.000000 -1.000000
vn 0.000000 0.000000 -1.000000
f 397/397/397 398/398/398 399/399/399
v -250.000000 250.000000 275.000000
v -25.000000 -250.000000 275.000000
v -250.000000 -250.000000 275.000000
vt 0.000000 0.000000
vt 5.482928 0.000000
vt 4.559608 2.051823
vn 0.000000 0.000000 -1.000000
vn 0.000000 0.000000 -1.000000
vn 0.000000 0.000000 -1.000000
f 400/400/400 401/401/401 402/402/402
v -250.000000 250.000000 300.000000
v -25.000000 -250.000000 300.000000
v -25.000000 250.000000 300.000000
vt 0.000000 0.000000
vt 5.482928 0.000000
vt 0.923321 2.051823
vn -0.000000 0.000000 1.000000
vn -0.000000 0.000000 1.000000
vn -0.000000 0.000000 1.000000
f 403/403/403 404/404/404 405/405/405
v -250.000000 250.000000 300.000000
v -250.000000 -250.000000 300.000000
v -25.000000 -250.000000 300.000000
vt 0.000000 0.000000
vt 5.000000 0.000000
vt 5.000000 2.250000
vn 0.000000 0.000000 1.000000
vn 0.000000 0.000000 1.000000
vn 0.000000 0.000000 1.000000
f 406/406/406 407/407/407 408/408/408
v -250.000000 250.000000 275.000000
v -25.000000 250.000000 300.000000
v -25.000000 250.000000 275.000000
vt 0.000000 0.000000
vt 2.263846 0.000000
vt 2.236238 0.248471
vn 0.000000 1.000000 0.000000
vn 0.000000 1.000000 0.000000
vn 0.000000 1.000000 0.000000
f 409/409/409 410/410/410 411/411/411
v -250.000000 250.000000 275.000000
v -250.000000 250.000000 300.000000
v -25.000000 250.000000 300.000000
vt 0.000000 0.000000
vt 0.250000 0.000000
vt 0.250000 2.250000
vn 0.000000 1.000000 0.000000
vn 0.000000 1.000000 0.000000
vn 0.000000 1.000000 0.000000
f 412/412/412 413/413/413 414/414/414
v -25.000000 -250.000000 275.000000
v -250.000000 -250.000000 300.000000
v -250.000000 -250.000000 275.000000
vt 0.000000 0.000000
vt 2.263846 0.000000
vt 2.236238 0.248471
vn 0.000000 -1.000000 0.000000
vn 0.000000 -1.000000 0.000000
vn 0.000000 -1.000000 0.000000
f 415/415/415 416/416/416 417/417/417
v -25.000000 -250.000000 275.000000
v -25.000000 -250.000000 300.000000
v -250.000000 -250.000000 300.000000
vt 0.000000 0.000000
vt 0.250000 0.000000
vt 0.250000 2.250000
vn 0.000000 -1.000000 0.000000
vn 0.000000 -1.000000 0.000000
vn 0.000000 -1.000000 0.000000
f 418/418/418 419/419/419 420/420/420
v -25.000000 250.000000 275.000000
v -25.000000 -250.000000 300.000000
v -25.000000 -250.000000 275.000000
vt 0.000000 0.000000
vt 5.006246 0.000000
vt 4.993762 0.249688
vn 1.000000 0.000000 0.000000
vn 1.000000 0.000000 0.000000
vn 1.000000 0.000000 0.000000
f 421/421/421 422/422/422 423/423/423
v -25.000000 250.000000 275.000000
v -25.000000 250.000000 300.000000
v -25.000000 -250.000000 300.000000
vt 0.000000 0.000000
vt 0.250000 0.000000
vt 0.250000 5.000000
vn 1.000000 0.000000 -0.000000
vn 1.000000 0.000000 -0.000000
vn 1.000000 0.000000 -0.000000
f 424/424/424 425/425/425 426/426/426
v -250.000000 -250.000000 275.000000
v -250.000000 250.000000 300.000000
v -250.000000 250.000000 275.000000
vt 0.000000 0.000000
vt 5.006246 0.000000
vt 4.993762 0.249688
vn -1.000000 0.000000 0.000000
vn -1.000000 0.000000 0.000000
vn -1.000000 0.000000 0.000000
f 427/427/427 428/428/428 429/429/429
v -250.000000 -250.000000 275.000000
v -250.000000 -250.000000 300.000000
v -250.000000 250.000000 300.000000
vt 0.000000 0.000000
vt 0.250000 0.000000
vt 0.250000 5.000000
vn -1.000000 0.000000 0.000000
vn -1.000000 0.000000 0.000000
vn -1.000000 0.000000 0.000000
f 430/430/430 431/431/431 432/432/432
