# Future Mount enclosure part (Lishchno Tidreshu); Unreal legacy OBJ adapter: Y negated, winding reversed
o SM_EnclosureV1_Soreg_W
g soreg_W_01
v -12.500000 10275.000000 0.000000
v 12.500000 10275.000000 0.000000
v 12.500000 -10275.000000 0.000000
vt 0.000000 0.000000
vt 0.250000 0.000000
vt 0.250000 205.500000
vn 0.000000 0.000000 -1.000000
vn 0.000000 0.000000 -1.000000
vn 0.000000 0.000000 -1.000000
f 1/1/1 2/2/2 3/3/3
v -12.500000 10275.000000 0.000000
v 12.500000 -10275.000000 0.000000
v -12.500000 -10275.000000 0.000000
vt 0.000000 0.000000
vt 205.500152 0.000000
vt 205.499848 0.250000
vn 0.000000 0.000000 -1.000000
vn 0.000000 0.000000 -1.000000
vn 0.000000 0.000000 -1.000000
f 4/4/4 5/5/5 6/6/6
v -12.500000 10275.000000 83.333333
v 12.500000 -10275.000000 83.333333
v 12.500000 10275.000000 83.333333
vt 0.000000 0.000000
vt 205.500152 0.000000
vt 0.000304 0.250000
vn -0.000000 0.000000 1.000000
vn -0.000000 0.000000 1.000000
vn -0.000000 0.000000 1.000000
f 7/7/7 8/8/8 9/9/9
v -12.500000 10275.000000 83.333333
v -12.500000 -10275.000000 83.333333
v 12.500000 -10275.000000 83.333333
vt 0.000000 0.000000
vt 205.500000 0.000000
vt 205.500000 0.250000
vn 0.000000 0.000000 1.000000
vn 0.000000 0.000000 1.000000
vn 0.000000 0.000000 1.000000
f 10/10/10 11/11/11 12/12/12
v -12.500000 10275.000000 0.000000
v 12.500000 10275.000000 83.333333
v 12.500000 10275.000000 0.000000
vt 0.000000 0.000000
vt 0.870026 0.000000
vt 0.071837 0.239457
vn 0.000000 1.000000 0.000000
vn 0.000000 1.000000 0.000000
vn 0.000000 1.000000 0.000000
f 13/13/13 14/14/14 15/15/15
v -12.500000 10275.000000 0.000000
v -12.500000 10275.000000 83.333333
v 12.500000 10275.000000 83.333333
vt 0.000000 0.000000
vt 0.833333 0.000000
vt 0.833333 0.250000
vn 0.000000 1.000000 0.000000
vn 0.000000 1.000000 0.000000
vn 0.000000 1.000000 0.000000
f 16/16/16 17/17/17 18/18/18
v 12.500000 -10275.000000 0.000000
v -12.500000 -10275.000000 83.333333
v -12.500000 -10275.000000 0.000000
vt 0.000000 0.000000
vt 0.870026 0.000000
vt 0.071837 0.239457
vn 0.000000 -1.000000 0.000000
vn 0.000000 -1.000000 0.000000
vn 0.000000 -1.000000 0.000000
f 19/19/19 20/20/20 21/21/21
v 12.500000 -10275.000000 0.000000
v 12.500000 -10275.000000 83.333333
v -12.500000 -10275.000000 83.333333
vt 0.000000 0.000000
vt 0.833333 0.000000
vt 0.833333 0.250000
vn 0.000000 -1.000000 0.000000
vn 0.000000 -1.000000 0.000000
vn 0.000000 -1.000000 0.000000
f 22/22/22 23/23/23 24/24/24
v 12.500000 10275.000000 0.000000
v 12.500000 -10275.000000 83.333333
v 12.500000 -10275.000000 0.000000
vt 0.000000 0.000000
vt 205.501690 0.000000
vt 205.498310 0.833326
vn 1.000000 0.000000 0.000000
vn 1.000000 0.000000 0.000000
vn 1.000000 0.000000 0.000000
f 25/25/25 26/26/26 27/27/27
v 12.500000 10275.000000 0.000000
v 12.500000 10275.000000 83.333333
v 12.500000 -10275.000000 83.333333
vt 0.000000 0.000000
vt 0.833333 0.000000
vt 0.833333 205.500000
vn 1.000000 0.000000 -0.000000
vn 1.000000 0.000000 -0.000000
vn 1.000000 0.000000 -0.000000
f 28/28/28 29/29/29 30/30/30
v -12.500000 -10275.000000 0.000000
v -12.500000 10275.000000 83.333333
v -12.500000 10275.000000 0.000000
vt 0.000000 0.000000
vt 205.501690 0.000000
vt 205.498310 0.833326
vn -1.000000 0.000000 0.000000
vn -1.000000 0.000000 0.000000
vn -1.000000 0.000000 0.000000
f 31/31/31 32/32/32 33/33/33
v -12.500000 -10275.000000 0.000000
v -12.500000 -10275.000000 83.333333
v -12.500000 10275.000000 83.333333
vt 0.000000 0.000000
vt 0.833333 0.000000
vt 0.833333 205.500000
vn -1.000000 0.000000 0.000000
vn -1.000000 0.000000 0.000000
vn -1.000000 0.000000 0.000000
f 34/34/34 35/35/35 36/36/36
