# Future Mount enclosure part (Lishchno Tidreshu); Unreal legacy OBJ adapter: Y negated, winding reversed
o SM_EnclosureV1_Steps_N
g step_N_01
v -250.000000 187.500000 0.000000
v 250.000000 187.500000 0.000000
v 250.000000 -187.500000 0.000000
vt 0.000000 0.000000
vt 5.000000 0.000000
vt 5.000000 3.750000
vn 0.000000 0.000000 -1.000000
vn 0.000000 0.000000 -1.000000
vn 0.000000 0.000000 -1.000000
f 1/1/1 2/2/2 3/3/3
v -250.000000 187.500000 0.000000
v 250.000000 -187.500000 0.000000
v -250.000000 -187.500000 0.000000
vt 0.000000 0.000000
vt 6.250000 0.000000
vt 2.250000 3.000000
vn 0.000000 0.000000 -1.000000
vn 0.000000 0.000000 -1.000000
vn 0.000000 0.000000 -1.000000
f 4/4/4 5/5/5 6/6/6
v -250.000000 187.500000 25.000000
v 250.000000 -187.500000 25.000000
v 250.000000 187.500000 25.000000
vt 0.000000 0.000000
vt 6.250000 0.000000
vt 4.000000 3.000000
vn -0.000000 0.000000 1.000000
vn -0.000000 0.000000 1.000000
vn -0.000000 0.000000 1.000000
f 7/7/7 8/8/8 9/9/9
v -250.000000 187.500000 25.000000
v -250.000000 -187.500000 25.000000
v 250.000000 -187.500000 25.000000
vt 0.000000 0.000000
vt 3.750000 0.000000
vt 3.750000 5.000000
vn 0.000000 0.000000 1.000000
vn 0.000000 0.000000 1.000000
vn 0.000000 0.000000 1.000000
f 10/10/10 11/11/11 12/12/12
v -250.000000 187.500000 0.000000
v 250.000000 187.500000 25.000000
v 250.000000 187.500000 0.000000
vt 0.000000 0.000000
vt 5.006246 0.000000
vt 4.993762 0.249688
vn 0.000000 1.000000 0.000000
vn 0.000000 1.000000 0.000000
vn 0.000000 1.000000 0.000000
f 13/13/13 14/14/14 15/15/15
v -250.000000 187.500000 0.000000
v -250.000000 187.500000 25.000000
v 250.000000 187.500000 25.000000
vt 0.000000 0.000000
vt 0.250000 0.000000
vt 0.250000 5.000000
vn 0.000000 1.000000 0.000000
vn 0.000000 1.000000 0.000000
vn 0.000000 1.000000 0.000000
f 16/16/16 17/17/17 18/18/18
v 250.000000 -187.500000 0.000000
v -250.000000 -187.500000 25.000000
v -250.000000 -187.500000 0.000000
vt 0.000000 0.000000
vt 5.006246 0.000000
vt 4.993762 0.249688
vn 0.000000 -1.000000 0.000000
vn 0.000000 -1.000000 0.000000
vn 0.000000 -1.000000 0.000000
f 19/19/19 20/20/20 21/21/21
v 250.000000 -187.500000 0.000000
v 250.000000 -187.500000 25.000000
v -250.000000 -187.500000 25.000000
vt 0.000000 0.000000
vt 0.250000 0.000000
vt 0.250000 5.000000
vn 0.000000 -1.000000 0.000000
vn 0.000000 -1.000000 0.000000
vn 0.000000 -1.000000 0.000000
f 22/22/22 23/23/23 24/24/24
v 250.000000 187.500000 0.000000
v 250.000000 -187.500000 25.000000
v 250.000000 -187.500000 0.000000
vt 0.000000 0.000000
vt 3.758324 0.000000
vt 3.741694 0.249446
vn 1.000000 0.000000 0.000000
vn 1.000000 0.000000 0.000000
vn 1.000000 0.000000 0.000000
f 25/25/25 26/26/26 27/27/27
v 250.000000 187.500000 0.000000
v 250.000000 187.500000 25.000000
v 250.000000 -187.500000 25.000000
vt 0.000000 0.000000
vt 0.250000 0.000000
vt 0.250000 3.750000
vn 1.000000 0.000000 -0.000000
vn 1.000000 0.000000 -0.000000
vn 1.000000 0.000000 -0.000000
f 28/28/28 29/29/29 30/30/30
v -250.000000 -187.500000 0.000000
v -250.000000 187.500000 25.000000
v -250.000000 187.500000 0.000000
vt 0.000000 0.000000
vt 3.758324 0.000000
vt 3.741694 0.249446
vn -1.000000 0.000000 0.000000
vn -1.000000 0.000000 0.000000
vn -1.000000 0.000000 0.000000
f 31/31/31 32/32/32 33/33/33
v -250.000000 -187.500000 0.000000
v -250.000000 -187.500000 25.000000
v -250.000000 187.500000 25.000000
vt 0.000000 0.000000
vt 0.250000 0.000000
vt 0.250000 3.750000
vn -1.000000 0.000000 0.000000
vn -1.000000 0.000000 0.000000
vn -1.000000 0.000000 0.000000
f 34/34/34 35/35/35 36/36/36
g step_N_02
v -250.000000 162.500000 25.000000
v 250.000000 162.500000 25.000000
v 250.000000 -187.500000 25.000000
vt 0.000000 0.000000
vt 5.000000 0.000000
vt 5.000000 3.500000
vn 0.000000 0.000000 -1.000000
vn 0.000000 0.000000 -1.000000
vn 0.000000 0.000000 -1.000000
f 37/37/37 38/38/38 39/39/39
v -250.000000 162.500000 25.000000
v 250.000000 -187.500000 25.000000
v -250.000000 -187.500000 25.000000
vt 0.000000 0.000000
vt 6.103278 0.000000
vt 2.007118 2.867312
vn 0.000000 0.000000 -1.000000
vn 0.000000 0.000000 -1.000000
vn 0.000000 0.000000 -1.000000
f 40/40/40 41/41/41 42/42/42
v -250.000000 162.500000 50.000000
v 250.000000 -187.500000 50.000000
v 250.000000 162.500000 50.000000
vt 0.000000 0.000000
vt 6.103278 0.000000
vt 4.096160 2.867312
vn -0.000000 0.000000 1.000000
vn -0.000000 0.000000 1.000000
vn -0.000000 0.000000 1.000000
f 43/43/43 44/44/44 45/45/45
v -250.000000 162.500000 50.000000
v -250.000000 -187.500000 50.000000
v 250.000000 -187.500000 50.000000
vt 0.000000 0.000000
vt 3.500000 0.000000
vt 3.500000 5.000000
vn 0.000000 0.000000 1.000000
vn 0.000000 0.000000 1.000000
vn 0.000000 0.000000 1.000000
f 46/46/46 47/47/47 48/48/48
v -250.000000 162.500000 25.000000
v 250.000000 162.500000 50.000000
v 250.000000 162.500000 25.000000
vt 0.000000 0.000000
vt 5.006246 0.000000
vt 4.993762 0.249688
vn 0.000000 1.000000 0.000000
vn 0.000000 1.000000 0.000000
vn 0.000000 1.000000 0.000000
f 49/49/49 50/50/50 51/51/51
v -250.000000 162.500000 25.000000
v -250.000000 162.500000 50.000000
v 250.000000 162.500000 50.000000
vt 0.000000 0.000000
vt 0.250000 0.000000
vt 0.250000 5.000000
vn 0.000000 1.000000 0.000000
vn 0.000000 1.000000 0.000000
vn 0.000000 1.000000 0.000000
f 52/52/52 53/53/53 54/54/54
v 250.000000 -187.500000 25.000000
v -250.000000 -187.500000 50.000000
v -250.000000 -187.500000 25.000000
vt 0.000000 0.000000
vt 5.006246 0.000000
vt 4.993762 0.249688
vn 0.000000 -1.000000 0.000000
vn 0.000000 -1.000000 0.000000
vn 0.000000 -1.000000 0.000000
f 55/55/55 56/56/56 57/57/57
v 250.000000 -187.500000 25.000000
v 250.000000 -187.500000 50.000000
v -250.000000 -187.500000 50.000000
vt 0.000000 0.000000
vt 0.250000 0.000000
vt 0.250000 5.000000
vn 0.000000 -1.000000 0.000000
vn 0.000000 -1.000000 0.000000
vn 0.000000 -1.000000 0.000000
f 58/58/58 59/59/59 60/60/60
v 250.000000 162.500000 25.000000
v 250.000000 -187.500000 50.000000
v 250.000000 -187.500000 25.000000
vt 0.000000 0.000000
vt 3.508917 0.000000
vt 3.491105 0.249365
vn 1.000000 0.000000 0.000000
vn 1.000000 0.000000 0.000000
vn 1.000000 0.000000 0.000000
f 61/61/61 62/62/62 63/63/63
v 250.000000 162.500000 25.000000
v 250.000000 162.500000 50.000000
v 250.000000 -187.500000 50.000000
vt 0.000000 0.000000
vt 0.250000 0.000000
vt 0.250000 3.500000
vn 1.000000 0.000000 -0.000000
vn 1.000000 0.000000 -0.000000
vn 1.000000 0.000000 -0.000000
f 64/64/64 65/65/65 66/66/66
v -250.000000 -187.500000 25.000000
v -250.000000 162.500000 50.000000
v -250.000000 162.500000 25.000000
vt 0.000000 0.000000
vt 3.508917 0.000000
vt 3.491105 0.249365
vn -1.000000 0.000000 0.000000
vn -1.000000 0.000000 0.000000
vn -1.000000 0.000000 0.000000
f 67/67/67 68/68/68 69/69/69
v -250.000000 -187.500000 25.000000
v -250.000000 -187.500000 50.000000
v -250.000000 162.500000 50.000000
vt 0.000000 0.000000
vt 0.250000 0.000000
vt 0.250000 3.500000
vn -1.000000 0.000000 0.000000
vn -1.000000 0.000000 0.000000
vn -1.000000 0.000000 0.000000
f 70/70/70 71/71/71 72/72/72
g step_N_03
v -250.000000 137.500000 50.000000
v 250.000000 137.500000 50.000000
v 250.000000 -187.500000 50.000000
vt 0.000000 0.000000
vt 5.000000 0.000000
vt 5.000000 3.250000
vn 0.000000 0.000000 -1.000000
vn 0.000000 0.000000 -1.000000
vn 0.000000 0.000000 -1.000000
f 73/73/73 74/74/74 75/75/75
v -250.000000 137.500000 50.000000
v 250.000000 -187.500000 50.000000
v -250.000000 -187.500000 50.000000
vt 0.000000 0.000000
vt 5.963430 0.000000
vt 1.771212 2.724942
vn 0.000000 0.000000 -1.000000
vn 0.000000 0.000000 -1.000000
vn 0.000000 0.000000 -1.000000
f 76/76/76 77/77/77 78/78/78
v -250.000000 137.500000 75.000000
v 250.000000 -187.500000 75.000000
v 250.000000 137.500000 75.000000
vt 0.000000 0.000000
vt 5.963430 0.000000
vt 4.192218 2.724942
vn -0.000000 0.000000 1.000000
vn -0.000000 0.000000 1.000000
vn -0.000000 0.000000 1.000000
f 79/79/79 80/80/80 81/81/81
v -250.000000 137.500000 75.000000
v -250.000000 -187.500000 75.000000
v 250.000000 -187.500000 75.000000
vt 0.000000 0.000000
vt 3.250000 0.000000
vt 3.250000 5.000000
vn 0.000000 0.000000 1.000000
vn 0.000000 0.000000 1.000000
vn 0.000000 0.000000 1.000000
f 82/82/82 83/83/83 84/84/84
v -250.000000 137.500000 50.000000
v 250.000000 137.500000 75.000000
v 250.000000 137.500000 50.000000
vt 0.000000 0.000000
vt 5.006246 0.000000
vt 4.993762 0.249688
vn 0.000000 1.000000 0.000000
vn 0.000000 1.000000 0.000000
vn 0.000000 1.000000 0.000000
f 85/85/85 86/86/86 87/87/87
v -250.000000 137.500000 50.000000
v -250.000000 137.500000 75.000000
v 250.000000 137.500000 75.000000
vt 0.000000 0.000000
vt 0.250000 0.000000
vt 0.250000 5.000000
vn 0.000000 1.000000 0.000000
vn 0.000000 1.000000 0.000000
vn 0.000000 1.000000 0.000000
f 88/88/88 89/89/89 90/90/90
v 250.000000 -187.500000 50.000000
v -250.000000 -187.500000 75.000000
v -250.000000 -187.500000 50.000000
vt 0.000000 0.000000
vt 5.006246 0.000000
vt 4.993762 0.249688
vn 0.000000 -1.000000 0.000000
vn 0.000000 -1.000000 0.000000
vn 0.000000 -1.000000 0.000000
f 91/91/91 92/92/92 93/93/93
v 250.000000 -187.500000 50.000000
v 250.000000 -187.500000 75.000000
v -250.000000 -187.500000 75.000000
vt 0.000000 0.000000
vt 0.250000 0.000000
vt 0.250000 5.000000
vn 0.000000 -1.000000 0.000000
vn 0.000000 -1.000000 0.000000
vn 0.000000 -1.000000 0.000000
f 94/94/94 95/95/95 96/96/96
v 250.000000 137.500000 50.000000
v 250.000000 -187.500000 75.000000
v 250.000000 -187.500000 50.000000
vt 0.000000 0.000000
vt 3.259601 0.000000
vt 3.240427 0.249264
vn 1.000000 0.000000 0.000000
vn 1.000000 0.000000 0.000000
vn 1.000000 0.000000 0.000000
f 97/97/97 98/98/98 99/99/99
v 250.000000 137.500000 50.000000
v 250.000000 137.500000 75.000000
v 250.000000 -187.500000 75.000000
vt 0.000000 0.000000
vt 0.250000 0.000000
vt 0.250000 3.250000
vn 1.000000 0.000000 -0.000000
vn 1.000000 0.000000 -0.000000
vn 1.000000 0.000000 -0.000000
f 100/100/100 101/101/101 102/102/102
v -250.000000 -187.500000 50.000000
v -250.000000 137.500000 75.000000
v -250.000000 137.500000 50.000000
vt 0.000000 0.000000
vt 3.259601 0.000000
vt 3.240427 0.249264
vn -1.000000 0.000000 0.000000
vn -1.000000 0.000000 0.000000
vn -1.000000 0.000000 0.000000
f 103/103/103 104/104/104 105/105/105
v -250.000000 -187.500000 50.000000
v -250.000000 -187.500000 75.000000
v -250.000000 137.500000 75.000000
vt 0.000000 0.000000
vt 0.250000 0.000000
vt 0.250000 3.250000
vn -1.000000 0.000000 0.000000
vn -1.000000 0.000000 0.000000
vn -1.000000 0.000000 0.000000
f 106/106/106 107/107/107 108/108/108
g step_N_04
v -250.000000 112.500000 75.000000
v 250.000000 112.500000 75.000000
v 250.000000 -187.500000 75.000000
vt 0.000000 0.000000
vt 5.000000 0.000000
vt 5.000000 3.000000
vn 0.000000 0.000000 -1.000000
vn 0.000000 0.000000 -1.000000
vn 0.000000 0.000000 -1.000000
f 109/109/109 110/110/110 111/111/111
v -250.000000 112.500000 75.000000
v 250.000000 -187.500000 75.000000
v -250.000000 -187.500000 75.000000
vt 0.000000 0.000000
vt 5.830952 0.000000
vt 1.543487 2.572479
vn 0.000000 0.000000 -1.000000
vn 0.000000 0.000000 -1.000000
vn 0.000000 0.000000 -1.000000
f 112/112/112 113/113/113 114/114/114
v -250.000000 112.500000 100.000000
v 250.000000 -187.500000 100.000000
v 250.000000 112.500000 100.000000
vt 0.000000 0.000000
vt 5.830952 0.000000
vt 4.287465 2.572479
vn -0.000000 0.000000 1.000000
vn -0.000000 0.000000 1.000000
vn -0.000000 0.000000 1.000000
f 115/115/115 116/116/116 117/117/117
v -250.000000 112.500000 100.000000
v -250.000000 -187.500000 100.000000
v 250.000000 -187.500000 100.000000
vt 0.000000 0.000000
vt 3.000000 0.000000
vt 3.000000 5.000000
vn 0.000000 0.000000 1.000000
vn 0.000000 0.000000 1.000000
vn 0.000000 0.000000 1.000000
f 118/118/118 119/119/119 120/120/120
v -250.000000 112.500000 75.000000
v 250.000000 112.500000 100.000000
v 250.000000 112.500000 75.000000
vt 0.000000 0.000000
vt 5.006246 0.000000
vt 4.993762 0.249688
vn 0.000000 1.000000 0.000000
vn 0.000000 1.000000 0.000000
vn 0.000000 1.000000 0.000000
f 121/121/121 122/122/122 123/123/123
v -250.000000 112.500000 75.000000
v -250.000000 112.500000 100.000000
v 250.000000 112.500000 100.000000
vt 0.000000 0.000000
vt 0.250000 0.000000
vt 0.250000 5.000000
vn 0.000000 1.000000 0.000000
vn 0.000000 1.000000 0.000000
vn 0.000000 1.000000 0.000000
f 124/124/124 125/125/125 126/126/126
v 250.000000 -187.500000 75.000000
v -250.000000 -187.500000 100.000000
v -250.000000 -187.500000 75.000000
vt 0.000000 0.000000
vt 5.006246 0.000000
vt 4.993762 0.249688
vn 0.000000 -1.000000 0.000000
vn 0.000000 -1.000000 0.000000
vn 0.000000 -1.000000 0.000000
f 127/127/127 128/128/128 129/129/129
v 250.000000 -187.500000 75.000000
v 250.000000 -187.500000 100.000000
v -250.000000 -187.500000 100.000000
vt 0.000000 0.000000
vt 0.250000 0.000000
vt 0.250000 5.000000
vn 0.000000 -1.000000 0.000000
vn 0.000000 -1.000000 0.000000
vn 0.000000 -1.000000 0.000000
f 130/130/130 131/131/131 132/132/132
v 250.000000 112.500000 75.000000
v 250.000000 -187.500000 100.000000
v 250.000000 -187.500000 75.000000
vt 0.000000 0.000000
vt 3.010399 0.000000
vt 2.989637 0.249136
vn 1.000000 0.000000 0.000000
vn 1.000000 0.000000 0.000000
vn 1.000000 0.000000 0.000000
f 133/133/133 134/134/134 135/135/135
v 250.000000 112.500000 75.000000
v 250.000000 112.500000 100.000000
v 250.000000 -187.500000 100.000000
vt 0.000000 0.000000
vt 0.250000 0.000000
vt 0.250000 3.000000
vn 1.000000 0.000000 -0.000000
vn 1.000000 0.000000 -0.000000
vn 1.000000 0.000000 -0.000000
f 136/136/136 137/137/137 138/138/138
v -250.000000 -187.500000 75.000000
v -250.000000 112.500000 100.000000
v -250.000000 112.500000 75.000000
vt 0.000000 0.000000
vt 3.010399 0.000000
vt 2.989637 0.249136
vn -1.000000 0.000000 0.000000
vn -1.000000 0.000000 0.000000
vn -1.000000 0.000000 0.000000
f 139/139/139 140/140/140 141/141/141
v -250.000000 -187.500000 75.000000
v -250.000000 -187.500000 100.000000
v -250.000000 112.500000 100.000000
vt 0.000000 0.000000
vt 0.250000 0.000000
vt 0.250000 3.000000
vn -1.000000 0.000000 0.000000
vn -1.000000 0.000000 0.000000
vn -1.000000 0.000000 0.000000
f 142/142/142 143/143/143 144/144/144
g step_N_05
v -250.000000 87.500000 100.000000
v 250.000000 87.500000 100.000000
v 250.000000 -187.500000 100.000000
vt 0.000000 0.000000
vt 5.000000 0.000000
vt 5.000000 2.750000
vn 0.000000 0.000000 -1.000000
vn 0.000000 0.000000 -1.000000
vn 0.000000 0.000000 -1.000000
f 145/145/145 146/146/146 147/147/147
v -250.000000 87.500000 100.000000
v 250.000000 -187.500000 100.000000
v -250.000000 -187.500000 100.000000
vt 0.000000 0.000000
vt 5.706356 0.000000
vt 1.325277 2.409594
vn 0.000000 0.000000 -1.000000
vn 0.000000 0.000000 -1.000000
vn 0.000000 0.000000 -1.000000
f 148/148/148 149/149/149 150/150/150
v -250.000000 87.500000 125.000000
v 250.000000 -187.500000 125.000000
v 250.000000 87.500000 125.000000
vt 0.000000 0.000000
vt 5.706356 0.000000
vt 4.381080 2.409594
vn -0.000000 0.000000 1.000000
vn -0.000000 0.000000 1.000000
vn -0.000000 0.000000 1.000000
f 151/151/151 152/152/152 153/153/153
v -250.000000 87.500000 125.000000
v -250.000000 -187.500000 125.000000
v 250.000000 -187.500000 125.000000
vt 0.000000 0.000000
vt 2.750000 0.000000
vt 2.750000 5.000000
vn 0.000000 0.000000 1.000000
vn 0.000000 0.000000 1.000000
vn 0.000000 0.000000 1.000000
f 154/154/154 155/155/155 156/156/156
v -250.000000 87.500000 100.000000
v 250.000000 87.500000 125.000000
v 250.000000 87.500000 100.000000
vt 0.000000 0.000000
vt 5.006246 0.000000
vt 4.993762 0.249688
vn 0.000000 1.000000 0.000000
vn 0.000000 1.000000 0.000000
vn 0.000000 1.000000 0.000000
f 157/157/157 158/158/158 159/159/159
v -250.000000 87.500000 100.000000
v -250.000000 87.500000 125.000000
v 250.000000 87.500000 125.000000
vt 0.000000 0.000000
vt 0.250000 0.000000
vt 0.250000 5.000000
vn 0.000000 1.000000 0.000000
vn 0.000000 1.000000 0.000000
vn 0.000000 1.000000 0.000000
f 160/160/160 161/161/161 162/162/162
v 250.000000 -187.500000 100.000000
v -250.000000 -187.500000 125.000000
v -250.000000 -187.500000 100.000000
vt 0.000000 0.000000
vt 5.006246 0.000000
vt 4.993762 0.249688
vn 0.000000 -1.000000 0.000000
vn 0.000000 -1.000000 0.000000
vn 0.000000 -1.000000 0.000000
f 163/163/163 164/164/164 165/165/165
v 250.000000 -187.500000 100.000000
v 250.000000 -187.500000 125.000000
v -250.000000 -187.500000 125.000000
vt 0.000000 0.000000
vt 0.250000 0.000000
vt 0.250000 5.000000
vn 0.000000 -1.000000 0.000000
vn 0.000000 -1.000000 0.000000
vn 0.000000 -1.000000 0.000000
f 166/166/166 167/167/167 168/168/168
v 250.000000 87.500000 100.000000
v 250.000000 -187.500000 125.000000
v 250.000000 -187.500000 100.000000
vt 0.000000 0.000000
vt 2.761340 0.000000
vt 2.738706 0.248973
vn 1.000000 0.000000 0.000000
vn 1.000000 0.000000 0.000000
vn 1.000000 0.000000 0.000000
f 169/169/169 170/170/170 171/171/171
v 250.000000 87.500000 100.000000
v 250.000000 87.500000 125.000000
v 250.000000 -187.500000 125.000000
vt 0.000000 0.000000
vt 0.250000 0.000000
vt 0.250000 2.750000
vn 1.000000 0.000000 -0.000000
vn 1.000000 0.000000 -0.000000
vn 1.000000 0.000000 -0.000000
f 172/172/172 173/173/173 174/174/174
v -250.000000 -187.500000 100.000000
v -250.000000 87.500000 125.000000
v -250.000000 87.500000 100.000000
vt 0.000000 0.000000
vt 2.761340 0.000000
vt 2.738706 0.248973
vn -1.000000 0.000000 0.000000
vn -1.000000 0.000000 0.000000
vn -1.000000 0.000000 0.000000
f 175/175/175 176/176/176 177/177/177
v -250.000000 -187.500000 100.000000
v -250.000000 -187.500000 125.000000
v -250.000000 87.500000 125.000000
vt 0.000000 0.000000
vt 0.250000 0.000000
vt 0.250000 2.750000
vn -1.000000 0.000000 0.000000
vn -1.000000 0.000000 0.000000
vn -1.000000 0.000000 0.000000
f 178/178/178 179/179/179 180/180/180
g step_N_06
v -250.000000 62.500000 125.000000
v 250.000000 62.500000 125.000000
v 250.000000 -187.500000 125.000000
vt 0.000000 0.000000
vt 5.000000 0.000000
vt 5.000000 2.500000
vn 0.000000 0.000000 -1.000000
vn 0.000000 0.000000 -1.000000
vn 0.000000 0.000000 -1.000000
f 181/181/181 182/182/182 183/183/183
v -250.000000 62.500000 125.000000
v 250.000000 -187.500000 125.000000
v -250.000000 -187.500000 125.000000
vt 0.000000 0.000000
vt 5.590170 0.000000
vt 1.118034 2.236068
vn 0.000000 0.000000 -1.000000
vn 0.000000 0.000000 -1.000000
vn 0.000000 0.000000 -1.000000
f 184/184/184 185/185/185 186/186/186
v -250.000000 62.500000 150.000000
v 250.000000 -187.500000 150.000000
v 250.000000 62.500000 150.000000
vt 0.000000 0.000000
vt 5.590170 0.000000
vt 4.472136 2.236068
vn -0.000000 0.000000 1.000000
vn -0.000000 0.000000 1.000000
vn -0.000000 0.000000 1.000000
f 187/187/187 188/188/188 189/189/189
v -250.000000 62.500000 150.000000
v -250.000000 -187.500000 150.000000
v 250.000000 -187.500000 150.000000
vt 0.000000 0.000000
vt 2.500000 0.000000
vt 2.500000 5.000000
vn 0.000000 0.000000 1.000000
vn 0.000000 0.000000 1.000000
vn 0.000000 0.000000 1.000000
f 190/190/190 191/191/191 192/192/192
v -250.000000 62.500000 125.000000
v 250.000000 62.500000 150.000000
v 250.000000 62.500000 125.000000
vt 0.000000 0.000000
vt 5.006246 0.000000
vt 4.993762 0.249688
vn 0.000000 1.000000 0.000000
vn 0.000000 1.000000 0.000000
vn 0.000000 1.000000 0.000000
f 193/193/193 194/194/194 195/195/195
v -250.000000 62.500000 125.000000
v -250.000000 62.500000 150.000000
v 250.000000 62.500000 150.000000
vt 0.000000 0.000000
vt 0.250000 0.000000
vt 0.250000 5.000000
vn 0.000000 1.000000 0.000000
vn 0.000000 1.000000 0.000000
vn 0.000000 1.000000 0.000000
f 196/196/196 197/197/197 198/198/198
v 250.000000 -187.500000 125.000000
v -250.000000 -187.500000 150.000000
v -250.000000 -187.500000 125.000000
vt 0.000000 0.000000
vt 5.006246 0.000000
vt 4.993762 0.249688
vn 0.000000 -1.000000 0.000000
vn 0.000000 -1.000000 0.000000
vn 0.000000 -1.000000 0.000000
f 199/199/199 200/200/200 201/201/201
v 250.000000 -187.500000 125.000000
v 250.000000 -187.500000 150.000000
v -250.000000 -187.500000 150.000000
vt 0.000000 0.000000
vt 0.250000 0.000000
vt 0.250000 5.000000
vn 0.000000 -1.000000 0.000000
vn 0.000000 -1.000000 0.000000
vn 0.000000 -1.000000 0.000000
f 202/202/202 203/203/203 204/204/204
v 250.000000 62.500000 125.000000
v 250.000000 -187.500000 150.000000
v 250.000000 -187.500000 125.000000
vt 0.000000 0.000000
vt 2.512469 0.000000
vt 2.487593 0.248759
vn 1.000000 0.000000 0.000000
vn 1.000000 0.000000 0.000000
vn 1.000000 0.000000 0.000000
f 205/205/205 206/206/206 207/207/207
v 250.000000 62.500000 125.000000
v 250.000000 62.500000 150.000000
v 250.000000 -187.500000 150.000000
vt 0.000000 0.000000
vt 0.250000 0.000000
vt 0.250000 2.500000
vn 1.000000 0.000000 -0.000000
vn 1.000000 0.000000 -0.000000
vn 1.000000 0.000000 -0.000000
f 208/208/208 209/209/209 210/210/210
v -250.000000 -187.500000 125.000000
v -250.000000 62.500000 150.000000
v -250.000000 62.500000 125.000000
vt 0.000000 0.000000
vt 2.512469 0.000000
vt 2.487593 0.248759
vn -1.000000 0.000000 0.000000
vn -1.000000 0.000000 0.000000
vn -1.000000 0.000000 0.000000
f 211/211/211 212/212/212 213/213/213
v -250.000000 -187.500000 125.000000
v -250.000000 -187.500000 150.000000
v -250.000000 62.500000 150.000000
vt 0.000000 0.000000
vt 0.250000 0.000000
vt 0.250000 2.500000
vn -1.000000 0.000000 0.000000
vn -1.000000 0.000000 0.000000
vn -1.000000 0.000000 0.000000
f 214/214/214 215/215/215 216/216/216
g step_N_07
v -250.000000 37.500000 150.000000
v 250.000000 37.500000 150.000000
v 250.000000 -187.500000 150.000000
vt 0.000000 0.000000
vt 5.000000 0.000000
vt 5.000000 2.250000
vn 0.000000 0.000000 -1.000000
vn 0.000000 0.000000 -1.000000
vn 0.000000 0.000000 -1.000000
f 217/217/217 218/218/218 219/219/219
v -250.000000 37.500000 150.000000
v 250.000000 -187.500000 150.000000
v -250.000000 -187.500000 150.000000
vt 0.000000 0.000000
vt 5.482928 0.000000
vt 0.923321 2.051823
vn 0.000000 0.000000 -1.000000
vn 0.000000 0.000000 -1.000000
vn 0.000000 0.000000 -1.000000
f 220/220/220 221/221/221 222/222/222
v -250.000000 37.500000 175.000000
v 250.000000 -187.500000 175.000000
v 250.000000 37.500000 175.000000
vt 0.000000 0.000000
vt 5.482928 0.000000
vt 4.559608 2.051823
vn -0.000000 0.000000 1.000000
vn -0.000000 0.000000 1.000000
vn -0.000000 0.000000 1.000000
f 223/223/223 224/224/224 225/225/225
v -250.000000 37.500000 175.000000
v -250.000000 -187.500000 175.000000
v 250.000000 -187.500000 175.000000
vt 0.000000 0.000000
vt 2.250000 0.000000
vt 2.250000 5.000000
vn 0.000000 0.000000 1.000000
vn 0.000000 0.000000 1.000000
vn 0.000000 0.000000 1.000000
f 226/226/226 227/227/227 228/228/228
v -250.000000 37.500000 150.000000
v 250.000000 37.500000 175.000000
v 250.000000 37.500000 150.000000
vt 0.000000 0.000000
vt 5.006246 0.000000
vt 4.993762 0.249688
vn 0.000000 1.000000 0.000000
vn 0.000000 1.000000 0.000000
vn 0.000000 1.000000 0.000000
f 229/229/229 230/230/230 231/231/231
v -250.000000 37.500000 150.000000
v -250.000000 37.500000 175.000000
v 250.000000 37.500000 175.000000
vt 0.000000 0.000000
vt 0.250000 0.000000
vt 0.250000 5.000000
vn 0.000000 1.000000 0.000000
vn 0.000000 1.000000 0.000000
vn 0.000000 1.000000 0.000000
f 232/232/232 233/233/233 234/234/234
v 250.000000 -187.500000 150.000000
v -250.000000 -187.500000 175.000000
v -250.000000 -187.500000 150.000000
vt 0.000000 0.000000
vt 5.006246 0.000000
vt 4.993762 0.249688
vn 0.000000 -1.000000 0.000000
vn 0.000000 -1.000000 0.000000
vn 0.000000 -1.000000 0.000000
f 235/235/235 236/236/236 237/237/237
v 250.000000 -187.500000 150.000000
v 250.000000 -187.500000 175.000000
v -250.000000 -187.500000 175.000000
vt 0.000000 0.000000
vt 0.250000 0.000000
vt 0.250000 5.000000
vn 0.000000 -1.000000 0.000000
vn 0.000000 -1.000000 0.000000
vn 0.000000 -1.000000 0.000000
f 238/238/238 239/239/239 240/240/240
v 250.000000 37.500000 150.000000
v 250.000000 -187.500000 175.000000
v 250.000000 -187.500000 150.000000
vt 0.000000 0.000000
vt 2.263846 0.000000
vt 2.236238 0.248471
vn 1.000000 0.000000 0.000000
vn 1.000000 0.000000 0.000000
vn 1.000000 0.000000 0.000000
f 241/241/241 242/242/242 243/243/243
v 250.000000 37.500000 150.000000
v 250.000000 37.500000 175.000000
v 250.000000 -187.500000 175.000000
vt 0.000000 0.000000
vt 0.250000 0.000000
vt 0.250000 2.250000
vn 1.000000 0.000000 -0.000000
vn 1.000000 0.000000 -0.000000
vn 1.000000 0.000000 -0.000000
f 244/244/244 245/245/245 246/246/246
v -250.000000 -187.500000 150.000000
v -250.000000 37.500000 175.000000
v -250.000000 37.500000 150.000000
vt 0.000000 0.000000
vt 2.263846 0.000000
vt 2.236238 0.248471
vn -1.000000 0.000000 0.000000
vn -1.000000 0.000000 0.000000
vn -1.000000 0.000000 0.000000
f 247/247/247 248/248/248 249/249/249
v -250.000000 -187.500000 150.000000
v -250.000000 -187.500000 175.000000
v -250.000000 37.500000 175.000000
vt 0.000000 0.000000
vt 0.250000 0.000000
vt 0.250000 2.250000
vn -1.000000 0.000000 0.000000
vn -1.000000 0.000000 0.000000
vn -1.000000 0.000000 0.000000
f 250/250/250 251/251/251 252/252/252
