# Original illustrative access study; OBJ metres east/north/up
mtllib mount-access.mtl
o KotelApproach_LowerApron_REVIEW_ONLY
usemtl Limestone
v -192.000000000 -198.224325180 -13.814223975
v -191.000000000 -198.224325180 -13.878070978
v -191.000000000 -201.224325180 -13.851990733
v -192.000000000 -198.224325180 -13.814223975
v -191.000000000 -201.224325180 -13.851990733
v -192.000000000 -201.224325180 -13.784417981
v -191.000000000 -198.224325180 -13.878070978
v -190.000000000 -198.224325180 -13.941917981
v -190.000000000 -201.224325180 -13.919563486
v -191.000000000 -198.224325180 -13.878070978
v -190.000000000 -201.224325180 -13.919563486
v -191.000000000 -201.224325180 -13.851990733
v -190.000000000 -198.224325180 -13.941917981
v -189.000000000 -198.224325180 -14.005764984
v -189.000000000 -201.224325180 -13.987136238
v -190.000000000 -198.224325180 -13.941917981
v -189.000000000 -201.224325180 -13.987136238
v -190.000000000 -201.224325180 -13.919563486
v -189.000000000 -198.224325180 -14.005764984
v -188.000000000 -198.224325180 -14.069611987
v -188.000000000 -201.224325180 -14.054708990
v -189.000000000 -198.224325180 -14.005764984
v -188.000000000 -201.224325180 -14.054708990
v -189.000000000 -201.224325180 -13.987136238
v -188.000000000 -198.224325180 -14.069611987
v -187.000000000 -198.224325180 -14.133458991
v -187.000000000 -201.224325180 -14.122281743
v -188.000000000 -198.224325180 -14.069611987
v -187.000000000 -201.224325180 -14.122281743
v -188.000000000 -201.224325180 -14.054708990
v -187.000000000 -198.224325180 -14.133458991
v -186.000000000 -198.224325180 -14.197305994
v -186.000000000 -201.224325180 -14.189854495
v -187.000000000 -198.224325180 -14.133458991
v -186.000000000 -201.224325180 -14.189854495
v -187.000000000 -201.224325180 -14.122281743
v -186.000000000 -198.224325180 -14.197305994
v -185.000000000 -198.224325180 -14.261152997
v -185.000000000 -201.224325180 -14.257427248
v -186.000000000 -198.224325180 -14.197305994
v -185.000000000 -201.224325180 -14.257427248
v -186.000000000 -201.224325180 -14.189854495
v -185.000000000 -198.224325180 -14.261152997
v -184.000000000 -198.224325180 -14.325000000
v -184.000000000 -201.224325180 -14.325000000
v -185.000000000 -198.224325180 -14.261152997
v -184.000000000 -201.224325180 -14.325000000
v -185.000000000 -201.224325180 -14.257427248
vt -192.000000000 -198.224325180
vt -191.000000000 -201.224325180
vt -191.000000000 -198.224325180
vt -192.000000000 -198.224325180
vt -192.000000000 -201.224325180
vt -191.000000000 -201.224325180
vt -191.000000000 -198.224325180
vt -190.000000000 -201.224325180
vt -190.000000000 -198.224325180
vt -191.000000000 -198.224325180
vt -191.000000000 -201.224325180
vt -190.000000000 -201.224325180
vt -190.000000000 -198.224325180
vt -189.000000000 -201.224325180
vt -189.000000000 -198.224325180
vt -190.000000000 -198.224325180
vt -190.000000000 -201.224325180
vt -189.000000000 -201.224325180
vt -189.000000000 -198.224325180
vt -188.000000000 -201.224325180
vt -188.000000000 -198.224325180
vt -189.000000000 -198.224325180
vt -189.000000000 -201.224325180
vt -188.000000000 -201.224325180
vt -188.000000000 -198.224325180
vt -187.000000000 -201.224325180
vt -187.000000000 -198.224325180
vt -188.000000000 -198.224325180
vt -188.000000000 -201.224325180
vt -187.000000000 -201.224325180
vt -187.000000000 -198.224325180
vt -186.000000000 -201.224325180
vt -186.000000000 -198.224325180
vt -187.000000000 -198.224325180
vt -187.000000000 -201.224325180
vt -186.000000000 -201.224325180
vt -186.000000000 -198.224325180
vt -185.000000000 -201.224325180
vt -185.000000000 -198.224325180
vt -186.000000000 -198.224325180
vt -186.000000000 -201.224325180
vt -185.000000000 -201.224325180
vt -185.000000000 -198.224325180
vt -184.000000000 -201.224325180
vt -184.000000000 -198.224325180
vt -185.000000000 -198.224325180
vt -185.000000000 -201.224325180
vt -184.000000000 -201.224325180
vn 0.063714868 0.008675423 0.997930435
vn 0.067415695 0.009912239 0.997675735
vn 0.063715504 0.007436151 0.997940398
vn 0.067416472 0.008673309 0.997687222
vn 0.063716042 0.006196845 0.997948829
vn 0.067417144 0.007434339 0.997697178
vn 0.063716482 0.004957510 0.997955727
vn 0.067417714 0.006195335 0.997705603
vn 0.063716825 0.003718153 0.997961092
vn 0.067418179 0.004956302 0.997712496
vn 0.063717070 0.002478778 0.997964925
vn 0.067418542 0.003717247 0.997717857
vn 0.063717216 0.001239392 0.997967224
vn 0.067418800 0.002478174 0.997721687
vn 0.063717265 0.000000000 0.997967991
vn 0.067418956 0.001239090 0.997723984
f 1/1/1 3/2/1 2/3/1
f 4/4/2 6/5/2 5/6/2
f 7/7/3 9/8/3 8/9/3
f 10/10/4 12/11/4 11/12/4
f 13/13/5 15/14/5 14/15/5
f 16/16/6 18/17/6 17/18/6
f 19/19/7 21/20/7 20/21/7
f 22/22/8 24/23/8 23/24/8
f 25/25/9 27/26/9 26/27/9
f 28/28/10 30/29/10 29/30/10
f 31/31/11 33/32/11 32/33/11
f 34/34/12 36/35/12 35/36/12
f 37/37/13 39/38/13 38/39/13
f 40/40/14 42/41/14 41/42/14
f 43/43/15 45/44/15 44/45/15
f 46/46/16 48/47/16 47/48/16
