# JudeanFloraV1; canonical UE cm (X east, +Y south, Z up), written with Y reflected and triangle winding reversed for the legacy OBJ importer adapter. One o object, no g groups, so the importer creates exactly one material slot.
# hyssop (ezov) (Origanum syriacum), LOD0 bark
# height range 0.3-0.7 m, crown 0.3-0.7 m; source: Zohary & Feinbrun-Dothan, Flora Palaestina vols I-IV (Israel Academy of Sciences, 1966-1986), species entry Origanum syriacum; 0.3-0.7 m
# part kinds and their winding checks are recorded in vegetation-manifest.json
o SM_JudeanFloraV1_Hyssop_L0_Bark
s off
v 0.00000 1.59955 0.03794
v 1.52845 0.01122 -0.47297
v 0.00000 -1.59955 -0.03794
v -1.52845 -0.01122 0.47297
v 6.14099 0.52907 19.86377
v 7.07363 -0.45980 19.47350
v 6.14099 -1.47005 19.80450
v 5.20834 -0.48119 20.19477
v 15.35247 -0.77649 39.68250
v 15.71529 -1.17024 39.49998
v 15.35247 -1.57598 39.65405
v 14.98964 -1.18222 39.83656
v 0.00000 1.56700 0.32329
v 1.59961 -0.00710 0.03442
v 0.00000 -1.56700 -0.32329
v -1.59961 0.00710 -0.03442
v -0.49144 -3.55120 22.15599
v 0.50819 -4.52630 21.93255
v -0.49144 -5.48784 21.65655
v -1.49107 -4.51274 21.87999
v -1.22859 -10.91668 43.93079
v -0.82880 -11.30260 43.82482
v -1.22859 -11.68092 43.69428
v -1.62839 -11.29500 43.80026
v 0.00000 1.54786 0.40511
v 1.59641 -0.02714 0.10369
v 0.00000 -1.54786 -0.40511
v -1.59641 0.02714 -0.10369
v -1.16304 -3.43539 17.06852
v -0.16642 -4.41138 16.83569
v -1.16304 -5.33626 16.44665
v -2.15965 -4.36027 16.67948
v -2.90759 -10.59223 33.66135
v -2.50945 -10.97866 33.55109
v -2.90759 -11.33690 33.36900
v -3.30572 -10.95046 33.47926
v 0.00000 1.59925 0.04908
v 1.55328 -0.01177 0.38363
v 0.00000 -1.59925 -0.04908
v -1.55328 0.01177 -0.38363
v -5.60427 0.30357 22.70822
v -4.64879 -0.70700 22.96471
v -5.60427 -1.69496 22.63155
v -6.55976 -0.68438 22.37506
v -14.01068 -1.33966 45.35816
v -13.63559 -1.74562 45.47857
v -14.01068 -2.13881 45.32137
v -14.38578 -1.73285 45.20097
v 0.00000 1.59129 0.16671
v 1.52610 -0.05008 0.47802
v 0.00000 -1.59129 -0.16671
v -1.52610 0.05008 -0.47802
v -5.94444 -0.97513 18.90188
v -5.01357 -2.01411 19.13428
v -5.94444 -2.95820 18.64218
v -6.87531 -1.91923 18.40977
v -14.98675 -4.53691 37.54406
v -14.52149 -4.80430 37.72304
v -14.73547 -5.29642 37.54406
v -15.20073 -5.02902 37.36508
v 0.00000 1.58758 -0.19898
v 1.51979 0.06221 0.49637
v 0.00000 -1.58758 0.19898
v -1.51979 -0.06221 -0.49637
v -6.57985 3.47389 19.67993
v -5.65449 2.54462 20.20924
v -6.57985 1.49799 19.98949
v -7.50521 2.42727 19.46019
v -16.30825 6.58904 39.66942
v -16.11926 6.09005 39.85727
v -16.59099 5.84067 39.66942
v -16.77997 6.33967 39.48157
v 0.00000 1.56117 -0.35035
v 1.59518 -0.02717 -0.12108
v 0.00000 -1.56117 0.35035
v -1.59518 0.02717 0.12108
v 1.39848 4.89924 17.27062
v 2.39391 3.91061 17.44875
v 1.39848 2.97358 17.81081
v 0.40306 3.96221 17.63268
v 3.49621 10.22012 34.95381
v 3.89366 9.82665 35.03873
v 3.49621 9.46193 35.20904
v 3.09875 9.85539 35.12412
v 0.00000 1.49787 -0.56249
v 1.54053 -0.15193 -0.40458
v 0.00000 -1.49787 0.56249
v -1.54053 0.15193 0.40458
v 5.76252 5.61819 16.62172
v 4.44617 5.57183 17.13656
v 4.19924 6.86565 16.62172
v 5.51560 6.91201 16.10688
v 12.76486 15.35531 33.24344
v 12.24980 15.35115 33.47730
v 12.13955 15.85429 33.24344
v 12.65461 15.85846 33.00958
v 0.00000 1.59606 0.11217
v 1.55785 0.02558 -0.36395
v 0.00000 -1.59606 -0.11217
v -1.55785 -0.02558 0.36395
v 4.54755 -0.36512 19.45722
v 5.50738 -1.33673 19.09019
v 4.54755 -2.35745 19.28220
v 3.58773 -1.38584 19.64923
v 11.36888 -3.00542 38.78135
v 11.74640 -3.38935 38.60793
v 11.36888 -3.80101 38.69748
v 10.99137 -3.41708 38.87090
vt 0.00000 0.00000
vt 0.25000 0.00000
vt 0.50000 0.00000
vt 0.75000 0.00000
vt 0.00000 0.50000
vt 0.25000 0.50000
vt 0.50000 0.50000
vt 0.75000 0.50000
vt 0.00000 1.00000
vt 0.25000 1.00000
vt 0.50000 1.00000
vt 0.75000 1.00000
vt 0.00000 0.00000
vt 0.25000 0.00000
vt 0.50000 0.00000
vt 0.75000 0.00000
vt 0.00000 0.50000
vt 0.25000 0.50000
vt 0.50000 0.50000
vt 0.75000 0.50000
vt 0.00000 1.00000
vt 0.25000 1.00000
vt 0.50000 1.00000
vt 0.75000 1.00000
vt 0.00000 0.00000
vt 0.25000 0.00000
vt 0.50000 0.00000
vt 0.75000 0.00000
vt 0.00000 0.50000
vt 0.25000 0.50000
vt 0.50000 0.50000
vt 0.75000 0.50000
vt 0.00000 1.00000
vt 0.25000 1.00000
vt 0.50000 1.00000
vt 0.75000 1.00000
vt 0.00000 0.00000
vt 0.25000 0.00000
vt 0.50000 0.00000
vt 0.75000 0.00000
vt 0.00000 0.50000
vt 0.25000 0.50000
vt 0.50000 0.50000
vt 0.75000 0.50000
vt 0.00000 1.00000
vt 0.25000 1.00000
vt 0.50000 1.00000
vt 0.75000 1.00000
vt 0.00000 0.00000
vt 0.25000 0.00000
vt 0.50000 0.00000
vt 0.75000 0.00000
vt 0.00000 0.50000
vt 0.25000 0.50000
vt 0.50000 0.50000
vt 0.75000 0.50000
vt 0.00000 1.00000
vt 0.25000 1.00000
vt 0.50000 1.00000
vt 0.75000 1.00000
vt 0.00000 0.00000
vt 0.25000 0.00000
vt 0.50000 0.00000
vt 0.75000 0.00000
vt 0.00000 0.50000
vt 0.25000 0.50000
vt 0.50000 0.50000
vt 0.75000 0.50000
vt 0.00000 1.00000
vt 0.25000 1.00000
vt 0.50000 1.00000
vt 0.75000 1.00000
vt 0.00000 0.00000
vt 0.25000 0.00000
vt 0.50000 0.00000
vt 0.75000 0.00000
vt 0.00000 0.50000
vt 0.25000 0.50000
vt 0.50000 0.50000
vt 0.75000 0.50000
vt 0.00000 1.00000
vt 0.25000 1.00000
vt 0.50000 1.00000
vt 0.75000 1.00000
vt 0.00000 0.00000
vt 0.25000 0.00000
vt 0.50000 0.00000
vt 0.75000 0.00000
vt 0.00000 0.50000
vt 0.25000 0.50000
vt 0.50000 0.50000
vt 0.75000 0.50000
vt 0.00000 1.00000
vt 0.25000 1.00000
vt 0.50000 1.00000
vt 0.75000 1.00000
vt 0.00000 0.00000
vt 0.25000 0.00000
vt 0.50000 0.00000
vt 0.75000 0.00000
vt 0.00000 0.50000
vt 0.25000 0.50000
vt 0.50000 0.50000
vt 0.75000 0.50000
vt 0.00000 1.00000
vt 0.25000 1.00000
vt 0.50000 1.00000
vt 0.75000 1.00000
vn 0.6814 0.7113 -0.1726
vn 0.6816 0.7110 -0.1727
vn 0.6814 -0.7023 -0.2063
vn 0.6842 -0.6994 -0.2067
vn -0.6693 -0.7122 0.2117
vn -0.6680 -0.7135 0.2114
vn -0.6693 0.7013 0.2452
vn -0.6708 0.6998 0.2458
vn 0.6510 0.7148 -0.2555
vn 0.6495 0.7165 -0.2547
vn 0.6481 -0.6981 -0.3045
vn 0.6495 -0.6966 -0.3050
vn -0.6359 -0.7147 0.2912
vn -0.6331 -0.7177 0.2900
vn -0.6329 0.6956 0.3400
vn -0.6331 0.6953 0.3401
vn 0.4210 -0.0323 0.9065
vn -0.2957 0.0227 -0.9550
vn 0.7064 0.6854 0.1767
vn 0.7072 0.6846 0.1764
vn 0.7064 -0.6994 -0.1090
vn 0.7046 -0.7011 -0.1096
vn -0.7072 -0.6931 -0.1394
vn -0.7072 0.6917 0.1462
vn -0.7065 0.6925 0.1463
vn 0.7042 0.6649 0.2488
vn 0.7060 0.6632 0.2482
vn 0.7071 -0.6865 -0.1693
vn 0.7060 -0.6876 -0.1697
vn -0.7062 -0.6751 -0.2133
vn -0.7072 -0.6741 -0.2131
vn -0.7073 0.6765 0.2049
vn -0.7072 0.6766 0.2049
vn -0.0321 -0.2955 0.9548
vn 0.0220 0.2020 -0.9791
vn 0.7037 0.6657 0.2486
vn 0.7068 0.6627 0.2475
vn 0.7036 -0.7021 -0.1093
vn 0.6990 -0.7064 -0.1114
vn -0.7070 -0.6781 -0.2010
vn -0.7090 -0.6760 -0.2009
vn -0.7070 0.6896 0.1569
vn -0.7041 0.6925 0.1574
vn 0.6966 0.6291 0.3448
vn 0.7014 0.6247 0.3432
vn 0.7053 -0.6879 -0.1712
vn 0.7014 -0.6914 -0.1733
vn -0.7022 -0.6452 -0.3010
vn -0.7059 -0.6416 -0.3003
vn -0.7081 0.6724 0.2156
vn -0.7059 0.6745 0.2164
vn -0.0965 -0.3637 0.9265
vn 0.0670 0.2526 -0.9652
vn 0.6820 0.7009 0.2089
vn 0.6835 0.6993 0.2090
vn 0.6820 -0.7124 0.1655
vn 0.6806 -0.7139 0.1650
vn -0.6907 -0.7020 -0.1734
vn -0.6931 -0.6995 -0.1742
vn -0.6907 0.7113 -0.1302
vn -0.6904 0.7116 -0.1301
vn 0.6562 0.6950 0.2940
vn 0.6569 0.6942 0.2942
vn 0.6595 -0.7155 0.2304
vn 0.6569 -0.7183 0.2291
vn -0.6675 -0.6974 -0.2609
vn -0.6690 -0.6957 -0.2615
vn -0.6707 0.7151 -0.1970
vn -0.6690 0.7168 -0.1965
vn -0.3474 -0.0431 0.9367
vn 0.2399 0.0298 -0.9703
vn 0.6677 0.6788 0.3055
vn 0.6740 0.6723 0.3060
vn 0.6678 -0.7274 0.1582
vn 0.6619 -0.7334 0.1548
vn -0.6809 -0.6831 -0.2641
vn -0.6875 -0.6756 -0.2664
vn -0.6808 0.7231 -0.1170
vn -0.6765 0.7273 -0.1157
vn 0.6275 0.6560 0.4194
vn 0.3656 0.8654 0.3427
vn 0.6408 -0.7394 0.2065
vn 0.8096 -0.4766 0.3426
vn -0.6408 -0.6613 -0.3899
vn -0.3907 -0.8737 -0.2898
vn -0.6534 0.7362 -0.1763
vn -0.8347 0.4683 -0.2898
vn -0.4248 -0.1405 0.8943
vn 0.3004 0.0994 -0.9486
vn 0.6653 0.7313 0.1501
vn 0.6576 0.7388 0.1475
vn 0.6653 -0.6716 0.3259
vn 0.6724 -0.6634 0.3283
vn -0.6778 -0.7266 -0.1126
vn -0.6725 -0.7320 -0.1095
vn -0.6777 0.6763 -0.2885
vn -0.6863 0.6674 -0.2891
vn 0.6337 0.7465 0.2028
vn 0.8319 0.4416 0.3361
vn 0.6173 -0.6414 0.4556
vn 0.3321 -0.8814 0.3359
vn -0.6533 -0.7405 -0.1579
vn -0.8359 -0.4401 -0.3281
vn -0.6380 0.6506 -0.4119
vn -0.3360 0.8828 -0.3282
vn -0.4393 0.1660 0.8829
vn 0.3127 -0.1181 -0.9425
vn 0.7066 0.6829 -0.1852
vn 0.7090 0.6805 -0.1852
vn 0.7066 -0.6966 0.1243
vn 0.7038 -0.6994 0.1248
vn -0.7029 -0.6726 0.2313
vn -0.7062 -0.6695 0.2304
vn -0.7029 0.7070 -0.0781
vn -0.6985 0.7111 -0.0801
vn 0.7012 0.6555 -0.2803
vn 0.7050 0.6517 -0.2797
vn 0.7076 -0.6858 0.1704
vn 0.7050 -0.6882 0.1714
vn -0.6953 -0.6418 0.3234
vn -0.6999 -0.6375 0.3221
vn -0.7040 0.6988 -0.1268
vn -0.6999 0.7025 -0.1288
vn 0.1126 0.3170 0.9417
vn -0.0776 -0.2183 -0.9728
vn 0.7070 0.6294 -0.3225
vn 0.1111 -0.9742 0.1963
vn 0.7072 -0.6857 0.1722
vn -0.9745 -0.1078 0.1966
vn -0.6454 -0.5522 0.5278
vn -0.1929 0.8900 -0.4131
vn -0.6456 0.7630 0.0335
vn 0.9106 0.0094 -0.4132
vn 0.1996 -0.8799 0.4312
vn 0.2024 -0.8798 0.4301
vn -0.9022 -0.0006 0.4313
vn -0.9028 0.0020 0.4300
vn -0.1868 0.8987 -0.3968
vn -0.1873 0.8987 -0.3965
vn 0.9178 0.0173 -0.3968
vn 0.9179 0.0168 -0.3966
vn 0.3647 0.4570 0.8113
vn -0.2701 -0.3385 -0.9014
vn 0.6932 0.7151 -0.0906
vn 0.6914 0.7169 -0.0898
vn 0.6931 -0.6954 -0.1898
vn 0.6972 -0.6913 -0.1899
vn -0.6835 -0.7180 0.1317
vn -0.6801 -0.7213 0.1311
vn -0.6835 0.6925 0.2309
vn -0.6865 0.6892 0.2318
vn 0.6773 0.7222 -0.1406
vn 0.6741 0.7255 -0.1388
vn 0.6705 -0.6844 -0.2865
vn 0.6741 -0.6806 -0.2871
vn -0.6651 -0.7249 0.1796
vn -0.6604 -0.7296 0.1778
vn -0.6577 0.6796 0.3250
vn -0.6604 0.6765 0.3259
vn 0.3305 -0.0989 0.9386
vn -0.2280 0.0683 -0.9713
f 1/1/1 6/6/1 2/2/1
f 1/1/2 5/5/2 6/6/2
f 2/2/3 7/7/3 3/3/3
f 2/2/4 6/6/4 7/7/4
f 3/3/5 8/8/5 4/4/5
f 3/3/6 7/7/6 8/8/6
f 4/4/7 5/5/7 1/1/7
f 4/4/8 8/8/8 5/5/8
f 5/5/9 10/10/9 6/6/9
f 5/5/10 9/9/10 10/10/10
f 6/6/11 11/11/11 7/7/11
f 6/6/12 10/10/12 11/11/12
f 7/7/13 12/12/13 8/8/13
f 7/7/14 11/11/14 12/12/14
f 8/8/15 9/9/15 5/5/15
f 8/8/16 12/12/16 9/9/16
f 9/9/17 11/11/17 10/10/17
f 9/9/17 12/12/17 11/11/17
f 4/4/18 2/2/18 3/3/18
f 4/4/18 1/1/18 2/2/18
f 13/13/19 18/18/19 14/14/19
f 13/13/20 17/17/20 18/18/20
f 14/14/21 19/19/21 15/15/21
f 14/14/22 18/18/22 19/19/22
f 15/15/23 20/20/23 16/16/23
f 15/15/23 19/19/23 20/20/23
f 16/16/24 17/17/24 13/13/24
f 16/16/25 20/20/25 17/17/25
f 17/17/26 22/22/26 18/18/26
f 17/17/27 21/21/27 22/22/27
f 18/18/28 23/23/28 19/19/28
f 18/18/29 22/22/29 23/23/29
f 19/19/30 24/24/30 20/20/30
f 19/19/31 23/23/31 24/24/31
f 20/20/32 21/21/32 17/17/32
f 20/20/33 24/24/33 21/21/33
f 21/21/34 23/23/34 22/22/34
f 21/21/34 24/24/34 23/23/34
f 16/16/35 14/14/35 15/15/35
f 16/16/35 13/13/35 14/14/35
f 25/25/36 30/30/36 26/26/36
f 25/25/37 29/29/37 30/30/37
f 26/26/38 31/31/38 27/27/38
f 26/26/39 30/30/39 31/31/39
f 27/27/40 32/32/40 28/28/40
f 27/27/41 31/31/41 32/32/41
f 28/28/42 29/29/42 25/25/42
f 28/28/43 32/32/43 29/29/43
f 29/29/44 34/34/44 30/30/44
f 29/29/45 33/33/45 34/34/45
f 30/30/46 35/35/46 31/31/46
f 30/30/47 34/34/47 35/35/47
f 31/31/48 36/36/48 32/32/48
f 31/31/49 35/35/49 36/36/49
f 32/32/50 33/33/50 29/29/50
f 32/32/51 36/36/51 33/33/51
f 33/33/52 35/35/52 34/34/52
f 33/33/52 36/36/52 35/35/52
f 28/28/53 26/26/53 27/27/53
f 28/28/53 25/25/53 26/26/53
f 37/37/54 42/42/54 38/38/54
f 37/37/55 41/41/55 42/42/55
f 38/38/56 43/43/56 39/39/56
f 38/38/57 42/42/57 43/43/57
f 39/39/58 44/44/58 40/40/58
f 39/39/59 43/43/59 44/44/59
f 40/40/60 41/41/60 37/37/60
f 40/40/61 44/44/61 41/41/61
f 41/41/62 46/46/62 42/42/62
f 41/41/63 45/45/63 46/46/63
f 42/42/64 47/47/64 43/43/64
f 42/42/65 46/46/65 47/47/65
f 43/43/66 48/48/66 44/44/66
f 43/43/67 47/47/67 48/48/67
f 44/44/68 45/45/68 41/41/68
f 44/44/69 48/48/69 45/45/69
f 45/45/70 47/47/70 46/46/70
f 45/45/70 48/48/70 47/47/70
f 40/40/71 38/38/71 39/39/71
f 40/40/71 37/37/71 38/38/71
f 49/49/72 54/54/72 50/50/72
f 49/49/73 53/53/73 54/54/73
f 50/50/74 55/55/74 51/51/74
f 50/50/75 54/54/75 55/55/75
f 51/51/76 56/56/76 52/52/76
f 51/51/77 55/55/77 56/56/77
f 52/52/78 53/53/78 49/49/78
f 52/52/79 56/56/79 53/53/79
f 53/53/80 58/58/80 54/54/80
f 53/53/81 57/57/81 58/58/81
f 54/54/82 59/59/82 55/55/82
f 54/54/83 58/58/83 59/59/83
f 55/55/84 60/60/84 56/56/84
f 55/55/85 59/59/85 60/60/85
f 56/56/86 57/57/86 53/53/86
f 56/56/87 60/60/87 57/57/87
f 57/57/88 59/59/88 58/58/88
f 57/57/88 60/60/88 59/59/88
f 52/52/89 50/50/89 51/51/89
f 52/52/89 49/49/89 50/50/89
f 61/61/90 66/66/90 62/62/90
f 61/61/91 65/65/91 66/66/91
f 62/62/92 67/67/92 63/63/92
f 62/62/93 66/66/93 67/67/93
f 63/63/94 68/68/94 64/64/94
f 63/63/95 67/67/95 68/68/95
f 64/64/96 65/65/96 61/61/96
f 64/64/97 68/68/97 65/65/97
f 65/65/98 70/70/98 66/66/98
f 65/65/99 69/69/99 70/70/99
f 66/66/100 71/71/100 67/67/100
f 66/66/101 70/70/101 71/71/101
f 67/67/102 72/72/102 68/68/102
f 67/67/103 71/71/103 72/72/103
f 68/68/104 69/69/104 65/65/104
f 68/68/105 72/72/105 69/69/105
f 69/69/106 71/71/106 70/70/106
f 69/69/106 72/72/106 71/71/106
f 64/64/107 62/62/107 63/63/107
f 64/64/107 61/61/107 62/62/107
f 73/73/108 78/78/108 74/74/108
f 73/73/109 77/77/109 78/78/109
f 74/74/110 79/79/110 75/75/110
f 74/74/111 78/78/111 79/79/111
f 75/75/112 80/80/112 76/76/112
f 75/75/113 79/79/113 80/80/113
f 76/76/114 77/77/114 73/73/114
f 76/76/115 80/80/115 77/77/115
f 77/77/116 82/82/116 78/78/116
f 77/77/117 81/81/117 82/82/117
f 78/78/118 83/83/118 79/79/118
f 78/78/119 82/82/119 83/83/119
f 79/79/120 84/84/120 80/80/120
f 79/79/121 83/83/121 84/84/121
f 80/80/122 81/81/122 77/77/122
f 80/80/123 84/84/123 81/81/123
f 81/81/124 83/83/124 82/82/124
f 81/81/124 84/84/124 83/83/124
f 76/76/125 74/74/125 75/75/125
f 76/76/125 73/73/125 74/74/125
f 85/85/126 90/90/126 86/86/126
f 85/85/127 89/89/127 90/90/127
f 86/86/128 91/91/128 87/87/128
f 86/86/129 90/90/129 91/91/129
f 87/87/130 92/92/130 88/88/130
f 87/87/131 91/91/131 92/92/131
f 88/88/132 89/89/132 85/85/132
f 88/88/133 92/92/133 89/89/133
f 89/89/134 94/94/134 90/90/134
f 89/89/135 93/93/135 94/94/135
f 90/90/136 95/95/136 91/91/136
f 90/90/137 94/94/137 95/95/137
f 91/91/138 96/96/138 92/92/138
f 91/91/139 95/95/139 96/96/139
f 92/92/140 93/93/140 89/89/140
f 92/92/141 96/96/141 93/93/141
f 93/93/142 95/95/142 94/94/142
f 93/93/142 96/96/142 95/95/142
f 88/88/143 86/86/143 87/87/143
f 88/88/143 85/85/143 86/86/143
f 97/97/144 102/102/144 98/98/144
f 97/97/145 101/101/145 102/102/145
f 98/98/146 103/103/146 99/99/146
f 98/98/147 102/102/147 103/103/147
f 99/99/148 104/104/148 100/100/148
f 99/99/149 103/103/149 104/104/149
f 100/100/150 101/101/150 97/97/150
f 100/100/151 104/104/151 101/101/151
f 101/101/152 106/106/152 102/102/152
f 101/101/153 105/105/153 106/106/153
f 102/102/154 107/107/154 103/103/154
f 102/102/155 106/106/155 107/107/155
f 103/103/156 108/108/156 104/104/156
f 103/103/157 107/107/157 108/108/157
f 104/104/158 105/105/158 101/101/158
f 104/104/159 108/108/159 105/105/159
f 105/105/160 107/107/160 106/106/160
f 105/105/160 108/108/160 107/107/160
f 100/100/161 98/98/161 99/99/161
f 100/100/161 97/97/161 98/98/161
