# JudeanFloraV1; canonical UE cm (X east, +Y south, Z up), written with Y reflected and triangle winding reversed for the legacy OBJ importer adapter. One o object, no g groups, so the importer creates exactly one material slot.
# hyssop (ezov) (Origanum syriacum), LOD1 bark
# height range 0.3-0.7 m, crown 0.3-0.7 m; source: Zohary & Feinbrun-Dothan, Flora Palaestina vols I-IV (Israel Academy of Sciences, 1966-1986), species entry Origanum syriacum; 0.3-0.7 m
# part kinds and their winding checks are recorded in vegetation-manifest.json
o SM_JudeanFloraV1_Hyssop_L1_Bark
s off
v 0.00000 1.59955 0.03794
v 1.52845 0.01122 -0.47297
v 0.00000 -1.59955 -0.03794
v -1.52845 -0.01122 0.47297
v 6.14099 0.52907 19.86377
v 7.07363 -0.45980 19.47350
v 6.14099 -1.47005 19.80450
v 5.20834 -0.48119 20.19477
v 15.35247 -0.77649 39.68250
v 15.71529 -1.17024 39.49998
v 15.35247 -1.57598 39.65405
v 14.98964 -1.18222 39.83656
v 0.00000 1.58945 0.18347
v 1.57702 -0.03098 0.26840
v 0.00000 -1.58945 -0.18347
v -1.57702 0.03098 -0.26840
v -3.77804 -1.53888 22.04908
v -2.80006 -2.55843 22.11280
v -3.77804 -3.51838 21.76346
v -4.75603 -2.49883 21.69973
v -9.44510 -5.92743 43.88078
v -9.05750 -6.33843 43.90989
v -9.44510 -6.71571 43.74430
v -9.83271 -6.30471 43.71518
v 0.00000 1.58974 -0.18091
v 1.55436 0.04290 0.37701
v 0.00000 -1.58974 0.18091
v -1.55436 -0.04290 -0.37701
v -4.11724 2.89699 16.61676
v -3.16048 1.94792 17.04559
v -4.11724 0.91692 16.89841
v -5.07399 1.86599 16.46958
v -10.29309 5.16169 33.44787
v -9.91713 4.79037 33.64981
v -10.29309 4.37309 33.58248
v -10.66905 4.74441 33.38054
v 0.00000 1.58226 -0.23763
v 1.56996 -0.04583 -0.30514
v 0.00000 -1.58226 0.23763
v -1.56996 0.04583 0.30514
v 4.50560 4.38746 22.48538
v 5.47706 3.36086 22.43676
v 4.50560 2.42179 22.85439
v 3.53414 3.44839 22.90301
v 11.26399 8.90178 45.25186
v 11.64807 8.48701 45.23079
v 11.26399 8.12134 45.42768
v 10.87990 8.53611 45.44874
vt 0.00000 0.00000
vt 0.25000 0.00000
vt 0.50000 0.00000
vt 0.75000 0.00000
vt 0.00000 0.50000
vt 0.25000 0.50000
vt 0.50000 0.50000
vt 0.75000 0.50000
vt 0.00000 1.00000
vt 0.25000 1.00000
vt 0.50000 1.00000
vt 0.75000 1.00000
vt 0.00000 0.00000
vt 0.25000 0.00000
vt 0.50000 0.00000
vt 0.75000 0.00000
vt 0.00000 0.50000
vt 0.25000 0.50000
vt 0.50000 0.50000
vt 0.75000 0.50000
vt 0.00000 1.00000
vt 0.25000 1.00000
vt 0.50000 1.00000
vt 0.75000 1.00000
vt 0.00000 0.00000
vt 0.25000 0.00000
vt 0.50000 0.00000
vt 0.75000 0.00000
vt 0.00000 0.50000
vt 0.25000 0.50000
vt 0.50000 0.50000
vt 0.75000 0.50000
vt 0.00000 1.00000
vt 0.25000 1.00000
vt 0.50000 1.00000
vt 0.75000 1.00000
vt 0.00000 0.00000
vt 0.25000 0.00000
vt 0.50000 0.00000
vt 0.75000 0.00000
vt 0.00000 0.50000
vt 0.25000 0.50000
vt 0.50000 0.50000
vt 0.75000 0.50000
vt 0.00000 1.00000
vt 0.25000 1.00000
vt 0.50000 1.00000
vt 0.75000 1.00000
vn 0.6814 0.7113 -0.1726
vn 0.6816 0.7110 -0.1727
vn 0.6814 -0.7023 -0.2063
vn 0.6842 -0.6994 -0.2067
vn -0.6693 -0.7122 0.2117
vn -0.6680 -0.7135 0.2114
vn -0.6693 0.7013 0.2452
vn -0.6708 0.6998 0.2458
vn 0.6510 0.7148 -0.2555
vn 0.6495 0.7165 -0.2547
vn 0.6481 -0.6981 -0.3045
vn 0.6495 -0.6966 -0.3050
vn -0.6359 -0.7147 0.2912
vn -0.6331 -0.7177 0.2900
vn -0.6329 0.6956 0.3400
vn -0.6331 0.6953 0.3401
vn 0.4210 -0.0323 0.9065
vn -0.2957 0.0227 -0.9550
vn 0.6936 0.6865 0.2184
vn 0.6974 0.6826 0.2182
vn 0.6936 -0.7182 0.0563
vn 0.6895 -0.7223 0.0546
vn -0.7001 -0.6908 -0.1809
vn -0.7040 -0.6866 -0.1815
vn -0.7001 0.7138 -0.0188
vn -0.6970 0.7168 -0.0183
vn 0.6763 0.6682 0.3100
vn 0.6806 0.6638 0.3101
vn 0.6856 -0.7245 0.0714
vn 0.6806 -0.7294 0.0689
vn -0.6853 -0.6745 -0.2746
vn -0.6896 -0.6699 -0.2752
vn -0.6936 0.7195 -0.0354
vn -0.6896 0.7234 -0.0340
vn -0.2470 -0.1653 0.9548
vn 0.1689 0.1130 -0.9791
vn 0.6810 0.7240 0.1099
vn 0.6751 0.7297 0.1087
vn 0.6810 -0.6808 0.2698
vn 0.6859 -0.6752 0.2712
vn -0.6925 -0.7187 -0.0632
vn -0.6889 -0.7222 -0.0614
vn -0.6925 0.6861 -0.2231
vn -0.6985 0.6800 -0.2230
vn 0.6635 0.7341 0.1443
vn 0.6563 0.7412 0.1411
vn 0.6513 -0.6583 0.3775
vn 0.6564 -0.6525 0.3788
vn -0.6777 -0.7285 -0.1002
vn -0.6725 -0.7337 -0.0970
vn -0.6666 0.6663 -0.3342
vn -0.6725 0.6600 -0.3348
vn -0.3415 0.1581 0.9265
vn 0.2372 -0.1098 -0.9652
vn 0.6973 0.6816 -0.2219
vn 0.7028 0.6756 -0.2228
vn 0.6973 -0.7167 -0.0120
vn 0.6925 -0.7213 -0.0109
vn -0.6902 -0.6762 0.2577
vn -0.6958 -0.6706 0.2573
vn -0.6902 0.7221 0.0477
vn -0.6843 0.7279 0.0450
vn 0.6775 0.6568 -0.3311
vn 0.6837 0.6500 -0.3318
vn 0.6895 -0.7239 -0.0237
vn 0.6837 -0.7295 -0.0210
vn -0.6678 -0.6492 0.3641
vn -0.6741 -0.6427 0.3641
vn -0.6810 0.7300 0.0574
vn -0.6741 0.7367 0.0534
vn 0.2793 0.2110 0.9367
vn -0.1929 -0.1457 -0.9703
f 1/1/1 6/6/1 2/2/1
f 1/1/2 5/5/2 6/6/2
f 2/2/3 7/7/3 3/3/3
f 2/2/4 6/6/4 7/7/4
f 3/3/5 8/8/5 4/4/5
f 3/3/6 7/7/6 8/8/6
f 4/4/7 5/5/7 1/1/7
f 4/4/8 8/8/8 5/5/8
f 5/5/9 10/10/9 6/6/9
f 5/5/10 9/9/10 10/10/10
f 6/6/11 11/11/11 7/7/11
f 6/6/12 10/10/12 11/11/12
f 7/7/13 12/12/13 8/8/13
f 7/7/14 11/11/14 12/12/14
f 8/8/15 9/9/15 5/5/15
f 8/8/16 12/12/16 9/9/16
f 9/9/17 11/11/17 10/10/17
f 9/9/17 12/12/17 11/11/17
f 4/4/18 2/2/18 3/3/18
f 4/4/18 1/1/18 2/2/18
f 13/13/19 18/18/19 14/14/19
f 13/13/20 17/17/20 18/18/20
f 14/14/21 19/19/21 15/15/21
f 14/14/22 18/18/22 19/19/22
f 15/15/23 20/20/23 16/16/23
f 15/15/24 19/19/24 20/20/24
f 16/16/25 17/17/25 13/13/25
f 16/16/26 20/20/26 17/17/26
f 17/17/27 22/22/27 18/18/27
f 17/17/28 21/21/28 22/22/28
f 18/18/29 23/23/29 19/19/29
f 18/18/30 22/22/30 23/23/30
f 19/19/31 24/24/31 20/20/31
f 19/19/32 23/23/32 24/24/32
f 20/20/33 21/21/33 17/17/33
f 20/20/34 24/24/34 21/21/34
f 21/21/35 23/23/35 22/22/35
f 21/21/35 24/24/35 23/23/35
f 16/16/36 14/14/36 15/15/36
f 16/16/36 13/13/36 14/14/36
f 25/25/37 30/30/37 26/26/37
f 25/25/38 29/29/38 30/30/38
f 26/26/39 31/31/39 27/27/39
f 26/26/40 30/30/40 31/31/40
f 27/27/41 32/32/41 28/28/41
f 27/27/42 31/31/42 32/32/42
f 28/28/43 29/29/43 25/25/43
f 28/28/44 32/32/44 29/29/44
f 29/29/45 34/34/45 30/30/45
f 29/29/46 33/33/46 34/34/46
f 30/30/47 35/35/47 31/31/47
f 30/30/48 34/34/48 35/35/48
f 31/31/49 36/36/49 32/32/49
f 31/31/50 35/35/50 36/36/50
f 32/32/51 33/33/51 29/29/51
f 32/32/52 36/36/52 33/33/52
f 33/33/53 35/35/53 34/34/53
f 33/33/53 36/36/53 35/35/53
f 28/28/54 26/26/54 27/27/54
f 28/28/54 25/25/54 26/26/54
f 37/37/55 42/42/55 38/38/55
f 37/37/56 41/41/56 42/42/56
f 38/38/57 43/43/57 39/39/57
f 38/38/58 42/42/58 43/43/58
f 39/39/59 44/44/59 40/40/59
f 39/39/60 43/43/60 44/44/60
f 40/40/61 41/41/61 37/37/61
f 40/40/62 44/44/62 41/41/62
f 41/41/63 46/46/63 42/42/63
f 41/41/64 45/45/64 46/46/64
f 42/42/65 47/47/65 43/43/65
f 42/42/66 46/46/66 47/47/66
f 43/43/67 48/48/67 44/44/67
f 43/43/68 47/47/68 48/48/68
f 44/44/69 45/45/69 41/41/69
f 44/44/70 48/48/70 45/45/70
f 45/45/71 47/47/71 46/46/71
f 45/45/71 48/48/71 47/47/71
f 40/40/72 38/38/72 39/39/72
f 40/40/72 37/37/72 38/38/72
