# JudeanFloraV1; canonical UE cm (X east, +Y south, Z up), written with Y reflected and triangle winding reversed for the legacy OBJ importer adapter. One o object, no g groups, so the importer creates exactly one material slot.
# Judean sage (Salvia fruticosa), LOD0 bark
# height range 0.5-1.0 m, crown 0.6-1.2 m; source: Zohary & Feinbrun-Dothan, Flora Palaestina vols I-IV (Israel Academy of Sciences, 1966-1986), species entry Salvia fruticosa; a dwarf shrub of 0.5-1.0 m
# part kinds and their winding checks are recorded in vegetation-manifest.json
o SM_JudeanFloraV1_Sage_L0_Bark
s off
v 0.00000 2.74451 0.55465
v 2.70858 0.14057 -0.69558
v 0.00000 -2.74451 -0.55465
v -2.70858 -0.14057 0.69558
v 8.32556 -4.59808 31.57623
v 9.99038 -6.16269 30.62473
v 8.32556 -7.99148 30.71899
v 6.66073 -6.42687 31.67049
v 20.39172 -16.29531 62.29522
v 20.31500 -15.35974 62.60959
v 21.23606 -15.17858 62.29522
v 21.31278 -16.11414 61.98085
v 0.00000 2.55056 1.15526
v 2.79278 0.08289 -0.18301
v 0.00000 -2.55056 -1.15526
v -2.79278 -0.08289 0.18301
v 0.71617 -14.29558 30.89787
v 2.17955 -12.50027 31.76988
v 4.16415 -13.69440 30.89787
v 2.70078 -15.48971 30.02587
v 5.41081 -35.10771 61.79574
v 6.00143 -34.41979 62.19316
v 6.79001 -34.86724 61.79574
v 6.19939 -35.55516 61.39833
v 0.00000 2.71713 0.67619
v 2.71021 -0.16986 0.68257
v 0.00000 -2.71713 -0.67619
v -2.71021 0.16986 -0.68257
v -9.34612 -7.02557 35.46534
v -7.67900 -8.85466 35.45368
v -9.34612 -10.36760 34.42571
v -11.01324 -8.53851 34.43736
v -23.84215 -21.22900 69.89104
v -22.91590 -21.32329 70.22744
v -22.88846 -22.25392 69.89104
v -23.81471 -22.15964 69.55465
v 0.00000 2.78603 0.27939
v 2.69493 -0.07582 0.75605
v 0.00000 -2.78603 -0.27939
v -2.69493 0.07582 -0.75605
v -9.96543 -1.79033 35.38539
v -8.31443 -3.59891 35.74348
v -9.96543 -5.26315 34.95006
v -11.61643 -3.45457 34.59197
v -24.91357 -8.12464 70.43958
v -24.26825 -8.85720 70.60368
v -24.91357 -9.50906 70.23133
v -25.55888 -8.77650 70.06723
v 0.00000 2.78346 -0.30390
v 2.69072 0.08407 0.77004
v 0.00000 -2.78346 0.30390
v -2.69072 -0.08407 -0.77004
v -8.73345 5.02655 29.92068
v -7.08620 3.37251 30.74271
v -8.73345 1.55869 30.39396
v -10.38070 3.21273 29.57193
v -21.83362 8.92235 60.20150
v -21.19024 8.27613 60.58682
v -21.83362 7.54076 60.42777
v -22.47699 8.18698 60.04246
v 0.00000 2.64329 -0.92360
v 2.79112 0.07351 0.21038
v 0.00000 -2.64329 0.92360
v -2.79112 -0.07351 -0.21038
v -2.59700 12.33248 30.00482
v -0.85515 10.79632 30.85991
v -2.59700 9.12507 31.40570
v -4.33884 10.66123 30.55061
v -5.81214 26.98663 61.41052
v -6.34754 26.22311 61.74277
v -7.17284 26.65726 61.41052
v -6.63744 27.42077 61.07827
v 0.00000 2.72467 -0.64511
v 2.78838 -0.05871 -0.24796
v 0.00000 -2.72467 0.64511
v -2.78838 0.05871 0.24796
v 2.55272 8.11383 26.68534
v 4.29174 6.38023 26.99427
v 2.55272 4.75773 27.67861
v 0.81370 6.49133 27.36967
v 6.38179 16.74909 54.12968
v 7.07571 16.05863 54.27714
v 6.38179 15.42982 54.59821
v 5.68788 16.12028 54.45075
v 2.05264 -1.90438 0.00000
v -1.68895 -1.82044 1.29361
v -2.05264 1.90438 0.00000
v 1.68895 1.82044 -1.29361
v 11.06626 9.35475 27.61266
v 8.78595 9.46993 28.56760
v 8.50046 11.73523 27.61266
v 10.78078 11.62005 26.65773
v 24.97157 25.88638 55.22532
v 24.08326 25.95812 55.65633
v 23.94525 26.83857 55.22532
v 24.83356 26.76683 54.79432
v 0.00000 2.79883 0.08103
v 2.60859 0.02945 -1.01705
v 0.00000 -2.79883 -0.08103
v -2.60859 -0.02945 1.01705
v 9.49794 -2.45955 24.67241
v 8.05970 -0.59802 25.44130
v 9.75692 1.03086 24.67241
v 11.19516 -0.83067 23.90352
v 24.01678 -2.48394 49.34481
v 23.46653 -1.74119 49.69914
v 24.12037 -1.08778 49.34481
v 24.67062 -1.83053 48.99049
vt 0.00000 0.00000
vt 0.25000 0.00000
vt 0.50000 0.00000
vt 0.75000 0.00000
vt 0.00000 0.50000
vt 0.25000 0.50000
vt 0.50000 0.50000
vt 0.75000 0.50000
vt 0.00000 1.00000
vt 0.25000 1.00000
vt 0.50000 1.00000
vt 0.75000 1.00000
vt 0.00000 0.00000
vt 0.25000 0.00000
vt 0.50000 0.00000
vt 0.75000 0.00000
vt 0.00000 0.50000
vt 0.25000 0.50000
vt 0.50000 0.50000
vt 0.75000 0.50000
vt 0.00000 1.00000
vt 0.25000 1.00000
vt 0.50000 1.00000
vt 0.75000 1.00000
vt 0.00000 0.00000
vt 0.25000 0.00000
vt 0.50000 0.00000
vt 0.75000 0.00000
vt 0.00000 0.50000
vt 0.25000 0.50000
vt 0.50000 0.50000
vt 0.75000 0.50000
vt 0.00000 1.00000
vt 0.25000 1.00000
vt 0.50000 1.00000
vt 0.75000 1.00000
vt 0.00000 0.00000
vt 0.25000 0.00000
vt 0.50000 0.00000
vt 0.75000 0.00000
vt 0.00000 0.50000
vt 0.25000 0.50000
vt 0.50000 0.50000
vt 0.75000 0.50000
vt 0.00000 1.00000
vt 0.25000 1.00000
vt 0.50000 1.00000
vt 0.75000 1.00000
vt 0.00000 0.00000
vt 0.25000 0.00000
vt 0.50000 0.00000
vt 0.75000 0.00000
vt 0.00000 0.50000
vt 0.25000 0.50000
vt 0.50000 0.50000
vt 0.75000 0.50000
vt 0.00000 1.00000
vt 0.25000 1.00000
vt 0.50000 1.00000
vt 0.75000 1.00000
vt 0.00000 0.00000
vt 0.25000 0.00000
vt 0.50000 0.00000
vt 0.75000 0.00000
vt 0.00000 0.50000
vt 0.25000 0.50000
vt 0.50000 0.50000
vt 0.75000 0.50000
vt 0.00000 1.00000
vt 0.25000 1.00000
vt 0.50000 1.00000
vt 0.75000 1.00000
vt 0.00000 0.00000
vt 0.25000 0.00000
vt 0.50000 0.00000
vt 0.75000 0.00000
vt 0.00000 0.50000
vt 0.25000 0.50000
vt 0.50000 0.50000
vt 0.75000 0.50000
vt 0.00000 1.00000
vt 0.25000 1.00000
vt 0.50000 1.00000
vt 0.75000 1.00000
vt 0.00000 0.00000
vt 0.25000 0.00000
vt 0.50000 0.00000
vt 0.75000 0.00000
vt 0.00000 0.50000
vt 0.25000 0.50000
vt 0.50000 0.50000
vt 0.75000 0.50000
vt 0.00000 1.00000
vt 0.25000 1.00000
vt 0.50000 1.00000
vt 0.75000 1.00000
vt 0.00000 0.00000
vt 0.25000 0.00000
vt 0.50000 0.00000
vt 0.75000 0.00000
vt 0.00000 0.50000
vt 0.25000 0.50000
vt 0.50000 0.50000
vt 0.75000 0.50000
vt 0.00000 1.00000
vt 0.25000 1.00000
vt 0.50000 1.00000
vt 0.75000 1.00000
vn 0.6895 0.7242 -0.0146
vn 0.6818 0.7315 -0.0098
vn 0.6895 -0.6617 -0.2946
vn 0.6993 -0.6517 -0.2937
vn -0.6783 -0.7326 0.0565
vn -0.6676 -0.7426 0.0531
vn -0.6782 0.6532 0.3366
vn -0.6871 0.6430 0.3383
vn 0.6818 0.7314 -0.0098
vn -0.9371 -0.1778 0.3004
vn 0.6627 -0.6246 -0.4131
vn -0.0843 0.9501 0.3004
vn -0.6583 -0.7486 0.0790
vn 0.9233 0.1882 -0.3347
vn -0.6363 0.6040 0.4799
vn 0.0707 -0.9397 -0.3345
vn 0.3582 -0.2709 0.8935
vn -0.2534 0.1916 -0.9482
vn 0.7070 0.6533 0.2708
vn -0.8053 0.5074 0.3068
vn 0.7070 -0.6344 -0.3124
vn 0.5860 0.7500 0.3066
vn -0.7030 -0.6764 -0.2198
vn 0.8061 -0.5186 -0.2850
vn -0.7030 0.6114 0.3632
vn -0.5831 -0.7607 -0.2854
vn -0.7928 0.4429 0.4187
vn -0.7945 0.4408 0.4177
vn 0.5962 0.6850 0.4187
vn 0.5984 0.6838 0.4175
vn 0.7980 -0.4633 -0.3853
vn 0.7984 -0.4630 -0.3851
vn -0.5941 -0.7061 -0.3853
vn -0.5946 -0.7058 -0.3851
vn 0.0975 -0.5593 0.8232
vn -0.0718 0.4115 -0.9086
vn 0.6791 0.6383 0.3624
vn 0.6904 0.6269 0.3610
vn 0.6791 -0.7337 0.0209
vn 0.6674 -0.7446 0.0134
vn -0.6895 -0.6480 -0.3237
vn -0.7000 -0.6359 -0.3250
vn -0.6894 0.7241 0.0176
vn -0.6791 0.7338 0.0214
vn 0.6449 0.5847 0.4922
vn -0.0387 0.9294 0.3671
vn 0.6697 -0.7426 0.0068
vn 0.9242 -0.1055 0.3671
vn -0.6543 -0.5934 -0.4687
vn 0.0166 -0.9499 -0.3120
vn -0.6779 0.7349 0.0178
vn -0.9463 0.0849 -0.3120
vn -0.3518 -0.3274 0.8770
vn 0.2512 0.2338 -0.9393
vn 0.6749 0.6823 0.2811
vn 0.6803 0.6768 0.2813
vn 0.6749 -0.7245 0.1400
vn 0.6697 -0.7298 0.1372
vn -0.6860 -0.6863 -0.2417
vn -0.6918 -0.6798 -0.2435
vn -0.6860 0.7206 -0.1008
vn -0.6822 0.7243 -0.0998
vn 0.6393 0.6613 0.3923
vn 0.6444 0.6558 0.3933
vn 0.6512 -0.7354 0.1874
vn 0.6444 -0.7425 0.1829
vn -0.6536 -0.6673 -0.3570
vn -0.6591 -0.6610 -0.3588
vn -0.6648 0.7316 -0.1513
vn -0.6591 0.7373 -0.1484
vn -0.3875 -0.1371 0.9116
vn 0.2714 0.0960 -0.9577
vn 0.6729 0.7264 0.1398
vn 0.6666 0.7325 0.1382
vn 0.6729 -0.6791 0.2933
vn 0.6784 -0.6728 0.2951
vn -0.6858 -0.7215 -0.0954
vn -0.6819 -0.7255 -0.0932
vn -0.6858 0.6839 -0.2489
vn -0.6926 0.6769 -0.2491
vn 0.6487 0.7381 0.1853
vn 0.6408 0.7460 0.1812
vn 0.6355 -0.6556 0.4078
vn 0.6409 -0.6493 0.4095
vn -0.6644 -0.7333 -0.1441
vn -0.6587 -0.7393 -0.1401
vn -0.6522 0.6630 -0.3675
vn -0.6587 0.6560 -0.3686
vn -0.3940 0.1485 0.9070
vn 0.2766 -0.1043 -0.9553
vn 0.7029 0.6933 -0.1589
vn 0.6961 0.6998 -0.1608
vn 0.7029 -0.6414 0.3075
vn 0.7072 -0.6369 0.3069
vn -0.7065 -0.6785 0.2012
vn -0.7019 -0.6825 0.2037
vn -0.7065 0.6563 -0.2649
vn -0.7096 0.6534 -0.2637
vn 0.7031 0.6782 -0.2138
vn 0.8376 -0.4572 0.2991
vn 0.6895 -0.5746 0.4409
vn -0.5358 -0.7896 0.2991
vn -0.7095 -0.6389 0.2974
vn -0.8284 0.4193 -0.3713
vn -0.7023 0.6148 -0.3588
vn 0.5450 0.7516 -0.3716
vn -0.1117 0.4613 0.8802
vn 0.0796 -0.3288 -0.9410
vn 0.7064 0.6792 -0.1995
vn 0.7094 0.6760 -0.1996
vn 0.7063 -0.6965 0.1261
vn 0.7029 -0.6999 0.1266
vn -0.7015 -0.6669 0.2513
vn -0.7055 -0.6631 0.2502
vn -0.7015 0.7088 -0.0742
vn -0.6962 0.7138 -0.0768
vn 0.6995 0.6480 -0.3013
vn 0.7041 0.6434 -0.3007
vn 0.7073 -0.6858 0.1713
vn 0.7041 -0.6889 0.1725
vn -0.6919 -0.6319 0.3492
vn -0.6974 -0.6267 0.3476
vn -0.7024 0.7011 -0.1226
vn -0.6974 0.7056 -0.1254
vn 0.1316 0.3318 0.9341
vn -0.0910 -0.2294 -0.9691
vn 0.0993 -0.9323 0.3478
vn 0.0986 -0.9323 0.3480
vn -0.9371 0.0293 0.3477
vn -0.9370 0.0286 0.3480
vn -0.0842 0.9486 -0.3052
vn -0.0806 0.9483 -0.3068
vn 0.9521 -0.0131 -0.3055
vn 0.9519 -0.0092 -0.3064
vn 0.1454 -0.8795 0.4532
vn 0.1483 -0.8796 0.4520
vn -0.8878 0.0792 0.4533
vn -0.8884 0.0819 0.4518
vn -0.1300 0.8987 -0.4189
vn -0.1305 0.8987 -0.4186
vn 0.9059 -0.0624 -0.4188
vn 0.9060 -0.0629 -0.4186
vn 0.4188 0.4514 0.7880
vn -0.3142 -0.3387 -0.8869
vn 0.6965 0.7063 -0.1267
vn -0.7506 -0.6429 0.1524
vn 0.6967 -0.6977 -0.1667
vn -0.6480 0.7465 0.1512
vn -0.6116 -0.7125 0.3439
vn 0.6594 0.6589 -0.3619
vn -0.6118 0.6914 0.3842
vn 0.5553 -0.7491 -0.3612
vn -0.6488 -0.6587 0.3810
vn -0.6472 -0.6608 0.3802
vn -0.5445 0.7472 0.3811
vn -0.5427 0.7491 0.3800
vn 0.6734 0.6588 -0.3354
vn 0.5688 -0.7510 -0.3354
vn 0.5687 -0.7510 -0.3354
vn 0.5048 -0.0375 0.8624
vn -0.3634 0.0270 -0.9312
f 1/1/1 6/6/1 2/2/1
f 1/1/2 5/5/2 6/6/2
f 2/2/3 7/7/3 3/3/3
f 2/2/4 6/6/4 7/7/4
f 3/3/5 8/8/5 4/4/5
f 3/3/6 7/7/6 8/8/6
f 4/4/7 5/5/7 1/1/7
f 4/4/8 8/8/8 5/5/8
f 5/5/9 10/10/9 6/6/9
f 5/5/10 9/9/10 10/10/10
f 6/6/11 11/11/11 7/7/11
f 6/6/12 10/10/12 11/11/12
f 7/7/13 12/12/13 8/8/13
f 7/7/14 11/11/14 12/12/14
f 8/8/15 9/9/15 5/5/15
f 8/8/16 12/12/16 9/9/16
f 9/9/17 11/11/17 10/10/17
f 9/9/17 12/12/17 11/11/17
f 4/4/18 2/2/18 3/3/18
f 4/4/18 1/1/18 2/2/18
f 13/13/19 18/18/19 14/14/19
f 13/13/20 17/17/20 18/18/20
f 14/14/21 19/19/21 15/15/21
f 14/14/22 18/18/22 19/19/22
f 15/15/23 20/20/23 16/16/23
f 15/15/24 19/19/24 20/20/24
f 16/16/25 17/17/25 13/13/25
f 16/16/26 20/20/26 17/17/26
f 17/17/27 22/22/27 18/18/27
f 17/17/28 21/21/28 22/22/28
f 18/18/29 23/23/29 19/19/29
f 18/18/30 22/22/30 23/23/30
f 19/19/31 24/24/31 20/20/31
f 19/19/32 23/23/32 24/24/32
f 20/20/33 21/21/33 17/17/33
f 20/20/34 24/24/34 21/21/34
f 21/21/35 23/23/35 22/22/35
f 21/21/35 24/24/35 23/23/35
f 16/16/36 14/14/36 15/15/36
f 16/16/36 13/13/36 14/14/36
f 25/25/37 30/30/37 26/26/37
f 25/25/38 29/29/38 30/30/38
f 26/26/39 31/31/39 27/27/39
f 26/26/40 30/30/40 31/31/40
f 27/27/41 32/32/41 28/28/41
f 27/27/42 31/31/42 32/32/42
f 28/28/43 29/29/43 25/25/43
f 28/28/44 32/32/44 29/29/44
f 29/29/45 34/34/45 30/30/45
f 29/29/46 33/33/46 34/34/46
f 30/30/47 35/35/47 31/31/47
f 30/30/48 34/34/48 35/35/48
f 31/31/49 36/36/49 32/32/49
f 31/31/50 35/35/50 36/36/50
f 32/32/51 33/33/51 29/29/51
f 32/32/52 36/36/52 33/33/52
f 33/33/53 35/35/53 34/34/53
f 33/33/53 36/36/53 35/35/53
f 28/28/54 26/26/54 27/27/54
f 28/28/54 25/25/54 26/26/54
f 37/37/55 42/42/55 38/38/55
f 37/37/56 41/41/56 42/42/56
f 38/38/57 43/43/57 39/39/57
f 38/38/58 42/42/58 43/43/58
f 39/39/59 44/44/59 40/40/59
f 39/39/60 43/43/60 44/44/60
f 40/40/61 41/41/61 37/37/61
f 40/40/62 44/44/62 41/41/62
f 41/41/63 46/46/63 42/42/63
f 41/41/64 45/45/64 46/46/64
f 42/42/65 47/47/65 43/43/65
f 42/42/66 46/46/66 47/47/66
f 43/43/67 48/48/67 44/44/67
f 43/43/68 47/47/68 48/48/68
f 44/44/69 45/45/69 41/41/69
f 44/44/70 48/48/70 45/45/70
f 45/45/71 47/47/71 46/46/71
f 45/45/71 48/48/71 47/47/71
f 40/40/72 38/38/72 39/39/72
f 40/40/72 37/37/72 38/38/72
f 49/49/73 54/54/73 50/50/73
f 49/49/74 53/53/74 54/54/74
f 50/50/75 55/55/75 51/51/75
f 50/50/76 54/54/76 55/55/76
f 51/51/77 56/56/77 52/52/77
f 51/51/78 55/55/78 56/56/78
f 52/52/79 53/53/79 49/49/79
f 52/52/80 56/56/80 53/53/80
f 53/53/81 58/58/81 54/54/81
f 53/53/82 57/57/82 58/58/82
f 54/54/83 59/59/83 55/55/83
f 54/54/84 58/58/84 59/59/84
f 55/55/85 60/60/85 56/56/85
f 55/55/86 59/59/86 60/60/86
f 56/56/87 57/57/87 53/53/87
f 56/56/88 60/60/88 57/57/88
f 57/57/89 59/59/89 58/58/89
f 57/57/89 60/60/89 59/59/89
f 52/52/90 50/50/90 51/51/90
f 52/52/90 49/49/90 50/50/90
f 61/61/91 66/66/91 62/62/91
f 61/61/92 65/65/92 66/66/92
f 62/62/93 67/67/93 63/63/93
f 62/62/94 66/66/94 67/67/94
f 63/63/95 68/68/95 64/64/95
f 63/63/96 67/67/96 68/68/96
f 64/64/97 65/65/97 61/61/97
f 64/64/98 68/68/98 65/65/98
f 65/65/99 70/70/99 66/66/99
f 65/65/100 69/69/100 70/70/100
f 66/66/101 71/71/101 67/67/101
f 66/66/102 70/70/102 71/71/102
f 67/67/103 72/72/103 68/68/103
f 67/67/104 71/71/104 72/72/104
f 68/68/105 69/69/105 65/65/105
f 68/68/106 72/72/106 69/69/106
f 69/69/107 71/71/107 70/70/107
f 69/69/107 72/72/107 71/71/107
f 64/64/108 62/62/108 63/63/108
f 64/64/108 61/61/108 62/62/108
f 73/73/109 78/78/109 74/74/109
f 73/73/110 77/77/110 78/78/110
f 74/74/111 79/79/111 75/75/111
f 74/74/112 78/78/112 79/79/112
f 75/75/113 80/80/113 76/76/113
f 75/75/114 79/79/114 80/80/114
f 76/76/115 77/77/115 73/73/115
f 76/76/116 80/80/116 77/77/116
f 77/77/117 82/82/117 78/78/117
f 77/77/118 81/81/118 82/82/118
f 78/78/119 83/83/119 79/79/119
f 78/78/120 82/82/120 83/83/120
f 79/79/121 84/84/121 80/80/121
f 79/79/122 83/83/122 84/84/122
f 80/80/123 81/81/123 77/77/123
f 80/80/124 84/84/124 81/81/124
f 81/81/125 83/83/125 82/82/125
f 81/81/125 84/84/125 83/83/125
f 76/76/126 74/74/126 75/75/126
f 76/76/126 73/73/126 74/74/126
f 85/85/127 90/90/127 86/86/127
f 85/85/128 89/89/128 90/90/128
f 86/86/129 91/91/129 87/87/129
f 86/86/130 90/90/130 91/91/130
f 87/87/131 92/92/131 88/88/131
f 87/87/132 91/91/132 92/92/132
f 88/88/133 89/89/133 85/85/133
f 88/88/134 92/92/134 89/89/134
f 89/89/135 94/94/135 90/90/135
f 89/89/136 93/93/136 94/94/136
f 90/90/137 95/95/137 91/91/137
f 90/90/138 94/94/138 95/95/138
f 91/91/139 96/96/139 92/92/139
f 91/91/140 95/95/140 96/96/140
f 92/92/141 93/93/141 89/89/141
f 92/92/142 96/96/142 93/93/142
f 93/93/143 95/95/143 94/94/143
f 93/93/143 96/96/143 95/95/143
f 88/88/144 86/86/144 87/87/144
f 88/88/144 85/85/144 86/86/144
f 97/97/145 102/102/145 98/98/145
f 97/97/146 101/101/146 102/102/146
f 98/98/147 103/103/147 99/99/147
f 98/98/148 102/102/148 103/103/148
f 99/99/149 104/104/149 100/100/149
f 99/99/150 103/103/150 104/104/150
f 100/100/151 101/101/151 97/97/151
f 100/100/152 104/104/152 101/101/152
f 101/101/153 106/106/153 102/102/153
f 101/101/154 105/105/154 106/106/154
f 102/102/155 107/107/155 103/103/155
f 102/102/156 106/106/156 107/107/156
f 103/103/157 108/108/157 104/104/157
f 103/103/157 107/107/157 108/108/157
f 104/104/158 105/105/158 101/101/158
f 104/104/159 108/108/159 105/105/159
f 105/105/160 107/107/160 106/106/160
f 105/105/160 108/108/160 107/107/160
f 100/100/161 98/98/161 99/99/161
f 100/100/161 97/97/161 98/98/161
