# JudeanFloraV1; canonical UE cm (X east, +Y south, Z up), written with Y reflected and triangle winding reversed for the legacy OBJ importer adapter. One o object, no g groups, so the importer creates exactly one material slot.
# cypress (Cupressus sempervirens), LOD2 leaf
# height range 12.0-22.0 m, crown 2.0-5.0 m; source: Zohary, M., Plants of the Bible (Cambridge University Press, 1982), species entry Cupressus sempervirens; the columnar form is 2-5 m across at 12-22 m tall
# part kinds and their winding checks are recorded in vegetation-manifest.json
o SM_JudeanFloraV1_Cypress_L2_Leaf
s off
v 3.71600 119.64441 604.67538
v -137.33167 -154.16128 604.67538
v -96.63375 -175.08533 971.43146
v 44.41392 98.72036 971.43146
v 3.71600 119.64441 604.67538
v -137.33167 -154.16128 604.67538
v -96.63375 -175.08533 971.43146
v 44.41392 98.72036 971.43146
v -87.02121 -79.28828 380.82003
v -41.49551 225.32854 380.82003
v -61.56643 228.31185 749.86260
v -107.09212 -76.30497 749.86260
v -87.02121 -79.28828 380.82003
v -41.49551 225.32854 380.82003
v -61.56643 228.31185 749.86260
v -107.09212 -76.30497 749.86260
v -218.54736 -15.92819 833.95562
v 77.98898 -99.17600 833.95562
v 91.76656 -49.94838 1200.00340
v -204.76978 33.29942 1200.00340
v -218.54736 -15.92819 833.95562
v 77.98898 -99.17600 833.95562
v 91.76656 -49.94838 1200.00340
v -204.76978 33.29942 1200.00340
v -125.11492 -72.03871 1168.10668
v 74.06954 162.88585 1168.10668
v 77.68496 159.82540 1537.67633
v -121.49950 -75.09916 1537.67633
v -125.11492 -72.03871 1168.10668
v 74.06954 162.88585 1168.10668
v 77.68496 159.82540 1537.67633
v -121.49950 -75.09916 1537.67633
v 28.49379 150.87895 607.45655
v -169.59436 -84.97076 607.45655
v -201.39625 -58.30379 974.71896
v -3.30810 177.54593 974.71896
v 28.49379 150.87895 607.45655
v -169.59436 -84.97076 607.45655
v -201.39625 -58.30379 974.71896
v -3.30810 177.54593 974.71896
v -137.76685 137.91370 619.84848
v 107.87176 -47.89715 619.84848
v 109.96297 -45.12803 989.43219
v -135.67564 140.68282 989.43219
v -137.76685 137.91370 619.84848
v 107.87176 -47.89715 619.84848
v 109.96297 -45.12803 989.43219
v -135.67564 140.68282 989.43219
v -127.37650 -183.23664 1392.23711
v -51.39795 115.24495 1392.23711
v -9.86512 104.70797 1759.34494
v -85.84367 -193.77362 1759.34494
v -127.37650 -183.23664 1392.23711
v -51.39795 115.24495 1392.23711
v -9.86512 104.70797 1759.34494
v -85.84367 -193.77362 1759.34494
v -124.96739 216.69667 1415.64834
v -17.33914 -71.88635 1415.64834
v -7.68249 -68.27610 1785.10453
v -115.31074 220.30692 1785.10453
v -124.96739 216.69667 1415.64834
v -17.33914 -71.88635 1415.64834
v -7.68249 -68.27610 1785.10453
v -115.31074 220.30692 1785.10453
v 73.23237 -22.97564 1426.70026
v -197.35223 124.15685 1426.70026
v -181.13945 154.02969 1794.73411
v 89.44515 6.89720 1794.73411
v 73.23237 -22.97564 1426.70026
v -197.35223 124.15685 1426.70026
v -181.13945 154.02969 1794.73411
v 89.44515 6.89720 1794.73411
v 29.02029 68.90987 388.91867
v -257.84648 -43.21264 388.91867
v -263.82168 -27.96083 758.15550
v 23.04508 84.16167 758.15550
v 29.02029 68.90987 388.91867
v -257.84648 -43.21264 388.91867
v -263.82168 -27.96083 758.15550
v 23.04508 84.16167 758.15550
vt 0.00200 0.49800
vt 0.49800 0.49800
vt 0.49800 0.00200
vt 0.00200 0.00200
vt 0.00200 0.49800
vt 0.49800 0.49800
vt 0.49800 0.00200
vt 0.00200 0.00200
vt 0.50200 0.49800
vt 0.99800 0.49800
vt 0.99800 0.00200
vt 0.50200 0.00200
vt 0.50200 0.49800
vt 0.99800 0.49800
vt 0.99800 0.00200
vt 0.50200 0.00200
vt 0.00200 0.99800
vt 0.49800 0.99800
vt 0.49800 0.50200
vt 0.00200 0.50200
vt 0.00200 0.99800
vt 0.49800 0.99800
vt 0.49800 0.50200
vt 0.00200 0.50200
vt 0.50200 0.99800
vt 0.99800 0.99800
vt 0.99800 0.50200
vt 0.50200 0.50200
vt 0.50200 0.99800
vt 0.99800 0.99800
vt 0.99800 0.50200
vt 0.50200 0.50200
vt 0.00200 0.49800
vt 0.49800 0.49800
vt 0.49800 0.00200
vt 0.00200 0.00200
vt 0.00200 0.49800
vt 0.49800 0.49800
vt 0.49800 0.00200
vt 0.00200 0.00200
vt 0.50200 0.49800
vt 0.99800 0.49800
vt 0.99800 0.00200
vt 0.50200 0.00200
vt 0.50200 0.49800
vt 0.99800 0.49800
vt 0.99800 0.00200
vt 0.50200 0.00200
vt 0.00200 0.99800
vt 0.49800 0.99800
vt 0.49800 0.50200
vt 0.00200 0.50200
vt 0.00200 0.99800
vt 0.49800 0.99800
vt 0.49800 0.50200
vt 0.00200 0.50200
vt 0.50200 0.99800
vt 0.99800 0.99800
vt 0.99800 0.50200
vt 0.50200 0.50200
vt 0.50200 0.99800
vt 0.99800 0.99800
vt 0.99800 0.50200
vt 0.50200 0.50200
vt 0.00200 0.49800
vt 0.49800 0.49800
vt 0.49800 0.00200
vt 0.00200 0.00200
vt 0.00200 0.49800
vt 0.49800 0.49800
vt 0.49800 0.00200
vt 0.00200 0.00200
vt 0.50200 0.49800
vt 0.99800 0.49800
vt 0.99800 0.00200
vt 0.50200 0.00200
vt 0.50200 0.49800
vt 0.99800 0.49800
vt 0.99800 0.00200
vt 0.50200 0.00200
vn 0.8821 -0.4544 -0.1238
vn -0.8821 0.4544 0.1238
vn -0.9875 0.1476 -0.0549
vn 0.9875 -0.1476 0.0549
vn 0.2677 0.9535 -0.1383
vn -0.2677 -0.9535 0.1383
vn -0.7627 0.6466 0.0128
vn 0.7627 -0.6466 -0.0128
vn 0.7609 -0.6391 0.1123
vn -0.7609 0.6391 -0.1123
vn 0.6033 0.7975 -0.0094
vn -0.6033 -0.7975 0.0094
vn -0.9626 0.2450 0.1159
vn 0.9626 -0.2450 -0.1159
vn 0.9366 0.3493 -0.0279
vn -0.9366 -0.3493 0.0279
vn -0.4757 -0.8748 0.0920
vn 0.4757 0.8748 -0.0920
vn 0.3637 -0.9305 0.0443
vn -0.3637 0.9305 -0.0443
f 1/1/1 3/3/1 2/2/1
f 1/1/1 4/4/1 3/3/1
f 5/5/2 7/7/2 8/8/2
f 5/5/2 6/6/2 7/7/2
f 9/9/3 11/11/3 10/10/3
f 9/9/3 12/12/3 11/11/3
f 13/13/4 15/15/4 16/16/4
f 13/13/4 14/14/4 15/15/4
f 17/17/5 19/19/5 18/18/5
f 17/17/5 20/20/5 19/19/5
f 21/21/6 23/23/6 24/24/6
f 21/21/6 22/22/6 23/23/6
f 25/25/7 27/27/7 26/26/7
f 25/25/7 28/28/7 27/27/7
f 29/29/8 31/31/8 32/32/8
f 29/29/8 30/30/8 31/31/8
f 33/33/9 35/35/9 34/34/9
f 33/33/9 36/36/9 35/35/9
f 37/37/10 39/39/10 40/40/10
f 37/37/10 38/38/10 39/39/10
f 41/41/11 43/43/11 42/42/11
f 41/41/11 44/44/11 43/43/11
f 45/45/12 47/47/12 48/48/12
f 45/45/12 46/46/12 47/47/12
f 49/49/13 51/51/13 50/50/13
f 49/49/13 52/52/13 51/51/13
f 53/53/14 55/55/14 56/56/14
f 53/53/14 54/54/14 55/55/14
f 57/57/15 59/59/15 58/58/15
f 57/57/15 60/60/15 59/59/15
f 61/61/16 63/63/16 64/64/16
f 61/61/16 62/62/16 63/63/16
f 65/65/17 67/67/17 66/66/17
f 65/65/17 68/68/17 67/67/17
f 69/69/18 71/71/18 72/72/18
f 69/69/18 70/70/18 71/71/18
f 73/73/19 75/75/19 74/74/19
f 73/73/19 76/76/19 75/75/19
f 77/77/20 79/79/20 80/80/20
f 77/77/20 78/78/20 79/79/20
