# JudeanFloraV1; canonical UE cm (X east, +Y south, Z up), written with Y reflected and triangle winding reversed for the legacy OBJ importer adapter. One o object, no g groups, so the importer creates exactly one material slot.
# cypress (Cupressus sempervirens), LOD2 bark
# height range 12.0-22.0 m, crown 2.0-5.0 m; source: Zohary, M., Plants of the Bible (Cambridge University Press, 1982), species entry Cupressus sempervirens; the columnar form is 2-5 m across at 12-22 m tall
# part kinds and their winding checks are recorded in vegetation-manifest.json
o SM_JudeanFloraV1_Cypress_L2_Bark
s off
v 45.97954 7.55684 0.00000
v 48.56661 -39.87694 22.09498
v 4.79230 -58.32868 0.00000
v 2.20523 -10.89490 -22.09498
v -25.76785 27.94403 85.48953
v -21.57064 5.96768 96.07040
v -39.96787 -5.88310 84.51047
v -44.16508 16.09324 73.92960
v -113.42281 41.03881 170.69101
v -109.30942 26.81912 177.80834
v -119.93734 17.62217 169.30899
v -124.05073 31.84185 162.19166
vt 0.00000 0.00000
vt 0.25000 0.00000
vt 0.50000 0.00000
vt 0.75000 0.00000
vt 0.00000 0.50000
vt 0.25000 0.50000
vt 0.50000 0.50000
vt 0.75000 0.50000
vt 0.00000 1.00000
vt 0.25000 1.00000
vt 0.50000 1.00000
vt 0.75000 1.00000
vn 0.7781 0.2996 0.5521
vn 0.7471 0.3988 0.5319
vn 0.0709 -0.8303 0.5528
vn 0.1254 -0.7857 0.6058
vn -0.9009 -0.2226 -0.3725
vn -0.9061 -0.3111 -0.2868
vn -0.1917 0.9062 -0.3770
vn -0.3105 0.8655 -0.3932
vn 0.6696 0.4221 0.6111
vn 0.6464 0.4827 0.5908
vn 0.2498 -0.8465 0.4702
vn 0.2875 -0.8078 0.5146
vn -0.7113 -0.4105 -0.5705
vn -0.7034 -0.4703 -0.5330
vn -0.2856 0.8586 -0.4257
vn -0.3438 0.8201 -0.4575
vn -0.6940 0.1515 0.7038
vn 0.5330 -0.3332 -0.7777
f 1/1/1 6/6/1 2/2/1
f 1/1/2 5/5/2 6/6/2
f 2/2/3 7/7/3 3/3/3
f 2/2/4 6/6/4 7/7/4
f 3/3/5 8/8/5 4/4/5
f 3/3/6 7/7/6 8/8/6
f 4/4/7 5/5/7 1/1/7
f 4/4/8 8/8/8 5/5/8
f 5/5/9 10/10/9 6/6/9
f 5/5/10 9/9/10 10/10/10
f 6/6/11 11/11/11 7/7/11
f 6/6/12 10/10/12 11/11/12
f 7/7/13 12/12/13 8/8/13
f 7/7/14 11/11/14 12/12/14
f 8/8/15 9/9/15 5/5/15
f 8/8/16 12/12/16 9/9/16
f 9/9/17 11/11/17 10/10/17
f 9/9/17 12/12/17 11/11/17
f 4/4/18 2/2/18 3/3/18
f 4/4/18 1/1/18 2/2/18
