# JudeanFloraV1; canonical UE cm (X east, +Y south, Z up), written with Y reflected and triangle winding reversed for the legacy OBJ importer adapter. One o object, no g groups, so the importer creates exactly one material slot.
# carob (Ceratonia siliqua), gnarled old variant, LOD1 bark
# short leaning fluted bole with a twisted trunk; the habit of an old Judean olive, stylised, not a survey of any tree
o SM_JudeanFloraV1_Carob_Gnarled_L1_Bark
s off
v 3.41722 56.45029 16.37854
v 37.49666 14.55199 9.50788
v 56.72097 -35.17904 -1.50724
v 3.41722 -41.69316 -10.47152
v -49.88653 -31.52290 -14.87130
v -30.66223 16.88952 0.96364
v -17.89006 19.19758 53.85521
v 11.30857 2.31581 62.90471
v 32.07226 -25.73178 64.18908
v 7.05058 -42.40925 46.43450
v -23.93946 -44.34405 30.45571
v -28.11641 -10.78481 39.16079
v -44.31121 -11.44487 107.72568
v -33.02054 -30.51341 117.30043
v -32.89501 -53.73044 110.68851
v -46.83822 -56.50235 91.17781
v -59.72488 -40.43562 78.58581
v -57.07234 -18.59518 88.52176
v -134.21779 -31.46915 158.12408
v -126.74217 -46.87784 167.03485
v -130.05559 -61.11794 154.42710
v -138.20141 -63.03662 137.02943
v -143.83237 -45.02675 132.94882
v -143.16217 -27.69938 141.43572
v -245.86036 -66.94916 207.11892
v -238.99191 -80.46903 214.38800
v -243.38774 -87.92357 199.96898
v -249.93194 -89.09457 184.52217
v -253.26224 -72.78509 186.91210
v -253.58648 -58.09423 195.08984
v -253.29879 -83.89882 198.00000
v -254.20943 -71.03581 203.41279
v -241.70810 -67.87306 198.00000
v -240.79746 -80.73607 192.58721
v -157.95874 -148.16846 373.23164
v -158.79369 -140.28053 376.73395
v -151.73557 -137.63151 372.45046
v -150.90062 -145.51944 368.94815
v 40.41425 -219.85498 586.86632
v 40.17577 -216.76993 588.16683
v 42.70010 -215.74780 586.20502
v 42.93857 -218.83284 584.90451
v -247.50344 -66.41167 199.35021
v -238.66497 -76.40368 201.63294
v -247.50344 -85.36021 196.64979
v -256.34192 -75.36820 194.36706
v -331.11129 -98.05924 392.01435
v -323.94148 -101.55859 394.61412
v -326.38587 -108.92916 391.43448
v -333.55569 -105.42981 388.83471
v -460.80462 -189.08990 628.75168
v -458.05811 -190.51018 629.74670
v -458.93348 -193.25451 628.24571
v -461.67999 -191.83423 627.25069
v -238.25859 -75.54884 198.00000
v -247.26600 -82.39777 204.56664
v -256.74830 -76.22305 198.00000
v -247.74089 -69.37411 191.43336
v -246.62977 56.15216 328.74369
v -252.12810 51.76791 332.78615
v -257.94642 54.50605 327.84203
v -252.44810 58.89030 323.79957
v -321.06612 286.44191 487.90787
v -323.28687 284.75959 489.35597
v -325.36870 285.62738 487.17151
v -323.14795 287.30971 485.72341
vt 0.00000 0.00000
vt 0.16667 0.00000
vt 0.33333 0.00000
vt 0.50000 0.00000
vt 0.66667 0.00000
vt 0.83333 0.00000
vt 0.00000 0.25000
vt 0.16667 0.25000
vt 0.33333 0.25000
vt 0.50000 0.25000
vt 0.66667 0.25000
vt 0.83333 0.25000
vt 0.00000 0.50000
vt 0.16667 0.50000
vt 0.33333 0.50000
vt 0.50000 0.50000
vt 0.66667 0.50000
vt 0.83333 0.50000
vt 0.00000 0.75000
vt 0.16667 0.75000
vt 0.33333 0.75000
vt 0.50000 0.75000
vt 0.66667 0.75000
vt 0.83333 0.75000
vt 0.00000 1.00000
vt 0.16667 1.00000
vt 0.33333 1.00000
vt 0.50000 1.00000
vt 0.66667 1.00000
vt 0.83333 1.00000
vt 0.00000 0.00000
vt 0.25000 0.00000
vt 0.50000 0.00000
vt 0.75000 0.00000
vt 0.00000 0.50000
vt 0.25000 0.50000
vt 0.50000 0.50000
vt 0.75000 0.50000
vt 0.00000 1.00000
vt 0.25000 1.00000
vt 0.50000 1.00000
vt 0.75000 1.00000
vt 0.00000 0.00000
vt 0.25000 0.00000
vt 0.50000 0.00000
vt 0.75000 0.00000
vt 0.00000 0.50000
vt 0.25000 0.50000
vt 0.50000 0.50000
vt 0.75000 0.50000
vt 0.00000 1.00000
vt 0.25000 1.00000
vt 0.50000 1.00000
vt 0.75000 1.00000
vt 0.00000 0.00000
vt 0.25000 0.00000
vt 0.50000 0.00000
vt 0.75000 0.00000
vt 0.00000 0.50000
vt 0.25000 0.50000
vt 0.50000 0.50000
vt 0.75000 0.50000
vt 0.00000 1.00000
vt 0.25000 1.00000
vt 0.50000 1.00000
vt 0.75000 1.00000
vn 0.7208 0.5092 0.4702
vn 0.1508 0.6569 0.7387
vn 0.9101 0.2853 0.3005
vn 0.7003 0.5398 0.4671
vn 0.1247 -0.9920 -0.0204
vn 0.3917 -0.8786 0.2733
vn -0.1704 -0.9694 -0.1767
vn 0.0711 -0.9973 -0.0171
vn -0.9229 0.2800 0.2644
vn -0.8720 -0.2217 0.4364
vn -0.7779 0.6073 0.1614
vn -0.9511 0.2165 0.2202
vn 0.2306 0.7385 0.6336
vn 0.5186 0.6086 0.6005
vn 0.4354 0.3601 0.8251
vn 0.8098 -0.1566 0.5654
vn 0.4210 -0.8772 0.2307
vn 0.3306 -0.9381 -0.1030
vn 0.0148 -0.9957 0.0919
vn -0.3144 -0.7288 -0.6082
vn -0.8639 0.0230 -0.5031
vn -0.7372 0.3519 -0.5767
vn -0.8907 0.4050 -0.2065
vn -0.3891 0.9175 -0.0831
vn 0.3071 0.5660 0.7650
vn 0.2953 0.5816 0.7580
vn 0.4133 -0.2473 0.8764
vn 0.4416 -0.6502 0.6183
vn 0.1043 -0.9923 0.0664
vn 0.1031 -0.9928 0.0612
vn -0.3401 -0.7338 -0.5882
vn -0.4064 -0.3209 -0.8555
vn -0.5092 0.4069 -0.7584
vn -0.5141 0.3932 -0.7622
vn -0.2963 0.9426 -0.1541
vn 0.0243 0.9779 0.2078
vn 0.1765 0.5555 0.8125
vn 0.1895 0.5379 0.8214
vn 0.4098 -0.6563 0.6335
vn 0.3942 -0.8599 0.3244
vn 0.2275 -0.9738 0.0009
vn 0.2224 -0.9747 -0.0203
vn -0.3557 -0.3109 -0.8813
vn -0.4009 0.0522 -0.9146
vn -0.4873 0.3992 -0.7766
vn -0.4849 0.4172 -0.7687
vn -0.1662 0.9390 0.3012
vn 0.0515 0.8198 0.5704
vn -0.8875 -0.2390 0.3941
vn 0.1289 0.2617 -0.9565
vn -0.8884 -0.2300 0.3972
vn -0.8846 -0.2643 0.3843
vn -0.0598 0.9158 0.3971
vn -0.0903 0.9067 0.4120
vn 0.8993 0.2222 -0.3768
vn 0.8971 0.2551 -0.3607
vn 0.0704 -0.9235 -0.3770
vn 0.1064 -0.9146 -0.3902
vn -0.7436 -0.3355 0.5784
vn -0.7466 -0.3066 0.5904
vn -0.0897 0.9064 0.4128
vn -0.0656 0.9170 0.3934
vn 0.7553 0.3311 -0.5656
vn 0.7575 0.3024 -0.5785
vn 0.1001 -0.9116 -0.3988
vn 0.0766 -0.9212 -0.3815
vn 0.6552 -0.2499 0.7129
vn -0.4435 0.3208 -0.8369
vn 0.6507 0.6610 0.3737
vn 0.3321 0.8971 0.2915
vn 0.6508 -0.7391 0.1741
vn 0.8491 -0.4199 0.3205
vn -0.6554 -0.6626 -0.3626
vn -0.3496 -0.9027 -0.2508
vn -0.6553 0.7375 -0.1632
vn -0.8680 0.4092 -0.2814
vn 0.2475 0.8511 0.4631
vn 0.2655 0.8422 0.4693
vn 0.8472 -0.4209 0.3243
vn 0.8415 -0.4399 0.3136
vn -0.2557 -0.8567 -0.4479
vn -0.2735 -0.8475 -0.4549
vn -0.8552 0.4166 -0.3083
vn -0.8495 0.4346 -0.2991
vn -0.4609 -0.3082 0.8322
vn 0.3835 0.1303 -0.9143
vn 0.7244 -0.4624 0.5113
vn 0.7337 -0.4546 0.5049
vn -0.6888 -0.5141 0.5112
vn -0.6822 -0.5179 0.5161
vn -0.7251 0.4815 -0.4924
vn -0.7348 0.4746 -0.4846
vn 0.6881 0.5328 -0.4926
vn 0.6780 0.5398 -0.4989
vn 0.6932 -0.2440 0.6782
vn 0.6611 -0.2701 0.7000
vn -0.6777 -0.5410 0.4980
vn -0.7092 -0.5294 0.4655
vn -0.6974 0.2581 -0.6686
vn -0.6649 0.2826 -0.6914
vn 0.6748 0.5546 -0.4869
vn 0.7053 0.5421 -0.4568
vn -0.2453 0.7978 0.5507
vn 0.0259 -0.7094 -0.7044
f 1/1/1 8/8/1 2/2/1
f 1/1/2 7/7/2 8/8/2
f 2/2/3 9/9/3 3/3/3
f 2/2/4 8/8/4 9/9/4
f 3/3/5 10/10/5 4/4/5
f 3/3/6 9/9/6 10/10/6
f 4/4/7 11/11/7 5/5/7
f 4/4/8 10/10/8 11/11/8
f 5/5/9 12/12/9 6/6/9
f 5/5/10 11/11/10 12/12/10
f 6/6/11 7/7/11 1/1/11
f 6/6/12 12/12/12 7/7/12
f 7/7/13 14/14/13 8/8/13
f 7/7/14 13/13/14 14/14/14
f 8/8/15 15/15/15 9/9/15
f 8/8/16 14/14/16 15/15/16
f 9/9/17 16/16/17 10/10/17
f 9/9/18 15/15/18 16/16/18
f 10/10/19 17/17/19 11/11/19
f 10/10/20 16/16/20 17/17/20
f 11/11/21 18/18/21 12/12/21
f 11/11/22 17/17/22 18/18/22
f 12/12/23 13/13/23 7/7/23
f 12/12/24 18/18/24 13/13/24
f 13/13/25 20/20/25 14/14/25
f 13/13/26 19/19/26 20/20/26
f 14/14/27 21/21/27 15/15/27
f 14/14/28 20/20/28 21/21/28
f 15/15/29 22/22/29 16/16/29
f 15/15/30 21/21/30 22/22/30
f 16/16/31 23/23/31 17/17/31
f 16/16/32 22/22/32 23/23/32
f 17/17/33 24/24/33 18/18/33
f 17/17/34 23/23/34 24/24/34
f 18/18/35 19/19/35 13/13/35
f 18/18/36 24/24/36 19/19/36
f 19/19/37 26/26/37 20/20/37
f 19/19/38 25/25/38 26/26/38
f 20/20/39 27/27/39 21/21/39
f 20/20/40 26/26/40 27/27/40
f 21/21/41 28/28/41 22/22/41
f 21/21/42 27/27/42 28/28/42
f 22/22/43 29/29/43 23/23/43
f 22/22/44 28/28/44 29/29/44
f 23/23/45 30/30/45 24/24/45
f 23/23/46 29/29/46 30/30/46
f 24/24/47 25/25/47 19/19/47
f 24/24/48 30/30/48 25/25/48
f 25/25/49 27/27/49 26/26/49
f 25/25/49 28/28/49 27/27/49
f 25/25/49 29/29/49 28/28/49
f 25/25/49 30/30/49 29/29/49
f 6/6/50 4/4/50 5/5/50
f 6/6/50 3/3/50 4/4/50
f 6/6/50 2/2/50 3/3/50
f 6/6/50 1/1/50 2/2/50
f 31/31/51 36/36/51 32/32/51
f 31/31/52 35/35/52 36/36/52
f 32/32/53 37/37/53 33/33/53
f 32/32/54 36/36/54 37/37/54
f 33/33/55 38/38/55 34/34/55
f 33/33/56 37/37/56 38/38/56
f 34/34/57 35/35/57 31/31/57
f 34/34/58 38/38/58 35/35/58
f 35/35/59 40/40/59 36/36/59
f 35/35/60 39/39/60 40/40/60
f 36/36/61 41/41/61 37/37/61
f 36/36/62 40/40/62 41/41/62
f 37/37/63 42/42/63 38/38/63
f 37/37/64 41/41/64 42/42/64
f 38/38/65 39/39/65 35/35/65
f 38/38/66 42/42/66 39/39/66
f 39/39/67 41/41/67 40/40/67
f 39/39/67 42/42/67 41/41/67
f 34/34/68 32/32/68 33/33/68
f 34/34/68 31/31/68 32/32/68
f 43/43/69 48/48/69 44/44/69
f 43/43/70 47/47/70 48/48/70
f 44/44/71 49/49/71 45/45/71
f 44/44/72 48/48/72 49/49/72
f 45/45/73 50/50/73 46/46/73
f 45/45/74 49/49/74 50/50/74
f 46/46/75 47/47/75 43/43/75
f 46/46/76 50/50/76 47/47/76
f 47/47/77 52/52/77 48/48/77
f 47/47/78 51/51/78 52/52/78
f 48/48/79 53/53/79 49/49/79
f 48/48/80 52/52/80 53/53/80
f 49/49/81 54/54/81 50/50/81
f 49/49/82 53/53/82 54/54/82
f 50/50/83 51/51/83 47/47/83
f 50/50/84 54/54/84 51/51/84
f 51/51/85 53/53/85 52/52/85
f 51/51/85 54/54/85 53/53/85
f 46/46/86 44/44/86 45/45/86
f 46/46/86 43/43/86 44/44/86
f 55/55/87 60/60/87 56/56/87
f 55/55/88 59/59/88 60/60/88
f 56/56/89 61/61/89 57/57/89
f 56/56/90 60/60/90 61/61/90
f 57/57/91 62/62/91 58/58/91
f 57/57/92 61/61/92 62/62/92
f 58/58/93 59/59/93 55/55/93
f 58/58/94 62/62/94 59/59/94
f 59/59/95 64/64/95 60/60/95
f 59/59/96 63/63/96 64/64/96
f 60/60/97 65/65/97 61/61/97
f 60/60/98 64/64/98 65/65/98
f 61/61/99 66/66/99 62/62/99
f 61/61/100 65/65/100 66/66/100
f 62/62/101 63/63/101 59/59/101
f 62/62/102 66/66/102 63/63/102
f 63/63/103 65/65/103 64/64/103
f 63/63/103 66/66/103 65/65/103
f 58/58/104 56/56/104 57/57/104
f 58/58/104 55/55/104 56/56/104
