# JudeanFloraV1; canonical UE cm (X east, +Y south, Z up), written with Y reflected and triangle winding reversed for the legacy OBJ importer adapter. One o object, no g groups, so the importer creates exactly one material slot.
# date palm (Phoenix dactylifera), LOD1 leaf
# height range 12.0-22.0 m, crown 6.0-9.0 m; source: Zohary, M., Plants of the Bible (Cambridge University Press, 1982), species entry Phoenix dactylifera; 12-22 m with a 6-9 m crown of pinnate fronds
# part kinds and their winding checks are recorded in vegetation-manifest.json
o SM_JudeanFloraV1_DatePalm_L1_Leaf
s off
v 78.28555 -30.68559 1320.46750
v 419.14035 -198.93939 1248.46816
v 432.56925 -205.56820 1327.53315
v 91.71445 -37.31441 1399.53250
v 78.28555 -30.68559 1320.46750
v 419.14035 -198.93939 1248.46816
v 432.56925 -205.56820 1327.53315
v 91.71445 -37.31441 1399.53250
v 79.30641 -30.45286 1326.90374
v 349.40942 -198.72881 1262.40239
v 360.79659 -205.82309 1328.59492
v 90.69359 -37.54714 1393.09626
v 79.30641 -30.45286 1326.90374
v 349.40942 -198.72881 1262.40239
v 360.79659 -205.82309 1328.59492
v 90.69359 -37.54714 1393.09626
v 71.80479 -19.45436 1330.06683
v 265.18714 -232.62797 1141.23059
v 291.57755 -261.71925 1201.09692
v 98.19521 -48.54564 1389.93317
v 71.80479 -19.45436 1330.06683
v 265.18714 -232.62797 1141.23059
v 291.57755 -261.71925 1201.09692
v 98.19521 -48.54564 1389.93317
v 81.90112 -25.76115 1318.97812
v 220.76441 -394.95055 1234.33998
v 226.96217 -411.42825 1316.38374
v 88.09888 -42.23885 1401.02188
v 81.90112 -25.76115 1318.97812
v 220.76441 -394.95055 1234.33998
v 226.96217 -411.42825 1316.38374
v 88.09888 -42.23885 1401.02188
v 90.18373 -11.37883 1327.25181
v 19.84930 -318.30963 1104.10270
v 9.48183 -363.55197 1169.59907
v 79.81627 -56.62117 1392.74819
v 90.18373 -11.37883 1327.25181
v 19.84930 -318.30963 1104.10270
v 9.48183 -363.55197 1169.59907
v 79.81627 -56.62117 1392.74819
v 90.87029 -15.25705 1333.30288
v 14.14604 -260.22613 1144.44969
v 2.40547 -297.71202 1197.84392
v 79.12971 -52.74295 1386.69712
v 90.87029 -15.25705 1333.30288
v 14.14604 -260.22613 1144.44969
v 2.40547 -297.71202 1197.84392
v 79.12971 -52.74295 1386.69712
v 98.31609 -14.65479 1326.01091
v -86.98947 -283.86101 1100.19155
v -113.62165 -322.55142 1168.16974
v 71.68391 -53.34521 1393.98909
v 98.31609 -14.65479 1326.01091
v -86.98947 -283.86101 1100.19155
v -113.62165 -322.55142 1168.16974
v 71.68391 -53.34521 1393.98909
v 91.93985 -32.54803 1320.07590
v -283.80977 -111.16335 1251.90167
v -297.68948 -114.06729 1331.74987
v 78.06015 -35.45197 1399.92410
v 91.93985 -32.54803 1320.07590
v -283.80977 -111.16335 1251.90167
v -297.68948 -114.06729 1331.74987
v 78.06015 -35.45197 1399.92410
v 94.81377 -34.14666 1326.19396
v -230.20798 -29.28939 1231.82025
v -249.83552 -28.99607 1299.43233
v 75.18623 -33.85334 1393.80604
v 94.81377 -34.14666 1326.19396
v -230.20798 -29.28939 1231.82025
v -249.83552 -28.99607 1299.43233
v 75.18623 -33.85334 1393.80604
v 97.55352 -38.19332 1328.58067
v -188.99176 57.52295 1201.31760
v -214.09880 65.90959 1264.15626
v 72.44648 -29.80668 1391.41933
v 97.55352 -38.19332 1328.58067
v -188.99176 57.52295 1201.31760
v -214.09880 65.90959 1264.15626
v 72.44648 -29.80668 1391.41933
v 95.40512 -38.24649 1323.20566
v -232.15756 95.43699 1215.14512
v -252.96781 103.92998 1288.73380
v 74.59488 -29.75351 1396.79434
v 95.40512 -38.24649 1323.20566
v -232.15756 95.43699 1215.14512
v -252.96781 103.92998 1288.73380
v 74.59488 -29.75351 1396.79434
v 91.14108 -49.33799 1323.10047
v -40.73847 280.04491 1164.23785
v -53.02064 310.72089 1238.03692
v 78.85892 -18.66201 1396.89953
v 91.14108 -49.33799 1323.10047
v -40.73847 280.04491 1164.23785
v -53.02064 310.72089 1238.03692
v 78.85892 -18.66201 1396.89953
v 85.20918 -41.20050 1318.23180
v 73.54664 360.24741 1248.96698
v 73.12828 374.64842 1332.50338
v 84.79082 -26.79950 1401.76820
v 85.20918 -41.20050 1318.23180
v 73.54664 360.24741 1248.96698
v 73.12828 374.64842 1332.50338
v 84.79082 -26.79950 1401.76820
v 84.17730 -43.99871 1322.80913
v 113.50209 312.40138 1226.34283
v 115.14749 332.39879 1300.72456
v 85.82270 -24.00129 1397.19087
v 84.17730 -43.99871 1322.80913
v 113.50209 312.40138 1226.34283
v 115.14749 332.39879 1300.72456
v 85.82270 -24.00129 1397.19087
v 73.38888 -49.54764 1321.00907
v 297.72267 250.84202 1134.42422
v 320.94491 281.93730 1212.40608
v 96.61112 -18.45236 1398.99093
v 73.38888 -49.54764 1321.00907
v 297.72267 250.84202 1134.42422
v 320.94491 281.93730 1212.40608
v 96.61112 -18.45236 1398.99093
v 70.11313 -45.36738 1333.11834
v 275.54793 111.49932 1153.01619
v 305.32168 134.23407 1206.77951
v 99.88687 -22.63262 1386.88166
v 70.11313 -45.36738 1333.11834
v 275.54793 111.49932 1153.01619
v 305.32168 134.23407 1206.77951
v 99.88687 -22.63262 1386.88166
v 75.88038 -40.74449 1326.60500
v 334.05317 150.18935 1217.54105
v 352.29241 163.67834 1284.33105
v 94.11962 -27.25551 1393.39500
v 75.88038 -40.74449 1326.60500
v 334.05317 150.18935 1217.54105
v 352.29241 163.67834 1284.33105
v 94.11962 -27.25551 1393.39500
v 78.39021 -34.24176 1320.34449
v 459.43841 -20.30459 1256.74635
v 472.65798 -19.82107 1336.05737
v 91.60979 -33.75824 1399.65551
v 78.39021 -34.24176 1320.34449
v 459.43841 -20.30459 1256.74635
v 472.65798 -19.82107 1336.05737
v 91.60979 -33.75824 1399.65551
vt 0.00200 0.49800
vt 0.49800 0.49800
vt 0.49800 0.00200
vt 0.00200 0.00200
vt 0.00200 0.49800
vt 0.49800 0.49800
vt 0.49800 0.00200
vt 0.00200 0.00200
vt 0.50200 0.49800
vt 0.99800 0.49800
vt 0.99800 0.00200
vt 0.50200 0.00200
vt 0.50200 0.49800
vt 0.99800 0.49800
vt 0.99800 0.00200
vt 0.50200 0.00200
vt 0.00200 0.99800
vt 0.49800 0.99800
vt 0.49800 0.50200
vt 0.00200 0.50200
vt 0.00200 0.99800
vt 0.49800 0.99800
vt 0.49800 0.50200
vt 0.00200 0.50200
vt 0.50200 0.99800
vt 0.99800 0.99800
vt 0.99800 0.50200
vt 0.50200 0.50200
vt 0.50200 0.99800
vt 0.99800 0.99800
vt 0.99800 0.50200
vt 0.50200 0.50200
vt 0.00200 0.49800
vt 0.49800 0.49800
vt 0.49800 0.00200
vt 0.00200 0.00200
vt 0.00200 0.49800
vt 0.49800 0.49800
vt 0.49800 0.00200
vt 0.00200 0.00200
vt 0.50200 0.49800
vt 0.99800 0.49800
vt 0.99800 0.00200
vt 0.50200 0.00200
vt 0.50200 0.49800
vt 0.99800 0.49800
vt 0.99800 0.00200
vt 0.50200 0.00200
vt 0.00200 0.99800
vt 0.49800 0.99800
vt 0.49800 0.50200
vt 0.00200 0.50200
vt 0.00200 0.99800
vt 0.49800 0.99800
vt 0.49800 0.50200
vt 0.00200 0.50200
vt 0.50200 0.99800
vt 0.99800 0.99800
vt 0.99800 0.50200
vt 0.50200 0.50200
vt 0.50200 0.99800
vt 0.99800 0.99800
vt 0.99800 0.50200
vt 0.50200 0.50200
vt 0.00200 0.49800
vt 0.49800 0.49800
vt 0.49800 0.00200
vt 0.00200 0.00200
vt 0.00200 0.49800
vt 0.49800 0.49800
vt 0.49800 0.00200
vt 0.00200 0.00200
vt 0.50200 0.49800
vt 0.99800 0.49800
vt 0.99800 0.00200
vt 0.50200 0.00200
vt 0.50200 0.49800
vt 0.99800 0.49800
vt 0.99800 0.00200
vt 0.50200 0.00200
vt 0.00200 0.99800
vt 0.49800 0.99800
vt 0.49800 0.50200
vt 0.00200 0.50200
vt 0.00200 0.99800
vt 0.49800 0.99800
vt 0.49800 0.50200
vt 0.00200 0.50200
vt 0.50200 0.99800
vt 0.99800 0.99800
vt 0.99800 0.50200
vt 0.50200 0.50200
vt 0.50200 0.99800
vt 0.99800 0.99800
vt 0.99800 0.50200
vt 0.50200 0.50200
vt 0.00200 0.49800
vt 0.49800 0.49800
vt 0.49800 0.00200
vt 0.00200 0.00200
vt 0.00200 0.49800
vt 0.49800 0.49800
vt 0.49800 0.00200
vt 0.00200 0.00200
vt 0.50200 0.49800
vt 0.99800 0.49800
vt 0.99800 0.00200
vt 0.50200 0.00200
vt 0.50200 0.49800
vt 0.99800 0.49800
vt 0.99800 0.00200
vt 0.50200 0.00200
vt 0.00200 0.99800
vt 0.49800 0.99800
vt 0.49800 0.50200
vt 0.00200 0.50200
vt 0.00200 0.99800
vt 0.49800 0.99800
vt 0.49800 0.50200
vt 0.00200 0.50200
vt 0.50200 0.99800
vt 0.99800 0.99800
vt 0.99800 0.50200
vt 0.50200 0.50200
vt 0.50200 0.99800
vt 0.99800 0.99800
vt 0.99800 0.50200
vt 0.50200 0.50200
vt 0.00200 0.49800
vt 0.49800 0.49800
vt 0.49800 0.00200
vt 0.00200 0.00200
vt 0.00200 0.49800
vt 0.49800 0.49800
vt 0.49800 0.00200
vt 0.00200 0.00200
vt 0.50200 0.49800
vt 0.99800 0.49800
vt 0.99800 0.00200
vt 0.50200 0.00200
vt 0.50200 0.49800
vt 0.99800 0.49800
vt 0.99800 0.00200
vt 0.50200 0.00200
vn 0.4426 0.8967 0.0000
vn -0.4426 -0.8967 -0.0000
vn 0.5288 0.8488 0.0000
vn -0.5288 -0.8488 0.0000
vn 0.7407 0.6719 -0.0000
vn -0.7407 -0.6719 0.0000
vn 0.9360 0.3521 0.0000
vn -0.9360 -0.3521 0.0000
vn 0.9747 -0.2234 0.0000
vn -0.9747 0.2234 0.0000
vn 0.9543 -0.2989 0.0000
vn -0.9543 0.2989 -0.0000
vn 0.8237 -0.5670 -0.0000
vn -0.8237 0.5670 0.0000
vn 0.2048 -0.9788 0.0000
vn -0.2048 0.9788 -0.0000
vn -0.0149 -0.9999 -0.0000
vn 0.0149 0.9999 0.0000
vn -0.3168 -0.9485 -0.0000
vn 0.3168 0.9485 0.0000
vn -0.3779 -0.9259 0.0000
vn 0.3779 0.9259 0.0000
vn -0.9284 -0.3717 0.0000
vn 0.9284 0.3717 0.0000
vn -0.9996 -0.0290 0.0000
vn 0.9996 0.0290 0.0000
vn -0.9966 0.0820 -0.0000
vn 0.9966 -0.0820 0.0000
vn -0.8012 0.5984 0.0000
vn 0.8012 -0.5984 -0.0000
vn -0.6069 0.7948 0.0000
vn 0.6069 -0.7948 0.0000
vn -0.5946 0.8040 -0.0000
vn 0.5946 -0.8040 0.0000
vn -0.0366 0.9993 0.0000
vn 0.0366 -0.9993 0.0000
f 1/1/1 3/3/1 2/2/1
f 1/1/1 4/4/1 3/3/1
f 5/5/2 7/7/2 8/8/2
f 5/5/2 6/6/2 7/7/2
f 9/9/3 11/11/3 10/10/3
f 9/9/3 12/12/3 11/11/3
f 13/13/4 15/15/4 16/16/4
f 13/13/4 14/14/4 15/15/4
f 17/17/5 19/19/5 18/18/5
f 17/17/5 20/20/5 19/19/5
f 21/21/6 23/23/6 24/24/6
f 21/21/6 22/22/6 23/23/6
f 25/25/7 27/27/7 26/26/7
f 25/25/7 28/28/7 27/27/7
f 29/29/8 31/31/8 32/32/8
f 29/29/8 30/30/8 31/31/8
f 33/33/9 35/35/9 34/34/9
f 33/33/9 36/36/9 35/35/9
f 37/37/10 39/39/10 40/40/10
f 37/37/10 38/38/10 39/39/10
f 41/41/11 43/43/11 42/42/11
f 41/41/11 44/44/11 43/43/11
f 45/45/12 47/47/12 48/48/12
f 45/45/12 46/46/12 47/47/12
f 49/49/13 51/51/13 50/50/13
f 49/49/13 52/52/13 51/51/13
f 53/53/14 55/55/14 56/56/14
f 53/53/14 54/54/14 55/55/14
f 57/57/15 59/59/15 58/58/15
f 57/57/15 60/60/15 59/59/15
f 61/61/16 63/63/16 64/64/16
f 61/61/16 62/62/16 63/63/16
f 65/65/17 67/67/17 66/66/17
f 65/65/17 68/68/17 67/67/17
f 69/69/18 71/71/18 72/72/18
f 69/69/18 70/70/18 71/71/18
f 73/73/19 75/75/19 74/74/19
f 73/73/19 76/76/19 75/75/19
f 77/77/20 79/79/20 80/80/20
f 77/77/20 78/78/20 79/79/20
f 81/81/21 83/83/21 82/82/21
f 81/81/21 84/84/21 83/83/21
f 85/85/22 87/87/22 88/88/22
f 85/85/22 86/86/22 87/87/22
f 89/89/23 91/91/23 90/90/23
f 89/89/23 92/92/23 91/91/23
f 93/93/24 95/95/24 96/96/24
f 93/93/24 94/94/24 95/95/24
f 97/97/25 99/99/25 98/98/25
f 97/97/25 100/100/25 99/99/25
f 101/101/26 103/103/26 104/104/26
f 101/101/26 102/102/26 103/103/26
f 105/105/27 107/107/27 106/106/27
f 105/105/27 108/108/27 107/107/27
f 109/109/28 111/111/28 112/112/28
f 109/109/28 110/110/28 111/111/28
f 113/113/29 115/115/29 114/114/29
f 113/113/29 116/116/29 115/115/29
f 117/117/30 119/119/30 120/120/30
f 117/117/30 118/118/30 119/119/30
f 121/121/31 123/123/31 122/122/31
f 121/121/31 124/124/31 123/123/31
f 125/125/32 127/127/32 128/128/32
f 125/125/32 126/126/32 127/127/32
f 129/129/33 131/131/33 130/130/33
f 129/129/33 132/132/33 131/131/33
f 133/133/34 135/135/34 136/136/34
f 133/133/34 134/134/34 135/135/34
f 137/137/35 139/139/35 138/138/35
f 137/137/35 140/140/35 139/139/35
f 141/141/36 143/143/36 144/144/36
f 141/141/36 142/142/36 143/143/36
