# JudeanFloraV1; canonical UE cm (X east, +Y south, Z up), written with Y reflected and triangle winding reversed for the legacy OBJ importer adapter. One o object, no g groups, so the importer creates exactly one material slot.
# olive (Olea europaea), gnarled old variant, LOD0 bark
# short leaning fluted bole with a twisted trunk; the habit of an old Judean olive, stylised, not a survey of any tree
o SM_JudeanFloraV1_Olive_Gnarled_L0_Bark
s off
v 5.70729 61.33746 9.46814
v 29.23660 30.32548 -4.69416
v 65.25459 18.43865 -21.34798
v 43.77852 -16.76155 -17.38992
v 42.50955 -57.82903 -22.66191
v 5.70729 -48.57197 -6.05340
v -31.09497 -62.06624 7.34215
v -32.36394 -21.14486 13.64871
v -53.84001 11.58270 27.19961
v -17.82202 27.61644 14.48876
v 15.16798 -55.53819 35.58507
v -3.36717 -37.74975 43.59875
v -21.39035 -19.31901 51.32355
v -12.35204 5.33418 45.43046
v -2.59298 29.62853 39.20591
v 21.52815 27.07660 27.55008
v 45.58276 23.66059 15.97830
v 51.45214 -2.56978 14.66771
v 56.55964 -28.97533 13.74050
v 36.06598 -42.63466 24.58633
v 40.66892 -28.72027 69.84591
v 23.24256 -29.56371 82.38869
v 15.58776 -9.64951 79.83152
v 5.88366 9.50434 79.01228
v 19.02087 20.00096 65.63523
v 30.44977 32.68213 52.58613
v 46.22381 19.25519 46.87584
v 62.99136 7.93874 39.63029
v 59.60304 -10.85619 49.47818
v 58.53706 -30.53131 58.04928
v 63.73750 -3.36659 103.17010
v 50.06161 -3.01593 117.05471
v 48.15806 14.31421 108.33818
v 38.93903 31.45557 107.28070
v 52.16463 32.50043 93.00040
v 60.14284 42.74371 78.46223
v 70.22027 26.05933 78.35305
v 84.37011 15.24867 70.42545
v 77.37269 3.89229 84.63827
v 78.13957 -13.03235 94.27691
v 99.96764 20.70856 138.24999
v 90.44606 28.71866 144.80708
v 86.81963 41.24711 139.54356
v 85.20690 53.06413 132.08870
v 92.56425 55.11090 120.27777
v 101.08911 54.40412 109.11332
v 109.26262 43.14064 107.07729
v 116.14401 30.88680 107.63214
v 113.83817 21.87882 118.18473
v 109.56624 15.01232 129.69209
v 144.07791 52.94322 174.04897
v 140.73275 65.46631 170.57417
v 135.77735 77.93426 170.27969
v 140.98612 80.40714 158.16169
v 144.63931 86.04833 146.54603
v 151.20367 75.05355 142.53150
v 158.41686 66.07206 135.64711
v 157.26509 56.80403 145.28399
v 158.06990 45.61197 152.64486
v 150.79371 50.87879 162.61531
v 215.88136 79.05840 205.87242
v 215.89151 89.74316 198.84738
v 213.05816 102.13183 197.43019
v 218.54830 99.46743 186.19299
v 222.45249 103.10982 174.57379
v 225.83542 90.77836 174.65385
v 231.08169 80.64081 168.88999
v 227.68232 75.68396 180.17667
v 227.02051 65.77622 188.23361
v 221.53665 75.04417 195.12910
v 221.89884 96.46890 190.12494
v 229.36485 93.89797 187.71178
v 232.45737 86.78452 184.88166
v 229.36485 79.29552 183.29244
v 221.89884 75.81793 183.87506
v 214.43283 78.38887 186.28822
v 211.34031 85.50231 189.11834
v 214.43283 92.99131 190.70756
v 264.95992 33.89760 382.61709
v 269.25417 32.03247 380.54660
v 270.66050 27.52141 378.57712
v 268.35508 23.00695 377.86234
v 263.68841 21.13359 378.82096
v 259.39416 22.99872 380.89145
v 257.98784 27.50978 382.86093
v 260.29325 32.02424 383.57571
v 365.60080 -58.08212 617.73868
v 365.18712 -56.31931 618.54379
v 366.15722 -54.60140 618.72968
v 367.94283 -53.93474 618.18746
v 369.49797 -54.70983 617.23476
v 369.91164 -56.47265 616.42966
v 368.94154 -58.19055 616.24377
v 367.15593 -58.85722 616.78598
v 366.09977 -59.28957 617.48672
v 365.09376 -57.42269 619.32793
v 365.93689 -54.78267 619.78267
v 367.99426 -53.35751 618.50852
v 369.71663 -54.22037 616.46493
v 369.80702 -56.72151 615.19077
v 368.19737 -58.97752 615.64551
v 474.35815 -111.23172 730.66040
v 473.98928 -110.54720 731.33551
v 474.29843 -109.57919 731.50225
v 475.05280 -109.05663 731.03506
v 475.68433 -109.37301 730.28574
v 475.71748 -110.29010 729.81855
v 475.12727 -111.11730 729.98529
v 364.32343 -56.13616 617.48672
v 365.70193 -54.19896 618.98149
v 368.47160 -53.91616 619.35066
v 370.54682 -55.50071 618.31625
v 370.36491 -57.75942 616.65719
v 368.06285 -58.99143 615.62278
v 365.37414 -58.26901 615.99196
v 356.00931 -184.90008 793.70200
v 356.51476 -184.18977 794.25008
v 357.53031 -184.08607 794.38545
v 358.29122 -184.66707 794.00616
v 358.22452 -185.49527 793.39784
v 357.38043 -185.94701 793.01856
v 356.39457 -185.68212 793.15392
v 221.89884 95.95310 191.11769
v 229.35248 92.68599 190.85009
v 232.43988 85.58633 188.32716
v 229.35248 78.81300 185.02680
v 221.89884 76.33373 182.88231
v 214.44520 79.60084 183.14991
v 211.35780 86.70050 185.67284
v 214.44520 93.47383 188.97320
v 180.55934 -11.29911 423.44635
v 183.56619 -7.88294 425.63160
v 188.54460 -7.44720 426.34725
v 192.57830 -10.24713 425.17408
v 193.30439 -14.64257 422.79930
v 190.29754 -18.05873 420.61405
v 185.31913 -18.49447 419.89840
v 181.28543 -15.69455 421.07158
v 169.54283 -204.97975 711.99958
v 170.73527 -203.72117 712.90130
v 172.67162 -203.55930 713.10949
v 174.21760 -204.58895 712.50222
v 174.46759 -206.20697 711.43520
v 173.27515 -207.46555 710.53348
v 171.33880 -207.62742 710.32529
v 169.79282 -206.59777 710.93256
v 169.00549 -206.68347 711.71739
v 169.46608 -204.43255 713.26400
v 171.83869 -203.05575 713.64598
v 174.33669 -203.58982 712.57569
v 175.07904 -205.63260 710.85909
v 173.50674 -207.64583 709.78880
v 170.80375 -208.11351 710.17078
v 214.27238 -325.32953 872.48310
v 214.44127 -324.50420 873.05019
v 215.31123 -323.99937 873.19025
v 216.22716 -324.19520 872.79781
v 216.49936 -324.94422 872.16838
v 215.92284 -325.68240 871.77595
v 214.93175 -325.85388 871.91600
v 171.44752 -202.45081 711.71739
v 173.53609 -203.30062 713.32563
v 174.47189 -205.87692 713.72283
v 173.55022 -208.23969 712.60989
v 171.46513 -208.60972 710.82489
v 169.78673 -206.70837 709.71195
v 169.77889 -203.96740 710.10915
v 13.86866 -232.46863 902.00989
v 14.63447 -232.78023 902.59957
v 14.97760 -233.72487 902.74521
v 14.63965 -234.59122 902.33714
v 13.87512 -234.72690 901.68264
v 13.25971 -234.02974 901.27456
v 13.25683 -233.02471 901.42020
v 221.89884 96.29462 189.64332
v 229.18428 92.97048 190.21678
v 232.20201 85.64713 188.90590
v 229.18428 78.61450 186.47856
v 221.89884 75.99221 184.35668
v 214.61340 79.31636 183.78322
v 211.59567 86.63970 185.09410
v 214.61340 93.67233 187.52144
v 183.81502 41.12973 385.38114
v 188.13184 38.65289 385.29515
v 189.54556 34.09209 383.88888
v 187.22803 30.11898 381.98611
v 182.53683 29.06096 380.70145
v 178.22001 31.53780 380.78744
v 176.80630 36.09860 382.19371
v 179.12383 40.07171 384.09648
v 136.59452 -72.62204 622.86797
v 138.13269 -71.70027 623.57300
v 140.00893 -72.10759 623.73578
v 141.12417 -73.60542 623.26096
v 140.82511 -75.31634 622.42668
v 139.28695 -76.23812 621.72165
v 137.41071 -75.83079 621.55887
v 136.29547 -74.33296 622.03369
v 138.70982 -71.04864 623.81927
v 141.15811 -72.05765 623.15221
v 141.76279 -74.50608 622.10496
v 140.06852 -76.55023 621.46612
v 137.35112 -76.65080 621.71675
v 135.65684 -74.73207 622.66812
v 136.26152 -72.23887 623.60383
v 158.51649 -147.12009 808.04136
v 159.41420 -147.49006 807.79677
v 159.63592 -148.38782 807.41278
v 159.01468 -149.13734 807.17854
v 158.01830 -149.17422 807.27044
v 157.39707 -148.47068 807.61928
v 157.61878 -147.55651 807.96237
v 138.61269 -70.82378 622.64732
v 140.65253 -71.94620 624.07436
v 141.22947 -74.59197 624.42681
v 139.90906 -76.76878 623.43927
v 137.68560 -76.83744 621.85538
v 136.23340 -74.74625 620.86783
v 136.64599 -72.06992 621.22028
v 37.98323 -75.92514 764.13136
v 38.73117 -76.33670 764.65461
v 38.94271 -77.30681 764.78384
v 38.45856 -78.10498 764.42174
v 37.64330 -78.13015 763.84098
v 37.11082 -77.36338 763.47888
v 37.26211 -76.38206 763.60811
v 221.89884 96.07592 184.12376
v 228.86777 93.78233 187.09195
v 231.75439 87.01397 190.00628
v 228.86777 79.73565 191.15957
v 221.89884 76.21091 189.87624
v 214.92992 78.50450 186.90805
v 212.04329 85.27286 183.99372
v 214.92992 92.55118 182.84043
v 156.36091 152.03082 397.06311
v 158.36950 148.07885 399.16669
v 156.97040 143.42638 399.85559
v 152.98319 140.79877 398.72626
v 148.74353 141.73524 396.44025
v 146.73495 145.68721 394.33668
v 148.13405 150.33968 393.64778
v 152.12125 152.96729 394.77710
v 1.96479 223.73520 653.38673
v 2.67524 222.20276 654.25548
v 2.12401 220.39616 654.45607
v 0.63401 219.37370 653.87099
v -0.92195 219.73431 652.84297
v -1.63240 221.26676 651.97421
v -1.08118 223.07335 651.77363
v 0.40883 224.09581 652.35871
v 1.17435 224.76744 653.11485
v 2.70368 223.24341 654.72270
v 2.58971 220.58334 655.11980
v 0.91828 218.79031 654.00714
v -1.05200 219.21451 652.22256
v -1.83746 221.53651 651.10989
v -0.84664 224.00779 651.50700
v -112.54087 247.24057 784.00511
v -111.98012 246.68176 784.59465
v -112.02191 245.70640 784.74026
v -112.63477 245.04896 784.33228
v -113.35720 245.20450 783.67793
v -113.64521 246.05590 783.26996
v -113.28191 246.96204 783.41556
v 3.62042 221.59461 653.11485
v 2.37082 219.81661 654.70352
v -0.27141 219.48301 655.09589
v -2.31663 220.84502 653.99649
v -2.22474 222.87702 652.23320
v -0.06494 224.04887 651.13381
v 2.53641 223.47815 651.52618
v 8.78707 379.33575 835.16358
v 8.32889 378.68381 835.74610
v 7.36006 378.56149 835.88997
v 6.61015 379.06090 835.48685
v 6.64384 379.80596 834.84031
v 7.43577 380.23564 834.43720
v 8.38960 380.02638 834.58107
v 221.89884 95.82318 183.81138
v 229.10515 92.97530 184.70663
v 232.09011 86.12540 186.94530
v 229.10515 79.28605 189.21602
v 221.89884 76.46365 190.18862
v 214.69253 79.31153 189.29337
v 211.70758 86.16143 187.05470
v 214.69253 93.00079 184.78398
v 223.84925 165.09191 406.61588
v 228.10292 163.07206 407.71790
v 229.49595 158.82283 409.55951
v 227.21232 154.83336 411.06191
v 222.58975 153.44064 411.34501
v 218.33608 155.46049 410.24299
v 216.94305 159.70971 408.40138
v 219.22668 163.69918 406.89898
v 193.20304 289.88581 680.50563
v 192.52403 288.28325 681.19504
v 190.81849 287.52804 681.35422
v 189.08550 288.06257 680.88992
v 188.34023 289.57372 680.07412
v 189.01924 291.17628 679.38471
v 190.72477 291.93150 679.22554
v 192.45776 291.39697 679.68983
v 193.40682 291.28014 680.28988
v 193.37933 289.05672 681.73722
v 191.38819 287.34012 682.09469
v 188.93277 287.42298 681.09309
v 187.86205 289.24289 679.48666
v 188.98231 291.42943 678.48507
v 191.44997 292.33609 678.84253
v 132.09243 391.67858 834.89745
v 132.08235 390.86333 835.42814
v 131.35227 390.23391 835.55922
v 130.45195 390.26429 835.19196
v 130.05935 390.93159 834.60294
v 130.47011 391.73332 834.23569
v 131.37492 392.06576 834.36676
v 192.80288 287.44462 680.28988
v 190.72365 287.13660 681.90885
v 188.68055 288.78129 682.30870
v 188.21208 291.14020 681.18834
v 189.67101 292.43703 679.39142
v 191.95873 291.69523 678.27106
v 193.35254 289.47340 678.67091
v 286.03769 372.91082 817.66779
v 285.27531 372.79788 818.26142
v 284.52617 373.40093 818.40803
v 284.35440 374.26587 817.99723
v 284.88934 374.74137 817.33836
v 285.72817 374.46938 816.92756
v 286.23923 373.65470 817.07417
v 221.89884 95.70811 183.93993
v 228.80548 92.40393 183.26479
v 231.66630 85.43242 184.77769
v 228.80548 78.87740 187.59239
v 221.89884 76.57872 190.06007
v 214.99220 79.88290 190.73521
v 212.13138 86.85441 189.22231
v 214.99220 93.40943 186.40761
v 275.48905 144.45483 380.26518
v 271.73236 142.24154 382.18796
v 267.13682 143.33379 382.81765
v 264.39444 147.09175 381.78539
v 265.11167 151.31406 379.69585
v 268.86836 153.52735 377.77307
v 273.46390 152.43510 377.14338
v 276.20628 148.67714 378.17564
v 328.87631 279.23808 616.09536
v 327.41646 278.44148 616.89348
v 325.63282 278.87436 617.07775
v 324.57022 280.28315 616.54024
v 324.85111 281.84259 615.59581
v 326.31096 282.63920 614.79770
v 328.09460 282.20632 614.61342
v 329.15721 280.79753 615.15093
v 329.86341 280.26087 615.84559
v 328.54879 278.37822 617.09540
v 325.96527 278.12369 617.40407
v 324.05830 279.68894 616.53918
v 324.26386 281.89532 615.15199
v 326.42716 283.08136 614.28710
v 328.91919 282.35397 614.59578
v 338.61800 394.79785 799.31880
v 338.13598 394.10755 799.77706
v 337.18869 394.01422 799.89025
v 336.48946 394.58815 799.57312
v 336.56483 395.39715 799.06448
v 337.35805 395.83204 798.74736
v 338.27179 395.56532 798.86054
v 327.39196 277.57432 615.84559
v 325.26236 278.34720 617.15024
v 324.33862 280.77155 617.47246
v 325.31632 283.02180 616.56961
v 327.45924 283.40345 615.12156
v 329.15371 281.62912 614.21872
v 329.12377 279.03492 614.54094
v 429.52963 297.70309 772.30079
v 428.74878 297.98648 772.77916
v 428.41007 298.87540 772.89731
v 428.76856 299.70049 772.56627
v 429.55430 299.84043 772.03532
v 430.17561 299.18985 771.70427
v 430.16463 298.23864 771.82242
v 221.89884 96.02546 186.53147
v 228.20575 92.98774 183.64554
v 230.81816 85.94071 182.72461
v 228.20575 79.01242 184.30814
v 221.89884 76.26137 187.46853
v 215.59193 79.29909 190.35446
v 212.97952 86.34612 191.27539
v 215.59193 93.27441 189.69186
v 292.02317 86.93072 330.96732
v 288.03261 88.13710 333.12580
v 285.72750 92.16522 333.83268
v 286.45815 96.65546 332.67388
v 289.79655 98.97751 330.32821
v 293.78711 97.77113 328.16973
v 296.09222 93.74301 327.46285
v 295.36157 89.25276 328.62165
v 410.66645 135.57111 506.49440
v 409.16723 136.09119 507.37998
v 408.27503 137.66109 507.58445
v 408.51250 139.36118 506.98804
v 409.74052 140.19558 505.94011
v 411.23974 139.67549 505.05453
v 412.13194 138.10559 504.85006
v 411.89447 136.40550 505.44647
v 412.57573 136.09977 506.21726
v 410.77672 135.56650 507.98143
v 408.54605 136.77785 508.41714
v 407.56346 138.82167 507.19630
v 408.56886 140.15890 505.23821
v 410.80517 139.78260 504.01737
v 412.58839 137.97612 504.45308
v 476.98724 224.89860 599.93377
v 476.32760 224.70306 600.58063
v 475.50969 225.14723 600.74039
v 475.14941 225.89663 600.29275
v 475.51806 226.38695 599.57479
v 476.33803 226.24897 599.12714
v 476.99188 225.58659 599.28691
v 408.45874 135.48240 506.21726
v 407.83393 137.31779 507.91256
v 408.99345 139.57906 508.33127
v 411.06414 140.56342 507.15808
v 412.48675 139.52963 505.27643
v 412.19001 137.25615 504.10324
v 410.39738 135.45496 504.52195
v 482.12730 84.27182 590.04925
v 481.89820 84.94480 590.67086
v 482.32336 85.77393 590.82439
v 483.08261 86.13486 590.39422
v 483.60423 85.75580 589.70428
v 483.49543 84.92220 589.27412
v 482.83813 84.26176 589.42764
vt 0.00000 0.00000
vt 0.10000 0.00000
vt 0.20000 0.00000
vt 0.30000 0.00000
vt 0.40000 0.00000
vt 0.50000 0.00000
vt 0.60000 0.00000
vt 0.70000 0.00000
vt 0.80000 0.00000
vt 0.90000 0.00000
vt 0.00000 0.16667
vt 0.10000 0.16667
vt 0.20000 0.16667
vt 0.30000 0.16667
vt 0.40000 0.16667
vt 0.50000 0.16667
vt 0.60000 0.16667
vt 0.70000 0.16667
vt 0.80000 0.16667
vt 0.90000 0.16667
vt 0.00000 0.33333
vt 0.10000 0.33333
vt 0.20000 0.33333
vt 0.30000 0.33333
vt 0.40000 0.33333
vt 0.50000 0.33333
vt 0.60000 0.33333
vt 0.70000 0.33333
vt 0.80000 0.33333
vt 0.90000 0.33333
vt 0.00000 0.50000
vt 0.10000 0.50000
vt 0.20000 0.50000
vt 0.30000 0.50000
vt 0.40000 0.50000
vt 0.50000 0.50000
vt 0.60000 0.50000
vt 0.70000 0.50000
vt 0.80000 0.50000
vt 0.90000 0.50000
vt 0.00000 0.66667
vt 0.10000 0.66667
vt 0.20000 0.66667
vt 0.30000 0.66667
vt 0.40000 0.66667
vt 0.50000 0.66667
vt 0.60000 0.66667
vt 0.70000 0.66667
vt 0.80000 0.66667
vt 0.90000 0.66667
vt 0.00000 0.83333
vt 0.10000 0.83333
vt 0.20000 0.83333
vt 0.30000 0.83333
vt 0.40000 0.83333
vt 0.50000 0.83333
vt 0.60000 0.83333
vt 0.70000 0.83333
vt 0.80000 0.83333
vt 0.90000 0.83333
vt 0.00000 1.00000
vt 0.10000 1.00000
vt 0.20000 1.00000
vt 0.30000 1.00000
vt 0.40000 1.00000
vt 0.50000 1.00000
vt 0.60000 1.00000
vt 0.70000 1.00000
vt 0.80000 1.00000
vt 0.90000 1.00000
vt 0.00000 0.00000
vt 0.12500 0.00000
vt 0.25000 0.00000
vt 0.37500 0.00000
vt 0.50000 0.00000
vt 0.62500 0.00000
vt 0.75000 0.00000
vt 0.87500 0.00000
vt 0.00000 0.50000
vt 0.12500 0.50000
vt 0.25000 0.50000
vt 0.37500 0.50000
vt 0.50000 0.50000
vt 0.62500 0.50000
vt 0.75000 0.50000
vt 0.87500 0.50000
vt 0.00000 1.00000
vt 0.12500 1.00000
vt 0.25000 1.00000
vt 0.37500 1.00000
vt 0.50000 1.00000
vt 0.62500 1.00000
vt 0.75000 1.00000
vt 0.87500 1.00000
vt 0.00000 0.00000
vt 0.14286 0.00000
vt 0.28571 0.00000
vt 0.42857 0.00000
vt 0.57143 0.00000
vt 0.71429 0.00000
vt 0.85714 0.00000
vt 0.00000 1.00000
vt 0.14286 1.00000
vt 0.28571 1.00000
vt 0.42857 1.00000
vt 0.57143 1.00000
vt 0.71429 1.00000
vt 0.85714 1.00000
vt 0.00000 0.00000
vt 0.14286 0.00000
vt 0.28571 0.00000
vt 0.42857 0.00000
vt 0.57143 0.00000
vt 0.71429 0.00000
vt 0.85714 0.00000
vt 0.00000 1.00000
vt 0.14286 1.00000
vt 0.28571 1.00000
vt 0.42857 1.00000
vt 0.57143 1.00000
vt 0.71429 1.00000
vt 0.85714 1.00000
vt 0.00000 0.00000
vt 0.12500 0.00000
vt 0.25000 0.00000
vt 0.37500 0.00000
vt 0.50000 0.00000
vt 0.62500 0.00000
vt 0.75000 0.00000
vt 0.87500 0.00000
vt 0.00000 0.50000
vt 0.12500 0.50000
vt 0.25000 0.50000
vt 0.37500 0.50000
vt 0.50000 0.50000
vt 0.62500 0.50000
vt 0.75000 0.50000
vt 0.87500 0.50000
vt 0.00000 1.00000
vt 0.12500 1.00000
vt 0.25000 1.00000
vt 0.37500 1.00000
vt 0.50000 1.00000
vt 0.62500 1.00000
vt 0.75000 1.00000
vt 0.87500 1.00000
vt 0.00000 0.00000
vt 0.14286 0.00000
vt 0.28571 0.00000
vt 0.42857 0.00000
vt 0.57143 0.00000
vt 0.71429 0.00000
vt 0.85714 0.00000
vt 0.00000 1.00000
vt 0.14286 1.00000
vt 0.28571 1.00000
vt 0.42857 1.00000
vt 0.57143 1.00000
vt 0.71429 1.00000
vt 0.85714 1.00000
vt 0.00000 0.00000
vt 0.14286 0.00000
vt 0.28571 0.00000
vt 0.42857 0.00000
vt 0.57143 0.00000
vt 0.71429 0.00000
vt 0.85714 0.00000
vt 0.00000 1.00000
vt 0.14286 1.00000
vt 0.28571 1.00000
vt 0.42857 1.00000
vt 0.57143 1.00000
vt 0.71429 1.00000
vt 0.85714 1.00000
vt 0.00000 0.00000
vt 0.12500 0.00000
vt 0.25000 0.00000
vt 0.37500 0.00000
vt 0.50000 0.00000
vt 0.62500 0.00000
vt 0.75000 0.00000
vt 0.87500 0.00000
vt 0.00000 0.50000
vt 0.12500 0.50000
vt 0.25000 0.50000
vt 0.37500 0.50000
vt 0.50000 0.50000
vt 0.62500 0.50000
vt 0.75000 0.50000
vt 0.87500 0.50000
vt 0.00000 1.00000
vt 0.12500 1.00000
vt 0.25000 1.00000
vt 0.37500 1.00000
vt 0.50000 1.00000
vt 0.62500 1.00000
vt 0.75000 1.00000
vt 0.87500 1.00000
vt 0.00000 0.00000
vt 0.14286 0.00000
vt 0.28571 0.00000
vt 0.42857 0.00000
vt 0.57143 0.00000
vt 0.71429 0.00000
vt 0.85714 0.00000
vt 0.00000 1.00000
vt 0.14286 1.00000
vt 0.28571 1.00000
vt 0.42857 1.00000
vt 0.57143 1.00000
vt 0.71429 1.00000
vt 0.85714 1.00000
vt 0.00000 0.00000
vt 0.14286 0.00000
vt 0.28571 0.00000
vt 0.42857 0.00000
vt 0.57143 0.00000
vt 0.71429 0.00000
vt 0.85714 0.00000
vt 0.00000 1.00000
vt 0.14286 1.00000
vt 0.28571 1.00000
vt 0.42857 1.00000
vt 0.57143 1.00000
vt 0.71429 1.00000
vt 0.85714 1.00000
vt 0.00000 0.00000
vt 0.12500 0.00000
vt 0.25000 0.00000
vt 0.37500 0.00000
vt 0.50000 0.00000
vt 0.62500 0.00000
vt 0.75000 0.00000
vt 0.87500 0.00000
vt 0.00000 0.50000
vt 0.12500 0.50000
vt 0.25000 0.50000
vt 0.37500 0.50000
vt 0.50000 0.50000
vt 0.62500 0.50000
vt 0.75000 0.50000
vt 0.87500 0.50000
vt 0.00000 1.00000
vt 0.12500 1.00000
vt 0.25000 1.00000
vt 0.37500 1.00000
vt 0.50000 1.00000
vt 0.62500 1.00000
vt 0.75000 1.00000
vt 0.87500 1.00000
vt 0.00000 0.00000
vt 0.14286 0.00000
vt 0.28571 0.00000
vt 0.42857 0.00000
vt 0.57143 0.00000
vt 0.71429 0.00000
vt 0.85714 0.00000
vt 0.00000 1.00000
vt 0.14286 1.00000
vt 0.28571 1.00000
vt 0.42857 1.00000
vt 0.57143 1.00000
vt 0.71429 1.00000
vt 0.85714 1.00000
vt 0.00000 0.00000
vt 0.14286 0.00000
vt 0.28571 0.00000
vt 0.42857 0.00000
vt 0.57143 0.00000
vt 0.71429 0.00000
vt 0.85714 0.00000
vt 0.00000 1.00000
vt 0.14286 1.00000
vt 0.28571 1.00000
vt 0.42857 1.00000
vt 0.57143 1.00000
vt 0.71429 1.00000
vt 0.85714 1.00000
vt 0.00000 0.00000
vt 0.12500 0.00000
vt 0.25000 0.00000
vt 0.37500 0.00000
vt 0.50000 0.00000
vt 0.62500 0.00000
vt 0.75000 0.00000
vt 0.87500 0.00000
vt 0.00000 0.50000
vt 0.12500 0.50000
vt 0.25000 0.50000
vt 0.37500 0.50000
vt 0.50000 0.50000
vt 0.62500 0.50000
vt 0.75000 0.50000
vt 0.87500 0.50000
vt 0.00000 1.00000
vt 0.12500 1.00000
vt 0.25000 1.00000
vt 0.37500 1.00000
vt 0.50000 1.00000
vt 0.62500 1.00000
vt 0.75000 1.00000
vt 0.87500 1.00000
vt 0.00000 0.00000
vt 0.14286 0.00000
vt 0.28571 0.00000
vt 0.42857 0.00000
vt 0.57143 0.00000
vt 0.71429 0.00000
vt 0.85714 0.00000
vt 0.00000 1.00000
vt 0.14286 1.00000
vt 0.28571 1.00000
vt 0.42857 1.00000
vt 0.57143 1.00000
vt 0.71429 1.00000
vt 0.85714 1.00000
vt 0.00000 0.00000
vt 0.14286 0.00000
vt 0.28571 0.00000
vt 0.42857 0.00000
vt 0.57143 0.00000
vt 0.71429 0.00000
vt 0.85714 0.00000
vt 0.00000 1.00000
vt 0.14286 1.00000
vt 0.28571 1.00000
vt 0.42857 1.00000
vt 0.57143 1.00000
vt 0.71429 1.00000
vt 0.85714 1.00000
vt 0.00000 0.00000
vt 0.12500 0.00000
vt 0.25000 0.00000
vt 0.37500 0.00000
vt 0.50000 0.00000
vt 0.62500 0.00000
vt 0.75000 0.00000
vt 0.87500 0.00000
vt 0.00000 0.50000
vt 0.12500 0.50000
vt 0.25000 0.50000
vt 0.37500 0.50000
vt 0.50000 0.50000
vt 0.62500 0.50000
vt 0.75000 0.50000
vt 0.87500 0.50000
vt 0.00000 1.00000
vt 0.12500 1.00000
vt 0.25000 1.00000
vt 0.37500 1.00000
vt 0.50000 1.00000
vt 0.62500 1.00000
vt 0.75000 1.00000
vt 0.87500 1.00000
vt 0.00000 0.00000
vt 0.14286 0.00000
vt 0.28571 0.00000
vt 0.42857 0.00000
vt 0.57143 0.00000
vt 0.71429 0.00000
vt 0.85714 0.00000
vt 0.00000 1.00000
vt 0.14286 1.00000
vt 0.28571 1.00000
vt 0.42857 1.00000
vt 0.57143 1.00000
vt 0.71429 1.00000
vt 0.85714 1.00000
vt 0.00000 0.00000
vt 0.14286 0.00000
vt 0.28571 0.00000
vt 0.42857 0.00000
vt 0.57143 0.00000
vt 0.71429 0.00000
vt 0.85714 0.00000
vt 0.00000 1.00000
vt 0.14286 1.00000
vt 0.28571 1.00000
vt 0.42857 1.00000
vt 0.57143 1.00000
vt 0.71429 1.00000
vt 0.85714 1.00000
vt 0.00000 0.00000
vt 0.12500 0.00000
vt 0.25000 0.00000
vt 0.37500 0.00000
vt 0.50000 0.00000
vt 0.62500 0.00000
vt 0.75000 0.00000
vt 0.87500 0.00000
vt 0.00000 0.50000
vt 0.12500 0.50000
vt 0.25000 0.50000
vt 0.37500 0.50000
vt 0.50000 0.50000
vt 0.62500 0.50000
vt 0.75000 0.50000
vt 0.87500 0.50000
vt 0.00000 1.00000
vt 0.12500 1.00000
vt 0.25000 1.00000
vt 0.37500 1.00000
vt 0.50000 1.00000
vt 0.62500 1.00000
vt 0.75000 1.00000
vt 0.87500 1.00000
vt 0.00000 0.00000
vt 0.14286 0.00000
vt 0.28571 0.00000
vt 0.42857 0.00000
vt 0.57143 0.00000
vt 0.71429 0.00000
vt 0.85714 0.00000
vt 0.00000 1.00000
vt 0.14286 1.00000
vt 0.28571 1.00000
vt 0.42857 1.00000
vt 0.57143 1.00000
vt 0.71429 1.00000
vt 0.85714 1.00000
vt 0.00000 0.00000
vt 0.14286 0.00000
vt 0.28571 0.00000
vt 0.42857 0.00000
vt 0.57143 0.00000
vt 0.71429 0.00000
vt 0.85714 0.00000
vt 0.00000 1.00000
vt 0.14286 1.00000
vt 0.28571 1.00000
vt 0.42857 1.00000
vt 0.57143 1.00000
vt 0.71429 1.00000
vt 0.85714 1.00000
vn 0.6740 0.1847 0.7153
vn -0.5596 -0.2236 -0.7980
vn 0.4890 0.3847 0.7829
vn -0.5916 -0.2584 -0.7637
vn 0.6487 -0.3180 0.6914
vn -0.6569 0.0612 -0.7515
vn 0.7228 -0.1099 0.6823
vn -0.7205 0.1142 -0.6840
vn 0.2760 -0.4378 0.8556
vn -0.3623 0.4065 -0.8388
vn 0.4499 -0.4784 0.7541
vn -0.3377 0.4402 -0.8320
vn 0.0216 -0.1516 0.9882
vn 0.0453 0.0600 -0.9972
vn -0.0364 -0.4026 0.9147
vn 0.0042 0.0359 -0.9993
vn 0.2016 0.2891 0.9358
vn -0.2408 -0.3558 -0.9030
vn -0.0932 0.2099 0.9733
vn -0.2681 -0.3355 -0.9031
vn -0.4862 -0.7258 0.4867
vn 0.3373 -0.8466 0.4117
vn -0.3592 -0.6371 0.6820
vn -0.7806 -0.2252 0.5830
vn -0.8259 0.3982 0.3991
vn -0.5510 -0.2450 0.7978
vn -0.6219 0.4193 0.6614
vn -0.5046 0.8467 0.1689
vn -0.0020 0.9760 -0.2178
vn -0.2871 0.8003 0.5263
vn 0.2023 0.9701 0.1341
vn 0.5258 0.7707 -0.3599
vn 0.8492 0.2141 -0.4827
vn 0.5865 0.8035 0.1024
vn 0.9646 0.1929 -0.1799
vn 0.9054 -0.3134 -0.2866
vn 0.5341 -0.8437 -0.0535
vn 0.9961 -0.0745 -0.0471
vn 0.5846 -0.7903 0.1835
vn 0.0909 -0.9545 0.2842
vn 0.3294 -0.8552 0.4001
vn 0.3705 -0.8447 0.3862
vn -0.5980 -0.1283 0.7911
vn -0.8380 0.1689 0.5189
vn -0.5358 -0.2368 0.8104
vn -0.5348 -0.2376 0.8108
vn -0.4831 0.8535 0.1953
vn -0.3618 0.8923 -0.2698
vn -0.5318 0.7909 0.3028
vn -0.5296 0.8025 0.2748
vn 0.4482 0.7399 -0.5016
vn 0.5508 0.3377 -0.7633
vn 0.3608 0.8196 -0.4450
vn 0.3659 0.8122 -0.4545
vn 0.8918 -0.3254 -0.3142
vn 0.6338 -0.7257 -0.2678
vn 0.8986 -0.2152 -0.3823
vn 0.9063 -0.1774 -0.3836
vn 0.2325 -0.8449 0.4818
vn -0.2297 -0.8219 0.5213
vn 0.3823 -0.8341 0.3976
vn -0.1574 -0.7308 0.6642
vn -0.7083 0.2535 0.6588
vn -0.6321 0.1374 0.7626
vn -0.4061 -0.1629 0.8992
vn -0.7168 0.2994 0.6297
vn -0.3399 0.9071 -0.2484
vn -0.3858 0.9190 -0.0810
vn -0.4728 0.8213 0.3192
vn -0.3087 0.9049 -0.2930
vn 0.4792 0.2949 -0.8267
vn 0.4439 0.4610 -0.7684
vn 0.2779 0.7775 -0.5641
vn 0.5028 0.2448 -0.8290
vn 0.6197 -0.7330 -0.2806
vn 0.7145 -0.6015 -0.3573
vn 0.8150 -0.2584 -0.5186
vn 0.5961 -0.7673 -0.2366
vn -0.1148 -0.7598 0.6400
vn 0.0506 -0.8043 0.5921
vn 0.0365 -0.6067 0.7941
vn -0.6466 0.0387 0.7619
vn -0.6052 0.1531 0.7812
vn -0.3766 -0.1280 0.9175
vn -0.5407 0.3948 0.7428
vn -0.5668 0.8203 -0.0762
vn -0.4563 0.8800 -0.1318
vn -0.5149 0.8235 0.2380
vn -0.2313 0.9437 -0.2363
vn 0.1871 0.4336 -0.8815
vn 0.3206 0.3888 -0.8637
vn 0.1853 0.6872 -0.7024
vn 0.5502 0.2733 -0.7890
vn 0.5905 -0.6158 -0.5217
vn 0.6560 -0.6388 -0.4020
vn 0.7422 -0.3302 -0.5832
vn 0.7128 -0.6863 -0.1449
vn 0.0686 -0.8606 0.5047
vn 0.0785 -0.7870 0.6119
vn 0.4081 -0.8260 0.3888
vn -0.3898 0.1481 0.9089
vn -0.4953 0.4776 0.7257
vn -0.3025 -0.0978 0.9481
vn -0.3589 0.0246 0.9330
vn -0.2656 0.9606 0.0818
vn -0.1830 0.9328 -0.3106
vn -0.3148 0.8889 0.3327
vn -0.2992 0.9346 0.1924
vn 0.2650 0.4664 -0.8440
vn 0.3217 0.0821 -0.9433
vn 0.1840 0.6868 -0.7032
vn 0.2223 0.5663 -0.7937
vn 0.4672 -0.6645 -0.5832
vn 0.3174 -0.8997 -0.2995
vn 0.5100 -0.4467 -0.7350
vn 0.4822 -0.5719 -0.6637
vn 0.0638 -0.8624 0.5021
vn -0.1864 -0.6551 0.7322
vn 0.2100 -0.9331 0.2918
vn 0.1240 -0.9064 0.4039
vn -0.8924 -0.2473 -0.3774
vn 0.8924 0.2473 0.3774
vn -0.3807 0.1293 -0.9156
vn 0.3785 0.9013 0.2108
vn 0.4631 0.8681 0.1786
vn 0.9081 0.4155 -0.0520
vn 0.9394 0.3313 -0.0880
vn 0.9081 -0.3169 -0.2737
vn 0.8695 -0.3976 -0.2931
vn 0.3785 -0.8669 -0.3243
vn 0.2957 -0.9002 -0.3197
vn -0.3705 -0.9124 -0.1741
vn -0.4536 -0.8786 -0.1492
vn -0.9000 -0.4267 0.0890
vn -0.9322 -0.3421 0.1180
vn -0.9000 0.3057 0.3107
vn -0.8623 0.3891 0.3241
vn -0.3705 0.8558 0.3611
vn -0.2862 0.8920 0.3500
vn 0.4520 0.8802 0.1446
vn -0.9074 -0.3312 0.2588
vn 0.8971 0.3789 -0.2272
vn -0.7911 0.3963 0.4660
vn 0.8215 -0.3480 -0.4518
vn -0.2151 0.8947 0.3915
vn 0.2700 -0.8765 -0.3986
vn 0.4830 0.8720 0.0790
vn -0.4357 -0.8948 -0.0975
vn 0.8945 0.3416 -0.2883
vn -0.8780 -0.3930 0.2731
vn 0.7783 -0.3859 -0.4954
vn -0.8023 0.3311 0.4967
vn 0.2023 -0.8843 -0.4209
vn -0.2535 0.8591 0.4446
vn -0.4959 -0.8616 -0.1085
vn 0.3801 -0.3090 0.8718
vn -0.2052 0.2835 -0.9368
vn -0.6623 -0.6758 0.3234
vn -0.6903 0.0969 0.7170
vn -0.1929 0.7940 0.5765
vn 0.4552 0.8904 0.0077
vn 0.7660 0.3136 -0.5612
vn 0.5055 -0.5021 -0.7017
vn -0.1302 -0.9424 -0.3080
vn 0.6506 -0.3259 0.6859
vn -0.6506 0.3259 -0.6859
vn -0.8703 0.4163 0.2631
vn -0.1590 0.7969 0.5827
vn 0.6717 0.5737 0.4687
vn 0.9963 -0.0853 0.0068
vn 0.5704 -0.6838 -0.4550
vn -0.2853 -0.7712 -0.5691
vn -0.9265 -0.2816 -0.2495
vn -0.0474 -0.5888 0.8069
vn 0.0474 0.5888 -0.8069
vn 0.3760 0.8230 0.4258
vn -0.7857 0.6029 0.1385
vn 0.9121 0.2958 0.2838
vn -0.1335 0.9202 0.3681
vn 0.9121 -0.4098 -0.0123
vn 0.5992 0.7020 0.3849
vn 0.3760 -0.8804 -0.2890
vn 0.9822 0.0675 0.1754
vn -0.3821 -0.8403 -0.3845
vn 0.7851 -0.6043 -0.1356
vn -0.9182 -0.3131 -0.2427
vn 0.1332 -0.9213 -0.3654
vn -0.9182 0.3925 0.0534
vn -0.5994 -0.7032 -0.3825
vn -0.3821 0.8630 0.3304
vn -0.9825 -0.0689 -0.1728
vn -0.8032 0.5083 0.3106
vn -0.7915 0.5210 0.3195
vn -0.1511 0.8198 0.5523
vn -0.1284 0.8221 0.5547
vn 0.5905 0.6505 0.4777
vn 0.6097 0.6381 0.4702
vn 0.9874 0.0944 0.1271
vn 0.9903 0.0770 0.1153
vn 0.8028 -0.5196 -0.2923
vn 0.7906 -0.5327 -0.3020
vn 0.1496 -0.8318 -0.5345
vn 0.1275 -0.8338 -0.5372
vn -0.5928 -0.6616 -0.4592
vn -0.6106 -0.6499 -0.4526
vn -0.9886 -0.1049 -0.1081
vn -0.9913 -0.0887 -0.0977
vn -0.0430 -0.5546 0.8310
vn 0.1353 0.3835 -0.9136
vn -0.9612 0.0071 0.2759
vn -0.4686 0.6379 0.6112
vn 0.3783 0.7844 0.4915
vn 0.9417 0.3364 0.0070
vn 0.7974 -0.3689 -0.4776
vn 0.0541 -0.8002 -0.5973
vn -0.7286 -0.6329 -0.2619
vn 0.2117 -0.5825 0.7848
vn -0.2117 0.5825 -0.7848
vn 0.1646 0.9442 0.2852
vn 0.6904 0.3485 0.6339
vn 0.6929 -0.5103 0.5095
vn 0.1701 -0.9854 0.0056
vn -0.4843 -0.7192 -0.4983
vn -0.7775 0.0880 -0.6227
vn -0.4887 0.8283 -0.2740
vn -0.6346 -0.1126 0.7646
vn 0.6346 0.1126 -0.7646
vn 0.3721 0.8710 0.3208
vn 0.4758 0.8180 0.3231
vn 0.9036 0.3217 0.2828
vn 0.9425 0.2127 0.2576
vn 0.9036 -0.4188 0.0900
vn 0.8524 -0.5206 0.0488
vn 0.3721 -0.9169 -0.1446
vn 0.2628 -0.9481 -0.1788
vn -0.3795 -0.8806 -0.2837
vn -0.4801 -0.8265 -0.2938
vn -0.9109 -0.3314 -0.2458
vn -0.9475 -0.2230 -0.2291
vn -0.9109 0.4091 -0.0529
vn -0.8593 0.5111 -0.0206
vn -0.3795 0.9072 0.1818
vn -0.2690 0.9404 0.2079
vn 0.4509 0.7701 0.4513
vn -0.5804 0.7734 0.2550
vn 0.9372 0.2031 0.2835
vn 0.1536 0.8840 0.4416
vn 0.8718 -0.4879 -0.0431
vn 0.7966 0.4744 0.3746
vn 0.2938 -0.8950 -0.3358
vn 0.9721 -0.2153 0.0932
vn -0.4571 -0.7820 -0.4237
vn 0.5772 -0.7813 -0.2378
vn -0.9430 -0.2136 -0.2551
vn -0.1568 -0.8918 -0.4243
vn -0.8761 0.4768 0.0715
vn -0.7999 -0.4823 -0.3572
vn -0.2985 0.8825 0.3634
vn -0.9753 0.2074 -0.0758
vn -0.1665 -0.4085 0.8974
vn 0.1878 0.2475 -0.9505
vn 0.4326 0.8488 0.3040
vn 0.9710 0.2391 0.0017
vn 0.7789 -0.5531 -0.2957
vn 0.0009 -0.9314 -0.3641
vn -0.7771 -0.6107 -0.1522
vn -0.9692 0.1673 0.1806
vn -0.4309 0.8168 0.3836
vn 0.0989 -0.3706 0.9235
vn -0.0989 0.3706 -0.9235
vn 0.3195 0.9112 0.2601
vn 0.7809 0.2467 0.5739
vn 0.6498 -0.6037 0.4619
vn 0.0249 -0.9997 0.0084
vn -0.6233 -0.6430 -0.4450
vn -0.8066 0.1977 -0.5570
vn -0.3871 0.8894 -0.2432
vn -0.5797 -0.0179 0.8146
vn 0.5797 0.0179 -0.8146
vn 0.3558 0.9270 -0.1191
vn 0.8540 0.5036 0.1305
vn 0.8713 0.4529 0.1888
vn 0.9075 -0.2199 0.3580
vn 0.8714 -0.2820 0.4015
vn 0.4338 -0.8193 0.3748
vn 0.3558 -0.8471 0.3947
vn -0.2979 -0.9398 0.1675
vn -0.3734 -0.9115 0.1724
vn -0.8505 -0.5070 -0.1404
vn -0.8890 -0.4374 -0.1353
vn -0.9042 0.2175 -0.3677
vn -0.8890 0.2974 -0.3482
vn -0.4296 0.8171 -0.3845
vn -0.3733 0.8625 -0.3416
vn 0.3025 0.9365 -0.1773
vn 0.7713 0.5565 0.3090
vn 0.7787 0.5411 0.3177
vn 0.8197 -0.1653 0.5485
vn 0.8134 -0.1870 0.5508
vn 0.3867 -0.7908 0.4745
vn 0.3683 -0.8039 0.4670
vn -0.2787 -0.9520 0.1269
vn -0.2959 -0.9482 0.1153
vn -0.7826 -0.5515 -0.2889
vn -0.7901 -0.5354 -0.2983
vn -0.8312 0.1716 -0.5288
vn -0.8248 0.1927 -0.5315
vn -0.3970 0.7976 -0.4541
vn -0.3798 0.8096 -0.4476
vn 0.2686 0.9574 -0.1060
vn 0.2844 0.9539 -0.0959
vn -0.4947 0.2436 0.8342
vn 0.3027 -0.2651 -0.9155
vn 0.5006 0.8138 0.2952
vn 0.7538 0.0653 0.6539
vn 0.4344 -0.7313 0.5259
vn -0.2170 -0.9761 0.0076
vn -0.7100 -0.4849 -0.5107
vn -0.6733 0.3726 -0.6387
vn -0.1345 0.9505 -0.2800
vn -0.6481 0.1395 0.7487
vn 0.6481 -0.1395 -0.7487
vn 0.8854 -0.3634 0.2897
vn 0.1892 -0.7411 0.6441
vn -0.6493 -0.5572 0.5177
vn -0.9987 0.0500 0.0056
vn -0.5959 0.6231 -0.5066
vn 0.2558 0.7306 -0.6330
vn 0.9151 0.2916 -0.2786
vn 0.0296 0.6544 0.7556
vn -0.0296 -0.6544 -0.7556
vn 0.3827 0.8818 -0.2755
vn 0.4689 0.8423 -0.2660
vn 0.9238 0.3669 -0.1091
vn 0.9571 0.2778 -0.0830
vn 0.9238 -0.3599 0.1304
vn 0.8814 -0.4458 0.1559
vn 0.3827 -0.8729 0.3026
vn 0.2916 -0.9047 0.3106
vn -0.3825 -0.8716 0.3067
vn -0.4709 -0.8327 0.2913
vn -0.9236 -0.3566 0.1403
vn -0.9576 -0.2672 0.1079
vn -0.9236 0.3702 -0.0990
vn -0.8808 0.4551 -0.1304
vn -0.3825 0.8832 -0.2712
vn -0.2925 0.9129 -0.2846
vn 0.4725 0.8230 -0.3153
vn 0.9270 -0.2911 0.2364
vn 0.9515 0.3075 -0.0102
vn 0.3995 -0.8128 0.4241
vn 0.8706 -0.3811 0.3112
vn -0.3613 -0.8616 0.3566
vn 0.2817 -0.8410 0.4619
vn -0.9096 -0.4090 0.0734
vn -0.4745 -0.8057 0.3546
vn -0.9243 0.2799 -0.2596
vn -0.9553 -0.2916 0.0499
vn -0.3967 0.8015 -0.4474
vn -0.8757 0.3986 -0.2725
vn 0.3641 0.8504 -0.3799
vn -0.2850 0.8598 -0.4237
vn 0.9124 0.3978 -0.0967
vn -0.1072 0.4309 0.8960
vn -0.0057 -0.3129 -0.9498
vn 0.9488 0.1639 0.2698
vn 0.5825 -0.5512 0.5974
vn -0.2246 -0.8477 0.4805
vn -0.8646 -0.5024 0.0071
vn -0.8556 0.2248 -0.4662
vn -0.2044 0.7862 -0.5831
vn 0.5987 0.7591 -0.2556
vn -0.3070 0.5219 0.7959
vn 0.3070 -0.5219 -0.7959
vn 0.3647 -0.8812 0.3007
vn -0.3835 -0.6386 0.6671
vn -0.8394 0.0881 0.5364
vn -0.6596 0.7516 0.0069
vn 0.0204 0.8523 -0.5226
vn 0.6886 0.3144 -0.6534
vn 0.8419 -0.4571 -0.2870
vn 0.5062 0.4500 0.7357
vn -0.5062 -0.4500 -0.7357
vn 0.3873 0.8712 -0.3018
vn 0.5310 -0.8449 0.0648
vn 0.9124 0.3187 -0.2566
vn -0.1862 -0.9428 0.2764
vn 0.9125 -0.4084 -0.0238
vn -0.8088 -0.5095 0.2938
vn 0.3874 -0.8844 0.2603
vn -0.9711 0.2156 0.1023
vn -0.3553 -0.8304 0.4293
vn -0.5678 0.8017 -0.1866
vn -0.8804 -0.2779 0.3843
vn 0.1594 0.9021 -0.4011
vn -0.8804 0.4493 0.1515
vn 0.7851 0.4586 -0.4163
vn -0.3554 0.9253 -0.1327
vn 0.9373 -0.2689 -0.2217
vn 0.5925 -0.7498 0.2945
vn 0.5786 -0.7577 0.3020
vn -0.1293 -0.8440 0.5206
vn -0.1497 -0.8393 0.5226
vn -0.7757 -0.4425 0.4499
vn -0.7888 -0.4258 0.4433
vn -0.9670 0.2241 0.1209
vn -0.9643 0.2407 0.1106
vn -0.5881 0.7616 -0.2723
vn -0.5734 0.7697 -0.2807
vn 0.1351 0.8561 -0.4989
vn 0.1548 0.8513 -0.5013
vn 0.7821 0.4533 -0.4275
vn 0.7939 0.4378 -0.4219
vn 0.9720 -0.2136 -0.0980
vn 0.9694 -0.2286 -0.0892
vn 0.2046 0.4798 0.8532
vn -0.2323 -0.2964 -0.9264
vn 0.8633 -0.4455 0.2369
vn 0.1453 -0.8392 0.5240
vn -0.6819 -0.5978 0.4216
vn -0.9953 0.0970 0.0067
vn -0.5589 0.7218 -0.4081
vn 0.2986 0.8063 -0.5106
vn 0.9316 0.2868 -0.2235
vn 0.0492 0.5283 0.8476
vn -0.0492 -0.5283 -0.8476
vn -0.1927 -0.9494 0.2479
vn -0.7551 -0.3605 0.5476
vn -0.7452 0.5006 0.4407
vn -0.1703 0.9854 0.0076
vn 0.5365 0.7288 -0.4254
vn 0.8431 -0.0759 -0.5324
vn 0.5186 -0.8227 -0.2327
vn 0.5453 0.0971 0.8326
vn -0.5453 -0.0971 -0.8326
vn 0.3840 0.9150 -0.1240
vn -0.2569 -0.9643 0.0640
vn 0.8698 0.3657 -0.3311
vn -0.8027 -0.5128 0.3046
vn 0.8700 -0.3954 -0.2946
vn -0.9171 0.2328 0.3237
vn 0.3844 -0.9225 -0.0360
vn -0.5184 0.8490 0.1026
vn -0.3026 -0.9069 0.2933
vn 0.1650 0.9589 -0.2309
vn -0.7884 -0.3577 0.5006
vn 0.7239 0.4980 -0.4775
vn -0.7884 0.4034 0.4644
vn 0.8300 -0.2621 -0.4923
vn -0.3029 0.9306 0.2056
vn 0.4180 -0.8689 -0.2652
vn -0.1046 -0.9379 0.3308
vn -0.1221 -0.9322 0.3408
vn -0.6543 -0.4774 0.5865
vn -0.6671 -0.4559 0.5892
vn -0.8192 0.2646 0.5088
vn -0.8163 0.2894 0.4999
vn -0.4978 0.8561 0.1390
vn -0.4822 0.8670 0.1252
vn 0.1211 0.9449 -0.3042
vn 0.1393 0.9387 -0.3155
vn 0.6724 0.4832 -0.5607
vn 0.6843 0.4623 -0.5639
vn 0.8366 -0.2605 -0.4819
vn 0.8335 -0.2829 -0.4745
vn 0.5135 -0.8508 -0.1114
vn 0.4996 -0.8605 -0.0998
vn 0.5498 0.2071 0.8092
vn -0.4326 -0.0427 -0.9006
vn 0.5561 -0.7595 0.3375
vn -0.1973 -0.6327 0.7488
vn -0.7981 -0.0241 0.6020
vn -0.7939 0.6080 0.0076
vn -0.1878 0.7877 -0.5867
vn 0.5638 0.3796 -0.7335
vn 0.8948 -0.3090 -0.3222
vn 0.4569 0.6077 0.6496
vn -0.4569 -0.6077 -0.6496
vn -0.7611 -0.5606 0.3264
vn -0.6611 0.2054 0.7216
vn -0.0572 0.8122 0.5806
vn 0.5960 0.8030 0.0094
vn 0.8065 0.1846 -0.5617
vn 0.4158 -0.5772 -0.7028
vn -0.2818 -0.9088 -0.3075
vn 0.5910 -0.4295 0.6828
vn -0.5910 0.4295 -0.6828
f 1/1/1 12/12/1 2/2/1
f 1/1/2 11/11/2 12/12/2
f 2/2/3 13/13/3 3/3/3
f 2/2/4 12/12/4 13/13/4
f 3/3/5 14/14/5 4/4/5
f 3/3/6 13/13/6 14/14/6
f 4/4/7 15/15/7 5/5/7
f 4/4/8 14/14/8 15/15/8
f 5/5/9 16/16/9 6/6/9
f 5/5/10 15/15/10 16/16/10
f 6/6/11 17/17/11 7/7/11
f 6/6/12 16/16/12 17/17/12
f 7/7/13 18/18/13 8/8/13
f 7/7/14 17/17/14 18/18/14
f 8/8/15 19/19/15 9/9/15
f 8/8/16 18/18/16 19/19/16
f 9/9/17 20/20/17 10/10/17
f 9/9/18 19/19/18 20/20/18
f 10/10/19 11/11/19 1/1/19
f 10/10/20 20/20/20 11/11/20
f 11/11/21 22/22/21 12/12/21
f 11/11/22 21/21/22 22/22/22
f 12/12/23 23/23/23 13/13/23
f 12/12/24 22/22/24 23/23/24
f 13/13/25 24/24/25 14/14/25
f 13/13/26 23/23/26 24/24/26
f 14/14/27 25/25/27 15/15/27
f 14/14/28 24/24/28 25/25/28
f 15/15/29 26/26/29 16/16/29
f 15/15/30 25/25/30 26/26/30
f 16/16/31 27/27/31 17/17/31
f 16/16/32 26/26/32 27/27/32
f 17/17/33 28/28/33 18/18/33
f 17/17/34 27/27/34 28/28/34
f 18/18/35 29/29/35 19/19/35
f 18/18/36 28/28/36 29/29/36
f 19/19/37 30/30/37 20/20/37
f 19/19/38 29/29/38 30/30/38
f 20/20/39 21/21/39 11/11/39
f 20/20/40 30/30/40 21/21/40
f 21/21/41 32/32/41 22/22/41
f 21/21/42 31/31/42 32/32/42
f 22/22/43 33/33/43 23/23/43
f 22/22/44 32/32/44 33/33/44
f 23/23/45 34/34/45 24/24/45
f 23/23/46 33/33/46 34/34/46
f 24/24/47 35/35/47 25/25/47
f 24/24/48 34/34/48 35/35/48
f 25/25/49 36/36/49 26/26/49
f 25/25/50 35/35/50 36/36/50
f 26/26/51 37/37/51 27/27/51
f 26/26/52 36/36/52 37/37/52
f 27/27/53 38/38/53 28/28/53
f 27/27/54 37/37/54 38/38/54
f 28/28/55 39/39/55 29/29/55
f 28/28/56 38/38/56 39/39/56
f 29/29/57 40/40/57 30/30/57
f 29/29/58 39/39/58 40/40/58
f 30/30/59 31/31/59 21/21/59
f 30/30/60 40/40/60 31/31/60
f 31/31/61 42/42/61 32/32/61
f 31/31/62 41/41/62 42/42/62
f 32/32/63 43/43/63 33/33/63
f 32/32/64 42/42/64 43/43/64
f 33/33/65 44/44/65 34/34/65
f 33/33/66 43/43/66 44/44/66
f 34/34/67 45/45/67 35/35/67
f 34/34/68 44/44/68 45/45/68
f 35/35/69 46/46/69 36/36/69
f 35/35/70 45/45/70 46/46/70
f 36/36/71 47/47/71 37/37/71
f 36/36/72 46/46/72 47/47/72
f 37/37/73 48/48/73 38/38/73
f 37/37/74 47/47/74 48/48/74
f 38/38/75 49/49/75 39/39/75
f 38/38/76 48/48/76 49/49/76
f 39/39/77 50/50/77 40/40/77
f 39/39/78 49/49/78 50/50/78
f 40/40/79 41/41/79 31/31/79
f 40/40/80 50/50/80 41/41/80
f 41/41/81 52/52/81 42/42/81
f 41/41/82 51/51/82 52/52/82
f 42/42/83 53/53/83 43/43/83
f 42/42/84 52/52/84 53/53/84
f 43/43/85 54/54/85 44/44/85
f 43/43/86 53/53/86 54/54/86
f 44/44/87 55/55/87 45/45/87
f 44/44/88 54/54/88 55/55/88
f 45/45/89 56/56/89 46/46/89
f 45/45/90 55/55/90 56/56/90
f 46/46/91 57/57/91 47/47/91
f 46/46/92 56/56/92 57/57/92
f 47/47/93 58/58/93 48/48/93
f 47/47/94 57/57/94 58/58/94
f 48/48/95 59/59/95 49/49/95
f 48/48/96 58/58/96 59/59/96
f 49/49/97 60/60/97 50/50/97
f 49/49/98 59/59/98 60/60/98
f 50/50/99 51/51/99 41/41/99
f 50/50/100 60/60/100 51/51/100
f 51/51/101 62/62/101 52/52/101
f 51/51/102 61/61/102 62/62/102
f 52/52/103 63/63/103 53/53/103
f 52/52/104 62/62/104 63/63/104
f 53/53/105 64/64/105 54/54/105
f 53/53/106 63/63/106 64/64/106
f 54/54/107 65/65/107 55/55/107
f 54/54/108 64/64/108 65/65/108
f 55/55/109 66/66/109 56/56/109
f 55/55/110 65/65/110 66/66/110
f 56/56/111 67/67/111 57/57/111
f 56/56/112 66/66/112 67/67/112
f 57/57/113 68/68/113 58/58/113
f 57/57/114 67/67/114 68/68/114
f 58/58/115 69/69/115 59/59/115
f 58/58/116 68/68/116 69/69/116
f 59/59/117 70/70/117 60/60/117
f 59/59/118 69/69/118 70/70/118
f 60/60/119 61/61/119 51/51/119
f 60/60/120 70/70/120 61/61/120
f 61/61/121 63/63/121 62/62/121
f 61/61/122 64/64/122 63/63/122
f 61/61/122 65/65/122 64/64/122
f 61/61/122 66/66/122 65/65/122
f 61/61/122 67/67/122 66/66/122
f 61/61/122 68/68/122 67/67/122
f 61/61/122 69/69/122 68/68/122
f 61/61/121 70/70/121 69/69/121
f 10/10/123 8/8/123 9/9/123
f 10/10/123 7/7/123 8/8/123
f 10/10/123 6/6/123 7/7/123
f 10/10/123 5/5/123 6/6/123
f 10/10/123 4/4/123 5/5/123
f 10/10/123 3/3/123 4/4/123
f 10/10/123 2/2/123 3/3/123
f 10/10/123 1/1/123 2/2/123
f 71/71/124 80/80/124 72/72/124
f 71/71/125 79/79/125 80/80/125
f 72/72/126 81/81/126 73/73/126
f 72/72/127 80/80/127 81/81/127
f 73/73/128 82/82/128 74/74/128
f 73/73/129 81/81/129 82/82/129
f 74/74/130 83/83/130 75/75/130
f 74/74/131 82/82/131 83/83/131
f 75/75/132 84/84/132 76/76/132
f 75/75/133 83/83/133 84/84/133
f 76/76/134 85/85/134 77/77/134
f 76/76/135 84/84/135 85/85/135
f 77/77/136 86/86/136 78/78/136
f 77/77/137 85/85/137 86/86/137
f 78/78/138 79/79/138 71/71/138
f 78/78/139 86/86/139 79/79/139
f 79/79/140 88/88/140 80/80/140
f 79/79/141 87/87/141 88/88/141
f 80/80/142 89/89/142 81/81/142
f 80/80/143 88/88/143 89/89/143
f 81/81/144 90/90/144 82/82/144
f 81/81/145 89/89/145 90/90/145
f 82/82/146 91/91/146 83/83/146
f 82/82/147 90/90/147 91/91/147
f 83/83/148 92/92/148 84/84/148
f 83/83/149 91/91/149 92/92/149
f 84/84/150 93/93/150 85/85/150
f 84/84/151 92/92/151 93/93/151
f 85/85/152 94/94/152 86/86/152
f 85/85/153 93/93/153 94/94/153
f 86/86/154 87/87/154 79/79/154
f 86/86/155 94/94/155 87/87/155
f 87/87/156 89/89/156 88/88/156
f 87/87/156 90/90/156 89/89/156
f 87/87/156 91/91/156 90/90/156
f 87/87/156 92/92/156 91/91/156
f 87/87/156 93/93/156 92/92/156
f 87/87/156 94/94/156 93/93/156
f 78/78/157 76/76/157 77/77/157
f 78/78/157 75/75/157 76/76/157
f 78/78/157 74/74/157 75/75/157
f 78/78/157 73/73/157 74/74/157
f 78/78/157 72/72/157 73/73/157
f 78/78/157 71/71/157 72/72/157
f 95/95/158 103/103/158 96/96/158
f 95/95/158 102/102/158 103/103/158
f 96/96/159 104/104/159 97/97/159
f 96/96/159 103/103/159 104/104/159
f 97/97/160 105/105/160 98/98/160
f 97/97/160 104/104/160 105/105/160
f 98/98/161 106/106/161 99/99/161
f 98/98/161 105/105/161 106/106/161
f 99/99/162 107/107/162 100/100/162
f 99/99/162 106/106/162 107/107/162
f 100/100/163 108/108/163 101/101/163
f 100/100/163 107/107/163 108/108/163
f 101/101/164 102/102/164 95/95/164
f 101/101/164 108/108/164 102/102/164
f 102/102/165 104/104/165 103/103/165
f 102/102/165 105/105/165 104/104/165
f 102/102/165 106/106/165 105/105/165
f 102/102/165 107/107/165 106/106/165
f 102/102/165 108/108/165 107/107/165
f 101/101/166 99/99/166 100/100/166
f 101/101/166 98/98/166 99/99/166
f 101/101/166 97/97/166 98/98/166
f 101/101/166 96/96/166 97/97/166
f 101/101/166 95/95/166 96/96/166
f 109/109/167 117/117/167 110/110/167
f 109/109/167 116/116/167 117/117/167
f 110/110/168 118/118/168 111/111/168
f 110/110/168 117/117/168 118/118/168
f 111/111/169 119/119/169 112/112/169
f 111/111/169 118/118/169 119/119/169
f 112/112/170 120/120/170 113/113/170
f 112/112/170 119/119/170 120/120/170
f 113/113/171 121/121/171 114/114/171
f 113/113/171 120/120/171 121/121/171
f 114/114/172 122/122/172 115/115/172
f 114/114/172 121/121/172 122/122/172
f 115/115/173 116/116/173 109/109/173
f 115/115/173 122/122/173 116/116/173
f 116/116/174 118/118/174 117/117/174
f 116/116/174 119/119/174 118/118/174
f 116/116/174 120/120/174 119/119/174
f 116/116/174 121/121/174 120/120/174
f 116/116/174 122/122/174 121/121/174
f 115/115/175 113/113/175 114/114/175
f 115/115/175 112/112/175 113/113/175
f 115/115/175 111/111/175 112/112/175
f 115/115/175 110/110/175 111/111/175
f 115/115/175 109/109/175 110/110/175
f 123/123/176 132/132/176 124/124/176
f 123/123/177 131/131/177 132/132/177
f 124/124/178 133/133/178 125/125/178
f 124/124/179 132/132/179 133/133/179
f 125/125/180 134/134/180 126/126/180
f 125/125/181 133/133/181 134/134/181
f 126/126/182 135/135/182 127/127/182
f 126/126/183 134/134/183 135/135/183
f 127/127/184 136/136/184 128/128/184
f 127/127/185 135/135/185 136/136/185
f 128/128/186 137/137/186 129/129/186
f 128/128/187 136/136/187 137/137/187
f 129/129/188 138/138/188 130/130/188
f 129/129/189 137/137/189 138/138/189
f 130/130/190 131/131/190 123/123/190
f 130/130/191 138/138/191 131/131/191
f 131/131/192 140/140/192 132/132/192
f 131/131/193 139/139/193 140/140/193
f 132/132/194 141/141/194 133/133/194
f 132/132/195 140/140/195 141/141/195
f 133/133/196 142/142/196 134/134/196
f 133/133/197 141/141/197 142/142/197
f 134/134/198 143/143/198 135/135/198
f 134/134/199 142/142/199 143/143/199
f 135/135/200 144/144/200 136/136/200
f 135/135/201 143/143/201 144/144/201
f 136/136/202 145/145/202 137/137/202
f 136/136/203 144/144/203 145/145/203
f 137/137/204 146/146/204 138/138/204
f 137/137/205 145/145/205 146/146/205
f 138/138/206 139/139/206 131/131/206
f 138/138/207 146/146/207 139/139/207
f 139/139/208 141/141/208 140/140/208
f 139/139/208 142/142/208 141/141/208
f 139/139/208 143/143/208 142/142/208
f 139/139/208 144/144/208 143/143/208
f 139/139/208 145/145/208 144/144/208
f 139/139/208 146/146/208 145/145/208
f 130/130/209 128/128/209 129/129/209
f 130/130/209 127/127/209 128/128/209
f 130/130/209 126/126/209 127/127/209
f 130/130/209 125/125/209 126/126/209
f 130/130/209 124/124/209 125/125/209
f 130/130/209 123/123/209 124/124/209
f 147/147/210 155/155/210 148/148/210
f 147/147/210 154/154/210 155/155/210
f 148/148/211 156/156/211 149/149/211
f 148/148/211 155/155/211 156/156/211
f 149/149/212 157/157/212 150/150/212
f 149/149/212 156/156/212 157/157/212
f 150/150/213 158/158/213 151/151/213
f 150/150/213 157/157/213 158/158/213
f 151/151/214 159/159/214 152/152/214
f 151/151/214 158/158/214 159/159/214
f 152/152/215 160/160/215 153/153/215
f 152/152/215 159/159/215 160/160/215
f 153/153/216 154/154/216 147/147/216
f 153/153/216 160/160/216 154/154/216
f 154/154/217 156/156/217 155/155/217
f 154/154/217 157/157/217 156/156/217
f 154/154/217 158/158/217 157/157/217
f 154/154/217 159/159/217 158/158/217
f 154/154/217 160/160/217 159/159/217
f 153/153/218 151/151/218 152/152/218
f 153/153/218 150/150/218 151/151/218
f 153/153/218 149/149/218 150/150/218
f 153/153/218 148/148/218 149/149/218
f 153/153/218 147/147/218 148/148/218
f 161/161/219 169/169/219 162/162/219
f 161/161/219 168/168/219 169/169/219
f 162/162/220 170/170/220 163/163/220
f 162/162/220 169/169/220 170/170/220
f 163/163/221 171/171/221 164/164/221
f 163/163/221 170/170/221 171/171/221
f 164/164/222 172/172/222 165/165/222
f 164/164/222 171/171/222 172/172/222
f 165/165/223 173/173/223 166/166/223
f 165/165/223 172/172/223 173/173/223
f 166/166/224 174/174/224 167/167/224
f 166/166/224 173/173/224 174/174/224
f 167/167/225 168/168/225 161/161/225
f 167/167/225 174/174/225 168/168/225
f 168/168/226 170/170/226 169/169/226
f 168/168/226 171/171/226 170/170/226
f 168/168/226 172/172/226 171/171/226
f 168/168/226 173/173/226 172/172/226
f 168/168/226 174/174/226 173/173/226
f 167/167/227 165/165/227 166/166/227
f 167/167/227 164/164/227 165/165/227
f 167/167/227 163/163/227 164/164/227
f 167/167/227 162/162/227 163/163/227
f 167/167/227 161/161/227 162/162/227
f 175/175/228 184/184/228 176/176/228
f 175/175/229 183/183/229 184/184/229
f 176/176/230 185/185/230 177/177/230
f 176/176/231 184/184/231 185/185/231
f 177/177/232 186/186/232 178/178/232
f 177/177/233 185/185/233 186/186/233
f 178/178/234 187/187/234 179/179/234
f 178/178/235 186/186/235 187/187/235
f 179/179/236 188/188/236 180/180/236
f 179/179/237 187/187/237 188/188/237
f 180/180/238 189/189/238 181/181/238
f 180/180/239 188/188/239 189/189/239
f 181/181/240 190/190/240 182/182/240
f 181/181/241 189/189/241 190/190/241
f 182/182/242 183/183/242 175/175/242
f 182/182/243 190/190/243 183/183/243
f 183/183/244 192/192/244 184/184/244
f 183/183/245 191/191/245 192/192/245
f 184/184/246 193/193/246 185/185/246
f 184/184/247 192/192/247 193/193/247
f 185/185/248 194/194/248 186/186/248
f 185/185/249 193/193/249 194/194/249
f 186/186/250 195/195/250 187/187/250
f 186/186/251 194/194/251 195/195/251
f 187/187/252 196/196/252 188/188/252
f 187/187/253 195/195/253 196/196/253
f 188/188/254 197/197/254 189/189/254
f 188/188/255 196/196/255 197/197/255
f 189/189/256 198/198/256 190/190/256
f 189/189/257 197/197/257 198/198/257
f 190/190/258 191/191/258 183/183/258
f 190/190/259 198/198/259 191/191/259
f 191/191/260 193/193/260 192/192/260
f 191/191/260 194/194/260 193/193/260
f 191/191/260 195/195/260 194/194/260
f 191/191/260 196/196/260 195/195/260
f 191/191/260 197/197/260 196/196/260
f 191/191/260 198/198/260 197/197/260
f 182/182/261 180/180/261 181/181/261
f 182/182/261 179/179/261 180/180/261
f 182/182/261 178/178/261 179/179/261
f 182/182/261 177/177/261 178/178/261
f 182/182/261 176/176/261 177/177/261
f 182/182/261 175/175/261 176/176/261
f 199/199/262 207/207/262 200/200/262
f 199/199/262 206/206/262 207/207/262
f 200/200/263 208/208/263 201/201/263
f 200/200/263 207/207/263 208/208/263
f 201/201/264 209/209/264 202/202/264
f 201/201/264 208/208/264 209/209/264
f 202/202/265 210/210/265 203/203/265
f 202/202/265 209/209/265 210/210/265
f 203/203/266 211/211/266 204/204/266
f 203/203/266 210/210/266 211/211/266
f 204/204/267 212/212/267 205/205/267
f 204/204/267 211/211/267 212/212/267
f 205/205/268 206/206/268 199/199/268
f 205/205/268 212/212/268 206/206/268
f 206/206/269 208/208/269 207/207/269
f 206/206/269 209/209/269 208/208/269
f 206/206/269 210/210/269 209/209/269
f 206/206/269 211/211/269 210/210/269
f 206/206/269 212/212/269 211/211/269
f 205/205/270 203/203/270 204/204/270
f 205/205/270 202/202/270 203/203/270
f 205/205/270 201/201/270 202/202/270
f 205/205/270 200/200/270 201/201/270
f 205/205/270 199/199/270 200/200/270
f 213/213/271 221/221/271 214/214/271
f 213/213/271 220/220/271 221/221/271
f 214/214/272 222/222/272 215/215/272
f 214/214/272 221/221/272 222/222/272
f 215/215/273 223/223/273 216/216/273
f 215/215/273 222/222/273 223/223/273
f 216/216/274 224/224/274 217/217/274
f 216/216/274 223/223/274 224/224/274
f 217/217/275 225/225/275 218/218/275
f 217/217/275 224/224/275 225/225/275
f 218/218/276 226/226/276 219/219/276
f 218/218/276 225/225/276 226/226/276
f 219/219/277 220/220/277 213/213/277
f 219/219/277 226/226/277 220/220/277
f 220/220/278 222/222/278 221/221/278
f 220/220/278 223/223/278 222/222/278
f 220/220/278 224/224/278 223/223/278
f 220/220/278 225/225/278 224/224/278
f 220/220/278 226/226/278 225/225/278
f 219/219/279 217/217/279 218/218/279
f 219/219/279 216/216/279 217/217/279
f 219/219/279 215/215/279 216/216/279
f 219/219/279 214/214/279 215/215/279
f 219/219/279 213/213/279 214/214/279
f 227/227/280 236/236/280 228/228/280
f 227/227/281 235/235/281 236/236/281
f 228/228/282 237/237/282 229/229/282
f 228/228/283 236/236/283 237/237/283
f 229/229/284 238/238/284 230/230/284
f 229/229/285 237/237/285 238/238/285
f 230/230/286 239/239/286 231/231/286
f 230/230/287 238/238/287 239/239/287
f 231/231/288 240/240/288 232/232/288
f 231/231/289 239/239/289 240/240/289
f 232/232/290 241/241/290 233/233/290
f 232/232/291 240/240/291 241/241/291
f 233/233/292 242/242/292 234/234/292
f 233/233/293 241/241/293 242/242/293
f 234/234/294 235/235/294 227/227/294
f 234/234/295 242/242/295 235/235/295
f 235/235/296 244/244/296 236/236/296
f 235/235/297 243/243/297 244/244/297
f 236/236/298 245/245/298 237/237/298
f 236/236/299 244/244/299 245/245/299
f 237/237/300 246/246/300 238/238/300
f 237/237/301 245/245/301 246/246/301
f 238/238/302 247/247/302 239/239/302
f 238/238/303 246/246/303 247/247/303
f 239/239/304 248/248/304 240/240/304
f 239/239/305 247/247/305 248/248/305
f 240/240/306 249/249/306 241/241/306
f 240/240/307 248/248/307 249/249/307
f 241/241/308 250/250/308 242/242/308
f 241/241/309 249/249/309 250/250/309
f 242/242/310 243/243/310 235/235/310
f 242/242/311 250/250/311 243/243/311
f 243/243/312 245/245/312 244/244/312
f 243/243/312 246/246/312 245/245/312
f 243/243/312 247/247/312 246/246/312
f 243/243/312 248/248/312 247/247/312
f 243/243/312 249/249/312 248/248/312
f 243/243/312 250/250/312 249/249/312
f 234/234/313 232/232/313 233/233/313
f 234/234/313 231/231/313 232/232/313
f 234/234/313 230/230/313 231/231/313
f 234/234/313 229/229/313 230/230/313
f 234/234/313 228/228/313 229/229/313
f 234/234/313 227/227/313 228/228/313
f 251/251/314 259/259/314 252/252/314
f 251/251/314 258/258/314 259/259/314
f 252/252/315 260/260/315 253/253/315
f 252/252/315 259/259/315 260/260/315
f 253/253/316 261/261/316 254/254/316
f 253/253/316 260/260/316 261/261/316
f 254/254/317 262/262/317 255/255/317
f 254/254/317 261/261/317 262/262/317
f 255/255/318 263/263/318 256/256/318
f 255/255/318 262/262/318 263/263/318
f 256/256/319 264/264/319 257/257/319
f 256/256/319 263/263/319 264/264/319
f 257/257/320 258/258/320 251/251/320
f 257/257/320 264/264/320 258/258/320
f 258/258/321 260/260/321 259/259/321
f 258/258/321 261/261/321 260/260/321
f 258/258/321 262/262/321 261/261/321
f 258/258/321 263/263/321 262/262/321
f 258/258/321 264/264/321 263/263/321
f 257/257/322 255/255/322 256/256/322
f 257/257/322 254/254/322 255/255/322
f 257/257/322 253/253/322 254/254/322
f 257/257/322 252/252/322 253/253/322
f 257/257/322 251/251/322 252/252/322
f 265/265/323 273/273/323 266/266/323
f 265/265/323 272/272/323 273/273/323
f 266/266/324 274/274/324 267/267/324
f 266/266/324 273/273/324 274/274/324
f 267/267/325 275/275/325 268/268/325
f 267/267/325 274/274/325 275/275/325
f 268/268/326 276/276/326 269/269/326
f 268/268/326 275/275/326 276/276/326
f 269/269/327 277/277/327 270/270/327
f 269/269/327 276/276/327 277/277/327
f 270/270/328 278/278/328 271/271/328
f 270/270/328 277/277/328 278/278/328
f 271/271/329 272/272/329 265/265/329
f 271/271/329 278/278/329 272/272/329
f 272/272/330 274/274/330 273/273/330
f 272/272/330 275/275/330 274/274/330
f 272/272/330 276/276/330 275/275/330
f 272/272/330 277/277/330 276/276/330
f 272/272/330 278/278/330 277/277/330
f 271/271/331 269/269/331 270/270/331
f 271/271/331 268/268/331 269/269/331
f 271/271/331 267/267/331 268/268/331
f 271/271/331 266/266/331 267/267/331
f 271/271/331 265/265/331 266/266/331
f 279/279/332 288/288/332 280/280/332
f 279/279/333 287/287/333 288/288/333
f 280/280/334 289/289/334 281/281/334
f 280/280/335 288/288/335 289/289/335
f 281/281/336 290/290/336 282/282/336
f 281/281/337 289/289/337 290/290/337
f 282/282/338 291/291/338 283/283/338
f 282/282/339 290/290/339 291/291/339
f 283/283/340 292/292/340 284/284/340
f 283/283/341 291/291/341 292/292/341
f 284/284/342 293/293/342 285/285/342
f 284/284/343 292/292/343 293/293/343
f 285/285/344 294/294/344 286/286/344
f 285/285/345 293/293/345 294/294/345
f 286/286/346 287/287/346 279/279/346
f 286/286/347 294/294/347 287/287/347
f 287/287/348 296/296/348 288/288/348
f 287/287/349 295/295/349 296/296/349
f 288/288/350 297/297/350 289/289/350
f 288/288/351 296/296/351 297/297/351
f 289/289/352 298/298/352 290/290/352
f 289/289/353 297/297/353 298/298/353
f 290/290/354 299/299/354 291/291/354
f 290/290/355 298/298/355 299/299/355
f 291/291/356 300/300/356 292/292/356
f 291/291/357 299/299/357 300/300/357
f 292/292/358 301/301/358 293/293/358
f 292/292/359 300/300/359 301/301/359
f 293/293/360 302/302/360 294/294/360
f 293/293/361 301/301/361 302/302/361
f 294/294/362 295/295/362 287/287/362
f 294/294/363 302/302/363 295/295/363
f 295/295/364 297/297/364 296/296/364
f 295/295/364 298/298/364 297/297/364
f 295/295/364 299/299/364 298/298/364
f 295/295/364 300/300/364 299/299/364
f 295/295/364 301/301/364 300/300/364
f 295/295/364 302/302/364 301/301/364
f 286/286/365 284/284/365 285/285/365
f 286/286/365 283/283/365 284/284/365
f 286/286/365 282/282/365 283/283/365
f 286/286/365 281/281/365 282/282/365
f 286/286/365 280/280/365 281/281/365
f 286/286/365 279/279/365 280/280/365
f 303/303/366 311/311/366 304/304/366
f 303/303/366 310/310/366 311/311/366
f 304/304/367 312/312/367 305/305/367
f 304/304/367 311/311/367 312/312/367
f 305/305/368 313/313/368 306/306/368
f 305/305/368 312/312/368 313/313/368
f 306/306/369 314/314/369 307/307/369
f 306/306/369 313/313/369 314/314/369
f 307/307/370 315/315/370 308/308/370
f 307/307/370 314/314/370 315/315/370
f 308/308/371 316/316/371 309/309/371
f 308/308/371 315/315/371 316/316/371
f 309/309/372 310/310/372 303/303/372
f 309/309/372 316/316/372 310/310/372
f 310/310/373 312/312/373 311/311/373
f 310/310/373 313/313/373 312/312/373
f 310/310/373 314/314/373 313/313/373
f 310/310/373 315/315/373 314/314/373
f 310/310/373 316/316/373 315/315/373
f 309/309/374 307/307/374 308/308/374
f 309/309/374 306/306/374 307/307/374
f 309/309/374 305/305/374 306/306/374
f 309/309/374 304/304/374 305/305/374
f 309/309/374 303/303/374 304/304/374
f 317/317/375 325/325/375 318/318/375
f 317/317/375 324/324/375 325/325/375
f 318/318/376 326/326/376 319/319/376
f 318/318/376 325/325/376 326/326/376
f 319/319/377 327/327/377 320/320/377
f 319/319/377 326/326/377 327/327/377
f 320/320/378 328/328/378 321/321/378
f 320/320/378 327/327/378 328/328/378
f 321/321/379 329/329/379 322/322/379
f 321/321/379 328/328/379 329/329/379
f 322/322/380 330/330/380 323/323/380
f 322/322/380 329/329/380 330/330/380
f 323/323/381 324/324/381 317/317/381
f 323/323/381 330/330/381 324/324/381
f 324/324/382 326/326/382 325/325/382
f 324/324/382 327/327/382 326/326/382
f 324/324/382 328/328/382 327/327/382
f 324/324/382 329/329/382 328/328/382
f 324/324/382 330/330/382 329/329/382
f 323/323/383 321/321/383 322/322/383
f 323/323/383 320/320/383 321/321/383
f 323/323/383 319/319/383 320/320/383
f 323/323/383 318/318/383 319/319/383
f 323/323/383 317/317/383 318/318/383
f 331/331/384 340/340/384 332/332/384
f 331/331/385 339/339/385 340/340/385
f 332/332/386 341/341/386 333/333/386
f 332/332/387 340/340/387 341/341/387
f 333/333/388 342/342/388 334/334/388
f 333/333/389 341/341/389 342/342/389
f 334/334/390 343/343/390 335/335/390
f 334/334/391 342/342/391 343/343/391
f 335/335/392 344/344/392 336/336/392
f 335/335/393 343/343/393 344/344/393
f 336/336/394 345/345/394 337/337/394
f 336/336/395 344/344/395 345/345/395
f 337/337/396 346/346/396 338/338/396
f 337/337/397 345/345/397 346/346/397
f 338/338/398 339/339/398 331/331/398
f 338/338/399 346/346/399 339/339/399
f 339/339/400 348/348/400 340/340/400
f 339/339/401 347/347/401 348/348/401
f 340/340/402 349/349/402 341/341/402
f 340/340/403 348/348/403 349/349/403
f 341/341/404 350/350/404 342/342/404
f 341/341/405 349/349/405 350/350/405
f 342/342/406 351/351/406 343/343/406
f 342/342/407 350/350/407 351/351/407
f 343/343/408 352/352/408 344/344/408
f 343/343/409 351/351/409 352/352/409
f 344/344/410 353/353/410 345/345/410
f 344/344/411 352/352/411 353/353/411
f 345/345/412 354/354/412 346/346/412
f 345/345/413 353/353/413 354/354/413
f 346/346/414 347/347/414 339/339/414
f 346/346/415 354/354/415 347/347/415
f 347/347/416 349/349/416 348/348/416
f 347/347/416 350/350/416 349/349/416
f 347/347/416 351/351/416 350/350/416
f 347/347/416 352/352/416 351/351/416
f 347/347/416 353/353/416 352/352/416
f 347/347/416 354/354/416 353/353/416
f 338/338/417 336/336/417 337/337/417
f 338/338/417 335/335/417 336/336/417
f 338/338/417 334/334/417 335/335/417
f 338/338/417 333/333/417 334/334/417
f 338/338/417 332/332/417 333/333/417
f 338/338/417 331/331/417 332/332/417
f 355/355/418 363/363/418 356/356/418
f 355/355/418 362/362/418 363/363/418
f 356/356/419 364/364/419 357/357/419
f 356/356/419 363/363/419 364/364/419
f 357/357/420 365/365/420 358/358/420
f 357/357/420 364/364/420 365/365/420
f 358/358/421 366/366/421 359/359/421
f 358/358/421 365/365/421 366/366/421
f 359/359/422 367/367/422 360/360/422
f 359/359/422 366/366/422 367/367/422
f 360/360/423 368/368/423 361/361/423
f 360/360/423 367/367/423 368/368/423
f 361/361/424 362/362/424 355/355/424
f 361/361/424 368/368/424 362/362/424
f 362/362/425 364/364/425 363/363/425
f 362/362/425 365/365/425 364/364/425
f 362/362/425 366/366/425 365/365/425
f 362/362/425 367/367/425 366/366/425
f 362/362/425 368/368/425 367/367/425
f 361/361/426 359/359/426 360/360/426
f 361/361/426 358/358/426 359/359/426
f 361/361/426 357/357/426 358/358/426
f 361/361/426 356/356/426 357/357/426
f 361/361/426 355/355/426 356/356/426
f 369/369/427 377/377/427 370/370/427
f 369/369/427 376/376/427 377/377/427
f 370/370/428 378/378/428 371/371/428
f 370/370/428 377/377/428 378/378/428
f 371/371/429 379/379/429 372/372/429
f 371/371/429 378/378/429 379/379/429
f 372/372/430 380/380/430 373/373/430
f 372/372/430 379/379/430 380/380/430
f 373/373/431 381/381/431 374/374/431
f 373/373/431 380/380/431 381/381/431
f 374/374/432 382/382/432 375/375/432
f 374/374/432 381/381/432 382/382/432
f 375/375/433 376/376/433 369/369/433
f 375/375/433 382/382/433 376/376/433
f 376/376/434 378/378/434 377/377/434
f 376/376/434 379/379/434 378/378/434
f 376/376/434 380/380/434 379/379/434
f 376/376/434 381/381/434 380/380/434
f 376/376/434 382/382/434 381/381/434
f 375/375/435 373/373/435 374/374/435
f 375/375/435 372/372/435 373/373/435
f 375/375/435 371/371/435 372/372/435
f 375/375/435 370/370/435 371/371/435
f 375/375/435 369/369/435 370/370/435
f 383/383/436 392/392/436 384/384/436
f 383/383/437 391/391/437 392/392/437
f 384/384/438 393/393/438 385/385/438
f 384/384/439 392/392/439 393/393/439
f 385/385/440 394/394/440 386/386/440
f 385/385/441 393/393/441 394/394/441
f 386/386/442 395/395/442 387/387/442
f 386/386/443 394/394/443 395/395/443
f 387/387/444 396/396/444 388/388/444
f 387/387/445 395/395/445 396/396/445
f 388/388/446 397/397/446 389/389/446
f 388/388/447 396/396/447 397/397/447
f 389/389/448 398/398/448 390/390/448
f 389/389/449 397/397/449 398/398/449
f 390/390/450 391/391/450 383/383/450
f 390/390/451 398/398/451 391/391/451
f 391/391/452 400/400/452 392/392/452
f 391/391/453 399/399/453 400/400/453
f 392/392/454 401/401/454 393/393/454
f 392/392/455 400/400/455 401/401/455
f 393/393/456 402/402/456 394/394/456
f 393/393/457 401/401/457 402/402/457
f 394/394/458 403/403/458 395/395/458
f 394/394/459 402/402/459 403/403/459
f 395/395/460 404/404/460 396/396/460
f 395/395/461 403/403/461 404/404/461
f 396/396/462 405/405/462 397/397/462
f 396/396/463 404/404/463 405/405/463
f 397/397/464 406/406/464 398/398/464
f 397/397/465 405/405/465 406/406/465
f 398/398/466 399/399/466 391/391/466
f 398/398/467 406/406/467 399/399/467
f 399/399/468 401/401/468 400/400/468
f 399/399/468 402/402/468 401/401/468
f 399/399/468 403/403/468 402/402/468
f 399/399/468 404/404/468 403/403/468
f 399/399/468 405/405/468 404/404/468
f 399/399/468 406/406/468 405/405/468
f 390/390/469 388/388/469 389/389/469
f 390/390/469 387/387/469 388/388/469
f 390/390/469 386/386/469 387/387/469
f 390/390/469 385/385/469 386/386/469
f 390/390/469 384/384/469 385/385/469
f 390/390/469 383/383/469 384/384/469
f 407/407/470 415/415/470 408/408/470
f 407/407/470 414/414/470 415/415/470
f 408/408/471 416/416/471 409/409/471
f 408/408/471 415/415/471 416/416/471
f 409/409/472 417/417/472 410/410/472
f 409/409/472 416/416/472 417/417/472
f 410/410/473 418/418/473 411/411/473
f 410/410/473 417/417/473 418/418/473
f 411/411/474 419/419/474 412/412/474
f 411/411/474 418/418/474 419/419/474
f 412/412/475 420/420/475 413/413/475
f 412/412/475 419/419/475 420/420/475
f 413/413/476 414/414/476 407/407/476
f 413/413/476 420/420/476 414/414/476
f 414/414/477 416/416/477 415/415/477
f 414/414/477 417/417/477 416/416/477
f 414/414/477 418/418/477 417/417/477
f 414/414/477 419/419/477 418/418/477
f 414/414/477 420/420/477 419/419/477
f 413/413/478 411/411/478 412/412/478
f 413/413/478 410/410/478 411/411/478
f 413/413/478 409/409/478 410/410/478
f 413/413/478 408/408/478 409/409/478
f 413/413/478 407/407/478 408/408/478
f 421/421/479 429/429/479 422/422/479
f 421/421/479 428/428/479 429/429/479
f 422/422/480 430/430/480 423/423/480
f 422/422/480 429/429/480 430/430/480
f 423/423/481 431/431/481 424/424/481
f 423/423/481 430/430/481 431/431/481
f 424/424/482 432/432/482 425/425/482
f 424/424/482 431/431/482 432/432/482
f 425/425/483 433/433/483 426/426/483
f 425/425/483 432/432/483 433/433/483
f 426/426/484 434/434/484 427/427/484
f 426/426/484 433/433/484 434/434/484
f 427/427/485 428/428/485 421/421/485
f 427/427/485 434/434/485 428/428/485
f 428/428/486 430/430/486 429/429/486
f 428/428/486 431/431/486 430/430/486
f 428/428/486 432/432/486 431/431/486
f 428/428/486 433/433/486 432/432/486
f 428/428/486 434/434/486 433/433/486
f 427/427/487 425/425/487 426/426/487
f 427/427/487 424/424/487 425/425/487
f 427/427/487 423/423/487 424/424/487
f 427/427/487 422/422/487 423/423/487
f 427/427/487 421/421/487 422/422/487
