# JudeanFloraV1; canonical UE cm (X east, +Y south, Z up), written with Y reflected and triangle winding reversed for the legacy OBJ importer adapter. One o object, no g groups, so the importer creates exactly one material slot.
# carob (Ceratonia siliqua), LOD1 bark
# height range 6.0-12.0 m, crown 6.0-10.0 m; source: Zohary, M., Plants of the Bible (Cambridge University Press, 1982), species entry Ceratonia siliqua; a dense evergreen of 6-12 m with a broad crown
# part kinds and their winding checks are recorded in vegetation-manifest.json
o SM_JudeanFloraV1_Carob_L1_Bark
s off
v 9.36612 44.05077 0.44537
v 51.16247 14.81730 -2.03401
v 55.56208 -36.05397 -2.69349
v 9.36612 -57.69569 -0.40295
v -36.82984 -36.09517 2.24812
v -32.43022 14.78002 2.43697
v 15.34075 24.62772 80.46315
v 42.02897 4.77054 84.91545
v 43.56207 -28.38489 89.89124
v 12.67066 -41.50295 90.06044
v -17.08453 -26.47981 86.14562
v -12.88133 6.49543 81.52411
v 1.59666 39.94157 163.89954
v 20.10516 25.94375 170.47085
v 20.19911 2.87809 177.51729
v -2.21767 -6.01958 177.44271
v -23.00515 4.71504 171.58318
v -19.09688 27.61053 165.08644
v -4.93812 61.25454 251.43827
v 9.40211 48.95174 254.55785
v 8.65306 30.44647 259.42890
v -9.50804 24.60829 261.10918
v -25.70495 34.52095 258.63284
v -21.88409 52.66194 253.83296
v 3.60815 76.81115 338.23695
v 15.14871 65.80865 339.52701
v 13.82309 50.26321 343.06053
v -1.45142 46.15047 345.44344
v -14.53273 55.32837 344.70252
v -10.79878 70.44361 341.02954
v -6.83368 54.72187 342.00000
v -4.23604 67.47573 347.11625
v 8.76602 66.87995 342.00000
v 6.16838 54.12609 336.88375
v 71.48170 -39.50611 542.85048
v 72.01376 -31.69611 546.57923
v 79.74080 -30.44230 542.85048
v 79.20873 -38.25230 539.12173
v 252.28969 -171.40681 788.33439
v 252.31904 -168.45461 789.93106
v 255.15073 -167.61922 788.33439
v 255.12138 -170.57142 786.73772
v -5.71752 67.65023 342.00000
v 6.37086 66.07491 347.87871
v 7.64986 53.95159 342.00000
v -4.43852 55.52691 336.12129
v -101.34312 -30.86339 517.00729
v -94.06010 -30.93036 521.17425
v -91.73946 -37.83410 517.00729
v -99.02249 -37.76713 512.84033
v -226.37458 -248.51679 730.90509
v -223.63812 -248.40677 732.65158
v -222.42475 -250.86199 730.90509
v -225.16122 -250.97201 729.15860
v 0.96617 69.40915 338.61190
v 10.21596 60.85564 342.13905
v 0.96617 52.19267 345.38810
v -8.28362 60.74618 341.86095
v 2.39026 156.79848 582.81052
v -2.12559 150.56646 585.37249
v -8.81965 154.36389 582.81052
v -4.30380 160.59591 580.24854
v -53.61864 322.55000 877.13448
v -55.16056 320.05993 878.26628
v -57.85297 321.21271 877.13448
v -56.31105 323.70278 876.00268
vt 0.00000 0.00000
vt 0.16667 0.00000
vt 0.33333 0.00000
vt 0.50000 0.00000
vt 0.66667 0.00000
vt 0.83333 0.00000
vt 0.00000 0.25000
vt 0.16667 0.25000
vt 0.33333 0.25000
vt 0.50000 0.25000
vt 0.66667 0.25000
vt 0.83333 0.25000
vt 0.00000 0.50000
vt 0.16667 0.50000
vt 0.33333 0.50000
vt 0.50000 0.50000
vt 0.66667 0.50000
vt 0.83333 0.50000
vt 0.00000 0.75000
vt 0.16667 0.75000
vt 0.33333 0.75000
vt 0.50000 0.75000
vt 0.66667 0.75000
vt 0.83333 0.75000
vt 0.00000 1.00000
vt 0.16667 1.00000
vt 0.33333 1.00000
vt 0.50000 1.00000
vt 0.66667 1.00000
vt 0.83333 1.00000
vt 0.00000 0.00000
vt 0.25000 0.00000
vt 0.50000 0.00000
vt 0.75000 0.00000
vt 0.00000 0.50000
vt 0.25000 0.50000
vt 0.50000 0.50000
vt 0.75000 0.50000
vt 0.00000 1.00000
vt 0.25000 1.00000
vt 0.50000 1.00000
vt 0.75000 1.00000
vt 0.00000 0.00000
vt 0.25000 0.00000
vt 0.50000 0.00000
vt 0.75000 0.00000
vt 0.00000 0.50000
vt 0.25000 0.50000
vt 0.50000 0.50000
vt 0.75000 0.50000
vt 0.00000 1.00000
vt 0.25000 1.00000
vt 0.50000 1.00000
vt 0.75000 1.00000
vt 0.00000 0.00000
vt 0.25000 0.00000
vt 0.50000 0.00000
vt 0.75000 0.00000
vt 0.00000 0.50000
vt 0.25000 0.50000
vt 0.50000 0.50000
vt 0.75000 0.50000
vt 0.00000 1.00000
vt 0.25000 1.00000
vt 0.50000 1.00000
vt 0.75000 1.00000
vn 0.5725 0.8055 0.1532
vn 0.5734 0.8049 0.1526
vn 0.9891 0.0840 0.1212
vn 0.9918 0.0626 0.1114
vn 0.4256 -0.8933 0.1444
vn 0.3883 -0.9129 0.1259
vn -0.4059 -0.8923 0.1978
vn -0.4619 -0.8700 0.1726
vn -0.9654 0.0826 0.2473
vn -0.9658 0.1525 0.2098
vn -0.5499 0.8013 0.2356
vn -0.5221 0.8252 0.2155
vn 0.6010 0.7980 -0.0435
vn 0.6125 0.7892 -0.0440
vn 0.9699 0.0794 0.2303
vn 0.9703 0.0743 0.2303
vn 0.3596 -0.8416 0.4030
vn 0.3378 -0.8544 0.3949
vn -0.4619 -0.8430 0.2758
vn -0.4991 -0.8292 0.2517
vn -0.9885 0.1117 -0.1018
vn -0.9839 0.1347 -0.1173
vn -0.5314 0.8133 -0.2368
vn -0.5065 0.8263 -0.2465
vn 0.6271 0.7680 -0.1303
vn 0.6618 0.7383 -0.1304
vn 0.9912 0.0424 0.1255
vn 0.9918 -0.0065 0.1280
vn 0.3447 -0.8714 0.3490
vn 0.3161 -0.8848 0.3423
vn -0.5005 -0.8237 0.2665
vn -0.5330 -0.8085 0.2495
vn -0.9864 0.1477 -0.0727
vn -0.9790 0.1817 -0.0926
vn -0.5071 0.8280 -0.2394
vn -0.4657 0.8477 -0.2539
vn 0.6628 0.7247 -0.1886
vn 0.6883 0.6993 -0.1931
vn 0.9974 -0.0533 -0.0490
vn 0.9942 -0.0957 -0.0482
vn 0.3167 -0.9258 0.2062
vn 0.2841 -0.9367 0.2044
vn -0.5325 -0.8043 0.2636
vn -0.5651 -0.7848 0.2545
vn -0.9712 0.2251 0.0776
vn -0.9651 0.2539 0.0639
vn -0.4620 0.8798 -0.1122
vn -0.4217 0.8974 -0.1294
vn 0.0944 0.2130 0.9725
vn -0.0534 0.0083 -0.9985
vn -0.9268 0.0389 0.3736
vn -0.9415 -0.0908 0.3245
vn 0.1886 0.9083 0.3735
vn 0.0592 0.9027 0.4262
vn 0.9326 -0.0463 -0.3580
vn 0.9512 0.0777 -0.2985
vn -0.1829 -0.9156 -0.3582
vn -0.0453 -0.9147 -0.4015
vn -0.8368 -0.1884 0.5141
vn -0.8389 -0.2525 0.4822
vn 0.0712 0.8915 0.4473
vn 0.0135 0.8759 0.4822
vn 0.8449 0.1825 -0.5028
vn 0.8484 0.2453 -0.4691
vn -0.0643 -0.8980 -0.4352
vn -0.0040 -0.8831 -0.4691
vn 0.5368 -0.4055 0.7399
vn -0.3180 0.4081 -0.8558
vn -0.0987 0.8916 0.4419
vn -0.2137 0.8966 0.3879
vn 0.8890 -0.1204 0.4417
vn 0.8673 -0.0089 0.4977
vn 0.0903 -0.8999 -0.4267
vn 0.1997 -0.9098 -0.3637
vn -0.8972 0.1124 -0.4270
vn -0.8797 -0.0087 -0.4754
vn -0.3223 0.7516 0.5755
vn -0.3768 0.7503 0.5432
vn 0.8609 -0.0175 0.5085
vn 0.8391 0.0283 0.5432
vn 0.3167 -0.7614 -0.5657
vn 0.3702 -0.7614 -0.5321
vn -0.8672 0.0090 -0.4978
vn -0.8458 -0.0395 -0.5321
vn -0.3882 -0.6538 0.6495
vn 0.4396 0.4290 -0.7891
vn 0.7059 0.6754 -0.2133
vn 0.8303 -0.5262 0.1835
vn 0.7059 -0.6396 0.3043
vn -0.5504 -0.7920 0.2642
vn -0.7071 -0.6479 0.2832
vn -0.8300 0.4991 -0.2490
vn -0.7071 0.6670 -0.2346
vn 0.5580 0.7620 -0.3285
vn 0.8135 -0.4273 0.3946
vn 0.8562 -0.3632 0.3675
vn -0.5588 -0.7579 0.3366
vn -0.4923 -0.7890 0.3675
vn -0.8157 0.4338 -0.3827
vn -0.8587 0.3711 -0.3534
vn 0.5576 0.7642 -0.3242
vn 0.4898 0.7970 -0.3534
vn -0.1535 0.4861 0.8603
vn 0.0162 -0.3662 -0.9304
f 1/1/1 8/8/1 2/2/1
f 1/1/2 7/7/2 8/8/2
f 2/2/3 9/9/3 3/3/3
f 2/2/4 8/8/4 9/9/4
f 3/3/5 10/10/5 4/4/5
f 3/3/6 9/9/6 10/10/6
f 4/4/7 11/11/7 5/5/7
f 4/4/8 10/10/8 11/11/8
f 5/5/9 12/12/9 6/6/9
f 5/5/10 11/11/10 12/12/10
f 6/6/11 7/7/11 1/1/11
f 6/6/12 12/12/12 7/7/12
f 7/7/13 14/14/13 8/8/13
f 7/7/14 13/13/14 14/14/14
f 8/8/15 15/15/15 9/9/15
f 8/8/16 14/14/16 15/15/16
f 9/9/17 16/16/17 10/10/17
f 9/9/18 15/15/18 16/16/18
f 10/10/19 17/17/19 11/11/19
f 10/10/20 16/16/20 17/17/20
f 11/11/21 18/18/21 12/12/21
f 11/11/22 17/17/22 18/18/22
f 12/12/23 13/13/23 7/7/23
f 12/12/24 18/18/24 13/13/24
f 13/13/25 20/20/25 14/14/25
f 13/13/26 19/19/26 20/20/26
f 14/14/27 21/21/27 15/15/27
f 14/14/28 20/20/28 21/21/28
f 15/15/29 22/22/29 16/16/29
f 15/15/30 21/21/30 22/22/30
f 16/16/31 23/23/31 17/17/31
f 16/16/32 22/22/32 23/23/32
f 17/17/33 24/24/33 18/18/33
f 17/17/34 23/23/34 24/24/34
f 18/18/35 19/19/35 13/13/35
f 18/18/36 24/24/36 19/19/36
f 19/19/37 26/26/37 20/20/37
f 19/19/38 25/25/38 26/26/38
f 20/20/39 27/27/39 21/21/39
f 20/20/40 26/26/40 27/27/40
f 21/21/41 28/28/41 22/22/41
f 21/21/42 27/27/42 28/28/42
f 22/22/43 29/29/43 23/23/43
f 22/22/44 28/28/44 29/29/44
f 23/23/45 30/30/45 24/24/45
f 23/23/46 29/29/46 30/30/46
f 24/24/47 25/25/47 19/19/47
f 24/24/48 30/30/48 25/25/48
f 25/25/49 27/27/49 26/26/49
f 25/25/49 28/28/49 27/27/49
f 25/25/49 29/29/49 28/28/49
f 25/25/49 30/30/49 29/29/49
f 6/6/50 4/4/50 5/5/50
f 6/6/50 3/3/50 4/4/50
f 6/6/50 2/2/50 3/3/50
f 6/6/50 1/1/50 2/2/50
f 31/31/51 36/36/51 32/32/51
f 31/31/52 35/35/52 36/36/52
f 32/32/53 37/37/53 33/33/53
f 32/32/54 36/36/54 37/37/54
f 33/33/55 38/38/55 34/34/55
f 33/33/56 37/37/56 38/38/56
f 34/34/57 35/35/57 31/31/57
f 34/34/58 38/38/58 35/35/58
f 35/35/59 40/40/59 36/36/59
f 35/35/60 39/39/60 40/40/60
f 36/36/61 41/41/61 37/37/61
f 36/36/62 40/40/62 41/41/62
f 37/37/63 42/42/63 38/38/63
f 37/37/64 41/41/64 42/42/64
f 38/38/65 39/39/65 35/35/65
f 38/38/66 42/42/66 39/39/66
f 39/39/67 41/41/67 40/40/67
f 39/39/67 42/42/67 41/41/67
f 34/34/68 32/32/68 33/33/68
f 34/34/68 31/31/68 32/32/68
f 43/43/69 48/48/69 44/44/69
f 43/43/70 47/47/70 48/48/70
f 44/44/71 49/49/71 45/45/71
f 44/44/72 48/48/72 49/49/72
f 45/45/73 50/50/73 46/46/73
f 45/45/74 49/49/74 50/50/74
f 46/46/75 47/47/75 43/43/75
f 46/46/76 50/50/76 47/47/76
f 47/47/77 52/52/77 48/48/77
f 47/47/78 51/51/78 52/52/78
f 48/48/79 53/53/79 49/49/79
f 48/48/80 52/52/80 53/53/80
f 49/49/81 54/54/81 50/50/81
f 49/49/82 53/53/82 54/54/82
f 50/50/83 51/51/83 47/47/83
f 50/50/84 54/54/84 51/51/84
f 51/51/85 53/53/85 52/52/85
f 51/51/85 54/54/85 53/53/85
f 46/46/86 44/44/86 45/45/86
f 46/46/86 43/43/86 44/44/86
f 55/55/87 60/60/87 56/56/87
f 55/55/88 59/59/88 60/60/88
f 56/56/89 61/61/89 57/57/89
f 56/56/90 60/60/90 61/61/90
f 57/57/91 62/62/91 58/58/91
f 57/57/92 61/61/92 62/62/92
f 58/58/93 59/59/93 55/55/93
f 58/58/94 62/62/94 59/59/94
f 59/59/95 64/64/95 60/60/95
f 59/59/96 63/63/96 64/64/96
f 60/60/97 65/65/97 61/61/97
f 60/60/98 64/64/98 65/65/98
f 61/61/99 66/66/99 62/62/99
f 61/61/100 65/65/100 66/66/100
f 62/62/101 63/63/101 59/59/101
f 62/62/102 66/66/102 63/63/102
f 63/63/103 65/65/103 64/64/103
f 63/63/103 66/66/103 65/65/103
f 58/58/104 56/56/104 57/57/104
f 58/58/104 55/55/104 56/56/104
