# JudeanFloraV1; canonical UE cm (X east, +Y south, Z up), written with Y reflected and triangle winding reversed for the legacy OBJ importer adapter. One o object, no g groups, so the importer creates exactly one material slot.
# fig (Ficus carica), LOD2 bark
# height range 3.0-8.0 m, crown 4.0-9.0 m; source: Zohary, M., Plants of the Bible (Cambridge University Press, 1982), species entry Ficus carica; a low, wide, often multi-stemmed tree, crown wider than tall
# part kinds and their winding checks are recorded in vegetation-manifest.json
o SM_JudeanFloraV1_Fig_L2_Bark
s off
v 4.40547 34.42971 1.07305
v 39.35126 -4.30097 -3.78196
v 4.40547 -43.24065 -1.07305
v -30.54032 -4.50997 3.78196
v 16.45213 11.02229 103.63896
v 32.20159 -8.03924 102.56941
v 14.99481 -25.60809 105.36104
v -0.75465 -6.54657 106.43059
v 30.25709 16.47410 207.52361
v 40.19407 3.39737 207.70029
v 28.32755 -7.61420 210.47639
v 18.39056 5.46253 210.29971
vt 0.00000 0.00000
vt 0.25000 0.00000
vt 0.50000 0.00000
vt 0.75000 0.00000
vt 0.00000 0.50000
vt 0.25000 0.50000
vt 0.50000 0.50000
vt 0.75000 0.50000
vt 0.00000 1.00000
vt 0.25000 1.00000
vt 0.50000 1.00000
vt 0.75000 1.00000
vn 0.7450 0.6630 0.0734
vn 0.7713 0.6342 0.0542
vn 0.7450 -0.6661 0.0362
vn 0.7161 -0.6976 0.0236
vn -0.7160 -0.6704 0.1945
vn -0.7534 -0.6326 0.1797
vn -0.7154 0.6583 0.2343
vn -0.6812 0.7008 0.2116
vn 0.7611 0.6360 -0.1271
vn 0.7897 0.5982 -0.1363
vn 0.7164 -0.6971 0.0285
vn 0.6834 -0.7295 0.0274
vn -0.7478 -0.6297 0.2106
vn -0.7814 -0.5911 0.2003
vn -0.7087 0.7032 0.0573
vn -0.6747 0.7370 0.0392
vn 0.1280 0.1106 0.9856
vn -0.1076 0.0275 -0.9938
f 1/1/1 6/6/1 2/2/1
f 1/1/2 5/5/2 6/6/2
f 2/2/3 7/7/3 3/3/3
f 2/2/4 6/6/4 7/7/4
f 3/3/5 8/8/5 4/4/5
f 3/3/6 7/7/6 8/8/6
f 4/4/7 5/5/7 1/1/7
f 4/4/8 8/8/8 5/5/8
f 5/5/9 10/10/9 6/6/9
f 5/5/10 9/9/10 10/10/10
f 6/6/11 11/11/11 7/7/11
f 6/6/12 10/10/12 11/11/12
f 7/7/13 12/12/13 8/8/13
f 7/7/14 11/11/14 12/12/14
f 8/8/15 9/9/15 5/5/15
f 8/8/16 12/12/16 9/9/16
f 9/9/17 11/11/17 10/10/17
f 9/9/17 12/12/17 11/11/17
f 4/4/18 2/2/18 3/3/18
f 4/4/18 1/1/18 2/2/18
