# JudeanFloraV1; canonical UE cm (X east, +Y south, Z up), written with Y reflected and triangle winding reversed for the legacy OBJ importer adapter. One o object, no g groups, so the importer creates exactly one material slot.
# rockrose (Cistus creticus), LOD0 leaf
# height range 0.5-1.2 m, crown 0.6-1.3 m; source: Zohary & Feinbrun-Dothan, Flora Palaestina vols I-IV (Israel Academy of Sciences, 1966-1986), species entry Cistus creticus; 0.5-1.2 m
# part kinds and their winding checks are recorded in vegetation-manifest.json
o SM_JudeanFloraV1_Rockrose_L0_Leaf
s off
v -14.79466 -27.80590 22.59021
v -9.42204 -44.98539 22.59021
v -13.36154 -46.22086 40.11031
v -18.73416 -29.04137 40.11031
v -14.79466 -27.80590 22.59021
v -9.42204 -44.98539 22.59021
v -13.36154 -46.22086 40.11031
v -18.73416 -29.04137 40.11031
v -4.87062 -36.29682 22.59021
v -22.05011 -41.66944 22.59021
v -23.28558 -37.72994 40.11031
v -6.10609 -32.35732 40.11031
v -4.87062 -36.29682 22.59021
v -22.05011 -41.66944 22.59021
v -23.28558 -37.72994 40.11031
v -6.10609 -32.35732 40.11031
v 29.39474 -0.21339 27.18478
v 19.06520 14.52773 27.18478
v 21.79697 16.44520 44.87265
v 32.12651 1.70409 44.87265
v 29.39474 -0.21339 27.18478
v 19.06520 14.52773 27.18478
v 21.79697 16.44520 44.87265
v 32.12651 1.70409 44.87265
v 17.26656 4.31702 27.18478
v 32.00768 14.64656 27.18478
v 33.92515 11.91479 44.87265
v 19.18404 1.58525 44.87265
v 17.26656 4.31702 27.18478
v 32.00768 14.64656 27.18478
v 33.92515 11.91479 44.87265
v 19.18404 1.58525 44.87265
v -5.95049 -11.58956 13.02216
v 0.85677 5.07361 13.02216
v 4.86139 3.44136 30.49496
v -1.94588 -13.22181 30.49496
v -5.95049 -11.58956 13.02216
v 0.85677 5.07361 13.02216
v 4.86139 3.44136 30.49496
v -1.94588 -13.22181 30.49496
v -8.06001 1.33184 13.02216
v 8.60316 -5.47543 13.02216
v 6.97090 -9.48004 30.49496
v -9.69226 -2.67278 30.49496
v -8.06001 1.33184 13.02216
v 8.60316 -5.47543 13.02216
v 6.97090 -9.48004 30.49496
v -9.69226 -2.67278 30.49496
v -24.45465 -10.12248 17.50210
v -16.98551 -26.49966 17.50210
v -14.43336 -25.33324 35.28203
v -21.90250 -8.95607 35.28203
v -24.45465 -10.12248 17.50210
v -16.98551 -26.49966 17.50210
v -14.43336 -25.33324 35.28203
v -21.90250 -8.95607 35.28203
v -11.83862 -12.71722 17.50210
v -28.21580 -20.18636 17.50210
v -27.04939 -22.73851 35.28203
v -10.67221 -15.26937 35.28203
v -11.83862 -12.71722 17.50210
v -28.21580 -20.18636 17.50210
v -27.04939 -22.73851 35.28203
v -10.67221 -15.26937 35.28203
v 20.74300 1.16155 25.32999
v 38.15070 5.74106 25.32999
v 38.99890 2.52727 43.02044
v 21.59120 -2.05224 43.02044
v 20.74300 1.16155 25.32999
v 38.15070 5.74106 25.32999
v 38.99890 2.52727 43.02044
v 21.59120 -2.05224 43.02044
v 29.18809 10.97236 25.32999
v 33.76760 -6.43534 25.32999
v 30.55381 -7.28354 43.02044
v 25.97430 10.12416 43.02044
v 29.18809 10.97236 25.32999
v 33.76760 -6.43534 25.32999
v 30.55381 -7.28354 43.02044
v 25.97430 10.12416 43.02044
v 6.79809 40.56199 12.59914
v 17.14509 25.83312 12.59914
v 13.97436 23.60191 30.17663
v 3.62735 38.33078 30.17663
v 6.79809 40.56199 12.59914
v 17.14509 25.83312 12.59914
v 13.97436 23.60191 30.17663
v 3.62735 38.33078 30.17663
v 18.86626 35.67009 12.59914
v 4.13740 25.32308 12.59914
v 1.90619 28.49381 30.17663
v 16.63505 38.84082 30.17663
v 18.86626 35.67009 12.59914
v 4.13740 25.32308 12.59914
v 1.90619 28.49381 30.17663
v 16.63505 38.84082 30.17663
v 22.65009 -27.58393 42.13980
v 40.50729 -29.84680 42.13980
v 39.99468 -33.91800 59.66585
v 22.13748 -31.65513 59.66585
v 22.65009 -27.58393 42.13980
v 40.50729 -29.84680 42.13980
v 39.99468 -33.91800 59.66585
v 22.13748 -31.65513 59.66585
v 34.48942 -22.07867 42.13980
v 32.22655 -39.93587 42.13980
v 28.15535 -39.42326 59.66585
v 30.41822 -21.56606 59.66585
v 34.48942 -22.07867 42.13980
v 32.22655 -39.93587 42.13980
v 28.15535 -39.42326 59.66585
v 30.41822 -21.56606 59.66585
v -27.86763 -31.79152 51.70837
v -32.08766 -14.29320 51.70837
v -32.13562 -14.30481 69.70830
v -27.91559 -31.80313 69.70830
v -27.86763 -31.79152 51.70837
v -32.08766 -14.29320 51.70837
v -32.13562 -14.30481 69.70830
v -27.91559 -31.80313 69.70830
v -38.74498 -25.18216 51.70837
v -21.24666 -20.96213 51.70837
v -21.25827 -20.91417 69.70830
v -38.75659 -25.13421 69.70830
v -38.74498 -25.18216 51.70837
v -21.24666 -20.96213 51.70837
v -21.25827 -20.91417 69.70830
v -38.75659 -25.13421 69.70830
v -33.40303 -12.68508 50.11182
v -32.09808 5.26755 50.11182
v -35.05764 5.48031 67.86557
v -36.36260 -12.47232 67.86557
v -33.40303 -12.68508 50.11182
v -32.09808 5.26755 50.11182
v -35.05764 5.48031 67.86557
v -36.36260 -12.47232 67.86557
v -43.31303 -4.42969 50.11182
v -25.36040 -5.73465 50.11182
v -25.14764 -2.77508 67.86557
v -43.10028 -1.47012 67.86557
v -43.31303 -4.42969 50.11182
v -25.36040 -5.73465 50.11182
v -25.14764 -2.77508 67.86557
v -43.10028 -1.47012 67.86557
v -34.41553 -26.71564 37.38875
v -24.79941 -11.49952 37.38875
v -21.57275 -13.53508 54.97980
v -31.18886 -28.75120 54.97980
v -34.41553 -26.71564 37.38875
v -24.79941 -11.49952 37.38875
v -21.57275 -13.53508 54.97980
v -31.18886 -28.75120 54.97980
v -34.58442 -13.70397 37.38875
v -19.36830 -23.32008 37.38875
v -21.40386 -26.54675 54.97980
v -36.61998 -16.93064 54.97980
v -34.58442 -13.70397 37.38875
v -19.36830 -23.32008 37.38875
v -21.40386 -26.54675 54.97980
v -36.61998 -16.93064 54.97980
v 5.70907 -4.87858 34.92252
v -10.97805 1.86975 34.92252
v -11.07367 1.63275 52.92071
v 5.61344 -5.11558 52.92071
v 5.70907 -4.87858 34.92252
v -10.97805 1.86975 34.92252
v -11.07367 1.63275 52.92071
v 5.61344 -5.11558 52.92071
v -5.93797 -10.01429 34.92252
v 0.81037 6.67283 34.92252
v 0.57337 6.76846 52.92071
v -6.17497 -9.91866 52.92071
v -5.93797 -10.01429 34.92252
v 0.81037 6.67283 34.92252
v 0.57337 6.76846 52.92071
v -6.17497 -9.91866 52.92071
v -18.27469 -37.62312 29.85099
v -2.22695 -45.77603 29.85099
v -2.65659 -46.62337 47.82590
v -18.70433 -38.47046 47.82590
v -18.27469 -37.62312 29.85099
v -2.22695 -45.77603 29.85099
v -2.65659 -46.62337 47.82590
v -18.70433 -38.47046 47.82590
v -5.96552 -34.31419 29.85099
v -14.11843 -50.36194 29.85099
v -14.96576 -49.93230 47.82590
v -6.81285 -33.88456 47.82590
v -5.96552 -34.31419 29.85099
v -14.11843 -50.36194 29.85099
v -14.96576 -49.93230 47.82590
v -6.81285 -33.88456 47.82590
v -12.09669 5.19182 41.25959
v -19.96426 21.38136 41.25959
v -20.13206 21.29966 59.25862
v -12.26448 5.11011 59.25862
v -12.09669 5.19182 41.25959
v -19.96426 21.38136 41.25959
v -20.13206 21.29966 59.25862
v -12.26448 5.11011 59.25862
v -24.16829 9.22805 41.25959
v -7.97875 17.09563 41.25959
v -8.06046 17.26342 59.25862
v -24.25000 9.39585 59.25862
v -24.16829 9.22805 41.25959
v -7.97875 17.09563 41.25959
v -8.06046 17.26342 59.25862
v -24.25000 9.39585 59.25862
v 21.79039 17.04513 47.13236
v 6.62823 7.34417 47.13236
v 5.30506 9.40860 64.96456
v 20.46723 19.10956 64.96456
v 21.79039 17.04513 47.13236
v 6.62823 7.34417 47.13236
v 5.30506 9.40860 64.96456
v 20.46723 19.10956 64.96456
v 17.36600 4.98420 47.13236
v 7.66503 20.14636 47.13236
v 9.72946 21.46953 64.96456
v 19.43042 6.30736 64.96456
v 17.36600 4.98420 47.13236
v 7.66503 20.14636 47.13236
v 9.72946 21.46953 64.96456
v 19.43042 6.30736 64.96456
v 19.29412 -0.05612 53.90254
v 8.30148 14.19736 53.90254
v 6.82132 13.05395 71.80510
v 17.81397 -1.19953 71.80510
v 19.29412 -0.05612 53.90254
v 8.30148 14.19736 53.90254
v 6.82132 13.05395 71.80510
v 17.81397 -1.19953 71.80510
v 6.50268 0.26252 53.90254
v 20.75617 11.25516 53.90254
v 19.61276 12.73531 71.80510
v 5.35927 1.74267 71.80510
v 6.50268 0.26252 53.90254
v 20.75617 11.25516 53.90254
v 19.61276 12.73531 71.80510
v 5.35927 1.74267 71.80510
v 44.90788 -12.99731 20.25414
v 27.36067 -8.98540 20.25414
v 27.21483 -9.62562 38.24216
v 44.76204 -13.63753 38.24216
v 44.90788 -12.99731 20.25414
v 27.36067 -8.98540 20.25414
v 27.21483 -9.62562 38.24216
v 44.76204 -13.63753 38.24216
v 34.37551 -20.15799 20.25414
v 38.38742 -2.61078 20.25414
v 37.74720 -2.46494 38.24216
v 33.73529 -20.01215 38.24216
v 34.37551 -20.15799 20.25414
v 38.38742 -2.61078 20.25414
v 37.74720 -2.46494 38.24216
v 33.73529 -20.01215 38.24216
v 10.29278 24.99667 62.53585
v 6.42538 7.41704 62.53585
v 9.12505 6.82539 80.32241
v 12.99245 24.40501 80.32241
v 10.29278 24.99667 62.53585
v 6.42538 7.41704 62.53585
v 9.12505 6.82539 80.32241
v 12.99245 24.40501 80.32241
v 18.79456 15.32717 62.53585
v 1.21493 19.19456 62.53585
v 0.62327 16.49489 80.32241
v 18.20290 12.62749 80.32241
v 18.79456 15.32717 62.53585
v 1.21493 19.19456 62.53585
v 0.62327 16.49489 80.32241
v 18.20290 12.62749 80.32241
v -11.27841 -38.62792 13.12628
v -6.98945 -21.14637 13.12628
v -10.82321 -20.20902 30.68827
v -15.11218 -37.69057 30.68827
v -11.27841 -38.62792 13.12628
v -6.98945 -21.14637 13.12628
v -10.82321 -20.20902 30.68827
v -15.11218 -37.69057 30.68827
v -20.26026 -29.19087 13.12628
v -2.77871 -33.47983 13.12628
v -1.84136 -29.64607 30.68827
v -19.32291 -25.35710 30.68827
v -20.26026 -29.19087 13.12628
v -2.77871 -33.47983 13.12628
v -1.84136 -29.64607 30.68827
v -19.32291 -25.35710 30.68827
v 45.35311 5.85090 21.33704
v 31.82644 -6.02467 21.33704
v 30.31956 -4.31104 39.19181
v 43.84623 7.56453 39.19181
v 45.35311 5.85090 21.33704
v 31.82644 -6.02467 21.33704
v 30.31956 -4.31104 39.19181
v 43.84623 7.56453 39.19181
v 42.91730 -6.74685 21.33704
v 31.04173 6.77982 21.33704
v 32.75536 8.28671 39.19181
v 44.63093 -5.23997 39.19181
v 42.91730 -6.74685 21.33704
v 31.04173 6.77982 21.33704
v 32.75536 8.28671 39.19181
v 44.63093 -5.23997 39.19181
v -24.78479 -2.50650 48.00299
v -7.32250 1.86023 48.00299
v -7.73877 3.51924 65.92154
v -25.20106 -0.84749 65.92154
v -24.78479 -2.50650 48.00299
v -7.32250 1.86023 48.00299
v -7.73877 3.51924 65.92154
v -25.20106 -0.84749 65.92154
v -19.27465 9.02938 48.00299
v -14.90792 -8.43291 48.00299
v -13.24891 -8.01664 65.92154
v -17.61564 9.44565 65.92154
v -19.27465 9.02938 48.00299
v -14.90792 -8.43291 48.00299
v -13.24891 -8.01664 65.92154
v -17.61564 9.44565 65.92154
v 46.66682 -18.34641 44.93777
v 37.53048 -2.83747 44.93777
v 35.92821 -3.78308 62.84136
v 45.06455 -19.29203 62.84136
v 46.66682 -18.34641 44.93777
v 37.53048 -2.83747 44.93777
v 35.92821 -3.78308 62.84136
v 45.06455 -19.29203 62.84136
v 34.01585 -16.43405 44.93777
v 49.52480 -7.29771 44.93777
v 48.57918 -5.69544 62.84136
v 33.07023 -14.83178 62.84136
v 34.01585 -16.43405 44.93777
v 49.52480 -7.29771 44.93777
v 48.57918 -5.69544 62.84136
v 33.07023 -14.83178 62.84136
v -7.86165 -23.31706 59.33516
v -4.43196 -40.98730 59.33516
v -6.33049 -41.35736 77.23093
v -9.76018 -23.68713 77.23093
v -7.86165 -23.31706 59.33516
v -4.43196 -40.98730 59.33516
v -6.33049 -41.35736 77.23093
v -9.76018 -23.68713 77.23093
v 1.92408 -31.57164 59.33516
v -15.74616 -35.00132 59.33516
v -16.11622 -33.10279 77.23093
v 1.55402 -29.67311 77.23093
v 1.92408 -31.57164 59.33516
v -15.74616 -35.00132 59.33516
v -16.11622 -33.10279 77.23093
v 1.55402 -29.67311 77.23093
v -47.30839 12.11941 61.36483
v -30.59075 5.44704 61.36483
v -30.89878 4.67349 79.34556
v -47.61642 11.34586 79.34556
v -47.30839 12.11941 61.36483
v -30.59075 5.44704 61.36483
v -30.89878 4.67349 79.34556
v -47.61642 11.34586 79.34556
v -35.38063 16.60126 61.36483
v -42.05300 -0.11638 61.36483
v -42.82655 0.19164 79.34556
v -36.15418 16.90928 79.34556
v -35.38063 16.60126 61.36483
v -42.05300 -0.11638 61.36483
v -42.82655 0.19164 79.34556
v -36.15418 16.90928 79.34556
v -11.89203 -47.39666 20.18379
v -27.82895 -39.02918 20.18379
v -26.96421 -37.37900 38.08712
v -11.02730 -45.74648 38.08712
v -11.89203 -47.39666 20.18379
v -27.82895 -39.02918 20.18379
v -26.96421 -37.37900 38.08712
v -11.02730 -45.74648 38.08712
v -24.43695 -49.92392 20.18379
v -16.06947 -33.98701 20.18379
v -14.41929 -34.85174 38.08712
v -22.78677 -50.78865 38.08712
v -24.43695 -49.92392 20.18379
v -16.06947 -33.98701 20.18379
v -14.41929 -34.85174 38.08712
v -22.78677 -50.78865 38.08712
v 19.30287 -13.35988 29.62511
v 31.50770 -26.59023 29.62511
v 30.61971 -27.41069 47.58446
v 18.41488 -14.18035 47.58446
v 19.30287 -13.35988 29.62511
v 31.50770 -26.59023 29.62511
v 30.61971 -27.41069 47.58446
v 18.41488 -14.18035 47.58446
v 31.98670 -14.72687 29.62511
v 18.75635 -26.93170 29.62511
v 17.93588 -26.04371 47.58446
v 31.16623 -13.83888 47.58446
v 31.98670 -14.72687 29.62511
v 18.75635 -26.93170 29.62511
v 17.93588 -26.04371 47.58446
v 31.16623 -13.83888 47.58446
v -14.58597 36.77384 26.84878
v -29.92785 27.35967 26.84878
v -32.19251 31.04371 44.32160
v -16.85063 40.45788 44.32160
v -14.58597 36.77384 26.84878
v -29.92785 27.35967 26.84878
v -32.19251 31.04371 44.32160
v -16.85063 40.45788 44.32160
v -20.52417 25.10550 26.84878
v -29.93834 40.44739 26.84878
v -26.25430 42.71204 44.32160
v -16.84013 27.37016 44.32160
v -20.52417 25.10550 26.84878
v -29.93834 40.44739 26.84878
v -26.25430 42.71204 44.32160
v -16.84013 27.37016 44.32160
v 0.33173 -41.69346 52.83290
v -17.36845 -44.96508 52.83290
v -18.02797 -41.41279 70.46657
v -0.32778 -38.14117 70.46657
v 0.33173 -41.69346 52.83290
v -17.36845 -44.96508 52.83290
v -18.02797 -41.41279 70.46657
v -0.32778 -38.14117 70.46657
v -8.98845 -50.73297 52.83290
v -12.26007 -33.03279 52.83290
v -8.70778 -32.37327 70.46657
v -5.43616 -50.07346 70.46657
v -8.98845 -50.73297 52.83290
v -12.26007 -33.03279 52.83290
v -8.70778 -32.37327 70.46657
v -5.43616 -50.07346 70.46657
v -9.46871 -11.42220 57.41371
v -21.06894 -25.18573 57.41371
v -18.08065 -27.70026 74.98492
v -6.48042 -13.93673 74.98492
v -9.46871 -11.42220 57.41371
v -21.06894 -25.18573 57.41371
v -18.08065 -27.70026 74.98492
v -6.48042 -13.93673 74.98492
v -5.63565 -23.86721 57.41371
v -19.39918 -12.26698 57.41371
v -21.91371 -15.25526 74.98492
v -8.15018 -26.85549 74.98492
v -5.63565 -23.86721 57.41371
v -19.39918 -12.26698 57.41371
v -21.91371 -15.25526 74.98492
v -8.15018 -26.85549 74.98492
v 10.01167 53.54864 33.12021
v -0.79669 39.15492 33.12021
v -3.45452 41.14740 50.81105
v 7.35384 55.54113 50.81105
v 10.01167 53.54864 33.12021
v -0.79669 39.15492 33.12021
v -3.45452 41.14740 50.81105
v 7.35384 55.54113 50.81105
v 9.47920 40.61492 33.12021
v -4.91453 51.42328 33.12021
v -2.92205 54.08112 50.81105
v 11.47168 43.27276 50.81105
v 9.47920 40.61492 33.12021
v -4.91453 51.42328 33.12021
v -2.92205 54.08112 50.81105
v 11.47168 43.27276 50.81105
v -31.87519 14.64745 61.03764
v -36.90990 -2.63409 61.03764
v -35.05575 -3.17267 78.93379
v -30.02104 14.10888 78.93379
v -31.87519 14.64745 61.03764
v -36.90990 -2.63409 61.03764
v -35.05575 -3.17267 78.93379
v -30.02104 14.10888 78.93379
v -24.55541 4.14712 61.03764
v -41.83695 9.18182 61.03764
v -42.37553 7.32767 78.93379
v -25.09399 2.29296 78.93379
v -24.55541 4.14712 61.03764
v -41.83695 9.18182 61.03764
v -42.37553 7.32767 78.93379
v -25.09399 2.29296 78.93379
v 10.27578 -4.96771 52.67021
v -4.76643 -14.85366 52.67021
v -6.68308 -11.94238 70.32951
v 8.35912 -2.05643 70.32951
v 10.27578 -4.96771 52.67021
v -4.76643 -14.85366 52.67021
v -6.68308 -11.94238 70.32951
v 8.35912 -2.05643 70.32951
v 5.28368 -16.93448 52.67021
v -4.60227 -1.89227 52.67021
v -1.69099 0.02438 70.32951
v 8.19496 -15.01782 70.32951
v 5.28368 -16.93448 52.67021
v -4.60227 -1.89227 52.67021
v -1.69099 0.02438 70.32951
v 8.19496 -15.01782 70.32951
v -12.42412 53.02644 41.45154
v -1.29356 38.88040 41.45154
v 0.37293 40.19379 59.32604
v -10.75763 54.33984 59.32604
v -12.42412 53.02644 41.45154
v -1.29356 38.88040 41.45154
v 0.37293 40.19379 59.32604
v -10.75763 54.33984 59.32604
v 0.39073 53.00864 41.45154
v -13.75531 41.87808 41.45154
v -12.44192 40.21159 59.32604
v 1.70413 51.34216 59.32604
v 0.39073 53.00864 41.45154
v -13.75531 41.87808 41.45154
v -12.44192 40.21159 59.32604
v 1.70413 51.34216 59.32604
v 13.41790 17.40466 52.89187
v -2.77555 25.26420 52.89187
v -3.91283 22.91623 70.70181
v 12.28062 15.05669 70.70181
v 13.41790 17.40466 52.89187
v -2.77555 25.26420 52.89187
v -3.91283 22.91623 70.70181
v 12.28062 15.05669 70.70181
v 1.99676 11.49508 52.89187
v 9.85629 27.68853 52.89187
v 7.50832 28.82581 70.70181
v -0.35121 12.63236 70.70181
v 1.99676 11.49508 52.89187
v 9.85629 27.68853 52.89187
v 7.50832 28.82581 70.70181
v -0.35121 12.63236 70.70181
v -34.47417 -23.37647 37.78536
v -49.24161 -13.08460 37.78536
v -49.21537 -13.04688 55.78530
v -34.44793 -23.33876 55.78530
v -34.47417 -23.37647 37.78536
v -49.24161 -13.08460 37.78536
v -49.21537 -13.04688 55.78530
v -34.44793 -23.33876 55.78530
v -47.00957 -25.58227 37.78536
v -36.71769 -10.81483 37.78536
v -36.67997 -10.84108 55.78530
v -46.97185 -25.60852 55.78530
v -47.00957 -25.58227 37.78536
v -36.71769 -10.81483 37.78536
v -36.67997 -10.84108 55.78530
v -46.97185 -25.60852 55.78530
v 34.96752 -11.46764 14.84978
v 20.94713 -22.75607 14.84978
v 23.39177 -25.78739 32.42348
v 37.41216 -14.49897 32.42348
v 34.96752 -11.46764 14.84978
v 20.94713 -22.75607 14.84978
v 23.39177 -25.78739 32.42348
v 37.41216 -14.49897 32.42348
v 36.33953 -24.41539 14.84978
v 25.05110 -10.39500 14.84978
v 22.01977 -12.83964 32.42348
v 33.30820 -26.86003 32.42348
v 36.33953 -24.41539 14.84978
v 25.05110 -10.39500 14.84978
v 22.01977 -12.83964 32.42348
v 33.30820 -26.86003 32.42348
v -2.32156 0.04046 34.48540
v -19.66395 -4.78050 34.48540
v -20.61464 -1.37111 52.13397
v -3.27225 3.44985 52.13397
v -2.32156 0.04046 34.48540
v -19.66395 -4.78050 34.48540
v -20.61464 -1.37111 52.13397
v -3.27225 3.44985 52.13397
v -10.76232 -9.81186 34.48540
v -15.58327 7.53052 34.48540
v -12.17388 8.48122 52.13397
v -7.35293 -8.86117 52.13397
v -10.76232 -9.81186 34.48540
v -15.58327 7.53052 34.48540
v -12.17388 8.48122 52.13397
v -7.35293 -8.86117 52.13397
v -13.48665 25.18552 38.98055
v -24.85929 11.23335 38.98055
v -27.59571 13.46022 56.63141
v -16.22307 27.41240 56.63141
v -13.48665 25.18552 38.98055
v -24.85929 11.23335 38.98055
v -27.59571 13.46022 56.63141
v -16.22307 27.41240 56.63141
v -14.67853 12.26835 38.98055
v -28.63071 23.64098 38.98055
v -26.40383 26.37740 56.63141
v -12.45165 15.00477 56.63141
v -14.67853 12.26835 38.98055
v -28.63071 23.64098 38.98055
v -26.40383 26.37740 56.63141
v -12.45165 15.00477 56.63141
v 34.29796 -15.99547 45.84356
v 38.31133 -33.54234 45.84356
v 41.33383 -32.84849 63.57441
v 37.32046 -15.30162 63.57441
v 34.29796 -15.99547 45.84356
v 38.31133 -33.54234 45.84356
v 41.33383 -32.84849 63.57441
v 37.32046 -15.30162 63.57441
v 46.24241 -20.90404 45.84356
v 28.69553 -24.91741 45.84356
v 29.38938 -27.93992 63.57441
v 46.93626 -23.92655 63.57441
v 46.24241 -20.90404 45.84356
v 28.69553 -24.91741 45.84356
v 29.38938 -27.93992 63.57441
v 46.93626 -23.92655 63.57441
v -43.46917 -1.05745 40.22367
v -27.55994 7.36254 40.22367
v -25.78515 4.01560 57.82050
v -41.69439 -4.40439 57.82050
v -43.46917 -1.05745 40.22367
v -27.55994 7.36254 40.22367
v -25.78515 4.01560 57.82050
v -41.69439 -4.40439 57.82050
v -37.16369 10.32109 40.22367
v -28.74370 -5.58815 40.22367
v -32.09064 -7.36293 57.82050
v -40.51063 8.54630 57.82050
v -37.16369 10.32109 40.22367
v -28.74370 -5.58815 40.22367
v -32.09064 -7.36293 57.82050
v -40.51063 8.54630 57.82050
v -19.97393 1.19855 66.92023
v -24.79394 -16.14410 66.92023
v -28.95397 -14.99148 84.39494
v -24.13397 2.35117 84.39494
v -19.97393 1.19855 66.92023
v -24.79394 -16.14410 66.92023
v -28.95397 -14.99148 84.39494
v -24.13397 2.35117 84.39494
v -16.36894 -11.38649 66.92023
v -33.71159 -6.56648 66.92023
v -32.55897 -2.40645 84.39494
v -15.21632 -7.22645 84.39494
v -16.36894 -11.38649 66.92023
v -33.71159 -6.56648 66.92023
v -32.55897 -2.40645 84.39494
v -15.21632 -7.22645 84.39494
v 8.84499 -9.77114 49.29062
v 5.24502 -27.40747 49.29062
v 8.74408 -28.11881 66.93292
v 12.34406 -10.48248 66.93292
v 8.84499 -9.77114 49.29062
v 5.24502 -27.40747 49.29062
v 8.74408 -28.11881 66.93292
v 12.34406 -10.48248 66.93292
v 17.96837 -18.99543 49.29062
v 0.33204 -15.39545 49.29062
v -0.37930 -18.89452 66.93292
v 17.25704 -22.49450 66.93292
v 17.96837 -18.99543 49.29062
v 0.33204 -15.39545 49.29062
v -0.37930 -18.89452 66.93292
v 17.25704 -22.49450 66.93292
v 47.32825 17.80131 24.29807
v 29.50833 15.26155 24.29807
v 29.19475 17.44925 42.16187
v 47.01467 19.98901 42.16187
v 47.32825 17.80131 24.29807
v 29.50833 15.26155 24.29807
v 29.19475 17.44925 42.16187
v 47.01467 19.98901 42.16187
v 38.43752 8.55853 24.29807
v 35.89776 26.37845 24.29807
v 38.08547 26.69203 42.16187
v 40.62523 8.87211 42.16187
v 38.43752 8.55853 24.29807
v 35.89776 26.37845 24.29807
v 38.08547 26.69203 42.16187
v 40.62523 8.87211 42.16187
v 34.11106 10.60328 20.83564
v 30.57507 28.25255 20.83564
v 27.34403 27.60254 38.53134
v 30.88002 9.95327 38.53134
v 34.11106 10.60328 20.83564
v 30.57507 28.25255 20.83564
v 27.34403 27.60254 38.53134
v 30.88002 9.95327 38.53134
v 22.22791 15.71939 20.83564
v 39.87719 19.25538 20.83564
v 39.22718 22.48643 38.53134
v 21.57790 18.95044 38.53134
v 22.22791 15.71939 20.83564
v 39.87719 19.25538 20.83564
v 39.22718 22.48643 38.53134
v 21.57790 18.95044 38.53134
v 25.04106 -28.57063 35.39746
v 39.05245 -39.87023 35.39746
v 38.53732 -40.51003 53.37871
v 24.52593 -29.21043 53.37871
v 25.04106 -28.57063 35.39746
v 39.05245 -39.87023 35.39746
v 38.53732 -40.51003 53.37871
v 24.52593 -29.21043 53.37871
v 37.75889 -27.79220 35.39746
v 26.45929 -41.80359 35.39746
v 25.81949 -41.28846 53.37871
v 37.11909 -27.27707 53.37871
v 37.75889 -27.79220 35.39746
v 26.45929 -41.80359 35.39746
v 25.81949 -41.28846 53.37871
v 37.11909 -27.27707 53.37871
v 27.03265 6.24559 16.32661
v 12.78378 -4.75303 16.32661
v 13.88328 -6.17510 34.23663
v 28.13215 4.82352 34.23663
v 27.03265 6.24559 16.32661
v 12.78378 -4.75303 16.32661
v 13.88328 -6.17510 34.23663
v 28.13215 4.82352 34.23663
v 26.66831 -6.53944 16.32661
v 15.66969 7.70943 16.32661
v 14.24761 6.60993 34.23663
v 25.24623 -7.63894 34.23663
v 26.66831 -6.53944 16.32661
v 15.66969 7.70943 16.32661
v 14.24761 6.60993 34.23663
v 25.24623 -7.63894 34.23663
v -0.44058 -30.63101 15.60464
v 17.43724 -28.53737 15.60464
v 17.37948 -28.04755 33.59788
v -0.49834 -30.14118 33.59788
v -0.44058 -30.63101 15.60464
v 17.43724 -28.53737 15.60464
v 17.37948 -28.04755 33.59788
v -0.49834 -30.14118 33.59788
v 7.17772 -20.42924 15.60464
v 9.27136 -38.30707 15.60464
v 9.76118 -38.24931 33.59788
v 7.66755 -20.37149 33.59788
v 7.17772 -20.42924 15.60464
v 9.27136 -38.30707 15.60464
v 9.76118 -38.24931 33.59788
v 7.66755 -20.37149 33.59788
v 33.93870 21.68060 47.32888
v 44.11505 6.83331 47.32888
v 44.11828 6.83553 65.32888
v 33.94193 21.68282 65.32888
v 33.93870 21.68060 47.32888
v 44.11505 6.83331 47.32888
v 44.11828 6.83553 65.32888
v 33.94193 21.68282 65.32888
v 46.45103 19.34786 47.32888
v 31.60374 9.17151 47.32888
v 31.60596 9.16827 65.32888
v 46.45325 19.34462 65.32888
v 46.45103 19.34786 47.32888
v 31.60374 9.17151 47.32888
v 31.60596 9.16827 65.32888
v 46.45325 19.34462 65.32888
v 7.04243 21.25270 20.93910
v 18.16792 35.40273 20.93910
v 17.68343 35.78304 38.92856
v 6.55793 21.63301 38.92856
v 7.04243 21.25270 20.93910
v 18.16792 35.40273 20.93910
v 17.68343 35.78304 38.92856
v 6.55793 21.63301 38.92856
v 5.09776 33.83837 20.93910
v 19.24779 22.71287 20.93910
v 19.62810 23.19737 38.92856
v 5.47807 34.32286 38.92856
v 5.09776 33.83837 20.93910
v 19.24779 22.71287 20.93910
v 19.62810 23.19737 38.92856
v 5.47807 34.32286 38.92856
vt 0.00200 0.49800
vt 0.49800 0.49800
vt 0.49800 0.00200
vt 0.00200 0.00200
vt 0.00200 0.49800
vt 0.49800 0.49800
vt 0.49800 0.00200
vt 0.00200 0.00200
vt 0.00200 0.49800
vt 0.49800 0.49800
vt 0.49800 0.00200
vt 0.00200 0.00200
vt 0.00200 0.49800
vt 0.49800 0.49800
vt 0.49800 0.00200
vt 0.00200 0.00200
vt 0.50200 0.49800
vt 0.99800 0.49800
vt 0.99800 0.00200
vt 0.50200 0.00200
vt 0.50200 0.49800
vt 0.99800 0.49800
vt 0.99800 0.00200
vt 0.50200 0.00200
vt 0.50200 0.49800
vt 0.99800 0.49800
vt 0.99800 0.00200
vt 0.50200 0.00200
vt 0.50200 0.49800
vt 0.99800 0.49800
vt 0.99800 0.00200
vt 0.50200 0.00200
vt 0.00200 0.99800
vt 0.49800 0.99800
vt 0.49800 0.50200
vt 0.00200 0.50200
vt 0.00200 0.99800
vt 0.49800 0.99800
vt 0.49800 0.50200
vt 0.00200 0.50200
vt 0.00200 0.99800
vt 0.49800 0.99800
vt 0.49800 0.50200
vt 0.00200 0.50200
vt 0.00200 0.99800
vt 0.49800 0.99800
vt 0.49800 0.50200
vt 0.00200 0.50200
vt 0.50200 0.99800
vt 0.99800 0.99800
vt 0.99800 0.50200
vt 0.50200 0.50200
vt 0.50200 0.99800
vt 0.99800 0.99800
vt 0.99800 0.50200
vt 0.50200 0.50200
vt 0.50200 0.99800
vt 0.99800 0.99800
vt 0.99800 0.50200
vt 0.50200 0.50200
vt 0.50200 0.99800
vt 0.99800 0.99800
vt 0.99800 0.50200
vt 0.50200 0.50200
vt 0.00200 0.49800
vt 0.49800 0.49800
vt 0.49800 0.00200
vt 0.00200 0.00200
vt 0.00200 0.49800
vt 0.49800 0.49800
vt 0.49800 0.00200
vt 0.00200 0.00200
vt 0.00200 0.49800
vt 0.49800 0.49800
vt 0.49800 0.00200
vt 0.00200 0.00200
vt 0.00200 0.49800
vt 0.49800 0.49800
vt 0.49800 0.00200
vt 0.00200 0.00200
vt 0.50200 0.49800
vt 0.99800 0.49800
vt 0.99800 0.00200
vt 0.50200 0.00200
vt 0.50200 0.49800
vt 0.99800 0.49800
vt 0.99800 0.00200
vt 0.50200 0.00200
vt 0.50200 0.49800
vt 0.99800 0.49800
vt 0.99800 0.00200
vt 0.50200 0.00200
vt 0.50200 0.49800
vt 0.99800 0.49800
vt 0.99800 0.00200
vt 0.50200 0.00200
vt 0.00200 0.99800
vt 0.49800 0.99800
vt 0.49800 0.50200
vt 0.00200 0.50200
vt 0.00200 0.99800
vt 0.49800 0.99800
vt 0.49800 0.50200
vt 0.00200 0.50200
vt 0.00200 0.99800
vt 0.49800 0.99800
vt 0.49800 0.50200
vt 0.00200 0.50200
vt 0.00200 0.99800
vt 0.49800 0.99800
vt 0.49800 0.50200
vt 0.00200 0.50200
vt 0.50200 0.99800
vt 0.99800 0.99800
vt 0.99800 0.50200
vt 0.50200 0.50200
vt 0.50200 0.99800
vt 0.99800 0.99800
vt 0.99800 0.50200
vt 0.50200 0.50200
vt 0.50200 0.99800
vt 0.99800 0.99800
vt 0.99800 0.50200
vt 0.50200 0.50200
vt 0.50200 0.99800
vt 0.99800 0.99800
vt 0.99800 0.50200
vt 0.50200 0.50200
vt 0.00200 0.49800
vt 0.49800 0.49800
vt 0.49800 0.00200
vt 0.00200 0.00200
vt 0.00200 0.49800
vt 0.49800 0.49800
vt 0.49800 0.00200
vt 0.00200 0.00200
vt 0.00200 0.49800
vt 0.49800 0.49800
vt 0.49800 0.00200
vt 0.00200 0.00200
vt 0.00200 0.49800
vt 0.49800 0.49800
vt 0.49800 0.00200
vt 0.00200 0.00200
vt 0.50200 0.49800
vt 0.99800 0.49800
vt 0.99800 0.00200
vt 0.50200 0.00200
vt 0.50200 0.49800
vt 0.99800 0.49800
vt 0.99800 0.00200
vt 0.50200 0.00200
vt 0.50200 0.49800
vt 0.99800 0.49800
vt 0.99800 0.00200
vt 0.50200 0.00200
vt 0.50200 0.49800
vt 0.99800 0.49800
vt 0.99800 0.00200
vt 0.50200 0.00200
vt 0.00200 0.99800
vt 0.49800 0.99800
vt 0.49800 0.50200
vt 0.00200 0.50200
vt 0.00200 0.99800
vt 0.49800 0.99800
vt 0.49800 0.50200
vt 0.00200 0.50200
vt 0.00200 0.99800
vt 0.49800 0.99800
vt 0.49800 0.50200
vt 0.00200 0.50200
vt 0.00200 0.99800
vt 0.49800 0.99800
vt 0.49800 0.50200
vt 0.00200 0.50200
vt 0.50200 0.99800
vt 0.99800 0.99800
vt 0.99800 0.50200
vt 0.50200 0.50200
vt 0.50200 0.99800
vt 0.99800 0.99800
vt 0.99800 0.50200
vt 0.50200 0.50200
vt 0.50200 0.99800
vt 0.99800 0.99800
vt 0.99800 0.50200
vt 0.50200 0.50200
vt 0.50200 0.99800
vt 0.99800 0.99800
vt 0.99800 0.50200
vt 0.50200 0.50200
vt 0.00200 0.49800
vt 0.49800 0.49800
vt 0.49800 0.00200
vt 0.00200 0.00200
vt 0.00200 0.49800
vt 0.49800 0.49800
vt 0.49800 0.00200
vt 0.00200 0.00200
vt 0.00200 0.49800
vt 0.49800 0.49800
vt 0.49800 0.00200
vt 0.00200 0.00200
vt 0.00200 0.49800
vt 0.49800 0.49800
vt 0.49800 0.00200
vt 0.00200 0.00200
vt 0.50200 0.49800
vt 0.99800 0.49800
vt 0.99800 0.00200
vt 0.50200 0.00200
vt 0.50200 0.49800
vt 0.99800 0.49800
vt 0.99800 0.00200
vt 0.50200 0.00200
vt 0.50200 0.49800
vt 0.99800 0.49800
vt 0.99800 0.00200
vt 0.50200 0.00200
vt 0.50200 0.49800
vt 0.99800 0.49800
vt 0.99800 0.00200
vt 0.50200 0.00200
vt 0.00200 0.99800
vt 0.49800 0.99800
vt 0.49800 0.50200
vt 0.00200 0.50200
vt 0.00200 0.99800
vt 0.49800 0.99800
vt 0.49800 0.50200
vt 0.00200 0.50200
vt 0.00200 0.99800
vt 0.49800 0.99800
vt 0.49800 0.50200
vt 0.00200 0.50200
vt 0.00200 0.99800
vt 0.49800 0.99800
vt 0.49800 0.50200
vt 0.00200 0.50200
vt 0.50200 0.99800
vt 0.99800 0.99800
vt 0.99800 0.50200
vt 0.50200 0.50200
vt 0.50200 0.99800
vt 0.99800 0.99800
vt 0.99800 0.50200
vt 0.50200 0.50200
vt 0.50200 0.99800
vt 0.99800 0.99800
vt 0.99800 0.50200
vt 0.50200 0.50200
vt 0.50200 0.99800
vt 0.99800 0.99800
vt 0.99800 0.50200
vt 0.50200 0.50200
vt 0.00200 0.49800
vt 0.49800 0.49800
vt 0.49800 0.00200
vt 0.00200 0.00200
vt 0.00200 0.49800
vt 0.49800 0.49800
vt 0.49800 0.00200
vt 0.00200 0.00200
vt 0.00200 0.49800
vt 0.49800 0.49800
vt 0.49800 0.00200
vt 0.00200 0.00200
vt 0.00200 0.49800
vt 0.49800 0.49800
vt 0.49800 0.00200
vt 0.00200 0.00200
vt 0.50200 0.49800
vt 0.99800 0.49800
vt 0.99800 0.00200
vt 0.50200 0.00200
vt 0.50200 0.49800
vt 0.99800 0.49800
vt 0.99800 0.00200
vt 0.50200 0.00200
vt 0.50200 0.49800
vt 0.99800 0.49800
vt 0.99800 0.00200
vt 0.50200 0.00200
vt 0.50200 0.49800
vt 0.99800 0.49800
vt 0.99800 0.00200
vt 0.50200 0.00200
vt 0.00200 0.99800
vt 0.49800 0.99800
vt 0.49800 0.50200
vt 0.00200 0.50200
vt 0.00200 0.99800
vt 0.49800 0.99800
vt 0.49800 0.50200
vt 0.00200 0.50200
vt 0.00200 0.99800
vt 0.49800 0.99800
vt 0.49800 0.50200
vt 0.00200 0.50200
vt 0.00200 0.99800
vt 0.49800 0.99800
vt 0.49800 0.50200
vt 0.00200 0.50200
vt 0.50200 0.99800
vt 0.99800 0.99800
vt 0.99800 0.50200
vt 0.50200 0.50200
vt 0.50200 0.99800
vt 0.99800 0.99800
vt 0.99800 0.50200
vt 0.50200 0.50200
vt 0.50200 0.99800
vt 0.99800 0.99800
vt 0.99800 0.50200
vt 0.50200 0.50200
vt 0.50200 0.99800
vt 0.99800 0.99800
vt 0.99800 0.50200
vt 0.50200 0.50200
vt 0.00200 0.49800
vt 0.49800 0.49800
vt 0.49800 0.00200
vt 0.00200 0.00200
vt 0.00200 0.49800
vt 0.49800 0.49800
vt 0.49800 0.00200
vt 0.00200 0.00200
vt 0.00200 0.49800
vt 0.49800 0.49800
vt 0.49800 0.00200
vt 0.00200 0.00200
vt 0.00200 0.49800
vt 0.49800 0.49800
vt 0.49800 0.00200
vt 0.00200 0.00200
vt 0.50200 0.49800
vt 0.99800 0.49800
vt 0.99800 0.00200
vt 0.50200 0.00200
vt 0.50200 0.49800
vt 0.99800 0.49800
vt 0.99800 0.00200
vt 0.50200 0.00200
vt 0.50200 0.49800
vt 0.99800 0.49800
vt 0.99800 0.00200
vt 0.50200 0.00200
vt 0.50200 0.49800
vt 0.99800 0.49800
vt 0.99800 0.00200
vt 0.50200 0.00200
vt 0.00200 0.99800
vt 0.49800 0.99800
vt 0.49800 0.50200
vt 0.00200 0.50200
vt 0.00200 0.99800
vt 0.49800 0.99800
vt 0.49800 0.50200
vt 0.00200 0.50200
vt 0.00200 0.99800
vt 0.49800 0.99800
vt 0.49800 0.50200
vt 0.00200 0.50200
vt 0.00200 0.99800
vt 0.49800 0.99800
vt 0.49800 0.50200
vt 0.00200 0.50200
vt 0.50200 0.99800
vt 0.99800 0.99800
vt 0.99800 0.50200
vt 0.50200 0.50200
vt 0.50200 0.99800
vt 0.99800 0.99800
vt 0.99800 0.50200
vt 0.50200 0.50200
vt 0.50200 0.99800
vt 0.99800 0.99800
vt 0.99800 0.50200
vt 0.50200 0.50200
vt 0.50200 0.99800
vt 0.99800 0.99800
vt 0.99800 0.50200
vt 0.50200 0.50200
vt 0.00200 0.49800
vt 0.49800 0.49800
vt 0.49800 0.00200
vt 0.00200 0.00200
vt 0.00200 0.49800
vt 0.49800 0.49800
vt 0.49800 0.00200
vt 0.00200 0.00200
vt 0.00200 0.49800
vt 0.49800 0.49800
vt 0.49800 0.00200
vt 0.00200 0.00200
vt 0.00200 0.49800
vt 0.49800 0.49800
vt 0.49800 0.00200
vt 0.00200 0.00200
vt 0.50200 0.49800
vt 0.99800 0.49800
vt 0.99800 0.00200
vt 0.50200 0.00200
vt 0.50200 0.49800
vt 0.99800 0.49800
vt 0.99800 0.00200
vt 0.50200 0.00200
vt 0.50200 0.49800
vt 0.99800 0.49800
vt 0.99800 0.00200
vt 0.50200 0.00200
vt 0.50200 0.49800
vt 0.99800 0.49800
vt 0.99800 0.00200
vt 0.50200 0.00200
vt 0.00200 0.99800
vt 0.49800 0.99800
vt 0.49800 0.50200
vt 0.00200 0.50200
vt 0.00200 0.99800
vt 0.49800 0.99800
vt 0.49800 0.50200
vt 0.00200 0.50200
vt 0.00200 0.99800
vt 0.49800 0.99800
vt 0.49800 0.50200
vt 0.00200 0.50200
vt 0.00200 0.99800
vt 0.49800 0.99800
vt 0.49800 0.50200
vt 0.00200 0.50200
vt 0.50200 0.99800
vt 0.99800 0.99800
vt 0.99800 0.50200
vt 0.50200 0.50200
vt 0.50200 0.99800
vt 0.99800 0.99800
vt 0.99800 0.50200
vt 0.50200 0.50200
vt 0.50200 0.99800
vt 0.99800 0.99800
vt 0.99800 0.50200
vt 0.50200 0.50200
vt 0.50200 0.99800
vt 0.99800 0.99800
vt 0.99800 0.50200
vt 0.50200 0.50200
vt 0.00200 0.49800
vt 0.49800 0.49800
vt 0.49800 0.00200
vt 0.00200 0.00200
vt 0.00200 0.49800
vt 0.49800 0.49800
vt 0.49800 0.00200
vt 0.00200 0.00200
vt 0.00200 0.49800
vt 0.49800 0.49800
vt 0.49800 0.00200
vt 0.00200 0.00200
vt 0.00200 0.49800
vt 0.49800 0.49800
vt 0.49800 0.00200
vt 0.00200 0.00200
vt 0.50200 0.49800
vt 0.99800 0.49800
vt 0.99800 0.00200
vt 0.50200 0.00200
vt 0.50200 0.49800
vt 0.99800 0.49800
vt 0.99800 0.00200
vt 0.50200 0.00200
vt 0.50200 0.49800
vt 0.99800 0.49800
vt 0.99800 0.00200
vt 0.50200 0.00200
vt 0.50200 0.49800
vt 0.99800 0.49800
vt 0.99800 0.00200
vt 0.50200 0.00200
vt 0.00200 0.99800
vt 0.49800 0.99800
vt 0.49800 0.50200
vt 0.00200 0.50200
vt 0.00200 0.99800
vt 0.49800 0.99800
vt 0.49800 0.50200
vt 0.00200 0.50200
vt 0.00200 0.99800
vt 0.49800 0.99800
vt 0.49800 0.50200
vt 0.00200 0.50200
vt 0.00200 0.99800
vt 0.49800 0.99800
vt 0.49800 0.50200
vt 0.00200 0.50200
vt 0.50200 0.99800
vt 0.99800 0.99800
vt 0.99800 0.50200
vt 0.50200 0.50200
vt 0.50200 0.99800
vt 0.99800 0.99800
vt 0.99800 0.50200
vt 0.50200 0.50200
vt 0.50200 0.99800
vt 0.99800 0.99800
vt 0.99800 0.50200
vt 0.50200 0.50200
vt 0.50200 0.99800
vt 0.99800 0.99800
vt 0.99800 0.50200
vt 0.50200 0.50200
vt 0.00200 0.49800
vt 0.49800 0.49800
vt 0.49800 0.00200
vt 0.00200 0.00200
vt 0.00200 0.49800
vt 0.49800 0.49800
vt 0.49800 0.00200
vt 0.00200 0.00200
vt 0.00200 0.49800
vt 0.49800 0.49800
vt 0.49800 0.00200
vt 0.00200 0.00200
vt 0.00200 0.49800
vt 0.49800 0.49800
vt 0.49800 0.00200
vt 0.00200 0.00200
vt 0.50200 0.49800
vt 0.99800 0.49800
vt 0.99800 0.00200
vt 0.50200 0.00200
vt 0.50200 0.49800
vt 0.99800 0.49800
vt 0.99800 0.00200
vt 0.50200 0.00200
vt 0.50200 0.49800
vt 0.99800 0.49800
vt 0.99800 0.00200
vt 0.50200 0.00200
vt 0.50200 0.49800
vt 0.99800 0.49800
vt 0.99800 0.00200
vt 0.50200 0.00200
vt 0.00200 0.99800
vt 0.49800 0.99800
vt 0.49800 0.50200
vt 0.00200 0.50200
vt 0.00200 0.99800
vt 0.49800 0.99800
vt 0.49800 0.50200
vt 0.00200 0.50200
vt 0.00200 0.99800
vt 0.49800 0.99800
vt 0.49800 0.50200
vt 0.00200 0.50200
vt 0.00200 0.99800
vt 0.49800 0.99800
vt 0.49800 0.50200
vt 0.00200 0.50200
vt 0.50200 0.99800
vt 0.99800 0.99800
vt 0.99800 0.50200
vt 0.50200 0.50200
vt 0.50200 0.99800
vt 0.99800 0.99800
vt 0.99800 0.50200
vt 0.50200 0.50200
vt 0.50200 0.99800
vt 0.99800 0.99800
vt 0.99800 0.50200
vt 0.50200 0.50200
vt 0.50200 0.99800
vt 0.99800 0.99800
vt 0.99800 0.50200
vt 0.50200 0.50200
vt 0.00200 0.49800
vt 0.49800 0.49800
vt 0.49800 0.00200
vt 0.00200 0.00200
vt 0.00200 0.49800
vt 0.49800 0.49800
vt 0.49800 0.00200
vt 0.00200 0.00200
vt 0.00200 0.49800
vt 0.49800 0.49800
vt 0.49800 0.00200
vt 0.00200 0.00200
vt 0.00200 0.49800
vt 0.49800 0.49800
vt 0.49800 0.00200
vt 0.00200 0.00200
vt 0.50200 0.49800
vt 0.99800 0.49800
vt 0.99800 0.00200
vt 0.50200 0.00200
vt 0.50200 0.49800
vt 0.99800 0.49800
vt 0.99800 0.00200
vt 0.50200 0.00200
vt 0.50200 0.49800
vt 0.99800 0.49800
vt 0.99800 0.00200
vt 0.50200 0.00200
vt 0.50200 0.49800
vt 0.99800 0.49800
vt 0.99800 0.00200
vt 0.50200 0.00200
vt 0.00200 0.99800
vt 0.49800 0.99800
vt 0.49800 0.50200
vt 0.00200 0.50200
vt 0.00200 0.99800
vt 0.49800 0.99800
vt 0.49800 0.50200
vt 0.00200 0.50200
vt 0.00200 0.99800
vt 0.49800 0.99800
vt 0.49800 0.50200
vt 0.00200 0.50200
vt 0.00200 0.99800
vt 0.49800 0.99800
vt 0.49800 0.50200
vt 0.00200 0.50200
vt 0.50200 0.99800
vt 0.99800 0.99800
vt 0.99800 0.50200
vt 0.50200 0.50200
vt 0.50200 0.99800
vt 0.99800 0.99800
vt 0.99800 0.50200
vt 0.50200 0.50200
vt 0.50200 0.99800
vt 0.99800 0.99800
vt 0.99800 0.50200
vt 0.50200 0.50200
vt 0.50200 0.99800
vt 0.99800 0.99800
vt 0.99800 0.50200
vt 0.50200 0.50200
vt 0.00200 0.49800
vt 0.49800 0.49800
vt 0.49800 0.00200
vt 0.00200 0.00200
vt 0.00200 0.49800
vt 0.49800 0.49800
vt 0.49800 0.00200
vt 0.00200 0.00200
vt 0.00200 0.49800
vt 0.49800 0.49800
vt 0.49800 0.00200
vt 0.00200 0.00200
vt 0.00200 0.49800
vt 0.49800 0.49800
vt 0.49800 0.00200
vt 0.00200 0.00200
vt 0.50200 0.49800
vt 0.99800 0.49800
vt 0.99800 0.00200
vt 0.50200 0.00200
vt 0.50200 0.49800
vt 0.99800 0.49800
vt 0.99800 0.00200
vt 0.50200 0.00200
vt 0.50200 0.49800
vt 0.99800 0.49800
vt 0.99800 0.00200
vt 0.50200 0.00200
vt 0.50200 0.49800
vt 0.99800 0.49800
vt 0.99800 0.00200
vt 0.50200 0.00200
vt 0.00200 0.99800
vt 0.49800 0.99800
vt 0.49800 0.50200
vt 0.00200 0.50200
vt 0.00200 0.99800
vt 0.49800 0.99800
vt 0.49800 0.50200
vt 0.00200 0.50200
vt 0.00200 0.99800
vt 0.49800 0.99800
vt 0.49800 0.50200
vt 0.00200 0.50200
vt 0.00200 0.99800
vt 0.49800 0.99800
vt 0.49800 0.50200
vt 0.00200 0.50200
vt 0.50200 0.99800
vt 0.99800 0.99800
vt 0.99800 0.50200
vt 0.50200 0.50200
vt 0.50200 0.99800
vt 0.99800 0.99800
vt 0.99800 0.50200
vt 0.50200 0.50200
vt 0.50200 0.99800
vt 0.99800 0.99800
vt 0.99800 0.50200
vt 0.50200 0.50200
vt 0.50200 0.99800
vt 0.99800 0.99800
vt 0.99800 0.50200
vt 0.50200 0.50200
vt 0.00200 0.49800
vt 0.49800 0.49800
vt 0.49800 0.00200
vt 0.00200 0.00200
vt 0.00200 0.49800
vt 0.49800 0.49800
vt 0.49800 0.00200
vt 0.00200 0.00200
vt 0.00200 0.49800
vt 0.49800 0.49800
vt 0.49800 0.00200
vt 0.00200 0.00200
vt 0.00200 0.49800
vt 0.49800 0.49800
vt 0.49800 0.00200
vt 0.00200 0.00200
vt 0.50200 0.49800
vt 0.99800 0.49800
vt 0.99800 0.00200
vt 0.50200 0.00200
vt 0.50200 0.49800
vt 0.99800 0.49800
vt 0.99800 0.00200
vt 0.50200 0.00200
vt 0.50200 0.49800
vt 0.99800 0.49800
vt 0.99800 0.00200
vt 0.50200 0.00200
vt 0.50200 0.49800
vt 0.99800 0.49800
vt 0.99800 0.00200
vt 0.50200 0.00200
vt 0.00200 0.99800
vt 0.49800 0.99800
vt 0.49800 0.50200
vt 0.00200 0.50200
vt 0.00200 0.99800
vt 0.49800 0.99800
vt 0.49800 0.50200
vt 0.00200 0.50200
vt 0.00200 0.99800
vt 0.49800 0.99800
vt 0.49800 0.50200
vt 0.00200 0.50200
vt 0.00200 0.99800
vt 0.49800 0.99800
vt 0.49800 0.50200
vt 0.00200 0.50200
vt 0.50200 0.99800
vt 0.99800 0.99800
vt 0.99800 0.50200
vt 0.50200 0.50200
vt 0.50200 0.99800
vt 0.99800 0.99800
vt 0.99800 0.50200
vt 0.50200 0.50200
vt 0.50200 0.99800
vt 0.99800 0.99800
vt 0.99800 0.50200
vt 0.50200 0.50200
vt 0.50200 0.99800
vt 0.99800 0.99800
vt 0.99800 0.50200
vt 0.50200 0.50200
vn 0.9290 0.2905 0.2294
vn -0.9290 -0.2905 -0.2294
vn 0.2905 -0.9290 0.2294
vn -0.2905 0.9290 -0.2294
vn -0.8047 -0.5639 0.1854
vn 0.8047 0.5639 -0.1854
vn -0.5639 0.8047 0.1854
vn 0.5639 -0.8047 -0.1854
vn -0.8986 0.3671 0.2402
vn 0.8986 -0.3671 -0.2402
vn 0.3671 0.8986 0.2402
vn -0.3671 -0.8986 -0.2402
vn 0.8987 0.4099 -0.1559
vn -0.8987 -0.4099 0.1559
vn 0.4099 -0.8987 -0.1559
vn -0.4099 0.8987 0.1559
vn -0.2500 0.9505 0.1847
vn 0.2500 -0.9505 -0.1847
vn 0.9505 0.2500 0.1847
vn -0.9505 -0.2500 -0.1847
vn 0.7991 0.5613 0.2154
vn -0.7991 -0.5613 -0.2154
vn 0.5613 -0.7991 0.2154
vn -0.5613 0.7991 -0.2154
vn 0.1224 0.9659 0.2280
vn -0.1224 -0.9659 -0.2280
vn 0.9659 -0.1224 0.2280
vn -0.9659 0.1224 -0.2280
vn -0.9721 -0.2344 -0.0027
vn 0.9721 0.2344 0.0027
vn -0.2344 0.9721 -0.0027
vn 0.2344 -0.9721 0.0027
vn -0.9837 0.0715 -0.1648
vn 0.9837 -0.0715 0.1648
vn 0.0715 0.9837 -0.1648
vn -0.0715 -0.9837 0.1648
vn -0.8261 0.5221 0.2119
vn 0.8261 -0.5221 -0.2119
vn 0.5221 0.8261 0.2119
vn -0.5221 -0.8261 -0.2119
vn -0.3749 -0.9270 -0.0142
vn 0.3749 0.9270 0.0142
vn -0.9270 0.3749 -0.0142
vn 0.9270 -0.3749 0.0142
vn 0.4523 0.8903 0.0528
vn -0.4523 -0.8903 -0.0528
vn 0.8903 -0.4523 0.0528
vn -0.8903 0.4523 -0.0528
vn -0.8994 -0.4371 -0.0104
vn 0.8994 0.4371 0.0104
vn -0.4371 0.8994 -0.0104
vn 0.4371 -0.8994 0.0104
vn 0.5339 -0.8345 0.1362
vn -0.5339 0.8345 -0.1362
vn -0.8345 -0.5339 0.1362
vn 0.8345 0.5339 -0.1362
vn -0.7876 -0.6074 -0.1039
vn 0.7876 0.6074 0.1039
vn -0.6074 0.7876 -0.1039
vn 0.6074 -0.7876 0.1039
vn -0.2227 -0.9742 -0.0365
vn 0.2227 0.9742 0.0365
vn -0.9742 0.2227 -0.0365
vn 0.9742 -0.2227 0.0365
vn 0.9651 -0.2123 -0.1535
vn -0.9651 0.2123 0.1535
vn -0.2123 -0.9651 -0.1535
vn 0.2123 0.9651 0.1535
vn -0.9476 0.2325 -0.2193
vn 0.9476 -0.2325 0.2193
vn 0.2325 0.9476 -0.2193
vn -0.2325 -0.9476 0.2193
vn 0.6544 -0.7454 0.1268
vn -0.6544 0.7454 -0.1268
vn -0.7454 -0.6544 0.1268
vn 0.7454 0.6544 -0.1268
vn -0.2415 0.9657 -0.0950
vn 0.2415 -0.9657 0.0950
vn 0.9657 0.2415 -0.0950
vn -0.9657 -0.2415 0.0950
vn -0.8570 -0.5049 -0.1034
vn 0.8570 0.5049 0.1034
vn -0.5049 0.8570 -0.1034
vn 0.5049 -0.8570 0.1034
vn 0.9760 0.1894 0.1075
vn -0.9760 -0.1894 -0.1075
vn 0.1894 -0.9760 0.1075
vn -0.1894 0.9760 -0.1075
vn 0.3703 0.9278 0.0463
vn -0.3703 -0.9278 -0.0463
vn 0.9278 -0.3703 0.0463
vn -0.9278 0.3703 -0.0463
vn -0.4624 -0.8806 0.1035
vn 0.4624 0.8806 -0.1035
vn -0.8806 0.4624 0.1035
vn 0.8806 -0.4624 -0.1035
vn 0.7334 0.6765 0.0672
vn -0.7334 -0.6765 -0.0672
vn 0.6765 -0.7334 0.0672
vn -0.6765 0.7334 -0.0672
vn 0.5077 -0.8274 0.2402
vn -0.5077 0.8274 -0.2402
vn -0.8274 -0.5077 0.2402
vn 0.8274 0.5077 -0.2402
vn 0.1781 -0.9633 0.2007
vn -0.1781 0.9633 -0.2007
vn -0.9633 -0.1781 0.2007
vn 0.9633 0.1781 -0.2007
vn 0.7464 -0.6291 -0.2170
vn -0.7464 0.6291 0.2170
vn -0.6291 -0.7464 -0.2170
vn 0.6291 0.7464 0.2170
vn 0.7859 -0.5902 0.1845
vn -0.7859 0.5902 -0.1845
vn -0.5902 -0.7859 0.1845
vn 0.5902 0.7859 -0.1845
vn 0.9545 -0.2781 -0.1073
vn -0.9545 0.2781 0.1073
vn -0.2781 -0.9545 -0.1073
vn 0.2781 0.9545 0.1073
vn 0.5388 -0.8199 0.1936
vn -0.5388 0.8199 -0.1936
vn -0.8199 -0.5388 0.1936
vn 0.8199 0.5388 -0.1936
vn 0.7804 0.6141 -0.1179
vn -0.7804 -0.6141 0.1179
vn 0.6141 -0.7804 -0.1179
vn -0.6141 0.7804 0.1179
vn -0.4320 -0.8901 -0.1449
vn 0.4320 0.8901 0.1449
vn -0.8901 0.4320 -0.1449
vn 0.8901 -0.4320 0.1449
vn -0.5718 -0.8204 0.0026
vn 0.5718 0.8204 -0.0026
vn -0.8204 0.5718 0.0026
vn 0.8204 -0.5718 -0.0026
vn 0.6123 -0.7605 -0.2163
vn -0.6123 0.7605 0.2163
vn -0.7605 -0.6123 -0.2163
vn 0.7605 0.6123 0.2163
vn 0.2626 -0.9447 0.1966
vn -0.2626 0.9447 -0.1966
vn -0.9447 -0.2626 0.1966
vn 0.9447 0.2626 -0.1966
vn 0.7601 -0.6196 0.1960
vn -0.7601 0.6196 -0.1960
vn -0.6196 -0.7601 0.1960
vn 0.6196 0.7601 -0.1960
vn 0.9603 0.2196 -0.1723
vn -0.9603 -0.2196 0.1723
vn 0.2196 -0.9603 -0.1723
vn -0.2196 0.9603 0.1723
vn -0.4573 0.8640 0.2105
vn 0.4573 -0.8640 -0.2105
vn 0.8640 0.4573 0.2105
vn -0.8640 -0.4573 -0.2105
vn 0.9354 -0.2600 0.2398
vn -0.9354 0.2600 -0.2398
vn -0.2600 -0.9354 0.2398
vn 0.2600 0.9354 -0.2398
vn 0.9603 -0.1960 -0.1984
vn -0.9603 0.1960 0.1984
vn -0.1960 -0.9603 -0.1984
vn 0.1960 0.9603 0.1984
vn 0.1400 -0.9825 0.1228
vn -0.1400 0.9825 -0.1228
vn -0.9825 -0.1400 0.1228
vn 0.9825 0.1400 -0.1228
vn -0.9639 -0.1931 -0.1831
vn 0.9639 0.1931 0.1831
vn -0.1931 0.9639 -0.1831
vn 0.1931 -0.9639 0.1831
vn 0.6271 0.7776 0.0456
vn -0.6271 -0.7776 -0.0456
vn 0.7776 -0.6271 0.0456
vn -0.7776 0.6271 -0.0456
vn 0.6080 -0.7876 -0.0999
vn -0.6080 0.7876 0.0999
vn -0.7876 -0.6080 -0.0999
vn 0.7876 0.6080 0.0999
vn -0.1163 0.9928 -0.0274
vn 0.1163 -0.9928 0.0274
vn 0.9928 0.1163 -0.0274
vn -0.9928 -0.1163 0.0274
vn 0.8248 0.5654 -0.0002
vn -0.8248 -0.5654 0.0002
vn 0.5654 -0.8248 -0.0002
vn -0.5654 0.8248 0.0002
vn -0.7857 0.6177 -0.0342
vn 0.7857 -0.6177 0.0342
vn 0.6177 0.7857 -0.0342
vn -0.6177 -0.7857 0.0342
f 1/1/1 3/3/1 2/2/1
f 1/1/1 4/4/1 3/3/1
f 5/5/2 7/7/2 8/8/2
f 5/5/2 6/6/2 7/7/2
f 9/9/3 11/11/3 10/10/3
f 9/9/3 12/12/3 11/11/3
f 13/13/4 15/15/4 16/16/4
f 13/13/4 14/14/4 15/15/4
f 17/17/5 19/19/5 18/18/5
f 17/17/5 20/20/5 19/19/5
f 21/21/6 23/23/6 24/24/6
f 21/21/6 22/22/6 23/23/6
f 25/25/7 27/27/7 26/26/7
f 25/25/7 28/28/7 27/27/7
f 29/29/8 31/31/8 32/32/8
f 29/29/8 30/30/8 31/31/8
f 33/33/9 35/35/9 34/34/9
f 33/33/9 36/36/9 35/35/9
f 37/37/10 39/39/10 40/40/10
f 37/37/10 38/38/10 39/39/10
f 41/41/11 43/43/11 42/42/11
f 41/41/11 44/44/11 43/43/11
f 45/45/12 47/47/12 48/48/12
f 45/45/12 46/46/12 47/47/12
f 49/49/13 51/51/13 50/50/13
f 49/49/13 52/52/13 51/51/13
f 53/53/14 55/55/14 56/56/14
f 53/53/14 54/54/14 55/55/14
f 57/57/15 59/59/15 58/58/15
f 57/57/15 60/60/15 59/59/15
f 61/61/16 63/63/16 64/64/16
f 61/61/16 62/62/16 63/63/16
f 65/65/17 67/67/17 66/66/17
f 65/65/17 68/68/17 67/67/17
f 69/69/18 71/71/18 72/72/18
f 69/69/18 70/70/18 71/71/18
f 73/73/19 75/75/19 74/74/19
f 73/73/19 76/76/19 75/75/19
f 77/77/20 79/79/20 80/80/20
f 77/77/20 78/78/20 79/79/20
f 81/81/21 83/83/21 82/82/21
f 81/81/21 84/84/21 83/83/21
f 85/85/22 87/87/22 88/88/22
f 85/85/22 86/86/22 87/87/22
f 89/89/23 91/91/23 90/90/23
f 89/89/23 92/92/23 91/91/23
f 93/93/24 95/95/24 96/96/24
f 93/93/24 94/94/24 95/95/24
f 97/97/25 99/99/25 98/98/25
f 97/97/25 100/100/25 99/99/25
f 101/101/26 103/103/26 104/104/26
f 101/101/26 102/102/26 103/103/26
f 105/105/27 107/107/27 106/106/27
f 105/105/27 108/108/27 107/107/27
f 109/109/28 111/111/28 112/112/28
f 109/109/28 110/110/28 111/111/28
f 113/113/29 115/115/29 114/114/29
f 113/113/29 116/116/29 115/115/29
f 117/117/30 119/119/30 120/120/30
f 117/117/30 118/118/30 119/119/30
f 121/121/31 123/123/31 122/122/31
f 121/121/31 124/124/31 123/123/31
f 125/125/32 127/127/32 128/128/32
f 125/125/32 126/126/32 127/127/32
f 129/129/33 131/131/33 130/130/33
f 129/129/33 132/132/33 131/131/33
f 133/133/34 135/135/34 136/136/34
f 133/133/34 134/134/34 135/135/34
f 137/137/35 139/139/35 138/138/35
f 137/137/35 140/140/35 139/139/35
f 141/141/36 143/143/36 144/144/36
f 141/141/36 142/142/36 143/143/36
f 145/145/37 147/147/37 146/146/37
f 145/145/37 148/148/37 147/147/37
f 149/149/38 151/151/38 152/152/38
f 149/149/38 150/150/38 151/151/38
f 153/153/39 155/155/39 154/154/39
f 153/153/39 156/156/39 155/155/39
f 157/157/40 159/159/40 160/160/40
f 157/157/40 158/158/40 159/159/40
f 161/161/41 163/163/41 162/162/41
f 161/161/41 164/164/41 163/163/41
f 165/165/42 167/167/42 168/168/42
f 165/165/42 166/166/42 167/167/42
f 169/169/43 171/171/43 170/170/43
f 169/169/43 172/172/43 171/171/43
f 173/173/44 175/175/44 176/176/44
f 173/173/44 174/174/44 175/175/44
f 177/177/45 179/179/45 178/178/45
f 177/177/45 180/180/45 179/179/45
f 181/181/46 183/183/46 184/184/46
f 181/181/46 182/182/46 183/183/46
f 185/185/47 187/187/47 186/186/47
f 185/185/47 188/188/47 187/187/47
f 189/189/48 191/191/48 192/192/48
f 189/189/48 190/190/48 191/191/48
f 193/193/49 195/195/49 194/194/49
f 193/193/49 196/196/49 195/195/49
f 197/197/50 199/199/50 200/200/50
f 197/197/50 198/198/50 199/199/50
f 201/201/51 203/203/51 202/202/51
f 201/201/51 204/204/51 203/203/51
f 205/205/52 207/207/52 208/208/52
f 205/205/52 206/206/52 207/207/52
f 209/209/53 211/211/53 210/210/53
f 209/209/53 212/212/53 211/211/53
f 213/213/54 215/215/54 216/216/54
f 213/213/54 214/214/54 215/215/54
f 217/217/55 219/219/55 218/218/55
f 217/217/55 220/220/55 219/219/55
f 221/221/56 223/223/56 224/224/56
f 221/221/56 222/222/56 223/223/56
f 225/225/57 227/227/57 226/226/57
f 225/225/57 228/228/57 227/227/57
f 229/229/58 231/231/58 232/232/58
f 229/229/58 230/230/58 231/231/58
f 233/233/59 235/235/59 234/234/59
f 233/233/59 236/236/59 235/235/59
f 237/237/60 239/239/60 240/240/60
f 237/237/60 238/238/60 239/239/60
f 241/241/61 243/243/61 242/242/61
f 241/241/61 244/244/61 243/243/61
f 245/245/62 247/247/62 248/248/62
f 245/245/62 246/246/62 247/247/62
f 249/249/63 251/251/63 250/250/63
f 249/249/63 252/252/63 251/251/63
f 253/253/64 255/255/64 256/256/64
f 253/253/64 254/254/64 255/255/64
f 257/257/65 259/259/65 258/258/65
f 257/257/65 260/260/65 259/259/65
f 261/261/66 263/263/66 264/264/66
f 261/261/66 262/262/66 263/263/66
f 265/265/67 267/267/67 266/266/67
f 265/265/67 268/268/67 267/267/67
f 269/269/68 271/271/68 272/272/68
f 269/269/68 270/270/68 271/271/68
f 273/273/69 275/275/69 274/274/69
f 273/273/69 276/276/69 275/275/69
f 277/277/70 279/279/70 280/280/70
f 277/277/70 278/278/70 279/279/70
f 281/281/71 283/283/71 282/282/71
f 281/281/71 284/284/71 283/283/71
f 285/285/72 287/287/72 288/288/72
f 285/285/72 286/286/72 287/287/72
f 289/289/73 291/291/73 290/290/73
f 289/289/73 292/292/73 291/291/73
f 293/293/74 295/295/74 296/296/74
f 293/293/74 294/294/74 295/295/74
f 297/297/75 299/299/75 298/298/75
f 297/297/75 300/300/75 299/299/75
f 301/301/76 303/303/76 304/304/76
f 301/301/76 302/302/76 303/303/76
f 305/305/77 307/307/77 306/306/77
f 305/305/77 308/308/77 307/307/77
f 309/309/78 311/311/78 312/312/78
f 309/309/78 310/310/78 311/311/78
f 313/313/79 315/315/79 314/314/79
f 313/313/79 316/316/79 315/315/79
f 317/317/80 319/319/80 320/320/80
f 317/317/80 318/318/80 319/319/80
f 321/321/81 323/323/81 322/322/81
f 321/321/81 324/324/81 323/323/81
f 325/325/82 327/327/82 328/328/82
f 325/325/82 326/326/82 327/327/82
f 329/329/83 331/331/83 330/330/83
f 329/329/83 332/332/83 331/331/83
f 333/333/84 335/335/84 336/336/84
f 333/333/84 334/334/84 335/335/84
f 337/337/85 339/339/85 338/338/85
f 337/337/85 340/340/85 339/339/85
f 341/341/86 343/343/86 344/344/86
f 341/341/86 342/342/86 343/343/86
f 345/345/87 347/347/87 346/346/87
f 345/345/87 348/348/87 347/347/87
f 349/349/88 351/351/88 352/352/88
f 349/349/88 350/350/88 351/351/88
f 353/353/89 355/355/89 354/354/89
f 353/353/89 356/356/89 355/355/89
f 357/357/90 359/359/90 360/360/90
f 357/357/90 358/358/90 359/359/90
f 361/361/91 363/363/91 362/362/91
f 361/361/91 364/364/91 363/363/91
f 365/365/92 367/367/92 368/368/92
f 365/365/92 366/366/92 367/367/92
f 369/369/93 371/371/93 370/370/93
f 369/369/93 372/372/93 371/371/93
f 373/373/94 375/375/94 376/376/94
f 373/373/94 374/374/94 375/375/94
f 377/377/95 379/379/95 378/378/95
f 377/377/95 380/380/95 379/379/95
f 381/381/96 383/383/96 384/384/96
f 381/381/96 382/382/96 383/383/96
f 385/385/97 387/387/97 386/386/97
f 385/385/97 388/388/97 387/387/97
f 389/389/98 391/391/98 392/392/98
f 389/389/98 390/390/98 391/391/98
f 393/393/99 395/395/99 394/394/99
f 393/393/99 396/396/99 395/395/99
f 397/397/100 399/399/100 400/400/100
f 397/397/100 398/398/100 399/399/100
f 401/401/101 403/403/101 402/402/101
f 401/401/101 404/404/101 403/403/101
f 405/405/102 407/407/102 408/408/102
f 405/405/102 406/406/102 407/407/102
f 409/409/103 411/411/103 410/410/103
f 409/409/103 412/412/103 411/411/103
f 413/413/104 415/415/104 416/416/104
f 413/413/104 414/414/104 415/415/104
f 417/417/105 419/419/105 418/418/105
f 417/417/105 420/420/105 419/419/105
f 421/421/106 423/423/106 424/424/106
f 421/421/106 422/422/106 423/423/106
f 425/425/107 427/427/107 426/426/107
f 425/425/107 428/428/107 427/427/107
f 429/429/108 431/431/108 432/432/108
f 429/429/108 430/430/108 431/431/108
f 433/433/109 435/435/109 434/434/109
f 433/433/109 436/436/109 435/435/109
f 437/437/110 439/439/110 440/440/110
f 437/437/110 438/438/110 439/439/110
f 441/441/111 443/443/111 442/442/111
f 441/441/111 444/444/111 443/443/111
f 445/445/112 447/447/112 448/448/112
f 445/445/112 446/446/112 447/447/112
f 449/449/113 451/451/113 450/450/113
f 449/449/113 452/452/113 451/451/113
f 453/453/114 455/455/114 456/456/114
f 453/453/114 454/454/114 455/455/114
f 457/457/115 459/459/115 458/458/115
f 457/457/115 460/460/115 459/459/115
f 461/461/116 463/463/116 464/464/116
f 461/461/116 462/462/116 463/463/116
f 465/465/117 467/467/117 466/466/117
f 465/465/117 468/468/117 467/467/117
f 469/469/118 471/471/118 472/472/118
f 469/469/118 470/470/118 471/471/118
f 473/473/119 475/475/119 474/474/119
f 473/473/119 476/476/119 475/475/119
f 477/477/120 479/479/120 480/480/120
f 477/477/120 478/478/120 479/479/120
f 481/481/121 483/483/121 482/482/121
f 481/481/121 484/484/121 483/483/121
f 485/485/122 487/487/122 488/488/122
f 485/485/122 486/486/122 487/487/122
f 489/489/123 491/491/123 490/490/123
f 489/489/123 492/492/123 491/491/123
f 493/493/124 495/495/124 496/496/124
f 493/493/124 494/494/124 495/495/124
f 497/497/125 499/499/125 498/498/125
f 497/497/125 500/500/125 499/499/125
f 501/501/126 503/503/126 504/504/126
f 501/501/126 502/502/126 503/503/126
f 505/505/127 507/507/127 506/506/127
f 505/505/127 508/508/127 507/507/127
f 509/509/128 511/511/128 512/512/128
f 509/509/128 510/510/128 511/511/128
f 513/513/129 515/515/129 514/514/129
f 513/513/129 516/516/129 515/515/129
f 517/517/130 519/519/130 520/520/130
f 517/517/130 518/518/130 519/519/130
f 521/521/131 523/523/131 522/522/131
f 521/521/131 524/524/131 523/523/131
f 525/525/132 527/527/132 528/528/132
f 525/525/132 526/526/132 527/527/132
f 529/529/133 531/531/133 530/530/133
f 529/529/133 532/532/133 531/531/133
f 533/533/134 535/535/134 536/536/134
f 533/533/134 534/534/134 535/535/134
f 537/537/135 539/539/135 538/538/135
f 537/537/135 540/540/135 539/539/135
f 541/541/136 543/543/136 544/544/136
f 541/541/136 542/542/136 543/543/136
f 545/545/137 547/547/137 546/546/137
f 545/545/137 548/548/137 547/547/137
f 549/549/138 551/551/138 552/552/138
f 549/549/138 550/550/138 551/551/138
f 553/553/139 555/555/139 554/554/139
f 553/553/139 556/556/139 555/555/139
f 557/557/140 559/559/140 560/560/140
f 557/557/140 558/558/140 559/559/140
f 561/561/141 563/563/141 562/562/141
f 561/561/141 564/564/141 563/563/141
f 565/565/142 567/567/142 568/568/142
f 565/565/142 566/566/142 567/567/142
f 569/569/143 571/571/143 570/570/143
f 569/569/143 572/572/143 571/571/143
f 573/573/144 575/575/144 576/576/144
f 573/573/144 574/574/144 575/575/144
f 577/577/145 579/579/145 578/578/145
f 577/577/145 580/580/145 579/579/145
f 581/581/146 583/583/146 584/584/146
f 581/581/146 582/582/146 583/583/146
f 585/585/147 587/587/147 586/586/147
f 585/585/147 588/588/147 587/587/147
f 589/589/148 591/591/148 592/592/148
f 589/589/148 590/590/148 591/591/148
f 593/593/149 595/595/149 594/594/149
f 593/593/149 596/596/149 595/595/149
f 597/597/150 599/599/150 600/600/150
f 597/597/150 598/598/150 599/599/150
f 601/601/151 603/603/151 602/602/151
f 601/601/151 604/604/151 603/603/151
f 605/605/152 607/607/152 608/608/152
f 605/605/152 606/606/152 607/607/152
f 609/609/153 611/611/153 610/610/153
f 609/609/153 612/612/153 611/611/153
f 613/613/154 615/615/154 616/616/154
f 613/613/154 614/614/154 615/615/154
f 617/617/155 619/619/155 618/618/155
f 617/617/155 620/620/155 619/619/155
f 621/621/156 623/623/156 624/624/156
f 621/621/156 622/622/156 623/623/156
f 625/625/157 627/627/157 626/626/157
f 625/625/157 628/628/157 627/627/157
f 629/629/158 631/631/158 632/632/158
f 629/629/158 630/630/158 631/631/158
f 633/633/159 635/635/159 634/634/159
f 633/633/159 636/636/159 635/635/159
f 637/637/160 639/639/160 640/640/160
f 637/637/160 638/638/160 639/639/160
f 641/641/161 643/643/161 642/642/161
f 641/641/161 644/644/161 643/643/161
f 645/645/162 647/647/162 648/648/162
f 645/645/162 646/646/162 647/647/162
f 649/649/163 651/651/163 650/650/163
f 649/649/163 652/652/163 651/651/163
f 653/653/164 655/655/164 656/656/164
f 653/653/164 654/654/164 655/655/164
f 657/657/165 659/659/165 658/658/165
f 657/657/165 660/660/165 659/659/165
f 661/661/166 663/663/166 664/664/166
f 661/661/166 662/662/166 663/663/166
f 665/665/167 667/667/167 666/666/167
f 665/665/167 668/668/167 667/667/167
f 669/669/168 671/671/168 672/672/168
f 669/669/168 670/670/168 671/671/168
f 673/673/169 675/675/169 674/674/169
f 673/673/169 676/676/169 675/675/169
f 677/677/170 679/679/170 680/680/170
f 677/677/170 678/678/170 679/679/170
f 681/681/171 683/683/171 682/682/171
f 681/681/171 684/684/171 683/683/171
f 685/685/172 687/687/172 688/688/172
f 685/685/172 686/686/172 687/687/172
f 689/689/173 691/691/173 690/690/173
f 689/689/173 692/692/173 691/691/173
f 693/693/174 695/695/174 696/696/174
f 693/693/174 694/694/174 695/695/174
f 697/697/175 699/699/175 698/698/175
f 697/697/175 700/700/175 699/699/175
f 701/701/176 703/703/176 704/704/176
f 701/701/176 702/702/176 703/703/176
f 705/705/177 707/707/177 706/706/177
f 705/705/177 708/708/177 707/707/177
f 709/709/178 711/711/178 712/712/178
f 709/709/178 710/710/178 711/711/178
f 713/713/179 715/715/179 714/714/179
f 713/713/179 716/716/179 715/715/179
f 717/717/180 719/719/180 720/720/180
f 717/717/180 718/718/180 719/719/180
f 721/721/181 723/723/181 722/722/181
f 721/721/181 724/724/181 723/723/181
f 725/725/182 727/727/182 728/728/182
f 725/725/182 726/726/182 727/727/182
f 729/729/183 731/731/183 730/730/183
f 729/729/183 732/732/183 731/731/183
f 733/733/184 735/735/184 736/736/184
f 733/733/184 734/734/184 735/735/184
f 737/737/185 739/739/185 738/738/185
f 737/737/185 740/740/185 739/739/185
f 741/741/186 743/743/186 744/744/186
f 741/741/186 742/742/186 743/743/186
f 745/745/187 747/747/187 746/746/187
f 745/745/187 748/748/187 747/747/187
f 749/749/188 751/751/188 752/752/188
f 749/749/188 750/750/188 751/751/188
f 753/753/189 755/755/189 754/754/189
f 753/753/189 756/756/189 755/755/189
f 757/757/190 759/759/190 760/760/190
f 757/757/190 758/758/190 759/759/190
f 761/761/191 763/763/191 762/762/191
f 761/761/191 764/764/191 763/763/191
f 765/765/192 767/767/192 768/768/192
f 765/765/192 766/766/192 767/767/192
