# JudeanFloraV1; canonical UE cm (X east, +Y south, Z up), written with Y reflected and triangle winding reversed for the legacy OBJ importer adapter. One o object, no g groups, so the importer creates exactly one material slot.
# almond (Amygdalus communis (Prunus dulcis)), gnarled old variant, LOD1 leaf
# short leaning fluted bole with a twisted trunk; the habit of an old Judean olive, stylised, not a survey of any tree
o SM_JudeanFloraV1_Almond_Gnarled_L1_Leaf
s off
v 62.22088 102.78435 352.60645
v -44.91477 -105.24918 352.60645
v -33.56639 -111.08208 551.09675
v 73.56926 96.95145 551.09675
v 62.22088 102.78435 352.60645
v -44.91477 -105.24918 352.60645
v -33.56639 -111.08208 551.09675
v 73.56926 96.95145 551.09675
v 121.26046 -52.04250 352.60645
v -86.77307 55.09315 352.60645
v -92.60597 43.74477 551.09675
v 115.42756 -63.39088 551.09675
v 121.26046 -52.04250 352.60645
v -86.77307 55.09315 352.60645
v -92.60597 43.74477 551.09675
v 115.42756 -63.39088 551.09675
v -186.59136 6.29165 177.70894
v 38.69531 -56.96905 177.70894
v 43.48806 -39.84853 375.81277
v -181.79861 23.41217 375.81277
v -186.59136 6.29165 177.70894
v 38.69531 -56.96905 177.70894
v 43.48806 -39.84853 375.81277
v -181.79861 23.41217 375.81277
v -48.48156 98.26127 177.70894
v -111.74226 -127.02540 177.70894
v -94.62174 -131.81815 375.81277
v -31.36104 93.46852 375.81277
v -48.48156 98.26127 177.70894
v -111.74226 -127.02540 177.70894
v -94.62174 -131.81815 375.81277
v -31.36104 93.46852 375.81277
v -11.55004 -106.91614 339.73078
v -91.69769 112.93007 339.73078
v -118.34606 103.19103 536.59679
v -38.19841 -116.65518 536.59679
v -11.55004 -106.91614 339.73078
v -91.69769 112.93007 339.73078
v -118.34606 103.19103 536.59679
v -38.19841 -116.65518 536.59679
v -170.00163 -55.26056 339.73078
v 49.84458 24.88709 339.73078
v 40.10554 51.53546 536.59679
v -179.74067 -28.61219 536.59679
v -170.00163 -55.26056 339.73078
v 49.84458 24.88709 339.73078
v 40.10554 51.53546 536.59679
v -179.74067 -28.61219 536.59679
v 237.84096 -19.75273 428.78398
v 139.94510 -232.29074 428.78398
v 135.22096 -230.11934 627.61602
v 233.11682 -17.58133 627.61602
v 237.84096 -19.75273 428.78398
v 139.94510 -232.29074 428.78398
v 135.22096 -230.11934 627.61602
v 233.11682 -17.58133 627.61602
v 291.71426 -176.24603 428.78398
v 79.17626 -78.35018 428.78398
v 81.34766 -73.62604 627.61602
v 293.88566 -171.52189 627.61602
v 291.71426 -176.24603 428.78398
v 79.17626 -78.35018 428.78398
v 81.34766 -73.62604 627.61602
v 293.88566 -171.52189 627.61602
v 112.40582 173.17119 182.16998
v 240.66075 -22.54972 182.16998
v 221.18369 -35.33513 379.70070
v 92.92876 160.38578 379.70070
v 112.40582 173.17119 182.16998
v 240.66075 -22.54972 182.16998
v 221.18369 -35.33513 379.70070
v 92.92876 160.38578 379.70070
v 271.04791 123.30696 182.16998
v 75.32700 -4.94796 182.16998
v 62.54160 14.52910 379.70070
v 258.26251 142.78402 379.70070
v 271.04791 123.30696 182.16998
v 75.32700 -4.94796 182.16998
v 62.54160 14.52910 379.70070
v 258.26251 142.78402 379.70070
v 185.62215 -56.91170 296.54371
v -40.45403 3.46679 296.54371
v -38.57305 10.53234 495.30927
v 187.50313 -49.84614 495.30927
v 185.62215 -56.91170 296.54371
v -40.45403 3.46679 296.54371
v -38.57305 10.53234 495.30927
v 187.50313 -49.84614 495.30927
v 39.80253 -135.28728 296.54371
v 100.18101 90.78890 296.54371
v 107.24657 88.90792 495.30927
v 46.86808 -137.16826 495.30927
v 39.80253 -135.28728 296.54371
v 100.18101 90.78890 296.54371
v 107.24657 88.90792 495.30927
v 46.86808 -137.16826 495.30927
v 158.54474 46.98988 372.53082
v -56.99219 -44.11352 372.53082
v -47.21947 -67.18308 569.84656
v 168.31747 23.92033 569.84656
v 158.54474 46.98988 372.53082
v -56.99219 -44.11352 372.53082
v -47.21947 -67.18308 569.84656
v 168.31747 23.92033 569.84656
v 112.74912 -112.97870 372.53082
v 21.64571 102.55823 372.53082
v -1.42384 92.78551 569.84656
v 89.67956 -122.75143 569.84656
v 112.74912 -112.97870 372.53082
v 21.64571 102.55823 372.53082
v -1.42384 92.78551 569.84656
v 89.67956 -122.75143 569.84656
v 324.88041 -78.45629 267.68465
v 125.87391 -201.55144 267.68465
v 135.30696 -216.77463 465.77676
v 334.31346 -93.67948 465.77676
v 324.88041 -78.45629 267.68465
v 125.87391 -201.55144 267.68465
v 135.30696 -216.77463 465.77676
v 334.31346 -93.67948 465.77676
v 299.25286 -242.40218 267.68465
v 176.15771 -43.39569 267.68465
v 160.93451 -52.82874 465.77676
v 284.02966 -251.83523 465.77676
v 299.25286 -242.40218 267.68465
v 176.15771 -43.39569 267.68465
v 160.93451 -52.82874 465.77676
v 284.02966 -251.83523 465.77676
v -0.39601 91.25637 334.17622
v -233.56538 71.55758 334.17622
v -233.01351 65.08664 532.97016
v 0.15587 84.78543 532.97016
v -0.39601 91.25637 334.17622
v -233.56538 71.55758 334.17622
v -233.01351 65.08664 532.97016
v 0.15587 84.78543 532.97016
v -103.61989 -38.13725 334.17622
v -123.31868 195.03213 334.17622
v -129.78962 194.48026 532.97016
v -110.09083 -38.68912 532.97016
v -103.61989 -38.13725 334.17622
v -123.31868 195.03213 334.17622
v -129.78962 194.48026 532.97016
v -110.09083 -38.68912 532.97016
v 413.67139 -89.29114 229.43847
v 193.82974 -9.13099 229.43847
v 193.08665 -11.17400 428.32659
v 412.92830 -91.33414 428.32659
v 413.67139 -89.29114 229.43847
v 193.82974 -9.13099 229.43847
v 193.08665 -11.17400 428.32659
v 412.92830 -91.33414 428.32659
v 264.32045 -160.52494 229.43847
v 344.48060 59.31671 229.43847
v 342.43759 60.05980 428.32659
v 262.27745 -159.78185 428.32659
v 264.32045 -160.52494 229.43847
v 344.48060 59.31671 229.43847
v 342.43759 60.05980 428.32659
v 262.27745 -159.78185 428.32659
v -102.26256 -331.66385 411.14677
v 92.92074 -202.59224 411.14677
v 105.21340 -221.14918 608.79733
v -89.96990 -350.22079 608.79733
v -102.26256 -331.66385 411.14677
v 92.92074 -202.59224 411.14677
v 105.21340 -221.14918 608.79733
v -89.96990 -350.22079 608.79733
v -53.78192 -172.66854 411.14677
v 75.28970 -367.85183 411.14677
v 56.73276 -380.14449 608.79733
v -72.33886 -184.96120 608.79733
v -53.78192 -172.66854 411.14677
v 75.28970 -367.85183 411.14677
v 56.73276 -380.14449 608.79733
v -72.33886 -184.96120 608.79733
v 35.60684 -136.73402 75.68693
v 136.54841 74.37448 75.68693
v 124.77010 79.99476 274.15832
v 23.82853 -131.11374 274.15832
v 35.60684 -136.73402 75.68693
v 136.54841 74.37448 75.68693
v 124.77010 79.99476 274.15832
v 23.82853 -131.11374 274.15832
v -28.17592 16.21200 75.68693
v 182.93258 -84.72957 75.68693
v 188.55286 -72.95126 274.15832
v -22.55564 27.99031 274.15832
v -28.17592 16.21200 75.68693
v 182.93258 -84.72957 75.68693
v 188.55286 -72.95126 274.15832
v -22.55564 27.99031 274.15832
v 310.82582 10.57538 196.04930
v 360.26508 -218.14226 196.04930
v 359.19826 -218.37375 394.94630
v 309.75901 10.34389 394.94630
v 310.82582 10.57538 196.04930
v 360.26508 -218.14226 196.04930
v 359.19826 -218.37375 394.94630
v 309.75901 10.34389 394.94630
v 449.48661 -79.71296 196.04930
v 220.76897 -129.15222 196.04930
v 220.53748 -128.08540 394.94630
v 449.25512 -78.64615 394.94630
v 449.48661 -79.71296 196.04930
v 220.76897 -129.15222 196.04930
v 220.53748 -128.08540 394.94630
v 449.25512 -78.64615 394.94630
v -194.38852 -17.82019 429.85131
v 35.04753 28.16997 429.85131
v 29.22293 57.10820 626.54869
v -200.21313 11.11803 626.54869
v -194.38852 -17.82019 429.85131
v 35.04753 28.16997 429.85131
v 29.22293 57.10820 626.54869
v -200.21313 11.11803 626.54869
v -120.04699 131.44973 429.85131
v -74.05683 -97.98633 429.85131
v -45.11860 -92.16173 626.54869
v -91.10877 137.27433 626.54869
v -120.04699 131.44973 429.85131
v -74.05683 -97.98633 429.85131
v -45.11860 -92.16173 626.54869
v -91.10877 137.27433 626.54869
v -120.48823 -34.22552 396.88236
v 110.52199 3.06094 396.88236
v 108.18480 17.46816 595.24612
v -122.82542 -19.81830 595.24612
v -120.48823 -34.22552 396.88236
v 110.52199 3.06094 396.88236
v 108.18480 17.46816 595.24612
v -122.82542 -19.81830 595.24612
v -31.99855 105.95784 396.88236
v 5.28791 -125.05238 396.88236
v 19.69512 -122.71519 595.24612
v -17.59134 108.29502 595.24612
v -31.99855 105.95784 396.88236
v 5.28791 -125.05238 396.88236
v 19.69512 -122.71519 595.24612
v -17.59134 108.29502 595.24612
v 285.96905 6.16538 72.60117
v 120.51291 171.63521 72.60117
v 127.10167 178.23393 271.28246
v 292.55781 12.76410 271.28246
v 285.96905 6.16538 72.60117
v 120.51291 171.63521 72.60117
v 127.10167 178.23393 271.28246
v 292.55781 12.76410 271.28246
v 120.50108 12.76597 72.60117
v 285.97092 178.22211 72.60117
v 292.56964 171.63334 271.28246
v 127.09981 6.17720 271.28246
v 120.50108 12.76597 72.60117
v 285.97092 178.22211 72.60117
v 292.56964 171.63334 271.28246
v 127.09981 6.17720 271.28246
v 284.96978 -60.64931 229.20896
v 50.97803 -62.61515 229.20896
v 50.81159 -44.51930 427.28400
v 284.80334 -42.55346 427.28400
v 284.96978 -60.64931 229.20896
v 50.97803 -62.61515 229.20896
v 50.81159 -44.51930 427.28400
v 284.80334 -42.55346 427.28400
v 159.82568 -169.66340 229.20896
v 157.85984 64.32834 229.20896
v 175.95569 64.49478 427.28400
v 177.92153 -169.49696 427.28400
v 159.82568 -169.66340 229.20896
v 157.85984 64.32834 229.20896
v 175.95569 64.49478 427.28400
v 177.92153 -169.49696 427.28400
v -130.47301 -13.08185 231.96410
v 102.87222 4.41102 231.96410
v 102.66237 7.18076 430.84470
v -130.68287 -10.31210 430.84470
v -130.47301 -13.08185 231.96410
v 102.87222 4.41102 231.96410
v 102.66237 7.18076 430.84470
v -130.68287 -10.31210 430.84470
v -24.03663 113.61715 231.96410
v -6.54377 -119.72809 231.96410
v -3.77402 -119.51823 430.84470
v -21.26688 113.82700 430.84470
v -24.03663 113.61715 231.96410
v -6.54377 -119.72809 231.96410
v -3.77402 -119.51823 430.84470
v -21.26688 113.82700 430.84470
v 174.44734 -168.35208 193.26192
v -46.70320 -91.87699 193.26192
v -42.69243 -80.24869 391.78120
v 178.45811 -156.72377 391.78120
v 174.44734 -168.35208 193.26192
v -46.70320 -91.87699 193.26192
v -42.69243 -80.24869 391.78120
v 178.45811 -156.72377 391.78120
v 21.82576 -232.87027 193.26192
v 98.30084 -11.71973 193.26192
v 109.92915 -15.73050 391.78120
v 33.45407 -236.88104 391.78120
v 21.82576 -232.87027 193.26192
v 98.30084 -11.71973 193.26192
v 109.92915 -15.73050 391.78120
v 33.45407 -236.88104 391.78120
v -13.78264 187.19664 429.07384
v 90.42703 -22.31790 429.07384
v 76.07261 -29.47186 627.32616
v -28.13706 180.04268 627.32616
v -13.78264 187.19664 429.07384
v 90.42703 -22.31790 429.07384
v 76.07261 -29.47186 627.32616
v -28.13706 180.04268 627.32616
v 139.47924 123.79001 429.07384
v -70.03531 19.58034 429.07384
v -77.18927 33.93477 627.32616
v 132.32528 138.14444 627.32616
v 139.47924 123.79001 429.07384
v -70.03531 19.58034 429.07384
v -77.18927 33.93477 627.32616
v 132.32528 138.14444 627.32616
v 321.50774 49.92314 359.74578
v 260.76096 275.90063 359.74578
v 232.41260 268.25588 556.46675
v 293.15938 42.27838 556.46675
v 321.50774 49.92314 359.74578
v 260.76096 275.90063 359.74578
v 232.41260 268.25588 556.46675
v 293.15938 42.27838 556.46675
v 167.79380 114.54193 359.74578
v 393.77130 175.28872 359.74578
v 386.12654 203.63708 556.46675
v 160.14904 142.89030 556.46675
v 167.79380 114.54193 359.74578
v 393.77130 175.28872 359.74578
v 386.12654 203.63708 556.46675
v 160.14904 142.89030 556.46675
v 398.43560 42.18686 334.92741
v 206.08349 -91.06728 334.92741
v 192.76741 -71.87820 532.45126
v 385.11952 61.37594 532.45126
v 398.43560 42.18686 334.92741
v 206.08349 -91.06728 334.92741
v 192.76741 -71.87820 532.45126
v 385.11952 61.37594 532.45126
v 352.63403 -117.67977 334.92741
v 219.37989 74.67234 334.92741
v 238.56897 87.98843 532.45126
v 371.82311 -104.36368 532.45126
v 352.63403 -117.67977 334.92741
v 219.37989 74.67234 334.92741
v 238.56897 87.98843 532.45126
v 371.82311 -104.36368 532.45126
v 107.51331 -262.65559 216.53354
v -117.65117 -198.96137 216.53354
v -116.21652 -193.87428 415.36330
v 108.94797 -257.56850 415.36330
v 107.51331 -262.65559 216.53354
v -117.65117 -198.96137 216.53354
v -116.21652 -193.87428 415.36330
v 108.94797 -257.56850 415.36330
v -38.74226 -340.12985 216.53354
v 24.95196 -114.96537 216.53354
v 30.03905 -116.40002 415.36330
v -33.65517 -341.56451 415.36330
v -38.74226 -340.12985 216.53354
v 24.95196 -114.96537 216.53354
v 30.03905 -116.40002 415.36330
v -33.65517 -341.56451 415.36330
v -180.24958 192.84279 87.94676
v 53.49773 203.71443 87.94676
v 53.60119 201.52765 286.83471
v -180.14613 190.65601 286.83471
v -180.24958 192.84279 87.94676
v 53.49773 203.71443 87.94676
v 53.60119 201.52765 286.83471
v -180.14613 190.65601 286.83471
v -67.66663 314.11061 87.94676
v -56.79499 80.36329 87.94676
v -58.98176 80.25984 286.83471
v -69.85341 314.00715 286.83471
v -67.66663 314.11061 87.94676
v -56.79499 80.36329 87.94676
v -58.98176 80.25984 286.83471
v -69.85341 314.00715 286.83471
v 295.80796 166.03805 197.27408
v 414.54954 -35.59637 197.27408
v 416.76673 -34.28829 396.15742
v 298.02515 167.34612 396.15742
v 295.80796 166.03805 197.27408
v 414.54954 -35.59637 197.27408
v 416.76673 -34.28829 396.15742
v 298.02515 167.34612 396.15742
v 456.45052 126.35426 197.27408
v 254.81610 7.61268 197.27408
v 256.12417 5.39549 396.15742
v 457.75859 124.13707 396.15742
v 456.45052 126.35426 197.27408
v 254.81610 7.61268 197.27408
v 256.12417 5.39549 396.15742
v 457.75859 124.13707 396.15742
v -20.43375 -41.90444 428.80402
v -229.82385 -146.36394 428.80402
v -226.89289 -152.22737 627.59598
v -17.50279 -47.76787 627.59598
v -20.43375 -41.90444 428.80402
v -229.82385 -146.36394 428.80402
v -226.89289 -152.22737 627.59598
v -17.50279 -47.76787 627.59598
v -68.50185 -200.29548 428.80402
v -172.96135 9.09462 428.80402
v -178.82479 6.16366 627.59598
v -74.36529 -203.22643 627.59598
v -68.50185 -200.29548 428.80402
v -172.96135 9.09462 428.80402
v -178.82479 6.16366 627.59598
v -74.36529 -203.22643 627.59598
v 90.68963 250.34411 106.08164
v -123.95617 157.16053 106.08164
v -125.33686 160.33400 304.95153
v 89.30894 253.51758 304.95153
v 90.68963 250.34411 106.08164
v -123.95617 157.16053 106.08164
v -125.33686 160.33400 304.95153
v 89.30894 253.51758 304.95153
v 27.68144 97.32581 106.08164
v -65.50214 311.97161 106.08164
v -62.32867 313.35231 304.95153
v 30.85491 98.70650 304.95153
v 27.68144 97.32581 106.08164
v -65.50214 311.97161 106.08164
v -62.32867 313.35231 304.95153
v 30.85491 98.70650 304.95153
v 234.65471 -87.14906 110.14832
v 369.07938 -278.68498 110.14832
v 351.50477 -291.04018 307.88474
v 217.08010 -99.50426 307.88474
v 234.65471 -87.14906 110.14832
v 369.07938 -278.68498 110.14832
v 351.50477 -291.04018 307.88474
v 217.08010 -99.50426 307.88474
v 395.02530 -130.66959 110.14832
v 203.48938 -265.09426 110.14832
v 191.13418 -247.51965 307.88474
v 382.67010 -113.09498 307.88474
v 395.02530 -130.66959 110.14832
v 203.48938 -265.09426 110.14832
v 191.13418 -247.51965 307.88474
v 382.67010 -113.09498 307.88474
v -70.48575 -323.12453 185.21160
v -72.90465 -89.13704 185.21160
v -82.85201 -89.24779 383.86267
v -80.43311 -323.23529 383.86267
v -70.48575 -323.12453 185.21160
v -72.90465 -89.13704 185.21160
v -82.85201 -89.24779 383.86267
v -80.43311 -323.23529 383.86267
v -193.60725 -212.36929 185.21160
v 40.38025 -209.95040 185.21160
v 40.26949 -200.00304 383.86267
v -193.71801 -202.42193 383.86267
v -193.60725 -212.36929 185.21160
v 40.38025 -209.95040 185.21160
v 40.26949 -200.00304 383.86267
v -193.71801 -202.42193 383.86267
v 174.48026 -149.84213 388.36377
v 32.56149 36.20911 388.36377
v 36.06802 38.88829 587.21481
v 177.98679 -147.16295 587.21481
v 174.48026 -149.84213 388.36377
v 32.56149 36.20911 388.36377
v 36.06802 38.88829 587.21481
v 177.98679 -147.16295 587.21481
v 10.90893 -124.68304 388.36377
v 196.96017 17.23573 388.36377
v 199.63935 13.72920 587.21481
v 13.58811 -128.18957 587.21481
v 10.90893 -124.68304 388.36377
v 196.96017 17.23573 388.36377
v 199.63935 13.72920 587.21481
v 13.58811 -128.18957 587.21481
v 156.36977 -174.18744 218.96308
v 16.67470 13.53919 218.96308
v -3.37686 -1.40683 416.28454
v 136.31821 -189.13346 416.28454
v 156.36977 -174.18744 218.96308
v 16.67470 13.53919 218.96308
v -3.37686 -1.40683 416.28454
v 136.31821 -189.13346 416.28454
v -9.89385 -167.67045 218.96308
v 177.83278 -27.97538 218.96308
v 162.88676 -7.92382 416.28454
v -24.83987 -147.61889 416.28454
v -9.89385 -167.67045 218.96308
v 177.83278 -27.97538 218.96308
v 162.88676 -7.92382 416.28454
v -24.83987 -147.61889 416.28454
v 61.05469 11.98633 429.86939
v -67.02909 207.81929 429.86939
v -42.13733 224.12797 626.53061
v 85.94645 28.29501 626.53061
v 61.05469 11.98633 429.86939
v -67.02909 207.81929 429.86939
v -42.13733 224.12797 626.53061
v 85.94645 28.29501 626.53061
v -96.61214 66.46114 429.86939
v 99.22082 194.54492 429.86939
v 115.52950 169.65316 626.53061
v -80.30346 41.56938 626.53061
v -96.61214 66.46114 429.86939
v 99.22082 194.54492 429.86939
v 115.52950 169.65316 626.53061
v -80.30346 41.56938 626.53061
vt 0.00200 0.49800
vt 0.49800 0.49800
vt 0.49800 0.00200
vt 0.00200 0.00200
vt 0.00200 0.49800
vt 0.49800 0.49800
vt 0.49800 0.00200
vt 0.00200 0.00200
vt 0.00200 0.49800
vt 0.49800 0.49800
vt 0.49800 0.00200
vt 0.00200 0.00200
vt 0.00200 0.49800
vt 0.49800 0.49800
vt 0.49800 0.00200
vt 0.00200 0.00200
vt 0.50200 0.49800
vt 0.99800 0.49800
vt 0.99800 0.00200
vt 0.50200 0.00200
vt 0.50200 0.49800
vt 0.99800 0.49800
vt 0.99800 0.00200
vt 0.50200 0.00200
vt 0.50200 0.49800
vt 0.99800 0.49800
vt 0.99800 0.00200
vt 0.50200 0.00200
vt 0.50200 0.49800
vt 0.99800 0.49800
vt 0.99800 0.00200
vt 0.50200 0.00200
vt 0.00200 0.99800
vt 0.49800 0.99800
vt 0.49800 0.50200
vt 0.00200 0.50200
vt 0.00200 0.99800
vt 0.49800 0.99800
vt 0.49800 0.50200
vt 0.00200 0.50200
vt 0.00200 0.99800
vt 0.49800 0.99800
vt 0.49800 0.50200
vt 0.00200 0.50200
vt 0.00200 0.99800
vt 0.49800 0.99800
vt 0.49800 0.50200
vt 0.00200 0.50200
vt 0.50200 0.99800
vt 0.99800 0.99800
vt 0.99800 0.50200
vt 0.50200 0.50200
vt 0.50200 0.99800
vt 0.99800 0.99800
vt 0.99800 0.50200
vt 0.50200 0.50200
vt 0.50200 0.99800
vt 0.99800 0.99800
vt 0.99800 0.50200
vt 0.50200 0.50200
vt 0.50200 0.99800
vt 0.99800 0.99800
vt 0.99800 0.50200
vt 0.50200 0.50200
vt 0.00200 0.49800
vt 0.49800 0.49800
vt 0.49800 0.00200
vt 0.00200 0.00200
vt 0.00200 0.49800
vt 0.49800 0.49800
vt 0.49800 0.00200
vt 0.00200 0.00200
vt 0.00200 0.49800
vt 0.49800 0.49800
vt 0.49800 0.00200
vt 0.00200 0.00200
vt 0.00200 0.49800
vt 0.49800 0.49800
vt 0.49800 0.00200
vt 0.00200 0.00200
vt 0.50200 0.49800
vt 0.99800 0.49800
vt 0.99800 0.00200
vt 0.50200 0.00200
vt 0.50200 0.49800
vt 0.99800 0.49800
vt 0.99800 0.00200
vt 0.50200 0.00200
vt 0.50200 0.49800
vt 0.99800 0.49800
vt 0.99800 0.00200
vt 0.50200 0.00200
vt 0.50200 0.49800
vt 0.99800 0.49800
vt 0.99800 0.00200
vt 0.50200 0.00200
vt 0.00200 0.99800
vt 0.49800 0.99800
vt 0.49800 0.50200
vt 0.00200 0.50200
vt 0.00200 0.99800
vt 0.49800 0.99800
vt 0.49800 0.50200
vt 0.00200 0.50200
vt 0.00200 0.99800
vt 0.49800 0.99800
vt 0.49800 0.50200
vt 0.00200 0.50200
vt 0.00200 0.99800
vt 0.49800 0.99800
vt 0.49800 0.50200
vt 0.00200 0.50200
vt 0.50200 0.99800
vt 0.99800 0.99800
vt 0.99800 0.50200
vt 0.50200 0.50200
vt 0.50200 0.99800
vt 0.99800 0.99800
vt 0.99800 0.50200
vt 0.50200 0.50200
vt 0.50200 0.99800
vt 0.99800 0.99800
vt 0.99800 0.50200
vt 0.50200 0.50200
vt 0.50200 0.99800
vt 0.99800 0.99800
vt 0.99800 0.50200
vt 0.50200 0.50200
vt 0.00200 0.49800
vt 0.49800 0.49800
vt 0.49800 0.00200
vt 0.00200 0.00200
vt 0.00200 0.49800
vt 0.49800 0.49800
vt 0.49800 0.00200
vt 0.00200 0.00200
vt 0.00200 0.49800
vt 0.49800 0.49800
vt 0.49800 0.00200
vt 0.00200 0.00200
vt 0.00200 0.49800
vt 0.49800 0.49800
vt 0.49800 0.00200
vt 0.00200 0.00200
vt 0.50200 0.49800
vt 0.99800 0.49800
vt 0.99800 0.00200
vt 0.50200 0.00200
vt 0.50200 0.49800
vt 0.99800 0.49800
vt 0.99800 0.00200
vt 0.50200 0.00200
vt 0.50200 0.49800
vt 0.99800 0.49800
vt 0.99800 0.00200
vt 0.50200 0.00200
vt 0.50200 0.49800
vt 0.99800 0.49800
vt 0.99800 0.00200
vt 0.50200 0.00200
vt 0.00200 0.99800
vt 0.49800 0.99800
vt 0.49800 0.50200
vt 0.00200 0.50200
vt 0.00200 0.99800
vt 0.49800 0.99800
vt 0.49800 0.50200
vt 0.00200 0.50200
vt 0.00200 0.99800
vt 0.49800 0.99800
vt 0.49800 0.50200
vt 0.00200 0.50200
vt 0.00200 0.99800
vt 0.49800 0.99800
vt 0.49800 0.50200
vt 0.00200 0.50200
vt 0.50200 0.99800
vt 0.99800 0.99800
vt 0.99800 0.50200
vt 0.50200 0.50200
vt 0.50200 0.99800
vt 0.99800 0.99800
vt 0.99800 0.50200
vt 0.50200 0.50200
vt 0.50200 0.99800
vt 0.99800 0.99800
vt 0.99800 0.50200
vt 0.50200 0.50200
vt 0.50200 0.99800
vt 0.99800 0.99800
vt 0.99800 0.50200
vt 0.50200 0.50200
vt 0.00200 0.49800
vt 0.49800 0.49800
vt 0.49800 0.00200
vt 0.00200 0.00200
vt 0.00200 0.49800
vt 0.49800 0.49800
vt 0.49800 0.00200
vt 0.00200 0.00200
vt 0.00200 0.49800
vt 0.49800 0.49800
vt 0.49800 0.00200
vt 0.00200 0.00200
vt 0.00200 0.49800
vt 0.49800 0.49800
vt 0.49800 0.00200
vt 0.00200 0.00200
vt 0.50200 0.49800
vt 0.99800 0.49800
vt 0.99800 0.00200
vt 0.50200 0.00200
vt 0.50200 0.49800
vt 0.99800 0.49800
vt 0.99800 0.00200
vt 0.50200 0.00200
vt 0.50200 0.49800
vt 0.99800 0.49800
vt 0.99800 0.00200
vt 0.50200 0.00200
vt 0.50200 0.49800
vt 0.99800 0.49800
vt 0.99800 0.00200
vt 0.50200 0.00200
vt 0.00200 0.99800
vt 0.49800 0.99800
vt 0.49800 0.50200
vt 0.00200 0.50200
vt 0.00200 0.99800
vt 0.49800 0.99800
vt 0.49800 0.50200
vt 0.00200 0.50200
vt 0.00200 0.99800
vt 0.49800 0.99800
vt 0.49800 0.50200
vt 0.00200 0.50200
vt 0.00200 0.99800
vt 0.49800 0.99800
vt 0.49800 0.50200
vt 0.00200 0.50200
vt 0.50200 0.99800
vt 0.99800 0.99800
vt 0.99800 0.50200
vt 0.50200 0.50200
vt 0.50200 0.99800
vt 0.99800 0.99800
vt 0.99800 0.50200
vt 0.50200 0.50200
vt 0.50200 0.99800
vt 0.99800 0.99800
vt 0.99800 0.50200
vt 0.50200 0.50200
vt 0.50200 0.99800
vt 0.99800 0.99800
vt 0.99800 0.50200
vt 0.50200 0.50200
vt 0.00200 0.49800
vt 0.49800 0.49800
vt 0.49800 0.00200
vt 0.00200 0.00200
vt 0.00200 0.49800
vt 0.49800 0.49800
vt 0.49800 0.00200
vt 0.00200 0.00200
vt 0.00200 0.49800
vt 0.49800 0.49800
vt 0.49800 0.00200
vt 0.00200 0.00200
vt 0.00200 0.49800
vt 0.49800 0.49800
vt 0.49800 0.00200
vt 0.00200 0.00200
vt 0.50200 0.49800
vt 0.99800 0.49800
vt 0.99800 0.00200
vt 0.50200 0.00200
vt 0.50200 0.49800
vt 0.99800 0.49800
vt 0.99800 0.00200
vt 0.50200 0.00200
vt 0.50200 0.49800
vt 0.99800 0.49800
vt 0.99800 0.00200
vt 0.50200 0.00200
vt 0.50200 0.49800
vt 0.99800 0.49800
vt 0.99800 0.00200
vt 0.50200 0.00200
vt 0.00200 0.99800
vt 0.49800 0.99800
vt 0.49800 0.50200
vt 0.00200 0.50200
vt 0.00200 0.99800
vt 0.49800 0.99800
vt 0.49800 0.50200
vt 0.00200 0.50200
vt 0.00200 0.99800
vt 0.49800 0.99800
vt 0.49800 0.50200
vt 0.00200 0.50200
vt 0.00200 0.99800
vt 0.49800 0.99800
vt 0.49800 0.50200
vt 0.00200 0.50200
vt 0.50200 0.99800
vt 0.99800 0.99800
vt 0.99800 0.50200
vt 0.50200 0.50200
vt 0.50200 0.99800
vt 0.99800 0.99800
vt 0.99800 0.50200
vt 0.50200 0.50200
vt 0.50200 0.99800
vt 0.99800 0.99800
vt 0.99800 0.50200
vt 0.50200 0.50200
vt 0.50200 0.99800
vt 0.99800 0.99800
vt 0.99800 0.50200
vt 0.50200 0.50200
vt 0.00200 0.49800
vt 0.49800 0.49800
vt 0.49800 0.00200
vt 0.00200 0.00200
vt 0.00200 0.49800
vt 0.49800 0.49800
vt 0.49800 0.00200
vt 0.00200 0.00200
vt 0.00200 0.49800
vt 0.49800 0.49800
vt 0.49800 0.00200
vt 0.00200 0.00200
vt 0.00200 0.49800
vt 0.49800 0.49800
vt 0.49800 0.00200
vt 0.00200 0.00200
vt 0.50200 0.49800
vt 0.99800 0.49800
vt 0.99800 0.00200
vt 0.50200 0.00200
vt 0.50200 0.49800
vt 0.99800 0.49800
vt 0.99800 0.00200
vt 0.50200 0.00200
vt 0.50200 0.49800
vt 0.99800 0.49800
vt 0.99800 0.00200
vt 0.50200 0.00200
vt 0.50200 0.49800
vt 0.99800 0.49800
vt 0.99800 0.00200
vt 0.50200 0.00200
vt 0.00200 0.99800
vt 0.49800 0.99800
vt 0.49800 0.50200
vt 0.00200 0.50200
vt 0.00200 0.99800
vt 0.49800 0.99800
vt 0.49800 0.50200
vt 0.00200 0.50200
vt 0.00200 0.99800
vt 0.49800 0.99800
vt 0.49800 0.50200
vt 0.00200 0.50200
vt 0.00200 0.99800
vt 0.49800 0.99800
vt 0.49800 0.50200
vt 0.00200 0.50200
vt 0.50200 0.99800
vt 0.99800 0.99800
vt 0.99800 0.50200
vt 0.50200 0.50200
vt 0.50200 0.99800
vt 0.99800 0.99800
vt 0.99800 0.50200
vt 0.50200 0.50200
vt 0.50200 0.99800
vt 0.99800 0.99800
vt 0.99800 0.50200
vt 0.50200 0.50200
vt 0.50200 0.99800
vt 0.99800 0.99800
vt 0.99800 0.50200
vt 0.50200 0.50200
vt 0.00200 0.49800
vt 0.49800 0.49800
vt 0.49800 0.00200
vt 0.00200 0.00200
vt 0.00200 0.49800
vt 0.49800 0.49800
vt 0.49800 0.00200
vt 0.00200 0.00200
vt 0.00200 0.49800
vt 0.49800 0.49800
vt 0.49800 0.00200
vt 0.00200 0.00200
vt 0.00200 0.49800
vt 0.49800 0.49800
vt 0.49800 0.00200
vt 0.00200 0.00200
vt 0.50200 0.49800
vt 0.99800 0.49800
vt 0.99800 0.00200
vt 0.50200 0.00200
vt 0.50200 0.49800
vt 0.99800 0.49800
vt 0.99800 0.00200
vt 0.50200 0.00200
vt 0.50200 0.49800
vt 0.99800 0.49800
vt 0.99800 0.00200
vt 0.50200 0.00200
vt 0.50200 0.49800
vt 0.99800 0.49800
vt 0.99800 0.00200
vt 0.50200 0.00200
vt 0.00200 0.99800
vt 0.49800 0.99800
vt 0.49800 0.50200
vt 0.00200 0.50200
vt 0.00200 0.99800
vt 0.49800 0.99800
vt 0.49800 0.50200
vt 0.00200 0.50200
vt 0.00200 0.99800
vt 0.49800 0.99800
vt 0.49800 0.50200
vt 0.00200 0.50200
vt 0.00200 0.99800
vt 0.49800 0.99800
vt 0.49800 0.50200
vt 0.00200 0.50200
vt 0.50200 0.99800
vt 0.99800 0.99800
vt 0.99800 0.50200
vt 0.50200 0.50200
vt 0.50200 0.99800
vt 0.99800 0.99800
vt 0.99800 0.50200
vt 0.50200 0.50200
vt 0.50200 0.99800
vt 0.99800 0.99800
vt 0.99800 0.50200
vt 0.50200 0.50200
vt 0.50200 0.99800
vt 0.99800 0.99800
vt 0.99800 0.50200
vt 0.50200 0.50200
vt 0.00200 0.49800
vt 0.49800 0.49800
vt 0.49800 0.00200
vt 0.00200 0.00200
vt 0.00200 0.49800
vt 0.49800 0.49800
vt 0.49800 0.00200
vt 0.00200 0.00200
vt 0.00200 0.49800
vt 0.49800 0.49800
vt 0.49800 0.00200
vt 0.00200 0.00200
vt 0.00200 0.49800
vt 0.49800 0.49800
vt 0.49800 0.00200
vt 0.00200 0.00200
vt 0.50200 0.49800
vt 0.99800 0.49800
vt 0.99800 0.00200
vt 0.50200 0.00200
vt 0.50200 0.49800
vt 0.99800 0.49800
vt 0.99800 0.00200
vt 0.50200 0.00200
vt 0.50200 0.49800
vt 0.99800 0.49800
vt 0.99800 0.00200
vt 0.50200 0.00200
vt 0.50200 0.49800
vt 0.99800 0.49800
vt 0.99800 0.00200
vt 0.50200 0.00200
vt 0.00200 0.99800
vt 0.49800 0.99800
vt 0.49800 0.50200
vt 0.00200 0.50200
vt 0.00200 0.99800
vt 0.49800 0.99800
vt 0.49800 0.50200
vt 0.00200 0.50200
vt 0.00200 0.99800
vt 0.49800 0.99800
vt 0.49800 0.50200
vt 0.00200 0.50200
vt 0.00200 0.99800
vt 0.49800 0.99800
vt 0.49800 0.50200
vt 0.00200 0.50200
vt 0.50200 0.99800
vt 0.99800 0.99800
vt 0.99800 0.50200
vt 0.50200 0.50200
vt 0.50200 0.99800
vt 0.99800 0.99800
vt 0.99800 0.50200
vt 0.50200 0.50200
vt 0.50200 0.99800
vt 0.99800 0.99800
vt 0.99800 0.50200
vt 0.50200 0.50200
vt 0.50200 0.99800
vt 0.99800 0.99800
vt 0.99800 0.50200
vt 0.50200 0.50200
vn 0.8872 -0.4569 -0.0642
vn -0.8872 0.4569 0.0642
vn -0.4569 -0.8872 -0.0642
vn 0.4569 0.8872 0.0642
vn 0.2693 0.9589 -0.0894
vn -0.2693 -0.9589 0.0894
vn 0.9589 -0.2693 -0.0894
vn -0.9589 0.2693 0.0894
vn -0.9299 -0.3390 -0.1426
vn 0.9299 0.3390 0.1426
vn -0.3390 0.9299 -0.1426
vn 0.3390 -0.9299 0.1426
vn 0.9080 -0.4182 0.0261
vn -0.9080 0.4182 -0.0261
vn -0.4182 -0.9080 0.0261
vn 0.4182 0.9080 -0.0261
vn 0.8307 0.5443 0.1171
vn -0.8307 -0.5443 -0.1171
vn 0.5443 -0.8307 0.1171
vn -0.5443 0.8307 -0.1171
vn -0.2579 -0.9655 0.0368
vn 0.2579 0.9655 -0.0368
vn -0.9655 0.2579 0.0368
vn 0.9655 -0.2579 -0.0368
vn 0.3862 -0.9138 -0.1260
vn -0.3862 0.9138 0.1260
vn -0.9138 -0.3862 -0.1260
vn 0.9138 0.3862 0.1260
vn 0.5239 -0.8470 -0.0900
vn -0.5239 0.8470 0.0900
vn -0.8470 -0.5239 -0.0900
vn 0.8470 0.5239 0.0900
vn 0.0841 -0.9959 -0.0327
vn -0.0841 0.9959 0.0327
vn -0.9959 -0.0841 -0.0327
vn 0.9959 0.0841 0.0327
vn -0.3425 -0.9394 -0.0109
vn 0.3425 0.9394 0.0109
vn -0.9394 0.3425 -0.0109
vn 0.9394 -0.3425 0.0109
vn -0.5481 0.8289 0.1119
vn 0.5481 -0.8289 -0.1119
vn 0.8289 0.5481 0.1119
vn -0.8289 -0.5481 -0.1119
vn -0.9002 0.4304 -0.0656
vn 0.9002 -0.4304 0.0656
vn 0.4304 0.9002 -0.0656
vn -0.4304 -0.9002 0.0656
vn 0.9774 0.2113 0.0055
vn -0.9774 -0.2113 -0.0055
vn 0.2113 -0.9774 0.0055
vn -0.2113 0.9774 -0.0055
vn -0.1944 0.9696 -0.1484
vn 0.1944 -0.9696 0.1484
vn 0.9696 0.1944 -0.1484
vn -0.9696 -0.1944 0.1484
vn -0.1589 0.9846 -0.0734
vn 0.1589 -0.9846 0.0734
vn 0.9846 0.1589 -0.0734
vn -0.9846 -0.1589 0.0734
vn -0.7064 -0.7063 0.0469
vn 0.7064 0.7063 -0.0469
vn -0.7063 0.7064 0.0469
vn 0.7063 -0.7064 -0.0469
vn 0.0084 -0.9958 0.0910
vn -0.0084 0.9958 -0.0910
vn -0.9958 -0.0084 0.0910
vn 0.9958 0.0084 -0.0910
vn -0.0747 0.9971 -0.0140
vn 0.0747 -0.9971 0.0140
vn 0.9971 0.0747 -0.0140
vn -0.9971 -0.0747 0.0140
vn -0.3262 -0.9433 0.0618
vn 0.3262 0.9433 -0.0618
vn -0.9433 0.3262 0.0618
vn 0.9433 -0.3262 -0.0618
vn 0.8924 0.4439 0.0806
vn -0.8924 -0.4439 -0.0806
vn 0.4439 -0.8924 0.0806
vn -0.4439 0.8924 -0.0806
vn -0.9551 -0.2568 -0.1476
vn 0.9551 0.2568 0.1476
vn -0.2568 0.9551 -0.1476
vn 0.2568 -0.9551 0.1476
vn 0.5655 -0.8163 0.1174
vn -0.5655 0.8163 -0.1174
vn -0.8163 -0.5655 0.1174
vn 0.8163 0.5655 -0.1174
vn -0.2721 -0.9619 0.0266
vn 0.2721 0.9619 -0.0266
vn -0.9619 0.2721 0.0266
vn 0.9619 -0.2721 -0.0266
vn -0.0465 0.9989 0.0110
vn 0.0465 -0.9989 -0.0110
vn 0.9989 0.0465 0.0110
vn -0.9989 -0.0465 -0.0110
vn 0.8616 0.5074 -0.0129
vn -0.8616 -0.5074 0.0129
vn 0.5074 -0.8616 -0.0129
vn -0.5074 0.8616 0.0129
vn 0.4462 -0.8943 -0.0330
vn -0.4462 0.8943 0.0330
vn -0.8943 -0.4462 -0.0330
vn 0.8943 0.4462 0.0330
vn 0.3982 -0.9172 0.0174
vn -0.3982 0.9172 -0.0174
vn -0.9172 -0.3982 0.0174
vn 0.9172 0.3982 -0.0174
vn 0.8137 0.5711 0.1080
vn -0.8137 -0.5711 -0.1080
vn 0.5711 -0.8137 0.1080
vn -0.5711 0.8137 -0.1080
vn -0.9987 -0.0103 -0.0500
vn 0.9987 0.0103 0.0500
vn -0.0103 0.9987 -0.0500
vn 0.0103 -0.9987 0.0500
vn -0.7949 -0.6063 0.0222
vn 0.7949 0.6063 -0.0222
vn -0.6063 0.7949 0.0222
vn 0.6063 -0.7949 -0.0222
vn -0.7959 -0.5922 -0.1257
vn 0.7959 0.5922 0.1257
vn -0.5922 0.7959 -0.1257
vn 0.5922 -0.7959 0.1257
vn -0.8275 -0.5412 0.1496
vn 0.8275 0.5412 -0.1496
vn -0.5412 0.8275 0.1496
vn 0.5412 -0.8275 -0.1496
f 1/1/1 3/3/1 2/2/1
f 1/1/1 4/4/1 3/3/1
f 5/5/2 7/7/2 8/8/2
f 5/5/2 6/6/2 7/7/2
f 9/9/3 11/11/3 10/10/3
f 9/9/3 12/12/3 11/11/3
f 13/13/4 15/15/4 16/16/4
f 13/13/4 14/14/4 15/15/4
f 17/17/5 19/19/5 18/18/5
f 17/17/5 20/20/5 19/19/5
f 21/21/6 23/23/6 24/24/6
f 21/21/6 22/22/6 23/23/6
f 25/25/7 27/27/7 26/26/7
f 25/25/7 28/28/7 27/27/7
f 29/29/8 31/31/8 32/32/8
f 29/29/8 30/30/8 31/31/8
f 33/33/9 35/35/9 34/34/9
f 33/33/9 36/36/9 35/35/9
f 37/37/10 39/39/10 40/40/10
f 37/37/10 38/38/10 39/39/10
f 41/41/11 43/43/11 42/42/11
f 41/41/11 44/44/11 43/43/11
f 45/45/12 47/47/12 48/48/12
f 45/45/12 46/46/12 47/47/12
f 49/49/13 51/51/13 50/50/13
f 49/49/13 52/52/13 51/51/13
f 53/53/14 55/55/14 56/56/14
f 53/53/14 54/54/14 55/55/14
f 57/57/15 59/59/15 58/58/15
f 57/57/15 60/60/15 59/59/15
f 61/61/16 63/63/16 64/64/16
f 61/61/16 62/62/16 63/63/16
f 65/65/17 67/67/17 66/66/17
f 65/65/17 68/68/17 67/67/17
f 69/69/18 71/71/18 72/72/18
f 69/69/18 70/70/18 71/71/18
f 73/73/19 75/75/19 74/74/19
f 73/73/19 76/76/19 75/75/19
f 77/77/20 79/79/20 80/80/20
f 77/77/20 78/78/20 79/79/20
f 81/81/21 83/83/21 82/82/21
f 81/81/21 84/84/21 83/83/21
f 85/85/22 87/87/22 88/88/22
f 85/85/22 86/86/22 87/87/22
f 89/89/23 91/91/23 90/90/23
f 89/89/23 92/92/23 91/91/23
f 93/93/24 95/95/24 96/96/24
f 93/93/24 94/94/24 95/95/24
f 97/97/25 99/99/25 98/98/25
f 97/97/25 100/100/25 99/99/25
f 101/101/26 103/103/26 104/104/26
f 101/101/26 102/102/26 103/103/26
f 105/105/27 107/107/27 106/106/27
f 105/105/27 108/108/27 107/107/27
f 109/109/28 111/111/28 112/112/28
f 109/109/28 110/110/28 111/111/28
f 113/113/29 115/115/29 114/114/29
f 113/113/29 116/116/29 115/115/29
f 117/117/30 119/119/30 120/120/30
f 117/117/30 118/118/30 119/119/30
f 121/121/31 123/123/31 122/122/31
f 121/121/31 124/124/31 123/123/31
f 125/125/32 127/127/32 128/128/32
f 125/125/32 126/126/32 127/127/32
f 129/129/33 131/131/33 130/130/33
f 129/129/33 132/132/33 131/131/33
f 133/133/34 135/135/34 136/136/34
f 133/133/34 134/134/34 135/135/34
f 137/137/35 139/139/35 138/138/35
f 137/137/35 140/140/35 139/139/35
f 141/141/36 143/143/36 144/144/36
f 141/141/36 142/142/36 143/143/36
f 145/145/37 147/147/37 146/146/37
f 145/145/37 148/148/37 147/147/37
f 149/149/38 151/151/38 152/152/38
f 149/149/38 150/150/38 151/151/38
f 153/153/39 155/155/39 154/154/39
f 153/153/39 156/156/39 155/155/39
f 157/157/40 159/159/40 160/160/40
f 157/157/40 158/158/40 159/159/40
f 161/161/41 163/163/41 162/162/41
f 161/161/41 164/164/41 163/163/41
f 165/165/42 167/167/42 168/168/42
f 165/165/42 166/166/42 167/167/42
f 169/169/43 171/171/43 170/170/43
f 169/169/43 172/172/43 171/171/43
f 173/173/44 175/175/44 176/176/44
f 173/173/44 174/174/44 175/175/44
f 177/177/45 179/179/45 178/178/45
f 177/177/45 180/180/45 179/179/45
f 181/181/46 183/183/46 184/184/46
f 181/181/46 182/182/46 183/183/46
f 185/185/47 187/187/47 186/186/47
f 185/185/47 188/188/47 187/187/47
f 189/189/48 191/191/48 192/192/48
f 189/189/48 190/190/48 191/191/48
f 193/193/49 195/195/49 194/194/49
f 193/193/49 196/196/49 195/195/49
f 197/197/50 199/199/50 200/200/50
f 197/197/50 198/198/50 199/199/50
f 201/201/51 203/203/51 202/202/51
f 201/201/51 204/204/51 203/203/51
f 205/205/52 207/207/52 208/208/52
f 205/205/52 206/206/52 207/207/52
f 209/209/53 211/211/53 210/210/53
f 209/209/53 212/212/53 211/211/53
f 213/213/54 215/215/54 216/216/54
f 213/213/54 214/214/54 215/215/54
f 217/217/55 219/219/55 218/218/55
f 217/217/55 220/220/55 219/219/55
f 221/221/56 223/223/56 224/224/56
f 221/221/56 222/222/56 223/223/56
f 225/225/57 227/227/57 226/226/57
f 225/225/57 228/228/57 227/227/57
f 229/229/58 231/231/58 232/232/58
f 229/229/58 230/230/58 231/231/58
f 233/233/59 235/235/59 234/234/59
f 233/233/59 236/236/59 235/235/59
f 237/237/60 239/239/60 240/240/60
f 237/237/60 238/238/60 239/239/60
f 241/241/61 243/243/61 242/242/61
f 241/241/61 244/244/61 243/243/61
f 245/245/62 247/247/62 248/248/62
f 245/245/62 246/246/62 247/247/62
f 249/249/63 251/251/63 250/250/63
f 249/249/63 252/252/63 251/251/63
f 253/253/64 255/255/64 256/256/64
f 253/253/64 254/254/64 255/255/64
f 257/257/65 259/259/65 258/258/65
f 257/257/65 260/260/65 259/259/65
f 261/261/66 263/263/66 264/264/66
f 261/261/66 262/262/66 263/263/66
f 265/265/67 267/267/67 266/266/67
f 265/265/67 268/268/67 267/267/67
f 269/269/68 271/271/68 272/272/68
f 269/269/68 270/270/68 271/271/68
f 273/273/69 275/275/69 274/274/69
f 273/273/69 276/276/69 275/275/69
f 277/277/70 279/279/70 280/280/70
f 277/277/70 278/278/70 279/279/70
f 281/281/71 283/283/71 282/282/71
f 281/281/71 284/284/71 283/283/71
f 285/285/72 287/287/72 288/288/72
f 285/285/72 286/286/72 287/287/72
f 289/289/73 291/291/73 290/290/73
f 289/289/73 292/292/73 291/291/73
f 293/293/74 295/295/74 296/296/74
f 293/293/74 294/294/74 295/295/74
f 297/297/75 299/299/75 298/298/75
f 297/297/75 300/300/75 299/299/75
f 301/301/76 303/303/76 304/304/76
f 301/301/76 302/302/76 303/303/76
f 305/305/77 307/307/77 306/306/77
f 305/305/77 308/308/77 307/307/77
f 309/309/78 311/311/78 312/312/78
f 309/309/78 310/310/78 311/311/78
f 313/313/79 315/315/79 314/314/79
f 313/313/79 316/316/79 315/315/79
f 317/317/80 319/319/80 320/320/80
f 317/317/80 318/318/80 319/319/80
f 321/321/81 323/323/81 322/322/81
f 321/321/81 324/324/81 323/323/81
f 325/325/82 327/327/82 328/328/82
f 325/325/82 326/326/82 327/327/82
f 329/329/83 331/331/83 330/330/83
f 329/329/83 332/332/83 331/331/83
f 333/333/84 335/335/84 336/336/84
f 333/333/84 334/334/84 335/335/84
f 337/337/85 339/339/85 338/338/85
f 337/337/85 340/340/85 339/339/85
f 341/341/86 343/343/86 344/344/86
f 341/341/86 342/342/86 343/343/86
f 345/345/87 347/347/87 346/346/87
f 345/345/87 348/348/87 347/347/87
f 349/349/88 351/351/88 352/352/88
f 349/349/88 350/350/88 351/351/88
f 353/353/89 355/355/89 354/354/89
f 353/353/89 356/356/89 355/355/89
f 357/357/90 359/359/90 360/360/90
f 357/357/90 358/358/90 359/359/90
f 361/361/91 363/363/91 362/362/91
f 361/361/91 364/364/91 363/363/91
f 365/365/92 367/367/92 368/368/92
f 365/365/92 366/366/92 367/367/92
f 369/369/93 371/371/93 370/370/93
f 369/369/93 372/372/93 371/371/93
f 373/373/94 375/375/94 376/376/94
f 373/373/94 374/374/94 375/375/94
f 377/377/95 379/379/95 378/378/95
f 377/377/95 380/380/95 379/379/95
f 381/381/96 383/383/96 384/384/96
f 381/381/96 382/382/96 383/383/96
f 385/385/97 387/387/97 386/386/97
f 385/385/97 388/388/97 387/387/97
f 389/389/98 391/391/98 392/392/98
f 389/389/98 390/390/98 391/391/98
f 393/393/99 395/395/99 394/394/99
f 393/393/99 396/396/99 395/395/99
f 397/397/100 399/399/100 400/400/100
f 397/397/100 398/398/100 399/399/100
f 401/401/101 403/403/101 402/402/101
f 401/401/101 404/404/101 403/403/101
f 405/405/102 407/407/102 408/408/102
f 405/405/102 406/406/102 407/407/102
f 409/409/103 411/411/103 410/410/103
f 409/409/103 412/412/103 411/411/103
f 413/413/104 415/415/104 416/416/104
f 413/413/104 414/414/104 415/415/104
f 417/417/105 419/419/105 418/418/105
f 417/417/105 420/420/105 419/419/105
f 421/421/106 423/423/106 424/424/106
f 421/421/106 422/422/106 423/423/106
f 425/425/107 427/427/107 426/426/107
f 425/425/107 428/428/107 427/427/107
f 429/429/108 431/431/108 432/432/108
f 429/429/108 430/430/108 431/431/108
f 433/433/109 435/435/109 434/434/109
f 433/433/109 436/436/109 435/435/109
f 437/437/110 439/439/110 440/440/110
f 437/437/110 438/438/110 439/439/110
f 441/441/111 443/443/111 442/442/111
f 441/441/111 444/444/111 443/443/111
f 445/445/112 447/447/112 448/448/112
f 445/445/112 446/446/112 447/447/112
f 449/449/113 451/451/113 450/450/113
f 449/449/113 452/452/113 451/451/113
f 453/453/114 455/455/114 456/456/114
f 453/453/114 454/454/114 455/455/114
f 457/457/115 459/459/115 458/458/115
f 457/457/115 460/460/115 459/459/115
f 461/461/116 463/463/116 464/464/116
f 461/461/116 462/462/116 463/463/116
f 465/465/117 467/467/117 466/466/117
f 465/465/117 468/468/117 467/467/117
f 469/469/118 471/471/118 472/472/118
f 469/469/118 470/470/118 471/471/118
f 473/473/119 475/475/119 474/474/119
f 473/473/119 476/476/119 475/475/119
f 477/477/120 479/479/120 480/480/120
f 477/477/120 478/478/120 479/479/120
f 481/481/121 483/483/121 482/482/121
f 481/481/121 484/484/121 483/483/121
f 485/485/122 487/487/122 488/488/122
f 485/485/122 486/486/122 487/487/122
f 489/489/123 491/491/123 490/490/123
f 489/489/123 492/492/123 491/491/123
f 493/493/124 495/495/124 496/496/124
f 493/493/124 494/494/124 495/495/124
f 497/497/125 499/499/125 498/498/125
f 497/497/125 500/500/125 499/499/125
f 501/501/126 503/503/126 504/504/126
f 501/501/126 502/502/126 503/503/126
f 505/505/127 507/507/127 506/506/127
f 505/505/127 508/508/127 507/507/127
f 509/509/128 511/511/128 512/512/128
f 509/509/128 510/510/128 511/511/128
