# JudeanFloraV1; canonical UE cm (X east, +Y south, Z up), written with Y reflected and triangle winding reversed for the legacy OBJ importer adapter. One o object, no g groups, so the importer creates exactly one material slot.
# carob (Ceratonia siliqua), LOD2 leaf
# height range 6.0-12.0 m, crown 6.0-10.0 m; source: Zohary, M., Plants of the Bible (Cambridge University Press, 1982), species entry Ceratonia siliqua; a dense evergreen of 6-12 m with a broad crown
# part kinds and their winding checks are recorded in vegetation-manifest.json
o SM_JudeanFloraV1_Carob_L2_Leaf
s off
v -321.65650 -67.74178 424.16670
v -137.71819 -72.50605 424.16670
v -137.60375 -67.94751 608.11019
v -321.54206 -63.18325 608.11019
v -321.65650 -67.74178 424.16670
v -137.71819 -72.50605 424.16670
v -137.60375 -67.94751 608.11019
v -321.54206 -63.18325 608.11019
v -301.34620 -71.76250 675.93677
v -140.66874 -161.42161 675.93677
v -153.25009 -184.01081 858.11097
v -313.92754 -94.35169 858.11097
v -301.34620 -71.76250 675.93677
v -140.66874 -161.42161 675.93677
v -153.25009 -184.01081 858.11097
v -313.92754 -94.35169 858.11097
v 109.38773 -216.83238 624.20238
v -59.58135 -289.67090 624.20238
v -69.77103 -266.08479 806.39971
v 99.19805 -193.24627 806.39971
v 109.38773 -216.83238 624.20238
v -59.58135 -289.67090 624.20238
v -69.77103 -266.08479 806.39971
v 99.19805 -193.24627 806.39971
v 198.25569 -35.14391 559.52243
v 209.52390 -218.79855 559.52243
v 238.86588 -216.97481 741.15867
v 227.59768 -33.32017 741.15867
v 198.25569 -35.14391 559.52243
v 209.52390 -218.79855 559.52243
v 238.86588 -216.97481 741.15867
v 227.59768 -33.32017 741.15867
v 202.52901 -69.28438 323.59502
v 138.94974 103.38200 323.59502
v 134.92875 101.89775 507.54509
v 198.50801 -70.76863 507.54509
v 202.52901 -69.28438 323.59502
v 138.94974 103.38200 323.59502
v 134.92875 101.89775 507.54509
v 198.50801 -70.76863 507.54509
v 90.91121 -284.90707 582.15526
v 99.06433 -101.08780 582.15526
v 113.24672 -101.70553 765.60683
v 105.09359 -285.52480 765.60683
v 90.91121 -284.90707 582.15526
v 99.06433 -101.08780 582.15526
v 113.24672 -101.70553 765.60683
v 105.09359 -285.52480 765.60683
v 176.31798 246.47064 415.82634
v 24.89293 141.94096 415.82634
v 29.16438 135.76374 599.67301
v 180.58942 240.29342 599.67301
v 176.31798 246.47064 415.82634
v 24.89293 141.94096 415.82634
v 29.16438 135.76374 599.67301
v 180.58942 240.29342 599.67301
v -276.83130 -71.04890 382.91542
v -145.81988 58.14865 382.91542
v -131.26371 43.41161 565.74577
v -262.27513 -85.78594 565.74577
v -276.83130 -71.04890 382.91542
v -145.81988 58.14865 382.91542
v -131.26371 43.41161 565.74577
v -262.27513 -85.78594 565.74577
v -196.79114 -241.87419 573.93775
v -338.24948 -124.20712 573.93775
v -341.13538 -127.68216 757.88229
v -199.67705 -245.34923 757.88229
v -196.79114 -241.87419 573.93775
v -338.24948 -124.20712 573.93775
v -341.13538 -127.68216 757.88229
v -199.67705 -245.34923 757.88229
v 279.62332 211.39461 454.85088
v 412.86931 84.50289 454.85088
v 413.92951 85.61796 638.84444
v 280.68352 212.50967 638.84444
v 279.62332 211.39461 454.85088
v 412.86931 84.50289 454.85088
v 413.92951 85.61796 638.84444
v 280.68352 212.50967 638.84444
v 358.41364 17.30344 378.29635
v 180.13615 -28.22827 378.29635
v 186.11070 -51.54393 560.71533
v 364.38819 -6.01223 560.71533
v 358.41364 17.30344 378.29635
v 180.13615 -28.22827 378.29635
v 186.11070 -51.54393 560.71533
v 364.38819 -6.01223 560.71533
v 33.43504 -176.58147 582.67425
v 91.08545 -351.31679 582.67425
v 63.09473 -360.57649 764.29687
v 5.44432 -185.84117 764.29687
v 33.43504 -176.58147 582.67425
v 91.08545 -351.31679 582.67425
v 63.09473 -360.57649 764.29687
v 5.44432 -185.84117 764.29687
v 245.04033 178.75335 718.96907
v 136.26832 30.34631 718.96907
v 156.95397 15.21047 901.17503
v 265.72598 163.61752 901.17503
v 245.04033 178.75335 718.96907
v 136.26832 30.34631 718.96907
v 156.95397 15.21047 901.17503
v 265.72598 163.61752 901.17503
v 288.55466 2.82698 498.70131
v 396.45313 151.87033 498.70131
v 375.66918 166.89145 680.90557
v 267.77072 17.84810 680.90557
v 288.55466 2.82698 498.70131
v 396.45313 151.87033 498.70131
v 375.66918 166.89145 680.90557
v 267.77072 17.84810 680.90557
v 321.01496 -185.88781 646.81373
v 189.03368 -57.68116 646.81373
v 185.20159 -61.63237 830.73138
v 317.18286 -189.83901 830.73138
v 321.01496 -185.88781 646.81373
v 189.03368 -57.68116 646.81373
v 185.20159 -61.63237 830.73138
v 317.18286 -189.83901 830.73138
v 397.43917 60.27481 538.27664
v 270.85222 -73.26074 538.27664
v 263.36788 -66.17716 721.98785
v 389.95483 67.35839 721.98785
v 397.43917 60.27481 538.27664
v 270.85222 -73.26074 538.27664
v 263.36788 -66.17716 721.98785
v 389.95483 67.35839 721.98785
v 225.18818 205.14180 563.09329
v 295.43706 35.07977 563.09329
v 314.77458 43.08571 745.89910
v 244.52570 213.14774 745.89910
v 225.18818 205.14180 563.09329
v 295.43706 35.07977 563.09329
v 314.77458 43.08571 745.89910
v 244.52570 213.14774 745.89910
v 240.81376 130.98011 426.39732
v 399.24417 224.55257 426.39732
v 415.22196 197.54921 607.70239
v 256.79154 103.97676 607.70239
v 240.81376 130.98011 426.39732
v 399.24417 224.55257 426.39732
v 415.22196 197.54921 607.70239
v 256.79154 103.97676 607.70239
v -316.63298 101.11060 420.50721
v -137.07742 60.91358 420.50721
v -133.68658 76.11682 603.84669
v -313.24214 116.31385 603.84669
v -316.63298 101.11060 420.50721
v -137.07742 60.91358 420.50721
v -133.68658 76.11682 603.84669
v -313.24214 116.31385 603.84669
v 88.04703 193.93981 652.11557
v -94.17236 219.47594 652.11557
v -93.46203 224.57421 836.04355
v 88.75736 199.03809 836.04355
v 88.04703 193.93981 652.11557
v -94.17236 219.47594 652.11557
v -93.46203 224.57421 836.04355
v 88.75736 199.03809 836.04355
v -114.52375 -22.62962 792.68546
v 50.69073 -103.62454 792.68546
v 41.29283 -122.83318 975.43859
v -123.92165 -41.83826 975.43859
v -114.52375 -22.62962 792.68546
v 50.69073 -103.62454 792.68546
v 41.29283 -122.83318 975.43859
v -123.92165 -41.83826 975.43859
v -117.09777 -4.90962 642.24643
v -296.49658 -45.80053 642.24643
v -302.85118 -18.02339 824.02665
v -123.45237 22.86752 824.02665
v -117.09777 -4.90962 642.24643
v -296.49658 -45.80053 642.24643
v -302.85118 -18.02339 824.02665
v -123.45237 22.86752 824.02665
v -123.86864 -162.56426 688.41265
v -262.26610 -283.81665 688.41265
v -258.06849 -288.60011 872.30256
v -119.67103 -167.34772 872.30256
v -123.86864 -162.56426 688.41265
v -262.26610 -283.81665 688.41265
v -258.06849 -288.60011 872.30256
v -119.67103 -167.34772 872.30256
v -50.70366 -139.97861 272.77280
v 93.76786 -26.03135 272.77280
v 113.24430 -50.68475 454.07056
v -31.22722 -164.63201 454.07056
v -50.70366 -139.97861 272.77280
v 93.76786 -26.03135 272.77280
v 113.24430 -50.68475 454.07056
v -31.22722 -164.63201 454.07056
v 130.24037 -52.65007 594.79542
v 311.62125 -21.71507 594.79542
v 313.19717 -30.91093 778.55873
v 131.81628 -61.84593 778.55873
v 130.24037 -52.65007 594.79542
v 311.62125 -21.71507 594.79542
v 313.19717 -30.91093 778.55873
v 131.81628 -61.84593 778.55873
v -155.84631 -233.51047 522.60887
v -16.32248 -353.46505 522.60887
v -28.19964 -367.30211 705.70302
v -167.72347 -247.34753 705.70302
v -155.84631 -233.51047 522.60887
v -16.32248 -353.46505 522.60887
v -28.19964 -367.30211 705.70302
v -167.72347 -247.34753 705.70302
v -315.63654 -51.41712 706.12180
v -239.82358 116.23846 706.12180
v -260.21731 125.44085 888.75644
v -336.03028 -42.21474 888.75644
v -315.63654 -51.41712 706.12180
v -239.82358 116.23846 706.12180
v -260.21731 125.44085 888.75644
v -336.03028 -42.21474 888.75644
v -34.02654 317.91107 417.76296
v 141.60895 372.75788 417.76296
v 136.69645 388.44523 601.02718
v -38.93904 333.59842 601.02718
v -34.02654 317.91107 417.76296
v 141.60895 372.75788 417.76296
v 136.69645 388.44523 601.02718
v -38.93904 333.59842 601.02718
v -214.18191 -28.66873 724.15717
v -207.60086 -212.55101 724.15717
v -216.35324 -212.87123 907.94861
v -222.93429 -28.98896 907.94861
v -214.18191 -28.66873 724.15717
v -207.60086 -212.55101 724.15717
v -216.35324 -212.87123 907.94861
v -222.93429 -28.98896 907.94861
v -141.98368 135.74653 784.56294
v -2.27846 16.00327 784.56294
v 17.53594 39.15814 966.02159
v -122.16929 158.90140 966.02159
v -141.98368 135.74653 784.56294
v -2.27846 16.00327 784.56294
v 17.53594 39.15814 966.02159
v -122.16929 158.90140 966.02159
v -200.91726 156.69944 682.40688
v -52.96596 266.09054 682.40688
v -50.59686 262.89166 866.36381
v -198.54815 153.50056 866.36381
v -200.91726 156.69944 682.40688
v -52.96596 266.09054 682.40688
v -50.59686 262.89166 866.36381
v -198.54815 153.50056 866.36381
v 180.95804 -235.93381 740.26796
v 5.38418 -180.89001 740.26796
v 1.89025 -192.06580 923.89501
v 177.46411 -247.10960 923.89501
v 180.95804 -235.93381 740.26796
v 5.38418 -180.89001 740.26796
v 1.89025 -192.06580 923.89501
v 177.46411 -247.10960 923.89501
v 174.78072 -253.10660 365.92623
v 97.42193 -86.15865 365.92623
v 125.50824 -73.11709 547.30175
v 202.86703 -240.06504 547.30175
v 174.78072 -253.10660 365.92623
v 97.42193 -86.15865 365.92623
v 125.50824 -73.11709 547.30175
v 202.86703 -240.06504 547.30175
v 4.03002 303.51466 370.78581
v -179.76384 312.22192 370.78581
v -179.75530 312.40524 554.78572
v 4.03856 303.69798 554.78572
v 4.03002 303.51466 370.78581
v -179.76384 312.22192 370.78581
v -179.75530 312.40524 554.78572
v 4.03856 303.69798 554.78572
v -305.23750 -171.52394 408.69445
v -123.64610 -141.84966 408.69445
v -123.30777 -143.90975 592.68260
v -304.89917 -173.58403 592.68260
v -305.23750 -171.52394 408.69445
v -123.64610 -141.84966 408.69445
v -123.30777 -143.90975 592.68260
v -304.89917 -173.58403 592.68260
v 37.58310 -367.80753 678.53861
v 127.33825 -207.18370 678.53861
v 102.63377 -193.40487 860.35124
v 12.87862 -354.02869 860.35124
v 37.58310 -367.80753 678.53861
v 127.33825 -207.18370 678.53861
v 102.63377 -193.40487 860.35124
v 12.87862 -354.02869 860.35124
v -149.68476 -300.18084 480.64998
v -45.68927 -148.38842 480.64998
v -20.94423 -165.31272 662.19130
v -124.93972 -317.10514 662.19130
v -149.68476 -300.18084 480.64998
v -45.68927 -148.38842 480.64998
v -20.94423 -165.31272 662.19130
v -124.93972 -317.10514 662.19130
v 21.66820 -206.84085 523.63106
v 199.22002 -255.12489 523.63106
v 193.49068 -276.25948 706.32344
v 15.93886 -227.97544 706.32344
v 21.66820 -206.84085 523.63106
v 199.22002 -255.12489 523.63106
v 193.49068 -276.25948 706.32344
v 15.93886 -227.97544 706.32344
v -58.01445 -63.09439 322.10591
v -207.13814 -170.88179 322.10591
v -222.98385 -148.99600 504.11120
v -73.86016 -41.20860 504.11120
v -58.01445 -63.09439 322.10591
v -207.13814 -170.88179 322.10591
v -222.98385 -148.99600 504.11120
v -73.86016 -41.20860 504.11120
v 189.60410 -147.74032 523.89307
v 339.42922 -254.55059 523.89307
v 347.10866 -243.76030 707.41581
v 197.28355 -136.95002 707.41581
v 189.60410 -147.74032 523.89307
v 339.42922 -254.55059 523.89307
v 347.10866 -243.76030 707.41581
v 197.28355 -136.95002 707.41581
v 169.39344 316.51802 384.85788
v 134.31158 135.89337 384.85788
v 160.96147 130.73931 566.84474
v 196.04333 311.36396 566.84474
v 169.39344 316.51802 384.85788
v 134.31158 135.89337 384.85788
v 160.96147 130.73931 566.84474
v 196.04333 311.36396 566.84474
v -19.64287 376.27646 391.75452
v 124.93013 262.45798 391.75452
v 119.34215 255.34845 575.53219
v -25.23085 369.16693 575.53219
v -19.64287 376.27646 391.75452
v 124.93013 262.45798 391.75452
v 119.34215 255.34845 575.53219
v -25.23085 369.16693 575.53219
v 71.32151 -50.72229 307.03405
v -17.14533 -212.05926 307.03405
v -29.22035 -205.45060 490.51843
v 59.24649 -44.11362 490.51843
v 71.32151 -50.72229 307.03405
v -17.14533 -212.05926 307.03405
v -29.22035 -205.45060 490.51843
v 59.24649 -44.11362 490.51843
v -219.03705 -138.50876 609.88285
v -55.81192 -223.44143 609.88285
v -56.07804 -223.95386 793.88194
v -219.30317 -139.02119 793.88194
v -219.03705 -138.50876 609.88285
v -55.81192 -223.44143 609.88285
v -56.07804 -223.95386 793.88194
v -219.30317 -139.02119 793.88194
v 188.60265 360.08084 548.98618
v 107.88193 194.73222 548.98618
v 113.90043 191.80001 732.86434
v 194.62115 357.14863 732.86434
v 188.60265 360.08084 548.98618
v 107.88193 194.73222 548.98618
v 113.90043 191.80001 732.86434
v 194.62115 357.14863 732.86434
v 261.22738 315.62939 502.92323
v 83.21354 269.07754 502.92323
v 83.59503 267.62346 686.91709
v 261.60887 314.17531 686.91709
v 261.22738 315.62939 502.92323
v 83.21354 269.07754 502.92323
v 83.59503 267.62346 686.91709
v 261.60887 314.17531 686.91709
v -275.83786 -10.06449 382.15518
v -225.03215 166.78228 382.15518
v -241.41505 171.47475 565.36430
v -292.22075 -5.37202 565.36430
v -275.83786 -10.06449 382.15518
v -225.03215 166.78228 382.15518
v -241.41505 171.47475 565.36430
v -292.22075 -5.37202 565.36430
v 119.84311 142.65810 709.42153
v 102.74285 325.86176 709.42153
v 101.60577 325.75471 893.41799
v 118.70602 142.55105 893.41799
v 119.84311 142.65810 709.42153
v 102.74285 325.86176 709.42153
v 101.60577 325.75471 893.41799
v 118.70602 142.55105 893.41799
v 217.17481 219.07562 665.17775
v 366.68125 111.81974 665.17775
v 382.91663 134.48870 847.05279
v 233.41019 241.74458 847.05279
v 217.17481 219.07562 665.17775
v 366.68125 111.81974 665.17775
v 382.91663 134.48870 847.05279
v 233.41019 241.74458 847.05279
v -305.29614 -288.63308 584.55657
v -318.02221 -105.07369 584.55657
v -311.36653 -104.60693 768.43556
v -298.64046 -288.16632 768.43556
v -305.29614 -288.63308 584.55657
v -318.02221 -105.07369 584.55657
v -311.36653 -104.60693 768.43556
v -298.64046 -288.16632 768.43556
v -230.75857 140.53486 315.96630
v -89.59864 258.55975 315.96630
v -92.47967 261.99994 499.91157
v -233.63960 143.97505 499.91157
v -230.75857 140.53486 315.96630
v -89.59864 258.55975 315.96630
v -92.47967 261.99994 499.91157
v -233.63960 143.97505 499.91157
v 37.67048 -45.03833 793.60996
v 156.26435 95.64392 793.60996
v 136.67376 112.13194 975.81960
v 18.07989 -28.55030 975.81960
v 37.67048 -45.03833 793.60996
v 156.26435 95.64392 793.60996
v 136.67376 112.13194 975.81960
v 18.07989 -28.55030 975.81960
v 16.25976 -296.66147 655.02629
v 195.23468 -339.36949 655.02629
v 196.59114 -333.66491 838.93283
v 17.61621 -290.95689 838.93283
v 16.25976 -296.66147 655.02629
v 195.23468 -339.36949 655.02629
v 196.59114 -333.66491 838.93283
v 17.61621 -290.95689 838.93283
v 186.53180 135.04883 667.01028
v 47.00311 254.99776 667.01028
v 61.24239 271.58808 849.70676
v 200.77107 151.63914 849.70676
v 186.53180 135.04883 667.01028
v 47.00311 254.99776 667.01028
v 61.24239 271.58808 849.70676
v 200.77107 151.63914 849.70676
v 256.52339 -300.83652 612.78555
v 332.17954 -133.11012 612.78555
v 315.49615 -125.60075 795.87371
v 239.84001 -293.32715 795.87371
v 256.52339 -300.83652 612.78555
v 332.17954 -133.11012 612.78555
v 315.49615 -125.60075 795.87371
v 239.84001 -293.32715 795.87371
v 82.19021 444.18214 577.29484
v -33.35720 300.98718 577.29484
v -47.85697 312.66834 760.35032
v 67.69044 455.86330 760.35032
v 82.19021 444.18214 577.29484
v -33.35720 300.98718 577.29484
v -47.85697 312.66834 760.35032
v 67.69044 455.86330 760.35032
v -329.71245 -126.00537 365.50510
v -146.12354 -138.29818 365.50510
v -147.55191 -159.88830 548.22846
v -331.14082 -147.59550 548.22846
v -329.71245 -126.00537 365.50510
v -146.12354 -138.29818 365.50510
v -147.55191 -159.88830 548.22846
v -331.14082 -147.59550 548.22846
v -35.46510 -144.54948 763.10603
v 147.15297 -122.04087 763.10603
v 144.37024 -99.61095 945.71258
v -38.24784 -122.11955 945.71258
v -35.46510 -144.54948 763.10603
v 147.15297 -122.04087 763.10603
v 144.37024 -99.61095 945.71258
v -38.24784 -122.11955 945.71258
v 440.57431 -51.50998 569.51136
v 267.62161 11.28623 569.51136
v 268.24036 12.99464 753.50238
v 441.19306 -49.80157 753.50238
v 440.57431 -51.50998 569.51136
v 267.62161 11.28623 569.51136
v 268.24036 12.99464 753.50238
v 441.19306 -49.80157 753.50238
v -397.99314 -223.69641 482.40640
v -237.61947 -133.49505 482.40640
v -249.64318 -112.15726 664.76903
v -410.01685 -202.35862 664.76903
v -397.99314 -223.69641 482.40640
v -237.61947 -133.49505 482.40640
v -249.64318 -112.15726 664.76903
v -410.01685 -202.35862 664.76903
v 261.28740 89.46572 405.17630
v 309.39405 267.06569 405.17630
v 302.47029 268.93522 589.03648
v 254.36364 91.33525 589.03648
v 261.28740 89.46572 405.17630
v 309.39405 267.06569 405.17630
v 302.47029 268.93522 589.03648
v 254.36364 91.33525 589.03648
v -112.02119 107.19315 256.67426
v 33.05563 -5.98245 256.67426
v 50.81174 16.81604 438.39093
v -94.26508 129.99164 438.39093
v -112.02119 107.19315 256.67426
v 33.05563 -5.98245 256.67426
v 50.81174 16.81604 438.39093
v -94.26508 129.99164 438.39093
v -129.53250 -88.60616 365.62168
v -303.24933 -149.25649 365.62168
v -311.95095 -124.39664 547.72679
v -138.23411 -63.74632 547.72679
v -129.53250 -88.60616 365.62168
v -303.24933 -149.25649 365.62168
v -311.95095 -124.39664 547.72679
v -138.23411 -63.74632 547.72679
v -130.54105 -154.33312 386.26836
v -305.61341 -97.71452 386.26836
v -311.52563 -116.04572 569.25747
v -136.45326 -172.66433 569.25747
v -130.54105 -154.33312 386.26836
v -305.61341 -97.71452 386.26836
v -311.52563 -116.04572 569.25747
v -136.45326 -172.66433 569.25747
v -156.32698 73.07332 341.54280
v -170.17542 256.55144 341.54280
v -148.53635 258.20203 524.25850
v -134.68791 74.72391 524.25850
v -156.32698 73.07332 341.54280
v -170.17542 256.55144 341.54280
v -148.53635 258.20203 524.25850
v -134.68791 74.72391 524.25850
v 334.01084 -181.01650 537.77423
v 231.20995 -333.62049 537.77423
v 208.08376 -318.06841 719.65142
v 310.88465 -165.46443 719.65142
v 334.01084 -181.01650 537.77423
v 231.20995 -333.62049 537.77423
v 208.08376 -318.06841 719.65142
v 310.88465 -165.46443 719.65142
v 97.91458 255.47908 528.22430
v -44.06287 372.51926 528.22430
v -30.84918 388.57436 711.04561
v 111.12827 271.53419 711.04561
v 97.91458 255.47908 528.22430
v -44.06287 372.51926 528.22430
v -30.84918 388.57436 711.04561
v 111.12827 271.53419 711.04561
v -327.65712 -102.47708 329.68994
v -154.56218 -40.07403 329.68994
v -149.85073 -53.11022 513.16708
v -322.94567 -115.51326 513.16708
v -327.65712 -102.47708 329.68994
v -154.56218 -40.07403 329.68994
v -149.85073 -53.11022 513.16708
v -322.94567 -115.51326 513.16708
v 222.44000 84.81992 774.83353
v 123.80312 -70.50801 774.83353
v 136.36658 -78.47207 958.23128
v 235.00346 76.85586 958.23128
v 222.44000 84.81992 774.83353
v 123.80312 -70.50801 774.83353
v 136.36658 -78.47207 958.23128
v 235.00346 76.85586 958.23128
v 135.07240 20.11652 799.93279
v -14.18170 127.72327 799.93279
v -3.13963 143.06473 982.95933
v 146.11448 35.45798 982.95933
v 135.07240 20.11652 799.93279
v -14.18170 127.72327 799.93279
v -3.13963 143.06473 982.95933
v 146.11448 35.45798 982.95933
v -53.86798 155.58752 768.96748
v 129.75086 167.42471 768.96748
v 131.25301 144.40879 951.51613
v -52.36583 132.57161 951.51613
v -53.86798 155.58752 768.96748
v 129.75086 167.42471 768.96748
v 131.25301 144.40879 951.51613
v -52.36583 132.57161 951.51613
v -289.81332 -57.61910 672.29924
v -381.89599 101.68182 672.29924
v -387.16526 98.63036 856.19846
v -295.08259 -60.67056 856.19846
v -289.81332 -57.61910 672.29924
v -381.89599 101.68182 672.29924
v -387.16526 98.63036 856.19846
v -295.08259 -60.67056 856.19846
v 322.19021 238.02539 671.35064
v 138.29493 231.81863 671.35064
v 139.07915 209.11954 853.94346
v 322.97444 215.32630 853.94346
v 322.19021 238.02539 671.35064
v 138.29493 231.81863 671.35064
v 139.07915 209.11954 853.94346
v 322.97444 215.32630 853.94346
v -123.82820 263.40865 714.40561
v -201.99504 96.83751 714.40561
v -184.31473 88.55785 897.36695
v -106.14788 255.12899 897.36695
v -123.82820 263.40865 714.40561
v -201.99504 96.83751 714.40561
v -184.31473 88.55785 897.36695
v -106.14788 255.12899 897.36695
v -58.03607 220.00638 477.09588
v -140.65629 384.41410 477.09588
v -116.38709 396.63438 659.07849
v -33.76687 232.22666 659.07849
v -58.03607 220.00638 477.09588
v -140.65629 384.41410 477.09588
v -116.38709 396.63438 659.07849
v -33.76687 232.22666 659.07849
vt 0.00000 2.00000
vt 2.00000 2.00000
vt 2.00000 0.00000
vt 0.00000 0.00000
vt 0.00000 2.00000
vt 2.00000 2.00000
vt 2.00000 0.00000
vt 0.00000 0.00000
vt 0.00000 2.00000
vt 2.00000 2.00000
vt 2.00000 0.00000
vt 0.00000 0.00000
vt 0.00000 2.00000
vt 2.00000 2.00000
vt 2.00000 0.00000
vt 0.00000 0.00000
vt 0.00000 2.00000
vt 2.00000 2.00000
vt 2.00000 0.00000
vt 0.00000 0.00000
vt 0.00000 2.00000
vt 2.00000 2.00000
vt 2.00000 0.00000
vt 0.00000 0.00000
vt 0.00000 2.00000
vt 2.00000 2.00000
vt 2.00000 0.00000
vt 0.00000 0.00000
vt 0.00000 2.00000
vt 2.00000 2.00000
vt 2.00000 0.00000
vt 0.00000 0.00000
vt 0.00000 2.00000
vt 2.00000 2.00000
vt 2.00000 0.00000
vt 0.00000 0.00000
vt 0.00000 2.00000
vt 2.00000 2.00000
vt 2.00000 0.00000
vt 0.00000 0.00000
vt 0.00000 2.00000
vt 2.00000 2.00000
vt 2.00000 0.00000
vt 0.00000 0.00000
vt 0.00000 2.00000
vt 2.00000 2.00000
vt 2.00000 0.00000
vt 0.00000 0.00000
vt 0.00000 2.00000
vt 2.00000 2.00000
vt 2.00000 0.00000
vt 0.00000 0.00000
vt 0.00000 2.00000
vt 2.00000 2.00000
vt 2.00000 0.00000
vt 0.00000 0.00000
vt 0.00000 2.00000
vt 2.00000 2.00000
vt 2.00000 0.00000
vt 0.00000 0.00000
vt 0.00000 2.00000
vt 2.00000 2.00000
vt 2.00000 0.00000
vt 0.00000 0.00000
vt 0.00000 2.00000
vt 2.00000 2.00000
vt 2.00000 0.00000
vt 0.00000 0.00000
vt 0.00000 2.00000
vt 2.00000 2.00000
vt 2.00000 0.00000
vt 0.00000 0.00000
vt 0.00000 2.00000
vt 2.00000 2.00000
vt 2.00000 0.00000
vt 0.00000 0.00000
vt 0.00000 2.00000
vt 2.00000 2.00000
vt 2.00000 0.00000
vt 0.00000 0.00000
vt 0.00000 2.00000
vt 2.00000 2.00000
vt 2.00000 0.00000
vt 0.00000 0.00000
vt 0.00000 2.00000
vt 2.00000 2.00000
vt 2.00000 0.00000
vt 0.00000 0.00000
vt 0.00000 2.00000
vt 2.00000 2.00000
vt 2.00000 0.00000
vt 0.00000 0.00000
vt 0.00000 2.00000
vt 2.00000 2.00000
vt 2.00000 0.00000
vt 0.00000 0.00000
vt 0.00000 2.00000
vt 2.00000 2.00000
vt 2.00000 0.00000
vt 0.00000 0.00000
vt 0.00000 2.00000
vt 2.00000 2.00000
vt 2.00000 0.00000
vt 0.00000 0.00000
vt 0.00000 2.00000
vt 2.00000 2.00000
vt 2.00000 0.00000
vt 0.00000 0.00000
vt 0.00000 2.00000
vt 2.00000 2.00000
vt 2.00000 0.00000
vt 0.00000 0.00000
vt 0.00000 2.00000
vt 2.00000 2.00000
vt 2.00000 0.00000
vt 0.00000 0.00000
vt 0.00000 2.00000
vt 2.00000 2.00000
vt 2.00000 0.00000
vt 0.00000 0.00000
vt 0.00000 2.00000
vt 2.00000 2.00000
vt 2.00000 0.00000
vt 0.00000 0.00000
vt 0.00000 2.00000
vt 2.00000 2.00000
vt 2.00000 0.00000
vt 0.00000 0.00000
vt 0.00000 2.00000
vt 2.00000 2.00000
vt 2.00000 0.00000
vt 0.00000 0.00000
vt 0.00000 2.00000
vt 2.00000 2.00000
vt 2.00000 0.00000
vt 0.00000 0.00000
vt 0.00000 2.00000
vt 2.00000 2.00000
vt 2.00000 0.00000
vt 0.00000 0.00000
vt 0.00000 2.00000
vt 2.00000 2.00000
vt 2.00000 0.00000
vt 0.00000 0.00000
vt 0.00000 2.00000
vt 2.00000 2.00000
vt 2.00000 0.00000
vt 0.00000 0.00000
vt 0.00000 2.00000
vt 2.00000 2.00000
vt 2.00000 0.00000
vt 0.00000 0.00000
vt 0.00000 2.00000
vt 2.00000 2.00000
vt 2.00000 0.00000
vt 0.00000 0.00000
vt 0.00000 2.00000
vt 2.00000 2.00000
vt 2.00000 0.00000
vt 0.00000 0.00000
vt 0.00000 2.00000
vt 2.00000 2.00000
vt 2.00000 0.00000
vt 0.00000 0.00000
vt 0.00000 2.00000
vt 2.00000 2.00000
vt 2.00000 0.00000
vt 0.00000 0.00000
vt 0.00000 2.00000
vt 2.00000 2.00000
vt 2.00000 0.00000
vt 0.00000 0.00000
vt 0.00000 2.00000
vt 2.00000 2.00000
vt 2.00000 0.00000
vt 0.00000 0.00000
vt 0.00000 2.00000
vt 2.00000 2.00000
vt 2.00000 0.00000
vt 0.00000 0.00000
vt 0.00000 2.00000
vt 2.00000 2.00000
vt 2.00000 0.00000
vt 0.00000 0.00000
vt 0.00000 2.00000
vt 2.00000 2.00000
vt 2.00000 0.00000
vt 0.00000 0.00000
vt 0.00000 2.00000
vt 2.00000 2.00000
vt 2.00000 0.00000
vt 0.00000 0.00000
vt 0.00000 2.00000
vt 2.00000 2.00000
vt 2.00000 0.00000
vt 0.00000 0.00000
vt 0.00000 2.00000
vt 2.00000 2.00000
vt 2.00000 0.00000
vt 0.00000 0.00000
vt 0.00000 2.00000
vt 2.00000 2.00000
vt 2.00000 0.00000
vt 0.00000 0.00000
vt 0.00000 2.00000
vt 2.00000 2.00000
vt 2.00000 0.00000
vt 0.00000 0.00000
vt 0.00000 2.00000
vt 2.00000 2.00000
vt 2.00000 0.00000
vt 0.00000 0.00000
vt 0.00000 2.00000
vt 2.00000 2.00000
vt 2.00000 0.00000
vt 0.00000 0.00000
vt 0.00000 2.00000
vt 2.00000 2.00000
vt 2.00000 0.00000
vt 0.00000 0.00000
vt 0.00000 2.00000
vt 2.00000 2.00000
vt 2.00000 0.00000
vt 0.00000 0.00000
vt 0.00000 2.00000
vt 2.00000 2.00000
vt 2.00000 0.00000
vt 0.00000 0.00000
vt 0.00000 2.00000
vt 2.00000 2.00000
vt 2.00000 0.00000
vt 0.00000 0.00000
vt 0.00000 2.00000
vt 2.00000 2.00000
vt 2.00000 0.00000
vt 0.00000 0.00000
vt 0.00000 2.00000
vt 2.00000 2.00000
vt 2.00000 0.00000
vt 0.00000 0.00000
vt 0.00000 2.00000
vt 2.00000 2.00000
vt 2.00000 0.00000
vt 0.00000 0.00000
vt 0.00000 2.00000
vt 2.00000 2.00000
vt 2.00000 0.00000
vt 0.00000 0.00000
vt 0.00000 2.00000
vt 2.00000 2.00000
vt 2.00000 0.00000
vt 0.00000 0.00000
vt 0.00000 2.00000
vt 2.00000 2.00000
vt 2.00000 0.00000
vt 0.00000 0.00000
vt 0.00000 2.00000
vt 2.00000 2.00000
vt 2.00000 0.00000
vt 0.00000 0.00000
vt 0.00000 2.00000
vt 2.00000 2.00000
vt 2.00000 0.00000
vt 0.00000 0.00000
vt 0.00000 2.00000
vt 2.00000 2.00000
vt 2.00000 0.00000
vt 0.00000 0.00000
vt 0.00000 2.00000
vt 2.00000 2.00000
vt 2.00000 0.00000
vt 0.00000 0.00000
vt 0.00000 2.00000
vt 2.00000 2.00000
vt 2.00000 0.00000
vt 0.00000 0.00000
vt 0.00000 2.00000
vt 2.00000 2.00000
vt 2.00000 0.00000
vt 0.00000 0.00000
vt 0.00000 2.00000
vt 2.00000 2.00000
vt 2.00000 0.00000
vt 0.00000 0.00000
vt 0.00000 2.00000
vt 2.00000 2.00000
vt 2.00000 0.00000
vt 0.00000 0.00000
vt 0.00000 2.00000
vt 2.00000 2.00000
vt 2.00000 0.00000
vt 0.00000 0.00000
vt 0.00000 2.00000
vt 2.00000 2.00000
vt 2.00000 0.00000
vt 0.00000 0.00000
vt 0.00000 2.00000
vt 2.00000 2.00000
vt 2.00000 0.00000
vt 0.00000 0.00000
vt 0.00000 2.00000
vt 2.00000 2.00000
vt 2.00000 0.00000
vt 0.00000 0.00000
vt 0.00000 2.00000
vt 2.00000 2.00000
vt 2.00000 0.00000
vt 0.00000 0.00000
vt 0.00000 2.00000
vt 2.00000 2.00000
vt 2.00000 0.00000
vt 0.00000 0.00000
vt 0.00000 2.00000
vt 2.00000 2.00000
vt 2.00000 0.00000
vt 0.00000 0.00000
vt 0.00000 2.00000
vt 2.00000 2.00000
vt 2.00000 0.00000
vt 0.00000 0.00000
vt 0.00000 2.00000
vt 2.00000 2.00000
vt 2.00000 0.00000
vt 0.00000 0.00000
vt 0.00000 2.00000
vt 2.00000 2.00000
vt 2.00000 0.00000
vt 0.00000 0.00000
vt 0.00000 2.00000
vt 2.00000 2.00000
vt 2.00000 0.00000
vt 0.00000 0.00000
vt 0.00000 2.00000
vt 2.00000 2.00000
vt 2.00000 0.00000
vt 0.00000 0.00000
vt 0.00000 2.00000
vt 2.00000 2.00000
vt 2.00000 0.00000
vt 0.00000 0.00000
vt 0.00000 2.00000
vt 2.00000 2.00000
vt 2.00000 0.00000
vt 0.00000 0.00000
vt 0.00000 2.00000
vt 2.00000 2.00000
vt 2.00000 0.00000
vt 0.00000 0.00000
vt 0.00000 2.00000
vt 2.00000 2.00000
vt 2.00000 0.00000
vt 0.00000 0.00000
vt 0.00000 2.00000
vt 2.00000 2.00000
vt 2.00000 0.00000
vt 0.00000 0.00000
vt 0.00000 2.00000
vt 2.00000 2.00000
vt 2.00000 0.00000
vt 0.00000 0.00000
vt 0.00000 2.00000
vt 2.00000 2.00000
vt 2.00000 0.00000
vt 0.00000 0.00000
vt 0.00000 2.00000
vt 2.00000 2.00000
vt 2.00000 0.00000
vt 0.00000 0.00000
vt 0.00000 2.00000
vt 2.00000 2.00000
vt 2.00000 0.00000
vt 0.00000 0.00000
vt 0.00000 2.00000
vt 2.00000 2.00000
vt 2.00000 0.00000
vt 0.00000 0.00000
vt 0.00000 2.00000
vt 2.00000 2.00000
vt 2.00000 0.00000
vt 0.00000 0.00000
vt 0.00000 2.00000
vt 2.00000 2.00000
vt 2.00000 0.00000
vt 0.00000 0.00000
vt 0.00000 2.00000
vt 2.00000 2.00000
vt 2.00000 0.00000
vt 0.00000 0.00000
vt 0.00000 2.00000
vt 2.00000 2.00000
vt 2.00000 0.00000
vt 0.00000 0.00000
vt 0.00000 2.00000
vt 2.00000 2.00000
vt 2.00000 0.00000
vt 0.00000 0.00000
vt 0.00000 2.00000
vt 2.00000 2.00000
vt 2.00000 0.00000
vt 0.00000 0.00000
vt 0.00000 2.00000
vt 2.00000 2.00000
vt 2.00000 0.00000
vt 0.00000 0.00000
vt 0.00000 2.00000
vt 2.00000 2.00000
vt 2.00000 0.00000
vt 0.00000 0.00000
vt 0.00000 2.00000
vt 2.00000 2.00000
vt 2.00000 0.00000
vt 0.00000 0.00000
vt 0.00000 2.00000
vt 2.00000 2.00000
vt 2.00000 0.00000
vt 0.00000 0.00000
vt 0.00000 2.00000
vt 2.00000 2.00000
vt 2.00000 0.00000
vt 0.00000 0.00000
vt 0.00000 2.00000
vt 2.00000 2.00000
vt 2.00000 0.00000
vt 0.00000 0.00000
vt 0.00000 2.00000
vt 2.00000 2.00000
vt 2.00000 0.00000
vt 0.00000 0.00000
vt 0.00000 2.00000
vt 2.00000 2.00000
vt 2.00000 0.00000
vt 0.00000 0.00000
vt 0.00000 2.00000
vt 2.00000 2.00000
vt 2.00000 0.00000
vt 0.00000 0.00000
vt 0.00000 2.00000
vt 2.00000 2.00000
vt 2.00000 0.00000
vt 0.00000 0.00000
vt 0.00000 2.00000
vt 2.00000 2.00000
vt 2.00000 0.00000
vt 0.00000 0.00000
vt 0.00000 2.00000
vt 2.00000 2.00000
vt 2.00000 0.00000
vt 0.00000 0.00000
vt 0.00000 2.00000
vt 2.00000 2.00000
vt 2.00000 0.00000
vt 0.00000 0.00000
vt 0.00000 2.00000
vt 2.00000 2.00000
vt 2.00000 0.00000
vt 0.00000 0.00000
vt 0.00000 2.00000
vt 2.00000 2.00000
vt 2.00000 0.00000
vt 0.00000 0.00000
vt 0.00000 2.00000
vt 2.00000 2.00000
vt 2.00000 0.00000
vt 0.00000 0.00000
vt 0.00000 2.00000
vt 2.00000 2.00000
vt 2.00000 0.00000
vt 0.00000 0.00000
vt 0.00000 2.00000
vt 2.00000 2.00000
vt 2.00000 0.00000
vt 0.00000 0.00000
vt 0.00000 2.00000
vt 2.00000 2.00000
vt 2.00000 0.00000
vt 0.00000 0.00000
vt 0.00000 2.00000
vt 2.00000 2.00000
vt 2.00000 0.00000
vt 0.00000 0.00000
vt 0.00000 2.00000
vt 2.00000 2.00000
vt 2.00000 0.00000
vt 0.00000 0.00000
vt 0.00000 2.00000
vt 2.00000 2.00000
vt 2.00000 0.00000
vt 0.00000 0.00000
vt 0.00000 2.00000
vt 2.00000 2.00000
vt 2.00000 0.00000
vt 0.00000 0.00000
vt 0.00000 2.00000
vt 2.00000 2.00000
vt 2.00000 0.00000
vt 0.00000 0.00000
vt 0.00000 2.00000
vt 2.00000 2.00000
vt 2.00000 0.00000
vt 0.00000 0.00000
vt 0.00000 2.00000
vt 2.00000 2.00000
vt 2.00000 0.00000
vt 0.00000 0.00000
vt 0.00000 2.00000
vt 2.00000 2.00000
vt 2.00000 0.00000
vt 0.00000 0.00000
vt 0.00000 2.00000
vt 2.00000 2.00000
vt 2.00000 0.00000
vt 0.00000 0.00000
vt 0.00000 2.00000
vt 2.00000 2.00000
vt 2.00000 0.00000
vt 0.00000 0.00000
vt 0.00000 2.00000
vt 2.00000 2.00000
vt 2.00000 0.00000
vt 0.00000 0.00000
vt 0.00000 2.00000
vt 2.00000 2.00000
vt 2.00000 0.00000
vt 0.00000 0.00000
vt 0.00000 2.00000
vt 2.00000 2.00000
vt 2.00000 0.00000
vt 0.00000 0.00000
vt 0.00000 2.00000
vt 2.00000 2.00000
vt 2.00000 0.00000
vt 0.00000 0.00000
vt 0.00000 2.00000
vt 2.00000 2.00000
vt 2.00000 0.00000
vt 0.00000 0.00000
vt 0.00000 2.00000
vt 2.00000 2.00000
vt 2.00000 0.00000
vt 0.00000 0.00000
vt 0.00000 2.00000
vt 2.00000 2.00000
vt 2.00000 0.00000
vt 0.00000 0.00000
vt 0.00000 2.00000
vt 2.00000 2.00000
vt 2.00000 0.00000
vt 0.00000 0.00000
vt 0.00000 2.00000
vt 2.00000 2.00000
vt 2.00000 0.00000
vt 0.00000 0.00000
vt 0.00000 2.00000
vt 2.00000 2.00000
vt 2.00000 0.00000
vt 0.00000 0.00000
vt 0.00000 2.00000
vt 2.00000 2.00000
vt 2.00000 0.00000
vt 0.00000 0.00000
vt 0.00000 2.00000
vt 2.00000 2.00000
vt 2.00000 0.00000
vt 0.00000 0.00000
vt 0.00000 2.00000
vt 2.00000 2.00000
vt 2.00000 0.00000
vt 0.00000 0.00000
vt 0.00000 2.00000
vt 2.00000 2.00000
vt 2.00000 0.00000
vt 0.00000 0.00000
vt 0.00000 2.00000
vt 2.00000 2.00000
vt 2.00000 0.00000
vt 0.00000 0.00000
vt 0.00000 2.00000
vt 2.00000 2.00000
vt 2.00000 0.00000
vt 0.00000 0.00000
vt 0.00000 2.00000
vt 2.00000 2.00000
vt 2.00000 0.00000
vt 0.00000 0.00000
vt 0.00000 2.00000
vt 2.00000 2.00000
vt 2.00000 0.00000
vt 0.00000 0.00000
vt 0.00000 2.00000
vt 2.00000 2.00000
vt 2.00000 0.00000
vt 0.00000 0.00000
vt 0.00000 2.00000
vt 2.00000 2.00000
vt 2.00000 0.00000
vt 0.00000 0.00000
vt 0.00000 2.00000
vt 2.00000 2.00000
vt 2.00000 0.00000
vt 0.00000 0.00000
vn 0.0259 0.9994 -0.0248
vn -0.0259 -0.9994 0.0248
vn 0.4824 0.8646 0.1405
vn -0.4824 -0.8646 -0.1405
vn 0.3920 -0.9093 0.1396
vn -0.3920 0.9093 -0.1396
vn 0.9853 0.0605 -0.1598
vn -0.9853 -0.0605 0.1598
vn -0.9381 -0.3454 -0.0233
vn 0.9381 0.3454 0.0233
vn -0.9960 0.0442 0.0772
vn 0.9960 -0.0442 -0.0772
vn 0.5676 -0.8223 -0.0408
vn -0.5676 0.8223 0.0408
vn -0.6977 0.7075 0.1126
vn 0.6977 -0.7075 -0.1126
vn -0.6393 -0.7686 -0.0245
vn 0.6393 0.7686 0.0245
vn 0.6896 0.7241 -0.0084
vn -0.6896 -0.7241 0.0084
vn 0.2453 -0.9606 -0.1308
vn -0.2453 0.9606 0.1308
vn 0.9374 0.3093 0.1602
vn -0.9374 -0.3093 -0.1602
vn 0.7987 -0.5854 -0.1393
vn -0.7987 0.5854 0.1393
vn -0.8021 0.5807 -0.1394
vn 0.8021 -0.5807 0.1394
vn -0.6965 -0.7170 -0.0299
vn 0.6965 0.7170 0.0299
vn 0.7246 -0.6869 0.0560
vn -0.7246 0.6869 -0.0560
vn 0.9183 0.3793 -0.1137
vn -0.9183 -0.3793 0.1137
vn -0.5011 0.8484 0.1705
vn 0.5011 -0.8484 -0.1705
vn 0.2177 0.9723 -0.0847
vn -0.2177 -0.9723 0.0847
vn -0.1387 -0.9899 0.0280
vn 0.1387 0.9899 -0.0280
vn 0.4372 0.8918 0.1162
vn -0.4372 -0.8918 -0.1162
vn 0.2196 -0.9632 0.1549
vn -0.2196 0.9632 -0.1549
vn 0.6586 -0.7517 -0.0346
vn -0.6586 0.7517 0.0346
vn -0.6102 0.7736 0.1708
vn 0.6102 -0.7736 -0.1708
vn -0.1679 0.9845 0.0507
vn 0.1679 -0.9845 -0.0507
vn 0.6487 0.7545 0.0991
vn -0.6487 -0.7545 -0.0991
vn -0.9044 0.4090 -0.1216
vn 0.9044 -0.4090 0.1216
vn -0.2969 0.9507 -0.0893
vn 0.2969 -0.9507 0.0893
vn 0.9982 0.0357 0.0476
vn -0.9982 -0.0357 -0.0476
vn 0.6418 0.7488 -0.1656
vn -0.6418 -0.7488 0.1656
vn -0.5944 0.8039 0.0216
vn 0.5944 -0.8039 -0.0216
vn -0.2985 -0.9523 -0.0636
vn 0.2985 0.9523 0.0636
vn -0.8944 -0.4144 0.1683
vn 0.8944 0.4144 -0.1683
vn -0.0473 -0.9989 0.0010
vn 0.0473 0.9989 -0.0010
vn -0.1613 0.9868 0.0113
vn 0.1613 -0.9868 -0.0113
vn -0.8626 0.4820 -0.1537
vn 0.8626 -0.4820 0.1537
vn -0.8139 0.5576 0.1629
vn 0.8139 -0.5576 -0.1629
vn 0.2605 0.9581 0.1190
vn -0.2605 -0.9581 -0.1190
vn 0.5795 -0.8017 0.1468
vn -0.5795 0.8017 -0.1468
vn 0.5790 0.8122 -0.0720
vn -0.5790 -0.8122 0.0720
vn 0.9709 -0.1886 -0.1475
vn -0.9709 0.1886 0.1475
vn 0.6178 0.7848 0.0491
vn -0.6178 -0.7848 -0.0491
vn 0.8744 -0.4795 0.0748
vn -0.8744 0.4795 -0.0748
vn 0.4616 0.8871 0.0031
vn -0.4616 -0.8871 -0.0031
vn 0.8980 -0.4384 -0.0364
vn -0.8980 0.4384 0.0364
vn 0.2530 -0.9674 -0.0082
vn -0.2530 0.9674 0.0082
vn -0.9570 0.2749 -0.0926
vn 0.9570 -0.2749 0.0926
vn -0.9957 -0.0929 -0.0062
vn 0.9957 0.0929 0.0062
vn 0.5762 0.8032 -0.1515
vn -0.5762 -0.8032 0.1515
vn -0.9969 -0.0691 0.0363
vn 0.9969 0.0691 -0.0363
vn -0.6412 0.7669 -0.0244
vn 0.6412 -0.7669 0.0244
vn -0.7571 0.6383 -0.1392
vn 0.7571 -0.6383 0.1392
vn 0.2320 0.9722 -0.0319
vn -0.2320 -0.9722 0.0319
vn -0.6473 -0.7529 0.1188
vn 0.6473 0.7529 -0.1188
vn -0.9070 0.4091 -0.0994
vn 0.9070 -0.4091 0.0994
vn 0.7742 -0.6248 0.1012
vn -0.7742 0.6248 -0.1012
vn 0.0663 0.9908 0.1176
vn -0.0663 -0.9908 -0.1176
vn -0.1214 0.9850 -0.1228
vn 0.1214 -0.9850 0.1228
vn -0.3413 -0.9399 0.0099
vn 0.3413 0.9399 -0.0099
vn -0.4859 0.8638 -0.1331
vn 0.4859 -0.8638 0.1331
vn -0.9645 0.2613 -0.0390
vn 0.9645 -0.2613 0.0390
vn 0.6075 0.7787 -0.1571
vn -0.6075 -0.7787 0.1571
vn 0.3262 -0.9344 0.1431
vn -0.3262 0.9344 -0.1431
vn -0.3060 -0.9463 -0.1047
vn 0.3060 0.9463 0.1047
vn -0.9902 -0.0747 0.1179
vn 0.9902 0.0747 -0.1179
vn 0.8198 -0.5523 0.1515
vn -0.8198 0.5523 -0.1515
vn -0.6320 -0.7667 0.1130
vn 0.6320 0.7667 -0.1130
vn -0.3382 0.9381 0.0753
vn 0.3382 -0.9381 -0.0753
vn 0.8414 -0.5343 -0.0808
vn -0.8414 0.5343 0.0808
vn -0.5817 -0.8069 0.1027
vn 0.5817 0.8069 -0.1027
vn -0.0638 0.9901 0.1254
vn 0.0638 -0.9901 -0.1254
vn -0.8653 -0.5002 -0.0331
vn 0.8653 0.5002 0.0331
vn 0.0335 -0.9918 -0.1234
vn -0.0335 0.9918 0.1234
vn 0.9002 -0.4224 -0.1061
vn -0.9002 0.4224 0.1061
vn -0.8837 -0.4441 0.1477
vn 0.8837 0.4441 -0.1477
f 1/1/1 3/3/1 2/2/1
f 1/1/1 4/4/1 3/3/1
f 5/5/2 7/7/2 8/8/2
f 5/5/2 6/6/2 7/7/2
f 9/9/3 11/11/3 10/10/3
f 9/9/3 12/12/3 11/11/3
f 13/13/4 15/15/4 16/16/4
f 13/13/4 14/14/4 15/15/4
f 17/17/5 19/19/5 18/18/5
f 17/17/5 20/20/5 19/19/5
f 21/21/6 23/23/6 24/24/6
f 21/21/6 22/22/6 23/23/6
f 25/25/7 27/27/7 26/26/7
f 25/25/7 28/28/7 27/27/7
f 29/29/8 31/31/8 32/32/8
f 29/29/8 30/30/8 31/31/8
f 33/33/9 35/35/9 34/34/9
f 33/33/9 36/36/9 35/35/9
f 37/37/10 39/39/10 40/40/10
f 37/37/10 38/38/10 39/39/10
f 41/41/11 43/43/11 42/42/11
f 41/41/11 44/44/11 43/43/11
f 45/45/12 47/47/12 48/48/12
f 45/45/12 46/46/12 47/47/12
f 49/49/13 51/51/13 50/50/13
f 49/49/13 52/52/13 51/51/13
f 53/53/14 55/55/14 56/56/14
f 53/53/14 54/54/14 55/55/14
f 57/57/15 59/59/15 58/58/15
f 57/57/15 60/60/15 59/59/15
f 61/61/16 63/63/16 64/64/16
f 61/61/16 62/62/16 63/63/16
f 65/65/17 67/67/17 66/66/17
f 65/65/17 68/68/17 67/67/17
f 69/69/18 71/71/18 72/72/18
f 69/69/18 70/70/18 71/71/18
f 73/73/19 75/75/19 74/74/19
f 73/73/19 76/76/19 75/75/19
f 77/77/20 79/79/20 80/80/20
f 77/77/20 78/78/20 79/79/20
f 81/81/21 83/83/21 82/82/21
f 81/81/21 84/84/21 83/83/21
f 85/85/22 87/87/22 88/88/22
f 85/85/22 86/86/22 87/87/22
f 89/89/23 91/91/23 90/90/23
f 89/89/23 92/92/23 91/91/23
f 93/93/24 95/95/24 96/96/24
f 93/93/24 94/94/24 95/95/24
f 97/97/25 99/99/25 98/98/25
f 97/97/25 100/100/25 99/99/25
f 101/101/26 103/103/26 104/104/26
f 101/101/26 102/102/26 103/103/26
f 105/105/27 107/107/27 106/106/27
f 105/105/27 108/108/27 107/107/27
f 109/109/28 111/111/28 112/112/28
f 109/109/28 110/110/28 111/111/28
f 113/113/29 115/115/29 114/114/29
f 113/113/29 116/116/29 115/115/29
f 117/117/30 119/119/30 120/120/30
f 117/117/30 118/118/30 119/119/30
f 121/121/31 123/123/31 122/122/31
f 121/121/31 124/124/31 123/123/31
f 125/125/32 127/127/32 128/128/32
f 125/125/32 126/126/32 127/127/32
f 129/129/33 131/131/33 130/130/33
f 129/129/33 132/132/33 131/131/33
f 133/133/34 135/135/34 136/136/34
f 133/133/34 134/134/34 135/135/34
f 137/137/35 139/139/35 138/138/35
f 137/137/35 140/140/35 139/139/35
f 141/141/36 143/143/36 144/144/36
f 141/141/36 142/142/36 143/143/36
f 145/145/37 147/147/37 146/146/37
f 145/145/37 148/148/37 147/147/37
f 149/149/38 151/151/38 152/152/38
f 149/149/38 150/150/38 151/151/38
f 153/153/39 155/155/39 154/154/39
f 153/153/39 156/156/39 155/155/39
f 157/157/40 159/159/40 160/160/40
f 157/157/40 158/158/40 159/159/40
f 161/161/41 163/163/41 162/162/41
f 161/161/41 164/164/41 163/163/41
f 165/165/42 167/167/42 168/168/42
f 165/165/42 166/166/42 167/167/42
f 169/169/43 171/171/43 170/170/43
f 169/169/43 172/172/43 171/171/43
f 173/173/44 175/175/44 176/176/44
f 173/173/44 174/174/44 175/175/44
f 177/177/45 179/179/45 178/178/45
f 177/177/45 180/180/45 179/179/45
f 181/181/46 183/183/46 184/184/46
f 181/181/46 182/182/46 183/183/46
f 185/185/47 187/187/47 186/186/47
f 185/185/47 188/188/47 187/187/47
f 189/189/48 191/191/48 192/192/48
f 189/189/48 190/190/48 191/191/48
f 193/193/49 195/195/49 194/194/49
f 193/193/49 196/196/49 195/195/49
f 197/197/50 199/199/50 200/200/50
f 197/197/50 198/198/50 199/199/50
f 201/201/51 203/203/51 202/202/51
f 201/201/51 204/204/51 203/203/51
f 205/205/52 207/207/52 208/208/52
f 205/205/52 206/206/52 207/207/52
f 209/209/53 211/211/53 210/210/53
f 209/209/53 212/212/53 211/211/53
f 213/213/54 215/215/54 216/216/54
f 213/213/54 214/214/54 215/215/54
f 217/217/55 219/219/55 218/218/55
f 217/217/55 220/220/55 219/219/55
f 221/221/56 223/223/56 224/224/56
f 221/221/56 222/222/56 223/223/56
f 225/225/57 227/227/57 226/226/57
f 225/225/57 228/228/57 227/227/57
f 229/229/58 231/231/58 232/232/58
f 229/229/58 230/230/58 231/231/58
f 233/233/59 235/235/59 234/234/59
f 233/233/59 236/236/59 235/235/59
f 237/237/60 239/239/60 240/240/60
f 237/237/60 238/238/60 239/239/60
f 241/241/61 243/243/61 242/242/61
f 241/241/61 244/244/61 243/243/61
f 245/245/62 247/247/62 248/248/62
f 245/245/62 246/246/62 247/247/62
f 249/249/63 251/251/63 250/250/63
f 249/249/63 252/252/63 251/251/63
f 253/253/64 255/255/64 256/256/64
f 253/253/64 254/254/64 255/255/64
f 257/257/65 259/259/65 258/258/65
f 257/257/65 260/260/65 259/259/65
f 261/261/66 263/263/66 264/264/66
f 261/261/66 262/262/66 263/263/66
f 265/265/67 267/267/67 266/266/67
f 265/265/67 268/268/67 267/267/67
f 269/269/68 271/271/68 272/272/68
f 269/269/68 270/270/68 271/271/68
f 273/273/69 275/275/69 274/274/69
f 273/273/69 276/276/69 275/275/69
f 277/277/70 279/279/70 280/280/70
f 277/277/70 278/278/70 279/279/70
f 281/281/71 283/283/71 282/282/71
f 281/281/71 284/284/71 283/283/71
f 285/285/72 287/287/72 288/288/72
f 285/285/72 286/286/72 287/287/72
f 289/289/73 291/291/73 290/290/73
f 289/289/73 292/292/73 291/291/73
f 293/293/74 295/295/74 296/296/74
f 293/293/74 294/294/74 295/295/74
f 297/297/75 299/299/75 298/298/75
f 297/297/75 300/300/75 299/299/75
f 301/301/76 303/303/76 304/304/76
f 301/301/76 302/302/76 303/303/76
f 305/305/77 307/307/77 306/306/77
f 305/305/77 308/308/77 307/307/77
f 309/309/78 311/311/78 312/312/78
f 309/309/78 310/310/78 311/311/78
f 313/313/79 315/315/79 314/314/79
f 313/313/79 316/316/79 315/315/79
f 317/317/80 319/319/80 320/320/80
f 317/317/80 318/318/80 319/319/80
f 321/321/81 323/323/81 322/322/81
f 321/321/81 324/324/81 323/323/81
f 325/325/82 327/327/82 328/328/82
f 325/325/82 326/326/82 327/327/82
f 329/329/83 331/331/83 330/330/83
f 329/329/83 332/332/83 331/331/83
f 333/333/84 335/335/84 336/336/84
f 333/333/84 334/334/84 335/335/84
f 337/337/85 339/339/85 338/338/85
f 337/337/85 340/340/85 339/339/85
f 341/341/86 343/343/86 344/344/86
f 341/341/86 342/342/86 343/343/86
f 345/345/87 347/347/87 346/346/87
f 345/345/87 348/348/87 347/347/87
f 349/349/88 351/351/88 352/352/88
f 349/349/88 350/350/88 351/351/88
f 353/353/89 355/355/89 354/354/89
f 353/353/89 356/356/89 355/355/89
f 357/357/90 359/359/90 360/360/90
f 357/357/90 358/358/90 359/359/90
f 361/361/91 363/363/91 362/362/91
f 361/361/91 364/364/91 363/363/91
f 365/365/92 367/367/92 368/368/92
f 365/365/92 366/366/92 367/367/92
f 369/369/93 371/371/93 370/370/93
f 369/369/93 372/372/93 371/371/93
f 373/373/94 375/375/94 376/376/94
f 373/373/94 374/374/94 375/375/94
f 377/377/95 379/379/95 378/378/95
f 377/377/95 380/380/95 379/379/95
f 381/381/96 383/383/96 384/384/96
f 381/381/96 382/382/96 383/383/96
f 385/385/97 387/387/97 386/386/97
f 385/385/97 388/388/97 387/387/97
f 389/389/98 391/391/98 392/392/98
f 389/389/98 390/390/98 391/391/98
f 393/393/99 395/395/99 394/394/99
f 393/393/99 396/396/99 395/395/99
f 397/397/100 399/399/100 400/400/100
f 397/397/100 398/398/100 399/399/100
f 401/401/101 403/403/101 402/402/101
f 401/401/101 404/404/101 403/403/101
f 405/405/102 407/407/102 408/408/102
f 405/405/102 406/406/102 407/407/102
f 409/409/103 411/411/103 410/410/103
f 409/409/103 412/412/103 411/411/103
f 413/413/104 415/415/104 416/416/104
f 413/413/104 414/414/104 415/415/104
f 417/417/105 419/419/105 418/418/105
f 417/417/105 420/420/105 419/419/105
f 421/421/106 423/423/106 424/424/106
f 421/421/106 422/422/106 423/423/106
f 425/425/107 427/427/107 426/426/107
f 425/425/107 428/428/107 427/427/107
f 429/429/108 431/431/108 432/432/108
f 429/429/108 430/430/108 431/431/108
f 433/433/109 435/435/109 434/434/109
f 433/433/109 436/436/109 435/435/109
f 437/437/110 439/439/110 440/440/110
f 437/437/110 438/438/110 439/439/110
f 441/441/111 443/443/111 442/442/111
f 441/441/111 444/444/111 443/443/111
f 445/445/112 447/447/112 448/448/112
f 445/445/112 446/446/112 447/447/112
f 449/449/113 451/451/113 450/450/113
f 449/449/113 452/452/113 451/451/113
f 453/453/114 455/455/114 456/456/114
f 453/453/114 454/454/114 455/455/114
f 457/457/115 459/459/115 458/458/115
f 457/457/115 460/460/115 459/459/115
f 461/461/116 463/463/116 464/464/116
f 461/461/116 462/462/116 463/463/116
f 465/465/117 467/467/117 466/466/117
f 465/465/117 468/468/117 467/467/117
f 469/469/118 471/471/118 472/472/118
f 469/469/118 470/470/118 471/471/118
f 473/473/119 475/475/119 474/474/119
f 473/473/119 476/476/119 475/475/119
f 477/477/120 479/479/120 480/480/120
f 477/477/120 478/478/120 479/479/120
f 481/481/121 483/483/121 482/482/121
f 481/481/121 484/484/121 483/483/121
f 485/485/122 487/487/122 488/488/122
f 485/485/122 486/486/122 487/487/122
f 489/489/123 491/491/123 490/490/123
f 489/489/123 492/492/123 491/491/123
f 493/493/124 495/495/124 496/496/124
f 493/493/124 494/494/124 495/495/124
f 497/497/125 499/499/125 498/498/125
f 497/497/125 500/500/125 499/499/125
f 501/501/126 503/503/126 504/504/126
f 501/501/126 502/502/126 503/503/126
f 505/505/127 507/507/127 506/506/127
f 505/505/127 508/508/127 507/507/127
f 509/509/128 511/511/128 512/512/128
f 509/509/128 510/510/128 511/511/128
f 513/513/129 515/515/129 514/514/129
f 513/513/129 516/516/129 515/515/129
f 517/517/130 519/519/130 520/520/130
f 517/517/130 518/518/130 519/519/130
f 521/521/131 523/523/131 522/522/131
f 521/521/131 524/524/131 523/523/131
f 525/525/132 527/527/132 528/528/132
f 525/525/132 526/526/132 527/527/132
f 529/529/133 531/531/133 530/530/133
f 529/529/133 532/532/133 531/531/133
f 533/533/134 535/535/134 536/536/134
f 533/533/134 534/534/134 535/535/134
f 537/537/135 539/539/135 538/538/135
f 537/537/135 540/540/135 539/539/135
f 541/541/136 543/543/136 544/544/136
f 541/541/136 542/542/136 543/543/136
f 545/545/137 547/547/137 546/546/137
f 545/545/137 548/548/137 547/547/137
f 549/549/138 551/551/138 552/552/138
f 549/549/138 550/550/138 551/551/138
f 553/553/139 555/555/139 554/554/139
f 553/553/139 556/556/139 555/555/139
f 557/557/140 559/559/140 560/560/140
f 557/557/140 558/558/140 559/559/140
f 561/561/141 563/563/141 562/562/141
f 561/561/141 564/564/141 563/563/141
f 565/565/142 567/567/142 568/568/142
f 565/565/142 566/566/142 567/567/142
f 569/569/143 571/571/143 570/570/143
f 569/569/143 572/572/143 571/571/143
f 573/573/144 575/575/144 576/576/144
f 573/573/144 574/574/144 575/575/144
f 577/577/145 579/579/145 578/578/145
f 577/577/145 580/580/145 579/579/145
f 581/581/146 583/583/146 584/584/146
f 581/581/146 582/582/146 583/583/146
f 585/585/147 587/587/147 586/586/147
f 585/585/147 588/588/147 587/587/147
f 589/589/148 591/591/148 592/592/148
f 589/589/148 590/590/148 591/591/148
f 593/593/149 595/595/149 594/594/149
f 593/593/149 596/596/149 595/595/149
f 597/597/150 599/599/150 600/600/150
f 597/597/150 598/598/150 599/599/150
