# JudeanFloraV1; canonical UE cm (X east, +Y south, Z up), written with Y reflected and triangle winding reversed for the legacy OBJ importer adapter. One o object, no g groups, so the importer creates exactly one material slot.
# date palm (Phoenix dactylifera), LOD2 leaf
# height range 12.0-22.0 m, crown 6.0-9.0 m; source: Zohary, M., Plants of the Bible (Cambridge University Press, 1982), species entry Phoenix dactylifera; 12-22 m with a 6-9 m crown of pinnate fronds
# part kinds and their winding checks are recorded in vegetation-manifest.json
o SM_JudeanFloraV1_DatePalm_L2_Leaf
s off
v 90.07822 -35.43347 1332.22413
v 495.45754 -149.86313 1332.22413
v 536.08332 -161.33090 1447.26024
v 130.70400 -46.90123 1447.26024
v 90.07822 -35.43347 1332.22413
v 495.45754 -149.86313 1332.22413
v 536.08332 -161.33090 1447.26024
v 130.70400 -46.90123 1447.26024
v 84.41465 -38.66366 1334.45610
v 39.56261 -396.01588 1334.45610
v 34.87985 -433.32514 1432.24872
v 79.73189 -75.97291 1432.24872
v 84.41465 -38.66366 1334.45610
v 39.56261 -396.01588 1334.45610
v 34.87985 -433.32514 1432.24872
v 79.73189 -75.97291 1432.24872
v 77.18074 -33.36096 1299.80934
v -300.89826 -2.46198 1299.80934
v -363.45232 2.65032 1390.57667
v 14.62668 -28.24865 1390.57667
v 77.18074 -33.36096 1299.80934
v -300.89826 -2.46198 1299.80934
v -363.45232 2.65032 1390.57667
v 14.62668 -28.24865 1390.57667
v 85.57801 -28.13905 1327.22849
v 128.51278 407.21472 1327.22849
v 133.13686 454.10235 1445.44853
v 90.20209 18.74859 1445.44853
v 85.57801 -28.13905 1327.22849
v 128.51278 407.21472 1327.22849
v 133.13686 454.10235 1445.44853
v 90.20209 18.74859 1445.44853
vt 0.00200 0.49800
vt 0.49800 0.49800
vt 0.49800 0.00200
vt 0.00200 0.00200
vt 0.00200 0.49800
vt 0.49800 0.49800
vt 0.49800 0.00200
vt 0.00200 0.00200
vt 0.50200 0.49800
vt 0.99800 0.49800
vt 0.99800 0.00200
vt 0.50200 0.00200
vt 0.50200 0.49800
vt 0.99800 0.49800
vt 0.99800 0.00200
vt 0.50200 0.00200
vt 0.00200 0.99800
vt 0.49800 0.99800
vt 0.49800 0.50200
vt 0.00200 0.50200
vt 0.00200 0.99800
vt 0.49800 0.99800
vt 0.49800 0.50200
vt 0.00200 0.50200
vt 0.50200 0.99800
vt 0.99800 0.99800
vt 0.99800 0.50200
vt 0.50200 0.50200
vt 0.50200 0.99800
vt 0.99800 0.99800
vt 0.99800 0.50200
vt 0.50200 0.50200
vn 0.2717 0.9624 -0.0000
vn -0.2717 -0.9624 0.0000
vn 0.9922 -0.1245 0.0000
vn -0.9922 0.1245 0.0000
vn -0.0815 -0.9967 -0.0000
vn 0.0815 0.9967 -0.0000
vn -0.9952 0.0981 0.0000
vn 0.9952 -0.0981 -0.0000
f 1/1/1 3/3/1 2/2/1
f 1/1/1 4/4/1 3/3/1
f 5/5/2 7/7/2 8/8/2
f 5/5/2 6/6/2 7/7/2
f 9/9/3 11/11/3 10/10/3
f 9/9/3 12/12/3 11/11/3
f 13/13/4 15/15/4 16/16/4
f 13/13/4 14/14/4 15/15/4
f 17/17/5 19/19/5 18/18/5
f 17/17/5 20/20/5 19/19/5
f 21/21/6 23/23/6 24/24/6
f 21/21/6 22/22/6 23/23/6
f 25/25/7 27/27/7 26/26/7
f 25/25/7 28/28/7 27/27/7
f 29/29/8 31/31/8 32/32/8
f 29/29/8 30/30/8 31/31/8
