# JudeanFloraV1; canonical UE cm (X east, +Y south, Z up), written with Y reflected and triangle winding reversed for the legacy OBJ importer adapter. One o object, no g groups, so the importer creates exactly one material slot.
# terebinth (Pistacia palaestina / P. atlantica), LOD2 leaf
# height range 4.0-12.0 m, crown 4.0-12.0 m; source: Zohary, M., Plants of the Bible (Cambridge University Press, 1982), species entry Pistacia palaestina (3-8 m) and P. atlantica (10-15 m, very broad crown); the range spans both, which is why it is wide
# part kinds and their winding checks are recorded in vegetation-manifest.json
o SM_JudeanFloraV1_Terebinth_L2_Leaf
s off
v 494.52801 -294.17923 186.56461
v 289.06781 379.17217 186.56461
v 288.87615 379.11352 784.96458
v 494.33635 -294.23788 784.96458
v 494.52801 -294.17923 186.56461
v 289.06781 379.17217 186.56461
v 288.87615 379.11352 784.96458
v 494.33635 -294.23788 784.96458
v 255.50119 77.61345 127.95065
v -294.14632 517.50392 127.95065
v -233.30442 593.65068 718.35940
v 316.34308 153.76022 718.35940
v 255.50119 77.61345 127.95065
v -294.14632 517.50392 127.95065
v -233.30442 593.65068 718.35940
v 316.34308 153.76022 718.35940
v 477.24862 -5.66928 360.64996
v 89.68534 -593.38579 360.64996
v 56.75802 -571.70983 957.75004
v 444.32130 16.00668 957.75004
v 477.24862 -5.66928 360.64996
v 89.68534 -593.38579 360.64996
v 56.75802 -571.70983 957.75004
v 444.32130 16.00668 957.75004
v -57.89336 -339.31687 201.57049
v 469.30829 127.23904 201.57049
v 526.35765 62.87741 793.75755
v -0.84400 -403.67850 793.75755
v -57.89336 -339.31687 201.57049
v 469.30829 127.23904 201.57049
v 526.35765 62.87741 793.75755
v -0.84400 -403.67850 793.75755
v 406.15767 18.23040 361.01741
v -34.11259 567.57374 361.01741
v 4.33756 598.43986 957.38259
v 444.60782 49.09652 957.38259
v 406.15767 18.23040 361.01741
v -34.11259 567.57374 361.01741
v 4.33756 598.43986 957.38259
v 444.60782 49.09652 957.38259
v -315.62635 -481.22873 364.34222
v -96.51202 187.80409 364.34222
v -193.06994 219.34257 954.05778
v -412.18426 -449.69025 954.05778
v -315.62635 -481.22873 364.34222
v -96.51202 187.80409 364.34222
v -193.06994 219.34257 954.05778
v -412.18426 -449.69025 954.05778
v 476.45528 257.04358 231.26162
v -221.43991 349.55466 231.26162
v -216.86354 384.29067 828.63506
v 481.03165 291.77959 828.63506
v 476.45528 257.04358 231.26162
v -221.43991 349.55466 231.26162
v -216.86354 384.29067 828.63506
v 481.03165 291.77959 828.63506
v 344.01526 428.47845 362.62714
v 166.02114 -252.64863 362.62714
v 242.59091 -272.59294 955.77286
v 420.58503 408.53414 955.77286
v 344.01526 428.47845 362.62714
v 166.02114 -252.64863 362.62714
v 242.59091 -272.59294 955.77286
v 420.58503 408.53414 955.77286
v 82.37411 -313.18734 360.22210
v -506.13506 73.17125 360.22210
v -493.49891 92.45234 958.17790
v 95.01027 -293.90624 958.17790
v 82.37411 -313.18734 360.22210
v -506.13506 73.17125 360.22210
v -493.49891 92.45234 958.17790
v 95.01027 -293.90624 958.17790
v -590.83889 307.64874 232.06920
v 112.90024 288.48554 232.06920
v 112.66720 279.66946 830.40421
v -591.07194 298.83266 830.40421
v -590.83889 307.64874 232.06920
v 112.90024 288.48554 232.06920
v 112.66720 279.66946 830.40421
v -591.07194 298.83266 830.40421
vt 0.00200 0.49800
vt 0.49800 0.49800
vt 0.49800 0.00200
vt 0.00200 0.00200
vt 0.00200 0.49800
vt 0.49800 0.49800
vt 0.49800 0.00200
vt 0.00200 0.00200
vt 0.50200 0.49800
vt 0.99800 0.49800
vt 0.99800 0.00200
vt 0.50200 0.00200
vt 0.50200 0.49800
vt 0.99800 0.49800
vt 0.99800 0.00200
vt 0.50200 0.00200
vt 0.00200 0.99800
vt 0.49800 0.99800
vt 0.49800 0.50200
vt 0.00200 0.50200
vt 0.00200 0.99800
vt 0.49800 0.99800
vt 0.49800 0.50200
vt 0.00200 0.50200
vt 0.50200 0.99800
vt 0.99800 0.99800
vt 0.99800 0.50200
vt 0.50200 0.50200
vt 0.50200 0.99800
vt 0.99800 0.99800
vt 0.99800 0.50200
vt 0.50200 0.50200
vt 0.00200 0.49800
vt 0.49800 0.49800
vt 0.49800 0.00200
vt 0.00200 0.00200
vt 0.00200 0.49800
vt 0.49800 0.49800
vt 0.49800 0.00200
vt 0.00200 0.00200
vt 0.50200 0.49800
vt 0.99800 0.49800
vt 0.99800 0.00200
vt 0.50200 0.00200
vt 0.50200 0.49800
vt 0.99800 0.49800
vt 0.99800 0.00200
vt 0.50200 0.00200
vt 0.00200 0.99800
vt 0.49800 0.99800
vt 0.49800 0.50200
vt 0.00200 0.50200
vt 0.00200 0.99800
vt 0.49800 0.99800
vt 0.49800 0.50200
vt 0.00200 0.50200
vt 0.50200 0.99800
vt 0.99800 0.99800
vt 0.99800 0.50200
vt 0.50200 0.50200
vt 0.50200 0.99800
vt 0.99800 0.99800
vt 0.99800 0.50200
vt 0.50200 0.50200
vt 0.00200 0.49800
vt 0.49800 0.49800
vt 0.49800 0.00200
vt 0.00200 0.00200
vt 0.00200 0.49800
vt 0.49800 0.49800
vt 0.49800 0.00200
vt 0.00200 0.00200
vt 0.50200 0.49800
vt 0.99800 0.49800
vt 0.99800 0.00200
vt 0.50200 0.00200
vt 0.50200 0.49800
vt 0.99800 0.49800
vt 0.99800 0.00200
vt 0.50200 0.00200
vn -0.9565 -0.2918 -0.0003
vn 0.9565 0.2918 0.0003
vn -0.6165 -0.7703 0.1629
vn 0.6165 0.7703 -0.1629
vn 0.8330 -0.5493 0.0659
vn -0.8330 0.5493 -0.0659
vn -0.6558 0.7411 0.1437
vn 0.6558 -0.7411 -0.1437
vn -0.7777 -0.6233 0.0824
vn 0.7777 0.6233 -0.0824
vn -0.9365 0.3067 -0.1697
vn 0.9365 -0.3067 0.1697
vn -0.1312 -0.9896 0.0585
vn 0.1312 0.9896 -0.0585
vn 0.9590 -0.2506 -0.1322
vn -0.9590 0.2506 0.1322
vn -0.5484 -0.8353 0.0385
vn 0.5484 0.8353 -0.0385
vn 0.0272 0.9995 0.0147
vn -0.0272 -0.9995 -0.0147
f 1/1/1 3/3/1 2/2/1
f 1/1/1 4/4/1 3/3/1
f 5/5/2 7/7/2 8/8/2
f 5/5/2 6/6/2 7/7/2
f 9/9/3 11/11/3 10/10/3
f 9/9/3 12/12/3 11/11/3
f 13/13/4 15/15/4 16/16/4
f 13/13/4 14/14/4 15/15/4
f 17/17/5 19/19/5 18/18/5
f 17/17/5 20/20/5 19/19/5
f 21/21/6 23/23/6 24/24/6
f 21/21/6 22/22/6 23/23/6
f 25/25/7 27/27/7 26/26/7
f 25/25/7 28/28/7 27/27/7
f 29/29/8 31/31/8 32/32/8
f 29/29/8 30/30/8 31/31/8
f 33/33/9 35/35/9 34/34/9
f 33/33/9 36/36/9 35/35/9
f 37/37/10 39/39/10 40/40/10
f 37/37/10 38/38/10 39/39/10
f 41/41/11 43/43/11 42/42/11
f 41/41/11 44/44/11 43/43/11
f 45/45/12 47/47/12 48/48/12
f 45/45/12 46/46/12 47/47/12
f 49/49/13 51/51/13 50/50/13
f 49/49/13 52/52/13 51/51/13
f 53/53/14 55/55/14 56/56/14
f 53/53/14 54/54/14 55/55/14
f 57/57/15 59/59/15 58/58/15
f 57/57/15 60/60/15 59/59/15
f 61/61/16 63/63/16 64/64/16
f 61/61/16 62/62/16 63/63/16
f 65/65/17 67/67/17 66/66/17
f 65/65/17 68/68/17 67/67/17
f 69/69/18 71/71/18 72/72/18
f 69/69/18 70/70/18 71/71/18
f 73/73/19 75/75/19 74/74/19
f 73/73/19 76/76/19 75/75/19
f 77/77/20 79/79/20 80/80/20
f 77/77/20 78/78/20 79/79/20
