# JudeanFloraV1; canonical UE cm (X east, +Y south, Z up), written with Y reflected and triangle winding reversed for the legacy OBJ importer adapter. One o object, no g groups, so the importer creates exactly one material slot.
# olive (Olea europaea), LOD2 leaf
# height range 5.0-12.0 m, crown 4.0-8.0 m; source: Zohary, M., Plants of the Bible (Cambridge University Press, 1982), species entry Olea europaea; cultivated Judean groves run 5-10 m with a 4-8 m crown
# part kinds and their winding checks are recorded in vegetation-manifest.json
o SM_JudeanFloraV1_Olive_L2_Leaf
s off
v 489.14859 17.80301 173.67733
v -37.59692 54.17840 173.67733
v -40.74369 8.07649 620.09210
v 486.00182 -28.29889 620.09210
v 489.14859 17.80301 173.67733
v -37.59692 54.17840 173.67733
v -40.74369 8.07649 620.09210
v 486.00182 -28.29889 620.09210
v 256.25504 -359.84085 510.67759
v -208.70218 -109.64336 510.67759
v -225.83403 -141.54137 958.01466
v 239.12318 -391.73886 958.01466
v 256.25504 -359.84085 510.67759
v -208.70218 -109.64336 510.67759
v -225.83403 -141.54137 958.01466
v 239.12318 -391.73886 958.01466
v 94.42226 -74.50905 249.76785
v -404.41491 98.53855 249.76785
v -395.92564 123.07330 697.81630
v 102.91153 -49.97431 697.81630
v 94.42226 -74.50905 249.76785
v -404.41491 98.53855 249.76785
v -395.92564 123.07330 697.81630
v 102.91153 -49.97431 697.81630
v -119.10551 82.06336 469.57591
v -175.95536 -442.86720 469.57591
v -185.39524 -441.85247 918.27547
v -128.54538 83.07809 918.27547
v -119.10551 82.06336 469.57591
v -175.95536 -442.86720 469.57591
v -185.39524 -441.85247 918.27547
v -128.54538 83.07809 918.27547
v -258.19205 -323.65657 521.95129
v 104.84879 59.73012 521.95129
v 147.76298 19.15810 966.84871
v -215.27786 -364.22859 966.84871
v -258.19205 -323.65657 521.95129
v 104.84879 59.73012 521.95129
v 147.76298 19.15810 966.84871
v -215.27786 -364.22859 966.84871
v -74.05109 -109.88938 489.31514
v -383.39546 318.00086 489.31514
v -338.85497 350.25557 934.73317
v -29.51060 -77.63468 934.73317
v -74.05109 -109.88938 489.31514
v -383.39546 318.00086 489.31514
v -338.85497 350.25557 934.73317
v -29.51060 -77.63468 934.73317
v -164.45211 -163.64926 359.84163
v 363.40460 -151.34921 359.84163
v 361.95820 -91.32893 804.60777
v -165.89852 -103.62897 804.60777
v -164.45211 -163.64926 359.84163
v 363.40460 -151.34921 359.84163
v 361.95820 -91.32893 804.60777
v -165.89852 -103.62897 804.60777
v 239.93156 292.06148 511.50192
v 321.05227 -229.66970 511.50192
v 270.15638 -237.62470 957.33570
v 189.03567 284.10649 957.33570
v 239.93156 292.06148 511.50192
v 321.05227 -229.66970 511.50192
v 270.15638 -237.62470 957.33570
v 189.03567 284.10649 957.33570
v -197.95738 460.86982 426.46376
v 7.61236 -25.46862 426.46376
v 18.66295 -20.78728 875.10327
v -186.90679 465.55116 875.10327
v -197.95738 460.86982 426.46376
v 7.61236 -25.46862 426.46376
v 18.66295 -20.78728 875.10327
v -186.90679 465.55116 875.10327
v 252.96251 83.55398 308.65594
v 288.03374 -443.27997 308.65594
v 235.18922 -446.84009 754.31974
v 200.11800 79.99386 754.31974
v 252.96251 83.55398 308.65594
v 288.03374 -443.27997 308.65594
v 235.18922 -446.84009 754.31974
v 200.11800 79.99386 754.31974
vt 0.00200 0.49800
vt 0.49800 0.49800
vt 0.49800 0.00200
vt 0.00200 0.00200
vt 0.00200 0.49800
vt 0.49800 0.49800
vt 0.49800 0.00200
vt 0.00200 0.00200
vt 0.50200 0.49800
vt 0.99800 0.49800
vt 0.99800 0.00200
vt 0.50200 0.00200
vt 0.50200 0.49800
vt 0.99800 0.49800
vt 0.99800 0.00200
vt 0.50200 0.00200
vt 0.00200 0.99800
vt 0.49800 0.99800
vt 0.49800 0.50200
vt 0.00200 0.50200
vt 0.00200 0.99800
vt 0.49800 0.99800
vt 0.49800 0.50200
vt 0.00200 0.50200
vt 0.50200 0.99800
vt 0.99800 0.99800
vt 0.99800 0.50200
vt 0.50200 0.50200
vt 0.50200 0.99800
vt 0.99800 0.99800
vt 0.99800 0.50200
vt 0.50200 0.50200
vt 0.00200 0.49800
vt 0.49800 0.49800
vt 0.49800 0.00200
vt 0.00200 0.00200
vt 0.00200 0.49800
vt 0.49800 0.49800
vt 0.49800 0.00200
vt 0.00200 0.00200
vt 0.50200 0.49800
vt 0.99800 0.49800
vt 0.99800 0.00200
vt 0.50200 0.00200
vt 0.50200 0.49800
vt 0.99800 0.49800
vt 0.99800 0.00200
vt 0.50200 0.00200
vt 0.00200 0.99800
vt 0.49800 0.99800
vt 0.49800 0.50200
vt 0.00200 0.50200
vt 0.00200 0.99800
vt 0.49800 0.99800
vt 0.49800 0.50200
vt 0.00200 0.50200
vt 0.50200 0.99800
vt 0.99800 0.99800
vt 0.99800 0.50200
vt 0.50200 0.50200
vt 0.50200 0.99800
vt 0.99800 0.99800
vt 0.99800 0.50200
vt 0.50200 0.50200
vt 0.00200 0.49800
vt 0.49800 0.49800
vt 0.49800 0.00200
vt 0.00200 0.00200
vt 0.00200 0.49800
vt 0.49800 0.49800
vt 0.49800 0.00200
vt 0.00200 0.00200
vt 0.50200 0.49800
vt 0.99800 0.49800
vt 0.99800 0.00200
vt 0.50200 0.00200
vt 0.50200 0.49800
vt 0.99800 0.49800
vt 0.99800 0.00200
vt 0.50200 0.00200
vn -0.0685 -0.9923 -0.1030
vn 0.0685 0.9923 0.1030
vn -0.4723 -0.8777 -0.0807
vn 0.4723 0.8777 0.0807
vn -0.3272 -0.9432 0.0578
vn 0.3272 0.9432 -0.0578
vn 0.9940 -0.1076 0.0212
vn -0.9940 0.1076 -0.0212
vn -0.7198 0.6816 0.1316
vn 0.7198 -0.6816 -0.1316
vn -0.8043 -0.5815 0.1225
vn 0.8043 0.5815 -0.1225
vn -0.0231 0.9907 -0.1338
vn 0.0231 -0.9907 0.1338
vn 0.9816 0.1526 0.1148
vn -0.9816 -0.1526 -0.1148
vn 0.9208 0.3892 -0.0267
vn -0.9208 -0.3892 0.0267
vn 0.9908 0.0660 0.1180
vn -0.9908 -0.0660 -0.1180
f 1/1/1 3/3/1 2/2/1
f 1/1/1 4/4/1 3/3/1
f 5/5/2 7/7/2 8/8/2
f 5/5/2 6/6/2 7/7/2
f 9/9/3 11/11/3 10/10/3
f 9/9/3 12/12/3 11/11/3
f 13/13/4 15/15/4 16/16/4
f 13/13/4 14/14/4 15/15/4
f 17/17/5 19/19/5 18/18/5
f 17/17/5 20/20/5 19/19/5
f 21/21/6 23/23/6 24/24/6
f 21/21/6 22/22/6 23/23/6
f 25/25/7 27/27/7 26/26/7
f 25/25/7 28/28/7 27/27/7
f 29/29/8 31/31/8 32/32/8
f 29/29/8 30/30/8 31/31/8
f 33/33/9 35/35/9 34/34/9
f 33/33/9 36/36/9 35/35/9
f 37/37/10 39/39/10 40/40/10
f 37/37/10 38/38/10 39/39/10
f 41/41/11 43/43/11 42/42/11
f 41/41/11 44/44/11 43/43/11
f 45/45/12 47/47/12 48/48/12
f 45/45/12 46/46/12 47/47/12
f 49/49/13 51/51/13 50/50/13
f 49/49/13 52/52/13 51/51/13
f 53/53/14 55/55/14 56/56/14
f 53/53/14 54/54/14 55/55/14
f 57/57/15 59/59/15 58/58/15
f 57/57/15 60/60/15 59/59/15
f 61/61/16 63/63/16 64/64/16
f 61/61/16 62/62/16 63/63/16
f 65/65/17 67/67/17 66/66/17
f 65/65/17 68/68/17 67/67/17
f 69/69/18 71/71/18 72/72/18
f 69/69/18 70/70/18 71/71/18
f 73/73/19 75/75/19 74/74/19
f 73/73/19 76/76/19 75/75/19
f 77/77/20 79/79/20 80/80/20
f 77/77/20 78/78/20 79/79/20
