# JudeanFloraV1; canonical UE cm (X east, +Y south, Z up), written with Y reflected and triangle winding reversed for the legacy OBJ importer adapter. One o object, no g groups, so the importer creates exactly one material slot.
# Jerusalem pine (Pinus halepensis), LOD2 leaf
# height range 10.0-20.0 m, crown 5.0-9.0 m; source: Zohary & Feinbrun-Dothan, Flora Palaestina vols I-IV (Israel Academy of Sciences, 1966-1986), species entry Pinus halepensis; 10-20 m in the Judean hills, taller only on deep soil
# part kinds and their winding checks are recorded in vegetation-manifest.json
o SM_JudeanFloraV1_JerusalemPine_L2_Leaf
s off
v -369.22067 54.03668 1054.97100
v -149.87851 71.03718 1054.97100
v -151.05765 86.09492 1274.45192
v -370.39981 69.09442 1274.45192
v -369.22067 54.03668 1054.97100
v -149.87851 71.03718 1054.97100
v -151.05765 86.09492 1274.45192
v -370.39981 69.09442 1274.45192
v 61.29545 182.55158 552.00923
v -21.15211 -21.41509 552.00923
v -21.90386 -21.11191 772.00774
v 60.54370 182.85475 772.00774
v 61.29545 182.55158 552.00923
v -21.15211 -21.41509 552.00923
v -21.90386 -21.11191 772.00774
v 60.54370 182.85475 772.00774
v -101.53423 10.46447 849.66454
v -112.29139 -209.27238 849.66454
v -129.29610 -208.45349 1069.00485
v -118.53894 11.28336 1069.00485
v -101.53423 10.46447 849.66454
v -112.29139 -209.27238 849.66454
v -129.29610 -208.45349 1069.00485
v -118.53894 11.28336 1069.00485
v 111.53970 -365.97161 1028.11178
v -32.46570 -199.65130 1028.11178
v -24.46080 -192.70925 1247.85647
v 119.54460 -359.02955 1247.85647
v 111.53970 -365.97161 1028.11178
v -32.46570 -199.65130 1028.11178
v -24.46080 -192.70925 1247.85647
v 119.54460 -359.02955 1247.85647
v 148.57502 -200.62414 1288.11211
v 253.36754 -7.18544 1288.11211
v 222.16492 9.68598 1505.23362
v 117.37241 -183.75272 1505.23362
v 148.57502 -200.62414 1288.11211
v 253.36754 -7.18544 1288.11211
v 222.16492 9.68598 1505.23362
v 117.37241 -183.75272 1505.23362
v -70.84491 -106.59400 711.91632
v -288.79048 -76.59854 711.91632
v -290.84082 -91.58458 931.39574
v -72.89525 -121.58003 931.39574
v -70.84491 -106.59400 711.91632
v -288.79048 -76.59854 711.91632
v -290.84082 -91.58458 931.39574
v -72.89525 -121.58003 931.39574
v -164.82948 276.62088 872.61574
v -288.04782 94.36491 872.61574
v -258.15570 74.19032 1089.63981
v -134.93736 256.44629 1089.63981
v -164.82948 276.62088 872.61574
v -288.04782 94.36491 872.61574
v -258.15570 74.19032 1089.63981
v -134.93736 256.44629 1089.63981
v -4.67781 16.26007 635.20252
v 163.75066 157.79400 635.20252
v 165.00363 156.30534 855.19392
v -3.42483 14.77141 855.19392
v -4.67781 16.26007 635.20252
v 163.75066 157.79400 635.20252
v 165.00363 156.30534 855.19392
v -3.42483 14.77141 855.19392
v -242.72144 177.26622 843.64122
v -66.69184 309.22674 843.64122
v -67.43101 310.21113 1063.63778
v -243.46061 178.25061 1063.63778
v -242.72144 177.26622 843.64122
v -66.69184 309.22674 843.64122
v -67.43101 310.21113 1063.63778
v -243.46061 178.25061 1063.63778
v -186.94530 -133.63479 1320.56316
v -116.05923 74.63227 1320.56316
v -93.93675 67.12228 1539.31918
v -164.82281 -141.14478 1539.31918
v -186.94530 -133.63479 1320.56316
v -116.05923 74.63227 1320.56316
v -93.93675 67.12228 1539.31918
v -164.82281 -141.14478 1539.31918
v -343.79041 249.18595 984.87068
v -164.93415 121.08272 984.87068
v -162.78046 124.09475 1204.83952
v -341.63672 252.19798 1204.83952
v -343.79041 249.18595 984.87068
v -164.93415 121.08272 984.87068
v -162.78046 124.09475 1204.83952
v -341.63672 252.19798 1204.83952
v 18.41872 230.30655 1005.63745
v 224.32110 307.79337 1005.63745
v 236.60643 275.22679 1222.86656
v 30.70405 197.73996 1222.86656
v 18.41872 230.30655 1005.63745
v 224.32110 307.79337 1005.63745
v 236.60643 275.22679 1222.86656
v 30.70405 197.73996 1222.86656
v 138.07993 -258.27570 700.84365
v 5.84030 -82.45569 700.84365
v 15.49833 -75.17953 920.51108
v 147.73797 -250.99955 920.51108
v 138.07993 -258.27570 700.84365
v 5.84030 -82.45569 700.84365
v 15.49833 -75.17953 920.51108
v 147.73797 -250.99955 920.51108
v -143.53735 319.92548 1142.42499
v 30.76391 185.69034 1142.42499
v 48.51307 208.77523 1360.48933
v -125.78818 343.01037 1360.48933
v -143.53735 319.92548 1142.42499
v 30.76391 185.69034 1142.42499
v 48.51307 208.77523 1360.48933
v -125.78818 343.01037 1360.48933
v -37.61213 -127.09969 1183.36201
v 182.26084 -134.57496 1183.36201
v 181.70709 -151.25376 1402.72817
v -38.16588 -143.77849 1402.72817
v -37.61213 -127.09969 1183.36201
v 182.26084 -134.57496 1183.36201
v 181.70709 -151.25376 1402.72817
v -38.16588 -143.77849 1402.72817
v 88.48576 82.44132 504.24541
v -130.22682 106.20697 504.24541
v -131.37944 95.52028 723.98267
v 87.33314 71.75463 723.98267
v 88.48576 82.44132 504.24541
v -130.22682 106.20697 504.24541
v -131.37944 95.52028 723.98267
v 87.33314 71.75463 723.98267
v -12.68296 87.51455 702.53202
v -106.78550 286.37307 702.53202
v -134.29295 273.32935 920.41547
v -40.19041 74.47083 920.41547
v -12.68296 87.51455 702.53202
v -106.78550 286.37307 702.53202
v -134.29295 273.32935 920.41547
v -40.19041 74.47083 920.41547
v 50.21976 26.86608 514.61548
v -160.52935 89.99145 514.61548
v -158.48142 96.84849 734.49905
v 52.26769 33.72311 734.49905
v 50.21976 26.86608 514.61548
v -160.52935 89.99145 514.61548
v -158.48142 96.84849 734.49905
v 52.26769 33.72311 734.49905
v 235.25413 34.45981 710.34021
v 20.91864 -15.14158 710.34021
v 22.43239 -21.65911 930.23844
v 236.76788 27.94228 930.23844
v 235.25413 34.45981 710.34021
v 20.91864 -15.14158 710.34021
v 22.43239 -21.65911 930.23844
v 236.76788 27.94228 930.23844
v 16.09910 98.40820 1072.62859
v 23.81093 318.27299 1072.62859
v 29.40587 318.08121 1292.55735
v 21.69404 98.21642 1292.55735
v 16.09910 98.40820 1072.62859
v 23.81093 318.27299 1072.62859
v 29.40587 318.08121 1292.55735
v 21.69404 98.21642 1292.55735
v -215.32851 272.34929 906.45904
v -127.00145 70.85901 906.45904
v -149.35820 61.03728 1125.09964
v -237.68526 262.52756 1125.09964
v -215.32851 272.34929 906.45904
v -127.00145 70.85901 906.45904
v -149.35820 61.03728 1125.09964
v -237.68526 262.52756 1125.09964
v -243.92885 147.12624 847.68616
v -90.07522 -10.12852 847.68616
v -69.07080 10.45437 1065.71175
v -222.92443 167.70913 1065.71175
v -243.92885 147.12624 847.68616
v -90.07522 -10.12852 847.68616
v -69.07080 10.45437 1065.71175
v -222.92443 167.70913 1065.71175
v 23.72176 167.05277 813.48851
v -84.65539 358.50614 813.48851
v -60.42107 372.25010 1031.71729
v 47.95608 180.79673 1031.71729
v 23.72176 167.05277 813.48851
v -84.65539 358.50614 813.48851
v -60.42107 372.25010 1031.71729
v 47.95608 180.79673 1031.71729
v 92.20548 -175.32361 737.65675
v -127.61007 -184.33060 737.65675
v -128.56677 -161.42818 956.45932
v 91.24878 -152.42119 956.45932
v 92.20548 -175.32361 737.65675
v -127.61007 -184.33060 737.65675
v -128.56677 -161.42818 956.45932
v 91.24878 -152.42119 956.45932
v -33.19356 285.88716 1267.01539
v -210.29272 155.36556 1267.01539
v -210.08571 155.08515 1487.01511
v -32.98655 285.60675 1487.01511
v -33.19356 285.88716 1267.01539
v -210.29272 155.36556 1267.01539
v -210.08571 155.08515 1487.01511
v -32.98655 285.60675 1487.01511
v 162.88709 -154.52860 739.23055
v -56.76983 -142.24695 739.23055
v -58.18755 -167.97038 957.71693
v 161.46936 -180.25203 957.71693
v 162.88709 -154.52860 739.23055
v -56.76983 -142.24695 739.23055
v -58.18755 -167.97038 957.71693
v 161.46936 -180.25203 957.71693
v -41.48857 199.02869 894.77961
v -255.96115 248.03393 894.77961
v -257.40230 241.70349 1114.68379
v -42.92972 192.69825 1114.68379
v -41.48857 199.02869 894.77961
v -255.96115 248.03393 894.77961
v -257.40230 241.70349 1114.68379
v -42.92972 192.69825 1114.68379
v -58.70848 141.12647 643.70471
v -270.97335 83.30237 643.70471
v -267.10513 69.14709 863.21476
v -54.84026 126.97118 863.21476
v -58.70848 141.12647 643.70471
v -270.97335 83.30237 643.70471
v -267.10513 69.14709 863.21476
v -54.84026 126.97118 863.21476
v 8.91156 260.29013 741.12223
v -180.53942 148.44950 741.12223
v -177.30611 142.98242 961.03052
v 12.14487 254.82306 961.03052
v 8.91156 260.29013 741.12223
v -180.53942 148.44950 741.12223
v -177.30611 142.98242 961.03052
v 12.14487 254.82306 961.03052
v -319.70328 154.54569 1086.22829
v -293.22178 -63.85470 1086.22829
v -298.25545 -64.46911 1306.16984
v -324.73694 153.93128 1306.16984
v -319.70328 154.54569 1086.22829
v -293.22178 -63.85470 1086.22829
v -298.25545 -64.46911 1306.16984
v -324.73694 153.93128 1306.16984
v 223.94622 16.94211 1362.53055
v 4.34893 30.24727 1362.53055
v 6.10111 59.55299 1580.56289
v 225.69840 46.24783 1580.56289
v 223.94622 16.94211 1362.53055
v 4.34893 30.24727 1362.53055
v 6.10111 59.55299 1580.56289
v 225.69840 46.24783 1580.56289
v -221.19453 58.36591 1002.31984
v -258.23150 -158.49410 1002.31984
v -295.35303 -152.18462 1219.07357
v -258.31606 64.67538 1219.07357
v -221.19453 58.36591 1002.31984
v -258.23150 -158.49410 1002.31984
v -295.35303 -152.18462 1219.07357
v -258.31606 64.67538 1219.07357
v 326.30367 102.17776 1175.92930
v 146.96120 -25.24389 1175.92930
v 126.04179 4.15000 1392.95090
v 305.38427 131.57165 1392.95090
v 326.30367 102.17776 1175.92930
v 146.96120 -25.24389 1175.92930
v 126.04179 4.15000 1392.95090
v 305.38427 131.57165 1392.95090
v -331.37077 39.87590 1199.23997
v -265.91345 -170.16062 1199.23997
v -231.52594 -159.41379 1416.26994
v -296.98326 50.62273 1416.26994
v -331.37077 39.87590 1199.23997
v -265.91345 -170.16062 1199.23997
v -231.52594 -159.41379 1416.26994
v -296.98326 50.62273 1416.26994
v 144.42836 10.04428 813.97680
v 69.02782 -196.63121 813.97680
v 62.84026 -194.37941 1033.87824
v 138.24080 12.29608 1033.87824
v 144.42836 10.04428 813.97680
v 69.02782 -196.63121 813.97680
v 62.84026 -194.37941 1033.87824
v 138.24080 12.29608 1033.87824
v 61.18370 -27.48686 530.73670
v -145.15409 -103.80671 530.73670
v -141.57530 -113.45865 750.49573
v 64.76248 -37.13881 750.49573
v 61.18370 -27.48686 530.73670
v -145.15409 -103.80671 530.73670
v -141.57530 -113.45865 750.49573
v 64.76248 -37.13881 750.49573
v 140.77873 45.52428 494.94392
v -47.31779 -68.57962 494.94392
v -43.48901 -74.87993 714.82035
v 144.60751 39.22397 714.82035
v 140.77873 45.52428 494.94392
v -47.31779 -68.57962 494.94392
v -43.48901 -74.87993 714.82035
v 144.60751 39.22397 714.82035
v 109.02074 177.66804 1158.11449
v -25.03844 352.10466 1158.11449
v -2.86420 369.17426 1376.32753
v 131.19498 194.73764 1376.32753
v 109.02074 177.66804 1158.11449
v -25.03844 352.10466 1158.11449
v -2.86420 369.17426 1376.32753
v 131.19498 194.73764 1376.32753
v 8.66908 255.67302 597.46194
v 27.98493 36.52262 597.46194
v 65.64300 39.87202 814.18907
v 46.32715 259.02242 814.18907
v 8.66908 255.67302 597.46194
v 27.98493 36.52262 597.46194
v 65.64300 39.87202 814.18907
v 46.32715 259.02242 814.18907
v -14.17425 62.72094 661.69638
v -24.90810 282.45893 661.69638
v -34.60566 281.97748 881.48202
v -23.87180 62.23949 881.48202
v -14.17425 62.72094 661.69638
v -24.90810 282.45893 661.69638
v -34.60566 281.97748 881.48202
v -23.87180 62.23949 881.48202
v -199.96662 -29.92502 1372.11658
v -4.74026 71.49819 1372.11658
v -13.58654 88.49302 1591.28072
v -208.81290 -12.93019 1591.28072
v -199.96662 -29.92502 1372.11658
v -4.74026 71.49819 1372.11658
v -13.58654 88.49302 1591.28072
v -208.81290 -12.93019 1591.28072
v 131.93207 179.42388 761.54063
v 203.67123 -28.55086 761.54063
v 222.66151 -21.98339 980.62106
v 150.92234 185.99135 980.62106
v 131.93207 179.42388 761.54063
v 203.67123 -28.55086 761.54063
v 222.66151 -21.98339 980.62106
v 150.92234 185.99135 980.62106
v 178.84206 203.45359 849.44554
v 181.57804 -16.52940 849.44554
v 214.55726 -16.09296 1066.95918
v 211.82128 203.89002 1066.95918
v 178.84206 203.45359 849.44554
v 181.57804 -16.52940 849.44554
v 214.55726 -16.09296 1066.95918
v 211.82128 203.89002 1066.95918
v -68.70185 -15.86767 660.56502
v -192.25433 166.16195 660.56502
v -190.26312 167.51580 880.55184
v -66.71064 -14.51383 880.55184
v -68.70185 -15.86767 660.56502
v -192.25433 166.16195 660.56502
v -190.26312 167.51580 880.55184
v -66.71064 -14.51383 880.55184
v -119.27509 176.46323 1014.59402
v -337.19874 146.30891 1014.59402
v -332.85833 115.12396 1232.32931
v -114.93468 145.27827 1232.32931
v -119.27509 176.46323 1014.59402
v -337.19874 146.30891 1014.59402
v -332.85833 115.12396 1232.32931
v -114.93468 145.27827 1232.32931
v -25.43675 200.53881 534.77879
v -25.52405 -19.46118 534.77879
v -19.73927 -19.45886 754.70272
v -19.65197 200.54112 754.70272
v -25.43675 200.53881 534.77879
v -25.52405 -19.46118 534.77879
v -19.73927 -19.45886 754.70272
v -19.65197 200.54112 754.70272
v 12.41097 -124.49194 753.50747
v -183.27025 -225.03478 753.50747
v -169.07207 -252.61390 971.30968
v 26.60915 -152.07106 971.30968
v 12.41097 -124.49194 753.50747
v -183.27025 -225.03478 753.50747
v -169.07207 -252.61390 971.30968
v 26.60915 -152.07106 971.30968
v 329.45741 204.34210 931.84196
v 135.02808 101.39922 931.84196
v 133.70523 103.89290 1151.82385
v 328.13456 206.83577 1151.82385
v 329.45741 204.34210 931.84196
v 135.02808 101.39922 931.84196
v 133.70523 103.89290 1151.82385
v 328.13456 206.83577 1151.82385
v 38.16370 -34.07761 1062.50791
v 236.57995 -129.10914 1062.50791
v 233.22296 -136.13255 1282.37015
v 34.80671 -41.10102 1282.37015
v 38.16370 -34.07761 1062.50791
v 236.57995 -129.10914 1062.50791
v 233.22296 -136.13255 1282.37015
v 34.80671 -41.10102 1282.37015
v 5.31497 -108.78622 657.07994
v -200.41425 -186.73164 657.07994
v -205.46439 -173.43427 876.61963
v 0.26483 -95.48885 876.61963
v 5.31497 -108.78622 657.07994
v -200.41425 -186.73164 657.07994
v -205.46439 -173.43427 876.61963
v 0.26483 -95.48885 876.61963
v 52.36757 -288.36976 931.39700
v -162.07648 -239.23981 931.39700
v -159.74578 -229.02934 1151.14757
v 54.69827 -278.15928 1151.14757
v 52.36757 -288.36976 931.39700
v -162.07648 -239.23981 931.39700
v -159.74578 -229.02934 1151.14757
v 54.69827 -278.15928 1151.14757
v -154.58312 -138.50819 539.74862
v -58.74680 59.52059 539.74862
v -72.07192 65.95622 759.25038
v -167.90825 -132.07257 759.25038
v -154.58312 -138.50819 539.74862
v -58.74680 59.52059 539.74862
v -72.07192 65.95622 759.25038
v -167.90825 -132.07257 759.25038
v -93.61732 130.82876 532.23490
v -42.11102 -83.05696 532.23490
v -56.63524 -86.56681 751.72688
v -108.14154 127.31891 751.72688
v -93.61732 130.82876 532.23490
v -42.11102 -83.05696 532.23490
v -56.63524 -86.56681 751.72688
v -108.14154 127.31891 751.72688
v 108.28573 -151.19673 566.28143
v 6.33566 43.75501 566.28143
v 18.02174 49.87810 785.88549
v 119.97181 -145.07364 785.88549
v 108.28573 -151.19673 566.28143
v 6.33566 43.75501 566.28143
v 18.02174 49.87810 785.88549
v 119.97181 -145.07364 785.88549
v -87.20013 157.92803 1216.39225
v -245.37336 310.83725 1216.39225
v -270.51047 284.79331 1433.39419
v -112.33724 131.88409 1433.39419
v -87.20013 157.92803 1216.39225
v -245.37336 310.83725 1216.39225
v -270.51047 284.79331 1433.39419
v -112.33724 131.88409 1433.39419
v -136.93857 136.11929 932.51949
v -290.39083 293.76575 932.51949
v -313.71272 271.02814 1150.09497
v -160.26046 113.38169 1150.09497
v -136.93857 136.11929 932.51949
v -290.39083 293.76575 932.51949
v -313.71272 271.02814 1150.09497
v -160.26046 113.38169 1150.09497
v 247.23808 -18.85159 705.64282
v 49.62655 -115.54535 705.64282
v 62.13214 -141.05136 923.80114
v 259.74367 -44.35760 923.80114
v 247.23808 -18.85159 705.64282
v 49.62655 -115.54535 705.64282
v 62.13214 -141.05136 923.80114
v 259.74367 -44.35760 923.80114
v -201.68476 130.29369 1360.52421
v -4.82187 32.08472 1360.52421
v -12.08058 17.50537 1579.92055
v -208.94347 115.71434 1579.92055
v -201.68476 130.29369 1360.52421
v -4.82187 32.08472 1360.52421
v -12.08058 17.50537 1579.92055
v -208.94347 115.71434 1579.92055
v -161.77224 8.27308 559.80174
v -13.16029 170.49049 559.80174
v -36.36019 191.71061 777.54349
v -184.97213 29.49320 777.54349
v -161.77224 8.27308 559.80174
v -13.16029 170.49049 559.80174
v -36.36019 191.71061 777.54349
v -184.97213 29.49320 777.54349
v -149.62188 -37.34978 881.35263
v -362.07200 -94.48951 881.35263
v -359.67634 -103.36854 1101.16032
v -147.22623 -46.22881 1101.16032
v -149.62188 -37.34978 881.35263
v -362.07200 -94.48951 881.35263
v -359.67634 -103.36854 1101.16032
v -147.22623 -46.22881 1101.16032
v -55.69081 230.01655 1072.13951
v 157.68161 176.42355 1072.13951
v 156.79330 172.87491 1292.10909
v -56.57913 226.46790 1292.10909
v -55.69081 230.01655 1072.13951
v 157.68161 176.42355 1072.13951
v 156.79330 172.87491 1292.10909
v -56.57913 226.46790 1292.10909
v -59.77497 31.39163 1325.19004
v 44.09287 225.32841 1325.19004
v 30.24234 232.73222 1544.62875
v -73.62549 38.79545 1544.62875
v -59.77497 31.39163 1325.19004
v 44.09287 225.32841 1325.19004
v 30.24234 232.73222 1544.62875
v -73.62549 38.79545 1544.62875
v 298.22064 -14.46217 816.04146
v 85.79563 -71.69517 816.04146
v 78.12739 -43.32383 1034.06959
v 290.55240 13.90917 1034.06959
v 298.22064 -14.46217 816.04146
v 85.79563 -71.69517 816.04146
v 78.12739 -43.32383 1034.06959
v 290.55240 13.90917 1034.06959
v 189.60345 -141.07187 707.75116
v -23.72345 -194.84579 707.75116
v -21.71056 -202.80437 927.59795
v 191.61634 -149.03045 927.59795
v 189.60345 -141.07187 707.75116
v -23.72345 -194.84579 707.75116
v -21.71056 -202.80437 927.59795
v 191.61634 -149.03045 927.59795
v -200.13857 -36.97296 1008.73455
v -394.92714 65.28855 1008.73455
v -394.03434 66.99245 1228.72614
v -199.24578 -35.26906 1228.72614
v -200.13857 -36.97296 1008.73455
v -394.92714 65.28855 1008.73455
v -394.03434 66.99245 1228.72614
v -199.24578 -35.26906 1228.72614
v -108.67965 300.82772 702.31303
v -116.83016 80.97875 702.31303
v -134.49725 81.61964 921.60157
v -126.34674 301.46861 921.60157
v -108.67965 300.82772 702.31303
v -116.83016 80.97875 702.31303
v -134.49725 81.61964 921.60157
v -126.34674 301.46861 921.60157
v 36.08232 -214.14712 1156.03632
v 218.33013 -90.91670 1156.03632
v 231.22556 -109.95530 1374.83129
v 48.97775 -233.18572 1374.83129
v 36.08232 -214.14712 1156.03632
v 218.33013 -90.91670 1156.03632
v 231.22556 -109.95530 1374.83129
v 48.97775 -233.18572 1374.83129
v 114.18014 159.51639 625.14629
v -102.79740 123.17428 625.14629
v -100.64042 110.35886 844.76212
v 116.33712 146.70097 844.76212
v 114.18014 159.51639 625.14629
v -102.79740 123.17428 625.14629
v -100.64042 110.35886 844.76212
v 116.33712 146.70097 844.76212
v -212.72435 155.65101 1253.17922
v 4.39479 191.13735 1253.17922
v 6.90005 175.88551 1472.63560
v -210.21909 140.39918 1472.63560
v -212.72435 155.65101 1253.17922
v 4.39479 191.13735 1253.17922
v 6.90005 175.88551 1472.63560
v -210.21909 140.39918 1472.63560
v -187.38127 130.29867 534.02406
v -37.97182 -31.18449 534.02406
v -20.55208 -15.04143 752.73838
v -169.96154 146.44174 752.73838
v -187.38127 130.29867 534.02406
v -37.97182 -31.18449 534.02406
v -20.55208 -15.04143 752.73838
v -169.96154 146.44174 752.73838
v 152.30652 155.18622 1350.95679
v -67.50255 146.02253 1350.95679
v -65.95703 109.64636 1567.92311
v 153.85204 118.81005 1567.92311
v 152.30652 155.18622 1350.95679
v -67.50255 146.02253 1350.95679
v -65.95703 109.64636 1567.92311
v 153.85204 118.81005 1567.92311
v -84.57248 -24.46120 1287.48803
v -247.48918 -172.30622 1287.48803
v -261.19119 -157.23153 1506.54284
v -98.27450 -9.38651 1506.54284
v -84.57248 -24.46120 1287.48803
v -247.48918 -172.30622 1287.48803
v -261.19119 -157.23153 1506.54284
v -98.27450 -9.38651 1506.54284
v -75.58656 190.52263 536.94352
v -116.77983 -25.58640 536.94352
v -86.01881 -31.42448 754.70411
v -44.82554 184.68455 754.70411
v -75.58656 190.52263 536.94352
v -116.77983 -25.58640 536.94352
v -86.01881 -31.42448 754.70411
v -44.82554 184.68455 754.70411
v 44.69066 146.53220 1015.61513
v 253.13917 76.18152 1015.61513
v 242.37244 44.19575 1233.01106
v 33.92393 114.54643 1233.01106
v 44.69066 146.53220 1015.61513
v 253.13917 76.18152 1015.61513
v 242.37244 44.19575 1233.01106
v 33.92393 114.54643 1233.01106
v 13.68166 117.34616 591.53222
v 156.84459 -49.69986 591.53222
v 146.25257 -58.79215 811.08891
v 3.08964 108.25388 811.08891
v 13.68166 117.34616 591.53222
v 156.84459 -49.69986 591.53222
v 146.25257 -58.79215 811.08891
v 3.08964 108.25388 811.08891
vt 0.00000 2.00000
vt 2.00000 2.00000
vt 2.00000 0.00000
vt 0.00000 0.00000
vt 0.00000 2.00000
vt 2.00000 2.00000
vt 2.00000 0.00000
vt 0.00000 0.00000
vt 0.00000 2.00000
vt 2.00000 2.00000
vt 2.00000 0.00000
vt 0.00000 0.00000
vt 0.00000 2.00000
vt 2.00000 2.00000
vt 2.00000 0.00000
vt 0.00000 0.00000
vt 0.00000 2.00000
vt 2.00000 2.00000
vt 2.00000 0.00000
vt 0.00000 0.00000
vt 0.00000 2.00000
vt 2.00000 2.00000
vt 2.00000 0.00000
vt 0.00000 0.00000
vt 0.00000 2.00000
vt 2.00000 2.00000
vt 2.00000 0.00000
vt 0.00000 0.00000
vt 0.00000 2.00000
vt 2.00000 2.00000
vt 2.00000 0.00000
vt 0.00000 0.00000
vt 0.00000 2.00000
vt 2.00000 2.00000
vt 2.00000 0.00000
vt 0.00000 0.00000
vt 0.00000 2.00000
vt 2.00000 2.00000
vt 2.00000 0.00000
vt 0.00000 0.00000
vt 0.00000 2.00000
vt 2.00000 2.00000
vt 2.00000 0.00000
vt 0.00000 0.00000
vt 0.00000 2.00000
vt 2.00000 2.00000
vt 2.00000 0.00000
vt 0.00000 0.00000
vt 0.00000 2.00000
vt 2.00000 2.00000
vt 2.00000 0.00000
vt 0.00000 0.00000
vt 0.00000 2.00000
vt 2.00000 2.00000
vt 2.00000 0.00000
vt 0.00000 0.00000
vt 0.00000 2.00000
vt 2.00000 2.00000
vt 2.00000 0.00000
vt 0.00000 0.00000
vt 0.00000 2.00000
vt 2.00000 2.00000
vt 2.00000 0.00000
vt 0.00000 0.00000
vt 0.00000 2.00000
vt 2.00000 2.00000
vt 2.00000 0.00000
vt 0.00000 0.00000
vt 0.00000 2.00000
vt 2.00000 2.00000
vt 2.00000 0.00000
vt 0.00000 0.00000
vt 0.00000 2.00000
vt 2.00000 2.00000
vt 2.00000 0.00000
vt 0.00000 0.00000
vt 0.00000 2.00000
vt 2.00000 2.00000
vt 2.00000 0.00000
vt 0.00000 0.00000
vt 0.00000 2.00000
vt 2.00000 2.00000
vt 2.00000 0.00000
vt 0.00000 0.00000
vt 0.00000 2.00000
vt 2.00000 2.00000
vt 2.00000 0.00000
vt 0.00000 0.00000
vt 0.00000 2.00000
vt 2.00000 2.00000
vt 2.00000 0.00000
vt 0.00000 0.00000
vt 0.00000 2.00000
vt 2.00000 2.00000
vt 2.00000 0.00000
vt 0.00000 0.00000
vt 0.00000 2.00000
vt 2.00000 2.00000
vt 2.00000 0.00000
vt 0.00000 0.00000
vt 0.00000 2.00000
vt 2.00000 2.00000
vt 2.00000 0.00000
vt 0.00000 0.00000
vt 0.00000 2.00000
vt 2.00000 2.00000
vt 2.00000 0.00000
vt 0.00000 0.00000
vt 0.00000 2.00000
vt 2.00000 2.00000
vt 2.00000 0.00000
vt 0.00000 0.00000
vt 0.00000 2.00000
vt 2.00000 2.00000
vt 2.00000 0.00000
vt 0.00000 0.00000
vt 0.00000 2.00000
vt 2.00000 2.00000
vt 2.00000 0.00000
vt 0.00000 0.00000
vt 0.00000 2.00000
vt 2.00000 2.00000
vt 2.00000 0.00000
vt 0.00000 0.00000
vt 0.00000 2.00000
vt 2.00000 2.00000
vt 2.00000 0.00000
vt 0.00000 0.00000
vt 0.00000 2.00000
vt 2.00000 2.00000
vt 2.00000 0.00000
vt 0.00000 0.00000
vt 0.00000 2.00000
vt 2.00000 2.00000
vt 2.00000 0.00000
vt 0.00000 0.00000
vt 0.00000 2.00000
vt 2.00000 2.00000
vt 2.00000 0.00000
vt 0.00000 0.00000
vt 0.00000 2.00000
vt 2.00000 2.00000
vt 2.00000 0.00000
vt 0.00000 0.00000
vt 0.00000 2.00000
vt 2.00000 2.00000
vt 2.00000 0.00000
vt 0.00000 0.00000
vt 0.00000 2.00000
vt 2.00000 2.00000
vt 2.00000 0.00000
vt 0.00000 0.00000
vt 0.00000 2.00000
vt 2.00000 2.00000
vt 2.00000 0.00000
vt 0.00000 0.00000
vt 0.00000 2.00000
vt 2.00000 2.00000
vt 2.00000 0.00000
vt 0.00000 0.00000
vt 0.00000 2.00000
vt 2.00000 2.00000
vt 2.00000 0.00000
vt 0.00000 0.00000
vt 0.00000 2.00000
vt 2.00000 2.00000
vt 2.00000 0.00000
vt 0.00000 0.00000
vt 0.00000 2.00000
vt 2.00000 2.00000
vt 2.00000 0.00000
vt 0.00000 0.00000
vt 0.00000 2.00000
vt 2.00000 2.00000
vt 2.00000 0.00000
vt 0.00000 0.00000
vt 0.00000 2.00000
vt 2.00000 2.00000
vt 2.00000 0.00000
vt 0.00000 0.00000
vt 0.00000 2.00000
vt 2.00000 2.00000
vt 2.00000 0.00000
vt 0.00000 0.00000
vt 0.00000 2.00000
vt 2.00000 2.00000
vt 2.00000 0.00000
vt 0.00000 0.00000
vt 0.00000 2.00000
vt 2.00000 2.00000
vt 2.00000 0.00000
vt 0.00000 0.00000
vt 0.00000 2.00000
vt 2.00000 2.00000
vt 2.00000 0.00000
vt 0.00000 0.00000
vt 0.00000 2.00000
vt 2.00000 2.00000
vt 2.00000 0.00000
vt 0.00000 0.00000
vt 0.00000 2.00000
vt 2.00000 2.00000
vt 2.00000 0.00000
vt 0.00000 0.00000
vt 0.00000 2.00000
vt 2.00000 2.00000
vt 2.00000 0.00000
vt 0.00000 0.00000
vt 0.00000 2.00000
vt 2.00000 2.00000
vt 2.00000 0.00000
vt 0.00000 0.00000
vt 0.00000 2.00000
vt 2.00000 2.00000
vt 2.00000 0.00000
vt 0.00000 0.00000
vt 0.00000 2.00000
vt 2.00000 2.00000
vt 2.00000 0.00000
vt 0.00000 0.00000
vt 0.00000 2.00000
vt 2.00000 2.00000
vt 2.00000 0.00000
vt 0.00000 0.00000
vt 0.00000 2.00000
vt 2.00000 2.00000
vt 2.00000 0.00000
vt 0.00000 0.00000
vt 0.00000 2.00000
vt 2.00000 2.00000
vt 2.00000 0.00000
vt 0.00000 0.00000
vt 0.00000 2.00000
vt 2.00000 2.00000
vt 2.00000 0.00000
vt 0.00000 0.00000
vt 0.00000 2.00000
vt 2.00000 2.00000
vt 2.00000 0.00000
vt 0.00000 0.00000
vt 0.00000 2.00000
vt 2.00000 2.00000
vt 2.00000 0.00000
vt 0.00000 0.00000
vt 0.00000 2.00000
vt 2.00000 2.00000
vt 2.00000 0.00000
vt 0.00000 0.00000
vt 0.00000 2.00000
vt 2.00000 2.00000
vt 2.00000 0.00000
vt 0.00000 0.00000
vt 0.00000 2.00000
vt 2.00000 2.00000
vt 2.00000 0.00000
vt 0.00000 0.00000
vt 0.00000 2.00000
vt 2.00000 2.00000
vt 2.00000 0.00000
vt 0.00000 0.00000
vt 0.00000 2.00000
vt 2.00000 2.00000
vt 2.00000 0.00000
vt 0.00000 0.00000
vt 0.00000 2.00000
vt 2.00000 2.00000
vt 2.00000 0.00000
vt 0.00000 0.00000
vt 0.00000 2.00000
vt 2.00000 2.00000
vt 2.00000 0.00000
vt 0.00000 0.00000
vt 0.00000 2.00000
vt 2.00000 2.00000
vt 2.00000 0.00000
vt 0.00000 0.00000
vt 0.00000 2.00000
vt 2.00000 2.00000
vt 2.00000 0.00000
vt 0.00000 0.00000
vt 0.00000 2.00000
vt 2.00000 2.00000
vt 2.00000 0.00000
vt 0.00000 0.00000
vt 0.00000 2.00000
vt 2.00000 2.00000
vt 2.00000 0.00000
vt 0.00000 0.00000
vt 0.00000 2.00000
vt 2.00000 2.00000
vt 2.00000 0.00000
vt 0.00000 0.00000
vt 0.00000 2.00000
vt 2.00000 2.00000
vt 2.00000 0.00000
vt 0.00000 0.00000
vt 0.00000 2.00000
vt 2.00000 2.00000
vt 2.00000 0.00000
vt 0.00000 0.00000
vt 0.00000 2.00000
vt 2.00000 2.00000
vt 2.00000 0.00000
vt 0.00000 0.00000
vt 0.00000 2.00000
vt 2.00000 2.00000
vt 2.00000 0.00000
vt 0.00000 0.00000
vt 0.00000 2.00000
vt 2.00000 2.00000
vt 2.00000 0.00000
vt 0.00000 0.00000
vt 0.00000 2.00000
vt 2.00000 2.00000
vt 2.00000 0.00000
vt 0.00000 0.00000
vt 0.00000 2.00000
vt 2.00000 2.00000
vt 2.00000 0.00000
vt 0.00000 0.00000
vt 0.00000 2.00000
vt 2.00000 2.00000
vt 2.00000 0.00000
vt 0.00000 0.00000
vt 0.00000 2.00000
vt 2.00000 2.00000
vt 2.00000 0.00000
vt 0.00000 0.00000
vt 0.00000 2.00000
vt 2.00000 2.00000
vt 2.00000 0.00000
vt 0.00000 0.00000
vt 0.00000 2.00000
vt 2.00000 2.00000
vt 2.00000 0.00000
vt 0.00000 0.00000
vt 0.00000 2.00000
vt 2.00000 2.00000
vt 2.00000 0.00000
vt 0.00000 0.00000
vt 0.00000 2.00000
vt 2.00000 2.00000
vt 2.00000 0.00000
vt 0.00000 0.00000
vt 0.00000 2.00000
vt 2.00000 2.00000
vt 2.00000 0.00000
vt 0.00000 0.00000
vt 0.00000 2.00000
vt 2.00000 2.00000
vt 2.00000 0.00000
vt 0.00000 0.00000
vt 0.00000 2.00000
vt 2.00000 2.00000
vt 2.00000 0.00000
vt 0.00000 0.00000
vt 0.00000 2.00000
vt 2.00000 2.00000
vt 2.00000 0.00000
vt 0.00000 0.00000
vt 0.00000 2.00000
vt 2.00000 2.00000
vt 2.00000 0.00000
vt 0.00000 0.00000
vt 0.00000 2.00000
vt 2.00000 2.00000
vt 2.00000 0.00000
vt 0.00000 0.00000
vt 0.00000 2.00000
vt 2.00000 2.00000
vt 2.00000 0.00000
vt 0.00000 0.00000
vt 0.00000 2.00000
vt 2.00000 2.00000
vt 2.00000 0.00000
vt 0.00000 0.00000
vt 0.00000 2.00000
vt 2.00000 2.00000
vt 2.00000 0.00000
vt 0.00000 0.00000
vt 0.00000 2.00000
vt 2.00000 2.00000
vt 2.00000 0.00000
vt 0.00000 0.00000
vt 0.00000 2.00000
vt 2.00000 2.00000
vt 2.00000 0.00000
vt 0.00000 0.00000
vt 0.00000 2.00000
vt 2.00000 2.00000
vt 2.00000 0.00000
vt 0.00000 0.00000
vt 0.00000 2.00000
vt 2.00000 2.00000
vt 2.00000 0.00000
vt 0.00000 0.00000
vt 0.00000 2.00000
vt 2.00000 2.00000
vt 2.00000 0.00000
vt 0.00000 0.00000
vt 0.00000 2.00000
vt 2.00000 2.00000
vt 2.00000 0.00000
vt 0.00000 0.00000
vt 0.00000 2.00000
vt 2.00000 2.00000
vt 2.00000 0.00000
vt 0.00000 0.00000
vt 0.00000 2.00000
vt 2.00000 2.00000
vt 2.00000 0.00000
vt 0.00000 0.00000
vt 0.00000 2.00000
vt 2.00000 2.00000
vt 2.00000 0.00000
vt 0.00000 0.00000
vt 0.00000 2.00000
vt 2.00000 2.00000
vt 2.00000 0.00000
vt 0.00000 0.00000
vt 0.00000 2.00000
vt 2.00000 2.00000
vt 2.00000 0.00000
vt 0.00000 0.00000
vt 0.00000 2.00000
vt 2.00000 2.00000
vt 2.00000 0.00000
vt 0.00000 0.00000
vt 0.00000 2.00000
vt 2.00000 2.00000
vt 2.00000 0.00000
vt 0.00000 0.00000
vt 0.00000 2.00000
vt 2.00000 2.00000
vt 2.00000 0.00000
vt 0.00000 0.00000
vt 0.00000 2.00000
vt 2.00000 2.00000
vt 2.00000 0.00000
vt 0.00000 0.00000
vt 0.00000 2.00000
vt 2.00000 2.00000
vt 2.00000 0.00000
vt 0.00000 0.00000
vt 0.00000 2.00000
vt 2.00000 2.00000
vt 2.00000 0.00000
vt 0.00000 0.00000
vt 0.00000 2.00000
vt 2.00000 2.00000
vt 2.00000 0.00000
vt 0.00000 0.00000
vt 0.00000 2.00000
vt 2.00000 2.00000
vt 2.00000 0.00000
vt 0.00000 0.00000
vt 0.00000 2.00000
vt 2.00000 2.00000
vt 2.00000 0.00000
vt 0.00000 0.00000
vt 0.00000 2.00000
vt 2.00000 2.00000
vt 2.00000 0.00000
vt 0.00000 0.00000
vt 0.00000 2.00000
vt 2.00000 2.00000
vt 2.00000 0.00000
vt 0.00000 0.00000
vt 0.00000 2.00000
vt 2.00000 2.00000
vt 2.00000 0.00000
vt 0.00000 0.00000
vt 0.00000 2.00000
vt 2.00000 2.00000
vt 2.00000 0.00000
vt 0.00000 0.00000
vt 0.00000 2.00000
vt 2.00000 2.00000
vt 2.00000 0.00000
vt 0.00000 0.00000
vt 0.00000 2.00000
vt 2.00000 2.00000
vt 2.00000 0.00000
vt 0.00000 0.00000
vt 0.00000 2.00000
vt 2.00000 2.00000
vt 2.00000 0.00000
vt 0.00000 0.00000
vt 0.00000 2.00000
vt 2.00000 2.00000
vt 2.00000 0.00000
vt 0.00000 0.00000
vt 0.00000 2.00000
vt 2.00000 2.00000
vt 2.00000 0.00000
vt 0.00000 0.00000
vt 0.00000 2.00000
vt 2.00000 2.00000
vt 2.00000 0.00000
vt 0.00000 0.00000
vt 0.00000 2.00000
vt 2.00000 2.00000
vt 2.00000 0.00000
vt 0.00000 0.00000
vt 0.00000 2.00000
vt 2.00000 2.00000
vt 2.00000 0.00000
vt 0.00000 0.00000
vt 0.00000 2.00000
vt 2.00000 2.00000
vt 2.00000 0.00000
vt 0.00000 0.00000
vt 0.00000 2.00000
vt 2.00000 2.00000
vt 2.00000 0.00000
vt 0.00000 0.00000
vt 0.00000 2.00000
vt 2.00000 2.00000
vt 2.00000 0.00000
vt 0.00000 0.00000
vt 0.00000 2.00000
vt 2.00000 2.00000
vt 2.00000 0.00000
vt 0.00000 0.00000
vt 0.00000 2.00000
vt 2.00000 2.00000
vt 2.00000 0.00000
vt 0.00000 0.00000
vt 0.00000 2.00000
vt 2.00000 2.00000
vt 2.00000 0.00000
vt 0.00000 0.00000
vt 0.00000 2.00000
vt 2.00000 2.00000
vt 2.00000 0.00000
vt 0.00000 0.00000
vt 0.00000 2.00000
vt 2.00000 2.00000
vt 2.00000 0.00000
vt 0.00000 0.00000
vt 0.00000 2.00000
vt 2.00000 2.00000
vt 2.00000 0.00000
vt 0.00000 0.00000
vt 0.00000 2.00000
vt 2.00000 2.00000
vt 2.00000 0.00000
vt 0.00000 0.00000
vt 0.00000 2.00000
vt 2.00000 2.00000
vt 2.00000 0.00000
vt 0.00000 0.00000
vt 0.00000 2.00000
vt 2.00000 2.00000
vt 2.00000 0.00000
vt 0.00000 0.00000
vt 0.00000 2.00000
vt 2.00000 2.00000
vt 2.00000 0.00000
vt 0.00000 0.00000
vt 0.00000 2.00000
vt 2.00000 2.00000
vt 2.00000 0.00000
vt 0.00000 0.00000
vt 0.00000 2.00000
vt 2.00000 2.00000
vt 2.00000 0.00000
vt 0.00000 0.00000
vt 0.00000 2.00000
vt 2.00000 2.00000
vt 2.00000 0.00000
vt 0.00000 0.00000
vt 0.00000 2.00000
vt 2.00000 2.00000
vt 2.00000 0.00000
vt 0.00000 0.00000
vt 0.00000 2.00000
vt 2.00000 2.00000
vt 2.00000 0.00000
vt 0.00000 0.00000
vt 0.00000 2.00000
vt 2.00000 2.00000
vt 2.00000 0.00000
vt 0.00000 0.00000
vt 0.00000 2.00000
vt 2.00000 2.00000
vt 2.00000 0.00000
vt 0.00000 0.00000
vt 0.00000 2.00000
vt 2.00000 2.00000
vt 2.00000 0.00000
vt 0.00000 0.00000
vt 0.00000 2.00000
vt 2.00000 2.00000
vt 2.00000 0.00000
vt 0.00000 0.00000
vt 0.00000 2.00000
vt 2.00000 2.00000
vt 2.00000 0.00000
vt 0.00000 0.00000
vn -0.0771 0.9947 -0.0687
vn 0.0771 -0.9947 0.0687
vn 0.9271 -0.3748 0.0037
vn -0.9271 0.3748 -0.0037
vn 0.9958 -0.0487 0.0774
vn -0.9958 0.0487 -0.0774
vn -0.7551 -0.6538 0.0482
vn 0.7551 0.6538 -0.0482
vn -0.8678 0.4701 -0.1612
vn 0.8678 -0.4701 0.1612
vn -0.1360 -0.9883 -0.0688
vn 0.1360 0.9883 0.0688
vn 0.8172 -0.5525 -0.1639
vn -0.8172 0.5525 0.1639
vn -0.6433 0.7656 0.0088
vn 0.6433 -0.7656 -0.0088
vn -0.5998 0.8001 -0.0056
vn 0.5998 -0.8001 0.0056
vn -0.9413 0.3204 0.1062
vn 0.9413 -0.3204 -0.1062
vn 0.5822 0.8129 -0.0168
vn -0.5822 -0.8129 0.0168
vn -0.3478 0.9241 0.1582
vn 0.3478 -0.9241 -0.1582
vn -0.7980 -0.6002 0.0550
vn 0.7980 0.6002 -0.0550
vn 0.6048 0.7853 -0.1324
vn -0.6048 -0.7853 0.1324
vn 0.0339 0.9965 0.0759
vn -0.0339 -0.9965 -0.0759
vn -0.1079 -0.9930 -0.0489
vn 0.1079 0.9930 0.0489
vn -0.8952 -0.4236 -0.1384
vn 0.8952 0.4236 0.1384
vn -0.2868 -0.9574 0.0325
vn 0.2868 0.9574 -0.0325
vn 0.2254 -0.9738 -0.0304
vn -0.2254 0.9738 0.0304
vn -0.9991 0.0350 0.0254
vn 0.9991 -0.0350 -0.0254
vn 0.9102 0.3990 0.1110
vn -0.9102 -0.3990 -0.1110
vn 0.7084 0.6931 -0.1337
vn -0.7084 -0.6931 0.1337
vn -0.8632 -0.4887 0.1266
vn 0.8632 0.4887 -0.1266
vn 0.0407 -0.9937 0.1042
vn -0.0407 0.9937 -0.1042
vn 0.5933 -0.8050 -0.0016
vn -0.5933 0.8050 0.0016
vn -0.0554 -0.9916 -0.1171
vn 0.0554 0.9916 0.1171
vn -0.2227 -0.9745 -0.0295
vn 0.2227 0.9745 0.0295
vn 0.2623 -0.9627 -0.0667
vn -0.2623 0.9627 0.0667
vn 0.5082 -0.8608 -0.0289
vn -0.5082 0.8608 0.0289
vn 0.9925 0.1203 0.0231
vn -0.9925 -0.1203 -0.0231
vn -0.0599 -0.9892 0.1334
vn 0.0599 0.9892 -0.1334
vn 0.9712 -0.1659 0.1712
vn -0.9712 0.1659 -0.1712
vn 0.5713 -0.8042 0.1640
vn -0.5713 0.8042 -0.1640
vn 0.9418 0.2935 -0.1638
vn -0.9418 -0.2935 0.1638
vn 0.9390 -0.3426 0.0299
vn -0.9390 0.3426 -0.0299
vn 0.3465 -0.9369 -0.0468
vn -0.3465 0.9369 0.0468
vn 0.5184 -0.8545 -0.0335
vn -0.5184 0.8545 0.0335
vn -0.7865 -0.6044 0.1272
vn 0.7865 0.6044 -0.1272
vn 0.9813 0.0865 -0.1718
vn -0.9813 -0.0865 0.1718
vn -0.9978 -0.0487 -0.0441
vn 0.9978 0.0487 0.0441
vn -0.4593 0.8840 -0.0871
vn 0.4593 -0.8840 0.0871
vn 0.9414 0.3247 -0.0913
vn -0.9414 -0.3247 0.0913
vn 0.9886 0.0123 -0.1499
vn -0.9886 -0.0123 0.1499
vn -0.8274 -0.5616 0.0109
vn 0.8274 0.5616 -0.0109
vn 0.1357 -0.9804 -0.1431
vn -0.1357 0.9804 0.1431
vn 0.9997 -0.0004 -0.0263
vn -0.9997 0.0004 0.0263
vn 0.4524 -0.8806 -0.1410
vn -0.4524 0.8806 0.1410
vn 0.4679 -0.8837 0.0128
vn -0.4679 0.8837 -0.0128
vn 0.4317 0.9013 0.0354
vn -0.4317 -0.9013 -0.0354
vn 0.3536 -0.9332 0.0647
vn -0.3536 0.9332 -0.0647
vn -0.2231 -0.9736 0.0476
vn 0.2231 0.9736 -0.0476
vn -0.8981 0.4346 -0.0673
vn 0.8981 -0.4346 0.0673
vn 0.9700 0.2336 0.0679
vn -0.9700 -0.2336 -0.0679
vn -0.8845 -0.4626 0.0600
vn 0.8845 0.4626 -0.0600
vn -0.6856 -0.7092 -0.1645
vn 0.6856 0.7092 0.1645
vn -0.7087 -0.6898 -0.1481
vn 0.7087 0.6898 0.1481
vn 0.4358 -0.8907 -0.1291
vn -0.4358 0.8907 0.1291
vn 0.4452 0.8924 0.0740
vn -0.4452 -0.8924 -0.0740
vn -0.7298 0.6686 -0.1429
vn 0.7298 -0.6686 0.1429
vn 0.2595 -0.9648 -0.0418
vn -0.2595 0.9648 0.0418
vn 0.2436 0.9697 0.0166
vn -0.2436 -0.9697 -0.0166
vn -0.8793 0.4709 -0.0714
vn 0.8793 -0.4709 0.0714
vn 0.2578 -0.9569 0.1336
vn -0.2578 0.9569 -0.1336
vn 0.2443 -0.9690 -0.0373
vn -0.2443 0.9690 0.0373
vn -0.4648 -0.8854 0.0087
vn 0.4648 0.8854 -0.0087
vn 0.9961 -0.0369 0.0804
vn -0.9961 0.0369 -0.0804
vn -0.5571 0.8239 0.1045
vn 0.5571 -0.8239 -0.1045
vn 0.1649 -0.9845 -0.0591
vn -0.1649 0.9845 0.0591
vn -0.1609 0.9845 0.0703
vn 0.1609 -0.9845 -0.0703
vn 0.7297 0.6752 -0.1080
vn -0.7297 -0.6752 0.1080
vn 0.0411 -0.9854 -0.1655
vn -0.0411 0.9854 0.1655
vn 0.6691 -0.7373 0.0926
vn -0.6691 0.7373 -0.0926
vn 0.9723 -0.1853 -0.1423
vn -0.9723 0.1853 0.1423
vn 0.3160 0.9363 0.1534
vn -0.3160 -0.9363 -0.1534
vn 0.7578 0.6494 0.0635
vn -0.7578 -0.6494 -0.0635
f 1/1/1 3/3/1 2/2/1
f 1/1/1 4/4/1 3/3/1
f 5/5/2 7/7/2 8/8/2
f 5/5/2 6/6/2 7/7/2
f 9/9/3 11/11/3 10/10/3
f 9/9/3 12/12/3 11/11/3
f 13/13/4 15/15/4 16/16/4
f 13/13/4 14/14/4 15/15/4
f 17/17/5 19/19/5 18/18/5
f 17/17/5 20/20/5 19/19/5
f 21/21/6 23/23/6 24/24/6
f 21/21/6 22/22/6 23/23/6
f 25/25/7 27/27/7 26/26/7
f 25/25/7 28/28/7 27/27/7
f 29/29/8 31/31/8 32/32/8
f 29/29/8 30/30/8 31/31/8
f 33/33/9 35/35/9 34/34/9
f 33/33/9 36/36/9 35/35/9
f 37/37/10 39/39/10 40/40/10
f 37/37/10 38/38/10 39/39/10
f 41/41/11 43/43/11 42/42/11
f 41/41/11 44/44/11 43/43/11
f 45/45/12 47/47/12 48/48/12
f 45/45/12 46/46/12 47/47/12
f 49/49/13 51/51/13 50/50/13
f 49/49/13 52/52/13 51/51/13
f 53/53/14 55/55/14 56/56/14
f 53/53/14 54/54/14 55/55/14
f 57/57/15 59/59/15 58/58/15
f 57/57/15 60/60/15 59/59/15
f 61/61/16 63/63/16 64/64/16
f 61/61/16 62/62/16 63/63/16
f 65/65/17 67/67/17 66/66/17
f 65/65/17 68/68/17 67/67/17
f 69/69/18 71/71/18 72/72/18
f 69/69/18 70/70/18 71/71/18
f 73/73/19 75/75/19 74/74/19
f 73/73/19 76/76/19 75/75/19
f 77/77/20 79/79/20 80/80/20
f 77/77/20 78/78/20 79/79/20
f 81/81/21 83/83/21 82/82/21
f 81/81/21 84/84/21 83/83/21
f 85/85/22 87/87/22 88/88/22
f 85/85/22 86/86/22 87/87/22
f 89/89/23 91/91/23 90/90/23
f 89/89/23 92/92/23 91/91/23
f 93/93/24 95/95/24 96/96/24
f 93/93/24 94/94/24 95/95/24
f 97/97/25 99/99/25 98/98/25
f 97/97/25 100/100/25 99/99/25
f 101/101/26 103/103/26 104/104/26
f 101/101/26 102/102/26 103/103/26
f 105/105/27 107/107/27 106/106/27
f 105/105/27 108/108/27 107/107/27
f 109/109/28 111/111/28 112/112/28
f 109/109/28 110/110/28 111/111/28
f 113/113/29 115/115/29 114/114/29
f 113/113/29 116/116/29 115/115/29
f 117/117/30 119/119/30 120/120/30
f 117/117/30 118/118/30 119/119/30
f 121/121/31 123/123/31 122/122/31
f 121/121/31 124/124/31 123/123/31
f 125/125/32 127/127/32 128/128/32
f 125/125/32 126/126/32 127/127/32
f 129/129/33 131/131/33 130/130/33
f 129/129/33 132/132/33 131/131/33
f 133/133/34 135/135/34 136/136/34
f 133/133/34 134/134/34 135/135/34
f 137/137/35 139/139/35 138/138/35
f 137/137/35 140/140/35 139/139/35
f 141/141/36 143/143/36 144/144/36
f 141/141/36 142/142/36 143/143/36
f 145/145/37 147/147/37 146/146/37
f 145/145/37 148/148/37 147/147/37
f 149/149/38 151/151/38 152/152/38
f 149/149/38 150/150/38 151/151/38
f 153/153/39 155/155/39 154/154/39
f 153/153/39 156/156/39 155/155/39
f 157/157/40 159/159/40 160/160/40
f 157/157/40 158/158/40 159/159/40
f 161/161/41 163/163/41 162/162/41
f 161/161/41 164/164/41 163/163/41
f 165/165/42 167/167/42 168/168/42
f 165/165/42 166/166/42 167/167/42
f 169/169/43 171/171/43 170/170/43
f 169/169/43 172/172/43 171/171/43
f 173/173/44 175/175/44 176/176/44
f 173/173/44 174/174/44 175/175/44
f 177/177/45 179/179/45 178/178/45
f 177/177/45 180/180/45 179/179/45
f 181/181/46 183/183/46 184/184/46
f 181/181/46 182/182/46 183/183/46
f 185/185/47 187/187/47 186/186/47
f 185/185/47 188/188/47 187/187/47
f 189/189/48 191/191/48 192/192/48
f 189/189/48 190/190/48 191/191/48
f 193/193/49 195/195/49 194/194/49
f 193/193/49 196/196/49 195/195/49
f 197/197/50 199/199/50 200/200/50
f 197/197/50 198/198/50 199/199/50
f 201/201/51 203/203/51 202/202/51
f 201/201/51 204/204/51 203/203/51
f 205/205/52 207/207/52 208/208/52
f 205/205/52 206/206/52 207/207/52
f 209/209/53 211/211/53 210/210/53
f 209/209/53 212/212/53 211/211/53
f 213/213/54 215/215/54 216/216/54
f 213/213/54 214/214/54 215/215/54
f 217/217/55 219/219/55 218/218/55
f 217/217/55 220/220/55 219/219/55
f 221/221/56 223/223/56 224/224/56
f 221/221/56 222/222/56 223/223/56
f 225/225/57 227/227/57 226/226/57
f 225/225/57 228/228/57 227/227/57
f 229/229/58 231/231/58 232/232/58
f 229/229/58 230/230/58 231/231/58
f 233/233/59 235/235/59 234/234/59
f 233/233/59 236/236/59 235/235/59
f 237/237/60 239/239/60 240/240/60
f 237/237/60 238/238/60 239/239/60
f 241/241/61 243/243/61 242/242/61
f 241/241/61 244/244/61 243/243/61
f 245/245/62 247/247/62 248/248/62
f 245/245/62 246/246/62 247/247/62
f 249/249/63 251/251/63 250/250/63
f 249/249/63 252/252/63 251/251/63
f 253/253/64 255/255/64 256/256/64
f 253/253/64 254/254/64 255/255/64
f 257/257/65 259/259/65 258/258/65
f 257/257/65 260/260/65 259/259/65
f 261/261/66 263/263/66 264/264/66
f 261/261/66 262/262/66 263/263/66
f 265/265/67 267/267/67 266/266/67
f 265/265/67 268/268/67 267/267/67
f 269/269/68 271/271/68 272/272/68
f 269/269/68 270/270/68 271/271/68
f 273/273/69 275/275/69 274/274/69
f 273/273/69 276/276/69 275/275/69
f 277/277/70 279/279/70 280/280/70
f 277/277/70 278/278/70 279/279/70
f 281/281/71 283/283/71 282/282/71
f 281/281/71 284/284/71 283/283/71
f 285/285/72 287/287/72 288/288/72
f 285/285/72 286/286/72 287/287/72
f 289/289/73 291/291/73 290/290/73
f 289/289/73 292/292/73 291/291/73
f 293/293/74 295/295/74 296/296/74
f 293/293/74 294/294/74 295/295/74
f 297/297/75 299/299/75 298/298/75
f 297/297/75 300/300/75 299/299/75
f 301/301/76 303/303/76 304/304/76
f 301/301/76 302/302/76 303/303/76
f 305/305/77 307/307/77 306/306/77
f 305/305/77 308/308/77 307/307/77
f 309/309/78 311/311/78 312/312/78
f 309/309/78 310/310/78 311/311/78
f 313/313/79 315/315/79 314/314/79
f 313/313/79 316/316/79 315/315/79
f 317/317/80 319/319/80 320/320/80
f 317/317/80 318/318/80 319/319/80
f 321/321/81 323/323/81 322/322/81
f 321/321/81 324/324/81 323/323/81
f 325/325/82 327/327/82 328/328/82
f 325/325/82 326/326/82 327/327/82
f 329/329/83 331/331/83 330/330/83
f 329/329/83 332/332/83 331/331/83
f 333/333/84 335/335/84 336/336/84
f 333/333/84 334/334/84 335/335/84
f 337/337/85 339/339/85 338/338/85
f 337/337/85 340/340/85 339/339/85
f 341/341/86 343/343/86 344/344/86
f 341/341/86 342/342/86 343/343/86
f 345/345/87 347/347/87 346/346/87
f 345/345/87 348/348/87 347/347/87
f 349/349/88 351/351/88 352/352/88
f 349/349/88 350/350/88 351/351/88
f 353/353/89 355/355/89 354/354/89
f 353/353/89 356/356/89 355/355/89
f 357/357/90 359/359/90 360/360/90
f 357/357/90 358/358/90 359/359/90
f 361/361/91 363/363/91 362/362/91
f 361/361/91 364/364/91 363/363/91
f 365/365/92 367/367/92 368/368/92
f 365/365/92 366/366/92 367/367/92
f 369/369/93 371/371/93 370/370/93
f 369/369/93 372/372/93 371/371/93
f 373/373/94 375/375/94 376/376/94
f 373/373/94 374/374/94 375/375/94
f 377/377/95 379/379/95 378/378/95
f 377/377/95 380/380/95 379/379/95
f 381/381/96 383/383/96 384/384/96
f 381/381/96 382/382/96 383/383/96
f 385/385/97 387/387/97 386/386/97
f 385/385/97 388/388/97 387/387/97
f 389/389/98 391/391/98 392/392/98
f 389/389/98 390/390/98 391/391/98
f 393/393/99 395/395/99 394/394/99
f 393/393/99 396/396/99 395/395/99
f 397/397/100 399/399/100 400/400/100
f 397/397/100 398/398/100 399/399/100
f 401/401/101 403/403/101 402/402/101
f 401/401/101 404/404/101 403/403/101
f 405/405/102 407/407/102 408/408/102
f 405/405/102 406/406/102 407/407/102
f 409/409/103 411/411/103 410/410/103
f 409/409/103 412/412/103 411/411/103
f 413/413/104 415/415/104 416/416/104
f 413/413/104 414/414/104 415/415/104
f 417/417/105 419/419/105 418/418/105
f 417/417/105 420/420/105 419/419/105
f 421/421/106 423/423/106 424/424/106
f 421/421/106 422/422/106 423/423/106
f 425/425/107 427/427/107 426/426/107
f 425/425/107 428/428/107 427/427/107
f 429/429/108 431/431/108 432/432/108
f 429/429/108 430/430/108 431/431/108
f 433/433/109 435/435/109 434/434/109
f 433/433/109 436/436/109 435/435/109
f 437/437/110 439/439/110 440/440/110
f 437/437/110 438/438/110 439/439/110
f 441/441/111 443/443/111 442/442/111
f 441/441/111 444/444/111 443/443/111
f 445/445/112 447/447/112 448/448/112
f 445/445/112 446/446/112 447/447/112
f 449/449/113 451/451/113 450/450/113
f 449/449/113 452/452/113 451/451/113
f 453/453/114 455/455/114 456/456/114
f 453/453/114 454/454/114 455/455/114
f 457/457/115 459/459/115 458/458/115
f 457/457/115 460/460/115 459/459/115
f 461/461/116 463/463/116 464/464/116
f 461/461/116 462/462/116 463/463/116
f 465/465/117 467/467/117 466/466/117
f 465/465/117 468/468/117 467/467/117
f 469/469/118 471/471/118 472/472/118
f 469/469/118 470/470/118 471/471/118
f 473/473/119 475/475/119 474/474/119
f 473/473/119 476/476/119 475/475/119
f 477/477/120 479/479/120 480/480/120
f 477/477/120 478/478/120 479/479/120
f 481/481/121 483/483/121 482/482/121
f 481/481/121 484/484/121 483/483/121
f 485/485/122 487/487/122 488/488/122
f 485/485/122 486/486/122 487/487/122
f 489/489/123 491/491/123 490/490/123
f 489/489/123 492/492/123 491/491/123
f 493/493/124 495/495/124 496/496/124
f 493/493/124 494/494/124 495/495/124
f 497/497/125 499/499/125 498/498/125
f 497/497/125 500/500/125 499/499/125
f 501/501/126 503/503/126 504/504/126
f 501/501/126 502/502/126 503/503/126
f 505/505/127 507/507/127 506/506/127
f 505/505/127 508/508/127 507/507/127
f 509/509/128 511/511/128 512/512/128
f 509/509/128 510/510/128 511/511/128
f 513/513/129 515/515/129 514/514/129
f 513/513/129 516/516/129 515/515/129
f 517/517/130 519/519/130 520/520/130
f 517/517/130 518/518/130 519/519/130
f 521/521/131 523/523/131 522/522/131
f 521/521/131 524/524/131 523/523/131
f 525/525/132 527/527/132 528/528/132
f 525/525/132 526/526/132 527/527/132
f 529/529/133 531/531/133 530/530/133
f 529/529/133 532/532/133 531/531/133
f 533/533/134 535/535/134 536/536/134
f 533/533/134 534/534/134 535/535/134
f 537/537/135 539/539/135 538/538/135
f 537/537/135 540/540/135 539/539/135
f 541/541/136 543/543/136 544/544/136
f 541/541/136 542/542/136 543/543/136
f 545/545/137 547/547/137 546/546/137
f 545/545/137 548/548/137 547/547/137
f 549/549/138 551/551/138 552/552/138
f 549/549/138 550/550/138 551/551/138
f 553/553/139 555/555/139 554/554/139
f 553/553/139 556/556/139 555/555/139
f 557/557/140 559/559/140 560/560/140
f 557/557/140 558/558/140 559/559/140
f 561/561/141 563/563/141 562/562/141
f 561/561/141 564/564/141 563/563/141
f 565/565/142 567/567/142 568/568/142
f 565/565/142 566/566/142 567/567/142
f 569/569/143 571/571/143 570/570/143
f 569/569/143 572/572/143 571/571/143
f 573/573/144 575/575/144 576/576/144
f 573/573/144 574/574/144 575/575/144
f 577/577/145 579/579/145 578/578/145
f 577/577/145 580/580/145 579/579/145
f 581/581/146 583/583/146 584/584/146
f 581/581/146 582/582/146 583/583/146
f 585/585/147 587/587/147 586/586/147
f 585/585/147 588/588/147 587/587/147
f 589/589/148 591/591/148 592/592/148
f 589/589/148 590/590/148 591/591/148
f 593/593/149 595/595/149 594/594/149
f 593/593/149 596/596/149 595/595/149
f 597/597/150 599/599/150 600/600/150
f 597/597/150 598/598/150 599/599/150
