# JudeanFloraV1; canonical UE cm (X east, +Y south, Z up), written with Y reflected and triangle winding reversed for the legacy OBJ importer adapter. One o object, no g groups, so the importer creates exactly one material slot.
# rockrose (Cistus creticus), LOD1 bark
# height range 0.5-1.2 m, crown 0.6-1.3 m; source: Zohary & Feinbrun-Dothan, Flora Palaestina vols I-IV (Israel Academy of Sciences, 1966-1986), species entry Cistus creticus; 0.5-1.2 m
# part kinds and their winding checks are recorded in vegetation-manifest.json
o SM_JudeanFloraV1_Rockrose_L1_Bark
s off
v 0.00000 2.76538 0.43896
v 2.74217 0.08875 -0.55912
v 0.00000 -2.76538 -0.43896
v -2.74217 -0.08875 0.55912
v 8.42015 -4.67750 40.62191
v 10.11536 -6.30947 39.85516
v 8.42015 -8.11057 39.94073
v 6.72495 -6.47859 40.70749
v 21.05039 -15.30412 80.72478
v 21.71993 -15.93778 80.36397
v 21.05039 -16.66605 80.40051
v 20.38084 -16.03239 80.76132
v 0.00000 2.62936 0.96253
v 2.74600 -0.18813 0.51391
v 0.00000 -2.62936 -0.96253
v -2.74600 0.18813 -0.51391
v -8.38995 -10.98257 32.39891
v -6.10011 -10.52200 33.21713
v -5.36201 -12.73801 32.39891
v -7.65186 -13.19859 31.58069
v -17.79555 -29.29964 64.79782
v -16.89354 -29.13944 65.17294
v -16.58437 -30.00182 64.79782
v -17.48638 -30.16203 64.42270
v 0.00000 2.78108 -0.32493
v 2.74034 0.06672 0.57104
v 0.00000 -2.78108 0.32493
v -2.74034 -0.06672 -0.57104
v -7.70255 5.99210 36.21253
v -6.00938 4.32440 36.90315
v -7.70255 2.52884 36.71832
v -9.39572 4.19654 36.02771
v -19.25638 11.34067 72.81002
v -18.58816 10.68718 73.13627
v -19.25638 9.96169 73.05169
v -19.92459 10.61518 72.72545
v 0.00000 2.64336 -0.92339
v 2.77654 -0.11929 -0.34149
v 0.00000 -2.64336 0.92339
v -2.77654 0.11929 0.34149
v 5.08369 14.47217 36.13765
v 6.81223 12.75904 36.58752
v 5.08369 11.26462 37.53824
v 3.35516 12.97774 37.08837
v 13.36027 31.91379 73.67589
v 12.48515 31.60377 74.01949
v 12.05819 32.42818 73.67589
v 12.93331 32.73820 73.33230
vt 0.00000 0.00000
vt 0.25000 0.00000
vt 0.50000 0.00000
vt 0.75000 0.00000
vt 0.00000 0.50000
vt 0.25000 0.50000
vt 0.50000 0.50000
vt 0.75000 0.50000
vt 0.00000 1.00000
vt 0.25000 1.00000
vt 0.50000 1.00000
vt 0.75000 1.00000
vt 0.00000 0.00000
vt 0.25000 0.00000
vt 0.50000 0.00000
vt 0.75000 0.00000
vt 0.00000 0.50000
vt 0.25000 0.50000
vt 0.50000 0.50000
vt 0.75000 0.50000
vt 0.00000 1.00000
vt 0.25000 1.00000
vt 0.50000 1.00000
vt 0.75000 1.00000
vt 0.00000 0.00000
vt 0.25000 0.00000
vt 0.50000 0.00000
vt 0.75000 0.00000
vt 0.00000 0.50000
vt 0.25000 0.50000
vt 0.50000 0.50000
vt 0.75000 0.50000
vt 0.00000 1.00000
vt 0.25000 1.00000
vt 0.50000 1.00000
vt 0.75000 1.00000
vt 0.00000 0.00000
vt 0.25000 0.00000
vt 0.50000 0.00000
vt 0.75000 0.00000
vt 0.00000 0.50000
vt 0.25000 0.50000
vt 0.50000 0.50000
vt 0.75000 0.50000
vt 0.00000 1.00000
vt 0.25000 1.00000
vt 0.50000 1.00000
vt 0.75000 1.00000
vn 0.6960 0.7180 -0.0133
vn 0.6909 0.7228 -0.0109
vn 0.6960 -0.6786 -0.2349
vn 0.7023 -0.6721 -0.2345
vn -0.6888 -0.7234 0.0473
vn -0.6820 -0.7299 0.0456
vn -0.6888 0.6731 0.2690
vn -0.6947 0.6667 0.2699
vn 0.6876 0.7257 -0.0245
vn 0.6813 0.7317 -0.0207
vn 0.6743 -0.6512 -0.3482
vn 0.6813 -0.6439 -0.3482
vn -0.6789 -0.7320 0.0569
vn -0.6711 -0.7394 0.0532
vn -0.6645 0.6435 0.3798
vn -0.6712 0.6362 0.3806
vn 0.2918 -0.2215 0.9305
vn -0.2022 0.1535 -0.9672
vn 0.6917 0.6135 0.3810
vn -0.2935 0.9033 0.3128
vn 0.6917 -0.7144 -0.1053
vn 0.9297 0.1942 0.3128
vn -0.6952 -0.6195 -0.3646
vn 0.2727 -0.9320 -0.2386
vn -0.6951 0.7086 0.1213
vn -0.9443 -0.2264 -0.2388
vn -0.3150 0.8625 0.3961
vn -0.3174 0.8620 0.3952
vn 0.9050 0.1552 0.3961
vn 0.9058 0.1529 0.3950
vn 0.3066 -0.8800 -0.3627
vn 0.3070 -0.8799 -0.3625
vn -0.9160 -0.1712 -0.3627
vn -0.9162 -0.1708 -0.3625
vn -0.2688 -0.4636 0.8443
vn 0.1955 0.3371 -0.9209
vn 0.6879 0.7213 0.0811
vn 0.6827 0.7263 0.0801
vn 0.6879 -0.6831 0.2453
vn 0.6924 -0.6782 0.2462
vn -0.6959 -0.7168 -0.0431
vn -0.6925 -0.7202 -0.0415
vn -0.6959 0.6876 -0.2071
vn -0.7011 0.6824 -0.2070
vn 0.6754 0.7297 0.1063
vn 0.6691 0.7359 0.1037
vn 0.6643 -0.6621 0.3467
vn 0.6691 -0.6568 0.3476
vn -0.6854 -0.7248 -0.0699
vn -0.6806 -0.7295 -0.0672
vn -0.6753 0.6688 -0.3109
vn -0.6806 0.6632 -0.3113
vn -0.2979 0.1648 0.9403
vn 0.2053 -0.1136 -0.9721
vn 0.7035 0.6436 -0.3013
vn 0.7097 0.6371 -0.3007
vn 0.7035 -0.6913 0.1649
vn 0.6959 -0.6983 0.1675
vn -0.6986 -0.6310 0.3374
vn -0.7058 -0.6242 0.3351
vn -0.6986 0.7039 -0.1288
vn -0.6893 0.7120 -0.1341
vn 0.6947 0.5947 -0.4047
vn 0.4219 -0.8542 0.3039
vn 0.7083 -0.6602 0.2499
vn -0.8918 -0.3352 0.3039
vn -0.6768 -0.5563 0.4822
vn -0.4396 0.8095 -0.3892
vn -0.6964 0.6971 -0.1704
vn 0.8741 0.2904 -0.3893
vn 0.1803 0.4565 0.8712
vn -0.1292 -0.3270 -0.9361
f 1/1/1 6/6/1 2/2/1
f 1/1/2 5/5/2 6/6/2
f 2/2/3 7/7/3 3/3/3
f 2/2/4 6/6/4 7/7/4
f 3/3/5 8/8/5 4/4/5
f 3/3/6 7/7/6 8/8/6
f 4/4/7 5/5/7 1/1/7
f 4/4/8 8/8/8 5/5/8
f 5/5/9 10/10/9 6/6/9
f 5/5/10 9/9/10 10/10/10
f 6/6/11 11/11/11 7/7/11
f 6/6/12 10/10/12 11/11/12
f 7/7/13 12/12/13 8/8/13
f 7/7/14 11/11/14 12/12/14
f 8/8/15 9/9/15 5/5/15
f 8/8/16 12/12/16 9/9/16
f 9/9/17 11/11/17 10/10/17
f 9/9/17 12/12/17 11/11/17
f 4/4/18 2/2/18 3/3/18
f 4/4/18 1/1/18 2/2/18
f 13/13/19 18/18/19 14/14/19
f 13/13/20 17/17/20 18/18/20
f 14/14/21 19/19/21 15/15/21
f 14/14/22 18/18/22 19/19/22
f 15/15/23 20/20/23 16/16/23
f 15/15/24 19/19/24 20/20/24
f 16/16/25 17/17/25 13/13/25
f 16/16/26 20/20/26 17/17/26
f 17/17/27 22/22/27 18/18/27
f 17/17/28 21/21/28 22/22/28
f 18/18/29 23/23/29 19/19/29
f 18/18/30 22/22/30 23/23/30
f 19/19/31 24/24/31 20/20/31
f 19/19/32 23/23/32 24/24/32
f 20/20/33 21/21/33 17/17/33
f 20/20/34 24/24/34 21/21/34
f 21/21/35 23/23/35 22/22/35
f 21/21/35 24/24/35 23/23/35
f 16/16/36 14/14/36 15/15/36
f 16/16/36 13/13/36 14/14/36
f 25/25/37 30/30/37 26/26/37
f 25/25/38 29/29/38 30/30/38
f 26/26/39 31/31/39 27/27/39
f 26/26/40 30/30/40 31/31/40
f 27/27/41 32/32/41 28/28/41
f 27/27/42 31/31/42 32/32/42
f 28/28/43 29/29/43 25/25/43
f 28/28/44 32/32/44 29/29/44
f 29/29/45 34/34/45 30/30/45
f 29/29/46 33/33/46 34/34/46
f 30/30/47 35/35/47 31/31/47
f 30/30/48 34/34/48 35/35/48
f 31/31/49 36/36/49 32/32/49
f 31/31/50 35/35/50 36/36/50
f 32/32/51 33/33/51 29/29/51
f 32/32/52 36/36/52 33/33/52
f 33/33/53 35/35/53 34/34/53
f 33/33/53 36/36/53 35/35/53
f 28/28/54 26/26/54 27/27/54
f 28/28/54 25/25/54 26/26/54
f 37/37/55 42/42/55 38/38/55
f 37/37/56 41/41/56 42/42/56
f 38/38/57 43/43/57 39/39/57
f 38/38/58 42/42/58 43/43/58
f 39/39/59 44/44/59 40/40/59
f 39/39/60 43/43/60 44/44/60
f 40/40/61 41/41/61 37/37/61
f 40/40/62 44/44/62 41/41/62
f 41/41/63 46/46/63 42/42/63
f 41/41/64 45/45/64 46/46/64
f 42/42/65 47/47/65 43/43/65
f 42/42/66 46/46/66 47/47/66
f 43/43/67 48/48/67 44/44/67
f 43/43/68 47/47/68 48/48/68
f 44/44/69 45/45/69 41/41/69
f 44/44/70 48/48/70 45/45/70
f 45/45/71 47/47/71 46/46/71
f 45/45/71 48/48/71 47/47/71
f 40/40/72 38/38/72 39/39/72
f 40/40/72 37/37/72 38/38/72
