# JudeanFloraV1; canonical UE cm (X east, +Y south, Z up), written with Y reflected and triangle winding reversed for the legacy OBJ importer adapter. One o object, no g groups, so the importer creates exactly one material slot.
# date palm (Phoenix dactylifera), LOD1 bark
# height range 12.0-22.0 m, crown 6.0-9.0 m; source: Zohary, M., Plants of the Bible (Cambridge University Press, 1982), species entry Phoenix dactylifera; 12-22 m with a 6-9 m crown of pinnate fronds
# part kinds and their winding checks are recorded in vegetation-manifest.json
o SM_JudeanFloraV1_DatePalm_L1_Bark
s off
v 0.00000 26.57120 0.66428
v 20.41106 11.78794 0.03956
v 23.01673 -13.27841 -0.61967
v 0.00000 -23.56314 -0.58908
v -23.01673 -13.29279 -0.04461
v -20.41106 11.77519 0.54952
v 3.40000 18.42012 272.63050
v 22.76867 4.39460 271.79565
v 25.24127 -19.39642 271.13906
v 3.40000 -29.16501 271.44087
v -18.44127 -19.42370 272.23044
v -15.96867 4.37041 272.76348
v 13.60000 10.26904 544.59673
v 31.91393 -2.99368 543.34946
v 34.25187 -25.50872 542.66969
v 13.60000 -34.76689 543.47083
v -7.05187 -25.56032 544.73359
v -4.71393 -3.03943 545.17971
v 30.60000 2.11796 816.56295
v 47.85044 -10.38330 814.95663
v 50.05262 -31.62253 814.26049
v 30.60000 -40.36876 815.50078
v 11.14738 -31.69543 817.17656
v 13.34956 -10.44794 817.54258
v 54.40000 -6.03311 1088.52917
v 70.58028 -17.77426 1086.61762
v 72.64584 -37.73786 1085.91197
v 54.40000 -45.97064 1087.53073
v 36.15416 -37.82903 1089.55886
v 38.21972 -17.85511 1089.85165
v 85.00000 -14.18419 1360.49540
v 100.12763 -25.17123 1358.51886
v 102.05881 -43.85996 1357.83438
v 85.00000 -51.57251 1359.56069
v 67.94119 -43.95585 1361.67022
v 69.87237 -25.25627 1361.92045
vt 0.00000 0.00000
vt 0.16667 0.00000
vt 0.33333 0.00000
vt 0.50000 0.00000
vt 0.66667 0.00000
vt 0.83333 0.00000
vt 0.00000 0.20000
vt 0.16667 0.20000
vt 0.33333 0.20000
vt 0.50000 0.20000
vt 0.66667 0.20000
vt 0.83333 0.20000
vt 0.00000 0.40000
vt 0.16667 0.40000
vt 0.33333 0.40000
vt 0.50000 0.40000
vt 0.66667 0.40000
vt 0.83333 0.40000
vt 0.00000 0.60000
vt 0.16667 0.60000
vt 0.33333 0.60000
vt 0.50000 0.60000
vt 0.66667 0.60000
vt 0.83333 0.60000
vt 0.00000 0.80000
vt 0.16667 0.80000
vt 0.33333 0.80000
vt 0.50000 0.80000
vt 0.66667 0.80000
vt 0.83333 0.80000
vt 0.00000 1.00000
vt 0.16667 1.00000
vt 0.33333 1.00000
vt 0.50000 1.00000
vt 0.66667 1.00000
vt 0.83333 1.00000
vn 0.5868 0.8095 0.0169
vn 0.5869 0.8095 0.0169
vn 0.9946 0.1035 -0.0058
vn 0.4078 -0.9128 -0.0239
vn 0.4079 -0.9127 -0.0239
vn -0.4077 -0.9130 -0.0137
vn -0.9945 0.1029 0.0190
vn -0.5867 0.8092 0.0316
vn 0.5866 0.8099 0.0023
vn 0.5866 0.8098 0.0023
vn 0.9941 0.1042 -0.0306
vn 0.4076 -0.9125 -0.0341
vn 0.4077 -0.9125 -0.0341
vn -0.4074 -0.9132 -0.0035
vn -0.4073 -0.9133 -0.0035
vn -0.9938 0.1023 0.0438
vn -0.5863 0.8087 0.0462
vn -0.5863 0.8088 0.0462
vn 0.5859 0.8103 -0.0123
vn 0.5860 0.8102 -0.0123
vn 0.9930 0.1048 -0.0554
vn 0.4072 -0.9122 -0.0442
vn 0.4073 -0.9122 -0.0442
vn -0.4068 -0.9135 0.0066
vn -0.4067 -0.9135 0.0066
vn -0.9925 0.1017 0.0686
vn -0.5855 0.8084 0.0608
vn -0.5854 0.8084 0.0608
vn 0.5849 0.8106 -0.0269
vn 0.5850 0.8106 -0.0269
vn 0.9912 0.1054 -0.0801
vn 0.4066 -0.9120 -0.0544
vn 0.4067 -0.9120 -0.0544
vn -0.4060 -0.9137 0.0167
vn -0.4059 -0.9138 0.0167
vn -0.9905 0.1011 0.0932
vn -0.5843 0.8080 0.0754
vn -0.5843 0.8081 0.0753
vn 0.5836 0.8110 -0.0414
vn 0.9889 0.1060 -0.1046
vn 0.4057 -0.9117 -0.0644
vn -0.4049 -0.9140 0.0267
vn -0.4048 -0.9140 0.0267
vn -0.9880 0.1004 0.1177
vn -0.9880 0.1005 0.1177
vn -0.5828 0.8077 0.0898
vn -0.5827 0.8077 0.0898
vn 0.1118 -0.0248 0.9934
vn -0.0125 0.0250 -0.9996
f 1/1/1 8/8/1 2/2/1
f 1/1/2 7/7/2 8/8/2
f 2/2/3 9/9/3 3/3/3
f 2/2/3 8/8/3 9/9/3
f 3/3/4 10/10/4 4/4/4
f 3/3/5 9/9/5 10/10/5
f 4/4/6 11/11/6 5/5/6
f 4/4/6 10/10/6 11/11/6
f 5/5/7 12/12/7 6/6/7
f 5/5/7 11/11/7 12/12/7
f 6/6/8 7/7/8 1/1/8
f 6/6/8 12/12/8 7/7/8
f 7/7/9 14/14/9 8/8/9
f 7/7/10 13/13/10 14/14/10
f 8/8/11 15/15/11 9/9/11
f 8/8/11 14/14/11 15/15/11
f 9/9/12 16/16/12 10/10/12
f 9/9/13 15/15/13 16/16/13
f 10/10/14 17/17/14 11/11/14
f 10/10/15 16/16/15 17/17/15
f 11/11/16 18/18/16 12/12/16
f 11/11/16 17/17/16 18/18/16
f 12/12/17 13/13/17 7/7/17
f 12/12/18 18/18/18 13/13/18
f 13/13/19 20/20/19 14/14/19
f 13/13/20 19/19/20 20/20/20
f 14/14/21 21/21/21 15/15/21
f 14/14/21 20/20/21 21/21/21
f 15/15/22 22/22/22 16/16/22
f 15/15/23 21/21/23 22/22/23
f 16/16/24 23/23/24 17/17/24
f 16/16/25 22/22/25 23/23/25
f 17/17/26 24/24/26 18/18/26
f 17/17/26 23/23/26 24/24/26
f 18/18/27 19/19/27 13/13/27
f 18/18/28 24/24/28 19/19/28
f 19/19/29 26/26/29 20/20/29
f 19/19/30 25/25/30 26/26/30
f 20/20/31 27/27/31 21/21/31
f 20/20/31 26/26/31 27/27/31
f 21/21/32 28/28/32 22/22/32
f 21/21/33 27/27/33 28/28/33
f 22/22/34 29/29/34 23/23/34
f 22/22/35 28/28/35 29/29/35
f 23/23/36 30/30/36 24/24/36
f 23/23/36 29/29/36 30/30/36
f 24/24/37 25/25/37 19/19/37
f 24/24/38 30/30/38 25/25/38
f 25/25/39 32/32/39 26/26/39
f 25/25/39 31/31/39 32/32/39
f 26/26/40 33/33/40 27/27/40
f 26/26/40 32/32/40 33/33/40
f 27/27/41 34/34/41 28/28/41
f 27/27/41 33/33/41 34/34/41
f 28/28/42 35/35/42 29/29/42
f 28/28/43 34/34/43 35/35/43
f 29/29/44 36/36/44 30/30/44
f 29/29/45 35/35/45 36/36/45
f 30/30/46 31/31/46 25/25/46
f 30/30/47 36/36/47 31/31/47
f 31/31/48 33/33/48 32/32/48
f 31/31/48 34/34/48 33/33/48
f 31/31/48 35/35/48 34/34/48
f 31/31/48 36/36/48 35/35/48
f 6/6/49 4/4/49 5/5/49
f 6/6/49 3/3/49 4/4/49
f 6/6/49 2/2/49 3/3/49
f 6/6/49 1/1/49 2/2/49
