# Native import adapter: centimeters, reflected Y, reversed winding
o SM_MountPlatform_Surface
v 10281.105136287 22911.523026877 0.000000000
v 2123.411749918 24362.714774048 0.000000000
v 11031.087608906 16029.061921446 0.000000000
vt 0.000000000 0.000000000
vt 82.857660402 0.000000000
vt -19.438031119 66.447252794
vn 0.000000000000 0.000000000000 1.000000000000
vn 0.000000000000 0.000000000000 1.000000000000
vn 0.000000000000 0.000000000000 1.000000000000
f 1/1/1 2/2/2 3/3/3
v 11163.561297179 14722.321464286 0.000000000
v -1234.878681493 23980.624842611 0.000000000
v 11500.758913862 11485.424461411 0.000000000
vt 0.000000000 0.000000000
vt 154.737679752 0.000000000
vt -22.068896809 23.918282498
vn 0.000000000000 0.000000000000 1.000000000000
vn 0.000000000000 0.000000000000 1.000000000000
vn 0.000000000000 0.000000000000 1.000000000000
f 4/4/4 5/5/5 6/6/6
v -18219.839124192 6719.017007095 0.000000000
v -7299.795238154 23343.805245281 0.000000000
v -18284.322078351 7068.924510280 0.000000000
vt 0.000000000 0.000000000
vt 198.904736605 0.000000000
vt 2.570567972 2.459982016
vn 0.000000000000 -0.000000000000 1.000000000000
vn 0.000000000000 -0.000000000000 1.000000000000
vn 0.000000000000 -0.000000000000 1.000000000000
f 7/7/7 8/8/8 9/9/9
v -18284.322078351 7068.924510280 0.000000000
v -7299.795238154 23343.805245281 0.000000000
v -7761.693563886 23289.317239323 0.000000000
vt 0.000000000 0.000000000
vt 196.349579282 0.000000000
vt 193.313911787 3.523722956
vn 0.000000000000 0.000000000000 1.000000000000
vn 0.000000000000 0.000000000000 1.000000000000
vn 0.000000000000 0.000000000000 1.000000000000
f 10/10/10 11/11/11 12/12/12
v -20741.042448278 19646.666701655 0.000000000
v -19804.635127789 22050.106673257 0.000000000
v -21073.498196172 21509.538955168 0.000000000
vt 0.000000000 0.000000000
vt 25.794151211 0.000000000
vt 16.150900279 9.860547951
vn 0.000000000000 -0.000000000000 1.000000000000
vn 0.000000000000 -0.000000000000 1.000000000000
vn 0.000000000000 -0.000000000000 1.000000000000
f 13/13/13 14/14/14 15/15/15
v -21288.507888224 22002.969211414 0.000000000
v -20850.797813720 22315.355097061 0.000000000
v -21314.086069701 22272.250621963 0.000000000
vt 0.000000000 0.000000000
vt 5.377499892 0.000000000
vt 1.356092714 2.340445405
vn 0.000000000000 -0.000000000000 1.000000000000
vn 0.000000000000 -0.000000000000 1.000000000000
vn 0.000000000000 -0.000000000000 1.000000000000
f 16/16/16 17/17/17 18/18/18
v -20816.751839580 21951.363579424 0.000000000
v -21258.827622328 21688.004328504 0.000000000
v -21073.498196172 21509.538955168 0.000000000
vt 0.000000000 0.000000000
vt 5.145766150 0.000000000
vt 4.466972302 2.481718654
vn 0.000000000000 0.000000000000 1.000000000000
vn 0.000000000000 0.000000000000 1.000000000000
vn 0.000000000000 0.000000000000 1.000000000000
f 19/19/19 20/20/20 21/21/21
v -13502.441583177 22688.075650879 0.000000000
v -19324.845196971 12612.678270787 0.000000000
v -12185.686216890 22809.099121689 0.000000000
vt 0.000000000 0.000000000
vt 116.367528206 0.000000000
vt -7.636185885 10.795267604
vn -0.000000000000 0.000000000000 1.000000000000
vn -0.000000000000 0.000000000000 1.000000000000
vn -0.000000000000 0.000000000000 1.000000000000
f 22/22/22 23/23/23 24/24/24
v -12185.686216890 22809.099121689 0.000000000
v -19324.845196971 12612.678270787 0.000000000
v -19190.247404320 12025.251473123 0.000000000
vt 0.000000000 0.000000000
vt 124.472723563 0.000000000
vt 128.512753912 4.471782153
vn 0.000000000000 0.000000000000 1.000000000000
vn 0.000000000000 0.000000000000 1.000000000000
vn 0.000000000000 0.000000000000 1.000000000000
f 25/25/25 26/26/26 27/27/27
v -14744.066125962 -8498.300779243 0.000000000
v -15789.786894444 -7387.253113290 0.000000000
v -14762.712954304 -8491.349342369 0.000000000
vt 0.000000000 0.000000000
vt 15.257650021 0.000000000
vt 0.178420355 0.088141052
vn 0.000000000000 0.000000000000 1.000000000000
vn 0.000000000000 0.000000000000 1.000000000000
vn 0.000000000000 0.000000000000 1.000000000000
f 28/28/28 29/29/29 30/30/30
v 11668.880453264 9814.594890783 0.000000000
v -17767.591914089 4272.877313545 0.000000000
v -17712.046291376 4007.159064348 0.000000000
vt 0.000000000 0.000000000
vt 299.535730613 0.000000000
vt 299.481469408 2.714075559
vn 0.000000000000 0.000000000000 1.000000000000
vn 0.000000000000 0.000000000000 1.000000000000
vn 0.000000000000 0.000000000000 1.000000000000
f 31/31/31 32/32/32 33/33/33
v -14801.606002152 -8483.130124335 0.000000000
v -15789.786894444 -7387.253113290 0.000000000
v -14821.470976524 -8481.942911220 0.000000000
vt 0.000000000 0.000000000
vt 14.756178026 0.000000000
vt 0.141847216 0.139578063
vn 0.000000000000 0.000000000000 1.000000000000
vn 0.000000000000 0.000000000000 1.000000000000
vn 0.000000000000 0.000000000000 1.000000000000
f 34/34/34 35/35/35 36/36/36
v -14861.066113005 -8485.471350399 0.000000000
v -15654.780525233 -8270.794669676 0.000000000
v -15600.344748445 -8626.059739233 0.000000000
vt 0.000000000 0.000000000
vt 8.222339359 0.000000000
vt 6.769302927 3.287299419
vn 0.000000000000 0.000000000000 1.000000000000
vn 0.000000000000 0.000000000000 1.000000000000
vn 0.000000000000 0.000000000000 1.000000000000
f 37/37/37 38/38/38 39/39/39
v -14625.548708501 -8648.142379093 0.000000000
v -14524.591391548 -9222.619649071 0.000000000
v -14522.941223966 -9222.866748479 0.000000000
vt 0.000000000 0.000000000
vt 5.832808188 0.000000000
vt 5.838098084 0.015824921
vn 0.000000000000 0.000000000000 1.000000000000
vn 0.000000000000 0.000000000000 1.000000000000
vn 0.000000000000 0.000000000000 1.000000000000
f 40/40/40 41/41/41 42/42/42
v -14306.303424590 -10133.439805285 0.000000000
v -14366.104784436 -9839.446205372 0.000000000
v -14310.665023870 -10133.616363480 0.000000000
vt 0.000000000 0.000000000
vt 3.000140654 0.000000000
vt 0.006963760 0.043092669
vn 0.000000000000 0.000000000000 1.000000000000
vn 0.000000000000 0.000000000000 1.000000000000
vn 0.000000000000 0.000000000000 1.000000000000
f 43/43/43 44/44/44 45/45/45
v -14084.774496025 -10608.951500400 0.000000000
v -14086.558713276 -10612.666279667 0.000000000
v -14081.593517915 -10619.463602789 0.000000000
vt 0.000000000 0.000000000
vt 0.041210455 0.000000000
vt 0.080985720 0.074186285
vn 0.000000000000 0.000000000000 1.000000000000
vn 0.000000000000 0.000000000000 1.000000000000
vn 0.000000000000 0.000000000000 1.000000000000
f 46/46/46 47/47/47 48/48/48
v -14020.700641033 -10982.501293851 0.000000000
v -14026.726321404 -10998.865061506 0.000000000
v -14021.810837116 -11003.387942368 0.000000000
vt 0.000000000 0.000000000
vt 0.174379390 0.000000000
vt 0.199836661 0.061755737
vn 0.000000000000 0.000000000000 1.000000000000
vn 0.000000000000 0.000000000000 1.000000000000
vn 0.000000000000 0.000000000000 1.000000000000
f 49/49/49 50/50/50 51/51/51
v -14089.318843544 -11541.866053638 0.000000000
v -14106.357102717 -11545.119181882 0.000000000
v -13977.183794893 -12329.786853244 0.000000000
vt 0.000000000 0.000000000
vt 0.173460404 0.000000000
vt 0.376236518 7.949703871
vn 0.000000000000 0.000000000000 1.000000000000
vn 0.000000000000 0.000000000000 1.000000000000
vn 0.000000000000 0.000000000000 1.000000000000
f 52/52/52 53/53/53 54/54/54
v -1587.837892379 -24054.142909485 0.000000000
v -13930.815502994 -12611.486691127 0.000000000
v -13073.453663169 -17570.187617786 0.000000000
vt 0.000000000 0.000000000
vt 168.310272303 0.000000000
vt 128.310866999 30.535651226
vn 0.000000000000 0.000000000000 1.000000000000
vn 0.000000000000 0.000000000000 1.000000000000
vn 0.000000000000 0.000000000000 1.000000000000
f 55/55/55 56/56/56 57/57/57
v -13917.723794659 -18175.611679799 0.000000000
v -13457.053729051 -17840.456471353 0.000000000
v -13962.913750455 -17929.146215365 0.000000000
vt 0.000000000 0.000000000
vt 5.696893216 0.000000000
vt 1.084565251 2.258861205
vn 0.000000000000 -0.000000000000 1.000000000000
vn 0.000000000000 -0.000000000000 1.000000000000
vn 0.000000000000 -0.000000000000 1.000000000000
f 58/58/58 59/59/59 60/60/60
v -13107.259422040 -17720.282034034 0.000000000
v -12998.500342055 -23290.855698419 0.000000000
v -9172.344625106 -25399.055441524 0.000000000
vt 0.000000000 0.000000000
vt 55.716352616 0.000000000
vt 77.541203980 37.842743501
vn 0.000000000000 0.000000000000 1.000000000000
vn 0.000000000000 0.000000000000 1.000000000000
vn 0.000000000000 0.000000000000 1.000000000000
f 61/61/61 62/62/62 63/63/63
v -12998.500342055 -23290.855698419 0.000000000
v -12587.671526563 -25980.222809895 0.000000000
v -9172.344625106 -25399.055441524 0.000000000
vt 0.000000000 0.000000000
vt 27.205653412 0.000000000
vt 26.618063403 34.639227378
vn 0.000000000000 0.000000000000 1.000000000000
vn 0.000000000000 0.000000000000 1.000000000000
vn 0.000000000000 0.000000000000 1.000000000000
f 64/64/64 65/65/65 66/66/66
v -13926.022202975 -11346.136036708 0.000000000
v -1587.837892379 -24054.142909485 0.000000000
v 2603.330803295 -23301.612619937 0.000000000
vt 0.000000000 0.000000000
vt 177.122621582 0.000000000
vt 200.918707805 35.312405295
vn 0.000000000000 0.000000000000 1.000000000000
vn 0.000000000000 0.000000000000 1.000000000000
vn 0.000000000000 0.000000000000 1.000000000000
f 67/67/67 68/68/68 69/69/69
v 14851.113956605 -21433.083481590 0.000000000
v 14953.108030072 -21418.265940650 0.000000000
v 12529.171325264 1798.767228235 0.000000000
vt 0.000000000 0.000000000
vt 1.030647881 0.000000000
vt 10.422037795 233.243245619
vn 0.000000000000 -0.000000000000 1.000000000000
vn 0.000000000000 -0.000000000000 1.000000000000
vn 0.000000000000 -0.000000000000 1.000000000000
f 70/70/70 71/71/71 72/72/72
v 11532.334267103 11254.181433266 0.000000000
v 11916.825106031 9839.188591159 0.000000000
v 11776.214785103 11278.274468311 0.000000000
vt 0.000000000 0.000000000
vt 14.663007701 0.000000000
vt 0.406999396 2.416644291
vn -0.000000000000 0.000000000000 1.000000000000
vn -0.000000000000 0.000000000000 1.000000000000
vn -0.000000000000 0.000000000000 1.000000000000
f 73/73/73 74/74/74 75/75/75
v 9264.043478481 25110.556261888 0.000000000
v 10281.105136287 22911.523026877 0.000000000
v 9520.902870977 25130.506505965 0.000000000
vt 0.000000000 0.000000000
vt 24.228416342 0.000000000
vt 0.897172092 2.415068987
vn -0.000000000000 0.000000000000 1.000000000000
vn -0.000000000000 0.000000000000 1.000000000000
vn -0.000000000000 0.000000000000 1.000000000000
f 76/76/76 77/77/77 78/78/78
v 10281.105136287 22911.523026877 0.000000000
v 10525.640183908 22935.877127148 0.000000000
v 10510.788724711 23057.294319886 0.000000000
vt 0.000000000 0.000000000
vt 2.457448101 0.000000000
vt 2.429992962 1.222913026
vn 0.000000000000 0.000000000000 1.000000000000
vn 0.000000000000 0.000000000000 1.000000000000
vn 0.000000000000 0.000000000000 1.000000000000
f 79/79/79 80/80/80 81/81/81
v 10510.788724711 23057.294319886 0.000000000
v 10251.245189796 25206.029052980 0.000000000
v 9520.902870977 25130.506505965 0.000000000
vt 0.000000000 0.000000000
vt 21.643529748 0.000000000
vt 21.769561443 7.341285432
vn 0.000000000000 0.000000000000 1.000000000000
vn 0.000000000000 0.000000000000 1.000000000000
vn 0.000000000000 0.000000000000 1.000000000000
f 82/82/82 83/83/83 84/84/84
v 11031.087608906 16029.061921446 0.000000000
v -1234.878681493 23980.624842611 0.000000000
v 11163.561297179 14722.321464286 0.000000000
vt 0.000000000 0.000000000
vt 146.178412198 0.000000000
vt -8.219781964 10.244372822
vn 0.000000000000 0.000000000000 1.000000000000
vn 0.000000000000 0.000000000000 1.000000000000
vn 0.000000000000 0.000000000000 1.000000000000
f 85/85/85 86/86/86 87/87/87
v 11500.758913862 11485.424461411 0.000000000
v -3306.257102847 23802.522463526 0.000000000
v 11532.334267103 11254.181433266 0.000000000
vt 0.000000000 0.000000000
vt 192.602862521 0.000000000
vt -1.721563095 1.575834576
vn 0.000000000000 0.000000000000 1.000000000000
vn 0.000000000000 0.000000000000 1.000000000000
vn 0.000000000000 0.000000000000 1.000000000000
f 88/88/88 89/89/89 90/90/90
v -20850.797813720 22315.355097061 0.000000000
v -21288.507888224 22002.969211414 0.000000000
v -20816.751839580 21951.363579424 0.000000000
vt 0.000000000 0.000000000
vt 5.377499892 0.000000000
vt 1.837350976 3.160543738
vn 0.000000000000 0.000000000000 1.000000000000
vn 0.000000000000 0.000000000000 1.000000000000
vn 0.000000000000 0.000000000000 1.000000000000
f 91/91/91 92/92/92 93/93/93
v -14726.198086949 -8507.062049904 0.000000000
v -15789.786894444 -7387.253113290 0.000000000
v -14744.066125962 -8498.300779243 0.000000000
vt 0.000000000 0.000000000
vt 15.444070726 0.000000000
vt 0.186577723 0.069220095
vn 0.000000000000 0.000000000000 1.000000000000
vn 0.000000000000 0.000000000000 1.000000000000
vn 0.000000000000 0.000000000000 1.000000000000
f 94/94/94 95/95/95 96/96/96
v -17767.591914089 4272.877313545 0.000000000
v 11668.880453264 9814.594890783 0.000000000
v -17987.844998450 5457.549232148 0.000000000
vt 0.000000000 0.000000000
vt 299.535730613 0.000000000
vt 0.027256636 12.049695210
vn 0.000000000000 -0.000000000000 1.000000000000
vn 0.000000000000 -0.000000000000 1.000000000000
vn 0.000000000000 -0.000000000000 1.000000000000
f 97/97/97 98/98/98 99/99/99
v -14821.470976524 -8481.942911220 0.000000000
v -15789.786894444 -7387.253113290 0.000000000
v -14841.355987071 -8482.725878226 0.000000000
vt 0.000000000 0.000000000
vt 14.614997334 0.000000000
vt 0.125883473 0.154129878
vn 0.000000000000 0.000000000000 1.000000000000
vn 0.000000000000 0.000000000000 1.000000000000
vn 0.000000000000 0.000000000000 1.000000000000
f 100/100/100 101/101/101 102/102/102
v -15654.780525233 -8270.794669676 0.000000000
v -14861.066113005 -8485.471350399 0.000000000
v -15789.786894444 -7387.253113290 0.000000000
vt 0.000000000 0.000000000
vt 8.222339359 0.000000000
vt -3.610070767 8.176468016
vn -0.000000000000 -0.000000000000 1.000000000000
vn -0.000000000000 -0.000000000000 1.000000000000
vn -0.000000000000 -0.000000000000 1.000000000000
f 103/103/103 104/104/104 105/105/105
v -14625.548708501 -8648.142379093 0.000000000
v -14522.941223966 -9222.866748479 0.000000000
v -14503.641404571 -9227.747966994 0.000000000
vt 0.000000000 0.000000000
vt 5.838119532 0.000000000
vt 5.920092179 0.181415042
vn 0.000000000000 0.000000000000 1.000000000000
vn 0.000000000000 0.000000000000 1.000000000000
vn 0.000000000000 0.000000000000 1.000000000000
f 106/106/106 107/107/107 108/108/108
v -14286.656503300 -10134.570527361 0.000000000
v -14366.104784436 -9839.446205372 0.000000000
v -14306.303424590 -10133.439805285 0.000000000
vt 0.000000000 0.000000000
vt 3.056311417 0.000000000
vt 0.061990336 0.186775810
vn 0.000000000000 0.000000000000 1.000000000000
vn 0.000000000000 0.000000000000 1.000000000000
vn 0.000000000000 0.000000000000 1.000000000000
f 109/109/109 110/110/110 111/111/111
v -14078.013280391 -10590.399700641 0.000000000
v -14084.774496025 -10608.951500400 0.000000000
v -14081.593517915 -10619.463602789 0.000000000
vt 0.000000000 0.000000000
vt 0.197454631 0.000000000
vt 0.285328558 0.065882203
vn 0.000000000000 0.000000000000 1.000000000000
vn 0.000000000000 0.000000000000 1.000000000000
vn 0.000000000000 0.000000000000 1.000000000000
f 112/112/112 113/113/113 114/114/114
v -14008.654770428 -11018.129376266 0.000000000
v -14020.700641033 -10982.501293851 0.000000000
v -14021.810837116 -11003.387942368 0.000000000
vt 0.000000000 0.000000000
vt 0.376093506 0.000000000
vt 0.181785989 0.077414797
vn 0.000000000000 0.000000000000 1.000000000000
vn 0.000000000000 0.000000000000 1.000000000000
vn 0.000000000000 0.000000000000 1.000000000000
f 115/115/115 116/116/116 117/117/117
v -14070.159312960 -11537.223681362 0.000000000
v -14089.318843544 -11541.866053638 0.000000000
v -13977.183794893 -12329.786853244 0.000000000
vt 0.000000000 0.000000000
vt 0.197139350 0.000000000
vt 0.962773802 7.921688548
vn 0.000000000000 0.000000000000 1.000000000000
vn 0.000000000000 0.000000000000 1.000000000000
vn 0.000000000000 0.000000000000 1.000000000000
f 118/118/118 119/119/119 120/120/120
v -13820.197567722 -18737.762854556 0.000000000
v -13457.053729051 -17840.456471353 0.000000000
v -13917.723794659 -18175.611679799 0.000000000
vt 0.000000000 0.000000000
vt 9.680042319 0.000000000
vt 4.845079945 3.012927339
vn 0.000000000000 -0.000000000000 1.000000000000
vn 0.000000000000 -0.000000000000 1.000000000000
vn 0.000000000000 -0.000000000000 1.000000000000
f 121/121/121 122/122/122 123/123/123
v -13075.427084486 -17648.597387116 0.000000000
v -9172.344625106 -25399.055441524 0.000000000
v -1587.837892379 -24054.142909485 0.000000000
vt 0.000000000 0.000000000
vt 86.777677278 0.000000000
vt 108.879290996 73.789375122
vn 0.000000000000 0.000000000000 1.000000000000
vn 0.000000000000 0.000000000000 1.000000000000
vn 0.000000000000 0.000000000000 1.000000000000
f 124/124/124 125/125/125 126/126/126
v 5347.583890029 -22823.807387881 0.000000000
v 14851.113956605 -21433.083481590 0.000000000
v 12529.171325264 1798.767228235 0.000000000
vt 0.000000000 0.000000000
vt 96.047486542 0.000000000
vt 106.711418445 233.232311344
vn 0.000000000000 0.000000000000 1.000000000000
vn 0.000000000000 0.000000000000 1.000000000000
vn 0.000000000000 0.000000000000 1.000000000000
f 127/127/127 128/128/128 129/129/129
v 11916.825106031 9839.188591159 0.000000000
v 11532.334267103 11254.181433266 0.000000000
v 11668.880453264 9814.594890783 0.000000000
vt 0.000000000 0.000000000
vt 14.663007701 0.000000000
vt 0.412824836 2.457176377
vn 0.000000000000 0.000000000000 1.000000000000
vn 0.000000000000 0.000000000000 1.000000000000
vn 0.000000000000 0.000000000000 1.000000000000
f 130/130/130 131/131/131 132/132/132
v 9022.490109816 25082.722951918 0.000000000
v 10281.105136287 22911.523026877 0.000000000
v 9264.043478481 25110.556261888 0.000000000
vt 0.000000000 0.000000000
vt 25.096256492 0.000000000
vt 0.970626910 2.229384603
vn -0.000000000000 0.000000000000 1.000000000000
vn -0.000000000000 0.000000000000 1.000000000000
vn -0.000000000000 0.000000000000 1.000000000000
f 133/133/133 134/134/134 135/135/135
v 10281.105136287 22911.523026877 0.000000000
v 10510.788724711 23057.294319886 0.000000000
v 9520.902870977 25130.506505965 0.000000000
vt 0.000000000 0.000000000
vt 2.720364326 0.000000000
vt 5.471991574 22.808700636
vn 0.000000000000 -0.000000000000 1.000000000000
vn 0.000000000000 -0.000000000000 1.000000000000
vn 0.000000000000 -0.000000000000 1.000000000000
f 136/136/136 137/137/137 138/138/138
v -3108.603355814 23816.852360186 0.000000000
v 11500.758913862 11485.424461411 0.000000000
v -2863.662496540 23834.419839847 0.000000000
vt 0.000000000 0.000000000
vt 191.179910019 0.000000000
vt 1.758447129 1.714155122
vn -0.000000000000 0.000000000000 1.000000000000
vn -0.000000000000 0.000000000000 1.000000000000
vn -0.000000000000 0.000000000000 1.000000000000
f 139/139/139 140/140/140 141/141/141
v -21258.827622328 21688.004328504 0.000000000
v -20816.751839580 21951.363579424 0.000000000
v -21288.507888224 22002.969211414 0.000000000
vt 0.000000000 0.000000000
vt 5.145766150 0.000000000
vt 1.356998877 2.857784739
vn 0.000000000000 -0.000000000000 1.000000000000
vn 0.000000000000 -0.000000000000 1.000000000000
vn 0.000000000000 -0.000000000000 1.000000000000
f 142/142/142 143/143/143 144/144/144
v -14709.283986892 -8517.547272891 0.000000000
v -15789.786894444 -7387.253113290 0.000000000
v -14726.198086949 -8507.062049904 0.000000000
vt 0.000000000 0.000000000
vt 15.636660195 0.000000000
vt 0.192669791 0.049809835
vn 0.000000000000 0.000000000000 1.000000000000
vn 0.000000000000 0.000000000000 1.000000000000
vn 0.000000000000 0.000000000000 1.000000000000
f 145/145/145 146/146/146 147/147/147
v -14841.355987071 -8482.725878226 0.000000000
v -15789.786894444 -7387.253113290 0.000000000
v -14861.066113005 -8485.471350399 0.000000000
vt 0.000000000 0.000000000
vt 14.489933626 0.000000000
vt 0.108255172 0.166983490
vn 0.000000000000 0.000000000000 1.000000000000
vn 0.000000000000 0.000000000000 1.000000000000
vn 0.000000000000 0.000000000000 1.000000000000
f 148/148/148 149/149/149 150/150/150
v -14625.548708501 -8648.142379093 0.000000000
v -14503.641404571 -9227.747966994 0.000000000
v -14484.919099307 -9234.514399471 0.000000000
vt 0.000000000 0.000000000
vt 5.922871164 0.000000000
vt 6.027621844 0.169287410
vn 0.000000000000 0.000000000000 1.000000000000
vn 0.000000000000 0.000000000000 1.000000000000
vn 0.000000000000 0.000000000000 1.000000000000
f 151/151/151 152/152/152 153/153/153
v -14267.214322323 -10137.617107001 0.000000000
v -14366.104784436 -9839.446205372 0.000000000
v -14286.656503300 -10134.570527361 0.000000000
vt 0.000000000 0.000000000
vt 3.141420221 0.000000000
vt 0.090119992 0.174946826
vn 0.000000000000 0.000000000000 1.000000000000
vn 0.000000000000 0.000000000000 1.000000000000
vn 0.000000000000 0.000000000000 1.000000000000
f 154/154/154 155/155/155 156/156/156
v -14071.590847603 -10636.423151157 0.000000000
v -14078.013280391 -10590.399700641 0.000000000
v -14081.593517915 -10619.463602789 0.000000000
vt 0.000000000 0.000000000
vt 0.464694054 0.000000000
vt 0.181792387 0.075627359
vn 0.000000000000 0.000000000000 1.000000000000
vn 0.000000000000 0.000000000000 1.000000000000
vn 0.000000000000 0.000000000000 1.000000000000
f 157/157/157 158/158/158 159/159/159
v -14020.700641033 -10982.501293851 0.000000000
v -14008.654770428 -11018.129376266 0.000000000
v -14015.716003863 -10963.312359204 0.000000000
vt 0.000000000 0.000000000
vt 0.376093506 0.000000000
vt -0.165815320 0.108680549
vn -0.000000000000 0.000000000000 1.000000000000
vn -0.000000000000 0.000000000000 1.000000000000
vn -0.000000000000 0.000000000000 1.000000000000
f 160/160/160 161/161/161 162/162/162
v -14051.546708055 -11530.726745838 0.000000000
v -14070.159312960 -11537.223681362 0.000000000
v -13977.183794893 -12329.786853244 0.000000000
vt 0.000000000 0.000000000
vt 0.197139350 0.000000000
vt 1.931301122 7.789272481
vn 0.000000000000 0.000000000000 1.000000000000
vn 0.000000000000 0.000000000000 1.000000000000
vn 0.000000000000 0.000000000000 1.000000000000
f 163/163/163 164/164/164 165/165/165
v -13457.053729051 -17840.456471353 0.000000000
v -13820.197567722 -18737.762854556 0.000000000
v -13237.303397808 -17802.499595956 0.000000000
vt 0.000000000 0.000000000
vt 9.680042319 0.000000000
vt -1.176233757 1.894615369
vn -0.000000000000 0.000000000000 1.000000000000
vn -0.000000000000 0.000000000000 1.000000000000
vn -0.000000000000 0.000000000000 1.000000000000
f 166/166/166 167/167/167 168/168/168
v -13133.019728663 -17750.103600406 0.000000000
v -12998.500342055 -23290.855698419 0.000000000
v -13119.406976983 -17735.825646441 0.000000000
vt 0.000000000 0.000000000
vt 55.423848005 0.000000000
vt -0.139433524 0.139552822
vn -0.000000000000 0.000000000000 1.000000000000
vn -0.000000000000 0.000000000000 1.000000000000
vn -0.000000000000 0.000000000000 1.000000000000
f 169/169/169 170/170/170 171/171/171
v 2603.330803295 -23301.612619937 0.000000000
v 5347.583890029 -22823.807387881 0.000000000
v 12529.171325264 1798.767228235 0.000000000
vt 0.000000000 0.000000000
vt 27.855381605 0.000000000
vt 140.842124745 230.257755041
vn 0.000000000000 0.000000000000 1.000000000000
vn 0.000000000000 0.000000000000 1.000000000000
vn 0.000000000000 0.000000000000 1.000000000000
f 172/172/172 173/173/173 174/174/174
v -2863.662496540 23834.419839847 0.000000000
v 11500.758913862 11485.424461411 0.000000000
v -1234.878681493 23980.624842611 0.000000000
vt 0.000000000 0.000000000
vt 189.429218790 0.000000000
vt 11.397952407 11.726804459
vn -0.000000000000 0.000000000000 1.000000000000
vn -0.000000000000 0.000000000000 1.000000000000
vn -0.000000000000 0.000000000000 1.000000000000
f 175/175/175 176/176/176 177/177/177
v 2123.411749918 24362.714774048 0.000000000
v 10281.105136287 22911.523026877 0.000000000
v 9022.490109816 25082.722951918 0.000000000
vt 0.000000000 0.000000000
vt 82.857660402 0.000000000
vt 66.663354619 19.172025197
vn -0.000000000000 0.000000000000 1.000000000000
vn -0.000000000000 0.000000000000 1.000000000000
vn -0.000000000000 0.000000000000 1.000000000000
f 178/178/178 179/179/179 180/180/180
v -18133.841669222 6253.030797603 0.000000000
v -7299.795238154 23343.805245281 0.000000000
v -18219.839124192 6719.017007095 0.000000000
vt 0.000000000 0.000000000
vt 202.353930847 0.000000000
vt 3.475279552 3.221226941
vn 0.000000000000 -0.000000000000 1.000000000000
vn 0.000000000000 -0.000000000000 1.000000000000
vn 0.000000000000 -0.000000000000 1.000000000000
f 181/181/181 182/182/182 183/183/183
v -19804.635127789 22050.106673257 0.000000000
v -20816.751839580 21951.363579424 0.000000000
v -21073.498196172 21509.538955168 0.000000000
vt 0.000000000 0.000000000
vt 10.169220407 0.000000000
vt 13.153563320 4.148067791
vn 0.000000000000 0.000000000000 1.000000000000
vn 0.000000000000 0.000000000000 1.000000000000
vn 0.000000000000 0.000000000000 1.000000000000
f 184/184/184 185/185/185 186/186/186
v -14781.955788339 -8486.275880034 0.000000000
v -15789.786894444 -7387.253113290 0.000000000
v -14801.606002152 -8483.130124335 0.000000000
vt 0.000000000 0.000000000
vt 14.911655107 0.000000000
vt 0.155994447 0.123565371
vn 0.000000000000 0.000000000000 1.000000000000
vn 0.000000000000 0.000000000000 1.000000000000
vn 0.000000000000 0.000000000000 1.000000000000
f 187/187/187 188/188/188 189/189/189
v -14466.957962640 -9243.099671309 0.000000000
v -14625.548708501 -8648.142379093 0.000000000
v -14484.919099307 -9234.514399471 0.000000000
vt 0.000000000 0.000000000
vt 6.157314384 0.000000000
vt 0.129217702 0.151438825
vn 0.000000000000 0.000000000000 1.000000000000
vn 0.000000000000 0.000000000000 1.000000000000
vn 0.000000000000 0.000000000000 1.000000000000
f 190/190/190 191/191/191 192/192/192
v -14366.104784436 -9839.446205372 0.000000000
v -14267.214322323 -10137.617107001 0.000000000
v -14356.781331712 -9829.419830715 0.000000000
vt 0.000000000 0.000000000
vt 3.141420221 0.000000000
vt -0.065816493 0.120057008
vn -0.000000000000 0.000000000000 1.000000000000
vn -0.000000000000 0.000000000000 1.000000000000
vn -0.000000000000 0.000000000000 1.000000000000
f 193/193/193 194/194/194 195/195/195
v -14078.013280391 -10590.399700641 0.000000000
v -14071.590847603 -10636.423151157 0.000000000
v -14073.104946120 -10571.274022462 0.000000000
vt 0.000000000 0.000000000
vt 0.464694054 0.000000000
vt -0.182637641 0.075045475
vn -0.000000000000 0.000000000000 1.000000000000
vn -0.000000000000 0.000000000000 1.000000000000
vn -0.000000000000 0.000000000000 1.000000000000
f 196/196/196 197/197/197 198/198/198
v -13997.009601265 -11034.091268360 0.000000000
v -14015.716003863 -10963.312359204 0.000000000
v -14008.654770428 -11018.129376266 0.000000000
vt 0.000000000 0.000000000
vt 0.732091762 0.000000000
vt 0.184075905 0.071800124
vn 0.000000000000 0.000000000000 1.000000000000
vn 0.000000000000 0.000000000000 1.000000000000
vn 0.000000000000 0.000000000000 1.000000000000
f 199/199/199 200/200/200 201/201/201
v -14033.660073617 -11522.437744629 0.000000000
v -14051.546708055 -11530.726745838 0.000000000
v -13977.183794893 -12329.786853244 0.000000000
vt 0.000000000 0.000000000
vt 0.197139350 0.000000000
vt 2.882198399 7.562615137
vn 0.000000000000 0.000000000000 1.000000000000
vn 0.000000000000 0.000000000000 1.000000000000
vn 0.000000000000 0.000000000000 1.000000000000
f 202/202/202 203/203/203 204/204/204
v -13237.303397808 -17802.499595956 0.000000000
v -13820.197567722 -18737.762854556 0.000000000
v -13218.052130495 -17798.191964983 0.000000000
vt 0.000000000 0.000000000
vt 11.020358325 0.000000000
vt -0.138382256 0.140595338
vn -0.000000000000 0.000000000000 1.000000000000
vn -0.000000000000 0.000000000000 1.000000000000
vn -0.000000000000 0.000000000000 1.000000000000
f 205/205/205 206/206/206 207/207/207
v -16921.281605418 -346.297445266 0.000000000
v 12466.684356302 2316.659226991 0.000000000
v -17065.287590645 448.235510055 0.000000000
vt 0.000000000 0.000000000
vt 295.083696874 0.000000000
vt -0.717164716 8.042866955
vn 0.000000000000 -0.000000000000 1.000000000000
vn 0.000000000000 -0.000000000000 1.000000000000
vn 0.000000000000 -0.000000000000 1.000000000000
f 208/208/208 209/209/209 210/210/210
v -1234.878681493 23980.624842611 0.000000000
v 11031.087608906 16029.061921446 0.000000000
v 2123.411749918 24362.714774048 0.000000000
vt 0.000000000 0.000000000
vt 146.178412198 0.000000000
vt 26.101299446 21.474005238
vn -0.000000000000 0.000000000000 1.000000000000
vn -0.000000000000 0.000000000000 1.000000000000
vn -0.000000000000 0.000000000000 1.000000000000
f 211/211/211 212/212/212 213/213/213
v -19190.247404320 12025.251473123 0.000000000
v -10905.768030904 22944.696396279 0.000000000
v -12185.686216890 22809.099121689 0.000000000
vt 0.000000000 0.000000000
vt 137.064538054 0.000000000
vt 128.248178290 9.377074111
vn 0.000000000000 0.000000000000 1.000000000000
vn 0.000000000000 0.000000000000 1.000000000000
vn 0.000000000000 0.000000000000 1.000000000000
f 214/214/214 215/215/215 216/216/216
v -19804.635127789 22050.106673257 0.000000000
v -20741.042448278 19646.666701655 0.000000000
v -13502.441583177 22688.075650879 0.000000000
vt 0.000000000 0.000000000
vt 25.794151211 0.000000000
vt -28.823357090 56.406372646
vn -0.000000000000 0.000000000000 1.000000000000
vn -0.000000000000 0.000000000000 1.000000000000
vn -0.000000000000 0.000000000000 1.000000000000
f 217/217/217 218/218/218 219/219/219
v -14762.712954304 -8491.349342369 0.000000000
v -15789.786894444 -7387.253113290 0.000000000
v -14781.955788339 -8486.275880034 0.000000000
vt 0.000000000 0.000000000
vt 15.079487264 0.000000000
vt 0.168211316 0.106337300
vn 0.000000000000 0.000000000000 1.000000000000
vn 0.000000000000 0.000000000000 1.000000000000
vn 0.000000000000 0.000000000000 1.000000000000
f 220/220/220 221/221/221 222/222/222
v -14449.934182436 -9253.419566194 0.000000000
v -14625.548708501 -8648.142379093 0.000000000
v -14466.957962640 -9243.099671309 0.000000000
vt 0.000000000 0.000000000
vt 6.302387920 0.000000000
vt 0.146547946 0.134739125
vn 0.000000000000 0.000000000000 1.000000000000
vn 0.000000000000 0.000000000000 1.000000000000
vn 0.000000000000 0.000000000000 1.000000000000
f 223/223/223 224/224/224 225/225/225
v -14248.163252513 -10142.550339989 0.000000000
v -14356.781331712 -9829.419830715 0.000000000
v -14267.214322323 -10137.617107001 0.000000000
vt 0.000000000 0.000000000
vt 3.314341608 0.000000000
vt 0.109042362 0.163822368
vn 0.000000000000 0.000000000000 1.000000000000
vn 0.000000000000 0.000000000000 1.000000000000
vn 0.000000000000 0.000000000000 1.000000000000
f 226/226/226 227/227/227 228/228/228
v -14063.295500743 -10654.279996194 0.000000000
v -14073.104946120 -10571.274022462 0.000000000
v -14071.590847603 -10636.423151157 0.000000000
vt 0.000000000 0.000000000
vt 0.835835923 0.000000000
vt 0.187069916 0.061423251
vn 0.000000000000 0.000000000000 1.000000000000
vn 0.000000000000 0.000000000000 1.000000000000
vn 0.000000000000 0.000000000000 1.000000000000
f 229/229/229 230/230/230 231/231/231
v -14015.716003863 -10963.312359204 0.000000000
v -13997.009601265 -11034.091268360 0.000000000
v -14012.646026364 -10943.725704084 0.000000000
vt 0.000000000 0.000000000
vt 0.732091762 0.000000000
vt -0.181520120 0.079728464
vn -0.000000000000 0.000000000000 1.000000000000
vn -0.000000000000 0.000000000000 1.000000000000
vn -0.000000000000 0.000000000000 1.000000000000
f 232/232/232 233/233/233 234/234/234
v -14016.671470929 -11512.436414155 0.000000000
v -14033.660073617 -11522.437744629 0.000000000
v -13977.183794893 -12329.786853244 0.000000000
vt 0.000000000 0.000000000
vt 0.197139350 0.000000000
vt 3.806318435 7.243896856
vn 0.000000000000 0.000000000000 1.000000000000
vn 0.000000000000 0.000000000000 1.000000000000
vn 0.000000000000 0.000000000000 1.000000000000
f 235/235/235 236/236/236 237/237/237
v -13218.052130495 -17798.191964983 0.000000000
v -13820.197567722 -18737.762854556 0.000000000
v -13199.315849869 -17792.017925297 0.000000000
vt 0.000000000 0.000000000
vt 11.159626267 0.000000000
vt -0.153077831 0.124434221
vn -0.000000000000 0.000000000000 1.000000000000
vn -0.000000000000 0.000000000000 1.000000000000
vn -0.000000000000 0.000000000000 1.000000000000
f 238/238/238 239/239/239 240/240/240
v -3306.257102847 23802.522463526 0.000000000
v 11668.880453264 9814.594890783 0.000000000
v 11532.334267103 11254.181433266 0.000000000
vt 0.000000000 0.000000000
vt 204.918730868 0.000000000
vt 194.094132200 9.588195404
vn 0.000000000000 0.000000000000 1.000000000000
vn 0.000000000000 0.000000000000 1.000000000000
vn 0.000000000000 0.000000000000 1.000000000000
f 241/241/241 242/242/242 243/243/243
v -3306.257102847 23802.522463526 0.000000000
v 11500.758913862 11485.424461411 0.000000000
v -3108.603355814 23816.852360186 0.000000000
vt 0.000000000 0.000000000
vt 192.602862521 0.000000000
vt 1.427891268 1.374176659
vn -0.000000000000 0.000000000000 1.000000000000
vn -0.000000000000 0.000000000000 1.000000000000
vn -0.000000000000 0.000000000000 1.000000000000
f 244/244/244 245/245/245 246/246/246
v -20022.181229660 16263.319881345 0.000000000
v -13502.441583177 22688.075650879 0.000000000
v -20741.042448278 19646.666701655 0.000000000
vt 0.000000000 0.000000000
vt 91.533869008 0.000000000
vt 18.627409943 29.144455984
vn 0.000000000000 -0.000000000000 1.000000000000
vn 0.000000000000 -0.000000000000 1.000000000000
vn 0.000000000000 -0.000000000000 1.000000000000
f 247/247/247 248/248/248 249/249/249
v -14693.489624534 -8529.653667874 0.000000000
v -15789.786894444 -7387.253113290 0.000000000
v -14709.283986892 -8517.547272891 0.000000000
vt 0.000000000 0.000000000
vt 15.833340554 0.000000000
vt 0.196709397 0.030134390
vn 0.000000000000 0.000000000000 1.000000000000
vn 0.000000000000 0.000000000000 1.000000000000
vn 0.000000000000 0.000000000000 1.000000000000
f 250/250/250 251/251/251 252/252/252
v -14434.014751660 -9265.372852212 0.000000000
v -14625.548708501 -8648.142379093 0.000000000
v -14449.934182436 -9253.419566194 0.000000000
vt 0.000000000 0.000000000
vt 6.462652037 0.000000000
vt 0.161343113 0.116616175
vn 0.000000000000 0.000000000000 1.000000000000
vn 0.000000000000 0.000000000000 1.000000000000
vn 0.000000000000 0.000000000000 1.000000000000
f 253/253/253 254/254/254 255/255/255
v -14356.781331712 -9829.419830715 0.000000000
v -14248.163252513 -10142.550339989 0.000000000
v -14344.829037043 -9813.726924633 0.000000000
vt 0.000000000 0.000000000
vt 3.314341608 0.000000000
vt -0.109092327 0.164351237
vn -0.000000000000 0.000000000000 1.000000000000
vn -0.000000000000 0.000000000000 1.000000000000
vn -0.000000000000 0.000000000000 1.000000000000
f 256/256/256 257/257/257 258/258/258
v -14073.104946120 -10571.274022462 0.000000000
v -14063.295500743 -10654.279996194 0.000000000
v -14070.096860298 -10551.759035123 0.000000000
vt 0.000000000 0.000000000
vt 0.835835923 0.000000000
vt -0.190270941 0.052775944
vn -0.000000000000 0.000000000000 1.000000000000
vn -0.000000000000 0.000000000000 1.000000000000
vn -0.000000000000 0.000000000000 1.000000000000
f 259/259/259 260/260/260 261/261/261
v -13986.987856060 -11051.119380032 0.000000000
v -14012.646026364 -10943.725704084 0.000000000
v -13997.009601265 -11034.091268360 0.000000000
vt 0.000000000 0.000000000
vt 1.104162277 0.000000000
vt 0.188908025 0.057904701
vn 0.000000000000 0.000000000000 1.000000000000
vn 0.000000000000 0.000000000000 1.000000000000
vn 0.000000000000 0.000000000000 1.000000000000
f 262/262/262 263/263/263 264/264/264
v -14000.744322617 -11500.818962662 0.000000000
v -14016.671470929 -11512.436414155 0.000000000
v -13977.183794893 -12329.786853244 0.000000000
vt 0.000000000 0.000000000
vt 0.197139350 0.000000000
vt 4.694771615 6.836183562
vn 0.000000000000 0.000000000000 1.000000000000
vn 0.000000000000 0.000000000000 1.000000000000
vn 0.000000000000 0.000000000000 1.000000000000
f 265/265/265 266/266/266 267/267/267
v -13199.315849869 -17792.017925297 0.000000000
v -13820.197567722 -18737.762854556 0.000000000
v -13181.275035168 -17784.036949000 0.000000000
vt 0.000000000 0.000000000
vt 11.313388435 0.000000000
vt -0.165725591 0.107012738
vn -0.000000000000 0.000000000000 1.000000000000
vn -0.000000000000 0.000000000000 1.000000000000
vn -0.000000000000 0.000000000000 1.000000000000
f 268/268/268 269/269/269 270/270/270
v -18284.322078351 7068.924510280 0.000000000
v -7761.693563886 23289.317239323 0.000000000
v -8057.684261716 23254.759949729 0.000000000
vt 0.000000000 0.000000000
vt 193.346024303 0.000000000
vt 191.445218233 2.295083055
vn 0.000000000000 0.000000000000 1.000000000000
vn 0.000000000000 0.000000000000 1.000000000000
vn 0.000000000000 0.000000000000 1.000000000000
f 271/271/271 272/272/272 273/273/273
v -19190.247404320 12025.251473123 0.000000000
v -8057.684261716 23254.759949729 0.000000000
v -10905.768030904 22944.696396279 0.000000000
vt 0.000000000 0.000000000
vt 158.125210751 0.000000000
vt 135.871748744 18.043156183
vn 0.000000000000 0.000000000000 1.000000000000
vn 0.000000000000 0.000000000000 1.000000000000
vn 0.000000000000 0.000000000000 1.000000000000
f 274/274/274 275/275/275 276/276/276
v -15789.786894444 -7387.253113290 0.000000000
v -14693.489624534 -8529.653667874 0.000000000
v -16592.018086628 -2157.746040047 0.000000000
vt 0.000000000 0.000000000
vt 15.833340554 0.000000000
vt -43.286352763 30.420775401
vn -0.000000000000 -0.000000000000 1.000000000000
vn -0.000000000000 -0.000000000000 1.000000000000
vn -0.000000000000 -0.000000000000 1.000000000000
f 277/277/277 278/278/278 279/279/279
v -14419.355830279 -9278.842274872 0.000000000
v -14625.548708501 -8648.142379093 0.000000000
v -14434.014751660 -9265.372852212 0.000000000
vt 0.000000000 0.000000000
vt 6.635494417 0.000000000
vt 0.173577550 0.097477004
vn 0.000000000000 0.000000000000 1.000000000000
vn 0.000000000000 0.000000000000 1.000000000000
vn 0.000000000000 0.000000000000 1.000000000000
f 280/280/280 281/281/281 282/282/282
v -14229.685915569 -10149.322936836 0.000000000
v -14344.829037043 -9813.726924633 0.000000000
v -14248.163252513 -10142.550339989 0.000000000
vt 0.000000000 0.000000000
vt 3.547994107 0.000000000
vt 0.124024861 0.152793451
vn 0.000000000000 0.000000000000 1.000000000000
vn 0.000000000000 0.000000000000 1.000000000000
vn 0.000000000000 0.000000000000 1.000000000000
f 283/283/283 284/284/284 285/285/285
v -14056.787077780 -10672.862787285 0.000000000
v -14070.096860298 -10551.759035123 0.000000000
v -14063.295500743 -10654.279996194 0.000000000
vt 0.000000000 0.000000000
vt 1.218329557 0.000000000
vt 0.191825882 0.044393697
vn 0.000000000000 0.000000000000 1.000000000000
vn 0.000000000000 0.000000000000 1.000000000000
vn 0.000000000000 0.000000000000 1.000000000000
f 286/286/286 287/287/287 288/288/288
v -14012.646026364 -10943.725704084 0.000000000
v -13986.987856060 -11051.119380032 0.000000000
v -14011.520576387 -10923.931887298 0.000000000
vt 0.000000000 0.000000000
vt 1.104162277 0.000000000
vt -0.189904492 0.056942656
vn -0.000000000000 0.000000000000 1.000000000000
vn -0.000000000000 0.000000000000 1.000000000000
vn -0.000000000000 0.000000000000 1.000000000000
f 289/289/289 290/290/290 291/291/291
v -13986.031840599 -11487.697144746 0.000000000
v -14000.744322617 -11500.818962662 0.000000000
v -13977.183794893 -12329.786853244 0.000000000
vt 0.000000000 0.000000000
vt 0.197139350 0.000000000
vt 5.539011425 6.343397272
vn 0.000000000000 0.000000000000 1.000000000000
vn 0.000000000000 0.000000000000 1.000000000000
vn 0.000000000000 0.000000000000 1.000000000000
f 292/292/292 293/293/293 294/294/294
v -13820.197567722 -18737.762854556 0.000000000
v -13164.103466480 -17774.325913704 0.000000000
v -13181.275035168 -17784.036949000 0.000000000
vt 0.000000000 0.000000000
vt 11.656200962 0.000000000
vt 11.479281097 0.087270035
vn 0.000000000000 0.000000000000 1.000000000000
vn 0.000000000000 0.000000000000 1.000000000000
vn 0.000000000000 0.000000000000 1.000000000000
f 295/295/295 296/296/296 297/297/297
v -19324.845196971 12612.678270787 0.000000000
v -13502.441583177 22688.075650879 0.000000000
v -20022.181229660 16263.319881345 0.000000000
vt 0.000000000 0.000000000
vt 116.367528206 0.000000000
vt 28.119092659 24.303555278
vn 0.000000000000 -0.000000000000 1.000000000000
vn 0.000000000000 -0.000000000000 1.000000000000
vn 0.000000000000 -0.000000000000 1.000000000000
f 298/298/298 299/299/299 300/300/300
v -14678.969822501 -8543.262563153 0.000000000
v -16592.018086628 -2157.746040047 0.000000000
v -14693.489624534 -8529.653667874 0.000000000
vt 0.000000000 0.000000000
vt 66.659264118 0.000000000
vt 0.172034464 0.100034051
vn 0.000000000000 0.000000000000 1.000000000000
vn 0.000000000000 0.000000000000 1.000000000000
vn 0.000000000000 0.000000000000 1.000000000000
f 301/301/301 302/302/302 303/303/303
v -14406.101213427 -9293.695707303 0.000000000
v -14625.548708501 -8648.142379093 0.000000000
v -14419.355830279 -9278.842274872 0.000000000
vt 0.000000000 0.000000000
vt 6.818330460 0.000000000
vt 0.183290840 0.077687837
vn 0.000000000000 0.000000000000 1.000000000000
vn 0.000000000000 0.000000000000 1.000000000000
vn 0.000000000000 0.000000000000 1.000000000000
f 304/304/304 305/305/305 306/306/306
v -14344.829037043 -9813.726924633 0.000000000
v -14229.685915569 -10149.322936836 0.000000000
v -14334.472556487 -9796.938000913 0.000000000
vt 0.000000000 0.000000000
vt 3.547994107 0.000000000
vt -0.125192382 0.152444522
vn -0.000000000000 0.000000000000 1.000000000000
vn -0.000000000000 0.000000000000 1.000000000000
vn -0.000000000000 0.000000000000 1.000000000000
f 307/307/307 308/308/308 309/309/309
v -14070.096860298 -10551.759035123 0.000000000
v -14056.787077780 -10672.862787285 0.000000000
v -14069.018051969 -10532.043064852 0.000000000
vt 0.000000000 0.000000000
vt 1.218329557 0.000000000
vt -0.194801091 0.032262454
vn -0.000000000000 0.000000000000 1.000000000000
vn -0.000000000000 0.000000000000 1.000000000000
vn -0.000000000000 0.000000000000 1.000000000000
f 310/310/310 311/311/311 312/312/312
v -13978.686374218 -11069.049169861 0.000000000
v -14011.520576387 -10923.931887298 0.000000000
v -13986.987856060 -11051.119380032 0.000000000
vt 0.000000000 0.000000000
vt 1.487854513 0.000000000
vt 0.193197311 0.041400428
vn 0.000000000000 0.000000000000 1.000000000000
vn 0.000000000000 0.000000000000 1.000000000000
vn 0.000000000000 0.000000000000 1.000000000000
f 313/313/313 314/314/314 315/315/315
v -13972.675552255 -11473.197186324 0.000000000
v -13986.031840599 -11487.697144746 0.000000000
v -13977.183794893 -12329.786853244 0.000000000
vt 0.000000000 0.000000000
vt 0.197139350 0.000000000
vt 6.330916661 5.770278365
vn 0.000000000000 0.000000000000 1.000000000000
vn 0.000000000000 0.000000000000 1.000000000000
vn 0.000000000000 0.000000000000 1.000000000000
f 316/316/316 317/317/317 318/318/318
v -13820.197567722 -18737.762854556 0.000000000
v -13147.966550786 -17762.978362002 0.000000000
v -13164.103466480 -17774.325913704 0.000000000
vt 0.000000000 0.000000000
vt 11.841027603 0.000000000
vt 11.656000143 0.068421755
vn 0.000000000000 0.000000000000 1.000000000000
vn 0.000000000000 0.000000000000 1.000000000000
vn 0.000000000000 0.000000000000 1.000000000000
f 319/319/319 320/320/320 321/321/321
v -14665.866909669 -8558.240558917 0.000000000
v -16592.018086628 -2157.746040047 0.000000000
v -14678.969822501 -8543.262563153 0.000000000
vt 0.000000000 0.000000000
vt 66.840398295 0.000000000
vt 0.181184993 0.082308363
vn 0.000000000000 0.000000000000 1.000000000000
vn 0.000000000000 0.000000000000 1.000000000000
vn 0.000000000000 0.000000000000 1.000000000000
f 322/322/322 323/323/323 324/324/324
v -14394.380920861 -9309.787446334 0.000000000
v -14625.548708501 -8648.142379093 0.000000000
v -14406.101213427 -9293.695707303 0.000000000
vt 0.000000000 0.000000000
vt 7.008657083 0.000000000
vt 0.190569658 0.057568547
vn 0.000000000000 0.000000000000 1.000000000000
vn 0.000000000000 0.000000000000 1.000000000000
vn 0.000000000000 0.000000000000 1.000000000000
f 325/325/325 326/326/326 327/327/327
v -14211.959433440 -10157.869976087 0.000000000
v -14334.472556487 -9796.938000913 0.000000000
v -14229.685915569 -10149.322936836 0.000000000
vt 0.000000000 0.000000000
vt 3.811579148 0.000000000
vt 0.137912037 0.140386164
vn 0.000000000000 0.000000000000 1.000000000000
vn 0.000000000000 0.000000000000 1.000000000000
vn 0.000000000000 0.000000000000 1.000000000000
f 328/328/328 329/329/329 330/330/330
v -14052.128032201 -10691.993207784 0.000000000
v -14069.018051969 -10532.043064852 0.000000000
v -14056.787077780 -10672.862787285 0.000000000
vt 0.000000000 0.000000000
vt 1.608394261 0.000000000
vt 0.195139024 0.026243679
vn 0.000000000000 0.000000000000 1.000000000000
vn 0.000000000000 0.000000000000 1.000000000000
vn 0.000000000000 0.000000000000 1.000000000000
f 331/331/331 332/332/332 333/333/333
v -14011.520576387 -10923.931887298 0.000000000
v -13978.686374218 -11069.049169861 0.000000000
v -14012.350603447 -10904.123483130 0.000000000
vt 0.000000000 0.000000000
vt 1.487854513 0.000000000
vt -0.195032178 0.035617856
vn -0.000000000000 -0.000000000000 1.000000000000
vn -0.000000000000 -0.000000000000 1.000000000000
vn -0.000000000000 -0.000000000000 1.000000000000
f 334/334/334 335/335/335 336/336/336
v -13960.803939001 -11457.458570397 0.000000000
v -13972.675552255 -11473.197186324 0.000000000
v -13977.183794893 -12329.786853244 0.000000000
vt 0.000000000 0.000000000
vt 0.197139350 0.000000000
vt 7.062869555 5.122339985
vn 0.000000000000 0.000000000000 1.000000000000
vn 0.000000000000 0.000000000000 1.000000000000
vn 0.000000000000 0.000000000000 1.000000000000
f 337/337/337 338/338/338 339/339/339
v -13820.197567722 -18737.762854556 0.000000000
v -13133.019728663 -17750.103600406 0.000000000
v -13147.966550786 -17762.978362002 0.000000000
vt 0.000000000 0.000000000
vt 12.031974837 0.000000000
vt 11.840925548 0.049161642
vn 0.000000000000 0.000000000000 1.000000000000
vn 0.000000000000 0.000000000000 1.000000000000
vn 0.000000000000 0.000000000000 1.000000000000
f 340/340/340 341/341/341 342/342/342
v -14654.309326008 -8574.440834893 0.000000000
v -16592.018086628 -2157.746040047 0.000000000
v -14665.866909669 -8558.240558917 0.000000000
vt 0.000000000 0.000000000
vt 67.028864925 0.000000000
vt 0.188497087 0.063808436
vn 0.000000000000 0.000000000000 1.000000000000
vn 0.000000000000 0.000000000000 1.000000000000
vn 0.000000000000 0.000000000000 1.000000000000
f 343/343/343 344/344/344 345/345/345
v -14384.309921548 -9326.959641759 0.000000000
v -14625.548708501 -8648.142379093 0.000000000
v -14394.380920861 -9309.787446334 0.000000000
vt 0.000000000 0.000000000
vt 7.204089314 0.000000000
vt 0.195531978 0.037392215
vn 0.000000000000 0.000000000000 1.000000000000
vn 0.000000000000 0.000000000000 1.000000000000
vn 0.000000000000 0.000000000000 1.000000000000
f 346/346/346 347/347/347 348/348/348
v -14334.472556487 -9796.938000913 0.000000000
v -14211.959433440 -10157.869976087 0.000000000
v -14325.811639106 -9779.214763079 0.000000000
vt 0.000000000 0.000000000
vt 3.811579148 0.000000000
vt -0.139989411 0.138979962
vn -0.000000000000 0.000000000000 1.000000000000
vn -0.000000000000 0.000000000000 1.000000000000
vn -0.000000000000 0.000000000000 1.000000000000
f 349/349/349 350/350/350 351/351/351
v -14069.018051969 -10532.043064852 0.000000000
v -14052.128032201 -10691.993207784 0.000000000
v -14069.878932000 -10512.316377428 0.000000000
vt 0.000000000 0.000000000
vt 1.608394261 0.000000000
vt -0.197080208 0.012154125
vn -0.000000000000 -0.000000000000 1.000000000000
vn -0.000000000000 -0.000000000000 1.000000000000
vn -0.000000000000 -0.000000000000 1.000000000000
f 352/352/352 353/353/353 354/354/354
v -13972.185372363 -11087.707383573 0.000000000
v -14012.350603447 -10904.123483130 0.000000000
v -13978.686374218 -11069.049169861 0.000000000
vt 0.000000000 0.000000000
vt 1.879263002 0.000000000
vt 0.196165299 0.023629892
vn 0.000000000000 0.000000000000 1.000000000000
vn 0.000000000000 0.000000000000 1.000000000000
vn 0.000000000000 0.000000000000 1.000000000000
f 355/355/355 356/356/356 357/357/357
v -13950.531200354 -11440.632695287 0.000000000
v -13960.803939001 -11457.458570397 0.000000000
v -13977.183794893 -12329.786853244 0.000000000
vt 0.000000000 0.000000000
vt 0.197139350 0.000000000
vt 7.727829054 4.405815004
vn 0.000000000000 0.000000000000 1.000000000000
vn 0.000000000000 0.000000000000 1.000000000000
vn 0.000000000000 0.000000000000 1.000000000000
f 358/358/358 359/359/359 360/360/360
v -12998.500342055 -23290.855698419 0.000000000
v -13133.019728663 -17750.103600406 0.000000000
v -13820.197567722 -18737.762854556 0.000000000
vt 0.000000000 0.000000000
vt 55.423848005 0.000000000
vt 45.716950096 7.109469141
vn 0.000000000000 0.000000000000 1.000000000000
vn 0.000000000000 0.000000000000 1.000000000000
vn 0.000000000000 0.000000000000 1.000000000000
f 361/361/361 362/362/362 363/363/363
v 12529.171325264 1798.767228235 0.000000000
v -16592.018086628 -2157.746040047 0.000000000
v -14654.309326008 -8574.440834893 0.000000000
vt 0.000000000 0.000000000
vt 293.887337258 0.000000000
vt 283.325247023 66.191472132
vn 0.000000000000 0.000000000000 1.000000000000
vn 0.000000000000 0.000000000000 1.000000000000
vn 0.000000000000 0.000000000000 1.000000000000
f 364/364/364 365/365/365 366/366/366
v -14625.548708501 -8648.142379093 0.000000000
v -14384.309921548 -9326.959641759 0.000000000
v -14629.959226900 -8628.736864174 0.000000000
vt 0.000000000 0.000000000
vt 7.204089314 0.000000000
vt -0.197620907 0.023423181
vn -0.000000000000 -0.000000000000 1.000000000000
vn -0.000000000000 -0.000000000000 1.000000000000
vn -0.000000000000 -0.000000000000 1.000000000000
f 367/367/367 368/368/368 369/369/369
v -14195.153730458 -10168.109526658 0.000000000
v -14325.811639106 -9779.214763079 0.000000000
v -14211.959433440 -10157.869976087 0.000000000
vt 0.000000000 0.000000000
vt 4.102567808 0.000000000
vt 0.150586313 0.126695569
vn 0.000000000000 0.000000000000 1.000000000000
vn 0.000000000000 0.000000000000 1.000000000000
vn 0.000000000000 0.000000000000 1.000000000000
f 370/370/370 371/371/371 372/372/372
v -14069.878932000 -10512.316377428 0.000000000
v -14052.128032201 -10691.993207784 0.000000000
v -14015.128032201 -10884.493207784 0.000000000
vt 0.000000000 0.000000000
vt 1.805515378 0.000000000
vt 3.757565943 0.178951370
vn 0.000000000000 0.000000000000 1.000000000000
vn 0.000000000000 0.000000000000 1.000000000000
vn 0.000000000000 0.000000000000 1.000000000000
f 373/373/373 374/374/374 375/375/375
v -14012.350603447 -10904.123483130 0.000000000
v -13972.185372363 -11087.707383573 0.000000000
v -14015.128032201 -10884.493207784 0.000000000
vt 0.000000000 0.000000000
vt 1.879263002 0.000000000
vt -0.197702960 0.014823010
vn -0.000000000000 -0.000000000000 1.000000000000
vn -0.000000000000 -0.000000000000 1.000000000000
vn -0.000000000000 -0.000000000000 1.000000000000
f 376/376/376 377/377/377 378/378/378
v -13941.956155383 -11422.881418254 0.000000000
v -13950.531200354 -11440.632695287 0.000000000
v -13977.183794893 -12329.786853244 0.000000000
vt 0.000000000 0.000000000
vt 0.197139350 0.000000000
vt 8.319398550 3.627596067
vn 0.000000000000 0.000000000000 1.000000000000
vn 0.000000000000 0.000000000000 1.000000000000
vn 0.000000000000 0.000000000000 1.000000000000
f 379/379/379 380/380/380 381/381/381
v -12998.500342055 -23290.855698419 0.000000000
v -13107.259422040 -17720.282034034 0.000000000
v -13119.406976983 -17735.825646441 0.000000000
vt 0.000000000 0.000000000
vt 55.716352616 0.000000000
vt 55.563317327 0.124486538
vn 0.000000000000 0.000000000000 1.000000000000
vn 0.000000000000 0.000000000000 1.000000000000
vn 0.000000000000 0.000000000000 1.000000000000
f 382/382/382 383/383/383 384/384/384
v 12466.684356302 2316.659226991 0.000000000
v -16592.018086628 -2157.746040047 0.000000000
v 12529.171325264 1798.767228235 0.000000000
vt 0.000000000 0.000000000
vt 294.011647756 0.000000000
vt 0.170560742 5.213691916
vn 0.000000000000 0.000000000000 1.000000000000
vn 0.000000000000 0.000000000000 1.000000000000
vn 0.000000000000 0.000000000000 1.000000000000
f 385/385/385 386/386/386 387/387/387
v -14375.987005888 -9345.043844749 0.000000000
v -14629.959226900 -8628.736864174 0.000000000
v -14384.309921548 -9326.959641759 0.000000000
vt 0.000000000 0.000000000
vt 7.599984075 0.000000000
vt 0.198258708 0.018011582
vn 0.000000000000 0.000000000000 1.000000000000
vn 0.000000000000 0.000000000000 1.000000000000
vn 0.000000000000 0.000000000000 1.000000000000
f 388/388/388 389/389/389 390/390/390
v -14325.811639106 -9779.214763079 0.000000000
v -14195.153730458 -10168.109526658 0.000000000
v -14318.929703044 -9760.727913558 0.000000000
vt 0.000000000 0.000000000
vt 4.102567808 0.000000000
vt -0.153324939 0.124112561
vn -0.000000000000 0.000000000000 1.000000000000
vn -0.000000000000 0.000000000000 1.000000000000
vn -0.000000000000 0.000000000000 1.000000000000
f 391/391/391 392/392/392 393/393/393
v -13967.547669208 -11106.913728190 0.000000000
v -14069.878932000 -10512.316377428 0.000000000
v -14015.128032201 -10884.493207784 0.000000000
vt 0.000000000 0.000000000
vt 6.033387911 0.000000000
vt 2.272680173 0.091666326
vn 0.000000000000 0.000000000000 1.000000000000
vn 0.000000000000 0.000000000000 1.000000000000
vn 0.000000000000 0.000000000000 1.000000000000
f 394/394/394 395/395/395 396/396/396
v -14015.128032201 -10884.493207784 0.000000000
v -13972.185372363 -11087.707383573 0.000000000
v -13967.547669208 -11106.913728190 0.000000000
vt 0.000000000 0.000000000
vt 2.077018856 0.000000000
vt 2.274521001 0.005665596
vn 0.000000000000 0.000000000000 1.000000000000
vn 0.000000000000 0.000000000000 1.000000000000
vn 0.000000000000 0.000000000000 1.000000000000
f 397/397/397 398/398/398 399/399/399
v -13935.161292119 -11404.375498504 0.000000000
v -13941.956155383 -11422.881418254 0.000000000
v -13977.183794893 -12329.786853244 0.000000000
vt 0.000000000 0.000000000
vt 0.197139350 0.000000000
vt 8.831887414 2.795169285
vn 0.000000000000 0.000000000000 1.000000000000
vn 0.000000000000 0.000000000000 1.000000000000
vn 0.000000000000 0.000000000000 1.000000000000
f 400/400/400 401/401/401 402/402/402
v -9172.344625106 -25399.055441524 0.000000000
v -13096.694076464 -17703.622488704 0.000000000
v -13107.259422040 -17720.282034034 0.000000000
vt 0.000000000 0.000000000
vt 86.382988457 0.000000000
vt 86.282574814 0.169805177
vn 0.000000000000 0.000000000000 1.000000000000
vn 0.000000000000 0.000000000000 1.000000000000
vn 0.000000000000 0.000000000000 1.000000000000
f 403/403/403 404/404/404 405/405/405
v -16592.018086628 -2157.746040047 0.000000000
v 12466.684356302 2316.659226991 0.000000000
v -16781.287880114 -1117.262889616 0.000000000
vt 0.000000000 0.000000000
vt 294.011647756 0.000000000
vt -0.287196554 10.571676416
vn 0.000000000000 -0.000000000000 1.000000000000
vn 0.000000000000 -0.000000000000 1.000000000000
vn 0.000000000000 -0.000000000000 1.000000000000
f 406/406/406 407/407/407 408/408/408
v 12529.171325264 1798.767228235 0.000000000
v -14629.959226900 -8628.736864174 0.000000000
v -14375.987005888 -9345.043844749 0.000000000
vt 0.000000000 0.000000000
vt 290.921160101 0.000000000
vt 291.117649509 7.597443640
vn 0.000000000000 0.000000000000 1.000000000000
vn 0.000000000000 0.000000000000 1.000000000000
vn 0.000000000000 0.000000000000 1.000000000000
f 409/409/409 410/410/410 411/411/411
v -14179.429904453 -10179.943433215 0.000000000
v -14318.929703044 -9760.727913558 0.000000000
v -14195.153730458 -10168.109526658 0.000000000
vt 0.000000000 0.000000000
vt 4.418165295 0.000000000
vt 0.161932100 0.111830228
vn 0.000000000000 0.000000000000 1.000000000000
vn 0.000000000000 0.000000000000 1.000000000000
vn 0.000000000000 0.000000000000 1.000000000000
f 412/412/412 413/413/413 414/414/414
v -14069.878932000 -10512.316377428 0.000000000
v -13967.547669208 -11106.913728190 0.000000000
v -14072.671192606 -10492.769342056 0.000000000
vt 0.000000000 0.000000000
vt 6.033387911 0.000000000
vt -0.197374198 0.005635342
vn -0.000000000000 -0.000000000000 1.000000000000
vn -0.000000000000 -0.000000000000 1.000000000000
vn -0.000000000000 -0.000000000000 1.000000000000
f 415/415/415 416/416/416 417/417/417
v -13930.211974054 -11385.292954564 0.000000000
v -13935.161292119 -11404.375498504 0.000000000
v -13977.183794893 -12329.786853244 0.000000000
vt 0.000000000 0.000000000
vt 0.197139350 0.000000000
vt 9.260365736 1.916542224
vn 0.000000000000 0.000000000000 1.000000000000
vn 0.000000000000 0.000000000000 1.000000000000
vn 0.000000000000 0.000000000000 1.000000000000
f 418/418/418 419/419/419 420/420/420
v -9172.344625106 -25399.055441524 0.000000000
v -13087.812712082 -17686.007485314 0.000000000
v -13096.694076464 -17703.622488704 0.000000000
vt 0.000000000 0.000000000
vt 86.499710471 0.000000000
vt 86.382842256 0.158929287
vn 0.000000000000 0.000000000000 1.000000000000
vn 0.000000000000 0.000000000000 1.000000000000
vn 0.000000000000 0.000000000000 1.000000000000
f 421/421/421 422/422/422 423/423/423
v -17065.287590645 448.235510055 0.000000000
v 11668.880453264 9814.594890783 0.000000000
v -17712.046291376 4007.159064348 0.000000000
vt 0.000000000 0.000000000
vt 302.221955064 0.000000000
vt 4.880546757 35.841367602
vn 0.000000000000 -0.000000000000 1.000000000000
vn 0.000000000000 -0.000000000000 1.000000000000
vn 0.000000000000 -0.000000000000 1.000000000000
f 424/424/424 425/425/425 426/426/426
v -14318.929703044 -9760.727913558 0.000000000
v -14179.429904453 -10179.943433215 0.000000000
v -14313.893032081 -9741.655509546 0.000000000
vt 0.000000000 0.000000000
vt 4.418165295 0.000000000
vt -0.165064743 0.108009702
vn -0.000000000000 0.000000000000 1.000000000000
vn -0.000000000000 0.000000000000 1.000000000000
vn -0.000000000000 0.000000000000 1.000000000000
f 427/427/427 428/428/428 429/429/429
v 2603.330803295 -23301.612619937 0.000000000
v -13967.547669208 -11106.913728190 0.000000000
v -13929.547669208 -11306.913728190 0.000000000
vt 0.000000000 0.000000000
vt 205.743698424 0.000000000
vt 204.252214999 1.385596331
vn 0.000000000000 0.000000000000 1.000000000000
vn 0.000000000000 0.000000000000 1.000000000000
vn 0.000000000000 0.000000000000 1.000000000000
f 430/430/430 431/431/431 432/432/432
v -13930.815502994 -12611.486691127 0.000000000
v -13930.211974054 -11385.292954564 0.000000000
v -13977.183794893 -12329.786853244 0.000000000
vt 0.000000000 0.000000000
vt 12.261938851 0.000000000
vt 2.816769814 0.465069381
vn 0.000000000000 -0.000000000000 1.000000000000
vn 0.000000000000 -0.000000000000 1.000000000000
vn 0.000000000000 -0.000000000000 1.000000000000
f 433/433/433 434/434/434 435/435/435
v -9172.344625106 -25399.055441524 0.000000000
v -13080.700879592 -17667.606702277 0.000000000
v -13087.812712082 -17686.007485314 0.000000000
vt 0.000000000 0.000000000
vt 86.631719491 0.000000000
vt 86.499586438 0.146483972
vn 0.000000000000 0.000000000000 1.000000000000
vn 0.000000000000 0.000000000000 1.000000000000
vn 0.000000000000 0.000000000000 1.000000000000
f 436/436/436 437/437/437 438/438/438
v -17987.844998450 5457.549232148 0.000000000
v 11668.880453264 9814.594890783 0.000000000
v -18133.841669222 6253.030797603 0.000000000
vt 0.000000000 0.000000000
vt 299.750765035 0.000000000
vt -0.288183979 8.082545693
vn 0.000000000000 -0.000000000000 1.000000000000
vn 0.000000000000 -0.000000000000 1.000000000000
vn 0.000000000000 -0.000000000000 1.000000000000
f 439/439/439 440/440/440 441/441/441
v -14164.938682489 -10193.258257082 0.000000000
v -14313.893032081 -9741.655509546 0.000000000
v -14179.429904453 -10179.943433215 0.000000000
vt 0.000000000 0.000000000
vt 4.755338472 0.000000000
vt 0.171839326 0.095912725
vn 0.000000000000 0.000000000000 1.000000000000
vn 0.000000000000 0.000000000000 1.000000000000
vn 0.000000000000 0.000000000000 1.000000000000
f 442/442/442 443/443/443 444/444/444
v -13930.211974054 -11385.292954564 0.000000000
v -13930.815502994 -12611.486691127 0.000000000
v -13927.155811375 -11365.817351820 0.000000000
vt 0.000000000 0.000000000
vt 12.261938851 0.000000000
vt -0.194771046 0.030465765
vn -0.000000000000 0.000000000000 1.000000000000
vn -0.000000000000 0.000000000000 1.000000000000
vn -0.000000000000 0.000000000000 1.000000000000
f 445/445/445 446/446/446 447/447/447
v -9172.344625106 -25399.055441524 0.000000000
v -13075.427084486 -17648.597387116 0.000000000
v -13080.700879592 -17667.606702277 0.000000000
vt 0.000000000 0.000000000
vt 86.777677278 0.000000000
vt 86.631618007 0.132602365
vn 0.000000000000 0.000000000000 1.000000000000
vn 0.000000000000 0.000000000000 1.000000000000
vn 0.000000000000 0.000000000000 1.000000000000
f 448/448/448 449/449/449 450/450/450
v -18284.322078351 7068.924510280 0.000000000
v -8057.684261716 23254.759949729 0.000000000
v -19190.247404320 12025.251473123 0.000000000
vt 0.000000000 0.000000000
vt 191.458974693 0.000000000
vt 37.061580697 34.132491883
vn 0.000000000000 -0.000000000000 1.000000000000
vn 0.000000000000 -0.000000000000 1.000000000000
vn 0.000000000000 -0.000000000000 1.000000000000
f 451/451/451 452/452/452 453/453/453
v -14313.893032081 -9741.655509546 0.000000000
v -14164.938682489 -10193.258257082 0.000000000
v -14310.750137214 -9722.181248045 0.000000000
vt 0.000000000 0.000000000
vt 4.755338472 0.000000000
vt -0.175097571 0.090847706
vn -0.000000000000 0.000000000000 1.000000000000
vn -0.000000000000 0.000000000000 1.000000000000
vn -0.000000000000 0.000000000000 1.000000000000
f 454/454/454 455/455/455 456/456/456
v -13927.155811375 -11365.817351820 0.000000000
v -13930.815502994 -12611.486691127 0.000000000
v -13926.022202975 -11346.136036708 0.000000000
vt 0.000000000 0.000000000
vt 12.456747153 0.000000000
vt -0.196845606 0.010757814
vn -0.000000000000 0.000000000000 1.000000000000
vn -0.000000000000 0.000000000000 1.000000000000
vn -0.000000000000 0.000000000000 1.000000000000
f 457/457/457 458/458/458 459/459/459
v -1587.837892379 -24054.142909485 0.000000000
v -13072.042127161 -17629.162649102 0.000000000
v -13075.427084486 -17648.597387116 0.000000000
vt 0.000000000 0.000000000
vt 131.593053864 0.000000000
vt 131.527705227 0.186135041
vn 0.000000000000 0.000000000000 1.000000000000
vn 0.000000000000 0.000000000000 1.000000000000
vn 0.000000000000 0.000000000000 1.000000000000
f 460/460/460 461/461/461 462/462/462
v -7299.795238154 23343.805245281 0.000000000
v -18133.841669222 6253.030797603 0.000000000
v -3306.257102847 23802.522463526 0.000000000
vt 0.000000000 0.000000000
vt 202.353930847 0.000000000
vt -25.255753560 31.273371173
vn -0.000000000000 0.000000000000 1.000000000000
vn -0.000000000000 0.000000000000 1.000000000000
vn -0.000000000000 0.000000000000 1.000000000000
f 463/463/463 464/464/464 465/465/465
v -14151.818976007 -10207.926363655 0.000000000
v -14310.750137214 -9722.181248045 0.000000000
v -14164.938682489 -10193.258257082 0.000000000
vt 0.000000000 0.000000000
vt 5.110845638 0.000000000
vt 0.180206799 0.079079166
vn 0.000000000000 0.000000000000 1.000000000000
vn 0.000000000000 0.000000000000 1.000000000000
vn 0.000000000000 0.000000000000 1.000000000000
f 466/466/466 467/467/467 468/468/468
v -1587.837892379 -24054.142909485 0.000000000
v -13926.022202975 -11346.136036708 0.000000000
v -13930.815502994 -12611.486691127 0.000000000
vt 0.000000000 0.000000000
vt 177.122621582 0.000000000
vt 168.077506932 8.848696311
vn 0.000000000000 0.000000000000 1.000000000000
vn 0.000000000000 0.000000000000 1.000000000000
vn 0.000000000000 0.000000000000 1.000000000000
f 469/469/469 470/470/470 471/471/471
v -1587.837892379 -24054.142909485 0.000000000
v -13070.578613583 -17609.489695441 0.000000000
v -13072.042127161 -17629.162649102 0.000000000
vt 0.000000000 0.000000000
vt 131.676455572 0.000000000
vt 131.592932503 0.178719318
vn 0.000000000000 0.000000000000 1.000000000000
vn 0.000000000000 0.000000000000 1.000000000000
vn 0.000000000000 0.000000000000 1.000000000000
f 472/472/472 473/473/473 474/474/474
v -3306.257102847 23802.522463526 0.000000000
v -18133.841669222 6253.030797603 0.000000000
v 11668.880453264 9814.594890783 0.000000000
vt 0.000000000 0.000000000
vt 229.748105935 0.000000000
vt 10.200693390 204.664682138
vn 0.000000000000 0.000000000000 1.000000000000
vn 0.000000000000 0.000000000000 1.000000000000
vn 0.000000000000 0.000000000000 1.000000000000
f 475/475/475 476/476/476 477/477/477
v -14310.750137214 -9722.181248045 0.000000000
v -14151.818976007 -10207.926363655 0.000000000
v -14309.531289423 -9702.492696568 0.000000000
vt 0.000000000 0.000000000
vt 5.110845638 0.000000000
vt -0.183333747 0.072809354
vn -0.000000000000 0.000000000000 1.000000000000
vn -0.000000000000 0.000000000000 1.000000000000
vn -0.000000000000 0.000000000000 1.000000000000
f 478/478/478 479/479/479 480/480/480
v -1587.837892379 -24054.142909485 0.000000000
v -13071.050641205 -17589.768027975 0.000000000
v -13070.578613583 -17609.489695441 0.000000000
vt 0.000000000 0.000000000
vt 131.777205026 0.000000000
vt 131.676346425 0.169541265
vn 0.000000000000 0.000000000000 1.000000000000
vn 0.000000000000 0.000000000000 1.000000000000
vn 0.000000000000 0.000000000000 1.000000000000
f 481/481/481 482/482/482 483/483/483
v 11668.880453264 9814.594890783 0.000000000
v -17065.287590645 448.235510055 0.000000000
v 12466.684356302 2316.659226991 0.000000000
vt 0.000000000 0.000000000
vt 302.221955064 0.000000000
vt 15.652115219 73.760181113
vn 0.000000000000 0.000000000000 1.000000000000
vn 0.000000000000 0.000000000000 1.000000000000
vn 0.000000000000 0.000000000000 1.000000000000
f 484/484/484 485/485/485 486/486/486
v -14140.196549236 -10223.807145895 0.000000000
v -14309.531289423 -9702.492696568 0.000000000
v -14151.818976007 -10207.926363655 0.000000000
vt 0.000000000 0.000000000
vt 5.481268186 0.000000000
vt 0.186945092 0.061477942
vn 0.000000000000 0.000000000000 1.000000000000
vn 0.000000000000 0.000000000000 1.000000000000
vn 0.000000000000 0.000000000000 1.000000000000
f 487/487/487 488/488/488 489/489/489
v -1587.837892379 -24054.142909485 0.000000000
v -13073.453663169 -17570.187617786 0.000000000
v -13071.050641205 -17589.768027975 0.000000000
vt 0.000000000 0.000000000
vt 131.894293227 0.000000000
vt 131.777109468 0.158696768
vn 0.000000000000 0.000000000000 1.000000000000
vn 0.000000000000 0.000000000000 1.000000000000
vn 0.000000000000 0.000000000000 1.000000000000
f 490/490/490 491/491/491 492/492/492
v -16781.287880114 -1117.262889616 0.000000000
v 12466.684356302 2316.659226991 0.000000000
v -16921.281605418 -346.297445266 0.000000000
vt 0.000000000 0.000000000
vt 294.488658703 0.000000000
vt -0.491393219 7.820302338
vn 0.000000000000 -0.000000000000 1.000000000000
vn 0.000000000000 -0.000000000000 1.000000000000
vn 0.000000000000 -0.000000000000 1.000000000000
f 493/493/493 494/494/494 495/495/495
v -14309.531289423 -9702.492696568 0.000000000
v -14140.196549236 -10223.807145895 0.000000000
v -14310.248228114 -9682.779486579 0.000000000
vt 0.000000000 0.000000000
vt 5.481268186 0.000000000
vt -0.189703979 0.054082024
vn -0.000000000000 -0.000000000000 1.000000000000
vn -0.000000000000 -0.000000000000 1.000000000000
vn -0.000000000000 -0.000000000000 1.000000000000
f 496/496/496 497/497/497 498/498/498
v -13926.022202975 -11346.136036708 0.000000000
v 2603.330803295 -23301.612619937 0.000000000
v -13926.822053653 -11326.438334521 0.000000000
vt 0.000000000 0.000000000
vt 203.998267428 0.000000000
vt -0.121920855 0.154916844
vn -0.000000000000 -0.000000000000 1.000000000000
vn -0.000000000000 -0.000000000000 1.000000000000
vn -0.000000000000 -0.000000000000 1.000000000000
f 499/499/499 500/500/500 501/501/501
v 12529.171325264 1798.767228235 0.000000000
v -14654.309326008 -8574.440834893 0.000000000
v -14644.410363550 -8591.704589527 0.000000000
vt 0.000000000 0.000000000
vt 290.954475105 0.000000000
vt 290.923539773 0.196585028
vn 0.000000000000 0.000000000000 1.000000000000
vn 0.000000000000 0.000000000000 1.000000000000
vn 0.000000000000 0.000000000000 1.000000000000
f 502/502/502 503/503/503 504/504/504
v -14130.182813625 -10240.748372171 0.000000000
v -14310.248228114 -9682.779486579 0.000000000
v -14140.196549236 -10223.807145895 0.000000000
vt 0.000000000 0.000000000
vt 5.863043841 0.000000000
vt 0.191978858 0.043268037
vn 0.000000000000 0.000000000000 1.000000000000
vn 0.000000000000 0.000000000000 1.000000000000
vn 0.000000000000 0.000000000000 1.000000000000
f 505/505/505 506/506/506 507/507/507
v -13929.547669208 -11306.913728190 0.000000000
v -13926.822053653 -11326.438334521 0.000000000
v 2603.330803295 -23301.612619937 0.000000000
vt 0.000000000 0.000000000
vt 0.197139350 0.000000000
vt 141.653122467 147.157331127
vn 0.000000000000 0.000000000000 1.000000000000
vn 0.000000000000 0.000000000000 1.000000000000
vn 0.000000000000 0.000000000000 1.000000000000
f 508/508/508 509/509/509 510/510/510
v 12529.171325264 1798.767228235 0.000000000
v -14644.410363550 -8591.704589527 0.000000000
v -14636.267055867 -8609.862596625 0.000000000
vt 0.000000000 0.000000000
vt 290.923606191 0.000000000
vt 290.912396178 0.198688207
vn 0.000000000000 0.000000000000 1.000000000000
vn 0.000000000000 0.000000000000 1.000000000000
vn 0.000000000000 0.000000000000 1.000000000000
f 511/511/511 512/512/512 513/513/513
v -14310.248228114 -9682.779486579 0.000000000
v -14130.182813625 -10240.748372171 0.000000000
v -14312.894048049 -9663.231487038 0.000000000
vt 0.000000000 0.000000000
vt 5.863043841 0.000000000
vt -0.194158469 0.034856186
vn -0.000000000000 -0.000000000000 1.000000000000
vn -0.000000000000 -0.000000000000 1.000000000000
vn -0.000000000000 -0.000000000000 1.000000000000
f 514/514/514 515/515/515 516/516/516
v -13967.547669208 -11106.913728190 0.000000000
v 2603.330803295 -23301.612619937 0.000000000
v -14072.671192606 -10492.769342056 0.000000000
vt 0.000000000 0.000000000
vt 205.743698424 0.000000000
vt -4.486793553 4.323321852
vn -0.000000000000 -0.000000000000 1.000000000000
vn -0.000000000000 -0.000000000000 1.000000000000
vn -0.000000000000 -0.000000000000 1.000000000000
f 517/517/517 518/518/518 519/519/519
v 12529.171325264 1798.767228235 0.000000000
v -14636.267055867 -8609.862596625 0.000000000
v -14629.959226900 -8628.736864174 0.000000000
vt 0.000000000 0.000000000
vt 290.912464028 0.000000000
vt 290.921092165 0.198817060
vn 0.000000000000 0.000000000000 1.000000000000
vn 0.000000000000 0.000000000000 1.000000000000
vn 0.000000000000 0.000000000000 1.000000000000
f 520/520/520 521/521/521 522/522/522
v -14121.873759868 -10258.587645539 0.000000000
v -14312.894048049 -9663.231487038 0.000000000
v -14130.182813625 -10240.748372171 0.000000000
vt 0.000000000 0.000000000
vt 6.252501147 0.000000000
vt 0.195248570 0.024617080
vn 0.000000000000 0.000000000000 1.000000000000
vn 0.000000000000 0.000000000000 1.000000000000
vn 0.000000000000 0.000000000000 1.000000000000
f 523/523/523 524/524/524 525/525/525
v 12529.171325264 1798.767228235 0.000000000
v -14072.671192606 -10492.769342056 0.000000000
v 2603.330803295 -23301.612619937 0.000000000
vt 0.000000000 0.000000000
vt 293.042641369 0.000000000
vt 195.387224392 186.222905153
vn 0.000000000000 0.000000000000 1.000000000000
vn 0.000000000000 0.000000000000 1.000000000000
vn 0.000000000000 0.000000000000 1.000000000000
f 526/526/526 527/527/527 528/528/528
v 12529.171325264 1798.767228235 0.000000000
v -14375.987005888 -9345.043844749 0.000000000
v -14369.493816638 -9363.862660233 0.000000000
vt 0.000000000 0.000000000
vt 291.216769788 0.000000000
vt 291.228792804 0.198711800
vn 0.000000000000 0.000000000000 1.000000000000
vn 0.000000000000 0.000000000000 1.000000000000
vn 0.000000000000 0.000000000000 1.000000000000
f 529/529/529 530/530/530 531/531/531
v -14312.894048049 -9663.231487038 0.000000000
v -14121.873759868 -10258.587645539 0.000000000
v -14364.894048049 -9383.231487038 0.000000000
vt 0.000000000 0.000000000
vt 6.252501147 0.000000000
vt -2.824993954 0.360290385
vn -0.000000000000 -0.000000000000 1.000000000000
vn -0.000000000000 -0.000000000000 1.000000000000
vn -0.000000000000 -0.000000000000 1.000000000000
f 532/532/532 533/533/533 534/534/534
v -14072.671192606 -10492.769342056 0.000000000
v 12529.171325264 1798.767228235 0.000000000
v -14110.671192606 -10296.269342056 0.000000000
vt 0.000000000 0.000000000
vt 293.042641369 0.000000000
vt 0.479253434 1.943178105
vn 0.000000000000 -0.000000000000 1.000000000000
vn 0.000000000000 -0.000000000000 1.000000000000
vn 0.000000000000 -0.000000000000 1.000000000000
f 535/535/535 536/536/536 537/537/537
v -14364.894048049 -9383.231487038 0.000000000
v -14115.349037745 -10277.153960462 0.000000000
v -14369.493816638 -9363.862660233 0.000000000
vt 0.000000000 0.000000000
vt 9.281002643 0.000000000
vt -0.198923323 0.007774565
vn -0.000000000000 -0.000000000000 1.000000000000
vn -0.000000000000 -0.000000000000 1.000000000000
vn -0.000000000000 -0.000000000000 1.000000000000
f 538/538/538 539/539/539 540/540/540
v -14115.349037745 -10277.153960462 0.000000000
v -14364.894048049 -9383.231487038 0.000000000
v -14121.873759868 -10258.587645539 0.000000000
vt 0.000000000 0.000000000
vt 9.281002643 0.000000000
vt 0.196369495 0.012923868
vn 0.000000000000 0.000000000000 1.000000000000
vn 0.000000000000 0.000000000000 1.000000000000
vn 0.000000000000 0.000000000000 1.000000000000
f 541/541/541 542/542/542 543/543/543
v -14110.671192606 -10296.269342056 0.000000000
v 12529.171325264 1798.767228235 0.000000000
v -14115.349037745 -10277.153960462 0.000000000
vt 0.000000000 0.000000000
vt 292.569841066 0.000000000
vt 0.036430338 0.193392956
vn 0.000000000000 -0.000000000000 1.000000000000
vn 0.000000000000 -0.000000000000 1.000000000000
vn 0.000000000000 -0.000000000000 1.000000000000
f 544/544/544 545/545/545 546/546/546
v 12529.171325264 1798.767228235 0.000000000
v -14369.493816638 -9363.862660233 0.000000000
v -14115.349037745 -10277.153960462 0.000000000
vt 0.000000000 0.000000000
vt 291.228860596 0.000000000
vt 292.382103944 9.409521059
vn 0.000000000000 0.000000000000 1.000000000000
vn 0.000000000000 0.000000000000 1.000000000000
vn 0.000000000000 0.000000000000 1.000000000000
f 547/547/547 548/548/548 549/549/549
